<svg width="95" height="93" viewBox="0 0 95 93" fill="none" xmlns="http://www.w3.org/2000/svg">
<g clip-path="url(#clip0_3708_823)">
<path d="M91.9887 28.8087C86.6284 14.4345 75.1048 4.20169 61.5333 0L58.6825 40.308H36.3178L33.467 0C32.6037 0.261349 31.7404 0.542802 30.8972 0.864462C25.2157 2.97536 20.1766 6.09144 15.9205 9.91115C11.9253 13.4896 8.5927 17.6712 6.04304 22.275C-0.521842 34.0357 -2.04762 48.4903 3.01155 62.0804C12.1863 86.6874 39.55 99.1719 64.1231 89.9844C69.363 88.0344 74.0608 85.24 78.0961 81.8022C82.2117 78.3645 85.6447 74.2633 88.3148 69.7198C95.4217 57.7782 97.2286 42.8411 91.9887 28.8087ZM47.5001 75.4896C40.0118 75.4896 33.9488 69.3982 33.9488 61.8995C33.9488 57.0947 36.4382 52.893 40.1924 50.5007C42.3004 49.1135 44.8099 48.3294 47.5001 48.3294C54.9885 48.3294 61.0716 54.4008 61.0716 61.8995C61.0716 63.6887 60.7303 65.3975 60.1079 66.9455C58.1003 71.9514 53.2017 75.4896 47.5001 75.4896Z" fill="url(#paint0_linear_3708_823)"/>
<path d="M88.3146 69.7198C85.6445 74.2633 82.2115 78.3645 78.0959 81.8022L60.1077 66.9455C60.7301 65.3975 61.0714 63.6887 61.0714 61.8995C61.0714 54.4008 54.9883 48.3294 47.5 48.3294C44.8098 48.3294 42.3002 49.1135 40.1923 50.5007L6.04285 22.2951C8.59251 17.6913 11.9251 13.5097 15.9203 9.93126C20.1764 6.11154 25.2155 2.99546 30.897 0.884566C31.7402 0.562905 32.6035 0.281453 33.4668 0.0201038L36.3176 40.308H58.6823L61.5331 0C75.1046 4.20169 86.6282 14.4345 91.9885 28.8087C97.2284 42.8411 95.4216 57.7782 88.3146 69.7198Z" fill="#D23737"/>
</g>
<defs>
<linearGradient id="paint0_linear_3708_823" x1="53.3624" y1="22.6368" x2="36.173" y2="89.3096" gradientUnits="userSpaceOnUse">
<stop stop-color="#FFC900"/>
<stop offset="1" stop-color="#EF3737"/>
</linearGradient>
<clipPath id="clip0_3708_823">
<rect width="95" height="93" fill="white"/>
</clipPath>
</defs>
</svg>
