<svg width="9" height="48" viewBox="0 0 9 48" fill="none" xmlns="http://www.w3.org/2000/svg">
<path d="M1.22129 27.1395L0.266665 11.9535C0.0875118 8.99434 0 6.87031 0 5.5814C0 3.82717 0.432564 2.45774 1.29484 1.47677C2.15925 0.491397 3.29788 0 4.70688 0C6.41661 0 7.5605 0.629219 8.13545 1.8869C8.71039 3.14579 8.99987 4.9584 8.99987 7.3235C8.99987 8.71915 8.92946 10.1374 8.79192 11.5722L7.50991 27.2024C7.37123 29.0638 7.07364 30.4895 6.615 31.484C6.15792 32.4762 5.40225 32.9721 4.35056 32.9721C3.2765 32.9721 2.53252 32.4933 2.11549 31.5299C1.69804 30.5702 1.39887 29.1048 1.22129 27.1395ZM4.52929 48C3.31769 48 2.25802 47.5847 1.3557 46.749C0.451235 45.9155 0 44.7481 0 43.2463C0 41.9352 0.432564 40.8198 1.29484 39.9002C2.15925 38.9806 3.21792 38.5217 4.46957 38.5217C5.72179 38.5217 6.78831 38.9806 7.6731 39.9002C8.55733 40.8198 9 41.9357 9 43.2463C9 44.7247 8.55305 45.8866 7.65771 46.7331C6.76437 47.5779 5.7218 48 4.52929 48Z" fill="#F1B63E"/>
</svg>
