<svg width="36" height="32" viewBox="0 0 36 32" fill="none" xmlns="http://www.w3.org/2000/svg">
<path d="M1.93383 8.367C1.46145 9.2319 1.06287 10.1337 0.760247 11.0726C0.575721 11.5309 0.501911 12.0188 0.376433 12.4919C0.243574 12.9576 0.199288 13.475 0.125478 13.9777L0.0738104 14.3547L0.0516673 14.5395L0.0442862 14.7095L0.0221431 15.397L0 15.9071V16.1436L0.0442862 16.8755L0.0959535 17.6073C0.125478 17.8512 0.169764 18.0878 0.21405 18.3317L0.332147 19.0562C0.369052 19.3001 0.450243 19.5293 0.509292 19.7658C0.826676 21.4882 1.4393 23.1884 2.38408 24.7112C3.32147 26.2341 4.53934 27.6016 5.96388 28.7178C7.38842 29.8341 9.01963 30.7064 10.7616 31.2682L12.0901 31.623C12.5404 31.7265 13.0275 31.7856 13.4999 31.8595L13.8542 31.9113L14.1642 31.9335L14.7842 31.9704L15.2492 31.9926L15.3304 32H15.4928L16.1792 31.9704C19.8402 31.8152 23.4274 30.2998 26.1141 27.816C27.4648 26.5815 28.5941 25.1104 29.4503 23.4915C29.8858 22.6784 30.2327 21.8505 30.528 20.956L30.7346 20.2685L30.838 19.9211C30.8675 19.8102 30.8823 19.7141 30.9044 19.6106L31.1037 18.7014L31.148 18.4796L31.1775 18.3096C31.2882 17.659 31.0816 16.6241 30.897 16.3137C30.7199 16.0106 30.5501 16.0623 30.4025 16.3211C30.2475 16.5872 30.0999 17.0603 29.9301 17.6147C29.3249 19.4332 28.5277 21.3034 27.3172 22.9815C26.1141 24.6595 24.5862 26.1897 22.7705 27.3059C20.6152 28.6957 18.0614 29.361 15.5297 29.3388H15.4485L15.3378 29.3314L15.0795 29.3166L14.0461 29.2427C13.8837 29.2205 13.7435 29.1909 13.5959 29.1614C13.3006 29.1022 13.0054 29.0579 12.7101 28.9987L11.8023 28.7474C10.6139 28.3556 9.44773 27.8677 8.41438 27.1507C7.38104 26.4484 6.40674 25.6501 5.60959 24.6817C4.81244 23.7281 4.0891 22.6932 3.59457 21.54C3.09266 20.3868 2.69408 19.1892 2.5317 17.9473L2.45051 17.4816C2.42836 17.3264 2.42836 17.1712 2.4136 17.0159L2.36193 16.188L2.35455 16.1289V16.0771L2.38408 15.0939C2.39146 14.9239 2.38408 14.7317 2.40622 14.5839L2.46527 14.1403C2.52432 13.8447 2.54646 13.5638 2.63503 13.2607L2.88599 12.3662C2.9598 12.0631 3.10742 11.7822 3.20337 11.4939L3.37313 11.0578C3.43218 10.9099 3.51337 10.7769 3.57242 10.6364C4.42124 8.86968 5.66126 7.29513 7.16699 6.05323C8.69486 4.83351 10.4737 3.95384 12.3632 3.48813C16.1497 2.53453 20.32 3.34767 23.516 5.68362C24.6674 6.50416 25.6048 7.39123 26.2617 7.7978C24.852 9.28364 23.4496 10.7917 22.0398 12.2775C19.8181 13.9408 17.7735 15.8258 15.7807 17.7847C14.1568 16.1658 12.5182 14.5543 10.9535 12.8763C10.7689 12.6767 10.2892 12.5584 10.0677 12.5954C9.62488 12.6619 9.6544 13.1202 9.84631 13.6451C10.4958 15.3822 11.6989 17.0751 13.1087 18.6126L14.9687 20.6603C15.3747 21.1112 16.0685 21.1408 16.5114 20.7342L16.5852 20.6603C19.6262 17.903 22.6598 15.1383 25.4424 12.0853L26.8301 10.8212C29.7234 8.11567 32.5578 5.34358 35.1411 2.34233C35.8718 1.49222 36.2926 0.590368 35.7611 0.176402C35.274 -0.200602 34.3956 0.0359494 33.5321 0.79735C31.9747 2.16491 30.4025 3.53987 28.9411 5.01093C28.3284 5.63188 27.7232 6.26022 27.1179 6.88856C27.0663 6.72593 26.9925 6.55591 26.8965 6.3711C26.5348 5.63188 25.841 4.70045 24.7929 3.84295C22.9181 2.31276 20.6521 1.21132 18.2385 0.716036L17.3381 0.582975L16.3859 0.479484L15.5297 0.435131H15.3821L15.264 0.442523L14.5702 0.464699C14.2602 0.486876 13.9502 0.472092 13.6475 0.523837L12.2747 0.723428L11.8244 0.834311L10.9313 1.06347C7.1227 2.21666 3.83076 4.90744 1.93383 8.367Z" fill="white"/>
</svg>
