<?xml version="1.0" encoding="utf-8"?>
<!-- Generator: Adobe Illustrator 24.0.3, SVG Export Plug-In . SVG Version: 6.00 Build 0)  -->
<svg version="1.1" id="Layer_1" xmlns="http://www.w3.org/2000/svg" xmlns:xlink="http://www.w3.org/1999/xlink" x="0px" y="0px"
	 viewBox="0 0 100 100" style="enable-background:new 0 0 100 100;" xml:space="preserve">
<style type="text/css">
	.st0{fill:none;}
	.st1{font-family:'EuclidCircularA-Medium';}
	.st2{font-size:92px;}
</style>
<path d="M53.7,43c-2.9-2.8-6.4-5-10.4-6.6c-4-1.6-8.3-2.4-12.9-2.4H5.2v62.2h25.1c4.5,0,8.9-0.8,12.9-2.4c4-1.6,7.5-3.8,10.4-6.6
	c2.9-2.8,5.3-6.1,7-9.9c1.7-3.8,2.6-7.8,2.6-12.1c0-4.4-0.9-8.5-2.6-12.3C58.9,49.1,56.6,45.7,53.7,43z M46.6,72.2
	c-0.9,2.2-2.2,4.1-3.8,5.7c-1.6,1.6-3.5,2.9-5.7,3.8c-2.2,0.9-4.6,1.4-7.1,1.4H19.9V46.8H30c2.5,0,4.9,0.5,7.1,1.4
	c2.2,0.9,4.1,2.3,5.7,3.9c1.6,1.6,2.9,3.6,3.8,5.8c0.9,2.2,1.4,4.6,1.4,7.2C47.9,67.7,47.5,70,46.6,72.2z"/>
<rect x="39.4" y="-17.6" class="st0" width="70" height="85.9"/>
<text transform="matrix(1 0 0 1 51.5627 51.419)" class="st1 st2">+</text>
</svg>
