<?xml version="1.0" encoding="utf-8"?>
<!-- Generator: Adobe Illustrator 24.0.3, SVG Export Plug-In . SVG Version: 6.00 Build 0)  -->
<svg version="1.1" id="Layer_1" xmlns="http://www.w3.org/2000/svg" xmlns:xlink="http://www.w3.org/1999/xlink" x="0px" y="0px"
	 viewBox="0 0 262 93" style="enable-background:new 0 0 262 93;" xml:space="preserve">
<style type="text/css">
	.st0{fill:#3858F5;}
</style>
<g>
	<path class="st0" d="M66.3,19.1c-4-3.8-8.7-6.8-14.2-9c-5.4-2.2-11.3-3.3-17.5-3.3H0.5v84.3h34.1c6.2,0,12-1.1,17.5-3.3
		c5.4-2.2,10.2-5.2,14.2-8.9c4-3.8,7.1-8.3,9.5-13.4c2.3-5.1,3.5-10.6,3.5-16.4c0-5.9-1.2-11.5-3.5-16.7
		C73.4,27.4,70.2,22.8,66.3,19.1z M56.7,58.8c-1.2,3-3,5.6-5.2,7.8c-2.2,2.2-4.8,3.9-7.8,5.2c-3,1.2-6.2,1.9-9.6,1.9H20.4V24.4h13.7
		c3.4,0,6.6,0.6,9.6,1.9s5.6,3.1,7.8,5.3c2.2,2.2,3.9,4.9,5.2,7.9c1.2,3,1.9,6.3,1.9,9.8C58.5,52.6,57.9,55.8,56.7,58.8z"/>
	<path class="st0" d="M141.6,36.4c-2.8-3-6.2-5.4-10.1-7.2c-3.9-1.7-8.2-2.6-12.8-2.6c-4.6,0-9,0.8-13,2.5s-7.6,4-10.5,7
		c-2.9,2.9-5.3,6.5-7,10.5s-2.6,8.4-2.6,12.9s0.9,8.9,2.7,12.9c1.8,4,4.3,7.6,7.3,10.5c3.1,2.9,6.8,5.3,11,7s8.8,2.5,13.6,2.5
		c5.3,0,10.1-0.8,14.3-2.3c4-1.5,8-3.8,11.9-7l-12.3-10.9c-1.5,1.4-3.3,2.6-5.4,3.4c-2.2,0.9-4.8,1.3-7.5,1.3c-3.8,0-7.2-1-10-3
		s-4.9-4.5-6.3-7.6l-0.3-0.7h46.2v-4.4c0-5-0.8-9.6-2.4-13.9C146.7,43.1,144.4,39.4,141.6,36.4z M104.2,52.9l0.2-0.6
		c1-3.3,2.7-6,5.2-7.8c2.4-1.8,5.4-2.8,8.7-2.8c3.3,0,6.2,1,8.7,2.9c2.5,1.9,4.3,4.5,5.3,7.7l0.2,0.7h-28.3V52.9z"/>
	<rect x="159.7" y="0.5" class="st0" width="18.7" height="90.6"/>
	<path class="st0" d="M251.6,20.6c2.9,0,5.3-1,7.3-3s3-4.5,3-7.3c0-2.9-1-5.3-3-7.3c-2-2-4.5-3-7.3-3c-2.9,0-5.3,1-7.3,3
		c-2,2-3,4.5-3,7.3c0,2.9,1,5.3,3,7.3S248.8,20.6,251.6,20.6z"/>
	<path class="st0" d="M218.7,23.6c0-2.6,0.8-4.6,2.5-5.8c1.6-1.2,4-1.9,7.1-1.9c1.3,0,2.6,0.1,3.8,0.2c1,0.1,2.2,0.3,3.5,0.6V1.4
		c-1.2-0.3-2.7-0.5-4.5-0.8c-2-0.2-3.8-0.4-5.5-0.4c-8.3,0-14.7,2-19.1,6c-4.4,3.9-6.6,9.7-6.6,17.1v4.4h-14.1v15.4h14.1v48h18.7
		v-48h23.7v48H261V27.6h-42.3L218.7,23.6L218.7,23.6z"/>
</g>
</svg>
