<svg id="ac6321bd-95b7-4324-a6e5-0b50d2b0c78d" data-name="Layer 1" xmlns="http://www.w3.org/2000/svg" viewBox="0 0 120 120"><defs><style>.e5aed300-f050-4b8e-9474-b5328205d1e9{fill:none;}.f1bcafb3-d14c-4806-abe2-6a55816fab17{fill:#231f20;}</style></defs><title>idojaras_piktok</title><path class="e5aed300-f050-4b8e-9474-b5328205d1e9" d="M70.45,59.75v-12a15.17,15.17,0,0,0-8.4-2.6,14.9,14.9,0,1,0,0,29.8,15.53,15.53,0,0,0,3.1-.3,17.85,17.85,0,0,1-.2-2.3A17.65,17.65,0,0,1,70.45,59.75Z"/><path class="f1bcafb3-d14c-4806-abe2-6a55816fab17" d="M94.45,59.75V42.25a12,12,0,0,0-24-.2,19.54,19.54,0,0,0-8.4-1.9,19.9,19.9,0,0,0,0,39.8,23,23,0,0,0,4.5-.5,17.5,17.5,0,0,0,33.5-7.1A18.6,18.6,0,0,0,94.45,59.75ZM62.05,75a14.9,14.9,0,1,1,0-29.8,15.17,15.17,0,0,1,8.4,2.6v12a17.16,17.16,0,0,0-5.4,12.6,16.41,16.41,0,0,0,.2,2.3A17.33,17.33,0,0,1,62.05,75Zm20.4,9.9a12.34,12.34,0,0,1-11.2-7.1,11.88,11.88,0,0,1-1.2-5v-.4a12.72,12.72,0,0,1,4.5-9.6l.1-.1.2-.2c.1-.1.1-.1.1-.2s.1-.1.1-.2.1-.1.1-.2.1-.1.1-.2a.35.35,0,0,1,.1-.2V42.35a7,7,0,1,1,14,0v19.2c0,.1.1.2.1.3s0,.1.1.2a.35.35,0,0,0,.1.2c0,.1.1.1.1.2s.1.1.2.2l.2.2.1.1a12.36,12.36,0,0,1-7.8,21.9Z"/><path class="f1bcafb3-d14c-4806-abe2-6a55816fab17" d="M85,64.45V41.85a2.5,2.5,0,0,0-5,0v22.6a8.28,8.28,0,0,0-5.8,7.9,8.3,8.3,0,0,0,8.3,8.3,8.28,8.28,0,0,0,8.3-8.3A8.41,8.41,0,0,0,85,64.45Z"/><path class="f1bcafb3-d14c-4806-abe2-6a55816fab17" d="M62.05,33.45a2.48,2.48,0,0,0,2.5-2.5V20.45a2.5,2.5,0,0,0-5,0v10.4A2.5,2.5,0,0,0,62.05,33.45Z"/><path class="f1bcafb3-d14c-4806-abe2-6a55816fab17" d="M39.65,41.15a2.41,2.41,0,0,0,1.8.7,3.1,3.1,0,0,0,1.7-.7,2.42,2.42,0,0,0,0-3.5l-7.3-7.3a2.47,2.47,0,0,0-3.5,3.5Z"/><path class="f1bcafb3-d14c-4806-abe2-6a55816fab17" d="M35.25,60.05a2.48,2.48,0,0,0-2.5-2.5H22.45a2.5,2.5,0,0,0,0,5h10.4A2.46,2.46,0,0,0,35.25,60.05Z"/><path class="f1bcafb3-d14c-4806-abe2-6a55816fab17" d="M39.65,79l-7.3,7.3a2.34,2.34,0,0,0-.1,3.5,2.41,2.41,0,0,0,1.8.7,2.57,2.57,0,0,0,1.8-.7l7.3-7.3a2.47,2.47,0,0,0-3.5-3.5Z"/><path class="f1bcafb3-d14c-4806-abe2-6a55816fab17" d="M62.05,86.65a2.48,2.48,0,0,0-2.5,2.5v10.4a2.5,2.5,0,0,0,5,0V89.15A2.48,2.48,0,0,0,62.05,86.65Z"/></svg>