<svg xmlns="http://www.w3.org/2000/svg" width="46" height="20"><g fill="none" fill-rule="evenodd"><path fill="#F7963E" d="M40 3v6h6v2h-6v6h-2v-6.001L32 11V9l6-.001V3h2Z"/><path fill="#0F0F0F" fill-rule="nonzero" d="M0 18.909c2.707-2.596 4.824-4.983 6.35-7.161C7.877 9.57 8.64 7.414 8.64 5.28c0-1.21-.222-2.212-.667-3.009-.445-.796-1.042-1.194-1.793-1.194-.445 0-.766.054-.963.162-.267.305-.73 1.12-1.386 2.448-.657 1.328-1.129 2.08-1.415 2.257a2.872 2.872 0 0 1-1.63-.605C.32 4.975.088 4.562.088 4.1c0-1.003.687-1.937 2.06-2.802S4.939 0 6.402 0C8.2 0 9.677.447 10.833 1.342c1.156.895 1.734 2.178 1.734 3.85 0 1.514-.477 2.896-1.43 4.144-.953 1.25-2.635 2.92-5.046 5.015L3.6 16.667c.91-.226 1.72-.335 2.43-.325.406 0 1.13.04 2.172.118 1.042.079 1.776.118 2.2.118.485 0 .924-.226 1.32-.678.395-.453.824-1.16 1.289-2.124l.948.236c-.543 2.193-1.05 3.739-1.519 4.638-.47.9-1.005 1.35-1.608 1.35-.652 0-1.904-.106-3.757-.317-1.852-.212-3.03-.317-3.534-.317-.385 0-.845.034-1.378.103a33.9 33.9 0 0 0-1.32.192l-.518.118-.326-.87Zm15.412-5.015c3.28-6.785 5.484-11.003 6.61-12.655.464-.806 1.196-1.21 2.193-1.21 1.561 0 2.54.202 2.935.605-.1.266-.351.605-.756 1.018-3.804 3.845-6.94 7.763-9.41 11.755h6.802V8.392c1.096-.52 2.1-.82 3.008-.9l.637.148v5.767h2.786v1.387h-2.786v.191c0 1.288.02 2.13.06 2.522.04.394.138.65.296.767l2.045.325c.04.196.06.55.06 1.062H20.57l.089-1.062 2.727-.325c.158-.137.264-.403.318-.796.054-.393.082-1.195.082-2.404v-.28H15.62l-.208-.9Z"/></g></svg>