<svg xmlns="http://www.w3.org/2000/svg" width="356" height="130"><path fill="#FFF" fill-rule="evenodd" d="M175.04 31.499c3.096 0 6.105.753 8.914 2.114 15.66 6.167 30.505 27.222 30.9 47.153 1.722 21.737-8.012 48.97-28.42 48.97-13.548 0-25.45-8.962-32.727-23.367-4.89-7.937-7.913-18.62-7.913-30.375 0-24.515 13.11-44.495 29.245-44.495ZM24.43 33.017c2.167 0 4.237.226 6.17.666 13.837 1.289 23.845 9.176 27.61 21.846 3.745 12.576 4.546 26.601-6.727 39.28l9.324 10.402v24.016H8.878L0 117.572v-5.388l.283-.136c10.417-5.693 17.848-13.12 22.013-21.842-6.054-2.254-9.991-5.707-14.174-11.404a34.675 34.675 0 0 1-3.565-5.907c-1.905-2.844-3.17-6.523-3.262-10.922-.12-6.92 2.023-16.579 8.339-22.925 3.92-3.955 8.804-5.996 14.53-6.031h.265Zm84.824.616 10.428 10.207v47.678l1.238 1.52h.048v.06l.575.684 9.088 11.02v4.35h-8.242v4.383l8.028 10.38v4.887H89.985l-11.495-11.23v-4.77h.538c2.854 0 4.41-.15 6.408-1.566.93-.653 1.577-1.268 2.097-1.98H69.13L58.939 98.644h.036V92.77l.155-.16c8.202-9.188 12.177-14.995 17.692-25.894 5.998-11.866 8.431-19.059 10.81-32.074l.093-.527.52.097c3.534.735 5.614.961 8.951.961h.691c4.22-.046 6.636-.337 10.719-1.363l.648-.176Zm236.01-.037 10.526 11.28V70.47h-5.643l-10.388-10.385s-.22-6.449-3.065-8.744c-2.617-2.108-5.684-2.262-6.362-2.27h-.115l-.022.001.1 11.652h4.558l11.174 12.674V94.32l9.973 8.812v25.338h-54.5l-10.647-11.32v-4.535l.502-.004c2.188-.137 3.528-.703 5.103-2.172 1.844-1.71 2.535-3.336 2.436-5.831V48.99l-8.458-10.605v-4.79h54.827Zm-86.411-.412a18.83 18.83 0 0 1 5.022 1.204c12.095 2.682 20.79 12.06 22.086 24.462 1.012 9.628-1.725 16.653-9.106 23.28 2.942 2.177 4.411 3.778 6.28 6.862 1.749 2.835 2.443 4.66 3.053 7.894v18.289l6.062 8.116v4.78h-19.09l-12.132-4.554v4.148h-36.58l-10.326-10.515h-.027v-4.522l.492-.017c2.643-.232 4.294-1.108 5.908-3.143 1.311-1.645 1.412-3.173 1.538-5.118.02-.34.037-.684.092-1.072V49.166l-8.677-10.978v-5.004h45.404Zm-83.814-.632c-15.542 0-28.183 19.483-28.183 43.442 0 23.962 12.641 43.461 28.183 43.461 15.565 0 28.21-19.5 28.21-43.461 0-23.959-12.645-43.442-28.21-43.442ZM24.43 34.061h-.238c-5.46.053-10.063 1.962-13.809 5.695-6.088 6.123-8.131 15.486-8.021 22.194.183 10.022 6.699 16.218 12.66 16.218 5.252 0 8.87-4.458 9.709-11.876.83-7.595-.857-11.207-2.407-12.88-1.103-1.189-2.525-1.826-4.128-1.826-2.772 0-5.79 1.826-8.106 4.85l-.491.676-.4-.726c-1.633-2.913-1.068-8.388 1.247-12.166 1.35-2.17 3.82-4.81 8.113-4.81h.218c2.07.041 3.838.876 5.26 2.477 5.87 6.711 4.266 25.934 2.772 36.77-1.897 14.112-10.792 25.895-25.75 34.132v3.747H49.22V94.08h-2.89c-.245 1.8-.993 3.042-2.524 4.262-1.878 1.475-3.336 1.475-5.788 1.34h-15.02l1.786-.954c15.222-8.26 24.027-20.821 24.22-34.508.144-10.013-2.772-18.483-8.214-23.845-4.211-4.19-9.726-6.315-16.36-6.315Zm83.776.916c-3.81.93-6.216 1.188-10.3 1.223h-.709c-3.245 0-5.344-.2-8.624-.844-2.362 12.79-4.832 20.018-10.82 31.818-5.533 10.935-9.515 16.785-17.71 25.984v4.472h29.495l-.027 10.062c-.764 1.985-1.668 3.112-3.446 4.37-2.168 1.555-3.973 1.763-6.507 1.769v2.705h40.133v-3.323h-3.152c-2.289 0-3.92-.096-5.742-1.56-1.542-1.214-2.253-2.373-2.59-4.254v-9.98h11.715v-3.338h-11.716V34.977Zm150.602-.79-44.3.015v2.897c.264 0 .51-.029.8-.029 2.92 0 4.916.848 6.465 2.74 1.14 1.408 1.184 2.614 1.222 4.038.026.653.045 1.385.18 2.226v57.266c-.035.397-.035.75-.08 1.065-.138 2.04-.274 3.79-1.76 5.697-1.706 2.14-3.51 3.164-6.171 3.476v2.563h34.72v-2.726c-2.807-.057-4.85-1.072-6.636-3.33-1.613-2.087-1.613-3.968-1.613-6.348v-26.89l1.65-.047h1.166c2.67 0 5.724.197 7.565 2.03 1.912 1.921 2.279 4.591 2.58 6.712l-.192 20.296c.047 2.43.484 3.866 1.851 5.961 1.578 2.364 3.044 3.52 5.723 4.535h19.551v-2.296h-.015c-2.225 0-3.93-.756-5.487-2.45-1.67-1.841-1.67-3.407-1.633-5.81v-16.37c-.5-3.133-1.323-5.002-3.373-7.592-2.352-2.943-4.357-4.397-7.983-5.641l-1.205-.408 1.14-.541c8.295-3.941 13.034-8.686 12.717-21.365-.311-11.876-8.735-18.884-16.882-19.674Zm85.39.446h-52.722v2.69c2.772 0 4.804.953 6.606 3.104 1.523 1.81 1.644 3.34 1.797 5.452l.055.872v57.85c.128 2.725-.693 4.679-2.762 6.592-1.64 1.525-3.089 2.199-5.242 2.385v2.563h52.486V93.88H342.4c-.435 5.442-2.13 8.975-6.178 12.936-4.504 4.4-8.942 6.265-14.885 6.265-.72 0-1.45-.017-2.25-.077l-.474-.024V77.209l.562.016c.996.084 1.943.05 2.8.029 2.424-.064 4.339-.045 5.98 1.37 1.666 1.46 2.423 2.778 2.77 4.86v7.071h3.719V62.081h-2.834v3.214c-.21 2.363-.884 3.843-2.553 5.544-2.215 2.304-4.693 2.484-7.285 2.484h-1.228c-.446-.04-.93-.04-1.386-.04h-.545V38.189l.498-.032c5.7-.32 9.462.819 14.03 4.268 5.48 4.212 7.875 9.058 7.793 15.696h3.264V34.633ZM175.24 37.362c3.282 0 5.942 2.827 5.942 6.32v64.339c0 3.5-2.66 6.343-5.942 6.343-3.292 0-5.963-2.843-5.963-6.343V43.68c0-3.492 2.67-6.32 5.963-6.32Zm155.968 54.243h-1.012v18.415c1.815-.94 3.546-2.242 5.288-3.933 1.383-1.377 2.48-2.671 3.335-4.046-1.614-2.018-5.623-7.096-7.61-10.436ZM89.537 52.398v41.683H65.473v-.513c4.822-6.949 7.33-10.97 11.495-18.283 4.969-8.701 7.492-13.738 11.495-22.876v-.01h1.074Zm-1.074 27.248-7.512 13.391h7.512V79.646Zm155.698-40.99c3.134-.032 6.333.044 8.2 1.935 1.933 1.963 2.308 4.96 2.6 7.207v16.265c-.292 2.91-.913 5.259-3.046 6.98-2.15 1.818-4.825 1.931-8.523 1.936h-1.224V38.674c.435 0 .877-.005 1.323-.01ZM31.23 1.433c1.906 0 4.856.239 6.116.449l.154.18c.154 1.253.276 3.344.307 5.346l-.584.03c-1.045-2.061-2.274-3.704-3.749-5.05a8.343 8.343 0 0 0-2.336-.298c-2.028 0-3.38 1.046-3.38 2.839 0 1.792 1.106 2.509 5.04 4.063 3.718 1.493 5.624 2.838 5.624 6.124 0 4.003-3.258 6.244-7.56 6.244-1.814 0-4.119-.15-6.393-.598-.307-2.39-.491-3.913-.491-6.094l.614-.09c1.045 2.151 2.305 3.914 3.81 5.736.893.299 1.63.36 2.49.36 2.152 0 3.688-1.137 3.688-3.377 0-1.972-1.567-2.779-4.764-3.914-4.087-1.464-5.838-3.196-5.838-6.064 0-3.436 3.38-5.886 7.252-5.886Zm38.237 4.451c3.226 0 6.085 1.255 6.085 4.303 0 .716-.093 1.284-.338 1.553-.185.12-.4.179-.677.179-2.366 0-4.64-.15-7.068-.15 0 0-.03.3-.03.509 0 2.778 1.629 5.497 4.609 5.497 1.322 0 2.366-.15 3.381-.448l.154.299c-1.2 2.36-2.797 3.674-5.963 3.674-3.995 0-7.069-3.077-7.069-7.32 0-4.839 3.382-8.096 6.916-8.096Zm-22.427 0c3.965 0 7.13 2.928 7.13 7.589 0 4.78-3.688 7.827-7.621 7.827-3.75 0-7.192-2.898-7.192-7.618 0-4.361 3.473-7.798 7.683-7.798ZM60.583 0l.583.06s-.103 1.748-.155 3.592l-.012.462c-.01.462-.017.922-.017 1.353v12.638c0 1.732.062 1.97.307 2.121l.768.209s.062.24.062.538h-7.468c0-.299.061-.538.061-.538l.8-.209c.246-.15.307-.3.307-2.121V3.982c-.008-1.85-.102-2.078-.339-2.309l-.798-.239c0-.268.061-.448.061-.448S57.663.15 60.583 0ZM17.55 0l.584.06s-.112 1.896-.161 3.823l-.01.462c-.008.384-.013.763-.013 1.122v12.855c.006 1.536.072 1.76.307 1.904l.769.209s.06.24.06.538H11.62c0-.299.062-.538.062-.538l.8-.209c.245-.15.307-.3.307-2.121V3.982c-.007-1.85-.102-2.078-.338-2.309l-.8-.239c0-.268.062-.448.062-.448S14.632.15 17.552 0Zm-6.78 1.852c0 .419-.062.598-.062.598l-1.413.238c-.339.3-.43.747-.43 3.736v10.259c.006 2.735.102 3.164.43 3.453l1.413.238s.062.18.062.599H1.643c0-.42.062-.599.062-.599l1.414-.238c.338-.299.43-.747.43-3.734V6.142c-.006-2.735-.103-3.164-.43-3.454L1.705 2.45s-.062-.18-.062-.598Zm35.963 4.66c-1.691 0-2.09 3.526-2.09 6.723 0 3.585.399 7.379 2.335 7.379 1.753 0 1.937-3.645 1.937-6.812 0-3.555-.4-7.29-2.182-7.29Zm22.549-.088c-1.137 0-1.844 1.822-1.844 4.63 0 .15.062.21.246.21l2.489-.09c.37-.12.585-.897.585-2.211 0-1.643-.461-2.54-1.476-2.54Z"/></svg>