<svg xmlns="http://www.w3.org/2000/svg" xml:space="preserve" width="291.5" height="64" viewBox="-6.75 -70 291.5 64"><g fill="#0F0F0F"><path d="M284.75-23.301V-6.8h-35.5l-6.9-7.4v-3h.301c1.398-.101 2.299-.5 3.299-1.4 1.199-1.1 1.701-2.199 1.6-3.8v-36.2l-5.5-6.9v-3.1h35.801l6.9 7.3v16.7h-3.701l-6.799-6.8s-.1-4.2-2-5.7c-1.9-1.6-4.201-1.5-4.201-1.5l.1 7.6h3.002l7.299 8.3v13.6l6.299 5.799zm-16.1-7.5h-.701v12c1.201-.6 2.301-1.499 3.5-2.6.9-.9 1.6-1.699 2.201-2.6-1.101-1.399-3.701-4.699-5-6.8m8.6 1.401h-1.301c-.299 3.5-1.4 5.801-4 8.4-2.9 2.9-5.799 4.1-9.699 4.1-.5 0-.9 0-1.5-.1h-.301v-23.2h.4c.699.1 1.301 0 1.801 0 1.6 0 2.799 0 3.898.9 1.102 1 1.6 1.8 1.801 3.201v4.6h2.4v-18.6h-1.801v2.1c-.1 1.5-.6 2.5-1.699 3.6-1.4 1.5-3.1 1.6-4.801 1.6h-2.099v-22.8h.299c3.701-.2 6.201.5 9.201 2.8 3.6 2.7 5.1 5.9 5.1 10.2h2.1V-68H242.65v1.8c1.799 0 3.1.6 4.299 2 1 1.2 1.1 2.2 1.201 3.6v38.299c.1 1.801-.5 3-1.801 4.301-1.1 1-2 1.4-3.4 1.6v1.7h34.301v-14.7zm-38 13.9 4 5.3v3.1h-12.5l-7.9-3v2.7h-23.9l-6.699-6.9v-2.9h.299c1.701-.2 2.801-.7 3.9-2 .9-1.1.9-2.101 1-3.3 0-.2 0-.4.102-.7v-35.3l-5.701-7.2v-3.2h29.6c1.102.101 2.201.4 3.301.8 7.9 1.7 13.6 7.9 14.4 15.9.699 6.3-1.102 10.8-5.9 15.2 1.9 1.4 2.898 2.5 4.1 4.5 1.1 1.8 1.6 3 2 5.1v11.9h-.102zm-3-.7c-1.5 0-2.602-.5-3.6-1.601C231.549-19 231.549-20 231.549-21.6v-10.7c-.299-2-.898-3.3-2.199-4.9-1.5-1.9-2.801-2.9-5.199-3.7l-.801-.3.699-.4c5.4-2.6 8.5-5.7 8.301-13.9-.199-7.7-5.699-12.3-11-12.8h-28.9v1.9h.5c1.9 0 3.201.6 4.201 1.8.699.9.799 1.7.799 2.6 0 .4 0 .9.1 1.5v37.3c0 .3 0 .5-.1.7-.1 1.3-.199 2.5-1.1 3.699-1.1 1.4-2.301 2.101-4 2.301v1.699h22.699V-16.6c-1.799 0-3.199-.701-4.299-2.201-1.1-1.399-1.1-2.6-1.1-4.1v-17.6h1.899c1.701 0 3.701.1 4.9 1.3 1.201 1.3 1.5 3 1.701 4.399l-.101 13.202c0 1.6.301 2.5 1.201 3.899 1 1.5 2 2.3 3.699 3h12.801V-16.2zm-25.701-49.1V-43c2.801 0 4.801 0 6.4-1.3 1.4-1.1 1.801-2.7 2-4.5v-10.6c-.199-1.5-.4-3.4-1.699-4.7-1.6-1.5-4.301-1.2-6.701-1.2M174.15-6c-8.801 0-16.601-5.801-21.301-15.2-3.199-5.2-5.2-12.101-5.2-19.8 0-16 8.601-29 19.101-29 2 0 4 .5 5.799 1.4 10.201 4 19.9 17.7 20.201 30.7 1.1 14.2-5.301 31.9-18.6 31.9m11-35c0-15.6-8.201-28.3-18.4-28.3-10.101 0-18.4 12.7-18.4 28.3 0 15.6 8.2 28.3 18.4 28.3 10.1 0 18.4-12.7 18.4-28.3m-18.3-25.2c-2.1 0-3.9 1.8-3.9 4.1v41.9c0 2.3 1.701 4.101 3.9 4.101 2.1 0 3.9-1.9 3.9-4.101v-41.9c0-2.2-1.701-4.1-3.9-4.1m-80.7 37.399L92.25-22v15.6h-33.9l-5.8-7.6v-3.5l.2-.1c6.8-3.701 11.6-8.5 14.4-14.2-3.9-1.501-6.5-3.7-9.2-7.4-1-1.3-1.7-2.6-2.3-3.8-1.2-1.9-2.1-4.3-2.1-7.1-.1-4.5 1.3-10.8 5.399-14.9 2.4-2.7 5.601-4 9.4-4h.2c1.399 0 2.8.1 4 .4 9 .8 15.6 6 18 14.2C92.95-46.2 93.45-37 86.15-28.801m-1.5-.399h-1.9c-.2 1.2-.6 2-1.6 2.8-1.2 1-2.2 1-3.8.9h-9.8l1.2-.6c9.9-5.4 15.7-13.601 15.8-22.5.1-6.5-1.8-12-5.4-15.5-2.7-2.7-6.3-4.1-10.7-4.1h-.2c-3.601 0-6.6 1.3-9 3.7-4 4-5.3 10.1-5.201 14.5.1 6.5 4.4 10.6 8.3 10.6 3.4 0 5.8-2.9 6.3-7.7.5-4.9-.601-7.3-1.6-8.4-.7-.8-1.601-1.2-2.7-1.2-1.8 0-3.8 1.2-5.3 3.2l-.3.4-.3-.5c-1.1-1.9-.7-5.5.8-7.9.899-1.4 2.5-3.1 5.3-3.1h.1c1.4 0 2.5.6 3.4 1.6 3.8 4.4 2.8 16.9 1.8 24-1.2 9.2-7 16.9-16.8 22.199v2.4h31.4v-14.8h.201zm47.2-.2 5.9 7.2v2.8h-5.4v2.9l5.2 6.8v3.2h-26.3l-7.5-7.3V-17h.4c1.9 0 2.9-.1 4.2-1 .6-.4 1-.801 1.4-1.301h-12l-6.6-6.899V-30l.1-.101c5.4-5.999 7.9-9.799 11.5-16.899 3.9-7.7 5.5-12.4 7.1-20.9l.1-.3.3.1c2.3.5 3.7.6 5.8.6h.5c2.8 0 4.3-.2 7-.9l.4-.1 6.8 6.7v31.1l.8 1 .3.3zm-1.1.2h-7.6v-38.5c-2.5.6-4.1.8-6.7.8h-.5c-2.1 0-3.5-.1-5.6-.5-1.5 8.3-3.2 13-7.1 20.7-3.6 7.1-6.2 10.899-11.6 16.9v2.899h19.2v6.601c-.5 1.3-1.1 2-2.2 2.8-1.4 1-2.6 1.1-4.2 1.2v1.8h26.2v-2.2h-2.1c-1.5 0-2.6-.101-3.7-1-1-.8-1.5-1.5-1.699-2.8V-27h7.6v-2.2h-.001zm-20.5-27.2h.7v27.2h-15.7v-.3c3.1-4.5 4.8-7.1 7.5-11.9 3.2-5.7 4.9-9 7.5-15zm0 17.8-4.9 8.7h4.9v-8.7zM-1.35-63.8c-.2.2-.3.5-.3 2.7v7.2c0 2.2.1 2.5.3 2.7l1 .2v.4h-6.4v-.4l1-.2c.2-.2.3-.5.3-2.7v-7.2c0-2.2-.1-2.5-.3-2.7l-1-.2v-.4h6.4v.4l-1 .2zM5.45-51v.4H.25v-.4l.6-.2c.2-.1.2-.2.2-1.5v-10c0-1.5-.1-1.7-.2-1.8l-.6-.2v-.3s2.1-.6 4.1-.7h.4s-.1 2.3-.1 3.9v9.2c0 1.3 0 1.4.2 1.5l.6.1zM18.45-64.4l.1.101c.1.9.2 2.4.2 3.9h-.4c-.7-1.5-1.6-2.7-2.6-3.7-.5-.2-1-.2-1.6-.2-1.4 0-2.4.8-2.4 2.1s.8 1.8 3.6 2.9c2.6 1.1 4 2.1 4 4.4 0 2.9-2.3 4.5-5.3 4.5-1.3 0-2.9-.1-4.5-.4-.2-1.7-.3-2.8-.3-4.4l.4-.1c.7 1.6 1.6 2.8 2.7 4.2.6.2 1.1.3 1.8.3 1.5 0 2.6-.8 2.6-2.4 0-1.4-1.1-2-3.399-2.8-2.9-1.1-4.1-2.3-4.1-4.4 0-2.5 2.4-4.3 5.1-4.3 1.099-.001 3.199.099 4.099.299M25.25-61.5c2.8 0 5 2.1 5 5.5 0 3.5-2.6 5.7-5.399 5.7-2.601 0-5.101-2.1-5.101-5.5.1-3.2 2.5-5.7 5.5-5.7m0 10.7c1.2 0 1.399-2.6 1.399-4.9 0-2.6-.3-5.3-1.5-5.3s-1.5 2.6-1.5 4.9c-.099 2.5.201 5.3 1.601 5.3M35.85-51v.4h-5.3v-.4l.6-.2c.2-.1.2-.2.2-1.5v-10c0-1.5-.1-1.7-.2-1.8l-.6-.2v-.3s2.1-.6 4.1-.7h.4s-.1 2.3-.1 3.9v9.2c0 1.3 0 1.4.2 1.5l.7.1zM41.05-61.5c2.3 0 4.3.9 4.3 3.1 0 .5-.101.9-.201 1.1-.1.1-.3.1-.5.1-1.7 0-3.3-.1-5-.1v.4c0 2 1.101 4 3.2 4 .9 0 1.7-.1 2.4-.3l.101.2c-.8 1.7-2 2.7-4.2 2.7-2.8 0-5-2.2-5-5.3 0-3.5 2.4-5.9 4.9-5.9m-1.3 3.9 1.8-.1c.3-.1.4-.6.4-1.6 0-1.2-.3-1.8-1-1.8-.8 0-1.3 1.3-1.3 3.4 0 .1 0 .1.1.1"/></g></svg>