<svg width="100" height="100" viewBox="0 0 100 100" fill="none" xmlns="http://www.w3.org/2000/svg">
<path d="M23.211 6.40821C24.2461 5.83204 25.6485 6.82227 25.4258 7.99414C24.9102 10.8711 24.6055 14.0547 26.0762 16.7148C27.3164 18.9785 29.8946 20.1895 32.4043 20.2969C34.6738 20.3516 36.9551 20.1348 39.1641 19.6094C41.5117 19.0606 43.7422 18.0957 46.0996 17.5898C48.2735 17.1113 50.5352 17.0508 52.7344 17.373C55.752 17.8203 58.5371 19.1582 61.5176 19.7598C63.4473 20.168 65.4238 20.3262 67.3946 20.3047C69.5469 20.2266 71.8047 19.4414 73.2012 17.7324C74.3633 16.4121 74.8438 14.6328 74.9668 12.9102C75.0957 11.2578 74.836 9.61524 74.5723 7.99024C74.3965 7.01758 75.3594 6.08985 76.3242 6.26368C77.0352 6.34961 77.5801 6.9668 77.668 7.66407C78.3242 11.0313 78.4258 14.7109 76.8535 17.8516C76.584 18.4785 76.002 18.9981 75.9863 19.7148C75.836 25.9102 74.4512 31.9785 73.6348 38.1016C73.5098 39.3242 73.2637 40.5977 73.6504 41.7988C74.2422 43.7051 75.1192 45.5039 75.9024 47.334C78.0117 52.1035 79.9004 56.9961 81.084 62.084C82.2598 66.9473 82.8184 71.9512 82.8106 76.9551C82.7969 81.4707 82.6289 85.9883 82.2754 90.4922C82.209 91.207 82.2129 91.9336 82.0469 92.6348C81.8281 93.5449 80.6778 94.0391 79.8633 93.5801C79.2071 93.2715 78.916 92.502 79.0332 91.8125C79.4903 86.4824 79.7149 81.1309 79.6797 75.7793C79.6328 73.8184 79.5332 71.8555 79.2852 69.9102C69.9864 73.1016 61.8184 79.459 56.4395 87.6875C56.3164 87.8652 56.2559 88.0625 56.2578 88.2813C56.2031 89.6465 56.3086 91.0156 56.2246 92.3809C56.166 93.1445 55.4453 93.7617 54.6875 93.75C53.9278 93.7598 53.209 93.1445 53.1504 92.3789C53.0801 91.4961 53.1445 90.6074 53.1231 89.7227C51.0703 90.1953 48.9317 90.1895 46.8789 89.7266C46.8555 90.6094 46.9141 91.4961 46.8496 92.3809C46.7852 93.2695 45.8242 93.9336 44.9668 93.709C44.3457 93.5723 43.8223 93.0234 43.7754 92.3809C43.6953 91.0156 43.793 89.6465 43.7442 88.2813C43.7461 88.0625 43.6856 87.8652 43.5625 87.6875C38.1778 79.4648 30.0235 73.084 20.7129 69.9121C20.2324 73.7402 20.2715 77.6094 20.3828 81.457C20.4629 84.9805 20.6875 88.498 20.9785 92.0098C21.1328 93 20.1582 93.9297 19.1797 93.7324C18.4238 93.6211 17.8887 92.9199 17.8653 92.1777C17.668 90.0391 17.5332 87.8945 17.416 85.75C17.1387 79.3711 16.918 72.9277 18.0059 66.6074C18.6094 62.9648 19.5059 59.3672 20.7168 55.8789C21.9102 52.2656 23.459 48.7852 24.9863 45.3027C25.5 44.1074 26.0313 42.9121 26.3887 41.6582C26.709 40.5469 26.4961 39.3809 26.3789 38.2559C25.6153 32.4043 24.3086 26.6152 24.0449 20.7051C23.9961 20.084 24.125 19.3887 23.7246 18.8535C21.7481 15.8555 21.5996 12.0566 22.1582 8.61133C22.2949 7.81446 22.3574 6.78516 23.211 6.40821ZM47.6055 20.4805C45.6231 20.7871 43.7598 21.5566 41.8399 22.1094C38.8008 23.0781 35.5938 23.4844 32.4082 23.4238C30.6172 23.3789 28.8809 22.8477 27.2676 22.0977C27.6699 27.9258 29.0742 33.625 29.6387 39.4336C29.959 41.8125 28.9004 44.043 28.0137 46.1797C26.2324 50.2012 24.4649 54.2402 23.1465 58.4434C26.5078 60.0254 30.0723 61.1543 33.668 62.0762C47.9258 65.6523 63.3789 64.3711 76.8008 58.3535C75.7207 54.7852 74.2578 51.3477 72.7578 47.9395C71.9824 46.1445 71.1426 44.3672 70.5996 42.4863C70.1485 40.9961 70.3321 39.4238 70.5156 37.9063C71.1836 32.6309 72.3516 27.418 72.7285 22.1074C71.8262 22.4922 70.9199 22.8828 69.959 23.0996C67.7871 23.627 65.5293 23.4297 63.3281 23.2188C60.4238 22.9238 57.6543 21.9551 54.8887 21.0742C52.5469 20.3281 50.0371 20.0898 47.6055 20.4805ZM22.2813 61.5371C21.8164 63.2559 21.4199 65 21.1719 66.7637C31.2793 70.0898 40.1914 76.9043 46.043 85.793C46.3555 86.4082 47.0879 86.5098 47.6856 86.6855C49.6348 87.1367 51.7754 87.0703 53.6074 86.2266C54.8887 84.4629 56.1172 82.6465 57.5723 81.0117C63.1973 74.459 70.625 69.4766 78.8262 66.7676C78.5254 64.9668 78.2481 63.1289 77.6153 61.4121C66.9102 66.1074 54.9961 67.9648 43.3633 66.8848C36.1113 66.2207 28.9824 64.3789 22.2813 61.5371Z" fill="#E02712"/>
<path d="M14.8438 33.0235C15.4844 32.627 16.3321 32.8243 16.8223 33.3653C18.8828 35.4121 20.916 37.4844 22.9961 39.5118C23.6133 40.0821 23.6133 41.168 22.9961 41.7383C20.8789 43.7911 18.8262 45.9102 16.7207 47.9746C16.2071 48.5039 15.3242 48.5918 14.7266 48.1524C13.9961 47.666 13.8321 46.5293 14.4395 45.8809C15.6094 44.6172 16.9024 43.4707 18.0625 42.1973C14.1211 42.1661 10.1797 42.211 6.2383 42.1778C5.27346 42.2129 4.48049 41.2071 4.72854 40.2793C4.88479 39.5078 5.66018 39 6.42776 39.0625C10.3047 39.0508 14.1836 39.0762 18.0625 39.0528C16.9024 37.7793 15.6094 36.6328 14.4395 35.3672C13.793 34.6817 14.0254 33.4629 14.8438 33.0235Z" fill="#E02712"/>
<path d="M83.7305 32.959C84.4746 32.5801 85.4648 32.9648 85.793 33.7246C86.0762 34.3027 85.9277 35.0234 85.4766 35.4727C84.3242 36.6875 83.0801 37.8144 81.9473 39.0488C85.8848 39.0879 89.8242 39.0371 93.7617 39.0723C94.7246 39.0391 95.5176 40.043 95.2715 40.9727C95.1289 41.6641 94.4688 42.1914 93.7617 42.1777C89.8242 42.2109 85.8848 42.1641 81.9453 42.1973C83.1016 43.4727 84.4004 44.6133 85.5625 45.8828C86.2051 46.5703 85.9746 47.7852 85.1543 48.2266C84.5156 48.623 83.666 48.4258 83.1777 47.8828C81.1172 45.8379 79.0898 43.7578 77.0059 41.7383C76.3848 41.168 76.3828 40.0801 77.0039 39.5117C78.8242 37.748 80.6016 35.9434 82.3906 34.1484C82.8203 33.7363 83.2012 33.25 83.7305 32.959Z" fill="#E02712"/>
<path d="M49.6797 44.9648C50.7715 44.6875 51.6152 45.8808 51.5605 46.875C51.6055 47.8633 50.7754 49.0644 49.6777 48.7832C48.0293 48.2695 48.0312 45.4785 49.6797 44.9648Z" fill="#E02712"/>
</svg>
