<svg width="100" height="100" viewBox="0 0 100 100" fill="none" xmlns="http://www.w3.org/2000/svg">
<path d="M48.5294 6.38674C54.6896 5.8633 61.0548 6.90237 66.5372 9.82815C72.3575 12.877 77.0157 17.8946 80.0509 23.6836C82.7169 28.7735 84.2716 34.4746 84.3692 40.2305C84.3888 46.9414 84.3634 53.6524 84.381 60.3633C84.379 60.8418 84.3497 61.3711 84.0079 61.7442C83.4591 62.4375 82.3126 62.4922 81.7091 61.8438C81.297 61.4688 81.2364 60.8867 81.2442 60.3633C81.256 54.0449 81.2442 47.7246 81.2501 41.4043C81.3536 34.7403 79.3478 28.0899 75.7384 22.5C72.7208 17.8281 68.4103 13.9317 63.2794 11.7227C57.4806 9.21096 50.8692 8.77346 44.7247 10.1348C39.2325 11.3379 34.1954 14.3614 30.4396 18.5313C25.8771 23.584 23.0118 30.0957 22.1251 36.8281C21.7853 39.252 21.8907 41.7031 21.8771 44.1406C21.8653 47.791 21.8927 51.4434 21.8653 55.0938C21.9064 56.1231 20.7579 56.9278 19.8028 56.5528C19.1114 56.3321 18.6954 55.6074 18.7501 54.9004C18.7462 50.4668 18.7501 46.0332 18.7501 41.6016C18.6017 33.7266 21.1192 25.8477 25.6915 19.4473C29.4161 14.2246 34.7052 10.0742 40.8028 8.00588C43.297 7.14456 45.9005 6.60549 48.5294 6.38674Z" fill="#E02712"/>
<path d="M39.8321 16.586C43.7911 14.5586 48.3262 13.9356 52.7305 14.0977C59.043 14.336 65.1895 17.1016 69.6446 21.5645C71.1798 23.125 72.6153 24.836 73.5508 26.8301C74.504 28.8106 74.9825 31.0079 74.9962 33.2032C75.0137 35.7266 74.9844 38.252 75.0098 40.7754C76.4317 41.0762 77.8008 41.8282 78.6173 43.0567C79.7442 44.6954 79.8341 46.8028 79.5489 48.709C79.0743 52.0254 76.9962 55.0118 74.168 56.7696C73.8282 57.0157 73.3223 57.1875 73.2911 57.6758C72.7657 60.4727 71.6446 63.1231 70.2852 65.6094C68.7735 68.3321 66.8653 70.8516 64.545 72.9336C64.3419 73.1368 64.045 73.3262 64.1134 73.6582C64.3204 77.1543 65.4903 80.6016 67.4903 83.4805C69.2891 86.0743 71.8829 88.1016 74.8282 89.2325C77.3067 90.209 79.9786 90.5957 82.6309 90.625C83.3946 90.5664 84.1798 91.0625 84.3341 91.834C84.5821 92.7637 83.7891 93.7774 82.8243 93.7403C78.9864 93.7598 75.088 93.0235 71.6719 91.2227C68.4415 89.5391 65.7481 86.8789 63.9434 83.7188C62.4766 81.2012 61.5938 78.3848 61.127 75.5157C57.6036 77.5372 53.461 78.5 49.4141 77.9922C46.793 77.7188 44.2891 76.7813 41.9981 75.5039C41.2188 80.6563 38.8028 85.6797 34.7364 89.0293C30.7012 92.4161 25.3145 93.836 20.1173 93.7266C19.043 93.6582 18.3868 92.3047 18.961 91.4063C19.2911 90.7754 20.0372 90.5821 20.6973 90.6153C24.6134 90.5782 28.6309 89.6407 31.8419 87.3223C36.2891 84.1504 38.8028 78.7051 39.0137 73.3184C36.2755 70.9707 34.0938 68.0274 32.4239 64.8418C31.2657 62.5762 30.2989 60.1875 29.8321 57.6758C29.8028 57.1856 29.2989 57.0137 28.9571 56.7696C26.1778 55.0391 24.1173 52.127 23.6016 48.875C23.3009 47.0059 23.338 44.9512 24.3536 43.2911C25.1583 41.9414 26.6036 41.0899 28.1173 40.7754C28.1446 38.1153 28.0997 35.4571 28.1368 32.7989C28.2091 29.5469 29.42 26.3594 31.4571 23.8321C33.7208 20.8907 36.4903 18.2598 39.8321 16.586ZM41.129 19.4278C38.1309 20.9649 35.6954 23.3985 33.6817 26.0645C32.4415 27.6954 31.586 29.6465 31.377 31.6954C33.4258 29.8829 35.5977 28.1836 38.0313 26.9122C43.252 24.086 49.3673 22.8692 55.2598 23.7012C55.588 23.7207 55.9571 23.8536 56.2559 23.6563C57.4942 22.9239 58.1446 21.3457 57.795 19.9532C57.5176 18.793 56.6016 17.7149 55.3868 17.5196C54.3223 17.3262 53.2403 17.2383 52.1622 17.1993C48.3887 17.1231 44.5098 17.67 41.129 19.4278ZM60.8809 19.2403C61.254 21.1153 60.8243 23.0704 59.752 24.6446C60.8419 25.0372 61.9415 25.4043 63.0001 25.879C66.2364 27.2793 69.1426 29.334 71.7481 31.6934C71.4981 29.2207 70.295 26.9278 68.6563 25.0918C66.5313 22.6114 63.8712 20.5665 60.8809 19.2403ZM49.1153 26.6915C42.2911 27.3653 35.8848 30.9434 31.504 36.1817C31.3243 36.379 31.2266 36.6329 31.2501 36.9024C31.2344 38.668 31.2755 40.4356 31.2403 42.2012C31.252 42.8926 30.7403 43.5782 30.045 43.6875C29.2364 43.8106 28.3575 43.7813 27.6524 44.2598C26.9708 44.6954 26.6622 45.5157 26.5899 46.2911C26.4337 48.2188 26.9591 50.2032 28.1016 51.7696C29.086 53.1582 30.4962 54.1739 32.0137 54.9102C33.0235 55.4141 32.7462 56.6875 32.9981 57.5957C33.8712 61.2754 35.6524 64.7188 37.961 67.7032C40.3438 70.75 43.5216 73.3164 47.2852 74.3907C51.2579 75.5567 55.6856 75.0176 59.2677 72.9434C63.211 70.6485 66.1602 66.9434 68.1817 62.9043C69.254 60.6954 70.1641 58.3555 70.377 55.8887C70.4688 55.1719 71.1837 54.8536 71.752 54.5665C74.254 53.3047 76.1856 50.8301 76.4942 48.0079C76.6192 46.8321 76.6778 45.4375 75.7911 44.5235C75.129 43.8438 74.1309 43.8047 73.2481 43.7149C72.4825 43.6739 71.8712 42.9551 71.8829 42.1993C71.8399 40.375 71.9102 38.5469 71.8653 36.7207C71.8751 36.461 71.6778 36.2657 71.5372 36.0723C69.3282 33.4961 66.6661 31.2969 63.6739 29.6895C59.2618 27.2754 54.1231 26.1778 49.1153 26.6915Z" fill="#E02712"/>
<path d="M38.7501 36.4512C41.0235 36.1152 43.5177 36.2227 45.504 37.4981C46.0782 37.8906 46.7501 38.3496 46.8575 39.0938C46.9981 39.9238 46.3516 40.7969 45.5059 40.8711C44.5137 41.0234 43.9415 39.9902 43.0548 39.752C40.8946 39.0293 38.5723 39.5703 36.4591 40.2051C35.7091 40.4824 34.7989 40.0996 34.5001 39.3555C34.1524 38.5918 34.5509 37.5918 35.3477 37.3047C36.4434 36.8945 37.5958 36.6406 38.7501 36.4512Z" fill="#E02712"/>
<path d="M60.4258 36.4395C62.8497 36.0391 65.3321 36.4903 67.6407 37.2481C68.4883 37.4805 68.9883 38.4961 68.6387 39.3067C68.3594 40.0821 67.4336 40.4922 66.6661 40.2051C64.6817 39.6016 62.5469 39.1172 60.4864 39.6172C59.7774 39.7735 59.1954 40.2188 58.6192 40.6329C57.8575 41.1934 56.6641 40.7715 56.3614 39.8926C56.0938 39.2676 56.3282 38.5196 56.8418 38.0958C57.8301 37.1915 59.1172 36.6661 60.4258 36.4395Z" fill="#E02712"/>
<path d="M35.4121 46.1172C35.8867 45.959 36.4629 45.9981 36.8476 46.3477C37.4355 46.875 37.9277 47.5332 38.6523 47.8887C40.2031 48.752 42.2734 48.4883 43.5625 47.2715C44.0156 46.8828 44.3847 46.3125 45.0078 46.1895C45.7343 46.0332 46.5351 46.4766 46.7773 47.1817C46.9687 47.6758 46.8691 48.2578 46.539 48.6719C45.1738 50.3887 43.0293 51.4824 40.8281 51.5156C38.4121 51.5899 36.0117 50.3594 34.6113 48.3985C34.0683 47.6016 34.5097 46.416 35.4121 46.1172Z" fill="#E02712"/>
<path d="M57.5079 46.1914C58.3907 45.9629 59.0079 46.7265 59.5625 47.2715C61.0586 48.709 63.6153 48.7715 65.1817 47.4101C65.8184 46.916 66.2696 45.9941 67.1875 46.0312C68.3516 45.9687 69.1856 47.4336 68.5157 48.3984C66.8008 50.8281 63.543 52.0703 60.6543 51.293C59.0196 50.8808 57.5137 49.9062 56.502 48.5547C55.8829 47.6933 56.4727 46.3555 57.5079 46.1914Z" fill="#E02712"/>
<path d="M15.3164 55.5333C15.7285 55.334 16.3301 55.6016 16.3633 56.084C16.459 56.9883 16.4668 57.918 16.8066 58.7774C17.207 59.9571 18.1641 60.92 19.3437 61.3223C20.252 61.6856 21.2441 61.6387 22.1914 61.795C22.8691 62.0098 22.7734 63.1875 22.043 63.2383C20.543 63.3243 18.8809 63.5098 17.7812 64.6563C16.6484 65.7618 16.4473 67.4161 16.3633 68.9161C16.3145 69.6465 15.1406 69.7442 14.9219 69.0704C14.7773 68.3262 14.8281 67.5547 14.627 66.8204C14.3496 65.6055 13.5879 64.4688 12.4492 63.9161C11.4551 63.3731 10.3066 63.3418 9.20898 63.2383C8.4043 63.1797 8.40234 61.8165 9.20898 61.7618C10.4902 61.6622 11.8574 61.5723 12.9375 60.7891C14.2168 59.92 14.7539 58.3282 14.8145 56.8418C14.875 56.3887 14.7695 55.7208 15.3164 55.5333Z" fill="#E02712"/>
<path d="M77.8184 61.7832C78.3066 61.5469 78.9414 61.9493 78.8867 62.5079C78.9375 64.0411 79.2539 65.7344 80.4805 66.7813C81.5879 67.7715 83.125 67.92 84.541 68.0098C85.2676 68.0665 85.3711 69.2305 84.6953 69.4532C84.0508 69.5879 83.3848 69.545 82.7402 69.6817C81.4609 69.9004 80.2266 70.629 79.6113 71.8008C79.0195 72.8223 78.959 74.0215 78.8633 75.1661C78.8027 75.9727 77.4434 75.9708 77.3867 75.1661C77.3047 73.6211 77.0801 71.9102 75.873 70.8086C74.7656 69.7422 73.166 69.5782 71.709 69.4883C70.9004 69.4356 70.9043 68.0684 71.709 68.0118C72.9902 67.9083 74.3574 67.8243 75.4375 67.0391C76.7187 66.1719 77.2539 64.5782 77.3125 63.0918C77.3711 62.6368 77.2754 61.9747 77.8184 61.7832Z" fill="#E02712"/>
<path d="M57.5079 62.4004C58.2345 62.2383 59.0313 62.6836 59.2735 63.3887C59.5099 63.9746 59.3263 64.6816 58.8458 65.0898C56.8751 66.877 54.2286 67.9004 51.5665 67.8984C48.8517 67.9219 46.1349 66.8731 44.1485 65.0234C43.295 64.1738 43.92 62.5332 45.1173 62.4492C45.8849 62.3164 46.4454 62.9355 47.0157 63.334C49.5919 65.2324 53.3653 65.2559 55.9649 63.3848C56.4728 63.0527 56.9005 62.5566 57.5079 62.4004Z" fill="#E02712"/>
<path d="M26.2539 64.9083C26.668 64.709 27.2676 64.9766 27.3008 65.459C27.4023 66.3633 27.4004 67.295 27.7441 68.1524C28.1621 69.3848 29.1875 70.3731 30.4355 70.75C31.3008 71.0704 32.2363 71.0137 33.1309 71.17C33.8086 71.3887 33.709 72.5626 32.9785 72.6153C31.5215 72.7012 29.9219 72.8672 28.8164 73.9336C27.6094 75.0352 27.377 76.7481 27.3008 78.2911C27.252 79.0215 26.0762 79.1211 25.8594 78.4434C25.709 77.6524 25.7656 76.8282 25.5254 76.0508C25.2227 74.8379 24.4082 73.7403 23.2539 73.2247C22.291 72.7344 21.1953 72.7227 20.1465 72.6153C19.3418 72.5528 19.3418 71.1973 20.1465 71.1368C21.4277 71.0391 22.793 70.9454 23.873 70.1622C25.1523 69.295 25.6914 67.7012 25.752 66.2168C25.8105 65.7618 25.7129 65.0997 26.2539 64.9083Z" fill="#E02712"/>
<path d="M84.0664 74.2832C84.5547 74.0449 85.1875 74.4531 85.1367 75.0078C85.1953 76.2363 85.3594 77.5273 86.0859 78.5605C86.8359 79.6738 88.1621 80.25 89.4629 80.3887C89.9531 80.4551 90.457 80.4336 90.9453 80.5449C91.5547 80.7402 91.5508 81.7539 90.9434 81.9551C90.0996 82.1133 89.2187 82.0488 88.3945 82.3262C87.1914 82.6582 86.1406 83.5273 85.668 84.6934C85.2324 85.625 85.2148 86.6641 85.1133 87.666C85.0566 88.4707 83.6855 88.4746 83.6367 87.666C83.5527 86.123 83.3301 84.4102 82.1211 83.3086C81.0117 82.2461 79.418 82.0762 77.959 81.9902C77.1543 81.9297 77.1523 80.5723 77.959 80.5117C79.2402 80.4121 80.6074 80.3203 81.6875 79.5391C82.9687 78.6719 83.5 77.0762 83.5645 75.5898C83.623 75.1367 83.5254 74.4746 84.0664 74.2832Z" fill="#E02712"/>
<path d="M19.8028 76.6504C20.7618 76.2735 21.9063 77.082 21.8653 78.1133C21.8848 81.2442 21.8809 84.3789 21.8672 87.5117C21.8868 88.3438 21.1426 89.0801 20.3126 89.0625C19.4825 89.0801 18.7383 88.3457 18.7579 87.5117C18.7364 84.4434 18.754 81.3731 18.7501 78.3047C18.6993 77.5977 19.1114 76.8692 19.8028 76.6504Z" fill="#E02712"/>
</svg>
