<svg width="100" height="100" viewBox="0 0 100 100" fill="none" xmlns="http://www.w3.org/2000/svg">
<path d="M71.1093 6.56636C71.8085 6.5605 72.4745 6.17964 73.1777 6.32808C74.1054 6.50777 75.0507 6.38472 75.9862 6.36909C78.2655 6.29878 80.5468 6.26363 82.8241 6.26363C83.8515 6.22066 84.6562 7.36519 84.289 8.31831C84.0722 9.01558 83.3417 9.42769 82.6327 9.37691C79.7558 9.40425 76.8808 9.44917 74.0058 9.55659C72.9413 15.164 73.1659 21.164 75.414 26.4648C77.8163 26.5507 80.2226 26.7265 82.6288 26.582C83.3398 26.4882 84.0663 26.9316 84.289 27.6171C84.58 28.3925 84.123 29.3535 83.3261 29.5937C82.7128 29.7558 82.0722 29.746 81.4433 29.7636C76.8788 29.7734 72.33 29.3691 67.7792 29.0996C69.2167 31.1425 70.6972 33.2519 71.3026 35.7148C72.3261 39.5898 72.7831 43.5839 73.3046 47.5488C73.662 50.7089 74.0058 53.871 74.2616 57.039C74.3241 57.5898 74.3495 58.1542 74.5077 58.6894C74.7167 59.0527 75.0312 59.3417 75.3202 59.6425C76.5331 60.8378 77.7753 62.0039 78.9843 63.205C79.7284 63.9589 80.5995 64.6132 81.1464 65.541C82.2304 67.2128 82.3183 69.4667 81.3651 71.2167C80.8671 72.2285 79.998 72.9667 79.2499 73.7832C77.6327 75.5546 75.9296 77.2519 74.4023 79.1035C72.7206 81.5898 71.037 84.0781 69.3944 86.5898C68.3632 88.0703 66.6405 89.0058 64.8437 89.1093C61.9745 89.2675 59.1093 89.4843 56.2402 89.6523C55.0702 89.748 53.8808 89.1132 53.328 88.0761C52.7187 86.9902 52.9042 85.5293 53.7597 84.6269C54.3593 83.8984 55.3046 83.6562 56.121 83.2656C57.0956 82.8105 58.0917 82.3945 59.0429 81.8886C59.623 81.5839 60.1523 81.0898 60.2968 80.4257C61.1776 77.207 61.2284 73.832 61.1698 70.5156C61.1874 68.3027 60.3905 66.205 59.6718 64.1484C58.6112 61.3437 57.5175 58.5488 56.2929 55.8125C56.0468 57.1972 55.5858 58.6152 54.5136 59.5898C52.9316 61.1093 50.662 61.5351 48.5468 61.6289C47.6523 63.2753 46.7597 64.9199 45.8632 66.5644C45.6308 67.0214 45.3651 67.4687 45.2421 67.9707C45.203 68.4296 45.4237 68.8554 45.5702 69.2773C45.9667 70.248 46.3515 71.2246 46.8046 72.1699C47.3241 71.4726 47.8515 70.6484 47.7069 69.7363C47.496 69.0585 46.7851 68.5527 46.8808 67.7851C46.9433 66.6894 48.3046 65.9843 49.2304 66.5878C50.5429 67.5449 51.0468 69.3281 50.7773 70.8867C50.4784 72.7714 49.2362 74.3769 47.6874 75.4355C47.6776 77.6464 46.4413 79.7578 44.5234 80.8496C42.3671 82.0078 40.2148 83.1699 38.0722 84.3496C37.496 84.6601 36.9433 85.0371 36.5546 85.5742C35.1366 87.3496 33.7421 89.1464 32.3573 90.9472C31.2519 92.2773 29.6034 93.125 27.8788 93.2519C25.4159 93.3613 22.9569 93.5195 20.496 93.6582C19.5859 93.6972 18.6386 93.8886 17.7577 93.5722C16.4667 93.1347 15.5253 91.7968 15.6444 90.4238C15.6855 89.3828 16.3163 88.4296 17.1776 87.8671C18.5214 87.0097 19.8671 86.1523 21.1855 85.2539C22.1425 84.6582 22.578 83.5566 22.9667 82.5527C24.5487 77.9726 26.1523 73.4023 27.7206 68.8183C25.2694 66.1816 23.6464 62.7793 23.246 59.1933C22.787 59.5058 22.2948 59.9257 21.6952 59.8066C20.6171 59.7304 19.9257 58.3691 20.5487 57.4707C21.6425 55.8339 22.8398 54.2656 23.9413 52.6347C24.5526 51.6386 26.1894 51.7636 26.6503 52.8359C27.3261 54.1738 27.9941 55.5195 28.703 56.8398C28.8984 57.2167 29.1015 57.5957 29.1933 58.0136C29.3671 58.8828 28.6171 59.791 27.7284 59.7871C27.2128 59.832 26.7831 59.5058 26.3691 59.2519C26.7714 61.4218 27.5448 63.5625 28.9159 65.3164C29.287 64.4003 29.5858 63.4589 29.912 62.5273C30.914 59.7636 31.4452 56.8613 32.1698 54.0195C32.2401 53.6347 32.4491 53.1757 32.1171 52.8554C29.2441 49.2363 27.121 44.8925 26.6835 40.25C26.2343 40.5488 25.7734 40.9492 25.1972 40.8964C24.4374 40.8613 23.7558 40.2148 23.7265 39.4472C23.6679 38.8925 24.0116 38.4218 24.3105 37.9921C25.3261 36.5918 26.3066 35.166 27.2987 33.7519C27.9042 32.8515 29.4472 32.9687 29.912 33.9511C30.623 35.3261 31.328 36.707 32.0683 38.0664C32.2831 38.5019 32.5526 38.9492 32.5253 39.4531C32.498 40.2148 31.8222 40.9003 31.0546 40.9121C30.6405 40.9003 30.2499 40.7421 29.8554 40.6347C30.3339 43.6777 31.5155 46.623 33.3105 49.1269C34.3808 44.7773 35.3769 40.4082 36.4374 36.0566C36.5292 35.6113 36.7499 35.1054 36.3964 34.7148C33.5292 30.5117 31.7714 25.332 32.5409 20.2128C32.0214 20.4433 31.4921 20.8066 30.8964 20.6933C30.0194 20.58 29.4179 19.6054 29.6562 18.7656C29.7909 18.1796 30.33 17.8398 30.7851 17.5117C32.0995 16.6113 33.3984 15.6875 34.6913 14.7597C35.5155 14.0957 36.8769 14.621 37.0937 15.6386C37.5038 17.2304 37.9609 18.8125 38.371 20.4043C38.6308 21.2636 37.998 22.2363 37.1054 22.3437C36.4882 22.4882 35.9745 22.0644 35.5116 21.7246C35.3202 24.8535 36.1562 27.998 37.6679 30.7285C38.7011 26.6132 39.664 22.4785 40.6191 18.3457C41.246 14.705 43.8671 11.5039 47.3339 10.2168C51.0487 8.87105 54.9648 8.20894 58.8632 7.66206C62.9237 7.09956 67.0136 6.76753 71.1093 6.56636ZM66.3319 10.0214C65.3046 15.291 65.3066 20.996 67.6562 25.9296C69.0761 26.0585 70.4999 26.1523 71.9257 26.2207C70.1347 20.9335 69.8691 15.2109 70.7831 9.72456C69.2968 9.77339 67.8124 9.88472 66.3319 10.0214ZM52.5741 11.9414C50.8651 12.3574 49.1249 12.7578 47.5526 13.5742C46.2968 14.2031 45.2577 15.2363 44.5683 16.457C44.0253 17.4023 43.8632 18.496 43.5722 19.5332C42.5194 23.9023 41.498 28.2812 40.4472 32.6523C40.3183 33.2168 40.1405 33.7753 40.078 34.3535C40.2069 34.6543 40.4335 34.8984 40.6405 35.1484C42.7597 37.5703 45.2753 39.7168 48.2343 41.0371C50.3847 41.9804 52.7499 42.332 55.0839 42.4023C56.6191 38.8222 57.9335 35.121 58.6191 31.2773C58.8066 30.3066 58.8398 29.3144 59.0175 28.3418C59.2929 26.9472 60.5136 25.8085 61.9198 25.6191C62.6464 25.5351 63.3788 25.623 64.1093 25.6445C62.3183 20.7539 62.2148 15.3964 63.0956 10.3066C59.5624 10.6582 56.039 11.164 52.5741 11.9414ZM62.1093 28.7363C61.703 33.3925 60.2812 37.8808 58.5761 42.2109C59.6835 42 60.8261 41.7285 61.7538 41.0546C62.2675 40.6933 62.6718 40.1035 62.6386 39.4511C62.6523 38.7558 62.3144 37.9882 62.7343 37.3515C63.1855 36.582 64.328 36.3769 65.0194 36.9394C65.6523 37.4375 65.705 38.3164 65.7655 39.0566C65.8964 40.7421 65.1015 42.4296 63.7616 43.4472C61.8691 44.9238 59.4159 45.2968 57.0976 45.5351C56.8534 46.3476 55.9667 47.1562 56.4569 48.0234C58.4648 52.9218 60.6112 57.7636 62.4726 62.7207C63.2128 64.8027 64.0038 66.9062 64.2245 69.1191C64.4062 72.2031 64.3378 75.3085 63.9179 78.371C63.7382 79.4531 63.6659 80.5703 63.2382 81.5937C62.703 82.9531 61.6972 84.1562 60.3593 84.7773C59.1093 85.3535 57.8417 85.8847 56.6054 86.4882C59.0175 86.3613 61.4296 86.1835 63.8417 86.0332C64.5331 85.9511 65.2773 85.9941 65.9042 85.6425C66.5273 85.2949 66.8827 84.6484 67.289 84.0898C68.9081 81.6679 70.5507 79.2617 72.1347 76.8164C72.3788 76.4804 72.6601 76.1757 72.955 75.8847C74.246 74.6347 75.4257 73.2753 76.6659 71.9746C77.2851 71.2929 77.955 70.6523 78.5019 69.9082C79.1366 69 79.0136 67.666 78.2343 66.8808C76.83 65.4238 75.3456 64.0449 73.9062 62.6191C73.1269 61.8281 72.1776 61.1503 71.7109 60.1093C71.1288 58.9765 71.2089 57.6738 71.08 56.4433C70.6249 51.416 70.0859 46.3925 69.2948 41.4062C68.9257 39.33 68.5976 37.2285 67.871 35.2402C66.9413 33.1738 65.5683 31.3457 64.1991 29.5527C63.9589 29.2753 63.7558 28.9375 63.4198 28.7656C62.9882 28.6875 62.5448 28.7226 62.1093 28.7363ZM39.1366 38.1953C38.0155 42.9121 36.8769 47.625 35.7812 52.3476C37.6913 54.371 39.8515 56.2207 42.3788 57.4277C43.4999 57.9804 44.7499 58.1796 45.9784 58.3496C46.3105 58.373 46.8085 58.5039 46.9316 58.0703C48.1112 55.8632 49.33 53.6757 50.496 51.4609C51.6444 49.5175 52.7089 47.5253 53.6542 45.4765C51.9648 45.2968 50.2734 45.0468 48.6523 44.5293C44.9609 43.3476 41.83 40.9179 39.1366 38.1953ZM50.4003 58.2753C51.3808 58.0273 52.4687 57.5839 52.873 56.5722C53.3007 55.7089 52.8495 54.5332 53.6523 53.8476C54.0976 53.3945 54.7655 53.4804 55.3398 53.4668C55.0136 52.6835 54.6972 51.8964 54.3476 51.125C52.9335 53.4511 51.664 55.8652 50.4003 58.2753ZM34.9296 55.9531C34.4511 57.6972 34.1073 59.4765 33.6933 61.2363C32.8749 63.4785 32.1034 65.7382 31.3241 67.9941C33.0038 69.5566 34.9804 70.7695 37.0585 71.7265C39.2167 72.6894 41.5312 73.4043 43.9101 73.4511C43.4687 72.3496 43.0136 71.2539 42.5351 70.1679C41.914 68.7734 41.9706 67.0918 42.7304 65.7617C43.5429 64.3085 44.3398 62.8476 45.1171 61.3769C41.1464 60.9941 37.7929 58.5566 34.9296 55.9531ZM25.8866 83.707C25.5253 85.1035 24.7831 86.416 23.6601 87.3378C22.1151 88.5039 20.3827 89.4062 18.8534 90.5957C21.3671 90.5097 23.8749 90.3125 26.3866 90.1914C27.5566 90.0957 28.9472 90.1582 29.7499 89.1308C31.328 87.246 32.7909 85.2656 34.3124 83.3359C35.0409 82.4609 36.0175 81.8437 37.0331 81.3535C39.0429 80.248 41.08 79.1894 43.0644 78.0351C43.6581 77.7207 44.0468 77.1562 44.3827 76.5957C39.2109 76.5546 34.2773 74.3144 30.2265 71.2089C28.7499 75.3652 27.3144 79.5351 25.8866 83.707Z" fill="#E02712"/>
</svg>
