<?xml version="1.0" encoding="utf-8"?>
<!-- Generator: Adobe Illustrator 24.0.0, SVG Export Plug-In . SVG Version: 6.00 Build 0)  -->
<svg version="1.1" id="Layer_1" xmlns="http://www.w3.org/2000/svg" xmlns:xlink="http://www.w3.org/1999/xlink" x="0px" y="0px"
	 width="20px" height="49px" viewBox="0 0 20 49" style="enable-background:new 0 0 20 49;" xml:space="preserve">
<style type="text/css">
	.st0{fill:#FFFFFF;stroke:#999999;stroke-miterlimit:10;}
	.st1{fill:#777777;}
	.st2{fill:#FF0000;stroke:#FF0000;stroke-miterlimit:10;}
	.st3{fill:#FFFFFF;}
</style>
<ellipse class="st0" cx="10" cy="9.5" rx="9.5" ry="9"/>
<g>
	<path class="st1" d="M8.6,13.4c0-0.8,0.6-1.4,1.4-1.4c0.8,0,1.4,0.6,1.4,1.4c0,0.8-0.5,1.4-1.4,1.4C9.2,14.8,8.6,14.2,8.6,13.4z
		 M9.1,11.2l-0.4-7h2.5l-0.3,7H9.1z"/>
</g>
<ellipse class="st2" cx="10" cy="38" rx="9.5" ry="9"/>
<g>
	<path class="st3" d="M8.4,42.4c0-0.9,0.6-1.6,1.6-1.6c0.9,0,1.5,0.7,1.6,1.6c0,0.9-0.6,1.6-1.6,1.6C9.1,44,8.4,43.3,8.4,42.4z
		 M9,39.9L8.6,32h2.8L11,39.9H9z"/>
</g>
</svg>
