<?xml version="1.0" encoding="utf-8"?>
<!-- Generator: Adobe Illustrator 19.0.0, SVG Export Plug-In . SVG Version: 6.00 Build 0)  -->
<svg version="1.1" id="Layer_1" xmlns="http://www.w3.org/2000/svg" xmlns:xlink="http://www.w3.org/1999/xlink" x="0px" y="0px"
	 width="14px" height="10px" viewBox="0 0 14 10" style="enable-background:new 0 0 14 10;" xml:space="preserve">
<style type="text/css">
	.st0{fill:#F36550;}
</style>
<path id="XMLID_9_" class="st0" d="M7,0C3.1,0,0,3.3,0,5c0,1.8,3.1,5,7,5s7-3.4,7-5C14,3.5,10.9,0,7,0z M7,8.7
	c-1.8,0-3.3-1.5-3.3-3.3S5.2,2,7,2s3.3,1.5,3.3,3.3S8.8,8.7,7,8.7z"/>
<path id="XMLID_10_" class="st0" d="M7,5.2V3.3c-1.5,0-2.4,1-2.4,2.2c0,1.2,1,2.4,2.3,2.4C8.2,7.8,9.1,7,9.2,6L7,5.2z"/>
</svg>
