<?xml version="1.0" encoding="utf-8"?>
<!-- Generator: Adobe Illustrator 22.0.1, SVG Export Plug-In . SVG Version: 6.00 Build 0)  -->
<svg version="1.1" id="Layer_1" xmlns="http://www.w3.org/2000/svg" xmlns:xlink="http://www.w3.org/1999/xlink" x="0px" y="0px"
	 width="159px" height="51.6px" viewBox="0 0 159 51.6" style="enable-background:new 0 0 159 51.6;" xml:space="preserve">
<style type="text/css">
	.st0{fill:#FFFFFF;}
</style>
<g>
	<path class="st0" d="M37.4,17.3c0.1-0.7,0.2-1.3,0.3-1.9c0.1-0.6,0.4-1.2,0.7-1.8c0.7-1.2,1.9-2.2,3.5-3c1.7-0.8,4-1.2,6.9-1.2
		c0.4,0,1,0,1.9,0.1c0.9,0,1.8,0.2,2.9,0.4c0.2,0.1,0.5,0.2,1,0.3c0.4,0.1,0.9,0.3,1.4,0.6s1.1,0.6,1.6,1.1s0.9,1,1.3,1.7
		c0.3,0.6,0.5,1.3,0.6,2.1c0.1,0.7,0.2,1.8,0.2,3.2v8.8c0,0.8,0,1.5,0.1,2c0,0.5,0.1,1,0.2,1.4c0.1,0.4,0.2,0.8,0.4,1.1
		c0.2,0.3,0.4,0.7,0.6,1.1h-8.2c-0.1-0.4-0.1-0.8-0.2-1.2c0-0.4-0.1-0.8-0.2-1.2c-0.2,0.2-0.3,0.3-0.4,0.4c-0.1,0.1-0.3,0.2-0.4,0.4
		c-1,0.8-2,1.3-3,1.7c-1,0.3-2.2,0.5-3.5,0.5c-0.2,0-0.4,0-0.7,0s-0.7,0-1.1-0.1c-0.4,0-0.9-0.1-1.4-0.2c-0.5-0.1-1-0.3-1.4-0.4
		c-0.6-0.2-1.1-0.5-1.5-0.8s-0.7-0.6-0.9-0.7c-0.8-0.8-1.3-1.6-1.5-2.4s-0.3-1.4-0.3-1.9c0-0.3,0-0.7,0.1-1.1s0.2-0.9,0.5-1.4
		c0.2-0.5,0.6-1,1-1.5s1-0.9,1.7-1.4c1.2-0.8,2.8-1.4,4.7-1.8s4.4-0.9,7.4-1.3c0-0.4,0-0.9,0-1.5s-0.2-1-0.6-1.4
		c-0.4-0.4-0.9-0.6-1.4-0.6s-0.9,0-1,0c0,0-0.2,0-0.4,0s-0.5,0-0.8,0.1c-0.3,0-0.6,0.1-0.9,0.2c-0.3,0.1-0.5,0.3-0.7,0.6
		c-0.2,0.2-0.3,0.5-0.3,0.7c-0.1,0.3-0.1,0.4-0.1,0.5h-8.1V17.3z M51.7,23.3c-0.3,0-0.7,0.1-1.2,0.1c-0.5,0.1-1,0.1-1.4,0.2
		c-0.5,0.1-1,0.1-1.4,0.2c-0.5,0.1-0.9,0.2-1.2,0.3c-0.1,0-0.2,0.1-0.4,0.2s-0.4,0.2-0.6,0.3c-0.2,0.2-0.4,0.4-0.6,0.6
		c-0.2,0.2-0.2,0.5-0.2,0.9c0,0.5,0.2,1,0.7,1.4s1.2,0.6,2.3,0.6c1,0,1.8-0.1,2.3-0.4s0.9-0.6,1.2-1.1c0.3-0.4,0.4-0.9,0.5-1.4
		c0-0.5,0.1-0.9,0.1-1.3L51.7,23.3L51.7,23.3z"/>
	<path class="st0" d="M72.4,0v19.2l7.7-9.6h10.3L80.2,20.7l11,12.7H80.1l-7.7-10.9v10.9h-8.5V0H72.4z"/>
	<path class="st0" d="M100.3,10c0.1,0.3,0.2,0.5,0.4,0.8c0.1,0.3,0.2,0.6,0.4,1.1c0.3-0.3,0.7-0.5,1.1-0.8s0.9-0.6,1.4-0.8
		c0.6-0.2,1.2-0.4,1.9-0.6c0.7-0.2,1.6-0.2,2.5-0.2c1.1,0,2.1,0.1,2.9,0.3s1.5,0.5,2.1,0.8s1.1,0.7,1.5,1.1c0.4,0.4,0.8,0.8,1,1.2
		c0.1-0.2,0.3-0.4,0.6-0.8c0.3-0.4,0.7-0.7,1.2-1.1c0.5-0.4,1.3-0.8,2.2-1.1c1-0.3,2.2-0.5,3.8-0.5c2,0,3.6,0.3,4.8,0.9
		c1.2,0.6,2,1.3,2.5,2c0.3,0.5,0.6,0.9,0.8,1.4s0.3,1,0.4,1.6c0.1,0.6,0.2,1.3,0.2,2s0,1.6,0,2.7v13.4h-8.6V20c0-0.2,0-0.3,0-0.5
		s0-0.3,0-0.5s0-0.5-0.1-0.9c0-0.4-0.2-0.7-0.4-1.1c-0.2-0.3-0.5-0.6-0.9-0.9c-0.4-0.2-1-0.4-1.7-0.4c-0.2,0-0.4,0-0.8,0
		c-0.3,0-0.7,0.1-1.1,0.3c-0.8,0.4-1.3,0.9-1.5,1.7c-0.2,0.7-0.3,1.5-0.3,2.3v13.2H108v-13c0-0.3,0-0.6,0-0.8c0-0.3,0-0.5,0-0.8
		c0-0.2,0-0.5-0.1-0.9c-0.1-0.3-0.2-0.7-0.4-1c-0.2-0.3-0.5-0.6-0.9-0.8s-0.9-0.3-1.6-0.3c-0.4,0-0.7,0-1.1,0.1
		c-0.3,0.1-0.7,0.2-1,0.4c-0.4,0.2-0.7,0.5-0.9,0.9c-0.2,0.3-0.3,0.7-0.4,1c-0.1,0.4-0.2,0.8-0.2,1.1c0,0.4,0,0.8,0,1.1V33H93V15.8
		c0-0.8,0-1.5,0-2.1c0-0.6-0.1-1-0.1-1.4c-0.1-0.4-0.2-0.8-0.3-1.1c-0.1-0.3-0.3-0.7-0.5-1.2L100.3,10z"/>
	<path class="st0" d="M150.9,33.3c-0.1-0.2-0.2-0.5-0.3-0.7s-0.2-0.6-0.3-1.2c-0.2,0.1-0.3,0.3-0.5,0.4s-0.3,0.2-0.5,0.4
		c-0.5,0.4-1.2,0.7-2.1,1.1c-0.9,0.4-2.1,0.6-3.6,0.6c-1,0-1.9-0.1-2.7-0.3s-1.5-0.4-2.1-0.7s-1.1-0.6-1.6-1c-0.4-0.4-0.8-0.7-1-1
		c-0.4-0.6-0.8-1.2-1-1.8c-0.2-0.6-0.4-1.3-0.5-2s-0.1-1.3-0.2-2c0-0.7,0-1.3,0-2V9.9h8.4v12.2c0,1.3,0.1,2.4,0.2,3.1
		c0.1,0.7,0.5,1.3,1.1,1.7c0.2,0.1,0.4,0.2,0.7,0.3c0.3,0.1,0.7,0.2,1.1,0.1c0.2,0,0.6,0,1.1-0.1s1-0.4,1.4-0.8
		c0.6-0.6,0.9-1.3,0.9-2.2c0.1-0.8,0.1-1.6,0.1-2.4v-12h8.4v14.9c0,0.5,0,0.9,0,1.4s0,1,0,1.4c0,0.6,0,1.1,0,1.6s0.1,0.9,0.1,1.3
		c0.1,0.4,0.2,0.9,0.3,1.3c0.1,0.4,0.3,1,0.5,1.5L150.9,33.3z"/>
	<g>
		<g id="XMLID_44_">
			<path id="XMLID_45_" class="st0" d="M27.3,9.8h-20C3.3,9.8,0,13,0,17.1V26c0,4,3.3,7.3,7.3,7.3h6.3V40l7.8-6.7h5.8
				c4,0,7.3-3.3,7.3-7.3v-8.9C34.6,13,31.3,9.8,27.3,9.8z M13.1,25h-2.5c-1.5,0-2.7-0.9-2.7-2.1v-2.6c0-1.2,1.2-2.1,2.7-2.1h2.5V25z
				 M26.8,22.8c0,1.2-1.3,2.1-2.9,2.1h-2.7v-6.8H24c1.6,0,2.9,0.9,2.9,2.1v2.6H26.8z"/>
		</g>
	</g>
</g>
<g>
	<path class="st0" d="M28.5,50c-0.9,0-1.8-0.1-2.6-0.5c-1.6-0.8-2.6-2.4-2.6-4.5c0-2.5,2.1-4.7,4.9-4.7c0.9,0,1.6,0.1,2.1,0.4
		l-0.1,1.1c-0.4-0.3-1.2-0.6-1.9-0.6c-2.3,0-3.9,1.7-3.9,3.9c0,2.2,1.8,4,4,4c0.6,0,1.1-0.1,2-0.5l0.1,1C29.9,49.9,29.4,50,28.5,50z
		"/>
	<path class="st0" d="M34.4,49.9h-2.1v-9.4h1.7c2.3,0,3.6,0.6,3.6,2.2c0,1.3-1,2-2.3,2c1.4,0.1,2.4,0.8,2.4,2.3
		C37.7,48.1,37.3,49.9,34.4,49.9z M34.4,45.2h-1.3V49h1.4c0.9,0,2.1-0.2,2.1-2C36.7,45.9,36,45.2,34.4,45.2z M33.8,41.2h-0.6v3.2H34
		c1.1,0,2.6-0.3,2.6-1.7C36.6,41.1,34.7,41.2,33.8,41.2z"/>
	<path class="st0" d="M48.3,45.1c0,3.2-1.8,4.9-4.5,4.9c-2.7,0-4.5-1.8-4.5-4.9c0-2.8,1.7-4.8,4.5-4.8
		C46.7,40.3,48.3,42.3,48.3,45.1z M40.4,45.2c0,2.7,1.6,4,3.5,4s3.5-1.3,3.5-4c0-2.9-1.5-4.1-3.5-4.1C41.9,41.1,40.4,42.3,40.4,45.2
		z"/>
	<path class="st0" d="M53,49.9h-2.5v-9.4h4.9v0.8h-3.9V44h1.3c1.4,0,2.3,0.2,2.9,0.7c0.6,0.5,0.7,1.1,0.7,2.1
		C56.3,48.3,55.8,49.9,53,49.9z M52.5,44.8h-1V49h1.1c1.8,0,2.7-0.6,2.7-2.2C55.3,44.9,54.1,44.8,52.5,44.8z"/>
	<path class="st0" d="M66.7,45.1c0,3.2-1.8,4.9-4.5,4.9c-2.7,0-4.5-1.8-4.5-4.9c0-2.8,1.7-4.8,4.5-4.8
		C65.1,40.3,66.7,42.3,66.7,45.1z M58.7,45.2c0,2.7,1.6,4,3.5,4s3.5-1.3,3.5-4c0-2.9-1.5-4.1-3.5-4.1C60.3,41.1,58.7,42.3,58.7,45.2
		z"/>
	<path class="st0" d="M74.8,51.2v-1.3h-6v1.3H68v-2.4h0.7c0.4-0.5,0.5-0.9,0.5-1.7v-6.7h5.5v8.4h0.9v2.4H74.8z M73.7,41.3h-3.6v5.1
		c0,1.3-0.3,2-0.8,2.5h4.4V41.3z"/>
	<path class="st0" d="M83.7,49.9v-4.5h-5.1v4.5h-1v-9.4h1v4h5.1v-4h1v9.4H83.7z"/>
	<path class="st0" d="M93.1,49.9l-1-2.8h-4.2l-1,2.8h-1.1l3.7-9.4h0.9l3.7,9.4H93.1z M91,44.3c-0.4-1-0.7-2-1.1-3.1
		c-0.3,0.9-0.4,1.2-1.1,3.1l-0.7,2h3.6L91,44.3z"/>
	<path class="st0" d="M96.8,41.3v8.5h-1v-8.5h-2.7v-0.9h6.4v0.9H96.8z"/>
	<path class="st0" d="M105.8,49.9l-1-2.8h-4.2l-1,2.8h-1.1l3.7-9.4h0.9l3.7,9.4H105.8z M103.8,44.3c-0.4-1-0.7-2-1.1-3.1
		c-0.3,0.9-0.4,1.2-1.1,3.1l-0.7,2h3.6L103.8,44.3z"/>
	<path class="st0" d="M122.2,49.9v-7c0-0.6,0.1-1.1,0.1-1.6l-3.7,8.6h-1l-3.6-8.6c0,0.5,0,1.1,0,1.6v7h-1v-9.4h1.6l1.9,4.6
		c0.6,1.4,1,2.7,1.5,4c0.4-1.1,0.9-2.3,1.6-3.8l2-4.7h1.6v9.4H122.2z"/>
	<path class="st0" d="M125.9,49.9v-9.4h4.8v0.8h-3.8v3.1h3.6v0.9h-3.6V49h4v0.9H125.9z"/>
	<path class="st0" d="M139,51.2v-1.3h-6v1.3h-0.8v-2.4h0.7c0.4-0.5,0.5-0.9,0.5-1.7v-6.7h5.5v8.4h0.9v2.4H139z M138,41.3h-3.6v5.1
		c0,1.3-0.3,2-0.8,2.5h4.4V41.3z"/>
	<path class="st0" d="M148.1,49.9v-5.3c0-1,0-1.8,0.1-3.2c-0.3,0.6-0.6,1.3-1.8,3.1l-3.5,5.4h-1.1v-9.4h1V46c0,1.4,0,2.5-0.1,3
		c0.4-0.6,0.7-1.3,1.1-2.1l4.1-6.5h1.2v9.4H148.1z"/>
	<path class="st0" d="M157.9,49.9l-1-2.8h-4.2l-1,2.8h-1.1l3.7-9.4h0.9l3.7,9.4H157.9z M155.9,44.3c-0.4-1-0.7-2-1.1-3.1
		c-0.3,0.9-0.4,1.2-1.1,3.1l-0.7,2h3.6L155.9,44.3z"/>
</g>
<text transform="matrix(1 0 0 1 9.2585 -64.0532)" style="font-family:'GroteskHSBg-Light'; font-size:14.9975px;">СВОБОДНАТА МЕДИА</text>
</svg>
