<?xml version="1.0" encoding="UTF-8"?>
<!-- Generator: Adobe Illustrator 24.0.0, SVG Export Plug-In . SVG Version: 6.00 Build 0)  -->
<svg version="1.1" id="Слой_1" inkscape:version="0.91 r13725" sodipodi:docname="YouTube_social_white_squircle_(2017).svg" xmlns:cc="http://creativecommons.org/ns#" xmlns:dc="http://purl.org/dc/elements/1.1/" xmlns:inkscape="http://www.inkscape.org/namespaces/inkscape" xmlns:rdf="http://www.w3.org/1999/02/22-rdf-syntax-ns#" xmlns:sodipodi="http://sodipodi.sourceforge.net/DTD/sodipodi-0.dtd" xmlns:svg="http://www.w3.org/2000/svg" xmlns="http://www.w3.org/2000/svg" xmlns:xlink="http://www.w3.org/1999/xlink" x="0px" y="0px" width="32px" height="32px" viewBox="0 0 32 32" style="enable-background:new 0 0 32 32;" xml:space="preserve">
<style type="text/css">
	.st0{fill:#3F528E;}
</style>
<sodipodi:namedview bordercolor="#666666" borderopacity="1" fit-margin-bottom="0" fit-margin-left="0" fit-margin-right="0" fit-margin-top="0" gridtolerance="10" guidetolerance="10" id="namedview13" inkscape:current-layer="Слой_1" inkscape:cx="140.1615" inkscape:cy="129.72071" inkscape:pageopacity="0" inkscape:pageshadow="2" inkscape:window-height="715" inkscape:window-maximized="1" inkscape:window-width="1366" inkscape:window-x="-8" inkscape:window-y="-8" inkscape:zoom="1.18" objecttolerance="10" pagecolor="#ffffff" showgrid="false">
	</sodipodi:namedview>
<g>
	<path class="st0" d="M31.5,12.1c-0.9-3.7-2.9-6.7-6-8.9c-2.6-1.9-5.5-3-8.7-3.1c-2-0.1-4,0.1-6,0.8C8,1.9,5.6,3.5,3.7,5.8   C1.5,8.4,0.3,11.4,0,14.7c0,0.1,0,0.3-0.1,0.4c0,0.1,0,0.1,0,0.2v0.1c0,0.1,0,0.1,0,0.2c0,0.1,0,0.2,0,0.3c0,0.1,0,0.2,0,0.3   s0,0.2,0,0.3c0,0.1,0,0.1,0,0.2s0,0.1,0,0.2s0,0.1,0,0.2c0,0.2,0,0.4,0,0.6c0.1,0.6,0.2,1.2,0.3,1.8c0.4,1.8,1,3.4,2,4.9   c0.9,1.5,2.1,2.8,3.4,3.9c0.9,0.8,1.9,1.4,3,2c1,0.5,2,0.9,3.1,1.2c0.8,0.2,1.7,0.4,2.6,0.5c0.2,0,0.5,0,0.7,0.1h0.1   c0.1,0,0.1,0,0.2,0s0.1,0,0.2,0c0.1,0,0.1,0,0.2,0c0.2,0,0.3,0,0.5,0c0.1,0,0.1,0,0.2,0s0.1,0,0.2,0s0.1,0,0.2,0h0.1H17   c0.8,0,1.6-0.2,2.4-0.3c3.5-0.8,6.5-2.5,8.8-5.3c2.2-2.6,3.5-5.6,3.8-9.1C32.1,15.6,32,13.8,31.5,12.1z M16,30.5   C8,30.4,1.5,24,1.5,16S8,1.5,16,1.5S30.4,8,30.5,16C30.5,24,24,30.5,16,30.5z"/>
	<path class="st0" d="M24.3,12c-0.2-1-1-1.7-2-1.8c-0.6,0-1.3,0-1.9,0c-0.1,0-0.2,0-0.2-0.2c-0.1-1.1-1-1.9-2.1-1.9   c-1.3,0-2.7,0-4,0c-1.2,0-2,0.8-2.1,1.9c0,0.1,0,0.1-0.2,0.1c-0.6,0-1.3,0-1.9,0c-1.2,0-2,0.9-2,2.1c0,2.7,0,5.5,0,8.2   c0,0.2,0,0.3,0.1,0.5c0.2,0.9,1.1,1.6,2,1.6c2.1,0,4.1,0,6.2,0c2,0,4.1,0,6.1,0c0.2,0,0.3,0,0.5,0c1-0.2,1.6-1,1.6-2   c0-2.7,0-5.5,0-8.2C24.3,12.2,24.3,12.1,24.3,12z M16.1,19.5c-1.7,0-3.1-1.4-3.1-3.2c0-1.7,1.4-3.1,3.2-3.1c1.7,0,3.2,1.4,3.2,3.1   C19.2,18.1,17.8,19.5,16.1,19.5z"/>
</g>
</svg>