<?xml version="1.0" encoding="utf-8"?>
<!-- Generator: Adobe Illustrator 19.0.0, SVG Export Plug-In . SVG Version: 6.00 Build 0)  -->
<svg version="1.1" id="Layer_1" xmlns="http://www.w3.org/2000/svg" xmlns:xlink="http://www.w3.org/1999/xlink" x="0px" y="0px"
	 width="13px" height="10px" viewBox="0 0 13 10" style="enable-background:new 0 0 13 10;" xml:space="preserve">
<style type="text/css">
	.st0{fill-rule:evenodd;clip-rule:evenodd;fill:#666666;}
</style>
<g>
	<path class="st0" d="M3.5,5.9c0-0.2,0-0.3,0-0.4c0-0.3,0.1-0.6,0.2-0.9l0.1-0.2C4,4.2,4.1,4.1,4.2,3.9c0.1-0.1,0.2-0.2,0.2-0.2
		C4.7,3.5,4.8,3.4,5,3.2C5.2,3.2,5.4,3.1,5.5,3C5.6,3,5.7,3,5.8,2.9c0.6-0.2,1.4-0.1,1.9,0.2C8,3.3,8.3,3.4,8.4,3.6l0.1,0.1
		c0,0,0,0,0.1,0c0,0,0.1,0.1,0.1,0.1c0,0,0,0,0,0c0,0,0,0,0,0.1C8.9,4.1,9,4.2,9.1,4.3c0.1,0.1,0.2,0.4,0.2,0.5
		C9.4,5,9.4,5.2,9.5,5.4c0,0.4,0,0.7-0.1,1.1C9.3,6.9,9.1,7.3,8.9,7.7L8.8,7.8c0,0-0.1,0.1-0.1,0.1c0,0-0.1,0.1-0.1,0.1L8.4,8.1
		c0,0-0.1,0.1-0.1,0.1c0,0-0.1,0.1-0.1,0.1c0,0-0.1,0-0.1,0.1C8,8.4,7.9,8.5,7.8,8.5L7.5,8.7c-0.3,0.1-0.6,0.2-1,0.2
		c-0.3,0-0.7-0.1-1-0.2L5.3,8.6c0,0,0,0-0.1,0c0,0,0,0-0.1,0C5,8.4,4.7,8.2,4.6,8.1L4.4,8c0,0-0.1-0.1-0.1-0.1
		C4.1,7.7,3.9,7.3,3.8,7.1c0-0.1-0.1-0.2-0.1-0.3C3.6,6.5,3.5,6.2,3.5,5.9L3.5,5.9z M3.6,1.7h-2c-0.1,0-0.3,0-0.4,0.1
		c-0.1,0-0.1,0-0.2,0C1,1.8,0.8,1.9,0.7,2L0.5,2.1C0.4,2.3,0.2,2.5,0.2,2.7C0.1,2.8,0,3.1,0,3.3v5C0,8.6,0.1,8.8,0.2,9
		c0.1,0.2,0.2,0.4,0.3,0.5C0.8,9.8,1.2,10,1.6,10h9.7c0.4,0,0.9-0.2,1.2-0.5C12.8,9.2,13,8.8,13,8.4v-5c0-0.4-0.2-0.9-0.5-1.1
		C12.3,2,12,1.8,11.7,1.7c-0.1,0-0.2-0.1-0.4-0.1h-2c0-0.1,0-0.3,0-0.4c0-0.1-0.1-0.2-0.1-0.3C9.1,0.8,9.1,0.8,9,0.6
		C8.9,0.5,8.8,0.4,8.7,0.3C8.5,0.2,8.4,0.2,8.3,0.1C8.1,0,7.9,0,7.7,0H5.3h0C5.2,0,5,0,4.9,0.1c-0.2,0-0.2,0.1-0.3,0.1
		C4.5,0.2,4.3,0.3,4.2,0.5c0,0,0,0-0.1,0C4,0.7,4,0.7,3.8,0.9c0,0,0,0,0,0c0,0.1,0,0.1-0.1,0.2C3.7,1.3,3.6,1.5,3.6,1.7L3.6,1.7z"/>
	<path id="XMLID_1_" class="st0" d="M4.8,5.8c0,0.1,0,0.1,0,0.2c0,0.1,0,0.2,0.1,0.3c0,0.1,0.1,0.2,0.1,0.3c0,0,0,0,0,0.1
		c0.1,0.2,0.2,0.3,0.3,0.4l0.2,0.1c0.1,0.1,0.2,0.1,0.3,0.2c0.3,0.2,0.8,0.2,1.1,0.1c0.2-0.1,0.4-0.1,0.6-0.3c0,0,0,0,0.1,0
		c0,0,0,0,0.1,0L7.7,7C7.8,6.9,7.9,6.8,8,6.6c0.1-0.1,0.1-0.2,0.1-0.4c0.1-0.2,0.1-0.5,0-0.8C8.1,5.3,8.1,5.2,8,5
		C7.9,4.9,7.8,4.8,7.7,4.7C7.6,4.6,7.6,4.5,7.5,4.5c-0.3-0.2-0.6-0.3-1-0.3c-0.2,0-0.5,0.1-0.7,0.2c0,0-0.1,0-0.1,0.1
		C5.3,4.6,5,4.9,4.9,5.3c0,0,0,0.1,0,0.1C4.8,5.5,4.8,5.7,4.8,5.8L4.8,5.8z"/>
</g>
</svg>
