<?xml version="1.0" encoding="UTF-8"?>
<!-- Generator: Adobe Illustrator 21.0.0, SVG Export Plug-In . SVG Version: 6.00 Build 0)  -->
<svg version="1.1" id="Layer_1" xmlns="http://www.w3.org/2000/svg" xmlns:xlink="http://www.w3.org/1999/xlink" x="0px" y="0px" width="32px" height="30px" viewBox="0 0 32 30" style="enable-background:new 0 0 32 30;" xml:space="preserve">
<style type="text/css">
	.st0{fill:#FFFFFF;}
	.st1{fill:#990000;}
</style>
<rect id="XMLID_1_" class="st0" width="32" height="30"/>
<g id="XMLID_17_">
	<path id="XMLID_34_" class="st1" d="M50.7,4.9c-4.8,0-8.8,4-8.8,8.8s4,8.8,8.8,8.8s8.8-4,8.8-8.8S55.6,4.9,50.7,4.9z M50.7,19.3   c-3,0-5.5-2.5-5.5-5.6s2.5-5.5,5.5-5.5s5.5,2.5,5.5,5.5S53.9,19.3,50.7,19.3z"/>
	<path id="XMLID_31_" class="st1" d="M63,24l-0.1,0.1c-0.7,1.2-2.3,1.2-3.5,0.4l-4-3.3c-1.2-0.7-1.2-2.3-0.3-3.5l0.1-0.1   c0.7-1.2,2.3-1.2,3.5-0.4l4,3.3C63.7,21.4,63.8,23,63,24z"/>
</g>
<g>
	<path class="st1" d="M14.7,4.8L23.1,15l-8.4,10.3H8.9L17.4,15L8.9,4.8H14.7z"/>
</g>
</svg>
