<?xml version="1.0" encoding="UTF-8"?>
<!-- Generator: Adobe Illustrator 22.0.1, SVG Export Plug-In . SVG Version: 6.00 Build 0)  -->
<svg version="1.1" id="Layer_1" xmlns="http://www.w3.org/2000/svg" xmlns:xlink="http://www.w3.org/1999/xlink" x="0px" y="0px" width="240px" height="40px" viewBox="0 0 240 40" style="enable-background:new 0 0 240 40;" xml:space="preserve">
<style type="text/css">
	.st0{fill:#65BB54;}
	.st1{fill:#FEFEFE;}
	.st2{fill:#519885;}
	.st3{fill:#7A41AB;}
	.st4{fill:#FFFFFF;}
	.st5{fill:#3380F7;}
	.st6{fill:#3C5A98;}
	.st7{fill:#FFBC00;}
</style>
<g>
	<rect x="160" class="st0" width="40" height="40"/>
	<g>
		<path class="st1" d="M165.2,34.7c0.8-2.5,1.7-4.8,2.5-7.3c0.1-0.2,0.1-0.4-0.1-0.7c-4.7-8.4,0-19,9.5-21.1    c7.4-1.7,14.6,2.5,17,9.6c2.2,6.6-0.8,14-7,17.1c-4.5,2.2-8.9,2.2-13.5,0c-0.2-0.1-0.3-0.1-0.6,0c-2.3,0.8-4.8,1.6-7.2,2.2    C165.7,34.7,165.4,34.8,165.2,34.7z"/>
		<path class="st0" d="M168.9,31.2c0.4-1.5,0.9-2.8,1.5-4.1c0.1-0.2,0-0.3-0.1-0.6c-4.8-7-1-16.8,7.3-18.6    c6.7-1.5,13.2,2.7,14.6,9.4c1.3,6.3-2.8,12.7-9.1,14.1c-3.4,0.8-6.4,0.2-9.3-1.5c-0.2-0.1-0.3-0.1-0.6-0.1    c-1.3,0.4-2.6,0.8-3.9,1.2C169.2,31.1,169.1,31.1,168.9,31.2z"/>
		<path class="st1" d="M175.8,13.1c0.7-0.2,0.9,0.2,1.1,0.8c0.3,0.8,0.7,1.6,1,2.5c0.1,0.2,0.1,0.4,0,0.7c-0.2,0.4-0.6,0.8-0.9,1.1    c-0.2,0.3-0.2,0.6-0.1,0.9c1.1,1.9,2.8,3.2,4.8,4.1c0.3,0.1,0.6,0.1,0.8-0.2c0.3-0.4,0.7-0.8,1-1.2c0.2-0.3,0.4-0.4,0.8-0.2    c1,0.4,1.9,0.9,2.9,1.3c0.2,0.1,0.2,0.3,0.2,0.6c0,1.6-0.9,2.5-2.6,2.9c-0.8,0.2-1.6,0.1-2.3-0.1c-3.2-0.9-5.8-2.8-7.7-5.6    c-0.7-1-1.3-1.9-1.7-3c-0.3-1.6,0-2.9,1.1-4C174.8,13.1,175.3,13.1,175.8,13.1z"/>
	</g>
</g>
<rect x="200" class="st2" width="40" height="40"/>
<g>
	<rect x="40" class="st3" width="40" height="40"/>
	<g>
		<path class="st4" d="M52.7,34c0-0.9,0-1.7,0-2.6c0-0.2,0-0.3-0.2-0.5c-3.2-0.9-4.9-3.2-5.6-6.4c-0.3-1.5-0.3-2.9-0.3-4.4    c0-1.9,0-3.9,0.5-5.7c0.2-1,0.6-1.9,1.1-2.9c0.9-1.6,2.4-2.6,4.1-3.2c1.6-0.6,3.2-0.9,4.8-1c1.6-0.1,3.2-0.1,4.8,0    C64,7.4,66,7.8,68.1,8.4c2.5,0.8,4,2.5,4.7,5c0.3,1.3,0.7,2.5,0.7,3.9c0,1.5,0,3,0,4.5c-0.1,1.3-0.2,2.6-0.6,3.9    c-0.9,2.9-2.7,4.6-5.6,5.3c-2.7,0.7-5.4,1-8.2,0.9c-0.1,0-0.1,0-0.2,0c-0.6-0.2-1,0.1-1.4,0.6c-1.1,1.4-2.3,2.6-3.4,4    c-0.2,0.2-0.5,0.5-0.7,0.7s-0.5,0.1-0.5-0.2c0-0.1,0-0.3,0-0.5C52.7,35.8,52.7,35,52.7,34L52.7,34z M54,11.8    c-0.2,0-0.3,0.1-0.6,0.1c-0.8,0.5-1.6,1-2.1,1.8c-0.3,0.6-0.5,1.1-0.2,1.8c0.5,0.9,0.8,1.9,1.4,2.9c2.5,5,6.6,8.2,11.8,10.1    c0.2,0.1,0.6,0.1,0.8,0.1c1.4-0.3,2.2-1.4,2.7-2.6c0.2-0.5,0-0.8-0.2-1.1c-1-0.9-2.1-1.7-3.3-2.4c-0.7-0.3-1.3-0.1-1.7,0.5    c-0.1,0.2-0.2,0.3-0.5,0.6c-0.3,0.5-0.7,0.6-1.3,0.3c-2.6-0.8-4.2-2.6-5.2-5.2c-0.1-0.5,0-0.8,0.3-1.1c0.2-0.1,0.3-0.2,0.6-0.5    c0.7-0.6,0.9-1.3,0.3-1.9c-0.7-1-1.4-1.9-2.2-3C54.7,11.9,54.3,11.8,54,11.8z M68.5,19.5c0-0.2,0-0.6-0.1-0.9    c0-0.2-0.1-0.6-0.1-0.8c-0.6-3.1-2.4-5.2-5.3-6.4c-1-0.5-2.1-0.6-3.2-0.6c-0.5,0-0.7,0.2-0.6,0.6c0.1,0.3,0.3,0.3,0.6,0.3    c0.5,0,0.9,0.1,1.5,0.1c3,0.6,5.4,2.7,6.1,5.7c0.1,0.7,0.2,1.5,0.2,2.3c0,0.3,0.2,0.6,0.5,0.6s0.5-0.2,0.5-0.6    C68.5,19.8,68.5,19.7,68.5,19.5z M66.4,18.8L66.4,18.8c0-0.5-0.1-1-0.2-1.5c-0.8-2.9-3.2-4.1-5.5-4.2c-0.2,0-0.5,0.1-0.5,0.5    c0,0.3,0.1,0.5,0.5,0.5s0.6,0.1,0.9,0.1c1.9,0.5,3.3,1.5,3.8,3.4c0.1,0.5,0.1,1,0.2,1.5c0,0.3,0.2,0.5,0.5,0.5    c0.2,0,0.5-0.1,0.5-0.5C66.4,19,66.4,18.9,66.4,18.8z M61.3,15.4c-0.5,0-0.6,0.1-0.6,0.5c0,0.2,0.2,0.5,0.6,0.5l0,0    c1,0.1,1.6,0.6,1.8,1.6c0,0.2,0.1,0.3,0.1,0.6c0,0.2,0.2,0.5,0.5,0.5s0.5-0.2,0.5-0.5c0-0.2,0-0.3,0-0.6    C64,16.4,62.8,15.4,61.3,15.4z"/>
	</g>
</g>
<rect x="80" class="st5" width="40" height="40"/>
<g>
	<rect class="st6" width="40" height="40"/>
	<path id="XMLID_1_" class="st4" d="M16.3,33.1V20.8h-3.9v-4.4h3.9c0,0,0-1.8,0-3.8c0-3,2.3-5.7,7.6-5.7c2.1,0,3.7,0.2,3.7,0.2   l-0.1,4c0,0-1.6,0-3.4,0c-1.9,0-2.2,0.7-2.2,2c0,1,0-2.1,0,3.2h5.7l-0.3,4.4h-5.5v12.4L16.3,33.1L16.3,33.1z"/>
</g>
<g>
	<rect x="120" class="st7" width="40" height="40"/>
	<g>
		<path class="st4" d="M140.1,26.4c-5.4-1.5-10.8-9.3-14.8-9.3v12.8c0.3,1.2,1,1.9,2.2,2.2h12.6h12.5c1.2-0.3,1.9-1,2.2-2.2V17    C151.1,17,145.6,25,140.1,26.4L140.1,26.4z M136.4,22.7h7.4v-1.1h-7.4V22.7z M136.4,18.1h7.4V17h-7.4V18.1z M136.4,20.3h7.4v-1.1    h-7.4V20.3z M130.2,18.4c1-1.4,0.8-1.9,1.5-3.3h16.7c0.7,1.4,0.7,2.2,1.6,3.6c1.9-1.9,2.5-2.2,4.7-2.7c-4.9-1.2-9.6-8-14.7-8    s-9.7,6.5-14.6,7.8C128.4,16.6,128.9,17.5,130.2,18.4L130.2,18.4z"/>
	</g>
</g>
<g>
	<g>
		<path class="st4" d="M228.6,12.1h-0.5V7.2c0-0.4-0.3-0.6-0.6-0.6h-14.9c-0.4,0-0.6,0.3-0.6,0.6v4.9h-0.5c-2.1,0-3.9,1.7-3.9,3.9v8    c0,2.1,1.7,3.9,3.9,3.9h0.5v5c0,0.4,0.3,0.6,0.6,0.6h14.9c0.4,0,0.6-0.3,0.6-0.6v-5h0.5c2.1,0,3.9-1.7,3.9-3.9v-8    C232.5,13.8,230.8,12.1,228.6,12.1z M213.2,7.8h13.6v4.3h-13.6V7.8z M226.8,32.2h-13.6v-7.9h13.6V32.2z M231.2,23.9    c0,1.4-1.2,2.6-2.6,2.6h-0.5v-2.3h1.4c0.4,0,0.6-0.3,0.6-0.6c0-0.4-0.3-0.6-0.6-0.6h-2h-14.9h-1.8c-0.4,0-0.6,0.3-0.6,0.6    c0,0.4,0.3,0.6,0.6,0.6h1.2v2.3h-0.5c-1.4,0-2.6-1.2-2.6-2.6v-8c0-1.4,1.2-2.6,2.6-2.6h1.2h14.9h1.2c1.4,0,2.6,1.2,2.6,2.6    L231.2,23.9L231.2,23.9L231.2,23.9z"/>
		<path class="st4" d="M227.4,16c-0.5,0-0.9,0.4-0.9,0.9c0,0.5,0.4,0.9,0.9,0.9c0.5,0,0.9-0.4,0.9-0.9C228.3,16.4,227.9,16,227.4,16    z"/>
		<path class="st4" d="M214.7,26.5h10.6c0.4,0,0.6-0.3,0.6-0.6c0-0.4-0.3-0.6-0.6-0.6h-10.6c-0.4,0-0.6,0.3-0.6,0.6    C214.1,26.2,214.3,26.5,214.7,26.5z"/>
		<path class="st4" d="M214.7,28.8h10.6c0.4,0,0.6-0.3,0.6-0.6c0-0.4-0.3-0.6-0.6-0.6h-10.6c-0.4,0-0.6,0.3-0.6,0.6    S214.3,28.8,214.7,28.8z"/>
	</g>
</g>
<path class="st4" d="M113.8,14.6c-1.3-3.7-3.8-6.2-7.3-7.9c-3.2-1.5-6.5-1.8-9.9-1.1c-3.3,0.7-6.2,2.4-8.3,5c-3,3.8-3.8,8-2.2,12.6  c0.9,2.5,2.4,4.5,4.5,6.1c0.1,0.1,0.2,0.2,0.2,0.3c0,1.6,0,3.2,0,4.8c0,0.1,0,0.1,0,0.2c0.1,0,0.1-0.1,0.2-0.1  c1.5-0.9,3.1-1.7,4.6-2.6c0.1-0.1,0.2-0.1,0.3,0c2.3,0.6,4.6,0.7,7,0.3c3.5-0.7,6.4-2.3,8.6-5C114.6,23.5,115.4,19.2,113.8,14.6z   M108.3,16.4c-2.2,2.4-4.4,4.7-6.7,7.1c-0.1,0.1-0.1,0.1-0.2,0c-1.2-1.2-2.4-2.5-3.5-3.7c-0.1-0.1-0.2-0.1-0.3,0  c-2.2,1.2-4.5,2.5-6.8,3.7c0,0-0.1,0-0.1,0.1c0,0-0.1,0,0,0c0.7-0.7,1.4-1.5,2-2.2c1.9-2,3.7-4,5.6-5.9c0.1-0.1,0.2-0.1,0.3,0  c1.2,1.2,2.4,2.5,3.5,3.7c0.1,0.1,0.1,0.1,0.2,0c2.3-1.3,4.5-2.5,6.8-3.8c0.1,0,0.1-0.1,0.2-0.1C109,15.6,108.7,16,108.3,16.4z"/>
</svg>