<?xml version="1.0" encoding="UTF-8"?>
<!-- Generator: Adobe Illustrator 24.0.0, SVG Export Plug-In . SVG Version: 6.00 Build 0)  -->
<svg version="1.1" id="Слой_1" inkscape:version="0.91 r13725" sodipodi:docname="YouTube_social_white_squircle_(2017).svg" xmlns:cc="http://creativecommons.org/ns#" xmlns:dc="http://purl.org/dc/elements/1.1/" xmlns:inkscape="http://www.inkscape.org/namespaces/inkscape" xmlns:rdf="http://www.w3.org/1999/02/22-rdf-syntax-ns#" xmlns:sodipodi="http://sodipodi.sourceforge.net/DTD/sodipodi-0.dtd" xmlns:svg="http://www.w3.org/2000/svg" xmlns="http://www.w3.org/2000/svg" xmlns:xlink="http://www.w3.org/1999/xlink" x="0px" y="0px" width="32px" height="32px" viewBox="0 0 32 32" style="enable-background:new 0 0 32 32;" xml:space="preserve">
<style type="text/css">
	.st0{fill:#E20000;}
	.st1{fill:#FFFFFF;}
</style>
<sodipodi:namedview bordercolor="#666666" borderopacity="1" fit-margin-bottom="0" fit-margin-left="0" fit-margin-right="0" fit-margin-top="0" gridtolerance="10" guidetolerance="10" id="namedview13" inkscape:current-layer="Слой_1" inkscape:cx="140.1615" inkscape:cy="129.72071" inkscape:pageopacity="0" inkscape:pageshadow="2" inkscape:window-height="715" inkscape:window-maximized="1" inkscape:window-width="1366" inkscape:window-x="-8" inkscape:window-y="-8" inkscape:zoom="1.18" objecttolerance="10" pagecolor="#ffffff" showgrid="false">
	</sodipodi:namedview>
<g id="g5360">
	<path id="rect4" class="st0" d="M16,0L16,0c8.8,0,16,7.2,16,16l0,0c0,8.8-7.2,16-16,16l0,0C7.2,32,0,24.8,0,16l0,0   C0,7.2,7.2,0,16,0z"/>
	<g id="g4167" transform="matrix(5.9026317,0,0,5.9026317,521.39665,-711.31763)">
		<path id="path4156" inkscape:connector-curvature="0" class="st1" d="M-85.6,121.9c0,0-1.1,0-1.4,0.1c-0.1,0-0.3,0.2-0.3,0.3    c-0.1,0.3-0.1,0.9-0.1,0.9s0,0.6,0.1,0.9c0,0.2,0.2,0.3,0.3,0.3c0.3,0.1,1.4,0.1,1.4,0.1s1.1,0,1.4-0.1c0.2,0,0.3-0.2,0.3-0.3    c0.1-0.3,0.1-0.9,0.1-0.9s0-0.6-0.1-0.9c0-0.2-0.2-0.3-0.3-0.3C-84.5,121.9-85.6,121.9-85.6,121.9z M-86,122.7l0.9,0.5l-0.9,0.5    V122.7L-86,122.7z"/>
	</g>
</g>
</svg>