<?xml version="1.0" encoding="utf-8"?>
<!-- Generator: Adobe Illustrator 21.0.0, SVG Export Plug-In . SVG Version: 6.00 Build 0)  -->
<svg version="1.1" id="Layer_1" xmlns="http://www.w3.org/2000/svg" xmlns:xlink="http://www.w3.org/1999/xlink" x="0px" y="0px"
	 width="146px" height="43px" viewBox="0 0 146 43" style="enable-background:new 0 0 146 43;" xml:space="preserve">
<style type="text/css">
	.st0{fill:#FFFFFF;}
</style>
<g>
	<path class="st0" d="M131.4,18.3l2.4-6.7l2.2,6.7H131.4L131.4,18.3z M129.8,23.1h7.6l1.1,3.3h7l-8.4-23h-6.9l-8.4,23h6.9
		L129.8,23.1L129.8,23.1z"/>
	<polygon class="st0" points="116,11.1 121.6,11.1 121.6,6.6 104.4,6.6 104.4,11.1 110.1,11.1 110.1,26.4 116,26.4 116,11.1 	"/>
	<path class="st0" d="M92.5,19.5l2-5.8l1.9,5.8H92.5L92.5,19.5z M91.1,23.6h6.5l1,2.8h6L97.5,6.6h-6l-7.2,19.7h5.9L91.1,23.6
		L91.1,23.6z"/>
	<polygon class="st0" points="73.4,6.6 67.5,6.6 67.5,26.4 82.2,26.4 82.2,21.3 73.4,21.3 73.4,6.6 	"/>
	<path class="st0" d="M52.9,11H56c1.6,0,2.3,1.2,2.3,2.6c0,1.4-0.8,2.7-2.4,2.7h-3V11L52.9,11z M52.9,20.5h4c4.7,0,7.5-2.7,7.5-6.9
		c0-2.3-1.2-4.6-2.9-5.7c-1.3-0.9-2.6-1.2-5.1-1.2H47v19.7h5.9V20.5L52.9,20.5z"/>
	<path class="st0" d="M31.8,19.5l2-5.8l1.9,5.8H31.8L31.8,19.5z M30.5,23.6H37l1,2.8h6L36.8,6.6h-6l-7.2,19.7h5.9L30.5,23.6
		L30.5,23.6z"/>
	<path class="st0" d="M20.4,20.4H9.1L19.8,8.7V3.4H1v6h9.4l-10,11v6h20V20.4L20.4,20.4z M7.6,4.2h6.6V0H7.6V4.2L7.6,4.2z M7.6,29.6
		h6.6v-4.2H7.6V29.6L7.6,29.6z"/>
</g>
<g>
	<path class="st0" d="M23.3,31.4c2.5,0,4.2,1.8,4.2,4.5c0,2.8-1.7,4.8-4.2,4.8c-2.6,0-4.3-1.9-4.3-4.6C19,33.3,20.7,31.4,23.3,31.4z
		 M23.3,39.1c1.5,0,2.4-1.2,2.4-3.1c0-1.8-0.9-3-2.4-3c-1.5,0-2.4,1.1-2.4,2.9C20.9,37.5,21.5,39.1,23.3,39.1z"/>
	<path class="st0" d="M30.1,35.6c0.4-1.2,1.3-1.6,2.2-1.6c1.7,0,3.1,1.1,3.1,3.3c0,2.1-1.2,3.4-3.2,3.4c-2.1,0-3.3-1.3-3.4-3.5
		l0-1.3c0-4.2,1.4-3.9,5.6-5c0,0,0.4-0.1,0.6-0.2v1.4c-0.2,0.1-0.7,0.2-0.7,0.2C30.6,33.4,30.2,33.3,30.1,35.6z M32,39.3
		c1,0,1.6-0.6,1.6-1.9c0-1.3-0.7-2-1.6-2c-1,0-1.5,0.6-1.5,1.9C30.4,38.6,31,39.3,32,39.3z"/>
	<path class="st0" d="M38.5,34h3.1v6.6h-1.7v-2.3h-1c-0.4,0-0.7,0.1-0.9,1c-0.2,0.6-0.1,0.9-0.2,1.3h-1.8c0.2-0.5,0.2-1.5,0.7-2.2
		c0.1-0.2,0.4-0.4,0.9-0.5c-0.7-0.3-1.4-0.8-1.4-1.7C36.1,35.4,36.5,34,38.5,34z M38.7,35.4c-0.7,0-1,0.5-1,0.9
		c0,0.3,0.2,0.8,0.9,0.8h1.2v-1.7H38.7z"/>
	<path class="st0" d="M42.9,38v-3.4c0-1.9,0.8-3.2,3.1-3.2c2,0,2.9,1,2.9,2.4c0,1-0.6,1.7-1.9,2c1.4,0.1,2.3,0.8,2.3,2.1
		c0,1.6-1.3,2.9-3.4,2.9C44.5,40.7,42.9,39.9,42.9,38z M44.7,37.9c0,1.1,1,1.3,1.3,1.3c0.7,0,1.7-0.3,1.7-1.5c0-1.1-0.6-1.3-1.7-1.3
		H45v-1.3h0.7c1,0,1.5-0.6,1.5-1.4c0-0.7-0.4-1.2-1.3-1.2c-0.9,0-1.3,0.5-1.3,1.6V37.9z"/>
	<path class="st0" d="M50.4,37.9V34h1.8v3.8c0,1,0.3,1.4,1.1,1.4c1.2,0,1.3-1.1,1.3-2.1V34h1.7v6.6h-1.7v-1c-0.5,0.9-1,1.2-2,1.2
		c-0.9,0-1.7-0.5-2-1.1C50.5,39.1,50.4,38.7,50.4,37.9z"/>
	<path class="st0" d="M67.7,38.6c0,1-0.6,2.1-2.8,2.1c-1.7,0-2.5-0.8-2.7-2.2h1.5c0.1,0.6,0.6,0.9,1.2,0.9c0.6,0,1.2-0.3,1.2-1
		c0-0.6-0.3-0.7-1-0.7h-0.5v-1.1H65c0.7,0,1-0.3,1-0.8c0-0.5-0.5-0.8-1-0.8c-0.6,0-1,0.3-1.1,0.9h-1.5c0.1-1,0.7-2,2.7-2
		c1.9,0,2.5,1,2.5,1.8c0,0.7-0.6,1.3-1.6,1.4C67.2,37,67.7,37.8,67.7,38.6z"/>
	<path class="st0" d="M71.5,33.8c1.8,0,2.9,0.5,2.9,2.4v3.3c0,0.5,0.1,0.8,0.3,1h-1.8c-0.2-0.3-0.3-0.5-0.3-0.9
		c-0.7,0.8-1.2,1-2.2,1c-1.1,0-1.9-0.8-1.9-2c0-1.1,0.5-1.8,1.7-2c0.6-0.1,1.4-0.2,2.3-0.3c0-0.8-0.1-1.2-1.1-1.2
		c-0.8,0-1.1,0.3-1.1,1h-1.6C68.8,34.6,69.9,33.8,71.5,33.8z M70.3,38.6c0,0.4,0.4,0.7,0.9,0.7c1.1,0,1.4-0.6,1.4-1.5v-0.4l-1.2,0.2
		C70.7,37.8,70.3,38.1,70.3,38.6z"/>
	<path class="st0" d="M84.7,33.8c1.6,0,2.6,1.3,2.6,3.4c0,2.1-1,3.5-2.7,3.5c-0.8,0-1.3-0.3-1.8-1.1v3.5H81V34h1.7v0.9
		C83.4,34.1,83.9,33.8,84.7,33.8z M82.7,37.3c0,1.2,0.5,1.9,1.4,1.9c0.9,0,1.4-0.7,1.4-1.9c0-1.3-0.5-2-1.4-2
		C83.2,35.3,82.7,36,82.7,37.3z"/>
	<path class="st0" d="M91,33.8c1.8,0,2.9,0.5,2.9,2.4v3.3c0,0.5,0.1,0.8,0.3,1h-1.8c-0.2-0.3-0.3-0.5-0.3-0.9c-0.7,0.8-1.2,1-2.2,1
		c-1.1,0-1.9-0.8-1.9-2c0-1.1,0.5-1.8,1.7-2c0.6-0.1,1.4-0.2,2.3-0.3c0-0.8-0.1-1.2-1.1-1.2c-0.8,0-1.1,0.3-1.1,1h-1.6
		C88.2,34.6,89.4,33.8,91,33.8z M89.7,38.6c0,0.4,0.4,0.7,0.9,0.7c1.1,0,1.4-0.6,1.4-1.5v-0.4l-1.2,0.2
		C90.2,37.8,89.7,38.1,89.7,38.6z"/>
	<path class="st0" d="M96.4,35.6c0.4-1.2,1.3-1.6,2.2-1.6c1.7,0,3.1,1.1,3.1,3.3c0,2.1-1.2,3.4-3.2,3.4c-2.1,0-3.3-1.3-3.4-3.5
		l0-1.3c0-4.2,1.4-3.9,5.6-5c0,0,0.4-0.1,0.6-0.2v1.4c-0.2,0.1-0.7,0.2-0.7,0.2C97,33.4,96.6,33.3,96.4,35.6z M98.4,39.3
		c1,0,1.6-0.6,1.6-1.9c0-1.3-0.7-2-1.6-2c-1,0-1.5,0.6-1.5,1.9C96.8,38.6,97.4,39.3,98.4,39.3z"/>
	<path class="st0" d="M106,33.8c2.1,0,3.4,1.3,3.4,3.5c0,2.1-1.3,3.4-3.4,3.4c-2.1,0-3.4-1.3-3.4-3.5
		C102.6,35.1,103.9,33.8,106,33.8z M107.6,37.3c0-1.3-0.6-2.1-1.6-2.1c-1,0-1.6,0.8-1.6,2.1c0,1.3,0.6,2.1,1.6,2.1
		C106.9,39.3,107.6,38.5,107.6,37.3z"/>
	<path class="st0" d="M112.2,34v0.9c0.6-0.8,1.1-1.1,1.8-1.1c0.8,0,1.4,0.4,1.7,1.1c0.6-0.8,1.1-1.1,1.9-1.1c1.3,0,2.1,0.9,2.1,2.4
		v4.3H118v-3.8c0-1-0.3-1.4-0.9-1.4c-0.8,0-1.1,0.5-1.1,1.9v3.4h-1.7v-3.9c0-1-0.3-1.3-0.9-1.3c-0.8,0-1.1,0.5-1.1,1.8v3.4h-1.7V34
		H112.2z"/>
	<path class="st0" d="M123.8,33.8c1.8,0,2.9,0.5,2.9,2.4v3.3c0,0.5,0.1,0.8,0.3,1h-1.8c-0.2-0.3-0.3-0.5-0.3-0.9
		c-0.7,0.8-1.2,1-2.2,1c-1.1,0-1.9-0.8-1.9-2c0-1.1,0.5-1.8,1.7-2c0.6-0.1,1.4-0.2,2.3-0.3c0-0.8-0.1-1.2-1.1-1.2
		c-0.8,0-1.1,0.3-1.1,1H121C121.1,34.6,122.2,33.8,123.8,33.8z M122.6,38.6c0,0.4,0.4,0.7,0.9,0.7c1.1,0,1.4-0.6,1.4-1.5v-0.4
		l-1.2,0.2C123,37.8,122.6,38.1,122.6,38.6z"/>
</g>
</svg>
