<?xml version="1.0" encoding="UTF-8" standalone="no"?>
<svg
   xmlns:dc="http://purl.org/dc/elements/1.1/"
   xmlns:cc="http://creativecommons.org/ns#"
   xmlns:rdf="http://www.w3.org/1999/02/22-rdf-syntax-ns#"
   xmlns:svg="http://www.w3.org/2000/svg"
   xmlns="http://www.w3.org/2000/svg"
   xmlns:sodipodi="http://sodipodi.sourceforge.net/DTD/sodipodi-0.dtd"
   xmlns:inkscape="http://www.inkscape.org/namespaces/inkscape"
   id="Ebene_1"
   data-name="Ebene 1"
   viewBox="0 0 373.82855 82.860001"
   version="1.1"
   sodipodi:docname="190617_Logo_Diab_RGB-ohnerahmen.svg"
   inkscape:version="0.92.4 (5da689c313, 2019-01-14)"
   width="373.82855"
   height="82.860001">
  <metadata
     id="metadata91">
    <rdf:RDF>
      <cc:Work
         rdf:about="">
        <dc:format>image/svg+xml</dc:format>
        <dc:type
           rdf:resource="http://purl.org/dc/dcmitype/StillImage" />
        <dc:title>Zeichenfläche 1</dc:title>
      </cc:Work>
    </rdf:RDF>
  </metadata>
  <sodipodi:namedview
     pagecolor="#ffffff"
     bordercolor="#666666"
     borderopacity="1"
     objecttolerance="10"
     gridtolerance="10"
     guidetolerance="10"
     inkscape:pageopacity="0"
     inkscape:pageshadow="2"
     inkscape:window-width="1149"
     inkscape:window-height="1027"
     id="namedview89"
     showgrid="false"
     showborder="false"
     inkscape:zoom="2.1138771"
     inkscape:cx="187.94045"
     inkscape:cy="46.499145"
     inkscape:window-x="763"
     inkscape:window-y="0"
     inkscape:window-maximized="0"
     inkscape:current-layer="Ebene_1"
     inkscape:pagecheckerboard="true"
     fit-margin-top="0"
     fit-margin-left="0"
     fit-margin-right="0"
     fit-margin-bottom="0"
     inkscape:showpageshadow="true" />
  <defs
     id="defs4">
    <style
       id="style2">.cls-1{fill:gray;}.cls-2{fill:#9c3;}.cls-3{fill:#069;}.cls-4{fill:#066;}.cls-5{fill:#999;}</style>
  </defs>
  <title
     id="title6">Zeichenfläche 1</title>
  <path
     class="cls-1"
     d="m 147.50464,45.4 h 5.2 V 22.8 h -5.6 v -6.7 h 14.5 v 29.2 h 5.1 V 52 h -19.3 v -6.6 z m 5.2,-43.3 h 9 v 8 h -9 z"
     id="path8"
     inkscape:connector-curvature="0"
     style="fill:#808080" />
  <path
     class="cls-1"
     d="m 172.20464,45.4 h 5.2 v -21 a 1.37,1.37 0 0 0 -1.5,-1.5 h -4 v -6.7 h 9.4 c 3.2,0 4.6,1.5 4.6,4 v 1.6 a 11.93,11.93 0 0 1 -0.1,1.5 h 0.1 a 14.35,14.35 0 0 1 13.2,-8 c 7.7,0 12,4.2 12,13.7 v 16.4 h 5.2 v 6.7 h -14.1 V 30.8 c 0,-4.4 -1.2,-7.3 -5.7,-7.3 -6.5,0 -10.3,6.2 -10.3,12.5 v 9.4 h 5.1 v 6.7 h -19.3 v -6.7 z"
     id="path10"
     inkscape:connector-curvature="0"
     style="fill:#808080" />
  <path
     class="cls-1"
     d="m 221.20464,45.4 h 5.2 V 22.8 h -5.6 v -6.7 h 5.6 v -1.6 c 0,-11.6 9.3,-13.1 14.1,-13.1 a 22.27,22.27 0 0 1 3.7,0.3 v 7.2 a 13.87,13.87 0 0 0 -2.7,-0.2 c -2,0 -6.1,0.4 -6.1,5.6 v 1.8 h 8.1 v 6.7 h -8.1 v 22.5 h 6.1 V 52 h -20.2 v -6.6 z"
     id="path12"
     inkscape:connector-curvature="0"
     style="fill:#808080" />
  <path
     class="cls-1"
     d="m 266.30464,15.3 c 11,0 19.8,7.8 19.8,18.8 0,11 -8.8,18.8 -19.7,18.8 -10.9,0 -19.8,-7.7 -19.8,-18.8 0,-11.1 8.8,-18.8 19.7,-18.8 z m 0,30 c 5.8,0 10.6,-4.5 10.6,-11.2 0,-6.7 -4.9,-11.2 -10.6,-11.2 -5.7,0 -10.7,4.6 -10.7,11.2 0,6.6 4.9,11.2 10.7,11.2 z"
     id="path14"
     inkscape:connector-curvature="0"
     style="fill:#808080" />
  <path
     class="cls-2"
     d="m 335.95464,20.7 -28.68,-8.56 c -1.49,-0.5 -1.49,-1.4 0,-2 l 28.88,-7.64 a 10.56,10.56 0 0 1 5.58,0 l 28.88,7.67 c 1.5,0.5 1.5,1.39 0,2 l -28.38,8.53 a 13.33,13.33 0 0 1 -6.28,0"
     id="path16"
     inkscape:connector-curvature="0"
     style="fill:#99cc33" />
  <path
     class="cls-3"
     d="m 306.77464,50.5 26.79,15.54 c 1.3,0.6 2.29,-0.5 2.29,-2.39 V 28.39 c 0,-2 -1,-3.78 -2.29,-4.08 l -27.19,-8.47 a 1.72,1.72 0 0 0 -2.27,1.86 l 0.4,28.88 a 4.84,4.84 0 0 0 2.29,3.88"
     id="path18"
     inkscape:connector-curvature="0"
     style="fill:#006699" />
  <path
     class="cls-4"
     d="m 371.10464,50.5 -26.78,15.54 c -1.3,0.6 -2.29,-0.5 -2.29,-2.39 V 28.39 c 0,-2 1,-3.78 2.29,-4.08 l 27.19,-8.61 a 1.72,1.72 0 0 1 2.29,1.9 l -0.4,28.88 a 4.85,4.85 0 0 1 -2.29,4"
     id="path20"
     inkscape:connector-curvature="0"
     style="fill:#006666" />
  <path
     class="cls-4"
     d="m 25.204636,43.2 a 13.35,13.35 0 0 1 -5.4,1.1 c -3.7,0 -6.6,-1.1 -8.6,-3.2 a 10.91,10.91 0 0 1 -2.8000004,-7.9 9.52,9.52 0 0 1 3.1000004,-7.4 10.22,10.22 0 0 1 3.5,-2.1 14.37,14.37 0 0 1 4.9,-0.8 13.17,13.17 0 0 1 5.3,1 z m 11.3,3.4 a 5.84,5.84 0 0 1 -1.4,-1.3 5.11,5.11 0 0 1 -1,-2.1 26.76,26.76 0 0 1 -0.4,-6.1 V 0 h -8.5 v 15.5 a 18.82,18.82 0 0 0 -5.3,-0.7 19.44,19.44 0 0 0 -14.3000004,5.6 18.78,18.78 0 0 0 -5.59999999,13.8 c 0,5.3 1.59999999,9.7 4.79999999,13 a 16.83,16.83 0 0 0 5.6000004,3.8 20.34,20.34 0 0 0 7.7,1.4 17.34,17.34 0 0 0 8.8,-2.5 8.92,8.92 0 0 0 2.9,2.5 z"
     id="path22"
     inkscape:connector-curvature="0"
     style="fill:#006666" />
  <path
     class="cls-4"
     d="m 55.804636,15.5 h -8.7 v 36.3 h 8.8 a 34.68,34.68 0 0 1 -0.1,-3.9 z"
     id="path24"
     inkscape:connector-curvature="0"
     style="fill:#006666" />
  <path
     class="cls-4"
     d="m 88.504636,43.4 a 14.18,14.18 0 0 1 -6.7,1.7 11,11 0 0 1 -5.4,-1 2.91,2.91 0 0 1 -1.3,-1.4 4.21,4.21 0 0 1 -0.4,-2 3.94,3.94 0 0 1 0.6,-2.1 c 1.4,-2.3 4.6,-3.4 9.8,-3.4 h 1.4 a 11.08,11.08 0 0 1 1.9,0.2 v 7.3 a 2.25,2.25 0 0 0 0.1,0.7 m 11.3,3.5 c -1.9,-1 -2.9,-2.8 -2.9,-5.5 V 28.8 a 15.89,15.89 0 0 0 -1,-5.9 c -2.1,-5.4 -6.9,-8.2 -14.5,-8.2 a 29.21,29.21 0 0 0 -13.5,3.2 l 1,7.7 0.1,0.1 a 13.24,13.24 0 0 1 4.8,-2.5 c 1,-0.3 2.1,-0.6 3.1,-0.8 a 18.41,18.41 0 0 1 3.3,-0.3 16.55,16.55 0 0 1 3.2,0.3 c 3,0.6 4.6,2.8 4.8,6.5 -0.3,0 -0.6,-0.1 -0.9,-0.1 a 2.48,2.48 0 0 1 -0.9,-0.1 h -1.4 c -6.1,0 -11,1.2 -14.5,3.6 -3.3,2.2 -4.9,5 -4.9,8.3 a 10.06,10.06 0 0 0 4,8.6 13.29,13.29 0 0 0 4.8,2.2 27.66,27.66 0 0 0 6.9,0.7 18.77,18.77 0 0 0 8.9,-2.7 8.37,8.37 0 0 0 3.2,3 z"
     id="path26"
     inkscape:connector-curvature="0"
     style="fill:#006666" />
  <path
     class="cls-4"
     d="m 132.20464,32.6 a 13.26,13.26 0 0 1 -2.6,8.3 7.7,7.7 0 0 1 -6.3,3.3 c -5.1,0 -7.6,-2 -7.6,-6.1 V 25.6 a 9.91,9.91 0 0 1 1.7,-1.1 11.59,11.59 0 0 1 5.5,-1.7 9.2,9.2 0 0 1 6.5,2.3 c 1.9,1.6 2.8,4.1 2.8,7.5 m 8.5,0.4 a 18.9,18.9 0 0 0 -4.8,-13.3 14.33,14.33 0 0 0 -5.2,-3.6 18.59,18.59 0 0 0 -7,-1.3 17.87,17.87 0 0 0 -8,2 V 0.1 h -8.5 v 38.1 c 0,4.6 1.6,8.2 4.8,10.7 a 18.43,18.43 0 0 0 23.5,-1.8 c 3.4,-3.5 5.2,-8.3 5.2,-14.1"
     id="path28"
     inkscape:connector-curvature="0"
     style="fill:#006666" />
  <polygon
     class="cls-4"
     points="59.9,5.3 51.2,5.3 51.2,13.3 59.9,13.3 "
     id="polygon30"
     style="fill:#006666"
     transform="translate(-3.8953644,-3.3)" />
  <path
     class="cls-5"
     d="m 14.384636,72.58 a 7.54,7.54 0 0 1 -0.5,2.83 6.19,6.19 0 0 1 -3.57,3.61 7.73,7.73 0 0 1 -2.8200004,0.5 h -5.21 V 65.7 h 5.21 a 7.73,7.73 0 0 1 2.8200004,0.5 6.41,6.41 0 0 1 2.17,1.41 6.33,6.33 0 0 1 1.4,2.2 7.53,7.53 0 0 1 0.5,2.77 z m -2.1,0 a 6.88,6.88 0 0 0 -0.34,-2.21 4.88,4.88 0 0 0 -1,-1.67 4.19,4.19 0 0 0 -1.5100004,-1 5.21,5.21 0 0 0 -2,-0.36 h -3.08 v 10.52 h 3.14 a 5.21,5.21 0 0 0 2,-0.36 4.21,4.21 0 0 0 1.5100004,-1 4.83,4.83 0 0 0 1,-1.66 6.9,6.9 0 0 0 0.28,-2.26 z"
     id="path32"
     inkscape:connector-curvature="0"
     style="fill:#999999" />
  <path
     class="cls-5"
     d="m 16.104636,71.08 a 5.4,5.4 0 0 1 3.89,-1.56 3.67,3.67 0 0 1 1.49,0.28 3.06,3.06 0 0 1 1.09,0.76 3.19,3.19 0 0 1 0.65,1.14 4.85,4.85 0 0 1 0.23,1.52 v 6.26 h -0.84 a 0.77,0.77 0 0 1 -0.42,-0.09 0.68,0.68 0 0 1 -0.24,-0.35 l -0.2,-0.86 a 7.85,7.85 0 0 1 -0.74,0.62 5,5 0 0 1 -0.77,0.45 4,4 0 0 1 -0.86,0.29 5.09,5.09 0 0 1 -1,0.09 3.5,3.5 0 0 1 -1.09,-0.16 2.51,2.51 0 0 1 -0.88,-0.48 2.28,2.28 0 0 1 -0.59,-0.83 2.71,2.71 0 0 1 -0.22,-1.15 2.17,2.17 0 0 1 0.31,-1.11 2.75,2.75 0 0 1 1,-1 6.34,6.34 0 0 1 1.85,-0.7 14.16,14.16 0 0 1 2.82,-0.31 v -0.71 a 2.46,2.46 0 0 0 -0.48,-1.58 1.72,1.72 0 0 0 -1.39,-0.55 3.13,3.13 0 0 0 -1,0.15 4,4 0 0 0 -0.72,0.34 c -0.2,0.13 -0.38,0.24 -0.53,0.35 a 0.84,0.84 0 0 1 -0.47,0.15 0.52,0.52 0 0 1 -0.33,-0.1 0.94,0.94 0 0 1 -0.23,-0.26 z m 5.53,4.08 a 15.88,15.88 0 0 0 -2,0.18 5.52,5.52 0 0 0 -1.3,0.37 1.78,1.78 0 0 0 -0.72,0.55 1.17,1.17 0 0 0 -0.23,0.7 1.54,1.54 0 0 0 0.12,0.63 1.49,1.49 0 0 0 0.33,0.44 1.32,1.32 0 0 0 0.49,0.24 2.37,2.37 0 0 0 0.61,0.08 3.32,3.32 0 0 0 0.8,-0.09 3.64,3.64 0 0 0 0.68,-0.24 3.76,3.76 0 0 0 0.61,-0.4 5.52,5.52 0 0 0 0.57,-0.53 z"
     id="path34"
     inkscape:connector-curvature="0"
     style="fill:#999999" />
  <path
     class="cls-5"
     d="m 31.774636,71.4 a 0.55,0.55 0 0 1 -0.17,0.17 0.38,0.38 0 0 1 -0.22,0.06 0.71,0.71 0 0 1 -0.34,-0.11 l -0.46,-0.23 a 3.38,3.38 0 0 0 -0.62,-0.23 3,3 0 0 0 -0.85,-0.11 2.45,2.45 0 0 0 -0.74,0.1 1.73,1.73 0 0 0 -0.56,0.28 1.14,1.14 0 0 0 -0.36,0.43 1.18,1.18 0 0 0 -0.13,0.52 0.89,0.89 0 0 0 0.22,0.61 2.11,2.11 0 0 0 0.57,0.42 6.08,6.08 0 0 0 0.8,0.31 l 0.92,0.3 c 0.31,0.1 0.62,0.22 0.92,0.35 a 3.24,3.24 0 0 1 0.8,0.49 2.48,2.48 0 0 1 0.57,0.71 2.25,2.25 0 0 1 0.22,1 3.27,3.27 0 0 1 -0.24,1.28 2.79,2.79 0 0 1 -0.72,1 3.36,3.36 0 0 1 -1.19,0.67 5,5 0 0 1 -1.61,0.24 4.94,4.94 0 0 1 -1.87,-0.34 4.41,4.41 0 0 1 -1.44,-0.86 l 0.44,-0.72 a 0.65,0.65 0 0 1 0.19,-0.21 0.57,0.57 0 0 1 0.31,-0.07 0.66,0.66 0 0 1 0.38,0.14 l 0.46,0.29 a 3.42,3.42 0 0 0 0.66,0.29 3,3 0 0 0 1,0.13 2.66,2.66 0 0 0 0.84,-0.12 1.77,1.77 0 0 0 0.59,-0.33 1.24,1.24 0 0 0 0.35,-0.48 1.39,1.39 0 0 0 0.12,-0.57 0.92,0.92 0 0 0 -0.22,-0.64 1.73,1.73 0 0 0 -0.57,-0.44 4.6,4.6 0 0 0 -0.8,-0.32 c -0.31,-0.09 -0.62,-0.18 -0.93,-0.29 a 7.45,7.45 0 0 1 -0.93,-0.36 3.08,3.08 0 0 1 -0.81,-0.51 2.4,2.4 0 0 1 -0.57,-0.75 2.54,2.54 0 0 1 -0.21,-1.08 2.62,2.62 0 0 1 0.92,-2 3.32,3.32 0 0 1 1.11,-0.63 4.39,4.39 0 0 1 1.5,-0.24 4.68,4.68 0 0 1 1.76,0.31 3.88,3.88 0 0 1 1.35,0.85 z"
     id="path36"
     inkscape:connector-curvature="0"
     style="fill:#999999" />
  <path
     class="cls-5"
     d="m 51.744636,72.58 a 7.75,7.75 0 0 1 -0.5,2.83 6.17,6.17 0 0 1 -3.58,3.61 7.64,7.64 0 0 1 -2.81,0.5 h -5.21 V 65.7 h 5.21 a 7.64,7.64 0 0 1 2.81,0.5 6.1,6.1 0 0 1 3.58,3.61 7.73,7.73 0 0 1 0.5,2.77 z m -2.11,0 a 6.89,6.89 0 0 0 -0.33,-2.21 4.88,4.88 0 0 0 -1,-1.67 4.19,4.19 0 0 0 -1.51,-1 5.21,5.21 0 0 0 -2,-0.36 h -3.09 v 10.52 h 3.15 a 5.21,5.21 0 0 0 2,-0.36 4.21,4.21 0 0 0 1.51,-1 4.83,4.83 0 0 0 1,-1.66 6.91,6.91 0 0 0 0.27,-2.26 z"
     id="path38"
     inkscape:connector-curvature="0"
     style="fill:#999999" />
  <path
     class="cls-5"
     d="m 56.484636,66.7 a 1.21,1.21 0 0 1 -0.1,0.5 1.38,1.38 0 0 1 -0.29,0.41 1.19,1.19 0 0 1 -0.42,0.28 1.25,1.25 0 0 1 -0.5,0.11 1.14,1.14 0 0 1 -0.49,-0.11 1.34,1.34 0 0 1 -0.69,-0.69 1.22,1.22 0 0 1 -0.11,-0.5 1.26,1.26 0 0 1 0.11,-0.51 1.25,1.25 0 0 1 0.28,-0.41 1.2,1.2 0 0 1 0.41,-0.28 1.13,1.13 0 0 1 0.49,-0.1 1.24,1.24 0 0 1 0.5,0.1 1.34,1.34 0 0 1 0.42,0.28 1.69,1.69 0 0 1 0.29,0.41 1.25,1.25 0 0 1 0.1,0.51 z m -0.38,3 v 9.82 h -1.86 V 69.7 Z"
     id="path40"
     inkscape:connector-curvature="0"
     style="fill:#999999" />
  <path
     class="cls-5"
     d="m 58.994636,71.08 a 5.55,5.55 0 0 1 1.78,-1.17 5.63,5.63 0 0 1 2.12,-0.39 3.62,3.62 0 0 1 1.48,0.28 3.06,3.06 0 0 1 1.09,0.76 3.35,3.35 0 0 1 0.64,1.14 4.85,4.85 0 0 1 0.22,1.52 v 6.26 h -0.84 a 0.79,0.79 0 0 1 -0.42,-0.09 0.62,0.62 0 0 1 -0.23,-0.35 l -0.21,-0.86 a 7.85,7.85 0 0 1 -0.74,0.62 5,5 0 0 1 -0.77,0.45 4.06,4.06 0 0 1 -0.85,0.29 5.27,5.27 0 0 1 -1,0.09 3.44,3.44 0 0 1 -1.08,-0.16 2.47,2.47 0 0 1 -0.89,-0.48 2.28,2.28 0 0 1 -0.59,-0.83 2.71,2.71 0 0 1 -0.22,-1.15 2.17,2.17 0 0 1 0.31,-1.11 2.75,2.75 0 0 1 1,-1 6.34,6.34 0 0 1 1.85,-0.7 14.25,14.25 0 0 1 2.82,-0.31 v -0.71 a 2.46,2.46 0 0 0 -0.48,-1.66 1.7,1.7 0 0 0 -1.39,-0.55 3.07,3.07 0 0 0 -1,0.15 4.16,4.16 0 0 0 -0.73,0.34 c -0.2,0.13 -0.38,0.24 -0.53,0.35 a 0.84,0.84 0 0 1 -0.47,0.15 0.52,0.52 0 0 1 -0.33,-0.1 0.94,0.94 0 0 1 -0.23,-0.26 z m 5.53,4.08 a 15.52,15.52 0 0 0 -2,0.18 5.48,5.48 0 0 0 -1.31,0.37 1.85,1.85 0 0 0 -0.72,0.55 1.16,1.16 0 0 0 -0.22,0.7 1.54,1.54 0 0 0 0.12,0.63 1.22,1.22 0 0 0 0.33,0.44 1.28,1.28 0 0 0 0.48,0.24 2.37,2.37 0 0 0 0.61,0.08 3.32,3.32 0 0 0 0.8,-0.09 3.64,3.64 0 0 0 0.68,-0.24 3.76,3.76 0 0 0 0.61,-0.4 5.52,5.52 0 0 0 0.57,-0.53 z"
     id="path42"
     inkscape:connector-curvature="0"
     style="fill:#999999" />
  <path
     class="cls-5"
     d="m 71.164636,71.06 a 5.11,5.11 0 0 1 1.38,-1.09 3.66,3.66 0 0 1 1.76,-0.42 3.53,3.53 0 0 1 1.55,0.33 3.4,3.4 0 0 1 1.18,1 4.44,4.44 0 0 1 0.74,1.51 7.26,7.26 0 0 1 0.26,2 7.68,7.68 0 0 1 -0.29,2.16 5.14,5.14 0 0 1 -0.84,1.67 3.74,3.74 0 0 1 -1.33,1.08 4.26,4.26 0 0 1 -2.63,0.29 3.32,3.32 0 0 1 -0.73,-0.26 2.92,2.92 0 0 1 -0.61,-0.43 4.11,4.11 0 0 1 -0.5,-0.6 l -0.09,0.82 a 0.44,0.44 0 0 1 -0.48,0.4 h -1.25 V 65.26 h 1.88 z m 0,6 a 2.63,2.63 0 0 0 1,0.85 2.86,2.86 0 0 0 1.18,0.24 2.39,2.39 0 0 0 2,-0.93 4.7,4.7 0 0 0 0.76,-2.79 4.22,4.22 0 0 0 -0.63,-2.57 2.12,2.12 0 0 0 -1.78,-0.81 2.63,2.63 0 0 0 -1.4,0.36 4.2,4.2 0 0 0 -1.11,1.05 z"
     id="path44"
     inkscape:connector-curvature="0"
     style="fill:#999999" />
  <path
     class="cls-5"
     d="m 88.414636,78.12 a 3.83,3.83 0 0 1 -0.8,0.7 5.15,5.15 0 0 1 -1,0.48 6.22,6.22 0 0 1 -1.05,0.27 8.09,8.09 0 0 1 -1.08,0.08 5,5 0 0 1 -1.88,-0.34 4.25,4.25 0 0 1 -1.5,-1 4.58,4.58 0 0 1 -1,-1.65 6.48,6.48 0 0 1 -0.35,-2.25 5.67,5.67 0 0 1 0.35,-1.91 4.68,4.68 0 0 1 0.92,-1.54 4.12,4.12 0 0 1 1.45,-1 4.78,4.78 0 0 1 1.93,-0.38 4.71,4.71 0 0 1 1.66,0.29 3.72,3.72 0 0 1 2.17,2.24 5.2,5.2 0 0 1 0.32,1.87 1.27,1.27 0 0 1 -0.1,0.59 0.39,0.39 0 0 1 -0.35,0.13 h -6.43 a 5.32,5.32 0 0 0 0.25,1.53 3.19,3.19 0 0 0 0.61,1.09 2.5,2.5 0 0 0 0.94,0.64 3.29,3.29 0 0 0 1.2,0.22 3.54,3.54 0 0 0 1.09,-0.15 5.67,5.67 0 0 0 0.79,-0.31 c 0.22,-0.12 0.41,-0.22 0.56,-0.32 a 0.84,0.84 0 0 1 0.4,-0.14 0.42,0.42 0 0 1 0.36,0.17 z m -1.55,-4.6 a 3.37,3.37 0 0 0 -0.16,-1 2.45,2.45 0 0 0 -0.47,-0.82 2.15,2.15 0 0 0 -0.75,-0.55 2.74,2.74 0 0 0 -1,-0.19 2.52,2.52 0 0 0 -1.87,0.69 3.3,3.3 0 0 0 -0.86,1.9 z"
     id="path46"
     inkscape:connector-curvature="0"
     style="fill:#999999" />
  <path
     class="cls-5"
     d="m 93.974636,79.7 a 2.41,2.41 0 0 1 -1.87,-0.69 2.65,2.65 0 0 1 -0.65,-1.91 v -5.87 h -1.1 a 0.36,0.36 0 0 1 -0.27,-0.1 0.37,0.37 0 0 1 -0.11,-0.3 v -0.77 l 1.59,-0.22 0.43,-2.93 a 0.38,0.38 0 0 1 0.11,-0.21 0.41,0.41 0 0 1 0.28,-0.09 h 1 v 3.29 h 2.78 v 1.37 h -2.78 v 5.75 a 1.17,1.17 0 0 0 0.28,0.86 1,1 0 0 0 0.73,0.29 1.52,1.52 0 0 0 0.45,-0.07 2.44,2.44 0 0 0 0.32,-0.15 l 0.24,-0.15 a 0.27,0.27 0 0 1 0.17,-0.07 0.25,0.25 0 0 1 0.15,0.05 0.45,0.45 0 0 1 0.11,0.14 l 0.56,0.9 a 3.14,3.14 0 0 1 -1.1,0.66 3.75,3.75 0 0 1 -1.32,0.22 z"
     id="path48"
     inkscape:connector-curvature="0"
     style="fill:#999999" />
  <path
     class="cls-5"
     d="m 106.66464,78.12 a 3.83,3.83 0 0 1 -0.8,0.7 5.83,5.83 0 0 1 -1,0.48 6.1,6.1 0 0 1 -1.06,0.27 7.82,7.82 0 0 1 -1.07,0.08 5,5 0 0 1 -1.88,-0.34 4.16,4.16 0 0 1 -1.500004,-1 4.75,4.75 0 0 1 -1,-1.65 6.73,6.73 0 0 1 -0.35,-2.25 5.67,5.67 0 0 1 0.32,-1.91 4.65,4.65 0 0 1 0.91,-1.54 4.16,4.16 0 0 1 1.460004,-1 5,5 0 0 1 3.59,-0.09 3.74,3.74 0 0 1 1.3,0.86 3.87,3.87 0 0 1 0.87,1.38 5.2,5.2 0 0 1 0.31,1.87 1.3,1.3 0 0 1 -0.09,0.59 0.41,0.41 0 0 1 -0.36,0.15 h -6.430004 a 5,5 0 0 0 0.250004,1.53 3.19,3.19 0 0 0 0.61,1.09 2.39,2.39 0 0 0 0.93,0.64 3.34,3.34 0 0 0 1.21,0.22 3.54,3.54 0 0 0 1.09,-0.15 6.21,6.21 0 0 0 0.79,-0.31 c 0.22,-0.12 0.41,-0.22 0.56,-0.32 a 0.8,0.8 0 0 1 0.4,-0.14 0.45,0.45 0 0 1 0.36,0.17 z m -1.56,-4.6 a 3.09,3.09 0 0 0 -0.16,-1 2.15,2.15 0 0 0 -0.47,-0.82 2,2 0 0 0 -0.75,-0.55 2.73,2.73 0 0 0 -1,-0.19 2.51,2.51 0 0 0 -1.87,0.69 3.31,3.31 0 0 0 -0.870004,1.9 z"
     id="path50"
     inkscape:connector-curvature="0"
     style="fill:#999999" />
  <path
     class="cls-5"
     d="m 115.00464,71.4 a 0.44,0.44 0 0 1 -0.16,0.17 0.38,0.38 0 0 1 -0.22,0.06 0.74,0.74 0 0 1 -0.35,-0.11 4.6,4.6 0 0 0 -0.45,-0.23 4,4 0 0 0 -0.62,-0.23 3.08,3.08 0 0 0 -0.85,-0.11 2.45,2.45 0 0 0 -0.74,0.1 1.9,1.9 0 0 0 -0.57,0.28 1.21,1.21 0 0 0 -0.35,0.43 1.06,1.06 0 0 0 -0.13,0.52 0.85,0.85 0 0 0 0.22,0.61 1.84,1.84 0 0 0 0.57,0.42 5.58,5.58 0 0 0 0.8,0.31 l 0.92,0.3 c 0.31,0.1 0.61,0.22 0.91,0.35 a 3.3,3.3 0 0 1 0.81,0.49 2.48,2.48 0 0 1 0.57,0.71 2.25,2.25 0 0 1 0.21,1 3.27,3.27 0 0 1 -0.24,1.27 2.82,2.82 0 0 1 -0.73,1 3.31,3.31 0 0 1 -1.18,0.67 5.44,5.44 0 0 1 -3.49,-0.1 4.63,4.63 0 0 1 -1.44,-0.86 l 0.45,-0.72 a 0.55,0.55 0 0 1 0.19,-0.21 0.57,0.57 0 0 1 0.31,-0.07 0.69,0.69 0 0 1 0.38,0.14 c 0.12,0.09 0.28,0.18 0.46,0.29 a 3.42,3.42 0 0 0 0.66,0.29 2.93,2.93 0 0 0 1,0.13 2.66,2.66 0 0 0 0.84,-0.12 1.73,1.73 0 0 0 0.6,-0.33 1.48,1.48 0 0 0 0.35,-0.48 1.38,1.38 0 0 0 0.11,-0.57 1,1 0 0 0 -0.21,-0.64 2,2 0 0 0 -0.57,-0.44 5.06,5.06 0 0 0 -0.81,-0.32 c -0.3,-0.09 -0.61,-0.18 -0.93,-0.29 a 8,8 0 0 1 -0.92,-0.36 2.93,2.93 0 0 1 -0.81,-0.51 2.26,2.26 0 0 1 -0.57,-0.75 2.67,2.67 0 0 1 0,-2.17 2.69,2.69 0 0 1 0.69,-0.92 3.13,3.13 0 0 1 1.11,-0.63 4.39,4.39 0 0 1 1.51,-0.24 4.68,4.68 0 0 1 1.76,0.31 4.08,4.08 0 0 1 1.35,0.85 z"
     id="path52"
     inkscape:connector-curvature="0"
     style="fill:#999999" />
  <path
     class="cls-5"
     d="m 120.71464,66.7 a 1.22,1.22 0 0 1 -0.11,0.5 1.31,1.31 0 0 1 -0.7,0.69 1.25,1.25 0 0 1 -0.5,0.11 1.22,1.22 0 0 1 -0.5,-0.11 1.25,1.25 0 0 1 -0.41,-0.28 1.2,1.2 0 0 1 -0.28,-0.41 1.39,1.39 0 0 1 -0.1,-0.5 1.45,1.45 0 0 1 0.1,-0.51 1.34,1.34 0 0 1 0.69,-0.69 1.21,1.21 0 0 1 0.5,-0.1 1.24,1.24 0 0 1 0.5,0.1 1.34,1.34 0 0 1 0.42,0.28 1.42,1.42 0 0 1 0.28,0.41 1.26,1.26 0 0 1 0.11,0.51 z m -0.36,3 v 9.82 h -1.88 V 69.7 Z"
     id="path54"
     inkscape:connector-curvature="0"
     style="fill:#999999" />
  <path
     class="cls-5"
     d="m 125.63464,71.07 a 5.46,5.46 0 0 1 0.66,-0.62 3.9,3.9 0 0 1 0.74,-0.48 4.41,4.41 0 0 1 0.84,-0.31 4.21,4.21 0 0 1 1,-0.11 3.54,3.54 0 0 1 1.43,0.27 2.8,2.8 0 0 1 1,0.76 3.27,3.27 0 0 1 0.62,1.17 4.85,4.85 0 0 1 0.22,1.52 v 6.25 h -1.9 v -6.25 a 2.52,2.52 0 0 0 -0.48,-1.64 1.8,1.8 0 0 0 -1.48,-0.58 2.76,2.76 0 0 0 -1.35,0.34 4.48,4.48 0 0 0 -1.18,0.93 v 7.2 h -1.88 V 69.7 h 1.13 a 0.46,0.46 0 0 1 0.49,0.38 z"
     id="path56"
     inkscape:connector-curvature="0"
     style="fill:#999999" />
  <path
     class="cls-5"
     d="m 135.55464,79.52 v -8.27 l -1,-0.13 a 0.85,0.85 0 0 1 -0.36,-0.15 0.42,0.42 0 0 1 -0.14,-0.33 v -0.78 h 1.53 v -0.89 a 4.37,4.37 0 0 1 0.24,-1.5 3.07,3.07 0 0 1 0.69,-1.11 2.92,2.92 0 0 1 1.08,-0.7 4,4 0 0 1 1.42,-0.23 3.69,3.69 0 0 1 1.23,0.19 v 1 a 0.25,0.25 0 0 1 -0.07,0.18 0.4,0.4 0 0 1 -0.18,0.1 2,2 0 0 1 -0.27,0 h -0.35 a 2.79,2.79 0 0 0 -0.79,0.11 1.4,1.4 0 0 0 -0.61,0.36 1.76,1.76 0 0 0 -0.38,0.66 3.26,3.26 0 0 0 -0.14,1 v 0.83 h 2.65 v 1.37 h -2.69 v 8.29 z"
     id="path58"
     inkscape:connector-curvature="0"
     style="fill:#999999" />
  <path
     class="cls-5"
     d="m 146.36464,69.55 a 5.3,5.3 0 0 1 2,0.35 4.21,4.21 0 0 1 1.49,1 4.5,4.5 0 0 1 0.94,1.59 6.24,6.24 0 0 1 0.31,2.11 6.34,6.34 0 0 1 -0.33,2.1 4.5,4.5 0 0 1 -0.94,1.59 4.06,4.06 0 0 1 -1.49,1 5.66,5.66 0 0 1 -3.92,0 4,4 0 0 1 -1.49,-1 4.54,4.54 0 0 1 -1,-1.59 6.34,6.34 0 0 1 -0.33,-2.1 6.24,6.24 0 0 1 0.33,-2.09 4.54,4.54 0 0 1 1,-1.59 4.12,4.12 0 0 1 1.49,-1 5.3,5.3 0 0 1 1.94,-0.37 z m 0,8.63 a 2.42,2.42 0 0 0 2.08,-0.93 5.4,5.4 0 0 0 0,-5.28 2.4,2.4 0 0 0 -2.08,-0.94 2.43,2.43 0 0 0 -2.1,0.94 5.4,5.4 0 0 0 0,5.28 2.44,2.44 0 0 0 2.1,0.93 z"
     id="path60"
     inkscape:connector-curvature="0"
     style="fill:#999999" />
  <path
     class="cls-5"
     d="m 155.34464,71.59 a 4.44,4.44 0 0 1 1.13,-1.52 2.44,2.44 0 0 1 1.61,-0.55 2.9,2.9 0 0 1 0.6,0.07 1.52,1.52 0 0 1 0.5,0.22 l -0.08,1.42 a 0.3,0.3 0 0 1 -0.31,0.26 2.77,2.77 0 0 1 -0.41,-0.05 2.67,2.67 0 0 0 -0.58,0 2.2,2.2 0 0 0 -0.8,0.13 1.73,1.73 0 0 0 -0.62,0.38 2.41,2.41 0 0 0 -0.49,0.63 6.58,6.58 0 0 0 -0.4,0.84 v 6.15 h -1.88 V 69.7 h 1.08 a 0.55,0.55 0 0 1 0.42,0.12 0.71,0.71 0 0 1 0.16,0.39 z"
     id="path62"
     inkscape:connector-curvature="0"
     style="fill:#999999" />
  <path
     class="cls-5"
     d="M 161.41464,79.52 V 69.7 h 1.13 a 0.46,0.46 0 0 1 0.49,0.38 l 0.14,0.94 a 5,5 0 0 1 1.2,-1.06 2.91,2.91 0 0 1 1.55,-0.41 2.32,2.32 0 0 1 1.59,0.54 3,3 0 0 1 0.88,1.45 3.33,3.33 0 0 1 0.55,-0.9 3.18,3.18 0 0 1 0.76,-0.62 3.06,3.06 0 0 1 0.88,-0.35 3.81,3.81 0 0 1 1,-0.12 3.64,3.64 0 0 1 1.4,0.25 2.71,2.71 0 0 1 1,0.72 3,3 0 0 1 0.64,1.16 5.21,5.21 0 0 1 0.23,1.59 v 6.25 h -1.9 v -6.25 a 2.47,2.47 0 0 0 -0.48,-1.66 1.69,1.69 0 0 0 -1.39,-0.56 2,2 0 0 0 -0.77,0.14 1.73,1.73 0 0 0 -0.65,0.42 2.08,2.08 0 0 0 -0.43,0.69 2.63,2.63 0 0 0 -0.16,1 v 6.25 h -1.89 v -6.28 a 2.54,2.54 0 0 0 -0.46,-1.68 1.63,1.63 0 0 0 -1.33,-0.54 2.06,2.06 0 0 0 -1.13,0.32 3.55,3.55 0 0 0 -1,0.87 v 7.28 z"
     id="path64"
     inkscape:connector-curvature="0"
     style="fill:#999999" />
  <path
     class="cls-5"
     d="m 177.51464,71.08 a 5.4,5.4 0 0 1 3.89,-1.56 3.67,3.67 0 0 1 1.49,0.28 3.06,3.06 0 0 1 1.09,0.76 3.19,3.19 0 0 1 0.67,1.18 4.85,4.85 0 0 1 0.23,1.52 v 6.26 h -0.84 a 0.77,0.77 0 0 1 -0.42,-0.09 0.68,0.68 0 0 1 -0.24,-0.35 l -0.2,-0.86 a 7.85,7.85 0 0 1 -0.74,0.62 5,5 0 0 1 -0.77,0.45 4,4 0 0 1 -0.86,0.29 5.09,5.09 0 0 1 -1,0.09 3.5,3.5 0 0 1 -1.09,-0.16 2.42,2.42 0 0 1 -0.88,-0.48 2.28,2.28 0 0 1 -0.59,-0.83 2.71,2.71 0 0 1 -0.22,-1.15 2.17,2.17 0 0 1 0.31,-1.11 2.75,2.75 0 0 1 1,-1 6.34,6.34 0 0 1 1.85,-0.7 14.16,14.16 0 0 1 2.82,-0.31 v -0.71 a 2.46,2.46 0 0 0 -0.48,-1.66 1.72,1.72 0 0 0 -1.39,-0.55 3.13,3.13 0 0 0 -1,0.15 4,4 0 0 0 -0.72,0.34 c -0.2,0.13 -0.38,0.24 -0.53,0.35 a 0.84,0.84 0 0 1 -0.47,0.15 0.52,0.52 0 0 1 -0.33,-0.1 0.94,0.94 0 0 1 -0.23,-0.26 z m 5.53,4.08 a 15.88,15.88 0 0 0 -2,0.18 5.52,5.52 0 0 0 -1.3,0.37 1.78,1.78 0 0 0 -0.72,0.55 1.17,1.17 0 0 0 -0.23,0.7 1.54,1.54 0 0 0 0.12,0.63 1.34,1.34 0 0 0 0.33,0.44 1.32,1.32 0 0 0 0.49,0.24 2.37,2.37 0 0 0 0.61,0.08 3.38,3.38 0 0 0 0.8,-0.09 3.91,3.91 0 0 0 0.68,-0.24 3.76,3.76 0 0 0 0.61,-0.4 5.52,5.52 0 0 0 0.57,-0.53 z"
     id="path66"
     inkscape:connector-curvature="0"
     style="fill:#999999" />
  <path
     class="cls-5"
     d="m 197.36464,79.52 h -1.89 v -8.29 h -4.93 v 5.75 a 1.13,1.13 0 0 0 0.29,0.86 1,1 0 0 0 0.72,0.29 1.42,1.42 0 0 0 0.45,-0.07 l 0.33,-0.15 0.23,-0.15 a 0.27,0.27 0 0 1 0.17,-0.07 0.21,0.21 0 0 1 0.15,0.05 0.27,0.27 0 0 1 0.11,0.14 l 0.56,0.9 a 3.05,3.05 0 0 1 -1.1,0.66 3.67,3.67 0 0 1 -1.35,0.26 2.44,2.44 0 0 1 -1.83,-0.66 2.64,2.64 0 0 1 -0.64,-1.91 v -5.9 h -1.14 a 0.4,0.4 0 0 1 -0.28,-0.1 0.41,0.41 0 0 1 -0.11,-0.3 v -0.77 l 1.6,-0.22 0.42,-2.93 a 0.42,0.42 0 0 1 0.43,-0.34 h 1 v 3.29 h 6.82 z m 0.42,-12.91 a 1.21,1.21 0 0 1 -0.1,0.5 1.37,1.37 0 0 1 -0.29,0.42 1.34,1.34 0 0 1 -0.42,0.28 1.44,1.44 0 0 1 -0.5,0.1 1.34,1.34 0 0 1 -0.49,-0.1 1.3,1.3 0 0 1 -0.41,-0.28 1.19,1.19 0 0 1 -0.28,-0.42 1.21,1.21 0 0 1 -0.1,-0.5 1.25,1.25 0 0 1 0.1,-0.51 1.19,1.19 0 0 1 0.28,-0.42 1.3,1.3 0 0 1 0.41,-0.28 1.16,1.16 0 0 1 0.49,-0.1 1.24,1.24 0 0 1 0.5,0.1 1.34,1.34 0 0 1 0.42,0.28 1.37,1.37 0 0 1 0.29,0.42 1.25,1.25 0 0 1 0.1,0.51 z"
     id="path68"
     inkscape:connector-curvature="0"
     style="fill:#999999" />
  <path
     class="cls-5"
     d="m 204.66464,69.55 a 5.34,5.34 0 0 1 2,0.35 4.09,4.09 0 0 1 1.48,1 4.52,4.52 0 0 1 0.95,1.59 6.5,6.5 0 0 1 0.32,2.09 6.61,6.61 0 0 1 -0.31,2.12 4.52,4.52 0 0 1 -0.95,1.59 3.94,3.94 0 0 1 -1.48,1 5.14,5.14 0 0 1 -2,0.35 5.07,5.07 0 0 1 -2,-0.35 4,4 0 0 1 -1.5,-1 4.52,4.52 0 0 1 -0.95,-1.59 6.34,6.34 0 0 1 -0.33,-2.1 6.24,6.24 0 0 1 0.33,-2.09 4.52,4.52 0 0 1 0.95,-1.59 4.16,4.16 0 0 1 1.5,-1 5.27,5.27 0 0 1 1.99,-0.37 z m 0,8.63 a 2.42,2.42 0 0 0 2.08,-0.93 5.46,5.46 0 0 0 0,-5.28 2.4,2.4 0 0 0 -2.08,-0.94 2.43,2.43 0 0 0 -2.1,0.94 5.4,5.4 0 0 0 0,5.28 2.44,2.44 0 0 0 2.1,0.93 z"
     id="path70"
     inkscape:connector-curvature="0"
     style="fill:#999999" />
  <path
     class="cls-5"
     d="m 213.62464,71.07 a 6.39,6.39 0 0 1 0.67,-0.62 3.9,3.9 0 0 1 0.74,-0.48 4.41,4.41 0 0 1 0.84,-0.31 4.21,4.21 0 0 1 1,-0.11 3.54,3.54 0 0 1 1.43,0.27 2.76,2.76 0 0 1 1,0.76 3.14,3.14 0 0 1 0.63,1.17 5.17,5.17 0 0 1 0.21,1.52 v 6.25 h -1.89 v -6.25 a 2.52,2.52 0 0 0 -0.48,-1.64 1.81,1.81 0 0 0 -1.48,-0.58 2.83,2.83 0 0 0 -1.36,0.34 4.61,4.61 0 0 0 -1.17,0.93 v 7.2 h -1.88 V 69.7 h 1.13 a 0.47,0.47 0 0 1 0.49,0.38 z"
     id="path72"
     inkscape:connector-curvature="0"
     style="fill:#999999" />
  <path
     class="cls-5"
     d="m 228.84464,71.4 a 0.46,0.46 0 0 1 -0.17,0.17 0.38,0.38 0 0 1 -0.22,0.06 0.71,0.71 0 0 1 -0.34,-0.11 l -0.46,-0.23 a 3.38,3.38 0 0 0 -0.62,-0.23 3,3 0 0 0 -0.85,-0.11 2.45,2.45 0 0 0 -0.74,0.1 1.73,1.73 0 0 0 -0.56,0.28 1.14,1.14 0 0 0 -0.36,0.43 1.18,1.18 0 0 0 -0.13,0.52 0.89,0.89 0 0 0 0.22,0.61 2.11,2.11 0 0 0 0.57,0.42 6.08,6.08 0 0 0 0.8,0.31 l 0.92,0.3 c 0.31,0.1 0.62,0.22 0.92,0.35 a 3.24,3.24 0 0 1 0.8,0.49 2.48,2.48 0 0 1 0.57,0.71 2.25,2.25 0 0 1 0.22,1 3.27,3.27 0 0 1 -0.25,1.27 2.79,2.79 0 0 1 -0.72,1 3.36,3.36 0 0 1 -1.19,0.67 5,5 0 0 1 -1.61,0.24 4.94,4.94 0 0 1 -1.87,-0.34 4.41,4.41 0 0 1 -1.44,-0.86 l 0.44,-0.72 a 0.65,0.65 0 0 1 0.19,-0.21 0.57,0.57 0 0 1 0.31,-0.07 0.66,0.66 0 0 1 0.38,0.14 l 0.46,0.29 a 3.42,3.42 0 0 0 0.66,0.29 3,3 0 0 0 1,0.13 2.66,2.66 0 0 0 0.84,-0.12 1.77,1.77 0 0 0 0.59,-0.33 1.24,1.24 0 0 0 0.35,-0.48 1.39,1.39 0 0 0 0.12,-0.57 0.92,0.92 0 0 0 -0.22,-0.64 1.73,1.73 0 0 0 -0.57,-0.44 4.6,4.6 0 0 0 -0.8,-0.32 c -0.31,-0.09 -0.62,-0.18 -0.93,-0.29 a 7.45,7.45 0 0 1 -0.93,-0.36 3.08,3.08 0 0 1 -0.81,-0.51 2.4,2.4 0 0 1 -0.57,-0.75 2.54,2.54 0 0 1 -0.21,-1.08 2.62,2.62 0 0 1 0.92,-2 3.32,3.32 0 0 1 1.11,-0.63 4.43,4.43 0 0 1 1.51,-0.24 4.68,4.68 0 0 1 1.76,0.31 3.88,3.88 0 0 1 1.35,0.85 z"
     id="path74"
     inkscape:connector-curvature="0"
     style="fill:#999999" />
  <path
     class="cls-5"
     d="m 233.62464,71.17 a 5.22,5.22 0 0 1 0.66,-0.67 3.93,3.93 0 0 1 0.76,-0.52 3.76,3.76 0 0 1 0.86,-0.34 3.87,3.87 0 0 1 1,-0.12 3.43,3.43 0 0 1 1.52,0.33 3.11,3.11 0 0 1 1.17,1 4.78,4.78 0 0 1 0.75,1.57 8.17,8.17 0 0 1 0.26,2.15 6.91,6.91 0 0 1 -0.29,2 5,5 0 0 1 -0.84,1.61 3.86,3.86 0 0 1 -3.13,1.52 3.51,3.51 0 0 1 -1.51,-0.29 3.64,3.64 0 0 1 -1.12,-0.81 v 4.26 h -1.88 V 69.7 h 1.13 a 0.45,0.45 0 0 1 0.49,0.38 z m 0.09,5.93 a 2.68,2.68 0 0 0 1,0.85 2.94,2.94 0 0 0 1.21,0.24 2.37,2.37 0 0 0 2,-0.93 4.46,4.46 0 0 0 0.71,-2.72 6.66,6.66 0 0 0 -0.16,-1.59 3,3 0 0 0 -0.46,-1.09 1.77,1.77 0 0 0 -0.75,-0.61 2.34,2.34 0 0 0 -1,-0.2 2.72,2.72 0 0 0 -1.42,0.36 4.39,4.39 0 0 0 -1.12,1.05 z"
     id="path76"
     inkscape:connector-curvature="0"
     style="fill:#999999" />
  <path
     class="cls-5"
     d="m 247.27464,69.55 a 5.25,5.25 0 0 1 2,0.35 4.21,4.21 0 0 1 1.49,1 4.5,4.5 0 0 1 0.94,1.59 6.24,6.24 0 0 1 0.33,2.09 6.34,6.34 0 0 1 -0.33,2.1 4.5,4.5 0 0 1 -0.94,1.59 4.06,4.06 0 0 1 -1.49,1 5.06,5.06 0 0 1 -2,0.35 5.12,5.12 0 0 1 -2,-0.35 4.06,4.06 0 0 1 -1.49,-1 4.52,4.52 0 0 1 -1,-1.59 6.09,6.09 0 0 1 -0.34,-2.1 6,6 0 0 1 0.34,-2.09 4.52,4.52 0 0 1 1,-1.59 4.21,4.21 0 0 1 1.49,-1 5.32,5.32 0 0 1 2,-0.35 z m 0,8.63 a 2.41,2.41 0 0 0 2.07,-0.93 5.4,5.4 0 0 0 0,-5.28 2.39,2.39 0 0 0 -2.07,-0.94 2.46,2.46 0 0 0 -2.11,0.94 5.4,5.4 0 0 0 0,5.28 2.48,2.48 0 0 0 2.11,0.93 z"
     id="path78"
     inkscape:connector-curvature="0"
     style="fill:#999999" />
  <path
     class="cls-5"
     d="m 256.24464,71.59 a 4.34,4.34 0 0 1 1.14,-1.52 2.41,2.41 0 0 1 1.6,-0.55 2.9,2.9 0 0 1 0.6,0.07 1.52,1.52 0 0 1 0.5,0.22 l -0.12,1.42 a 0.31,0.31 0 0 1 -0.32,0.26 2.93,2.93 0 0 1 -0.41,-0.05 2.67,2.67 0 0 0 -0.58,0 2.2,2.2 0 0 0 -0.8,0.13 1.73,1.73 0 0 0 -0.62,0.38 2.41,2.41 0 0 0 -0.49,0.63 8.28,8.28 0 0 0 -0.4,0.84 v 6.15 h -1.88 V 69.7 h 1.08 a 0.55,0.55 0 0 1 0.42,0.12 0.65,0.65 0 0 1 0.16,0.39 z"
     id="path80"
     inkscape:connector-curvature="0"
     style="fill:#999999" />
  <path
     class="cls-5"
     d="m 265.38464,79.7 a 2.44,2.44 0 0 1 -1.83,-0.66 2.64,2.64 0 0 1 -0.64,-1.91 v -5.9 h -1.14 a 0.36,0.36 0 0 1 -0.27,-0.1 0.37,0.37 0 0 1 -0.11,-0.3 v -0.77 l 1.59,-0.22 0.42,-2.93 a 0.48,0.48 0 0 1 0.15,-0.25 0.46,0.46 0 0 1 0.29,-0.09 h 0.95 v 3.29 h 2.79 v 1.37 h -2.79 v 5.75 a 1.18,1.18 0 0 0 0.29,0.86 1,1 0 0 0 0.73,0.29 1.52,1.52 0 0 0 0.45,-0.07 l 0.32,-0.15 c 0.09,-0.06 0.17,-0.1 0.23,-0.15 a 0.32,0.32 0 0 1 0.18,-0.07 0.25,0.25 0 0 1 0.11,0.01 0.45,0.45 0 0 1 0.11,0.14 l 0.56,0.9 a 3.14,3.14 0 0 1 -1.1,0.66 3.76,3.76 0 0 1 -1.29,0.3 z"
     id="path82"
     inkscape:connector-curvature="0"
     style="fill:#999999" />
  <path
     class="cls-5"
     d="m 269.83464,71.08 a 5.44,5.44 0 0 1 1.78,-1.17 5.54,5.54 0 0 1 2.11,-0.39 3.67,3.67 0 0 1 1.49,0.28 3.15,3.15 0 0 1 1.09,0.76 3.33,3.33 0 0 1 0.67,1.18 4.85,4.85 0 0 1 0.23,1.52 v 6.26 h -0.84 a 0.83,0.83 0 0 1 -0.43,-0.09 0.74,0.74 0 0 1 -0.23,-0.35 l -0.2,-0.86 a 6.83,6.83 0 0 1 -0.75,0.62 4.9,4.9 0 0 1 -0.76,0.45 4.14,4.14 0 0 1 -0.86,0.29 5.16,5.16 0 0 1 -1,0.09 3.5,3.5 0 0 1 -1.09,-0.16 2.42,2.42 0 0 1 -0.88,-0.48 2.3,2.3 0 0 1 -0.6,-0.83 2.88,2.88 0 0 1 -0.22,-1.15 2.18,2.18 0 0 1 0.32,-1.11 2.8,2.8 0 0 1 1,-1 6.3,6.3 0 0 1 1.86,-0.7 14.14,14.14 0 0 1 2.81,-0.31 v -0.71 a 2.51,2.51 0 0 0 -0.47,-1.66 1.73,1.73 0 0 0 -1.39,-0.55 3.13,3.13 0 0 0 -1,0.15 4.53,4.53 0 0 0 -0.73,0.34 l -0.53,0.35 a 0.81,0.81 0 0 1 -0.46,0.15 0.57,0.57 0 0 1 -0.34,-0.1 1.13,1.13 0 0 1 -0.23,-0.26 z m 5.52,4.08 a 15.7,15.7 0 0 0 -1.95,0.18 5.38,5.38 0 0 0 -1.3,0.36 1.82,1.82 0 0 0 -0.73,0.55 1.16,1.16 0 0 0 -0.22,0.7 1.54,1.54 0 0 0 0.12,0.63 1.22,1.22 0 0 0 0.33,0.44 1.32,1.32 0 0 0 0.49,0.24 2.31,2.31 0 0 0 0.61,0.08 3.24,3.24 0 0 0 0.79,-0.09 3.64,3.64 0 0 0 0.68,-0.24 3.06,3.06 0 0 0 0.61,-0.4 4.66,4.66 0 0 0 0.57,-0.53 z"
     id="path84"
     inkscape:connector-curvature="0"
     style="fill:#999999" />
  <path
     class="cls-5"
     d="m 282.43464,65.26 v 14.26 h -1.89 V 65.26 Z"
     id="path86"
     inkscape:connector-curvature="0"
     style="fill:#999999" />
</svg>
