<?xml version="1.0" encoding="utf-8"?>
<!-- Generator: Adobe Illustrator 16.0.4, SVG Export Plug-In . SVG Version: 6.00 Build 0)  -->
<!DOCTYPE svg PUBLIC "-//W3C//DTD SVG 1.1 Basic//EN" "http://www.w3.org/Graphics/SVG/1.1/DTD/svg11-basic.dtd">
<svg version="1.1" baseProfile="basic" id="Ebene_1"
	 xmlns="http://www.w3.org/2000/svg" xmlns:xlink="http://www.w3.org/1999/xlink" x="0px" y="0px" width="45px" height="45px"
	 viewBox="0 0 45 45" xml:space="preserve">
<g>
	<g>
		
			<image overflow="visible" opacity="0.12" width="37" height="37" xlink:href="6A9DB4EBAB4A93C1.png"  transform="matrix(1 0 0 1 4 3)">
		</image>
		<g>
			<path fill-rule="evenodd" clip-rule="evenodd" fill="#FFFFFF" d="M22.562,6.831c-8.057,0-14.587,6.532-14.587,14.587
				c0,2.756,0.764,5.334,2.093,7.532l-2.633,7.827l8.077-2.586c2.09,1.157,4.493,1.815,7.051,1.815
				c8.057,0,14.588-6.53,14.588-14.589C37.149,13.362,30.618,6.831,22.562,6.831z M22.562,33.683c-2.491,0-4.811-0.747-6.747-2.027
				l-4.714,1.51l1.532-4.555c-1.468-2.021-2.335-4.508-2.335-7.192c0-6.762,5.502-12.264,12.265-12.264s12.265,5.501,12.265,12.264
				C34.826,28.182,29.324,33.683,22.562,33.683z"/>
		</g>
	</g>
	<linearGradient id="SVGID_1_" gradientUnits="userSpaceOnUse" x1="22.561" y1="9.3042" x2="22.561" y2="33.6212">
		<stop  offset="0" style="stop-color:#6CD94E"/>
		<stop  offset="0.5153" style="stop-color:#1D9E11"/>
		<stop  offset="1" style="stop-color:#6CD94E"/>
	</linearGradient>
	<path fill-rule="evenodd" clip-rule="evenodd" fill="url(#SVGID_1_)" d="M22.562,9.154c-6.763,0-12.265,5.501-12.265,12.264
		c0,2.685,0.867,5.171,2.335,7.192L11.1,33.165l4.714-1.51c1.936,1.28,4.256,2.027,6.747,2.027c6.763,0,12.265-5.501,12.265-12.265
		C34.826,14.656,29.324,9.154,22.562,9.154z"/>
	<path fill-rule="evenodd" clip-rule="evenodd" fill="#FFFFFF" d="M19.14,15.385c-0.298-0.717-0.595-0.597-0.804-0.597
		c-0.208,0-0.447-0.03-0.686-0.03c-0.238,0-0.625,0.089-0.953,0.447s-1.251,1.223-1.251,2.982c0,1.759,1.282,3.46,1.46,3.698
		c0.179,0.24,2.473,3.967,6.109,5.398c3.635,1.432,3.635,0.954,4.29,0.894c0.657-0.059,2.116-0.863,2.414-1.699
		c0.298-0.835,0.298-1.551,0.209-1.698c-0.089-0.15-0.329-0.239-0.686-0.418c-0.358-0.181-2.116-1.044-2.443-1.163
		c-0.328-0.12-0.566-0.18-0.805,0.178c-0.239,0.358-0.925,1.164-1.134,1.403c-0.208,0.236-0.416,0.268-0.773,0.089
		c-0.356-0.181-1.509-0.556-2.875-1.774c-1.063-0.948-1.781-2.119-1.99-2.478c-0.208-0.357-0.021-0.551,0.157-0.729
		c0.162-0.161,0.358-0.418,0.537-0.627c0.179-0.208,0.238-0.357,0.358-0.596c0.119-0.239,0.059-0.447-0.03-0.627
		C20.153,17.86,19.438,16.101,19.14,15.385z"/>
</g>
</svg>
