<?xml version="1.0" encoding="utf-8"?>
<!-- Generator: Adobe Illustrator 16.0.4, SVG Export Plug-In . SVG Version: 6.00 Build 0)  -->
<!DOCTYPE svg PUBLIC "-//W3C//DTD SVG 1.1//EN" "http://www.w3.org/Graphics/SVG/1.1/DTD/svg11.dtd">
<svg version="1.1" id="Ebene_1" xmlns="http://www.w3.org/2000/svg" xmlns:xlink="http://www.w3.org/1999/xlink" x="0px" y="0px"
	 width="45px" height="45px" viewBox="0 0 45 45" enable-background="new 0 0 45 45" xml:space="preserve">
<g>
	<g>
		<path fill="#516384" d="M16.19,13.326h12.621c0.389,0,0.699-0.313,0.699-0.701c0-0.387-0.312-0.701-0.699-0.701H16.19
			c-0.388,0-0.701,0.314-0.701,0.701C15.489,13.013,15.803,13.326,16.19,13.326z"/>
		<path fill="#516384" d="M28.811,17.533H16.19c-0.388,0-0.701,0.313-0.701,0.701c0,0.388,0.313,0.702,0.701,0.702h12.621
			c0.389,0,0.699-0.313,0.699-0.702C29.51,17.846,29.198,17.533,28.811,17.533z"/>
		<path fill="#516384" d="M28.811,14.728H16.19c-0.388,0-0.701,0.313-0.701,0.702c0,0.387,0.313,0.701,0.701,0.701h12.621
			c0.389,0,0.699-0.314,0.699-0.701C29.51,15.042,29.198,14.728,28.811,14.728z"/>
	</g>
	<path fill="#516384" d="M35.12,21.039h-2.806V9.82c0-0.774-0.627-1.402-1.402-1.402H14.087c-0.774,0-1.403,0.628-1.403,1.402
		v11.218H9.88c-1.542,0-2.805,1.262-2.805,2.804v7.012c0,1.541,1.263,2.805,2.805,2.805h2.804v2.805
		c0,0.773,0.627,1.402,1.403,1.402h16.825c0.775,0,1.402-0.629,1.402-1.402v-2.805h2.806c1.542,0,2.804-1.264,2.804-2.805v-7.012
		C37.924,22.301,36.662,21.039,35.12,21.039z M30.912,36.463H14.087v-5.609h16.825V36.463z M30.912,22.44H14.087V9.82h16.825V22.44z
		 M33.717,26.646c-0.775,0-1.4-0.629-1.4-1.401c0-0.776,0.625-1.402,1.4-1.402s1.403,0.626,1.403,1.402
		C35.12,26.02,34.492,26.646,33.717,26.646z"/>
</g>
</svg>
