<?xml version="1.0" encoding="utf-8"?>
<!-- Generator: Adobe Illustrator 16.0.4, SVG Export Plug-In . SVG Version: 6.00 Build 0)  -->
<!DOCTYPE svg PUBLIC "-//W3C//DTD SVG 1.1 Basic//EN" "http://www.w3.org/Graphics/SVG/1.1/DTD/svg11-basic.dtd">
<svg version="1.1" baseProfile="basic" id="Ebene_1"
	 xmlns="http://www.w3.org/2000/svg" xmlns:xlink="http://www.w3.org/1999/xlink" x="0px" y="0px" width="45px" height="45px"
	 viewBox="0 0 45 45" xml:space="preserve">
<g>
	<path id="Blue_1_" fill="#3E5A98" d="M34.08,35.518c0.794,0,1.438-0.643,1.438-1.437V10.922c0-0.793-0.644-1.438-1.438-1.438H10.92
		c-0.793,0-1.438,0.645-1.438,1.438v23.159c0,0.794,0.645,1.437,1.438,1.437H34.08z"/>
	<path id="f" fill="#FFFFFF" d="M27.445,35.518V25.436h3.386l0.506-3.928h-3.892V19c0-1.139,0.316-1.914,1.947-1.914h2.08v-3.514
		c-0.359-0.049-1.595-0.155-3.031-0.155c-2.998,0-5.053,1.831-5.053,5.193v2.897h-3.393v3.929h3.393v10.08h4.057V35.518z"/>
</g>
</svg>
