<?xml version="1.0" encoding="utf-8"?>
<!-- Generator: Adobe Illustrator 16.0.4, SVG Export Plug-In . SVG Version: 6.00 Build 0)  -->
<!DOCTYPE svg PUBLIC "-//W3C//DTD SVG 1.1 Basic//EN" "http://www.w3.org/Graphics/SVG/1.1/DTD/svg11-basic.dtd">
<svg version="1.1" baseProfile="basic" id="Ebene_1"
	 xmlns="http://www.w3.org/2000/svg" xmlns:xlink="http://www.w3.org/1999/xlink" x="0px" y="0px" width="45px" height="45px"
	 viewBox="0 0 45 45" xml:space="preserve">
<path fill="#516384" d="M36.221,29.979c0,0.757-0.617,1.376-1.376,1.376h-24.77c-0.757,0-1.376-0.619-1.376-1.376V13.465
	c0-0.757,0.619-1.376,1.376-1.376h24.77c0.759,0,1.376,0.62,1.376,1.376V29.979z M27.068,21.883L32.766,17
	c0.432-0.37,0.483-1.022,0.111-1.455c-0.37-0.433-1.023-0.482-1.456-0.111l-8.961,7.681l-8.961-7.681
	c-0.432-0.374-1.083-0.322-1.455,0.111c-0.371,0.433-0.322,1.085,0.111,1.455l5.699,4.884l-5.672,4.537
	c-0.444,0.356-0.516,1.004-0.162,1.449c0.205,0.256,0.504,0.387,0.807,0.387c0.226,0,0.455-0.072,0.645-0.226l5.976-4.78
	l2.341,2.006c0.193,0.166,0.433,0.25,0.672,0.25c0.24,0,0.479-0.084,0.671-0.25l2.342-2.006l5.975,4.78
	c0.191,0.153,0.419,0.226,0.645,0.226c0.304,0,0.603-0.131,0.807-0.387c0.355-0.445,0.286-1.093-0.161-1.449L27.068,21.883z"/>
</svg>
