<?xml version="1.0" encoding="utf-8"?>
<!-- Generator: Adobe Illustrator 16.0.4, SVG Export Plug-In . SVG Version: 6.00 Build 0)  -->
<!DOCTYPE svg PUBLIC "-//W3C//DTD SVG 1.1 Basic//EN" "http://www.w3.org/Graphics/SVG/1.1/DTD/svg11-basic.dtd">
<svg version="1.1" baseProfile="basic" id="Ebene_1"
	 xmlns="http://www.w3.org/2000/svg" xmlns:xlink="http://www.w3.org/1999/xlink" x="0px" y="0px" width="45px" height="45px"
	 viewBox="0 0 45 45" xml:space="preserve">
<g>
	<path fill="#6CADDA" d="M36.119,15.054c-1.003,0.444-2.08,0.745-3.21,0.88c1.154-0.692,2.04-1.787,2.457-3.092
		c-1.079,0.64-2.275,1.105-3.549,1.356c-1.02-1.086-2.471-1.765-4.078-1.765c-3.086,0-5.588,2.502-5.588,5.588
		c0,0.438,0.049,0.864,0.145,1.273c-4.645-0.233-8.762-2.458-11.519-5.838c-0.48,0.825-0.756,1.785-0.756,2.809
		c0,1.939,0.987,3.649,2.486,4.651c-0.916-0.029-1.777-0.28-2.531-0.699c0,0.023,0,0.047,0,0.07c0,2.708,1.926,4.966,4.482,5.479
		c-0.469,0.128-0.962,0.197-1.473,0.197c-0.36,0-0.71-0.036-1.052-0.102c0.712,2.221,2.775,3.836,5.221,3.881
		c-1.913,1.499-4.322,2.393-6.94,2.393c-0.452,0-0.896-0.026-1.333-0.078c2.473,1.585,5.41,2.511,8.566,2.511
		c10.278,0,15.899-8.516,15.899-15.899c0-0.242-0.006-0.483-0.017-0.723C34.423,17.158,35.37,16.174,36.119,15.054z"/>
</g>
</svg>
