<?xml version="1.0" encoding="utf-8"?>
<!-- Generator: Adobe Illustrator 16.0.4, SVG Export Plug-In . SVG Version: 6.00 Build 0)  -->
<!DOCTYPE svg PUBLIC "-//W3C//DTD SVG 1.1 Basic//EN" "http://www.w3.org/Graphics/SVG/1.1/DTD/svg11-basic.dtd">
<svg version="1.1" baseProfile="basic" id="Ebene_1"
	 xmlns="http://www.w3.org/2000/svg" xmlns:xlink="http://www.w3.org/1999/xlink" x="0px" y="0px" width="45px" height="45px"
	 viewBox="0 0 45 45" xml:space="preserve">
<g>
	<defs>
		<rect id="SVGID_1_" x="9.483" y="9.53" width="25.999" height="25.999"/>
	</defs>
	<clipPath id="SVGID_2_">
		<use xlink:href="#SVGID_1_"  overflow="visible"/>
	</clipPath>
	<path clip-path="url(#SVGID_2_)" fill="#DF4B37" d="M35.614,33.731c0,0.898-0.727,1.625-1.626,1.625H11.24
		c-0.896,0-1.625-0.727-1.625-1.625V10.982c0-0.896,0.729-1.625,1.625-1.625h22.749c0.899,0,1.626,0.729,1.626,1.625V33.731z"/>
	<path clip-path="url(#SVGID_2_)" fill="#FFFFFF" d="M23.339,23.659c-1.808-1.319-2.251-2.065-0.522-3.403
		c0.972-0.752,1.653-1.772,1.653-3.013c0-1.351-0.55-2.562-1.588-3.188h1.471l1.254-1.253h-5.608c-3.5,0-5.216,2.085-5.216,4.393
		c0,2.358,1.617,4.208,4.778,4.208c-0.491,0.988-0.292,1.899,0.508,2.552c-5.397,0-6.551,2.365-6.551,4.191
		c0,2.362,2.715,3.767,5.975,3.767c4.455,0,6.224-2.361,6.224-4.3C25.716,26.031,25.128,24.998,23.339,23.659 M16.891,17.145
		c-0.261-1.985,0.753-3.504,2.262-3.459c1.513,0.046,2.805,1.674,3.066,3.658c0.262,1.985-0.609,3.262-2.122,3.217
		C18.589,20.517,17.151,19.13,16.891,17.145 M19.507,30.859c-2.253,0-3.878-1.423-3.878-3.137c0-1.676,1.91-3.126,4.161-3.099
		c2.497,0,3.985,1.555,3.985,3.187C23.775,29.523,22.386,30.859,19.507,30.859 M29.646,20.709v-2.115h-1.331v2.115h-2.112v1.329
		h2.112v2.19h1.331v-2.19h2.189v-1.329H29.646z"/>
</g>
</svg>
