<svg width="126" height="126" viewBox="0 0 126 126" fill="none" xmlns="http://www.w3.org/2000/svg">
<circle cx="63" cy="63" r="63" fill="#E02712"/>
<path d="M40.1824 38.6554C40.5984 38.5991 41.0203 38.6308 41.4387 38.6237C56.0871 38.6261 70.7367 38.6226 85.3852 38.6249C86.6461 38.6097 87.9129 39.0104 88.9102 39.7874C90.2859 40.8233 91.125 42.5214 91.1227 44.244C91.1285 52.9581 91.125 61.6722 91.125 70.3851C91.1438 71.7573 90.6574 73.1308 89.7539 74.1667C88.684 75.4276 87.0375 76.1554 85.3863 76.1249C70.8141 76.1261 56.243 76.1249 41.6719 76.1249C40.8609 76.119 40.0359 76.1718 39.2402 75.9749C37.6383 75.6175 36.2332 74.5065 35.4914 73.0452C35.0684 72.2272 34.8691 71.3026 34.875 70.3839C34.8762 62.9202 34.8715 55.4554 34.8773 47.9905C34.8527 46.9499 35.8289 46.0382 36.8637 46.1284C37.8211 46.1671 38.6402 47.0319 38.6238 47.9917C38.6285 55.4952 38.6238 62.9999 38.6262 70.5046C38.6063 71.4983 39.4957 72.3925 40.4906 72.3726C55.4953 72.3772 70.5 72.3749 85.5047 72.3737C86.5008 72.3925 87.3938 71.4995 87.3738 70.5046C87.3762 61.7894 87.3727 53.0741 87.375 44.3589C87.4148 43.6312 87.0023 42.9116 86.352 42.5823C85.8398 42.2999 85.2375 42.3854 84.6785 42.3749C69.9891 42.3761 55.2984 42.3749 40.609 42.3761C39.8555 42.4147 39.1031 41.9729 38.7961 41.2792C38.2606 40.221 39.0094 38.8112 40.1824 38.6554Z" fill="white"/>
<path d="M43.9324 79.9055C44.0742 79.8844 44.216 79.8739 44.3602 79.8739C56.7867 79.8762 69.2145 79.8739 81.641 79.8739C82.3359 79.8434 83.0426 80.2055 83.3777 80.8219C83.7363 81.4336 83.6977 82.2422 83.2887 82.8199C82.9301 83.3555 82.2785 83.6496 81.641 83.6262C69.2531 83.6262 56.8652 83.6227 44.4774 83.6274C43.8856 83.6602 43.2668 83.4692 42.8695 83.0145C42.2578 82.377 42.2121 81.3012 42.7617 80.6121C43.0465 80.2418 43.4695 79.9782 43.9324 79.9055Z" fill="white"/>
<path d="M61.7613 48.0831C63.8578 47.7995 66.048 48.2518 67.855 49.3534C69.9703 50.6366 71.5476 52.7835 72.116 55.194C72.4582 56.6214 72.4582 58.1284 72.116 59.5557C71.557 61.9382 70.0066 64.0651 67.923 65.3448C65.98 66.5753 63.5636 67.01 61.3054 66.594C59.3414 66.2401 57.5074 65.2194 56.1492 63.7604C54.7851 62.3296 53.9214 60.4417 53.6918 58.4811C53.4515 56.4807 53.8746 54.4042 54.8941 52.6651C56.3226 50.1948 58.923 48.4358 61.7613 48.0831ZM62.4515 51.7757C60.6269 51.935 58.9371 53.0682 58.064 54.6725C57.375 55.9206 57.1945 57.4335 57.5601 58.8093C57.9175 60.2026 58.8468 61.4296 60.0738 62.1737C61.3031 62.9389 62.8382 63.1862 64.2468 62.8581C65.7129 62.5346 67.023 61.5831 67.8 60.3011C68.5476 59.0964 68.7996 57.5987 68.5031 56.2147C68.2183 54.8249 67.3722 53.5686 66.2132 52.7565C65.1293 51.9948 63.7687 51.6456 62.4515 51.7757Z" fill="white"/>
<path d="M43.9324 55.5302C45.2871 55.4611 46.6476 55.515 48.0047 55.5021C48.8168 55.4927 49.5879 56.0704 49.7988 56.8544C50.0496 57.6595 49.6664 58.5982 48.9281 59.0025C48.5812 59.2099 48.1699 59.2615 47.7726 59.2521C46.5609 59.2404 45.348 59.2638 44.1363 59.2415C43.2187 59.2111 42.4219 58.4083 42.3797 57.4943C42.3 56.5697 43.0137 55.6662 43.9324 55.5302Z" fill="white"/>
<path d="M77.6824 55.5304C79.0371 55.4612 80.3976 55.5163 81.7547 55.5022C82.7144 55.4835 83.5851 56.3026 83.6203 57.2624C83.7058 58.2585 82.8656 59.2112 81.8648 59.2417C80.5746 59.2604 79.2843 59.2487 77.9941 59.2475C77.0812 59.2639 76.2375 58.5198 76.1414 57.6116C75.9937 56.6518 76.7226 55.6698 77.6824 55.5304Z" fill="white"/>
</svg>
