<svg width="36" height="36" viewBox="0 0 36 36" fill="none" xmlns="http://www.w3.org/2000/svg">
<g clip-path="url(#clip0_504_599)">
<circle cx="18" cy="18" r="18" fill="url(#paint0_radial_504_599)"/>
<circle cx="18" cy="18" r="18" fill="url(#paint1_radial_504_599)"/>
<path d="M18 8.18164C20.6182 8.18164 21.0545 8.18164 22.0363 8.29073C23.1272 8.29073 23.7818 8.50891 24.4363 8.7271C25.0909 8.94528 25.6364 9.38164 26.1818 9.818C26.7273 10.2544 27.0546 10.9089 27.2727 11.5635C27.4909 12.218 27.7091 12.8726 27.7091 13.9635C27.7091 15.0544 27.8182 15.3816 27.8182 17.9998C27.8182 20.618 27.8181 21.0544 27.7091 22.0362C27.7091 23.1271 27.4909 23.7816 27.2727 24.4362C27.0546 25.0907 26.6182 25.6362 26.1818 26.1816C25.6364 26.7271 25.0909 27.0544 24.4363 27.2726C23.7818 27.4907 23.1272 27.7089 22.0363 27.7089C20.9454 27.7089 20.6182 27.818 18 27.818C15.3818 27.818 14.9454 27.818 13.9636 27.7089C12.8727 27.7089 12.2182 27.4907 11.5636 27.2726C10.9091 27.0544 10.3636 26.618 9.81819 26.1816C9.27273 25.6362 8.94546 25.0907 8.72728 24.4362C8.5091 23.7816 8.29089 23.1271 8.29089 22.0362C8.1818 20.9453 8.18182 20.618 8.18182 17.9998C8.18182 15.3816 8.1818 14.9453 8.29089 13.9635C8.29089 12.8726 8.5091 12.218 8.72728 11.5635C8.94546 10.9089 9.38182 10.3635 9.81819 9.818C10.3636 9.38164 10.9091 8.94528 11.5636 8.7271C12.2182 8.50891 12.8727 8.29073 13.9636 8.29073C15.0545 8.18164 15.3818 8.18164 18 8.18164ZM23.2364 10.4726C22.8 10.4726 22.4727 10.6907 22.2545 11.018C22.0363 11.3453 22.0363 11.7816 22.2545 12.218C22.4727 12.5453 22.8 12.7635 23.2364 12.7635C23.8909 12.7635 24.4363 12.218 24.4363 11.5635C24.4363 10.9089 23.8909 10.4726 23.2364 10.4726ZM18 12.8726C15.1636 12.8726 12.9818 15.1635 12.9818 17.8907C12.9818 20.7271 15.2727 22.9089 18 22.9089C20.8364 22.9089 23.0182 20.618 23.0182 17.8907C23.0182 15.1635 20.8364 12.8726 18 12.8726ZM18 14.7271C19.2 14.7271 20.2909 15.2726 20.8363 16.3635C21.3818 17.3453 21.3818 18.6544 20.8363 19.6362C20.1818 20.618 19.0909 21.2726 18 21.2726C16.2546 21.2726 14.8363 19.7453 14.8363 17.9998C14.8363 16.1453 16.2546 14.7271 18 14.7271Z" fill="white"/>
</g>
<defs>
<radialGradient id="paint0_radial_504_599" cx="0" cy="0" r="1" gradientUnits="userSpaceOnUse" gradientTransform="translate(30.42 40.86) rotate(-115.776) scale(49.0926 73.0197)">
<stop offset="0.24392" stop-color="#FF1B90"/>
<stop offset="0.436673" stop-color="#F80261"/>
<stop offset="0.688476" stop-color="#ED00C0"/>
<stop offset="0.776787" stop-color="#C500E9"/>
<stop offset="0.893155" stop-color="#7017FF"/>
</radialGradient>
<radialGradient id="paint1_radial_504_599" cx="0" cy="0" r="1" gradientUnits="userSpaceOnUse" gradientTransform="translate(13.05 34.758) rotate(-57.4396) scale(21.2713 22.1253)">
<stop stop-color="#FFD600"/>
<stop offset="0.484375" stop-color="#FF6930"/>
<stop offset="0.734375" stop-color="#FE3B36"/>
<stop offset="1" stop-color="#FE3B36" stop-opacity="0"/>
</radialGradient>
<clipPath id="clip0_504_599">
<rect width="36" height="36" fill="white"/>
</clipPath>
</defs>
</svg>
