<?xml version="1.0" encoding="utf-8"?>
<!-- Generator: Adobe Illustrator 19.1.0, SVG Export Plug-In . SVG Version: 6.00 Build 0)  -->
<!DOCTYPE svg PUBLIC "-//W3C//DTD SVG 1.1//EN" "http://www.w3.org/Graphics/SVG/1.1/DTD/svg11.dtd">
<svg version="1.1" id="Logo" xmlns="http://www.w3.org/2000/svg" xmlns:xlink="http://www.w3.org/1999/xlink" x="0px" y="0px"
	 viewBox="0 0 110 69" enable-background="new 0 0 110 69" xml:space="preserve">
<g>
	<g>
		<g>
			<g>
				<g>
					<g>
						<path fill-rule="evenodd" clip-rule="evenodd" fill="#DEB408" d="M29.6,23.9c-0.4-0.1-0.7-0.4-0.8-0.5
							c-1.2-2.6,2.4-3.8,2.7-1.5c0.1,0.7-0.1,1.3-0.7,1.7C30.8,23.7,30.1,24,29.6,23.9z"/>
					</g>
					<g>
						<path fill-rule="evenodd" clip-rule="evenodd" fill="#DEB408" d="M28.3,24h-0.5c-1.7,1-2.2,3-3.8,4.2c-1.4,1-3.9,1.1-4.7,2.7
							c-0.1,0.2,0.1,0.6,0.2,0.6c1.1-0.1,1.5-0.9,2.7-0.9c-1.1,2.5-2.2,3.8-4.3,7.1c-0.1,0.2-0.2,0.8,0,0.9c0.4,0.2,0.7,0.2,1.5,0.2
							c0.7-0.3,1.4-1,1.7-1.9c0.9-1.5,1.3-2.3,2-3.3c0.8-1.1,1.2-2.2,2.1-3.2c1.3-1.6,3-3.2,4.3-4.8c0.1-0.4-0.3-0.6-0.3-0.8
							C29.2,24.7,28.3,24,28.3,24z"/>
					</g>
				</g>
				<g>
					<path fill-rule="evenodd" clip-rule="evenodd" fill="#DEB408" d="M61.2,22.9c-0.2,0-0.4,0.1-0.3,0.2c0.1,0.1,0.6,0.2,0.6,0.3
						c0.8,0.5,1.6,1.4,1,1.9c-1.7,1.9-3.7,3-5.3,5.1c-1.2,1.6-2.9,3.5-3.8,5.3c-0.2,0.7,0.2,1.2,0.2,1.6c0,0.1-0.4,0.4-0.6,0.4
						c-0.6,0-1.2,0-1.6-0.3c-0.1-0.1-0.3-0.5-0.3-0.7c-0.2-3,2.5-4.8,3.4-7.3c-2.5,0.4-4.8,0.6-6.8,1.5c0.8,0.4,1.4,0.9,1.2,1.6
						c-1.2,2.7-6,3.7-9.8,4.9c-2,0.6-6.5,1.8-7.1,1.9c-1,0.2-3.1,0.8-4.3,0.1c-0.2-0.1-0.4-0.6-0.2-1c0.9-1.6,3.6-2.4,5.5-3.2
						c2.7-1.1,6.1-2.5,9-3.4c-2-0.3-3.6-0.4-5-0.7c-0.7-0.1-1.9-0.2-2.7-0.4c-1.8-0.4-3.5-0.5-4.4-1.8c-0.2-0.4-0.1-0.9,0.1-1.2
						c0.6-1,3.9-2.5,7-3.5c2.8-0.9,5.5-1.6,8.7-1.8c2-0.1,4.5,0,4.5,1.6c-0.1,2.3-3.6,0.9-5.3,0.9c-2-0.1-4.2,0.1-6.2,0.7
						c-1.6,0.5-3.1,0.9-3.9,1.5c-0.5,0.4-0.7,0.7-0.5,1c0.4,0.5,1.2,0.7,1.7,0.8c1.8,0.6,5.5,1.4,7.8,1.4c2.1,0,4.3-0.9,6.7-1.5
						c2.2-0.5,4.5-0.9,5.9-1.9c1.6-1.2,2-3.3,3.8-3.9c0.1,0,0.3-0.1,0.2-0.3c-0.2-0.7-0.8-1-0.6-2C60.8,17.3,64.8,22.2,61.2,22.9z
						 M44.7,32.4c-0.1,0-1,0.3-1.2,0.3c-1.9,0.7-7.7,2.9-8.2,3.6c-0.2,0.3,0.1,0.5,1.1,0.4c3.3-0.5,6.4-1.4,8.7-3
						c0.3-0.2,0.8-0.6,0.8-0.8C45.7,32.5,45.4,32.4,44.7,32.4z"/>
				</g>
				<path fill-rule="evenodd" clip-rule="evenodd" fill="#DEB408" d="M65.9,26.5c0.3-0.3,0.4-0.5,0.4-0.7c0-0.2-0.4-0.5-0.5-0.7
					c-0.1-0.5,0.1-0.9,0.3-1c3.6-3.4,8.8-5,11.4,0c0.7,1.3,0.9,2.1,0.6,4c-0.2,1.4-0.5,2.6-1.1,3.6c-0.9,1.6-2,2.5-2.5,3
					c-1.9,1.8-12.8,7.9-13.3,0.6C60.9,31.4,64.1,28.4,65.9,26.5z M74.3,32.3c1.1-1.6,2.3-4.1,2-6.3c-0.4-3-4.1-4.8-6.2-2.4
					c2.6,0.4,1.4,4-1.1,3.6c-1.9,1.6-5.6,4-5.5,7.2c0,0.7,0.2,1.6,0.9,2C66.2,37.4,72.2,35.4,74.3,32.3z"/>
				<path fill-rule="evenodd" clip-rule="evenodd" fill="#DEB408" d="M98.1,22.1c0.5-0.4,0.9-0.3,1.2,0.1c3.1,7.2-1.9,17.6-9.9,16.3
					c-3.1-0.5-5.1-4.1-6.1-7.3c0-0.1-0.3-0.1-0.4,0c-2,1.9-2.3,5.9-5,7.1c-0.2,0.1-0.6-0.1-0.5-0.3c0.2-2.1,1.3-3.8,2.3-5.5
					c1.3-2.5,2.1-4.3,3.7-6.6c0.4-0.5,1.1-1.5,1.9-1.7c0.1,0,0.5,0.1,0.5,0.3c0,0.4,0,1-0.1,1.1c-0.8,4.8-0.1,8.4,2.8,10.3
					c0.2,0.1,1.5,0.8,2.4,0.8c2.1,0,3.9-1,4.9-2.7c1.2-2,1.5-5.2,1.4-7.5C97.1,24.9,96.8,23.1,98.1,22.1z"/>
				<path fill-rule="evenodd" clip-rule="evenodd" fill="#DEB408" d="M32.9,0.4c0.3,0,0.2,0.7-0.4,2.8c-1.2,3.9-2.7,6.5-4.6,10.1
					c-4.7,9-9.7,17.3-16.2,25.1c-2.4,2.9-7.2,9.5-11,6.4C0.4,44.7,0,43.5,0,43.2c0-6.8,6.4-13.3,3-19.5c-0.2-0.3-0.1-1.3,0.1-1.6
					c0.9-1.2,2-2.6,3.9-2.2c1.5,0.3,1.1,3.5,0.9,5.8C7.5,29.5,3.6,37.7,3,41c-0.1,0.3,0.3,0.7,0.5,0.6c2-0.9,6.2-5.2,7.7-7.2
					c5.9-7.3,9.7-14,15-23.2c2-3.4,3.1-5.6,4.6-8.2C32.1,1.1,32.7,0.4,32.9,0.4z"/>
			</g>
			<g>
				<path fill-rule="evenodd" clip-rule="evenodd" fill="#DEB408" d="M20.3,59.2c0.8-0.2,1.7-0.5,2.6-0.7c3.8-1,8.5-2.3,9.7-4.4
					c0.1-0.1,0.1-0.3,0-0.4c-0.1-0.3-0.5-0.6-0.8-0.8c-1.9-0.8-4.5-1.1-8-1.1c-2,0-4.2,0.1-6.2,0.2c-2,0.1-4.1,0.2-6.1,0.2
					c-1.2,0-2.2,0-3.1-0.1c-0.2,0-0.4,0-0.5,0c-1.1-0.1-2.4-0.2-3.2-1c-0.1-0.1-0.1-0.4,0-0.5c0.1-0.2,0.5-0.5,0.6-0.6
					c5.2-3.2,12.7-5.3,20.4-5.7l0.1,0.3c-0.6,0.3-1.1,0.8-1.2,1.1c0,0,0,0.1,0,0.1c0.1,0.1,0.3,0.1,0.5,0.1l0.2,0
					c3.5,0,6.8-1.3,7.4-2.5c0.1-0.4-0.4-0.7-0.6-0.8c-0.7-0.3-1.5-0.4-2.6-0.4c-1.1,0-2.4,0.1-3.5,0.3c-0.3,0-0.6,0.1-0.9,0.1
					c-1.5,0.2-3.2,0.4-4.8,0.7c-0.5,0.1-1,0.2-1.4,0.2c-5.1,0.8-12.1,3.2-14.8,5c-1.6,1.1-2.2,2.1-1.8,3.2c0.5,1.6,3.4,1.9,5.5,2
					c2,0.1,4.6,0,7.4-0.2c2.5-0.1,5.1-0.2,7.6-0.2c1.9,0,3.5,0.1,4.8,0.2c0,0,1.7,0.3,1.8,0.8c0,0.3-0.4,0.5-0.5,0.5
					c-3.5,1.4-7.8,2.5-12,3.6c-0.8,0.2-1.5,0.4-2.2,0.6c-0.4,0.1-0.8,0.2-1.2,0.3c-1.3,0.3-2.6,0.7-4.4,1.4
					c-1.2,0.5-3.8,1.4-3.6,2.4c0.2,0.8,0.8,1.1,2.2,1.1c0.1,0,0.2,0,0.3,0c1.9,0,3.8-0.7,4.5-1.2c0.1,0,0.1-0.1,0-0.1
					c0-0.1-0.2-0.2-0.2-0.2c-0.4-0.1-0.8-0.1-1.5,0c-0.2,0-0.3-0.1-0.3-0.3c0-0.2,0.1-0.4,0.3-0.4c2.1-0.7,4.3-1.4,6.6-2
					C18.1,59.9,19.2,59.6,20.3,59.2z"/>
				<path fill-rule="evenodd" clip-rule="evenodd" fill="#DEB408" d="M47,54l0-0.2c0.3,0,0.7-0.1,1.1-0.1l0.1,0
					c2.3-0.3,3.3-1.2,4.4-2.1c0.7-0.6,1.4-1.2,2.5-1.8l0.2-0.1l0,0.2c0,0.3,0,0.7,0,1c0,0.6-0.1,1.2,0.2,1.4
					c0.1,0.1,0.3,0.2,0.5,0.1c0.2,0,0.3,0,0.3,0c0.7,0,0.8-0.6,0.9-1.5c0-0.3,0.1-0.6,0.2-0.9c0.5-1.2,1-2.3,1.6-3.4
					c0.8-1.6,1.5-3,2-4.6c0-0.1,0-0.3-0.1-0.4c-0.2-0.2-0.5-0.3-0.8-0.3c-0.3,0-0.5,0.1-0.6,0.3c-0.9,0.9-1.7,2-2.6,3.1
					c-2.5,3.1-5,6.2-8.8,6.8l-0.2,0l0-0.2c0.4-2.1,1.4-3.6,2.4-5.1c0.7-1,1.3-2.1,1.8-3.3c0.1-0.1,0-0.3-0.1-0.5
					c-0.2-0.3-0.6-0.6-1.2-0.5c-2.2,1.8-4.2,5.6-4.9,9.3c-0.1,0.5-0.2,1.5,0.3,2.1c0.2,0.2,0.5,0.3,0.8,0.3V54L47,54z"/>
				<path fill-rule="evenodd" clip-rule="evenodd" fill="#DEB408" d="M37.4,54.5l0.3-0.2c0.6-0.3,1.2-0.5,1.7-0.8l0.1,0
					c0.8-0.5,2.1-1.2,2.9-2c1.9-1.6,3.9-3.6,3.6-6.3c-0.3-2.5-2.6-2.9-3.9-2.9c-2.5,0-5.4,1.2-6.8,2.7c-0.5,0.5-1.3,1.7-1.7,2.3
					c-0.1,0.2-0.3,0.5-0.4,0.7c-0.9,1.5-1.7,3-2.1,4.7c-0.2,0.9,0.2,2,0.8,2.2c1,0.4,2.4,0.4,3.9,0.1C36.3,54.9,36.6,54.8,37.4,54.5
					z M34.6,53.2c-0.2,0-0.5-0.1-0.7-0.4c-0.1-0.2-0.2-0.4-0.1-0.9c0.6-2.1,2-4.3,3.5-5.5c0.2-0.2,0.8-0.3,1.3-0.5
					c0.4-0.1,0.8-0.2,0.9-0.3c0.4-0.4,0.8-0.9,0.8-1.2c0-0.1,0-0.1-0.1-0.2l-0.3-0.2l0.3-0.1c1-0.3,2-0.2,2.9,0.3
					c0.5,0.3,1,1.5,0.6,2.5c-1.6,3.4-4.6,5.5-9,6.2C34.6,53.2,34.6,53.2,34.6,53.2z"/>
				<path fill-rule="evenodd" clip-rule="evenodd" fill="#DEB408" d="M105.8,50.3c-1.7,0.2-3.1,0.6-4.7,0.8c-1.3,0-2.7,0.2-4.1,0.2
					c-0.2,0-0.4,0-0.6,0l-0.1,0c-1.3,0-2.6-0.1-3.5-0.7c3.2-2.4,8.7-4,8.3-8.9c0-0.2-0.5-0.9-0.8-0.9c-2.4-0.5-5.2,1.1-6.9,2.6
					c-1.9,1.7-3.2,4-3.4,7l0,0c-0.6,0.2-1.3,0.4-2.1,0.7c-1.7,0.6-3.6,1.2-5.3,1.2c-1.1,0-2-0.2-2.7-0.7c-0.3-0.2-0.5-1.3-0.4-1.6
					c1-3.2,2.8-5.3,5.4-6.2l0.1,0l0.1,0.1c0.1,0.1,0.2,0.3,0.3,0.4c0.2,0.3,0.4,0.6,0.6,0.8l0,0c1-0.5,2-0.9,1.9-2.6
					c-0.7-0.7-1.5-1.1-2.4-1.1c-2.5,0-5,2.6-6,3.9c-0.4,0.6-0.7,1.2-0.9,1.9c-0.4,0.9-0.7,1.8-1.4,2.3c-0.8,0.5-0.9,0.5-2.1,0.6
					c-0.8,0.1-1.6,0.1-2.2,0.1c-1.3,0-2.4-0.2-3.8-1L69,49.1l0.2-0.1c0.5-0.3,1.1-0.7,1.8-1c2.1-1.1,4.4-2.4,4.5-4
					c-0.1-1.1-2.2-1.4-3.8-1.6l-0.5-0.1c-0.4-0.1-0.8-0.1-1.2-0.2c-1.7-0.2-3.5-0.5-5.2-0.5c-1.2,0-2.2,0.1-3,0.4
					c-0.2,0.1-0.3,0.3-0.3,0.6c0,0.2,0.1,0.5,0.4,0.7c0.2,0.4,0.7,0.5,1.5,0.5c0.3,0,0.5,0,0.8,0c0.3,0,0.5,0,0.8,0
					c0.7,0,1.4,0.1,1.8,0.6l0,0.1l0,0.1c-0.4,0.8-0.9,1.6-1.4,2.5c-1.1,1.9-2.2,3.8-2.7,5.7c-0.1,0.2-0.1,0.4-0.2,0.6
					c-0.4,1-0.7,1.8,0.1,2.3c1.2-0.1,1.5-1.1,1.9-2.2c0.3-0.9,0.6-1.7,1.3-2.2l0.1,0l0.1,0c1.9,0.5,3.2,0.7,4.3,0.7
					c1,0,1.9-0.2,3.2-0.4c1-0.2,2.1-0.4,3.7-0.6l0.2,0l0,0.2c-0.1,1.1,0.2,1.6,0.7,2.2c1.1,0.7,2.4,1,3.7,1c1.9,0,3.9-0.7,5.7-1.4
					c1.1-0.4,2.2-0.8,3.3-1.1c0.9,1.1,2.9,1.4,5.2,1.2c2.7-0.1,4.9-0.9,10.2-1.3c1.4-0.1,2.7,0.8,3.8-0.8
					C109,49.8,107.2,50.1,105.8,50.3z M68.1,47.5l0-0.2c-0.1-1,0.2-1.8,0.7-2.4c0.7-0.8,1.9-0.9,3.1-0.3l0.2,0.1L72,44.8
					c-0.9,1.3-2.3,2-3.6,2.6L68.1,47.5z M92.5,47.5c0.6-1.9,3.8-4.2,5.2-4.7c0.3-0.1,0.7-0.1,1-0.1c0.2,0,0.4,0.7,0.2,1
					c-1.5,2.5-3.7,4.3-6.7,5.3C92.2,48.5,92.3,48,92.5,47.5z"/>
			</g>
		</g>
		<g>
			<path fill="#DEB408" d="M103.5,40.8c0.7,0,1.3,0.6,1.3,1.3c0,0.8-0.6,1.3-1.3,1.3c-0.7,0-1.3-0.6-1.3-1.3
				C102.2,41.4,102.8,40.8,103.5,40.8z M103.5,43.3c0.6,0,1.1-0.5,1.1-1.1c0-0.6-0.5-1.1-1.1-1.1c-0.6,0-1.1,0.5-1.1,1.1
				C102.4,42.8,102.9,43.3,103.5,43.3z M103,41.4h0.6c0.4,0,0.5,0.1,0.5,0.4c0,0.3-0.2,0.4-0.4,0.4l0.4,0.7h-0.3l-0.4-0.7h-0.3v0.7
				H103V41.4z M103.3,42.1h0.2c0.2,0,0.4,0,0.4-0.3c0-0.2-0.2-0.2-0.3-0.2h-0.3V42.1z"/>
		</g>
	</g>
	
</g>
</svg>
