<svg width="60" height="60" viewBox="0 0 60 60" fill="none" xmlns="http://www.w3.org/2000/svg">
<path d="M8.61749 4.71316V1.0227C8.61749 0.457852 9.07534 0 9.64019 0C10.205 0 10.6629 0.457969 10.6629 1.0227V4.71305C10.6629 13.2636 17.6193 20.2199 26.1697 20.2199H34.6338C36.0285 20.2199 40.2721 20.2199 40.2721 12.109V11.5676C40.2421 9.89871 40.2514 8.23828 40.2621 6.60973C40.2663 5.97363 40.2703 5.32441 40.2721 4.67473V3.36973C40.2721 2.63965 39.678 2.04551 38.9478 2.04551H14.9238C14.359 2.04551 13.9011 1.58754 13.9011 1.02281C13.9011 0.458086 14.3591 0 14.9239 0H38.948C40.4691 0 41.7577 1.01355 42.1748 2.40059L42.2462 2.40094C42.4268 2.40258 42.5856 2.43984 42.7219 2.50254C45.987 2.98641 48.9662 5.12848 50.4108 8.14195C50.4963 8.31422 50.7664 8.98957 50.8157 9.08801C50.8283 9.11332 50.8399 9.1391 50.8505 9.16547C51.1935 10.0227 51.1964 10.8449 51.1964 11.5718C51.2161 12.0954 51.2434 12.6191 51.2725 13.1729C51.4423 16.4106 51.6345 20.0802 50.0013 23.1943C49.7391 23.6945 49.1208 23.8875 48.6206 23.6251C48.1205 23.3627 47.9275 22.7446 48.1898 22.2444C49.5625 19.627 49.3934 16.4004 49.2298 13.28C49.2013 12.7364 49.1718 12.1743 49.1516 11.6289C49.1512 11.6162 49.1509 11.6037 49.1509 11.591C49.1509 10.9785 49.1509 10.4477 48.964 9.95766C48.8857 9.79535 48.6262 9.14672 48.5771 9.0484C48.5745 9.04313 48.5719 9.03762 48.5692 9.03234C47.4001 6.58793 44.9687 4.86094 42.3185 4.51043C42.3184 4.57266 42.3179 4.63453 42.3178 4.69676V11.5816C42.3381 12.6765 42.3756 13.7718 42.4441 14.8584C42.6081 14.9381 43.5994 15.8428 43.6697 15.9131C45.1507 17.394 46.0995 19.3389 46.4136 21.5372C46.4161 21.5545 46.4181 21.5719 46.4196 21.5891C46.5061 22.5401 46.4891 23.4443 46.4632 24.3203H48.0483C49.3206 24.3203 50.3555 25.3553 50.3555 26.6275V34.3491C50.3555 35.6214 49.3205 36.6562 48.0483 36.6562H46.5259L47.2809 39.6112C48.7173 45.2327 47.0045 51.2155 42.8111 55.2252C39.5907 58.3043 35.3638 60 30.9083 60C30.8241 60 30.5047 60 30.4206 60C25.9653 60 21.7382 58.3043 18.518 55.2253C14.3245 51.2156 12.6116 45.2329 14.0481 39.6114C14.0597 39.5662 14.0742 39.522 14.0919 39.4787L15.2419 36.6564H13.7686C12.4963 36.6564 11.4614 35.6214 11.4614 34.3492V26.6276C11.4614 25.3553 12.4964 24.3204 13.7686 24.3204H15.3919V18.7863C15.3919 18.7136 15.3998 18.6428 15.4142 18.5741C11.2815 15.3598 8.61749 10.3419 8.61749 4.71316ZM46.425 34.6111H48.0482C48.1925 34.611 48.31 34.4936 48.31 34.3493V26.6277C48.31 26.4833 48.1925 26.366 48.0483 26.366H46.425V34.6111ZM15.3919 26.3659H13.7686C13.6242 26.3659 13.5069 26.4833 13.5069 26.6276V34.3492C13.5069 34.4936 13.6243 34.6109 13.7686 34.6109H15.3919V26.3659ZM44.3846 21.8007C44.1366 20.0991 43.4207 18.5979 42.3108 17.449C42.0424 17.2737 41.8628 17.0555 41.7252 16.8882C41.7199 16.8818 41.7151 16.8763 41.71 16.8698C41.4582 17.7121 41.1294 18.4607 40.7228 19.1101C39.4121 21.2038 37.3635 22.2653 34.6337 22.2653H26.1696C22.9928 22.2653 20.0103 21.417 17.437 19.9348V25.3431H17.4371V35.6337V35.8345L20.2096 37.1148C20.8778 37.4234 21.5686 37.7062 22.2629 37.9555C23.0924 38.2533 23.9464 38.5102 24.808 38.7209C26.4677 37.4393 28.6121 36.739 30.9082 36.739C33.185 36.739 35.3167 37.4297 36.9718 38.6937C38.573 38.2939 40.1353 37.7379 41.6229 37.0379L44.379 35.741V35.6337V26.0995V25.3431C44.379 25.292 44.3841 25.2421 44.3913 25.1929C44.3968 24.9686 44.4033 24.7473 44.41 24.5302C44.4388 23.5982 44.4659 22.7174 44.3846 21.8007ZM19.9316 53.7469C22.7693 56.4602 26.4943 57.9545 30.4206 57.9545C30.5048 57.9545 30.8242 57.9545 30.9083 57.9545C34.8344 57.9545 38.5595 56.4602 41.3973 53.7469C45.0578 50.247 46.5526 45.0246 45.2989 40.1177L44.7176 37.8424L42.4941 38.8888C40.7255 39.7211 38.8591 40.3649 36.9473 40.8028C36.6292 40.8756 36.2955 40.7923 36.049 40.5786C34.7341 39.4385 32.8604 38.7846 30.9083 38.7846C28.9409 38.7846 27.0574 39.4466 25.7409 40.6011C25.5525 40.7663 25.3121 40.855 25.0666 40.855C24.9922 40.855 24.9171 40.8468 24.8429 40.8301C23.736 40.5819 22.6355 40.2626 21.572 39.8809C20.8214 39.6115 20.0744 39.3057 19.352 38.972L16.9576 37.8663L16.0128 40.1846C14.7896 45.072 16.2878 50.2628 19.9316 53.7469Z" fill="#797878"/>
<path d="M27.8719 23.556C30.1104 23.556 31.9316 25.3771 31.9316 27.6158V33.6648C31.9316 34.2296 31.4737 34.6874 30.9089 34.6874C30.3442 34.6874 29.8863 34.2296 29.8863 33.6648V27.6158C29.8863 26.5051 28.9827 25.6015 27.872 25.6015C27.3072 25.6015 26.8493 25.1436 26.8493 24.5788C26.8493 24.0141 27.3071 23.556 27.8719 23.556Z" fill="#797878"/>
<path d="M25.3747 29.6287C24.7619 29.6287 24.2651 29.1319 24.2651 28.5191C24.2651 27.9062 24.7619 27.4094 25.3747 27.4094C25.9876 27.4094 26.4844 27.9062 26.4844 28.5191C26.4844 29.1319 25.9876 29.6287 25.3747 29.6287Z" fill="#797878"/>
<path d="M37.407 29.6287C36.7941 29.6287 36.2973 29.1319 36.2973 28.5191C36.2973 27.9062 36.7941 27.4094 37.407 27.4094C38.0198 27.4094 38.5166 27.9062 38.5166 28.5191C38.5166 29.1319 38.0198 29.6287 37.407 29.6287Z" fill="#797878"/>
<path d="M26.8065 43.1982C26.9571 42.6538 27.5204 42.3347 28.0646 42.4849C28.912 42.719 29.7921 42.8431 30.6804 42.8536C31.7176 42.8662 32.7468 42.7229 33.7325 42.4291C34.274 42.2677 34.8433 42.5758 35.0049 43.1169C35.1664 43.6581 34.8583 44.2278 34.3171 44.3893C33.1805 44.7282 31.9993 44.8998 30.8035 44.8998C30.7545 44.8998 30.7054 44.8996 30.6563 44.899C29.5921 44.8864 28.537 44.7375 27.5199 44.4565C26.9754 44.306 26.6559 43.7427 26.8065 43.1982Z" fill="#797878"/>
</svg>
