<svg version="1.2" xmlns="http://www.w3.org/2000/svg" viewBox="0 0 365 54" width="365" height="54"><style>.s0{fill:#ffffff}</style><path fill-rule="evenodd" class="s0" d="m14.8 47.8l5.4 1.3v3.9h-19.5v-3.9l5.3-1.3v-26.6l-5.3-1.3v-3.9h14.1zm-8.1-39.2q-1.3-1.3-1.3-3.6q0-2.2 1.3-3.6q1.3-1.4 3.7-1.4q2.3 0 3.7 1.4q1.3 1.4 1.3 3.6q0 2.3-1.3 3.6q-1.3 1.4-3.7 1.4q-2.4 0-3.7-1.4zm59.3 39.1l6.2 1.3v4h-16.4v-4l-9.1-17.9h-6.7v16.4l6.6 1.5v4h-21.4v-4l5.8-1.5v-39l-5.8-1.5v-4h25.9q3.4 0 5.9 0.6q0.6 0.2 1.1 0.4q0.6 0.2 1.2 0.4q0.6 0.3 1.1 0.6q0.6 0.3 1.1 0.6q2.5 1.9 3.9 4.7q1.5 2.8 1.5 5.8q0 2.9-1.4 5.7q-1.5 2.8-3.9 4.7q-0.3 0.2-0.7 0.5q-0.3 0.2-0.7 0.5q-0.3 0.2-0.7 0.4q-0.3 0.2-0.7 0.5q-1.6 0.9-4 1.4q0.1 0.2 0.3 0.3q0.1 0.2 0.2 0.3q0.2 0.2 0.3 0.3q0.1 0.2 0.3 0.3q0.2 0.3 0.4 0.5q0.2 0.3 0.4 0.5q0.1 0.3 0.3 0.5q0.2 0.3 0.4 0.6zm-11.8-23.8q1.4-1.2 2.2-3.1q0.8-2 0.8-4.3q0-2.1-0.9-3.8q-0.2-0.4-0.4-0.7q-0.3-0.4-0.5-0.8q-0.3-0.4-0.6-0.7q-0.4-0.3-0.7-0.6q-2.3-1.8-6.5-1.8h-7.6v18h7.9q3.8 0 6.3-2.2zm63.6-7q0.4 1.3 0.7 2.6q0.3 1.3 0.5 2.7q0.2 1.3 0.3 2.6q0.1 1.4 0.1 2.7c0 4.1-0.7 7.9-1.7 11.2q-1.7 5.3-5.3 9q-3 3.1-7.1 4.6q-4.1 1.5-10 1.5q-5.9 0-10.1-1.5q-4.1-1.5-6.9-4.4q-3.1-3.1-4.9-8.1q-1.8-5.1-1.8-11.2q0-6.1 1.8-11.4q1.8-5.2 5.1-8.8q0.8-0.8 1.6-1.4q0.8-0.7 1.7-1.3q0.8-0.6 1.8-1q0.9-0.5 1.9-0.9q4.1-1.4 10-1.4q5.6 0 9.8 1.3q1 0.4 2 0.8q1 0.5 1.9 1q1 0.6 1.8 1.3q0.9 0.6 1.6 1.4q3.6 3.6 5.2 8.7zm-8.5 11.6q0-5.5-1-9.5q-1-4.1-2.8-6.7q-1.8-2.6-4.4-3.9q-2.6-1.2-5.9-1.2q-3.3 0-5.7 1.2q-0.6 0.3-1.1 0.7q-0.6 0.3-1.1 0.7q-0.5 0.5-0.9 0.9q-0.5 0.5-0.8 1.1q-3.9 5.1-3.9 15.5q0 5.4 1 9.6q1 4.1 2.7 6.8q1.7 2.6 4.2 3.9q2.4 1.3 6.1 1.3q6.5 0 9.9-4.6q1.8-2.4 2.7-6.3q1-4 1-9.5zm47.6 8h6v16.5h-41.1v-4.2l28.8-40.6h-18.8l-2.2 10.6h-5.7v-15.8h37.4v4.3l-28.8 40.5h22.2zm43.1-33.5h20.7v4.1l-5.9 1.4v39.1l5.9 1.4v4h-20.7v-4l5.8-1.4v-17.7h-20.8v17.7l5.8 1.4v4h-20.7v-4l5.9-1.4v-39.1l-5.9-1.4v-4.1h20.7v4.1l-5.8 1.4v16.3h20.8v-16.3l-5.8-1.4zm63.2 32.7h5.9v17.3h-40.7v-4.1l6.6-1.4v-39l-6.6-1.5v-4h22.8v4l-7.2 1.5v39.3h16.8zm56.3 11.7l5.6 1.5v4h-21.2v-4l5.7-1.5l-3.6-10.8h-16.9l-3.6 10.8l5.8 1.5v4h-18.4v-4l5.7-1.5l16.3-45.2h8.5zm-15.1-15.8l-6.5-20.2h-0.3l-6.8 20.2zm60.1 8q0 3.5-1.3 6.1q-0.4 0.7-0.8 1.3q-0.4 0.6-0.8 1.1q-0.5 0.6-1 1.1q-0.5 0.5-1.1 0.9q-2.3 1.8-5.4 2.7q-3.2 0.8-6.7 0.8q-4 0-6.7-1.1q-2.7-1.1-4.9-3.6l-0.8 4h-5.9v-16.8h6.3q0.2 3.5 1.1 5.9q0.8 2.4 2.3 3.9q1.4 1.6 3.4 2.2q2 0.7 4.5 0.7q4 0 6.3-1.6q2.4-1.7 2.4-5.2q0-2.2-0.9-3.7q-0.9-1.5-2.6-2.7q-1.7-1.3-3.9-2.3q-2.3-1-5.1-2.2q-3.3-1.3-5.8-2.7q-2.5-1.3-4.3-3q-0.4-0.5-0.8-0.9q-0.4-0.5-0.7-1q-0.3-0.4-0.6-1q-0.3-0.5-0.5-1q-0.9-2.2-0.9-5.3q0-6.7 4.1-10.4q4.1-3.7 11.1-3.7q6.9 0 11.2 3.9l0.5-3.1h6v16.8h-6.1q0-6.5-2.4-9.6q-2.4-3.2-7.5-3.2q-7.8 0-7.8 7.5q0 1.8 0.5 3q0.5 1.3 1.7 2.3q1.2 1 3.2 1.9q0.6 0.3 1.2 0.6q0.6 0.3 1.3 0.6q0.6 0.3 1.2 0.6q0.6 0.3 1.2 0.5q4.4 2 7.4 3.8q3 1.7 4.9 3.5q1.8 1.8 2.6 3.8q0.9 2.1 0.9 4.6z" /></svg>