<svg version="1.2" xmlns="http://www.w3.org/2000/svg" viewBox="0 0 279 35" width="279" height="35"><style>.s0{fill:#ffffff}</style><path fill-rule="evenodd" class="s0" d="m210.9 0h0.8v34.6h-0.8zm-193.6 9h-17.3v-4.3h8.6c4.2 0 7.5 1.4 8.7 4.3zm-0.6 6.7h-16.7v-4.3h17.9q0 0.3 0 0.5c0 1.6-0.4 2.8-1.2 3.8zm-3.7 2.4l2.6 4.3h-15.6v-4.3zm-13 6.7h17.1l2.6 4.3h-19.7zm37.4-15.6h-4.4l-2.4-3h3.5l1.1 1.7l1.1-1.7h3.6zm85.7 20.2c-4.2 0-6.8-2.9-6.8-7c0-4.3 2.9-7.2 7.2-7.2c4.1 0 6.7 3.1 6.7 7.1c0 4.1-2.9 7.1-7.1 7.1zm0.2-11.1c-2.3 0-3.1 2-3.1 3.9c0 2 0.8 4.1 3.1 4.1c2.3 0 3-2.2 3-4.2c0-1.9-0.7-3.8-3-3.8zm-8.5 0.5c-2.7 0-3 1.6-3 3.8q-0.1 1 0 2.1v4.3h-4v-13.4h3.8v2.2c0.6-1.7 1.6-2.4 3.4-2.4q0.4 0 0.7 0v3.5q-0.4-0.1-0.9-0.1zm-33 10.2l-3.4-5.7l-1.2 1.3v4.4h-3.8v-18.2h3.8v9.4l4.1-4.6h5l-5.2 5.1l5.5 8.3zm-16.4 0.4c-2.6 0-5.4-0.9-6.1-3.7c-0.1-0.4-0.1-0.8-0.1-1.3l3.6-0.1c0.2 1.8 1.1 2.2 2.9 2.2c0.8 0 1.9-0.1 1.9-1.2c0-2.4-8-0.5-8-5.8c0-3.2 2.9-4.3 5.6-4.3c2.9 0 5.7 1.3 5.9 4.6l-3.6 0.2c-0.1-0.3-0.1-0.9-0.3-1.1c-0.5-0.6-1.3-0.9-2.1-0.9c-0.7 0-1.8 0.2-1.8 1.1c0 1 1.6 1.2 2.2 1.3c2.6 0.6 6 1.2 6 4.5c0 3.5-3.2 4.5-6.1 4.5zm-16.7-6c0.2 1.7 1.1 2.9 2.9 2.9c1.2 0 1.9-0.4 2.5-1.4l3.8 0.2c-0.9 2.9-3.5 4.3-6.4 4.3c-4.3 0-6.8-3-6.8-7.1c0-4 2.7-7.1 6.8-7.1c4.4 0 6.6 3.5 6.6 7.6v0.6zm2.9-5.2c-1.7 0-2.5 0.8-2.9 2.3h5.4c-0.2-1.3-1.2-2.3-2.5-2.3zm-7.9 5.4q0 0.4-0.2 0.8q-0.1 0.3-0.2 0.6q-0.2 0.4-0.3 0.7c-1.6 2.7-4.3 3.7-7.3 3.7c-1.2 0-2.5-0.1-3.6-0.6c-3.7-1.4-5.5-5.2-5.5-9c0-5.6 3.4-9.5 9.1-9.5c3.3 0 6.5 1.5 7.6 4.7c0.1 0.4 0.2 0.8 0.3 1.3l-4.1 0.3c-0.1-0.4-0.2-0.7-0.4-1c-0.7-1.3-2-1.8-3.4-1.8c-3.5 0-4.7 3-4.7 6c0 1.9 0.3 3.9 1.9 5.2q0.3 0.3 0.6 0.4q0.3 0.2 0.7 0.4q0.3 0.1 0.7 0.1q0.4 0.1 0.8 0.1c1.9 0 3.9-1.3 3.9-3.4l4.3 0.3q-0.1 0.4-0.2 0.7zm134.2 5.4h-3.7v-1.2c-1.5 1-2.3 1.6-4.2 1.6c-2.6 0-4.7-1.6-4.7-4.3c0-3.8 3.7-4.1 6.6-4.6c0.7-0.1 2.1-0.1 2.1-1.1c0-1-1.3-1.2-2.1-1.2c-1 0-2.4 0.3-2.3 1.7h-3.5c0.2-3.4 2.7-4.7 5.7-4.7c2.2 0 4.7 0.4 5.7 2.7c0.4 1 0.4 2.6 0.4 3.7zm-3.8-6.4q-0.5 0.1-0.9 0.3c-1.3 0.3-4 0.3-4 2c0 1 0.9 1.5 1.8 1.5c1.2 0 2.4-0.7 3.1-1.8zm11.9 6.8c-2.6 0-5.4-0.9-6.1-3.7c-0.1-0.4-0.1-0.8-0.1-1.2l3.6-0.1c0.2 1.7 1.1 2.2 2.8 2.2c0.9 0 1.9-0.2 1.9-1.3c0-2.4-7.9-0.4-7.9-5.8c0-3.1 2.9-4.2 5.6-4.2c2.9 0 5.7 1.2 5.8 4.5l-3.5 0.2c-0.1-0.3-0.2-0.8-0.4-1.1c-0.4-0.6-1.3-0.8-2-0.8c-0.7 0-1.8 0.1-1.8 1c0 1 1.5 1.2 2.2 1.3c2.6 0.6 5.9 1.2 5.9 4.5c0 3.5-3.1 4.5-6 4.5zm-22.7-0.3h-3.8v-18.3h3.8zm-10.2 0v-7.5c0-0.9 0-1.9-0.7-2.5c-0.3-0.4-0.8-0.5-1.3-0.5c-0.6 0-1 0.2-1.5 0.5c-0.9 0.8-0.8 2-0.8 3.1v6.9h-3.8v-18.3h3.8v6.3c0.6-1.1 2.5-1.7 3.6-1.7c0.9 0 2 0.2 2.7 0.7c1.5 1.1 1.8 2.6 1.8 4.4v8.6zm-21.9 0v-2.9l6.6-7.4h-5.9v-3.1h10.6v3.1l-6.4 7.1h6.9v3.2zm-37.1-15.2h-3l1.9-3.9h4.6zm0.6 15.1c-0.3 0.9-0.7 2.2-1.3 2.9c-1.1 1.4-3.2 1.3-4.9 1.3c-0.3 0-0.6 0-1 0v-3q0.5 0 1 0c0.5 0 1.3 0 1.6-0.3c0.4-0.3 0.6-1 0.6-1.4c0-0.7-0.3-1.3-0.5-1.9l-3.9-10.9h4.1l2.5 9l2.2-9h4zm150.1-9.9c0.2 2.8 1.1 6.2 4 6.2c3.1 0 3.9-3.3 4.1-6.2h4.9c-0.6 6-3.3 10.4-9.1 10.4c-6.3 0-8.3-5.3-8.8-10.4zm8.2-4.3c-0.2-2.8-1-6.2-4-6.2c-3.1 0-4 3.2-4.2 6.2h-4.9c0.4-5.1 2.6-10.4 9.4-10.4c6.3 0 8.2 5.5 8.6 10.4zm-22-10h5v24.3h-5zm35.1 14.4c0.2 2.8 1.1 6.1 4 6.1c3 0 3.9-3.3 4.1-6.1h4.9c-0.6 6-3.3 10.4-9.1 10.4c-6.3 0-8.3-5.3-8.8-10.4zm8.2-4.4c-0.2-2.7-1-6.2-4-6.2c-3.1 0-4 3.3-4.2 6.2h-4.9c0.4-5.1 2.5-10.4 9.4-10.4c6.3 0 8.2 5.6 8.6 10.4z" /></svg>