<?xml version="1.0" encoding="UTF-8"?>
<svg width="42px" height="42px" viewBox="0 0 42 42" version="1.1" xmlns="http://www.w3.org/2000/svg" xmlns:xlink="http://www.w3.org/1999/xlink">
    <!-- Generator: Sketch 61.2 (89653) - https://sketch.com -->
    <title>Group 5</title>
    <desc>Created with Sketch.</desc>
    <g id="Pages-article" stroke="none" stroke-width="1" fill="none" fill-rule="evenodd">
        <g id="Article_Scribble_Desktop" transform="translate(-957.000000, -1364.000000)">
            <g id="Group-5" transform="translate(957.000000, 1364.000000)">
                <path d="M0,0 L42,0 L42,42 L19,42 C8.50658975,42 -2.26764155e-15,33.4934102 0,23 L0,0 L0,0 Z" id="Rectangle" fill="#E6EAEB"></path>
                <g id="icon/pin" transform="translate(8.000000, 3.000000)" fill="#005587">
                    <path d="M17.4288,17.9750667 L21.0768,13.5817333 L21.1081333,13.6077333 C21.1081333,13.6077333 26.4361333,12.8850667 26.3534667,11.7070667 C26.3121333,11.1184 24.2854667,9.15773333 22.1228,7.3624 C19.9601333,5.5664 17.6614667,3.9344 17.0748,4.00173333 C15.9014667,4.13706667 16.1701333,9.50773333 16.1701333,9.50773333 L16.2014667,9.53306667 L12.5534667,13.9264 C12.5534667,13.9264 7.4648,14.0964 7.2608,15.8204 C7.09546667,17.2150667 9.74146667,19.4690667 10.7568,20.2784 L6.0748,25.9170667 C5.8928,26.1357333 5.16146667,27.3617333 5.3708,27.5357333 C5.58013333,27.7097333 6.6508,26.7650667 6.83213333,26.5457333 L11.5148,20.9070667 C12.4968,21.7570667 15.1988,23.9437333 16.5394667,23.5250667 C18.1961333,23.0077333 17.4288,17.9750667 17.4288,17.9750667" id="Fill-1"></path>
                </g>
            </g>
        </g>
    </g>
</svg>