<?xml version="1.0" encoding="utf-8"?>
<!-- Generator: Adobe Illustrator 23.1.0, SVG Export Plug-In . SVG Version: 6.00 Build 0)  -->
<svg version="1.1" id="Слой_1" xmlns="http://www.w3.org/2000/svg" xmlns:xlink="http://www.w3.org/1999/xlink" x="0px" y="0px"
	 viewBox="0 0 184 70" style="enable-background:new 0 0 184 70;" xml:space="preserve">
<style type="text/css">
	.st0{display:none;}
	.st1{display:inline;}
	.st2{fill:#FFFFFF;}
	.st3{enable-background:new    ;}
	.st4{font-family:'Arial-BoldMT';}
	.st5{font-size:41.6873px;}
	.st6{display:none;enable-background:new    ;}
	.st7{display:inline;fill:#FFFFFF;}
	.st8{font-size:25.3116px;}
	.st9{display:none;fill:#FFFFFF;enable-background:new    ;}
</style>
<title>MTA_Logotipia</title>
<desc>Created using Figma</desc>
<g id="Canvas" transform="translate(-121 -25)" class="st0">
	<g id="MTA_Logotipia" class="st1">
		<g>
			<g transform="translate(121 10)">
				<path id="path0_fill" class="st2" d="M122,40h2.6c0-0.6,0.2-2.1,0.3-2.9l0.7-5.7c1,2.1,3.6,8.1,3.9,8.8l1-0.1
					c0.3-0.8,3-6.7,3.9-8.8l0.8,5.7c0.1,0.8,0.3,2.5,0.3,3h2.5c-0.2-1-0.6-3.5-0.8-4.8l-0.6-4.5c-0.2-1.3-0.5-3.9-0.6-5.1h-1.2
					l-1.3,2.9l-3.4,7.6l-3.5-7.5c-0.4-0.8-1-2.1-1.3-2.9l-1.2,0.1c-0.1,1.1-0.4,3.7-0.6,5l-0.6,4.4C122.6,36.5,122.2,38.9,122,40z
					 M143.3,40h2.7c0.4-1,1-2.5,1.4-3.5v-0.1h5.7l1.6,3.7l2.8-0.2c-0.6-1.2-1.4-2.8-1.9-4.1l-4.7-10.3l-1.3,0.2
					c-0.4,1.1-0.9,2.3-1.7,4L143.3,40z M150.3,29.7l2.1,4.9h-4.1L150.3,29.7z M174.8,38.9v-1.7c0-1.3,0-4.1,0.1-4.9
					c-1.3,0.1-1.9,0.1-3.3,0.1c-0.9,0-1.5,0-2.7-0.1c0,0.6,0,1.3,0,2.1c1,0,1.6-0.1,2.4-0.1c0.6,0,0.5,0,1.1,0c0,0.3,0,0.9,0,1.2
					v2.1c-0.8,0.4-1.5,0.5-2.5,0.5c-2.7,0-5-1.9-5-5.2c0-3,2-5.2,5-5.2c1.4,0,3.1,0.5,4,1.3l0.7-2.2c-1.1-0.7-2.9-1.3-4.6-1.3
					c-4.4,0-7.7,3.3-7.7,7.6c0,4,3.1,7.1,7.3,7.1C172.1,40.3,173.6,39.6,174.8,38.9z M180.3,25.9c0.8,1.3,2.2,3.4,3.1,4.8l2.1,3.3
					v1.2c0,1.3,0,3.9-0.1,4.8h2.8c0-0.6-0.1-2.1-0.1-2.9v-3.2l5.3-8h-2.9c-0.7,1.2-1.7,3-2.5,4.2l-1.1,1.7l-3.7-6.1L180.3,25.9z
					 M196.2,40h2.7c0.4-1,1-2.5,1.4-3.5v-0.1h5.7l1.6,3.7l2.8-0.2c-0.6-1.2-1.4-2.8-1.9-4.1l-4.7-10.3l-1.3,0.2
					c-0.4,1.1-0.9,2.3-1.7,4L196.2,40z M203.2,29.7l2.1,4.9h-4.1L203.2,29.7z M227.5,39.9c-0.4-0.6-1.4-1.9-1.9-2.6l-2.2-3.1
					c1.8-0.9,2.8-2.2,2.9-4.1c0.1-2.3-2-4.2-5.7-4.2c-0.9,0-3.3,0.1-4,0.1c0.1,1,0.1,3.5,0.1,4.8v4.4c0,1.3,0,3.9-0.1,4.8h2.8
					c0-0.6-0.1-2.1-0.1-2.9v-2.4h1.9l3.4,5.4L227.5,39.9z M219.2,32.8V28c0.5,0,1-0.1,1.6-0.1c2,0,2.9,0.9,2.9,2.4
					c0,1.4-1,2.5-2.7,2.5H219.2z M133.5,52.8c-1.9,0.1-3.7,0.1-6,0.1c-2.2,0-4,0-5.8-0.1c0,0.8,0,1.6-0.1,2.3c1.5,0,2.9,0,4.6,0
					c0,1.1,0,2.4,0,3.2v3.9c0,1.3,0,3.9-0.1,4.8h2.8c-0.1-0.6-0.1-2.1-0.1-2.9v-7.8c0-0.3,0-0.9,0-1.3c1.7,0,3,0,4.5,0
					C133.3,54.2,133.4,53.5,133.5,52.8z M151.9,52.8c-0.7,0.1-2,0.1-2.8,0.1c0.1,1,0.2,3.5,0.2,4.8v4c0,2.1-1.2,3.4-3.3,3.4
					s-3.4-1-3.4-3.8v-5.6c0-0.8,0-2.4,0.1-3c-0.7,0.1-2,0.1-2.8,0.1c0.1,1,0.1,3.5,0.1,4.8v4.3c0,3.3,2.3,5.3,5.6,5.3
					c2,0,3.5-0.6,4.5-1.7c1.1-1,1.6-2.3,1.6-4.6v-5.3C151.8,55,151.8,53.4,151.9,52.8z M171.4,59.6c0-3.8-2.7-6.7-7.8-6.7
					c-2,0-3.4,0.1-4.1,0.1c0.1,1,0.1,3.5,0.1,4.8v4.4c0,1.3,0,3.9-0.1,4.8h4.5C168.5,67,171.4,64,171.4,59.6z M168.9,59.8
					c0,2.8-1.4,5.1-5.1,5.1c-0.7,0-1.1,0-1.6-0.1c0-0.4,0-0.7,0-1v-7.6c0-0.3,0-0.8,0-1.2c0.5,0,1-0.1,1.5-0.1
					C167,54.9,168.9,56.8,168.9,59.8z M184.6,65.3c-2.6,0-4.5-2-4.5-5.3c0-2.9,1.8-5.3,4.5-5.3c2.6,0,4.5,2,4.5,5.3
					C189.1,62.9,187.3,65.3,184.6,65.3z M184.4,67.4c4.3,0,7.3-3.4,7.3-7.7c0-3.8-2.8-7-6.9-7c-4.3,0-7.3,3.4-7.3,7.7
					C177.6,64.2,180.3,67.4,184.4,67.4z M197.8,67h2.6c0-0.6,0.2-2.1,0.3-2.9l0.7-5.7c1,2.1,3.6,8.1,3.9,8.8l1-0.1
					c0.3-0.8,3-6.7,3.9-8.8L211,64c0.1,0.8,0.3,2.5,0.3,3l2.6-0.2c-0.2-1-0.6-3.5-0.8-4.8l-0.6-4.5c-0.2-1.3-0.5-3.9-0.6-5.1h-1.2
					l-1.3,2.9l-3.4,7.6l-3.5-7.5c-0.4-0.8-1-2.1-1.3-2.9l-1.2,0.1c-0.1,1.1-0.4,3.7-0.6,5l-0.6,4.4C198.5,63.5,198.1,65.9,197.8,67z
					 M219.2,67h2.7c0.4-1,1-2.5,1.4-3.5v-0.1h5.7l1.6,3.7l2.8-0.2c-0.6-1.2-1.4-2.8-1.9-4.1l-4.7-10.3l-1.3,0.2
					c-0.4,1.1-0.9,2.3-1.7,4L219.2,67z M226.1,56.7l2.1,4.9h-4.1L226.1,56.7z M226.8,48.5l-1.8,3l1.7-0.1l3.3-3.1L226.8,48.5z
					 M239.3,67h2.7c-0.1-0.6-0.1-2.1-0.1-2.9v-6.6l8.4,9.8l1.2-0.2c-0.1-0.6-0.1-2.2,0-2.9l0.1-8.4c0-0.8,0.1-2.4,0.2-3
					c-0.7,0.1-2,0.1-2.8,0.1c0.1,1,0.2,3.5,0.2,4.8v4.8l-8.4-9.9l-1.2,0.2c0.1,1,0.1,3.4,0.1,4.7l-0.1,4.7
					C239.5,63.5,239.4,66,239.3,67z M257.7,52.9c0.8,1.3,2.2,3.4,3.1,4.8l2.1,3.3v1.2c0,1.3,0,3.9-0.1,4.8h2.8
					c0-0.6-0.1-2.1-0.1-2.9v-3.2l5.3-8h-2.9c-0.7,1.2-1.7,3-2.5,4.2l-1.1,1.7l-3.7-6.1L257.7,52.9z M282.2,65.3
					c-2.6,0-4.5-2-4.5-5.3c0-2.9,1.8-5.3,4.5-5.3c2.6,0,4.5,2,4.5,5.3C286.7,62.9,284.9,65.3,282.2,65.3z M282,67.4
					c4.3,0,7.3-3.4,7.3-7.7c0-3.8-2.8-7-6.9-7c-4.3,0-7.3,3.4-7.3,7.7C275.1,64.2,277.9,67.4,282,67.4z M304.3,63c0-4-6-4.1-6-6.5
					c0-1.1,0.8-1.8,2.1-1.8c0.9,0,2.1,0.4,2.9,1l0.6-2.1c-0.8-0.6-2.1-1-3.5-1c-2.7,0-4.6,1.7-4.6,4.2c0,3.8,6,4,6,6.5
					c0,1.3-0.9,2-2.2,2c-1.6,0-3.3-0.8-4.1-1.5l-0.1,2.5c1.1,0.7,2.8,1.2,4.2,1.2C302.4,67.4,304.3,65.5,304.3,63z M121.1,94h2.7
					c0.4-1,1-2.5,1.4-3.5v-0.1h5.7l1.6,3.7l2.8-0.2c-0.6-1.2-1.4-2.8-1.9-4.1l-4.7-10.3l-1.3,0.2c-0.4,1.1-0.9,2.3-1.7,4L121.1,94z
					 M128.1,83.7l2.1,4.9H126L128.1,83.7z M150,94.2l3.1-0.2c-1-1.1-2.4-2.7-3.4-3.8l-3.1-3.5l6.2-6.7h-3.1c-1,1.2-2.2,2.7-3.2,3.7
					l-2.4,2.7v-3.6c0-0.8,0-2.4,0.1-3c-0.7,0.1-2,0.1-2.8,0.1c0.1,1,0.1,3.5,0.1,4.8v4.4c0,1.3,0,3.9-0.1,4.8h2.8
					c-0.1-0.6-0.1-2.1-0.1-2.9v-3.8L150,94.2z M157.4,94h2.7c0.4-1,1-2.5,1.4-3.5v-0.1h5.7l1.6,3.7l2.8-0.2
					c-0.6-1.2-1.4-2.8-1.9-4.1L165,79.6l-1.3,0.2c-0.4,1.1-0.9,2.3-1.7,4L157.4,94z M164.3,83.7l2.1,4.9h-4.1L164.3,83.7z
					 M189.6,86.6c0-3.8-2.7-6.7-7.8-6.7c-2,0-3.4,0.1-4.1,0.1c0.1,1,0.1,3.5,0.1,4.8v4.4c0,1.3,0,3.9-0.1,4.8h4.5
					C186.6,94,189.6,91,189.6,86.6z M187,86.8c0,2.8-1.4,5.1-5.1,5.1c-0.7,0-1.1,0-1.6-0.1c0-0.4,0-0.7,0-1v-7.6c0-0.3,0-0.8,0-1.2
					c0.5,0,1-0.1,1.5-0.1C185.2,81.9,187,83.8,187,86.8z M201.5,75.7l-1.8,3l1.7-0.1l3.3-3.1L201.5,75.7z M205.3,91.9
					c-1.3,0-2.7,0.1-4.2,0.1c-0.6,0-1.2,0-1.8,0c0-0.3,0-0.9,0-1.1v-3.2h4.7c0-0.7,0-1.5,0.1-2h-4.7v-2.6c0-0.3,0-0.8,0-1.1
					c0.6,0,1.2,0,1.8,0c1.4,0,2.5,0,3.7,0c0-0.8,0.1-1.5,0.2-2.2c-1.3,0.1-2.7,0.1-4.1,0.1c-1.5,0-3,0-4.2-0.1
					c0.1,1,0.1,3.7,0.1,4.9v4.4c0,1.3,0,3.9-0.1,4.9c1.3-0.1,2.9-0.1,4.4-0.1s3,0,4.2,0.1C205.2,93.3,205.3,92.6,205.3,91.9z
					 M211.1,94h2.6c0-0.6,0.2-2.1,0.3-2.9l0.7-5.7c1,2.1,3.6,8.1,3.9,8.8l1-0.1c0.3-0.8,3-6.7,3.9-8.8l0.8,5.7
					c0.1,0.8,0.3,2.5,0.3,3l2.6-0.2c-0.2-1-0.6-3.5-0.8-4.8l-0.6-4.5c-0.2-1.3-0.5-3.9-0.6-5.1H224l-1.3,2.9l-3.4,7.6l-3.5-7.5
					c-0.4-0.8-1-2.1-1.3-2.9l-1.2,0.1c-0.1,1.1-0.4,3.7-0.6,5l-0.6,4.4C211.7,90.5,211.4,92.9,211.1,94z M237,94
					c-0.1-0.6-0.1-2.1-0.1-2.9v-8.3c0-0.8,0-2.4,0.1-3c-0.7,0.1-2,0.1-2.8,0.1c0.1,1,0.1,3.5,0.1,4.8v4.4c0,1.3,0,3.9-0.1,4.8
					L237,94L237,94z M243.2,94h2.7c0.4-1,1-2.5,1.4-3.5v-0.1h5.7l1.6,3.7l2.8-0.2c-0.6-1.2-1.4-2.8-1.9-4.1l-4.7-10.3l-1.3,0.2
					c-0.4,1.1-0.9,2.3-1.7,4L243.2,94z M250.2,83.7l2.1,4.9h-4.1L250.2,83.7z"/>
			</g>
		</g>
	</g>
</g>
<text transform="matrix(0.9873 0 0 1 0.9995 32.4136)" class="st3"><tspan x="0" y="0" class="st2 st4 st5">Italia </tspan><tspan x="0" y="34.6" class="st2 st4 st5">RaiNews </tspan><tspan x="0" y="69.2" class="st2 st4 st5"> </tspan></text>
<text transform="matrix(0.9873 0 0 1 1 44.0977)" class="st6"><tspan x="0" y="0" class="st7 st4 st8">Española</tspan><tspan x="0" y="30.4" class="st7 st4 st8"> </tspan></text>
<text transform="matrix(0.9873 0 0 1 1 67.8975)" class="st9 st4 st8">de Ciencias</text>
</svg>
