<svg width="19" height="19" fill="none" xmlns="http://www.w3.org/2000/svg"><g clip-path="url(#a)" fill="#fff"><path d="M18.081 4.438a1.935 1.935 0 0 0-1.42-.6h-2.84v-.033c0-.428-.171-.839-.462-1.113a1.566 1.566 0 0 0-1.112-.462H7.114a1.576 1.576 0 0 0-1.592 1.575v.034H2.7c-.564 0-1.06.222-1.42.599-.36.359-.599.872-.599 1.42v8.52c0 .565.223 1.062.599 1.42.36.36.873.6 1.42.6h13.962c.565 0 1.061-.223 1.42-.6.36-.358.6-.872.6-1.42v-8.52c0-.565-.223-1.061-.6-1.42Zm-.29 9.94h-.018c0 .309-.12.582-.325.788a1.098 1.098 0 0 1-.787.325H2.7c-.308 0-.582-.12-.787-.325a1.098 1.098 0 0 1-.325-.787V5.858c0-.308.12-.582.325-.787.205-.206.48-.325.787-.325h3.302a.46.46 0 0 0 .462-.462v-.496c0-.189.069-.36.189-.48s.29-.188.479-.188h5.116c.188 0 .359.069.479.188.12.12.188.291.188.48v.496a.46.46 0 0 0 .462.462h3.302c.308 0 .582.12.787.325.206.205.325.479.325.787v8.52Z"/><path d="M9.68 5.91c-1.163 0-2.224.478-2.977 1.231a4.217 4.217 0 0 0 0 5.954 4.217 4.217 0 0 0 5.954 0 4.216 4.216 0 0 0 0-5.954A4.217 4.217 0 0 0 9.68 5.91Zm2.327 6.552a3.343 3.343 0 0 1-2.327.959 3.344 3.344 0 0 1-2.327-.959 3.27 3.27 0 0 1-.958-2.327c0-.906.377-1.728.958-2.327A3.271 3.271 0 0 1 9.68 6.85c.907 0 1.729.377 2.327.958a3.27 3.27 0 0 1 .959 2.327 3.201 3.201 0 0 1-.959 2.327ZM15.771 7.568a.838.838 0 1 0 0-1.676.838.838 0 0 0 0 1.676Z"/></g><defs><clipPath id="a"><path fill="#fff" transform="translate(.68 .314)" d="M0 0h18v18H0z"/></clipPath></defs></svg>