<svg width="17" height="16" viewBox="0 0 17 16" fill="none" xmlns="http://www.w3.org/2000/svg">
<path d="M16.1909 2.09022C15.5959 2.39138 14.9619 2.59099 14.3009 2.68791C14.9809 2.21945 15.4999 1.4833 15.7439 0.595992C15.1099 1.03215 14.4099 1.34022 13.6639 1.51215C13.0619 0.77253 12.2039 0.314453 11.2679 0.314453C9.45192 0.314453 7.98992 2.01522 7.98992 4.10022C7.98992 4.40022 8.01192 4.68868 8.06592 4.9633C5.33892 4.80984 2.92592 3.30176 1.30492 1.00445C1.02192 1.57099 0.855918 2.21945 0.855918 2.91753C0.855918 4.2283 1.44092 5.39022 2.31292 6.06291C1.78592 6.05138 1.26892 5.87484 0.830918 5.59676C0.830918 5.6083 0.830918 5.6233 0.830918 5.6383C0.830918 7.47753 1.96792 9.00522 3.45892 9.35715C3.19192 9.44138 2.90092 9.48176 2.59892 9.48176C2.38892 9.48176 2.17692 9.46791 1.97792 9.41715C2.40292 10.916 3.60892 12.0179 5.04292 12.0537C3.92692 13.061 2.50992 13.6679 0.975918 13.6679C0.706918 13.6679 0.448918 13.6541 0.190918 13.616C1.64392 14.6971 3.36592 15.3145 5.22292 15.3145C11.2589 15.3145 14.5589 9.54522 14.5589 4.54445C14.5589 4.37715 14.5539 4.21561 14.5469 4.05522C15.1979 3.52215 15.7449 2.85638 16.1909 2.09022Z" fill="white"/>
</svg>
