<svg xmlns="http://www.w3.org/2000/svg" xmlns:xlink="http://www.w3.org/1999/xlink" width="60" height="60" viewBox="0 0 60 60">
  <defs>
    <clipPath id="clip-path">
      <rect id="Rectangle_457" data-name="Rectangle 457" width="37" height="39" transform="translate(1452 71)" fill="#fff"/>
    </clipPath>
  </defs>
  <g id="Group_67" data-name="Group 67" transform="translate(770 -718)">
    <rect id="Rectangle_455" data-name="Rectangle 455" width="60" height="60" transform="translate(-770 718)" fill="#4daa56"/>
    <rect id="Rectangle_456" data-name="Rectangle 456" width="60" height="60" transform="translate(-770 718)" fill="rgba(255,255,255,0.2)"/>
    <g id="Group_63" data-name="Group 63" transform="translate(-2210 658)" clip-path="url(#clip-path)">
      <path id="Path_202" data-name="Path 202" d="M1472.33,81.826a2.5,2.5,0,1,1,0-3.534A2.515,2.515,0,0,1,1472.33,81.826Z" fill="#fff"/>
      <path id="Path_203" data-name="Path 203" d="M1475.75,85.607a1.19,1.19,0,0,1-.84-.346,1.2,1.2,0,0,1,0-1.686,4.947,4.947,0,0,0,0-7.038,1.194,1.194,0,0,1,1.69-1.686,7.328,7.328,0,0,1,0,10.41A1.213,1.213,0,0,1,1475.75,85.607Z" fill="#fff"/>
      <path id="Path_204" data-name="Path 204" d="M1478.45,89.11a1.19,1.19,0,0,1-.84-.346,1.2,1.2,0,0,1,0-1.686,9.88,9.88,0,0,0,0-14.045,1.194,1.194,0,0,1,1.69-1.686,12.285,12.285,0,0,1,0,17.417A1.231,1.231,0,0,1,1478.45,89.11Z" fill="#fff"/>
      <path id="Path_205" data-name="Path 205" d="M1465.35,85.607a1.19,1.19,0,0,1-.84-.346,7.328,7.328,0,0,1,0-10.41,1.194,1.194,0,1,1,1.69,1.686,4.947,4.947,0,0,0,0,7.038,1.193,1.193,0,0,1,0,1.686A1.213,1.213,0,0,1,1465.35,85.607Z" fill="#fff"/>
      <path id="Path_206" data-name="Path 206" d="M1462.65,89.11a1.19,1.19,0,0,1-.84-.346,12.285,12.285,0,0,1,0-17.417,1.2,1.2,0,0,1,1.69,0,1.185,1.185,0,0,1,0,1.686,9.9,9.9,0,0,0,0,14.045,1.185,1.185,0,0,1,0,1.686A1.231,1.231,0,0,1,1462.65,89.11Z" fill="#fff"/>
      <path id="Path_207" data-name="Path 207" d="M1479.13,98.412a2.468,2.468,0,0,0-2.03.9,5.047,5.047,0,0,0,.01,5.212,2.71,2.71,0,0,0,4.05,0,4.988,4.988,0,0,0,.01-5.212A2.466,2.466,0,0,0,1479.13,98.412Z" fill="#fff"/>
      <path id="Path_208" data-name="Path 208" d="M1486.21,90.743h-31.42a2.781,2.781,0,0,0-2.79,2.78v13.691a2.782,2.782,0,0,0,2.79,2.779h31.42a2.778,2.778,0,0,0,2.78-2.779V93.53A2.774,2.774,0,0,0,1486.21,90.743Zm-5.97,3.288a.7.7,0,0,1,.66-.47.823.823,0,0,1,.56.216.679.679,0,0,1,.26.524.735.735,0,0,1-.25.508l-.93.963a.61.61,0,0,1-.41.192.476.476,0,0,1-.47-.485.738.738,0,0,1,.04-.246Zm-2.56,1.209.54-1.209a.685.685,0,0,1,.64-.47.848.848,0,0,1,.57.216.668.668,0,0,1,.25.524.749.749,0,0,1-.23.508l-.95.963a.573.573,0,0,1-.41.192.485.485,0,0,1-.33-.131.451.451,0,0,1-.14-.339A.739.739,0,0,1,1477.68,95.239Zm-16.13-.116,1.26-1.24a1,1,0,0,1,.72-.339.818.818,0,0,1,.8.8.712.712,0,0,1-.15.424,1.151,1.151,0,0,1-.44.346l-1.6.785a.556.556,0,0,1-.27.062.512.512,0,0,1-.36-.139.432.432,0,0,1-.15-.331A.622.622,0,0,1,1461.55,95.124Zm2.48,5.821c.72,0,1.08.3,1.08.893s-.37.878-1.08.878h-3.73V105.3h4.02c.73,0,1.08.3,1.08.893s-.36.878-1.08.878h-5.18a.968.968,0,0,1-1.06-1.063V97.85a.968.968,0,0,1,1.06-1.063h5.18c.73,0,1.08.293,1.08.878s-.36.893-1.08.893h-4.02v2.41h3.73Zm8.74,6.121h-4.95a1.063,1.063,0,0,1-.79-.277,1.042,1.042,0,0,1-.28-.785V97.826a1.079,1.079,0,0,1,.31-.816,1.136,1.136,0,0,1,1.97.816v7.384h3.75c.71,0,1.06.308,1.06.931S1473.49,107.066,1472.77,107.066Zm10.78-2.356a4.367,4.367,0,0,1-1.75,1.84,5.833,5.833,0,0,1-5.34,0,4.491,4.491,0,0,1-1.75-1.84,6.708,6.708,0,0,1,0-5.59,4.41,4.41,0,0,1,1.75-1.833,5.9,5.9,0,0,1,5.34,0,4.349,4.349,0,0,1,1.75,1.833,6.011,6.011,0,0,1,.62,2.795A6.137,6.137,0,0,1,1483.55,104.71Z" fill="#fff"/>
    </g>
  </g>
</svg>
