<svg xmlns="http://www.w3.org/2000/svg" width="15.888" height="16.219" viewBox="0 0 15.888 16.219">
  <g id="Group_66" data-name="Group 66" transform="translate(-31 86.827)">
    <path id="Path_219" data-name="Path 219" d="M42.131-85.364H35.424a3.333,3.333,0,0,0-2.378.854,3.332,3.332,0,0,0-.853,2.378v6.707a3.358,3.358,0,0,0,.914,2.439,3.438,3.438,0,0,0,2.378.854h6.646a3.329,3.329,0,0,0,2.378-.854,3.121,3.121,0,0,0,.915-2.378v-6.707a3.436,3.436,0,0,0-.854-2.378A3.262,3.262,0,0,0,42.131-85.364ZM38.778-74.632a4.151,4.151,0,0,1-4.147-4.146,4.151,4.151,0,0,1,4.147-4.146,4.2,4.2,0,0,1,4.207,4.146A4.164,4.164,0,0,1,38.778-74.632Zm4.329-7.5a.963.963,0,0,1-.976-.975.964.964,0,0,1,.976-.976.964.964,0,0,1,.976.976A.963.963,0,0,1,43.107-82.132Z" fill="none"/>
    <path id="Path_220" data-name="Path 220" d="M43.107-84.083a.964.964,0,0,0-.976.976.963.963,0,0,0,.976.975.963.963,0,0,0,.976-.975A.964.964,0,0,0,43.107-84.083Z" fill="#2843c9"/>
    <path id="Path_221" data-name="Path 221" d="M38.778-82.924a4.151,4.151,0,0,0-4.147,4.146,4.151,4.151,0,0,0,4.147,4.146,4.164,4.164,0,0,0,4.207-4.146A4.2,4.2,0,0,0,38.778-82.924Zm0,6.829A2.683,2.683,0,0,1,36.1-78.778a2.683,2.683,0,0,1,2.683-2.683,2.683,2.683,0,0,1,2.683,2.683A2.683,2.683,0,0,1,38.778-76.1Z" fill="#2843c9"/>
    <path id="Path_222" data-name="Path 222" d="M45.607-85.486a4.691,4.691,0,0,0-3.415-1.341H35.485A4.452,4.452,0,0,0,31-83.746v10.112a4.042,4.042,0,0,0,1.071,1.746,4.746,4.746,0,0,0,3.414,1.28h6.646a4.748,4.748,0,0,0,3.415-1.28,4.833,4.833,0,0,0,1.342-3.476v-6.707A4.648,4.648,0,0,0,45.607-85.486Zm-.183,10.122a3.121,3.121,0,0,1-.915,2.378,3.329,3.329,0,0,1-2.378.854H35.485a3.438,3.438,0,0,1-2.378-.854,3.358,3.358,0,0,1-.914-2.439v-6.707a3.332,3.332,0,0,1,.853-2.378,3.333,3.333,0,0,1,2.378-.854h6.707a3.262,3.262,0,0,1,2.439.915,3.436,3.436,0,0,1,.854,2.378Z" fill="#2843c9"/>
  </g>
</svg>
