<svg id="Layer_1" data-name="Layer 1" xmlns="http://www.w3.org/2000/svg" viewBox="0 0 457 457"><defs><style>.cls-1{fill:#2843c9;}.cls-2{fill:none;stroke:#fff;stroke-miterlimit:10;stroke-width:6px;}.cls-3{isolation:isolate;}.cls-4{fill:#fff;}</style></defs><title>logo</title><g id="Group_44" data-name="Group 44"><circle id="Ellipse_9-2" data-name="Ellipse 9-2" class="cls-1" cx="228.5" cy="228.5" r="228.5"/><path id="Path_90" data-name="Path 90" class="cls-2" d="M427.3,286.36a204.34,204.34,0,0,1-140.81,140C177.84,457.09,64.84,393.92,34.06,285.25S66.49,63.56,175.16,32.81,396.84,65.25,427.59,173.92"/><g id="HIRADO.HU"><g class="cls-3"><g class="cls-3"><path class="cls-4" d="M94.46,256.34V239.51H78.68v16.83H65.35v-44H78.68V227.9H94.46V212.32h13.33v44Z"/><path class="cls-4" d="M114.26,256.34v-44h13.33v44Z"/><path class="cls-4" d="M158.28,256.34l-6.07-13.86h-4.82v13.86H134.06v-44h23.49c10.3,0,15.84,6.87,15.84,15.11,0,7.59-4.42,11.62-7.92,13.34l8,15.57Zm1.58-29c0-2.38-2.11-3.43-4.35-3.43h-8.12v6.93h8.12C157.75,230.87,159.86,229.81,159.86,227.37Z"/><path class="cls-4" d="M207.51,256.34l-1.58-5.15H190.09l-1.58,5.15H173.4l16.23-44h16.76l16.24,44ZM198,225.39l-4.35,14.19h8.71Z"/><path class="cls-4" d="M224.35,256.34v-44H244c13.86,0,24.16,7.92,24.16,22s-10.3,22-24.09,22Zm30.29-22c0-5.94-3.43-10.36-10.56-10.36h-6.4v20.78H244A10.17,10.17,0,0,0,254.64,234.3Z"/></g><g class="cls-3"><path class="cls-4" d="M271.1,234.36c0-13.53,10.49-22.76,24.09-22.76s24.08,9.23,24.08,22.76-10.49,22.77-24.08,22.77S271.1,247.89,271.1,234.36Zm34.65,0c0-6.13-4.16-11-10.56-11s-10.56,4.89-10.56,11,4.15,11,10.56,11S305.75,240.5,305.75,234.36Z"/></g><g class="cls-3"><path class="cls-4" d="M319.86,250.07a7.07,7.07,0,1,1,7.06,7.06A7.16,7.16,0,0,1,319.86,250.07Z"/><path class="cls-4" d="M368.3,256.34V239.51H352.53v16.83H339.2v-44h13.33V227.9H368.3V212.32h13.33v44Z"/><path class="cls-4" d="M388.11,238.26V212.32h13.52V237.8c0,4.22,2.78,7.58,8.25,7.58s8.19-3.36,8.19-7.58V212.32H431.6v25.87c0,11-6.87,18.94-21.72,18.94S388.11,249.15,388.11,238.26Z"/></g></g></g></g></svg>