<svg width="26" height="26" viewBox="0 0 26 26" fill="none" xmlns="http://www.w3.org/2000/svg">
<path d="M25.9874 6.99778C25.872 9.42514 24.1056 12.7495 20.6865 16.9709C17.1521 21.3841 14.1604 23.5899 11.7132 23.5899C10.197 23.5899 8.91487 22.2468 7.86673 19.5605L5.76883 12.1754C4.98882 9.48754 4.15356 8.14594 3.26142 8.14594C3.06967 8.14594 2.38878 8.54062 1.22364 9.32218L0 7.80898C1.27266 6.73593 2.53696 5.65378 3.7928 4.56262C5.50558 3.14302 6.79097 2.39734 7.64898 2.3209C9.66888 2.12902 10.9153 3.45658 11.3833 6.30358C11.887 9.37366 12.238 11.28 12.433 12.0225C13.0181 14.5669 13.6616 15.8383 14.3603 15.8367C14.9031 15.8367 15.7188 15.0099 16.8109 13.361C17.9012 11.7105 18.4846 10.4547 18.561 9.59362C18.717 8.16934 18.1336 7.45642 16.8109 7.45642C16.1469 7.46576 15.4918 7.60427 14.8852 7.86358C16.1673 3.8497 18.6081 1.89658 22.2108 2.00422C24.8823 2.08222 26.1417 3.74674 25.9874 6.99622V6.99778Z" fill="#657685"/>
</svg>
