<svg xmlns="http://www.w3.org/2000/svg" width="18.001" height="13" viewBox="0 0 18.001 13">
  <path id="Path_211" data-name="Path 211" d="M1394,96h0a47.423,47.423,0,0,1-6.71-.415,2.793,2.793,0,0,1-1.96-1.954,21.059,21.059,0,0,1-.33-4.115,21.376,21.376,0,0,1,.33-4.143v0a2.849,2.849,0,0,1,1.96-1.968v0a49.7,49.7,0,0,1,6.7-.4h.01a47.257,47.257,0,0,1,6.71.415,2.787,2.787,0,0,1,1.96,1.954,19.966,19.966,0,0,1,.33,4.164,21,21,0,0,1-.33,4.108v0a2.787,2.787,0,0,1-1.96,1.954h-.01a49.6,49.6,0,0,1-6.7.4Zm-7.31-10.265a20.278,20.278,0,0,0-.28,3.774v.018a18.749,18.749,0,0,0,.28,3.738,1.386,1.386,0,0,0,.97.961,47.117,47.117,0,0,0,6.34.366,49.243,49.243,0,0,0,6.35-.352,1.356,1.356,0,0,0,.96-.961,18.878,18.878,0,0,0,.28-3.738v-.021a17.761,17.761,0,0,0-.28-3.781v0a1.385,1.385,0,0,0-.97-.965A47.049,47.049,0,0,0,1394,84.4a49.1,49.1,0,0,0-6.34.352A1.41,1.41,0,0,0,1386.69,85.735Zm5.52,6.611V86.654l4.92,2.844Z" transform="translate(-1385 -83)" fill="#2843c9"/>
</svg>
