<?xml version="1.0" encoding="utf-8"?>
<!-- Generator: Adobe Illustrator 21.1.0, SVG Export Plug-In . SVG Version: 6.00 Build 0)  -->
<svg version="1.1" id="Capa_2_1_" xmlns="http://www.w3.org/2000/svg" xmlns:xlink="http://www.w3.org/1999/xlink" x="0px" y="0px"
	 viewBox="0 0 851.9 332.8" style="enable-background:new 0 0 851.9 332.8;" xml:space="preserve">
<style type="text/css">
	.st0{fill:#42A0B8;}
	.st1{fill:#FFFFFF;}
</style>
<g id="_x31_Tinta">
	<path class="st0" d="M510,167.1c0-49.8,21-94.9,55-127.5v-1H1.3v255.3h563C530.7,261.4,510,216.6,510,167.1z"/>
	<circle class="st0" cx="690.8" cy="166.3" r="161.4"/>
	<polygon id="cruz_1_" class="st1" points="791.9,148.6 708.6,148.6 708.6,65.2 673,65.2 673,148.6 589.6,148.6 589.6,184.2 
		673,184.2 673,267.6 708.6,267.6 708.6,184.2 791.9,184.2 	"/>
</g>
<path id="LNE_1_" class="st1" d="M74.5,66.1h66.1l-1.7,8.7c0,0-4.5,0.8-7,1.4c-2.9,0.8-5.4,1.7-7.6,3.1c-3.1,2.1-5.4,4.8-6.6,8.5
	L86.4,236.1c0,0-1.7,6.2-1.4,9.3c0,6.6,4.8,10.8,10.2,12.2c2.5,0.6,7.4,0.4,7.4,0.4c19.5,0,42.7-29.3,55.1-67.7h6.8l-15.5,77.5H32.6
	l1.7-9.7c4.1-0.2,12-2.3,17.2-7.5c5.4-5.4,7.6-19.3,7.6-19.3L87.9,90.8c0.8-3.7,1.7-6.4,0.4-9.5c-1-2.5-2.7-3.9-5.2-5.2
	c-3.3-1.7-10.6-1.4-10.6-1.7L74.5,66.1 M388.2,257.4c-5.6-1.5-10.2-5.6-10.2-12.2c-0.4-3.1,1.4-9.3,1.4-9.3l13.7-65.5
	c1.2,0,7.4,0,9.3,1.2c1.7,0.6,2.9,1.9,4.3,3.1c1.4,1,2.5,2.9,3.3,4.5c1,2.1,1.7,4.1,2.1,6.4c0.8,3.9,0.8,6.8,0.8,10.8
	c0,6.4-0.4,10.7-1.2,16.8h6.2l19.3-95.4h-6.6c-0.6,3.5-1.4,5.8-2.3,9.3c-1.5,5-2.7,8.3-5.6,13.2c-2.3,3.7-4.1,6.8-7.9,9.9
	c-2.7,2.5-5,4.3-8.5,5.6c-3.9,1-7,1.4-10.6,0.6l14.7-68.9c1-5.2,4.1-8.5,8.7-11c4.1-2.1,11.6-1.7,12.7-1.9
	c19.5,0,30.9,28.3,27.8,66.8h7.9l15.1-75.9H367.3l-2.1,8.3c0,0.4,7.2,0,10.6,1.7c2.5,1.4,4.3,2.7,5.2,5.2c1.4,3.1,0.4,5.8-0.4,9.5
	l-28.8,141c0,0-2.1,13.9-7.7,19.4c-5,5.2-12.9,7.4-17.2,7.6l-1.5,9.7h116.6l15.5-77.8h-7c-12.4,38.5-35.4,67.9-54.9,67.9
	C395.5,257.8,390.7,258,388.2,257.4 M292,65.3l-1.4,9.3c1.5,0,3.7,1,5,1.4c3.9,1.7,6.2,4.4,7.4,8.3c0.6,2.7,0.6,5.8,0,8.5
	l-21.5,103.9l-34-131.4h-40.6l-1.7,8.3c0,0.4,7.2,0.4,10.2,1.7c2.1,1,4.3,2.7,5.2,4.8c1.4,3.1,0.8,5.8-0.4,9.8l-28.4,141.6
	c0,0-2.7,13.7-8.3,19.3c-5.2,5.2-12.9,7.1-17.2,7.5l-1.7,9.3h51.2l1.5-9.3c-1.7,0-3.9-1-5.2-1.4c-3.9-1.7-6.2-4.4-7.1-8.3
	c-0.8-2.7-0.8-5.8,0-8.5L230.7,117l40.6,150.6h11l33.6-166.2c0,0,2.7-13.7,8.3-19.3c5.2-5,13.1-7.1,17.2-7.5l1.7-9.3L292,65.3"/>
</svg>

