<?xml version="1.0" encoding="utf-8"?>
<!-- Generator: Adobe Illustrator 16.0.0, SVG Export Plug-In . SVG Version: 6.00 Build 0)  -->
<!DOCTYPE svg PUBLIC "-//W3C//DTD SVG 1.1//EN" "http://www.w3.org/Graphics/SVG/1.1/DTD/svg11.dtd">
<svg version="1.1" id="Layer_1" xmlns="http://www.w3.org/2000/svg" xmlns:xlink="http://www.w3.org/1999/xlink" x="0px" y="0px"
	 width="48px" height="48px" viewBox="0 0 48 48" enable-background="new 0 0 48 48" xml:space="preserve">
<circle fill-rule="evenodd" clip-rule="evenodd" fill="#323236" cx="24" cy="24" r="24"/>
<path fill="#B1B1B5" d="M10.155,30.377v-2.26h3.509v-8.734h-0.168l-2.649,3.473l-1.792-1.402l3.117-4.105h4.292v10.77h2.763v2.26
	H10.155z M25.274,30.602c-0.771,0-1.462-0.121-2.071-0.365c-0.609-0.242-1.124-0.59-1.54-1.045
	c-0.417-0.453-0.734-0.998-0.952-1.633c-0.219-0.635-0.327-1.344-0.327-2.129c0-0.908,0.14-1.77,0.421-2.586
	c0.278-0.812,0.641-1.566,1.082-2.258s0.938-1.309,1.493-1.857c0.554-0.547,1.111-1.008,1.671-1.381h3.863
	c-0.796,0.572-1.511,1.117-2.146,1.633c-0.636,0.518-1.186,1.037-1.651,1.559c-0.468,0.523-0.854,1.055-1.159,1.598
	c-0.305,0.539-0.518,1.121-0.643,1.744l0.168,0.057c0.111-0.25,0.246-0.492,0.4-0.729c0.155-0.236,0.348-0.445,0.58-0.625
	c0.229-0.182,0.5-0.326,0.811-0.439c0.312-0.111,0.672-0.168,1.082-0.168c0.537,0,1.037,0.098,1.503,0.289
	c0.468,0.193,0.872,0.465,1.214,0.812c0.344,0.348,0.609,0.775,0.803,1.279s0.289,1.061,0.289,1.67c0,0.672-0.115,1.289-0.345,1.848
	c-0.23,0.561-0.56,1.043-0.989,1.447s-0.943,0.719-1.539,0.943C26.692,30.488,26.021,30.602,25.274,30.602z M25.274,28.418
	c0.623,0,1.108-0.172,1.457-0.516c0.348-0.34,0.522-0.828,0.522-1.465v-0.336c0-0.633-0.175-1.121-0.522-1.465
	c-0.349-0.342-0.834-0.514-1.457-0.514c-0.622,0-1.107,0.172-1.455,0.514c-0.348,0.344-0.522,0.832-0.522,1.465v0.336
	c0,0.637,0.175,1.125,0.522,1.465C24.167,28.246,24.652,28.418,25.274,28.418z M35.206,29.201v-3.436h-3.155v-2.184h3.155v-3.434
	h2.389v3.434h3.155v2.184h-3.155v3.436H35.206z"/>
</svg>
