<svg width="50" height="50" viewBox="0 0 50 50" fill="none" xmlns="http://www.w3.org/2000/svg">
<rect width="50" height="50" fill="#56626B"/>
<g clip-path="url(#clip0_510_9)">
<path d="M25.5078 16.0156C20.5391 16.0156 16.5312 20.0234 16.5312 24.9922C16.5312 29.9609 20.5391 33.9687 25.5078 33.9687C30.4766 33.9687 34.4844 29.9609 34.4844 24.9922C34.4844 20.0234 30.4766 16.0156 25.5078 16.0156ZM25.5078 30.8281C22.2969 30.8281 19.6719 28.2109 19.6719 24.9922C19.6719 21.7734 22.2891 19.1562 25.5078 19.1562C28.7266 19.1562 31.3438 21.7734 31.3438 24.9922C31.3438 28.2109 28.7188 30.8281 25.5078 30.8281V30.8281ZM36.9453 15.6484C36.9453 16.8125 36.0078 17.7422 34.8516 17.7422C33.6875 17.7422 32.7578 16.8047 32.7578 15.6484C32.7578 14.4922 33.6953 13.5547 34.8516 13.5547C36.0078 13.5547 36.9453 14.4922 36.9453 15.6484ZM42.8906 17.7734C42.7578 14.9688 42.1172 12.4844 40.0625 10.4375C38.0156 8.39062 35.5313 7.75 32.7266 7.60937C29.8359 7.44531 21.1719 7.44531 18.2813 7.60937C15.4844 7.74219 13 8.38281 10.9453 10.4297C8.89063 12.4766 8.25781 14.9609 8.11719 17.7656C7.95313 20.6562 7.95313 29.3203 8.11719 32.2109C8.25 35.0156 8.89063 37.5 10.9453 39.5469C13 41.5938 15.4766 42.2344 18.2813 42.375C21.1719 42.5391 29.8359 42.5391 32.7266 42.375C35.5313 42.2422 38.0156 41.6016 40.0625 39.5469C42.1094 37.5 42.75 35.0156 42.8906 32.2109C43.0547 29.3203 43.0547 20.6641 42.8906 17.7734V17.7734ZM39.1562 35.3125C38.5469 36.8437 37.3672 38.0234 35.8281 38.6406C33.5234 39.5547 28.0547 39.3437 25.5078 39.3437C22.9609 39.3437 17.4844 39.5469 15.1875 38.6406C13.6562 38.0312 12.4766 36.8516 11.8594 35.3125C10.9453 33.0078 11.1563 27.5391 11.1563 24.9922C11.1563 22.4453 10.9531 16.9687 11.8594 14.6719C12.4688 13.1406 13.6484 11.9609 15.1875 11.3437C17.4922 10.4297 22.9609 10.6406 25.5078 10.6406C28.0547 10.6406 33.5313 10.4375 35.8281 11.3437C37.3594 11.9531 38.5391 13.1328 39.1562 14.6719C40.0703 16.9766 39.8594 22.4453 39.8594 24.9922C39.8594 27.5391 40.0703 33.0156 39.1562 35.3125Z" fill="white"/>
</g>
<defs>
<clipPath id="clip0_510_9">
<rect width="35" height="40" fill="white" transform="translate(8 5)"/>
</clipPath>
</defs>
</svg>
