<svg width="44" height="44" viewBox="0 0 44 44" fill="none" xmlns="http://www.w3.org/2000/svg">
<path d="M42.9946 38.1264L32.7078 27.8408C35.0471 24.3684 36.2012 20.0299 35.5833 15.4069C34.5297 7.54362 28.0844 1.14454 20.2125 0.148025C8.5086 -1.33278 -1.33299 8.50773 0.148057 20.2103C1.14494 28.0848 7.54559 34.5346 15.4106 35.5829C20.0341 36.2006 24.3739 35.047 27.8458 32.7077L38.1326 42.9934C39.4749 44.3356 41.6517 44.3356 42.9941 42.9934C44.3352 41.6494 44.3352 39.4669 42.9946 38.1264ZM6.79758 17.8731C6.79758 11.8082 11.7321 6.87424 17.7976 6.87424C23.8631 6.87424 28.7977 11.8082 28.7977 17.8731C28.7977 23.9379 23.8631 28.8719 17.7976 28.8719C11.7321 28.8719 6.79758 23.9396 6.79758 17.8731Z" fill="black"/>
</svg>
