<svg width="50" height="50" viewBox="0 0 50 50" fill="none" xmlns="http://www.w3.org/2000/svg">
<rect width="50" height="50" fill="#56626B"/>
<path d="M39.4022 17.5844C39.4245 17.8953 39.4245 18.2062 39.4245 18.5171C39.4245 27.9999 32.2069 38.9264 19.0152 38.9264C14.9511 38.9264 11.1758 37.7493 8 35.7062C8.57743 35.7728 9.13258 35.795 9.73223 35.795C13.0856 35.795 16.1726 34.6624 18.6377 32.7303C15.4841 32.6637 12.8413 30.5983 11.9308 27.7557C12.375 27.8223 12.8191 27.8667 13.2855 27.8667C13.9296 27.8667 14.5736 27.7778 15.1732 27.6225C11.8864 26.9562 9.42126 24.0691 9.42126 20.5825V20.4937C10.3762 21.0267 11.4867 21.3598 12.6636 21.4041C10.7315 20.116 9.46569 17.9175 9.46569 15.4301C9.46569 14.0977 9.82096 12.8762 10.4428 11.8102C13.9739 16.163 19.2817 19.0056 25.2334 19.3166C25.1224 18.7836 25.0557 18.2284 25.0557 17.6732C25.0557 13.7201 28.2537 10.5 32.229 10.5C34.2943 10.5 36.1598 11.3661 37.4701 12.7652C39.0912 12.4543 40.6458 11.8547 42.0227 11.033C41.4897 12.6986 40.3571 14.0978 38.8692 14.986C40.3127 14.8306 41.7118 14.4308 42.9999 13.8757C42.0229 15.2969 40.8014 16.5627 39.4022 17.5844V17.5844Z" fill="white"/>
</svg>
