<svg width="50" height="50" viewBox="0 0 50 50" fill="none" xmlns="http://www.w3.org/2000/svg">
<rect width="50" height="50" fill="#56626B"/>
<path d="M41.3992 16.5398C41.0175 15.1027 39.893 13.9709 38.4653 13.5868C35.8773 12.8889 25.5 12.8889 25.5 12.8889C25.5 12.8889 15.1227 12.8889 12.5347 13.5868C11.107 13.971 9.98248 15.1027 9.60082 16.5398C8.90739 19.1446 8.90739 24.5792 8.90739 24.5792C8.90739 24.5792 8.90739 30.0138 9.60082 32.6185C9.98248 34.0556 11.107 35.1402 12.5347 35.5243C15.1227 36.2222 25.5 36.2222 25.5 36.2222C25.5 36.2222 35.8773 36.2222 38.4653 35.5243C39.893 35.1402 41.0175 34.0556 41.3992 32.6185C42.0926 30.0138 42.0926 24.5792 42.0926 24.5792C42.0926 24.5792 42.0926 19.1446 41.3992 16.5398V16.5398ZM22.106 29.5134V19.6449L30.7794 24.5793L22.106 29.5134V29.5134Z" fill="white"/>
</svg>
