<svg xmlns="http://www.w3.org/2000/svg" width="81.333" height="79.674" viewBox="0 0 81.333 79.674">
  <g id="Group_68" data-name="Group 68" transform="translate(-349.333 -4884)">
    <g id="Group_67" data-name="Group 67" transform="translate(111.333 -3)">
      <g id="Group_66" data-name="Group 66" transform="translate(238 4887)">
        <path id="Path_71" data-name="Path 71" d="M254.6,381.54a1.758,1.758,0,0,0,1.7-1.654,1.8,1.8,0,0,0-1.546-1.984h0c-.147-.015-14.731-1.575-20.966-10.471a1.646,1.646,0,0,0-2.4-.371,1.9,1.9,0,0,0-.349,2.551c7.152,10.2,22.734,11.856,23.394,11.921C254.489,381.537,254.542,381.54,254.6,381.54Z" transform="translate(-191.769 -306.602)" fill="#FF0000"/>
        <g id="Group_59" data-name="Group 59" transform="translate(17.1 0)">
          <path id="Path_72" data-name="Path 72" d="M163,172.066a33.552,33.552,0,0,1,1.274,3.268c2.124,6.613,1.58,13.424-3.22,18.817l30.519,1.3c.611-4.06,3.892-5.075,7.34-5.075a34.15,34.15,0,0,1,5.845.657,7.427,7.427,0,0,0,1.3.12c3.518,0,5.192-2.891,4.317-6.617-.163-.691-.589-2.237.039-2.838s1.393.049,1.636-1.1a10.366,10.366,0,0,0,.039-2.3h-.005a5.153,5.153,0,0,0,1.979-1.165c.259-.46-.269-1.168-.395-1.6a15.56,15.56,0,0,1-.606-2.7c-.244-2.338,3.417-.52,4.638-2.6s-2.2-7.016-4.394-10.133,0-9.355-.243-13.773-1.71-15.591-14.65-21.307a24.21,24.21,0,0,0-9.846-1.965c-9.716,0-18.231,4.824-18.231,4.824A27.7,27.7,0,0,0,160.02,139.1a14.952,14.952,0,0,0-2.868-2,32.711,32.711,0,0,1,3.566-5.428,29.611,29.611,0,0,1,8.028-7.02c.641-.36,9.532-5.237,19.816-5.237a27.433,27.433,0,0,1,11.16,2.244,27.026,27.026,0,0,1,13.8,12.8,29.751,29.751,0,0,1,2.955,11.654A33.723,33.723,0,0,1,216.1,152c-.236,1.909-.63,5.1-.053,5.925,3.717,5.274,6.862,10.332,4.558,14.253a5.548,5.548,0,0,1-3.5,2.593,4.746,4.746,0,0,1-.107,4.238,5.01,5.01,0,0,1-1.506,1.587,5.993,5.993,0,0,1-.1.789l0,.015a4.661,4.661,0,0,1-1.592,2.723,9.536,9.536,0,0,1-1.4,7.6,7.632,7.632,0,0,1-6.343,3.074,10.694,10.694,0,0,1-1.861-.17,31.719,31.719,0,0,0-5.282-.608,6.323,6.323,0,0,0-3.11.579,1.658,1.658,0,0,0-.848,1.427,3.5,3.5,0,0,1-3.381,3.069l-.139,0-15.259-.649L165.685,198l-3.457-.147-.969-.041L161,197.8a3.467,3.467,0,0,1-3.1-2.214,3.824,3.824,0,0,1,.663-3.94c4.449-5,3.8-10.988,2.465-15.131-.2-.633-.457-1.3-.741-1.98A14.3,14.3,0,0,0,163,172.066Z" transform="translate(-157.152 -119.421)" fill="#FF0000"/>
        </g>
        <g id="Group_61" data-name="Group 61" transform="translate(16.658 29.382)">
          <g id="Group_60" data-name="Group 60" transform="translate(0)">
            <path id="Path_73" data-name="Path 73" d="M412.831,248.864a10.757,10.757,0,0,0,3.862,8.123,1.422,1.422,0,0,0,.947.355,1.452,1.452,0,0,0,1.146-.585,1.655,1.655,0,0,0-.214-2.229,7.567,7.567,0,0,1-2.764-5.684v0a7.576,7.576,0,0,1,2.694-5.722,1.656,1.656,0,0,0,.187-2.232,1.426,1.426,0,0,0-2.095-.2,10.771,10.771,0,0,0-3.763,8.175Z" transform="translate(-412.831 -240.319)" fill="#FF0000"/>
          </g>
        </g>
        <g id="Group_63" data-name="Group 63" transform="translate(8.421 24.312)">
          <g id="Group_62" data-name="Group 62">
            <path id="Path_74" data-name="Path 74" d="M438.2,233.127a17.518,17.518,0,0,0,6.3,13.216,1.43,1.43,0,0,0,.949.355,1.454,1.454,0,0,0,1.146-.585,1.653,1.653,0,0,0-.216-2.227,14.335,14.335,0,0,1-5.206-10.779v0a14.356,14.356,0,0,1,5.075-10.85,1.653,1.653,0,0,0,.189-2.23,1.427,1.427,0,0,0-2.1-.2,17.542,17.542,0,0,0-6.144,13.3Z" transform="translate(-438.199 -219.455)" fill="#FF0000"/>
          </g>
        </g>
        <g id="Group_65" data-name="Group 65" transform="translate(0 19.129)">
          <g id="Group_64" data-name="Group 64">
            <path id="Path_75" data-name="Path 75" d="M464.133,217.04v0a24.422,24.422,0,0,0,8.8,18.422,1.432,1.432,0,0,0,.949.357,1.455,1.455,0,0,0,1.146-.584,1.655,1.655,0,0,0-.216-2.229,21.238,21.238,0,0,1-7.7-15.986v0a21.271,21.271,0,0,1,7.51-16.09,1.656,1.656,0,0,0,.189-2.232,1.429,1.429,0,0,0-2.1-.2A24.464,24.464,0,0,0,464.133,217.04Z" transform="translate(-464.133 -198.13)" fill="#FF0000"/>
          </g>
        </g>
        <ellipse id="Ellipse_13" data-name="Ellipse 13" cx="4.874" cy="5.187" rx="4.874" ry="5.187" transform="translate(25.249 32.788)" fill="#FF0000"/>
      </g>
    </g>
  </g>
</svg>
