<svg xmlns="http://www.w3.org/2000/svg" width="70.667" height="82.585" viewBox="0 0 70.667 82.585">
  <g id="Group_39" data-name="Group 39" transform="translate(-636 -3728)">
    <g id="Group_38" data-name="Group 38" transform="translate(636 3728)">
      <path id="Path_49" data-name="Path 49" d="M214.34,244.739V266.82a1.828,1.828,0,0,0,1.8,1.822h8.812l3.616,8.148,0,0a1.776,1.776,0,0,0,2.029.831l15.155-6.092q-.01,3.245-.019,6.489a1.81,1.81,0,0,0,3.619.026q.009-3.113.018-6.227,0-.873.005-1.745,0-.718,0-1.436,0-.09,0-.179a5.45,5.45,0,0,0-.059-1.381,1.586,1.586,0,0,0-.092-.249,1.911,1.911,0,0,0-.292-.45c-.179-.211-.391-.4-.593-.605-.226-.234-.445-.489-.658-.754a12.827,12.827,0,0,1-.772-1.07h0a14.5,14.5,0,0,1-1.328-2.588c-.088-.225-.168-.451-.245-.679a14.446,14.446,0,0,1-.25-8.645,15.667,15.667,0,0,1,.637-1.779q.082-.194.169-.386c.218-.486.456-.965.706-1.436.351-.659.953-1.378.806-2.17a1.334,1.334,0,0,0-.051-.2l-2.663-7.68-.228-.658h0l-1.175-3.387-1.447-4.172-.739-2.131-.314-.9c-.025-.073-.045-.146-.063-.22-.008-.035-.019-.1-.027-.146-.013-.143-.023-.287-.032-.431a11.2,11.2,0,0,1,.674-4.7c.076-.193.158-.384.248-.57a3.124,3.124,0,0,1,.252-.392,7.457,7.457,0,0,1,2.1-2.034c.435-.216.814-.2,1.009.267l.506,1.214.378.907,3.483,8.363.759,1.821,1.051,2.523,1.809,4.344,2.78,6.675a2.127,2.127,0,0,0,1.238,1.265,1.691,1.691,0,0,0,.978.014,1.809,1.809,0,0,0,1.279-2.216l-6.275-15.066v-4.721l12.4,5.1c-.066-.019-.067,0,.222.164a9.343,9.343,0,0,1,1.376.848.756.756,0,0,1,.369.632V278c0,2.336,3.619,2.357,3.619.026V230.655c0-2.5-2.423-4.1-4.5-4.958l-13.489-5.544V199.024a1.7,1.7,0,0,0-.449-1.205,1.645,1.645,0,0,0-1.347-.617H216.163a1.827,1.827,0,0,0-1.822,1.8v6.7l-12.772,5.134a1.856,1.856,0,0,0-1.092,2.663Zm16.728,28.826-2.185-4.923h14.432Zm10.772-62.01V215.7a8.6,8.6,0,0,0-2.282,1.926,9.5,9.5,0,0,0-.853,1.177,11.169,11.169,0,0,0-1.267,3.1,14.444,14.444,0,0,0-.227,5.855c.033.192.075.385.123.578a6.49,6.49,0,0,0-1.292-.659,6.808,6.808,0,0,0-2.4-.434c-3.459,0-6.274,2.548-6.274,5.679a5.166,5.166,0,0,0,.112,1.065,5.589,5.589,0,0,0,2.072,3.236,6.639,6.639,0,0,0,4.089,1.378c.19,0,.378-.009.564-.024a6.56,6.56,0,0,0,3.787-1.569,5.731,5.731,0,0,0,1.391-1.8h0a5.363,5.363,0,0,0,.211-.5l.516,1.488h0l1.029,2.966h0l2.485,7.165a19.14,19.14,0,0,0-2.615,8.511,6.04,6.04,0,0,0-3.64,3.7H229.91a5.945,5.945,0,0,0-3.01-3.422,6.744,6.744,0,0,0-1.462-.54v-2.754h0v-8.919h0V211.492a6.679,6.679,0,0,0,2.082-.9,5.843,5.843,0,0,0,2.391-3.063h7.458a5.976,5.976,0,0,0,3.2,3.516,6.748,6.748,0,0,0,1.269.446Zm-5.545,21.367a1.6,1.6,0,0,1-.154.673,2.736,2.736,0,0,1-2.5,1.388c-1.439,0-2.656-.944-2.656-2.061a1.616,1.616,0,0,1,.192-.751,2.772,2.772,0,0,1,2.463-1.31C235.079,230.861,236.295,231.8,236.295,232.922Zm-18.336,19.971V200.821h31.36v17.951a1.508,1.508,0,0,0-.5.087l-.192-.461c-.645-1.549-1.453-2.852-3.165-3.287v-7H243.5v-.038a2.877,2.877,0,0,1-2.574-1.387v-2.774H226.355v2.774a2.877,2.877,0,0,1-2.574,1.387v.038h-1.962v32.522h0v17.328h1.962V258a3.393,3.393,0,0,1,.389.025,2.788,2.788,0,0,1,2.185,1.361v2.774h14.568v-2.774a2.06,2.06,0,0,1,.288-.427c.076.474.163.947.275,1.42.13.546.292,1.1.482,1.661h0a18.59,18.59,0,0,0,1.319,2.983H217.959Zm-3.619-43.32v26.3l-9.906-22.319Z" transform="translate(-200.262 -197.202)" fill="#FF0000"/>
      <path id="Path_50" data-name="Path 50" d="M322.559,268.841h0a2.877,2.877,0,0,0-1.127-.23,2.811,2.811,0,0,0-2.369,1.269h0a2.541,2.541,0,0,0-.413,1.383,2.688,2.688,0,0,0,2.174,2.587h0a2.88,2.88,0,0,0,.608.066,2.781,2.781,0,0,0,2.608-1.738h0a2.52,2.52,0,0,0,.174-.914A2.653,2.653,0,0,0,322.559,268.841Zm-1.128,3.388a.976.976,0,1,1,.836-.966A.92.92,0,0,1,321.431,272.229Z" transform="translate(-288.054 -250.156)" fill="#FF0000"/>
      <path id="Path_51" data-name="Path 51" d="M321.431,387.006a2.655,2.655,0,1,0-2.782-2.653A2.723,2.723,0,0,0,321.431,387.006Zm0-3.618a.976.976,0,1,1-.836.966A.92.92,0,0,1,321.431,383.388Z" transform="translate(-288.054 -334.02)" fill="#FF0000"/>
    </g>
  </g>
</svg>
