<?xml version="1.0" encoding="utf-8"?>
<!-- Generator: Adobe Illustrator 23.0.3, SVG Export Plug-In . SVG Version: 6.00 Build 0)  -->
<svg version="1.1" id="Слой_1" xmlns="http://www.w3.org/2000/svg" xmlns:xlink="http://www.w3.org/1999/xlink" x="0px" y="0px"
	 viewBox="0 0 206.1 40.6" style="enable-background:new 0 0 206.1 40.6;" xml:space="preserve">
<style type="text/css">
	.st0{fill:#FFFFFF;}
</style>
<g>
	<path class="st0" d="M27,29.9c0-3.3-2-4.8-6.4-6.5l-1.9-0.8c-5.2-2-8.7-5-8.7-10.1c0-5.8,4.9-9.4,11.3-9.4c3.4,0,6.1,1.1,8.3,2.7
		l-0.3,6.6h-3l-1.4-7.6L28,6.5V9c-2.5-2.4-4.4-3.3-7-3.3c-3.9,0-6.9,2-6.9,5.8c0,3.2,2.1,5.1,5.8,6.5l2,0.8
		c6.7,2.6,9.3,5.5,9.3,10.3c0,6-5,9.6-11.9,9.6c-3.8,0-7.5-1.2-9.8-2.7l0.3-7.1h3l1.3,7.8l-3.3-1.4v-2.4c3.1,2.3,4.9,3.3,8.3,3.3
		C23.8,36.1,27,33.8,27,29.9z"/>
	<path class="st0" d="M35.8,6.5l2.3-2.5l-1.6,9h-2.8l0.4-9h27.6l0.4,9h-2.8l-1.6-9l2.3,2.5H35.8z M48.3,35l7.1,0.8v2H40.2v-2
		l7.1-0.8H48.3z M45.6,19.6c0-5.2,0-10.5-0.2-15.7h4.9c-0.2,5.1-0.2,10.4-0.2,15.7v2.5c0,5.2,0,10.5,0.2,15.7h-4.9
		c0.2-5.1,0.2-10.4,0.2-15.7V19.6z"/>
	<path class="st0" d="M65.3,5.9v-2h14.2v2l-6.6,0.8h-1L65.3,5.9z M72.9,35l6.6,0.8v2H65.3v-2l6.6-0.8H72.9z M70.2,19.6
		c0-5.2,0-10.5-0.2-15.7h4.9c-0.2,5.1-0.2,10.4-0.2,15.7v2.5c0,5.2,0,10.5,0.2,15.7H70c0.2-5.1,0.2-10.4,0.2-15.7V19.6z"/>
	<path class="st0" d="M84.1,5.9v-2h7.1v2.8h-0.5L84.1,5.9z M91.7,35l6.6,0.8v2H84.1v-2l6.6-0.8H91.7z M88.9,19.6
		c0-5.2,0-10.5-0.2-15.7h4.9c-0.2,5.3-0.2,10.2-0.2,16.2v1.5c0,5.7,0,11,0.2,16.2h-4.9c0.2-5.1,0.2-10.4,0.2-15.7V19.6z M91.2,19.9
		h6.3c5.5,0,8.1-2.9,8.1-7c0-4.3-2.3-6.6-7.5-6.6h-6.9V3.9h6.9c7.7,0,12.3,3.3,12.3,8.9c0,4.3-3.4,8.2-10,8.8l0.2-0.4
		c3.6,0.4,5.9,2,7.2,6.6l2.5,8.4l-1.6-1l5.2,0.6v2c-0.9,0.3-2.1,0.5-3.6,0.5c-3.1,0-4.5-0.8-5.1-3.1l-2.1-8.3
		c-1-4.1-2.9-4.8-7.1-4.8h-4.8V19.9z"/>
	<path class="st0" d="M116.9,5.9v-2h14.2v2l-6.6,0.8h-1L116.9,5.9z M124.5,35l6.6,0.8v2h-14.2v-2l6.6-0.8H124.5z M121.7,19.6
		c0-5.2,0-10.5-0.2-15.7h4.9c-0.2,5.1-0.2,10.4-0.2,15.7v2.5c0,5.2,0,10.5,0.2,15.7h-4.9c0.2-5.1,0.2-10.4,0.2-15.7V19.6z"/>
</g>
<g>
	<g>
		<path class="st0" d="M183,8.7c-4.2,0-8,3.5-8,10.6c0,7,3.8,12.1,9.2,12.1c4.5,0,8-3.4,8-10.6C192.1,12.9,187.9,8.7,183,8.7z
			 M156.6,9.2c-1.1,0-1.7,0.2-2,0.4c-0.3,0.3-0.5,0.6-0.5,1.6v9.2h1.8c2,0,3.2-0.3,4.1-1.1c1.5-1.1,2.1-2.6,2.1-4.6
			C162.1,10.6,159.5,9.2,156.6,9.2z M143.9,1.1v37.8h56.1V1.1H143.9z M169.8,32.6c-0.5,0-0.9,0-1.4-0.1c-2.7-0.2-4.2-0.9-5.9-3.2
			c-1.4-1.9-2.7-4.3-3.9-6.2c-0.8-1.2-1.2-1.4-3.2-1.4h-1.3v5.9c0,3.2,0.4,3.4,3.4,3.7v1.1h-10v-1.1c3.1-0.3,3.4-0.5,3.4-3.7v-15
			c0-3.2-0.4-3.3-3.4-3.6V7.8h9.6c2.7,0,4.6,0.3,6,1.3c1.5,1,2.6,2.7,2.6,5c0,3.2-2.1,5.3-4.8,6.5c0.7,1.2,2.3,3.7,3.4,5.4
			c1.4,2,2.1,2.9,3,3.9c1,1.1,1.9,1.5,2.7,1.7L169.8,32.6z M183.5,32.8c-7.2,0-12.5-5.5-12.5-12.6c0-6.7,4.8-13,12.7-13
			c6.4,0,12.2,4.9,12.2,12.4C196,27.8,190.5,32.8,183.5,32.8z"/>
	</g>
</g>
</svg>
