<svg width="419" height="365" fill="none" xmlns="http://www.w3.org/2000/svg"><path d="M352.303 343.076c0-6.342-128.504-5.671-129.079-.479 0 0 41.276 240.402 39.397 252.798-.403 2.701 2.645 3.391 2.703 5.92.077 2.797-2.972 7.51-2.722 9.004 22.89 14.465 42.905 14.561 42.924 14.561l.019-26.381c-8.493-59.354-17.561-194.384-15.835-198.676 11.752-5.517 41.371 195.265 46.451 222.471-.172-.958 1.649 4.866 1.649 4.866 2.281-3.276 8.014-11.802 18.634-14.312 10.391-2.452 20.13 1.399 20.13 1.399-16.161-80.543-24.251-259.619-24.271-271.171z" fill="url(#paint0_linear)"/><path opacity=".2" d="M376.612 614.248c-16.199-80.543-24.29-259.6-24.29-271.152 0-1.916-11.713-3.181-28.066-3.889l36.828 272.953c8.473-.69 15.528 2.088 15.528 2.088z" fill="#464646"/><path opacity=".4" d="M352.303 343.076c0-6.342-128.504-5.671-129.079-.479 0 0 6.576 38.317 14.359 85.121 5.349.652 14.302 1.035 15.874-.038l-4.563-59.143 11.043 3.008 10.602-6.188 12.614 6.897 24.693-8.353c1.495 20.5 5.022 63.875 7.61 65.81 2.857 2.126 29.543-.652 41.065-4.177-2.799-43.72-4.218-77.63-4.218-82.458z" fill="#262626"/><path d="M334.666 149.784c-3.604 4.081-77.835 2.414-77.835 2.414s-17.867 28.968-19.65 40.444c-3.125 20.193 34.68 69.91 38.265 68.588 2.953-1.073 66.486-39.333 69.189-101.713-3.432-2.874-9.969-9.733-9.969-9.733z" fill="#fff"/><path opacity=".5" d="M342.775 174.517c-10.238 5.441-22.603 13.219-23.504 14.713l-21.836 15.097-7.189-24.829c-6.116-3.87-12.002-3.813-19.996-.383l-11.272 23.297-19.057-18.297c-1.361 3.295-2.358 6.265-2.703 8.545-3.125 20.193 34.681 69.91 38.266 68.588 2.684-.997 56.325-33.279 67.291-86.731z" fill="#989898"/><path d="M272.839 181.534s-7.649 27.071-7.17 42.226l11.426 17.971 12.787-15.902c-4.198-16.764-.632-44.295-.632-44.295h-16.411z" fill="url(#paint1_linear)"/><path d="M280.777 212.586c-5.196 1.782-11.215 3.851-14.935 5.115-.057.709-.096 1.38-.115 2.07 2.512-.843 7.094-2.414 15.682-5.365a1048.35 1048.35 0 016.633-2.28c-.038-.67-.076-1.322-.095-1.992-2.052.69-4.448 1.513-7.17 2.452zM267.549 226.705l1.054 1.667c2.761-.939 6.787-2.318 12.787-4.387 2.607-.901 5.253-1.801 7.592-2.606a433.26 433.26 0 01-.288-1.935c-2.204.767-4.85 1.667-7.917 2.721-4.467 1.533-9.528 3.276-13.228 4.54zM280.777 203.007c-4.659 1.61-9.989 3.43-13.727 4.714-.115.708-.23 1.417-.326 2.126 2.665-.9 7.132-2.433 14.666-5.039 2.205-.747 4.409-1.513 6.461-2.222 0-.69.019-1.36.038-2.031-2.032.709-4.409 1.514-7.112 2.452zM287.506 181.53c-1.955.67-4.198 1.437-6.729 2.318a4837.159 4837.159 0 00-9.394 3.238c-.172.689-.364 1.437-.556 2.203 2.588-.881 6.02-2.069 10.563-3.621 2.646-.92 5.33-1.839 7.669-2.644.115-.939.172-1.494.172-1.494h-1.725zM280.777 193.426c-3.911 1.341-8.301 2.855-11.809 4.062-.154.709-.307 1.437-.46 2.184 2.76-.939 6.805-2.337 12.883-4.426 2.338-.804 4.697-1.609 6.825-2.356.038-.709.095-1.399.134-2.069-2.109.728-4.659 1.609-7.573 2.605z" fill="#FF7F00"/><path opacity=".5" d="M289.25 181.534h-16.411s-7.649 27.071-7.17 42.226l3.336 5.249c.901-9.177 1.936-27.952 4.467-29.849 1.495-1.13 10.736-1.705 11.579.537.326.9.595 16.84 1.093 30.787l3.738-4.655c-4.179-16.764-.632-44.295-.632-44.295z" fill="#C0272D"/><path d="M270.827 177.469c-1.247 2.05-4.161 11.399-1.802 16.093.881 1.743 15.969 3.583 19.765 1.399 1.821-1.054 2.454-14.561 1.093-16.324-5.637-.287-19.056-1.168-19.056-1.168z" fill="#C40C0C"/><path d="M280.777 193.427c-1.86.632-3.815 1.322-5.752 1.973 1.419.211 2.972.383 4.525.479.613-.211 1.188-.402 1.84-.632 2.972-1.015 5.962-2.05 8.512-2.931.134-.633.249-1.38.345-2.146-2.454.843-5.636 1.935-9.47 3.257zM280.777 183.85a4596.79 4596.79 0 01-12.614 4.33c-.02.69-.02 1.36.038 2.012 2.761-.939 6.902-2.357 13.19-4.522 3.24-1.111 6.499-2.241 9.183-3.161a42.078 42.078 0 00-.154-1.973c-2.492.843-5.732 1.973-9.643 3.314z" fill="#FF7F00"/><path opacity=".5" d="M270.827 177.469c-1.247 2.05-4.161 11.399-1.802 16.093.383.747 3.354 1.514 6.92 1.954-5.023-.958-3.163-9.79-1.898-12.223 1.342-2.586 12.462-1.092 13.42 0 .863.632 1.841 9.733-.498 12.281.728-.154 1.361-.345 1.802-.613 1.821-1.054 2.454-14.561 1.093-16.324-5.618-.287-19.037-1.168-19.037-1.168z" fill="#C0272D"/><path d="M239.5 185.323l-5.234 6.169c-1.189 4.943-9.413 157.35-7.707 161.278 1.572 3.621 28.987 15.078 33.665 14.752 5.118-.364 16.679-10.135 16.679-10.135l14.627-110.948c-28.584-28.24-50.382-54.755-52.03-61.116z" fill="#616161"/><g opacity=".7" fill="#989898"><path opacity=".7" d="M252.977 204.753c-.651-.804-1.303-1.59-1.917-2.356v162.714c.652.23 1.304.46 1.917.671V204.753zM239.558 360.455c.633.287 1.265.555 1.917.843V189.349c-.997-1.629-1.648-2.912-1.917-3.832v174.938zM258.729 211.572c-.652-.748-1.284-1.495-1.917-2.242v157.618c.729.192 1.361.326 1.917.441V211.572zM247.226 197.529a213.838 213.838 0 01-1.917-2.548v167.945c.652.268 1.284.517 1.917.766V197.529zM228.055 354.305c.537.403 1.169.824 1.917 1.284v-95.64a7017.366 7017.366 0 00-1.917 38.662v55.694zM235.724 189.77l-1.457 1.724c-.096.422-.25 1.954-.461 4.368v161.853c.614.325 1.266.632 1.918.958V189.77zM287.485 242.418c-.632-.651-1.284-1.284-1.917-1.935v51.115l1.917-14.56v-34.62zM279.817 335.261l1.917-14.542v-84.145a2284.8 2284.8 0 01-1.917-1.973v100.66zM291.32 247.955l.191-1.513c-.076-.058-.134-.135-.191-.192v1.705zM262.563 366.911c.613-.23 1.246-.536 1.917-.881V218.087c-.652-.728-1.285-1.437-1.917-2.146v150.97zM275.983 230.577l-1.917-2.031v131.102c.786-.613 1.438-1.13 1.917-1.513V230.577zM270.231 224.429l-1.917-2.088v141.448a64.464 64.464 0 001.917-1.303V224.429z"/></g><path d="M260.013 368.48c-5.08 0-32.495-11.054-34.335-15.327-1.093-2.529 1.208-51.651 2.684-80.696 1.879-36.918 4.313-78.454 4.965-81.194l.058-.23 6.595-7.74.46 1.782c1.591 6.073 23.235 32.493 51.762 60.675l.345.326-.058.479-14.666 111.311-.287.249c-.479.403-11.867 9.982-17.235 10.365h-.288zm-24.865-176.566c-1.706 9.158-8.799 156.756-7.687 160.511 1.246 2.874 27.127 14.139 32.572 14.139h.153c3.834-.268 12.461-6.858 15.835-9.675l14.513-110.104c-27.012-26.727-47.295-51.192-51.321-59.622l-4.065 4.751z" fill="#979797"/><path d="M327.419 178.387l13.324 12.223c1.188 4.943-16.046 157.714-17.753 161.641-1.553 3.621-36.214 15.596-40.911 15.27-5.119-.364-27.031-13.526-27.031-13.526l-.978-112.366c41.966-20.04 71.7-56.882 73.349-63.242z" fill="#707070"/><g opacity=".7" fill="#989898"><path opacity=".7" d="M293.237 216.203c-.633.517-1.265 1.053-1.917 1.571v147.674c.632-.191 1.265-.383 1.917-.574V216.203zM298.988 211.262c-.632.555-1.265 1.13-1.917 1.686v150.701c.633-.21 1.266-.421 1.917-.632V211.262zM281.734 225.113c-.632.46-1.265.919-1.917 1.379v140.471c.748.249 1.4.441 1.917.518V225.113zM264.481 236.188c-.633.364-1.285.728-1.918 1.072v121.083c.614.345 1.266.709 1.918 1.073V236.188zM256.812 355.028c.537.306 1.189.689 1.917 1.111V239.31c-.633.325-1.284.651-1.917.977v114.741zM275.983 229.099c-.633.422-1.284.843-1.917 1.265v134.11c.652.326 1.304.632 1.917.901V229.099zM270.231 232.796c-.632.383-1.284.785-1.917 1.169v127.558c.633.345 1.285.689 1.917 1.015V232.796zM285.568 367.002a82.1 82.1 0 001.917-.46v-145.72c-.632.498-1.265.977-1.917 1.475v144.705zM304.739 205.956c-.632.593-1.265 1.207-1.917 1.82v153.901c.633-.23 1.285-.46 1.917-.69V205.956zM325.828 181.604v151.085c.575-4.636 1.227-9.905 1.917-15.633V178.692l-.326-.287c-.192.689-.729 1.801-1.591 3.199zM339.248 189.23l-1.917-1.763v43.663c.729-7.089 1.38-13.622 1.917-19.274V189.23zM333.496 183.96l-1.917-1.762v101.866c.633-5.671 1.285-11.418 1.917-17.128V183.96zM316.242 194.02c-.613.69-1.265 1.418-1.917 2.146v161.066c.671-.287 1.304-.574 1.917-.843V194.02zM308.574 359.55c.652-.249 1.284-.498 1.917-.748V200.246c-.614.651-1.265 1.302-1.917 1.954v157.35zM321.994 187.066c-.595.766-1.227 1.59-1.918 2.433v164.994c.786-.44 1.419-.843 1.918-1.207v-166.22z"/></g><path d="M282.29 368.48h-.268c-5.196-.364-25.191-12.3-27.453-13.661l-.46-.268-.978-113.515.556-.268c42.867-20.5 71.412-57.246 72.812-62.61l.402-1.533 14.705 13.488.076.287c1.055 4.368-15.758 157.522-17.81 162.235-1.955 4.503-37 15.845-41.582 15.845zm-26.264-15.021c6.384 3.813 22.219 12.836 26.13 13.105h.134c6.116 0 38.496-11.955 39.819-14.695 2.147-5.594 18.289-152.407 17.733-160.779l-12.04-11.036c-4.601 9.522-33.741 43.356-72.735 62.189l.959 111.216z" fill="#979797"/><path opacity=".4" d="M266.111 250.654c0 1.456-1.15 2.605-2.607 2.567a2.735 2.735 0 01-2.646-2.682c0-1.456 1.17-2.606 2.608-2.567a2.734 2.734 0 012.645 2.682z" fill="#919191"/><path d="M265.592 250.289c0 1.264-.978 2.241-2.186 2.222-1.226-.019-2.204-1.054-2.223-2.318 0-1.245.977-2.242 2.185-2.223 1.208.039 2.205 1.073 2.224 2.319z" fill="#C6C6C6"/><path d="M264.959 249.025c-.46-.67-1.514-.996-1.591-.038-.038.575.844 1.054.805 1.801 1.036.422 1.246-1.073.786-1.763z" fill="#fff"/><path opacity=".4" d="M284.975 250.653c0 1.456-1.151 2.606-2.608 2.568a2.735 2.735 0 01-2.645-2.683c0-1.456 1.169-2.605 2.607-2.567 1.457.038 2.646 1.245 2.646 2.682z" fill="#919191"/><path d="M284.457 250.288c0 1.265-.959 2.242-2.186 2.223-1.227-.02-2.204-1.054-2.224-2.319 0-1.245.978-2.241 2.186-2.222 1.227.038 2.205 1.073 2.224 2.318z" fill="#C6C6C6"/><path d="M283.824 249.025c-.46-.671-1.514-.996-1.591-.038-.038.574.843 1.053.805 1.801 1.054.421 1.265-1.073.786-1.763z" fill="#fff"/><path opacity=".4" d="M266.11 269.546a2.542 2.542 0 01-2.608 2.567 2.734 2.734 0 01-2.645-2.682c0-1.456 1.169-2.606 2.607-2.567a2.735 2.735 0 012.646 2.682z" fill="#919191"/><path d="M265.592 269.179c0 1.264-.978 2.241-2.186 2.222-1.227-.019-2.204-1.053-2.224-2.318 0-1.245.978-2.242 2.186-2.222 1.208.038 2.205 1.073 2.224 2.318z" fill="#C6C6C6"/><path d="M264.959 267.915c-.46-.671-1.514-.997-1.591-.039-.038.575.843 1.054.805 1.801 1.035.441 1.246-1.073.786-1.762z" fill="#fff"/><path opacity=".4" d="M284.974 269.548a2.54 2.54 0 01-2.607 2.567 2.735 2.735 0 01-2.646-2.682c0-1.456 1.169-2.606 2.607-2.567 1.457.038 2.646 1.245 2.646 2.682z" fill="#919191"/><path d="M284.456 269.179c0 1.264-.959 2.241-2.186 2.222-1.226-.019-2.204-1.053-2.223-2.318 0-1.245.977-2.242 2.185-2.222 1.227.038 2.205 1.073 2.224 2.318z" fill="#C6C6C6"/><path d="M283.823 267.915c-.46-.671-1.514-.997-1.591-.039-.038.575.844 1.054.805 1.801 1.055.441 1.266-1.073.786-1.762z" fill="#fff"/><path opacity=".4" d="M266.11 288.457a2.553 2.553 0 01-2.608 2.567 2.734 2.734 0 01-2.645-2.682c0-1.456 1.169-2.605 2.607-2.567 1.457.019 2.626 1.226 2.646 2.682z" fill="#919191"/><path d="M265.592 288.072c0 1.246-.978 2.242-2.186 2.223-1.227-.019-2.204-1.054-2.224-2.318 0-1.246.978-2.242 2.186-2.223 1.208.038 2.205 1.073 2.224 2.318z" fill="#C6C6C6"/><path d="M264.959 286.808c-.46-.67-1.514-.996-1.591-.038-.038.575.843 1.054.805 1.801 1.035.44 1.246-1.073.786-1.763z" fill="#fff"/><path opacity=".4" d="M284.974 288.455a2.552 2.552 0 01-2.607 2.567 2.735 2.735 0 01-2.646-2.682c0-1.456 1.17-2.606 2.608-2.568a2.696 2.696 0 012.645 2.683z" fill="#919191"/><path d="M284.456 288.069c0 1.246-.958 2.242-2.185 2.223-1.227-.019-2.205-1.054-2.224-2.318 0-1.246.978-2.242 2.186-2.223 1.227.039 2.204 1.073 2.223 2.318z" fill="#C6C6C6"/><path d="M283.824 286.805c-.46-.67-1.515-.996-1.591-.038-.039.575.843 1.054.805 1.801 1.054.441 1.265-1.073.786-1.763z" fill="#fff"/><path opacity=".4" d="M266.11 307.35a2.554 2.554 0 01-2.608 2.567c-1.438-.039-2.626-1.226-2.645-2.663 0-1.456 1.169-2.606 2.607-2.568a2.693 2.693 0 012.646 2.664z" fill="#919191"/><path d="M265.592 306.963c0 1.265-.978 2.242-2.186 2.223-1.227-.019-2.204-1.073-2.224-2.318 0-1.246.978-2.242 2.186-2.223 1.208.039 2.205 1.073 2.224 2.318z" fill="#C6C6C6"/><path d="M264.959 305.698c-.46-.67-1.514-.996-1.591-.038-.038.575.843 1.054.805 1.801 1.035.441 1.246-1.073.786-1.763z" fill="#fff"/><path opacity=".4" d="M284.974 307.346a2.552 2.552 0 01-2.607 2.567c-1.438-.038-2.627-1.226-2.646-2.663 0-1.456 1.17-2.605 2.607-2.567 1.457.019 2.646 1.207 2.646 2.663z" fill="#919191"/><path d="M284.456 306.964c0 1.264-.958 2.242-2.185 2.222-1.227-.019-2.205-1.073-2.224-2.318 0-1.245.978-2.241 2.186-2.222 1.227.038 2.204 1.073 2.223 2.318z" fill="#C6C6C6"/><path d="M283.823 305.699c-.46-.671-1.515-.996-1.591-.038-.039.574.843 1.053.805 1.8 1.054.441 1.265-1.072.786-1.762z" fill="#fff"/><path opacity=".4" d="M266.11 328.328a2.554 2.554 0 01-2.608 2.567c-1.438-.038-2.626-1.226-2.645-2.663 0-1.456 1.169-2.606 2.607-2.567 1.457.019 2.626 1.226 2.646 2.663z" fill="#919191"/><path d="M265.592 327.962c0 1.264-.978 2.26-2.186 2.222-1.226-.019-2.204-1.054-2.223-2.318 0-1.246.977-2.242 2.185-2.223 1.208.039 2.205 1.073 2.224 2.319z" fill="#C6C6C6"/><path d="M264.959 326.697c-.46-.67-1.514-.996-1.591-.038-.038.575.843 1.054.805 1.801 1.035.421 1.246-1.073.786-1.763z" fill="#fff"/><path opacity=".4" d="M284.974 328.325a2.552 2.552 0 01-2.607 2.567c-1.438-.038-2.627-1.226-2.646-2.663 0-1.456 1.17-2.605 2.607-2.567 1.457.019 2.646 1.226 2.646 2.663z" fill="#919191"/><path d="M284.456 327.959c0 1.265-.958 2.261-2.185 2.222-1.227-.019-2.205-1.053-2.224-2.318 0-1.245.978-2.241 2.186-2.222 1.227.038 2.204 1.073 2.223 2.318z" fill="#C6C6C6"/><path d="M283.824 326.695c-.46-.671-1.515-.996-1.592-.038-.038.574.844 1.053.806 1.8 1.054.422 1.265-1.072.786-1.762z" fill="#fff"/><path opacity=".4" d="M266.11 347.042c0 1.456-1.151 2.606-2.608 2.567a2.734 2.734 0 01-2.645-2.682c0-1.456 1.169-2.606 2.607-2.567a2.722 2.722 0 012.646 2.682z" fill="#919191"/><path d="M265.592 346.677c0 1.265-.978 2.261-2.186 2.223-1.227-.019-2.204-1.054-2.224-2.318 0-1.265.978-2.242 2.186-2.223 1.208.019 2.205 1.054 2.224 2.318z" fill="#C6C6C6"/><path d="M264.959 345.397c-.46-.671-1.514-.997-1.591-.039-.038.575.843 1.054.805 1.801 1.035.441 1.246-1.073.786-1.762z" fill="#fff"/><path opacity=".4" d="M284.974 347.041c0 1.456-1.15 2.605-2.607 2.567a2.735 2.735 0 01-2.646-2.682c0-1.456 1.17-2.606 2.608-2.568 1.457.039 2.645 1.227 2.645 2.683z" fill="#919191"/><path d="M284.456 346.676c0 1.264-.958 2.261-2.185 2.222-1.227-.019-2.205-1.053-2.224-2.318 0-1.264.978-2.241 2.186-2.222 1.227.019 2.204 1.053 2.223 2.318z" fill="#C6C6C6"/><path d="M283.824 345.395c-.46-.67-1.515-.996-1.591-.038-.039.575.843 1.054.805 1.801 1.054.44 1.265-1.073.786-1.763zM75.671 240.908c-3.634 6.163-1.903 31.794.325 33.302l11.515 1.333-.838-33.253-11.002-1.382z" fill="#fff"/><path d="M31.93 215.025c-10.848-3.013-18.524-5.847-18.728-4.902-.725 3.378 3.57 6.594 12.342 9.451 3.371 1.084 7.928 2.446 11.266 5.133-.433.365-3.073 1.15-3.073 1.15-.932.123-1.557 7.983.2 8.708 0 0-1.017.295-1.346.796-1.07 1.59-1.892 4.771.37 6.383-1.164 1.608-.85 4.467.831 6.18 1.292 1.288 7.813 6.674 9.426 7.649 1.924 1.17 13.238 3.748 15.53 3.284 2.317-.472 2.661-1.925 4.064-2.181.684-.137 7 1.419 10.798 2.37-.195-6.042.103-12.398 1.236-16.132-3.82-1.387-8.194-4.749-10.823-13.146-4.051-3.674-9.27-6.04-12.485-8.411-1.927-1.47-11.05-3.516-19.608-6.332z" fill="#EFAB78"/><path d="M34.953 235.851c2.683.878 10.707 5.8 11.897 4.886 1.164-.905 2.228-1.56 1.665-2.899-.598-1.399-3.827-2.734-4.137-2.927 0 0-3.989 1.983-6.48.623 4.358.456 8.364-3.011 9.679-5.058 1.588 1.027 4.13 3.073 6.06 3.265-1.899 5.002.26 10.378 3.302 13.455l1.24 1.263c-1.809-.793-10.167 2.861-15.247 3.76-.796.147-6.526-2.745-7.936-3.877 1.852.793 5.387 1.232 6.433 1.228 1.054.022 1.599-1.844.819-2.65-.399-.407-6.325-3.947-7.632-4.327 1.954.758 8.382 3.967 9.559 3.431 1.666-.448 2.933-2.092 2.142-3.094-2.033-2.523-9.004-5.229-11.364-7.079z" fill="url(#paint2_linear)" opacity=".8"/><path d="M25.567 213.173a375.13 375.13 0 006.37 1.838c8.558 2.816 17.682 4.862 19.626 6.297.83.616 1.787 1.231 2.823 1.862.647.464 1.193 1.006 1.356 1.768l-10.214-.68s-6.092 7.889-9.689 8.848c0 0 4.703-3.32 4.58-5.96-.038-1.062-2.228-1.465-3.772-2.365.06-.035.11-.053.153-.096-3.337-2.688-7.894-4.05-11.265-5.134a58.652 58.652 0 01-3.15-1.103 169.885 169.885 0 003.182-5.275z" fill="url(#paint3_linear)" opacity=".5"/><path d="M219.698 178.388c-3.853 6.936-46.476 78.367-46.476 78.367-21.224 0-89.007-16.432-89.007-16.432-3.423 5.477-.685 39.026 1.37 42.449.172.977 93.681 9.802 99.164 10.894 7.995 1.571 30.962-34.16 30.962-34.16l3.987-81.118z" fill="url(#paint4_linear)"/><path opacity=".4" d="M219.696 178.388c-9.01 22.473-8.339 78.359-10.582 83.953-2.282 5.69-19.593 28.662-24.079 28.662-2.799 0-78.226-13.023-88.496-6.861.173.977 82.706 8.393 88.189 9.485 7.994 1.571 30.961-34.159 30.961-34.159l4.007-81.08z" fill="#1A1A1A"/><path d="M382.306 178.385l-47.641-28.604s-47.525 82.516-17.541 277.628c3.7 1.743 58.606-4.713 57.053-11.17 0 0-5.138-89.317-7.764-112.116l15.893-125.738zM257.847 153.708l-38.151 24.677c-7.591 30.615-6.019 67.189-7.745 120.967-1.476 46.23-1.802 98.38-.23 116.887 6.557 4.656 40.509 14.044 39.799 7.453-20.666-194.556 6.327-269.984 6.327-269.984z" fill="#353535"/><path opacity=".4" d="M341.721 214.883l-6.231-5.595 9.26-2.318c.383-1.169 14.57-42.34 14.57-42.36-12.902 1.418-24.079 3.947-33.799 7.338-9.106 27.148-21.241 80.083-17.695 163.308 7.861-31.611 33.895-120.373 33.895-120.373z" fill="#1A1A1A"/><path d="M334.666 148.191l25.881 15.921-17.637 40.597-14.091 2.242 10.755 8.008c-7.036 13.584-25.996 99.817-31.728 120.278-1.86-25.328-4.601-127.29 26.82-187.046z" fill="#464646"/><path opacity=".5" d="M253.745 169.55l-18.174-1.418c0 .038-4.103 19.561-5.272 29.926l7.265 5.077-9.489 5.096c.958 28.757 6.71 94.222 16.717 126.715-3.834-89.049 3.815-141.429 8.953-165.396z" fill="#1A1A1A"/><path d="M258.423 152.232l-22.699 14.446-3.278 30.692 8.857 5.958-11.004 5.71c.115 11.916 4.716 90.927 14.493 125.891 1.476-63.53 1.476-135.758 13.631-182.697z" fill="#464646"/><path d="M351.039 333.132l-6.289 6.456c3.049 5.825 13.574 11.591 21.798 16.611l6.327-5.537s-16.794-11.898-21.836-17.53z" fill="#fff"/><path d="M382.306 178.388s-12.787 50.962-9.432 76.117c0 0 9.663 23.202 9.432 27.052-.115 1.974-32.552 50.177-32.552 50.177s15.548 17.53 28.028 20.979C385.508 341.045 419 295.064 419 284.067c.019-11.342-36.694-105.679-36.694-105.679z" fill="url(#paint5_linear)"/><path opacity=".4" d="M382.306 178.388s-12.787 50.962-9.432 76.117c0 0 9.663 23.202 9.432 27.052-.115 1.974-32.552 50.177-32.552 50.177s34.623-44.007 34.623-49.87c0-4.713-7.4-22.665-9.873-31.018-.575-28.431 7.802-72.458 7.802-72.458z" fill="#1A1A1A"/><path d="M337.522 344.74c0 20.365 27.204 20.921 31.594 20.729.057-1.207-.595-9.751-.652-10.958-7.994.191-30.942-9.771-30.942-9.771zM208.347 344.875s-.153 13.89.02 17.952c6.978-.364 18.021-8.2 19.228-18.469-5.425-.192-19.248.517-19.248.517z" fill="#666"/><path d="M362.234 353.595c-6.192-3.717-12.672-7.759-16.027-11.878l-4.237 4.885c5.119 2.089 13.708 5.384 20.264 6.993zM371.225 79.989c-3.91-1.84-14.723-1.897-17.675 2.28-3.605 5.096-5.867 31.458-5.867 31.458-.709 7.625 11.791 6.878 16.142 4.139 17.83-11.323 13.439-35.042 7.4-37.877z" fill="#EFAB78"/><path opacity=".4" d="M370.132 85.028c-2.089-1.973-7.841.939-9.202 2.797 0 0-1.418 5.748-1.323 11.936.997-3.525 2.819-7.261 3.969-7.95 2.741 9.291 1.725 17.51-2.416 21.783 7.439-4.905 7.247-16.266 5.732-22.818 4.717-1.418 5.042 9.79 3.087 13.813 4.083-3.238 2.876-16.994.153-19.561z" fill="#CC6329"/><path d="M223.301 73.628c-2.243 3.775-8.877 25.347 3.738 37.302 2.607 2.472 6.748 3.372 10.525-.019-.441-6.955 3.106-27.454 3.336-33.68 0 0-10.583-15.366-17.599-3.603z" fill="#EFAB78"/><path opacity=".4" d="M224.816 78.112c1.744-1.456 5.636 2.05 6.422 3.928 0 0 .383 5.402-.383 10.958-.346-3.333-1.247-6.993-1.994-7.778-3.048 7.97-3.24 15.538-.69 20.021-4.889-5.556-3.47-15.787-1.611-21.458-3.297-1.992-4.812 8.066-3.834 11.974-2.626-3.525-.192-15.748 2.09-17.645z" fill="#CC6329"/><path d="M298.241 7.302c-24.98-.786-52.357 21.074-59.91 43.068-4.16 12.09-9.068 45.31-2.818 73.838 5.118 23.373 29.964 40.041 43.633 39.984 39.435-.173 60.485-17.99 66.026-29.428 4.543-11.629 6.92-24.638 9.01-36.804 13.784-80.657-30.961-89.873-55.941-90.658z" fill="#EFAB78"/><path opacity=".2" d="M298.241 7.302c-24.98-.786-52.357 21.074-59.91 43.068-4.16 12.09-9.068 45.31-2.818 73.838 5.118 23.373 29.964 40.041 43.633 39.984 39.435-.173 60.485-17.99 66.026-29.428 4.543-11.629 6.92-24.638 9.01-36.804 13.784-80.657-30.961-89.873-55.941-90.658zm47.487 67.745c.556 7.108-4.851 50.847-38.669 51.575-.441 0-24.826-4.656-29.926-8.43-4.371-3.219-9.585-6.322-8.761-10.652 1.208-6.284 8.761-29.696 8.761-36.23 0-7.011 2.684-44.639 9.739-47.014.748-.882 20.916.613 42.944-4.713 23.829 10.134 3.853 32.378 15.912 55.464z" fill="#F8AD7A"/><path opacity=".15" d="M291.665 95.986l-.518 11.897c7.995.614 9.049 10.959 23.313 12.913 9.93 1.361 18.596-6.456 19.343-14.943.269-3.066-4.831-23.814-42.138-9.867z" fill="url(#paint6_linear)"/><path opacity=".15" d="M268.832 94.34c-4.275-.978-20.226-1.572-25.478 1.206-3.911 2.07-5.388 12.645-2.454 16.477 3.374 4.406 9.144 5.057 13.189 3.103 4.084-1.973 4.122-7.223 9.279-8.391l5.464-12.396z" fill="url(#paint7_linear)"/><path d="M366.298 37.667c-13.976-19.273-19.957-18.832-24.021-19.867C328.282 7.895 307.136-.132 296.247.002c-10.87.153-26.916 4.828-35.505 15.576-34.317 12.165-31.594 41.708-30.214 53.682 1.994.824 3.547 1.341 3.547 1.341-.019 3.008-1.994 20.52-2.224 41.747.268 32.895 19.305 65.024 45.282 68.358 26.821.345 61.022-17.664 72.582-58.108 0 0 2.665-15.078 8.474-42.762 4.332-1.993 11.598-.383 11.598-.383 2.435-11.496 5.924-28.815-3.489-41.786zm-60.6 88.992c-11.924.307-23.408-2.414-28.565-2.931-4.812-.479-32.744 6.246-38.246-11.265-3.202-10.173 2.895-66.596 4.735-70.35 2.166-4.426 18.788-24.006 26.399-23.72 3.278.135 7.323 3.066 20.244 4.005 18.443 1.341 36.541-5.575 41.007-4.579 6.73 1.495 11.484 10.365 12.232 17.511.882 8.334.287 28.91 1.821 33.528.556 1.647 2.281 4.406 3.221 6.859-8.819 49.027-30.252 50.617-42.848 50.942z" fill="url(#paint8_linear)"/><path opacity=".25" d="M342.277 17.8C328.282 7.895 307.136-.132 296.247.002c-10.87.153-26.916 4.828-35.505 15.576-34.317 12.165-31.594 41.708-30.214 53.682 1.994.824 3.547 1.341 3.547 1.341-.019 3.008-1.994 20.52-2.224 41.747.268 32.895 19.305 65.024 45.282 68.358 26.821.345 61.022-17.664 72.582-58.108 0 0 2.665-15.078 8.474-42.762 4.332-1.993 11.598-.383 11.598-.383 2.454-11.515 5.943-28.834-3.489-41.805-13.976-19.254-19.957-18.813-24.021-19.848zm11.809 57.993c-2.588 15.365-6.403 30.577-11.215 45.31-5.617 17.128-34.7 50.752-68.575 45.253-27.377-4.445-36.445-31.937-38.208-56.748-.671-9.349-.518-19.235.632-28.546 1.572-12.798.671-36.42 7.228-45.79 11.886-17.012 33.166-30.06 60.926-26.515 17.177 2.184 34.029 7.012 44.17 23.776 4.755 7.836 6.499 16.802 6.595 25.883.038 5.825-.594 11.706-1.553 17.377z" fill="url(#paint9_linear)"/><path opacity=".7" d="M276.021 122.291s-22.143.02-26.149-8.391c-.039 20.691 20.685 19.733 26.935 15.174 14.724 10.096 34.872.785 35.505-14.082-7.764 10.729-32.035 7.299-36.291 7.299z" fill="#919191"/><path d="M289.921 112.444c-.096.038.115-.02 0 0-2.052 2.356-7.937 5.172-12.193 5.153h-.403c-.441.019-.191.058-.671 0-1.342-.172-3.776-.689-7.534-4.924-10.276-2.873-13.362 7.779-19.267 1.246.479 22.147 23.753 15.959 27.166 13.066 10.524 8.947 34.699 4.215 35.274-12.683-6.709 7.376-13.899-4.483-22.372-1.858z" fill="#E5E5E5"/><path opacity=".25" d="M277.018 126.985c10.525 8.947 34.7 4.215 35.275-12.683-.173 1.877-3.125 10.748-13.803 12.74-16.104 2.989-21.415-4.291-22.296-3.678-2.512 1.762-7.918 3.41-12.002 3.333-6.038-.115-11.905-4.866-14.32-12.779.46 22.148 23.753 15.96 27.146 13.067z" fill="url(#paint10_linear)"/><path opacity=".3" d="M289 110.183c-.824 1.974-6.518 5.25-11.445 5.25-2.703 0-5.253-2.012-6.71-3.889-1.361-1.744-1.84-3.334-1.706-4.158.076-.498.479-1.782.958-3.276 1.611-5.154 4.831-15.404 7.381-31.708-.019-2.528-.326-6.322-.326-6.322-4.85 24.945-12.518 36.306-13.784 40.655-2.166 7.376 8.091 12.395 13.746 12.414 7.208.039 12.5-5.134 13.727-8.104 1.246-3.87-1.362-1.973-1.841-.862z" fill="#FFA161"/><path opacity=".4" d="M289 110.183c-.824 1.973-6.518 5.249-11.445 5.249-2.703 0-5.253-2.011-6.71-3.889-1.361-1.743-1.84-3.334-1.706-4.157.077-.499.479-1.782.959-3.277 1.61-5.153 4.831-15.403 7.381-31.707l-.326-6.322c-3.394 24.81-9.548 38.144-9.988 40.942-.633 3.889 4.754 10.575 10.409 10.575 5.522 0 12.04-3.583 13.286-6.533 1.227-3.889-1.38-1.992-1.86-.881z" fill="#C67758"/><path opacity=".2" d="M285.645 104.338c-1.668-2.721-2.665-19.063-3.259-25.366-.901-3.085-3.049-2.874-3.95-.632-1.322 14.943-7.438 27.377-6.173 29.734 4.87 9.023 16.43.325 13.382-3.736z" fill="#EFAB78"/><path opacity=".2" d="M324.602 62.228c-2.492-1.207-29.868-1.782-29.868-1.782-2.895 7.779-1.17 22.263 2.396 24.753 0 0 12.039-2.414 20.935.71 2.262.785 4.888.593 6.096-1.553 3.298-5.805 2.435-21.17.441-22.128z" fill="#F8AD7A"/><path d="M308.555 72.878c-5.099.345-9.873 2.28-11.042 10.442-.173 1.245.901 1.437.901 1.437 4.831-.67 4.831-.67 9.95-.556 3.93.096 9.355 1.763 10.16.613 1.841-2.567-1.821-12.472-9.969-11.936z" fill="#fff"/><path d="M308.555 72.88c-.728.057-1.476.134-2.185.268a7.03 7.03 0 00-3.24 5.633c-.077 2.126.843 4.023 2.3 5.364.786 0 6.71.651 8.455.709a6.985 6.985 0 003.182-5.594c.038-.843-.115-1.648-.364-2.414-1.764-2.357-4.505-4.215-8.148-3.966z" fill="#8DAEB7"/><path d="M314.46 79.162a4.339 4.339 0 01-4.505 4.196 4.338 4.338 0 01-4.199-4.502c.077-2.395 2.109-4.292 4.506-4.196a4.374 4.374 0 014.198 4.502z" fill="#4C3322"/><path d="M315.667 77.381a1.824 1.824 0 01-1.898 1.763 1.837 1.837 0 01-1.763-1.897 1.825 1.825 0 011.898-1.762 1.824 1.824 0 011.763 1.896z" fill="#fff"/><path d="M308.997 71.96c-7.305-.25-10.583 4.52-11.35 6.877-.46.498-.191 2.51.077 2.644 2.147-4.35 8.723-5.69 11.1-5.671 3.969 0 8.55 2.376 10.122 6.399l.365-.632c.268-2.319-1.668-9.33-10.314-9.618z" fill="#4C3322"/><path d="M298.338 55.061c-4.64 2.203-5.311 6.054-1.668 8.276 3.623 2.223 10.122-1.226 15.164-1.149 6.327.096 11.311 4.522 13.152 2.203 3.891-4.885-16.008-14.388-26.648-9.33z" fill="#E5E5E5"/><path d="M256.525 71.713c5.08.517 9.777 2.606 10.678 10.806.134 1.245-.958 1.398-.958 1.398-4.812-.843-4.812-.843-9.912-.9-3.93-.039-9.413 1.437-10.18.268-1.763-2.606 2.243-12.396 10.372-11.572z" fill="#fff"/><path d="M263.772 77.806a6.83 6.83 0 00-1.668-4.464c-1.668-.958-3.604-1.418-5.598-1.61a8.836 8.836 0 00-3.739.422c-1.763 1.264-2.933 3.315-2.933 5.652 0 2.241 1.074 4.215 2.723 5.498 1.284-.153 7.591 0 8.607-.115 1.592-1.283 2.608-3.218 2.608-5.383z" fill="#8DAEB7"/><path d="M261.164 77.806a4.347 4.347 0 01-4.351 4.35 4.347 4.347 0 01-4.352-4.35 4.36 4.36 0 014.352-4.349c2.415-.019 4.351 1.935 4.351 4.35z" fill="#4C3322"/><path d="M262.315 75.968a1.82 1.82 0 01-1.822 1.82 1.832 1.832 0 01-1.821-1.82 1.82 1.82 0 011.821-1.82 1.82 1.82 0 011.822 1.82z" fill="#fff"/><path d="M256.104 70.774c7.304 0 10.429 4.885 11.1 7.261.441.517.115 2.51-.173 2.644-1.994-4.426-8.531-5.978-10.889-6.054-3.968-.134-8.646 2.088-10.314 6.054l-.345-.651c-.192-2.319 1.974-9.254 10.621-9.254z" fill="#4C3322"/><path d="M266.935 54.603c4.045 2.357 4.543 6.227 1.246 8.334-3.298 2.089-8.972-1.57-13.458-1.666-5.617-.115-10.199 4.138-11.771 1.762-3.336-5.02 14.666-13.851 23.983-8.43z" fill="#E5E5E5"/><path opacity=".5" d="M340.015 78.012c-4.237 1.629-8.608 3.295-13.727 2.567-1.495-8.487-8.914-14.963-17.829-14.963-8.55 0-15.701 5.94-17.618 13.91-9.566-7.185-16.085-3.449-18.692-1.227-2.07-7.567-8.742-13.123-16.64-13.123-9.548 0-17.312 8.123-17.312 18.124 0 10 7.764 18.124 17.312 18.124 9.547 0 17.33-8.123 17.33-18.124 0-.498-.038-.977-.076-1.456.402-.632 2.319-2.855 5.617-3.468 3.642-.67 7.668.843 12.001 4.464-.019.307-.038.594-.038.9 0 9.982 8.128 18.125 18.135 18.125 9.989 0 18.136-8.124 18.136-18.124v-.192c.729.076 1.457.134 2.167.134 4.639 0 8.665-1.552 12.327-2.97 5.847-2.26 11.272-3.716 17.139-.747l.632-.613c-7.668-5.02-12.844-3.66-18.864-1.34zm-84.506 20.519c-7.956 0-14.436-6.84-14.436-15.25s6.48-15.25 14.436-15.25c7.975 0 14.455 6.84 14.455 15.25s-6.499 15.25-14.455 15.25zm52.931.44c-8.416 0-15.26-6.839-15.26-15.25 0-8.41 6.844-15.25 15.26-15.25s15.26 6.84 15.26 15.25c0 8.411-6.844 15.25-15.26 15.25z" fill="#F8AD7A"/><path d="M339.497 76.253c-4.275.88-8.703 1.762-13.285 1.073-1.496-8.488-8.915-14.982-17.83-14.982-8.55 0-15.701 5.939-17.618 13.909-9.624-7.223-16.142-3.315-18.653-1.092-2.032-7.626-8.723-13.258-16.66-13.258-9.547 0-17.312 8.123-17.312 18.124 0 10 7.765 18.124 17.312 18.124s17.311-8.123 17.311-18.124c0-.422-.038-.843-.057-1.245.268-.498 2.262-2.97 5.655-3.621 3.605-.69 7.631.804 11.925 4.425-.019.307-.038.594-.038.9 0 9.982 8.128 18.125 18.135 18.125 9.989 0 18.117-8.124 18.117-18.124v-.192c4.812.575 9.26-.326 13.573-1.207 6.346-1.303 11.982-2.452 18.098.862 2.281-.709 2.837-.766 3.796-1.015-7.995-5.633-15.337-4.138-22.469-2.682zm-84.046 19.024c-7.956 0-14.436-6.84-14.436-15.25s6.48-15.25 14.436-15.25c7.956 0 14.436 6.84 14.436 15.25s-6.48 15.25-14.436 15.25zm52.931.44c-8.416 0-15.26-6.839-15.26-15.25 0-8.41 6.844-15.25 15.26-15.25 8.417 0 15.241 6.84 15.241 15.25 0 8.411-6.824 15.25-15.241 15.25z" fill="#7F6654"/><defs><linearGradient id="paint0_linear" x1="299.918" y1="627.168" x2="299.918" y2="338.516" gradientUnits="userSpaceOnUse"><stop offset=".46" stop-color="#464646"/><stop offset="1" stop-color="#373737"/></linearGradient><linearGradient id="paint1_linear" x1="277.776" y1="241.726" x2="277.752" y2="181.535" gradientUnits="userSpaceOnUse"><stop offset=".338" stop-color="#C40C0C"/><stop offset=".44" stop-color="#B50909"/><stop offset=".649" stop-color="#9D0404"/><stop offset=".841" stop-color="#8E0101"/><stop offset="1" stop-color="#890000"/></linearGradient><linearGradient id="paint2_linear" x1="36.353" y1="234.131" x2="58.57" y2="253.401" gradientUnits="userSpaceOnUse"><stop stop-color="#ED7D26"/><stop offset="1" stop-color="#fff"/></linearGradient><linearGradient id="paint3_linear" x1="21.924" y1="218.392" x2="50.84" y2="230.014" gradientUnits="userSpaceOnUse"><stop offset=".067" stop-color="#fff"/><stop offset="1" stop-color="#ED7D26"/></linearGradient><linearGradient id="paint4_linear" x1="137.323" y1="236.045" x2="219.706" y2="236.045" gradientUnits="userSpaceOnUse"><stop offset=".46" stop-color="#353535"/><stop offset="1" stop-color="#232323"/></linearGradient><linearGradient id="paint5_linear" x1="369.648" y1="265.56" x2="434.259" y2="265.56" gradientUnits="userSpaceOnUse"><stop stop-color="#232323"/><stop offset=".54" stop-color="#353535"/></linearGradient><linearGradient id="paint6_linear" x1="312.103" y1="95.696" x2="312.956" y2="120.33" gradientUnits="userSpaceOnUse"><stop stop-color="#fff"/><stop offset=".078" stop-color="#FBECEA"/><stop offset=".418" stop-color="#E89F93"/><stop offset=".695" stop-color="#DB6653"/><stop offset=".896" stop-color="#D2432B"/><stop offset="1" stop-color="#CF361C"/></linearGradient><linearGradient id="paint7_linear" x1="253.744" y1="96.214" x2="255.465" y2="117.324" gradientUnits="userSpaceOnUse"><stop stop-color="#fff"/><stop offset=".078" stop-color="#FBECEA"/><stop offset=".418" stop-color="#E89F93"/><stop offset=".695" stop-color="#DB6653"/><stop offset=".896" stop-color="#D2432B"/><stop offset="1" stop-color="#CF361C"/></linearGradient><linearGradient id="paint8_linear" x1="301.161" y1="180.715" x2="301.161" y2=".002" gradientUnits="userSpaceOnUse"><stop stop-color="#D6D6D6"/><stop offset=".301" stop-color="#E5E5E5"/><stop offset="1" stop-color="#F1F1F1"/></linearGradient><linearGradient id="paint9_linear" x1="301.161" y1="180.715" x2="301.161" y2=".002" gradientUnits="userSpaceOnUse"><stop stop-color="#CBCBCB"/><stop offset=".636" stop-color="#E5E5E5"/></linearGradient><linearGradient id="paint10_linear" x1="249.864" y1="122.669" x2="312.291" y2="122.669" gradientUnits="userSpaceOnUse"><stop stop-color="#CBCBCB"/><stop offset=".636" stop-color="#E5E5E5"/></linearGradient></defs></svg>