<svg width="206" height="60" fill="none" xmlns="http://www.w3.org/2000/svg"><path fill-rule="evenodd" clip-rule="evenodd" d="M11.337 16.072c-.44 0-.865.115-1.232.376-.361.257-.615.616-.788 1.018L2.403 33.885h-.24c-.583 0-1.109.205-1.526.614C.2 34.911 0 35.451 0 36.037v4.292c0 .585.2 1.125.637 1.537.417.41.943.615 1.526.615.585 0 1.123-.196 1.536-.624.432-.411.628-.947.628-1.528v-2.45h13.968v2.45c0 .585.2 1.125.638 1.537.417.41.943.615 1.526.615.584 0 1.123-.196 1.536-.624.43-.411.627-.947.627-1.528v-4.292c0-.581-.196-1.117-.627-1.528-.413-.429-.952-.624-1.536-.624h-.188l-6.905-16.399c-.156-.41-.403-.776-.77-1.038-.376-.266-.812-.377-1.259-.377zM6.902 33.885l4.468-10.99 4.55 10.99H6.902z" fill="#fff"/><path d="M114.441 21.992c-.823 0-1.603.146-2.33.446a5.622 5.622 0 00-.961.48 2.1 2.1 0 00-.173-.183c-.411-.403-.934-.588-1.499-.588-.571 0-1.094.188-1.516.58l-.01.009-.01.01c-.42.417-.602.954-.602 1.528v11.504c0 .568.189 1.089.582 1.508l.019.02.021.02c.422.391.945.579 1.516.579.576 0 1.116-.181 1.535-.599l.01-.01.01-.01c.393-.42.582-.94.582-1.508v-7.29c0-.793.228-1.38.64-1.828.423-.444.956-.674 1.666-.674.699 0 1.172.21 1.513.572l.009.01.009.009c.334.332.568.885.568 1.807v7.394c0 .568.189 1.089.582 1.508l.019.02.021.02c.422.391.945.579 1.515.579.577 0 1.117-.181 1.536-.599l.01-.01.01-.01c.393-.42.582-.94.582-1.508v-7.29c0-.793.228-1.38.64-1.828.426-.448.953-.674 1.64-.674.699 0 1.172.21 1.513.572l.009.01.009.009c.333.332.568.885.568 1.807v7.394c0 .568.188 1.089.582 1.508l.019.02.021.02c.421.391.945.579 1.515.579.577 0 1.117-.181 1.536-.599l.01-.01.01-.01c.393-.42.582-.94.582-1.508v-7.394c0-1.899-.508-3.49-1.623-4.663-1.091-1.166-2.529-1.729-4.231-1.729-1.059 0-2.044.202-2.942.619-.581.27-1.103.609-1.563 1.018a5.24 5.24 0 00-1.417-1.007c-.821-.427-1.738-.63-2.732-.63zM48.838 22.018c-1.48 0-2.834.34-4.042 1.037a7.226 7.226 0 00-2.83 2.873l-.002.004c-.66 1.217-.98 2.584-.98 4.081 0 1.47.332 2.829 1.009 4.059l.007.013a7.587 7.587 0 002.875 2.86c1.225.697 2.596 1.037 4.093 1.037 2.055 0 3.818-.64 5.231-1.948l.01-.01.011-.01c.339-.337.55-.768.55-1.27 0-.64-.319-1.16-.783-1.548l-.017-.015-.019-.014a1.92 1.92 0 00-1.163-.394c-.532 0-1.017.207-1.443.52l-.02.014-.018.015c-.549.455-1.303.718-2.339.718-.769 0-1.43-.175-2.003-.508a3.63 3.63 0 01-1.333-1.39c-.313-.611-.477-1.315-.477-2.129 0-1.306.365-2.264 1.026-2.962l.006-.006c.663-.715 1.522-1.085 2.651-1.085.566 0 1.03.097 1.41.266l.014.007.016.006c.391.156.769.415 1.13.802.422.469.975.73 1.614.73.379 0 .742-.105 1.06-.325.547-.373.922-.918.922-1.621 0-.454-.158-.87-.464-1.208-1.503-1.722-3.422-2.6-5.702-2.6zM64.446 22.018c-1.48 0-2.834.34-4.042 1.037a7.226 7.226 0 00-2.83 2.873l-.002.004c-.66 1.217-.98 2.584-.98 4.081 0 1.47.332 2.829 1.008 4.059l.008.013a7.587 7.587 0 002.875 2.86c1.225.697 2.596 1.037 4.093 1.037 2.055 0 3.818-.64 5.231-1.948l.01-.01.011-.01c.338-.337.55-.768.55-1.27 0-.64-.319-1.16-.783-1.548l-.017-.015-.019-.014a1.92 1.92 0 00-1.163-.394c-.532 0-1.018.207-1.443.52l-.02.014-.018.015c-.549.455-1.303.718-2.339.718-.769 0-1.43-.175-2.003-.508a3.63 3.63 0 01-1.333-1.39c-.313-.611-.478-1.315-.478-2.129 0-1.306.366-2.264 1.027-2.962l.005-.006c.664-.715 1.522-1.085 2.652-1.085.566 0 1.03.097 1.41.266l.014.007.016.006c.391.156.769.415 1.13.802.422.469.975.73 1.614.73.379 0 .741-.105 1.06-.325.547-.373.922-.918.922-1.621 0-.454-.158-.87-.464-1.208-1.503-1.722-3.422-2.6-5.702-2.6z" fill="#fff"/><path fill-rule="evenodd" clip-rule="evenodd" d="M80.028 22.018c-1.48 0-2.836.341-4.044 1.039-1.191.68-2.127 1.643-2.802 2.871l-.002.004c-.66 1.217-.98 2.584-.98 4.081 0 1.505.34 2.878 1.042 4.098l.004.008a7.673 7.673 0 002.958 2.857l.009.005c1.257.673 2.665 1.001 4.205 1.001.897 0 1.816-.165 2.754-.481.948-.315 1.77-.732 2.447-1.265.45-.34.73-.823.73-1.414 0-.617-.304-1.118-.747-1.49-.376-.332-.845-.456-1.312-.456-.496 0-.96.147-1.354.453-.274.207-.654.402-1.164.571l-.007.003c-.48.164-.928.24-1.347.24-1.152 0-2.082-.32-2.838-.929a3.666 3.666 0 01-1.097-1.488h8.82c.522 0 1.014-.162 1.409-.525l.012-.01.011-.012c.383-.381.576-.865.576-1.399 0-1.465-.28-2.797-.863-3.976-.585-1.184-1.434-2.12-2.542-2.79-1.118-.675-2.422-.996-3.878-.996zm-3.504 6.024c.221-.545.54-.99.948-1.352.62-.536 1.449-.833 2.556-.833.966 0 1.678.285 2.213.805a3.4 3.4 0 01.853 1.38h-6.57zM97.026 22.018c-1.47 0-2.825.353-4.047 1.067a7.78 7.78 0 00-2.867 2.878l-.002.004c-.699 1.217-1.042 2.572-1.042 4.046v11.79c0 .573.182 1.11.601 1.527l.01.01.01.01c.422.391.946.579 1.516.579.576 0 1.116-.181 1.536-.599.42-.417.602-.954.602-1.528v-5.129a7.243 7.243 0 004.204 1.309c1.388 0 2.663-.347 3.803-1.05a7.255 7.255 0 002.684-2.87c.655-1.229.977-2.584.977-4.049 0-1.473-.343-2.828-1.042-4.044a7.483 7.483 0 00-2.9-2.887c-1.221-.712-2.575-1.064-4.043-1.064zm-1.942 4.47a3.656 3.656 0 011.942-.527c.724 0 1.353.177 1.909.523l.01.006.01.006a3.528 3.528 0 011.357 1.416l.007.013c.343.611.521 1.302.521 2.088s-.178 1.477-.521 2.088l-.003.006a3.762 3.762 0 01-1.371 1.429c-.557.332-1.19.504-1.919.504a3.8 3.8 0 01-1.944-.504 3.828 3.828 0 01-1.344-1.426c-.328-.613-.5-1.306-.5-2.097 0-.792.172-1.487.502-2.1a3.586 3.586 0 011.34-1.421l.004-.003zM138.986 22.018c-1.47 0-2.832.353-4.069 1.064a7.53 7.53 0 00-2.874 2.887c-.699 1.216-1.042 2.57-1.042 4.044 0 1.462.312 2.815.948 4.042l.007.013c.653 1.204 1.546 2.164 2.678 2.862l.005.003c1.155.702 2.437 1.05 3.827 1.05a7.242 7.242 0 004.342-1.409c.096.259.244.499.444.712l.019.02.021.02c.421.391.945.579 1.515.579.571 0 1.098-.188 1.51-.599.418-.416.628-.943.628-1.528v-5.765c0-1.475-.353-2.831-1.07-4.048a7.534 7.534 0 00-2.867-2.88c-1.207-.715-2.554-1.067-4.022-1.067zm-1.942 4.47a3.654 3.654 0 011.942-.527c.724 0 1.352.177 1.908.523l.01.006.011.006a3.533 3.533 0 011.357 1.416c.33.614.502 1.309.502 2.101 0 .79-.171 1.484-.5 2.097a3.762 3.762 0 01-1.37 1.426c-.557.332-1.189.504-1.918.504-.726 0-1.368-.17-1.944-.504a4.03 4.03 0 01-1.373-1.432c-.327-.611-.497-1.303-.497-2.091 0-.79.171-1.482.499-2.095a3.767 3.767 0 011.368-1.426l.005-.003z" fill="#fff"/><path d="M25.849 22.095c-.588 0-1.118.209-1.536.625-.413.41-.602.934-.602 1.502v6.36c0 1.498.289 2.833.902 3.974l.002.005a6.305 6.305 0 002.56 2.573c1.084.588 2.294.874 3.611.874.96 0 1.875-.163 2.736-.494l.007-.002.008-.003c.414-.169.803-.37 1.166-.605.076.126.166.245.271.356l.02.02.02.02c.422.391.945.579 1.515.579.577 0 1.117-.181 1.536-.599l.01-.01.01-.01c.393-.42.582-.94.582-1.508v-11.53c0-.573-.182-1.11-.602-1.528-.42-.417-.96-.599-1.535-.599-.571 0-1.094.188-1.516.58l-.01.01-.01.009c-.42.417-.602.955-.602 1.528v7.29c0 .461-.125.86-.376 1.222l-.006.008-.005.008c-.24.364-.588.668-1.079.906l-.008.004c-.465.23-.997.354-1.612.354-1.08 0-1.871-.3-2.454-.837-.536-.525-.866-1.344-.866-2.595v-6.36c0-.576-.204-1.099-.627-1.502-.406-.422-.932-.625-1.51-.625zM151.117 22.095c-.57 0-1.094.188-1.516.58l-.01.01-.01.009c-.419.417-.601.955-.601 1.528v6.36c0 1.392.294 2.669.898 3.814l.003.005a6.853 6.853 0 002.502 2.661l.007.005.008.004c1.089.63 2.315.937 3.657.937 1.017 0 1.968-.182 2.843-.557.45-.194.866-.43 1.246-.711.133.203.296.386.493.545l.01.008.009.007c.459.348 1.033.514 1.655.563v2.466c0 .567.189 1.088.583 1.507.4.427.92.645 1.503.645a1.87 1.87 0 001.436-.657c.385-.418.545-.944.545-1.495v-4.137c0-.581-.196-1.117-.627-1.528-.413-.429-.952-.624-1.536-.624h-.279v-9.818c0-.573-.183-1.11-.602-1.528-.42-.417-.96-.599-1.536-.599-.571 0-1.094.188-1.516.58l-.01.01-.01.009c-.419.417-.601.955-.601 1.528v7.29c0 .733-.263 1.3-.808 1.766-.554.471-1.29.736-2.278.736-1.014 0-1.794-.323-2.406-.944-.596-.622-.914-1.428-.914-2.488v-6.36c0-.573-.183-1.11-.602-1.528-.42-.417-.96-.599-1.536-.599zM169.339 22.095c-.588 0-1.118.209-1.536.625-.412.41-.602.934-.602 1.502v6.36c0 1.498.289 2.833.902 3.974l.003.005a6.306 6.306 0 002.559 2.573c1.084.588 2.294.874 3.612.874.96 0 1.874-.163 2.735-.494l.008-.002.007-.003c.414-.169.803-.37 1.166-.605.076.126.167.245.272.356l.019.02.02.02c.422.391.945.579 1.516.579.576 0 1.116-.181 1.536-.599l.01-.01.009-.01c.394-.42.582-.94.582-1.508v-11.53c0-.573-.182-1.11-.601-1.528-.42-.417-.96-.599-1.536-.599-.571 0-1.094.188-1.516.58l-.01.01-.01.009c-.42.417-.602.955-.602 1.528v7.29c0 .461-.125.86-.376 1.222l-.005.008-.006.008c-.239.364-.587.668-1.078.906l-.009.004c-.465.23-.997.354-1.612.354-1.08 0-1.871-.3-2.454-.837-.536-.525-.866-1.344-.866-2.595v-6.36a2.02 2.02 0 00-.627-1.502c-.406-.422-.931-.625-1.51-.625z" fill="#fff"/><path fill-rule="evenodd" clip-rule="evenodd" d="M190.51 22.121c-1.108 0-2.128.243-3.04.745a5.556 5.556 0 00-2.147 1.99l-.007.013c-.514.859-.764 1.823-.764 2.869 0 1.124.316 2.135.97 2.995a4.98 4.98 0 001.533 1.336l-1.987 2.584-.007.008c-.295.37-.483.808-.483 1.298 0 .553.267 1.014.628 1.373l.02.02.022.02c.424.365.939.533 1.493.533a2.22 2.22 0 001.775-.843l3.162-3.914h1.242v2.604c0 .568.188 1.089.582 1.508l.01.01.01.01c.404.403.919.599 1.483.599.565 0 1.093-.185 1.494-.609.386-.389.591-.879.641-1.419l.003-.036V24.248c0-.574-.182-1.11-.602-1.528-.419-.418-.959-.599-1.536-.599h-4.495zm-1.787 5.617c0-.44.152-.78.478-1.075.366-.313.789-.47 1.309-.47h2.41v3.167h-2.41c-.517 0-.938-.155-1.303-.465-.324-.305-.484-.671-.484-1.157z" fill="#fff"/><g opacity=".7" fill="#fff"><path d="M6.438 53.427c0 1.134-.285 2.02-.855 2.656-.57.636-1.363.954-2.38.954-.635 0-1.196-.147-1.684-.44a2.88 2.88 0 01-1.125-1.261C.13 54.787 0 54.15 0 53.427c0-1.126.283-2.005.849-2.637.565-.632 1.363-.948 2.391-.948.984 0 1.763.325 2.337.973.574.645.86 1.516.86 2.612zm-4.95 0c0 1.603.58 2.404 1.74 2.404 1.148 0 1.722-.801 1.722-2.404 0-1.586-.578-2.38-1.734-2.38-.607 0-1.047.206-1.322.616-.27.41-.406.998-.406 1.764zM12.836 49.968v1.155h-2.213v5.788H9.172v-5.788H6.958v-1.155h5.878zM22.608 49.968v6.943h-1.451v-5.775h-3.05v5.775h-1.445v-6.943h5.946zM27.752 57.037c-.861 0-1.53-.316-2.005-.948h-.086c.057.586.086.942.086 1.067V60h-1.445V49.968h1.168c.033.13.1.44.203.929h.074c.451-.703 1.127-1.055 2.03-1.055.848 0 1.508.314 1.98.942.475.628.712 1.509.712 2.643s-.241 2.02-.725 2.656c-.48.636-1.144.954-1.992.954zm-.35-5.99c-.575 0-.995.172-1.261.516-.263.343-.394.89-.394 1.644v.22c0 .845.131 1.459.394 1.84.262.376.69.564 1.285.564.5 0 .885-.209 1.156-.627.27-.419.406-1.015.406-1.79 0-.778-.136-1.366-.406-1.764-.267-.401-.66-.602-1.18-.602zM37.803 53.427c0 1.134-.285 2.02-.855 2.656-.57.636-1.363.954-2.38.954-.635 0-1.197-.147-1.685-.44a2.879 2.879 0 01-1.125-1.261c-.262-.549-.393-1.185-.393-1.909 0-1.126.282-2.005.848-2.637.566-.632 1.363-.948 2.392-.948.984 0 1.763.325 2.337.973.574.645.86 1.516.86 2.612zm-4.95 0c0 1.603.58 2.404 1.74 2.404 1.147 0 1.721-.801 1.721-2.404 0-1.586-.578-2.38-1.734-2.38-.606 0-1.047.206-1.322.616-.27.41-.405.998-.405 1.764zM47.048 53.44c0 1.042-.31 1.873-.929 2.492-.615.62-1.467.97-2.558 1.055V60h-1.37v-3.013c-1.079-.084-1.934-.44-2.565-1.068-.627-.632-.94-1.458-.94-2.48 0-1.058.305-1.893.915-2.504.611-.616 1.478-.963 2.601-1.043v-2.75h1.36v2.75c1.09.101 1.942.463 2.557 1.087.62.623.929 1.444.929 2.46zm-6.862 0c0 .686.168 1.238.504 1.657.336.419.84.663 1.512.734v-4.783c-.676.08-1.182.326-1.518.74-.332.415-.498.965-.498 1.652zm5.368 0c0-.678-.169-1.222-.505-1.633-.332-.41-.828-.655-1.488-.734v4.758c.669-.08 1.167-.326 1.495-.74.332-.419.498-.97.498-1.651zM51.313 57.037c-1.058 0-1.886-.314-2.485-.942-.594-.632-.891-1.5-.891-2.605 0-1.134.276-2.026.83-2.675.553-.648 1.314-.973 2.281-.973.898 0 1.607.279 2.128.835.52.557.78 1.323.78 2.298v.797h-4.531c.02.674.199 1.193.535 1.557.336.36.81.54 1.42.54.402 0 .775-.038 1.12-.113.348-.08.72-.21 1.118-.39v1.2a4.38 4.38 0 01-1.07.364c-.36.071-.772.107-1.236.107zm-.265-6.077c-.46 0-.828.148-1.107.446-.274.297-.438.73-.492 1.299h3.087c-.008-.573-.143-1.006-.406-1.3-.262-.297-.623-.445-1.082-.445zM57.963 57.037c-1.029 0-1.812-.306-2.349-.917-.533-.615-.8-1.496-.8-2.643 0-1.167.28-2.065.837-2.693.561-.628 1.371-.942 2.429-.942.717 0 1.363.136 1.937.408l-.437 1.187c-.61-.243-1.115-.364-1.512-.364-1.177 0-1.765.797-1.765 2.392 0 .778.145 1.364.436 1.757.295.39.726.584 1.292.584.643 0 1.252-.163 1.826-.49v1.288a2.813 2.813 0 01-.83.332 4.82 4.82 0 01-1.064.1zM63.82 57.037c-1.029 0-1.812-.306-2.349-.917-.533-.615-.8-1.496-.8-2.643 0-1.167.28-2.065.837-2.693.562-.628 1.371-.942 2.429-.942.717 0 1.363.136 1.937.408l-.437 1.187c-.61-.243-1.115-.364-1.512-.364-1.177 0-1.765.797-1.765 2.392 0 .778.146 1.364.437 1.757.295.39.725.584 1.29.584.644 0 1.253-.163 1.827-.49v1.288a2.81 2.81 0 01-.83.332c-.291.067-.646.1-1.064.1zM72.967 53.427c0 1.134-.285 2.02-.855 2.656-.57.636-1.363.954-2.38.954-.635 0-1.196-.147-1.684-.44a2.879 2.879 0 01-1.125-1.261c-.263-.549-.394-1.185-.394-1.909 0-1.126.283-2.005.849-2.637.565-.632 1.363-.948 2.392-.948.984 0 1.762.325 2.336.973.574.645.861 1.516.861 2.612zm-4.95 0c0 1.603.58 2.404 1.74 2.404 1.148 0 1.722-.801 1.722-2.404 0-1.586-.578-2.38-1.734-2.38-.607 0-1.047.206-1.322.616-.27.41-.406.998-.406 1.764zM77.705 57.037c-.86 0-1.529-.316-2.004-.948h-.086c.057.586.086.942.086 1.067V60h-1.445V49.968h1.168c.033.13.1.44.203.929h.074c.45-.703 1.127-1.055 2.029-1.055.848 0 1.508.314 1.98.942.475.628.713 1.509.713 2.643s-.242 2.02-.725 2.656c-.48.636-1.144.954-1.993.954zm-.35-5.99c-.574 0-.994.172-1.26.516-.263.343-.394.89-.394 1.644v.22c0 .845.13 1.459.393 1.84.263.376.69.564 1.285.564.5 0 .886-.209 1.156-.627.27-.419.406-1.015.406-1.79 0-.778-.135-1.366-.406-1.764-.266-.401-.66-.602-1.18-.602zM87.756 53.427c0 1.134-.285 2.02-.855 2.656-.57.636-1.363.954-2.38.954-.635 0-1.196-.147-1.684-.44a2.88 2.88 0 01-1.125-1.261c-.263-.549-.394-1.185-.394-1.909 0-1.126.283-2.005.849-2.637.565-.632 1.363-.948 2.392-.948.983 0 1.762.325 2.336.973.574.645.861 1.516.861 2.612zm-4.95 0c0 1.603.58 2.404 1.74 2.404 1.148 0 1.722-.801 1.722-2.404 0-1.586-.578-2.38-1.734-2.38-.607 0-1.047.206-1.322.616-.27.41-.406.998-.406 1.764zM94.948 51.745c0 .82-.47 1.316-1.408 1.487v.05c.524.063.926.233 1.205.51.278.275.418.633.418 1.073 0 .657-.246 1.163-.738 1.519-.488.352-1.2.527-2.134.527h-3.246v-6.943h3.234c1.78 0 2.669.592 2.669 1.776zm-1.267 3.032c0-.335-.127-.572-.381-.71-.254-.142-.636-.213-1.144-.213H90.49v1.965h1.703c.992 0 1.488-.348 1.488-1.042zm-.178-2.907c0-.276-.107-.475-.32-.596-.21-.126-.523-.189-.94-.189H90.49v1.67h1.537c.484 0 .85-.063 1.1-.188.25-.13.376-.362.376-.697zM100.556 49.968v3.56c0 .414-.033 1.023-.098 1.826l3.412-5.386h1.765v6.943h-1.389v-3.497c0-.192.01-.504.03-.935.025-.431.045-.745.062-.942l-3.401 5.374h-1.764v-6.943h1.383zM116.735 59.366h-1.347V56.91h-4.661v2.455h-1.334v-3.597h.553c.484-.708.867-1.561 1.15-2.562.287-1.004.457-2.084.511-3.24h4.132v5.802h.996v3.597zm-2.417-3.597v-4.671h-1.463a12.967 12.967 0 01-.492 2.549c-.246.837-.547 1.544-.904 2.122h2.859zM123.65 53.427c0 1.134-.285 2.02-.855 2.656-.57.636-1.363.954-2.38.954-.635 0-1.197-.147-1.685-.44a2.888 2.888 0 01-1.125-1.261c-.262-.549-.393-1.185-.393-1.909 0-1.126.283-2.005.848-2.637.566-.632 1.363-.948 2.392-.948.984 0 1.763.325 2.337.973.574.645.861 1.516.861 2.612zm-4.95 0c0 1.603.58 2.404 1.74 2.404 1.148 0 1.722-.801 1.722-2.404 0-1.586-.578-2.38-1.734-2.38-.607 0-1.048.206-1.322.616-.271.41-.406.998-.406 1.764zM129.156 49.968h1.587l-2.81 3.346 3.05 3.597h-1.661l-2.939-3.522v3.522h-1.445v-6.943h1.445v3.371l2.773-3.371zM136.84 49.968v1.155h-2.214v5.788h-1.451v-5.788h-2.214v-1.155h5.879zM143.804 53.427c0 1.134-.285 2.02-.855 2.656-.57.636-1.363.954-2.379.954-.636 0-1.197-.147-1.685-.44a2.876 2.876 0 01-1.125-1.261c-.263-.549-.394-1.185-.394-1.909 0-1.126.283-2.005.849-2.637.565-.632 1.363-.948 2.391-.948.984 0 1.763.325 2.337.973.574.645.861 1.516.861 2.612zm-4.95 0c0 1.603.58 2.404 1.74 2.404 1.148 0 1.722-.801 1.722-2.404 0-1.586-.578-2.38-1.734-2.38-.607 0-1.047.206-1.322.616-.271.41-.406.998-.406 1.764zM148.542 57.037c-.861 0-1.529-.316-2.004-.948h-.087c.058.586.087.942.087 1.067V60h-1.445V49.968h1.168c.033.13.1.44.203.929h.074c.45-.703 1.127-1.055 2.029-1.055.848 0 1.508.314 1.98.942.475.628.713 1.509.713 2.643s-.242 2.02-.726 2.656c-.479.636-1.143.954-1.992.954zm-.35-5.99c-.574 0-.994.172-1.261.516-.262.343-.393.89-.393 1.644v.22c0 .845.131 1.459.393 1.84.262.376.691.564 1.285.564.5 0 .886-.209 1.156-.627.271-.419.406-1.015.406-1.79 0-.778-.135-1.366-.406-1.764-.266-.401-.66-.602-1.18-.602zM158.593 53.427c0 1.134-.285 2.02-.855 2.656-.57.636-1.363.954-2.379.954-.636 0-1.197-.147-1.685-.44a2.884 2.884 0 01-1.126-1.261c-.262-.549-.393-1.185-.393-1.909 0-1.126.283-2.005.849-2.637.565-.632 1.363-.948 2.391-.948.984 0 1.763.325 2.337.973.574.645.861 1.516.861 2.612zm-4.95 0c0 1.603.58 2.404 1.74 2.404 1.148 0 1.722-.801 1.722-2.404 0-1.586-.578-2.38-1.734-2.38-.607 0-1.048.206-1.322.616-.271.41-.406.998-.406 1.764zM165.784 51.745c0 .82-.469 1.316-1.408 1.487v.05c.525.063.927.233 1.206.51.278.275.418.633.418 1.073 0 .657-.246 1.163-.738 1.519-.488.352-1.199.527-2.134.527h-3.247v-6.943h3.235c1.779 0 2.668.592 2.668 1.776zm-1.266 3.032c0-.335-.127-.572-.381-.71-.255-.142-.636-.213-1.144-.213h-1.667v1.965h1.704c.992 0 1.488-.348 1.488-1.042zm-.179-2.907c0-.276-.106-.475-.319-.596-.209-.126-.523-.189-.941-.189h-1.753v1.67h1.538c.483 0 .85-.063 1.1-.188.25-.13.375-.362.375-.697zM171.455 49.968v2.787h3.203v-2.787h1.445v6.943h-1.445v-2.994h-3.203v2.994h-1.445v-6.943h1.445zM182.053 56.911l-.289-.967h-.05c-.328.423-.658.712-.99.867-.332.15-.758.226-1.279.226-.668 0-1.19-.184-1.568-.553-.373-.368-.559-.889-.559-1.563 0-.715.26-1.255.781-1.62.52-.364 1.314-.563 2.379-.596l1.175-.038v-.37c0-.444-.103-.774-.308-.992-.2-.222-.514-.333-.94-.333-.349 0-.683.053-1.003.157a7.5 7.5 0 00-.922.37l-.467-1.054a4.865 4.865 0 011.211-.446 5.363 5.363 0 011.242-.157c.865 0 1.517.193 1.956.578.442.385.664.99.664 1.814v4.677h-1.033zm-2.153-1.004c.525 0 .945-.149 1.261-.446.32-.301.48-.722.48-1.262v-.602l-.874.037c-.68.025-1.176.142-1.488.352-.307.205-.461.52-.461.948 0 .31.09.55.271.722.18.167.451.25.811.25zM183.692 49.968h1.574l1.383 3.936c.209.56.349 1.088.418 1.582h.05a6.51 6.51 0 01.203-.835c.098-.33.619-1.892 1.561-4.683h1.562l-2.908 7.866c-.529 1.444-1.41 2.166-2.644 2.166-.32 0-.632-.036-.935-.107v-1.167c.217.05.465.075.744.075.697 0 1.187-.412 1.47-1.237l.252-.653-2.73-6.943zM195.317 49.968h1.586l-2.81 3.346 3.05 3.597h-1.66l-2.94-3.522v3.522h-1.445v-6.943h1.445v3.371l2.774-3.371z"/></g><path d="M164.029 3.973c-.536.134-.87.357-1.071.625a.945.945 0 000 .848c.201.268.535.492 1.071.58l18.691 3.795c1.072.268 2.076.268 3.081 0l13.13-2.678c.871.446 1.34.982 1.407 1.652-.67.312-1.072.714-1.072 1.205 0 .491.335.893.938 1.16l-1.741 5.135c0 .223.067.401.267.58.201.179.469.268.804.268h3.752c.402 0 .67-.09.871-.268.201-.179.268-.357.201-.58l-1.742-5.134c.67-.268.938-.67.938-1.206 0-.49-.335-.893-1.072-1.16 0-.76-.402-1.474-1.206-2.099l3.216-.67c.536-.088.938-.312 1.072-.58.2-.267.2-.58 0-.848-.134-.268-.536-.49-1.072-.625L185.801.133a8.924 8.924 0 00-3.081 0l-18.691 3.84zm18.021 7.232l-9.714-1.964-.938 5.045c0 .535.603.982 1.742 1.428 1.206.447 2.747.804 4.689 1.072 2.01.268 4.154.357 6.432.357 2.344 0 4.488-.09 6.431-.357 2.009-.268 3.55-.625 4.689-1.072 1.206-.446 1.742-.893 1.742-1.428l-.938-5.045-9.714 1.964a10.541 10.541 0 01-4.421 0z" fill="#F2C94C"/></svg>