<svg width="24" height="24" viewBox="0 0 24 24" fill="none" xmlns="http://www.w3.org/2000/svg">
<path d="M12 0C5.37253 0 0 5.37253 0 12C0 18.6275 5.37253 24 12 24C18.6275 24 24 18.6275 24 12C24 5.37253 18.6275 0 12 0Z" fill="#40B3E0"/>
<path d="M17.8408 6.90278L15.6974 17.7092C15.6974 17.7092 15.3977 18.4587 14.5733 18.099L9.62728 14.307L7.82878 13.4377L4.80122 12.4185C4.80122 12.4185 4.33659 12.2537 4.29159 11.8939C4.24659 11.5342 4.81622 11.3394 4.81622 11.3394L16.8515 6.61815C16.8515 6.61815 17.8407 6.18353 17.8407 6.90296" fill="white"/>
<path d="M9.24656 17.5877C9.24656 17.5877 9.10219 17.5742 8.92219 17.0046C8.74247 16.4351 7.82812 13.4375 7.82812 13.4375L15.0973 8.82126C15.0973 8.82126 15.517 8.56645 15.502 8.82126C15.502 8.82126 15.5769 8.86626 15.352 9.07607C15.1273 9.28598 9.64172 14.2169 9.64172 14.2169" fill="#D2E5F1"/>
<path d="M11.5226 15.7608L9.56634 17.5445C9.56634 17.5445 9.41334 17.6605 9.24609 17.5878L9.62072 14.2747" fill="#B5CFE4"/>
</svg>
