<svg width="24" height="24" viewBox="0 0 24 24" fill="none" xmlns="http://www.w3.org/2000/svg">
<path d="M0 12C0 18.6274 5.37258 24 12 24C18.6274 24 24 18.6274 24 12C24 5.37258 18.6274 0 12 0C5.37258 0 0 5.37258 0 12Z" fill="#7D3DAF"/>
<path d="M19.5907 7.73626L19.586 7.7173C19.2026 6.16744 17.4742 4.50436 15.8869 4.15836L15.869 4.15468C13.3017 3.66491 10.6986 3.66491 8.13183 4.15468L8.1134 4.15836C6.52667 4.50436 4.79828 6.16744 4.41437 7.7173L4.41016 7.73626C3.9362 9.9007 3.9362 12.0957 4.41016 14.2601L4.41437 14.2791C4.78191 15.7628 6.38159 17.3495 7.90959 17.7858V19.5159C7.90959 20.1421 8.67268 20.4496 9.10662 19.9978L10.8595 18.1757C11.2397 18.197 11.62 18.2088 12.0004 18.2088C13.2928 18.2088 14.5856 18.0866 15.869 17.8418L15.8869 17.8381C17.4742 17.4921 19.2026 15.829 19.586 14.2791L19.5907 14.2602C20.0647 12.0957 20.0647 9.9007 19.5907 7.73626ZM18.2036 13.9462C17.9476 14.9574 16.6353 16.2144 15.5925 16.4467C14.2275 16.7062 12.8516 16.8172 11.4771 16.7791C11.4498 16.7784 11.4235 16.789 11.4044 16.8086C11.2094 17.0088 10.1246 18.1224 10.1246 18.1224L8.76325 19.5195C8.66372 19.6233 8.48888 19.5527 8.48888 19.4095V16.5435C8.48888 16.4961 8.45507 16.4559 8.40857 16.4468C8.40831 16.4467 8.40805 16.4467 8.40778 16.4466C7.36506 16.2144 6.05324 14.9573 5.79677 13.9462C5.3702 11.9898 5.3702 10.0065 5.79677 8.05008C6.05324 7.03896 7.36506 5.7819 8.40778 5.54966C10.7918 5.09623 13.209 5.09623 15.5925 5.54966C16.6358 5.7819 17.9476 7.03896 18.2036 8.05008C18.6306 10.0065 18.6306 11.9898 18.2036 13.9462Z" fill="white"/>
<path d="M14.2684 15.2694C14.1081 15.2208 13.9553 15.1881 13.8134 15.1292C12.3433 14.5192 10.9903 13.7324 9.91855 12.5261C9.30909 11.8402 8.83207 11.0658 8.42884 10.2462C8.23762 9.85759 8.07647 9.45372 7.91222 9.05248C7.76244 8.68658 7.98305 8.30857 8.21534 8.03288C8.43331 7.77415 8.71379 7.57613 9.01755 7.43021C9.25464 7.3163 9.48851 7.38197 9.66167 7.58293C10.036 8.01739 10.3798 8.47409 10.6583 8.9777C10.8295 9.28746 10.7825 9.66611 10.4722 9.87692C10.3968 9.92816 10.3281 9.9883 10.2578 10.0462C10.1962 10.0969 10.1382 10.1481 10.096 10.2168C10.0188 10.3425 10.0151 10.4906 10.0648 10.6273C10.4474 11.6788 11.0924 12.4965 12.1508 12.9369C12.3202 13.0074 12.4903 13.0894 12.6854 13.0667C13.0122 13.0285 13.118 12.6701 13.3469 12.4828C13.5708 12.2998 13.8568 12.2974 14.0979 12.45C14.339 12.6026 14.5728 12.7664 14.8051 12.932C15.0332 13.0945 15.2603 13.2535 15.4707 13.4388C15.6729 13.6169 15.7426 13.8506 15.6287 14.0924C15.4202 14.5352 15.1167 14.9036 14.679 15.1387C14.5554 15.205 14.4078 15.2265 14.2684 15.2694C14.1081 15.2207 14.4078 15.2265 14.2684 15.2694Z" fill="white"/>
<path d="M12.0068 6.92365C13.9298 6.97753 15.5092 8.2537 15.8477 10.1548C15.9053 10.4788 15.9259 10.81 15.9515 11.1387C15.9623 11.277 15.884 11.4084 15.7348 11.4102C15.5806 11.412 15.5113 11.2831 15.5013 11.1448C15.4815 10.8712 15.4677 10.5964 15.43 10.325C15.2309 8.8925 14.0887 7.70738 12.6629 7.45307C12.4483 7.41478 12.2287 7.40473 12.0114 7.38192C11.874 7.36749 11.694 7.35917 11.6636 7.18839C11.638 7.0452 11.7589 6.93118 11.8953 6.92386C11.9323 6.92181 11.9696 6.92349 12.0068 6.92365C13.9298 6.97753 11.9696 6.92349 12.0068 6.92365Z" fill="white"/>
<path d="M14.9276 10.7121C14.9244 10.7361 14.9227 10.7926 14.9087 10.8457C14.8576 11.0388 14.5649 11.063 14.4975 10.8681C14.4776 10.8103 14.4746 10.7445 14.4745 10.6823C14.4738 10.275 14.3853 9.86811 14.1799 9.51375C13.9687 9.14953 13.6462 8.84335 13.2679 8.65808C13.0391 8.54607 12.7917 8.47645 12.5409 8.43495C12.4314 8.41683 12.3206 8.40583 12.2105 8.3905C12.077 8.37196 12.0058 8.28691 12.0121 8.15541C12.018 8.03218 12.1081 7.94355 12.2423 7.95114C12.6837 7.9762 13.1099 8.07158 13.5023 8.27933C14.3001 8.70184 14.7558 9.36877 14.8889 10.2593C14.8949 10.2996 14.9046 10.3396 14.9076 10.3801C14.9151 10.4801 14.9199 10.5802 14.9276 10.7121C14.9244 10.7361 14.9199 10.5802 14.9276 10.7121Z" fill="white"/>
<path d="M13.7323 10.6655C13.5714 10.6684 13.4853 10.5794 13.4688 10.4319C13.4572 10.329 13.4481 10.2248 13.4236 10.1247C13.3752 9.92767 13.2705 9.74504 13.1047 9.62428C13.0264 9.56725 12.9378 9.52569 12.8449 9.49889C12.7268 9.46482 12.6043 9.47419 12.4865 9.44533C12.3587 9.414 12.288 9.31046 12.3081 9.1905C12.3263 9.08133 12.4326 8.99612 12.5519 9.00475C13.2974 9.05857 13.8302 9.44401 13.9063 10.3217C13.9116 10.3836 13.918 10.4491 13.9042 10.5083C13.8807 10.6098 13.8056 10.6606 13.7323 10.6655C13.5714 10.6684 13.8056 10.6606 13.7323 10.6655Z" fill="white"/>
</svg>
