<svg width="24" height="24" viewBox="0 0 24 24" fill="none" xmlns="http://www.w3.org/2000/svg">
<path d="M0 12C0 18.6274 5.37258 24 12 24C18.6274 24 24 18.6274 24 12C24 5.37258 18.6274 0 12 0C5.37258 0 0 5.37258 0 12Z" fill="#1BD741"/>
<path d="M5.00391 19.0052L5.98407 15.524C5.35377 14.4532 5.02191 13.2349 5.02191 11.9833C5.02191 8.12976 8.15703 4.99463 12.0106 4.99463C15.8642 4.99463 18.9993 8.12976 18.9993 11.9833C18.9993 15.8369 15.8642 18.9721 12.0106 18.9721C10.8099 18.9721 9.6341 18.6647 8.59396 18.0811L5.00391 19.0052ZM8.7775 16.8096L8.99142 16.9403C9.8983 17.4939 10.9423 17.7866 12.0106 17.7866C15.2105 17.7866 17.8138 15.1832 17.8138 11.9833C17.8138 8.78346 15.2105 6.18015 12.0106 6.18015C8.81074 6.18015 6.20743 8.78346 6.20743 11.9833C6.20743 13.0983 6.52431 14.181 7.12375 15.1145L7.26781 15.3388L6.70337 17.3436L8.7775 16.8096Z" fill="white"/>
<path d="M10.0468 8.73062L9.59328 8.7059C9.45084 8.69813 9.31112 8.74572 9.20346 8.83925C8.98361 9.03016 8.63209 9.39925 8.52412 9.88022C8.3631 10.5974 8.61193 11.4755 9.25593 12.3537C9.89993 13.2319 11.1001 14.6369 13.2223 15.237C13.9062 15.4304 14.4441 15.3 14.8592 15.0345C15.1879 14.8242 15.4145 14.4867 15.4962 14.1051L15.5686 13.767C15.5916 13.6595 15.537 13.5504 15.4372 13.5044L13.9046 12.798C13.8051 12.7521 13.6871 12.7811 13.6202 12.8678L13.0185 13.6478C12.9731 13.7067 12.8953 13.7301 12.825 13.7054C12.413 13.5606 11.0328 12.9825 10.2754 11.5237C10.2426 11.4605 10.2508 11.3837 10.2973 11.3297L10.8724 10.6645C10.9311 10.5966 10.946 10.5011 10.9107 10.4185L10.25 8.87293C10.2148 8.79064 10.136 8.73549 10.0468 8.73062Z" fill="white"/>
</svg>
