<?xml version="1.0" encoding="utf-8"?>
<!-- Generator: Adobe Illustrator 24.0.3, SVG Export Plug-In . SVG Version: 6.00 Build 0)  -->
<svg version="1.1" id="Layer_1" xmlns="http://www.w3.org/2000/svg" xmlns:xlink="http://www.w3.org/1999/xlink" x="0px" y="0px"
	 viewBox="0 0 100 70" style="enable-background:new 0 0 100 70;" xml:space="preserve">
<style type="text/css">
	.st0{fill:#FFFFFF;}
</style>
<path class="st0" d="M3.7,42.1h8c4.7,0,7.9,2.1,7.9,6.3v0c0,4.2-3.2,6.5-8,6.5H9.7v4.8h-6V42.1z M11.1,50.8c1.5,0,2.5-0.7,2.5-1.9v0
	c0-1.3-0.9-1.9-2.5-1.9H9.6v3.9H11.1L11.1,50.8z"/>
<path class="st0" d="M20.8,42.1h8.6c3.1,0,5.1,0.8,6.3,2c1.1,1.1,1.7,2.6,1.7,4.2v0c0,2.3-1.3,4.5-3.5,5.4l4.1,6h-6.7l-3.4-5.1h-1.3
	v5.1h-5.8V42.1z M29.2,50.5c1.4,0,2.3-0.6,2.3-1.7v0c0-1.1-0.9-1.7-2.3-1.7h-2.6v3.5C26.6,50.5,29.2,50.5,29.2,50.5z"/>
<path class="st0" d="M47.1,41.8c-5.1,0-9.2,4.1-9.2,9.2s4.1,9.2,9.2,9.2s9.2-4.1,9.2-9.2l0,0C56.3,45.9,52.2,41.8,47.1,41.8z
	 M47.1,55c-2.2,0-4-1.8-4-4c0-2.2,1.8-4,4-4s4,1.8,4,4l0,0C51.1,53.1,49.4,55,47.1,55L47.1,55z"/>
<circle class="st0" cx="62.1" cy="51" r="3.6"/>
<path class="st0" d="M65.5,42.1h13.8v3.3h-5v14.3h-3.8V45.4h-5V42.1z"/>
<path class="st0" d="M86.7,59.7l-6.3-17.6h4.1l3.9,12.5l3.9-12.5h4.1l-6.3,17.6H86.7z"/>
<path class="st0" d="M16.8,24.8c0,3.5-3,5.3-6.6,5.3s-6.5-2-6.5-5.6v-1.7h2.5v1.7c0,2.4,1.9,3.4,4,3.4s3.9-0.9,3.9-3v-0.2
	c0-4.4-10.1-3.1-10.1-9.5v-0.2c0-3.2,2.7-5,6.2-5s6.3,2.1,6.3,5.5v1.7H14v-1.7c0-2.2-1.7-3.4-3.8-3.4s-3.6,1.1-3.6,2.8v0.2
	c0,4.4,10.1,3,10.1,9.3C16.8,24.4,16.8,24.8,16.8,24.8z"/>
<path class="st0" d="M31.3,12.3h-4.5v17.5h-2.7V12.3h-4.6v-2.1h11.8V12.3z"/>
<path class="st0" d="M35.3,10.2H38v19.5h-2.7V10.2z"/>
<path class="st0" d="M56.6,29.7h-2.7l-0.8-5.1c-0.4-2.9-1.8-3.2-3.8-3.2H46v8.3h-2.7V10.2h7.1c3.6,0,5.7,1.9,5.7,5.1v0.4
	c0,2.5-1.2,4-3.3,4.6c1.4,0.5,2.4,1.6,2.8,4.1L56.6,29.7z M46,12.3v7h4.2c2.1,0,3.4-1,3.4-3.1v-0.7c0-1.9-1.1-3.2-3.4-3.2H46z"/>
<path class="st0" d="M61,10.2h2.7v19.5H61C61,29.8,61,10.2,61,10.2z"/>
<path class="st0" d="M80.8,27.6v2.1H69.2V10.2h2.6v17.4H80.8z"/>
<path class="st0" d="M87.4,12.3v6.4h7.3v2h-7.3v6.8h9.2v2.1H84.7V10.2h11.8v2.1C96.5,12.3,87.4,12.3,87.4,12.3z"/>
<polygon class="st0" points="11.3,33.1 10.9,34.2 9.1,34.2 9.6,33.1 9.6,31.6 11.3,31.6 "/>
</svg>
