<svg id="checkmark" xmlns="http://www.w3.org/2000/svg" width="36" height="32.999" viewBox="0 0 36 32.999">
  <path id="Path_987" data-name="Path 987" d="M16.5,33.007A16.5,16.5,0,1,1,25.4,2.616a1.126,1.126,0,0,1-1.216,1.895,14.247,14.247,0,1,0,6.565,12c0-.47-.023-.935-.066-1.392a1.125,1.125,0,1,1,2.239-.218q.076.794.076,1.609A16.519,16.519,0,0,1,16.5,33.007Zm0,0" transform="translate(0 -0.008)" fill="#073440"/>
  <path id="Path_988" data-name="Path 988" d="M157.214,40.1a1.117,1.117,0,0,1-.795-.33l-6.75-6.75a1.125,1.125,0,0,1,1.591-1.592l5.955,5.955,15.7-15.7a1.125,1.125,0,1,1,1.592,1.591l-16.5,16.5A1.127,1.127,0,0,1,157.214,40.1Zm0,0" transform="translate(-138.84 -19.847)" fill="#713295"/>
</svg>
