<svg xmlns="http://www.w3.org/2000/svg" xmlns:xlink="http://www.w3.org/1999/xlink" width="346.885" height="126.243" viewBox="0 0 346.885 126.243">
  <defs>
    <linearGradient id="linear-gradient" x1="0.5" x2="0.5" y2="1" gradientUnits="objectBoundingBox">
      <stop offset="0" stop-color="#1cc4f1"/>
      <stop offset="1" stop-color="#713295"/>
    </linearGradient>
    <linearGradient id="linear-gradient-2" x1="0.841" y1="0.158" x2="0.159" xlink:href="#linear-gradient"/>
  </defs>
  <g id="Group_224" data-name="Group 224" transform="translate(-339 -36.879)">
    <path id="Path_1033" data-name="Path 1033" d="M5.194,23.54a7.705,7.705,0,0,0-.686-3.7,2.886,2.886,0,0,0-2.744-1.2H.784v-.98H21.658q4.165,0,4.165,3.92v3.675h-.98q0-5.635-6.125-5.635H9.6V32.36h13.23v1.96H9.6V48.04h8.575a9.76,9.76,0,0,0,5.292-1.225,8.227,8.227,0,0,0,3.038-4.165l.98.245L25.774,47.55A3.534,3.534,0,0,1,22.1,50H5.194ZM37.926,50.49a8.37,8.37,0,0,1-3.185-.662,6.574,6.574,0,0,1-2.769-2.181,6.482,6.482,0,0,1-1.152-4.018,5.414,5.414,0,0,1,3.455-5.292,22.072,22.072,0,0,1,9.041-1.568h1.47q0-4.8-1.323-6.566a4.486,4.486,0,0,0-3.822-1.764,6.017,6.017,0,0,0-3.528.931A5.221,5.221,0,0,0,34.251,32.6h-2.2a13.7,13.7,0,0,1,.2-2.622,3.539,3.539,0,0,1,1.029-1.788,5.711,5.711,0,0,1,2.916-1.3,22.116,22.116,0,0,1,4.435-.417,8.873,8.873,0,0,1,6.272,2.132q2.3,2.131,2.3,8.159V50h-2.45l-1.715-2.205h-.245a6.813,6.813,0,0,1-2.6,1.911A10.246,10.246,0,0,1,37.926,50.49Zm2.2-2.205a4.461,4.461,0,0,0,2.695-.784,7.9,7.9,0,0,0,1.96-2.156V38.73h-1.47a10.559,10.559,0,0,0-5.733,1.347,4.067,4.067,0,0,0-2.107,3.553,4.384,4.384,0,0,0,1.348,3.454A4.793,4.793,0,0,0,40.131,48.285ZM56.4,32.85a7.705,7.705,0,0,0-.686-3.7,2.886,2.886,0,0,0-2.744-1.2h-.49v-.98H56.4a6.1,6.1,0,0,1,2.817.514,2.842,2.842,0,0,1,1.347,1.691,10.527,10.527,0,0,1,2.646-1.887,7.478,7.478,0,0,1,3.479-.808,4.874,4.874,0,0,1,2.94.735,7.253,7.253,0,0,1,1.715,2.205l-1.96,1.47a3.219,3.219,0,0,0-1.568-1.1,6.971,6.971,0,0,0-2.352-.367,5.58,5.58,0,0,0-2.7.661,5.306,5.306,0,0,0-1.96,1.788V50H56.4ZM82.271,50.49a5.827,5.827,0,0,1-4.312-1.568,6.537,6.537,0,0,1-1.568-4.8V28.93h-3.43V26.97h3.43V22.56l2.45-2.94H80.8v7.35h5.88v1.96H80.8V44.12q0,4.41,3.43,4.41a6.925,6.925,0,0,0,1.984-.245,8.7,8.7,0,0,0,1.69-.735l.49.98a11.592,11.592,0,0,1-2.5,1.4A9.7,9.7,0,0,1,82.271,50.49Zm9.751-26.95a7.705,7.705,0,0,0-.686-3.7,2.886,2.886,0,0,0-2.744-1.2h-.98v-.98h4.41a6.166,6.166,0,0,1,2.719.465,2.707,2.707,0,0,1,1.3,1.691,13.109,13.109,0,0,1,.392,3.724v5.39a8.5,8.5,0,0,1,2.67-1.74,9.225,9.225,0,0,1,3.7-.71,9,9,0,0,1,6,1.96q2.327,1.96,2.327,6.86V50h-4.41V35.3q0-3.43-1.543-5.023a5.138,5.138,0,0,0-3.847-1.593,6.583,6.583,0,0,0-4.9,2.6V50h-4.41Zm24.5-5.88h4.9l-1.47,13.23h-1.96ZM135.24,50.49q-5.635,0-7.6-1.96a3.554,3.554,0,0,1-1.029-1.886,19.546,19.546,0,0,1-.2-3.259h.98a6.015,6.015,0,0,0,2.132,3.8,7.406,7.406,0,0,0,4.729,1.347A7.143,7.143,0,0,0,138.3,47.6a2.893,2.893,0,0,0,1.348-2.5,3.308,3.308,0,0,0-1.053-2.45,10.477,10.477,0,0,0-3.357-1.96l-2.94-1.225a12.177,12.177,0,0,1-4.41-2.744,5.445,5.445,0,0,1-1.47-3.871,5.522,5.522,0,0,1,2.254-4.679,9.462,9.462,0,0,1,5.831-1.691q5.39,0,7.35,1.96a3.547,3.547,0,0,1,1.029,1.862,19.485,19.485,0,0,1,.2,3.283h-.98a5.866,5.866,0,0,0-2.058-3.8,7.047,7.047,0,0,0-4.557-1.347,5.972,5.972,0,0,0-3.6.956,2.942,2.942,0,0,0-1.3,2.474q0,2.548,3.92,4.165l2.94,1.225a14.708,14.708,0,0,1,4.851,2.916,5.812,5.812,0,0,1-.882,8.624A10.484,10.484,0,0,1,135.24,50.49ZM13.377,92.833a19.61,19.61,0,0,1-5.292-.711A11.057,11.057,0,0,1,3.92,90.064,3.973,3.973,0,0,1,2.3,86.953V81.22H3.675q.735,5,3.087,7.2a9.227,9.227,0,0,0,6.566,2.205A7.454,7.454,0,0,0,17.836,89.4,4.112,4.112,0,0,0,19.5,85.875a4.826,4.826,0,0,0-1.225-3.332,17.841,17.841,0,0,0-3.822-2.989L8.428,75.928a14.13,14.13,0,0,1-4.68-3.969,8.346,8.346,0,0,1-1.4-4.8,7.285,7.285,0,0,1,2.965-6.125,12.926,12.926,0,0,1,8.012-2.254,19.61,19.61,0,0,1,5.292.71,11.057,11.057,0,0,1,4.165,2.058A3.973,3.973,0,0,1,24.4,64.658v5.733H23.03q-.833-5-3.087-7.2a8.314,8.314,0,0,0-6.076-2.2,6.384,6.384,0,0,0-4.19,1.274,4.27,4.27,0,0,0-1.543,3.479,4.377,4.377,0,0,0,1.2,3.16,18.392,18.392,0,0,0,3.9,2.817l6.027,3.577a17.7,17.7,0,0,1,4.925,3.9,7.075,7.075,0,0,1,1.495,4.533,7.919,7.919,0,0,1-3.21,6.688Q19.257,92.833,13.377,92.833Zm27.636-.343a12.084,12.084,0,0,1-6.419-1.617A10.422,10.422,0,0,1,30.6,86.536a14.262,14.262,0,0,1,0-12.1A10.422,10.422,0,0,1,34.594,70.1a12.084,12.084,0,0,1,6.419-1.617q5.88,0,7.6,1.715A3.77,3.77,0,0,1,49.637,72.4a37.7,37.7,0,0,1,.2,4.655h-1.47a6.878,6.878,0,0,0-1.911-4.729,6.522,6.522,0,0,0-4.7-1.642A4.881,4.881,0,0,0,37.46,73.16q-1.593,2.474-1.593,7.326,0,9.8,6.125,9.8a7,7,0,0,0,3.945-1.054A12.649,12.649,0,0,0,49,86.218l1.519,1.127a12.782,12.782,0,0,1-3.577,3.675A10.4,10.4,0,0,1,41.013,92.49ZM58.849,66.324a3.443,3.443,0,0,1-2.719-1.078,3.846,3.846,0,0,1-.956-2.646,2.568,2.568,0,0,1,2.695-2.744,3.443,3.443,0,0,1,2.72,1.078,3.846,3.846,0,0,1,.955,2.646,2.568,2.568,0,0,1-2.695,2.744ZM55.664,75.34a7.705,7.705,0,0,0-.686-3.7,2.886,2.886,0,0,0-2.744-1.2h-.49V68.97h5.88a5.077,5.077,0,0,1,2.695.588,3.241,3.241,0,0,1,1.323,1.936,14.515,14.515,0,0,1,.392,3.846V92h-6.37ZM77.959,92.49a11.082,11.082,0,0,1-5.929-1.568,10.633,10.633,0,0,1-3.944-4.287,13.266,13.266,0,0,1-1.4-6.149,14.018,14.018,0,0,1,1.4-6.517,9.72,9.72,0,0,1,3.846-4.092,10.981,10.981,0,0,1,5.537-1.4,12.1,12.1,0,0,1,5.488,1.225,9.56,9.56,0,0,1,3.871,3.454,9.32,9.32,0,0,1,1.421,5.12l-.2,3.087H73.3q0,4.655,1.421,6.787a4.51,4.51,0,0,0,3.969,2.132,7,7,0,0,0,3.945-1.054A12.649,12.649,0,0,0,85.7,86.218l1.519,1.127a12.913,12.913,0,0,1-3.553,3.675A9.89,9.89,0,0,1,77.959,92.49Zm3.675-13.328q0-4.606-1.078-6.542a3.374,3.374,0,0,0-3.087-1.936,3.421,3.421,0,0,0-3.014,1.984Q73.3,74.654,73.3,79.162Zm12.1-3.822a7.951,7.951,0,0,0-.661-3.7,2.826,2.826,0,0,0-2.719-1.2h-.49V68.97h4.851a6.709,6.709,0,0,1,2.621.416,3.091,3.091,0,0,1,1.494,1.4q2.5-2.3,7.154-2.3t6.983,2.181Q115.3,72.841,115.3,77.5V92h-6.37V77.447a7.926,7.926,0,0,0-1.249-4.949,4.121,4.121,0,0,0-3.406-1.568,6.58,6.58,0,0,0-4.165,1.225V92h-6.37Zm37.779,17.15a12.084,12.084,0,0,1-6.419-1.617,10.422,10.422,0,0,1-3.993-4.337,14.262,14.262,0,0,1,0-12.1A10.422,10.422,0,0,1,125.1,70.1a12.084,12.084,0,0,1,6.419-1.617q5.88,0,7.6,1.715A3.77,3.77,0,0,1,140.14,72.4a37.7,37.7,0,0,1,.2,4.655h-1.47a6.878,6.878,0,0,0-1.911-4.729,6.522,6.522,0,0,0-4.7-1.642,4.881,4.881,0,0,0-4.288,2.475q-1.593,2.474-1.592,7.326,0,9.8,6.125,9.8a7,7,0,0,0,3.945-1.054,12.649,12.649,0,0,0,3.063-3.013l1.519,1.127a12.782,12.782,0,0,1-3.577,3.675A10.4,10.4,0,0,1,131.516,92.49Zm23.863,0a11.082,11.082,0,0,1-5.929-1.568,10.633,10.633,0,0,1-3.945-4.287,13.266,13.266,0,0,1-1.4-6.149,14.018,14.018,0,0,1,1.4-6.517,9.72,9.72,0,0,1,3.846-4.092,10.981,10.981,0,0,1,5.537-1.4,12.1,12.1,0,0,1,5.488,1.225,9.56,9.56,0,0,1,3.871,3.454,9.32,9.32,0,0,1,1.421,5.12l-.2,3.087H150.724q0,4.655,1.421,6.787a4.51,4.51,0,0,0,3.969,2.132,7,7,0,0,0,3.945-1.054,12.649,12.649,0,0,0,3.063-3.013l1.519,1.127a12.913,12.913,0,0,1-3.553,3.675A9.89,9.89,0,0,1,155.379,92.49Zm3.675-13.328q0-4.606-1.078-6.542a3.374,3.374,0,0,0-3.087-1.936,3.421,3.421,0,0,0-3.014,1.984q-1.152,1.985-1.152,6.493Z" transform="translate(520.216 50)" fill="url(#linear-gradient)"/>
    <path id="Union_1" data-name="Union 1" d="M1366.259,1687.924s29.125,1.166,57.956-13.33c.046-.161.095-.322.141-.485a41.446,41.446,0,0,0,1.56-7.414c.153-1.732.03-2.012-1.582-2.556a5.2,5.2,0,0,1-3.6-3.844,5.657,5.657,0,0,0-1.861-3.06c-.508-.417-.677-.882-.19-1.425a1,1,0,0,0,.237-.536c5.619-2.629,11.031-5.453,16.057-8.392a1.7,1.7,0,0,1,.891,1.623c.035.624.126,1.242.184,1.865.049.51.292.7.791.51.061-.025.128-.1.168-.09a1.423,1.423,0,0,0,2.075-1.076c.11-.373.375-.042.522.086a1.528,1.528,0,0,1,.091,2.38c-.147.167-.262.363-.536.746,1.215-.17,2.233-.27,3.234-.469.63-.123,1.114-.121,1.317.589.116.408.415.426.762.444.691.033,1.376.089,2.067.157a3.917,3.917,0,0,1,1.76.577c1.394.89,1.563,1.766.568,3.083a7.341,7.341,0,0,1-.92,1.027,5.172,5.172,0,0,0-1.786,3.8,5.689,5.689,0,0,1-3.937,4.8c-1.243.422-2.536.89-2.7,2.573a3.378,3.378,0,0,1-1.006,1.779c-.582.668-1.173,1.332-1.7,2.046a3.424,3.424,0,0,1-1.772,1.336,2.56,2.56,0,0,0-1.69,1.535,2.316,2.316,0,0,1-2.391,1.55c-.627-.022-1,.189-1.115.817-.147.807-.831.918-1.515,1.059.119.326.221.6.351.947-1.1.119-1.307,1.415-2.34,1.665-.265.063-.137.476-.086.72a1.612,1.612,0,0,1-1.1,2.042c-.8.293-.9.72-.506,1.391a.566.566,0,0,1,.073.182c.113.53.742,1.171.379,1.506-.4.366-1.193.172-1.811.06a5.294,5.294,0,0,1-2.361-1.362c-.245-.2-.214-.444-.151-.715.694-3.029,1.722-5.959,2.654-8.918a72.6,72.6,0,0,0,10.78-8.27s-21.977,19.637-57.395,19.635A97.551,97.551,0,0,1,1366.259,1687.924Zm78.72-1.113a64.6,64.6,0,0,0,14.909-15.353,75.873,75.873,0,0,0,6.207-11.29c.338-.854.673-1.705,1.011-2.559.112-.537.363-1.006-.086-1.6-.232-.312.164-.948.482-1.356.717-.88.259-2.005.615-2.957q.266-.847.533-1.693a2.273,2.273,0,0,1-.084-.359c-.035-.161-.074-.325-.109-.488a.881.881,0,0,1-.277-1.129,7.583,7.583,0,0,0,.464-2.4,1.572,1.572,0,0,0-1.939-1.28c-.68.7-1.193,1.651-2.382,1.6-.692.077-1.4.424-2.04-.161a23.515,23.515,0,0,1-2.07-3.846,3.485,3.485,0,0,1,.194-3.078c.011-.072.025-.142.039-.214q.071-1.573.149-3.145a2.146,2.146,0,0,1,.186-1.189,3.873,3.873,0,0,1,.6-1.77,6.345,6.345,0,0,1,1.19-1.975c.263-.459.524-.922.787-1.382a5.748,5.748,0,0,1,.793-1.972c.28-1.013.675-1.916,1.924-1.989.053-.042.153-.094.17-.068l.007.005c.828-.289,1.658-.57,2.481-.876.573-.214.911-.084,1.065.538.172.694.38,1.379.595,2.059a2.222,2.222,0,0,0,1.244,1.539c1.55-.032,1.547-.032,1.345-1.614-.074-.575-.125-1.152-.186-1.727h0a1.788,1.788,0,0,1-.167-1.027c-.013-.118-.023-.233-.037-.351-.177-.612-.524-1-1.2-.74-.374.142-.461-.063-.582-.307a13.352,13.352,0,0,1-.783-1.588,1.83,1.83,0,0,0-2.345-1.36q-.381,1.123-.765,2.247a3.353,3.353,0,0,1-.059.682c-.2.684-.273,1.565-1.127,1.695s-1.46-.523-1.895-1.194a5.227,5.227,0,0,1-.481-3.632c-.143-.883.154-1.231,1.047-.869a2.476,2.476,0,0,0,.379.084c1.386.314,1.386.314,1.49-1.132a4.506,4.506,0,0,0-1.236-2.308c-.561-.568-.543-.975.285-1.234a7.193,7.193,0,0,0,.968-.464c.53-.7.41-1.572.608-2.361a4.644,4.644,0,0,1,.426-1.57c.065-.335.128-.672.194-1.006a2.648,2.648,0,0,0-1.194-2.764,2.385,2.385,0,0,1-1.027-2.119c-.016-.046-.028-.091-.04-.137a6.654,6.654,0,0,1-.117-2.677,6.042,6.042,0,0,0-.438-2.724c-1.036-1.509-1.559-3.321-2.761-4.734q-2.629-3.334-5.259-6.664c-.28-.356-.565-.708-.848-1.062a68.6,68.6,0,0,0-8.052-6.968c-.231-.187-.433-.587-.859-.352a20.212,20.212,0,0,1,2.167,3.178c.25.449.515.89.743,1.351.242.489.514.973-.035,1.479-.219.2.012.478.124.7.6.6,1.194,1.215,1.807,1.8.316.3.279.533-.005.822a4.581,4.581,0,0,1-1.814,1.307,3.4,3.4,0,0,1-.988.359,1.444,1.444,0,0,0-1.343.9,2.263,2.263,0,0,1-1,1.16.942.942,0,0,1-.609.352c-.055.028-.1.053-.156.073-.857.452-.891,1.4-1.189,2.182-.266.648-.529,1.3-.8,1.944.032,0,.049-.005,0,.009a.01.01,0,0,1,0-.009h-.005a.015.015,0,0,1,0,.009,2.249,2.249,0,0,1-.2,1.137c-.44,1.706-.522,1.729-1.84.622a4.2,4.2,0,0,1-1.567-2.195c-.391-.429-.778-.862-1.171-1.288-.505-.544-1.441-.971-.468-1.895.065-.062-.085-.351-.133-.533a5.827,5.827,0,0,1-2.015-2.608,1.993,1.993,0,0,1,.1-1.968q.489-.794.983-1.585c-.011-.133-.021-.266-.028-.4q-.3-.487-.6-.969v0c-.263.056-.291.319-.434.48-.167.191-.167.673-.544.5-.291-.13-.694-.378-.6-.79.112-.463-.137-.862-.154-1.378.512.219.943.4,1.378.591-.2-1.648-.231-1.677-1.868-1.771-.323-.017-.806.023-.652-.454.408-1.264-.465-1.925-1.129-2.7a2.066,2.066,0,0,1-.68-1.056,5.49,5.49,0,0,0-4.659-3.283,6.578,6.578,0,0,1-3.369-.477c-1.225-.584-1.258-.794-.207-1.653-.571-.549-1.136-1.09-1.7-1.634-.4-.312-.233-.382.154-.38.255,0,.509,0,.763,0,.468,0,.935-.006,1.4.017.542.026.647-.2.421-.624-.345-.648-.189-1.022.538-1.176.316-.067.421-.277.27-.584a3.142,3.142,0,0,0-1.949-.459l-1.2.2-1.988.756c-.654.84-1.521.554-2.354.445.051.26-.824.6.081.79.384.077,1.017.009,1.04.419.031.489-.417.9-.937,1.106l-2.119.533a3.231,3.231,0,0,0,1.369.344c.256.046.688-.023.5.463-.126.328-.176.812-.775.635-.652-.193-1.318-.333-1.977-.5l-.873,0a6.628,6.628,0,0,1-2.531.093c-.179-.019-.429-.047-.476-.268-.06-.284.2-.388.4-.479a5.271,5.271,0,0,1,1.82-.359,2.588,2.588,0,0,0,1.5-.333c-.084-.587-1.448-.256-.908-1.218.274-.482.726-.295,1.115-.06.189-.365.4-.71-.254-.854a1.234,1.234,0,0,1-.633-.424c-.286-.356-.358-.689.252-.841.733-.182,1.451-.422,2.181-.64.009-.361-.215-.349-.431-.336-.042,0-.083,0-.123,0-.72-.005-1.441,0-2.2,0,.144-.477.747-.3.873-.763-1.465-.463-2.994-.137-4.463-.433l-3.69-.037c-1.092.009-2.182.016-3.274.026h0a4.433,4.433,0,0,1-1.648.144l-.214.005a2.033,2.033,0,0,1-.484.063q-1.335.176-2.671.349c-.922.189-1.848.377-2.77.564q-.978.226-1.956.449a8.876,8.876,0,0,1-1.985.565q-1.482.481-2.968.966l-2.761,1-1.973.789-1.783.771q-1.086.5-2.168,1-2.072,1.086-4.144,2.168l-1.974,1.2q-.694.471-1.39.94-1.67,1.22-3.339,2.441c-.571.465-1.146.929-1.719,1.4a7.7,7.7,0,0,1-1.839,1.546,18.63,18.63,0,0,1-2.373,2.358c-3.131,3.411-6.272,6.822-9.15,10.445a64.551,64.551,0,0,0-9.742,16.69,23.161,23.161,0,0,0-1.259,3.478,5.276,5.276,0,0,1-.708,1.951,8.7,8.7,0,0,1,.508-2.59,40.211,40.211,0,0,1,1.977-6.952,66.914,66.914,0,0,1,15.025-24.455c.179-.188.382-.352.575-.526a17.94,17.94,0,0,1,2.412-2.349,10.76,10.76,0,0,1,1.781-1.583,12.048,12.048,0,0,1,1.921-1.6,20.715,20.715,0,0,1,2.924-2.191,7.235,7.235,0,0,1,1.653-1.15,11.608,11.608,0,0,1,1.905-1.22,17.164,17.164,0,0,1,2.994-1.76,15.527,15.527,0,0,1,2.761-1.444,8.528,8.528,0,0,1,1.969-.927,6.548,6.548,0,0,1,1.79-.78,11.293,11.293,0,0,1,2.54-1c.145-.056.293-.111.44-.167a3.048,3.048,0,0,1,1.306-.447c.147-.056.294-.11.441-.165a11.833,11.833,0,0,1,2.563-.792,8.448,8.448,0,0,1,2.177-.589,9.931,9.931,0,0,1,2.694-.61c.058.007.107.01.149.014a1.23,1.23,0,0,0-.149-.014,13.078,13.078,0,0,1,3.188-.6,11.86,11.86,0,0,1,2.955-.4,3.663,3.663,0,0,1,1.416-.186c.125,0,.25,0,.375,0a12.535,12.535,0,0,1,3.137-.193,23.168,23.168,0,0,1,5.673,0l.722.018c.061,0,.168,0,.3,0a7.607,7.607,0,0,1,2.094.174.009.009,0,0,1,.005,0c.724.079,5.492.68,6.473.854a26.112,26.112,0,0,1,4.344.966,35.763,35.763,0,0,1,6.324,1.956,37.191,37.191,0,0,1,6.519,2.757,52.136,52.136,0,0,1,6.41,3.5c8.2-1.22,30.72-3.607,39.616,5.293,0,0-8.757-8.063-36.411-3.13q.742.528,1.472,1.076,1.967,1.473,3.818,3.08c52.961-5.017,31.833,22.648,31.833,22.648,14.064-23.164-16.356-21.144-28.794-19.805.95.95,1.872,1.928,2.754,2.946a49.932,49.932,0,0,1,5.316,6.713,36.745,36.745,0,0,1,2.985,4.733,30.322,30.322,0,0,1,2.382,4.536,21.392,21.392,0,0,1,1.579,3.554c.07.188.142.377.212.567a.451.451,0,0,1,.179.421,8.318,8.318,0,0,1,.8,2.168,23.926,23.926,0,0,1,1.334,4.161c.136.522.277,1.048.415,1.572a27.381,27.381,0,0,1,1.011,4.73,1.786,1.786,0,0,1,.176.994c.015.11.03.225.043.336a1.87,1.87,0,0,1,.167,1.041,4.217,4.217,0,0,1,.2,1.578l.032.331a2.589,2.589,0,0,1,.147,1.254,12.157,12.157,0,0,1,.2,2.753c0,.135.005.268.007.4a37.936,37.936,0,0,1-.007,6.9,5.7,5.7,0,0,1-.158,2.06,16.361,16.361,0,0,1-.4,3.714,2.472,2.472,0,0,1-.191,1.231h0a13.8,13.8,0,0,1-.6,3.315,10.192,10.192,0,0,1-.585,2.57,8.138,8.138,0,0,1-.586,2.186.848.848,0,0,1-.186.613,10.277,10.277,0,0,1-.806,2.529,4.692,4.692,0,0,1-.58,1.625,4.453,4.453,0,0,1-.592,1.551,9.539,9.539,0,0,1-1,2.357,14.485,14.485,0,0,1-1.388,2.95,7.475,7.475,0,0,1-.966,1.867.407.407,0,0,1-.042.063,58.828,58.828,0,0,1-7.029,10.543,67.046,67.046,0,0,1-15.647,14c-.189.125-.394.228-.592.34a2.165,2.165,0,0,1-1.061.594C1444.267,1687.088,1444.662,1686.99,1444.979,1686.811Zm-102.3-9.944s8.2,2.535,29.367.675a114.511,114.511,0,0,0,40.278-10.876s-13.448,9.989-35.7,12.561a114.6,114.6,0,0,1-12.706.682C1355.922,1679.909,1347.51,1679.108,1342.676,1676.867Zm-10.3-23.724c5.074,21.564,52.514,12.547,87.767-1.715a4.645,4.645,0,0,1,.9-.79,1.794,1.794,0,0,0,.472-.5,2.4,2.4,0,0,0,.012-2.447c-.358-.761-1.066-.443-1.665-.357a5.474,5.474,0,0,1-5.153-2.84,3.783,3.783,0,0,0-.692-1.293c-.237-.221-.37-.7-.88-.249-.238.208-.61-.1-.892-.267-1.08-.631-2.184-1.218-3.225-1.9-.572-.375-.985-.427-1.4.149-.3.412-.566.387-1.052.153-1.679-.81-3.414-1.513-5.128-2.255-1.3-.559-1.343-.64-1.138-2.063.021-.152.062-.387-.018-.459-.892-.785-1.211-2.012-2.231-2.727-1.63-1.143-3.1-2.468-3.516-4.57a.812.812,0,0,0-.186-.344.988.988,0,0,0-1.052-.391c-.47.179.09.554-.018.844,1.1,2.043,2.6,3.828,3.87,5.826-1.181.149-1.914-.38-2.282-1.713-.175-.629-.414-1.039-1.08-1.2-.427-.1-.785-.319-.542-.914.188-.457-.179-.8-.412-1.144a3.442,3.442,0,0,1-1.127-1.891,2.985,2.985,0,0,0-2.215-2.506,1.924,1.924,0,0,1-1.285-1.127q-1.2-2.426-2.434-4.832a3.311,3.311,0,0,1,.1-2.762,6.979,6.979,0,0,0,.477-3.562,4.434,4.434,0,0,0-1.957-3.259c-.527-.328-.68-.731-.354-1.2a.931.931,0,0,0-.053-1.155,8.632,8.632,0,0,0-2.989-3.546,6.138,6.138,0,0,1-2.319-2.207,2.347,2.347,0,0,1-.063-1.315c-.172-.208-.025-.6-.449-.678-1.777-.322-3.351-1.292-5.153-1.578-.745-.119-1.175-.047-1.446.68-.159.433-.391.857-.938.9a.646.646,0,0,1-.624-.222c-.123-.2.118-.342.219-.491.214-.314.449-.614.769-1.048a2.7,2.7,0,0,0-1.881,1.357c-.724,1.134-1.379,2.312-2.081,3.458a4.748,4.748,0,0,1-2.2,2.125,1.514,1.514,0,0,1,.526-1.083c.193-.223.419-.419.6-.65a1.475,1.475,0,0,0,.354-1.555c-.276-.459-.8.1-1.218.141a4.794,4.794,0,0,0-.8.219c-.047-.365-.095-.684-.128-1-.039-.4-.168-.648-.6-.363-.37.246-.468.09-.6-.268a2.255,2.255,0,0,1,.536-2.614c.571-.557,1.258-.946,1.86-1.456.307-.263.6-.619.408-1.022-.1-.214-.292-.161-.491-.107a.826.826,0,0,1-.315.044.7.7,0,0,0-.19.01.644.644,0,0,1-.2.008.956.956,0,0,0-.33.029c-.25.05-.5.1-.576-.257a1.171,1.171,0,0,1,.524-1.455,4.535,4.535,0,0,1,.754-.219c.331-.1.82-.026.88-.474.063-.464.168-1.039-.337-1.353-.9-.561-.582-1.013.023-1.563.917-.836,1.779-1.732,2.666-2.6a3.6,3.6,0,0,1,1.343-1.006,1.742,1.742,0,0,1,1.7-.269,2.746,2.746,0,0,0,1.055.069,26.29,26.29,0,0,1,7.155-.146c.372-.021.53.207.619.522l.2.161.75.233c.224-.508.447-1.017.677-1.535.624.2.494,1.148,1.242,1.15a8.218,8.218,0,0,0,.889-1.537c.059-.265.287-.239.468-.247a1.8,1.8,0,0,0,1.845-1.085c.609.032.319,1.281,1.213.733.323-.414.661-.629,1.048-.072.291.419.513.242.735.066a.627.627,0,0,1,.389-.192c.63-.413,1.187-.052,1.746.179a3.732,3.732,0,0,0,1.579.447c1.471-.058,1.473-.044.992,1.353a4.51,4.51,0,0,0,2.177.223c.328-.02.656-.041.981-.029.67.025,1.215.1,1.564.731a.845.845,0,0,0,1.16.419c.105-.217.438-.412.2-.682-.335-.373-.6-.717-.177-1.181a1.237,1.237,0,0,1,1.613-.235,7.364,7.364,0,0,0,3.722.34.579.579,0,0,1,.195-.074c.237-.089.475-.179.708-.275.493-.207.78-.34.966.454.224.962.638.18.945-.086q.6-.888,1.2-1.774c-.232-.677-.872-1.048-1.229-1.635a3.331,3.331,0,0,1-.617-1.323.778.778,0,0,1,.491-.866c.378-.189.534.065.729.282.288.317.564.643.866.945s.477.593.212,1.034c-.251.422-.107.861.375.9.949.07,1.153.675,1.254,1.432.019.154.044.333.252.372a3.629,3.629,0,0,1,1.034-1.02c.152.584.323,1.106.417,1.642.119.649.438.714.946.414a4.923,4.923,0,0,0,1.082-3.148v0c-.934-.461-1.865-.92-2.862-1.409l.873-.834a.6.6,0,0,0-.512-.069.813.813,0,0,1-.266.023c-.561-.077-.945-.313-.724-.981.113-.344.216-.689.329-1.032.552-1.686.552-1.686,2.389-1.513.114.186-.011.307-.126.421-.319.312-1.031.375-.762,1.068.317.813.477,1.744,1.306,2.245.267.161.645.226.8-.235a15.011,15.011,0,0,1-.326-2.314c0-.9.9-.918,1.49-1.074.652-.174.376.5.492.812a2.96,2.96,0,0,1,.119.575c.186,1.211.755,1.523,1.986,1.083.263-.468.683-.919.094-1.455-.1-.091-.164-.326,0-.427a.6.6,0,0,1,.452-.016,2.431,2.431,0,0,1,1.166,1.259c.244.415.437.864.651,1.3.361.631.757,1.027,1.528.47.461-.331.724-.07.684.469-.052.692.221,1.057.952.992a.5.5,0,0,1,.57.293c.212.615,1.043.239,1.16.62.123.409-.256.922-.081,1.42.055.153.113.3.17.456a28.515,28.515,0,0,0,3.84,2.554c.663.47.946.906.593,1.674a6.426,6.426,0,0,0-.254.847c-.086.27-.024.708-.351.74-.374.037-.629-.312-.794-.649a7.837,7.837,0,0,0-.487-1.068c-.456-.666-.943-.6-1.341.137a4.349,4.349,0,0,0,.7,1.514c.72.75,1.825,1.232,1.651,2.586-.067.54-.11.682-.773.864-1.208.335-2.172-.191-3.241-.347a1.027,1.027,0,0,1-.819-.491,6.607,6.607,0,0,0-1.713-1.832c-.844-.694-1.721-1.082-2.734-.305-.144.11-.359.26-.512.047-.07-.094-.007-.3.032-.452a1.951,1.951,0,0,1,.431-.976,1.015,1.015,0,0,1,1.406-.677c.593.184.924.119,1-.549s.477-.661.968-.424a2.247,2.247,0,0,1,.777.123,1.808,1.808,0,0,0,.976.089c-.066-.068-.126-.165-.21-.2-2.475-1.106-3.642-3.486-5.241-5.437-.421-.514-.8-.612-1.2-.238a1,1,0,0,1-1.328.095,2.108,2.108,0,0,0-2.061-.188q-.1.2-.2.41c.547.345.864.982,1.525,1.19a.591.591,0,0,1,.238.261c-.8.99.463,2.194-.333,3.176-.137.8-.974,1.245-1.031,2.081.522.266,1.053.517,1.564.806a1.371,1.371,0,0,1,.792,1.609c-.307.074-.5-.135-.719-.249-1.427-.743-1.427-.745-2.187.613a1.094,1.094,0,0,1-1.406-.785c-.366-1.241-.312-1.26-1.364-.512-.214.151-.422.305-.635.458q-.789.878-1.583,1.758c-.121.158-.247.315-.37.473a1.376,1.376,0,0,1-.564.613l0,0c-.487.761-1.637,1.12-1.4,2.317a.47.47,0,0,1,0,.593c-.014.524-.03,1.05-.048,1.574a8.424,8.424,0,0,0,.433,1.2c.348.644.8.957,1.371.189l1-1.176c1.04-1.642,1.576-1.679,3.092-.167a23.626,23.626,0,0,1,2.244,3.067c.867.54,1.707,1.1,1.727,2.282.073.021.1.049.081.084s-.039.056-.06.056c0,.263,0,.526.005.789.244.824.461,1.67,1.544,1.758.137-.247.277-.494.417-.742-.671-1.418-.582-2.144.377-3.008a5.374,5.374,0,0,0,1.379-2.875l-.2-.594c-1.644-1.385-1.016-3.12-.738-4.8a1.623,1.623,0,0,1,.147-1.006,5.821,5.821,0,0,1,2.676-.007.593.593,0,0,1,.519.021,4.95,4.95,0,0,0,2.314,2.167,1.017,1.017,0,0,1,.65.992c.222.785.191,1.742,1.3,1.933a3.175,3.175,0,0,0,1.172-1.4c.606-1.094.871-1.094,1.59-.042a11.489,11.489,0,0,1,.955,2.039c.343.81.708,1.613,1.062,2.417a7.608,7.608,0,0,0,2.976,2.824,1.21,1.21,0,0,1,.789,1.12,3.441,3.441,0,0,1,.138,2.827,1.018,1.018,0,0,0,.095,1.111,4.143,4.143,0,0,1,2.466,2.105c.228.519.245.947-.466,1.091a4.191,4.191,0,0,0-.922.333c-.87.4-1.646.645-1.856-.713-.083-.521-.612-.411-.959-.519-1.093-.338-1.174-.511-.606-1.468a1.551,1.551,0,0,0,.163-1.82l-.4.2c-.5.54-1.009,1.078-1.513,1.616-.193.5-.676.919-.435,1.544.419.084.841.142,1.248.259,1.066.3,1.252,1.055.423,1.785a17.849,17.849,0,0,1-1.506,1.089l-1.963,1.423a3.913,3.913,0,0,1-1.4.93,6.7,6.7,0,0,1-1.97.806q-1.189.589-2.375,1.178a7.659,7.659,0,0,0-1.355,1.458.13.13,0,0,1-.052.152c-.091.3-.186.6-.277.9a.4.4,0,0,1-.056.175,2.137,2.137,0,0,1-.2,1.152,1.336,1.336,0,0,1-1.206,1.322c-.8.352-1.178,1.225-1.979,1.572-.1.119-.205.242-.393.186a.822.822,0,0,0-.55,1.046c.24,1.49.422,2.989.6,4.487.031.256.324.629-.082.769a.877.877,0,0,1-1.126-.359,4.473,4.473,0,0,1-.377-1.208,2.17,2.17,0,0,0-1.97-1.894,8.714,8.714,0,0,1-1.515-.4,1.849,1.849,0,0,0-1.77.187,2.177,2.177,0,0,1-2.329.091c-1.3-.643-3.658.359-3.9,1.769-.308,1.788-.885,3.539-.231,5.444.666,1.953,2.151,2.815,4.021,1.909.526-.254.641-.884.925-1.353.481-.792,1.024-1.464,2.083-1.374.972.081,1.227.474.848,1.36-.3.688-.614,1.367-.922,2.053,0,.093,0,.186,0,.279a4.3,4.3,0,0,0,2.587,1.826c1.527.468,1.539.57,1.231,2.065-.107.516-.617,1.167-.11,1.563a3.6,3.6,0,0,0,2.389,1.006,3.576,3.576,0,0,1,2.284.247c.555.338.917-.189,1.13-.636.8-1.665,2.221-1.768,3.856-1.963a14.479,14.479,0,0,1,5.879.827c.291.083.659.2.876-.189.107-.195.3-.314.473-.212s.161.392.067.542a1.728,1.728,0,0,0-.252.568,106.087,106.087,0,0,0,17.794-10.634c-22.982,18.289-66.663,35.944-94.244,35.944C1342.5,1670.733,1332.38,1665.726,1332.38,1653.143ZM1464.7,1612.6c-.428-.061-.859.01-.511-.624.173-.317-.06-.566-.128-.843a1.512,1.512,0,0,1,.079-1.325c.421-.6.035-.8-.568-.973-.161.636.042,1.341-.314,1.891-.2.309-.345.92-.92.578-.406-.242-.873-.565-.358-1.166a.7.7,0,0,0-.072-.913.694.694,0,0,1,.121-.969.587.587,0,0,1,.875-.04c.461.333.363-.091.415-.309-.281-.832-.971-1.481-1.083-2.384-.049-.4-.188-.882.379-1.067s.75.245.925.633a2.668,2.668,0,0,1,.372,1.2,3.48,3.48,0,0,0,.981,2.4,3.926,3.926,0,0,1,.9,2.924c-.017.7-.216,1.017-.793,1.017A2.241,2.241,0,0,1,1464.7,1612.6Zm-10.254-16.394c-.378-.333-.554-.868-1.15-.978-.291-.054-.126-.305-.063-.48a.827.827,0,0,0-.081-.843c-.231-.28-.251-.568.031-.769.351-.253.571.116.7.322a1.328,1.328,0,0,0,1.438.594c1.108-.142,1.695.617,2.2,1.385.449.687-.295,1.6-.95,1.6h-.077A2.836,2.836,0,0,1,1454.449,1596.207Zm-35.084-1.526c-.144-.018-.375.008-.368-.216,0-.131.137-.256.207-.378.231.114.428.193.442.422.009.147-.1.177-.2.177C1419.418,1594.685,1419.39,1594.682,1419.365,1594.68Zm-3.36-1.138c.012-.476.4-.557.769-.573.2-.007.537-.058.442.319a1.136,1.136,0,0,1-.789.816A.484.484,0,0,1,1416.005,1593.542Zm5.463-6.366c-.51-.019-.657-.347-.726-.764-.059-.378.163-.45.5-.424.391-.025.671.1.643.6-.015.285.054.59-.38.59Zm-24.4-2.21q-1.748-.41-3.478-.906a.6.6,0,0,1-.473-.664c.06-.263.282-.239.488-.215a1.368,1.368,0,0,0,.182.014c.2,0,.4,0,.605,0a6.355,6.355,0,0,0,2.021-.209c.153-.256.574-.421.395-.791-.092-.185-.276-.184-.464-.183a.854.854,0,0,1-.323-.038,3.882,3.882,0,0,0-2.242.577c-.4.282-1.02.251-1.143-.081-.2-.543.491-.5.817-.7a1.315,1.315,0,0,1,.243-.372.736.736,0,0,1-.431.04c-.987-.925-.988-.973.1-1.8.286-.219.617-.379.9-.6.68-.55,1.166-.55,1.345.6.9-1.217,1.444-.117,2.119.156a2.22,2.22,0,0,1,.922-.582c.351.384.235.918.46,1.379.379-.154.761-.31,1.157-.47-.072-.524-.764-1.248.066-1.509s.894.624,1.036,1.218a5.191,5.191,0,0,0,1.59,2.54c.351.334.733.72-.154.867-.154.026-.358.051-.3.365.135.729-.119.931-.876.693-.549-.172-1.012-.621-1.648-.531l-1.981.971a1.235,1.235,0,0,1-.72.256A.921.921,0,0,1,1397.066,1584.966Zm8.157-.9c-.021-.547.564-.929,1.09-.95a1.119,1.119,0,0,1,1.059.961c.016.365-.6.7-1.038.88C1405.8,1584.813,1405.241,1584.529,1405.223,1584.067Zm-.957-5.441a.889.889,0,0,1,.032-.095c.3-1.1.3-1.1,1.914-1.6a1.584,1.584,0,0,1-.24,1.432c.321.295,1.019.163.931.929-.056.5-.037.987-.586,1.237-.088.042-.157.139-.247.154l-.023,0C1405.623,1580.685,1404.18,1579.023,1404.266,1578.626Zm-2.857-.587c-.21-.033-.473-.1-.431-.4.028-.228.259-.259.441-.3.27-.065.337.1.319.324-.037.175-.062.385-.273.385A.389.389,0,0,1,1401.409,1578.039Zm7.07-2.33c-.428.049-.8.1-.978-.5a.834.834,0,0,1,.773-1.115c.742.095.574.987.98,1.656A1.578,1.578,0,0,0,1408.479,1575.709Zm-8.185-.581c-.09,0-.179-.008-.262,0a2.52,2.52,0,0,0-.418-.013c-.514.011-1.01.021-.384-.933.06-.093-.22-.375-.28-.589-.094-.326-.128-.657.347-.75.365-.07.663-.079.694.406.033.533.329.71.848.691.251-.011.677-.168.726.259.052.449-.338.712-.683.871a.932.932,0,0,1-.393.067C1400.423,1575.133,1400.358,1575.13,1400.294,1575.127Zm4.516-.658c.091-.191.179-.364-.084-.468s-.8.056-.626-.473a1.16,1.16,0,0,1,1.106-.824c.032,0,.063,0,.1,0a2.433,2.433,0,0,1,1.15.493c.382.24.435.5.147.864a2.535,2.535,0,0,1-1.213.943,1.748,1.748,0,0,1-.465.095C1404.691,1575.1,1404.578,1574.959,1404.81,1574.47Zm-11.476.629a.269.269,0,0,1-.3-.3c.005-.174.059-.319.277-.3a.353.353,0,0,1,.323.315c.016.191-.113.287-.294.287Zm-2.01-.876c.231-.554.918-.58,1.4-.859a.229.229,0,0,1,.315.251,1.169,1.169,0,0,1-1.223.943C1391.6,1574.542,1391.173,1574.58,1391.324,1574.223Zm16.188-1.863c.007-.309.33-.179.537-.147l.233-.005c.279-.01.633-.2.787.14s-.014.631-.407.734c-.133.012-.266.024-.4.038h-.042A.668.668,0,0,1,1407.512,1572.359Zm-.018-1.767c-.242-.034-.568-.052-.514-.428.032-.219.128-.472.437-.407a.82.82,0,0,1,.587.391c-.093.272-.222.448-.443.448A.46.46,0,0,1,1407.495,1570.593Z" transform="translate(-993.38 -1525.381)" fill="url(#linear-gradient-2)"/>
  </g>
</svg>
