<?xml version="1.0" encoding="UTF-8"?>
<svg width="15px" height="15px" viewBox="0 0 15 15" version="1.1" xmlns="http://www.w3.org/2000/svg" xmlns:xlink="http://www.w3.org/1999/xlink">
    <!-- Generator: Sketch 52.6 (67491) - http://www.bohemiancoding.com/sketch -->
    <title>Shape</title>
    <desc>Created with Sketch.</desc>
    <g id="Mobile" stroke="none" stroke-width="1" fill="none" fill-rule="evenodd">
        <g id="Mobile-Homepage-V2" transform="translate(-299.000000, -17.000000)" fill="#EA2700" fill-rule="nonzero">
            <g id="Group-4" transform="translate(299.000000, 17.000000)">
                <g id="Group-3">
                    <path d="M10.0171972,1.66716309 C7.72881356,-0.555721029 4.0042993,-0.555721029 1.71591567,1.66716309 C-0.571971889,3.89052908 -0.571971889,7.50795615 1.71591567,9.73132214 C3.75378255,11.7103781 6.92765606,11.9224026 9.21455147,10.3770331 C9.26267053,10.5982132 9.37279868,10.809274 9.54989665,10.9813029 L12.8825134,14.2185315 C13.0465852,14.3775816 13.3095556,14.6380711 13.6714246,15 C14.1556792,14.6338315 14.4772479,14.373342 14.6361306,14.2185315 C15.1212898,13.7472589 15.1212898,12.9849344 14.6361306,12.5151074 L11.3035138,9.27691509 C11.127408,9.10633174 10.9096321,8.99887387 10.6819347,8.9521321 C12.2738322,6.73021174 12.0555601,3.64766465 10.0171972,1.66716309 Z M8.69688249,8.44878265 C7.13627858,9.96471801 4.59644555,9.96471801 3.03629477,8.44878265 C1.47659713,6.93284729 1.47659713,4.46615108 3.03629477,2.95021573 C4.59644555,1.43472053 7.13627858,1.43472053 8.69688249,2.95021573 C10.2574864,4.46615108 10.2574864,6.93284729 8.69688249,8.44878265 Z" id="Shape"></path>
                </g>
            </g>
        </g>
    </g>
</svg>