<?xml version="1.0" encoding="utf-8"?>
<!-- Generator: Adobe Illustrator 21.0.0, SVG Export Plug-In . SVG Version: 6.00 Build 0)  -->
<svg version="1.1" id="Слой_1" xmlns="http://www.w3.org/2000/svg" xmlns:xlink="http://www.w3.org/1999/xlink" x="0px" y="0px"
	 viewBox="0 0 74 89.3" style="enable-background:new 0 0 74 89.3;" xml:space="preserve">
<style type="text/css">
	.st0{fill:#EA2700;}
	.st1{fill:#FFFFFF;}
</style>
<title>logo</title>
<desc>Created with Sketch.</desc>
<rect id="Rectangle" class="st0" width="74" height="68"/>
<g>
	<path class="st1" d="M4,10.6h4.4l5.7,26.1V10.6h4.4v47.2h-4.4L8.4,31.9v25.9H4V10.6z"/>
	<path class="st1" d="M21.6,10.6H34v10.1h-7.8v7.5h7.3v9.6h-7.3v9.3h8v10.7H21.6V10.6z"/>
	<path class="st1" d="M35.2,10.6h4.4L41.3,37l2.3-26.4H48L50.3,37l1.6-26.4h4.4L53,57.8h-4.6l-2.6-29.7l-2.6,29.7h-4.6L35.2,10.6z"
		/>
	<path class="st1" d="M57,42.2l4.4-0.9c0.1,2.3,0.3,4,0.6,5.1c0.5,1.9,1.2,2.9,2.1,2.9c0.7,0,1.2-0.5,1.5-1.5c0.4-1,0.5-2.1,0.5-3.4
		c0-1.2-0.2-2.3-0.5-3.3c-0.3-1-1.1-1.9-2.4-2.7c-2-1.4-3.5-3.3-4.4-5.7c-0.9-2.4-1.3-5.4-1.3-9.1c0-2.4,0.2-4.7,0.7-6.9
		s1.1-3.8,2-5.1c0.9-1.2,2.1-1.8,3.7-1.8c1.9,0,3.4,1.1,4.4,3.4c1,2.2,1.6,5.8,1.8,10.7l-4.4,0.8c-0.1-2.1-0.4-3.7-0.7-4.6
		c-0.4-1-0.9-1.4-1.5-1.4c-0.5,0-1,0.4-1.2,1.1c-0.3,0.7-0.4,1.6-0.4,2.6c0,0.8,0.1,1.4,0.3,2c0.2,0.6,0.7,1.2,1.6,1.7
		c2,1.4,3.5,2.8,4.4,4.2c0.9,1.4,1.5,3.1,1.9,5.2c0.4,2.1,0.6,4.4,0.6,7c0,3-0.3,5.8-0.8,8.4c-0.5,2.6-1.3,4.5-2.2,5.8
		c-1,1.3-2.2,2-3.6,2c-2.6,0-4.3-1.5-5.3-4.6C57.7,50.9,57.2,47,57,42.2z"/>
</g>
<g>
	<path class="st0" d="M1.6,79.4l2-0.2C3.7,80,4,80.6,4.3,81c0.4,0.4,0.9,0.6,1.5,0.6c0.7,0,1.2-0.2,1.5-0.5c0.3-0.3,0.5-0.7,0.5-1.2
		c0-0.3-0.1-0.5-0.2-0.8s-0.4-0.4-0.7-0.5c-0.2-0.1-0.8-0.3-1.7-0.5c-1.1-0.3-1.9-0.7-2.3-1.2C2.3,76.1,2,75.2,2,74.2
		c0-0.6,0.1-1.2,0.4-1.8c0.3-0.6,0.7-1,1.3-1.3c0.6-0.3,1.2-0.4,2-0.4c1.3,0,2.3,0.3,2.9,1s1,1.6,1,2.7l-2.1,0.1
		C7.5,74,7.3,73.6,7,73.3c-0.3-0.3-0.7-0.4-1.3-0.4c-0.6,0-1.1,0.2-1.4,0.5c-0.2,0.2-0.3,0.5-0.3,0.8c0,0.3,0.1,0.5,0.3,0.8
		c0.3,0.3,0.9,0.5,1.9,0.8c1,0.3,1.7,0.6,2.2,0.9c0.5,0.3,0.9,0.7,1.1,1.3s0.4,1.2,0.4,2c0,0.7-0.2,1.4-0.5,2
		c-0.3,0.6-0.8,1.1-1.4,1.4c-0.6,0.3-1.3,0.5-2.2,0.5c-1.3,0-2.3-0.4-3-1.1C2.1,81.8,1.7,80.8,1.6,79.4z M4.8,84.4h2.1v0.8
		c0,0.7,0,1.2-0.1,1.5c-0.1,0.3-0.3,0.7-0.6,0.9S5.5,88.1,5,88.2l-0.3-1.1c0.6-0.2,0.9-0.6,0.9-1.2H4.8V84.4z"/>
	<path class="st0" d="M15.1,74.4v1.9h-1.3V80c0,0.7,0,1.2,0,1.3c0,0.1,0.1,0.2,0.2,0.3s0.2,0.1,0.3,0.1c0.2,0,0.4-0.1,0.8-0.2
		l0.2,1.9c-0.5,0.2-1,0.4-1.6,0.4c-0.4,0-0.7-0.1-1-0.2s-0.5-0.3-0.6-0.6s-0.2-0.5-0.3-0.9c0-0.3-0.1-0.8-0.1-1.7v-3.9h-0.9v-1.9
		h0.9v-1.8l2-1.4v3.2H15.1z"/>
	<path class="st0" d="M16.4,73.2V71h2v2.2H16.4z M16.4,83.4v-9h2v9H16.4z"/>
	<path class="st0" d="M22.3,83.4h-2v-9h1.8v1.3c0.3-0.6,0.6-1,0.8-1.2s0.5-0.3,0.8-0.3c0.4,0,0.9,0.2,1.3,0.5l-0.6,2.1
		c-0.3-0.3-0.6-0.4-0.9-0.4c-0.3,0-0.5,0.1-0.7,0.3c-0.2,0.2-0.3,0.5-0.5,1s-0.2,1.5-0.2,3V83.4z"/>
	<path class="st0" d="M26,73.2V71h2v2.2H26z M26,83.4v-9h2v9H26z"/>
	<path class="st0" d="M40.7,83.4h-1.8v-1.3c-0.3,0.5-0.7,0.9-1.1,1.2c-0.4,0.3-0.8,0.4-1.2,0.4c-0.9,0-1.6-0.4-2.2-1.3
		c-0.6-0.8-0.9-2-0.9-3.5c0-1.5,0.3-2.7,0.9-3.5s1.3-1.2,2.2-1.2c0.8,0,1.5,0.4,2.2,1.3V71h2V83.4z M35.5,78.7c0,1,0.1,1.7,0.3,2.1
		c0.3,0.6,0.8,0.9,1.3,0.9c0.5,0,0.8-0.2,1.2-0.7c0.3-0.5,0.5-1.2,0.5-2.1c0-1-0.2-1.8-0.5-2.2C38,76.3,37.6,76,37.1,76
		c-0.5,0-0.9,0.2-1.2,0.7C35.6,77.2,35.5,77.8,35.5,78.7z"/>
	<path class="st0" d="M46.9,80.6l2,0.4c-0.3,0.9-0.6,1.5-1.2,2c-0.5,0.5-1.2,0.7-2,0.7c-1.3,0-2.2-0.5-2.9-1.5
		c-0.5-0.8-0.7-1.9-0.7-3.1c0-1.5,0.3-2.7,1-3.5s1.5-1.3,2.4-1.3c1.1,0,2,0.4,2.6,1.3c0.6,0.9,0.9,2.2,0.9,4.1h-4.9
		c0,0.7,0.2,1.3,0.5,1.7s0.7,0.6,1.1,0.6c0.3,0,0.6-0.1,0.8-0.3C46.7,81.3,46.8,81,46.9,80.6z M47,78.2c0-0.7-0.2-1.2-0.4-1.6
		S46,76,45.6,76c-0.4,0-0.8,0.2-1.1,0.6c-0.3,0.4-0.4,0.9-0.4,1.5H47z"/>
	<path class="st0" d="M56,77.2l-1.8-0.4c0.2-0.9,0.5-1.5,1-1.9c0.5-0.4,1.2-0.6,2.2-0.6c0.9,0,1.5,0.1,2,0.4c0.4,0.3,0.7,0.6,0.9,1
		c0.2,0.4,0.3,1.1,0.3,2.1l0,2.8c0,0.8,0,1.4,0.1,1.8c0.1,0.4,0.2,0.8,0.4,1.2h-1.9C59,83.3,59,83,58.9,82.7c0-0.1-0.1-0.2-0.1-0.3
		c-0.3,0.4-0.7,0.7-1.1,0.9s-0.8,0.3-1.2,0.3c-0.8,0-1.4-0.3-1.8-0.8C54.3,82.4,54,81.7,54,81c0-0.5,0.1-1,0.3-1.4
		c0.2-0.4,0.5-0.7,0.8-0.9c0.4-0.2,0.9-0.4,1.6-0.6c0.9-0.2,1.6-0.4,1.9-0.6v-0.2c0-0.5-0.1-0.8-0.3-1c-0.2-0.2-0.5-0.3-1.1-0.3
		c-0.3,0-0.6,0.1-0.8,0.3C56.3,76.5,56.2,76.7,56,77.2z M58.7,79.1c-0.3,0.1-0.6,0.2-1.2,0.4s-0.9,0.3-1.1,0.4
		c-0.3,0.2-0.4,0.5-0.4,0.8c0,0.3,0.1,0.6,0.3,0.9c0.2,0.2,0.5,0.4,0.8,0.4c0.4,0,0.7-0.1,1-0.4c0.2-0.2,0.4-0.5,0.5-0.8
		c0.1-0.2,0.1-0.6,0.1-1.2V79.1z"/>
	<path class="st0" d="M61.7,83.4v-1.9l2.8-3.9c0.5-0.6,0.8-1.1,1-1.4c-0.2,0-0.5,0-0.9,0l-2.6,0v-2h6.1v1.7l-2.8,4l-1,1.3
		c0.5,0,0.9-0.1,1-0.1h3v2.1H61.7z"/>
	<path class="st0" d="M69.7,73.2V71h2v2.2H69.7z M69.7,83.4v-9h2v9H69.7z"/>
</g>
</svg>
