<?xml version="1.0" encoding="utf-8"?>
<!-- Generator: Adobe Illustrator 21.0.0, SVG Export Plug-In . SVG Version: 6.00 Build 0)  -->
<svg version="1.1" id="Слой_1" xmlns="http://www.w3.org/2000/svg" xmlns:xlink="http://www.w3.org/1999/xlink" x="0px" y="0px"
	 viewBox="0 0 201 42" style="enable-background:new 0 0 201 42;" xml:space="preserve">
<style type="text/css">
	.st0{fill:#69A000;}
	.st1{fill:#66D100;}
	.st2{fill:#9DEF00;}
	.st3{fill:#0D8900;}
</style>
<path class="st0" d="M164.7,31.4c5.1,0.7,11.1-4,15.9-7.6c4.5-3.4,10.1-7.6,14.3-7.6c2.7,0,5.1,1.6,5.9,3.7
	c-0.1-0.8-0.5-3.2-0.7-4.4c-0.5-1.6-2-5.1-6.8-5.1c-5,0-10.6,4.3-15,7.6c-5.5,4.1-10.5,8.3-15.7,7.3c-2.8-0.5-4-1.8-4.4-3
	c0.1,0.7,0.4,3.1,0.7,4.3C159.5,28.3,160.9,30.8,164.7,31.4L164.7,31.4z"/>
<path class="st1" d="M186.4,1.2c-10-3.3-20,0.7-25.4,9.1c0.7,1.6,2.7,1.1,5.7-1.4C173.9,2.9,177.6,0.2,186.4,1.2z"/>
<path class="st2" d="M175.1,7.9c-2.2,1.6-5.4,4.1-7.7,5.6c-2.7,1.8-6.4,4.3-8.3,1c-0.3,0.8-0.8,2.5-0.8,3.3c0.1,1.1,1.2,3.4,4.3,3.5
	c4,0.1,7.7-3.4,13.4-7.6c6-4.4,10.1-7.3,15-6.8c3.9,0.4,5.7,2.3,7.1,4.1c-1.2-2.3-3.7-5.2-6.9-7.2C187.8,1.4,182.2,2.6,175.1,7.9z"
	/>
<path class="st3" d="M172.5,40.8c10,3.3,20-0.7,25.4-9.1c-0.7-1.6-2.7-1.1-5.7,1.4C185,39.1,181.2,41.8,172.5,40.8z M183.8,34.2
	c2.2-1.6,5.4-4.1,7.7-5.6c2.7-1.8,6.4-4.3,8.3-1c0.3-0.8,0.8-2.5,0.8-3.3c-0.1-1.1-1.2-3.4-4.3-3.5c-4-0.1-7.7,3.4-13.4,7.6
	c-6,4.4-10.1,7.3-15,6.8c-3.9-0.4-5.7-2.3-7.1-4.1c1.2,2.3,3.7,5.2,6.9,7.2C171.1,40.7,176.7,39.4,183.8,34.2z"/>
<g>
	<path class="st3" d="M2.6,14.2h4.6c3.5,0,5.3,1.7,5.3,5.1c0,1.5-0.5,2.7-1.4,3.5c-0.9,0.8-2.2,1.2-3.9,1.2h-1v6.4H2.6V14.2z
		 M6.1,21.5h0.7c0.6,0,1.1-0.2,1.5-0.6c0.3-0.4,0.5-1,0.5-1.7c0-1.6-0.6-2.4-1.9-2.4H6.1V21.5z"/>
	<path class="st3" d="M13,25c0-1.9,0.4-3.4,1.2-4.5c0.8-1,1.9-1.6,3.4-1.6c1.5,0,2.6,0.5,3.4,1.5c0.8,1,1.2,2.5,1.2,4.4
		c0,1.9-0.4,3.3-1.2,4.4s-1.9,1.5-3.3,1.5c-1.5,0-2.7-0.5-3.5-1.5S13,26.9,13,25z M18.9,25c0-1.2-0.1-2.1-0.2-2.6
		c-0.2-0.5-0.5-0.7-1.1-0.7c-0.5,0-0.9,0.2-1.1,0.7c-0.2,0.5-0.3,1.2-0.3,2.3c0,1.3,0.1,2.2,0.3,2.8s0.5,0.8,1.1,0.8
		c0.5,0,0.9-0.2,1.1-0.7C18.8,27,18.9,26.2,18.9,25z"/>
	<path class="st3" d="M26.9,30.5h-3.2V13.1h3.2V30.5z"/>
	<path class="st3" d="M34.3,22.4c-0.9-0.7-1.6-1-2.1-1c-0.6,0-0.9,0.2-0.9,0.7c0,0.3,0.5,0.7,1.5,1.3c1,0.5,1.7,1.1,2.2,1.7
		c0.5,0.6,0.7,1.4,0.7,2.3c0,1-0.3,1.8-1,2.5c-0.7,0.7-1.6,1-2.7,1c-0.8,0-1.4-0.1-2-0.3c-0.6-0.2-1.2-0.5-1.8-1l1.4-2.3
		c0.1,0,0.2,0.1,0.3,0.2c0.8,0.6,1.4,0.9,1.9,0.9c0.3,0,0.5-0.1,0.7-0.2c0.2-0.2,0.3-0.4,0.3-0.6c0-0.2-0.1-0.4-0.4-0.7
		s-0.8-0.6-1.6-1.1c-0.8-0.5-1.4-1-1.8-1.5c-0.4-0.5-0.5-1.1-0.5-1.7c0-1,0.3-1.9,1-2.5s1.6-1,2.7-1c1.2,0,2.4,0.4,3.5,1.2
		L34.3,22.4z"/>
	<path class="st3" d="M46.7,30.5h-3.4l-2.5-5.7h-0.1v5.7h-3.2V13.1h3.2V24h0.1l2.3-4.7h3.3l-2.7,4.9L46.7,30.5z"/>
	<path class="st3" d="M56.4,30.5h-3.2v-1.9h-0.1c-0.5,1.5-1.4,2.2-2.6,2.2c-0.9,0-1.6-0.4-2.3-1.3c-0.7-0.8-1-2.4-1-4.5
		c0-4,1.1-6,3.3-6c1.2,0,2,0.8,2.5,2.3h0.1v-2h3.2V30.5z M51.7,21.8c-0.8,0-1.1,1-1.1,2.9c0,1.1,0.1,2,0.3,2.5
		c0.2,0.5,0.6,0.8,1,0.8c0.5,0,0.8-0.2,1-0.7c0.2-0.5,0.3-1.2,0.3-2.3c0-1.1-0.1-1.9-0.3-2.4C52.6,22,52.2,21.8,51.7,21.8L51.7,21.8
		z"/>
</g>
<g>
	<path class="st2" d="M68.9,30.5h-3.2v-1.9h-0.1c-0.5,1.5-1.4,2.2-2.6,2.2c-0.9,0-1.6-0.4-2.3-1.3c-0.7-0.8-1-2.4-1-4.5
		c0-4,1.1-6,3.3-6c1.2,0,2,0.8,2.5,2.3h0.1v-2h3.2V30.5z M64.3,21.8c-0.8,0-1.1,1-1.1,2.9c0,1.1,0.1,2,0.3,2.5
		c0.2,0.5,0.6,0.8,1,0.8c0.5,0,0.8-0.2,1-0.7c0.2-0.5,0.3-1.2,0.3-2.3c0-1.1-0.1-1.9-0.3-2.4C65.2,22,64.8,21.8,64.3,21.8L64.3,21.8
		z"/>
	<path class="st2" d="M80.4,30.5h-3.4l-2.5-5.7h-0.1v5.7h-3.2V13.1h3.2V24h0.1l2.3-4.7h3.3l-2.7,4.9L80.4,30.5z"/>
	<path class="st2" d="M87.9,21.8h-2v8.7h-3.2v-8.6h-2v-2.6h2v-3.2h3.2v3.2h2V21.8z"/>
	<path class="st2" d="M97.9,26.4c0,1.3-0.4,2.4-1.2,3.2c-0.8,0.8-1.9,1.2-3.2,1.2c-1.4,0-2.6-0.4-3.4-1.2c-0.8-0.8-1.2-1.9-1.2-3.4
		v-6.9H92v7.1c0,1.2,0.5,1.8,1.4,1.8c0.8,0,1.3-0.6,1.3-1.7v-7.2h3.2V26.4z"/>
	<path class="st2" d="M108.2,30.5h-3.2v-1.9H105c-0.5,1.5-1.4,2.2-2.6,2.2c-0.9,0-1.6-0.4-2.3-1.3c-0.7-0.8-1-2.4-1-4.5
		c0-4,1.1-6,3.3-6c1.2,0,2,0.8,2.5,2.3h0.1v-2h3.2V30.5z M103.6,21.8c-0.8,0-1.1,1-1.1,2.9c0,1.1,0.1,2,0.3,2.5
		c0.2,0.5,0.6,0.8,1,0.8c0.5,0,0.8-0.2,1-0.7c0.2-0.5,0.3-1.2,0.3-2.3c0-1.1-0.1-1.9-0.3-2.4S104.1,21.8,103.6,21.8L103.6,21.8z"/>
	<path class="st2" d="M113.3,30.5h-3.2V13.1h3.2V30.5z"/>
	<path class="st2" d="M118.4,19.3v2.1h0.1c0.5-0.8,1-1.4,1.5-1.8c0.5-0.4,1-0.6,1.7-0.6c0.8,0,1.4,0.3,1.9,1
		c0.5,0.7,0.7,1.6,0.7,2.7v7.8h-3.2V24c0-0.6-0.1-1-0.4-1.3c-0.2-0.3-0.6-0.5-1-0.5c-0.9,0-1.3,0.7-1.3,2.1v6.2h-3.2V19.3H118.4z"/>
	<path class="st2" d="M125.5,25c0-1.9,0.4-3.4,1.2-4.5c0.8-1,1.9-1.6,3.4-1.6c1.5,0,2.6,0.5,3.4,1.5c0.8,1,1.2,2.5,1.2,4.4
		c0,1.9-0.4,3.3-1.2,4.4s-1.9,1.5-3.3,1.5c-1.5,0-2.7-0.5-3.5-1.5S125.5,26.9,125.5,25z M131.4,25c0-1.2-0.1-2.1-0.2-2.6
		c-0.2-0.5-0.5-0.7-1.1-0.7c-0.5,0-0.9,0.2-1.1,0.7c-0.2,0.5-0.3,1.2-0.3,2.3c0,1.3,0.1,2.2,0.3,2.8s0.5,0.8,1.1,0.8
		c0.5,0,0.9-0.2,1.1-0.7S131.4,26.2,131.4,25z"/>
	<path class="st2" d="M141.7,22.4c-0.9-0.7-1.6-1-2.1-1c-0.6,0-0.9,0.2-0.9,0.7c0,0.3,0.5,0.7,1.5,1.3c1,0.5,1.7,1.1,2.2,1.7
		s0.7,1.4,0.7,2.3c0,1-0.3,1.8-1,2.5c-0.7,0.7-1.6,1-2.7,1c-0.8,0-1.4-0.1-2-0.3c-0.6-0.2-1.2-0.5-1.8-1l1.4-2.3
		c0.1,0,0.2,0.1,0.3,0.2c0.8,0.6,1.4,0.9,1.9,0.9c0.3,0,0.5-0.1,0.7-0.2c0.2-0.2,0.3-0.4,0.3-0.6c0-0.2-0.1-0.4-0.4-0.7
		s-0.8-0.6-1.6-1.1c-0.8-0.5-1.4-1-1.8-1.5s-0.5-1.1-0.5-1.7c0-1,0.3-1.9,1-2.5c0.7-0.7,1.6-1,2.7-1c1.2,0,2.4,0.4,3.5,1.2
		L141.7,22.4z M143.5,13.9l-3.6,3.9h-2.3l1.8-3.9H143.5z"/>
	<path class="st2" d="M150.2,22.2c-0.5-0.4-0.9-0.5-1.4-0.5c-1.1,0-1.7,1.1-1.7,3.3c0,2.2,0.5,3.3,1.6,3.3c0.4,0,0.9-0.2,1.4-0.5
		v2.7c-0.9,0.3-1.6,0.5-2.2,0.5c-1.3,0-2.2-0.5-3-1.5c-0.7-1-1.1-2.4-1.1-4.1c0-2.4,0.4-4,1.2-4.9c0.8-0.9,1.8-1.3,3-1.3
		c0.8,0,1.5,0.2,2.2,0.5V22.2z"/>
	<path class="st2" d="M151.2,15.6c0-0.5,0.2-1,0.6-1.3c0.4-0.4,0.8-0.6,1.3-0.6c0.5,0,1,0.2,1.3,0.6c0.4,0.4,0.6,0.8,0.6,1.3
		s-0.2,1-0.6,1.3c-0.4,0.4-0.8,0.6-1.3,0.6c-0.5,0-1-0.2-1.3-0.6C151.4,16.6,151.2,16.1,151.2,15.6z M151.5,19.3h3.2v11.2h-3.2V19.3
		z"/>
</g>
</svg>
