<svg xmlns="http://www.w3.org/2000/svg" xmlns:xlink="http://www.w3.org/1999/xlink" width="118" height="118" viewBox="-10 -10 118 118"><path fill="none" stroke="#474747" stroke-width="2" stroke-linecap="round" stroke-linejoin="round" stroke-miterlimit="10" d="M32.375 47.679c.689 2.693 4.022 12.86 11.855 12.86M28.814 33.138c0-11.161 9.048-20.208 20.208-20.208S69.23 21.978 69.23 33.138"/><path clip-rule="evenodd" fill="none" stroke="#474747" stroke-width="2" stroke-linecap="round" stroke-linejoin="round" stroke-miterlimit="10" d="M49 1c26.51 0 48 21.49 48 48S75.51 97 49 97 1 75.51 1 49 22.49 1 49 1z"/><path fill="none" stroke="#474747" stroke-width="2" stroke-linecap="round" stroke-linejoin="round" stroke-miterlimit="10" d="M65.412 32.417l3.684.824a2.84 2.84 0 0 1 2.153 3.393l-1.988 8.892a2.84 2.84 0 0 1-3.393 2.153l-3.684-.824M32.831 32.417l-3.684.824a2.84 2.84 0 0 0-2.153 3.393l1.988 8.892a2.84 2.84 0 0 0 3.393 2.153l3.684-.824"/><path fill="none" stroke="#474747" stroke-width="2" stroke-linecap="round" stroke-linejoin="round" stroke-miterlimit="10" d="M65.114 33.797c0 8.887-6.008 21.241-16.092 21.241S32.93 42.684 32.93 33.797s7.205-16.092 16.092-16.092 16.092 7.205 16.092 16.092z"/><path fill="none" stroke="#474747" stroke-width="2" stroke-linecap="round" stroke-linejoin="round" stroke-miterlimit="10" d="M33.981 36.372s14.566 1.917 19.691-9.333c2.967 4.5 4.855 8 11.059 7M51.564 63.205h-4.667a2.675 2.675 0 0 1-2.667-2.667c0-1.467 1.2-2.667 2.667-2.667h4.667c1.467 0 2.667 1.2 2.667 2.667 0 1.467-1.2 2.667-2.667 2.667zm5.5-11l.632 9.762c6.728 1.198 13.896 4.674 21.465 23.966M41.373 52.205l-.632 9.762c-6.728 1.198-13.896 4.674-21.465 23.966"/></svg>
