<svg xmlns="http://www.w3.org/2000/svg" xmlns:xlink="http://www.w3.org/1999/xlink" width="118" height="118" viewBox="-10 -10 118 118"><path clip-rule="evenodd" fill="none" stroke="#474747" stroke-width="2" stroke-linecap="round" stroke-linejoin="round" stroke-miterlimit="10" d="M49 1c26.51 0 48 21.49 48 48S75.51 97 49 97 1 75.51 1 49 22.49 1 49 1z"/><path clip-rule="evenodd" fill="none" stroke="#474747" stroke-width="2" stroke-linecap="round" stroke-linejoin="round" stroke-miterlimit="10" d="M79.87 78.934l-34.416-6.699s-15.842-4.218-18.822-5.978c-2.98-1.76-13.972-6.099-14.648-6.775-.676-.676-.612-5.617 5.374-4.857 3.648.463 8.718 2.378 10.746 3.505 6.643.738 8.095.171 11.846 2.516"/><path clip-rule="evenodd" fill="none" stroke="#474747" stroke-width="2" stroke-linecap="round" stroke-linejoin="round" stroke-miterlimit="10" d="M79.515 65.165c.991-2.363 4.991-5.131 3.991 1.753s-4.875 17.134-8.25 17.134c-2.25 0-1.555-4.734-.84-6.18m8.257-15.308l11.657 2.25M75.257 84.053l3.438 2.102M30.177 29.848h15.61v6.16h-15.61zm20.5 0h16.5v6.16h-16.5zm15 26.15v-19.99h-15m-4.89 0h-14.11v22.45"/><path clip-rule="evenodd" fill="none" stroke="#474747" stroke-width="2" stroke-linecap="round" stroke-linejoin="round" stroke-miterlimit="10" d="M45.787 29.178h4.89v27.21h-4.89zm-14.11 13.61h14.11v4.45h-14.11z"/><path clip-rule="evenodd" fill="none" stroke="#474747" stroke-width="2" stroke-linecap="round" stroke-linejoin="round" stroke-miterlimit="10" d="M50.677 42.788h15v4.45h-15zm-3.004-13.61c-5.833 0-11.083-5.25-8.583-8.167s8.583 2.917 8.583 8.167zm.559 0c5.833 0 11.083-5.25 8.583-8.167s-8.583 2.917-8.583 8.167zm35.275 37.74l-6.394-2.929c-1.014-5.408-6.431-7.599-9.919-7.599H43.426c-3.155 0-6.309 5.12 0 6.472 6.309 1.352 16.224-.451 20.28 4.056"/></svg>
