<svg xmlns="http://www.w3.org/2000/svg" xmlns:xlink="http://www.w3.org/1999/xlink" width="118" height="118" viewBox="-10 -10 118 118"><path clip-rule="evenodd" fill="none" stroke="#474747" stroke-width="2" stroke-linecap="round" stroke-linejoin="round" stroke-miterlimit="10" d="M49 1c26.51 0 48 21.49 48 48S75.51 97 49 97 1 75.51 1 49 22.49 1 49 1z"/><path d="M84.843 28.985h-8.572m4.286-3.913v8.571m-62.082 28.44h-7.682m3.841-3.507v7.682m60.863 10.319h-11.5m5.75-5.25v11.5" fill="none" stroke="#474747" stroke-width="2" stroke-linecap="round" stroke-linejoin="round" stroke-miterlimit="10"/><g fill="#474747"><path d="M38.53 16.48c-4.825 2.322-4.434 9.366.622 11.138 5.08 1.779 9.751-3.505 7.436-8.316a6.043 6.043 0 0 0-8.058-2.822zm1.335 9.104c-3.249-1.138-3.505-5.668-.4-7.162a3.886 3.886 0 0 1 5.181 1.815c1.491 3.097-1.526 6.487-4.781 5.347zm16.597-4.219c-1.76-3.658-7.113-3.373-8.46.473-1.338 3.82 2.623 7.425 6.316 5.647a4.59 4.59 0 0 0 2.144-6.12zm-3.078 4.178c-1.942.935-4.06-.958-3.348-2.993.708-2.022 3.539-2.212 4.484-.251a2.434 2.434 0 0 1-1.136 3.244zm10.705 3.175c1.137-3.247-2.229-6.311-5.368-4.8a3.894 3.894 0 0 0-1.822 5.201c1.505 3.126 6.046 2.865 7.19-.401zm-3.102-2.933c1.461.512 1.569 2.545.18 3.214a1.745 1.745 0 0 1-2.325-.814c-.677-1.406.695-2.907 2.145-2.4z"/><path d="M68.278 31.874c-1.28-2.659-5.181-2.477-6.169.345-.767 2.191.872 4.451 3.158 4.451 2.44 0 4.083-2.569 3.011-4.796zm-4.084 1.966a1.188 1.188 0 1 1 2.143-1.031 1.19 1.19 0 0 1-2.143 1.031zm1.755 3.348a2.565 2.565 0 0 0-1.2 3.426 2.564 2.564 0 0 0 3.426 1.2 2.566 2.566 0 1 0-2.226-4.626zm1.292 2.684c-.491.236-.849-.506-.357-.743.491-.236.848.506.357.743z"/><path d="M52.537 29.669c-6.785-1.989-13.74.775-16.535 6.573-2.09 5.661-.543 4.343-.007 4.601s0 1.365 1.949-3.665c2.335-4.844 8.217-7.133 13.987-5.441 7.043 2.065 11.386 9.318 8.931 15.696-.022.057-1.285 4.193-7.438 23.553-.221.696.818.036 1.544.036.457 0 .444.834.59.376 6.888-21.572 7.744-24.517 7.773-24.631 1.788-7.159-3.054-14.829-10.794-17.098z"/><path d="M54.828 70.06a1.077 1.077 0 0 0-1.338.729c-1.432 4.863-6.581 8.164-10.801 6.928-5.2-1.524-7.521-7.741-5.231-12.802 4.875-9.964.92-17.813.573-18.465-.728-1.556-1.098-3.176-1.097-4.814.233-5.138-.482-1.078-1.077-1.078s-.779-3.18-1.078 1.077c-.001 2.173.634 4.521 1.344 5.817.04.072 3.902 7.328-.608 16.53-1.359 2.759-1.567 6.624-.031 9.978 2.587 5.646 9.005 8.102 14.787 4.403 2.533-1.62 4.459-4.159 5.285-6.964a1.076 1.076 0 0 0-.728-1.339z"/></g><path fill="none" stroke="#474747" stroke-width="2" stroke-linecap="round" stroke-linejoin="round" stroke-miterlimit="10" d="M28.997 17.827h-11.5m5.75-5.25v11.5"/></svg>
