<svg xmlns="http://www.w3.org/2000/svg" xmlns:xlink="http://www.w3.org/1999/xlink" width="118" height="118" viewBox="-10 -10 118 118"><path clip-rule="evenodd" fill="none" stroke="#474747" stroke-width="2" stroke-linecap="round" stroke-linejoin="round" stroke-miterlimit="10" d="M49 1c26.51 0 48 21.49 48 48S75.51 97 49 97 1 75.51 1 49 22.49 1 49 1z"/><path fill="none" stroke="#474747" stroke-width="2" stroke-linecap="round" stroke-linejoin="round" stroke-miterlimit="10" d="M26.333 18.083h45.333V82.43H26.333z"/><path fill="none" stroke="#474747" stroke-width="2" stroke-linecap="round" stroke-linejoin="round" stroke-miterlimit="10" d="M31.14 64.888h35.72v10.195H31.14zm25.72-22.985H31.14V31.708h25.72M36.807 69.986h24.386"/><path fill="none" stroke="#474747" stroke-width="2" stroke-linecap="round" stroke-linejoin="round" stroke-miterlimit="10" d="M55.678 35.101l4.055 4.248 6.975-11.556M56.86 57.311H31.14V47.116h25.72"/><path fill="none" stroke="#474747" stroke-width="2" stroke-linecap="round" stroke-linejoin="round" stroke-miterlimit="10" d="M55.678 50.51l4.055 4.248 6.975-11.556M26.333 23.93h45.334"/></svg>