<svg id="layer_01" fill="#4ab4f5" xmlns="http://www.w3.org/2000/svg" viewBox="0 0 39.72 39.72">
    <path d="M19.86,0A19.86,19.86,0,1,0,39.72,19.86,19.88,19.88,0,0,0,19.86,0Zm8.86,15.32c0,.2,0,.39,0,.59a13,13,0,0,1-20,10.95A9.19,9.19,0,0,0,15.49,25a4.58,4.58,0,0,1-4.27-3.18,4.39,4.39,0,0,0,.86.08,4.52,4.52,0,0,0,1.2-.16,4.57,4.57,0,0,1-3.67-4.48.3.3,0,0,1,0-.06,4.51,4.51,0,0,0,2.07.57,4.57,4.57,0,0,1-1.42-6.1,13,13,0,0,0,9.42,4.78,4.58,4.58,0,0,1,7.79-4.17,9,9,0,0,0,2.91-1.11,4.59,4.59,0,0,1-2,2.53A9.06,9.06,0,0,0,31,13a9.3,9.3,0,0,1-2.28,2.36Zm0,0"/>
</svg>