<svg xmlns="http://www.w3.org/2000/svg" width="96" height="21" viewBox="0 0 96 21">
    <g fill="#D30000" fill-rule="evenodd" opacity=".9">
        <path d="M77.576 12.14L86.61 4h6.598v7.597H96v3.961h-2.792V18H87.27v-2.388h-9.694V12.14zm9.694-.543V7.69l-4.365 3.907h4.365zM76.606 18H59.152v-1.656c0-1.657.052-4.97 7.554-6.733l1.98-.428c1.511-.32 1.668-.534 1.668-.908 0-.428-.313-.748-2.345-.748-2.657 0-2.71 1.229-2.761 1.656H59.36v-.107c0-1.923.677-5.076 8.076-5.076h.781c6.982 0 8.285 1.977 8.285 4.275v.107c0 2.458-1.72 3.366-6.826 4.168-.677.106-1.406.213-1.927.32-2.866.481-3.491.962-3.491 1.39h7.138v-1.443h5.21V18M43.636 4h6.122v8.802h9.394V17H43.636V4M9.562 18h-.466C1.757 18 0 14.21 0 11.21v-.526C0 7.474 1.809 4 9.82 4h.62c8.838 0 9.82 3.368 9.82 5.263h-6.202c-.103-.316-.517-1.474-3.824-1.474-3.05 0-4.084 1.316-4.084 3.053V11c0 1.684 1.086 3.21 4.032 3.21 3.05 0 3.876-1.052 3.876-1.42h-4.031v-2.685h10.337v7.632h-3.928c-.104-.421-.414-1.21-.724-1.632-.413.474-2.016 1.895-6.15 1.895M31.515 21a9.86 9.86 0 0 1-7.178-3.098 10.576 10.576 0 0 1-3.004-7.402c0-2.782 1.07-5.46 3.004-7.402A9.86 9.86 0 0 1 31.515 0a9.86 9.86 0 0 1 7.178 3.098 10.576 10.576 0 0 1 3.004 7.402c0 2.783-1.07 5.46-3.004 7.402A9.86 9.86 0 0 1 31.515 21zm-2.8-7.613c.713.736 1.731 1.208 2.8 1.208 1.018 0 2.037-.42 2.8-1.208a4.353 4.353 0 0 0 1.12-2.887c0-1.05-.407-2.1-1.17-2.888-.713-.734-1.732-1.207-2.8-1.207-1.019 0-2.037.42-2.8 1.207-.663.788-1.07 1.838-1.07 2.888 0 1.05.407 2.1 1.12 2.887z"/>
    </g>
</svg>
