<svg xmlns="http://www.w3.org/2000/svg" width="71" height="31" viewBox="0 0 71 31">
    <g fill="none" fill-rule="nonzero" opacity=".9">
        <path fill="#FF002B" d="M0 0h70.434v30.559H0z"/>
        <path fill="#FFF" d="M16.975 23.1c-.413-.575-.65-1.254-.71-2.03a16.716 16.716 0 0 1 0-2.57c.082-1.078.477-1.96 1.22-2.643.742-.683 1.667-1.025 2.74-1.025h3.89c.269 0 .526.117.715.323.19.206.295.485.294.776.001.606-.45 1.098-1.008 1.1h-.32c.205.44.329.93.37 1.468.066.85.066 1.704 0 2.553-.083 1.08-.495 1.96-1.222 2.644-.725.682-1.632 1.026-2.72 1.026-.51 0-.982-.082-1.419-.236 0 0-.606.406-.52 1.171.077.68.71.904.71.904a5.112 5.112 0 0 1 2.675-.751c2.733 0 4.957 2.114 4.957 4.711 0 .015-.002.028-.003.043h-2.117l.002-.043c0-1.324-1.274-2.403-2.84-2.403-1.565 0-2.838 1.079-2.838 2.403l.002.043h-2.118l-.002-.043c0-.807.214-1.565.592-2.23-.588-.464-.971-1.307-1.13-2.029-.136-.614-.218-1.859.8-3.161zm1.483-2.425c.083 1.06.76 1.744 1.766 1.744 1.005 0 1.682-.683 1.747-1.744.05-.598.05-1.2 0-1.797-.049-1.025-.71-1.744-1.747-1.744-1.006 0-1.684.683-1.766 1.744-.05.598-.05 1.2 0 1.797zm13.175-4.453c0 .56-.397 1.136-1.042 1.136-.118 0-.315-.036-.58-.09a2.346 2.346 0 0 0-.563-.072h-.1c-.58.018-.862.415-.862 1.173v5.173c0 .704-.497 1.227-1.11 1.227-.612 0-1.108-.557-1.108-1.227v-5.625c0-1.895 1.042-3.085 2.915-3.085.595 0 1.076.054 1.423.144.68.2 1.027.614 1.027 1.246zm15.575 6.237a.958.958 0 0 0-.614-.216c-.115 0-.246.017-.38.054-.448.126-.779.199-1.027.199-.712 0-1.077-.452-1.077-1.337v-3.717h2.07c.546 0 1.028-.47 1.028-1.048 0-.63-.481-1.082-1.027-1.082H44.11v-1.228c0-.703-.496-1.263-1.108-1.263-.614 0-1.111.56-1.111 1.263v7.128c0 2.15 1.01 3.557 2.98 3.557.846 0 1.508-.125 2.02-.38.467-.232.697-.576.697-1.064a.999.999 0 0 0-.38-.866zm9.027-7.238a.986.986 0 0 0-.78-.36c0 .017 0 .017-.015.017-.333 0-.614.145-.847.416l-2.565 2.887c-.249.272-.514.415-.83.415h-.18V12.93c0-.703-.497-1.245-1.111-1.245-.612 0-1.108.542-1.108 1.245v10.595c0 .668.512 1.245 1.108 1.245.646 0 1.11-.54 1.11-1.245v-2.635h.216c.298 0 .562.144.795.414l2.598 3.049c.446.557 1.225.542 1.638.054.217-.253.316-.524.316-.83 0-.344-.116-.67-.35-.939l-2.612-2.956 2.632-2.835c.399-.415.399-1.1-.015-1.625zm-16.019 1.067v6.387l-.003.002v.846c0 .702-.468 1.246-1.096 1.246-.415 0-.783-.165-.972-.557l-.149.086a4.435 4.435 0 0 1-2.003.47c-2.119 0-3.377-1.39-3.56-3.573a16.81 16.81 0 0 1 0-2.61c.082-1.101.463-2.003 1.16-2.707.695-.703 1.588-1.046 2.666-1.046.756 0 1.451.212 2.092.524.2-.19.458-.296.725-.296.613 0 1.14.559 1.14 1.228zm-2.22 1.328c-.214-.21-.924-.474-1.638-.474-1.06 0-1.64.595-1.722 1.805-.017.36-.017 1.165 0 1.833.05 1.101.596 1.769 1.59 1.769.696 0 1.291-.181 1.77-.542v-4.391zm27.076-1.328v6.387l-.003.002v.846c0 .702-.468 1.246-1.095 1.246-.415 0-.784-.165-.973-.557l-.149.086a4.435 4.435 0 0 1-2.003.47c-2.12 0-3.378-1.39-3.56-3.573a16.81 16.81 0 0 1 0-2.61c.083-1.101.463-2.003 1.16-2.707.695-.703 1.589-1.046 2.666-1.046.756 0 1.451.212 2.092.524.2-.19.458-.296.724-.296.614 0 1.141.559 1.141 1.228zm-2.22 1.328c-.214-.21-.924-.474-1.638-.474-1.06 0-1.64.595-1.722 1.805-.017.36-.017 1.165 0 1.833.05 1.101.597 1.769 1.59 1.769.696 0 1.291-.181 1.77-.542v-4.391z"/>
    </g>
</svg>
