<svg xmlns="http://www.w3.org/2000/svg" width="105" height="22" viewBox="0 0 105 22">
  <g fill="none" fill-rule="evenodd" opacity=".9">
    <path fill="#021734" d="M48.611 0H95.45c.979 0 1.772.804 1.772 1.795v18.41c0 .991-.793 1.795-1.772 1.795H1.772A1.784 1.784 0 0 1 0 20.205V1.795C0 .804.794 0 1.772 0h46.84"/>
    <path fill="#CE402A" d="M85.933 0l-5.239 22h22.536c.47 0 .92-.19 1.251-.526.333-.336.519-.793.519-1.27V1.796c0-.476-.186-.933-.519-1.27a1.758 1.758 0 0 0-1.25-.525H85.932"/>
    <path fill="#FFFFFE" d="M17.647 14.857h-2.08l1.056-4.683c.016-.096.065-.32.065-.513 0-.593-.52-.93-1.121-.93-.634 0-1.235.449-1.641.898l-1.154 5.228h-2.08l1.056-4.683c.033-.16.081-.353.081-.561-.016-.497-.422-.883-1.153-.883-.618 0-1.219.466-1.61.899l-1.17 5.228H5.834l1.74-7.746h2.063l-.228 1.01c.439-.465 1.235-1.203 2.389-1.203 1.543 0 2.161 1.107 2.161 1.396v.032c.618-.754 1.511-1.428 2.714-1.428 1.186 0 2.242.706 2.242 1.973 0 .208-.049.513-.081.641l-1.186 5.325zm6.044.192c-2.502 0-3.883-1.491-3.883-3.512 0-2.421 1.885-4.619 4.533-4.619 2.503 0 3.9 1.508 3.9 3.528 0 2.406-1.885 4.603-4.55 4.603zm.082-1.812c1.381 0 2.323-1.299 2.323-2.694 0-1.123-.682-1.813-1.82-1.813-1.397 0-2.34 1.316-2.34 2.695 0 1.123.683 1.812 1.837 1.812zm8.06 1.812c-1.398 0-2.34-.53-2.34-1.684 0-.112.016-.337.064-.53l.878-3.96h-1.3l.406-1.764h1.3l.471-2.117h2.08l-.471 2.117h1.593l-.423 1.764h-1.592l-.748 3.368a2.162 2.162 0 0 0-.032.32c0 .417.243.674.763.674.212 0 .472-.08.569-.16l.081 1.635c-.308.209-.796.337-1.3.337zm6.353 0c-2.502 0-3.884-1.491-3.884-3.512 0-2.421 1.885-4.619 4.534-4.619 2.502 0 3.9 1.508 3.9 3.528 0 2.406-1.885 4.603-4.55 4.603zm.081-1.812c1.381 0 2.324-1.299 2.324-2.694 0-1.123-.683-1.813-1.82-1.813-1.398 0-2.34 1.316-2.34 2.695 0 1.123.682 1.812 1.836 1.812zm7.442 1.62h-2.063l1.332-5.982h-1.3l.406-1.764h1.284l.097-.433C45.807 5.203 46.717 4 48.488 4c.829 0 1.544.224 2.064.753L49.528 5.94c-.228-.224-.487-.337-.878-.337-.633 0-.958.385-1.12 1.107l-.098.401h1.609l-.407 1.764h-1.592l-1.333 5.982zm7.036-7.939c1.04 0 1.983.45 2.503 1.22l.211-1.027h2.08L55.8 14.857h-2.08l.228-.962c-.667.77-1.414 1.154-2.356 1.154-1.788 0-2.99-1.154-2.99-3.207 0-2.341 1.462-4.924 4.143-4.924zm.326 1.812c-1.35 0-2.308 1.267-2.308 2.695 0 1.106.747 1.812 1.739 1.812.731 0 1.381-.385 1.803-.914l.602-2.694c-.341-.513-1.008-.899-1.836-.899zm12.284 6.127h-2.502l-1.447-3.031-1.218 1.042-.44 1.989h-2.063L60.074 4.16h2.063l-1.413 6.27 3.64-3.319h2.632l-3.9 3.512 2.259 4.234zm4.013.192c-1.397 0-2.34-.53-2.34-1.684 0-.112.017-.337.065-.53l.878-3.96h-1.3l.406-1.764h1.3l.471-2.117h2.08l-.47 2.117h1.591l-.422 1.764h-1.592l-.748 3.368a2.162 2.162 0 0 0-.032.32c0 .417.243.674.763.674.212 0 .472-.08.57-.16l.08 1.635c-.308.209-.796.337-1.3.337zm1.251 2.759l.683-1.765c.179.08.504.129.797.129.422 0 .698-.145.974-.546l.488-.721-1.398-7.794h2.145l.83 5.388 3.282-5.388h2.274l-5.72 9.012c-.86 1.38-1.738 1.877-3.038 1.877-.455 0-.943-.064-1.317-.192zm12.232-2.638c-.656 0-1.184-.559-1.184-1.234 0-.79.656-1.447 1.424-1.447.655 0 1.167.56 1.167 1.234 0 .79-.64 1.447-1.407 1.447zm7.486 0c-1.056 0-1.951-.46-2.463-1.25l-.88 4.08h-2.032L87.33 7.027h2.031l-.224.987c.656-.79 1.408-1.184 2.336-1.184 1.727 0 2.927 1.184 2.927 3.29 0 2.385-1.44 5.05-4.063 5.05zm-.336-1.859c1.344 0 2.271-1.3 2.271-2.763 0-1.135-.735-1.86-1.711-1.86-.72 0-1.344.412-1.776.955l-.592 2.763c.336.527.992.905 1.808.905zm6.814 1.662h-2.031L97.135 4h2.032l-2.352 10.973z"/>
  </g>
</svg>