<svg xmlns="http://www.w3.org/2000/svg" width="46" height="29" viewBox="0 0 46 29">
    <g fill="none" fill-rule="evenodd">
        <path fill="#0A0B09" d="M3.85 14.772a.52.52 0 0 0 .43-.187l.156-.16c.131-.138.168-.237.168-.436v-.783c0-.199-.037-.298-.168-.435l-.156-.162a.519.519 0 0 0-.43-.186H2.367c-.083 0-.119.037-.119.124v2.1c0 .088.036.125.12.125H3.85zM0 18.948v-7.93c0-.26.12-.385.37-.385h4.28c.575 0 .862.15 1.245.547l.466.485c.382.397.49.72.49 1.193v1.479c0 .472-.108.796-.49 1.193l-.466.485c-.383.398-.67.547-1.244.547H2.367c-.083 0-.119.037-.119.124v2.262c0 .261-.12.385-.37.385H.37c-.251 0-.371-.124-.371-.385zM12.636 14.66c.18 0 .269-.05.392-.186l.18-.2c.123-.136.157-.235.157-.434v-.634c0-.199-.034-.298-.157-.435l-.146-.162c-.123-.136-.224-.186-.404-.186h-1.627c-.079 0-.112.037-.112.124v1.989c0 .087.033.124.112.124h1.605zm-3.827 4.288v-7.93c0-.26.112-.385.348-.385h4.264c.528 0 .797.15 1.156.547l.438.485c.36.397.46.72.46 1.193v1.044c0 .534-.1.746-.46 1.143l-.55.61c-.09.099-.078.198-.022.347l1.178 2.909c.1.248 0 .422-.258.422h-1.504c-.202 0-.326-.099-.404-.298l-.943-2.3c-.056-.149-.123-.198-.28-.198H11.03c-.079 0-.112.037-.112.124v2.287c0 .261-.112.385-.348.385H9.157c-.236 0-.348-.124-.348-.385zM16.638 18.948v-7.93c0-.26.114-.385.353-.385h5.168c.238 0 .352.125.352.385v1.23c0 .262-.114.386-.352.386h-3.272c-.08 0-.113.037-.113.124v1.057c0 .087.034.124.113.124h2.772c.238 0 .352.125.352.385v1.169c0 .26-.114.385-.352.385h-2.772c-.08 0-.113.037-.113.124v1.206c0 .087.034.124.113.124h3.272c.238 0 .352.125.352.386v1.23c0 .261-.114.385-.352.385H16.99c-.24 0-.353-.124-.353-.385M25.492 16.002c-.56 0-.859-.136-1.269-.546l-.26-.261c-.362-.36-.474-.66-.474-1.168v-.97c0-.56.125-.883.51-1.268l.61-.61c.398-.397.696-.546 1.28-.546h3.855c.26 0 .385.125.385.385v1.23c0 .262-.124.386-.385.386h-3.357a.487.487 0 0 0-.373.15l-.15.149a.437.437 0 0 0-.149.36v.124c0 .112.038.199.15.311l.061.062c.1.1.2.15.336.15h2.077c.56 0 .858.136 1.268.546l.26.261c.361.36.473.659.473 1.168v.995c0 .559-.124.882-.51 1.267l-.596.61c-.398.397-.709.546-1.293.546h-4.066c-.261 0-.386-.124-.386-.385v-1.23c0-.261.125-.386.386-.386h3.568c.162 0 .274-.05.373-.149l.15-.15a.437.437 0 0 0 .149-.36v-.149c0-.111-.037-.198-.15-.31l-.062-.062a.443.443 0 0 0-.335-.15h-2.076M33.464 15.616c-.54 0-.827-.13-1.222-.517l-.252-.246c-.347-.34-.455-.622-.455-1.104v-.916c0-.528.12-.833.491-1.197l.587-.575c.384-.376.671-.517 1.234-.517h3.714c.252 0 .372.118.372.364v1.162c0 .247-.12.364-.372.364h-3.234a.474.474 0 0 0-.36.141l-.143.141a.408.408 0 0 0-.145.34v.118c0 .106.037.188.145.294l.06.058c.095.094.19.141.323.141h2c.54 0 .827.129 1.223.517l.251.246c.348.34.455.622.455 1.104v.939c0 .528-.12.833-.49 1.197l-.576.576c-.383.375-.683.516-1.246.516h-3.917c-.252 0-.372-.117-.372-.364v-1.162c0-.247.12-.364.372-.364h3.438a.475.475 0 0 0 .36-.14l.143-.142a.409.409 0 0 0 .144-.34v-.141c0-.106-.036-.188-.144-.294l-.06-.058a.431.431 0 0 0-.323-.141h-2.001M4.05 4.214c.192 0 .299-.047.43-.176l.157-.152c.131-.13.168-.224.168-.412v-.739c0-.188-.037-.282-.168-.41l-.156-.153a.536.536 0 0 0-.432-.177H2.564c-.084 0-.12.036-.12.118v1.984c0 .082.036.117.12.117h1.485zM.19 8.16V.669c0-.247.12-.364.372-.364h4.29c.575 0 .862.14 1.245.517l.468.457c.383.376.49.681.49 1.127v1.398c0 .445-.107.75-.49 1.126l-.468.458c-.383.376-.67.516-1.246.516H2.564c-.084 0-.12.036-.12.118v2.137c0 .246-.12.364-.371.364H.563c-.252 0-.372-.118-.372-.364zM10.196 5.717c0 .235.048.34.204.493l.251.247c.156.152.276.199.503.199h.959c.227 0 .347-.047.503-.2l.252-.246c.155-.152.203-.258.203-.493V3.11c0-.235-.048-.34-.203-.493l-.252-.247c-.156-.152-.276-.2-.503-.2h-.959c-.227 0-.347.048-.503.2l-.251.247c-.156.152-.204.258-.204.493v2.606zm-.982 2.29l-.78-.764c-.37-.364-.49-.67-.49-1.197V2.782c0-.528.12-.834.49-1.197l.78-.763c.383-.377.67-.517 1.245-.517h2.349c.575 0 .863.14 1.246.517l.779.763c.371.363.491.669.491 1.197v3.264c0 .528-.12.833-.491 1.197l-.78.763c-.382.376-.67.517-1.245.517h-2.349c-.575 0-.862-.141-1.245-.517zM16.319 8.159V.669c0-.247.12-.364.371-.364h1.51c.251 0 .371.117.371.364v5.846c0 .082.036.118.12.118h2.875c.252 0 .372.117.372.363V8.16c0 .246-.12.364-.372.364H16.69c-.252 0-.371-.118-.371-.364M24.753 5.377c-.54 0-.827-.13-1.222-.517l-.251-.247c-.348-.34-.456-.622-.456-1.103v-.916c0-.528.12-.833.492-1.197l.587-.575c.383-.377.67-.517 1.234-.517h3.714c.251 0 .371.117.371.364V1.83c0 .247-.12.364-.371.364h-3.235a.474.474 0 0 0-.36.141l-.143.14a.408.408 0 0 0-.144.341v.118c0 .105.036.188.144.293l.06.059a.431.431 0 0 0 .323.14h2c.54 0 .828.13 1.223.517l.252.247c.347.34.455.622.455 1.103v.94c0 .528-.12.833-.491 1.197l-.575.575c-.384.376-.683.517-1.246.517h-3.918c-.252 0-.372-.118-.372-.364V6.996c0-.246.12-.363.372-.363h3.438a.473.473 0 0 0 .36-.141l.144-.141a.41.41 0 0 0 .143-.34V5.87c0-.106-.036-.188-.143-.294l-.06-.059a.432.432 0 0 0-.324-.14h-2.001M30.732 8.159V.669c0-.247.12-.364.371-.364h1.51c.252 0 .371.117.371.364v2.735c0 .094.084.106.144.035L35.213.727c.228-.293.395-.422.755-.422h1.474c.323 0 .443.258.24.528l-2.026 2.63c-.084.106-.072.176-.012.305l2.133 4.227c.144.293.084.528-.24.528h-1.473c-.36 0-.54-.106-.707-.423L34.003 5.46c-.036-.082-.108-.094-.168-.012l-.743.904a.484.484 0 0 0-.108.34V8.16c0 .246-.12.364-.371.364h-1.51c-.251 0-.371-.118-.371-.364M42.797 4.977c.072 0 .096-.047.084-.105l-.671-2.724c-.024-.082-.12-.082-.144 0l-.671 2.724c-.012.058.012.105.084.105h1.318zm-1.75 1.773c-.083 0-.12.035-.143.117L40.592 8.1c-.083.329-.191.423-.467.423h-1.486c-.299 0-.383-.176-.323-.423L40.28.775c.096-.353.24-.47.67-.47h2.385c.431 0 .575.117.671.47L45.972 8.1c.06.247-.024.423-.323.423H44.15c-.276 0-.384-.094-.467-.423l-.312-1.233c-.024-.082-.06-.117-.143-.117h-2.181z"/>
        <path fill="#7B7C78" d="M1.27 28.483l-.779-.762C.12 27.356 0 27.05 0 26.523v-3.264c0-.528.12-.833.491-1.197l.78-.763c.383-.376.67-.517 1.245-.517h3.595c.25 0 .37.118.37.364v1.162c0 .247-.12.364-.37.364H3.175c-.227 0-.347.06-.503.211l-.216.212c-.156.153-.204.258-.204.493v2.606c0 .235.048.34.204.493l.348.34c.155.153.275.2.503.2H4.36c.084 0 .12-.035.12-.117v-2.066c0-.247.108-.364.371-.364h1.51c.252 0 .371.117.371.364v3.592c0 .247-.12.364-.371.364H2.516c-.575 0-.862-.14-1.246-.517M12.22 24.586a.51.51 0 0 0 .42-.176l.192-.188c.131-.13.167-.223.167-.411v-.598c0-.188-.036-.282-.167-.411l-.156-.153a.536.536 0 0 0-.431-.176h-1.737c-.085 0-.12.035-.12.117v1.878c0 .083.035.118.12.118h1.713zm-4.085 4.05v-7.49c0-.246.12-.364.371-.364h4.553c.563 0 .851.141 1.235.517l.467.458c.383.375.49.68.49 1.126v.986c0 .506-.107.705-.49 1.08l-.587.576c-.096.094-.084.188-.024.329l1.258 2.747c.108.234 0 .399-.276.399h-1.605c-.216 0-.348-.094-.432-.282l-1.006-2.171c-.06-.142-.132-.188-.3-.188h-1.281c-.085 0-.12.035-.12.117v2.16c0 .247-.12.364-.372.364h-1.51c-.251 0-.371-.117-.371-.364zM18.906 29c-.575 0-.862-.14-1.246-.517l-.778-.762c-.372-.365-.492-.67-.492-1.198v-5.377c0-.246.12-.364.372-.364h1.51c.25 0 .37.118.37.364v5.001c0 .235.049.34.204.493l.252.247c.156.153.275.2.503.2h.515c.228 0 .348-.047.504-.2l.251-.247c.156-.152.204-.258.204-.493v-5.001c0-.246.12-.364.372-.364h1.51c.25 0 .37.118.37.364v5.377c0 .528-.12.833-.49 1.198l-.78.762c-.383.376-.67.517-1.246.517h-1.905M28.551 24.692c.192 0 .3-.048.432-.177l.156-.152c.131-.13.168-.223.168-.411v-.74c0-.187-.037-.281-.168-.41l-.156-.153a.537.537 0 0 0-.432-.176h-1.485c-.084 0-.12.035-.12.117v1.984c0 .082.036.118.12.118h1.485zm-3.858 3.944v-7.49c0-.246.12-.364.372-.364h4.29c.575 0 .862.141 1.245.517l.467.458c.384.375.492.68.492 1.126v1.398c0 .446-.108.751-.492 1.127l-.467.458c-.383.375-.67.516-1.246.516h-2.288c-.084 0-.12.035-.12.117v2.137c0 .247-.12.364-.372.364h-1.509c-.252 0-.372-.117-.372-.364zM35.992 25.455c.072 0 .096-.047.084-.106l-.671-2.724c-.024-.082-.12-.082-.144 0l-.671 2.724c-.012.059.012.106.084.106h1.318zm-1.75 1.773c-.083 0-.12.034-.143.117l-.312 1.232c-.084.33-.191.423-.467.423h-1.486c-.299 0-.383-.176-.323-.423l1.965-7.325c.095-.352.24-.47.67-.47h2.385c.431 0 .575.118.67.47l1.966 7.325c.06.247-.024.423-.323.423h-1.498c-.276 0-.384-.094-.468-.423l-.31-1.232c-.025-.083-.06-.117-.145-.117h-2.18z"/>
    </g>
</svg>
