<svg xmlns="http://www.w3.org/2000/svg" width="141" height="23" viewBox="0 0 141 23">
    <g fill="none" fill-rule="evenodd" opacity=".9">
        <path fill="#4C9740" d="M.821 0h140.028v23H.821z"/>
        <path fill="#FFF" fill-rule="nonzero" d="M9.36 14.947a2.18 2.18 0 0 0 1.534-.66c.406-.426.632-.993.632-1.606 0-.567-.226-1.181-.632-1.606a1.842 1.842 0 0 1-.497-1.228c0-.472.18-.944.497-1.228.316-.33.767-.519 1.173-.519.452 0 .903.189 1.174.52l.316-.331a2.102 2.102 0 0 0-1.535-.661c-.587 0-1.128.236-1.534.66a2.303 2.303 0 0 0-.632 1.606c0 .614.225 1.181.632 1.606.316.33.496.803.496 1.228 0 .472-.18.944-.496 1.228-.316.33-.768.519-1.174.519-.451 0-.903-.189-1.173-.52l-.316.378c.406.378.993.614 1.534.614zm6.544-2.22c0 1.842-.677 3.59-1.896 4.865a6.407 6.407 0 0 1-4.649 1.983c-1.76 0-3.43-.708-4.649-1.983l.993-1.04c.948.992 2.257 1.606 3.611 1.606a4.88 4.88 0 0 0 3.611-1.605c.948-.992 1.535-2.361 1.535-3.778 0-1.417-.542-2.786-1.535-3.778l-.316.33a5.01 5.01 0 0 1 1.4 3.495 5.01 5.01 0 0 1-1.4 3.495c-.903.944-2.076 1.464-3.34 1.464-1.264 0-2.437-.52-3.34-1.464l.812-.85a3.572 3.572 0 0 0 2.573 1.086c.948 0 1.896-.425 2.573-1.086.677-.709 1.038-1.7 1.038-2.692 0-.992-.406-1.983-1.038-2.692l-.316.33c.587.615.903 1.465.903 2.362s-.316 1.747-.903 2.361a3.1 3.1 0 0 1-2.257.945 3.1 3.1 0 0 1-2.257-.945l.316-.33c-1.218-1.275-1.895-3.023-1.895-4.864 0-1.842.767-3.684 1.986-4.959A6.407 6.407 0 0 1 12.113 3c1.76 0 3.43.708 4.649 1.983l-.993 1.04c-.948-.992-2.257-1.606-3.611-1.606a4.88 4.88 0 0 0-3.611 1.605c-.948.992-1.535 2.361-1.535 3.778 0 1.417.542 2.786 1.535 3.778l.316-.33a5.01 5.01 0 0 1-1.4-3.495c0-1.322.497-2.503 1.355-3.447a4.505 4.505 0 0 1 3.34-1.464c1.263 0 2.437.52 3.34 1.464l-.722.755a3.572 3.572 0 0 0-2.573-1.086c-.948 0-1.896.425-2.573 1.086-.677.708-1.038 1.7-1.038 2.692 0 .991.406 1.983 1.038 2.691l.316-.33c-.587-.614-.903-1.464-.903-2.361 0-.897.316-1.747.903-2.361a3.1 3.1 0 0 1 2.257-.945 3.1 3.1 0 0 1 2.257.945l-.316.33c1.083 1.417 1.76 3.164 1.76 5.006zm114.69 4.25V5.693h2.934v9.02h3.024v2.266h-5.958zm-6.319-5.996h1.129c.541 0 .948-.19 1.173-.614V8.572c-.225-.425-.677-.614-1.173-.614h-1.129v3.023zm-2.888 5.997V5.692h4.739c1.4 0 2.618.66 3.295 1.936v3.636c-.542 1.039-1.67 1.936-3.295 1.936h-1.806v3.778h-2.933zm-3.972-.567v-1.37c.135-.33.586-.755 1.399-.755.812 0 1.264.425 1.4.756v1.37c-.136.33-.588.755-1.4.755-.767 0-1.219-.425-1.4-.756zm-6.726-3.872h2.347V8.43h-.27l-2.077 4.108zm-2.572 2.22v-2.173l3.52-6.942h4.108v6.848h1.083v2.22h-1.083v2.266h-2.663v-2.172h-4.965v-.048zm-8.531 2.219v-2.172l4.017-4.014c.542-.52.813-.803.858-.992V8.242c-.136-.33-.587-.614-1.174-.614-.542 0-.948.283-1.128.566v1.464H99.63V7.203c.316-.472 1.444-1.747 3.701-1.747s3.566 1.322 3.972 2.172v2.833c-.09.236-.451.708-.993 1.228l-2.934 2.786v.142h3.972v2.36h-7.763zm-3.566 0V12.68l2.754-5.337V5.692H96.38l-1.49 3.589h-.315l-1.444-3.59h-2.663v1.653l2.617 5.053v4.58h2.934zm-14.443 0l1.128-5.336h.316l1.128 5.336h3.837l1.76-9.634V5.692h-2.798l-1.038 7.177h-.271l-1.4-7.177h-2.527l-1.4 7.177h-.315l-.993-7.177h-2.798v1.652l1.715 9.634h3.656zm-9.298-2.786V8.478c-.18-.378-.587-.709-1.264-.709s-1.083.331-1.264.709v5.714c.18.377.587.708 1.264.708s1.128-.33 1.264-.708zm-5.417.566V7.911c.452-1.039 1.67-2.455 4.198-2.455 2.483 0 3.746 1.416 4.198 2.455v6.847c-.452 1.04-1.67 2.456-4.198 2.456-2.528 0-3.791-1.417-4.198-2.456zm-3.25 2.22v-9.02h2.303V5.692h-7.583v2.266h2.347v9.02h2.934zm-11.328-6.092h1.218c.587 0 .993-.189 1.174-.614V8.525c-.18-.378-.632-.614-1.174-.614h-1.218v2.975zm-2.934 6.092V5.692h4.784c1.4 0 2.618.708 3.295 1.936v3.447c-.361.661-.858 1.18-1.535 1.511l1.67 2.739v1.653h-2.302l-2.211-3.967h-.722v3.967h-2.98zm-4.198-2.786V8.478c-.18-.378-.587-.709-1.264-.709s-1.083.331-1.264.709v5.714c.181.377.587.708 1.264.708s1.083-.33 1.264-.708zm-5.461.566V7.911c.45-1.039 1.67-2.455 4.197-2.455 2.483 0 3.747 1.416 4.198 2.455v6.847c-.451 1.04-1.67 2.456-4.198 2.456-2.527 0-3.746-1.417-4.197-2.456zm-6.184-3.777h1.128c.542 0 .948-.19 1.174-.614V8.572c-.226-.425-.677-.614-1.174-.614h-1.128v3.023zm-2.889 5.997V5.692h4.74c1.399 0 2.617.66 3.294 1.936v3.636c-.541 1.039-1.67 1.936-3.294 1.936h-1.806v3.778h-2.934zm-9.343-1.936v-1.7h2.799v.944c.18.33.586.661 1.218.661s1.038-.33 1.219-.66V13.2c-.136-.283-.406-.52-1.038-.661l-.677-.142c-2.392-.566-3.16-1.322-3.52-2.03V7.58c.405-.756 1.534-2.173 4.016-2.173 2.483 0 3.656 1.417 4.017 2.173v1.652h-2.798v-.85c-.136-.33-.587-.66-1.219-.66-.677 0-1.083.377-1.218.66v.898c.135.283.406.472 1.038.613l.722.142c2.347.52 3.114 1.322 3.52 2.03v2.928c-.406.803-1.534 2.173-4.017 2.173-2.527.047-3.656-1.37-4.062-2.125z"/>
    </g>
</svg>
