<svg xmlns="http://www.w3.org/2000/svg" width="87" height="21" viewBox="0 0 87 21">
    <path fill="#009252" fill-rule="nonzero" d="M7.014 16.86v.51c0 2.1-1.075 3.36-3.552 3.36C1.134 20.73 0 19.35 0 17.25v-1.44h1.015v1.47c0 1.56.776 2.58 2.447 2.58 1.761 0 2.507-.87 2.507-2.46v-.48c0-1.14-.418-1.86-1.91-3l-1.731-1.29C.806 11.46.09 10.56.09 9.12V8.7c0-1.8 1.044-3.06 3.312-3.06 2.358 0 3.403 1.14 3.403 3.33v1.14H5.76v-1.2c0-1.62-.716-2.43-2.387-2.43-1.582 0-2.299.84-2.299 2.13v.45c0 1.08.448 1.65 1.85 2.7l1.732 1.29c1.85 1.41 2.358 2.28 2.358 3.81zM7.76 6.6v-.81h1.224V2.91h1.074v2.91h2.268v.78h-2.268v11.82c0 .96.388 1.32 1.462 1.32h.806v.84h-.925c-1.76 0-2.417-.66-2.417-2.22V6.6H7.76zm9.73-.87v1.11h-.18c-1.462 0-2.596.87-2.656 2.49v11.28H13.55V5.79h1.104v1.86h.06c.358-.96 1.253-1.89 2.776-1.92zm7.162 9.96h1.015v1.38c0 2.37-1.194 3.66-3.581 3.66-2.418 0-3.76-1.44-3.76-3.81V9.45c0-2.4 1.342-3.78 3.7-3.78 2.388 0 3.671 1.32 3.671 3.72v3.66H19.37v3.96c0 1.77.985 2.85 2.716 2.85 1.701 0 2.566-.9 2.566-2.7v-1.47zM19.37 9.33v2.91h5.223V9.33c0-1.77-.866-2.79-2.597-2.79-1.671 0-2.626 1.02-2.626 2.79zm7.133-2.73v-.81h1.194v-.9c0-1.38.626-1.98 2.178-1.98h1.105v.78h-.955c-.896 0-1.254.33-1.254 1.23v.9h2.209v.78H28.77v13.98h-1.074V6.6h-1.194zM38.38 20.58h-1.074v-1.5h-.06c-.388.87-1.313 1.65-2.805 1.65-2.03 0-3.164-1.05-3.164-3.42v-1.23c0-2.31 1.254-2.91 3.224-3.72 2.148-.9 2.805-1.41 2.805-2.1V9.15c0-1.62-.507-2.58-2.179-2.58-1.611 0-2.417.87-2.417 2.4v1.41h-1.045V9.03c0-2.07 1.134-3.3 3.462-3.3 2.388 0 3.224 1.26 3.224 3.51v11.34h.03zm-3.7-.72c1.462 0 2.626-.9 2.626-2.58v-5.67c-.269.33-.716.72-2.597 1.56-1.552.69-2.387 1.2-2.387 2.91v1.17c.03 1.74.776 2.61 2.358 2.61zm8.118.9h-3.433L43.426.24h4.118l4.089 20.52h-3.7l-.658-3.75h-3.82l-.656 3.75zm2.537-14.73l-1.433 8.22h2.895l-1.433-8.22h-.03zm12.296 6.51V9.81h5.133v10.95H60.17v-2.25C59.69 20.04 58.677 21 56.707 21c-3.104 0-4.537-2.37-4.537-5.55v-9.9c0-3.21 1.612-5.55 5.432-5.55 4 0 5.163 2.13 5.163 5.13v1.83h-3.283v-2.1c0-1.26-.507-2.01-1.82-2.01-1.313 0-1.88.87-1.88 2.13v11.01c0 1.23.537 2.13 1.76 2.13 1.164 0 1.761-.63 1.761-1.98v-3.6h-1.671zm13.699 8.22l-3.402-9.42v9.42h-3.612V.24h5.253c3.641 0 4.984 1.71 4.984 4.59v2.64c0 2.22-.835 3.51-2.895 3.96l3.462 9.33h-3.79zm-2.179-17.7h-1.194v6.39h1.194c1.224 0 1.761-.6 1.761-1.68V4.71c0-1.11-.537-1.65-1.76-1.65zm12.356 15.06c1.314 0 1.88-.87 1.88-2.13V4.98c0-1.23-.566-2.13-1.88-2.13-1.253 0-1.85.87-1.85 2.13v11.01c0 1.26.567 2.13 1.85 2.13zm0 2.88c-3.79 0-5.461-2.37-5.461-5.55v-9.9c0-3.21 1.641-5.55 5.461-5.55C85.328 0 87 2.34 87 5.55v9.93c0 3.15-1.671 5.52-5.492 5.52z" opacity=".9"/>
</svg>
