<svg xmlns="http://www.w3.org/2000/svg" xmlns:xlink="http://www.w3.org/1999/xlink" width="88.5" height="40.3" viewBox="0 0 88.5 40.3"><defs><path id="a" d="M64.4 7.7v-.2c.2-.1.4-.2.5-.4.5-.4 1-.8 1.5-1.1l.2-.2s0 .1.1.2c-.2.2-.4.4-.6.5-.2.2-.5.3-.8.5-.2.1-.2.2-.3.3l-.6.4c0 .1 0 0 0 0m-2.7 23h.2v-.1c-.1-.2-.2-.5-.3-.8-.2-.4-.3-.7-.2-1.1 0-.1-.1-.2-.2-.3H61v.2c0 .1.1.2.1.3v.2c-.1-.1-.1-.1-.2-.1h-.2c-.1.1 0 .2.1.2.2.1.5.1.2.4-.1 0 0 .1 0 .1.3.3.5.7.7 1zm-1.5-1.4l.2.5c.2.2.2.5.4.8l.1.1v-.2c0-.2-.1-.3-.2-.5 0-.3-.1-.6-.2-.9v-.7l-.3.9zm-.4-1.5c0 .1 0 .1.1.2v-.5s0 .1.1.1c.1-.4.3-.8.4-1.2l.4-.9c0-.2 0-.2.2-.3V25h-.1c0-.1-.1-.2 0-.2 0-.2.1-.4.2-.5v-.1c0-.1-.2-.3-.1-.4l.1-.5c0-.2.1-.4.2-.5 0-.2.1-.2-.1-.4l.1-.2.2-.2c.1-.3.2-.6.2-.9.2-.8.2-1.5.5-2.2.3-.6.5-1.2.7-1.9 0-.1.1-.2.1-.2s-.1 0-.1-.1c0 .1 0 .1-.1.1-.1.2-.1.4-.2.5-.2.2-.4.3-.5.5-.1.4-.2.8-.4 1.2-.1.1-.1.2-.2.2-.2.3-.5.6-.5 1 0 .1 0 .2-.1.2-.2.2-.2.5-.1.7.1.2.2.4.1.6 0 .1 0 .2-.1.2-.4.2-.4.2-.3.5.1.4-.1.8-.3 1-.2.2-.2.3-.2.5s.1.3.1.4c.1.1 0 .2 0 .2-.1 0-.1-.1-.1-.1-.1 0-.2 0-.2.1 0 0 0 .1.1.2.2.1.2.2 0 .2-.1.1-.1.2-.1.3 0 .1 0 .2-.1.4 0 .2-.2.4 0 .6 0 .1-.1.2-.1.2 0 .2-.3.5 0 .7v.1c-.1.2-.2.4-.2.6.4-.3.4-.2.4 0zM59 24l.1-.2c.2-.3.2-.3.5-.5 0-.1-.1-.2-.1-.2l-.2-.1c0-.1 0-.1.1-.1-.1-.1-.1-.2-.1-.2-.1 0-.2.1-.2.2 0 .4-.1.7-.1 1.1zm-.3 3.2c0-.1 0-.2.1-.3 0-.2-.2-.5.2-.5v-.1l-.2-.2c-.2-.3 0-.7.1-1v-.6s-.1 0-.1-.1c0 .1-.1.1-.1.2.1.2.1.2 0 .4-.1 0-.1.1-.1.2v1.7l.1.3zm-1.8-4c-.1-.1-.1-.2-.1-.2l.2-1c.1 0 .1 0 .1.1l-.2 1.1zM52.2 9.3c.1-.1.1-.1.1-.2.1 0 0-.1 0-.2h.1v-.1l-.2-.2v.7zm-3 19.8l.2-.4-.2-.2h-.1v.2c.1.2.1.3.1.4zm.1-12.3h.2v-.2c-.2-.2-.1-.2.1-.2s.2-.2.2-.2c0-.1-.1-.1-.1-.2l-.1.1c-.1.2-.2.4-.4.1 0 0-.1.1-.2.1v.1c.2.1.3.2 0 .3.1 0 .2.1.3.1zm-2.6 1.5s0-.1 0 0c.2-.4.2-.6.2-.9v-.2s-.1.1-.1.2c-.1.2-.1.5-.1.9zm.1-1.8l.2-.2-.2-.2c-.1.1-.2.2-.2.3.1.1.2.1.2.1zm0-.6l.2-.2v-.2c0-.1 0-.2-.1-.2h-.2v.2c0 .1 0 .1.1.2-.1 0 0 .1 0 .2zm-.3 5.4c.1-.2.1-.3.1-.4.1-.2 0-.2-.1-.3 0 .1 0 .2-.1.2h.1v.5zm-.1 2.2l.1-.8-.1-.1v.1c-.1.2-.1.3-.1.5v.2c.1 0 .1 0 .1.1zm-.2 2.2c.1 0 .2 0 .2-.1v-.5s0-.1-.1-.2v.5s-.1.1-.1.2c-.1 0 0 .1 0 .1zm-8.8-8.3c-.1 0-.1-.1-.1-.2.1-.3.2-.7.2-1.1l-.1-.5c0-.1.1-.2.1-.2s0 .1.1.2v1.5c-.1.1-.2.2-.2.3zm-1.3-1.5v-.2c.1-.3.1-.7.4-.8.1-.1.1-.2 0-.2v-.2c0-.1.1-.1.1-.2 0 .1.1.1.1.2v.2c0 .2.1.3 0 .5 0 .1-.1.2-.2.3-.2.1-.2.2-.2.3 0 0-.1 0-.2.1zm-.5 10.2h.3s0-.1.1-.1l-.1-.1c0-.1.1-.1.1-.2.1-.2.2-.5.2-.6.1-.1 0-.1 0-.2 0 .1-.1.1-.1.2.1.2 0 .3-.2.3-.3-.1-.3.1-.3.2-.1.2 0 .3 0 .5zm-.2-12.5c0-.1.1-.1.1-.2v-.2c0-.2 0-.4-.1-.5v-.1c0 .1-.1.1-.1.1 0 .2 0 .5-.1.7 0 .1.1.2.2.2zm-.3.7c.1-.1.1-.2.1-.2.1-.1.1-.2.2-.3 0 0 0-.1.1-.1-.1-.1-.2-.1-.2-.1-.1.1-.2.1-.2.2.1.1.1.2 0 .3v.2zm0 .8c.1 0 .2-.1.2-.1l.2-.4-.2-.2-.2.2c-.1.1-.1.2 0 .3v.2zm.1 14.2c0-.1.1-.1.1-.2.1-.1.1-.2.1-.2-.1-.3-.2-.5-.2-.8v-.2c0 .1-.1.2-.1.2-.1 0-.2.1-.2.1-.1 0-.1.1-.1.2l.2.8c.1-.1.1 0 .2.1zm-.1-8.1s0-.1 0 0c0-.2 0-.2-.1-.4l-.2.2c.1 0 .2.1.3.2zm-.3 6.3c.2.1.3.2.4 0 .1-.1.2-.2-.1-.2v-.1c.1-.1.1-.1.1-.2-.4 0-.2.3-.4.5 0-.1 0 0 0 0zm-.1-8.6s-.1-.1-.1-.2c.1-.1-.1-.3.2-.4.1 0 .2.1.2.2.1.2-.2.4-.3.4zm-.2 5.4h.2c.1 0 .1-.1.2 0 .1.2.1 0 .1-.1V24c0-.1 0-.2-.1-.4l-.1-.1c0 .1 0 .1-.1.2 0 .1-.1.2-.1.4s-.1.2-.1.2zM34.1 10c.1-.3-.1-.3-.2-.3-.2-.1-.2.2-.2.2 0 .2.2-.1.4.1zm-.7 16.4c-.1 0-.1-.2-.2-.2v-.8s.1 0 .2-.1l.1.1c0 .2.3.4 0 .6l.1.2c.1.1.2.1.1.2-.2-.1-.2 0-.3 0zm-.2-8.7c.2 0 .3-.1.3-.3l-.2-.2c-.1-.1-.3.2-.2.4l.1.1zm0 5.9c0-.1 0-.2-.1-.2-.2-.2 0-.5.2-.7 0-.1 0-.2-.1-.2-.3-.2 0-.5-.1-.8l.1-.1c.1 0 .2.1.2.1 0 .2.1.5.2.7l-.2.4v.7c-.1 0-.2 0-.2.1zm-.4-4.8s-.1-.1-.1-.2c.1-.1.1-.2.1-.2.2-.2.2-.3.1-.5s0-.5 0-.7V17c-.1-.2.2-.2.2-.2.3.1.4.1.5-.2v-.2s-.1-.1-.2-.1c0-.1-.1-.1-.1-.2-.1-.1-.1-.3 0-.4.2-.4.1-.8.3-1.1v-.2c-.1-.2-.1-.2 0-.3.1-.1.1-.2.1-.2-.3-.3.2-.4.2-.6 0-.1.1-.1.2-.1 0-.1.1 0 .1 0s0 .1-.1.1c-.2.1-.2.2-.1.3.1.1.2.2 0 .3v.1c.1.2.2.3-.1.3-.1 0-.1.1-.1.2.2.5 0 1.1 0 1.6-.1.2.1.4-.2.6v.4c.2.5 0 .8-.3 1.1-.1 0-.2.1-.2.1-.1.1-.1.2-.1.3.1-.1.2-.1.2-.1.1 0 .1-.1.1-.1.1.1.1.1.1.2 0 0 0 .1-.1.1s-.3 0-.5.1zm-.3 4.5c-.1 0-.2-.1-.2-.1 0-.3 0-.5.1-.8 0-.1 0-.2.1-.2 0 0 .1.1.1.2v.6c.1.2 0 .3-.1.3zm.2-1.9c-.2.1-.3-.1-.3-.3 0 0 .1-.1.2-.1l.2-.2c0-.2 0-.2-.2-.2-.1 0-.1-.1-.2-.1.1-.1.1-.1.2-.1.2 0 .3-.2.2-.4s-.2-.4.2-.5c0 0 .1-.1.1-.2.1-.1.1-.2.2-.3 0-.1.2-.1.2-.1-.1.1-.1.2-.1.2 0 .2 0 .3-.1.4-.1.2-.1.4-.3.5v.2c.1 0 .2 0 .2-.1 0-.2.1-.1.2-.1v.2c-.1.2-.4.3-.2.5 0 0-.1.1-.2.1-.2 0-.2.1-.2.2 0 .2 0 .4-.1.4zm-.5-8.2c0-.1.1-.1 0 0l.1-.5c-.1 0-.2.1-.2.1 0 .2 0 .2.1.3v.1zm0 12.4c-.1-.4-.1-.7-.1-.9v-.2c0-.1 0-.1.1-.2l.2.2c-.1.3-.1.6-.1.9-.1.1-.1.1-.1.2zm-.1-1.7v-.2c-.1-.1-.1-.4-.1-.7v-.5l.1-.1c.1 0 .2.1.2.1 0 .2.1.5 0 .7-.1.2-.1.4-.2.7.1 0 0 0 0 0zm0-1.8c-.1 0-.1-.1 0 0-.2-.6-.3-1.1-.2-1.7 0-.1 0-.2.1-.2 0 0 0 .1.1.2l-.1.1c.1.4.1.8.2 1.2l-.1.4zm.8 9.6c-.3-.8-.5-1.5-.4-2.2v-.2c-.1-.2-.2-.5-.2-.8s0-.5.1-.7v-.2l.2.2c.2.4.3.8.2 1.1-.1.2 0 .5.1.7.2.2.2.4 0 .5-.1.1-.1.2-.1.3.1.1.2.1.3.2-.1.1-.1 0-.1-.1v-.2c.1-.2.1-.5-.1-.8-.1-.3 0-.7 0-1 0-.2.1-.4.1-.6 0-.3.1-.5.2-.8.1-.1.1-.2.2-.3v-.2c.1 0 .2 0 .2.1.1.1.1.1.1.2v.8c0 .1.2.2 0 .2v.2c.1.1.2.1.2.2 0 .4.2.8.2 1.1 0 .5.1.9.2 1.5 0 0 .1.1 0 .2-.2.2.1.4.2.5 0 .1.2.1.2.2v-.3c.2-.2.2-.5.2-.7.1-.2.2-.4-.1-.5v-.1c0-.2 0-.2-.1-.4 0-.2 0-.3.2-.5.1-.1.1-.2-.1-.4s-.2-.4-.1-.5c0-.3-.2-.5-.1-.8 0 0-.1 0-.1-.1s-.1-.2-.1-.4c0-.3.1-.5.2-.8 0-.1 0-.1.1-.1l.1.1v.3c.1 0 .1.1.1.1.2-.1.4-.5.3-.7v-1.1c-.1 0-.1-.1-.2-.2 0 .1-.1.2-.1.2 0 .1 0 .2-.1.3-.2.1-.2.3-.2.5 0 0-.1.1-.1.2v-.2c0-.1-.1-.1-.1-.2-.1 0-.2-.1-.2-.2.1-.2.1-.3.2-.5.2-.2 0-.2-.1-.2s-.2-.1-.2-.2c0-.4.2-.6.3-.9l.2-.5c0-.1-.1-.2-.1-.2l.2.2v.2h.1V23l-.3-2.1c0-.1.1-.2.1-.3 0-.1.1-.2.1-.4s.2-.2.2-.1c.2.2.2-.1.2-.2l-.1.1c-.1-.3-.2-.5-.2-.8l.1-.1s0 .1.1.1c0 .2 0 .4.1.6l.1.1c.1-.2.2-.3.2-.5.1-.3.1-.6.2-.9 0-.1 0-.2.1-.2.2 0 .1-.1 0-.2v-.2c0-.1-.1-.1-.1-.2l-.2.2c0 .1 0 .2-.1.2-.2.1-.4.1-.5.2-.1 0-.2-.1-.2-.2-.1 0-.1-.2-.2-.2-.1-.1-.2-.2.1-.2l.1-.3v-.3c.1-.2.1-.3.2-.5l.2-.8h.2c.2.1.2.1.2-.2 0-.1 0-.1.1 0 .2.2.2.2.2-.1v-.2c0-.1 0-.2-.2-.1l-.5.4c-.1 0-.1.1-.2.1 0-.1-.1-.2-.1-.2 0-.2 0-.2.1-.5-.1-.2-.1-.4-.2-.6 0-.1 0-.1-.1-.1v.1l-.1.6c-.1.1-.2.1-.2.1l-.1-.1c0-.2 0-.4.1-.5.1-.5.2-.9.2-1.4 0-.2 0-.3.1-.5v-.2c-.2-.2 0-.4 0-.5 0-.3.1-.7.1-1v-.5c0-.1-.2-.2-.2-.2-.1.1-.1.2-.1.2-.1.1 0 .2-.1.2 0 .1-.1.2 0 .2.2.4-.3.6-.4.9h-.2l-.3-.1c-.1 0-.2-.1-.2-.1.1 0 .1.1.1.2v.3c-.1 0-.1.1-.2.2 0 .1-.1.2-.1.4 0 0 0 .1.1.2.2.3.2.8-.3 1-.1 0-.1.1-.2.2 0 .1-.1.2 0 .3 0 .2-.4.3-.1.5 0 0 0 .1-.1.2v.2c.1.4-.2.8 0 1.1-.2.4 0 .8-.1 1.2-.1.2-.2.3-.1.4.1.4-.2.7-.1 1v.2c-.1.1-.2.2-.2.4v.7c.2-.2.2-.2.2-.1 0-.1-.1-.1-.1-.2v-.1c0-.1-.1-.1-.1-.2-.1.1-.1.1-.1.2v1.8c0 .2-.1.5 0 .7.1.2.1.3-.1.5-.1.1-.1.2-.1.3 0 .2.1 0 .2 0l.1.1v1.1c.1.2.1.2-.1.3v.2c.2 0 .1.2.1.2.1.2.1.5.1.7.1.2.1.3.1.5 0 .1-.1.2 0 .2.1.2.2.3-.1.4 0 .1 0 .2.1.2.1.2.1.4 0 .5v.2c0 .1.1.1.1.2.1.3.2.7.2 1.1l.2 1.8c0 .4.1.6.4.9-.1 0 0 0 0 0zm-2-12.9v-.4c.1 0 .1-.1.2-.1 0 0 0 .1.1.2l-.3.3zM21.4 21c.2 0 .2-.2.2-.3.2-1 .4-2 .5-3l.2-1.5c0-.7-.1-1.3-.2-2h.1c0-.5-.1-1.1-.1-1.7-.1-.5-.1-1.1-.4-1.7-.2-.5-.3-1.1-.4-1.8 0-.4-.1-.8-.5-1.1-.4-.5-.8-.9-1.3-1.1-.3-.1-.6-.2-.9-.2-.5.1-1 .3-1.5.5-1.1.3-1.8 1-2.3 1.9-.2.5-.5.9-.6 1.4-.1.4-.2.8-.3 1.1-.2.3 0 .5 0 .8.1.8.1 1.5.2 2.3 0 .1 0 .2.1.2.5.5.8 1.1 1.1 1.7l.6 1.1L17 19c.4.6 1 1 1.5 1.4.4.2.8.5 1.1.5.7.1 1.3.1 1.8.1zm40.4-9c-.2.2-.4.5-.5.8.1-.1.2-.1.2-.2.2-.4.6-.6.7-1.1.1-.3.4-.6.5-.9.1-.1.1-.2.2-.2.1-.1.2 0 .2 0s0 .1.1.1v-.2c0-.2 0-.3.1-.5l.5-.5v.1c0 .1-.1.1-.2.1-.2.2-.3.4-.5.6-.2.3-.5.7-.8.9-.2.2-.4.4-.5.7v.2s.1 0 .2-.1c0 0 .1 0 .1-.1v.2l-.3.1zm-.8 2.8c-.1-.3.2-.5.3-.7h.1l-.4.7zm-.1-1.5c.2-.1.4-.2.4-.5-.2.2-.4.3-.4.5zm-.5 2.4c.2-.3.3-.6.4-.9h.2l-.5.9c0 .1-.1.2-.2.2v-.2zm-2.9 8.7c-.1.5-.1 1-.1 1.5 0 .1 0 .1.1.2v-.2c.1-.7.1-1.4.2-2.1 0-.2.1-.2.1-.4.2.1.2-.2.2-.2.1-.1.1-.1.2-.1v.2c0 .2-.1.3 0 .5 0 .2.1.4-.1.5-.2.2-.1.3 0 .3.2 0 .2.1.2.2s.1.2.2.2l.1-.1c.1-.2.1-.2.1-.3-.1-.1-.2-.1-.2-.1l-.2-.2c.3 0 .2-.3.3-.4.2-.2.1-.2-.1-.2-.2-.1-.2-.2-.1-.3.1-.1.1-.2.1-.3 0-.2 0-.3-.2-.2 0 0 0-.1-.1-.1-.2-.2-.1-.5 0-.7l.2-1.1c0-.1 0-.2.1-.3 0 0 .1 0 .1-.1v.2c.1.1.1.2.1.2v-.2c0-.1.1-.1.1-.1l.2-.2c.1-.1-.1-.2-.2-.3 0-.2.1-.2.2-.4-.1 0-.2.1-.2.2v-.2c0-.1 0-.2.1-.2 0-.1.1-.2.2-.2v.5l.2-.5c.1-.2.2-.4.3-.5l.2-.2c.3-.1.4-.2.4-.5 0-.1-.1-.2 0-.2.2-.3.4-.6.2-1 .3 0 .2-.2.2-.4.1-.3.2-.7.4-1.1 0 0 .1-.1.1 0 .2.2.2-.1.2-.2 0-.2 0-.3.1-.4 0-.1.2-.1.2-.2-.1-.2.1-.3.2-.5l.4-.7c0-.1-.1-.2-.1-.2-.3-.1-.5.1-.7.3v.4c0-.1.1-.1.1-.1h.2s0 .1-.1.1c-.1.2-.2.3-.4.5-.3.3-.5.7-.6 1.1 0 .1-.1.1-.2.1-.1-.2-.2 0-.2.1-.2.3-.4.7-.6 1.1-.2.2-.2.5-.2.8 0 .2 0 .3-.1.4-.2.2-.2.7-.5.9-.1 0-.1.1-.1.1-.1.4-.1.8-.3 1-.1.1-.1.2-.1.2 0 .3 0 .5-.1.8 0 .1-.1.2-.1.2-.2 0-.2.1-.1.2v.2c-.2.2-.2.3-.1.5 0 .3-.2.5-.3.8 0 0-.1.1-.1.2.1.2.1.7 0 1.2zM5.4 30.1c-.2-.2-.2-.1-.2 0 .1.2.2.5.4.7l.8.7h.1c-.1 0-.1-.1-.1-.1-.4-.4-.6-.9-1-1.3zM4.6 29c0 .1-.1.2 0 .2.2.3.4.6.5 1l-.4-1.1s0-.1-.1-.1zM.3 22c0-.5 0-.9.1-1.4 0-.3 0-.7.1-1.1.1-.5.2-.9.3-1.5.2-.9.3-1.8.5-2.8 0-.3.2-.7.2-1V14c-.2-.3-.2-.5.2-.8V13c-.1-.2 0-.2.1-.4.1.1.2 0 .2-.2.4-1.2.8-2.4 1.5-3.5.1-.2.2-.3-.1-.4-.1 0-.1-.2-.1-.2l1.1-2.1c.3-.6.7-1.3 1-2 .2-.3.3-.7.5-1 .1 0 .1-.1.1-.1-.1-.1 0-.2.2-.4s.3-.2.5-.2.3-.1.4-.2c.3-.1.6-.1.9.1.2.2.3.2.5.3.2.1.5.2.7.3l.9.7.2.2c.1.2.2.3.2.5 0 0 .1.1.1.2-.2.2-.2.5-.4.8-.2.2-.2.5-.2.6-.2.5 0 .9-.2 1.3-.2.1-.2.2-.2.3-.1.2-.4.2-.3.5-.2.1-.1.4-.1.5-.1.2-.1.5-.2.6-.3.3-.2.8-.5 1.1-.2.2-.2.5-.2.7l-.2.2c0 .2-.1.4-.1.6v.2c-.2.5-.3 1.1-.5 1.5-.2.4-.1.8-.3 1.1L7 15v.4c-.2.2-.1.5-.3.7v.1c0 .5 0 1-.2 1.5-.1.2 0 .5-.2.7-.2.8 0 1.6-.2 2.3l-.1.7-.1.5c0 .4.1.8-.2 1.1-.1.1.1.2.1.4.1.1.2.2.1.3-.1.5.1 1.1.1 1.6 0 .4.1.8.2 1.1 0 .2-.1.3 0 .5l.5 1.3c.1.3.2.7.3 1.1l.5 1.1c.1.2.2.4.3.5.3.5.8.8 1.3 1 .5.3 1.1.5 1.8.5 1 .1 1.8-.2 2.6-.7.7-.5 1.4-.9 2.1-1.5.3-.2.6-.3.8-.5 1.1-.7 2-1.5 2.7-2.4.2-.3.5-.5.6-.8.4-.8.8-1.5 1-2.4.1-.3.2-.6.4-.9.1-.4.1-.4-.3-.5l-2.4-.3c-1-.2-1.9-.6-2.7-1.2l-1.8-1.5c-.3-.4-.5-.8-.8-1.2-.3-.5-.5-1.1-.8-1.6-.2-.5-.3-1.1-.5-1.7 0-.2-.1-.2-.1-.4-.4-.8-.3-1.6-.3-2.4 0-.8.1-1.5.2-2.2l.6-1.8c.2-.8.7-1.3 1.1-1.9.3-.5.8-.8 1.2-1L15 5c.3-.2.5-.3.9-.2.5.1 1.1.2 1.6.2.4-.1.6 0 .8.2.2.1.3.1.5.2s.3.2.5.3c.1 0 .1.2.2.2.5 0 .7.4 1.1.6.3.5.8.5 1.1.9.2.2.2.3.4.2.2-.2.4-.1.4.2l.2.9c.1.3.3.5.4.8l.2.2.2 1.1c0 .5.1.8.2 1.3l.2.8c.2.4.2.8.4 1.2.1.7.1 1.4 0 2.1-.1.1 0 .2 0 .4-.3.2-.3.5-.3.8 0 .5 0 1.1.1 1.6 0 .2-.1.2-.1.4-.1.2-.1.4-.2.5 0 .2-.1.5-.2.7v.2c0 .1.2.1.2.1 1.6-.4 3.1-.9 4.4-1.8.5-.4 1.1-.8 1.5-1.2.4-.3.9-.7 1.4-1 0-.1.1-.2.1-.3-.1-.3 0-.7 0-1.1.1-.3.1-.7.2-1.1v-.6c.1-.6.2-1.1.2-1.8 0-.2 0-.5.3-.8.1 0 .1-.2.1-.2-.2-.3-.1-.5 0-.8v-.5c.2-.5.1-1.1.2-1.6s.2-.9.3-1.4c.1-.5.1-.8.2-1.2.1-.3 0-.5.1-.8 0-.2.1-.2.2-.3v-.1c-.2-.6.1-1.1.1-1.8 0-.4 0-.8-.1-1.1 0-.2-.2-.3-.4-.4-.3-.2-.4-.4-.3-.7l.2-.1c.5-.1 1.1 0 1.6.2.6.2 1.1.6 1.5 1 .2.1.3.3.4.5l.2 1.2.2 1.9v.5c0 .2 0 .2.2.2h.1c-.1.3-.2.3-.2.3-.3.2-.3.3-.2.5.1.2 0 .4.2.5h.1c-.1.6.2 1.1 0 1.8v.1c.1.1.1.2.2.3 0-.1.1-.2.2-.2v-.2.1c-.1.3-.2.5 0 .8 0 .1 0 .3-.2.3-.1 0-.2.2-.1.2.1.2 0 .3-.2.4v.1c0 .1.1.1.1.1.2-.2.1.1.1.1-.2.2-.1.4 0 .6.1.3-.1.6-.2.9 0 .1-.1.1-.1.1-.1-.1-.1 0-.1.1v.2c-.1.4-.1.7-.3.9-.2.1-.3.3-.2.5.1.1.2.2 0 .4-.1 0-.1 0-.1.1.2.5.2.8.1 1.1l-.1.1c-.1.2-.2.2-.2.3-.1 0-.1.1-.1.2-.4.2-.1.5-.1.8 0 0 .1.1.2.1.2-.1.3 0 .2.2 0 .1.1.2.1.4 0 .1-.1.4.2.2l.1.1c0 .2 0 .4-.1.6v.1l-.1.3-.2-.2c0-.1-.1-.1-.2 0 0 0-.1.1 0 .2 0 .3-.2.6-.3.9-.1.1 0 .2 0 .2 0 .1.1.2-.1.2-.2.1-.2.3-.1.4 0 .2 0 .2.2.2V21c0 .2-.1.3-.1.5-.1.1-.1.2.1.2.2.1.2.4-.1.5-.2.1 0 .2 0 .2.1.2.2 0 .2 0h.2c-.1.1-.1.2-.1.2-.1 0-.2.1-.2.2.2.2 0 .3-.1.5s-.2.3-.1.5v.2c-.2.2-.1.3.1.5.2.1.2.2.1.3-.1.2.2.4-.2.5l.1.1c.1 0 .2-.1.2-.1-.1-.2.2-.4.2-.7-.1-.2-.1-.5.2-.7l.2-.2c.2-.2.3-.3.2-.5-.2-.2-.2-.2 0-.2.2-.2.1-.3.2-.5l-.2-.2c0 .1-.1.2-.1.2 0 .2.1.2 0 .3-.2.4-.2.7-.2 1.1 0-.2-.1-.2-.1-.3.1-.3.2-.5.2-.8-.2-.5.2-.6.4-.9.1-.1.1-.1-.2-.2v-.2c.2-.2.2-.6.5-.7.1 0 .1-.2.1-.2.3-1.1.5-2.2.8-3.4.4-1 .7-2 1-3 .4-1.1.7-2.3 1.1-3.4.3-.8.7-1.8 1.1-2.6.5-1 1-2 1.5-2.9.4-.9.9-1.7 1.6-2.4.6-.7 1.1-1.3 1.9-1.8.6-.4 1.3-.9 2.1-.8.8 0 1.7-.1 2.4.3.4.1.7.1.8.4.5.2.5.8.8 1.1.2.3.3.5.3.8.1.4.1.8.1 1.3 0 0-.1.1 0 .2.2.2.2.4-.2.5V5c.3.1.1.4.2.6.1.2.2.5.2.7-.1.4.1.8-.1 1.2-.2.2-.2.4-.2.5-.1.1 0 .2 0 .2.2.2.2.4.2.7 0 .2.1.4.1.6 0 .3.1.6-.2.9v.8c0 .2-.1.2 0 .4.1.1.2.3.2.5s-.1.3-.1.5v1c0 .2-.1.5-.1.7 0 .3 0 .7-.1 1v.4c0 .2.1.3-.1.3-.1.1-.1.2-.1.2 0 .2.1.3-.2.3-.1 0-.1.1-.1.1.1.3.1.7.2 1 .1.2.1.4.1.5-.1.2-.1.5-.2.8-.3.3 0 .6 0 .8v.3c0 .2-.1.4-.1.6 0 .2-.1.3-.1.4-.2.2-.2.3-.1.5s.1.3.1.5c-.1.2 0 .5 0 .7-.1.4-.1.7-.2 1.1-.1.2-.2.4 0 .6v.2c-.1.1-.2.1 0 .2.1.2.1.5.1.7l-.1.1c-.2 0-.2.1-.2.2.1 0 .1.1.1.1l.1-.1v-.2c.1.1.1.1.1.2.1.2-.1.5-.2.7 0 .4-.1.8 0 1.1.2.2.2.5.2.7v.7c0 .1-.1.1-.1.2-.1.1-.2.2-.2.3v1c-.1.4 0 .8-.1 1.2 0 .1-.2.2-.1.4l-.1.1c-.1.2-.2.2-.1.4 0 .2 0 .4-.1.5-.1.2-.1.3-.1.5 0 .5.2.9.1 1.4 0 .1.1.2.2.3.2.2.3.5.1.9-.1.1-.1.3.1.5.1 0 .1.2.1.2.2.5.6.8 1 .9.2.1.3.1.5 0 .8-.2 1.4-.8 1.8-1.5.7-.8 1.3-1.8 1.9-2.6.5-.6 1-1.3 1.5-1.9.2-.3.4-.6.5-.8l-.3-1.2c-.2-.6-.5-1.3-.6-2-.2-.8-.4-1.6-.4-2.4l.2-2.9v-.2l.1-.1s.1.1 0 .2c0 .2 0 .4-.1.6 0 0 .1.1.1.2V23c.2-.5.2-.9.3-1.4.1-.2.2-.5.2-.6s.2-.3-.1-.3c0 0-.1-.1-.1-.2.2-.3.2-.7.3-1h.1c-.1-.2-.2-.3-.1-.4 0-.2.1-.3.2-.5v.5l1-2.1c.2-.5.5-1 .8-1.5l.2-.7.4-.7V14c-.1 0-.1 0-.1.1-.2.2-.2.4-.3.6-.3.5-.5.9-.8 1.5l-.3.6v.1-.2l.2-.5V16s-.1 0-.1.1c-.1.1-.2.2-.2.4l-.1-.1c.1-.4.2-.8.5-1.1.1 0 .1-.1.1-.1s.1.1 0 .1c0 .2-.1.3-.1.5v.1c.1 0 .1-.1.1-.1.2-.4.5-.8.6-1.1v-.2c-.1 0-.1 0-.2.1s-.1.2-.2.3c-.1.1-.1.2-.2.2-.1.1-.2 0-.2 0V15c.2-.4.4-.6.5-1 .2-.2.4-.5.5-.8.1-.4.5-.5.6-.8.2-.3.4-.5.6-.8.2-.2.4-.5.5-.6l.1-.1c.2-.5.6-.8.9-1.2.1-.2.2-.3.4-.4.3-.4.6-.8 1-1.1.2-.2.5-.5.8-.6.4-.2.6-.5.9-.8.1-.1.2-.2.4-.1l.1-.1c-.2-.2.1-.1.2-.2.1-.2.2-.2.3-.4.4.1.4-.4.6-.5.2-.1.5-.4.8-.3l.1-.1c.1-.2.1-.4.3-.2 0 0 .2-.1.2-.2.2-.4.5-.5.8-.4.1.2.2.2.2.2.1-.1.1-.2.1-.3-.1-.2 0-.2.1-.2.2 0 .5.1.8 0 .3-.1.5.2.7.2.3-.1.5.1.8.1.4-.1.8-.1 1.1-.1.1 0 .2 0 .2.1.2.2.5.3.7.5.3.1.5.2.6.3l.5.5c.2.2.2.8-.1 1.1-.3.2-.7.4-.9.8h-.1l-1.3.2c-.1 0-.2.1-.2.1-.2.1-.4.2-.5 0-.1-.1-.2-.1-.3 0-.2.1-.5.1-.8.3-.1.1-.3.2-.5.2-.2-.1-.5.1-.6.2 0 .1-.1.2-.1.2-.4.1-.5.4-.6.6-.1.1-.2.2-.3.1l-.2.2c.2.2-.1.3-.2.4-.1.1-.3.2-.4.2-.1.1-.1.3-.2.3-.4.1-.5.5-.6.7-.1.2-.2.2-.3.3-.1 0-.2.1-.2.2 0 .2-.2.2-.2.4-.4.4-.7.8-1 1.3 0 .1-.2.1-.2.2-.2.2-.3.3-.3.5-.1.2-.2.2-.5.2 0 0-.1 0-.2-.1 0 .1.1.2.1.2.5.1.2.3 0 .5l-.3.6c0 .1-.2.2-.2.2-.2 0-.2.2-.2.3-.1.2 0 .5-.3.6-.1 0-.1.1-.1.2.1.2 0 .4-.2.6-.1.2-.1.5-.1.7 0 .1.1.2-.1.2-.1.1-.1.2-.2.3-.1.2-.1.2-.2.1-.1 0-.1 0-.1-.1v.1c-.1.2-.1.5-.2.7-.1.3-.2.5-.3.8s-.2.5-.2.7c0 .1-.1.2-.1.2v-.2c-.1 0-.1 0-.1-.1l-.2.2c0 .5-.1 1-.1 1.5v.2c.1-.1.1-.2.1-.2.1-.2.1-.3.2-.5 0-.1.1-.1.2-.1-.1.1-.1.1-.1.2 0 .2-.2.3-.1.5 0 .1-.2.2-.2.3-.1.2-.2.3 0 .5 0 0 .1.1.1.2 0 .2 0 .4-.1.5 0 .1-.2.2-.2.2.1.2 0 .2-.2.2 0 .1 0 .1.1.1.2 0 .2.2.1.3 0 .2-.1.2-.2.1 0-.1-.1-.1-.1-.2v.2c-.1.2-.2.3.1.5.1.1.1.3.1.4 0 .3-.1.5-.1.8 0 .1-.1.2-.1.4v.2c.1-.1.2-.1.2-.2 0-.2 0-.4.1-.6v-.8c.1.1.1.1.1.2.1.1.1.2.1.3 0 .1-.1.2 0 .3 0 .2.1.3-.1.5-.1.1 0 .4 0 .6 0 0-.1.1-.1.2s0 .2-.1.3c.1-.1.2-.1.2-.1.1-.1.1-.2.2-.2l.1.2c-.2.2-.1.5 0 .6l.2.8.1.1c-.2.2-.2.4.1.5.1 0 0 .3.1.5s.2.4.5.5c.1.1.2.2.2.3.2.5.5.9.9 1.3.1.1.3.1.5.1.8-.2 1.5-.5 2-1.1.2-.2.4-.5.6-.6.5-.2.8-.7 1.1-1 .5-.4.8-.8 1.1-1.3.2-.2.4-.4.5-.6.2-.2.2-.7.2-.8-.1-.1-.1-.2-.1-.2.2-.3.2-.7.2-1 .2-.7.3-1.5.4-2.1.1-.5.2-.9.3-1.3 0-.1.1-.2-.2-.2v-.1s0-.1.1-.2c.2-.2.3-.4.2-.7v-.1l.2-.3c.1-.6.2-1.1.3-1.7l.2-.7c.2-.7.4-1.4.6-2 .1-.4.2-.7.4-1l.5-1.1v-.2h-.1l-.2.2v.2c0 .1-.1.2-.2.2v-.2c0-.1-.1-.1-.2-.2 0-.1-.1-.2-.1-.2l.7-.5c.2-.1.2-.2.2-.3-.2-.2-.2-.2 0-.4.1 0 .1-.1.1-.2-.1-.2 0-.4.2-.5s.2-.2.2-.2c0-.2.2-.5.2-.7 0-.1.2-.1.2-.2s.1-.1.2-.2v-.1h.6c-.2.2-.4-.1-.5-.1v-.2c.4-.3.5-.8.6-1.1 0-.2.1-.4.2-.5.1-.2.2-.2.2-.1.1.2.2.2.4.2.3 0 .5.1.8.1.2-.1.2-.2.3-.2.1-.1.2-.1.3-.1.1 0 .3.1.4 0 .7-.3 1.3-.3 2-.1.4.1.5.4.6.8.2.5 0 1.1 0 1.5 0 .4 0 .8-.1 1.1l-.3 1.5v.3c0 .3-.1.6-.3.8v.2c-.1.2-.1.2-.2.3-.2.2-.2.5-.2.8.1.1-.1.2-.1.4-.1.1 0 .2-.1.2 0 .1 0 .2-.1.2-.3.1-.1.3-.2.5v.1c.1-.1.1-.1.2-.1 0-.1.1-.2.1-.2v.3c0 .1-.1.1-.1.2-.1.2-.2.2-.2.5.1.2-.1.5-.2.8-.1 0-.1.1-.1.2s.1.2 0 .2c-.1.4-.2.8-.2 1.1 0 .4-.3.6-.3 1-.1.2-.1.4-.2.5l-.1.1c.4.2-.1.4.1.5l-.2.2v.1c.1.2.1.4-.1.5-.1.1-.1.2-.1.2.1.2.2.4.2.5-.2.2-.1.5-.2.8 0 .1 0 .2-.1.2-.3.2 0 .5-.2.8 0 .1 0 .2-.1.2v.2c.2.2 0 .4 0 .5.1.2.1.4.1.5 0 0-.1.1-.2.1l-.1-.1v.2h.3v.2c-.1.2-.2.2-.1.3 0 0 0 .2-.1.2-.1.1-.2.2.1.3.2.1 0 .2-.1.3-.2.3-.2.3-.1.6.2.1.1.2.1.4 0 .3.1.7-.1 1.1-.1.4.2.7.1 1.1 0 .5.1 1 .2 1.5.1.2.1.5.1.8v.3c.6.7.5 2.3 1.8 1.8.6-.2 1.3-1.1 1.7-1.6.9-1.3 1.9-2.4 2.7-3.8 1.4-2.7 2.8-4.8 4-7.9.2-.5 1-1.8 1-.7 0 1.5-1 3.2-1.6 4.7l-2.1 4.6c-.2.6-.6 1.1-1 1.7l-.8 1.1c-.1.2-.2.3-.2.5-.2.5-.8.8-1.1 1.3-.2.3-.6.5-.8.9-.1.2-.4.2-.5.4-.3.2-.6.5-.9.6-.2.1-.4.2-.6.2-.2.1-.5.2-.7.3-.4.1-.8.1-1.1.2-.3.1-.6.1-.9.2-.1 0-.2 0-.2-.1-.1-.2-.3-.2-.5-.2-.8-.3-1.7-.8-2.3-1.4-.8-.7-1.1-1.5-1.5-2.4-.4-.7-.4-1.5-.5-2.3-.2-.5-.2-1-.2-1.5v-.2c-.1 0-.2-.1-.2-.1-.1 0-.2.1-.2.1 0 .3-.2.5-.1.8 0 0-.1.1-.1.2 0-.1-.1-.1-.1-.2 0-.2-.1-.2-.2 0-.1.1-.2.2-.3.4-.2.2-.3.4-.4.6-.1.1-.1.2-.1.2L69 33c0 .1-.2.2-.2.2 0 .3-.3.2-.5.4l-.9.6c-.2.1-.2.2-.3.2-1.1.4-2.1.5-3.2.3-.2-.1-.3-.1-.5-.1-.9.1-1.7-.2-2.4-.7-.9-.5-1.5-1.1-2.1-2.1-.3.6-.6 1.1-.9 1.7l-1.6 2.2c-.3.5-.6 1.1-1 1.5-.5.8-1 1.4-1.8 1.9-1 .6-2.1.9-3.3.7-.9-.2-1.8-.6-2.4-1.3-.8-.7-1.1-1.6-1.5-2.6-.3-.8-.5-1.5-.6-2.3-.2-1.3-.4-2.5-.4-3.9.1-1.3 0-2.6 0-3.9V23c0-.5.1-1.1.1-1.8.1-.2.1-.5.1-.7 0-.1 0-.2.2-.1 0 .1.1.1.1.1.1-.2 0-.4.2-.4 0-.1-.1-.1-.1-.1-.1 0-.2.1-.2.1 0 .1-.1.2-.1.2 0-.1-.1-.1-.1-.2 0-.4.1-.8.1-1.1l.3-3 .2-2c.1-.9.2-1.9.3-2.8l.5-2.1v-1c0-1.2.2-2.4.1-3.7 0-.5-.1-1.1-.1-1.6-.1-.4-.2-.4-.5-.2-.8.5-1.4 1.2-2.1 1.9-.6.8-1.1 1.6-1.5 2.5-.3.8-.8 1.5-1.1 2.4l-.3.6c-.4.9-.7 1.9-.9 2.8-.2.4-.2.8-.4 1.2l-.4 2c-.1.4-.2.7-.3 1.1-.3.7-.5 1.4-.7 2.1v.8c0 .4.1.7 0 1.1-.1.3-.2.7 0 1.1v.1l-.2 1.3v.1c.2.6-.1 1.2-.2 1.8l.1.5c0 .8-.2 1.5-.2 2.2-.1.4-.1.8-.1 1.3 0 .2-.2.3-.1.5s.1.3.2.5c0 .2.2.3-.1.5-.1 0-.1.3 0 .4.2.4-.2.5-.3.6-.2.2-.2.2-.2.4v.5c-.1.2-.2.3-.3.2h-.2c.1.1.1.2.1.2.2.2 0 .2-.2.2-.1.1-.2.1-.3.2-.2.2-.2.2-.4.2-.2-.1-.4-.1-.5-.1-.1 0-.3-.2-.2.1 0 .1-.1.1-.2.1-.2-.1-.5.1-.8.2-.5.2-1 .2-1.5-.2-.3-.2-.5-.5-.8-.8 0 0 0-.1-.1-.1.1 0 .2-.1.2-.1.2 0 .4-.2.2-.5-.1-.2-.3-.3-.4-.5-.2-.2-.2-.4-.3-.5-.1-.1 0-.2-.1-.3 0-.2 0-.3-.1-.4-.2-.2-.2-.2-.2-.4-.1-.2-.1-.3-.2-.5l-.1-.1c-.1.1-.1.1-.1.2.1.2.1.3.2.5 0 .1-.1.2-.1.2l-.2-.2v-.7c-.1-.6-.1-1.1-.2-1.8v-.3c.1-.2.2-.5-.1-.6V27c.1-.9-.1-1.8-.2-2.7 0-.2.1-.5.2-.7v-.2c-.4-.6-.2-1.3-.2-2 0-.5-.1-.9-.1-1.3 0-.5.1-.9.2-1.3.2-.2.1-.5.2-.8 0 0-.1 0-.2-.1l-.1-.1v-.1l-1.1.7c-.2.2-.4.5-.6.7-.3.3-.5.8-1 1-.3.2-.5.5-.8.6l-.2.3c-.2.1-.2.2-.4.3-.4.2-.8.5-1.1.5-.6.2-1.1.4-1.8.5-.3.1-.2.3-.3.5-.2.5-.4 1.1-.7 1.5-.2.3-.4.7-.5 1-.2.5-.5.8-.8 1.3-.2.4-.4.8-.7 1.2l-1 1.1c-.2.2-.2.3-.4.4-.4.4-.8.7-1.2 1.1l-1.2 1.1c-.2.4-.5.7-.9.8-.4.3-.7.7-1.1 1-.2.2-.5.4-.8.5-.2.1-.3.2-.5.3-.6.1-1.1.1-1.8.2-.4.1-.7 0-1.1-.1-.6-.1-1.3-.1-1.9-.2-.4 0-.8-.2-1.2-.2-.5-.2-1-.2-1.5-.5-.5-.2-1-.5-1.5-.8-.3-.2-.5-.3-.8-.5-.2-.2-.2-.3-.3-.5-.1 0-.1-.1-.1-.2-.5-.1-.7-.5-.9-.9-.3-.3-.5-.8-.7-1.1L1.2 28l-.7-2.1c-.2-.6-.2-1.2-.4-1.8v-.4c-.1-.5-.1-.8-.1-1.2V22z"/></defs><clipPath id="b"><use xlink:href="#a" overflow="visible"/></clipPath><linearGradient id="c" gradientUnits="userSpaceOnUse" y1="20.155" x2="88.519" y2="20.155"><stop offset="0" stop-color="#EB234B"/><stop offset="1" stop-color="#D10A7F"/></linearGradient><path d="M0 0h88.5v40.3H0z" clip-path="url(#b)" fill="url(#c)"/></svg>
