<svg xmlns="http://www.w3.org/2000/svg" width="62" height="31" viewBox="0 0 62 31">
    <g fill="none" fill-rule="evenodd" opacity=".9">
        <path fill="#EC1C24" d="M61.03 17.926H47.185V.246h13.847v5.11h-7.575v1.558h5.958v4.37h-5.958v1.532h7.575v5.11zm-15.149 0H32.035V.246h6.272v12.468h7.575v5.212zM15.44 5.356h-4.584v12.57H4.583V5.356H0V.246h15.439v5.11zm15.197 12.57H16.79V.246h13.846v5.11h-7.574v1.558h5.957v4.37h-5.957v1.532h7.574v5.11z"/>
        <path fill="#231F20" d="M52.062 27.843l1.27-7.705h2.285l-.135.87h.068c.675-.638 1.46-1.014 2.324-1.014 1.244 0 1.717.71 1.717 1.81 0 .246-.027.507-.068.782l-.865 5.257h-2.365l.784-4.808c.027-.13.054-.29.054-.435 0-.42-.19-.623-.635-.623-.379 0-.757.131-1.176.406l-.892 5.46h-2.366zm-6.636 2.867c-.648 0-1.122-.144-1.379-.29l.27-1.665c.244.073.541.131.852.131.595 0 .933-.233 1.19-.782l.23-.478-1.163-7.488h2.393l.473 4.591h.04l2.096-4.59h2.311l-4.11 8.182c-.797 1.622-1.554 2.39-3.203 2.39zm-7.298-2.867l.311-1.781 3.433-4.099v-.043h-2.69l.284-1.782h5.596l-.257 1.636-3.582 4.244v.044h2.96l-.297 1.781h-5.758zm-3.825-1.651c.393 0 .717-.189.947-.42l.649-3.867a.958.958 0 0 0-.473-.116c-.892 0-1.5.724-1.77 2.216a6.384 6.384 0 0 0-.122 1.188c0 .71.27.999.77.999zm-1.04 1.796c-1.338 0-2.136-.942-2.136-2.578 0-3.505 2.082-5.416 4.65-5.416 1.216 0 2.284.26 2.717.42l-1.23 7.43h-1.92l-.067-.84h-.068c-.46.549-1.122.984-1.947.984zm-6.595-2.072c.432 0 .865-.217 1.121-.42l.595-3.591a1.761 1.761 0 0 0-.716-.174c-.851 0-1.42.68-1.663 2.086a5.953 5.953 0 0 0-.094.998c0 .725.243 1.101.757 1.101zm-.892 4.838c-1.15 0-2.312-.29-2.825-.637l.283-1.753a5.48 5.48 0 0 0 2.244.508c1.5 0 1.866-.637 2.014-1.58l.068-.434h-.068c-.432.45-1.014.797-1.892.797-1.325 0-2.109-1.014-2.109-2.622 0-2.939 1.555-5.039 4.488-5.039 1.325 0 2.365.29 2.987.58L29.83 27.48c-.379 2.331-1.623 3.273-4.055 3.273zm-6.65-4.562c.392 0 .717-.189.947-.42l.648-3.867a.961.961 0 0 0-.473-.116c-.892 0-1.5.724-1.77 2.216a6.384 6.384 0 0 0-.122 1.188c0 .71.27.999.77.999zm-1.04 1.796c-1.339 0-2.136-.942-2.136-2.578 0-3.505 2.082-5.416 4.65-5.416 1.216 0 2.284.26 2.716.42l-1.23 7.43h-1.92l-.067-.84h-.067c-.46.549-1.122.984-1.947.984zm-13.88-.145l1.27-7.705H7.76l-.135.854h.067c.663-.622 1.352-.999 2.23-.999.852 0 1.326.405 1.514 1.058h.054c.785-.667 1.555-1.058 2.447-1.058 1.19 0 1.622.71 1.622 1.781 0 .246-.027.522-.068.812l-.865 5.257h-2.365l.798-4.808c.013-.145.04-.319.04-.464 0-.405-.149-.594-.527-.594-.325 0-.65.117-1.095.391 0 .088-.014.175-.027.247l-.852 5.228H8.233l.784-4.808c.027-.13.054-.319.054-.464 0-.405-.162-.594-.527-.594s-.663.117-1.082.391l-.892 5.475H4.205z"/>
    </g>
</svg>
