<svg width="24" height="24" viewBox="0 0 24 24" fill="none" xmlns="http://www.w3.org/2000/svg"><path d="M13.274 5c.404 0 .792.155 1.077.432l3.679 3.557c.285.277.446.652.446 1.042v5.285H20v1.473h-6.191C13.469 18.061 12.277 19 10.857 19s-2.613-.939-2.951-2.21H4.762A.75.75 0 0 1 4 16.053v-9.58C4 5.66 4.682 5 5.524 5h7.75Zm-2.417 9.579c-.842 0-1.524.66-1.524 1.474s.682 1.473 1.524 1.473 1.524-.66 1.524-1.473c0-.815-.682-1.474-1.524-1.474Zm2.417-8.105h-7.75v8.842h2.382c.338-1.271 1.53-2.21 2.951-2.21 1.42 0 2.614.939 2.952 2.21h3.143V10.03l-3.678-3.557Zm-.131 1.473v4.421H7.048v-4.42h6.095Zm-1.524 1.474H8.571v1.474h3.048V9.42Z" fill="#768589"/></svg>