<svg width="24" height="24" viewBox="0 0 24 24" fill="none" xmlns="http://www.w3.org/2000/svg"><path d="M6.483 7.508 4 5.066 5.083 4l2.482 2.443h11.67a.776.776 0 0 1 .614.303.746.746 0 0 1 .119.666l-1.838 6.026a.754.754 0 0 1-.276.387.773.773 0 0 1-.457.15H8.014v1.506h8.421v1.506H7.248a.772.772 0 0 1-.541-.22.747.747 0 0 1-.224-.533V7.508Zm1.531.441v4.52h8.813l1.378-4.52H8.014ZM7.631 20c-.304 0-.596-.119-.812-.33a1.12 1.12 0 0 1 0-1.599 1.158 1.158 0 0 1 1.624 0 1.12 1.12 0 0 1 0 1.598c-.215.212-.507.331-.812.331Zm9.187 0c-.304 0-.597-.119-.812-.33a1.12 1.12 0 0 1 0-1.599 1.158 1.158 0 0 1 1.624 0 1.12 1.12 0 0 1 0 1.598c-.215.212-.507.331-.812.331Z" fill="#2A8DDA"/></svg>