<svg width="66" height="72" viewBox="0 0 66 72" fill="none" xmlns="http://www.w3.org/2000/svg"><path d="M63.732 17.381c-.95-1.517-2.086-2.421-3.682-3.339L38.306 1.485a11.176 11.176 0 0 0-11.132 0L5.437 14.042c-1.715.99-4.018 2.825-4.196 5.128-.43 5.483 6.631 8.915 11.35 11.429 8.13 4.329 13.389 6.836 17.361 10.901.878.904 2.277 2.488 2.791 3.735.515-1.247 1.914-2.83 2.792-3.735 3.972-4.065 9.232-6.572 17.361-10.901 4.646-2.475 11.482-5.616 11.35-11.423-.006-.455-.204-1.3-.514-1.795Zm-30.989 15.23a6.89 6.89 0 1 1 .001-13.777 6.89 6.89 0 0 1 0 13.777Z" fill="url(#a)"/><path d="M52.923 34.215c-9.668 5.134-16.451 7.53-19.084 15.83-.31.984-.726 2.046-1.109 4.085-.376-2.026-.792-3.081-1.102-4.065-2.633-8.3-9.416-10.696-19.084-15.83C2.514 28.91.376 26.244 0 25.115v23.67a11.14 11.14 0 0 0 5.556 9.628l21.71 12.538c.792.455 1.498.805 2.277 1.05a44.534 44.534 0 0 0-.95-2.97C21.809 50.013 9.806 45.34 9.806 45.34s5.596.448 13.58 8.704c3.874 3.998 6.916 8.79 9.338 13.771 0 0 5.332-9.647 9.35-13.798 7.991-8.255 13.58-8.704 13.58-8.704s-12.01 4.672-18.786 23.69a45.8 45.8 0 0 0-.95 2.97c.778-.245 1.484-.594 2.276-1.05l21.71-12.537a11.14 11.14 0 0 0 5.556-9.628V25.096c-.369 1.128-2.507 3.794-12.537 9.12Z" fill="url(#b)"/><defs><linearGradient id="a" x1="1.219" y1="22.613" x2="64.25" y2="22.613" gradientUnits="userSpaceOnUse"><stop stop-color="#2B88D9"/><stop offset="1" stop-color="#26E0F5"/></linearGradient><linearGradient id="b" x1="40.403" y1="14.72" x2="19.485" y2="77.77" gradientUnits="userSpaceOnUse"><stop stop-color="#39B54A"/><stop offset="1" stop-color="#ACDF23"/></linearGradient></defs></svg>