<svg xmlns="http://www.w3.org/2000/svg" width="399.994" height="389.612"><path fill="#000002" d="M392.613 13.389C386.1 4.878 375.998 0 364.891 0c-7.176 0-14.604 1.996-22.095 5.929L23.91 173.124C1.245 185.027-.331 202.949.044 210.094c.36 7.19 3.828 24.827 27.604 34.268L68.4 260.483c7.73 3.063 16.376 4.638 25.682 4.638 1.471 0 2.882-.194 4.338-.27-.556.72-1.231 1.275-1.741 2.026-7.595 11.362-7.97 26.762-1.096 43.349.105.285.21.524.315.765 12.053 26.703 25.457 56.843 27.078 61.031 3.993 10.416 14.169 17.591 25.337 17.591 17.201 0 22.305-8.285 50.448-54.096 2.191-3.362 7.07-11.167 7.895-21.104 3.288 1.336 6.38 2.566 9.021 3.632l45.15 18.402c9.051 3.692 16.976 6.95 21.148 8.676a28.108 28.108 0 0 0 4.083 2.057 27.112 27.112 0 0 0 9.981 1.906c20.533 0 25.457-17.787 28.099-27.318a2440.58 2440.58 0 0 0 5.043-18.447l68.865-253.037c5.194-19.108-1.185-31.311-5.433-36.895zM176.021 321.108s-25.547 41.593-27.723 41.593c-.06 0-.09-.03-.12-.091-2.507-6.739-27.753-62.681-27.753-62.681-4.653-11.213-3.813-20.819 4.188-20.819 1.756 0 3.858.466 6.319 1.486l19.603 10.191a54.156 54.156 0 0 0 10.777 5.719l.991.375 1.846.931c15.144 8.015 19.962 10.913 11.872 23.296zM372.08 43.198l-68.835 253.038c-3.888 14.259-7.13 25.922-7.19 25.922-.06-.03-.135-.301-.135-.346 0-.09-11.228-4.683-24.946-10.297l-45.18-18.402c-13.719-5.553-36.219-14.544-50.014-19.857l-2.281-.916-8.436-4.383c-8.361-6.409-9.096-16.976-.69-25.937L304.146 92.357c5.613-5.989 7.73-9.081 6.515-9.081-.961 0-4.068 1.996-9.262 6.063L124.552 228.842c-7.715 6.019-19.438 9.381-30.456 9.381-5.644 0-11.122-.9-15.791-2.747L37.584 219.37c-13.764-5.448-14.29-15.505-1.186-22.41L355.314 29.735c3.678-1.921 6.904-2.821 9.576-2.821 6.86-.001 9.981 6.003 7.19 16.284z"/></svg>