<svg width="264" height="299" viewBox="0 60 264 299" fill="none" xmlns="http://www.w3.org/2000/svg">
<path opacity="0.3" d="M625.319 447.382C684.699 412.567 628.167 375.242 624.747 308.042C622.548 264.822 633.329 196.963 600.159 167.396C560.165 131.746 542.294 144.973 490.177 141.164C382.839 133.317 403.219 -26.6826 308.816 22.3357C259.129 48.1358 295.725 90.4986 247.843 119.273C186.099 156.378 87.4133 39.2592 61.3531 104.829C44.7145 146.693 101.099 188.177 100.235 233.117C98.9129 301.832 -22.1064 307.985 19.9379 363.821C41.9063 392.995 70.6921 392.708 100.102 414.975C156.994 458.049 111.507 543.471 179.519 566.931C235.681 586.304 268.208 514.348 327.652 517.19C378.16 519.606 403.294 584.792 450.502 567.728C500.553 549.636 460.864 473.234 507.889 448.808C545.521 429.261 588.805 468.792 625.319 447.382Z" stroke="white"/>
<path opacity="0.3" d="M645.023 437.363C704.742 398.139 643.993 362.264 636.729 292.621C632.058 247.829 646.33 165.02 607.807 139.352C562.948 109.462 542.123 127.432 487.809 126.152C375.946 123.515 388.262 -43.7685 292.97 12.0111C242.814 41.3698 283.145 83.5035 235.029 115.86C172.982 157.583 64.0627 40.9704 40.6324 110.435C25.6728 154.785 86.4987 194.99 88.0846 241.726C90.5095 313.187 -34.7826 325.798 11.9496 381.65C36.3674 410.833 66.2344 409.055 97.9962 430.679C159.436 472.509 116.936 563.597 188.837 584.478C248.209 601.72 278 525.288 339.867 525.186C392.433 525.1 422.127 591.537 470.192 571.382C521.151 550.013 475.728 472.672 523.196 444.878C561.181 422.635 608.299 461.483 645.023 437.363Z" stroke="white"/>
</svg>