<svg width="24" height="26" viewBox="0 0 24 26" fill="none" xmlns="http://www.w3.org/2000/svg">
<path d="M1.79004 23.5338C2.58395 23.5338 3.22754 22.9342 3.22754 22.1945C3.22754 21.4548 2.58395 20.8552 1.79004 20.8552C0.99613 20.8552 0.352539 21.4548 0.352539 22.1945C0.352539 22.9342 0.99613 23.5338 1.79004 23.5338Z" fill="#444444"/>
<path d="M7.06087 12.2332L6.43173 12.8194L7.06087 13.4055V12.2332Z" fill="#444444"/>
<path d="M7.06087 14.6685L5.75371 13.4506L2.36504 16.6074C1.89821 17.0449 1.56072 17.5874 1.38533 18.1823C1.20994 18.7772 1.20261 19.4042 1.36406 20.0025C1.50445 19.9771 1.64703 19.9636 1.79004 19.9623C2.42522 19.963 3.03417 20.1984 3.48331 20.6169C3.93245 21.0354 4.18511 21.6027 4.18587 22.1945C4.18446 22.3276 4.17002 22.4603 4.14275 22.5909C4.63866 22.7061 5.15428 22.7277 5.65929 22.6545C6.1643 22.5813 6.64849 22.4147 7.08339 22.1646C7.06998 22.0275 7.06087 21.8887 7.06087 21.7481V14.6685Z" fill="#444444"/>
<path d="M8.01921 4.19737V10.0774L11.175 7.13714L8.01921 4.19737Z" fill="#444444"/>
<path d="M11.8525 6.50589L15.2407 3.34914C15.3481 3.24959 15.4659 3.16432 15.5809 3.07548C15.3848 2.29239 14.9104 1.59403 14.2348 1.09369C13.5591 0.593348 12.7218 0.320389 11.8587 0.319096C10.9956 0.317804 10.1574 0.588254 9.48003 1.08657C8.80265 1.58488 8.32586 2.28182 8.12702 3.06432C8.24346 3.1536 8.35606 3.24825 8.46243 3.34914L11.8525 6.50589Z" fill="#444444"/>
<path d="M16.6442 10.9702L17.9514 12.1881L21.34 9.03137C21.8065 8.59408 22.1437 8.05193 22.3191 7.45747C22.4945 6.86302 22.502 6.23643 22.341 5.63846C22.2006 5.66315 22.058 5.67585 21.915 5.67641C21.5634 5.67994 21.2153 5.61053 20.896 5.47321C20.5767 5.33588 20.2942 5.13409 20.0689 4.88244C19.8437 4.6308 19.6814 4.33562 19.5938 4.0183C19.5062 3.70098 19.4954 3.36947 19.5623 3.0478C19.0664 2.93263 18.5508 2.91102 18.0458 2.98424C17.5408 3.05746 17.0566 3.22402 16.6217 3.47414C16.6351 3.6112 16.6442 3.75004 16.6442 3.89067V10.9702Z" fill="#444444"/>
<path d="M16.6442 13.4055L17.2734 12.8194L16.6442 12.2332V13.4055Z" fill="#444444"/>
<path d="M2.36504 3.97995C1.64728 4.65032 1.24419 5.55855 1.24419 6.50544C1.24419 7.45232 1.64728 8.36056 2.36504 9.03092L5.75323 12.1877L7.06087 10.9702V3.89067C7.06087 3.74736 7.0695 3.60629 7.08387 3.46655C6.35034 3.04408 5.48511 2.8649 4.62855 2.95809C3.772 3.05129 2.97436 3.41138 2.36504 3.97995Z" fill="#444444"/>
<path d="M15.6859 10.0774V4.19737L12.5301 7.13714L15.6859 10.0774Z" fill="#444444"/>
<path d="M17.9514 13.4506L16.6442 14.6685V21.7481C16.6442 21.8914 16.6356 22.0325 16.6212 22.1722C17.4209 22.6281 18.3721 22.7951 19.2951 22.6417C20.218 22.4883 21.0486 22.0252 21.6298 21.3398C22.211 20.6544 22.5024 19.7944 22.449 18.9223C22.3956 18.0503 22.0011 17.2267 21.34 16.6074L17.9514 13.4506Z" fill="#444444"/>
<path d="M8.01921 11.3403V14.2984L11.8525 17.8699L15.6859 14.2984V11.3403L11.8525 7.76885L8.01921 11.3403ZM14.2484 12.8194C14.2484 13.2609 14.1079 13.6924 13.8446 14.0595C13.5813 14.4266 13.2072 14.7127 12.7694 14.8816C12.3316 15.0506 11.8499 15.0948 11.3851 15.0087C10.9204 14.9225 10.4935 14.7099 10.1584 14.3978C9.82337 14.0856 9.59518 13.6878 9.50274 13.2548C9.4103 12.8218 9.45774 12.373 9.63908 11.9652C9.82041 11.5573 10.1275 11.2087 10.5215 10.9634C10.9155 10.7181 11.3787 10.5872 11.8525 10.5872C12.4877 10.5879 13.0967 10.8233 13.5458 11.2418C13.9949 11.6602 14.2476 12.2276 14.2484 12.8194Z" fill="#444444"/>
<path d="M8.01921 15.5614V21.4414L11.175 18.5016L8.01921 15.5614Z" fill="#444444"/>
<path d="M21.915 4.78354C22.7089 4.78354 23.3525 4.18391 23.3525 3.44423C23.3525 2.70455 22.7089 2.10493 21.915 2.10493C21.1211 2.10493 20.4775 2.70455 20.4775 3.44423C20.4775 4.18391 21.1211 4.78354 21.915 4.78354Z" fill="#444444"/>
<path d="M15.6859 21.4414V15.5614L12.5301 18.5016L15.6859 21.4414Z" fill="#444444"/>
<path d="M11.8525 14.1587C12.6464 14.1587 13.29 13.5591 13.29 12.8194C13.29 12.0797 12.6464 11.4801 11.8525 11.4801C11.0586 11.4801 10.415 12.0797 10.415 12.8194C10.415 13.5591 11.0586 14.1587 11.8525 14.1587Z" fill="#444444"/>
<path d="M11.8525 19.1329L8.46435 22.2896C8.35606 22.3901 8.24298 22.4843 8.12893 22.574C8.32756 23.3555 8.80344 24.0517 9.47956 24.5499C10.1557 25.0481 10.9925 25.3191 11.8545 25.3191C12.7165 25.3191 13.5532 25.0481 14.2294 24.5499C14.9055 24.0517 15.3814 23.3555 15.58 22.574C15.4635 22.4847 15.3509 22.3901 15.2446 22.2892L11.8525 19.1329Z" fill="#444444"/>
</svg>
