<svg width="32" height="32" viewBox="0 0 32 32" fill="none" xmlns="http://www.w3.org/2000/svg">
<path d="M0.0405769 15.2007L0 12.8418L1.87393 12.8088C1.86535 12.5925 1.85754 12.3758 1.85754 12.1599C1.85754 11.0993 2.01634 10.0756 2.31013 9.11089L0.529835 8.21777L1.57234 6.10552L3.2508 6.94673C3.89417 5.83023 4.73652 4.8447 5.72948 4.04006L4.61753 2.40957L6.54607 1.07323L7.70836 2.77609C8.78402 2.25186 9.96308 1.91129 11.2053 1.79213V0H13.5463V1.835C14.9524 2.02141 16.2692 2.49215 17.4397 3.19021L18.6055 1.49207L20.5305 2.83391L19.3082 4.61542C20.113 5.38701 20.7958 6.28682 21.3221 7.28336L23.3065 6.60261L24.0611 8.83639L22.1801 9.48214C22.406 10.3371 22.5281 11.2342 22.5281 12.1599C22.5281 12.7829 22.589 13.3063 22.6971 13.7593L24.7696 12.7718L25.77 14.9049L23.9042 15.7941C24.413 16.2362 25.0298 16.5728 25.7005 16.9381C26.3969 17.3169 27.1328 17.7184 27.7988 18.2859L29.3844 16.913L30.9095 18.7035L29.2513 20.139C29.4831 20.6042 29.6782 21.1343 29.8186 21.7557C29.9439 22.311 29.9716 22.8809 29.9236 23.4495L32 24.2046L31.206 26.4246L29.2751 25.7226C29.0695 26.1293 28.8194 26.5229 28.5241 26.8961C28.1175 27.4098 27.6412 27.8667 27.1078 28.2635L28.116 30.4773L25.9884 31.462L25.0443 29.3883C23.896 29.8284 22.6105 30.0643 21.2468 30.0643C21.1048 30.0643 20.9714 30.0557 20.8317 30.0533L20.6503 32L18.3195 31.7794L18.4935 29.9098C16.769 29.7131 15.2298 29.3376 13.8573 28.8456L13.0687 30.611L10.9342 29.6423L11.7055 27.9155C10.3899 27.2469 9.26587 26.4816 8.32481 25.6963L6.62957 27.2827L5.03694 25.5535L6.61982 24.0725C5.69319 23.0645 4.88751 21.9586 4.21605 20.7863L2.19971 21.6641L1.27153 19.4979L3.17979 18.667C2.71199 17.5312 2.36319 16.3561 2.14236 15.1645L0.0405769 15.2007ZM23.2398 24.6533C24.2518 24.6533 25.0724 23.8263 25.0724 22.8057C25.0724 21.784 24.2515 20.9574 23.2398 20.9574C22.2269 20.9574 21.4053 21.7844 21.4053 22.8057C21.4049 23.8263 22.2269 24.6533 23.2398 24.6533ZM14.3348 23.3681C15.3488 23.3681 16.1689 22.5411 16.1689 21.5201C16.1689 20.5 15.3484 19.6718 14.3348 19.6718C13.3227 19.6718 12.5018 20.5 12.5018 21.5201C12.5018 22.5415 13.3231 23.3681 14.3348 23.3681ZM11.5128 14.8916C13.6571 14.8916 15.3953 13.1392 15.3953 10.9785C15.3953 8.81712 13.6571 7.0651 11.5128 7.0651C9.37043 7.0651 7.6315 8.81712 7.6315 10.9785C7.6315 13.1392 9.37043 14.8916 11.5128 14.8916Z" fill="#444444"/>
</svg>
