<svg width="37" height="39" viewBox="0 0 37 39" fill="none" xmlns="http://www.w3.org/2000/svg">
<path d="M18.1026 15.7326C20.092 15.7326 21.7048 14.1048 21.7048 12.0969C21.7048 10.089 20.092 8.46132 18.1026 8.46132C16.1131 8.46132 14.5003 10.089 14.5003 12.0969C14.5003 14.1048 16.1131 15.7326 18.1026 15.7326Z" fill="#444444"/>
<path d="M10.1124 30.8395C12.1019 30.8395 13.7146 29.2118 13.7146 27.2039C13.7146 25.196 12.1019 23.5682 10.1124 23.5682C8.12289 23.5682 6.5101 25.196 6.5101 27.2039C6.5101 29.2118 8.12289 30.8395 10.1124 30.8395Z" fill="#444444"/>
<path d="M4.62726 26.118C6.61648 26.118 8.22906 24.4905 8.22906 22.4828C8.22906 20.4752 6.61648 18.8477 4.62726 18.8477C2.63803 18.8477 1.02545 20.4752 1.02545 22.4828C1.02545 24.4905 2.63803 26.118 4.62726 26.118Z" fill="#444444"/>
<path d="M3.60134 18.9215C5.5916 18.9215 7.20454 17.2936 7.20454 15.2859C7.20454 13.2786 5.5916 11.6507 3.60134 11.6507C1.61294 11.6507 0 13.2781 0 15.2859C0 17.2936 1.61294 18.9215 3.60134 18.9215Z" fill="#444444"/>
<path d="M5.56521 11.9283C7.55469 11.9283 9.16748 10.3005 9.16748 8.29264C9.16748 6.28474 7.55469 4.65702 5.56521 4.65702C3.57573 4.65702 1.96294 6.28474 1.96294 8.29264C1.96294 10.3005 3.57573 11.9283 5.56521 11.9283Z" fill="#444444"/>
<path d="M11.0952 7.27032C13.0845 7.27032 14.697 5.6428 14.697 3.63516C14.697 1.62752 13.0845 0 11.0952 0C9.10601 0 7.49343 1.62752 7.49343 3.63516C7.49343 5.6428 9.10601 7.27032 11.0952 7.27032Z" fill="#444444"/>
<path d="M24.202 15.9372C25.6062 16.3984 27.0862 15.941 28.0094 14.8948C27.7145 15.2452 27.4797 15.6569 27.3302 16.1213C26.7149 18.03 27.7492 20.0817 29.6413 20.7031C31.5329 21.3245 33.5658 20.2807 34.1815 18.3716C34.7973 16.4619 33.763 14.4103 31.8709 13.7888C30.4667 13.3277 28.9867 13.7851 28.0635 14.8317C28.3584 14.4813 28.5932 14.0701 28.7427 13.6057C29.3584 11.696 28.3242 9.64391 26.4321 9.02248C24.54 8.40105 22.5081 9.4458 21.8923 11.3554C21.277 13.2651 22.3104 15.3158 24.202 15.9372Z" fill="#444444"/>
<path d="M33.3977 27.6622C35.3872 27.6622 37 26.0345 37 24.0266C37 22.0187 35.3872 20.391 33.3977 20.391C31.4083 20.391 29.7955 22.0187 29.7955 24.0266C29.7955 26.0345 31.4083 27.6622 33.3977 27.6622Z" fill="#444444"/>
<path d="M27.7427 29.8148C27.3733 30.961 27.601 32.1557 28.2487 33.064C27.827 32.5426 27.2589 32.131 26.5774 31.9072C24.6853 31.2857 22.6525 32.3295 22.0368 34.2387C21.4215 36.1479 22.4557 38.1991 24.3478 38.8205C26.2395 39.4419 28.2723 38.3981 28.8881 36.4889C29.2575 35.3437 29.0297 34.149 28.3816 33.2407C28.8038 33.7626 29.3719 34.1738 30.0533 34.398C31.945 35.0195 33.9774 33.9756 34.5935 32.0655C35.2088 30.1569 34.1746 28.1052 32.2829 27.4838C30.3908 26.8623 28.358 27.9061 27.7427 29.8148Z" fill="#444444"/>
</svg>
