<svg width="35" height="36" viewBox="0 0 35 36" fill="none" xmlns="http://www.w3.org/2000/svg">
<path d="M9.60299 10.0335L13.146 12.1511C14.4452 12.9274 16.1465 12.506 16.9266 11.2121C17.7066 9.91869 17.2827 8.22501 15.9831 7.44869L12.4397 5.33106C11.14 4.55389 9.43831 4.97741 8.65829 6.27001C7.87913 7.56346 8.30339 9.25629 9.60299 10.0335Z" fill="#444444"/>
<path d="M1.33516 5.09134L4.87864 7.21024C6.17739 7.98656 7.87913 7.56389 8.65872 6.27044C9.43874 4.97784 9.01532 3.28416 7.71529 2.50784L4.17224 0.388937C2.87221 -0.387386 1.17048 0.0352931 0.390885 1.32874C-0.389132 2.62134 0.0351326 4.31502 1.33516 5.09134Z" fill="#444444"/>
<path d="M12.2307 26.8923C11.346 25.3329 9.34001 24.7781 7.77317 25.6573C6.20633 26.5378 5.64759 28.5343 6.53229 30.0938L8.94468 34.3476C9.82938 35.9071 11.8354 36.4619 13.4022 35.5818C14.9695 34.7013 15.5278 32.7056 14.6422 31.1462L12.2307 26.8923Z" fill="#444444"/>
<path d="M9.01447 21.2217L6.6008 16.9678C5.71738 15.4084 3.71138 14.8528 2.14411 15.7328C0.577272 16.6142 0.0189622 18.6099 0.903662 20.1693L3.31605 24.4232C4.20033 25.983 6.20633 26.5378 7.77317 25.6573C9.33958 24.7781 9.89874 22.7812 9.01447 21.2217Z" fill="#444444"/>
<path d="M30.5949 12.9228L34.1329 8.80905C35.4299 7.30088 35.2512 5.01045 33.7354 3.71954C32.2192 2.42821 29.9179 2.60736 28.6208 4.11554L25.0833 8.22882C23.7863 9.73784 23.9654 12.0278 25.4808 13.3188C26.997 14.6092 29.2983 14.4309 30.5949 12.9228Z" fill="#444444"/>
<path d="M22.3411 22.5215L25.8787 18.4078C27.1757 16.9001 26.997 14.6097 25.4808 13.3188C23.9654 12.0278 21.6641 12.2066 20.3666 13.7143L16.8291 17.828C15.5321 19.3366 15.7104 21.6266 17.2266 22.9175C18.7428 24.208 21.0441 24.0297 22.3411 22.5215Z" fill="#444444"/>
<path d="M31.349 23.4389L28.2196 25.1101C27.0723 25.7225 26.637 27.16 27.2527 28.301C27.8689 29.4436 29.3115 29.8761 30.4592 29.2628L33.5886 27.592C34.7363 26.9791 35.1716 25.5425 34.5554 24.4007C33.9393 23.2589 32.4962 22.8265 31.349 23.4389Z" fill="#444444"/>
<path d="M24.0467 27.3391L20.9173 29.0112C19.77 29.6236 19.3347 31.0602 19.9509 32.2012C20.5666 33.3439 22.0096 33.7772 23.1569 33.163L26.2863 31.4918C27.4336 30.8794 27.8693 29.4436 27.2527 28.301C26.637 27.16 25.194 26.7263 24.0467 27.3391Z" fill="#444444"/>
</svg>
