<svg width="1920" height="474" viewBox="0 0 1920 474" fill="none" xmlns="http://www.w3.org/2000/svg">
<path opacity="0.5" d="M-17.8672 61.9092C-17.8672 61.9092 138.772 119.451 243.05 118.708C378.541 117.741 441.948 -9.02596 574.859 17.3096C719.73 46.015 708.45 252.838 854.967 271.391C985.828 287.961 1032.61 133.764 1164.5 136.2C1289.59 138.51 1331.63 258.46 1456.35 268.371C1592.3 279.174 1666.06 108.597 1790.05 165.407C1899.15 215.4 1941.37 432.886 1941.37 432.886" stroke="#999999"/>
<path opacity="0.5" d="M0.566406 28.0557C0.566406 28.0557 154.894 91.5371 259.124 94.7757C394.554 98.9838 462.755 -25.2699 594.563 6.12157C738.232 40.3379 719.063 246.579 864.765 270.713C994.898 292.269 1047.54 139.97 1179.23 147.44C1304.15 154.526 1341.57 275.993 1465.83 290.659C1601.26 306.645 1681.49 139.009 1803.21 200.512C1910.33 254.635 1944.21 473.575 1944.21 473.575" stroke="#999999"/>
</svg>
