<?xml version="1.0" encoding="UTF-8"?>
            <svg class="banner-bg-svg" width="1440px" height="754px" viewBox="0 0 1440 754" version="1.1" xmlns="http://www.w3.org/2000/svg" xmlns:xlink="http://www.w3.org/1999/xlink">
                <title>Group</title>
                <defs>
                    <path d="M1440,0 L0,0 L0,641 L846.677208,641 C985.483424,641 1104.50288,540.925842 1129.64497,403.071939 C1139.6433,348.235077 1150.27764,289.93695 1160.25688,235.216341 C1185.11276,98.9373168 1302.77749,0 1440,0 Z" id="path-1"></path>
                    <circle id="path-3" cx="209" cy="209" r="209"></circle>
                </defs>
                <g id="Page-1" stroke="none" stroke-width="1" fill="none" fill-rule="evenodd">
                    <g id="Header-Photo-Variation" transform="translate(2.000000, -162.000000)">
                        <g id="Group" transform="translate(-2.000000, 162.000000)">
                            <g id="Hero">
                                <path d="M373,641.054155 C425.672789,641.054155 470.587521,639.517414 521.905564,652.816259 C566.272987,664.313748 593.721689,697.540847 644.946085,700.823319 C702.221057,704.493979 758.996584,692.495489 816.011428,699.596941 C841.165801,702.729794 865.024737,715.66764 890.449643,719.433229 C988.512678,733.956477 1079.59388,761.500335 1179.92523,752.079579 C1245.01445,745.967859 1277.48882,675.784204 1338.98307,662.385543 C1364.98546,656.719978 1439.02308,650.955637 1439.92832,649.242139 C1440.0896,648.943213 1439.92832,648.565266 1439.92832,648.226829 L1439.92832,632.291553" id="Fill-1" fill="#B5D5F1"></path>
                                <rect id="Rectangle" fill="#B5D5F1" x="0" y="0" width="1440" height="641"></rect>
                                <g id="Fill-10">
                                    <mask id="mask-2" fill="white">
                                        <use xlink:href="#path-1"></use>
                                    </mask>
                                    <use id="Mask-Copy" fill="#EBF2FB" xlink:href="#path-1"></use>
                                    <g id="Group-12" mask="url(#mask-2)" fill="#6DA0CC">
                                        <g transform="translate(780.000000, -450.000000)">
                                            <polygon id="Fill-1" points="236 0 206.94784 0 0 493 29.0523328 493"></polygon>
                                            <polygon id="Fill-2" points="290 0 260.947797 0 54 493 83.0522026 493"></polygon>
                                            <polygon id="Fill-3" points="343 0 313.947755 0 107 493 136.052245 493"></polygon>
                                            <polygon id="Fill-4" points="397 0 367.947925 0 161 493 190.052766 493"></polygon>
                                            <polygon id="Fill-5" points="450 0 420.94784 0 214 493 243.05216 493"></polygon>
                                            <polygon id="Fill-6" points="504 0 474.94784 0 268 493 297.05216 493"></polygon>
                                            <polygon id="Fill-7" points="558 0 528.94784 0 322 493 351.05216 493"></polygon>
                                            <polygon id="Fill-8" points="612 0 582.94784 0 376 493 405.05216 493"></polygon>
                                            <polygon id="Fill-9" points="666 0 636.94784 0 430 493 459.05216 493"></polygon>
                                            <polygon id="Fill-10" points="720 0 690.94784 0 484 493 513.05216 493"></polygon>
                                            <polygon id="Fill-11" points="775 0 745.94784 0 539 493 568.05216 493"></polygon>
                                        </g>
                                    </g>
                                    <path d="M783.589813,695.146513 C785.56959,695.146513 787.17468,696.68264 787.17468,698.574438 C787.17468,700.4686 785.56959,702 783.589813,702 C781.60509,702 780,700.4686 780,698.574438 C780,696.68264 781.60509,695.146513 783.589813,695.146513 Z M819.455795,695.146513 C821.435571,695.146513 823.040662,696.68264 823.040662,698.574438 C823.040662,700.4686 821.435571,702 819.455795,702 C817.472309,702 815.865982,700.4686 815.865982,698.574438 C815.865982,696.68264 817.472309,695.146513 819.455795,695.146513 Z M963.455795,695.146513 C965.435571,695.146513 967.040662,696.68264 967.040662,698.574438 C967.040662,700.4686 965.435571,702 963.455795,702 C961.472309,702 959.865982,700.4686 959.865982,698.574438 C959.865982,696.68264 961.472309,695.146513 963.455795,695.146513 Z M927.589813,695.146513 C929.56959,695.146513 931.17468,696.68264 931.17468,698.574438 C931.17468,700.4686 929.56959,702 927.589813,702 C925.60509,702 924,700.4686 924,698.574438 C924,696.68264 925.60509,695.146513 927.589813,695.146513 Z M1001.62358,695.141787 C1003.60336,695.141787 1005.20845,696.677913 1005.20845,698.569712 C1005.20845,700.463874 1003.60336,701.995273 1001.62358,701.995273 C999.638858,701.995273 998.032531,700.463874 998.032531,698.569712 C998.032531,696.677913 999.638858,695.141787 1001.62358,695.141787 Z M857.62358,695.141787 C859.603357,695.141787 861.208447,696.677913 861.208447,698.569712 C861.208447,700.463874 859.603357,701.995273 857.62358,701.995273 C855.638858,701.995273 854.032531,700.463874 854.032531,698.569712 C854.032531,696.677913 855.638858,695.141787 857.62358,695.141787 Z M1037.48956,695.141787 C1039.46934,695.141787 1041.07443,696.677913 1041.07443,698.569712 C1041.07443,700.463874 1039.46934,701.995273 1037.48956,701.995273 C1035.50484,701.995273 1033.89975,700.463874 1033.89975,698.569712 C1033.89975,696.677913 1035.50484,695.141787 1037.48956,695.141787 Z M893.489562,695.141787 C895.469338,695.141787 897.074429,696.677913 897.074429,698.569712 C897.074429,700.463874 895.469338,701.995273 893.489562,701.995273 C891.504839,701.995273 889.899749,700.463874 889.899749,698.569712 C889.899749,696.677913 891.504839,695.141787 893.489562,695.141787 Z M801.521568,678.013978 C803.501344,678.013978 805.111381,679.550104 805.111381,681.441903 C805.111381,683.336065 803.501344,684.867465 801.521568,684.867465 C799.541791,684.867465 797.936701,683.336065 797.936701,681.441903 C797.936701,679.550104 799.541791,678.013978 801.521568,678.013978 Z M837.381366,678.013978 C839.361142,678.013978 840.966233,679.550104 840.966233,681.441903 C840.966233,683.336065 839.361142,684.867465 837.381366,684.867465 C835.40159,684.867465 833.796499,683.336065 833.796499,681.441903 C833.796499,679.550104 835.40159,678.013978 837.381366,678.013978 Z M981.381366,678.013978 C983.361142,678.013978 984.966233,679.550104 984.966233,681.441903 C984.966233,683.336065 983.361142,684.867465 981.381366,684.867465 C979.40159,684.867465 977.796499,683.336065 977.796499,681.441903 C977.796499,679.550104 979.40159,678.013978 981.381366,678.013978 Z M945.521568,678.013978 C947.501344,678.013978 949.111381,679.550104 949.111381,681.441903 C949.111381,683.336065 947.501344,684.867465 945.521568,684.867465 C943.541791,684.867465 941.936701,683.336065 941.936701,681.441903 C941.936701,679.550104 943.541791,678.013978 945.521568,678.013978 Z M1019.5541,678.009251 C1021.53387,678.009251 1023.14391,679.545378 1023.14391,681.437176 C1023.14391,683.331338 1021.53387,684.862738 1019.5541,684.862738 C1017.57432,684.862738 1015.96923,683.331338 1015.96923,681.437176 C1015.96923,679.545378 1017.57432,678.009251 1019.5541,678.009251 Z M1055.4139,678.009251 C1057.39367,678.009251 1058.99876,679.545378 1058.99876,681.437176 C1058.99876,683.331338 1057.39367,684.862738 1055.4139,684.862738 C1053.43412,684.862738 1051.82903,683.331338 1051.82903,681.437176 C1051.82903,679.545378 1053.43412,678.009251 1055.4139,678.009251 Z M911.413896,678.009251 C913.393673,678.009251 914.998763,679.545378 914.998763,681.437176 C914.998763,683.331338 913.393673,684.862738 911.413896,684.862738 C909.43412,684.862738 907.82903,683.331338 907.82903,681.437176 C907.82903,679.545378 909.43412,678.009251 911.413896,678.009251 Z M875.554098,678.009251 C877.533874,678.009251 879.143911,679.545378 879.143911,681.437176 C879.143911,683.331338 877.533874,684.862738 875.554098,684.862738 C873.574321,684.862738 871.969231,683.331338 871.969231,681.437176 C871.969231,679.545378 873.574321,678.009251 875.554098,678.009251 Z M819.455795,660.880261 C821.435571,660.880261 823.040662,662.416387 823.040662,664.308186 C823.040662,666.202348 821.435571,667.736111 819.455795,667.736111 C817.472309,667.736111 815.865982,666.202348 815.865982,664.308186 C815.865982,662.416387 817.472309,660.880261 819.455795,660.880261 Z M927.589813,660.880261 C929.56959,660.880261 931.17468,662.416387 931.17468,664.308186 C931.17468,666.202348 929.56959,667.736111 927.589813,667.736111 C925.60509,667.736111 924,666.202348 924,664.308186 C924,662.416387 925.60509,660.880261 927.589813,660.880261 Z M963.455795,660.880261 C965.435571,660.880261 967.040662,662.416387 967.040662,664.308186 C967.040662,666.202348 965.435571,667.736111 963.455795,667.736111 C961.472309,667.736111 959.865982,666.202348 959.865982,664.308186 C959.865982,662.416387 961.472309,660.880261 963.455795,660.880261 Z M783.589813,660.880261 C785.56959,660.880261 787.17468,662.416387 787.17468,664.308186 C787.17468,666.202348 785.56959,667.736111 783.589813,667.736111 C781.60509,667.736111 780,666.202348 780,664.308186 C780,662.416387 781.60509,660.880261 783.589813,660.880261 Z M1037.48956,660.875534 C1039.46934,660.875534 1041.07443,662.411661 1041.07443,664.30346 C1041.07443,666.197621 1039.46934,667.731384 1037.48956,667.731384 C1035.50484,667.731384 1033.89975,666.197621 1033.89975,664.30346 C1033.89975,662.411661 1035.50484,660.875534 1037.48956,660.875534 Z M1001.62358,660.875534 C1003.60336,660.875534 1005.20845,662.411661 1005.20845,664.30346 C1005.20845,666.197621 1003.60336,667.731384 1001.62358,667.731384 C999.638858,667.731384 998.032531,666.197621 998.032531,664.30346 C998.032531,662.411661 999.638858,660.875534 1001.62358,660.875534 Z M857.62358,660.875534 C859.603357,660.875534 861.208447,662.411661 861.208447,664.30346 C861.208447,666.197621 859.603357,667.731384 857.62358,667.731384 C855.638858,667.731384 854.032531,666.197621 854.032531,664.30346 C854.032531,662.411661 855.638858,660.875534 857.62358,660.875534 Z M893.489562,660.875534 C895.469338,660.875534 897.074429,662.411661 897.074429,664.30346 C897.074429,666.197621 895.469338,667.731384 893.489562,667.731384 C891.504839,667.731384 889.899749,666.197621 889.899749,664.30346 C889.899749,662.411661 891.504839,660.875534 893.489562,660.875534 Z M981.381366,643.747726 C983.361142,643.747726 984.966233,645.281489 984.966233,647.173287 C984.966233,649.067449 983.361142,650.601212 981.381366,650.601212 C979.40159,650.601212 977.796499,649.067449 977.796499,647.173287 C977.796499,645.281489 979.40159,643.747726 981.381366,643.747726 Z M945.521568,643.747726 C947.501344,643.747726 949.111381,645.281489 949.111381,647.173287 C949.111381,649.067449 947.501344,650.601212 945.521568,650.601212 C943.541791,650.601212 941.936701,649.067449 941.936701,647.173287 C941.936701,645.281489 943.541791,643.747726 945.521568,643.747726 Z M801.521568,643.747726 C803.501344,643.747726 805.111381,645.281489 805.111381,647.173287 C805.111381,649.067449 803.501344,650.601212 801.521568,650.601212 C799.541791,650.601212 797.936701,649.067449 797.936701,647.173287 C797.936701,645.281489 799.541791,643.747726 801.521568,643.747726 Z M837.381366,643.747726 C839.361142,643.747726 840.966233,645.281489 840.966233,647.173287 C840.966233,649.067449 839.361142,650.601212 837.381366,650.601212 C835.40159,650.601212 833.796499,649.067449 833.796499,647.173287 C833.796499,645.281489 835.40159,643.747726 837.381366,643.747726 Z M1055.4139,643.742999 C1057.39367,643.742999 1058.99876,645.276762 1058.99876,647.168561 C1058.99876,649.062723 1057.39367,650.596486 1055.4139,650.596486 C1053.43412,650.596486 1051.82903,649.062723 1051.82903,647.168561 C1051.82903,645.276762 1053.43412,643.742999 1055.4139,643.742999 Z M911.413896,643.742999 C913.393673,643.742999 914.998763,645.276762 914.998763,647.168561 C914.998763,649.062723 913.393673,650.596486 911.413896,650.596486 C909.43412,650.596486 907.82903,649.062723 907.82903,647.168561 C907.82903,645.276762 909.43412,643.742999 911.413896,643.742999 Z M875.554098,643.742999 C877.533874,643.742999 879.143911,645.276762 879.143911,647.168561 C879.143911,649.062723 877.533874,650.596486 875.554098,650.596486 C873.574321,650.596486 871.969231,649.062723 871.969231,647.168561 C871.969231,645.276762 873.574321,643.742999 875.554098,643.742999 Z M1019.5541,643.742999 C1021.53387,643.742999 1023.14391,645.276762 1023.14391,647.168561 C1023.14391,649.062723 1021.53387,650.596486 1019.5541,650.596486 C1017.57432,650.596486 1015.96923,649.062723 1015.96923,647.168561 C1015.96923,645.276762 1017.57432,643.742999 1019.5541,643.742999 Z M893.489562,630.398788 C895.469338,630.398788 897.074429,631.936096 897.074429,633.826713 C897.074429,635.720875 895.469338,637.253456 893.489562,637.253456 C891.504839,637.253456 889.899749,635.720875 889.899749,633.826713 C889.899749,631.936096 891.504839,630.398788 893.489562,630.398788 Z M1037.48956,630.398788 C1039.46934,630.398788 1041.07443,631.936096 1041.07443,633.826713 C1041.07443,635.720875 1039.46934,637.253456 1037.48956,637.253456 C1035.50484,637.253456 1033.89975,635.720875 1033.89975,633.826713 C1033.89975,631.936096 1035.50484,630.398788 1037.48956,630.398788 Z M1001.62358,630.398788 C1003.60336,630.398788 1005.20845,631.936096 1005.20845,633.826713 C1005.20845,635.720875 1003.60336,637.253456 1001.62358,637.253456 C999.638858,637.253456 998.033767,635.720875 998.033767,633.826713 C998.033767,631.936096 999.638858,630.398788 1001.62358,630.398788 Z M857.62358,630.398788 C859.603357,630.398788 861.208447,631.936096 861.208447,633.826713 C861.208447,635.720875 859.603357,637.253456 857.62358,637.253456 C855.638858,637.253456 854.033767,635.720875 854.033767,633.826713 C854.033767,631.936096 855.638858,630.398788 857.62358,630.398788 Z M927.589813,630.398788 C929.56959,630.398788 931.17468,631.934914 931.17468,633.826713 C931.17468,635.720875 929.56959,637.252274 927.589813,637.252274 C925.60509,637.252274 924,635.720875 924,633.826713 C924,631.934914 925.60509,630.398788 927.589813,630.398788 Z M963.455795,630.398788 C965.435571,630.398788 967.040662,631.934914 967.040662,633.826713 C967.040662,635.720875 965.435571,637.252274 963.455795,637.252274 C961.472309,637.252274 959.865982,635.720875 959.865982,633.826713 C959.865982,631.934914 961.472309,630.398788 963.455795,630.398788 Z M783.589813,630.398788 C785.56959,630.398788 787.17468,631.934914 787.17468,633.826713 C787.17468,635.720875 785.56959,637.252274 783.589813,637.252274 C781.60509,637.252274 780,635.720875 780,633.826713 C780,631.934914 781.60509,630.398788 783.589813,630.398788 Z M819.455795,630.398788 C821.435571,630.398788 823.040662,631.934914 823.040662,633.826713 C823.040662,635.720875 821.435571,637.252274 819.455795,637.252274 C817.472309,637.252274 815.865982,635.720875 815.865982,633.826713 C815.865982,631.934914 817.472309,630.398788 819.455795,630.398788 Z M981.381366,613.266252 C983.361142,613.266252 984.966233,614.802379 984.966233,616.694177 C984.966233,618.588339 983.361142,620.119739 981.381366,620.119739 C979.40159,620.119739 977.796499,618.588339 977.796499,616.694177 C977.796499,614.802379 979.40159,613.266252 981.381366,613.266252 Z M1055.41513,613.266252 C1057.39491,613.266252 1059,614.802379 1059,616.694177 C1059,618.588339 1057.39491,620.119739 1055.41513,620.119739 C1053.43536,620.119739 1051.83027,618.588339 1051.83027,616.694177 C1051.83027,614.802379 1053.43536,613.266252 1055.41513,613.266252 Z M1019.55533,613.266252 C1021.53511,613.266252 1023.14515,614.802379 1023.14515,616.694177 C1023.14515,618.588339 1021.53511,620.119739 1019.55533,620.119739 C1017.57556,620.119739 1015.97047,618.588339 1015.97047,616.694177 C1015.97047,614.802379 1017.57556,613.266252 1019.55533,613.266252 Z M801.521568,613.266252 C803.501344,613.266252 805.111381,614.802379 805.111381,616.694177 C805.111381,618.588339 803.501344,620.119739 801.521568,620.119739 C799.541791,620.119739 797.936701,618.588339 797.936701,616.694177 C797.936701,614.802379 799.541791,613.266252 801.521568,613.266252 Z M837.381366,613.266252 C839.361142,613.266252 840.966233,614.802379 840.966233,616.694177 C840.966233,618.588339 839.361142,620.119739 837.381366,620.119739 C835.40159,620.119739 833.796499,618.588339 833.796499,616.694177 C833.796499,614.802379 835.40159,613.266252 837.381366,613.266252 Z M911.415133,613.266252 C913.394909,613.266252 915,614.802379 915,616.694177 C915,618.588339 913.394909,620.119739 911.415133,620.119739 C909.435357,620.119739 907.830266,618.588339 907.830266,616.694177 C907.830266,614.802379 909.435357,613.266252 911.415133,613.266252 Z M875.555335,613.266252 C877.535111,613.266252 879.145148,614.802379 879.145148,616.694177 C879.145148,618.588339 877.535111,620.119739 875.555335,620.119739 C873.575558,620.119739 871.970468,618.588339 871.970468,616.694177 C871.970468,614.802379 873.575558,613.266252 875.555335,613.266252 Z M945.521568,613.266252 C947.501344,613.266252 949.111381,614.802379 949.111381,616.694177 C949.111381,618.588339 947.501344,620.119739 945.521568,620.119739 C943.541791,620.119739 941.936701,618.588339 941.936701,616.694177 C941.936701,614.802379 943.541791,613.266252 945.521568,613.266252 Z M1001.62358,596.132535 C1003.60336,596.132535 1005.20845,597.669843 1005.20845,599.561642 C1005.20845,601.455804 1003.60336,602.989567 1001.62358,602.989567 C999.638858,602.989567 998.033767,601.455804 998.033767,599.561642 C998.033767,597.669843 999.638858,596.132535 1001.62358,596.132535 Z M1037.48956,596.132535 C1039.46934,596.132535 1041.07443,597.669843 1041.07443,599.561642 C1041.07443,601.455804 1039.46934,602.989567 1037.48956,602.989567 C1035.50484,602.989567 1033.89975,601.455804 1033.89975,599.561642 C1033.89975,597.669843 1035.50484,596.132535 1037.48956,596.132535 Z M963.455795,596.132535 C965.435571,596.132535 967.040662,597.668662 967.040662,599.561642 C967.040662,601.455804 965.435571,602.989567 963.455795,602.989567 C961.472309,602.989567 959.865982,601.455804 959.865982,599.561642 C959.865982,597.668662 961.472309,596.132535 963.455795,596.132535 Z M783.589813,596.132535 C785.56959,596.132535 787.17468,597.668662 787.17468,599.561642 C787.17468,601.455804 785.56959,602.989567 783.589813,602.989567 C781.60509,602.989567 780,601.455804 780,599.561642 C780,597.668662 781.60509,596.132535 783.589813,596.132535 Z M819.455795,596.132535 C821.435571,596.132535 823.040662,597.668662 823.040662,599.561642 C823.040662,601.455804 821.435571,602.989567 819.455795,602.989567 C817.472309,602.989567 815.865982,601.455804 815.865982,599.561642 C815.865982,597.668662 817.472309,596.132535 819.455795,596.132535 Z M893.489562,596.132535 C895.469338,596.132535 897.074429,597.669843 897.074429,599.561642 C897.074429,601.455804 895.469338,602.989567 893.489562,602.989567 C891.504839,602.989567 889.899749,601.455804 889.899749,599.561642 C889.899749,597.669843 891.504839,596.132535 893.489562,596.132535 Z M857.62358,596.132535 C859.603357,596.132535 861.208447,597.669843 861.208447,599.561642 C861.208447,601.455804 859.603357,602.989567 857.62358,602.989567 C855.638858,602.989567 854.033767,601.455804 854.033767,599.561642 C854.033767,597.669843 855.638858,596.132535 857.62358,596.132535 Z M927.589813,596.132535 C929.56959,596.132535 931.17468,597.668662 931.17468,599.561642 C931.17468,601.455804 929.56959,602.989567 927.589813,602.989567 C925.60509,602.989567 924,601.455804 924,599.561642 C924,597.668662 925.60509,596.132535 927.589813,596.132535 Z M945.521568,579 C947.501344,579 949.111381,580.533763 949.111381,582.425562 C949.111381,584.319724 947.501344,585.853487 945.521568,585.853487 C943.541791,585.853487 941.936701,584.319724 941.936701,582.425562 C941.936701,580.533763 943.541791,579 945.521568,579 Z M981.381366,579 C983.361142,579 984.966233,580.533763 984.966233,582.425562 C984.966233,584.319724 983.361142,585.853487 981.381366,585.853487 C979.40159,585.853487 977.796499,584.319724 977.796499,582.425562 C977.796499,580.533763 979.40159,579 981.381366,579 Z M1055.41513,579 C1057.39491,579 1059,580.533763 1059,582.425562 C1059,584.319724 1057.39491,585.853487 1055.41513,585.853487 C1053.43536,585.853487 1051.83027,584.319724 1051.83027,582.425562 C1051.83027,580.533763 1053.43536,579 1055.41513,579 Z M1019.55533,579 C1021.53511,579 1023.14515,580.533763 1023.14515,582.425562 C1023.14515,584.319724 1021.53511,585.853487 1019.55533,585.853487 C1017.57556,585.853487 1015.97047,584.319724 1015.97047,582.425562 C1015.97047,580.533763 1017.57556,579 1019.55533,579 Z M875.555335,579 C877.535111,579 879.145148,580.533763 879.145148,582.425562 C879.145148,584.319724 877.535111,585.853487 875.555335,585.853487 C873.575558,585.853487 871.970468,584.319724 871.970468,582.425562 C871.970468,580.533763 873.575558,579 875.555335,579 Z M911.415133,579 C913.394909,579 915,580.533763 915,582.425562 C915,584.319724 913.394909,585.853487 911.415133,585.853487 C909.435357,585.853487 907.830266,584.319724 907.830266,582.425562 C907.830266,580.533763 909.435357,579 911.415133,579 Z M837.381366,579 C839.361142,579 840.966233,580.533763 840.966233,582.425562 C840.966233,584.319724 839.361142,585.853487 837.381366,585.853487 C835.40159,585.853487 833.796499,584.319724 833.796499,582.425562 C833.796499,580.533763 835.40159,579 837.381366,579 Z M801.521568,579 C803.501344,579 805.111381,580.533763 805.111381,582.425562 C805.111381,584.319724 803.501344,585.853487 801.521568,585.853487 C799.541791,585.853487 797.936701,584.319724 797.936701,582.425562 C797.936701,580.533763 799.541791,579 801.521568,579 Z M783.589813,562.146513 C785.56959,562.146513 787.17468,563.68264 787.17468,565.574438 C787.17468,567.4686 785.56959,569 783.589813,569 C781.60509,569 780,567.4686 780,565.574438 C780,563.68264 781.60509,562.146513 783.589813,562.146513 Z M819.455795,562.146513 C821.435571,562.146513 823.040662,563.68264 823.040662,565.574438 C823.040662,567.4686 821.435571,569 819.455795,569 C817.472309,569 815.865982,567.4686 815.865982,565.574438 C815.865982,563.68264 817.472309,562.146513 819.455795,562.146513 Z M963.455795,562.146513 C965.435571,562.146513 967.040662,563.68264 967.040662,565.574438 C967.040662,567.4686 965.435571,569 963.455795,569 C961.472309,569 959.865982,567.4686 959.865982,565.574438 C959.865982,563.68264 961.472309,562.146513 963.455795,562.146513 Z M927.589813,562.146513 C929.56959,562.146513 931.17468,563.68264 931.17468,565.574438 C931.17468,567.4686 929.56959,569 927.589813,569 C925.60509,569 924,567.4686 924,565.574438 C924,563.68264 925.60509,562.146513 927.589813,562.146513 Z M1037.48956,562.141787 C1039.46934,562.141787 1041.07443,563.677913 1041.07443,565.569712 C1041.07443,567.463874 1039.46934,568.995274 1037.48956,568.995274 C1035.50484,568.995274 1033.89975,567.463874 1033.89975,565.569712 C1033.89975,563.677913 1035.50484,562.141787 1037.48956,562.141787 Z M1001.62358,562.141787 C1003.60336,562.141787 1005.20845,563.677913 1005.20845,565.569712 C1005.20845,567.463874 1003.60336,568.995274 1001.62358,568.995274 C999.638858,568.995274 998.032531,567.463874 998.032531,565.569712 C998.032531,563.677913 999.638858,562.141787 1001.62358,562.141787 Z M893.489562,562.141787 C895.469338,562.141787 897.074429,563.677913 897.074429,565.569712 C897.074429,567.463874 895.469338,568.995274 893.489562,568.995274 C891.504839,568.995274 889.899749,567.463874 889.899749,565.569712 C889.899749,563.677913 891.504839,562.141787 893.489562,562.141787 Z M857.62358,562.141787 C859.603357,562.141787 861.208447,563.677913 861.208447,565.569712 C861.208447,567.463874 859.603357,568.995274 857.62358,568.995274 C855.638858,568.995274 854.032531,567.463874 854.032531,565.569712 C854.032531,563.677913 855.638858,562.141787 857.62358,562.141787 Z M801.521568,545.013978 C803.501344,545.013978 805.111381,546.550104 805.111381,548.441903 C805.111381,550.336065 803.501344,551.867465 801.521568,551.867465 C799.541791,551.867465 797.936701,550.336065 797.936701,548.441903 C797.936701,546.550104 799.541791,545.013978 801.521568,545.013978 Z M945.521568,545.013978 C947.501344,545.013978 949.111381,546.550104 949.111381,548.441903 C949.111381,550.336065 947.501344,551.867465 945.521568,551.867465 C943.541791,551.867465 941.936701,550.336065 941.936701,548.441903 C941.936701,546.550104 943.541791,545.013978 945.521568,545.013978 Z M981.381366,545.013978 C983.361142,545.013978 984.966233,546.550104 984.966233,548.441903 C984.966233,550.336065 983.361142,551.867465 981.381366,551.867465 C979.40159,551.867465 977.796499,550.336065 977.796499,548.441903 C977.796499,546.550104 979.40159,545.013978 981.381366,545.013978 Z M837.381366,545.013978 C839.361142,545.013978 840.966233,546.550104 840.966233,548.441903 C840.966233,550.336065 839.361142,551.867465 837.381366,551.867465 C835.40159,551.867465 833.796499,550.336065 833.796499,548.441903 C833.796499,546.550104 835.40159,545.013978 837.381366,545.013978 Z M911.413896,545.009251 C913.393673,545.009251 914.998763,546.545378 914.998763,548.437176 C914.998763,550.331338 913.393673,551.862738 911.413896,551.862738 C909.43412,551.862738 907.82903,550.331338 907.82903,548.437176 C907.82903,546.545378 909.43412,545.009251 911.413896,545.009251 Z M1055.4139,545.009251 C1057.39367,545.009251 1058.99876,546.545378 1058.99876,548.437176 C1058.99876,550.331338 1057.39367,551.862738 1055.4139,551.862738 C1053.43412,551.862738 1051.82903,550.331338 1051.82903,548.437176 C1051.82903,546.545378 1053.43412,545.009251 1055.4139,545.009251 Z M1019.5541,545.009251 C1021.53387,545.009251 1023.14391,546.545378 1023.14391,548.437176 C1023.14391,550.331338 1021.53387,551.862738 1019.5541,551.862738 C1017.57432,551.862738 1015.96923,550.331338 1015.96923,548.437176 C1015.96923,546.545378 1017.57432,545.009251 1019.5541,545.009251 Z M875.554098,545.009251 C877.533874,545.009251 879.143911,546.545378 879.143911,548.437176 C879.143911,550.331338 877.533874,551.862738 875.554098,551.862738 C873.574321,551.862738 871.969231,550.331338 871.969231,548.437176 C871.969231,546.545378 873.574321,545.009251 875.554098,545.009251 Z M783.589813,527.880261 C785.56959,527.880261 787.17468,529.416387 787.17468,531.308186 C787.17468,533.202348 785.56959,534.736111 783.589813,534.736111 C781.60509,534.736111 780,533.202348 780,531.308186 C780,529.416387 781.60509,527.880261 783.589813,527.880261 Z M963.455795,527.880261 C965.435571,527.880261 967.040662,529.416387 967.040662,531.308186 C967.040662,533.202348 965.435571,534.736111 963.455795,534.736111 C961.472309,534.736111 959.865982,533.202348 959.865982,531.308186 C959.865982,529.416387 961.472309,527.880261 963.455795,527.880261 Z M927.589813,527.880261 C929.56959,527.880261 931.17468,529.416387 931.17468,531.308186 C931.17468,533.202348 929.56959,534.736111 927.589813,534.736111 C925.60509,534.736111 924,533.202348 924,531.308186 C924,529.416387 925.60509,527.880261 927.589813,527.880261 Z M819.455795,527.880261 C821.435571,527.880261 823.040662,529.416387 823.040662,531.308186 C823.040662,533.202348 821.435571,534.736111 819.455795,534.736111 C817.472309,534.736111 815.865982,533.202348 815.865982,531.308186 C815.865982,529.416387 817.472309,527.880261 819.455795,527.880261 Z M857.62358,527.875534 C859.603357,527.875534 861.208447,529.411661 861.208447,531.303459 C861.208447,533.197621 859.603357,534.731384 857.62358,534.731384 C855.638858,534.731384 854.032531,533.197621 854.032531,531.303459 C854.032531,529.411661 855.638858,527.875534 857.62358,527.875534 Z M1001.62358,527.875534 C1003.60336,527.875534 1005.20845,529.411661 1005.20845,531.30346 C1005.20845,533.197621 1003.60336,534.731384 1001.62358,534.731384 C999.638858,534.731384 998.032531,533.197621 998.032531,531.30346 C998.032531,529.411661 999.638858,527.875534 1001.62358,527.875534 Z M1037.48956,527.875534 C1039.46934,527.875534 1041.07443,529.411661 1041.07443,531.30346 C1041.07443,533.197621 1039.46934,534.731384 1037.48956,534.731384 C1035.50484,534.731384 1033.89975,533.197621 1033.89975,531.30346 C1033.89975,529.411661 1035.50484,527.875534 1037.48956,527.875534 Z M893.489562,527.875534 C895.469338,527.875534 897.074429,529.411661 897.074429,531.303459 C897.074429,533.197621 895.469338,534.731384 893.489562,534.731384 C891.504839,534.731384 889.899749,533.197621 889.899749,531.303459 C889.899749,529.411661 891.504839,527.875534 893.489562,527.875534 Z M801.521568,510.747726 C803.501344,510.747726 805.111381,512.281489 805.111381,514.173287 C805.111381,516.067449 803.501344,517.601212 801.521568,517.601212 C799.541791,517.601212 797.936701,516.067449 797.936701,514.173287 C797.936701,512.281489 799.541791,510.747726 801.521568,510.747726 Z M837.381366,510.747726 C839.361142,510.747726 840.966233,512.281489 840.966233,514.173287 C840.966233,516.067449 839.361142,517.601212 837.381366,517.601212 C835.40159,517.601212 833.796499,516.067449 833.796499,514.173287 C833.796499,512.281489 835.40159,510.747726 837.381366,510.747726 Z M981.381366,510.747726 C983.361142,510.747726 984.966233,512.281489 984.966233,514.173287 C984.966233,516.067449 983.361142,517.601212 981.381366,517.601212 C979.40159,517.601212 977.796499,516.067449 977.796499,514.173287 C977.796499,512.281489 979.40159,510.747726 981.381366,510.747726 Z M945.521568,510.747726 C947.501344,510.747726 949.111381,512.281489 949.111381,514.173287 C949.111381,516.067449 947.501344,517.601212 945.521568,517.601212 C943.541791,517.601212 941.936701,516.067449 941.936701,514.173287 C941.936701,512.281489 943.541791,510.747726 945.521568,510.747726 Z M911.413896,510.742999 C913.393673,510.742999 914.998763,512.276762 914.998763,514.168561 C914.998763,516.062723 913.393673,517.596486 911.413896,517.596486 C909.43412,517.596486 907.82903,516.062723 907.82903,514.168561 C907.82903,512.276762 909.43412,510.742999 911.413896,510.742999 Z M1055.4139,510.742999 C1057.39367,510.742999 1058.99876,512.276762 1058.99876,514.168561 C1058.99876,516.062723 1057.39367,517.596486 1055.4139,517.596486 C1053.43412,517.596486 1051.82903,516.062723 1051.82903,514.168561 C1051.82903,512.276762 1053.43412,510.742999 1055.4139,510.742999 Z M1019.5541,510.742999 C1021.53387,510.742999 1023.14391,512.276762 1023.14391,514.168561 C1023.14391,516.062723 1021.53387,517.596486 1019.5541,517.596486 C1017.57432,517.596486 1015.96923,516.062723 1015.96923,514.168561 C1015.96923,512.276762 1017.57432,510.742999 1019.5541,510.742999 Z M875.554098,510.742999 C877.533874,510.742999 879.143911,512.276762 879.143911,514.168561 C879.143911,516.062723 877.533874,517.596486 875.554098,517.596486 C873.574321,517.596486 871.969231,516.062723 871.969231,514.168561 C871.969231,512.276762 873.574321,510.742999 875.554098,510.742999 Z M1001.62358,497.398788 C1003.60336,497.398788 1005.20845,498.936096 1005.20845,500.826713 C1005.20845,502.720875 1003.60336,504.253456 1001.62358,504.253456 C999.638858,504.253456 998.033767,502.720875 998.033767,500.826713 C998.033767,498.936096 999.638858,497.398788 1001.62358,497.398788 Z M893.489562,497.398788 C895.469338,497.398788 897.074429,498.936096 897.074429,500.826713 C897.074429,502.720875 895.469338,504.253456 893.489562,504.253456 C891.504839,504.253456 889.899749,502.720875 889.899749,500.826713 C889.899749,498.936096 891.504839,497.398788 893.489562,497.398788 Z M857.62358,497.398788 C859.603357,497.398788 861.208447,498.936096 861.208447,500.826713 C861.208447,502.720875 859.603357,504.253456 857.62358,504.253456 C855.638858,504.253456 854.033767,502.720875 854.033767,500.826713 C854.033767,498.936096 855.638858,497.398788 857.62358,497.398788 Z M1037.48956,497.398788 C1039.46934,497.398788 1041.07443,498.936096 1041.07443,500.826713 C1041.07443,502.720875 1039.46934,504.253456 1037.48956,504.253456 C1035.50484,504.253456 1033.89975,502.720875 1033.89975,500.826713 C1033.89975,498.936096 1035.50484,497.398788 1037.48956,497.398788 Z M783.589813,497.398788 C785.56959,497.398788 787.17468,498.934914 787.17468,500.826713 C787.17468,502.720875 785.56959,504.252274 783.589813,504.252274 C781.60509,504.252274 780,502.720875 780,500.826713 C780,498.934914 781.60509,497.398788 783.589813,497.398788 Z M819.455795,497.398788 C821.435571,497.398788 823.040662,498.934914 823.040662,500.826713 C823.040662,502.720875 821.435571,504.252274 819.455795,504.252274 C817.472309,504.252274 815.865982,502.720875 815.865982,500.826713 C815.865982,498.934914 817.472309,497.398788 819.455795,497.398788 Z M963.455795,497.398788 C965.435571,497.398788 967.040662,498.934914 967.040662,500.826713 C967.040662,502.720875 965.435571,504.252274 963.455795,504.252274 C961.472309,504.252274 959.865982,502.720875 959.865982,500.826713 C959.865982,498.934914 961.472309,497.398788 963.455795,497.398788 Z M927.589813,497.398788 C929.56959,497.398788 931.17468,498.934914 931.17468,500.826713 C931.17468,502.720875 929.56959,504.252274 927.589813,504.252274 C925.60509,504.252274 924,502.720875 924,500.826713 C924,498.934914 925.60509,497.398788 927.589813,497.398788 Z M945.521568,480.266252 C947.501344,480.266252 949.111381,481.802379 949.111381,483.694177 C949.111381,485.588339 947.501344,487.119739 945.521568,487.119739 C943.541791,487.119739 941.936701,485.588339 941.936701,483.694177 C941.936701,481.802379 943.541791,480.266252 945.521568,480.266252 Z M981.381366,480.266252 C983.361142,480.266252 984.966233,481.802379 984.966233,483.694177 C984.966233,485.588339 983.361142,487.119739 981.381366,487.119739 C979.40159,487.119739 977.796499,485.588339 977.796499,483.694177 C977.796499,481.802379 979.40159,480.266252 981.381366,480.266252 Z M1055.41513,480.266252 C1057.39491,480.266252 1059,481.802379 1059,483.694177 C1059,485.588339 1057.39491,487.119739 1055.41513,487.119739 C1053.43536,487.119739 1051.83027,485.588339 1051.83027,483.694177 C1051.83027,481.802379 1053.43536,480.266252 1055.41513,480.266252 Z M1019.55533,480.266252 C1021.53511,480.266252 1023.14515,481.802379 1023.14515,483.694177 C1023.14515,485.588339 1021.53511,487.119739 1019.55533,487.119739 C1017.57556,487.119739 1015.97047,485.588339 1015.97047,483.694177 C1015.97047,481.802379 1017.57556,480.266252 1019.55533,480.266252 Z M875.555335,480.266252 C877.535111,480.266252 879.145148,481.802379 879.145148,483.694177 C879.145148,485.588339 877.535111,487.119739 875.555335,487.119739 C873.575558,487.119739 871.970468,485.588339 871.970468,483.694177 C871.970468,481.802379 873.575558,480.266252 875.555335,480.266252 Z M911.415133,480.266252 C913.394909,480.266252 915,481.802379 915,483.694177 C915,485.588339 913.394909,487.119739 911.415133,487.119739 C909.435357,487.119739 907.830266,485.588339 907.830266,483.694177 C907.830266,481.802379 909.435357,480.266252 911.415133,480.266252 Z M837.381366,480.266252 C839.361142,480.266252 840.966233,481.802379 840.966233,483.694177 C840.966233,485.588339 839.361142,487.119739 837.381366,487.119739 C835.40159,487.119739 833.796499,485.588339 833.796499,483.694177 C833.796499,481.802379 835.40159,480.266252 837.381366,480.266252 Z M801.521568,480.266252 C803.501344,480.266252 805.111381,481.802379 805.111381,483.694177 C805.111381,485.588339 803.501344,487.119739 801.521568,487.119739 C799.541791,487.119739 797.936701,485.588339 797.936701,483.694177 C797.936701,481.802379 799.541791,480.266252 801.521568,480.266252 Z M1001.62358,463.132535 C1003.60336,463.132535 1005.20845,464.669843 1005.20845,466.561642 C1005.20845,468.455804 1003.60336,469.989567 1001.62358,469.989567 C999.638858,469.989567 998.033767,468.455804 998.033767,466.561642 C998.033767,464.669843 999.638858,463.132535 1001.62358,463.132535 Z M857.62358,463.132535 C859.603357,463.132535 861.208447,464.669843 861.208447,466.561642 C861.208447,468.455804 859.603357,469.989567 857.62358,469.989567 C855.638858,469.989567 854.033767,468.455804 854.033767,466.561642 C854.033767,464.669843 855.638858,463.132535 857.62358,463.132535 Z M1037.48956,463.132535 C1039.46934,463.132535 1041.07443,464.669843 1041.07443,466.561642 C1041.07443,468.455804 1039.46934,469.989567 1037.48956,469.989567 C1035.50484,469.989567 1033.89975,468.455804 1033.89975,466.561642 C1033.89975,464.669843 1035.50484,463.132535 1037.48956,463.132535 Z M893.489562,463.132535 C895.469338,463.132535 897.074429,464.669843 897.074429,466.561642 C897.074429,468.455804 895.469338,469.989567 893.489562,469.989567 C891.504839,469.989567 889.899749,468.455804 889.899749,466.561642 C889.899749,464.669843 891.504839,463.132535 893.489562,463.132535 Z M819.455795,463.132535 C821.435571,463.132535 823.040662,464.668662 823.040662,466.561642 C823.040662,468.455804 821.435571,469.989567 819.455795,469.989567 C817.472309,469.989567 815.865982,468.455804 815.865982,466.561642 C815.865982,464.668662 817.472309,463.132535 819.455795,463.132535 Z M783.589813,463.132535 C785.56959,463.132535 787.17468,464.668662 787.17468,466.561642 C787.17468,468.455804 785.56959,469.989567 783.589813,469.989567 C781.60509,469.989567 780,468.455804 780,466.561642 C780,464.668662 781.60509,463.132535 783.589813,463.132535 Z M963.455795,463.132535 C965.435571,463.132535 967.040662,464.668662 967.040662,466.561642 C967.040662,468.455804 965.435571,469.989567 963.455795,469.989567 C961.472309,469.989567 959.865982,468.455804 959.865982,466.561642 C959.865982,464.668662 961.472309,463.132535 963.455795,463.132535 Z M927.589813,463.132535 C929.56959,463.132535 931.17468,464.668662 931.17468,466.561642 C931.17468,468.455804 929.56959,469.989567 927.589813,469.989567 C925.60509,469.989567 924,468.455804 924,466.561642 C924,464.668662 925.60509,463.132535 927.589813,463.132535 Z M981.381366,446 C983.361142,446 984.966233,447.533763 984.966233,449.425562 C984.966233,451.319724 983.361142,452.853487 981.381366,452.853487 C979.40159,452.853487 977.796499,451.319724 977.796499,449.425562 C977.796499,447.533763 979.40159,446 981.381366,446 Z M837.381366,446 C839.361142,446 840.966233,447.533763 840.966233,449.425562 C840.966233,451.319724 839.361142,452.853487 837.381366,452.853487 C835.40159,452.853487 833.796499,451.319724 833.796499,449.425562 C833.796499,447.533763 835.40159,446 837.381366,446 Z M801.521568,446 C803.501344,446 805.111381,447.533763 805.111381,449.425562 C805.111381,451.319724 803.501344,452.853487 801.521568,452.853487 C799.541791,452.853487 797.936701,451.319724 797.936701,449.425562 C797.936701,447.533763 799.541791,446 801.521568,446 Z M875.555335,446 C877.535111,446 879.145148,447.533763 879.145148,449.425562 C879.145148,451.319724 877.535111,452.853487 875.555335,452.853487 C873.575558,452.853487 871.970468,451.319724 871.970468,449.425562 C871.970468,447.533763 873.575558,446 875.555335,446 Z M911.415133,446 C913.394909,446 915,447.533763 915,449.425562 C915,451.319724 913.394909,452.853487 911.415133,452.853487 C909.435357,452.853487 907.830266,451.319724 907.830266,449.425562 C907.830266,447.533763 909.435357,446 911.415133,446 Z M945.521568,446 C947.501344,446 949.111381,447.533763 949.111381,449.425562 C949.111381,451.319724 947.501344,452.853487 945.521568,452.853487 C943.541791,452.853487 941.936701,451.319724 941.936701,449.425562 C941.936701,447.533763 943.541791,446 945.521568,446 Z M1055.41513,446 C1057.39491,446 1059,447.533763 1059,449.425562 C1059,451.319724 1057.39491,452.853487 1055.41513,452.853487 C1053.43536,452.853487 1051.83027,451.319724 1051.83027,449.425562 C1051.83027,447.533763 1053.43536,446 1055.41513,446 Z M1019.55533,446 C1021.53511,446 1023.14515,447.533763 1023.14515,449.425562 C1023.14515,451.319724 1021.53511,452.853487 1019.55533,452.853487 C1017.57556,452.853487 1015.97047,451.319724 1015.97047,449.425562 C1015.97047,447.533763 1017.57556,446 1019.55533,446 Z" id="Combined-Shape-Copy-2" fill="#7CAEDB" fill-rule="nonzero" opacity="0.6" transform="translate(919.500000, 574.000000) rotate(-90.000000) translate(-919.500000, -574.000000) "></path>
                                    <path d="M1144,769 L504,769 L466.092673,641 C466.092673,641 530.666667,573.128214 557.333333,547.264063 C571.35104,533.667486 590.583253,526 610.666667,526 C630.75008,526 649.982293,533.667486 664,547.264063 C678.017707,560.86064 697.24992,568.527723 717.333333,568.527723 C737.416533,568.527723 756.648533,560.86064 770.666667,547.264063 C784.6848,533.667486 803.9168,526 824,526 C844.0832,526 863.3152,533.667486 877.333333,547.264063 C891.351467,560.86064 910.583467,568.527723 930.666667,568.527723 C950.749867,568.527723 969.981867,560.86064 984,547.264063 C998.018133,533.667486 1017.25013,526 1037.33333,526 C1057.41653,526 1076.64853,533.667486 1090.66667,547.264063 C1117.33333,573.128214 1144,598.992365 1144,598.992365 L1144,769 Z" id="Fill-1" fill="#EBF2FB" mask="url(#mask-2)"></path>
                                </g>
                            </g>
                            <g id="Group-2" transform="translate(773.000000, 83.000000)">
                                <path d="M492.998919,322.239526 C492.998919,320.595524 491.595951,319.26266 489.86548,319.26266 C488.135009,319.26266 486.732041,320.595524 486.732041,322.239526 C486.732041,323.885582 488.135009,325.218446 489.86548,325.218446 C491.595951,325.218446 492.998919,323.885582 492.998919,322.239526 Z M489.86548,349.04056 C491.595951,349.04056 492.998919,350.375477 492.998919,352.019479 C492.998919,353.665535 491.595951,354.996345 489.86548,354.996345 C488.135009,354.996345 486.732041,353.665535 486.732041,352.019479 C486.732041,350.375477 488.135009,349.04056 489.86548,349.04056 Z M461.659122,322.239526 C461.659122,320.595524 460.251831,319.26266 458.52136,319.26266 C456.790888,319.26266 455.38792,320.595524 455.38792,322.239526 C455.38792,323.885582 456.790888,325.218446 458.52136,325.218446 C460.251831,325.218446 461.659122,323.885582 461.659122,322.239526 Z M458.52136,349.04056 C460.251831,349.04056 461.659122,350.375477 461.659122,352.019479 C461.659122,353.665535 460.251831,354.996345 458.52136,354.996345 C456.790888,354.996345 455.38792,353.665535 455.38792,352.019479 C455.38792,350.375477 456.790888,349.04056 458.52136,349.04056 Z M477.331723,366.907916 C477.331723,365.263914 475.928755,363.928996 474.198284,363.928996 C472.463489,363.928996 471.060521,365.263914 471.060521,366.907916 C471.060521,368.553972 472.463489,369.884781 474.198284,369.884781 C475.928755,369.884781 477.331723,368.553972 477.331723,366.907916 Z M474.198284,334.151097 C475.928755,334.151097 477.331723,335.486014 477.331723,337.130016 C477.331723,338.776072 475.928755,340.108936 474.198284,340.108936 C472.463489,340.108936 471.060521,338.776072 471.060521,337.130016 C471.060521,335.486014 472.463489,334.151097 474.198284,334.151097 Z M445.982198,366.907916 C445.982198,365.263914 444.57923,363.928996 442.848759,363.928996 C441.113964,363.928996 439.709916,365.263914 439.709916,366.907916 C439.709916,368.553972 441.113964,369.884781 442.848759,369.884781 C444.57923,369.884781 445.982198,368.553972 445.982198,366.907916 Z M442.848759,334.151097 C444.57923,334.151097 445.982198,335.486014 445.982198,337.130016 C445.982198,338.776072 444.57923,340.108936 442.848759,340.108936 C441.113964,340.108936 439.709916,338.776072 439.709916,337.130016 C439.709916,335.486014 441.113964,334.151097 442.848759,334.151097 Z M493,265.976866 C493,264.332864 491.597032,263 489.866561,263 C488.13609,263 486.733122,264.332864 486.733122,265.976866 C486.733122,267.622922 488.13609,268.955785 489.866561,268.955785 C491.597032,268.955785 493,267.622922 493,265.976866 Z M489.866561,292.777899 C491.597032,292.777899 493,294.112817 493,295.756819 C493,297.402875 491.597032,298.733685 489.866561,298.733685 C488.13609,298.733685 486.733122,297.402875 486.733122,295.756819 C486.733122,294.112817 488.13609,292.777899 489.866561,292.777899 Z M461.660203,265.976866 C461.660203,264.332864 460.252912,263 458.522441,263 C456.791969,263 455.389001,264.332864 455.389001,265.976866 C455.389001,267.622922 456.791969,268.955785 458.522441,268.955785 C460.252912,268.955785 461.660203,267.622922 461.660203,265.976866 Z M458.522441,292.777899 C460.252912,292.777899 461.660203,294.112817 461.660203,295.756819 C461.660203,297.402875 460.252912,298.733685 458.522441,298.733685 C456.791969,298.733685 455.389001,297.402875 455.389001,295.756819 C455.389001,294.112817 456.791969,292.777899 458.522441,292.777899 Z M477.331723,310.645255 C477.331723,309.00228 475.928755,307.666336 474.198284,307.666336 C472.463489,307.666336 471.060521,309.00228 471.060521,310.645255 C471.060521,312.291311 472.463489,313.623148 474.198284,313.623148 C475.928755,313.623148 477.331723,312.291311 477.331723,310.645255 Z M474.198284,277.888436 C475.928755,277.888436 477.331723,279.224381 477.331723,280.868383 C477.331723,282.514439 475.928755,283.847302 474.198284,283.847302 C472.463489,283.847302 471.060521,282.514439 471.060521,280.868383 C471.060521,279.224381 472.463489,277.888436 474.198284,277.888436 Z M445.982198,310.645255 C445.982198,309.00228 444.57923,307.666336 442.848759,307.666336 C441.113964,307.666336 439.710996,309.00228 439.710996,310.645255 C439.710996,312.291311 441.113964,313.623148 442.848759,313.623148 C444.57923,313.623148 445.982198,312.291311 445.982198,310.645255 Z M442.848759,277.888436 C444.57923,277.888436 445.982198,279.224381 445.982198,280.868383 C445.982198,282.514439 444.57923,283.847302 442.848759,283.847302 C441.113964,283.847302 439.710996,282.514439 439.710996,280.868383 C439.710996,279.224381 441.113964,277.888436 442.848759,277.888436 Z M428.289004,322.243634 C428.289004,320.599632 426.886036,319.266768 425.155564,319.266768 C423.425093,319.266768 422.022125,320.599632 422.022125,322.243634 C422.022125,323.889689 423.425093,325.222553 425.155564,325.222553 C426.886036,325.222553 428.289004,323.889689 428.289004,322.243634 Z M425.155564,349.044667 C426.886036,349.044667 428.289004,350.379585 428.289004,352.023587 C428.289004,353.669643 426.886036,355.000453 425.155564,355.000453 C423.425093,355.000453 422.022125,353.669643 422.022125,352.023587 C422.022125,350.379585 423.425093,349.044667 425.155564,349.044667 Z M396.949207,322.243634 C396.949207,320.599632 395.541915,319.266768 393.811444,319.266768 C392.080973,319.266768 390.678005,320.599632 390.678005,322.243634 C390.678005,323.889689 392.080973,325.222553 393.811444,325.222553 C395.541915,325.222553 396.949207,323.889689 396.949207,322.243634 Z M393.811444,349.044667 C395.541915,349.044667 396.949207,350.379585 396.949207,352.023587 C396.949207,353.669643 395.541915,355.000453 393.811444,355.000453 C392.080973,355.000453 390.678005,353.669643 390.678005,352.023587 C390.678005,350.379585 392.080973,349.044667 393.811444,349.044667 Z M412.620727,366.912023 C412.620727,365.268021 411.217759,363.933104 409.487287,363.933104 C407.753573,363.933104 406.349525,365.268021 406.349525,366.912023 C406.349525,368.558079 407.753573,369.888889 409.487287,369.888889 C411.217759,369.888889 412.620727,368.558079 412.620727,366.912023 Z M409.487287,334.155204 C411.217759,334.155204 412.620727,335.490121 412.620727,337.134124 C412.620727,338.780179 411.217759,340.113043 409.487287,340.113043 C407.753573,340.113043 406.349525,338.780179 406.349525,337.134124 C406.349525,335.490121 407.753573,334.155204 409.487287,334.155204 Z M381.271202,366.912023 C381.271202,365.268021 379.868234,363.933104 378.137763,363.933104 C376.402968,363.933104 375,365.268021 375,366.912023 C375,368.558079 376.402968,369.888889 378.137763,369.888889 C379.868234,369.888889 381.271202,368.558079 381.271202,366.912023 Z M378.137763,334.155204 C379.868234,334.155204 381.271202,335.490121 381.271202,337.134124 C381.271202,338.780179 379.868234,340.113043 378.137763,340.113043 C376.402968,340.113043 375,338.780179 375,337.134124 C375,335.490121 376.402968,334.155204 378.137763,334.155204 Z M428.289004,265.976866 C428.289004,264.332864 426.886036,263 425.155564,263 C423.425093,263 422.022125,264.332864 422.022125,265.976866 C422.022125,267.622922 423.425093,268.955785 425.155564,268.955785 C426.886036,268.955785 428.289004,267.622922 428.289004,265.976866 Z M425.155564,292.777899 C426.886036,292.777899 428.289004,294.112817 428.289004,295.756819 C428.289004,297.402875 426.886036,298.733685 425.155564,298.733685 C423.425093,298.733685 422.022125,297.402875 422.022125,295.756819 C422.022125,294.112817 423.425093,292.777899 425.155564,292.777899 Z M396.949207,265.976866 C396.949207,264.332864 395.541915,263 393.811444,263 C392.080973,263 390.678005,264.332864 390.678005,265.976866 C390.678005,267.622922 392.080973,268.955785 393.811444,268.955785 C395.541915,268.955785 396.949207,267.622922 396.949207,265.976866 Z M393.811444,292.777899 C395.541915,292.777899 396.949207,294.112817 396.949207,295.756819 C396.949207,297.402875 395.541915,298.733685 393.811444,298.733685 C392.080973,298.733685 390.678005,297.402875 390.678005,295.756819 C390.678005,294.112817 392.080973,292.777899 393.811444,292.777899 Z M412.620727,310.645255 C412.620727,309.001253 411.217759,307.666336 409.487287,307.666336 C407.753573,307.666336 406.349525,309.001253 406.349525,310.645255 C406.349525,312.291311 407.753573,313.622121 409.487287,313.622121 C411.217759,313.622121 412.620727,312.291311 412.620727,310.645255 Z M409.487287,277.888436 C411.217759,277.888436 412.620727,279.223354 412.620727,280.868383 C412.620727,282.514439 411.217759,283.847302 409.487287,283.847302 C407.753573,283.847302 406.349525,282.514439 406.349525,280.868383 C406.349525,279.223354 407.753573,277.888436 409.487287,277.888436 Z M381.271202,310.645255 C381.271202,309.001253 379.868234,307.666336 378.137763,307.666336 C376.402968,307.666336 375,309.001253 375,310.645255 C375,312.291311 376.402968,313.622121 378.137763,313.622121 C379.868234,313.622121 381.271202,312.291311 381.271202,310.645255 Z M378.137763,277.888436 C379.868234,277.888436 381.271202,279.223354 381.271202,280.868383 C381.271202,282.514439 379.868234,283.847302 378.137763,283.847302 C376.402968,283.847302 375,282.514439 375,280.868383 C375,279.223354 376.402968,277.888436 378.137763,277.888436 Z" id="Combined-Shape" fill="#EBF2FB" fill-rule="nonzero" opacity="0.6" transform="translate(434.000000, 316.444444) rotate(-270.000000) translate(-434.000000, -316.444444) "></path>
                                <polygon id="Fill-5" fill="#EBF2FB" transform="translate(265.500000, 196.000000) scale(1, -1) translate(-265.500000, -196.000000) " points="265.499948 160 301 232 230 232"></polygon>
                                <polygon id="Fill-6" fill="#EBF2FB" transform="translate(318.500000, 196.000000) scale(1, -1) translate(-318.500000, -196.000000) " points="318.500262 160 354 232 283 232"></polygon>
                                <polygon id="Fill-7" fill="#EBF2FB" transform="translate(372.500000, 196.000000) scale(1, -1) translate(-372.500000, -196.000000) " points="372.499738 160 408 232 337 232"></polygon>
                                <rect id="Rectangle" fill="#EBF2FB" transform="translate(362.500000, 129.000000) scale(-1, 1) rotate(-180.000000) translate(-362.500000, -129.000000) " x="238" y="115" width="249" height="28"></rect>
                                <rect id="Rectangle-Copy" fill="#EBF2FB" transform="translate(380.500000, 88.500000) scale(-1, 1) rotate(-180.000000) translate(-380.500000, -88.500000) " x="256" y="74" width="249" height="29"></rect>
                                <rect id="Rectangle-Copy-2" fill="#EBF2FB" transform="translate(399.500000, 48.000000) scale(-1, 1) rotate(-180.000000) translate(-399.500000, -48.000000) " x="275" y="34" width="249" height="28"></rect>
                                <g id="user-profile-user" transform="translate(194.000000, 272.000000)">
                                    <rect id="Rectangle" x="0" y="0" width="88" height="88"></rect>
                                </g>
                                <circle id="Oval-Copy" fill="#7CAEDB" cx="120.5" cy="71.5" r="71.5"></circle>
                                <polygon id="Fill-11" fill="#6DA0CC" transform="translate(96.000000, 303.500000) scale(-1, -1) translate(-96.000000, -303.500000) " points="192 247.000019 0 247.000019 0 360 189.883914 360"></polygon>
                            </g>
                        </g>
                    </g>
                </g>
            </svg>