<svg xmlns="http://www.w3.org/2000/svg" xmlns:xlink="http://www.w3.org/1999/xlink" version="1.1" id="Layer_1" x="0px" y="0px" width="423px" height="96px" viewBox="0 0 100 22.628" enable-background="new 0 0 100 22.628" xml:space="preserve">
	<pattern x="-99.557" y="-139.273" width="137.379" height="137.379" patternUnits="userSpaceOnUse" id="New_Pattern_Swatch_6" viewBox="0 -137.379 137.379 137.379" overflow="visible">
		<g>
			<polygon fill="none" points="0,0 137.379,0 137.379,-137.379 0,-137.379   "/>
			<polygon fill="#106BAF" points="137.379,0 0,0 0,-137.379 137.379,-137.379   "/>
		</g>
	</pattern>
	<g>
		<g>
			<pattern id="SVGID_1_" xlink:href="#New_Pattern_Swatch_6" patternTransform="matrix(1 0 0 1 142.0898 196.5859)">
			</pattern>
			<path fill="url(#SVGID_1_)" d="M2.091,20.818h-1.35l-0.303,0.843H0l1.23-3.221h0.372l1.232,3.221H2.398L2.091,20.818z      M0.87,20.471h1.095l-0.549-1.507L0.87,20.471z"/>
			<pattern id="SVGID_2_" xlink:href="#New_Pattern_Swatch_6" patternTransform="matrix(1 0 0 1 142.0898 196.5859)">
			</pattern>
			<path fill="url(#SVGID_2_)" d="M5.062,18.688v0.58h0.447v0.316H5.062v1.487c0,0.096,0.02,0.168,0.06,0.216     c0.04,0.048,0.108,0.072,0.204,0.072c0.047,0,0.112-0.009,0.195-0.027v0.33c-0.108,0.029-0.212,0.044-0.314,0.044     c-0.183,0-0.321-0.056-0.414-0.166c-0.093-0.111-0.139-0.268-0.139-0.471v-1.485H4.217v-0.316h0.436v-0.58H5.062z"/>
			<pattern id="SVGID_3_" xlink:href="#New_Pattern_Swatch_6" patternTransform="matrix(1 0 0 1 142.0898 196.5859)">
			</pattern>
			<path fill="url(#SVGID_3_)" d="M7.556,21.661c-0.024-0.047-0.043-0.131-0.057-0.252c-0.19,0.197-0.418,0.296-0.682,0.296     c-0.236,0-0.43-0.067-0.581-0.2c-0.151-0.133-0.227-0.303-0.227-0.508c0-0.249,0.095-0.443,0.284-0.581     c0.19-0.138,0.456-0.207,0.8-0.207h0.398v-0.188c0-0.143-0.043-0.257-0.128-0.342c-0.086-0.085-0.212-0.127-0.378-0.127     c-0.146,0-0.268,0.037-0.367,0.111c-0.099,0.074-0.148,0.163-0.148,0.268H6.058c0-0.119,0.042-0.235,0.127-0.346     c0.085-0.111,0.2-0.199,0.345-0.265c0.145-0.065,0.305-0.097,0.479-0.097c0.276,0,0.492,0.069,0.648,0.207     c0.156,0.138,0.237,0.328,0.243,0.57v1.102c0,0.22,0.028,0.395,0.084,0.524v0.035H7.556z M6.876,21.349     c0.128,0,0.25-0.033,0.365-0.099c0.115-0.067,0.198-0.153,0.25-0.259V20.5H7.171c-0.502,0-0.752,0.147-0.752,0.44     c0,0.128,0.043,0.229,0.128,0.301C6.632,21.313,6.742,21.349,6.876,21.349z"/>
			<pattern id="SVGID_4_" xlink:href="#New_Pattern_Swatch_6" patternTransform="matrix(1 0 0 1 142.0898 196.5859)">
			</pattern>
			<path fill="url(#SVGID_4_)" d="M9.301,20.553L9.045,20.82v0.841H8.635v-3.399h0.409v2.056l0.219-0.263l0.746-0.788h0.498l-0.932,1     l1.04,1.394h-0.48L9.301,20.553z"/>
			<pattern id="SVGID_5_" xlink:href="#New_Pattern_Swatch_6" patternTransform="matrix(1 0 0 1 142.0898 196.5859)">
			</pattern>
			<path fill="url(#SVGID_5_)" d="M12.498,21.661c-0.024-0.047-0.043-0.131-0.057-0.252c-0.19,0.197-0.418,0.296-0.682,0.296     c-0.236,0-0.43-0.067-0.581-0.2c-0.151-0.133-0.227-0.303-0.227-0.508c0-0.249,0.095-0.443,0.284-0.581     c0.19-0.138,0.456-0.207,0.8-0.207h0.398v-0.188c0-0.143-0.043-0.257-0.128-0.342c-0.086-0.085-0.212-0.127-0.378-0.127     c-0.146,0-0.268,0.037-0.367,0.111c-0.099,0.074-0.148,0.163-0.148,0.268h-0.411c0-0.119,0.042-0.235,0.127-0.346     c0.085-0.111,0.2-0.199,0.345-0.265c0.145-0.065,0.305-0.097,0.479-0.097c0.276,0,0.492,0.069,0.648,0.207     c0.156,0.138,0.237,0.328,0.243,0.57v1.102c0,0.22,0.028,0.395,0.084,0.524v0.035H12.498z M11.819,21.349     c0.128,0,0.25-0.033,0.365-0.099c0.115-0.067,0.198-0.153,0.25-0.259V20.5h-0.321c-0.502,0-0.752,0.147-0.752,0.44     c0,0.128,0.043,0.229,0.128,0.301C11.575,21.313,11.685,21.349,11.819,21.349z"/>
			<pattern id="SVGID_6_" xlink:href="#New_Pattern_Swatch_6" patternTransform="matrix(1 0 0 1 142.0898 196.5859)">
			</pattern>
			<path fill="url(#SVGID_6_)" d="M14.733,19.634c-0.062-0.01-0.129-0.015-0.201-0.015c-0.269,0-0.451,0.114-0.547,0.343v1.699     h-0.409v-2.394h0.398l0.007,0.277c0.134-0.214,0.324-0.321,0.571-0.321c0.08,0,0.14,0.01,0.181,0.031V19.634z"/>
			<pattern id="SVGID_7_" xlink:href="#New_Pattern_Swatch_6" patternTransform="matrix(1 0 0 1 142.0898 196.5859)">
			</pattern>
			<path fill="url(#SVGID_7_)" d="M16.151,21.706c-0.325,0-0.589-0.107-0.792-0.32c-0.204-0.213-0.305-0.498-0.305-0.855v-0.075     c0-0.237,0.045-0.449,0.136-0.636c0.091-0.187,0.217-0.333,0.381-0.438c0.163-0.105,0.339-0.158,0.53-0.158     c0.311,0,0.553,0.103,0.726,0.308c0.173,0.205,0.259,0.499,0.259,0.881v0.17h-1.622c0.006,0.236,0.075,0.427,0.207,0.572     c0.132,0.145,0.3,0.218,0.503,0.218c0.145,0,0.267-0.03,0.367-0.088c0.1-0.059,0.188-0.137,0.263-0.235l0.25,0.195     C16.853,21.551,16.552,21.706,16.151,21.706z M16.1,19.559c-0.165,0-0.304,0.06-0.416,0.18c-0.112,0.12-0.181,0.289-0.208,0.506     h1.199v-0.031c-0.012-0.208-0.068-0.369-0.168-0.483C16.407,19.616,16.271,19.559,16.1,19.559z M16.299,18.267h0.496l-0.593,0.65     l-0.33-0.001L16.299,18.267z"/>
			<pattern id="SVGID_8_" xlink:href="#New_Pattern_Swatch_6" patternTransform="matrix(1 0 0 1 142.0898 196.5859)">
			</pattern>
			<path fill="url(#SVGID_8_)" d="M18.317,20.553l-0.257,0.268v0.841h-0.409v-3.399h0.409v2.056l0.219-0.263l0.746-0.788h0.498     l-0.931,1l1.04,1.394h-0.48L18.317,20.553z"/>
			<pattern id="SVGID_9_" xlink:href="#New_Pattern_Swatch_6" patternTransform="matrix(1 0 0 1 142.0898 196.5859)">
			</pattern>
			<path fill="url(#SVGID_9_)" d="M21.43,21.026c0-0.111-0.042-0.197-0.125-0.258c-0.083-0.061-0.229-0.114-0.436-0.158     c-0.207-0.044-0.372-0.097-0.494-0.159c-0.122-0.062-0.212-0.136-0.27-0.221c-0.058-0.086-0.087-0.187-0.087-0.305     c0-0.196,0.083-0.362,0.249-0.498c0.166-0.136,0.378-0.204,0.636-0.204c0.271,0,0.492,0.07,0.66,0.21     c0.169,0.14,0.253,0.319,0.253,0.538h-0.412c0-0.112-0.048-0.209-0.143-0.29c-0.095-0.081-0.215-0.122-0.359-0.122     c-0.149,0-0.265,0.032-0.35,0.097c-0.084,0.065-0.126,0.15-0.126,0.254c0,0.099,0.039,0.173,0.117,0.223     c0.078,0.05,0.219,0.098,0.424,0.144c0.204,0.046,0.37,0.1,0.497,0.164c0.127,0.063,0.221,0.14,0.282,0.229     c0.061,0.089,0.092,0.198,0.092,0.327c0,0.214-0.086,0.385-0.257,0.514c-0.171,0.129-0.393,0.194-0.666,0.194     c-0.192,0-0.361-0.034-0.509-0.102c-0.148-0.068-0.263-0.163-0.346-0.284c-0.083-0.122-0.125-0.253-0.125-0.395h0.409     c0.007,0.137,0.062,0.246,0.165,0.326c0.103,0.08,0.238,0.121,0.406,0.121c0.155,0,0.279-0.031,0.373-0.094     C21.384,21.215,21.43,21.131,21.43,21.026z"/>
			<pattern id="SVGID_10_" xlink:href="#New_Pattern_Swatch_6" patternTransform="matrix(1 0 0 1 142.0898 196.5859)">
			</pattern>
			<path fill="url(#SVGID_10_)" d="M22.848,21.327h1.401v0.334h-1.901V21.36l1.321-1.755h-1.301v-0.339h1.814v0.29L22.848,21.327z"/>
			<pattern id="SVGID_11_" xlink:href="#New_Pattern_Swatch_6" patternTransform="matrix(1 0 0 1 142.0898 196.5859)">
			</pattern>
			<path fill="url(#SVGID_11_)" d="M24.656,20.442c0-0.234,0.046-0.445,0.138-0.633c0.092-0.187,0.221-0.332,0.385-0.433     c0.164-0.102,0.352-0.153,0.563-0.153c0.326,0,0.59,0.113,0.791,0.339c0.201,0.226,0.302,0.526,0.302,0.901v0.029     c0,0.233-0.045,0.442-0.134,0.627c-0.089,0.185-0.217,0.329-0.383,0.432c-0.166,0.103-0.357,0.155-0.572,0.155     c-0.325,0-0.587-0.113-0.789-0.339c-0.201-0.226-0.302-0.525-0.302-0.896V20.442z M25.017,18.627c0-0.067,0.02-0.123,0.061-0.168     c0.04-0.045,0.101-0.068,0.18-0.068c0.08,0,0.14,0.023,0.182,0.068c0.041,0.045,0.062,0.101,0.062,0.168     c0,0.067-0.021,0.122-0.062,0.167c-0.041,0.044-0.102,0.067-0.182,0.067c-0.08,0-0.14-0.022-0.18-0.067     C25.037,18.749,25.017,18.693,25.017,18.627z M25.067,20.491c0,0.265,0.062,0.479,0.185,0.639     c0.123,0.161,0.288,0.241,0.495,0.241c0.208,0,0.373-0.081,0.495-0.245c0.122-0.163,0.184-0.391,0.184-0.685     c0-0.262-0.062-0.475-0.187-0.638c-0.125-0.163-0.29-0.244-0.497-0.244c-0.202,0-0.365,0.08-0.489,0.241     C25.129,19.961,25.067,20.191,25.067,20.491z M25.968,18.631c0-0.067,0.02-0.123,0.061-0.169c0.04-0.046,0.101-0.069,0.18-0.069     c0.08,0,0.14,0.023,0.181,0.069c0.041,0.046,0.062,0.102,0.062,0.169c0,0.067-0.021,0.122-0.062,0.167     c-0.041,0.044-0.102,0.067-0.181,0.067c-0.08,0-0.14-0.022-0.18-0.067C25.988,18.753,25.968,18.698,25.968,18.631z"/>
			<pattern id="SVGID_12_" xlink:href="#New_Pattern_Swatch_6" patternTransform="matrix(1 0 0 1 142.0898 196.5859)">
			</pattern>
			<path fill="url(#SVGID_12_)" d="M28.196,21.106l0.593-1.839h0.418l-0.858,2.394h-0.312l-0.867-2.394h0.418L28.196,21.106z"/>
			<pattern id="SVGID_13_" xlink:href="#New_Pattern_Swatch_6" patternTransform="matrix(1 0 0 1 142.0898 196.5859)">
			</pattern>
			<path fill="url(#SVGID_13_)" d="M30.657,21.706c-0.325,0-0.589-0.107-0.792-0.32c-0.204-0.213-0.305-0.498-0.305-0.855v-0.075     c0-0.237,0.045-0.449,0.136-0.636c0.091-0.187,0.218-0.333,0.381-0.438c0.163-0.105,0.34-0.158,0.53-0.158     c0.311,0,0.553,0.103,0.726,0.308c0.173,0.205,0.259,0.499,0.259,0.881v0.17h-1.622c0.006,0.236,0.075,0.427,0.207,0.572     c0.132,0.145,0.3,0.218,0.503,0.218c0.145,0,0.267-0.03,0.367-0.088c0.1-0.059,0.188-0.137,0.263-0.235l0.25,0.195     C31.359,21.551,31.058,21.706,30.657,21.706z M30.606,19.559c-0.165,0-0.304,0.06-0.416,0.18c-0.112,0.12-0.181,0.289-0.208,0.506     h1.199v-0.031c-0.012-0.208-0.068-0.369-0.168-0.483C30.912,19.616,30.777,19.559,30.606,19.559z"/>
			<pattern id="SVGID_14_" xlink:href="#New_Pattern_Swatch_6" patternTransform="matrix(1 0 0 1 142.0898 196.5859)">
			</pattern>
			<path fill="url(#SVGID_14_)" d="M32.71,18.688v0.58h0.447v0.316H32.71v1.487c0,0.096,0.02,0.168,0.06,0.216     c0.04,0.048,0.108,0.072,0.203,0.072c0.047,0,0.112-0.009,0.195-0.027v0.33c-0.108,0.029-0.212,0.044-0.314,0.044     c-0.183,0-0.321-0.056-0.414-0.166c-0.093-0.111-0.139-0.268-0.139-0.471v-1.485h-0.436v-0.316H32.3v-0.58H32.71z"/>
			<pattern id="SVGID_15_" xlink:href="#New_Pattern_Swatch_6" patternTransform="matrix(1 0 0 1 142.0898 196.5859)">
			</pattern>
			<path fill="url(#SVGID_15_)" d="M34.393,20.553l-0.257,0.268v0.841h-0.409v-3.399h0.409v2.056l0.219-0.263l0.746-0.788h0.498     l-0.931,1l1.04,1.394h-0.48L34.393,20.553z"/>
			<pattern id="SVGID_16_" xlink:href="#New_Pattern_Swatch_6" patternTransform="matrix(1 0 0 1 142.0898 196.5859)">
			</pattern>
			<path fill="url(#SVGID_16_)" d="M37.062,21.706c-0.325,0-0.588-0.107-0.792-0.32c-0.204-0.213-0.305-0.498-0.305-0.855v-0.075     c0-0.237,0.045-0.449,0.136-0.636c0.091-0.187,0.217-0.333,0.38-0.438c0.163-0.105,0.34-0.158,0.53-0.158     c0.311,0,0.553,0.103,0.726,0.308c0.173,0.205,0.259,0.499,0.259,0.881v0.17h-1.622c0.006,0.236,0.075,0.427,0.207,0.572     c0.132,0.145,0.3,0.218,0.503,0.218c0.145,0,0.267-0.03,0.367-0.088c0.1-0.059,0.188-0.137,0.263-0.235l0.25,0.195     C37.764,21.551,37.463,21.706,37.062,21.706z M37.011,19.559c-0.165,0-0.304,0.06-0.416,0.18c-0.112,0.12-0.181,0.289-0.208,0.506     h1.199v-0.031c-0.012-0.208-0.068-0.369-0.168-0.483C37.317,19.616,37.182,19.559,37.011,19.559z"/>
			<pattern id="SVGID_17_" xlink:href="#New_Pattern_Swatch_6" patternTransform="matrix(1 0 0 1 142.0898 196.5859)">
			</pattern>
			<path fill="url(#SVGID_17_)" d="M38.944,21.327h1.401v0.334h-1.901V21.36l1.321-1.755h-1.301v-0.339h1.814v0.29L38.944,21.327z"/>
			<pattern id="SVGID_18_" xlink:href="#New_Pattern_Swatch_6" patternTransform="matrix(1 0 0 1 142.0898 196.5859)">
			</pattern>
			<path fill="url(#SVGID_18_)" d="M41.854,21.706c-0.325,0-0.588-0.107-0.792-0.32c-0.204-0.213-0.305-0.498-0.305-0.855v-0.075     c0-0.237,0.045-0.449,0.136-0.636c0.091-0.187,0.218-0.333,0.381-0.438c0.163-0.105,0.339-0.158,0.53-0.158     c0.311,0,0.553,0.103,0.726,0.308c0.173,0.205,0.259,0.499,0.259,0.881v0.17h-1.622c0.006,0.236,0.075,0.427,0.207,0.572     c0.132,0.145,0.3,0.218,0.503,0.218c0.145,0,0.267-0.03,0.367-0.088c0.1-0.059,0.188-0.137,0.263-0.235l0.25,0.195     C42.556,21.551,42.255,21.706,41.854,21.706z M41.803,19.559c-0.165,0-0.304,0.06-0.416,0.18c-0.112,0.12-0.181,0.289-0.208,0.506     h1.199v-0.031c-0.012-0.208-0.068-0.369-0.168-0.483C42.11,19.616,41.974,19.559,41.803,19.559z"/>
			<pattern id="SVGID_19_" xlink:href="#New_Pattern_Swatch_6" patternTransform="matrix(1 0 0 1 142.0898 196.5859)">
			</pattern>
			<path fill="url(#SVGID_19_)" d="M43.907,18.688v0.58h0.447v0.316h-0.447v1.487c0,0.096,0.02,0.168,0.06,0.216     c0.04,0.048,0.108,0.072,0.204,0.072c0.047,0,0.112-0.009,0.195-0.027v0.33c-0.108,0.029-0.212,0.044-0.314,0.044     c-0.183,0-0.321-0.056-0.414-0.166c-0.093-0.111-0.139-0.268-0.139-0.471v-1.485h-0.436v-0.316h0.436v-0.58H43.907z"/>
			<pattern id="SVGID_20_" xlink:href="#New_Pattern_Swatch_6" patternTransform="matrix(1 0 0 1 142.0898 196.5859)">
			</pattern>
			<path fill="url(#SVGID_20_)" d="M44.925,18.632c0-0.066,0.02-0.122,0.061-0.168c0.04-0.046,0.101-0.068,0.18-0.068     c0.08,0,0.14,0.023,0.181,0.068c0.041,0.046,0.062,0.102,0.062,0.168c0,0.067-0.021,0.122-0.062,0.166     c-0.041,0.044-0.102,0.066-0.181,0.066c-0.08,0-0.14-0.022-0.18-0.066C44.945,18.754,44.925,18.699,44.925,18.632z M45.367,21.661     h-0.409v-2.394h0.409V21.661z"/>
			<pattern id="SVGID_21_" xlink:href="#New_Pattern_Swatch_6" patternTransform="matrix(1 0 0 1 142.0898 196.5859)">
			</pattern>
			<path fill="url(#SVGID_21_)" d="M47.328,18.632c0-0.066,0.02-0.122,0.061-0.168c0.041-0.046,0.101-0.068,0.18-0.068     c0.08,0,0.14,0.023,0.181,0.068c0.041,0.046,0.062,0.102,0.062,0.168c0,0.067-0.021,0.122-0.062,0.166     c-0.041,0.044-0.102,0.066-0.181,0.066c-0.08,0-0.14-0.022-0.18-0.066C47.348,18.754,47.328,18.699,47.328,18.632z M47.77,21.661     h-0.409v-2.394h0.409V21.661z"/>
			<pattern id="SVGID_22_" xlink:href="#New_Pattern_Swatch_6" patternTransform="matrix(1 0 0 1 142.0898 196.5859)">
			</pattern>
			<path fill="url(#SVGID_22_)" d="M48.903,19.267l0.013,0.301c0.183-0.23,0.422-0.345,0.717-0.345c0.506,0,0.761,0.285,0.765,0.856     v1.582h-0.409v-1.584c-0.002-0.173-0.041-0.3-0.118-0.383c-0.077-0.083-0.198-0.124-0.362-0.124c-0.133,0-0.249,0.035-0.35,0.106     c-0.1,0.071-0.179,0.164-0.234,0.279v1.706h-0.409v-2.394H48.903z"/>
			<pattern id="SVGID_23_" xlink:href="#New_Pattern_Swatch_6" patternTransform="matrix(1 0 0 1 142.0898 196.5859)">
			</pattern>
			<path fill="url(#SVGID_23_)" d="M51.662,18.688v0.58h0.447v0.316h-0.447v1.487c0,0.096,0.02,0.168,0.06,0.216     c0.04,0.048,0.107,0.072,0.204,0.072c0.047,0,0.112-0.009,0.195-0.027v0.33c-0.108,0.029-0.212,0.044-0.314,0.044     c-0.183,0-0.321-0.056-0.414-0.166c-0.093-0.111-0.139-0.268-0.139-0.471v-1.485h-0.436v-0.316h0.436v-0.58H51.662z"/>
			<pattern id="SVGID_24_" xlink:href="#New_Pattern_Swatch_6" patternTransform="matrix(1 0 0 1 142.0898 196.5859)">
			</pattern>
			<path fill="url(#SVGID_24_)" d="M53.671,21.706c-0.325,0-0.589-0.107-0.792-0.32c-0.204-0.213-0.305-0.498-0.305-0.855v-0.075     c0-0.237,0.045-0.449,0.136-0.636c0.091-0.187,0.218-0.333,0.381-0.438c0.163-0.105,0.34-0.158,0.53-0.158     c0.311,0,0.553,0.103,0.726,0.308c0.173,0.205,0.259,0.499,0.259,0.881v0.17h-1.622c0.006,0.236,0.075,0.427,0.207,0.572     c0.132,0.145,0.3,0.218,0.503,0.218c0.144,0,0.267-0.03,0.367-0.088c0.1-0.059,0.188-0.137,0.263-0.235l0.25,0.195     C54.373,21.551,54.072,21.706,53.671,21.706z M53.62,19.559c-0.165,0-0.304,0.06-0.416,0.18c-0.112,0.12-0.181,0.289-0.208,0.506     h1.199v-0.031c-0.012-0.208-0.068-0.369-0.168-0.483C53.927,19.616,53.791,19.559,53.62,19.559z"/>
			<pattern id="SVGID_25_" xlink:href="#New_Pattern_Swatch_6" patternTransform="matrix(1 0 0 1 142.0898 196.5859)">
			</pattern>
			<path fill="url(#SVGID_25_)" d="M55.071,20.444c0-0.373,0.087-0.67,0.259-0.89c0.173-0.221,0.401-0.331,0.686-0.331     c0.292,0,0.52,0.103,0.684,0.31l0.02-0.265h0.374v2.337c0,0.31-0.092,0.554-0.275,0.732c-0.184,0.179-0.43,0.268-0.74,0.268     c-0.173,0-0.341-0.037-0.506-0.111c-0.165-0.074-0.291-0.175-0.378-0.303l0.212-0.246c0.175,0.217,0.39,0.325,0.644,0.325     c0.199,0,0.354-0.056,0.466-0.168c0.111-0.112,0.167-0.27,0.167-0.474v-0.206c-0.164,0.189-0.387,0.283-0.67,0.283     c-0.28,0-0.507-0.113-0.68-0.339C55.158,21.141,55.071,20.834,55.071,20.444z M55.483,20.491c0,0.27,0.055,0.482,0.166,0.636     c0.111,0.154,0.265,0.231,0.465,0.231c0.258,0,0.448-0.117,0.568-0.352v-1.093c-0.125-0.228-0.313-0.343-0.564-0.343     c-0.199,0-0.355,0.077-0.467,0.232C55.539,19.957,55.483,20.187,55.483,20.491z"/>
			<pattern id="SVGID_26_" xlink:href="#New_Pattern_Swatch_6" patternTransform="matrix(1 0 0 1 142.0898 196.5859)">
			</pattern>
			<path fill="url(#SVGID_26_)" d="M58.959,19.634c-0.062-0.01-0.129-0.015-0.201-0.015c-0.268,0-0.451,0.114-0.547,0.343v1.699     h-0.409v-2.394H58.2l0.007,0.277c0.134-0.214,0.325-0.321,0.571-0.321c0.08,0,0.14,0.01,0.182,0.031V19.634z"/>
			<pattern id="SVGID_27_" xlink:href="#New_Pattern_Swatch_6" patternTransform="matrix(1 0 0 1 142.0898 196.5859)">
			</pattern>
			<path fill="url(#SVGID_27_)" d="M60.815,21.661c-0.024-0.047-0.043-0.131-0.057-0.252c-0.19,0.197-0.418,0.296-0.682,0.296     c-0.236,0-0.43-0.067-0.581-0.2c-0.151-0.133-0.227-0.303-0.227-0.508c0-0.249,0.095-0.443,0.284-0.581s0.456-0.207,0.8-0.207     h0.398v-0.188c0-0.143-0.043-0.257-0.129-0.342c-0.085-0.085-0.211-0.127-0.378-0.127c-0.146,0-0.268,0.037-0.367,0.111     c-0.099,0.074-0.148,0.163-0.148,0.268h-0.411c0-0.119,0.042-0.235,0.127-0.346c0.085-0.111,0.2-0.199,0.345-0.265     c0.145-0.065,0.305-0.097,0.479-0.097c0.276,0,0.492,0.069,0.648,0.207c0.156,0.138,0.237,0.328,0.243,0.57v1.102     c0,0.22,0.028,0.395,0.084,0.524v0.035H60.815z M60.136,21.349c0.128,0,0.25-0.033,0.365-0.099     c0.115-0.067,0.198-0.153,0.25-0.259V20.5H60.43c-0.501,0-0.752,0.147-0.752,0.44c0,0.128,0.043,0.229,0.128,0.301     C59.892,21.313,60.001,21.349,60.136,21.349z M60.514,18.267h0.496l-0.593,0.65l-0.33-0.001L60.514,18.267z"/>
			<pattern id="SVGID_28_" xlink:href="#New_Pattern_Swatch_6" patternTransform="matrix(1 0 0 1 142.0898 196.5859)">
			</pattern>
			<path fill="url(#SVGID_28_)" d="M62.853,21.371c0.146,0,0.274-0.044,0.383-0.133c0.109-0.088,0.17-0.199,0.181-0.332h0.387     c-0.007,0.137-0.055,0.268-0.142,0.392c-0.087,0.124-0.203,0.223-0.349,0.296s-0.299,0.111-0.461,0.111     c-0.326,0-0.585-0.109-0.778-0.327c-0.192-0.217-0.289-0.515-0.289-0.893v-0.068c0-0.233,0.043-0.44,0.129-0.622     c0.085-0.181,0.208-0.322,0.368-0.422c0.16-0.1,0.349-0.151,0.568-0.151c0.268,0,0.492,0.08,0.669,0.241     c0.178,0.161,0.273,0.37,0.284,0.626h-0.387c-0.012-0.155-0.07-0.282-0.176-0.382c-0.105-0.099-0.235-0.149-0.39-0.149     c-0.208,0-0.369,0.075-0.483,0.225c-0.115,0.15-0.172,0.366-0.172,0.649v0.078c0,0.276,0.057,0.488,0.17,0.637     C62.479,21.297,62.642,21.371,62.853,21.371z"/>
			<pattern id="SVGID_29_" xlink:href="#New_Pattern_Swatch_6" patternTransform="matrix(1 0 0 1 142.0898 196.5859)">
			</pattern>
			<path fill="url(#SVGID_29_)" d="M64.357,18.632c0-0.066,0.02-0.122,0.061-0.168c0.041-0.046,0.101-0.068,0.18-0.068     c0.08,0,0.14,0.023,0.181,0.068c0.041,0.046,0.062,0.102,0.062,0.168c0,0.067-0.021,0.122-0.062,0.166     c-0.041,0.044-0.102,0.066-0.181,0.066c-0.08,0-0.14-0.022-0.18-0.066C64.377,18.754,64.357,18.699,64.357,18.632z M64.8,21.661     H64.39v-2.394H64.8V21.661z"/>
			<pattern id="SVGID_30_" xlink:href="#New_Pattern_Swatch_6" patternTransform="matrix(1 0 0 1 142.0898 196.5859)">
			</pattern>
			<path fill="url(#SVGID_30_)" d="M65.437,20.442c0-0.234,0.046-0.445,0.138-0.633c0.092-0.187,0.22-0.332,0.385-0.433     c0.165-0.102,0.352-0.153,0.563-0.153c0.326,0,0.59,0.113,0.791,0.339c0.201,0.226,0.302,0.526,0.302,0.901v0.029     c0,0.233-0.044,0.442-0.134,0.627c-0.089,0.185-0.217,0.329-0.383,0.432c-0.166,0.103-0.356,0.155-0.572,0.155     c-0.324,0-0.587-0.113-0.789-0.339c-0.201-0.226-0.302-0.525-0.302-0.896V20.442z M65.848,20.491c0,0.265,0.062,0.479,0.185,0.639     c0.123,0.161,0.288,0.241,0.494,0.241c0.208,0,0.373-0.081,0.496-0.245c0.123-0.163,0.184-0.391,0.184-0.685     c0-0.262-0.062-0.475-0.187-0.638c-0.124-0.163-0.29-0.244-0.497-0.244c-0.202,0-0.365,0.08-0.489,0.241     C65.91,19.961,65.848,20.191,65.848,20.491z M66.709,18.267h0.495l-0.593,0.65l-0.33-0.001L66.709,18.267z"/>
			<pattern id="SVGID_31_" xlink:href="#New_Pattern_Swatch_6" patternTransform="matrix(1 0 0 1 142.0898 196.5859)">
			</pattern>
			<path fill="url(#SVGID_31_)" d="M71.459,20.491c0,0.366-0.084,0.66-0.252,0.882c-0.168,0.222-0.394,0.333-0.677,0.333     c-0.302,0-0.536-0.107-0.702-0.321l-0.02,0.277h-0.376v-3.399h0.409v1.268c0.165-0.205,0.393-0.308,0.684-0.308     c0.291,0,0.519,0.11,0.685,0.33c0.166,0.22,0.249,0.521,0.249,0.903V20.491z M71.05,20.444c0-0.279-0.054-0.494-0.162-0.646     c-0.108-0.152-0.263-0.228-0.464-0.228c-0.27,0-0.464,0.125-0.582,0.376v1.036c0.125,0.251,0.321,0.376,0.586,0.376     c0.196,0,0.349-0.076,0.458-0.228C70.995,20.978,71.05,20.75,71.05,20.444z"/>
			<pattern id="SVGID_32_" xlink:href="#New_Pattern_Swatch_6" patternTransform="matrix(1 0 0 1 142.0898 196.5859)">
			</pattern>
			<path fill="url(#SVGID_32_)" d="M72.51,21.661h-0.409v-3.399h0.409V21.661z"/>
			<pattern id="SVGID_33_" xlink:href="#New_Pattern_Swatch_6" patternTransform="matrix(1 0 0 1 142.0898 196.5859)">
			</pattern>
			<path fill="url(#SVGID_33_)" d="M73.147,20.442c0-0.234,0.046-0.445,0.138-0.633c0.092-0.187,0.22-0.332,0.385-0.433     c0.165-0.102,0.352-0.153,0.563-0.153c0.326,0,0.59,0.113,0.791,0.339c0.201,0.226,0.302,0.526,0.302,0.901v0.029     c0,0.233-0.044,0.442-0.134,0.627c-0.089,0.185-0.217,0.329-0.383,0.432c-0.166,0.103-0.356,0.155-0.572,0.155     c-0.324,0-0.587-0.113-0.789-0.339c-0.201-0.226-0.302-0.525-0.302-0.896V20.442z M73.559,20.491c0,0.265,0.062,0.479,0.185,0.639     c0.123,0.161,0.288,0.241,0.494,0.241c0.208,0,0.373-0.081,0.496-0.245c0.123-0.163,0.184-0.391,0.184-0.685     c0-0.262-0.062-0.475-0.187-0.638c-0.125-0.163-0.29-0.244-0.497-0.244c-0.202,0-0.365,0.08-0.489,0.241     C73.621,19.961,73.559,20.191,73.559,20.491z"/>
			<pattern id="SVGID_34_" xlink:href="#New_Pattern_Swatch_6" patternTransform="matrix(1 0 0 1 142.0898 196.5859)">
			</pattern>
			<path fill="url(#SVGID_34_)" d="M75.833,20.444c0-0.373,0.087-0.67,0.259-0.89c0.173-0.221,0.401-0.331,0.686-0.331     c0.292,0,0.52,0.103,0.684,0.31l0.02-0.265h0.374v2.337c0,0.31-0.092,0.554-0.275,0.732c-0.184,0.179-0.43,0.268-0.74,0.268     c-0.173,0-0.341-0.037-0.506-0.111c-0.165-0.074-0.291-0.175-0.378-0.303l0.212-0.246c0.175,0.217,0.39,0.325,0.644,0.325     c0.199,0,0.354-0.056,0.466-0.168c0.111-0.112,0.167-0.27,0.167-0.474v-0.206c-0.164,0.189-0.387,0.283-0.67,0.283     c-0.28,0-0.507-0.113-0.68-0.339C75.92,21.141,75.833,20.834,75.833,20.444z M76.245,20.491c0,0.27,0.055,0.482,0.166,0.636     c0.111,0.154,0.265,0.231,0.465,0.231c0.258,0,0.448-0.117,0.568-0.352v-1.093c-0.125-0.228-0.313-0.343-0.564-0.343     c-0.199,0-0.355,0.077-0.467,0.232C76.301,19.957,76.245,20.187,76.245,20.491z"/>
			<pattern id="SVGID_35_" xlink:href="#New_Pattern_Swatch_6" patternTransform="matrix(1 0 0 1 142.0898 196.5859)">
			</pattern>
			<path fill="url(#SVGID_35_)" d="M78.986,19.267v2.671c0,0.46-0.209,0.691-0.626,0.691c-0.09,0-0.173-0.013-0.25-0.04v-0.326     c0.047,0.012,0.109,0.018,0.186,0.018c0.092,0,0.161-0.025,0.209-0.074c0.048-0.05,0.072-0.136,0.072-0.258v-2.682H78.986z      M78.535,18.632c0-0.065,0.02-0.121,0.061-0.167c0.041-0.046,0.1-0.07,0.178-0.07c0.08,0,0.14,0.023,0.182,0.068     c0.041,0.046,0.062,0.102,0.062,0.168c0,0.067-0.02,0.122-0.062,0.166c-0.041,0.044-0.102,0.066-0.182,0.066     c-0.08,0-0.139-0.022-0.179-0.066C78.555,18.754,78.535,18.699,78.535,18.632z"/>
			<pattern id="SVGID_36_" xlink:href="#New_Pattern_Swatch_6" patternTransform="matrix(1 0 0 1 142.0898 196.5859)">
			</pattern>
			<path fill="url(#SVGID_36_)" d="M81.214,21.661c-0.024-0.047-0.043-0.131-0.058-0.252c-0.19,0.197-0.417,0.296-0.681,0.296     c-0.236,0-0.43-0.067-0.581-0.2c-0.151-0.133-0.227-0.303-0.227-0.508c0-0.249,0.095-0.443,0.284-0.581     c0.189-0.138,0.456-0.207,0.8-0.207h0.398v-0.188c0-0.143-0.043-0.257-0.128-0.342c-0.086-0.085-0.212-0.127-0.378-0.127     c-0.146,0-0.268,0.037-0.367,0.111c-0.099,0.074-0.148,0.163-0.148,0.268h-0.412c0-0.119,0.043-0.235,0.127-0.346     c0.085-0.111,0.2-0.199,0.346-0.265c0.145-0.065,0.305-0.097,0.479-0.097c0.276,0,0.492,0.069,0.648,0.207     c0.156,0.138,0.238,0.328,0.243,0.57v1.102c0,0.22,0.028,0.395,0.084,0.524v0.035H81.214z M80.535,21.349     c0.129,0,0.25-0.033,0.365-0.099c0.115-0.067,0.198-0.153,0.25-0.259V20.5h-0.321c-0.502,0-0.753,0.147-0.753,0.44     c0,0.128,0.043,0.229,0.129,0.301C80.291,21.313,80.401,21.349,80.535,21.349z"/>
		</g>
		<g>
			<pattern id="SVGID_37_" xlink:href="#New_Pattern_Swatch_6" patternTransform="matrix(1 0 0 1 142.0898 196.5859)">
			</pattern>
			<path fill="url(#SVGID_37_)" d="M7.729,8.477H4.954v7.526H2.724V8.477H0V6.756h7.729V8.477z"/>
			<pattern id="SVGID_38_" xlink:href="#New_Pattern_Swatch_6" patternTransform="matrix(1 0 0 1 142.0898 196.5859)">
			</pattern>
			<path fill="url(#SVGID_38_)" d="M13.809,14.275h-3.054l-0.534,1.728H7.839l3.391-9.247h2.096l3.416,9.247h-2.394L13.809,14.275z      M11.288,12.554h1.988l-0.997-3.207L11.288,12.554z"/>
			<pattern id="SVGID_39_" xlink:href="#New_Pattern_Swatch_6" patternTransform="matrix(1 0 0 1 142.0898 196.5859)">
			</pattern>
			<path fill="url(#SVGID_39_)" d="M21.21,12.561l-0.914,1.003v2.439h-2.229V6.756h2.229v4.077l0.775-1.175l1.994-2.902h2.756     l-3.124,4.09l3.124,5.157h-2.642L21.21,12.561z"/>
			<pattern id="SVGID_40_" xlink:href="#New_Pattern_Swatch_6" patternTransform="matrix(1 0 0 1 142.0898 196.5859)">
			</pattern>
			<path fill="url(#SVGID_40_)" d="M32.288,14.275h-3.055L28.7,16.003h-2.382l3.391-9.247h2.096l3.416,9.247h-2.394L32.288,14.275z      M29.767,12.554h1.988l-0.997-3.207L29.767,12.554z"/>
			<pattern id="SVGID_41_" xlink:href="#New_Pattern_Swatch_6" patternTransform="matrix(1 0 0 1 142.0898 196.5859)">
			</pattern>
			<path fill="url(#SVGID_41_)" d="M39.981,12.732h-1.207v3.271h-2.229V6.756h3.639c1.097,0,1.954,0.243,2.572,0.73     c0.618,0.486,0.927,1.173,0.927,2.062c0,0.643-0.13,1.176-0.39,1.598c-0.26,0.423-0.668,0.766-1.223,1.028l1.931,3.733v0.095     h-2.388L39.981,12.732z M38.774,11.018h1.41c0.423,0,0.742-0.111,0.956-0.334c0.214-0.223,0.321-0.534,0.321-0.933     s-0.108-0.712-0.324-0.939c-0.216-0.227-0.533-0.34-0.953-0.34h-1.41V11.018z"/>
			<pattern id="SVGID_42_" xlink:href="#New_Pattern_Swatch_6" patternTransform="matrix(1 0 0 1 142.0898 196.5859)">
			</pattern>
			<path fill="url(#SVGID_42_)" d="M51.415,12.078H47.91v2.21h4.14v1.715h-6.37V6.756h6.383v1.721H47.91v1.95h3.505V12.078z      M49.338,4.28h2.261l-1.765,1.994L48.087,6.27L49.338,4.28z"/>
			<pattern id="SVGID_43_" xlink:href="#New_Pattern_Swatch_6" patternTransform="matrix(1 0 0 1 142.0898 196.5859)">
			</pattern>
			<path fill="url(#SVGID_43_)" d="M56.752,12.561l-0.915,1.003v2.439h-2.229V6.756h2.229v4.077l0.775-1.175l1.994-2.902h2.756     l-3.125,4.09l3.125,5.157h-2.642L56.752,12.561z"/>
			<pattern id="SVGID_44_" xlink:href="#New_Pattern_Swatch_6" patternTransform="matrix(1 0 0 1 142.0898 196.5859)">
			</pattern>
			<path fill="url(#SVGID_44_)" d="M66.467,16.003V6.756h3.321c1.19,0,2.095,0.218,2.715,0.654c0.62,0.436,0.931,1.069,0.931,1.899     c0,0.478-0.11,0.887-0.33,1.226c-0.22,0.339-0.544,0.588-0.972,0.749c0.482,0.127,0.853,0.364,1.111,0.711     c0.258,0.347,0.387,0.771,0.387,1.27c0,0.906-0.287,1.587-0.861,2.042c-0.574,0.455-1.423,0.687-2.55,0.695H66.467z      M68.697,10.611h1.162c0.487-0.004,0.834-0.093,1.041-0.267c0.207-0.174,0.311-0.431,0.311-0.771c0-0.391-0.112-0.672-0.337-0.844     c-0.224-0.172-0.586-0.258-1.086-0.258h-1.092V10.611z M68.697,12.072v2.216h1.461c0.402,0,0.711-0.092,0.927-0.276     c0.216-0.184,0.324-0.444,0.324-0.778c0-0.771-0.383-1.158-1.149-1.162H68.697z"/>
			<pattern id="SVGID_45_" xlink:href="#New_Pattern_Swatch_6" patternTransform="matrix(1 0 0 1 142.0898 196.5859)">
			</pattern>
			<path fill="url(#SVGID_45_)" d="M77.736,14.288h3.88v1.715h-6.109V6.756h2.229V14.288z"/>
			<pattern id="SVGID_46_" xlink:href="#New_Pattern_Swatch_6" patternTransform="matrix(1 0 0 1 142.0898 196.5859)">
			</pattern>
			<path fill="url(#SVGID_46_)" d="M90.63,11.57c0,0.902-0.167,1.7-0.501,2.394c-0.334,0.694-0.81,1.229-1.426,1.604     c-0.616,0.375-1.318,0.562-2.105,0.562c-0.788,0-1.486-0.181-2.096-0.543c-0.61-0.362-1.085-0.88-1.425-1.553     c-0.341-0.673-0.52-1.446-0.537-2.318v-0.521c0-0.906,0.166-1.705,0.498-2.397c0.332-0.692,0.809-1.227,1.429-1.604     c0.62-0.377,1.326-0.565,2.118-0.565c0.783,0,1.482,0.186,2.096,0.559c0.614,0.373,1.091,0.903,1.432,1.591     c0.341,0.688,0.513,1.476,0.517,2.365V11.57z M88.363,11.183c0-0.919-0.154-1.616-0.46-2.092     c-0.307-0.476-0.746-0.715-1.318-0.715c-1.118,0-1.708,0.838-1.772,2.515l-0.006,0.68c0,0.906,0.15,1.602,0.451,2.089     c0.301,0.487,0.747,0.73,1.34,0.73c0.563,0,0.997-0.239,1.302-0.718c0.305-0.478,0.459-1.166,0.463-2.064V11.183z"/>
			<pattern id="SVGID_47_" xlink:href="#New_Pattern_Swatch_6" patternTransform="matrix(1 0 0 1 142.0898 196.5859)">
			</pattern>
			<path fill="url(#SVGID_47_)" d="M100,14.86c-0.343,0.381-0.844,0.688-1.505,0.921c-0.66,0.233-1.384,0.349-2.172,0.349     c-1.211,0-2.178-0.37-2.902-1.111c-0.724-0.741-1.112-1.772-1.162-3.093l-0.006-0.8c0-0.91,0.161-1.705,0.483-2.385     c0.322-0.679,0.782-1.202,1.381-1.568c0.599-0.366,1.292-0.549,2.08-0.549c1.152,0,2.046,0.264,2.683,0.791     c0.637,0.527,1.009,1.314,1.114,2.359h-2.147c-0.076-0.517-0.241-0.885-0.495-1.105c-0.254-0.22-0.614-0.33-1.08-0.33     c-0.559,0-0.991,0.237-1.296,0.711c-0.305,0.474-0.459,1.152-0.464,2.032v0.559c0,0.923,0.158,1.616,0.473,2.08     c0.315,0.463,0.812,0.695,1.489,0.695c0.58,0,1.012-0.129,1.296-0.387v-1.435h-1.55v-1.53H100V14.86z"/>
		</g>
		<g>
			<g>
				<pattern id="SVGID_48_" xlink:href="#New_Pattern_Swatch_6" patternTransform="matrix(1 0 0 1 142.0898 196.5859)">
				</pattern>
				<path fill="url(#SVGID_48_)" d="M0.549,0.044l1.053,2.629l1.053-2.629h0.551v3.221H2.781V2.011l0.04-1.354L1.763,3.266H1.438      L0.383,0.664l0.042,1.347v1.254H0V0.044H0.549z"/>
				<pattern id="SVGID_49_" xlink:href="#New_Pattern_Swatch_6" patternTransform="matrix(1 0 0 1 142.0898 196.5859)">
				</pattern>
				<path fill="url(#SVGID_49_)" d="M6.001,2.423h-1.35L4.349,3.266H3.91l1.23-3.221h0.372l1.232,3.221H6.309L6.001,2.423z       M4.78,2.075h1.095L5.326,0.569L4.78,2.075z"/>
				<pattern id="SVGID_50_" xlink:href="#New_Pattern_Swatch_6" patternTransform="matrix(1 0 0 1 142.0898 196.5859)">
				</pattern>
				<path fill="url(#SVGID_50_)" d="M9.759,2.843C9.65,2.999,9.498,3.116,9.302,3.194C9.107,3.271,8.879,3.31,8.62,3.31      c-0.263,0-0.496-0.062-0.699-0.185C7.717,3.002,7.559,2.827,7.448,2.6C7.337,2.373,7.28,2.109,7.277,1.81V1.529      c0-0.485,0.113-0.861,0.339-1.128C7.843,0.134,8.161,0,8.571,0c0.336,0,0.607,0.086,0.812,0.258      c0.205,0.172,0.33,0.416,0.376,0.731H9.334c-0.08-0.428-0.333-0.642-0.761-0.642c-0.285,0-0.5,0.1-0.647,0.3      c-0.147,0.2-0.221,0.49-0.222,0.869V1.78c0,0.362,0.083,0.649,0.248,0.863c0.165,0.213,0.389,0.32,0.67,0.32      c0.159,0,0.299-0.018,0.418-0.053C9.16,2.874,9.258,2.815,9.337,2.731V2.009H8.591V1.662h1.168V2.843z"/>
				<pattern id="SVGID_51_" xlink:href="#New_Pattern_Swatch_6" patternTransform="matrix(1 0 0 1 142.0898 196.5859)">
				</pattern>
				<path fill="url(#SVGID_51_)" d="M11.676,1.662l0.841-1.617h0.482l-1.111,2.02v1.201h-0.425V2.064l-1.111-2.02h0.487L11.676,1.662      z"/>
				<pattern id="SVGID_52_" xlink:href="#New_Pattern_Swatch_6" patternTransform="matrix(1 0 0 1 142.0898 196.5859)">
				</pattern>
				<path fill="url(#SVGID_52_)" d="M15.213,2.423h-1.35L13.56,3.266h-0.438l1.23-3.221h0.372l1.232,3.221H15.52L15.213,2.423z       M13.991,2.075h1.095l-0.549-1.507L13.991,2.075z"/>
				<pattern id="SVGID_53_" xlink:href="#New_Pattern_Swatch_6" patternTransform="matrix(1 0 0 1 142.0898 196.5859)">
				</pattern>
				<path fill="url(#SVGID_53_)" d="M17.798,1.963h-0.757v1.303h-0.427V0.044h1.067c0.363,0,0.642,0.083,0.837,0.248      c0.196,0.165,0.293,0.406,0.293,0.721c0,0.201-0.054,0.375-0.163,0.524c-0.108,0.149-0.259,0.26-0.452,0.334l0.757,1.367v0.026      h-0.456L17.798,1.963z M17.041,1.615h0.653c0.211,0,0.379-0.055,0.503-0.164c0.125-0.109,0.187-0.256,0.187-0.439      c0-0.199-0.06-0.352-0.178-0.459c-0.119-0.106-0.29-0.16-0.514-0.162h-0.65V1.615z"/>
			</g>
		</g>
	</g>
  </svg>