<?xml version="1.0" encoding="utf-8"?>
<!-- Generator: Adobe Illustrator 19.2.1, SVG Export Plug-In . SVG Version: 6.00 Build 0)  -->
<svg version="1.1" id="Слой_1" xmlns="http://www.w3.org/2000/svg" xmlns:xlink="http://www.w3.org/1999/xlink" x="0px" y="0px"
	 viewBox="0 0 480 480" style="enable-background:new 0 0 480 480;" xml:space="preserve">
<style type="text/css">
	.st0{fill:url(#SVGID_1_);}
	.st1{fill:url(#SVGID_2_);}
	.st2{fill:url(#SVGID_3_);}
	.st3{fill:url(#SVGID_4_);}
	.st4{fill:url(#SVGID_5_);}
	.st5{fill:url(#SVGID_6_);}
	.st6{fill:url(#SVGID_7_);}
	.st7{fill:url(#SVGID_8_);}
	.st8{fill:url(#SVGID_9_);}
	.st9{display:none;fill:url(#SVGID_10_);}
</style>
<linearGradient id="SVGID_1_" gradientUnits="userSpaceOnUse" x1="-101.1983" y1="242" x2="443.3297" y2="242" gradientTransform="matrix(1 0 0 -1 0 482)">
	<stop  offset="0" style="stop-color:#F8DF97"/>
	<stop  offset="1" style="stop-color:#E23631"/>
</linearGradient>
<path class="st0" d="M310.7,89.2c-2.2-1.4-4.9-1.6-7.2-0.7c-17.1,7.3-33.6,15.8-49.5,25.4C235.3,45.6,198.4,0,154.8,0
	c-41.5,0-78.6,42.5-98.1,111.3C42.1,102.7,27,95.1,11.4,88.6c-2.4-1-5.1-0.7-7.3,0.7c-2.2,1.4-3.6,3.7-3.7,6.3
	c-0.3,4.3-6.2,105.7,32.8,195.6c23.9,55.4,56.9,107.3,89.5,130.5V456c0,13.3,10.7,24,24,24h16c13.3,0,24-10.7,24-24v-31.3
	c34.6-21.5,70.1-76.3,94.8-133.6c38.9-89.9,33-191.4,32.8-195.6C314.2,92.9,312.8,90.6,310.7,89.2z M84.9,80h21.9c4.4,0,8-3.6,8-8
	s-3.6-8-8-8H93.1c17.2-30.2,39.1-48,61.7-48c23.2,0,44.8,18.2,61.6,48h-13.6c-4.4,0-8,3.6-8,8s3.6,8,8,8h21.6
	c7.7,17.3,13.5,35.4,17.6,54c0.8,3.7,1.6,7.5,2.3,11.3c0.5,2.8,1,5.5,1.5,8.4c0.8,4.9,1.5,9.9,2.1,14.9c0.2,1.8,0.4,3.6,0.6,5.4
	c0.6,5.8,1.1,11.7,1.5,17.6v0.6h-23.2c-4.4,0-8,3.6-8,8s3.6,8,8,8h23.8c0.1,2.7,0.2,5.3,0.2,8c0,13.4-0.7,26.7-2,40h-22
	c-4.4,0-8,3.6-8,8s3.6,8,8,8h20c-6.8,46.6-21.7,86.6-41.1,112.5c6.4-26.4,6.8-54,1.1-80.6h20c4.4,0,8-3.6,8-8s-3.6-8-8-8h-23.6
	c-4.7-17.8-11.3-35.1-19.6-51.6c-5-9.9-10.7-19.4-17-28.4h12.2c4.4,0,8-3.6,8-8s-3.6-8-8-8h-24c-0.1,0-0.2,0.1-0.3,0.1
	c-4.6-5.6-9.4-10.9-14.2-16.1h6.6c4.4,0,8-3.6,8-8s-3.6-8-8-8h-23c-6.3-5.7-12.6-11-19-16h1.9c4.4,0,8-3.6,8-8s-3.6-8-8-8H83.1
	c-4.1-2.8-8.2-5.5-12.2-8C74.4,106.3,79.1,92.9,84.9,80z M47.9,284.8C18,215.7,15.8,137.3,16.1,108.2
	c30,14.2,115.4,59.8,153.2,135.4c30.4,60.7,29.5,114.3,18.6,144.3c-3.1,9.6-8.6,18.1-16.1,24.8c-2.8,1.1-5.7,1.9-8.7,2.5
	c2.2-14,6.4-80.7-73.4-211.3c-2.3-3.8-7.2-5-11-2.7c-3.8,2.3-5,7.2-2.7,11c84.2,137.8,71.3,200.9,71.1,202c-0.2,0.8-0.2,1.7-0.1,2.5
	C117.8,406.8,78.7,356,47.9,284.8z M170.8,456c0,4.4-3.6,8-8,8h-16c-4.4,0-8-3.6-8-8v-25.4c5.6,2.4,11.7,3.7,17.8,3.9
	c2.6,0,5.1-0.3,7.6-0.8c2.2-0.4,4.4-0.9,6.6-1.5V456z M266.9,284.8c-3.3,7.6-6.7,14.9-10.2,22.1c0.1-0.4,0.1-0.8,0.2-1.1
	c1.4-6.2,2.7-12.5,3.8-19c0.1-0.7,0.3-1.5,0.4-2.2c1.1-6.5,2-13.2,2.8-20l0.2-2.1c0.8-7,1.4-14.2,1.8-21.4c0-0.5,0.1-1,0.1-1.4
	c0.4-7.8,0.6-15.6,0.6-23.6c0.1-28.8-2.9-57.5-8.9-85.7c13.2-8.1,26.8-15.5,40.8-22.1C299.1,137.3,296.8,215.7,266.9,284.8z"/>
<linearGradient id="SVGID_2_" gradientUnits="userSpaceOnUse" x1="-101.1983" y1="442" x2="443.3298" y2="442" gradientTransform="matrix(1 0 0 -1 0 482)">
	<stop  offset="0" style="stop-color:#F8DF97"/>
	<stop  offset="1" style="stop-color:#E23631"/>
</linearGradient>
<path class="st1" d="M146.8,48h16c4.4,0,8-3.6,8-8s-3.6-8-8-8h-16c-4.4,0-8,3.6-8,8S142.4,48,146.8,48z"/>
<linearGradient id="SVGID_3_" gradientUnits="userSpaceOnUse" x1="-101.1992" y1="378" x2="443.3288" y2="378" gradientTransform="matrix(1 0 0 -1 0 482)">
	<stop  offset="0" style="stop-color:#F8DF97"/>
	<stop  offset="1" style="stop-color:#E23631"/>
</linearGradient>
<path class="st2" d="M106.8,112h24c4.4,0,8-3.6,8-8s-3.6-8-8-8h-24c-4.4,0-8,3.6-8,8S102.4,112,106.8,112z"/>
<linearGradient id="SVGID_4_" gradientUnits="userSpaceOnUse" x1="-101.1983" y1="378" x2="443.3298" y2="378" gradientTransform="matrix(1 0 0 -1 0 482)">
	<stop  offset="0" style="stop-color:#F8DF97"/>
	<stop  offset="1" style="stop-color:#E23631"/>
</linearGradient>
<path class="st3" d="M170.8,104c0,4.4,3.6,8,8,8h24c4.4,0,8-3.6,8-8s-3.6-8-8-8h-24C174.4,96,170.8,99.6,170.8,104z"/>
<linearGradient id="SVGID_5_" gradientUnits="userSpaceOnUse" x1="-101.1983" y1="314" x2="443.3298" y2="314" gradientTransform="matrix(1 0 0 -1 0 482)">
	<stop  offset="0" style="stop-color:#F8DF97"/>
	<stop  offset="1" style="stop-color:#E23631"/>
</linearGradient>
<path class="st4" d="M218.8,160h-24c-4.4,0-8,3.6-8,8s3.6,8,8,8h24c4.4,0,8-3.6,8-8S223.2,160,218.8,160z"/>
<linearGradient id="SVGID_6_" gradientUnits="userSpaceOnUse" x1="-101.1983" y1="250" x2="443.3298" y2="250" gradientTransform="matrix(1 0 0 -1 0 482)">
	<stop  offset="0" style="stop-color:#F8DF97"/>
	<stop  offset="1" style="stop-color:#E23631"/>
</linearGradient>
<path class="st5" d="M194.8,224c-4.4,0-8,3.6-8,8s3.6,8,8,8h24c4.4,0,8-3.6,8-8s-3.6-8-8-8H194.8z"/>
<linearGradient id="SVGID_7_" gradientUnits="userSpaceOnUse" x1="-101.1983" y1="410" x2="443.3298" y2="410" gradientTransform="matrix(1 0 0 -1 0 482)">
	<stop  offset="0" style="stop-color:#F8DF97"/>
	<stop  offset="1" style="stop-color:#E23631"/>
</linearGradient>
<path class="st6" d="M138.8,80h32c4.4,0,8-3.6,8-8s-3.6-8-8-8h-32c-4.4,0-8,3.6-8,8S134.4,80,138.8,80z"/>
<g>
	
		<linearGradient id="SVGID_8_" gradientUnits="userSpaceOnUse" x1="-101.1983" y1="346" x2="443.3298" y2="346" gradientTransform="matrix(1 0 0 -1 0 482)">
		<stop  offset="0" style="stop-color:#F8DF97"/>
		<stop  offset="1" style="stop-color:#E23631"/>
	</linearGradient>
	<path class="st7" d="M194.8,136c0,4.4,3.6,8,8,8h24c4.4,0,8-3.6,8-8s-3.6-8-8-8h-24C198.4,128,194.8,131.6,194.8,136z"/>
	
		<linearGradient id="SVGID_9_" gradientUnits="userSpaceOnUse" x1="-101.1983" y1="346" x2="443.3298" y2="346" gradientTransform="matrix(1 0 0 -1 0 482)">
		<stop  offset="0" style="stop-color:#F8DF97"/>
		<stop  offset="1" style="stop-color:#E23631"/>
	</linearGradient>
	<path class="st8" d="M170.8,128h-32c-4.4,0-8,3.6-8,8s3.6,8,8,8h32c4.4,0,8-3.6,8-8S175.2,128,170.8,128z"/>
</g>
<linearGradient id="SVGID_10_" gradientUnits="userSpaceOnUse" x1="-397.5" y1="38.913" x2="-337.818" y2="38.913" gradientTransform="matrix(8 0 0 8 3234 66)">
	<stop  offset="0" style="stop-color:#F8DF97"/>
	<stop  offset="1" style="stop-color:#E23631"/>
</linearGradient>
<path class="st9" d="M543.8,427.6c-24.6-5-49.6-7.2-74.6-6.6c14.4-36.4,17.4-80.4,8.7-131c-0.8-4.4-4.9-7.3-9.2-6.5
	c-0.2,0-0.4,0.1-0.6,0.1c-27,7.6-52.8,19.2-76.4,34.4c-15.4-41.9-41.7-78.9-76.2-107.2c-3.2-2.5-7.8-2.2-10.6,0.7
	c-35.5,36.1-59.2,73.2-70.8,110.4c-25.2-17.1-52.9-30.1-82.2-38.3c-4.3-1.1-8.6,1.6-9.7,5.8c0,0.2-0.1,0.4-0.1,0.6
	c-8.7,50.6-5.7,94.5,8.7,131c-25-0.6-50.1,1.6-74.6,6.6c-2.3,0.5-4.2,2-5.3,4.1c-1.1,2.1-1.2,4.5-0.3,6.7
	c34.8,87.1,102.5,107.1,157.6,107.1c27.8-0.2,55.4-4.8,81.8-13.6c26.4,8.8,54,13.4,81.8,13.6c55.1,0,122.8-20.1,157.6-107.1
	c0.9-2.2,0.7-4.6-0.3-6.7C548,429.6,546.1,428.1,543.8,427.6z M451.5,421.8c-29.3,1.8-57.9,9.7-84,23.2c-1.4,0.3-2.7,1.1-3.7,2.1
	l0,0c-16.2,9.3-30.3,21.9-41.5,36.9c0.3-14.8-1-29.5-4.1-44c9.6-40.6,34.3-75.2,73.6-102.9c22.1-15.2,46.2-27.2,71.7-35.5
	C470.4,348.6,466.3,389,451.5,421.8z M311.2,227.9c14.1,12.5,51.5,49.3,66.8,99.6c-30.4,21.4-54,51.1-68,85.5
	c-13-32.2-34.5-60.2-62.2-81.1C257.5,297.2,278.7,262.3,311.2,227.9z M156.5,301.5c27.7,9,53.8,22.4,77.4,39.6l0,0
	c33.8,23.7,57.9,58.7,67.9,98.8c-3.1,14.5-4.4,29.2-4.1,44c-32.4-43.5-83.9-58.5-129.2-62.1C153.7,389,149.6,348.6,156.5,301.5
	L156.5,301.5z M217.2,529.4c-59.9-3.2-102.9-32.9-127.9-88.1c36.3-6.2,167-20.9,210.2,77.2C272.8,526.9,245,530.6,217.2,529.4
	L217.2,529.4z M402.8,529.4c-27.8,1.1-55.7-2.6-82.3-11c43.1-98,173.9-83.3,210.2-77.2C505.7,496.6,462.7,526.2,402.8,529.4
	L402.8,529.4z"/>
</svg>
