<?xml version="1.0" encoding="utf-8"?>
<!-- Generator: Adobe Illustrator 19.2.1, SVG Export Plug-In . SVG Version: 6.00 Build 0)  -->
<svg version="1.1" id="Слой_1" xmlns="http://www.w3.org/2000/svg" xmlns:xlink="http://www.w3.org/1999/xlink" x="0px" y="0px"
	 viewBox="0 0 480 480" style="enable-background:new 0 0 480 480;" xml:space="preserve">
<style type="text/css">
	.st0{fill:url(#SVGID_1_);}
	.st1{fill:url(#SVGID_2_);}
	.st2{fill:url(#SVGID_3_);}
	.st3{fill:url(#SVGID_4_);}
	.st4{fill:url(#SVGID_5_);}
	.st5{fill:url(#SVGID_6_);}
	.st6{fill:url(#SVGID_7_);}
	.st7{fill:url(#SVGID_8_);}
	.st8{fill:url(#SVGID_9_);}
	.st9{fill:url(#SVGID_10_);}
	.st10{fill:url(#SVGID_11_);}
	.st11{display:none;fill:url(#SVGID_12_);}
</style>
<linearGradient id="SVGID_1_" gradientUnits="userSpaceOnUse" x1="-15.9754" y1="369.998" x2="507.7046" y2="369.998" gradientTransform="matrix(0.9999 0 0 -0.9999 4.947186e-005 481.9732)">
	<stop  offset="0" style="stop-color:#F8DF97"/>
	<stop  offset="1" style="stop-color:#E23631"/>
</linearGradient>
<path class="st0" d="M384,83.6c-22.4,0-40,12.5-40,28.4s17.6,28.4,40,28.4c22.4,0,40-12.5,40-28.4S406.4,83.6,384,83.6z M384,124.4
	c-13.7,0-24-6.5-24-12.4c0-5.8,10.3-12.4,24-12.4c13.7,0,24,6.5,24,12.4C408,117.8,397.7,124.4,384,124.4z"/>
<linearGradient id="SVGID_2_" gradientUnits="userSpaceOnUse" x1="-15.9754" y1="297.998" x2="507.7046" y2="297.998" gradientTransform="matrix(0.9999 0 0 -0.9999 4.947186e-005 481.9732)">
	<stop  offset="0" style="stop-color:#F8DF97"/>
	<stop  offset="1" style="stop-color:#E23631"/>
</linearGradient>
<path class="st1" d="M240,212.4c22.4,0,40-12.5,40-28.4s-17.6-28.4-40-28.4c-22.4,0-40,12.5-40,28.4S217.6,212.4,240,212.4z
	 M240,171.6c13.7,0,24,6.5,24,12.4c0,5.8-10.3,12.4-24,12.4c-13.7,0-24-6.5-24-12.4C216,178.2,226.3,171.6,240,171.6z"/>
<linearGradient id="SVGID_3_" gradientUnits="userSpaceOnUse" x1="-15.9754" y1="417.998" x2="507.7046" y2="417.998" gradientTransform="matrix(0.9999 0 0 -0.9999 4.947186e-005 481.9732)">
	<stop  offset="0" style="stop-color:#F8DF97"/>
	<stop  offset="1" style="stop-color:#E23631"/>
</linearGradient>
<path class="st2" d="M96,92.4c22.4,0,40-12.5,40-28.4s-17.6-28.4-40-28.4c-22.4,0-40,12.5-40,28.4S73.6,92.4,96,92.4z M96,51.6
	c13.7,0,24,6.5,24,12.4s-10.3,12.4-24,12.4c-13.7,0-24-6.5-24-12.4S82.3,51.6,96,51.6z"/>
<linearGradient id="SVGID_4_" gradientUnits="userSpaceOnUse" x1="-15.976" y1="193.998" x2="507.704" y2="193.998" gradientTransform="matrix(0.9999 0 0 -0.9999 4.947186e-005 481.9732)">
	<stop  offset="0" style="stop-color:#F8DF97"/>
	<stop  offset="1" style="stop-color:#E23631"/>
</linearGradient>
<path class="st3" d="M376,240c-4.4,0-8,3.6-8,8v80c0,4.4,3.6,8,8,8s8-3.6,8-8v-80C384,243.6,380.4,240,376,240z"/>
<linearGradient id="SVGID_5_" gradientUnits="userSpaceOnUse" x1="-15.976" y1="89.998" x2="507.704" y2="89.998" gradientTransform="matrix(0.9999 0 0 -0.9999 4.947186e-005 481.9732)">
	<stop  offset="0" style="stop-color:#F8DF97"/>
	<stop  offset="1" style="stop-color:#E23631"/>
</linearGradient>
<path class="st4" d="M376,352c-4.4,0-8,3.6-8,8v64c0,4.4,3.6,8,8,8s8-3.6,8-8v-64C384,355.6,380.4,352,376,352z"/>
<linearGradient id="SVGID_6_" gradientUnits="userSpaceOnUse" x1="-15.976" y1="113.998" x2="507.704" y2="113.998" gradientTransform="matrix(0.9999 0 0 -0.9999 4.947186e-005 481.9732)">
	<stop  offset="0" style="stop-color:#F8DF97"/>
	<stop  offset="1" style="stop-color:#E23631"/>
</linearGradient>
<path class="st5" d="M296,320c-4.4,0-8,3.6-8,8v80c0,4.4,3.6,8,8,8c4.4,0,8-3.6,8-8v-80C304,323.6,300.4,320,296,320z"/>
<linearGradient id="SVGID_7_" gradientUnits="userSpaceOnUse" x1="-15.9754" y1="265.998" x2="507.7046" y2="265.998" gradientTransform="matrix(0.9999 0 0 -0.9999 4.947186e-005 481.9732)">
	<stop  offset="0" style="stop-color:#F8DF97"/>
	<stop  offset="1" style="stop-color:#E23631"/>
</linearGradient>
<path class="st6" d="M80,144c-4.4,0-8,3.6-8,8v128c0,4.4,3.6,8,8,8s8-3.6,8-8V152C88,147.6,84.4,144,80,144z"/>
<linearGradient id="SVGID_8_" gradientUnits="userSpaceOnUse" x1="-15.9754" y1="145.998" x2="507.7046" y2="145.998" gradientTransform="matrix(0.9999 0 0 -0.9999 4.947186e-005 481.9732)">
	<stop  offset="0" style="stop-color:#F8DF97"/>
	<stop  offset="1" style="stop-color:#E23631"/>
</linearGradient>
<path class="st7" d="M80,304c-4.4,0-8,3.6-8,8v48c0,4.4,3.6,8,8,8s8-3.6,8-8v-48C88,307.6,84.4,304,80,304z"/>
<linearGradient id="SVGID_9_" gradientUnits="userSpaceOnUse" x1="-15.9754" y1="217.998" x2="507.7046" y2="217.998" gradientTransform="matrix(0.9999 0 0 -0.9999 4.947186e-005 481.9732)">
	<stop  offset="0" style="stop-color:#F8DF97"/>
	<stop  offset="1" style="stop-color:#E23631"/>
</linearGradient>
<path class="st8" d="M48,216c-4.4,0-8,3.6-8,8v80c0,4.4,3.6,8,8,8s8-3.6,8-8v-80C56,219.6,52.4,216,48,216z"/>
<linearGradient id="SVGID_10_" gradientUnits="userSpaceOnUse" x1="-15.9754" y1="69.998" x2="507.7046" y2="69.998" gradientTransform="matrix(0.9999 0 0 -0.9999 4.947186e-005 481.9732)">
	<stop  offset="0" style="stop-color:#F8DF97"/>
	<stop  offset="1" style="stop-color:#E23631"/>
</linearGradient>
<path class="st9" d="M80,392c-4.4,0-8,3.6-8,8v24c0,4.4,3.6,8,8,8s8-3.6,8-8v-24C88,395.6,84.4,392,80,392z"/>
<linearGradient id="SVGID_11_" gradientUnits="userSpaceOnUse" x1="-15.9754" y1="241.9857" x2="507.7046" y2="241.9857" gradientTransform="matrix(0.9999 0 0 -0.9999 4.947186e-005 481.9732)">
	<stop  offset="0" style="stop-color:#F8DF97"/>
	<stop  offset="1" style="stop-color:#E23631"/>
</linearGradient>
<path class="st10" d="M384,48c-53.8,0-96,28.1-96,64v16.4c-31-11.2-65-11.2-96,0V64c0-35.9-42.2-64-96-64S0,28.1,0,64v352
	c0,35.9,42.2,64,96,64c24.3,0.5,48.2-6.2,68.7-19.2c16.9,12.1,43.1,19.2,75.3,19.2c40,0,70.9-11,85.9-29c18.1,8.7,38,13.2,58.1,13
	c53.8,0,96-28.1,96-64V112C480,76.1,437.8,48,384,48z M320,184c0,26-36.6,48-80,48s-80-22-80-48s36.6-48,80-48S320,158,320,184z
	 M96,16c43.4,0,80,22,80,48s-36.6,48-80,48S16,90,16,64S52.7,16,96,16z M55.8,457.2c0.1-0.4,0.2-0.8,0.2-1.2V336c0-4.4-3.6-8-8-8
	s-8,3.6-8,8v113.9c-14.7-8.8-24-20.8-24-33.9V99.8c7,6.8,15.1,12.4,24,16.4V192c0,4.4,3.6,8,8,8s8-3.6,8-8v-69.7
	c13,3.8,26.5,5.7,40,5.7c33.8,0,62.9-11.1,80-28.2V136c-19.7,11.6-32,28.7-32,48v240c0,9.2,3.2,18.2,8.9,25.5
	c-17.3,9.9-37,14.9-56.9,14.5C82.3,464,68.7,461.7,55.8,457.2z M272,461v-85c0-4.4-3.6-8-8-8c-4.4,0-8,3.6-8,8v87.3
	c-5.3,0.5-10.7,0.7-16,0.7s-10.7-0.3-16-0.7V400c0-4.4-3.6-8-8-8s-8,3.6-8,8v61c-26.4-5.2-48-17.2-48-37V219.8
	c13.4,12.5,30,21,48,24.6V368c0,4.4,3.6,8,8,8s8-3.6,8-8V247.1c10.6,1.2,21.4,1.2,32,0V344c0,4.4,3.6,8,8,8c4.4,0,8-3.6,8-8v-99.6
	c5.4-1.2,10.8-2.8,16-4.8V296c0,4.4,3.6,8,8,8c4.4,0,8-3.6,8-8v-64c5.8-3.4,11.2-7.5,16-12.2V424C320,443.8,298.5,455.8,272,461z
	 M464,400c-0.7,11.4-6.6,21.8-16,28.3V344c0-4.4-3.6-8-8-8c-4.4,0-8,3.6-8,8v94c-5.2,2.4-10.5,4.3-16,5.8V400c0-4.4-3.6-8-8-8
	c-4.4,0-8,3.6-8,8v47c-5.3,0.7-10.6,1-16,1c-17.3,0.2-34.5-3.6-50.1-11.1c1.4-4.2,2.1-8.5,2.1-12.9V184c0-6.1-1.3-12.2-3.7-17.9
	c16.4,6.7,34,10,51.7,9.9c5.3,0,10.7-0.3,16-0.9V368c0,4.4,3.6,8,8,8c4.4,0,8-3.6,8-8V172.4c5.4-1.2,10.8-2.8,16-4.8V312
	c0,4.4,3.6,8,8,8c4.4,0,8-3.6,8-8V160c5.8-3.4,11.2-7.5,16-12.2V400z M384,160c-43.4,0-80-22-80-48s36.6-48,80-48s80,22,80,48
	S427.4,160,384,160z"/>
<linearGradient id="SVGID_12_" gradientUnits="userSpaceOnUse" x1="-396.25" y1="17.913" x2="-336.568" y2="17.913" gradientTransform="matrix(8 0 0 8 3234 66)">
	<stop  offset="0" style="stop-color:#F8DF97"/>
	<stop  offset="1" style="stop-color:#E23631"/>
</linearGradient>
<path class="st11" d="M553.8,259.6c-24.6-5-49.6-7.2-74.6-6.6c14.4-36.4,17.4-80.4,8.7-131c-0.8-4.4-4.9-7.3-9.2-6.5
	c-0.2,0-0.4,0.1-0.6,0.1c-27,7.6-52.8,19.2-76.4,34.4c-15.4-41.9-41.7-78.9-76.2-107.2c-3.2-2.5-7.8-2.2-10.6,0.7
	c-35.5,36.1-59.2,73.2-70.8,110.4c-25.2-17.1-52.9-30.1-82.2-38.3c-4.3-1.1-8.6,1.6-9.7,5.8c0,0.2-0.1,0.4-0.1,0.6
	c-8.7,50.6-5.7,94.5,8.7,131c-25-0.6-50.1,1.6-74.6,6.6c-2.3,0.5-4.2,2-5.3,4.1c-1.1,2.1-1.2,4.5-0.3,6.7
	c34.8,87.1,102.5,107.1,157.6,107.1c27.8-0.2,55.4-4.8,81.8-13.6c26.4,8.8,54,13.4,81.8,13.6c55.1,0,122.8-20.1,157.6-107.1
	c0.9-2.2,0.7-4.6-0.3-6.7C558,261.6,556.1,260.1,553.8,259.6z M461.5,253.8c-29.3,1.8-57.9,9.7-84,23.2c-1.4,0.3-2.7,1.1-3.7,2.1
	l0,0c-16.2,9.3-30.3,21.9-41.5,36.9c0.3-14.8-1-29.5-4.1-44c9.6-40.6,34.3-75.2,73.6-102.9c22.1-15.2,46.2-27.2,71.7-35.5
	C480.4,180.6,476.3,221,461.5,253.8z M321.2,59.9c14.1,12.5,51.5,49.3,66.8,99.6c-30.4,21.4-54,51.1-68,85.5
	c-13-32.2-34.5-60.2-62.2-81.1C267.5,129.2,288.7,94.3,321.2,59.9z M166.5,133.5c27.7,9,53.8,22.4,77.4,39.6l0,0
	c33.8,23.7,57.9,58.7,67.9,98.8c-3.1,14.5-4.4,29.2-4.1,44c-32.4-43.5-83.9-58.5-129.2-62.1C163.7,221,159.6,180.6,166.5,133.5
	L166.5,133.5z M227.2,361.4c-59.9-3.2-102.9-32.9-127.9-88.1c36.3-6.2,167-20.9,210.2,77.2C282.8,358.9,255,362.6,227.2,361.4
	L227.2,361.4z M412.8,361.4c-27.8,1.1-55.7-2.6-82.3-11c43.1-98,173.9-83.3,210.2-77.2C515.7,328.6,472.7,358.2,412.8,361.4
	L412.8,361.4z"/>
</svg>
