<?xml version="1.0" encoding="utf-8"?>
<!-- Generator: Adobe Illustrator 19.2.1, SVG Export Plug-In . SVG Version: 6.00 Build 0)  -->
<svg version="1.1" id="Слой_1" xmlns="http://www.w3.org/2000/svg" xmlns:xlink="http://www.w3.org/1999/xlink" x="0px" y="0px"
	 viewBox="0 0 512 512" style="enable-background:new 0 0 512 512;" xml:space="preserve">
<style type="text/css">
	.st0{fill:url(#SVGID_1_);}
	.st1{fill:url(#SVGID_2_);}
	.st2{fill:url(#SVGID_3_);}
	.st3{fill:url(#SVGID_4_);}
	.st4{fill:url(#SVGID_5_);}
	.st5{fill:url(#SVGID_6_);}
</style>
<g id="Gradient_outline">
	
		<linearGradient id="SVGID_1_" gradientUnits="userSpaceOnUse" x1="-195.125" y1="502.0918" x2="-135.443" y2="502.0918" gradientTransform="matrix(8 0 0 -8 1561 4273)">
		<stop  offset="0" style="stop-color:#F8DF97"/>
		<stop  offset="1" style="stop-color:#E23631"/>
	</linearGradient>
	<path class="st0" d="M489.8,306.6c-24.6-5-49.6-7.2-74.6-6.6c14.4-36.4,17.4-80.4,8.7-131c-0.8-4.4-4.9-7.3-9.2-6.5
		c-0.2,0-0.4,0.1-0.6,0.1c-27,7.6-52.8,19.2-76.4,34.4c-15.4-41.9-41.7-78.9-76.2-107.2c-3.2-2.5-7.8-2.2-10.6,0.7
		c-35.5,36.1-59.2,73.2-70.8,110.4c-25.2-17.1-52.9-30.1-82.2-38.3c-4.3-1.1-8.6,1.6-9.7,5.8c0,0.2-0.1,0.4-0.1,0.6
		c-8.7,50.6-5.7,94.5,8.7,131c-25-0.6-50.1,1.6-74.6,6.6c-2.3,0.5-4.2,2-5.3,4.1c-1.1,2.1-1.2,4.5-0.3,6.7
		c34.8,87.1,102.5,107.1,157.6,107.1c27.8-0.2,55.4-4.8,81.8-13.6c26.4,8.8,54,13.4,81.8,13.6c55.1,0,122.8-20.1,157.6-107.1
		c0.9-2.2,0.7-4.6-0.3-6.7C494,308.6,492.1,307.1,489.8,306.6z M397.5,300.8c-29.3,1.8-57.9,9.7-84,23.2c-1.4,0.3-2.7,1.1-3.7,2.1
		l0,0c-16.2,9.3-30.3,21.9-41.5,36.9c0.3-14.8-1-29.5-4.1-44c9.6-40.6,34.3-75.2,73.6-102.9c22.1-15.2,46.2-27.2,71.7-35.5
		C416.4,227.6,412.3,268,397.5,300.8z M257.2,106.9c14.1,12.5,51.5,49.3,66.8,99.6c-30.4,21.4-54,51.1-68,85.5
		c-13-32.2-34.5-60.2-62.2-81.1C203.5,176.2,224.7,141.3,257.2,106.9z M102.5,180.5c27.7,9,53.8,22.4,77.4,39.6l0,0
		c33.8,23.7,57.9,58.7,67.9,98.8c-3.1,14.5-4.4,29.2-4.1,44c-32.4-43.5-83.9-58.5-129.2-62.1C99.7,268,95.6,227.6,102.5,180.5
		L102.5,180.5z M163.2,408.4c-59.9-3.2-102.9-32.9-127.9-88.1c36.3-6.2,167-20.9,210.2,77.2C218.8,405.9,191,409.6,163.2,408.4
		L163.2,408.4z M348.8,408.4c-27.8,1.1-55.7-2.6-82.3-11c43.1-98,173.9-83.3,210.2-77.2C451.7,375.6,408.7,405.2,348.8,408.4
		L348.8,408.4z"/>
	
		<linearGradient id="SVGID_2_" gradientUnits="userSpaceOnUse" x1="-195.125" y1="514.833" x2="-135.443" y2="514.833" gradientTransform="matrix(8 0 0 -8 1561 4273)">
		<stop  offset="0" style="stop-color:#F8DF97"/>
		<stop  offset="1" style="stop-color:#E23631"/>
	</linearGradient>
	<rect x="248" y="146.3" class="st1" width="16" height="16"/>
	
		<linearGradient id="SVGID_3_" gradientUnits="userSpaceOnUse" x1="-195.125" y1="510.833" x2="-135.443" y2="510.833" gradientTransform="matrix(8 0 0 -8 1561 4273)">
		<stop  offset="0" style="stop-color:#F8DF97"/>
		<stop  offset="1" style="stop-color:#E23631"/>
	</linearGradient>
	<rect x="248" y="178.3" class="st2" width="16" height="16"/>
	
		<linearGradient id="SVGID_4_" gradientUnits="userSpaceOnUse" x1="-195.125" y1="506.833" x2="-135.443" y2="506.833" gradientTransform="matrix(8 0 0 -8 1561 4273)">
		<stop  offset="0" style="stop-color:#F8DF97"/>
		<stop  offset="1" style="stop-color:#E23631"/>
	</linearGradient>
	<rect x="248" y="210.3" class="st3" width="16" height="16"/>
	
		<linearGradient id="SVGID_5_" gradientUnits="userSpaceOnUse" x1="-195.125" y1="504.056" x2="-135.443" y2="504.056" gradientTransform="matrix(8 0 0 -8 1561 4273)">
		<stop  offset="0" style="stop-color:#F8DF97"/>
		<stop  offset="1" style="stop-color:#E23631"/>
	</linearGradient>
	<path class="st4" d="M112,210.3c0.4,21.3,6.4,42.2,17.3,60.4l13.3-8.9c-9.2-15.7-14.2-33.4-14.7-51.6L112,210.3z"/>
	
		<linearGradient id="SVGID_6_" gradientUnits="userSpaceOnUse" x1="-195.125" y1="504.0555" x2="-135.443" y2="504.0555" gradientTransform="matrix(8 0 0 -8 1561 4273)">
		<stop  offset="0" style="stop-color:#F8DF97"/>
		<stop  offset="1" style="stop-color:#E23631"/>
	</linearGradient>
	<path class="st5" d="M400,210.3h-16c-0.4,18.2-5.5,35.9-14.7,51.6l13.3,8.9C393.6,252.5,399.6,231.7,400,210.3z"/>
</g>
</svg>
