<?xml version="1.0" encoding="utf-8"?>
<!-- Generator: Adobe Illustrator 19.2.1, SVG Export Plug-In . SVG Version: 6.00 Build 0)  -->
<svg version="1.1" id="Слой_1" xmlns="http://www.w3.org/2000/svg" xmlns:xlink="http://www.w3.org/1999/xlink" x="0px" y="0px"
	 viewBox="0 0 480 480" style="enable-background:new 0 0 480 480;" xml:space="preserve">
<style type="text/css">
	.st0{fill:url(#SVGID_1_);}
	.st1{fill:url(#SVGID_2_);}
	.st2{fill:url(#SVGID_3_);}
	.st3{fill:url(#SVGID_4_);}
	.st4{fill:url(#SVGID_5_);}
	.st5{fill:url(#SVGID_6_);}
	.st6{fill:url(#SVGID_7_);}
	.st7{display:none;fill:url(#SVGID_8_);}
</style>
<linearGradient id="SVGID_1_" gradientUnits="userSpaceOnUse" x1="-119.9801" y1="241.9979" x2="388.5079" y2="241.9979" gradientTransform="matrix(1 0 0 -1 5.874634e-004 482)">
	<stop  offset="0" style="stop-color:#F8DF97"/>
	<stop  offset="1" style="stop-color:#E23631"/>
</linearGradient>
<path class="st0" d="M12.7,465.9c9.4,9.4,24.6,9.4,33.9,0l4.1-4.1c26.6,12.6,55.8,18.8,85.3,18.2c29.5,0.7,58.7-5.6,85.3-18.2
	l4.1,4.1c9.4,9.4,24.6,9.4,33.9,0l5.7-5.7c9.4-9.4,9.4-24.6,0-33.9L253.7,415l-0.6-0.6c6.7-36.4,10.3-73.4,10.9-110.4
	c-0.3-38.5-5.1-76.8-14.2-114.1c8.6-3.8,14.1-12.3,14.2-21.6c0.1-9.4-5.3-17.9-13.8-21.9c6.3-9,7.6-20.5,3.4-30.7
	c-4.2-10.1-13.3-17.4-24.1-19.2c-5.8-16.9-20.5-29.1-38.1-31.9c0.4-2.8,0.7-5.7,0.7-8.6c0-21-11.7-40.1-30.4-49.7
	c-18.6-9.6-41.1-8-58.1,4.2C86.5,22.5,77.6,43.2,80.6,64H80c-19,0-35.4,13.4-39.2,32c-8.6-0.2-16.9,3.1-23.1,9.1
	c-6.2,6-9.7,14.3-9.7,22.9c0,8.1,3.1,15.8,8.6,21.7c-6.4,5.3-9.5,13.5-8.4,21.6s6.4,15.2,14,18.5C13.1,227.2,8.3,265.5,8,304
	c0.6,37,4.3,74,10.9,110.4l-0.6,0.6L7,426.3c-9.4,9.4-9.4,24.6,0,33.9L12.7,465.9z M24,168c0-4.4,3.6-8,8-8h208c4.4,0,8,3.6,8,8
	s-3.6,8-8,8H32C27.6,176,24,172.4,24,168z M40,112c1.9,0,3.7,0.4,5.4,1c2.5,0.9,5.3,0.5,7.5-1.1s3.4-4.1,3.3-6.8
	c0-0.3-0.1-0.9-0.1-1.2c0-7.9,4-15.3,10.5-19.7c6.5-4.5,14.8-5.4,22.2-2.6c3,1.2,6.4,0.4,8.6-1.9c2.2-2.3,2.9-5.7,1.7-8.7
	c-6.8-16.5-1.8-35.6,12.2-46.6c14-11.1,33.7-11.5,48.2-1c14.5,10.5,20.3,29.3,14.2,46.1c-0.9,2.6-0.5,5.4,1.1,7.6
	c1.6,2.1,4.3,3.3,6.9,3.1c0.6,0,1.1-0.1,2.3-0.3c15.2,0,28.3,10.8,31.4,25.7c0.8,3.7,4,6.4,7.8,6.4c0.4,0,0.8,0,1.1-0.1
	c8.6,0.4,15.4,7.5,15.3,16.2c-0.1,8.7-7.1,15.7-15.7,15.8H40c-8.8,0-16-7.2-16-16C24,119.1,31.2,112,40,112z M18.3,437.6l11.3-11.3
	c0.6-0.5,1.2-1,1.9-1.3l5.1-2.8l-1-5.7C28.6,379.4,24.7,341.7,24,304c0.4-37.8,5.2-75.3,14.2-112h195.6c9,36.7,13.8,74.2,14.2,112
	c-0.7,37.8-4.6,75.4-11.6,112.6l-1,5.7l5.1,2.8c0.7,0.3,1.3,0.8,1.9,1.3l11.3,11.3c3.1,3.1,3.1,8.2,0,11.3l-5.7,5.7
	c-3.1,3.1-8.2,3.1-11.3,0L224.2,442l-5.3,2.9c-25.6,13.3-54.1,19.8-82.9,19c-28.8,0.8-57.3-5.7-82.9-19l-5.3-2.9l-12.5,12.5
	c-3.1,3.1-8.2,3.1-11.3,0l-5.7-5.7C15.2,445.8,15.2,440.7,18.3,437.6z"/>
<linearGradient id="SVGID_2_" gradientUnits="userSpaceOnUse" x1="-119.9801" y1="150.043" x2="388.5079" y2="150.043" gradientTransform="matrix(1 0 0 -1 5.874634e-004 482)">
	<stop  offset="0" style="stop-color:#F8DF97"/>
	<stop  offset="1" style="stop-color:#E23631"/>
</linearGradient>
<path class="st1" d="M120,408h8v16c0,4.4,3.6,8,8,8s8-3.6,8-8v-16h8c22.1,0,40-17.9,40-40v-8h-24c-8.7,0-17.1,2.9-24,8.2V344h8
	c22.1,0,40-17.9,40-40v-8h-24c-8.7,0-17.1,2.9-24,8.2V280h8c22.1,0,40-17.9,40-40v-8h-24c-12.6,0-24.5,6.1-32,16.2
	c-7.5-10.2-19.4-16.2-32-16.2H80v8c0,22.1,17.9,40,40,40h8v24.2c-6.9-5.3-15.3-8.2-24-8.2H80v8c0,22.1,17.9,40,40,40h8v24.2
	c-6.9-5.3-15.3-8.2-24-8.2H80v8C80,390,97.9,407.9,120,408z M120,264c-10.2,0-19.2-6.4-22.6-16h6.6c10.2,0,19.2,6.4,22.6,16H120z
	 M168,248h6.6c-3.4,9.6-12.5,16-22.6,16h-6.6C148.8,254.4,157.9,248,168,248z M120,328c-10.2,0-19.2-6.4-22.6-16h6.6
	c10.2,0,19.2,6.4,22.6,16H120z M168,312h6.6c-3.4,9.6-12.5,16-22.6,16h-6.6C148.8,318.4,157.9,312,168,312z M168,376h6.6
	c-3.4,9.6-12.5,16-22.6,16h-6.6C148.8,382.4,157.9,376,168,376z M104,376c10.2,0,19.2,6.4,22.6,16H120c-10.2,0-19.2-6.4-22.6-16H104
	z"/>
<linearGradient id="SVGID_3_" gradientUnits="userSpaceOnUse" x1="-119.9805" y1="434.043" x2="388.5075" y2="434.043" gradientTransform="matrix(1 0 0 -1 5.874634e-004 482)">
	<stop  offset="0" style="stop-color:#F8DF97"/>
	<stop  offset="1" style="stop-color:#E23631"/>
</linearGradient>
<path class="st2" d="M128,56h8c4.4,0,8-3.6,8-8s-3.6-8-8-8h-8c-4.4,0-8,3.6-8,8S123.6,56,128,56z"/>
<linearGradient id="SVGID_4_" gradientUnits="userSpaceOnUse" x1="-119.9801" y1="402.043" x2="388.5079" y2="402.043" gradientTransform="matrix(1 0 0 -1 5.874634e-004 482)">
	<stop  offset="0" style="stop-color:#F8DF97"/>
	<stop  offset="1" style="stop-color:#E23631"/>
</linearGradient>
<path class="st3" d="M136,80c0,4.4,3.6,8,8,8h8c4.4,0,8-3.6,8-8s-3.6-8-8-8h-8C139.6,72,136,75.5,136,80z"/>
<linearGradient id="SVGID_5_" gradientUnits="userSpaceOnUse" x1="-119.9801" y1="378.043" x2="388.5079" y2="378.043" gradientTransform="matrix(1 0 0 -1 5.874634e-004 482)">
	<stop  offset="0" style="stop-color:#F8DF97"/>
	<stop  offset="1" style="stop-color:#E23631"/>
</linearGradient>
<path class="st4" d="M120,112h8c4.4,0,8-3.6,8-8s-3.6-8-8-8h-8c-4.4,0-8,3.6-8,8S115.6,112,120,112z"/>
<g>
	
		<linearGradient id="SVGID_6_" gradientUnits="userSpaceOnUse" x1="-119.9801" y1="362.043" x2="388.5079" y2="362.043" gradientTransform="matrix(1 0 0 -1 5.874634e-004 482)">
		<stop  offset="0" style="stop-color:#F8DF97"/>
		<stop  offset="1" style="stop-color:#E23631"/>
	</linearGradient>
	<path class="st5" d="M168,128h8c4.4,0,8-3.6,8-8s-3.6-8-8-8h-8c-4.4,0-8,3.6-8,8S163.6,128,168,128z"/>
	
		<linearGradient id="SVGID_7_" gradientUnits="userSpaceOnUse" x1="-119.9805" y1="362.043" x2="388.5075" y2="362.043" gradientTransform="matrix(1 0 0 -1 5.874634e-004 482)">
		<stop  offset="0" style="stop-color:#F8DF97"/>
		<stop  offset="1" style="stop-color:#E23631"/>
	</linearGradient>
	<path class="st6" d="M80,128h8c4.4,0,8-3.6,8-8s-3.6-8-8-8h-8c-4.4,0-8,3.6-8,8S75.6,128,80,128z"/>
</g>
<linearGradient id="SVGID_8_" gradientUnits="userSpaceOnUse" x1="-406" y1="48.038" x2="-346.318" y2="48.038" gradientTransform="matrix(8 0 0 8 3234 66)">
	<stop  offset="0" style="stop-color:#F8DF97"/>
	<stop  offset="1" style="stop-color:#E23631"/>
</linearGradient>
<path class="st7" d="M475.8,500.6c-24.6-5-49.6-7.2-74.6-6.6c14.4-36.4,17.4-80.4,8.7-131c-0.8-4.4-4.9-7.3-9.2-6.5
	c-0.2,0-0.4,0.1-0.6,0.1c-27,7.6-52.8,19.2-76.4,34.4c-15.4-41.9-41.7-78.9-76.2-107.2c-3.2-2.5-7.8-2.2-10.6,0.7
	c-35.5,36.1-59.2,73.2-70.8,110.4c-25.2-17.1-52.9-30.1-82.2-38.3c-4.3-1.1-8.6,1.6-9.7,5.8c0,0.2-0.1,0.4-0.1,0.6
	c-8.7,50.6-5.7,94.5,8.7,131c-25-0.6-50.1,1.6-74.6,6.6c-2.3,0.5-4.2,2-5.3,4.1c-1.1,2.1-1.2,4.5-0.3,6.7
	c34.8,87.1,102.5,107.1,157.6,107.1c27.8-0.2,55.4-4.8,81.8-13.6c26.4,8.8,54,13.4,81.8,13.6c55.1,0,122.8-20.1,157.6-107.1
	c0.9-2.2,0.7-4.6-0.3-6.7C480,502.6,478.1,501.1,475.8,500.6z M383.5,494.8c-29.3,1.8-57.9,9.7-84,23.2c-1.4,0.3-2.7,1.1-3.7,2.1
	l0,0c-16.2,9.3-30.3,21.9-41.5,36.9c0.3-14.8-1-29.5-4.1-44c9.6-40.6,34.3-75.2,73.6-102.9c22.1-15.2,46.2-27.2,71.7-35.5
	C402.4,421.6,398.3,462,383.5,494.8z M243.2,300.9c14.1,12.5,51.5,49.3,66.8,99.6c-30.4,21.4-54,51.1-68,85.5
	c-13-32.2-34.5-60.2-62.2-81.1C189.5,370.2,210.7,335.3,243.2,300.9z M88.5,374.5c27.7,9,53.8,22.4,77.4,39.6l0,0
	c33.8,23.7,57.9,58.7,67.9,98.8c-3.1,14.5-4.4,29.2-4.1,44c-32.4-43.5-83.9-58.5-129.2-62.1C85.7,462,81.6,421.6,88.5,374.5
	L88.5,374.5z M149.2,602.4c-59.9-3.2-102.9-32.9-127.9-88.1c36.3-6.2,167-20.9,210.2,77.2C204.8,599.9,177,603.6,149.2,602.4
	L149.2,602.4z M334.8,602.4c-27.8,1.1-55.7-2.6-82.3-11c43.1-98,173.9-83.3,210.2-77.2C437.7,569.6,394.7,599.2,334.8,602.4
	L334.8,602.4z"/>
</svg>
