<svg width="151" height="42" viewBox="0 0 151 42" fill="none" xmlns="http://www.w3.org/2000/svg">
<path d="M149.969 32.7263C143.977 36.2513 137.338 38.7622 131.071 41.6014C130.276 42.001 129.286 41.1244 129.243 40.4245C129.112 36.3346 128.733 32.0254 129.783 28.0976L129.659 27.988C115.549 13.5065 89.5515 13.4462 70.8299 13.6462C49.2942 13.7831 26.7904 17.2573 8.54374 29.1373C6.5431 30.898 4.43289 32.7825 2.57016 34.8861C1.69358 35.876 0.332427 34.6707 1.08527 33.5712C1.41398 33.2 1.7427 32.8287 2.07142 32.4575C1.57646 32.0192 1.53395 31.3193 2.08181 30.7006C3.41085 29.449 4.98737 28.4166 6.44015 27.2746C37.1242 -5.38259 99.1327 -8.09436 133.663 18.7292C134.302 15.7632 135.175 12.7834 135.691 9.70762C135.839 8.29359 137.596 8.30416 138.353 9.19491C143.773 15.5395 146.712 23.4403 150.431 30.7077C150.817 31.2696 150.873 32.2028 149.969 32.7263ZM137.77 13.0938C137.088 15.36 136.159 17.4068 135.6 19.7824C135.3 20.6206 134.49 20.7865 134.01 20.5815C133.681 20.9527 133.214 20.9813 132.733 20.7761C98.7765 -0.462083 56.9105 -1.5494 23.7855 17.9083C39.1341 12.2928 56.3709 10.7777 72.1692 10.6379C83.7538 10.5197 95.1614 11.3492 106.421 13.5927C115.195 15.4016 125.235 18.7728 130.055 26.7931C130.56 25.4745 132.483 26.2944 132.321 27.4751C132.067 31.0032 131.922 34.4075 132.011 37.7976C137.14 35.4955 142.393 33.3035 147.26 30.5489C144.216 24.7623 141.61 18.4808 137.77 13.0938Z" fill="#FFBC33"/>
</svg>
