<svg width="46" height="42" viewBox="0 0 46 42" fill="none" xmlns="http://www.w3.org/2000/svg">
<g filter="url(#filter0_d)">
<path d="M6.93383 13.367C6.46145 14.2319 6.06287 15.1337 5.76025 16.0726C5.57572 16.5309 5.50191 17.0188 5.37643 17.4919C5.24357 17.9576 5.19929 18.475 5.12548 18.9777L5.07381 19.3547L5.05167 19.5395L5.04429 19.7095L5.02214 20.397L5 20.9071V21.1436L5.04429 21.8755L5.09595 22.6073C5.12548 22.8512 5.16976 23.0878 5.21405 23.3317L5.33215 24.0562C5.36905 24.3001 5.45024 24.5293 5.50929 24.7658C5.82668 26.4882 6.4393 28.1884 7.38408 29.7112C8.32147 31.2341 9.53934 32.6016 10.9639 33.7178C12.3884 34.8341 14.0196 35.7064 15.7616 36.2682L17.0901 36.623C17.5404 36.7265 18.0275 36.7856 18.4999 36.8595L18.8542 36.9113L19.1642 36.9335L19.7842 36.9704L20.2492 36.9926L20.3304 37H20.4928L21.1792 36.9704C24.8402 36.8152 28.4274 35.2998 31.1141 32.816C32.4648 31.5815 33.5941 30.1104 34.4503 28.4915C34.8858 27.6784 35.2327 26.8505 35.528 25.956L35.7346 25.2685L35.838 24.9211C35.8675 24.8102 35.8823 24.7141 35.9044 24.6106L36.1037 23.7014L36.148 23.4796L36.1775 23.3096C36.2882 22.659 36.0816 21.6241 35.897 21.3137C35.7199 21.0106 35.5501 21.0623 35.4025 21.3211C35.2475 21.5872 35.0999 22.0603 34.9301 22.6147C34.3249 24.4332 33.5277 26.3034 32.3172 27.9815C31.1141 29.6595 29.5862 31.1897 27.7705 32.3059C25.6152 33.6957 23.0614 34.361 20.5297 34.3388H20.4485L20.3378 34.3314L20.0795 34.3166L19.0461 34.2427C18.8837 34.2205 18.7435 34.1909 18.5959 34.1614C18.3006 34.1022 18.0054 34.0579 17.7101 33.9987L16.8023 33.7474C15.6139 33.3556 14.4477 32.8677 13.4144 32.1507C12.381 31.4484 11.4067 30.6501 10.6096 29.6817C9.81244 28.7281 9.0891 27.6932 8.59457 26.54C8.09266 25.3868 7.69408 24.1892 7.5317 22.9473L7.45051 22.4816C7.42836 22.3264 7.42836 22.1712 7.4136 22.0159L7.36193 21.188L7.35455 21.1289V21.0771L7.38408 20.0939C7.39146 19.9239 7.38408 19.7317 7.40622 19.5839L7.46527 19.1403C7.52432 18.8447 7.54646 18.5638 7.63503 18.2607L7.88599 17.3662C7.9598 17.0631 8.10742 16.7822 8.20337 16.4939L8.37313 16.0578C8.43218 15.9099 8.51337 15.7769 8.57242 15.6364C9.42124 13.8697 10.6613 12.2951 12.167 11.0532C13.6949 9.83351 15.4737 8.95384 17.3632 8.48813C21.1497 7.53453 25.32 8.34767 28.516 10.6836C29.6674 11.5042 30.6048 12.3912 31.2617 12.7978C29.852 14.2836 28.4496 15.7917 27.0398 17.2775C24.8181 18.9408 22.7735 20.8258 20.7807 22.7847C19.1568 21.1658 17.5182 19.5543 15.9535 17.8763C15.7689 17.6767 15.2892 17.5584 15.0677 17.5954C14.6249 17.6619 14.6544 18.1202 14.8463 18.6451C15.4958 20.3822 16.6989 22.0751 18.1087 23.6126L19.9687 25.6603C20.3747 26.1112 21.0685 26.1408 21.5114 25.7342L21.5852 25.6603C24.6262 22.903 27.6598 20.1383 30.4424 17.0853L31.8301 15.8212C34.7234 13.1157 37.5578 10.3436 40.1411 7.34233C40.8718 6.49222 41.2926 5.59037 40.7611 5.1764C40.274 4.7994 39.3956 5.03595 38.5321 5.79735C36.9747 7.16491 35.4025 8.53987 33.9411 10.0109C33.3284 10.6319 32.7232 11.2602 32.1179 11.8886C32.0663 11.7259 31.9925 11.5559 31.8965 11.3711C31.5348 10.6319 30.841 9.70045 29.7929 8.84295C27.9181 7.31276 25.6521 6.21132 23.2385 5.71604L22.3381 5.58298L21.3859 5.47948L20.5297 5.43513H20.3821L20.264 5.44252L19.5702 5.4647C19.2602 5.48688 18.9502 5.47209 18.6475 5.52384L17.2747 5.72343L16.8244 5.83431L15.9313 6.06347C12.1227 7.21666 8.83076 9.90744 6.93383 13.367Z" fill="#FFBC33"/>
</g>
<defs>
<filter id="filter0_d" x="0" y="0" width="46" height="42" filterUnits="userSpaceOnUse" color-interpolation-filters="sRGB">
<feFlood flood-opacity="0" result="BackgroundImageFix"/>
<feColorMatrix in="SourceAlpha" type="matrix" values="0 0 0 0 0 0 0 0 0 0 0 0 0 0 0 0 0 0 127 0"/>
<feOffset/>
<feGaussianBlur stdDeviation="2.5"/>
<feColorMatrix type="matrix" values="0 0 0 0 1 0 0 0 0 0.817342 0 0 0 0 0.445833 0 0 0 1 0"/>
<feBlend mode="normal" in2="BackgroundImageFix" result="effect1_dropShadow"/>
<feBlend mode="normal" in="SourceGraphic" in2="effect1_dropShadow" result="shape"/>
</filter>
</defs>
</svg>
