<svg width="32" height="32" viewBox="0 0 32 32" fill="none" xmlns="http://www.w3.org/2000/svg">
<circle cx="16" cy="16" r="16" fill="#EB5757"/>
<path d="M13.6785 17.5697L13.1481 9.97675C13.0486 8.49717 13 7.43516 13 6.7907C13 5.91358 13.2403 5.22887 13.7194 4.73838C14.1996 4.2457 14.8322 4 15.6149 4C16.5648 4 17.2003 4.31461 17.5197 4.94345C17.8391 5.5729 17.9999 6.4792 17.9999 7.66175C17.9999 8.35958 17.9608 9.0687 17.8844 9.78608L17.1722 17.6012C17.0951 18.5319 16.9298 19.2448 16.675 19.742C16.4211 20.2381 16.0013 20.4861 15.417 20.4861C14.8203 20.4861 14.407 20.2467 14.1753 19.765C13.9434 19.2851 13.7772 18.5524 13.6785 17.5697ZM15.5163 28C14.8432 28 14.2545 27.7924 13.7532 27.3745C13.2507 26.9578 13 26.374 13 25.6231C13 24.9676 13.2403 24.4099 13.7194 23.9501C14.1996 23.4903 14.7877 23.2608 15.4831 23.2608C16.1788 23.2608 16.7713 23.4903 17.2628 23.9501C17.7541 24.4099 18 24.9678 18 25.6231C18 26.3624 17.7517 26.9433 17.2543 27.3665C16.758 27.7889 16.1788 28 15.5163 28Z" fill="white"/>
</svg>
