<svg width="25" height="22" viewBox="0 0 25 22" fill="none" xmlns="http://www.w3.org/2000/svg">
<path d="M23.9083 0.168511C22.7801 -0.436633 21.5218 0.730432 20.7842 1.42203C19.0921 3.06456 17.6602 4.96644 16.0548 6.69543C14.2758 8.59731 12.627 10.4992 10.8046 12.3579C9.7633 13.3953 8.63517 14.5192 7.94094 15.8159C6.37892 14.303 5.03384 12.6604 3.29827 11.3205C2.03997 10.3696 -0.0427222 9.678 0.000667293 11.9689C0.0874462 14.9515 2.7342 18.1501 4.68673 20.1816C5.51113 21.0461 6.59587 21.9538 7.85416 21.997C9.37279 22.0835 10.9348 20.268 11.846 19.2739C13.4515 17.5449 14.7532 15.5997 16.2283 13.8276C18.1375 11.4934 20.09 9.20246 21.9557 6.8251C23.1273 5.35547 26.8154 1.72453 23.9083 0.168511ZM1.90973 11.796C1.86634 11.796 1.82295 11.796 1.73617 11.8392C1.56262 11.796 1.43245 11.7527 1.25889 11.6663C1.38906 11.5798 1.60601 11.623 1.90973 11.796Z" fill="white"/>
</svg>
