<?xml version="1.0" encoding="utf-8"?>
<!-- Generator: Adobe Illustrator 16.0.3, SVG Export Plug-In . SVG Version: 6.00 Build 0)  -->
<!DOCTYPE svg PUBLIC "-//W3C//DTD SVG 1.1//EN" "http://www.w3.org/Graphics/SVG/1.1/DTD/svg11.dtd">
<svg version="1.1" id="Layer_1" xmlns="http://www.w3.org/2000/svg" xmlns:xlink="http://www.w3.org/1999/xlink" x="0px" y="0px"
	 width="310px" height="60px" viewBox="0 0 310 60" enable-background="new 0 0 310 60" xml:space="preserve">
<g enable-background="new    ">
	<path fill="#FFFFFF" d="M47.796,32.429c0,5.528-0.978,10.374-2.931,14.538c-1.951,4.165-4.748,7.379-8.383,9.641
		C32.847,58.871,28.676,60,23.974,60c-4.648,0-8.8-1.117-12.449-3.355c-3.65-2.236-6.477-5.429-8.48-9.58
		C1.04,42.911,0.024,38.137,0,32.736v-2.774c0-5.527,0.996-10.393,2.988-14.597c1.991-4.201,4.802-7.428,8.442-9.677
		c3.635-2.25,7.79-3.375,12.468-3.375s8.833,1.125,12.468,3.375c3.636,2.249,6.451,5.475,8.441,9.677
		c1.992,4.204,2.988,9.057,2.988,14.56L47.796,32.429L47.796,32.429z M36.078,29.885c0-5.889-1.055-10.361-3.161-13.418
		c-2.104-3.059-5.112-4.59-9.019-4.59c-3.881,0-6.876,1.51-8.98,4.53c-2.108,3.022-3.173,7.452-3.201,13.286v2.736
		c0,5.733,1.054,10.181,3.161,13.342c2.107,3.163,5.139,4.746,9.096,4.746c3.881,0,6.862-1.522,8.943-4.571
		c2.082-3.047,3.136-7.488,3.161-13.324V29.885L36.078,29.885z"/>
	<path fill="#FFFFFF" d="M63.746,17.507l0.346,4.819c2.981-3.727,6.979-5.59,11.99-5.59c4.418,0,7.708,1.297,9.866,3.893
		c2.158,2.597,3.261,6.479,3.315,11.646V59.23H78.122V32.484c0-2.371-0.513-4.093-1.542-5.162c-1.028-1.069-2.736-1.603-5.126-1.603
		c-3.138,0-5.487,1.341-7.056,4.019V59.23H53.26V17.507H63.746z"/>
	<path fill="#FFFFFF" d="M142.137,59.23h-11.563V35.168h-22.548V59.23H96.46V3.084h11.565v22.752h22.548V3.084h11.563V59.23
		L142.137,59.23z"/>
	<path fill="#FFFFFF" d="M168.727,60c-6.117,0-11.098-1.877-14.937-5.632c-3.84-3.752-5.762-8.754-5.762-15V38.29
		c0-4.192,0.808-7.938,2.428-11.241c1.619-3.304,3.912-5.849,6.877-7.636c2.969-1.787,6.354-2.682,10.16-2.682
		c5.701,0,10.193,1.8,13.471,5.4c3.275,3.6,4.914,8.703,4.914,15.306v4.551h-26.556c0.357,2.723,1.442,4.912,3.255,6.557
		c1.813,1.643,4.105,2.469,6.881,2.469c4.29,0,7.643-1.554,10.061-4.666l5.472,6.131c-1.669,2.363-3.931,4.208-6.782,5.533
		C175.354,59.339,172.196,60,168.727,60z M167.452,25.719c-2.208,0-4.002,0.75-5.376,2.248c-1.375,1.499-2.256,3.64-2.642,6.429
		h15.497v-0.893c-0.055-2.479-0.721-4.396-2.008-5.752C171.642,26.396,169.817,25.719,167.452,25.719z"/>
	<path fill="#FFFFFF" d="M214.393,59.23c-0.514-1.003-0.885-2.251-1.117-3.74c-2.699,3.008-6.206,4.51-10.524,4.51
		c-4.085,0-7.472-1.182-10.157-3.546c-2.683-2.366-4.027-5.347-4.027-8.944c0-4.422,1.639-7.817,4.914-10.184
		c3.279-2.363,8.012-3.56,14.203-3.584h5.129v-2.391c0-1.928-0.494-3.471-1.484-4.627c-0.989-1.156-2.553-1.734-4.683-1.734
		c-1.878,0-3.348,0.449-4.413,1.35c-1.066,0.9-1.602,2.133-1.602,3.701h-11.138c0-2.417,0.746-4.652,2.236-6.709
		c1.487-2.056,3.597-3.668,6.319-4.838c2.725-1.17,5.783-1.753,9.175-1.753c5.14,0,9.22,1.29,12.239,3.874
		c3.019,2.583,4.527,6.215,4.527,10.893v18.086c0.025,3.96,0.579,6.953,1.661,8.986v0.654h-11.259V59.23z M205.182,51.479
		c1.643,0,3.158-0.365,4.547-1.098c1.39-0.734,2.416-1.718,3.084-2.951v-7.172h-4.164c-5.574,0-8.543,1.928-8.901,5.783
		l-0.041,0.654c0,1.391,0.49,2.533,1.466,3.434C202.148,51.029,203.484,51.479,205.182,51.479z"/>
	<path fill="#FFFFFF" d="M242.331,59.23h-11.179V0h11.179V59.23z"/>
	<path fill="#FFFFFF" d="M262.867,7.25v10.257h7.131v8.175h-7.131v20.822c0,1.541,0.295,2.648,0.885,3.316
		c0.592,0.666,1.721,1.002,3.395,1.002c1.231,0,2.324-0.091,3.275-0.271v8.445c-2.185,0.665-4.434,0.999-6.746,0.999
		c-7.813,0-11.797-3.945-11.949-11.838v-22.48h-6.09v-8.175h6.09V7.245h11.141V7.25L262.867,7.25z"/>
	<path fill="#FFFFFF" d="M285.1,22.057c2.955-3.549,6.669-5.321,11.139-5.321c9.049,0,13.631,5.256,13.762,15.771V59.23h-11.141
		V32.755c0-2.397-0.514-4.167-1.54-5.314c-1.028-1.146-2.736-1.72-5.128-1.72c-3.262,0-5.627,1.263-7.092,3.789V59.23h-11.14V0
		h11.14V22.057L285.1,22.057z"/>
</g>
</svg>
