<?xml version="1.0" encoding="utf-8"?>
<!-- Generator: Adobe Illustrator 23.1.0, SVG Export Plug-In . SVG Version: 6.00 Build 0)  -->
<svg version="1.1" id="Слой_1" xmlns="http://www.w3.org/2000/svg" xmlns:xlink="http://www.w3.org/1999/xlink" x="0px" y="0px"
	 viewBox="0 0 28 30" style="enable-background:new 0 0 28 30;" xml:space="preserve">
<style type="text/css">
	.st0{display:none;}
	.st1{display:inline;}
</style>
<g class="st0">
	<g class="st1">
		<path d="M27.4,30H0.6c-0.5-2-1.6-11.9,9-15.4c-1.8-2.1-2.8-5-2.8-7.3C6.8,3.3,10,0,14,0c4,0,7.2,3.3,7.2,7.3
			c0,2.3-1.1,5.2-2.8,7.3C24.8,16.4,29,23.1,27.4,30z M7.9,5.7l1.5-1c1.6-1.1,3.8-1.2,5.5-0.2c0,0,2.4,1.9,4.9,0.2
			C18.7,2.4,16.5,1,14,1C11.1,1,8.6,3,7.9,5.7L7.9,5.7z M14,16c3.5,0,6.3-5.3,6.3-8.7c0-0.6-0.1-1.1-0.2-1.7c-3,1.8-5.7-0.3-5.7-0.3
			C13,4.5,11.3,4.6,9.9,5.5L7.7,7c0,0.1,0,0.2,0,0.2C7.7,10.7,10.5,16,14,16z M22.5,17.9c-0.3,1.2-0.8,2.4-1.4,3.5
			c0.8,0.7,0.8,2,0,2.7c-0.4,0.4-0.9,0.6-1.4,0.6c-1.1,0-1.9-0.9-1.9-1.9c0-1.1,0.9-1.9,1.9-1.9c0.2,0,0.4,0,0.5,0.1
			c0.7-1.1,1.1-2.4,1.4-3.6c-1.2-0.9-2.6-1.5-4.1-1.9c-1.1,1-2.3,1.6-3.6,1.6s-2.6-0.6-3.6-1.6c-1.3,0.3-2.5,0.8-3.6,1.5
			C7,18.3,7.4,19.7,8,21c2-0.6,4.1,0.4,4.8,2.4l0.8,2.3l-1.8,0.6l-0.3-0.9l0.9-0.3l-0.5-1.4c-0.5-1.5-2.2-2.3-3.7-1.8c0,0,0,0,0,0
			c-1.5,0.5-2.3,2.2-1.8,3.7L6.9,27l0.9-0.3l0.3,0.9l-1.8,0.6L5.5,26c-0.6-1.7,0.1-3.6,1.6-4.6c-0.6-1.2-1-2.5-1.2-3.9
			c-3.4,2.6-5.3,7-4.5,11.5h25.2C27.3,24.7,25.7,20.6,22.5,17.9z M19.8,21.8c-0.5,0-1,0.4-1,1s0.4,1,1,1l0,0c0.5,0,1-0.4,1-1
			C20.7,22.2,20.3,21.8,19.8,21.8C19.8,21.8,19.8,21.8,19.8,21.8z"/>
	</g>
</g>
<image style="overflow:visible;" width="117" height="125" xlink:href="doctor.png"  transform="matrix(0.2395 0 0 0.2395 -8.000000e-02 5.641026e-02)">
</image>
</svg>
