<svg xmlns="http://www.w3.org/2000/svg" width="35" height="54" viewBox="0 0 35 54"><g><g><path fill="#81a413" d="M16.017 18.491v.22c0 1.91-1.19 2.621-2.668 2.621-1.751 0-2.702-1.025-2.702-2.108 0-.536.275-.687.744-.687.63 0 .745.257.745.582 0 .57.515.885 1.18.885.755 0 1.213-.407 1.213-1.293v-.22c0-.886-.458-1.305-1.202-1.305h-1.695c-.47 0-.596-.233-.596-.594 0-.093.012-.198.012-.303l.297-3.063c.023-.291.115-.478.287-.478h3.526c.298 0 .447.337.447.664 0 .339-.149.665-.447.665h-2.576l-.137 1.92h.881c1.512 0 2.691.664 2.691 2.494zm2.118 2.049c0 .419-.355.792-.767.792a.787.787 0 0 1-.779-.793c0-.43.333-.791.78-.791.411 0 .766.36.766.792zm6.057-1.746v.138c0 1.737-1.168 2.4-2.679 2.4s-2.69-.663-2.69-2.4v-.138c0-1.2.549-1.889 1.362-2.19-.653-.233-1.1-.816-1.1-1.795 0-1.478 1.02-2.06 2.428-2.06 1.397 0 2.416.582 2.416 2.06 0 .979-.447 1.562-1.1 1.794.825.302 1.363.99 1.363 2.19zm-3.664-3.798c0 .722.355 1.014.985 1.014.618 0 .985-.292.985-1.014s-.367-1.013-.985-1.013c-.63 0-.985.291-.985 1.013zm2.176 3.529c0-.884-.447-1.28-1.19-1.28-.757 0-1.203.396-1.203 1.28v.232c0 .921.458 1.341 1.202 1.341.756 0 1.19-.432 1.19-1.34zm7.734 9.57a.785.785 0 0 1-.778.791H11.465a.785.785 0 0 1-.778-.792c0-.436.348-.79.778-.79H29.66c.43 0 .778.354.778.79zm-21.86 0a.785.785 0 0 1-.778.791H5.34a.785.785 0 0 1-.778-.792c0-.436.348-.79.778-.79H7.8c.43 0 .778.354.778.79zm21.86-17.473v12.98c0 .852-.682 1.546-1.52 1.546H6.081c-.838 0-1.52-.694-1.52-1.545v-12.98c0-.853.682-1.547 1.52-1.547h22.837c.838 0 1.52.694 1.52 1.546zm-1.556.038H6.118v12.906h22.764zM35 13.336v17.692c0 2.896-.85 5.691-2.46 8.081a17.698 17.698 0 0 1-5.975 5.518.791.791 0 0 1-.177.1 17.389 17.389 0 0 1-4.789 1.778v6.317c0 .65-.52 1.178-1.158 1.178h-5.882a1.17 1.17 0 0 1-1.158-1.178v-6.317a17.415 17.415 0 0 1-4.79-1.777.817.817 0 0 1-.176-.1A17.705 17.705 0 0 1 2.46 39.11 14.422 14.422 0 0 1 0 31.028V9.603C0 4.308 4.235 0 9.442 0h16.116C30.764 0 35 4.308 35 9.603a.785.785 0 0 1-.778.791.785.785 0 0 1-.778-.79c0-4.423-3.538-8.022-7.886-8.022H9.442c-4.349 0-7.886 3.599-7.886 8.021v21.425c0 2.576.756 5.06 2.187 7.187a16.119 16.119 0 0 0 4.375 4.368V36.43c0-.841.673-1.526 1.5-1.526h15.764c.827 0 1.5.685 1.5 1.525v6.154a16.117 16.117 0 0 0 4.375-4.368 12.823 12.823 0 0 0 2.187-7.187V13.336c0-.437.348-.791.778-.791.43 0 .778.354.778.791zm-21.6 23.15H9.674v7.022a15.823 15.823 0 0 0 3.728 1.378zm6.643 8.157h-5.086v7.774h5.086zm0-4.777h-5.086v3.195h5.086zm0-3.38h-5.086v1.797h5.086zm5.283 7.022v-7.022H21.6v8.4a15.822 15.822 0 0 0 3.727-1.378z"/></g></g></svg>