<svg xmlns="http://www.w3.org/2000/svg" width="40" height="49" viewBox="0 0 40 49"><g><g><path fill="#81a413" d="M40 12.585v36.416H0V0h28.414zM29 12h7.586L29 3.414zm9 35V14H27V2H2v45zM8 12a1 1 0 0 1 1-1h9a1 1 0 1 1 0 2H9c-.553 0-1-.447-1-1zm0 7a1 1 0 0 1 1-1h5a1 1 0 1 1 0 2H9c-.553 0-1-.447-1-1zm15 0a1 1 0 0 1 1-1h7a1 1 0 1 1 0 2h-7c-.553 0-1-.447-1-1zm-3.29-.71c.18.189.29.449.29.71 0 .26-.11.519-.29.7a.98.98 0 0 1-.71.3c-.26 0-.521-.11-.71-.29A1.01 1.01 0 0 1 18 19c0-.261.1-.52.29-.7.37-.38 1.04-.38 1.42-.01zM22 26c0 .553-.447 1-1 1h-7a1 1 0 1 1 0-2h7a1 1 0 0 1 1 1zm-13.71.71C8.109 26.52 8 26.26 8 26c0-.271.1-.521.29-.71.38-.37 1.04-.37 1.42 0a1.012 1.012 0 0 1 0 1.42c-.19.18-.45.29-.71.29-.26 0-.521-.11-.71-.29zm4.864 8.184c-2.173 1.132-2.275 3.708-2.348 5.872-.03.911-1.049 1.26-1.707.708-.935-.785-1.871-1.568-2.806-2.35-.988-.83.434-2.238 1.414-1.417.414.35.828.693 1.242 1.04.269-2.26 1.006-4.44 3.196-5.581 1.141-.594 2.151 1.133 1.009 1.728zm8.329 3.356c.629 1.125-1.1 2.133-1.727 1.009-.33-.591-1.858.558-2.267.717-.557.217-1.094.301-1.688.226-1.169-.148-2.152-.883-2.669-1.932-.568-1.15 1.158-2.163 1.727-1.008.975 1.975 2.551.214 3.936-.107 1.064-.247 2.15.133 2.688 1.095z"/></g></g></svg>