<svg width="1920" height="687" viewBox="0 0 1920 687" fill="none" xmlns="http://www.w3.org/2000/svg">
<path opacity="0.5" d="M2317.8 47.4536C2317.8 47.4536 2119.9 130.187 1985.94 135.116C1811.89 141.521 1723.31 -17.6941 1554.12 23.6255C1369.69 68.6634 1395.85 333.626 1208.74 365.719C1041.63 394.383 972.843 199.005 803.618 209.575C643.1 219.6 595.894 376.01 436.282 395.776C262.305 417.32 157.954 202.429 1.94194 282.381C-135.349 352.738 -177.286 634.413 -177.286 634.413" stroke="#999999"/>
<path opacity="0.5" d="M2292.22 5.02002C2292.22 5.02002 2097.62 95.2504 1963.95 105.291C1790.27 118.337 1695.68 -37.3799 1528.18 10.3703C1345.61 62.4174 1381.87 326.188 1196.12 365.402C1030.22 400.426 954.028 207.817 785.331 224.841C625.312 240.989 584.113 399.087 425.372 424.933C252.345 453.104 139.865 242.355 -12.981 328.206C-147.485 403.754 -178.636 686.825 -178.636 686.825" stroke="#999999"/>
</svg>