<svg width="914" height="797" viewBox="0 0 914 797" fill="none" xmlns="http://www.w3.org/2000/svg">
<path opacity="0.3" d="M41.485 449.281C-19.5917 381.76 66.5622 357.138 97.5831 273.719C117.535 220.066 130.901 130.172 184.499 106.052C249.122 76.9712 266.412 100.761 333.676 116.667C472.211 149.425 510.087 -60.5279 609.704 38.8305C662.135 91.1262 599.131 130.027 648.102 185.358C711.252 256.707 882.298 148.171 889.117 241.249C893.47 300.677 805.85 330.605 789.08 387.645C763.439 474.86 913.671 530.718 838.438 584.451C799.128 612.526 762.926 600.724 716.973 617.128C628.081 648.86 651.518 774.704 556.391 777.273C477.839 779.393 465.401 675.687 389.277 655.649C324.597 638.623 266.981 710.874 214.206 670.584C158.252 627.869 238.686 547.253 189.067 497.749C149.36 458.133 79.0435 490.803 41.485 449.281Z" stroke="#999999"/>
<path opacity="0.3" d="M20.6093 428.81C-39.144 355.593 51.754 334.476 88.5951 249.501C112.29 194.848 127.194 84.7055 185.995 67.6327C254.468 47.7519 273.599 78.6994 342.63 98.6693C484.803 139.798 535.747 -76.139 633.799 32.1028C685.407 89.0741 617.781 126.201 665.625 186.144C727.321 263.441 911.077 159.609 913.03 256.557C914.277 318.454 821.562 345.002 800.987 403.334C769.528 492.525 922.583 558.228 841.43 610.118C799.027 637.231 762.053 623.119 713.389 637.777C619.253 666.131 636.671 797.938 537.663 795.706C455.907 793.862 448.699 685.597 370.689 660.882C304.405 639.883 240.541 711.898 187.913 667.368C132.116 620.158 220.157 540.637 171.319 486.708C132.236 443.551 57.3538 473.834 20.6093 428.81Z" stroke="#999999"/>
</svg>
