<svg width="1920" height="287" viewBox="0 0 1920 287" fill="none" xmlns="http://www.w3.org/2000/svg">
<path opacity="0.5" d="M-49.9834 244.59C-49.9834 244.59 114.709 271.485 216.966 251.043C349.832 224.482 388.133 88.0144 523.625 88.751C671.311 89.5538 699.33 294.78 846.713 285.302C978.347 276.837 995.142 116.576 1125.11 94.0378C1248.39 72.6592 1312.33 182.502 1436.68 168.657C1572.23 153.566 1612.41 -27.8794 1744.9 4.47016C1861.49 32.9378 1944.05 238.523 1944.05 238.523" stroke="#999999"/>
<path opacity="0.5" d="M-38.2817 207.862C-38.2817 207.862 125.263 241.027 228.227 224.504C362.01 203.036 405.494 68.1303 540.859 74.0401C688.406 80.4816 708.569 286.628 856.207 282.785C988.067 279.353 1010.97 119.849 1141.7 102.29C1265.71 85.6347 1325.41 197.839 1450.2 188.752C1586.22 178.848 1633.31 -0.930376 1764.46 36.4545C1879.88 69.3532 1954.53 277.942 1954.53 277.942" stroke="#999999"/>
</svg>