<svg width="34" height="46" viewBox="0 0 34 46" fill="none" xmlns="http://www.w3.org/2000/svg">
<path fill-rule="evenodd" clip-rule="evenodd" d="M16.9964 0.912598C12.1564 0.912598 7.77514 1.42172 4.6711 2.21942C3.12076 2.62025 1.86922 3.07211 1.1261 3.56819C0.388561 4.06087 0.420338 4.59608 1.1261 5.00541C2.34809 5.71183 3.57956 6.16936 4.69173 6.35192C8.85553 5.16813 11.6111 4.61649 16.9964 4.61649C22.9107 4.61649 25.6752 5.07742 29.3044 6.35192C30.5392 6.06391 31.8426 5.65344 32.8733 5.00541C33.6683 4.50366 33.4916 3.95769 32.8733 3.56819C32.1207 3.09309 30.8809 2.62025 29.3283 2.21942C26.2237 1.42172 21.837 0.912598 16.9964 0.912598Z" fill="#F9CA5D"/>
<path fill-rule="evenodd" clip-rule="evenodd" d="M4.4247 11.8598C8.52996 12.6626 13.2685 13.0533 16.9964 13.0646C21.8024 13.0646 25.9656 12.5617 29.5775 11.8598L28.4592 19.4661C25.1121 20.0562 21.3163 20.4639 16.9964 20.4639C14.073 20.4639 11.4105 20.2666 8.94529 19.9621L11.4394 41.5029C10.4036 41.2347 9.43308 40.8151 8.59686 40.2607L4.4247 11.8598ZM0 6.88996L5.09813 41.5306C5.09813 42.2183 5.74871 43.0331 7.7088 44.0434C9.67112 45.0531 12.764 45.8916 17.0086 45.9126C21.2449 45.8882 24.3339 45.0531 26.2906 44.0434C28.2507 43.0336 28.9041 41.9326 28.9041 41.5306L34 6.88996C32.9893 7.36506 31.7417 7.76136 30.2459 8.10153C26.803 8.87995 22.1452 9.34939 16.9975 9.34939C11.8525 9.34939 7.20149 8.87995 3.7574 8.10153C2.2589 7.76136 1.01015 7.36506 0 6.88996Z" fill="#F9CA5D"/>
</svg>
