<?xml version="1.0" encoding="utf-8"?>
<!-- Generator: Adobe Illustrator 19.0.0, SVG Export Plug-In . SVG Version: 6.00 Build 0)  -->
<svg version="1.1" id="Layer_1" xmlns="http://www.w3.org/2000/svg" xmlns:xlink="http://www.w3.org/1999/xlink" x="0px" y="0px"
	 viewBox="0 0 20 20" style="enable-background:new 0 0 20 20;" xml:space="preserve">
<style type="text/css">
	.st0{fill:#E34947;}
	.st1{fill:#FFFFFF;}
</style>
<rect id="XMLID_73_" class="st0" width="20" height="20"/>
<path class="st1" d="M3.4,19.2c-0.2,0-0.5-0.1-0.7-0.2C2,18.4,1.9,17.8,2,17.4c0.1-1.1,1.5-2.3,4.2-3.5c1-2.3,2-5.1,2.6-7.5
	C8.1,4.9,7.4,2.9,7.9,1.8C8.1,1.4,8.3,1,8.7,0.9c0.2-0.1,0.6-0.1,0.7-0.1c0.4,0,0.7,0.5,0.9,0.7c0.2,0.3,0.7,0.8-0.3,4.7
	c0.9,1.9,2.3,3.9,3.5,5.3c0.9-0.2,1.7-0.2,2.3-0.2c1.1,0,1.8,0.3,2,0.8c0.2,0.4,0.1,0.9-0.3,1.5c-0.4,0.5-0.9,0.8-1.5,0.8
	c-0.8,0-1.8-0.5-2.9-1.6c-2,0.4-4.3,1.2-6.2,2c-0.6,1.2-1.1,2.2-1.7,3C4.6,18.7,4,19.2,3.4,19.2L3.4,19.2z M5.3,15.6
	c-1.5,0.8-2.1,1.5-2.1,1.9c0,0.1,0,0.2,0.3,0.5C3.5,18,4.1,17.7,5.3,15.6L5.3,15.6z M14.8,12.5c0.6,0.4,0.7,0.7,1.1,0.7
	c0.2,0,0.6,0,0.8-0.3c0.1-0.1,0.1-0.2,0.2-0.3c-0.1,0-0.2-0.1-0.8-0.1C15.7,12.5,15.2,12.5,14.8,12.5L14.8,12.5z M9.6,7.9
	c-0.5,1.7-1.2,3.6-1.9,5.3c1.5-0.6,3-1.1,4.5-1.4C11.3,10.7,10.4,9.4,9.6,7.9L9.6,7.9z M9.1,2.1c-0.1,0-0.9,1.2,0.1,2.2
	C9.9,2.8,9.2,2,9.1,2.1L9.1,2.1z M9.1,2.1"/>
</svg>
