<svg xmlns="http://www.w3.org/2000/svg" width="23" height="18" viewBox="0 0 23 18"><g><g opacity=".7"><path fill="#fff" d="M23 2.13c-.855.361-1.767.601-2.717.717a4.545 4.545 0 0 0 2.074-2.51 9.644 9.644 0 0 1-2.99 1.1 4.81 4.81 0 0 0-3.444-1.438c-2.61 0-4.712 2.042-4.712 4.544 0 .359.032.706.11 1.035C7.4 5.394 3.93 3.584 1.6.828a4.447 4.447 0 0 0-.645 2.295c0 1.573.84 2.967 2.094 3.775a4.795 4.795 0 0 1-2.13-.56v.05c0 2.207 1.634 4.04 3.778 4.462-.384.102-.802.15-1.237.15-.301 0-.606-.016-.892-.078.61 1.8 2.344 3.122 4.406 3.164a9.705 9.705 0 0 1-5.847 1.938c-.386 0-.757-.017-1.128-.063C2.089 17.26 4.564 18 7.233 18c8.677 0 13.42-6.923 13.42-12.924 0-.2-.006-.394-.016-.587A9.227 9.227 0 0 0 23 2.13z"/></g></g></svg>