<svg xmlns="http://www.w3.org/2000/svg" width="24" height="17" viewBox="0 0 24 17"><g><g><path fill="#9b9b9b" d="M23.908 8.905C22.322 12.265 18 17 11.988 17 6.644 17 2.076 13.16.068 8.905a.95.95 0 0 1 0-.81C1.652 4.732 5.974-.002 11.987-.002c5.343 0 9.912 3.838 11.92 8.095.121.256.121.554 0 .81zm-1.91-.406c-2.103-3.744-5.687-6.61-10.01-6.61-4.334 0-7.916 2.882-10.01 6.61 2.102 3.744 5.687 6.612 10.01 6.612 4.334 0 7.916-2.884 10.01-6.612zm-5.318 0c0 2.604-2.105 4.722-4.692 4.722S7.296 11.104 7.296 8.5c0-2.603 2.105-4.722 4.692-4.722S16.68 5.896 16.68 8.5zm-1.877 0c0-1.562-1.263-2.833-2.815-2.833s-2.815 1.27-2.815 2.833c0 1.563 1.263 2.834 2.815 2.834s2.815-1.271 2.815-2.834z"/></g></g></svg>