<?xml version="1.0" encoding="utf-8"?>
<!-- Generator: Adobe Illustrator 16.0.4, SVG Export Plug-In . SVG Version: 6.00 Build 0)  -->
<!DOCTYPE svg PUBLIC "-//W3C//DTD SVG 1.1//EN" "http://www.w3.org/Graphics/SVG/1.1/DTD/svg11.dtd">
<svg version="1.1" id="Capa_1" xmlns="http://www.w3.org/2000/svg" xmlns:xlink="http://www.w3.org/1999/xlink" x="0px" y="0px"
	 width="37.27px" height="20.2px" viewBox="0 0 37.27 20.2" enable-background="new 0 0 37.27 20.2" xml:space="preserve">
<path d="M13.436,18.51c1.077,1.438,2.536,1.594,3.777,1.594c2.611,0,3.77-2.202,3.77-3.388c2.364,3.184,5.806,3.484,8.12,3.484
	c5.4,0,8.167-2.915,8.167-6.433c0-2.821-2.536-5.529-7.337-6.21c-3.986-0.553-6.979-1.271-6.979-3.243
	c0-1.038,1.047-2.474,4.248-2.474c4.248,0,5.463,2.01,7.006,4.507h1.244V0.395h-1.271l-1.435,1.172C31.246,0.821,29.323,0,27.396,0
	c-5.357,0-7.937,3.127-7.937,6.403c0,3.178,2.794,5.567,8.666,6.443c3,0.453,4.942,0.798,5.311,2.074
	c0.276,0.957,0.335,3.28-4.461,3.528c-4.062,0.21-7.034-2.578-8.236-5.49h-1.809v2.925c-0.007,0.312,0.017,1.093-0.738,1.093
	c-0.791,0-0.769-0.957-0.769-1.738V6.384c0-2.015-0.438-2.946-1.44-4.216c-0.91-1.151-3.257-2.15-6.378-2.15
	c-4.242,0-8.313,2.266-8.313,5.037c0,1.62,0.967,2.845,2.846,2.845c1.805,0,2.583-0.942,2.583-2.404
	c0-1.383-0.848-1.894-0.848-2.367c0-0.671,1.385-1.353,3.114-1.353c2.557,0,3.421,1.859,3.421,3.938v2.25
	C4.072,9.45,0,11.283,0,15.353c0,2.963,2.059,4.815,5.667,4.815c2.782,0,4.108-0.71,6.89-3.415
	C12.822,17.377,13.113,17.972,13.436,18.51L13.436,18.51z M12.369,12.112c0,3.569-1.883,5.292-4.175,5.292
	c-1.556,0-2.539-1.066-2.539-2.748c0-2.872,2.047-4.185,6.714-4.923V12.112L12.369,12.112z"/>
</svg>
