<?xml version="1.0" encoding="utf-8"?>
<!-- Generator: Adobe Illustrator 16.0.3, SVG Export Plug-In . SVG Version: 6.00 Build 0)  -->
<!DOCTYPE svg PUBLIC "-//W3C//DTD SVG 1.1//EN" "http://www.w3.org/Graphics/SVG/1.1/DTD/svg11.dtd">
<svg version="1.1" id="Capa_1" xmlns="http://www.w3.org/2000/svg" xmlns:xlink="http://www.w3.org/1999/xlink" x="0px" y="0px"
	 width="226.771px" height="70.865px" viewBox="0 0 226.771 70.865" enable-background="new 0 0 226.771 70.865"
	 xml:space="preserve">
<g>
	<path fill="#212020" d="M0.677,50.271V45.63h3.37c2.052,0,3.19-0.63,3.19-4.398v-24.44c0-2.689-0.721-3.512-3.851-3.512H0.676
		V8.631h39.723v16.58h-4.46c-0.9-8.54-1.62-11.932-9.683-11.932h-10.6v13.07h3.189c3.618,0,5.238-1.891,5.238-6.979v-0.82h4.46
		v20.979h-4.46v-1.5c0-5.089-1.62-7.037-5.238-7.037h-3.189v14.64h12.04c5.54,0,7.7-3.59,8.24-12.939h4.46v17.581L0.677,50.271
		L0.677,50.271z"/>
	<path fill="#212020" d="M43.647,50.271V45.63h3.85c1.68,0,2.83-0.63,2.83-2.771V15.981c0-1.88-0.79-2.7-3.188-2.7h-3.489v-4.65
		h22.02v4.648h-3.37c-2.64,0-3.55,0.632-3.55,2.83v29.58h9.812c6.198,0,7.698-3.58,8.25-13.317h4.448v17.899H43.647L43.647,50.271z"
		/>
	<path fill="#212020" d="M93.107,50.271V45.63h3.85c1.392,0,2.59-0.5,2.59-2.141V15.41c0-1.632-1.198-2.132-2.59-2.132h-3.85V8.631
		h23.59c9.028,0,14.199,4.341,14.199,11.431c0,7.729-5.41,11.37-13.479,11.37h-9.438v12.061c0,1.64,1.5,2.14,2.881,2.14h3.85v4.642
		H93.107V50.271z M107.976,26.781h5.471c5.661,0,8.67-1.818,8.67-6.648c0-4.84-2.41-6.852-8.67-6.852h-5.471V26.781z"/>
	<path fill="#212020" d="M124.156,50.271h18.78V45.63h-4.69c-1.147,0-1.93-0.26-1.93-1.13c0-0.569,0.121-0.95,0.239-1.319
		l1.979-6.289h13.66l1.989,6.289c0.119,0.369,0.237,0.939,0.237,1.51c0,0.621-0.479,0.939-1.857,0.939h-4.761v4.641h40.729V45.63
		h-3.49c-2.04,0-2.95-1.068-2.95-3.08V16.29c0-2.38,1.87-3.012,3.79-3.012h2.65V8.631h-21.298v4.648h3.371
		c2.35,0,3.066,1.25,3.066,2.83v27.262c0,1.63-0.96,2.26-3.431,2.26h-1.5c-3.188,0-5.229-0.438-6.319-3.399L150.397,8.631h-8.433
		l-11.488,33.601c-1.021,2.961-3.13,3.399-6.319,3.399L124.156,50.271L124.156,50.271z M150.457,32.251h-10.17l4.82-15.142h0.106
		L150.457,32.251z"/>
	<path fill="#212020" d="M220.377,8.631h3.49v15.83h-4.33c-1.438-6.852-5.229-11.75-12.391-11.75c-5.603,0-7.893,1.511-7.893,5.66
		c0,9.42,26.842,2.39,26.842,19.907c0,9.99-7.462,13.25-15.892,13.25c-4.51,0-9.021-2.01-12.51-4.959l-1.32,3.699h-4.1V33.25h4.459
		c0.84,8.42,5.771,12.938,14.317,12.938c5.29,0,7.82-2.58,7.82-5.59c0-10.741-26.84-2.642-26.84-20.602
		c0-8.859,7.64-12.63,14.93-12.63c4.57,0,8.42,2.198,11.432,4.398L220.377,8.631z"/>
	<polygon fill="#016CA2" points="188.656,0.001 188.656,5.241 166.717,5.241 	"/>
</g>
<g enable-background="new    ">
	<path fill="#333333" d="M50.993,69.135c0.756-0.112,1.247-0.266,1.247-1.009v-7.298c0-0.784-0.518-0.967-1.247-1.064v-0.393h5.743
		c0.588,0,1.807-0.027,1.933-0.027l0.042,0.042l-0.014,2.605h-0.462c-0.238-1.163-0.448-1.961-1.765-1.961h-2.549v3.726h1.891
		c1.037,0,1.303-0.7,1.331-1.415h0.49v3.559h-0.476c-0.098-0.645-0.224-1.471-1.331-1.471h-1.905v4.062
		c0,0.238,0.154,0.379,0.434,0.379h2.101c1.583,0,1.947-1.191,2.157-2.256h0.49l-0.308,2.928h-7.802V69.135z"/>
	<path fill="#333333" d="M67.643,69.457l-5.477-8.881h-0.028v7.508c0,0.742,0.434,0.938,1.247,1.051v0.406h-3.334v-0.406
		c0.756-0.126,1.247-0.266,1.247-1.022v-7.284c0-0.813-0.63-0.938-1.247-1.064v-0.393h3.306l4.412,7.061h0.056v-5.617
		c0-0.742-0.434-0.938-1.247-1.051v-0.393h3.333v0.393c-0.742,0.126-1.247,0.267-1.247,1.022v8.797h-1.022V69.457z"/>
	<path fill="#333333" d="M70.817,64.597c0-2.83,1.779-5.352,5.183-5.352c1.022,0,1.919,0.112,2.83,0.322l-0.014,2.382h-0.448
		c-0.322-1.64-1.079-2.045-2.549-2.045c-2.129,0-3.236,2.213-3.236,4.412c0,1.429,0.322,2.703,1.148,3.529
		c0.588,0.715,1.485,1.163,2.774,1.163c0.238,0,0.644-0.042,0.742-0.056v-2.62c0-0.672-0.448-0.854-1.303-0.938v-0.406h3.922v0.406
		c-0.645,0.099-0.967,0.196-0.967,0.883v2.997c-0.616,0.169-1.429,0.406-2.928,0.406C72.624,69.681,70.817,67.804,70.817,64.597z"/>
	<path fill="#333333" d="M80.77,69.135c0.756-0.112,1.247-0.266,1.247-1.009v-7.298c0-0.784-0.518-0.967-1.247-1.064v-0.393h4.174
		v0.393c-0.658,0.112-1.247,0.238-1.247,1.037v7.689c0,0.238,0.154,0.379,0.434,0.379h2.101c1.583,0,1.947-1.191,2.157-2.256h0.49
		l-0.308,2.928H80.77V69.135z"/>
	<path fill="#333333" d="M89.66,69.135c0.756-0.112,1.247-0.266,1.247-1.009v-7.298c0-0.784-0.519-0.967-1.247-1.064v-0.393h4.174
		v0.393c-0.658,0.112-1.247,0.238-1.247,1.037v7.298c0,0.742,0.434,0.924,1.247,1.036v0.406H89.66V69.135z"/>
	<path fill="#333333" d="M94.938,69.429v-2.857l0.532-0.014c0.378,1.835,0.882,2.381,2.381,2.381c0.995,0,1.835-0.546,1.835-1.807
		c0-1.079-0.826-1.583-1.723-2.045l-0.519-0.267c-1.106-0.561-2.451-1.204-2.451-2.787c0-1.527,1.064-2.788,3.138-2.788
		c0.98,0,1.737,0.126,2.521,0.337l-0.014,2.367h-0.448c-0.266-1.457-0.953-1.989-2.129-1.989c-1.121,0-1.639,0.687-1.639,1.541
		c0,0.924,0.995,1.414,1.709,1.765l0.7,0.351c1.247,0.63,2.367,1.414,2.367,2.941c0,1.736-1.261,3.109-3.432,3.109
		C96.661,69.667,96.003,69.555,94.938,69.429z"/>
	<path fill="#333333" d="M102.218,69.135c0.756-0.112,1.247-0.266,1.247-1.009v-7.298c0-0.784-0.519-0.967-1.247-1.064v-0.393h4.174
		v0.393c-0.658,0.112-1.247,0.238-1.247,1.037v2.941h4.497v-2.914c0-0.784-0.532-0.967-1.247-1.064v-0.393h4.174v0.393
		c-0.658,0.112-1.247,0.238-1.247,1.037v7.298c0,0.742,0.434,0.924,1.247,1.036v0.406h-4.174v-0.406
		c0.742-0.112,1.247-0.266,1.247-1.009v-3.67h-4.497v3.643c0,0.742,0.434,0.924,1.247,1.036v0.406h-4.174V69.135z"/>
	<path fill="#333333" d="M117.141,69.135c0.757-0.112,1.248-0.266,1.248-1.009v-7.298c0-0.784-0.52-0.967-1.248-1.064v-0.393h5.744
		c0.588,0,1.807-0.027,1.933-0.027l0.042,0.042l-0.014,2.605h-0.463c-0.238-1.163-0.447-1.961-1.765-1.961h-2.55v3.726h1.892
		c1.036,0,1.303-0.7,1.331-1.415h0.49v3.559h-0.477c-0.098-0.645-0.225-1.471-1.33-1.471h-1.906v4.062
		c0,0.238,0.154,0.379,0.435,0.379h2.101c1.584,0,1.947-1.191,2.158-2.256h0.49l-0.309,2.928h-7.803V69.135z"/>
	<path fill="#333333" d="M126.2,69.135c0.756-0.112,1.246-0.266,1.246-1.009v-7.298c0-0.784-0.518-0.967-1.246-1.064v-0.393h3.965
		c3.249,0,5.168,1.835,5.168,4.959c0,2.983-2.087,5.211-5.127,5.211H126.2V69.135z M130.108,68.883c2.521,0,3.445-1.947,3.445-4.482
		c0-1.989-0.77-4.412-3.249-4.412h-1.163v8.601c0,0.266,0.183,0.294,0.393,0.294H130.108z"/>
	<path fill="#333333" d="M136.28,69.135c0.756-0.112,1.246-0.266,1.246-1.009v-7.298c0-0.784-0.518-0.967-1.246-1.064v-0.393h4.174
		v0.393c-0.658,0.112-1.246,0.238-1.246,1.037v7.298c0,0.742,0.434,0.924,1.246,1.036v0.406h-4.174V69.135z"/>
	<path fill="#333333" d="M143.518,69.135c0.757-0.112,1.247-0.266,1.247-1.009v-8.124h-1.358c-1.246,0-1.527,0.925-1.682,1.989
		h-0.49l0.043-2.62l0.041-0.027c0.253,0.014,0.98,0.027,2.145,0.027h4.313c1.163,0,1.863-0.014,2.115-0.027l0.042,0.027l0.042,2.62
		h-0.49c-0.183-1.135-0.435-1.989-1.681-1.989h-1.359v8.11c0,0.742,0.435,0.91,1.247,1.022v0.406h-4.175V69.135z"/>
	<path fill="#333333" d="M150.755,69.135c0.757-0.112,1.248-0.266,1.248-1.009v-7.298c0-0.784-0.52-0.967-1.248-1.064v-0.393h4.175
		v0.393c-0.658,0.112-1.247,0.238-1.247,1.037v7.298c0,0.742,0.435,0.924,1.247,1.036v0.406h-4.175V69.135z"/>
	<path fill="#333333" d="M155.88,64.484c0-3.124,1.709-5.239,4.482-5.239c2.885,0,4.608,1.934,4.608,5.085
		c0,3.236-1.793,5.337-4.469,5.337C157.63,69.667,155.88,67.79,155.88,64.484z M163.191,64.54c0-3.067-0.925-4.622-2.843-4.622
		c-1.961,0-2.689,1.568-2.689,4.608c0,3.096,0.826,4.427,2.871,4.427C162.266,68.953,163.191,67.776,163.191,64.54z"/>
	<path fill="#333333" d="M173.509,69.457l-5.477-8.881h-0.027v7.508c0,0.742,0.434,0.938,1.246,1.051v0.406h-3.334v-0.406
		c0.756-0.126,1.246-0.266,1.246-1.022v-7.284c0-0.813-0.629-0.938-1.246-1.064v-0.393h3.307l4.412,7.061h0.056v-5.617
		c0-0.742-0.435-0.938-1.247-1.051v-0.393h3.334v0.393c-0.742,0.126-1.246,0.267-1.246,1.022v8.797h-1.023V69.457z"/>
</g>
</svg>
