<?xml version="1.0" encoding="utf-8"?>
<!-- Generator: Adobe Illustrator 16.0.3, SVG Export Plug-In . SVG Version: 6.00 Build 0)  -->
<!DOCTYPE svg PUBLIC "-//W3C//DTD SVG 1.1//EN" "http://www.w3.org/Graphics/SVG/1.1/DTD/svg11.dtd">
<svg version="1.1" id="Capa_1" xmlns="http://www.w3.org/2000/svg" xmlns:xlink="http://www.w3.org/1999/xlink" x="0px" y="0px"
	 width="107px" height="24px" viewBox="0 0 107 24" enable-background="new 0 0 107 24" xml:space="preserve">
<g id="Fondo">
	<path fill="#FFFFFF" d="M0.53,22.984v-2.08h1.48c0.9,0,1.4-0.279,1.4-1.959V8.035c0-1.2-0.31-1.57-1.69-1.57H0.53v-2.07h17.45v7.4
		h-1.96c-0.39-3.81-0.71-5.33-4.25-5.33H7.11v5.84h1.4c1.59,0,2.3-0.85,2.3-3.12v-0.36h1.96v9.36h-1.96v-0.67
		c0-2.271-0.71-3.141-2.3-3.141h-1.4v6.529h5.29c2.43,0,3.38-1.59,3.62-5.77h1.96v7.85H0.53z"/>
	<path fill="#FFFFFF" d="M19.4,22.984v-2.08h1.7c0.74,0,1.24-0.279,1.24-1.229v-12c0-0.84-0.34-1.21-1.4-1.21H19.4v-2.07h9.68v2.07
		H27.6c-1.16,0-1.56,0.28-1.56,1.27v13.201h4.31c2.72,0,3.38-1.601,3.62-5.94h1.96v7.989H19.4z"/>
	<path fill="#FFFFFF" d="M41.13,22.984v-2.08h1.7c0.6,0,1.13-0.219,1.13-0.949V7.425c0-0.73-0.53-0.96-1.13-0.96h-1.7v-2.07H51.5
		c3.96,0,6.23,1.93,6.23,5.1c0,3.45-2.381,5.08-5.92,5.08h-4.15v5.38c0,0.73,0.66,0.949,1.27,0.949h1.69v2.08H41.13L41.13,22.984z
		 M47.66,12.495h2.41c2.48,0,3.8-0.81,3.8-2.97c0-2.16-1.05-3.06-3.8-3.06h-2.41V12.495z"/>
	<path fill="#FFFFFF" d="M54.77,22.984h8.25v-2.08h-2.06c-0.5,0-0.851-0.109-0.851-0.5c0-0.25,0.061-0.42,0.111-0.59l0.869-2.799h6
		l0.87,2.799c0.06,0.17,0.11,0.42,0.11,0.67c0,0.281-0.211,0.42-0.82,0.42h-2.09v2.08h17.89v-2.08h-1.53
		c-0.899,0-1.299-0.469-1.299-1.369V7.815c0-1.07,0.819-1.35,1.67-1.35h1.159v-2.07H73.7v2.07h1.479c1.03,0,1.35,0.56,1.35,1.27
		v12.169c0,0.721-0.43,1-1.51,1h-0.66c-1.399,0-2.299-0.189-2.77-1.51l-5.29-15h-3.7l-5.05,15c-0.45,1.32-1.38,1.51-2.78,1.51
		V22.984L54.77,22.984z M66.32,14.936h-4.461l2.111-6.761h0.059L66.32,14.936z"/>
	<path fill="#FFFFFF" d="M97.04,4.395h1.53v7.06h-1.9c-0.63-3.05-2.3-5.24-5.439-5.24c-2.461,0-3.471,0.67-3.471,2.53
		c0,4.2,11.79,1.06,11.79,8.88c0,4.46-3.28,5.92-6.979,5.92c-1.98,0-3.961-0.9-5.5-2.21l-0.57,1.649h-1.8v-7.6h1.95
		c0.369,3.76,2.539,5.78,6.289,5.78c2.33,0,3.44-1.149,3.44-2.5c0-4.79-11.79-1.181-11.79-9.2c0-3.95,3.36-5.63,6.561-5.63
		c2.01,0,3.699,0.98,5.02,1.96L97.04,4.395z"/>
	<polygon fill="#FFFFFF" points="83.109,0.535 83.109,2.875 73.471,2.875 	"/>
</g>
<g id="Capa_1_1_">
</g>
</svg>
