<?xml version="1.0" encoding="utf-8"?>
<!-- Generator: Adobe Illustrator 16.0.3, SVG Export Plug-In . SVG Version: 6.00 Build 0)  -->
<!DOCTYPE svg PUBLIC "-//W3C//DTD SVG 1.1 Tiny//EN" "http://www.w3.org/Graphics/SVG/1.1/DTD/svg11-tiny.dtd">
<svg version="1.1" baseProfile="tiny" id="Capa_1" xmlns="http://www.w3.org/2000/svg" xmlns:xlink="http://www.w3.org/1999/xlink"
	 x="0px" y="0px" width="40.5px" height="54.25px" viewBox="0 0 40.5 54.25" overflow="scroll" xml:space="preserve">
<g>
	<rect x="1.167" y="10.5" fill="none" stroke="#FFFFFF" stroke-opacity="0.7" stroke-miterlimit="10" width="38.25" height="42.75"/>
	<path fill="#FFFFFF" d="M25.469,23.254h1.675v7.061h-2.081c-0.689-3.051-2.518-5.24-5.955-5.24c-2.694,0-3.799,0.67-3.799,2.53
		c0,4.199,12.907,1.06,12.907,8.88c0,4.46-3.591,5.919-7.641,5.919c-2.167,0-4.336-0.9-6.021-2.209l-0.623,1.648h-1.97v-7.6h2.134
		c0.404,3.76,2.779,5.779,6.885,5.779c2.551,0,3.766-1.148,3.766-2.499c0-4.79-12.907-1.182-12.907-9.2
		c0-3.95,3.679-5.63,7.182-5.63c2.201,0,4.049,0.979,5.496,1.96L25.469,23.254z"/>
	<g>
		<circle fill="#FFFFFF" fill-opacity="0.7" cx="9.083" cy="17.303" r="1.844"/>
		<circle fill="#FFFFFF" fill-opacity="0.7" cx="30.974" cy="17.303" r="1.844"/>
		<path fill="none" stroke="#FFFFFF" stroke-opacity="0.7" stroke-miterlimit="10" d="M30.974,17.75c0-9.305-4.896-16.833-10.945-16.833
			S9.083,8.446,9.083,17.75"/>
	</g>
</g>
</svg>
