<?xml version="1.0" encoding="utf-8"?>
<!-- Generator: Adobe Illustrator 23.1.1, SVG Export Plug-In . SVG Version: 6.00 Build 0)  -->
<svg version="1.1" id="Layer_1" xmlns="http://www.w3.org/2000/svg" xmlns:xlink="http://www.w3.org/1999/xlink" x="0px" y="0px"
	 viewBox="0 0 243.5 100.7" style="enable-background:new 0 0 243.5 100.7;" xml:space="preserve">
<style type="text/css">
	.st0{fill:#53B3E0;}
	.st1{fill-rule:evenodd;clip-rule:evenodd;fill:#FFFFFF;}
	.st2{fill:#FFFFFF;}
</style>
<g>
	<g>
		<rect x="5.2" y="59.9" class="st0" width="233" height="2"/>
	</g>
	<path class="st1" d="M123.3,17.2c-0.4-1.4-1-2.7-1.8-3.8c-0.8-1.1-1.9-2-3.1-2.7c-1.2-0.7-2.7-1-4.5-1c-1.9,0-3.5,0.4-4.7,1.3
		c-0.9,0.6-1.8,1.5-2.4,2.5v-2.9h-9.3v1h2.3c0.8,0,1.4,0.2,1.7,0.7c0.3,0.4,0.5,1.1,0.5,1.9v24.5c0,0.8-0.2,1.4-0.5,1.9
		c-0.4,0.4-0.9,0.7-1.6,0.7h-2.4v1.9h14.1v-1.9h-2.6c-0.7,0-1.3-0.2-1.6-0.7c-0.4-0.5-0.5-1.1-0.5-1.9v-9.6c0.7,1.4,1.7,2.4,2.9,3.2
		c1.2,0.8,2.7,1.2,4.7,1.2c1.7,0,3.1-0.3,4.3-1c1.2-0.7,2.2-1.5,3-2.7c0.8-1.1,1.4-2.4,1.8-3.9c0.4-1.4,0.6-2.9,0.6-4.6
		C123.9,20.1,123.7,18.6,123.3,17.2z M118.8,25.5c-0.2,1.2-0.6,2.3-1.1,3.2c-0.5,0.9-1.2,1.7-1.9,2.2c-0.8,0.5-1.7,0.8-2.8,0.8
		c-1.1,0-2.1-0.3-2.9-0.8c-0.8-0.6-1.5-1.3-1.9-2.2c-0.5-0.9-0.9-2-1.1-3.2c-0.2-1.2-0.3-2.5-0.3-3.8c0-1.3,0.1-2.5,0.4-3.8
		c0.2-1.2,0.6-2.3,1.2-3.2c0.5-0.9,1.2-1.7,2.1-2.2c0.8-0.6,1.8-0.8,3-0.8c1.9,0,3.4,0.9,4.3,2.6c1,1.8,1.5,4.2,1.5,7.4
		C119.1,23,119,24.3,118.8,25.5z"/>
	<g>
		<path class="st1" d="M27.3,21.2c-0.1-1.6-0.4-3.1-0.7-4.5c-0.4-1.4-1-2.6-1.9-3.6c-0.8-1-1.9-1.9-3.2-2.4
			c-1.3-0.6-2.9-0.9-4.9-0.9c-3.6,0-6.4,1-8.3,3c-2,2-2.9,5-2.9,9c0,4,1,7,3,9c2,2,4.8,3,8.4,3c2.8,0,5.1-0.6,6.7-1.9
			c1.6-1.3,2.7-3.2,3.3-5.8h-2.8c-0.5,1.9-1.4,3.3-2.5,4.3c-1.2,1-2.7,1.5-4.6,1.5c-1.4,0-2.5-0.3-3.4-0.9c-0.9-0.6-1.6-1.4-2-2.3
			s-0.8-2.1-1-3.4c-0.2-1.3-0.3-2.6-0.3-3.9H27.3z M10,19.3c0-1,0.1-2,0.4-2.9c0.2-0.9,0.6-1.7,1.2-2.4c0.5-0.7,1.2-1.2,2-1.7
			c0.8-0.4,1.7-0.6,2.8-0.6c1.1,0,2,0.2,2.7,0.6c0.8,0.4,1.4,1,1.9,1.7c0.5,0.7,0.9,1.5,1.1,2.4c0.2,0.9,0.4,1.9,0.4,2.9H10z"/>
		<path class="st1" d="M28.7,24.2v8.5h1.9l1.8-2c1.1,1,2.4,1.8,3.9,2.3c1.4,0.5,2.9,0.7,4.4,0.7c1.1,0,2.2-0.1,3.3-0.4
			c1.1-0.3,2.1-0.7,2.9-1.2c0.9-0.6,1.6-1.3,2.1-2.2c0.5-0.9,0.8-2,0.8-3.3c0-1.6-0.4-2.8-1.2-3.7c-0.8-0.9-1.8-1.6-3-2.1
			c-1.2-0.5-2.5-0.9-3.9-1.1c-1.4-0.2-2.7-0.5-3.9-0.8c-1.2-0.3-2.2-0.7-3-1.1c-0.8-0.5-1.2-1.2-1.2-2.2c0-0.8,0.1-1.4,0.4-1.9
			s0.6-0.9,1.1-1.2c0.4-0.3,0.9-0.5,1.4-0.6c0.5-0.1,1-0.2,1.6-0.2c1,0,1.9,0.2,2.8,0.5c0.9,0.3,1.7,0.8,2.4,1.4
			c0.7,0.6,1.3,1.4,1.8,2.2c0.5,0.9,0.8,1.8,0.9,2.9h1.9V9.8h-1.7L45.4,12c-1.1-0.9-2.3-1.5-3.6-1.8c-1.4-0.3-2.7-0.5-4.1-0.5
			c-1.1,0-2.2,0.1-3.2,0.4c-1.1,0.2-2,0.6-2.9,1.2s-1.5,1.2-2,2.1c-0.5,0.9-0.8,1.9-0.8,3.1c0,1.7,0.4,3,1.2,3.9
			c0.8,0.9,1.8,1.6,3,2.2c1.2,0.5,2.5,0.9,3.9,1.1c1.4,0.2,2.7,0.5,3.9,0.8c1.2,0.3,2.2,0.7,3,1.2c0.8,0.5,1.2,1.3,1.2,2.3
			c0,1.2-0.5,2.1-1.5,2.8c-1,0.7-2.2,1-3.7,1c-1.2,0-2.3-0.2-3.3-0.5c-1-0.4-2-0.9-2.8-1.5c-0.8-0.7-1.5-1.5-2-2.4
			c-0.5-0.9-0.9-2-1.1-3.1C30.6,24.2,28.7,24.2,28.7,24.2z"/>
		<path class="st1" d="M68.6,25.1c-0.4,2-1.1,3.7-2.3,4.9c-1.1,1.2-2.6,1.8-4.5,1.8c-1.3,0-2.3-0.3-3.2-0.9
			c-0.9-0.6-1.6-1.4-2.1-2.4c-0.5-1-1-2-1.2-3.2c-0.2-1.2-0.4-2.3-0.4-3.5c0-1.1,0.1-2.3,0.4-3.5c0.3-1.2,0.7-2.3,1.3-3.3
			c0.6-1,1.4-1.8,2.4-2.4c1-0.6,2.3-0.9,3.8-0.9c0.5,0,1.1,0.1,1.7,0.2c0.6,0.1,1.2,0.3,1.8,0.6c0.6,0.3,1.1,0.6,1.6,1
			c0.4,0.4,0.8,0.9,1,1.5c-1.6,0.3-2.4,1.2-2.4,2.7c0,0.6,0.2,1.2,0.6,1.6c0.4,0.4,0.9,0.6,1.5,0.6c0.8,0,1.5-0.3,2-0.9
			c0.5-0.6,0.7-1.4,0.7-2.4c0-1.2-0.3-2.3-0.9-3.2c-0.6-0.9-1.4-1.6-2.3-2.1c-0.9-0.5-2-0.9-3.1-1.1c-1.1-0.2-2.2-0.4-3.2-0.4
			c-1.6,0-3.2,0.3-4.6,0.9c-1.4,0.6-2.7,1.4-3.7,2.4c-1,1.1-1.8,2.3-2.4,3.8c-0.6,1.5-0.9,3.1-0.9,4.8c0,2,0.3,3.7,0.8,5.2
			c0.5,1.5,1.3,2.8,2.2,3.8c0.9,1,2,1.7,3.3,2.2c1.3,0.5,2.6,0.7,4.1,0.7c1.5,0,2.9-0.1,4.2-0.4c1.3-0.3,2.3-0.7,3.2-1.4
			c0.9-0.7,1.6-1.5,2.2-2.7s0.9-2.5,1.1-4.1H68.6z"/>
		<path class="st1" d="M92.8,17.8c0-1.6-0.2-2.9-0.7-3.9c-0.4-1-1.1-1.8-1.9-2.4c-0.8-0.6-1.9-1-3-1.3c-1.2-0.2-2.5-0.4-3.9-0.4
			c-1,0-2,0.1-3.1,0.3c-1.1,0.2-2.1,0.6-3.1,1c-1,0.5-1.8,1-2.4,1.8c-0.6,0.7-1,1.6-1,2.6c0,1,0.2,1.8,0.6,2.4c0.4,0.7,0.9,1,1.7,1
			c0.6,0,1.2-0.2,1.7-0.6c0.6-0.4,0.8-1,0.8-2c0-1.4-0.4-2.2-1.2-2.4c0.7-0.9,1.5-1.5,2.6-1.8c1-0.3,2-0.4,2.9-0.4
			c2,0,3.4,0.4,4.2,1c0.7,0.7,1.1,1.8,1.1,3.2c0,0.7-0.1,1.4-0.4,1.9c-0.2,0.5-0.7,0.9-1.5,1.3c-1.2,0.6-2.6,1.1-4.2,1.4
			c-1.6,0.4-3,0.8-4.4,1.4c-1.4,0.5-2.6,1.2-3.5,2.1c-0.9,0.9-1.4,2.1-1.4,3.7c0,1.1,0.2,2,0.5,2.8c0.4,0.8,0.9,1.4,1.5,1.9
			c0.6,0.5,1.4,0.8,2.2,1.1c0.9,0.2,1.8,0.3,2.7,0.3c1.7,0,3.2-0.3,4.6-0.9c1.3-0.6,2.6-1.6,3.8-2.9c0.2,1.2,0.6,2.1,1.3,2.7
			c0.7,0.7,1.7,1,2.9,1c1.8,0,3.1-0.5,4-1.4c0.9-0.9,1.3-2.7,1.3-5.2v-1.4h-1.9v2c0,0.4,0,0.8-0.1,1.2c0,0.5-0.1,0.9-0.2,1.3
			c-0.1,0.4-0.3,0.8-0.6,1.1c-0.3,0.3-0.6,0.4-1,0.4c-0.4,0-0.6-0.2-0.8-0.7c-0.2-0.5-0.2-1.1-0.2-1.8V17.8z M88,25.3
			c0,0.9-0.2,1.7-0.6,2.4c-0.4,0.8-1,1.5-1.6,2.1c-0.7,0.6-1.4,1.1-2.2,1.4c-0.8,0.4-1.6,0.5-2.4,0.5c-1.2,0-2.1-0.4-2.8-1.1
			c-0.6-0.7-1-1.7-1-3c0-0.9,0.3-1.6,0.8-2.2c0.5-0.6,1.5-1.2,2.7-1.8c1.4-0.6,2.6-1.1,3.8-1.5c1.1-0.4,2.2-0.9,3.2-1.5V25.3z"/>
		<path class="st1" d="M146.4,17.8c0-1.6-0.2-2.9-0.7-3.9c-0.4-1-1.1-1.8-1.9-2.4c-0.8-0.6-1.9-1-3-1.3c-1.2-0.2-2.5-0.4-3.9-0.4
			c-1,0-2,0.1-3.1,0.3c-1.1,0.2-2.1,0.6-3.1,1c-1,0.5-1.8,1-2.4,1.8c-0.6,0.7-1,1.6-1,2.6c0,1,0.2,1.8,0.6,2.4c0.4,0.7,0.9,1,1.7,1
			c0.6,0,1.2-0.2,1.7-0.6c0.6-0.4,0.8-1,0.8-2c0-1.4-0.4-2.2-1.2-2.4c0.7-0.9,1.5-1.5,2.6-1.8c1-0.3,2-0.4,2.9-0.4
			c2,0,3.4,0.4,4.2,1c0.7,0.7,1.1,1.8,1.1,3.2c0,0.7-0.1,1.4-0.4,1.9c-0.2,0.5-0.7,0.9-1.5,1.3c-1.2,0.6-2.6,1.1-4.2,1.4
			c-1.6,0.4-3,0.8-4.4,1.4c-1.4,0.5-2.6,1.2-3.5,2.1c-0.9,0.9-1.4,2.1-1.4,3.7c0,1.1,0.2,2,0.5,2.8c0.4,0.8,0.9,1.4,1.5,1.9
			c0.6,0.5,1.4,0.8,2.2,1.1c0.9,0.2,1.8,0.3,2.7,0.3c1.7,0,3.2-0.3,4.6-0.9c1.3-0.6,2.6-1.6,3.8-2.9c0.2,1.2,0.6,2.1,1.3,2.7
			c0.7,0.7,1.7,1,2.9,1c1.8,0,3.1-0.5,4-1.4c0.9-0.9,1.3-2.7,1.3-5.2v-1.4h-1.9v2c0,0.4,0,0.8-0.1,1.2c0,0.5-0.1,0.9-0.2,1.3
			c-0.1,0.4-0.3,0.8-0.6,1.1c-0.3,0.3-0.6,0.4-1,0.4c-0.4,0-0.6-0.2-0.8-0.7c-0.2-0.5-0.2-1.1-0.2-1.8V17.8z M141.6,25.3
			c0,0.9-0.2,1.7-0.6,2.4c-0.4,0.8-1,1.5-1.6,2.1c-0.7,0.6-1.4,1.1-2.2,1.4c-0.8,0.4-1.6,0.5-2.4,0.5c-1.2,0-2.1-0.4-2.8-1.1
			c-0.6-0.7-1-1.7-1-3c0-0.9,0.3-1.6,0.8-2.2c0.5-0.6,1.5-1.2,2.7-1.8c1.4-0.6,2.6-1.1,3.8-1.5c1.1-0.4,2.2-0.9,3.2-1.5L141.6,25.3
			L141.6,25.3z"/>
		<path class="st1" d="M162.2,10.7h-10v1.9h3.3c0.8,0,1.3,0.2,1.6,0.6c0.2,0.4,0.4,0.9,0.4,1.7v13.7c0,0.7-0.1,1.3-0.4,1.7
			c-0.2,0.4-0.8,0.6-1.6,0.6h-3.1v1.9h14.8v-1.9h-2.6c-1.6,0-2.4-0.7-2.4-2.3v-6.7c0-1.2,0.1-2.4,0.4-3.6c0.3-1.2,0.7-2.3,1.3-3.3
			c0.6-1,1.3-1.8,2.1-2.4c0.8-0.6,1.8-0.9,2.9-0.9c0.5,0,1.1,0.1,1.7,0.3c0.6,0.2,0.9,0.5,1.1,1.1c-0.9,0-1.5,0.2-2,0.6
			c-0.5,0.4-0.7,1-0.7,1.9c0,0.7,0.3,1.2,0.8,1.6c0.5,0.4,1.1,0.6,1.6,0.6c0.9,0,1.5-0.3,1.8-0.9c0.4-0.6,0.6-1.4,0.6-2.3
			c0-1.7-0.4-2.9-1.3-3.6c-0.9-0.7-2-1.1-3.5-1.1c-1.4,0-2.8,0.5-4,1.5c-1.3,1-2.2,2.4-2.8,4h0.1V10.7z"/>
		<path class="st1" d="M194.2,17.8c0-1.6-0.2-2.9-0.7-3.9c-0.4-1-1.1-1.8-1.9-2.4c-0.8-0.6-1.9-1-3-1.3c-1.2-0.2-2.5-0.4-3.9-0.4
			c-1,0-2,0.1-3.1,0.3c-1.1,0.2-2.1,0.6-3.1,1c-1,0.5-1.8,1-2.4,1.8c-0.6,0.7-1,1.6-1,2.6c0,1,0.2,1.8,0.6,2.4c0.4,0.7,0.9,1,1.7,1
			c0.6,0,1.2-0.2,1.7-0.6c0.6-0.4,0.8-1,0.8-2c0-1.4-0.4-2.2-1.2-2.4c0.7-0.9,1.5-1.5,2.6-1.8c1-0.3,2-0.4,2.9-0.4
			c2,0,3.4,0.4,4.2,1c0.7,0.7,1.1,1.8,1.1,3.2c0,0.7-0.1,1.4-0.4,1.9c-0.2,0.5-0.7,0.9-1.5,1.3c-1.2,0.6-2.6,1.1-4.2,1.4
			c-1.6,0.4-3,0.8-4.4,1.4c-1.4,0.5-2.6,1.2-3.5,2.1c-0.9,0.9-1.4,2.1-1.4,3.7c0,1.1,0.2,2,0.5,2.8c0.4,0.8,0.9,1.4,1.5,1.9
			c0.6,0.5,1.4,0.8,2.2,1.1c0.9,0.2,1.8,0.3,2.7,0.3c1.7,0,3.2-0.3,4.6-0.9c1.3-0.6,2.6-1.6,3.8-2.9c0.2,1.2,0.6,2.1,1.3,2.7
			c0.7,0.7,1.7,1,2.9,1c1.8,0,3.1-0.5,4-1.4c0.9-0.9,1.3-2.7,1.3-5.2v-1.4h-1.9v2c0,0.4,0,0.8-0.1,1.2c0,0.5-0.1,0.9-0.2,1.3
			c-0.1,0.4-0.3,0.8-0.6,1.1c-0.3,0.3-0.6,0.4-1,0.4c-0.4,0-0.6-0.2-0.8-0.7c-0.2-0.5-0.2-1.1-0.2-1.8V17.8z M189.5,25.3
			c0,0.9-0.2,1.7-0.6,2.4s-1,1.5-1.6,2.1c-0.7,0.6-1.4,1.1-2.2,1.4c-0.8,0.4-1.6,0.5-2.4,0.5c-1.2,0-2.1-0.4-2.8-1.1
			c-0.6-0.7-1-1.7-1-3c0-0.9,0.3-1.6,0.8-2.2c0.5-0.6,1.5-1.2,2.7-1.8c1.4-0.6,2.6-1.1,3.8-1.5c1.1-0.4,2.2-0.9,3.2-1.5L189.5,25.3
			L189.5,25.3z"/>
		<path class="st1" d="M199.3,12.6h4.1v15.6c0,0.7,0.1,1.3,0.3,2c0.2,0.7,0.5,1.3,0.9,1.8c0.4,0.5,1,0.9,1.8,1.3
			c0.7,0.3,1.7,0.5,2.7,0.5c1.3,0,2.4-0.2,3.3-0.5c0.9-0.3,1.6-0.8,2.1-1.4c0.5-0.6,0.9-1.4,1.1-2.3c0.2-0.9,0.3-2,0.3-3.1v-2.1
			h-1.9v2.8c0,1.4-0.3,2.5-0.9,3.4c-0.6,0.9-1.4,1.3-2.4,1.3c-1.6,0-2.4-1-2.4-2.9V12.6h6.8v-1.9h-6.8V1.1h-2.9
			c-0.1,1-0.2,2.1-0.4,3.1s-0.6,2-1,2.9c-0.5,0.9-1.1,1.7-1.8,2.3c-0.7,0.6-1.6,1-2.7,1.2V12.6z"/>
		<path class="st1" d="M238.3,21.2c-0.1-1.6-0.4-3.1-0.7-4.5c-0.4-1.4-1-2.6-1.9-3.6c-0.8-1-1.9-1.9-3.2-2.4
			c-1.3-0.6-2.9-0.9-4.9-0.9c-3.6,0-6.4,1-8.3,3c-2,2-2.9,5-2.9,9c0,4,1,7,3,9c2,2,4.8,3,8.4,3c2.8,0,5.1-0.6,6.7-1.9
			c1.6-1.3,2.7-3.2,3.3-5.8h-2.8c-0.5,1.9-1.4,3.3-2.5,4.3c-1.2,1-2.7,1.5-4.6,1.5c-1.4,0-2.5-0.3-3.4-0.9c-0.9-0.6-1.6-1.4-2-2.3
			s-0.8-2.1-1-3.4c-0.2-1.3-0.3-2.6-0.3-3.9H238.3z M221,19.3c0-1,0.1-2,0.4-2.9c0.2-0.9,0.6-1.7,1.2-2.4c0.5-0.7,1.2-1.2,2-1.7
			c0.8-0.4,1.7-0.6,2.8-0.6c1.1,0,2,0.2,2.7,0.6c0.8,0.4,1.4,1,1.9,1.7c0.5,0.7,0.9,1.5,1.1,2.4c0.2,0.9,0.4,1.9,0.4,2.9H221z"/>
	</g>
	<g id="Fondo_1_">
		<path class="st2" d="M68.3,98.7v-2.2h1.6c1,0,1.5-0.3,1.5-2.1V82.7c0-1.3-0.3-1.7-1.8-1.7h-1.3v-2.2h18.7v7.9h-2.1
			c-0.4-4.1-0.8-5.7-4.5-5.7h-5v6.2h1.5c1.7,0,2.5-0.9,2.5-3.3v-0.4h2.1v10h-2.1v-0.7c0-2.4-0.8-3.4-2.5-3.4h-1.5v7H81
			c2.6,0,3.6-1.7,3.9-6.2h2.1v8.4L68.3,98.7L68.3,98.7z"/>
		<path class="st2" d="M88.5,98.7v-2.2h1.8c0.8,0,1.3-0.3,1.3-1.3V82.3c0-0.9-0.4-1.3-1.5-1.3h-1.6v-2.2h10.3V81h-1.6
			c-1.2,0-1.7,0.3-1.7,1.4v14.1h4.6c2.9,0,3.6-1.7,3.9-6.4h2.1v8.5L88.5,98.7L88.5,98.7z"/>
		<path class="st2" d="M111.7,98.7v-2.2h1.8c0.6,0,1.2-0.2,1.2-1V82c0-0.8-0.6-1-1.2-1h-1.8v-2.2h11.1c4.2,0,6.7,2.1,6.7,5.5
			c0,3.7-2.5,5.4-6.3,5.4h-4.4v5.8c0,0.8,0.7,1,1.4,1h1.8v2.2H111.7L111.7,98.7z M118.7,87.5h2.6c2.7,0,4.1-0.9,4.1-3.2
			c0-2.3-1.1-3.3-4.1-3.3h-2.6V87.5z"/>
		<path class="st2" d="M126.3,98.7h8.8v-2.2h-2.2c-0.5,0-0.9-0.1-0.9-0.5c0-0.3,0.1-0.4,0.1-0.6l0.9-3h6.4l0.9,3
			c0.1,0.2,0.1,0.4,0.1,0.7c0,0.3-0.2,0.4-0.9,0.4h-2.2v2.2h19.1v-2.2h-1.6c-1,0-1.4-0.5-1.4-1.5V82.5c0-1.1,0.9-1.4,1.8-1.4h1.2
			v-2.2h-10V81h1.6c1.1,0,1.4,0.6,1.4,1.4v13c0,0.8-0.5,1.1-1.6,1.1h-0.7c-1.5,0-2.5-0.2-3-1.6l-5.7-16h-4l-5.4,16
			c-0.5,1.4-1.5,1.6-3,1.6L126.3,98.7L126.3,98.7z M138.6,90.1h-4.8l2.3-7.2h0.1L138.6,90.1z"/>
		<path class="st2" d="M171.5,78.8h1.6v7.5h-2c-0.7-3.3-2.5-5.6-5.8-5.6c-2.6,0-3.7,0.7-3.7,2.7c0,4.5,12.6,1.1,12.6,9.5
			c0,4.8-3.5,6.3-7.5,6.3c-2.1,0-4.2-1-5.9-2.4l-0.6,1.8h-1.9v-8.1h2.1c0.4,4,2.7,6.2,6.7,6.2c2.5,0,3.7-1.2,3.7-2.7
			c0-5.1-12.6-1.3-12.6-9.8c0-4.2,3.6-6,7-6c2.1,0,4,1,5.4,2.1L171.5,78.8z"/>
		<polygon class="st2" points="156.6,74.7 156.6,77.2 146.3,77.2 		"/>
	</g>
</g>
<g id="Capa_1_1_">
</g>
</svg>
