<?xml version="1.0" encoding="utf-8"?>
<!-- Generator: Adobe Illustrator 20.1.0, SVG Export Plug-In . SVG Version: 6.00 Build 0)  -->
<svg version="1.1" id="Capa_1" xmlns="http://www.w3.org/2000/svg" xmlns:xlink="http://www.w3.org/1999/xlink" x="0px" y="0px"
	 viewBox="0 0 600 105.9" style="enable-background:new 0 0 600 105.9;" xml:space="preserve">
<style type="text/css">
	.st0{fill:#FFFFFF;}
</style>
<path id="XMLID_81_" class="st0" d="M12.2,105.8V47.1H0V30.9h12.2v-3.7c0-11.5,2.4-17.6,8.2-22.2c4-3.3,10.1-4.9,18.6-4.9
	c3,0,5.5,0.1,7.7,0.6V16c-1.3-0.4-3.7-0.7-6.8-0.7c-6.7,0-9.8,3-9.8,10.6v5.1h14.1v16.2H30.1v58.8H12.2z"/>
<path id="XMLID_76_" class="st0" d="M106.1,83c4.5-4.6,6.7-10.1,6.7-16.8c0-6.7-2.2-12.2-6.7-16.7c-4.5-4.6-10-6.8-16.5-6.8
	c-6.7,0-12.2,2.2-16.7,6.8c-4.3,4.5-6.5,10-6.5,16.7c0,6.7,2.2,12.2,6.5,16.8c4.5,4.5,10,6.7,16.7,6.7
	C96.1,89.7,101.6,87.5,106.1,83 M48.6,66.2c0-11.2,4-20.7,11.9-28.3c7.9-7.6,17.6-11.5,29-11.5s21.1,3.9,29,11.5
	c7.9,7.6,11.9,17.1,11.9,28.3s-4,20.7-11.9,28.3c-7.9,7.6-17.6,11.5-29,11.5s-21.1-3.9-29-11.5C52.7,86.9,48.6,77.4,48.6,66.2"/>
<path id="XMLID_75_" class="st0" d="M144.7,44.9h-9.4V28.7h9.4V0h17.9v28.7h16.5v16.2h-16.5v33.5c0,8.2,2.8,11.2,9.4,11.2
	c2.2,0,4.3-0.1,6.2-0.6v15.9c-2.5,0.6-5.7,0.9-9.2,0.9c-16.2,0-24.3-8.5-24.3-25.4V44.9z"/>
<path id="XMLID_72_" class="st0" d="M241.9,83c4.5-4.6,6.7-10.1,6.7-16.8c0-6.7-2.2-12.2-6.7-16.7c-4.5-4.6-10-6.8-16.5-6.8
	c-6.7,0-12.2,2.2-16.7,6.8c-4.3,4.5-6.5,10-6.5,16.7c0,6.7,2.2,12.2,6.5,16.8c4.5,4.5,10,6.7,16.7,6.7
	C231.9,89.7,237.4,87.5,241.9,83 M184.5,66.2c0-11.2,4-20.7,11.9-28.3c7.9-7.6,17.6-11.5,29-11.5c11.5,0,21.1,3.9,29,11.5
	c7.9,7.6,11.9,17.1,11.9,28.3s-4,20.7-11.9,28.3c-7.9,7.6-17.6,11.5-29,11.5c-11.5,0-21.1-3.9-29-11.5
	C188.5,86.9,184.5,77.4,184.5,66.2"/>
<path id="XMLID_70_" class="st0" d="M344.4,39.3l-11,11.5c-5.2-5.5-11.6-8.2-19-8.2c-6.5,0-12.1,2.2-16.5,6.7
	c-4.3,4.5-6.5,10.1-6.5,16.8s2.2,12.3,6.5,16.8c4.5,4.5,10,6.7,16.5,6.7c7.4,0,13.8-2.7,19-8.2l11,11.5c-8,8.6-18,12.9-30.1,12.9
	c-11.5,0-21.1-3.7-29-11.3c-7.9-7.6-11.8-17.1-11.8-28.4c0-11.3,3.9-20.7,11.8-28.3c7.9-7.6,17.6-11.5,29-11.5
	C326.4,26.3,336.4,30.6,344.4,39.3"/>
<path id="XMLID_66_" class="st0" d="M404.4,82.6c4.5-4.3,6.7-9.8,6.7-16.4c0-6.5-2.2-12.1-6.7-16.4c-4.3-4.3-9.8-6.5-16.2-6.5
	s-11.6,2.2-15.9,6.5c-4.2,4.3-6.2,9.8-6.2,16.4c0,6.5,2.1,12,6.2,16.4c4.3,4.3,9.5,6.5,15.9,6.5S400.1,86.9,404.4,82.6 M409.8,39.6
	V28.7h17.9v52.4c0,6.4,1.5,8.8,5.5,8.8c1,0,2.4-0.1,3.7-0.3V104c-1.9,0.7-4.9,1.2-8.8,1.2c-4.3,0-7.7-0.7-10.4-2.4
	c-3.3-2.2-5.4-5.2-6.1-9.1c-5.2,7.9-13.8,11.8-25.7,11.8c-10.6,0-19.5-3.7-26.8-11.3c-7.1-7.6-10.7-16.8-10.7-28
	c0-11.2,3.6-20.4,10.7-27.8c7.3-7.6,16.2-11.3,26.8-11.3C397.8,27.1,406.9,32.4,409.8,39.6"/>
<path id="XMLID_65_" class="st0" d="M455.3,80.8c3.4,5.4,10.7,9.4,19.8,9.4c9.4,0,13.4-3.6,13.4-8.2c0-2.5-1.8-4.6-4.3-6
	c-1.6-1-4.8-2.1-7-2.8c-2.2-0.7-6.7-2.1-9.2-3.1c-12-4.3-18.4-10.4-18.4-21.1c0-7,2.5-12.3,7.6-16.4c5.2-4,11.5-6.1,18.9-6.1
	c10.6,0,18.6,3.7,24.2,11l-10,10.6c-3.3-4.2-8.2-6.2-14.6-6.2c-5.5,0-9.1,2.7-9.1,6.7c0,2.5,1.3,3.9,3.4,5.2
	c1.2,0.7,4.2,1.9,6.1,2.7c2.2,0.6,6.4,2.1,9.4,3.1c13.8,4.9,20.1,11.6,20.1,22.3c0,13.8-10.4,23.8-30.8,23.8
	c-15,0-26.2-5.8-30.9-15.2L455.3,80.8z"/>
<path id="XMLID_22_" class="st0" d="M567.6,82.6c4.5-4.3,6.7-9.8,6.7-16.4c0-6.5-2.2-12.1-6.7-16.4c-4.3-4.3-9.8-6.5-16.2-6.5
	s-11.6,2.2-15.9,6.5c-4.2,4.3-6.2,9.8-6.2,16.4c0,6.5,2.1,12,6.2,16.4c4.3,4.3,9.5,6.5,15.9,6.5S563.3,86.9,567.6,82.6 M572.9,39.6
	V28.7h17.9v52.4c0,6.4,1.5,8.8,5.5,8.8c1,0,2.4-0.1,3.7-0.3V104c-1.9,0.7-4.9,1.2-8.8,1.2c-4.3,0-7.7-0.7-10.4-2.4
	c-3.3-2.2-5.4-5.2-6.1-9.1c-5.2,7.9-13.8,11.8-25.7,11.8c-10.6,0-19.5-3.7-26.8-11.3c-7.1-7.6-10.7-16.8-10.7-28
	c0-11.2,3.6-20.4,10.7-27.8c7.3-7.6,16.2-11.3,26.8-11.3C561,27.1,570.1,32.4,572.9,39.6"/>
</svg>
