<?xml version="1.0" encoding="UTF-8"?>
<svg width="114px" height="45px" viewBox="0 0 114 45" version="1.1" xmlns="http://www.w3.org/2000/svg" xmlns:xlink="http://www.w3.org/1999/xlink">
    <!-- Generator: Sketch 54.1 (76490) - https://sketchapp.com -->
    <title>Group 38</title>
    <desc>Created with Sketch.</desc>
    <defs>
        <polygon id="path-1" points="0 44.9973119 113.959735 44.9973119 113.959735 0 0 0"></polygon>
    </defs>
    <g id="Page-2" stroke="none" stroke-width="1" fill="none" fill-rule="evenodd">
        <g id="Version_Aprobada" transform="translate(-870.000000, -131.000000)">
            <g id="Group-4" transform="translate(136.000000, 119.000000)">
                <g id="Group-38" transform="translate(734.000000, 12.000000)">
                    <path d="M11.9572112,13.8160055 C11.9572112,18.5456847 12.9079772,20.8421781 17.1100911,22.4629746 C12.9079772,23.8140697 11.9572112,26.3816582 11.9572112,31.1113374 L11.9572112,34.6594679 C11.9572112,43.4422334 7.18649606,44.9274325 0,44.9274325 L0,44.1501869 C5.62786328,43.8124878 6.84629448,40.1312489 6.84629448,35.0651648 L6.84629448,32.1924325 C6.84629448,26.9906515 7.66028046,24.0866582 12.339376,22.5999657 L12.339376,22.4629746 C7.66028046,21.5175763 6.84629448,18.5456847 6.84629448,12.7351095 L6.84629448,9.86496571 C6.84629448,4.79738827 5.62786328,1.11614934 0,0.778450221 L0,9.95575221e-06 C7.18649606,9.95575221e-06 11.9572112,1.48650332 11.9572112,10.2691692 L11.9572112,13.8160055 Z" id="Fill-1" fill="#FEFEFE"></path>
                    <path d="M32.1128209,23.1372279 L37.6379742,23.1372279 L34.9132643,14.6781239 L32.1128209,23.1372279 Z M32.4097604,9.76316814 L37.5109856,9.76316814 L45.1438901,31.259927 L40.2552784,31.259927 L38.8314273,26.8407677 L30.8877954,26.8407677 L29.42338,31.259927 L24.709515,31.259927 L32.4097604,9.76316814 Z" id="Fill-3" fill="#FEFEFE"></path>
                    <path d="M57.2830817,15.4500531 C58.0832798,15.791635 58.7428012,16.3133164 59.25715,17.0122102 C59.6943665,17.6068673 59.9612324,18.2170553 60.0580475,18.8456615 C60.1548626,19.4729735 60.2046189,20.4966239 60.2046189,21.9167124 L60.2046189,31.2599867 L55.945555,31.2599867 L55.945555,21.5789137 C55.945555,20.7222212 55.799583,20.0322876 55.5097372,19.5069226 C55.1308696,18.7662146 54.4156969,18.3971549 53.3596233,18.3971549 C52.265583,18.3971549 51.4339125,18.7648208 50.8673096,19.4976637 C50.301306,20.2344889 50.018654,21.281635 50.018654,22.6443783 L50.018654,31.2599867 L45.8466137,31.2599867 L45.8466137,9.83749779 L50.018654,9.83749779 L50.018654,17.4204956 C50.6186277,16.4959049 51.3168152,15.8517677 52.1092202,15.4864912 C52.9003262,15.122708 53.733895,14.9401195 54.6075287,14.9401195 C55.5896671,14.9401195 56.4802859,15.1110597 57.2830817,15.4500531" id="Fill-5" fill="#FEFEFE"></path>
                    <path d="M71.9669711,27.0180796 C72.621397,26.1534226 72.9484102,24.9250819 72.9484102,23.3328584 C72.9484102,21.7419292 72.621397,20.5174712 71.9669711,19.656896 C71.3153427,18.7974159 70.375667,18.3670288 69.1586345,18.3670288 C67.9363067,18.3670288 66.9993287,18.7974159 66.3398072,19.656896 C65.6801858,20.5174712 65.3529728,21.7419292 65.3529728,23.3328584 C65.3529728,24.9250819 65.6801858,26.1534226 66.3398072,27.0180796 C66.9993287,27.8812434 67.9363067,28.3129248 69.1586345,28.3129248 C70.375667,28.3129248 71.3153427,27.8812434 71.9669711,27.0180796 M75.3040438,29.3143739 C73.9588238,30.9704137 71.914617,31.7985332 69.1716231,31.7985332 C66.4313269,31.7985332 64.3871201,30.9704137 63.0393024,29.3143739 C61.6912848,27.6595288 61.0186748,25.664396 61.0186748,23.3328584 C61.0186748,21.0417412 61.6912848,19.0529801 63.0393024,17.3734447 C64.3871201,15.6939093 66.4313269,14.8541416 69.1716231,14.8541416 C71.914617,14.8541416 73.9588238,15.6939093 75.3040438,17.3734447 C76.6520613,19.0529801 77.3220736,21.0417412 77.3220736,23.3328584 C77.3220736,25.664396 76.6520613,27.6595288 75.3040438,29.3143739" id="Fill-7" fill="#FEFEFE"></path>
                    <path d="M87.0114941,14.9923274 C87.0636484,14.9975044 87.1842426,15.0040752 87.3674819,15.0145288 L87.3674819,19.2721062 C87.1057115,19.2434336 86.8701181,19.2226261 86.6658973,19.2147611 C86.4617763,19.2029137 86.2943232,19.1991305 86.1684337,19.1991305 C84.4908053,19.1991305 83.3628947,19.7428142 82.7870997,20.8317743 C82.4651821,21.4445509 82.3053223,22.3887544 82.3053223,23.662792 L82.3053223,31.259927 L78.1020095,31.259927 L78.1020095,15.3625819 L82.0856151,15.3625819 L82.0856151,18.1336659 C82.7294503,17.0748717 83.289559,16.3485 83.7685388,15.9612212 C84.5486545,15.309219 85.5641637,14.9844624 86.8151663,14.9844624 C86.8910997,14.9844624 86.9564424,14.9870509 87.0114941,14.9923274" id="Fill-9" fill="#FEFEFE"></path>
                    <path d="M97.5567339,14.9923274 C97.6116857,14.9975044 97.73218,15.0040752 97.9153194,15.0145288 L97.9153194,19.2721062 C97.6536489,19.2434336 97.4179557,19.2226261 97.2136349,19.2147611 C97.0097138,19.2029137 96.8422606,19.1991305 96.7138733,19.1991305 C95.0388426,19.1991305 93.9108321,19.7428142 93.3349372,20.8317743 C93.0130196,21.4445509 92.8506621,22.3887544 92.8506621,23.662792 L92.8506621,31.259927 L88.6526445,31.259927 L88.6526445,14.9844624 L92.6335525,14.9844624 L92.6335525,18.1336659 C93.2772878,17.0748717 93.8372966,16.3485 94.3163763,15.9612212 C95.0937944,15.309219 96.1120012,14.9844624 97.3604061,14.9844624 C97.4364394,14.9844624 97.5017821,14.9870509 97.5567339,14.9923274" id="Fill-11" fill="#FEFEFE"></path>
                    <path d="M108.604463,27.0180796 C109.256191,26.1534226 109.583404,24.9250819 109.583404,23.3328584 C109.583404,21.7419292 109.256191,20.5174712 108.604463,19.656896 C107.947539,18.7974159 107.013059,18.3670288 105.790831,18.3670288 C104.571301,18.3670288 103.634223,18.7974159 102.977199,19.656896 C102.317578,20.5174712 101.987767,21.7419292 101.987767,23.3328584 C101.987767,24.9250819 102.317578,26.1534226 102.977199,27.0180796 C103.634223,27.8812434 104.571301,28.3129248 105.790831,28.3129248 C107.013059,28.3129248 107.947539,27.8812434 108.604463,27.0180796 M111.939038,29.3143739 C110.593718,30.9704137 108.549511,31.7985332 105.806517,31.7985332 C103.066121,31.7985332 101.022014,30.9704137 99.6767942,29.3143739 C98.3288766,27.6595288 97.6561667,25.664396 97.6561667,23.3328584 C97.6561667,21.0417412 98.3288766,19.0529801 99.6767942,17.3734447 C101.022014,15.6939093 103.066121,14.8541416 105.806517,14.8541416 C108.549511,14.8541416 110.593718,15.6939093 111.939038,17.3734447 C113.286955,19.0529801 113.959565,21.0417412 113.959565,23.3328584 C113.959565,25.664396 113.286955,27.6595288 111.939038,29.3143739" id="Fill-13" fill="#FEFEFE"></path>
                    <mask id="mask-2" fill="white">
                        <use xlink:href="#path-1"></use>
                    </mask>
                    <g id="Clip-16"></g>
                    <polygon id="Fill-15" fill="#FEFEFE" mask="url(#mask-2)" points="19.4317546 31.4803872 23.6567485 31.4803872 23.6567485 16.0198009 19.4317546 16.0198009"></polygon>
                    <path d="M19.0495699,12.0844015 C19.0495699,10.7124989 20.1671895,9.6001427 21.5438819,9.6001427 C22.921973,9.6001427 24.0389932,10.7124989 24.0389932,12.0844015 C24.0389932,13.4574989 22.921973,14.5711493 21.5438819,14.5711493 C20.1671895,14.5711493 19.0495699,13.4574989 19.0495699,12.0844015" id="Fill-17" fill="#FEFEFE" mask="url(#mask-2)"></path>
                    <path d="M23.9242039,37.3102268 C23.5780075,37.0697954 23.167068,36.9495299 22.6907858,36.9495299 C22.2844422,36.9495299 21.9367472,37.0254923 21.6479006,37.177417 C21.3589541,37.3291427 21.120763,37.5331361 20.9336272,37.7893971 C20.7461916,38.0457577 20.6082126,38.3383573 20.5192906,38.6672954 C20.4302687,38.9964325 20.3860075,39.3380144 20.3860075,39.6923396 C20.3860075,40.0782246 20.4302687,40.4437002 20.5192906,40.7884679 C20.6082126,41.1332356 20.7461916,41.4337998 20.9336272,41.6899613 C21.120763,41.9462223 21.3605527,42.1502157 21.6526964,42.30224 C21.9446403,42.4539657 22.2939339,42.5299281 22.7003774,42.5299281 C22.9987157,42.5299281 23.2637832,42.4810454 23.4955798,42.3826825 C23.7273765,42.2848175 23.9273011,42.1488219 24.0956535,41.9746958 C24.263806,41.8007688 24.3956903,41.5935896 24.4909067,41.3530586 C24.5861232,41.1127268 24.6432731,40.8532799 24.6623564,40.574917 L25.5671627,40.574917 C25.4781408,41.429021 25.1828997,42.0933684 24.6814396,42.5678595 C24.1797797,43.0423507 23.4939812,43.2796958 22.6241443,43.2796958 C22.0970067,43.2796958 21.6367104,43.1894967 21.2431557,43.0090985 C20.8494011,42.8288993 20.5224878,42.5806029 20.2622161,42.2642091 C20.0017446,41.9478153 19.8065159,41.5746737 19.6763301,41.1442865 C19.5462442,40.7140985 19.4811013,40.2522511 19.4811013,39.7587445 C19.4811013,39.2652378 19.5509401,38.8017976 19.6906175,38.3683241 C19.830295,37.9350498 20.0351153,37.5570299 20.3049786,37.2342644 C20.5748419,36.9115985 20.9112468,36.6569303 21.314593,36.47026 C21.7177394,36.2836892 22.1796342,36.1903042 22.7003774,36.1903042 C23.0558656,36.1903042 23.3923704,36.2378927 23.7098918,36.332771 C24.0274133,36.4275498 24.3099655,36.5668308 24.5575483,36.7503153 C24.805231,36.9338993 25.0114501,37.1630808 25.1766053,37.4382577 C25.3416605,37.7135343 25.4495658,38.0314215 25.5004212,38.3920188 L24.5957148,38.3920188 C24.494004,37.9112555 24.2702004,37.5507577 23.9242039,37.3102268" id="Fill-18" fill="#FEFEFE" mask="url(#mask-2)"></path>
                    <path d="M27.1336985,41.4717113 C27.2130289,41.7026847 27.3225329,41.8957268 27.4623103,42.0505387 C27.6019877,42.2057489 27.7654443,42.3243219 27.95278,42.4065564 C28.1400158,42.4888905 28.3385416,42.5299082 28.5480578,42.5299082 C28.7575741,42.5299082 28.956,42.4888905 29.1433357,42.4065564 C29.3305714,42.3243219 29.494128,42.2057489 29.6338054,42.0505387 C29.773383,41.8957268 29.8829869,41.7026847 29.9624172,41.4717113 C30.0417476,41.2409369 30.0814128,40.9767113 30.0814128,40.679333 C30.0814128,40.3820542 30.0417476,40.1178285 29.9624172,39.8867555 C29.8829869,39.6558816 29.773383,39.4614458 29.6338054,39.3031493 C29.494128,39.1451515 29.3305714,39.0248861 29.1433357,38.9426515 C28.956,38.860417 28.7575741,38.8191007 28.5480578,38.8191007 C28.3385416,38.8191007 28.1400158,38.860417 27.95278,38.9426515 C27.7654443,39.0248861 27.6019877,39.1451515 27.4623103,39.3031493 C27.3225329,39.4614458 27.2130289,39.6558816 27.1336985,39.8867555 C27.0542682,40.1178285 27.0147029,40.3820542 27.0147029,40.679333 C27.0147029,40.9767113 27.0542682,41.2409369 27.1336985,41.4717113 M26.3099211,39.668625 C26.4114321,39.355417 26.5636985,39.0834259 26.7670202,38.8523529 C26.9702419,38.6215785 27.220922,38.4394878 27.5194601,38.3066781 C27.8177984,38.1737688 28.1606976,38.1072644 28.5480578,38.1072644 C28.9417125,38.1072644 29.2862103,38.1737688 29.5814514,38.3066781 C29.8766924,38.4394878 30.1258738,38.6215785 30.3290955,38.8523529 C30.5322174,39.0834259 30.6845837,39.355417 30.7862945,39.668625 C30.8878054,39.9817334 30.9386608,40.3186361 30.9386608,40.679333 C30.9386608,41.0399303 30.8878054,41.37524 30.7862945,41.6853617 C30.6845837,41.9953838 30.5322174,42.2657821 30.3290955,42.496656 C30.1258738,42.7276294 29.8766924,42.9080277 29.5814514,43.0376515 C29.2862103,43.1671759 28.9417125,43.2321869 28.5480578,43.2321869 C28.1606976,43.2321869 27.8177984,43.1671759 27.5194601,43.0376515 C27.220922,42.9080277 26.9702419,42.7276294 26.7670202,42.496656 C26.5636985,42.2657821 26.4114321,41.9953838 26.3099211,41.6853617 C26.2082103,41.37524 26.1574549,41.0399303 26.1574549,40.679333 C26.1574549,40.3186361 26.2082103,39.9817334 26.3099211,39.668625" id="Fill-19" fill="#FEFEFE" mask="url(#mask-2)"></path>
                    <path d="M32.5195441,38.2213075 L32.5195441,38.9426018 L32.5386273,38.9426018 C32.9068044,38.3858761 33.4370393,38.1072146 34.1291322,38.1072146 C34.4339648,38.1072146 34.7101225,38.1707323 34.9578053,38.2971704 C35.2053881,38.423708 35.379935,38.6388518 35.4815458,38.9426018 C35.646701,38.6767832 35.8641103,38.4712965 36.1340734,38.3256438 C36.4038368,38.1801903 36.7006764,38.1072146 37.0245923,38.1072146 C37.2721751,38.1072146 37.4959788,38.1343938 37.6960033,38.1881549 C37.8960279,38.2418164 38.0674775,38.3256438 38.2103521,38.4394381 C38.3531269,38.5534314 38.4642294,38.7003783 38.5435599,38.8808761 C38.6229902,39.0611748 38.6627553,39.2779115 38.6627553,39.5309867 L38.6627553,43.1278009 L37.8531655,43.1278009 L37.8531655,39.9105996 C37.8531655,39.7586748 37.8403767,39.6163075 37.8149989,39.4834978 C37.7896212,39.3506881 37.741963,39.2353009 37.6721243,39.1370376 C37.6022855,39.039073 37.5054705,38.9615177 37.3816791,38.9045708 C37.2578876,38.8477235 37.0974284,38.8191504 36.9008009,38.8191504 C36.5007518,38.8191504 36.1864275,38.9330442 35.957828,39.1608319 C35.7292286,39.3886195 35.6149288,39.6922699 35.6149288,40.0718827 L35.6149288,43.1278009 L34.805339,43.1278009 L34.805339,39.9105996 C34.805339,39.7525022 34.7911514,39.6068496 34.7624766,39.4739403 C34.7340016,39.3411305 34.6846449,39.2257434 34.614906,39.1275796 C34.5449674,39.029615 34.4513495,38.9536527 34.3339525,38.899792 C34.2163557,38.8461305 34.0656878,38.8191504 33.8815493,38.8191504 C33.6465555,38.8191504 33.4449323,38.8665398 33.2767798,38.9615177 C33.1085274,39.056396 32.9719472,39.1702898 32.8671392,39.3030996 C32.762431,39.4360088 32.6862978,39.5735973 32.6386396,39.7159646 C32.5909814,39.8583319 32.5672023,39.9770044 32.5672023,40.0718827 L32.5672023,43.1278009 L31.7577124,43.1278009 L31.7577124,38.2213075 L32.5195441,38.2213075 Z" id="Fill-20" fill="#FEFEFE" mask="url(#mask-2)"></path>
                    <path d="M43.4962454,39.9626881 C43.4357984,39.744458 43.3438791,39.5499226 43.2200876,39.3790819 C43.0962962,39.2082412 42.9374356,39.0722456 42.7438054,38.9709956 C42.5500754,38.8698451 42.3230745,38.8191704 42.0628028,38.8191704 C41.7897423,38.8191704 41.5580456,38.873031 41.3676126,38.9804535 C41.1770798,39.0880752 41.0214163,39.2288496 40.900922,39.4027765 C40.7802279,39.5769027 40.6928046,39.7745243 40.6389518,39.9959403 C40.5848992,40.2175553 40.5580228,40.4418584 40.5580228,40.6698451 C40.5580228,40.9103761 40.5865977,41.1428429 40.6437476,41.3673451 C40.7007975,41.5919469 40.7913181,41.7897677 40.9152095,41.9605088 C41.0390009,42.1313496 41.1992603,42.2689381 41.3960876,42.3733739 C41.592915,42.4777102 41.8310061,42.5298783 42.110461,42.5298783 C42.389716,42.5298783 42.6231113,42.4762168 42.810447,42.3685951 C42.9976827,42.2609735 43.1486503,42.1187058 43.26295,41.9414934 C43.3772498,41.7644801 43.4595776,41.561781 43.5105329,41.3340929 C43.5612883,41.1063053 43.586766,40.8723451 43.586766,40.6318142 C43.586766,40.4040265 43.5564926,40.1810177 43.4962454,39.9626881 L43.4962454,39.9626881 Z M40.5865977,38.2213274 L40.5865977,38.8855752 L40.605681,38.8855752 C40.7389641,38.6135841 40.9484803,38.4158628 41.2342296,38.2924115 C41.519979,38.1690597 41.8342033,38.1072345 42.1771025,38.1072345 C42.5580684,38.1072345 42.8898773,38.1769248 43.1724294,38.3161062 C43.4547818,38.4553872 43.6898755,38.6435509 43.8772112,38.880896 C44.064447,39.1181416 44.205823,39.3919248 44.3010394,39.7017478 C44.3962559,40.0117699 44.4439141,40.3409071 44.4439141,40.6887611 C44.4439141,41.0368142 44.3977546,41.3658518 44.3058352,41.6757743 C44.213716,41.9857965 44.0739387,42.2562942 43.8867029,42.4870686 C43.6993672,42.7182412 43.4643734,42.9000332 43.1819211,43.0329425 C42.8992691,43.1657522 42.5707572,43.2321571 42.1961858,43.2321571 C42.0754917,43.2321571 41.9405101,43.2194137 41.7914408,43.1942257 C41.6420719,43.1688385 41.4945013,43.1278208 41.3485294,43.0708739 C41.2024575,43.0137279 41.0642787,42.9364712 40.9341928,42.8383075 C40.804007,42.7403429 40.6945031,42.6186836 40.605681,42.4729314 L40.5865977,42.4729314 L40.5865977,44.9973119 L39.7770079,44.9973119 L39.7770079,38.2213274 L40.5865977,38.2213274 Z" id="Fill-21" fill="#FEFEFE" mask="url(#mask-2)"></path>
                    <path d="M48.3106223,40.5938728 C48.2089115,40.6695365 48.0756284,40.7244923 47.9105732,40.7591383 C47.7454181,40.7938838 47.5724698,40.8222577 47.3915285,40.84426 C47.2105872,40.8661626 47.0279474,40.8914502 46.8438089,40.9198241 C46.6596705,40.9480985 46.4946152,40.9937954 46.3486433,41.0566162 C46.2024715,41.1195365 46.083376,41.2092378 45.9914566,41.3258197 C45.8993374,41.442302 45.8533777,41.6012954 45.8533777,41.8027002 C45.8533777,41.9349126 45.8803541,42.0466162 45.9343067,42.13801 C45.9881595,42.2293042 46.0580982,42.3032754 46.143823,42.3600232 C46.2295478,42.4166715 46.32956,42.4575896 46.4438598,42.4827777 C46.5581595,42.5080653 46.6787537,42.5204104 46.8057423,42.5204104 C47.0724084,42.5204104 47.3011078,42.4841715 47.4915408,42.4118927 C47.6819737,42.3395144 47.8375372,42.2481206 47.9582314,42.13801 C48.0787257,42.0277002 48.1677476,41.9081316 48.2248975,41.7791051 C48.2820473,41.6500785 48.3106223,41.5288175 48.3106223,41.415521 L48.3106223,40.5938728 Z M49.6249693,43.1088949 C49.4851919,43.1909303 49.2915618,43.2321471 49.043979,43.2321471 C48.8344628,43.2321471 48.6678089,43.1736073 48.5439176,43.0566272 C48.4201262,42.9396471 48.3581805,42.748198 48.3581805,42.482479 C48.1358755,42.748198 47.8773024,42.9396471 47.5820613,43.0566272 C47.2867204,43.1736073 46.9677003,43.2321471 46.6248011,43.2321471 C46.4024961,43.2321471 46.1914812,43.20676 45.9914566,43.1561847 C45.7914321,43.1056095 45.6183839,43.02676 45.4724119,42.9189392 C45.3262401,42.8115166 45.2104417,42.6707423 45.1247169,42.4966162 C45.0389921,42.3227887 44.9961297,42.1123241 44.9961297,41.865521 C44.9961297,41.5872577 45.0437879,41.3593706 45.1390044,41.1822577 C45.2343208,41.0052445 45.3596109,40.8612843 45.5152743,40.7503772 C45.6708379,40.6398684 45.8485819,40.5558418 46.0486065,40.4989945 C46.2485311,40.4420476 46.4534514,40.3945586 46.6629676,40.3566272 C46.8850727,40.3124237 47.0962875,40.2791715 47.296312,40.2569701 C47.4963365,40.2348684 47.672482,40.2032091 47.8248484,40.1619923 C47.9772147,40.1209746 48.0978089,40.0608418 48.1868309,39.9817931 C48.2756529,39.9026449 48.3201139,39.7870586 48.3201139,39.635333 C48.3201139,39.4583197 48.2867432,39.3159524 48.2201017,39.2082312 C48.1534601,39.1007091 48.0677353,39.0184746 47.9630272,38.9615277 C47.8582191,38.9045808 47.7406223,38.8665498 47.6105364,38.8477334 C47.4803506,38.8288175 47.3517634,38.8191604 47.2247748,38.8191604 C46.8819755,38.8191604 46.5962261,38.8840719 46.3677266,39.0137954 C46.1391271,39.1434192 46.0152358,39.3886294 45.9962524,39.7492268 L45.1866626,39.7492268 C45.1993514,39.4454768 45.2628957,39.1893153 45.3770955,38.9804436 C45.4913953,38.771771 45.6438615,38.6025232 45.8342945,38.4727002 C46.0248273,38.3431759 46.2422366,38.2496914 46.4867222,38.1927445 C46.7311078,38.1359967 46.9929781,38.1072246 47.272433,38.1072246 C47.494638,38.1072246 47.7153444,38.1232533 47.9344522,38.1549126 C48.1534601,38.1863728 48.3518861,38.2510852 48.5296301,38.3488507 C48.7073742,38.4469148 48.850149,38.5841051 48.9582542,38.7609192 C49.0661595,38.9375343 49.1202121,39.1681095 49.1202121,39.4520476 L49.1202121,41.9711515 C49.1202121,42.1606095 49.1312025,42.2994923 49.1535828,42.3879989 C49.1756635,42.4762069 49.2501981,42.5204104 49.3772866,42.5204104 C49.4471253,42.5204104 49.5297528,42.5077666 49.6249693,42.482479 L49.6249693,43.1088949 Z" id="Fill-22" fill="#FEFEFE" mask="url(#mask-2)"></path>
                    <path d="M50.9772331,38.2213075 L50.9772331,39.2558097 L50.9963164,39.2558097 C51.1930438,38.8570819 51.4344321,38.5629889 51.7200815,38.3730332 C52.0058309,38.183177 52.3677134,38.0947699 52.805929,38.1072146 L52.805929,38.9615177 C52.4820131,38.9615177 52.2058554,39.0058208 51.9772559,39.094427 C51.7487564,39.1830332 51.5644181,39.3126571 51.4248405,39.4834978 C51.285163,39.6543385 51.1834522,39.8616173 51.1201078,40.105135 C51.0564636,40.3487522 51.0248913,40.628708 51.0248913,40.9450022 L51.0248913,43.1278009 L50.2153015,43.1278009 L50.2153015,38.2213075 L50.9772331,38.2213075 Z" id="Fill-23" fill="#FEFEFE" mask="url(#mask-2)"></path>
                    <path d="M56.329718,40.5938728 C56.2279073,40.6695365 56.0946242,40.7244923 55.9298687,40.7591383 C55.7646137,40.7938838 55.5915655,40.8222577 55.4107241,40.84426 C55.2298827,40.8661626 55.047143,40.8914502 54.8630046,40.9198241 C54.6787662,40.9480985 54.5138109,40.9937954 54.367739,41.0566162 C54.2216671,41.1195365 54.1025716,41.2092378 54.0106522,41.3258197 C53.918533,41.442302 53.8726733,41.6012954 53.8726733,41.8027002 C53.8726733,41.9349126 53.8994498,42.0466162 53.9535024,42.13801 C54.007455,42.2293042 54.0772938,42.3032754 54.1631185,42.3600232 C54.2488433,42.4166715 54.3488556,42.4575896 54.4630554,42.4827777 C54.5772552,42.5080653 54.6978494,42.5204104 54.8250379,42.5204104 C55.091604,42.5204104 55.3203034,42.4841715 55.5107364,42.4118927 C55.7011693,42.3395144 55.8568328,42.2481206 55.9773271,42.13801 C56.0979213,42.0277002 56.1868433,41.9081316 56.2439932,41.7791051 C56.3013429,41.6500785 56.329718,41.5288175 56.329718,41.415521 L56.329718,40.5938728 Z M57.644065,43.1088949 C57.5043876,43.1909303 57.3107574,43.2321471 57.0632745,43.2321471 C56.8536584,43.2321471 56.6870046,43.1736073 56.5631132,43.0566272 C56.4393218,42.9396471 56.377576,42.748198 56.377576,42.482479 C56.1550712,42.748198 55.896498,42.9396471 55.6011571,43.0566272 C55.3058161,43.1736073 54.9869958,43.2321471 54.6438968,43.2321471 C54.4216917,43.2321471 54.2106768,43.20676 54.0106522,43.1561847 C53.8107276,43.1056095 53.6376794,43.02676 53.4916075,42.9189392 C53.3455357,42.8115166 53.2297372,42.6707423 53.1440124,42.4966162 C53.0582876,42.3227887 53.0154252,42.1123241 53.0154252,41.865521 C53.0154252,41.5872577 53.0630834,41.3593706 53.1582,41.1822577 C53.2535164,41.0052445 53.3789064,40.8612843 53.5344699,40.7503772 C53.6899336,40.6398684 53.8677776,40.5558418 54.0678021,40.4989945 C54.2677267,40.4420476 54.472647,40.3945586 54.6821632,40.3566272 C54.9041684,40.3124237 55.1154831,40.2791715 55.3154077,40.2569701 C55.5154323,40.2348684 55.6915777,40.2032091 55.844044,40.1619923 C55.9965103,40.1209746 56.1170046,40.0608418 56.2060265,39.9817931 C56.2949485,39.9026449 56.3393096,39.7870586 56.3393096,39.635333 C56.3393096,39.4583197 56.3060387,39.3159524 56.2393972,39.2082312 C56.1726557,39.1007091 56.0869309,39.0184746 55.9822228,38.9615277 C55.8774147,38.9045808 55.759718,38.8665498 55.6298319,38.8477334 C55.4994463,38.8288175 55.3710589,38.8191604 55.2440703,38.8191604 C54.901271,38.8191604 54.6155216,38.8840719 54.3868223,39.0137954 C54.1582228,39.1434192 54.0344314,39.3886294 54.0153481,39.7492268 L53.2058582,39.7492268 C53.2185471,39.4454768 53.2820913,39.1893153 53.3962911,38.9804436 C53.5106908,38.771771 53.6631571,38.6025232 53.85359,38.4727002 C54.044023,38.3431759 54.2613323,38.2496914 54.5059178,38.1927445 C54.7503034,38.1359967 55.0122736,38.1072246 55.2916286,38.1072246 C55.5139336,38.1072246 55.7344401,38.1232533 55.9535479,38.1549126 C56.1726557,38.1863728 56.3709818,38.2510852 56.5488258,38.3488507 C56.7265699,38.4469148 56.8693446,38.5841051 56.9774498,38.7609192 C57.0852552,38.9375343 57.1394077,39.1681095 57.1394077,39.4520476 L57.1394077,41.9711515 C57.1394077,42.1606095 57.150498,42.2994923 57.1727784,42.3879989 C57.1948591,42.4762069 57.2693937,42.5204104 57.3965821,42.5204104 C57.4664209,42.5204104 57.5489485,42.5077666 57.644065,42.482479 L57.644065,43.1088949 Z" id="Fill-24" fill="#FEFEFE" mask="url(#mask-2)"></path>
                    <path d="M58.9440247,41.3862511 C59.0043718,41.6045808 59.096491,41.7990166 59.2202824,41.9698573 C59.3440738,42.140698 59.5027346,42.2768927 59.6963648,42.3781427 C59.8900948,42.4792931 60.1169958,42.5298684 60.3774673,42.5298684 C60.650328,42.5298684 60.8821246,42.4762069 61.0727574,42.3685852 C61.2631904,42.2609635 61.4187539,42.1202887 61.5395479,41.9462622 C61.6599423,41.7723352 61.7473656,41.5747135 61.8014182,41.3530985 C61.8551711,41.1316825 61.8823472,40.9071803 61.8823472,40.6792931 C61.8823472,40.4388617 61.8536724,40.2063949 61.7966224,39.9817931 C61.7394726,39.7572909 61.6488521,39.5593706 61.5251606,39.3886294 C61.4012692,39.2177887 61.24081,39.0802002 61.0442824,38.9757644 C60.8472552,38.8713285 60.6091641,38.8191604 60.3298091,38.8191604 C60.0568486,38.8191604 59.8250519,38.873021 59.634519,38.9804436 C59.4440861,39.0880653 59.2916198,39.2305321 59.17742,39.4075454 C59.0631202,39.5847577 58.9804927,39.7871582 58.9297372,40.0150454 C58.8788819,40.2427334 58.853604,40.4768927 58.853604,40.717125 C58.853604,40.9450122 58.8836777,41.168021 58.9440247,41.3862511 L58.9440247,41.3862511 Z M61.8536724,43.1278108 L61.8536724,42.4634635 L61.834689,42.4634635 C61.701406,42.7356538 61.4917898,42.9317821 61.2061404,43.0518485 C60.9202911,43.1720144 60.6060668,43.2321471 60.2631676,43.2321471 C59.8822018,43.2321471 59.5502929,43.1624569 59.2679406,43.023375 C58.9851886,42.8842931 58.7503946,42.6976228 58.5630589,42.4634635 C58.3758231,42.2295033 58.2344472,41.9573131 58.1392307,41.6472909 C58.0440142,41.3374679 57.9964559,41.0083308 57.9964559,40.6602777 C57.9964559,40.3124237 58.0424156,39.9832865 58.1344349,39.6733639 C58.2264542,39.3633418 58.3662316,39.092844 58.5535672,38.8618706 C58.740803,38.6309967 58.9757968,38.4475122 59.258349,38.311417 C59.5409011,38.1754215 59.869413,38.1072246 60.2441842,38.1072246 C60.3710729,38.1072246 60.5074533,38.1200675 60.6536251,38.1453551 C60.799597,38.1707423 60.9456689,38.2134524 61.0917408,38.2733861 C61.2378126,38.3336184 61.3758915,38.4127666 61.5060773,38.5107312 C61.6361632,38.6089945 61.7456671,38.7305542 61.834689,38.8760077 L61.8536724,38.8760077 L61.8536724,36.3516272 L62.6632622,36.3516272 L62.6632622,43.1278108 L61.8536724,43.1278108 Z" id="Fill-25" fill="#FEFEFE" mask="url(#mask-2)"></path>
                    <path d="M64.4871124,41.4717113 C64.5663429,41.7026847 64.6759467,41.8957268 64.8157241,42.0505387 C64.9553017,42.2057489 65.1188582,42.3243219 65.3061939,42.4065564 C65.4933297,42.4888905 65.6919555,42.5299082 65.9014717,42.5299082 C66.1109879,42.5299082 66.3093139,42.4888905 66.4966496,42.4065564 C66.6838854,42.3243219 66.8474419,42.2057489 66.9870195,42.0505387 C67.1266969,41.8957268 67.2363008,41.7026847 67.315831,41.4717113 C67.3949616,41.2409369 67.4349266,40.9767113 67.4349266,40.679333 C67.4349266,40.3820542 67.3949616,40.1178285 67.315831,39.8867555 C67.2363008,39.6558816 67.1266969,39.4614458 66.9870195,39.3031493 C66.8474419,39.1451515 66.6838854,39.0248861 66.4966496,38.9426515 C66.3093139,38.860417 66.1109879,38.8191007 65.9014717,38.8191007 C65.6919555,38.8191007 65.4933297,38.860417 65.3061939,38.9426515 C65.1188582,39.0248861 64.9553017,39.1451515 64.8157241,39.3031493 C64.6759467,39.4614458 64.5663429,39.6558816 64.4871124,39.8867555 C64.4075821,40.1178285 64.3681167,40.3820542 64.3681167,40.679333 C64.3681167,40.9767113 64.4075821,41.2409369 64.4871124,41.4717113 M63.6632351,39.668625 C63.764746,39.355417 63.9172123,39.0834259 64.120434,38.8523529 C64.3234559,38.6215785 64.5743358,38.4394878 64.8727741,38.3066781 C65.1712123,38.1737688 65.5140116,38.1072644 65.9014717,38.1072644 C66.2951264,38.1072644 66.6395243,38.1737688 66.9348652,38.3066781 C67.2300063,38.4394878 67.4790878,38.6215785 67.6823096,38.8523529 C67.8856312,39.0834259 68.0379975,39.355417 68.1396084,39.668625 C68.2410195,39.9817334 68.2919748,40.3186361 68.2919748,40.679333 C68.2919748,41.0399303 68.2410195,41.37524 68.1396084,41.6853617 C68.0379975,41.9953838 67.8856312,42.2657821 67.6823096,42.496656 C67.4790878,42.7276294 67.2300063,42.9080277 66.9348652,43.0376515 C66.6395243,43.1671759 66.2951264,43.2321869 65.9014717,43.2321869 C65.5140116,43.2321869 65.1712123,43.1671759 64.8727741,43.0376515 C64.5743358,42.9080277 64.3234559,42.7276294 64.120434,42.496656 C63.9172123,42.2657821 63.764746,41.9953838 63.6632351,41.6853617 C63.5615243,41.37524 63.5108687,41.0399303 63.5108687,40.679333 C63.5108687,40.3186361 63.5615243,39.9817334 63.6632351,39.668625" id="Fill-26" fill="#FEFEFE" mask="url(#mask-2)"></path>
                    <path d="M69.844323,38.2213075 L69.844323,39.2558097 L69.8634063,39.2558097 C70.0601337,38.8570819 70.301522,38.5629889 70.5872713,38.3730332 C70.8730207,38.183177 71.2350032,38.0947699 71.6730189,38.1072146 L71.6730189,38.9615177 C71.349203,38.9615177 71.0729453,39.0058208 70.8444457,39.094427 C70.6158463,39.1830332 70.4316079,39.3126571 70.2919304,39.4834978 C70.1522529,39.6543385 70.0505422,39.8616173 69.9871977,40.105135 C69.9237534,40.3487522 69.8919812,40.628708 69.8919812,40.9450022 L69.8919812,43.1278009 L69.0823914,43.1278009 L69.0823914,38.2213075 L69.844323,38.2213075 Z" id="Fill-27" fill="#FEFEFE" mask="url(#mask-2)"></path>
                    <path d="M74.16836,38.9330841 L74.16836,38.2213473 L74.9969332,38.2213473 L74.9969332,37.4904956 C74.9969332,37.0919668 75.1127316,36.7898097 75.3445283,36.5842235 C75.576325,36.3786372 75.9144284,36.2757942 76.3589385,36.2757942 C76.4350717,36.2757942 76.5222952,36.2821659 76.6208088,36.2947102 C76.7191225,36.3075531 76.8064459,36.3263695 76.8826791,36.3515575 L76.8826791,37.0539358 C76.8128403,37.0286482 76.7365073,37.0111261 76.6540796,37.0018673 C76.571552,36.9923097 76.4953188,36.987531 76.42558,36.987531 C76.2286528,36.987531 76.0762864,37.0254624 75.9683811,37.1014248 C75.8603758,37.1773872 75.806523,37.3228407 75.806523,37.537885 L75.806523,38.2213473 L76.7588876,38.2213473 L76.7588876,38.9330841 L75.806523,38.9330841 L75.806523,43.1278407 L74.9969332,43.1278407 L74.9969332,38.9330841 L74.16836,38.9330841 Z" id="Fill-28" fill="#FEFEFE" mask="url(#mask-2)"></path>
                    <path d="M77.3968081,43.1278208 L78.3966847,43.1278208 L78.3966847,38.221427 L77.3968081,38.221427 L77.3968081,43.1278208 Z M77.3969314,37.33875 L78.3968081,37.33875 L78.3968081,36.3516372 L77.3969314,36.3516372 L77.3969314,37.33875 Z" id="Fill-29" fill="#FEFEFE" mask="url(#mask-2)"></path>
                    <path d="M80.0920738,38.2213075 L80.0920738,38.9994491 L80.1110571,38.9994491 C80.4476619,38.4048916 80.9808941,38.1072146 81.7111535,38.1072146 C82.0349695,38.1072146 82.3048328,38.1517168 82.5207434,38.2402235 C82.7365541,38.3289292 82.9113008,38.452281 83.0445839,38.6102788 C83.177867,38.7685752 83.2714848,38.9567389 83.3255374,39.1750686 C83.3792903,39.3931991 83.4064664,39.635323 83.4064664,39.901042 L83.4064664,43.1278009 L82.5968766,43.1278009 L82.5968766,39.8061637 C82.5968766,39.5024137 82.5079546,39.2620819 82.3302105,39.0848695 C82.1523665,38.9078562 81.9079809,38.8191504 81.5969537,38.8191504 C81.349271,38.8191504 81.134959,38.8570819 80.9540177,38.9330442 C80.7729765,39.0090066 80.6221089,39.1165288 80.5016145,39.2558097 C80.3809204,39.3948916 80.2902999,39.5579668 80.2301527,39.7444381 C80.1696058,39.931208 80.1398319,40.1353009 80.1398319,40.3566173 L80.1398319,43.1278009 L79.3301422,43.1278009 L79.3301422,38.2213075 L80.0920738,38.2213075 Z" id="Fill-30" fill="#FEFEFE" mask="url(#mask-2)"></path>
                    <path d="M87.5400305,40.5938728 C87.4383197,40.6695365 87.3049367,40.7244923 87.1398815,40.7591383 C86.9748263,40.7938838 86.801878,40.8222577 86.6209367,40.84426 C86.4399954,40.8661626 86.2573557,40.8914502 86.0732172,40.9198241 C85.8890787,40.9480985 85.7240235,40.9937954 85.5779516,41.0566162 C85.4318798,41.1195365 85.3127842,41.2092378 85.2208649,41.3258197 C85.1287457,41.442302 85.082786,41.6012954 85.082786,41.8027002 C85.082786,41.9349126 85.1096624,42.0466162 85.163715,42.13801 C85.2176677,42.2293042 85.2876063,42.3032754 85.3732312,42.3600232 C85.458956,42.4166715 85.5589683,42.4575896 85.673268,42.4827777 C85.7875677,42.5080653 85.9080621,42.5204104 86.0351506,42.5204104 C86.3018167,42.5204104 86.530516,42.4841715 86.7210489,42.4118927 C86.9113819,42.3395144 87.0669455,42.2481206 87.1876396,42.13801 C87.3082338,42.0277002 87.3970559,41.9081316 87.4543057,41.7791051 C87.5114556,41.6500785 87.5400305,41.5288175 87.5400305,41.415521 L87.5400305,40.5938728 Z M88.8542777,43.1088949 C88.7146002,43.1909303 88.52097,43.2321471 88.2733872,43.2321471 C88.063871,43.2321471 87.8972172,43.1736073 87.7733259,43.0566272 C87.6495344,42.9396471 87.5876887,42.748198 87.5876887,42.482479 C87.3652838,42.748198 87.1066107,42.9396471 86.8113697,43.0566272 C86.5161287,43.1736073 86.1972084,43.2321471 85.8542093,43.2321471 C85.6319043,43.2321471 85.4208894,43.20676 85.2208649,43.1561847 C85.0208403,43.1056095 84.8477921,43.02676 84.7017202,42.9189392 C84.5556484,42.8115166 84.4399499,42.6707423 84.3541252,42.4966162 C84.2685003,42.3227887 84.2255379,42.1123241 84.2255379,41.865521 C84.2255379,41.5872577 84.2732961,41.3593706 84.3684126,41.1822577 C84.4636291,41.0052445 84.5890191,40.8612843 84.7445826,40.7503772 C84.9001462,40.6398684 85.0779902,40.5558418 85.2780147,40.4989945 C85.4779394,40.4420476 85.6827597,40.3945586 85.8922759,40.3566272 C86.1143811,40.3124237 86.3256957,40.2791715 86.5257202,40.2569701 C86.7256449,40.2348684 86.9017904,40.2032091 87.0543565,40.1619923 C87.2067229,40.1209746 87.3272172,40.0608418 87.4162391,39.9817931 C87.5050612,39.9026449 87.5496221,39.7870586 87.5496221,39.635333 C87.5496221,39.4583197 87.5162514,39.3159524 87.4496098,39.2082312 C87.3829683,39.1007091 87.2971436,39.0184746 87.1924354,38.9615277 C87.0876273,38.9045808 86.9700305,38.8665498 86.8399446,38.8477334 C86.709559,38.8288175 86.5811716,38.8191604 86.4542829,38.8191604 C86.1113837,38.8191604 85.8256344,38.8840719 85.5971348,39.0137954 C85.3684354,39.1434192 85.244644,39.3886294 85.2255607,39.7492268 L84.4160708,39.7492268 C84.4286598,39.4454768 84.4923039,39.1893153 84.6066037,38.9804436 C84.7208035,38.771771 84.8732698,38.6025232 85.0637027,38.4727002 C85.2542356,38.3431759 85.4716449,38.2496914 85.7160305,38.1927445 C85.9604161,38.1359967 86.2223863,38.1072246 86.5018412,38.1072246 C86.7240463,38.1072246 86.9447527,38.1232533 87.1637606,38.1549126 C87.3829683,38.1863728 87.5811944,38.2510852 87.7590384,38.3488507 C87.9367825,38.4469148 88.0796571,38.5841051 88.1875625,38.7609192 C88.2955677,38.9375343 88.3496203,39.1681095 88.3496203,39.4520476 L88.3496203,41.9711515 C88.3496203,42.1606095 88.3606107,42.2994923 88.3829911,42.3879989 C88.4050717,42.4762069 88.4796063,42.5204104 88.6066948,42.5204104 C88.6765336,42.5204104 88.7590612,42.5077666 88.8542777,42.482479 L88.8542777,43.1088949 Z" id="Fill-31" fill="#FEFEFE" mask="url(#mask-2)"></path>
                    <path d="M90.2353262,38.2213075 L90.2353262,38.9994491 L90.2541097,38.9994491 C90.5908144,38.4048916 91.1241465,38.1072146 91.854306,38.1072146 C92.1782219,38.1072146 92.4479853,38.1517168 92.6639958,38.2402235 C92.8798065,38.3289292 93.0544533,38.452281 93.1878363,38.6102788 C93.3211194,38.7685752 93.4147372,38.9567389 93.4686899,39.1750686 C93.5225427,39.3931991 93.5496189,39.635323 93.5496189,39.901042 L93.5496189,43.1278009 L92.740129,43.1278009 L92.740129,39.8061637 C92.740129,39.5024137 92.6511071,39.2620819 92.4732631,39.0848695 C92.2956189,38.9078562 92.0511334,38.8191504 91.7401062,38.8191504 C91.4925234,38.8191504 91.2782114,38.8570819 91.0971702,38.9330442 C90.9162289,39.0090066 90.7653613,39.1165288 90.644867,39.2558097 C90.5241728,39.3948916 90.4334524,39.5579668 90.3734051,39.7444381 C90.3128582,39.931208 90.2828845,40.1353009 90.2828845,40.3566173 L90.2828845,43.1278009 L89.4733946,43.1278009 L89.4733946,38.2213075 L90.2353262,38.2213075 Z" id="Fill-32" fill="#FEFEFE" mask="url(#mask-2)"></path>
                    <path d="M97.5784948,39.0754215 C97.3751732,38.9045808 97.1022126,38.8191604 96.7594133,38.8191604 C96.4671697,38.8191604 96.222784,38.873021 96.0260566,38.9804436 C95.8291294,39.0880653 95.6719672,39.2305321 95.5545702,39.4075454 C95.4368734,39.5847577 95.3529471,39.7888507 95.3021916,40.0197246 C95.2512363,40.2507976 95.2260584,40.4894369 95.2260584,40.73624 C95.2260584,40.9639281 95.2529348,41.1855431 95.3069874,41.4004878 C95.3608401,41.6157312 95.4449663,41.8069812 95.559366,41.9746361 C95.6736657,42.14249 95.822735,42.2768927 96.0069734,42.3781427 C96.1910119,42.4792931 96.4101197,42.5298684 96.6640969,42.5298684 C97.0642459,42.5298684 97.3767718,42.4254325 97.6021741,42.2166604 C97.8275763,42.0078883 97.9656552,41.7137954 98.0165106,41.334083 L98.8452836,41.334083 C98.7561618,41.9414834 98.5292608,42.409802 98.1641811,42.7386405 C97.7990014,43.0677777 97.3022372,43.2321471 96.6735886,43.2321471 C96.2989173,43.2321471 95.9672082,43.1719148 95.6782617,43.0518485 C95.3894151,42.9317821 95.1481267,42.7610409 94.9544966,42.5394259 C94.7607665,42.31801 94.6147946,42.0538838 94.5164808,41.746948 C94.4178673,41.4401117 94.3688103,41.1032091 94.3688103,40.73624 C94.3688103,40.369271 94.4164685,40.0260962 94.511685,39.7065166 C94.6069015,39.3871361 94.7511749,39.1086737 94.9451048,38.8713285 C95.1386351,38.6339834 95.381522,38.4475122 95.6736657,38.311417 C95.9655097,38.1754215 96.3053117,38.1072246 96.6926719,38.1072246 C96.9720268,38.1072246 97.2338971,38.1404768 97.4784826,38.2069812 C97.7227683,38.2733861 97.938579,38.3764281 98.1259146,38.51551 C98.3132503,38.6546914 98.4673152,38.8303108 98.5880093,39.0421692 C98.7087034,39.2543263 98.7847367,39.5057091 98.8166088,39.7966162 L97.9785439,39.7966162 C97.9148997,39.4867931 97.7816167,39.2462622 97.5784948,39.0754215" id="Fill-33" fill="#FEFEFE" mask="url(#mask-2)"></path>
                    <path d="M99.6639755,43.1278208 L100.663852,43.1278208 L100.663852,38.221427 L99.6639755,38.221427 L99.6639755,43.1278208 Z M99.6642222,37.33875 L100.663975,37.33875 L100.663975,36.3516372 L99.6642222,36.3516372 L99.6642222,37.33875 Z" id="Fill-34" fill="#FEFEFE" mask="url(#mask-2)"></path>
                    <path d="M104.887993,39.6638263 C104.814957,39.4929856 104.716543,39.3459392 104.592752,39.2224878 C104.468961,39.0991361 104.322789,39.0010719 104.154536,38.9282954 C103.986284,38.8556184 103.800547,38.8191803 103.597425,38.8191803 C103.387809,38.8191803 103.198975,38.8556184 103.030722,38.9282954 C102.86247,39.0010719 102.717897,39.100729 102.597402,39.227167 C102.476708,39.3539038 102.381492,39.5009502 102.311653,39.6686051 C102.241714,39.8361604 102.20055,40.0149657 102.187961,40.2047223 L105.01648,40.2047223 C105.003791,40.0149657 104.960829,39.834667 104.887993,39.6638263 M105.083122,42.8145232 C104.714945,43.0930852 104.251252,43.232167 103.692642,43.232167 C103.298987,43.232167 102.957686,43.1688485 102.66884,43.0424104 C102.379793,42.9159723 102.137006,42.7386604 101.940279,42.5109723 C101.743252,42.2831847 101.595681,42.0111936 101.497167,41.6947002 C101.398754,41.3785055 101.343202,41.0336383 101.330713,40.6602976 C101.330713,40.2870564 101.387863,39.945375 101.502063,39.6353529 C101.616363,39.3254303 101.776622,39.0563263 101.983041,38.8286383 C102.18936,38.6008507 102.433846,38.4237378 102.716398,38.2971007 C102.99885,38.1707622 103.308279,38.1072445 103.645083,38.1072445 C104.083099,38.1072445 104.44658,38.1974436 104.735527,38.3778418 C105.024473,38.5581405 105.25627,38.7876206 105.430817,39.0658838 C105.605464,39.3443462 105.726158,39.6480962 105.792799,39.9770343 C105.859441,40.3060719 105.886317,40.6192799 105.873728,40.9165586 L102.187961,40.9165586 C102.181367,41.1317024 102.206845,41.3356958 102.263995,41.5286383 C102.321245,41.7216803 102.413064,41.8926206 102.540152,42.0411604 C102.667041,42.1897998 102.829199,42.3084723 103.025926,42.396979 C103.222754,42.4856847 103.45455,42.5298883 103.721316,42.5298883 C104.064116,42.5298883 104.345069,42.4508396 104.564077,42.2926427 C104.783185,42.1345454 104.927558,41.8940144 104.997497,41.5713485 L105.797595,41.5713485 C105.68939,42.121802 105.451399,42.5363595 105.083122,42.8145232" id="Fill-35" fill="#FEFEFE" mask="url(#mask-2)"></path>
                    <path d="M107.311747,38.2213075 L107.311747,39.2558097 L107.33073,39.2558097 C107.527458,38.8570819 107.768846,38.5629889 108.054695,38.3730332 C108.340445,38.183177 108.702327,38.0947699 109.140443,38.1072146 L109.140443,38.9615177 C108.816627,38.9615177 108.540369,39.0058208 108.31187,39.094427 C108.08327,39.1830332 107.899032,39.3126571 107.759454,39.4834978 C107.619677,39.6543385 107.518066,39.8616173 107.454622,40.105135 C107.391177,40.3487522 107.359405,40.628708 107.359405,40.9450022 L107.359405,43.1278009 L106.549815,43.1278009 L106.549815,38.2213075 L107.311747,38.2213075 Z" id="Fill-36" fill="#FEFEFE" mask="url(#mask-2)"></path>
                    <path d="M110.154763,41.4717113 C110.234093,41.7026847 110.343597,41.8957268 110.483375,42.0505387 C110.623052,42.2057489 110.786509,42.3243219 110.973845,42.4065564 C111.16098,42.4888905 111.359706,42.5299082 111.569122,42.5299082 C111.778738,42.5299082 111.976965,42.4888905 112.1643,42.4065564 C112.351536,42.3243219 112.515192,42.2057489 112.65477,42.0505387 C112.794448,41.8957268 112.904051,41.7026847 112.983482,41.4717113 C113.062612,41.2409369 113.102577,40.9767113 113.102577,40.679333 C113.102577,40.3820542 113.062612,40.1178285 112.983482,39.8867555 C112.904051,39.6558816 112.794448,39.4614458 112.65477,39.3031493 C112.515192,39.1451515 112.351536,39.0248861 112.1643,38.9426515 C111.976965,38.860417 111.778738,38.8191007 111.569122,38.8191007 C111.359706,38.8191007 111.16098,38.860417 110.973845,38.9426515 C110.786509,39.0248861 110.623052,39.1451515 110.483375,39.3031493 C110.343597,39.4614458 110.234093,39.6558816 110.154763,39.8867555 C110.075233,40.1178285 110.035867,40.3820542 110.035867,40.679333 C110.035867,40.9767113 110.075233,41.2409369 110.154763,41.4717113 M109.330986,39.668625 C109.432497,39.355417 109.584863,39.0834259 109.788185,38.8523529 C109.991206,38.6215785 110.241987,38.4394878 110.540525,38.3066781 C110.838963,38.1737688 111.181762,38.1072644 111.569122,38.1072644 C111.962777,38.1072644 112.307275,38.1737688 112.602516,38.3066781 C112.897757,38.4394878 113.146838,38.6215785 113.35006,38.8523529 C113.553282,39.0834259 113.705748,39.355417 113.807359,39.668625 C113.90877,39.9817334 113.959725,40.3186361 113.959725,40.679333 C113.959725,41.0399303 113.90877,41.37524 113.807359,41.6853617 C113.705748,41.9953838 113.553282,42.2657821 113.35006,42.496656 C113.146838,42.7276294 112.897757,42.9080277 112.602516,43.0376515 C112.307275,43.1671759 111.962777,43.2321869 111.569122,43.2321869 C111.181762,43.2321869 110.838963,43.1671759 110.540525,43.0376515 C110.241987,42.9080277 109.991206,42.7276294 109.788185,42.496656 C109.584863,42.2657821 109.432497,41.9953838 109.330986,41.6853617 C109.229275,41.37524 109.178519,41.0399303 109.178519,40.679333 C109.178519,40.3186361 109.229275,39.9817334 109.330986,39.668625" id="Fill-37" fill="#FEFEFE" mask="url(#mask-2)"></path>
                </g>
            </g>
        </g>
    </g>
</svg>