<?xml version="1.0" encoding="utf-8"?>
<!-- Generator: Adobe Illustrator 16.0.0, SVG Export Plug-In . SVG Version: 6.00 Build 0)  -->
<!DOCTYPE svg PUBLIC "-//W3C//DTD SVG 1.1//EN" "http://www.w3.org/Graphics/SVG/1.1/DTD/svg11.dtd">
<svg version="1.1" id="Capa_1" xmlns="http://www.w3.org/2000/svg" xmlns:xlink="http://www.w3.org/1999/xlink" x="0px" y="0px"
	 width="110px" height="109px" viewBox="0 0 110 109" enable-background="new 0 0 110 109" xml:space="preserve">
<path fill-rule="evenodd" clip-rule="evenodd" fill="#333333" d="M96.33,87.91l9.57-8.98v25.97H81.1l8.59-9.96L77.97,82.05
	c1.96-1.95,4.3-4.1,6.25-5.86L96.33,87.91z M35,82.44l-11.91,12.5l8.98,9.96H6.1V79.32l9.76,8.59l12.89-11.72
	C30.9,78.14,33.05,80.29,35,82.44z M72.5,38.5v33h-33v-33H72.5z M73.48,34.39c1.76,0,3.32,1.96,3.32,3.52v33.98
	c-0.19,1.57-1.95,3.91-3.91,3.91H38.91c-0.39-0.19-1.17-0.19-1.56-0.59c-0.59-0.19-1.96-1.75-1.96-2.14V36.93
	c0.2-1.17,1.76-2.73,2.93-2.54H73.48z M105.9,5.1v24.8l-9.96-9.18L83.05,32.83c-1.95-1.95-4.1-4.1-5.86-6.25l11.72-11.91L79.93,5.1
	H105.9z M30.9,5.1l-8.59,9.37l11.91,12.11l-6.64,6.25L15.47,21.31L6.1,29.9V5.1H30.9z"/>
</svg>
