<svg xmlns="http://www.w3.org/2000/svg" xmlns:xlink="http://www.w3.org/1999/xlink" width="40" height="40" viewBox="0 0 40 40">
    <defs>
        <path id="a" d="M0 0h40v40H0z"/>
    </defs>
    <g fill="none" fill-rule="evenodd">
        <g>
            <mask id="b" fill="#fff">
                <use xlink:href="#a"/>
            </mask>
            <path fill="#FFF" d="M20 37.25c-9.523 0-17.25-7.727-17.25-17.25S10.477 2.75 20 2.75 37.25 10.477 37.25 20 29.523 37.25 20 37.25M20 0C8.953 0 0 8.953 0 20s8.953 20 20 20 20-8.953 20-20S31.047 0 20 0" mask="url(#b)"/>
        </g>
        <path fill="#FFF" d="M26.07 23.98c-.16 1.782-1.879 3.075-3.316 3.075H19.41c-.539-.035-1.238-.297-1.75-.715-.96-.746-1.531-1.809-1.887-2.586-.605-1.36-1.878-3.914-1.878-4.016 0-.32.289-.68.609-.68 1.078 0 1.976 2.915 2.035 3.047l1.02-.39V13.43c.035-.29.355-.516.609-.516.191 0 .605.195.605.516v7.148h1.211v-3.2c.094-.323.352-.55.637-.55.16 0 .64.16.64.485v3.496h1.212v-2.266c.03-.355.351-.484.605-.484.285 0 .606.226.606.578v2.718h1.21v-1.52c.094-.358.415-.42.575-.42.191 0 .605.16.605.448v4.117h-.004zm-.191-5.726c-.129-.035-.32-.035-.387-.035-.094 0-.57.129-.664.129-.066 0-.066-.094-.066-.13-.094-.448-.606-1.1-1.051-1.23a4.39 4.39 0 0 0-.672-.129c-.094 0-.547.13-.64.13-.067 0-.512-1.325-1.817-1.325-.066 0-.191-.035-.285 0-.102 0-.227.094-.29.094-.093 0-.066-.031-.066-.031v-2.329c0-.84-.796-1.648-1.78-1.648-.864 0-1.63.52-1.786 1.648l-.035 5.567c-.672-.774-1.145-1.07-1.817-1.07-.734 0-1.625.484-1.785 1.554v.578c0 .297 1.625 3.496 2.012 4.305.254.52.605 1.23 1.016 1.781 1.12 1.489 2.52 2.106 3.73 2.137h3.156c2.012 0 4.305-1.555 4.59-4.238v-4.239c.008-.613-.82-1.488-1.363-1.52z"/>
    </g>
</svg>
