<?xml version="1.0" encoding="utf-8"?>
<!-- Generator: Adobe Illustrator 16.0.0, SVG Export Plug-In . SVG Version: 6.00 Build 0)  -->
<!DOCTYPE svg PUBLIC "-//W3C//DTD SVG 1.1//EN" "http://www.w3.org/Graphics/SVG/1.1/DTD/svg11.dtd">
<svg version="1.1" id="Capa_1" xmlns="http://www.w3.org/2000/svg" xmlns:xlink="http://www.w3.org/1999/xlink" x="0px" y="0px"
	 width="80px" height="80px" viewBox="-53.96 48.332 80 80" enable-background="new -53.96 48.332 80 80" xml:space="preserve">
<rect x="-66.21" y="43.5" display="none" fill="#FF0000" width="100.5" height="98.165"/>
<path display="none" fill="#FFFFFF" d="M-20.829,16.5c0-22.09,17.91-40,40-40c22.09,0,40,17.91,40,40s-17.909,40-40,40
	C-2.919,56.5-20.829,38.59-20.829,16.5z M-16.289,16.5c0-19.58,15.88-35.46,35.46-35.46c19.58,0,35.46,15.88,35.46,35.46
	S38.75,51.96,19.171,51.96C-0.409,51.96-16.289,36.08-16.289,16.5z"/>
<path display="none" fill="#FFFFFF" d="M25.361,5.28c1.83,1.47,2.89,3.31,3.65,5c0.53,1.03,0.829,2.21,1.06,3.31
	c0.23,0.89,0.311,2.65,0.311,2.87c0,0.15-0.311,1.92-0.311,2.87c0,1.771-3.34,8.61-6,8.61c-1.369,0-2.199-1.101-2.199-2.211
	c0-1.25,0.909-1.689,2.049-3.229c0.461-0.67,0.841-1.33,1.061-1.99c0.38-0.96,0.609-2.28,0.84-3.159V15.51
	c-0.23-0.89-0.46-2.21-0.84-3.09c-0.38-0.96-0.83-1.99-1.74-2.87C22.25,8.44,21.872,8,21.872,7.12c0-1.33,1.06-2.14,2.199-2.14
	C24.531,4.98,24.833,4.84,25.361,5.28z M19.062,3.66v25.61c-0.31,1.17-1.14,1.689-1.98,1.689c-0.15,0-0.76-0.15-1.06-0.37
	c-2.51-1.69-4.94-3.53-7.44-5.37h-6.99c-1.07-0.15-1.75-1.18-1.75-1.91V9.25c-0.07-0.37,0.84-1.47,1.52-1.47h7.06
	c2.59-1.84,5.09-3.75,7.68-5.52c0.22-0.22,0.76-0.22,0.98-0.22C17.841,2.04,19.062,2.63,19.062,3.66z M32.583,1.45
	c3.26,3.46,4.709,6.99,5.469,10.6c0.23,0.88,0.451,2.65,0.451,2.87v3.09c0,0.22-0.221,1.99-0.451,2.94
	c-0.229,1.109-0.609,2.279-0.989,3.39c-1.06,2.79-2.81,5.88-5.771,8.46c-0.31,0.29-1.069,0.37-1.22,0.37
	c-1.44,0-2.28-1.25-2.28-2.28c0-0.149,0.08-0.959,0.381-1.18c1.979-2.141,3.57-4.27,4.41-6.33c0.83-1.91,1.289-4.12,1.439-6.109
	V15.65c-0.07-1.03-0.23-2.2-0.529-3.23c-0.15-0.74-0.381-1.48-0.611-2.06c-0.83-2.29-2.279-4.71-4.549-6.92
	c-0.381-0.37-0.541-1.03-0.541-1.47c0-1.33,1.221-2.14,2.28-2.14C31.211-0.17,31.441,0.2,32.583,1.45z"/>
<path display="none" fill="#FFFFFF" d="M16.721,3.36v14.3h2.42v-6.4c0.19-0.65,0.699-1.1,1.27-1.1c0.32,0,1.28,0.32,1.28,0.97v6.99
	h2.42v-4.53c0.06-0.71,0.7-0.97,1.21-0.97c0.57,0,1.211,0.45,1.211,1.16v5.44h2.42v-3.039c0.189-0.721,0.83-0.841,1.149-0.841
	c0.38,0,1.21,0.32,1.21,0.9v8.22c-0.32,3.561-3.76,6.15-6.63,6.15h-6.69c-1.08-0.07-2.48-0.59-3.5-1.43
	c-1.92-1.49-3.06-3.621-3.77-5.171c-1.21-2.72-3.76-7.829-3.76-8.03c0-0.64,0.58-1.359,1.22-1.359c2.16,0,3.95,5.83,4.07,6.09
	l2.04-0.779V3.36c0.07-0.58,0.71-1.03,1.22-1.03C15.892,2.33,16.721,2.72,16.721,3.36z M19.071,3.3v4.66c0,0-0.06,0.06,0.13,0.06
	c0.13,0,0.38-0.19,0.58-0.19c0.19-0.07,0.44,0,0.57,0c2.61,0,3.5,2.65,3.63,2.65c0.189,0,1.09-0.26,1.28-0.26
	c0.12,0,0.89,0.13,1.34,0.26c0.89,0.26,1.91,1.56,2.101,2.46c0,0.07,0,0.26,0.129,0.26c0.19,0,1.141-0.26,1.33-0.26
	c0.131,0,0.51,0,0.771,0.07c1.08,0.06,2.739,1.81,2.739,3.04v8.471C33.101,29.89,28.511,33,24.491,33h-6.31
	c-2.42-0.06-5.22-1.29-7.46-4.271c-0.82-1.1-1.52-2.52-2.03-3.56c-0.77-1.62-4.02-8.021-4.02-8.61V15.4
	c0.32-2.14,2.1-3.11,3.57-3.11c1.34,0,2.29,0.59,3.63,2.14l0.07-11.13c0.31-2.26,1.84-3.3,3.57-3.3C17.481,0,19.071,1.62,19.071,3.3
	z"/>
<g>
	<path fill="#FFFFFF" stroke="#FFFFFF" stroke-linecap="round" stroke-linejoin="round" stroke-miterlimit="10" d="M-13.849,79.412
		c-3.871,0-7.74,2.06-8.691,7.81v1.84c0,0.15,0.221,1.33,0.431,1.99c1.54,4.2,5.19,5.82,8.261,5.82c4.749,0,8.689-3.83,8.689-8.77
		C-5.16,83.162-9.1,79.412-13.849,79.412z M-13.85,94.372c-2.05,0-4.819-1.18-5.84-3.98c-0.149-0.449-0.37-1.33-0.37-1.479v-1.54
		c0.51-3.62,3.43-5.53,6.21-5.53c3.58,0,6.21,2.95,6.21,6.261C-7.64,91.712-10.49,94.372-13.85,94.372z"/>
	<path fill="#FFFFFF" stroke="#FFFFFF" stroke-linecap="round" stroke-linejoin="round" stroke-miterlimit="10" d="M0.321,76.382
		H-4.21c-3.76-3.5-4.449-4.05-4.67-4.05H-19.33c-0.221,0.069-2.37,2.03-4.67,4.05h-4.24c-1.83-0.07-4.46,2.58-4.391,4.43v16.431
		c0,1.771,2.34,4.28,4.17,4.42H0.47c1.021,0,3.36-1.69,3.649-2.72c0.221-0.67,0.44-1.18,0.59-1.771v-16.36
		C4.709,79.183,2.661,76.382,0.321,76.382z M2.22,97.022C2,98.353,0.62,99.231-0.33,99.231h-27.33c-1.09,0.15-2.48-1.33-2.48-2.209
		v-16.07c0.141-1.32,1.53-2.13,2.48-2.13h4.609c0.291-0.15,1.931-1.81,4.601-3.98h8.84c1.28,1.29,4.42,3.94,4.42,3.94l4.86,0.04
		c1.02-0.15,2.55,1.18,2.55,2.28V97.022z"/>
</g>
<path display="none" fill="#FFFFFF" stroke="#FFFFFF" stroke-width="2" stroke-linecap="round" stroke-linejoin="round" stroke-miterlimit="10" d="
	M25.491,18.94c0,3.609-2.85,6.26-6.21,6.26c-2.05,0-4.82-1.18-5.84-3.98c-0.15-0.439-0.37-1.32-0.37-1.47V18.2
	c0.51-3.61,3.43-5.53,6.21-5.53C22.861,12.67,25.491,15.62,25.491,18.94z M27.971,18.94c0,4.939-3.94,8.77-8.69,8.77
	c-3.07,0-6.72-1.62-8.26-5.82c-0.21-0.67-0.43-1.85-0.43-1.99v-1.85c0.95-5.74,4.82-7.81,8.69-7.81
	C24.031,10.24,27.971,14,27.971,18.94z M23.521,5.67c1.28,1.29,4.42,3.95,4.42,3.95l4.86,0.03c1.02-0.14,2.55,1.18,2.55,2.29v15.92
	c-0.22,1.32-1.601,2.209-2.55,2.209H5.471c-1.09,0.15-2.48-1.329-2.48-2.209V11.79c0.14-1.33,1.53-2.14,2.48-2.14h4.61
	c0.29-0.14,1.93-1.8,4.6-3.98H23.521z M24.25,3.17c0.221,0,0.91,0.55,4.67,4.05h4.531c2.34,0,4.389,2.8,4.389,4.42V28
	c-0.149,0.59-0.369,1.11-0.59,1.771C36.961,30.8,34.622,32.5,33.601,32.5H4.671c-1.83-0.149-4.17-2.649-4.17-4.42V11.64
	c-0.07-1.84,2.56-4.49,4.39-4.42h4.24c2.3-2.03,4.45-3.98,4.67-4.05H24.25z"/>
<polygon display="none" fill="#FFFFFF" stroke="#FFFFFF" stroke-miterlimit="10" points="30.431,4.96 34.181,4.96 34.181,0.4 
	38.481,0.4 38.481,-3.3 34.181,-3.3 34.181,-7.86 30.431,-7.86 30.431,-3.3 26.142,-3.3 26.142,0.4 30.431,0.4 "/>
<polygon display="none" fill="#FFFFFF" points="5.622,-3.54 40.352,16.58 5.622,36.7 "/>
<path fill="#FFFFFF" d="M-13.96,48.332c-22.088,0-40,17.91-40,40s17.91,40,40,40c22.091,0,40-17.91,40-40S8.13,48.332-13.96,48.332z
	 M-13.96,122.832c-19.049,0-34.5-15.45-34.5-34.5s15.451-34.5,34.5-34.5c19.051,0,34.5,15.45,34.5,34.5S5.09,122.832-13.96,122.832z
	"/>
</svg>
