<svg xmlns="http://www.w3.org/2000/svg" xmlns:xlink="http://www.w3.org/1999/xlink" width="40" height="40" viewBox="0 0 40 40">
    <defs>
        <path id="a" d="M0 0h40v40H0z"/>
    </defs>
    <g fill="none" fill-rule="evenodd">
        <g>
            <mask id="b" fill="#fff">
                <use xlink:href="#a"/>
            </mask>
            <path fill="#FFF" d="M20 37.25c-9.527 0-17.25-7.727-17.25-17.25S10.473 2.75 20 2.75c9.523 0 17.25 7.727 17.25 17.25S29.523 37.25 20 37.25M20 0C8.953 0 0 8.953 0 20s8.953 20 20 20 20-8.953 20-20S31.043 0 20 0" mask="url(#b)"/>
        </g>
        <path fill="#FFF" d="M20.055 23.02c-1.024 0-2.41-.59-2.922-1.989-.074-.226-.184-.664-.184-.738v-.77c.254-1.808 1.715-2.765 3.106-2.765 1.789 0 3.105 1.476 3.105 3.129a3.094 3.094 0 0 1-3.105 3.133m0-7.48c-1.934 0-3.871 1.03-4.344 3.905v.922c0 .074.11.664.215.996.77 2.102 2.594 2.91 4.129 2.91 2.375 0 4.343-1.914 4.343-4.386 0-2.473-1.968-4.348-4.343-4.348"/>
        <path fill="#FFF" d="M28.09 24.344c-.11.664-.801 1.105-1.274 1.105H13.148c-.546.074-1.238-.664-1.238-1.105v-8.035c.07-.66.766-1.067 1.238-1.067h2.305c.145-.074.965-.906 2.3-1.988h4.423c.64.644 2.21 1.969 2.21 1.969l2.43.02c.512-.075 1.274.589 1.274 1.14v7.96zm-.95-10.32h-2.265C22.996 12.273 22.648 12 22.539 12h-5.227c-.109.035-1.183 1.016-2.335 2.023h-2.122c-.914-.035-2.23 1.29-2.195 2.215v8.215c0 .887 1.172 2.14 2.086 2.211h14.465c.512 0 1.68-.844 1.824-1.36.11-.335.219-.59.297-.886v-8.18c0-.812-1.023-2.215-2.191-2.215z"/>
    </g>
</svg>
