<?xml version="1.0" encoding="UTF-8"?>
<svg width="40px" height="40px" viewBox="0 0 40 40" version="1.1" xmlns="http://www.w3.org/2000/svg" xmlns:xlink="http://www.w3.org/1999/xlink">
    <!-- Generator: Sketch 51 (57462) - http://www.bohemiancoding.com/sketch -->
    <title>audio</title>
    <desc>Created with Sketch.</desc>
    <defs>
        <polygon id="path-1" points="0 0 40 0 40 39.9999844 0 39.9999844"></polygon>
    </defs>
    <g id="Page-1" stroke="none" stroke-width="1" fill="none" fill-rule="evenodd">
        <g id="audio">
            <mask id="mask-2" fill="white">
                <use xlink:href="#path-1"></use>
            </mask>
            <g id="Clip-2"></g>
            <path d="M20,37.2499844 C10.4765625,37.2499844 2.75,29.5234219 2.75,19.9999844 C2.75,10.4765859 10.4765625,2.74998437 20,2.74998437 C29.5234375,2.74998437 37.25,10.4765859 37.25,19.9999844 C37.25,29.5234219 29.5234375,37.2499844 20,37.2499844 M20,-1.5625e-05 C8.953125,-1.5625e-05 0,8.95314844 0,19.9999844 C0,31.0468594 8.953125,39.9999844 20,39.9999844 C31.046875,39.9999844 40,31.0468594 40,19.9999844 C40,8.95314844 31.046875,-1.5625e-05 20,-1.5625e-05" id="Fill-1" fill="#FFFFFF" mask="url(#mask-2)"></path>
            <path d="M18.5714388,13.7856985 L18.5714388,25.9285702 C18.5714388,26.3191956 18.2477777,26.6428567 17.8571522,26.6428567 C17.6674199,26.6428567 17.4888482,26.5647316 17.3549195,26.4308029 L13.6383972,22.7142806 L10.7142866,22.7142806 C10.3236611,22.7142806 10,22.3906195 10,21.999994 L10,17.7142746 C10,17.3236492 10.3236611,16.9999881 10.7142866,16.9999881 L13.6383972,16.9999881 L17.3549195,13.2834658 C17.4888482,13.1495371 17.6674199,13.071412 17.8571522,13.071412 C18.2477777,13.071412 18.5714388,13.3950731 18.5714388,13.7856985 Z M22.8571582,19.8571343 C22.8571582,20.9732071 22.1763538,22.0557977 21.1272454,22.4799053 C21.0379596,22.5245482 20.937513,22.535709 20.8482272,22.535709 C20.4576018,22.535709 20.1339407,22.2232086 20.1339407,21.8214224 C20.1339407,20.9732071 21.4285851,21.2075824 21.4285851,19.8571343 C21.4285851,18.5066863 20.1339407,18.7410616 20.1339407,17.8928463 C20.1339407,17.4910601 20.4576018,17.1785597 20.8482272,17.1785597 C20.937513,17.1785597 21.0379596,17.1897204 21.1272454,17.2343634 C22.1763538,17.6473103 22.8571582,18.7410616 22.8571582,19.8571343 Z M25.7143044,19.8571343 C25.7143044,22.122762 24.3526957,24.2321396 22.2544789,25.113837 C22.1651931,25.1473192 22.0647465,25.1696407 21.9754607,25.1696407 C21.5736745,25.1696407 21.2500134,24.8459796 21.2500134,24.4553541 C21.2500134,24.1428537 21.4285851,23.9307999 21.6852818,23.7968712 C21.9866214,23.640621 22.2656396,23.5066923 22.5334971,23.3057992 C23.6384091,22.5022268 24.2857313,21.2187431 24.2857313,19.8571343 C24.2857313,18.4955256 23.6384091,17.2120419 22.5334971,16.4084695 C22.2656396,16.2075764 21.9866214,16.0736477 21.6852818,15.9173975 C21.4285851,15.7834688 21.2500134,15.5714149 21.2500134,15.2589146 C21.2500134,14.8682891 21.5736745,14.544628 21.9643,14.544628 C22.0647465,14.544628 22.1651931,14.5669495 22.2544789,14.6004316 C24.3526957,15.4821291 25.7143044,17.5915066 25.7143044,19.8571343 Z M28.5714507,19.8571343 C28.5714507,23.2834777 26.5290376,26.38616 23.3817124,27.736608 C23.2924266,27.7700902 23.19198,27.7924117 23.0915335,27.7924117 C22.700908,27.7924117 22.3772469,27.4687506 22.3772469,27.0781251 C22.3772469,26.754464 22.5446578,26.5758924 22.8125153,26.4196422 C22.9687655,26.3303563 23.1473371,26.2745527 23.314748,26.1852669 C23.6272484,26.017856 23.9397488,25.8281236 24.2299277,25.6160698 C26.060287,24.2656217 27.1428776,22.1339228 27.1428776,19.8571343 C27.1428776,17.5803459 26.060287,15.4486469 24.2299277,14.0981989 C23.9397488,13.8861451 23.6272484,13.6964127 23.314748,13.5290018 C23.1473371,13.439716 22.9687655,13.3839123 22.8125153,13.2946265 C22.5446578,13.1383763 22.3772469,12.9598047 22.3772469,12.6361436 C22.3772469,12.2455181 22.700908,11.921857 23.0915335,11.921857 C23.19198,11.921857 23.2924266,11.9441785 23.3817124,11.9776607 C26.5290376,13.3281087 28.5714507,16.430791 28.5714507,19.8571343 Z" id="volume-up---FontAwesome" fill="#FFFFFF" mask="url(#mask-2)"></path>
        </g>
    </g>
</svg>