<svg xmlns="http://www.w3.org/2000/svg" xmlns:xlink="http://www.w3.org/1999/xlink" width="40" height="40" viewBox="0 0 40 40">
    <defs>
        <path id="a" d="M0 0h40v40H0z"/>
    </defs>
    <g fill="none" fill-rule="evenodd">
        <g>
            <mask id="b" fill="#fff">
                <use xlink:href="#a"/>
            </mask>
            <path fill="#FFF" d="M20 37.25c-9.523 0-17.25-7.727-17.25-17.25S10.477 2.75 20 2.75 37.25 10.477 37.25 20 29.523 37.25 20 37.25M20 0C8.953 0 0 8.953 0 20s8.953 20 20 20 20-8.953 20-20S31.047 0 20 0" mask="url(#b)"/>
        </g>
        <path fill="#FFF" d="M20.055 24.352c-1.024 0-2.41-.59-2.922-1.989-.074-.218-.184-.66-.184-.734v-.774c.254-1.804 1.715-2.765 3.106-2.765 1.789 0 3.105 1.476 3.105 3.137a3.093 3.093 0 0 1-3.105 3.125m0-7.48c-1.934 0-3.871 1.034-4.344 3.905v.926c0 .07.11.66.215.996.77 2.102 2.594 2.91 4.129 2.91 2.375 0 4.343-1.914 4.343-4.386a4.319 4.319 0 0 0-4.343-4.352"/>
        <path fill="#FFF" d="M28.09 25.68c-.11.66-.801 1.105-1.274 1.105H13.148c-.546.074-1.238-.664-1.238-1.105v-8.035c.07-.665.766-1.07 1.238-1.07h2.305c.145-.071.965-.9 2.3-1.989h4.423c.64.644 2.21 1.977 2.21 1.977l2.43.015c.512-.07 1.274.59 1.274 1.145v7.957zm-.95-10.32h-2.265c-1.879-1.75-2.227-2.024-2.336-2.024h-5.223c-.109.035-1.183 1.012-2.336 2.023h-2.12c-.915-.035-2.231 1.29-2.196 2.211v8.22c0 .886 1.172 2.136 2.086 2.21h14.465c.512 0 1.68-.852 1.824-1.363.11-.328.219-.59.297-.887v-8.18c0-.808-1.027-2.21-2.195-2.21zM27.504 7.82h-1.875v2.282h-2.145v1.847h2.145v2.281h1.875v-2.28h2.152v-1.848h-2.152z"/>
    </g>
</svg>
