<?xml version="1.0" encoding="utf-8"?>
<!-- Generator: Adobe Illustrator 16.0.0, SVG Export Plug-In . SVG Version: 6.00 Build 0)  -->
<!DOCTYPE svg PUBLIC "-//W3C//DTD SVG 1.1//EN" "http://www.w3.org/Graphics/SVG/1.1/DTD/svg11.dtd">
<svg version="1.1" id="Capa_1" xmlns="http://www.w3.org/2000/svg" xmlns:xlink="http://www.w3.org/1999/xlink" x="0px" y="0px"
	 width="95.6px" height="100px" viewBox="0 0 95.6 100" enable-background="new 0 0 95.6 100" xml:space="preserve">
<g>
	<path fill-rule="evenodd" clip-rule="evenodd" fill="#FFFFFF" d="M2.25,50c0-25.26,20.45-45.74,45.67-45.74
		C73.15,4.26,93.6,24.74,93.6,50S73.15,95.74,47.92,95.74C22.7,95.74,2.25,75.26,2.25,50z"/>
	<path fill-rule="evenodd" clip-rule="evenodd" fill="#333333" d="M33.28,32.56l0.18,14.6c4.08-4.45,8.34-9.61,12.6-14.6H58.3
		L44.46,48.58l14.37,21.36h-12.6l-9.04-13.53c-1.42,1.25-2.66,2.67-3.91,4.1v9.43H23V32.56H33.28z M73.73,25.44
		c0.18,6.77,0,6.94,0,7.12h6.92c-0.18,0.36,0,0.71,0,7.12h-6.92v7.3h-7.27c-0.18-0.18-0.71-6.94-0.71-7.3h-6.57v-3.91
		c1.07-1.07,1.95-2.14,2.84-3.21h3.73c0-0.35,0.35-6.76,0-7.12H73.73z M53.15,4.26C79.23,7.29,93.6,28.82,93.6,48.94
		c0,25.1-21.11,44.85-44.88,44.85c-16.5,0-34.77-9.07-42.4-30.43c-0.35-0.89-0.71-1.78-0.88-2.67c-0.54-2.32-1.25-6.59-1.25-6.95
		v-9.43c0.36-1.96,0.71-4.27,1.07-6.23c1.06-5.16,3.9-11.04,7.8-16.2C19.8,12.8,29.03,7.82,37.19,5.51c2.13-0.54,4.61-0.9,6.92-1.25
		H53.15z"/>
</g>
<path fill-rule="evenodd" clip-rule="evenodd" fill="none" stroke="#333333" stroke-width="8" stroke-linecap="round" stroke-linejoin="round" stroke-miterlimit="10" d="
	M5.9,50c0-23.24,18-42.08,40.2-42.08c22.19,0,40.19,18.84,40.19,42.08s-18,42.08-40.19,42.08C23.9,92.08,5.9,73.24,5.9,50z"/>
</svg>
