<?xml version="1.0" encoding="UTF-8" standalone="no"?>
<svg width="22px" height="21px" viewBox="0 0 22 21" version="1.1" xmlns="http://www.w3.org/2000/svg" xmlns:xlink="http://www.w3.org/1999/xlink">
    <!-- Generator: Sketch 47.1 (45422) - http://www.bohemiancoding.com/sketch -->
    <title>cargando</title>
    <desc>Created with Sketch.</desc>
    <defs></defs>
    <g id="Page-1" stroke="none" stroke-width="1" fill="none" fill-rule="evenodd">
        <g id="Iconografia-galerias" transform="translate(-252.000000, -655.000000)" fill-rule="nonzero" fill="#FFFFFF">
            <g id="cargando" transform="translate(250.000000, 656.000000)">
                <path d="M13.5105595,19 C10.0743494,19 6.89591078,17.1296985 5.21130297,14.1209527 C5.21130297,14.1209527 5.51248251,13.953698 5.53621004,13.9371046 C7.15368216,16.8291775 10.2085149,18.6252326 13.5070279,18.6252326 C18.5324926,18.6252326 22.6220836,14.5310755 22.6220836,9.5 C22.6220836,4.46892445 18.5218978,0.374767399 13.4858383,0.374767399 C9.85043381,0.374767399 6.70360129,2.52029566 5.24309663,5.61361368 C4.68608023,6.79336265 4.32997727,6.65785994 4.91916855,5.42153975 C6.44586923,2.21801156 9.71298825,0 13.4894052,0 C18.733829,0 23,4.2603275 23,9.5 C23,14.7396725 18.7444238,19 13.5105595,19 Z" id="Shape" stroke="#FFFFFF" stroke-width="1.5"></path>
                <path d="M2.52670743,10.3129883 C2.50936022,10.3129883 2.49334741,10.3068647 2.4773346,10.2976794 C2.44530898,10.2762469 2.42529297,10.2379746 2.42529297,10.1966406 L2.42529297,3.43010146 C2.42529297,3.3887674 2.44530898,3.34896422 2.4760002,3.32906264 C2.50669142,3.30763016 2.54805785,3.30763016 2.57874907,3.32906264 L7.37592014,6.63578763 C7.40394256,6.6572201 7.42262417,6.6924306 7.42529297,6.73223377 C7.42529297,6.77356783 7.40661136,6.81184011 7.37592014,6.8317417 L2.58008347,10.2946176 C2.56407066,10.3068647 2.54538905,10.3129883 2.52670743,10.3129883 Z" id="Shape" transform="translate(4.925293, 6.812988) rotate(-255.000000) translate(-4.925293, -6.812988) "></path>
            </g>
        </g>
    </g>
</svg>