<?xml version="1.0" encoding="utf-8"?>
<!-- Generator: Adobe Illustrator 16.0.0, SVG Export Plug-In . SVG Version: 6.00 Build 0)  -->
<!DOCTYPE svg PUBLIC "-//W3C//DTD SVG 1.1//EN" "http://www.w3.org/Graphics/SVG/1.1/DTD/svg11.dtd">
<svg version="1.1" id="Capa_1" xmlns="http://www.w3.org/2000/svg" xmlns:xlink="http://www.w3.org/1999/xlink" x="0px" y="0px"
	 width="895.223px" height="129.552px" viewBox="64.629 318.456 895.223 129.552"
	 enable-background="new 64.629 318.456 895.223 129.552" xml:space="preserve">
<g>
	<path fill="#BB3A2E" d="M183.353,346.818l-0.318-0.479c-3.671-5.426-6.224-8.617-11.33-12.606
		c-0.479,6.702-3.032,14.202-5.745,19.947c3.352,3.511,4.468,4.628,6.543,9.255c0.318,0.639,0.638,1.277,0.798,1.915
		c1.596,3.989,2.713,8.139,3.191,12.606c1.914,16.597-4.947,32.075-16.915,41.969c-1.437-1.437-2.714-3.032-3.989-4.786
		c-8.777-11.81-13.085-32.714-6.064-46.598c0.958-1.914,1.755-2.872,3.032-4.468c2.873-3.83,5.266-7.979,7.021-12.287
		c0.479-1.117,0.958-2.394,1.436-3.511c2.075-5.585,3.192-11.33,3.67-16.915c0-0.639,0.16-1.276,0.16-1.915
		c-22.021-14.362-51.703-14.362-74.043,2.394c-9.255,7.021-16.277,15.958-20.585,26.011c0,0.16-0.16,0.319-0.16,0.319
		c-2.234,5.266-4.627,9.096-5.425,14.521c5.745-2.872,15.958-5.904,20.426-5.904c1.276-4.309,2.395-5.745,5.106-9.734
		c2.872-4.309,6.542-8.139,10.851-11.489c13.404-9.894,30.319-11.809,44.841-6.383c-0.479,1.915-1.275,3.989-2.074,5.904
		c-6.224,14.521-24.416,29.841-41.011,28.404c-5.105-0.639-10.532-0.798-15.958-0.159c-6.543,0.638-13.404,2.553-19.788,5.744
		c-0.638,0.319-1.117,0.639-1.755,0.798c-1.436,26.33,13.404,51.862,39.096,62.873c15.799,6.702,31.438,7.979,47.395,1.596
		c-5.266-3.67-10.532-8.138-14.202-13.562c-9.734,2.232-17.075,0-26.33-3.989c-15.479-6.543-25.532-20.267-28.085-35.586
		c1.915-0.479,3.989-0.957,6.064-1.117c15.638-1.915,37.659,6.063,45,21.063c2.073,4.947,4.627,9.734,7.979,14.202
		c2.873,3.83,1.277,1.915,4.149,5.106c3.351,3.67,7.021,6.861,11.011,9.574c0.479,0.318,1.117,0.798,1.596,1.117
		c23.458-11.969,38.14-37.5,34.947-65.268C192.768,364.691,188.938,354.957,183.353,346.818 M108.033,373.628
		c-1.597-0.319-3.192-0.639-4.788-0.798C104.682,372.989,106.278,373.148,108.033,373.628"/>
	<g>
		<g>
			<path fill="#FFFFFF" d="M242.236,408.096c5.585,2.873,14.362,5.745,23.299,5.745c9.574,0,14.681-3.989,14.681-10.054
				c0-5.744-4.468-9.096-15.479-13.085c-15.318-5.427-25.373-13.883-25.373-27.287c0-15.799,13.245-27.926,35.107-27.926
				c10.372,0,18.191,2.233,23.617,4.627l-4.628,16.915c-3.67-1.755-10.373-4.468-19.31-4.468c-9.096,0-13.403,4.149-13.403,8.937
				c0,5.904,5.266,8.457,17.233,13.085c15.958,6.063,23.618,14.521,23.618,27.606c0,15.479-11.968,28.724-37.341,28.724
				c-10.532,0-21.064-2.713-26.33-5.585L242.236,408.096z"/>
			<path fill="#FFFFFF" d="M370.855,390.383h-34.149v22.021h38.14v17.233h-59.043v-92.714h57.128v17.234h-36.225v19.309h34.149
				V390.383z"/>
			<path fill="#FFFFFF" d="M467.558,394.213c-0.479-11.17-0.798-24.575-0.798-38.139h-0.479
				c-2.872,11.809-6.702,25.054-10.372,35.904l-11.33,36.224h-16.437l-9.895-35.904c-3.031-10.851-6.224-24.096-8.458-36.224h-0.317
				c-0.479,12.447-0.958,26.809-1.597,38.298l-1.596,35.267h-19.309l5.903-92.714h27.927l9.096,30.958
				c2.872,10.691,5.744,22.342,7.819,33.191h0.479c2.553-10.691,5.744-22.979,8.776-33.351l9.894-30.799h27.288l5.106,92.714
				h-20.427L467.558,394.213z"/>
			<path fill="#FFFFFF" d="M526.602,336.925v92.714h-21.064v-92.714H526.602z"/>
			<path fill="#FFFFFF" d="M546.069,429.639v-92.714h13.085l29.683,46.916c6.86,10.851,12.286,20.585,16.596,30.159l0.318-0.159
				c-1.116-12.446-1.437-23.616-1.437-38.139v-38.777h11.33v92.714h-12.128l-29.361-47.075
				c-6.384-10.372-12.605-20.904-17.395-30.957l-0.479,0.159c0.64,11.649,0.958,22.819,0.958,38.298v39.574H546.069L546.069,429.639
				z"/>
			<path fill="#FFFFFF" d="M691.763,411.447c0,6.861,0.159,12.926,0.479,18.19H681.55l-0.64-10.852h-0.318
				c-3.191,5.426-10.213,12.447-22.021,12.447c-10.372,0-22.979-5.744-22.979-29.202v-38.938h12.128v36.862
				c0,12.606,3.829,21.224,14.841,21.224c8.138,0,13.723-5.586,15.957-11.011c0.639-1.756,1.117-3.989,1.117-6.224v-40.853h12.128
				V411.447z"/>
			<path fill="#FFFFFF" d="M718.571,398.521c0.319,16.437,10.691,23.139,22.819,23.139c8.617,0,13.883-1.438,18.352-3.512
				l2.074,8.617c-4.309,1.915-11.489,4.148-22.182,4.148c-20.425,0-32.713-13.404-32.713-33.512
				c0-20.106,11.809-35.902,31.277-35.902c21.702,0,27.447,19.148,27.447,31.275c0,2.555-0.319,4.47-0.479,5.586H718.57
				L718.571,398.521L718.571,398.521z M753.996,389.904c0.159-7.659-3.19-19.628-16.755-19.628
				c-12.288,0-17.554,11.33-18.512,19.628H753.996z"/>
			<path fill="#FFFFFF" d="M785.434,363.096l13.085,37.341c2.234,6.062,3.99,11.488,5.426,17.074h0.479
				c1.437-5.427,3.511-11.012,5.586-17.074l12.925-37.341h12.607l-26.172,66.542h-11.488l-25.373-66.542H785.434z"/>
			<path fill="#FFFFFF" d="M905.754,395.809c0,24.575-17.074,35.268-33.191,35.268c-18.032,0-31.916-13.245-31.916-34.311
				c0-22.34,14.521-35.266,33.033-35.266C892.827,361.5,905.754,375.383,905.754,395.809z M852.935,396.447
				c0,14.521,8.457,25.531,20.266,25.531c11.49,0,20.268-10.852,20.268-25.852c0-11.33-5.585-25.532-19.947-25.532
				C859.157,370.596,852.935,383.841,852.935,396.447z"/>
			<path fill="#FFFFFF" d="M919.318,417.191c3.511,2.395,9.895,4.787,15.957,4.787c8.777,0,12.926-4.469,12.926-9.895
				c0-5.744-3.511-8.936-12.446-12.287c-11.969-4.309-17.554-10.852-17.554-18.83c0-10.691,8.617-19.468,22.979-19.468
				c6.702,0,12.605,1.915,16.437,4.148l-3.031,8.777c-2.554-1.596-7.5-3.83-13.563-3.83c-7.181,0-11.171,4.148-11.171,9.096
				c0,5.426,3.99,7.979,12.606,11.33c11.489,4.469,17.395,10.213,17.395,20.106c0,11.649-9.096,19.947-24.895,19.947
				c-7.341,0-14.043-1.756-18.671-4.469L919.318,417.191z"/>
		</g>
	</g>
</g>
</svg>
