<?xml version="1.0" encoding="UTF-8"?>
<svg width="24px" height="8px" viewBox="0 0 24 8" version="1.1" xmlns="http://www.w3.org/2000/svg" xmlns:xlink="http://www.w3.org/1999/xlink">
    <!-- Generator: Sketch 55.1 (78136) - https://sketchapp.com -->
    <title>logo-cadena SER</title>
    <desc>Created with Sketch.</desc>
    <g id="Page-1-Copy" stroke="none" stroke-width="1" fill="none" fill-rule="evenodd">
        <g id="elpais-ser-desktop-copy-3" transform="translate(-903.000000, -190.000000)" fill="#202020" fill-rule="nonzero">
            <g id="Group" transform="translate(862.000000, 188.000000)">
                <g id="logo-cadena-SER" transform="translate(41.000000, 2.000000)">
                    <path d="M8.51240816,7.59061224 L15.0964898,7.59036735 C15.3352653,7.59036735 15.5289796,7.39959184 15.5289796,7.1642449 L15.5289796,6.63477551 C15.5289796,6.39942857 15.3352653,6.20865306 15.0964898,6.20865306 L9.48171429,6.20865306 L9.48171429,4.6084898 L14.3346122,4.6084898 C14.5733878,4.6084898 14.767102,4.41795918 14.767102,4.18261224 L14.767102,3.65289796 C14.767102,3.41755102 14.5733878,3.22702041 14.3346122,3.22702041 L9.48171429,3.22702041 L9.48171429,1.62661224 L15.0967347,1.62661224 C15.3355102,1.62661224 15.5292245,1.43583673 15.5292245,1.2004898 L15.5292245,0.67077551 C15.5292245,0.435673469 15.3355102,0.244653061 15.0967347,0.244653061 L8.51240816,0.244653061 C8.27387755,0.244653061 8.08040816,0.482204082 8.08040816,0.774857143 L8.08040816,7.06040816 C8.08065306,7.35306122 8.27412245,7.59061224 8.51240816,7.59061224 Z" id="Shape"></path>
                    <path d="M16.5866939,7.59061224 L17.1232653,7.59061224 C17.3620408,7.59061224 17.5557551,7.40008163 17.5557551,7.16473469 L17.5557551,1.62685714 L21.3942857,1.62685714 C21.8404898,1.62857143 22.2017143,1.98612245 22.2017143,2.42718367 C22.2017143,2.65518367 22.1047347,2.86114286 21.9497143,3.00685714 L18.3036735,6.16555102 C18.117551,6.3122449 17.9985306,6.53804082 17.9985306,6.79102041 C17.9985306,7.23281633 18.3614694,7.59085714 18.8093878,7.59085714 L23.3238367,7.59061224 C23.5621224,7.59061224 23.7553469,7.39983673 23.7553469,7.1644898 L23.7553469,6.63502041 C23.7553469,6.39967347 23.5621224,6.20914286 23.3238367,6.20914286 L20.2501224,6.25714286 L22.7603265,4.1397551 L22.7985306,4.10938776 C23.2902857,3.70897959 23.6030204,3.10408163 23.6030204,2.42718367 C23.6030204,1.22889796 22.6229388,0.256408163 21.4109388,0.245632653 L17.1232653,0.245632653 L16.5866939,0.245632653 C16.3479184,0.245632653 16.1546939,0.436163265 16.1546939,0.671510204 L16.1546939,1.20097959 L16.1546939,7.16497959 C16.1546939,7.40008163 16.3479184,7.59061224 16.5866939,7.59061224 Z" id="Shape"></path>
                    <path d="M0.431755102,7.58840816 L5.256,7.58816327 C6.4682449,7.57738776 7.44832653,6.60489796 7.44832653,5.40661224 C7.44832653,4.20832653 6.46873469,3.23510204 5.24938776,3.22481633 L2.20897959,3.22555102 C1.76302041,3.22359184 1.40130612,2.86579592 1.40130612,2.42546939 C1.40130612,1.98465306 1.76253061,1.62685714 2.20897959,1.62538776 L7.01608163,1.62538776 C7.25461224,1.62538776 7.44832653,1.43461224 7.44832653,1.19926531 L7.44832653,0.669795918 C7.44832653,0.43444898 7.25461224,0.243673469 7.01608163,0.243673469 L2.19183673,0.243918367 C0.979591837,0.25444898 0,1.22718367 0,2.42546939 C0,3.624 0.979591837,4.59673469 2.19869388,4.60702041 L5.23910204,4.60628571 C5.68530612,4.6084898 6.04677551,4.96628571 6.04677551,5.40661224 C6.04677551,5.84742857 5.68530612,6.20522449 5.23910204,6.20669388 L0.431755102,6.20669388 C0.19322449,6.20669388 0,6.39746939 0,6.63281633 L0,7.16228571 C0,7.39763265 0.19322449,7.58840816 0.431755102,7.58840816 Z" id="Shape"></path>
                </g>
            </g>
        </g>
    </g>
</svg>