<?xml version="1.0" encoding="UTF-8" standalone="no"?>
<svg width="18px" height="18px" viewBox="0 0 18 18" version="1.1" xmlns="http://www.w3.org/2000/svg" xmlns:xlink="http://www.w3.org/1999/xlink">
    <!-- Generator: Sketch 50.2 (55047) - http://www.bohemiancoding.com/sketch -->
    <title>Group 2</title>
    <desc>Created with Sketch.</desc>
    <defs>
        <linearGradient x1="50%" y1="0%" x2="55.0447398%" y2="171.657427%" id="linearGradient-1">
            <stop stop-color="#EEEEEE" offset="0%"></stop>
            <stop stop-color="#D8D8D8" offset="100%"></stop>
        </linearGradient>
    </defs>
    <g id="Page-1" stroke="none" stroke-width="1" fill="none" fill-rule="evenodd">
        <g id="0001" transform="translate(-384.000000, -336.000000)">
            <g id="Group-2" transform="translate(384.000000, 336.000000)">
                <rect id="Rectangle" fill="url(#linearGradient-1)" x="0" y="0" width="18" height="18" rx="9"></rect>
                <g id="Group" transform="translate(1.000000, 1.000000)">
                    <circle id="Oval" fill="#FFFFFF" opacity="0.615625" cx="8" cy="8" r="8"></circle>
                    <path d="M8.2432328,5.51716545 C7.82179795,5.51716545 7.4741142,5.18001757 7.4741142,4.75858272 C7.4741142,4.34768375 7.82179795,4 8.2432328,4 C8.65413177,4 9.00181552,4.34768375 9.00181552,4.75858272 C9.00181552,5.18001757 8.65413177,5.51716545 8.2432328,5.51716545 Z M9.00181552,6.08610249 L9.00181552,10.1213411 C9.00181552,10.5006325 9.07556662,10.5743836 9.50753734,10.5743836 L9.69718302,10.5743836 L9.69718302,11.196 L7,11.196 L7,10.5743836 L7.21071742,10.5743836 C7.57947291,10.5743836 7.65322401,10.4900966 7.65322401,10.1213411 L7.65322401,7.42415813 C7.65322401,6.90790044 7.49518594,6.82361347 7.0737511,6.82361347 L7,6.82361347 L7,6.08610249 L9.00181552,6.08610249 Z" id="i" fill="#4A4A4A"></path>
                </g>
            </g>
        </g>
    </g>
</svg>