<?xml version="1.0" encoding="utf-8"?>
<!-- Generator: Adobe Illustrator 16.0.0, SVG Export Plug-In . SVG Version: 6.00 Build 0)  -->
<!DOCTYPE svg PUBLIC "-//W3C//DTD SVG 1.1//EN" "http://www.w3.org/Graphics/SVG/1.1/DTD/svg11.dtd">
<svg version="1.1" id="Capa_1" xmlns:sketch="http://www.bohemiancoding.com/sketch/ns"
	 xmlns="http://www.w3.org/2000/svg" xmlns:xlink="http://www.w3.org/1999/xlink" x="0px" y="0px" width="869px" height="231px"
	 viewBox="0 0 869 231" enable-background="new 0 0 869 231" xml:space="preserve">
<title>logo</title>
<desc>Created with Sketch.</desc>
<g id="Page-1_1_" sketch:type="MSPage">
	<g id="logo_1_" transform="translate(0.000000, -1.000000)" sketch:type="MSLayerGroup">
		<g id="Page-1" sketch:type="MSShapeGroup">
			<g id="logo" transform="translate(0.034705, 0.000000)">
				<path id="Fill-1" fill="#FFFFFF" d="M293.513,147.658c-0.771-0.943-2.512-1.793-15.901-2.627
					c-0.621-6.85-2.366-18.645-7.112-36.662c-8.515-32.343-22.702-58.013-42.167-76.3C208.858,13.773,181.446,3.4,146.863,1.24
					c-1.47-0.092-2.995-0.138-4.531-0.138c-22.742,0-47.676,10.241-64.452,17.944c-3.117,1.432-6.275,2.157-9.389,2.157
					c-11.764,0-19.752-10.449-19.83-10.554l-3.042-4.082l0.482,5.064c0.009,0.1,1.004,10.466,2.471,19.253
					c0.534,3.204,1.811,8.126,4.853,13.563c-8.809,9.188-16.448,17.396-24.472,45.228c-5.784,20.061-7.615,44.856-8.15,55.187
					c-10.627,0.666-16.651,1.521-17.91,2.539c-1.497,1.21-1.911,6.842-2.002,8.541c-0.229,4.355,0.242,7.15,1.4,8.305
					c0.924,0.923,2.26,1.367,3.675,1.838c2.212,0.734,4.301,1.43,4.778,3.82c0.577,2.881,1.556,10.521,2.59,18.613
					c1.451,11.347,2.951,23.077,3.845,25.752c1.099,3.293,6.633,14.122,31.753,15.214c11.978,0.519,25.736,1.05,36.968,1.05
					c11.226,0,18.267-0.527,21.525-1.613c3.707-1.236,14.988-4.996,21.524-22.961c4.931-13.553,9.353-23.543,13.141-29.697
					c0.541-0.878,2.754-1.766,5.938-1.766c3.224,0,5.538,0.938,6.081,1.816c3.79,6.154,8.211,16.145,13.142,29.696
					c6.538,17.97,17.817,21.726,21.524,22.962c3.259,1.084,10.302,1.613,21.529,1.613h0.004c11.244,0,24.994-0.531,36.96-1.051
					c25.119-1.094,30.654-11.922,31.753-15.215c0.891-2.666,2.39-14.381,3.851-25.803c1.032-8.066,2.007-15.686,2.583-18.564
					c0.459-2.289,2.21-2.865,4.43-3.596c1.452-0.479,2.954-0.973,4.032-2.07C296.784,161.38,294.9,149.354,293.513,147.658
					 M166.522,167.587c1.79-6.704,7.677-10.815,17.499-12.218c9.946-1.42,72.95-2.389,76.355-2.438
					c0.914,0.142,6.957,1.217,9.783,4.851c3.014,3.875,3.136,7.781,3.14,7.906c-0.681,16.222-1.889,41.178-2.42,43.438
					c-1.661,7.056-7.533,10.608-20.943,12.672c-5.843,0.898-17.314,1.457-29.94,1.457c-12.37,0-22.163-0.554-24.947-1.411
					c-5.797-1.784-15.915-8.821-19.222-18.263c-0.467-1.336-1.018-2.852-1.655-4.614
					C170.498,188.824,164.945,173.498,166.522,167.587 M31.958,144.41c0.587-6.135,1.606-15.801,3.214-28.128
					c3.519-26.958,14.994-45.047,18.427-49.949c2.127-3.035,5.882-5.868,11.164-8.421c7.746,6.419,17.87,11.094,30.1,13.902
					c3.708,0.851,7.77,1.283,12.073,1.283c35.442,0,79.904-29.127,80.213-29.357c0.199-0.087,4.917-2.112,10.835-2.112
					c4.508,0,8.5,1.164,11.867,3.458c11.379,7.755,28.25,23.971,38.346,44.149c9.183,18.353,13.96,44.176,15.686,55.217
					c-6.354-0.128-15.322-0.197-25.392-0.197c-21.208,0-46.333,0.316-53.321,0.924c-10.487,0.912-20.989,7.293-23.391,8.834
					l-27.354-0.051c-2.399-1.539-12.902-7.922-23.396-8.833c-6.981-0.606-32.11-0.925-53.325-0.925
					C47.424,144.203,38.328,144.275,31.958,144.41 M122.021,198.93c-0.609,1.683-1.172,3.234-1.649,4.602
					c-3.308,9.441-13.424,16.478-19.222,18.262c-2.786,0.855-12.579,1.41-24.947,1.41c-12.626,0-24.1-0.56-29.941-1.456
					c-13.409-2.063-19.28-5.616-20.942-12.669c-0.53-2.254-1.737-27.195-2.42-43.379c0-0.039,0.068-4.021,3.141-7.968
					c2.844-3.655,9.102-4.743,9.782-4.851c2.235,0.033,66.45,1.023,76.355,2.438c9.821,1.401,15.708,5.513,17.497,12.218
					C131.254,173.452,125.698,188.783,122.021,198.93"/>
				<path id="Fill-2" fill="#FFFFFF" d="M579.889,201.232c0-25.17,12.59-102.074,12.59-105.221
					c0-20.972-17.836-25.863-34.626-25.863c14.467,31.484,2.64,75.963,0.633,116.879c-0.369,0.42-0.617,1.043-0.617,1.969
					c0,6.641-11.54,23.768-30.779,23.768c-1.746,0-12.589,0.35-15.386-9.09c32.876,0,41.97-23.767,41.97-33.906
					c0-20.972-11.891-28.312-31.479-28.312c-23.434,0-40.224,20.624-40.224,47.54c0,5.018,0.621,9.591,1.829,13.674
					c-3.566,3.318-7.497,6.247-11.262,6.247c-2.443,0-2.098-2.442-2.098-2.794c0-13.282,5.248-62.57,8.05-88.787
					c49.665-1.75,52.809-3.845,54.911-4.896c10.141-2.795,18.187-9.435,18.187-20.273c0-5.243-1.401-10.486-2.447-14.68
					l-2.098-7.338c-10.146,18.525-50.369,25.165-67.155,26.915c-2.802-25.171-32.881-22.023-42.321-22.023
					c7.343,5.243,8.741,17.825,8.741,24.818c-12.728,0-81.382-1.574-85.141-1.182c-2.802-25.171-31.659-23.636-41.101-23.636
					c7.344,5.243,8.741,17.825,8.741,24.818c-19.933,0-39.172,9.088-39.172,17.126c0,6.646,4.713,10.01,5.246,10.486
					c8.395-11.185,22.734-9.083,33.926-9.083c5.6,69.556-4.546,109.405,13.642,106.612c13.369,0,22.975-9.117,28.889-17.43
					c2.479,12.074,8.507,20.574,22.161,20.574c8.396,0,16.785-4.196,24.133-10.836c0,6.64,1.047,13.631,12.59,13.631
					c3.494,0,5.598,0,6.646-0.345c1.051-0.353,1.75-0.353,2.097-0.7c-8.043-6.645,5.6-63.621,4.199-69.217
					c0-18.172-19.238-15.377-27.979-15.377c5.593,18.178,6.996,68.859-19.939,68.859c-3.144,0-6.292,0-6.292-9.436
					c0-8.389,1.398-21.67,3.847-33.207c1.047-6.643,2.099-13.633,3.844-20.975c0-17.125-19.933-14.682-27.976-14.682
					c4.737,14.018-0.227,41.641,1.486,63.028c-4.43,4.479-9.928,10.027-15.113,10.027c-2.445,0-2.097-2.442-2.097-2.794
					c0-12.969,5.169-62.344,8.021-89.07c16.957-6.848,75.188,1.335,85.344,1.335c5.599,69.556-4.547,109.405,13.642,106.612
					c12.027,0,21.013-7.381,27.002-14.915c5.537,9.537,15.591,14.915,29.645,14.915c18.902,0,35.293-4.559,41.848-21.906
					c1.27,14.078,7.734,28.898,23.543,28.898c2.449,0,4.195-0.699,4.548-2.098c0-1.401-1.751-2.799-2.804-4.196
					C579.537,216.262,579.889,203.674,579.889,201.232 M506.456,185.497c0-19.575,5.595-27.612,13.643-27.612
					c5.594,0,8.742,5.594,8.742,12.234c0,12.583-12.591,17.127-22.036,19.922C506.804,188.643,506.456,187.246,506.456,185.497"/>
				<path id="Fill-3" fill="#FFFFFF" d="M592.128,70.147c15.739,34.254,0.346,83.892,0.346,127.586
					c0,15.382,5.946,34.257,23.787,34.257c2.451,0,4.194-0.698,4.549-2.094c0-1.403-1.753-2.801-2.804-4.198
					c-4.194-9.435-3.843-22.024-3.843-24.466c0-25.17,12.592-102.074,12.592-105.222C626.755,75.04,608.916,70.147,592.128,70.147"
					/>
				<path id="Fill-4" fill="#FFFFFF" d="M700.186,160.678c0-18.172-19.241-15.377-27.981-15.377
					c5.593,18.178,6.996,68.861-19.941,68.861c-3.142,0-6.29,0-6.29-9.438c0-8.389,1.397-21.67,3.849-33.209
					c1.044-6.64,2.096-13.631,3.841-20.973c0-17.127-19.934-14.682-27.977-14.682c8.392,24.816-13.641,92.283,24.834,92.283
					c8.394,0,16.785-4.197,24.133-10.836c0,6.639,1.047,13.631,12.591,13.631c3.496,0,5.598,0,6.643-0.345
					c1.053-0.353,1.753-0.353,2.099-0.698C687.942,223.248,701.585,166.273,700.186,160.678"/>
				<path id="Fill-5" fill="#FFFFFF" d="M767.32,172.567c-4.196,0-7.344,0.345-11.191,0.345c-5.598-4.189-10.146-5.24-20.986-13.631
					c2.446-3.846,5.946-5.941,4.195-15.729c-2.448-6.643-8.394-9.09-13.986-9.09c-11.198,0-16.444,9.09-15.394,18.877
					c0,1.397,0.7,15.031,16.439,24.471c-36.024,11.53-25.88,55.228,12.242,52.084c17.489-1.75,34.626-9.791,34.626-27.619
					c0-4.542-1.051-9.087-3.495-13.633c24.833,2.449,47.914,12.59,65.751,22.723c10.145,5.943,19.938,12.583,29.032,19.574
					c3.849-7.338,4.895-16.428,1.052-23.42C843.916,172.912,802.299,172.567,767.32,172.567 M724.651,145.301
					c0-0.698,0.7-1.05,2.444-1.05c6.645,0,4.201,6.991,3.148,10.839C727.448,151.941,725.697,148.449,724.651,145.301
					 M732.341,217.66c-4.195,0-12.937-5.243-11.89-14.685c0-3.495,3.147-10.485,23.434-13.28
					C752.98,202.275,748.432,219.403,732.341,217.66"/>
				<path id="Fill-6" fill="#FFFFFF" d="M58.83,200.352v-29.79c0-1.214,1.275-2.007,2.365-1.472l29.807,14.648
					c1.213,0.595,1.225,2.318,0.02,2.934l-29.808,15.141C60.123,202.366,58.83,201.574,58.83,200.352"/>
				<path id="Fill-7" fill="#FFFFFF" d="M208.613,200.352v-29.79c0-1.214,1.274-2.007,2.363-1.472l29.808,14.648
					c1.214,0.595,1.224,2.318,0.021,2.934l-29.808,15.141C209.906,202.366,208.613,201.574,208.613,200.352"/>
			</g>
		</g>
	</g>
</g>
</svg>
