<?xml version="1.0" encoding="utf-8"?>
<!-- Generator: Adobe Illustrator 16.0.0, SVG Export Plug-In . SVG Version: 6.00 Build 0)  -->
<!DOCTYPE svg PUBLIC "-//W3C//DTD SVG 1.1//EN" "http://www.w3.org/Graphics/SVG/1.1/DTD/svg11.dtd">
<svg version="1.1" id="Capa_1" xmlns="http://www.w3.org/2000/svg" xmlns:xlink="http://www.w3.org/1999/xlink" x="0px" y="0px"
	 width="257.504px" height="95.625px" viewBox="0 0 257.504 95.625" enable-background="new 0 0 257.504 95.625"
	 xml:space="preserve">
<g>
	<g>
		<defs>
			<rect id="SVGID_1_" width="257.504" height="95.625"/>
		</defs>
		<clipPath id="SVGID_2_">
			<use xlink:href="#SVGID_1_"  overflow="visible"/>
		</clipPath>
		<path clip-path="url(#SVGID_2_)" fill="#CD908C" d="M5.65,10.668c6.97,3.487,20.005,10.087,24.513,11.041
			c8.532,1.813,15.839,1.112,20.002,0.482c-3.654,2.546-9.801,4.399-17.716,3.985C22.86,25.675,12.171,21.592,5.65,10.668"/>
		<path clip-path="url(#SVGID_2_)" fill="#9E1C3B" d="M50.193,22.17l-0.046,0.265c-1.791,11.028-8.026,23.574-27.611,20.382
			C2.669,39.581,1.69,25.051,4.892,12.529c0.181-0.728,0.382-1.448,0.596-2.159c1.097,1.297,2.292,2.599,3.578,3.871
			c5.927,5.867,13.811,11.049,23.403,11.552c7.915,0.414,13.374-1.104,17.139-3.273C49.805,22.402,50.002,22.287,50.193,22.17"/>
		<path clip-path="url(#SVGID_2_)" fill="none" stroke="#9E1C3B" stroke-width="0.876" d="M50.193,22.17l-0.046,0.265
			c-1.791,11.028-8.026,23.574-27.611,20.382C2.669,39.581,1.69,25.051,4.892,12.529c0.181-0.728,0.382-1.448,0.596-2.159
			c1.097,1.297,2.292,2.599,3.578,3.871c5.927,5.867,13.811,11.049,23.403,11.552c7.915,0.414,13.374-1.104,17.139-3.273
			C49.805,22.402,50.002,22.287,50.193,22.17z"/>
		<path clip-path="url(#SVGID_2_)" fill="none" stroke="#FFFFFF" stroke-width="1.397" stroke-miterlimit="3.864" d="M42.868,1.194
			C32.824,7.693,24.56,8.525,6.974,4.886c4.959,9.508,26.442,9.6,40,3.363C39.535,22.301,2.99,14.485,1.506,20.234
			C-1,30.143,52.907,57.615,50.396,22.168C45.968,7.657,3.578,29.849,11.85,39.892c9.452,10.338,20.726,0.211,17.132,20.236
			c-2.076,11.567,1.46,25.829,0.219,31.62c-7.438,3.305-15.937-1.104-15.937-1.104c8.263,5.196,25.028,3.739,30.397,1.67"/>
		<path clip-path="url(#SVGID_2_)" fill="#FFFFFF" d="M77.543,78.589H79.5c-0.135-1.077-0.461-2.023-0.977-2.848
			c-0.502-0.827-1.133-1.515-1.9-2.073c-0.754-0.576-1.596-1.007-2.535-1.295c-0.921-0.29-1.871-0.432-2.85-0.432
			c-1.611,0-3.029,0.297-4.253,0.89c-1.214,0.577-2.222,1.364-3.024,2.362c-0.81,0.979-1.411,2.109-1.816,3.396
			c-0.398,1.285-0.603,2.637-0.603,4.058c0,1.419,0.204,2.771,0.603,4.058c0.405,1.284,1.007,2.416,1.816,3.396
			c0.803,0.978,1.811,1.765,3.024,2.361c1.224,0.574,2.642,0.862,4.253,0.862c1.213,0,2.301-0.193,3.28-0.578
			c0.997-0.383,1.86-0.931,2.593-1.64c0.729-0.71,1.324-1.574,1.783-2.59s0.757-2.156,0.893-3.426h-1.96
			c-0.093,0.925-0.313,1.787-0.659,2.591c-0.346,0.79-0.795,1.478-1.352,2.073c-0.559,0.596-1.221,1.064-1.985,1.411
			c-0.768,0.344-1.63,0.515-2.593,0.515c-1.36,0-2.533-0.259-3.51-0.775c-0.979-0.517-1.783-1.2-2.418-2.043
			c-0.611-0.862-1.072-1.83-1.377-2.906c-0.291-1.096-0.434-2.197-0.434-3.31c0-1.129,0.143-2.233,0.434-3.307
			c0.305-1.079,0.766-2.037,1.377-2.881c0.635-0.862,1.439-1.555,2.418-2.071c0.977-0.517,2.149-0.779,3.51-0.779
			c0.75,0,1.457,0.115,2.134,0.346c0.688,0.211,1.312,0.529,1.867,0.95c0.577,0.422,1.056,0.95,1.438,1.584
			C77.084,77.102,77.368,77.802,77.543,78.589"/>
	</g>
	<polygon fill="#FFFFFF" points="81.619,72.373 81.619,92.921 95.082,92.921 95.082,91.253 83.574,91.253 83.574,72.373 	"/>
	<g>
		<defs>
			<rect id="SVGID_3_" width="257.504" height="95.625"/>
		</defs>
		<clipPath id="SVGID_4_">
			<use xlink:href="#SVGID_3_"  overflow="visible"/>
		</clipPath>
		<path clip-path="url(#SVGID_4_)" fill="#FFFFFF" d="M95.701,72.373v13.153c0,1.051,0.146,2.059,0.432,3.019
			c0.307,0.939,0.781,1.766,1.415,2.476c0.651,0.71,1.477,1.278,2.473,1.701c1.017,0.399,2.235,0.603,3.656,0.603
			c1.438,0,2.655-0.203,3.654-0.603c1.019-0.423,1.843-0.991,2.478-1.701c0.65-0.71,1.121-1.536,1.406-2.476
			c0.307-0.96,0.459-1.968,0.459-3.019V72.373h-1.958v12.718c0,1.192-0.133,2.21-0.399,3.055c-0.266,0.822-0.664,1.506-1.181,2.042
			c-0.517,0.517-1.15,0.9-1.899,1.15c-0.748,0.231-1.602,0.345-2.56,0.345c-0.94,0-1.782-0.113-2.536-0.345
			c-0.743-0.25-1.377-0.634-1.895-1.15c-0.521-0.536-0.911-1.22-1.184-2.042c-0.268-0.845-0.403-1.862-0.403-3.055V72.373H95.701z"
			/>
		<path clip-path="url(#SVGID_4_)" fill="#FFFFFF" d="M116.41,91.253V83.05h6.736c1.748,0,3.077,0.334,3.999,1.006
			c0.938,0.651,1.413,1.644,1.413,2.965c0,0.826-0.145,1.515-0.432,2.072c-0.288,0.536-0.684,0.969-1.182,1.296
			c-0.495,0.324-1.075,0.559-1.728,0.691c-0.651,0.111-1.341,0.173-2.071,0.173H116.41z M114.453,72.371v20.55h8.693
			c1.113,0,2.061-0.099,2.849-0.291c0.809-0.206,1.477-0.469,2.013-0.776c0.557-0.326,1.002-0.7,1.324-1.121
			c0.328-0.422,0.578-0.845,0.75-1.269c0.172-0.434,0.287-0.859,0.343-1.263c0.06-0.424,0.091-0.797,0.091-1.121
			c0-1.346-0.396-2.469-1.184-3.368c-0.783-0.925-1.84-1.469-3.162-1.64v-0.058c0.535-0.117,1.016-0.319,1.438-0.604
			c0.44-0.289,0.812-0.635,1.123-1.038c0.325-0.422,0.572-0.882,0.747-1.381c0.173-0.519,0.256-1.048,0.256-1.584
			c0-0.958-0.18-1.755-0.541-2.389c-0.371-0.651-0.859-1.171-1.471-1.554c-0.597-0.403-1.297-0.682-2.104-0.833
			c-0.783-0.175-1.609-0.262-2.473-0.262H114.453z M116.41,81.383V74.04h6.736c3.089,0,4.631,1.286,4.631,3.858
			c0,0.478-0.093,0.931-0.285,1.354c-0.195,0.421-0.479,0.794-0.863,1.12c-0.383,0.306-0.862,0.555-1.443,0.749
			c-0.571,0.173-1.252,0.261-2.039,0.261H116.41z"/>
		<path clip-path="url(#SVGID_4_)" fill="#FFFFFF" d="M141.279,91.253V74.04h4.17c1.477,0,2.74,0.163,3.799,0.49
			c1.076,0.309,1.955,0.806,2.646,1.497c0.689,0.691,1.196,1.582,1.523,2.677c0.328,1.093,0.491,2.406,0.491,3.942
			c0,1.538-0.163,2.848-0.491,3.942c-0.327,1.093-0.834,1.985-1.523,2.677c-0.691,0.691-1.57,1.199-2.646,1.524
			c-1.059,0.307-2.322,0.463-3.799,0.463H141.279z M139.319,72.373v20.548h7.106c3.128-0.078,5.479-0.948,7.051-2.62
			c1.594-1.689,2.389-4.24,2.389-7.654c0-3.416-0.795-5.958-2.389-7.627c-1.572-1.687-3.923-2.569-7.051-2.646H139.319z"/>
	</g>
	<polygon fill="#FFFFFF" points="157.87,72.373 157.87,92.921 172.197,92.921 172.197,91.253 159.827,91.253 159.827,83.136 
		171.277,83.136 171.277,81.467 159.827,81.467 159.827,74.04 172.055,74.04 172.055,72.373 	"/>
	<polygon fill="#FFFFFF" points="179.52,72.373 187.12,92.921 189.389,92.921 197.017,72.373 194.947,72.373 188.326,90.763 
		188.267,90.763 181.596,72.373 	"/>
	<rect x="197.811" y="72.373" fill="#FFFFFF" width="1.957" height="20.548"/>
	<polygon fill="#FFFFFF" points="202.86,72.373 202.86,92.921 204.817,92.921 204.817,75.538 204.877,75.538 216.847,92.921 
		219.034,92.921 219.034,72.373 217.077,72.373 217.077,89.755 217.021,89.755 205.048,72.373 	"/>
	<g>
		<defs>
			<rect id="SVGID_5_" width="257.504" height="95.625"/>
		</defs>
		<clipPath id="SVGID_6_">
			<use xlink:href="#SVGID_5_"  overflow="visible"/>
		</clipPath>
		<path clip-path="url(#SVGID_6_)" fill="#FFFFFF" d="M220.895,82.646c0,1.417,0.202,2.771,0.605,4.058
			c0.402,1.284,1.004,2.416,1.811,3.398c0.809,0.976,1.812,1.763,3.022,2.356c1.227,0.577,2.649,0.865,4.259,0.865
			c1.613,0,3.022-0.288,4.23-0.865c1.207-0.594,2.22-1.381,3.023-2.356c0.803-0.982,1.41-2.114,1.816-3.398
			c0.398-1.287,0.6-2.641,0.6-4.058c0-1.421-0.201-2.77-0.6-4.058c-0.406-1.283-1.014-2.419-1.816-3.396
			c-0.804-0.998-1.816-1.785-3.023-2.362c-1.208-0.593-2.617-0.892-4.23-0.892c-1.609,0-3.032,0.299-4.259,0.892
			c-1.21,0.577-2.214,1.364-3.022,2.362c-0.807,0.977-1.408,2.112-1.811,3.396C221.097,79.877,220.895,81.226,220.895,82.646
			 M222.852,82.646c0-1.13,0.141-2.236,0.432-3.307c0.309-1.079,0.768-2.034,1.379-2.88c0.635-0.863,1.442-1.558,2.418-2.074
			c0.98-0.515,2.152-0.775,3.512-0.775c1.363,0,2.523,0.261,3.481,0.775c0.981,0.517,1.776,1.211,2.39,2.074
			c0.633,0.846,1.092,1.801,1.383,2.88c0.305,1.07,0.461,2.177,0.461,3.307c0,1.112-0.156,2.216-0.461,3.31
			c-0.291,1.074-0.75,2.044-1.383,2.906c-0.613,0.843-1.408,1.526-2.39,2.043c-0.958,0.517-2.118,0.777-3.481,0.777
			c-1.359,0-2.531-0.261-3.512-0.777c-0.976-0.517-1.783-1.2-2.418-2.043c-0.611-0.862-1.07-1.832-1.379-2.906
			C222.992,84.862,222.852,83.759,222.852,82.646"/>
		<path clip-path="url(#SVGID_6_)" fill="#FFFFFF" d="M243.07,86.155h-1.958c-0.06,1.267,0.106,2.352,0.488,3.256
			c0.405,0.899,0.97,1.64,1.702,2.214c0.725,0.576,1.609,1.008,2.646,1.296c1.035,0.268,2.158,0.4,3.366,0.4
			c1.21,0,2.241-0.115,3.104-0.345c0.865-0.211,1.586-0.487,2.161-0.831c0.593-0.368,1.058-0.771,1.382-1.208
			c0.344-0.443,0.602-0.876,0.776-1.296c0.19-0.445,0.306-0.856,0.344-1.24c0.06-0.383,0.087-0.691,0.087-0.92
			c0-0.845-0.145-1.564-0.431-2.158c-0.268-0.594-0.655-1.091-1.147-1.495c-0.481-0.424-1.049-0.771-1.702-1.038
			c-0.634-0.287-1.315-0.529-2.039-0.72l-5.008-1.238c-0.425-0.093-0.83-0.221-1.214-0.373c-0.361-0.153-0.689-0.356-0.977-0.606
			c-0.287-0.246-0.516-0.544-0.688-0.891c-0.158-0.365-0.234-0.789-0.234-1.264c0-0.771,0.144-1.413,0.432-1.93
			c0.288-0.521,0.662-0.932,1.125-1.238c0.479-0.327,1.023-0.556,1.64-0.691c0.632-0.152,1.288-0.23,1.955-0.23
			c0.731,0,1.421,0.107,2.073,0.316c0.671,0.19,1.258,0.491,1.754,0.893c0.521,0.383,0.931,0.876,1.236,1.468
			c0.328,0.577,0.51,1.259,0.549,2.043h1.959c0-1.053-0.211-1.975-0.632-2.76c-0.405-0.805-0.952-1.479-1.646-2.015
			c-0.689-0.539-1.494-0.94-2.416-1.209c-0.922-0.271-1.889-0.405-2.906-0.405c-1.438,0-2.618,0.213-3.537,0.634
			c-0.926,0.403-1.65,0.902-2.189,1.496c-0.516,0.595-0.875,1.229-1.064,1.9c-0.191,0.672-0.291,1.258-0.291,1.755
			c0,0.805,0.127,1.488,0.374,2.044c0.272,0.557,0.616,1.024,1.038,1.409c0.424,0.384,0.913,0.692,1.469,0.925
			c0.577,0.226,1.162,0.419,1.758,0.571l4.574,1.124c0.479,0.115,0.971,0.268,1.467,0.46c0.501,0.171,0.951,0.403,1.352,0.69
			c0.421,0.29,0.759,0.644,1.01,1.067c0.27,0.421,0.4,0.919,0.4,1.494c0,0.747-0.18,1.393-0.548,1.927
			c-0.361,0.521-0.823,0.95-1.38,1.296c-0.538,0.328-1.121,0.568-1.756,0.72c-0.634,0.154-1.221,0.23-1.755,0.23
			c-0.94,0-1.823-0.086-2.647-0.259c-0.822-0.192-1.543-0.499-2.16-0.92c-0.592-0.423-1.061-0.99-1.406-1.698
			C243.211,88.094,243.052,87.216,243.07,86.155"/>
	</g>
	<polygon fill="#FFFFFF" points="205.004,27.499 224.078,27.499 224.078,23.591 	"/>
	<g>
		<defs>
			<rect id="SVGID_7_" width="257.504" height="95.625"/>
		</defs>
		<clipPath id="SVGID_8_">
			<use xlink:href="#SVGID_7_"  overflow="visible"/>
		</clipPath>
		<path clip-path="url(#SVGID_8_)" fill="#FFFFFF" d="M61.208,64.834h35.14V49.925h-3.94c-0.481,7.938-2.394,10.968-7.294,10.968
			h-10.65V48.488h2.824c3.195,0,4.63,1.649,4.63,5.96v1.279h3.942V37.946h-3.942v0.691c0,4.312-1.435,5.91-4.63,5.91h-2.824V33.473
			h9.369c7.137,0,7.773,2.878,8.575,10.115h3.94V29.532h-35.14v3.94h2.396c2.767,0,3.408,0.693,3.408,2.983v20.71
			c0,3.193-1.013,3.727-2.823,3.727h-2.981V64.834z M98.101,64.834h33.278V49.656h-3.941c-0.482,8.256-1.81,11.288-7.293,11.288
			h-8.678V35.868c0-1.863,0.799-2.396,3.139-2.396h2.982v-3.94H98.101v3.94h3.093c2.13,0,2.817,0.693,2.817,2.29V58.55
			c0,1.81-1.007,2.343-2.5,2.343h-3.41V64.834z M167.635,39.273c0,4.104-2.658,5.649-7.668,5.649h-4.841v-11.45h4.841
			C165.505,33.473,167.635,35.178,167.635,39.273 M175.409,39.227c0-6.019-4.579-9.694-12.565-9.694h-20.87v3.94h3.407
			c1.225,0,2.289,0.428,2.289,1.811v23.799c0,1.386-1.064,1.811-2.289,1.811h-3.407v3.941h19.114v-3.941h-3.41
			c-1.221,0-2.552-0.425-2.552-1.811V48.858h8.358C170.617,48.858,175.409,45.77,175.409,39.227 M191.967,49.554h-9l4.262-12.833
			h0.105L191.967,49.554z M208.154,64.834h15.864v-3.941h-3.089c-1.812,0-2.609-0.904-2.609-2.609V36.028
			c0-2.023,1.652-2.556,3.354-2.556h2.345v-3.94H205.17v3.94h2.984c2.076,0,2.712,1.065,2.712,2.396v23.108
			c0,1.354-0.832,1.885-2.908,1.906c-2.701-0.019-4.464-0.425-5.397-2.865l-10.647-28.485h-7.456l-10.166,28.485
			c-0.905,2.503-2.77,2.875-5.589,2.875v3.941h16.609v-3.941h-4.153c-1.014,0-1.701-0.213-1.701-0.958
			c0-0.479,0.104-0.801,0.211-1.116l1.756-5.326h12.09l1.754,5.326c0.107,0.315,0.215,0.797,0.215,1.277
			c0,0.53-0.426,0.797-1.652,0.797h-4.203v3.941h15.543H208.154z M251.703,42.949h3.832V29.532h-3.088l-1.753,2.663
			c-2.667-1.862-6.072-3.728-10.119-3.728c-6.442,0-13.202,3.195-13.202,10.703c0,15.228,23.742,8.359,23.742,17.463
			c0,2.556-2.233,4.739-6.922,4.739c-7.557,0-11.924-3.833-12.672-10.967h-3.937v14.428h3.618l1.169-3.143
			c3.095,2.502,7.085,4.205,11.077,4.205c7.451,0,14.055-2.767,14.055-11.233c0-14.854-23.744-8.894-23.744-16.878
			c0-3.516,2.025-4.791,6.975-4.791C247.071,32.994,250.424,37.147,251.703,42.949"/>
	</g>
</g>
</svg>
