<?xml version="1.0" encoding="UTF-8" standalone="no"?>
<svg width="44px" height="44px" viewBox="0 0 44 44" version="1.1" xmlns="http://www.w3.org/2000/svg" xmlns:xlink="http://www.w3.org/1999/xlink">
    <!-- Generator: Sketch 47.1 (45422) - http://www.bohemiancoding.com/sketch -->
    <title>cargando</title>
    <desc>Created with Sketch.</desc>
    <defs></defs>
    <g id="Page-1" stroke="none" stroke-width="1" fill="none" fill-rule="evenodd">
        <g id="Iconografia-galerias" transform="translate(-217.000000, -908.000000)">
            <g id="cargando" transform="translate(219.000000, 910.000000)">
                <path d="M20.0009755,-1 C31.5986955,-1 41.0020484,8.40289423 40.9999997,20 C40.9999997,31.5968569 31.5970316,41 19.9990242,41 C8.40265119,41 -1,31.5965401 -1,20 C-1,8.40185067 8.40230925,-1 20.0009755,-1 Z" id="Shape" stroke="#FFFFFF" stroke-width="2" fill-rule="nonzero"></path>
                <path d="M19.9269569,32.3067893 C15.4683875,32.3067893 11.3442829,29.8800258 9.15846165,25.976102 C9.15846165,25.976102 9.54924972,25.7590847 9.58003678,25.7375544 C11.6787478,29.4900922 15.6424705,31.8205191 19.9223746,31.8205191 C26.4430422,31.8205191 31.7493901,26.5082468 31.7493901,19.9802989 C31.7493901,13.4523511 26.4292952,8.14007878 19.8948806,8.14007878 C15.1778513,8.14007878 11.0947565,10.923956 9.19971471,14.9376144 C8.47697184,16.4683685 8.01491924,16.2925503 8.77940984,14.6883936 C10.7603426,10.5317347 14.9995122,7.65380859 19.8995087,7.65380859 C26.7042813,7.65380859 32.2397461,13.1816913 32.2397461,19.9802989 C32.2397461,26.7789066 26.7180283,32.3067893 19.9269569,32.3067893 Z" id="Shape" stroke="#FFFFFF" stroke-width="1.5" fill="#FFFFFF" fill-rule="nonzero" transform="translate(20.312643, 19.980299) rotate(19.000000) translate(-20.312643, -19.980299) "></path>
                <path d="M10.7,9.70000005 L15.4179687,9.70000005 L15.4179687,8 L9.85000002,8 L9,8 L9,14.4179687 L10.7,14.4179687 L10.7,9.70000005 Z" id="Combined-Shape" fill="#FFFFFF" transform="translate(12.208984, 11.208984) rotate(-90.000000) translate(-12.208984, -11.208984) "></path>
            </g>
        </g>
    </g>
</svg>