<?xml version="1.0" encoding="UTF-8"?>
<svg width="244px" height="47px" viewBox="0 0 244 47" version="1.1" xmlns="http://www.w3.org/2000/svg" xmlns:xlink="http://www.w3.org/1999/xlink">
    <title>Outbrain-Logo-Grey</title>
    <g id="Page-1" stroke="none" stroke-width="1" fill="none" fill-rule="evenodd">
        <g id="Outbrain-Logo-Grey" transform="translate(0.379000, 0.940000)" fill="#9B9B9B" fill-rule="nonzero">
            <g id="Group" transform="translate(47.967000, 0.000000)">
                <path d="M-7.10542736e-15,17.4 C-7.10542736e-15,16.272 0.322,15.458 0.967,14.954 C1.612,14.451 2.519,14.199 3.687,14.199 C4.413,14.199 5.076,14.289 5.68,14.47 C6.284,14.652 6.687,14.782 6.888,14.863 L6.888,30.75 C6.888,33.49 7.533,35.574 8.822,37.003 C10.111,38.433 12.086,39.149 14.744,39.149 C17.401,39.149 19.375,38.433 20.664,37.003 C21.953,35.574 22.597,33.49 22.597,30.75 L22.597,17.4 C22.597,16.272 22.919,15.458 23.566,14.954 C24.209,14.451 25.094,14.199 26.221,14.199 C26.989,14.199 27.672,14.289 28.278,14.47 C28.882,14.651 29.285,14.782 29.485,14.863 L29.485,32.262 C29.485,34.316 29.132,36.158 28.428,37.789 C27.721,39.421 26.715,40.801 25.407,41.928 C24.096,43.057 22.537,43.912 20.722,44.496 C18.91,45.078 16.916,45.371 14.743,45.371 C12.568,45.371 10.574,45.078 8.762,44.496 C6.95,43.912 5.399,43.057 4.111,41.928 C2.822,40.801 1.815,39.421 1.09,37.789 C0.365,36.158 0.002,34.314 0.002,32.262 L-7.10542736e-15,17.4 L-7.10542736e-15,17.4 Z" id="Path"></path>
                <path d="M34.919,8.821 C34.919,7.693 35.241,6.88 35.887,6.375 C36.532,5.872 37.416,5.62 38.545,5.62 C39.27,5.62 39.943,5.711 40.568,5.892 C41.192,6.074 41.604,6.204 41.804,6.285 L41.804,14.2 L50.567,14.2 C51.895,14.2 52.832,14.471 53.376,15.015 C53.921,15.559 54.191,16.354 54.191,17.402 C54.191,18.089 54.089,18.72 53.887,19.304 C53.687,19.888 53.527,20.301 53.406,20.542 L41.806,20.542 L41.806,34.015 C41.806,35.063 41.949,35.918 42.231,36.582 C42.511,37.246 42.905,37.779 43.408,38.183 C43.913,38.586 44.496,38.871 45.162,39.03 C45.826,39.191 46.521,39.271 47.245,39.271 C48.413,39.271 49.501,39.089 50.508,38.727 C51.515,38.365 52.24,38.023 52.683,37.702 L55.462,42.293 C55.14,42.535 54.687,42.837 54.104,43.2 C53.52,43.561 52.804,43.904 51.958,44.225 C51.112,44.547 50.166,44.818 49.119,45.04 C48.071,45.262 46.924,45.372 45.676,45.372 C42.132,45.372 39.453,44.457 37.641,42.623 C35.829,40.792 34.921,38.385 34.921,35.403 L34.919,8.821 L34.919,8.821 Z" id="Path"></path>
                <path d="M58.299,3.202 C58.299,2.115 58.621,1.308 59.267,0.786 C59.911,0.263 60.818,0 61.986,0 C62.711,0 63.375,0.092 63.979,0.271 C64.583,0.454 64.985,0.583 65.188,0.666 L65.188,18.004 C66.194,16.716 67.584,15.618 69.355,14.711 C71.128,13.805 73.162,13.352 75.458,13.352 C77.673,13.352 79.718,13.746 81.592,14.532 C83.463,15.316 85.095,16.426 86.486,17.853 C87.876,19.285 88.963,20.975 89.748,22.928 C90.534,24.882 90.927,27.026 90.927,29.363 C90.927,31.659 90.525,33.795 89.719,35.766 C88.912,37.741 87.783,39.431 86.336,40.841 C84.885,42.251 83.163,43.359 81.17,44.163 C79.176,44.968 76.99,45.371 74.614,45.371 C72.238,45.371 70.052,45.01 68.059,44.284 C66.066,43.558 64.343,42.472 62.893,41.02 C61.444,39.572 60.317,37.758 59.51,35.582 C58.703,33.407 58.301,30.851 58.301,27.91 L58.299,3.202 L58.299,3.202 Z M74.489,39.149 C75.857,39.149 77.118,38.897 78.265,38.393 C79.411,37.89 80.399,37.206 81.226,36.339 C82.049,35.473 82.686,34.446 83.127,33.257 C83.57,32.07 83.791,30.772 83.791,29.361 C83.791,27.951 83.57,26.641 83.127,25.433 C82.686,24.225 82.049,23.189 81.226,22.323 C80.399,21.458 79.413,20.772 78.265,20.268 C77.117,19.765 75.857,19.512 74.489,19.512 C73.079,19.512 71.801,19.765 70.653,20.268 C69.506,20.772 68.528,21.467 67.722,22.352 C66.915,23.24 66.284,24.288 65.82,25.495 C65.357,26.704 65.126,27.993 65.126,29.361 C65.126,30.81 65.357,32.14 65.82,33.347 C66.284,34.556 66.926,35.582 67.754,36.429 C68.579,37.275 69.566,37.939 70.715,38.422 C71.862,38.907 73.119,39.149 74.489,39.149 Z" id="Shape"></path>
                <path d="M94.97,25.012 C94.97,21.306 96.109,18.437 98.384,16.403 C100.659,14.37 103.812,13.351 107.838,13.351 C110.376,13.351 112.441,13.705 114.031,14.41 C115.622,15.115 116.418,16.191 116.418,17.641 C116.418,18.328 116.226,18.992 115.844,19.634 C115.46,20.28 115.15,20.682 114.908,20.843 C114.221,20.521 113.378,20.219 112.371,19.937 C111.363,19.657 110.215,19.513 108.926,19.513 C104.216,19.513 101.861,22.011 101.861,27.005 L101.861,44.525 L94.971,44.525 L94.971,25.012 L94.97,25.012 Z" id="Path"></path>
                <path d="M146.198,44.405 C145.797,44.485 145.163,44.576 144.297,44.676 C143.432,44.776 142.413,44.877 141.246,44.978 C140.076,45.079 138.769,45.169 137.319,45.25 C135.87,45.329 134.359,45.37 132.79,45.37 C129.646,45.37 127.08,45.099 125.086,44.556 C123.092,44.011 121.522,43.286 120.374,42.38 C119.226,41.474 118.441,40.427 118.017,39.237 C117.595,38.05 117.384,36.833 117.384,35.584 C117.384,33.934 117.634,32.482 118.138,31.233 C118.641,29.985 119.468,28.937 120.617,28.092 C121.763,27.245 123.262,26.612 125.118,26.188 C126.97,25.765 129.227,25.554 131.885,25.554 C133.413,25.554 134.866,25.605 136.235,25.705 C137.603,25.807 138.631,25.896 139.316,25.976 C139.316,24.566 139.085,23.398 138.623,22.471 C138.158,21.545 137.524,20.822 136.719,20.296 C135.913,19.773 134.948,19.41 133.821,19.208 C132.693,19.007 131.443,18.906 130.076,18.906 C127.78,18.906 125.935,19.169 124.547,19.691 C123.159,20.214 122.243,20.658 121.798,21.02 C121.557,20.819 121.225,20.436 120.802,19.873 C120.38,19.31 120.169,18.625 120.169,17.818 C120.169,17.255 120.318,16.701 120.621,16.157 C120.923,15.614 121.456,15.13 122.223,14.707 C122.989,14.284 124.014,13.953 125.303,13.711 C126.592,13.469 128.223,13.348 130.196,13.348 C132.573,13.348 134.738,13.581 136.691,14.043 C138.646,14.507 140.325,15.242 141.735,16.248 C143.145,17.256 144.242,18.585 145.028,20.234 C145.814,21.886 146.205,23.88 146.205,26.214 L146.205,44.403 L146.198,44.403 L146.198,44.405 Z M139.373,30.992 C138.972,30.913 138.216,30.791 137.108,30.63 C135.998,30.471 134.337,30.389 132.124,30.389 C129.383,30.389 127.392,30.802 126.142,31.628 C124.895,32.453 124.272,33.752 124.272,35.524 C124.272,36.251 124.401,36.915 124.664,37.518 C124.925,38.122 125.379,38.635 126.023,39.059 C126.668,39.482 127.543,39.805 128.652,40.025 C129.757,40.248 131.138,40.358 132.792,40.358 C134.643,40.358 136.114,40.289 137.201,40.146 C138.288,40.005 139.013,39.895 139.375,39.814 L139.375,30.993 L139.373,30.993 L139.373,30.992 Z" id="Shape"></path>
                <path d="M155.805,0.604 C156.973,0.604 157.959,1.007 158.765,1.813 C159.57,2.62 159.973,3.605 159.973,4.773 C159.973,5.941 159.57,6.927 158.765,7.733 C157.959,8.541 156.973,8.941 155.805,8.941 C154.637,8.941 153.651,8.541 152.844,7.733 C152.038,6.927 151.637,5.941 151.637,4.773 C151.637,3.605 152.038,2.62 152.844,1.813 C153.65,1.007 154.637,0.604 155.805,0.604 Z M152.361,17.4 C152.361,16.272 152.683,15.458 153.328,14.954 C153.973,14.451 154.88,14.199 156.048,14.199 C156.773,14.199 157.439,14.289 158.041,14.47 C158.645,14.651 159.047,14.782 159.249,14.863 L159.249,44.526 L152.361,44.526 L152.361,17.4 L152.361,17.4 Z" id="Shape"></path>
                <path d="M165.411,26.219 C165.411,24.206 165.782,22.404 166.528,20.813 C167.272,19.221 168.298,17.875 169.609,16.765 C170.919,15.659 172.467,14.812 174.26,14.228 C176.051,13.644 178.015,13.351 180.15,13.351 C182.286,13.351 184.257,13.644 186.071,14.228 C187.883,14.812 189.444,15.659 190.753,16.765 C192.062,17.873 193.08,19.221 193.805,20.813 C194.531,22.404 194.894,24.208 194.894,26.219 L194.894,44.525 L188.005,44.525 L188.005,27.971 C188.005,25.234 187.34,23.149 186.012,21.719 C184.682,20.289 182.729,19.574 180.152,19.574 C177.535,19.574 175.571,20.289 174.262,21.719 C172.952,23.149 172.298,25.234 172.298,27.971 L172.298,44.525 L165.411,44.525 L165.411,26.219 L165.411,26.219 Z" id="Path"></path>
            </g>
            <path d="M42.532,15.164 C41.403,12.507 39.844,10.201 37.848,8.247 C35.855,6.294 33.519,4.764 30.84,3.656 C28.161,2.548 25.252,1.994 22.112,1.994 C18.97,1.994 16.059,2.548 13.382,3.656 C10.703,4.763 8.367,6.294 6.374,8.247 C4.381,10.201 2.819,12.507 1.69,15.164 C0.563,17.823 -3.55271368e-15,20.703 -3.55271368e-15,23.804 C-3.55271368e-15,26.908 0.562,29.784 1.69,32.444 C2.819,35.102 4.379,37.409 6.374,39.361 C8.367,41.315 10.703,42.845 13.382,43.954 C16.061,45.061 18.971,45.615 22.112,45.615 C25.253,45.615 28.163,45.06 30.84,43.954 C33.518,42.847 35.855,41.315 37.848,39.361 C39.842,37.409 41.403,35.102 42.532,32.444 C43.658,29.786 44.2210013,26.908 44.2210013,23.804 C44.222,20.703 43.658,17.823 42.532,15.164 Z M8.915,22.206 C11.378,21.392 14.646,20.357 14.646,20.357 C21.837,18.068 22.797,15.367 22.797,15.367 C22.797,15.367 24.31,18.068 29.53,19.854 C29.53,19.854 32.414,20.801 35.095,21.769 C35.229,22.038 35.368,22.303 35.488,22.584 C35.96,23.694 36.279,24.867 36.449,26.097 L32.761,26.097 C32.753,26.076 32.745,26.053 32.738,26.033 C32.468,25.399 32.096,24.851 31.624,24.386 C31.148,23.921 30.594,23.558 29.957,23.294 C29.318,23.03 28.628,22.898 27.88,22.898 C27.133,22.898 26.441,23.031 25.804,23.294 C25.166,23.558 24.611,23.921 24.136,24.386 C23.662,24.851 23.291,25.399 23.023,26.033 C22.938,26.231 22.87,26.436 22.811,26.645 L21.415,26.645 C21.356,26.436 21.287,26.231 21.202,26.033 C20.933,25.399 20.562,24.851 20.089,24.386 C19.615,23.921 19.059,23.558 18.422,23.294 C17.785,23.03 17.093,22.898 16.346,22.898 C15.598,22.898 14.906,23.031 14.269,23.294 C13.632,23.558 13.077,23.921 12.602,24.386 C12.127,24.851 11.756,25.399 11.49,26.033 C11.479,26.053 11.472,26.077 11.464,26.097 L7.771,26.097 C7.941,24.869 8.26,23.696 8.733,22.584 C8.788,22.455 8.856,22.334 8.915,22.206 Z M31.003,28.087 C31.003,28.525 30.924,28.933 30.764,29.309 C30.605,29.683 30.385,30.009 30.103,30.287 C29.823,30.562 29.492,30.778 29.114,30.934 C28.735,31.091 28.325,31.169 27.881,31.169 C27.437,31.169 27.026,31.091 26.648,30.934 C26.27,30.778 25.939,30.562 25.659,30.287 C25.377,30.011 25.157,29.684 24.997,29.309 C24.838,28.933 24.759,28.526 24.759,28.087 C24.759,27.649 24.838,27.242 24.997,26.866 C25.157,26.491 25.377,26.165 25.659,25.888 C25.939,25.614 26.27,25.397 26.648,25.24 C27.026,25.084 27.437,25.006 27.881,25.006 C28.325,25.006 28.735,25.084 29.114,25.24 C29.492,25.396 29.823,25.614 30.103,25.888 C30.385,26.164 30.605,26.491 30.764,26.866 C30.924,27.243 31.003,27.651 31.003,28.087 Z M19.468,28.087 C19.468,28.525 19.388,28.933 19.23,29.309 C19.071,29.683 18.849,30.009 18.567,30.287 C18.287,30.562 17.957,30.778 17.578,30.934 C17.2,31.091 16.789,31.169 16.346,31.169 C15.902,31.169 15.491,31.091 15.114,30.934 C14.734,30.778 14.405,30.562 14.123,30.287 C13.842,30.011 13.621,29.684 13.463,29.309 C13.303,28.933 13.223,28.526 13.223,28.087 C13.223,27.649 13.303,27.242 13.463,26.866 C13.621,26.491 13.842,26.165 14.123,25.888 C14.405,25.614 14.734,25.397 15.114,25.24 C15.492,25.084 15.902,25.006 16.346,25.006 C16.789,25.006 17.2,25.084 17.578,25.24 C17.957,25.396 18.287,25.614 18.567,25.888 C18.849,26.164 19.071,26.491 19.23,26.866 C19.388,27.243 19.468,27.651 19.468,28.087 Z M32.422,38.438 C31.116,39.719 29.586,40.721 27.831,41.449 C26.075,42.175 24.169,42.537 22.111,42.537 C20.051,42.537 18.144,42.175 16.389,41.449 C14.634,40.721 13.104,39.72 11.797,38.438 C10.491,37.16 9.469,35.649 8.731,33.907 C8.016,32.224 7.652,30.404 7.627,28.451 L11.095,28.451 C11.132,29.053 11.261,29.616 11.487,30.142 C11.754,30.776 12.126,31.325 12.599,31.788 C13.074,32.253 13.629,32.617 14.266,32.879 C14.904,33.145 15.595,33.275 16.343,33.275 C17.09,33.275 17.782,33.143 18.419,32.879 C19.056,32.617 19.612,32.253 20.086,31.788 C20.561,31.323 20.932,30.774 21.199,30.142 C21.377,29.724 21.495,29.283 21.554,28.817 L22.665,28.817 C22.724,29.283 22.842,29.724 23.019,30.142 C23.289,30.776 23.66,31.325 24.132,31.788 C24.607,32.253 25.162,32.617 25.8,32.879 C26.437,33.145 27.129,33.275 27.876,33.275 C28.624,33.275 29.314,33.143 29.953,32.879 C30.59,32.617 31.144,32.253 31.62,31.788 C32.094,31.323 32.466,30.774 32.733,30.142 C32.957,29.616 33.086,29.051 33.124,28.451 L36.591,28.451 C36.569,30.404 36.2,32.224 35.487,33.907 C34.751,35.649 33.729,37.159 32.422,38.438 Z" id="Shape"></path>
        </g>
    </g>
</svg>