<svg xmlns="http://www.w3.org/2000/svg" width="22" height="22"><path d="M.008 21.996c-.008-.02-.008-.041 0-.061v-.784a35.53 35.53 0 0 1 .141-3.99 14.87 14.87 0 0 1 2.439-7.124c.866-1.238 1.97-2.292 3.246-3.1a16.64 16.64 0 0 1 5.726-2.035h.262v-4.6c.001-.12.072-.227.181-.276a.3.3 0 0 1 .323.052l9.566 8.468c.069.058.108.144.108.234s-.04.176-.108.234l-9.556 8.03a.31.31 0 0 1-.322.038c-.107-.05-.177-.155-.182-.272v-4.8h-.324a8.88 8.88 0 0 0-4.365 1.384h0c-3.306 2.565-4.334 7.674-4.385 7.847h0l-.111.631c-.019.052-.066.088-.121.092H.058c-.012.017-.03.028-.05.032zM12.649 6.621c-2.119.226-4.173.863-6.049 1.875h0c-1.113.701-2.072 1.62-2.822 2.7v.051c-1.021 1.825-1.652 3.842-1.855 5.923h0a16.18 16.18 0 0 1 4.1-5.241h0a11.31 11.31 0 0 1 6.185-1.756h1.21v2.931c.001.117.068.224.174.274a.3.3 0 0 0 .32-.04l5.151-4.386c.069-.058.108-.144.108-.234s-.04-.176-.108-.234l-5.141-4.549a.3.3 0 0 0-.323-.052c-.109.049-.18.156-.181.276v2.392z"/></svg>
