<svg xmlns="http://www.w3.org/2000/svg" viewBox="0 0 13.71 13.71"><path fill="#fff" d="M6.86 9.14a2.2 2.2 0 01-1.62-.67 2.17 2.17 0 01-.67-1.61 2.29 2.29 0 012.29-2.29 2.17 2.17 0 011.61.67 2.2 2.2 0 01.67 1.62 2.17 2.17 0 01-.67 1.61 2.17 2.17 0 01-1.61.67zm0-5.8a3.36 3.36 0 00-2.49 1 3.36 3.36 0 00-1 2.49 3.39 3.39 0 001 2.49 3.4 3.4 0 002.49 1 3.52 3.52 0 003.52-3.52 3.4 3.4 0 00-1-2.49 3.39 3.39 0 00-2.52-.97zm3.66-1a.82.82 0 00-.82.82.8.8 0 00.24.58.78.78 0 00.58.24.82.82 0 00.82-.82.78.78 0 00-.24-.58.8.8 0 00-.58-.2zm-2-1.15h.86a9.24 9.24 0 01.92.09 3.42 3.42 0 01.64.17 2.37 2.37 0 011.31 1.3 4 4 0 01.16.64 7 7 0 01.09.92v4.97a7 7 0 01-.09.92 3.5 3.5 0 01-.16.64 2.34 2.34 0 01-1.31 1.31 3.5 3.5 0 01-.64.16 7 7 0 01-.92.09H4.37a7 7 0 01-.92-.09 3.72 3.72 0 01-.64-.16 2.37 2.37 0 01-1.3-1.31 3.42 3.42 0 01-.17-.64 9.24 9.24 0 01-.09-.92V4.37a9.24 9.24 0 01.09-.92 3.91 3.91 0 01.17-.64A2.18 2.18 0 012 2a2.18 2.18 0 01.78-.52 3.65 3.65 0 01.64-.17 9.24 9.24 0 01.92-.09h3.2c.46 0 .73 0 .94.01zM13.67 4a4.2 4.2 0 00-1.11-2.88A4.17 4.17 0 009.69 0H4a4.2 4.2 0 00-2.85 1.15A4.2 4.2 0 000 4v5.66a4.17 4.17 0 001.11 2.87A4.2 4.2 0 004 13.67h5.66a4.17 4.17 0 002.87-1.11 4.17 4.17 0 001.11-2.87V4.03z"/></svg>