<svg xmlns="http://www.w3.org/2000/svg" viewBox="0 0 20 17.14"><path fill="#262626" d="M19.75 14a.78.78 0 00-.58-.26H.83a.78.78 0 00-.58.26.82.82 0 00-.25.6v1.72a.82.82 0 00.25.6.77.77 0 00.58.25h18.34a.77.77 0 00.58-.25.82.82 0 00.25-.6v-1.75a.82.82 0 00-.25-.57zm0-6.86a.77.77 0 00-.58-.25H.83a.77.77 0 00-.58.25.82.82 0 00-.25.6v1.69a.82.82 0 00.25.6.78.78 0 00.58.26h18.34a.78.78 0 00.58-.26.82.82 0 00.25-.6V7.71a.82.82 0 00-.25-.6zm0-6.86a.81.81 0 00-.58-.28H.83a.81.81 0 00-.58.25.84.84 0 00-.25.61v1.71a.82.82 0 00.25.6.78.78 0 00.58.26h18.34a.78.78 0 00.58-.26.82.82 0 00.25-.6V.86a.84.84 0 00-.25-.61z"/></svg>