<svg width="126" height="126" viewBox="0 0 126 126" fill="none" xmlns="http://www.w3.org/2000/svg">
<circle cx="63" cy="63" r="63" fill="#E02712"/>
<path d="M60.5391 36.8673C65.1117 36.4337 69.7992 37.2166 73.9746 39.1373C77.8031 40.8904 81.1957 43.5869 83.7668 46.9209C87.341 51.5064 89.2969 57.3166 89.2406 63.1291C89.2055 64.165 88.1754 65.0123 87.1523 64.8611C86.2383 64.7697 85.4906 63.9283 85.5012 63.0107C85.4918 59.8267 84.8355 56.638 83.5184 53.7353C81.123 48.3763 76.5387 44.017 71.0262 41.9802C72.2531 43.9513 73.2305 46.0736 73.9406 48.2837C75.3023 52.4228 75.9305 56.7763 76.0934 61.1216C77.3555 61.1322 78.6176 61.1181 79.8809 61.1275C80.5664 61.1263 81.2414 61.5271 81.5426 62.1482C81.8613 62.7494 81.8027 63.5158 81.4137 64.0712C81.0539 64.6045 80.4035 64.9009 79.766 64.8763C71.066 64.8752 62.3672 64.8752 53.6684 64.8752C53.8242 69.3541 54.5461 73.8541 56.1563 78.0505C56.9695 80.092 57.9891 82.1029 59.5184 83.706C60.4348 84.6576 61.6277 85.4896 62.9988 85.4931C64.0055 85.4498 64.9324 86.365 64.882 87.3752C64.9254 88.2951 64.152 89.1623 63.2402 89.2443C56.9461 89.3275 50.6508 87.047 45.8895 82.9244C42.6469 80.1482 40.1016 76.5658 38.5523 72.5884C36.9129 68.4095 36.3867 63.8076 37.0031 59.3638C37.575 55.1568 39.1992 51.0974 41.6836 47.6545C43.6465 44.9252 46.1414 42.5779 48.9867 40.7873C52.4566 38.5923 56.4516 37.2459 60.5391 36.8673ZM62.5723 40.5353C61.2797 40.6982 60.2063 41.5478 59.3461 42.4736C57.9738 43.983 57.0223 45.8216 56.2559 47.6978C54.5719 51.9646 53.8277 56.5572 53.6684 61.1252C59.8887 61.124 66.1102 61.1252 72.3305 61.124C72.2438 58.2646 71.8887 55.4123 71.2582 52.6209C70.6664 50.0638 69.8414 47.5396 68.5816 45.2287C67.7965 43.8177 66.8461 42.4537 65.5512 41.4634C64.7145 40.8142 63.6445 40.3888 62.5723 40.5353ZM45.8426 48.4185C42.818 51.9611 40.9395 56.4716 40.5844 61.1193C43.6922 61.1287 46.7988 61.1263 49.9055 61.1205C50.0355 57.5662 50.4855 54.0142 51.3832 50.5689C52.1602 47.556 53.3109 44.6252 54.9703 41.9849C51.4383 43.2869 48.2801 45.5568 45.8426 48.4185ZM40.5844 64.881C40.957 69.749 43.002 74.4623 46.2785 78.0787C48.6539 80.7013 51.6457 82.7908 54.9715 84.0142C54.0234 82.4779 53.2043 80.8642 52.5715 79.1732C50.8512 74.6111 50.0883 69.7349 49.9055 64.8787C46.7988 64.8752 43.6922 64.8693 40.5844 64.881Z" fill="white"/>
<path d="M70.1824 68.6555C72.1207 68.584 74.066 68.645 76.0078 68.625C79.173 68.6262 82.3395 68.6215 85.5059 68.6274C86.5008 68.6051 87.3926 69.491 87.3727 70.4883C87.3785 73.9688 87.3738 77.4504 87.375 80.9321C87.3844 82.7227 86.8863 84.5192 85.9125 86.025C84.9422 87.5426 83.5125 88.752 81.8742 89.4938C80.7762 89.9953 79.7027 90.5532 78.5918 91.0242C77.7105 91.3653 76.8902 90.7746 76.1191 90.4289C74.8289 89.7821 73.4402 89.2922 72.2883 88.3981C70.4988 87.0551 69.2285 85.0407 68.8055 82.8422C68.5758 81.7512 68.632 80.6309 68.6238 79.5235C68.6273 76.5117 68.6215 73.5 68.6273 70.4883C68.6156 69.6071 69.3105 68.7867 70.1824 68.6555ZM72.3762 72.3762C72.3738 73.0008 72.3727 73.6242 72.3762 74.2489C74.877 74.2535 77.3789 74.2453 79.8809 74.2524C80.8805 74.2301 81.7734 75.1242 81.7488 76.125C81.7734 77.1246 80.8805 78.02 79.8797 77.9977C77.3789 78.0035 74.877 77.9965 72.3762 78.0012C72.3832 79.1379 72.3551 80.2746 72.3902 81.4102C72.4922 83.3285 73.7062 85.1157 75.4277 85.9559C76.2867 86.3578 77.1398 86.7739 78.0012 87.1699C78.8895 86.7645 79.7695 86.3403 80.6508 85.9184C82.4051 85.0266 83.5992 83.1434 83.6203 81.1711C83.6309 78.2391 83.6227 75.3071 83.6238 72.3762C79.875 72.3739 76.125 72.375 72.3762 72.3762Z" fill="white"/>
</svg>
