<svg width="126" height="126" viewBox="0 0 126 126" fill="none" xmlns="http://www.w3.org/2000/svg">
<circle cx="63" cy="63" r="63" fill="#E02712"/>
<path d="M48.5098 38.5313C50.9086 38.0789 53.4961 39.3164 54.6551 41.4609C55.2223 42.4207 55.3336 43.5469 55.5949 44.6086C56.1047 46.8445 56.8137 49.0348 57.7301 51.1383C58.5563 53.0578 58.1391 55.4215 56.7117 56.9461C56.2219 57.5227 55.5293 57.8684 54.9996 58.4004C54.6188 58.7859 54.4723 59.4129 54.743 59.9004C56.5922 63.2742 59.1234 66.2918 62.2219 68.584C63.4734 69.518 64.8129 70.3324 66.2074 71.0356C66.4863 71.1809 66.8285 71.2735 67.1297 71.1305C67.6465 70.9149 67.8867 70.3758 68.1785 69.9375C69.1195 68.5078 70.7859 67.6266 72.4852 67.5598C73.4988 67.5047 74.5113 67.7332 75.4383 68.134C77.8254 69.1418 80.3332 69.8356 82.8691 70.3512C85.0688 70.7754 86.9719 72.5426 87.4383 74.7516C87.7125 75.8672 87.484 77.011 87.3785 78.1324C87.2145 79.4895 87.1852 80.877 86.7563 82.186C86.0086 84.5461 84.3059 86.5746 82.1344 87.757C80.2887 88.7742 78.1066 89.1844 76.0219 88.8621C75.1981 88.7379 74.4047 88.4766 73.602 88.2621C69.1219 86.9567 64.8094 85.0664 60.825 82.636C55.5973 79.4531 50.9285 75.3539 47.0988 70.5797C42.7711 65.1961 39.5191 58.9535 37.5832 52.3242C37.268 51.2168 36.9211 50.1035 36.8695 48.9457C36.7336 46.7109 37.4391 44.4457 38.802 42.6727C40.275 40.725 42.4887 39.3914 44.8641 38.8723C46.0582 38.5758 47.2945 38.6496 48.5098 38.5313ZM48.0516 42.3293C47.3309 42.3727 46.602 42.3422 45.8906 42.4887C44.1246 42.8121 42.4617 43.827 41.4949 45.3574C40.6688 46.6383 40.3969 48.2567 40.759 49.7367C42.0797 54.8672 44.2383 59.7809 47.1234 64.2234C50.9238 70.0887 55.9945 75.1266 61.8902 78.8789C66.2508 81.6738 71.0613 83.7539 76.0734 85.0547C77.8676 85.5106 79.8434 85.0113 81.2637 83.8406C82.4695 82.8703 83.2746 81.4184 83.4293 79.8762C83.5524 78.6235 83.6977 77.3731 83.8172 76.1203C83.9297 75.0879 83.0602 74.1727 82.0758 74.0133C79.282 73.4485 76.5246 72.668 73.8984 71.5535C73.241 71.2617 72.4324 71.1738 71.7914 71.5512C71.2875 71.8406 71.0883 72.4195 70.7449 72.8567C69.7453 74.2488 68.0063 75.1301 66.2801 74.9192C65.0414 74.8031 63.9797 74.0977 62.9156 73.5164C57.9949 70.7121 53.9637 66.4336 51.3188 61.4379C50.7457 60.2227 50.7059 58.7754 51.1969 57.5262C51.6539 56.2981 52.6313 55.3559 53.6953 54.6352C54.3551 54.1793 54.5859 53.2524 54.2508 52.5305C53.1152 49.9172 52.2832 47.1774 51.709 44.3883C51.6211 43.9981 51.5637 43.5879 51.3563 43.2375C51.0047 42.641 50.3426 42.2332 49.65 42.1981C49.1145 42.2145 48.5859 42.3117 48.0516 42.3293Z" fill="white"/>
<path d="M67.3699 39.5918C69.1535 39.5086 70.9488 39.7746 72.6726 40.2258C76.8445 41.3473 80.5828 43.9805 83.0519 47.5242C85.0992 50.4317 86.2723 53.9379 86.4164 57.4887C86.4457 58.1285 86.5078 58.8364 86.1012 59.3824C85.5492 60.218 84.2976 60.4465 83.4902 59.8477C82.916 59.4645 82.643 58.759 82.6816 58.084C82.6488 54.225 81.0574 50.4035 78.3129 47.6871C75.5695 44.9098 71.6953 43.3207 67.7976 43.3149C66.8824 43.3699 65.9953 42.6891 65.8453 41.7797C65.6332 40.7918 66.3715 39.736 67.3699 39.5918Z" fill="white"/>
<path d="M67.3699 48.0292C69.3363 47.912 71.325 48.4651 73.0148 49.4671C76.1391 51.3128 78.1406 54.9198 77.9801 58.5515C77.891 59.3882 77.1691 60.0948 76.3336 60.1745C75.5496 60.2753 74.741 59.8124 74.4223 59.0917C74.1867 58.6065 74.2769 58.0546 74.2043 57.5378C74.0109 55.7495 73.0348 54.0679 71.5805 53.012C70.4637 52.1847 69.075 51.7522 67.6887 51.7475C66.7699 51.7663 65.9262 51.0198 65.8277 50.1081C65.6848 49.1495 66.4113 48.171 67.3699 48.0292Z" fill="white"/>
</svg>
