<svg width="379" height="66" viewBox="0 0 379 66" fill="none" xmlns="http://www.w3.org/2000/svg">
<g clip-path="url(#clip0_1131_19542)">
<path d="M0.339973 33.7699C2.85997 3.52993 16.83 1.87993 21.22 4.67993C24.68 6.83993 26.77 11.8799 23.89 25.4199L21.8 23.8399C21.8 23.8399 23.45 14.1199 19.64 13.8399C18.7 13.7699 14.02 13.1899 12.37 32.8399C9.98997 61.8399 20.14 55.3799 29.79 40.3999L31.79 41.3999C15.89 69.2699 -2.76003 69.6299 0.339973 33.7699Z" fill="black"/>
<path d="M71.41 34.4201C71.41 34.4201 64.35 58.5401 49.59 58.5401C43.9 58.5401 43.18 52.4201 43.59 45.5401C41.15 47.9201 37.83 50.2901 32.94 49.5401C25.52 48.2501 27.18 38.4501 33.44 34.5401C36.9233 32.4643 41.0422 31.7251 45.03 32.4601C45.2184 30.8518 45.1712 29.2247 44.89 27.6301C44.89 27.6301 57.13 24.9001 56.19 36.7801C55.25 48.66 55.91 55.2101 60.51 50.1C64.4897 45.5829 67.3926 40.2217 69 34.4201H71.41ZM44.19 40.1801C44.33 38.7401 44.48 37.3701 44.69 36.0801C42.53 36.0801 35.91 36.5101 35.76 41.4801C35.55 46.7401 41 43.6401 44.19 40.1801Z" fill="black"/>
<path d="M121.45 38.1001C121.45 38.1001 111.15 60.0001 98.48 60.0001C87.68 60.0001 102.48 28.4701 93.94 30.1901C93.87 30.1901 93.87 30.2701 93.87 30.2701C93.1127 30.54 92.4282 30.9815 91.87 31.5601C91.1446 32.3588 90.5384 33.2581 90.07 34.2301C89.5249 35.4464 89.0866 36.7078 88.76 38.0001C88.47 39.3701 88.18 40.8101 87.89 42.3901L87.68 43.6201C87.61 43.8301 87.61 44.0501 87.53 44.2701C87.4511 44.4008 87.4032 44.5479 87.39 44.7001L87.1 45.2001L86.74 45.5601L86.38 45.7101C86.31 45.7101 86.24 45.7801 86.09 45.7801H86C85.7204 45.7885 85.4449 45.7118 85.21 45.5601C85.0727 45.487 84.9506 45.3886 84.85 45.2701C84.7073 45.0954 84.5864 44.904 84.49 44.7001C84.4108 44.5686 84.3597 44.4222 84.34 44.2701C84.1988 43.8038 84.0853 43.3297 84 42.8501C83.85 41.9801 83.78 41.1201 83.64 40.2601L83.42 37.7301C83.28 36.9401 83.2 36.1501 83.06 35.3601C82.9052 34.6749 82.6876 34.0054 82.41 33.3601C82.3548 33.2535 82.284 33.1558 82.2 33.0701L81.98 33.2901C81.83 33.5801 81.62 33.8701 81.48 34.1501C81.19 34.7301 80.9 35.4501 80.61 36.1001L79.96 38.1001C79.53 39.4601 79.17 40.7601 78.88 41.9801C78.31 44.3601 77.88 46.4501 77.51 47.8901C77.37 48.8201 77.23 49.5401 77.15 49.8901C75.93 54.8901 72.76 55.5801 70.75 55.6501C60.24 56.0001 68.6 31.9001 66.94 24.7701C66.94 24.7701 78.24 21.7701 77.38 34.7101C77.3712 35.3357 77.3244 35.9601 77.24 36.5801C77.45 36.0801 77.6 35.5801 77.81 35.0001C78.1276 34.2109 78.4881 33.4398 78.89 32.6901C79.1194 32.2624 79.3836 31.8543 79.68 31.4701C79.858 31.262 80.0519 31.0681 80.26 30.8901C80.5359 30.6263 80.8535 30.4101 81.2 30.2501C81.4001 30.1549 81.6184 30.1037 81.84 30.1001C81.8796 30.1054 81.9198 30.1019 81.9579 30.0898C81.9959 30.0777 82.0308 30.0573 82.06 30.0301H82.21L82.35 30.1001H82.57C82.9803 30.1572 83.3729 30.304 83.72 30.5301C84.0178 30.7604 84.2834 31.0294 84.51 31.3301L84.94 32.1201C85.16 32.6201 85.3 33.0501 85.45 33.4901C85.57 33.9375 85.6635 34.3916 85.73 34.8501C85.88 35.7901 85.95 36.6501 86.02 37.5201C86.09 38.3901 86.17 39.2501 86.17 40.0401V40.2601C86.45 39.2601 86.67 38.3101 86.96 37.4501C87.3646 36.0613 87.9178 34.7202 88.61 33.4501C89.1971 32.3217 89.9792 31.3061 90.92 30.4501C91.6691 29.8261 92.5221 29.3387 93.44 29.0101L93.8 29.0001C94.59 28.8601 105.97 26.7001 105.1 38.1501C104.17 50.0301 102.15 56.5801 108.63 51.2501C115.26 45.8501 120.08 37.7901 120.08 37.7901L121.45 38.1001ZM82.13 32.9101C82.06 32.9101 82.13 32.9101 82.13 32.9801V32.9101Z" fill="black"/>
<path d="M141.82 35.9299C140.96 37.4499 133.82 57.5399 121.52 57.0999C110.07 56.6699 117.12 33.1999 116.26 30.1699C116.26 30.1699 127.13 28.1699 125.91 36.5799C124.32 47.5799 124.54 53.3599 129.51 49.8999C134.48 46.4399 139.73 35.1399 139.73 35.1399L141.82 35.9299ZM116.47 20.5999C116.468 19.5295 116.784 18.4826 117.377 17.5916C117.97 16.7006 118.814 16.0056 119.803 15.5946C120.791 15.1836 121.879 15.0751 122.929 15.2827C123.979 15.4903 124.944 16.0047 125.702 16.7609C126.459 17.5172 126.976 18.4811 127.185 19.5308C127.395 20.5805 127.288 21.6688 126.879 22.6579C126.47 23.6471 125.777 24.4926 124.887 25.0875C123.997 25.6824 122.95 25.9999 121.88 25.9999C121.17 26.0026 120.466 25.8648 119.809 25.5945C119.152 25.3241 118.555 24.9266 118.052 24.4248C117.549 23.923 117.151 23.3267 116.879 22.6703C116.608 22.0139 116.469 21.3103 116.47 20.5999Z" fill="black"/>
<path d="M177.68 43.35C177.32 44.65 171.34 61.14 162.2 64.45C161.45 64.7804 160.639 64.9507 159.82 64.95C159.587 65.0203 159.343 65.0474 159.1 65.03H159C155.61 65.03 154.1 58.18 153.67 49.76C151.01 54.44 147.19 59.34 142.67 60.99C141.917 61.3111 141.116 61.507 140.3 61.57C140.058 61.5581 139.815 61.5816 139.58 61.64H139.51C130.58 61.57 135.04 15.7 135.26 13.97C135.91 7.49004 136.12 3.60004 139.26 3.75004C141.057 3.89392 142.783 4.51534 144.26 5.55004C145.8 6.57506 147.081 7.94453 148 9.55004C149.398 11.854 150.281 14.4328 150.59 17.11C151.464 21.7064 150.807 26.4627 148.72 30.65C147.864 32.2062 146.798 33.6365 145.55 34.9C145.34 40.15 145.19 45.19 145.34 49.01C145.63 53.55 146.49 55.06 148.87 52.32C150.669 50.0844 152.237 47.6721 153.55 45.12C153.33 32.45 154.7 18.26 154.77 17.33C155.42 10.92 155.63 7.03004 158.77 7.17004C160.567 7.2605 162.301 7.86054 163.77 8.90004C165.317 9.94247 166.62 11.307 167.59 12.9C168.909 15.2376 169.765 17.808 170.11 20.47C170.9 25.65 170.32 30.26 168.24 34.07C167.39 35.6299 166.323 37.0608 165.07 38.32C164.85 43.58 164.78 48.55 164.85 52.44C165.14 56.9 166 58.44 168.38 55.68C172.99 50.28 175.65 42.5 175.65 42.5L177.68 43.35ZM145.68 31.61C147.32 29.3413 148.353 26.6906 148.68 23.91C148.68 23.48 149.19 17.86 146.74 14.33C146.43 19.09 146 25.35 145.71 31.61H145.68ZM165.22 35C166.87 32.7328 167.904 30.0763 168.22 27.29C168.29 26.86 168.79 21.29 166.27 17.72C165.94 22.47 165.51 28.73 165.22 35Z" fill="black"/>
<path d="M211.88 34.4201C211.88 34.4201 204.82 58.5401 190.06 58.5401C184.37 58.5401 183.65 52.4201 184.06 45.5401C181.61 47.9201 178.29 50.2901 173.4 49.5401C165.98 48.2501 167.64 38.4501 173.9 34.5401C177.387 32.4636 181.509 31.7244 185.5 32.4601C185.68 30.8511 185.63 29.2247 185.35 27.6301C185.35 27.6301 197.59 24.9001 196.66 36.7801C195.73 48.66 196.4 55.1601 201 50.0501C204.972 45.5464 207.874 40.2033 209.49 34.4201H211.88ZM184.66 40.1801C184.81 38.7401 184.95 37.3701 185.17 36.0801C183.01 36.0801 176.38 36.5101 176.24 41.4801C176 46.7401 181.49 43.6401 184.66 40.1801Z" fill="black"/>
<path d="M264.29 34.6399C264.29 34.6399 263.93 34.9299 263.29 35.3599C263.104 35.4919 262.911 35.6122 262.71 35.7199L262.06 36.1499C261.85 36.2899 261.56 36.4399 261.34 36.5799L260.48 37.1599C260.153 37.299 259.838 37.4663 259.54 37.6599C259.25 37.8799 258.89 38.0199 258.54 38.2399L258.04 38.5299C257.89 38.5999 257.82 38.5999 257.75 38.6699C257.68 38.7399 257.54 38.7399 257.46 38.8099C257.259 38.8824 257.067 38.9798 256.89 39.0999C256.685 39.1722 256.491 39.2696 256.31 39.3899L253.79 40.4699C252.93 40.8299 252.06 41.1199 251.13 41.4099C250.69 41.4799 250.33 41.6199 249.97 41.6999C249.822 42.5781 249.608 43.4438 249.33 44.2899C246.95 51.7799 240.33 56.3799 234.49 54.5099C228.65 52.6399 225.92 45.1499 228.3 37.5899C230.68 30.0299 237.3 25.5899 243.13 27.3699C247.13 28.6599 249.76 32.8399 250.13 37.7299H250.34C251.14 37.5899 252 37.4499 252.79 37.2299C253.595 37.0596 254.39 36.8425 255.17 36.5799L255.74 36.3699C255.925 36.2919 256.12 36.2414 256.32 36.2199C256.47 36.1499 256.54 36.1499 256.61 36.0799L256.9 36.0099C257.04 35.9299 257.26 35.8599 257.4 35.7899L258.48 35.3599C258.804 35.2707 259.119 35.1501 259.42 34.9999C259.691 34.8463 259.98 34.7255 260.28 34.6399C260.535 34.5019 260.799 34.3816 261.07 34.2799C261.294 34.1732 261.511 34.053 261.72 33.9199L262.37 33.6999C263.02 33.3399 263.45 33.1299 263.45 33.1299L264.29 34.6399ZM246.87 44.3599C247.13 43.6124 247.321 42.8425 247.44 42.0599C246.7 42.1532 245.954 42.1766 245.21 42.1299C244.702 42.0959 244.197 42.0223 243.7 41.9099C243.188 41.8279 242.684 41.7076 242.19 41.5499C241.289 41.2503 240.44 40.8153 239.67 40.2599C239.464 40.1304 239.27 39.9832 239.09 39.8199C238.8 40.3999 238.59 41.0499 238.37 41.6199C236.93 46.2299 237.65 50.6199 239.96 51.3399C242.27 52.0599 245.43 48.9999 246.87 44.3599ZM242.19 35.4999C242.338 35.7706 242.53 36.0141 242.76 36.2199C243.108 36.5891 243.526 36.8849 243.99 37.0899C244.233 37.2493 244.5 37.3707 244.78 37.4499C245.083 37.5605 245.399 37.6311 245.72 37.6599C246.281 37.8068 246.86 37.8807 247.44 37.8799C247.16 36.2199 246.44 34.9999 245.28 34.6399C244.733 34.5331 244.17 34.5552 243.633 34.7045C243.097 34.8538 242.603 35.1262 242.19 35.4999Z" fill="black"/>
<path d="M286.9 35.79C286.9 35.79 283.73 41.98 282.44 44.22C281.806 45.4394 281.056 46.5947 280.2 47.67C279.707 48.2769 279.154 48.833 278.55 49.33C278.4 49.47 278.19 49.54 278.04 49.69C277.89 49.84 277.68 49.9 277.47 49.98C277.26 50.06 277.25 50.05 277.11 50.12H276.89C276.89 50.1386 276.883 50.1564 276.869 50.1695C276.856 50.1827 276.839 50.19 276.82 50.19H276.1C275.788 50.1972 275.484 50.0945 275.24 49.9C274.931 49.7408 274.679 49.4891 274.52 49.18C274.231 48.6934 274.035 48.1578 273.94 47.6C273.827 46.6679 273.78 45.7288 273.8 44.79C273.87 42.99 274.01 41.26 274.16 39.54C274.23 38.67 274.3 37.81 274.3 37.02C274.315 36.296 274.292 35.5716 274.23 34.85C274.211 34.7538 274.168 34.6638 274.105 34.5886C274.042 34.5134 273.961 34.4554 273.87 34.42C273.72 34.35 273.44 34.49 273.29 34.64L272.86 35.07C272.484 35.6208 272.149 36.1991 271.86 36.8C271.5 37.45 271.21 38.1 270.93 38.74C270.42 40.04 269.93 41.26 269.56 42.49C268.77 44.86 268.19 46.95 267.83 48.32L267.18 50.7C265.89 55.7 262.86 56.38 260.92 56.46C250.4 56.82 258.76 34.06 257.1 26.21C257.1 26.21 268.41 22.97 267.54 37.16V37.52C269 35 271.71 31 274.16 31.11C277.16 31.18 276.6 36.58 276.16 40.11C276.141 40.643 276.088 41.1741 276 41.7V42.13C275.85 43.06 275.78 44 275.71 44.86C275.64 45.72 275.71 46.52 275.78 47.17C275.833 47.4157 275.907 47.6565 276 47.89L276.07 47.96C276.14 47.96 276.14 48.03 276.21 48.03H276.29L276.5 47.96H276.72C276.72 47.89 276.79 47.89 276.86 47.89C276.93 47.89 277.08 47.82 277.22 47.74C277.36 47.66 277.44 47.6 277.58 47.46C278.047 47.0878 278.482 46.6763 278.88 46.23C279.71 45.2526 280.434 44.19 281.04 43.06C282.26 40.98 285.36 35.06 285.36 35.06L286.9 35.79Z" fill="black"/>
<path d="M285.75 57.75C285.515 57.8108 285.272 57.8344 285.03 57.82H285C276.15 57.75 280.61 11.88 280.75 10.16C281.4 3.74999 281.62 -0.140007 284.75 -6.5146e-06C286.547 0.0904623 288.281 0.690501 289.75 1.72999C291.277 2.79207 292.573 4.15282 293.56 5.72999C294.858 8.07768 295.687 10.6556 296 13.32C296.79 18.51 296.22 23.12 294.13 26.93C293.293 28.4873 292.239 29.9182 291 31.18C290.79 36.44 290.71 41.41 290.79 45.3C291.07 49.76 291.43 50.41 294.31 48.54C301.01 44.29 304.83 36.65 304.83 36.65L306.83 37.45C306.47 38.74 297.26 53.94 288.11 57.25C287.367 57.5791 286.563 57.7494 285.75 57.75ZM294.17 20.09C294.17 19.66 294.67 14.04 292.23 10.52C291.87 15.27 291.43 21.52 291.15 27.8C292.807 25.5348 293.848 22.8781 294.17 20.09Z" fill="black"/>
<path d="M329.31 35.93C328.44 37.45 321.31 57.54 309 57.1C297.55 56.67 304.61 33.2 303.74 30.17C303.74 30.17 314.62 28.17 313.39 36.58C311.81 47.58 312.02 53.36 316.99 49.9C321.96 46.44 327.22 35.14 327.22 35.14L329.31 35.93ZM304 20.6C304 19.5319 304.317 18.4879 304.91 17.5999C305.503 16.7118 306.347 16.0197 307.333 15.611C308.32 15.2023 309.406 15.0954 310.453 15.3037C311.501 15.5121 312.463 16.0264 313.218 16.7816C313.974 17.5368 314.488 18.499 314.696 19.5465C314.905 20.594 314.798 21.6797 314.389 22.6664C313.98 23.6532 313.288 24.4965 312.4 25.0899C311.512 25.6832 310.468 26 309.4 26C308.69 26.0013 307.988 25.8625 307.332 25.5916C306.676 25.3207 306.08 24.923 305.579 24.4213C305.077 23.9196 304.679 23.3238 304.408 22.668C304.137 22.0122 303.999 21.3095 304 20.6Z" fill="black"/>
<path d="M352.85 35.79C352.85 35.79 349.68 41.98 348.39 44.22C347.756 45.4394 347.006 46.5947 346.15 47.67C345.657 48.2769 345.104 48.833 344.5 49.33C344.35 49.47 344.14 49.54 343.99 49.69C343.84 49.84 343.63 49.9 343.42 49.98C343.21 50.06 343.2 50.05 343.06 50.12H342.84C342.84 50.1386 342.833 50.1564 342.819 50.1695C342.806 50.1827 342.789 50.19 342.77 50.19H342.05C341.738 50.1972 341.434 50.0945 341.19 49.9C340.881 49.7408 340.629 49.4891 340.47 49.18C340.181 48.6934 339.985 48.1578 339.89 47.6C339.777 46.6679 339.73 45.7288 339.75 44.79C339.82 42.99 339.96 41.26 340.11 39.54C340.18 38.67 340.25 37.81 340.25 37.02C340.265 36.296 340.242 35.5716 340.18 34.85C340.161 34.7538 340.118 34.6638 340.055 34.5886C339.992 34.5134 339.911 34.4554 339.82 34.42C339.67 34.35 339.39 34.49 339.24 34.64L338.81 35.07C338.434 35.6208 338.099 36.1991 337.81 36.8C337.45 37.45 337.16 38.1 336.87 38.74C336.37 40.04 335.87 41.26 335.51 42.49C334.71 44.86 334.14 46.95 333.78 48.32L333.13 50.7C331.83 55.7 328.81 56.38 326.87 56.46C316.35 56.82 324.71 34.06 323.05 26.21C323.05 26.21 334.35 22.97 333.49 37.16V37.52C334.93 35 337.67 31.04 340.12 31.11C343.12 31.18 342.56 36.58 342.12 40.11C342.115 40.6421 342.075 41.1732 342 41.7V42.13C341.85 43.06 341.78 44 341.71 44.86C341.64 45.72 341.71 46.52 341.78 47.17C341.833 47.4157 341.907 47.6565 342 47.89L342.07 47.96C342.14 47.96 342.14 48.03 342.21 48.03H342.29L342.5 47.96H342.72C342.72 47.89 342.79 47.89 342.86 47.89C342.93 47.89 343.08 47.82 343.22 47.74C343.36 47.66 343.44 47.6 343.58 47.46C344.048 47.0878 344.482 46.6763 344.88 46.23C345.696 45.2507 346.407 44.1882 347 43.06C348.22 40.98 351.32 35.06 351.32 35.06L352.85 35.79Z" fill="black"/>
<path d="M378.41 37C366.24 59.68 342.12 66.16 345.72 44.63C347.88 31.63 359.72 31.02 363.36 32.17C366.24 33.11 368.83 36.63 365.66 41.75C363.5 45.28 358.9 45.75 356.3 45.64C354.36 63 374.45 41.05 377 35.86L378.41 37ZM356.59 43.84C361.27 44.12 363.07 41.84 363.79 40.38C364.3 39.38 364.87 36.2 362.06 36.13C361.2 36.08 358 35.86 356.59 43.86V43.84Z" fill="black"/>
</g>
<defs>
<clipPath id="clip0_1131_19542">
<rect width="378.41" height="65.03" fill="white"/>
</clipPath>
</defs>
</svg>
