<?xml version="1.0" encoding="UTF-8"?>
<svg width="149px" height="25px" viewBox="0 0 149 25" version="1.1" xmlns="http://www.w3.org/2000/svg" xmlns:xlink="http://www.w3.org/1999/xlink">
    <title>Imaware-logo-Color</title>
    <g id="Page-2" stroke="none" stroke-width="1" fill="none" fill-rule="evenodd">
        <g id="Home-Test-03/18-Copy" transform="translate(-113.000000, -53.000000)">
            <g id="Imaware-logo-Color" transform="translate(113.000000, 53.000000)">
                <g id="Group-5">
                    <g id="Group-3">
                        <path d="M3.32809892,0.403430208 C4.6260215,0.225938959 5.68512164,0.652967112 6.39121629,1.7729115 C7.46768787,3.48024283 6.46014438,5.75587541 4.47862916,6.14515075 C4.27008823,6.18611242 4.05633309,6.200622 3.84500381,6.22743682 C2.37437064,6.21183902 1.17231163,5.23687884 0.897156954,3.82065994 C0.585056596,2.21439343 1.70806579,0.624952458 3.32809892,0.403430208 Z" id="Fill-1" fill="#FFFFFF"></path>
                        <path d="M38.4707674,16.2611364 C38.4681108,15.6482144 38.4334075,15.0321634 38.3623509,14.4235158 C38.2379669,13.3582289 37.9077118,12.3552986 37.3393989,11.4370191 C35.8021326,8.9530631 32.6961964,7.74660772 29.8687539,8.26957081 C28.3547257,8.54961687 27.0406402,9.23380759 25.9011063,10.2618258 C25.8396413,10.3172539 25.7749326,10.3690781 25.699989,10.4325243 C25.1199872,9.81630562 24.4684254,9.31058 23.7233519,8.92912062 C22.9695537,8.54319123 22.1709571,8.29929637 21.331505,8.19900055 C20.5014769,8.09982223 19.6781041,8.14499725 18.8613589,8.33748701 C18.0404749,8.53095458 17.2991766,8.89886424 16.5507754,9.39835979 L16.5507754,8.48717643 C15.986797,8.43244676 12.2324589,8.45474093 12.0337186,8.51064398 C11.9775109,9.1028084 12.0047199,24.3001679 12.0624097,24.500592 L16.7272284,24.500592 C16.7272284,24.3537242 16.7272005,24.2427283 16.7272005,24.1317045 C16.7272005,20.9380228 16.7290461,17.7443412 16.722922,14.5506875 C16.7225305,14.3482241 16.7783467,14.1984229 16.9165449,14.0542931 C17.2931084,13.6616028 17.7043753,13.3149257 18.1814975,13.0511113 C18.9648537,12.6179675 19.7951615,12.4406199 20.6868504,12.5977966 C21.772274,12.7891129 22.5514356,13.5164951 22.7616132,14.5944936 C22.8446664,15.0204575 22.8753709,15.4625693 22.8769648,15.8975012 C22.8869759,18.653541 22.8821661,21.4096088 22.88225,24.1656765 L22.88225,24.4960381 L27.6008715,24.4960381 C27.6008715,24.357831 27.6008715,24.2385656 27.6008715,24.1192723 C27.6008715,21.7170336 27.6081142,19.3147671 27.5967328,16.9125843 C27.5930136,16.131562 27.546817,15.3504559 27.5051506,14.570188 C27.4969013,14.4155256 27.532891,14.3041945 27.6297583,14.1923325 C28.1703589,13.5682634 28.816216,13.09109 29.5894772,12.7963208 C30.2194787,12.5561417 30.8680763,12.47814 31.5384858,12.5941647 C32.6175336,12.7809272 33.3750231,13.4836685 33.6303626,14.5456029 C33.7467488,15.0295931 33.759025,15.5229703 33.7594445,16.0163476 C33.7617655,18.7258434 33.7604512,21.4353672 33.7610385,24.1448631 C33.7610664,24.2618655 33.7674422,24.378868 33.770686,24.4895566 C34.2521427,24.5475829 38.2574858,24.5261828 38.4756331,24.4628483 C38.4756331,24.3590603 38.4756331,24.2486511 38.4756331,24.1382139 C38.4756331,21.5125307 38.4822047,18.8867917 38.4707674,16.2611364" id="Fill-3" fill="#FFFFFF"></path>
                        <polygon id="Fill-5" fill="#FFFFFF" points="1.55502392 24.4223827 6.22105263 24.4223827 6.22105263 8.45126354 1.55502392 8.45126354"></polygon>
                        <path d="M126.345644,14.573674 C126.614311,12.6417008 128.510568,10.4518731 131.309438,10.4233557 C133.841128,10.3975675 135.822528,12.5035973 136.088222,14.573674 L126.345644,14.573674 Z M138.445811,13.1956744 C137.804153,11.4454999 136.72744,10.0358638 135.101588,9.07676985 C133.636543,8.21255766 132.043447,7.91276248 130.357691,8.10071581 C128.018892,8.36149446 126.15009,9.44125841 124.863997,11.398797 C123.34219,13.715143 123.020519,16.2611045 123.759128,18.898968 C124.532763,21.6619016 126.352712,23.5043679 129.096081,24.4191818 C130.310464,24.824135 131.56425,24.8978515 132.834807,24.768604 C134.341386,24.6153228 135.731299,24.1445065 136.981159,23.287535 C137.497851,22.9332671 137.966587,22.5248327 138.391545,22.0148049 C137.785644,21.4406964 137.199541,20.8853582 136.62261,20.3386811 C136.576953,20.3567551 136.556172,20.3592059 136.544085,20.3707075 C136.463177,20.4477659 136.383727,20.5263559 136.304529,20.6051966 C134.942127,21.9619752 133.290698,22.553183 131.374277,22.4333485 C128.790172,22.2717682 126.634026,20.3544994 126.182706,17.81589 C126.128243,17.509606 126.071734,17.199813 126.119774,16.8562948 L138.952435,16.8562948 C138.971786,16.8022676 138.986397,16.7770363 138.989146,16.7506076 C138.995848,16.6861091 139,16.6210537 139,16.5562489 C138.998484,15.4063053 138.843426,14.280117 138.445811,13.1956744 L138.445811,13.1956744 Z" id="Fill-8" fill="#FFFFFF"></path>
                        <path d="M119.301647,8.16479973 C117.782301,8.45577984 116.512827,9.15126007 115.633679,10.4622815 C115.576979,10.5468591 115.517771,10.6301312 115.454495,10.7099035 C115.425629,10.7463177 115.384142,10.7727603 115.311978,10.8352005 C115.311978,10.5173611 115.312006,10.2507682 115.312006,9.98420312 C115.312006,9.72502639 115.31769,9.46568301 115.31039,9.20667294 C115.302978,8.94344094 115.34441,8.67676473 115.281858,8.41675473 L112.662108,8.41675473 C112.605268,8.7753691 112.621512,24.2160634 112.679021,24.4223827 L115.418413,24.4223827 L115.418413,24.0710456 C115.418413,20.6923044 115.41936,17.3135631 115.415822,13.9348219 C115.415627,13.7526399 115.449842,13.5957618 115.549729,13.4392447 C115.911998,12.8715613 116.348465,12.3706788 116.873758,11.9495965 C118.076697,10.9853569 119.42767,10.5010011 120.987695,10.7040706 C121.06727,10.714431 121.149409,10.7054038 121.249436,10.7054038 C121.355314,9.8412129 121.47476,8.98646578 121.55311,8.13013543 C120.919961,8.01167131 120.075307,8.01664319 119.301647,8.16479973" id="Fill-9" fill="#FFFFFF"></path>
                        <path d="M103.676833,19.8635877 C102.596719,21.1951331 101.22246,22.0234781 99.5052769,22.1771116 C96.3994719,22.4549438 93.8533995,20.4217306 93.3239822,17.5754048 C92.9507434,15.5687301 93.4476142,13.7761731 94.8731615,12.28885 C95.8851704,11.2329648 97.1605354,10.713084 98.6149478,10.6793331 C100.682528,10.6313244 102.364404,11.4479458 103.68559,13.0275547 C103.799628,13.163895 103.848825,13.3025466 103.847514,13.4814375 C103.840235,14.4651425 103.844028,15.4489311 103.844028,16.4326918 C103.844056,17.4164526 103.839956,18.4002412 103.847654,19.3839462 C103.849076,19.5726672 103.794469,19.7185869 103.676833,19.8635877 M106.585881,8.41930387 L103.947245,8.41930387 L103.947245,10.2124179 C103.878973,10.1851832 103.858865,10.18212 103.84545,10.1710368 C103.759608,10.0999984 103.674658,10.0278739 103.590461,9.95488624 C101.563793,8.1981408 99.2161236,7.71655 96.6354967,8.25653654 C94.9034769,8.618941 93.5182292,9.57688731 92.3956961,10.9175387 C90.0152566,13.7606064 89.7506735,17.9588061 91.7483362,21.0836047 C93.8935875,24.4392572 97.6089908,25.3825559 100.697198,24.5320443 C101.772375,24.2359443 102.723447,23.7076536 103.54832,22.9557771 C103.661243,22.8528536 103.776425,22.7524363 103.927862,22.6176276 C103.979652,23.2704235 103.912021,23.8688058 103.9695,24.4567175 L106.605069,24.4567175 C106.666899,24.0360565 106.644978,8.60677174 106.585881,8.41930387" id="Fill-10" fill="#FFFFFF"></path>
                        <path d="M57.0558905,19.840273 C55.9664595,21.1944831 54.5740484,22.0330131 52.8311376,22.1809153 C49.7829725,22.4395909 47.3042611,20.4973932 46.7014318,17.7691971 C46.2634679,15.786946 46.6988601,13.9856592 48.0575322,12.4517382 C49.0497715,11.3315256 50.3332786,10.7506127 51.8211483,10.6837642 C53.9574384,10.5878089 55.699231,11.4093483 57.0611736,13.0466336 C57.1631732,13.1692448 57.2043197,13.2927194 57.2034811,13.4503703 C57.1981701,14.4436266 57.2007976,15.4369108 57.2007976,16.4301672 C57.2007976,17.4234514 57.197611,18.4167356 57.2038916,19.4099641 C57.2049346,19.5774751 57.1619153,19.7084423 57.0558905,19.840273 L57.0558905,19.840273 Z M57.3080524,10.1804233 C57.2878425,10.1896986 57.2676327,10.1990016 57.2474228,10.2082769 C57.1424882,10.118115 57.037274,10.0282317 56.9326188,9.93776353 C54.9955481,8.26326591 52.7426392,7.76064923 50.2585329,8.19530334 C48.4089264,8.51893333 46.9213921,9.48776214 45.7372012,10.9122745 C44.2623295,12.6864598 43.6214285,14.7445003 43.7741624,17.0400756 C43.9208305,19.2440407 44.7901056,21.119 46.3860966,22.6620569 C48.5585296,24.7624348 51.7802814,25.2800088 54.3313904,24.4497234 C55.3300589,24.1246728 56.2109343,23.6038121 56.9818995,22.894021 C57.0720472,22.8110175 57.1502031,22.7033637 57.316578,22.6552607 L57.316578,24.4467988 C57.6908096,24.5042048 59.7841921,24.489916 59.9818182,24.4325378 L59.9818182,8.41840999 L57.3080524,8.41840999 L57.3080524,10.1804233 Z" id="Fill-11" fill="#FFFFFF"></path>
                        <path d="M82.2251264,20.2199115 C82.2037934,20.2157102 82.1824603,20.211481 82.1611273,20.2072797 C80.5864822,16.2945859 79.0117812,12.381892 77.4395126,8.47515234 L75.4783288,8.47515234 C73.8992102,12.3982521 72.3229155,16.3143404 70.721681,20.2923909 C69.1155536,16.3015973 67.5380845,12.3819755 65.9672978,8.47896412 C65.3686592,8.43005093 63.3648094,8.44949935 63.1263158,8.50923577 C65.2965799,13.8444466 67.465446,19.1762074 69.6359338,24.5120025 L71.5935667,24.5120025 C73.2062646,20.4861239 74.8180677,16.4624711 76.4298709,12.4388183 C76.4498619,12.4402651 76.4698528,12.4417397 76.4898718,12.4432144 C78.1017588,16.467201 79.7136738,20.4911877 81.328888,24.5234657 L82.2977928,24.5234657 L83.2771545,24.5234657 C85.4549397,19.1696133 87.6232746,13.8389933 89.8038278,8.47835201 L86.950963,8.47835201 C85.3789181,12.3841457 83.8020083,16.3020425 82.2251264,20.2199115" id="Fill-12" fill="#FFFFFF"></path>
                        <path d="M16.7272058,24.5006019 C15.1501739,24.5006019 13.6062794,24.5006019 12.062357,24.5004343 C12.0047231,24.3001779 11.9775141,9.10281506 12.0337218,8.51065051 C12.2324342,8.45474745 15.986774,8.43245328 16.5507527,8.48718296 L16.5507527,9.39836652 C17.2991543,8.89887087 18.0404809,8.53096112 18.8613652,8.33749351 C19.6781108,8.14497578 20.501456,8.09982868 21.3315125,8.19900702 C22.1709649,8.29930286 22.969534,8.54319777 23.7233325,8.92912724 C24.4684343,9.31058671 25.1199964,9.8162845 25.6999705,10.4325312 C25.7749141,10.369085 25.8396509,10.3172608 25.9010879,10.2618048 C27.0406504,9.23378635 28.3547084,8.54959548 29.8687653,8.2695773 C32.6961811,7.74658615 35.8021468,8.95306973 37.3394138,11.4370262 C37.907699,12.3553059 38.2379542,13.3582365 38.3623383,14.4235236 C38.4334229,15.0321713 38.4680983,15.6482225 38.4707548,16.2611446 C38.4821921,18.8868004 38.4756486,21.5125121 38.4756486,24.1382238 C38.4756486,24.248661 38.4756486,24.3590702 38.4756486,24.4628303 C38.2575011,24.5261648 34.2521281,24.5475929 33.7706713,24.4895666 C33.7674555,24.37885 33.7610797,24.2618475 33.7610517,24.144873 C33.7604644,21.4353486 33.7617508,18.7258522 33.7594577,16.0163557 C33.7590383,15.5229784 33.7467621,15.0296011 33.6303757,14.5456107 C33.3750082,13.4836761 32.6175183,12.7809347 31.53847,12.5941721 C30.8680881,12.4781474 30.2194623,12.5561491 29.5894885,12.7963003 C28.8161989,13.0910975 28.1703415,13.5682431 27.6297687,14.1923403 C27.5328733,14.3041743 27.4968836,14.4155335 27.505133,14.5701958 C27.5467994,15.3504639 27.592996,16.1315702 27.5967152,16.9125927 C27.6081246,19.3147759 27.6008819,21.717043 27.6008819,24.1192822 C27.6008819,24.2385755 27.6008539,24.357841 27.6008539,24.4960481 L22.8822302,24.4960481 L22.8822302,24.1656585 C22.8821463,21.4096181 22.8869841,18.6535497 22.876945,15.8975093 C22.875379,15.4625774 22.8446745,15.0204655 22.7616213,14.5944735 C22.5514157,13.5165027 21.7722537,12.7891204 20.6868576,12.597804 C19.7951403,12.4406273 18.9648601,12.6179749 18.1815035,13.0511188 C17.7043532,13.3149332 17.2930861,13.6616104 16.9165503,14.0543008 C16.778352,14.1984307 16.7225358,14.3482319 16.7229273,14.5506954 C16.7290235,17.7443498 16.7272058,20.9380321 16.7272058,24.1317144 C16.7272058,24.2427382 16.7272058,24.3537342 16.7272058,24.5006019" id="Fill-14" fill="#000000"></path>
                        <path d="M82.2251264,20.2199115 C83.8020083,16.3020425 85.3789181,12.3841457 86.950963,8.47835201 L89.8038278,8.47835201 C87.6232746,13.8389933 85.4549397,19.1696133 83.2771545,24.5234657 L82.2977928,24.5234657 L81.328888,24.5234657 C79.7136738,20.4911877 78.1017588,16.467201 76.4898718,12.4432144 C76.4698528,12.4417397 76.4498619,12.4402651 76.4298709,12.4388183 C74.8180677,16.4624711 73.2062646,20.4861239 71.5935667,24.5120025 L69.6359338,24.5120025 C67.465446,19.1762074 65.2965799,13.8444466 63.1263158,8.50923577 C63.3648094,8.44949935 65.3686592,8.43005093 65.9672978,8.47896412 C67.5380845,12.3819755 69.1155536,16.3015973 70.721681,20.2923909 C72.3229155,16.3143404 73.8992102,12.3982521 75.4783288,8.47515234 L77.4395126,8.47515234 C79.0117812,12.381892 80.5864822,16.2945859 82.1611273,20.2072797 C82.1824603,20.211481 82.2037934,20.2157102 82.2251264,20.2199115" id="Fill-16" fill="#000000"></path>
                        <path d="M103.676833,19.8635877 C102.596719,21.1951331 101.22246,22.0234781 99.5052769,22.1771116 C96.3994719,22.4549438 93.8533995,20.4217306 93.3239822,17.5754048 C92.9507434,15.5687301 93.4476142,13.7761731 94.8731615,12.28885 C95.8851704,11.2329648 97.1605354,10.713084 98.6149478,10.6793331 C100.682528,10.6313244 102.364404,11.4479458 103.68559,13.0275547 C103.799628,13.163895 103.848825,13.3025466 103.847514,13.4814375 C103.840235,14.4651425 103.844028,15.4489311 103.844028,16.4326918 C103.844056,17.4164526 103.839956,18.4002412 103.847654,19.3839462 C103.849076,19.5726672 103.794469,19.7185869 103.676833,19.8635877 M106.585881,8.41930387 L103.947245,8.41930387 L103.947245,10.2124179 C103.878973,10.1851832 103.858865,10.18212 103.84545,10.1710368 C103.759608,10.0999984 103.674658,10.0278739 103.590461,9.95488624 C101.563793,8.1981408 99.2161236,7.71655 96.6354967,8.25653654 C94.9034769,8.618941 93.5182292,9.57688731 92.3956961,10.9175387 C90.0152566,13.7606064 89.7506735,17.9588061 91.7483362,21.0836047 C93.8935875,24.4392572 97.6089908,25.3825559 100.697198,24.5320443 C101.772375,24.2359443 102.723447,23.7076536 103.54832,22.9557771 C103.661243,22.8528536 103.776425,22.7524363 103.927862,22.6176276 C103.979652,23.2704235 103.912021,23.8688058 103.9695,24.4567175 L106.605069,24.4567175 C106.666899,24.0360565 106.644978,8.60677174 106.585881,8.41930387" id="Fill-17" fill="#000000"></path>
                        <path d="M57.0558905,19.840273 C55.9664595,21.1944831 54.5740484,22.0330131 52.8311376,22.1809153 C49.7829725,22.4395909 47.3042611,20.4973932 46.7014318,17.7691971 C46.2634679,15.786946 46.6988601,13.9856592 48.0575322,12.4517382 C49.0497715,11.3315256 50.3332786,10.7506127 51.8211483,10.6837642 C53.9574384,10.5878089 55.699231,11.4093483 57.0611736,13.0466336 C57.1631732,13.1692448 57.2043197,13.2927194 57.2034811,13.4503703 C57.2021394,13.6986844 57.2013287,13.9469985 57.2008256,14.1953126 C57.1993161,14.9402548 57.2007976,15.6852249 57.2007976,16.4301672 C57.2007976,17.1751373 57.1990087,17.9200796 57.2007697,18.6650218 C57.2013287,18.9133359 57.2023071,19.16165 57.2038916,19.4099641 C57.2049346,19.5774751 57.1619153,19.7084423 57.0558905,19.840273 L57.0558905,19.840273 Z M57.3080524,8.41840999 L57.3080524,10.1804233 C57.2878425,10.1896986 57.2676327,10.1990016 57.2474228,10.2082769 C57.1424882,10.118115 57.037274,10.0282317 56.9326188,9.93776353 C54.9955481,8.26326591 52.7426392,7.76064923 50.2585329,8.19530334 C48.4089264,8.51893333 46.9213921,9.48776214 45.7372012,10.9122745 C44.2623295,12.6864598 43.6214285,14.7445003 43.7741624,17.0400756 C43.9208305,19.2440407 44.7901056,21.119 46.3860966,22.6620569 C48.5585296,24.7624348 51.7802814,25.2800088 54.3313904,24.4497234 C55.3300589,24.1246728 56.2109343,23.6038121 56.9818995,22.894021 C57.0720472,22.8110175 57.1502031,22.7033637 57.316578,22.6552607 L57.316578,24.4467988 C57.6908096,24.5042048 59.7841921,24.489916 59.9818182,24.4325378 L59.9818182,8.41840999 L57.3080524,8.41840999 Z" id="Fill-18" fill="#000000"></path>
                        <path d="M57.1437245,16.4368231 C57.1437245,17.1780894 57.1390545,17.9193835 57.1436503,18.6606498 C57.1390545,17.9193835 57.1437245,17.1780894 57.1437245,16.4368231 C57.1437245,15.6955568 57.1397958,14.9542627 57.1437986,14.2129964 C57.1397958,14.9542627 57.1437245,15.6955568 57.1437245,16.4368231" id="Fill-19" fill="#000000"></path>
                        <path d="M126.345644,14.573674 C126.614311,12.6417008 128.510568,10.4518731 131.309438,10.4233557 C133.841128,10.3975675 135.822528,12.5035973 136.088222,14.573674 L126.345644,14.573674 Z M138.445811,13.1956744 C137.804153,11.4454999 136.72744,10.0358638 135.101588,9.07676985 C133.636543,8.21255766 132.043447,7.91276248 130.357691,8.10071581 C128.018892,8.36149446 126.15009,9.44125841 124.863997,11.398797 C123.34219,13.715143 123.020519,16.2611045 123.759128,18.898968 C124.532763,21.6619016 126.352712,23.5043679 129.096081,24.4191818 C130.310464,24.824135 131.56425,24.8978515 132.834807,24.768604 C134.341386,24.6153228 135.731299,24.1445065 136.981159,23.287535 C137.497851,22.9332671 137.966587,22.5248327 138.391545,22.0148049 C137.785644,21.4406964 137.199541,20.8853582 136.62261,20.3386811 C136.576953,20.3567551 136.556172,20.3592059 136.544085,20.3707075 C136.463177,20.4477659 136.383727,20.5263559 136.304529,20.6051966 C134.942127,21.9619752 133.290698,22.553183 131.374277,22.4333485 C128.790172,22.2717682 126.634026,20.3544994 126.182706,17.81589 C126.128243,17.509606 126.071734,17.199813 126.119774,16.8562948 L138.952435,16.8562948 C138.971786,16.8022676 138.986397,16.7770363 138.989146,16.7506076 C138.995848,16.6861091 139,16.6210537 139,16.5562489 C138.998484,15.4063053 138.843426,14.280117 138.445811,13.1956744 L138.445811,13.1956744 Z" id="Fill-20" fill="#000000"></path>
                        <polygon id="Fill-21" fill="#000000" points="1.55502392 24.4223827 6.22105263 24.4223827 6.22105263 8.45126354 1.55502392 8.45126354"></polygon>
                        <path d="M115.418413,24.4223827 L112.679021,24.4223827 C112.621512,24.2160634 112.605268,8.7753691 112.662108,8.41675473 L115.281858,8.41675473 C115.34441,8.67679251 115.302978,8.94344094 115.31039,9.20670072 C115.31769,9.46568301 115.312006,9.72502639 115.312006,9.9842309 C115.312006,10.2507682 115.311978,10.5173611 115.311978,10.8352005 C115.384142,10.7727603 115.425629,10.7463177 115.454495,10.7099313 C115.517771,10.6301312 115.576979,10.5468869 115.633707,10.4622815 C116.512827,9.15126007 117.782301,8.45577984 119.301647,8.16479973 C120.075307,8.01664319 120.919961,8.01167131 121.55311,8.13013543 C121.47476,8.98649355 121.355314,9.84124067 121.249436,10.7054038 C121.149409,10.7054038 121.06727,10.714431 120.987695,10.7040706 C119.42767,10.5010011 118.076697,10.9853569 116.873758,11.9496243 C116.348465,12.3706788 115.911998,12.8715613 115.549729,13.4392725 C115.449842,13.5957895 115.415627,13.7526399 115.415822,13.9348219 C115.41936,17.3135631 115.418413,20.6923044 115.418413,24.0710456 L115.418413,24.4223827 Z" id="Fill-22" fill="#000000"></path>
                        <path d="M3.84500381,6.22743682 C2.37437064,6.21183899 1.17231163,5.23687707 0.897156954,3.82068355 C0.585056596,2.21441416 1.70806579,0.624970348 3.32809892,0.403419799 C4.6260215,0.225956135 5.68509376,0.652985052 6.39121629,1.77293145 C7.46768787,3.48026583 6.46014438,5.75590248 4.47862916,6.14515061 C4.27008823,6.18614025 4.05633309,6.20064986 3.84500381,6.22743682" id="Fill-23" fill="#000000"></path>
                    </g>
                </g>
                <path d="M139,0.814285714 L139,0 L142.55306,0 L142.55306,0.814285714 L141.14664,0.814285714 L141.14664,6 L140.406419,6 L140.406419,0.814285714 L139,0.814285714 Z M148.259779,1.96285714 L146.742327,4.71428571 L146.224172,4.71428571 L144.706719,1.96285714 L144.706719,6 L143.966499,6 L143.966499,0 L144.484653,0 L146.483249,3.66 L148.481845,0 L149,0 L149,6 L148.259779,6 L148.259779,1.96285714 Z" id="TM-Copy-3" fill="#000000"></path>
            </g>
        </g>
    </g>
</svg>