<svg xmlns="http://www.w3.org/2000/svg" width="108.486" height="94.833" viewBox="0 0 108.486 94.833"><defs><style>.a{fill:#d2e8ea;}</style></defs><path class="a" d="M91.881-40.959V0h21.771a86.12,86.12,0,0,1-.923,12.546,37.65,37.65,0,0,1-3.506,11.439,23.634,23.634,0,0,1-6.642,8.3A16.4,16.4,0,0,1,92.25,35.424v18.45q10.7,0,18.265-4.428a38.351,38.351,0,0,0,12.546-11.808,52.9,52.9,0,0,0,7.38-17.159A85.681,85.681,0,0,0,132.84,0V-40.959Zm-67.527,0V0H46.125A86.12,86.12,0,0,1,45.2,12.546,37.65,37.65,0,0,1,41.7,23.985a23.634,23.634,0,0,1-6.642,8.3,16.4,16.4,0,0,1-10.332,3.137v18.45q10.7,0,18.265-4.428A38.351,38.351,0,0,0,55.535,37.638a52.9,52.9,0,0,0,7.38-17.159A85.681,85.681,0,0,0,65.313,0V-40.959Z" transform="translate(-24.354 40.959)"/></svg>