<svg xmlns="http://www.w3.org/2000/svg" viewBox="0 0 24 24">
  <path fill="#FFF" d="M22.393 6C19.08.26 11.74-1.705 6.003 1.61S-1.706 12.262 1.61 18c3.314 5.74 10.653 7.708 16.392 4.392 5.738-3.313 7.707-10.653 4.39-16.39zm-5.59 14.313C12.21 22.965 6.338 21.39 3.69 16.8 1.037 12.21 2.61 6.338 7.2 3.688 11.794 1.037 17.667 2.61 20.315 7.2c2.653 4.592 1.08 10.463-3.51 13.113zm-.48-8.8L10.036 7.85c-.57-.337-1.033-.07-1.03.592l.032 7.273c0 .664.47.934 1.044.602l6.236-3.6c.573-.33.575-.868.002-1.204z" opacity=".85"/>
</svg>
