<?xml version="1.0" encoding="utf-8"?>
<!-- Generator: Adobe Illustrator 16.0.0, SVG Export Plug-In . SVG Version: 6.00 Build 0)  -->
<!DOCTYPE svg PUBLIC "-//W3C//DTD SVG 1.1//EN" "http://www.w3.org/Graphics/SVG/1.1/DTD/svg11.dtd">
<svg version="1.1" id="Ebene_1" xmlns="http://www.w3.org/2000/svg" xmlns:xlink="http://www.w3.org/1999/xlink" x="0px" y="0px"
	 width="210px" height="210px" viewBox="0 0 210 210" enable-background="new 0 0 210 210" xml:space="preserve">
<path fill="none" stroke="#FFFFFF" stroke-width="0.75" d="M205.5,105.233c0,55.104-44.673,99.777-99.779,99.777
	c-55.108,0-99.784-44.672-99.784-99.777l0,0c0-55.107,44.675-99.78,99.784-99.78C160.828,5.453,205.5,50.126,205.5,105.233z"/>
<path fill="#FFFFFF" d="M98.171,199.174c-0.505-0.076-0.938-0.322-0.969-0.537c-0.027-0.22-0.063-0.552-0.085-0.742
	c-0.054-0.463-2.39-2.51-3.923-3.438c-0.774-0.464-1.394-1.178-1.648-1.891c-0.229-0.629-0.537-1.146-0.684-1.146
	c-0.144,0-0.261-0.215-0.261-0.479c0-0.268-0.317-0.701-0.703-0.978c-0.383-0.267-0.603-0.649-0.481-0.845
	c0.137-0.221,0.022-0.278-0.298-0.159c-0.378,0.149-0.515-0.021-0.515-0.606c0-0.508-0.574-1.404-1.536-2.416
	c-1.587-1.646-2.268-3.672-1.55-4.584c0.183-0.229,0.427-0.826,0.549-1.326c0.12-0.498,0.667-1.239,1.211-1.646
	c1.182-0.872,1.216-1.194,0.293-2.757c-0.386-0.654-0.613-1.413-0.503-1.699c0.107-0.277-0.422-1.781-1.179-3.33
	c-1.021-2.104-1.848-3.257-3.242-4.531c-1.682-1.533-3.369-3.853-3.369-4.635c0-0.16,0.227-0.299,0.5-0.299
	c0.339,0,0.503-0.347,0.51-1.079c0.007-0.596,0.229-1.372,0.5-1.729c0.869-1.151,0.356-3.514-0.566-2.598
	c-0.227,0.231-0.605,0.416-0.847,0.416c-0.613,0-0.537-0.978,0.098-1.22c0.964-0.371-0.237-0.769-2.358-0.778
	c-1.099-0.004-2.166-0.121-2.371-0.254c-0.205-0.14-0.769-1.025-1.245-1.976c-0.762-1.511-1.038-1.763-2.129-1.968
	c-1.675-0.314-3.73-0.311-6.741,0.013c-2.341,0.254-2.605,0.212-4.163-0.623c-1.289-0.688-2.307-0.933-4.495-1.076
	c-3.24-0.218-3.511-0.389-6.421-4.103c-0.935-1.188-2.383-2.791-3.215-3.563c-0.994-0.923-1.389-1.491-1.145-1.665
	c0.596-0.414,0.144-2.254-0.82-3.338c-0.486-0.547-1.074-1.273-1.304-1.615c-0.232-0.35-0.725-1.082-1.096-1.627
	c-0.5-0.742-0.61-1.255-0.432-1.996c0.134-0.553,0.256-1.746,0.264-2.662c0.012-1.062,0.21-1.84,0.547-2.162
	c0.701-0.664,1.389-2.33,0.964-2.33c-0.178,0-0.325-0.448-0.325-1c0-0.547,0.129-0.996,0.288-0.996c0.159,0,0.271,0.262,0.251,0.58
	c-0.09,1.31,0.574,0.807,0.696-0.528c0.09-0.965,0.017-1.375-0.217-1.226c-0.444,0.271-0.449,0.344,0.146-2.485
	c0.405-1.933,0.764-2.679,1.917-4.017c0.779-0.905,1.677-1.727,1.997-1.828c0.322-0.104,0.581-0.405,0.581-0.68
	c0-0.884,1.011-2.049,1.943-2.233c0.518-0.104,1.116-0.554,1.372-1.03c0.354-0.658,0.627-0.803,1.23-0.654
	c0.481,0.125,0.784,0.053,0.784-0.186c0-0.21,0.186-0.354,0.415-0.314c0.229,0.036,0.642-0.029,0.916-0.146
	c0.273-0.115,0.891-0.351,1.367-0.524c0.669-0.244,0.916-0.616,1.077-1.598c0.281-1.77,2.28-3.804,4.25-4.326
	c1.868-0.493,3.262-2.219,3.032-3.762c-0.1-0.691-0.334-0.999-0.757-0.999c-0.334,0-0.698-0.151-0.811-0.332
	c-0.115-0.183-0.496-0.334-0.854-0.334c-0.767,0-0.796-0.269-0.134-1.15c0.313-0.413,0.42-1.021,0.298-1.67
	c-0.151-0.813,0.017-1.289,0.825-2.305c1.057-1.328,1.687-3.044,1.692-4.595c0.002-0.776,0.195-0.955,1.367-1.272
	c1.133-0.303,1.462-0.278,1.938,0.154c0.317,0.286,0.798,0.52,1.067,0.52c0.271,0,0.637,0.151,0.818,0.33
	c0.178,0.178,1.072,0.554,1.98,0.83c1.587,0.483,1.68,0.476,2.227-0.181c0.315-0.378,0.671-1.204,0.786-1.831
	c0.251-1.333-0.083-3.469-0.542-3.469c-0.173,0-0.317-0.208-0.317-0.466c0-0.256-0.225-0.549-0.5-0.657
	c-0.291-0.112-0.498-0.61-0.498-1.199c0-0.952,0.073-1.008,1.304-1.008c0.72,0,1.389,0.188,1.497,0.417
	c0.105,0.229,0.098,0.054-0.012-0.383c-0.159-0.63-0.09-0.757,0.315-0.601c0.283,0.11,0.576,0.02,0.657-0.2
	c0.095-0.273,0.352-0.212,0.818,0.205c0.645,0.571,0.745,0.574,1.963,0.039l1.284-0.566l-1.167-0.291
	c-0.64-0.159-2.288-0.347-3.662-0.42c-1.375-0.068-2.761-0.144-3.079-0.161c-0.903-0.054-0.686-0.593,0.33-0.82
	c0.505-0.112,1.216-0.437,1.584-0.72c0.54-0.42,0.576-0.569,0.2-0.803c-0.613-0.376-0.217-1.35,0.552-1.35
	c0.444,0,0.603-0.247,0.593-0.913c-0.01-0.803,0.103-0.903,0.901-0.818c0.811,0.083,0.911-0.012,0.879-0.833
	c-0.022-0.566-0.098-0.701-0.19-0.349c-0.083,0.322-0.381,0.581-0.662,0.581c-0.315,0-0.439-0.188-0.325-0.493
	c0.159-0.413,0.083-0.427-0.464-0.085c-0.359,0.227-0.654,0.723-0.654,1.108c0,0.383-0.261,0.928-0.583,1.208
	c-0.674,0.588-3.445,1.064-4.414,0.757c-0.991-0.315-0.874-1.748,0.181-2.231c0.503-0.227,0.776-0.569,0.671-0.84
	c-0.261-0.679,0.82-2.153,1.414-1.929c0.271,0.107,0.771-0.054,1.104-0.359c0.352-0.317,0.94-0.481,1.404-0.393
	c0.535,0.103,0.925-0.054,1.182-0.459c0.237-0.378,0.254-0.61,0.046-0.61c-0.591,0-0.361-0.664,0.249-0.703
	c0.554-0.039,0.554-0.046,0-0.19c-0.784-0.205-0.735-0.571,0.203-1.584c0.806-0.872,1.877-1.14,1.877-0.474
	c0,0.264,0.144,0.256,0.483-0.029c0.266-0.22,0.652-0.3,0.854-0.173c0.2,0.125,0.664-0.039,1.021-0.364
	c0.52-0.471,0.735-0.505,1.06-0.176c0.327,0.327,0.183,0.615-0.676,1.389c-0.935,0.842-0.994,0.977-0.417,0.977
	c0.884,0,0.884,1.038,0,1.833c-0.771,0.698-0.684,1.829,0.371,4.749c0.723,2.014,0.837,4.272,0.217,4.49
	c-0.229,0.083-0.317,0.256-0.198,0.386c0.371,0.403,2.126-0.71,3.071-1.956c0.818-1.072,1.057-1.184,2.532-1.184
	c1.797,0,1.853-0.071,2.17-2.627c0.249-1.982,0.527-2.38,2.024-2.893c0.994-0.344,1.34-0.352,1.538-0.042
	c0.149,0.234,0.259-0.049,0.259-0.679c0.007-1.194-0.469-1.382-1.511-0.591c-0.356,0.269-1.096,0.493-1.648,0.498
	c-1.484,0.015-1.936-0.93-1.65-3.44c0.31-2.695,0.833-3.625,2.463-4.358c0.747-0.337,1.355-0.73,1.355-0.872
	c0-0.146,0.527-0.454,1.172-0.684c0.789-0.286,1.56-0.986,2.356-2.144c0.654-0.945,1.548-1.912,1.992-2.146
	c0.442-0.242,0.745-0.493,0.669-0.571c-0.076-0.076-0.464,0.039-0.862,0.251c-0.398,0.212-0.803,0.308-0.901,0.21
	c-0.264-0.266,1.899-2.17,3.293-2.893c0.674-0.349,1.316-0.786,1.433-0.972c0.115-0.188,0.649-0.342,1.189-0.342
	c0.537,0,0.979-0.12,0.979-0.264c0-0.393,1.986-0.991,3.379-1.018c0.85-0.017,1.479,0.222,2.098,0.798
	c0.488,0.452,1.104,0.818,1.367,0.818c0.266,0,0.483,0.151,0.483,0.334s0.295,0.332,0.659,0.332c1.179,0,4.927,1.733,5.313,2.458
	c0.217,0.398,0.739,0.723,1.221,0.752c0.776,0.046,0.799,0.005,0.319-0.525c-0.284-0.317-0.521-0.825-0.521-1.13
	c0-0.308-0.153-0.559-0.334-0.559c-0.184,0-0.334-0.239-0.334-0.535c0-0.413,0.248-0.503,1.084-0.381
	c0.593,0.081,1.343,0.261,1.66,0.4c0.426,0.186,0.891-0.103,1.797-1.106c0.787-0.881,1.613-1.433,2.336-1.57
	c2.137-0.398,0.887-1.802-1.383-1.548c-0.891,0.1-1.752-0.032-2.418-0.378c-0.877-0.452-1.067-0.776-1.235-2.117
	c-0.11-0.869-0.286-1.956-0.39-2.412c-0.404-1.829-0.222-2.761,0.672-3.411c0.48-0.352,0.879-0.862,0.879-1.135
	c0-0.295,0.236-0.449,0.582-0.378c0.455,0.09,0.554,0.371,0.453,1.274c-0.072,0.635-0.146,2.253-0.158,3.601
	c-0.026,2.158,0.059,2.522,0.723,3.059c0.991,0.801,3.893,1.345,5.563,1.042l1.332-0.244l-0.918-0.796
	c-0.502-0.442-0.912-1.099-0.912-1.465c0-0.366-0.211-0.898-0.465-1.189c-0.256-0.288-0.57-1.033-0.703-1.653
	c-0.229-1.082-0.205-1.116,0.608-0.913c0.737,0.183,0.859,0.095,0.952-0.698l0.104-0.913l0.748,0.808
	c0.607,0.652,0.75,0.701,0.75,0.244c0-0.308-0.164-0.562-0.369-0.562c-0.217,0-0.309-0.347-0.213-0.833
	c0.086-0.457,0.041-0.833-0.101-0.833c-0.144,0-0.354-0.635-0.471-1.414c-0.429-2.817-0.558-3.176-1.196-3.345
	c-0.913-0.239-0.83-1.226,0.104-1.24c0.728-0.012,0.729-0.022,0.08-0.386c-0.363-0.208-0.776-0.542-0.908-0.74
	c-0.168-0.251-0.246-0.254-0.252-0.007c-0.004,0.195-0.965,0.547-2.133,0.779c-2.244,0.447-2.965,0.293-3.891-0.837
	c-0.438-0.527-0.383-0.557,0.664-0.352c0.789,0.159,1.382,0.066,1.945-0.303c0.484-0.317,1.129-0.452,1.611-0.33
	c0.477,0.12,0.801,0.054,0.801-0.156c0-0.237,0.5-0.286,1.451-0.144c1.153,0.171,1.49,0.11,1.654-0.31
	c0.251-0.659,1.242-0.671,3.301-0.046c1.535,0.469,1.582,0.461,1.582-0.217c0-0.383,0.262-0.891,0.584-1.138
	c0.529-0.403,0.502-0.444-0.313-0.454c-1.063-0.012-1.304-0.305-1.048-1.287c0.154-0.583,0.445-0.728,1.564-0.747
	c0.758-0.017,1.189-0.103,0.963-0.195c-0.232-0.093-0.418-0.374-0.418-0.63c0-1.201-3.418-2.153-4.578-1.277
	c-1.179,0.894-3.412,0.332-3.412-0.859c0-0.352-0.148-0.728-0.332-0.84c-0.599-0.369-0.353-1.165,0.365-1.165
	c0.418,0,0.768,0.266,0.872,0.664c0.095,0.364,0.332,0.667,0.524,0.667c0.193,0,0.623,0.249,0.951,0.547
	c0.563,0.505,0.621,0.505,0.813,0c0.114-0.298,0.417-0.547,0.675-0.547c0.551,0,0.611-0.532,0.103-0.85
	c-0.2-0.122-0.288-0.5-0.2-0.837c0.113-0.439-0.166-0.808-0.973-1.284c-1.137-0.671-1.486-1.34-0.715-1.37
	c0.679-0.027-2.474-1.545-3.742-1.809c-0.643-0.132-2.815-1.035-4.829-2.007c-2.017-0.972-4.003-1.865-4.414-1.987
	c-0.843-0.247-1.017-0.84-0.252-0.84c0.272,0,0.501-0.151,0.501-0.332c0-0.183,0.225-0.332,0.498-0.332
	c0.275,0,0.498,0.149,0.498,0.332c0,0.181,0.412,0.334,0.918,0.334c0.5,0.002,1.363,0.239,1.914,0.53
	c1.343,0.706,4.494,1.042,4.494,0.479c0-0.261,0.22-0.332,0.584-0.19c0.318,0.122,2.305,0.588,4.41,1.04
	c2.104,0.447,4.129,0.955,4.496,1.125c1.637,0.769,3.295,1.34,3.887,1.34c0.354,0,1.086,0.229,1.623,0.508
	c0.884,0.457,0.98,0.457,0.98,0c0-0.278,0.154-0.508,0.337-0.508c0.181,0,0.332,0.227,0.332,0.498c0,0.273,0.263,0.5,0.586,0.5
	c0.325,0,1.409,0.313,2.415,0.696c1.004,0.381,2.358,0.806,3.01,0.942c1.334,0.273,4.643,1.982,4.643,2.4
	c0,0.378-3.795-0.464-6.824-1.516c-0.365-0.129-0.104,0.112,0.579,0.535s1.247,0.959,1.247,1.189
	c0.003,0.227,0.158,0.415,0.345,0.415s0.978,0.579,1.748,1.292c0.772,0.713,2.979,2.231,4.904,3.372
	c1.924,1.143,3.965,2.522,4.541,3.064c0.659,0.623,1.128,0.852,1.268,0.625c0.324-0.525-0.088-1.03-0.659-0.811
	c-0.461,0.176-0.539,0.054-0.619-0.967c-0.019-0.229-0.263-0.591-0.533-0.803c-0.998-0.779-0.021-0.796,2.213-0.049
	c2.326,0.781,3.015,1.25,2.402,1.626c-0.203,0.129-0.115,0.3,0.215,0.43c0.308,0.117,0.699,0.125,0.873,0.017
	c0.177-0.11,0.524-0.027,0.781,0.183c0.256,0.215,0.926,0.398,1.489,0.413c0.744,0.024,1.001,0.176,0.938,0.564
	c-0.055,0.347,0.162,0.535,0.637,0.542c0.863,0.012,4.105,2.649,4.105,3.337c0,0.676-0.461,0.593-1.195-0.217
	c-0.348-0.383-0.93-0.84-1.299-1.016c-0.789-0.376,1.149,1.416,4.063,3.752c1.193,0.957,2.495,2.39,3.074,3.389
	c1.042,1.78,5.053,6.079,7.045,7.549l1.126,0.833l-1.25-1.709c-1.302-1.782-1.448-2.119-0.938-2.119c0.439,0,6.164,7.622,5.91,7.871
	c-0.117,0.115-0.438,0.02-0.718-0.212c-0.71-0.591-0.63-0.251,0.159,0.659c0.656,0.762,0.855,1.331,0.464,1.331
	c-0.112,0-0.976-0.823-1.919-1.829c-0.945-1.003-1.855-1.829-2.02-1.829c-0.166,0-0.599-0.261-0.959-0.581
	c-0.647-0.574-0.647-0.571-0.102,0.498c0.361,0.701,0.42,1.079,0.176,1.079c-0.207,0-0.287,0.237-0.181,0.518
	c0.13,0.337,0.065,0.437-0.179,0.281c-0.767-0.469,0.088,0.515,1.019,1.174l0.942,0.674l-0.114-0.991
	c-0.185-1.587,0.448-1.147,1.571,1.094c1.339,2.671,1.658,3.071,1.99,2.532c0.178-0.286,0.754,0.134,1.862,1.357
	c1.808,1.987,2.677,3.281,4.165,6.177c0.566,1.096,1.344,2.322,1.73,2.717c1.172,1.194,1.556,1.738,2.056,2.939
	c0.635,1.511,0.625,2.292-0.028,2.041c-0.392-0.151-0.439-0.063-0.197,0.381c0.438,0.828,1.705,7,1.705,8.315
	c0,0.613,0.326,1.816,0.724,2.676c0.809,1.753,1.243,5.054,0.663,5.054c-0.196,0-0.526-0.635-0.727-1.414
	c-0.599-2.314-0.714-2.637-0.875-2.471c-0.084,0.085,0.063,1.318,0.336,2.747c0.448,2.373,0.611,2.708,1.952,3.948
	c1.88,1.736,2.451,3.765,2.749,9.756c0.19,3.872,0.156,4.409-0.306,4.409c-0.285,0-0.522-0.225-0.522-0.498
	c0-0.276-0.225-0.5-0.494-0.5c-0.273,0-0.498-0.225-0.498-0.496c0-0.747-0.59-0.603-0.846,0.203c-0.273,0.862,0.122,4.29,0.493,4.29
	c0.151,0,0.368,0.64,0.485,1.417c0.154,1.004,0.425,1.521,0.923,1.748c1.478,0.68,2.241,6.808,1.473,11.801
	c-0.269,1.732-0.649,3.205-0.845,3.273c-0.195,0.062-0.355,0.332-0.355,0.586c0,0.262-0.152,0.474-0.336,0.474
	c-0.183,0-0.332-0.228-0.332-0.503c0-0.631-1.373-3.618-1.732-3.77c-0.438-0.184-0.301-0.787,0.271-1.203
	c0.473-0.348,0.436-0.457-0.336-0.961c-1.104-0.725-1.119-1.865-0.049-2.871c0.691-0.648,0.908-0.703,1.341-0.347
	c0.285,0.237,0.61,0.337,0.728,0.22c0.338-0.338-0.928-4.541-1.366-4.541c-0.229,0-0.647-1.104-0.978-2.578
	c-0.994-4.455-1.276-5.52-1.992-7.569l-0.703-1.997l-0.342,1.804c-0.33,1.716-1.022,2.59-1.301,1.636
	c-0.07-0.244-0.304-1.082-0.514-1.858c-0.212-0.779-0.51-1.414-0.661-1.414c-0.155,0-0.853-0.525-1.553-1.165
	c-0.698-0.645-1.354-1.165-1.455-1.16c-0.353,0.01-2.349,4.729-2.349,5.544c0,0.447-0.211,1.514-0.465,2.375
	c-0.552,1.863-1.263,5.906-1.229,6.997c0.013,0.429-0.337,1.526-0.775,2.446c-0.74,1.546-0.768,1.756-0.324,2.806
	c0.258,0.628,0.49,1.847,0.508,2.712c0.041,1.881,0.513,3.637,1.076,3.984c0.832,0.513,1.873,2.383,1.873,3.367
	c0,1.265-0.595,2.609-1.269,2.865c-0.679,0.262-1.006-0.324-1.271-2.258c-0.239-1.766-0.664-1.705-1.274,0.186
	c-0.269,0.824-0.54,1.084-1.155,1.084c-0.637,0-1.001-0.379-1.75-1.831c-0.521-1.003-1.094-1.88-1.279-1.938
	c-0.186-0.063-0.703-0.886-1.151-1.83c-0.449-0.945-1.183-2.104-1.621-2.576c-0.438-0.469-0.901-1.182-1.03-1.58
	c-0.127-0.396-0.383-0.725-0.574-0.725c-0.188,0-0.268-0.205-0.17-0.459c0.099-0.254-0.184-0.994-0.631-1.646
	c-0.443-0.651-0.803-1.336-0.803-1.518c0-0.187-0.545-0.265-1.26-0.18c-0.846,0.104-1.682-0.064-2.563-0.518
	c-0.724-0.369-1.51-0.672-1.744-0.672c-0.233,0-0.43-0.213-0.43-0.472c0-0.261-0.459-0.573-1.021-0.694
	c-0.562-0.125-1.101-0.439-1.2-0.701c-0.103-0.262-0.483-0.641-0.851-0.832c-0.523-0.278-0.858-0.223-1.543,0.274
	c-0.479,0.347-1.402,0.845-2.041,1.099c-0.642,0.263-1.457,0.738-1.815,1.072c-0.361,0.329-0.808,0.543-0.998,0.475
	c-0.193-0.066-1.022,0.074-1.845,0.322c-1.864,0.562-3.736,0.58-4.262,0.055c-0.587-0.582-0.529,0.519,0.088,1.707
	c0.562,1.09,1.25,1.434,2.313,1.168c0.461-0.117,1.229,0.095,2.002,0.552c1.169,0.687,1.24,0.817,1.042,1.935
	c-0.114,0.658-0.293,1.758-0.397,2.445c-0.115,0.758-0.371,1.247-0.654,1.247c-0.313,0-0.467,0.405-0.467,1.253
	c0,0.889-0.188,1.369-0.664,1.667c-0.365,0.228-0.668,0.728-0.668,1.106c0,0.42-0.27,0.767-0.682,0.873
	c-0.412,0.107-0.757,0.547-0.869,1.105c-0.115,0.579-0.457,0.996-0.896,1.111c-1.108,0.283-3.154,2.131-3.271,2.955
	c-0.065,0.463-0.738,1.156-1.771,1.832c-0.916,0.601-2.021,1.418-2.451,1.818c-0.996,0.92-4.082,2.916-4.513,2.916
	c-0.18,0-0.731,0.387-1.229,0.863c-0.549,0.529-1.324,0.885-1.988,0.915c-0.978,0.047-1.168-0.103-1.844-1.444
	c-0.943-1.875-1.185-2.576-1.3-3.797c-0.063-0.677-0.603-1.436-1.771-2.498c-0.922-0.842-1.762-1.836-1.869-2.219
	c-0.105-0.381-0.68-0.9-1.271-1.165c-0.838-0.368-1.182-0.808-1.536-1.97c-0.767-2.514-1.439-3.668-2.274-3.875
	c-0.433-0.112-1.011-0.631-1.284-1.159c-0.275-0.526-0.625-0.96-0.783-0.96c-0.156,0-0.379-0.337-0.49-0.747
	c-0.356-1.278-2.32-3.306-2.965-3.06c-0.313,0.119-0.568,0.444-0.568,0.724c0,0.64,1.727,3.672,2.656,4.668
	c0.389,0.412,0.623,0.886,0.521,1.052c-0.244,0.396,0.14,1.357,0.545,1.357c0.935,0,2.136,2.031,2.456,4.16
	c0.176,1.185,0.432,1.623,1.191,2.072c0.531,0.314,1.293,1.25,1.687,2.077c0.396,0.825,0.882,1.616,1.079,1.748
	c0.238,0.166,0.225,0.247-0.055,0.249c-0.222,0.003-0.316,0.232-0.211,0.506c0.254,0.656,0.785,0.641,0.785-0.023
	c0-0.35,0.244-0.488,0.747-0.416c0.493,0.068,0.749,0.334,0.749,0.773c0,0.41,0.537,1.023,1.409,1.609
	c2.108,1.406,3.28,2.611,3.535,3.623c0.362,1.475,1.317,1.75,3.146,0.923c0.862-0.392,1.791-0.853,2.063-1.021
	c0.272-0.172,0.726-0.403,0.995-0.514c2.166-0.861,4.212-1.938,4.432-2.326c0.146-0.257,0.561-0.467,0.916-0.467
	c0.484,0,0.648,0.229,0.648,0.93c0,0.514,0.187,1.123,0.416,1.354c0.334,0.337,0.305,0.482-0.154,0.742
	c-0.313,0.176-0.488,0.527-0.391,0.781c0.096,0.252-0.153,1.097-0.555,1.883c-0.398,0.781-1.089,2.38-1.525,3.555
	c-1.256,3.332-2.866,5.534-7.233,9.88c-6.035,6.015-9.212,9.829-8.185,9.829c0.521,0,0.353,1.273-0.184,1.393
	c-0.436,0.092-0.439,0.219-0.029,1.006c0.535,1.024,0.514,1.641-0.084,2.363c-0.563,0.674-0.164,2.123,0.637,2.328
	c0.57,0.151,0.633,0.473,0.586,3.11l-0.055,2.944l-1.371,1.328c-0.778,0.756-2.119,1.596-3.092,1.942
	c-0.947,0.332-1.906,0.83-2.134,1.103c-0.229,0.272-0.991,0.791-1.7,1.151c-1.416,0.728-1.85,1.408-1.303,2.065
	c0.423,0.513,0.135,2.744-0.41,3.176c-0.205,0.158-1.14,0.542-2.074,0.845c-1.432,0.47-1.795,0.763-2.275,1.821
	c-0.571,1.27-0.682,1.354-5.285,3.783c-2.82,1.492-4.676,1.852-10.379,2.016C101.484,199.254,98.674,199.257,98.171,199.174z
	 M124.287,176.477c-0.275-0.699-0.659,1.203-0.43,2.133c0.129,0.514,0.22,0.41,0.401-0.469
	C124.391,177.516,124.4,176.768,124.287,176.477z M117.232,171.827c0-0.161-0.31-0.376-0.686-0.474
	c-0.563-0.146-0.613-0.094-0.291,0.293C116.695,172.178,117.232,172.275,117.232,171.827z M122.033,164.137
	c0.682,0,1.626-1.255,1.396-1.855c-0.156-0.409-0.439-0.484-1.121-0.316c-0.5,0.122-0.965,0.364-1.021,0.532
	c-0.063,0.171-0.308,0.308-0.55,0.308c-0.236,0-0.495,0.447-0.573,0.989c-0.12,0.793-0.019,0.998,0.544,1.079
	c0.379,0.055,0.736-0.088,0.796-0.316C121.563,164.325,121.805,164.137,122.033,164.137z M202.785,119.757
	c-0.317-0.293-0.364-0.239-0.195,0.231c0.117,0.334,0.234,0.861,0.26,1.164c0.028,0.307,0.113,0.201,0.194-0.23
	C203.127,120.488,203.007,119.965,202.785,119.757z M202.471,118.712c0-0.637-0.207-0.637-0.451,0
	c-0.107,0.276-0.053,0.501,0.129,0.501C202.326,119.213,202.471,118.988,202.471,118.712z M150.534,116.262
	c0.005-0.47,0.052-0.477,0.317-0.05c0.418,0.659,0.734,0.306,1.996-2.241c0.566-1.146,1.178-2.08,1.354-2.08s0.32-0.186,0.313-0.414
	c-0.007-0.231-0.388,0.015-0.854,0.541c-1.063,1.205-3.18,1.541-4.719,0.746c-0.569-0.293-1.266-0.445-1.547-0.338
	c-0.498,0.188-2.86-1.938-2.86-2.576c0-0.158-0.158-0.287-0.354-0.287c-0.195,0-0.259-0.148-0.146-0.332
	c0.112-0.184,0.046-0.332-0.149-0.332c-0.191,0-0.355,0.334-0.357,0.746c-0.006,0.605-0.066,0.654-0.327,0.25
	c-0.278-0.431-0.325-0.426-0.33,0.057c-0.002,0.305-0.19,0.637-0.42,0.736c-0.285,0.123-0.181,0.354,0.335,0.732
	c0.41,0.303,0.747,0.754,0.747,1.001c0,0.251,0.21,0.366,0.476,0.265c0.281-0.11,0.713,0.194,1.077,0.758
	c0.332,0.519,0.827,1.142,1.104,1.386c0.276,0.241,0.342,0.36,0.146,0.261c-0.198-0.095-0.364,0.018-0.364,0.258
	c0,0.233,0.215,0.426,0.473,0.426c0.316,0,0.422-0.26,0.324-0.782c-0.129-0.673-0.05-0.753,0.555-0.569
	c0.9,0.273,0.842,0.205,1.188,1.401c0.203,0.713,0.172,1.073-0.095,1.188c-0.272,0.112-0.252,0.254,0.083,0.485
	C149.102,117.909,150.523,117.045,150.534,116.262z M99.587,111.225c0.146-1.304,0.313-1.57,1.331-2.078
	c1.511-0.752,2.839-0.738,3.616,0.039c0.342,0.342,1.2,0.73,1.917,0.862c0.71,0.134,1.441,0.361,1.626,0.505
	c0.183,0.146,0.856,0.348,1.499,0.452c0.64,0.103,1.916,0.327,2.828,0.5c1.425,0.265,1.801,0.22,2.558-0.319
	c0.929-0.662,2.593-0.819,4.619-0.451c1.532,0.281,1.737,0.01,2.616-3.522c0.867-3.481,0.654-5.398-0.619-5.579
	c-0.454-0.063-0.903,0.1-1.069,0.391c-0.43,0.764-2.21,1.047-2.884,0.459c-0.884-0.776-2.057-1.038-2.057-0.461
	c0,0.957-1.748,1.187-2.598,0.339c-0.513-0.513-0.566-0.498-0.734,0.225c-0.184,0.789-0.995,1.345-0.995,0.686
	c0-0.2-0.312-0.674-0.691-1.052c-0.378-0.378-0.603-0.913-0.5-1.189c0.142-0.369,0.024-0.442-0.474-0.281
	c-0.475,0.151-0.662,0.056-0.662-0.332c0-0.295,0.148-0.449,0.332-0.337c0.181,0.112,0.332,0.049,0.332-0.146
	c0-0.195-0.229-0.354-0.516-0.354c-0.399,0-0.496-0.334-0.438-1.492c0.044-0.82-0.023-1.594-0.15-1.719
	c-0.129-0.129-0.231-0.054-0.231,0.159c0,0.213-0.226,0.386-0.496,0.386c-0.272,0-0.498-0.222-0.498-0.498
	c0-0.271,0.149-0.498,0.332-0.498c0.185,0,0.332-0.249,0.332-0.552c0-0.439-0.127-0.398-0.654,0.208
	c-0.366,0.415-1.125,0.852-1.696,0.969l-1.039,0.212l0.864,0.93c0.488,0.527,1.03,0.828,1.249,0.696
	c0.209-0.132,0.295-0.095,0.188,0.076s0.41,0.967,1.146,1.768c1.15,1.243,1.266,1.494,0.801,1.753
	c-0.297,0.164-0.453,0.442-0.349,0.613c0.106,0.171,0.054,0.313-0.122,0.313s-0.404-0.222-0.508-0.493
	c-0.107-0.281-0.41-0.408-0.701-0.295c-0.363,0.139-0.513-0.012-0.513-0.515c0-0.854-0.947-1.311-1.36-0.657
	c-0.159,0.256-0.295,0.876-0.3,1.379c0,0.503-0.154,0.913-0.337,0.913c-0.181,0-0.332-0.117-0.332-0.261
	c0-0.142-0.449-0.43-0.996-0.635c-0.674-0.254-1.001-0.605-1.001-1.072c0-0.383-0.215-0.696-0.479-0.696
	c-0.693,0-1.013-0.691-0.479-1.03c0.334-0.208,0.347-0.291,0.044-0.293c-0.229-0.002-0.415-0.298-0.415-0.652
	c0-0.356-0.154-0.74-0.339-0.854c-0.63-0.391-1.306-2.512-1.111-3.489c0.156-0.767,0.007-1.138-0.71-1.802
	c-0.493-0.459-1.411-1.003-2.034-1.211c-0.623-0.203-1.133-0.532-1.133-0.725c0-0.19-0.337-0.676-0.747-1.082
	c-1.238-1.201-1.919-2.153-1.919-2.678c0-0.757-0.652-0.586-0.977,0.256c-0.222,0.579-0.107,0.94,0.513,1.599
	c0.437,0.469,0.796,1.086,0.796,1.37c0,0.803,1.304,2.273,2.024,2.273c0.352,0,0.64,0.198,0.64,0.435
	c0,0.242,0.679,0.911,1.501,1.494c1.519,1.072,1.733,1.509,1.174,2.395c-0.264,0.42-0.42,0.378-1.013-0.259
	c-0.386-0.413-0.854-0.657-1.042-0.54c-0.232,0.142-0.225,0.327,0.02,0.571c0.198,0.2,0.364,0.618,0.364,0.928
	c0,0.786-1.685,2.632-2.405,2.632c-0.437,0-0.591,0.261-0.591,0.999c0,1.106-0.627,1.321-1.45,0.498
	c-0.276-0.276-0.601-0.498-0.723-0.498c-0.508,0-2.156-1.411-2.156-1.848c0-0.591,1.597-1.016,2.061-0.552
	c0.417,0.415,2.661,0.12,3.02-0.398c0.403-0.579-0.044-1.855-0.92-2.639c-1.804-1.609-2.561-2.219-2.771-2.227
	c-0.125-0.005-0.664-0.603-1.201-1.331c-0.537-0.73-1.174-1.323-1.414-1.323c-0.24,0-0.437-0.151-0.437-0.334
	c0-0.183,0.159-0.332,0.359-0.332c0.483,0,0.017-1.396-0.625-1.865c-0.383-0.278-0.762-0.244-1.533,0.139
	c-1.963,0.974-2.188,1.062-2.637,1.062c-0.249,0-0.93-0.239-1.516-0.53c-1.301-0.649-2.034-0.417-2.034,0.647
	c0,0.959-0.4,1.313-2.163,1.921c-1.755,0.603-3.564,2.224-3.323,2.974c0.198,0.625-1.689,2.771-2.173,2.473
	c-0.154-0.095-0.503,0.054-0.781,0.332c-0.574,0.574-1.477,0.64-2.659,0.188c-1.099-0.417-2.222-0.081-2.222,0.667
	c0,0.74,0.322,0.959,1.553,1.052c0.52,0.039,1.13,0.251,1.357,0.469c0.273,0.269,0.713,0.305,1.331,0.115
	c3.64-1.125,4.451-1.162,10.742-0.449c1.003,0.115,2.625,0.193,3.594,0.173c1.233-0.024,1.816,0.107,1.941,0.435
	c0.1,0.261,0.393,0.391,0.654,0.291c0.315-0.122,0.471,0.051,0.471,0.53c0,0.391-0.22,0.793-0.486,0.894
	c-0.381,0.151-0.405,0.339-0.115,0.906c0.981,1.907,0.994,1.97,0.547,2.256c-0.247,0.156-0.691,0.283-0.991,0.288
	c-0.3,0-0.637,0.239-0.75,0.522c-0.112,0.298-0.056,0.43,0.137,0.309c0.181-0.113,0.835,0.332,1.45,0.983
	c0.62,0.655,1.443,1.187,1.846,1.187c1.328,0,3.691,1.291,3.691,2.015c0,0.42,0.339,0.794,0.913,1.016
	c0.505,0.193,1.592,0.698,2.415,1.121C99.011,113.119,99.387,113.007,99.587,111.225z M106.143,104.994
	c-0.527-0.078-0.876-0.313-0.804-0.532c0.149-0.449,0.198-0.452,2.322-0.09C110.598,104.879,109.191,105.456,106.143,104.994z
	 M117.896,104.882c0-0.481,0.873-1.326,1.117-1.082c0.106,0.107,0.572-0.054,1.039-0.359c0.866-0.569,1.152-0.313,0.441,0.396
	c-0.221,0.22-0.266,0.398-0.104,0.398s0.008,0.222-0.349,0.491C119.287,105.297,117.896,105.397,117.896,104.882z M110.119,104.069
	c0.249-0.637,0.457-0.637,0.457,0c0,0.276-0.146,0.5-0.322,0.5C110.075,104.569,110.016,104.347,110.119,104.069z M92.26,102.904
	c0-0.425,0.237-0.425,0.5,0c0.112,0.186,0.046,0.332-0.149,0.332C92.419,103.236,92.26,103.092,92.26,102.904z M85.229,96.691
	c-0.022-0.154-0.01-0.422,0.029-0.605c0.039-0.183,0.066-0.95,0.066-1.709c0-1.067,0.122-1.362,0.549-1.328
	c0.43,0.034,0.525-0.217,0.447-1.184c-0.076-0.957,0.051-1.301,0.593-1.592c0.601-0.325,0.684-0.276,0.664,0.391
	c-0.012,0.42-0.142,1.062-0.286,1.423c-0.149,0.366-0.142,0.999,0.01,1.406c0.21,0.562-0.112,2.49-0.496,2.964
	C86.608,96.698,85.258,96.896,85.229,96.691z M77.788,94.606c-0.293-0.474,0.081-1.016,0.698-1.016c0.288,0,0.459,0.232,0.393,0.554
	C78.752,94.813,78.088,95.092,77.788,94.606z M79.609,93.942c0-0.193,0.151-0.352,0.334-0.352c0.425,0,0.425,0.234,0,0.498
	C79.758,94.201,79.609,94.135,79.609,93.942z M107.282,100.482c-0.273-0.271-0.368-0.234-0.368,0.139
	c0,0.664,0.445,1.111,0.609,0.613C107.596,101.024,107.484,100.685,107.282,100.482z M144.309,95.834
	c0.488-0.359,0.514-0.564,0.156-1.499c-0.227-0.593-0.527-1.079-0.671-1.079c-0.146,0-0.262-0.19-0.262-0.422
	c0-0.234-0.3-0.981-0.666-1.663s-0.667-1.448-0.667-1.704c0-0.251-0.227-0.645-0.498-0.874c-0.275-0.227-0.5-0.769-0.5-1.204
	c0-0.574-0.186-0.789-0.682-0.789c-0.371,0-1.056-0.376-1.51-0.833c-0.461-0.459-0.969-0.833-1.128-0.833
	c-0.161,0-0.567-0.347-0.899-0.769c-0.815-1.03-1.631-1.299-2.129-0.696c-0.304,0.361-0.315,0.681-0.055,1.228
	c0.195,0.403,0.444,1.108,0.549,1.567c0.104,0.457,0.301,0.986,0.442,1.172c0.522,0.706,3.853,3.154,4.289,3.154
	c0.252,0,0.457,0.225,0.457,0.498s-0.231,0.5-0.519,0.5c-0.418,0-0.492,0.364-0.414,1.912c0.09,1.758,0.168,1.926,0.933,2.026
	c0.459,0.061,0.978,0.251,1.147,0.415C142.145,96.386,143.646,96.322,144.309,95.834z M112.238,94.921
	c0-0.183-0.236-0.334-0.518-0.334c-0.285,0-0.431,0.151-0.314,0.334C111.672,95.351,112.238,95.351,112.238,94.921z M116.491,92.794
	c1.327-0.85,4.403-1.438,4.403-0.842c0,0.19,0.156,0.251,0.348,0.132s0.568-0.034,0.833,0.188c0.272,0.225,1.45,0.4,2.668,0.4
	c1.807,0,2.317-0.127,2.981-0.752c0.998-0.935,0.703-1.638-1.078-2.573c-0.692-0.364-2.082-1.096-3.09-1.636
	c-1.964-1.045-2.656-1.057-4.049-0.071c-1.078,0.767-1.943,0.808-1.943,0.098c0-0.293-0.31-0.613-0.692-0.713
	c-0.474-0.125-0.642-0.374-0.529-0.801c0.114-0.437-0.018-0.62-0.444-0.62c-0.334,0-0.684-0.188-0.778-0.415
	c-0.222-0.542-1.53,1.021-1.54,1.833c-0.008,0.322-0.311,0.842-0.68,1.155c-0.365,0.317-0.664,0.981-0.664,1.494
	c0,0.508-0.137,0.925-0.295,0.925c-0.563,0-0.682,1.482-0.187,2.241C112.458,93.9,114.792,93.881,116.491,92.794z M122.331,85.146
	c0.099-0.254,0.021-0.615-0.171-0.806c-0.444-0.447-1.932,0.183-1.932,0.818C120.229,85.756,122.102,85.744,122.331,85.146z
	 M98.068,71.117c0.786-0.598,1.907-0.632,2.461-0.076c0.286,0.286,0.486,0.303,0.649,0.059c0.132-0.195,0.481-0.444,0.784-0.557
	c0.349-0.129,0.608-0.72,0.718-1.638c0.095-0.791,0.439-2.219,0.767-3.176c0.498-1.453,0.762-1.775,1.614-1.992
	c0.894-0.227,0.779-0.278-0.981-0.427c-1.165-0.098-2.053-0.034-2.134,0.159c-0.234,0.562-0.864,1.074-1.611,1.309
	c-0.75,0.237-1.272,1.282-0.923,1.848c0.229,0.364-0.388,1.704-0.959,2.083c-0.2,0.137-0.701,0.247-1.113,0.251
	c-0.774,0.005-1.003,0.474-0.415,0.837c0.5,0.31,0.396,0.83-0.168,0.83c-0.273,0-0.498-0.149-0.498-0.332s-0.374-0.332-0.833-0.332
	s-0.833,0.149-0.833,0.332s0.225,0.332,0.498,0.332c0.276,0,0.503,0.229,0.503,0.5C95.59,71.776,97.202,71.771,98.068,71.117z
	 M100.253,67.089c0-0.386,0.227-0.894,0.505-1.125c0.786-0.659,0.862-0.237,0.146,0.852
	C100.329,67.689,100.256,67.721,100.253,67.089z M94.238,67.987c0.391-0.247,0.403-0.447,0.071-1.077
	c-0.242-0.464-0.332-0.52-0.225-0.151c0.112,0.376-0.051,0.801-0.403,1.074C93.024,68.327,93.488,68.461,94.238,67.987z
	 M106.125,66.798c0.288-0.75-0.518-1.602-1.074-1.138c-0.352,0.286-0.359,0.498-0.046,1.001
	C105.485,67.431,105.866,67.477,106.125,66.798z M119.23,64.325c0-0.452-0.588-0.747-0.799-0.405
	c-0.199,0.322,0.088,0.72,0.521,0.72C119.105,64.64,119.23,64.499,119.23,64.325z M109.361,62.807c0.244-0.637,0.074-0.637-0.453,0
	c-0.241,0.288-0.271,0.498-0.075,0.498C109.02,63.307,109.255,63.083,109.361,62.807z M103.002,61.183
	c0.276-0.405,0.193-3.865-0.093-3.865c-0.1,0-0.637,0.42-1.196,0.93c-1.318,1.204-1.714,2.634-0.891,3.252
	C101.45,61.972,102.575,61.811,103.002,61.183z M113.236,61.488c0-0.425-0.939-1.179-1.478-1.179c-0.339,0-0.196,0.859,0.214,1.265
	C112.523,62.128,113.236,62.077,113.236,61.488z M105.102,56.115c1.261-0.964,1.498-1.792,0.5-1.792
	c-0.651,0-1.688,0.815-1.688,1.328c0,0.154-0.09,0.52-0.2,0.806C103.425,57.206,103.789,57.116,105.102,56.115z M115.402,55.319
	c-0.112-0.181-0.459-0.322-0.77-0.31c-0.462,0.022-0.441,0.076,0.104,0.31C115.627,55.705,115.637,55.705,115.402,55.319z
	 M117.064,53.524c0-0.618-0.192-0.696-1.685-0.696c-1.509,0-1.673,0.068-1.558,0.664c0.104,0.547,0.406,0.674,1.685,0.701
	C116.88,54.22,117.064,54.142,117.064,53.524z M182.305,47.372c0.1-0.159-0.029-0.469-0.285-0.681
	c-0.385-0.317-0.439-0.264-0.291,0.293C181.923,47.738,182.033,47.809,182.305,47.372z M128.928,37.594
	c-0.326-0.327-0.367-0.286-0.186,0.186c0.125,0.33,0.311,0.513,0.412,0.41C129.26,38.09,129.154,37.819,128.928,37.594z
	 M167.844,28.239c0-0.066-0.261-0.33-0.58-0.581c-0.527-0.413-0.539-0.4-0.125,0.127C167.57,28.336,167.844,28.515,167.844,28.239z
	 M143.869,14.569c0-0.251-4.118-1.492-4.303-1.294c-0.201,0.22-0.092,0.271,2.306,1.118
	C143.203,14.865,143.869,14.923,143.869,14.569z M137.105,188.834c-0.072-0.132-0.152-0.85-0.176-1.598
	c-0.035-1.107,0.146-1.532,0.971-2.323c0.881-0.841,0.982-1.123,0.803-2.188c-0.239-1.397,0.542-3.283,1.354-3.283
	c0.926,0,3.5-1.414,4.411-2.416c3.669-4.067,3.696-4.092,4.183-3.569c0.648,0.687,0.928,3.2,0.402,3.638
	c-0.228,0.188-0.513,0.244-0.633,0.127c-0.122-0.121-0.22,0.182-0.22,0.67c0,0.489-0.151,0.889-0.334,0.889
	c-0.185,0-0.332,0.146-0.332,0.326c0,0.387-2.228,3.984-4.163,6.73c-1.014,1.439-1.688,2.029-2.809,2.456
	C138.872,188.941,137.303,189.186,137.105,188.834z M154.857,180.46c0-0.194,0.148-0.354,0.332-0.354c0.428,0,0.428,0.236,0,0.498
	C155.007,180.717,154.857,180.654,154.857,180.46z M75.944,159.83c0-0.195,0.154-0.354,0.334-0.354c0.43,0,0.43,0.235,0,0.498
	C76.096,160.089,75.944,160.025,75.944,159.83z M20.107,156.896c-3.701-5.778-8.298-16.209-10.532-23.893
	C6.02,120.758,4.687,106.77,5.989,95.316c0.542-4.749,1.133-5.044,1.042-0.515c-0.164,8.376-0.103,11.418,0.244,11.836
	c0.203,0.241,0.542,1.486,0.754,2.764c0.21,1.279,0.52,2.58,0.686,2.897c0.164,0.317,0.305,1.294,0.308,2.163
	c0.005,0.874,0.212,2.482,0.464,3.584c0.254,1.1,0.554,2.744,0.671,3.662c0.371,2.936,3.105,9.57,4.873,11.841
	c0.51,0.664,1.621,2.647,2.461,4.414c0.845,1.765,1.663,3.21,1.824,3.21c0.349,0,0.608,0.625,1.221,2.93
	c0.679,2.543,0.591,3.281-0.542,4.69l-1.013,1.261l0.869,2.631c0.964,2.93,1.804,6.129,1.609,6.129
	C21.389,158.811,20.781,157.95,20.107,156.896z M154.523,135.852c0.656-0.426,1.426-0.426,1.166,0
	c-0.111,0.18-0.533,0.332-0.935,0.326C154.162,136.176,154.118,136.113,154.523,135.852z M135.212,133.658
	c0-0.586,0.718-0.483,0.923,0.135c0.073,0.217-0.104,0.396-0.396,0.396C135.451,134.188,135.212,133.945,135.212,133.658z
	 M34.145,121.52c-0.12-0.194-0.139-0.435-0.042-0.531c0.237-0.239,0.886,0.181,0.886,0.57
	C34.992,121.986,34.416,121.959,34.145,121.52z M35.324,120.209c0-0.428,0.237-0.428,0.5,0c0.112,0.182,0.049,0.334-0.149,0.334
	C35.483,120.543,35.324,120.393,35.324,120.209z M33.576,118.059c-0.669-0.916-0.723-1.178-0.251-1.178
	c0.181,0,0.332,0.174,0.332,0.389s0.251,0.666,0.554,1.002c0.303,0.334,0.415,0.601,0.249,0.598
	C34.294,118.861,33.896,118.5,33.576,118.059z M197.053,108.025c-0.132-0.131-0.232-0.627-0.223-1.096l0.021-0.861l0.319,0.801
	C197.521,107.738,197.447,108.422,197.053,108.025z M49.169,106.277c-0.144-0.231-0.168-0.51-0.059-0.619
	c0.298-0.298,0.623,0.142,0.461,0.621C49.458,106.617,49.379,106.617,49.169,106.277z M51.477,105.7
	c0.479-0.474,0.945-0.786,1.04-0.696c0.261,0.261-0.964,1.564-1.467,1.564C50.795,106.566,50.974,106.205,51.477,105.7z
	 M47.976,104.901c0-0.181,0.234-0.332,0.52-0.332s0.427,0.151,0.313,0.332C48.542,105.336,47.976,105.336,47.976,104.901z
	 M50.307,97.25c0-0.425,0.237-0.425,0.5,0c0.112,0.183,0.046,0.332-0.146,0.332C50.466,97.582,50.307,97.433,50.307,97.25z
	 M45.312,84.604c0-0.427,0.237-0.427,0.5,0c0.112,0.181,0.049,0.334-0.146,0.334C45.468,84.938,45.312,84.787,45.312,84.604z
	 M43.469,81.925c-0.303-0.493-0.061-0.671,0.471-0.337c0.288,0.173,0.322,0.347,0.098,0.483
	C43.85,82.189,43.593,82.123,43.469,81.925z M10.405,78.944c0-0.457,0.076-0.645,0.168-0.415c0.09,0.229,0.09,0.603,0,0.833
	C10.48,79.591,10.405,79.406,10.405,78.944z M10.612,75.915c-0.247-0.645,0.417-3.623,0.811-3.623c0.271,0,0.1,1.465-0.396,3.315
	C10.866,76.217,10.759,76.295,10.612,75.915z M14.348,63.971c0-0.181,0.149-0.332,0.332-0.332c0.183,0,0.332,0.151,0.332,0.332
	c0,0.183-0.149,0.334-0.332,0.334C14.497,64.305,14.348,64.154,14.348,63.971z M15.344,62.128c0-0.415,1.062-2.197,1.213-2.043
	c0.181,0.178-0.789,2.227-1.055,2.227C15.417,62.309,15.344,62.228,15.344,62.128z M84.279,59.918
	c-0.005-0.313,0.151-0.664,0.349-0.784c0.583-0.364,0.669,0.02,0.151,0.703C84.35,60.402,84.289,60.409,84.279,59.918z
	 M16.679,59.354c0-0.183,0.151-0.425,0.334-0.537c0.181-0.115,0.332-0.059,0.332,0.125s-0.151,0.427-0.332,0.54
	C16.831,59.594,16.679,59.538,16.679,59.354z M81.416,55.988c0-0.366,0.198-0.669,0.439-0.669c0.337,0,0.359,0.159,0.083,0.669
	C81.491,56.82,81.416,56.82,81.416,55.988z M38.442,53.908c0.039-0.229,0.181-0.603,0.325-0.833
	c0.166-0.266,0.071-0.417-0.259-0.417c-0.286,0-0.52-0.217-0.52-0.488c0-0.315,0.193-0.413,0.549-0.273
	c0.554,0.212,0.537-0.21-0.095-2.339c-0.127-0.42,0.032-0.659,0.515-0.784c0.383-0.1,0.696-0.283,0.696-0.408
	c0-0.122,0.269-0.244,0.605-0.266c1.013-0.078,3.398-1.233,3.281-1.592c-0.061-0.183-0.454-0.356-0.872-0.376
	c-0.886-0.046-1.409-0.725-1.165-1.509c0.095-0.305,0.017-0.654-0.173-0.771c-0.193-0.12-0.347,0.061-0.347,0.408
	c0,0.342-0.22,0.911-0.488,1.267c-0.764,1.011-0.64-0.134,0.156-1.443c0.916-1.497,0.84-1.951-0.374-2.195
	c-1.636-0.327-1.721-0.259-0.742,0.581c0.896,0.771,0.901,0.808,0.344,1.665c-0.315,0.481-0.796,0.874-1.064,0.874
	c-0.271,0-0.493,0.134-0.493,0.295c0,0.161-0.305,0.374-0.679,0.471c-0.369,0.098-0.649,0.303-0.618,0.457
	c0.144,0.737-0.505,2.441-0.928,2.441c-0.264,0-0.398,0.132-0.3,0.288c0.098,0.159,0.591,0.222,1.099,0.146
	c0.845-0.134,0.876-0.103,0.344,0.33c-0.32,0.259-0.583,0.662-0.583,0.889c0,0.52-1.594,0.171-2.358-0.515
	c-0.286-0.259-0.781-0.471-1.094-0.471c-0.476,0-0.505-0.115-0.19-0.706c0.208-0.388,0.664-0.779,1.011-0.872
	c0.347-0.09,0.632-0.305,0.632-0.479c0-0.168-0.127-0.234-0.283-0.137c-0.156,0.095-0.454-0.195-0.659-0.647
	c-0.205-0.454-0.505-0.82-0.671-0.82c-0.503,0-2.039,1.35-1.958,1.721c0.042,0.195-0.137,0.432-0.393,0.525
	c-0.325,0.12-0.403,0.002-0.261-0.371c0.117-0.3,0.063-0.544-0.112-0.544c-0.175,0-0.322-0.249-0.322-0.554
	c0-0.51-0.044-0.51-0.61,0c-0.334,0.305-0.769,0.554-0.962,0.554c-0.195,0-1.089,0.659-1.985,1.462
	c-1.338,1.201-1.799,1.431-2.568,1.287c-0.745-0.142-1.104,0.017-1.755,0.784l-0.82,0.962l0.586-1.074
	c0.322-0.586,1.87-2.788,3.435-4.888C40.1,25.722,61.657,12.079,85.8,7.267c9.414-1.88,20.724-2.659,26.326-1.821
	c1.616,0.242,2.597,0.493,2.173,0.564c-0.425,0.068-0.854,0.337-0.953,0.598c-0.107,0.278-0.641,0.471-1.293,0.471
	c-1.218,0-1.836,0.525-0.902,0.769c0.488,0.129,0.472,0.159-0.096,0.19c-0.373,0.024-0.859,0.217-1.076,0.435
	c-0.271,0.269-2.502,0.422-7.142,0.483c-8.037,0.11-8.594,0.171-10.93,1.204c-0.996,0.439-2.585,0.891-3.533,1.003
	c-0.95,0.112-2,0.352-2.334,0.535c-0.332,0.181-1.05,0.425-1.589,0.542c-0.728,0.154-0.859,0.283-0.513,0.496
	c0.254,0.156,0.583,0.217,0.728,0.127c0.142-0.088,0.786-0.017,1.428,0.159c0.701,0.195,1.24,0.2,1.355,0.02
	c0.105-0.168,0-0.305-0.229-0.305c-0.264,0-0.303-0.115-0.107-0.305c0.569-0.549,2.642-0.52,3.445,0.042
	c0.725,0.508,0.735,0.559,0.154,0.857c-0.62,0.32-2.915,0.869-5.156,1.226c-0.908,0.149-1.267,0.391-1.409,0.964
	c-0.181,0.718-0.361,0.771-2.615,0.771c-2.595,0-5.659,0.708-5.476,1.267c0.151,0.457,1.831,0.63,2.329,0.239
	c1.357-1.074,4.749-1.287,4.36-0.271c-0.2,0.522,0.745,0.999,1.04,0.525c0.107-0.176,0.483-0.32,0.842-0.32
	c0.369,0,0.647-0.229,0.647-0.535c0-0.354,0.181-0.469,0.525-0.334c0.291,0.11,0.75,0.203,1.023,0.203
	c0.432,0,0.432,0.063-0.015,0.508c-0.811,0.811-0.344,1.37,1.016,1.211c0.833-0.098,1.13-0.024,0.972,0.234
	c-0.158,0.258,0.249,0.376,1.299,0.376c1.05,0,1.587,0.156,1.721,0.496c0.105,0.273,0.4,0.5,0.654,0.5
	c0.415,0,0.605,0.408,0.381,0.818c-0.046,0.083,0.212,0.366,0.571,0.627c0.562,0.41,0.598,0.598,0.261,1.338
	c-0.217,0.469-0.762,0.95-1.208,1.062L91.66,24.44l0.718,0.72c0.398,0.396,1.047,0.747,1.445,0.784
	c0.398,0.034,1.189,0.3,1.758,0.593c0.813,0.42,1.008,0.715,0.92,1.379c-0.061,0.464-0.327,0.981-0.591,1.145
	c-0.361,0.232-0.374,0.305-0.044,0.308c0.239,0.002,0.342,0.159,0.229,0.342c-0.112,0.181,0.029,0.332,0.313,0.332
	c0.288,0,0.52,0.225,0.52,0.498c0,0.271-0.205,0.498-0.459,0.498c-0.696,0-3.538,1.323-3.538,1.648c0,0.159-0.337,0.222-0.75,0.149
	c-0.413-0.076-0.562-0.054-0.334,0.056c0.305,0.146,0.32,0.366,0.056,0.864c-0.198,0.366-0.447,0.581-0.552,0.476
	c-0.105-0.103-0.359,0.042-0.564,0.325c-0.208,0.281-0.645,0.552-0.977,0.601c-0.706,0.103-1.216,0.811-0.994,1.384
	c0.134,0.352-0.554,0.684-1.719,0.833c-0.181,0.024-0.542,0.217-0.791,0.427c-0.256,0.208-0.669,0.383-0.916,0.386
	c-0.515,0.005-3.118,2.424-3.118,2.9c0,0.168-0.32,0.21-0.71,0.088c-0.452-0.146-0.63-0.1-0.488,0.122
	c0.173,0.283-2.434,0.967-3.127,0.818c-2.881-0.608-4.036-0.649-6.912-0.256c-1.177,0.164-1.899,0.115-2.217-0.149
	c-0.366-0.303-0.742-0.278-1.667,0.107c-0.657,0.273-1.196,0.635-1.196,0.798c0,0.161-0.466,0.313-1.038,0.33
	c-0.569,0.017-2.051,0.564-3.293,1.213c-2.668,1.404-3.167,1.479-2.832,0.439c0.132-0.413,0.271-1.226,0.315-1.809
	c0.095-1.355,1.206-2.798,4.275-5.54c2.871-2.571,6.902-4.67,6.902-3.596c0,0.156,0.378,0.215,0.842,0.127
	c0.784-0.151,0.798-0.193,0.249-0.62c-0.564-0.437-0.559-0.483,0.076-0.981c0.366-0.288,1.074-0.466,1.575-0.393
	c0.669,0.095,0.967-0.039,1.108-0.486c0.115-0.366,1.343-1.15,2.998-1.926c3.22-1.499,4.514-2.595,4.25-3.604
	c-0.144-0.537,0.107-0.823,1.179-1.372c0.747-0.381,1.472-0.669,1.614-0.637c0.144,0.032,0.518-0.056,0.833-0.195
	c0.371-0.161,1.003,0.015,1.782,0.493c0.974,0.601,1.265,0.659,1.487,0.298c0.613-0.991-2.026-1.667-7.588-1.938
	c-0.989-0.051-0.947-0.752,0.115-2.012c0.642-0.764,0.732-1.021,0.352-1.021c-0.278,0-0.603,0.156-0.725,0.349
	c-0.144,0.232-0.508,0.159-1.074-0.208c-0.754-0.493-1.125-0.515-3.071-0.166c-1.216,0.217-2.656,0.686-3.191,1.04
	c-0.54,0.356-1.248,0.645-1.58,0.649c-0.332,0-0.51,0.151-0.398,0.334c0.344,0.554,1.504,0.371,2.598-0.405
	c1.135-0.808,5.01-1.277,5.608-0.679c0.605,0.605-1.292,2.849-3.247,3.843c-1.003,0.51-1.912,1.147-2.014,1.414
	s-0.396,0.486-0.652,0.486c-0.254,0-0.469,0.186-0.474,0.415c-0.01,0.454-2.664,1.914-3.479,1.914c-0.276,0-0.916,0.479-1.418,1.064
	c-2.122,2.463-2.322,2.595-3.784,2.539l-1.399-0.054l1.05-0.935c0.576-0.518,1.05-1.021,1.05-1.123c0-0.349-1.44,0.591-2.485,1.626
	c-0.579,0.571-1.616,1.211-2.305,1.416c-0.867,0.259-1.143,0.264-0.896,0.02c0.62-0.618,0.388-1.021-0.251-0.444
	c-1.018,0.92-1.138,0.62-0.327-0.825c0.422-0.757,1.394-1.887,2.156-2.515c0.764-0.627,1.543-1.582,1.731-2.122
	c0.2-0.564,0.713-1.121,1.216-1.311c1.123-0.427,1.16-0.422,1.16,0.178c0,0.696,0.994,1.028,1.36,0.454
	c0.21-0.33,0.295-0.344,0.3-0.046c0.002,0.227,0.168,0.415,0.374,0.415c0.21,0,0.293-0.295,0.193-0.684
	c-0.129-0.493,0.024-0.762,0.559-0.964c0.403-0.154,0.935-0.52,1.182-0.813c0.244-0.291,0.798-0.535,1.233-0.535
	c0.437,0,0.789-0.134,0.789-0.298c0-0.171-0.515-0.173-1.248-0.005c-0.684,0.164-1.875,0.208-2.637,0.098
	c-1.196-0.166-1.606-0.046-2.937,0.872c-0.852,0.583-1.648,0.962-1.772,0.837c-0.127-0.125,0.044-0.422,0.374-0.667
	c0.408-0.298,0.481-0.515,0.229-0.671c-0.593-0.366,0.654-1.548,1.387-1.313c0.898,0.286,1.377-0.132,0.806-0.701
	c-0.264-0.264-0.62-0.479-0.793-0.479c-0.176,0-0.503-0.225-0.73-0.498c-0.522-0.63-2.239-0.637-3.33-0.015
	c-0.459,0.261-1.343,0.708-1.965,0.996c-0.625,0.286-1.765,1.084-2.539,1.768c-0.776,0.681-2.036,1.746-2.805,2.363
	s-1.558,1.47-1.75,1.892s-0.811,0.959-1.372,1.194c-0.562,0.232-1.477,0.82-2.036,1.304c-0.562,0.486-1.448,1.106-1.975,1.382
	c-0.767,0.393-0.852,0.535-0.417,0.698c0.298,0.117,0.544,0.063,0.544-0.115c0-0.173,0.156-0.322,0.352-0.322
	c0.196,0,0.903-0.374,1.58-0.835c0.679-0.459,1.282-0.681,1.343-0.498c0.298,0.891,3.53-0.161,4.802-1.57
	c0.32-0.354,0.92-0.615,1.331-0.579c0.413,0.037,1.05-0.095,1.414-0.293c0.776-0.42,2.878-1.201,3.254-1.208
	c0.142-0.002,0.029,0.347-0.251,0.774c-0.278,0.425-0.43,0.854-0.33,0.955c0.098,0.098-0.352,0.642-0.996,1.211
	c-0.649,0.566-1.179,1.184-1.179,1.37c0,0.183-0.559,0.571-1.243,0.859c-1.318,0.549-2.751,1.721-2.751,2.253
	c0,0.178,0.669,0.242,1.572,0.139c1.34-0.151,1.487-0.115,0.989,0.251c-0.574,0.42-3.215,2.793-5.581,5.02
	c-0.657,0.615-1.389,1.719-1.633,2.449c-0.242,0.735-0.549,1.265-0.681,1.184c-0.137-0.083-0.427,0.283-0.647,0.815
	c-0.591,1.431-2.488,3.069-2.986,2.573c-0.3-0.295-0.342-0.259-0.186,0.156c0.154,0.393-0.071,0.64-0.811,0.896
	c-0.562,0.195-1.018,0.588-1.018,0.872c0,0.286-0.181,0.515-0.4,0.515c-0.295,0-0.303,0.098-0.024,0.376
	c0.474,0.474,0.176,1.238-0.857,2.197c-0.449,0.415-0.696,0.757-0.552,0.757c0.144,0-0.142,0.374-0.635,0.833
	C38.869,54.401,38.344,54.557,38.442,53.908z M34.804,39.848c0.159-0.667,0.125-0.886-0.098-0.667
	c-0.181,0.181-0.439,0.781-0.566,1.328c-0.159,0.669-0.122,0.889,0.098,0.669C34.421,40.995,34.677,40.397,34.804,39.848z
	 M33.916,39.162c0.044-0.491-0.066-0.764-0.261-0.647c-0.386,0.242-0.449,1.499-0.068,1.499
	C33.73,40.011,33.879,39.63,33.916,39.162z M37.487,36.022c0.708-0.781,0.127-0.911-0.642-0.144
	c-0.588,0.586-0.654,0.808-0.242,0.808C36.76,36.686,37.155,36.386,37.487,36.022z M39.487,33.024c0.261-0.422-0.178-0.422-0.833,0
	c-0.432,0.276-0.422,0.325,0.063,0.33C39.028,33.356,39.372,33.209,39.487,33.024z M42.727,30.956
	c0.574-0.535,0.874-1.072,0.73-1.301c-0.161-0.259-0.1-0.305,0.183-0.129c0.286,0.173,0.376,0.11,0.273-0.2
	c-0.198-0.591-0.676-0.498-1.099,0.217c-0.181,0.31-0.742,0.984-1.248,1.497c-0.503,0.515-0.916,1.116-0.916,1.335
	C40.651,32.807,40.981,32.584,42.727,30.956z M72.116,23.708c-0.115-0.183-0.356-0.332-0.542-0.332
	c-0.181,0-0.239,0.149-0.127,0.332c0.112,0.183,0.356,0.334,0.54,0.334C72.171,24.042,72.229,23.891,72.116,23.708z M85.878,19.721
	c0.479,0.005,0.486,0.049,0.054,0.327c-0.435,0.281-0.43,0.325,0.046,0.327c0.293,0.005,0.715-0.205,0.933-0.466
	c0.308-0.374,0.259-0.51-0.249-0.674c-0.876-0.278-1.733,0.105-1.702,0.764c0.017,0.349,0.088,0.393,0.193,0.132
	C85.249,19.899,85.573,19.718,85.878,19.721z M76.03,16.72c0.281,0,0.596-0.225,0.701-0.498c0.259-0.669-0.071-0.627-1.387,0.171
	c-0.649,0.396-1.001,0.823-0.864,1.047c0.164,0.261,0.359,0.21,0.635-0.171C75.339,16.967,75.749,16.72,76.03,16.72z M79.772,13.727
	c0.115-0.183,0.059-0.334-0.127-0.334c-0.183,0-0.425,0.151-0.54,0.334c-0.115,0.181-0.054,0.332,0.129,0.332
	S79.66,13.908,79.772,13.727z M82.604,11.063c0-0.183-0.225-0.334-0.498-0.334s-0.498,0.151-0.498,0.334
	c0,0.181,0.225,0.332,0.498,0.332S82.604,11.244,82.604,11.063z M74.616,50.153c0-0.281-0.227-0.596-0.5-0.701
	c-0.647-0.249-0.647-0.784,0-0.784c0.273,0,0.5-0.227,0.5-0.498c0-0.276-0.159-0.5-0.356-0.5c-0.193,0-0.261-0.142-0.154-0.317
	s0.442-0.225,0.742-0.11c0.427,0.164,0.493,0.076,0.313-0.403c-0.261-0.676,0.247-1.152,1.24-1.16
	c0.459-0.005,0.574,0.166,0.447,0.659c-0.134,0.513-0.01,0.669,0.544,0.671c0.393,0,1.292,0.156,1.985,0.352
	c1.165,0.325,1.26,0.439,1.167,1.409c-0.134,1.379-1.169,1.887-3.85,1.895C75.046,50.663,74.616,50.556,74.616,50.153z
	 M120.451,47.445c-0.459-0.457-0.197-1.108,0.443-1.108c0.444,0,0.668,0.222,0.668,0.667
	C121.563,47.643,120.91,47.902,120.451,47.445z M102.294,38.104c-0.208-0.391-0.376-0.942-0.376-1.23c0-0.283-0.151-0.52-0.334-0.52
	c-0.391,0-0.437-1.316-0.061-1.907c0.151-0.237,0.708-0.352,1.326-0.273c0.586,0.076,1.067,0.002,1.067-0.156
	c0-0.31,2.238-0.195,2.566,0.132c0.326,0.322-0.647,1.248-1.122,1.064c-0.613-0.234-0.564,0.464,0.085,1.177
	c0.621,0.686,0.383,1.274-0.488,1.206c-0.415-0.032-0.564-0.239-0.459-0.645c0.269-1.021-0.381-0.652-1.121,0.635
	C102.7,38.766,102.661,38.786,102.294,38.104z M57.543,33.646c0.225-0.227,0.491-0.327,0.593-0.225
	c0.102,0.102-0.078,0.288-0.41,0.413C57.255,34.018,57.219,33.979,57.543,33.646z M126.55,33.183
	c-0.612-0.735-0.264-0.82,0.423-0.103c0.319,0.337,0.451,0.61,0.291,0.61C127.1,33.69,126.779,33.463,126.55,33.183z
	 M111.678,33.146c-0.275-0.112-0.23-0.334,0.165-0.732c0.394-0.398,0.677-0.469,0.942-0.229c0.21,0.188,0.303,0.474,0.205,0.635
	c-0.1,0.161,0.029,0.222,0.283,0.134c0.293-0.1,0.424-0.535,0.358-1.206c-0.103-1.016-0.077-1.038,0.804-0.703
	c0.656,0.251,0.977,0.242,1.146-0.037c0.168-0.276,0.3-0.281,0.464-0.015c0.127,0.203,0.061,0.369-0.145,0.369
	c-0.207,0-0.28,0.151-0.166,0.334c0.115,0.181,0.01,0.334-0.229,0.337c-0.317,0.005-0.3,0.093,0.062,0.327
	c0.408,0.264,0.363,0.325-0.225,0.33c-0.394,0.002-0.794-0.183-0.887-0.413c-0.107-0.259-0.178-0.212-0.195,0.132
	C114.225,33.209,112.818,33.61,111.678,33.146z M50.781,29.738c0.1-0.161,0.52-0.378,0.935-0.483
	c0.728-0.181,0.732-0.168,0.11,0.293C51.108,30.082,50.5,30.194,50.781,29.738z M59.296,26.369c0.654-0.422,1.096-0.422,0.833,0
	c-0.112,0.181-0.457,0.332-0.767,0.33C58.874,26.693,58.867,26.649,59.296,26.369z M60.961,24.706c0-0.181,0.227-0.334,0.5-0.334
	s0.498,0.154,0.498,0.334s-0.225,0.334-0.498,0.334C61.186,25.041,60.961,24.887,60.961,24.706z M90.686,18.847
	c0.112-0.11,0.398-0.122,0.64-0.027c0.261,0.105,0.186,0.186-0.203,0.2C90.771,19.037,90.576,18.957,90.686,18.847z M88.454,18.393
	c-0.354-0.125-0.503-0.303-0.332-0.396c0.442-0.244,3.325-0.354,3.091-0.12C90.805,18.285,89.069,18.61,88.454,18.393z
	 M90.678,16.833c-0.71-0.286-0.459-0.83,0.334-0.718c0.41,0.059,0.71,0.259,0.664,0.439C91.577,16.959,91.235,17.052,90.678,16.833z
	 M85.935,16.61c0-0.105,0.339-0.559,0.757-1.003c0.547-0.586,1.235-0.869,2.458-0.999c0.938-0.1,2.095-0.281,2.573-0.4
	c0.647-0.164,0.869-0.09,0.869,0.271c0,0.664-0.874,1.362-1.34,1.074c-0.203-0.127-1.072-0.122-1.926,0.012
	c-1.24,0.193-1.423,0.295-0.891,0.51c0.603,0.244,0.588,0.269-0.166,0.295c-0.459,0.015-1.169,0.117-1.582,0.227
	C86.271,16.708,85.935,16.713,85.935,16.61z M117.811,10.509c0.225-0.09,0.676-0.095,0.998-0.012
	c0.324,0.085,0.139,0.159-0.41,0.166C117.85,10.67,117.583,10.602,117.811,10.509z"/>
</svg>
