<svg xmlns="http://www.w3.org/2000/svg"
 width="260.000000pt" height="260.000000pt" viewBox="0 0 260.000000 260.000000"
 preserveAspectRatio="xMidYMid meet">
<metadata>
Created by potrace 1.11, written by Peter Selinger 2001-2013
</metadata>
<g transform="translate(0.000000,260.000000) scale(0.100000,-0.100000)"
fill="#000000" stroke="none">
<path d="M0 1300 l0 -1300 1300 0 1300 0 0 1300 0 1300 -1300 0 -1300 0 0
-1300z m590 509 c92 -41 148 -121 157 -221 l6 -58 -222 -2 -221 -3 22 -44 c29
-59 95 -101 159 -101 62 0 96 14 140 56 29 28 43 35 68 32 l33 -3 -31 -42
c-97 -134 -274 -146 -383 -25 -52 57 -72 118 -66 197 14 173 186 283 338 214z
m1056 -11 c2 -25 -1 -27 -56 -36 -125 -22 -140 -52 -140 -271 l0 -161 -36 0
-36 0 4 173 c3 166 4 174 30 218 40 68 119 111 197 106 29 -2 34 -6 37 -29z
m365 17 c191 -65 232 -332 70 -450 -125 -91 -281 -57 -366 80 -27 43 -30 57
-30 124 0 84 15 122 69 179 69 74 164 99 257 67z m-1091 -169 c0 -163 1 -175
23 -207 46 -69 140 -86 203 -36 46 36 54 71 54 252 l0 165 30 0 30 0 0 -178
c0 -168 -1 -182 -23 -223 -75 -141 -293 -139 -358 5 -16 35 -19 67 -19 219 l0
177 30 0 30 0 0 -174z m-402 -447 c61 -13 127 -66 153 -123 16 -34 19 -67 19
-198 l0 -158 -54 0 -55 0 -3 154 -3 155 -29 30 c-25 26 -37 31 -77 31 -57 0
-94 -26 -109 -78 -5 -20 -10 -94 -10 -164 l0 -128 -56 0 -56 0 4 163 c3 156 4
164 31 209 32 56 74 88 136 104 58 16 52 16 109 3z m532 -19 c81 -41 132 -122
134 -210 l1 -55 -187 -3 c-104 -1 -188 -5 -188 -8 0 -16 45 -66 70 -79 40 -21
99 -19 138 5 35 21 142 29 142 10 0 -20 -72 -89 -114 -109 -50 -25 -140 -28
-190 -7 -156 65 -200 282 -83 404 76 80 184 100 277 52z m260 -85 c10 -55 22
-119 29 -142 6 -24 16 -61 21 -83 6 -22 15 -38 19 -36 11 7 38 112 65 248 l22
113 49 0 49 0 27 -132 c25 -122 56 -233 64 -233 7 0 34 107 55 215 12 61 23
120 26 133 4 20 10 22 64 22 33 0 60 -4 60 -10 0 -31 -55 -264 -85 -359 l-36
-111 -79 0 -79 0 -31 95 c-16 52 -31 103 -31 113 -1 14 -2 13 -6 -3 -3 -11
-18 -62 -35 -112 l-29 -93 -78 0 -79 0 -40 123 c-37 110 -82 299 -82 342 0 13
10 15 62 13 l61 -3 17 -100z m850 90 c5 -3 10 -25 10 -49 l0 -42 -97 0 -98 1
0 -30 c0 -29 4 -31 79 -56 98 -33 127 -61 134 -127 6 -70 -17 -115 -75 -143
-39 -19 -56 -21 -136 -16 -122 6 -127 9 -127 64 l0 46 33 -7 c121 -25 179 -17
192 24 10 32 -10 48 -89 71 -77 23 -100 38 -123 83 -18 35 -13 95 12 132 31
47 89 66 187 60 48 -3 92 -7 98 -11z m239 -296 c79 -78 -13 -208 -112 -158
-36 19 -57 52 -57 92 0 31 7 45 31 68 44 41 96 40 138 -2z"/>
<path d="M437 1756 c-22 -8 -50 -25 -64 -38 -24 -22 -62 -91 -63 -113 0 -7 63
-10 188 -7 211 3 204 -1 154 81 -45 73 -137 106 -215 77z"/>
<path d="M1888 1750 c-124 -37 -170 -209 -81 -303 40 -42 75 -57 131 -57 187
0 231 272 57 351 -43 20 -65 22 -107 9z"/>
<path d="M874 1081 c-31 -19 -64 -57 -64 -73 0 -5 61 -8 135 -8 85 0 135 4
135 10 0 6 -15 27 -33 47 -29 31 -41 37 -88 40 -41 3 -61 0 -85 -16z"/>
</g>
</svg>
