<svg xmlns="http://www.w3.org/2000/svg" xmlns:xlink="http://www.w3.org/1999/xlink" width="112" height="101" viewBox="0 0 112 101">
    <defs>
        <path id="a" d="M0 .477h90.162v89.166H0z"/>
    </defs>
    <g fill="none" fill-rule="evenodd">
        <g>
            <mask id="b" fill="#fff">
                <use xlink:href="#a"/>
            </mask>
            <path fill="#2C2823" d="M90.162 45.06c0 24.622-20.183 44.583-45.08 44.583C20.183 89.643 0 69.683 0 45.06 0 20.438 20.184.477 45.08.477c24.898 0 45.08 19.961 45.08 44.583" mask="url(#b)"/>
        </g>
        <path fill="#E8DEAD" d="M3.36 50h83.28c.17-.987.297-1.988.36-3H3c.062 1.012.189 2.013.36 3"/>
        <path fill="#CF4F00" d="M77.34 72A40.76 40.76 0 0 0 79 70H12a40.727 40.727 0 0 0 1.66 2h63.68z"/>
        <path fill="#E66108" d="M82.82 62c.425-.982.824-1.98 1.18-3H6c.356 1.02.753 2.018 1.18 3h75.64z"/>
        <path fill="#E69508" d="M85.1 56c.35-.982.654-1.982.9-3H4a29.1 29.1 0 0 0 .898 3H85.1z"/>
        <path fill="#DC7536" d="M79.827 67c.408-.656.802-1.32 1.173-2H9c.371.68.766 1.344 1.173 2h69.654z"/>
        <path fill="#FEFEFE" d="M55.052 85.68A33.818 33.818 0 0 0 57 85H33c.643.246 1.294.474 1.95.68h20.102zM62.14 83c.629-.317 1.248-.65 1.86-1H26c.612.35 1.231.683 1.86 1h34.28z"/>
        <path fill="#CF4F00" d="M71.773 77A40.185 40.185 0 0 0 74 75H16a40.185 40.185 0 0 0 2.227 2h53.546zM67.892 81A43.846 43.846 0 0 0 70 79H21a43.846 43.846 0 0 0 2.108 2h44.784z"/>
        <path fill="#FFF" d="M34.08 48.218c-.015.019-.026.04-.039.058l-.028.007c.022-.02.044-.045.067-.065m73.724 12.8c-.69-.919-1.665-1.674-2.802-1.891-1.135-.219-2.426.188-3.058 1.146-.662 1.003-.495 2.31-.732 3.484-.45 2.241-2.411 3.949-4.573 4.755-2.16.806-4.521.868-6.83.92-2.626.059-6.235.793-8.774.124-2.966-.781-2.831-5.385-5.417-6.906-.64-.378-1.372-.584-2.02-.951-1.16-.658-1.967-1.779-2.644-2.92-.677-1.138-1.271-2.342-2.167-3.323-.608-.667-1.27-.94-2.022-1.36-.658-.368-1.127-.948-1.737-1.407-1.423-1.076-3.145-1.72-4.875-2.12-2.48-.57-5.047-.688-7.54-1.201-.436-.09-.874-.194-1.276-.382-.465-.219-.866-.542-1.264-.863-.688-.556-1.394-1.132-1.806-1.912-.099-.187-.185-.39-.355-.52a.741.741 0 0 0-.088-.056l-.152.028a1.707 1.707 0 0 0-.207-.223c1.031-.152 1.755-1.009 2.83-1.207.725-.133 1.581-.122 2.04-.695.393-.496.295-1.199.24-1.826-.167-1.855.201-3.693.33-5.537.121-1.736-.215-3.13-.638-4.772-.317-1.227-.632-2.454-.948-3.682a8.514 8.514 0 0 0-.256-.864c-.79-2.085-2.429-2.965-4.586-2.846-1.695.091-3.39.185-5.086.277-.961.054-1.935.107-2.855.388-1.798.545-3.22 1.888-4.559 3.194-.613.599-1.239 1.221-1.567 2.008-.284.68-.324 1.434-.316 2.167.024 2.116.444 4.293 1.656 6.037.892 1.28 2.197 2.319 2.71 3.787.401 1.146.255 2.434-.235 3.546-.291.659-.703 1.254-1.173 1.804a5.68 5.68 0 0 0-.676.636 7.81 7.81 0 0 0-1.002.832c-1.69 1.6-3.12 3.657-5.16 4.786-1.79.99-3.984 1.661-5.144 3.459-.746 1.159-.898 2.586-.978 3.957-.482 8.347 1.006 16.67 2.62 24.876.297 1.513.674 3.153 1.887 4.12 2.143 1.71 5.249.316 7.987.037 2.108-.215 4.214.295 6.31.616 4.731.723 9.559.483 14.327.056 2.546-.228 5.354-.645 6.985-2.591.892-1.064 1.293-2.445 1.555-3.803.962-4.992.362-10.269 2.027-15.075.103-.296.221-.6.452-.816.51-.475 1.377-.309 1.926.124.549.432.893 1.06 1.342 1.596 1.785 2.127 5.266 2.865 6.058 5.516.32 1.074.184 2.42 1.087 3.096.468.35 1.09.401 1.677.438 1.54.098 3.092.196 4.622.003 4.607-.578 8.595-3.71 13.211-4.199 1.27-.134 2.632-.085 3.713-.758.653-.407 1.129-1.04 1.739-1.508 1.116-.857 2.584-1.102 3.844-1.736 3.465-1.742 4.661-6.778 2.343-9.863"/>
        <path fill="#2C2823" d="M33.922 38.595l2.24 2.34c.142 1.489.07 3-.214 4.469-.062.316-.133.637-.089.955.087.628.647 1.132 1.267 1.243.492.087 1.052-.024 1.454.275.143.108.25.256.35.403.25.361.5.747.532 1.184.036.484-.207.959-.566 1.283-.36.323-.821.51-1.29.626-.508.126-1.083.2-1.427.598.656.202 1.35.283 2.035.238.486-.03 1.06-.092 1.375.281.117.139.183.326.336.42.11.065.244.071.37.075.844.025 1.688.019 2.531-.018.188-.008.403-.032.513-.186.07-.1.077-.23.08-.353.043-1.443.008-3.007.857-4.17.404-.553.973-.958 1.531-1.352.511-.363 1.025-.727 1.568-1.04a10.148 10.148 0 0 1 3.617-1.247c.436-.062.897-.102 1.262-.35.016-.01.032-.022.046-.033.177-.094.436-.41.48-.53.111-.308.246-.678.216-.998-.08-.81-.108-1.489.003-2.368l-.014-.162a.49.49 0 0 1 .004-.043c-.004.005-.014-.003-.03-.055-.025-.084-.123-.188-.215-.14-.028.014-.226.052-.24.076-.223.383-.14.858-.195 1.278-.058.435-.055.774.008 1.21.045.293.057.592.038.89v.003c-.079.046-.161.084-.242.122a.76.76 0 0 0-.038-.035 1.287 1.287 0 0 1-.444-.75c-.013-.057-.024-.121-.073-.148-.082-.046-.215.046-.264.15-.048.103-.041.21-.055.316-.029.227-.16.464-.35.632a1.125 1.125 0 0 1-.384.224c-.187.013-.372.02-.555.015-.953-.021-1.887-.232-2.824-.407-1.448-.27-2.926-.453-4.396-.355-.767.051-1.57.174-2.28-.124a2.097 2.097 0 0 1-1.198-1.392c-.13-.507-.065-1.049-.18-1.559-.307-1.344-2.183-2.252-2.743-3.51-.062-.249-.125-.646-.17-1.321-.143-2.208-1.242-2.63-1.597-2.63-.352 0-1.295.395-1.085 2.13.11.913.704 1.73 1.243 2.3.048.051.125-.017.083-.071-1.587-2.034-.695-3.622-.122-3.622.655 0 .68 1.033.784 2.217.056.626.318 1.04.576 1.29.326.393.753.673.914.889.549.739.903 1.117.696 1.788l-1.215-.097c-.064-.005-.333-.164-.395-.143-.47-.197-1.884-1.618-2.236-2.17-.355-.553-1.729-3.393-.786-4.616.942-1.223 2.434-.355 2.839.158.406.512 2.029 2.643 3.253 2.918 1.226.277 1.014-1.025 1.014-1.301 0-.275-1.688-1.617-.707-2.367.982-.75 1.257-1.341 1.061-2.288-.198-.947-1.022-1.381-1.257-2.406-.236-1.025 1.57-2.25 2.788-2.13 1.216.118 4.397.472 5.379.078.98-.394 1.608-1.381 1.608-1.381s.904.987 1.218 1.54c.315.551.157 1.498.668 1.538.51.038.577-.577.577-.577s-1.156-3.337-3.508-4.97c-2.35-1.633-3.245-2.54-5.708-2.291-2.46.25-2.908.375-4.553 1.25s-3.455 2.327-3.455 2.327-2.018 2.01-2.775 4.484c-.76 2.473-.563 5.065.462 7.188 1.023 2.125 1.999 4.305 1.999 4.305"/>
        <path fill="#2C2823" d="M50.171 28.027c-.502.095-1.207 1.263-1.342 1.495a.16.16 0 0 0-.023.085c0 .266.073.515.171.734h-.003c.15.674.474 1.687.855 2.246.439.644 1.043 1.25 1.078 2.05.003.059.003.12.015.176-.14.045-.281.102-.363.121-.218.052-1.065.027-1.405-.052-.34-.078-.436.552-.847.736-.412.183-.92-.027-.908.157.011.184.278.551.86.526.58-.027.193.525 0 .603-.195.08-1.235.5-1.285 1.314-.048.814.107 1.654-.382 1.917-.395.211-1.115-.004-1.391-.468-.056-.094-.186-.06-.195.05-.038.452.07 1.121 1.001 1.258 1.428.211 2.034-.971 2.13-1.286.097-.316.8-2.417 1.841-2.365 1.04.053.604.578.992.737.38.154 1.79.386 2.023-.256a.131.131 0 0 0 .003-.071c-.026-.106-.124-.411-.403-.41-.34 0-.92-.682-.944-.946-.02-.212-.714-.304-.972-.331-.054-.007-.095-.056-.095-.115v-.382c0-.052.032-.097.078-.111.178-.054.616-.213.673-.505.026-.128-.035-.171-.133-.174.03-.688-.054-1.43-.479-1.942-.212-.257-.497-.438-.702-.703-.237-.308-.348-.704-.487-1.082l.009-.013c.103-.213.317-.611.412-.578.145.054 1.09-.025 1.138-.314.049-.289.024-.605-.362-.63-.198-.014-.45.041-.646.1-.131.038-.237-.12-.16-.243.105-.165.269-.354.514-.487.338-.184.687-.103.896-.02.095.039.194-.039.194-.148v-.39c-.016-.161-.798-.388-1.356-.283M44.288 31.43c-.597.741-.12.713.048.713.167 0 1.314-.878 2.007-.714.693.165.885.248.955-.302.05-.375.366-.456.562-.47.087-.004.15-.094.139-.192-.036-.315-.142-.915-.438-1.095-.406-.247-2.15-.77-3.463.165-1.316.934-2.195 2.828-2.09 3.24.106.411.285.164.374 0 .09-.164 1.577-2.47 2.625-2.636 1.05-.165 1.073.11 1.145.356.07.247-1.266.193-1.864.934M40.23 69.314c-.184.245-.281.66-.202 1.013.071.329.276.553.493.632.215.079.442.032.658-.042.245-.086.496-.22.665-.508.168-.289.22-.773.055-1.067-.142-.252-.38-.284-.596-.298l-.52-.035.123-.005a.734.734 0 0 0-.677.31"/>
        <path fill="#231F20" d="M66 60.018l.002-.002.006-.016-.008.018zM33 62.048l.004-.004.016-.044-.02.048z"/>
        <path fill="#2C2823" d="M59.397 75.735c1.035-.573 1.703-1.687 2.273-2.78l1.21-.101c.196-.018.404-.04.557-.17.036-.03.073-.069.108-.108.186-.108.322-.309.39-.528.075-.243.075-.507.049-.763-.039-.379-.137-.76-.352-1.064-.25-.356-.633-.572-1.004-.776-.52-.286-1.11-.579-1.664-.38-.053.02-.11.048-.133.104-.037.098.053.194.134.25.652.45 1.45.597 2.112 1.023.1.064.2.137.266.24.077.12.102.267.121.412.049.375.056.755.03 1.132-.24.075-.501.536-1.194.439-.274-.038-.654-.398-.787-.66-.012-.024-.022-.05-.043-.065-.063-.048-.141.032-.183.103-.43.746-.831 1.514-1.345 2.196-.514.68-1.156 1.278-1.926 1.566l-.016.092c.445.207.966.076 1.397-.162"/>
        <path fill="#2C2823" d="M27.19 80.88c.089.091.23.11.358.117 1.27.055 2.449-.62 3.46-1.367 1.013-.748 1.978-1.609 3.17-2.032a.114.114 0 0 0 .013-.005l6.763-1c1.734-.108 3.36-.982 4.834-1.915.574-.364 1.144-.742 1.765-1.026 1.1-.503 2.32-.694 3.523-.878.724-.11 1.541-.201 2.12.237.229.171.394.411.614.592.5.411 1.25.47 1.86.233.61-.235 1.09-.725 1.41-1.284.313-.546.588-1.245 1.22-1.365.832-.158 1.524.862 2.364.746a.364.364 0 0 0 .176-.065c.07-.054.1-.143.12-.227a1.708 1.708 0 0 0-.353-1.458c-.203-.241-.473-.43-.622-.706-.292-.539-.033-1.232-.294-1.785-.107-.229-.298-.42-.376-.659-.177-.541.256-1.218-.107-1.664-.106-.131-.275-.232-.305-.395-.055-.305.402-.499.405-.808.002-.364-.558-.413-.899-.26-.732.33-1.256.97-1.813 1.54-.556.57-1.238 1.116-2.045 1.15-.072-.315.212-.592.47-.798l2.855-2.278c-.934-.075-1.738.59-2.422 1.214l-1.448 1.321c-.212.194-.425.39-.612.605-.007 0-.013-.002-.02 0-.06.013-.107.059-.147.105-.602.686-.664 1.667-1.058 2.485-.162.333-.38.641-.617.93-.181.219-.375.432-.589.62-.476.423-1.046.731-1.609 1.036l-1.453.783c-.467.252-.937.504-1.43.705-.396.161-.807.287-1.202.452-.28.12-.553.259-.819.408v-.002c-1.902.774-2.698.613-3.994.564-1.104-.043-2.165-.336-3.083-.933-.689-.448-1.077-1.345-1.164-2.152.005-.25.012-.503.014-.754v-.001c.003-.194.003-.388.001-.582-.008-.762-.065-1.541-.378-2.24-.44-.971-1.335-1.692-1.784-2.66-.482-1.04-.393-2.236-.293-3.375a.387.387 0 0 0-.467.069 4.15 4.15 0 0 0-.062 3.013c.24.648.638 1.227.938 1.851.302.63.503 1.304.7 1.972.105.351.209.702.258 1.064.055.405.042.814.075 1.22.023.264.065.525.08.788.03.51-.042 1.018-.114 1.525-.083.589-.17 1.184-.323 1.76l-.069-.001-.044-.129c-.302.808-1.153 1.339-2.026 1.467-.875.13-1.767-.086-2.59-.398-.218-.083-.44-.177-.605-.337-.195-.194-.29-.459-.412-.702a3.104 3.104 0 0 0-1.328-1.337c-.201-.104-.464-.182-.642-.042-.259.203-.065.601-.114.925.132.912.253 1.818.286 2.731.196.935.067 1.95-.163 2.894-.041.169-.077.37.044.497M62.909 66.697c-.128-.213-.312-.372-.49-.527-.62-.532-1.279-1.082-2.041-1.166-.13-.014-.283 0-.35.13-.06.114-.016.273.067.365.084.091.198.134.309.175a23.6 23.6 0 0 1 1.865.787c.254.119.523.26.655.539.026-.021.052-.045.076-.066-.015-.057-.03-.116-.047-.173l-.044-.064z"/>
        <path fill="#2C2823" d="M62.719 66.593c-.383-.327-.826-.563-1.287-.591-.156-.01-.341.026-.41.204-.064.168.02.374.141.478.122.102.271.13.413.174.48.146.91.473 1.332.794.422.322.89.728.949 1.348.238-.389.17-1.019-.14-1.314l.036.072c-.32-.422-.65-.838-1.034-1.165M98.764 69.049c.053-.257.097-.6.344-.646.175-.035.335.133.379.315.042.182.002.372-.026.556-.09.588-.002 1.299.488 1.59.313.185.697.143 1.054.095.612-.084 1.225-.168 1.84-.25a.701.701 0 0 0 .281-.083c.169-.11.22-.36.16-.562-.057-.2-.202-.36-.354-.496a3.168 3.168 0 0 0-1.665-.783c.049.379.094.79-.08 1.126-.173.336-.66.51-.904.225-.154-.178-.147-.45-.131-.691l.136-2.168a.505.505 0 0 1 .065-.256c.052-.074.138-.11.219-.14.426-.165.852-.328 1.279-.492.222-.086.454-.174.687-.144.235.029.444.171.627.329.543.47.932 1.102 1.385 1.668.452.567 1.013 1.093 1.703 1.225.146.028.312.033.427-.068.126-.11.144-.317.086-.48-.06-.161-.18-.29-.297-.412a35.155 35.155 0 0 0-2.333-2.216c-.664-.576-1.502-1.159-2.32-.88-.15.05-.34.119-.442-.008-.05-.063-.055-.154-.047-.237.067-.665.757-1.026 1.363-1.225.485-.16 1.026-.29 1.49-.069.245.118.441.322.636.52.782.79 1.619 1.52 2.504 2.182.316.236.71.475 1.07.32a.29.29 0 0 0 .163-.147.342.342 0 0 0 .01-.177c-.073-.502-.5-.845-.896-1.133l-1.973-1.44c-.52-.379-1.08-.773-1.712-.79-.1-.218.077-.463.25-.622.44-.401.97-.713 1.546-.777.576-.061 1.198.158 1.544.65.175.252.27.554.4.836.14.309.32.595.538.85.107.126.24.253.4.25.244-.008.39-.328.328-.577-.062-.248-.256-.433-.44-.601l-1.534-1.406c-.331-.303-.693-.69-.631-1.148.02-.143.078-.297.008-.42a.327.327 0 0 0-.147-.126c-.359-.178-.834-.015-1.025.35-.094.178-.123.387-.186.581-.316.967-1.469 1.387-2.414 1.162a.692.692 0 0 1-.335-.157c-.253-.25-.103-.698.095-.998.198-.298.431-.57.692-.81.287-.265.644-.568.602-.97-.013-.114-.073-.236-.177-.267-.118-.034-.235.059-.327.144a12.907 12.907 0 0 0-1.445 1.625c-.172.23-.345.494-.335.787.013.317.353.432.206.708-.466 1.726-2.088 2.796-2.942 4.349a5.376 5.376 0 0 0-.586 3.4c.35-.196.613-.561.699-.971M34.055 90.817c.005.002.011.002.016.003 2.06-1.026 4.591-1.38 6.749-1.7.004-.003.008-.006.01-.01 2.186-1.09 4.053-2.785 5.702-4.594 2.012-2.206 3.878-4.42 6.042-6.482A11.52 11.52 0 0 0 54.94 76.8c.117-.079.051-.263-.09-.25-1.117.097-2.206.444-3.276.786-.576.183-1.155.37-1.677.666-.478.27-.9.626-1.361.92-1.75 1.113-3.969 1.274-5.793 2.264-1.837.999-3.111 2.743-4.68 4.115-2.073 1.812-4.647 2.956-7.178 4.072-.44.194-.893.392-1.376.409-.836.03-1.654-.56-1.877-1.353-.072-.257-.096-.546-.282-.74-.146-.153-.36-.215-.55-.312-.517-.273-.814-.819-1.08-1.333l-.282-.544a4.737 4.737 0 0 1-.096-.598c-.012-.12-.015-.247.048-.35.126-.21.461-.188.657-.036.196.153.301.386.447.583.65.874 2.22.81 2.794-.115-1.106-.246-2.004-1.017-2.842-1.77a.012.012 0 0 0-.006-.006c-.725-.754-1.005-1.84-1.23-2.867-.439-2.016-.81-4.064-.758-6.126.055-2.178.576-4.307 1.181-6.408-.402-.292-1.45-.758-1.798-2.129-.122-.48-.152-.975-.154-1.468l-.005-1.955c.092-.59.185-1.18.223-1.777.018-.278 1.443-2.363 1.423-3.355-.006-.402-.145-.83.036-1.19.112-.223.325-.374.533-.511a13.464 13.464 0 0 1 2.269-1.191c.61-.25 1.245-.458 1.798-.812.553-.357 1.03-.895 1.12-1.538.033-.223 2.802-2.86 3.024-3.19l-.002-.002c.01-.011.023-.02.032-.03.199-.221.212-.573-.133-.658-.726.46-1.422.956-2.087 1.481-1.487 1.178-2.821 2.516-4.472 3.52-.343.21-.73.45-1.096.628-1.857.658-3.668 1.544-4.588 3.211-.657 1.188-.745 2.591-.755 3.943-.016 2.39.167 4.777.35 7.162l.416 5.41c.185 2.402.375 4.835 1.16 7.119.318.923.732 1.82.91 2.777.113.614.128 1.243.251 1.855.282 1.41 1.079 2.49 1.505 3.864a.177.177 0 0 0 .064.08c.122.248.273.48.465.691.351.385.811.661 1.172 1.04.279.292.497.645.824.883.944.69 2.258.162 3.37-.218.834-.285 1.697-.474 2.567-.629"/>
        <path fill="#2C2823" d="M109.839 64.161l-.374 1.53c-.122.504-.244 1.01-.42 1.497-.155.427-.349.837-.542 1.247-.121.255-.244.513-.41.741-.237.32-.556.566-.87.809-.794.614-1.601 1.235-2.532 1.613-.742.302-1.552.445-2.247.844a3.446 3.446 0 0 0-1.268 1.273.87.87 0 0 0-.066-.233c-.227.629-1.187.68-1.688.235-.5-.443-.646-1.158-.729-1.822-.024-.195-.05-.403-.175-.556-.124-.154-.386-.21-.514-.062-.093.105-.081.26-.115.396-.071.297-.354.488-.623.632-1.717.918-3.833 1.143-5.244 2.484-.63.599-1.097 1.404-1.875 1.788-.636.315-1.376.297-2.085.272-2.172-.081-4.356-.181-6.479-.65-1.953-.432-4.026-1.169-5.882-.424 1.313-1.502 3.54-1.645 5.45-2.222.529-.16 1.153-.527 1.068-1.073l-6.433 1.782c-.097.027-.202.054-.3.025-.209-.06-.268-.353-.163-.543.105-.19.312-.297.509-.388a10.61 10.61 0 0 1 2.972-.862c.515-.071 1.214-.341 1.073-.842-1.94.227-4.057.258-5.664-.85-.95-.654-1.615-1.635-2.255-2.594-1.727-2.583-3.452-5.165-5.18-7.746-.079-.213-.195-.392-.354-.452-.05-.021-.01-.024-.217.162-.225.536-.221 1.138-.194 1.72.031.663.09 1.324.162 1.985v.01c.146 2.116.16 2.52.127 2.896-.09.985-.018 2.738.001 2.824.072.328 1.202 2.253 1.748 2.9l.006.004a24.492 24.492 0 0 0 3.399 3.639c.516.451 1.125.792 1.627 1.245a29.048 29.048 0 0 0 5.424 3.818c.226.122.483.205.702.335.177.103.3.234.5.307.48.174 1.011.154 1.515.128 2.21-.11 4.417-.275 6.62-.494.816-.082 1.65-.174 2.397-.514.8-.366 1.447-.986 2.154-1.51.903-.67 1.91-1.184 2.912-1.695l4.4-2.246c.408-.208.828-.425 1.13-.77.088-.102.163-.22.222-.343.071.036.164.03.194-.043l-.08-.186a16.678 16.678 0 0 1 3.483-2.083c.505-.223 1.026-.424 1.474-.748.288-.209.537-.464.822-.677.48-.359 1.044-.59 1.525-.947.194-.142.378-.312.478-.532.13-.28.102-.6.127-.906.058-.713.398-1.37.646-2.04.249-.671.408-1.437.11-2.088"/>
        <path fill="#2C2823" d="M49.787 50.38a5.66 5.66 0 0 0-3.08 1.77c-.184.204-.357.427-.595.563-.347.201-.769.187-1.168.193-1.507.023-2.885.336-4.347.606-1.42.261-2.827.623-4.24.928-.173.037-.392.146-.352.32 1.48.173 2.93-.416 4.386-.74 1.292-.288 2.602-.293 3.914-.341.613-.024 1.292-.026 1.757.382.32.28.474.7.63 1.098a18.938 18.938 0 0 0 2.267 4.17c.545.761 1.169 1.529 1.3 2.459.05.355.026.721.12 1.066.093.346.353.685.706.709.413-1.104-.065-2.344-.691-3.338-.628-.996-1.424-1.918-1.735-3.055-.143-.518-.177-1.068-.376-1.567-.382-.969-1.365-1.793-.85-2.898.205-.44.589-.774 1.04-.94 2.097-.77 4.661-.912 6.567.344.84.553 1.618 1.388 2.618 1.367a3.726 3.726 0 0 0-1.747-1.836c-.314-.155-.707-.337-.646-.742a.617.617 0 0 1 .411-.47c2.154-.792 4.575-.455 6.662.477 1.995.89 3.727 2.285 5.349 3.761 1.22 1.11 2.472 2.455 2.52 4.115.01.34-.013.736.24.96.13.116.31.158.481.2 2.13.535 3.953 1.975 5.347 3.692 1.396 1.717 2.41 3.71 3.415 5.686a1.904 1.904 0 0 0-.608.681c.972-.278 1.944-.556 2.918-.832-.634.127-1.281-.238-1.698-.736-.417-.5-.657-1.12-.931-1.713a14.44 14.44 0 0 0-5.98-6.476c-.498-.278-1.015-.529-1.454-.893-.785-.652-1.253-1.603-1.718-2.517-.899-1.765-2.025-3.378-3.687-4.431l-4.705-2.531c-1.742-.627-3.574-1.05-5.407-.795-1.29.178-2.487.79-3.771 1.008-.947.16-1.92.106-2.862.296"/>
        <path fill="#231F20" d="M85.046 69.676c3 .43 6.076.356 9.048-.213.06-.012.091.067.035.095-.27.133-.553.248-.84.343-.059.018-.044.099.017.099 1.738-.028 3.457-.729 4.678-1.913.04-.04-.003-.104-.057-.083-1.792.689-3.748.906-5.68.989-2.014.086-4.04.034-6.043.26l-1.177.326a.052.052 0 0 0 .019.097"/>
        <path fill="#2C2823" d="M61.236 62.753c-.61-.211-1.327-.274-1.808-.646-.064-.05-.134-.107-.222-.107-.121.001-.197.113-.205.213-.023.278.257.52.572.629.315.108.666.12 1 .174.445.07.87.214 1.245.422.378.21.722.491 1.172.562l.01-.156-.076-.103c-.517-.38-1.046-.768-1.688-.988M49.028 46.535c-.342-.13-.658-.406-.68-.757-.019-.278.093-.66-.177-.762-.15-.057-.319.043-.404.173-.084.13-.11.287-.161.433-.362 1.031-1.842 1.335-2.312 2.326-.124.262-.166.551-.208.835-.103.723-.192 1.519.224 2.13l-.133.042c.401.1.843.033 1.194-.179.232-.14.42-.338.643-.493 1.003-.705 2.397-.403 3.615-.635.65-.122 1.262-.403 1.916-.5.694-.1 1.408.008 2.1-.099.202-.032.455-.226.314-.368-1.771.038-3.126-1.57-4.857-1.925-.359-.073-.732-.092-1.074-.221"/>
        <path fill="#231F20" d="M53 40.022c.01-.008.008-.046 0 0"/>
        <path fill="#87240F" d="M50.064 39.764c-.035.039-.07.09-.063.15.012.078.09.094.15.083.435-.068.824-.446 1.261-.493.16-.018.328.007.472-.088.071-.047.134-.148.111-.252L51.62 39c-.584.014-1.102.262-1.555.764"/>
        <path fill="#2C2823" d="M53.143 36.717c-.004.086-.004.186.094.25.098.067.482.023.454-.064l.004-.055c.032-.86.102-1.652.132-2.512a2.22 2.22 0 0 0-.114-.8c-.086-.239-.222-.37-.496-.52a.128.128 0 0 0-.142.012c-.142.118-.048.255-.002.44.27 1.087.128 2.167.07 3.25"/>
        <path fill="#FFF" d="M111.706 64.114l-1.725-3.79-.188.774-.08-.109c-.981-1.322-2.288-2.2-3.684-2.471a4.673 4.673 0 0 0-2.061.064h-.026c-.44 0-.855.17-1.231.509a2.226 2.226 0 0 0-.122.117c-.452.303-.82.672-1.099 1.1a1.7 1.7 0 0 0-.082.137c-.09.101-.192.217-.293.345-.201.257-.672.854-.64 1.69.008.22.054.412.115.573-.245.496-.68.974-1.166 1.51-.511.562-1.04 1.144-1.46 1.868-.262.45-.464.939-.603 1.457a6.407 6.407 0 0 1-.479.205c-1.956.74-4.193.792-6.357.841-.75.018-1.572.087-2.29.153-.73.027-1.591.069-2.467.173l-.117.014-.098.03c-.4.02-.766.031-1.108.031-.676 0-1.256-.041-1.76-.128a.908.908 0 0 1-.097-.096c-.22-.263-.4-.658-.59-1.077-.049-.106-.097-.21-.147-.314a15.921 15.921 0 0 0-6.645-7.12c-.106-.058-.21-.116-.316-.172-.355-.191-.69-.373-.938-.577-.535-.438-.916-1.18-1.32-1.967l-.046-.091c-1.208-2.348-2.555-3.934-4.242-4.99l-.041-.027-.045-.024-4.753-2.529-.094-.05-.1-.035c-1.82-.647-3.352-.948-4.816-.948-.32 0-.639.014-.951.045l-.333-.045c-.047-.005-.092-.012-.138-.018l-.042-.045-.439-.46-.634.014h-.029c-.544 0-1.153-.366-1.86-.79-.7-.422-1.495-.9-2.439-1.116l.228-.036.128-.017c.482-.066 1.142-.156 1.752-.567.02-.013.039-.026.056-.04.43-.28.87-.804 1.027-1.234.144-.4.359-.993.296-1.64-.072-.745-.096-1.32 0-2.067l.021-.159-.014-.143.022-.128c.465-.287.692-.674.803-.953.12-.308.14-.644.056-.966a2.101 2.101 0 0 0-.402-.8l.099-.593-.277.21c.013-.422.032-.843.051-1.249.02-.438.04-.89.053-1.36a4.465 4.465 0 0 0-.141-1.262 2.258 2.258 0 0 0-.72-1.173 47.18 47.18 0 0 0-.272-1.11l-.147-.58-.016-.057a1.59 1.59 0 0 0 .211-.795v-.475l-.01-.08c-.042-.396-.24-.874-.85-1.207l-.136-.537a9.736 9.736 0 0 0-.046-.177c.085-.205.136-.412.158-.597l.039-.329-.11-.313c-.054-.155-1.356-3.837-4.093-5.73l-.785-.552C46.924 18.863 45.704 18 43.569 18c-.293 0-.593.016-.916.048-2.672.271-3.297.443-5.142 1.422-1.763.937-3.644 2.434-3.722 2.499l-.061.048-.056.054c-.093.093-2.308 2.317-3.173 5.127-.857 2.79-.657 5.82.548 8.313 1.017 2.102 1.999 4.288 2.008 4.309l.103.23.173.179 1.912 1.99a14.318 14.318 0 0 1-.237 3.609l-.013.064c-.043.22-.096.49-.112.796-.04.053-.082.104-.123.154-.162.138-.316.28-.46.424l-.125-.033-.527.342a26.459 26.459 0 0 0-2.205 1.597c-.507.408-.992.831-1.463 1.24-.951.828-1.848 1.61-2.862 2.237l-.103.065a12.1 12.1 0 0 1-.805.473c-1.852.676-4.099 1.732-5.28 3.906-.797 1.47-.917 3.123-.927 4.69-.017 2.494.17 4.991.353 7.406l.416 5.505c.189 2.501.384 5.088 1.232 7.598.099.292.205.578.306.854.229.618.445 1.202.549 1.768.045.246.072.514.103.798.036.354.075.722.152 1.11.193.984.563 1.786.922 2.563.237.515.462 1.001.617 1.51.04.133.112.303.242.477.17.316.365.595.592.85.257.286.527.509.766.705.163.133.319.261.428.377.06.066.133.154.208.247.199.247.447.555.806.822.559.415 1.222.627 1.973.627.905 0 1.759-.302 2.511-.568l.215-.075c.596-.21 1.256-.378 2.118-.541.371.045.852.067 1.481.067.115 0 .23-.002.343-.003.783-.462 1.552-.953 2.354-1.38a21.43 21.43 0 0 1-.717-.101l-.048-.002c-.216 0-1.083.043-1.932.043-.581 0-1.155-.02-1.507-.086-.87.157-1.732.348-2.564.64-.72.25-1.522.563-2.254.563-.4 0-.782-.094-1.115-.341-.327-.244-.544-.602-.823-.9-.359-.384-.819-.665-1.171-1.058a3.073 3.073 0 0 1-.465-.703.18.18 0 0 1-.064-.08c-.426-1.398-1.222-2.497-1.504-3.932-.121-.623-.137-1.263-.251-1.887-.178-.976-.591-1.889-.908-2.826-.783-2.324-.974-4.8-1.16-7.245l-.415-5.503c-.184-2.426-.367-4.856-.349-7.289.01-1.373.098-2.803.753-4.01.92-1.696 2.73-2.6 4.584-3.267.368-.182.753-.427 1.096-.639 1.65-1.022 2.982-2.383 4.47-3.582a25.173 25.173 0 0 1 2.084-1.508.37.37 0 0 1 .184.106 6.19 6.19 0 0 1 .492-.38c.205-.233.432-.447.676-.644.201-.24.389-.488.563-.745-.003-.019-.01-.037-.012-.057-.045-.321.027-.646.09-.963.288-1.485.36-3.01.217-4.514l-2.27-2.361s-.988-2.202-2.024-4.347c-1.038-2.146-1.237-4.763-.468-7.26.768-2.497 2.81-4.527 2.81-4.527s1.834-1.467 3.5-2.35c1.665-.884 2.119-1.009 4.61-1.26.276-.03.533-.042.773-.042 1.94 0 2.89.887 5.008 2.354 2.382 1.65 3.553 5.02 3.553 5.02s-.043.369-.303.518c.09.255.159.516.226.776l.327 1.289c.341.063.613.172.625.262v.394a.16.16 0 0 1-.215.151 1.539 1.539 0 0 0-.221-.062c.144.566.288 1.133.43 1.699.166.65.316 1.26.433 1.868a.22.22 0 0 1 .055-.11.089.089 0 0 1 .065-.028c.016 0 .034.005.048.016.22.159.329.298.398.554.072.274.099.573.093.849-.026.913-.082 1.755-.108 2.668l-.003.058c.016.063-.115.103-.227.103-.058 0-.11-.01-.137-.034a.232.232 0 0 1-.065-.119l-.07.684c.215.225.488.424.688.424h.002c.304 0 .413.306.44.415a.107.107 0 0 1-.003.07c-.128.328-.586.428-1.062.428-.066 0-.133-.002-.2-.005-.028.313-.048.627-.063.94.063-.016.13-.032.146-.04a.117.117 0 0 1 .05-.011c.077 0 .149.083.17.152.012.047.022.058.028.058h.002a.493.493 0 0 0-.005.043l.014.164c-.113.887-.083 1.573-.004 2.39.032.324-.104.696-.217 1.009-.044.12-.307.438-.486.533a.505.505 0 0 1-.047.035c-.37.25-.836.29-1.278.353a10.286 10.286 0 0 0-3.085.963c.026.014.05.029.072.046.13.1.21.246.285.392.018-.045.03-.093.058-.133.066-.108.186-.193.306-.193.029 0 .057.005.086.016.265.103.154.491.172.774.022.358.331.638.663.768.333.132.696.151 1.046.225 1.667.356 2.976 1.955 4.67 1.955h.061c.11.114-.024.26-.182.332l1.717.232c.323-.038.647-.056.97-.056 1.472 0 2.931.366 4.334.865l4.753 2.53c1.678 1.052 2.816 2.663 3.722 4.427.47.913.944 1.863 1.736 2.514.444.365.966.615 1.468.893a14.468 14.468 0 0 1 6.04 6.472c.277.59.52 1.211.941 1.71.177.209.395.39.633.525.718.152 1.504.21 2.323.21.443 0 .897-.018 1.353-.045l.14-.04a29.77 29.77 0 0 1 2.39-.167 33.54 33.54 0 0 1 2.229-.15c2.31-.052 4.672-.115 6.833-.933.426-.16.839-.366 1.24-.595a4.766 4.766 0 0 1 .578-1.692c.844-1.452 2.447-2.453 2.908-4.07.145-.258-.192-.367-.203-.662-.011-.276.16-.522.332-.738.113-.145.24-.28.36-.42.03-.055.056-.115.091-.17a2.51 2.51 0 0 1 .8-.758c.059-.056.115-.117.176-.172.077-.069.171-.141.27-.141.016 0 .034.001.052.006.02.005.03.026.046.037a3.239 3.239 0 0 1 1.716-.135c1.137.222 2.112.987 2.803 1.918 1.832 2.471 1.462 6.172-.483 8.487.205-.168.4-.346.56-.558.17-.23.29-.491.413-.75.195-.413.39-.827.546-1.26.178-.492.301-1.002.426-1.512l.375-1.546c.3.658.139 1.433-.11 2.11-.252.678-.593 1.34-.653 2.06-.025.31.002.635-.128.917-.1.223-.287.393-.482.54-.485.357-1.054.593-1.538.956-.286.215-.538.472-.828.682-.451.327-.977.531-1.486.757a16.73 16.73 0 0 0-3.511 2.104l.08.19c-.02.044-.06.064-.107.064a.194.194 0 0 1-.088-.023c-.06.125-.135.244-.225.347-.304.35-.727.568-1.138.778l-4.436 2.27c-1.01.516-2.026 1.036-2.936 1.713-.71.528-1.364 1.157-2.171 1.525-.753.343-1.594.438-2.417.52-2.22.22-4.445.388-6.673.499-.175.008-.351.017-.529.017-.34 0-.68-.03-1-.147-.201-.074-.324-.206-.502-.31-.221-.132-.48-.215-.708-.339a29.277 29.277 0 0 1-5.468-3.858c-.507-.457-1.12-.802-1.64-1.256a24.815 24.815 0 0 1-3.427-3.678l-.006-.005c-.551-.653-1.874-2.747-1.967-3.489.078 1.477-.985 2.979-.849 2.586.992 1.253 4.109 4.628 5.302 5.672.306.268.613.487.911.697.263.188.513.366.711.545a30.54 30.54 0 0 0 5.744 4.052c.16.089.31.154.444.212.083.036.178.077.22.103.01.005.042.029.066.046.135.098.36.26.676.376.575.21 1.128.236 1.493.236.208 0 .402-.01.6-.02 2.242-.112 4.511-.282 6.744-.505.79-.079 1.872-.186 2.872-.642.746-.34 1.355-.828 1.893-1.258.186-.15.364-.29.538-.42.817-.609 1.748-1.084 2.733-1.587l3.838-1.963.599-.306c.455-.233 1.078-.55 1.568-1.116.019-.02.037-.042.056-.064.266-.165.479-.41.605-.712a15.206 15.206 0 0 1 2.922-1.637c.472-.206 1.007-.438 1.513-.806.204-.148.38-.302.535-.436.112-.097.218-.19.313-.26.171-.129.39-.252.623-.384.28-.159.596-.337.906-.566.444-.33.752-.689.939-1.103.213-.468.23-.923.243-1.224.002-.058.004-.116.008-.172.028-.329.19-.727.36-1.15.068-.169.139-.342.206-.525.463-1.25.487-2.3.072-3.211"/>
        <path fill="#FEFEFE" d="M66 71l.114-.414c.144-.52.266-1.05.346-1.586a31.298 31.298 0 0 0-.46 2M79 67c.282.717.586 1.395.938 2A59.994 59.994 0 0 0 79 67M49 23.345A9.03 9.03 0 0 1 51 24c-.678-.488-1.525-1-1.525-1s-.171.145-.475.345M35 48.082l.036-.006c.016-.026.03-.052.048-.076-.028.026-.054.056-.084.082M74.232 62.138c-.076-.046-.154-.094-.232-.138.05.03.096.066.148.096.028.016.056.026.084.042M14.579 29.916c-.667.193-1.382.053-2.138-.414-.784-.486-1.247-1.084-1.393-1.797-.146-.714.041-1.506.562-2.37.336-.56.696-1.004 1.079-1.335l1.159.717c-.368.293-.712.706-1.029 1.235-.276.456-.378.86-.31 1.21.069.35.326.662.774.938.412.255.773.346 1.08.273.308-.073.58-.308.816-.701a2.79 2.79 0 0 0 .31-.729l-.676-.419-.562.934-.834-.515 1.25-2.08L17 26.306c.004.276-.045.59-.149.945-.103.351-.277.73-.518 1.132-.501.833-1.086 1.344-1.754 1.534M16 20.012L19.024 17l.889.892-1.86 1.85.65.651 1.628-1.623.902.904-1.63 1.623.65.65 1.858-1.85.889.891L19.978 24zM24.09 14.541l-1.41.776-.68-.962L26.28 12l.681.96-1.41.776L28 17.195 26.538 18zM41.312 10.21l-.837-1.535-.41 1.694 1.247-.16zm-1.9-2.989L41.135 7 44 12.229l-1.697.218-.623-1.111-1.68.217-.303 1.229L38 13l1.412-5.779zM46.569 11.927c-.463-.571-.644-1.327-.54-2.267.104-.97.438-1.678 1.002-2.128.563-.448 1.344-.614 2.339-.494.32.04.609.1.866.181.255.082.51.19.764.324l-.16 1.462a3.671 3.671 0 0 0-1.514-.527c-.518-.063-.913.017-1.184.236-.271.22-.436.602-.495 1.142-.056.524.03.92.26 1.193.23.272.598.44 1.104.5a3.676 3.676 0 0 0 1.587-.143l-.158 1.473a4.89 4.89 0 0 1-1.702.082c-.984-.118-1.707-.464-2.17-1.034M57.52 9.588l-1.5-.51L56.444 8 61 9.546l-.422 1.078-1.5-.509L57.556 14 56 13.47zM64.7 12l1.3.902L63.302 18 62 17.098zM70.879 21.428c.292-.04.61-.244.957-.612.365-.387.56-.727.582-1.017.024-.289-.115-.576-.416-.859-.3-.286-.595-.407-.884-.365-.287.04-.613.256-.98.642-.345.37-.53.698-.553.993-.024.293.114.579.41.86.298.278.592.398.884.358m-2.877-1.294c-.033-.652.285-1.33.949-2.038.683-.725 1.349-1.09 1.998-1.096.646-.004 1.31.311 1.987.95.676.637 1.03 1.279 1.062 1.93.031.647-.293 1.332-.972 2.056-.663.702-1.32 1.056-1.974 1.064-.653.007-1.317-.305-1.99-.94-.672-.634-1.025-1.277-1.06-1.926M77.472 23l.685 1.134-1.33 3.212 2.368-1.489L80 27.19 75.528 30l-.688-1.14 1.325-3.2-2.36 1.484L73 25.812z"/>
        <path fill="#87240F" d="M35.779 95.017l-.788-1.72-.786 1.72h1.574zM32.984 90h4.03L41 99h-4.05l-.737-1.676h-2.425L33.048 99H29l3.984-9zM48.703 97.133c.24-.316.36-.86.36-1.632 0-.775-.12-1.318-.36-1.634-.24-.314-.641-.47-1.204-.47s-.964.156-1.203.47c-.24.316-.359.86-.359 1.634 0 .773.12 1.316.359 1.632.239.315.64.47 1.203.47.563 0 .965-.155 1.204-.47m-5.309 2.575c-.93-.86-1.394-2.263-1.394-4.207s.463-3.348 1.394-4.209c.93-.862 2.3-1.292 4.105-1.292 1.806 0 3.176.43 4.105 1.292.931.86 1.396 2.265 1.396 4.209 0 1.944-.465 3.346-1.396 4.207-.93.862-2.299 1.292-4.105 1.292-1.806 0-3.175-.43-4.105-1.292M55 90h3.508l2 3.717L62.49 90H66v9h-3.693v-3.159l-.868 1.621H59.56l-.87-1.62V99H55z"/>
    </g>
</svg>
