<svg width="44" height="49" viewBox="0 0 44 49" fill="none" xmlns="http://www.w3.org/2000/svg">
<path d="M16.229 37.936L17.3227 39.0651C17.8704 38.5348 18.4486 38.0209 19.0411 37.5377L18.0471 36.3198C17.4201 36.8305 16.8089 37.3743 16.229 37.936Z" fill="white"/>
<path d="M26.8298 31.3938L25.5137 31.9202C23.2234 32.8364 21.0603 34.0448 19.0842 35.5109L20.0208 36.7728C21.8877 35.3868 23.9329 34.2444 26.0975 33.3785L27.4144 32.8521C27.5542 32.7955 27.6917 32.7366 27.8269 32.6745L27.1724 31.2461C27.06 31.2987 26.9453 31.3475 26.8298 31.3938Z" fill="white"/>
<path d="M44.0001 18.0714C44.0001 16.7349 43.1578 15.598 41.9784 15.1446C42.2566 14.6056 42.4286 14.0038 42.4286 13.3571C42.4286 11.1909 40.6663 9.42857 38.5001 9.42857C38.4757 9.42857 38.4521 9.43564 38.4278 9.43643C38.4718 9.17793 38.5001 8.91393 38.5001 8.64286C38.5001 6.04293 36.3857 3.92857 33.7858 3.92857C33.1926 3.92857 32.6166 4.05429 32.0714 4.27271C31.5119 1.82993 29.3245 0 26.7144 0C23.6815 0 21.2144 2.46714 21.2144 5.5C21.2144 8.53286 23.6815 11 26.7144 11C27.6918 11 28.6087 10.7407 29.4054 10.2921C30.0725 12.0992 31.7704 13.3571 33.7858 13.3571C34.0569 13.3571 34.3209 13.3289 34.5794 13.2849C34.5786 13.3092 34.5715 13.3328 34.5715 13.3571C34.5715 15.2994 35.9921 16.9062 37.8464 17.2197C37.7686 17.4947 37.7144 17.7784 37.7144 18.0714C37.7144 19.8047 39.1239 21.2143 40.8572 21.2143C42.5905 21.2143 44.0001 19.8047 44.0001 18.0714ZM22.7858 5.5C22.7858 3.33379 24.5481 1.57143 26.7144 1.57143C28.8806 1.57143 30.6429 3.33379 30.6429 5.5C30.6429 7.66621 28.8806 9.42857 26.7144 9.42857C24.5481 9.42857 22.7858 7.66621 22.7858 5.5ZM30.7341 9.24157C31.5512 8.36471 32.0863 7.22307 32.1916 5.95964C32.6811 5.66343 33.224 5.5 33.7858 5.5C35.5191 5.5 36.9286 6.90957 36.9286 8.64286C36.9286 10.3761 35.5191 11.7857 33.7858 11.7857C32.2662 11.7857 31.0154 10.7109 30.7341 9.24157ZM36.1429 13.3571C36.1429 13.1144 36.194 12.8763 36.2702 12.6421C36.8839 12.2595 37.4024 11.7409 37.7859 11.1265C38.0184 11.0511 38.2565 11 38.5001 11C39.7996 11 40.8572 12.0576 40.8572 13.3571C40.8572 14.6567 39.7996 15.7143 38.5001 15.7143C37.2005 15.7143 36.1429 14.6567 36.1429 13.3571ZM39.2858 18.0714C39.2858 17.7139 39.4131 17.3761 39.6354 17.0987C40.0699 16.9659 40.4722 16.7679 40.8289 16.5031C40.8384 16.5024 40.8478 16.5 40.8572 16.5C41.7239 16.5 42.4286 17.2048 42.4286 18.0714C42.4286 18.9381 41.7239 19.6429 40.8572 19.6429C39.9906 19.6429 39.2858 18.9381 39.2858 18.0714Z" fill="white"/>
<path d="M41.6428 22C40.3432 22 39.2856 23.0576 39.2856 24.3571C39.2856 25.6567 40.3432 26.7143 41.6428 26.7143C42.9424 26.7143 43.9999 25.6567 43.9999 24.3571C43.9999 23.0576 42.9424 22 41.6428 22ZM41.6428 25.1429C41.2099 25.1429 40.8571 24.7901 40.8571 24.3571C40.8571 23.9242 41.2099 23.5714 41.6428 23.5714C42.0757 23.5714 42.4285 23.9242 42.4285 24.3571C42.4285 24.7901 42.0757 25.1429 41.6428 25.1429Z" fill="white"/>
<path d="M24.1128 12.5713C19.1651 12.5713 14.7809 15.5397 12.9431 20.1338L12.4166 21.4514C11.5437 23.6357 10.3549 25.6746 8.88486 27.5124C8.33486 28.1991 7.74086 28.8623 7.11936 29.4846L2.508 34.0959C0.891 35.7121 0 37.8626 0 40.1506C0 40.3738 0.0133572 40.6064 0.0353572 40.8484C0.0518572 41.0503 0.0785714 41.2491 0.109214 41.4471C0.111571 41.4604 0.111571 41.4722 0.113929 41.4856L0.162643 41.7967C0.931857 45.7324 4.40471 48.7141 8.5635 48.7141C10.8515 48.7141 13.0012 47.8231 14.619 46.2061L19.2304 41.5948C19.8526 40.9733 20.5158 40.3793 21.2025 39.8293C23.0403 38.3592 25.0792 37.1712 27.2635 36.2975L28.5804 35.7711C33.1744 33.9333 36.1429 29.549 36.1429 24.6014C36.1429 17.9684 30.7458 12.5713 24.1128 12.5713ZM32.6056 18.5207C30.9689 19.2766 29.8571 20.9203 29.8571 22.7856C29.8571 25.2488 31.7562 27.2736 34.1676 27.4794C33.8831 28.482 33.4534 29.428 32.8947 30.2907C32.6582 30.1124 32.4634 29.8806 32.3463 29.6016L32.0446 28.8843L31.3241 29.1789C30.69 29.4382 29.9664 29.2929 29.4816 28.8081L28.5489 27.8746C28.0641 27.3906 27.9188 26.667 28.1781 26.0321L28.4719 25.3116L27.7546 25.0107C27.1229 24.7451 26.7143 24.1307 26.7143 23.4448V22.1256C26.7143 21.4396 27.1229 20.8252 27.7554 20.5596L28.4727 20.2587L28.1789 19.5382C27.9196 18.9026 28.0649 18.1797 28.5497 17.6949L29.4824 16.7623C29.7424 16.5022 30.0787 16.3443 30.4425 16.294C31.2691 16.9265 31.9982 17.6753 32.6056 18.5207ZM14.4021 20.7176C15.8062 17.207 18.9224 14.7894 22.5775 14.2559C22.7103 14.501 22.7857 14.7744 22.7857 15.0549V16.3741C22.7857 17.0601 22.3771 17.6745 21.7446 17.9401L21.0273 18.241L21.3211 18.9615C21.5804 19.5971 21.4351 20.32 20.9503 20.8048L20.0176 21.7374C19.5329 22.2222 18.8092 22.3676 18.1751 22.1083L17.4546 21.8136L17.1537 22.531C16.8881 23.1627 16.2737 23.5713 15.5878 23.5713H14.2686C13.9276 23.5713 13.6031 23.4613 13.3257 23.2743C13.5159 22.8641 13.7068 22.4548 13.8749 22.0344L14.4021 20.7176ZM7.23329 31.5919C8.52343 31.9996 9.42857 33.1908 9.42857 34.5713C9.42857 36.3046 8.019 37.7141 6.28571 37.7141C4.92093 37.7141 3.72664 36.8192 3.30943 35.5471C3.41079 35.4316 3.50979 35.3154 3.619 35.2054L7.23329 31.5919ZM2.29193 37.0675C3.13657 38.4103 4.631 39.2856 6.28571 39.2856C8.88564 39.2856 11 37.1712 11 34.5713C11 32.7657 9.966 31.1794 8.42207 30.3921C9.01371 29.7871 9.58414 29.1522 10.1114 28.493C10.2198 28.3571 10.3156 28.2125 10.4217 28.0742C10.7808 28.1237 11.1131 28.2871 11.3748 28.5488L12.3074 29.4822C12.7922 29.9662 12.9376 30.6899 12.6783 31.3247L12.3844 32.0452L13.1018 32.3461C13.7343 32.6117 14.1429 33.2261 14.1429 33.9121V35.2313C14.1429 35.9172 13.7343 36.5316 13.1018 36.7972L12.3844 37.0981L12.6783 37.8186C12.9376 38.4543 12.7922 39.1771 12.3074 39.6619L11.3748 40.5946C10.89 41.0794 10.1664 41.2247 9.53229 40.9654L8.81179 40.6708L8.51086 41.3881C8.24529 42.0199 7.63086 42.4284 6.94493 42.4284H5.62571C4.93979 42.4284 4.32536 42.0199 4.05979 41.3874L3.75886 40.67L3.03836 40.9639C2.57636 41.1524 2.05464 41.1234 1.617 40.8986C1.58636 40.6299 1.57143 40.3871 1.57143 40.1506C1.57143 39.0624 1.82521 38.0151 2.29193 37.0675ZM27.9966 34.312L26.6797 34.8384C24.3516 35.7695 22.1784 37.0353 20.2204 38.6028C19.4881 39.1881 18.7809 39.8214 18.1186 40.4838L13.5072 45.0951C12.1872 46.4151 10.4311 47.1427 8.5635 47.1427C5.57936 47.1427 3.03286 45.2601 2.03107 42.6225C2.3375 42.6579 2.64629 42.6657 2.95271 42.6131C3.55614 43.4726 4.54536 43.9999 5.6265 43.9999H6.94571C8.02607 43.9999 9.0145 43.4734 9.61793 42.6146C10.6496 42.7946 11.7229 42.4677 12.4866 41.704L13.4192 40.7714C14.1829 40.0076 14.5098 38.9367 14.3299 37.9027C15.1879 37.2993 15.7143 36.3109 15.7143 35.2305V33.9113C15.7143 32.8309 15.1879 31.8425 14.3291 31.2391C14.509 30.2051 14.1821 29.1334 13.4184 28.3704L12.4858 27.4378C12.1723 27.1243 11.7991 26.8862 11.3944 26.7244C11.8376 26.0612 12.2422 25.3745 12.6209 24.6729C13.1183 24.9667 13.6793 25.1427 14.2694 25.1427H15.5886C16.6689 25.1427 17.6574 24.6163 18.2608 23.7575C19.2932 23.9374 20.3657 23.6106 21.1294 22.8469L22.0621 21.9142C22.8258 21.1505 23.1526 20.0796 22.9727 19.0456C23.8307 18.4421 24.3571 17.4537 24.3571 16.3734V15.0541C24.3571 14.7438 24.3006 14.4413 24.2141 14.1474C25.8728 14.1639 27.4364 14.5717 28.8263 15.2773C28.6652 15.3881 28.5112 15.5106 28.3706 15.6513L27.4379 16.5839C26.6742 17.3476 26.3474 18.4186 26.5273 19.4526C25.6693 20.0576 25.1429 21.046 25.1429 22.1264V23.4456C25.1429 24.5259 25.6693 25.5144 26.5281 26.1178C26.3481 27.1518 26.675 28.2235 27.4387 28.9864L28.3714 29.9191C29.1359 30.6836 30.2091 31.0081 31.2408 30.8297C31.4349 31.1039 31.6714 31.3451 31.9385 31.5471C30.8825 32.7343 29.5484 33.6913 27.9966 34.312ZM34.4834 25.9198C32.7918 25.8711 31.4286 24.4882 31.4286 22.7856C31.4286 21.4789 32.241 20.3263 33.4243 19.8627C34.1526 21.2872 34.5714 22.8948 34.5714 24.6014C34.5714 25.0469 34.5369 25.4861 34.4834 25.9198Z" fill="white"/>
</svg>
