<?xml version="1.0" encoding="utf-8"?>
<!-- Generator: Adobe Illustrator 23.1.0, SVG Export Plug-In . SVG Version: 6.00 Build 0)  -->
<svg version="1.1" id="Слой_1" xmlns="http://www.w3.org/2000/svg" xmlns:xlink="http://www.w3.org/1999/xlink" x="0px" y="0px"
	 viewBox="0 0 48 46" style="enable-background:new 0 0 48 46;" xml:space="preserve">
<style type="text/css">
	.st0{display:none;fill:#FFFFFF;}
</style>
<path class="st0" d="M15.7,23.3H0.9c-0.2,0-0.4-0.1-0.6-0.3C0.1,22.9,0,22.6,0,22.4v-4c0-0.2,0.1-0.4,0.3-0.6
	c0.2-0.2,0.4-0.3,0.6-0.3h15.6c0.1,0,0.3,0,0.4,0.1c0.1,0.1,0.2,0.1,0.3,0.2c0.1,0.1,0.1,0.2,0.2,0.3s0,0.3,0,0.4
	c-0.2,0.7-0.3,1.5-0.4,2.2c-0.1,0.6-0.2,1.1-0.3,1.7c0,0.2-0.1,0.4-0.3,0.5C16.1,23.2,15.9,23.3,15.7,23.3z M1.7,21.6h13.2
	c0.1-0.4,0.1-0.7,0.2-1.1c0.1-0.4,0.2-0.9,0.2-1.3H1.7V21.6z"/>
<path class="st0" d="M15.1,27.3H0.9c-0.2,0-0.4-0.1-0.6-0.3C0.1,26.9,0,26.7,0,26.4v-4c0-0.2,0.1-0.4,0.3-0.6
	c0.2-0.2,0.4-0.3,0.6-0.3h14.8c0.1,0,0.2,0,0.4,0.1c0.1,0.1,0.2,0.1,0.3,0.2c0.1,0.1,0.1,0.2,0.2,0.3c0,0.1,0,0.2,0,0.4l-0.1,0.7
	c-0.1,0.5-0.1,1-0.2,1.5c-0.1,0.5-0.2,1.2-0.2,1.8c0,0.2-0.1,0.4-0.3,0.6C15.6,27.2,15.4,27.3,15.1,27.3z M1.7,25.6h12.7l0.1-1.1
	c0.1-0.4,0.1-0.8,0.2-1.2h-13V25.6z"/>
<path class="st0" d="M47.1,23.3H32.1c-0.2,0-0.4-0.1-0.6-0.3c-0.2-0.2-0.3-0.4-0.3-0.6c0-0.2,0.1-0.4,0.3-0.6
	c0.2-0.2,0.4-0.3,0.6-0.3h14.2v-2.3H31.7c-0.2,0-0.4-0.1-0.6-0.3c-0.2-0.2-0.3-0.4-0.3-0.6c0-0.2,0.1-0.4,0.3-0.6
	c0.2-0.2,0.4-0.3,0.6-0.3h15.4c0.2,0,0.4,0.1,0.6,0.3c0.2,0.2,0.3,0.4,0.3,0.6v4c0,0.2-0.1,0.4-0.3,0.6
	C47.6,23.2,47.4,23.3,47.1,23.3z"/>
<path class="st0" d="M47.1,27.3H32.8c-0.2,0-0.4-0.1-0.6-0.3c-0.2-0.2-0.3-0.4-0.3-0.6c0-0.2,0.1-0.4,0.3-0.6
	c0.2-0.2,0.4-0.3,0.6-0.3h13.5v-2.3H32.1c-0.2,0-0.4-0.1-0.6-0.3c-0.2-0.2-0.3-0.4-0.3-0.6c0-0.2,0.1-0.4,0.3-0.6
	c0.2-0.2,0.4-0.3,0.6-0.3h15.1c0.2,0,0.4,0.1,0.6,0.3c0.2,0.2,0.3,0.4,0.3,0.6v4c0,0.2-0.1,0.4-0.3,0.6
	C47.6,27.2,47.4,27.3,47.1,27.3z"/>
<path class="st0" d="M16,26.5l-1.7-0.2c0.1-0.6,0.1-1.2,0.2-1.9c0.1-0.6,0.1-1.1,0.2-1.6l0.1-0.7c0.1-0.6,0.2-1.2,0.3-1.8
	c0.1-0.8,0.3-1.5,0.5-2.3l1.7,0.4c-0.2,0.7-0.3,1.5-0.4,2.2c-0.1,0.6-0.2,1.1-0.3,1.7l-0.1,0.6c-0.1,0.5-0.1,1-0.2,1.5
	C16.1,25.2,16.1,25.9,16,26.5z"/>
<path class="st0" d="M31.9,26.6c-0.1-0.6-0.3-1.3-0.3-1.8l-0.1-0.3c-0.1-0.7-0.2-1.3-0.3-2c-0.1-0.4-0.1-0.7-0.1-1.1
	c-0.1-1-0.2-2-0.2-3l1.7-0.1c0.1,0.9,0.1,1.9,0.2,2.9c0,0.4,0.1,0.7,0.1,1.1c0.1,0.6,0.2,1.3,0.3,1.9l0.1,0.3
	c0.1,0.5,0.2,1.2,0.3,1.8L31.9,26.6z"/>
<path class="st0" d="M24.1,39.3c-1.3,0-2.7-0.3-3.9-0.8c-1.2-0.5-2.4-1.3-3.3-2.3c-0.9-1-1.7-2.1-2.1-3.4c-0.5-1.3-0.7-2.6-0.6-3.9
	v-0.3c0-0.8,0.1-1.5,0.2-2.3c0-0.1,0-0.3,0.1-0.4l0.1-0.5c0-0.3,0.1-0.5,0.1-0.9v-0.1c0.1-0.5,0.1-1.1,0.2-1.6l0.1-0.7
	c0.1-0.6,0.2-1.2,0.3-1.8c0.1-0.6,0.2-0.9,0.3-1.4c0.1-0.4,0.1-0.6,0.2-0.9l1.7,0.4c-0.1,0.3-0.1,0.6-0.2,0.9
	c-0.1,0.4-0.2,0.9-0.3,1.3c-0.1,0.6-0.2,1.2-0.3,1.7l-0.1,0.6c-0.1,0.5-0.1,1-0.2,1.5v0.1c0,0.3-0.1,0.5-0.1,0.8L16,26
	c0,0.1,0,0.2,0,0.3c-0.1,0.8-0.1,1.5-0.2,2.2v0.3c0,0.8,0.1,1.7,0.3,2.5c0.5,1.8,1.5,3.3,2.9,4.4c1.4,1.1,3.2,1.7,5,1.7
	c0.7,0,1.4-0.1,2.1-0.3c1.1-0.3,2-0.8,2.9-1.4c0.9-0.7,1.6-1.5,2.1-2.4c0.5-0.9,0.9-2,1-3.1c0.1-1.1,0.1-2.2-0.2-3.2
	c0-0.1-0.1-0.3-0.1-0.4v-0.2c-0.1-0.6-0.3-1.4-0.3-1.9l-0.1-0.3c-0.1-0.7-0.2-1.3-0.3-2c-0.1-0.4-0.1-0.7-0.1-1.1
	c-0.1-1-0.2-2-0.2-3h1.6c0.1,0.9,0.1,1.9,0.2,2.9c0,0.4,0.1,0.7,0.1,1.1c0.1,0.6,0.2,1.3,0.3,1.9l0.1,0.3c0.1,0.5,0.2,1.2,0.3,1.8
	v0.2c0,0.1,0.1,0.2,0.1,0.4c0.4,1.5,0.5,3,0.2,4.5c-0.3,1.5-0.9,2.9-1.9,4.1c-0.9,1.2-2.1,2.2-3.5,2.9C27.1,39,25.6,39.3,24.1,39.3z
	"/>
<path class="st0" d="M24.1,35.3c-1,0-2.1-0.3-3-0.8c-0.9-0.5-1.7-1.3-2.2-2.3c-0.5-1-0.8-2-0.7-3.1v-0.3c0.1-1.4,0.2-2.6,0.4-3.8
	v-0.1c0.2-1.3,0.4-2.5,0.6-3.7c0.4-2.5,1-4.9,1.8-7.3c0.7-2.4,1.7-4.8,3-7c1.2-2.3,2.9-4.3,5-6c0.4-0.3,0.8-0.5,1.3-0.4
	c0.5,0,0.9,0.2,1.2,0.5c0.3,0.3,0.5,0.8,0.6,1.2c0,0.5-0.1,0.9-0.4,1.3c-1.1,1.7-1.9,3.6-2.3,5.5c-0.4,2-0.7,4.1-0.7,6.2
	c0,2.1,0.1,4.3,0.3,6.4c0.1,1,0.2,2.1,0.4,3.2c0.2,1.1,0.4,2.2,0.6,3c0.2,0.9,0.2,1.8,0.1,2.7c-0.2,0.9-0.6,1.7-1.1,2.5
	c-0.6,0.7-1.3,1.3-2.1,1.7C25.9,35.1,25,35.3,24.1,35.3L24.1,35.3z M29.9,2.2C29.9,2.2,29.9,2.2,29.9,2.2c-2,1.5-3.5,3.4-4.6,5.5
	c-1.2,2.1-2.1,4.4-2.8,6.7c-0.7,2.3-1.3,4.7-1.7,7.1c-0.2,1.2-0.4,2.3-0.6,3.6c-0.2,1.3-0.3,2.4-0.4,3.7v0.3c0,0.7,0.1,1.3,0.4,1.9
	c0.3,0.6,0.7,1.1,1.2,1.5c0.5,0.4,1.1,0.7,1.8,0.8c0.6,0.1,1.3,0.1,2,0c1.1-0.3,2-1,2.5-2c0.6-1,0.7-2.1,0.5-3.2
	c-0.2-0.9-0.4-2.1-0.6-3.1c-0.2-1-0.3-2.2-0.4-3.3c-0.3-2.2-0.4-4.4-0.3-6.6c0-2.2,0.2-4.4,0.7-6.6c0.5-2.2,1.3-4.3,2.6-6.1
	c0.1-0.1,0.1-0.2,0-0.2C30.1,2.3,30.1,2.3,29.9,2.2C30,2.2,30,2.2,29.9,2.2z"/>
<path class="st0" d="M37.6,41.5c0.8,0,1.5-0.7,1.5-1.5c0-0.8-0.7-1.5-1.5-1.5c-0.8,0-1.5,0.7-1.5,1.5C36.1,40.9,36.8,41.5,37.6,41.5
	z"/>
<path class="st0" d="M29.5,45.6c0.8,0,1.5-0.7,1.5-1.5c0-0.8-0.7-1.5-1.5-1.5c-0.8,0-1.5,0.7-1.5,1.5C28,44.9,28.7,45.6,29.5,45.6z"
	/>
<path class="st0" d="M38.6,34.5c0.8,0,1.5-0.7,1.5-1.5c0-0.8-0.7-1.5-1.5-1.5c-0.8,0-1.5,0.7-1.5,1.5C37.1,33.8,37.8,34.5,38.6,34.5
	z"/>
<path class="st0" d="M10.4,41.5c0.8,0,1.5-0.7,1.5-1.5c0-0.8-0.7-1.5-1.5-1.5c-0.8,0-1.5,0.7-1.5,1.5C8.9,40.9,9.6,41.5,10.4,41.5z"
	/>
<path class="st0" d="M18.5,45.6c0.8,0,1.5-0.7,1.5-1.5c0-0.8-0.7-1.5-1.5-1.5c-0.8,0-1.5,0.7-1.5,1.5C17,44.9,17.6,45.6,18.5,45.6z"
	/>
<path class="st0" d="M9.4,34.5c0.8,0,1.5-0.7,1.5-1.5c0-0.8-0.7-1.5-1.5-1.5c-0.8,0-1.5,0.7-1.5,1.5C7.9,33.8,8.6,34.5,9.4,34.5z"/>
<image style="display:none;overflow:visible;" width="361" height="333" xlink:href="../../../загрузки интернет/acne-skin-icon-set-contains-such-icons-as-skin-layer-surface-complexion-uv-dna-dermatology-more-expanded-stroke-acne-skin-icon-144257116-removebg-preview.png"  transform="matrix(0.1765 0 0 0.1765 -6.25 -13.37)">
</image>
<image style="overflow:visible;" width="361" height="333" xlink:href="../acne-skin-icon-set-contains-such-icons-as-skin-layer-surface-complexion-uv-dna-dermatology-more-expanded-stroke-acne-skin-icon-144257116.png"  transform="matrix(0.176 0 0 0.176 -6.25 -12.5303)">
</image>
</svg>
