<svg width="16" height="19" viewBox="0 0 16 19" fill="none" xmlns="http://www.w3.org/2000/svg">
<path d="M8.0174 12.0658C6.08943 12.0655 4.22423 12.7305 2.75538 13.9418C1.28654 15.153 0.309853 16.8316 0 18.6772H1.16026C1.46226 17.1322 2.3108 15.7379 3.55948 14.7348C4.80816 13.7317 6.37865 13.1828 8 13.1828C9.62135 13.1828 11.1918 13.7317 12.4405 14.7348C13.6892 15.7379 14.5377 17.1322 14.8397 18.6772H16C15.6911 16.8373 14.7195 15.1632 13.2579 13.9527C11.7963 12.7421 9.93939 12.0735 8.0174 12.0658Z" fill="#5A8FA8"/>
<path d="M8.0174 10.9405C9.24144 10.9401 10.4275 10.5282 11.3735 9.77482C12.3195 9.02143 12.9669 7.97321 13.2054 6.80876C13.4439 5.64431 13.2588 4.43568 12.6815 3.38878C12.1043 2.34189 11.1706 1.52151 10.0396 1.06743C8.90868 0.613351 7.65037 0.55366 6.47912 0.898529C5.30786 1.2434 4.29613 1.97149 3.6163 2.95875C2.93647 3.94601 2.6306 5.13136 2.75081 6.31282C2.87103 7.49429 3.40988 8.59878 4.27556 9.43811C5.26842 10.3999 6.61419 10.9402 8.0174 10.9405ZM8.0174 1.79697C8.83599 1.79586 9.6365 2.03035 10.3176 2.47075C10.9987 2.91115 11.5298 3.53767 11.8436 4.27097C12.1574 5.00427 12.2398 5.81139 12.0803 6.59015C11.9209 7.3689 11.5269 8.08426 10.948 8.64567C10.3692 9.20708 9.63165 9.58929 8.82874 9.74391C8.02583 9.89853 7.19367 9.81861 6.43762 9.51426C5.68157 9.20992 5.03562 8.69483 4.58155 8.03422C4.12749 7.37361 3.88573 6.59718 3.88687 5.80322C3.88994 4.74161 4.3261 3.72433 5.10006 2.97366C5.87402 2.22298 6.92286 1.79994 8.0174 1.79697Z" fill="#5A8FA8"/>
</svg>
