<svg width="332" height="75" viewBox="0 0 332 75" fill="none" xmlns="http://www.w3.org/2000/svg">
<path d="M18.4677 16.1232L11.1834 60H0.578454L7.86269 16.1232H18.4677ZM63.3726 16.1232L56.0884 60H47.0902L33.8715 34.6766H33.5715L29.351 60H18.746L26.0302 16.1232H35.1569L48.2685 41.4038H48.6327L52.789 16.1232H63.3726ZM92.4343 29.3634C92.5486 27.7494 92.1201 26.4997 91.1489 25.6141C90.1919 24.7286 88.678 24.2858 86.6069 24.2858C85.2358 24.2858 84.0646 24.4644 83.0934 24.8214C82.1221 25.1642 81.358 25.6498 80.801 26.2783C80.244 26.8925 79.894 27.6066 79.7512 28.4207C79.6227 29.0634 79.6584 29.6348 79.8583 30.1346C80.0583 30.6345 80.4082 31.0773 80.9081 31.463C81.4223 31.8486 82.0579 32.1842 82.8149 32.4699C83.5861 32.7555 84.4502 33.0055 85.4072 33.2197L89.0065 34.0767C91.0917 34.548 92.8985 35.1765 94.4268 35.962C95.9693 36.7333 97.2191 37.6688 98.176 38.7686C99.133 39.8541 99.79 41.1038 100.147 42.5178C100.504 43.9318 100.533 45.5172 100.233 47.274C99.7757 50.0449 98.6831 52.423 96.9548 54.4083C95.2409 56.3936 92.9985 57.9147 90.2276 58.9716C87.4711 60.0286 84.2646 60.557 80.6082 60.557C76.9518 60.557 73.8453 60.0071 71.2886 58.9074C68.7463 57.7933 66.9038 56.1151 65.7612 53.8727C64.6186 51.6303 64.3115 48.8023 64.8399 45.3887H74.9736C74.8165 46.8027 74.995 47.981 75.5092 48.9237C76.0377 49.8663 76.8518 50.5805 77.9516 51.0661C79.0513 51.5517 80.3796 51.7945 81.9365 51.7945C83.3647 51.7945 84.6145 51.6017 85.6857 51.2161C86.7712 50.8304 87.6353 50.2948 88.278 49.6093C88.935 48.9237 89.335 48.1381 89.4778 47.2526C89.6206 46.4385 89.4849 45.7315 89.0707 45.1316C88.6708 44.5317 87.9852 44.0104 87.014 43.5676C86.0571 43.1249 84.8002 42.7249 83.2433 42.3679L78.8514 41.2967C75.2235 40.4111 72.4741 38.9971 70.6031 37.0547C68.7463 35.1122 68.0893 32.477 68.632 29.1491C69.0891 26.4211 70.2174 24.0359 72.0171 21.9934C73.831 19.951 76.1234 18.3656 78.8942 17.2373C81.6794 16.0946 84.743 15.5233 88.0852 15.5233C91.4845 15.5233 94.3411 16.1018 96.6549 17.2587C98.983 18.4013 100.661 20.0153 101.69 22.1006C102.732 24.1716 103.032 26.5925 102.589 29.3634H92.4343ZM138.223 16.1232H148.807L144.115 44.4246C143.572 47.6954 142.322 50.5448 140.365 52.9729C138.423 55.3867 135.945 57.2577 132.931 58.586C129.918 59.9 126.561 60.557 122.862 60.557C119.148 60.557 116.013 59.9 113.457 58.586C110.9 57.2577 109.05 55.3867 107.908 52.9729C106.765 50.5448 106.458 47.6954 106.987 44.4246L111.678 16.1232H122.283L117.72 43.5034C117.477 45.0173 117.591 46.3671 118.063 47.5525C118.548 48.7237 119.334 49.6521 120.419 50.3377C121.505 51.009 122.833 51.3446 124.404 51.3446C125.99 51.3446 127.439 51.009 128.754 50.3377C130.068 49.6521 131.153 48.7237 132.01 47.5525C132.867 46.3671 133.417 45.0173 133.66 43.5034L138.223 16.1232ZM149.074 60L156.358 16.1232H166.963L161.136 51.3875H179.389L177.933 60H149.074ZM202.217 16.1232L194.932 60H184.327L191.612 16.1232H202.217ZM247.122 16.1232L239.837 60H230.839L217.62 34.6766H217.321L213.1 60H202.495L209.779 16.1232H218.906L232.018 41.4038H232.382L236.538 16.1232H247.122ZM247.411 60L254.695 16.1232H285.289L283.832 24.7357H263.843L262.386 33.7339H280.811L279.354 42.3679H260.929L259.472 51.3875H279.461L278.004 60H247.411ZM303.162 16.1232L308.86 29.9847H309.203L319.615 16.1232H331.891L315.052 38.0616L325.036 60H313.145L307.232 45.9886H306.889L296.349 60H283.987L301.276 38.0616L291.614 16.1232H303.162Z" fill="#5EAEBE"/>
<path d="M21.4677 14.1232L14.1834 58H3.57845L10.8627 14.1232H21.4677ZM65.4676 14.1232L58.1834 58H49.1852L35.9665 32.6766H35.6666L31.446 58H20.841L28.1252 14.1232H37.252L50.3636 39.4038H50.7278L54.8841 14.1232H65.4676ZM93.6244 27.3634C93.7387 25.7494 93.3102 24.4997 92.339 23.6141C91.382 22.7286 89.868 22.2858 87.797 22.2858C86.4259 22.2858 85.2547 22.4644 84.2835 22.8214C83.3122 23.1642 82.5481 23.6498 81.9911 24.2783C81.434 24.8925 81.0841 25.6066 80.9413 26.4207C80.8127 27.0634 80.8484 27.6348 81.0484 28.1346C81.2484 28.6345 81.5983 29.0773 82.0982 29.463C82.6124 29.8486 83.248 30.1842 84.0049 30.4699C84.7762 30.7555 85.6403 31.0055 86.5973 31.2197L90.1965 32.0767C92.2818 32.548 94.0886 33.1765 95.6169 33.962C97.1594 34.7333 98.4092 35.6688 99.3661 36.7686C100.323 37.8541 100.98 39.1038 101.337 40.5178C101.694 41.9318 101.723 43.5172 101.423 45.274C100.966 48.0449 99.8731 50.423 98.1449 52.4083C96.431 54.3936 94.1886 55.9147 91.4177 56.9716C88.6611 58.0286 85.4546 58.557 81.7982 58.557C78.1418 58.557 75.0353 58.0071 72.4787 56.9074C69.9364 55.7933 68.0939 54.1151 66.9513 51.8727C65.8086 49.6303 65.5016 46.8023 66.03 43.3887H76.1637C76.0066 44.8027 76.1851 45.981 76.6993 46.9237C77.2277 47.8663 78.0419 48.5805 79.1416 49.0661C80.2414 49.5517 81.5697 49.7945 83.1265 49.7945C84.5548 49.7945 85.8046 49.6017 86.8758 49.2161C87.9613 48.8304 88.8254 48.2948 89.4681 47.6093C90.1251 46.9237 90.525 46.1381 90.6679 45.2526C90.8107 44.4385 90.675 43.7315 90.2608 43.1316C89.8609 42.5317 89.1753 42.0104 88.2041 41.5676C87.2471 41.1249 85.9903 40.7249 84.4334 40.3679L80.0415 39.2967C76.4136 38.4111 73.6642 36.9971 71.7931 35.0547C69.9364 33.1122 69.2794 30.477 69.8221 27.1491C70.2792 24.4211 71.4075 22.0359 73.2071 19.9934C75.0211 17.951 77.3134 16.3656 80.0843 15.2373C82.8695 14.0946 85.9331 13.5233 89.2753 13.5233C92.6746 13.5233 95.5312 14.1018 97.845 15.2587C100.173 16.4013 101.851 18.0153 102.88 20.1006C103.922 22.1716 104.222 24.5925 103.779 27.3634H93.6244ZM138.508 14.1232H149.092L144.4 42.4246C143.857 45.6954 142.607 48.5448 140.651 50.9729C138.708 53.3867 136.23 55.2577 133.216 56.586C130.203 57.9 126.846 58.557 123.147 58.557C119.433 58.557 116.298 57.9 113.742 56.586C111.185 55.2577 109.335 53.3867 108.193 50.9729C107.05 48.5448 106.743 45.6954 107.272 42.4246L111.964 14.1232H122.569L118.005 41.5034C117.762 43.0173 117.877 44.3671 118.348 45.5525C118.834 46.7237 119.619 47.6521 120.705 48.3377C121.79 49.009 123.118 49.3446 124.69 49.3446C126.275 49.3446 127.725 49.009 129.039 48.3377C130.353 47.6521 131.438 46.7237 132.295 45.5525C133.152 44.3671 133.702 43.0173 133.945 41.5034L138.508 14.1232ZM148.454 58L155.739 14.1232H166.344L160.516 49.3875H178.77L177.313 58H148.454ZM200.692 14.1232L193.408 58H182.803L190.087 14.1232H200.692ZM244.692 14.1232L237.408 58H228.409L215.191 32.6766H214.891L210.67 58H200.065L207.349 14.1232H216.476L229.588 39.4038H229.952L234.108 14.1232H244.692ZM244.076 58L251.36 14.1232H281.954L280.497 22.7357H260.508L259.051 31.7339H277.476L276.019 40.3679H257.595L256.138 49.3875H276.127L274.67 58H244.076ZM298.922 14.1232L304.621 27.9847H304.964L315.376 14.1232H327.652L310.812 36.0616L320.796 58H308.906L302.993 43.9886H302.65L292.109 58H279.747L297.037 36.0616L287.374 14.1232H298.922Z" fill="#B7577E"/>
</svg>
