<svg data-name="layer" fill="#fff" xmlns="http://www.w3.org/2000/svg" viewBox="0 0 512 512"><path d="M0 272v-32c.77-6.25 1.42-12.53 2.32-18.76 8.06-55.8 31.59-104.08 71.09-144.31 38.33-39 84.54-63.5 138.5-73C221.22 2.3 230.63 1.29 240 0h32c8.72 1.14 17.49 2 26.14 3.46 48.08 8.22 90.62 28.31 127.06 60.73 44.54 39.64 72.4 88.87 82.87 147.7 1.66 9.31 2.64 18.73 3.93 28.11v32a28 28 0 0 0-.83 3.86c-3 39.85-14.53 77.14-35.45 111.13-40.67 66.07-99.2 106.74-175.64 121.1-9.28 1.74-18.71 2.63-28.08 3.92h-32c-6.25-.77-12.51-1.44-18.73-2.33-50.95-7.3-96-27.7-134.45-61.88C42.37 408.3 14.61 359.19 4 300.6c-1.73-9.46-2.69-19.06-4-28.6zm224.23 35.61c-2.07-1.6-3.65-2.79-5.19-4q-38.82-31-77.65-62.08c-9.69-7.72-21.69-6.64-28.84 2.34-7 8.8-5.41 20.62 4.1 28.26Q165 310.9 213.4 349.51c9.47 7.55 20.42 6.56 28.52-2.53Q320 259.27 398 171.46c8.05-9.07 7.58-21.11-.82-28.59s-20.67-6.52-28.84 2.66Q319.64 200.23 271 255z"/></svg>