<svg data-name="layer" xmlns="http://www.w3.org/2000/svg" viewBox="0 0 512 512"><path d="M240 0h32a27.73 27.73 0 0 0 3.82.83c44.05 3.43 84.7 17.08 121.26 41.84 60.58 41 97.85 97.62 111 169.76 1.72 9.44 2.62 19 3.9 28.56v31c-.74 6.09-1.39 12.2-2.25 18.27-7.14 50.81-27.31 95.79-61.24 134.27-39.57 44.88-88.94 72.86-147.93 83.49-9.46 1.7-19.05 2.66-28.59 4H240c-6.25-.77-12.51-1.43-18.74-2.32-46.86-6.68-89-24.45-125.74-54.4C46.12 415 15.4 363.43 4 300.61c-1.74-9.47-2.69-19.07-4-28.61v-32c.4-3.28.85-6.55 1.21-9.83C7.21 175 28.3 126.44 65.45 85.22 105 41.32 154 14 212.39 3.86 221.54 2.27 230.79 1.27 240 0zM22.44 267c4.19 64.34 29.08 118.33 76.14 161.51 41.18 37.78 90.15 57.66 146.43 60.94v-6.32c0-12.66-.08-25.33 0-38 .07-6.95 4.75-11.64 11.11-11.55 6.15.09 10.65 4.69 10.8 11.37.15 6.5 0 13 0 19.5v24.37c118.46-2.51 219.6-105 221.93-221.83-14.47 0-28.94.06-43.41 0-7.06 0-11.8-4.46-11.93-10.76-.13-6.51 4.71-11.12 12-11.19 10.33-.09 20.66 0 31 0h12.36C485.66 126.46 384.82 26.11 267 23.09v5.36c0 12.83.09 25.66 0 38.49-.07 6.91-4.84 11.6-11.2 11.46-6.15-.13-10.61-4.74-10.7-11.46-.13-9.83 0-19.66 0-29.49V23.09C128.74 26 26.5 124.86 23 245h5.36c12.83 0 25.66-.09 38.49 0 6.95.07 11.62 4.78 11.5 11.15-.11 6.18-4.67 10.64-11.4 10.76-8.16.15-16.33 0-24.49 0z"/><path d="M267 194.77c0 17.49-.12 35 .14 52.48a11.64 11.64 0 0 0 3 7.26q49.57 50.79 99.38 101.36a22.43 22.43 0 0 1 5 7.3c1.67 4.35-.75 9.52-4.89 12-4.59 2.73-9.47 2.22-13.67-1.94-7.93-7.85-15.68-15.89-23.5-23.85q-41-41.71-82-83.36a17.5 17.5 0 0 1-5.48-13.3c.15-36.65.07-73.31.09-110 0-7.34 3.43-12 9.26-12.79 7.23-1 12.65 3.94 12.69 11.84.03 17.68-.02 35.34-.02 53z"/></svg>