<svg width="117" height="48" viewBox="0 0 117 48" fill="none" xmlns="http://www.w3.org/2000/svg">
<path d="M13.9551 0.691406V8.1377H10.293V0.691406H13.9551ZM13.5156 40.5596V47.0781H9.87793V40.5596H13.5156ZM18.3984 32.8447C18.3984 31.8682 18.1787 30.9893 17.7393 30.208C17.2998 29.4268 16.5755 28.7106 15.5664 28.0596C14.5573 27.4085 13.2064 26.8063 11.5137 26.2529C9.46289 25.6182 7.6888 24.8451 6.19141 23.9336C4.71029 23.0221 3.56283 21.891 2.74902 20.54C1.9515 19.1891 1.55273 17.5534 1.55273 15.6328C1.55273 13.6309 1.98405 11.9056 2.84668 10.457C3.70931 9.00846 4.93001 7.89355 6.50879 7.1123C8.08757 6.33105 9.94303 5.94043 12.0752 5.94043C13.7354 5.94043 15.2165 6.19271 16.5186 6.69727C17.8206 7.18555 18.9193 7.91797 19.8145 8.89453C20.7259 9.87109 21.4176 11.0674 21.8896 12.4834C22.3779 13.8994 22.6221 15.5352 22.6221 17.3906H18.1299C18.1299 16.3001 17.9997 15.2992 17.7393 14.3877C17.4788 13.4762 17.0882 12.6868 16.5674 12.0195C16.0465 11.3359 15.4118 10.8151 14.6631 10.457C13.9144 10.0827 13.0518 9.89551 12.0752 9.89551C10.708 9.89551 9.57682 10.1315 8.68164 10.6035C7.80273 11.0755 7.15169 11.7428 6.72852 12.6055C6.30534 13.4518 6.09375 14.4365 6.09375 15.5596C6.09375 16.6012 6.30534 17.5127 6.72852 18.2939C7.15169 19.0752 7.86784 19.7832 8.87695 20.418C9.90234 21.0365 11.3102 21.6468 13.1006 22.249C15.2002 22.9163 16.9824 23.7057 18.4473 24.6172C19.9121 25.5124 21.027 26.6191 21.792 27.9375C22.557 29.2396 22.9395 30.859 22.9395 32.7959C22.9395 34.8955 22.4674 36.6696 21.5234 38.1182C20.5794 39.5505 19.2529 40.641 17.5439 41.3896C15.835 42.1383 13.833 42.5127 11.5381 42.5127C10.1546 42.5127 8.78743 42.3255 7.43652 41.9512C6.08561 41.5768 4.86491 40.9665 3.77441 40.1201C2.68392 39.2575 1.81315 38.1263 1.16211 36.7266C0.511068 35.3105 0.185547 33.5771 0.185547 31.5264H4.72656C4.72656 32.9098 4.92188 34.0573 5.3125 34.9688C5.7194 35.8639 6.25651 36.5801 6.92383 37.1172C7.59115 37.638 8.32357 38.0124 9.12109 38.2402C9.9349 38.4518 10.7406 38.5576 11.5381 38.5576C13.0029 38.5576 14.2399 38.3298 15.249 37.874C16.2744 37.402 17.0557 36.7347 17.5928 35.8721C18.1299 35.0094 18.3984 34.0003 18.3984 32.8447ZM48.0352 6.45312V42H39.8076V15.7305L31.7021 18.0986V11.8486L47.2783 6.45312H48.0352ZM66.0264 35.8965H66.5146C68.1423 35.8965 69.6071 35.7174 70.9092 35.3594C72.2113 35.0013 73.3262 34.4479 74.2539 33.6992C75.1816 32.9342 75.8896 31.9495 76.3779 30.7451C76.8825 29.5244 77.1348 28.0514 77.1348 26.3262V18.9775C77.1348 17.8382 77.0371 16.8535 76.8418 16.0234C76.6465 15.1771 76.3617 14.4772 75.9873 13.9238C75.613 13.3704 75.1654 12.9635 74.6445 12.7031C74.1237 12.4264 73.5378 12.2881 72.8867 12.2881C72.2357 12.2881 71.6579 12.4753 71.1533 12.8496C70.665 13.2077 70.2419 13.696 69.8838 14.3145C69.542 14.9167 69.2816 15.6003 69.1025 16.3652C68.9235 17.1139 68.834 17.8708 68.834 18.6357C68.834 19.4984 68.9235 20.304 69.1025 21.0527C69.2979 21.7852 69.5745 22.4281 69.9326 22.9814C70.307 23.5186 70.7708 23.9417 71.3242 24.251C71.8939 24.5602 72.5531 24.7148 73.3018 24.7148C74.0505 24.7148 74.6934 24.5846 75.2305 24.3242C75.7839 24.0475 76.2396 23.6895 76.5977 23.25C76.9557 22.7943 77.2161 22.306 77.3789 21.7852C77.5579 21.2643 77.6393 20.7516 77.623 20.2471L80.0156 22.127C80.0156 23.1686 79.7796 24.194 79.3076 25.2031C78.8356 26.2122 78.1846 27.1318 77.3545 27.9619C76.5244 28.7757 75.5641 29.4268 74.4736 29.915C73.3994 30.4033 72.2601 30.6475 71.0557 30.6475C69.4443 30.6475 67.9876 30.3626 66.6855 29.793C65.3997 29.2233 64.3011 28.4095 63.3896 27.3516C62.4782 26.2936 61.7783 25.0322 61.29 23.5674C60.818 22.0863 60.582 20.4424 60.582 18.6357C60.582 16.8942 60.8831 15.2585 61.4854 13.7285C62.0876 12.1986 62.9421 10.8558 64.0488 9.7002C65.1556 8.52832 66.4658 7.60872 67.9795 6.94141C69.4932 6.27409 71.1533 5.94043 72.96 5.94043C74.6689 5.94043 76.2721 6.26595 77.7695 6.91699C79.2669 7.55176 80.5853 8.48763 81.7246 9.72461C82.8639 10.9616 83.7591 12.4834 84.4102 14.29C85.0612 16.0967 85.3867 18.1637 85.3867 20.4912V23.3232C85.3867 25.846 85.0775 28.1247 84.459 30.1592C83.8405 32.1937 82.9616 33.984 81.8223 35.5303C80.6829 37.0602 79.332 38.346 77.7695 39.3877C76.2233 40.4131 74.5062 41.1862 72.6182 41.707C70.7464 42.2279 68.7607 42.4883 66.6611 42.4883H66.0264V35.8965ZM97.0303 35.8965H97.5186C99.1462 35.8965 100.611 35.7174 101.913 35.3594C103.215 35.0013 104.33 34.4479 105.258 33.6992C106.186 32.9342 106.894 31.9495 107.382 30.7451C107.886 29.5244 108.139 28.0514 108.139 26.3262V18.9775C108.139 17.8382 108.041 16.8535 107.846 16.0234C107.65 15.1771 107.366 14.4772 106.991 13.9238C106.617 13.3704 106.169 12.9635 105.648 12.7031C105.128 12.4264 104.542 12.2881 103.891 12.2881C103.24 12.2881 102.662 12.4753 102.157 12.8496C101.669 13.2077 101.246 13.696 100.888 14.3145C100.546 14.9167 100.285 15.6003 100.106 16.3652C99.9274 17.1139 99.8379 17.8708 99.8379 18.6357C99.8379 19.4984 99.9274 20.304 100.106 21.0527C100.302 21.7852 100.578 22.4281 100.937 22.9814C101.311 23.5186 101.775 23.9417 102.328 24.251C102.898 24.5602 103.557 24.7148 104.306 24.7148C105.054 24.7148 105.697 24.5846 106.234 24.3242C106.788 24.0475 107.243 23.6895 107.602 23.25C107.96 22.7943 108.22 22.306 108.383 21.7852C108.562 21.2643 108.643 20.7516 108.627 20.2471L111.02 22.127C111.02 23.1686 110.784 24.194 110.312 25.2031C109.84 26.2122 109.188 27.1318 108.358 27.9619C107.528 28.7757 106.568 29.4268 105.478 29.915C104.403 30.4033 103.264 30.6475 102.06 30.6475C100.448 30.6475 98.9915 30.3626 97.6895 29.793C96.4036 29.2233 95.305 28.4095 94.3936 27.3516C93.4821 26.2936 92.7822 25.0322 92.2939 23.5674C91.8219 22.0863 91.5859 20.4424 91.5859 18.6357C91.5859 16.8942 91.887 15.2585 92.4893 13.7285C93.0915 12.1986 93.946 10.8558 95.0527 9.7002C96.1595 8.52832 97.4697 7.60872 98.9834 6.94141C100.497 6.27409 102.157 5.94043 103.964 5.94043C105.673 5.94043 107.276 6.26595 108.773 6.91699C110.271 7.55176 111.589 8.48763 112.729 9.72461C113.868 10.9616 114.763 12.4834 115.414 14.29C116.065 16.0967 116.391 18.1637 116.391 20.4912V23.3232C116.391 25.846 116.081 28.1247 115.463 30.1592C114.844 32.1937 113.965 33.984 112.826 35.5303C111.687 37.0602 110.336 38.346 108.773 39.3877C107.227 40.4131 105.51 41.1862 103.622 41.707C101.75 42.2279 99.7646 42.4883 97.665 42.4883H97.0303V35.8965Z" fill="#E02712"/>
</svg>
