<svg width="36" height="36" viewBox="0 0 36 36" fill="none" xmlns="http://www.w3.org/2000/svg">
<g clip-path="url(#clip0_504_594)">
<circle cx="18" cy="18" r="18" fill="#0E972C"/>
<path d="M15.8686 8.26698C17.1623 7.9546 18.5188 7.92316 19.8313 8.137C20.6761 8.2746 21.4985 8.52566 22.2761 8.88336C22.9973 9.21692 23.6747 9.63799 24.293 10.1371C24.896 10.6135 25.4426 11.1572 25.9222 11.7577C26.405 12.3656 26.8094 13.0319 27.1256 13.741C27.4903 14.5646 27.7461 15.4321 27.8867 16.3218C27.9706 16.913 28.0209 17.5126 27.9916 18.1101C27.9475 19.1563 27.7526 20.2003 27.3814 21.1794C26.8216 22.6595 25.8991 24.0034 24.7082 25.0454C24.1006 25.5769 23.432 26.0344 22.7164 26.4081C21.7908 26.8905 20.7931 27.2197 19.7621 27.383C18.4769 27.5947 17.1497 27.5423 15.8812 27.2509C15.1132 27.0764 14.371 26.803 13.6734 26.4374C13.5937 26.3976 13.5162 26.3452 13.4239 26.3347C13.34 26.3242 13.2583 26.3473 13.1807 26.3745C11.5684 26.8882 9.95602 27.399 8.34368 27.9071C8.22836 27.9343 8.12353 28.0077 8.00192 27.9993C7.99617 27.9515 8.00341 27.903 8.02289 27.8589C8.5827 26.2194 9.12993 24.5736 9.69603 22.9321C9.73586 22.8377 9.7107 22.7329 9.65829 22.6511C9.23025 21.9284 8.90161 21.1513 8.68124 20.3408C8.40658 19.3303 8.28287 18.2736 8.33948 17.2275C8.44273 15.4657 9.02088 13.7647 10.0126 12.3049C10.8639 11.0679 11.9919 10.0197 13.3023 9.28379C14.1067 8.82795 14.9703 8.48576 15.8686 8.26698ZM17.3698 9.68213C16.9841 9.72196 16.5962 9.77228 16.2209 9.8792C15.1725 10.1538 14.1619 10.5983 13.2855 11.2377C12.7123 11.6569 12.1994 12.1528 11.7612 12.7116C11.3 13.2986 10.9226 13.9485 10.6207 14.6299C10.2628 15.4383 10.0498 16.3034 9.99166 17.1855C9.9299 18.1795 10.0471 19.1765 10.3376 20.129C10.5806 20.9176 10.9457 21.6632 11.4195 22.3388C11.4677 22.4079 11.5117 22.4855 11.5096 22.5736C11.5055 22.6742 11.4593 22.7664 11.43 22.8629C11.2643 23.3493 11.0987 23.8336 10.9352 24.32C10.8073 24.6827 10.6961 25.0495 10.562 25.4101C10.5494 25.4395 10.562 25.4688 10.5661 25.4982C10.6374 25.5171 10.7003 25.4688 10.7674 25.45C11.5264 25.2089 12.2854 24.972 13.0423 24.7225C13.1933 24.6764 13.3379 24.6156 13.4931 24.582C13.642 24.5506 13.7929 24.6051 13.9187 24.6827C14.7763 25.1942 15.7177 25.5716 16.701 25.7519C18.0995 26.0139 19.5567 25.863 20.8964 25.406C21.9772 25.0369 22.964 24.4358 23.7878 23.6449C24.5887 22.8776 25.2512 21.9572 25.6936 20.9383C26.2199 19.7223 26.4212 18.3764 26.3142 17.0577C26.1905 15.5461 25.6077 14.0848 24.6977 12.8751C23.8381 11.7367 22.6681 10.8436 21.3598 10.2796C20.4732 9.90632 19.5263 9.69678 18.5649 9.66116C18.1666 9.65068 17.7661 9.6402 17.3698 9.68213Z" fill="white"/>
<path d="M14.7364 12.9841C14.9377 12.9506 15.1348 13.0261 15.3361 13.0093C15.4346 13.003 15.5394 13.0072 15.6275 13.0554C15.7512 13.1183 15.833 13.2399 15.8812 13.3657C16.116 13.9779 16.3446 14.5922 16.5773 15.2064C16.6192 15.3322 16.6905 15.4559 16.68 15.5922C16.6737 15.7033 16.615 15.7997 16.5626 15.8941C16.4263 16.1268 16.2418 16.326 16.0531 16.5167C15.9651 16.6111 15.8623 16.695 15.8036 16.8124C15.7533 16.9172 15.8078 17.0304 15.8581 17.1226C16.1999 17.7474 16.6192 18.3323 17.1266 18.8313C17.5993 19.2995 18.1436 19.6894 18.739 19.9865C18.869 20.0536 19.0073 20.1039 19.131 20.1815C19.2191 20.2318 19.3197 20.2758 19.4246 20.2716C19.5171 20.2646 19.6038 20.2235 19.6678 20.1563C19.9634 19.8628 20.2339 19.5462 20.496 19.2233C20.5631 19.1458 20.6323 19.0598 20.7308 19.0242C20.8398 18.9885 20.951 19.0368 21.0516 19.0787C21.7225 19.3848 22.3641 19.7496 23.0141 20.0955C23.0979 20.1395 23.1839 20.1919 23.23 20.2779C23.2845 20.3785 23.2825 20.4959 23.2762 20.6049C23.2489 20.9697 23.1399 21.3324 22.9302 21.6343C22.7331 21.9195 22.4564 22.1438 22.1482 22.2989C21.8316 22.4583 21.4877 22.5568 21.1376 22.6113C20.8974 22.6484 20.6527 22.6434 20.4142 22.5966C20.2024 22.5568 19.9991 22.4813 19.7957 22.4163C19.0073 22.1585 18.2295 21.8503 17.5187 21.4205C16.9519 21.0741 16.4276 20.6625 15.9567 20.194C15.4136 19.6594 14.9419 19.0577 14.5058 18.4372C14.2476 18.0662 14.009 17.682 13.7908 17.2862C13.6342 17.012 13.5097 16.7208 13.4197 16.4182C13.3296 16.1163 13.2583 15.806 13.2436 15.4916C13.2331 14.8941 13.3987 14.2861 13.7447 13.7955C13.8932 13.5842 14.0679 13.3926 14.2647 13.2252C14.3968 13.1015 14.5582 13.0108 14.7364 12.9841Z" fill="white"/>
</g>
<defs>
<clipPath id="clip0_504_594">
<rect width="36" height="36" fill="white"/>
</clipPath>
</defs>
</svg>
