<svg width="36" height="36" viewBox="0 0 36 36" fill="none" xmlns="http://www.w3.org/2000/svg">
<g clip-path="url(#clip0_504_597)">
<circle cx="18" cy="18" r="18" fill="#FF0000"/>
<path d="M28.9559 12.4021C28.7147 11.4178 27.8703 10.5566 26.9053 10.3105C25.0959 9.81836 17.9791 9.81836 17.9791 9.81836C17.9791 9.81836 10.8622 9.81836 9.05285 10.3105C8.08786 10.5566 7.24347 11.4178 7.00222 12.4021C6.51972 15.601 6.27847 20.5224 7.00222 23.5983C7.24347 24.5825 8.08786 25.4438 9.05285 25.6899C10.8622 26.182 17.9791 26.182 17.9791 26.182C17.9791 26.182 25.0959 26.182 26.9053 25.6899C27.8703 25.4438 28.7147 24.5825 28.9559 23.5983C29.5591 20.3994 29.6797 15.478 28.9559 12.4021ZM15.6872 21.5067V14.4937L21.5979 18.0617L15.6872 21.5067Z" fill="white"/>
</g>
<defs>
<clipPath id="clip0_504_597">
<rect width="36" height="36" fill="white"/>
</clipPath>
</defs>
</svg>
