<svg width="18" height="18" viewBox="0 0 18 18" fill="none" xmlns="http://www.w3.org/2000/svg">
<path d="M17.0286 0.0761719H1.90455C1.38669 0.07649 0.966876 0.505769 0.96698 1.03526V16.4927C0.967291 17.022 1.38731 17.451 1.90538 17.4509H10.048V10.7318H7.84003V8.10182H10.048V6.16635C10.048 3.92186 11.3887 2.7002 13.3477 2.7002C14.286 2.7002 15.0923 2.77168 15.3273 2.8036V5.14947H13.9765C12.9107 5.14947 12.7043 5.66708 12.7043 6.4268V8.10182H15.2526L14.9206 10.7318H12.7043V17.4509H17.0286C17.5468 17.451 17.9669 17.0219 17.967 16.4923C17.967 16.4922 17.967 16.4921 17.967 16.4918V1.03441C17.9668 0.505132 17.5466 0.0760658 17.0286 0.0761719Z" fill="white"/>
</svg>
