<svg width="19" height="15" viewBox="0 0 19 15" fill="none" xmlns="http://www.w3.org/2000/svg">
<path d="M18.6077 1.79039C17.9517 2.07365 17.2527 2.2614 16.5239 2.35257C17.2736 1.91194 17.8459 1.21952 18.1149 0.384929C17.4159 0.79517 16.6441 1.08494 15.8216 1.24665C15.1579 0.550979 14.2119 0.120117 13.1799 0.120117C11.1777 0.120117 9.56574 1.71984 9.56574 3.68097C9.56574 3.96314 9.59 4.23447 9.64954 4.49277C6.64289 4.34842 3.98245 2.92994 2.19522 0.769123C1.8832 1.302 1.70017 1.91194 1.70017 2.56854C1.70017 3.80144 2.34516 4.89433 3.30658 5.52705C2.72554 5.5162 2.15553 5.35015 1.67261 5.08859C1.67261 5.09945 1.67261 5.11356 1.67261 5.12766C1.67261 6.85762 2.92621 8.29455 4.5701 8.62557C4.27572 8.70479 3.95488 8.74278 3.62191 8.74278C3.39038 8.74278 3.15664 8.72976 2.93723 8.682C3.40581 10.0918 4.73548 11.1283 6.31654 11.1619C5.08609 12.1094 3.52379 12.6802 1.83248 12.6802C1.53589 12.6802 1.25144 12.6672 0.96698 12.6314C2.56898 13.6483 4.46757 14.2289 6.515 14.2289C13.17 14.2289 16.8084 8.80247 16.8084 4.09881C16.8084 3.94144 16.8029 3.7895 16.7951 3.63864C17.5129 3.13724 18.116 2.51102 18.6077 1.79039Z" fill="white"/>
</svg>
