<svg id="Capa_1" data-name="Capa 1" xmlns="http://www.w3.org/2000/svg" viewBox="0 0 24.61 20">
    <defs>
        <style>
            .cls-1,.cls-2{fill:none;}.cls-1,.cls-3{clip-rule:evenodd;}.cls-3,.cls-4,.cls-9{fill:#55adee;}.cls-5{clip-path:url(#clip-path);}.cls-6{clip-path:url(#clip-path-2);}.cls-7{clip-path:url(#clip-path-3);}.cls-8{clip-path:url(#clip-path-4);}.cls-9{fill-rule:evenodd;}.cls-10{clip-path:url(#clip-path-5);}.cls-11{clip-path:url(#clip-path-6);}.cls-12{clip-path:url(#clip-path-7);}
        </style>
        <clipPath id="clip-path">
            <path class="cls-1"
                  d="M22-44.74a1.94,1.94,0,0,1,0,.41A9.43,9.43,0,0,1,21-39.92a9.06,9.06,0,0,1-3.21,3.59,9.17,9.17,0,0,1-5.17,1.49,9.3,9.3,0,0,1-5.11-1.49c.24,0,.5,0,.8,0a6.59,6.59,0,0,0,4.15-1.43,3.12,3.12,0,0,1-1.95-.65A3.37,3.37,0,0,1,9.31-40l.61,0a3.92,3.92,0,0,0,.89-.1A3.37,3.37,0,0,1,8.9-41.25a3.19,3.19,0,0,1-.76-2.1v-.06A3.18,3.18,0,0,0,9.63-43a3.78,3.78,0,0,1-1.08-1.2,3.26,3.26,0,0,1-.41-1.6,3.17,3.17,0,0,1,.48-1.67,9.14,9.14,0,0,0,3,2.48,9.2,9.2,0,0,0,3.82,1,4.87,4.87,0,0,1-.06-.76,3.29,3.29,0,0,1,.44-1.67,3.29,3.29,0,0,1,1.21-1.22A3.23,3.23,0,0,1,18.71-48a3.23,3.23,0,0,1,1.35.28,4,4,0,0,1,1.09.76,6.67,6.67,0,0,0,2.13-.79,3.32,3.32,0,0,1-1.46,1.84,6.79,6.79,0,0,0,1.9-.54A7.55,7.55,0,0,1,22-44.74Z"/>
        </clipPath>
        <clipPath id="clip-path-2">
            <path class="cls-2"
                  d="M76.19-56.75h82a15,15,0,0,1,15,15,15,15,0,0,1-15,15h-82a15,15,0,0,1-15-15A15,15,0,0,1,76.19-56.75Zm0,1a14,14,0,0,0-14,14,14,14,0,0,0,14,14h82a14,14,0,0,0,14-14,14,14,0,0,0-14-14Z"/>
        </clipPath>
        <clipPath id="clip-path-3">
            <path class="cls-1"
                  d="M157.08-38.72a.92.92,0,0,0-.39-.79,3.74,3.74,0,0,0-1.34-.49,6.56,6.56,0,0,1-1.53-.49,2.08,2.08,0,0,1-.83-.69,1.62,1.62,0,0,1-.27-.94,1.9,1.9,0,0,1,.77-1.54,3,3,0,0,1,2-.63,3.1,3.1,0,0,1,2,.65,2.08,2.08,0,0,1,.78,1.66H157a1.12,1.12,0,0,0-.44-.89,1.64,1.64,0,0,0-1.11-.38,1.73,1.73,0,0,0-1.08.3,1,1,0,0,0-.39.79.78.78,0,0,0,.36.69,4.72,4.72,0,0,0,1.31.44,7.09,7.09,0,0,1,1.54.51,2.26,2.26,0,0,1,.87.71,1.72,1.72,0,0,1,.28,1,1.86,1.86,0,0,1-.79,1.58,3.32,3.32,0,0,1-2.06.6,3.73,3.73,0,0,1-1.57-.31,2.52,2.52,0,0,1-1.07-.88,2.11,2.11,0,0,1-.39-1.22h1.27a1.3,1.3,0,0,0,.51,1,1.94,1.94,0,0,0,1.25.37,2.06,2.06,0,0,0,1.15-.29A.89.89,0,0,0,157.08-38.72Zm-8.81-4.53a1.71,1.71,0,0,0-1.29.56,2.72,2.72,0,0,0-.64,1.56H150v-.09a2.39,2.39,0,0,0-.52-1.5A1.58,1.58,0,0,0,148.27-43.25Zm.15,6.63a3.25,3.25,0,0,1-2.44-1,3.68,3.68,0,0,1-.95-2.65v-.23a4.41,4.41,0,0,1,.42-2,3.34,3.34,0,0,1,1.18-1.36,3,3,0,0,1,1.64-.49,2.77,2.77,0,0,1,2.24.95,4.14,4.14,0,0,1,.8,2.72v.53h-5a2.64,2.64,0,0,0,.64,1.77,2,2,0,0,0,1.55.67,2.24,2.24,0,0,0,1.14-.27,2.8,2.8,0,0,0,.81-.73l.77.6A3.09,3.09,0,0,1,148.42-36.62Zm-9.59-7.53,0,.93a2.69,2.69,0,0,1,2.21-1.07c1.57,0,2.35.88,2.37,2.65v4.89h-1.27v-4.9a1.67,1.67,0,0,0-.36-1.18,1.45,1.45,0,0,0-1.12-.38,1.88,1.88,0,0,0-1.08.32,2.3,2.3,0,0,0-.73.87v5.27h-1.26v-7.4Zm-4.59-2a.73.73,0,0,1,.19-.52.69.69,0,0,1,.55-.21.7.7,0,0,1,.56.21.73.73,0,0,1,.2.52.73.73,0,0,1-.2.51.7.7,0,0,1-.56.21.69.69,0,0,1-.55-.21A.72.72,0,0,1,134.24-46.11Zm1.37,9.36h-1.27v-7.4h1.27Zm-4.23-9.19v1.79h1.38v1h-1.38v4.58a1.05,1.05,0,0,0,.18.67.76.76,0,0,0,.63.22,2.74,2.74,0,0,0,.6-.08v1a3.7,3.7,0,0,1-1,.13,1.58,1.58,0,0,1-1.28-.51,2.19,2.19,0,0,1-.43-1.46v-4.58h-1.35v-1h1.35v-1.79Zm-6.23,2.69a1.69,1.69,0,0,0-1.28.56,2.66,2.66,0,0,0-.64,1.56h3.7v-.09a2.39,2.39,0,0,0-.52-1.5A1.6,1.6,0,0,0,125.15-43.25Zm.16,6.63a3.27,3.27,0,0,1-2.45-1,3.71,3.71,0,0,1-.94-2.65v-.23a4.41,4.41,0,0,1,.42-2,3.26,3.26,0,0,1,1.18-1.36,3,3,0,0,1,1.63-.49,2.79,2.79,0,0,1,2.25.95,4.14,4.14,0,0,1,.8,2.72v.53h-5a2.63,2.63,0,0,0,.63,1.77,2,2,0,0,0,1.56.67,2.2,2.2,0,0,0,1.13-.27,2.84,2.84,0,0,0,.82-.73l.77.6A3.09,3.09,0,0,1,125.31-36.62Zm-5.09-.13H119v-10.5h1.27Zm-8.42-3.62a3.19,3.19,0,0,0,.57,2,1.84,1.84,0,0,0,1.53.74,1.82,1.82,0,0,0,1.53-.75,3.47,3.47,0,0,0,.56-2.12,3.18,3.18,0,0,0-.57-2,1.84,1.84,0,0,0-1.54-.76,1.81,1.81,0,0,0-1.51.75A3.42,3.42,0,0,0,111.8-40.37Zm-1.27-.15a4.47,4.47,0,0,1,.42-2,3.3,3.3,0,0,1,1.19-1.34,3.29,3.29,0,0,1,1.74-.47,3.13,3.13,0,0,1,2.45,1,4,4,0,0,1,.93,2.78v.09a4.49,4.49,0,0,1-.41,1.94,3.08,3.08,0,0,1-1.19,1.33,3.25,3.25,0,0,1-1.76.48,3.12,3.12,0,0,1-2.44-1,4,4,0,0,1-.93-2.77Zm-6.87-1.94h2a2.15,2.15,0,0,0,1.38-.43,1.46,1.46,0,0,0,.51-1.17,1.4,1.4,0,0,0-.48-1.19,2.33,2.33,0,0,0-1.45-.38h-1.94Zm0,1.05v3.58h2.16a2.14,2.14,0,0,0,1.45-.47,1.69,1.69,0,0,0,.53-1.31c0-1.2-.65-1.8-2-1.8Zm-1.32,4.66v-10h3.26A3.79,3.79,0,0,1,108-46a2.41,2.41,0,0,1,.82,2,2,2,0,0,1-.4,1.23,2.53,2.53,0,0,1-1.08.83,2.31,2.31,0,0,1,1.28.86,2.47,2.47,0,0,1,.47,1.51,2.65,2.65,0,0,1-.87,2.1,3.61,3.61,0,0,1-2.46.77Z"/>
        </clipPath>
        <clipPath id="clip-path-4">
            <path class="cls-1"
                  d="M91.69-36.75a.52.52,0,0,0,.36-.14.52.52,0,0,0,.14-.36v-6.41l-4.1,3.28-.31.25a12,12,0,0,1-1.19.91,2.83,2.83,0,0,1-1.4.47,2.83,2.83,0,0,1-1.41-.47,9.25,9.25,0,0,1-1.19-.91l-.31-.25-4.09-3.28v6.41a.48.48,0,0,0,.14.36.49.49,0,0,0,.36.14Zm-13-10a.45.45,0,0,0-.36.14.45.45,0,0,0-.14.36V-45q1.09.93,4.72,3.81l.28.25a8,8,0,0,0,1,.75,1.9,1.9,0,0,0,1,.41,1.93,1.93,0,0,0,1-.41,11.61,11.61,0,0,0,1-.75l.31-.25Q91.1-44,92.19-45v-1.28a.49.49,0,0,0-.14-.36.48.48,0,0,0-.36-.14Zm13-1a1.45,1.45,0,0,1,1.06.43,1.48,1.48,0,0,1,.44,1.07v9a1.46,1.46,0,0,1-.44,1.06,1.46,1.46,0,0,1-1.06.44h-13a1.44,1.44,0,0,1-1.06-.44,1.42,1.42,0,0,1-.44-1.06v-9a1.44,1.44,0,0,1,.44-1.07,1.43,1.43,0,0,1,1.06-.43Z"/>
        </clipPath>
        <clipPath id="clip-path-5">
            <path class="cls-3"
                  d="M22.07,5a3,3,0,0,1,.05.63,14.31,14.31,0,0,1-1.69,6.68,13.77,13.77,0,0,1-4.85,5.43A13.86,13.86,0,0,1,7.74,20,14,14,0,0,1,0,17.74c.35,0,.75.05,1.2.05a10,10,0,0,0,6.3-2.16,4.7,4.7,0,0,1-3-1,5,5,0,0,1-1.75-2.48,7.23,7.23,0,0,0,.91.05,6.88,6.88,0,0,0,1.35-.14,5.1,5.1,0,0,1-2.89-1.78A4.84,4.84,0,0,1,1,7.12V7a4.68,4.68,0,0,0,2.26.67A5.73,5.73,0,0,1,1.63,5.87,4.93,4.93,0,0,1,1,3.44,4.86,4.86,0,0,1,1.73.91,13.94,13.94,0,0,0,6.32,4.66a13.87,13.87,0,0,0,5.8,1.54A6.38,6.38,0,0,1,12,5.05,5.07,5.07,0,0,1,14.52.67,4.86,4.86,0,0,1,17,0a4.75,4.75,0,0,1,2,.43,5.7,5.7,0,0,1,1.66,1.16A10.35,10.35,0,0,0,23.94.38a5,5,0,0,1-2.21,2.79,11.29,11.29,0,0,0,2.89-.81A11.42,11.42,0,0,1,22.07,5Z"/>
        </clipPath>
        <clipPath id="clip-path-6">
            <rect class="cls-4" x="-1429.74" y="-561.04" width="2085.07" height="18565.83"/>
        </clipPath>
        <clipPath id="clip-path-7">
            <path class="cls-1"
                  d="M123.4,11.2a.9.9,0,0,1,.66.27,1,1,0,0,1,.28.67.91.91,0,0,1-.28.66.9.9,0,0,1-.66.27.94.94,0,0,1-.67-.27.9.9,0,0,1-.27-.66.92.92,0,0,1,.94-.94Zm3.12,3.44V11.51a1.84,1.84,0,0,0-1.87-1.87H110.9a1.82,1.82,0,0,0-1.33.54,1.84,1.84,0,0,0-.55,1.33v3.13Zm-3.75,5V15.89h-10v3.75Zm-10-17.5V8.39h10V5.89h-2.5A1.26,1.26,0,0,1,119,4.64V2.14Zm7.5.5v2h2Zm4.38,5.75a3.12,3.12,0,0,1,3.12,3.12v3.75a.64.64,0,0,1-.17.45.61.61,0,0,1-.45.18H124v4.37a.64.64,0,0,1-.17.45.61.61,0,0,1-.45.18H112.15a.62.62,0,0,1-.63-.63V15.89H108.4a.62.62,0,0,1-.63-.63V11.51a3.12,3.12,0,0,1,3.13-3.12h.62V2.14a1.26,1.26,0,0,1,.35-.88,1.1,1.1,0,0,1,.82-.37h7.08a1.13,1.13,0,0,1,.85.35l3,3.05a1.13,1.13,0,0,1,.35.85V8.39Z"/>
        </clipPath>
    </defs>
    <title>Twitter2</title>
    <path class="cls-9"
          d="M22.07,5a3,3,0,0,1,.05.63,14.31,14.31,0,0,1-1.69,6.68,13.77,13.77,0,0,1-4.85,5.43A13.86,13.86,0,0,1,7.74,20,14,14,0,0,1,0,17.74c.35,0,.75.05,1.2.05a10,10,0,0,0,6.3-2.16,4.7,4.7,0,0,1-3-1,5,5,0,0,1-1.75-2.48,7.23,7.23,0,0,0,.91.05,6.88,6.88,0,0,0,1.35-.14,5.1,5.1,0,0,1-2.89-1.78A4.84,4.84,0,0,1,1,7.12V7a4.68,4.68,0,0,0,2.26.67A5.73,5.73,0,0,1,1.63,5.87,4.93,4.93,0,0,1,1,3.44,4.86,4.86,0,0,1,1.73.91,13.94,13.94,0,0,0,6.32,4.66a13.87,13.87,0,0,0,5.8,1.54A6.38,6.38,0,0,1,12,5.05,5.07,5.07,0,0,1,14.52.67,4.86,4.86,0,0,1,17,0a4.75,4.75,0,0,1,2,.43,5.7,5.7,0,0,1,1.66,1.16A10.35,10.35,0,0,0,23.94.38a5,5,0,0,1-2.21,2.79,11.29,11.29,0,0,0,2.89-.81A11.42,11.42,0,0,1,22.07,5Z"/>
    <g class="cls-10">
        <rect class="cls-4" x="-1429.74" y="-561.04" width="2085.07" height="18565.83"/>
        <g class="cls-11">
            <rect class="cls-4" x="-7.24" y="-5.43" width="39.1" height="34.48"/>
        </g>
    </g>
</svg>