<svg xmlns="http://www.w3.org/2000/svg" width="20" height="13" viewBox="0 0 20 13"><g><g><path fill="#fff" d="M19.831 6.898C19.653 7.148 15.414 13 10 13S.346 7.147.168 6.897a.688.688 0 0 1 0-.795C.346 5.853 4.586 0 10 0c5.414 0 9.653 5.853 9.831 6.102a.689.689 0 0 1 0 .796zM18.465 6.5C17.442 5.23 13.988 1.345 10 1.345c-3.997 0-7.444 3.882-8.465 5.154 1.023 1.27 4.477 5.156 8.465 5.156 3.997 0 7.444-3.883 8.465-5.155zM13.939 6.5c0 2.225-1.767 4.035-3.94 4.035-2.171 0-3.938-1.81-3.938-4.035 0-2.224 1.767-4.034 3.939-4.034s3.94 1.81 3.94 4.034zm-1.313 0c0-1.482-1.178-2.689-2.626-2.689S7.374 5.017 7.374 6.499c0 1.484 1.178 2.69 2.626 2.69s2.626-1.206 2.626-2.69z"/></g></g></svg>