<svg width="12" height="11" viewBox="0 0 12 11" fill="none" xmlns="http://www.w3.org/2000/svg">
<g clip-path="url(#clip0)">
<path fill-rule="evenodd" clip-rule="evenodd" d="M12 1.6383C12 0.733492 11.2478 0 10.32 0H1.68C0.75216 0 0 0.733492 0 1.6383V6.78723C0 7.69204 0.75216 8.42553 1.68 8.42553H6.96L10.32 10.883V8.42553C11.2478 8.42553 12 7.69204 12 6.78723V1.6383ZM3.12 5.38298H8.88V6.08511H3.12V5.38298ZM8.88 3.97872H3.12V4.68085H8.88V3.97872ZM3.12 2.57447H8.88V3.2766H3.12V2.57447Z" fill="#A4A4A4"/>
<path d="M6.96012 8.42561V8.30859H7.00013L7.03212 8.33199L6.96012 8.42561ZM10.3201 10.8831H10.4401V11.1171L10.2481 10.9767L10.3201 10.8831ZM10.3201 8.42561H10.2001V8.30859H10.3201V8.42561ZM8.88012 5.38306V5.26603H9.00012V5.38306H8.88012ZM3.12012 5.38306H3.00012V5.26603H3.12012V5.38306ZM8.88012 6.08518H9.00012V6.2022H8.88012V6.08518ZM3.12012 6.08518V6.2022H3.00012V6.08518H3.12012ZM3.12012 3.9788H3.00012V3.86178H3.12012V3.9788ZM8.88012 3.9788V3.86178H9.00012V3.9788H8.88012ZM3.12012 4.68093V4.79795H3.00012V4.68093H3.12012ZM8.88012 4.68093H9.00012V4.79795H8.88012V4.68093ZM8.88012 2.57455V2.45752H9.00012V2.57455H8.88012ZM3.12012 2.57455H3.00012V2.45752H3.12012V2.57455ZM8.88012 3.27667H9.00012V3.39369H8.88012V3.27667ZM3.12012 3.27667V3.39369H3.00012V3.27667H3.12012ZM10.3201 -0.116943C11.3142 -0.116943 12.1201 0.668939 12.1201 1.63838H11.8801C11.8801 0.798198 11.1817 0.117099 10.3201 0.117099V-0.116943ZM1.68012 -0.116943H10.3201V0.117099H1.68012V-0.116943ZM-0.119883 1.63838C-0.119883 0.668939 0.686013 -0.116943 1.68012 -0.116943V0.117099C0.818542 0.117099 0.120117 0.798198 0.120117 1.63838H-0.119883ZM-0.119883 6.78731V1.63838H0.120117V6.78731H-0.119883ZM1.68012 8.54263C0.686013 8.54263 -0.119883 7.75674 -0.119883 6.78731H0.120117C0.120117 7.6275 0.818542 8.30859 1.68012 8.30859V8.54263ZM6.96012 8.54263H1.68012V8.30859H6.96012V8.54263ZM10.2481 10.9767L6.88812 8.51923L7.03212 8.33199L10.3921 10.7894L10.2481 10.9767ZM10.4401 8.42561V10.8831H10.2001V8.42561H10.4401ZM12.1201 6.78731C12.1201 7.75674 11.3142 8.54263 10.3201 8.54263V8.30859C11.1817 8.30859 11.8801 7.6275 11.8801 6.78731H12.1201ZM12.1201 1.63838V6.78731H11.8801V1.63838H12.1201ZM8.88012 5.50008H3.12012V5.26603H8.88012V5.50008ZM8.76012 6.08518V5.38306H9.00012V6.08518H8.76012ZM3.12012 5.96816H8.88012V6.2022H3.12012V5.96816ZM3.24012 5.38306V6.08518H3.00012V5.38306H3.24012ZM3.12012 3.86178H8.88012V4.09582H3.12012V3.86178ZM3.00012 4.68093V3.9788H3.24012V4.68093H3.00012ZM8.88012 4.79795H3.12012V4.56391H8.88012V4.79795ZM9.00012 3.9788V4.68093H8.76012V3.9788H9.00012ZM8.88012 2.69157H3.12012V2.45752H8.88012V2.69157ZM8.76012 3.27667V2.57455H9.00012V3.27667H8.76012ZM3.12012 3.15965H8.88012V3.39369H3.12012V3.15965ZM3.24012 2.57455V3.27667H3.00012V2.57455H3.24012Z" fill="#A4A4A4"/>
</g>
<defs>
<clipPath id="clip0">
<rect width="12" height="11" fill="white" transform="matrix(-1 0 0 1 12 0)"/>
</clipPath>
</defs>
</svg>
