<?xml version="1.0" encoding="UTF-8" standalone="no"?>
<!-- Generator: Adobe Illustrator 22.0.1, SVG Export Plug-In . SVG Version: 6.00 Build 0)  -->

<svg
   xmlns:dc="http://purl.org/dc/elements/1.1/"
   xmlns:cc="http://creativecommons.org/ns#"
   xmlns:rdf="http://www.w3.org/1999/02/22-rdf-syntax-ns#"
   xmlns:svg="http://www.w3.org/2000/svg"
   xmlns="http://www.w3.org/2000/svg"
   xmlns:sodipodi="http://sodipodi.sourceforge.net/DTD/sodipodi-0.dtd"
   xmlns:inkscape="http://www.inkscape.org/namespaces/inkscape"
   version="1.1"
   id="Objects"
   x="0px"
   y="0px"
   viewBox="0 0 81.400002 81.400002"
   xml:space="preserve"
   sodipodi:docname="Instagram-logo.svg"
   width="81.400002"
   height="81.400002"
   inkscape:version="0.92.2 (5c3e80d, 2017-08-06)"><metadata
     id="metadata3808"><rdf:RDF><cc:Work
         rdf:about=""><dc:format>image/svg+xml</dc:format><dc:type
           rdf:resource="http://purl.org/dc/dcmitype/StillImage" /><dc:title></dc:title></cc:Work></rdf:RDF></metadata><defs
     id="defs3806" /><sodipodi:namedview
     pagecolor="#ff51ff"
     bordercolor="#666666"
     borderopacity="1"
     objecttolerance="10"
     gridtolerance="10"
     guidetolerance="10"
     inkscape:pageopacity="0"
     inkscape:pageshadow="2"
     inkscape:window-width="1920"
     inkscape:window-height="1017"
     id="namedview3804"
     showgrid="false"
     fit-margin-top="0"
     fit-margin-left="0"
     fit-margin-right="0"
     fit-margin-bottom="0"
     inkscape:zoom="0.834386"
     inkscape:cx="350.00311"
     inkscape:cy="134.19708"
     inkscape:window-x="-8"
     inkscape:window-y="-8"
     inkscape:window-maximized="1"
     inkscape:current-layer="Objects" /><style
     type="text/css"
     id="style3791">
	.st0{fill:#FFFFFF;}
	.st1{fill:#18171B;}
</style><circle
     class="st0"
     cx="40.700001"
     cy="40.700001"
     r="40.700001"
     id="circle3793"
     style="fill:#ffffff" /><g
     id="g3801"
     transform="translate(-346.09999,118.6)"><path
       class="st1"
       d="m 386.8,-96.3 c 6.3,0 7,0 9.5,0.1 2.3,0.1 3.5,0.5 4.4,0.8 1.1,0.4 1.9,0.9 2.7,1.8 0.8,0.8 1.3,1.6 1.8,2.7 0.3,0.8 0.7,2.1 0.8,4.4 0.1,2.5 0.1,3.2 0.1,9.5 0,6.3 0,7 -0.1,9.5 -0.1,2.3 -0.5,3.5 -0.8,4.4 -0.4,1.1 -0.9,1.9 -1.8,2.7 -0.8,0.8 -1.6,1.3 -2.7,1.8 -0.8,0.3 -2.1,0.7 -4.4,0.8 -2.5,0.1 -3.2,0.1 -9.5,0.1 -6.3,0 -7,0 -9.5,-0.1 -2.3,-0.1 -3.5,-0.5 -4.4,-0.8 -1.1,-0.4 -1.9,-0.9 -2.7,-1.8 -0.8,-0.8 -1.3,-1.6 -1.8,-2.7 -0.3,-0.8 -0.7,-2.1 -0.8,-4.4 -0.1,-2.5 -0.1,-3.2 -0.1,-9.5 0,-6.3 0,-7 0.1,-9.5 0.1,-2.3 0.5,-3.5 0.8,-4.4 0.4,-1.1 0.9,-1.9 1.8,-2.7 0.8,-0.8 1.6,-1.3 2.7,-1.8 0.8,-0.3 2.1,-0.7 4.4,-0.8 2.5,-0.1 3.3,-0.1 9.5,-0.1 m 0,-4.2 c -6.4,0 -7.2,0 -9.7,0.1 -2.5,0.1 -4.2,0.5 -5.7,1.1 -1.5,0.6 -2.9,1.4 -4.2,2.7 -1.3,1.3 -2.1,2.6 -2.7,4.2 -0.6,1.5 -1,3.2 -1.1,5.7 -0.1,2.5 -0.1,3.3 -0.1,9.7 0,6.4 0,7.2 0.1,9.7 0.1,2.5 0.5,4.2 1.1,5.7 0.6,1.5 1.4,2.9 2.7,4.2 1.3,1.3 2.6,2.1 4.2,2.7 1.5,0.6 3.2,1 5.7,1.1 2.5,0.1 3.3,0.1 9.7,0.1 6.4,0 7.2,0 9.7,-0.1 2.5,-0.1 4.2,-0.5 5.7,-1.1 1.5,-0.6 2.9,-1.4 4.2,-2.7 1.3,-1.3 2.1,-2.6 2.7,-4.2 0.6,-1.5 1,-3.2 1.1,-5.7 0.1,-2.5 0.1,-3.3 0.1,-9.7 0,-6.4 0,-7.2 -0.1,-9.7 -0.1,-2.5 -0.5,-4.2 -1.1,-5.7 -0.6,-1.5 -1.4,-2.9 -2.7,-4.2 -1.3,-1.3 -2.6,-2.1 -4.2,-2.7 -1.5,-0.6 -3.2,-1 -5.7,-1.1 -2.5,-0.1 -3.3,-0.1 -9.7,-0.1"
       id="path3795"
       inkscape:connector-curvature="0"
       style="fill:#18171b" /><path
       class="st1"
       d="m 386.8,-89.1 c -6.7,0 -12.1,5.4 -12.1,12.1 0,6.7 5.4,12.1 12.1,12.1 6.7,0 12.1,-5.4 12.1,-12.1 0,-6.7 -5.4,-12.1 -12.1,-12.1 m 0,19.9 c -4.3,0 -7.8,-3.5 -7.8,-7.8 0,-4.3 3.5,-7.8 7.8,-7.8 4.3,0 7.8,3.5 7.8,7.8 0,4.3 -3.4,7.8 -7.8,7.8"
       id="path3797"
       inkscape:connector-curvature="0"
       style="fill:#18171b" /><path
       class="st1"
       d="m 402.2,-89.6 c 0,1.6 -1.3,2.8 -2.8,2.8 -1.6,0 -2.8,-1.3 -2.8,-2.8 0,-1.6 1.3,-2.8 2.8,-2.8 1.6,0 2.8,1.3 2.8,2.8"
       id="path3799"
       inkscape:connector-curvature="0"
       style="fill:#18171b" /></g></svg>