<svg version="1.0" xmlns="http://www.w3.org/2000/svg" viewBox="0 0 223.3 34.5"><path d="M11.3 17.3l7.4-7.5c.2-.2.3-.5.3-.8 0-.2-.1-.4-.2-.6-.1-.1-.3-.3-.7-.3h-3.5c-.4 0-.7 0-.9.1-.2.1-.4.2-.5.4l-6.5 6.8c-.2.3-.4.5-.5.8v-14c0-.6-.2-1-.4-1.3C5.3.7 4.9.5 4.3.5h-2C1.7.5 1.2.7.9 1c-.3.2-.4.7-.4 1.3v23.2c0 .5.1 1 .4 1.3.3.3.7.5 1.3.5h2c.6 0 1.1-.1 1.4-.5.3-.3.4-.7.4-1.3v-7.2c.1.2.3.5.5.8l6.7 7.6c.2.2.4.4.6.4.2.1.4.1.7.1h3.7c.3 0 .5-.1.7-.3.2-.2.2-.4.2-.6 0-.3-.1-.5-.3-.7l-7.5-8.3zm18.5-9.7c-3.4 0-6 .9-7.9 2.7-1.9 1.8-2.8 4.3-2.8 7.4 0 3.1.9 5.6 2.8 7.4 1.9 1.8 4.5 2.7 7.9 2.7 3.4 0 6-.9 7.9-2.7 1.9-1.8 2.8-4.3 2.8-7.4 0-3.1-.9-5.6-2.8-7.4-1.9-1.8-4.6-2.7-7.9-2.7M33.6 22c-.9 1-2.2 1.5-3.9 1.5-1.7 0-3-.5-3.8-1.5-.9-1-1.3-2.4-1.3-4.3s.4-3.3 1.3-4.3 2.2-1.4 3.8-1.4c1.7 0 3 .5 3.9 1.4.9 1 1.3 2.4 1.3 4.3s-.4 3.3-1.3 4.3m-8-15.9h.8c.6 0 1.2-.2 1.6-.7.4-.4.6-1 .6-1.6v-.7c0-.6-.2-1.1-.6-1.6-.4-.4-.9-.6-1.5-.6h-.8c-.6 0-1.2.2-1.6.6-.4.4-.6.9-.6 1.6v.7c0 .6.2 1.2.6 1.6.3.5.9.7 1.5.7m7.5 0h.8c.6 0 1.2-.2 1.6-.7.3-.4.5-.9.5-1.5v-.8c0-.6-.2-1.1-.6-1.6-.4-.4-.9-.6-1.6-.6H33c-.6 0-1.1.2-1.5.7-.3.4-.5.9-.5 1.5v.7c0 .6.2 1.2.6 1.6.4.5.9.7 1.5.7M51 7.6c-1.6 0-3.3.2-5 .7-1.6.5-3 1.1-4 1.8l-.1.1v23c0 .5.1 1 .4 1.3.3.3.7.5 1.3.5h1.9c.6 0 1.1-.1 1.4-.4.3-.3.4-.7.4-1.3V26c1.4 1.2 3.3 1.8 5.6 1.8 2.9 0 5.2-.9 6.9-2.7 1.7-1.8 2.5-4.3 2.5-7.3C62.4 11 58.6 7.6 51 7.6m-3.6 4.8c.8-.4 2-.6 3.4-.6 2.1 0 3.6.4 4.6 1.3 1 .9 1.4 2.4 1.4 4.5 0 2-.4 3.5-1.3 4.5-.8 1-2.1 1.5-3.8 1.5-1.3 0-2.3-.4-3.2-1.1-.8-.7-1.3-1.6-1.3-2.8v-7.3zm23.2-6.3h.8c.6 0 1.2-.2 1.6-.7.4-.4.6-1 .6-1.6v-.7c0-.6-.2-1.1-.6-1.6-.4-.4-.9-.6-1.6-.6h-.8c-.6 0-1.2.2-1.6.6-.4.4-.6.9-.6 1.6v.7c0 .6.2 1.2.6 1.6.5.5 1 .7 1.6.7m7.5 0h.8c.6 0 1.2-.2 1.6-.7.4-.4.6-1 .6-1.6v-.7c0-.6-.2-1.1-.6-1.6-.4-.4-.9-.6-1.5-.6h-.8c-.6 0-1.1.2-1.5.7-.5.4-.7.9-.7 1.5v.7c0 .6.2 1.2.6 1.6.4.5.9.7 1.5.7m-3.3 1.5c-3.4 0-6 .9-7.9 2.7-1.9 1.8-2.8 4.3-2.8 7.4 0 3.1.9 5.6 2.8 7.4 1.9 1.8 4.5 2.7 7.9 2.7 3.4 0 6-.9 7.9-2.7 1.9-1.8 2.8-4.3 2.8-7.4 0-3.1-.9-5.6-2.8-7.4-1.9-1.8-4.5-2.7-7.9-2.7M78.7 22c-.9 1-2.2 1.5-3.9 1.5-1.7 0-3-.5-3.8-1.5-.9-1-1.3-2.4-1.3-4.3s.5-3.3 1.3-4.3c.9-1 2.2-1.4 3.8-1.4 1.7 0 3 .5 3.9 1.4.9 1 1.3 2.4 1.3 4.3s-.5 3.3-1.3 4.3m26.4-12.7c-1.3-1.2-3.1-1.7-5.2-1.7-3 0-5.4.8-7.1 2.4v-.7c0-.7-.5-1.1-1.2-1.1h-2.2c-.5 0-.9.1-1.1.4-.2.1-.3.4-.3.9v15.9c0 .6.1 1 .4 1.3.3.3.8.4 1.4.4h2c.6 0 1.1-.1 1.4-.5.3-.3.4-.7.4-1.3v-10c0-1 .4-1.9 1.4-2.5.9-.7 2.1-1 3.3-1 1.2 0 2 .2 2.5.7.5.5.7 1.3.7 2.4v10.6c0 .6.2 1 .4 1.3.3.3.8.4 1.4.4h2c.6 0 1.1-.2 1.3-.5.3-.3.4-.7.4-1.3V14.5c.1-2.3-.6-4-1.9-5.2m23.3-1.2h-3.2c-.4 0-.7.1-.9.2-.2.1-.4.4-.5.7L119 20.2 114.2 9c-.2-.3-.3-.6-.5-.7-.2-.1-.5-.2-.9-.2h-3.2c-.6 0-1 .3-1 .9 0 .2.1.4.2.7l7.6 16.3c-.4 1.1-.8 1.8-1.2 2.3-.4.4-.9.6-1.5.6-.5 0-1-.1-1.4-.2-.4-.1-.8-.4-1.1-.6-.6-.5-1.1-.4-1.4.2l-1.1 1.8c-.1.2-.2.4-.2.6 0 .3.1.5.4.8.6.5 1.4.9 2.2 1.2.8.3 1.8.4 2.8.4 1.3 0 2.5-.3 3.4-.8.9-.5 1.7-1.4 2.4-2.5s1.5-2.7 2.5-4.8l7.2-15.3c.1-.3.2-.5.2-.7-.3-.5-.6-.9-1.2-.9m10.4-.5c-3.3 0-5.9.9-7.7 2.7-1.8 1.8-2.7 4.4-2.7 7.7 0 2.2.5 4 1.5 5.5s2.3 2.6 4 3.3c1.6.7 3.5 1 5.5 1 1.6 0 3-.2 4.3-.5 1.2-.3 2.4-.8 3.5-1.5.3-.2.5-.5.5-.8 0-.2-.1-.4-.2-.6l-.9-1.6c-.2-.5-.6-.5-.7-.5-.2 0-.4.1-.6.2-1.5.9-3.3 1.3-5.2 1.3-2 0-3.6-.4-4.7-1.3-1-.8-1.5-1.8-1.6-3.3h13.7c1 0 1.6-.6 1.6-1.7 0-3.2-.9-5.7-2.6-7.4-1.9-1.7-4.4-2.5-7.7-2.5m4.9 8.1h-10.1c.1-1.3.5-2.3 1.3-3.1.9-.8 2.2-1.3 3.9-1.3 1.6 0 2.9.4 3.7 1.2.8.9 1.2 1.9 1.2 3.2m23.1-7.4c-1.6-.5-3.3-.7-5-.7-3.7 0-6.5.9-8.5 2.7-2 1.8-3 4.3-3 7.6 0 2.9.8 5.2 2.5 6.8 1.7 1.6 4 2.4 6.9 2.4 1.4 0 2.6-.2 3.6-.6.7-.3 1.4-.7 2-1.2-.1 1.4-.5 2.4-1.1 3-.7.7-1.9 1.1-3.5 1.1-2.2 0-4-.3-5.3-1-.2-.1-.4-.2-.5-.2-.3 0-.5.2-.8.6l-1.1 1.9c-.1.2-.2.5-.1.7.1.3.3.5.5.6.8.5 1.9.9 3.3 1.2 1.4.3 2.9.4 4.4.4 3.3 0 5.8-.9 7.3-2.8 1.6-1.8 2.3-4.3 2.3-7.5V10.1l-.1-.1c-.9-.7-2.2-1.3-3.8-1.7m-5.2 3.5c.8 0 1.6.1 2.3.2.6.1 1.1.2 1.5.4V19c0 1.2-.4 2.2-1.2 2.8-.8.7-1.9 1-3.2 1-1.7 0-3-.4-3.8-1.3-.8-.9-1.2-2.2-1.2-4-.1-3.8 1.8-5.7 5.6-5.7m38.2-2.5c-1.3-1.2-3.1-1.7-5.2-1.7-1.6 0-2.9.2-4.1.7-.9.3-1.7.8-2.5 1.4V1.9c0-.5-.1-.8-.3-1-.2-.2-.6-.3-1.1-.3H184c-.5 0-.9.1-1.1.4-.2.2-.3.6-.3 1v23.5c0 .6.1 1 .4 1.3.3.3.8.4 1.4.4h2c.6 0 1.1-.1 1.4-.5.3-.3.4-.7.4-1.3V15.3c0-.7.2-1.3.6-1.8.4-.5 1-1 1.8-1.3.7-.3 1.5-.5 2.3-.5 1.1 0 2 .2 2.5.7.5.5.8 1.3.8 2.4v10.6c0 .6.2 1 .4 1.3.3.3.8.4 1.4.4h2c.6 0 1.1-.2 1.3-.5.3-.3.4-.7.4-1.3V14.5c.1-2.3-.6-4-1.9-5.2m23.5-.7c-.3-.3-.8-.4-1.4-.4h-2c-.6 0-1.1.1-1.4.4-.3.3-.4.7-.4 1.3v10c0 1.1-.4 1.9-1.2 2.6-.8.7-1.9 1-3.1 1-1.2 0-2-.3-2.6-.8-.6-.5-.8-1.3-.8-2.4V9.9c0-.6-.1-1-.4-1.3-.3-.3-.8-.4-1.4-.4h-2c-.6 0-1.1.2-1.3.5-.3.3-.4.7-.4 1.3v10.6c0 2.4.7 4.2 2 5.4 1.3 1.2 3.1 1.8 5.3 1.8 2.8 0 5.1-.8 6.9-2.5l.1.9c0 .3.1.6.3.8.2.2.5.3.8.3h2.1c.5 0 .9-.1 1.1-.3.2-.2.3-.5.3-1.1v-16c-.1-.6-.3-1-.5-1.3m-42.4 15.3c0 2.1-1.7 3.8-3.8 3.8-2.1 0-3.8-1.7-3.8-3.8 0-2.1 1.7-3.8 3.8-3.8 2.1 0 3.8 1.7 3.8 3.8" fill="#212121"/></svg>