<?xml version="1.0" encoding="UTF-8" standalone="no"?>
<!-- Generator: Adobe Illustrator 22.0.1, SVG Export Plug-In . SVG Version: 6.00 Build 0)  -->

<svg
   xmlns:dc="http://purl.org/dc/elements/1.1/"
   xmlns:cc="http://creativecommons.org/ns#"
   xmlns:rdf="http://www.w3.org/1999/02/22-rdf-syntax-ns#"
   xmlns:svg="http://www.w3.org/2000/svg"
   xmlns="http://www.w3.org/2000/svg"
   xmlns:sodipodi="http://sodipodi.sourceforge.net/DTD/sodipodi-0.dtd"
   xmlns:inkscape="http://www.inkscape.org/namespaces/inkscape"
   version="1.1"
   id="Objects"
   x="0px"
   y="0px"
   viewBox="0 0 81.400002 81.400002"
   xml:space="preserve"
   sodipodi:docname="RSS-logo.svg"
   width="81.400002"
   height="81.400002"
   inkscape:version="0.92.2 (5c3e80d, 2017-08-06)"><metadata
     id="metadata3854"><rdf:RDF><cc:Work
         rdf:about=""><dc:format>image/svg+xml</dc:format><dc:type
           rdf:resource="http://purl.org/dc/dcmitype/StillImage" /><dc:title></dc:title></cc:Work></rdf:RDF></metadata><defs
     id="defs3852" /><sodipodi:namedview
     pagecolor="#ffffff"
     bordercolor="#666666"
     borderopacity="1"
     objecttolerance="10"
     gridtolerance="10"
     guidetolerance="10"
     inkscape:pageopacity="0"
     inkscape:pageshadow="2"
     inkscape:window-width="1920"
     inkscape:window-height="1017"
     id="namedview3850"
     showgrid="false"
     fit-margin-top="0"
     fit-margin-left="0"
     fit-margin-right="0"
     fit-margin-bottom="0"
     inkscape:zoom="1.06"
     inkscape:cx="-8.0962639"
     inkscape:cy="15.086792"
     inkscape:window-x="-8"
     inkscape:window-y="-8"
     inkscape:window-maximized="1"
     inkscape:current-layer="Objects" /><style
     type="text/css"
     id="style3837">
	.st0{fill:#FFFFFF;}
	.st1{fill:#18171B;}
</style><circle
     class="st0"
     cx="40.700001"
     cy="40.700001"
     r="40.700001"
     id="circle3839"
     style="fill:#ffffff" /><g
     id="g3847"
     transform="translate(-564.70003,118.2)"><path
       class="st1"
       d="m 587.1,-102.8 v 8.7 c 9.2,0 17.9,3.6 24.4,10.2 6.5,6.5 10.1,15.2 10.2,24.4 h 8.7 c -0.2,-23.9 -19.5,-43.2 -43.3,-43.3 z"
       id="path3841"
       inkscape:connector-curvature="0"
       style="fill:#18171b" /><path
       class="st1"
       d="m 592.9,-71.2 c -3.2,0 -5.9,2.6 -5.9,5.9 0,3.2 2.6,5.9 5.9,5.9 3.2,0 5.9,-2.6 5.9,-5.9 0,-3.3 -2.6,-5.9 -5.9,-5.9 z"
       id="path3843"
       inkscape:connector-curvature="0"
       style="fill:#18171b" /><path
       class="st1"
       d="m 587.1,-88 v 8.7 c 10.9,0.1 19.7,8.9 19.8,19.8 h 8.7 C 615.5,-75.2 602.8,-87.9 587.1,-88 Z"
       id="path3845"
       inkscape:connector-curvature="0"
       style="fill:#18171b" /></g></svg>