<?xml version="1.0" encoding="UTF-8" standalone="no"?>
<!-- Generator: Adobe Illustrator 22.0.1, SVG Export Plug-In . SVG Version: 6.00 Build 0)  -->

<svg
   xmlns:dc="http://purl.org/dc/elements/1.1/"
   xmlns:cc="http://creativecommons.org/ns#"
   xmlns:rdf="http://www.w3.org/1999/02/22-rdf-syntax-ns#"
   xmlns:svg="http://www.w3.org/2000/svg"
   xmlns="http://www.w3.org/2000/svg"
   xmlns:sodipodi="http://sodipodi.sourceforge.net/DTD/sodipodi-0.dtd"
   xmlns:inkscape="http://www.inkscape.org/namespaces/inkscape"
   version="1.1"
   id="Objects"
   x="0px"
   y="0px"
   viewBox="0 0 81.400002 81.400002"
   xml:space="preserve"
   sodipodi:docname="Twitter-logo.svg"
   width="81.400002"
   height="81.400002"
   inkscape:version="0.92.2 (5c3e80d, 2017-08-06)"><metadata
     id="metadata3880"><rdf:RDF><cc:Work
         rdf:about=""><dc:format>image/svg+xml</dc:format><dc:type
           rdf:resource="http://purl.org/dc/dcmitype/StillImage" /><dc:title></dc:title></cc:Work></rdf:RDF></metadata><defs
     id="defs3878" /><sodipodi:namedview
     pagecolor="#ffffff"
     bordercolor="#666666"
     borderopacity="1"
     objecttolerance="10"
     gridtolerance="10"
     guidetolerance="10"
     inkscape:pageopacity="0"
     inkscape:pageshadow="2"
     inkscape:window-width="1920"
     inkscape:window-height="1017"
     id="namedview3876"
     showgrid="false"
     fit-margin-top="0"
     fit-margin-left="0"
     fit-margin-right="0"
     fit-margin-bottom="0"
     inkscape:zoom="0.295"
     inkscape:cx="-3.6321831"
     inkscape:cy="-141.88475"
     inkscape:window-x="-8"
     inkscape:window-y="-8"
     inkscape:window-maximized="1"
     inkscape:current-layer="Objects" /><style
     type="text/css"
     id="style3869">
	.st0{fill:#FFFFFF;}
	.st1{fill:#18171B;}
</style><circle
     class="st0"
     cx="40.700001"
     cy="40.700001"
     r="40.700001"
     id="circle3871"
     style="fill:#ffffff" /><path
     class="st1"
     d="m 20.900017,56.999998 c 4.2,2.7 9.1,4.2 14.4,4.2 17.4,0 27.2,-14.7 26.7,-27.9 1.8,-1.3 3.4,-3 4.7,-4.9 -1.7,0.7 -3.5,1.3 -5.4,1.5 1.9,-1.2 3.4,-3 4.1,-5.2 -1.8,1.1 -3.8,1.9 -6,2.3 -1.7,-1.8 -4.1,-3 -6.8,-3 -6.1,0 -10.5,5.6 -9.1,11.5 -7.8,-0.4 -14.7,-4.1 -19.3,-9.8 -2.5,4.2 -1.3,9.7 2.9,12.5 -1.5,0 -3,-0.5 -4.2,-1.2 -0.1,4.3 3,8.4 7.5,9.3 -1.3,0.4 -2.8,0.4 -4.2,0.2 1.2,3.7 4.7,6.4 8.8,6.5 -4.1,3.2 -9.1,4.6 -14.1,4 z"
     id="path3873"
     inkscape:connector-curvature="0"
     style="fill:#18171b" /></svg>