<svg class="svg-use-v3 few" xmlns="http://www.w3.org/2000/svg" width="20" height="20" viewBox="0 0 500 499">
<style type="text/css">
	.svg-use-v3 path{fill:#915169;}
	.svg-use-v3 .two{fill:#915169;}
</style>
<path class="one" d="M50.9,33.9c0-8.3,0-15.9,0-23.5C50.9,3,53.9,0,61.1,0c18.5,0,37,0,55.5,0c7.6,0,10.4,2.9,10.4,10.7c0,7.5,0,15,0,22.8c62.1,0,124,0,186.5,0c0-7.5,0-15,0-22.4c0-8.4,2.8-11.1,11-11.1c18.2,0,36.3,0,54.5,0c7.9,0,10.8,3,10.8,10.9c0,7.5,0,14.9,0,23c2.5,0,4.6,0,6.7,0c11.5,0,23-0.1,34.5,0c6.3,0,9.4,3.2,9.7,9.6c0.1,1.5,0,3,0,4.5c0,79.7,0,159.3-0.1,239c0,3.7,0.9,5.9,4.4,7.8c39.2,22.3,61.1,68.3,53.6,112.4c-7.9,46.6-43.5,82.8-89.2,91c-26.3,4.7-50.9,0.2-74.3-12.7c-2.6-1.4-5.9-2.4-8.8-2.4c-104.5-0.1-209-0.1-313.5-0.1c-10.8,0-13-2.1-13-12.7C0,329,0,187.7,0,46.3c0-10.1,2.3-12.4,12.2-12.4C24.9,33.9,37.5,33.9,50.9,33.9zM309.9,465.8c-1.6-2-2.9-3.4-4.1-4.9c-8.2-9.8-14.8-20.5-19-32.6c-1.3-3.7-3.2-4.6-6.8-4.6c-71.5,0.1-143,0.1-214.5,0.1c-1.9,0-3.9,0-6.1,0c0-82.2,0-163.8,0-245.6c107.3,0,214.4,0,322,0c0,34,0,69.1,0,101.7c14.8-0.5,29.1,1.9,42.1,5.1c0-48.5,0-99.4,0-149c-135.6,0-270.9,0-406.3,0c0,110.1,0,219.9,0,329.8C114.8,465.8,212,465.8,309.9,465.8zM296.7,390c0.3,51.8,42,93.2,93.8,93c51.2-0.2,92.7-42.3,92.5-93.8c-0.2-51-42.4-92.8-93.3-92.5C338.1,297,296.5,338.8,296.7,390zM17.3,51.1c0,22.7,0,45,0,67.3c135.5,0,270.7,0,406.2,0c0-22.5,0-44.8,0-67.2c-11.3,0-22.3,0-33.6,0c0,7.6,0,15,0,22.3c0,8.5-2.9,11.3-11.5,11.3c-17.5,0-35,0-52.5,0c-10,0-12.2-2.3-12.2-12.4c0-7.1,0-14.2,0-21.2c-62.6,0-124.3,0-186.6,0c0,7.8,0,15.5,0,23.1c0,7.6-3,10.6-10.6,10.6c-18.3,0-36.7,0-55,0c-7.6,0-10.5-3-10.6-10.6c0-7.6,0-15.2,0-23C39.4,51.1,28.5,51.1,17.3,51.1zM76.6,271.4c0,19.8,0,39.3,0,58.9c19.8,0,39.2,0,58.7,0c0-19.8,0-39.4,0-58.9C115.5,271.4,96.1,271.4,76.6,271.4zM135.4,347.7c-19.9,0-39.3,0-58.8,0c0,19.8,0,39.4,0,58.9c19.8,0,39.2,0,58.8,0C135.4,386.9,135.4,367.5,135.4,347.7zM76.4,253.9c19.9,0,39.4,0,59,0c0-19.7,0-39.1,0-58.6c-19.8,0-39.3,0-59,0C76.4,215,76.4,234.2,76.4,253.9zM229.3,271.4c0,19.8,0,39.3,0,58.9c19.7,0,39.1,0,58.6,0c0-19.8,0-39.2,0-58.9C268.2,271.4,248.8,271.4,229.3,271.4zM153,271.4c0,19.8,0,39.3,0,58.9c19.8,0,39.2,0,58.6,0c0-19.8,0-39.2,0-58.9C192,271.4,172.6,271.4,153,271.4zM152.9,347.6c0,19.9,0,39.3,0,58.9c19.8,0,39.3,0,58.7,0c0-19.8,0-39.2,0-58.9C192,347.6,172.7,347.6,152.9,347.6zM211.7,195.4c-19.9,0-39.4,0-58.7,0c0,19.8,0,39.1,0,58.5c19.8,0,39.2,0,58.7,0C211.7,234.2,211.7,215,211.7,195.4zM229.2,195.1c0,19.9,0,39.2,0,58.8c19.6,0,39,0,58.6,0c0-19.7,0-39.2,0-58.8C268.1,195.1,248.9,195.1,229.2,195.1zM305.4,195.1c0,19.8,0,39.3,0,58.7c19.8,0,39.2,0,58.6,0c0-19.7,0-39.1,0-58.7C344.4,195.1,325.1,195.1,305.4,195.1zM288,347.8c-20.1,0-39.5,0-58.8,0c0,19.8,0,39.2,0,58.8c17.4,0,34.4,0,51.8,0C278.1,386.3,280.4,366.9,288,347.8zM68.1,17.1c0,17.1,0,33.7,0,50.5c14,0,27.7,0,41.6,0c0-16.9,0-33.7,0-50.5C95.8,17.1,82.2,17.1,68.1,17.1zM372.6,67.7c0-17,0-33.7,0-50.5c-14.1,0-27.8,0-41.7,0c0,16.9,0,33.6,0,50.5C344.9,67.7,358.5,67.7,372.6,67.7zM364.1,271.5c-20,0-39.4,0-58.7,0c0,15.9,0,31.4,0,47.8c16.2-18.9,35.8-30.6,58.7-36.6C364.1,278.6,364.1,275.2,364.1,271.5z"/>
<path class="two" d="M386.3,410.7c10.1-14.6,19.9-28.6,29.7-42.7c5.5-7.9,11-15.9,16.6-23.8c3.9-5.5,8.7-6.8,13.1-3.6c4.1,3.1,4.5,8,0.9,13.2c-16.8,24.2-33.6,48.4-50.5,72.6c-4.4,6.2-8.9,6.9-14.7,2.2c-12.8-10.4-25.5-20.9-38.2-31.4c-4.6-3.8-5.4-8.7-2.2-12.6c3.2-4,8.2-4.3,12.8-0.6C364.4,392.7,375,401.5,386.3,410.7z"/>
</svg>