<svg width="47" height="47" viewBox="0 0 47 47" fill="none" xmlns="http://www.w3.org/2000/svg">
<path d="M27.3617 3.25683e-05C26.1503 -0.00628647 24.8345 0.907115 24.511 2.57873C24.2473 0.0424767 21.0841 -0.147833 20.168 2.34927C19.5624 3.99885 20.5153 5.6696 22.041 5.6696C23.1055 5.61387 24.0242 4.90379 24.3475 3.88686C24.5509 3.33308 24.4046 3.33852 24.5103 3.8085C25.0079 6.04632 27.7885 6.33617 29.0896 4.15553C29.5801 6.38239 32.2136 6.78737 33.7541 4.90829C33.7823 7.44062 36.3438 8.57711 38.5674 7.22361C37.7068 9.93218 39.41 12.1583 41.8785 12.1583C45.8186 12.1583 48.5851 7.10763 45.9852 4.50402C44.5456 3.06279 42.2344 3.25712 40.5453 4.50566C41.3879 0.807009 36.9166 -0.710899 34.5686 2.50054C34.4286 -0.359209 30.9697 -0.823859 29.4832 1.76017C29.183 0.566262 28.3039 0.00496932 27.3617 3.25683e-05ZM27.3238 1.56059C28.0319 1.56059 28.1751 2.51852 27.8285 3.22504C27.5711 3.75062 26.9349 4.27534 26.42 4.02391C25.9052 3.77249 25.9241 2.96327 26.1854 2.42125C26.3835 1.95098 26.8178 1.62282 27.3238 1.56059H27.3238ZM32.176 1.62038C32.5788 1.61914 32.9188 1.87105 33.0024 2.42363C33.1909 3.6612 31.8483 4.91998 31.0127 4.43748C30.4728 3.94086 30.4006 3.11394 30.8461 2.53098C31.1823 1.94842 31.7195 1.6218 32.176 1.62038ZM22.4737 2.13383C22.9369 2.13383 23.0723 2.82081 22.879 3.34717C22.7225 3.76544 22.2884 4.21888 21.905 4.08024C21.6108 3.97215 21.4284 3.45364 21.6357 2.88968C21.7424 2.49478 22.0703 2.19905 22.4737 2.13383H22.4737ZM37.7843 2.311C39.2709 2.311 39.486 4.11802 38.4024 5.34463C37.6083 6.24226 36.3862 6.51091 35.7298 5.93207C34.5609 4.89501 35.9223 2.311 37.7843 2.311ZM43.5287 5.05847C44.0396 5.0715 44.5141 5.24322 44.8783 5.60764C46.3351 7.06531 44.71 10.2917 42.1883 10.5729C41.557 10.6965 40.9056 10.4972 40.4511 10.0414C39.9967 9.58565 39.7988 8.93317 39.9234 8.30134C40.1328 6.40738 41.9957 5.01922 43.5287 5.05847ZM25.2984 6.2658C21.907 6.25869 18.5597 7.29059 16.1842 9.90783C14.6995 11.6684 13.6801 13.7741 13.2197 16.0316L10.7293 13.5391C10.4223 13.2423 9.93438 13.2466 9.63259 13.5486C9.3308 13.8507 9.32644 14.3392 9.62292 14.6465L12.8026 17.8298C11.4436 24.1132 11.1244 25.0852 5.98411 29.5468C2.44616 32.6172 -1.21141 35.7894 0.385442 41.4157C1.52538 45.4417 4.08145 46.6261 6.0249 46.9105C9.50808 47.4204 13.8088 45.2876 15.7186 42.6808L19.794 46.7608C19.9904 46.9645 20.2815 47.0461 20.555 46.9745C20.8286 46.9028 21.0422 46.6889 21.1137 46.4151C21.1854 46.1412 21.1038 45.8501 20.9004 45.6534L16.5792 41.3275C21.5388 33.2895 20.2307 35.4144 20.4553 35.0432C22.2352 32.0926 24.253 28.7489 28.1649 27.7314C31.1585 26.932 33.8487 25.2632 35.8964 22.9354L40.1362 27.1791C40.3326 27.3828 40.6235 27.4644 40.897 27.3927C41.1705 27.3211 41.3841 27.1072 41.4557 26.8334C41.5273 26.5595 41.4459 26.2682 41.2424 26.0715L36.8963 21.7197C37.4401 21.0091 37.9156 20.2485 38.3163 19.4481C39.6096 16.4427 39.3334 13.4546 37.5535 11.2465C35.3056 8.50496 30.255 6.2759 25.2984 6.26578L25.2984 6.2658ZM25.1052 7.81196C28.2577 7.78826 31.5767 8.8029 34.2417 10.4515C37.6004 12.5264 38.2991 15.5271 36.8908 18.8028C36.565 19.4292 36.1893 20.0282 35.7673 20.5941L33.9678 18.7926H35.2126C35.4921 18.7799 35.7437 18.6191 35.8725 18.3704C36.0014 18.1218 35.9881 17.8233 35.8374 17.5872C35.6867 17.3512 35.4216 17.2134 35.1421 17.226C35.4706 15.2805 34.5503 13.3367 32.838 12.3597C31.1257 11.3826 28.9861 11.5805 27.4814 12.8549C25.9768 14.1293 25.4276 16.2089 26.1064 18.0613C26.7851 19.9137 28.5473 21.1445 30.5182 21.1425C31.3788 21.1425 31.3007 20.9772 31.3007 21.1425C31.3007 21.5751 31.6509 21.9257 32.083 21.9257C32.5151 21.9257 32.8655 21.5751 32.8655 21.1425V19.9002L34.7767 21.8138C32.9287 23.9435 30.4905 25.4755 27.7713 26.2157C23.2436 27.3906 20.9543 31.1857 19.1157 34.2326C17.698 36.5824 20.0545 32.6605 15.4384 40.1854L13.6297 38.3744H14.8704C15.3025 38.3744 15.6529 38.0238 15.6529 37.5912C15.6529 37.1586 15.3025 36.808 14.8704 36.808H13.2166C13.5751 35.0411 12.6804 33.2576 11.0506 32.4903C9.42086 31.7231 7.47822 32.1707 6.34752 33.5741C5.21682 34.9775 5.19104 36.973 6.28508 38.4052C7.37911 39.8375 9.30945 40.3353 10.9585 39.6105V40.7244C10.9585 41.157 11.3089 41.5076 11.741 41.5076C12.1731 41.5076 12.5233 41.157 12.5233 40.7244V39.4821L14.5959 41.557C12.4013 44.8969 4.02664 48.5282 1.89072 40.9876C0.56614 36.3232 3.55175 33.7313 7.00912 30.7306C12.0227 26.3787 12.8769 24.9343 14.1178 19.1467L16.8938 21.9257H15.6529C15.2208 21.9257 14.8704 22.2765 14.8704 22.7091C14.8704 23.1416 15.2208 23.4923 15.6529 23.4923H16.4352C16.4352 25.2226 17.8364 26.6254 19.5648 26.6254C21.2932 26.6254 22.6944 25.2226 22.6944 23.4923C22.6944 21.7619 21.2932 20.3591 19.5648 20.3591V19.5759C19.5648 19.1433 19.2146 18.7925 18.7825 18.7925C18.3504 18.7925 18 19.1433 18 19.5759V20.8182L14.5169 17.3309C15.0591 14.949 15.7327 12.7325 17.3421 10.9615C19.3294 8.77235 22.1438 7.83408 25.1052 7.81194L25.1052 7.81196ZM30.4756 13.3104C31.0198 13.3037 31.5693 13.4386 32.0664 13.7236C33.2902 14.4249 33.8931 15.8598 33.5382 17.226H32.083C31.6509 17.226 31.3007 17.5768 31.3007 18.0094V19.4662C29.936 19.8215 28.5026 19.2179 27.8021 17.9928C27.1015 16.7676 27.3073 15.2246 28.3044 14.2264C28.8964 13.6337 29.6803 13.3204 30.4756 13.3103L30.4756 13.3104ZM19.5648 21.9257C20.429 21.9257 21.1296 22.6271 21.1296 23.4923C21.1296 24.3575 20.429 25.0588 19.5648 25.0588C18.7006 25.0588 18 24.3575 18 23.4923H18.7825C19.2146 23.4923 19.5648 23.1417 19.5648 22.7091V21.9257ZM9.41102 33.6724C9.76172 33.6779 10.1157 33.7622 10.4462 33.9323C11.5039 34.4765 11.988 35.7268 11.5728 36.8425C11.2175 36.9162 10.9616 37.228 10.9585 37.5912V37.7549C10.0815 38.5591 8.74236 38.5796 7.84131 37.8025C6.94027 37.0254 6.7622 35.6964 7.42677 34.7091C7.88365 34.0302 8.63949 33.6604 9.41102 33.6723L9.41102 33.6724Z" fill="white"/>
</svg>
