<svg width="220" height="59" viewBox="0 0 220 59" fill="none" xmlns="http://www.w3.org/2000/svg">
<path d="M0.5 9.99999C0.5 4.75329 4.75329 0.5 10 0.5H210C215.247 0.5 219.5 4.75329 219.5 10V49.0002C219.5 54.2469 215.247 58.5002 210 58.5002H10C4.7533 58.5002 0.5 54.2469 0.5 49.0002V9.99999Z" fill="#EFF4F7" stroke="#C4C4C4"/>
<path d="M32.47 39.7277C32.8537 39.7281 33.2219 39.5767 33.4943 39.3066L33.4944 39.3064L36.6258 36.1754L36.6258 36.1753C36.8975 35.9024 37.05 35.533 37.05 35.1479C37.05 34.7655 36.8996 34.3986 36.6315 34.1262L36.6293 34.1217L36.6236 34.116L34.3701 31.8516L34.37 31.8515C34.0968 31.5785 33.7264 31.4251 33.3401 31.4251C32.9539 31.4251 32.5835 31.5785 32.3103 31.8515L29.99 34.1606L22.5178 26.6893L24.8293 24.3803L24.8293 24.3802C25.1017 24.1072 25.2546 23.7373 25.2546 23.3516C25.2546 22.966 25.1017 22.5961 24.8293 22.323L24.8293 22.323L22.5625 20.0542L22.5624 20.0541C22.2893 19.7811 21.9188 19.6277 21.5326 19.6277C21.1463 19.6277 20.7759 19.7811 20.5027 20.0541L20.5027 20.0541L17.3758 23.1807L17.3758 23.1807C17.2407 23.3158 17.1336 23.4762 17.0606 23.6527C16.9875 23.8292 16.9499 24.0184 16.95 24.2094C16.95 24.2094 16.95 24.2094 16.95 24.2094L16.95 24.5982H16.95L16.95 24.5999C16.9882 25.7562 17.5083 27.2268 18.4569 28.8632L18.4572 28.8637C19.6013 30.7783 20.9855 32.5387 22.5762 34.1022C24.134 35.6862 25.8869 37.0657 27.7929 38.2073L27.7935 38.2077C29.4235 39.1562 30.894 39.6783 32.0524 39.7277L32.0524 39.7277H32.0545H32.47ZM32.47 39.7277L32.4701 39.6777M32.47 39.7277H32.4701V39.6777M32.4701 39.6777H32.0545L36.5904 34.1557C36.8527 34.4193 37 34.776 37 35.1479C37 35.5198 36.8527 35.8765 36.5904 36.1401L33.459 39.2711C33.196 39.5319 32.8405 39.6781 32.4701 39.6777ZM36.1185 35.6634C36.1846 35.5965 36.2372 35.5175 36.2734 35.4307C36.3106 35.3414 36.3297 35.2457 36.3297 35.149C36.3297 35.0523 36.3106 34.9566 36.2734 34.8673C36.2362 34.778 36.1816 34.697 36.1129 34.629L36.1127 34.6288L33.8548 32.3644L33.8546 32.3642C33.7867 32.2953 33.7057 32.2405 33.6164 32.2032C33.5272 32.1658 33.4314 32.1466 33.3346 32.1466C33.2378 32.1466 33.142 32.1658 33.0527 32.2032C32.9635 32.2405 32.8825 32.2953 32.8146 32.3642L32.8144 32.3644L30.472 34.7088L30.4719 34.7088L30.0275 35.1532L29.9921 35.1886L29.9568 35.1532L29.5123 34.7088L29.5123 34.7088L21.9695 27.1713L21.9695 27.1713L21.525 26.7269L21.4896 26.6915L21.525 26.6561L21.9695 26.2117L21.9695 26.2117L24.3141 23.8651L24.3143 23.865C24.3829 23.7969 24.4375 23.7159 24.4747 23.6266C24.5119 23.5374 24.531 23.4416 24.531 23.345C24.531 23.2483 24.5119 23.1525 24.4747 23.0633C24.4375 22.974 24.3829 22.893 24.3143 22.8249L24.3141 22.8248L22.0539 20.5671L22.0538 20.5669C21.9857 20.4982 21.9047 20.4437 21.8154 20.4065C21.7261 20.3693 21.6304 20.3502 21.5337 20.3502C21.437 20.3502 21.3412 20.3693 21.252 20.4065C21.1627 20.4437 21.0817 20.4982 21.0136 20.5669L21.0134 20.5671L17.8844 23.6935C17.8844 23.6935 17.8844 23.6936 17.8844 23.6936C17.8092 23.7692 17.7512 23.8602 17.7144 23.9602C17.6923 24.0401 17.6841 24.1232 17.6899 24.2058L17.6902 24.2094H17.69V24.5774C17.7232 25.6072 18.2117 26.9626 19.0988 28.5017C20.2077 30.3604 21.5493 32.07 23.0911 33.589L23.0917 33.5896C24.6049 35.1296 26.3079 36.471 28.1596 37.5814C29.6897 38.4705 31.0476 38.9613 32.0778 39.0033H32.4679H32.4679C32.553 39.0035 32.6375 38.9887 32.7175 38.9596M36.1185 35.6634L32.7345 39.0066M36.1185 35.6634L36.1141 35.6657L36.1084 35.6714L32.9839 38.7911M36.1185 35.6634L32.9839 38.7911M32.7175 38.9596L32.7345 39.0066M32.7175 38.9596C32.7175 38.9596 32.7175 38.9597 32.7175 38.9597L32.7345 39.0066M32.7175 38.9596C32.8174 38.9233 32.9082 38.8659 32.9838 38.7912L32.9837 38.7913L33.019 38.8267M32.7345 39.0066C32.8412 38.9679 32.9383 38.9065 33.019 38.8267M33.019 38.8267L32.9839 38.7911M33.019 38.8267L32.9839 38.7911" fill="#5A8FA8" stroke="#483883" stroke-width="0.1"/>
</svg>
