<svg fill="none" xmlns="http://www.w3.org/2000/svg" width="100px" height="16px" viewBox="0 0 100 16"><path d="M8 0l2.35 4.76 5.26.77-3.8 3.7.9 5.24L8 12l-4.7 2.47.9-5.23L.4 5.53l5.25-.77L8 0zM29 0l2.35 4.76 5.26.77-3.8 3.7.9 5.24L29 12l-4.7 2.47.9-5.23-3.8-3.71 5.25-.77L29 0zM50 0l2.35 4.76 5.26.77-3.8 3.7.9 5.24L50 12l-4.7 2.47.9-5.23-3.8-3.71 5.25-.77L50 0zM71 0l2.35 4.76 5.26.77-3.8 3.7.9 5.24L71 12l-4.7 2.47.9-5.23-3.8-3.71 5.25-.77L71 0zM92 0l2.35 4.76 5.26.77-3.8 3.7.9 5.24L92 12l-4.7 2.47.9-5.23-3.8-3.71 5.25-.77L92 0z" fill="#F7C61B"/></svg>