<svg xmlns="http://www.w3.org/2000/svg" xmlns:xlink="http://www.w3.org/1999/xlink" width="26" height="30" viewBox="0 0 26 30"><defs><path id="9rcaa" d="M1031.12 6878.84a5.6 5.6 0 0 1-4.32-1.85l-2.05 6.57-.2.41a2.16 2.16 0 0 1-1.86 1.03 2.28 2.28 0 0 1-2.26-2.26v-.2l.2-.42 3.7-11.5s-.4-1.24-.4-3.09c0-3.49 1.85-4.52 3.49-4.52 1.44 0 2.88.62 2.88 2.67 0 2.68-1.85 4.11-1.85 6.17a2.72 2.72 0 0 0 2.67 2.67c4.72 0 6.57-3.7 6.57-6.99 0-4.52-3.9-8.21-8.63-8.21-4.72 0-8.63 3.7-8.63 8.21a8.5 8.5 0 0 0 1.03 3.9c.2.42.2.62.2 1.04 0 1.23-.82 2.05-2.05 2.05-.82 0-1.44-.41-1.85-1.03a12.55 12.55 0 0 1-1.64-6.16c0-6.78 5.75-12.33 12.74-12.33 6.98 0 12.74 5.55 12.74 12.33.2 5.75-3.08 11.5-10.48 11.5z"/></defs><g><g transform="translate(-1016 -6855)"><use xlink:href="#9rcaa"/></g></g></svg>