<svg xmlns="http://www.w3.org/2000/svg" xmlns:xlink="http://www.w3.org/1999/xlink" width="13" height="28" viewBox="0 0 13 28"><defs><path id="gs9ya" d="M728.12 6862.9h-4.55s.12-2.74 0-2.54c.12-1.3.84-1.55 1.95-1.27-.09-.28 2.53-.28 2.6 0-.07-.28 0-5.09 0-5.09h-4.55c-4.6 0-5.69 3.58-5.85 5.73.16.14 0 3.18 0 3.18h-2.6v5.73s2.76-.63 2.6 0c.16 5.72.16 13.36 0 13.36h5.85c.12 0 .12-7.72 0-13.36.12-.63 3.9 0 3.9 0l.65-5.73z"/></defs><g><g transform="translate(-715 -6854)"><use xlink:href="#gs9ya"/></g></g></svg>