<svg id="layer_01" fill="#dc4e41" xmlns="http://www.w3.org/2000/svg" viewBox="0 0 669 667.72">
    <path d="M0,344.72q0-10.5,0-21c.37-2.11.86-4.2,1.1-6.32,1.72-14.85,2.52-29.86,5.24-44.52C20.11,198.44,55.5,135.79,111.76,85.33,165.68,37,229,9.25,301.2,1.8a323.12,323.12,0,0,1,97.85,4.49c78.79,16,144,55,194.89,117.35,46.91,57.47,71.19,123.78,74.58,197.73a315,315,0,0,1-5.69,74.49C647.8,473.43,610.18,538,550,588.95c-54.6,46.22-117.88,72.06-189.32,77.63a327.59,327.59,0,0,1-102.58-7.66c-72.31-17.36-132.61-54.5-180.22-111.57q-65.94-79-75.68-181.89C1.52,358.54.72,351.63,0,344.72Zm331.92,32.92c-3.77,12.73-9.22,23.17-17.3,31.89-20,21.59-45.22,28.93-73.56,23.67-43.24-8-71.45-42.51-71.46-85.54,0-25.65,10.87-47.43,30.32-64.37,18.36-16,39.67-23.3,64.13-19.76,15.41,2.23,29.3,8.64,42.64,16.32,2.74,1.58,5,2.95,7.84-.11,10.16-10.78,20.51-21.38,30.88-32,2.07-2.12,1.77-3.71-.39-5.31-3.2-2.37-6.36-4.81-9.66-7-26.6-17.93-55.5-26.86-88-25.27-43.12,2.12-77.18,20.66-103.5,54-20,25.37-29.4,54.44-28.26,86.91,1.92,54.67,27.1,95.43,74.91,121,34.9,18.65,72.44,20.34,110,8.19,39.52-12.78,65.91-39.37,79.16-78.88,7.27-21.68,8.11-44,7.75-66.62-.08-4.93-1.31-6.54-6.46-6.51-40.66.2-81.32.1-122,.11-1.61,0-3.22.18-5.07.3-.12,1.83-.3,3.28-.3,4.74,0,12.83.16,25.67-.11,38.49-.09,4.37,1.57,5.21,5.51,5.22,17.32,0,34.64.34,52,.5C317.65,377.7,324.29,377.64,331.92,377.64Zm99.67-8.05c11.68,0,23,.06,34.24,0,3.51,0,5,1,4.92,4.89-.24,9.82.09,19.65-.11,29.47-.08,3.88,1.1,5.3,5.12,5.2,10.32-.24,20.65-.27,31,0,4.32.12,5.42-1.58,5.37-5.53-.11-9.65.29-19.32.07-29-.09-4.08,1.43-5.23,5.21-5.1,5.65.2,11.32.14,17,0s11.14-.47,17-.73c0-12.28-.18-23.92.09-35.55.1-4.15-1.48-5-5.22-5-9.65.2-19.32-.13-29,.14-4.07.11-5.13-1.34-5.08-5.18.14-10-.15-20-.12-30,0-3.31-1.07-4.82-4.63-4.77q-16,.23-32,0c-3.8-.06-4.85,1.52-4.79,5.08.14,9.65-.23,19.32.08,29,.15,4.6-1.22,6-5.88,5.9-11-.33-21.92-.11-33.3-.11Z"/>
</svg>