<svg id="layer_01" fill="#a1a1a1" xmlns="http://www.w3.org/2000/svg" viewBox="0 0 108.46 103.32">
    <path d="M108.46,40q0-2.41-3.65-3L72.09,32.21,57.42,2.55Q56.19-.12,54.23-.12T51,2.55L36.37,32.21,3.65,37Q0,37.55,0,40a5,5,0,0,0,1.63,3.13L25.36,66.16,19.75,98.75a10.72,10.72,0,0,0-.13,1.3,3.83,3.83,0,0,0,.68,2.31,2.35,2.35,0,0,0,2.05.95,5.53,5.53,0,0,0,2.61-.78L54.23,87.15l29.26,15.38a5.3,5.3,0,0,0,2.61.78q2.68,0,2.67-3.26a9.93,9.93,0,0,0-.07-1.3L83.1,66.17l23.66-23.07a4.73,4.73,0,0,0,1.7-3.13ZM74.1,63.23l4.7,27.44-24.57-13-24.64,13,4.76-27.44L14.4,43.87l27.51-4,12.32-24.9,12.32,24.9,27.51,4Zm0,0"/>
</svg>