<?xml version="1.0" encoding="utf-8"?>
<!-- Generator: Adobe Illustrator 16.0.0, SVG Export Plug-In . SVG Version: 6.00 Build 0)  -->
<!DOCTYPE svg PUBLIC "-//W3C//DTD SVG 1.1//EN" "http://www.w3.org/Graphics/SVG/1.1/DTD/svg11.dtd">
<svg version="1.1" id="Capa_1" xmlns="http://www.w3.org/2000/svg" xmlns:xlink="http://www.w3.org/1999/xlink" x="0px" y="0px"
	 width="148.013px" height="58.89px" viewBox="222.14 391.708 148.013 58.89" enable-background="new 222.14 391.708 148.013 58.89"
	 xml:space="preserve">
<rect x="747.179" y="301.889" fill="#4273B5" width="237.702" height="237.702"/>
<path fill="#4273B5" d="M-85.392,455.841h-52.138c-4.927,0-9.032-4.105-9.032-9.032v-51.728c0-4.926,4.105-9.032,9.032-9.032h52.138
	c4.927,0,9.032,4.105,9.032,9.032v52.139C-76.36,451.735-80.466,455.841-85.392,455.841z"/>
<g>
	<path fill="#FFFFFF" d="M-83.34,404.113h-5.337v-5.337c0-1.231-0.82-2.053-2.053-2.053h-2.463c-1.231,0-2.053,0.822-2.053,2.053
		v5.337h-5.337c-1.231,0-2.053,0.821-2.053,2.053v2.463c0,1.231,0.821,2.053,2.053,2.053h5.337v5.337
		c0,1.231,0.821,2.053,2.053,2.053h2.463c1.232,0,2.053-0.821,2.053-2.053v-5.337h5.337c1.232,0,2.053-0.821,2.053-2.053v-2.463
		C-81.697,404.935-82.518,404.113-83.34,404.113z"/>
	<path fill="#FFFFFF" d="M-103.456,434.493c0-2.464-2.053-2.874-4.105-2.874h-1.642c-2.053,0-3.695,0.821-4.105,2.463
		c0,0.411,0,0.411,0,0.411v0.41c0,1.231-0.411,3.695-2.874,3.695c-3.284,0-4.105-2.053-4.105-8.211s0.411-9.442,3.695-9.442
		c2.873,0,3.284,1.642,3.284,2.873v1.232c0,2.463,2.053,2.873,4.105,2.873h1.642c2.464,0,4.105-0.82,4.105-2.873
		c0,0,0-4.105,0-4.517c0-5.337-4.105-9.031-11.084-9.853c0,0,3.284-3.695,6.568-6.568c3.284-2.874,2.463-4.105,1.231-6.158
		s-3.694-2.053-6.158,0.41c-2.874,2.464-7.8,6.979-10.674,12.316c0,0,0.41-5.337,4.927-11.905c0,0,2.053-3.695-1.231-5.337
		c-2.053-1.231-3.695-0.821-4.927,1.231c-1.231,2.053-5.337,8.622-5.748,13.548l-1.231-6.979c-0.41-1.643-2.053-3.284-4.516-2.874
		c-2.053,0.411-3.284,2.464-2.874,4.517c0.411,2.463,5.337,32.432,10.674,40.232c2.053,2.874,3.284,6.568,12.727,6.568
		c3.695,0,11.085-0.41,12.728-10.674c0-0.821,0.41-2.874,0.41-2.874C-103.456,435.313-103.456,435.313-103.456,434.493
		C-103.456,434.903-103.456,434.493-103.456,434.493z"/>
</g>
<g>
	<path fill="#4172B5" d="M335.533,422.444h6.789c1.118,0,2.076-0.958,2.076-2.076v-0.799c0-1.118-0.958-2.077-2.076-2.077h-6.789
		c-6.552,0-7.351,5.432-7.351,7.667l0,0l0,0c0,1.438,0,3.516,0,4.314l0,0l0,0c0,2.235,0.799,7.668,7.351,7.668h6.789
		c1.118,0,2.076-0.958,2.076-2.077v-0.799c0-1.118-0.958-2.077-2.076-2.077h-6.789c-0.48,0-1.759,0-1.759-2.396h6.07
		c1.118,0,2.078-0.958,2.078-2.076v-0.799c0-1.117-0.96-2.076-2.078-2.076h-6.07C333.696,422.444,335.053,422.444,335.533,422.444z"
		/>
	<path fill="#4172B5" d="M292.399,431.311c-1.517,0-3.674,0-3.674-1.757s2.077-1.757,3.674-1.757V431.311z M297.351,417.013
		c0-1.118-0.958-2.077-2.077-2.077h-0.798c-1.118,0-2.077,0.958-2.077,2.077v5.431c0,0-8.067-0.878-8.067,6.949
		c0,3.675,1.677,7.828,6.55,7.828c1.517,0,4.233,0,4.233,0c1.278,0,2.317-1.037,2.317-2.315L297.351,417.013z"/>
	<path fill="#4172B5" d="M313.246,426.599c0-0.56-0.078-2.156-0.319-4.073c-0.319-2.556-2.075-5.033-6.391-5.033
		c-4.312,0-5.191,2.636-5.99,4.233c-0.799,1.678-0.719,5.832-0.719,5.832s0,5.111,0,5.191c0,0.639,0.399,1.198,0.879,1.598
		c0.319,0.239,0.72,0.319,1.198,0.319h0.798c0.399,0,0.721-0.08,1.04-0.24c0.638-0.318,1.117-0.958,1.117-1.757v-0.479h3.515v2.876
		c0,1.119,0.959,2.077,2.077,2.077h0.8c1.117,0,2.075-0.958,2.075-2.077C313.246,435.065,313.246,426.599,313.246,426.599z
		 M304.86,427.317c0-2.875,0-4.873,1.758-4.873c1.757,0,1.757,1.917,1.757,4.873H304.86z"/>
	<path fill="#4172B5" d="M326.107,414.937h-10.702c-1.119,0-2.078,0.958-2.078,2.077v0.799c0,1.118,0.959,2.077,2.078,2.077h2.875
		v15.176c0,1.119,0.957,2.077,2.076,2.077h0.799c1.118,0,2.078-0.958,2.078-2.077v-15.176h2.874c1.119,0,2.076-0.958,2.076-2.077
		v-0.799C328.183,415.895,327.226,414.937,326.107,414.937z"/>
	<path fill="#4172B5" d="M275.066,429.554L275.066,429.554v-7.508c0-1.118-0.959-2.077-2.077-2.077h-0.798
		c-1.119,0-2.077,0.958-2.077,2.077v6.789c0,0,0,3.035-1.837,3.035c0,0-1.837,0.239-1.837-3.274c0-0.239,0-8.946,0-9.026
		c0-0.958-0.719-1.837-1.677-1.997c-0.16-0.08-0.319-0.08-0.559-0.08h-0.48c-0.16,0-0.399,0-0.559,0.08
		c-0.958,0.159-1.677,1.038-1.677,2.077l0,0c0,0.08,0,9.026,0,9.026s-0.799,8.386,6.47,8.546
		C275.226,437.302,275.066,430.434,275.066,429.554z"/>
	<path fill="#4172B5" d="M259.01,429.714c0-1.118-0.958-1.518-2.077-1.518h-0.799c-1.039,0-1.917,0.319-2.076,1.197
		c0,0.081,0,0.24,0,0.32v0.16c0,0.56-0.24,1.836-1.518,1.836c-1.598,0-2.077-1.117-2.077-4.152c0-3.115,0.16-4.793,1.837-4.793
		c1.358,0,1.678,0.878,1.678,1.438c0,0.081,0,0.719,0,0.719c0,1.118,0.958,1.518,2.076,1.518h0.8c1.118,0,2.076-0.399,2.076-1.518
		c0,0,0-1.996,0-2.315c0-2.796-1.997-4.633-5.511-5.033c0,0,1.597-1.917,3.195-3.355c1.598-1.438,1.358-2.077,0.559-3.035
		c-0.719-0.958-1.757-0.958-3.195,0.24c-1.438,1.198-3.914,3.435-5.432,6.31c0,0,0.24-2.556,2.476-6.07c0,0,0.958-1.838-0.639-2.796
		c-0.958-0.559-1.837-0.399-2.556,0.559c-0.719,1.039-2.556,4.313-2.955,6.79l-0.559-3.595c-0.08-0.798-1.039-1.677-2.236-1.518
		c-0.959,0.161-1.677,1.279-1.518,2.237c0.399,1.358,2.875,16.535,5.512,20.528c0.958,1.518,1.677,3.275,6.39,3.275
		c1.917,0,5.671-0.24,6.39-5.433c0.08-0.399,0.08-1.437,0.08-1.437c0-0.081,0-0.24,0-0.32
		C259.01,429.874,259.01,429.714,259.01,429.714z"/>
	<path fill="#4172B5" d="M280.418,422.444h-0.799c-1.118,0-2.076,0.959-2.076,2.078v10.543c0,1.119,0.958,2.077,2.076,2.077h0.799
		c1.118,0,2.076-0.958,2.076-2.077v-10.543C282.494,423.324,281.536,422.444,280.418,422.444z"/>
	<path fill="#4273B5" d="M285.929,409.985h-3.435v-3.436c0-0.798-0.719-1.518-1.518-1.518h-1.917c-0.799,0-1.517,0.719-1.517,1.518
		v3.436h-3.436c-0.799,0-1.518,0.718-1.518,1.517v1.917c0,0.798,0.719,1.517,1.518,1.517h3.436v3.435
		c0,0.799,0.718,1.518,1.517,1.518h1.917c0.799,0,1.518-0.719,1.518-1.518v-3.435h3.435c0.799,0,1.518-0.719,1.518-1.517v-1.917
		C287.447,410.624,286.728,409.985,285.929,409.985z"/>
	<g>
		<path fill="#E7B030" d="M346.874,437.143v-2.636c0-1.519,0.399-2.955,2.316-2.955c1.918,0,2.317,1.517,2.317,2.955v1.038h2.555
			v1.598H346.874z M350.31,434.507c0-0.959-0.399-1.358-1.039-1.358c-0.638,0-1.037,0.399-1.037,1.358v1.118h2.155v-1.118H350.31z"
			/>
		<path fill="#E7B030" d="M346.874,430.593v-1.598h7.188v1.598H346.874z"/>
		<path fill="#E7B030" d="M352.706,427.877h-3.754v-1.598h3.354c0.479,0,0.719-0.16,0.719-0.639c0-0.399-0.239-0.799-0.561-1.118
			h-3.513v-1.598h5.191v1.598h-0.8c0.399,0.319,0.88,0.879,0.88,1.757C354.224,427.237,353.743,427.877,352.706,427.877z"/>
		<path fill="#E7B030" d="M353.425,422.206l-0.88-0.64c0.399-0.479,0.642-1.198,0.642-1.837c0-0.479-0.161-0.798-0.48-0.798
			c-0.399,0-0.479,0.239-0.641,0.958c-0.158,0.958-0.399,2.077-1.597,2.077c-1.037,0-1.678-0.878-1.678-1.997
			c0-1.039,0.241-1.678,0.718-2.317l0.88,0.639c-0.399,0.559-0.558,1.039-0.558,1.518c0,0.479,0.158,0.718,0.479,0.718
			c0.318,0,0.399-0.319,0.56-0.958c0.158-1.038,0.399-2.077,1.596-2.077c1.278,0,1.759,1.118,1.759,2.317
			C354.224,420.848,353.824,421.646,353.425,422.206z"/>
	</g>
</g>
<g>
	<path fill="#FFFFFF" d="M876.088,472.263c0-6.979-5.748-9.032-12.316-9.032h-4.926c-6.158,0-11.085,2.053-12.316,7.39
		c0,0.821,0,1.231,0,1.643v0.82c0,3.285-1.231,11.085-9.032,11.085c-9.442,0-12.316-6.979-12.316-25.043
		c0-18.474,1.232-28.737,11.085-28.737c8.211,0,9.853,5.337,9.853,8.621c0,0.41,0,4.105,0,4.105c0,6.979,5.748,9.032,12.316,9.032
		h4.927c6.979,0,12.316-2.464,12.316-9.032c0,0,0-11.905,0-13.958c0-16.422-11.906-27.507-32.844-29.97
		c0,0,9.854-11.495,19.296-19.706c9.853-8.211,7.8-12.316,3.694-18.064c-4.516-5.748-10.674-5.748-18.885,1.642
		c-8.211,6.979-23.4,20.527-32.433,37.77c0,0,1.231-15.601,14.779-36.128c0,0,5.748-10.674-3.694-16.421
		c-6.158-3.284-11.085-2.463-15.19,3.695s-15.601,25.864-17.653,40.233l-3.284-21.348c-0.82-4.516-6.157-10.263-13.548-9.032
		c-5.747,0.821-10.263,7.8-9.031,13.548c1.231,7.8,16.422,98.119,32.433,121.93c5.747,9.031,10.263,19.295,38.18,19.295
		c11.495,0,33.664-1.231,38.181-32.433c0.41-2.463,0.82-8.621,0.82-8.621c0-0.821,0-1.231,0-2.053
		C876.088,473.494,876.088,472.263,876.088,472.263z"/>
	<path fill="#FFFFFF" d="M955.733,354.438h-20.527v-20.527c0-4.927-4.105-9.032-9.031-9.032h-11.495
		c-4.927,0-9.032,4.105-9.032,9.032v20.527H885.12c-4.927,0-9.032,4.105-9.032,9.032v11.495c0,4.926,4.105,9.032,9.032,9.032h20.526
		v20.527c0,4.927,4.105,9.032,9.032,9.032h11.495c4.926,0,9.031-4.105,9.031-9.032v-20.527h20.527c4.926,0,9.031-4.105,9.031-9.032
		V363.47C964.764,358.543,960.658,354.438,955.733,354.438z"/>
</g>
<g>
	<path fill="#4172B5" d="M1513.654,427.104h31.201c5.337,0,9.442-4.105,9.442-9.442v-3.695c0-5.337-4.105-9.442-9.442-9.442h-31.201
		c-29.969,0-33.664,25.043-33.664,35.307l0,0l0,0c0,6.568,0,16.011,0,19.706l0,0l0,0c0,10.263,3.695,35.306,33.664,35.306h31.201
		c5.337,0,9.442-4.105,9.442-9.442v-3.694c0-5.337-4.105-9.442-9.442-9.442h-31.201c-2.053,0-8.211,0-8.211-11.085h27.917
		c5.337,0,9.442-4.105,9.442-9.442v-3.694c0-5.338-4.105-9.442-9.442-9.442h-27.917
		C1505.443,427.104,1511.601,427.104,1513.654,427.104z"/>
	<path fill="#4172B5" d="M1315.775,467.746c-6.979,0-16.832,0-16.832-8.21c0-8.211,9.853-8.211,16.832-8.211V467.746z
		 M1338.354,402.061c0-5.337-4.105-9.442-9.442-9.442h-3.694c-5.337,0-9.442,4.105-9.442,9.442v24.632
		c0,0-36.948-4.105-36.948,31.611c0,16.832,7.39,35.717,29.969,35.717c6.979,0,19.296,0,19.296,0
		c5.747,0,10.263-4.516,10.263-10.263V402.061z"/>
	<path fill="#4172B5" d="M1411.43,446.398c0-2.874-0.411-9.853-1.643-18.885c-1.642-11.495-9.853-22.99-29.559-22.99
		s-23.812,11.905-27.506,19.706c-3.695,7.8-3.284,26.685-3.284,26.685s0,23.401,0,23.812c0,2.874,1.642,5.747,4.105,7.39
		c1.642,1.231,3.284,1.643,5.337,1.643h3.694c1.643,0,3.284-0.411,4.517-1.232c2.873-1.642,4.926-4.516,4.926-8.21v-2.053h16.011
		v13.137c0,5.337,4.105,9.442,9.442,9.442h3.695c5.337,0,9.442-4.105,9.442-9.442C1411.43,484.989,1411.43,446.398,1411.43,446.398z
		 M1372.839,449.272c0-13.138,0-22.58,8.211-22.58s7.8,8.621,7.8,22.58H1372.839z"/>
	<path fill="#4172B5" d="M1470.547,392.618h-49.265c-5.337,0-9.442,4.105-9.442,9.442v3.694c0,5.337,4.105,9.442,9.442,9.442h13.138
		v69.381c0,5.337,4.105,9.442,9.442,9.442h3.694c5.337,0,9.442-4.105,9.442-9.442v-69.381h13.138c5.337,0,9.442-4.105,9.442-9.442
		v-3.694C1479.99,397.134,1475.884,392.618,1470.547,392.618z"/>
	<path fill="#4172B5" d="M1235.719,459.946L1235.719,459.946v-34.485c0-5.337-4.105-9.442-9.441-9.442h-3.695
		c-5.337,0-9.442,4.105-9.442,9.442v31.201c0,0,0,13.958-8.211,13.958c0,0-8.21,1.231-8.21-15.189c0-1.232,0-41.054,0-41.465
		c0-4.516-3.285-8.211-7.801-9.031c-0.821,0-1.643-0.411-2.463-0.411h-2.053c-0.821,0-1.643,0-2.464,0.411
		c-4.516,0.82-7.8,4.926-7.8,9.442l0,0v41.464c0,0-3.695,38.591,29.559,39.412C1236.54,495.253,1235.719,464.052,1235.719,459.946z"
		/>
	<path fill="#4172B5" d="M1162.233,460.768c0-5.337-4.104-6.979-9.441-6.979h-3.695c-4.516,0-8.621,1.643-9.442,5.748
		c0,0.41,0,0.82,0,1.231v0.82c0,2.464-0.821,8.622-6.979,8.622c-7.39,0-9.441-5.337-9.441-19.296c0-14.368,0.82-22.169,8.621-22.169
		c6.158,0,7.8,4.105,7.8,6.568c0,0.411,0,3.285,0,3.285c0,5.337,4.105,6.979,9.442,6.979h3.695c5.337,0,9.441-1.642,9.441-6.979
		c0,0,0-9.442,0-10.675c0-12.727-9.031-21.348-25.453-22.99c0,0,7.39-8.621,14.779-15.189c7.39-6.568,6.158-9.442,2.874-13.958
		c-3.284-4.516-8.211-4.105-14.779,1.231s-18.063,16.011-25.043,28.737c0,0,0.821-11.905,11.495-27.917c0,0,4.516-8.21-2.874-12.727
		c-4.516-2.874-8.621-2.053-11.495,2.874c-3.284,4.516-11.905,20.116-13.547,31.201l-2.464-16.421
		c-0.41-3.695-4.927-7.8-10.264-6.979c-4.516,0.821-7.8,5.747-6.979,10.263c1.231,5.748,12.727,75.539,24.632,94.013
		c4.516,6.979,7.801,15.19,29.148,15.19c8.621,0,25.863-0.821,29.559-25.043c0.41-1.643,0.41-6.569,0.41-6.569
		c0-0.41,0-0.82,0-1.642C1162.233,461.588,1162.233,460.768,1162.233,460.768z"/>
	<path fill="#4172B5" d="M1260.352,427.104h-3.695c-5.337,0-9.441,4.105-9.441,9.442v48.443c0,5.337,4.104,9.442,9.441,9.442h3.695
		c5.337,0,9.442-4.105,9.442-9.442v-48.443C1270.204,431.209,1265.689,427.104,1260.352,427.104z"/>
	<path fill="#4273B5" d="M1285.805,370.039h-15.601v-15.601c0-3.695-3.284-6.979-6.979-6.979h-9.032
		c-3.695,0-6.979,3.284-6.979,6.979v15.601h-15.601c-3.694,0-6.979,3.284-6.979,6.979v9.032c0,3.695,3.284,6.979,6.979,6.979h15.601
		v15.601c0,3.695,3.284,6.979,6.979,6.979h9.032c3.694,0,6.979-3.284,6.979-6.979v-16.011h15.601c3.695,0,6.979-3.285,6.979-6.979
		v-9.032C1292.784,372.912,1289.5,370.039,1285.805,370.039z"/>
	<g>
		<path fill="#E7B030" d="M1565.792,494.432v-11.906c0-6.979,2.053-13.547,10.674-13.547c9.032,0,10.674,6.979,10.674,13.547v4.517
			h11.905v7.39H1565.792L1565.792,494.432z M1581.393,482.525c0-4.516-1.643-6.157-4.927-6.157s-4.927,1.642-4.927,6.157v4.927
			h9.854V482.525L1581.393,482.525z"/>
		<path fill="#E7B030" d="M1565.792,464.873v-6.979h33.253v6.979H1565.792z"/>
		<path fill="#E7B030" d="M1592.477,452.146h-17.242v-7.39h15.189c2.053,0,3.284-0.82,3.284-2.873s-1.231-3.695-2.463-5.337h-16.011
			v-7.39h23.811v7.39h-3.694c1.642,1.231,4.105,4.105,4.105,8.21C1599.456,449.272,1597.404,452.146,1592.477,452.146z"/>
		<path fill="#E7B030" d="M1595.761,425.871l-4.104-2.873c2.053-2.053,3.284-5.337,3.284-8.211c0-2.053-0.821-3.695-2.464-3.695
			c-1.642,0-2.463,1.232-2.874,4.517c-0.82,4.516-2.052,9.442-7.39,9.442c-4.926,0-7.389-4.105-7.389-9.442
			c0-4.927,1.231-7.801,3.283-10.674l4.105,2.873c-1.642,2.464-2.463,4.927-2.463,6.979s0.821,3.284,2.053,3.284
			s2.053-1.231,2.463-4.105c0.821-4.516,2.053-9.853,7.39-9.853c5.748,0,8.211,4.926,8.211,10.674
			C1599.456,420.124,1597.814,423.408,1595.761,425.871z"/>
	</g>
</g>
</svg>
