<svg width="25" height="40" viewBox="0 0 25 40" fill="none" xmlns="http://www.w3.org/2000/svg">
<path d="M13.2 10.4C13.6 10.4 14.3 10.4 14.9 10.5C16.2 6.59995 16.8 3.29995 16.6 0.699951L15 0.899951C15.2 3.89995 14.3 7.59995 13.2 10.4Z" fill="white"/>
<path d="M12.4 11.1C12 11.1 11.7 11.1 11.7 11.1C11.7 11.1 11.5 11.1 11.1 11.1C9.6 11.1 5.5 11.4 2.8 13.9C1 15.6 0 18.1 0 21.2C0 26.2 3.3 28.9 6.5 31.5C9.1 33.6 11.5 35.6 11.7 38.6C11.8 39.5 11.9 39.9 12 40C12.1 39.9 12.2 39.6 12.2 38.5C12.3 35.5 14.8 33.5 17.4 31.4C20.6 28.8 24 26.2 24 21.3C24 18.1 23.1 15.7 21.2 13.9C17.9 10.7 12.5 11.1 12.4 11.1Z" fill="white"/>
<path d="M11.8 10.4C11.8 10.4 12.1 10.4 12.5 10.4C12.5 10.4 12.8 10.4 13.2 10.4C13.6 7.3 14 3.4 13.7 0L12 0.1C12.1 1.6 12.1 3.3 12 5C11.9 3.3 11.8 1.6 11.7 0L10 0.1C10.2 3.3 10.4 7.1 10.6 10.1C9.60001 7.6 8.40001 4.8 7.90001 2.2L6.20001 2.7C6.80001 5.3 7.90001 8.1 9.00001 10.7C10.6 10.4 11.7 10.4 11.8 10.4Z" fill="white"/>
</svg>
