<?xml version="1.0" standalone="no"?><!DOCTYPE svg PUBLIC "-//W3C//DTD SVG 1.1//EN" "http://www.w3.org/Graphics/SVG/1.1/DTD/svg11.dtd" ><svg xmlns="http://www.w3.org/2000/svg"><metadata></metadata><defs><font id="Font Awesome 6 Free Solid-6.1.1" horiz-adv-x="640"><font-face font-family="Font Awesome 6 Free Solid" font-weight="900" font-stretch="normal" units-per-em="512" panose-1="2 0 9 3 0 0 0 0 0 0" ascent="448" descent="-64" x-height="0" bbox="-1 -64 640 449" underline-thickness="0" underline-position="0" unicode-range="U+0021-fac1" /><missing-glyph horiz-adv-x="384" d="M336 448 l-288 0 q-20 -1 -34 -14 q-13 -14 -14 -34 l0 -416 q1 -20 14 -34 q14 -13 34 -14 l288 0 q20 1 34 14 q13 14 14 34 l0 416 q-1 20 -14 34 q-14 13 -34 14 l0 0 ZM282 384 l-90 -134 l-89 134 l179 0 l0 0 ZM64 326 l90 -134 l-90 -134 l0 268 l0 0 ZM103 0 l89 134 l90 -134 l-179 0 l0 0 ZM320 58 l-89 134 l89 134 l0 -268 l0 0 Z" /><glyph glyph-name="" unicode="&#x2755;&#x2757;!&#xf12a;" d="M64 96 q14 0 23 9 l0 0 q9 9 9 22 l0 257 q0 14 -9 23 q-9 9 -23 9 q-14 0 -23 -9 q-9 -9 -9 -23 l0 -255 q0 -14 9 -24 q9 -9 23 -9 l0 0 ZM64 48 q-17 0 -28 -12 l0 0 q-12 -11 -12 -28 q0 -17 12 -28 q11 -11 28 -11 q17 0 28 11 q12 12 12 28 q0 16 -12 28 q-11 11 -28 12 l0 0 Z" /><glyph glyph-name="" unicode="#&#xf292;" d="M416 321 l-58 0 l10 59 q1 13 -6 24 q-7 10 -21 12 q-13 2 -24 -5 q-10 -7 -13 -21 l-11 -69 l-95 0 l10 59 q1 13 -6 24 q-7 10 -21 12 q-13 2 -24 -5 q-10 -7 -13 -21 l-11 -69 l-69 0 q-14 0 -23 -9 q-9 -10 -9 -23 q0 -14 9 -23 q9 -9 23 -9 l58 0 l-21 -128 l-69 0 q-14 0 -23 -9 q-9 -10 -9 -23 q0 -14 9 -22 q9 -9 23 -9 l58 0 l-10 -59 q-1 -13 6 -24 q7 -10 21 -13 q2 -2 5 -2 q25 2 32 27 l11 69 l95 0 l-10 -59 q-1 -13 6 -24 q7 -10 21 -13 q2 0 5 0 q25 2 32 27 l11 69 l69 0 q14 0 23 9 q9 9 9 22 q0 14 -9 23 q-9 9 -23 9 l-58 0 l21 128 l69 0 q14 0 23 9 q9 9 9 22 q0 15 -9 25 q-9 10 -23 10 l0 0 ZM261 129 l-95 0 l21 128 l95 0 l-21 -128 l0 0 Z" /><glyph glyph-name="" unicode="&#x1f4b2;$&#xf155;" d="M160 448 q14 0 23 -9 l0 0 q9 -9 9 -23 l0 -36 q2 0 3 0 q1 0 2 0 q9 -2 26 -5 q18 -3 29 -5 q12 -4 19 -15 q7 -11 4 -24 q-4 -13 -15 -20 q-11 -6 -24 -3 q-7 2 -21 4 q-14 2 -24 4 q-2 0 -4 0 q-49 7 -78 -5 q-26 -10 -28 -28 q-2 -15 1 -20 q3 -6 13 -14 q25 -14 73 -26 l3 -1 q22 -5 46 -14 q23 -8 43 -20 q22 -14 36 -40 q12 -27 6 -58 q-6 -29 -23 -48 q-18 -20 -43 -30 q-20 -8 -44 -11 l0 -33 q0 -14 -9 -23 q-9 -9 -23 -9 q-14 0 -23 9 q-9 9 -9 23 l0 35 q0 0 0 0 q-1 1 -1 0 l0 0 q-20 3 -45 10 q-26 7 -47 16 q-12 6 -17 18 q-4 12 1 25 q6 12 17 17 q12 4 24 -1 q17 -7 39 -13 q21 -6 37 -9 q49 -6 76 6 q25 10 27 28 q2 16 -1 21 q-3 6 -13 13 q-25 15 -73 27 l-3 1 q-22 5 -46 14 q-23 8 -43 20 q-22 14 -36 40 q-12 27 -6 59 q6 29 24 48 q19 19 44 28 q20 8 42 10 l0 35 q0 14 9 23 q9 9 23 9 l0 0 l0 0 Z" /><glyph glyph-name="" unicode="%&#xf295;&#xf541;" d="M375 375 q-10 9 -23 9 l0 0 q-13 0 -23 -9 l-320 -320 q-9 -10 -9 -23 q0 -13 9 -23 q10 -9 23 -9 q13 0 23 9 l320 320 q9 10 9 23 q0 13 -9 23 l0 0 ZM64 256 q27 1 45 19 l0 0 q18 18 19 45 q-1 27 -19 45 q-18 18 -45 19 q-27 -1 -45 -19 q-18 -18 -19 -45 q1 -27 19 -45 q18 -18 45 -19 l0 0 ZM320 128 q-27 -1 -45 -19 l0 0 q-18 -18 -19 -45 q1 -27 19 -45 q18 -18 45 -19 q27 1 45 19 q18 18 19 45 q-1 27 -19 45 q-18 18 -45 19 l0 0 Z" /><glyph glyph-name="" unicode="&#x2731;*&#xf069;" d="M417 80 q-10 -16 -28 -16 q-8 0 -16 4 l-117 69 l0 -137 q0 -14 -9 -23 q-9 -9 -22 -9 q-13 0 -23 9 q-10 9 -10 23 l0 137 l-118 -69 q-8 -4 -16 -4 q-18 0 -28 16 q-6 12 -3 24 q3 13 15 20 l117 68 l-117 68 q-12 7 -15 20 q-4 12 2 24 q13 18 33 16 q6 -1 12 -4 l118 -69 l0 137 q0 14 9 23 q9 9 23 9 q14 0 23 -9 q9 -9 9 -23 l0 -137 l118 69 q6 3 12 4 q21 2 31 -16 q7 -12 3 -24 q-3 -13 -15 -20 l-117 -68 l118 -68 q12 -7 15 -20 q3 -12 -4 -24 l0 0 Z" /><glyph glyph-name="" unicode="&#x2795;+&#xf067;" d="M432 192 q0 -14 -9 -23 l0 0 q-9 -9 -23 -9 l-144 0 l0 -144 q0 -14 -9 -23 q-9 -9 -23 -9 q-14 0 -23 9 q-9 9 -9 23 l0 144 l-144 0 q-14 0 -23 9 q-9 9 -9 23 q0 14 9 23 q9 9 23 9 l144 0 l0 144 q0 14 9 23 q9 9 23 9 q14 0 23 -9 q9 -9 9 -23 l0 -144 l144 0 q14 0 23 -9 q9 -9 9 -23 l0 0 Z" /><glyph glyph-name="" unicode="0" d="M160 416 q-68 -2 -113 -47 l0 0 q-45 -45 -47 -113 l0 -127 q2 -68 47 -113 q45 -45 113 -47 q68 2 113 47 q45 45 47 113 l0 127 q-2 68 -47 113 q-45 45 -113 47 l0 0 ZM256 128 q-1 -41 -28 -68 l0 0 q-27 -27 -68 -28 q-41 1 -68 28 q-27 27 -28 68 l0 128 q1 41 28 68 q27 27 68 28 q41 -1 68 -28 q27 -27 28 -68 l0 -128 l0 0 Z" /><glyph glyph-name="" unicode="1" d="M256 0 q0 -14 -9 -23 l0 0 q-9 -9 -23 -9 l-192 0 q-14 0 -23 9 q-9 9 -9 23 q0 14 9 23 q9 9 23 9 l64 0 l0 292 l-46 -31 q-12 -7 -24 -4 q-13 2 -21 13 q-7 12 -4 24 q2 13 13 21 l96 64 q16 10 33 1 q16 -9 17 -28 l0 -352 l64 0 q14 0 23 -9 q9 -9 9 -23 l0 0 Z" /><glyph glyph-name="" unicode="2" d="M320 0 q0 -14 -9 -23 l0 0 q-9 -9 -23 -9 l-256 0 q-21 1 -30 20 q-7 20 8 35 l193 185 q24 24 26 56 q1 31 -20 58 q-23 27 -59 29 q-35 1 -61 -23 l-35 -32 q-11 -9 -24 -8 q-12 1 -22 10 q-9 11 -8 24 q1 12 10 22 l35 31 q45 42 109 40 q63 -5 104 -52 q37 -46 35 -103 q-3 -56 -45 -98 l-136 -130 l176 0 q14 0 23 -9 q9 -9 9 -23 l0 0 Z" /><glyph glyph-name="" unicode="3" d="M320 104 q-1 -58 -40 -96 l0 0 q-38 -39 -96 -40 l-80 0 q-36 0 -63 20 q-27 20 -38 53 q-4 13 1 25 q6 11 19 16 q13 4 24 -2 q12 -6 16 -18 q11 -28 41 -30 l80 0 q31 1 51 21 q20 20 21 51 q-1 31 -21 51 q-20 20 -51 21 l-104 0 q-21 1 -30 20 q-7 21 8 36 l132 120 l-158 0 q-14 0 -23 9 q-9 9 -9 23 q0 14 9 23 q9 9 23 9 l240 0 q21 -1 30 -20 q7 -21 -8 -36 l-132 -120 l22 0 q57 -1 96 -40 q38 -38 40 -96 l0 0 Z" /><glyph glyph-name="" unicode="4" d="M384 114 q0 -14 -9 -23 l0 0 q-9 -9 -23 -9 l-32 0 l0 -82 q0 -14 -9 -23 q-9 -9 -23 -9 q-14 0 -23 9 q-9 9 -9 23 l0 82 l-224 0 q-17 0 -27 15 q-9 15 -2 30 l128 271 q6 12 18 16 q12 4 25 -1 q12 -6 16 -18 q4 -12 -1 -25 l-106 -224 l173 0 l0 142 q0 14 9 23 q9 9 23 9 q14 0 23 -9 q9 -9 9 -23 l0 -142 l32 0 q14 -1 23 -10 q9 -9 9 -22 l0 0 Z" /><glyph glyph-name="" unicode="5" d="M320 103 q-1 -57 -40 -95 l0 0 q-38 -39 -95 -40 l-80 0 q-36 0 -64 20 q-28 20 -39 54 q-4 13 1 25 q6 11 19 16 q13 4 24 -2 q12 -6 16 -19 q12 -28 43 -30 l80 0 q30 1 50 21 q20 20 21 50 q-1 31 -21 51 q-20 20 -50 21 l-153 0 q-15 0 -25 11 q-9 12 -6 26 l32 178 q6 24 31 26 l192 0 q14 0 23 -9 q9 -9 9 -23 q0 -14 -9 -23 q-9 -9 -23 -9 l-165 0 l-21 -113 l115 0 q57 -2 95 -40 q39 -38 40 -96 l0 0 Z" /><glyph glyph-name="" unicode="6" d="M168 287 l64 76 q9 11 8 24 q-1 12 -11 21 q-10 8 -21 8 q-14 0 -24 -11 q-33 -39 -59 -69 q-48 -55 -76 -90 q-27 -35 -38 -61 q-11 -26 -11 -57 q2 -68 47 -113 q45 -45 113 -47 q68 2 113 47 q45 45 47 113 q-2 66 -44 110 q-43 45 -108 49 l0 0 ZM160 32 q-41 1 -68 28 l0 0 q-27 27 -28 68 q1 41 28 67 q27 27 68 28 q41 -1 68 -28 q27 -27 28 -67 q-1 -40 -28 -68 q-27 -27 -68 -28 l0 0 Z" /><glyph glyph-name="" unicode="7" d="M316 368 l-224 -384 q-10 -16 -28 -16 q-8 0 -16 4 q-12 7 -15 20 q-3 12 3 24 l196 336 l-200 0 q-14 0 -23 9 q-9 9 -9 23 q0 14 9 23 q9 9 23 9 l256 0 q18 -1 28 -16 q8 -16 0 -32 l0 0 Z" /><glyph glyph-name="" unicode="8" d="M268 199 q35 36 36 89 q-1 54 -38 90 q-36 37 -90 38 l-32 0 q-54 -1 -90 -38 q-37 -36 -38 -90 q1 -53 36 -89 q-24 -18 -38 -45 q-14 -26 -14 -58 q1 -54 38 -90 q36 -37 90 -38 l64 0 q54 1 90 38 q37 36 38 90 q0 32 -14 58 q-14 27 -38 45 l0 0 ZM144 352 l32 0 q27 -1 45 -19 q18 -18 19 -45 q-1 -27 -19 -45 q-18 -18 -45 -19 l-32 0 q-27 1 -45 19 q-18 18 -19 45 q1 27 19 45 q18 18 45 19 l0 0 ZM192 32 l-64 0 q-27 1 -45 19 q-18 18 -19 45 q1 27 19 45 q18 18 45 19 l64 0 q27 -1 45 -19 q18 -18 19 -45 q-1 -27 -19 -45 q-18 -18 -45 -19 l0 0 Z" /><glyph glyph-name="" unicode="9" d="M160 416 q-68 -2 -113 -47 l0 0 q-45 -45 -47 -113 q2 -66 44 -110 q43 -45 108 -49 l-64 -76 q-9 -11 -8 -24 q1 -12 11 -21 q10 -8 21 -8 q14 0 24 11 q33 39 59 69 q49 55 76 90 q27 35 38 61 q11 26 11 57 q-2 68 -47 113 q-45 45 -113 47 l0 0 ZM160 160 q-41 1 -68 28 l0 0 q-27 27 -28 67 q1 40 28 68 q27 27 68 28 q41 -1 68 -28 q27 -27 28 -68 q-1 -41 -28 -67 q-27 -27 -68 -28 l0 0 Z" /><glyph glyph-name="" unicode="&lt;&#xf536;" d="M351 0 q-7 0 -14 3 l-320 160 q-16 10 -17 29 q1 19 18 29 l320 160 q12 5 24 1 q12 -4 19 -16 q5 -12 1 -24 q-4 -12 -16 -19 l-262 -131 l262 -131 q12 -7 16 -19 q4 -12 -1 -24 q-10 -18 -30 -18 l0 0 Z" /><glyph glyph-name="" unicode="=&#xf52c;" d="M48 256 l352 0 q14 0 23 9 q9 9 9 23 q0 14 -9 22 q-9 9 -23 9 l-352 0 q-14 0 -23 -9 q-9 -9 -9 -22 q0 -13 9 -22 q9 -10 23 -10 l0 0 ZM400 128 l-352 0 q-14 0 -23 -9 q-9 -9 -9 -22 q0 -13 9 -22 q9 -10 23 -10 l352 0 q14 0 23 9 q9 9 9 23 q0 13 -9 22 q-9 9 -23 9 l0 0 Z" /><glyph glyph-name="" unicode="&gt;&#xf531;" d="M32 0 q-19 0 -29 18 q-5 12 -1 24 q4 12 16 19 l262 131 l-262 131 q-12 7 -16 19 q-4 12 1 24 q7 12 19 16 q12 4 24 -1 l320 -160 q17 -10 18 -29 q-1 -19 -18 -29 l-320 -160 q-7 -3 -14 -3 l0 0 Z" /><glyph glyph-name="" unicode="&#x2753;&#x2754;&#xf128;?" d="M204 416 l-108 0 q-41 -1 -68 -28 q-27 -27 -28 -68 q0 -14 9 -22 q9 -9 23 -9 q14 0 23 9 q9 9 9 22 q0 14 9 23 q9 9 23 9 l108 0 q22 -1 37 -15 q14 -15 15 -37 q-1 -31 -30 -47 l-98 -57 q-16 -10 -16 -28 l0 -40 q0 -14 9 -23 q9 -9 23 -9 q14 0 23 9 q9 9 9 23 l0 22 l80 47 q30 15 47 42 q17 28 17 61 q-1 49 -34 82 q-33 33 -82 34 l0 0 ZM144 48 q-17 0 -28 -12 l0 0 q-12 -11 -12 -28 q0 -17 12 -28 q11 -11 28 -11 q17 0 28 11 q12 12 12 28 q0 16 -12 28 q-11 11 -28 12 l0 0 Z" /><glyph glyph-name="" unicode="&#xf1fa;@" d="M208 427 q-71 -15 -122 -65 l0 0 q-50 -51 -65 -122 q-13 -71 10 -132 q23 -61 73 -102 q50 -41 116 -51 q15 -2 25 8 q11 9 11 24 l0 0 q-2 26 -27 31 q-64 12 -106 59 q-42 48 -43 116 q2 79 57 130 q56 50 136 45 q70 -9 114 -60 q44 -52 45 -123 l0 -16 q0 -17 -12 -29 q-11 -11 -28 -11 q-17 0 -28 11 q-12 12 -12 29 l0 120 q-1 14 -16 16 l-32 0 q-12 -1 -15 -12 q-38 20 -86 5 q-30 -11 -49 -34 q-20 -24 -25 -55 q-5 -54 27 -90 q32 -37 84 -38 q40 1 70 24 q18 -23 47 -34 q28 -11 62 -3 q35 9 56 38 q20 29 20 65 l0 21 q-1 75 -40 134 q-40 58 -105 87 q-64 28 -142 14 l0 0 ZM239 144 q-20 0 -34 14 l0 0 q-13 13 -14 34 q1 20 14 34 q14 13 34 14 q20 -1 34 -14 q14 -14 14 -34 q0 -21 -14 -34 q-13 -14 -34 -14 l0 0 Z" /><glyph glyph-name="" unicode="Aa" d="M382 12 l-160 384 q-9 19 -30 20 q-21 -1 -29 -20 l-160 -384 q-5 -12 -1 -24 q5 -12 18 -18 q12 -4 24 0 q12 5 18 18 l31 76 l198 0 l31 -76 q10 -19 30 -20 q6 0 12 2 q13 6 18 18 q4 12 0 24 l0 0 ZM119 128 l73 173 l72 -173 l-145 0 l0 0 Z" /><glyph glyph-name="" unicode="Bb" d="M257 206 q30 34 31 82 q-1 54 -38 90 q-36 37 -90 38 l-128 0 q-14 0 -23 -9 q-9 -9 -9 -23 l0 -384 q0 -14 9 -23 q9 -9 23 -9 l160 0 q54 1 90 38 q37 36 38 90 q0 35 -17 64 q-17 28 -46 46 l0 0 ZM64 352 l96 0 q27 -1 45 -19 q18 -18 19 -45 q-1 -27 -19 -45 q-18 -18 -45 -19 l-96 0 l0 128 l0 0 ZM192 32 l-128 0 l0 128 l128 0 q27 -1 45 -19 q18 -18 19 -45 q-1 -27 -19 -45 q-18 -18 -45 -19 l0 0 Z" /><glyph glyph-name="" unicode="Cc" d="M352 88 q17 -1 24 -11 l0 0 q7 -11 7 -21 q0 -12 -21 -33 q-21 -21 -57 -37 q-37 -17 -86 -18 q-69 1 -118 34 q-49 34 -75 85 q-27 51 -27 105 q0 53 26 104 q26 51 75 84 q49 34 119 35 q50 -1 86 -18 q37 -17 58 -37 q20 -21 20 -33 q0 -10 -7 -21 q-8 -10 -25 -11 q-16 1 -33 18 q-14 13 -37 25 q-22 12 -62 13 q-74 -3 -115 -52 q-40 -48 -41 -107 q1 -59 41 -108 q40 -49 115 -52 q40 1 63 13 q23 12 37 25 q17 17 33 18 l0 0 Z" /><glyph glyph-name="" unicode="dD" d="M160 416 l-128 0 q-14 0 -23 -9 q-9 -9 -9 -23 l0 -384 q0 -14 9 -23 q9 -9 23 -9 l128 0 q62 1 113 31 q50 30 80 80 q30 51 31 113 q-1 62 -31 113 q-30 50 -80 80 q-51 30 -113 31 l0 0 ZM160 32 l-96 0 l0 320 l96 0 q68 -2 113 -47 q45 -45 47 -112 q-2 -67 -47 -113 q-45 -46 -113 -48 l0 0 Z" /><glyph glyph-name="" unicode="eE" d="M320 0 q0 -14 -9 -23 l0 0 q-9 -9 -23 -9 l-256 0 q-14 0 -23 9 q-9 9 -9 23 l0 384 q0 14 9 23 q9 9 23 9 l256 0 q14 0 23 -9 q9 -9 9 -23 q0 -14 -9 -23 q-9 -9 -23 -9 l-224 0 l0 -128 l160 0 q14 0 23 -9 q9 -9 9 -23 q0 -14 -9 -23 q-9 -9 -23 -9 l-160 0 l0 -128 l224 0 q14 0 23 -9 q9 -9 9 -23 l0 0 Z" /><glyph glyph-name="" unicode="fF" d="M320 384 q0 -14 -9 -23 l0 0 q-9 -9 -23 -9 l-224 0 l0 -128 l160 0 q14 0 23 -9 q9 -9 9 -22 q0 -13 -9 -22 q-9 -10 -23 -10 l-160 0 l0 -160 q0 -14 -9 -23 q-9 -9 -23 -9 q-14 0 -23 9 q-9 9 -9 23 l0 384 q0 13 9 22 q9 9 23 9 l256 0 q14 0 23 -9 q9 -9 9 -23 l0 0 Z" /><glyph glyph-name="" unicode="gG" d="M448 192 q-1 -72 -35 -121 l0 0 q-33 -50 -84 -76 l0 0 q-52 -25 -106 -25 q-67 1 -116 32 q-50 30 -78 81 q-28 50 -28 109 q1 63 31 113 q30 51 80 81 q50 29 112 30 q43 -1 81 -16 q38 -14 62 -35 q24 -20 25 -37 q-1 -14 -10 -23 q-9 -9 -22 -9 q-16 1 -33 17 q-14 14 -38 26 q-24 12 -65 13 q-67 -2 -112 -47 q-45 -44 -47 -113 q-1 -19 12 -56 q12 -38 47 -69 q35 -32 100 -34 q61 2 104 37 q43 35 54 90 l-134 0 q-14 0 -23 9 q-9 9 -9 23 q0 14 9 22 q9 9 23 9 l168 0 q14 0 23 -8 q9 -9 9 -23 l0 0 Z" /><glyph glyph-name="" unicode="hH" d="M384 384 l0 -384 q0 -14 -9 -23 q-9 -9 -23 -9 q-14 0 -23 9 q-9 9 -9 23 l0 192 l-256 0 l0 -192 q0 -14 -9 -23 q-9 -9 -23 -9 q-14 0 -23 9 q-9 9 -9 23 l0 384 q0 14 9 23 q9 9 23 9 q14 0 23 -9 q9 -9 9 -23 l0 -128 l256 0 l0 128 q0 14 9 23 q9 9 23 9 q14 0 23 -9 q9 -9 9 -23 l0 0 Z" /><glyph glyph-name="" unicode="iI" d="M320 0 q0 -14 -9 -23 l0 0 q-9 -9 -23 -9 l-256 0 q-14 0 -23 9 q-9 9 -9 23 q0 14 9 23 q9 9 23 9 l96 0 l0 320 l-96 0 q-14 0 -23 9 q-9 9 -9 23 q0 14 9 23 q9 9 23 9 l256 0 q14 0 23 -9 q9 -9 9 -23 q0 -14 -9 -23 q-9 -9 -23 -9 l-96 0 l0 -320 l96 0 q14 0 23 -9 q9 -9 9 -23 l0 0 Z" /><glyph glyph-name="" unicode="jJ" d="M320 384 l0 -259 q-2 -67 -47 -111 q-45 -44 -113 -46 q-68 2 -113 46 q-45 44 -47 111 l0 35 q0 14 9 23 q9 9 23 9 q14 0 23 -9 q9 -9 9 -23 l0 -35 q1 -40 28 -66 q27 -26 68 -27 q41 1 68 27 q27 26 28 66 l0 259 q0 14 9 23 q9 9 23 9 q14 0 23 -9 q9 -9 9 -23 l0 0 Z" /><glyph glyph-name="" unicode="kK" d="M314 18 q8 -11 5 -24 l0 0 q-2 -12 -13 -20 q-8 -6 -18 -6 q-16 0 -26 14 l-134 193 l-64 -66 l0 -109 q0 -14 -9 -23 q-9 -9 -23 -9 q-14 0 -23 9 q-9 9 -9 23 l0 384 q0 14 9 23 q9 9 23 9 q14 0 23 -9 q9 -9 9 -23 l0 -183 l201 205 q10 10 23 10 q12 0 22 -9 q10 -10 10 -23 q0 -12 -9 -22 l-137 -141 l140 -203 l0 0 Z" /><glyph glyph-name="" unicode="lL" d="M320 0 q0 -14 -9 -23 l0 0 q-9 -9 -23 -9 l-224 0 q-14 0 -23 9 q-9 9 -9 23 l0 384 q0 14 9 23 q9 9 23 9 q14 0 23 -9 q9 -9 9 -23 l0 -352 l192 0 q14 0 23 -9 q9 -9 9 -23 l0 0 Z" /><glyph glyph-name="" unicode="mM" d="M448 384 l0 -384 q0 -14 -9 -23 q-9 -9 -23 -9 q-14 0 -23 9 q-9 9 -9 23 l0 278 l-133 -200 q-10 -13 -27 -13 q-17 0 -27 13 l-133 200 l0 -278 q0 -14 -9 -23 q-9 -9 -23 -9 q-14 0 -23 9 q-9 9 -9 23 l0 384 q1 23 23 31 q22 5 36 -13 l165 -248 l165 248 q14 18 36 13 q22 -8 23 -31 l0 0 Z" /><glyph glyph-name="" unicode="nN" d="M384 384 l0 -384 q-1 -22 -21 -30 q-5 -2 -11 -2 q-15 0 -25 12 l-263 316 l0 -296 q0 -14 -9 -23 q-9 -9 -23 -9 q-14 0 -23 9 q-9 9 -9 23 l0 384 q1 22 21 30 q21 6 36 -10 l263 -316 l0 296 q0 14 9 23 q9 9 23 9 q14 0 23 -9 q9 -9 9 -23 l0 0 Z" /><glyph glyph-name="" unicode="oO" d="M224 416 q-62 -1 -113 -31 l0 0 q-50 -30 -80 -80 l0 0 q-30 -51 -31 -113 q1 -62 31 -113 q30 -50 80 -80 q51 -30 113 -31 q62 1 113 31 q50 30 80 80 q30 51 31 113 q-1 62 -31 113 q-30 50 -80 80 q-51 30 -113 31 l0 0 ZM224 32 q-68 2 -113 47 l0 0 q-45 45 -47 113 q2 68 47 113 q45 44 113 46 q68 -2 113 -47 q45 -45 47 -112 q-2 -67 -47 -113 q-45 -45 -113 -47 l0 0 Z" /><glyph glyph-name="" unicode="pP" d="M160 416 l-128 0 q-14 0 -23 -9 q-9 -9 -9 -23 l0 -384 q0 -14 9 -23 q9 -9 23 -9 q14 0 23 9 q9 9 9 23 l0 96 l96 0 q68 2 113 47 q45 45 47 112 q-2 67 -47 113 q-45 46 -113 48 l0 0 ZM160 160 l-96 0 l0 192 l96 0 q41 -1 68 -28 q27 -27 28 -68 q-1 -41 -28 -68 q-27 -27 -68 -28 l0 0 Z" /><glyph glyph-name="" unicode="qQ" d="M393 45 q53 61 55 147 q-1 62 -31 113 q-29 50 -80 80 q-50 30 -112 31 q-62 -1 -113 -31 q-51 -30 -81 -80 q-30 -51 -31 -113 q1 -62 31 -113 q29 -50 80 -80 q50 -30 112 -31 q68 1 121 36 l47 -57 q10 -11 24 -11 q16 1 24 11 q8 10 8 21 q0 11 -7 20 l-47 57 l0 0 ZM224 32 q-68 2 -113 47 l0 0 q-45 45 -47 113 q2 68 47 113 q45 44 113 46 q68 -2 113 -47 q45 -45 47 -112 q-1 -55 -33 -96 l-70 84 q-11 12 -25 12 q-16 -1 -24 -11 q-8 -10 -8 -21 q0 -11 7 -20 l72 -86 q-35 -21 -79 -22 l0 0 Z" /><glyph glyph-name="" unicode="rR" d="M229 138 q40 17 65 52 l0 0 q25 36 26 82 q-2 61 -42 102 q-41 40 -102 42 l-144 0 q-14 0 -23 -9 q-9 -9 -9 -23 l0 -384 q0 -14 9 -23 q9 -9 23 -9 q14 0 23 9 q9 9 9 23 l0 128 l93 0 l105 -147 q10 -13 26 -13 q10 0 19 6 q10 8 13 21 q2 12 -6 24 l-85 119 l0 0 ZM64 352 l112 0 q34 -1 57 -23 q22 -23 23 -57 q-1 -34 -23 -56 q-23 -22 -57 -23 l-112 0 l0 159 l0 0 Z" /><glyph glyph-name="" unicode="sS" d="M350 69 q-10 -56 -57 -82 q-38 -20 -84 -19 q-47 1 -90 13 q-42 11 -67 22 q-12 6 -17 17 q-5 12 -1 25 q6 12 18 17 q11 5 24 0 q59 -23 109 -29 q50 -5 77 10 q21 11 25 37 q6 30 -17 47 q-24 17 -87 34 q-36 10 -74 26 q-37 15 -60 46 q-23 30 -15 82 q9 49 51 77 q69 44 207 8 q13 -4 19 -15 q7 -11 3 -25 q-3 -13 -14 -19 q-12 -6 -25 -3 q-67 17 -104 14 q-37 -3 -51 -14 q-19 -12 -23 -34 q-6 -31 17 -47 q24 -17 87 -34 q0 0 0 0 q36 -10 74 -26 q37 -16 60 -46 q23 -30 15 -82 l0 0 Z" /><glyph glyph-name="" unicode="tT" d="M384 384 q0 -14 -9 -23 l0 0 q-9 -9 -23 -9 l-128 0 l0 -352 q0 -14 -9 -23 q-9 -9 -23 -9 q-14 0 -23 9 q-9 9 -9 23 l0 352 l-128 0 q-14 0 -23 9 q-9 9 -9 23 q0 14 9 23 q9 9 23 9 l320 0 q14 0 23 -9 q9 -9 9 -23 l0 0 Z" /><glyph glyph-name="" unicode="uU" d="M384 384 l0 -226 q-2 -80 -56 -134 q-55 -54 -136 -56 q-81 2 -136 56 q-54 54 -56 134 l0 226 q0 14 9 23 q9 9 23 9 q14 0 23 -9 q9 -9 9 -23 l0 -226 q1 -53 38 -89 q36 -36 90 -37 q54 1 90 37 q37 36 38 89 l0 226 q0 14 9 23 q9 9 23 9 q14 0 23 -9 q9 -9 9 -23 l0 0 Z" /><glyph glyph-name="" unicode="vV" d="M382 372 l-160 -384 q-9 -19 -30 -20 q-21 1 -30 20 l-160 384 q-4 12 0 24 q5 12 18 18 q12 4 24 0 q12 -5 18 -18 l130 -313 l131 313 q5 13 17 18 q12 4 24 0 q13 -6 18 -18 q4 -12 0 -24 l0 0 Z" /><glyph glyph-name="" unicode="wW" d="M573 373 l-144 -384 q-8 -20 -30 -21 q0 0 -1 0 q-22 2 -30 23 l-80 279 l-81 -279 q-8 -21 -30 -23 q-22 0 -31 21 l-144 384 q-4 13 1 24 q5 12 18 17 q13 4 24 -1 q12 -5 17 -18 l110 -293 l85 292 q8 20 31 22 q23 -1 31 -23 l85 -292 l110 293 q5 13 17 18 q11 5 24 1 q13 -4 18 -16 q5 -11 0 -24 l0 0 Z" /><glyph glyph-name="" unicode="xX" d="M377 20 q8 -10 7 -23 l0 0 q-1 -13 -11 -22 q-10 -7 -21 -7 q-14 0 -25 12 l-135 163 l-135 -163 q-11 -11 -25 -11 q-11 0 -20 7 q-11 9 -12 22 q-1 13 7 23 l143 172 l-143 170 q-8 11 -7 24 q1 13 12 22 q10 8 23 7 q13 -1 22 -12 l135 -162 l135 162 q9 11 22 12 q13 1 23 -7 q11 -9 12 -22 q1 -13 -7 -23 l-143 -172 l143 -172 l0 0 Z" /><glyph glyph-name="" unicode="yY" d="M378 365 l-154 -215 l0 -150 q0 -14 -9 -22 q-9 -9 -23 -9 q-14 0 -23 9 q-9 8 -9 22 l0 150 l-154 215 q-8 12 -6 24 q3 13 13 21 q12 8 24 6 q13 -3 21 -13 l134 -187 l133 187 q8 11 21 13 q12 2 24 -5 q11 -9 13 -22 q3 -12 -5 -24 l0 0 Z" /><glyph glyph-name="" unicode="zZ" d="M384 0 q0 -14 -9 -23 l0 0 q-9 -9 -23 -9 l-320 0 q-20 1 -29 18 q-8 19 4 34 l277 332 l-252 0 q-14 0 -23 9 q-9 9 -9 23 q0 14 9 23 q9 9 23 9 l320 0 q20 -1 29 -18 q8 -19 -4 -34 l-277 -332 l252 0 q14 0 23 -9 q9 -9 9 -23 l0 0 Z" /><glyph glyph-name="" unicode="&#xe005;" d="M352 192 l-39 0 q-24 20 -57 28 l0 47 l-32 4 l-32 -4 l0 -47 q-33 -8 -57 -28 l-119 0 q-15 -1 -16 -16 l0 -96 q1 -15 16 -16 l93 0 q16 -29 46 -46 q30 -18 69 -18 q39 0 69 18 q30 17 46 46 l13 0 q14 0 23 -9 q9 -9 9 -23 q0 -13 9 -23 q9 -9 23 -9 l64 0 q14 0 23 9 q9 9 9 23 q-2 68 -47 113 q-45 45 -113 47 l0 0 ZM82 288 l142 15 l142 -15 q16 0 18 17 l0 30 q-2 17 -18 17 l-110 -12 l0 28 q-1 15 -16 16 l-32 0 q-15 -1 -16 -16 l0 -28 l-110 12 q-16 0 -18 -17 l0 -30 q2 -17 18 -17 l0 0 Z" /><glyph glyph-name="" unicode="&#x1f6b0;&#xe006;" d="M416 -32 q0 -14 9 -23 l0 0 q9 -9 23 -9 q14 0 23 9 q9 9 9 23 q-2 16 -16 39 q-14 23 -16 25 q-2 -2 -16 -25 q-14 -23 -16 -39 l0 0 ZM352 256 l-39 0 q-24 20 -57 28 l0 47 l-32 4 l-32 -4 l0 -47 q-33 -8 -57 -28 l-119 0 q-15 -1 -16 -16 l0 -96 q1 -15 16 -16 l93 0 q16 -29 46 -46 q30 -18 69 -18 q39 0 69 18 q30 17 46 46 l13 0 q14 0 23 -9 q9 -9 9 -23 q0 -13 9 -23 q9 -9 23 -9 l64 0 q14 0 23 9 q9 9 9 23 q-2 68 -47 113 q-45 45 -113 47 l0 0 ZM82 352 l142 15 l142 -15 q16 0 18 17 l0 30 q-2 17 -18 17 l-110 -12 l0 28 q-1 15 -16 16 l-32 0 q-15 -1 -16 -16 l0 -28 l-110 12 q-16 0 -18 -17 l0 -30 q2 -17 18 -17 l0 0 Z" /><glyph glyph-name="" unicode="&#xe00d;" d="M576 192 q-1 -13 -10 -22 l0 0 q-9 -9 -22 -10 l-32 0 l1 -160 q-1 -27 -19 -45 q-18 -18 -45 -19 l-321 0 q-27 1 -45 19 q-18 18 -19 45 l0 160 l-32 0 q-14 1 -23 10 q-9 9 -9 22 q0 14 10 24 l256 224 q11 9 22 8 q12 0 22 -7 l106 -94 l0 37 q0 14 9 23 q9 9 23 9 l32 0 q14 0 23 -9 q9 -9 9 -23 l0 -121 l53 -47 q12 -10 11 -24 l0 0 l0 0 ZM248 256 q-22 -2 -24 -24 l0 -80 q2 -22 24 -24 l80 0 q22 2 24 24 l0 80 q-2 22 -24 24 l-80 0 l0 0 Z" /><glyph glyph-name="" unicode="&#xe012;" d="M314 440 q10 8 22 8 l0 0 q12 0 22 -8 l208 -193 q15 -15 8 -35 q-9 -19 -30 -20 l-32 0 l0 -112 q-1 -20 -14 -34 q-14 -13 -34 -14 l-168 0 q-18 75 -71 128 q-53 54 -128 72 q2 9 9 15 l208 193 l0 0 ZM304 256 q-15 -1 -17 -16 l0 -64 q2 -15 17 -16 l64 0 q15 1 16 16 l0 64 q-1 15 -16 16 l-64 0 l0 0 ZM256 -40 q-2 -22 -24 -24 q-22 2 -24 24 q-2 78 -54 130 q-52 52 -130 54 q-22 2 -24 24 q2 22 24 24 q65 -1 117 -32 q52 -31 83 -83 q31 -52 32 -117 l0 0 ZM0 -32 q0 14 9 23 l0 0 q9 9 23 9 q14 0 23 -9 q9 -9 9 -23 q0 -14 -9 -23 q-9 -9 -23 -9 q-14 0 -23 9 q-9 9 -9 23 l0 0 ZM0 72 q2 22 24 24 q58 -1 96 -40 q39 -38 40 -96 q-2 -22 -24 -24 q-22 2 -24 24 q-1 37 -26 62 q-25 25 -62 26 q-22 2 -24 24 l0 0 Z" /><glyph glyph-name="" unicode="&#xe03f;" d="M159 125 l0 19 q-1 15 -15 17 q-14 -1 -15 -16 l-1 -20 q-17 -6 -25 -21 q-9 -15 -6 -32 q3 -18 16 -29 q13 -11 31 -11 q18 0 31 11 q13 11 16 29 q3 17 -6 32 q-9 15 -26 21 l0 0 ZM255 336 q-1 48 -32 79 l0 0 q-31 32 -79 33 q-48 -1 -79 -33 q-32 -31 -33 -79 l0 -167 q-31 -37 -32 -89 q2 -61 42 -102 q41 -40 102 -42 q61 2 101 42 q41 41 42 102 q-1 52 -32 89 l0 167 l0 0 ZM220 55 q-9 -25 -30 -40 l0 0 q-20 -14 -46 -14 q-26 0 -47 15 q-20 15 -29 39 q-8 25 0 49 q7 24 28 40 l0 192 q1 20 14 34 q14 13 34 14 q20 -1 33 -14 q14 -14 14 -34 l0 -192 q22 -16 29 -40 q8 -24 0 -49 l0 0 ZM499 105 q-11 8 -23 7 l0 0 q-13 -2 -22 -12 l-6 -9 l0 293 q0 14 -9 23 q-9 9 -23 9 q-14 0 -23 -9 q-9 -9 -9 -23 l0 -293 l-8 9 q-9 10 -21 12 q-13 1 -24 -7 q-10 -9 -12 -21 q-1 -13 7 -24 l64 -80 q11 -12 26 -12 q15 0 25 12 l64 80 q8 11 7 24 q-2 12 -13 21 l0 0 Z" /><glyph glyph-name="" unicode="&#xe040;" d="M159 125 l0 211 q-1 15 -15 16 q-15 -1 -16 -16 l0 -211 q-17 -6 -25 -21 q-9 -15 -6 -32 q3 -18 16 -29 q13 -11 31 -11 q18 0 31 11 q13 11 16 29 q3 17 -6 32 q-9 15 -26 21 l0 0 ZM255 336 q-1 48 -32 79 l0 0 q-31 32 -79 33 q-48 -1 -79 -33 q-32 -31 -33 -79 l0 -167 q-31 -37 -32 -89 q2 -61 42 -102 q41 -40 102 -42 q61 2 101 42 q41 41 42 102 q-1 52 -32 89 l0 167 l0 0 ZM220 55 q-9 -25 -30 -40 l0 0 q-20 -14 -46 -14 q-26 0 -47 15 q-20 15 -29 39 q-8 25 0 49 q7 24 28 40 l0 192 q1 20 14 34 q14 13 34 14 q20 -1 33 -14 q14 -14 14 -34 l0 -192 q22 -16 29 -40 q8 -24 0 -49 l0 0 ZM504 324 l-64 80 q-10 11 -25 11 q-15 0 -25 -11 l-64 -80 q-8 -11 -7 -24 q2 -12 12 -21 q11 -8 24 -7 q12 2 21 12 l8 9 l0 -293 q0 -14 9 -23 q9 -9 23 -9 q14 0 23 9 q9 9 9 23 l0 293 l7 -9 q10 -12 25 -12 q11 0 20 7 q10 9 12 21 q1 13 -8 24 l0 0 Z" /><glyph glyph-name="" unicode="&#xe041;" d="M496 416 q20 -1 34 -14 l0 0 q13 -14 14 -34 l0 -240 l64 0 q14 0 23 -9 q9 -9 9 -23 q0 -14 -9 -23 q-9 -9 -23 -9 l-321 0 q-7 42 -37 68 q-31 27 -74 28 q-43 -1 -74 -28 q-30 -26 -37 -68 l-17 0 q-20 1 -34 14 q-13 14 -14 34 l0 256 q1 20 14 34 q14 13 34 14 l448 0 l0 0 ZM64 336 l0 -152 q15 12 32 21 l0 131 q-1 15 -16 16 q-15 -1 -16 -16 l0 0 l0 0 ZM176 224 q8 0 16 -1 l0 113 q-1 15 -16 16 q-15 -1 -16 -16 l0 -113 q8 1 16 1 l0 0 ZM256 205 q17 -9 32 -21 l0 152 q-1 15 -16 16 q-15 -1 -16 -16 l0 -131 l0 0 ZM352 336 l0 -192 q1 -15 16 -16 q15 1 16 16 l0 192 q-1 15 -16 16 q-15 -1 -16 -16 l0 0 ZM480 336 q-1 15 -16 16 q-15 -1 -16 -16 l0 -192 q1 -15 16 -16 q15 1 16 16 l0 192 l0 0 ZM96 48 q1 34 23 57 l0 0 q23 22 57 23 q34 -1 57 -23 q22 -23 23 -57 q-1 -34 -23 -57 q-23 -22 -57 -23 q-34 1 -57 23 q-22 23 -23 57 l0 0 ZM176 16 q14 0 23 9 l0 0 q9 9 9 23 q0 14 -9 23 q-9 9 -23 9 q-14 0 -23 -9 q-9 -9 -9 -23 q0 -14 9 -23 q9 -9 23 -9 l0 0 Z" /><glyph glyph-name="" unicode="&#xe059;" d="M627 221 q15 6 12 22 q-7 15 -22 12 l-11 -4 q-13 24 -37 36 l3 11 q2 6 -2 14 q-4 7 -15 8 q-13 -1 -17 -13 l-3 -11 q-6 0 -19 -2 q-13 -2 -30 -12 l-8 9 q-4 3 -11 5 q-7 2 -15 -5 q-10 -12 0 -25 l9 -9 q-10 -18 -12 -31 q-1 -7 -4 -16 q-2 1 -4 2 q-7 4 -12 4 q-11 0 -16 -10 q-6 -15 8 -24 l9 -4 q-12 -16 -22 -24 q-11 -9 -13 -10 q0 0 0 0 l-4 9 q-8 14 -23 9 q-15 -8 -9 -23 l4 -9 q-6 -2 -12 -3 q-15 -2 -35 -14 l-10 9 q-12 10 -25 -1 q-9 -13 2 -25 l9 -9 q-13 -22 -11 -48 l-12 -4 q-15 -6 -12 -22 q6 -15 22 -12 l11 4 q13 -24 37 -36 l-3 -11 q-3 -16 13 -21 q16 -3 21 12 l3 11 q8 0 17 1 q17 3 33 8 q0 0 0 0 l3 -9 q7 -15 23 -11 q15 7 11 23 l-4 10 q24 10 44 23 l7 -8 q11 -12 25 -4 q12 11 3 25 l-6 9 q19 16 35 35 l9 -7 q14 -8 24 4 q9 14 -3 25 l-9 7 q13 20 23 43 l10 -3 q16 -4 23 11 q4 16 -11 22 l-11 4 q1 2 2 4 q8 24 7 45 l11 4 l0 0 ZM416 32 q-14 0 -23 9 l0 0 q-9 9 -9 23 q0 14 9 23 q9 9 23 9 q14 0 23 -9 q9 -9 9 -23 q0 -14 -9 -23 q-9 -9 -23 -9 l0 0 ZM272 222 q15 8 9 23 l-4 9 q6 2 12 3 q15 2 35 14 l10 -9 q12 -10 25 1 q10 13 -2 25 l-9 9 q13 22 11 48 l12 4 q15 6 12 22 q-6 15 -22 12 l-11 -4 q-13 24 -37 36 l3 11 q3 16 -12 21 q-17 3 -22 -12 l-3 -11 q-8 0 -17 -1 q-17 -3 -33 -8 l-3 9 q-7 15 -24 11 q-14 -7 -10 -23 l4 -10 q-23 -10 -44 -23 l-7 8 q-11 12 -24 4 q-13 -11 -4 -25 l6 -9 q-19 -16 -35 -35 l-8 6 q-15 9 -25 -3 q-9 -14 4 -25 l8 -7 q-13 -20 -23 -44 l-10 4 q-16 4 -23 -11 q-4 -16 11 -22 l11 -4 q-1 -2 -2 -5 q-8 -23 -7 -44 l-11 -4 q-15 -6 -12 -22 q7 -15 22 -12 l11 4 q13 -23 37 -36 l-3 -11 q-2 -6 2 -14 q4 -7 15 -8 q13 1 17 13 l3 11 q6 0 19 2 q13 2 30 12 l8 -9 q3 -3 11 -5 q7 -2 15 5 q10 12 0 25 l-9 9 q10 18 12 31 q1 7 4 16 q2 -1 4 -2 q7 -4 12 -4 q11 0 16 10 q6 15 -8 24 l-9 4 q12 16 23 25 q11 8 12 8 l4 -8 q8 -14 23 -9 l0 0 ZM128 192 q-14 0 -23 9 l0 0 q-9 10 -9 24 q0 13 9 23 q9 9 23 9 q14 0 23 -9 q9 -10 9 -23 q0 -14 -9 -24 q-9 -9 -23 -9 l0 0 ZM208 288 q-15 1 -16 16 q1 15 16 16 q15 -1 16 -16 q-1 -15 -16 -16 l0 0 Z" /><glyph glyph-name="" unicode="&#xe05a;" d="M543 345 q-8 20 -30 16 l-15 -4 q-17 31 -48 47 l4 14 q3 22 -17 29 q-22 4 -29 -17 l-4 -14 q-7 1 -22 -1 q-15 -2 -45 -11 l-4 12 q-9 20 -30 14 q-20 -9 -15 -30 l5 -12 q-31 -13 -59 -32 l-8 11 q-15 16 -33 5 q-17 -15 -5 -33 l8 -11 q-26 -22 -47 -47 l-11 8 q-19 11 -33 -6 q-11 -18 5 -33 l11 -8 q-18 -27 -31 -58 l-13 4 q-21 5 -30 -15 q-5 -21 15 -30 l13 -4 q-9 -31 -10 -45 q-1 -14 -1 -21 q0 0 0 0 l-15 -5 q-20 -8 -16 -29 q9 -21 30 -16 l15 5 q16 -31 48 -48 l-4 -14 q-2 -8 3 -18 q5 -11 20 -12 q18 1 23 18 l4 14 q8 -1 25 2 q18 3 40 17 l11 -12 q5 -5 14 -7 q10 -2 20 6 q14 17 1 34 l-13 12 q12 19 16 42 q2 10 6 20 q2 -1 5 -2 q9 -5 17 -6 q14 1 21 14 q8 20 -11 31 l-12 6 q16 22 30 33 q14 11 16 12 q1 0 1 0 l5 -12 q10 -19 31 -12 q18 11 12 31 l-5 12 q1 1 1 1 q8 2 15 4 q26 4 45 18 l14 -12 q17 -13 33 2 q13 17 -1 33 l-13 12 q17 29 15 64 l16 5 q20 8 16 29 l0 0 ZM192 80 q-20 1 -34 14 l0 0 q-13 14 -14 34 q1 20 14 34 q14 13 34 14 q20 -1 34 -14 q14 -14 14 -34 q0 -20 -14 -34 q-14 -13 -34 -14 l0 0 ZM272 216 q-22 2 -24 24 q2 21 24 23 q21 -2 23 -23 q-1 -22 -23 -24 l0 0 Z" /><glyph glyph-name="" unicode="&#xe05b;" d="M384 160 l64 192 l-109 0 q-23 0 -41 13 q-18 13 -26 35 q-8 22 -26 35 q-18 13 -41 13 l-141 0 l64 -288 l256 0 l0 0 ZM0 -32 q0 -14 9 -23 l0 0 q9 -9 23 -9 l448 0 q14 0 23 9 q9 9 9 23 l0 64 l-512 0 l0 -64 l0 0 ZM480 224 l-41 0 l-21 -64 l14 0 q15 -1 16 -16 q-1 -15 -16 -16 l-352 0 q-15 1 -16 16 q1 15 16 16 l15 0 l-14 64 l-49 0 q-14 0 -23 -9 q-9 -9 -9 -23 l0 -128 l512 0 l0 128 q0 14 -9 23 q-9 9 -23 9 l0 0 Z" /><glyph glyph-name="" unicode="&#xe05c;" d="M568 112 q-10 13 -26 16 l0 0 q-16 2 -30 -8 l-119 -88 l-121 0 q-14 1 -15 16 q2 15 15 16 l78 0 q12 0 22 7 q9 8 12 20 q2 15 -8 26 q-9 11 -24 11 l-161 0 q-41 0 -74 -26 l-47 -38 l-55 1 q-13 -2 -15 -17 l0 -96 q2 -15 15 -16 l346 0 q34 0 62 20 l135 100 q15 10 17 26 q3 16 -7 30 l0 0 ZM160 272 l64 0 l0 -64 q1 -15 16 -16 l64 0 q15 1 16 16 l0 64 l64 0 q15 1 16 16 l0 64 q-1 15 -16 16 l-64 0 l0 64 q-1 15 -16 16 l-64 0 q-15 -1 -16 -16 l0 -64 l-64 0 q-15 -1 -16 -16 l0 -64 q1 -15 16 -16 l0 0 Z" /><glyph glyph-name="" unicode="&#xe05d;" d="M448 16 q1 23 21 35 l40 16 l15 38 q8 13 20 19 l0 196 q0 14 -9 23 q-9 9 -23 9 q-14 0 -23 -9 q-9 -9 -9 -23 l0 -112 q-1 -15 -16 -16 q-15 1 -16 16 l0 176 q0 14 -9 23 q-9 9 -23 9 q-14 0 -23 -9 q-9 -9 -9 -23 l0 -176 q-1 -15 -16 -16 q-15 1 -16 16 l0 208 q0 14 -9 23 q-9 9 -23 9 q-14 0 -23 -9 q-9 -9 -9 -23 l0 -208 q-1 -15 -16 -16 q-15 1 -16 16 l0 176 q0 14 -9 23 q-9 9 -23 9 q-14 0 -23 -9 q-9 -9 -9 -23 l0 -279 l-60 59 q-12 12 -28 12 q-16 0 -28 -11 q-11 -12 -12 -29 q0 -16 12 -28 l113 -113 q59 -58 141 -59 l38 0 q65 1 112 41 l-9 4 q-22 12 -23 35 l0 0 ZM350 76 l-30 -11 l-12 -30 q-2 -3 -4 -3 q-2 0 -4 2 l-12 31 l-30 12 q-2 1 -2 4 q0 2 2 3 l30 12 l12 30 q2 2 4 2 q2 0 4 -2 l12 -30 l30 -12 q2 -2 2 -3 q0 -3 -2 -4 q0 0 0 -1 l0 0 ZM80 224 q4 0 6 4 l21 49 l49 21 q4 2 4 6 q0 0 0 1 q-1 3 -4 5 l-49 21 l-21 49 q-2 4 -6 4 q-4 0 -6 -4 l-21 -49 l-49 -21 q-4 -2 -4 -5 q0 -4 4 -6 l49 -21 l21 -49 q2 -5 6 -5 l0 0 ZM639 16 q0 4 -4 6 l-49 21 l-21 49 q-1 4 -5 4 q-4 0 -6 -4 l-21 -49 l-49 -21 q-4 -2 -4 -6 q0 -4 4 -6 l49 -21 l21 -49 q2 -4 6 -4 q4 0 6 4 l21 49 l49 21 q3 2 3 6 l0 0 Z" /><glyph glyph-name="" unicode="&#xe05e;" d="M416 384 q14 0 23 9 l0 0 q9 9 9 22 q0 14 -9 23 q-9 9 -23 9 q-14 0 -23 -9 q-9 -9 -9 -23 q0 -13 9 -22 q9 -9 23 -9 l0 0 ZM519 112 l-159 0 q-7 1 -8 8 q1 7 8 8 l128 0 q11 0 18 9 q7 8 6 20 q-6 18 -25 19 l-199 0 l47 17 q20 8 16 30 q-8 20 -30 16 l-108 -33 q-39 -14 -62 -45 q-22 -32 -23 -72 l0 -26 q28 -6 46 -27 q17 -22 18 -51 q0 -16 -6 -30 q27 -19 62 -19 l208 0 q11 0 18 9 q7 8 6 20 q-6 18 -25 19 l-95 0 q-7 1 -8 8 q1 7 8 8 l128 0 q11 0 18 9 q7 8 6 20 q-6 18 -25 19 l-127 0 q-7 1 -8 8 q1 7 8 8 l160 0 q11 0 18 9 q7 8 6 20 q-6 18 -25 19 l0 0 ZM312 270 q8 2 16 2 q9 0 19 -3 l15 48 q3 11 -2 20 q-6 10 -18 11 q-19 1 -26 -17 l-21 -66 l17 5 l0 0 ZM496 224 q20 1 34 14 l0 0 q13 13 14 33 q-1 20 -14 34 q-14 14 -34 14 q-20 0 -34 -14 q-13 -13 -14 -33 q1 -20 14 -34 q14 -13 34 -14 l0 0 ZM94 62 q0 0 1 0 l0 0 q0 0 1 0 l0 26 q1 51 30 91 q28 40 77 57 l74 23 l34 108 q3 11 -3 20 q-6 9 -17 11 q-19 1 -26 -17 l-34 -107 q-2 -7 -10 -5 q-6 3 -5 10 l44 138 q3 11 -3 20 q-6 9 -18 11 q-19 0 -25 -18 l-48 -151 q-3 -7 -10 -6 q-8 3 -6 10 l39 122 q3 12 -3 21 q-6 9 -17 11 q-19 0 -26 -18 l-60 -190 l-2 50 q-2 22 -24 24 q-22 -1 -25 -23 l0 -113 q1 -34 17 -61 q17 -28 45 -44 l0 0 ZM112 32 q-20 -1 -34 -14 l0 0 q-13 -13 -14 -33 q1 -20 14 -34 q14 -14 34 -14 q20 0 34 14 q13 13 14 33 q-1 20 -14 34 q-14 13 -34 14 l0 0 Z" /><glyph glyph-name="" unicode="&#xe05f;" d="M359 252 l145 -118 q18 -15 22 -38 l82 0 q13 1 22 10 q9 9 9 22 l0 161 q0 13 -9 23 q-9 9 -22 9 l-95 0 q-31 31 -71 47 q-40 17 -84 17 l-8 0 q-12 0 -22 -9 l-93 -85 l-27 19 l81 74 l-6 0 q-67 -1 -121 -37 l-123 96 q-7 5 -15 5 q-11 0 -19 -9 q-12 -19 4 -34 l592 -464 q19 -12 34 4 q12 19 -4 34 l-136 106 q0 14 -11 24 l-149 121 l-12 -10 l-25 21 l65 60 q12 8 23 0 q8 -12 0 -23 l-27 -26 l0 0 ZM32 321 q-13 0 -22 -9 l0 0 q-9 -10 -9 -23 l0 -160 q0 -13 9 -23 q9 -9 22 -9 l114 0 l91 -82 q21 -16 47 -14 q25 3 42 24 l18 -16 q12 -9 27 -8 q15 2 25 14 l13 16 l-369 290 l-8 0 l0 0 Z" /><glyph glyph-name="" unicode="&#xe060;" d="M543 320 l0 -224 q0 -14 9 -23 q9 -9 22 -9 l64 0 l0 256 l-95 0 l0 0 ZM591 96 q-14 1 -16 16 q2 14 16 15 q14 -1 15 -15 q1 -15 -15 -16 l0 0 ZM0 320 l0 -256 l63 0 q14 0 23 9 q9 9 9 23 l1 180 l-56 44 l-40 0 l0 0 ZM64 112 q-2 -15 -15 -16 q-14 1 -15 16 q1 14 15 15 q13 -1 15 -15 l0 0 ZM128 96 l18 0 l91 -82 q21 -16 47 -14 q25 3 42 24 l18 -16 q12 -9 27 -7 q15 1 25 13 l13 16 l-281 222 l0 -156 l0 0 ZM495 85 q0 15 -11 24 l-149 122 l-12 -11 l-25 20 l65 60 q12 9 22 -1 q9 -12 -1 -23 l-26 -24 l146 -118 q4 -3 8 -7 l0 194 q-31 31 -71 47 q-40 17 -84 17 l-8 0 q-13 0 -22 -8 l-93 -87 l-26 20 l81 74 l-6 0 q-67 -1 -121 -37 l-123 96 q-7 5 -15 5 q-11 0 -19 -9 q-12 -19 4 -34 l591 -463 q19 -12 34 4 q12 19 -4 34 l-135 105 l0 0 Z" /><glyph glyph-name="" unicode="&#xe061;" d="M608 89 q-22 -2 -24 -24 q2 -22 24 -24 q22 2 24 24 q-2 22 -24 24 l0 0 ZM477 173 q-12 29 -26 73 l0 0 q-12 34 -24 65 l0 0 q-11 32 -23 49 q-29 41 -74 64 q-44 24 -96 24 l-42 0 q-82 -2 -136 -56 q-54 -54 -56 -136 q0 -43 17 -79 q17 -37 47 -64 l0 -177 l223 0 l0 32 l64 0 q27 1 45 19 q18 18 19 44 l-95 1 q-14 0 -23 9 q-9 9 -9 23 q0 14 9 23 q9 9 23 9 l96 0 l0 32 l32 0 q18 1 27 15 q9 13 2 30 l0 0 ZM336 224 q-14 0 -23 9 l0 0 q-9 9 -9 23 q0 14 9 23 q9 9 23 9 q14 0 23 -9 q9 -9 9 -23 q0 -14 -9 -23 q-9 -9 -23 -9 l0 0 ZM480 89 q-21 -2 -23 -24 q2 -22 23 -24 q10 0 17 7 q7 7 7 17 q-2 22 -24 24 l0 0 ZM608 137 q22 2 24 24 q-2 22 -24 24 q-22 -2 -24 -24 q2 -22 24 -24 l0 0 ZM544 137 q-21 -2 -23 -24 q2 -22 23 -24 q10 0 17 7 q7 7 7 17 q-2 22 -24 24 l0 0 ZM544 41 q-21 -2 -23 -24 q2 -22 23 -24 q10 0 17 7 q7 7 7 17 q-2 22 -24 24 l0 0 ZM608 -7 q-22 -2 -24 -24 q2 -22 24 -24 q22 2 24 24 q-2 22 -24 24 l0 0 Z" /><glyph glyph-name="" unicode="&#xe062;" d="M607 137 q22 2 24 23 q-2 21 -24 23 q-21 -2 -23 -23 q2 -21 23 -23 l0 0 ZM607 41 q22 2 24 24 q-2 21 -24 23 q-22 -2 -24 -24 q3 -21 24 -23 l0 0 ZM631 -21 l-190 149 l7 0 q18 1 27 14 q9 14 2 30 q-11 27 -24 68 q-12 35 -25 68 q-12 33 -24 51 q-29 42 -74 65 q-44 24 -96 24 l-42 0 q-64 -1 -112 -37 l-41 32 q-7 5 -15 5 q-11 0 -19 -9 q-12 -19 4 -34 l591 -463 q19 -12 34 4 q13 17 -3 33 l0 0 ZM320 33 q-14 0 -22 9 l0 0 q-9 9 -9 22 q0 13 9 23 q8 9 22 10 l6 0 l-308 240 q-18 -37 -18 -80 q0 -43 17 -80 q17 -36 47 -63 l0 -177 l223 0 l0 31 l64 0 q26 1 43 17 q18 16 20 41 l-7 6 l-87 0 l0 1 ZM543 89 q22 2 24 24 q-2 21 -24 23 q-22 -2 -24 -24 q3 -21 24 -23 l0 0 Z" /><glyph glyph-name="" unicode="&#xe063;" d="M0 264 q-1 -46 16 -84 l0 0 q17 -39 48 -67 l0 -177 l160 0 l0 195 l-220 161 q-3 -14 -4 -28 l0 0 ZM336 80 l160 0 l16 48 l-255 0 l0 -192 l146 0 q21 0 37 12 q17 12 24 32 l0 4 l-127 0 q-15 1 -16 16 q1 15 16 16 l139 0 l10 32 l-149 0 q-15 1 -16 16 q0 15 15 16 l0 0 ZM509 173 q-11 27 -24 68 l0 0 q-12 35 -25 68 l0 0 q-12 33 -24 51 q-29 41 -74 64 q-44 24 -96 24 l-66 0 q-63 -1 -114 -34 q-50 -34 -73 -90 l226 -164 l273 0 q0 6 -3 13 l0 0 ZM352 224 q-14 0 -23 9 l0 0 q-9 9 -9 23 q0 14 9 23 q9 9 23 9 q14 0 22 -9 q9 -9 9 -23 q0 -14 -9 -23 q-9 -9 -22 -9 l0 0 Z" /><glyph glyph-name="" unicode="&#xe064;" d="M208 273 q-15 -1 -16 -16 q2 -14 15 -15 q14 1 16 16 q0 13 -15 15 l0 0 ZM272 209 q-14 -1 -15 -16 q1 -15 16 -16 q15 1 16 16 q-3 14 -17 16 l0 0 ZM509 173 q-12 29 -26 73 l0 0 q-12 34 -24 65 l0 0 q-11 32 -23 49 q-29 41 -74 64 q-44 24 -96 24 l-74 0 q-82 -2 -136 -56 q-54 -54 -56 -136 q0 -43 17 -80 q17 -36 47 -63 l0 -177 l256 0 l0 64 l64 0 q27 1 45 19 q17 18 18 44 l0 65 l32 0 q19 1 28 15 q9 13 2 30 l0 0 ZM368 208 l-12 0 q-22 -2 -30 -20 q-7 -18 7 -35 l9 -8 q9 -12 0 -23 q-5 -5 -11 -5 q-7 0 -12 5 l-8 9 q-17 14 -35 7 q-18 -8 -20 -30 l0 -12 q-1 -15 -16 -16 q-15 1 -16 16 l0 12 q-2 22 -20 30 q-18 7 -35 -7 l-8 -9 q-5 -5 -12 -5 q-6 0 -11 5 q-9 11 0 23 l9 8 q14 17 7 35 q-8 18 -30 20 l-12 0 q-15 1 -16 16 q1 15 16 16 l12 0 q22 2 30 20 q7 18 -7 35 l-9 8 q-9 12 0 23 q12 9 23 0 l8 -9 q17 -14 35 -7 q19 8 20 30 l0 12 q1 15 16 16 q15 -1 16 -16 l0 -12 q2 -22 20 -30 q18 -7 35 7 l8 9 q12 9 23 0 q9 -11 0 -23 l-9 -8 q-14 -17 -7 -35 q8 -18 30 -20 l12 0 q14 -1 15 -16 q-1 -15 -15 -16 l0 0 Z" /><glyph glyph-name="" unicode="&#xe065;" d="M512 160 l1 -160 q-1 -27 -19 -45 q-18 -18 -45 -19 l-321 0 q-27 1 -45 19 q-18 18 -19 45 l0 160 l-32 0 q-14 1 -23 10 q-9 9 -9 22 q0 14 10 24 l256 224 q11 9 22 8 q12 0 22 -7 l106 -94 l0 37 q0 14 9 23 q9 9 23 9 l32 0 q14 0 23 -9 q9 -9 9 -23 l0 -121 l53 -47 q12 -10 11 -24 q-1 -13 -10 -22 q-9 -9 -22 -10 l-32 0 l0 0 ZM288 160 q27 1 45 19 l0 0 q18 18 19 45 q-1 27 -19 45 q-18 18 -45 19 q-27 -1 -45 -19 q-18 -18 -19 -45 q1 -27 19 -45 q18 -18 45 -19 l0 0 ZM192 32 l192 0 q15 1 16 16 q-1 34 -23 57 q-23 22 -57 23 l-64 0 q-34 -1 -57 -23 q-22 -23 -23 -57 q1 -15 16 -16 l0 0 Z" /><glyph glyph-name="" unicode="&#xe066;" d="M218 440 q10 8 22 8 l0 0 q12 0 22 -8 l208 -193 q10 -9 10 -23 l-144 0 q-30 -1 -48 -22 l0 38 q-1 15 -16 16 l-64 0 q-15 -1 -16 -16 l0 -64 q1 -15 16 -16 l63 0 l0 -128 l-159 0 q-20 1 -34 14 q-13 14 -14 34 l0 112 l-32 0 q-21 1 -30 20 q-7 20 8 35 l208 193 l0 0 ZM336 192 l224 0 q14 0 23 -9 q9 -9 9 -23 l0 -160 l32 0 q15 -1 16 -16 q-1 -20 -14 -34 q-14 -13 -34 -14 l-289 0 q-20 1 -33 14 q-14 14 -15 34 q2 15 16 16 l32 0 l0 160 q0 14 10 23 q9 9 23 9 l0 0 ZM352 144 l0 -144 l192 0 l0 144 l-192 0 l0 0 Z" /><glyph glyph-name="" unicode="&#xe067;" d="M196 3 q-15 15 -15 34 l0 0 q0 20 15 34 l8 9 l-12 0 q-20 0 -34 14 q-13 14 -14 34 q1 20 14 34 q14 13 34 14 l12 0 l-8 9 q-15 14 -15 34 q0 19 15 33 q14 14 34 14 q14 0 26 -7 l0 27 q-1 28 -20 47 q-20 18 -50 19 q-29 -1 -45 -16 q-16 -15 -30 -39 q-2 -4 -5 -8 q-69 -109 -102 -231 q-4 -15 -4 -30 q2 -47 39 -73 q37 -27 86 -15 l60 15 q33 10 52 35 q-4 0 -7 -1 q-20 1 -34 14 l0 0 ZM343 297 l1 135 q-1 15 -16 16 l-16 0 q-15 -1 -16 -16 l-1 -135 q11 7 23 7 q14 0 25 -7 l0 0 ZM422 26 q9 12 0 23 l-9 8 q-14 17 -7 35 q8 19 30 20 l12 0 q15 1 16 16 q-1 15 -16 16 l-12 0 q-22 2 -30 20 q-7 18 7 35 l9 8 q9 12 0 23 q-11 9 -23 0 l-8 -9 q-17 -14 -35 -7 q-18 8 -20 30 l0 12 q-1 14 -16 15 q-15 -1 -16 -15 l0 -12 q-2 -22 -20 -30 q-18 -7 -35 7 l-8 9 q-12 9 -23 0 q-9 -12 0 -23 l9 -8 q14 -17 7 -35 q-8 -19 -30 -20 l-12 0 q-15 -1 -16 -16 q1 -15 16 -16 l12 0 q22 -2 30 -20 q7 -18 -7 -35 l-9 -8 q-9 -12 0 -23 q5 -5 11 -5 q7 0 12 5 l8 9 q17 14 35 7 q18 -8 20 -30 l0 -12 q1 -15 16 -16 q15 1 16 16 l0 12 q2 22 20 30 q18 7 35 -7 l8 -9 q5 -5 12 -5 q6 1 11 5 l0 0 ZM288 145 q-15 1 -16 15 q1 14 16 17 q15 -2 16 -16 q-1 -14 -16 -16 l0 0 ZM352 81 q-15 1 -16 16 q1 14 16 15 q15 -1 16 -16 q-1 -14 -16 -15 l0 0 ZM636 58 q-33 122 -102 231 q-3 4 -5 8 q-14 24 -30 39 q-16 15 -45 16 q-30 -1 -49 -19 q-20 -19 -21 -47 l0 -27 q12 7 27 8 q19 -1 33 -15 q15 -14 15 -33 q0 -20 -15 -34 l-8 -9 l12 0 q20 -1 34 -14 q13 -14 14 -34 q-1 -20 -14 -34 q-14 -13 -34 -14 l-12 0 l8 -9 q14 -14 14 -34 q0 -19 -14 -33 q-14 -14 -33 -15 q-4 1 -8 1 q19 -25 52 -34 l60 -16 q49 -12 86 15 q37 26 39 73 q0 15 -4 30 l0 0 Z" /><glyph glyph-name="" unicode="&#xe068;" d="M96 144 q0 19 14 32 l72 68 q1 1 3 2 q1 1 2 2 q-17 38 -59 40 l-64 0 q-27 -1 -45 -19 q-18 -18 -19 -45 l0 -96 q0 -14 9 -23 q9 -9 22 -9 l1 -128 q0 -14 9 -23 q9 -9 23 -9 l64 0 q14 0 23 9 q9 9 9 23 l0 96 l-50 48 q-14 13 -14 32 l0 0 ZM480 320 q27 1 45 19 l0 0 q18 18 19 45 q-1 27 -19 45 q-18 18 -45 19 q-27 -1 -45 -19 q-18 -18 -19 -45 q1 -27 19 -45 q18 -18 45 -19 l0 0 ZM96 320 q27 1 45 19 l0 0 q18 18 19 45 q-1 27 -19 45 q-18 18 -45 19 q-27 -1 -45 -19 q-18 -18 -19 -45 q1 -27 19 -45 q18 -18 45 -19 l0 0 ZM444 153 l-72 68 q-6 5 -13 2 q-7 -3 -7 -11 l0 -36 l-128 0 l0 36 q0 8 -7 11 q-7 3 -13 -2 l-72 -68 q-8 -9 0 -18 l72 -68 q6 -5 13 -2 q7 3 7 11 l0 36 l128 0 l0 -36 q0 -8 7 -11 q7 -3 13 2 l72 68 q8 9 0 18 l0 0 ZM512 288 l-64 0 q-20 0 -36 -11 q-16 -11 -23 -29 q1 -1 2 -2 q2 -1 3 -2 l72 -68 q14 -13 14 -32 q0 -19 -14 -32 l-50 -48 l0 -96 q0 -14 9 -23 q9 -9 23 -9 l64 0 q14 0 23 9 q9 9 9 23 l0 128 q14 0 23 9 q9 9 9 23 l0 96 q-1 27 -19 45 q-18 18 -45 19 l0 0 Z" /><glyph glyph-name="" unicode="&#xe069;" d="M238 287 l-40 141 q-3 17 15 20 l56 0 q19 -1 28 -16 l101 -176 l116 0 q29 -1 60 -19 q31 -18 34 -45 q-3 -28 -34 -46 q-31 -17 -60 -18 l-73 0 l190 -149 q16 -15 4 -34 q-15 -16 -34 -4 l-592 464 q-16 15 -4 34 q15 16 34 4 l199 -156 l0 0 ZM42 319 l321 -253 l-66 -114 q-9 -15 -28 -16 l-56 0 q-18 3 -15 20 l49 173 l-103 0 l-43 -59 q-5 -6 -13 -6 l-42 0 q-13 1 -14 15 q0 1 1 3 l31 111 l-31 109 q-1 2 -1 4 q0 10 10 13 l0 0 l0 0 Z" /><glyph glyph-name="" unicode="&#xe06a;" d="M379 354 l-43 43 q-20 19 -45 19 l-67 0 q0 14 -9 23 q-9 9 -23 9 l-65 0 q-13 0 -23 -9 q-9 -9 -9 -23 l1 -96 l128 0 l0 32 l67 0 l43 -43 q11 -10 23 0 l22 22 q10 12 0 23 l0 0 ZM236 288 l-152 0 q-25 -1 -43 -17 q-18 -16 -20 -41 l-21 -224 q-2 -29 17 -49 q18 -20 47 -21 l191 0 q29 1 47 21 q19 20 17 49 l-21 224 q-2 25 -19 41 q-18 16 -43 17 l0 0 ZM239 115 q-1 -12 -13 -14 l-40 0 l0 -40 q-1 -12 -14 -13 l-26 0 q-12 1 -14 13 l0 40 l-39 0 q-12 2 -13 14 l0 26 q1 12 13 14 l40 0 l0 40 q1 13 14 13 l26 0 q13 -1 14 -13 l0 -40 l40 0 q12 -1 13 -14 l0 -26 l-1 0 Z" /><glyph glyph-name="" unicode="&#xe06b;" d="M236 288 l-152 0 q-25 -1 -43 -17 q-18 -16 -20 -41 l-21 -224 q-2 -29 17 -49 q18 -20 47 -21 l191 0 q29 1 47 21 q19 20 17 49 l-21 224 q-2 25 -19 41 q-18 16 -43 17 l0 0 ZM159 32 q-26 1 -44 17 l0 0 q-18 17 -19 42 q2 20 21 50 q20 29 35 47 q8 8 17 0 q14 -18 34 -47 q19 -30 21 -50 q-1 -25 -19 -42 q-18 -16 -46 -17 l0 0 ZM379 354 l-43 43 q-20 19 -45 19 l-67 0 q0 14 -9 23 q-9 9 -23 9 l-65 0 q-13 0 -23 -9 q-9 -9 -9 -23 l1 -96 l128 0 l0 32 l67 0 l43 -43 q11 -10 23 0 l22 22 q10 12 0 23 l0 0 Z" /><glyph glyph-name="" unicode="&#xe06c;" d="M288 193 q-15 -1 -16 -16 q1 -14 16 -15 q15 1 16 15 q-1 14 -16 16 l0 0 ZM224 257 q-15 -1 -16 -16 q2 -15 15 -16 q14 1 16 16 q0 14 -15 16 l0 0 ZM467 364 l-192 80 q-9 4 -19 4 q-10 0 -18 -4 l-192 -80 q-29 -13 -30 -43 q3 -129 51 -215 q48 -85 104 -128 q57 -42 85 -42 q29 0 85 43 q57 42 104 128 q48 85 51 213 q-1 31 -29 44 l0 0 ZM384 193 l-12 0 q-15 -1 -23 -10 q-9 -10 -9 -22 q0 -13 9 -23 l9 -8 q5 -5 5 -12 q-2 -14 -16 -15 q-7 0 -12 5 l-8 9 q-11 9 -23 9 q-13 0 -22 -9 q-10 -8 -10 -23 l0 -12 q-1 -15 -16 -16 q-15 1 -16 16 l0 12 q0 15 -10 23 q-9 9 -22 9 q-12 0 -23 -9 l-8 -9 q-5 -5 -12 -5 q-14 2 -16 15 q0 7 5 12 l9 8 q9 10 9 23 q0 12 -9 22 q-8 9 -23 10 l-12 0 q-15 1 -16 16 q1 15 16 16 l12 0 q15 0 23 10 q9 9 9 22 q0 12 -9 23 l-9 7 q-5 5 -4 11 q1 14 16 16 q6 0 11 -5 l8 -8 q11 -9 23 -9 q13 0 22 9 q10 8 10 23 l0 13 q1 15 16 16 q15 -1 16 -16 l0 -12 q1 -15 10 -23 q9 -9 22 -9 q12 0 23 9 l8 9 q5 4 12 4 q14 -1 16 -15 q0 -6 -5 -11 l-9 -9 q-9 -10 -9 -22 q0 -13 9 -22 q8 -10 23 -10 l12 0 q15 -2 16 -16 q-1 -15 -16 -17 l0 0 Z" /><glyph glyph-name="" unicode="&#xe06d;" d="M496 160 l-96 0 l0 32 l64 0 q15 2 16 15 l0 15 q-1 15 -16 16 l-80 2 q-14 0 -23 -9 q-9 -9 -9 -23 l0 -47 l-64 0 l0 192 q0 13 9 23 q9 9 23 9 q14 0 23 -9 q9 -10 9 -23 l0 -16 q1 -15 16 -16 l32 0 q15 1 16 16 l0 16 q-1 46 -35 74 q-33 27 -80 20 q-35 -8 -56 -36 q-20 -27 -21 -63 l0 -188 l-64 0 l0 48 q0 14 -9 23 q-9 9 -23 9 l-80 0 q-15 -1 -16 -16 l0 -15 q1 -16 16 -17 l64 0 l0 -32 l-96 0 q-15 -1 -16 -16 l0 -32 q1 -15 16 -16 l480 0 q15 1 16 16 l0 32 q-1 15 -16 16 l0 0 ZM32 32 q1 -41 28 -68 l0 0 q27 -27 68 -28 l256 0 q41 1 68 28 q27 27 28 68 l0 32 l-448 0 l0 -32 l0 0 Z" /><glyph glyph-name="" unicode="&#x1f9fc;&#xe06e;" d="M320 192 q27 1 45 19 l0 0 q18 18 19 45 q-1 27 -19 45 q-18 18 -45 19 q-27 -1 -45 -19 q-18 -18 -19 -45 q1 -27 19 -45 q18 -18 45 -19 l0 0 ZM160 160 q-27 -1 -45 -19 l0 0 q-18 -18 -19 -45 q1 -27 19 -45 q18 -18 45 -19 l192 0 q27 1 45 19 q18 18 19 45 q-1 27 -19 45 q-18 18 -45 19 l-192 0 l0 0 ZM384 384 q14 0 23 9 l0 0 q9 9 9 23 q0 14 -9 23 q-9 9 -23 9 q-14 0 -23 -9 q-9 -9 -9 -23 q0 -14 9 -23 q9 -9 23 -9 l0 0 ZM208 352 q20 1 34 14 l0 0 q13 14 14 34 q-1 20 -14 34 q-14 13 -34 14 q-20 -1 -34 -14 q-13 -14 -14 -34 q1 -20 14 -34 q14 -13 34 -14 l0 0 ZM416 256 q-1 -43 -31 -70 q28 -11 45 -35 q18 -24 18 -55 q-1 -41 -28 -68 q-27 -27 -68 -28 l-192 0 q-41 1 -68 28 q-27 27 -28 68 q1 41 28 68 q27 27 68 28 l89 0 q-24 27 -25 64 l-128 0 q-41 -1 -68 -28 q-27 -27 -28 -68 l0 -128 q1 -41 28 -68 q27 -27 68 -28 l320 0 q41 1 68 28 q27 27 28 68 l0 128 q-1 41 -28 68 q-27 27 -68 28 l0 0 Z" /><glyph glyph-name="" unicode="&#xe06f;" d="M276 192 q1 11 12 12 q11 -1 12 -12 l0 -96 q-1 -11 -12 -12 q-11 1 -12 12 l0 96 l0 0 ZM272 448 q14 0 23 -9 l0 0 q9 -9 9 -23 q0 -14 -9 -23 q-9 -9 -23 -9 l-16 0 l0 -34 q57 -10 100 -45 l21 22 q10 9 23 9 q13 0 23 -9 q9 -10 9 -23 q0 -13 -9 -23 l-24 -24 q32 -49 33 -113 q-2 -88 -61 -147 q-59 -59 -147 -61 q-88 2 -147 61 q-59 59 -61 147 q2 80 51 136 q49 56 125 70 l0 34 l-16 0 q-14 0 -23 9 q-9 9 -9 23 q0 14 9 23 q9 9 23 9 l96 0 l0 0 ZM288 244 q-22 -1 -37 -15 l0 0 q-14 -15 -15 -37 l0 -96 q1 -22 15 -37 q15 -14 37 -15 q22 1 37 15 q14 15 15 37 l0 96 q-1 22 -15 37 q-15 14 -37 15 l0 0 ZM172 191 l0 -2 q0 -5 -4 -10 l-39 -44 q-21 -24 -21 -55 l0 -16 q1 -18 20 -20 l64 0 q18 2 20 20 q-2 19 -20 20 l-44 0 q2 14 11 25 l39 44 q13 16 13 36 l0 2 q0 23 -15 38 q-14 14 -36 15 q-37 -2 -50 -36 l-1 -2 q-4 -18 13 -24 q18 -5 24 12 l2 1 q3 9 12 9 q10 -1 11 -13 l1 0 l0 0 Z" /><glyph glyph-name="" unicode="&#xe070;" d="M74 415 l8 12 q14 20 40 21 l396 0 q26 -1 40 -21 l76 -114 q6 -9 6 -20 q0 -16 -11 -26 q-10 -11 -26 -11 l-326 0 l43 -34 l0 2 l64 0 l0 -52 l128 -99 l0 151 l64 0 l0 -202 l55 -43 q16 -15 4 -34 q-15 -16 -34 -4 l-592 464 q-16 15 -4 34 q15 16 34 4 l35 -28 l0 0 ZM0 293 q0 11 6 20 l15 22 l101 -79 l-85 0 q-16 0 -26 11 q-11 10 -11 26 l0 0 l0 0 ZM320 64 l0 36 l64 -51 l0 -65 q-1 -20 -14 -34 q-14 -13 -34 -14 l-224 0 q-20 1 -34 14 q-13 14 -14 34 l0 240 l64 0 l0 -160 l192 0 l0 0 Z" /><glyph glyph-name="" unicode="&#xe071;" d="M95 399 l23 36 q8 13 24 13 l356 0 q16 0 24 -13 l58 -91 q21 -37 6 -74 q-16 -37 -58 -45 q-6 -1 -13 -1 q-40 1 -65 29 q-25 -28 -65 -29 q-40 1 -65 29 q-8 -9 -19 -16 l179 -140 l0 100 q17 -5 35 -5 q9 0 17 1 l0 0 q5 1 12 2 l0 -148 l87 -68 q16 -15 4 -34 q-15 -16 -34 -4 l-592 464 q-16 15 -4 34 q15 16 34 4 l56 -44 l0 0 ZM112 225 q-33 5 -50 31 l0 0 q-17 26 -13 57 l106 -83 q-14 -6 -31 -6 q-6 0 -12 1 l0 0 l0 0 ZM160 64 l206 0 l149 -118 q-15 -10 -35 -10 l-320 0 q-27 1 -45 19 q-18 18 -19 45 l0 195 q6 -1 11 -2 l1 0 q8 -1 16 -1 q19 0 36 5 l0 -133 l0 0 Z" /><glyph glyph-name="" unicode="&#xe072;" d="M64 257 l0 -172 q0 -25 -5 -47 q-6 -22 -17 -54 q-4 -12 -9 -26 q-3 -18 15 -20 l281 0 q22 1 30 22 q1 1 1 2 q16 41 22 91 l-315 246 q-3 -21 -3 -42 l0 0 ZM631 -21 l-110 86 q37 8 62 61 q24 53 25 130 q-2 82 -29 136 q-27 54 -68 56 q-41 -2 -68 -56 q-27 -54 -28 -135 q1 -76 25 -128 l-57 44 l0 84 q0 63 17 113 q16 49 44 78 l-285 0 q-37 -2 -63 -50 l-57 45 q-7 5 -15 5 q-11 0 -19 -9 q-12 -19 4 -34 l591 -463 q19 -12 34 4 q13 17 -3 33 l0 0 ZM479 257 q0 27 9 45 l0 0 q10 18 23 19 q14 -1 23 -19 q9 -18 9 -45 q0 -27 -9 -45 q-9 -18 -23 -19 q-13 0 -22 18 q-9 18 -10 46 l0 0 Z" /><glyph glyph-name="" unicode="&#xe073;" d="M512 288 q34 1 57 23 l0 0 q22 23 23 57 q-1 34 -23 57 q-23 22 -57 23 q-34 -1 -57 -23 q-22 -23 -23 -57 q1 -34 23 -57 q23 -22 57 -23 l0 0 ZM490 256 q-19 0 -36 -8 q1 -3 1 -5 q1 -5 1 -11 q-1 -51 -33 -88 l199 0 q16 2 18 19 q-1 39 -26 66 q-25 26 -62 27 l-62 0 l0 0 ZM397 162 q26 29 27 70 q-1 44 -31 74 q-29 29 -72 30 q-56 -2 -86 -46 l-42 32 q15 20 15 46 q-1 34 -23 57 q-23 22 -57 23 q-37 -1 -60 -28 l-29 23 q-7 5 -15 5 q-11 0 -19 -9 q-12 -19 4 -34 l591 -463 q19 -12 34 4 q12 19 -4 34 l-233 182 l0 0 ZM270 96 q-60 -1 -100 -39 l0 0 q-40 -38 -42 -94 q0 -12 8 -19 q8 -8 20 -8 l328 0 q18 1 26 16 l-184 144 l-56 0 l0 0 ZM186 205 l-64 51 l-34 0 q-37 -1 -62 -27 q-25 -27 -26 -66 q2 -17 18 -19 l199 0 q-22 26 -31 61 l0 0 Z" /><glyph glyph-name="" unicode="&#xe074;" d="M288 404 q3 -38 35 -51 l0 0 q31 -13 61 12 l8 8 q10 9 22 9 q13 0 23 -9 q9 -10 9 -23 q0 -12 -9 -22 l-8 -8 q-25 -30 -12 -61 q13 -32 52 -35 l11 0 q14 0 23 -9 q9 -9 9 -23 q0 -14 -9 -23 q-9 -9 -23 -9 l-11 0 q-39 -3 -52 -35 q-13 -31 12 -61 l8 -8 q9 -10 9 -22 q0 -13 -9 -23 q-10 -9 -23 -9 q-12 0 -22 9 l-8 8 q-30 25 -61 12 q-32 -13 -35 -52 l0 -11 q0 -14 -9 -23 q-9 -9 -23 -9 q-14 0 -23 9 q-9 9 -9 23 l0 11 q-3 39 -35 52 q-31 13 -61 -12 l-8 -8 q-10 -9 -22 -9 q-13 0 -23 9 q-9 10 -9 23 q0 12 9 22 l8 8 q25 30 12 61 q-13 32 -51 35 l-12 0 q-14 0 -23 9 q-9 9 -9 23 q0 14 9 23 q9 9 23 9 l12 0 q38 3 51 35 q13 31 -12 61 l-8 8 q-9 10 -9 22 q0 13 9 23 q10 9 23 9 q12 0 22 -9 l8 -8 q30 -25 61 -12 q32 13 35 51 l0 12 q0 14 9 23 q9 9 23 9 q14 0 23 -9 q9 -9 9 -23 l0 -12 l0 0 ZM224 272 q-20 -1 -34 -14 l0 0 q-13 -14 -14 -34 q1 -20 14 -34 q14 -13 34 -14 q20 1 34 14 q13 14 14 34 q-1 20 -14 34 q-14 13 -34 14 l0 0 ZM304 120 q22 2 24 24 q-2 22 -24 24 q-22 -2 -24 -24 q2 -22 24 -24 l0 0 Z" /><glyph glyph-name="" unicode="&#xe075;" d="M113 220 l-21 0 q-12 0 -20 -8 q-8 -8 -8 -20 q0 -12 8 -20 q8 -8 20 -8 l22 0 q39 -3 53 -36 q13 -32 -13 -62 l-15 -15 q-8 -9 -8 -20 q0 -11 8 -20 q9 -8 20 -8 q11 0 20 8 l15 15 q30 26 62 13 q33 -14 36 -53 l0 -22 q0 -12 8 -20 q8 -8 20 -8 q12 0 20 8 q8 8 8 20 l0 22 q1 23 14 37 q14 15 33 19 l-245 192 q-14 -13 -37 -14 l0 0 ZM631 -21 l-161 126 q0 23 15 41 q15 17 41 18 l22 0 q12 0 20 8 q8 8 8 20 q0 12 -8 20 q-8 8 -20 8 l-22 0 q-39 3 -53 36 q-13 32 13 62 l15 15 q8 9 8 20 q0 11 -8 20 q-9 8 -20 8 q-11 0 -20 -8 l-15 -15 q-30 -26 -62 -13 q-33 14 -36 53 l0 22 q0 12 -8 20 q-8 8 -21 8 q-11 0 -19 -8 q-8 -8 -8 -20 l0 -22 q-3 -39 -36 -53 q-32 -13 -62 13 l-15 15 q-9 8 -20 8 q-11 0 -20 -8 q-2 -2 -3 -5 q-1 0 -1 -1 l-96 76 q-7 5 -15 5 q-11 0 -19 -9 q-12 -19 4 -34 l591 -463 q19 -12 34 4 q13 17 -3 33 l0 0 ZM334 211 l-69 55 q10 6 23 6 q20 -1 33 -14 q14 -13 14 -33 q0 -1 0 -1 q0 -7 -1 -13 l0 0 Z" /><glyph glyph-name="" unicode="&#xe076;" d="M347 235 l16 0 q19 1 21 21 q-2 20 -21 21 l-16 0 q-30 2 -40 27 q-10 24 9 46 l12 12 q12 15 0 30 q-15 12 -30 0 l-12 -12 q-22 -19 -46 -9 q-25 10 -27 40 l0 16 q-1 19 -21 21 q-20 -2 -21 -21 l0 -16 q-2 -30 -27 -40 q-24 -10 -46 9 l-12 12 q-15 12 -30 0 q-12 -15 0 -30 l12 -12 q19 -22 9 -46 q-10 -25 -40 -27 l-16 0 q-19 -2 -21 -21 q2 -20 21 -21 l16 0 q30 -2 40 -27 q10 -24 -9 -46 l-12 -12 q-12 -15 0 -30 q7 -6 15 -6 q9 0 15 6 l12 12 q22 19 46 9 q25 -10 27 -39 l0 -17 q2 -19 21 -21 q20 2 21 21 l0 16 q2 30 27 40 q24 10 46 -9 l12 -12 q6 -6 15 -6 q8 0 15 6 q12 15 0 30 l-12 12 q-19 22 -9 46 q10 25 40 27 l0 0 ZM160 256 q-14 0 -23 9 l0 0 q-9 9 -9 23 q0 14 9 23 q9 9 23 9 q14 0 23 -9 q9 -9 9 -23 q0 -14 -9 -23 q-9 -9 -23 -9 l0 0 ZM240 224 q-15 1 -16 16 q1 15 16 16 q15 -1 16 -16 q-1 -15 -16 -16 l0 0 ZM624 96 l-12 0 q-22 2 -30 20 q-7 18 7 35 l9 8 q9 12 0 23 q-11 9 -23 0 l-8 -9 q-17 -14 -35 -7 q-18 8 -20 30 l0 12 q-1 15 -16 16 q-15 -1 -16 -16 l0 -12 q-2 -22 -20 -30 q-18 -7 -35 7 l-8 9 q-12 9 -23 0 q-9 -11 0 -23 l9 -8 q14 -17 7 -35 q-8 -18 -30 -20 l-12 0 q-15 -1 -16 -16 q1 -15 16 -16 l12 0 q22 -2 30 -20 q7 -18 -7 -35 l-9 -8 q-9 -12 0 -23 q5 -5 11 -5 q7 0 12 5 l8 9 q17 14 35 7 q18 -8 20 -30 l0 -12 q1 -15 16 -16 q15 1 16 16 l0 12 q2 22 20 30 q18 7 35 -7 l8 -9 q5 -5 12 -5 q6 0 11 5 q9 11 0 23 l-9 8 q-14 17 -7 35 q8 18 30 20 l12 0 q15 1 16 16 q-1 15 -16 16 l0 0 ZM480 64 q-14 0 -23 9 l0 0 q-9 9 -9 23 q0 14 9 23 q9 9 23 9 q14 0 23 -9 q9 -9 9 -23 q0 -14 -9 -23 q-9 -9 -23 -9 l0 0 Z" /><glyph glyph-name="" unicode="&#xe085;" d="M437 208 l-53 80 l0 128 q0 14 -9 23 q-9 9 -23 9 l-32 0 q-7 0 -13 -4 l-25 -17 q-27 -17 -58 -17 q-31 0 -58 17 l-25 17 q-6 4 -13 4 l-32 0 q-14 0 -23 -9 q-9 -9 -9 -23 l0 -128 l-53 -80 q-11 -16 -11 -35 l0 -205 q0 -14 9 -23 q9 -9 23 -9 l160 0 l0 224 q0 5 2 10 l13 41 l-57 170 q35 -19 74 -19 q39 0 74 19 l-74 -221 l0 -224 l192 0 q14 0 23 9 q9 9 9 23 l0 205 q0 19 -11 35 l0 0 ZM131 77 l-48 -48 q-5 -5 -11 -5 q-6 0 -11 5 q-10 11 0 22 l48 48 q11 10 22 0 q10 -11 0 -22 l0 0 ZM387 29 q-5 -5 -11 -5 q-6 0 -11 5 l-48 48 q-10 11 0 22 q11 10 22 0 l48 -48 q10 -11 0 -22 l0 0 Z" /><glyph glyph-name="" unicode="&#xe086;" d="M437 208 l-53 80 l0 128 q0 14 -9 23 q-9 9 -23 9 l-32 0 q-7 0 -13 -4 l-25 -17 q-27 -17 -58 -17 q-31 0 -58 17 l-25 17 q-6 4 -13 4 l-32 0 q-14 0 -23 -9 q-9 -9 -9 -23 l0 -128 l-53 -80 q-11 -16 -11 -35 l0 -205 q0 -14 9 -23 q9 -9 23 -9 l160 0 l0 224 q0 5 2 10 l13 41 l-57 170 q35 -19 74 -19 q39 0 74 19 l-74 -221 l0 -224 l192 0 q14 0 23 9 q9 9 9 23 l0 205 q0 19 -11 35 l0 0 ZM64 175 q-7 9 0 17 q8 8 17 0 l15 -15 l16 15 q8 8 17 0 q6 -8 0 -17 l-16 -15 l16 -16 q6 -8 0 -17 q-4 -3 -9 -3 q-5 0 -8 3 l-16 16 l-15 -16 q-4 -3 -9 -3 q-5 0 -8 3 q-7 9 0 17 l15 16 l-15 15 l0 0 ZM96 -8 q-17 0 -28 12 l0 0 q-12 11 -12 28 q0 17 12 28 q11 12 28 12 q17 0 28 -12 q12 -11 12 -28 q0 -17 -12 -28 q-11 -12 -28 -12 l0 0 ZM359 112 l-48 0 q-8 1 -7 7 l0 48 q1 11 8 18 q8 8 19 7 q21 -4 22 -26 l0 -5 l5 0 q22 -1 26 -22 q1 -11 -7 -19 q-7 -7 -18 -8 l0 0 Z" /><glyph glyph-name="" unicode="&#xe097;" d="M467 96 l-147 147 l-105 -106 q-10 -9 -23 -9 q-13 0 -23 9 l-160 160 q-9 10 -9 23 q0 13 9 23 q10 9 23 9 q13 0 23 -9 l136 -138 l106 106 q10 9 23 9 q13 0 23 -9 l169 -170 l0 84 q0 13 9 22 q9 9 23 10 q14 -1 23 -10 q9 -9 9 -22 l0 -161 q0 -14 -9 -23 q-9 -9 -23 -9 l-160 0 q-14 0 -23 9 q-9 9 -9 23 q0 14 9 23 q9 9 23 9 l83 0 l0 0 Z" /><glyph glyph-name="" unicode="&#xe098;" d="M384 288 q-14 0 -23 9 l0 0 q-9 9 -9 23 q0 14 9 23 q9 9 23 9 l160 0 q14 0 23 -9 q9 -9 9 -23 l0 -160 q0 -14 -9 -23 q-9 -9 -23 -9 q-14 0 -23 9 q-9 9 -9 23 l0 83 l-169 -170 q-10 -9 -23 -9 q-13 0 -23 9 l-106 106 l-136 -138 q-10 -9 -23 -9 q-13 0 -23 9 q-9 10 -9 23 q0 13 9 23 l160 160 q10 9 23 9 q13 0 23 -9 l105 -106 l147 148 l-83 -1 l0 0 Z" /><glyph glyph-name="" unicode="&#xe09a;" d="M384 96 l0 -64 q0 -14 -9 -23 q-9 -9 -23 -9 l-256 0 q-14 0 -23 9 q-9 9 -9 23 l0 64 q0 14 -9 23 q-9 9 -23 9 q-14 0 -23 -9 q-9 -9 -9 -23 l0 -64 q1 -41 28 -68 q27 -27 68 -28 l256 0 q41 1 68 28 q27 27 28 68 l0 64 q0 14 -9 23 q-9 9 -23 9 q-14 0 -23 -9 q-9 -9 -9 -23 l0 0 ZM201 439 l-128 -128 q-9 -10 -9 -23 q0 -13 9 -23 q10 -9 23 -9 q13 0 23 9 l73 74 l0 -211 q0 -14 9 -23 q9 -9 23 -9 q14 0 23 9 q9 9 9 23 l0 211 l73 -74 q10 -9 23 -9 q13 0 23 9 q9 10 9 23 q0 13 -9 23 l-128 128 q-10 9 -23 9 q-13 0 -23 -9 l0 0 Z" /><glyph glyph-name="" unicode="&#xe0a9;" d="M325 224 l91 0 q14 0 23 -9 q9 -9 9 -23 q0 -14 -9 -23 q-9 -9 -23 -9 l-64 0 l13 -32 l51 0 q14 0 23 -9 q9 -9 9 -23 q0 -14 -9 -23 q-9 -9 -23 -9 l-24 0 l22 -52 q4 -12 0 -24 q-5 -12 -18 -18 q-13 -4 -24 0 q-12 5 -17 18 l-32 76 l-198 0 l-31 -76 q-6 -13 -18 -18 q-12 -4 -24 0 q-13 6 -18 18 q-4 12 0 24 l22 52 l-24 0 q-14 0 -23 9 q-9 9 -9 23 q0 14 9 23 q9 9 23 9 l51 0 l13 32 l-64 0 q-14 0 -23 9 q-9 9 -9 23 q0 14 9 23 q9 9 23 9 l91 0 l72 172 q8 19 29 20 q21 -1 30 -20 l71 -172 l0 0 ZM256 224 l-33 77 l-32 -77 l65 0 l0 0 ZM165 160 l-14 -32 l145 0 l-13 32 l-118 0 l0 0 Z" /><glyph glyph-name="" unicode="&#xe0ac;" d="M176 416 l0 -32 q48 -1 79 -33 q32 -31 33 -79 q-1 -37 -21 -65 q24 -15 39 -40 q14 -25 14 -55 q-1 -48 -33 -79 q-31 -32 -79 -33 l-32 0 l0 -32 q0 -14 -9 -23 q-9 -9 -23 -9 q-14 0 -23 9 q-9 9 -9 23 l0 32 l-70 0 q-18 0 -30 12 q-12 12 -12 30 l0 304 q0 16 11 27 q11 11 27 11 l74 0 l0 32 q0 14 9 23 q9 9 23 9 q14 0 23 -9 q9 -9 9 -23 l0 0 l0 0 ZM112 320 l-48 0 l0 -96 l48 0 l0 96 l0 0 ZM224 272 q-1 20 -14 34 l0 0 q-14 13 -34 14 l0 -96 q20 1 34 14 q13 14 14 34 l0 0 ZM112 160 l-48 0 l0 -96 l48 0 l0 96 l0 0 ZM208 64 q20 1 34 14 l0 0 q13 14 14 34 q-1 20 -14 34 q-14 13 -34 14 l-32 0 l0 -96 l32 0 l0 0 Z" /><glyph glyph-name="" unicode="&#xe0b4;" d="M48 416 q0 14 9 23 l0 0 q9 9 23 9 q14 0 23 -9 q9 -9 9 -23 l0 -32 l32 0 l0 32 q0 14 9 23 q9 9 23 9 q14 0 23 -9 q9 -9 9 -23 l0 -32 q0 -2 0 -5 q35 -10 57 -39 q22 -29 23 -68 q-1 -37 -21 -65 q24 -15 39 -40 q14 -25 14 -55 q-1 -48 -33 -79 q-31 -32 -79 -33 l0 -32 q0 -14 -9 -23 q-9 -9 -23 -9 q-14 0 -23 9 q-9 9 -9 23 l0 32 l-32 0 l0 -32 q0 -14 -9 -23 q-9 -9 -23 -9 q-14 0 -23 9 q-9 9 -9 23 l0 32 l-6 0 q-18 0 -30 12 q-12 12 -12 30 l0 304 q0 16 11 27 q11 11 27 11 l10 0 l0 32 l0 0 ZM176 224 q20 1 34 14 l0 0 q13 14 14 34 q-1 20 -14 34 q-14 13 -34 14 l-112 0 l0 -96 l112 0 l0 0 ZM64 160 l0 -96 l144 0 q20 1 34 14 q13 14 14 34 q-1 20 -14 34 q-14 13 -34 14 l-144 0 l0 0 Z" /><glyph glyph-name="" unicode="&#xe0b7;" d="M381 275 q-7 13 -21 13 l-157 0 l51 127 q5 12 -2 22 q-8 11 -20 11 l-176 0 q-20 -1 -24 -21 l-32 -240 q-1 -11 6 -19 q7 -8 18 -8 l146 0 l-41 -194 q-3 -19 14 -27 q4 -3 9 -3 q12 0 20 10 l208 304 q7 12 1 25 l0 0 Z" /><glyph glyph-name="" unicode="&#xe0bb;" d="M448 112 l0 288 q-1 20 -14 34 q-14 13 -34 14 l-48 0 l0 -191 q-1 -10 -9 -15 q-8 -4 -16 2 l-55 44 l-55 -45 q-8 -5 -16 -1 q-8 4 -9 15 l0 191 l-96 0 q-41 -1 -68 -28 q-27 -27 -28 -68 l0 -320 q1 -41 28 -68 q27 -27 68 -28 l320 0 q14 0 23 9 q9 9 9 23 q-1 18 -16 27 l0 81 q15 14 16 36 l0 0 ZM384 0 l-288 0 q-14 0 -23 9 q-9 9 -9 23 q0 14 9 23 q9 9 23 9 l288 0 l0 -64 l0 0 Z" /><glyph glyph-name="" unicode="&#xe0d8;" d="M464 352 l-88 0 l-12 33 q-13 29 -45 31 l-126 0 q-32 -2 -45 -31 l-12 -33 l-88 0 q-20 -1 -34 -14 q-13 -14 -14 -34 l0 -288 q1 -20 14 -34 q14 -13 34 -14 l416 0 q20 1 34 14 q13 14 14 34 l0 288 q-1 20 -14 34 q-14 13 -34 14 l0 0 ZM357 81 q-39 -48 -101 -49 q-49 1 -85 33 l-19 -20 q-7 -6 -15 -3 q-8 4 -9 13 l0 77 q1 9 10 10 l77 0 q9 -1 13 -9 q3 -8 -4 -15 l-19 -20 q22 -18 51 -18 q39 1 63 31 q15 16 34 4 q16 -15 4 -34 l0 0 ZM384 188 q-1 -9 -10 -10 l-77 0 q-9 1 -13 9 q-3 8 4 15 l19 20 q-22 18 -51 18 q-39 -1 -63 -31 q-15 -16 -34 -4 q-16 15 -4 34 q39 48 101 49 q49 -1 85 -33 l19 20 q7 6 15 3 q8 -4 9 -13 l0 -77 l0 0 Z" /><glyph glyph-name="" unicode="&#xe0df;" d="M224 381 q47 -8 83 -35 q11 -9 13 -21 q1 -13 -6 -24 q-21 -22 -45 -7 q-20 15 -45 22 l0 -247 q25 5 45 21 q24 15 45 -7 q15 -24 -7 -45 q-36 -27 -83 -35 l0 -35 q0 -14 -9 -23 q-9 -9 -23 -9 q-14 0 -23 9 q-9 9 -9 23 l0 35 q-70 13 -114 64 q-45 52 -46 125 q1 73 46 125 q44 51 114 64 l0 35 q0 14 9 23 q9 9 23 9 q14 0 23 -9 q9 -9 9 -23 l0 -35 l0 0 ZM160 316 q-42 -12 -69 -45 l0 0 q-26 -33 -27 -78 q1 -46 27 -80 q27 -33 69 -44 l0 247 l0 0 Z" /><glyph glyph-name="" unicode="&#xe0e3;" d="M32 416 q14 0 23 -9 l0 0 q9 -9 9 -23 l0 -336 q1 -15 16 -16 l400 0 q14 0 23 -9 q9 -9 9 -23 q0 -14 -9 -23 q-9 -9 -23 -9 l-400 0 q-34 1 -57 23 q-22 23 -23 57 l0 336 q0 14 9 23 q9 9 23 9 l0 0 ZM160 224 q14 0 23 -9 l0 0 q9 -9 9 -23 l0 -64 q0 -14 -9 -23 q-9 -9 -23 -9 q-14 0 -23 9 q-9 9 -9 23 l0 64 q0 14 9 23 q9 9 23 9 l0 0 ZM288 128 q0 -14 -9 -23 l0 0 q-9 -9 -23 -9 q-14 0 -23 9 q-9 9 -9 23 l0 160 q0 14 9 23 q9 9 23 9 q14 0 23 -9 q9 -9 9 -23 l0 -160 l0 0 ZM352 256 q14 0 23 -9 l0 0 q9 -9 9 -23 l0 -96 q0 -14 -9 -23 q-9 -9 -23 -9 q-14 0 -23 9 q-9 9 -9 23 l0 96 q0 14 9 23 q9 9 23 9 l0 0 ZM480 128 q0 -14 -9 -23 l0 0 q-9 -9 -23 -9 q-14 0 -23 9 q-9 9 -9 23 l0 224 q0 14 9 23 q9 9 23 9 q14 0 23 -9 q9 -9 9 -23 l0 -224 l0 0 Z" /><glyph glyph-name="" unicode="&#xe0e4;" d="M32 416 q14 0 23 -9 l0 0 q9 -9 9 -23 l0 -336 q1 -15 16 -16 l400 0 q14 0 23 -9 q9 -9 9 -23 q0 -14 -9 -23 q-9 -9 -23 -9 l-400 0 q-34 1 -57 23 q-22 23 -23 57 l0 336 q0 14 9 23 q9 9 23 9 l0 0 ZM128 320 q0 14 9 23 l0 0 q9 9 23 9 l96 0 q14 0 23 -9 q9 -9 9 -23 q0 -14 -9 -23 q-9 -9 -23 -9 l-96 0 q-14 0 -23 9 q-9 9 -9 23 l0 0 ZM352 256 q14 0 23 -9 l0 0 q9 -9 9 -23 q0 -14 -9 -23 q-9 -9 -23 -9 l-128 0 q-14 0 -23 9 q-9 9 -9 23 q0 14 9 23 q9 9 23 9 l128 0 l0 0 ZM448 160 q14 0 23 -9 l0 0 q9 -9 9 -23 q0 -14 -9 -23 q-9 -9 -23 -9 l-64 0 q-14 0 -23 9 q-9 9 -9 23 q0 14 9 23 q9 9 23 9 l64 0 l0 0 Z" /><glyph glyph-name="" unicode="&#xe131;" d="M326 288 l128 127 q-1 1 -2 1 q-2 0 -4 0 l-86 0 l-128 -128 l92 0 l0 0 ZM166 288 l128 128 l-92 0 l-128 -128 l92 0 l0 0 ZM498 392 l-104 -104 l118 0 l0 64 q-1 23 -14 40 l0 0 ZM134 416 l-70 0 q-27 -1 -45 -19 q-18 -18 -19 -45 l0 -64 l6 0 l128 128 l0 0 ZM0 32 q1 -27 19 -45 l0 0 q18 -18 45 -19 l384 0 q27 1 45 19 q18 18 19 45 l0 224 l-512 0 l0 -224 l0 0 Z" /><glyph glyph-name="" unicode="&#xe139;" d="M512 146 q-1 -27 -19 -45 l0 0 q-18 -19 -45 -19 q-30 1 -63 13 q-34 13 -60 28 q15 -26 28 -60 q12 -33 13 -63 q0 -27 -18 -45 q-19 -18 -46 -19 q-28 1 -46 20 q-18 -19 -46 -20 q-27 1 -45 19 q-19 18 -19 45 q1 30 13 63 q13 34 28 60 q-26 -15 -60 -28 q-33 -12 -63 -13 q-27 0 -45 18 q-18 19 -19 46 q1 28 20 46 q-19 18 -20 46 q1 27 19 45 q18 19 45 19 q30 -1 63 -13 q34 -13 60 -28 q-15 27 -28 60 q-12 33 -13 63 q0 27 19 45 q18 18 45 19 q28 -1 46 -20 q17 19 46 20 q27 -1 45 -19 q19 -18 19 -45 q-1 -30 -13 -63 q-13 -34 -28 -60 q26 15 60 28 q33 12 63 13 q27 0 45 -18 q18 -19 19 -46 q-1 -28 -20 -46 q19 -17 20 -46 l0 0 Z" /><glyph glyph-name="" unicode="&#xe13a;" d="M320 -40 q-1 -15 -14 -22 q-15 -6 -26 4 l-80 72 q-8 7 -8 18 q0 11 8 18 l80 72 q11 10 26 4 q13 -7 14 -22 l0 -40 l16 0 q27 1 45 19 q18 18 19 45 l0 167 q-22 10 -35 29 q-13 19 -13 44 q1 34 23 57 q23 22 57 23 q34 -1 57 -23 q22 -23 23 -57 q0 -25 -13 -44 q-13 -19 -35 -29 l0 -167 q-1 -54 -37 -91 q-37 -36 -91 -37 l-16 0 l0 -40 l0 0 ZM456 369 q0 10 -7 17 l0 0 q-7 7 -17 7 q-10 0 -17 -7 q-7 -7 -7 -17 q2 -23 24 -24 q22 1 24 24 l0 0 ZM192 424 q1 15 14 22 q14 6 26 -4 l80 -72 q8 -7 8 -18 q0 -11 -8 -18 l-80 -72 q-12 -10 -26 -4 q-13 7 -14 22 l0 40 l-16 0 q-27 -1 -45 -19 q-18 -18 -19 -45 l0 -167 q22 -9 35 -29 q13 -19 13 -44 q-1 -34 -23 -57 q-23 -22 -57 -23 q-34 1 -57 23 q-22 23 -23 57 q0 25 13 44 q13 20 35 29 l0 167 q1 54 37 91 q37 36 91 37 l16 0 l0 40 l0 0 ZM56 16 q2 -22 24 -24 q22 2 24 24 q-2 22 -24 24 q-22 -2 -24 -24 l0 0 Z" /><glyph glyph-name="" unicode="&#xe13b;" d="M160 368 q0 -25 -13 -44 l0 0 q-13 -19 -35 -29 l0 -39 q0 -14 9 -23 q9 -9 23 -9 l160 0 q14 0 23 9 q9 9 9 23 l0 39 q-22 10 -35 29 q-13 19 -13 44 q1 34 23 57 q23 22 57 23 q34 -1 57 -23 q22 -23 23 -57 q0 -25 -13 -44 q-13 -19 -35 -29 l0 -39 q-1 -41 -28 -68 q-27 -27 -68 -28 l-48 0 l0 -71 q22 -9 35 -29 q13 -19 13 -44 q-1 -34 -23 -57 q-23 -22 -57 -23 q-34 1 -57 23 q-22 23 -23 57 q0 25 13 44 q13 20 35 29 l0 71 l-48 0 q-41 1 -68 28 q-27 27 -28 68 l0 39 q-22 10 -35 29 q-13 19 -13 44 q1 34 23 57 q23 22 57 23 q34 -1 57 -23 q22 -23 23 -57 l0 0 l0 0 ZM80 344 q22 2 24 24 q-2 22 -24 24 q-22 -2 -24 -24 q2 -22 24 -24 l0 0 ZM368 344 q22 2 24 24 q-2 22 -24 24 q-22 -2 -24 -24 q2 -22 24 -24 l0 0 ZM224 40 q-22 -2 -24 -24 q2 -22 24 -24 q22 2 24 24 q-2 22 -24 24 l0 0 Z" /><glyph glyph-name="" unicode="&#xe13c;" d="M306 446 q13 -7 14 -22 l0 -40 l16 0 q54 -1 91 -37 q36 -37 37 -91 l0 -167 q22 -9 35 -29 q13 -19 13 -44 q-1 -34 -23 -57 q-23 -22 -57 -23 q-34 1 -57 23 q-22 23 -23 57 q0 25 13 44 q13 20 35 29 l0 167 q-1 27 -19 45 q-18 18 -45 19 l-16 0 l0 -40 q-1 -15 -14 -22 q-15 -6 -26 4 l-80 72 q-8 7 -8 18 q0 11 8 18 l80 72 q11 10 26 4 l0 0 l0 0 ZM432 -8 q22 2 24 24 q-2 22 -24 24 q-22 -2 -24 -24 q2 -22 24 -24 l0 0 ZM112 89 q22 -9 35 -29 l0 0 q13 -19 13 -44 q-1 -34 -23 -57 q-23 -22 -57 -23 q-34 1 -57 23 q-22 23 -23 57 q0 25 13 44 q13 20 35 29 l0 206 q-22 10 -35 29 q-13 19 -13 44 q1 34 23 57 q23 22 57 23 q34 -1 57 -23 q22 -23 23 -57 q0 -25 -13 -44 q-13 -19 -35 -29 l0 -206 l0 0 ZM80 392 q-22 -2 -24 -24 q2 -22 24 -24 q22 2 24 24 q-2 22 -24 24 l0 0 ZM80 40 q-22 -2 -24 -24 q2 -22 24 -24 q22 2 24 24 q-2 22 -24 24 l0 0 Z" /><glyph glyph-name="" unicode="&#xe140;" d="M217 382 q14 -1 28 -5 l11 47 q4 13 15 19 q12 7 25 4 q13 -4 19 -15 q7 -10 4 -24 l-16 -60 q3 -1 4 -2 q11 -9 13 -21 q1 -13 -6 -24 q-10 -13 -26 -12 l-53 -218 q18 7 34 19 q24 15 45 -7 q15 -24 -7 -45 q-39 -29 -90 -36 l-10 -42 q-4 -13 -15 -19 q-10 -7 -24 -4 q-13 4 -20 15 q-6 10 -4 24 l8 28 q-14 3 -28 8 l-13 -52 q-4 -13 -15 -19 q-10 -7 -24 -4 q-13 4 -19 15 q-7 10 -4 24 l18 71 q-31 26 -49 64 q-18 37 -18 81 q1 70 43 121 q41 51 107 66 l10 45 q4 13 15 19 q12 7 25 4 q13 -4 19 -15 q7 -10 4 -24 l-6 -26 l0 0 ZM131 305 q-30 -16 -48 -46 l0 0 q-19 -30 -19 -67 q1 -40 21 -71 l46 184 l0 0 ZM168 66 l62 248 q-14 5 -29 6 l-61 -245 q13 -6 28 -9 l0 0 l0 0 Z" /><glyph glyph-name="" unicode="&#xe152;" d="M159 45 l0 147 q1 14 10 23 q9 9 22 9 q13 0 21 -7 q16 7 35 7 q27 0 49 -15 l10 -6 q11 -8 13 -21 q3 -12 -4 -24 q-8 -11 -21 -13 q-13 -3 -24 4 l-10 7 q-6 4 -13 4 q-21 -2 -23 -23 l0 -105 q62 1 107 41 q10 9 23 8 q13 -1 22 -11 q9 -10 8 -23 q-1 -12 -11 -21 q-61 -56 -149 -58 q-63 1 -113 31 q-51 29 -80 80 q-30 50 -31 113 q1 63 31 113 q29 51 80 80 q50 30 113 31 q88 -2 149 -57 q10 -9 11 -22 q1 -13 -8 -23 q-9 -10 -22 -11 q-13 -1 -23 8 q-45 40 -107 41 q-68 -2 -114 -47 q-45 -45 -47 -113 q1 -50 27 -88 q27 -39 69 -59 l0 0 l0 0 Z" /><glyph glyph-name="" unicode="&#xe163;" d="M528 448 l-480 0 q-20 -1 -34 -14 q-13 -14 -14 -34 l0 -320 q1 -20 14 -34 q14 -13 34 -14 l192 0 l-16 -48 l-72 0 q-22 -2 -24 -24 q2 -22 24 -24 l272 0 q22 2 24 24 q-2 22 -24 24 l-72 0 l-16 48 l192 0 q20 1 34 14 q13 14 14 34 l0 320 q-1 20 -14 34 q-14 13 -34 14 l0 0 ZM512 96 l-448 0 l0 288 l448 0 l0 -288 l0 0 Z" /><glyph glyph-name="" unicode="&#xe169;" d="M320 384 q14 0 23 -9 l0 0 q9 -9 9 -23 q0 -14 -9 -23 q-9 -9 -23 -9 l0 -256 q0 -14 -9 -23 q-9 -9 -23 -9 q-21 1 -29 19 q-30 -19 -67 -19 q-54 1 -91 37 q-36 37 -37 91 q1 54 37 91 q37 36 91 37 q35 0 64 -17 l0 49 l-32 0 q-14 0 -23 9 q-9 9 -9 23 q0 14 9 23 q9 9 23 9 l32 0 q0 14 9 23 q9 9 23 9 q14 0 23 -9 q9 -9 9 -23 l0 0 l0 0 ZM256 160 q-1 27 -19 45 l0 0 q-18 18 -45 19 q-27 -1 -45 -19 q-18 -18 -19 -45 q1 -27 19 -45 q18 -18 45 -19 q27 1 45 19 q18 18 19 45 l0 0 ZM352 0 q14 0 23 -9 l0 0 q9 -9 9 -23 q0 -14 -9 -23 q-9 -9 -23 -9 l-320 0 q-14 0 -23 9 q-9 9 -9 23 q0 14 9 23 q9 9 23 9 l320 0 l0 0 Z" /><glyph glyph-name="" unicode="&#xe16d;" d="M79 352 l130 0 q10 0 14 9 q3 8 -3 15 l-65 68 q-11 8 -22 0 l-65 -68 q-6 -7 -3 -15 q4 -9 14 -9 l0 0 ZM357 356 q11 -8 22 0 l65 68 q6 7 3 15 q-5 9 -14 9 l-130 0 q-10 0 -14 -9 q-3 -8 3 -15 l65 -68 l0 0 ZM448 320 l-384 0 q-27 -1 -45 -19 q-18 -18 -19 -44 l0 -255 q1 -29 19 -47 q18 -18 45 -19 l384 0 q27 1 45 19 q18 18 19 44 l0 257 q-1 27 -19 45 q-18 18 -45 19 l0 0 ZM352 224 q20 -1 34 -14 l0 0 q13 -14 14 -34 q-1 -20 -14 -34 q-14 -13 -34 -14 q-20 1 -34 14 q-13 14 -14 34 q1 20 14 34 q14 13 34 14 l0 0 ZM160 224 q20 -1 34 -14 l0 0 q13 -14 14 -34 q-1 -20 -14 -34 q-14 -13 -34 -14 q-20 1 -34 14 q-13 14 -14 34 q1 20 14 34 q14 13 34 14 l0 0 ZM240 0 l-160 0 l0 48 q1 20 14 34 q14 13 34 14 l64 0 q20 -1 34 -14 q13 -14 14 -34 l0 -48 l0 0 ZM432 0 l-160 0 l0 48 q1 20 14 34 q14 13 34 14 l64 0 q20 -1 34 -14 q13 -14 14 -34 l0 -48 l0 0 Z" /><glyph glyph-name="" unicode="&#xe17b;" d="M4 425 q11 22 36 23 l432 0 q25 -1 36 -23 q10 -23 -6 -42 l-106 -131 q-61 -13 -100 -60 q-40 -47 -41 -112 q1 -41 19 -77 q-3 2 -5 3 l-64 48 q-13 10 -13 26 l0 79 l-183 224 q-15 19 -5 42 l0 0 l0 0 ZM287 80 q2 61 43 102 l0 0 q41 40 102 42 q61 -2 102 -42 q40 -41 42 -102 q-2 -61 -42 -102 q-41 -40 -102 -42 q-61 2 -102 42 q-41 41 -43 102 l0 0 ZM491 117 q10 11 0 22 q-11 10 -22 0 l-37 -36 l-37 36 q-11 10 -22 0 q-10 -11 0 -22 l36 -37 l-36 -37 q-10 -11 0 -22 q11 -10 22 0 l37 36 l37 -36 q11 -10 22 0 q10 11 0 22 l-36 37 l36 37 l0 0 Z" /><glyph glyph-name="" unicode="&#xe184;" d="M352 416 q14 0 23 -9 l0 0 q9 -9 9 -23 q0 -14 -9 -23 q-9 -9 -23 -9 l-37 0 q-21 -1 -30 -20 l-45 -108 l80 0 q14 0 23 -9 q9 -9 9 -23 q0 -14 -9 -23 q-9 -9 -23 -9 l-107 0 l-55 -133 q-12 -27 -35 -43 q-24 -16 -54 -16 l-37 0 q-14 0 -23 9 q-9 9 -9 23 q0 14 9 23 q9 9 23 9 l37 0 q21 1 30 20 l45 108 l-80 0 q-14 0 -23 9 q-9 9 -9 23 q0 14 9 23 q9 9 23 9 l107 0 l55 133 q11 27 35 43 q24 16 54 16 l37 0 l0 0 Z" /><glyph glyph-name="" unicode="&#xe185;" d="M464 352 l-192 0 l-64 64 l-160 0 q-20 -1 -34 -14 q-13 -14 -14 -34 l0 -80 l512 0 l0 16 q-1 20 -14 34 q-14 13 -34 14 l0 0 ZM0 16 q1 -20 14 -34 l0 0 q14 -13 34 -14 l416 0 q20 1 34 14 q13 14 14 34 l0 240 l-512 0 l0 -240 l0 0 Z" /><glyph glyph-name="" unicode="&#xe18f;" d="M288 416 q14 0 23 -9 l0 0 q9 -9 9 -23 q0 -14 -9 -23 q-9 -9 -23 -9 l-176 0 l0 -96 l144 0 q14 0 23 -9 q9 -9 9 -23 q0 -14 -9 -23 q-9 -9 -23 -9 l-144 0 l0 -64 l80 0 q14 0 23 -9 q9 -9 9 -23 q0 -14 -9 -23 q-9 -9 -23 -9 l-80 0 l0 -64 q0 -14 -9 -23 q-9 -9 -23 -9 q-14 0 -23 9 q-9 9 -9 23 l0 64 l-16 0 q-14 0 -23 9 q-9 9 -9 23 q0 14 9 23 q9 9 23 9 l16 0 l0 256 q0 14 9 23 q9 9 23 9 l208 0 l0 0 Z" /><glyph glyph-name="" unicode="&#xe19a;" d="M224 416 l0 -35 q60 -11 102 -52 q10 -10 10 -22 q0 -13 -9 -23 q-10 -10 -23 -9 q-12 0 -22 8 q-24 24 -58 33 l0 -92 l128 0 q14 0 23 -9 q9 -9 9 -23 q-1 -73 -46 -125 q-44 -51 -114 -64 l0 -35 q0 -14 -9 -23 q-9 -9 -23 -9 q-14 0 -23 9 q-9 9 -9 23 l0 35 q-70 13 -114 64 q-45 52 -46 125 q1 73 46 125 q44 51 114 64 l0 35 q0 14 9 23 q9 9 23 9 q14 0 23 -9 q9 -9 9 -23 l0 0 l0 0 ZM160 316 q-42 -11 -69 -45 l0 0 q-26 -33 -27 -79 q1 -46 27 -79 q27 -33 69 -44 l0 247 l0 0 ZM224 69 q34 8 58 33 l0 0 q25 24 33 58 l-91 0 l0 -91 l0 0 Z" /><glyph glyph-name="" unicode="&#xe19b;" d="M544 384 l-16 0 l0 8 q-2 22 -24 24 q-22 -2 -24 -24 l0 -8 l-437 0 q-18 0 -30 -13 q-13 -12 -13 -30 l0 -90 q0 -18 13 -30 q12 -13 30 -13 q17 -1 26 -13 q9 -12 5 -28 l-41 -158 q-4 -16 5 -28 q10 -12 26 -13 l104 0 q23 1 31 23 l27 105 l95 0 q18 0 33 11 q14 10 20 27 l25 74 l36 0 q13 0 22 9 l23 23 l64 0 q14 0 23 9 q9 9 9 23 l0 80 q0 14 -9 23 q-9 9 -23 9 l0 0 ZM329 149 q-3 -5 -8 -5 l-82 0 l17 64 l92 0 l-19 -59 l0 0 ZM480 288 l-416 0 l0 32 l416 0 l0 -32 l0 0 Z" /><glyph glyph-name="" unicode="&#xe1a8;" d="M320 352 q15 1 16 16 l0 64 q-1 15 -16 16 q-15 -1 -16 -16 l0 -64 q1 -15 16 -16 l0 0 ZM383 352 q9 0 14 7 l32 48 q3 4 3 9 q-2 15 -16 16 q-8 0 -13 -7 l-33 -48 q-3 -4 -3 -9 q2 -15 16 -16 l0 0 ZM384 90 l0 164 q1 6 -6 20 q-6 13 -26 14 q-14 0 -23 -9 q-9 -9 -9 -22 l0 -77 l-151 151 q-7 7 -17 7 q-22 -3 -24 -24 q0 -10 7 -17 l90 -90 q4 -4 4 -10 q0 -6 -4 -11 q-5 -4 -11 -4 q-6 0 -10 4 l-108 108 q-7 7 -17 7 q-22 -2 -24 -24 q0 -9 7 -17 l108 -107 q4 -5 4 -10 q0 -6 -4 -11 q-5 -4 -11 -4 q-6 0 -10 4 l-90 89 q-7 7 -17 7 q-22 -3 -24 -24 q0 -10 7 -17 l90 -89 q4 -5 4 -11 q0 -6 -4 -10 q-5 -5 -11 -5 q-6 0 -10 5 l-53 52 q-7 7 -17 7 q-22 -2 -24 -24 q0 -9 7 -17 q23 -23 42 -43 q55 -58 94 -87 q40 -29 89 -29 q66 2 108 46 q43 44 44 108 l0 0 ZM243 359 q5 -7 14 -7 q14 1 16 16 q0 5 -3 9 l-33 48 q-5 7 -14 7 q-14 -1 -16 -16 q0 -5 3 -9 l33 -48 l0 0 ZM480 288 q-14 0 -23 -9 l0 0 q-9 -9 -9 -23 l0 -76 l-32 32 l0 -122 q-1 -46 -17 -78 q-16 -32 -34 -50 q-19 -18 -27 -24 q11 -2 22 -2 q66 2 108 46 q43 44 44 108 l0 166 q0 14 -9 23 q-9 9 -23 9 l0 0 Z" /><glyph glyph-name="" unicode="&#xe1b0;" d="M576 192 q-1 -13 -10 -22 l0 0 q-9 -9 -22 -10 l-32 0 l1 -160 q-1 -27 -19 -45 q-18 -18 -45 -19 l-321 0 q-27 1 -45 19 q-18 18 -19 45 l0 160 l-32 0 q-14 1 -23 10 q-9 9 -9 22 q0 14 10 24 l256 224 q11 9 22 8 q12 0 22 -7 l255 -225 q12 -10 11 -24 l0 0 l0 0 ZM288 288 q-27 -1 -45 -19 l0 0 q-18 -18 -19 -45 q1 -27 19 -45 q18 -18 45 -19 q27 1 45 19 q18 18 19 45 q-1 27 -19 45 q-18 18 -45 19 l0 0 ZM256 128 q-34 -1 -57 -23 l0 0 q-22 -23 -23 -57 q1 -15 16 -16 l192 0 q15 1 16 16 q-1 34 -23 57 q-23 22 -57 23 l-64 0 l0 0 Z" /><glyph glyph-name="" unicode="&#xe1bc;" d="M0 384 q0 14 9 23 l0 0 q9 9 23 9 l256 0 q14 0 23 -9 q9 -9 9 -23 q0 -14 -9 -23 q-9 -9 -23 -9 l-56 0 q14 -22 20 -48 l36 0 q14 0 23 -9 q9 -9 9 -23 q0 -14 -9 -23 q-9 -9 -23 -9 l-36 0 q-10 -44 -43 -74 q-33 -30 -79 -37 l145 -102 q10 -9 12 -22 q3 -12 -5 -24 q-8 -10 -21 -12 q-12 -3 -24 5 l-224 160 q-17 15 -11 36 q8 21 30 22 l80 0 q25 0 44 13 q20 13 29 35 l-153 0 q-14 0 -23 9 q-9 9 -9 23 q0 14 9 23 q9 9 23 9 l153 0 q-9 22 -29 35 q-19 13 -44 13 l-80 0 q-14 0 -23 9 q-9 9 -9 23 l0 0 l0 0 Z" /><glyph glyph-name="" unicode="&#xe1c4;" d="M183 224 l169 0 q14 0 23 -9 q9 -9 9 -23 q0 -14 -9 -23 q-9 -9 -23 -9 l-169 0 l158 -136 q10 -9 11 -22 q1 -12 -8 -23 q-9 -10 -22 -11 q-12 -1 -23 8 l-171 146 l0 -122 q0 -14 -9 -23 q-9 -9 -23 -9 q-14 0 -23 9 q-9 9 -9 23 l0 160 l-32 0 q-14 0 -23 9 q-9 9 -9 23 q0 14 9 23 q9 9 23 9 l32 0 l0 160 q0 14 9 23 q9 9 23 9 q14 0 23 -9 q9 -9 9 -23 l0 -122 l171 146 q11 9 23 8 q13 -1 22 -11 q9 -11 8 -23 q-1 -13 -11 -22 l-158 -136 l0 0 Z" /><glyph glyph-name="" unicode="&#xe1c8;" d="M144 416 q14 0 23 -9 l0 0 q9 -9 9 -23 l0 -33 q8 1 16 1 q8 0 16 -1 l0 33 q0 14 9 23 q9 9 23 9 q14 0 23 -9 q9 -9 9 -23 l0 -49 q42 -20 70 -55 q28 -36 38 -82 q3 -12 -4 -23 q-8 -11 -21 -14 q-13 -3 -24 4 q-11 7 -14 21 q-10 45 -45 74 l0 -68 q0 -14 -9 -23 q-9 -9 -23 -9 q-14 0 -23 9 q-9 9 -9 23 l0 96 q-5 0 -10 0 q-3 0 -6 0 q-3 0 -6 0 q-5 0 -10 0 l0 -96 q0 -14 -9 -23 q-9 -9 -23 -9 q-14 0 -23 9 q-9 9 -9 23 l0 68 q-46 -37 -48 -100 q1 -54 37 -91 q37 -36 91 -37 l160 0 q14 0 23 -9 q9 -9 9 -23 q0 -14 -9 -23 q-9 -9 -23 -9 l-320 0 q-14 0 -23 9 q-9 9 -9 23 q0 14 9 23 q9 9 23 9 l17 0 q-47 53 -49 128 q1 59 31 105 q31 46 81 70 l0 49 q0 14 9 23 q9 9 23 9 l0 0 l0 0 Z" /><glyph glyph-name="" unicode="&#xe1d3;" d="M128 253 l119 34 q13 3 25 -3 q11 -6 15 -19 q3 -13 -3 -25 q-6 -11 -19 -15 l-137 -39 l0 -154 l224 0 q14 0 23 -9 q9 -9 9 -23 q0 -14 -9 -23 q-9 -9 -23 -9 l-256 0 q-14 0 -23 9 q-9 9 -9 23 l0 168 l-23 -7 q-13 -3 -25 3 q-11 6 -15 19 q-3 13 3 25 q6 11 19 15 l41 11 l0 150 q0 14 9 23 q9 9 23 9 q14 0 23 -9 q9 -9 9 -23 l0 -131 l0 0 Z" /><glyph glyph-name="" unicode="&#xe1d5;" d="M224 384 l0 -35 q70 -13 114 -64 q45 -52 46 -125 l0 -160 q0 -14 -9 -23 q-9 -9 -23 -9 q-14 0 -23 9 q-9 9 -9 23 l0 160 q-1 46 -27 79 q-27 34 -69 45 l0 -284 q0 -14 -9 -23 q-9 -9 -23 -9 q-14 0 -23 9 q-9 9 -9 23 l0 284 q-42 -11 -69 -45 q-26 -33 -27 -79 l0 -160 q0 -14 -9 -23 q-9 -9 -23 -9 q-14 0 -23 9 q-9 9 -9 23 l0 160 q1 73 46 125 q44 51 114 64 l0 35 q0 14 9 23 q9 9 23 9 q14 0 23 -9 q9 -9 9 -23 l0 0 Z" /><glyph glyph-name="" unicode="&#xe1d7;" d="M396 361 l38 -25 q24 -16 53 -16 l97 0 q24 -1 40 -16 q15 -16 16 -40 l0 -85 q-1 -42 -25 -74 q-25 -32 -66 -43 l-108 -27 q-53 -33 -121 -35 q-68 2 -121 35 l-108 27 q-41 11 -66 43 q-24 32 -25 74 l0 85 q1 24 16 40 q16 15 40 16 l97 0 q29 0 54 16 l37 25 q34 23 76 23 q42 0 76 -23 l0 0 ZM132 102 q-35 53 -36 122 l0 48 l-40 0 q-7 -1 -8 -8 l0 -85 q0 -25 15 -44 q15 -19 40 -26 l29 -7 l0 0 ZM592 179 l0 85 q-1 7 -8 8 l-40 0 l0 -48 q-1 -69 -36 -122 l30 7 q24 7 39 26 q15 19 15 44 l0 0 l0 0 ZM208 224 l224 0 q15 1 16 16 q-1 15 -16 16 l-224 0 q-15 -1 -16 -16 q1 -15 16 -16 l0 0 ZM208 192 q-15 -1 -16 -16 q1 -15 16 -16 l224 0 q15 1 16 16 q-1 15 -16 16 l-224 0 l0 0 ZM240 96 l160 0 q15 1 16 16 q-1 15 -16 16 l-160 0 q-15 -1 -16 -16 q1 -15 16 -16 l0 0 Z" /><glyph glyph-name="" unicode="&#xe1ed;" d="M283 351 q43 -5 72 -35 l0 0 q28 -31 29 -76 l0 -208 q0 -14 -9 -23 q-9 -9 -23 -9 q-14 0 -23 9 q-9 9 -9 23 l0 208 q-1 20 -14 34 q-14 13 -34 14 q-6 0 -12 -2 l-36 -100 l0 -154 q0 -14 -9 -23 q-9 -9 -23 -9 q-20 2 -28 17 l-22 -60 q-5 -12 -16 -18 q-12 -5 -25 -1 q-12 5 -18 16 q-5 12 -1 25 l78 218 l0 43 q-1 20 -14 34 q-14 13 -34 14 q-20 -1 -34 -14 q-13 -14 -14 -34 l0 -208 q0 -14 -9 -23 q-9 -9 -23 -9 q-14 0 -23 9 q-9 9 -9 23 l0 288 q0 14 9 23 q9 9 23 9 q17 -1 26 -14 q24 14 54 14 q48 -1 80 -34 q8 8 15 14 l35 95 q5 12 16 18 q12 5 25 1 q12 -5 18 -16 q5 -12 1 -25 l-19 -54 l0 0 Z" /><glyph glyph-name="" unicode="&#xe1f3;" d="M96 352 q1 27 19 45 l0 0 q18 18 45 19 l416 0 q27 -1 45 -19 q18 -18 19 -45 l0 -224 q-1 -27 -19 -45 q-18 -18 -45 -19 l-416 0 q-27 1 -45 19 q-18 18 -19 45 l0 224 l0 0 ZM160 128 l64 0 q-1 27 -19 45 q-18 18 -45 19 l0 -64 l0 0 ZM160 352 l0 -64 q27 1 45 19 q18 18 19 45 l-64 0 l0 0 ZM576 192 q-27 -1 -45 -19 l0 0 q-18 -18 -19 -45 l64 0 l0 64 l0 0 ZM512 352 q1 -27 19 -45 l0 0 q18 -18 45 -19 l0 64 l-64 0 l0 0 ZM368 320 q-34 -1 -57 -23 l0 0 q-22 -23 -23 -57 q1 -34 23 -57 q23 -22 57 -23 q34 1 57 23 q22 23 23 57 q-1 34 -23 57 q-23 22 -57 23 l0 0 ZM48 88 q1 -31 21 -51 l0 0 q20 -20 51 -21 l400 0 q22 -2 24 -24 q-2 -22 -24 -24 l-400 0 q-51 1 -85 35 q-34 34 -35 85 l0 240 q2 22 24 24 q22 -2 24 -24 l0 -240 l0 0 Z" /><glyph glyph-name="" unicode="&#xe1f6;" d="M263 192 l57 0 l0 192 q0 14 9 23 q9 9 23 9 q14 0 23 -9 q9 -9 9 -23 l0 -192 l32 0 q14 0 23 -9 q9 -9 9 -23 q0 -14 -9 -23 q-9 -9 -23 -9 l-32 0 l0 -128 q-1 -23 -23 -31 q-22 -5 -36 13 l-97 146 l-100 0 l0 -128 q0 -14 -9 -23 q-9 -9 -23 -9 q-14 0 -23 9 q-9 9 -9 23 l0 128 l-32 0 q-14 0 -23 9 q-9 9 -9 23 q0 14 9 23 q9 9 23 9 l32 0 l0 192 q1 23 23 31 q22 5 36 -13 l140 -210 l0 0 ZM305 128 l15 -22 l0 22 l-15 0 l0 0 ZM186 192 l-58 86 l0 -86 l58 0 l0 0 Z" /><glyph glyph-name="" unicode="&#xe209;" d="M578 382 q-127 -38 -258 -38 l0 0 q-131 0 -258 38 q-24 6 -43 -8 q-18 -13 -19 -38 l0 -320 q1 -25 19 -38 q18 -14 43 -8 q127 38 258 38 q131 0 258 -38 q24 -6 42 8 q19 13 20 39 l0 319 q-1 25 -19 38 q-19 14 -43 8 l0 0 ZM128 224 q-14 0 -23 9 l0 0 q-9 9 -9 23 q0 14 9 23 q9 9 23 9 q14 0 23 -9 q9 -9 9 -23 q0 -14 -9 -23 q-9 -9 -23 -9 l0 0 ZM474 59 q-76 13 -154 13 q-76 0 -150 -12 q-11 -1 -17 7 q-5 9 1 18 l49 68 q5 7 13 7 q8 0 13 -7 l32 -44 l94 139 q5 8 13 8 q8 0 13 -7 l109 -165 q6 -10 0 -18 q-5 -8 -16 -7 l0 0 Z" /><glyph glyph-name="" unicode="&#xe221;" d="M192 416 q59 -1 102 -37 l0 0 q42 -35 55 -91 l3 0 q14 0 23 -9 q9 -9 9 -23 q0 -14 -9 -23 q-9 -9 -23 -9 l-3 0 q-13 -56 -55 -91 q-43 -36 -102 -37 l-96 0 l0 -96 q0 -14 -9 -23 q-9 -9 -23 -9 q-14 0 -23 9 q-9 9 -9 23 l0 224 q-14 0 -23 9 q-9 9 -9 23 q0 14 9 23 q9 9 23 9 l0 96 q0 14 9 23 q9 9 23 9 l128 0 l0 0 ZM283 288 q-11 28 -35 46 l0 0 q-24 17 -56 18 l-96 0 l0 -64 l187 0 l0 0 ZM96 224 l0 -64 l96 0 q32 1 56 18 q24 18 35 46 l-187 0 l0 0 Z" /><glyph glyph-name="" unicode="&#xe222;" d="M176 416 q52 -1 93 -27 l0 0 q41 -26 64 -69 l19 0 q14 0 23 -9 q9 -9 9 -23 q0 -14 -9 -23 q-9 -9 -23 -9 l-1 0 q1 -8 1 -16 q0 -8 -1 -16 l1 0 q14 0 23 -9 q9 -9 9 -23 q0 -14 -9 -23 q-9 -9 -23 -9 l-19 0 q-23 -43 -64 -69 q-41 -26 -93 -27 l-80 0 l0 -64 q0 -14 -9 -23 q-9 -9 -23 -9 q-14 0 -23 9 q-9 9 -9 23 l0 160 q-14 0 -23 9 q-9 9 -9 23 q0 14 9 23 q9 9 23 9 l0 32 q-14 0 -23 9 q-9 9 -9 23 q0 14 9 23 q9 9 23 9 l0 64 q0 14 9 23 q9 9 23 9 l112 0 l0 0 ZM254 320 q-31 31 -78 32 l-80 0 l0 -32 l158 0 l0 0 ZM96 256 l0 -32 l191 0 q1 8 1 16 q0 8 -1 16 l-191 0 l0 0 ZM254 160 l-158 0 l0 -32 l80 0 q47 1 78 32 l0 0 Z" /><glyph glyph-name="" unicode="&#xe22d;" d="M192 354 q1 29 19 60 l0 0 q18 31 45 34 q28 -3 46 -34 q17 -31 18 -60 l0 -66 l178 -119 q14 -9 14 -26 l0 -57 q0 -8 -7 -13 q-6 -4 -14 -1 l-171 57 l0 -81 l58 -43 q6 -4 6 -13 l0 -41 q-1 -14 -15 -15 q-1 0 -3 0 l-110 32 l-110 -32 q-2 0 -4 0 q-13 1 -14 15 l0 41 q0 9 6 13 l58 43 l0 81 l-171 -57 q-8 -3 -14 1 q-7 5 -7 13 l0 57 q0 17 14 26 l178 119 l0 66 l0 0 Z" /><glyph glyph-name="" unicode="&#xe23d;" d="M0 384 q0 14 9 23 l0 0 q9 9 23 9 l80 0 q61 -2 102 -42 q40 -41 42 -102 q-1 -45 -24 -80 q-23 -34 -62 -52 l52 -128 q4 -13 -1 -25 q-5 -11 -17 -17 q-13 -4 -25 1 q-11 5 -17 17 l-56 140 l-42 0 l0 -128 q0 -14 -9 -23 q-9 -9 -23 -9 q-14 0 -23 9 q-9 9 -9 23 l0 384 l0 0 ZM64 192 l48 0 q34 1 57 23 q22 23 23 57 q-1 34 -23 57 q-23 22 -57 23 l-48 0 l0 -160 l0 0 ZM400 288 q48 -1 79 -33 l0 0 q32 -31 33 -79 q-1 -48 -33 -79 q-31 -32 -79 -33 l-48 0 l0 -96 q0 -14 -9 -23 q-9 -9 -23 -9 q-14 0 -23 9 q-9 9 -9 23 l0 288 q0 14 9 23 q9 9 23 9 l80 0 l0 0 ZM448 176 q-1 20 -14 34 l0 0 q-14 13 -34 14 l-48 0 l0 -96 l48 0 q20 1 34 14 q13 14 14 34 l0 0 Z" /><glyph glyph-name="" unicode="&#xe289;" d="M576 384 q0 -14 -9 -23 l0 0 q-9 -9 -23 -9 l-96 0 l0 -96 q0 -14 -9 -23 q-9 -9 -23 -9 l-96 0 l0 -96 q0 -14 -9 -23 q-9 -9 -23 -9 l-96 0 l0 -96 q0 -14 -9 -23 q-9 -9 -23 -9 l-128 0 q-14 0 -23 9 q-9 9 -9 23 q0 14 9 23 q9 9 23 9 l96 0 l0 96 q0 14 9 23 q9 9 23 9 l96 0 l0 96 q0 14 9 23 q9 9 23 9 l96 0 l0 96 q0 14 9 23 q9 9 23 9 l128 0 q14 0 23 -9 q9 -9 9 -23 l0 0 Z" /><glyph glyph-name="" unicode="&#xe29c;" d="M160 224 l320 0 l0 55 q-22 10 -35 29 q-13 19 -13 44 q1 34 23 57 q23 22 57 23 q34 -1 57 -23 q22 -23 23 -57 q0 -25 -13 -44 q-13 -19 -35 -29 l0 -55 l64 0 q14 0 23 -9 q9 -9 9 -23 q0 -14 -9 -23 q-9 -9 -23 -9 l-256 0 l0 -55 q22 -9 35 -29 q13 -19 13 -44 q-1 -34 -23 -57 q-23 -22 -57 -23 q-34 1 -57 23 q-22 23 -23 57 q0 25 13 44 q13 20 35 29 l0 55 l-256 0 q-14 0 -23 9 q-9 9 -9 23 q0 14 9 23 q9 9 23 9 l64 0 l0 55 q-22 10 -35 29 q-13 19 -13 44 q1 34 23 57 q23 22 57 23 q34 -1 57 -23 q22 -23 23 -57 q0 -25 -13 -44 q-13 -19 -35 -29 l0 -55 l0 0 ZM128 328 q22 2 24 24 q-2 22 -24 24 q-22 -2 -24 -24 q2 -22 24 -24 l0 0 ZM512 376 q-22 -2 -24 -24 q2 -22 24 -24 q22 2 24 24 q-2 22 -24 24 l0 0 ZM320 8 q22 2 24 24 q-2 22 -24 24 q-22 -2 -24 -24 q2 -22 24 -24 l0 0 Z" /><glyph glyph-name="" unicode="&#xe2b7;" d="M0 368 q1 34 23 57 l0 0 q23 22 57 23 l352 0 q34 -1 57 -23 q22 -23 23 -57 l0 -288 q-1 -41 -32 -64 l0 -48 q0 -14 -9 -23 q-9 -9 -23 -9 l-32 0 q-14 0 -23 9 q-9 9 -9 23 l0 32 l-256 0 l0 -32 q0 -14 -9 -23 q-9 -9 -23 -9 l-32 0 q-14 0 -23 9 q-9 9 -9 23 l0 48 q-31 23 -32 64 l0 288 l0 0 ZM130 296 l-18 -72 l288 0 l-18 72 q-7 23 -31 24 l-191 0 q-23 -1 -30 -24 l0 0 l0 0 ZM96 160 q-14 0 -23 -9 l0 0 q-9 -9 -9 -23 q0 -14 9 -23 q9 -9 23 -9 q14 0 23 9 q9 9 9 23 q0 14 -9 23 q-9 9 -23 9 l0 0 ZM416 96 q14 0 23 9 l0 0 q9 9 9 23 q0 14 -9 23 q-9 9 -23 9 q-14 0 -23 -9 q-9 -9 -9 -23 q0 -14 9 -23 q9 -9 23 -9 l0 0 Z" /><glyph glyph-name="" unicode="&#xe2bb;" d="M96 416 q14 0 23 -9 l0 0 q9 -9 9 -23 l0 -35 l119 34 q13 3 25 -3 q11 -6 15 -19 q3 -13 -3 -25 q-6 -11 -19 -15 l-137 -39 l0 -29 l119 34 q13 3 25 -3 q11 -6 15 -19 q3 -13 -3 -25 q-6 -11 -19 -15 l-137 -39 l0 -154 l64 0 q52 1 88 35 q36 34 40 87 l0 8 q1 13 11 22 q9 8 23 8 q13 -1 22 -11 q8 -9 7 -23 l1 -8 q-6 -78 -60 -129 q-54 -51 -132 -53 l-96 0 q-14 0 -23 9 q-9 9 -9 23 l0 168 l-23 -7 q-13 -3 -25 3 q-11 6 -15 19 q-3 13 3 25 q6 11 19 15 l41 11 l0 30 l-23 -7 q-13 -3 -25 3 q-11 6 -15 19 q-3 13 3 25 q6 11 19 15 l41 11 l0 54 q0 14 9 23 q9 9 23 9 l0 0 l0 0 Z" /><glyph glyph-name="" unicode="&#xe2c5;" d="M144 208 q1 34 23 57 l0 0 q23 22 57 23 q34 -1 57 -23 q22 -23 23 -57 q-1 -34 -23 -57 q-23 -22 -57 -23 q-34 1 -57 23 q-22 23 -23 57 l0 0 ZM512 448 q27 -1 45 -19 l0 0 q18 -18 19 -45 l0 -352 q-1 -27 -19 -45 q-18 -18 -45 -19 l-16 0 l-16 -32 l-64 0 l-16 32 l-224 0 l-16 -32 l-64 0 l-16 32 l-16 0 q-27 1 -45 19 q-18 18 -19 45 l0 352 q1 27 19 45 q18 18 45 19 l448 0 l0 0 ZM224 48 q68 2 113 47 l0 0 q45 45 47 113 q-2 68 -47 113 q-45 45 -113 47 q-68 -2 -113 -47 q-45 -45 -47 -113 q2 -68 47 -113 q45 -45 113 -47 l0 0 ZM480 227 q30 12 32 45 q-1 20 -14 34 q-14 13 -34 14 q-20 -1 -34 -14 q-13 -14 -14 -34 q2 -33 32 -45 l0 -115 q1 -15 16 -16 q15 1 16 16 l0 115 l0 0 Z" /><glyph glyph-name="" unicode="&#xe2ca;" d="M249 443 q2 5 7 5 q5 0 7 -5 l14 -38 l38 -14 q5 -2 5 -7 q0 -5 -5 -7 l-38 -14 l-14 -38 q-2 -5 -7 -5 q-5 0 -7 5 l-14 38 l-39 14 q-4 2 -4 7 q0 5 4 7 l39 14 l14 38 l0 0 ZM427 434 q15 14 34 14 l0 0 q20 0 34 -14 l35 -35 q14 -14 14 -34 q0 -19 -14 -34 l-381 -381 q-15 -14 -34 -14 q-20 0 -34 14 l-35 35 q-14 14 -14 34 q0 19 14 34 l381 381 l0 0 ZM461 389 l-105 -105 l24 -24 l105 105 l-24 24 l0 0 ZM7 331 l57 21 l21 57 q3 7 11 7 q8 0 11 -7 l21 -57 l57 -21 q7 -3 7 -11 q0 -8 -7 -11 l-57 -21 l-21 -57 q-3 -7 -11 -7 q-8 0 -11 7 l-21 57 l-57 21 q-7 3 -7 11 q0 8 7 11 l0 0 ZM360 75 l56 21 l21 56 q3 8 11 8 q8 0 11 -8 l21 -56 l57 -21 q7 -3 7 -11 q0 -8 -7 -11 l-57 -21 l-21 -57 q-3 -7 -11 -7 q-8 0 -11 7 l-21 57 l-56 21 q-8 3 -8 11 q0 8 8 11 l0 0 Z" /><glyph glyph-name="" unicode="&#xe2cd;" d="M416 320 q-16 -15 -33 0 q-14 16 0 33 l88 88 q17 14 33 0 q15 -17 0 -34 l-88 -87 l0 0 ZM327 218 l-32 -31 q44 -5 78 -38 l22 -23 l-22 -22 q-29 -28 -67 -28 q-39 0 -68 28 l-13 12 l-31 -32 q43 -4 78 -37 l22 -22 l-22 -23 q-30 -28 -68 -28 q-39 0 -68 28 l-12 12 l-69 -69 q-10 -9 -23 -9 q-13 0 -23 9 q-9 10 -9 23 q0 13 9 23 l69 68 l-10 11 q-28 30 -28 68 q0 38 28 68 l23 22 l22 -22 q32 -33 37 -75 l30 30 l-10 11 q-28 29 -28 68 q0 38 28 67 l22 23 l22 -23 q32 -32 38 -74 l30 30 l-10 11 q-29 29 -29 67 q0 39 29 68 l22 23 l23 -23 q7 -6 12 -14 l46 46 q17 14 33 0 q15 -17 0 -34 l-57 -58 q7 -33 -2 -66 q31 10 63 3 l59 59 q17 14 33 0 q15 -17 0 -33 l-45 -47 q8 -6 16 -14 l23 -23 l-23 -22 q-29 -28 -68 -28 q-38 0 -68 28 l-12 12 l0 0 Z" /><glyph glyph-name="" unicode="&#xe2ce;" d="M416 400 q-1 -20 -14 -34 l0 0 q-14 -13 -34 -14 q-20 1 -34 14 q-13 14 -14 34 q1 20 14 34 q14 13 34 14 q20 -1 34 -14 q13 -14 14 -34 l0 0 ZM173 394 q15 10 33 3 l116 -55 q22 -11 27 -34 q4 -22 -12 -41 l-38 -43 l117 0 q15 0 25 -12 q9 -12 6 -26 l-32 -160 q-3 -14 -13 -21 q-11 -7 -24 -4 q-14 3 -21 13 q-7 11 -4 24 l23 122 l-69 0 q13 -30 13 -64 q-2 -68 -47 -113 q-45 -45 -113 -47 q-68 2 -113 47 q-45 45 -47 113 q2 68 47 113 q45 45 113 47 q16 0 32 -3 l55 54 l-51 24 l-49 -37 q-11 -7 -24 -6 q-12 2 -21 13 q-7 11 -6 24 q2 12 13 21 l64 48 l0 0 ZM160 0 q41 1 68 28 l0 0 q27 27 28 68 q-1 41 -28 68 q-27 27 -68 28 q-41 -1 -68 -28 q-27 -27 -28 -68 q1 -41 28 -68 q27 -27 68 -28 l0 0 Z" /><glyph glyph-name="" unicode="&#xe2eb;" d="M208 376 q2 22 24 24 l16 0 q22 -2 24 -24 q-2 -22 -24 -24 l-16 0 q-22 2 -24 24 l0 0 ZM208 296 q2 22 24 24 l16 0 q22 -2 24 -24 q-2 -22 -24 -24 l-16 0 q-22 2 -24 24 l0 0 ZM16 216 q2 22 24 24 l16 0 q22 -2 24 -24 q-2 -22 -24 -24 l-16 0 q-22 2 -24 24 l0 0 ZM533 160 q11 0 19 -8 l0 0 q8 -8 8 -19 q-1 -56 -32 -98 q-31 -42 -81 -59 q1 -4 1 -8 q0 -14 -9 -23 q-9 -9 -23 -9 l-256 0 q-14 0 -23 9 q-9 9 -9 23 q0 4 1 8 q-50 17 -81 59 q-31 42 -32 98 q0 11 8 19 q8 8 19 8 l490 0 l0 0 ZM248 240 q22 -2 24 -24 q-2 -22 -24 -24 l-16 0 q-22 2 -24 24 q2 22 24 24 l16 0 l0 0 ZM152 240 q22 -2 24 -24 q-2 -22 -24 -24 l-16 0 q-22 2 -24 24 q2 22 24 24 l16 0 l0 0 ZM112 296 q2 22 24 24 l16 0 q22 -2 24 -24 q-2 -22 -24 -24 l-16 0 q-22 2 -24 24 l0 0 ZM344 240 q22 -2 24 -24 q-2 -22 -24 -24 l-16 0 q-22 2 -24 24 q2 22 24 24 l16 0 l0 0 ZM304 296 q2 22 24 24 l16 0 q22 -2 24 -24 q-2 -22 -24 -24 l-16 0 q-22 2 -24 24 l0 0 ZM440 240 q22 -2 24 -24 q-2 -22 -24 -24 l-16 0 q-22 2 -24 24 q2 22 24 24 l16 0 l0 0 ZM400 296 q2 22 24 24 l16 0 q22 -2 24 -24 q-2 -22 -24 -24 l-16 0 q-22 2 -24 24 l0 0 ZM536 240 q22 -2 24 -24 q-2 -22 -24 -24 l-16 0 q-22 2 -24 24 q2 22 24 24 l16 0 l0 0 ZM344 400 q22 -2 24 -24 q-2 -22 -24 -24 l-16 0 q-22 2 -24 24 q2 22 24 24 l16 0 l0 0 Z" /><glyph glyph-name="" unicode="&#xe31e;" d="M112 400 q1 20 14 34 l0 0 q14 13 34 14 q20 -1 34 -14 q13 -14 14 -34 q-1 -20 -14 -34 q-14 -13 -34 -14 q-20 1 -34 14 q-13 14 -14 34 l0 0 ZM88 66 q-22 6 -24 30 l0 55 l-5 -8 q-7 -11 -19 -14 q-13 -3 -24 4 q-12 7 -15 19 q-3 13 4 24 l58 97 q24 39 69 47 q3 0 7 0 q3 0 5 0 l16 0 q2 0 4 0 q27 -3 47 -21 q20 -17 25 -44 l6 -33 q34 -7 56 -33 q21 -25 22 -61 l0 -32 q0 -14 -9 -23 q-9 -9 -23 -9 l-56 0 l0 -96 q0 -14 -9 -23 q-9 -9 -23 -9 q-14 0 -23 9 q-9 9 -9 23 l0 96 l-16 0 l0 -96 q0 -14 -9 -23 q-9 -9 -23 -9 q-14 0 -23 9 q-9 9 -9 23 l0 98 l0 0 Z" /><glyph glyph-name="" unicode="&#xe3af;&#xf80b;" d="M512 160 l1 -160 q-1 -4 -1 -8 l0 -16 q0 -17 -12 -28 q-11 -12 -28 -12 l-16 0 q-1 0 -1 0 q-1 1 -2 0 q-2 1 -3 0 q-1 0 -1 0 l-57 0 q-17 0 -28 12 q-12 11 -12 28 l0 88 q0 14 -9 23 q-9 9 -23 9 l-64 0 q-14 0 -23 -9 q-9 -9 -9 -23 l0 -88 q0 -17 -12 -28 q-11 -12 -28 -12 l-56 0 q-2 0 -4 0 q0 0 0 0 q-2 0 -4 0 l-16 0 q-17 0 -28 12 q-12 11 -12 28 l0 112 q0 1 0 3 l0 69 l-32 0 q-14 1 -23 10 q-9 9 -9 22 q0 14 10 24 l256 224 q11 9 22 8 q12 0 22 -7 l106 -94 l0 37 q0 14 9 23 q9 9 23 9 l32 0 q14 0 23 -9 q9 -9 9 -23 l0 -121 l53 -47 q12 -10 11 -24 q-1 -13 -10 -22 q-9 -9 -22 -10 l-32 0 l0 0 Z" /><glyph glyph-name="" unicode="&#xe3b1;" d="M512 160 l1 -160 q-1 -27 -19 -45 q-18 -18 -45 -19 l-123 0 l-38 64 l81 67 q12 13 0 25 l-118 93 q-13 7 -22 -1 q-8 -9 -1 -21 l60 -83 l-85 -71 q-10 -9 -4 -21 l31 -52 l-102 0 q-27 1 -45 19 q-18 18 -19 45 l0 160 l-32 0 q-14 1 -23 10 q-9 9 -9 22 q0 14 10 24 l256 224 q11 9 22 8 q12 0 22 -7 l255 -225 q12 -10 11 -24 q-1 -13 -10 -22 q-9 -9 -22 -10 l-32 0 l0 0 Z" /><glyph glyph-name="" unicode="&#xe3b2;" d="M576 192 q-1 -13 -10 -22 l0 0 q-9 -9 -22 -10 l-32 0 l1 -160 q-1 -27 -19 -45 q-18 -18 -45 -19 l-321 0 q-27 1 -45 19 q-18 18 -19 45 l0 160 l-32 0 q-14 1 -23 10 q-9 9 -9 22 q0 14 10 24 l256 224 q11 9 22 8 q12 0 22 -7 l255 -225 q12 -10 11 -24 l0 0 l0 0 ZM328 216 l0 56 q-1 15 -16 16 l-48 0 q-15 -1 -16 -16 l0 -56 l-56 0 q-15 -1 -16 -16 l0 -48 q1 -15 16 -16 l56 0 l0 -56 q1 -15 16 -16 l48 0 q15 1 16 16 l0 56 l56 0 q15 1 16 16 l0 48 q-1 15 -16 16 l-56 0 l0 0 Z" /><glyph glyph-name="" unicode="&#xe3f5;" d="M192 448 q14 0 23 -9 l0 0 q9 -9 9 -23 l0 -35 q47 -8 83 -35 q11 -9 13 -21 q1 -13 -6 -24 q-21 -22 -45 -7 q-33 25 -77 26 q-54 -1 -91 -37 q-36 -37 -37 -91 q1 -54 37 -91 q37 -36 91 -37 q44 1 77 26 q24 15 45 -7 q15 -24 -7 -45 q-36 -27 -83 -35 l0 -35 q0 -14 -9 -23 q-9 -9 -23 -9 q-14 0 -23 9 q-9 9 -9 23 l0 35 q-70 13 -114 64 q-45 52 -46 125 q1 73 46 125 q44 51 114 64 l0 35 q0 14 9 23 q9 9 23 9 l0 0 l0 0 Z" /><glyph glyph-name="" unicode="&#xe433;" d="M191 320 q0 -20 -14 -34 l0 0 q-13 -13 -34 -14 q-20 1 -33 14 q-14 14 -15 34 q1 20 15 34 q13 13 33 14 q21 -1 34 -14 q14 -14 14 -34 l0 0 ZM385 112 l-74 0 l84 -126 q7 -11 4 -24 q-2 -13 -13 -21 q-12 -7 -24 -4 q-13 2 -21 13 l-33 50 l-260 0 q-20 1 -34 14 q-13 14 -14 34 l0 352 q1 20 14 34 q14 13 34 14 l544 0 q20 -1 34 -14 q13 -14 14 -34 l0 -352 q-1 -20 -14 -34 q-14 -13 -34 -14 l-170 0 l-43 64 l46 0 l-40 48 l0 0 ZM63 384 l0 -320 l64 0 q0 0 0 0 q0 0 0 0 l0 74 q1 50 28 89 q27 40 73 59 q28 11 43 35 q16 23 16 53 l0 10 l-224 0 l0 0 ZM352 384 l0 -10 q0 -41 -20 -76 q-19 -35 -52 -57 q0 -1 0 -1 q0 -1 0 -1 l41 -62 l72 0 q22 -1 36 -18 l79 -95 l68 0 l0 320 l-224 0 l0 0 ZM266 64 l-69 103 q-5 -13 -6 -29 l0 -73 q0 0 0 0 q0 -1 0 0 l75 -1 l0 0 Z" /><glyph glyph-name="" unicode="&#xe43b;" d="M288 -64 l-64 0 l0 264 q-1 24 -16 40 q-16 15 -40 16 q-24 -1 -40 -16 q-15 -16 -16 -40 l0 -12 q46 -17 48 -71 q-1 -22 -23 -55 q-23 -33 -57 -62 q-34 29 -57 62 q-22 32 -23 55 q2 54 48 71 l0 12 q1 51 35 85 q34 34 85 35 q31 0 56 -14 l0 22 q1 51 35 85 q34 34 85 35 q51 -1 85 -35 q34 -34 35 -85 l0 -12 q46 -17 48 -71 q-1 -22 -23 -55 q-23 -33 -57 -62 q-34 29 -57 62 q-22 32 -23 55 q2 54 48 71 l0 12 q-1 24 -16 40 q-16 15 -40 16 q-24 -1 -40 -16 q-15 -16 -16 -40 l0 -392 l0 0 Z" /><glyph glyph-name="" unicode="&#xe43c;" d="M352 0 l-320 0 q-14 0 -23 -9 q-9 -9 -9 -23 q0 -14 9 -22 q9 -9 23 -9 l320 0 q14 0 23 9 q9 9 9 22 q0 13 -9 22 q-9 10 -23 10 l0 0 ZM48 240 l112 0 l0 -111 q0 -14 9 -22 q9 -9 23 -9 q14 0 23 9 q9 9 9 22 l0 111 l112 0 q14 0 23 9 q9 9 9 23 q0 14 -9 23 q-9 9 -23 9 l-112 0 l0 112 q0 14 -9 23 q-9 9 -23 9 q-14 0 -23 -9 q-9 -9 -9 -23 l0 -112 l-112 0 q-14 0 -23 -9 q-9 -9 -9 -23 q0 -14 9 -23 q9 -9 23 -9 l0 0 Z" /><glyph glyph-name="" unicode="&#xe445;" d="M256 432 q1 11 11 15 q11 3 18 -6 l224 -320 q5 -8 1 -16 q-5 -9 -14 -9 l-224 0 q-15 1 -16 16 l0 320 l0 0 ZM212 351 q11 -3 12 -15 l0 -224 q-1 -15 -16 -16 l-128 0 q-9 1 -14 8 q-4 8 0 16 l128 224 q7 10 18 7 l0 0 l0 0 ZM6 44 q-3 17 15 20 l534 0 q18 -3 15 -20 l-4 -15 q-12 -42 -46 -67 q-33 -25 -77 -26 l-311 0 q-43 1 -76 26 q-34 25 -46 67 l-4 15 l0 0 Z" /><glyph glyph-name="" unicode="&#xe447;" d="M225 111 q23 21 29 55 q6 44 -12 69 q-18 26 -48 39 q-29 13 -57 21 l-12 3 q-43 14 -54 25 q-10 12 -6 28 q2 14 13 22 q24 16 69 9 q16 -3 42 -12 q13 -5 24 1 q12 5 17 18 q4 13 -1 24 q-5 12 -18 17 q-32 11 -53 15 q-72 11 -117 -20 q-33 -24 -39 -63 q-5 -32 4 -53 q9 -22 25 -36 q-23 -21 -29 -56 q-6 -43 12 -68 q18 -25 45 -38 q26 -12 47 -18 q0 0 0 0 l13 -4 q47 -13 62 -25 q15 -11 10 -31 q1 -13 -21 -26 q-24 -11 -62 -5 q-26 6 -55 18 q0 0 0 0 l-10 3 q-13 5 -24 -1 q-12 -5 -17 -17 q-4 -13 1 -25 q5 -11 18 -17 l9 -3 q1 0 1 0 q32 -14 67 -21 q19 -3 36 -3 q35 0 62 12 q49 23 58 74 q5 32 -4 53 q-8 22 -25 36 l0 0 ZM65 207 q3 15 14 22 l0 0 q11 7 24 9 q2 0 8 -2 q7 -2 8 -3 q47 -13 62 -25 q15 -11 10 -31 q-3 -15 -14 -22 q-11 -7 -24 -9 q-5 1 -16 5 q-11 3 -12 3 q-43 14 -54 25 q-10 12 -6 28 l0 0 Z" /><glyph glyph-name="" unicode="&#x1f990;&#xe448;" d="M288 128 l0 192 l-224 0 q-14 0 -23 9 q-9 9 -9 23 q0 14 9 23 q9 9 23 9 l368 0 q15 1 16 16 q-1 15 -16 16 l-368 0 q-27 -1 -45 -19 q-18 -18 -19 -45 q1 -27 19 -45 q18 -18 45 -19 l3 0 q13 -70 64 -114 q52 -45 125 -46 l32 0 l0 0 ZM192 232 q-22 2 -24 24 q2 22 24 24 q22 -2 24 -24 q-2 -22 -24 -24 l0 0 ZM226 49 q-6 -22 13 -31 l6 -3 q-19 -3 -21 -23 q2 -22 24 -24 l72 0 l0 70 l-63 24 q-22 7 -31 -13 l0 0 ZM511 161 q0 6 -2 12 l0 0 q-1 2 -1 5 l-125 -91 q1 -3 1 -7 q0 -2 0 -4 q0 -1 -1 -1 l91 -40 q42 53 37 126 l0 0 ZM352 35 l0 -66 q57 6 98 41 l-80 36 q-8 -8 -18 -11 l0 0 ZM498 210 q-22 50 -67 80 l0 0 q-46 29 -103 30 l-8 0 l0 -192 l16 0 q19 0 32 -12 l130 94 l0 0 Z" /><glyph glyph-name="" unicode="&#xe46c;" d="M400 448 q14 0 23 -9 l0 0 q9 -9 9 -23 l0 -18 q19 -4 36 -12 l10 -5 q12 -7 16 -19 q4 -12 -1 -24 q-7 -12 -19 -16 q-12 -4 -24 1 l-10 5 q-16 8 -32 8 l-2 0 q-23 -1 -38 -16 q-15 -15 -16 -38 q2 -35 34 -50 l52 -21 q34 -14 54 -43 q20 -29 20 -66 l0 -4 q-1 -39 -23 -68 q-22 -29 -57 -41 l0 -21 q0 -14 -9 -23 q-9 -9 -23 -9 q-14 0 -23 9 q-9 9 -9 23 l0 19 q-23 6 -42 19 l-24 15 q-11 8 -13 21 q-3 13 4 24 q8 11 21 13 q12 3 24 -4 l23 -16 q17 -11 37 -11 q21 1 35 15 q14 14 15 35 l0 4 q-2 35 -34 50 l-52 21 q-34 14 -54 43 q-20 29 -20 66 q1 40 23 69 q21 30 57 43 l0 22 q0 14 9 23 q9 9 23 9 l0 0 l0 0 ZM0 384 q0 14 9 23 l0 0 q9 9 23 9 l80 0 q61 -2 102 -42 q40 -41 42 -102 q-1 -45 -24 -80 q-23 -34 -62 -52 l52 -128 q4 -13 -1 -25 q-5 -11 -17 -17 q-13 -4 -25 1 q-11 5 -17 17 l-56 140 l-42 0 l0 -128 q0 -14 -9 -23 q-9 -9 -23 -9 q-14 0 -23 9 q-9 9 -9 23 l0 384 l0 0 ZM64 192 l48 0 q34 1 57 23 q22 23 23 57 q-1 34 -23 57 q-23 22 -57 23 l-48 0 l0 -160 l0 0 Z" /><glyph glyph-name="" unicode="&#xe473;" d="M160 368 q1 20 14 34 l0 0 q14 13 34 14 l32 0 q20 -1 34 -14 q13 -14 14 -34 l0 -352 q-1 -20 -14 -34 q-14 -13 -34 -14 l-32 0 q-20 1 -34 14 q-13 14 -14 34 l0 352 l0 0 ZM0 176 q1 20 14 34 l0 0 q14 13 34 14 l32 0 q20 -1 34 -14 q13 -14 14 -34 l0 -160 q-1 -20 -14 -34 q-14 -13 -34 -14 l-32 0 q-20 1 -34 14 q-13 14 -14 34 l0 160 l0 0 ZM400 352 q20 -1 34 -14 l0 0 q13 -14 14 -34 l0 -288 q-1 -20 -14 -34 q-14 -13 -34 -14 l-32 0 q-20 1 -34 14 q-13 14 -14 34 l0 288 q1 20 14 34 q14 13 34 14 l32 0 l0 0 Z" /><glyph glyph-name="" unicode="&#xe476;" d="M512 288 q-1 -27 -19 -45 l0 0 q-18 -18 -45 -19 l-168 0 l0 -64 l46 0 q17 -1 22 -15 q6 -13 -5 -25 l-71 -71 q-16 -14 -33 0 l-71 71 q-10 12 -4 25 q5 14 22 15 l46 0 l0 64 l-168 0 q-27 1 -45 19 q-18 18 -19 45 l0 64 q1 27 19 45 q18 18 45 19 l384 0 q27 -1 45 -19 q18 -18 19 -45 l0 -64 l0 0 ZM313 32 l135 0 l0 64 l-71 0 l7 8 q24 26 15 56 l49 0 q27 -1 45 -19 q18 -18 19 -45 l0 -64 q-1 -27 -19 -45 q-18 -18 -45 -19 l-384 0 q-27 1 -45 19 q-18 18 -19 45 l0 64 q1 27 19 45 q18 18 45 19 l48 0 q-9 -30 15 -56 l8 -8 l-71 0 l0 -64 l135 0 l17 -16 q18 -17 40 -17 q22 0 40 17 l17 16 l0 0 Z" /><glyph glyph-name="" unicode="&#xe477;" d="M64 -32 q-27 1 -45 19 l0 0 q-18 18 -19 45 l0 64 q1 27 19 45 q18 18 45 19 l384 0 q27 -1 45 -19 q18 -18 19 -45 l0 -64 q-1 -27 -19 -45 q-18 -18 -45 -19 l-384 0 l0 0 ZM448 32 l0 64 l-384 0 l0 -64 l384 0 l0 0 ZM288 288 q-1 -27 -19 -45 l0 0 q-18 -18 -45 -19 l-160 0 q-27 1 -45 19 q-18 18 -19 45 l0 64 q1 27 19 45 q18 18 45 19 l304 0 q34 -1 57 -23 q22 -23 23 -57 l0 -16 l38 0 q17 -1 22 -15 q6 -13 -5 -25 l-71 -71 q-16 -14 -33 0 l-71 71 q-10 12 -4 25 q5 14 22 15 l38 0 l0 16 q-1 15 -16 16 l-80 0 l0 -64 l0 0 Z" /><glyph glyph-name="" unicode="&#xe47a;" d="M512 32 q-1 -27 -19 -45 l0 0 q-18 -18 -45 -19 l-384 0 q-27 1 -45 19 q-18 18 -19 45 l0 64 q1 27 19 45 q18 18 45 19 l384 0 q27 -1 45 -19 q18 -18 19 -45 l0 -64 l0 0 ZM224 224 l-160 0 q-27 1 -45 19 q-18 18 -19 45 l0 64 q1 27 19 45 q18 18 45 19 l304 0 q34 -1 57 -23 q22 -23 23 -57 l0 -16 l38 0 q17 -1 22 -15 q6 -13 -5 -25 l-71 -71 q-16 -14 -33 0 l-71 71 q-10 12 -4 25 q5 14 22 15 l38 0 l0 16 q-1 15 -16 16 l-80 0 l0 -64 q-1 -27 -19 -45 q-18 -18 -45 -19 l0 0 l0 0 ZM64 288 l160 0 l0 64 l-160 0 l0 -64 l0 0 Z" /><glyph glyph-name="" unicode="&#xe47b;" d="M0 192 q1 72 35 129 l0 0 q34 58 92 92 l0 0 q57 34 129 35 q72 -1 129 -35 q58 -34 92 -92 q34 -57 35 -129 q-1 -72 -35 -129 q-34 -58 -92 -92 q-57 -34 -129 -35 q-72 1 -129 35 q-58 34 -92 92 q-34 57 -35 129 l0 0 ZM216 87 l25 -16 q10 -7 24 -7 q21 0 33 17 l13 15 q9 12 9 26 q0 15 -9 26 l-18 23 q-7 10 -11 20 l-10 26 q-3 7 -10 7 q-6 0 -9 -4 l-11 -15 q-8 -9 -20 -8 q-5 2 -8 5 q0 0 0 1 l-5 6 q-11 15 -30 15 q-19 0 -31 -15 l-5 -7 q-3 -3 -6 -5 l-35 -17 q-16 -8 -21 -23 q-5 -16 2 -32 l4 -6 q7 -13 20 -18 q13 -6 27 -1 l16 4 q10 4 20 0 l39 -13 q3 -2 7 -4 l0 0 l0 0 ZM274 305 q-16 16 -36 11 l-39 -7 q-11 -4 -13 -14 q-1 -11 10 -17 l43 -19 q7 -3 16 -3 l30 0 q11 1 14 10 q4 9 -3 17 l-22 22 l0 0 ZM264 0 l16 0 q15 1 16 16 q-1 15 -16 16 l-16 0 q-15 -1 -16 -16 q1 -15 16 -16 l0 0 ZM431 149 q-6 13 -20 10 q-13 -6 -10 -20 l8 -24 q6 -13 20 -10 q13 6 10 20 l-8 24 l0 0 ZM411 69 q10 11 0 22 q-11 10 -22 0 l-32 -32 q-10 -11 0 -22 q11 -10 22 0 l32 32 l0 0 Z" /><glyph glyph-name="" unicode="&#xe490;" d="M239 285 q13 4 25 3 l112 0 q26 0 48 -11 q0 1 1 2 l64 64 q10 9 23 9 q13 0 23 -9 q9 -10 9 -23 q0 -13 -9 -23 l-64 -64 q-2 0 -2 -1 q0 0 0 -1 q9 -18 11 -39 l64 0 q14 0 23 -9 q9 -9 9 -23 q0 -14 -9 -23 q-9 -9 -23 -9 l-64 0 q0 -15 -3 -29 l154 -120 q16 -15 4 -34 q-15 -16 -34 -4 l-592 464 q-16 15 -4 34 q15 16 34 4 l200 -158 l0 0 ZM416 352 l0 -4 q0 -12 -8 -20 q-8 -8 -20 -8 l-136 0 q-12 0 -20 8 q-8 8 -8 20 l0 4 q1 41 28 68 q27 27 68 28 q41 -1 68 -28 q27 -27 28 -68 l0 0 l0 0 ZM160 192 q2 16 7 29 l137 -109 l0 -143 q-53 6 -90 39 l-63 -63 q-10 -9 -23 -9 q-13 0 -23 9 q-9 10 -9 23 q0 13 9 23 l64 64 q3 2 6 4 q-15 32 -15 69 l-64 0 q-14 0 -23 9 q-9 9 -9 23 q0 14 9 23 q9 9 23 9 l64 0 l0 0 ZM336 -31 l0 118 l95 -74 q-39 -38 -95 -44 l0 0 l0 0 Z" /><glyph glyph-name="" unicode="&#xe493;" d="M0 384 q1 27 19 45 l0 0 q18 18 45 19 l160 0 l0 -128 q0 -14 9 -23 q9 -9 23 -9 l128 0 l0 -39 q-56 -16 -92 -62 q-35 -45 -36 -107 q0 -45 20 -82 q20 -37 54 -61 q-5 -1 -10 -1 l-256 0 q-27 1 -45 19 q-18 18 -19 45 l0 384 l0 0 ZM256 320 l0 128 l128 -128 l-128 0 l0 0 ZM576 80 q-2 -61 -42 -102 l0 0 q-41 -40 -102 -42 q-61 2 -102 42 q-40 41 -42 102 q2 61 42 102 q41 40 102 42 q61 -2 102 -42 q40 -41 42 -102 l0 0 ZM477 123 l-61 -60 l-29 28 q-11 10 -22 0 q-10 -11 0 -22 l40 -40 q11 -10 22 0 l72 72 q10 11 0 22 q-11 10 -22 0 l0 0 l0 0 Z" /><glyph glyph-name="" unicode="&#xe494;" d="M0 384 q1 27 19 45 l0 0 q18 18 45 19 l160 0 l0 -128 q0 -14 9 -23 q9 -9 23 -9 l128 0 l0 -39 q-56 -16 -92 -62 q-35 -45 -36 -107 q0 -45 20 -82 q20 -37 54 -61 q-5 -1 -10 -1 l-256 0 q-27 1 -45 19 q-18 18 -19 45 l0 384 l0 0 ZM256 320 l0 128 l128 -128 l-128 0 l0 0 ZM288 80 q2 61 42 102 l0 0 q41 40 102 42 q61 -2 102 -42 q40 -41 42 -102 q-2 -61 -42 -102 q-41 -40 -102 -42 q-61 2 -102 42 q-40 41 -42 102 l0 0 ZM491 117 q10 11 0 22 q-11 10 -22 0 l-37 -36 l-37 36 q-11 10 -22 0 q-10 -11 0 -22 l36 -37 l-36 -37 q-10 -11 0 -22 q11 -10 22 0 l37 36 l37 -36 q11 -10 22 0 q10 11 0 22 l-36 37 l36 37 l0 0 Z" /><glyph glyph-name="" unicode="&#xe4a5;" d="M0 293 q0 11 6 20 l76 114 q14 20 40 21 l396 0 q26 -1 40 -21 l76 -114 q6 -9 6 -20 q0 -15 -10 -25 q-9 -10 -24 -12 q-31 31 -78 32 q-47 -1 -78 -32 l-413 0 q-16 0 -26 11 q-11 10 -11 26 l0 0 l0 0 ZM384 224 l0 -240 q-1 -20 -14 -34 q-14 -13 -34 -14 l-224 0 q-20 1 -34 14 q-13 14 -14 34 l0 240 l64 0 l0 -160 l192 0 l0 160 l64 0 l0 0 ZM528 256 q34 -1 57 -23 l0 0 q22 -23 23 -57 l0 -48 q14 0 23 -9 q9 -9 9 -23 l0 -128 q0 -14 -9 -23 q-9 -9 -23 -9 l-160 0 q-14 0 -23 9 q-9 9 -9 23 l0 128 q0 14 9 23 q9 9 23 9 l0 48 q1 34 23 57 q23 22 57 23 l0 0 ZM528 208 q-14 0 -23 -9 l0 0 q-9 -9 -9 -23 l0 -48 l64 0 l0 48 q0 14 -9 23 q-9 9 -23 9 l0 0 Z" /><glyph glyph-name="" unicode="&#xe4a8;" d="M192 424 q2 22 24 24 l80 0 q22 -2 24 -24 q-2 -22 -24 -24 l-16 0 l0 -34 q47 -6 82 -34 l24 24 l-11 11 q-14 17 0 34 q17 14 34 0 l56 -56 q14 -17 0 -34 q-17 -14 -34 0 l-11 11 l-24 -24 q28 -35 34 -82 l34 0 l0 16 q2 22 24 24 q22 -2 24 -24 l0 -80 q-2 -22 -24 -24 q-22 2 -24 24 l0 16 l-34 0 q-6 -47 -34 -82 l24 -24 l11 11 q17 14 34 0 q14 -17 0 -34 l-56 -56 q-17 -14 -34 0 q-14 17 0 34 l11 11 l-24 24 q-35 -28 -82 -34 l0 -34 l16 0 q22 -2 24 -24 q-2 -22 -24 -24 l-80 0 q-22 2 -24 24 q2 22 24 24 l16 0 l0 34 q-47 6 -82 34 l-24 -24 l11 -11 q14 -17 0 -34 q-17 -14 -34 0 l-56 56 q-14 17 0 34 q17 14 34 0 l11 -11 l24 24 q-28 35 -34 82 l-34 0 l0 -16 q-2 -22 -24 -24 q-22 2 -24 24 l0 80 q2 22 24 24 q22 -2 24 -24 l0 -16 l34 0 q6 47 34 82 l-24 24 l-11 -11 q-17 -14 -34 0 q-14 17 0 34 l56 56 q17 14 34 0 q14 -17 0 -34 l-11 -11 l24 -24 q35 28 82 34 l0 34 l-16 0 q-22 2 -24 24 l0 0 l0 0 ZM192 272 q-20 -1 -34 -14 l0 0 q-13 -14 -14 -34 q1 -20 14 -34 q14 -13 34 -14 q20 1 34 14 q13 14 14 34 q-1 20 -14 34 q-14 13 -34 14 l0 0 ZM304 120 q22 2 24 24 q-2 22 -24 24 q-22 -2 -24 -24 q2 -22 24 -24 l0 0 Z" /><glyph glyph-name="" unicode="&#xe4a9;" d="M134 368 l33 33 q17 14 34 0 q14 -17 0 -34 l-11 -11 l24 -24 q36 28 81 34 l0 34 l-16 0 q-10 0 -17 7 q-7 7 -7 17 q0 10 7 17 q7 7 17 7 l81 0 q22 -2 24 -24 q-2 -22 -24 -24 l-16 0 l0 -34 q47 -6 82 -34 l24 24 l-11 11 q-14 17 0 34 q17 14 34 0 l56 -56 q14 -17 0 -34 q-17 -14 -34 0 l-11 11 l-24 -24 q28 -35 34 -82 l34 0 l0 16 q2 22 24 24 q22 -2 24 -24 l0 -80 q-2 -22 -24 -24 q-22 2 -24 24 l0 16 l-34 0 q-5 -35 -22 -65 l159 -124 q16 -15 4 -34 q-15 -16 -34 -4 l-592 464 q-16 15 -4 34 q15 16 34 4 l95 -75 l0 0 ZM149 234 l252 -198 q-26 -14 -57 -18 l0 -34 l16 0 q22 -2 24 -24 q-2 -22 -24 -24 l-81 0 q-10 0 -17 7 q-7 7 -7 17 q0 10 7 17 q7 7 17 7 l16 0 l0 34 q-45 6 -81 34 l-24 -24 l11 -11 q14 -17 0 -34 q-17 -14 -34 0 l-56 56 q-14 17 0 34 q17 14 34 0 l10 -11 l25 24 q-28 35 -34 82 l-35 0 l0 -16 q-1 -22 -24 -24 q-10 0 -17 7 q-7 7 -7 17 l0 80 q0 10 7 17 q7 7 17 7 q23 -2 24 -24 l0 -16 l35 0 q1 9 3 18 l0 0 l0 0 Z" /><glyph glyph-name="" unicode="&#xe4aa;" d="M352 272 q14 0 23 -9 l0 0 q9 -9 9 -23 q0 -14 -9 -23 q-9 -9 -23 -9 l-33 0 l0 -208 l20 0 q19 -37 53 -62 q-12 -2 -24 -2 l-160 0 q-68 2 -113 47 q-45 45 -47 113 l0 6 l-7 -6 q-17 -15 -34 0 q-14 16 0 33 l56 56 q17 14 34 0 l55 -56 q15 -17 0 -33 q-16 -15 -33 0 l-7 6 l0 -6 q1 -41 28 -68 q27 -27 68 -28 l48 0 l0 208 l-32 0 q-14 0 -23 9 q-9 9 -9 23 q0 14 9 23 q9 9 23 9 l11 0 q-41 28 -43 80 q1 41 28 68 q27 27 68 28 q41 -1 68 -28 q27 -27 28 -68 q0 -25 -12 -46 q-12 -21 -31 -34 l11 0 l0 0 ZM287 320 q14 0 23 9 l0 0 q9 9 9 23 q0 14 -9 23 q-9 9 -23 9 q-13 0 -22 -9 q-9 -9 -10 -23 q1 -14 10 -23 q9 -9 22 -9 l0 0 ZM640 80 q-2 -61 -42 -102 l0 0 q-41 -40 -102 -42 q-61 2 -102 42 q-40 41 -42 102 q2 61 42 102 q41 40 102 42 q61 -2 102 -42 q40 -41 42 -102 l0 0 ZM541 123 l-61 -60 l-29 28 q-11 10 -22 0 q-10 -11 0 -22 l40 -40 q11 -10 22 0 l72 72 q10 11 0 22 q-11 10 -22 0 l0 0 l0 0 Z" /><glyph glyph-name="" unicode="&#xe4ab;" d="M352 272 q14 0 23 -9 l0 0 q9 -9 9 -23 q0 -14 -9 -23 q-9 -9 -23 -9 l-33 0 l0 -208 l20 0 q19 -37 53 -62 q-12 -2 -24 -2 l-160 0 q-68 2 -113 47 q-45 45 -47 113 l0 6 l-7 -6 q-17 -15 -34 0 q-14 16 0 33 l56 56 q17 14 34 0 l55 -56 q15 -17 0 -33 q-16 -15 -33 0 l-7 6 l0 -6 q1 -41 28 -68 q27 -27 68 -28 l48 0 l0 208 l-32 0 q-14 0 -23 9 q-9 9 -9 23 q0 14 9 23 q9 9 23 9 l11 0 q-41 28 -43 80 q1 41 28 68 q27 27 68 28 q41 -1 68 -28 q27 -27 28 -68 q0 -25 -12 -46 q-12 -21 -31 -34 l11 0 l0 0 ZM287 320 q14 0 23 9 l0 0 q9 9 9 23 q0 14 -9 23 q-9 9 -23 9 q-13 0 -22 -9 q-9 -9 -10 -23 q1 -14 10 -23 q9 -9 22 -9 l0 0 ZM352 80 q2 61 42 102 l0 0 q41 40 102 42 q61 -2 102 -42 q40 -41 42 -102 q-2 -61 -42 -102 q-41 -40 -102 -42 q-61 2 -102 42 q-40 41 -42 102 l0 0 ZM496 -16 q22 2 24 24 q-2 22 -24 24 q-22 -2 -24 -24 q2 -22 24 -24 l0 0 ZM479 160 l0 -80 q2 -15 16 -16 q15 1 16 16 l0 80 q-1 15 -16 16 q-14 -1 -16 -16 l0 0 Z" /></font>
</defs>
</svg>
