<svg width="408" height="798" fill="none" xmlns="http://www.w3.org/2000/svg"><g opacity=".1" fill="#323232"><path d="M446.582 374.308V228.919c0-.903 0-1.354-.449-1.806 4.04-1.354 7.182-4.967 7.182-9.482 0-5.418-4.489-9.933-10.323-9.933-5.835 0-10.323 4.515-10.323 9.933 0 4.515 3.141 8.128 7.181 9.482v43.346l-14.811-48.313-3.142-2.257c6.283 0 11.22-4.967 11.22-11.288 0-4.064-1.795-7.224-5.386-9.482-2.692-1.806-5.834-2.258-8.527-1.355l-8.079-31.154-1.347-1.806-96.946-66.825-1.795-.451h-59.245l.448-.452c3.142-3.612 4.937-8.127 4.937-13.094 0-4.966-2.244-9.482-5.385-12.642-3.591-3.16-8.079-4.967-13.016-4.967l-12.119-18.512 12.119-8.127h3.141c3.591 0 7.182-1.355 9.426-4.064 2.693-2.71 4.039-6.321 3.59-9.934 0-3.612-1.346-7.224-4.039-9.481-2.693-2.258-6.284-4.064-9.874-3.612-3.591 0-6.733 1.354-8.977 4.063-2.244 1.806-3.142 4.515-3.59 7.224l-13.016 8.58-10.323-15.804v-3.161c0-3.612-1.796-7.224-4.04-9.481C198.381 1.354 195.239 0 191.649 0c-3.591 0-7.181 1.355-9.426 4.064-2.692 2.709-4.039 6.32-3.59 9.933 0 3.612 1.346 6.773 4.039 9.03 1.796 2.258 4.489 3.161 7.182 3.613l10.771 15.803-12.567 8.578H184.916c-3.59 0-7.181 1.355-9.425 4.064-2.693 2.71-4.039 6.321-3.591 9.934 0 3.612 1.347 7.224 4.04 9.481 2.693 2.71 6.283 4.064 9.874 3.612 3.591 0 6.732-1.354 8.977-4.063 2.244-1.806 3.141-4.515 3.59-7.225l13.016-8.578 12.119 18.512-.898 2.709-.449 4.967c0 4.515 2.244 9.03 5.386 12.19h-60.592l-1.795.452-97.395 67.728-1.347 1.806-8.079 31.154c-2.693-.903-6.283-.451-8.527 1.355-3.142 2.258-5.386 5.418-5.386 9.482 0 6.321 4.937 11.288 11.22 11.288l-3.141 2.257L37.7 270.459v-41.54c0-.903 0-1.354-.448-1.806 1.346-.451 3.141-1.354 4.039-2.257 1.795-1.807 3.142-4.516 3.142-7.225 0-2.709-.898-5.418-3.142-7.224-1.795-1.806-4.488-3.161-7.181-3.161-5.386 0-9.874 4.516-9.874 9.934 0 4.515 3.141 8.127 7.18 9.482V374.308H3.592L0 377.468V764.418v-.451c0 13.545 1.346 26.639 4.04 39.733 2.244 13.094 5.834 25.737 10.771 37.928v.451c5.386 14.9 12.567 28.446 21.095 41.991 8.528 13.546 17.953 25.285 29.174 36.573 9.425 9.934 19.748 18.513 30.969 26.188 10.772 7.676 22.441 13.997 34.111 18.964 22.441 9.933 45.78 16.706 64.182 22.124l.897.452c17.505 5.418 32.765 9.933 42.639 15.349h3.142c9.425-5.416 24.685-9.931 42.189-15.349l.898-.452c19.3-5.869 41.292-12.191 64.182-22.124 37.702-16.255 71.364-45.603 94.703-82.176C465.882 847.498 478 805.055 478 761.709V377.92l-3.142-3.161h-28.276v-.451Zm-7.181-156.225c0-1.806 1.795-3.612 3.591-3.612 1.795 0 3.59 1.806 3.59 3.612 0 2.257-1.795 3.612-3.59 3.612-1.796 0-3.591-1.806-3.591-3.612Zm9.425 162.997v205.441c-5.834 3.612-12.118 4.966-17.055 4.966V381.08h17.055ZM300.265 770.74c.449 3.612.897 7.224.897 10.385-4.039 5.418-7.181 12.191-9.425 19.866l-2.244-1.806v-74.5c6.284 3.612 8.977 31.155 10.772 46.055Zm-10.772-51.473v-78.113h17.055v79.919l-1.346-1.806-6.284-1.806-1.346.451-2.693.452-3.142-.452-2.244 1.355Zm8.079 5.418 2.244-.452h.449l.897.452 1.796 2.709.449 2.258 2.693 2.709 3.59-1.806.449-.452v-.451l.898-.903h-.898l.898-.452H313.281l1.795 3.161 3.142 4.966-.449 2.709v.452l-1.346 5.418-2.245.452-3.141-2.709-4.04-.903-1.346 4.063c.897 2.709 1.795 4.967 3.142 6.773 1.795 2.709 4.039 4.967 6.732 5.87 1.346.451 2.693.903 4.039.903h-14.362c-.898-11.74-3.142-26.64-7.63-34.767Zm13.913 3.612.898-.451-.449.451h-.449Zm34.56-.451 4.04-.452v-4.515l-3.142-4.967 1.795-4.515 5.835-3.612 3.142-1.355 3.141 1.355 5.835 3.612 1.795 4.515-3.141 4.967v4.515l4.488.452 5.386-2.258 4.039 2.258.898 2.709v.451l2.693 5.418-1.795 3.612v.452l-2.245 4.064-3.59 1.806-5.835-2.709h-4.039l-1.347 3.612c2.693 6.321 5.835 10.385 9.425 12.191.898.451 2.245.903 3.142.903h-37.701c.898 0 2.244-.452 3.142-.903 4.039-1.806 7.181-5.87 9.425-12.191l-1.346-3.612h-4.04l-5.835 2.709-3.59-1.806-2.244-4.064-1.796-4.064 2.693-5.418.449-.451.898-2.258 4.039-2.258 5.386 2.258v-.451Zm42.19 5.869-2.693-4.966-2.244-4.967-.898-.903v-81.725h18.402v80.822l-3.142.451-.898.452c-2.692 1.806-3.59 4.064-4.488 6.321l-2.693 4.064-1.346 3.16.897 4.064c.449 3.612.898 7.676 4.04 9.933.897.903 2.244 1.355 3.142 1.355l-.898.903h-4.488l-3.591-1.806h-3.591l-1.346.903v-3.161l3.591-5.869 2.693-4.967-.449-4.064Zm-2.244 23.931 3.59 1.806c1.796.451 3.142.903 4.489.903h-14.363c1.795-.452 4.039-1.355 6.284-2.709Zm-51.167 2.709h-14.362c1.346 0 3.142-.452 4.488-.903l3.142-1.806c2.693 1.354 4.937 2.257 6.732 2.709Zm-2.244-38.379-1.346 1.354-2.244 4.967-2.693 5.418-.449 4.064 2.693 4.967 3.59 5.869.898.903v2.71l-1.795-.904h-3.591l-3.59 1.807h-4.937l-.898-.903c.898-.452 2.244-.904 3.142-1.355 2.693-2.258 3.59-5.87 4.039-9.933l.898-4.064-1.347-3.612-2.244-4.064c-.898-2.257-1.795-4.515-4.488-6.321l-.898-.452-3.142-.451v-80.822h19.3v80.822h-.898Zm75.852 44.7-.449 2.258v1.354c-.449 3.161-.449 5.87-.898 8.579h-99.639c-.449-2.258-.449-4.967-.898-9.03l-.448-2.258v-.903h102.332Zm-13.914-6.321c1.347 0 2.693-.452 4.04-.903 2.693-.903 4.937-3.161 6.732-5.87 1.347-1.806 2.244-4.064 3.142-6.773l-1.795-3.612-4.04.903-3.142 2.709-2.244-.451-1.346-5.418-.449-3.161 3.142-4.967 1.795-3.16H402.148l1.347.903.449.903 3.141 1.806 2.693-2.709.449-2.258 1.796-2.709.897-.452h.449l2.244.452c-4.039 8.127-6.283 23.027-7.63 35.67h-13.465v-.903Zm19.749 10.385c1.346-14.9 4.488-42.443 10.772-46.507v74.501l-2.245 1.806c-2.244-7.676-5.386-14.449-9.425-19.867.449-2.258.449-5.418.898-9.933Zm8.527-52.828-3.59.452-2.693-.452-1.347-.451-6.283 1.806-1.347 1.806v-79.919h17.056v78.113l-1.796-1.355Zm-43.087-83.53-3.142 3.16v81.273l-1.346-.451h-.449c.449-3.612-.898-6.773-3.591-9.934-2.244-2.709-5.386-4.063-8.079-4.966l-4.039-1.806h-3.591l-3.59 1.806h-.449c-2.693 1.354-5.386 2.709-8.079 4.966-2.693 3.161-4.039 6.322-3.59 9.482v.452h-1.347v-81.273l-3.142-3.161h-50.717c-6.733 0-13.016 1.355-18.402 4.064v-44.701c5.386 2.71 11.669 4.516 18.402 4.516h51.166l3.142-3.161v-63.664l-3.142-3.161h-26.929c-7.182 0-13.914 1.355-19.3 4.064v-44.249c5.835 2.71 12.118 4.064 19.3 4.064h26.929l3.142-3.16v-52.376c0-7.225-1.347-13.997-4.04-19.416h45.332c-2.693 5.419-4.04 12.191-4.04 19.416v52.376l3.142 3.16h28.725c6.733 0 12.118-1.354 17.056-4.064v44.249c-4.938-2.709-10.323-4.064-17.056-4.064h-28.725l-3.142 3.161v63.664l3.142 3.161h49.82c7.181 0 13.914-1.355 19.3-4.064v44.7c-5.386-2.709-12.119-4.063-19.3-4.063h-49.371Zm-96.498 6.772V794.67c-5.834-3.161-11.669-4.967-17.055-4.967V646.121c4.488-3.161 10.323-4.515 17.055-4.967Zm-17.504-54.633V381.08h17.056v210.407c-6.284-.451-12.119-1.806-17.056-4.966Zm23.788 4.966v-51.924c5.835-3.612 12.118-4.515 17.055-4.967v56.891h-17.055Zm23.788 0v-56.891h19.299v56.891h-19.299Zm-23.788-111.524v-99.334h17.055v103.849c-6.283.451-12.567-1.355-17.055-4.515Zm37.253-64.567c3.59 5.418 5.834 12.642 5.834 20.77v49.215h-19.299V381.08h17.055v28.898h-.897l-2.693 1.806v3.612Zm10.323-5.418V381.08h17.055v28.898h-17.055Zm23.339 0V381.08h17.055v28.898h-17.055Zm25.583 0h-1.796V381.08h17.056v104.301h-18.402v-49.215c0-8.128 2.244-15.352 5.835-20.77l.448-3.161-3.141-2.257Zm21.992 74.951V381.08h17.056v99.334c-5.386 3.161-10.323 4.515-17.056 4.515Zm17.056 54.634v51.924h-17.056v-56.891c7.181 0 11.67 1.355 17.056 4.967Zm-23.788-4.967v56.891H382.4v-56.891h18.851Zm30.52 106.558c4.937 0 11.669 1.355 17.055 4.967v143.582h-2.244c-4.937.452-9.874 1.806-14.811 4.967V641.154Zm-16.607-335.928-3.141 3.16v39.282l3.141 3.161h24.686v8.127H291.288v-62.309H439.85v8.579h-24.686Zm24.686 6.772v32.058h-21.544v-32.058h21.544Zm-6.284-39.282h-23.339l11.67-37.927 11.669 37.927Zm-11.669-68.63c2.693 0 4.937 2.257 4.937 4.966 0 2.71-2.244 4.967-4.937 4.967s-4.489-2.257-4.489-4.967c0-2.709 2.245-4.966 4.489-4.966ZM291.288 103.849h18.402l95.6 65.47 7.181 28.445c-11.669-21.221-28.276-39.733-48.024-54.182-21.544-15.803-46.678-26.188-73.159-30.703v-9.03Zm69.568 45.152c21.095 15.351 38.599 35.67 49.82 58.697v.903c0 6.321 4.937 11.288 11.221 11.288l-3.142 2.257-13.465 43.798v-29.801c0-7.224-2.693-13.997-8.079-18.963-4.937-4.967-11.669-7.676-18.85-7.676-14.812 0-26.481 12.191-26.481 26.639v33.413l-26.481-63.664-3.142-1.806-3.141 1.806-27.379 66.824V120.104c24.686 4.515 48.922 14.448 69.119 28.897Zm38.151 87.594v36.121h-40.395v-36.121c0-11.288 8.977-20.318 20.197-20.318 5.386 0 10.323 2.257 14.363 5.869 3.59 4.064 5.835 9.031 5.835 14.449Zm-52.962 36.121h-47.127l23.339-56.439 23.788 56.439Zm-75.403-168.867h14.363v98.431c-2.244-4.516-5.386-8.579-8.977-12.191l-5.386-4.515v-81.725Zm-58.347-52.828-20.197 13.546v.452c0 4.515-3.591 8.127-8.079 8.127s-8.079-3.612-8.079-8.127c0-4.516 3.591-8.128 8.079-8.128 1.795 0 3.142.452 4.488 1.355l19.748-13.094-15.709-23.48h-.897c-4.04 0-7.63-3.611-7.63-8.127 0-4.515 3.59-8.127 8.079-8.127 4.488 0 8.079 3.612 8.079 8.128 0 1.354-.449 3.16-1.347 4.063l15.709 23.48 20.197-13.546v-.903c0-4.064 3.142-7.225 7.181-7.225 4.04 0 7.182 3.16 7.182 7.225 0 4.063-3.142 7.675-7.182 7.675-.897 0-2.244-.451-3.141-.903l-20.198 13.546L236.98 74.5c.898 0 1.796-.451 2.693-.451 5.835 0 10.772 4.966 10.772 10.385 0 5.87-4.488 10.836-10.772 10.836-5.834 0-10.772-4.967-10.772-10.836 0-2.258.898-4.516 2.245-6.322l-18.851-27.09Zm1.346 52.828h50.718v77.209c-7.63-4.515-16.607-6.772-25.135-6.772-8.976 0-17.504 2.257-25.134 6.772v-77.209h-.449Zm-20.646 0h14.363v81.725l-5.386 4.515c-3.591 3.612-6.284 7.675-8.977 12.191v-98.431Zm0 121.458c.449-11.288 5.386-22.576 13.465-30.703 8.528-8.579 20.197-13.546 32.764-13.546 12.119 0 23.788 4.967 32.765 13.546 8.079 8.127 13.016 19.415 13.465 30.703v46.958h-92.459v-46.958ZM72.261 169.319l95.6-65.47h18.402v9.482c-26.481 4.515-51.615 14.9-73.159 30.703-19.748 14.448-35.906 32.961-48.024 53.73l7.181-28.445Zm-5.386 38.83c11.67-23.027 28.725-43.345 50.269-58.697 20.197-14.9 44.433-24.833 69.119-29.348v152.612h-.449l-27.378-65.921-3.142-1.806-3.142 1.806-26.481 63.212v-33.412c0-14.9-12.118-26.64-26.48-26.64-7.182 0-13.914 2.71-18.851 7.676-4.937 4.967-8.079 11.74-8.079 18.964v29.8l-13.465-44.249-3.142-2.257c3.142 0 6.284-1.355 8.528-4.064 2.244-1.806 2.693-4.967 2.693-7.676Zm111.758 64.567h-46.678l23.339-56.439 23.339 56.439Zm-59.694-36.121v36.121H78.545v-36.121c0-5.418 2.244-10.385 5.834-14.449 3.591-3.612 8.977-5.869 14.363-5.869 11.22 0 20.197 9.03 20.197 20.318Zm-67.773-27.994c0-2.709 2.244-4.967 4.937-4.967s4.937 2.258 4.937 4.967c0 2.709-2.244 4.967-4.937 4.967-3.142 0-4.937-2.258-4.937-4.967Zm4.489 26.188 11.669 37.927H43.985l11.67-37.927ZM37.7 279.038H439.85v10.836H37.701v-10.836Zm247.304 17.609v62.309h-92.01v-62.309h92.01ZM37.701 311.998h21.544v32.058H37.701v-32.058Zm0 38.831h25.135l3.142-3.161v-38.83l-3.142-3.612H37.7v-8.579h148.562v62.309H37.701v-8.127ZM30.97 218.083c0-1.806 1.795-3.612 3.59-3.612 1.796 0 3.591 1.806 3.591 3.612 0 2.257-1.795 3.612-3.59 3.612-1.796 0-3.591-1.806-3.591-3.612Zm-.898 162.997h17.056v70.437H30.07V381.08Zm-23.339 0h17.056v70.437H6.732V381.08Zm0 154.419h17.056v70.437H6.732v-70.437Zm0 154.419h17.056v70.888H6.732v-70.888Zm40.395 199.571c-2.244-3.161-4.04-5.87-6.284-9.031-3.59-5.869-7.63-12.191-10.772-18.963v-17.158h17.056v45.152Zm23.788 25.736H68.67c-5.386-5.418-10.323-10.836-14.81-16.706v-54.182h17.055v70.888Zm164.719 80.37c-9.874-4.515-23.339-8.579-38.599-13.545l-1.347-.452c-19.299-5.87-41.292-12.642-63.284-22.124-11.221-4.967-22.442-10.837-33.213-18.512-8.528-5.87-16.158-12.643-23.788-19.416h160.231v74.049Zm-158.436-80.37v-70.888h17.056v70.437H77.198v.451Zm23.788 0v-70.888h17.055v70.437h-17.055v.451Zm23.788 0v-70.888h17.055v70.437h-17.055v.451Zm23.339 0v-70.888h17.055v70.437h-17.055v.451Zm23.787 0v-70.888h17.056v70.437H171.9v.451Zm23.788 0v-70.888h17.056v70.437h-17.056v.451Zm39.946 0h-16.158v-70.888h16.158v70.888Zm0-77.209H20.197c-4.04-11.288-7.63-23.028-9.874-35.219-2.244-11.739-3.142-23.479-3.59-35.669h228.901v70.888Zm-205.563-77.21v-70.888h17.056v70.888H30.07Zm23.788 0v-70.888h17.056v70.888H53.859Zm23.34 0v-70.888h17.055v70.888H77.198Zm23.787 0v-70.888h17.055v70.888h-17.055Zm23.788 0v-70.888h17.055v70.888h-17.055Zm23.339 0v-70.888h17.055v70.888h-17.055Zm23.787 0v-70.888h17.056v70.888H171.9Zm23.788 0v-70.888h17.056v70.888h-17.056Zm39.946 0h-16.158v-70.888h16.158v70.888Zm0-77.209H6.732V613.16h228.902v70.437ZM30.071 605.936v-70.437h17.056v70.437H30.07Zm23.788 0v-70.437h17.056v70.437H53.859Zm23.34 0v-70.437h17.055v70.437H77.198Zm23.787 0v-70.437h17.055v70.437h-17.055Zm23.788 0v-70.437h17.055v70.437h-17.055Zm23.339 0v-70.437h17.055v70.437h-17.055Zm23.787 0v-70.437h17.056v70.437H171.9Zm23.788 0v-70.437h17.056v70.437h-17.056Zm39.946 0h-16.158v-70.437h16.158v70.437Zm0-77.209H6.732V458.29h228.902v70.437Zm-181.775-77.21V381.08h17.056v70.437H53.859Zm23.34 0V381.08h17.055v70.437H77.198Zm23.787 0V381.08h17.055v70.437h-17.055Zm23.788 0V381.08h17.055v70.437h-17.055Zm23.339 0V381.08h17.055v70.437h-17.055Zm23.787 0V381.08h17.056v70.437H171.9Zm23.788 0V381.08h17.056v70.437h-17.056Zm39.946 0h-16.158V381.08h16.158v70.437ZM37.701 374.308v-9.031H439.85v9.031H37.701Zm221.721 6.772v409.527c-5.835 1.354-11.67 4.966-17.056 10.384V381.08h17.056Zm-17.056 614.064v-18.512l13.016 13.093c-5.386 2.258-9.425 4.064-13.016 5.419Zm37.702-13.094c-5.835 1.806-12.119 3.612-17.953 5.418l-20.198-20.318v-24.382l38.599 38.83-.448.452Zm7.63-2.258-45.332-46.055v-24.382l64.182 64.567c-6.732 2.258-13.016 4.064-18.85 5.87Zm25.583-8.127-70.915-71.34v-24.382l88.868 89.401c-5.386 2.257-11.221 4.063-17.953 6.321Zm32.315-11.74c-2.693.903-4.937 2.258-7.63 3.161l-95.6-96.625v-24.382l112.207 112.88c-3.142 1.806-6.284 3.612-8.977 4.966Zm15.26-7.675-118.49-119.201v-22.124l.898-1.355 132.404 133.198c-4.937 3.612-9.875 6.772-14.812 9.482Zm20.646-13.094-133.75-134.553c4.937-4.966 10.323-7.675 15.709-8.578l131.506 132.746c-4.488 3.612-8.976 7.224-13.465 10.385Zm18.402-14.901-126.12-126.876c6.732 2.258 13.016 7.224 17.504 11.74l3.142.903 2.244-2.258c.898-3.161 1.795-5.87 2.693-8.579l112.656 112.88c-3.591 4.063-7.631 8.127-12.119 12.19Zm16.607-17.157L302.06 791.961c1.347-2.258 2.693-4.967 4.04-6.773h13.464l107.719 108.364c-3.591 4.967-7.182 9.482-10.772 13.546Zm20.646-27.091c-1.795 3.16-4.04 5.87-5.835 8.579L328.541 785.64h24.236l87.97 88.497c-.897 1.806-2.244 3.612-3.59 5.87Zm7.181-12.191-82.135-82.176h24.236l65.978 66.373c-2.693 4.966-5.386 10.385-8.079 15.803Zm10.772-22.576-59.245-59.6h12.567c4.039 5.869 7.63 13.545 9.425 22.124l2.244 2.258 3.142-.903c2.693-2.709 6.733-6.322 11.221-8.579l26.929 27.091c-1.795 5.87-4.039 11.739-6.283 17.609Zm8.528-25.285-22.442-22.576c2.244-.451 4.04-1.354 5.835-1.354 8.528-.452 15.26 4.063 20.197 8.578-1.346 5.419-2.244 10.385-3.59 15.352Zm7.63-58.697c0 12.191-.898 23.93-3.142 35.67-4.04-3.612-8.528-5.419-13.016-6.773V381.08h16.158v380.178Z"/><path d="M214.985 348.134c6.284 2.71 14.812 4.064 24.237 4.064 8.976 0 17.504-1.354 24.237-4.064 7.181-3.16 11.22-7.675 11.22-12.642 0-15.352-21.543-32.961-35.457-32.961-13.914 0-35.457 17.609-35.457 32.961 0 4.967 4.039 9.482 11.22 12.642Zm23.788-39.282c10.772 0 28.725 14.901 28.725 26.188 0 2.258-2.693 4.516-7.181 6.322-5.386 2.257-13.465 3.612-21.544 3.612s-16.158-1.355-21.544-3.612c-4.488-1.806-7.181-4.515-7.181-6.322 0-11.287 18.402-26.188 28.725-26.188ZM126.125 305.678l-3.142 3.16v38.831l3.142 3.16h42.639l3.141-3.16v-38.831l-3.141-3.16h-42.639Zm39.048 38.83h-36.355V312.45h36.355v32.058ZM100.99 305.678H87.974c-2.693 0-5.386 1.354-7.63 3.16a10.927 10.927 0 0 0-3.142 7.676v23.931c0 2.709.898 5.418 3.142 7.675 1.795 1.806 4.937 3.161 7.63 3.161h13.016c2.693 0 5.386-.903 7.63-3.161l.449-.451v-.452c1.346-1.806 2.693-4.063 2.693-6.772v-24.382c0-2.709-1.347-5.419-3.142-7.676a12.142 12.142 0 0 0-7.63-2.709Zm4.039 34.315-1.346 3.161-2.693 1.354H87.974l-3.142-1.354-1.346-3.161v-23.93l1.346-2.709 2.693-1.355h13.016l2.693 1.355 1.347 2.709v23.93h.448ZM99.195 208.161c6.283 0 11.669-5.419 11.669-11.74 0-6.321-5.386-11.739-11.67-11.739-6.283 0-11.669 5.418-11.669 11.739 0 6.773 4.938 11.74 11.67 11.74Zm0-16.707c2.693 0 4.937 2.258 4.937 4.967 0 2.709-2.244 4.967-4.937 4.967s-4.937-2.258-4.937-4.967c-.449-2.709 1.795-4.967 4.937-4.967ZM309.234 305.678l-3.142 3.16v38.831l3.142 3.16h42.638l3.142-3.16v-38.831l-3.142-3.16h-42.638Zm39.496 38.83h-36.355V312.45h36.355v32.058ZM322.705 203.174c8.079 0 14.362-6.321 14.362-14.448s-6.283-14.449-14.362-14.449-14.362 6.322-14.362 14.449c-.449 8.127 6.283 14.448 14.362 14.448Zm0-22.575c4.488 0 7.63 3.612 7.63 8.127 0 4.515-3.591 8.127-7.63 8.127-4.488 0-8.079-3.612-8.079-8.127 0-4.515 3.591-8.127 8.079-8.127ZM378.803 208.161c6.284 0 11.67-5.419 11.67-11.74 0-6.321-5.386-11.739-11.67-11.739-6.283 0-11.669 5.418-11.669 11.739 0 6.773 5.386 11.74 11.669 11.74Zm0-16.707c2.693 0 4.937 2.258 4.937 4.967 0 2.709-2.244 4.967-4.937 4.967s-4.937-2.258-4.937-4.967c0-2.709 2.244-4.967 4.937-4.967ZM390.031 305.678h-13.016c-2.693 0-5.386.903-7.63 3.16-2.244 1.806-3.142 4.516-3.142 7.676v23.931c0 2.709 1.347 5.418 3.142 7.675a10.795 10.795 0 0 0 7.63 3.161h13.016c2.693 0 5.386-.903 7.63-3.161l.449-.451v-.452c1.795-1.806 2.693-4.063 2.693-6.772v-24.382c0-2.709-.898-5.419-3.142-7.676a12.142 12.142 0 0 0-7.63-2.709Zm4.039 34.315-1.346 3.161-2.693 1.354h-13.016l-2.693-1.354-1.346-3.161v-23.93l1.346-2.709 2.693-1.355h13.016l2.693 1.355 1.346 2.709v23.93ZM251.793 169.771c3.59-3.16 5.386-7.224 5.386-11.739 0-4.515-1.796-8.579-5.386-11.739-3.591-3.161-8.079-4.516-12.568-4.516-4.937 0-9.425 1.806-12.567 4.516-3.59 3.16-5.386 7.224-5.386 11.739 0 4.515 1.796 8.579 5.386 11.739 3.591 3.161 8.079 4.516 12.567 4.516 4.489 0 8.977-1.807 12.568-4.516Zm-24.686-11.739c0-2.709 1.347-4.967 3.142-6.773 2.244-1.806 5.386-3.16 8.528-3.16 3.141 0 6.283.903 8.527 3.16 2.244 1.806 3.142 4.064 3.142 6.773 0 2.709-1.346 4.967-3.142 6.773-2.244 1.806-5.386 3.16-8.527 3.16-3.142 0-6.284-.903-8.528-3.16-1.795-1.806-3.142-4.515-3.142-6.773ZM155.286 203.174c8.079 0 14.363-6.321 14.363-14.448s-6.284-14.449-14.363-14.449-14.362 6.322-14.362 14.449c0 8.127 6.283 14.448 14.362 14.448Zm0-22.575c4.489 0 7.63 3.612 7.63 8.127 0 4.515-3.59 8.127-7.63 8.127-4.488 0-8.079-3.612-8.079-8.127.449-4.515 3.591-8.127 8.079-8.127Z"/></g></svg>