<svg width="271" height="48" viewBox="0 0 271 48" fill="none" xmlns="http://www.w3.org/2000/svg">
<g clip-path="url(#clip0)">
<rect width="271" height="48" fill="white"/>
<path fill-rule="evenodd" clip-rule="evenodd" d="M168.378 27.68C168.423 27.616 168.445 27.55 168.41 27.482C168.393 27.4468 168.366 27.4173 168.332 27.3964C168.299 27.3756 168.261 27.3644 168.221 27.364C168.189 27.364 168.158 27.361 168.127 27.364C168.061 27.367 168.018 27.446 168.056 27.501C168.134 27.611 168.223 27.708 168.378 27.68ZM155.119 21.264C154.914 21.214 154.727 21.15 154.536 21.129C154.295 21.1 154.056 21.0549 153.82 20.994C153.726 20.9645 153.626 20.9607 153.53 20.983L154.075 21.299C154.095 21.31 154.115 21.326 154.136 21.333C154.174 21.343 154.212 21.356 154.251 21.357C154.517 21.373 154.783 21.361 155.047 21.322C155.066 21.319 155.082 21.294 155.119 21.264ZM161.028 19.07C161.034 19.09 161.034 19.116 161.046 19.135C161.077 19.179 161.111 19.223 161.149 19.263C161.215 19.331 161.252 19.339 161.335 19.286C161.491 19.189 161.658 19.121 161.832 19.073C162.293 18.943 162.755 18.863 163.226 19.018C163.248 19.026 163.272 19.028 163.296 19.029C163.342 19.033 163.385 18.97 163.36 18.931C163.341 18.8977 163.314 18.8694 163.282 18.848C163.171 18.788 163.046 18.7564 162.919 18.756C162.73 18.75 162.541 18.756 162.352 18.748C161.96 18.73 161.587 18.824 161.218 18.938C161.146 18.961 161.065 18.982 161.028 19.07ZM169.291 22.06C169.324 21.925 169.355 21.82 169.376 21.713C169.382 21.6743 169.375 21.6349 169.355 21.601C169.254 21.424 168.987 21.42 168.888 21.596C168.826 21.7153 168.801 21.8503 168.815 21.984C168.821 22.0228 168.836 22.0598 168.858 22.092C168.98 22.299 169.138 22.47 169.357 22.578C169.428 22.613 169.504 22.638 169.57 22.681C169.702 22.764 169.837 22.844 169.957 22.945C170.114 23.078 170.176 23.266 170.211 23.464C170.22 23.514 170.206 23.577 170.288 23.606C170.333 23.454 170.363 23.306 170.277 23.161C170.188 23.013 170.105 22.861 170.002 22.723C169.914 22.592 169.794 22.4854 169.653 22.413C169.488 22.337 169.388 22.198 169.291 22.06ZM166.804 33.779C166.732 33.831 166.684 33.858 166.65 33.894C166.556 34.0015 166.428 34.0744 166.287 34.101C166.117 34.132 165.947 34.164 165.775 34.179C165.652 34.193 165.525 34.183 165.401 34.179C165.195 34.177 164.991 34.162 164.788 34.17C164.622 34.1815 164.465 34.2537 164.348 34.373C164.223 34.491 164.202 34.597 164.321 34.769C164.387 34.865 164.491 34.906 164.612 34.883C164.729 34.863 164.793 34.797 164.803 34.678C164.806 34.649 164.819 34.62 164.823 34.598C164.955 34.5173 165.104 34.4693 165.258 34.458C165.383 34.451 165.509 34.44 165.634 34.438C165.858 34.438 166.071 34.396 166.269 34.292C166.339 34.256 166.397 34.195 166.468 34.168C166.607 34.112 166.694 34 166.787 33.894C166.801 33.878 166.795 33.842 166.804 33.779ZM163.046 24.273C163.019 24.395 163.067 24.473 163.09 24.553C163.138 24.728 163.206 24.898 163.233 25.074C163.253 25.2062 163.3 25.3328 163.371 25.446C163.565 25.76 163.76 26.073 163.946 26.392C164.083 26.632 164.198 26.881 164.288 27.145C164.19 27.364 164.147 27.584 164.244 27.824C164.292 27.796 164.295 27.758 164.305 27.72C164.346 27.56 164.385 27.395 164.504 27.273C164.603 27.171 164.596 27.07 164.552 26.95C164.44 26.6567 164.299 26.3753 164.131 26.11C163.98 25.86 163.813 25.622 163.65 25.38C163.532 25.1845 163.433 24.9774 163.356 24.762C163.302 24.582 163.227 24.412 163.046 24.272V24.273ZM170.87 17.656C170.873 17.6417 170.876 17.6274 170.877 17.613C170.86 17.6 170.844 17.578 170.825 17.576C170.537 17.548 170.246 17.519 169.954 17.533C169.679 17.547 169.403 17.557 169.129 17.57C169.05 17.574 168.971 17.578 168.893 17.586C168.409 17.639 167.924 17.686 167.45 17.81C167.131 17.893 166.806 17.956 166.487 18.034C165.99 18.154 165.503 18.312 165.021 18.481C164.605 18.627 164.194 18.786 163.781 18.941C163.729 18.9579 163.679 18.9811 163.632 19.01C163.596 19.033 163.572 19.073 163.538 19.111C163.64 19.221 163.743 19.299 163.87 19.358L164.057 19.256C164.193 19.177 164.323 19.085 164.466 19.022C164.79 18.88 165.116 18.744 165.449 18.619C165.727 18.514 166.011 18.42 166.297 18.335C166.621 18.239 166.95 18.158 167.276 18.07C167.737 17.9358 168.208 17.8355 168.683 17.77C169.348 17.69 170.015 17.64 170.686 17.656C170.746 17.658 170.809 17.656 170.87 17.656ZM168.187 27.23C168.27 27.317 168.381 27.333 168.486 27.36C168.574 27.381 168.658 27.375 168.74 27.342C168.806 27.3118 168.865 27.2688 168.914 27.2155C168.963 27.1621 169.001 27.0996 169.026 27.0314C169.051 26.9632 169.061 26.8909 169.058 26.8185C169.054 26.7461 169.036 26.6753 169.004 26.61C168.98 26.563 168.95 26.515 168.925 26.468C168.888 26.4026 168.869 26.328 168.872 26.2527C168.875 26.1774 168.899 26.1043 168.941 26.042C169.012 25.93 169.089 25.822 169.169 25.716C169.319 25.52 169.532 25.394 169.718 25.238C169.981 25.017 170.194 24.761 170.291 24.422C170.322 24.2918 170.323 24.1563 170.292 24.026C170.289 24.01 170.259 23.988 170.241 23.986C170.224 23.986 170.194 24.006 170.188 24.023C170.166 24.09 170.155 24.161 170.133 24.228C170.102 24.326 170.085 24.435 170.026 24.512C169.911 24.659 169.789 24.813 169.636 24.917C169.441 25.05 169.263 25.202 169.075 25.343C168.775 25.567 168.531 25.834 168.345 26.161C168.202 26.412 168.14 26.668 168.17 26.951C168.179 27.036 168.181 27.121 168.187 27.231V27.23ZM155.23 14.648C153.55 13.202 152.329 11.456 151.577 9.37598C151.535 9.39598 151.506 9.40598 151.484 9.42298C151.405 9.48898 151.378 9.57898 151.376 9.67698C151.373 9.83498 151.389 9.98998 151.447 10.141C151.564 10.45 151.705 10.747 151.867 11.036C152.136 11.516 152.402 11.996 152.749 12.426C152.997 12.732 153.235 13.048 153.497 13.34C153.881 13.768 154.332 14.125 154.794 14.467C154.876 14.528 154.958 14.59 155.041 14.647C155.088 14.679 155.138 14.704 155.23 14.648ZM154.985 41.328C155.014 41.265 155.028 41.244 155.031 41.224C155.047 41.092 155.062 40.959 155.074 40.825C155.095 40.605 155.134 40.392 155.212 40.182C155.329 39.866 155.435 39.546 155.568 39.235C155.705 38.918 155.809 38.586 155.925 38.261C156.006 38.033 156.083 37.801 156.161 37.571C156.277 37.228 156.389 36.884 156.507 36.543C156.563 36.381 156.647 36.228 156.664 36.051C156.67 35.991 156.701 35.931 156.729 35.875C156.765 35.797 156.788 35.714 156.797 35.629C156.815 35.512 156.855 35.401 156.89 35.289C156.907 35.227 156.941 35.173 156.956 35.112C156.986 34.986 156.993 34.862 156.918 34.748C156.895 34.714 156.871 34.684 156.813 34.706C156.756 34.799 156.727 34.915 156.688 35.025C156.658 35.108 156.59 35.118 156.523 35.057C156.287 34.837 156.18 34.554 156.135 34.243C156.12 34.133 156.102 34.026 156.085 33.918C156.081 33.8774 156.066 33.8386 156.042 33.8054C156.018 33.7722 155.986 33.7455 155.949 33.728C155.929 33.767 155.898 33.8 155.897 33.833C155.896 33.974 155.896 34.113 155.909 34.255C155.923 34.402 155.963 34.549 155.97 34.695C155.982 34.908 155.975 35.119 155.975 35.331C155.975 35.441 155.981 35.551 155.975 35.661C155.964 35.856 155.948 36.051 155.933 36.247C155.919 36.42 155.908 36.592 155.887 36.762C155.825 37.272 155.693 37.764 155.569 38.259C155.496 38.549 155.402 38.833 155.342 39.126C155.276 39.451 155.165 39.762 155.055 40.073C154.946 40.38 154.895 40.694 154.89 41.018C154.889 41.074 154.887 41.13 154.9 41.182C154.909 41.224 154.942 41.258 154.985 41.328ZM152.139 16.415C152.095 16.4839 152.069 16.5629 152.063 16.6446C152.057 16.7264 152.071 16.8084 152.105 16.883C152.166 17.0469 152.279 17.1859 152.427 17.278C152.474 17.305 152.519 17.335 152.548 17.355C152.554 17.491 152.539 17.612 152.569 17.721C152.65 18.023 152.728 18.081 153.007 18.079C153.22 18.077 153.432 18.062 153.644 18.055C153.771 18.0511 153.895 18.0205 154.008 17.965C154.368 17.786 154.727 17.607 155.085 17.426C155.111 17.413 155.129 17.388 155.17 17.351C155.083 17.32 155.018 17.298 154.954 17.273C154.771 17.203 154.583 17.142 154.406 17.059C154.108 16.919 153.82 16.753 153.517 16.623C153.224 16.4899 152.942 16.3327 152.674 16.153C152.496 16.0369 152.329 15.9058 152.173 15.761C151.94 15.5499 151.739 15.3052 151.577 15.035C151.557 15.0013 151.533 14.9698 151.506 14.941C151.48 14.913 151.45 14.885 151.399 14.921C151.377 15.051 151.423 15.179 151.437 15.31C151.457 15.498 151.53 15.656 151.648 15.8C151.807 15.995 151.961 16.194 152.139 16.415Z" fill="#DB334A"/>
<path fill-rule="evenodd" clip-rule="evenodd" d="M156.08 16.519C156.15 16.457 156.123 16.417 156.069 16.38C155.726 16.144 155.382 15.91 155.039 15.671C154.528 15.319 153.999 14.991 153.539 14.569C153.249 14.304 152.914 14.089 152.652 13.792C152.46 13.574 152.261 13.358 152.091 13.124C151.78 12.694 151.556 12.216 151.37 11.719C151.21 11.3139 151.169 10.8718 151.25 10.444L151.265 10.35C151.294 10.185 151.184 10.051 151.163 9.89597C151.159 9.86257 151.146 9.83092 151.125 9.80448C151.105 9.77803 151.077 9.75779 151.045 9.74597C150.947 9.83193 150.874 9.94385 150.836 10.069C150.675 10.525 150.707 10.988 150.83 11.441C150.962 11.926 151.17 12.386 151.413 12.827C151.447 12.887 151.475 12.951 151.5 13.004C151.378 13.204 151.376 13.239 151.431 13.439C151.48 13.619 151.571 13.773 151.694 13.909C151.846 14.079 151.999 14.248 152.17 14.399C152.37 14.575 152.55 14.775 152.776 14.921C153.212 15.204 153.644 15.491 154.094 15.749C154.545 16.01 155.029 16.199 155.521 16.368C155.704 16.431 155.897 16.47 156.08 16.518V16.519ZM159.176 18.441C159.206 18.416 159.238 18.402 159.248 18.379C159.263 18.3424 159.268 18.3031 159.265 18.264C159.247 17.894 159.256 17.524 159.195 17.156C159.144 16.854 159.114 16.547 159.04 16.251C158.959 15.9387 158.859 15.6318 158.739 15.332C158.605 14.9876 158.46 14.6474 158.304 14.312C158.178 14.032 158.045 13.755 157.899 13.487C157.707 13.134 157.499 12.791 157.296 12.444C157.225 12.3216 157.151 12.2009 157.074 12.082C157.055 12.053 157.023 12.033 156.971 11.986C156.974 12.049 156.967 12.081 156.979 12.106C157.003 12.163 157.046 12.214 157.065 12.273C157.146 12.518 157.209 12.77 157.301 13.011C157.402 13.278 157.452 13.556 157.501 13.833C157.547 14.104 157.555 14.381 157.577 14.654C157.608 15.054 157.535 15.439 157.401 15.812C157.331 16.003 157.229 16.182 157.147 16.37C157.042 16.611 156.903 16.826 156.684 16.981C156.674 16.988 156.673 17.008 156.663 17.036C156.731 17.05 156.796 17.069 156.863 17.079C157.194 17.128 157.501 17.247 157.789 17.415C158.178 17.641 158.538 17.908 158.899 18.175C158.962 18.22 159.014 18.281 159.071 18.336L159.176 18.441ZM156.957 27.211C156.824 27.332 156.702 27.456 156.568 27.563C156.359 27.731 156.142 27.888 155.928 28.048C155.698 28.221 155.785 28.218 155.492 28.1C155.435 28.0735 155.382 28.0388 155.335 27.997C155.24 27.9151 155.147 27.8311 155.055 27.745C154.997 27.6916 154.944 27.6323 154.898 27.568C154.71 27.278 154.53 26.982 154.431 26.646C154.427 26.633 154.414 26.622 154.398 26.597C154.336 26.5752 154.274 26.5532 154.211 26.531C154.185 26.566 154.163 26.588 154.148 26.613C154.024 26.823 153.915 27.043 153.776 27.241C153.571 27.549 153.383 27.8685 153.213 28.198C153.079 28.446 152.968 28.708 152.849 28.964C152.821 29.025 152.788 29.09 152.844 29.161C152.9 29.137 152.952 29.118 153.001 29.093C153.094 29.0477 153.197 29.0284 153.299 29.037C153.574 29.053 153.844 29.072 154.112 29.16C154.493 29.283 154.883 29.261 155.232 29.06C155.427 28.946 155.63 28.873 155.839 28.806C156.027 28.746 156.221 28.715 156.421 28.719C156.736 28.725 157.048 28.675 157.36 28.64C157.407 28.6351 157.454 28.6251 157.498 28.61C157.668 28.547 157.837 28.483 158.005 28.415C158.171 28.348 158.29 28.193 158.476 28.16C158.489 28.158 158.501 28.141 158.514 28.132C158.849 27.892 159.054 27.547 159.274 27.211C159.313 27.15 159.317 27.079 159.262 27.015C159.238 27.012 159.214 27.002 159.193 27.006C159.131 27.018 159.07 27.036 159.01 27.052C158.873 27.084 158.736 27.134 158.597 27.148C158.284 27.178 157.97 27.198 157.656 27.208C157.42 27.218 157.184 27.211 156.957 27.211ZM154.156 44.194C153.997 44.31 153.967 44.334 153.787 44.367C153.547 44.407 153.303 44.436 153.061 44.459C152.779 44.484 152.496 44.499 152.213 44.517C152.19 44.519 152.162 44.519 152.145 44.53C152.114 44.551 152.075 44.576 152.064 44.609C152.045 44.6567 152.037 44.708 152.04 44.7592C152.043 44.8105 152.056 44.8606 152.08 44.906C152.092 44.9311 152.111 44.9525 152.134 44.9677C152.157 44.9829 152.185 44.9913 152.212 44.992C152.283 44.995 152.354 44.995 152.425 44.995L157.317 44.985C157.38 44.985 157.443 44.985 157.506 44.982C157.596 44.977 157.629 44.942 157.638 44.849C157.641 44.8177 157.641 44.7863 157.64 44.755C157.633 44.613 157.594 44.55 157.457 44.52C157.281 44.48 157.101 44.456 156.923 44.425L156.77 44.4C156.697 44.248 156.704 44.076 156.562 43.955C156.494 43.952 156.416 43.94 156.339 43.947C156.245 43.9529 156.152 43.97 156.061 43.998C155.917 44.0421 155.762 44.035 155.622 43.978C155.353 43.8871 155.108 43.7344 154.907 43.532C154.837 43.46 154.789 43.367 154.738 43.279C154.711 43.233 154.706 43.172 154.678 43.125C154.618 43.0139 154.595 42.8862 154.612 42.761C154.618 42.698 154.623 42.635 154.618 42.572C154.604 42.342 154.466 42.23 154.24 42.265C154.202 42.27 154.164 42.284 154.125 42.29C153.982 42.311 153.875 42.233 153.862 42.09C153.856 42.0275 153.863 41.9644 153.883 41.905C153.946 41.736 154.006 41.562 154.092 41.405C154.339 40.959 154.478 40.478 154.572 39.981C154.644 39.602 154.725 39.226 154.794 38.846C154.836 38.614 154.89 38.385 154.892 38.148C154.894 37.814 154.966 37.492 155.054 37.172C155.119 36.939 155.182 36.702 155.242 36.467C155.255 36.4135 155.262 36.3589 155.262 36.304C155.271 36.07 155.196 35.839 155.257 35.611C155.075 35.545 155.07 35.547 155.002 35.677C154.988 35.704 154.975 35.734 154.96 35.762C154.75 36.192 154.538 36.622 154.328 37.054C154.214 37.2703 154.158 37.5133 154.168 37.758C154.185 38.018 154.202 38.276 154.221 38.536C154.233 38.716 154.236 38.898 154.197 39.078C154.155 39.27 154.12 39.464 154.073 39.654C154.008 39.921 153.928 40.184 153.868 40.454C153.798 40.754 153.671 41.034 153.544 41.314C153.53 41.3502 153.508 41.3829 153.48 41.41C153.35 41.524 153.286 41.678 153.214 41.825C153.089 42.081 153.099 42.332 153.286 42.553C153.48 42.784 153.592 43.052 153.653 43.337C153.692 43.521 153.776 43.673 153.884 43.82C153.972 43.939 154.058 44.058 154.156 44.194ZM152.632 18.298C152.525 18.38 152.508 18.466 152.545 18.565C152.655 18.857 152.803 19.121 153.097 19.295C152.963 19.504 152.817 19.705 152.823 19.962C152.828 20.208 152.862 20.447 153 20.657C153.03 20.66 153.054 20.667 153.076 20.664C153.346 20.628 153.61 20.668 153.872 20.725C153.993 20.7567 154.119 20.7621 154.241 20.741C154.418 20.708 154.601 20.703 154.781 20.693C154.938 20.683 155.096 20.684 155.253 20.676C155.326 20.672 155.367 20.614 155.347 20.545C155.32 20.455 155.283 20.367 155.253 20.277C155.205 20.13 155.144 19.983 155.177 19.816C155.205 19.799 155.231 19.783 155.259 19.768C155.483 19.648 155.724 19.581 155.977 19.55C156.015 19.546 156.057 19.54 156.049 19.473C155.993 19.461 155.933 19.44 155.872 19.434C155.707 19.421 155.542 19.403 155.378 19.407C155.109 19.415 154.87 19.317 154.63 19.22C154.594 19.205 154.563 19.1804 154.54 19.149C154.465 19.0573 154.412 18.95 154.384 18.835C154.367 18.756 154.39 18.702 154.447 18.647C154.589 18.513 154.761 18.44 154.942 18.384C155.153 18.32 155.364 18.255 155.575 18.196C155.688 18.164 155.804 18.139 155.919 18.116C155.962 18.1063 156.006 18.1073 156.048 18.119C156.09 18.1307 156.129 18.1527 156.16 18.183C156.341 18.35 156.495 18.537 156.583 18.771C156.667 18.991 156.757 19.211 156.827 19.434C156.89 19.628 156.93 19.829 156.975 20.028C156.987 20.081 156.981 20.137 156.98 20.193C156.978 20.295 156.971 20.397 156.97 20.5C156.968 20.544 156.972 20.589 156.973 20.635C157.009 20.642 157.032 20.647 157.054 20.648C157.232 20.65 157.391 20.58 157.554 20.523C157.982 20.372 158.404 20.375 158.81 20.595C158.969 20.682 159.119 20.783 159.275 20.875C159.335 20.91 159.401 20.936 159.465 20.963C159.475 20.968 159.497 20.958 159.506 20.948C159.516 20.939 159.523 20.919 159.519 20.908C159.511 20.8859 159.5 20.8653 159.485 20.847C159.242 20.5186 159.021 20.1738 158.824 19.815C158.593 19.3857 158.319 18.9804 158.007 18.605C157.777 18.335 157.551 18.063 157.268 17.845C157.213 17.8008 157.155 17.761 157.093 17.726C156.806 17.573 156.495 17.485 156.182 17.406C156.072 17.3708 155.955 17.365 155.842 17.389L155.998 17.619C155.921 17.633 155.869 17.645 155.818 17.651C155.622 17.6666 155.429 17.7083 155.243 17.775C155.047 17.853 154.832 17.888 154.663 18.028C154.646 18.043 154.62 18.046 154.598 18.055C154.224 18.205 153.838 18.311 153.443 18.385C153.17 18.437 152.895 18.451 152.632 18.298ZM152.326 20.976C152.209 20.995 152.131 21.079 152.038 21.131C151.937 21.188 151.886 21.283 151.863 21.399C151.839 21.4994 151.85 21.605 151.892 21.699C151.983 21.89 152.071 22.084 152.174 22.269C152.377 22.629 152.616 22.96 152.973 23.186C152.989 23.196 152.996 23.223 153.011 23.248C152.946 23.353 152.853 23.422 152.761 23.495C152.639 23.5963 152.493 23.6635 152.336 23.6899C152.18 23.7162 152.019 23.7007 151.87 23.645C151.811 23.625 151.752 23.601 151.691 23.585C151.521 23.545 151.363 23.555 151.236 23.696C151.178 23.76 151.111 23.817 151.055 23.882C150.906 24.0478 150.825 24.2638 150.827 24.487C150.828 24.574 150.821 24.661 150.829 24.747C150.846 24.94 150.821 25.124 150.692 25.267C150.705 25.3273 150.734 25.3829 150.777 25.4276C150.82 25.4723 150.874 25.5043 150.933 25.52C151.064 25.561 151.202 25.57 151.323 25.502C151.454 25.4284 151.605 25.396 151.754 25.409C151.832 25.413 151.912 25.41 151.989 25.4C152.054 25.391 152.097 25.334 152.103 25.267C152.111 25.1488 152.09 25.0305 152.042 24.922C152.009 24.842 151.924 24.806 151.826 24.818C151.763 24.826 151.701 24.848 151.64 24.843C151.53 24.8368 151.421 24.8682 151.33 24.932C151.266 24.971 151.2 25.019 151.1 24.998C151.105 24.744 151.164 24.513 151.304 24.308C151.345 24.2451 151.399 24.1914 151.462 24.1504C151.525 24.1095 151.595 24.0821 151.669 24.07C151.847 24.037 152.021 23.983 152.198 23.95C152.41 23.91 152.61 23.847 152.787 23.719C152.807 23.705 152.837 23.704 152.884 23.692C152.874 23.753 152.87 23.792 152.861 23.828C152.834 23.95 152.807 24.073 152.776 24.195C152.751 24.3026 152.755 24.4149 152.785 24.521C152.836 24.721 152.93 24.883 153.111 24.99C153.137 25.005 153.157 25.028 153.184 25.052L153.13 25.189C153.097 25.275 153.059 25.363 153.033 25.453C152.963 25.682 152.965 25.896 153.126 26.098C153.235 26.237 153.338 26.368 153.498 26.451C153.581 26.495 153.645 26.484 153.714 26.43C153.971 26.2194 154.279 26.0801 154.606 26.026C154.66 26.0175 154.712 25.9968 154.757 25.9654C154.802 25.934 154.839 25.8929 154.865 25.845C154.991 25.635 155.127 25.432 155.26 25.228C155.389 25.028 155.533 24.841 155.726 24.698C155.851 24.608 155.901 24.486 155.915 24.336C155.928 24.18 155.949 24.023 155.985 23.87C156.021 23.718 156.08 23.57 156.13 23.421C156.161 23.3066 156.221 23.2019 156.303 23.117C156.326 23.096 156.332 23.056 156.348 23.013C156.29 23.008 156.251 23 156.213 23.004C156.039 23.024 155.887 22.965 155.74 22.884C155.706 22.864 155.67 22.847 155.638 22.824C155.48 22.7184 155.293 22.6646 155.103 22.67C155.04 22.668 154.976 22.668 154.914 22.663C154.888 22.66 154.863 22.644 154.812 22.624C154.871 22.589 154.904 22.571 154.936 22.55C155.036 22.483 155.136 22.484 155.249 22.526C155.417 22.591 155.59 22.647 155.763 22.699C155.906 22.743 156.054 22.769 156.185 22.847C156.27 22.898 156.352 22.876 156.424 22.813C156.469 22.775 156.509 22.731 156.566 22.677C156.607 22.77 156.589 22.849 156.602 22.924C156.617 23.009 156.637 23.093 156.653 23.177C156.66 23.217 156.674 23.257 156.669 23.295C156.645 23.451 156.705 23.587 156.766 23.725C156.823 23.855 156.873 23.986 156.935 24.114C156.989 24.227 157.051 24.337 157.119 24.442C157.195 24.562 157.3 24.655 157.448 24.735C157.444 24.677 157.452 24.635 157.439 24.604C157.413 24.539 157.375 24.479 157.34 24.417C157.227 24.217 157.114 24.021 157.002 23.821C156.976 23.774 156.944 23.723 156.937 23.67C156.909 23.444 156.87 23.217 156.872 22.99C156.874 22.692 156.908 22.395 156.931 22.097C156.94 21.98 156.958 21.864 156.969 21.747C156.973 21.7 156.97 21.654 156.97 21.602C156.865 21.547 156.77 21.491 156.67 21.45C156.606 21.424 156.534 21.419 156.464 21.407C156.456 21.406 156.444 21.425 156.422 21.447C156.448 21.472 156.472 21.5 156.499 21.523C156.529 21.549 156.568 21.566 156.592 21.595C156.609 21.615 156.623 21.66 156.613 21.677C156.595 21.707 156.556 21.743 156.526 21.742C156.473 21.742 156.421 21.719 156.369 21.702C156.309 21.682 156.252 21.652 156.191 21.637C156.119 21.62 156.018 21.74 156.045 21.809C156.053 21.828 156.076 21.849 156.095 21.854C156.134 21.8608 156.174 21.8632 156.213 21.861C156.337 21.8605 156.459 21.8833 156.574 21.928C156.603 22.104 156.588 22.129 156.452 22.148L156.428 22.149C156.24 22.149 156.054 22.205 155.864 22.175C155.819 22.168 155.789 22.194 155.78 22.238C155.77 22.288 155.803 22.335 155.853 22.34C155.892 22.344 155.932 22.34 155.97 22.343C156.026 22.344 156.08 22.346 156.136 22.349C156.206 22.354 156.248 22.397 156.277 22.458C156.296 22.498 156.301 22.538 156.269 22.567C156.25 22.585 156.213 22.601 156.187 22.596C156.056 22.572 155.926 22.54 155.795 22.512C155.664 22.4885 155.537 22.4411 155.422 22.372C155.33 22.314 155.228 22.272 155.132 22.218C155.08 22.191 155.025 22.176 154.973 22.202C154.727 22.324 154.461 22.403 154.229 22.556C154.065 22.664 153.903 22.773 153.718 22.851C153.666 22.8778 153.608 22.8915 153.549 22.8912C153.49 22.8909 153.432 22.8764 153.38 22.849C153.157 22.731 152.939 22.6 152.778 22.401C152.589 22.1784 152.442 21.9237 152.342 21.649C152.287 21.5096 152.278 21.3558 152.317 21.211C152.34 21.138 152.365 21.062 152.326 20.976Z" fill="#DB334A"/>
<path fill-rule="evenodd" clip-rule="evenodd" d="M159.172 15.522L159.202 15.521C159.193 15.42 159.197 15.316 159.171 15.219C159.083 14.8594 158.967 14.507 158.825 14.165C158.618 13.7058 158.392 13.2558 158.147 12.816C158.129 12.781 158.105 12.749 158.083 12.716C157.951 12.512 157.813 12.31 157.688 12.101C157.496 11.777 157.312 11.446 157.127 11.117C157.038 10.959 156.954 10.8 156.866 10.641C156.692 10.325 156.511 10.011 156.343 9.69202C156.225 9.47002 156.125 9.23802 156.013 9.01202C155.91 8.81824 155.822 8.617 155.75 8.41002C155.713 8.29902 155.67 8.18902 155.629 8.07902C155.485 7.70402 155.34 7.33002 155.198 6.95402C155.14 6.80002 155.093 6.64302 155.032 6.49002C154.977 6.35102 154.908 6.21802 154.849 6.08002C154.749 5.83218 154.62 5.59665 154.466 5.37802C154.35 5.21799 154.19 5.09475 154.006 5.02302C153.962 5.00462 153.915 4.99707 153.868 5.00102C153.694 5.01313 153.529 5.0816 153.398 5.19602C153.196 5.38627 153.058 5.63427 153.003 5.90602C152.964 6.08602 152.922 6.80602 152.938 6.98802C152.942 7.03102 152.958 7.08402 152.887 7.11402C152.696 6.97782 152.467 6.90632 152.233 6.91002C152.134 6.90171 152.035 6.92213 151.948 6.96879C151.861 7.01546 151.789 7.08639 151.741 7.17302C151.713 7.22039 151.689 7.26949 151.667 7.32002C151.434 7.86239 151.423 8.47429 151.635 9.02502C151.732 9.28102 151.847 9.53202 151.951 9.78602C152.132 10.224 152.365 10.636 152.609 11.038C152.841 11.422 153.089 11.796 153.338 12.168C153.545 12.477 153.751 12.784 153.978 13.076C154.278 13.462 154.625 13.806 154.98 14.142C155.151 14.304 155.31 14.483 155.493 14.629C155.789 14.863 156.101 15.077 156.407 15.299C156.425 15.3139 156.447 15.3242 156.47 15.329C156.481 15.3299 156.492 15.3286 156.503 15.3252C156.514 15.3218 156.524 15.3163 156.532 15.309C156.546 15.295 156.557 15.265 156.553 15.247C156.542 15.2102 156.523 15.1761 156.498 15.147C156.402 15.052 156.302 14.963 156.204 14.873C156.078 14.753 155.95 14.637 155.827 14.516C155.714 14.406 155.606 14.291 155.497 14.177C155.237 13.904 154.952 13.653 154.716 13.355C154.576 13.1757 154.433 12.9987 154.287 12.824C154.034 12.524 153.811 12.196 153.581 11.877C153.139 11.266 152.856 10.572 152.581 9.87702C152.418 9.46602 152.331 9.03202 152.227 8.60402C152.174 8.35646 152.171 8.10089 152.217 7.85202C152.232 7.76002 152.267 7.67002 152.305 7.58402C152.357 7.46802 152.436 7.43402 152.576 7.44702C152.702 7.45902 152.743 7.49802 152.778 7.63302C152.88 8.02102 152.972 8.41102 153.088 8.79502C153.257 9.36102 153.459 9.91502 153.722 10.445C153.993 10.988 154.292 11.515 154.66 12C155.073 12.547 155.523 13.064 156.022 13.535C156.119 13.626 156.207 13.728 156.308 13.816C156.468 13.956 156.634 14.089 156.799 14.222C156.846 14.26 156.886 14.25 156.903 14.179C156.725 13.954 156.547 13.724 156.365 13.497C156.104 13.1819 155.867 12.8488 155.653 12.5C155.533 12.297 155.422 12.088 155.292 11.892C155.042 11.5202 154.822 11.129 154.635 10.722C154.431 10.269 154.196 9.83202 154.031 9.36302C154.018 9.326 154.002 9.29019 153.983 9.25602C153.9 9.11102 153.856 8.95202 153.808 8.79402C153.746 8.59102 153.696 8.38402 153.62 8.18502C153.519 7.91802 153.473 7.63902 153.415 7.36302C153.343 7.02302 153.351 6.67302 153.345 6.32802C153.341 6.15502 153.429 5.99702 153.531 5.85602C153.558 5.82002 153.602 5.79302 153.642 5.76902C153.716 5.72502 153.792 5.72602 153.862 5.77902C153.969 5.86102 154.072 5.94602 154.135 6.06902C154.261 6.31302 154.392 6.55502 154.515 6.80002C154.766 7.30002 154.953 7.82902 155.221 8.32002C155.349 8.55502 155.461 8.79902 155.589 9.03302C155.837 9.48802 156.098 9.93802 156.344 10.395C156.542 10.763 156.774 11.11 157 11.459C157.226 11.809 157.466 12.149 157.687 12.504C157.888 12.823 158.067 13.157 158.262 13.48C158.388 13.69 158.495 13.908 158.589 14.134C158.78 14.599 158.977 15.059 159.172 15.522ZM155.064 35.28C155.132 35.289 155.161 35.252 155.167 35.2C155.173 35.1537 155.17 35.1067 155.161 35.061C155.117 34.8118 155.126 34.556 155.19 34.311L155.263 34.013C155.291 33.8982 155.28 33.7773 155.233 33.669C155.101 33.322 155.034 32.9534 155.037 32.582C155.034 31.9529 155.113 31.326 155.271 30.717C155.286 30.6439 155.317 30.5749 155.362 30.515C155.406 30.4551 155.463 30.4056 155.529 30.37C155.662 30.298 155.801 30.243 155.948 30.213C156.115 30.181 156.164 30.213 156.202 30.371C156.206 30.386 156.207 30.403 156.211 30.417L156.292 30.787C156.435 31.43 156.592 32.073 156.645 32.735C156.647 32.7586 156.65 32.7819 156.655 32.805C156.722 33.09 156.744 33.38 156.732 33.671C156.726 33.8286 156.724 33.9863 156.728 34.144C156.728 34.195 156.743 34.246 156.751 34.294C156.85 34.312 156.886 34.258 156.906 34.198C156.966 34.0364 157.019 33.8718 157.063 33.705C157.162 33.308 157.252 32.909 157.306 32.505C157.343 32.23 157.372 31.957 157.417 31.685C157.439 31.558 157.443 31.435 157.433 31.309C157.426 31.231 157.414 31.152 157.41 31.075C157.385 30.651 157.37 30.225 157.332 29.803C157.325 29.7494 157.33 29.695 157.347 29.6436C157.364 29.5923 157.392 29.5453 157.429 29.506C157.556 29.356 157.675 29.199 157.795 29.042C157.82 29.01 157.833 28.973 157.782 28.934C157.668 28.952 157.573 29.02 157.476 29.086C157.111 29.336 156.705 29.512 156.328 29.74C156.288 29.765 156.242 29.778 156.198 29.797C155.863 29.952 155.499 30.038 155.175 30.222C155.134 30.2453 155.089 30.2622 155.043 30.272C154.8 30.339 154.558 30.412 154.312 30.464C153.982 30.536 153.654 30.617 153.333 30.726C153.222 30.7652 153.106 30.7901 152.988 30.8C152.682 30.823 152.379 30.844 152.073 30.77C151.892 30.726 151.735 30.645 151.575 30.563C151.534 30.543 151.502 30.503 151.471 30.467C151.4 30.383 151.395 30.301 151.449 30.233C151.495 30.173 151.593 30.166 151.684 30.23C151.762 30.285 151.849 30.313 151.939 30.345C152.14 30.415 152.348 30.458 152.558 30.493C152.925 30.553 153.28 30.543 153.612 30.353C153.722 30.2902 153.845 30.2548 153.972 30.25C154.197 30.242 154.404 30.166 154.616 30.11C154.905 30.037 155.189 29.942 155.473 29.853C155.586 29.817 155.696 29.774 155.804 29.727C156.221 29.543 156.635 29.355 157.052 29.171C157.393 29.024 157.701 28.816 158.015 28.623C158.039 28.609 158.068 28.587 158.042 28.544C158.022 28.546 157.999 28.545 157.98 28.554C157.826 28.634 157.673 28.712 157.52 28.793C157.213 28.954 156.892 29.039 156.542 29.003C156.334 28.983 156.132 29.023 155.942 29.103C155.732 29.193 155.527 29.293 155.325 29.396C155.246 29.436 155.173 29.477 155.086 29.492C155 29.508 154.916 29.53 154.832 29.548C154.605 29.598 154.378 29.608 154.159 29.517C153.96 29.4409 153.746 29.4101 153.533 29.427C153.376 29.4368 153.22 29.4643 153.069 29.509C152.888 29.5641 152.699 29.5872 152.51 29.577C152.424 29.5697 152.34 29.5433 152.265 29.4997C152.19 29.4561 152.126 29.3965 152.077 29.325C152.053 29.295 152.038 29.257 152.015 29.225C151.987 29.1873 151.969 29.1423 151.966 29.0952C151.962 29.0481 151.971 29.0009 151.993 28.959C152.119 28.688 152.238 28.413 152.363 28.141C152.393 28.079 152.438 28.021 152.478 27.963C152.575 27.82 152.675 27.678 152.771 27.534C152.956 27.259 153.145 26.989 153.387 26.761C153.425 26.7221 153.457 26.6775 153.481 26.629C153.488 26.615 153.472 26.584 153.459 26.569C153.453 26.56 153.428 26.557 153.418 26.562C153.345 26.607 153.269 26.649 153.203 26.704C152.786 27.047 152.429 27.444 152.123 27.886C152.093 27.931 152.059 27.973 152.031 28.007C152 28.009 151.984 28.014 151.97 28.01C151.54 27.908 151.164 28.024 150.814 28.278C150.531 28.4778 150.273 28.7119 150.047 28.975C149.96 29.0865 149.862 29.189 149.754 29.281C149.595 29.412 149.418 29.509 149.197 29.496C149.15 29.491 149.1 29.526 149.028 29.551C149.085 29.597 149.115 29.639 149.156 29.652C149.356 29.724 149.559 29.789 149.776 29.766C149.933 29.748 150.09 29.731 150.243 29.7C150.358 29.675 150.47 29.635 150.579 29.592C150.686 29.548 150.79 29.492 150.91 29.437C151.182 29.048 151.182 29.048 151.387 28.99C151.234 29.3199 151.108 29.6621 151.012 30.013C150.942 30.053 150.875 30.093 150.806 30.131C150.477 30.3022 150.182 30.5335 149.938 30.813C149.907 30.849 149.873 30.881 149.839 30.914C149.626 31.1 149.414 31.286 149.203 31.474C149.18 31.493 149.152 31.516 149.142 31.544C149.113 31.624 149.08 31.706 149.073 31.79C149.067 31.865 149.094 31.942 149.106 32.018L149.082 32.058C148.959 32.242 148.967 32.283 149.156 32.413L149.193 32.441C149.223 32.722 149.24 32.741 149.506 32.805C149.517 32.837 149.528 32.875 149.543 32.912C149.625 33.112 149.821 33.16 149.977 33.016C150.017 32.9782 150.052 32.9343 150.079 32.886C150.153 32.7447 150.274 32.6339 150.421 32.573C150.58 32.5012 150.707 32.373 150.777 32.213C150.844 32.078 150.909 31.945 150.945 31.798C150.97 31.697 151.005 31.593 151.119 31.529C151.166 31.6162 151.198 31.7104 151.215 31.808C151.235 31.951 151.325 32.032 151.454 32.071C151.573 32.109 151.696 32.138 151.819 32.164C151.885 32.1779 151.953 32.1775 152.019 32.1631C152.085 32.1486 152.147 32.1203 152.201 32.08C152.277 32.026 152.356 31.974 152.432 31.916C152.763 31.663 153.093 31.408 153.423 31.152C153.472 31.1147 153.531 31.0906 153.592 31.082C153.786 31.049 153.978 31.008 154.171 30.969C154.209 30.961 154.247 30.947 154.286 30.943C154.329 30.938 154.374 30.906 154.427 30.949C154.434 31.024 154.425 31.0997 154.401 31.171C154.325 31.4287 154.295 31.6979 154.313 31.966C154.331 32.492 154.442 32.996 154.66 33.474C154.698 33.56 154.75 33.64 154.791 33.726C154.841 33.826 154.865 33.931 154.86 34.045C154.845 34.361 154.895 34.673 154.943 34.982C154.957 35.0902 154.998 35.193 155.064 35.28Z" fill="#DB334A"/>
<path fill-rule="evenodd" clip-rule="evenodd" d="M155.064 35.28C154.998 35.193 154.957 35.0902 154.943 34.982C154.895 34.672 154.845 34.362 154.86 34.045C154.865 33.9342 154.841 33.8249 154.791 33.726C154.75 33.641 154.698 33.559 154.66 33.474C154.445 32.9991 154.327 32.4871 154.313 31.966C154.295 31.6979 154.325 31.4287 154.401 31.171C154.425 31.0997 154.434 31.024 154.427 30.949C154.374 30.906 154.329 30.938 154.286 30.943C154.247 30.947 154.209 30.961 154.171 30.969C153.978 31.008 153.786 31.049 153.592 31.081C153.531 31.0899 153.472 31.1143 153.423 31.152C153.093 31.408 152.763 31.663 152.432 31.916C152.356 31.974 152.277 32.026 152.201 32.08C152.147 32.1203 152.085 32.1486 152.019 32.1631C151.953 32.1775 151.885 32.1779 151.819 32.164C151.696 32.1391 151.574 32.1081 151.454 32.071C151.325 32.032 151.235 31.951 151.215 31.808C151.198 31.7104 151.166 31.6162 151.119 31.529C151.005 31.593 150.97 31.697 150.945 31.798C150.909 31.944 150.844 32.079 150.777 32.214C150.707 32.374 150.58 32.5012 150.421 32.573C150.274 32.6339 150.153 32.7447 150.079 32.886C150.052 32.9343 150.017 32.9782 149.977 33.016C149.821 33.16 149.625 33.112 149.543 32.912C149.528 32.875 149.517 32.837 149.506 32.805C149.24 32.741 149.223 32.722 149.193 32.441C149.18 32.431 149.168 32.424 149.156 32.413C148.967 32.283 148.959 32.242 149.082 32.057C149.091 32.044 149.098 32.032 149.106 32.018C149.094 31.942 149.067 31.865 149.073 31.79C149.08 31.706 149.113 31.624 149.142 31.544C149.152 31.516 149.18 31.493 149.203 31.474C149.414 31.286 149.626 31.1 149.839 30.914C149.873 30.881 149.907 30.849 149.938 30.813C150.181 30.526 150.478 30.309 150.806 30.131C150.875 30.093 150.942 30.053 151.012 30.013C151.108 29.6621 151.234 29.3199 151.387 28.99C151.182 29.048 151.182 29.048 150.91 29.437C150.79 29.492 150.686 29.547 150.579 29.592C150.47 29.6373 150.358 29.6734 150.243 29.7C150.09 29.731 149.933 29.748 149.776 29.766C149.559 29.789 149.356 29.724 149.156 29.652C149.115 29.639 149.085 29.597 149.028 29.551C149.1 29.527 149.15 29.491 149.197 29.496C149.418 29.509 149.595 29.412 149.754 29.281C149.863 29.192 149.958 29.084 150.047 28.975C150.271 28.707 150.533 28.482 150.814 28.278C151.164 28.024 151.54 27.908 151.97 28.01C151.984 28.014 152 28.009 152.031 28.007C152.059 27.973 152.093 27.93 152.123 27.886C152.429 27.444 152.786 27.047 153.203 26.704C153.269 26.649 153.345 26.607 153.418 26.562C153.428 26.557 153.453 26.56 153.459 26.569C153.472 26.585 153.488 26.615 153.481 26.629C153.457 26.6775 153.425 26.7221 153.387 26.761C153.145 26.989 152.956 27.259 152.771 27.534C152.675 27.678 152.575 27.82 152.478 27.964C152.438 28.021 152.393 28.079 152.363 28.141C152.238 28.413 152.119 28.688 151.993 28.959C151.971 29.0009 151.962 29.0481 151.966 29.0952C151.969 29.1423 151.987 29.1873 152.015 29.225C152.038 29.257 152.053 29.295 152.077 29.325C152.187 29.467 152.319 29.562 152.51 29.577C152.699 29.5872 152.888 29.5641 153.069 29.509C153.22 29.4643 153.376 29.4368 153.533 29.427C153.748 29.419 153.958 29.432 154.159 29.517C154.378 29.608 154.605 29.598 154.832 29.548C154.916 29.531 155 29.507 155.086 29.492C155.173 29.477 155.246 29.436 155.325 29.396C155.527 29.292 155.732 29.193 155.942 29.103C156.132 29.023 156.334 28.983 156.542 29.003C156.892 29.039 157.213 28.954 157.52 28.793L157.98 28.553C157.999 28.545 158.022 28.546 158.042 28.544C158.068 28.587 158.039 28.609 158.015 28.623C157.701 28.816 157.393 29.023 157.052 29.171C156.635 29.355 156.221 29.543 155.804 29.727C155.696 29.774 155.586 29.817 155.473 29.853C155.189 29.943 154.905 30.036 154.616 30.11C154.404 30.165 154.197 30.24 153.972 30.25C153.845 30.2548 153.722 30.2902 153.612 30.353C153.28 30.543 152.925 30.553 152.558 30.493C152.348 30.4613 152.141 30.4118 151.939 30.345C151.849 30.313 151.762 30.285 151.684 30.23C151.593 30.166 151.495 30.173 151.449 30.233C151.395 30.301 151.4 30.383 151.471 30.467C151.502 30.503 151.534 30.542 151.575 30.563C151.735 30.645 151.892 30.726 152.073 30.77C152.379 30.844 152.682 30.823 152.988 30.8C153.104 30.792 153.222 30.763 153.333 30.726C153.654 30.617 153.982 30.536 154.312 30.464C154.558 30.412 154.8 30.339 155.043 30.273C155.089 30.2629 155.134 30.2457 155.175 30.222C155.499 30.038 155.863 29.952 156.198 29.797C156.242 29.777 156.288 29.765 156.328 29.74C156.705 29.512 157.111 29.336 157.476 29.086C157.573 29.02 157.668 28.952 157.782 28.934C157.833 28.973 157.82 29.01 157.795 29.042C157.675 29.199 157.556 29.356 157.429 29.506C157.392 29.5453 157.364 29.5923 157.347 29.6436C157.33 29.695 157.325 29.7494 157.332 29.803C157.37 30.225 157.385 30.651 157.41 31.075C157.414 31.152 157.426 31.231 157.433 31.309C157.443 31.436 157.439 31.558 157.417 31.685C157.372 31.957 157.343 32.23 157.306 32.505C157.252 32.909 157.162 33.308 157.063 33.705C157.019 33.8718 156.966 34.0364 156.906 34.198C156.886 34.258 156.85 34.312 156.751 34.293C156.743 34.246 156.728 34.195 156.728 34.144C156.724 33.9863 156.726 33.8286 156.732 33.671C156.746 33.3799 156.72 33.0892 156.655 32.805C156.65 32.7819 156.647 32.7586 156.645 32.735C156.592 32.073 156.435 31.43 156.292 30.787C156.264 30.6639 156.237 30.5405 156.211 30.417C156.207 30.403 156.206 30.386 156.202 30.371C156.164 30.212 156.115 30.181 155.948 30.214C155.801 30.243 155.662 30.298 155.529 30.37C155.463 30.4056 155.406 30.4551 155.362 30.515C155.317 30.5749 155.286 30.6439 155.271 30.717C155.113 31.326 155.034 31.9529 155.037 32.582C155.036 32.954 155.099 33.321 155.233 33.669C155.28 33.7773 155.291 33.8982 155.263 34.013L155.19 34.311C155.133 34.559 155.11 34.808 155.161 35.061C155.17 35.1067 155.173 35.1537 155.167 35.2C155.161 35.25 155.132 35.288 155.064 35.28ZM159.172 15.522C158.977 15.059 158.78 14.599 158.589 14.134C158.496 13.9083 158.387 13.6897 158.262 13.48C158.067 13.157 157.888 12.823 157.687 12.504C157.466 12.149 157.226 11.809 157 11.459C156.774 11.11 156.542 10.763 156.344 10.395C156.098 9.93802 155.837 9.48802 155.589 9.03302C155.461 8.79902 155.349 8.55502 155.221 8.32002C154.953 7.82902 154.766 7.30002 154.515 6.80002C154.392 6.55502 154.261 6.31302 154.135 6.06802C154.067 5.95253 153.974 5.85304 153.862 5.77902C153.792 5.72502 153.716 5.72402 153.642 5.76902C153.602 5.79202 153.558 5.82002 153.531 5.85602C153.429 5.99602 153.341 6.15602 153.345 6.32802C153.351 6.67302 153.343 7.02302 153.415 7.36302C153.473 7.63902 153.519 7.91802 153.62 8.18502C153.696 8.38402 153.746 8.59102 153.808 8.79402C153.856 8.95202 153.9 9.11102 153.983 9.25602C154.002 9.29019 154.018 9.326 154.031 9.36302C154.196 9.83302 154.431 10.27 154.635 10.722C154.821 11.133 155.044 11.518 155.292 11.892C155.422 12.088 155.533 12.297 155.653 12.5C155.862 12.853 156.109 13.178 156.365 13.497C156.547 13.724 156.725 13.954 156.903 14.179C156.886 14.25 156.846 14.26 156.799 14.222C156.634 14.089 156.468 13.956 156.308 13.816C156.207 13.728 156.119 13.626 156.022 13.535C155.526 13.0622 155.071 12.5487 154.66 12C154.3 11.5119 153.986 10.9913 153.722 10.445C153.464 9.91403 153.252 9.36203 153.088 8.79502C152.972 8.41102 152.88 8.02102 152.778 7.63302C152.743 7.49802 152.702 7.45902 152.576 7.44702C152.436 7.43402 152.357 7.46802 152.305 7.58402C152.265 7.6693 152.235 7.75934 152.217 7.85202C152.177 8.10202 152.168 8.35802 152.227 8.60402C152.331 9.03202 152.418 9.46602 152.581 9.87702C152.856 10.572 153.139 11.266 153.581 11.877C153.811 12.196 154.034 12.524 154.287 12.824C154.434 12.998 154.575 13.176 154.716 13.355C154.952 13.653 155.237 13.904 155.497 14.177C155.606 14.291 155.714 14.406 155.827 14.516C155.95 14.637 156.078 14.753 156.204 14.873C156.302 14.963 156.402 15.053 156.498 15.147C156.523 15.1761 156.542 15.2102 156.553 15.247C156.557 15.265 156.546 15.295 156.532 15.309C156.524 15.3163 156.514 15.3218 156.503 15.3252C156.492 15.3286 156.481 15.3299 156.47 15.329C156.447 15.3242 156.425 15.3139 156.407 15.299C156.101 15.077 155.789 14.863 155.493 14.629C155.31 14.483 155.151 14.304 154.98 14.142C154.62 13.8125 154.285 13.4561 153.978 13.076C153.751 12.784 153.545 12.477 153.338 12.168C153.086 11.797 152.843 11.4202 152.609 11.038C152.358 10.6381 152.138 10.2195 151.951 9.78602C151.847 9.53202 151.732 9.28102 151.635 9.02502C151.423 8.47459 151.435 7.8631 151.667 7.32102C151.689 7.27002 151.713 7.22002 151.741 7.17302C151.789 7.08639 151.861 7.01546 151.948 6.96879C152.035 6.92213 152.134 6.90171 152.233 6.91002C152.475 6.91502 152.698 6.97102 152.887 7.11402C152.958 7.08402 152.942 7.03102 152.938 6.98802C152.932 6.62656 152.954 6.26418 153.003 5.90602C153.065 5.62902 153.19 5.39102 153.398 5.19702C153.529 5.08224 153.694 5.01341 153.868 5.00102C153.915 4.99707 153.962 5.00462 154.006 5.02302C154.191 5.09802 154.346 5.21302 154.466 5.37802C154.624 5.59702 154.745 5.83302 154.849 6.08002C154.908 6.21702 154.977 6.35102 155.032 6.49002C155.093 6.64302 155.14 6.80002 155.198 6.95402C155.34 7.33002 155.485 7.70402 155.629 8.07902C155.67 8.18902 155.713 8.29902 155.75 8.40902C155.819 8.61902 155.914 8.81602 156.013 9.01202C156.125 9.23702 156.225 9.46902 156.343 9.69202C156.511 10.011 156.692 10.325 156.866 10.641C156.954 10.8 157.038 10.959 157.127 11.117C157.312 11.447 157.496 11.777 157.688 12.101C157.813 12.311 157.951 12.511 158.083 12.716C158.105 12.749 158.129 12.781 158.147 12.816C158.388 13.258 158.623 13.704 158.825 14.166C158.974 14.506 159.076 14.862 159.171 15.219C159.197 15.316 159.193 15.42 159.202 15.521L159.172 15.522ZM152.326 20.976C152.365 21.062 152.34 21.138 152.317 21.211C152.278 21.3558 152.287 21.5096 152.342 21.649C152.436 21.931 152.595 22.172 152.778 22.401C152.939 22.601 153.157 22.731 153.38 22.849C153.432 22.8764 153.49 22.8909 153.549 22.8912C153.608 22.8915 153.666 22.8778 153.718 22.851C153.903 22.773 154.065 22.664 154.229 22.556C154.461 22.403 154.727 22.324 154.973 22.202C155.025 22.176 155.08 22.191 155.132 22.218C155.228 22.271 155.33 22.314 155.422 22.373C155.538 22.446 155.663 22.485 155.795 22.513C155.926 22.54 156.056 22.572 156.187 22.596C156.213 22.601 156.25 22.585 156.269 22.567C156.301 22.537 156.296 22.497 156.277 22.458C156.248 22.397 156.206 22.354 156.136 22.349C156.08 22.346 156.026 22.344 155.97 22.343C155.932 22.34 155.892 22.343 155.853 22.34C155.842 22.3387 155.83 22.335 155.82 22.3291C155.809 22.3231 155.801 22.315 155.794 22.3054C155.787 22.2958 155.782 22.2848 155.78 22.2732C155.777 22.2615 155.778 22.2495 155.78 22.238C155.789 22.194 155.819 22.168 155.864 22.175C156.054 22.205 156.24 22.148 156.428 22.149C156.436 22.149 156.444 22.149 156.452 22.147C156.588 22.129 156.603 22.104 156.574 21.928C156.459 21.8833 156.337 21.8605 156.213 21.861C156.174 21.8632 156.134 21.8608 156.095 21.854C156.076 21.849 156.053 21.828 156.045 21.809C156.018 21.739 156.119 21.619 156.191 21.637C156.252 21.653 156.309 21.682 156.369 21.701C156.421 21.719 156.473 21.741 156.526 21.741C156.556 21.743 156.595 21.707 156.613 21.677C156.623 21.66 156.609 21.616 156.592 21.595C156.568 21.565 156.529 21.549 156.499 21.523C156.472 21.5 156.448 21.473 156.422 21.446C156.444 21.425 156.456 21.406 156.464 21.407C156.534 21.419 156.606 21.424 156.67 21.45C156.77 21.491 156.865 21.547 156.97 21.602C156.97 21.654 156.973 21.7 156.969 21.746C156.958 21.864 156.94 21.98 156.931 22.097C156.908 22.395 156.874 22.692 156.872 22.991C156.87 23.217 156.909 23.444 156.937 23.67C156.944 23.723 156.976 23.774 157.002 23.821C157.114 24.021 157.227 24.218 157.34 24.417C157.375 24.479 157.413 24.539 157.439 24.604C157.452 24.635 157.444 24.677 157.448 24.734C157.314 24.6679 157.201 24.567 157.119 24.442C157.051 24.337 156.989 24.227 156.935 24.114C156.873 23.986 156.823 23.855 156.766 23.724C156.705 23.587 156.645 23.451 156.669 23.294C156.674 23.257 156.66 23.217 156.653 23.177C156.637 23.093 156.617 23.009 156.602 22.924C156.589 22.849 156.607 22.77 156.566 22.677C156.509 22.731 156.469 22.775 156.424 22.814C156.352 22.876 156.27 22.898 156.185 22.847C156.054 22.769 155.906 22.743 155.763 22.699C155.59 22.6479 155.418 22.5902 155.249 22.526C155.136 22.484 155.036 22.483 154.936 22.55C154.904 22.57 154.871 22.59 154.812 22.624C154.863 22.644 154.888 22.661 154.914 22.664C154.976 22.669 155.04 22.669 155.103 22.67C155.294 22.673 155.477 22.71 155.638 22.825C155.67 22.847 155.706 22.865 155.74 22.883C155.887 22.965 156.039 23.023 156.213 23.004C156.251 23 156.29 23.008 156.348 23.013C156.332 23.056 156.326 23.096 156.303 23.117C156.221 23.2019 156.161 23.3066 156.13 23.421C156.08 23.571 156.021 23.718 155.985 23.87C155.949 24.023 155.928 24.18 155.915 24.336C155.901 24.486 155.851 24.608 155.726 24.698C155.54 24.845 155.382 25.0246 155.26 25.228C155.127 25.432 154.991 25.635 154.865 25.845C154.839 25.8929 154.802 25.934 154.757 25.9654C154.712 25.9968 154.66 26.0175 154.606 26.026C154.279 26.0801 153.971 26.2194 153.714 26.43C153.645 26.484 153.581 26.495 153.498 26.45C153.338 26.369 153.235 26.237 153.126 26.098C152.965 25.896 152.963 25.682 153.033 25.453C153.059 25.363 153.097 25.275 153.13 25.189L153.184 25.052C153.157 25.028 153.137 25.005 153.111 24.99C152.93 24.883 152.836 24.72 152.785 24.521C152.755 24.4149 152.751 24.3026 152.776 24.195C152.807 24.073 152.834 23.95 152.861 23.828C152.87 23.792 152.874 23.753 152.884 23.692C152.837 23.704 152.807 23.705 152.787 23.719C152.61 23.847 152.41 23.909 152.198 23.949C152.021 23.983 151.847 24.037 151.669 24.07C151.595 24.0821 151.525 24.1095 151.462 24.1504C151.399 24.1914 151.345 24.2451 151.304 24.308C151.164 24.514 151.105 24.744 151.1 24.998C151.2 25.019 151.266 24.971 151.33 24.932C151.421 24.8678 151.53 24.8361 151.64 24.842C151.701 24.848 151.763 24.826 151.826 24.818C151.924 24.806 152.009 24.842 152.042 24.922C152.087 25.032 152.113 25.146 152.103 25.267C152.097 25.334 152.054 25.391 151.989 25.4C151.912 25.41 151.832 25.413 151.754 25.41C151.604 25.3965 151.454 25.4282 151.323 25.501C151.202 25.57 151.064 25.561 150.933 25.521C150.873 25.5052 150.82 25.4725 150.777 25.4276C150.734 25.3829 150.705 25.3273 150.692 25.267C150.821 25.124 150.846 24.94 150.829 24.747C150.821 24.661 150.828 24.574 150.827 24.487C150.825 24.2638 150.906 24.0478 151.055 23.882C151.111 23.817 151.178 23.76 151.236 23.696C151.363 23.556 151.521 23.544 151.691 23.586C151.752 23.601 151.811 23.626 151.87 23.646C152.019 23.7016 152.18 23.7164 152.336 23.6899C152.493 23.6635 152.639 23.5963 152.761 23.495C152.853 23.422 152.946 23.353 153.011 23.248C152.996 23.223 152.989 23.196 152.973 23.186C152.616 22.96 152.377 22.629 152.174 22.269C152.071 22.084 151.983 21.891 151.892 21.699C151.85 21.605 151.839 21.4994 151.863 21.399C151.886 21.283 151.937 21.188 152.038 21.131C152.131 21.079 152.209 20.995 152.326 20.976ZM152.632 18.298C152.895 18.451 153.17 18.438 153.443 18.386C153.838 18.3135 154.225 18.203 154.598 18.056C154.62 18.046 154.646 18.043 154.663 18.028C154.832 17.888 155.047 17.853 155.243 17.775C155.426 17.703 155.621 17.673 155.818 17.651C155.869 17.645 155.921 17.633 155.998 17.619L155.842 17.389C155.955 17.365 156.072 17.3708 156.182 17.406C156.495 17.485 156.806 17.573 157.093 17.726C157.155 17.759 157.212 17.802 157.268 17.844C157.551 18.063 157.777 18.336 158.007 18.604C158.325 18.976 158.585 19.388 158.824 19.814C159.024 20.171 159.237 20.52 159.485 20.847C159.499 20.866 159.512 20.886 159.519 20.907C159.523 20.919 159.516 20.939 159.506 20.948C159.497 20.958 159.475 20.968 159.465 20.963C159.401 20.936 159.335 20.91 159.275 20.874C159.119 20.783 158.969 20.682 158.81 20.595C158.404 20.375 157.982 20.372 157.554 20.523C157.391 20.58 157.232 20.65 157.054 20.648C157.032 20.647 157.009 20.642 156.973 20.635C156.972 20.589 156.968 20.545 156.97 20.5C156.971 20.397 156.978 20.295 156.98 20.193C156.981 20.137 156.987 20.081 156.975 20.028C156.93 19.828 156.89 19.628 156.827 19.434C156.757 19.21 156.667 18.992 156.583 18.771C156.491 18.5443 156.346 18.3428 156.16 18.183C156.129 18.1527 156.09 18.1307 156.048 18.119C156.006 18.1073 155.962 18.1063 155.919 18.116C155.804 18.1383 155.689 18.165 155.575 18.196C155.364 18.255 155.153 18.32 154.942 18.384C154.759 18.4316 154.589 18.5217 154.447 18.647C154.39 18.702 154.367 18.757 154.384 18.835C154.408 18.955 154.47 19.055 154.54 19.149C154.562 19.179 154.595 19.207 154.63 19.22C154.87 19.317 155.109 19.415 155.378 19.407C155.542 19.403 155.707 19.421 155.872 19.434C155.933 19.44 155.993 19.461 156.049 19.473C156.057 19.541 156.015 19.546 155.977 19.55C155.724 19.581 155.483 19.648 155.259 19.768C155.231 19.783 155.205 19.799 155.177 19.816C155.144 19.983 155.205 20.13 155.253 20.277C155.283 20.367 155.32 20.455 155.347 20.545C155.367 20.615 155.326 20.672 155.253 20.675C155.096 20.684 154.938 20.683 154.781 20.693C154.601 20.703 154.418 20.708 154.241 20.741C154.119 20.7621 153.993 20.7567 153.872 20.725C153.61 20.668 153.346 20.628 153.076 20.665C153.054 20.667 153.03 20.66 153 20.657C152.862 20.447 152.828 20.208 152.823 19.962C152.817 19.704 152.963 19.504 153.097 19.294C152.803 19.121 152.655 18.857 152.545 18.565C152.508 18.465 152.525 18.381 152.632 18.298ZM154.156 44.194C154.058 44.058 153.972 43.939 153.884 43.82C153.773 43.6779 153.694 43.513 153.653 43.337C153.598 43.0492 153.472 42.7798 153.286 42.553C153.099 42.333 153.089 42.081 153.214 41.825C153.286 41.678 153.35 41.523 153.48 41.41C153.508 41.3829 153.53 41.3502 153.544 41.314C153.671 41.034 153.798 40.754 153.868 40.454C153.928 40.184 154.008 39.921 154.073 39.654C154.12 39.464 154.155 39.27 154.197 39.078C154.236 38.898 154.233 38.716 154.221 38.536C154.202 38.276 154.185 38.018 154.168 37.758C154.152 37.508 154.219 37.276 154.328 37.054L154.96 35.761C154.975 35.734 154.988 35.704 155.002 35.677C155.07 35.547 155.075 35.545 155.257 35.611C155.196 35.839 155.271 36.071 155.262 36.304C155.262 36.3589 155.255 36.4135 155.242 36.467C155.182 36.701 155.119 36.939 155.054 37.172C154.966 37.492 154.894 37.814 154.892 38.148C154.89 38.384 154.836 38.614 154.794 38.846C154.725 39.226 154.644 39.602 154.572 39.981C154.478 40.478 154.339 40.959 154.092 41.405C154.006 41.562 153.946 41.736 153.883 41.905C153.863 41.9644 153.856 42.0275 153.862 42.09C153.875 42.233 153.982 42.311 154.125 42.29C154.164 42.284 154.202 42.27 154.24 42.265C154.466 42.23 154.604 42.341 154.618 42.572C154.623 42.635 154.618 42.698 154.612 42.762C154.595 42.887 154.618 43.0142 154.678 43.125C154.706 43.172 154.711 43.233 154.738 43.279C154.789 43.367 154.837 43.46 154.907 43.532C155.108 43.737 155.351 43.882 155.622 43.977C155.767 44.027 155.909 44.049 156.061 43.998C156.152 43.9703 156.245 43.9536 156.339 43.948C156.416 43.94 156.494 43.952 156.562 43.955C156.704 44.076 156.697 44.248 156.77 44.4L156.923 44.425C157.101 44.455 157.281 44.48 157.457 44.52C157.594 44.55 157.633 44.613 157.64 44.755C157.641 44.7863 157.641 44.8177 157.638 44.849C157.629 44.942 157.596 44.977 157.506 44.982C157.443 44.985 157.38 44.984 157.317 44.984C155.686 44.988 154.056 44.992 152.425 44.994C152.354 44.994 152.283 44.994 152.212 44.992C152.185 44.9913 152.157 44.9829 152.134 44.9677C152.111 44.9525 152.092 44.9311 152.08 44.906C152.056 44.8606 152.043 44.8105 152.04 44.7592C152.037 44.708 152.045 44.6567 152.064 44.609C152.075 44.576 152.114 44.551 152.145 44.529C152.162 44.519 152.19 44.519 152.213 44.517C152.496 44.499 152.779 44.484 153.061 44.459C153.303 44.436 153.547 44.407 153.787 44.367C153.967 44.334 153.997 44.31 154.156 44.194Z" fill="#DB334A"/>
<path fill-rule="evenodd" clip-rule="evenodd" d="M156.957 27.211C157.184 27.211 157.42 27.218 157.656 27.209C157.97 27.197 158.284 27.179 158.597 27.148C158.736 27.134 158.873 27.084 159.01 27.052C159.07 27.035 159.131 27.018 159.193 27.006C159.214 27.002 159.238 27.012 159.262 27.015C159.317 27.079 159.313 27.15 159.274 27.211C159.054 27.547 158.849 27.891 158.514 28.132C158.501 28.141 158.489 28.158 158.476 28.16C158.29 28.193 158.171 28.348 158.005 28.415C157.837 28.483 157.668 28.547 157.498 28.61C157.454 28.6251 157.407 28.6351 157.36 28.64C157.048 28.675 156.736 28.725 156.421 28.719C156.221 28.715 156.027 28.746 155.839 28.806C155.63 28.873 155.427 28.946 155.232 29.06C154.883 29.261 154.493 29.283 154.112 29.16C153.844 29.072 153.574 29.053 153.299 29.037C153.197 29.0284 153.094 29.0477 153.001 29.093C152.952 29.118 152.9 29.137 152.844 29.161C152.788 29.091 152.821 29.025 152.849 28.964C152.968 28.708 153.079 28.446 153.213 28.198C153.388 27.872 153.563 27.548 153.776 27.241C153.915 27.043 154.024 26.824 154.148 26.613C154.163 26.588 154.185 26.566 154.211 26.531L154.398 26.597C154.414 26.621 154.427 26.633 154.431 26.646C154.53 26.982 154.71 27.278 154.898 27.568C154.941 27.632 154.999 27.69 155.055 27.745C155.146 27.83 155.239 27.915 155.335 27.997C155.383 28.037 155.435 28.077 155.492 28.1C155.785 28.219 155.698 28.22 155.928 28.048C156.142 27.888 156.359 27.731 156.568 27.563C156.702 27.456 156.824 27.333 156.957 27.211ZM159.176 18.441C159.142 18.4054 159.107 18.3703 159.071 18.336C159.014 18.281 158.962 18.22 158.899 18.175C158.538 17.909 158.178 17.642 157.789 17.415C157.505 17.2448 157.191 17.13 156.863 17.079C156.796 17.069 156.731 17.05 156.663 17.036C156.673 17.008 156.674 16.988 156.684 16.981C156.903 16.826 157.042 16.611 157.147 16.37C157.229 16.182 157.331 16.003 157.401 15.812C157.535 15.439 157.608 15.053 157.577 14.654C157.555 14.381 157.547 14.104 157.501 13.834C157.461 13.554 157.394 13.2784 157.301 13.011C157.209 12.771 157.146 12.518 157.065 12.273C157.046 12.214 157.003 12.163 156.979 12.106C156.967 12.081 156.974 12.049 156.971 11.986C157.023 12.033 157.055 12.053 157.074 12.082C157.15 12.202 157.226 12.322 157.296 12.444C157.499 12.791 157.707 13.134 157.899 13.487C158.045 13.755 158.178 14.032 158.304 14.312C158.457 14.649 158.607 14.987 158.739 15.332C158.855 15.632 158.962 15.938 159.04 16.251C159.114 16.547 159.144 16.854 159.195 17.156C159.256 17.524 159.247 17.894 159.265 18.264C159.268 18.3031 159.263 18.3424 159.248 18.379C159.238 18.402 159.206 18.416 159.176 18.442L159.176 18.441ZM156.08 16.519C155.897 16.469 155.704 16.431 155.521 16.368C155.029 16.198 154.545 16.01 154.094 15.749C153.644 15.491 153.212 15.204 152.776 14.921C152.55 14.775 152.37 14.575 152.17 14.399C152.003 14.2447 151.844 14.0811 151.694 13.909C151.571 13.7753 151.481 13.6142 151.431 13.439C151.376 13.239 151.378 13.205 151.5 13.004C151.475 12.951 151.447 12.887 151.413 12.827C151.165 12.3897 150.969 11.9245 150.83 11.441C150.707 10.988 150.675 10.525 150.836 10.069C150.874 9.94385 150.947 9.83193 151.045 9.74597C151.121 9.77797 151.155 9.83497 151.163 9.89597C151.184 10.051 151.294 10.185 151.265 10.35L151.25 10.444C151.165 10.881 151.213 11.304 151.37 11.719C151.556 12.216 151.78 12.694 152.091 13.124C152.261 13.358 152.46 13.574 152.652 13.792C152.914 14.089 153.249 14.304 153.539 14.569C153.999 14.991 154.528 15.319 155.039 15.671C155.382 15.909 155.726 16.144 156.069 16.381C156.123 16.417 156.15 16.457 156.08 16.519ZM152.139 16.415C151.961 16.194 151.807 15.995 151.648 15.801C151.53 15.6623 151.457 15.4911 151.437 15.31C151.423 15.179 151.377 15.05 151.399 14.921C151.45 14.885 151.48 14.913 151.506 14.941C151.532 14.971 151.558 15.002 151.577 15.035C151.738 15.309 151.941 15.548 152.173 15.761C152.329 15.904 152.496 16.04 152.674 16.153C152.946 16.326 153.218 16.498 153.517 16.623C153.82 16.753 154.108 16.92 154.406 17.059C154.583 17.142 154.771 17.203 154.954 17.273C155.018 17.298 155.083 17.32 155.17 17.351C155.129 17.388 155.111 17.413 155.085 17.426C154.727 17.607 154.368 17.786 154.008 17.965C153.895 18.0205 153.771 18.0511 153.644 18.055C153.432 18.062 153.22 18.077 153.007 18.079C152.728 18.081 152.65 18.023 152.569 17.721C152.539 17.611 152.554 17.491 152.548 17.355C152.509 17.3281 152.468 17.3024 152.427 17.278C152.279 17.1859 152.166 17.0469 152.105 16.883C152.071 16.8084 152.057 16.7264 152.063 16.6446C152.069 16.5629 152.095 16.4839 152.139 16.415ZM154.985 41.328C154.942 41.258 154.909 41.224 154.9 41.182C154.887 41.13 154.889 41.074 154.89 41.018C154.895 40.694 154.946 40.38 155.055 40.073C155.165 39.762 155.276 39.451 155.342 39.126C155.402 38.833 155.496 38.549 155.569 38.259C155.693 37.764 155.825 37.272 155.887 36.762C155.908 36.592 155.919 36.42 155.933 36.247C155.948 36.051 155.964 35.858 155.975 35.661C155.981 35.553 155.975 35.442 155.975 35.331C155.975 35.119 155.982 34.908 155.97 34.696C155.963 34.549 155.923 34.402 155.909 34.256C155.898 34.1153 155.894 33.9741 155.897 33.833C155.898 33.8 155.929 33.767 155.949 33.728C155.986 33.7455 156.018 33.7722 156.042 33.8054C156.066 33.8386 156.081 33.8774 156.085 33.918C156.102 34.026 156.12 34.134 156.135 34.243C156.18 34.554 156.287 34.837 156.523 35.057C156.59 35.118 156.658 35.108 156.688 35.025C156.727 34.915 156.756 34.799 156.813 34.706C156.871 34.684 156.895 34.714 156.918 34.748C156.993 34.863 156.986 34.986 156.956 35.112C156.941 35.173 156.907 35.227 156.89 35.289C156.855 35.402 156.815 35.513 156.797 35.629C156.788 35.714 156.765 35.797 156.729 35.875C156.701 35.931 156.67 35.991 156.664 36.051C156.647 36.228 156.563 36.381 156.507 36.543C156.389 36.884 156.277 37.228 156.161 37.571C156.083 37.801 156.006 38.033 155.925 38.261C155.809 38.586 155.705 38.918 155.568 39.235C155.435 39.546 155.329 39.866 155.212 40.182C155.134 40.392 155.095 40.605 155.074 40.825C155.062 40.959 155.047 41.092 155.031 41.224C155.028 41.244 155.014 41.264 154.985 41.328Z" fill="#DB334A"/>
<path fill-rule="evenodd" clip-rule="evenodd" d="M155.23 14.648C155.138 14.704 155.088 14.678 155.041 14.648C154.958 14.59 154.876 14.528 154.794 14.468C154.332 14.125 153.881 13.768 153.497 13.34C153.235 13.048 152.997 12.732 152.749 12.427C152.402 11.997 152.136 11.515 151.867 11.036C151.705 10.7486 151.565 10.4494 151.447 10.141C151.393 9.99246 151.369 9.8348 151.376 9.67698C151.378 9.57898 151.405 9.48898 151.484 9.42298C151.506 9.40598 151.535 9.39698 151.577 9.37598C152.329 11.456 153.55 13.202 155.23 14.648ZM168.187 27.23C168.181 27.122 168.179 27.036 168.17 26.951C168.14 26.668 168.202 26.412 168.345 26.161C168.531 25.834 168.775 25.567 169.075 25.343C169.263 25.202 169.441 25.05 169.636 24.917C169.789 24.813 169.911 24.659 170.026 24.512C170.085 24.435 170.102 24.326 170.133 24.228C170.155 24.161 170.166 24.09 170.188 24.023C170.194 24.006 170.224 23.987 170.241 23.987C170.259 23.987 170.289 24.01 170.292 24.027C170.322 24.157 170.322 24.2922 170.291 24.422C170.194 24.761 169.981 25.017 169.718 25.238C169.532 25.394 169.319 25.52 169.169 25.716C169.089 25.822 169.012 25.93 168.941 26.042C168.899 26.1043 168.875 26.1774 168.872 26.2527C168.869 26.328 168.888 26.4026 168.925 26.468C168.95 26.515 168.98 26.563 169.004 26.61C169.036 26.6753 169.054 26.7461 169.058 26.8185C169.061 26.8909 169.051 26.9632 169.026 27.0314C169.001 27.0996 168.963 27.1621 168.914 27.2155C168.865 27.2688 168.806 27.3118 168.74 27.342C168.66 27.3749 168.571 27.3812 168.486 27.36C168.381 27.333 168.27 27.317 168.187 27.23ZM170.87 17.656C170.809 17.656 170.746 17.658 170.686 17.656C170.017 17.6456 169.347 17.6837 168.683 17.77C168.208 17.8355 167.737 17.9358 167.276 18.07C166.95 18.158 166.621 18.239 166.297 18.335C166.011 18.42 165.727 18.514 165.449 18.619C165.116 18.744 164.79 18.879 164.466 19.022C164.323 19.085 164.193 19.177 164.057 19.256L163.87 19.358C163.744 19.2983 163.632 19.2144 163.538 19.111C163.572 19.073 163.596 19.033 163.632 19.01C163.679 18.9807 163.729 18.9572 163.781 18.94C164.194 18.786 164.605 18.627 165.021 18.48C165.503 18.312 165.99 18.155 166.487 18.034C166.806 17.956 167.131 17.893 167.45 17.81C167.924 17.686 168.409 17.64 168.893 17.586C168.971 17.578 169.05 17.574 169.129 17.57C169.403 17.557 169.679 17.547 169.954 17.533C170.246 17.519 170.537 17.548 170.825 17.576C170.844 17.578 170.86 17.6 170.877 17.613C170.876 17.6274 170.873 17.6417 170.87 17.656ZM163.046 24.273C163.227 24.413 163.302 24.583 163.356 24.762C163.4 24.909 163.562 25.249 163.65 25.38C163.813 25.622 163.98 25.86 164.131 26.11C164.295 26.378 164.444 26.654 164.552 26.95C164.596 27.07 164.603 27.171 164.504 27.273C164.385 27.395 164.346 27.561 164.305 27.72C164.295 27.758 164.292 27.796 164.244 27.824C164.147 27.584 164.19 27.364 164.288 27.144C164.198 26.883 164.084 26.6312 163.946 26.392C163.76 26.073 163.565 25.76 163.371 25.446C163.3 25.3328 163.253 25.2062 163.233 25.074C163.206 24.898 163.138 24.728 163.09 24.554C163.067 24.474 163.019 24.395 163.046 24.273ZM166.804 33.779C166.795 33.842 166.801 33.878 166.787 33.894C166.694 34 166.607 34.112 166.468 34.168C166.397 34.195 166.339 34.256 166.269 34.292C166.073 34.3923 165.855 34.4427 165.634 34.439C165.509 34.439 165.383 34.451 165.258 34.459C165.104 34.4703 164.955 34.5183 164.823 34.599C164.819 34.619 164.806 34.649 164.803 34.678C164.793 34.797 164.729 34.863 164.612 34.883C164.558 34.8959 164.501 34.8919 164.449 34.8715C164.397 34.8512 164.352 34.8154 164.321 34.769C164.202 34.597 164.223 34.491 164.348 34.373C164.465 34.2537 164.622 34.1815 164.788 34.17C164.991 34.162 165.195 34.177 165.401 34.18C165.525 34.183 165.652 34.193 165.775 34.18C165.947 34.164 166.117 34.132 166.287 34.101C166.428 34.0744 166.556 34.0015 166.65 33.894C166.684 33.858 166.732 33.831 166.804 33.779ZM169.291 22.06C169.388 22.198 169.488 22.337 169.653 22.412C169.794 22.4844 169.914 22.591 170.002 22.722C170.105 22.861 170.188 23.012 170.277 23.161C170.363 23.306 170.333 23.454 170.288 23.606C170.206 23.576 170.22 23.514 170.211 23.464C170.176 23.266 170.114 23.078 169.957 22.946C169.837 22.844 169.702 22.764 169.57 22.681C169.504 22.639 169.428 22.613 169.357 22.578C169.146 22.4694 168.972 22.3002 168.858 22.092C168.836 22.0598 168.821 22.0228 168.815 21.984C168.801 21.8503 168.826 21.7153 168.888 21.596C168.987 21.419 169.254 21.424 169.355 21.601C169.375 21.6349 169.382 21.6743 169.376 21.713C169.355 21.82 169.324 21.925 169.291 22.06ZM161.028 19.07C161.065 18.983 161.146 18.961 161.218 18.938C161.587 18.824 161.96 18.73 162.352 18.748C162.541 18.756 162.73 18.75 162.919 18.756C163.045 18.76 163.169 18.784 163.282 18.848C163.314 18.8694 163.341 18.8977 163.36 18.931C163.385 18.97 163.342 19.033 163.296 19.029C163.272 19.027 163.248 19.026 163.226 19.019C162.755 18.864 162.293 18.944 161.832 19.072C161.657 19.1193 161.49 19.1914 161.335 19.286C161.252 19.339 161.215 19.331 161.149 19.263C161.112 19.2231 161.077 19.1803 161.046 19.135C161.034 19.117 161.034 19.091 161.028 19.071L161.028 19.07ZM155.119 21.264C155.082 21.294 155.066 21.319 155.047 21.322C154.783 21.361 154.517 21.373 154.251 21.357C154.212 21.356 154.174 21.344 154.136 21.333C154.115 21.326 154.095 21.31 154.075 21.299L153.53 20.983C153.626 20.9607 153.726 20.9645 153.82 20.994C154.056 21.052 154.293 21.103 154.536 21.129C154.727 21.149 154.914 21.215 155.119 21.264ZM168.378 27.68C168.223 27.708 168.134 27.61 168.056 27.5C168.018 27.446 168.061 27.367 168.127 27.363C168.158 27.361 168.189 27.363 168.221 27.364C168.261 27.3644 168.299 27.3756 168.332 27.3964C168.366 27.4173 168.393 27.4468 168.41 27.482C168.445 27.549 168.423 27.616 168.378 27.68ZM168.336 28.89C168.33 28.887 168.326 28.88 168.321 28.879C168.316 28.877 168.309 28.883 168.304 28.885C168.309 28.888 168.313 28.895 168.318 28.895C168.324 28.895 168.329 28.891 168.336 28.89Z" fill="#DB334A"/>
<path fill-rule="evenodd" clip-rule="evenodd" d="M168.336 28.89C168.329 28.891 168.324 28.896 168.318 28.895C168.313 28.895 168.309 28.888 168.304 28.885C168.309 28.883 168.316 28.877 168.321 28.879C168.326 28.879 168.33 28.888 168.336 28.89Z" fill="#DB334A"/>
<path fill-rule="evenodd" clip-rule="evenodd" d="M159.316 28.891C159.284 28.8399 159.264 28.7824 159.257 28.7226C159.25 28.6628 159.256 28.6021 159.275 28.545C159.461 28.542 159.648 28.547 159.831 28.528C160.018 28.511 160.202 28.468 160.387 28.433C160.57 28.399 160.748 28.346 160.939 28.233C160.852 28.381 160.814 28.425 160.688 28.5C160.467 28.6363 160.231 28.7444 159.983 28.822C159.848 28.862 159.71 28.892 159.573 28.924C159.486 28.9474 159.394 28.9355 159.316 28.891ZM166.273 29.003C166.232 28.889 166.189 28.803 166.168 28.713C166.116 28.491 165.963 28.411 165.756 28.395C165.701 28.3901 165.647 28.3884 165.592 28.39C165.418 28.397 165.245 28.412 165.072 28.414C164.803 28.419 164.538 28.405 164.295 28.265C164.195 28.206 164.09 28.151 163.962 28.168C163.907 28.174 163.839 28.147 163.836 28.084C163.823 27.864 163.713 27.68 163.64 27.482C163.392 26.801 162.99 26.208 162.6 25.607C162.544 25.523 162.504 25.427 162.446 25.343C162.326 25.1596 162.236 24.9585 162.178 24.747C162.14 24.62 162.098 24.497 162.058 24.373C162.021 24.374 161.993 24.368 161.977 24.377C161.839 24.459 161.689 24.502 161.538 24.547C161.139 24.667 160.74 24.789 160.325 24.842C160.271 24.8509 160.22 24.8714 160.175 24.902C159.831 25.113 159.46 25.222 159.057 25.229C159.003 25.2314 158.949 25.2404 158.897 25.256C158.883 25.261 158.873 25.292 158.87 25.313C158.867 25.323 158.881 25.343 158.892 25.35C158.92 25.361 158.95 25.37 158.98 25.378C159.297 25.445 159.617 25.452 159.939 25.409C160.139 25.382 160.239 25.464 160.244 25.663C160.244 25.7899 160.212 25.9147 160.151 26.026C160.023 26.2891 159.835 26.5181 159.601 26.694C159.524 26.75 159.448 26.802 159.405 26.884C159.42 26.994 159.493 27.038 159.58 27.061C159.633 27.076 159.689 27.075 159.744 27.083C159.834 27.097 159.931 27.088 160.016 27.131C159.968 27.278 159.966 27.277 159.884 27.348C159.825 27.4 159.762 27.45 159.713 27.51C159.646 27.59 159.666 27.679 159.758 27.726C159.805 27.7538 159.858 27.7702 159.913 27.774C160.022 27.776 160.133 27.772 160.241 27.755C160.478 27.719 160.688 27.608 160.899 27.503C160.93 27.488 160.964 27.453 161.004 27.493C160.921 27.686 160.848 27.777 160.696 27.86C160.304 28.075 159.896 28.225 159.437 28.206C159.162 28.194 159.157 28.202 159.171 27.933C159.175 27.856 159.126 27.808 159.058 27.825C158.871 27.875 158.755 28.049 158.87 28.242C158.897 28.288 158.938 28.326 158.972 28.366C158.962 28.421 158.956 28.467 158.945 28.512C158.923 28.6287 158.931 28.7492 158.968 28.862C159.006 29.002 159.088 29.116 159.232 29.175C159.388 29.238 159.55 29.287 159.714 29.278C159.98 29.261 160.249 29.234 160.505 29.15C160.792 29.056 161.066 28.933 161.251 28.68C161.324 28.578 161.383 28.467 161.444 28.356C161.593 28.086 161.686 27.794 161.765 27.496C161.799 27.3734 161.792 27.2432 161.745 27.125C161.71 27.038 161.672 26.952 161.639 26.863C161.6 26.761 161.559 26.658 161.531 26.551C161.493 26.3963 161.515 26.2328 161.593 26.094C161.632 26.0069 161.702 25.9371 161.789 25.898C161.811 25.8876 161.836 25.8853 161.859 25.8915C161.882 25.8977 161.902 25.9121 161.916 25.932C161.935 25.9567 161.951 25.9844 161.961 26.014C162.083 26.341 162.243 26.641 162.476 26.904C162.758 27.223 163.042 27.537 163.35 27.83C163.429 27.8965 163.481 27.9885 163.499 28.09C163.505 28.1527 163.521 28.2141 163.546 28.272C163.659 28.531 163.716 28.604 164.009 28.549C164.118 28.527 164.231 28.5414 164.331 28.59C164.51 28.683 164.7 28.728 164.895 28.759C165.054 28.785 165.196 28.845 165.33 28.93C165.397 28.97 165.465 29.017 165.538 29.041C165.737 29.111 165.938 29.175 166.14 29.234C166.478 29.336 166.817 29.432 167.191 29.442C167.162 29.4999 167.147 29.5637 167.147 29.6285C167.147 29.6933 167.162 29.7571 167.191 29.815C167.199 29.835 167.198 29.861 167.206 29.883C167.232 29.951 167.209 30.008 167.164 30.056C167.128 30.097 167.082 30.13 167.046 30.172C166.978 30.248 166.907 30.322 166.853 30.408C166.632 30.76 166.597 31.144 166.679 31.544C166.723 31.768 166.778 31.987 166.845 32.204C166.967 32.599 167.032 33.001 166.984 33.416C166.984 33.4311 166.987 33.446 166.994 33.4598C167 33.4736 167.009 33.4859 167.02 33.496C167.057 33.524 167.101 33.502 167.123 33.473C167.176 33.405 167.223 33.333 167.266 33.258C167.344 33.125 167.34 32.97 167.369 32.825C167.448 32.4154 167.447 31.9944 167.367 31.585C167.351 31.5 167.329 31.417 167.311 31.331C167.248 31.008 167.272 30.961 167.554 30.8C167.635 30.755 167.717 30.704 167.784 30.64C167.893 30.533 167.946 30.407 167.864 30.255C167.843 30.215 167.83 30.17 167.81 30.122C167.883 30.054 167.973 30.002 168.012 29.925C168.051 29.849 168.037 29.744 168.048 29.648C168.089 29.613 168.137 29.576 168.175 29.544C168.188 29.42 168.071 29.384 168.03 29.284C168.072 29.28 168.1 29.273 168.126 29.274C168.22 29.278 168.315 29.294 168.407 29.284C168.574 29.264 168.612 29.147 168.506 29.019C168.48 28.986 168.427 28.969 168.436 28.903C168.479 28.89 168.525 28.88 168.566 28.863C168.669 28.816 168.688 28.723 168.618 28.631C168.562 28.5637 168.484 28.5189 168.398 28.505C168.269 28.475 168.137 28.45 168.005 28.422C167.973 28.334 167.993 28.265 168.055 28.201C168.123 28.193 168.193 28.186 168.262 28.173C168.308 28.1662 168.353 28.1517 168.394 28.13C168.537 28.049 168.542 27.962 168.409 27.86C168.378 27.8354 168.345 27.814 168.31 27.796C168.205 27.744 168.094 27.7 167.993 27.638C167.833 27.54 167.693 27.571 167.559 27.683C167.51 27.7219 167.467 27.7669 167.43 27.817C167.347 27.931 167.275 28.053 167.189 28.167C167.096 28.2854 167.046 28.4323 167.049 28.583C167.048 28.683 167.06 28.786 167.06 28.889C167.058 29.019 166.973 29.098 166.847 29.084C166.661 29.062 166.474 29.03 166.273 29.003ZM177.275 20.166C177.242 19.9911 177.146 19.8344 177.005 19.726C176.889 19.6317 176.769 19.5436 176.644 19.462C176.506 19.372 176.367 19.278 176.219 19.209C175.897 19.062 175.57 18.929 175.245 18.791C175.216 18.7782 175.186 18.7672 175.155 18.758C174.914 18.688 174.673 18.619 174.431 18.551C174.325 18.521 174.218 18.497 174.112 18.465C173.684 18.3306 173.245 18.2323 172.8 18.171C172.536 18.141 172.265 18.156 172.005 18.083C171.947 18.067 171.881 18.08 171.817 18.081C171.762 18.082 171.706 18.089 171.652 18.086C171.354 18.0654 171.056 18.0644 170.758 18.083C170.594 18.096 170.429 18.109 170.264 18.129C169.953 18.166 169.638 18.179 169.33 18.249C169.015 18.32 168.695 18.367 168.381 18.437C168.027 18.515 167.668 18.572 167.327 18.697C166.759 18.907 166.171 19.055 165.589 19.224C165.227 19.33 164.871 19.455 164.513 19.575C164.149 19.698 163.787 19.756 163.404 19.649C163.217 19.595 163.016 19.594 162.82 19.577C162.792 19.574 162.748 19.609 162.733 19.639C162.713 19.676 162.74 19.717 162.78 19.732C162.884 19.768 162.991 19.798 163.094 19.836C163.291 19.909 163.496 19.965 163.672 20.119C163.587 20.121 163.502 20.1234 163.417 20.126C163.292 20.13 163.164 20.122 163.04 20.141C162.837 20.174 162.633 20.168 162.428 20.176C162.182 20.183 161.99 20.069 161.816 19.915C161.74 19.848 161.676 19.767 161.606 19.692C161.574 19.659 161.542 19.621 161.503 19.596C161.482 19.582 161.439 19.58 161.418 19.593C161.398 19.604 161.379 19.645 161.384 19.669C161.411 19.784 161.441 19.898 161.478 20.009C161.535 20.182 161.587 20.355 161.577 20.539C161.576 20.576 161.578 20.619 161.531 20.635C161.514 20.635 161.498 20.638 161.484 20.633C161.315 20.576 161.222 20.432 161.136 20.296C160.94 19.9915 160.757 19.6796 160.585 19.361C160.442 19.1063 160.344 18.8284 160.297 18.54C160.286 18.462 160.28 18.384 160.271 18.306C160.265 18.262 160.239 18.229 160.197 18.227C160.159 18.2267 160.123 18.2364 160.09 18.255C160.065 18.271 160.05 18.303 160.033 18.33C159.941 18.4786 159.897 18.6516 159.906 18.826C159.912 19.022 159.927 19.218 159.936 19.416C159.942 19.526 159.948 19.636 159.944 19.746C159.943 19.788 159.916 19.828 159.898 19.881C159.843 19.853 159.797 19.839 159.762 19.811C159.683 19.745 159.611 19.672 159.536 19.604C159.485 19.559 159.429 19.538 159.355 19.582C159.326 19.763 159.359 19.951 159.364 20.137C159.366 20.186 159.411 20.234 159.44 20.28C159.526 20.421 159.615 20.56 159.701 20.7C159.745 20.775 159.772 20.864 159.829 20.925C159.886 20.9898 159.924 21.0695 159.938 21.155C159.96 21.255 159.977 21.356 159.987 21.457C160.013 21.717 159.995 21.975 159.966 22.234C159.93 22.564 159.824 22.864 159.653 23.141C159.508 23.375 159.341 23.595 159.183 23.819C159.159 23.854 159.138 23.885 159.176 23.923C159.277 23.909 159.345 23.847 159.405 23.772C159.468 23.691 159.533 23.612 159.6 23.534C159.624 23.504 159.653 23.468 159.687 23.459C159.797 23.429 159.883 23.363 159.976 23.304C160.018 23.2749 160.067 23.2549 160.117 23.2455C160.168 23.236 160.22 23.2372 160.27 23.249C160.433 23.2789 160.582 23.359 160.697 23.478C160.775 23.566 160.853 23.655 160.927 23.745C161.01 23.847 161.153 23.9 161.26 23.828C161.375 23.75 161.498 23.752 161.619 23.728C161.962 23.663 162.274 23.732 162.553 23.942C162.585 23.964 162.612 23.992 162.645 24.016C162.708 24.059 162.756 24.057 162.816 24.008C163.09 23.78 163.325 23.518 163.511 23.215C163.56 23.135 163.611 23.054 163.689 23.021C163.884 23.051 164.062 23.081 164.241 23.103C164.589 23.143 164.913 23.063 165.211 22.88C165.307 22.8256 165.388 22.747 165.444 22.652C165.467 22.612 165.501 22.578 165.533 22.538C165.623 22.535 165.708 22.538 165.794 22.528C165.949 22.508 166.108 22.498 166.259 22.456C166.555 22.371 166.827 22.226 167.102 22.09C167.156 22.063 167.201 22.013 167.244 21.968C167.285 21.922 167.318 21.869 167.358 21.812C167.5 21.858 167.64 21.844 167.78 21.826C168.165 21.777 168.492 21.641 168.684 21.258H168.841C169.149 21.255 169.455 21.253 169.761 21.217C169.954 21.194 170.124 21.126 170.291 21.033C170.327 21.0162 170.357 20.9895 170.379 20.956C170.4 20.9226 170.412 20.8837 170.412 20.844C170.412 20.824 170.425 20.803 170.436 20.774C170.477 20.778 170.516 20.777 170.553 20.784C170.815 20.836 171.076 20.896 171.34 20.943C171.566 20.983 171.795 20.977 172.021 20.937C172.223 20.901 172.246 20.825 172.116 20.674C172.092 20.645 172.05 20.626 172.071 20.561C172.14 20.535 172.216 20.554 172.29 20.571C172.529 20.626 172.771 20.647 173.015 20.653C173.15 20.656 173.283 20.667 173.417 20.661C173.613 20.655 173.81 20.643 174.005 20.624C174.106 20.614 174.207 20.588 174.304 20.557C174.397 20.529 174.441 20.407 174.391 20.325C174.36 20.272 174.312 20.229 174.274 20.18C174.257 20.158 174.249 20.13 174.233 20.097C174.273 20.091 174.297 20.082 174.318 20.085C174.575 20.121 174.831 20.168 175.088 20.196C175.773 20.271 176.456 20.276 177.141 20.211C177.185 20.207 177.227 20.183 177.275 20.166ZM163.27 21.796C163.22 21.8 163.176 21.81 163.134 21.806C163.065 21.796 162.999 21.756 162.925 21.796C162.857 21.867 162.904 21.962 162.874 22.063L162.702 22.21L162.711 22.394C162.635 22.444 162.558 22.497 162.469 22.554V22.862C162.407 22.937 162.344 22.927 162.285 22.9C162.235 22.877 162.192 22.842 162.146 22.812C162.048 22.747 161.954 22.674 161.85 22.619C161.746 22.5642 161.658 22.4853 161.591 22.389C161.367 22.0755 161.155 21.7536 160.956 21.424C160.945 21.406 160.945 21.38 160.934 21.337C161.161 21.234 161.384 21.194 161.61 21.173C161.736 21.161 161.862 21.15 161.987 21.152C162.336 21.162 162.677 21.097 163.019 21.05C163.051 21.047 163.082 21.038 163.113 21.035C163.178 21.029 163.214 21.058 163.227 21.124C163.267 21.34 163.275 21.56 163.27 21.796Z" fill="#DB334A"/>
<path d="M0.84 8H21.64L22.04 15.92H21.32C20.2 13.2267 19.0267 11.3867 17.8 10.4C16.5733 9.38667 14.7733 8.88 12.4 8.88H11V21.24H12.36C13.6133 21.24 14.6667 20.7733 15.52 19.84C16.3733 18.88 16.9733 17.6 17.32 16H17.92V27.84H17.24C16.76 25.84 16.1067 24.4133 15.28 23.56C14.48 22.7067 13.3733 22.28 11.96 22.28H11V35.12H12.52C14.9733 35.12 17.0533 34.3867 18.76 32.92C20.4933 31.4533 21.68 29.5733 22.32 27.28H23.12L22.8 36H0.84V35.12H3.2V8.88H0.84V8ZM22.9688 17.68V16.96H34.9288V17.68H32.4088L37.2088 30.96L41.5288 17.68H38.8488V16.96H44.2488V17.68H42.4888L36.5688 36H32.0088L24.6088 17.68H22.9688ZM54.1622 36.4C50.7222 36.4 48.1355 35.52 46.4022 33.76C44.6955 31.9733 43.8422 29.5067 43.8422 26.36C43.8422 23.1867 44.8022 20.76 46.7222 19.08C48.6689 17.4 51.1355 16.56 54.1222 16.56C60.1755 16.56 63.0822 19.6 62.8422 25.68H51.5622V27.24C51.5622 29.8533 51.8955 31.8267 52.5622 33.16C53.2289 34.4933 54.3889 35.16 56.0422 35.16C59.1355 35.16 61.1622 33.5067 62.1222 30.2L62.8422 30.32C62.3355 32.24 61.4155 33.7333 60.0822 34.8C58.7755 35.8667 56.8022 36.4 54.1622 36.4ZM51.6022 24.88H55.7222V22.92C55.7222 20.76 55.5889 19.2933 55.3222 18.52C55.0822 17.72 54.5755 17.32 53.8022 17.32C53.0555 17.32 52.4955 17.7467 52.1222 18.6C51.7755 19.4267 51.6022 20.8667 51.6022 22.92V24.88ZM64.3472 16.96H73.9872V20.64C74.4139 19.4133 75.0672 18.4267 75.9472 17.68C76.8272 16.9333 78.1605 16.56 79.9472 16.56C84.0805 16.56 86.1472 18.7867 86.1472 23.24V35.28H88.3872V36H77.0672V35.28H78.7072V22.28C78.7072 20.68 78.6005 19.6533 78.3872 19.2C78.1739 18.72 77.7872 18.48 77.2272 18.48C76.3739 18.48 75.6139 19.04 74.9472 20.16C74.3072 21.28 73.9872 22.64 73.9872 24.24V35.28H75.7072V36H64.3472V35.28H66.5472V17.68H64.3472V16.96ZM94.7956 14.2C93.3823 14.2 92.369 13.84 91.7556 13.12C91.169 12.4 90.8756 11.5067 90.8756 10.44C90.8756 9.37333 91.1956 8.49333 91.8356 7.8C92.5023 7.10667 93.5023 6.76 94.8356 6.76C96.169 6.76 97.1823 7.08 97.8756 7.72C98.569 8.33333 98.9156 9.22667 98.9156 10.4C98.9156 11.5467 98.5823 12.4667 97.9156 13.16C97.249 13.8533 96.209 14.2 94.7956 14.2ZM88.7556 16.96H98.5556V35.28H100.796V36H88.9156V35.28H91.1156V17.68H88.7556V16.96ZM101.691 16.96H111.331V20.64C111.758 19.4133 112.411 18.4267 113.291 17.68C114.171 16.9333 115.504 16.56 117.291 16.56C121.424 16.56 123.491 18.7867 123.491 23.24V35.28H125.731V36H114.411V35.28H116.051V22.28C116.051 20.68 115.944 19.6533 115.731 19.2C115.518 18.72 115.131 18.48 114.571 18.48C113.718 18.48 112.958 19.04 112.291 20.16C111.651 21.28 111.331 22.64 111.331 24.24V35.28H113.051V36H101.691V35.28H103.891V17.68H101.691V16.96ZM142.299 14.88L143.419 14.2C143.579 13.3733 143.259 12.96 142.459 12.96C141.313 12.96 140.739 13.84 140.739 15.6C140.739 16.2933 140.833 17.0933 141.019 18C143.046 19.36 144.059 21.1067 144.059 23.24C144.059 25.3467 143.326 26.9867 141.859 28.16C140.393 29.3333 138.406 29.92 135.899 29.92C134.859 29.92 133.779 29.8133 132.659 29.6C131.486 30.3467 130.899 30.9067 130.899 31.28C130.899 31.6533 131.753 31.84 133.459 31.84H137.539C143.593 31.84 146.619 34.0133 146.619 38.36C146.619 40.7067 145.699 42.56 143.859 43.92C142.046 45.3067 139.206 46 135.339 46C128.753 46 125.459 44.5733 125.459 41.72C125.459 40.1733 126.486 39.1067 128.539 38.52L130.939 39.6C130.726 40.3733 130.619 41.1067 130.619 41.8C130.619 44.0933 132.326 45.24 135.739 45.24C137.819 45.24 139.419 44.8533 140.539 44.08C141.659 43.3067 142.219 42.3467 142.219 41.2C142.219 40.0533 141.873 39.28 141.179 38.88C140.513 38.5067 139.166 38.32 137.139 38.32H133.259C131.099 38.32 129.553 37.96 128.619 37.24C127.686 36.52 127.219 35.64 127.219 34.6C127.219 33.5333 127.553 32.6533 128.219 31.96C128.886 31.24 130.073 30.36 131.779 29.32C128.686 28.44 127.139 26.4133 127.139 23.24C127.139 21.24 127.859 19.6267 129.299 18.4C130.739 17.1733 132.899 16.56 135.779 16.56C137.513 16.56 138.993 16.8933 140.219 17.56C140.059 16.84 139.979 16.1867 139.979 15.6C139.979 14.1067 140.379 13.0267 141.179 12.36C141.979 11.6933 142.873 11.36 143.859 11.36C144.846 11.36 145.633 11.6267 146.219 12.16C146.833 12.6667 147.139 13.3733 147.139 14.28C147.139 15.1867 146.899 15.8667 146.419 16.32C145.939 16.7467 145.353 16.96 144.659 16.96C143.993 16.96 143.433 16.7867 142.979 16.44C142.553 16.0667 142.326 15.5467 142.299 14.88ZM133.819 22.36V24.52C133.819 26.3067 133.966 27.52 134.259 28.16C134.579 28.8 135.046 29.12 135.659 29.12C136.299 29.12 136.753 28.8133 137.019 28.2C137.313 27.56 137.459 26.2667 137.459 24.32V22.36C137.459 20.28 137.326 18.92 137.059 18.28C136.793 17.6133 136.339 17.28 135.699 17.28C135.086 17.28 134.619 17.6267 134.299 18.32C133.979 18.9867 133.819 20.3333 133.819 22.36ZM199.108 8.76V36H193.508L179.788 10.12V35.24H181.988V36H176.508V35.24H178.708V8.76H176.508V8H187.548L198.028 28.08V8.76H195.828V8H201.308V8.76H199.108ZM212.834 36.4C209.394 36.4 206.807 35.52 205.074 33.76C203.367 31.9733 202.514 29.5067 202.514 26.36C202.514 23.1867 203.474 20.76 205.394 19.08C207.341 17.4 209.807 16.56 212.794 16.56C218.847 16.56 221.754 19.6 221.514 25.68H210.234V27.24C210.234 29.8533 210.567 31.8267 211.234 33.16C211.901 34.4933 213.061 35.16 214.714 35.16C217.807 35.16 219.834 33.5067 220.794 30.2L221.514 30.32C221.007 32.24 220.087 33.7333 218.754 34.8C217.447 35.8667 215.474 36.4 212.834 36.4ZM210.274 24.88H214.394V22.92C214.394 20.76 214.261 19.2933 213.994 18.52C213.754 17.72 213.247 17.32 212.474 17.32C211.727 17.32 211.167 17.7467 210.794 18.6C210.447 19.4267 210.274 20.8667 210.274 22.92V24.88ZM235.408 17.68V16.96H245.728V17.68H244.088L247.688 31.16L251.248 17.68H248.488V16.96H253.888V17.68H252.208L247.408 36H241.928L238.448 23.72L234.688 36H229.328L223.408 17.68H221.608V16.96H233.728V17.68H231.328L235.008 31.28L237.888 21.92L236.888 17.68H235.408ZM254.25 36.4V29.24H254.73C255.423 31.56 256.356 33.1867 257.53 34.12C258.703 35.0533 260.17 35.52 261.93 35.52C264.65 35.52 266.01 34.6533 266.01 32.92C266.01 32.1733 265.676 31.6133 265.01 31.24C263.97 30.6533 262.636 30.2 261.01 29.88C259.196 29.4 257.676 28.76 256.45 27.96C254.983 27 254.25 25.48 254.25 23.4C254.25 21.32 254.89 19.6667 256.17 18.44C257.45 17.1867 259.156 16.56 261.29 16.56C262.596 16.56 263.943 16.8667 265.33 17.48C265.836 17.6933 266.223 17.8 266.49 17.8C266.756 17.8 266.983 17.7067 267.17 17.52C267.356 17.3333 267.583 16.9867 267.85 16.48H268.29V22.6H267.81C266.45 19.1333 264.343 17.4 261.49 17.4C260.236 17.4 259.303 17.6267 258.69 18.08C258.076 18.5067 257.77 19.0533 257.77 19.72C257.77 20.12 257.863 20.44 258.05 20.68C258.236 20.8933 258.383 21.0533 258.49 21.16C258.596 21.2667 258.77 21.3867 259.01 21.52C259.25 21.6267 259.45 21.72 259.61 21.8C259.77 21.8533 260.01 21.9333 260.33 22.04C260.676 22.1467 260.93 22.2133 261.09 22.24C262.903 22.6933 264.21 23.0933 265.01 23.44C265.81 23.76 266.57 24.16 267.29 24.64C268.756 25.6533 269.49 27.2933 269.49 29.56C269.49 31.8 268.823 33.5067 267.49 34.68C266.156 35.8267 264.33 36.4 262.01 36.4C260.356 36.4 258.756 36.0133 257.21 35.24C256.89 35.0267 256.636 34.92 256.45 34.92C255.863 34.92 255.29 35.4133 254.73 36.4H254.25Z" fill="black"/>
</g>
<defs>
<clipPath id="clip0">
<rect width="271" height="48" fill="white"/>
</clipPath>
</defs>
</svg>
