<svg id="bedfa4ec-2f73-4bdc-8091-1d3d14073f33" data-name="Layer 1" xmlns="http://www.w3.org/2000/svg" viewBox="0 0 120 120"><defs><style>.a1985ce8-0d28-44d3-98a8-77bd000ead01{fill:#231f20;}</style></defs><title>idojaras_piktok</title><path class="a1985ce8-0d28-44d3-98a8-77bd000ead01" d="M54.65,45.61a2.36,2.36,0,0,0,1.9.8,2.72,2.72,0,0,0,1.7-.6,2.51,2.51,0,0,0,.2-3.5l-6-6.7a2.48,2.48,0,1,0-3.7,3.3Z"/><path class="a1985ce8-0d28-44d3-98a8-77bd000ead01" d="M92.15,79.91a2.48,2.48,0,0,0-3.7,3.3l6,6.7a2.36,2.36,0,0,0,1.9.8,2.72,2.72,0,0,0,1.7-.6,2.51,2.51,0,0,0,.2-3.5Z"/><path class="a1985ce8-0d28-44d3-98a8-77bd000ead01" d="M96.15,64a2.42,2.42,0,0,0,2.4,2.6l8.9.5h.1a2.52,2.52,0,0,0,2.5-2.4,2.42,2.42,0,0,0-2.4-2.6l-8.9-.5A2.42,2.42,0,0,0,96.15,64Z"/><path class="a1985ce8-0d28-44d3-98a8-77bd000ead01" d="M92.15,48.41a2.72,2.72,0,0,0,1.7-.6l6.7-6a2.48,2.48,0,0,0-3.3-3.7l-6.7,6a2.45,2.45,0,0,0,1.6,4.3Z"/><path class="a1985ce8-0d28-44d3-98a8-77bd000ead01" d="M27.85,97h43.5a12.29,12.29,0,0,0,12.3-12.3,12.07,12.07,0,0,0-1.9-6.5A17.75,17.75,0,0,0,91,63.71a17.61,17.61,0,0,0-16.6-18.5,18.13,18.13,0,0,0-7.7,1.3h0a17.37,17.37,0,0,0-6.1,4.3,24.33,24.33,0,0,0-31.8,10.1H28a18.05,18.05,0,0,0-.1,36.1Zm40.7-45.8h0a13.09,13.09,0,0,1,5.5-1,12.88,12.88,0,0,1,8.7,4.2,12.59,12.59,0,0,1-4.7,20.1,12.21,12.21,0,0,0-3.7-1.6h0A24.41,24.41,0,0,0,65,53.71,9,9,0,0,1,68.55,51.21Zm-40.7,14.7a12.57,12.57,0,0,1,8.1,2.9,2.49,2.49,0,1,0,3.1-3.9,20.38,20.38,0,0,0-5.2-2.9,19.3,19.3,0,0,1,35.3,10.7,12.42,12.42,0,0,0-5.8,2.7,2.48,2.48,0,0,0,3.2,3.8,7.3,7.3,0,1,1,4.7,12.9H27.85a13.1,13.1,0,0,1,0-26.2Z"/><path class="a1985ce8-0d28-44d3-98a8-77bd000ead01" d="M71.9,25.49v10.4a2.5,2.5,0,0,0,5,0V25.49a2.5,2.5,0,1,0-5,0Z"/></svg>