<?xml version="1.0" encoding="utf-8"?>
<!-- Generator: Adobe Illustrator 22.1.0, SVG Export Plug-In . SVG Version: 6.00 Build 0)  -->
<svg version="1.1" id="Réteg_1" xmlns="http://www.w3.org/2000/svg" xmlns:xlink="http://www.w3.org/1999/xlink" x="0px" y="0px"
	 viewBox="0 0 128 128" style="enable-background:new 0 0 128 128;" xml:space="preserve">
<style type="text/css">
	.st0{clip-path:url(#SVGID_2_);}
	.st1{clip-path:url(#SVGID_4_);fill:#FFFFFF;}
</style>
<g>
	<defs>
		<path id="SVGID_1_" d="M70.3,53.4l-5.7-3.3L59,53.4l-5.7,3.3v13.1l5.7,3.3c0,0,0,0,0,0l5.7,3.3l5.7-3.3l5.7-3.3V56.7L70.3,53.4
			C70.4,53.4,70.4,53.4,70.3,53.4z M41.4,76.6l5.3,0c-0.1-0.9-0.4-1.7-0.8-2.5c-0.5-0.8-1.1-1.5-1.9-2L41.4,76.6z M64.6,41.4
			c1,0,1.9-0.2,2.7-0.6l-2.6-4.6L62,40.9C62.8,41.2,63.7,41.4,64.6,41.4z M49,63.2l3.2,5.5V57.6L49,63.2z M53.6,71.2l3,5.5l6.4,0
			L58.4,74c0,0,0,0,0,0L53.6,71.2L53.6,71.2z M55.4,76.7l-3.4-6h0l-3.7-6.4l-3.9,6.9c0.9,0.6,1.7,1.4,2.3,2.5c0.6,1,0.9,2,1,3.1
			L55.4,76.7L55.4,76.7z M72.8,76.7l3.1-5.6l-9.7,5.6L72.8,76.7L72.8,76.7z M77.1,69l3.2-5.5L77.1,58V69z M72.4,49.9l-6,0l4.4,2.5
			c0,0,0,0,0,0l4.5,2.6L72.4,49.9L72.4,49.9z M46.6,49.8l-5.2,0l2.6,4.6c0.7-0.5,1.3-1.2,1.8-2C46.2,51.6,46.5,50.7,46.6,49.8z
			 M55.4,49.9l-7.7,0c-0.1,1.1-0.4,2.1-1,3.1c-0.6,1-1.3,1.8-2.2,2.4l3.9,6.7l3.5-6.2c0,0,0,0,0,0L55.4,49.9L55.4,49.9z M62.8,49.9
			l-6.1,0l-3.2,5.4l4.9-2.8L62.8,49.9L62.8,49.9z M57.3,48.8l7.3,0l7.1,0l-4-7c-1,0.5-2.1,0.7-3.2,0.7c-1.1,0-2.2-0.3-3.2-0.7
			L57.3,48.8z M63.4,36.3l-4.1,2.4c0.2,0.3,0.5,0.6,0.7,0.9c0.3,0.3,0.6,0.6,1,0.8L63.4,36.3L63.4,36.3z M46,46.4l-4,2.3l4.6,0
			c0-0.4-0.1-0.9-0.2-1.3C46.3,47.1,46.2,46.7,46,46.4L46,46.4z M52.7,42.5L47,45.9c0.2,0.4,0.4,0.9,0.5,1.3c0.1,0.5,0.2,1,0.2,1.6
			l8.4,0l4.4-7.5c-0.4-0.3-0.8-0.6-1.2-1c-0.3-0.3-0.6-0.7-0.9-1.1L52.7,42.5L52.7,42.5z M40.8,51v4.6c0.4,0,0.7-0.1,1.1-0.2
			c0.4-0.1,0.8-0.3,1.2-0.4L40.8,51z M39.7,55.6v-6.4c0-0.2,0.1-0.4,0.3-0.5l5.5-3.2c-0.5-0.8-1.2-1.4-2.1-1.9
			c-1.5-0.9-3.3-1.1-4.9-0.6c-1.6,0.4-3,1.5-3.9,3c-0.9,1.5-1.1,3.3-0.6,4.9c0.4,1.6,1.5,3,3,3.9C37.8,55.2,38.8,55.5,39.7,55.6
			L39.7,55.6z M40.8,70.9v4.5l2.2-3.9c-0.4-0.2-0.7-0.3-1.1-0.4C41.5,71,41.2,71,40.8,70.9z M40.8,63.2v6.6c0.5,0,0.9,0.1,1.4,0.2
			c0.5,0.1,0.9,0.3,1.4,0.5l4.2-7.4l-4.2-7.3c-0.5,0.2-0.9,0.4-1.4,0.5c-0.4,0.1-0.9,0.2-1.4,0.2V63.2z M42,77.7l4.1,2.3
			c0.2-0.3,0.3-0.7,0.4-1c0.1-0.4,0.2-0.9,0.2-1.3L42,77.7z M45.5,81L40,77.8c-0.2-0.1-0.3-0.3-0.3-0.5h0v-6.4
			c-0.9,0.1-1.8,0.3-2.6,0.8c0,0,0,0-0.1,0c-1.5,0.9-2.5,2.3-3,3.9c-0.4,1.6-0.2,3.3,0.6,4.9c0,0,0,0,0,0.1c0.9,1.5,2.3,2.5,3.9,3
			c1.6,0.4,3.3,0.2,4.9-0.6c0,0,0,0,0.1,0C44.3,82.4,45,81.8,45.5,81L45.5,81z M69.9,38.6l-4-2.3l2.3,4c0.3-0.2,0.6-0.5,0.9-0.8
			C69.5,39.3,69.7,39,69.9,38.6z M65,34.5l5.5,3.2c0.4-0.8,0.6-1.7,0.6-2.7c0-1.8-0.7-3.4-1.9-4.6c-1.2-1.2-2.8-1.9-4.6-1.9
			c-1.8,0-3.4,0.7-4.6,1.9c-1.2,1.2-1.9,2.8-1.9,4.6c0,1,0.2,1.9,0.6,2.8l5.6-3.3C64.6,34.4,64.8,34.4,65,34.5L65,34.5z M82.9,47.4
			c-0.1,0.4-0.2,0.9-0.2,1.3l5,0l-4.4-2.4C83.1,46.6,83,47,82.9,47.4L82.9,47.4z M81.6,48.7c0-0.5,0.1-1.1,0.2-1.6
			c0.1-0.5,0.3-0.9,0.5-1.4l-5.7-3.2l-5.7-3.4c-0.3,0.4-0.6,0.8-0.9,1.1c-0.4,0.4-0.7,0.7-1.2,1l4.3,7.5L81.6,48.7L81.6,48.7z
			 M83.5,52.3c0.5,0.9,1.2,1.6,1.9,2.1l2.6-4.6l-5.4,0C82.8,50.7,83,51.5,83.5,52.3L83.5,52.3z M84.9,55.3c-0.9-0.6-1.7-1.5-2.3-2.5
			c-0.6-1-0.9-2-1-3l-7.9,0l3.4,6l0,0l3.7,6.5L84.9,55.3L84.9,55.3z M87.4,55.3c0.4,0.1,0.8,0.2,1.3,0.2l0.1-4.8l-2.4,4.2
			C86.7,55.1,87.1,55.2,87.4,55.3L87.4,55.3z M94.7,45.9C94.7,45.9,94.7,45.8,94.7,45.9c-0.9-1.6-2.3-2.6-3.9-3
			c-1.6-0.4-3.4-0.2-4.9,0.6l0,0c-0.8,0.5-1.5,1.1-2,1.8l5.8,3.2c0.2,0.1,0.3,0.3,0.3,0.5l-0.1,6.4c0.8-0.1,1.7-0.4,2.5-0.8
			c0,0,0,0,0.1,0c1.5-0.9,2.5-2.3,3-3.9C95.7,49.2,95.6,47.4,94.7,45.9z M87.5,71.1c-0.4,0.1-0.8,0.3-1.2,0.5l2.3,4v-4.6
			C88.2,70.9,87.8,71,87.5,71.1z M85.7,70.6c0.5-0.2,1-0.4,1.5-0.6c0.4-0.1,0.9-0.2,1.4-0.2v-6.6h0l0.1-6.6c-0.5,0-1-0.1-1.5-0.2
			c-0.4-0.1-0.9-0.3-1.3-0.5l-4.3,7.6L85.7,70.6L85.7,70.6z M83.5,74.1c-0.5,0.8-0.7,1.7-0.8,2.5l5.2,0l-2.6-4.5
			C84.6,72.6,84,73.3,83.5,74.1z M81.6,76.6c0.1-1.1,0.4-2.1,1-3.1c0.6-1,1.3-1.8,2.2-2.4l-3.9-6.6l-3.5,6.2l-3.3,6L81.6,76.6
			L81.6,76.6z M82.9,79c0.1,0.4,0.2,0.7,0.4,1.1l4.1-2.4l-4.7,0C82.7,78.1,82.8,78.6,82.9,79L82.9,79z M90.8,83.5
			c1.6-0.4,3-1.4,3.9-3c0,0,0-0.1,0-0.1c0.9-1.5,1-3.3,0.6-4.9c-0.4-1.6-1.4-3-3-3.9c0,0-0.1,0-0.1,0c-0.8-0.5-1.8-0.7-2.7-0.8v6.4
			c0,0.2-0.1,0.4-0.3,0.5L83.8,81c0.5,0.8,1.2,1.4,2.1,1.9C87.4,83.8,89.2,84,90.8,83.5L90.8,83.5z M69.2,87.8
			c-0.3-0.3-0.6-0.6-1-0.8l-2.1,3.8l3.6-2.4C69.6,88.2,69.4,88,69.2,87.8L69.2,87.8z M68.8,86c0.4,0.3,0.9,0.6,1.2,1
			c0.2,0.2,0.5,0.5,0.7,0.7l5.9-3.9c0,0,0,0,0.1,0l5.7-3.3c-0.2-0.4-0.4-0.9-0.5-1.3c-0.1-0.5-0.2-1-0.2-1.5l-8.2,0L68.8,86z
			 M64.7,85.9c-0.9,0-1.8,0.2-2.6,0.5l2.6,4.6l2.6-4.6C66.5,86.1,65.6,85.9,64.7,85.9L64.7,85.9z M61.6,85.5c0.9-0.4,2-0.7,3.1-0.7
			c1.1,0,2.2,0.2,3.1,0.7l4.3-7.8c-5,0-9.9,0-14.9,0L61.6,85.5L61.6,85.5z M60.1,87.8c-0.2,0.2-0.4,0.4-0.5,0.6l3.7,2.4L61.2,87
			C60.8,87.2,60.4,87.5,60.1,87.8L60.1,87.8z M58.7,87.8c0.2-0.3,0.4-0.5,0.7-0.8c0.4-0.4,0.8-0.7,1.3-1L56,77.8l-8.3,0
			c0,0.5-0.1,1.1-0.2,1.6c-0.1,0.4-0.3,0.9-0.5,1.3l5.7,3.3c0,0,0,0,0,0L58.7,87.8L58.7,87.8z M60.1,96.9c1.2,1.2,2.8,1.9,4.6,1.9
			c1.8,0,3.4-0.7,4.6-1.9c1.2-1.2,1.9-2.8,1.9-4.6c0-1.1-0.3-2.2-0.8-3.1L65,92.8c-0.2,0.1-0.4,0.1-0.6,0L59,89.3
			c-0.5,0.9-0.8,2-0.8,3.1h0C58.2,94.2,59,95.8,60.1,96.9L60.1,96.9z M24.1,74.6l0.4,1.7l-1.7,0.4L22.4,75L24.1,74.6z M27.5,73.8
			l0.4,1.7l-1.7,0.4l-0.4-1.7L27.5,73.8z M32.8,94.9l1.2,1.3l-1.3,1.2l-1.2-1.3L32.8,94.9z M35.3,92.4l1.2,1.3l-1.3,1.2l-1.2-1.3
			L35.3,92.4z M37.9,90l1.2,1.3l-1.3,1.2l-1.2-1.3L37.9,90z M52.6,107.1l1.7,0.5l-0.5,1.7l-1.7-0.5L52.6,107.1z M53.6,103.7l1.7,0.5
			l-0.5,1.7l-1.7-0.5L53.6,103.7z M54.5,100.4l1.7,0.5l-0.5,1.7l-1.7-0.5L54.5,100.4z M75.3,107l1.7-0.4l0.4,1.7l-1.7,0.4L75.3,107z
			 M74.4,103.6l1.7-0.4l0.4,1.7l-1.7,0.4L74.4,103.6z M73.6,100.2l1.7-0.4l0.4,1.7l-1.7,0.4L73.6,100.2z M95.2,95.6l1.3-1.2l1.2,1.3
			l-1.3,1.2L95.2,95.6z M92.7,93.1l1.3-1.2l1.2,1.3L94,94.3L92.7,93.1z M90.3,90.6l1.3-1.2l1.2,1.3l-1.3,1.2L90.3,90.6z M107,76.2
			l0.5-1.7l1.7,0.5l-0.5,1.7L107,76.2z M103.6,75.2l0.5-1.7l1.7,0.5l-0.5,1.7L103.6,75.2z M100.3,74.2l0.5-1.7l1.7,0.5l-0.5,1.7
			L100.3,74.2z M107.6,53.8l-0.4-1.7l1.7-0.4l0.4,1.7L107.6,53.8z M104.2,54.6l-0.4-1.7l1.7-0.4l0.4,1.7L104.2,54.6z M100.9,55.5
			l-0.4-1.7l1.7-0.4l0.4,1.7L100.9,55.5z M21,51.8l-0.5,1.7L18.8,53l0.5-1.7L21,51.8z M24.4,52.8l-0.5,1.7L22.2,54l0.5-1.7
			L24.4,52.8z M27.7,53.8l-0.5,1.7L25.6,55l0.5-1.7L27.7,53.8z M33.2,31.4L32,32.6l-1.2-1.3l1.3-1.2L33.2,31.4z M35.6,33.9l-1.3,1.2
			l-1.2-1.3l1.3-1.2L35.6,33.9z M38.1,36.4l-1.3,1.2l-1.2-1.3l1.3-1.2L38.1,36.4z M53.2,20.2l-1.7,0.4l-0.4-1.7l1.7-0.4L53.2,20.2z
			 M54.1,23.6L52.4,24l-0.4-1.7l1.7-0.4L54.1,23.6z M54.9,27l-1.7,0.4l-0.4-1.7l1.7-0.4L54.9,27z M76.8,21.2l-1.7-0.4l0.4-1.7
			l1.7,0.4L76.8,21.2z M76,24.6l-1.7-0.4l0.4-1.7l1.7,0.4L76,24.6z M75.3,28.1l-1.7-0.4L74,26l1.7,0.4L75.3,28.1z M96.4,33.3
			l-1.2-1.3l1.3-1.2l1.2,1.3L96.4,33.3z M93.9,35.8l-1.2-1.3l1.3-1.2l1.2,1.3L93.9,35.8z M91.4,38.2l-1.2-1.3l1.3-1.2l1.2,1.3
			L91.4,38.2z M20.7,75.5l0.4,1.7l-1.7,0.4l-0.4-1.7L20.7,75.5z M4.2,46.8L17,50.4c2.2-7.6,6.3-14.7,12-20.6l-9.3-9.6
			C12.3,27.8,7,37,4.2,46.8L4.2,46.8z M3.6,79.2l12.9-3.3c-2-7.9-1.9-16.1,0-23.8L3.7,48.5C1.2,58.4,1,69,3.6,79.2L3.6,79.2z
			 M30.7,97.3c0.2,0.1,0.3,0.2,0.4,0.4c5.9,5.7,13.1,9.7,20.8,11.7c11.6,3,24.4,1.7,35.6-4.9c22.4-13.1,29.9-41.9,16.8-64.3
			C91.2,17.9,62.5,10.3,40.1,23.4C17.7,36.5,10.1,65.3,23.2,87.7C25.3,91.3,27.8,94.5,30.7,97.3L30.7,97.3z M19.4,107.5l9.6-9.3
			c-2.8-2.8-5.2-6-7.3-9.5c-2.1-3.5-3.6-7.2-4.7-11L4.1,80.9c1.4,5,3.5,9.8,6.2,14.5C12.9,99.9,16,103.9,19.4,107.5L19.4,107.5
			L19.4,107.5z M19.1,109.6c-0.2-0.1-0.4-0.3-0.5-0.5c-3.7-3.7-7-8-9.8-12.8C-9.1,65.8,1.2,26.6,31.7,8.8
			c30.5-17.8,69.7-7.6,87.5,22.9c17.8,30.5,7.6,69.7-22.9,87.5c-15.3,8.9-32.7,10.8-48.5,6.7C37.1,123.1,27.2,117.6,19.1,109.6
			L19.1,109.6L19.1,109.6z M47.2,123.9l3.7-13c-7.6-2.1-14.7-6-20.6-11.6l-9.6,9.3C28.2,116,37.4,121.2,47.2,123.9L47.2,123.9z
			 M79.4,124.3L76,111.2c-7.8,2-15.9,2-23.5,0.2l-3.7,13C58.7,126.9,69.2,126.9,79.4,124.3L79.4,124.3L79.4,124.3z M107.4,108.7
			l-9.5-9.8c-2.8,2.7-5.9,5.1-9.4,7.2c-3.4,2-7,3.6-10.7,4.7l3.3,13.2c4.9-1.4,9.8-3.4,14.4-6.1C99.8,115.1,103.8,112.1,107.4,108.7
			L107.4,108.7L107.4,108.7z M123.8,81.2l-13.2-3.7c0,0,0,0,0,0c-2.1,7.5-6.1,14.4-11.6,20.2l9.5,9.8C115.9,100,121,90.9,123.8,81.2
			L123.8,81.2L123.8,81.2z M124.5,49.2l-13.3,3.4c1.9,7.7,1.8,15.7-0.1,23.2l0.1,0l13.2,3.7C126.8,69.7,127,59.3,124.5,49.2
			L124.5,49.2L124.5,49.2z M109.1,21.1l-9.8,9.5c2.5,2.6,4.7,5.6,6.6,8.8c2.2,3.7,3.8,7.6,4.9,11.5l13.3-3.4
			c-1.4-5.1-3.5-10.1-6.3-14.9C115.2,28.3,112.3,24.5,109.1,21.1z M76.2,16.9l3.7-13c-0.1,0-0.1,0-0.2,0C69.9,1.2,59.5,1,49.3,3.5
			l3.3,13c7.8-1.8,15.9-1.7,23.5,0.3L76.2,16.9z M81.6,4.3l-3.7,13.1c7.5,2.3,14.4,6.3,20.1,12l9.8-9.5
			C100.4,12.4,91.3,7.2,81.6,4.3L81.6,4.3z M32.6,24c-0.4,0.3-0.9,0.2-1.2-0.2c-0.3-0.4-0.2-0.9,0.2-1.2c1-0.7,1-1.4,0.9-2
			c-0.1-0.9-0.1-1.8,0.9-2.5c0.1,0,0.1-0.1,0.2-0.1c1.2-0.5,1.9-0.1,2.6,0.5c0.5,0.3,1.1,0.7,2.2,0.2c1-0.7,0.9-1.4,0.9-2
			c-0.1-0.9-0.1-1.8,0.9-2.5c0.1,0,0.1-0.1,0.2-0.1c1.2-0.5,1.9-0.1,2.6,0.5c0.5,0.4,1.2,0.8,2.2,0.2c0.4-0.2,1,0,1.2,0.4
			c0.2,0.4,0,1-0.4,1.2c-2,1-3,0.3-4-0.3c-0.3-0.2-0.6-0.4-0.9-0.3c-0.2,0.2-0.2,0.6-0.1,1c0.1,1.1,0.2,2.4-1.7,3.6
			c0,0-0.1,0-0.1,0.1c-2,1-3,0.3-4-0.3c-0.3-0.2-0.6-0.4-0.9-0.3c-0.2,0.2-0.2,0.6-0.1,1C34.4,21.5,34.4,22.8,32.6,24L32.6,24
			L32.6,24z M30.1,19.5c-0.4,0.3-0.9,0.2-1.2-0.2c-0.3-0.4-0.2-0.9,0.2-1.2c1-0.7,1-1.4,0.9-2c-0.1-0.9-0.1-1.8,0.9-2.5
			c0.1,0,0.1-0.1,0.2-0.1c1.2-0.5,1.9-0.1,2.6,0.5c0.5,0.3,1.1,0.7,2.2,0.2c1-0.7,0.9-1.4,0.9-2c-0.1-0.9-0.1-1.8,0.9-2.5
			c0.1,0,0.1-0.1,0.2-0.1c1.2-0.5,1.9-0.1,2.6,0.4c0.5,0.4,1.2,0.8,2.2,0.2c0.4-0.2,1,0,1.2,0.4c0.2,0.4,0,1-0.4,1.2
			c-2,1-3,0.3-4-0.3c-0.3-0.2-0.6-0.4-0.9-0.3c-0.2,0.2-0.2,0.6-0.1,1c0.1,1.1,0.2,2.4-1.7,3.6c0,0-0.1,0-0.1,0.1c-2,1-3,0.3-4-0.3
			c-0.3-0.2-0.6-0.4-0.9-0.3c-0.2,0.2-0.2,0.6-0.1,1C31.9,17,32,18.3,30.1,19.5L30.1,19.5L30.1,19.5z M18,34.1c0.5,0.1,1,0,1.4-0.5
			c0.4-0.7,0.4-1.2,0.2-1.5c-0.1-0.3-0.5-0.5-0.8-0.6c-0.2,0-0.4,0-0.5,0c-0.1,0.1-0.1,0.1-0.2,0.2c-0.3,0.2-0.5,0.4-0.5,0.8
			c-0.1,0.4,0.1,0.9,0.2,1.5C18,34.1,18,34.1,18,34.1L18,34.1z M11.8,37.9c0.4,0.3,0.5,0.8,0.2,1.2c-0.3,0.4-0.8,0.5-1.2,0.2
			c-0.7-0.5-1.1-1.3-1.2-2.1c-0.1-0.9,0.3-1.7,1-2.3c0.3-0.2,0.6-0.2,0.9-0.1c-0.1-0.7-0.2-1.5,0.2-2.1c0.2-0.4,0.6-0.8,1.1-0.9
			c0.7-0.2,1.6,0,2.7,0.7c0.2,0.1,0.4,0.3,0.6,0.4c0-0.2,0-0.4,0-0.6c0.1-0.8,0.5-1.4,1.2-2c0.5-0.5,1.3-0.6,2-0.5
			c0.8,0.2,1.6,0.7,2,1.5c0.4,0.8,0.4,1.9-0.3,3.2c0,0.1-0.1,0.1-0.1,0.2c-0.6,0.6-1.1,1-1.6,1.2c1.1,1.5,2.2,3.2,1.3,5
			c-0.2,0.4-0.7,0.6-1.2,0.4c-0.4-0.2-0.6-0.7-0.4-1.2c0.5-0.9-0.6-2.4-1.4-3.5c-0.2-0.3-0.5-0.6-0.7-1c-0.6-0.3-1.1-0.7-1.7-1.2
			c-0.2-0.2-0.5-0.4-0.7-0.5c-0.6-0.4-1-0.6-1.2-0.5c0,0,0,0,0,0c-0.1,0.1-0.1,0.3-0.1,0.5c0,0.8,0.4,1.8,1.1,2.4l1.8,1
			c0.4,0.2,0.6,0.8,0.3,1.2c-0.2,0.4-0.8,0.6-1.2,0.3l-3.8-2.2c0,0.1,0,0.2,0,0.3c0,0.2,0.1,0.5,0.3,0.7
			C11.6,37.8,11.7,37.9,11.8,37.9L11.8,37.9z M4.9,63.4c-0.4,0.3-0.9,0.2-1.2-0.2c-0.3-0.4-0.2-0.9,0.2-1.2c0.5-0.4,1-1,1-2
			c0-0.5,0-1.1-0.2-1.8l-0.5-1.2c-0.1-0.2-0.1-0.5,0-0.8l0,0c0.2-0.3,0.4-0.4,0.7-0.4h0c0.1,0,0.3,0,0.4,0.1l0,0
			c0.1,0.1,0.2,0.2,0.3,0.3c0.7,1.1,1.5,1.8,2.2,2.1c0.9,0.4,1.7,0.3,2.2,0.1c0.4-0.2,1,0,1.1,0.5c0.2,0.4,0,1-0.5,1.1
			c-0.9,0.4-2.1,0.5-3.4,0l1.9,4.3l0.6-1.2c0.2-0.4,0.7-0.6,1.2-0.4c0.4,0.2,0.6,0.7,0.4,1.2l-1.3,2.4l2.2,5c0.2,0.4,0,1-0.4,1.2
			c-0.4,0.2-1,0-1.2-0.4l-1.7-3.7l-0.6,1.2c-0.2,0.4-0.7,0.6-1.2,0.4c-0.4-0.2-0.6-0.7-0.4-1.2l1.3-2.4l-2-4.5
			C5.9,62.5,5.4,63,4.9,63.4L4.9,63.4L4.9,63.4z M60.7,9.7c-0.5,0-0.9-0.3-1-0.8c0-0.5,0.3-0.9,0.8-1l2.5-0.2
			c-0.4-0.9-1.1-1.6-1.9-2.2c-0.4-0.3-0.5-0.8-0.2-1.2c0.3-0.4,0.8-0.5,1.2-0.2c1.2,0.9,2.2,2,2.6,3.4L66,7.4
			c0.2-1.2,0.7-2.3,1.6-3.3c0.6-0.6,1.3-1.2,2.2-1.6c0.4-0.2,1-0.1,1.2,0.4c0.2,0.4,0.1,1-0.4,1.2c-0.7,0.4-1.3,0.8-1.7,1.2
			c-0.5,0.6-0.9,1.2-1,1.9l1.5-0.1c0.5,0,0.9,0.3,1,0.8c0,0.5-0.3,0.9-0.8,1L67.8,9c0.1,0.4,0.2,0.8,0.4,1.2
			c0.3,0.6,0.7,1.1,1.3,1.7c0.3,0.3,0.4,0.9,0,1.2c-0.3,0.3-0.9,0.4-1.2,0c-1.1-1.1-2-2.4-2.2-3.9l-0.9,0.1c0,0.1,0,0.2,0,0.3
			c-0.1,1.2-0.5,2.3-1.2,3.4c-0.5,0.7-1.2,1.3-1.9,1.8c-0.4,0.3-0.9,0.2-1.2-0.2c-0.3-0.4-0.2-0.9,0.2-1.2c0.6-0.4,1.1-0.9,1.5-1.4
			c0.5-0.7,0.9-1.6,0.9-2.4c0,0,0-0.1,0-0.1L60.7,9.7L60.7,9.7z M90.2,21.2c-0.2,0.4-0.7,0.7-1.1,0.5c-0.3-0.1-0.5-0.4-0.5-0.8
			c-0.1-0.2-0.1-0.5,0-0.7c0.2-0.4,0.3-0.7,0.5-1c0.9-2,2-4.2,1.3-6.2C90,12.3,89.4,12,88.9,12c-0.4,0-0.8,0.1-0.9,0.5
			c-0.2,0.4-0.1,1.1,0.5,2.1c0.3,0.4,0.2,0.9-0.3,1.2c-0.4,0.3-0.9,0.2-1.2-0.3c-1-1.6-1.1-2.9-0.6-3.8c0.5-0.9,1.5-1.5,2.5-1.4
			c1.1,0,2.3,0.7,3,2.1c0,0,0,0.1,0.1,0.1c0.2,0.6,0.3,1.2,0.3,1.8c0.4-0.3,0.8-0.6,1.3-0.8c0.1,0,0.1,0,0.2-0.1
			c1.5-0.5,2.8,0,3.6,0.8c0.7,0.7,1.1,1.8,0.7,2.8c-0.4,1-1.4,1.9-3.2,2.2c-0.5,0.1-0.9-0.2-1-0.7c-0.1-0.5,0.2-0.9,0.7-1
			c1.1-0.2,1.7-0.6,1.9-1.1c0.1-0.4,0-0.7-0.3-1c-0.4-0.4-1-0.6-1.8-0.3c-2,1-2.9,3.2-3.7,5.2C90.4,20.6,90.3,21,90.2,21.2
			L90.2,21.2L90.2,21.2z M111,34c-0.6-0.2-1.3-0.1-1.9,0.3c-1.2,0.7-1.6,2.3-0.9,3.5c0.7,1.2,2.3,1.6,3.5,0.9
			c1.2-0.7,1.6-2.3,0.9-3.5C112.2,34.5,111.6,34.1,111,34z M114.6,36c0.7-0.1,1.4,0,2,0.3c0.6,0.3,1.1,0.7,1.4,1.4
			c0.3,0.6,0.5,1.3,0.6,2.3c0,0.5-0.3,0.9-0.8,0.9c-0.5,0-0.9-0.3-0.9-0.8c-0.1-0.7-0.2-1.2-0.4-1.6c-0.2-0.3-0.4-0.6-0.7-0.7
			c-0.3-0.1-0.5-0.2-0.8-0.2c-0.2,0-0.5,0.1-0.7,0.2c-0.3,0.9-1,1.7-1.9,2.3c-2.1,1.2-4.7,0.5-5.9-1.5c-1.2-2.1-0.5-4.7,1.5-5.9
			c1-0.6,2.2-0.7,3.3-0.5c0.1,0,0.2,0,0.2,0.1c0.4-0.3,0.8-0.8,0.8-1.3c0-0.3-0.1-0.6-0.3-0.9c-0.2-0.4-0.6-0.7-1.2-1.1
			c-0.4-0.3-0.5-0.8-0.2-1.2c0.3-0.4,0.8-0.5,1.2-0.2c0.8,0.5,1.3,1.1,1.7,1.6c0.4,0.7,0.6,1.3,0.5,1.9c0,0.8-0.4,1.6-1,2.2
			c0.3,0.3,0.6,0.6,0.8,1C114.4,34.8,114.6,35.4,114.6,36L114.6,36L114.6,36z M117,63c0,0.5,0,1-0.1,1.4c0,0,0,0,0,0.1l4.1,0
			c-0.1-0.5-0.1-0.9,0-1.4c0-0.1,0-0.1,0-0.2L117,63L117,63z M113.8,60.1c-0.3-0.3-0.3-0.9,0-1.2c0.3-0.3,0.9-0.3,1.2,0
			c0.7,0.7,1.2,1.5,1.6,2.3l4.9,0c0.4-0.9,1-1.8,1.8-2.5c0.4-0.3,0.9-0.3,1.2,0.1c0.3,0.4,0.3,0.9-0.1,1.2c-0.9,0.8-1.6,2-1.7,3.2
			c-0.1,1.4,0.4,2.6,1.5,3.6c0.4,0.3,0.4,0.9,0,1.2c-0.3,0.4-0.9,0.4-1.2,0c-0.6-0.6-1.1-1.2-1.5-1.9l-5.2,0
			c-0.3,0.7-0.8,1.3-1.3,1.8c-0.2,0.2-0.3,0.3-0.5,0.5c-0.4,0.3-0.9,0.2-1.2-0.2c-0.3-0.4-0.2-0.9,0.2-1.2c0.1-0.1,0.2-0.2,0.4-0.3
			l0,0c0.7-0.6,1.2-1.5,1.4-2.6c0.2-1,0-2.2-0.9-3.4C114.1,60.5,114,60.3,113.8,60.1L113.8,60.1L113.8,60.1z M112.4,85.9
			c0.5-0.1,0.9,0.2,1.1,0.6c0.1,0.5-0.2,0.9-0.6,1.1c-0.1,0-0.1,0-0.1,0.1c-0.1,0-0.1,0.1-0.1,0.2c0,0,0,0.1,0.1,0.1
			c0.2,0.1,0.5,0.2,0.7,0.1c0.4-0.1,0.8-0.5,0.8-0.9c0-0.1,0-0.3,0-0.4c-0.1-0.3-0.3-0.6-0.7-0.9c-0.3-0.2-0.6-0.2-0.9-0.2
			c-0.7,0-1.4,0.3-2.1,0.9c-0.8,0.7-1.4,1.6-2,2.6c-0.6,1.2-1,2.4-1.1,3.4c0,0.5-0.4,0.9-0.9,0.8s-0.9-0.4-0.8-0.9
			c0-1.2,0.5-2.8,1.3-4.2c0.6-1.2,1.4-2.2,2.4-3c1-0.9,2.1-1.4,3.3-1.4c0.6,0,1.1,0.2,1.6,0.5c0.9,0.5,1.4,1.2,1.6,2
			c0.2,0.7,0.1,1.4-0.3,2c-0.4,0.7-1,1.2-1.8,1.4c-0.7,0.2-1.4,0.1-2-0.3c0,0-0.1-0.1-0.1-0.1c-0.8-0.6-1-1.7-0.5-2.5
			C111.4,86.4,111.9,86.1,112.4,85.9L112.4,85.9L112.4,85.9z M111.3,95.3c-0.5,0.1-0.9-0.2-1.1-0.6c-0.1-0.5,0.2-0.9,0.6-1.1
			c0.1,0,0.1,0,0.1-0.1c0.1,0,0.1-0.1,0.1-0.2c0,0,0-0.1-0.1-0.1c-0.2-0.1-0.5-0.2-0.7-0.1c-0.4,0.1-0.8,0.5-0.8,0.9
			c0,0.1,0,0.3,0,0.4c0.1,0.3,0.3,0.6,0.7,0.9c0.3,0.2,0.6,0.2,0.9,0.2c0.7,0,1.4-0.3,2.1-0.9c0.8-0.7,1.4-1.6,2-2.6
			c0.6-1.2,1-2.4,1.1-3.4c0-0.5,0.4-0.9,0.9-0.8s0.9,0.4,0.8,0.9c0,1.2-0.5,2.8-1.3,4.2c-0.6,1.2-1.4,2.2-2.4,3
			c-1,0.9-2.1,1.4-3.3,1.4c-0.6,0-1.1-0.2-1.6-0.5c-0.9-0.5-1.4-1.2-1.6-2c-0.2-0.7-0.1-1.4,0.3-2c0.4-0.7,1-1.2,1.8-1.4
			c0.7-0.2,1.4-0.1,2,0.3c0,0,0.1,0.1,0.1,0.1c0.8,0.6,1,1.7,0.5,2.5C112.3,94.8,111.9,95.2,111.3,95.3L111.3,95.3L111.3,95.3z
			 M88.1,110.2c0.2,0.4,0.1,1-0.3,1.2c-0.4,0.2-1,0.1-1.2-0.3c-0.6-1-0.1-2.3,0.7-3.1c0.3-0.4,0.8-0.7,1.2-0.9
			c0.5-0.2,1-0.3,1.5-0.3c0.8,0.1,1.5,0.7,1.7,1.8c0.1,0.6,0.2,1.1,0.2,1.6c0.1,1.1,0.2,2.2,1,2.9c0,0,0.1,0.1,0.1,0.1l0,0
			c0.2,0.3,0.6,0.4,1,0.3c0.2,0,0.5-0.1,0.7-0.2c0.2-0.1,0.4-0.3,0.5-0.5c0.2-0.3,0.2-0.7,0-1.1c0,0,0-0.1,0-0.1
			c-0.3-0.8-0.9-1.4-1.5-2c0,0,0,0-0.3-0.3c-1.1-1.1-1.4-2.2-1.1-3.1c0.1-0.4,0.3-0.7,0.5-1c0.3-0.3,0.6-0.5,0.9-0.6
			c0.8-0.3,1.8-0.1,2.6,0.8c0.3,0.3,0.3,0.9,0,1.2c-0.3,0.3-0.9,0.3-1.2,0c-0.3-0.3-0.7-0.4-0.9-0.3c-0.1,0-0.2,0.2-0.3,0.3
			c-0.1,0.3,0.1,0.8,0.7,1.4c0.1,0.1,0.1,0.1,0.3,0.3c0.7,0.7,1.5,1.5,1.9,2.6c0.5,1.1,0.3,2-0.1,2.7c-0.3,0.4-0.6,0.8-1.1,1.1
			c-1.2,0.7-3,0.7-4-0.5c-1.2-1.2-1.4-2.5-1.5-3.9c-0.1-0.5-0.1-1-0.2-1.4c-0.1-0.3-0.2-0.5-0.3-0.5c-0.1,0-0.3,0-0.5,0.1
			c-0.2,0.1-0.5,0.3-0.7,0.5C88.2,109.4,87.9,109.9,88.1,110.2L88.1,110.2L88.1,110.2z M65.4,119.5
			C65.4,119.5,65.4,119.5,65.4,119.5c0.1,0.1,0.1,0.1,0.1,0.2c0.1,0.1,0.2,0.1,0.3,0.1c0.2,0,0.5,0,0.8-0.2
			c-0.4-1.3-0.3-3.1,0.2-4.5c0.2-0.5,0.6-0.7,1.1-0.5c0.5,0.2,0.7,0.6,0.5,1.1c-0.4,1.1-0.4,2.6-0.1,3.5c0,0.1,0.1,0.2,0.1,0.3
			c0,0,0,0.1,0,0.1c0,0,0.1,0.2,0.2,0.2c0.2,0,0.5-0.3,0.9-0.8c0.3-0.4,0.9-0.4,1.2-0.1c0.4,0.3,0.4,0.9,0.1,1.2
			c-0.7,0.8-1.4,1.3-2,1.4c-0.6,0.1-1-0.1-1.5-0.4c-0.6,0.3-1.2,0.4-1.8,0.4c-0.4,0-0.9-0.1-1.2-0.4c-0.6,0.3-1.2,0.4-1.8,0.4
			c-0.7,0-1.3-0.3-1.7-0.9c-0.3-0.4-0.4-0.9-0.4-1.6l0.2-4c0-0.5,0.4-0.9,0.9-0.8c0.5,0,0.9,0.4,0.8,0.9l-0.2,4c0,0.3,0,0.4,0.1,0.5
			c0.1,0.1,0.2,0.1,0.3,0.1c0.3,0,0.5-0.1,0.8-0.2c0-0.2,0-0.4,0-0.5l0.2-4c0-0.5,0.4-0.9,0.9-0.8c0.5,0,0.9,0.4,0.8,0.9l-0.2,4
			C65.3,119.3,65.4,119.4,65.4,119.5L65.4,119.5L65.4,119.5z M31.6,106.2c-0.4-0.2-0.5-0.8-0.3-1.2c0.2-0.4,0.8-0.5,1.2-0.3l11,6.6
			c0.4,0.2,0.5,0.8,0.3,1.2c-0.2,0.4-0.8,0.5-1.2,0.3L31.6,106.2z M29.7,109.2c-0.4-0.3-0.5-0.8-0.2-1.2c0.3-0.4,0.8-0.5,1.2-0.2
			l3,2c0.4,0.3,0.5,0.8,0.2,1.2c0,0,0,0.1-0.1,0.1c-0.5,0.7-0.7,1.7-0.3,2.5c0.6,0.9,1.8,1.3,2.7,0.7c0.5-0.3,0.7-0.7,0.9-1.2
			c0.2-0.4,0.7-0.7,1.1-0.5c0,0,0.1,0,0.1,0.1l3.1,1.8c0.4,0.2,0.6,0.8,0.3,1.2c-0.2,0.4-0.8,0.6-1.2,0.3l-2.3-1.3
			c-0.1,0.1-0.1,0.2-0.2,0.3c-0.3,0.3-0.6,0.6-1,0.9c-1.8,1-4.1,0.4-5.1-1.3c-0.7-1.1-0.7-2.5-0.1-3.7L29.7,109.2L29.7,109.2
			L29.7,109.2z M20.6,93.4c0.4-0.2,0.9-0.1,1.2,0.3c0.2,0.4,0.1,0.9-0.3,1.2l-3.7,2.2c-0.2,0.2-0.5,0.4-0.7,0.5
			c-0.3,0.3-0.4,0.6-0.4,0.8c0,0.2,0.1,0.3,0.2,0.5c0.1,0.2,0.3,0.3,0.5,0.4c0.4,0.1,0.8,0.1,1-0.3c0.3-0.4,0.9-0.4,1.2-0.1
			c0.4,0.3,0.4,0.9,0.1,1.2c-0.8,1-2,1.1-2.9,0.8c-1-0.4-1.8-1.3-1.9-2.4c0-0.3,0-0.6,0.1-0.8l0,0c-1-0.4-1.8-1.3-1.9-2.4
			c0-0.4,0-0.8,0.2-1.2c-0.8-0.3-1.5-1.1-1.5-2c0-0.8,0.5-1.7,1.8-2.4l3.7-2.2c0.2-0.2,0.3-0.4,0.3-0.6c0-0.1,0-0.2-0.1-0.3
			c-0.1-0.1-0.3-0.3-0.6-0.4c-0.7-0.2-1.7-0.3-2.9,0c-0.5,0.1-0.9-0.2-1-0.7c-0.1-0.5,0.2-0.9,0.7-1c1.5-0.3,2.9-0.3,3.8,0.1
			c0.6,0.2,1.1,0.5,1.4,0.9c0.4,0.5,0.5,1,0.5,1.6c-0.1,0.5-0.3,1.1-0.8,1.6c-0.1,0.1-0.1,0.1-0.2,0.2l-3.8,2.3c-0.7,0.4-1,0.7-1,1
			c0,0,0,0.1,0.1,0.2c0.1,0.1,0.2,0.2,0.4,0.2c0.2,0.1,0.5,0.1,0.7,0.1c0.1,0,0.1-0.1,0.2-0.1l0.3-0.2c0.1,0,0.1-0.1,0.2-0.1l3.3-2
			c0.4-0.2,0.9-0.1,1.2,0.3c0.2,0.4,0.1,0.9-0.3,1.2l-3.3,2c-0.2,0.2-0.5,0.4-0.8,0.5c-0.5,0.4-0.7,0.7-0.7,1c0,0.2,0.1,0.3,0.2,0.5
			c0.3,0.3,0.7,0.5,1.1,0.4c0.2-0.1,0.3-0.2,0.5-0.3c0.1-0.1,0.2-0.2,0.3-0.2L20.6,93.4L20.6,93.4L20.6,93.4z M39.2,21.9
			c3.8-2.2,7.7-3.9,11.8-5l-3.3-13c-5.2,1.4-10.2,3.5-15.1,6.3c-4.3,2.5-8.2,5.5-11.6,8.8l9.3,9.6C32.9,26.1,35.9,23.8,39.2,21.9
			L39.2,21.9L39.2,21.9z M64.7,99.9c-2.1,0-4-0.8-5.3-2.2c-1.4-1.4-2.2-3.2-2.2-5.3h0c0-1.3,0.3-2.6,0.9-3.7l-5.9-3.9l-5.7-3.3
			c-0.6,0.9-1.5,1.7-2.5,2.3c-1.8,1-3.9,1.3-5.7,0.8c-1.9-0.5-3.5-1.7-4.6-3.5l0,0c-1-1.8-1.2-3.9-0.8-5.7c0.5-1.9,1.7-3.5,3.5-4.6
			c0,0,0,0,0,0c1-0.6,2.1-0.9,3.2-1V56.7c-1.1-0.1-2.2-0.4-3.3-1c-1.8-1-3-2.7-3.5-4.6c-0.5-1.9-0.3-3.9,0.8-5.7
			c1-1.8,2.7-3,4.6-3.5c1.9-0.5,3.9-0.3,5.7,0.8c1,0.6,1.9,1.4,2.5,2.3l5.7-3.3l5.7-3.3c-0.5-1-0.8-2.1-0.8-3.3c0-2.1,0.8-4,2.2-5.3
			c1.4-1.4,3.2-2.2,5.3-2.2c2.1,0,4,0.8,5.3,2.2c1.4,1.4,2.2,3.2,2.2,5.3c0,1.2-0.3,2.3-0.7,3.3l5.7,3.3l5.7,3.2
			c0.6-0.9,1.4-1.7,2.4-2.2c1.8-1,3.9-1.3,5.7-0.8c1.9,0.5,3.5,1.7,4.6,3.5l0,0c1,1.8,1.3,3.9,0.8,5.7c-0.5,1.9-1.7,3.5-3.5,4.6
			c0,0,0,0,0,0c-1,0.6-2,0.9-3.1,1l-0.1,6.6h0v6.6c1.1,0.1,2.2,0.4,3.3,1h0c1.8,1,3,2.7,3.5,4.6c0.5,1.9,0.3,3.9-0.8,5.7v0
			c-1,1.8-2.7,3-4.6,3.5c-1.9,0.5-3.9,0.3-5.7-0.8c-1-0.6-1.9-1.4-2.5-2.3c-4.2,2.4-7.5,4.5-11.6,7.2c0.6,1.1,1,2.3,1,3.7
			c0,2.1-0.8,4-2.2,5.3C68.7,99.1,66.8,99.9,64.7,99.9L64.7,99.9z"/>
	</defs>
	<clipPath id="SVGID_2_">
		<use xlink:href="#SVGID_1_"  style="overflow:visible;"/>
	</clipPath>
	<g class="st0">
		<defs>
			<rect id="SVGID_3_" x="-1121" y="-1138" width="1440" height="7178"/>
		</defs>
		<clipPath id="SVGID_4_">
			<use xlink:href="#SVGID_3_"  style="overflow:visible;"/>
		</clipPath>
		<rect x="-5" y="-5" class="st1" width="138" height="138"/>
	</g>
</g>
</svg>
