<?xml version="1.0" encoding="utf-8"?>
<!-- Generator: Adobe Illustrator 23.0.6, SVG Export Plug-In . SVG Version: 6.00 Build 0)  -->
<svg version="1.1" id="Layer_1" xmlns="http://www.w3.org/2000/svg" xmlns:xlink="http://www.w3.org/1999/xlink" x="0px" y="0px"
	 viewBox="0 0 313 171" style="enable-background:new 0 0 313 171;" xml:space="preserve">
<style type="text/css">
	.st0{fill:#EE2B92;}
</style>
<g>
	<path class="st0" d="M0,26.8h33.6v99.9H88v28.6H0V26.8z"/>
	<path d="M104.6,165.8c-3.2-3.2-4.9-7.4-4.9-12.6c0-5,1.6-9.2,4.9-12.5c3.2-3.3,7.4-5,12.4-5c5,0,9.1,1.7,12.4,5
		c3.2,3.3,4.9,7.5,4.9,12.5c0,5.1-1.6,9.3-4.9,12.6c-3.2,3.2-7.4,4.9-12.4,4.9C111.9,170.7,107.8,169.1,104.6,165.8z"/>
	<rect x="100.4" y="0.3" width="32.5" height="124.7"/>
	<path class="st0" d="M186.4,46.6c-2.1,1.8-3.1,4.5-3.1,7.9v6.4h22v21.6h-22v72.8h-32.5V51.8c0-10.6,3.6-18.9,10.7-24.9
		c7.1-6,16.3-9,27.6-9c7,0,13.8,1.3,20.5,3.9l-4,24.8c-5.1-1.7-8.9-2.6-11.2-2.6C191.2,43.9,188.5,44.8,186.4,46.6z"/>
	<path class="st0" d="M291.9,119.8l18.3,16.5c-11.5,13.4-26.7,20.2-45.5,20.2c-10.6,0-20-2.1-28.1-6.2c-8.1-4.2-14.3-10-18.8-17.6
		c-4.5-7.6-6.7-16.4-6.7-26.4c0-10.1,2.1-19.1,6.4-26.8c4.3-7.7,10.4-13.7,18.2-18c7.9-4.3,17-6.4,27.4-6.4c9.8,0,18.4,1.9,25.8,5.8
		c7.4,3.9,13.2,9.3,17.3,16.4c4.2,7.1,6.4,15.5,6.6,25.1l-66.4,16c1.8,4.3,4.5,7.6,8.1,10c3.5,2.4,7.7,3.6,12.5,3.6
		C276.2,131.9,284.5,127.9,291.9,119.8z M250.2,84c-3.6,3.9-5.7,9.3-6.1,16.4l36.9-9.2c-1.2-4.3-3.2-7.5-6.1-9.7
		c-2.8-2.2-6.3-3.3-10.5-3.3C258.5,78.2,253.8,80.1,250.2,84z"/>
</g>
</svg>
