<?xml version="1.0" encoding="UTF-8" standalone="no"?>
<!-- Created with Inkscape (http://www.inkscape.org/) -->

<svg
   xmlns:dc="http://purl.org/dc/elements/1.1/"
   xmlns:cc="http://creativecommons.org/ns#"
   xmlns:rdf="http://www.w3.org/1999/02/22-rdf-syntax-ns#"
   xmlns:svg="http://www.w3.org/2000/svg"
   xmlns="http://www.w3.org/2000/svg"
   xmlns:sodipodi="http://sodipodi.sourceforge.net/DTD/sodipodi-0.dtd"
   xmlns:inkscape="http://www.inkscape.org/namespaces/inkscape"
   width="28.419777mm"
   height="1.7215476mm"
   viewBox="0 0 100.7 6.099972"
   id="svg4388"
   version="1.1"
   inkscape:version="0.92.2 (5c3e80d, 2017-08-06)"
   sodipodi:docname="nwm-logo-bottom-text.svg">
  <defs
     id="defs4390" />
  <sodipodi:namedview
     id="base"
     pagecolor="#31ff1f"
     bordercolor="#666666"
     borderopacity="1.0"
     inkscape:pageopacity="1"
     inkscape:pageshadow="2"
     inkscape:zoom="6.6191648"
     inkscape:cx="65.674466"
     inkscape:cy="12.32909"
     inkscape:document-units="px"
     inkscape:current-layer="g5248"
     showgrid="false"
     fit-margin-top="0"
     fit-margin-left="0"
     fit-margin-right="0"
     fit-margin-bottom="0"
     inkscape:window-width="1920"
     inkscape:window-height="1017"
     inkscape:window-x="-8"
     inkscape:window-y="-8"
     inkscape:window-maximized="1" />
  <metadata
     id="metadata4393">
    <rdf:RDF>
      <cc:Work
         rdf:about="">
        <dc:format>image/svg+xml</dc:format>
        <dc:type
           rdf:resource="http://purl.org/dc/dcmitype/StillImage" />
        <dc:title></dc:title>
      </cc:Work>
    </rdf:RDF>
  </metadata>
  <g
     inkscape:label="Layer 1"
     inkscape:groupmode="layer"
     id="layer1"
     transform="translate(-275.34724,-541.78113)">
    <g
       id="g5248">
      <polygon
         transform="translate(168.54724,484.1811)"
         id="polygon4945"
         points="117.1,34.4 114.4,34.4 109.9,28.5 109.9,34.4 107,34.4 107,23.7 109.7,23.7 114.2,29.7 114.2,23.7 117.1,23.7 " />
      <polygon
         transform="translate(168.54724,484.1811)"
         id="polygon4947"
         points="127.8,34.4 118.9,34.4 118.9,23.7 127.7,23.7 127.7,26.2 122.1,26.2 122.1,27.8 127.1,27.8 127.1,30.3 122.1,30.3 122.1,32 127.8,32 " />
      <polygon
         transform="translate(168.54724,484.1811)"
         id="polygon4949"
         points="133.7,31.1 135.6,23.7 138.7,23.7 140.6,31.1 142.5,23.7 145.8,23.7 142.2,34.4 138.9,34.4 137.1,27.6 135.2,34.4 132,34.4 128.4,23.7 131.8,23.7 " />
      <polygon
         transform="translate(168.54724,484.1811)"
         id="polygon4951"
         points="154.2,31.1 156.1,23.7 159.2,23.7 161.1,31.1 163,23.7 166.3,23.7 162.7,34.4 159.4,34.4 157.6,27.6 155.7,34.4 152.5,34.4 148.9,23.7 152.3,23.7 " />
      <path
         id="path4953"
         d="m 338.54724,514.5811 h 2.6 l -1.3,-3.5 z m 4.1,4 -0.6,-1.7 h -4.3 l -0.6,1.7 h -3.3 l 4.6,-10.7 h 3.3 l 4.4,10.7 z"
         inkscape:connector-curvature="0" />
      <polygon
         transform="translate(168.54724,484.1811)"
         id="polygon4955"
         points="179.8,23.7 182.2,31.1 184.7,23.7 187.9,23.7 183.8,34.4 180.5,34.4 176.4,23.7 " />
      <polygon
         transform="translate(168.54724,484.1811)"
         id="polygon4957"
         points="197.7,34.4 188.8,34.4 188.8,23.7 197.5,23.7 197.5,26.2 192,26.2 192,27.8 197,27.8 197,30.3 192,30.3 192,32 197.7,32 " />
      <polygon
         transform="translate(168.54724,484.1811)"
         id="polygon4959"
         points="112.2,48.6 109.7,43.3 109.7,49.7 107,49.7 107,39 110.4,39 113.2,44.9 116.1,39 119.5,39 119.5,49.7 116.7,49.7 116.7,43.3 114.2,48.6 " />
      <polygon
         transform="translate(168.54724,484.1811)"
         id="polygon4961"
         points="130.2,49.7 121.3,49.7 121.3,39 130,39 130,41.4 124.5,41.4 124.5,43.1 129.5,43.1 129.5,45.5 124.5,45.5 124.5,47.2 130.2,47.2 " />
      <path
         id="path4963"
         d="m 306.74724,530.5811 c 0.4,-0.5 0.7,-1.2 0.7,-2.1 0,-0.9 -0.2,-1.5 -0.7,-2.1 -0.5,-0.5 -1.1,-0.8 -1.9,-0.8 h -1.5 v 5.7 h 1.6 c 0.8,0.1 1.4,-0.2 1.8,-0.7 m 1.2,-6.8 c 0.9,0.4 1.5,1.1 2,1.9 0.5,0.8 0.7,1.7 0.7,2.8 0,1.1 -0.2,2 -0.7,2.8 -0.5,0.8 -1.2,1.4 -2.1,1.9 -0.9,0.4 -1.9,0.7 -3.1,0.7 h -4.6 v -10.7 h 4.7 c 1.2,0 2.2,0.2 3.1,0.6"
         inkscape:connector-curvature="0" />
      <rect
         id="rect4965"
         height="10.7"
         width="3.2"
         y="523.18109"
         x="311.84723" />
      <path
         id="path4967"
         d="m 320.64724,529.7811 h 2.6 l -1.3,-3.5 z m 4,4.1 -0.6,-1.7 h -4.3 l -0.6,1.7 h -3.3 l 4.6,-10.7 h 3.3 l 4.4,10.7 z"
         inkscape:connector-curvature="0" />
      <path
         id="path4969"
         d="m 339.04724,528.2811 h 2.7 v 4.4 c -0.6,0.4 -1.3,0.7 -2.2,1 -0.9,0.3 -1.7,0.4 -2.4,0.4 -1.1,0 -2.1,-0.2 -2.9,-0.7 -0.9,-0.5 -1.6,-1.1 -2.1,-2 -0.5,-0.8 -0.7,-1.8 -0.7,-2.9 0,-1 0.3,-2 0.8,-2.8 0.5,-0.8 1.2,-1.5 2.1,-2 0.9,-0.5 1.9,-0.7 3.1,-0.7 0.8,0 1.6,0.1 2.4,0.4 0.8,0.3 1.5,0.7 2.1,1.2 l -1.8,2.2 c -0.4,-0.4 -0.8,-0.6 -1.3,-0.9 -0.5,-0.2 -1,-0.3 -1.4,-0.3 -0.5,0 -1,0.1 -1.4,0.4 -0.4,0.3 -0.7,0.6 -1,1 -0.2,0.4 -0.4,0.9 -0.4,1.5 0,0.5 0.1,1 0.4,1.5 0.2,0.4 0.6,0.8 1,1.1 0.4,0.3 0.9,0.4 1.4,0.4 0.5,0 1,-0.1 1.6,-0.4 z"
         inkscape:connector-curvature="0" />
      <path
         id="path4971"
         d="m 346.54724,528.5811 h 1.8 c 0.5,0 0.8,-0.1 1.1,-0.4 0.3,-0.3 0.4,-0.6 0.4,-1.1 0,-0.5 -0.1,-0.8 -0.4,-1.1 -0.3,-0.2 -0.6,-0.4 -1.1,-0.4 h -1.8 z m 3.1,5.3 -1.4,-2.9 h -1.7 v 2.9 h -3.2 v -10.7 h 5 c 1.4,0 2.5,0.3 3.3,1 0.8,0.7 1.2,1.6 1.2,2.8 0,0.8 -0.2,1.5 -0.5,2 -0.3,0.6 -0.8,1 -1.3,1.4 l 2.2,3.5 z"
         inkscape:connector-curvature="0" />
      <path
         id="path4973"
         d="m 358.44724,525.9811 c -0.4,0.3 -0.7,0.6 -1,1 -0.2,0.4 -0.4,0.9 -0.4,1.5 0,0.5 0.1,1 0.4,1.5 0.2,0.4 0.6,0.8 1,1.1 0.4,0.3 0.8,0.4 1.3,0.4 0.5,0 0.9,-0.1 1.3,-0.4 0.4,-0.3 0.7,-0.6 0.9,-1.1 0.2,-0.4 0.3,-0.9 0.3,-1.5 0,-0.5 -0.1,-1 -0.3,-1.5 -0.2,-0.4 -0.5,-0.8 -0.9,-1 -0.4,-0.3 -0.8,-0.4 -1.3,-0.4 -0.5,0 -0.9,0.1 -1.3,0.4 m 4.2,-2.3 c 0.9,0.5 1.6,1.1 2.1,2 0.5,0.8 0.8,1.8 0.8,2.8 0,1.1 -0.3,2 -0.8,2.9 -0.5,0.9 -1.2,1.5 -2.1,2 -0.9,0.5 -1.9,0.7 -3,0.7 -1.1,0 -2.1,-0.2 -3,-0.7 -0.9,-0.5 -1.6,-1.1 -2.1,-2 -0.5,-0.8 -0.8,-1.8 -0.8,-2.9 0,-1 0.3,-2 0.8,-2.8 0.5,-0.8 1.2,-1.5 2.1,-2 0.9,-0.5 1.9,-0.7 3,-0.7 1.1,0 2.1,0.2 3,0.7"
         inkscape:connector-curvature="0" />
      <path
         id="path4975"
         d="m 370.24724,530.8811 c 0.3,0.4 0.8,0.5 1.3,0.5 0.5,0 0.9,-0.2 1.3,-0.5 0.3,-0.4 0.5,-0.8 0.5,-1.5 v -6.2 h 3.2 v 6.3 c 0,0.9 -0.2,1.8 -0.6,2.4 -0.4,0.7 -1,1.2 -1.7,1.6 -0.7,0.4 -1.6,0.6 -2.6,0.6 -1,0 -1.9,-0.2 -2.6,-0.6 -0.8,-0.4 -1.3,-0.9 -1.7,-1.6 -0.4,-0.7 -0.6,-1.5 -0.6,-2.4 v -6.3 h 3.2 v 6.3 c -0.3,0.6 -0.1,1 0.3,1.4"
         inkscape:connector-curvature="0" />
      <path
         id="path4977"
         d="m 383.84724,528.1811 c 0.3,-0.3 0.4,-0.6 0.4,-1.1 0,-0.5 -0.1,-0.8 -0.4,-1.1 -0.3,-0.2 -0.6,-0.4 -1.1,-0.4 h -1.5 v 2.9 h 1.5 c 0.5,0.1 0.9,-0.1 1.1,-0.3 m 2.3,-4 c 0.8,0.7 1.1,1.6 1.1,2.8 0,1.3 -0.4,2.3 -1.1,3 -0.8,0.7 -1.8,1.1 -3.2,1.1 h -1.7 v 2.9 h -3.2 v -10.8 h 4.9 c 1.3,0 2.4,0.3 3.2,1"
         inkscape:connector-curvature="0" />
      <polygon
         transform="translate(168.54724,484.1811)"
         id="polygon4979"
         points="110.5,62.4 110,62.4 107.2,58.6 107.2,62.4 106.8,62.4 106.8,57.9 107.2,57.9 110.1,61.7 110.1,57.9 110.5,57.9 " />
      <path
         id="path4981"
         d="m 281.14724,543.6811 c -0.2,0.1 -0.3,0.3 -0.5,0.5 -0.1,0.2 -0.2,0.4 -0.2,0.7 0,0.3 0.1,0.5 0.2,0.7 0.1,0.2 0.3,0.4 0.5,0.5 0.2,0.1 0.4,0.2 0.7,0.2 0.2,0 0.5,-0.1 0.7,-0.2 0.2,-0.1 0.3,-0.3 0.5,-0.5 0.1,-0.2 0.2,-0.4 0.2,-0.7 0,-0.3 -0.1,-0.5 -0.2,-0.7 -0.1,-0.2 -0.3,-0.4 -0.5,-0.5 -0.2,-0.1 -0.4,-0.2 -0.7,-0.2 -0.3,0.1 -0.5,0.1 -0.7,0.2 m 1.5,-0.3 c 0.3,0.1 0.5,0.3 0.6,0.6 0.1,0.3 0.2,0.6 0.2,0.9 0,0.3 -0.1,0.6 -0.2,0.9 -0.1,0.3 -0.4,0.5 -0.6,0.6 -0.3,0.1 -0.6,0.2 -0.9,0.2 -0.3,0 -0.6,-0.1 -0.9,-0.2 -0.3,-0.1 -0.5,-0.4 -0.6,-0.6 -0.1,-0.3 -0.2,-0.6 -0.2,-0.9 0,-0.3 0.1,-0.6 0.2,-0.9 0.1,-0.3 0.4,-0.5 0.6,-0.6 0.3,-0.1 0.6,-0.2 0.9,-0.2 0.4,0 0.7,0.1 0.9,0.2"
         inkscape:connector-curvature="0" />
      <polygon
         transform="translate(168.54724,484.1811)"
         id="polygon4983"
         points="115.7,59 116.8,62 117.9,59 118.4,59 117,62.4 116.6,62.4 115.2,59 " />
      <path
         id="path4985"
         d="m 289.94724,544.6811 c 0,-0.4 -0.1,-0.6 -0.4,-0.9 -0.2,-0.2 -0.5,-0.3 -0.8,-0.3 -0.3,0 -0.6,0.1 -0.9,0.3 -0.2,0.2 -0.4,0.5 -0.4,0.9 z m 0.1,-1 c 0.3,0.3 0.4,0.8 0.4,1.4 h -2.9 c 0,0.4 0.2,0.7 0.4,0.9 0.2,0.2 0.5,0.3 0.9,0.3 0.2,0 0.4,0 0.6,-0.1 0.2,-0.1 0.3,-0.2 0.5,-0.3 l 0.2,0.2 c -0.2,0.2 -0.4,0.3 -0.6,0.4 -0.2,0.1 -0.5,0.1 -0.8,0.1 -0.3,0 -0.6,-0.1 -0.9,-0.2 -0.3,-0.1 -0.5,-0.4 -0.6,-0.6 -0.1,-0.3 -0.2,-0.6 -0.2,-0.9 0,-0.3 0.1,-0.6 0.2,-0.9 0.1,-0.3 0.3,-0.5 0.6,-0.6 0.3,-0.1 0.5,-0.2 0.9,-0.2 0.6,0 1,0.2 1.3,0.5"
         inkscape:connector-curvature="0" />
      <rect
         id="rect4987"
         height="4.9000001"
         width="0.40000001"
         y="541.78113"
         x="291.34723" />
      <path
         id="path4989"
         d="m 293.24724,546.1811 c 0.1,0.1 0.1,0.1 0.1,0.2 0,0.1 0,0.2 -0.1,0.2 -0.1,0.1 -0.1,0.1 -0.2,0.1 -0.1,0 -0.2,0 -0.2,-0.1 -0.1,-0.1 -0.1,-0.1 -0.1,-0.2 0,-0.1 0,-0.2 0.1,-0.2 0.1,-0.1 0.1,-0.1 0.2,-0.1 0.1,0 0.2,0 0.2,0.1"
         inkscape:connector-curvature="0" />
      <path
         id="path4991"
         d="m 296.94724,545.8811 c 0.3,0.3 0.6,0.4 1.1,0.4 0.5,0 0.8,-0.1 1.1,-0.4 0.3,-0.3 0.4,-0.6 0.4,-1.1 v -2.7 h 0.5 v 2.7 c 0,0.6 -0.2,1.1 -0.5,1.4 -0.3,0.3 -0.8,0.5 -1.4,0.5 -0.6,0 -1.1,-0.2 -1.4,-0.5 -0.3,-0.3 -0.5,-0.8 -0.5,-1.4 v -2.7 h 0.5 v 2.7 c -0.2,0.5 0,0.8 0.2,1.1"
         inkscape:connector-curvature="0" />
      <path
         id="path4993"
         d="m 303.94724,543.5811 c 0.2,0.2 0.4,0.6 0.4,1 v 2.1 h -0.4 v -2 c 0,-0.3 -0.1,-0.6 -0.3,-0.8 -0.2,-0.2 -0.4,-0.3 -0.7,-0.3 -0.4,0 -0.6,0.1 -0.8,0.3 -0.2,0.2 -0.3,0.5 -0.4,0.9 v 1.8 h -0.4 v -3.4 h 0.4 v 0.8 c 0.1,-0.3 0.3,-0.5 0.5,-0.6 0.2,-0.1 0.5,-0.2 0.8,-0.2 0.3,0 0.7,0.1 0.9,0.4"
         inkscape:connector-curvature="0" />
      <path
         id="path4995"
         d="m 305.44724,543.1811 h 0.4 v 3.4 h -0.4 z m 0.4,-1.2 c 0.1,0.1 0.1,0.1 0.1,0.2 0,0.1 0,0.2 -0.1,0.2 -0.1,0.1 -0.1,0.1 -0.2,0.1 -0.1,0 -0.2,0 -0.2,-0.1 -0.1,-0.1 -0.1,-0.1 -0.1,-0.2 0,-0.1 0,-0.2 0.1,-0.2 0.1,-0.1 0.1,-0.1 0.2,-0.1 0.1,0 0.2,0 0.2,0.1"
         inkscape:connector-curvature="0" />
      <path
         id="path4997"
         d="m 309.24724,546.0811 c 0.2,-0.1 0.3,-0.3 0.5,-0.5 0.1,-0.2 0.2,-0.4 0.2,-0.7 0,-0.3 -0.1,-0.5 -0.2,-0.7 -0.1,-0.2 -0.3,-0.4 -0.5,-0.5 -0.2,-0.1 -0.4,-0.2 -0.7,-0.2 -0.3,0 -0.5,0.1 -0.7,0.2 -0.2,0.1 -0.4,0.3 -0.5,0.5 -0.1,0.2 -0.2,0.4 -0.2,0.7 0,0.3 0.1,0.5 0.2,0.7 0.1,0.2 0.3,0.4 0.5,0.5 0.2,0.1 0.4,0.2 0.7,0.2 0.3,0 0.5,-0.1 0.7,-0.2 m 1,-2.9 v 4.7 h -0.4 v -2.1 c -0.1,0.3 -0.3,0.5 -0.6,0.6 -0.2,0.1 -0.5,0.2 -0.8,0.2 -0.3,0 -0.6,-0.1 -0.9,-0.2 -0.3,-0.1 -0.4,-0.4 -0.6,-0.6 -0.1,-0.3 -0.2,-0.6 -0.2,-0.9 0,-0.3 0.1,-0.6 0.2,-0.9 0.1,-0.3 0.3,-0.5 0.6,-0.6 0.3,-0.1 0.5,-0.2 0.9,-0.2 0.3,0 0.6,0.1 0.8,0.2 0.2,0.1 0.4,0.3 0.6,0.6 v -0.8 z"
         inkscape:connector-curvature="0" />
      <path
         id="path4999"
         d="m 314.54724,543.1811 v 3.4 h -0.4 v -0.8 c -0.1,0.3 -0.3,0.5 -0.5,0.6 -0.2,0.1 -0.5,0.2 -0.8,0.2 -0.4,0 -0.7,-0.1 -1,-0.4 -0.2,-0.2 -0.3,-0.6 -0.3,-1 v -2 h 0.4 v 2 c 0,0.3 0.1,0.6 0.3,0.8 0.2,0.2 0.4,0.3 0.7,0.3 0.4,0 0.7,-0.1 0.9,-0.4 0.2,-0.2 0.3,-0.6 0.3,-1 v -1.7 z"
         inkscape:connector-curvature="0" />
      <path
         id="path5001"
         d="m 318.34724,544.6811 c 0,-0.4 -0.1,-0.6 -0.4,-0.9 -0.2,-0.2 -0.5,-0.3 -0.8,-0.3 -0.3,0 -0.6,0.1 -0.9,0.3 -0.2,0.2 -0.4,0.5 -0.4,0.9 z m 0,-1 c 0.3,0.3 0.4,0.8 0.4,1.4 h -2.9 c 0,0.4 0.2,0.7 0.4,0.9 0.2,0.2 0.5,0.3 0.9,0.3 0.2,0 0.4,0 0.6,-0.1 0.2,-0.1 0.3,-0.2 0.5,-0.3 l 0.2,0.2 c -0.2,0.2 -0.4,0.3 -0.6,0.4 -0.2,0.1 -0.5,0.1 -0.8,0.1 -0.3,0 -0.6,-0.1 -0.9,-0.2 -0.3,-0.1 -0.5,-0.4 -0.6,-0.6 -0.1,-0.3 -0.2,-0.6 -0.2,-0.9 0,-0.3 0.1,-0.6 0.2,-0.9 0.1,-0.3 0.3,-0.5 0.6,-0.6 0.3,-0.1 0.5,-0.2 0.9,-0.2 0.6,0 1,0.2 1.3,0.5"
         inkscape:connector-curvature="0" />
      <path
         id="path5003"
         d="m 319.84724,546.1811 c 0.1,0.1 0.1,0.1 0.1,0.2 0,0.1 0,0.2 -0.1,0.2 -0.1,0.1 -0.1,0.1 -0.2,0.1 -0.1,0 -0.2,0 -0.2,-0.1 -0.1,-0.1 -0.1,-0.1 -0.1,-0.2 0,-0.1 0,-0.2 0.1,-0.2 0.1,-0.1 0.1,-0.1 0.2,-0.1 0.1,0 0.2,0 0.2,0.1"
         inkscape:connector-curvature="0" />
      <path
         id="path5005"
         d="m 325.64724,545.9811 c 0.2,-0.2 0.3,-0.4 0.3,-0.7 0,-0.3 -0.1,-0.5 -0.3,-0.6 -0.2,-0.2 -0.5,-0.2 -0.9,-0.2 h -1.4 v 1.7 h 1.4 c 0.4,0 0.7,0 0.9,-0.2 m -0.2,-2.1 c 0.2,-0.1 0.3,-0.3 0.3,-0.6 0,-0.3 -0.1,-0.4 -0.3,-0.6 -0.2,-0.1 -0.4,-0.2 -0.8,-0.2 h -1.4 v 1.6 h 1.4 c 0.4,0 0.6,-0.1 0.8,-0.2 m 0.4,-1.5 c 0.3,0.2 0.4,0.5 0.4,0.8 0,0.3 -0.1,0.5 -0.2,0.7 -0.2,0.2 -0.4,0.3 -0.6,0.4 0.3,0 0.6,0.2 0.8,0.4 0.2,0.2 0.3,0.5 0.3,0.8 0,0.4 -0.1,0.7 -0.4,0.9 -0.3,0.2 -0.7,0.3 -1.2,0.3 h -1.9 v -4.6 h 1.9 c 0.2,0 0.6,0.1 0.9,0.3"
         inkscape:connector-curvature="0" />
      <path
         id="path5007"
         d="m 328.34724,543.3811 c 0.2,-0.1 0.5,-0.2 0.8,-0.2 v 0.4 c -0.4,0 -0.7,0.1 -0.9,0.3 -0.2,0.2 -0.3,0.5 -0.4,0.9 v 1.8 h -0.4 v -3.4 h 0.4 v 0.8 c 0.1,-0.3 0.3,-0.5 0.5,-0.6"
         inkscape:connector-curvature="0" />
      <path
         id="path5009"
         d="m 331.34724,546.0811 c 0.2,-0.1 0.4,-0.3 0.4,-0.6 v -0.5 h -1.1 c -0.3,0 -0.5,0.1 -0.7,0.2 -0.2,0.1 -0.2,0.3 -0.2,0.5 0,0.2 0.1,0.4 0.2,0.5 0.2,0.1 0.3,0.2 0.6,0.2 0.4,-0.1 0.6,-0.2 0.8,-0.3 m 0.5,0.5 v -0.6 c -0.1,0.2 -0.3,0.4 -0.5,0.4 -0.2,0.1 -0.5,0.1 -0.8,0.1 -0.2,0 -0.4,0 -0.6,-0.1 -0.2,-0.1 -0.3,-0.2 -0.4,-0.4 -0.1,-0.2 -0.1,-0.3 -0.1,-0.5 0,-0.3 0.1,-0.5 0.3,-0.7 0.2,-0.2 0.5,-0.3 0.9,-0.3 h 1.2 v -0.3 c 0,-0.3 -0.1,-0.5 -0.2,-0.6 -0.2,-0.1 -0.4,-0.2 -0.7,-0.2 -0.4,0 -0.7,0.1 -1.1,0.4 l -0.2,-0.3 c 0.2,-0.2 0.5,-0.3 0.7,-0.4 0.2,-0.1 0.4,-0.1 0.7,-0.1 0.4,0 0.7,0.1 1,0.3 0.2,0.2 0.3,0.5 0.3,0.9 v 2.3 h -0.5 z"
         inkscape:connector-curvature="0" />
      <polygon
         transform="translate(168.54724,484.1811)"
         id="polygon5011"
         points="164.6,59 165.7,62 166.9,59 167.3,59 165.9,62.4 165.5,62.4 164.1,59 " />
      <path
         id="path5013"
         d="m 338.94724,544.6811 c 0,-0.4 -0.1,-0.6 -0.4,-0.9 -0.2,-0.2 -0.5,-0.3 -0.8,-0.3 -0.3,0 -0.6,0.1 -0.9,0.3 -0.2,0.2 -0.4,0.5 -0.4,0.9 z m 0,-1 c 0.3,0.3 0.4,0.8 0.4,1.4 h -2.9 c 0,0.4 0.2,0.7 0.4,0.9 0.2,0.2 0.5,0.3 0.9,0.3 0.2,0 0.4,0 0.6,-0.1 0.2,-0.1 0.3,-0.2 0.5,-0.3 l 0.2,0.2 c -0.2,0.2 -0.4,0.3 -0.6,0.4 -0.2,0.1 -0.5,0.1 -0.8,0.1 -0.3,0 -0.6,-0.1 -0.9,-0.2 -0.3,-0.1 -0.5,-0.4 -0.6,-0.6 -0.1,-0.3 -0.2,-0.6 -0.2,-0.9 0,-0.3 0.1,-0.6 0.2,-0.9 0.1,-0.3 0.3,-0.5 0.6,-0.6 0.3,-0.1 0.5,-0.2 0.9,-0.2 0.6,0 1,0.2 1.3,0.5"
         inkscape:connector-curvature="0" />
      <path
         id="path5015"
         d="m 340.44724,546.1811 c 0.1,0.1 0.1,0.1 0.1,0.2 0,0.1 0,0.2 -0.1,0.2 -0.1,0.1 -0.1,0.1 -0.2,0.1 -0.1,0 -0.2,0 -0.2,-0.1 -0.1,-0.1 -0.1,-0.1 -0.1,-0.2 0,-0.1 0,-0.2 0.1,-0.2 0.1,-0.1 0.1,-0.1 0.2,-0.1 0.1,0 0.1,0 0.2,0.1"
         inkscape:connector-curvature="0" />
      <polygon
         transform="translate(168.54724,484.1811)"
         id="polygon5017"
         points="178.6,62.4 178.1,62.4 175.3,58.6 175.3,62.4 174.8,62.4 174.8,57.9 175.3,57.9 178.1,61.7 178.1,57.9 178.6,57.9 " />
      <path
         id="path5019"
         d="m 351.04724,544.6811 c 0,-0.4 -0.1,-0.6 -0.4,-0.9 -0.2,-0.2 -0.5,-0.3 -0.8,-0.3 -0.3,0 -0.6,0.1 -0.9,0.3 -0.2,0.2 -0.4,0.5 -0.4,0.9 z m 0,-1 c 0.3,0.3 0.4,0.8 0.4,1.4 h -2.9 c 0,0.4 0.2,0.7 0.4,0.9 0.2,0.2 0.5,0.3 0.9,0.3 0.2,0 0.4,0 0.6,-0.1 0.2,-0.1 0.3,-0.2 0.5,-0.3 l 0.2,0.2 c -0.2,0.2 -0.4,0.3 -0.6,0.4 -0.2,0.1 -0.5,0.1 -0.8,0.1 -0.3,0 -0.6,-0.1 -0.9,-0.2 -0.3,-0.1 -0.5,-0.4 -0.6,-0.6 -0.1,-0.3 -0.2,-0.6 -0.2,-0.9 0,-0.3 0.1,-0.6 0.2,-0.9 0.1,-0.3 0.3,-0.5 0.6,-0.6 0.3,-0.1 0.5,-0.2 0.9,-0.2 0.6,0 1,0.2 1.3,0.5"
         inkscape:connector-curvature="0" />
      <polygon
         transform="translate(168.54724,484.1811)"
         id="polygon5021"
         points="186.9,62.4 185.9,59.5 184.8,62.4 184.4,62.4 183.1,59 183.6,59 184.6,62 185.7,59 186.1,59 187.2,62 188.2,59 188.7,59 187.4,62.4 " />
      <polygon
         transform="translate(168.54724,484.1811)"
         id="polygon5023"
         points="194.3,62.4 193.3,59.5 192.2,62.4 191.8,62.4 190.5,59 191,59 192,62 193.1,59 193.5,59 194.6,62 195.6,59 196.1,59 194.8,62.4 " />
      <path
         id="path5025"
         d="m 366.84724,546.0811 c 0.2,-0.1 0.4,-0.3 0.4,-0.6 v -0.5 h -1.1 c -0.3,0 -0.5,0.1 -0.7,0.2 -0.2,0.1 -0.2,0.3 -0.2,0.5 0,0.2 0.1,0.4 0.2,0.5 0.2,0.1 0.3,0.2 0.6,0.2 0.4,-0.1 0.6,-0.2 0.8,-0.3 m 0.5,0.5 v -0.6 c -0.1,0.2 -0.3,0.4 -0.5,0.4 -0.2,0.1 -0.5,0.1 -0.8,0.1 -0.2,0 -0.4,0 -0.6,-0.1 -0.2,-0.1 -0.3,-0.2 -0.4,-0.4 -0.1,-0.2 -0.1,-0.3 -0.1,-0.5 0,-0.3 0.1,-0.5 0.3,-0.7 0.2,-0.2 0.5,-0.3 0.9,-0.3 h 1.2 v -0.3 c 0,-0.3 -0.1,-0.5 -0.2,-0.6 -0.2,-0.1 -0.4,-0.2 -0.7,-0.2 -0.4,0 -0.7,0.1 -1.1,0.4 l -0.2,-0.3 c 0.2,-0.2 0.5,-0.3 0.7,-0.4 0.2,-0.1 0.4,-0.1 0.7,-0.1 0.4,0 0.7,0.1 1,0.3 0.2,0.2 0.3,0.5 0.3,0.9 v 2.3 h -0.5 z"
         inkscape:connector-curvature="0" />
      <polygon
         transform="translate(168.54724,484.1811)"
         id="polygon5027"
         points="200.1,59 201.2,62 202.3,59 202.8,59 201.4,62.4 201,62.4 199.6,59 " />
      <path
         id="path5029"
         d="m 374.44724,544.6811 c 0,-0.4 -0.1,-0.6 -0.4,-0.9 -0.2,-0.2 -0.5,-0.3 -0.8,-0.3 -0.3,0 -0.6,0.1 -0.9,0.3 -0.2,0.2 -0.4,0.5 -0.4,0.9 z m 0,-1 c 0.3,0.3 0.4,0.8 0.4,1.4 h -2.9 c 0,0.4 0.2,0.7 0.4,0.9 0.2,0.2 0.5,0.3 0.9,0.3 0.2,0 0.4,0 0.6,-0.1 0.2,-0.1 0.3,-0.2 0.5,-0.3 l 0.2,0.2 c -0.2,0.2 -0.4,0.3 -0.6,0.4 -0.2,0.1 -0.5,0.1 -0.8,0.1 -0.3,0 -0.6,-0.1 -0.9,-0.2 -0.3,-0.1 -0.5,-0.4 -0.6,-0.6 -0.1,-0.3 -0.2,-0.6 -0.2,-0.9 0,-0.3 0.1,-0.6 0.2,-0.9 0.1,-0.3 0.3,-0.5 0.6,-0.6 0.3,-0.1 0.5,-0.2 0.9,-0.2 0.6,0 1,0.2 1.3,0.5"
         inkscape:connector-curvature="0" />
      <path
         id="path5031"
         d="m 375.94724,546.1811 c 0.1,0.1 0.1,0.1 0.1,0.2 0,0.1 0,0.2 -0.1,0.2 -0.1,0.1 -0.1,0.1 -0.2,0.1 -0.1,0 -0.2,0 -0.2,-0.1 -0.1,-0.1 -0.1,-0.1 -0.1,-0.2 0,-0.1 0,-0.2 0.1,-0.2 0.1,-0.1 0.1,-0.1 0.2,-0.1 0,0 0.1,0 0.2,0.1"
         inkscape:connector-curvature="0" />
      <polygon
         transform="translate(168.54724,484.1811)"
         id="polygon5033"
         points="55.2,60.4 43,22.6 33.9,22.6 46.2,60.4 " />
      <polygon
         transform="translate(168.54724,484.1811)"
         id="polygon5035"
         points="82.4,60.4 70.1,22.6 61,22.6 73.3,60.4 " />
      <polygon
         transform="translate(168.54724,484.1811)"
         id="polygon5037"
         points="47.5,60.4 59.7,22.6 68.8,22.6 56.5,60.4 " />
      <polygon
         transform="translate(168.54724,484.1811)"
         id="polygon5039"
         points="20.3,60.4 32.6,22.6 41.7,22.6 29.4,60.4 " />
      <polygon
         transform="translate(168.54724,484.1811)"
         id="polygon5041"
         points="74.6,60.4 86.9,22.6 95.9,22.6 83.7,60.4 " />
    </g>
  </g>
  <style
     id="style4937"
     type="text/css">
	.st0{fill:#FFFFFF;}
	.st1{fill:#155092;}
</style>
</svg>
