<?xml version="1.0" encoding="utf-8"?>
<!-- Generator: Adobe Illustrator 23.0.6, SVG Export Plug-In . SVG Version: 6.00 Build 0)  -->
<svg version="1.1" id="Layer_1" xmlns="http://www.w3.org/2000/svg" xmlns:xlink="http://www.w3.org/1999/xlink" x="0px" y="0px"
	 viewBox="0 0 152 17" style="enable-background:new 0 0 152 17;" xml:space="preserve">
<style type="text/css">
	.st0{fill:#212121;}
</style>
<g>
	<path class="st0" d="M0,7.9C0,3.3,3.5,0,8.2,0c4.7,0,8.2,3.3,8.2,7.9s-3.5,7.9-8.2,7.9C3.5,15.9,0,12.6,0,7.9z M12.4,7.9
		c0-2.5-1.6-4.4-4.2-4.4C5.7,3.5,4,5.4,4,7.9c0,2.5,1.7,4.4,4.2,4.4C10.7,12.4,12.4,10.4,12.4,7.9z"/>
	<path class="st0" d="M27,15.6l-2.6-5.2h-2v5.2h-4V0.3h7.7c3.4,0,5.3,2.3,5.3,5.1c0,2.7-1.6,4.1-3.1,4.6l3.1,5.6H27z M27.4,5.3
		c0-1.1-0.9-1.6-1.9-1.6h-3.1V7h3.1C26.5,7,27.4,6.4,27.4,5.3z"/>
	<path class="st0" d="M33.6,15.6V0.3h4v15.3H33.6z"/>
	<path class="st0" d="M39.5,7.9c0-4.9,3.7-7.9,8.3-7.9c3.4,0,5.5,1.8,6.6,3.7l-3.3,1.7c-0.6-1-1.7-2-3.2-2c-2.5,0-4.3,1.9-4.3,4.4
		c0,2.5,1.8,4.4,4.3,4.4c1.1,0,2.3-0.5,2.8-0.9v-1.2h-3.4V6.8h7.4v6.1c-1.6,1.8-3.9,3-6.8,3C43.3,15.9,39.5,12.8,39.5,7.9z"/>
	<path class="st0" d="M56.2,7.9c0-4.7,3.5-7.9,8.2-7.9c4.7,0,8.2,3.3,8.2,7.9s-3.5,7.9-8.2,7.9C59.7,15.9,56.2,12.6,56.2,7.9z
		 M68.5,7.9c0-2.5-1.6-4.4-4.2-4.4c-2.5,0-4.2,1.9-4.2,4.4c0,2.5,1.7,4.4,4.2,4.4C66.9,12.4,68.5,10.4,68.5,7.9z"/>
	<path class="st0" d="M89,15.6l-2.6-5.2h-2v5.2h-4V0.3h7.7c3.4,0,5.3,2.3,5.3,5.1c0,2.7-1.6,4.1-3.1,4.6l3.1,5.6H89z M89.4,5.3
		c0-1.1-0.9-1.6-1.9-1.6h-3.1V7h3.1C88.6,7,89.4,6.4,89.4,5.3z"/>
	<path class="st0" d="M106.1,15.6l-0.8-2.2h-6l-0.8,2.2H94l5.8-15.3h5l5.8,15.3H106.1z M102.3,4.2l-2,5.8h3.9L102.3,4.2z"/>
	<path class="st0" d="M122.1,15.6l-6.5-8.9v8.9h-4V0.3h4.1l6.2,8.4V0.3h4v15.3H122.1z"/>
	<path class="st0" d="M128.7,15.6V0.3h6.4c4.8,0,8.3,2.9,8.3,7.7c0,4.8-3.5,7.7-8.3,7.7H128.7z M139.4,7.9c0-2.4-1.4-4.2-4.2-4.2
		h-2.5v8.4h2.5C137.8,12.1,139.4,10.2,139.4,7.9z"/>
	<path class="st0" d="M145.4,15.6V0.3h4v15.3H145.4z"/>
</g>
</svg>
