<?xml version="1.0" encoding="utf-8"?>
<!-- Generator: Adobe Illustrator 23.0.6, SVG Export Plug-In . SVG Version: 6.00 Build 0)  -->
<svg version="1.1" id="Layer_1" xmlns="http://www.w3.org/2000/svg" xmlns:xlink="http://www.w3.org/1999/xlink" x="0px" y="0px"
	 viewBox="0 0 177 22" style="enable-background:new 0 0 177 22;" xml:space="preserve">
<style type="text/css">
	.st0{fill:#212121;}
</style>
<g>
	<path class="st0" d="M0,12.4c0-4.7,3.5-7.9,8.2-7.9c4.7,0,8.2,3.3,8.2,7.9s-3.5,7.9-8.2,7.9C3.5,20.3,0,17.1,0,12.4z M12.4,12.4
		c0-2.5-1.6-4.4-4.2-4.4C5.7,8,4,9.9,4,12.4c0,2.5,1.7,4.4,4.2,4.4C10.7,16.8,12.4,14.9,12.4,12.4z"/>
	<path class="st0" d="M27,20.1l-2.6-5.2h-2v5.2h-4V4.7h7.7c3.4,0,5.3,2.3,5.3,5.1c0,2.7-1.6,4.1-3.1,4.6l3.1,5.6H27z M27.4,9.8
		c0-1.1-0.9-1.6-1.9-1.6h-3.1v3.3h3.1C26.5,11.5,27.4,10.9,27.4,9.8z"/>
	<path class="st0" d="M33.6,20.1V4.7h4v15.3H33.6z"/>
	<path class="st0" d="M39.5,12.4c0-4.9,3.7-7.9,8.3-7.9c3.4,0,5.5,1.8,6.6,3.7l-3.3,1.7c-0.6-1-1.7-2-3.2-2c-2.5,0-4.3,1.9-4.3,4.4
		c0,2.5,1.8,4.4,4.3,4.4c1.1,0,2.3-0.5,2.8-0.9v-1.2h-3.4v-3.5h7.4v6.1c-1.6,1.8-3.9,3-6.8,3C43.3,20.3,39.5,17.3,39.5,12.4z"/>
	<path class="st0" d="M56.2,12.4c0-4.7,3.5-7.9,8.2-7.9c4.7,0,8.2,3.3,8.2,7.9s-3.5,7.9-8.2,7.9C59.7,20.3,56.2,17.1,56.2,12.4z
		 M68.5,12.4c0-2.5-1.6-4.4-4.2-4.4c-2.5,0-4.2,1.9-4.2,4.4c0,2.5,1.7,4.4,4.2,4.4C66.9,16.8,68.5,14.9,68.5,12.4z"/>
	<path class="st0" d="M79.3,17.9l2.1-3.1c1.1,1.1,2.8,2,4.9,2c1.3,0,2.2-0.5,2.2-1.2c0-2-8.7-0.3-8.7-6.3c0-2.6,2.2-4.9,6.1-4.9
		c2.5,0,4.6,0.7,6.2,2.1l-2.2,3c-1.3-1.1-3-1.6-4.5-1.6c-1.2,0-1.7,0.4-1.7,1.1c0,1.9,8.7,0.5,8.7,6.2c0,3.1-2.3,5.1-6.4,5.1
		C83.1,20.3,80.9,19.3,79.3,17.9z"/>
	<path class="st0" d="M93.9,20.1v-3.2l6.5-8.7h-6.5V4.7h11.8v3.1l-6.6,8.8h6.7v3.4H93.9z"/>
	<path class="st0" d="M118.5,20.1l-0.8-2.2h-6l-0.8,2.2h-4.5l5.8-15.3h5l5.8,15.3H118.5z M115.1,3.3h-2.4l2.9-3.3h3.1L115.1,3.3z
		 M114.7,8.6l-2,5.8h3.9L114.7,8.6z"/>
	<path class="st0" d="M124.1,20.1V4.7h4v11.9h6.2v3.4H124.1z"/>
	<path class="st0" d="M136.1,20.1V4.7h4v11.9h6.2v3.4H136.1z"/>
	<path class="st0" d="M158.7,20.1l-0.8-2.2h-6l-0.8,2.2h-4.5l5.8-15.3h5l5.8,15.3H158.7z M155.3,3.3h-2.4l2.9-3.3h3.1L155.3,3.3z
		 M154.9,8.6l-2,5.8h3.9L154.9,8.6z"/>
	<path class="st0" d="M163.1,17.9l2.1-3.1c1.1,1.1,2.8,2,4.9,2c1.3,0,2.2-0.5,2.2-1.2c0-2-8.7-0.3-8.7-6.3c0-2.6,2.2-4.9,6.1-4.9
		c2.5,0,4.6,0.7,6.2,2.1l-2.2,3c-1.3-1.1-3-1.6-4.5-1.6c-1.2,0-1.7,0.4-1.7,1.1c0,1.9,8.7,0.5,8.7,6.2c0,3.1-2.3,5.1-6.4,5.1
		C166.8,20.3,164.7,19.3,163.1,17.9z"/>
</g>
</svg>
