<?xml version="1.0" encoding="utf-8"?>
<!-- Generator: Adobe Illustrator 22.1.0, SVG Export Plug-In . SVG Version: 6.00 Build 0)  -->
<svg version="1.1"
	 id="Objects" inkscape:version="0.92.2 (5c3e80d, 2017-08-06)" sodipodi:docname="Twitter-logo.svg" xmlns:cc="http://creativecommons.org/ns#" xmlns:dc="http://purl.org/dc/elements/1.1/" xmlns:inkscape="http://www.inkscape.org/namespaces/inkscape" xmlns:rdf="http://www.w3.org/1999/02/22-rdf-syntax-ns#" xmlns:sodipodi="http://sodipodi.sourceforge.net/DTD/sodipodi-0.dtd" xmlns:svg="http://www.w3.org/2000/svg"
	 xmlns="http://www.w3.org/2000/svg" xmlns:xlink="http://www.w3.org/1999/xlink" x="0px" y="0px" viewBox="0 0 81.4 81.4"
	 style="enable-background:new 0 0 81.4 81.4;" xml:space="preserve">
<style type="text/css">
	.st0{fill:#FFFFFF;}
	.st1{fill:#18171B;}
	.st2{fill-rule:evenodd;clip-rule:evenodd;fill:#18171B;}
</style>
<g id="pinterest">
	<circle id="XMLID_113_" class="st0" cx="40.7" cy="40.7" r="40.7"/>
	<g id="XMLID_70_">
		<path id="XMLID_142_" class="st1" d="M42.2,20.1c-11.6,0-17.4,8.1-17.4,14.8c0,4.1,1.5,7.7,4.9,9.1c0.6,0.2,1.1,0,1.2-0.6
			c0.1-0.4,0.4-1.5,0.5-1.9c0.2-0.6,0.1-0.8-0.4-1.3c-1-1.1-1.6-2.6-1.6-4.7c0-6,4.6-11.4,12.1-11.4c6.6,0,10.2,3.9,10.2,9.1
			c0,6.8-3.1,13-7.8,13c-2.6,0-4.5-2.5-3.9-5c0.7-3,2.5-6.3,2.5-8.4c0-1.9-1.2-3.1-3.6-3.1c-3,0-4.6,2.2-4.6,5.7
			c0,2.2,0.7,3.8,0.7,3.8s-2.9,11-3.2,12.9c-0.5,4-0.1,8.5-0.1,9c0,0.3,0.4,0.3,0.6,0.1c0.2-0.3,3.4-4,4.4-7.8
			c0.3-1.1,1.7-6.5,1.7-6.5c0.9,1.6,3.3,3.4,6,3.4c7.9,0,13.1-7.4,13.1-16.7C57.6,26.7,51.6,20.1,42.2,20.1z"/>
	</g>
</g>
</svg>
