<?xml version="1.0" encoding="utf-8"?>
<!-- Generator: Adobe Illustrator 22.1.0, SVG Export Plug-In . SVG Version: 6.00 Build 0)  -->
<svg version="1.1"
	 id="Objects" inkscape:version="0.92.2 (5c3e80d, 2017-08-06)" sodipodi:docname="Twitter-logo.svg" xmlns:cc="http://creativecommons.org/ns#" xmlns:dc="http://purl.org/dc/elements/1.1/" xmlns:inkscape="http://www.inkscape.org/namespaces/inkscape" xmlns:rdf="http://www.w3.org/1999/02/22-rdf-syntax-ns#" xmlns:sodipodi="http://sodipodi.sourceforge.net/DTD/sodipodi-0.dtd" xmlns:svg="http://www.w3.org/2000/svg"
	 xmlns="http://www.w3.org/2000/svg" xmlns:xlink="http://www.w3.org/1999/xlink" x="0px" y="0px" viewBox="0 0 81.4 81.4"
	 style="enable-background:new 0 0 81.4 81.4;" xml:space="preserve">
<style type="text/css">
	.st0{fill:#FFFFFF;}
	.st1{fill:#18171B;}
</style>
<g id="videa">
	<circle id="XMLID_1_" class="st0" cx="40.7" cy="40.7" r="40.7"/>
	<g>
		<path class="st1" d="M46.2,20.9C46.8,33,47.1,49,37.4,52.1l-2.1,0.6L35,50.2c-0.3-6.7,0.9-12.7,2.1-18.8c0.6-3.6,1.5-7.3,1.8-10.9
			h-13c-2.1,8.8-5.5,29.1-0.6,37c1.2,1.8,2.7,2.7,4.5,3c1.8,0.3,3.6,0.3,5.5,0.3l0,0c6.7,0,12.1-2.1,15.8-6.7
			c6.1-6.7,8.5-18.8,7.3-33.6H46.2V20.9z"/>
	</g>
</g>
</svg>
