<?xml version="1.0" encoding="UTF-8" standalone="no"?>
<svg width="72px" height="72px" viewBox="0 0 72 72" version="1.1" xmlns="http://www.w3.org/2000/svg" xmlns:xlink="http://www.w3.org/1999/xlink">
    <!-- Generator: Sketch 45.2 (43514) - http://www.bohemiancoding.com/sketch -->
    <title>icon:heart</title>
    <desc>Created with Sketch.</desc>
    <defs></defs>
    <g id="Symbols" stroke="none" stroke-width="1" fill="none" fill-rule="evenodd" stroke-linecap="round" stroke-linejoin="round">
        <g id="icon:heart" stroke="#EC7206" stroke-width="3">
            <path d="M7.418,37.016 C2.312,28.708 0.661,19.86 7.966,12.518 C11.627,8.839 16.424,7 21.222,7 C37.21,7 34.454,17.9 36.515,19.978 C38.574,17.9 35.818,7 51.807,7 C56.604,7 61.402,8.839 65.062,12.518 C82.898,30.442 47.35,57.342 38.461,63.461 C36.052,65.119 36.873,65.058 34.352,63.312 C30.953,60.959 24.085,55.866 17.645,49.483 M3,42.612 L17.576,42.612 L21.389,19.776 L25.8,42.612 L32.005,42.612 L35.818,53.429 C39.289,44.127 41.584,38.196 44.527,28.19 L48.769,42.612 L61.495,42.612" id="icon:"></path>
        </g>
    </g>
</svg>