<?xml version="1.0" encoding="utf-8"?>
<!-- Generator: Adobe Illustrator 22.1.0, SVG Export Plug-In . SVG Version: 6.00 Build 0)  -->
<svg version="1.1" id="Ebene_1" xmlns="http://www.w3.org/2000/svg" xmlns:xlink="http://www.w3.org/1999/xlink" x="0px" y="0px"
	 viewBox="0 0 188 81.1" style="enable-background:new 0 0 188 81.1;" xml:space="preserve">
<style type="text/css">
	.st0{fill:#E40428;}
	.st1{fill:#EF7D00;}
</style>
<title>Logo-location</title>
<rect x="65.4" y="58.4" width="115.4" height="0.4"/>
<g>
	<g>
		<path class="st0" d="M39.1,28.5c0,3.7-3,6.7-6.7,6.7s-6.7-3-6.7-6.7c0-3.7,3-6.7,6.7-6.7C36.1,21.8,39.1,24.8,39.1,28.5"/>
		<path class="st1" d="M54,10.6L42.4,22.1c1.2,1.9,1.9,4,1.9,6.4c0,6.6-5.4,12-12,12s-12-5.4-12-12c0-6.6,5.4-12,12-12
			c2.4,0,4.5,0.7,6.4,1.9L50.2,6.9c-4.9-4-11.1-6.5-17.9-6.5C16.8,0.4,4.3,13,4.3,28.5c0,15.5,12.6,28.1,28.1,28.1
			c15.5,0,28.1-12.6,28.1-28.1C60.4,21.7,58,15.5,54,10.6"/>
	</g>
	<path d="M82,38.2c-0.2-3.3-2.3-5.6-6.2-5.6c-5.6,0-7.5,4-7.5,8.4c0,4.4,1.6,8.8,7.4,8.8c3.6,0,5.8-2.1,6-5.2h3
		c-0.2,4.7-3.9,7.3-9,7.3c-3.2,0-6-0.9-8-3.1c-1.7-2-2.4-5.1-2.4-7.5c0-2.9,0.9-5.6,2.4-7.3c1.8-2.1,4.4-3.3,8-3.3
		c2.8,0,5.5,0.9,6.7,3.3v-3h2.3v7.3L82,38.2"/>
	<polyline points="88.3,51.6 88.3,49.6 91.6,49.6 91.6,32.8 88.3,32.8 88.3,30.9 98.2,30.9 98.2,32.8 94.4,32.8 94.4,49.5 
		103.1,49.5 103.1,44.8 105.8,44.8 105.8,51.6 88.3,51.6 	"/>
	<polyline points="109.6,30.9 118.9,30.9 118.9,32.8 115.6,32.8 115.6,49.6 118.9,49.6 118.9,51.6 109.6,51.6 109.6,49.6 
		112.8,49.6 112.8,32.8 109.6,32.8 109.6,30.9 	"/>
	<polyline points="122.3,51.6 122.3,49.6 125.6,49.6 125.6,32.8 122.3,32.8 122.3,30.9 129.7,30.9 139.9,48.9 139.9,32.8 
		136.7,32.8 136.7,30.9 145.6,30.9 145.6,32.8 142.4,32.8 142.4,51.6 138.5,51.6 128,33.1 128,49.6 131.4,49.6 131.4,51.6 
		122.3,51.6 	"/>
	<polyline points="149.1,30.9 158.4,30.9 158.4,32.8 155.2,32.8 155.2,49.6 158.4,49.6 158.4,51.6 149.1,51.6 149.1,49.6 
		152.4,49.6 152.4,32.8 149.1,32.8 149.1,30.9 	"/>
	<path d="M178.2,38.2c-0.2-3.3-2.3-5.6-6.2-5.6c-5.6,0-7.5,4-7.5,8.4c0,4.4,1.6,8.8,7.3,8.8c3.6,0,5.8-2.1,6-5.2h3
		c-0.2,4.7-3.9,7.3-9,7.3c-3.2,0-6-0.9-8-3.1c-1.7-2-2.4-5.1-2.4-7.5c0-2.9,0.9-5.6,2.4-7.3c1.8-2.1,4.4-3.3,8-3.3
		c2.8,0,5.5,0.9,6.7,3.3v-3h2.3v7.3L178.2,38.2"/>
	<path d="M76.6,12.1C76.5,9.1,75.5,7,72,7c-2.1,0-3.8,1.3-3.8,3.4c0,0.9,0.4,1.7,1.1,2.3c0.4,0.4,1.8,0.9,2.4,1l2.7,1
		c1.5,0.5,2.6,0.9,3.7,1.9c1,1,1.4,2.3,1.4,3.7c0,0.9-0.1,1.7-0.7,2.9c-1,1.8-3,2.9-5.8,2.9c-2.2,0-4.3-0.9-5.1-2.9v2.6h-2.3v-6.9
		h2.3c0.1,2.9,1.5,5.3,4.9,5.3c1.2,0,2.2-0.2,3-1c0.7-0.7,1-1.6,1-2.6c0-2.1-1.3-2.7-3.1-3.4l-3.4-1.3c-2.7-1-4.7-2-4.7-5.2
		c0-1.4,0.3-2.4,1-3.3c1.5-1.7,3-2.2,5.3-2.2c1.9,0,3.8,0.5,4.8,2.2V5.5h2.3v6.6L76.6,12.1"/>
	<path d="M97.2,12.7c-0.2-3.3-2.1-5.5-5.7-5.5c-5.2,0-7,3.9-7,8.3c0,4.3,1.5,8.7,6.8,8.7c3.3,0,5.4-2,5.6-5.1h2.7
		c-0.2,4.7-3.6,7.2-8.3,7.2c-2.9,0-5.5-0.9-7.4-3.1c-1.6-1.9-2.3-5-2.3-7.4c0-2.9,0.8-5.5,2.2-7.2c1.7-2.1,4.1-3.3,7.4-3.3
		c2.6,0,5.1,0.9,6.2,3.3v-3h2.1v7.2L97.2,12.7"/>
	<polyline points="101,25.8 101,23.9 104,23.9 104,7.4 101,7.4 101,5.5 109.6,5.5 109.6,7.4 106.6,7.4 106.6,14.5 116.8,14.5 
		116.8,7.4 113.8,7.4 113.8,5.5 122.3,5.5 122.3,7.4 119.4,7.4 119.4,23.9 122.3,23.9 122.3,25.8 113.8,25.8 113.8,23.9 116.8,23.9 
		116.8,16.6 106.6,16.6 106.6,23.9 109.6,23.9 109.6,25.8 101,25.8 	"/>
	<path d="M123.1,15.9c0-2.9,0.5-5.4,2.5-7.7c1.8-2.2,4.6-3,7.5-3c2.9,0,5.6,0.9,7.5,3.1c1.8,2.2,2.3,4.7,2.3,7.5
		c0,1.5-0.1,2.6-0.6,4c-0.4,1.2-1,2.4-1.8,3.4c-1.8,2.1-4.5,3-7.3,3C126.7,26.1,123.1,21.8,123.1,15.9 M125.9,15.6
		c0,2,0.3,4.4,1.5,6c1.4,1.8,3.3,2.7,5.7,2.7c2.4,0,4.2-1,5.4-2.9c1.1-1.7,1.5-3.9,1.5-5.8c0-4.3-1.8-8.7-7.1-8.7
		C127.8,7,125.9,11.4,125.9,15.6z"/>
	<polyline points="143.1,25.8 143.1,23.9 146.1,23.9 146.1,7.4 143.1,7.4 143.1,5.5 160.1,5.5 160.1,11.6 157.8,11.6 157.8,7.4 
		148.7,7.4 148.7,14.5 153.1,14.5 153.1,11.4 155.2,11.4 155.2,19.4 153.1,19.4 153.1,16.4 148.7,16.4 148.7,23.9 157.8,23.9 
		157.8,19.5 160.1,19.5 160.1,25.8 143.1,25.8 	"/>
	<polyline points="162,25.8 162,23.9 165,23.9 165,7.4 162,7.4 162,5.5 168.8,5.5 178.2,23.2 178.2,7.4 175.2,7.4 175.2,5.5 
		183.5,5.5 183.5,7.4 180.5,7.4 180.5,25.8 176.9,25.8 167.2,7.6 167.2,23.9 170.3,23.9 170.3,25.8 162,25.8 	"/>
</g>
<g>
	<path d="M74.3,81v-7H67v7h-1.6V65.7H67v6.8h7.3v-6.8h1.6V81L74.3,81L74.3,81z"/>
	<path d="M81.4,81V65.7h9.5v1.5h-7.9v5.4h6.7V74h-6.7v5.5h7.9V81H81.4z"/>
	<path d="M95.4,81V65.7H97v13.8h7.8V81H95.4z"/>
	<path d="M108.7,81V65.7h1.6v13.8h7.8V81H108.7z"/>
	<path d="M130,79.5c-1,1-2.4,1.6-3.9,1.6c-1.5,0-2.9-0.6-3.9-1.6c-1.4-1.4-1.4-2.9-1.4-6.2c0-3.2,0-4.7,1.4-6.2c1-1,2.4-1.6,3.9-1.6
		c1.5,0,2.9,0.6,3.9,1.6c1.4,1.4,1.4,2.9,1.4,6.2C131.4,76.6,131.4,78.1,130,79.5z M128.7,68.1c-0.7-0.7-1.6-1.1-2.6-1.1
		c-1,0-2,0.4-2.6,1.1c-1,1-1.1,2-1.1,5.2s0.1,4.2,1.1,5.2c0.7,0.7,1.6,1.1,2.6,1.1c1,0,2-0.4,2.6-1.1c1-1,1.1-2,1.1-5.2
		C129.8,70.1,129.7,69.1,128.7,68.1z"/>
	<path d="M147.6,74.7V81h-2.3v-6.3l-4.6-9h2.5l3.2,6.7l3.2-6.7h2.5L147.6,74.7z"/>
	<path d="M164.1,79.5c-1.1,1.1-2.4,1.6-4,1.6c-1.6,0-3-0.6-4-1.6c-1.5-1.5-1.5-3.2-1.5-6.1s0-4.6,1.5-6.1c1.1-1.1,2.4-1.6,4-1.6
		c1.6,0,3,0.6,4,1.6c1.5,1.5,1.5,3.2,1.5,6.1S165.6,78,164.1,79.5z M162.3,68.6c-0.5-0.6-1.4-0.9-2.3-0.9c-0.9,0-1.7,0.4-2.3,0.9
		c-0.8,0.8-0.9,1.7-0.9,4.7c0,3.1,0.2,3.9,0.9,4.7c0.5,0.6,1.4,0.9,2.3,0.9s1.7-0.4,2.3-0.9c0.8-0.8,0.9-1.7,0.9-4.7
		C163.2,70.3,163.1,69.4,162.3,68.6z"/>
	<path d="M175.3,81.1c-3.1,0-5.5-2.1-5.5-5.3V65.7h2.3v10c0,2,1.2,3.3,3.2,3.3c1.9,0,3.2-1.3,3.2-3.3v-10h2.3v10.1
		C180.8,79,178.4,81.1,175.3,81.1z"/>
</g>
</svg>
