<svg xmlns="http://www.w3.org/2000/svg" style="enable-background:new 0 0 512 512" xml:space="preserve" width="512" height="512"><path style="fill:#deecf1" d="M507.5 422.601 420 335.099l42.599-42.299c3.6-3.6 5.101-9.001 3.9-14.101-1.199-5.099-4.799-9-9.901-10.8l-254.398-84.9c-5.4-1.8-11.4-.3-15.3 3.9-4.199 3.9-5.7 9.901-3.9 15.3l84.9 254.4c1.8 5.101 5.7 8.701 10.8 9.901 5.101 1.199 10.501-.3 14.101-3.9l42.298-42.6 87.5 87.5c6 6 15.601 6 21.301 0l63.6-63.6c6-5.7 6-15.299 0-21.299z"/><path style="fill:#ffda2d" d="M195 120c-8.291 0-15-6.709-15-15V15c0-8.291 6.709-15 15-15s15 6.709 15 15v90c0 8.291-6.709 15-15 15zM141.899 141.899c-5.7 6-15.3 6-20.999 0L57 78.299c-5.7-5.7-5.7-15.3 0-21.301 5.999-5.7 15.599-5.7 21.299 0l63.6 63.9c6.001 5.701 6.001 15.301 0 21.001z"/><path style="fill:#fdbf00" d="M57.114 332.886c-5.859-5.859-5.859-15.352 0-21.211l63.647-63.647c5.859-5.859 15.352-5.859 21.211 0s5.859 15.352 0 21.211l-63.647 63.647c-5.859 5.859-15.351 5.859-21.211 0z"/><path style="fill:#ffda2d" d="M248.027 141.973c-5.859-5.859-5.859-15.352 0-21.211l63.647-63.647c5.859-5.859 15.352-5.859 21.211 0s5.859 15.352 0 21.211l-63.647 63.647c-5.859 5.859-15.351 5.859-21.211 0z"/><path style="fill:#fdbf00" d="M105 210H15c-8.291 0-15-6.709-15-15s6.709-15 15-15h90c8.291 0 15 6.709 15 15s-6.709 15-15 15zM57.001 56.999 141.9 141.9c-5.7 6-15.3 6-20.999 0l-63.9-63.6c-5.7-5.701-5.7-15.301 0-21.301z"/><path style="fill:#c5d3dd" d="m475.7 475.7-31.8 31.8c-5.7 6-15.3 6-21.301 0l-87.5-87.5-42.299 42.599c-3.6 3.6-9 5.099-14.101 3.9-5.099-1.199-9-4.799-10.8-9.901l-84.9-254.398c-1.8-5.4-.298-11.4 3.9-15.3L475.7 475.7z"/></svg>