<?xml version="1.0" encoding="UTF-8"?>
<svg width="343px" height="164px" viewBox="0 0 343 164" version="1.1" xmlns="http://www.w3.org/2000/svg" xmlns:xlink="http://www.w3.org/1999/xlink">
    <!-- Generator: Sketch 52.2 (67145) - http://www.bohemiancoding.com/sketch -->
    <title>DM-LOGO</title>
    <desc>Created with Sketch.</desc>
    <g id="Symbols" stroke="none" stroke-width="1" fill="none" fill-rule="evenodd">
        <g id="NEW-Logo">
            <g id="DM-LOGO">
                <path d="M0,0 L-7.27595761e-12,163.965003 L167.247901,164 C314.086326,164 343,63.7747223 343,0 L199.433652,0 C195.878569,28.3436544 184.256298,37.2829146 152.18655,37.2829146 L128.161989,37.2949136 L128.090988,0 L0,0 Z" id="Fill-1" fill="#FF1978"></path>
                <path d="M32.8621119,105 L14,105 L14,59 L32.8621119,59 C48.0966227,59 57,69.9744712 57,81.9340888 C57,93.8947127 48.4268636,105 32.8621119,105 Z M28,71 L28,94 L32.0905475,94 C38.9084582,94 43,88.5144114 43,82.5005061 C43,76.4855886 38.9084582,71 32.0905475,71 L28,71 Z" id="D" fill="#FEFEFE"></path>
                <path d="M59,82.000498 C59,69.5122316 67.6080378,58 82.4687084,58 C97.3929105,58 106,69.4474946 106,82.000498 C106,94.5525054 97.3929105,106 82.4687084,106 C67.6080378,106 59,94.5525054 59,82.000498 Z M71,82.0005133 C71,88.2348261 75.2190459,94 82.499479,94 C89.7132243,94 94,88.2348261 94,82.0005133 C94,75.6984473 89.7132243,70 82.499479,70 C75.2190459,70 71,75.6984473 71,82.0005133 Z" id="O" fill="#FEFEFE"></path>
                <polygon id="N1" fill="#FEFEFE" points="121.461246 105 121.461246 78.6485901 136.280112 105 150 105 150 59 136.474341 59 136.474341 86.2711483 121.719888 59 108 59 108 105"></polygon>
                <polygon id="N2" fill="#FEFEFE" points="167.461246 105 167.461246 78.6485901 182.280112 105 196 105 196 59 182.474341 59 182.474341 86.2711483 167.719888 59 154 59 154 105"></polygon>
                <polygon id="M" fill="#FEFEFE" points="23.8535945 142 23.8535945 120.920161 30.4388126 142 37.9509289 142 44.1464055 120.920161 44.1464055 142 54 142 54 108 41.4141761 108 34.1464055 129.954521 26.9271002 108 14 108 14 142"></polygon>
                <path d="M106.598114,142 L93,142 L93,108 L106.598114,108 C117.58132,108 124,116.11142 124,124.951742 C124,133.791058 117.818502,142 106.598114,142 Z M103,117 L103,134 L105.999642,134 C111.000358,134 114,129.945158 114,125.5 C114,121.054842 111.000358,117 105.999642,117 L103,117 Z" id="D2" fill="#FEFEFE"></path>
                <polygon id="E" fill="#FEFEFE" points="148 142 148 134.422438 136.146312 134.422438 136.146312 128.74002 148 128.74002 148 121.503282 136.146312 121.503282 136.146312 115.577562 148 115.577562 148 108 126 108 126 142"></polygon>
                <path d="M159.871672,142 L150,142 L150,108 L165.947151,108 C173.5415,108 178.430178,113.77994 178.430178,120.676858 C178.430178,125.291561 176.104716,129.419658 172.354699,131.654622 L179,142 L167.371705,142 L161.723592,133.305459 L159.871672,133.305459 L159.871672,142 Z M160,116 L160,126 L164.324121,126 C167.140264,126 169,123.727368 169,121 C169,118.272632 167.190217,116 164.374075,116 L160,116 Z" id="R" fill="#FEFEFE"></path>
                <polygon id="N3" fill="#FEFEFE" points="190.935543 142 190.935543 122.522739 201.873637 142 212 142 212 108 202.016999 108 202.016999 128.156899 191.126363 108 181 108 181 142"></polygon>
                <path d="M223.945708,142 L213,142 L225.55081,108 L236.156163,108 L249,142 L237.712931,142 L236.545859,138.065941 L225.113787,138.065941 L223.945708,142 Z M230.499511,118 L227,131 L234,131 L230.499511,118 Z" id="A" fill="#FEFEFE"></path>
                <path d="M56,125.000373 C56,115.634174 62.4102409,107 73.4766977,107 C84.5904652,107 91,115.585621 91,125.000373 C91,134.414379 84.5904652,143 73.4766977,143 C62.4102409,143 56,134.414379 56,125.000373 Z M65,125.000385 C65,129.67612 68.1184252,134 73.4996149,134 C78.8315136,134 82,129.67612 82,125.000385 C82,120.273835 78.8315136,116 73.4996149,116 C68.1184252,116 65,120.273835 65,125.000385 Z" id="O2" fill="#FFFFFF"></path>
                <path d="M212.594277,105 L198,105 L214.734413,59 L228.874885,59 L246,105 L230.950575,105 L229.394478,99.6774499 L214.151716,99.6774499 L212.594277,105 Z M221.499371,72 L217,90 L226,90 L221.499371,72 Z" id="A2" fill="#FFFFFF"></path>
            </g>
        </g>
    </g>
</svg>