<svg id="Layer_1" data-name="Layer 1" xmlns="http://www.w3.org/2000/svg" viewBox="0 0 159.77 108.07"><defs><style>.cls-1{fill:#fff}</style></defs><title>orzel</title><path d="M13.4 7.19A6.62 6.62 0 0 0 16.6 11a2.79 2.79 0 0 1 1.85-1.07c.73 1.85.9 2.61 2.49 4.1 5.08 1.56 11.83 3 16.57 5.36a5 5 0 0 1 3-4.62c-1.07.87-1.92 1.81-1.47 3.34 1.1 3.77 7.2 5.94 11.32 7.69A63.59 63.59 0 0 1 67 35.89c5.83 3.52 8.31 6.82 7.82 11.6a2.78 2.78 0 0 1-.88 2c-1 1-2.3.42-2.41 1.9 3.71.28 7.25 1 10.2 3.16 2.73-.48 4.74-2.77 7.25-3.76a10 10 0 0 0 3.19-9.19 3.81 3.81 0 0 0-1.83-3.09c-3.53.19-8 1.1-10.41-1.83a1 1 0 0 1-.16-.59c1 1.37 3.07 1.2 4.58.83l.65-.31c-2.66-.43-4-4-7-3.61a1.54 1.54 0 0 0-.28 1.56 3.16 3.16 0 0 1-1.19-3.53c.37-1.18 1.34-2.5 4.32-2.48 1.09 0 1.91.08 1.91.08A2.26 2.26 0 0 1 83 27c.56-.83 2-1.16 3.38-1.15-.27-.3-.45-.61-.14-.93s1.19 0 .85-1c-.56-1.41-1.88-2.91-.69-4.32 1.37-1.67 3.81-.64 5.58-1.06a3 3 0 0 0 .47 1.26 2.28 2.28 0 0 0 1.85-.94l-1-.24c.07-.37.14-.85.23-1.27 0 0 .66.16 1.06.22.08-.32.15-.73.25-1.14.61.18 1 .21 1.34.32l-.12.48c-.06.23-.08.35-.14.65l1 .24-.35 1.17-.82-.14c-.15.51.37 1.15.73 1.62.52-.14.92-.82 1.33-1.11 1.24 1.23 5.15 1.42 3.95 4.29-.5 1.2-2.18 1.78-2.74 2.78 0 .32.38.6.28.95s-.52.57-.78.32c-.6.36.23.73 0 1a7.16 7.16 0 0 1 1.24 1.1 3.57 3.57 0 0 0 2.51-.65c.6-.49.14-1.47 0-1.86a2.75 2.75 0 0 1 1.11 2.88c-.2.89-1.34 1.54-2.16 1.81-.12.56.15 1 .64 1.63a.82.82 0 0 0 .52-.26 3.3 3.3 0 0 1 0 .64 2.13 2.13 0 0 0 0 .56c3.19 5.44 4.69 11.52 5.54 18a1.76 1.76 0 0 0 1.15 1.24c2-.16 3.27-2.3 5.31-2.9-.07-1.34-1.68-.45-2.64-1.37-1.45-1.39-1.43-3.64-1.05-5.63.73-3.9 4.92-6.46 8.52-8.37 2.86-2.26 4-4 7.62-5.75 5.29-2.55 10.85-4.09 15.36-7.63a5.43 5.43 0 0 0 1.65-1.93 2.38 2.38 0 0 0 .16-2 4.55 4.55 0 0 0-1.45-1.42 3.7 3.7 0 0 1 2.45 3.78c4.63-1.42 9.71-2.4 14.34-4.05a6 6 0 0 0 3.66-4.15 2.93 2.93 0 0 1 1.89 1.1 8.22 8.22 0 0 0 2.57-3.4c.13-.42.27-1.09 0-1.42s-.53-.29-.53-.29c.65-.31 1.59.28 2.11 1.09a6.05 6.05 0 0 1 .54 4.11c.07.52.26.37.58 1.18.82 2.79.16 4.29-2.33 6.21-1.48 1.06-2 .51-1.18 1.66a3 3 0 0 1 .48 2.37c-.46 2.1-2.79 2.51-3 4.42a4 4 0 0 1-.44 3.84A19.93 19.93 0 0 1 160 37a4.35 4.35 0 0 1-.57 3.88c-1.41 2.06-3.78 3.25-6.07 4.16a2.8 2.8 0 0 1-1.65 3.62 2.76 2.76 0 0 1-.13 2.6A6.1 6.1 0 0 1 149 53.2a1.81 1.81 0 0 1 .84 1.54c-.09 1.34-.57 1.87-2.46 2.26-1.35.28-3.3 0-3.81 1 1.08.28 2.55-.11 2.93 1.27a2.23 2.23 0 0 1-1.14 2c-1.62 1.12-4.17.5-6 0a.79.79 0 0 0-.6.7c1.73.8 5 1.23 3.84 3.63-.1.14-.7 1.5-3.85.45-.74-.25-1.52-.71-2.34-1.09l-.64.53a6.46 6.46 0 0 1 2.23 2.8 2.07 2.07 0 0 1-1.1 2.15 5.26 5.26 0 0 1-4-.22c-.11-.1-.32.06-.57.41.31.67.9 1.09.38 1.92a2.48 2.48 0 0 1-1.68 1 4.08 4.08 0 0 1-3.8-1.55c-.24-.11-.23 0-.52 0 .19 1 1.52 1.82 1 3.24a2.62 2.62 0 0 1-2.32 1.52 8 8 0 0 1-2.48-.39 4 4 0 0 1-2.14 1.29 4.78 4.78 0 0 1-3.27-.92 4.77 4.77 0 0 1-5.88.44c-.15.79 0 1.46-1.26 2.06a3 3 0 0 1-2.3.26c-1-.39-1.46-1.24-1.88-.48a3.3 3.3 0 0 1-3.51.79 2.27 2.27 0 0 1-.79-.52c-.11 0-.88.77-2.11 1.64-.49.32-.91.36 0 .71 1.53.58 2.23 2.49 4 3.83A5.72 5.72 0 0 0 105 87c1.93.66 5.07 2.54 7.25 2.67-.13-2.85-1.64-7 1.06-9.15 1.55-1 3.06-1.82 4.9-1.34a3 3 0 0 1 1.67 1.14 3 3 0 0 0-2.22-.58 2.6 2.6 0 0 0-2.13.82 1.61 1.61 0 0 1 .21 1.9 3.65 3.65 0 0 1-1.93 1.59c.05.34.58.55.76.89.81 1.72-2.54 1.86-.47 3.25 1.39-2.49 3.42-5.9 6.64-6 1.78 0 3.61.09 4.36 2.22.32.91.11 1.13.11 1.13a3.49 3.49 0 0 0-1.47-1.92 2.22 2.22 0 0 0-2.31.13 1.11 1.11 0 0 1-.94 1.27 13.2 13.2 0 0 1-2.61 0 2.73 2.73 0 0 1-1.3 3.14 1.31 1.31 0 0 1-.83.1c.36.73-.1 1.69-.39 2.43 2 .79 4.59.65 6.71.49.7.12 1.49.28 1.8 1a4.16 4.16 0 0 1 .45 3.54 2.76 2.76 0 0 1-2.37 1.6 3.25 3.25 0 0 0 1.45-1.5 1.3 1.3 0 0 0-.46-1.64 1 1 0 0 1-1.13.19c-.55-1.59-1.83.12-2.84-.56-1-2.06-3.13.44-4.21-1.57-1 .32-1.54 1.37-2.45 1.77-1.17.54-1.79-.86-2.47.11a2.19 2.19 0 0 1-2.43 1.14c-.26-.17-.4-.6-.75-.29a1.51 1.51 0 0 0-.4 1.87 5.26 5.26 0 0 0 .93 1.65 3.9 3.9 0 0 1-1.77-2.16c-.42-1.64.34-2.3.9-3.34l.52-.53a7.84 7.84 0 0 0-1.71-.49l-.17.44c-1.24-1.11-3.2-1.42-4.74-2.21-1.78.42-3.86 1.1-4.48 3.06a1.38 1.38 0 0 1-1.13-.15l-3.06 1.09c-.18-.26.23-.57-.16-.73a3.89 3.89 0 0 1-3.6-1.47l-.32-.69a2.94 2.94 0 0 0 2.86 1.68 4.71 4.71 0 0 0 4.15-1.8c-3.11-.9-7.11-.58-9.16-3.62A11.88 11.88 0 0 0 84 86.21l-3.35.25.25.54c.34.57.24 1.27.83 1.84s1.12.59 1.72 1.14c.17.16 0 1 .2 1.18 5.42 2.93 11.2 6.82 11 7.62.56-.22 1 .14 1.34-.6.75-1.79-.2-4.29 2-5.36a5 5 0 0 1 3.93 0 2.72 2.72 0 0 1 1.54 1.74 3.52 3.52 0 0 1 0 2.22 3.71 3.71 0 0 0-1.75-2.87c-.17-.21-.65-.07-.6.23a1.42 1.42 0 0 1-.5 1.35 2.33 2.33 0 0 1-2 0c.64 1.94-1.91 2.93-2 4.71l-.73.75a8.25 8.25 0 0 0 3.58.33c1.4-.15 3.12-1.47 4.48-.29 1.09.95 2.17 2 1.76 3.52-.16.44-.21.74-.64 1a2.29 2.29 0 0 0 .1-1.78 1.8 1.8 0 0 0-1.28-1 1.26 1.26 0 0 1-.73.83c-1 .41-1.71-1-2.72-1.08 0 .69-.77.92-1.24 1.06-1.43.37-2.43-2.12-3.7-.46a3.4 3.4 0 0 0 1 1.74c1.11 1.32 3 1.79 3.3 3.56-.19 1.52.53 3-.58 4.16a2.46 2.46 0 0 1-3.4.15 2.06 2.06 0 0 0 2.86-.74 1 1 0 0 0-.2-1.25 2.46 2.46 0 0 1-2.24-1.3c-.36-.73 0-2.08-1.3-2.06a3.2 3.2 0 0 1-1.27-3.18c-2.63-3.73-5.72 1.61-8.39-1.76a3.62 3.62 0 0 1-2.52.26c-1.09-.29.18-2.19-1.29-1.3-1.12.67-1.1 1.6-1 2.81-.66-1-1-2.62-.06-3.42 3-2.56 6.87 1.23 9.94.87-.27-.47-1.5-.92-.77-1.67-.19-.73-.93-.89-1.46-1.23a29 29 0 0 0-9.06-2.83A6.52 6.52 0 0 1 78 97c-.22-.17 0-.48-.31-.6a5 5 0 0 0-.27 2.08c-.65.1-1-.54-1.58-.71a11.15 11.15 0 0 1-4.53 3.23c.25-.65.81-1.18.7-2-2.31 0-4.78.17-6.17-1.84a2 2 0 0 1-.26-2.2 4.58 4.58 0 0 1 .81-1.05c-.55.7-1.15 1.53-.7 2.44.95 1.75 2.83 1.62 4.73 1.48C72 97.41 74.54 96.6 75 94.6c-4.22-1-7.66-1.37-10.63-5.67-2.43.39-2.55 3.59-4.79 4.66a3.58 3.58 0 0 1-3.44-.24l-.3-.35c.61.42 1.39.82 2.1.31a3.18 3.18 0 0 0 1.7-2.45 7.49 7.49 0 0 1-3.27-2.54l-2.17.25c-2 1.81-4.34 3.58-7.1 2.63.48-.14 1.78-.12 2.21-.86-.43-.08-1.26.2-1.7-.19a6 6 0 0 0 2.59-1.38c-.41-.82-1.57-.11-2.19-.62-1.4-.41-3.14-.55-3.91-1.88.17-.05.44.08.52-.14-2.8-1.12-7.45-1.37-8-5.15-.24-1.6.8-2.58 2.41-3.16-.67.44-2.33 1.39-1.59 2.5 1.53 2.3 5.46 3.14 6.54 3.14s.74-.23.74-.23a7.93 7.93 0 0 0-.63-1c1.85 1 4.14.39 6 .49l-.53-.39c5.8.59 9.33-3.8 15.55-4.48a3.47 3.47 0 0 1-2.31-1.59c-1.38.87-3.71 1.73-5.07 0a2.13 2.13 0 0 1-.12-2.26l.24-.47-.47-.35c-1.8 1-3.74 2.44-5.5.77a1.89 1.89 0 0 1-.27-1.79 3.84 3.84 0 0 1 1-1.4c0-.14-.23-.25-.46-.38-1.65.32-4.65 1.83-6.18-.77-.82-1.39.94-2.79 2.06-3.62-.61-.78-1.46-.38-2.87 0-1.72.5-3.08.82-3.92-.16A1.75 1.75 0 0 1 40.9 64c.37-1.17 2.52-1.4 3.86-1.94.13-.3-.22-.74-.76-.86-2.87 0-6.35 1.48-7.62-1.62a1.28 1.28 0 0 1 .78-1.58 14.65 14.65 0 0 1 2.42-.5c.17-.35-.29-.58-1.2-.72-2.36-.35-5.18-.19-5.62-2.68a1.82 1.82 0 0 1 .74-1.83c-1.37-.59-2.7-1.41-3-3a2 2 0 0 1 .28-1.62c-1.36-1.05-2.16-2.48-1.79-3.78-3.38-1.59-7.38-4.2-7.46-8.71-2.17-2-4.91-4.64-4.41-8-.77-1.83-3.52-3.23-2.85-6.19a2.44 2.44 0 0 1 .63-1c-2.86-1.73-4.71-4.6-4-8.24.27-.28.63.13.63-.21 0-1.35-.36-3.74.64-5.22a2.1 2.1 0 0 1 1.33-.93 2.22 2.22 0 0 0-.1 1.82z" transform="translate(-10.7 -5.23)"/><path class="cls-1" d="M153.69 29.71c-1.68 1-3.86 1.19-5.27 2.68 2-.3 3.89-1.49 5.72-2-2.84 2.12-7.49 3.11-10.1 5.71 3.49-2.48 9.54-3.23 12.4-6.39-2.67 4.14-8.11 3.25-11.37 6.52l1.33-.23c4-1 13.27-5.75 14.8-13.07a27.37 27.37 0 0 1-7.51 6.78zm-66.38-.3c0-.21.38-.44.12-.65a.42.42 0 0 0-.12.64zm70.44-9.35L159 19h-.36a4.52 4.52 0 0 0 2.23-2.36c-4.71 2.45-10.41 2.59-15.3 4.53-1 .36-1.32 1.58-1.53 2.19a89 89 0 0 1 13.71-3.31zm-10.92 1.48a64.15 64.15 0 0 1 11.46-2.62c0 .15-6.93 1.14-11.46 2.62a21.32 21.32 0 0 0-2.28.9 16.85 16.85 0 0 1 2.27-.91zm.65 1.69c2.61-.09 5.47-1.27 7.86-1.83-2.53.29-5.69 1.44-7.87 1.82zm16.35 5.5c-2.37 1.29-5.16 1.6-7.49 2.93a17.53 17.53 0 0 0 3.43-.49 25.5 25.5 0 0 1-5.2 1.64l-.82.53c3.13-.18 6.35-.8 8.63-2.82.55-.52 1.62-1.2 1.44-1.8zM90.89 30c-.17 0-.35 0-.3.22s.35-.01.3-.22zM145 36.2c-.06 0 0 0 0 0zm7-1.5l3.35.07c-2.16.68-4.78.47-7 1.15l3.57-.06a84.46 84.46 0 0 1-9.43 1.07s.7.33 4.15.09c2.19-.15 10.13-.72 13.51-4.32-2.33 1.6-5.43 1.35-8.15 2zm-63-5.24c0 .3.31.17.53.21v-.3a.31.31 0 0 0-.53.09zm.35 2.37c-.57 0-1.24-.88-1.89-.7.76.8 1.66.94 1.89.7zM91 31.2c1.52-.46 2.79.43 3.9 1.28a16.19 16.19 0 0 0-2.21-1.82c-1.1-.73-2.2.77-3.34.79A3.19 3.19 0 0 0 91 31.2zm6.79 4.94c.11-1.6-1.7-2.43-2.88-3.06.54 1.24 2.23 1.52 2.87 3.05zm40.46-5.35a5.12 5.12 0 0 0 2.54-4.36V26a18.13 18.13 0 0 1-6.14 2.86 15.65 15.65 0 0 0 2.61-.26c-1.29.89-3.17.49-4.55 1.2a18.24 18.24 0 0 0 4-.37 10.58 10.58 0 0 0 1.91-.55c-2.63 1.6-5.82 1.26-8.54 2.52a22.33 22.33 0 0 0 5.52-.48c-1.55 1.19-3.82.8-5.64 1.22 2.96.51 6.04.2 8.29-1.35zm-18.73 10c2-.42 3.8.72 5.75.21s4.94-1.64 5.24-4.23a27.08 27.08 0 0 0-7.11-.4c-.63.17-1.3.37-1.25.75 2.55-1.21 5 .74 7.63.26-2.51.9-5.38-1.12-7.92.35a5.48 5.48 0 0 1 2.62.38 7.7 7.7 0 0 0 4-.07 5.47 5.47 0 0 1-3.64.88c-1.09-.24-2.41-.9-3.45-.37a25.35 25.35 0 0 1 4.51 1.26c-1.87.08-3.85-1.23-5.76-.42.35-.1.54 0 1.16-.11 1.74 0 1.78 1.19 3.25.77-1.6.67-3-1.12-4.62-.14 1.89-.63 2.88.94 4.53.73-1.54.23-3.8-.64-4.95.13zm4.27-5.16c3.08-.74 5.51 1.41 8.5.37 1.65-.54 3.28-1.7 3.6-3.47-2.48.13-5.08.73-7.44.43a15.21 15.21 0 0 0 5.75.12 16.3 16.3 0 0 1-6.26.49c2.31 1 4.5.62 6.5.4-2 1.33-5.34.83-7.31.26L129 35c-1.17.19-2.15-.7-3.54-.37a9.88 9.88 0 0 1 4.09 1.13c-1.78-.14-3.91-.92-5.77-.15zM92.67 30a15.82 15.82 0 0 1-3.38-1.8c1.19.73 2.47 2.04 3.38 1.8zm47.57.23c1.44.19 2.94.95 4.36.44-1.86.85-3.4-.07-5.3.43a15.9 15.9 0 0 0 8.79-.67c2.25-1 5.36-2.37 5.74-5.27-3.81 1.06-7.85 2-11.75 3 1.49.37 3-.27 4.27-.25-1.52.63-3.39.49-5 1 2.12.9 5.18-.47 7.61-.64a26.8 26.8 0 0 1-8.12 1.39c3.15.85 6.43-.58 9.14-1.19a21.18 21.18 0 0 1-9.74 1.77zm-40.34 6.9c-.26-.06-.35.54-.51.75-.35-.34 0-1.21-.55-1.42.42 1.5-.6 3.25-.67 4.15a5 5 0 0 0 1.13-2.44c.56 1.62-1.21 3.23-1.19 4.39 1.02-1.56 2.07-3.36 1.79-5.43zm30.05 24.09c-.76-1.1-2.44-2.09-3.15-1.92l1.51 1.61a10.44 10.44 0 0 1-1.59-1 3.23 3.23 0 0 0 2.09 1.56c-.74.27-1.86-.7-2.39-1.12a3.7 3.7 0 0 0 .63.83c-.26.09-.63-.66-.75-.44 1.36 2.85 3.7.63 3.65.48zm-3.36 3.27a3.64 3.64 0 0 0-1.5-3.6c.51-.62 1.5-1.24 1.09-2.31-1.91-2.47-5-3.89-6.08-6.76a11.39 11.39 0 0 0 2.33 3.86 14.71 14.71 0 0 1-2.17-2.48c1 2.32 2.48 3.37 4.51 4.89 0 0-4.09-1.87-5.39-5.31.47 3.12 6 7.07 5.69 7.07s-4.9-3.63-6.07-6.11c.71 3.1 3.6 4.73 5.65 6.94a19 19 0 0 1-6.07-6.12c-.26 0-.12.29-.08.52.14.77 5.33 5.88 5.33 5.88s-.51-.19-.88-.48a30.84 30.84 0 0 1-5.19-5.68c1.29 3.7 4.78 6.53 7.89 10a34 34 0 0 1-8.5-9.66c1.15 3.52 3.94 6.28 6.73 9.08a7.44 7.44 0 0 1-2.12-1.52l.76 1.15c-.5-.23-.53-.38-.88-.42l.36.51h-.22a4.87 4.87 0 0 0 1.49 1.73c.64.28 2.99.46 3.31-1.18zM126.1 63c-.71-.48-1.55-.66-2.07-1.7a12.75 12.75 0 0 0 2.07 1.7zm-2.62-1.43c.26-.09 2.72 2.42 2.72 2.42s-3.35-2.14-2.72-2.37zm.36 3.23c-.67-.16-.62-.54-1.06-.92zm-1.67-.92l1.68 1.55a3.46 3.46 0 0 1-1.69-1.5zm25.28-32.56c-3.12 1-6.4 0-9.62.68 1.8.92 4.37.7 6.5.54-2.12.73-4.87.47-7.1.21 1.28.84 3.11.53 4.47.46-1.34.71-3.36.39-4.89.15 2.15.82 4 .64 6.62.1-2 1.33-5 .73-7.13.64a9.16 9.16 0 0 0 3.28.59c-1.26.2-2.75 0-3.79.06 1.32.49 2.88.25 4.32.44a13.25 13.25 0 0 1-4.93-.13c2.2 1.13 5.55.9 7.84.17 1.78-.54 4.2-1.61 4.43-3.86zm5.1 5.53c-.63-.29-7.48.87-10.18 1 .76.56 6.93-.58 8.4-.35-1.44.23-6.55.75-8 .9.35 0 3 .05 3.42.12.29.28-4.3.11-4.56.33 2.65.42 6.48-.41 8.57-.58-2.23.9-6 1.1-8.66 1.19 1.53.37 8.08 0 10.23-.49-2.57 1-9 .95-11 1.11-.41 0-1.28.32 1 .43 4.16.2 9.81-.33 10.88-1.23.67-.63 1.3-1.75-.1-2.39zm-24 5.07c-.09-.47-.62-.68-1-1-.01.5.87 1.21.96 1.08zm25.15-14c.92.11 2-.12 2.3-.64-.81.81-1.79-.17-2.34.66zm-23.54 11.4a15.31 15.31 0 0 0 2.31 1.12c1.08.42 6.36 1.37 8.49-1.73.42-.61 1-1.31.57-2.17-2.7 0-5.19-.52-7.93-.39 1.84.66 4.18.53 6 .94-2.13 0-5.18-.26-7.27-.4 1.45.45 4.16.68 5.53 1.2-1.7-.11-4.39-.74-6.18-.8a15.36 15.36 0 0 0 4.42 1.09 16.72 16.72 0 0 1-4.8-.44c1.36 1.68 5.06 1.08 7.72 1.21a17.22 17.22 0 0 1-8.66-.38c-.08.26.57.59.57.59a12.9 12.9 0 0 0 5.2.65 17.33 17.33 0 0 1-6.01-.47zm24.31-12.22c.79.38 1.39-.24 2.09-.34-.7.11-1.66-.22-2.09.34zM153 28.44c-.44.05-.59.27-.93.56.52 0 1.48.15 1.87-.2l-.26-.09c.3-.26 1-.05 1.21-.45-.61.02-1.15.47-1.89.18zm-2.87 2l2.08-.68a2.72 2.72 0 0 0-2.04.65zm6.46-7.05c.4.38 1 .17 1.57.27a10.55 10.55 0 0 1-2.61.35c.87 0 1.32.8 2.19.48-1.17.58-2.18-.14-3.35.27.6.91 1.7.46 3.15.48-.72.53-2 .36-2.6 1 2.36.61 3.81-1 5.09-2.59l-1.7-.06c.66-.57 2 .1 2.51-.78-1.39.19-3.14-.42-4.21.55zM92 26.09c-.16.16.87 0 .87 0s-.76-.16-.87 0zm1 .11c-.37.12.44 0 .44 0s-.07-.12-.44 0zm.66.08c-.27.09 2.67.6 4.21 1.39a8.79 8.79 0 0 0-4.22-1.39zM91.78 26a5.38 5.38 0 0 0-1.56 0c-.16.19 1.56 0 1.56 0zm4.82 1.56c-1.85-1.14-4.29-1.27-6.51-1.14a20 20 0 0 1 6.5 1.15zm2.4 2.25a6.85 6.85 0 0 0-2.33-.91c.53.77 1.57.62 2.33.91zm-6.44-6.89h.36s-.49-.49-.67-.29c.11-.04.34.29.34.29zM92.52 25c-2.12-.12-4.21-.46-6.12 0 4.44.14 9 .52 12.69 2.35-1.59-1.49-3.92-1.86-6.42-2.37.56-.05.63-.74 1-1.08.23.43 0 1.67 1.05 1.26A1.94 1.94 0 0 0 95 23.9a3.88 3.88 0 0 1-2.69-.5c-.13.48-.57 1.46.21 1.6zm.37-4.64A6.71 6.71 0 0 0 94 22.59c.81-.08 1.49-.89 2.11-1.32-.31-.43-.35-1.17-1-1.33 0-2.13 1.59-.51 1.41-1.58-1.85 0-.43-.89-.94-1.38-.66-.21-.38.54-.72.89-.43.13-.69-.11-1-.11-.51.79.68.49.86 1a1.41 1.41 0 0 1-.28 1c-.65-.09-1 .41-1.54.62zM93 35c2.23.44 4.57 2.3 5 4.58a3.37 3.37 0 0 0-.13-2.71 6 6 0 0 0-7.28-2.77 2.5 2.5 0 0 0-1.7 2.54c.84.72 2 .67 3.15.77.73-.07.83.07.91-.32-.62-.51-1.37-.39-2.18-.48 1.25-.8 3 .42 3.75.45-.62-.59-1.4-.7-2.11-1.22 1.83-.12 3.21 1.5 4.67 2.73a4.76 4.76 0 0 0-1.74-2 8.1 8.1 0 0 0-3.16-1.42c.14-.22.49-.15.82-.15zm-1.85-.76c2.57-.45 5.9 1.28 6.63 3.55-.78-1.88-3.97-3.23-6.66-3.54zM102 38.48a3.83 3.83 0 0 0 .26-2.92c.24.99-.53 1.89-.26 2.92zM87.8 27.93a2.18 2.18 0 0 0-1.13.24 1.47 1.47 0 0 0-.81 1.35h.39v-.43c-.01-.59.95-1.02 1.55-1.16zm-1-5.6a2.23 2.23 0 0 1 .29-2.25 2.38 2.38 0 0 1 2.6-.56 4.9 4.9 0 0 0-1.26.32c-.48.25-1 .71-.8 1.36.47-.61 1-1.36 2-1.29a3.33 3.33 0 0 1 2 .92c-.18-.25-.53-.72-.23-.95l.22.21c0-.26-.44-.23-.18-.66.13.13.31.27.48.22 0-.21-.14-.39-.18-.6-1.69.37-3.63-.71-4.82.6-1.32 1.49.27 3.1.6 4.57-.01-.65-.52-1.22-.75-1.89zm5-.44a2.44 2.44 0 0 0-3.16-1 4.29 4.29 0 0 1 3.09 1zm-3.85 1.81c.59 1.37 3.48.85 3.67.84s0-1.94 0-1.94c-.62-1-2-1-3-.81a1.51 1.51 0 0 0-.67 1.91zm-3.79 5.24l.12-.52a1.3 1.3 0 0 1 1-.88c-.25.57-.94 1.09-.49 1.78.08-.61.94-1.4 1.23-2.18 2.82-.52 4.61 2.3 7.23 2.68.79.12.62.89 1.07 1.32s.64-.4 1-.45c2.3-.29 4.38 1.27 6.72.54a1.46 1.46 0 0 0 1-1.5s-.07.2-.7.76a4.64 4.64 0 0 1-4 .23c1.1.24 3.05.18 3.66-.43-2.87 1.22-5-1.31-7.6-.92-.39 0-.43.48-.51.74-.89-1-2.63-.71-3.3-1.8.93.29 1.84.75 2.85 1 0-.43-.44-.43-.62-.64l1.44-.11a4.88 4.88 0 0 1-1.58-.41c1.35-.23 2.66.3 4 .45a11.26 11.26 0 0 0-4.51-1.48 4.81 4.81 0 0 1 1.5.71 2.12 2.12 0 0 1-1 .11c-2.23-1-6.23-1.9-7.56-1.52-1 .19-1.91.55-2 1.59 0 .64.53.85 1.05.93zm13.94 1.55a12.17 12.17 0 0 0-1.4-.49c-1-.24-2.28-.42-2.28-.42s2.69-.17 3.68.91zm-5.51-2a12.62 12.62 0 0 0-5.38-1.68 9.22 9.22 0 0 1 5.38 1.68zm-3.66.3c-.26 0-.53-.15-.68.17a1.12 1.12 0 0 0 .55 1.46c.54.18 1.13.28 1.48-.24a.63.63 0 0 0-.37-1 .8.8 0 0 1-.16 1 .94.94 0 0 1-1.18-.2c-.35-.42.02-.92.36-1.19zm11.69-5l-.72 1 .21-.22zm7.28 53.74c.23.56.46 1.44 1 1.7-.23-.52-.76-1.14-.77-1.61-.64-1.59-.63-3.7-.92-5.55a13.65 13.65 0 0 0 .69 5.46zm1.16 1.41c-.49-3.27-1.29-6.87-1.61-10.15 0 2.76.46 6.24.67 8.83zm.44-.09c-.32-1-.26-3.73-.89-4.63a33 33 0 0 1 .44 4c.14.22.14.6.45.69a3.39 3.39 0 0 0 .25-3.2c-1-2.19-1.27-4.89-1.61-7.3-.26 3.59 1.65 6.93 1.36 10.43zM111.16 54s-.17.51-.29.55c1.33-.93 3.12-.7 4.77-1 2-.38 3.7-2.65 4.41-4.21-.73.22-.85 1-1.23 1.57-.6-1.8 2.06-1.72 1.86-3.44-.21.39-.37.44-.64.92-.23.24-.64.7-1 .45.95-.54 1.1-1.66 2.06-2.24.38-.57-.24-1-.55-1.42a23.32 23.32 0 0 1 2.38-1 2 2 0 0 0 1.23-2.09c-.45-.9-1.54-.75-2.41-.87s-2.51 0-3.16.57c.92 0 2.42-.65 3.47-.28a17.68 17.68 0 0 0-4.68 1.59c1.74-.24 3.29-1.4 5.13-.86a10.46 10.46 0 0 0-4.47 1.2 6.3 6.3 0 0 1 4.35-.29 6.43 6.43 0 0 0-5.39 1.68 6.78 6.78 0 0 1 4.16-1.11c-1.3.33-3 .53-4.16 1.54a9.38 9.38 0 0 1 3.6-1c-1.18.38-3.65 1-3.58 2.26a4.57 4.57 0 0 1 3.12-1c-1.18.53-2.86.74-3 2 1-.45 2-1.24 3.12-1.09L119 47c-.68.4-1.73.85-1.76 1.58-.17.26-.6.75-1 .4 0-.21.5-.32.21-.6s-1.15-3.65-.48-5.17c2.05-4.87 5.9-6.92 10.59-10.69 4.87-3.28 11-4.57 15.61-8.1 1.59-1.19 3-2.94 2.44-5a4 4 0 0 1-1.3 2.91c-4.3 3.92-10.55 5.56-15.93 8.12a17.9 17.9 0 0 0-5.57 3.93c-2.61 2.64-5.36 3.23-8.21 6-2.31 2.23-3.19 6.23-1.73 8.32.54.77.54.77.92.37a4 4 0 0 1-.63-1.32 5.79 5.79 0 0 1 .76-4.16 9.06 9.06 0 0 0-.37 4.06c-.34-2 .71-4.37 2-6.16-.62 1.87-2 3.92-1.55 6.16a2.13 2.13 0 0 0 1 1.51c.62.34 1.09-.23 1.56-.46.61.25.54 1.07.55 1.55a1.57 1.57 0 0 0 1.46 1.32c-.13.35-.6.09-.83 0 0 .26.2.42.19.68a2.86 2.86 0 0 0-.89-.54 1.31 1.31 0 0 1-.77-1.54c.4.29.45 1 .93 1.1-.66-.37-.32-1.55-.41-1.9a1.13 1.13 0 0 1-1.18.68c0 1 1.12 1.71 2 2.17l-.34.39a46.85 46.85 0 0 0-4.77 1.25c1.07-1 2.64-1.08 3.85-1.53A2 2 0 0 0 114 52c-1.51.76-3.46 1.48-4.13 3.27-.04.04 1.13-1.27 1.29-1.27zm15.32-22.66c-1.9 1.06-5.14 4.79-5.15 4.54a23 23 0 0 1 5.15-4.53zm-9.48 7.6c-.15 0 .51-.4.51-.4s-.33.4-.51.4zm-3.51 3.68a7.66 7.66 0 0 1 3.83-4.7c-1.7 1.08-2.8 3.03-3.8 4.7zm.51 3.51a20.87 20.87 0 0 1 1 2 4.25 4.25 0 0 1-1-2zm.74-.1a8.71 8.71 0 0 1 .78 2.14 4.52 4.52 0 0 1-.75-2.17zm.77-5.8c-.14-.13 1-1.09 1-1.09s-.83 1.23-.97 1.09zm2.08 9.92c-.06-.64.68-1.13 1.15-1.4-.14.25-.96.84-1.12 1.4zm-.75-.2c.3-.69 1.13-1.79 1.54-1.79s-1.3 1.18-1.51 1.79zm-7.49 4.64l-.83-.4c-.31.51.48.45.86.4zm-.21.65c.43-.33-.36-.34-.67-.46a.43.43 0 0 0 .15.55c.22.17.22.17.56-.09zm-1 10.51a7.89 7.89 0 0 0 .56 2.45c-.22-.6-.07-1.99-.56-2.45zm-9.92-40c.65-.44 1.33-1.06 1-2a2.56 2.56 0 0 0-2.9-.6 3.58 3.58 0 0 0-1.15 2c.94.48 2.14.98 3.05.62zm1.29-2.64a2.45 2.45 0 0 0-3.29-.5 4.31 4.31 0 0 1 3.29.52zm4.21 19.51a16.26 16.26 0 0 1-.78-5.64 9.8 9.8 0 0 0 .94 6.42c.2-1.08.66-2.26.25-3.33-.08.56.16 1.17-.11 1.56-.33-1.07.1-2.61-.57-3.34-.45 1.49.7 2.8.27 4.35zm-8.78-19.91a1.34 1.34 0 0 1-1.89-.45 1 1 0 0 0 2 .36zm2.5-1.38a.33.33 0 0 1 .31.12l-.13.09a3 3 0 0 1 1.57.28c.75.37 1.38 1.48 1 1.84 0 0 .14 0 .31-.21.41-.54-.38-1.47-1-1.85a1.76 1.76 0 0 1 1.45.84c.55 1.17-.23 2-1 2.78-.38.44-1 .71-1.24 1.19.85-1 3.32-2.17 2.75-4a1.5 1.5 0 0 0-1-1 25.81 25.81 0 0 1-2.57-1.06A1.68 1.68 0 0 0 97 21l.7-.17a1.34 1.34 0 0 1-.25.5zm-7.89 9.59c-1 .19-1.46-1.18-2.41-1.12-.08.26-.52 0-.35.31a2.64 2.64 0 0 0 2.76.81zm5.79-7.63c-.1-.15-.8.14-.8.14h.36s.38-.24.44-.14zm18.57 34.6a4.76 4.76 0 0 0 .68 1.28l-1-2.76a4.77 4.77 0 0 0 .32 1.48zm-23 31.54a2.77 2.77 0 0 0 1.25-.54 3.26 3.26 0 0 0-1.29.54zm8.75-3a47.91 47.91 0 0 0-7.13 1.16c2.22-.25 4.48-.73 6.7-.76a.58.58 0 0 0 .38-.35zm-6.75 2.7c.52-.23 1.17-.45 1.65-.67-.68.29-1.4.2-1.7.72zm7.19-.25c.09 0 .13 0 .21-.09-.18-.08-.09-.26-.09-.43-.27.1-.14.4-.22.57zm-1.84 7.2v-.21l-.21.43zm1.08-3.34a2.19 2.19 0 0 0-1.68.67c-.85 1-.74 2.73-.64 3.81l.72-1.35c-.61-.29-.15-.82-.46-1.33a2.6 2.6 0 0 1 2-1.75zm-5.61-.38c.38-.44 1.06-.84 1.1-1.1l-2.5 2A6.68 6.68 0 0 0 96.84 90c-1.2.86-1.78 2.34-3.17 2.41zm2.5 6.95c0-.21.3-.48.08-.69-.1.26-.44.83-.14.74zm-2.39-9.67c.65-.23 1.26-.49 2-.68-.71.32-1.58.24-2.06.73zm1.57.06c.78.08 1.25-.54 1.86-.85a6.87 6.87 0 0 0-1.92.89zm-5.55-1.16c-.35.14-1.22.24-1 .36a1.27 1.27 0 0 0 .95-.31zm-.44-.29a5 5 0 0 0-1.13.32c.43.21.71-.19 1.07-.28zm1.79.27l-1.56.67a7.35 7.35 0 0 0 1-.14c.21-.05.72-.28.5-.49zm7.11.74l-.51.53.35-.14zm-9-1.83c-.52.22-1.13.45-1.56.63.46-.14 1.24.06 1.5-.59zm-2-.92l-1.12.37 1.56-.37zm-1.35-.06l1.39-.45c-.68 0-1.36.15-1.47.49zm2 .57a5.38 5.38 0 0 0-1.48.24 4.17 4.17 0 0 0 1.42-.2zm10.85.25l-3.3.57H98c.24-.04.76-.1.75-.53zm35.37-40.57a3.23 3.23 0 0 0 3.34-.4 3.81 3.81 0 0 0 1.95-3.53 1.34 1.34 0 0 0-1.48-1.1c-3.77.28-6-.72-8.78-1.58 1.46 1.27 2.57 1.57 4.51 2.38a9 9 0 0 1-4.81-2c.64 1.54 4 2.58 5.35 3.12a9.9 9.9 0 0 1-5.78-2.81 9.32 9.32 0 0 0 6.51 3.87 6.9 6.9 0 0 0 3.44-.27c-1.33.95-3.35.62-5 .54.38.94 1.46.93 2.83 1A4.94 4.94 0 0 1 134 46c-2-2.47-5-2.81-7.31-4.54 0 1.12.95 1.85 2.85 3 0 0 .87.65.65.65a19.94 19.94 0 0 1-4.3-3.11c1.49 2.82 4.51 4.11 7.4 4.63 0 .17-.29.2-.37.29a11 11 0 0 1-7.33-4.39l.1.52c1.82 2.13 4.21 4.12 6.88 4.76a5.45 5.45 0 0 1-2.18-.31 12.29 12.29 0 0 0 4.06 2.08c-1.37 0-2.65-1-4-1.21a18.62 18.62 0 0 0 4.53 2.29c-1.7 0-3.16-1.28-4.74-1.91-1-2.4-3.94-3.56-5.41-5.39.46 1.16 1.73 1.65 2.53 2.63-.88-.2-1.63-1.14-2.43-1.69l2.69 2.87a15.93 15.93 0 0 1-3.1-2.69c.12 1.39 3.11 3.17 4.49 4.7-1.18-.29-3.36-2.91-4.46-3.42l2.31 2.58 1.45 1.5-4.1-3.9c.07.74 4 4.19 4.27 4.65a37.61 37.61 0 0 1-4.79-4.34c.55 1.37 2 2.34 2.46 3.5a14.19 14.19 0 0 1-2.84-3.19c.9 1.71 2.24 3.7 4 4.51a4.2 4.2 0 0 0 1.54.18 1.68 1.68 0 0 1-1.08.39 12.23 12.23 0 0 0 5.06 3.78c-1.57-.3-3.4-1.68-4.53-2.44l.18.89c0 .81 1.33 1.27 2.2 1.45-1 .17-1.36-.26-2.17-.64a3.26 3.26 0 0 0 1.72 1.1 2.8 2.8 0 0 1-2.11-1c.25-3.37-4.22-5-5.49-7.85.21 2 1.94 3.62 3.06 5-1.06-.87-2.66-2.1-3-3.09a14.49 14.49 0 0 0 4.52 5.6c.34.15 0 .07-.24 0-.76-.14-3.94-3.55-4.9-6 0 1.34 1.44 3 1.88 3.84a9.3 9.3 0 0 1-2.54-4.18c0 3.24 3.41 5.39 5.7 7a10.77 10.77 0 0 1-5.22-4.4c.06.78 1.21 2.11 1.69 2.9a16.87 16.87 0 0 1-2.44-3.41c1 3 4.22 5.59 6.6 6.9a19.43 19.43 0 0 1-6.57-4.92c1.48 3.82 5.29 4.17 7.87 6.9a33.28 33.28 0 0 0-4.13-2.52l5.22 4.26.19-.56c.92-2.18-1.92-3.14-3-4.64a4.91 4.91 0 0 0 .81-.48 4.21 4.21 0 0 0 4.34 1.51 3.17 3.17 0 0 1-2-.85 3.91 3.91 0 0 0 1.68.56c.52.08 1.2.17 1.43-.54.81-2.52-2.46-4-3.93-5.42a1.61 1.61 0 0 0 .67-1.47c1 .2 1.38 1.11 2.34 1.34-.56.36-1.32-.67-1.67-.41 1.41.84 2.83 2.37 4.6 1.56a1.51 1.51 0 0 0 .71-1.87c-.33-1.37-3.53-1.94-3-1.94s.82-.85.82-.85zm1.73-.14c-.49 0-1.79-.14-1.66-.28s.98.34 1.59.33zm-6.59 5.59c.19-.19 2.53 1.73 2.53 1.73a16.21 16.21 0 0 1-2.6-1.68zm3.7 1.49c-1.27-.71-2.78-1.27-3.7-2.53a22.94 22.94 0 0 0 3.67 2.58zm7-9.67c2.43 1.76 10.19 1.24 12.55-.4 1.58-1.1 1.93-1.83 1.43-3s-1.24-.8-2.14-.48c-3.79 1-8.58 1-12.36 1-.21.15.8.42 1.1.41 2.22 0 6.56-.08 8.56 0-1.57.36-5.88.28-8.86.55a8 8 0 0 0 2.09.27 40.34 40.34 0 0 0 8.56-.48 25.52 25.52 0 0 1-11 .73c1.8 1.72 8.53.38 12.09 0a34 34 0 0 1-11.92 1c3.28.92 7.8.55 9.71.35-2.39.7-7.71.28-9.9.08zm-39.5 50.43a.44.44 0 0 1 .34-.52c-.7-.46-1.52 0-2.08.34.47.04 1.38-.59 1.66.23zm19.17-17.5c-.56-2-1.6-4.43-2.33-6.4-.1 2.07 1 4 1.58 5.77-.04.26.36.73.66.68zm46.93-59.75a50.08 50.08 0 0 1-6 3.08 16.43 16.43 0 0 0 6.31-2.57c1-.78 2.54-1.85 2.47-3.28a12.47 12.47 0 0 1-2.86 2.81zm-47.89 59.46l-1.27-3c.19 1.12-.05 2.51 1.27 3zm48.53-65.35c-.92 2-1 1.79-3.68 3.78-.23-.51.86-.53.59-1.26l-.51.52c-.31-.29.43-.44.33-.82-.74.18-.55 1.17-.71 1.78 1.86-.47 3.98-2.17 3.98-4zm1.6 1.53a3.68 3.68 0 0 0-1-3.61 3.86 3.86 0 0 1 .09 2.63c-.91 2.63-3.12 3.33-5.19 4.4l-1.22 2.61c2.73-1.38 6.68-2.56 7.31-6.03zm-2.2 2.42c0 .34-4.56 2.57-4.56 2.57zm-12.27 7.15c-3.67 1.66-8.57.45-11.84 3 3.12-1.13 6.47-1.15 9.68-1.93-3.33 1.18-7.21 1.11-10.09 3.28 8.3-1.09 18.36-3.81 20.6-12.91-1.08 3.82-4.81 6.99-8.36 8.56zm-53.29 67.5a5.18 5.18 0 0 0 1.88.79 3.68 3.68 0 0 0-1.88-.79zm7.78 1.64a10.57 10.57 0 0 1-3.14-.38c-1.16-1.53-3.29-1.06-4.66-2.3.3 0 .38-.48.64-.53l.53.6a.51.51 0 0 0 .52-.18c1.49.45 2.9 1.46 4.52 1.78l-1.19-.71c-1.7-.1-2.86-1.68-4.52-2-.48.31-.55 1-.89 1.27 2.8.6 5.07 3.54 8.19 2.45zm3.33-1.74c-2.35.38-5-1.68-7.18-2.33-1.71-.54-1.14-2.54-3.34-1.5.3-.53 1.09-.32 1.43-.46l-.83-.21c-.06-.13.13-.17.22-.17a4.82 4.82 0 0 1-1.2-1.53 6 6 0 0 0-3-2l.3-.35A5.24 5.24 0 0 0 95.46 83c.22 0 .48-.09.61.12a29.94 29.94 0 0 0-7 3.1c2.16-1 5.35-2.4 7.8-2.53a27.83 27.83 0 0 0-6.75 2.82 16.28 16.28 0 0 1 8.24-2.21c-2.52.6-5.25 1.08-7.58 2.42 2.56-.56 5.07-1.6 7.9-1.26a50.25 50.25 0 0 0-7.29 1.68 42.51 42.51 0 0 1 9.17-1.1c-.9 1.1-2.57 2.33-2.78 3.29.91-.45 1.37-1.41 2.06-2.11A7.34 7.34 0 0 1 98 90.43c1.38-.76 1.7-2.49 3-3.59.23.39-.47.61-.51 1a4.92 4.92 0 0 1 .9-.75c.52-.18 1.29-.62 1.7.1 0 .22-.34.39-.42.52a78.43 78.43 0 0 0 7.51 3.59c-.27-.38-1-.55-1.5-.8.78-.23 1.67.71 2.32.48-1.27-.06-2.2-1-3.29-1.5a15.88 15.88 0 0 0 4.72.74c.04-.22-.17-.42-.22-.45zM99 85.36s-.35-.29.22-.31a9.92 9.92 0 0 1 1.74.28zm2.5 1.21a1.36 1.36 0 0 1 1.87 0 2.15 2.15 0 0 0-1.85 0zm5.8 2.67a27.71 27.71 0 0 1-3.12-1.64s3.76 1.62 3.14 1.63zm10.22-19.95a8.94 8.94 0 0 0-.94-3.43 3.24 3.24 0 0 1 .11 1.25 5.51 5.51 0 0 1-.55-1.41l-.08.69a8.33 8.33 0 0 0-1.06-1.93c.9 1.45.53 3.67 1.74 4.72 0-.52-.72-1.87-.46-2.35a9.5 9.5 0 0 0 .9 2.56c.38-1-.68-1.33-.35-2.2.17.71.52 1.43.7 2.1zm-17.41 23.39c.26.07.22.13.23.3-.82.4-2.22.29-2.51 1.38a4.9 4.9 0 0 1 3.12-1.09c.05-.47-.37-.59-.84-.59zM115 77.11a10.37 10.37 0 0 0-.66-3.1c-.51-1.37-.8-3.44-1.64-4 .29 1.81.89 3.61 1.23 5.24-.6-2.1-1.51-4.07-2.07-6.18 0 2.25 1.37 4 1.63 5.89a16.08 16.08 0 0 1-2.29-6.48c-.49 1.6.45 3.19.82 4.56.32.69.59 1.46 1 2.14s.59 1.72 1.43 2c0-.26-.4-.51-.14-.73l.45.73c.08-.61-.62-1-.46-1.46a4.58 4.58 0 0 1 .7 1.39zm-1.44-2.27l.55 1.46a2.33 2.33 0 0 1-.55-1.46zm2.26 1.91a1.62 1.62 0 0 0 1.18-1.36 14.7 14.7 0 0 0-1.28-5.89 32.23 32.23 0 0 1 .5 4c-.54-1.2-.61-2.7-1.42-3.89a16.11 16.11 0 0 0 .73 4.65c0 .05.17.86 0 1-.59-1.49-.94-4.37-1.92-5.21.56 2.32 1.21 4.55 1.6 6.92.61-.1.11-1 .37-1.43zm-2.7.26l.4.12c-.46-1.42-1.4-2.7-1.51-4.12-1-1.24-1-2.53-1.72-3.73.61 2.72.81 5.43 2.83 7.72zm4.88-7.63c-.11-1.21-.13-2.73-.8-3.4.46 1.11.22 2.37.8 3.4zm-5.45-.38a13.31 13.31 0 0 1-.88-3.1 4.19 4.19 0 0 0 .88 3.1zm.74.19c-.84-1-.74-2.58-1.2-3.69a9.41 9.41 0 0 0 .89 3.7zM92.21 89.41c-.26-.08-.87.4-.61.31s.7-.01.61-.31zm20.41-24.09c.11 1.29.18 2.93 1.11 3.91-.37-1.29-.61-2.66-1.11-3.91zm-.58 0c.61-.4.17-.75.29-1.27.77 1.44.33.13.46.55l-2.22-7.6a39.06 39.06 0 0 0 1.43 8.36zm4.23-.7l-.93-1.5c.05.38.49 1.77.93 1.54zm-2.48-2a5.86 5.86 0 0 0-.42-1.76c-.33-.67-.86-1.84-.86-1.84zm.76 1.2c.13 0 .17 0 .21-.09 0-2.14-1.3-4.81-2.64-6.78.83 2.28 1.98 4.11 2.43 6.87zm1.86.62a2 2 0 0 0 1.15 1.1c-1.65-2-2-4.59-3.55-6.67-.45-.6-.59-1.5-1.08-2.05zm-7.89.73c.28 1 .35 2.58.88 3.3a10.71 10.71 0 0 0-.88-3.29zm4.17 11.76a4.75 4.75 0 0 0-1.16-1.45l.1.64c.22.44.97.94 1.06.82zM108.5 69a17 17 0 0 0 1.5 6.51c.5 1.16 0 2.42.06 3.42 1-.23.23-1.91.57-2.69l.25 1.85c.47-3.1-.7-5.87-1.14-8.71l-.58-.06c.24 1.37.36 2.93.51 4.26a13.06 13.06 0 0 1-.81-4.34 2.3 2.3 0 0 0-.36-.24zm2 7c-.14-.87-.76-1.5-.87-2.41a5.05 5.05 0 0 1 .9 2.46zm-.66-18.54a41.61 41.61 0 0 0 1.42 7.76c.11.4.33-.11.17-.74-.47-2.19-1.05-6.09-1.28-6.63s-.28-.34-.28-.34zm12.46 18.49c0-1.94-1.68-4.1-2.87-6.11 0 2.29 1.32 3 1.27 5.1a41.69 41.69 0 0 1-2.07-5c-.52 2.47 2.08 4.2 1.68 6.62a63 63 0 0 0-2.19-6.06c-.63 0 1.06 5.05 2.22 6.42.92.37 1.45-.27 1.96-.97zM109.23 58c-.14.13.16 4.65 1.27 6.47-.16-1.89-.91-6.33-1.27-6.47zm-.69 5.71c.09.37.2.4.2.4l-.24-1.33a7.66 7.66 0 0 0 .04.97zm1.21 4.51a1.18 1.18 0 0 0 0-.82 12.37 12.37 0 0 0-.69-2.58zm4.28.88c.73-.2 0-1.29.27-2 .21.65.22 1.3.46 1.55 1.2-1.44-.1-3.1-.73-4.43v.43a29 29 0 0 0-1.31-3 17.31 17.31 0 0 1 1.49 5.45c-.93-3.48-2.31-6.69-2.72-10.27-.7 2.27 2.17 8.05 2.51 12.31zm-8.94 4.6c-.69.83 0 3.78 0 4.17zm-.6 5.62c.69-.62-.08-2.79.16-3.62-.72.53-.17 3.05-.16 3.66zm-1.35-.4c.22 0 .07-.35.32-.44.22.21 0 1 .37 1.07a17.37 17.37 0 0 0-.21-2.17 2.49 2.49 0 0 0-.48 1.62zm2.39-.26c.81-1.22-.06-4.92 0-6.35-.38 1.17-.06 5.4-.21 6.78zm-3.69-1.88a14 14 0 0 1-2.77 3.24c.21-.56.46-.65.29-.82l-1.11 1a1.59 1.59 0 0 0 .82-.43 9 9 0 0 1-1.11 1c1.72-.29 3.8-2.65 3.88-3.95zm5.16-2.56c.15-1.56-.39-3.15-.2-4.58-.7 1.22-.11 3.25.2 4.58zm-3 4.8v-1.9a4 4 0 0 0 .06 1.88zm-4.42 1.36c2-1.25 4-3.34 4.39-5.73a15.59 15.59 0 0 1-4.33 5.73zm8.37-2c-.77-2-1.44-4.76-2.27-6.77a15.51 15.51 0 0 0 2.32 6.74zM123 68c.79-1.79-1.23-3-2.17-4.2a2 2 0 0 0 .4-2c-1.61-2.13-3.76-3.87-4.42-6.45.17 1.94 2.87 4.81 3.59 6.41-1.11-1.45-3.2-4.25-4.09-5.79.46 1.68 3.37 5.51 4.32 6.82-1.59-1.36-4.17-5.32-5.11-6.95.08 2.26 3.81 5.46 4.85 7.61l-4.42-5.7c1.8 3.42 4.46 6.16 6.08 9.55-1-.94-1.42-2.07-2.44-3.09.45.9 1.47 2.41 1.49 3.36a7.94 7.94 0 0 0-1.64-2.41c.89.94.78 2.36 1.62 3.3-1.05-.5-.78-2.05-1.74-2.34.32.94.43 2.06 1.4 2.65A2 2 0 0 0 123 68zM99.35 35.59c-.18-.13-.36-.39-.61-.29l.62.51zm19.28 27.13c-.24-.4-2.74-4.49-4.08-6.67a24.85 24.85 0 0 0 4.54 7.82 6 6 0 0 0-.46-1.15zm-.48 2.43L114.77 59c.76 2 2.35 6.16 3.38 6.15zm.25 1.63c-.07-.27-.1-.56-.45-.6l.27 3.1c.78-.57.2-1.5.17-2.5zM108.24 79a5.47 5.47 0 0 1-1.84-3 3.33 3.33 0 0 0 1.84 3zm.52-17.62c.15 1.62 1.23 6.43 1.29 6.71s.31.11.3-.09-.91-2.19-.58-3.31a12.67 12.67 0 0 0 .79 3c.25-1 .35-2.29-.58-3a12.78 12.78 0 0 1-1.06-6 7.77 7.77 0 0 0-.16 2.64zm10.12 4c.26-.13.27-.5.11-.87-1.81-2.64-3.81-5.22-4.87-8.1a37.07 37.07 0 0 0 4.76 8.96zm-31.7 22.35a3.2 3.2 0 0 0 1.26-.45 4.22 4.22 0 0 0-1.26.45zm-22-4.42a15.13 15.13 0 0 0-1.29 3.26l.6-.53h-.22a14.86 14.86 0 0 1 .88-2.74zm25.48 17.18c-.18-.26-.36-.51-.54-.81-.25.32.37.86.5.81zM64.07 86.78c-.17 0-.21.26-.35.09l-.13.24-.67 1.73c.38-.72.93-.83 1.15-1.25l-.43.22c-.43-.67.58-.39.43-1.03zM87 101.28a2.49 2.49 0 0 1-.83.07 4.14 4.14 0 0 1 2.06.56c.7.16 1.51.38 2.11-.2-1.01.88-2.28-.32-3.34-.43zm-4.24-.74h1a3.44 3.44 0 0 0 2.33.82 5.75 5.75 0 0 1-2.25-1c-.28-.14-1.07-.36-1.06.18zM59 87.9l.34-.35-1 .36zm26-6.65a2.34 2.34 0 0 0 .72-1.05c-.28.34-.84.8-.72 1.05zm-17.7-1.72c-4.55 2.41-4.3 7.57-6.51 11.32a12.63 12.63 0 0 1 .76-3.73c1.26-3.08 2.37-6.73 5.82-8.38.52 0 .69-.32 1-.66-1.94 1.07-4.15 1.45-5.83 3.12-1.71 2.62-3.42 3.77-5.12 6.09l3.09-2.51c1.28-1.74 2.19-4.65 4.53-5-2.4 1.9-3.23 4.59-4.49 7l.34-.35c.23.34-.46 1.13-.2 1l.3-.31c.18.6-.41 1.09-.49 1.69l.43-.36A7.29 7.29 0 0 1 59 92.73l1.12-.84C63.31 88 63 82.88 67.28 79.53zm-3.2 1.54a17.9 17.9 0 0 1-1.54 2.42 13.65 13.65 0 0 1 1.54-2.42zm-1.81 3.57L61.7 86l-.22.22zm21.47-25.91l-.28 1.82c-.23-.77-.12-1.85-.27-2.63-.09 2.24-.14 4.66-.19 6.86a1.56 1.56 0 0 0 1.34 1.56c-.38 1.1-.85 2-1.39 3.34s.42 1.18.81 1.09c1.65-.46 2.5-3.29 2.7-4.41.44-1.89-.08-.84-.22-1.28 0 0-.25 1-.35 1s-.26-.35-.26-.35a19.54 19.54 0 0 1-1.72 4 20.84 20.84 0 0 0 1.48-10 28.71 28.71 0 0 1-.24 4c-.51-1.93.05-4.41-.63-6.29l.05 2.89c-.1-.78-.25-1.55-.35-2.37-.05 1.86.24 3.79-.12 5.48-.38-1.53.12-2.95-.36-4.71zM60 88.05l-.73.66.31.21c-.43.35-1-.24-1.35 0 .14.69 1 1 1.37 1.1a3.73 3.73 0 0 0 .4-1.97zm25.38-31.4c.74 2.28.53 5.19.79 7.65.27.42.74.44 1.22-.11s1-5.33 0-7.55a1.28 1.28 0 0 0-.84-.72c.46 1.59 1.15 2.78.83 4.95A16.22 16.22 0 0 0 86.11 56c.24 1.79.9 3.87.54 5.74-.21-1.63-.31-4.35-1.27-5.08zm13.22 45c-1.36-.26-3.06.1-4-1.14.49-.18.93-1.16.93-1.16-.38.22-.71.8-1.15.66l.49-.66a54.71 54.71 0 0 0-12-7.82c-.36.36-1 .22-1.42.22l1.07-.44c-.28 0-.65.12-.85-.14.3-.12.77 0 .93-.36-.34-.42-.95-.08-1.36-.3.32-.38 1-.14 1.36-.2-.47-.72-1.46-.62-1.93-1.38 0 0 .45.16.3 0s-.16-.45-.3-.84l-.68.29a2.76 2.76 0 0 1 .13.49h-1.5c-3.62-.78-7.57-.44-11.51-.72-.28-.36-.3-.88-.79-1.08-.48 0-.57-.24-.71-.52v-.25c.36.54 1.07.9 1.56.44 3.78-3 4.52-7.53 8.33-10.58l1-.84.26-.66-1.31.85a7.66 7.66 0 0 0-1.06.94c-.29.3-4.92 6.17-5 7.15-.09.71-1.47 3.19-3.15 2.46a1.14 1.14 0 0 1-.1-1.41c.35-.76.95.3 1.34-.36 1.42-2 2.92-4.67 4.5-6.62l-.06-.08A28.21 28.21 0 0 0 67 83.87a.26.26 0 0 1-.35 0 .45.45 0 0 1-.16-.3l.24.08c2.12-4.82 7.87-9.91 10.82-10.65-5.34 3.13-6.52 7-9.54 11-.66.89-.95.77-1.42.58-.08-.08-.22-.24-.3-.08a1.1 1.1 0 0 0-.28.86.81.81 0 0 0 .41.5c.48.31 2.37-1.21 2.64-2.47s3.61-5.79 4.94-7.13a12.26 12.26 0 0 1 3-2s-.55 1-.38.82a18.8 18.8 0 0 1 3.48-2.19c-4.25 2.28-8.07 7.79-10.52 11.52.95-1.44 2.59-2.12 3.2-3.79a25.45 25.45 0 0 0 2.89-2.93 10.51 10.51 0 0 0-1.46.91L77 76a15.17 15.17 0 0 1-4.19 4.75 6.81 6.81 0 0 1-.46 1l-.21.22a27.63 27.63 0 0 0 5.91-6.39c-1.78 4.61-7.35 7-10.23 10.89a1.36 1.36 0 0 1-1.14.64c.57.12.3.93 1 .93.92 0 1.57.09 2.46.09-.56-.56-1-.16-1.61-.36-.55.16-.67-.52-.49-.87 1.74-2.44 4.17-4.12 6.46-5.84a16.08 16.08 0 0 0 4.61-6.45c-.85 4-5 7.43-8.1 9.34-.32.32-.64.45-.7.79h.22c3.13-1.34 5.11-3.73 7.25-6.17a11 11 0 0 0 2.16-3.7c-.24 2.77-3.92 6.15-6.55 8.5-2.34 1.87-3 .92-4.63 3a28.73 28.73 0 0 0 10.65-8.9 10.87 10.87 0 0 0 1.88-4c.18 2.93-3.52 6.55-5.79 8.85-2 2-4.71 3-7 4.45-.12.16-.38.28-.36.5.24.16.45.38.79.28.18-1.26 1.5-1.22 2.73-1.9 3.72-2 9.54-8.25 11.24-12.2-1.67 5.55-9.08 11.87-13.78 13.79.33.68 1.11.6 1.7.78 2.32.19 4.84 0 7 .51h1.68c-1.36-.67-3.08-.44-4.59-.67l-3.82-.38a2 2 0 0 1-.77-.21c3.16-1.58 9.92-6.76 12.26-11.18-1.88 5.69-8.71 9.12-11.33 11.24v.06l3.24.29.37.1 4.52.13.77-.22a6.14 6.14 0 0 0-3.06 0c-1.64-.58-3.49 0-5.17-.5 1.48-1 2.67-1.86 4.63-3.31 3.1-2.44 6.14-4 7.43-9.77-.65 7.36-7.3 10.09-11.08 12.87a2.77 2.77 0 0 1 .39.13l.61.13h1.95s-.18-.22 0-.22l3.73.17a29.42 29.42 0 0 0-4.53-.47c-.17.05.11.33.11.33h-1l-.57-.06-.1-.06a7.07 7.07 0 0 0 2.71-2c3.91-1.34 7.86-5.93 8.82-10.61a13.24 13.24 0 0 1-5 8.71c-2 1.56-3.41 1.65-4.86 3.15.59-.3.69-.29 1.78-.86 3.55-1.82 7.81-5.34 8.38-9.88a6.67 6.67 0 0 1-.13 1.68c-.89 4.31-5.12 6.71-8.53 8.74l2.57-1.2a12.81 12.81 0 0 0 7.16-9.52c.52.53.44 1.84.54 2.66-.06.44.57.49.1.83a.9.9 0 0 1 .43.21l.29.14v-.41c-.06-.08 0-.16-.07-.26a2.87 2.87 0 0 1-.39-2 4.91 4.91 0 0 0 .77 2.44l-.14.48.14.24-.36-.28s-.21-.28-.2-.22a.43.43 0 0 1-.26.1c-.28 0-.4-.46-.66-.6-.22.28-.49.62-.3 1l.35-.36c.32.12.77 0 .93.36-.32.4-.75-.18-1.07.22 0 .14.06.2.14.28 1.42-.56 1.46.9 2.29 1.44-.08.76-.89 1.4-1.5 1.74-1.07.4-1.76 1.72-3 1.72-.71.06-1.46-.42-2-.14a3 3 0 0 0 2.58.57c1.4-1.34 3.69-1.6 4.34-3.67.18-.08.35.22.35.22-.59 1.9-2.82 1.9-3.77 3.51a13 13 0 0 0 4.69-3.88l.11-.12a6.27 6.27 0 0 1-.8-.07.92.92 0 0 1-.8-.61 2 2 0 0 0 .85.4 2.19 2.19 0 0 0 1.09 0q.3-.25.62-.46l-.22-.22a.51.51 0 0 1-.71.22c-.16-.28 0-.7-.36-.88-.22 0-.49.22-.49.22l.57.66c-.51.46-1.28-.84-1.72-.08-.22-.2-.59-.56-.36-.94.34.36 1 .2 1-.22l-1.22-1a19.33 19.33 0 0 1-.29-2.29L86.51 75a2.41 2.41 0 0 0-.39-1.29 2.76 2.76 0 0 0-1.42-1.13c1.76 0 1.93 1.26 2.66 1.6l.84.38c-.65.23-.87 0-1.39-.27-.16.26 0 .34.19.58a14.35 14.35 0 0 1 1.11 1.11c.08.29 0 .72 0 1-.12 1.22.93 1.82 1.78 2.38h.34a5.4 5.4 0 0 1-1.67-3.21 17 17 0 0 0 2.74 3.55c-.27.26-.45-.34-.71-.08a1.35 1.35 0 0 0 1.12.58c.06-.08.39-.12.37-.22-.18 0-.61.06-.73-.06.65-.66 1.42-.08 2 .2-.16.28-.76-.14-.63.36l.36.44c.37-.26.65-1 1.13-.8-.32.56-.95 1.22-1.56 1.16a1.52 1.52 0 0 0-.57-.86l-.14.14c-.08.38.3.58.43.86 0 0-.08.1-.14.08a.75.75 0 0 0-1.13 0c-.23.23 0 .5.27.5l.08-.08c.14 0 .31-.26.43 0a6.17 6.17 0 0 1-.71.58c1.44 0 2.23-1.9 3.69-1.71-1.19.54-2.11 1.7-3.34 2.08a1.69 1.69 0 0 1-1.28-.14c.28-.24.57-.56.36-.94l-1.78 2.37c-.45.22-1.22.08-1.28.8A3.43 3.43 0 0 0 90 83.35c1.36.78 2.37-.66 3.41-1.36.79-.5 2.19-.66 2.27-1.8-.16 0-.24.2-.35.28a.3.3 0 0 1-.36-.14.86.86 0 0 1 .1-.27l-.79-.44c-.58-.26-1-.91-1.58-1.15-.34.16 0 .42.14.56a6.23 6.23 0 0 0 .81.88 7.06 7.06 0 0 1-1.39-1.09c-1.1.62-1.85-.37-2.25-1.15a5.49 5.49 0 0 1-.79-2.44 9.48 9.48 0 0 0 2.12 3.44c.53.13.63 0 .87-.2-1-.28-1.74-1.83-2.16-2.72l2.3 2.64a.46.46 0 0 0 .49-.22 4.84 4.84 0 0 1-2.13-2.73A6.77 6.77 0 0 0 93 78a2.57 2.57 0 0 0 1.34 1.45s1.7.41 2 .84c-.69 1.82-3.18 1.68-4 3.18 1.52-1 3.84-1.38 4.46-3.31l-1.92-.72c-1.1-1.3-2.42-1.78-3.37-4-.11-.27-.11-.64-.23-.8-.86-1.14-2.07.27-3.34-1.24.84-.06 1.56.83 2.18.2a8.37 8.37 0 0 1-1.84-1 6 6 0 0 1 1.76.76c.46.08.89.68 1.28 0a4.69 4.69 0 0 1-2-1.24l.06-.06.49.36c.73.26 1.56 1.16 2.29.58-1-.76-2.37-.76-3.2-2l.06-.06c.26 0 .38.28.57.42A7.3 7.3 0 0 0 92 72.44c0-.62-.63-.76-1.09-1.24a3.74 3.74 0 0 1-1.75-.91 3.66 3.66 0 0 1 1.36.44c-.42-.28-.53-.8-1-.94l.08-.06a.59.59 0 0 1 .71.36 4.91 4.91 0 0 0 3.06 2.29A3.46 3.46 0 0 1 91 74.23l.17.3a6.41 6.41 0 0 0 2.71 2.87c-.14.1-.06.28-.08.42.87 1.36 2.29 1.56 3.69 1.8A26 26 0 0 1 94 77.4c.32-.3.47 0 .85.06 1 .84 2.05 1.7 3.26 1.58-1.42-.44-2.35-2.1-4-2.08-.73-.52-1.88-1.33-1.92-2.23a4.09 4.09 0 0 0 1.62 1.52c.43.09 1.06.43 1.44.17 0 0 0-.08.13.12a3.76 3.76 0 0 0 3.74 1.79s-2.88-.25-3.68-2l-.08-.08-.19-.05a4.27 4.27 0 0 1-1.43-.45s-1-.74-1-1.22c.36.48.81.58 1.22 1a3.14 3.14 0 0 0 1.35.16c.15 0 .36.14.51.3a4.18 4.18 0 0 0 3.73 2.09s-3.41-.88-3.58-2.55c0-.22-.67-.1-.67-.1a3.85 3.85 0 0 1-1.42-.54c-.43-.34-.69-.62-.5-1a11 11 0 0 0 3 1.38c.27.88.83 1.18 1.36 1.71a2.72 2.72 0 0 0 2.71.36 4.46 4.46 0 0 1-3.42-1.8c.51.16 1.07.64 1.64.86a2.18 2.18 0 0 0 2.33-.14c-1.83.24-3-1.16-4.54-1.65l-.77-.06A2.78 2.78 0 0 1 94 73.44a6.24 6.24 0 0 0 2 .87l.61.14a10.35 10.35 0 0 1 3.47 1.43 2.75 2.75 0 0 0 1.5-.44c-.87-.15-1.95.07-2.65-.39l-.89-.61a.48.48 0 0 1-.18-.21.48.48 0 0 1 .23.14 11.51 11.51 0 0 0 1.15.54c1.12-.07 2.29.44 3.19-.24-1.4.56-2.57-.32-3.69-.86 1.28.2 2.57 1.08 4.11.64v-.08a7.11 7.11 0 0 1-3-.81l-1.84-.35c-.43.5-.73 1.38-1.87.8l-1.48-1c.69 0 1.42 1.14 2.33.94l.44-.44c-.26-.54-1.19-.24-1.64-.36 0-.1-.1-.14-.14-.22.82.42 1.62-.14 2.45 0l1.82.54c1.17 0 2.28 1.06 3.41.23a3.14 3.14 0 0 1-2-.56c.77-.24 1.56.16 2.35-.08v-.08a2.91 2.91 0 0 1-1.78-.56c.69-.36 1.56.38 2.19-.08-.36-.34-1-.2-1.28-.58.57-.58 1.24 0 1.86-.36-.18-.26-.77 0-.85-.5.38-.34.95-.24 1.42-.36-1.32-.2.35-.88.14-1.36-1.91 1.69-3.83 3.9-6.18 3.79-.85-.94-2.07.38-2.92-.56l.08-.08c.22.06.51-.12.63.14l1.42-.14-.41-.26c1.07-.3 2.11.92 3.06.08a7.29 7.29 0 0 1-2.57-.58c.85-.12 1.88.56 2.63.08-.83-.32-1.9-.2-2.49-.93 1.07.28 2.63 1 3.71.22l-.16-.13h-.73a3 3 0 0 1-2.32-.91c-1.67 1.84-3 2.83-5.2 2.53-1.86-.26-2.62-2.33-4-3.11a1 1 0 0 1-.85-.58c1.11.56 2.19.68 2.84 2.29a4.23 4.23 0 0 0 3.77.94c.06-.1.22-.16.22-.28-1.15.06-1.18-.36-1.78-.36-1.86 0-2.23-1.68-3.28-2.45.95 0 1.67 1.68 2.7 2.16 1.11-.4 2 1.19 2.77 0a3.8 3.8 0 0 1-3.26-.86l-.43-.58a5.61 5.61 0 0 0 4 1.38c.18-.1.46-.1.49-.3a6.28 6.28 0 0 1-3.12-.62 3.41 3.41 0 0 0 1.62.08c-.53-.28-1.19-.38-1.78-.66s-.85-.54-.85-.7a14.9 14.9 0 0 0 4.19 1.58 1.37 1.37 0 0 0 1.07-.5c-.73-.21-1.85-.22-2.66-.44a3.4 3.4 0 0 1-1.94-1 13.58 13.58 0 0 0 5.53 1.14 3.64 3.64 0 0 0 2.28 1.1c.53 0 .36-.06.36-.06a6.18 6.18 0 0 1-1.57-.89c.49-.06.93.4 1.42.52a2.69 2.69 0 0 0 2.07-.58c-1.26 0-2.57-.08-3.42-1l-1.32.16a4.76 4.76 0 0 1-3.69-.33c-.24-.44-1.16-.34-1.94-.47h-.5c-.34.07-.92.34-1.25 0 .35 0 .68-.06 1-.08l.6-.09c2.1-.14 3.84 1.12 5.83.84l1.22-.09c.38 0 .74.36 1.11.5 1.26.06 2.84.32 3.77-.5a6 6 0 0 1-3.34 0c-.25-.18-.81-.17-.85-.47h-1.64a5.08 5.08 0 0 1-3.83-.51v-.3c1 .92 2 .73 3.92.72h1.68a2 2 0 0 1 1.21.43c1.24-.2 2.72.16 3.69-.66-1.21.44-3.2.71-4.27-.23l-2.07-.2a3.38 3.38 0 0 1-2.57-.13l2.56.05 2.14.14a.94.94 0 0 1 .66.31 4.19 4.19 0 0 0 4-.94c-1.13.6-3 1-4.13 0 1.11 0 2.65.28 3.69-.22.28-.14.67-.3.71-.64a4.08 4.08 0 0 1-3.83.28c.91-.18 2.09.4 2.84-.22-.49.12-1.15-.53-1.42-.13-.63.2-.91-.21-1.34-.43a2 2 0 0 1 1.13.32c.49-.72 2.09.14 2.7-.9-1 .24-2.31.5-3.2-.22 1.11.1 2.63.52 3.42-.64-.71.14-1.34.92-2.13.42.53-.38 1.36-.24 1.78-.78-.73.14-1.42.6-2.21.42.81-.58 2-.42 2.7-1.44a2.08 2.08 0 0 1-.85.39c-1 .36-2.57-.09-2.78 1.27-1.47 2.22-3.54 3.17-5.89 2.37.63-.18 1.52.06 2.05-.22-.57-.24-1.36 0-1.86-.5 1.14 0 2.88.42 3.77-.44A7.93 7.93 0 0 1 98.4 65c1.3-.08 2.84.26 4-.36a12.34 12.34 0 0 1-4.08-.36l-.39.17A4.54 4.54 0 0 1 93 67.34l-.93-.3c.57-.06 1.21.4 1.84-.07l-1.27-1c.59.06 1.4 1.1 2.21.72l-.71-.69a2.64 2.64 0 0 0 1.62.44l.35-.36c-.51-.24-1.5-.26-2.05-.86.89.18 2.23.75 2.92-.08a5.07 5.07 0 0 1-2.21-.72l-.35-.42c1 .59 2.41 1.11 3.44.4l.47-.14c1.66-.06 3.48.64 4.9-.43l-.91-.14c.24-.32.77-.24 1.13-.42 1.15-1.26 3.29-.39 3.91-2.6-2.49 1.19-4.74 3.53-7.88 3.09-1.68-.2-3.49.78-4.92-.3l.08-.06c2.53 1.38 4.39-1.32 6.81-1a10.78 10.78 0 0 0-2.06.8c.95.08 1.82-.72 2.77-.64-.57.26-1.78.78-1.78.78a3.06 3.06 0 0 0 .87-.06c2.15-1 5.27-1.76 5.89-4.47-1 1.34-2.33 2.89-4 3.17l.14-.3.19-.13c1.43-1 3.17-2.45 3.59-4-.76 1.81-2.63 3.13-4.25 4.06 0 0-.68.39-.87.35h-.15c.3-.72 1.28-.54 1.72-1.08-1.18.1-2.05 1-3.28.94-1.46 1-2.91 2.22-5 1.16 2.29.56 4.4-.72 5.89-2.59h.35l1.17-.05c.57-.44 1.14-.88 1.75-1.26l-1.21.29a6.57 6.57 0 0 0-1.62.58l.5-.42c-.51-.23-.31-.07-.63.06a7.65 7.65 0 0 1-3.49 2.78c-.25.05-.62.2-.82 0s0-.43.28-1 2.22-.63 2.83-1.77c-.2 1.1-2.29 1.66-2.45 1.82s-.52.67-.21.67a7.6 7.6 0 0 0 3.43-2.65 4.77 4.77 0 0 1 1.84-.54c.8-.13 2.29-.47 2.29-.47a4.72 4.72 0 0 1-2.5 1.95l-1.15.17c-.27.22-.62.42-.6.76a6.44 6.44 0 0 0 2.41-.78c1.21.12 2.18-1.65 2.41-1.87s-.28-.22-.14-.36a12.39 12.39 0 0 0 1.64-1.93c-1.72 2.17-4.27 2-6.67 2.73-.42.13-1.14.73-1.56.79a1.52 1.52 0 0 1-1-.29c-.45.28-.93.52-1.36.77s-.43.61-.31.61a.75.75 0 0 0 .31-.13l1.5-.77a9.09 9.09 0 0 1-1.16 1c-.73.45-1 .34-1 .16a2 2 0 0 1 .32-.81c.25-.16.5-.37.75-.57-.24-.12-.64.15-1.08-.06a5.91 5.91 0 0 0 2.06-.55 2.07 2.07 0 0 0 .88.25c.44 0 2.19-1.25 5-1.72.79-.24 1.68-.34 2.19-1.08l-.63.28c-2.9-.06-5 2.1-7.9 1.8a2.39 2.39 0 0 1-2.33.58c.73-.38 1.5.17 2.24-.87a29.75 29.75 0 0 0 8.26-2.36h-.14c-2.83.33-5.16 1.91-8.1 1.93a1.35 1.35 0 0 1-1.14-.06c1.11-.14 2.41-.28 3.55-.5a14.71 14.71 0 0 1 6.48-1.88c.3-.2.93-.4.77-.94a4.65 4.65 0 0 1-3.44.87l-3.2 1.16a6.37 6.37 0 0 1-4.22.43c1.62.23 3.14-.39 4.6-.78l2.8-.93c1.25-.42 2.69-.55 3.46-1.83l-.14-.14a15.44 15.44 0 0 1-9.74 2.79c3-.51 5.94-.88 8.39-2.58.49-.3 1.24-.78 1.28-1.44a14.63 14.63 0 0 1-4.26 2.16c1.24-.94 3-1.64 3.75-2.81a6 6 0 0 1-2.47 1.4l-1.31 1.06a4.77 4.77 0 0 1-5.1.94 7.12 7.12 0 0 0 5-1l1.12-1.07c1-.85 2.5-1.49 2.7-2.75-.51.72-1.14 1.78-2.07 1.74a5.52 5.52 0 0 0 1.78-3 10.62 10.62 0 0 1-1.42 2.15l-.06-.06a11.58 11.58 0 0 0 1.2-3.81l-1.15 2.93c.28-2.05 1.3-4.35.51-6.61-.12.55-.16 1.12-.25 1.66 0 .16.17.21.17.21.08 2.63-1.14 4.73-1.7 7.1a5.25 5.25 0 0 1-3.5 2.16 3.83 3.83 0 0 1-1.13-.22c1.7.22 3.08-.88 4.27-2.08l-.08-.08a5.72 5.72 0 0 1-4 1.52l-.36-.08a6.33 6.33 0 0 0 4.7-2.16c.13-1.86 1.16-3.34 1.6-5.06v-.77l-.29.52c-.47-1.36.33-2.79-.14-4.09-.73 2.29.65 5.55-1.12 7.59l-.49 1.08c-.12.58-.53.88-1 1.31-1.41 1.17-2.56.92-3.83.66a5.45 5.45 0 0 0 3.69-1l1-1.12s.47-.86.46-.91c.1-.38.45-.71.33-1l-1.28 1.94c-.81 1.2-2.27 1.3-3.55 1.3l.79-.28c2.11 0 3.91-4 3.91-4a9.8 9.8 0 0 1-2.71 2.87c-1.48.32-2.92 1.58-4.32 1.28 1.23-.46 2.47-.8 3.69-1.28a7.68 7.68 0 0 0 2.17-2.19l-.76.39a6.7 6.7 0 0 1-1.05.86l-2.57 1.08a6.74 6.74 0 0 1 1.92-.94l1.54-1.19a11.73 11.73 0 0 0 1.32-.88 7.85 7.85 0 0 0 .63-1.6c-.89 1.6-2.57 2.17-4 3-1.11.42-2 1.68-3.12 1.72A6.34 6.34 0 0 0 98 49.44c2-1 4.74-2.39 5.2-4.73a7.78 7.78 0 0 1-4.84 3.59c0-.24.29-.24.43-.44a6 6 0 0 0 4-4c-1.06 2.42-3.79 3.14-5.61 4.68l-.06-.06.85-1c1.82-1 4-2.75 4.35-4.83a6.4 6.4 0 0 1-3.11 3l-.89.86c-.13.16-.36.33-.49.49a1 1 0 0 1 .36-.56l1-.86c1.37-1.33 2.83-2.82 2.85-4.6a4.27 4.27 0 0 1-.57 1.44c-.53 1-1.25 2-2.21 2.14l-1 .94c-.22.84-1.24 1.4-1.69 2.22h-.14a24.39 24.39 0 0 1 1.57-2.2s.91-1.09 1-1.16a8.5 8.5 0 0 0 2.39-3.45c.08-.7.32-1.36 0-1.87.2 3-3.24 4.41-4.13 6.9a3.15 3.15 0 0 1-1.92 1.44c.47-.64 1.16-.66 1.48-1.36.71-2.77 4.21-4.37 3.91-7.54C100 41.32 98 43.33 96 46l-.06-.08a8.67 8.67 0 0 0 1.62-3.81c0-1-.08-.68-.28-.86a4.9 4.9 0 0 1-.35 2.24c-.34.58-.51 1.55-1.21 1.64.63-1.4 1.62-3.22 1-4.8a6.19 6.19 0 0 1-1.24 3.16c.18-1 1-2.28.71-3.45l-.27.94c-.34.48-.63 1.26-1.21 1.36v-.08c.49-.8 1.44-1.76 1.13-2.65a8 8 0 0 1-.63 1.21c-.08-.48.45-1.56 0-2a8 8 0 0 1-1 2.74c0-.74.51-2.52.35-2.52s-.3 1.24-.71 1.66c-.24-.6.83-2.33.22-2.08l-1.07 1c-.16-.28.42-.68.24-1s-.44.36-.65.38l-.22-.42a1.37 1.37 0 0 0-1 .28 9.51 9.51 0 0 1 1.28 3.38c.34 3.61-.2 6.82-2.9 9.21-2 .4-3.71 1.84-5.41 3-.63.46-1.44.66-2 1.16l.22.22c1.74-.3 3-1.86 4.48-2.73a18.32 18.32 0 0 0 3.69-2.1c2.76-2.54 2.63-6.79 1.91-10a7.82 7.82 0 0 1 .49 1.64c.39 3.57 0 6.81-2.76 9.06-2.82 1-4.94 3.75-7.82 4.59C78.93 53 75.21 52.68 70.74 52c.28-.34.67-.72.51-1.16a4 4 0 0 1-2.43 1.79.34.34 0 0 1-.14-.36 1.67 1.67 0 0 1-1.28-.06c.89-.3 2-.48 2.49-1.37.39.5-.41.8-.35 1.08.49-.36 1.07-.9.93-1.49l-.08.06c-1 .22-1.78-.66-2.27-1.44l.22-.2c-.61-.54-1.28-.92-1.92-1.38.77-.06 1.38.7 2.13.94-.34-1.18-1.88-1.64-2.92-2.23 1.4-.24 2.43 1 3.69 1.08-1-1.85-3.38-2-5.33-2.35 1.62-.28 3.14.44 4.56.5l-.49-.58a12.88 12.88 0 0 0-4.56-.94v-.06c1.46-.38 3 .32 4.27.5-.63-.34-1.34-.56-2-.86 1-.34 1.76.58 2.57.5a12.81 12.81 0 0 0-2.76-1.38 4.34 4.34 0 0 0-4.27.88c.22 2 2.43 2.84 4 3.43l-.71.52c-.26 1.26 1.34 1.74 2.07 2.52a.52.52 0 0 1-.08.5c-.63-.22-.73-1.1-1.42-1.22a9.46 9.46 0 0 0 5 5.23c4.48.08 8.73.7 12.36 2.81 2.82-.58 4.32-4.57 7.33-4.45a3.68 3.68 0 0 1-.41 1.44l-.57-.52c-.31.22-.3.58-.3.94.32.8.89 1.68.65 2.52A6.4 6.4 0 0 0 88 54.91c-.12 0 0 .2-.06.28 0 .28-.32.32-.43.3.3 2.49.91 4.93.57 7.6.16.18.32.36.57.3a1.43 1.43 0 0 0 .61-.49 11.07 11.07 0 0 0 .3-1.47c.1-.55 0-3 0-3a6.65 6.65 0 0 1 .15 3.19l-.2 1.38a1 1 0 0 1-.07.25c-.24.66-.95.54-1.42.86 0 0 .34 1.44-.06 2-.19-.19-.06-.38-.22-.52a8.73 8.73 0 0 0-.65 2.87l-.28-1.14a23.9 23.9 0 0 0-.81 2.9l-.22-.52-1.81 2.39a8 8 0 0 0-3.66-.37 7.29 7.29 0 0 0 2-2.38c.1.36-.22.86-.22 1.08a4.51 4.51 0 0 0 1.34-3.16c-.08.46-.42.84-.49 1.3a6.84 6.84 0 0 1 .06-1.72l-.57 1.28c-.18-.58.26-1.34 0-1.8a26.09 26.09 0 0 1-1.62 4.17c.77-3.07 1.87-6.33 1.62-9.76l-.41 2.44c-.06-1.38.41-2.78.14-4.23l-.43 2.65c-.16-.8 0-1.46-.14-2.24l-.35 1.8c-.16-.74 0-1.68-.14-2.37-.51 2.69-.95 5.41-1.56 8.06a51.14 51.14 0 0 0 .63-7.18c-.24 1.48-.1 3.11-.71 4.45-.12-1.5.51-2.93.3-4.45l-.22.78c-.18-.44 0-1.1-.22-1.44-.63 3-1.2 6-1.56 9.06.06.4.77.88.22 1.22l-.16-.36-1.34 2.51c0-.9.73-1.85.85-2.65a7.55 7.55 0 0 0-2 3.87c.95-.42 1.33-1.46 1.95-2.15.14.5-.49 1-.36 1.44 1.78-.68.79-3.23 2.49-3.81a8.28 8.28 0 0 0-.36 3.67c-.41.3-.61-.22-.71-.44-.08.22-.08.51-.14.73a14.79 14.79 0 0 0-4.41 2.17c-4.67 3.5-8.95 8-8.87 14 1.48 3.23 4.88 4.43 7.72 5.16.24 0 .49 0 .57-.16s.18-.62-.36-.66a7.09 7.09 0 0 1-4.32-1.28l-.31-.3c2.48.39 6.1-.3 8.7.5l-.08.08c-2.37-.1-5-.08-7.39-.3 1.6 1.52 4.31.66 6.32 1.3-.79.16-1.66-.1-2.39 0 .26.22.35.7.69.76.95.34 1.66-.58 2.41-.72a3.23 3.23 0 0 1-2.75 1.12 4.78 4.78 0 0 0 1.24.2c1.21-1 2.13-1.18 3-2.34-.91.86-3.11.2-4.31.3a5.82 5.82 0 0 1 3.44.06 9.22 9.22 0 0 1 1.21-.78l.28-.21h-.92c-3.08-.26-6.2-.4-9.38-.44a1.74 1.74 0 0 1-1.82-.92 4.71 4.71 0 0 0 1.89.45l5.26.18c1.52-.46 2.55.51 4 .29l1.42-.14a8.13 8.13 0 0 0-2.26-.41c-3.05-.64-8.71-.13-10.23-.86a4.76 4.76 0 0 1-.57-.36 1.27 1.27 0 0 1-.31-1c2.51 1.52 6.59.39 9.77 1.23 1.22.32 2.76.14 3.89.64l-.15.13h-.26c-4.09-.8-8.79-.74-12.64-1.43a.32.32 0 0 0 .07.34c.46.46 5.1.59 8.88.74a19.18 19.18 0 0 1 4.13.72l.57-.2a21.73 21.73 0 0 1-4.48 4.87c-.65 1.52-2.06 2-3.42 2.88a10.48 10.48 0 0 0 2.52-1.38c.71-.72 1.25-1.41 1.83-2l.06.06-.77 1c-1.92 2.36-5.08 3.69-8 2.71l.4.22c5.25 1.43 7.14-2 9.83-5a4.8 4.8 0 0 1 1.86-2.16l.06.06c-.69.76-1.19 1.6-1.78 2.38-.06.72.4-.16.65.22-.14.38-.57.62-.51 1.08 1.86.72 3.85-.18 5.84.22 2.43 1.16 5.27 1.34 7.39 3.29l-.08.08A8.42 8.42 0 0 0 87.74 97c.26.84 1.13 1.1 1.84 1.3a3.61 3.61 0 0 0 1.28 1.79c0-.4-.67-.66-.06-1-.24-.28-.63-.28-.79-.58.34-.24.53.24.93.08 1.22 1.28.79 3.25 2.19 4.45l.08-.08c-.49-1-1.32-1.91-1-3.15l.36.72c.18-.46-.37-.68-.08-1.08a5.25 5.25 0 0 1 1 2.79l-.63-.86a26.66 26.66 0 0 0 2.41 4.09c1.26.88 1.92 2.34 2.92 3.37l-1.42-2.22c-.55-1.26-2.47-1.62-2.27-3.09.69.7 1.24 1.56 2 2.3-1.46-2.44-2.77-4.93-4.33-7.32-2.25-2.09-5.17-2.57-7.9-3.45l-.91-.35a17.31 17.31 0 0 0-4.62-.16c-.06-.38.37-.46.55-.72-.69-.69.25-1.2.71-1.79.18 0 .43-.5.43-.22l-.85.94a14.12 14.12 0 0 1 3.7.59 31.12 31.12 0 0 1 6.63 2.77 40.13 40.13 0 0 0-8.06-2.65l-2.27-.58c-.2.16-.39.42-.22.66a2.22 2.22 0 0 0 2.35.5 4.61 4.61 0 0 1 1.63.58 7.9 7.9 0 0 0 1 .33c.29 0 1 .29 1.24.09 2.17.68 5.11 1.61 6.18 2.87l-1.34-1.58c1.54.62 3.35 2.26 3.41 4.17.35.94 1.4.8 2.19 1a7.11 7.11 0 0 0-1.56.3 12.74 12.74 0 0 0 2.76.14c.24 0 .81.2.51.58.41.36 1.13.2 1.62.14-.24-.3-.69 0-1-.22 1.6-.16 3.06-.84 4.7-.8-1.48-.36-2.94.36-4.42.22 1.5-.4 3.1-1 4.78-.58-1.63-.92-3.19.34-4.81.38zM68.31 50.12c-.17 0-.62-.81-1-1.19.46.34 1.17 1.19 1 1.19zm2.91 2.8a10.51 10.51 0 0 1 4 .36 26 26 0 0 1 6.31 2.41 41.46 41.46 0 0 0-10.31-2.77zM81.69 85.1c1 .25 2.52 1 3.37.29-1.59.91-2.43-1.17-3.37-.29zm21.2 17.08s0 .25.13.08-1.18-.28-1.18-.28zm-6.59 4.56a7.83 7.83 0 0 1-2.13-2.47 3.41 3.41 0 0 0 2.13 2.47zm1.61 2.43c-.36-.51-.67-1.15-1-1.62a1.73 1.73 0 0 0 1 1.62zm-1.12-.64l-2.42-2.8a16 16 0 0 0 2.42 2.8zM60.4 85.67A2.38 2.38 0 0 0 58.94 87a1 1 0 0 1 .73-.45c.33-.18.95-.55.73-.88zM40.52 57.29a20 20 0 0 0 9.78-2.63c-1.92.58-5.29 2-7.77 1.58 1.08-.23 3.41-.6 4.27-.89 1.39-.48 3.45-1 4.61-2.21a16.46 16.46 0 0 1-4.82 1.69 33.76 33.76 0 0 0 4.29-2.2 23.19 23.19 0 0 1-10.68 2.74c-1.83 0-3.92.11-5.54-.64a6.25 6.25 0 0 1 2 .05c1.91.3 8.86.14 12.58-2.15a18.05 18.05 0 0 1-5.93 1.22 27.85 27.85 0 0 0 5-1.5s-5.9 1.39-6.11 1.43-2.59.39-3.3-.16a28 28 0 0 0 8.56-1.55A39.17 39.17 0 0 1 34 52.6a1.22 1.22 0 0 0-.76 1.47c.65 2.93 5.54.93 7.28 3.22zm11 29.18c1.09-.06 1.9-1 2.67-1.52-.66-.25-1.38.63-1.47.55.17 0 .22.12.35.2a21.74 21.74 0 0 1-5.66 1.12l-.29.24c1.48.14 3.49.11 4.48-.51zm-1 .09s0-.14.39-.22a.6.6 0 0 1 .57.12zm-4.61.19a7.5 7.5 0 0 1-1.18-.23 1.75 1.75 0 0 0 1.18.24zm0 0a9.94 9.94 0 0 0 1.51.06l.22-.19a14.75 14.75 0 0 0-1.73.14zm4.61-3.08c0-.52-.39-.21.52-.22l.49-.16c1.22-.07 2.06-.74 3.23-1.19l-3.65.62.69.15c-2.24.57-4.22 0-6.52.38a6.5 6.5 0 0 1 1.58.06 6.64 6.64 0 0 1-2.92.44c-2.7-.13-6.11-.72-7-3.77a1.4 1.4 0 0 0 .1 1.42c1.45 3.6 8.88 3.31 13.48 2.28zM25.3 40.38a14.13 14.13 0 0 1 3.16 1.29c-1.28-1.36-3.21-1.67-4.62-2.9 1.22.15 2.77 1.29 3.68 1.49l-.84-1c.26-.22.57.29.92.29v-.3a12.75 12.75 0 0 1-2.72-1.42c1-.06 2 .83 3.15.77l-5.92-2.95c.23.51 1.62 1.29 2.23 1.76-.69.27-1.42-1.12-1.74-.79a.53.53 0 0 0-.13.65 1.49 1.49 0 0 0 .71.89l-.3.31 1.37 1.23c0 .09-.08.13-.17.13 1.29 1.58 3 2.24 4.76 3.2.17 0 .48.08.61-.1-1.3-.93-2.74-1.71-4.15-2.55zm21.54 11a25.31 25.31 0 0 1-7.1.44c1.25-.59 5.13-.08 7-.89-2.67 0-8.14.58-11.63-.21a6.1 6.1 0 0 1-2.59-.94c.6.11 1.33.36 2.38.5a29.12 29.12 0 0 0 12-.45c-3.76 0-7.54.48-11-.24 3.49-.37 8 .51 10.9-.74a67.23 67.23 0 0 1-7.47.17 35.9 35.9 0 0 1-8.08-1.23c-.52.35-.26 1.21-.06 1.71.85 2.21 4 2.78 6.54 2.86 3.06.15 7.27.27 9.11-.97zm-.13-3.75c-2 .33-8.78.7-11.53-.15 1.95.6 8.12-.17 10.24-.77-2.83.8-9.19-.65-13.2-.58a21.91 21.91 0 0 1 5.3 0c2.37.3 5.91.36 6.4-.14a1.17 1.17 0 0 0-.8-.27 41.3 41.3 0 0 1-8.73-.36c2.61-.26 7 .63 8.88-.64a32.39 32.39 0 0 1-10-.7c-4.43-1.28-3.92.15-3.88.66a4.08 4.08 0 0 0 1.31 2.08c2.3 2.24 12.53 2.71 16 .88zm11.85 35a37 37 0 0 1-3 3.68 32.77 32.77 0 0 0 3.44-3.2c-.09.33-.38.52-.51.74A26.78 26.78 0 0 1 65.6 79a14 14 0 0 0-3.42 1.4A6 6 0 0 1 65 78.64c1.3-.45 2.75-.46 3.87-1.17-4.93.53-9.87 1.94-13.67 4.88v.3a1.06 1.06 0 0 1-1 .32l.13-.09a22.43 22.43 0 0 1-9.9 2c1.92.44 4-.07 5.83-.41 1.13-.19 2.16-1 3.25-1-1.63 1.45-3.81 1.62-5.84 2.09a12.58 12.58 0 0 0 5.42-1.34c1.17-.45 2.15-1.68 3.32-1.91a18.16 18.16 0 0 1-4.27 2.84c3.59-1.38 6.67-4.91 10-5.31-4.58 2.23-7.89 7.3-12.38 9.62A9.35 9.35 0 0 0 54 86.6c-.41 1.26-1.92 2.1-2.86 3.16-.44.29-1.14.71-1.54.93 3.55-1.59 5.96-5.4 8.96-8.09zm-2.06-.45l.13-.13s1.18-1 1.19-.78-1.32.88-1.32.88zm5.2-1.55L58.91 83l1.88-2c.39.12.6-.27.9-.41zm-1.43.63c0 .18-1.38 1-1.38 1s1.38-1.26 1.38-1.04zm-8.08 3.95a8.9 8.9 0 0 1-1.12.36 5.4 5.4 0 0 0 1.12-.4zm-2.59 5.48l-.31.14a1.26 1.26 0 0 0 .31-.14zm6.63-3.91c.3 0 .46-.7.82-.4-.38.61-1.42 1-2 1.46l1.07-.24a34.3 34.3 0 0 0 4.23-4.51c-1.02 1.21-3.14 2.38-4.11 3.69zm-6.8-.89A1.29 1.29 0 0 0 49 86zm0 0a3.22 3.22 0 0 0 1.12-.14 2.79 2.79 0 0 0-1.12.14zm1.46 1.63a6.16 6.16 0 0 0-1.78.11c.6-.05 1.35.54 1.78-.11zM54 85.91a20.41 20.41 0 0 0-2.37 1.89A6.54 6.54 0 0 0 54 85.91zm60.39 4l.59-1.26h-.09zm27.05-26.55a49.94 49.94 0 0 1-9.19-4.89c.86 1.11 2.26 1.83 3.64 3a36.36 36.36 0 0 1-4.84-3.29l1.25 1.35c-.12.12-1.08-.82-1.48-1 .67 1 2.65 1.91 3.48 2.65-.52.1-2.59-1.32-3.11-1.58a28 28 0 0 0 10 5.54c-3.62-.37-6.8-2.78-10-4.5v.3c1.32 1.14 2.69 2 4 3-1 0-1.81-1-2.73-1.51l2.74 2.46a2.54 2.54 0 0 0 1.09-.7c1.87.74 4.77 2.73 5.82.95.64-.93.09-1.49-.66-1.75zM130.5 61.7c-.43-.37-.16.16-.16.16l.94 1c-.33.1-1.15-1-1.16-.48.22.34 1.39.92 1.6 1.45l-1.9-1.27 3.62 3.75c-1.32-.59-2.58-2.23-3.82-3.2.16.61 1 1.08 1.06 1.72a10.2 10.2 0 0 0-1.5-1.31 30.12 30.12 0 0 0 7.42 5.79c0 .35-6.68-3.43-8.69-6.37.63 1.5 2 2.62 2.85 3.75a14.28 14.28 0 0 1-3.24-3.44c.78 2.49 3.41 4.13 5.32 5.69-1.71-.53-3.13-2.15-4.54-3.33 1.55 1.7 3.57 3.92 5.48 4.35 1.22.27 2.88.29 3.56-.88a1.38 1.38 0 0 0 0-1.61c-1.46-2-6.41-5.4-6.84-5.77zm14.27-3.3a24.43 24.43 0 0 1-9.94-3.08 27.53 27.53 0 0 0 6.42 3.22c-2.45-.44-5.08-1.82-7.19-2.69 1.59 1.1 3.38 1.63 5 2.59-1.52-.06-3.55-1.57-5.12-1.93A19.1 19.1 0 0 0 145 60.33c-4 .67-8.35-1.45-11.43-3.08.84.89 4 2.46 5 3-1.68-.25-4.77-2.18-6.21-2.83.3 1.38 4.35 2.57 5.81 3.85.43 0 .68-.49.93-.5 1.36-.08 4.89 1.54 6.67-.59.94-1.12-.26-1.75-1-1.78zm2.23-4.75a77.94 77.94 0 0 1-10.76-1.46c3 1.38 7 1.78 10.28 2.51-3.7.19-8-1.33-11.44-2.18 3.31 2.54 8.33 3 12.78 2.89A20.73 20.73 0 0 1 134.53 53s3.72 2.27 4.06 2.6c.09.09-3.56-1.79-5.28-2.8a30.11 30.11 0 0 0 4.56 2.85c-.78 0-3.1-1.41-3.49-1.32a19.1 19.1 0 0 0 8.51 3.56c1.21-2.05 3.63-1 5.11-1.56 1-.38 1.57-1 1.33-2.09s-1.59-.56-2.33-.59zm-8.35 1.89c.42.29 3.13.64 3.41.84a9.89 9.89 0 0 1-3.41-.84zm-7.59 13.53l1.15 1.1.21-.21a7.09 7.09 0 0 0-1.36-.89zm-4-3.78c-.51.88.76 1.29.78 2.06l-1.29-1.23c-.14.1-.27.16-.12.52.89 1.2 1.63 2.27 2.67 3.58-1.41-.88-2.27-2.68-3.37-3.57 1.3 2.26 2.91 4.71 5.63 6-2.23-.62-4.11-2.76-5.31-4.58-.45-.68-.87-1.63-1.46-1.45.23.78 1.08 1.06 1.26 1.66a11 11 0 0 1-2.05-1.92c4.25 6.19 4.32 5.85 5.77 6.46a2.19 2.19 0 0 0 2.81-.93c.13-.26.13-.39-.14-.86-.76-1.51-3.6-3.73-5.24-5.74zm-1.14 3.14a3.61 3.61 0 0 1 1.31 2.05c-.62-.62-.66-1.48-1.33-2.05zm-.85 4.57c-.6-.41-1.84-3.68-2.44-3.36a13.24 13.24 0 0 0 2.22 5.16c-1.49-1.06-2.11-3.56-3-4.72a4.48 4.48 0 0 1 .1.9l-.66-1c.51 1.85 2.15 4.15 2.83 5.78a31.35 31.35 0 0 1-3.24-5.26c.47 1.8 1.59 3.63 2.08 5.3a6.41 6.41 0 0 0 1.48.42 2.45 2.45 0 0 0 2.59-.89c.92-1.08-2.51-4.4-3.33-6.59-.77.26.5 2.75 1.37 4.26zm.56-3.2c-.4-.42-.63-1.06-1.28-1.23a7.29 7.29 0 0 0 2.58 3.06zM123 91.87c-1.42-.61-3.26-.37-4.9-.25a21.92 21.92 0 0 1 2.75.11c-1-.19-2.2.43-3.19-.08h-.24l-1.42-.48.09.21-.52.09 1.27.49c1.88.19 4.22-.11 6.28.55l-1.8-.62c.54-.61 1.21.29 1.68-.02zm42.5-68.79c-1.2 1.18-3 1.17-4.27 2.27a2 2 0 0 0 1.17-.23c1.13-.41 3.05-.66 3.11-2.04zm-5.56-1.85l1.22.28c-.77.44-2.4-.18-3 .78l3.14-.05c.17-.18.34-.31.38-.52a7.18 7.18 0 0 1 0 2.59c.73-.53 2.23-.16 2.73-1.2a4.14 4.14 0 0 1-1.51-.11c.47-.4 1.26-.15 1.87-.25.44 0 .79 0 .73-.53a5.58 5.58 0 0 1-2.21.25c.93 0 2-.72 3.25-1a2.06 2.06 0 0 1-1-.11 3.58 3.58 0 0 0 2.17-.77 26.58 26.58 0 0 1-7.76.64zm9.71-4.83c-.08.34-1.72 2.15-2.33 2.18.95-.45 2.55-2.7 2.45-3.65-1.73 3.4-5.37 4.62-8.62 5.63a42.35 42.35 0 0 0 4.6-1.21c-.86.53-1.91.68-2.81 1.17 2.23.39 4.26-1.23 5.85-2a7.49 7.49 0 0 1-3.3 1.91c1.52-.2 2.78-.09 3.91-1.49a2.51 2.51 0 0 0 .25-2.54zM166 24.49a1.75 1.75 0 0 0 .43-.91c0-.27-.18-.17-.18-.17a7.54 7.54 0 0 1-2 1.59c-1.17.49-2.6.61-3.54 1.49 2.09.09 3.38-.84 5.11-1.73a7.78 7.78 0 0 1-3 1.82c-1.26.41-2.22.1-2.68 1 1.19-.29 2.6-.48 4-.8-1.54 1.28-4.74.46-5.49 2.6 1.86-.46 3.82-.62 5.51-1.43a4.49 4.49 0 0 0 2.55-3.46c-.02-.6-.71 0-.71 0zm-14.53 20.28a27.84 27.84 0 0 1-11.51.17 28.52 28.52 0 0 0 10.6 1.45c-3.73.75-7.65-.23-10.93-1l-.43.22c1.54.64 4.83.69 6.27 1.52a50.06 50.06 0 0 0-6.42-1 8.21 8.21 0 0 1 1.07.39 26.05 26.05 0 0 0 9.83 1l-.43.18a26.16 26.16 0 0 1-11.23-1.15c1.58 1.52 4.61 1.5 7.21 1.93a23.75 23.75 0 0 1-8.12-1.27c.59 1.41 4.41 1.48 6.42 1.62 2.88.25 6.71.58 8.43-1.27a2.07 2.07 0 0 0 .62-2.17 1.17 1.17 0 0 0-1.38-.62zm-15.4 3.59c3.25 1.54 7.95 1.46 11.62 2.3-3.61.15-7.59-.78-10.9-1 4.12 1.57 9 1.58 13.08 1.25-4 1.36-8.9.45-12.71-.52a29 29 0 0 0 9.89 2c-3.26.32-7.63-.63-10.36-1.46.39.92 2 1.2 3.07 1.41 2.63.52 8.77 1.86 10.65-.6.73-.74 1.19-1.66.61-2.6-4.77 1.02-10.41.04-14.95-.78zm17.53-11.18c1.65 0 3.12-1 4.5-1.63-1.2 1.23-3.07 1.52-4.14 2.57a17 17 0 0 0 7.79-4.25 13.94 13.94 0 0 1-5.61 4.13c-1 .4-2.35.73-2.67 1.51 3.55-1.22 7-2.84 9.61-6 .72-.88 1.31-2.36.55-3.42a28.19 28.19 0 0 1-10.03 7.09zm6.12 1.45c-.15-.15-1.17.06-1.17.06.3-.35 1.21-.36 1.15-1a34 34 0 0 0-5.4 2.38c1-.06 2-.59 2.91-.56a13.25 13.25 0 0 1-2.59 1.21V41c1.09 0 2.1-.71 2.81-.87a19.33 19.33 0 0 0-2.8 1.69c1.39-.37 2.59-1.16 3.94-1.53a25 25 0 0 1-3.84 2c-.3.13-.77.4-.81.83a11.46 11.46 0 0 1 2.73-1 27.78 27.78 0 0 1-4.14 2.27 9.3 9.3 0 0 0 5.8-2.89c.41-.34-.88.27-.93.14.59-.5 1.69-.68 1.85-1.51-.92-.37.56-.35.38-1-.39 0-.72.37-1.13.24.34-.37 1.4-.59 1.24-.74zM112.45 86a5.29 5.29 0 0 1 1.48-5.21h-.35c-3 2.85-.45 6.87-.52 10.37-.51.7-1.22 0-1.87.33-1.38.67-3.17.57-4.28 1.63a5 5 0 0 1 2.91-.7c-.55.78-1.82.46-2.6 1 1.69-.59 4.12-.84 6-1.57l-.7-.07.82-.32c.11-1.17-.7-2.53-.59-3.83a3.49 3.49 0 0 1 .78 2.15c.52-1.86-1.53-2.05-1.08-3.78zm-2.25 6.16c.69-.14 1.39-.24 2.08-.38a4.79 4.79 0 0 1-2.08.34zm11.87.8s.13-.13.22-.09l-.83-.29c-2-.18-3.83.1-5.67-.55 1.19.58 2.66.39 3.68 1.28 1.12-.88 2.18.35 3.44.07.02-.56-.7.06-.85-.46zm-1.5-.26a6.51 6.51 0 0 1-2.22-.16l2.22.16a4.43 4.43 0 0 1 1.23.09zM96 100l.08-.3-.73.83zm14.51-7h.83l-.83-.12zm-29.68-7.89l-.5-.16-.21.3c.13-.04.79.15.71-.14zm26.84 9a2.27 2.27 0 0 0 1.77-.85 16.94 16.94 0 0 1-1.86.72zm-22.73-10c1.25-.71 2.85-1.43 3.39-2.95-1 .36-1.38 2-2.55 2.09.13-.22.89-.55.58-.8l1.44-1.72c-.76.77-1.63 1.62-2.48 2.5-.39.05-.5 1.14-.9.58a10.09 10.09 0 0 0 1.32-1.79 18.68 18.68 0 0 0-1.67 1.88c.3.1.52.33.87.23zm2.42-3.8H87l-.72 1s1.28-.97 1.08-.97zm-3.49 2.48v-.13c-.17.26-.43.31-.65.44a2.26 2.26 0 0 0 1.47-.67c-.26.2-.6.47-.82.38zm29.21 9.53l-1.34.67c.48-.08 1-.09 1.34-.65zM19.83 31.58c2.52 1.72 5.21 4.1 8.37 5.21v-.3a19.4 19.4 0 0 1-3.39-2.23c1.35.23 2.51 1.47 3.9 1.31-4-1.79-7.63-3.75-11.1-7.87v.46c.55 4.91 6.68 8.34 11.23 9.78-3.14-1.8-7.09-3.81-9.01-6.36zm95.26 56.28a6.43 6.43 0 0 0 1.84-2.19c.19.82-1.06 1.57-1.23 2.18 1.08-.41 1.19-1.57 2-2.32.12-.61-.22-.26-.54-.51l.08-.3-.21.22c.27-1.73 2.64-1 3.76-1.7l-1.48-.11c.3 0 .56-.31 1-.23v-.17c-3 0-4.42 3.53-6 5.59 0 .3.18.47.23.73.6-.62 0-1.29.8-1.78.32.23-.34.33-.25.59zm.24-.7l1.23-2-.42 1zm5.52-3.54c-.69.4-1.65.29-2.39.56.88-.02 1.89.09 2.4-.56zm-7.91 1v-.82l-.2 1.34zm-26.85-4.13L85 81.76l.6-.52zm28.19 10.71l.21-.31c-.39-.12-.11.82-.21.31zm.26-10.37a2.73 2.73 0 0 0-1.44 2.1 4.35 4.35 0 0 1 1.53-2zM27.67 31.45c-1.93-1-4.65-2-6.52-2.85 1.22.24 3.18.92 4.49 1.2-2.34-1.64-6.36-1.94-8.78-3.74 0 0 .88 1.11 1.34 1.54a10 10 0 0 0 9.47 3.85zm45.66 41.27l-1.17 1.72c0-.52 1-1.92 1-2.48-.68 1-1.61 2-1.59 3.14.59-.66 1.69-1.43 1.76-2.38zm-25-16.53c-2.72 1.39-7 1.07-10.65 1.87a1 1 0 0 0-.87 1.21c.47 1.18 1.51 1.73 3.34 1.59s4.4-.94 5.3.73c2.08-.64 6.44-2.74 6.31-3.24a23.55 23.55 0 0 1-5.65 2.07 38.16 38.16 0 0 0 5-2.19 27.1 27.1 0 0 1-4.64 1.4c1.08-.54 4-1.56 4.31-2.12-3.33 1.48-8.26 3.05-12.32 2.64-.29-.15-.46-.15-.46-.39A25.2 25.2 0 0 0 50.44 57a15.66 15.66 0 0 1-2.37.52c.69-.53 1.78-.64 2.2-1.07-1.3.15-2.77 1-3.95 1.22A15.9 15.9 0 0 1 50.07 56a2.19 2.19 0 0 0-1.7.19zM66.2 70a17.91 17.91 0 0 1-2.87 3.45c-.52.4-1.07 1.14-1.68 1.07a11.38 11.38 0 0 0 3.55-4 .6.6 0 0 0-.05-.66c-1.29 1.88-1.46 2.35-2.86 3.48a7.74 7.74 0 0 1-2.94 1.51c2.43-1.68 4-3 5.07-5.07l-3 2.83c.21-.74 2.05-2.48 2.25-3.43-.47 0-.8.53-3.55 4.2.62-1.74 2.17-3.66 3.22-5.41-.73.58-4.25 3.93-5.43 6.15-.46.87.34 1.82 1.12 2.08A4 4 0 0 0 63 74.83c0-.16-1.43.76-1.78.68 1.86-1.06 4.47-3.19 4.98-5.51zm-5.93 5.31c-.17 0 1.17-.82 1.17-.82s-.64.86-1.17.87zm-11.62-9.85A36.66 36.66 0 0 0 54 62.31c-1 .36-4.47 2.24-5.56 2 4.77-2.5 3.07-1.29 5-2.58.19-.13.32-.7.23-.61s-6.92 3.62-11.81 4c3.92-1.38 10.29-3.5 11.33-4.57-3 1-5.87 2.51-9.13 2.78 3.5-1.13 6.5-1.77 9.26-3.5-1.28.53-3.49 1.59-3.49 1.4s3.47-1.44 3.55-2a21.68 21.68 0 0 1-5.31 2.23c-.12-.12 5-2.57 5.31-3a89.13 89.13 0 0 1-11.53 4.75 1.25 1.25 0 0 0-.6 1.73c1.51 2.52 5.45-1.74 7.4.52zm-1.72 4.16c2.42 1.91 7.78-.73 10.66-4.06-1.8 1.37-5.18 3.29-5.82 3.3-.37 0 3.8-1.95 5.53-3.73-.18.21.89-.74.81-1.21 0 0-3.89 3.11-4.12 3.21s-.53 0-.39 0 2.65-2.27 4.07-3.73l-1.07.67C54.26 66 50.79 69 47.36 69.45c3.33-1.39 5.87-3.49 8.75-6-.15-.54-4.28 2.42-6.7 3.33 1.68-1.2 4.35-2.61 5.71-3.68-.87.27-2.17 1.46-3 1.44a16.93 16.93 0 0 0 2.81-1.93 40.93 40.93 0 0 0-6.06 3.2 6.38 6.38 0 0 0-2.31 1.88 1.38 1.38 0 0 0 .36 1.94zm25 2.17a8.25 8.25 0 0 0-1.32 2.5 5.8 5.8 0 0 0 1.39-2.5zm-3.03 4.79l-1.22.65a2.17 2.17 0 0 0 .77-.12.88.88 0 0 0 .45-.53zm.88-2.46c-.18-.3.84-1.35.3-1.86-.32 1.56-2.36 3.88-3.4 5h.22c1.6-1.51 3.86-3.29 4.26-5.32zm-15-5.66A10.92 10.92 0 0 0 52.59 70a3.65 3.65 0 0 0 2.15-1.54zm-39-47.82a6 6 0 0 0 4.53 2.51l-.18-.3a13.35 13.35 0 0 1-4.36-2.21zm4.83-.17c.45 1.07 1.83.36 2.63 1-.52.31-1.16-.16-1.73 0L24 23.74c1 .15 1.93.92 3.06.47-.92-.46-1.88-.48-2.93-1 1.08-.45 2.58.65 3.43-.49a11.8 11.8 0 0 1-3.67-.46c.65-.1 1.75.14 2.39-.26-.92-.2-2.18.08-2.84-.56a4.23 4.23 0 0 0 1.78-.25c-1.4-.69-3.05-.61-4.62-.72zm9.61 11.75c2.68 1.43 6.11 3.09 9.38 3.17-4.25-1.55-9.53-3.29-13.29-6.73 3.23 2.8 8.59 3.38 11.63 5.72-2.58-2.83-6.82-3.29-9.78-5.66 2 .65 4 1.74 6 2.62.13-.39 0-.74-.3-.8-1.84-.18-10-5.2-13.6-9.76 1.08 4.86 5.55 9.1 9.95 11.44zm-7.49-7.13a44.36 44.36 0 0 1 3.19 3.19l.18.17c.29.28-3.38-3.14-3.38-3.36zm29.91 48.54a2.07 2.07 0 0 0 1.87 0 12.46 12.46 0 0 0 6.65-5.81c-2.45 1.9-3 3.46-5.71 5 2.19-1.76 3.41-3.57 5.42-5.64-2.64 2.06-4 4.9-7.59 6.2a36 36 0 0 0 6.46-6.18 60 60 0 0 0-4.53 4.06c-.22.2-.71.42-.5.2s4.45-4.79 4.66-5-.22 0-.22 0l-5.93 5c1.49-1.88 4.55-4.13 5.29-5.18.46-.65.19-.6.19-.6-2.12 2.3-4.85 3.62-6.64 6.2a1.45 1.45 0 0 0 .58 1.75zm17.79 1c-1 .63-2.2 1.83-3.1 2.45a7.29 7.29 0 0 0 3.1-2.47zM43.62 41.75a69.06 69.06 0 0 1-10.12-1.3 28 28 0 0 1 5.94.53 10.65 10.65 0 0 0 4.85-.31 33.12 33.12 0 0 1-5.3-.3c-3.59-.51-6.49-1.44-10.06-1.6a1.53 1.53 0 0 0-.59 1.35 3.18 3.18 0 0 0 2.29 2.7 22.14 22.14 0 0 0 12 1c-1.74-.23-3 .2-4.54-.33 1.61-.24 3.78.34 4.63-.54-4.59.66-9.57-.18-12.61-2 3.9.89 8.56 2.38 13.11 1.33a24.24 24.24 0 0 1-8-.69 43.22 43.22 0 0 0 8.4.16zm18.82 26.09l-4.8 4.63c.22.09.44.2.62.29a44 44 0 0 0 4.18-4.92zm38.5-30.89a2 2 0 0 0-1.38-1.53 5 5 0 0 0 1.38 1.53zm.64.36c0-.74.43-1.29.29-1.93-.17.52-.59 1.09-.41 1.78zm-23.66-6.54c0 .33-.55.78 0 1a8.46 8.46 0 0 1 4.57 1.64 6 6 0 0 0-3.62-2c1.86-.77 3.32.68 4.65 1.91 1.66.49 3.52 2 5.33.82-1.48.24-2.25-1.69-3.68-1.28a1.7 1.7 0 0 0 1.06.8 14.66 14.66 0 0 1-4.65-2.17c.95-.48 1.54.71 2.32.87-.23-.39-.1-1.14.91-1.29-.84.43-1 1.07-.39 1.41 0 0-.06-.12.05-.41a1.21 1.21 0 0 1 1.22-.59c1.19.18 2.18 2.32 3.45 2l-.14-.02c1.67.62 3-.85 5.29.06a3.36 3.36 0 0 0-.84-.59.33.33 0 0 1 .52 0 2.78 2.78 0 0 0-1.41-1.14c-.48-.17-1.66-.27-2.08.25.17 0 .43-.1.52.08-.73.49-1.65.07-2.48 0l-2.65-1.81c-2.54-.86-7.27-2.29-8.79.28a2.81 2.81 0 0 0-.27 1.73 3.82 3.82 0 0 1 1.11-1.55zm11 2.53a6.66 6.66 0 0 1-2.2-1.52S89 33.3 88.89 33.3zm-7-3.73a7.83 7.83 0 0 0-3.83 1c.58-.78 1.66-1.09 3.77-1zM98.67 32a7.67 7.67 0 0 0-1.67-.51c.45.33 1.33.88 1.67.51zm-16.36 5.48h5.36c-1.54-.72-4.02-.17-5.36 0zm-7.38 19c-.29 1.26-.65 2.88-1 4.21-.59 2.43-2.8 4.32-3.94 6.46l-.36-.51c-.58.16-.82.16-1.62 1.93C67 71 65.07 73 63.53 75.26c-.42.63.24 1.24.77 1.54.9.52 3.4-4 4-4.34a47.69 47.69 0 0 1-3.19 4.73s0 .09.3.08a19.87 19.87 0 0 0 2.52-2.4c0 .56-1.44 1.8-1.61 2.41a9.45 9.45 0 0 0 3.18-5.06 21.57 21.57 0 0 1-2.88 3.41c.91-1.44 2.67-3.31 1.8-3.84a31.14 31.14 0 0 0-2.91 3.43C65.88 73.8 68.39 71 68 71s-1.4 1.59-1.51 1.59a14.91 14.91 0 0 1 2.33-4.4 4.34 4.34 0 0 0-.1 2.21 1.67 1.67 0 0 0 2 .87 5.13 5.13 0 0 0 3.6-3.56.74.74 0 0 1 1.25-.45 16.48 16.48 0 0 0-1.13 2.52c-.65 1.58-.66 2.38.4 2.88a70.64 70.64 0 0 0 2.88-7.3c-.67 1.35-1.47 3.87-2.45 5C76.88 66.92 79 62 78.74 58a38.72 38.72 0 0 1-1 4.93c-.19-.73.89-4.54.57-5.35a11.17 11.17 0 0 1-.4 2.29 22.44 22.44 0 0 1-.22-2.43 22.53 22.53 0 0 1-1.93 8.6c.4-2.08 1.42-5.16 1.51-7.5-.36 2.16-1.63 4-2.07 6.12-.13-2.54 2.1-4.52 1.53-7.28-1.18 2.22-1.5 4.93-2.57 7.6-.73 1.83.91 2.36-.6 3.12-.14-.3.25-.87.2-1l-1.93 3c0-.78 1.33-2.51 1.49-3.34-1.16 1.05-1.74 2.63-3.16 3.9 1.8-4.44 5.85-8.88 5.63-14.1-.37 1.29-1.59 6.41-2.75 7.66.87-1.63 2.29-6.65 1.88-7.72zm26.48-22.59l-1.8-.89c.48.63 1.45.71 1.8.91zm-2.74-2.32a1.44 1.44 0 0 0 1.57.27 3.1 3.1 0 0 1-1.57-.25zm3.18 2.62c-2.82.52-4.15-3.08-6.76-2.78 1.57.28 2.73 1.54 4.05 2.42-1.18-.41-2.5-1.64-3.82-1.48a2.29 2.29 0 0 1 1.4.67 8.83 8.83 0 0 1-1.3-.36l2.84 1.89a5.22 5.22 0 0 0-1.4-1.4c1.43.47 2.67 2 4.46 1.7a.65.65 0 0 0 .53-.64zM61.14 45a11.71 11.71 0 0 1-4 2.55 11.61 11.61 0 0 0 3-2.34l-5 3c1.68-1.72 4.29-2.45 5.39-4.32-2 2.11-5.63 2.79-6.53 5.58a31.25 31.25 0 0 1-3.94 1.26c1.2-.8 2.77-1.12 3.93-1.83-1.73.42-3.37 1.35-5.2 1.34 1.6-.67 3.91-1.1 5.46-2.16-.43 0-1.73.3-1.53.11S54.48 47.56 55 47c1.5-1.23 4-2 4.83-4a13.68 13.68 0 0 1-8.92 4.22c0-.08-.22-.12-.18-.3 2.95-.83 7-1.82 8.35-4.35a14.28 14.28 0 0 1-7.84 3.52c2.16-1.08 5.26-1.65 7-3.49-2 .81-4.24 2.45-6.37 2.66a26.94 26.94 0 0 0 5.48-3c-2.35 1.52-5.7 1.49-7.35 3.98a5 5 0 0 1-1.7-.14c.34-.22.87-.05 1.26-.15a1 1 0 0 0 .65-.76c-1.87-.14-3.45.09-5.6-.8 4 .79 9.2 0 11.85-3.41-2.58 2.2-6.36 3.53-9.77 2.64a15.84 15.84 0 0 0 4.39-.5c1.8-.48 3.56-.67 4.67-2.24a4.68 4.68 0 0 1-1.42 1 16.36 16.36 0 0 1-8.27.53c3.22-.1 6.84-.16 9.29-1.93-4.75 1.09-10.66 1.16-11.35 1.85-1 .89.22 2.87 1.54 3.8 3 1.85 4-.18 5 1.71a3 3 0 0 0-2.14.58 2.21 2.21 0 0 0-1.1 1.83 1.72 1.72 0 0 0 .85 1.41c2 1.18 4.22-.16 5.82-1-.76-.32-3 .74-4.56.51a14.88 14.88 0 0 0 4.77-1.42 2.48 2.48 0 0 0 1 1.45c-1.4 2-5.1 2-4.31 5.25a2.08 2.08 0 0 0 1.37 1.4 4.42 4.42 0 0 0 4.51-1.5c.14.39.57.55.92.67-.77 1.1-2 1.46-2.88 2.47a1.53 1.53 0 0 0-.4 1.73c.63 1.16 1.94 1.26 3.15 1.11 1.7-.2 2.09-2.16 3.77-1.4-.67 1.35-3 2.25-1.93 4a2.34 2.34 0 0 0 2.24 1.13 3.83 3.83 0 0 0 3.27-2.26c-.61.05-.9.71-1.42 1.16a6.2 6.2 0 0 1 1.1-1.76c-.86.58-1.67 2-2.8 1.9a5.15 5.15 0 0 0 2.26-2.63c-1 .94-2 2.58-3.4 2.73a42.82 42.82 0 0 0 6.56-8.7 24.62 24.62 0 0 1-2 2.34c-.68.62-1.34 1.18-1.82 1.19a17.76 17.76 0 0 0 4.41-5.81s-1.49 2.44-1.64 2.29.93-1.85 1-2.84a47.67 47.67 0 0 1-2.76 4.13c-.13-.12 1.82-3 2.23-4.55 0 0-5.17 6.47-5.46 6.77-.11.11-.35 0-.18-.17s4.56-5.34 5-7.24c-1.07 1.1-3.27 4.41-3.37 4.31a31.06 31.06 0 0 1 2.64-4.4c-.4.26-.58.65-1.05 1.05.11-.56.93-1.34 1-2a33.69 33.69 0 0 1-3.72 4.71c-1 1.23-2.57 2.46-1.5 4.09-.6.61-1.28 1.27-2 1.24.57-.44 1.16-.71 1.24-1.23-.82.36-1.5 1.23-2.37 1.08a4.88 4.88 0 0 0 2.15-1.81 7.91 7.91 0 0 1-3.55 1.61 11.67 11.67 0 0 0 5-4.44c-1.21.54-2.54 2.46-3.09 2.64s-.61.1-.61.1c2.27-2.33 5-3.85 6.78-6.51a6.55 6.55 0 0 0 1.15-2.23c-1.06 1.49-3.77 4.51-3.94 4.35s3.43-3.34 3.78-5.76A24.83 24.83 0 0 1 60.8 54c-.19 0 2.53-3.13 2.94-4.95-1.17 2.65-5.93 7.17-6.26 6.86-.16-.15 5-4.57 5.91-7.13a52 52 0 0 1-3.69 4.38c.63-.85 3-3.62 3.37-5.27 0 0-6 6-6.36 6.3a1.72 1.72 0 0 0-.5 1.35c-1.13.41-2.06 1.5-3.33 1.31a10.7 10.7 0 0 0 3.1-2 7 7 0 0 1-4.46 1.33c2-.76 3.94-1.19 5.18-2.89-.78.36-1.5 1.28-2.37 1.07a14 14 0 0 0 2.28-1.37v-.39c-.21-.06-.76.64-1.34.58l1.12-.79-.53-.29c1.83.35 3.46-1.14 4.75-2.37.56-.53 2.3-2.36 2.29-3-1.11 1.23-4.75 4.47-5 4.26s4.07-3.3 4.88-4.82c-1.29 1-3.81 3.33-5.1 4 1-.92 3.5-2.8 4.22-4.11 0 0-4.14 3.68-4.23 3.59s3.21-3 4-4.13c-1.6 1.41-6 4.48-6.21 4.3S60 47 61.14 45zm-13.68 1.42c.88.16 1.88-.37 2.59.27a23.28 23.28 0 0 1-2.59-.27zm8.83 9.4c.14.43-.66.53-1.36.84zm31.16-18a11.56 11.56 0 0 0-3.33.38c1.14.37 2.29-.2 3.33-.34zm-15.54 18c-.68 3.13-3.91 7.75-3.91 8.79s.9 1.28 2.29.74 3.71-5.18 4.11-8.62c-.33 1.12-.88 1.92-1.21 3-.06-1.08 1-2.37.92-3.58-1.11 2.55-2 5.46-3.77 7.64a48.4 48.4 0 0 0 3-7.52c0-.29-.25 0-.25 0-.53 1.17-.8 2.17-1.52 3.46.14-1.32 1.12-3.16.35-3.9zM65 61.68a2.3 2.3 0 0 0 .78 2.45 4.82 4.82 0 0 0-1.88 2.23c-.17.7-.23 1.52.38 1.94a2.13 2.13 0 0 0 2 .31A2.65 2.65 0 0 0 67.57 67l-.3.3c0-.39.59-1 .5-1.35-.52.31-.81 1-1.32 1.32a15 15 0 0 1 1.22-2.18L66 66.84a9 9 0 0 1 1.52-2.62c-1.2.84-1.74 2.52-2.65 3.15 1.56-3 3.9-6.33 5.63-9.42-1.11 1.48-2.21 3.37-3.4 4.81.74-2.38 3.41-4.41 3.54-7.09a23 23 0 0 1-2.83 4.93c.28-1.52 2-3.31 2.12-4.78-1.15 1.62-1.92 3.74-3.16 5.31.54-1.91 2.08-3.57 2.52-5.66-.64.74-.93 1.61-1.53 2.32.11-.91.88-1.87 1-2.91-.84 2.43-2.85 4.41-3.76 6.8zm1.2-21.26c-1.59-.88-3.66-.46-5.14-.21.9-1.05 2.95-.78 3.55-1-2.41-.74-5.16 1.29-7.28-.4 2.52.82 4.38-.77 6.52-.41-2.41-.74-4.93-.22-7.33-.61 2.34-.34 4.82-.82 7.23-.21-2.87-2-6.36.19-9.55-.57a6.4 6.4 0 0 0 2.8 3.57 8.78 8.78 0 0 0 7.51.79c-.53-.21-1.22.06-1.74-.15 1-.58 2.13-.33 3.31-.27l-3.15-.59c1.07-.46 2.22-.09 3.26.06zm-31.75-15c-2.48-.48-5.73-2.64-6.39-2a6.58 6.58 0 0 0 3.12 4 22.52 22.52 0 0 0 12.9 2.88l-.31-.38a12.33 12.33 0 0 1-5.37-.34c1.65-.24 3.85.46 4.83-.3-3.83.15-7.37-.48-10.32-2.59.52-.18 1.36.41 2 .66a16 16 0 0 0 7.79 1.25 31.33 31.33 0 0 1-6-.94c1.7.15 3.81.5 5.36.08-2.58-.39-5.46-.6-7.79-1.6 2.18.22 5 .68 7.24.95-2.01-.95-4.69-1.21-7.06-1.67zm20.29 4.71c5.64 3.83 13.34 8 15.29 15a3.42 3.42 0 0 1-1 3.77c.92.4 2.37.82 3.13-.18 1.3-3.13-1.5-5.93-2.88-8.63 1.6 2.15 3.86 4.51 3.82 7.49.32-1.56-.7-2.88-.81-4.26a6.33 6.33 0 0 1 .92 5.51c1.39-1.43.86-3.89.13-5.75-1.65-4.19-5.68-5.63-8.73-8.31-5.51-4.83-11.53-6.93-17.51-9.84-3.29-1.63-8.11-3.06-8.71-7.46a2.35 2.35 0 0 0 0 2.42c3.52 6.27 10.97 6.65 16.35 10.23zM70.31 47.3l.19-1.47a3.93 3.93 0 0 1-.06 1.38c-.17.47-.13.09-.13.09zm1.79-5.37c-.12.13-1.31-1.86-1.31-1.86s1.44 1.73 1.32 1.86zm-1-.26c-.21.21-1.35-2.14-1.35-2.14s1.59 1.93 1.39 2.14zm-4.81-4.89c0 .28-4.47-3.86-9.16-6.32a32 32 0 0 1 9.19 6.32zm16.27-3.15a7 7 0 0 0 5.12 1.64 33.55 33.55 0 0 1-5.09-1.64zm-40.4-8.77a5.39 5.39 0 0 0 .88 2.88c2.33 3.93 7 4.46 11.18 4.08-1.4-.23-3.84-.43-4.77-.92 1.78.2 3.63.12 4.94.27-2.07-1.56-5.24-.69-7.23-2.34 1.22.19 2.76.81 4.06.53-2.06-1-4.79-.59-6.69-2.11 1.4.32 3.05.74 4.58 1a38.23 38.23 0 0 1-6.92-3.39zm-16.81 0a2.6 2.6 0 0 0 2.1.4 3.15 3.15 0 0 0-2.07-.42zM20 16.42l-1.62-2.95A10.69 10.69 0 0 1 14.47 11a5.65 5.65 0 0 1-1.65-5 4.4 4.4 0 0 0-.68 3.72C13 13.35 17.06 15 20 16.42zm-2-3.68c-.27-.73.24-1.47-.64-2 0 .35.45.55.23.86l-.53-.51v.61A7.1 7.1 0 0 1 13.91 9 7.09 7.09 0 0 0 18 12.75zM29.34 37.5c3.78 1.92 9.57 2.84 13 2.07a51.82 51.82 0 0 1-5.78-.62c1.52 0 2.73-.14 4.39-.17a24.51 24.51 0 0 1-10.48-2.63c3 .81 6.52 2.28 10.54 2-1.27-.54-3.11-.19-4.16-.52a11.84 11.84 0 0 1 3.85-.13c-1.39-.67-4.5-.14-6.22-1.1a28.5 28.5 0 0 0 5.13.34c-2.18-.4-5.52-.58-7.67-1-1-.24-2.45-.53-3.13.48-.36.44.05 1.03.53 1.28zm11.81-11.62c-.89-1.33-2.94-2-4.3-2.79 1.22 0 2.5 1 3.68 1.06a8.42 8.42 0 0 0-4.12-1.78C29.07 21.93 21 18.48 18.52 11.1c2.4 10.4 14.14 12.55 22.63 14.78zm-13.6-6.17a14.8 14.8 0 0 0 5.16 1.47zm-4.09-2.31c5 1.9 10.81 3 15.46 4.71a16.08 16.08 0 0 1-1.22-2c-5.27-2.31-11.29-3.58-16.7-5.47a7.74 7.74 0 0 0 2.46 2.76zm34 24.22c-.43.22-1.13.46-1.38.94.34-.44.92-.2 1.34-.94zm-29-15.5c-.75-.5-1.87-.14-2.62-.69a3.25 3.25 0 0 0 2.56.69zm1.69 7c-2.8-.77-6-.59-8.4-2.32a8.25 8.25 0 0 0 2.78 2c4.4 2.38 11 3.37 15.7 3.05-2.83-.08-6.21-.89-9-1.1a12.12 12.12 0 0 1 3-.05c-2.42-1.17-5.46-.64-7.87-1.72 1.55.02 3.08.21 3.73.15zM17.4 24.45c1.35 0 2.72 1.21 4.11.88-1.85-1-4.33-1.18-5.8-2.92a16.19 16.19 0 0 0 5.13 2l-.18-.52a9.39 9.39 0 0 1-5.63-3c-.3.36.36.73.15 1l-.44-.07a1.17 1.17 0 0 0 .54 1.11L15 23c1.46 3.81 5.37 3.19 8.22 4.35-1.37-2.23-4.1-1.46-5.82-2.9zm28.26 7.21c.38-.13-.27-.51-.45-.51s-6.47-.21-9.65-1.22c-.59.31-.38.75-.24 1.12 1.39 3.66 8.49 4.82 13.3 3.75-.45.1-1.05-.2-1.35-.19.21-.22 1.11-.15.73-.53s-2.66.56-4.53.08a29.29 29.29 0 0 0 4.09-.46c-3.08.45-6-.54-8.9-1 2.74-.13 5.68 1 8.45.08-1.61.37-3.14-.17-4.71-.22 1.39-.46 2.88.34 4.09-.37a21.2 21.2 0 0 1-4.62-.74c1.23-.05 3.41.34 3.79.21zM17.23 19.88c-.52.35-1-.11-1.48-.06 1.58.45 2.35 2.17 4.13 2.22a4.94 4.94 0 0 1-.34-1.76 7.32 7.32 0 0 1-1.7-.26 13.42 13.42 0 0 0 1.78 0 2.45 2.45 0 0 1 .21-.65l.4.64 3.36.16c-.71-.94-2.1-.31-2.93-.9a5.36 5.36 0 0 1 1.26-.27c-2.92 0-5.79 0-8.29-1 .23.51.92.33 1.28.8l-.3.22a22.7 22.7 0 0 0 2.62.86zm39.12 12.94c-2.91.35-5.58-.38-8.29-.81 0 0-.16-.08.23.95 1.68 4.7 9.16 3.35 13.65 3.18-1.94-1-4.53-.23-6.49-.11a8.67 8.67 0 0 1 4.25-1.19c-2.05-.44-3.47 1-5.39.48a14.82 14.82 0 0 0 3.51-1.09c-2.65.74-6.09.84-8.37-.68 2.32.57 5.12 1.43 7.44 0-2.13-.09-4.43.38-6.19-.54 1.82.05 3.79.49 5.65-.19zM44.43 38.5c2.77.15 7.23.76 8.88-.94a20 20 0 0 1-6.8.39 25.18 25.18 0 0 0 5.91-.84c-2.7.22-5.52.7-8.14.14 2.3-.55 4.92.18 7.31-.72-2.34.6-4.68-.08-7.41-.12 2-.46 4.7-.09 6-.38-2.88-.38-6.14.15-9-.28a5.56 5.56 0 0 0 0 .73c.2 2.59 3.46 3.81 5.6 4.05a15.83 15.83 0 0 0 7.52-1 30.37 30.37 0 0 1-6.18.5c2-.47 4.22-.33 5.94-1.44-2.91.92-6.86 1.41-9.63-.09zM12.55 15.82c1.8.79 3.66 2.44 5.92 2.32a25.28 25.28 0 0 1-3.09-1.25c1.27.41 3.43.89 4.83 1.22-3.24-1.15-6.84-2.56-8.77-6-.69.14.45.9-.06 1.25-.09-.13-.22-.08-.31-.08.18.64.72 1.33.56 2C12.78 17 14.28 18 15.72 18c-.98-1-2.28-1-3.17-2.18zm17 11.23c-.31-.3-1.08.19-1-.41a4.12 4.12 0 0 1-1.49-.2c.31.38 1 .08 1.27.51l-.31.18c.27.52 1.14-.02 1.57-.08zM14.41 15c1.94 1.75 4.53 2.25 6.67 2.91-3.42-1.37-7.23-2.9-9.34-6.36.1 1.45 1.64 2.45 2.67 3.45zm15.51 13.08a12.16 12.16 0 0 0 3 1.08c-.82-.41-2-1.16-3-1.08zm87.58 63.48l.17.08h.44a6 6 0 0 1-.61-.08z" transform="translate(-10.7 -5.23)"/></svg>