<svg id="Слой_1" data-name="Слой 1" xmlns="http://www.w3.org/2000/svg" viewBox="0 0 12.8 10.4"><defs><style>.cls-1{fill:#fff;}</style></defs><title>Монтажная область 1</title><path class="cls-1" d="M12.8,1.23a5.25,5.25,0,0,1-1.51.42A2.65,2.65,0,0,0,12.45.19a5.23,5.23,0,0,1-1.67.64,2.63,2.63,0,0,0-4.54,1.8,2.73,2.73,0,0,0,.07.6A7.46,7.46,0,0,1,.89.48,2.63,2.63,0,0,0,1.7,4,2.59,2.59,0,0,1,.52,3.66v0a2.63,2.63,0,0,0,2.1,2.58,2.71,2.71,0,0,1-.69.09,2.65,2.65,0,0,1-.5,0A2.63,2.63,0,0,0,3.89,8.13,5.28,5.28,0,0,1,.62,9.25a5.63,5.63,0,0,1-.62,0A7.43,7.43,0,0,0,4,10.4,7.42,7.42,0,0,0,11.5,2.93V2.59A5.29,5.29,0,0,0,12.8,1.23Zm0,0"/></svg>