<svg id="Слой_1" data-name="Слой 1" xmlns="http://www.w3.org/2000/svg" viewBox="0 0 390.91 233.09"><defs><style>.cls-1{fill:#696969;}</style></defs><title>Монтажная область 1</title><path class="cls-1" d="M195.46,0C120.74,0,53,40.86,3,107.26a15.49,15.49,0,0,0,0,18.48C53,192.22,120.74,233.1,195.46,233.1s142.48-40.88,192.48-107.28a15.48,15.48,0,0,0,0-18.48C337.94,40.86,270.18,0,195.46,0Zm5.36,198.64a82.26,82.26,0,1,1,76.72-76.72c-2.64,40.88-35.84,74.08-76.72,76.72Zm-2.48-37.92a44.29,44.29,0,1,1,41.36-41.36,44.22,44.22,0,0,1-41.36,41.36Zm0,0"/></svg>