<svg width="79" height="94" viewBox="0 0 79 94" fill="none" xmlns="http://www.w3.org/2000/svg">
<path fill-rule="evenodd" clip-rule="evenodd" d="M75.9549 58.19C72.5989 71.968 52.6219 91.999 23.7349 81.732C30.7729 72.408 39.8199 65.431 45.6879 57.73C59.4429 39.676 63.4909 21.367 49.5139 0C52.8909 3.379 57.4439 8.793 59.2639 12.102C75.1189 23.121 81.6979 38.995 75.9549 58.19ZM41.2519 35.975C32.0889 36.62 28.7159 25.709 6.71294 23.541C23.2299 0.518 50.3109 7.059 50.8359 8.289C51.3619 9.519 53.6829 34.862 41.2519 35.975ZM39.0129 16.763C34.7749 16.763 31.3389 20.207 31.3389 24.457C31.3389 28.706 34.7749 32.151 39.0129 32.151C43.2519 32.151 46.6869 28.706 46.6869 24.457C46.6869 20.207 43.2519 16.763 39.0129 16.763ZM1.09494 24.37C17.2419 27.742 27.9709 38.121 29.0229 50.399C29.9899 68.89 12.0019 80.293 18.2809 94C13.0199 89.062 15.0459 79.66 16.4629 77.753C12.9649 75.963 -9.08506 57.068 4.23494 27.686C3.60794 26.829 2.72494 25.788 1.09494 24.37Z" fill="black"/>
</svg>
