<svg xmlns:svg="http://www.w3.org/2000/svg" xmlns="http://www.w3.org/2000/svg" viewBox="0 0 504.5 66" height="66" width="504.5" xml:space="preserve" version="1.1"><style>.s0{fill:#fff;opacity:0.6;}.s1{fill:#fff;}</style><defs><clipPath clipPathUnits="userSpaceOnUse"><path d="M0 840H592V0H0Z"/></clipPath></defs><g transform="matrix(1.3333333,0,0,-1.3333333,-0.76361331,1118.8613)"><g transform="translate(-108.22329,389.47802)"><g clip-path="url(#clipPath4521)"><g transform="translate(155.164,419.932)" style="fill:#ffe;opacity:0.6"><path d="m0 0v0c-3.4-0.3-6-1.1-8.1-2.6-2.4-1.9-3.7-4.4-3.7-7.6 0-2.7 0.9-4.9 2.6-6.4 1.8-1.5 4.2-2.3 7.2-2.3 0.6 0 1.3 0.1 1.9 0.1v5.1h-0.7c-3 0-4.4 1.2-4.4 3.7 0 2.7 1.7 4.4 5.1 4.9zm0 10.2v0h-0.7c-3.1 0-5.8-0.5-8.1-1.7l1.4-5.1C-5.7 4.2-3.6 4.7-1.2 4.7-0.7 4.7-0.4 4.6 0 4.6ZM0 19.8v0L-3.7 13.4H0ZM-24.2-18.4V-1.1h-15.3v-17.4h-6.8v38.4h6.8V4.9h15.3v15.1h6.8v-38.4zm73.3 0v22.7h-3.7v5.4h10.3v-28.1zm3.4 39c1 0 1.9-0.4 2.7-1.1 0.7-0.7 1.2-1.7 1.2-2.7 0-1-0.4-1.9-1.2-2.7-0.7-0.7-1.7-1.2-2.7-1.2-1.1 0-2 0.4-2.7 1.2-0.7 0.7-1.1 1.7-1.1 2.7 0 1.1 0.4 2 1.1 2.7 0.7 0.7 1.7 1.1 2.7 1.1M17-18.4V-16.2L32.3 3.9H17.3v5.8H41.9V7.3l-14.8-20h14.9v-5.8zM0 13.4V19.8l0.8 1.3h6.5L1.4 13.4Zm0-32.2v5.1c3.5 0.2 5.2 2.2 5.2 5.8v2.7C4-5 3.2-4.9 2.7-4.9 1.7-4.9 0.8-5 0-5V0c0.8 0.1 1.6 0.1 2.4 0.1 0.8 0 1.7-0.1 2.7-0.4C5.1 2.7 3.5 4.3 0 4.6v5.5C4 10 6.8 9.1 8.7 7.2 10.7 5.3 11.7 1.6 11.7-3.8v-6c0-3.7 0.7-6.1 2.2-7.1-0.5-0.9-1.2-1.5-1.8-1.7-0.6-0.2-1.4-0.4-2.3-0.4-0.9 0-1.8 0.4-2.5 1.1-0.8 0.6-1.3 1.4-1.5 2.2C5.2-16.6 4.2-17.4 2.7-18 1.8-18.4 0.9-18.6 0-18.8m76.5 38.8v0c-1.4 0.1-3 0.2-4.7 0.2-0.8 0-3.5-0.1-8.1-0.3v-38.4h6.9V-4.3c1.3-0.1 2.3-0.1 3.1-0.1 0.9 0 1.9 0 2.7 0.1v6.1C75.5 1.6 74.5 1.5 73.4 1.5c-0.7 0-1.6 0.1-2.7 0.2V14c0.6 0.1 1.3 0.1 2 0.1 1.4 0 2.7-0.1 3.8-0.3zm0-24.4v6.1c1.6 0.3 2.8 0.7 3.7 1.4 1.4 1 2.2 2.7 2.2 5.1 0 3.1-2 5-5.9 5.7v6.1c3.7-0.4 6.6-1.2 8.6-2.6 2.8-1.9 4.2-4.8 4.2-8.7 0-8-4.3-12.3-12.9-13.1M102.4 0V0C99-0.3 96.3-1.1 94.3-2.6c-2.4-1.9-3.7-4.4-3.7-7.6 0-2.7 0.9-4.9 2.6-6.4 1.7-1.5 4.1-2.3 7.1-2.3 0.7 0 1.4 0.1 2 0.1v5.1h-0.8c-3 0-4.4 1.2-4.4 3.7 0 2.7 1.7 4.4 5.2 4.9zm0 10.2v0h-0.8c-3.1 0-5.8-0.5-8.1-1.7l1.4-5.1c1.7 0.9 3.7 1.3 6.2 1.3 0.4 0 0.9-0.1 1.2-0.1zm74.1-28.6-8.3 12.7-3.2-3.4v-9.4h-6.5V20.2l6.5 1.5V-1.1l9.4 10.7h7.9L172.8-1 184.2-18.4Zm-32.3 0v22.7h-3.5v5.4h10.2v-28.1zM147.6 20.5c1.1 0 1.9-0.4 2.7-1.1 0.7-0.7 1.1-1.7 1.1-2.7 0-1-0.4-1.9-1.1-2.7-0.8-0.7-1.7-1.2-2.7-1.2-1 0-1.9 0.4-2.7 1.2-0.8 0.7-1.2 1.7-1.2 2.7 0 1.1 0.4 2 1.2 2.7 0.7 0.7 1.7 1.1 2.7 1.1M122.2 4.3h-3.2v5.3h3.2v5.7l6.6 2.4V9.6h7.8V4.3h-7.8V-7.9c0-1.9 0.4-3.4 1-4.2 0.6-0.9 1.7-1.3 3.3-1.3 1.6 0 3 0.4 4.4 1.3v-6c-1.5-0.5-3.7-0.8-6.5-0.8-2.9 0-5 0.8-6.5 2.4-1.5 1.6-2.3 3.9-2.3 6.8zm-19.8-23.1v5.1c3.5 0.2 5.1 2.2 5.1 5.8v2.7c-1.1 0.2-1.9 0.3-2.5 0.3-0.9 0-1.8-0.1-2.6-0.1V0c0.7 0.1 1.5 0.1 2.4 0.1 0.7 0 1.7-0.1 2.7-0.4 0 3-1.7 4.6-5.1 4.9v5.5c3.9-0.1 6.8-1.1 8.7-3 1.9-1.9 3-5.6 3-11v-6c0-3.7 0.8-6.1 2.3-7.1-0.6-0.9-1.2-1.5-1.8-1.7-0.7-0.2-1.4-0.4-2.3-0.4-0.9 0-1.8 0.4-2.6 1.1-0.7 0.6-1.2 1.4-1.5 2.2-0.6-0.9-1.7-1.7-3.1-2.4-0.9-0.4-1.8-0.6-2.7-0.8M196.2 0v0c-3.4-0.3-6-1.1-8.1-2.6-2.4-1.9-3.7-4.4-3.7-7.6 0-2.7 0.9-4.9 2.6-6.4 1.7-1.5 4.1-2.3 7.1-2.3 0.7 0 1.4 0.1 2 0.1v5.1h-0.8c-3 0-4.4 1.2-4.4 3.7 0 2.7 1.7 4.4 5.2 4.9zm0 10.2v0h-0.7c-3.2 0-5.8-0.5-8.1-1.7l1.4-5.1c1.7 0.9 3.7 1.3 6.2 1.3 0.4 0 0.9-0.1 1.2-0.1zm0-28.9v5.1c3.5 0.2 5.1 2.2 5.1 5.8v2.7c-1.1 0.2-1.9 0.3-2.5 0.3-0.9 0-1.8-0.1-2.6-0.1V0c0.7 0.1 1.5 0.1 2.4 0.1 0.7 0 1.7-0.1 2.7-0.4 0 3-1.7 4.6-5.1 4.9v5.5c3.9-0.1 6.8-1.1 8.7-3 1.9-1.9 3-5.6 3-11v-6c0-3.7 0.8-6.1 2.3-7.1-0.6-0.9-1.2-1.5-1.8-1.7-0.7-0.2-1.4-0.4-2.3-0.4-0.9 0-1.8 0.4-2.6 1.1-0.7 0.6-1.2 1.4-1.5 2.2-0.6-0.9-1.7-1.7-3.1-2.4-0.9-0.4-1.8-0.6-2.7-0.8" fill="#ffe"/></g><g transform="translate(411.916,427.348)" class="s0"><path d="m0 0-2.8-5c-1.5 1.5-3.6 2.2-6.2 2.2-2.5 0-4.5-0.9-5.9-2.5-1.4-1.7-2.2-3.9-2.2-6.8 0-5.9 2.8-8.9 8.4-8.9 2.4 0 4.6 0.9 6.5 2.4l2.4-5.2c-1.9-1.2-3.5-1.9-5-2.2-1.4-0.4-3.2-0.5-5.1-0.5-4.3 0-7.8 1.3-10.3 3.8-2.5 2.5-3.7 6-3.7 10.5 0 4.3 1.4 7.9 4.1 10.7 2.7 2.7 6.6 4.1 11.3 4.1C-5.3 2.7-2.4 1.8 0 0m17.2 2.7v0c-4 0-7.3-1.4-9.8-4-2.5-2.7-3.7-6.2-3.7-10.4 0-4.5 1.2-7.9 3.5-10.6 2.4-2.7 5.8-4 10-4v5.4c-4.5 0-6.7 3.1-6.7 9.2 0 2.9 0.6 5 1.8 6.7 1.2 1.6 2.9 2.4 4.9 2.4zM-39.2-22.4c0 1.3 0.5 2.4 1.4 3.4 0.9 0.9 2 1.4 3.3 1.4 1.3 0 2.4-0.4 3.4-1.4 0.9-0.9 1.4-2.1 1.4-3.4 0-1.3-0.4-2.4-1.4-3.4-0.9-0.9-2.1-1.4-3.4-1.4-1.3 0-2.4 0.4-3.3 1.4-0.9 0.9-1.4 2.1-1.4 3.4m107.9-3.5v17.6c0 3.6-1.7 5.5-5 5.5-0.9 0-1.9-0.3-2.8-0.9-0.9-0.6-1.6-1.3-1.9-2v-20.2h-6.6v18.6c0 1.4-0.4 2.4-1.3 3.3-0.9 0.8-2.1 1.2-3.7 1.2-0.8 0-1.7-0.4-2.7-0.9-1-0.6-1.7-1.3-2.1-2v-20.2H36v28.1h4.5l1.4-2.5c1.8 2 4.2 3 7.1 3 3.7 0 6.6-1 8.4-3 0.9 0.9 2 1.7 3.5 2.2 1.5 0.5 3 0.8 4.5 0.8 3.1 0 5.5-0.9 7.3-2.7 1.8-1.8 2.7-4.3 2.7-7.4v-18.5zm-51.4-0.5v5.4c2.1 0 3.7 0.8 4.9 2.4 1.2 1.7 1.8 3.9 1.8 6.8 0 6-2.2 9.1-6.7 9.1v5.3c4.3 0 7.6-1.3 10-3.9 2.4-2.6 3.5-6.1 3.5-10.6 0-4.5-1.2-8-3.6-10.7-2.4-2.7-5.8-4-9.9-4" fill="#fff"/></g><g transform="translate(375.196,414.1)" class="s0"><path d="m0 0c-0.9 2.7-1.4 5.4-1.4 8.4 0 10.2 6 19.1 14.8 23.3v0.4c0 1.9 1.6 3.5 3.5 3.5 1.4 0 2.5-0.7 3.2-1.8 1.5 0.3 3.2 0.4 4.8 0.4 6.5 0 12.4-2.3 16.9-6-4.1 2.3-8.9 3.7-14 3.7-2.6 0-5.1-0.4-7.5-1-0.5-1.4-1.8-2.4-3.4-2.4-0.6 0-1.2 0.1-1.7 0.4C6 24.3-0.4 15-0.4 4.2-0.4 2.8-0.2 1.4 0 0" fill="#fff"/></g></g></g></g></svg>