<svg xmlns="http://www.w3.org/2000/svg" viewBox="0 0 378.36 49.47"><defs><style>.cls-1{fill:#a22631;}.cls-2{fill:#f26639;}</style></defs><title>header_logo</title><path class="cls-1" d="M22.18,10.3V25.42H6.84V10.3H0V48.75H6.84V31.4H22.18V48.75h6.76V10.3ZM91.8,20.67v5.4h3.67V48.75h6.63V20.67Zm9.72-9.79A3.67,3.67,0,0,0,98.85,9.8,3.69,3.69,0,0,0,95,13.61a3.71,3.71,0,0,0,1.08,2.67,3.74,3.74,0,0,0,5.4,0,3.74,3.74,0,0,0,0-5.4ZM73.51,43,88.27,23v-2.3H63.65v5.76h15L63.36,46.52v2.23h25V43ZM219.17,31.32l9.57-10.65h-7.92L211.39,31.4V8.64l-6.48,1.51v38.6h6.48V39.39L214.56,36l8.28,12.74h7.78ZM187.05,20.67v5.4h3.54V48.75h6.69V20.67Zm9.65-9.79A3.8,3.8,0,0,0,194,9.8a3.67,3.67,0,0,0-2.67,1.08,3.53,3.53,0,0,0-1.15,2.73,3.51,3.51,0,0,0,1.15,2.67A3.82,3.82,0,0,0,194,17.43a4,4,0,0,0,2.73-1.15,3.67,3.67,0,0,0,1.08-2.67A3.69,3.69,0,0,0,196.7,10.88ZM179.43,43.71c-1.59,0-2.74-.43-3.32-1.3a6.79,6.79,0,0,1-1-4.17V26h7.78V20.67H175.1V12.53L168.55,15v5.69h-3.24V26h3.24V40.11a9.53,9.53,0,0,0,2.3,6.77c1.52,1.58,3.61,2.37,6.49,2.37a21.52,21.52,0,0,0,6.48-.79V42.41A8,8,0,0,1,179.43,43.71Z" transform="translate(0 -0.58)"/><path class="cls-1" d="M254.23,40.11v-6c0-5.4-1-9.07-2.95-11s-4.82-2.81-8.71-2.95h-.72a17.91,17.91,0,0,0-8.14,1.65l1.44,5.11a13.41,13.41,0,0,1,6.19-1.29c.44,0,.87.07,1.23.07,3.38.28,5.11,1.94,5.11,4.89a15.66,15.66,0,0,0-2.73-.36c-.87,0-1.66,0-2.38.07a15.35,15.35,0,0,0-8.07,2.6,9.05,9.05,0,0,0-3.67,7.63,8.06,8.06,0,0,0,2.6,6.41,10.45,10.45,0,0,0,7.12,2.3,18.31,18.31,0,0,0,2-.14,12.24,12.24,0,0,0,2.66-.8,6.76,6.76,0,0,0,3.1-2.37,5.57,5.57,0,0,0,1.51,2.23,3.78,3.78,0,0,0,2.59,1.08,7.5,7.5,0,0,0,2.3-.36,3.64,3.64,0,0,0,1.8-1.72C255,46.23,254.23,43.85,254.23,40.11Zm-6.55-1.94c0,3.59-1.66,5.61-5.11,5.82h-.79c-3,0-4.4-1.22-4.4-3.74,0-2.73,1.73-4.39,5.19-4.89a25.31,25.31,0,0,1,2.59-.15,13.08,13.08,0,0,1,2.52.29Z" transform="translate(0 -0.58)"/><path class="cls-1" d="M160.41,40.11v-6c0-5.4-1-9.07-2.95-11s-4.82-2.81-8.71-2.95H148a17.8,17.8,0,0,0-8.07,1.65l1.45,5.11a13.38,13.38,0,0,1,6.19-1.29c.43,0,.86.07,1.22.07,3.39.28,5.11,1.94,5.11,4.89a15.43,15.43,0,0,0-2.73-.36c-.86,0-1.66,0-2.38.07a15.31,15.31,0,0,0-8.06,2.6A9.05,9.05,0,0,0,137,40.54,8.08,8.08,0,0,0,139.61,47a10.47,10.47,0,0,0,7.12,2.3,18.13,18.13,0,0,0,2-.14,12.08,12.08,0,0,0,2.66-.8,6.7,6.7,0,0,0,3.1-2.37A5.57,5.57,0,0,0,156,48.17a3.81,3.81,0,0,0,2.6,1.08,7.59,7.59,0,0,0,2.3-.36,3.64,3.64,0,0,0,1.8-1.72C161.21,46.23,160.41,43.85,160.41,40.11Zm-6.55-1.94c0,3.59-1.65,5.61-5.11,5.82H148c-3,0-4.39-1.22-4.39-3.74,0-2.73,1.73-4.39,5.18-4.89a25.48,25.48,0,0,1,2.59-.15,12.93,12.93,0,0,1,2.52.29Z" transform="translate(0 -0.58)"/><path class="cls-1" d="M131.47,12.89c-2-1.36-4.9-2.23-8.64-2.59a45.66,45.66,0,0,0-4.68-.22c-.79,0-3.46.07-8.06.29V48.75H117V34.64c1.3.07,2.3.14,3.1.14s1.87,0,2.73-.07c8.57-.79,12.89-5.11,12.89-13.11C135.72,17.64,134.28,14.76,131.47,12.89Zm-4.9,14.33a9.44,9.44,0,0,1-3.74,1.37,20.8,20.8,0,0,1-3.1.21,23.27,23.27,0,0,1-2.73-.21V16.28a18.24,18.24,0,0,1,2-.15,20.51,20.51,0,0,1,3.81.29c3.89.72,5.9,2.59,5.9,5.69C128.73,24.48,128,26.21,126.57,27.22Z" transform="translate(0 -0.58)"/><polygon class="cls-1" points="53.64 8.64 47.73 16.34 42.7 16.34 46.37 9.94 47.16 8.64 53.64 8.64"/><path class="cls-1" d="M58.1,40.11v-6q0-8.1-3-11c-1.87-1.88-4.75-2.81-8.71-2.95h-.72a17.53,17.53,0,0,0-8.06,1.65L39,26.93a13.44,13.44,0,0,1,6.19-1.29c.44,0,.8.07,1.16.07,3.45.28,5.11,1.94,5.11,4.89a14.05,14.05,0,0,0-2.74-.36c-.79,0-1.58,0-2.37.07a15.35,15.35,0,0,0-8.07,2.6,9.08,9.08,0,0,0-3.67,7.63A8.12,8.12,0,0,0,37.22,47a10.82,10.82,0,0,0,7.21,2.3,18.26,18.26,0,0,0,1.94-.14,11.18,11.18,0,0,0,2.66-.8,7,7,0,0,0,3.17-2.37,4.38,4.38,0,0,0,1.51,2.23,3.5,3.5,0,0,0,2.52,1.08,7.27,7.27,0,0,0,2.31-.36,3.45,3.45,0,0,0,1.8-1.72C58.82,46.23,58.1,43.85,58.1,40.11Zm-6.55-1.94c0,3.59-1.73,5.61-5.18,5.82h-.72c-2.95,0-4.39-1.22-4.39-3.74,0-2.73,1.72-4.39,5.11-4.89A25.57,25.57,0,0,1,49,35.21a13.59,13.59,0,0,1,2.52.29Z" transform="translate(0 -0.58)"/><path class="cls-2" d="M375.69,22.83c-1.72-1.8-4.17-2.66-7.26-2.66A13.72,13.72,0,0,0,364,21a9.21,9.21,0,0,0-3.46,2.23c-1.87-2-4.68-3-8.42-3a9,9,0,0,0-7.06,3l-1.36-2.52h-4.54V48.75h6.62V28.59a6.34,6.34,0,0,1,2.09-2,5.37,5.37,0,0,1,2.67-.93,5.27,5.27,0,0,1,3.67,1.22,4.46,4.46,0,0,1,1.29,3.31V48.75H362V28.52a5.7,5.7,0,0,1,4.75-2.88c3.31,0,5,1.87,5,5.47V48.75h6.63V30.24A10,10,0,0,0,375.69,22.83ZM272,41.91a4.62,4.62,0,0,0-3.39-1.37,4.33,4.33,0,0,0-3.31,1.37,4.7,4.7,0,0,0,0,6.77,4.37,4.37,0,0,0,3.31,1.37A4.79,4.79,0,0,0,272,41.91ZM301,41.33a9.77,9.77,0,0,1-6.48,2.45q-8.43,0-8.43-8.86a10,10,0,0,1,2.16-6.77,7.45,7.45,0,0,1,5.91-2.51,8.39,8.39,0,0,1,6.19,2.23l2.81-5a13.8,13.8,0,0,0-8.5-2.73c-4.75,0-8.57,1.36-11.3,4.1a14.51,14.51,0,0,0-4.11,10.65c0,4.54,1.23,8,3.75,10.52s6,3.81,10.3,3.81a21.57,21.57,0,0,0,5.11-.5,14.76,14.76,0,0,0,5-2.23Z" transform="translate(0 -0.58)"/><path class="cls-2" d="M330.34,24.05c-2.38-2.59-5.69-3.88-10-3.88a12.75,12.75,0,0,0-9.8,4,14.77,14.77,0,0,0-3.74,10.44c0,4.46,1.23,7.92,3.53,10.58s5.76,4,10,4,7.49-1.29,9.94-4,3.59-6.19,3.59-10.65S332.71,26.64,330.34,24.05Zm-5.12,17.43a5.81,5.81,0,0,1-4.89,2.37c-4.47,0-6.7-3.09-6.7-9.21a10.92,10.92,0,0,1,1.8-6.7,6.19,6.19,0,0,1,4.9-2.45c4.46,0,6.69,3.1,6.69,9.15C327,37.59,326.45,39.82,325.22,41.48Z" transform="translate(0 -0.58)"/><path class="cls-2" d="M266.4,36.15A24.75,24.75,0,0,1,265,27.8,25.8,25.8,0,0,1,279.79,4.54V4.11A3.54,3.54,0,0,1,283.32.58a3.66,3.66,0,0,1,3.17,1.8A25.75,25.75,0,0,1,291.24,2a26.52,26.52,0,0,1,16.92,6,28.51,28.51,0,0,0-14-3.67,28.87,28.87,0,0,0-7.49,1,3.6,3.6,0,0,1-3.38,2.38,3.72,3.72,0,0,1-1.73-.43A27.53,27.53,0,0,0,266,31.9a27,27,0,0,0,.36,4.25" transform="translate(0 -0.58)"/></svg>