<?xml version="1.0" encoding="utf-8"?>
<!-- Generator: Adobe Illustrator 22.1.0, SVG Export Plug-In . SVG Version: 6.00 Build 0)  -->
<svg version="1.1" id="Слой_1" xmlns="http://www.w3.org/2000/svg" xmlns:xlink="http://www.w3.org/1999/xlink" x="0px" y="0px"
	 viewBox="0 0 97.3 99.5" style="enable-background:new 0 0 97.3 99.5;" xml:space="preserve">
<style type="text/css">
	.st0{fill:#704F88;}
	.st1{fill:#6C4B85;}
</style>
<path class="st0" d="M46.7,0c-1,1.1-1.6,2.7-3.7,2.4c0.5-1,0.9-1.8,1.8-2.4H46.7z"/>
<path class="st1" d="M65.6,65.4c2.9-0.7,5.5-1.3,8.5-2C67.3,61.2,60.8,59,54,56.7c2.3,6.8,4.4,13.3,6.6,19.8h0.2
	c0.6-2.6,1.2-5.3,1.8-7.9c0.4,0,0.6,0.3,0.8,0.5c2.5,2.5,5,5,7.6,7.5c0.5,0.5,0.6,0.8,0,1.3c-13.8,11.9-35.8,10.2-47.6-3.6
	c-6.2-7.2-9-15.5-8.4-25C15.7,33.7,27.8,20.4,43.3,18C61,15.1,77.8,26,82,43.4c2.7,11.1,0.3,21.1-6.8,30.1c-0.6,0.7-0.9,0.8-1.5,0.1
	C71.1,70.9,68.5,68.3,65.6,65.4L65.6,65.4z M48.8,51.6c0.5,0.1,0.8,0.2,1.1,0.3l18,6c1,0.3,1.3,0.4,1.3-0.9c-0.1-3.6-0.1-7.3,0-10.9
	c0-1.2-0.4-1.3-1.4-1.3c-3.7,0.1-7.4,0-11.2,0c-0.8,0-1.1-0.2-1.1-1.1V32.2c0-0.8-0.2-1.1-1.1-1.1H42.9c-0.8,0-1,0.2-1,1v11.4
	c0,1-0.2,1.3-1.2,1.3c-3.8-0.1-7.6,0-11.4,0c-0.8,0-1.1,0.2-1.1,1.1c0,3.8,0.1,7.6,0,11.4c0,0.9,0.3,1.1,1.2,1.1h11.4
	c0.9,0,1.1,0.3,1.1,1.1V71c0,0.5-0.1,1,0.7,1h12.8C53.4,65.2,51.1,58.5,48.8,51.6z"/>
<path class="st0" d="M87.7,31.7c-1.6,0-2.7,0.4-3.8,0.6c-0.7,0.1-1.2,0.3-1.7-0.5c-0.4-0.8,0.2-1.1,0.6-1.4c2.1-1.8,4.3-3.6,6.5-5.5
	c0.2,0.4,0.4,0.7,0.6,1c0.5,0.7,0.4,1.2-0.3,1.7c-1,0.7-2,1.5-3.2,2.5c1.6-0.1,2.8-0.6,4.1-0.8c0.6-0.1,1-0.3,1.4,0.4
	s-0.2,0.9-0.6,1.2c-0.9,0.8-1.8,1.6-2.7,2.7c1.2-0.3,2.4-0.7,3.6-1c0.9-0.3,1.5,0.1,1.8,1.3c0.2,0.9-0.7,0.7-1,0.8
	c-2.4,0.7-4.8,1.2-7.2,1.9c-0.6,0.2-1,0.2-1.3-0.5c-0.4-0.7,0-1,0.4-1.4C85.7,33.6,86.6,32.8,87.7,31.7L87.7,31.7z"/>
<path class="st0" d="M97.1,48.8v1.4c-0.1,2.4-2,3.5-4.1,2.4c-0.4-0.2-0.6-0.1-0.9,0.1c-1.9,1.3-4.1,0.3-4.3-2
	c-0.1-1.1-0.1-2.3-0.2-3.5c-0.1-0.6,0.2-0.8,0.8-0.8c2.5-0.1,5.1-0.2,7.6-0.4c0.9-0.1,1.1,0.3,1.1,1.1C97,47.7,97,48.3,97.1,48.8
	L97.1,48.8z M93.3,49.3c0.1,0.7-0.2,1.7,1,1.7c0.7,0,1.1-0.6,0.9-1.2c-0.1-0.6,0.4-1.6-0.8-1.5C93.8,48.3,93.1,48.3,93.3,49.3
	L93.3,49.3z M91.6,49.9c0-0.8,0.1-1.6-1.1-1.4c-0.6,0.1-1.2,0-1,0.9c0.1,0.7-0.2,1.9,1.1,1.9C91.5,51.2,91.7,50.5,91.6,49.9z"/>
<path class="st0" d="M87.1,79.2c-0.6,0-1.1-0.2-1.6-0.5c-1-0.6-2-1.2-3-1.9c-1.6-1.1-1.9-2.4-1-4c0.5-1,1.2-1.9,1.8-2.9
	c0.3-0.4,0.5-0.5,1-0.2c2.3,1.5,4.6,2.9,6.9,4.3c0.4,0.2,0.5,0.4,0.2,0.8c-0.7,1.1-1.3,2.2-2.1,3.2C88.7,78.9,88,79.3,87.1,79.2
	L87.1,79.2z M88.8,75.4c0-0.4-0.4-0.4-0.6-0.6c-1.1-0.7-2.2-1.4-3.2-2c-0.4-0.3-0.9-0.9-1.3,0c-0.3,0.7-1.3,1.4-0.2,2.2
	c0.9,0.6,1.9,1.2,2.8,1.8c0.4,0.3,0.8,0.5,1.3,0.2C88.2,76.6,88.5,75.9,88.8,75.4z"/>
<path class="st0" d="M96.9,59c-0.1,0.3-0.1,0.9-0.3,1.5c-0.4,1.6-1.5,2.4-3.2,2.2c-1.4-0.2-2.8-0.4-4.2-0.7S87,60.7,87,59.3
	c0-0.8,0.1-1.6,0.4-2.3c0.5-1.2,1.5-1.9,2.8-1.7c1.5,0.2,2.9,0.4,4.4,0.7C96.2,56.1,96.9,57.1,96.9,59z M95,59.1
	c0.1-0.8-0.2-1.2-1-1.3c-1.2-0.2-2.4-0.4-3.5-0.6c-0.9-0.2-1.3,0.2-1.4,1c-0.3,0.8-0.3,1.5,0.8,1.7s2.3,0.4,3.4,0.6
	C94.5,60.6,94.9,60.4,95,59.1L95,59.1z"/>
<path class="st0" d="M22.7,92.7c-0.5-0.4-1-0.6-1.4-1s0.1-0.6,0.2-0.9l0.6-0.9c1-1.4,1-1.4-0.3-2.5c-0.7-0.6-1.2-0.6-1.6,0.2
	c-0.2,0.4-0.6,0.7-0.8,1.2c-0.5,0.9-0.9,0.8-1.7,0.2c-0.6-0.5-0.6-0.8-0.1-1.3c1.5-2,3-4,4.5-6c0.5-0.7,0.8-0.6,1.4-0.2
	c0.5,0.4,0.9,0.7,0.3,1.4c-0.3,0.3-0.5,0.8-0.9,1.1c-0.9,0.9-0.7,1.5,0.3,2.2c0.9,0.7,1.4,0.8,2-0.3c0.2-0.4,0.6-0.7,0.8-1.1
	c0.5-1,1-0.8,1.7-0.2c0.4,0.4,0.6,0.6,0.2,1.1c-1.6,2.1-3.2,4.3-4.8,6.4C23,92.3,22.9,92.5,22.7,92.7L22.7,92.7z"/>
<path class="st0" d="M10.7,25.3c0,0.7,0,1.2-0.9,1.3s-1.1,0.9-1.3,1.7C8.3,29,9,29.2,9.4,29.5l3,1.8c0.5,0.3,0.9,0.3,1.3-0.2
	s0.9-1,0.6-1.7c-0.3-0.6-1-0.7-1.3-0.1c-0.4,0.7-0.8,0.6-1.3,0.2c-0.7-0.4-0.4-0.8-0.1-1.3c1.5-2.5,1.5-2.6,3.9-0.8
	c0.9,0.7,1.3,1.6,0.9,2.7c-0.3,1-0.8,1.8-1.5,2.6c-0.9,0.9-1.9,1.1-3.1,0.5c-1.4-0.8-2.8-1.6-4.1-2.5c-1.1-0.7-1.5-1.8-1-3
	c0.6-1.4,1.2-3,3.1-3.2C10.4,24.4,10.9,24.5,10.7,25.3L10.7,25.3z"/>
<path class="st0" d="M51.7,9.4c-0.1,1.5,0.3,2,1.7,1.9c0.6,0,0.9-0.4,1-1c0.1-0.7-0.4-0.7-0.8-0.7c-0.8,0-0.6-0.5-0.6-1
	c0-0.6,0.2-0.8,0.8-0.7h0.4c0.8,0.5,2.5-0.8,2.5,1.3c0,3.1-1.2,4-3.3,3.9c-0.5,0-1-0.1-1.5-0.2c-1.4-0.3-2.2-1.2-2.1-2.6
	c0.1-1.7,0.3-3.3,0.5-5c0-0.3,0.2-0.7,0.4-1c1-1.4,2.4-1.1,3.8-1C55.7,3.4,56.5,4,57,5c0.1,0.3,0.3,0.6-0.1,0.7
	c-0.6,0.1-1.2,0.9-1.7,0.2c-0.4-0.6-1-0.7-1.6-0.8c-0.9-0.1-1.3,0.2-1.4,1.1C51.9,7.3,51.8,8.4,51.7,9.4L51.7,9.4z"/>
<path class="st0" d="M70.2,18.8c-1.2-0.2-2.4-0.8-3.3-2c-0.6-0.8-0.6-1.7-0.1-2.6c0.8-1.4,1.5-2.7,2.3-4c0.7-1.2,1.9-1.6,3.2-1
	c1.4,0.6,2.9,1.2,3.1,3c0.1,0.4,0.3,1.1-0.4,1c-0.6,0-1.4,0.4-1.7-0.6c-0.1-0.4-0.2-0.7-0.6-1c-1.2-0.9-1.7-0.8-2.4,0.5
	c-0.6,1-1.1,1.9-1.7,2.9c-0.3,0.5-0.3,0.9,0.2,1.3c0.5,0.3,1,0.9,1.7,0.6s0.7-1,0.1-1.4c-0.7-0.4-0.5-0.7-0.2-1.3s0.6-0.6,1.1-0.2
	c0.2,0.1,0.4,0.2,0.5,0.3c0.5,0.6,1.9,0.4,1.7,1.5C73.5,17.4,71.8,18.8,70.2,18.8L70.2,18.8z"/>
<path class="st0" d="M62.2,15c-0.9-0.1-1.8-0.4-2.7-0.9c-1.1-0.7-1.5-1.8-1.2-3c0.6-2,1.3-3.9,1.9-5.9c0.3-1,0.9-0.5,1.4-0.4
	c0.6,0.1,0.8,0.4,0.6,1.1c-0.6,1.7-1.1,3.5-1.7,5.2c-0.3,0.9-0.2,1.4,0.8,1.7c0.9,0.3,1.5,0.2,1.8-0.9c0.5-1.8,1.1-3.5,1.7-5.2
	C65,6,65.3,5.9,66,6.1c0.6,0.2,1.2,0.3,0.8,1.2c-0.7,1.9-1.2,3.9-1.9,5.8C64.5,14.4,63.5,15.1,62.2,15L62.2,15z"/>
<path class="st0" d="M13.1,35.9c-0.6,1.6-1.2,3.2-1.7,4.8c-0.2,0.5-0.5,0.3-0.8,0.2l-7.5-2.7c-0.6-0.2-0.7-0.5-0.5-1
	c0.5-1.4,1.1-2.8,1.5-4.3c0.3-0.8,0.7-0.5,1.2-0.4c0.5,0.2,0.9,0.3,0.6,1S5.4,35,5.1,35.7s0.1,0.9,0.6,1.1s1,0.4,1.2-0.4
	C7,35.9,7.2,35.5,7.4,35c0.2-0.6,0.3-1.1,1.2-0.8c0.8,0.3,0.9,0.7,0.6,1.4c-0.2,0.3-0.2,0.7-0.4,1c-0.3,0.7-0.3,1.1,0.6,1.4
	s1.1,0,1.3-0.8c0.2-0.7,0.5-1.3,0.7-2c0.2-0.5,0.4-0.6,0.9-0.4C12.5,35.3,13.2,35.1,13.1,35.9L13.1,35.9z"/>
<path class="st0" d="M43,13c-0.8,0.3-1-0.2-1.1-1c-0.2-2.5-0.5-4.9-0.8-7.4c-0.1-0.7,0.1-1,0.9-1c1.4-0.1,2.9-0.2,4.3-0.4
	C47.1,3,47.2,3.4,47.2,4s0.1,1-0.7,1c-0.7,0-1.4,0.2-2,0.2c-0.8,0-1.1,0.3-1,1.1c0.1,1,0.6,0.8,1.2,0.7h1.2c0.7-0.1,1,0,1.1,0.8
	s-0.2,1.1-1,1.1c-0.4,0-0.7,0-1.1,0.1c-0.6,0-1.2-0.1-1.1,1c0.1,0.9,0.5,1.1,1.3,0.9c0.5-0.1,1.1,0,1.7-0.2c0.8-0.2,1.1,0,1.2,0.9
	c0.1,1-0.5,0.9-1,1C45.7,12.8,44.5,12.9,43,13L43,13z"/>
<path class="st0" d="M88.3,41.5l0.6,2.4c0.2,0.8-0.3,0.9-0.9,1.1s-0.9,0-1-0.6c-0.3-1.4-0.7-2.9-1.1-4.3c-0.2-0.6-0.1-0.8,0.6-1
	c2.5-0.6,5-1.3,7.5-1.9c0.6-0.2,0.9-0.2,1.1,0.6c0.3,1.4,0.7,2.9,1.1,4.3c0.2,0.8-0.2,0.8-0.7,1c-0.6,0.2-1,0.2-1.1-0.6
	c-0.1-0.7-0.3-1.3-0.5-2c-0.1-0.6-0.3-1.1-1.2-0.9c-0.8,0.2-0.9,0.6-0.7,1.3l0.3,1.2c0.2,0.7,0.2,1.1-0.7,1.3
	c-0.8,0.2-1.1-0.1-1.2-0.8c-0.1-0.5-0.3-1.1-0.4-1.6c-0.2-0.8-0.8-0.3-1.2-0.2C88.6,40.7,88,40.8,88.3,41.5L88.3,41.5z"/>
<path class="st0" d="M9.1,72.1c-0.3-0.7-0.6-1.3-1-1.9c-0.5-0.8,0.1-0.9,0.6-1.2c0.6-0.3,0.9-0.3,1.2,0.4c0.1,0.4,0.4,0.7,0.5,1.1
	c0.3,1.1,0.9,1,1.8,0.5c0.5-0.3,0.5-0.5,0.2-0.9c-0.4-0.7-0.7-1.5-1.1-2.2s0.1-0.8,0.5-1s0.8-0.6,1.2,0.2c0.7,1.4,1.4,2.9,2.1,4.3
	c0.3,0.5,0,0.6-0.3,0.8c-2.4,1.2-4.9,2.4-7.3,3.7C7,76.1,6.8,76,6.6,75.6l-2.1-4.2c-0.3-0.6-0.1-0.8,0.4-1c0.4-0.2,0.9-0.7,1.3,0.1
	l1.2,2.4c0.2,0.3,0.4,0.5,0.7,0.3C8.4,72.7,9,72.7,9.1,72.1L9.1,72.1z"/>
<path class="st0" d="M16.6,17.9c-0.6,0.7-1.2,1.5-1.9,2.1c-0.6,0.5-0.5,0.8,0.1,1.3c0.5,0.5,0.9,0.5,1.3-0.1c0.2-0.4,0.6-0.6,0.9-1
	c0.4-0.5,0.7-0.8,1.4-0.2c0.6,0.6,0.6,0.9,0,1.4c-0.3,0.2-0.5,0.5-0.7,0.8c-0.8,0.9-0.7,1.3,0.4,2c0.4,0.3,0.6-0.1,0.8-0.3
	c0.6-0.6,1.2-1.2,1.7-1.9c0.6-0.7,0.9-0.1,1.2,0.2c0.5,0.3,0.6,0.6,0.1,1.1c-1.1,1.3-2.1,2.4-3.1,3.6c-0.4,0.4-0.6,0.4-1.1,0
	c-2-1.8-3.9-3.6-5.9-5.4c-0.4-0.4-0.4-0.6,0-1c1.1-1.1,2.1-2.3,3.2-3.4c0.2-0.2,0.4-0.5,0.8-0.2C16,17.2,16.5,17.4,16.6,17.9z"/>
<path class="st0" d="M36.5,4.9c0.2,0,0.6,0.1,0.9,0.2c0.5,0.2,1.3,0.5,1,1s-0.7,1.6-1.8,0.8c-0.4-0.3-1-0.1-1.4,0.2
	C35,7.3,34.9,7.6,35,7.9c0.2,0.5,0.7,0.6,1.2,0.7c0.6,0.1,1.2,0.1,1.8,0.2c1.4,0.3,2.2,1.2,2.3,2.6s-0.5,2.3-1.9,2.8
	c-1.1,0.4-2.2,0.7-3.3-0.1c-0.3-0.2-0.9-0.4-0.6-0.9c0.3-0.4,0.6-1.2,1.5-0.9c0.3,0.1,0.5,0.3,0.8,0.3c0.6,0,1.3-0.1,1.4-0.9
	s-0.5-1-1.1-1.1c-0.4-0.1-0.8,0-1.2-0.1c-2-0.3-3.1-1.4-3-3.1C32.9,6.1,34.4,4.9,36.5,4.9z"/>
<path class="st0" d="M18.4,15.1c0-1.9,2.5-3.7,4.3-3c0.3,0.1,0.8,0.3,0.5,0.7s-0.1,1.3-1,1.2c-0.3,0-0.6-0.1-0.9,0
	c-0.5,0.3-0.9,0.6-0.7,1.2s0.7,0.6,1.2,0.5c0.6-0.1,1.2-0.3,1.9-0.5c1.5-0.3,2.7,0.4,3.3,1.7c0.6,1.2,0.2,2.4-1,3.4
	c-0.9,0.7-1.8,1.2-3,0.9c-0.4-0.1-1.1-0.1-0.8-0.7c0.2-0.5,0.1-1.4,1.1-1.3c0.2,0,0.4,0.1,0.6,0.1c0.6-0.2,1.4-0.5,1.2-1.4
	c-0.1-0.7-0.8-0.8-1.4-0.6c-0.7,0.2-1.3,0.3-2,0.4C19.8,18.1,18.3,16.8,18.4,15.1L18.4,15.1z"/>
<path class="st0" d="M78.7,78.7c-0.1-0.2-0.2-0.5-0.4-0.7c-0.2-0.4-0.3-0.7,0.1-1c1.1-1.2,1.1-1.2,1.9,0.2c1.2,2.2,2.3,4.4,3.5,6.5
	c0.3,0.5,0.4,0.9-0.1,1.5c-0.5,0.5-0.8,0.4-1.4,0.1c-2.3-1.2-4.7-2.3-7-3.4c-0.3-0.2-1.2-0.3-0.7-1c0.6-0.9,0.6-1.4,1.7-0.9
	C77.2,80.4,78.7,79.5,78.7,78.7L78.7,78.7z M80.7,82.3c0.2-0.2-0.4-1-0.7-1.5c-0.1-0.2-0.2-0.5-0.5-0.3c-0.2,0.1-0.4,0.4-0.5,0.6
	s0.1,0.3,0.3,0.4C79.8,81.8,80.2,82,80.7,82.3z"/>
<path class="st0" d="M28.7,18c-0.6,0-0.3-0.5-0.3-0.8c-0.1-2.1-0.1-4.1-0.2-6.2c0-0.9-0.3-1.2-1.1-0.6c-0.3,0.2-0.6,0.3-0.8,0.4
	c-0.6,0.4-0.9,0.4-1.3-0.3s-0.2-1,0.5-1.4c1.3-0.6,2.5-1.2,3.7-1.9c0.7-0.4,1-0.4,1,0.6c0,2,0.1,4.1,0.1,6.1c0,1.2,0,1.2,1.2,0.7
	c0.2-0.1,0.5-0.3,0.7-0.4c1.2-0.6,1.3-0.6,1.8,0.7c0.1,0.3,0.1,0.5-0.2,0.7L29,18L28.7,18L28.7,18z"/>
<path class="st0" d="M77.7,12.7c2.6,0.8,1.5,2.7,1.1,4.4c0.9,0,1.5-0.4,2.1-0.7c0.8-0.3,2,0.2,2.4,0.9c0.2,0.3,0,0.4-0.3,0.5
	c-0.5,0.2-1,0.4-1.6,0.6c-2.3,0.6-4.3,1.7-5.6,3.7c-0.5,0.8-0.9,0.5-1.4,0c-0.5-0.4-0.9-0.8-0.2-1.4c1.9-1.6,2.7-3.7,3-6.2
	C77.3,14,77.5,13.4,77.7,12.7z"/>
<path class="st0" d="M10.1,59.2c0.4,0,0.5,0.3,0.6,0.5c0.4,1.5,0.8,3.1,1.3,4.6c0.1,0.5,0,0.6-0.4,0.8c-2.6,0.7-5.3,1.5-7.9,2.3
	c-1,0.3-0.7-0.6-0.9-1c-0.3-0.5-0.3-0.9,0.4-1c1.9-0.5,3.7-1.1,5.6-1.6c0.8-0.2,1-0.5,0.7-1.3c-0.2-0.6-0.3-1.1-0.5-1.7
	C8.7,59.7,9.1,59.1,10.1,59.2L10.1,59.2z"/>
<path class="st0" d="M72.8,84.8c-0.7,0.5-1.5,1-2.2,1.6c-0.6,0.5-1,0.6-1.5-0.2c-0.6-0.8-0.2-1,0.4-1.4c1.1-0.8,2.3-1.6,3.4-2.4
	c0.5-0.4,0.8-0.3,1.1,0.2l4.5,6.3c0.6,0.8,0.1,1-0.4,1.4c-0.6,0.5-0.9,0.5-1.4-0.2c-1.1-1.6-2.2-3.1-3.3-4.7
	C73.2,85.1,73.1,84.8,72.8,84.8L72.8,84.8z"/>
<path class="st0" d="M94.9,66.7c-0.1,1.2-0.7,1.6-1.7,1.2c-1.6-0.6-3.2-1.2-4.8-1.9c-0.9-0.4-1.4-0.2-1.6,0.8
	c-0.1,0.5-0.4,1-0.6,1.6c-0.2,0.8-0.5,0.9-1.3,0.6c-0.9-0.3-0.7-0.7-0.5-1.3c0.5-1.3,1-2.5,1.4-3.8c0.2-0.5,0.4-0.9,1.1-0.6
	c2.4,1,4.9,1.9,7.4,2.8C94.6,66.2,95,66.2,94.9,66.7L94.9,66.7z"/>
<path class="st0" d="M9.4,77c0.5,0,0.6,0.4,0.8,0.6c0.4,0.8,0.9,0.7,1.5,0.2c1.5-1.2,3-2.2,4.5-3.4c0.7-0.6,1-0.2,1.4,0.4
	c0.4,0.5,0.6,0.9-0.1,1.3c-1.6,1.1-3.1,2.3-4.6,3.4c-0.7,0.5-0.7,0.8-0.2,1.4c0.4,0.4,0.7,0.8-0.1,1.3c-0.6,0.4-0.9,0.6-1.4-0.1
	c-0.8-1.2-1.7-2.2-2.5-3.4c-0.2-0.2-0.6-0.5-0.3-0.8C8.6,77.6,9.1,77.3,9.4,77L9.4,77z"/>
<path class="st0" d="M49.3,95c0,0.8-0.1,1.6-0.1,2.4c0,0.4-0.1,0.8-0.3,1.1c-0.6,0.9-2.2,1.2-3.7,0.7c-1.1-0.4-1.6-1.1-1.5-2.3
	c0.1-1.4,0.2-2.8,0.2-4.2c0-0.4,0.1-0.7,0.3-1c0.6-0.9,2.3-1.2,3.8-0.7c1.1,0.4,1.5,1.2,1.4,2.3C49.4,93.9,49.4,94.5,49.3,95
	L49.3,95z M48.1,94.1v-0.5c0.2-1-0.2-1.6-1.3-1.6c-1.1-0.1-1.5,0.4-1.5,1.5s-0.1,2.2-0.2,3.3c-0.1,1,0.4,1.3,1.3,1.4
	c0.9,0,1.5-0.2,1.5-1.2C47.9,96.1,48,95.2,48.1,94.1L48.1,94.1z"/>
<path class="st0" d="M39.5,90c2.5,0,3.6,1.3,3.1,3.4c-0.2,0.8-0.8,1.3-1.5,1.5c-0.9,0.3-1.8,0.6-2.6,0.9c-0.4,0.1-0.7,0.5-0.6,0.9
	s0.5,0.4,0.8,0.4c0.8,0.2,1.6,0.4,2.5,0.5c0.4,0.1,0.7,0.2,0.6,0.7c-0.1,0.4-0.3,0.6-0.7,0.5c-1.4-0.3-2.9-0.6-4.3-0.9
	c-0.2,0-0.4-0.1-0.4-0.3c-0.2-1,0.7-2.6,1.7-3c0.7-0.3,1.5-0.5,2.3-0.7c0.7-0.2,1.2-0.7,1.2-1.4c0-0.6-0.3-0.9-0.8-1
	c-0.7-0.2-1.3-0.3-1.7,0.6c-0.2,0.6-0.7,0.2-1,0.1c-0.5-0.1-0.3-0.5-0.2-0.8C38,90.4,38.8,90,39.5,90L39.5,90z"/>
<path class="st0" d="M21.5,79.5c-0.2,0.2-0.4,0.4-0.5,0.6c-1.9,1.8-3.8,3.6-5.7,5.5c-0.6,0.6-0.9,0.2-1.2-0.2S13,84.7,13.8,84
	c1.9-1.8,3.8-3.6,5.7-5.5c0.2-0.2,0.4-0.7,0.9-0.3C20.8,78.6,21.1,79,21.5,79.5z"/>
<path class="st0" d="M79,26.7c-0.6-0.2-0.8-0.8-1.2-1.2c-0.3-0.3,0-0.6,0.2-0.8c2-1.8,4-3.5,6-5.3c0.6-0.5,0.9-0.2,1.2,0.2
	s0.9,0.7,0.2,1.3c-2.1,1.8-4.1,3.6-6.1,5.3C79.3,26.5,79.1,26.6,79,26.7L79,26.7z"/>
<path class="st0" d="M11.9,18.8c-0.7-1.7-0.6-3.1,1.2-4.1C12.9,16.1,13.5,17.7,11.9,18.8z"/>
<path class="st0" d="M66.6,4c0,0.6-0.3,1-0.9,1.1c-0.6,0-1.1-0.3-1.1-1c0-0.6,0.4-1,1-1C66.2,3,66.6,3.4,66.6,4z"/>
<path class="st0" d="M63,4.2c-0.6-0.1-1-0.4-1-1c0-0.7,0.5-1,1.1-1S64,2.7,64,3.3S63.6,4.1,63,4.2z"/>
<path class="st0" d="M52,90.8c2.5-0.6,3.8,0.4,3.8,2.5c0,0.9-0.4,1.4-1.1,1.9c-0.8,0.5-1.6,1-2.3,1.5c-0.3,0.2-0.6,0.6-0.4,1.1
	c0.2,0.4,0.6,0.2,0.8,0.2c0.8,0,1.7-0.1,2.5-0.1c0.4,0,0.7,0,0.8,0.5c0,0.5-0.1,0.7-0.6,0.7c-1.5,0.1-2.9,0.1-4.4,0.2
	c-0.2,0-0.4,0-0.5-0.2c-0.4-0.9,0-2.7,0.9-3.4c0.6-0.5,1.3-0.9,2-1.3c0.6-0.4,1-0.9,0.8-1.7c-0.1-0.6-0.5-0.8-1-0.8
	c-0.7,0-1.3,0.1-1.5,1c-0.1,0.6-0.6,0.4-1,0.4c-0.5,0-0.4-0.4-0.4-0.7C50.6,91.6,51.3,91.1,52,90.8L52,90.8z"/>
<path class="st0" d="M58.1,90.1c2.3-1.1,3.8-0.3,4.2,1.7c0.2,0.9-0.1,1.5-0.7,2.1c-0.7,0.6-1.4,1.3-2,1.9c-0.3,0.3-0.5,0.7-0.2,1.2
	c0.3,0.4,0.6,0.1,0.8,0c0.8-0.2,1.6-0.4,2.4-0.6c0.4-0.1,0.7-0.1,0.9,0.3c0.1,0.5,0,0.7-0.5,0.8c-1.5,0.4-2.8,0.7-4.3,1.1
	c-0.2,0-0.4,0.1-0.5-0.1c-0.6-0.8-0.5-2.6,0.2-3.5c0.5-0.6,1.1-1.1,1.7-1.7c0.5-0.5,0.8-1.1,0.5-1.8c-0.2-0.6-0.6-0.7-1.1-0.6
	c-0.7,0.1-1.3,0.4-1.3,1.3c0,0.6-0.5,0.5-0.9,0.6c-0.5,0.1-0.5-0.3-0.5-0.6C56.9,91.2,57.5,90.5,58.1,90.1L58.1,90.1z"/>
<path class="st0" d="M4.4,56.1c-0.1-0.7-0.1-1.5-0.3-2.2C3.9,53,4.5,53.1,5,53c0.6-0.1,1,0,1,0.7c0,0.4,0.1,0.8,0.1,1.2
	C6,56.1,6.6,56.2,7.6,56c0.6-0.1,0.6-0.3,0.5-0.8c-0.1-0.8-0.2-1.7-0.3-2.5C7.7,52,8.2,52,8.7,52s1-0.2,1,0.5
	c0.2,1.6,0.3,3.2,0.6,4.8c0.1,0.5-0.2,0.6-0.6,0.6c-2.7,0.3-5.4,0.6-8.1,1c-0.5,0.1-0.7-0.1-0.7-0.6c-0.2-1.5-0.3-3.1-0.6-4.6
	c-0.1-0.6,0.2-0.8,0.7-0.8s1.1-0.3,1.2,0.5c0.1,0.9,0.2,1.7,0.3,2.6c0,0.4,0.2,0.6,0.6,0.5S4.1,56.6,4.4,56.1L4.4,56.1z"/>
<path class="st0" d="M1.3,49.9c-1.4-1.2-1.2-4.3,0.5-5.2c0.3-0.2,0.8-0.4,0.9,0.1s0.9,0.9,0.3,1.5c-0.2,0.2-0.5,0.4-0.6,0.7
	c-0.1,0.6-0.1,1.1,0.4,1.3c0.6,0.2,0.9-0.1,1.2-0.6s0.6-1.1,0.9-1.8c0.8-1.3,2.1-1.8,3.4-1.4c1.3,0.3,1.9,1.4,1.9,3
	c-0.1,1.1-0.3,2.1-1.3,2.9c-0.3,0.2-0.8,0.8-1.1,0.1c-0.2-0.5-1-1-0.3-1.7c0.1-0.2,0.3-0.2,0.5-0.4c0.2-0.6,0.5-1.4-0.3-1.8
	c-0.6-0.4-1.1,0.1-1.4,0.7c-0.3,0.7-0.6,1.2-1,1.8C4.5,50.8,2.5,51.1,1.3,49.9L1.3,49.9z"/>
</svg>
