<svg xmlns="http://www.w3.org/2000/svg" height="1600" width="1600">
  <path d="M1600 1600H0V0h1600v1600" fill="#fb8200"/>
  <path d="M327.027 464.33c-16.166.809-11.111 49.205-7.968 71.214-1.164-5.232-3.018-10.937-5.639-10.51-17.096 2.791-12.401 12.367-11.77 17.442-.734-4.133-3.322-12.296-10.742-10.688-6.743 1.461-9.063 9.039-9.795 13.681-.728-3.189-2.988-8.093-9.097-6.828-25.503 5.283 8.959 60.787 8.959 60.787l62.797-1.405s4.187-134.739-16.745-133.692" fill="#fbd8b5"/>
  <path d="M432.008 1428.787c-.024 36.16 150.885 65.56 337.061 65.666 186.175.12 337.119-29.106 337.14-65.266.023-36.147-150.888-65.547-337.061-65.667-186.175-.107-337.121 29.107-337.14 65.267" fill="#bd3831"/>
  <path d="M664.01 1170.988l.251 203.412s-79.458-86.077-104.877-8.667c-26.864 81.8 144.497 47.614 144.497 47.614l26.691-236.964-66.563-5.395M915.772 1203.723l-9.644 207.41s-71.804-90.665-106.968-8.666c-33.944 79.12 144.497 47.6 144.497 47.6l38.676-240.939-66.561-5.405" fill="#2e2d2d"/>
  <path d="M584.533 846.01S483.995 199.894 950.496 387.989c0 0 186.283.719 110.584 475.332l-476.547-17.31" fill="#fbd8b5"/>
  <path d="M551.507 789.13l19.421 428.14 497.635 19.43 36.426-442.737-553.482-4.834" fill="#f5f5f5"/>
  <path d="M454.17 199.88s61.869 355.783 451.675 262.6l57.464 110.4s48.694-50.925 64.32 2.337c15.631 53.262-51.08 36.203-51.08 36.203 0 .001 32.126 121.253 99.376 155.839 0 0 171.263-563.192-69.104-464.775 0 0-57.66-86.67-170.853-90.777-113.195-4.12-174.472 171.525-381.797-11.827M676.777 583.87c-.534 14.675-7.86 26.329-16.37 26.018-8.504-.31-14.97-12.461-14.435-27.139.533-14.681 7.864-26.333 16.367-26.024 8.508.31 14.972 12.462 14.438 27.144" fill="#2e2d2d"/>
  <path d="M868.42 588.007c-.532 14.681-7.859 26.33-16.37 26.021-8.507-.31-14.973-12.46-14.437-27.14.534-14.68 7.863-26.33 16.368-26.019 8.508.31 14.974 12.459 14.439 27.138" fill="#2e2d2d"/>
  <path d="M555.745 806.632s-156.944 325.365-202.388-222.413l-85.528 7.586s51.522 597.532 299.178 314.915l-11.262-100.088" fill="#f5f5f5"/>
  <path d="M600.452 790.03l161.804 221.033 172.512-218.107z" fill="#eff0ef"/>
  <path d="M600.452 790.03l-3.399 93.543 53.262 11.236-7.963 71.855 119.904 44.399L600.452 790.03" fill="#e6e6e6"/>
  <path d="M762.256 1011.063l116.747-55.774-3.766-52.31 56.26-19.947 3.271-90.076-172.512 218.107" fill="#e6e6e6"/>
  <path d="M725.87 836.293l17.786-26.21 45.423-1.276 16.474 31.837-18.406 21.292 14.002 99.955-38.893 49.172-43.15-58.94 27.762-89.456-20.999-26.374M827.508 671.747c-1.252 23.414-18.568 61.425-83.78 61.385-66.92-.04-66.88-65.735-66.88-65.735s87.665-18.189 150.66 4.35" fill="#2e2d2d"/>
  <path d="M1084.243 1036.924c.369.015.489-.207.529-.453-1.223.274.359-.072-.53.453M1063.53 1041.235c-.305.008-.654-.266-.943.094-.21-.1.146-.474-.272-.402-.29.413.405.73 1.116.689.049.025.054.047.076.08-.092-.15-.114-.3.024-.461M1063.927 1040.945c-.204.107-.319.196-.396.29.144-.006.282-.056.396-.29M1063.507 1041.696c.012.021.033.043.049.072.001-.03-.032-.05-.05-.072M978.003 1100.76c-.044-.097-.098-.203-.166-.337.092.122.156.24.166.337M981.163 1112.33c-.022-.047-.051-.085-.071-.127-.099.028-.033.07.07.126M1003.988 1065.448c.013-.028-.007-.052 0-.084-.143.068-.267.119-.432.199l.432-.115M977.235 1099.121c.006.026.01.048.022.076 0-.008.007-.012.007-.02l-.03-.056M1082.463 1036.877c-.366.582.352.432.676.603-.038-.264-.5-.384-.676-.603M1064.353 1041.493c.067-.153-.004-.272.211-.356-.215-.089-.356.2-.567.29.071.024.356.154.356.066M1059.685 1042.636l1.566-.94c-.595.197-1.552.672-1.566.94M1055.019 1042.821c.072-.149.226-.26.154-.382-.512.134-.588.277-.154.382M1054.852 1043.475c.01-.448-.73.126-.803-.088.218.1.44.194.803.088M1045.084 1045.384c.077-.41-.664.34-.955.212.29.213.727-.13.955-.212M1040.735 1046.98l-.218-.273c-.216.092-.445.344-.148.384l.366-.111M969.833 1079.88l.298.41-.038-.442zM981.848 1115.35c.008-.095.436-.087.108-.511.248.557-.293.086-.108.51M992.984 1131.652l.348-.399-.445.279z" fill="#e6e6e6"/>
  <path d="M1333.137 1065.78c12.303 3.915 19.17 17.199 15.25 29.507l-55.614 174.572c-3.921 12.31-17.201 19.174-29.509 15.252l-250.673-79.854c-12.312-3.925-19.172-17.205-15.248-29.513l55.612-174.575c3.922-12.312 17.204-19.172 29.514-15.248l250.668 79.859" fill="#bd3831"/>
  <path d="M1080.345 1012.564l-54.072 169.728 239.11 76.173 54.074-169.726-239.112-76.175" fill="#e3e2e0"/>
  <path d="M1005.043 1082.567a4.405 4.405 0 0 1-5.534 2.856 4.405 4.405 0 0 1-2.861-5.534 4.405 4.405 0 0 1 8.395 2.678zm51.965-37.375l-17.323 28.584-14.365-.056s-1.065-10.821-16.764-13.148c-13.692-2.035-19.864 14.624-19.864 14.624s-7.132 17.764 9.504 25.63c11.967 5.662 18.69-.622 18.69-.622l12.477 7.26-2.54 32.479 20.598 12.722 34.463-108.177-24.876.704M1064.025 1171.568c-.069.51.432-.147.048.364-.134-.117-.222-.25-.048-.364M1107.185 1042.593c.5 1.89-1.208 3.584-1.12 5.495-.025.213-.541-.237-.558.256.248 1.91-1.084 4.344-2.363 6.137l-.119-.173c-.241.341.128.983-.078 1.36-.107-.028-.106-.179-.282-.133.286.209-.096.78.08 1.029-.176.117-.42.017-.626.183l.281.346c.641.928-.576 1.54-.428 2.568-.067-.068-.104-.181-.21-.134.054 1.577-.63 3.31-.963 4.948-.106-.11-.32-.246-.494-.198.355.203.287.72.22 1.167-.453.064.118.84-.265 1.268l-.07-.07c.287.498-.417.46-.03.922l-.377.128c.497.344-.46.439-.286.83l.12.026c.035.332-.289.387-.285.687l-.068.001c-.065.664-.49.924-.053 1.053-.42.1.041-.654-.572-.48-.235 2.184-1.023 4.258-1.692 6.307-.252.176-.355.307-.538.305.023.232-.176.795-.018 1.062.014-.078-.262.056-.319.153-.288.323.333.57.007.913-.062-.204-.18-.302-.362-.305.223.463.014.915-.016 1.364l-.197-.235c.227.583-.357.8-.248 1.275l-.201-.227c-.51.534.458.354.093.846-.03-.154-.143-.14-.235-.198.28.663-.149 1.44-.168 2.01l-.092-.058c-.13.575-.464 1.116-.472 1.791-.181.193-.58-.272-.682.348.502.148-.131 1.075.545.913-.252.476-.701 1.215-.643 1.603-.117-.283-.688.05-.593-.384l-.41.216c-.18-.115.18-.303-.11-.29-.05.22-.057.9-.2 1.058.18.492.625 1.04.479 1.688-.096-.361-.604-.008-.622-.24l.659 1.197c-.05.21-.41-.092-.379.259.135.03.172.188.251.315-.087.058-.17.916-.688.844-.225.03.01-.376-.239-.2-.125.389.035.457-.088.848l-.068-.01c-.157.227-.041.818.32.634.079-.172-.313-.032-.082-.248.222.274.153.749.024 1.141l-.287-.284c.21.647.148 1.243.112 1.877.233.084-.35-.358-.196-.404-.57.642-.056 1.692-.733 2.158-.004-.119.348.054.277.041-.143.35-.477.221-.43.495-.205-.046-.033.316-.051.576.098.173-.12.03-.07-.188.052.39-.088 1.838-.634 2.521.132.027.317.63.248.805l-.286-.17c-.241.1-.174.605-.44.546.239.508.172-1.568.283-.957-.299.05.248.873-.132.63-.11.36.121.82-.277 1.066.081-.077-.33-.43-.402-.132-.114.53.096.19.062.643l.038.298c.294.114-.193.442.203.362-.267-.014-.093.789-.568.574l-.365-.198c-.046.232.29.496.4.73l-.202.015c.586.23-.224.51.154.925-.364.392-.414 1.164-.856 1.26.064.412.169.807-.095 1.171l-.13-.28c-.26.197-.12.31-.1.57-.077-.078-.523.398-.827.606.061.415.422.401.608.503-.692.129.048 1.12-.622 1.346-.038-.149-.117-.608-.358-.365-.696.128.214.793-.243 1.221l.53.035c-.378.133.031.86-.45.641.119.231-.365.56.13.66-.689.722-.446 2.158-1.473 2.398.038.15-.144.428.122.448.33-.114-.102-.348.105-.364l.167.214c-.196.23-.3.426-.616.044-.488.494.609.882.172 1.571-.184-.1-.28-.068-.323.163l.204.526c-.245.46-.545.13-.881.03-.028.281-.151.59.056.792l-.52.177c.38-.13.133.28.17.428l-.037-.148c-.163 0-.173.332-.18.496.215.035.403-.244.515-.39l.117.607c-.305-.17-.377.348-.477.542-.148.212.202.362.172.429-.174-.05-.16.377-.332.11-.032-.094.222-.127.114-.309-.173.114-.462 0-.357.395.084.295.667.148.307.543l-.25-.344-.313.372.29.12-.155-.002c.268.235-.122.692.193.908-.04.231-.355.391-.464.588l-.008-.048c-.264.198-.26.576-.13.86l-.058-.033c-.075.132-.139.475-.02.71-.341.273-1.164-.255-.917.257-.108.357.358.742.597.661-.415.572-.17 1.467-.835 1.908.092.13.19.103.194.315-.43.898-.311 2.106-1.143 2.661-.035-.31-.293-.121-.463-.165.191.31-.369.176.06.413.28.065.406.133.592-.103-.038.618-.32 1.466-.673 1.7.173-.116.212.03.257.183-.418-.179-.621.212-.57.573l.242.134-.332.113c.039.148.502.313.148.547l-.312-.003c.107.397.316.973-.022 1.255l-.475.16c-.005.165.135.498.335.266-.43.523-.591.903-.986.982.462 1.302-.005 2.818-.462 4.005l-.182-.097c-.296.258.282.278.071.456-.15-.164-.485.113-.63-.219-.363.397.137.713.129 1.041.242.134-.082-.298.225-.13.075.084-.416.574-.05.776-.191.066-.449-.122-.583-.235l.089.347c-.567.194-.547-1.062-1.228-.884l-.028.28c-.49.117-.227-.84-.587-.234.096.351.583.779.839.586-.088.622.836.58.59 1.205-.287.096.12-.527-.242-.515-.412.196-.027.663-.225.895.242-.25.553.132.565.348-.293.26-.301-.336-.495.108.202.152.231.633.507.323.453.33-.301.424.013.802-.41.032-.674-.744-1.02-.302.375.034.264.777.864.681-.164.167-.441.095-.606-.115-.304.203.401.89-.312.759l.318.21-.506.227c-.092.244.204.959-.315.762.025.096-.181.654.255.558.341-.281-.138-.497.428-.526-.486.113-.114.526-.047.776l-.216-.038c.041.151-.097.416.099.563-.088-.13-.242-.13-.326-.05l.271.234c-.007.541-.59-.07-.657.439l-.122-.447c.028.101-.321.168-.3.428l.74.619c.036.309-.361.012-.16.373l-.226-.461c-.076-.082-.554.074-.663.44.021.265.317.76.596.448-.056.182-.319.374-.476.164-.037.442.325.046.38.462-.236.083-.656.444-1.02.62l-.355-.526-.092.241c-.276-.448-.342.067-.69-.25-.115.149-.051.397.004.594.812-.275.701.845 1.341.895-.065.729-1.581-.054-.885.953.193-.063.529.42.498-.064-.204.396.496.48.091.892-.116-.443-.727.197-.908-.45.185.1.248-.247.223-.34-.283.093-.584-.237-.727.19-.032.28-.139.64.185.695.344.101.096-.414.383-.128-.05.556-.596.469-.068.884.059-.344.437-.31.668-.222l.012.427-.197-.15c-.368.56.345.318.089.889l-.537.132c-.332-.266.457-.808-.203-.904-.15.374.121.605-.159.912l-.034-.308c-.067.132-.939-.008-.638.702.094.347.196.147.423.235-.135.643.04.91-.052 1.319-.427-.231-.279.688-.599.096.338-.114.607-1.02.244-1.383-.608.044.243-.461-.262-.775-.175.491-.698.29-1.075.252l.057.415c.307.17.366-.016.708.088-.278.524-.27 1.116-.056 1.528-.222.133-.529-.033-.488-.265-.121.694-.4 1.386-.705 1.978.668-.228-.11.742.428.612.232-.297.705-.456.885-.193-.1.199-.233-.087-.376-.033.202.361-.601.253-.232.672.027-.659-.613-.332-.994-.583.093.515-.291-.117-.432.313l.024 1.612c-.595.471-.512 1.53-.676 2.074-.31.214-.72-.135-.902.144-.113.361.596-.096.206.361l-.079-.084c.055.201-.647.873-.019 1.257l-.457-.334c-.08.082.005.213.033.312-.168-.048-.358.016-.41-.182-.463.212-.18.708-.284 1.067l.385-.127c.028.692-.404.999-.496 1.628l-.29-.117.06.412c-.26-.181-.551.083-.371.348l-.423-1.156c.259-.2.264.392.61.333.3-.052.4-.626.145-.809l.012.43c-.436-.074-.316-.382-.535-.637-.021.122-.199.232-.073.302-.132-.282-.091-.507.017-.874.08.299.299-.045.39.086-.357-.148-.355-.531-.103-.942.526-.178.004-.924.292-1.401.298.336.509.697.552 1.057.292-.26.108-.361.398-.621-.218-.244-.601-.5-.629-.979l.28.07c-.013-.428-.415-.56-.176-1.02.41-.791.693-1.65.94-2.272l.277.064c-.462-.546.176-1.247.083-1.81.53-.718.321-1.842.93-2.104.266-1.497.477-2.817 1.069-4.265l.314.384c-.204-.367.286-.103.312-.38-.416.199-.29-.49-.468-.759.523-.557.471-1.516.387-2.19l.279.066c-.312-.76.368-1.318.7-2.022.141-.051.441-.1.482-.328-.306-.542-.205-.74-.285-1.419.141-.428.479-1.083.796-1.465-.081-1.814.861-3.324 1.047-5.118l.357-.014c-.14-1.848 1.14-3.636 1.25-5.136l.5.314c.31-.377.189-1.036-.235-1.056.309-.374.097-1.17.634-1.297.248-.41-.069-.627-.021-1.02.503-.824.563-1.168.741-2.04l-.102.196c.094.127.318.215.424.019-.044-.363.53-1.106-.224-1.006.673-.774.39-2.19 1.185-2.898-.203.017-.16-.214-.252-.346.252-.792.89-1.493.797-2.221.132-.092.238.296.36-.015-.004-.21-.228-.077-.25-.35.094-1.387 1.2-2.463 1.497-3.647.341-2.175 1.23-4.264 1.83-6.253l.12.064c-.278-.824 1.031-1.379.45-2.155.176-.119.26-.575.472-.379-.177-.642.823-1.358.625-2.269l.008.213c.547-.673.379-1.481.911-2.204l.14.331c.355-.23-.307-.921.384-.884.05-.185-.277-.236-.295-.119.836-1.694 1.064-3.721 1.535-5.614.817-1.199 1.085.27.964-.93.152-.042-.221-.138-.087-.109-.04-.465.915-.399.676-.788-.425-.01-.153-.26-.384-.345.52-.724.923-.772.84-1.507l.188.117c-.326-.944.271-1.708-.182-2.56 1.246-4.166 2.202-8.246 3.458-12.298 1.456-3.934 2.454-7.926 4.148-11.85.85-.769.859-.845.99-1.952l.174.098c-.417-.202.203-.746-.182-.984.578-1.468.914-2.884 1.421-4.42-.032.257.29.497.353.198l-.181-.396.143-.008c0-.217-.146-.508-.356-.348.906-3.988 3.048-7.488 4.198-11.308.479-.834.742-2.166.976-3.174 1.546-2.699 2.888-5.148 3.455-8.219 0 0 1.004.76.865 2.057M1064.175 1170.977c.25-.032.486-.332.686.038-.217-.035-.5.057-.686-.038" fill="#bcbbb9"/>
  <path d="M1069.417 1162.75c-.061-.035.135-.102.176-.122-.018.121.134.284-.01.336l-.166-.215M1070.315 1160.492c.181.103.176.645.101.94l-.101-.94M1071.83 1158.625c.227-.129.3-.049.209.198l-.21-.198M1071.435 1158.325l.34-.278c-.172-.05-.03.446-.34.278M1073.547 1153.87c.021-.117-.059-.411.189-.443-.188.065.067.624-.19.444M1073.97 1151.616l.054-.18c.132-.1.228.081.212.195l-.267-.015M1086.253 1112.068l.022.268-.186-.096zM1091.973 1094.855c-.046-.275.236-.103.275-.131-.047.217-.215-.157-.275.13M1094.085 1085.245l-.017.076-.393-.161zM1085.988 1176.125c-.053.488.428-.141.063.351-.143-.113-.235-.24-.063-.35M1125.56 1052.688c.553 1.81-1.105 3.43-.967 5.26-.017.201-.549-.23-.549.24.297 1.827-.97 4.152-2.192 5.872l-.119-.164c-.23.33.152.941-.048 1.303-.101-.026-.105-.168-.281-.127.281.2-.073.747.107.985-.172.118-.419.019-.622.17l.296.338c.662.891-.538 1.478-.362 2.456-.071-.068-.112-.172-.214-.126.098 1.508-.54 3.162-.83 4.732-.104-.098-.323-.231-.495-.184.357.193.305.688.255 1.114-.454.06.136.808-.238 1.214l-.065-.068c.29.481-.407.445-.004.882l-.377.127c.498.328-.448.41-.262.793l.119.026c.045.314-.28.368-.264.65l-.07.008c-.047.638-.463.883-.027 1.007-.41.097.025-.624-.579-.46-.177 2.092-.908 4.073-1.52 6.036-.247.17-.344.293-.524.293.024.223-.156.763.008 1.008.013-.065-.257.059-.315.155-.277.307.344.541.03.872-.062-.192-.184-.293-.362-.288.228.439.034.868.019 1.305l-.21-.224c.242.55-.33.762-.211 1.215l-.198-.216c-.5.508.455.337.11.81-.039-.15-.148-.134-.24-.193.296.642-.112 1.387-.116 1.924l-.094-.054c-.116.553-.432 1.069-.424 1.717-.177.183-.58-.265-.668.337.502.136-.104 1.022.571.87-.243.453-.67 1.16-.603 1.537-.118-.276-.684.039-.601-.373l-.397.205c-.191-.105.172-.29-.12-.273-.042.206-.032.857-.17 1.006.184.472.646 1 .516 1.622-.101-.347-.597-.01-.621-.231l.684 1.143c-.043.209-.41-.08-.37.254l.257.302c-.084.056-.143.874-.659.8-.22.028.003-.358-.244-.186-.117.368.047.439-.063.815l-.068-.015c-.152.223-.017.787.336.61.067-.168-.318-.032-.093-.24.232.262.172.724.06 1.097l-.295-.279c.223.626.178 1.192.163 1.799.232.084-.359-.345-.212-.383-.55.608-.012 1.616-.676 2.06-.005-.109.352.055.284.042-.139.332-.475.21-.419.468-.205-.035-.025.31-.041.554.112.167-.113.032-.067-.177.062.375-.044 1.763-.568 2.412.135.027.335.607.266.773l-.283-.166c-.237.102-.159.578-.43.526.26.482.131-1.506.26-.918-.294.049.271.841-.107.601-.104.35.136.79-.255 1.028.084-.076-.337-.412-.403-.133-.102.504.1.186.076.614l.054.287c.289.113-.188.425.205.348-.264-.017-.068.757-.55.55l-.37-.194c-.037.22.3.48.421.699l-.202.017c.593.224-.208.485.172.884-.344.375-.376 1.113-.814 1.21.071.395.188.773-.062 1.12l-.134-.269c-.257.186-.118.295-.089.551-.076-.077-.51.373-.803.579.068.394.43.378.614.477-.688.12.078 1.075-.583 1.29-.043-.146-.13-.587-.367-.35-.69.119.232.76-.212 1.165l.532.032c-.37.13.051.823-.432.618.126.218-.348.536.146.63-.662.691-.39 2.07-1.406 2.296.046.142-.126.411.139.427.323-.11-.105-.335.097-.35l.163.209c-.181.217-.288.406-.605.044-.474.468.625.837.21 1.498-.188-.096-.28-.062-.314.158l.21.508c-.222.436-.53.12-.873.025-.021.267-.133.565.083.759l-.516.165c.369-.12.134.27.18.41l-.046-.14c-.16.002-.164.315-.168.475.219.031.396-.236.508-.374l.131.581c-.31-.157-.365.33-.461.52-.143.2.213.345.184.408-.174-.047-.151.361-.331.11-.03-.094.221-.123.108-.297-.168.106-.463 0-.343.378.092.285.67.142.318.521l-.259-.332-.3.353.29.118h-.154c.272.226-.101.66.219.869-.036.223-.347.375-.446.563l-.01-.046c-.258.188-.246.552-.111.822l-.06-.036c-.067.128-.121.457.005.682-.333.266-1.169-.246-.908.247-.101.347.374.71.612.632-.394.552-.133 1.405-.778 1.83.092.123.184.093.196.294-.403.864-.247 2.023-1.067 2.552-.043-.299-.296-.113-.464-.161.197.3-.359.172.07.394.277.067.402.128.593-.09-.026.585-.287 1.405-.635 1.62.173-.107.217.033.261.178-.417-.176-.606.202-.55.548l.25.126-.334.112c.045.144.513.302.166.521l-.31-.001c.113.378.338.932.01 1.197l-.474.156c-.004.156.15.473.344.252-.415.5-.564.865-.955.948.493 1.241.064 2.695-.352 3.828l-.19-.096c-.28.25.291.268.086.441-.152-.157-.483.112-.633-.21-.35.377.154.682.152.998.249.123-.09-.285.22-.125.077.08-.398.55-.022.745-.194.06-.452-.12-.594-.23l.104.332c-.562.184-.574-1.016-1.247-.843l-.017.265c-.486.108-.251-.806-.594-.222.108.33.599.742.851.558-.076.596.847.556.616 1.156-.276.091.103-.505-.259-.489-.402.183-.005.632-.193.85.235-.238.555.129.57.337-.286.245-.309-.322-.486.105.2.14.24.601.508.301.46.322-.283.412.033.774-.404.029-.685-.715-1.017-.29.37.032.279.747.875.65-.16.161-.438.093-.608-.108-.299.196.422.85-.292.717l.325.21-.504.22c-.081.23.243.918-.29.725.03.093-.167.625.273.533.33-.264-.147-.47.41-.496-.482.103-.1.496-.024.736l-.217-.035c.044.143-.09.396.112.546-.088-.131-.247-.131-.323-.058l.274.23c.004.517-.59-.067-.643.417l-.13-.427c.025.095-.32.156-.294.408l.755.59c.042.297-.36.014-.147.358l-.24-.436c-.075-.082-.548.071-.645.416.028.256.332.73.601.432-.05.172-.308.362-.472.16-.024.423.33.043.403.44-.242.076-.651.42-1.012.596l-.368-.512-.079.234c-.287-.426-.34.065-.695-.24-.113.141-.036.384.019.57.8-.265.724.808 1.355.856-.042.696-1.567-.054-.856.915.193-.059.544.397.5-.059-.194.374.51.459.116.848-.134-.422-.724.19-.915-.432.184.098.236-.232.21-.324-.285.088-.591-.225-.718.184-.025.266-.121.614.201.66.342.1.086-.39.382-.122-.044.533-.583.453-.046.849.048-.324.426-.295.656-.215l.022.412-.199-.146c-.348.54.353.302.115.856l-.535.122c-.336-.256.437-.77-.225-.866-.14.361.134.584-.139.877l-.039-.297c-.058.125-.93-.006-.613.674.101.336.199.143.43.22-.118.616.063.872-.022 1.267-.43-.225-.26.66-.59.092.329-.112.574-.975.205-1.327-.61.047.229-.438-.282-.741-.164.47-.689.277-1.062.244l.072.397c.305.156.353-.017.701.08-.261.503-.24 1.074-.017 1.466-.216.126-.52-.03-.495-.254-.097.664-.359 1.324-.647 1.89.659-.222-.088.709.443.589.224-.287.69-.435.876-.183-.099.187-.233-.082-.375-.037.21.35-.593.248-.214.648.009-.636-.618-.32-1.003-.56.104.492-.297-.116-.428.297l.07 1.543c-.583.456-.469 1.465-.625 1.985-.294.206-.713-.132-.886.135-.103.352.593-.092.214.352l-.082-.081c.062.19-.618.829.012 1.202l-.462-.322c-.076.081.012.208.044.304-.169-.05-.358.009-.418-.18-.458.201-.155.681-.247 1.025l.37-.123c.057.66-.371.956-.446 1.558l-.29-.112.067.394c-.264-.173-.542.078-.364.33l-.446-1.111c.253-.184.273.383.617.327.297-.05.379-.6.125-.776l.023.408c-.436-.064-.324-.363-.552-.603-.015.11-.195.22-.067.285-.134-.268-.1-.489-.002-.837.088.285.297-.043.386.079-.353-.146-.361-.5-.126-.898.521-.168-.018-.885.26-1.341.302.321.52.672.574 1.016.279-.25.096-.35.383-.599-.227-.234-.617-.476-.655-.933l.278.064c-.019-.408-.428-.541-.202-.983.39-.75.651-1.574.876-2.169l.278.067c-.474-.524.148-1.196.033-1.735.508-.69.279-1.77.873-2.017.227-1.436.4-2.692.954-4.078l.324.363c-.212-.345.276-.09.3-.359-.412.186-.302-.477-.49-.732.508-.529.427-1.448.331-2.098l.281.066c-.332-.728.328-1.258.643-1.937.135-.045.436-.088.465-.312-.318-.517-.221-.71-.316-1.361.131-.408.451-1.036.752-1.399-.129-1.733.768-3.184.907-4.899l.357-.016c-.193-1.77 1.04-3.478 1.11-4.914l.508.298c.3-.357.154-.988-.266-1.008.302-.358.068-1.12.6-1.244.235-.397-.088-.598-.046-.976.48-.79.529-1.118.684-1.956l-.098.195c.09.124.324.207.422.015-.059-.348.5-1.051-.252-.963.65-.739.33-2.097 1.104-2.767-.202.011-.167-.209-.258-.334.23-.759.846-1.431.736-2.128.13-.092.24.289.36-.012-.016-.206-.23-.08-.262-.338.054-1.322 1.128-2.357 1.4-3.492.281-2.073 1.108-4.078 1.654-5.985l.123.064c-.3-.79.985-1.317.39-2.063.171-.108.24-.553.46-.357-.195-.62.78-1.301.56-2.173l.017.202c.521-.642.33-1.416.842-2.109l.15.317c.35-.218-.328-.888.358-.852.047-.173-.281-.222-.293-.11.785-1.62.96-3.56 1.38-5.376.777-1.144 1.09.264.936-.886.144-.042-.225-.134-.09-.105-.053-.445.894-.379.657-.752-.431-.013-.166-.25-.398-.335.499-.694.898-.736.799-1.437l.188.105c-.35-.898.23-1.632-.248-2.446 1.137-3.992 1.977-7.892 3.123-11.771 1.342-3.765 2.233-7.588 3.818-11.341.82-.739.83-.81.928-1.87l.18.095c-.422-.19.178-.713-.212-.941.542-1.403.836-2.762 1.304-4.235-.025.248.292.483.355.196l-.19-.379.138-.006c-.004-.214-.156-.487-.361-.336.793-3.815 2.841-7.17 3.886-10.82.458-.8.674-2.076.882-3.044 1.466-2.578 2.738-4.922 3.221-7.863 0 0 1.02.727.916 1.972M1086.121 1175.555c.254-.024.479-.307.688.042-.221-.034-.498.056-.688-.042" fill="#bcbbb9"/>
  <path d="M1091.13 1167.685c-.063-.026.122-.092.167-.109-.013.11.136.27-.002.319l-.166-.21M1091.96 1165.532c.185.093.19.612.123.901l-.123-.901M1093.417 1163.74c.223-.121.298-.045.218.192l-.218-.192M1093.019 1163.455l.328-.266c-.168-.046-.022.428-.328.266M1095.005 1159.193c.012-.113-.073-.397.179-.428-.187.06.08.6-.179.428M1095.365 1157.032l.047-.176c.13-.09.235.084.219.193l-.266-.017M1106.556 1119.185l.024.252-.18-.094zM1111.793 1102.707c-.049-.26.23-.098.275-.123-.045.207-.219-.157-.275.123M1113.645 1093.515l-.016.064-.396-.15zM1106.699 1182.716c-.063.488.424-.13.056.348-.143-.116-.232-.245-.056-.348M1147.373 1059.635c.532 1.809-1.137 3.418-1.02 5.252-.016.198-.538-.239-.546.236.278 1.829-1.008 4.141-2.244 5.85l-.126-.17c-.232.334.15.948-.053 1.305-.1-.032-.104-.172-.28-.13.283.203-.083.75.096.986-.17.116-.413.015-.62.167l.288.336c.656.894-.548 1.474-.38 2.454-.072-.066-.113-.172-.212-.132.08 1.511-.577 3.164-.872 4.732-.108-.11-.323-.237-.496-.194.353.2.299.697.241 1.124-.45.05.128.805-.241 1.208l-.07-.068c.289.481-.409.438-.01.88l-.384.121c.503.332-.447.415-.261.792l.113.03c.045.315-.277.365-.265.65l-.075.001c-.05.639-.47.88-.033 1.007-.411.097.03-.621-.576-.463-.2 2.092-.943 4.064-1.574 6.02-.246.17-.348.294-.525.291.025.223-.16.76 0 1.015.012-.075-.264.05-.317.144-.278.306.342.545.021.876-.064-.198-.181-.294-.359-.294.224.442.023.87.006 1.304l-.207-.225c.243.555-.339.763-.219 1.213l-.2-.221c-.504.508.456.348.104.816-.033-.15-.148-.137-.234-.196.285.639-.123 1.384-.131 1.921l-.096-.048c-.119.548-.444 1.062-.44 1.711-.181.177-.584-.268-.676.324.504.148-.107 1.025.563.877-.239.454-.678 1.158-.614 1.536-.117-.282-.684.031-.593-.382l-.401.205c-.194-.112.17-.288-.119-.279-.043.208-.041.86-.179 1.011.179.473.636 1.004.503 1.624-.101-.348-.601-.021-.623-.24l.674 1.15c-.042.211-.404-.082-.371.249l.253.309c-.077.05-.15.87-.665.797-.221.026.005-.356-.243-.194-.116.369.044.442-.07.812l-.068-.015c-.151.221-.022.793.332.612.068-.163-.315-.03-.094-.239.236.271.171.726.051 1.096l-.293-.273c.22.62.168 1.188.148 1.799.233.088-.354-.351-.207-.39-.559.602-.024 1.62-.692 2.058-.008-.112.348.054.284.041-.145.332-.476.21-.424.47-.208-.045-.027.302-.044.551.103.168-.121.03-.076-.174.067.374-.053 1.756-.583 2.397.136.03.331.615.26.781l-.286-.166c-.227.094-.159.577-.428.518.25.488.142-1.498.269-.914-.301.041.259.844-.125.604-.098.341.138.785-.256 1.021.082-.08-.334-.416-.403-.133-.107.502.103.184.073.614l.044.287c.296.113-.182.423.212.35-.266-.023-.078.755-.561.545l-.367-.195c-.04.216.295.476.414.697l-.202.014c.591.23-.212.489.164.889-.349.37-.382 1.113-.821 1.2.068.396.179.779-.075 1.117l-.133-.268c-.256.187-.117.299-.092.552-.077-.081-.512.367-.808.567.065.396.424.387.613.484-.69.115.063 1.077-.594 1.29-.043-.149-.127-.593-.37-.358-.692.117.231.767-.214 1.164l.528.041c-.376.124.044.823-.439.61.124.22-.353.53.143.636-.672.677-.41 2.061-1.427 2.278.04.148-.133.408.128.43.33-.106-.1-.332.103-.346l.166.208c-.192.216-.294.41-.608.036-.482.467.616.85.194 1.507-.187-.099-.278-.07-.312.148l.202.512c-.232.436-.534.117-.869.016-.023.267-.144.564.07.757l-.517.168c.375-.122.132.268.176.414l-.044-.146c-.152-.001-.157.315-.164.475.214.032.398-.235.508-.377l.124.593c-.308-.165-.366.321-.465.51-.147.205.208.351.175.411-.167-.05-.148.358-.328.11-.031-.096.222-.124.117-.299-.173.105-.467-.005-.353.37.088.289.664.158.318.525l-.258-.332-.304.36.293.113-.155-.004c.268.224-.117.663.207.87-.035.225-.352.374-.45.565l-.013-.046c-.258.184-.25.547-.113.816l-.061-.034c-.066.126-.127.458 0 .684-.34.261-1.166-.258-.914.234-.096.346.37.715.61.639-.403.55-.151 1.405-.798 1.817.094.13.188.104.199.303-.413.865-.27 2.02-1.092 2.547-.041-.307-.299-.122-.465-.168.196.302-.362.169.069.392.275.074.4.133.592-.084-.03.586-.297 1.405-.65 1.616.175-.11.215.037.26.182-.414-.186-.611.194-.555.54l.248.13-.335.108c.047.14.508.306.16.521l-.31-.004c.115.381.331.936-.002 1.2l-.472.148c-.005.159.147.476.34.256-.417.499-.568.86-.959.932.48 1.255.043 2.699-.393 3.832l-.185-.097c-.286.248.289.269.08.441-.152-.159-.483.104-.631-.213-.352.373.155.68.152.997.239.127-.096-.284.215-.125.076.078-.402.546-.034.742-.189.063-.445-.12-.584-.228l.099.328c-.565.182-.565-1.02-1.241-.854l-.022.266c-.485.106-.245-.804-.588-.225.103.33.594.747.844.565-.078.598.842.564.611 1.159-.285.093.104-.505-.255-.49-.406.185-.012.63-.208.845.243-.232.559.133.567.346-.285.242-.305-.325-.488.099.203.143.244.607.512.31.459.323-.292.406.021.769-.404.028-.674-.719-1.012-.299.367.041.271.75.867.663-.16.156-.437.086-.603-.118-.3.2.418.856-.3.719l.323.212-.504.21c-.084.235.225.92-.299.723.03.096-.174.628.266.54.332-.264-.143-.474.42-.5-.487.106-.11.506-.035.738l-.219-.031c.044.143-.088.395.114.539-.091-.127-.248-.127-.327-.051l.273.224c.003.523-.589-.07-.649.417l-.124-.432c.03.098-.321.159-.293.411l.746.596c.043.301-.36.008-.149.356l-.236-.444c-.08-.079-.55.07-.652.419.03.252.325.73.601.437-.053.168-.306.352-.473.147-.03.424.323.052.39.446-.231.078-.647.415-1.007.586l-.367-.508-.084.229c-.281-.427-.34.061-.69-.245-.111.142-.043.381.014.568.803-.258.715.817 1.35.873-.047.696-1.571-.07-.863.903.189-.058.538.402.497-.056-.195.378.504.465.104.856-.125-.427-.717.173-.905-.44.18.096.234-.235.208-.327-.282.087-.583-.23-.718.176-.025.27-.126.616.202.663.337.105.084-.391.374-.115-.046.53-.588.443-.056.844.055-.323.434-.285.663-.21l.023.413-.202-.143c-.357.53.352.307.106.855l-.534.118c-.336-.261.442-.772-.218-.873-.144.357.13.588-.14.883l-.042-.303c-.062.125-.934-.013-.621.668.096.335.197.145.428.23-.124.613.06.869-.033 1.263-.428-.228-.263.656-.591.083.328-.107.587-.968.219-1.321-.61.042.23-.436-.275-.743-.168.467-.695.27-1.063.23l.064.397c.307.166.358-.01.703.092-.263.5-.252 1.07-.03 1.468-.218.122-.529-.039-.489-.26-.106.66-.373 1.317-.669 1.881.663-.21-.093.71.436.595.227-.282.7-.436.881-.183-.104.196-.232-.08-.378-.032.21.353-.599.237-.218.639.016-.624-.616-.319-.996-.567.095.496-.297-.116-.428.297l.051 1.547c-.583.445-.487 1.456-.637 1.98-.302.197-.714-.143-.894.128-.105.344.592-.09.212.348l-.078-.08c.054.19-.63.825.002 1.204l-.465-.328c-.072.077.015.207.043.303-.167-.054-.356.005-.415-.182-.457.195-.161.678-.261 1.02l.381-.116c.044.658-.388.95-.464 1.552l-.295-.117.071.396c-.26-.177-.55.073-.368.327l-.439-1.114c.255-.18.271.387.614.33.298-.048.388-.594.13-.771l.022.405c-.434-.064-.319-.365-.547-.606-.017.113-.19.214-.07.282-.134-.273-.097-.49.009-.836.082.287.298-.042.386.084-.358-.144-.362-.516-.12-.901.519-.168-.008-.883.27-1.339.302.322.513.674.566 1.023.286-.25.098-.344.388-.596-.226-.239-.613-.483-.648-.941l.279.068c-.017-.411-.42-.544-.193-.982.394-.75.661-1.566.897-2.165l.277.067c-.469-.527.152-1.194.047-1.731.516-.688.293-1.765.892-2.01.237-1.431.425-2.691.988-4.073l.317.371c-.208-.35.283-.09.303-.36-.41.18-.293-.475-.475-.732.51-.525.439-1.448.348-2.093l.279.065c-.327-.73.344-1.257.659-1.93.137-.043.433-.089.473-.303-.313-.531-.216-.718-.308-1.368.133-.406.461-1.036.768-1.39-.113-1.741.796-3.18.95-4.894l.354-.012c-.172-1.775 1.072-3.472 1.15-4.903l.507.303c.303-.354.168-.987-.25-1.012.301-.36.074-1.124.608-1.238.238-.39-.087-.597-.036-.981.482-.777.54-1.11.7-1.944l-.1.188c.092.13.322.207.422.025-.054-.352.504-1.054-.244-.966.656-.732.348-2.098 1.131-2.76-.203.012-.168-.212-.256-.338.235-.754.86-1.425.75-2.118.13-.094.247.288.362-.012-.01-.203-.232-.082-.26-.334.072-1.329 1.15-2.345 1.43-3.484.306-2.077 1.147-4.066 1.706-5.969l.128.067c-.293-.799.996-1.314.41-2.063.171-.113.242-.55.46-.357-.186-.618.798-1.296.583-2.167l.012.203c.53-.636.348-1.411.862-2.099l.146.315c.35-.212-.316-.89.366-.842.05-.178-.276-.226-.294-.116.807-1.613.991-3.552 1.43-5.361.789-1.143 1.088.272.942-.88.146-.04-.22-.139-.088-.11-.044-.442.903-.369.662-.74-.427-.02-.16-.255-.394-.342.507-.685.907-.723.815-1.432l.187.113c-.34-.906.24-1.629-.226-2.45 1.168-3.98 2.04-7.876 3.23-11.743 1.374-3.756 2.296-7.57 3.916-11.31.833-.729.838-.8.946-1.865l.174.098c-.416-.19.192-.707-.195-.942.544-1.398.857-2.753 1.337-4.218-.029.246.29.482.355.2l-.187-.384.14-.008c-.002-.211-.153-.484-.36-.338.832-3.808 2.9-7.144 3.983-10.79.459-.791.695-2.066.908-3.031 1.493-2.565 2.781-4.895 3.295-7.835 0 0 1.013.74.898 1.986M1106.833 1182.145c.251-.025.482-.305.686.046-.215-.034-.5.054-.686-.046" fill="#bcbbb9"/>
  <path d="M1111.91 1174.321c-.063-.03.129-.096.17-.108-.017.11.137.27-.001.319l-.17-.21M1112.76 1172.177c.181.096.188.614.117.899l-.117-.899M1114.235 1170.4c.225-.124.3-.045.213.19l-.213-.19M1113.84 1170.108l.327-.264c-.164-.048-.02.427-.327.264M1115.863 1165.863c.017-.114-.068-.398.18-.423-.19.059.076.6-.18.423M1116.24 1163.707l.053-.174c.131-.09.228.082.216.191l-.269-.017M1127.772 1125.956l.023.257-.184-.097zM1133.155 1109.527c-.048-.263.233-.095.274-.12-.042.206-.216-.155-.274.12M1135.088 1100.35l-.017.069-.39-.155zM1130.188 1190.213c-.05.484.421-.142.059.346-.139-.111-.231-.235-.059-.346M1168.656 1066.423c.57 1.801-1.075 3.438-.917 5.269-.015.201-.55-.224-.546.244.307 1.824-.934 4.167-2.144 5.893l-.125-.165c-.224.333.164.941-.03 1.303-.106-.027-.11-.166-.286-.123.293.196-.064.747.117.987-.168.108-.416.021-.617.176l.295.33c.67.883-.52 1.483-.34 2.462-.072-.068-.111-.172-.211-.127.101 1.51-.52 3.17-.788 4.739-.113-.098-.324-.227-.499-.178.359.191.314.682.26 1.114-.446.06.143.805-.22 1.214l-.072-.065c.3.47-.398.443.011.879l-.381.129c.502.324-.442.42-.25.797l.114.022c.05.32-.272.377-.255.658h-.07c-.04.64-.453.895-.018 1.008-.412.106.019-.624-.585-.445-.159 2.087-.872 4.073-1.468 6.05-.24.166-.334.294-.52.29.029.223-.144.768.02 1.013.012-.069-.26.058-.307.16-.281.303.344.535.027.867-.06-.19-.186-.29-.363-.287.235.442.041.871.03 1.306l-.21-.222c.25.552-.327.764-.201 1.222l-.203-.22c-.49.517.467.337.123.812-.042-.151-.148-.136-.247-.186.301.63-.096 1.38-.092 1.919l-.095-.052c-.112.555-.426 1.072-.406 1.721-.179.182-.588-.254-.675.34.508.132-.09 1.024.579.867-.232.456-.655 1.167-.584 1.543-.126-.278-.683.046-.6-.368l-.399.208c-.193-.107.168-.292-.121-.271-.043.205-.026.856-.168 1.008.196.473.662.99.537 1.619-.105-.347-.604-.01-.627-.232l.695 1.14c-.039.209-.405-.076-.365.254l.258.302c-.078.056-.134.874-.653.81-.219.034-.001-.36-.245-.189-.11.37.054.439-.054.819l-.072-.018c-.146.227-.008.791.344.606.071-.164-.314-.022-.092-.234.228.259.176.716.063 1.091l-.297-.27c.234.622.192 1.189.18 1.798.232.076-.36-.34-.21-.385-.546.614.002 1.618-.654 2.069-.012-.11.344.048.28.036-.142.336-.472.217-.418.476-.206-.036-.022.304-.03.553.101.167-.122.034-.076-.176.07.376-.024 1.759-.546 2.414.143.029.344.609.278.774l-.29-.162c-.23.101-.15.582-.42.525.256.483.116-1.504.248-.92-.29.048.282.84-.105.601-.093.348.145.792-.243 1.032.082-.08-.34-.416-.404-.125-.097.503.106.18.087.612l.047.285c.294.106-.175.428.214.346-.26-.014-.062.756-.545.552l-.375-.184c-.032.216.308.472.43.689l-.199.017c.588.226-.208.491.177.886-.344.378-.369 1.116-.805 1.216.075.39.197.769-.048 1.121l-.141-.268c-.255.19-.114.299-.083.55-.072-.075-.508.38-.797.587.073.391.436.379.616.471-.686.125.09 1.075-.567 1.301-.047-.148-.139-.589-.375-.35-.688.122.244.757-.192 1.169l.526.028c-.371.13.058.823-.424.619.125.221-.346.54.149.629-.657.699-.365 2.072-1.385 2.308.044.139-.128.41.138.427.327-.112-.105-.335.099-.348l.167.202c-.192.219-.283.412-.608.047-.471.477.632.835.218 1.499-.185-.094-.278-.06-.308.162l.215.503c-.223.439-.533.128-.876.036-.013.264-.127.567.09.757l-.514.172c.372-.128.14.267.184.412l-.044-.145c-.161.003-.159.317-.163.479.218.024.394-.244.504-.387l.135.585c-.312-.154-.361.338-.457.522-.139.209.217.349.188.41-.176-.048-.144.366-.331.115-.033-.096.221-.13.108-.303-.17.111-.461-.002-.343.383.091.28.67.139.326.516l-.263-.33-.299.365.294.108h-.155c.273.222-.101.666.23.872-.034.216-.349.374-.44.57l-.017-.053c-.249.195-.238.55-.097.823l-.067-.03c-.064.126-.114.454.014.675-.33.273-1.171-.233-.907.257-.097.346.384.706.621.627-.394.557-.125 1.408-.768 1.837.099.123.192.09.206.295-.396.868-.236 2.021-1.051 2.559-.043-.3-.292-.108-.461-.154.196.3-.364.172.076.394.276.062.398.122.59-.098-.024.584-.276 1.408-.621 1.627.173-.11.22.033.265.176-.424-.173-.613.208-.553.553l.252.122-.332.114c.053.142.516.296.17.519h-.307c.117.38.346.928.016 1.201l-.467.156c-.001.159.155.474.341.255-.408.505-.55.865-.938.948.5 1.244.089 2.7-.331 3.839l-.181-.1c-.286.254.296.272.088.446-.154-.161-.48.107-.634-.205-.348.381.164.677.164.995.247.122-.096-.286.219-.128.076.078-.393.556-.024.741-.19.068-.447-.112-.59-.219l.11.33c-.561.19-.588-1.008-1.26-.836l-.016.272c-.479.11-.256-.807-.595-.222.116.332.611.743.859.554-.067.6.852.546.63 1.15-.282.095.097-.509-.26-.488-.407.192-.003.631-.193.854.236-.244.558.121.568.328-.278.254-.309-.318-.482.113.204.141.25.595.516.3.461.312-.282.408.037.77-.408.031-.69-.71-1.024-.28.372.03.293.74.881.643-.152.156-.433.094-.605-.109-.299.203.432.852-.283.73l.324.2-.5.222c-.081.237.242.913-.284.73.03.093-.16.625.27.531.333-.268-.148-.472.41-.504-.48.112-.097.504-.017.746l-.219-.034c.044.138-.084.395.122.534-.095-.127-.252-.123-.327-.047l.276.221c.013.522-.585-.058-.637.426l-.139-.424c.03.098-.313.158-.285.41l.76.584c.045.3-.362.02-.143.366l-.243-.442c-.077-.081-.549.075-.644.427.028.25.336.724.603.424-.048.176-.299.363-.468.161-.021.423.328.046.401.436-.232.083-.64.428-1.001.606l-.372-.506-.08.232c-.29-.421-.341.066-.693-.234-.112.145-.034.384.024.574.794-.274.726.798 1.366.844-.037.696-1.574-.04-.849.919.188-.063.541.395.499-.064-.192.379.505.455.118.852-.134-.42-.717.19-.916-.423.183.092.232-.236.207-.334-.283.094-.588-.22-.717.192-.023.268-.115.616.209.662.344.094.079-.396.377-.129-.037.537-.582.461-.037.859.05-.336.42-.304.656-.227l.028.41-.204-.14c-.347.538.355.302.117.847l-.525.131c-.344-.252.423-.773-.236-.87-.135.367.14.587-.125.887l-.047-.297c-.059.124-.932 0-.61.679.107.328.202.138.433.221-.115.613.076.867-.008 1.257-.436-.218-.255.667-.592.099.329-.11.568-.98.201-1.321-.615.045.216-.448-.296-.747-.16.477-.688.288-1.059.256l.071.39c.31.16.359-.013.701.08-.248.505-.225 1.075.004 1.465-.217.126-.528-.027-.49-.247-.102.663-.354 1.328-.639 1.895.655-.226-.083.708.45.584.214-.288.68-.446.87-.194-.095.191-.233-.082-.375-.032.218.346-.592.255-.209.651.007-.633-.617-.315-1.008-.547.113.487-.293-.117-.421.3l.084 1.539c-.578.461-.464 1.47-.608 1.995-.296.205-.714-.126-.884.145-.103.344.584-.096.217.344l-.083-.077c.063.186-.613.837.023 1.2l-.465-.32c-.08.08.012.205.044.3-.17-.047-.359.02-.42-.174-.454.207-.151.682-.24 1.03l.377-.124c.055.661-.37.961-.437 1.558l-.294-.105.076.392c-.264-.17-.545.077-.364.33l-.458-1.105c.256-.182.282.383.62.316.298-.052.38-.597.118-.772l.03.41c-.438-.062-.328-.36-.559-.596-.013.109-.185.216-.065.285-.136-.276-.106-.493-.007-.841.093.285.292-.047.388.078-.357-.141-.37-.502-.135-.897.518-.173-.026-.885.244-1.345.307.317.531.665.586 1.012.277-.255.094-.348.38-.604-.236-.236-.622-.474-.666-.928l.283.06c-.033-.408-.433-.532-.213-.975.381-.759.629-1.581.854-2.179l.283.06c-.483-.517.133-1.198.015-1.733.5-.695.261-1.77.853-2.021.213-1.438.381-2.702.916-4.088l.323.358c-.207-.345.285-.093.298-.361-.402.188-.304-.475-.492-.728.504-.536.416-1.45.315-2.099l.276.062c-.333-.723.325-1.26.624-1.942.136-.05.436-.097.472-.317-.327-.519-.23-.71-.333-1.356.128-.412.442-1.045.741-1.404-.143-1.737.74-3.188.861-4.91l.358-.018c-.204-1.77 1.009-3.488 1.068-4.925l.505.296c.297-.362.15-.994-.27-1.007.295-.37.055-1.121.587-1.252.232-.39-.094-.599-.057-.977.473-.788.525-1.12.668-1.956l-.093.185c.089.13.318.21.42.021-.06-.349.492-1.058-.258-.962.64-.746.311-2.099 1.08-2.783-.2.017-.172-.201-.264-.328.223-.756.835-1.436.714-2.135.125-.093.246.286.364-.014-.018-.206-.239-.079-.267-.332.044-1.326 1.108-2.37 1.367-3.507.26-2.08 1.072-4.085 1.597-6l.13.067c-.311-.792.973-1.331.375-2.068.168-.118.232-.559.454-.367-.2-.616.769-1.312.542-2.179l.016.203c.516-.647.323-1.417.823-2.119l.155.319c.345-.223-.335-.883.346-.853.052-.175-.281-.219-.292-.108.774-1.628.926-3.57 1.335-5.39.768-1.148 1.088.256.921-.892.151-.044-.22-.136-.085-.108-.059-.444.892-.385.644-.754-.424-.012-.16-.248-.395-.33.491-.7.894-.745.783-1.452l.195.114c-.36-.899.206-1.638-.274-2.451 1.104-3.997 1.906-7.91 3.022-11.796 1.301-3.777 2.16-7.608 3.71-11.379.82-.74.824-.813.915-1.876l.179.092c-.426-.188.174-.714-.219-.94.528-1.409.81-2.765 1.267-4.24-.024.248.301.476.357.19l-.193-.379.138-.01c-.005-.209-.164-.48-.365-.326.763-3.828 2.77-7.197 3.79-10.859.445-.805.66-2.086.86-3.048 1.44-2.592 2.689-4.95 3.146-7.894 0 0 1.032.721.932 1.964M1130.313 1189.645c.258-.03.476-.317.687.031-.212-.033-.497.06-.687-.03" fill="#bcbbb9"/>
  <path d="M1135.248 1181.73c-.06-.034.128-.097.173-.113-.016.112.14.268 0 .319l-.173-.207M1136.06 1179.568c.19.092.197.613.136.899l-.136-.899M1137.501 1177.76c.223-.125.299-.047.219.188l-.219-.188M1137.105 1177.479l.32-.274c-.165-.038-.012.43-.32.274M1139.05 1173.197c.013-.11-.077-.392.173-.424-.183.062.09.599-.172.424M1139.393 1171.032l.047-.17c.13-.093.23.08.219.193l-.266-.023M1150.244 1133.088l.03.253-.189-.093zM1155.332 1116.564c-.05-.261.236-.097.277-.128-.041.21-.22-.15-.277.128M1157.107 1107.353l-.016.071-.4-.15zM1150.9 1196.799c-.059.488.427-.138.053.353-.138-.117-.229-.244-.053-.353M1191.02 1073.537c.541 1.815-1.123 3.423-.992 5.258-.016.205-.544-.231-.545.238.285 1.831-.99 4.152-2.22 5.86l-.123-.16c-.23.323.148.94-.05 1.3-.11-.028-.11-.172-.285-.129.29.201-.074.748.11.987-.176.113-.422.02-.626.168l.286.34c.661.89-.539 1.472-.367 2.454-.07-.068-.11-.172-.21-.133.082 1.512-.562 3.164-.854 4.733-.11-.1-.317-.233-.493-.19.358.193.298.69.245 1.12-.45.054.133.806-.232 1.212l-.076-.07c.299.48-.403.443-.007.886l-.377.116c.501.336-.45.413-.26.794l.116.03c.045.317-.28.369-.272.653l-.067.004c-.044.635-.466.881-.032 1.004-.409.097.031-.62-.574-.461-.19 2.093-.924 4.068-1.55 6.032-.246.164-.342.292-.52.288.019.226-.16.765.002 1.009.012-.07-.264.059-.312.153-.28.304.344.54.021.875-.061-.196-.181-.293-.36-.29.227.44.032.87.01 1.3l-.207-.222c.246.552-.332.76-.215 1.215l-.2-.219c-.5.513.46.345.11.819-.04-.158-.146-.14-.24-.202.285.638-.118 1.384-.122 1.927l-.095-.059c-.117.558-.44 1.066-.432 1.716-.178.18-.582-.264-.674.331.506.143-.102 1.023.566.875-.238.461-.67 1.158-.608 1.536-.121-.279-.681.037-.596-.378l-.398.21c-.19-.118.168-.294-.118-.282-.044.21-.036.86-.174 1.012.181.474.64.999.508 1.62-.103-.344-.6-.016-.619-.234l.675 1.149c-.042.205-.403-.084-.371.248l.257.303c-.081.061-.144.877-.666.805-.219.025.01-.364-.24-.196-.118.372.049.443-.067.816l-.064-.01c-.155.217-.025.783.328.605.07-.164-.312-.028-.088-.236.227.268.164.721.053 1.094l-.294-.276c.222.626.177 1.191.153 1.8.23.084-.355-.345-.207-.389-.553.61-.017 1.624-.684 2.064-.004-.112.352.055.278.037-.138.336-.467.21-.419.472-.203-.04-.025.302-.04.552.107.168-.113.031-.072-.176.064.378-.048 1.759-.579 2.406.14.026.338.613.267.78l-.281-.166c-.236.092-.164.575-.435.516.256.487.14-1.502.265-.916-.293.046.266.843-.117.604-.097.344.14.79-.252 1.022.079-.078-.336-.412-.403-.132-.104.508.1.189.072.613l.05.29c.293.113-.182.42.21.349-.265-.018-.076.756-.553.549l-.375-.196c-.03.216.306.473.424.699l-.201.014c.587.227-.21.486.167.886-.352.373-.384 1.116-.819 1.2.067.398.185.78-.07 1.125l-.134-.27c-.256.186-.115.3-.092.554-.073-.081-.508.37-.804.57.068.397.427.383.615.48-.692.118.07 1.08-.588 1.289-.043-.143-.131-.587-.37-.354-.692.118.235.762-.209 1.17l.527.037c-.372.117.048.821-.436.612.124.221-.352.53.148.63-.668.685-.403 2.065-1.416 2.286.04.145-.134.413.13.43.331-.105-.105-.329.098-.349l.168.21c-.192.217-.287.408-.608.041-.48.467.624.844.2 1.503-.183-.103-.28-.07-.315.152l.21.509c-.227.435-.537.117-.873.02-.021.27-.137.567.076.76l-.517.168c.375-.125.135.27.184.41l-.05-.14c-.154-.003-.16.31-.163.473.217.029.396-.236.509-.378l.121.584c-.304-.16-.358.335-.461.519-.143.203.216.35.183.41-.176-.047-.15.366-.331.107-.032-.089.219-.121.11-.298-.173.109-.462-.003-.346.377.085.281.668.148.319.524l-.26-.337-.306.36.294.116h-.151c.272.226-.113.664.213.869-.04.216-.354.373-.452.56l-.012-.047c-.256.188-.244.551-.105.819l-.063-.03c-.064.125-.125.458-.001.68-.336.265-1.163-.253-.907.243-.101.344.374.71.608.635-.402.55-.137 1.403-.792 1.821.098.13.192.1.202.307-.408.859-.262 2.013-1.079 2.54-.041-.299-.293-.11-.465-.157.196.296-.363.165.074.394.276.063.399.127.587-.096-.024.591-.29 1.406-.64 1.624.17-.109.217.035.259.176-.412-.178-.606.202-.551.548l.244.126-.328.112c.044.14.504.302.157.516l-.306-.003c.113.383.336.936.004 1.2l-.475.155c-.001.154.15.472.34.257-.415.497-.565.859-.953.935.484 1.248.053 2.698-.376 3.829l-.186-.096c-.281.25.292.275.091.445-.16-.161-.49.1-.641-.216-.348.379.156.684.158.999.24.128-.092-.288.215-.124.075.079-.397.548-.032.743-.19.061-.447-.118-.588-.228l.104.333c-.563.179-.57-1.02-1.243-.856l-.024.268c-.482.11-.245-.805-.589-.224.107.333.596.748.848.563-.076.597.844.558.615 1.156-.283.096.102-.504-.258-.491-.402.188-.008.632-.202.85.24-.231.554.131.569.337-.283.252-.3-.32-.484.104.201.148.24.604.508.308.461.318-.29.41.033.774-.406.027-.685-.72-1.024-.298.374.036.284.749.878.66-.163.156-.442.089-.608-.118-.3.198.418.856-.295.723l.323.203-.507.22c-.08.233.237.917-.29.724.026.096-.169.632.265.537.332-.264-.143-.472.414-.497-.482.102-.1.501-.028.738l-.216-.036c.044.143-.088.395.111.54-.088-.125-.248-.129-.324-.046l.276.222c.001.519-.595-.073-.645.418l-.13-.426c.026.092-.32.151-.297.406l.755.59c.041.299-.358.014-.151.362l-.233-.442c-.082-.085-.546.067-.65.419.026.248.327.723.6.43-.049.174-.306.36-.473.154-.023.425.327.05.397.447-.234.074-.646.417-1.01.582l-.363-.501-.087.23c-.281-.427-.341.058-.692-.24-.11.137-.038.375.02.566.798-.261.718.81 1.351.865-.044.696-1.57-.061-.859.906.188-.059.536.4.499-.054-.196.376.505.462.108.852-.13-.428-.72.184-.912-.437.183.097.237-.235.212-.328-.281.088-.587-.227-.721.184-.022.264-.123.61.205.661.341.103.084-.39.377-.12-.042.535-.59.447-.057.848.059-.326.432-.293.668-.209l.02.41-.201-.145c-.354.532.353.306.108.851l-.53.124c-.342-.26.438-.77-.218-.873-.146.36.13.588-.146.885l-.037-.3c-.067.123-.933-.015-.615.67.098.331.195.142.423.225-.116.613.061.865-.024 1.261-.428-.227-.263.663-.59.087.326-.106.578-.971.21-1.322-.61.04.225-.438-.279-.744-.17.474-.694.274-1.064.24l.063.395c.315.159.365-.013.708.088-.263.5-.244 1.067-.02 1.464-.219.127-.53-.033-.49-.259-.107.666-.367 1.326-.663 1.891.661-.213-.091.712.438.588.228-.281.698-.432.878-.18-.1.19-.23-.08-.374-.036.211.352-.598.245-.214.648.012-.633-.618-.327-1.003-.565.104.49-.297-.118-.424.297l.052 1.543c-.577.454-.475 1.46-.625 1.98-.303.202-.714-.134-.895.134-.101.348.596-.092.217.352l-.078-.085c.058.195-.626.833.006 1.203l-.461-.32c-.083.08.012.201.039.301-.167-.053-.359.01-.418-.18-.452.199-.153.677-.25 1.021l.373-.121c.048.661-.38.956-.457 1.556l-.288-.11.069.397c-.264-.183-.545.069-.364.322l-.445-1.109c.252-.19.273.385.613.324.301-.05.387-.593.127-.777l.026.416c-.438-.068-.321-.368-.552-.606-.018.107-.19.219-.066.282-.132-.272-.098-.494 0-.838.09.29.301-.042.392.084-.359-.145-.363-.512-.128-.9.524-.168-.01-.884.266-1.341.304.321.514.67.568 1.021.286-.253.1-.35.394-.597-.234-.241-.622-.483-.655-.937l.279.064c-.022-.41-.424-.542-.198-.98.387-.752.651-1.568.888-2.17l.278.068c-.478-.529.146-1.193.034-1.734.514-.692.288-1.771.887-2.01.227-1.433.413-2.698.97-4.077l.317.367c-.208-.348.281-.094.302-.362-.408.184-.298-.476-.481-.728.508-.533.436-1.452.336-2.098l.281.065c-.328-.728.339-1.26.65-1.933.142-.046.436-.092.474-.307-.316-.524-.224-.716-.316-1.367.132-.408.459-1.037.762-1.393-.122-1.737.784-3.179.926-4.899l.358-.012c-.182-1.769 1.053-3.472 1.132-4.909l.505.304c.301-.361.163-.99-.26-1.01.301-.362.07-1.123.604-1.24.243-.394-.079-.6-.043-.982.484-.783.539-1.113.7-1.952l-.104.19c.096.129.324.209.422.023-.052-.348.505-1.054-.246-.968.655-.734.34-2.094 1.119-2.764-.203.018-.168-.205-.257-.332.234-.754.852-1.426.742-2.124.126-.092.244.287.36-.01-.01-.203-.234-.082-.26-.336.06-1.324 1.139-2.355 1.411-3.486.29-2.08 1.127-4.074 1.683-5.976l.122.062c-.294-.792.995-1.316.399-2.066.181-.106.247-.548.463-.358-.191-.615.788-1.295.574-2.167l.014.205c.525-.638.34-1.416.85-2.104l.151.316c.35-.217-.327-.889.361-.848.051-.173-.277-.226-.296-.114.798-1.611.976-3.555 1.406-5.364.785-1.146 1.088.264.942-.886.146-.042-.221-.138-.088-.112-.05-.442.899-.37.655-.748-.424-.013-.159-.246-.392-.33.503-.694.904-.735.8-1.444l.197.117c-.349-.903.227-1.63-.242-2.452 1.153-3.983 2.013-7.883 3.176-11.755 1.357-3.76 2.262-7.58 3.864-11.324.83-.733.837-.805.94-1.868l.176.098c-.422-.191.188-.715-.202-.946.544-1.401.848-2.753 1.322-4.222-.031.252.293.48.353.196l-.19-.384.138-.006c-.003-.209-.15-.482-.36-.338.817-3.812 2.87-7.154 3.936-10.803.456-.795.683-2.072.899-3.037 1.478-2.572 2.756-4.904 3.254-7.847 0 0 1.016.728.907 1.973M1151.035 1196.232c.253-.028.472-.31.682.039-.214-.031-.5.06-.682-.039" fill="#bcbbb9"/>
  <path d="M1156.075 1188.387c-.063-.034.126-.095.169-.114-.019.114.137.267-.001.323l-.168-.21M1156.91 1186.23c.186.097.189.617.126.903l-.125-.902M1158.376 1184.45c.23-.126.301-.046.219.189l-.219-.19M1157.981 1184.157l.332-.265c-.169-.045-.022.43-.332.265M1159.984 1179.904c.02-.108-.068-.387.184-.42-.19.059.079.597-.184.42M1160.36 1177.747l.043-.171c.133-.093.236.079.218.19l-.261-.02M1171.716 1139.95l.023.257-.18-.099zM1177.032 1123.497c-.057-.261.228-.093.273-.125-.046.21-.218-.148-.273.125M1178.919 1114.312l-.018.065-.392-.148zM1172.719 1203.76c-.059.485.422-.143.058.347-.144-.114-.234-.243-.058-.347M1211.733 1080.141c.563 1.81-1.085 3.439-.944 5.267-.017.207-.541-.223-.548.244.307 1.825-.945 4.156-2.164 5.884l-.12-.167c-.228.331.155.944-.037 1.307-.107-.032-.115-.175-.287-.13.291.197-.072.746.114.982-.171.12-.419.021-.624.179l.296.333c.664.884-.528 1.477-.348 2.46-.075-.068-.114-.173-.215-.13.099 1.514-.528 3.167-.81 4.738-.107-.1-.32-.227-.494-.188.356.197.307.695.255 1.123-.452.06.138.802-.226 1.21l-.074-.068c.3.479-.396.446.006.883l-.382.13c.504.322-.444.411-.255.793l.117.028c.05.314-.272.366-.257.654l-.073.002c-.043.638-.455.885-.023 1.008-.407.093.023-.626-.58-.451-.168 2.083-.885 4.072-1.493 6.039-.244.166-.343.296-.52.292.025.221-.151.765.012 1.012.012-.071-.259.058-.314.154-.277.307.351.539.032.875-.065-.197-.188-.295-.364-.29.234.44.038.871.028 1.303l-.209-.22c.243.548-.327.759-.21 1.212l-.198-.214c-.497.513.459.34.115.812-.038-.15-.148-.135-.246-.19.3.636-.1 1.384-.1 1.926l-.092-.055c-.116.552-.43 1.068-.422 1.717-.176.182-.58-.26-.666.332.504.139-.096 1.03.572.874-.232.46-.662 1.162-.594 1.538-.116-.274-.68.048-.598-.369l-.4.208c-.188-.11.168-.29-.125-.275-.037.21-.021.86-.163 1.014.188.468.651.993.524 1.616-.105-.348-.598-.014-.625-.228l.696 1.142c-.041.204-.41-.084-.373.247l.264.307c-.088.052-.142.874-.666.805-.21.03.004-.36-.241-.192-.112.37.05.44-.055.817l-.07-.017c-.151.221-.02.793.337.61.065-.165-.312-.026-.092-.24.23.265.179.723.063 1.095l-.299-.27c.235.621.185 1.192.172 1.794.23.084-.357-.338-.213-.381-.544.613 0 1.621-.662 2.064-.008-.108.35.052.283.039-.139.336-.473.21-.416.474-.205-.037-.025.303-.035.554.102.165-.117.029-.078-.176.068.374-.034 1.758-.554 2.41.138.026.339.608.274.776l-.287-.164c-.23.092-.155.579-.428.524.26.483.121-1.505.26-.918-.303.045.275.836-.112.605-.103.344.143.784-.25 1.024.082-.081-.335-.416-.406-.13-.09.506.108.187.085.615l.05.287c.293.11-.18.423.214.348-.265-.017-.07.756-.55.55l-.372-.193c-.039.219.304.478.426.698l-.201.014c.59.224-.207.484.177.884-.349.382-.37 1.12-.81 1.214.073.394.188.774-.06 1.122l-.138-.266c-.249.182-.117.296-.088.545-.066-.077-.501.381-.798.587.072.392.433.377.617.473-.684.124.084 1.075-.576 1.295-.041-.147-.137-.59-.37-.356-.687.125.242.761-.2 1.17l.529.036c-.374.124.052.82-.427.614.124.222-.347.538.147.633-.66.688-.38 2.07-1.395 2.297.043.146-.13.411.133.428.332-.109-.102-.33.102-.349l.164.21c-.188.22-.284.405-.604.042-.478.475.628.839.214 1.504-.189-.093-.278-.064-.31.153l.206.508c-.225.443-.53.123-.866.031-.024.265-.138.563.08.759l-.512.164c.369-.122.137.277.18.416l-.043-.139c-.163-.005-.163.312-.164.473.22.027.395-.238.505-.38l.131.583c-.31-.159-.361.332-.461.52-.143.205.217.348.188.413-.172-.046-.148.359-.332.104-.03-.093.225-.118.11-.298-.173.113-.462.001-.345.378.09.288.67.143.324.523l-.261-.335-.299.364.293.112-.154-.005c.272.227-.102.672.222.877-.036.215-.349.374-.444.566l-.013-.047c-.252.187-.24.547-.101.819l-.063-.034c-.067.128-.12.458.005.684-.336.267-1.168-.245-.906.246-.094.35.381.712.612.636-.395.55-.126 1.4-.768 1.824.096.129.188.096.198.301-.4.865-.24 2.02-1.058 2.552-.043-.295-.291-.105-.463-.156.197.299-.36.173.076.396.276.063.4.123.588-.097-.017.586-.277 1.406-.625 1.625.174-.11.218.033.264.179-.423-.179-.612.202-.554.55l.252.123-.336.11c.047.142.516.3.168.525h-.308c.115.372.346.929.011 1.198l-.467.155c-.004.161.154.47.34.256-.409.501-.554.865-.944.945.502 1.247.079 2.692-.341 3.83l-.19-.096c-.28.254.295.27.093.444-.159-.16-.483.108-.638-.206-.348.378.164.675.163.998.245.118-.09-.288.219-.128.073.074-.395.549-.024.738-.19.067-.454-.11-.59-.222l.103.329c-.563.19-.579-1.01-1.252-.837l-.017.268c-.486.109-.252-.802-.59-.223.104.332.603.744.85.559-.07.6.852.553.625 1.15-.279.096.101-.504-.259-.489-.408.19-.008.632-.197.853.236-.238.557.13.576.335-.285.25-.312-.321-.49.107.205.142.249.598.515.297.458.323-.288.417.04.78-.413.027-.694-.716-1.03-.288.376.028.285.743.88.643-.156.162-.436.094-.606-.106-.297.198.43.851-.285.726l.324.205-.503.216c-.08.237.239.921-.286.73.029.091-.167.629.269.535.335-.266-.144-.474.415-.502-.487.109-.1.504-.026.738l-.214-.032c.04.142-.087.396.114.539-.092-.128-.244-.125-.328-.048l.282.219c.005.524-.592-.064-.646.426l-.133-.426c.027.092-.317.157-.285.409l.754.588c.046.297-.358.016-.146.36l-.24-.444c-.079-.076-.55.076-.646.428.028.252.336.723.603.425-.05.176-.301.364-.468.159-.023.424.323.047.4.437-.237.083-.65.428-1.007.6l-.369-.501-.076.228c-.293-.42-.343.067-.699-.235-.11.142-.036.382.023.57.796-.264.727.808 1.361.856-.041.697-1.57-.056-.852.913.188-.059.543.393.499-.065-.192.38.512.46.117.857-.138-.427-.72.185-.914-.427.184.087.236-.241.202-.332-.278.092-.585-.222-.714.188-.022.266-.118.616.209.659.34.096.08-.39.375-.123-.039.534-.583.455-.046.851.054-.33.428-.3.659-.22l.028.412-.201-.144c-.348.541.354.304.117.853l-.53.127c-.346-.256.43-.773-.23-.87-.139.365.139.585-.13.882l-.042-.295c-.067.126-.94-.006-.62.676.105.328.201.139.436.219-.113.617.068.87-.013 1.263-.432-.222-.26.662-.595.093.33-.11.573-.975.2-1.324-.607.048.223-.443-.288-.745-.16.474-.69.284-1.057.254l.069.392c.315.158.361-.014.701.083-.25.503-.234 1.072-.002 1.465-.212.127-.53-.03-.498-.256-.1.667-.354 1.328-.644 1.898.659-.219-.081.706.447.584.224-.287.687-.442.875-.187-.094.19-.231-.081-.371-.036.21.353-.596.255-.215.653.007-.633-.616-.325-1.002-.558.102.489-.298-.111-.424.3l.069 1.545c-.575.456-.464 1.468-.61 1.985-.298.206-.717-.126-.89.139-.1.35.593-.092.217.35l-.082-.078c.06.185-.612.832.021 1.201l-.467-.321c-.08.081.012.207.046.3-.172-.048-.356.015-.419-.173-.456.202-.148.68-.244 1.028l.37-.13c.058.667-.366.964-.44 1.562l-.29-.11.075.395c-.266-.175-.551.075-.364.332l-.455-1.11c.248-.186.277.38.621.32.291-.049.375-.6.115-.775l.03.412c-.438-.068-.329-.367-.553-.602-.022.11-.19.219-.069.287-.136-.273-.103-.492-.005-.84.092.281.297-.045.386.083-.356-.147-.364-.511-.126-.902.513-.176-.026-.886.245-1.342.31.314.527.665.581 1.014.282-.256.102-.353.379-.601-.223-.237-.612-.477-.659-.933l.284.061c-.025-.407-.43-.536-.205-.977.381-.754.64-1.575.865-2.171l.28.059c-.48-.52.139-1.198.023-1.734.504-.693.265-1.766.864-2.02.22-1.432.392-2.697.933-4.084l.323.362c-.213-.344.277-.088.299-.356-.404.182-.3-.476-.49-.727.506-.541.424-1.457.322-2.107l.277.067c-.33-.727.33-1.264.633-1.939.138-.046.436-.096.471-.314-.324-.522-.224-.71-.325-1.36.126-.41.445-1.039.746-1.399-.133-1.739.754-3.185.888-4.907l.352-.017c-.197-1.764 1.027-3.484 1.087-4.92l.513.303c.298-.366.151-.995-.273-1.011.301-.363.061-1.123.6-1.247.233-.396-.092-.6-.052-.978.475-.788.527-1.118.672-1.952l-.095.185c.092.127.322.21.423.02-.063-.35.492-1.057-.256-.964.648-.741.323-2.096 1.096-2.776-.203.017-.172-.205-.264-.332.227-.755.843-1.436.724-2.128.127-.095.245.285.361-.015-.012-.202-.234-.08-.264-.333.048-1.327 1.118-2.364 1.379-3.501.276-2.08 1.095-4.084 1.632-5.99l.123.06c-.303-.793.98-1.324.384-2.062.168-.116.237-.555.458-.362-.196-.62.776-1.309.55-2.181l.016.21c.518-.647.329-1.423.836-2.117l.152.316c.344-.216-.336-.882.348-.845.053-.179-.274-.223-.294-.116.782-1.624.947-3.565 1.36-5.377.779-1.151 1.088.254.931-.891.148-.047-.221-.137-.09-.11-.055-.445.898-.38.649-.754-.42-.01-.159-.248-.395-.33.496-.695.895-.745.795-1.446l.188.108c-.356-.897.218-1.63-.26-2.445 1.121-3.998 1.94-7.902 3.069-11.783 1.324-3.773 2.197-7.601 3.765-11.36.827-.739.83-.812.919-1.876l.184.095c-.424-.186.176-.715-.21-.943.53-1.401.82-2.764 1.277-4.235-.023.247.298.476.36.191l-.196-.375.138-.013c-.004-.21-.152-.479-.362-.33.782-3.822 2.805-7.183 3.841-10.84.448-.802.668-2.082.868-3.043 1.457-2.584 2.717-4.936 3.187-7.884 0 0 1.024.73.922 1.97M1172.844 1203.19c.255-.031.475-.315.688.035-.217-.033-.5.059-.688-.036" fill="#bcbbb9"/>
  <path d="M1177.813 1195.296c-.061-.032.127-.092.172-.11-.013.111.139.267-.002.315l-.17-.205M1178.636 1193.139c.185.092.19.61.13.896l-.13-.896M1180.09 1191.34c.217-.127.293-.05.214.19l-.215-.19M1179.69 1191.056l.327-.27c-.174-.047-.021.427-.328.27M1181.652 1186.785c.016-.116-.072-.392.175-.428-.182.063.089.599-.175.428M1182 1184.621l.053-.172c.127-.098.232.082.218.19l-.271-.018M1193.027 1146.725l.028.255-.188-.093zM1198.19 1130.223c-.057-.258.234-.092.271-.123-.037.21-.214-.155-.272.123M1199.997 1121.021l-.013.07-.396-.151zM1193.425 1210.344c-.06.487.424-.133.058.347-.142-.111-.231-.24-.058-.347M1234.099 1087.264c.533 1.812-1.136 3.417-1.016 5.247-.02.205-.544-.234-.55.242.278 1.824-1.006 4.14-2.242 5.85l-.126-.17c-.23.328.148.946-.054 1.306-.1-.032-.104-.171-.278-.127.279.199-.084.741.095.983-.17.113-.417.014-.621.161l.289.339c.653.894-.548 1.477-.383 2.456-.07-.068-.109-.17-.209-.135.076 1.52-.575 3.165-.873 4.73-.107-.1-.32-.229-.495-.191.352.2.297.696.243 1.124-.455.053.126.802-.244 1.209l-.068-.068c.286.483-.411.44-.012.877l-.382.126c.503.332-.453.413-.261.793l.11.027c.043.314-.278.365-.266.646l-.07.003c-.046.639-.47.885-.037 1.012-.409.093.034-.625-.574-.464-.199 2.088-.943 4.063-1.576 6.019-.243.166-.344.293-.522.289.022.225-.165.764 0 1.01.014-.066-.262.057-.317.153-.277.305.343.541.017.872-.06-.194-.181-.296-.357-.292.225.445.024.869.008 1.301l-.21-.223c.24.554-.335.76-.22 1.212l-.197-.221c-.502.508.456.352.106.816-.038-.15-.15-.137-.239-.196.29.641-.121 1.388-.13 1.927l-.097-.055c-.116.55-.44 1.063-.437 1.71-.18.183-.581-.266-.673.327.501.142-.112 1.024.56.88-.242.454-.679 1.155-.614 1.532-.116-.281-.682.035-.594-.382l-.403.204c-.19-.111.17-.287-.115-.278-.044.21-.044.863-.182 1.015.182.473.638 1 .502 1.62-.1-.348-.598-.016-.617-.239l.67 1.151c-.04.21-.4-.084-.369.248l.251.304c-.08.056-.148.875-.665.804-.219.02.001-.359-.243-.197-.113.372.043.44-.068.814l-.07-.01c-.151.216-.026.781.334.606.065-.164-.315-.029-.092-.237.227.265.165.724.048 1.096l-.296-.277c.22.622.172 1.192.15 1.798.229.087-.362-.346-.205-.388-.561.606-.028 1.62-.694 2.058-.008-.11.35.058.285.042-.147.332-.476.208-.425.471-.206-.044-.03.301-.042.553.104.163-.121.026-.077-.177.064.373-.052 1.755-.579 2.401.132.027.328.612.256.772l-.285-.158c-.235.089-.16.574-.43.516.251.488.142-1.502.27-.92-.304.05.259.852-.125.605-.1.344.136.793-.255 1.02.08-.076-.336-.415-.407-.135-.105.512.106.192.078.618l.042.29c.295.108-.182.419.211.351-.268-.024-.08.753-.559.545l-.368-.197c-.04.216.296.475.415.697l-.201.018c.588.228-.214.484.164.885-.348.37-.386 1.113-.824 1.2.066.399.181.775-.072 1.123l-.136-.275c-.258.187-.119.299-.091.55-.077-.078-.51.371-.808.571.065.396.424.386.61.484-.69.114.065 1.075-.594 1.287-.043-.145-.127-.587-.367-.356-.69.115.228.764-.216 1.167l.527.037c-.372.125.044.827-.436.61.125.226-.352.533.144.637-.675.68-.412 2.065-1.428 2.281.039.143-.135.41.125.428.33-.11-.096-.333.107-.345l.167.206c-.194.215-.298.406-.61.036-.482.467.618.85.194 1.504-.183-.096-.276-.07-.311.155l.203.504c-.232.441-.535.121-.874.021-.021.266-.14.566.072.76l-.516.164c.376-.122.134.268.179.415l-.045-.147c-.152 0-.16.318-.168.471.217.037.396-.227.512-.367l.121.584c-.31-.166-.368.324-.464.514-.147.204.21.352.179.414-.175-.049-.152.356-.332.104-.03-.094.222-.121.114-.3-.176.111-.47-.009-.349.374.081.281.664.154.315.528l-.256-.332-.306.356.292.113-.154-.004c.269.227-.114.668.206.873-.03.22-.352.374-.448.559l-.009-.045c-.26.189-.253.549-.117.821l-.06-.036c-.07.125-.123.457 0 .68-.34.263-1.166-.256-.914.241-.101.346.368.714.607.635-.403.553-.15 1.405-.796 1.823.092.125.188.098.197.301-.412.861-.269 2.015-1.09 2.543-.04-.304-.299-.12-.464-.171.19.305-.362.172.066.397.279.066.402.132.594-.084-.03.584-.299 1.399-.646 1.612.168-.102.212.039.256.179-.412-.179-.61.197-.554.55l.244.125-.332.108c.042.144.506.308.158.521l-.306-.004c.109.381.33.936-.003 1.201l-.472.147c-.007.159.147.477.34.259-.42.5-.57.857-.957.932.474 1.252.04 2.7-.398 3.832l-.184-.099c-.281.248.288.272.083.444-.156-.163-.483.1-.633-.217-.354.373.154.68.152.998.237.126-.09-.286.218-.122.074.08-.401.542-.034.74-.191.061-.447-.118-.59-.231l.102.332c-.563.184-.566-1.02-1.239-.859l-.023.274c-.485.104-.245-.811-.589-.231.104.335.595.75.844.563-.079.6.843.57.612 1.16-.285.092.101-.5-.255-.49-.41.183-.013.635-.209.852.245-.241.56.131.567.34-.282.246-.304-.325-.486.099.204.147.24.603.51.31.457.322-.291.406.024.775-.406.023-.676-.724-1.018-.304.372.044.272.747.871.662-.159.156-.437.085-.604-.114-.303.194.416.85-.299.715l.323.212-.503.212c-.084.235.227.919-.298.724.029.093-.175.624.265.539.332-.262-.143-.474.419-.499-.49.101-.111.503-.036.741l-.218-.04c.044.147-.089.398.111.544-.09-.129-.243-.129-.325-.054l.272.228c.005.524-.584-.07-.65.414l-.124-.429c.027.09-.322.156-.289.412l.747.593c.036.3-.367.011-.154.362l-.234-.451c-.08-.079-.548.07-.652.417.03.254.326.732.604.435-.062.177-.307.356-.475.155-.03.421.324.05.39.445-.237.076-.646.416-1.011.581l-.363-.508-.085.234c-.28-.431-.34.056-.688-.248-.115.138-.046.38.012.568.802-.252.714.814 1.352.877-.05.693-1.575-.075-.864.901.188-.061.537.403.498-.058-.193.381.504.465.102.857-.126-.43-.719.176-.904-.441.181.097.237-.228.206-.328-.281.089-.582-.23-.717.177-.027.273-.13.616.2.667.337.1.085-.394.38-.12-.05.532-.59.446-.059.85.054-.33.436-.29.663-.206l.025.408-.205-.148c-.353.53.352.306.108.857l-.533.121c-.34-.262.44-.77-.219-.876-.145.36.13.588-.143.884l-.038-.301c-.066.125-.936-.016-.623.668.099.335.199.145.427.227-.122.612.058.872-.031 1.264-.427-.232-.263.658-.59.084.327-.107.583-.97.217-1.324-.611.042.226-.436-.275-.743-.17.47-.695.27-1.068.232l.068.397c.307.164.361-.01.704.094-.267.496-.25 1.062-.03 1.461-.217.124-.526-.039-.489-.26-.11.663-.374 1.321-.672 1.884.664-.21-.089.712.438.592.226-.281.702-.43.881-.177-.105.193-.236-.083-.376-.036.208.352-.599.241-.22.644.016-.63-.613-.323-.996-.57.096.491-.297-.11-.428.298l.05 1.545c-.58.445-.486 1.46-.634 1.977-.307.2-.715-.136-.893.13-.107.345.592-.088.21.349l-.08-.081c.055.193-.629.826.004 1.201l-.464-.324c-.073.077.014.207.04.3-.165-.048-.357.012-.412-.179-.457.198-.162.678-.261 1.022l.376-.122c.045.66-.384.958-.46 1.556l-.293-.116.064.398c-.26-.18-.543.068-.363.328l-.44-1.114c.257-.188.272.384.616.326.3-.044.388-.596.13-.772l.02.409c-.435-.067-.318-.368-.546-.612-.021.116-.195.219-.07.29-.133-.273-.095-.489.006-.837.083.282.299-.045.387.084-.355-.146-.359-.514-.122-.905.524-.164-.006-.885.275-1.336.3.323.513.67.564 1.02.288-.247.1-.348.39-.595-.227-.24-.614-.484-.647-.941l.277.067c-.017-.408-.42-.542-.192-.979.395-.753.661-1.57.897-2.165l.278.064c-.471-.528.15-1.192.045-1.735.513-.684.292-1.759.892-2.003.237-1.434.424-2.697.987-4.073l.321.368c-.21-.348.276-.092.299-.357-.407.181-.294-.478-.474-.734.508-.529.44-1.448.348-2.092l.28.067c-.328-.732.346-1.257.656-1.933.139-.047.435-.086.478-.307-.319-.524-.219-.715-.31-1.365.134-.406.456-1.036.764-1.39-.11-1.741.798-3.177.948-4.893l.36-.01c-.172-1.769 1.068-3.475 1.152-4.906l.504.304c.302-.355.168-.987-.253-1.01.303-.36.075-1.12.61-1.24.24-.391-.085-.602-.038-.982.485-.779.541-1.105.701-1.944l-.101.19c.09.129.327.213.424.02-.055-.349.504-1.05-.244-.963.659-.732.348-2.096 1.132-2.76-.201.01-.167-.21-.256-.338.233-.753.859-1.422.752-2.118.13-.09.244.286.359-.012-.01-.206-.228-.078-.255-.336.068-1.323 1.15-2.347 1.428-3.478.299-2.077 1.145-4.069 1.704-5.972l.127.064c-.294-.79.996-1.31.408-2.061.174-.11.246-.547.464-.355-.187-.618.794-1.296.584-2.168l.009.204c.53-.636.348-1.414.861-2.102l.151.318c.347-.216-.319-.888.364-.842.048-.178-.277-.227-.293-.115.802-1.619.994-3.555 1.43-5.363.787-1.138 1.087.27.94-.881.148-.041-.218-.132-.086-.107-.047-.444.902-.368.661-.749-.427-.013-.159-.245-.392-.333.504-.688.907-.73.812-1.435l.185.116c-.34-.907.24-1.635-.222-2.45 1.168-3.982 2.041-7.878 3.229-11.745 1.372-3.756 2.296-7.569 3.915-11.305.83-.732.836-.808.944-1.865l.177.092c-.423-.191.192-.71-.197-.94.546-1.396.857-2.751 1.338-4.22-.025.246.291.48.352.196l-.186-.38.141-.004c0-.211-.153-.484-.36-.34.835-3.808 2.9-7.144 3.98-10.788.464-.798.69-2.07.91-3.031 1.494-2.565 2.783-4.903 3.295-7.84 0 0 1.016.743.898 1.988M1193.559 1209.777c.252-.028.48-.305.688.044-.214-.034-.5.052-.688-.044" fill="#bcbbb9"/>
  <path d="M1198.635 1201.95c-.063-.033.129-.093.172-.109-.018.114.134.27-.006.32l-.166-.21M1199.485 1199.805c.183.094.192.612.119.902l-.119-.902M1200.964 1198.025c.223-.121.297-.038.213.194l-.213-.194M1200.565 1197.736l.328-.264c-.164-.047-.017.427-.328.264M1202.587 1193.49c.022-.115-.067-.393.185-.422-.192.06.073.6-.185.423M1202.97 1191.335l.05-.174c.13-.092.23.082.217.191l-.268-.017M1214.5 1153.587l.019.252-.182-.094zM1219.879 1137.156c-.044-.26.237-.093.277-.124-.043.208-.219-.152-.277.124M1221.813 1127.98l-.013.068-.395-.155zM1217.484 1218.01c-.059.491.428-.134.052.351-.139-.113-.224-.242-.052-.35M1257.603 1094.75c.548 1.815-1.122 3.423-.991 5.26-.017.2-.543-.238-.544.237.281 1.83-.99 4.15-2.22 5.861l-.125-.165c-.231.325.152.944-.05 1.301-.105-.028-.109-.17-.282-.127.286.203-.076.744.105.987-.172.113-.416.021-.623.168l.288.34c.662.888-.541 1.473-.37 2.452-.067-.072-.106-.175-.21-.137.087 1.52-.556 3.169-.853 4.737-.105-.1-.319-.23-.493-.19.356.198.304.694.249 1.122-.453.055.132.805-.243 1.207l-.068-.068c.292.485-.405.444-.006.885l-.375.121c.496.334-.452.416-.264.795l.113.028c.047.316-.276.37-.265.65l-.07.006c-.05.633-.466.884-.033 1.003-.409.097.028-.622-.576-.458-.188 2.087-.924 4.067-1.549 6.028-.243.167-.34.292-.525.29.029.225-.158.764.01 1.014.008-.072-.258.055-.32.151-.277.303.347.543.03.87-.067-.194-.186-.293-.362-.293.226.446.03.874.008 1.306l-.208-.22c.243.55-.332.757-.21 1.209l-.206-.217c-.496.51.46.346.114.817-.038-.152-.152-.143-.242-.196.291.637-.113 1.381-.12 1.921l-.1-.053c-.11.553-.433 1.065-.429 1.713-.18.18-.583-.262-.668.331.503.145-.11 1.028.563.876-.239.453-.672 1.159-.608 1.533-.119-.273-.682.039-.596-.373l-.399.205c-.19-.114.17-.29-.117-.278-.044.208-.042.857-.18 1.009.182.473.645.999.514 1.624-.1-.348-.604-.016-.626-.24l.682 1.152c-.042.204-.404-.084-.369.25l.259.303c-.088.055-.151.876-.672.802-.218.025.009-.36-.24-.194-.116.37.048.442-.067.815l-.067-.016c-.15.225-.025.79.331.613.073-.165-.312-.032-.088-.233.227.257.168.717.052 1.087l-.295-.272c.224.622.174 1.193.156 1.796.231.085-.357-.34-.206-.382-.558.606-.018 1.616-.684 2.056-.008-.109.345.056.282.04-.14.335-.472.21-.421.476-.208-.044-.03.3-.045.548.109.167-.115.032-.068-.18.06.376-.05 1.758-.578 2.408.136.03.331.612.264.78l-.286-.166c-.234.097-.156.574-.427.52.252.486.137-1.503.263-.92-.296.05.265.848-.116.604-.103.346.137.793-.258 1.022.084-.077-.33-.412-.398-.132-.104.51.097.187.073.614l.05.29c.291.114-.182.423.206.352-.261-.021-.073.756-.555.546l-.369-.198c-.036.219.3.479.42.698l-.203.013c.592.233-.21.495.168.892-.348.373-.381 1.113-.818 1.201.068.398.185.776-.067 1.124l-.135-.272c-.257.186-.114.299-.096.55-.068-.075-.504.374-.801.578.065.391.428.38.616.479-.692.115.07 1.079-.595 1.287-.042-.144-.124-.586-.365-.351-.685.115.233.761-.208 1.167l.525.032c-.376.125.048.822-.434.616.124.222-.347.532.146.633-.668.685-.4 2.061-1.416 2.287.043.142-.133.412.131.429.327-.113-.101-.335.101-.348l.167.207c-.19.217-.293.409-.608.04-.479.465.617.845.203 1.506-.191-.104-.283-.069-.318.152l.21.508c-.228.436-.536.115-.872.018-.028.266-.134.565.074.762l-.514.164c.372-.121.134.27.18.412l-.046-.142c-.16-.002-.164.314-.168.474.219.032.398-.232.507-.374l.13.585c-.31-.161-.369.327-.462.519-.145.198.21.345.179.406-.176-.044-.148.37-.334.11-.025-.095.227-.122.115-.298-.173.104-.463-.005-.348.378.088.281.667.146.315.52l-.259-.335-.301.36.293.117-.159-.006c.279.226-.105.665.22.873-.034.217-.35.377-.446.563l-.018-.047c-.248.187-.241.55-.105.817l-.065-.029c-.064.125-.118.457 0 .68-.33.261-1.163-.255-.908.239-.098.348.374.714.61.638-.397.55-.136 1.403-.785 1.823.09.13.184.096.193.301-.405.864-.261 2.015-1.076 2.544-.045-.301-.297-.112-.469-.164.201.303-.356.17.072.396.277.066.405.126.595-.092-.028.591-.294 1.408-.643 1.623.172-.105.219.037.261.18-.42-.183-.608.197-.554.544l.248.128-.335.107c.048.141.51.305.163.52l-.308-.002c.117.382.336.936.004 1.202l-.472.152c-.006.153.149.476.342.256-.418.498-.566.858-.956.938.486 1.248.054 2.699-.378 3.828l-.186-.096c-.285.251.295.272.086.444-.155-.162-.479.103-.635-.213-.348.373.159.68.155.999.241.125-.088-.292.22-.126.076.079-.4.547-.038.74-.185.066-.442-.118-.585-.226l.105.333c-.565.179-.57-1.021-1.246-.855l-.016.27c-.488.102-.252-.808-.594-.227.106.33.598.75.846.559-.075.6.848.565.617 1.161-.283.092.104-.504-.253-.492-.411.187-.012.63-.208.852.238-.235.558.128.569.336-.284.252-.303-.323-.485.105.201.147.241.6.51.302.462.325-.289.413.03.778-.404.028-.684-.718-1.02-.298.369.038.278.746.874.66-.161.153-.441.088-.606-.118-.304.196.417.855-.296.724l.329.206-.508.212c-.088.238.228.922-.297.729.03.093-.168.625.268.539.332-.267-.146-.476.416-.5-.486.104-.1.502-.03.741l-.218-.037c.046.142-.087.393.114.538-.089-.126-.25-.124-.324-.048l.274.223c.004.517-.591-.07-.647.416l-.127-.427c.023.096-.325.158-.289.406l.752.596c.037.3-.361.013-.155.361l-.236-.444c-.078-.085-.545.07-.65.415.026.253.329.729.604.432-.054.173-.307.365-.474.158-.024.424.328.048.396.442-.237.081-.646.421-1.012.588l-.365-.504-.081.232c-.286-.428-.339.06-.691-.247-.117.143-.04.381.015.573.801-.261.72.811 1.356.866-.046.696-1.572-.06-.86.905.189-.059.536.399.496-.057-.195.381.508.458.108.856-.127-.426-.716.18-.907-.444.177.104.235-.228.21-.322-.285.09-.591-.228-.722.179-.025.268-.125.613.197.663.346.101.092-.395.386-.119-.046.533-.59.45-.054.852.051-.332.432-.293.659-.213l.027.408-.202-.14c-.353.533.348.302.107.852l-.53.121c-.337-.263.438-.772-.225-.873-.142.362.139.589-.138.88l-.042-.296c-.06.122-.932-.012-.617.669.101.335.195.145.428.221-.117.62.06.874-.024 1.268-.43-.228-.261.66-.59.087.329-.104.578-.972.211-1.324-.613.041.224-.437-.28-.745-.165.474-.689.278-1.064.244l.07.396c.305.158.358-.014.7.086-.262.502-.24 1.071-.02 1.466-.219.125-.531-.039-.49-.258-.106.664-.368 1.323-.662 1.887.658-.215-.091.708.441.59.223-.28.693-.435.873-.182-.097.19-.228-.081-.37-.035.206.354-.596.243-.214.646.008-.63-.617-.326-1.006-.566.1.492-.294-.117-.422.294l.056 1.549c-.582.452-.478 1.46-.629 1.981-.3.204-.715-.133-.893.131-.098.348.597-.088.213.35l-.073-.078c.054.192-.628.83.002 1.2l-.462-.327c-.082.083.01.21.042.31-.169-.055-.358.008-.416-.183-.457.197-.157.676-.252 1.024l.37-.125c.054.661-.375.958-.455 1.556l-.285-.11.066.395c-.266-.18-.549.07-.364.324l-.448-1.108c.256-.187.276.384.62.325.299-.049.379-.594.13-.776l.017.415c-.436-.07-.321-.368-.55-.61-.017.113-.19.222-.066.283-.135-.268-.101-.489.003-.833.085.284.297-.048.386.083-.357-.144-.361-.512-.122-.903.521-.164-.015-.879.262-1.34.302.319.512.67.57 1.016.281-.247.101-.343.388-.59-.228-.245-.615-.483-.654-.94l.278.065c-.018-.411-.423-.539-.196-.98.39-.754.658-1.567.89-2.171l.276.067c-.473-.526.155-1.196.039-1.735.512-.688.284-1.767.88-2.005.232-1.443.413-2.696.973-4.08l.319.368c-.21-.351.281-.096.304-.364-.408.189-.301-.475-.484-.726.51-.533.435-1.453.34-2.1l.277.067c-.328-.728.342-1.259.651-1.933.14-.047.436-.09.472-.311-.316-.52-.224-.71-.312-1.361.13-.408.457-1.036.763-1.394-.122-1.736.778-3.181.924-4.901l.354-.01c-.177-1.77 1.056-3.471 1.132-4.91l.507.307c.303-.362.16-.992-.259-1.016.299-.358.072-1.122.604-1.24.24-.392-.082-.596-.045-.976.483-.786.541-1.114.697-1.95l-.097.187c.09.13.317.21.423.021-.058-.349.5-1.056-.247-.964.65-.738.336-2.097 1.117-2.765-.205.012-.172-.21-.26-.335.234-.754.852-1.426.743-2.124.128-.092.247.29.357-.009-.006-.205-.229-.083-.257-.34.061-1.321 1.139-2.35 1.413-3.487.291-2.074 1.13-4.073 1.68-5.977l.127.065c-.299-.796.99-1.314.399-2.064.174-.102.242-.55.461-.357-.192-.616.788-1.297.572-2.167l.01.199c.527-.636.345-1.41.857-2.099l.152.311c.345-.212-.327-.887.36-.845.046-.175-.279-.223-.294-.11.791-1.62.976-3.562 1.403-5.366.785-1.147 1.09.264.936-.888.152-.04-.219-.134-.083-.107-.056-.443.898-.372.658-.753-.424-.012-.16-.243-.391-.328.497-.691.899-.736.799-1.443l.192.117c-.351-.906.232-1.633-.238-2.45 1.152-3.982 2.008-7.884 3.172-11.755 1.358-3.765 2.263-7.58 3.874-11.325.822-.734.826-.804.936-1.871l.173.093c-.42-.189.185-.709-.201-.94.546-1.396.846-2.752 1.321-4.221-.032.244.29.48.353.195l-.189-.382.139-.009c-.006-.207-.156-.487-.36-.335.814-3.812 2.874-7.157 3.929-10.809.465-.795.688-2.07.901-3.032 1.478-2.57 2.759-4.913 3.256-7.85 0 0 1.02.733.906 1.975M1217.616 1217.444c.255-.027.479-.31.69.04-.222-.033-.505.059-.69-.04" fill="#bcbbb9"/>
  <path d="M1222.657 1209.601c-.066-.04.13-.097.175-.116-.021.112.135.271-.004.319l-.17-.203M1223.5 1207.445c.181.096.185.614.121.899l-.121-.899M1224.968 1205.661c.22-.122.295-.042.215.19l-.215-.19M1224.563 1205.37l.334-.265c-.166-.045-.021.43-.334.266M1226.568 1201.119c.019-.11-.065-.398.184-.424-.188.06.077.596-.184.424M1226.945 1198.96l.048-.172c.126-.099.231.08.218.19l-.266-.018M1238.304 1161.163l.019.256-.178-.096zM1243.615 1144.71c-.055-.263.232-.094.272-.127-.044.212-.218-.151-.272.126M1245.508 1135.524l-.021.068-.394-.148zM1240.424 1225.321c-.061.492.421-.137.055.354-.139-.118-.23-.244-.055-.354M1279.99 1101.885c.554 1.81-1.106 3.43-.969 5.259-.012.205-.546-.225-.546.244.298 1.825-.97 4.152-2.194 5.872l-.117-.164c-.233.324.15.937-.044 1.301-.11-.026-.113-.166-.285-.129.289.2-.074.747.106.99-.172.11-.42.015-.617.167l.29.336c.66.891-.538 1.475-.362 2.459-.07-.067-.11-.172-.213-.13.098 1.513-.542 3.166-.824 4.737-.112-.102-.331-.235-.503-.191.357.199.303.693.255 1.121-.45.059.136.807-.231 1.21l-.072-.068c.296.482-.399.446-.003.882l-.377.126c.504.334-.445.416-.26.794l.116.026c.048.317-.276.369-.26.654l-.072.003c-.048.641-.461.89-.028 1.01-.41.098.025-.627-.579-.46-.178 2.09-.906 4.071-1.52 6.035-.248.17-.344.292-.521.292.021.228-.155.764.004 1.011.016-.068-.255.057-.313.152-.274.307.346.544.033.872-.064-.193-.19-.29-.365-.285.229.44.036.869.02 1.304l-.21-.226c.243.554-.332.76-.21 1.218l-.202-.222c-.496.515.463.343.114.818-.039-.155-.152-.135-.244-.198.298.642-.11 1.39-.11 1.928l-.098-.06c-.114.558-.432 1.07-.424 1.722-.17.178-.58-.266-.668.332.504.138-.098 1.028.57.869-.238.46-.666 1.165-.601 1.544-.12-.279-.683.041-.599-.377l-.398.205c-.191-.105.17-.287-.123-.27-.041.203-.03.853-.168 1.007.184.472.644.992.517 1.618-.105-.344-.6-.012-.621-.232l.68 1.146c-.041.207-.408-.082-.365.251l.256.3c-.084.061-.143.88-.66.808-.222.03.001-.359-.247-.192-.113.37.05.441-.06.819l-.07-.018c-.15.224-.017.787.337.606.073-.163-.314-.023-.091-.235.23.264.17.721.056 1.096l-.293-.277c.229.621.178 1.192.162 1.798.232.086-.356-.344-.206-.381-.552.608-.016 1.613-.679 2.059-.004-.114.352.052.283.041-.14.332-.471.21-.418.47-.206-.034-.024.306-.041.557.11.164-.113.029-.07-.183.065.377-.043 1.763-.567 2.412.138.03.334.61.27.773l-.288-.164c-.234.1-.154.583-.429.524.257.487.132-1.501.261-.918-.294.049.272.846-.11.601-.099.348.136.79-.255 1.028.084-.08-.336-.412-.403-.132-.1.512.1.187.08.615l.05.288c.293.11-.182.424.213.348-.267-.02-.075.757-.555.552l-.372-.195c-.034.216.302.476.423.697l-.2.016c.588.223-.21.486.17.883-.343.379-.377 1.117-.811 1.21.069.397.182.775-.064 1.12l-.138-.266c-.256.181-.116.296-.089.548-.075-.077-.504.376-.801.577.066.396.43.383.616.479-.688.121.076 1.076-.583 1.292-.043-.145-.13-.59-.37-.35-.687.117.235.755-.202 1.166l.523.032c-.372.127.052.82-.427.615.12.222-.35.532.141.633-.661.688-.386 2.064-1.406 2.292.045.144-.124.415.134.425.334-.105-.101-.333.103-.345l.164.205c-.187.223-.285.408-.607.046-.474.469.626.841.212 1.5-.189-.094-.281-.067-.317.154l.213.51c-.226.44-.536.12-.877.028-.017.264-.133.562.08.754l-.512.17c.372-.126.135.268.184.414l-.05-.146c-.154 0-.16.318-.165.478.22.03.399-.236.504-.374l.131.581c-.31-.161-.364.33-.453.515-.148.201.209.349.177.413-.173-.047-.15.363-.33.108-.029-.096.22-.127.11-.301-.17.109-.465-.002-.348.38.093.285.67.144.319.522l-.255-.336-.303.364.29.11h-.151c.273.226-.104.664.223.868-.042.222-.354.381-.45.564l-.013-.044c-.255.186-.244.552-.11.82l-.06-.031c-.065.125-.118.453.006.676-.335.265-1.17-.243-.91.25-.098.346.382.707.613.635-.398.548-.134 1.4-.776 1.823.09.13.184.1.196.301-.406.866-.251 2.02-1.066 2.554-.045-.303-.301-.119-.469-.164.2.298-.359.168.073.393.278.064.4.128.592-.09-.024.583-.288 1.406-.633 1.62.172-.11.215.033.26.18-.42-.177-.61.197-.553.545l.252.124-.332.114c.042.139.509.3.162.522l-.309-.004c.117.381.34.929.012 1.2l-.475.152c-.002.16.151.474.344.256-.414.502-.562.868-.954.944.493 1.246.069 2.694-.358 3.829l-.181-.093c-.284.246.285.269.083.442-.155-.161-.484.107-.636-.21-.344.373.158.676.158.997.244.123-.092-.288.219-.125.075.08-.396.549-.027.74-.19.065-.449-.115-.592-.228l.103.333c-.557.187-.575-1.013-1.247-.844l-.016.268c-.485.108-.252-.805-.593-.224.108.332.6.745.852.556-.075.6.845.559.62 1.161-.284.09.097-.506-.259-.494-.408.188-.009.633-.2.854.239-.245.556.128.57.335-.284.25-.307-.324-.486.104.202.145.243.6.515.299.459.329-.29.414.027.776-.406.032-.684-.711-1.02-.287.373.03.286.744.876.652-.156.156-.434.09-.608-.115-.295.202.428.856-.29.726l.323.204-.5.217c-.08.232.239.92-.29.727.026.092-.167.629.269.536.333-.264-.146-.474.416-.499-.487.108-.106.499-.027.737l-.22-.033c.045.144-.085.399.117.541-.093-.128-.249-.129-.328-.052l.276.224c.008.519-.588-.066-.638.424l-.134-.43c.026.096-.321.156-.293.406l.755.591c.044.303-.364.01-.15.363l-.237-.442c-.079-.082-.544.075-.65.419.031.257.337.728.605.43-.05.175-.306.36-.471.16-.024.423.328.042.4.44-.236.074-.647.42-1.01.593l-.367-.506-.079.232c-.29-.425-.341.064-.695-.24-.117.143-.037.379.018.572.802-.265.72.804 1.357.852-.04.698-1.573-.052-.853.915.188-.06.537.401.494-.06-.193.379.51.463.114.853-.134-.428-.722.186-.914-.429.186.093.239-.239.21-.332-.282.092-.587-.225-.719.19-.02.265-.117.609.205.662.344.093.086-.393.38-.125-.044.533-.585.449-.05.848.054-.331.43-.295.658-.215l.028.408-.201-.139c-.35.534.35.302.11.852l-.529.122c-.34-.252.434-.771-.226-.87-.143.366.137.588-.138.88l-.038-.292c-.064.119-.934-.008-.615.67.103.332.195.142.425.222-.113.615.068.874-.016 1.263-.433-.224-.261.661-.593.09.33-.11.576-.975.205-1.32-.606.042.227-.442-.28-.745-.164.471-.693.278-1.061.246l.067.394c.309.155.361-.016.704.084-.263.499-.242 1.07-.016 1.464-.218.127-.524-.036-.492-.256-.1.663-.36 1.32-.651 1.891.659-.212-.088.71.441.587.223-.279.692-.436.878-.182-.098.186-.235-.084-.372-.038.208.35-.598.252-.216.65.009-.636-.618-.318-1.003-.562.1.497-.295-.112-.43.298l.07 1.547c-.577.45-.47 1.467-.621 1.983-.299.202-.715-.132-.891.136-.101.352.592-.088.215.349l-.08-.081c.058.189-.619.836.013 1.204l-.464-.322c-.076.079.01.204.044.302-.17-.047-.353.016-.42-.178-.453.2-.152.68-.244 1.026l.37-.126c.053.66-.371.958-.446 1.56l-.293-.109.07.39c-.262-.171-.548.074-.364.329l-.445-1.107c.252-.187.27.381.613.325.296-.053.382-.6.124-.778l.027.413c-.436-.067-.327-.368-.555-.608-.016.113-.185.22-.065.283-.135-.267-.101-.484-.003-.832.092.282.299-.043.388.08-.354-.14-.361-.506-.126-.903.524-.164-.018-.881.258-1.339.303.319.522.667.576 1.012.282-.245.098-.348.379-.593-.227-.239-.616-.479-.655-.939l.282.071c-.023-.41-.43-.541-.206-.981.391-.756.655-1.58.878-2.172l.277.062c-.472-.524.15-1.196.037-1.733.504-.692.274-1.767.872-2.015.224-1.436.4-2.694.952-4.082l.324.365c-.213-.345.278-.088.295-.359-.404.186-.299-.474-.484-.729.51-.532.43-1.45.333-2.096l.282.061c-.334-.728.325-1.257.637-1.94.139-.042.436-.088.47-.308-.32-.52-.22-.712-.32-1.354.131-.416.454-1.043.757-1.406-.131-1.736.766-3.181.905-4.896l.355-.017c-.19-1.77 1.04-3.479 1.114-4.913l.504.3c.299-.363.158-.99-.264-1.011.299-.361.067-1.124.598-1.243.237-.39-.086-.6-.048-.978.482-.788.529-1.115.688-1.952l-.096.186c.088.128.32.212.417.024-.059-.352.499-1.057-.248-.969.647-.737.327-2.093 1.099-2.77-.198.018-.164-.205-.255-.329.23-.757.848-1.433.733-2.128.13-.09.247.286.362-.014-.012-.203-.232-.076-.26-.336.057-1.323 1.129-2.356 1.4-3.492.277-2.079 1.106-4.078 1.65-5.98l.126.056c-.303-.786.984-1.314.39-2.06.174-.111.244-.552.459-.362-.193-.613.781-1.302.563-2.17l.012.202c.521-.64.334-1.418.842-2.108l.152.318c.35-.218-.326-.888.36-.848.048-.175-.281-.226-.296-.114.788-1.622.964-3.558 1.378-5.376.78-1.145 1.094.266.94-.882.142-.048-.228-.138-.094-.111-.05-.447.902-.379.656-.752-.425-.016-.16-.248-.393-.33.5-.694.899-.737.799-1.443l.19.11c-.35-.9.226-1.632-.252-2.45 1.138-3.99 1.98-7.89 3.123-11.767 1.343-3.765 2.233-7.593 3.82-11.345.823-.735.827-.807.93-1.872l.178.1c-.424-.191.176-.714-.21-.946.537-1.4.835-2.757 1.305-4.229-.03.245.293.481.349.193l-.19-.378.14-.008c-.002-.208-.157-.487-.362-.336.797-3.814 2.837-7.171 3.887-10.819.456-.804.676-2.076.885-3.043 1.467-2.577 2.736-4.922 3.22-7.862 0 0 1.021.728.915 1.97M1240.553 1224.755c.255-.028.478-.31.687.038-.216-.034-.5.062-.687-.038" fill="#bcbbb9"/>
  <path d="M1245.561 1216.884c-.066-.032.123-.095.166-.105-.016.105.138.265-.002.312l-.164-.207M1246.39 1214.728c.185.097.189.615.125.899l-.124-.899M1247.847 1212.936c.222-.12.297-.043.218.192l-.218-.192M1247.447 1212.65l.332-.265c-.171-.049-.026.431-.332.266M1249.433 1208.388c.016-.11-.069-.397.18-.424-.188.059.08.597-.18.424M1249.797 1206.232l.048-.173c.126-.098.231.081.218.189l-.266-.016M1260.988 1168.381l.021.254-.18-.092zM1266.224 1151.905c-.05-.262.23-.1.275-.128-.044.212-.22-.148-.275.128M1268.075 1142.713l-.016.063-.396-.15z" fill="#bcbbb9"/>
  <path d="M1202.01 1218.69l-60.706-13.345-12.236 40.911c-.957 2.887-5.873 21.219 2.708 23.497 4.121 1.095 7.304-1.432 9.61-4.689.18 3.85 1.394 7.61 5.227 8.63 3.732.99 6.695-.994 8.936-3.795.358 3.442 1.671 6.605 5.135 7.526 4.119 1.094 7.3-1.432 9.608-4.688.181 3.851 1.395 7.61 5.225 8.626 8.019 2.128 12.508-9.395 13.819-13.432l12.673-49.242" fill="#fbd8b5"/>
  <path d="M1102.896 808.807s216.335 37.002 101.207 427.893l-71.172-15.656s100.31-282.777-36.964-342.89l6.929-69.347" fill="#f5f5f5"/>
  <path d="M555.001 1019.508s-8.098-52.005 47.084-69.05c55.184-17.046 78.348 44.025 78.348 44.025v-7.314s-22.114-57.682-78.348-41.517c-54.486 15.66-49.549 60.617-49.549 60.617l2.465 13.239" fill="#545557"/>
  <path d="M685.241 980.176c-29.404-82.332-76.509-77.43-90.146-74.041-17.55-75.376-16.65-117.006-16.65-117.006l-.972-13.982c-19.344 7.1.091 104.509 6.3 133.33-15.377 4.019-48.098 21.799-36.446 100.542 11.133 75.245 49.632 83.913 71.482 79.693l-2.621-7.58s-49.823 6.557-60.312-75.17c-10.488-81.727 37.15-87.846 37.15-87.846s57.69-18.356 83.038 65.12c25.348 83.473-20.543 89.156-20.543 89.156l3.06 7.87s57.252-14.426 26.66-100.086" fill="#bd3831"/>
  <path d="M1044.797 973.505c0 19.52-15.821 35.346-35.344 35.346-19.525 0-35.344-15.826-35.344-35.346 0-19.521 15.819-35.342 35.344-35.342 19.523 0 35.344 15.821 35.344 35.342" fill="#bcbbb9"/>
  <path d="M1028.89 973.505c0 10.738-8.702 19.439-19.437 19.439-10.733 0-19.437-8.701-19.437-19.439 0-10.732 8.704-19.433 19.437-19.433 10.735 0 19.436 8.701 19.436 19.433" fill="#e3e2e0"/>
  <path d="M614.876 1085.941c-1.064-4.854.175-8.36 4.677-9.176 4.503-.821 7.616-1.313 9.419 4.586 1.803 5.904.328 8.196-3.115 9.18-3.441.982-9.505 2.13-10.981-4.59M650.784 1071.153c-4.753 1.448-7.201 4.244-5.715 8.567 1.49 4.332 2.582 7.287 8.611 5.97 6.025-1.313 7.303-3.725 6.477-7.21-.828-3.484-2.793-9.33-9.373-7.327" fill="#545557"/>
  <path d="M1070.723 793.904s-3.292 61.375-67.136 177.853l10.028 5.771s91.374-158.39 58.328-194.359l-1.22 10.735" fill="#bd3831"/>
</svg>
