<svg width="20" height="21" viewBox="0 0 20 21" fill="none" xmlns="http://www.w3.org/2000/svg">
<path d="M19.7266 3L17.2266 0.5C16.875 0.148438 16.25 0.148438 15.8984 0.5C15.5469 0.851562 15.5469 1.47656 15.8984 1.82812L16.4844 2.41406L15 3.89844L12.8516 1.75C12.5 1.39844 11.875 1.39844 11.5234 1.75C11.2109 2.0625 11.1719 2.57031 11.4453 2.96094L2.77344 11.6328C2.61719 11.7891 2.5 12.0234 2.5 12.2969V16.3984L0.273438 18.625C-0.078125 18.9766 -0.078125 19.6016 0.273438 19.9531C0.46875 20.1484 0.703125 20.2266 0.9375 20.2266C1.17188 20.2266 1.40625 20.1484 1.60156 19.9531L3.82812 17.7266H7.92969C8.20312 17.7266 8.4375 17.6094 8.59375 17.4531L17.2656 8.78125C17.4219 8.89844 17.6172 8.97656 17.8125 8.97656C18.0469 8.97656 18.2812 8.89844 18.4766 8.70312C18.8281 8.35156 18.8281 7.72656 18.4766 7.375L16.3281 5.22656L17.8125 3.74219L18.3984 4.32812C18.5938 4.52344 18.8281 4.60156 19.0625 4.60156C19.2969 4.60156 19.5312 4.52344 19.7266 4.32812C20.0781 3.97656 20.0781 3.35156 19.7266 3ZM7.53906 15.8516H4.375V12.6875L5.46875 11.5938L6.44531 12.5312C6.5625 12.6484 6.71875 12.7266 6.875 12.7266C7.03125 12.7266 7.1875 12.6484 7.30469 12.5312C7.57812 12.2969 7.57812 11.9062 7.30469 11.6719L6.36719 10.6953L7.96875 9.09375L8.94531 10.0312C9.0625 10.1484 9.21875 10.2266 9.375 10.2266C9.53125 10.2266 9.6875 10.1484 9.80469 10.0312C10.0781 9.79688 10.0781 9.40625 9.80469 9.17188L8.86719 8.19531L10.4688 6.59375L11.4453 7.53125C11.5625 7.64844 11.7188 7.72656 11.875 7.72656C12.0312 7.72656 12.1875 7.64844 12.3047 7.53125C12.5781 7.29688 12.5781 6.90625 12.3047 6.67188L11.3672 5.69531L12.7344 4.28906L15.9375 7.49219L7.53906 15.8516Z" fill="#EFEBE8"/>
</svg>
