<?xml version="1.0" encoding="UTF-8" standalone="no"?>
<svg
   xmlns:dc="../../../../purl.org/dc/elements/1.1/default.htm"
   xmlns:cc="../../../../creativecommons.org/ns#"
   xmlns:rdf="http://www.w3.org/1999/02/22-rdf-syntax-ns#"
   xmlns:svg="http://www.w3.org/2000/svg"
   xmlns="http://www.w3.org/2000/svg"
   height="35"
   width="35"
   xml:space="preserve"
   enable-background="new 0 120.4 595.3 593.3"
   viewBox="0 120.4 933.20345 933.20345"
   y="0px"
   x="0px"
   id="Слой_1"
   version="1.1"><metadata
     id="metadata17"><rdf:RDF><cc:Work
         rdf:about=""><dc:format>image/svg+xml</dc:format><dc:type
           rdf:resource="../../../../purl.org/dc/dcmitype/StillImage" /><dc:title></dc:title></cc:Work></rdf:RDF></metadata><defs
     id="defs15" /><g
     transform="translate(260.3938,323.04828)"
     id="g842"><rect
       style="opacity:1;fill:#7d51a0;fill-opacity:1;fill-rule:evenodd;stroke:#000000;stroke-width:1;stroke-linecap:round;stroke-linejoin:round;stroke-miterlimit:4;stroke-dasharray:none;stroke-opacity:1;paint-order:markers stroke fill"
       id="rect837"
       width="932.20343"
       height="932.20343"
       x="-259.8938"
       y="-202.14828" /><g
       id="g10"
       transform="matrix(1.713889,0,0,1.713889,-307.33654,-465.85622)"><path
         d="m 451.5,323 c -6.3,-25 -39,-56.3 -64.7,-61.9 -59.1,-11.3 -119.2,-11.3 -178.3,0 -25.7,5.6 -58.4,36.9 -64.7,61.9 -10.5,48.5 -10.5,97.7 0,146.3 6.3,25 39,56.3 64.7,61.9 v 0 c 1.1,0.4 2.1,1.1 2.1,2.5 v 71 c 0,3.5 4.2,5.3 6.7,2.8 l 33.8,-34.8 c 0,0 27.1,-27.8 31.6,-32.7 0.4,-0.4 1.1,-0.7 1.8,-0.7 34.1,1.1 68.2,-1.8 102,-8.1 26,-5.6 58.4,-36.9 64.7,-61.9 11.2,-48.5 11.2,-97.8 0.3,-146.3 z m -63.7,149.8 c -5.3,10.9 -12.7,20 -23.6,26 -3.2,1.8 -6.7,2.1 -10.2,3.2 -3.9,-1.1 -7.7,-2.1 -11.3,-3.5 C 306.1,483.4 272.4,464 246,434.2 230.9,417.3 218.9,398 209.1,377.6 c -4.6,-9.5 -8.8,-19.7 -12.7,-29.5 -3.9,-9.1 1.8,-18.3 7.4,-25.3 5.3,-6.3 12.3,-11.3 20,-15.1 6,-2.8 11.6,-1.1 15.8,3.9 9.1,10.9 17.9,22.2 24.6,34.5 4.2,7.7 3.2,17.2 -4.6,22.2 -1.8,1.4 -3.5,2.8 -5.3,4.2 -1.4,1.4 -2.8,2.5 -3.9,4.2 -1.8,3.2 -2.1,6.7 -0.7,10.2 9.5,26 25.7,46.4 51.7,57.3 4.2,1.8 8.4,3.9 13.4,3.2 8.1,-1.1 10.9,-9.8 16.5,-14.4 5.6,-4.6 12.7,-4.6 18.6,-0.7 5.9,3.9 12,7.7 17.6,12 5.6,3.9 11.3,8.1 16.5,12.7 4.9,4.2 6.6,9.8 3.8,15.8 z m -47.1,-85.1 c -2.1,0 -1.4,0 -0.4,0 -3.5,0 -5.6,-2.1 -6,-5.6 -0.4,-2.5 -0.4,-5.3 -1.1,-7.7 -1.1,-4.9 -3.9,-9.5 -7.7,-12.3 -2.1,-1.4 -4.2,-2.5 -6.3,-3.2 -2.8,-0.7 -6,-0.7 -8.8,-1.4 -3.2,-0.7 -4.9,-3.5 -4.6,-6.3 0.4,-2.8 3.2,-4.9 6,-4.6 18.6,1.4 31.6,10.9 33.8,32.7 0,1.4 0.4,3.2 0,4.6 -1.4,2.4 -3.1,3.8 -4.9,3.8 0.4,0 0.4,0 0,0 z m -11.6,-49.6 c -5.6,-2.8 -12,-4.6 -17.9,-5.6 -2.8,-0.4 -5.6,-0.7 -8.1,-1.1 -3.2,-0.4 -4.9,-2.5 -4.9,-6 0,-3.2 2.5,-5.3 5.6,-4.9 10.9,0.7 21.4,2.8 31.3,8.1 19.7,10.5 30.9,27.1 34.5,49.2 0,1.1 0.4,2.1 0.4,3.2 0.4,2.5 0.4,4.9 0.4,8.1 0,0.7 0,2.1 -0.4,3.2 -1.4,4.9 -8.4,5.3 -10.2,0.7 -0.4,-1.4 -0.7,-3.2 -0.7,-4.6 0,-10.2 -2.1,-20 -7.4,-28.8 -5,-9.5 -13.1,-16.9 -22.6,-21.5 z m 61.2,68.3 c -3.9,0 -5.6,-3.2 -5.6,-6.7 -0.4,-6.7 -0.7,-13.7 -1.8,-20.4 -4.9,-35.5 -33.4,-65 -68.6,-71.4 -5.3,-1.1 -10.9,-1.1 -16.2,-1.8 -3.5,-0.4 -7.7,-0.7 -8.8,-4.9 -0.7,-3.5 2.5,-6.3 5.6,-6.7 1.1,0 1.8,0 2.8,0 47.8,1.4 -1.1,0 0,0 47.8,1.4 86.8,33.1 95.3,80.2 1.4,8.1 2.1,16.2 2.5,24.3 0.4,4.2 -1.3,7.4 -5.2,7.4 z"
         id="path8"
         style="fill:#ffffff" /></g></g></svg>