<?xml version="1.0" encoding="UTF-8" standalone="no"?>
<svg
   xmlns:dc="../../../../purl.org/dc/elements/1.1/default.htm"
   xmlns:cc="../../../../creativecommons.org/ns#"
   xmlns:rdf="http://www.w3.org/1999/02/22-rdf-syntax-ns#"
   xmlns:svg="http://www.w3.org/2000/svg"
   xmlns="http://www.w3.org/2000/svg"
   viewBox="0 0 932.62836 932.96534"
   height="35"
   width="35"
   id="svg2"
   version="1.1">
  <metadata
     id="metadata8">
    <rdf:RDF>
      <cc:Work
         rdf:about="">
        <dc:format>image/svg+xml</dc:format>
        <dc:type
           rdf:resource="../../../../purl.org/dc/dcmitype/StillImage" />
        <dc:title></dc:title>
      </cc:Work>
    </rdf:RDF>
  </metadata>
  <defs
     id="defs6" />
  <g
     id="g1519">
    <rect
       style="opacity:1;fill:#25d266;fill-opacity:1;fill-rule:evenodd;stroke:none;stroke-width:1.26893282;stroke-linecap:round;stroke-linejoin:round;stroke-miterlimit:4;stroke-dasharray:none;stroke-opacity:1;paint-order:markers stroke fill"
       id="rect873"
       width="932.62836"
       height="932.96533"
       x="-3.5762787e-007"
       y="5.8593753e-007" />
    <g
       id="g888"
       transform="matrix(1.0860563,0,0,1.1284848,-204.62031,45.63209)">
      <path
         id="path860"
         d="M 385.19638,497.3253 347.12991,638.71503 489.42598,603.36759 520.24169,568.92651 415.10574,472.854 Z"
         style="display:inline;opacity:1;fill:#ffffff;fill-opacity:1;fill-rule:evenodd;stroke:none;stroke-width:1;stroke-linecap:round;stroke-linejoin:round;stroke-miterlimit:4;stroke-dasharray:none;stroke-opacity:1;paint-order:markers stroke fill" />
      <path
         d="M 889.17599,365.04733 A 270.20877,270.54379 0 0 1 620.59189,635.58624 270.20877,270.54379 0 0 1 348.77799,368.30063 270.20877,270.54379 0 0 1 614.09347,94.547552 270.20877,270.54379 0 0 1 889.09785,358.54122"
         id="path817-2"
         style="display:inline;opacity:1;fill:#ffffff;fill-opacity:1;fill-rule:evenodd;stroke-width:1.36222661" />
      <path
         d="M 842.95461,364.99902 A 223.89418,225.67975 0 0 1 620.40661,590.67469 223.89418,225.67975 0 0 1 395.18243,367.71283 223.89418,225.67975 0 0 1 615.02205,139.35599 223.89418,225.67975 0 0 1 842.88985,359.57181"
         id="path817"
         style="display:inline;fill:#25d266;fill-opacity:1;fill-rule:evenodd;stroke-width:1.13252687" />
      <path
         id="path862"
         d="m 433.23263,493.69992 -22.65861,81.571 86.10272,-21.75227 15.40785,-28.09668 -53.47432,-58.91238 z"
         style="opacity:1;fill:#25d266;fill-opacity:1;fill-rule:evenodd;stroke:none;stroke-width:1;stroke-linecap:round;stroke-linejoin:round;stroke-miterlimit:4;stroke-dasharray:none;stroke-opacity:1;paint-order:markers stroke fill" />
      <path
         id="path864"
         d="m 518.79492,239.84961 c 0,0 -10.57437,3.84547 -15.06054,9.29297 0,0 -61.52631,51.2709 18.58398,145.16015 0,0 43.90067,56.71785 101.58008,83.31446 0,0 68.25514,37.8122 108.95117,4.48633 0,0 21.78893,-13.45767 22.10937,-36.20899 0,0 2.24348,-13.7797 -0.96093,-17.625 L 692.79297,397.1875 c 0,0 -4.05365,-2.01329 -8.46289,0.13086 l -0.22852,-0.10156 -25.27539,32.01367 c 0,0 -5.12622,7.69059 -16.66211,0 0,0 -49.6692,-13.45698 -90.36523,-81.71094 0,0 -2.24077,-4.16571 0.96289,-8.65234 0,0 20.18712,-16.3433 21.14844,-32.04492 l -24.67383,-60.24219 c 0,0 -4.16501,-6.08972 -11.53516,-6.41016 z"
         style="display:inline;opacity:1;fill:#ffffff;fill-opacity:1;fill-rule:evenodd;stroke:none;stroke-width:1;stroke-linecap:round;stroke-linejoin:round;stroke-miterlimit:4;stroke-dasharray:none;stroke-opacity:1;paint-order:markers stroke fill" />
    </g>
  </g>
</svg>
