<svg width="97" height="43" viewBox="0 0 97 43" xmlns="http://www.w3.org/2000/svg" xmlns:xlink="http://www.w3.org/1999/xlink"><title>Group 34</title><defs><path id="a" d="M0 42.006h96.786V.048H0z"/></defs><g fill="none" fill-rule="evenodd"><path fill="#F23022" d="M40.604 14.752h-13.63V1.125h-6.123v40.187h6.123V27.686h13.63z"/><path fill="#38BA51" d="M0 28.03h3.527V14.408H0zM15.054.78v12.782l-1.426-.223V.78zM15.054 28.876v12.782h-1.426V29.099z"/><path fill="#FFB839" d="M15.63 13.65l1.348.212V.519L15.63.305zM8.067 14.037v14.364l-3.964.21V13.827zM15.63 28.787v13.346l1.348-.214V28.576z"/><path fill="#23B8F9" d="M13.628 28.395v.007l.094-.011zM13.628 14.047l.094.004-.094-.011z"/><path fill="#23B8F9" d="M17.669.24v14.43l-8.908-1.394v15.886l8.908-1.395v14.43l2.084-.979V1.22z"/><path fill="#23B8F9" d="M13.628 28.395v.007l.094-.011zM13.628 14.047l.094.004-.094-.011z"/><g transform="translate(0 .192)"><path d="M57.125 15.74c-.06-1.282-.133-2.83-.118-4.17h-.044a53.127 53.127 0 0 1-1.18 3.801l-1.459 4.303H52.94l-1.327-4.244a50.025 50.025 0 0 1-1.003-3.86h-.029a224.855 224.855 0 0 1-.177 4.228l-.22 3.994h-1.696l.663-9.932h2.388l1.298 3.993c.354 1.164.663 2.343.913 3.448h.044c.266-1.075.605-2.298.988-3.463l1.37-3.978h2.36l.574 9.932h-1.769l-.191-4.052zM65.363 15.445c.015-.663-.28-1.754-1.488-1.754-1.12 0-1.592 1.017-1.666 1.754h3.154zm-3.154 1.267c.044 1.297 1.046 1.857 2.21 1.857.841 0 1.43-.133 1.99-.324l.266 1.237c-.619.266-1.474.457-2.506.457-2.328 0-3.7-1.43-3.7-3.625 0-1.99 1.21-3.86 3.509-3.86 2.329 0 3.095 1.915 3.095 3.492 0 .339-.03.604-.059.766H62.21zM73.337 15.607a2.71 2.71 0 0 0-.044-.487c-.162-.692-.737-1.267-1.562-1.267-1.165 0-1.813 1.032-1.813 2.358s.648 2.284 1.798 2.284c.737 0 1.386-.5 1.563-1.282a2.03 2.03 0 0 0 .058-.53v-1.076zm1.813-6.278v8.444c0 .737.03 1.532.06 2.019h-1.607l-.089-1.135h-.03c-.427.796-1.296 1.297-2.328 1.297-1.725 0-3.08-1.459-3.08-3.67-.015-2.401 1.488-3.83 3.213-3.83.987 0 1.694.397 2.019.928h.03V9.329h1.812z" fill="#000"/><mask id="b" fill="#fff"><use xlink:href="#a"/></mask><path d="M77.095 19.792h1.813v-7.177h-1.813v7.177zm1.93-9.18c0 .53-.397.972-1.03.972-.605 0-1.003-.442-1.003-.973 0-.56.412-.987 1.017-.987.619 0 1.002.427 1.017.987zM86.145 19.57c-.383.178-1.135.369-2.034.369-2.24 0-3.7-1.444-3.7-3.67 0-2.15 1.475-3.816 3.995-3.816.663 0 1.341.147 1.754.324l-.324 1.37c-.295-.146-.722-.28-1.371-.28-1.385 0-2.211 1.018-2.197 2.33 0 1.473.959 2.313 2.197 2.313.619 0 1.076-.133 1.43-.28l.25 1.34zM91.289 16.285c-1.283-.015-2.506.25-2.506 1.34 0 .708.457 1.032 1.032 1.032.737 0 1.253-.471 1.43-.987.044-.133.044-.266.044-.398v-.987zm1.768 1.783c0 .648.03 1.282.119 1.724H91.54l-.133-.796h-.044c-.428.56-1.18.958-2.123.958-1.445 0-2.255-1.046-2.255-2.137 0-1.798 1.606-2.726 4.26-2.711v-.118c0-.472-.192-1.253-1.46-1.253-.707 0-1.444.221-1.93.53l-.355-1.178c.531-.324 1.46-.634 2.595-.634 2.3 0 2.962 1.46 2.962 3.036v2.579zM94.973 19.792h1.813V9.329h-1.813zM48.569 32.562V22.63h2.079l2.564 4.259a29.519 29.519 0 0 1 1.695 3.33h.03c-.133-1.326-.163-2.608-.163-4.126V22.63h1.681v9.932h-1.887l-2.594-4.376c-.634-1.091-1.282-2.3-1.768-3.42l-.06.016c.074 1.282.104 2.593.104 4.229v3.551h-1.681zM59.889 28.981c0 1.385.692 2.432 1.783 2.432 1.032 0 1.754-1.003 1.754-2.461 0-1.12-.501-2.417-1.74-2.417-1.282 0-1.797 1.253-1.797 2.446m5.41-.073c0 2.637-1.858 3.816-3.686 3.816-2.02 0-3.597-1.385-3.597-3.699 0-2.357 1.548-3.802 3.715-3.802 2.137 0 3.567 1.503 3.567 3.685M68.865 23.544v1.842h1.724v1.355h-1.724v3.169c0 .884.236 1.326.928 1.326.325 0 .501-.015.708-.074l.03 1.37c-.266.104-.753.192-1.312.192-.679 0-1.224-.22-1.563-.59-.398-.412-.575-1.075-.575-2.018V26.74h-1.017v-1.355h1.017v-1.341l1.784-.501zM76.308 28.215c.015-.663-.28-1.754-1.488-1.754-1.12 0-1.593 1.017-1.666 1.754h3.154zm-3.154 1.267c.044 1.297 1.046 1.857 2.21 1.857.84 0 1.43-.133 1.99-.324l.266 1.237c-.62.266-1.474.457-2.506.457-2.329 0-3.7-1.43-3.7-3.625 0-1.989 1.21-3.86 3.509-3.86 2.329 0 3.095 1.915 3.095 3.492 0 .339-.03.604-.059.766h-4.805z" fill="#000" mask="url(#b)"/></g></g></svg>