<?xml version="1.0" encoding="UTF-8"?>
<svg width="50px" height="50px" viewBox="0 0 50 50" version="1.1" xmlns="http://www.w3.org/2000/svg" xmlns:xlink="http://www.w3.org/1999/xlink">
    <!-- Generator: Sketch 50.2 (55047) - http://www.bohemiancoding.com/sketch -->
    <title>Group 52</title>
    <desc>Created with Sketch.</desc>
    <defs></defs>
    <g id="Blog-Medical-Note" stroke="none" stroke-width="1" fill="none" fill-rule="evenodd">
        <g id="1-Blog-glavnaya-" transform="translate(-644.000000, -4417.000000)">
            <g id="Group-52" transform="translate(644.000000, 4417.000000)">
                <g id="Group-48">
                    <circle id="Oval-5-Copy-2" fill="#F58121" cx="25" cy="25" r="25"></circle>
                    <path d="M30.6207551,28.5869768 C29.6557765,29.217881 28.5948514,29.6755733 27.4831961,29.9382588 L30.5038549,33.08475 C30.5049577,33.0858971 30.5060605,33.0870442 30.5071634,33.0881913 C31.1236469,33.7317136 31.122544,34.773279 30.5038549,35.414507 C30.502752,35.414507 30.502752,35.4156541 30.502752,35.4168012 C29.8840629,36.0580293 28.8837936,36.0580293 28.2662073,35.414507 L25.295176,32.3242237 L22.3274531,35.414507 C21.708764,36.0580293 20.706289,36.0580293 20.0875999,35.414507 C19.4689107,34.7709848 19.4689107,33.7271252 20.0875999,33.0836029 L23.1093615,29.9382588 C21.9966033,29.6755733 20.9356782,29.217881 19.9706996,28.5869768 C19.2318017,28.1017541 19.0079267,27.0842778 19.4744249,26.3145747 C19.4755277,26.3134276 19.4755277,26.3122805 19.4766306,26.3122805 C19.942026,25.5425774 20.9180329,25.3120106 21.6580337,25.7960862 C23.8703161,27.2437245 26.7211387,27.2448716 28.9345239,25.7960862 C28.9345239,25.7960862 28.9356268,25.7960862 28.9367296,25.7949391 C29.6767303,25.3120106 30.6538401,25.5437245 31.1181327,26.3145747 C31.5846309,27.0842778 31.3618587,28.1017541 30.6207551,28.5869768 Z M25.2962788,25.3510119 C22.315322,25.3510119 19.8912957,22.8285424 19.8912957,19.7279351 C19.8912957,16.6261808 22.315322,14.1025641 25.2962788,14.1025641 C28.2772356,14.1025641 30.7012619,16.6250337 30.7012619,19.7279351 C30.7012619,22.8285424 28.2772356,25.3510119 25.2962788,25.3510119 Z M25.2962788,17.3993252 C24.0633118,17.3993252 23.0575284,18.4431848 23.0586312,19.7279351 C23.0586312,21.0115383 24.062209,22.0565451 25.2962788,22.0565451 C26.5292458,22.0565451 27.5339264,21.0115383 27.5339264,19.7279351 C27.5339264,18.4443319 26.5292458,17.3993252 25.2962788,17.3993252 Z" id="Shape" fill="#FFFFFF"></path>
                </g>
            </g>
        </g>
    </g>
</svg>