<?xml version="1.0" encoding="UTF-8"?>
<svg width="50px" height="50px" viewBox="0 0 50 50" version="1.1" xmlns="http://www.w3.org/2000/svg" xmlns:xlink="http://www.w3.org/1999/xlink">
    <!-- Generator: Sketch 48.2 (47327) - http://www.bohemiancoding.com/sketch -->
    <title>Group 47</title>
    <desc>Created with Sketch.</desc>
    <defs></defs>
    <g id="1-Blog-glavnaya-" stroke="none" stroke-width="1" fill="none" fill-rule="evenodd" transform="translate(-567.000000, -4417.000000)">
        <g id="Group-47" transform="translate(567.000000, 4417.000000)">
            <circle id="Oval-5-Copy" fill="#45658D" cx="25" cy="25" r="25"></circle>
            <path d="M26.1421918,33.1413 C26.1421918,33.1413 26.5789757,33.0872414 26.8037533,32.8224932 C27.0093738,32.5771506 27.0029881,32.1197321 27.0029881,32.1197321 C27.0029881,32.1197321 26.9748909,29.9754099 27.877833,29.6593753 C28.7680037,29.3488853 29.9110493,31.7316195 31.1217836,32.6492286 C32.0400515,33.3422869 32.7348189,33.1912002 32.7348189,33.1912002 L35.974938,33.1413 C35.974938,33.1413 37.6709878,33.0262523 36.8663859,31.5569688 C36.7999743,31.4363767 36.3989505,30.4702535 34.4576887,28.4839486 C32.4257496,26.40616 32.6977817,26.7416001 35.1447932,23.1474001 C36.6352225,20.957336 37.2316496,19.6211198 37.0451863,19.0486536 C36.867663,18.5039099 35.7718718,18.648066 35.7718718,18.648066 L32.1243432,18.6730161 C32.1243432,18.6730161 31.8535882,18.6314326 31.6517992,18.7644998 C31.4563958,18.8934086 31.3299584,19.195582 31.3299584,19.195582 C31.3299584,19.195582 30.7526885,20.8894163 29.9825695,22.3309775 C28.3580399,25.3707309 27.7092498,25.5315205 27.4436034,25.3430086 C26.8254648,24.9022236 26.9799995,23.5757101 26.9799995,22.6317648 C26.9799995,19.6862672 27.3848547,18.4567819 26.1907233,18.1393612 C25.7935309,18.0326303 25.5010645,17.9633244 24.4882878,17.9522355 C23.1868761,17.9369882 22.0846992,17.95778 21.4601749,18.2946063 C21.0451025,18.517771 20.725816,19.016773 20.9212193,19.0458814 C21.1613227,19.0805343 21.7079412,19.208057 21.9965762,19.6419115 C22.3707799,20.2032887 22.3580084,21.4618824 22.3580084,21.4618824 C22.3580084,21.4618824 22.572569,24.9299459 21.8560901,25.3610281 C21.3643889,25.6576571 20.6900559,25.0533103 19.2417724,22.2949385 C18.4997507,20.8824858 17.9403608,19.3203325 17.9403608,19.3203325 C17.9403608,19.3203325 17.8318034,19.029248 17.6376772,18.8726169 C17.4039595,18.684105 17.0782873,18.6231159 17.0782873,18.6231159 L13.6108362,18.648066 C13.6108362,18.648066 13.0910378,18.6633133 12.8994659,18.9128142 C12.7296055,19.1345929 12.8866944,19.5933974 12.8866944,19.5933974 C12.8866944,19.5933974 15.6006295,26.5932857 18.6734425,30.119566 C21.4921035,33.3533758 24.691354,33.1413 24.691354,33.1413 L26.1421918,33.1413 Z" id="Shape" fill="#FFFFFF"></path>
        </g>
    </g>
</svg>