<!DOCTYPE svg PUBLIC "-//W3C//DTD SVG 20010904//EN" "http://www.w3.org/TR/2001/REC-SVG-20010904/DTD/svg10.dtd">
<svg version="1.0" xmlns="http://www.w3.org/2000/svg" width="871px" height="871px" viewBox="0 0 8710 8710" preserveAspectRatio="xMidYMid meet">
<g id="layer101" fill="#fa0000" stroke="none">
 <path d="M3895 8694 c-1000 -107 -1915 -544 -2625 -1254 -714 -715 -1151 -1632 -1254 -2638 -22 -206 -22 -678 0 -884 160 -1554 1132 -2899 2557 -3537 570 -255 1136 -374 1777 -374 297 0 479 15 740 59 1426 244 2645 1191 3239 2517 255 570 374 1136 374 1777 0 297 -15 479 -59 740 -244 1426 -1191 2645 -2517 3239 -426 190 -863 307 -1335 355 -193 20 -709 20 -897 0z"/>
 </g>
<g id="layer102" fill="#ffb2b2" stroke="none">
 <path d="M5815 7063 c-58 -24 -183 -72 -430 -168 -66 -25 -176 -68 -245 -95 -69 -26 -294 -113 -500 -193 -206 -80 -386 -150 -400 -156 -14 -5 -196 -76 -405 -157 -209 -81 -425 -164 -480 -186 -55 -21 -118 -45 -140 -53 -22 -8 -119 -45 -215 -83 l-175 -68 -2 -515 -2 -514 27 -21 c15 -11 458 -375 985 -809 l958 -789 -163 -63 c-90 -35 -219 -85 -288 -112 -202 -79 -873 -339 -1025 -397 -77 -30 -219 -85 -315 -122 l-175 -68 -3 -517 c-1 -284 0 -517 3 -517 2 0 19 7 37 15 18 8 98 40 178 71 80 30 183 71 230 89 47 18 139 54 205 80 66 26 172 67 235 92 201 79 282 110 430 168 80 31 183 71 230 90 47 18 148 58 225 88 77 30 221 86 320 125 99 39 245 96 325 127 80 31 183 71 230 90 47 18 150 58 230 89 80 31 155 61 168 66 l22 10 -2 512 -3 513 -973 809 -973 809 43 18 c24 10 97 39 163 64 105 40 247 96 565 220 47 18 139 54 205 80 66 26 170 66 230 90 61 24 182 71 270 105 88 35 230 91 315 126 l155 62 3 511 c1 281 -1 510 -5 510 -5 -1 -35 -12 -68 -26z"/>
 </g>
<g id="layer103" fill="#ffffff" stroke="none">
 <path d="M5760 7038 c-58 -22 -118 -47 -135 -54 -16 -7 -57 -22 -90 -34 -33 -12 -73 -28 -90 -35 -16 -7 -86 -34 -155 -60 -69 -26 -138 -53 -155 -60 -16 -7 -86 -34 -155 -60 -69 -26 -143 -55 -165 -65 -22 -9 -92 -36 -155 -60 -63 -23 -133 -50 -155 -60 -22 -9 -62 -25 -90 -35 -27 -9 -63 -23 -80 -30 -16 -7 -86 -34 -155 -60 -69 -26 -143 -55 -165 -65 -22 -9 -92 -36 -155 -60 -63 -23 -133 -50 -155 -60 -22 -9 -62 -25 -90 -34 -27 -10 -57 -21 -65 -25 -8 -4 -148 -58 -310 -121 -162 -62 -313 -120 -335 -130 -22 -10 -50 -21 -62 -24 l-23 -7 0 -514 0 -514 63 24 c34 13 283 110 552 215 270 106 560 219 645 252 85 33 173 68 195 78 22 9 63 25 90 35 28 9 68 25 90 35 22 9 114 45 205 79 91 35 183 71 205 81 22 9 74 29 115 44 41 16 89 34 105 41 17 7 120 48 230 90 110 43 214 83 230 90 17 8 101 41 188 75 l157 61 0 505 c0 397 -3 504 -12 503 -7 0 -60 -18 -118 -41z"/>
 <path d="M5350 3470 c-294 -114 -596 -232 -670 -260 -74 -29 -153 -60 -175 -70 -22 -9 -62 -25 -90 -35 -27 -9 -63 -23 -80 -30 -16 -7 -86 -34 -155 -60 -69 -26 -143 -55 -165 -65 -22 -9 -92 -36 -155 -60 -63 -23 -133 -50 -155 -60 -22 -9 -62 -25 -90 -35 -27 -9 -63 -23 -80 -30 -16 -7 -86 -34 -155 -60 -69 -26 -143 -55 -165 -65 -22 -9 -92 -36 -155 -60 -63 -23 -133 -50 -155 -60 -22 -10 -50 -21 -62 -24 l-23 -7 0 -510 c0 -326 4 -509 10 -509 11 0 75 24 135 50 22 9 74 29 115 44 41 16 93 36 115 45 22 10 74 30 115 45 41 16 93 36 115 45 22 10 74 30 115 45 41 16 93 36 115 45 22 10 74 30 115 45 41 16 89 34 105 41 17 8 57 23 90 35 33 12 78 30 100 39 22 10 74 30 115 45 41 16 93 36 115 45 22 10 74 30 115 45 41 16 93 36 115 45 22 10 114 46 205 81 91 34 183 70 205 80 22 9 74 29 115 44 41 16 93 36 115 45 22 10 74 30 115 45 41 16 93 36 115 45 22 10 74 30 115 45 41 16 93 36 115 45 22 10 91 37 153 61 l112 43 0 508 c0 280 -1 509 -2 508 -2 0 -244 -94 -538 -209z"/>
 </g>

</svg>