<?xml version="1.0" encoding="UTF-8"?>
<svg width="32px" height="34px" viewBox="0 0 32 34" version="1.1" xmlns="http://www.w3.org/2000/svg" xmlns:xlink="http://www.w3.org/1999/xlink">
    <!-- Generator: Sketch 48.2 (47327) - http://www.bohemiancoding.com/sketch -->
    <title>Group 37</title>
    <desc>Created with Sketch.</desc>
    <defs>
        <polygon id="path-1" points="31.8830769 0.121437478 31.8830769 33.2093023 3.07692308e-05 33.2093023 3.07692308e-05 0.121437478"></polygon>
    </defs>
    <g id="1-Blog-glavnaya-" stroke="none" stroke-width="1" fill="none" fill-rule="evenodd" transform="translate(-747.000000, -4634.000000)">
        <g id="Group-57" transform="translate(137.000000, 4564.000000)">
            <g id="Group-41" transform="translate(497.000000, 69.000000)">
                <g id="Group-37" transform="translate(113.000000, 1.000000)">
                    <g id="Group-3">
                        <mask id="mask-2" fill="white">
                            <use xlink:href="#path-1"></use>
                        </mask>
                        <g id="Clip-2"></g>
                        <path d="M15.9415692,0.121437478 C7.13726154,0.121437478 3.07692308e-05,7.52838918 3.07692308e-05,16.6654178 C3.07692308e-05,25.8021271 7.13726154,33.2093981 15.9415692,33.2093981 C24.7458769,33.2093981 31.8831077,25.8021271 31.8831077,16.6654178 C31.8831077,7.52838918 24.7458769,0.121437478 15.9415692,0.121437478" id="Fill-1" fill="#31A8DF" mask="url(#mask-2)"></path>
                    </g>
                    <g id="Group-36" transform="translate(4.571429, 10.551724)">
                        <path d="M11.1966874,12.4488255 C10.5905277,12.781783 10.0098096,13.1444927 9.32850869,13.5804129 C8.60342462,14.0484254 7.85230733,14.5281382 7.03048621,14.9563697 C6.90061599,15.0215571 8.45402949,8.70004533 8.45402949,8.70004533 L11.1966874,12.4488255 Z" id="Fill-4" fill="#A9C9DD"></path>
                        <path d="M21.2738043,0.198077253 C21.1975683,0.118228734 21.0080587,0.0598181435 20.8583647,0.0411764658 C20.8003389,0.0352732678 20.7420045,0.0352732678 20.7055841,0.0411764658 C20.0975484,0.161104592 19.4709939,0.336647057 18.8660447,0.505664935 C18.6370282,0.570289417 18.4135674,0.631806954 18.1938103,0.69332449 C13.6103942,1.93299606 8.645181,3.29259575 3.00433833,4.85507903 C2.87007664,4.891741 2.6926043,4.92902435 2.53673729,4.96257937 C1.96234419,5.0825075 1.0030676,5.28570179 0.993808173,5.69457592 C0.990721697,5.89466326 1.35739499,6.04535015 1.67838844,6.17770607 C1.74567361,6.20225094 1.81265013,6.22990276 1.87684882,6.26066153 C2.54321889,6.54991823 3.24292289,6.83886423 3.92102156,7.11880009 L3.9608371,7.13433482 C4.71856684,7.4478257 5.49790191,7.76784117 6.25254517,8.10308068 L6.29236071,8.14751001 C6.40162194,8.9344995 6.45501797,9.7208676 6.49761133,10.358413 C6.56119273,11.2877006 6.62847789,12.2424652 6.81243183,13.22861 C6.82632097,13.31809 6.84422253,13.4563491 6.86521057,13.6200852 C6.95039729,14.2933604 7.02817647,14.688564 7.09885676,14.8025889 L8.7399358,9.80102682 L10.9612722,12.0063373 L11.1047933,12.1386932 C12.0585143,13.0645632 13.0665572,14.002861 13.9526843,14.8302408 L14.7347972,15.5588197 C14.7989959,15.614434 14.8601081,15.6790585 14.9273933,15.7467899 C15.196534,16.0174049 15.5323425,16.3557514 15.9113617,16.395831 C15.9542637,16.4017342 15.9999435,16.4017342 16.045932,16.3989379 C16.4490257,16.3712861 16.7422409,15.4482124 16.9011944,14.9560721 C17.7660248,12.2524074 18.5910397,9.69321578 19.4222276,7.1125862 L21.1059,1.88048866 C21.2981874,1.29638276 21.5580687,0.499451042 21.2738043,0.198077253" id="Fill-6" fill="#FFFFFF"></path>
                        <path d="M6.0952381,7.72557903 C6.20444904,8.52379298 6.25736251,9.32137667 6.29981634,9.96801505 C6.36318945,10.9105567 6.4302542,11.8789386 6.61360553,12.8791483 C6.62744917,12.9699045 6.64529209,13.1101356 6.66621136,13.2762069 C6.75111903,13.9590848 6.82864342,14.359925 6.89909216,14.4755762 L8.53479522,9.40267916 L17.689441,1.96192601 L6.0952381,7.72557903 Z" id="Fill-8" fill="#C8DAEA"></path>
                    </g>
                </g>
            </g>
        </g>
    </g>
</svg>