<?xml version="1.0" encoding="utf-8"?>
<!-- Generator: Adobe Illustrator 21.0.0, SVG Export Plug-In . SVG Version: 6.00 Build 0)  -->
<svg version="1.1" id="Layer_1" xmlns="http://www.w3.org/2000/svg" xmlns:xlink="http://www.w3.org/1999/xlink" x="0px" y="0px"
	 viewBox="0 0 30 30" style="enable-background:new 0 0 30 30;" xml:space="preserve">
<style type="text/css">
	.st0{fill:#FFFFFF;}
</style>
<polygon class="st0" points="0,28.5 0,29.9 8.8,29.9 8.8,19 0,21.7 "/>
<polygon class="st0" points="0,16.3 8.8,13.5 8.8,6.8 0,9.5 "/>
<polygon class="st0" points="30,16.8 12,22.2 12,16.5 30,11.1 "/>
<polygon class="st0" points="12,17.3 12,5.9 16.8,6.3 16.8,18.5 "/>
<polygon class="st0" points="30,27 30,12.6 25.2,13 25.1,28 "/>
<polygon class="st0" points="30,5.9 12,11.6 12,5.9 30,0.1 "/>
<polygon class="st0" points="30,30 12,30 12,25.5 30,25.5 "/>
</svg>
