<svg id="Layer_1" data-name="Layer 1" xmlns="http://www.w3.org/2000/svg" xmlns:xlink="http://www.w3.org/1999/xlink" viewBox="0 0 96 99.37"><defs><style>.cls-1{fill:#fddfde;fill-rule:evenodd;}.cls-2{fill:none;stroke-linecap:round;stroke-linejoin:round;stroke-width:3px;stroke:url(#linear-gradient);}</style><linearGradient id="linear-gradient" x1="48" y1="87.61" x2="48" gradientUnits="userSpaceOnUse"><stop offset="0" stop-color="#f05163"/><stop offset="1" stop-color="#a14873"/></linearGradient></defs><title>buy_2</title><path class="cls-1" d="M48,3.37a48,48,0,1,1-48,48A48,48,0,0,1,48,3.37Z"/><path class="cls-2" d="M66.42,25.69c0,10.3-7,24.61-18.65,24.61S29.12,36,29.12,25.69a18.65,18.65,0,1,1,37.3,0Zm-42.07-.77a23.42,23.42,0,1,1,46.84,0M66,26c-6.67,1.15-8.69-2.9-11.88-8.12C48.59,30.89,33,28.67,33,28.67M63,40.82l4.27,1a3.29,3.29,0,0,0,3.93-2.49L73.53,29A3.29,3.29,0,0,0,71,25l-4.27-.95M29,24.09,24.74,25A3.29,3.29,0,0,0,22.24,29l2.31,10.31a3.28,3.28,0,0,0,3.93,2.49l4.27-1m-4.27,1c.8,3.13,4.66,14.91,13.74,14.91m11.59.42v-.84a2.68,2.68,0,0,0-2.67-2.67H44.89a2.68,2.68,0,0,0-2.67,2.67v.84a2.68,2.68,0,0,0,2.67,2.67h6.25A2.68,2.68,0,0,0,53.81,57.1ZM57.09,47l.74,11.32c7.79,1.38,16.1,5.41,24.88,27.77m-69.42,0c8.78-22.36,17.09-26.39,24.88-27.77L38.91,47"/></svg>