<svg id="Layer_1" data-name="Layer 1" xmlns="http://www.w3.org/2000/svg" xmlns:xlink="http://www.w3.org/1999/xlink" viewBox="0 0 99.39 96"><defs><style>.cls-1{fill:#fddfde;}.cls-1,.cls-2{fill-rule:evenodd;}.cls-2{fill:none;stroke-linecap:round;stroke-linejoin:round;stroke-width:3px;stroke:url(#linear-gradient);}</style><linearGradient id="linear-gradient" x1="52" y1="92.79" x2="52" y2="16.57" gradientUnits="userSpaceOnUse"><stop offset="0" stop-color="#f05163"/><stop offset="1" stop-color="#a24874"/></linearGradient></defs><title>buy_3</title><path class="cls-1" d="M48,0A48,48,0,1,1,0,48,48,48,0,0,1,48,0Z"/><path class="cls-2" d="M63.88,69.92c-4.51-5-15.52-3-22.53-4.51s-3.5-7.18,0-7.18h26.4c3.87,0,9.89,2.43,11,8.44l7.1,3.25M37.49,63c-4.17-2.6-5.78-2-13.16-2.79A41.52,41.52,0,0,0,12.4,56.27c-6.65-.85-6.72,4.64-6,5.39s13,5.57,16.27,7.53,20.9,6.64,20.9,6.64l38.23,7.44m-6.06-1.18C75,83.69,74.21,89,76.71,89c3.74,0,8.05-11.38,9.16-19s-3.33-4.57-4.43-2m3.5-2.89,13,2.5M76.71,89l3.81,2.34M26.64,28.75v6.84H44V28.75Zm22.76,0v6.84H67.73V28.75Zm16.67,29V35.59H49.4m-5.43,0H28.3V60.52M44,28V58.22H49.4V28ZM28.3,43.12v4.94H44V43.12Zm21.1,0v4.94H66.07V43.12ZM36.54,18.93C33.76,22.17,39.59,28,46.07,28,46.07,22.17,39.31,15.69,36.54,18.93ZM46.69,28c6.48,0,12.31-5.83,9.53-9.07S46.69,22.17,46.69,28Z"/></svg>