<svg id="Layer_1" data-name="Layer 1" xmlns="http://www.w3.org/2000/svg" xmlns:xlink="http://www.w3.org/1999/xlink" viewBox="0 0 96 96"><defs><style>.cls-1{fill:#fddfde;fill-rule:evenodd;}.cls-2{fill:none;stroke-linecap:round;stroke-linejoin:round;stroke-width:3px;stroke:url(#linear-gradient);}</style><linearGradient id="linear-gradient" x1="46.82" y1="90.72" x2="46.82" y2="10.32" gradientUnits="userSpaceOnUse"><stop offset="0" stop-color="#f05263"/><stop offset="1" stop-color="#a34875"/></linearGradient></defs><title>buy_4</title><path class="cls-1" d="M48,0A48,48,0,1,1,0,48,48,48,0,0,1,48,0Z"/><path class="cls-2" d="M21.29,59H9.79m5.75-5.25v11.5m64,3.32H68m5.75-5.25v11.5M56,67.08l.63,9.76C63.39,78,68,80,72.6,89.22m-49.24,0C28,80,32.58,78,39.31,76.84l.63-9.76M65.07,19.55a21.73,21.73,0,0,0-5.21-4.91c-4.7-3.43-17.23-4.08-23.92,0a21.73,21.73,0,0,0-5.21,4.91c-8,10.79-3.31,33.79,4.57,42.57,1.55,1.73,5,5.59,10.58,6.83a16.07,16.07,0,0,0,4,0c5.57-1.24,9-5.1,10.59-6.83C68.39,53.34,73,30.34,65.07,19.55ZM19.56,31a48.82,48.82,0,0,0,11.23,1.29c4.7,0,15.31-.15,25-7.17a35.68,35.68,0,0,0,7.6-7.53m-7.6,7.53a19.12,19.12,0,0,0,5,3.54,19.27,19.27,0,0,0,8,1.88M42.65,40.54a4.34,4.34,0,0,0-4.42-2.25,4.41,4.41,0,0,0-3,2.25m24.37,0a4.34,4.34,0,0,0-4.42-2.25,4.41,4.41,0,0,0-3,2.25m-8,14.9a4.43,4.43,0,0,0,3,2.25,4.36,4.36,0,0,0,4.42-2.25M83.84,28H75.27m4.29-3.92v8.57M26.48,39.07c-1.21-.34-3.27-.7-4.38.36-1.78,1.7-.44,6.4,2.38,8.71a7.83,7.83,0,0,0,3.37,1.56M68,49.7a7.83,7.83,0,0,0,3.37-1.56c2.82-2.31,4.16-7,2.38-8.71-1.11-1.06-3.17-.7-4.38-.36"/></svg>