<svg id="_" data-name="??" xmlns="http://www.w3.org/2000/svg" viewBox="0 0 14.46 15.13"><defs><style>.cls-1{fill:#9e5276;}</style></defs><title>flower</title><path class="cls-1" d="M7.85,6.59a1.24,1.24,0,0,0-.76-.24l0,0c-1.28-.35-1.89,2-.62,2.46S9,7.44,7.85,6.59Z"/><path class="cls-1" d="M14.46,9c-.12-.77-1.07-1.48-1.7-1.83A4.09,4.09,0,0,0,12,6.87,4.73,4.73,0,0,0,14.41,5a.24.24,0,0,0-.14-.34,7,7,0,0,0-3.41.12,5.56,5.56,0,0,0,1.67-3.14.24.24,0,0,0-.23-.23A4.33,4.33,0,0,0,9.15,2.94c-.07.07-.29.33-.52.62a6.24,6.24,0,0,0-.28-2.08c-.12-.39-.41-1.53-1-1.47S6.12,1.5,5.94,1.95a3.79,3.79,0,0,0-.29,1.89,5.82,5.82,0,0,0-4.38-1c-.16,0-.19.21-.14.33a5.74,5.74,0,0,0,2.9,3,10.66,10.66,0,0,0-2.76.29c-.4.1-1.36.23-1.26.82S1.17,8.37,1.66,8.54a6.06,6.06,0,0,0,2.66.23A6.51,6.51,0,0,0,.88,11.62a.23.23,0,0,0,.2.34,5,5,0,0,0,4.07-1.29C4.36,12,3.84,13.55,4.73,15A.24.24,0,0,0,5,15.1a5.67,5.67,0,0,0,2-2.68,4.54,4.54,0,0,0,1.34,2.51.24.24,0,0,0,.37,0,5,5,0,0,0,.59-3.51,4.29,4.29,0,0,0,1.4.73c.47.14,2,.47,2.24-.12.16-.33-.25-.9-.38-1.17a5.25,5.25,0,0,0-.85-1.29l.43,0a5.1,5.1,0,0,0,2.14-.25A.25.25,0,0,0,14.46,9ZM12.07,9a5.74,5.74,0,0,1-1.84-.48c-.24-.09-.33.25-.16.38a2.72,2.72,0,0,0,1,.45,3.93,3.93,0,0,1,.76.88,3.37,3.37,0,0,1,.59,1.16c0,.71-1.49.23-1.92,0A3.93,3.93,0,0,1,8.7,9.9a.21.21,0,0,0-.12-.09l-.22-.22c-.12-.1-.33,0-.23.18l.17.33v0l0,0a4.42,4.42,0,0,1,.18,4.21c-1-1.14-1.14-2.64-1.17-4.14A.2.2,0,0,0,7,10.1a.11.11,0,0,0-.07.11c0,.06,0,.13,0,.19s0,.41,0,.62A5.06,5.06,0,0,1,5,14.53c-.77-1.55.21-3.14,1.06-4.47.12-.19-.09-.37-.26-.32a.11.11,0,0,0-.15,0,5.36,5.36,0,0,1-4.2,1.79A6.85,6.85,0,0,1,4.95,9a.24.24,0,0,0,.11-.36.14.14,0,0,0-.12-.2,14.51,14.51,0,0,1-2.47-.14,4,4,0,0,1-1-.34C1.29,7.88.61,7.53.6,7.33c-.06-.8,3.58-.71,4.14-.69a.21.21,0,0,0,.21-.28.16.16,0,0,0-.09-.2,5.83,5.83,0,0,1-3.2-2.9A5.32,5.32,0,0,1,5.87,4.62l0,0v0a.1.1,0,0,0,.18,0,.23.23,0,0,0,.11-.39l-.13-.11A4.22,4.22,0,0,1,6.43,1.9,6.15,6.15,0,0,1,7,.92c.43-.58.4-.47.65.07a5.05,5.05,0,0,1,.43,2.63c0,.31-.31.83-.05,1.11a.22.22,0,0,0,.36-.09v0a.18.18,0,0,0,0-.07,2.06,2.06,0,0,0,.19-.22,11.7,11.7,0,0,1,.92-1.14A3.93,3.93,0,0,1,12,1.92a4.38,4.38,0,0,1-1.06,2c-.43.49-1,.88-1.39,1.39v0l-.11.06c-.17.1,0,.33.15.25l.05,0a.17.17,0,0,0,.15,0L10,5.5a7.36,7.36,0,0,1,3.82-.43,4.29,4.29,0,0,1-3.62,1.46.19.19,0,0,0,0,.37h0a.1.1,0,0,0,.08,0h.13A2.69,2.69,0,0,0,11,7a4.28,4.28,0,0,1,1.44.49,3.54,3.54,0,0,1,1.5,1.42A5.93,5.93,0,0,1,12.07,9Z"/></svg>