<svg width="44" height="45" viewBox="0 0 44 45" fill="none" xmlns="http://www.w3.org/2000/svg">
<path d="M17.8062 0.182145C19.5152 0.466966 20.6741 2.0875 20.3893 3.79643L19.4268 9.57143H28.767L29.8964 2.76518C30.1812 1.05625 31.8018 -0.102677 33.5107 0.182145C35.2196 0.466966 36.3786 2.0875 36.0937 3.79643L35.1411 9.57143H40.8571C42.5955 9.57143 44 10.9759 44 12.7143C44 14.4527 42.5955 15.8571 40.8571 15.8571H34.0902L31.9982 28.4286H37.7143C39.4527 28.4286 40.8571 29.833 40.8571 31.5714C40.8571 33.3098 39.4527 34.7143 37.7143 34.7143H30.9473L29.8179 41.5205C29.533 43.2295 27.9125 44.3884 26.2036 44.1036C24.4946 43.8188 23.3357 42.1982 23.6205 40.4893L24.583 34.7241H15.233L14.1036 41.5304C13.8188 43.2393 12.1982 44.3982 10.4893 44.1134C8.78036 43.8286 7.62143 42.208 7.90625 40.4991L8.85893 34.7143H3.14286C1.40446 34.7143 0 33.3098 0 31.5714C0 29.833 1.40446 28.4286 3.14286 28.4286H9.90982L12.0018 15.8571H6.28571C4.54732 15.8571 3.14286 14.4527 3.14286 12.7143C3.14286 10.9759 4.54732 9.57143 6.28571 9.57143H13.0527L14.1821 2.76518C14.467 1.05625 16.0875 -0.102677 17.7964 0.182145H17.8062ZM18.3759 15.8571L16.2839 28.4286H25.6241L27.7161 15.8571H18.3759Z" fill="#838383"/>
</svg>
