<svg width="48" height="42" viewBox="0 0 48 42" fill="none" xmlns="http://www.w3.org/2000/svg">
<path d="M0 3.42857C0 1.53214 1.53214 0 3.42857 0H44.5714C46.4679 0 48 1.53214 48 3.42857C48 5.325 46.4679 6.85714 44.5714 6.85714H3.42857C1.53214 6.85714 0 5.325 0 3.42857ZM0 20.5714C0 18.675 1.53214 17.1429 3.42857 17.1429H44.5714C46.4679 17.1429 48 18.675 48 20.5714C48 22.4679 46.4679 24 44.5714 24H3.42857C1.53214 24 0 22.4679 0 20.5714ZM48 37.7143C48 39.6107 46.4679 41.1429 44.5714 41.1429H3.42857C1.53214 41.1429 0 39.6107 0 37.7143C0 35.8179 1.53214 34.2857 3.42857 34.2857H44.5714C46.4679 34.2857 48 35.8179 48 37.7143Z" fill="white"/>
</svg>
