<svg width="44" height="44" viewBox="0 0 44 44" fill="none" xmlns="http://www.w3.org/2000/svg">
<path d="M19.9375 10.3125C19.9375 9.16953 20.857 8.25 22 8.25C23.143 8.25 24.0625 9.16953 24.0625 10.3125V20.9L31.393 25.7812C32.3383 26.4172 32.5961 27.6977 31.8914 28.643C31.3328 29.5883 30.0523 29.8461 29.107 29.1414L20.857 23.6414C20.2812 23.332 19.9375 22.6875 19.9375 21.9227V10.3125ZM22 0C34.1516 0 44 9.84844 44 22C44 34.1516 34.1516 44 22 44C9.84844 44 0 34.1516 0 22C0 9.84844 9.84844 0 22 0ZM4.125 22C4.125 31.8742 12.1258 39.875 22 39.875C31.8742 39.875 39.875 31.8742 39.875 22C39.875 12.1258 31.8742 4.125 22 4.125C12.1258 4.125 4.125 12.1258 4.125 22Z" fill="#5E5E5E"/>
</svg>
