<svg width="50" height="42" viewBox="0 0 50 42" fill="none" xmlns="http://www.w3.org/2000/svg">
<path d="M44.8604 10.816C44.8921 11.2602 44.8921 11.7044 44.8921 12.1485C44.8921 25.6954 34.5812 41.3046 15.736 41.3046C9.93017 41.3046 4.53682 39.623 0 36.7044C0.824902 36.7995 1.61797 36.8313 2.47461 36.8313C7.26514 36.8313 11.6751 35.2133 15.1967 32.4531C10.6916 32.3579 6.91621 29.4074 5.61543 25.3465C6.25 25.4416 6.88447 25.5051 7.55078 25.5051C8.4708 25.5051 9.39092 25.3781 10.2475 25.1562C5.55205 24.2043 2.03037 20.08 2.03037 15.099V14.9722C3.39453 15.7336 4.98096 16.2095 6.6623 16.2729C3.90215 14.4327 2.09385 11.2919 2.09385 7.73858C2.09385 5.83506 2.60137 4.09014 3.48975 2.56729C8.53418 8.78555 16.1167 12.8464 24.6191 13.2906C24.4605 12.5292 24.3653 11.7361 24.3653 10.943C24.3653 5.29571 28.9339 0.695511 34.6128 0.695511C37.5633 0.695511 40.2282 1.93282 42.1001 3.93155C44.416 3.48741 46.6368 2.63076 48.6039 1.45694C47.8424 3.83643 46.2244 5.83516 44.0988 7.1041C46.161 6.88213 48.1598 6.31094 49.9998 5.51787C48.6041 7.54824 46.8591 9.35655 44.8604 10.816Z" fill="white"/>
</svg>
