<svg width="83" height="85" viewBox="0 0 83 85" fill="none" xmlns="http://www.w3.org/2000/svg">
<path d="M22.5666 23.6903L30.8926 28.6903C33.9456 30.5233 37.9436 29.5283 39.7766 26.4733C41.6096 23.4193 40.6136 19.4203 37.5596 17.5873L29.2326 12.5873C26.1786 10.7523 22.1796 11.7523 20.3466 14.8043C18.5156 17.8583 19.5126 21.8553 22.5666 23.6903Z" fill="#94A8BD"/>
<path d="M3.13756 12.0213L11.4646 17.0243C14.5166 18.8573 18.5156 17.8593 20.3476 14.8053C22.1806 11.7533 21.1856 7.75433 18.1306 5.92133L9.80456 0.918332C6.74956 -0.914668 2.75056 0.0833316 0.91856 3.13733C-0.91444 6.18933 0.0825598 10.1883 3.13756 12.0213Z" fill="#94A8BD"/>
<path d="M28.7416 63.4963C26.6626 59.8143 21.9486 58.5043 18.2666 60.5803C14.5846 62.6593 13.2716 67.3733 15.3506 71.0553L21.0196 81.0993C23.0986 84.7813 27.8126 86.0913 31.4946 84.0133C35.1776 81.9343 36.4896 77.2223 34.4086 73.5403L28.7416 63.4963Z" fill="#94A8BD"/>
<path d="M21.1836 50.1073L15.5116 40.0633C13.4356 36.3813 8.72156 35.0693 5.03856 37.1473C1.35656 39.2283 0.0445602 43.9403 2.12356 47.6223L7.79256 57.6663C9.87056 61.3493 14.5846 62.6593 18.2666 60.5803C21.9476 58.5043 23.2616 53.7893 21.1836 50.1073Z" fill="#94A8BD"/>
<path d="M71.8966 30.5123L80.2106 20.7993C83.2586 17.2383 82.8386 11.8303 79.2766 8.78233C75.7136 5.73333 70.3056 6.15633 67.2576 9.71733L58.9446 19.4293C55.8966 22.9923 56.3176 28.3993 59.8786 31.4473C63.4416 34.4943 68.8496 34.0733 71.8966 30.5123Z" fill="#94A8BD"/>
<path d="M52.5006 53.1763L60.8136 43.4633C63.8616 39.9033 63.4416 34.4953 59.8786 31.4473C56.3176 28.3993 50.9096 28.8213 47.8606 32.3813L39.5476 42.0943C36.4996 45.6563 36.9186 51.0633 40.4816 54.1113C44.0446 57.1583 49.4526 56.7373 52.5006 53.1763Z" fill="#94A8BD"/>
<path d="M73.6686 55.3423L66.3146 59.2883C63.6186 60.7343 62.5956 64.1283 64.0426 66.8223C65.4906 69.5203 68.8806 70.5413 71.5776 69.0933L78.9316 65.1483C81.6286 63.7013 82.6516 60.3093 81.2036 57.6133C79.7556 54.9173 76.3646 53.8963 73.6686 55.3423Z" fill="#94A8BD"/>
<path d="M56.5086 64.5513L49.1546 68.4993C46.4586 69.9453 45.4356 73.3373 46.8836 76.0313C48.3306 78.7293 51.7216 79.7523 54.4176 78.3023L61.7716 74.3563C64.4676 72.9103 65.4916 69.5203 64.0426 66.8223C62.5956 64.1283 59.2046 63.1043 56.5086 64.5513Z" fill="#94A8BD"/>
</svg>
