<svg width="96" height="105" viewBox="0 0 96 105" fill="none" xmlns="http://www.w3.org/2000/svg">
<path d="M91.9755 56.2225C89.668 55.5807 87.2323 56.4792 85.9503 58.4046L75.3101 55.324C75.5665 53.912 75.6947 52.3716 75.6947 50.9597C75.6947 49.8044 75.5665 48.7775 75.4383 47.6222L85.4375 43.8998C86.5913 45.1834 88.5142 45.8252 90.309 45.1834C92.6165 44.2848 93.7702 41.7176 93.0011 39.4071C92.1037 37.0966 89.668 35.9413 87.3605 36.8399C85.5657 37.4817 84.412 39.2787 84.412 41.2042L74.9255 44.6699C74.1563 41.846 72.7462 39.1504 70.8232 36.7115L79.4123 28.1112C81.848 29.3949 85.0529 29.0098 87.1041 26.956C89.668 24.3888 89.668 20.1528 87.1041 17.5856C84.5402 15.0183 80.3097 15.0183 77.7458 17.5856C75.6947 19.6394 75.3101 22.5917 76.3356 24.9022L67.8747 33.3741C66.4646 32.0905 65.0545 30.9352 63.3879 29.9083C63.0033 29.3949 62.4905 28.8814 61.9778 28.368L65.439 16.8154C67.4902 16.8154 69.4131 15.4034 70.0541 13.3496C70.8232 10.7824 69.4131 8.0868 66.8492 7.31663C64.2853 6.54645 61.5932 7.95844 60.824 10.5257C60.183 12.5795 60.9522 14.6333 62.4905 15.7885L59.4138 26.0575C56.5936 23.8753 53.3887 22.4633 50.0556 21.8215V12.9645C52.7477 12.066 54.6706 9.62714 54.6706 6.67482C54.6706 2.95232 51.7221 0 48.0045 0C44.415 0 41.3383 2.95232 41.3383 6.67482C41.3383 9.49878 43.133 11.9377 45.5687 12.8362V21.8215C42.3639 21.9499 39.4154 22.8484 36.5951 24.3888L33.7748 18.3557C35.3131 16.9438 35.8259 14.7616 34.9285 12.7078C33.7748 10.2689 30.9545 9.11369 28.5188 10.2689C26.083 11.4242 25.0575 14.2482 26.083 16.687C26.9804 18.6125 28.9033 19.6394 30.8263 19.511L33.7748 26.0575C32.2364 27.2127 30.9545 28.4963 29.6725 30.0367C28.3906 30.8068 27.2368 31.7054 26.2112 32.6039L19.9297 26.3142C20.9552 23.8753 20.5706 20.923 18.6477 18.9976C16.0838 16.4303 11.8533 16.4303 9.28944 18.9976C6.72553 21.5648 6.72553 25.8007 9.28944 28.368C11.3406 30.4218 14.5455 30.8068 16.9812 29.5232L23.1345 35.6846C21.0834 38.1235 19.5451 40.6907 18.5195 43.643L10.956 41.4609C10.6996 39.2787 9.28944 37.3533 6.98192 36.7115C4.03343 35.9413 1.08493 37.61 0.187562 40.434C-0.58161 43.3863 1.08493 46.3386 3.90523 47.2372C6.21275 47.879 8.64846 46.9804 9.93041 45.055L17.4939 47.2372C17.2376 48.3924 17.2376 49.676 17.2376 50.8313C17.2376 52.8851 17.4939 54.8105 18.0067 56.6076L10.4432 59.4315C9.28944 58.0196 7.36651 57.5061 5.57177 58.1479C3.26425 58.9181 2.11049 61.6137 3.00786 63.7958C3.90523 66.1064 6.46914 67.2616 8.64846 66.4914C10.5714 65.8496 11.597 64.0526 11.597 62.1271L19.0323 59.4315C20.4424 62.7689 22.6218 65.8496 25.3139 68.4169L16.853 76.8888C14.4173 75.6051 11.2124 75.9902 9.16124 78.044C6.59734 80.6113 6.59734 84.8472 9.16124 87.4144C11.7252 89.9817 15.9556 89.9817 18.5195 87.4144C20.4424 85.489 20.9552 82.5367 19.8015 80.0978L28.6469 71.2408C28.9033 71.4976 29.1597 71.6259 29.5443 71.7543C30.9545 73.423 32.621 74.9633 34.2875 76.2469L30.6981 88.1846C28.6469 88.1846 26.724 89.5966 26.083 91.6504C25.3139 94.2176 26.724 96.9132 29.2879 97.6834C31.8518 98.4535 34.5439 97.0416 35.4413 94.4743C36.0823 92.5489 35.3131 90.3667 33.7748 89.2115L37.1078 78.044C39.9281 79.456 43.0048 80.2262 46.2097 80.2262V92.0354C43.5176 92.934 41.5947 95.3729 41.5947 98.3252C41.5947 101.919 44.5432 105 48.2608 105C51.9785 105 54.927 102.048 54.927 98.3252C54.927 95.5012 53.1323 93.0623 50.6966 92.1638V79.8411C53.2605 79.3276 55.568 78.3007 57.7473 76.7604L62.3623 86.901C60.824 88.313 60.3112 90.4951 61.2086 92.5489C62.3623 94.9878 65.1826 96.143 67.7466 94.9878C70.1823 93.8325 71.336 91.0086 70.1823 88.4413C69.2849 86.5159 67.362 85.489 65.439 85.6174L60.4394 74.7066C61.465 73.8081 62.3623 72.9095 63.2597 71.8826C64.5417 71.1125 65.6954 70.2139 66.721 69.3154L76.2075 78.8142C75.1819 81.2531 75.5665 84.2054 77.6176 86.1308C80.1815 88.698 84.412 88.698 86.9759 86.1308C89.5398 83.5636 89.5398 79.3276 86.9759 76.7604C84.9247 74.7066 81.7199 74.3215 79.2841 75.6051L69.9259 66.2347C71.8488 64.0526 73.259 61.6137 74.2845 58.9181L85.0529 61.9988C85.1811 64.1809 86.7195 66.1064 89.027 66.7482C91.9755 67.6467 94.924 65.8496 95.8214 63.0257C96.5905 60.0733 94.7958 56.9927 91.9755 56.2225Z" fill="#FBC893"/>
</svg>
