<svg width="83" height="82" viewBox="0 0 83 82" fill="none" xmlns="http://www.w3.org/2000/svg">
<path d="M81.914 38.652L82.018 32.654L77.215 32.57C77.237 32.02 77.257 31.469 77.257 30.92C77.257 28.223 76.85 25.62 76.097 23.167L80.66 20.896L77.988 15.525L73.686 17.664C72.037 14.825 69.878 12.319 67.333 10.273L70.183 6.127L65.24 2.729L62.261 7.059C59.504 5.726 56.482 4.86 53.298 4.557V0H47.298V4.666C43.694 5.14 40.319 6.337 37.319 8.112L34.331 3.794L29.397 7.206L32.53 11.736C30.467 13.698 28.717 15.986 27.368 18.52L22.282 16.789L20.348 22.469L25.169 24.111C24.59 26.285 24.277 28.566 24.277 30.92C24.277 32.504 24.121 33.835 23.844 34.987L18.532 32.476L15.968 37.9L20.75 40.161C19.446 41.285 17.865 42.141 16.146 43.07C14.361 44.033 12.475 45.054 10.768 46.497L6.704 43.006L2.795 47.559L7.045 51.209C6.451 52.392 5.951 53.74 5.591 55.32C5.27 56.732 5.199 58.181 5.322 59.627L0 61.547L2.035 67.192L6.984 65.407C7.511 66.441 8.152 67.442 8.909 68.391C9.951 69.697 11.172 70.859 12.539 71.868L9.955 77.497L15.408 80.001L17.828 74.728C20.771 75.847 24.066 76.447 27.561 76.447C27.925 76.447 28.267 76.425 28.625 76.419L29.09 81.369L35.064 80.808L34.618 76.054C39.038 75.554 42.983 74.599 46.501 73.348L48.522 77.837L53.993 75.374L52.016 70.983C55.388 69.283 58.269 67.337 60.681 65.34L65.026 69.374L69.108 64.977L65.051 61.211C67.426 58.648 69.491 55.836 71.212 52.855L76.38 55.087L78.759 49.579L73.868 47.466C75.067 44.578 75.961 41.59 76.527 38.56L81.914 38.652ZM22.453 62.688C19.859 62.688 17.756 60.585 17.756 57.99C17.756 55.392 19.86 53.29 22.453 53.29C25.049 53.29 27.155 55.393 27.155 57.99C27.156 60.585 25.049 62.688 22.453 62.688ZM45.277 59.42C42.678 59.42 40.576 57.317 40.576 54.721C40.576 52.127 42.679 50.021 45.277 50.021C47.871 50.021 49.975 52.127 49.975 54.721C49.975 57.318 47.87 59.42 45.277 59.42ZM52.51 37.866C47.014 37.866 42.559 33.41 42.559 27.916C42.559 22.42 47.014 17.965 52.51 17.965C58.001 17.965 62.458 22.42 62.458 27.916C62.458 33.41 58.001 37.866 52.51 37.866Z" fill="#94A8BD"/>
</svg>
