<svg width="85" height="94" viewBox="0 0 85 94" fill="none" xmlns="http://www.w3.org/2000/svg">
<path d="M81.4366 50.0953C79.3935 49.5268 77.2369 50.3227 76.1018 52.028L66.6808 49.2994C66.9078 48.0488 67.0213 46.6845 67.0213 45.4339C67.0213 44.4107 66.9078 43.5011 66.7943 42.4779L75.6478 39.1809C76.6694 40.3178 78.372 40.8862 79.961 40.3178C82.0042 39.5219 83.0257 37.2481 82.3447 35.2016C81.5501 33.1552 79.3935 32.132 77.3504 32.9278C75.7613 33.4963 74.7398 35.0879 74.7398 36.7933L66.3403 39.863C65.6592 37.3618 64.4107 34.9743 62.7081 32.8141L70.313 25.1967C72.4696 26.3337 75.3073 25.9926 77.1234 24.1735C79.3935 21.8997 79.3935 18.1479 77.1234 15.874C74.8533 13.6002 71.1075 13.6002 68.8374 15.874C67.0213 17.6931 66.6808 20.308 67.5888 22.3545L60.0974 29.8581C58.8489 28.7212 57.6003 27.698 56.1247 26.7884C55.7842 26.3337 55.3302 25.8789 54.8761 25.4241L57.9408 15.1919C59.7569 15.1919 61.4595 13.9412 62.027 12.1222C62.7081 9.84834 61.4595 7.46081 59.1894 6.77866C56.9192 6.09651 54.5356 7.34712 53.8546 9.62096C53.287 11.44 53.9681 13.2591 55.3302 14.2823L52.606 23.3777C50.1089 21.4449 47.2712 20.1943 44.32 19.6258V11.7811C46.7037 10.9853 48.4063 8.82511 48.4063 6.2102C48.4063 2.91313 45.7956 0.298218 42.5039 0.298218C39.3258 0.298218 36.6016 2.91313 36.6016 6.2102C36.6016 8.71142 38.1907 10.8716 40.3473 11.6674V19.6258C37.5097 19.7395 34.899 20.5354 32.4019 21.8997L29.9047 16.5562C31.2668 15.3056 31.7208 13.3728 30.9263 11.5537C29.9047 9.39357 27.4076 8.37034 25.251 9.39357C23.0944 10.4168 22.1863 12.918 23.0944 15.0782C23.8889 16.7835 25.5915 17.6931 27.2941 17.5794L29.9047 23.3777C28.5427 24.4009 27.4076 25.5378 26.2725 26.9021C25.1375 27.5843 24.1159 28.3801 23.2079 29.176L17.6461 23.6051C18.5541 21.4449 18.2136 18.83 16.511 17.1246C14.2409 14.8508 10.4951 14.8508 8.22502 17.1246C5.9549 19.3985 5.9549 23.1503 8.22502 25.4241C10.0411 27.2432 12.8788 27.5843 15.0354 26.4474L20.4837 31.9046C18.6676 34.0647 17.3055 36.3386 16.3975 38.9535L9.70061 37.0207C9.47359 35.0879 8.22502 33.3826 6.18191 32.8141C3.57126 32.132 0.960615 33.61 0.166071 36.1112C-0.514968 38.7261 0.960616 41.341 3.45776 42.1368C5.50087 42.7053 7.65749 41.9095 8.79255 40.2041L15.4894 42.1368C15.2624 43.1601 15.2624 44.297 15.2624 45.3202C15.2624 47.1393 15.4894 48.8447 15.9435 50.4364L9.24658 52.9376C8.22502 51.687 6.52243 51.2322 4.93334 51.8007C2.89022 52.4828 1.86867 54.8703 2.66321 56.8031C3.45776 58.8496 5.72788 59.8728 7.65749 59.1906C9.36009 58.6222 10.2681 57.0305 10.2681 55.3251L16.8515 52.9376C18.1001 55.8936 20.0297 58.6222 22.4133 60.896L14.9219 68.3997C12.7653 67.2628 9.92762 67.6038 8.11152 69.4229C5.84139 71.6968 5.84139 75.4486 8.11152 77.7224C10.3816 79.9963 14.1274 79.9963 16.3975 77.7224C18.1001 76.017 18.5541 73.4021 17.5325 71.242L25.3645 63.3972C25.5915 63.6246 25.8185 63.7383 26.159 63.852C27.4076 65.33 28.8832 66.6943 30.3588 67.8312L27.1806 78.4046C25.3645 78.4046 23.6619 79.6552 23.0944 81.4743C22.4133 83.7481 23.6619 86.1356 25.932 86.8178C28.2021 87.4999 30.5858 86.2493 31.3803 83.9755C31.9479 82.2701 31.2668 80.3373 29.9047 79.3141L32.8559 69.4229C35.353 70.6735 38.0772 71.3557 40.9149 71.3557V81.8153C38.5312 82.6112 36.8286 84.7713 36.8286 87.3862C36.8286 90.5696 39.4393 93.2982 42.731 93.2982C46.0226 93.2982 48.6333 90.6833 48.6333 87.3862C48.6333 84.885 47.0442 82.7249 44.8876 81.929V71.0146C47.1577 70.5598 49.2008 69.6503 51.1304 68.286L55.2167 77.2676C53.8546 78.5183 53.4006 80.451 54.1951 82.2701C55.2167 84.4302 57.7138 85.4535 59.9839 84.4302C62.1405 83.407 63.1621 80.9058 62.1405 78.632C61.346 76.9266 59.6434 76.017 57.9408 76.1307L53.5141 66.4669C54.4221 65.6711 55.2167 64.8752 56.0112 63.9657C57.1463 63.2835 58.1678 62.4877 59.0759 61.6919L67.4753 70.1051C66.5673 72.2652 66.9078 74.8801 68.7239 76.5855C70.994 78.8593 74.7398 78.8593 77.0099 76.5855C79.28 74.3117 79.28 70.5598 77.0099 68.286C75.1938 66.4669 72.3561 66.1258 70.1995 67.2628L61.9135 58.9632C63.6161 57.0305 64.8647 54.8703 65.7728 52.4828L75.3073 55.2114C75.4208 57.1442 76.7829 58.8496 78.826 59.418C81.4366 60.2139 84.0473 58.6222 84.8418 56.121C85.5229 53.506 83.9338 50.7774 81.4366 50.0953Z" fill="#94A8BD"/>
</svg>
