<svg width="30" height="40" viewBox="0 0 30 40" fill="none" xmlns="http://www.w3.org/2000/svg">
<path d="M21.25 2.5H18.535C18.02 1.045 16.63 0 15 0C13.37 0 11.98 1.045 11.4625 2.5H8.75C8.06 2.5 7.5 3.06 7.5 3.75V8.75C7.5 9.44 8.06 10 8.75 10H21.25C21.94 10 22.5 9.44 22.5 8.75V3.75C22.5 3.06 21.94 2.5 21.25 2.5Z" fill="#242E72"/>
<path d="M27.5 5H25V8.75C25 10.8175 23.3175 12.5 21.25 12.5H8.75C6.6825 12.5 5 10.8175 5 8.75V5H2.5C1.1225 5 0 6.1225 0 7.5V37.5C0 38.9025 1.0975 40 2.5 40H27.5C28.9025 40 30 38.9025 30 37.5V7.5C30 6.0975 28.9025 5 27.5 5ZM14.635 27.135L9.635 32.135C9.39 32.3775 9.07 32.5 8.75 32.5C8.43 32.5 8.11 32.3775 7.865 32.135L5.365 29.635C4.8775 29.1475 4.8775 28.355 5.365 27.8675C5.8525 27.38 6.645 27.38 7.1325 27.8675L8.75 29.4825L12.865 25.3675C13.3525 24.88 14.145 24.88 14.6325 25.3675C15.12 25.855 15.1225 26.645 14.635 27.135ZM14.635 17.135L9.635 22.135C9.39 22.3775 9.07 22.5 8.75 22.5C8.43 22.5 8.11 22.3775 7.865 22.135L5.365 19.635C4.8775 19.1475 4.8775 18.355 5.365 17.8675C5.8525 17.38 6.645 17.38 7.1325 17.8675L8.75 19.4825L12.865 15.3675C13.3525 14.88 14.145 14.88 14.6325 15.3675C15.12 15.855 15.1225 16.645 14.635 17.135ZM23.75 30H18.75C18.06 30 17.5 29.44 17.5 28.75C17.5 28.06 18.06 27.5 18.75 27.5H23.75C24.44 27.5 25 28.06 25 28.75C25 29.44 24.44 30 23.75 30ZM23.75 20H18.75C18.06 20 17.5 19.44 17.5 18.75C17.5 18.06 18.06 17.5 18.75 17.5H23.75C24.44 17.5 25 18.06 25 18.75C25 19.44 24.44 20 23.75 20Z" fill="#242E72"/>
</svg>
