<svg width="38" height="37" viewBox="0 0 38 37" fill="none" xmlns="http://www.w3.org/2000/svg">
<path d="M8.88018 7.04315L24.029 2.84893L23.2267 1.20414C22.7019 0.135028 21.4217 -0.306469 20.3677 0.225924L6.80629 7.04315H8.88018Z" fill="#242E72"/>
<path d="M28.7315 2.97013C28.5438 2.97013 28.356 2.9961 28.1682 3.04804L13.7406 7.04315H31.454L30.7883 4.56731C30.5323 3.60208 29.6703 2.97013 28.7315 2.97013Z" fill="#242E72"/>
<path d="M33.6773 8.55809H2.1379C1.46367 8.55809 0.861988 8.87406 0.469399 9.37183C0.290174 9.60124 0.153622 9.86527 0.0768108 10.1553C0.0298709 10.3371 0 10.5275 0 10.7223V34.8358C0 36.0305 0.955867 37 2.13363 37H33.673C34.8508 37 35.8066 36.0305 35.8066 34.8358V28.7977H23.1457C21.1443 28.7977 19.5185 27.1486 19.5185 25.1185V20.3054C19.5185 19.3098 19.911 18.4052 20.5469 17.743C21.1102 17.1543 21.8655 16.7561 22.7104 16.6565C22.8512 16.6393 22.9963 16.6306 23.1414 16.6306H35.8066V10.7223C35.8109 9.52765 34.855 8.55809 33.6773 8.55809Z" fill="#242E72"/>
<path d="M37.3044 18.6995C37.0911 18.5004 36.8393 18.3489 36.5577 18.2494C36.34 18.1758 36.1096 18.1326 35.8664 18.1326H23.1457C21.9678 18.1326 21.012 19.1021 21.012 20.2968V25.1142C21.012 26.3089 21.9678 27.2784 23.1457 27.2784H35.8664C36.1096 27.2784 36.34 27.2351 36.5577 27.1616C36.8393 27.0663 37.0911 26.9105 37.3044 26.7114C37.7312 26.3175 38 25.7462 38 25.1143V20.2968C38 19.6648 37.7312 19.0934 37.3044 18.6995ZM27.6007 23.1361C27.6007 23.7335 27.1227 24.2182 26.5339 24.2182H25.8255C25.2366 24.2182 24.7587 23.7335 24.7587 23.1361V22.4176C24.7587 22.0714 24.9166 21.764 25.1683 21.5692C25.3518 21.4264 25.578 21.3355 25.8255 21.3355H26.5339C27.1227 21.3355 27.6007 21.8203 27.6007 22.4176V23.1361Z" fill="#242E72"/>
</svg>
