<svg width="37" height="42" viewBox="0 0 37 42" fill="none" xmlns="http://www.w3.org/2000/svg">
<path d="M3.7 29.6133H7.4V32.0742H9.86667V14.8477H7.4V17.3086H4.93333V16.0781C4.93333 8.61484 11.0193 2.46094 18.5 2.46094C25.9807 2.46094 32.0667 8.61484 32.0667 16.0781V17.3086H29.6V14.8477H27.1333V32.0742H29.6V29.6133H32.0667V33.3047C32.0667 35.3402 30.4069 37.0781 28.3667 37.0781H21.9728C21.462 35.649 20.1058 34.6172 18.5 34.6172C16.4597 34.6172 14.8 36.2731 14.8 38.3086C14.8 40.3441 16.4597 42 18.5 42C20.1058 42 21.462 40.9682 21.9728 39.5391H28.3667C31.7668 39.5391 34.5333 36.6969 34.5333 33.3047V29.3866C35.9658 28.877 37 27.5239 37 25.9219V21C37 19.3979 35.9658 18.0449 34.5333 17.5352V16.0781C34.5333 7.25813 27.3405 0 18.5 0C9.65947 0 2.46667 7.25813 2.46667 16.0781V17.5352C1.03419 18.0449 0 19.3979 0 21V25.9219C0 27.9574 1.65974 29.6133 3.7 29.6133Z" fill="#242E72"/>
</svg>
