<svg width="1920" height="1600" viewBox="0 0 1920 1600" fill="none" xmlns="http://www.w3.org/2000/svg">
<path opacity="0.5" d="M-17.8672 615.909C-17.8672 615.909 138.772 673.451 243.05 672.708C378.541 671.741 441.948 544.974 574.859 571.31C719.73 600.015 708.45 806.838 854.967 825.391C985.828 841.961 1032.61 687.764 1164.5 690.2C1289.59 692.51 1331.63 812.46 1456.35 822.371C1592.3 833.174 1666.06 662.597 1790.05 719.407C1899.15 769.4 1941.37 986.886 1941.37 986.886" stroke="#999999"/>
<path opacity="0.5" d="M0.566406 582.056C0.566406 582.056 154.894 645.537 259.124 648.776C394.554 652.984 462.755 528.73 594.563 560.122C738.232 594.338 719.063 800.579 864.765 824.713C994.898 846.269 1047.54 693.97 1179.23 701.44C1304.15 708.526 1341.57 829.993 1465.83 844.659C1601.26 860.645 1681.49 693.009 1803.21 754.512C1910.33 808.635 1944.21 1027.57 1944.21 1027.57" stroke="#999999"/>
</svg>
