<svg width="1211" height="1027" viewBox="0 0 1211 1027" fill="none" xmlns="http://www.w3.org/2000/svg">
<path opacity="0.5" d="M231.993 9.65234C231.993 9.65234 283.77 103.917 334.768 147.691C401.03 204.568 485.502 169.791 538.954 238.846C597.217 314.114 504.197 409.862 567.557 480.893C624.146 544.333 712.149 489.191 775.218 546.194C835.041 600.264 804.701 676.353 861.127 733.96C922.631 796.751 1030.68 745.065 1066.89 825.153C1098.76 895.63 1027.23 1019.2 1027.23 1019.2" stroke="#999999"/>
<path opacity="0.5" d="M255.281 1C255.281 1 303.421 97.1729 352.71 142.862C416.752 202.228 502.49 170.702 553.267 241.747C608.613 319.185 512.005 411.312 572.606 484.71C626.731 550.265 716.776 498.523 777.622 557.893C835.338 614.208 802.114 689.083 856.299 748.802C915.361 813.896 1025.3 766.374 1058.43 847.786C1087.59 919.428 1011.39 1040.18 1011.39 1040.18" stroke="#999999"/>
</svg>
