<svg width="1223" height="872" viewBox="0 0 1223 872" fill="none" xmlns="http://www.w3.org/2000/svg">
<path opacity="0.5" d="M133.475 -27.8774C133.475 -27.8774 199.1 57.3284 256.208 92.7611C330.412 138.8 408.549 91.4764 471.962 151.513C541.081 216.953 463.851 325.838 537.357 386.308C603.009 440.316 681.511 372.326 752.578 418.979C819.988 463.232 801.679 543.075 866.274 591.344C936.683 643.957 1035.52 576.307 1083.6 649.891C1125.9 714.645 1074.17 847.728 1074.17 847.728" stroke="#999999"/>
<path opacity="0.5" d="M155.159 -40C155.159 -40 217.483 47.6496 273.197 85.2371C345.588 134.075 425.475 89.7704 486.549 152.185C553.12 220.216 471.788 326.072 542.932 389.305C606.473 445.781 687.514 380.838 756.748 430.171C822.419 476.965 801.075 556.051 863.78 606.751C932.129 662.014 1033.48 598.188 1078.71 673.554C1118.51 739.876 1061.73 870.887 1061.73 870.887" stroke="#999999"/>
</svg>
