<svg width="40" height="41" viewBox="0 0 40 41" fill="none" xmlns="http://www.w3.org/2000/svg">
<path d="M36.0804 18.3107H40C39.5254 13.7014 37.4776 9.39626 34.2011 6.11975C30.9245 2.84323 26.6194 0.795376 22.01 0.320801V4.2404C22.01 4.7735 21.7983 5.28476 21.4213 5.66172C21.0444 6.03868 20.5331 6.25045 20 6.25045C19.4669 6.25045 18.9556 6.03868 18.5787 5.66172C18.2017 5.28476 17.9899 4.7735 17.9899 4.2404V0.320801C13.3806 0.795376 9.07546 2.84323 5.79894 6.11975C2.52243 9.39626 0.474575 13.7014 0 18.3107H3.9196C4.4527 18.3107 4.96396 18.5225 5.34092 18.8995C5.71788 19.2764 5.92965 19.7877 5.92965 20.3208C5.92965 20.8539 5.71788 21.3652 5.34092 21.7421C4.96396 22.1191 4.4527 22.3308 3.9196 22.3308H0C0.474575 26.9402 2.52243 31.2453 5.79894 34.5219C9.07546 37.7984 13.3806 39.8462 17.9899 40.3208V36.4012C17.9899 35.8681 18.2017 35.3568 18.5787 34.9799C18.9556 34.6029 19.4669 34.3912 20 34.3912C20.5331 34.3912 21.0444 34.6029 21.4213 34.9799C21.7983 35.3568 22.01 35.8681 22.01 36.4012V40.3208C26.6194 39.8462 30.9245 37.7984 34.2011 34.5219C37.4776 31.2453 39.5254 26.9402 40 22.3308H36.0804C35.5473 22.3308 35.036 22.1191 34.6591 21.7421C34.2821 21.3652 34.0704 20.8539 34.0704 20.3208C34.0704 19.7877 34.2821 19.2764 34.6591 18.8995C35.036 18.5225 35.5473 18.3107 36.0804 18.3107ZM24.609 27.7721L18.5789 21.7419C18.3922 21.5553 18.244 21.3338 18.143 21.09C18.0419 20.8461 17.9899 20.5848 17.9899 20.3208V12.2806C17.9899 11.7475 18.2017 11.2362 18.5787 10.8593C18.9556 10.4823 19.4669 10.2705 20 10.2705C20.5331 10.2705 21.0444 10.4823 21.4213 10.8593C21.7983 11.2362 22.01 11.7475 22.01 12.2806V19.4884L27.4513 24.9296C27.8188 25.3085 28.0225 25.8167 28.0185 26.3444C28.0145 26.8722 27.8031 27.3773 27.4299 27.7505C27.0567 28.1237 26.5517 28.3352 26.0239 28.3392C25.4961 28.3433 24.9879 28.1395 24.609 27.7721Z" fill="#242E72"/>
</svg>
