<svg width="37" height="45" viewBox="0 0 37 45" fill="none" xmlns="http://www.w3.org/2000/svg">
<path d="M18.4235 35.7172C18.4181 36.4544 18.3384 37.189 18.1856 37.9094L24.7259 31.2072L18.4235 24.7565V35.7172Z" fill="#242E72"/>
<path d="M22.6226 8.91652L18.4235 13.2144V22.5329L25.8083 30.0994L34.5595 21.1422C36.1223 19.5383 37 17.3654 37 15.1001C37 12.8348 36.1223 10.6619 34.5595 9.05795L34.429 8.91652C32.8619 7.31687 30.739 6.41855 28.5258 6.41855C26.3126 6.41855 24.1897 7.31687 22.6226 8.91652ZM25.0944 13.0572L21.7474 16.4829C21.6029 16.6299 21.4072 16.712 21.2035 16.7112C20.9998 16.7105 20.8048 16.627 20.6612 16.479C20.5177 16.3311 20.4375 16.1308 20.4382 15.9223C20.4389 15.7138 20.5205 15.5141 20.6651 15.3672L24.0043 11.9415C24.1489 11.7936 24.3449 11.7104 24.5494 11.7104C24.7538 11.7104 24.9498 11.7936 25.0944 11.9415C25.2389 12.0895 25.3201 12.2901 25.3201 12.4994C25.3201 12.7086 25.2389 12.9093 25.0944 13.0572Z" fill="#242E72"/>
<path d="M0 23.1065V35.6779C0 37.9702 0.889646 40.1685 2.47322 41.7894C4.0568 43.4102 6.2046 44.3208 8.44412 44.3208H8.52088C9.62978 44.3208 10.7278 44.0972 11.7523 43.6629C12.7768 43.2286 13.7077 42.5919 14.4918 41.7894C15.2759 40.9868 15.8979 40.034 16.3222 38.9854C16.7466 37.9368 16.965 36.8129 16.965 35.6779V23.1065H0ZM4.36024 25.1022V30.6022C4.36024 30.8106 4.27936 31.0105 4.1354 31.1578C3.99144 31.3052 3.79618 31.3879 3.59259 31.3879C3.389 31.3879 3.19374 31.3052 3.04978 31.1578C2.90582 31.0105 2.82494 30.8106 2.82494 30.6022V25.1022C2.82494 24.8938 2.90582 24.694 3.04978 24.5466C3.19374 24.3993 3.389 24.3165 3.59259 24.3165C3.79618 24.3165 3.99144 24.3993 4.1354 24.5466C4.27936 24.694 4.36024 24.8938 4.36024 25.1022Z" fill="#242E72"/>
<path d="M8.52088 0.320804H8.32897C6.1185 0.329114 4.00122 1.23318 2.44033 2.83522C0.879444 4.43727 0.00201492 6.60687 0 8.86938V21.5351H16.8882V8.86938C16.8872 7.74573 16.67 6.63329 16.249 5.59557C15.8279 4.55785 15.2113 3.61518 14.4343 2.82137C13.6573 2.02756 12.7352 1.39816 11.7206 0.969116C10.7059 0.540069 9.61869 0.319772 8.52088 0.320804ZM4.26044 14.3301V16.4515C4.26044 16.6599 4.17956 16.8598 4.0356 17.0071C3.89164 17.1544 3.69639 17.2372 3.49279 17.2372C3.2892 17.2372 3.09395 17.1544 2.94999 17.0071C2.80602 16.8598 2.72515 16.6599 2.72515 16.4515V14.3301C2.72515 14.1217 2.80602 13.9219 2.94999 13.7745C3.09395 13.6272 3.2892 13.5444 3.49279 13.5444C3.69639 13.5444 3.89164 13.6272 4.0356 13.7745C4.17956 13.9219 4.26044 14.1217 4.26044 14.3301ZM6.87044 4.69723C6.91498 4.79006 6.94118 4.89098 6.94754 4.99419C6.95389 5.09741 6.94027 5.20089 6.90747 5.29871C6.87466 5.39652 6.82331 5.48675 6.75636 5.56421C6.68941 5.64166 6.60818 5.70483 6.51732 5.75009C5.83902 6.09129 5.26789 6.62049 4.86891 7.2775C4.46992 7.93451 4.25911 8.69294 4.26044 9.46652V11.2658C4.26002 11.3698 4.23945 11.4726 4.19992 11.5684C4.16039 11.6641 4.10268 11.7509 4.03015 11.8237C3.92238 11.9318 3.78587 12.005 3.63768 12.0341C3.48949 12.0633 3.33619 12.0471 3.19695 11.9876C3.0577 11.9281 2.93868 11.8278 2.85477 11.6995C2.77086 11.5711 2.72577 11.4203 2.72515 11.2658V9.46652C2.72016 8.39878 3.01009 7.35134 3.56152 6.44495C4.11295 5.53857 4.90342 4.81014 5.84179 4.34366C6.02403 4.25103 6.23473 4.23624 6.42761 4.30254C6.62049 4.36884 6.77977 4.5108 6.87044 4.69723Z" fill="#242E72"/>
</svg>
