<svg width="34" height="46" viewBox="0 0 34 46" fill="none" xmlns="http://www.w3.org/2000/svg">
<path fill-rule="evenodd" clip-rule="evenodd" d="M16.9964 0.320801C12.1564 0.320801 7.77514 0.829922 4.6711 1.62762C3.12076 2.02846 1.86922 2.48032 1.1261 2.9764C0.388561 3.46908 0.420338 4.00428 1.1261 4.41362C2.34809 5.12004 3.57956 5.57757 4.69173 5.76012C8.85553 4.57633 11.6111 4.02469 16.9964 4.02469C22.9107 4.02469 25.6752 4.48562 29.3044 5.76012C30.5392 5.47211 31.8426 5.06164 32.8733 4.41362C33.6683 3.91187 33.4916 3.36589 32.8733 2.9764C32.1207 2.50129 30.8809 2.02846 29.3283 1.62762C26.2237 0.829922 21.837 0.320801 16.9964 0.320801Z" fill="#242E72"/>
<path fill-rule="evenodd" clip-rule="evenodd" d="M4.4247 11.2681C8.52996 12.0709 13.2685 12.4615 16.9964 12.4728C21.8024 12.4728 25.9656 11.9699 29.5775 11.2681L28.4592 18.8743C25.1121 19.4645 21.3163 19.8721 16.9964 19.8721C14.073 19.8721 11.4105 19.6748 8.94529 19.3703L11.4394 40.9111C10.4036 40.6429 9.43308 40.2233 8.59686 39.6689L4.4247 11.2681ZM0 6.29816L5.09813 40.9388C5.09813 41.6265 5.74871 42.4413 7.7088 43.4516C9.67112 44.4613 12.764 45.2998 17.0086 45.3208C21.2449 45.2964 24.3339 44.4613 26.2906 43.4516C28.2507 42.4418 28.9041 41.3408 28.9041 40.9388L34 6.29816C32.9893 6.77327 31.7417 7.16956 30.2459 7.50973C26.803 8.28816 22.1452 8.75759 16.9975 8.75759C11.8525 8.75759 7.20149 8.28816 3.7574 7.50973C2.2589 7.16956 1.01015 6.77327 0 6.29816Z" fill="#242E72"/>
</svg>
