<svg xmlns="http://www.w3.org/2000/svg" width="38" height="36" viewBox="0 0 38 36"><g><g><path fill="#ffb400" d="M38 23.577c0 1.87-.625 3.667-1.77 5.13a.57.57 0 0 1-.83.071.565.565 0 0 1-.063-.77 7.17 7.17 0 0 0 1.53-4.431c0-3.965-3.231-7.193-7.202-7.193a7.167 7.167 0 0 0-6.357 3.81c2.77 1.354 4.682 4.198 4.682 7.48 0 .97-.168 1.9-.474 2.766a7.188 7.188 0 0 0 5.723-.619.57.57 0 0 1 .758.17.565.565 0 0 1-.183.806 8.295 8.295 0 0 1-4.15 1.103 8.263 8.263 0 0 1-2.601-.414A8.347 8.347 0 0 1 19.654 36a8.347 8.347 0 0 1-7.616-4.946c-.692.115-1.389.167-2.079.167-4.839 0-9.362-2.461-9.584-2.587a.562.562 0 0 1-.243-.724c.086-.193 2.029-4.458 5.57-7.385a9.337 9.337 0 0 1-.8-.588c-2.137-1.76-3.647-4.642-4.366-8.334C0 8.847.086 6.632.09 6.54a.567.567 0 0 1 .543-.543c.093-.002 2.31-.088 5.07.45 3.062.593 5.566 1.73 7.338 3.313C14.207 4.553 18.688.387 18.892.2a.57.57 0 0 1 .767 0c.035.032.79.73 1.764 1.897a.566.566 0 0 1-.082.806v.002a.567.567 0 0 1-.788-.08 23.204 23.204 0 0 0-1.277-1.412c-1.164 1.187-4.618 5.022-5.27 9.343.014.015.028.033.042.05 1.355 1.641 2.077 3.648 2.164 5.993a8.383 8.383 0 0 1 2.496-2.64V12.5l-2.742-2.738a.566.566 0 0 1 .802-.8l1.94 1.936V7.842c0-.318.263-.576.584-.566.31.01.55.28.55.59v3.032l1.94-1.936a.568.568 0 0 1 .815.01c.212.227.19.588-.03.807l-2.725 2.72v1.015a8.28 8.28 0 0 1 4.782-.688c.228-2.9-1.093-5.718-2.4-7.74a.568.568 0 1 1 .952-.615c1.43 2.215 2.876 5.338 2.564 8.602a8.368 8.368 0 0 1 3.615 2.187c.105-.005.208-.007.31-.007 4.596 0 8.335 3.733 8.335 8.324zm-23.968-2.854l-1.733-1.732H7.262a.567.567 0 0 1 0-1.132h3.903L8.67 15.366H4.79a.565.565 0 1 1 0-1.131h2.745L5.371 12.07a.564.564 0 0 1 0-.8.568.568 0 0 1 .802 0l2.164 2.164v-2.741a.567.567 0 1 1 1.134 0v3.873l2.496 2.49v-3.896a.568.568 0 0 1 1.134 0v5.03l1.733 1.73c.631-3.473.074-6.295-1.661-8.396-1.111-1.345-3.346-3.127-7.687-3.97a24.4 24.4 0 0 0-4.269-.432c.008.807.074 2.436.437 4.29.467 2.383 1.536 5.65 3.973 7.653 2.104 1.732 4.928 2.286 8.405 1.657zm-1.666 2.915a8.346 8.346 0 0 1 1.256-1.702c-.775.114-1.522.17-2.237.17-1.718 0-3.261-.33-4.622-.98-2.855 2.215-4.727 5.532-5.359 6.763 1.462.71 6.012 2.689 10.238 2.083a8.294 8.294 0 0 1-.323-2.298c0-.92.15-1.806.428-2.636l-1.444.482-1.763 3.525a.568.568 0 0 1-1.014-.507l1.256-2.512-4.007 1.336a.568.568 0 0 1-.359-1.074l3.916-1.305-2.394-1.196a.563.563 0 0 1-.254-.758.568.568 0 0 1 .76-.253l3.41 1.7zm7.288-3.157c-3.97 0-7.201 3.228-7.201 7.193 0 3.968 3.23 7.191 7.201 7.191 3.971 0 7.202-3.224 7.202-7.19s-3.23-7.194-7.202-7.194zm8.225-5.037a7.225 7.225 0 0 0-4.507-1.582 7.208 7.208 0 0 0-7.136 6.22 8.312 8.312 0 0 1 3.418-.732c.907 0 1.78.146 2.599.415a8.297 8.297 0 0 1 5.626-4.321zm-3.43 12.558a2.627 2.627 0 0 1-5.255 0 2.627 2.627 0 0 1 5.254 0zm-1.135 0a1.493 1.493 0 0 0-2.986 0 1.493 1.493 0 0 0 2.986 0zm9.18-8.723c0 1.023-1.281 1.796-2.98 1.796-1.7 0-2.98-.773-2.98-1.796 0-1.025 1.28-1.798 2.98-1.798 1.699 0 2.98.773 2.98 1.798zm-1.134 0c0-.068-.106-.219-.398-.368-.372-.19-.9-.298-1.448-.298-.55 0-1.077.108-1.449.298-.292.15-.398.3-.398.368 0 .063.106.217.398.365.372.19.9.299 1.449.299.548 0 1.076-.11 1.448-.299.292-.148.398-.302.398-.365z"/></g></g></svg>