<svg width="28" height="28" viewBox="0 0 28 28" fill="none" xmlns="http://www.w3.org/2000/svg">
<g clip-path="url(#clip0)">
<path d="M26.4546 28.0001C27.308 28.0001 28 27.3082 28 26.4548V1.54536C28 0.691797 27.308 0 26.4546 0H1.54536C0.691687 0 0 0.691797 0 1.54536V26.4548C0 27.3082 0.691687 28.0001 1.54536 28.0001H26.4546Z" fill="#395185"/>
<path d="M19.3195 28.0001V17.157H22.9591L23.504 12.9313H19.3195V10.2332C19.3195 9.00976 19.6593 8.176 21.4138 8.176L23.6515 8.17501V4.39556C23.2643 4.34404 21.936 4.22898 20.3908 4.22898C17.1644 4.22898 14.9557 6.19828 14.9557 9.81487V12.9313H11.3068V17.157H14.9557V28.0001H19.3195Z" fill="white"/>
</g>
<defs>
<clipPath id="clip0">
<rect width="28" height="28" rx="3" fill="white"/>
</clipPath>
</defs>
</svg>
