<svg width="28" height="28" viewBox="0 0 28 28" fill="none" xmlns="http://www.w3.org/2000/svg">
<g clip-path="url(#clip0)">
<path d="M23.8563 23.8571H19.7076V17.3599C19.7076 15.8106 19.68 13.8161 17.5499 13.8161C15.3891 13.8161 15.0584 15.5042 15.0584 17.2471V23.8566H10.9098V10.4958H14.8925V12.3217H14.9483C15.3469 11.6402 15.9228 11.0796 16.6148 10.6995C17.3068 10.3194 18.089 10.1342 18.8779 10.1634C23.0828 10.1634 23.8581 12.9293 23.8581 16.5275L23.8563 23.8571ZM6.22859 8.66959C4.89891 8.66981 3.8208 7.59203 3.82059 6.26236C3.82037 4.93269 4.89804 3.85458 6.22771 3.85436C7.55738 3.85403 8.63549 4.93181 8.63571 6.26148C8.63583 6.90002 8.38229 7.51245 7.93087 7.96405C7.47945 8.41566 6.86712 8.66945 6.22859 8.66959ZM8.30299 23.8572H4.14991V10.4958H8.30288V23.8571L8.30299 23.8572ZM25.9246 0.00140462H2.06523C0.93757 -0.0112829 0.0128047 0.892045 -0.000976562 2.0197V25.9786C0.0123672 27.1068 0.937023 28.011 2.06512 27.9992H25.9246C27.0551 28.0132 27.9834 27.109 27.999 25.9786V2.01784C27.9829 0.887998 27.0546 -0.0152204 25.9246 -0.000454752" fill="#0A66C2"/>
</g>
<defs>
<clipPath id="clip0">
<rect width="28" height="28" fill="white"/>
</clipPath>
</defs>
</svg>
