<svg width="26" height="26" viewBox="0 0 26 26" fill="none" xmlns="http://www.w3.org/2000/svg">
<path d="M13 0C5.82029 0 0 5.82029 0 13C0 20.1797 5.82029 26 13 26C20.1797 26 26 20.1797 26 13C26 5.82029 20.1797 0 13 0ZM13 4.40368C16.579 4.40368 19.481 7.30565 19.481 10.8846C19.481 11.9688 19.1839 13.3999 18.5732 14.2092L13 21.5963L7.42675 14.2092C6.75445 13.3182 6.51902 12.0816 6.51902 10.8847C6.51904 7.30565 9.42099 4.40368 13 4.40368ZM13 8.15832C11.4941 8.15832 10.2737 9.37874 10.2737 10.8846C10.2737 12.3905 11.4941 13.611 13 13.611C14.5059 13.611 15.7263 12.3905 15.7263 10.8846C15.7263 9.37874 14.5059 8.15832 13 8.15832Z" fill="#114AA1"/>
</svg>
