<svg width="24" height="19" viewBox="0 0 24 19" fill="none" xmlns="http://www.w3.org/2000/svg">
<path fill-rule="evenodd" clip-rule="evenodd" d="M0 2.2867C0 1.88875 0.180612 1.5071 0.502103 1.2257C0.823593 0.94431 1.25963 0.786224 1.71429 0.786224H22.2857C22.7404 0.786224 23.1764 0.94431 23.4979 1.2257C23.8194 1.5071 24 1.88875 24 2.2867C24 2.68465 23.8194 3.0663 23.4979 3.34769C23.1764 3.62909 22.7404 3.78717 22.2857 3.78717H1.71429C1.25963 3.78717 0.823593 3.62909 0.502103 3.34769C0.180612 3.0663 0 2.68465 0 2.2867Z" fill="white"/>
<path fill-rule="evenodd" clip-rule="evenodd" d="M0 9.78623C0 9.38828 0.180612 9.00663 0.502103 8.72524C0.823593 8.44385 1.25963 8.28577 1.71429 8.28577H22.2857C22.7404 8.28577 23.1764 8.44385 23.4979 8.72524C23.8194 9.00663 24 9.38828 24 9.78623C24 10.1842 23.8194 10.5658 23.4979 10.8472C23.1764 11.1286 22.7404 11.2867 22.2857 11.2867H1.71429C1.25963 11.2867 0.823593 11.1286 0.502103 10.8472C0.180612 10.5658 0 10.1842 0 9.78623Z" fill="white"/>
<path fill-rule="evenodd" clip-rule="evenodd" d="M0 17.2858C0 16.8878 0.180612 16.5062 0.502103 16.2248C0.823594 15.9434 1.25963 15.7853 1.71429 15.7853H12C12.4547 15.7853 12.8907 15.9434 13.2122 16.2248C13.5337 16.5062 13.7143 16.8878 13.7143 17.2858C13.7143 17.6837 13.5337 18.0654 13.2122 18.3467C12.8907 18.6281 12.4547 18.7862 12 18.7862H1.71429C1.25963 18.7862 0.823594 18.6281 0.502103 18.3467C0.180612 18.0654 0 17.6837 0 17.2858Z" fill="white"/>
</svg>
