<svg width="28" height="28" viewBox="0 0 28 28" fill="none" xmlns="http://www.w3.org/2000/svg">
<path d="M26.88 0H1.12C0.5005 0 0 0.5005 0 1.12V26.88C0 27.4995 0.5005 28 1.12 28H26.88C27.4995 28 28 27.4995 28 26.88V1.12C28 0.5005 27.4995 0 26.88 0ZM21.5355 10.1395C21.546 10.304 21.546 10.4755 21.546 10.6435C21.546 15.7815 17.633 21.7 10.4825 21.7C8.2775 21.7 6.2335 21.0595 4.5115 19.957C4.8265 19.992 5.1275 20.006 5.4495 20.006C7.2695 20.006 8.9425 19.39 10.276 18.347C8.568 18.312 7.133 17.192 6.643 15.652C7.2415 15.7395 7.7805 15.7395 8.3965 15.582C7.51704 15.4033 6.72656 14.9257 6.15936 14.2302C5.59215 13.5348 5.2832 12.6644 5.285 11.767V11.718C5.7995 12.0085 6.405 12.187 7.0385 12.2115C6.50595 11.8566 6.0692 11.3757 5.76699 10.8116C5.46478 10.2475 5.30643 9.61748 5.306 8.9775C5.306 8.253 5.495 7.5915 5.8345 7.0175C6.81066 8.21918 8.02876 9.202 9.40963 9.90208C10.7905 10.6022 12.3032 11.0038 13.8495 11.081C13.3 8.4385 15.274 6.3 17.647 6.3C18.767 6.3 19.775 6.769 20.4855 7.525C21.364 7.3605 22.204 7.0315 22.953 6.5905C22.6625 7.49 22.0535 8.2495 21.245 8.729C22.029 8.645 22.785 8.428 23.485 8.1235C22.9565 8.9005 22.295 9.59 21.5355 10.1395Z" fill="#55ACEE"/>
</svg>
