<svg width="90" height="90" viewBox="0 0 90 90" fill="none" xmlns="http://www.w3.org/2000/svg">
<circle cx="45" cy="45" r="45" fill="white"/>
<path d="M26.7547 30.5356C24.9297 30.5356 23.1225 30.8951 21.4363 31.5935C19.7502 32.292 18.2181 33.3156 16.9276 34.6062C15.6371 35.8967 14.6134 37.4287 13.915 39.1149C13.2166 40.801 12.8571 42.6082 12.8571 44.4333C12.8571 46.2583 13.2166 48.0655 13.915 49.7516C14.6134 51.4378 15.6371 52.9698 16.9276 54.2603C18.2181 55.5509 19.7502 56.5746 21.4363 57.273C23.1225 57.9714 24.9297 58.3309 26.7547 58.3309H30.891V62.464C30.891 66.1498 32.3552 69.6848 34.9615 72.2911C37.5679 74.8974 41.1028 76.3616 44.7886 76.3616C48.4745 76.3616 52.0094 74.8974 54.6157 72.2911C57.222 69.6848 58.6863 66.1498 58.6863 62.464V58.3309H50.3624V62.464C50.3624 63.9388 49.7765 65.3533 48.7336 66.3962C47.6908 67.439 46.2763 68.0249 44.8014 68.0249C43.3266 68.0249 41.9121 67.439 40.8693 66.3962C39.8264 65.3533 39.2405 63.9388 39.2405 62.464V58.3309H35.8917C35.2348 58.3309 34.5842 58.2014 33.9773 57.9499C33.3704 57.6984 32.819 57.3298 32.3546 56.8651C31.8902 56.4004 31.5219 55.8487 31.2708 55.2416C31.0196 54.6345 30.8906 53.9839 30.891 53.327V49.9942H26.7547C25.2799 49.9942 23.8654 49.4083 22.8225 48.3654C21.7796 47.3226 21.1938 45.9081 21.1938 44.4333C21.1938 42.9584 21.7796 41.5439 22.8225 40.5011C23.8654 39.4582 25.2799 38.8723 26.7547 38.8723H30.891V30.5484L26.7547 30.5356Z" fill="#ABD5F2"/>
<path d="M26.7547 38.8723C25.2799 38.8723 23.8654 39.4582 22.8225 40.5011C21.7796 41.5439 21.1938 42.9584 21.1938 44.4333C21.1938 45.9081 21.7796 47.3226 22.8225 48.3654C23.8654 49.4083 25.2799 49.9942 26.7547 49.9942H30.891V38.8723H26.7547Z" fill="#ABD5F2"/>
<path d="M39.2277 58.3308V62.4639C39.2277 63.9388 39.8136 65.3532 40.8565 66.3961C41.8993 67.439 43.3138 68.0249 44.7887 68.0249C46.2635 68.0249 47.678 67.439 48.7208 66.3961C49.7637 65.3532 50.3496 63.9388 50.3496 62.4639V58.3308H39.2277Z" fill="#ABD5F2"/>
<path d="M30.8911 53.6824C30.8906 54.3394 31.0197 54.99 31.2708 55.5971C31.5219 56.2042 31.8902 56.7558 32.3546 57.2205C32.819 57.6852 33.3704 58.0538 33.9773 58.3054C34.5843 58.5569 35.2348 58.6863 35.8918 58.6863H62.8194C64.6444 58.6863 66.4516 58.3268 68.1378 57.6284C69.8239 56.93 71.356 55.9063 72.6465 54.6158C73.937 53.3253 74.9607 51.7932 75.6591 50.1071C76.3575 48.421 76.717 46.6138 76.717 44.7887C76.717 42.9636 76.3575 41.1565 75.6591 39.4703C74.9607 37.7842 73.937 36.2521 72.6465 34.9616C71.356 33.6711 69.8239 32.6474 68.1378 31.949C66.4516 31.2506 64.6444 30.8911 62.8194 30.8911H58.6863V26.7548C58.6863 23.0689 57.2221 19.534 54.6158 16.9277C52.0095 14.3214 48.4745 12.8572 44.7887 12.8572C41.1028 12.8572 37.5679 14.3214 34.9616 16.9277C32.3553 19.534 30.8911 23.0689 30.8911 26.7548V53.6824ZM39.2149 50.3497V26.7548C39.2149 25.2799 39.8008 23.8655 40.8437 22.8226C41.8865 21.7797 43.301 21.1938 44.7759 21.1938C46.2507 21.1938 47.6652 21.7797 48.7081 22.8226C49.7509 23.8655 50.3368 25.2799 50.3368 26.7548V36.4489C50.3364 36.8139 50.408 37.1754 50.5475 37.5128C50.687 37.8501 50.8917 38.1566 51.1498 38.4148C51.4079 38.6729 51.7144 38.8776 52.0518 39.0171C52.3891 39.1566 52.7507 39.2282 53.1157 39.2277H62.8066C64.2814 39.2277 65.6959 39.8136 66.7388 40.8565C67.7817 41.8994 68.3675 43.3138 68.3675 44.7887C68.3675 46.2636 67.7817 47.678 66.7388 48.7209C65.6959 49.7638 64.2814 50.3497 62.8066 50.3497H39.2149Z" fill="#FF3C3C"/>
<path d="M39.2277 26.7548V50.3497H62.8194C64.2943 50.3497 65.7087 49.7638 66.7516 48.7209C67.7945 47.678 68.3804 46.2636 68.3804 44.7887C68.3804 43.3139 67.7945 41.8994 66.7516 40.8565C65.7087 39.8136 64.2943 39.2278 62.8194 39.2278H53.1285C52.7635 39.2282 52.4019 39.1566 52.0646 39.0171C51.7273 38.8776 51.4207 38.6729 51.1626 38.4148C50.9045 38.1567 50.6998 37.8501 50.5603 37.5128C50.4208 37.1755 50.3492 36.8139 50.3496 36.4489V26.7548C50.3496 25.2799 49.7638 23.8655 48.7209 22.8226C47.678 21.7797 46.2635 21.1938 44.7887 21.1938C43.3138 21.1938 41.8994 21.7797 40.8565 22.8226C39.8136 23.8655 39.2277 25.2799 39.2277 26.7548Z" fill="#FF3C3C"/>
</svg>
