<?xml version="1.0" encoding="utf-8"?>
<!-- Generator: Adobe Illustrator 16.0.0, SVG Export Plug-In . SVG Version: 6.00 Build 0)  -->
<!DOCTYPE svg PUBLIC "-//W3C//DTD SVG 1.1//EN" "http://www.w3.org/Graphics/SVG/1.1/DTD/svg11.dtd">
<svg version="1.1" id="Calque_1" xmlns="http://www.w3.org/2000/svg" xmlns:xlink="http://www.w3.org/1999/xlink" x="0px" y="0px"
	 width="32px" height="32px" viewBox="0 0 32 32" enable-background="new 0 0 32 32" xml:space="preserve">
<path fill="#FFFFFF" d="M26.263,14H18V5.887C18,4.845,17.041,4,16,4c-1.042,0-2,0.845-2,1.887V14H6.137
	c-1.042,0-1.887,0.958-1.887,2c0,1.041,0.845,2,1.887,2H14v8.013c0,1.042,0.958,1.888,2,1.888c1.041,0,2-0.846,2-1.888V18h8.263
	c1.042,0,1.888-0.959,1.888-2C28.15,14.958,27.305,14,26.263,14z"/>
</svg>
