<?xml version="1.0" standalone="no"?>
<!DOCTYPE svg>
<svg version="1.0" xmlns="http://www.w3.org/2000/svg"
 width="100pt" height="20pt" viewBox="0 0 1279.000000 253.000000"
 preserveAspectRatio="xMidYMid meet">
<metadata>
Created by potrace 1.16, written by Peter Selinger 2001-2019
</metadata>
<g transform="translate(0.000000,253.000000) scale(0.100000,-0.100000)"
fill="#000000" stroke="none">
<path d="M1130 2378 c-19 -5 -46 -19 -59 -31 -13 -12 -88 -152 -168 -312 -80
-159 -146 -291 -147 -292 -1 -2 -146 -23 -322 -49 -352 -51 -386 -62 -418
-128 -22 -46 -21 -133 2 -167 9 -15 120 -127 246 -250 l229 -224 -53 -309
c-34 -199 -51 -325 -48 -356 9 -89 72 -144 163 -143 45 0 80 16 337 152 158
83 290 151 293 151 4 0 136 -68 293 -151 263 -139 291 -152 339 -152 98 0 163
64 163 160 0 29 -23 187 -51 351 l-52 297 241 235 c208 203 242 241 251 277
22 80 -16 165 -86 196 -21 9 -178 37 -352 62 -173 25 -316 46 -317 48 -1 1
-67 133 -147 292 -79 160 -154 298 -165 308 -24 22 -88 46 -117 46 -11 -1 -36
-5 -55 -11z"/>
<path d="M3745 2381 c-70 -17 -81 -33 -230 -332 -79 -159 -145 -292 -147 -298
-1 -5 -147 -31 -323 -56 -200 -30 -333 -53 -355 -64 -68 -34 -103 -118 -81
-194 10 -35 50 -79 252 -277 l240 -235 -56 -323 c-48 -282 -54 -328 -44 -364
22 -85 116 -140 198 -118 21 5 146 67 277 136 131 69 256 135 279 146 l40 20
289 -153 c266 -140 293 -152 341 -152 92 0 165 69 165 155 0 18 -23 172 -51
343 l-52 310 199 198 c110 108 210 204 222 213 68 47 94 169 49 235 -45 67
-60 71 -378 117 -162 24 -309 46 -327 49 -33 5 -37 12 -173 291 -77 157 -147
294 -157 305 -37 41 -118 63 -177 48z"/>
<path d="M6351 2380 c-67 -16 -81 -37 -233 -342 -143 -288 -147 -296 -180
-301 -18 -4 -159 -25 -313 -47 -154 -22 -294 -45 -311 -50 -83 -28 -127 -135
-90 -223 7 -19 112 -129 249 -262 l235 -230 -55 -322 c-38 -222 -53 -333 -49
-358 16 -84 122 -150 205 -126 27 8 380 189 553 284 l36 20 281 -147 c154 -81
295 -152 313 -157 54 -15 121 6 162 51 19 21 38 55 42 74 4 25 -12 141 -49
359 l-55 322 235 230 c137 133 242 243 249 262 37 88 -7 195 -90 223 -17 5
-170 30 -340 55 -170 25 -312 48 -315 51 -3 3 -73 139 -156 302 -162 321 -165
324 -250 335 -22 3 -55 2 -74 -3z"/>
<path d="M8947 2376 c-21 -8 -48 -22 -59 -33 -11 -10 -86 -148 -165 -308 -80
-159 -146 -291 -147 -292 -2 -2 -148 -24 -326 -50 -350 -51 -362 -55 -407
-122 -31 -46 -31 -123 0 -171 12 -19 123 -134 247 -255 l225 -220 -52 -300
c-29 -165 -52 -319 -52 -343 -2 -95 68 -165 164 -165 48 0 74 12 340 152 239
126 292 151 309 143 12 -5 138 -71 281 -146 143 -75 276 -141 295 -146 69 -18
146 15 185 81 28 48 24 93 -35 429 l-51 295 240 235 c203 198 242 241 252 277
22 76 -13 159 -81 194 -23 12 -146 34 -354 63 -176 25 -321 47 -322 49 -2 2
-66 131 -143 288 -86 176 -149 294 -167 311 -27 24 -89 48 -124 48 -8 -1 -32
-7 -53 -14z"/>
<path d="M11560 2378 c-19 -5 -48 -22 -63 -36 -18 -16 -84 -140 -168 -311 -77
-157 -140 -286 -142 -287 -2 -2 -145 -24 -318 -49 -173 -25 -331 -53 -352 -62
-70 -30 -108 -116 -86 -196 9 -36 44 -74 251 -277 l241 -235 -52 -297 c-28
-164 -51 -322 -51 -351 0 -96 65 -160 163 -160 48 0 76 13 339 152 157 83 289
151 293 151 3 0 135 -68 293 -151 257 -136 292 -152 337 -152 91 -1 154 54
163 143 3 31 -14 157 -48 356 l-53 308 242 237 241 237 0 85 c0 81 -1 87 -29
115 -16 16 -42 34 -58 40 -15 7 -169 32 -342 57 -173 25 -316 46 -317 48 -1 1
-67 133 -147 292 -79 160 -154 298 -165 308 -24 22 -88 46 -117 46 -11 -1 -36
-5 -55 -11z"/>
</g>
</svg>
