<?xml version="1.0" encoding="utf-8"?>
<!-- Generator: Adobe Illustrator 19.2.1, SVG Export Plug-In . SVG Version: 6.00 Build 0)  -->
<svg version="1.2" baseProfile="tiny" id="Layer_1" xmlns="http://www.w3.org/2000/svg" xmlns:xlink="http://www.w3.org/1999/xlink"
	 x="0px" y="0px" viewBox="0 0 600 600" xml:space="preserve">
<g>
	<rect x="3" y="3" width="194" height="194"/>
	<path d="M194,6v188H6V6H194 M200,0H0v200h200V0L200,0z"/>
</g>
<g>
	<rect x="3" y="203" fill="#FFFFFF" width="194" height="194"/>
	<path d="M194,206v188H6V206H194 M200,200H0v200h200V200L200,200z"/>
</g>
<g>
	<rect x="3" y="403" width="194" height="194"/>
	<path d="M194,406v188H6V406H194 M200,400H0v200h200V400L200,400z"/>
</g>
<g>
	<rect x="203.3" y="3" fill="#FFFFFF" width="194" height="194"/>
	<path d="M394.3,6v188h-188V6H394.3 M400.3,0h-200v200h200V0L400.3,0z"/>
</g>
<g>
	<rect x="203.3" y="203" fill="#FFFFFF" width="194" height="194"/>
	<path d="M394.3,206v188h-188V206H394.3 M400.3,200h-200v200h200V200L400.3,200z"/>
</g>
<g>
	<rect x="203.3" y="403" fill="#FFFFFF" width="194" height="194"/>
	<path d="M394.3,406v188h-188V406H394.3 M400.3,400h-200v200h200V400L400.3,400z"/>
</g>
<g>
	<rect x="403" y="3" width="194" height="194"/>
	<path d="M594,6v188H406V6H594 M600,0H400v200h200V0L600,0z"/>
</g>
<g>
	<rect x="403" y="203" fill="#FFFFFF" width="194" height="194"/>
	<path d="M594,206v188H406V206H594 M600,200H400v200h200V200L600,200z"/>
</g>
<g>
	<rect x="403" y="403" width="194" height="194"/>
	<path d="M594,406v188H406V406H594 M600,400H400v200h200V400L600,400z"/>
</g>
</svg>
