<svg id="Livello_1" data-name="Livello 1" xmlns="http://www.w3.org/2000/svg" viewBox="0 0 413.6 93.41"><defs><style>.cls-1{fill:#414042;}.cls-2{fill:#cb858d;}</style></defs><title>IMPULSE_Logo_Negativo</title><path class="cls-1" d="M427.53,435.7c0,6.63,2.24,8.31,7,8.31v.28s-8.22-.28-17.93-.28-17.93.28-17.93.28V444c4.76,0,7-4.39,7-11.68V387.51c0-6.63-2.24-8.31-7-8.31v-.28s8.22.28,17.93.28,17.93-.28,17.93-.28v.28c-4.76,0-7,4.39-7,11.68Z" transform="translate(-398.67 -374.24)"/><path class="cls-1" d="M464.15,440.47c0,2.8,1.59,3.55,3.64,3.55v.28s-4.48-.28-13.92-.28-15.79.28-15.79.28V444c3.64,0,5.32-2.52,5.32-6.54V407.4c0-3.64-1.87-5-5.23-5l-.09-.28a80.7,80.7,0,0,0,26.06-4.58v7.29c6.44-1.87,10.46-7.29,17.75-7.29,6,0,9.81,3.27,11.21,7.85,6.54-2.15,9.81-7.85,18.4-7.85,7.38,0,11.77,4.58,11.77,13.17v28.3c0,4.2,1.49,5,5.14,5v.28s-6.26-.28-15.51-.28c-8.59,0-13.92.28-13.92.28V444c2.62,0,3.55-1.21,3.55-4.39V407.87c0-2.71-1.12-4.11-3.46-4.11-1.78,0-3.92,1.4-5.89,1.87a16.09,16.09,0,0,1,.47,4.3v30.54c0,2.8,1.59,3.55,3.55,3.55v.28s-4.58-.28-13.82-.28-13.92.28-13.92.28V444c2.52,0,3.46-1.21,3.46-4.39V407.87c0-2.71-1.49-4.11-3.36-4.11s-3,.75-5.42,1.4Z" transform="translate(-398.67 -374.24)"/><path class="cls-1" d="M555.59,460.74c0,4.11,1.68,6.63,5.32,6.63v.28H529.53v-.28c3.74,0,5.42-2.52,5.42-6.63V407.31c0-3.64-1.59-4.86-5.33-4.86l-.09-.28a72.82,72.82,0,0,0,25.31-4.58l.75,7.29c4.48-2.24,8.13-7.29,15.32-7.29,10.37,0,17.28,9.34,17.28,21.11,0,15.78-11.12,27.46-29,27.46a20.25,20.25,0,0,1-3.55-.28Zm0-24.57c0,6.45,2,9.62,4.76,9.62,3.36,0,5.88-6.26,6-23.16,0-15.51-3.36-19.43-5.79-19.43-1.68,0-2.62,1-5,2Z" transform="translate(-398.67 -374.24)"/><path class="cls-1" d="M596.31,404.69c0-4.3-1.4-4.95-5-4.95v-.28l25.41-.84.38.47V435.7c0,2.89,1.49,4.3,3.36,4.3,1.68,0,3-.75,5.51-1.4V403.29c0-2.8-1.59-3.55-3.55-3.55v-.28l23.91-.84.37.47v37.27c0,3.64,1.87,5,5.23,5l.09.28a71.74,71.74,0,0,0-25.13,4.58l-.93-7.29c-6.63,2-10.55,7.29-17.84,7.29-7.47,0-11.77-4.58-11.77-13.17Z" transform="translate(-398.67 -374.24)"/><path class="cls-1" d="M684.58,444.3s-7.1-.28-13.92-.28c-9.34,0-15.79.28-15.79.28V444c3.64,0,5.32-2.52,5.32-6.54V384.14c0-3.64-1.87-4.95-5.23-4.95l-.09-.28a79.34,79.34,0,0,0,26.06-4.67v66.23c0,2.8,1.59,3.55,3.64,3.55Z" transform="translate(-398.67 -374.24)"/><path class="cls-1" d="M729.23,413.94h-.28c-1-7.28-6.63-16-15.6-16-2.8,0-5,1.68-5,4.67,0,10.37,25,11.49,25,27.46,0,9.81-8,16.07-23,16.07-6.54,0-7.38-2.06-18.78-2.06l-.84-16.72h.28c1.77,9.25,9.34,18.4,18.21,18.4,3.74,0,5.79-2.43,5.79-5.32,0-10.74-24.47-12.42-24.47-27.83,0-9.62,8.68-15,21.67-15,6.54,0,10,2.15,17.47,2.15Z" transform="translate(-398.67 -374.24)"/><path class="cls-1" d="M772.76,441.4a22.74,22.74,0,0,0,13-4.3l.19.19c-4.67,5.51-11.86,8.88-21.67,8.88-17.47,0-26.72-9.25-26.72-23.17s12.52-25.41,28.86-25.41c12.7,0,21.86,5.89,22.51,18.59l-.65.75H759.49c-.09,1.4-.09,2.8-.09,4,0,11.21,3.92,20.46,13.36,20.46M770,416.18a52.12,52.12,0,0,0,.37-6.45c0-7.19-2.05-11.77-4.86-11.77-3.08,0-5.33,6.82-6.07,18.68Z" transform="translate(-398.67 -374.24)"/><path class="cls-2" d="M792.18,436.26c0-5.51,3.36-9.9,10-9.9s10.09,4.39,10.09,9.9-3.46,9.81-10.09,9.81-10-4.2-10-9.81" transform="translate(-398.67 -374.24)"/></svg>