<?xml version="1.0" encoding="UTF-8"?>
<svg width="32px" height="32px" viewBox="0 0 32 32" version="1.1" xmlns="http://www.w3.org/2000/svg" xmlns:xlink="http://www.w3.org/1999/xlink">

    <g id="Page-1" stroke="none" stroke-width="1" fill="none" fill-rule="evenodd">
        <g id="search" fill="#E09EAA" fill-rule="nonzero">
            <g id="zoom-2" transform="translate(16.000000, 16.000000) rotate(90.000000) translate(-16.000000, -16.000000) ">
                <path d="M31.414,28.586 L23.483,20.655 C25.058,18.505 26,15.864 26,13 C26,5.832 20.168,0 13,0 C5.832,0 0,5.832 0,13 C0,20.168 5.832,26 13,26 C15.863,26 18.505,25.058 20.655,23.483 L28.586,31.414 L31.414,28.586 Z M2,13 C2,6.935 6.935,2 13,2 C19.065,2 24,6.935 24,13 C24,19.065 19.065,24 13,24 C6.935,24 2,19.065 2,13 Z" id="Shape"></path>
            </g>
        </g>
    </g>
</svg>