<?xml version="1.0" encoding="UTF-8"?>
<svg width="32px" height="32px" viewBox="0 0 32 32" version="1.1" xmlns="http://www.w3.org/2000/svg" xmlns:xlink="http://www.w3.org/1999/xlink">
    <!-- Generator: Sketch Beta 50.1 (55040) - http://www.bohemiancoding.com/sketch -->
    <title>Shape</title>
    <desc>Created with Sketch Beta.</desc>
    <defs></defs>
    <g id="Symbols" stroke="none" stroke-width="1" fill="none" fill-rule="evenodd">
        <g id="Header" transform="translate(-1402.000000, -128.000000)" fill="#FFFFFF" fill-rule="nonzero">
            <g id="Group-5" transform="translate(0.000000, 15.000000)">
                <g id="zoom-2" transform="translate(1418.000000, 129.000000) rotate(-270.000000) translate(-1418.000000, -129.000000) translate(1402.000000, 113.000000)">
                    <path d="M31.414,28.586 L23.483,20.655 C25.058,18.505 26,15.864 26,13 C26,5.832 20.168,0 13,0 C5.832,0 0,5.832 0,13 C0,20.168 5.832,26 13,26 C15.863,26 18.505,25.058 20.655,23.483 L28.586,31.414 L31.414,28.586 Z M2,13 C2,6.935 6.935,2 13,2 C19.065,2 24,6.935 24,13 C24,19.065 19.065,24 13,24 C6.935,24 2,19.065 2,13 Z" id="Shape"></path>
                </g>
            </g>
        </g>
    </g>
</svg>