<?xml version="1.0" encoding="utf-8"?>
<!-- Generator: Adobe Illustrator 23.1.0, SVG Export Plug-In . SVG Version: 6.00 Build 0)  -->
<svg version="1.1" id="Слой_1" xmlns="http://www.w3.org/2000/svg" xmlns:xlink="http://www.w3.org/1999/xlink" x="0px" y="0px"
	 viewBox="0 0 2220 268" style="enable-background:new 0 0 2220 268;" xml:space="preserve">
<style type="text/css">
	<!-- .st0{fill:#6C95EE;}
	.st1{fill:#6C95EE;fill-opacity:0.3;} -->
		.st0{fill:#334A95;}
	.st1{fill:#334A95;fill-opacity:0.3;}
</style>
<g>
	<path class="st0" d="M0,256.1V268h1110V0L0,256.1z"/>
	<path class="st1" d="M0,44.8V268h1110v-55.4L0,44.8z"/>
	<path class="st1" d="M1110,100.7V268H0V162.9L1110,100.7z"/>
	<path class="st0" d="M1110,0.5v268h1110v-11.9L1110,0.5z"/>
	<path class="st1" d="M1110,213.1v55.4h1110V45.3L1110,213.1z"/>
	<path class="st1" d="M2220,163.4v105.1H1110V101.2L2220,163.4z"/>
</g>
<rect x="1105.4" y="2.2" transform="matrix(-1 -1.224647e-16 1.224647e-16 -1 2216.96 269.84)" class="st0" width="6.2" height="265.4"/>
<rect x="1145.6" y="-28" transform="matrix(0.2355 -0.9719 0.9719 0.2355 865.9256 1126.1353)" class="st0" width="6.3" height="81.3"/>
</svg>
