<?xml version="1.0" encoding="utf-8"?>
<!-- Generator: Adobe Illustrator 23.1.0, SVG Export Plug-In . SVG Version: 6.00 Build 0)  -->
<svg version="1.1" id="Слой_1" xmlns="http://www.w3.org/2000/svg" xmlns:xlink="http://www.w3.org/1999/xlink" x="0px" y="0px"
	 viewBox="0 0 2220 377" style="enable-background:new 0 0 2220 377;" xml:space="preserve">
<style type="text/css">
	.st0{fill:url(#SVGID_1_);}
	.st1{fill:url(#SVGID_2_);}
	.st2{fill:url(#SVGID_3_);}
	.st3{fill:url(#SVGID_4_);fill-opacity:0.3;}
	.st4{fill:url(#SVGID_5_);fill-opacity:0.3;}
	.st5{fill:url(#SVGID_6_);}
	.st6{fill:url(#SVGID_7_);}
	.st7{fill:url(#SVGID_8_);}
	.st8{fill:url(#SVGID_9_);}
	.st9{fill:url(#SVGID_10_);}
	.st10{fill:url(#SVGID_11_);fill-opacity:0.3;}
	.st11{fill:url(#SVGID_12_);fill-opacity:0.3;}
</style>
<g>
	
		<linearGradient id="SVGID_1_" gradientUnits="userSpaceOnUse" x1="555.54" y1="0.82" x2="555.54" y2="377.82" gradientTransform="matrix(1 0 0 -1 0 378)">
		<stop  offset="0" style="stop-color:#000000"/>
		<stop  offset="1" style="stop-color:#30397E"/>
	</linearGradient>
	<path class="st0" d="M0.5,0.2v377l1110-206V0.2H0.5z"/>
	
		<linearGradient id="SVGID_2_" gradientUnits="userSpaceOnUse" x1="555.54" y1="0.82" x2="555.54" y2="377.82" gradientTransform="matrix(1 0 0 -1 0 378)">
		<stop  offset="0" style="stop-color:#000000"/>
		<stop  offset="1" style="stop-color:#30397E"/>
	</linearGradient>
	<path class="st1" d="M0.5,0.2v377l1110-206V0.2H0.5z"/>
	
		<linearGradient id="SVGID_3_" gradientUnits="userSpaceOnUse" x1="555.54" y1="0.82" x2="555.54" y2="377.82" gradientTransform="matrix(1 0 0 -1 0 378)">
		<stop  offset="0" style="stop-color:#000000"/>
		<stop  offset="1" style="stop-color:#30397E"/>
	</linearGradient>
	<path class="st2" d="M0.5,0.2v377l1110-206V0.2H0.5z"/>
	
		<linearGradient id="SVGID_4_" gradientUnits="userSpaceOnUse" x1="555.6615" y1="0.4633" x2="555.6615" y2="377.4622" gradientTransform="matrix(1 0 0 -1 0 378)">
		<stop  offset="0" style="stop-color:#000000"/>
		<stop  offset="1" style="stop-color:#30397E"/>
	</linearGradient>
	<path class="st3" d="M0.7,0.5v201l1110,132V0.5H0.7z"/>
	
		<linearGradient id="SVGID_5_" gradientUnits="userSpaceOnUse" x1="555.5025" y1="1.451" x2="555.5025" y2="378.45" gradientTransform="matrix(1 0 0 -1 0 378)">
		<stop  offset="0" style="stop-color:#000000"/>
		<stop  offset="1" style="stop-color:#30397E"/>
	</linearGradient>
	<path class="st4" d="M1110.5-0.4v246l-1110,47v-293H1110.5z"/>
	
		<linearGradient id="SVGID_6_" gradientUnits="userSpaceOnUse" x1="1665.54" y1="0.82" x2="1665.54" y2="377.82" gradientTransform="matrix(1 0 0 -1 0 378)">
		<stop  offset="0" style="stop-color:#000000"/>
		<stop  offset="1" style="stop-color:#30397E"/>
	</linearGradient>
	<path class="st5" d="M1110.5,0.2v171l1110,206V0.2H1110.5z"/>
	
		<linearGradient id="SVGID_7_" gradientUnits="userSpaceOnUse" x1="1665.54" y1="0.82" x2="1665.54" y2="377.82" gradientTransform="matrix(1 0 0 -1 0 378)">
		<stop  offset="0" style="stop-color:#000000"/>
		<stop  offset="1" style="stop-color:#30397E"/>
	</linearGradient>
	<path class="st6" d="M1110.5,0.2v171l1110,206V0.2H1110.5z"/>
	
		<linearGradient id="SVGID_8_" gradientUnits="userSpaceOnUse" x1="1665.54" y1="0.82" x2="1665.54" y2="377.82" gradientTransform="matrix(1 0 0 -1 0 378)">
		<stop  offset="0" style="stop-color:#000000"/>
		<stop  offset="1" style="stop-color:#30397E"/>
	</linearGradient>
	<path class="st7" d="M1110.5,0.2v171l1110,206V0.2H1110.5z"/>
	
		<linearGradient id="SVGID_9_" gradientUnits="userSpaceOnUse" x1="1665.54" y1="0.82" x2="1665.54" y2="377.82" gradientTransform="matrix(1 0 0 -1 0 378)">
		<stop  offset="0" style="stop-color:#000000"/>
		<stop  offset="1" style="stop-color:#30397E"/>
	</linearGradient>
	<path class="st8" d="M1110.5,0.2v171l1110,206V0.2H1110.5z"/>
	
		<linearGradient id="SVGID_10_" gradientUnits="userSpaceOnUse" x1="1665.54" y1="0.82" x2="1665.54" y2="377.82" gradientTransform="matrix(1 0 0 -1 0 378)">
		<stop  offset="0" style="stop-color:#000000"/>
		<stop  offset="1" style="stop-color:#30397E"/>
	</linearGradient>
	<path class="st9" d="M1110.5,0.2v171l1110,206V0.2H1110.5z"/>
	
		<linearGradient id="SVGID_11_" gradientUnits="userSpaceOnUse" x1="1665.6611" y1="0.4633" x2="1665.6611" y2="377.4622" gradientTransform="matrix(1 0 0 -1 0 378)">
		<stop  offset="0" style="stop-color:#000000"/>
		<stop  offset="1" style="stop-color:#30397E"/>
	</linearGradient>
	<path class="st10" d="M1110.7,0.5v333l1110-132V0.5H1110.7z"/>
	
		<linearGradient id="SVGID_12_" gradientUnits="userSpaceOnUse" x1="1665.525" y1="1.301" x2="1665.525" y2="378.3" gradientTransform="matrix(1 0 0 -1 0 378)">
		<stop  offset="0" style="stop-color:#000000"/>
		<stop  offset="1" style="stop-color:#30397E"/>
	</linearGradient>
	<path class="st11" d="M2220.5-0.3v293l-1110-47v-246H2220.5z"/>
</g>
</svg>
