<?xml version="1.0" standalone="no"?>
<!DOCTYPE svg PUBLIC "-//W3C//DTD SVG 1.1//EN" "http://www.w3.org/Graphics/SVG/1.1/DTD/svg11.dtd" >
<svg xmlns="http://www.w3.org/2000/svg" xmlns:xlink="http://www.w3.org/1999/xlink" version="1.1">
<metadata>
Created by FontForge 20170731 at Fri Jan  1 02:30:17 1904
 By Aleksey,,,
Eurotype
</metadata>
<defs>
<font id="Vetren" horiz-adv-x="768" >
  <font-face 
    font-family="Vetren"
    font-weight="400"
    font-stretch="normal"
    units-per-em="2048"
    panose-1="2 11 5 0 0 0 0 0 0 0"
    ascent="1638"
    descent="-410"
    x-height="1073"
    cap-height="1475"
    bbox="-205 -512 1536 1774"
    underline-thickness="33"
    underline-position="-266"
    unicode-range="U+0020-2022"
  />
<missing-glyph horiz-adv-x="1536" 
d="M256 -1v1281h1024v-1281h-1024zM1248 32v1215h-960v-1215h960z" />
    <glyph glyph-name=".notdef" horiz-adv-x="1536" 
d="M256 -1v1281h1024v-1281h-1024zM1248 32v1215h-960v-1215h960z" />
    <glyph glyph-name=".null" horiz-adv-x="0" 
 />
    <glyph glyph-name="nonmarkingreturn" horiz-adv-x="0" 
 />
    <glyph glyph-name="c32" unicode=" " horiz-adv-x="510" 
 />
    <glyph glyph-name="c33" unicode="!" horiz-adv-x="475" 
d="M228 363l-58 692v420h133v-420l-57 -692h-18zM137 84q0 45 26.5 72t72.5 27q45 0 74 -28q28 -27 28 -71q0 -43 -29 -72t-71 -29q-46 0 -73.5 28.5t-27.5 72.5z" />
    <glyph glyph-name="c34" unicode="&#x22;" horiz-adv-x="615" 
d="M90 1475h140l-56 -555h-28zM386 1475h139l-56 -555h-28z" />
    <glyph glyph-name="c35" unicode="#" horiz-adv-x="1209" 
d="M649 1397h36l-138 -455h289l141 455h35l-137 -455h258l-27 -105h-260l-106 -343h277l-35 -106l-275 -1l-139 -451h-37l139 451h-292l-138 -451h-37l137 451h-264l35 107h266l107 343h-283l27 105h282zM518 837l-106 -345h293l107 345h-294z" />
    <glyph glyph-name="c36" unicode="$" horiz-adv-x="821" 
d="M375 -189v189q-48 6 -74 13q-80 24 -129 92q-29 37 -45 100q-22 75 -24 266h120v-104q0 -125 7 -178q7 -52 30 -95q29 -51 115 -67v661q-72 37 -108 63.5t-68 65.5q-84 110 -84 273q0 325 260 368v134h63v-132q139 -23 201 -122q29 -45 40 -98q9 -53 9 -163h-116
q0 29 -1 77t-1 67q-3 91 -34 141q-19 33 -40 47.5t-58 22.5v-602q84 -46 127 -77.5t82 -76.5q72 -93 72 -272q0 -182 -74 -289q-30 -42 -78 -74q-43 -28 -129 -41v-189h-63zM438 27q85 11 122 86q38 75 38 237q0 90 -17 154q-14 40 -36 68q-30 38 -107 84v-629zM375 858v576
q-33 -8 -53 -23q-26 -18 -41 -43q-27 -38 -36 -84.5t-9 -148.5q0 -83 12 -132q10 -49 39.5 -81.5t87.5 -63.5z" />
    <glyph glyph-name="c37" unicode="%" horiz-adv-x="1247" 
d="M281 -25l581 1508h82l-577 -1508h-86zM82 1100q0 356 203 356q99 0 149.5 -90.5t50.5 -265.5t-52 -270q-54 -95 -152 -95q-199 0 -199 365zM764 361q0 356 201 356q99 0 149.5 -90.5t50.5 -265.5q0 -117 -23.5 -198.5t-69 -124t-109.5 -42.5q-199 0 -199 365zM182 1045
v-35q0 -140 23 -197t78 -57q54 0 80 72q8 29 12 51q6 89 8 217v45q0 127 -8 180.5t-35 85.5q-23 29 -59 29q-35 0 -53 -23q-26 -32 -36 -90.5t-10 -201.5v-76zM864 305v-34q0 -140 24 -197q22 -57 77 -57q53 0 78 71q10 26 14 52q6 87 8 217v45q0 127 -8.5 180t-36.5 86
q-23 29 -57 29q-37 0 -53 -23q-27 -31 -36.5 -89t-9.5 -204v-76z" />
    <glyph glyph-name="c38" unicode="&#x26;" horiz-adv-x="914" 
d="M744 0l-84 152q-53 -76 -105 -111q-78 -58 -170 -58q-91 0 -159.5 48t-106 135.5t-37.5 204.5q0 161 88 281q51 68 152 155q-81 138 -103 211q-27 85 -27 164q0 86 29 153t80 104.5t115 37.5q60 0 109 -38q49 -37 76 -104t27 -149q0 -110 -48.5 -187.5t-157.5 -140.5
l254 -493q3 29 5.5 50t4.5 38q1 11 2.5 40t1.5 42q2 37 2 88q0 35 -2 63h119q-2 -85 -16 -172q-13 -63 -19 -88q-14 -60 -51 -147l137 -279h-116zM620 221l-284 566q-67 -70 -90 -119q-46 -103 -46 -293q0 -365 191 -365q74 0 131 52q47 43 98 159zM412 879q60 49 74 86
q26 64 26 223q0 78 -4 113q-13 149 -96 149q-105 0 -105 -213q0 -77 15 -147q15 -54 90 -211z" />
    <glyph glyph-name="c39" unicode="'" horiz-adv-x="318" 
d="M90 1475h140l-56 -555h-28z" />
    <glyph glyph-name="c40" unicode="(" horiz-adv-x="490" 
d="M424 -447q-61 104 -90 164.5t-72 167.5q-47 123 -73.5 224.5t-39 209.5t-12.5 244q0 153 20.5 277.5t70.5 275.5q44 136 81 215t115 205h41q-67 -154 -96.5 -242t-52.5 -208q-21 -110 -32 -237t-11 -290q0 -277 35 -481q21 -118 52 -222.5t105 -302.5h-41z" />
    <glyph glyph-name="c41" unicode=")" horiz-adv-x="490" 
d="M66 -447h-41q71 189 103.5 298t54.5 227q34 188 34 479q0 321 -43 529q-22 115 -50.5 202.5t-98.5 247.5h41q75 -121 113.5 -202.5t82.5 -217.5q50 -146 71 -271q20 -124 20 -282q0 -200 -27.5 -348t-97.5 -330q-41 -105 -71 -166.5t-91 -165.5z" />
    <glyph glyph-name="c42" unicode="*" 
d="M387 1082l-139 -340l-92 84l225 274l-291 51l35 137l248 -172l-55 369h125l-43 -362l239 161l39 -131l-276 -53l213 -272l-97 -86z" />
    <glyph glyph-name="c43" unicode="+" horiz-adv-x="1010" 
d="M457 1139h96v-459h361v-91h-361v-458h-96v458h-360v91h360v459z" />
    <glyph glyph-name="c44" unicode="," horiz-adv-x="383" 
d="M221 4q-12 -4 -22 -4q-40 0 -68.5 29t-28.5 70q0 44 28 72t73 28q50 0 76 -34q26 -33 26 -95q0 -81 -28.5 -144t-82 -102t-125.5 -50v13q72 11 109 51q22 24 38 61t16 66q0 18 -11 39z" />
    <glyph glyph-name="c45" unicode="-" horiz-adv-x="506" 
d="M68 590v117h371v-117h-371z" />
    <glyph glyph-name="c46" unicode="." horiz-adv-x="365" 
d="M74 86q0 45 27 72q28 27 73 27t73 -27.5t28 -71.5t-28.5 -72.5t-72.5 -28.5t-72 28.5t-28 72.5z" />
    <glyph glyph-name="c47" unicode="/" horiz-adv-x="547" 
d="M535 1536l-451 -1766h-69l450 1766h70z" />
    <glyph glyph-name="c48" unicode="0" 
d="M92 930q7 197 33 299q25 103 84 174q63 78 174 78q136 0 201 -109q55 -91 76.5 -229.5t21.5 -404.5q0 -365 -51 -545q-68 -220 -240 -220q-126 0 -198 101q-43 58 -62 129q-22 82 -34.5 197.5t-12.5 248.5q0 54 2 80zM555 699v129q0 231 -9 341t-36 179q-17 49 -52 77
q-34 27 -75 27q-60 0 -98 -57q-25 -38 -38 -78.5t-21 -109.5q-7 -69 -10 -178t-3 -306q0 -292 11 -426q11 -133 40 -203q45 -94 121 -94q61 0 105 62q21 30 38 95q17 66 17 124z" />
    <glyph glyph-name="c49" unicode="1" 
d="M369 1182h-236v27q19 1 48 4q28 4 30 4q77 12 137 65q35 31 54 77t32 124h62v-1456h94v-27h-317v27h96v1155z" />
    <glyph glyph-name="c50" unicode="2" 
d="M90 0q3 189 39 301q30 91 83 172.5t169 216.5q74 84 105.5 137t46.5 115q10 54 10 166q0 116 -6.5 169t-26.5 93q-18 39 -53.5 62.5t-75.5 23.5q-63 0 -110 -57q-24 -29 -33 -68q-19 -72 -19 -262v-84h-118q1 22 2 62q1 41 2 59q9 188 86 289q36 48 84 68t123 20
q132 0 203 -90.5t71 -259.5q0 -115 -41 -215q-35 -84 -104 -150q-14 -16 -88 -84q-115 -107 -191 -212q-58 -85 -86 -160q-28 -70 -39 -203h529v233h26v-342h-588z" />
    <glyph glyph-name="c51" unicode="3" 
d="M74 439h123q0 -158 9 -231t34 -128q38 -78 129 -78q95 0 138.5 99t43.5 319q0 125 -20.5 200.5t-66.5 110.5t-120 35h-100v29h104q83 0 127.5 82t44.5 237q0 156 -24 232q-14 48 -48 77t-79 29q-75 0 -119 -86q-20 -39 -28.5 -94t-8.5 -156q-2 -14 -2 -71h-119
q1 147 33 244.5t96 143.5t162 46q80 0 138.5 -43.5t89 -125t30.5 -194.5q0 -146 -65 -231q-31 -43 -68 -63q-37 -19 -115 -35q135 -25 189 -78q94 -92 94 -283q0 -140 -36 -242.5t-105 -155.5q-69 -55 -164 -55q-102 0 -166 50q-65 48 -97 151t-34 265z" />
    <glyph glyph-name="c52" unicode="4" 
d="M581 27h103v-27h-317v27h96v350h-399v115l458 995h59v-997h103v-113h-103v-350zM97 490h366v794z" />
    <glyph glyph-name="c53" unicode="5" 
d="M82 387h121q0 -12 -1 -26t-1 -23q0 -172 39.5 -253t124.5 -81q69 0 106 52q31 44 45 102q26 92 26 250q0 225 -9 338q-11 92 -54 146.5t-106 54.5q-72 0 -113 -66t-41 -182v-11l-114 13l59 755h467v-331h-29v212h-419l-50 -599q29 122 90 179.5t162 57.5
q89 0 154.5 -57.5t100 -167t34.5 -258.5q0 -249 -81.5 -382t-231.5 -133q-116 0 -183 74q-42 50 -63 109q-25 74 -33 227z" />
    <glyph glyph-name="c54" unicode="6" 
d="M189 762q29 89 65 125q59 61 148 61q90 0 155.5 -56t100 -163t34.5 -254q0 -151 -35.5 -264.5t-102.5 -174.5q-66 -61 -156 -61q-109 0 -181 78q-68 79 -98.5 221t-30.5 390q0 142 6.5 249.5t20 192.5t33.5 150q17 63 67 129q71 94 189 94q125 0 190 -92q33 -45 47 -99
q15 -55 21 -157h-123v14q0 132 -12 188q-31 119 -127 119q-112 0 -152 -186q-23 -103 -35 -199q-14 -131 -24 -305zM217 496q0 -143 5.5 -198.5t25.5 -135.5q39 -160 148 -160q52 0 85 35t56 115q28 104 28 344q0 220 -40 321.5t-127 101.5q-75 0 -123 -77q-18 -27 -33 -76
q-25 -76 -25 -270z" />
    <glyph glyph-name="c55" unicode="7" 
d="M191 0q22 143 40 240t37 174t43.5 154.5t55.5 158.5q32 85 69 169q38 84 89.5 183t134.5 245h-550v-199h-26v331h600v-141q-65 -127 -106 -213.5t-69 -160t-56 -163.5q-41 -129 -63 -230.5t-36 -224.5t-26 -323h-137z" />
    <glyph glyph-name="c56" unicode="8" 
d="M318 801q-73 23 -116 60q-42 36 -61.5 96t-19.5 151q0 113 32 197t91.5 130t136.5 46q82 0 143 -44q62 -43 95 -124t33 -188q0 -148 -49 -226.5t-152 -95.5q64 -16 97 -34t61 -52q40 -46 56.5 -111t16.5 -170q0 -225 -76.5 -342t-224.5 -117q-91 0 -158 53
q-67 51 -102 149.5t-35 234.5q0 166 56 268q28 50 64 75q37 24 112 44zM211 412q5 -191 23 -260q30 -148 151 -148q63 0 105 56q35 50 49 131q15 81 15 241q0 152 -23 220q-44 136 -148 136q-75 0 -119 -69q-30 -47 -41.5 -106t-11.5 -170v-31zM239 1133q0 -101 10 -156.5
t34 -97.5q40 -64 108 -64q59 0 97 54q43 60 43 256q0 329 -148 329q-51 0 -84 -39q-33 -44 -46.5 -105t-13.5 -177z" />
    <glyph glyph-name="c57" unicode="9" 
d="M563 668q-16 -54 -32 -76q-23 -38 -70.5 -62t-99.5 -24q-88 0 -154 58q-65 57 -100 164q-35 108 -35 255q0 217 90 369q74 127 215 127q168 0 244 -199q32 -84 46.5 -211.5t14.5 -324.5q0 -202 -18.5 -345.5t-57.5 -236.5t-99.5 -138t-143.5 -45q-246 0 -258 345h123v-39
q0 -142 34.5 -210.5t108.5 -68.5q48 0 81.5 34t55.5 109t35 201.5t20 317.5zM549 977q-2 213 -31 324q-41 151 -143 151q-66 0 -102 -53q-27 -40 -43 -93t-23.5 -132t-7.5 -185q0 -169 14 -255t49 -144q40 -57 109 -57q91 0 134.5 101t43.5 314v29z" />
    <glyph glyph-name="c58" unicode=":" horiz-adv-x="420" 
d="M109 84q0 45 27 72q28 27 73 27t74 -28q29 -27 29 -71t-29.5 -72.5t-73.5 -28.5t-72 28.5t-28 72.5zM109 985q0 45 27 72q28 27 73 27t74 -28q29 -27 29 -71t-29.5 -72t-73.5 -28t-72 28t-28 72z" />
    <glyph glyph-name="c59" unicode=";" horiz-adv-x="383" 
d="M123 987q0 45 27.5 72t72.5 27t73 -27.5t28 -71.5q0 -43 -28.5 -71.5t-72.5 -28.5t-72 28.5t-28 71.5zM240 2q-10 -4 -23 -4q-39 0 -66.5 28.5t-27.5 70.5q0 44 27.5 71t72.5 27q103 0 103 -127q0 -81 -28.5 -145t-82.5 -103t-127 -50v13q71 13 109 51q23 23 39.5 61
t16.5 68q0 19 -13 39z" />
    <glyph glyph-name="c60" unicode="&#x3c;" horiz-adv-x="1338" 
d="M1133 1096v-82l-850 -467l850 -473v-74l-928 522v48z" />
    <glyph glyph-name="c61" unicode="=" horiz-adv-x="1104" 
d="M103 879h899v-99h-899v99zM103 482h899v-99h-899v99z" />
    <glyph glyph-name="c62" unicode="&#x3e;" horiz-adv-x="1338" 
d="M205 1096l928 -526v-48l-928 -522v74l850 473l-850 467v82z" />
    <glyph glyph-name="c63" unicode="?" horiz-adv-x="731" 
d="M309 371q0 155 21 244q18 79 97 202q53 85 72 129.5t26 100.5q6 42 6 131q0 160 -34 229t-112 69q-81 0 -118 -89t-37 -281v-61h-119q2 153 24 233q31 119 92 172t166 53q80 0 140 -39.5t93 -114.5q32 -74 32 -173q0 -77 -31 -155.5t-86 -139.5l-77 -86q-41 -40 -79 -119
q-28 -57 -36.5 -104t-10.5 -146l-2 -55h-27zM240 86q0 45 27 72q28 27 73 27q44 0 72 -28q29 -27 29 -71t-28.5 -72.5t-72.5 -28.5q-45 0 -73 29q-27 28 -27 72z" />
    <glyph glyph-name="c64" unicode="@" horiz-adv-x="1612" 
d="M918 293q-47 -93 -99 -133.5t-122 -40.5q-109 0 -168.5 89.5t-59.5 250.5q0 141 48 268t127 204t167 77q61 0 103 -36t80 -118l43 115h94l-107 -576q-10 -61 -10 -112q0 -137 78 -137q80 0 141 80q62 79 95.5 224t33.5 333q0 172 -35 309q-27 104 -95 184
q-67 79 -164 122t-208 43q-157 0 -299.5 -95.5t-207.5 -243.5q-31 -66 -54 -163t-36 -205.5t-13 -217.5q0 -336 94 -514q60 -115 189 -189.5t266 -74.5q198 0 350 149q43 40 111 128l41 -81q-18 -23 -25 -31q-16 -16 -86 -67q-35 -28 -84 -54q-57 -32 -144 -53t-159 -21
q-192 0 -345 104t-238 291.5t-85 423.5q0 259 95.5 476t261.5 341q165 125 364 125q136 0 250 -49q113 -51 196 -143t128 -219q44 -126 44 -275q0 -181 -54 -335t-148 -243q-94 -91 -205 -91q-80 0 -121 54q-26 36 -28 127zM969 711q2 10 2 33q0 100 -43.5 168.5
t-106.5 68.5q-66 0 -120 -62t-85 -172t-31 -247q0 -117 16 -195.5t46 -118.5t74 -40q35 0 72 24.5t55 61.5q48 93 78 243z" />
    <glyph glyph-name="c65" unicode="A" horiz-adv-x="819" 
d="M219 0h-233v27h84l299 1474h76l301 -1474h88v-27h-319l-1 27h105l-99 476h-313l-94 -476h107zM220 545h299l-146 788z" />
    <glyph glyph-name="c66" unicode="B" horiz-adv-x="883" 
d="M56 1475h397q156 0 225 -86q70 -86 70 -275q0 -104 -23 -170q-24 -65 -75 -102q-52 -36 -142 -53q69 -11 106.5 -24.5t71.5 -43.5q101 -88 101 -289q0 -133 -39 -231t-112 -150t-173 -52h-407v28h108v1421h-108v27zM291 41h150q108 0 161 68q50 63 50 315q0 134 -23 207
t-77 102.5t-152 29.5h-109v-722zM291 805h100q122 0 183 64q49 54 49 221q0 124 -17 205q-28 138 -159 138h-156v-628z" />
    <glyph glyph-name="c67" unicode="C" horiz-adv-x="836" 
d="M635 541h121v-31q0 -168 -47 -311q-67 -220 -279 -220q-123 0 -198 79q-75 77 -109.5 246t-34.5 450q0 261 39 426q39 166 121.5 243.5t212.5 77.5q103 0 164.5 -44t91.5 -146q29 -101 33 -270h-119q0 162 -16.5 256t-55.5 136q-38 41 -104 41q-139 0 -193 -188
q-18 -63 -24 -112q-6 -72 -12 -234q-7 -163 -7 -280q0 -185 9 -281t34 -192q48 -181 183 -181q98 0 144 113t46 356v66z" />
    <glyph glyph-name="c68" unicode="D" horiz-adv-x="932" 
d="M56 1475h421q161 0 250 -121q43 -59 68 -138t37 -194.5t12 -271.5q0 -150 -13.5 -268t-41.5 -208t-70 -155q-42 -64 -105 -92q-62 -28 -165 -28h-393v28h108v1421h-108v27zM291 41h156q84 0 132.5 38t72.5 120q31 109 44 280q10 114 10 320q0 80 -4 154q-3 64 -13 141
q-11 78 -21 117q-27 118 -80 171q-53 51 -145 51h-152v-1392z" />
    <glyph glyph-name="c69" unicode="E" horiz-adv-x="797" 
d="M615 1008v-451h-29q-3 114 -45 160q-41 46 -135 46h-115v-722h162q169 0 211 78q24 44 35 129q4 27 4 98h26v-347h-673v28h108v1421h-108v27h653v-357h-27q-2 97 -16 154q-12 54 -37 94q-22 39 -54.5 53t-99.5 14h-184v-628h115q102 0 143 45q25 27 33 117l4 41h29z" />
    <glyph glyph-name="c70" unicode="F" horiz-adv-x="688" 
d="M56 1475h620v-357h-29q0 86 -16 154q-13 55 -37 94q-22 40 -54 53q-33 14 -99 14h-150v-669h98q111 0 150 51q33 48 33 136v16h28v-451h-28q-3 108 -47 157q-43 49 -134 49h-100v-695h123v-27h-358v27h108v1421h-108v27z" />
    <glyph glyph-name="c71" unicode="G" horiz-adv-x="887" 
d="M721 0l-12 258q-34 -127 -70 -184q-64 -99 -200 -99q-121 0 -198 80q-78 78 -115.5 243t-37.5 423q0 185 15 312.5t47 216.5q33 90 88 155q86 101 244 101q120 0 196 -76q58 -62 76 -142q13 -48 17 -92q5 -44 9 -143h-123q-1 117 -3.5 156t-12.5 100q-13 82 -58 125
q-46 44 -116 44q-153 0 -207 -204q-27 -94 -37 -210.5t-10 -346.5q0 -125 4 -227q14 -200 45 -305q29 -97 73 -140t114 -43q132 0 188 191q22 73 29.5 147.5t7.5 214.5q0 97 -2 145h-250v42h368v-742h-69z" />
    <glyph glyph-name="c72" unicode="H" horiz-adv-x="991" 
d="M56 0v27h108v1421h-108v27h344v-27h-109v-643h410v643h-109v27h344v-27h-108v-1421h108v-27h-344v27h109v736h-410v-736h109v-27h-344z" />
    <glyph glyph-name="c73" unicode="I" horiz-adv-x="457" 
d="M293 27h109v-27h-346v27h108v1421h-108v27h346v-27h-109v-1421z" />
    <glyph glyph-name="c74" unicode="J" horiz-adv-x="654" 
d="M389 1448h-123v27h347v-26l-97 -1v-1118q0 -128 -25.5 -206t-82 -113.5t-148.5 -35.5q-85 0 -135 30.5t-76 99.5q-19 59 -26 196q0 27 -1 71q-1 45 -1 58v27h119v-82q0 -205 14 -276q8 -44 39 -70.5t71 -26.5q85 0 109 88q12 43 14 93t2 258v1007z" />
    <glyph glyph-name="c75" unicode="K" horiz-adv-x="877" 
d="M815 27h74v-27h-317v27h96l-307 751h-70v-751h94v-27h-329v27h108v1421h-108v27h329v-27h-94v-643h68l290 643h-98v27h230v-26h-97l-252 -560z" />
    <glyph glyph-name="c76" unicode="L" horiz-adv-x="695" 
d="M56 -1v28h108v1421h-108v27h358v-27h-123v-1407h156q112 0 149 72q27 49 42 143q16 93 16 197h28v-454h-626z" />
    <glyph glyph-name="c77" unicode="M" horiz-adv-x="1188" 
d="M1133 1475v-27h-109v-1421h109v-27h-326v27h96v1377l-6 1l-293 -1405h-96l-295 1403h-8v-1376h96v-27h-245v27h108v1421h-108v27h268l266 -1309h6l273 1309h264z" />
    <glyph glyph-name="c78" unicode="N" horiz-adv-x="887" 
d="M56 1475h256l378 -1389h7v1362h-97v27h234v-27h-96v-1448h-141l-382 1405h-10v-1378h96v-27h-245v27h108v1421h-108v27z" />
    <glyph glyph-name="c79" unicode="O" horiz-adv-x="887" 
d="M88 764q0 197 22 337t66.5 228.5t115 131t169.5 42.5q87 0 144.5 -30.5t95.5 -95.5q54 -89 76 -226t22 -377q0 -226 -18.5 -376.5t-59 -243t-107.5 -135.5q-66 -42 -165 -42q-71 0 -134 26q-63 27 -102 73q-49 61 -73 147q-25 89 -38.5 228t-13.5 313zM217 744v-176
q3 -209 29 -328q48 -234 203 -234q37 0 77 21q41 20 64 51q32 44 49 122t26 209q7 132 7 353q0 197 -10 385q-9 133 -49 221q-52 108 -164 108q-92 0 -150 -85q-33 -54 -50.5 -127t-24.5 -196t-7 -324z" />
    <glyph glyph-name="c80" unicode="P" horiz-adv-x="850" 
d="M56 1475h391q188 0 266 -103q82 -105 82 -311q0 -215 -88 -328q-88 -115 -254 -115h-162v-591h109v-27h-344v27h108v1421h-108v27zM291 660h158q49 0 99 28q50 26 71 66q47 88 47 307q0 132 -23 214.5t-71.5 120t-128.5 37.5h-152v-773z" />
    <glyph glyph-name="c81" unicode="Q" horiz-adv-x="893" 
d="M672 99q-47 -71 -99 -98.5t-141 -27.5q-211 0 -286 238q-20 61 -29 121q-29 191 -29 465q0 252 37.5 406.5t117.5 227t208 72.5q123 0 198.5 -70.5t110.5 -225.5t35 -404q0 -281 -49 -487q-19 -83 -47 -140l115 -127l1 -135zM627 146l-135 141l-2 156l159 -211
q12 103 15 156t6 218l2 162v56q0 120 -10 284q-14 212 -78 303q-26 38 -59 51q-32 14 -97 14q-80 0 -127 -63q-35 -53 -49 -102q-19 -76 -28 -194.5t-9 -309.5q0 -226 13 -428q10 -184 65 -280.5t150 -96.5q49 0 90 27q31 20 55 47q14 25 39 70z" />
    <glyph glyph-name="c82" unicode="R" horiz-adv-x="908" 
d="M56 1475h376q117 0 192 -40t110.5 -123.5t35.5 -213.5q0 -191 -80 -277q-34 -37 -81.5 -55t-139.5 -28q85 -6 131 -19q45 -12 78 -40q72 -57 82 -236l6 -121l4 -114q4 -84 10 -118.5t20 -47t46 -15.5v-27h-160q-6 13 -10 19.5t-8 15.5q-15 38 -20.5 92t-10.5 197
q-4 121 -10 183t-18 95t-35 60q-20 22 -43 33q-9 3 -49 12q-62 8 -80 8h-111v-688h94v-27h-329v27h108v1421h-108v27zM291 756h102q135 0 192.5 77t57.5 253q0 347 -227 347h-125v-677z" />
    <glyph glyph-name="c83" unicode="S" horiz-adv-x="797" 
d="M78 469h119v-57l-2 -39q0 -128 10 -186t39 -103q25 -38 67 -60t91 -22q76 0 125 51q32 36 49 89q22 91 22 243q0 135 -53 201q-35 39 -215 154q-99 61 -143.5 106.5t-69.5 108.5q-23 60 -23 135q0 128 37.5 220.5t108.5 141.5t170 49q272 0 272 -380v-27h-112v65
q0 167 -39.5 241t-128.5 74q-35 0 -70 -14q-64 -28 -93.5 -100t-29.5 -199q0 -102 15 -157q15 -54 59.5 -97.5t146.5 -107.5q109 -67 155 -105q46 -37 75 -81q59 -85 59 -209q0 -95 -29 -199q-69 -230 -292 -230q-320 0 -320 433v61z" />
    <glyph glyph-name="c84" unicode="T" horiz-adv-x="719" 
d="M422 1433v-1406h123v-27h-373v27h123v1406h-74q-88 0 -131 -88q-43 -90 -49 -286h-26v416h689v-416h-26q-6 197 -48.5 285.5t-131.5 88.5h-76z" />
    <glyph glyph-name="c85" unicode="U" horiz-adv-x="836" 
d="M658 1448h-95v27h232v-27h-96v-936q0 -207 -5 -280t-22 -123q-47 -136 -225 -136q-83 0 -153 39q-71 40 -105 105q-22 43 -33 90q-12 51 -15.5 105.5t-3.5 199.5v936h-96v27h318v-27h-97v-964q0 -140 1 -189q1 -50 4 -78t12 -61q17 -72 64 -113t114 -41q68 0 116 35
t66 96q9 34 13 78q4 57 4 105q2 92 2 163v969z" />
    <glyph glyph-name="c86" unicode="V" horiz-adv-x="776" 
d="M430 189l251 1259h-97v27h201v-27h-69l-286 -1448h-73l-295 1448h-68v27h289v-27h-94z" />
    <glyph glyph-name="c87" unicode="W" horiz-adv-x="1090" 
d="M357 213l170 1262h104l184 -1254l177 1227h-96l-1 27h203v-27h-69l-210 -1448h-67l-211 1323l-180 -1323h-80l-219 1448h-68v27h289v-27h-94z" />
    <glyph glyph-name="c88" unicode="X" horiz-adv-x="758" 
d="M697 27h67v-27h-289v27h95l-226 661l-247 -661h96v-27h-199v27h68l262 715l-240 706h-69v27h290v-27h-96l189 -581l221 581h-94v27h198v-26h-67l-240 -625z" />
    <glyph glyph-name="c89" unicode="Y" horiz-adv-x="805" 
d="M699 1448h-97v27h209v-26h-67l-260 -879v-543h122v-27h-372v27h123v502l-295 919h-68v27h311v-27h-96l242 -844z" />
    <glyph glyph-name="c90" unicode="Z" horiz-adv-x="633" 
d="M51 1475h552v-51l-449 -1383h211q80 0 116 15q37 14 58 53q41 83 41 282h29v-392h-584v44l453 1396h-181q-113 0 -168 -108q-18 -36 -24 -57t-17 -94q-10 -68 -10 -100v-13h-26z" />
    <glyph glyph-name="c91" unicode="[" horiz-adv-x="490" 
d="M174 -436v1972h271v-27h-146v-1918h148v-27h-273z" />
    <glyph glyph-name="c92" unicode="\" horiz-adv-x="903" 
d="M684 -230l-547 1766h82l549 -1766h-84z" />
    <glyph glyph-name="c93" unicode="]" horiz-adv-x="490" 
d="M316 -436h-273v27h148v1918h-146v27h271v-1972z" />
    <glyph glyph-name="c94" unicode="^" horiz-adv-x="897" 
d="M391 1534h115l309 -461h-110l-260 430l-254 -430h-109z" />
    <glyph glyph-name="c95" unicode="_" horiz-adv-x="1024" 
d="M0 -414h1024v-69h-1024v69z" />
    <glyph glyph-name="c96" unicode="`" horiz-adv-x="615" 
d="M445 1204h-22l-238 271h133z" />
    <glyph glyph-name="c97" unicode="a" horiz-adv-x="717" 
d="M670 0q-44 -8 -76 -8q-63 0 -87.5 31.5t-33.5 120.5q-28 -93 -70 -131q-43 -40 -116 -40q-217 0 -217 306q0 94 24 154q23 61 79 105t159 87q88 36 109 59q24 29 24 78v172q0 147 -123 147q-68 0 -102 -47q-33 -48 -33 -190v-57h-112q8 119 30 174q60 141 230 141
q230 0 230 -289v-700q0 -56 12 -75q10 -19 42 -19q10 0 31 6v-25zM465 680q-21 -35 -78 -61l-47 -25q-65 -28 -94 -67q-53 -66 -53 -283q0 -133 25 -189q26 -57 85 -57q66 0 111 70q29 45 40 110.5t11 188.5v313z" />
    <glyph glyph-name="c98" unicode="b" horiz-adv-x="778" 
d="M129 1448h-82v27h205v-537q49 156 182 156q271 0 271 -541q0 -570 -277 -570q-73 0 -118.5 39t-75.5 128l-41 -150h-64v1448zM242 543v-61q0 -256 42 -367t138 -111q58 0 88 45q25 35 33 74q17 71 23 154t6 286q0 263 -29 381q-32 125 -117 125q-62 0 -108 -59
q-29 -39 -44 -91t-23 -141q-7 -90 -9 -235z" />
    <glyph glyph-name="c99" unicode="c" horiz-adv-x="703" 
d="M512 377h119v-8q0 -191 -69.5 -293.5t-198.5 -102.5q-100 0 -163 62t-93.5 189t-30.5 329q0 280 70.5 412.5t220.5 132.5q79 0 137.5 -39t89.5 -112t31 -171v-41h-119v50v12q0 75 -3.5 108t-16.5 68q-35 104 -121 104q-76 0 -113 -77q-27 -61 -38 -156.5t-11 -286.5
q0 -220 15 -339.5t50.5 -170.5t100.5 -51q52 0 84 39q34 45 46.5 110t12.5 193v39z" />
    <glyph glyph-name="c100" unicode="d" horiz-adv-x="778" 
d="M731 0h-188v148q-22 -58 -33 -80q-47 -85 -149 -85q-285 0 -285 566q0 266 70 407q69 142 200 142q93 0 146 -74q21 -32 37 -63v487h-82v27h202v-1448h82v-27zM537 629q0 232 -29 317q-18 55 -56 88t-81 33q-86 0 -126 -116.5t-40 -370.5q0 -305 35 -440
q14 -61 50.5 -97.5t82.5 -36.5q59 0 94 45q28 34 43 81q15 48 22 122q5 74 5 201v174z" />
    <glyph glyph-name="c101" unicode="e" horiz-adv-x="690" 
d="M494 363h119q-3 -134 -25 -201q-28 -88 -91.5 -136.5t-152.5 -48.5q-172 0 -229 177q-39 122 -39 397q0 125 10 212t32.5 149t57.5 108q67 82 174 82q85 0 145 -50t89 -143q31 -105 31 -306h-417q2 -60 2 -173q0 -142 5 -200t21 -111q33 -121 131 -121q56 0 90 43
q28 39 37 96q10 57 10 185v41zM198 639h296q0 16 -1 38t-1 28v131q-3 136 -51 203q-31 43 -86 43q-56 0 -95 -45q-37 -46 -48 -121q-12 -74 -14 -277z" />
    <glyph glyph-name="c102" unicode="f" horiz-adv-x="475" 
d="M277 1073h129v-35h-129v-1011h82v-27h-289v27h82v1011h-121v35h121v117q0 91 14 137q12 46 49 86q58 58 158 58q62 0 107 -25t69.5 -72t24.5 -110v-14h-99v22q0 176 -98 176q-100 0 -100 -155v-220z" />
    <glyph glyph-name="c103" unicode="g" horiz-adv-x="762" 
d="M101 -97h118v-28q0 -115 32.5 -164t109.5 -49t116 55q33 46 45 113q13 68 13 201v102q-41 -83 -82 -114.5t-109 -31.5q-83 0 -143 48q-60 46 -84 131q-41 135 -41 414q0 516 268 516q73 0 116 -38.5t77 -131.5v147h108v-1024q0 -214 -68 -312t-216 -98q-128 0 -194 67.5
t-66 196.5zM200 533q9 -339 34 -420q16 -49 48.5 -77t74.5 -28q93 0 139 113q13 36 16 70q14 111 17 364v47q0 250 -29 342q-45 129 -143 129q-54 0 -86 -41q-40 -50 -55.5 -139.5t-15.5 -271.5v-88z" />
    <glyph glyph-name="c104" unicode="h" horiz-adv-x="801" 
d="M669 27h83v-27h-285v27h82v752q0 122 -3 161.5t-15 69.5q-23 55 -88 55q-83 0 -138 -86q-19 -26 -36 -74q-13 -39 -15 -64t-2 -116v-698h82v-27h-287v27h82v1421h-82v27h205v-543q35 88 83 125t126 37q208 0 208 -242v-825z" />
    <glyph glyph-name="c105" unicode="i" horiz-adv-x="381" 
d="M88 1372q0 45 27.5 72t73.5 27q45 0 74 -28q28 -27 28 -71q0 -43 -29 -71.5t-73 -28.5q-45 0 -73 28t-28 72zM252 27h82v-27h-287v27h82v1019h-82v27h205v-1046z" />
    <glyph glyph-name="c106" unicode="j" horiz-adv-x="424" 
d="M107 1379q0 44 26 71q27 27 72 27t74 -28q28 -27 28 -70q0 -44 -29 -72.5t-71 -28.5q-45 0 -73 28q-27 28 -27 73zM150 1046h-82v27h203v-1182q0 -143 -54.5 -210.5t-169.5 -67.5q-80 0 -136.5 29.5t-86 87t-29.5 139.5h119v-39q0 -65 9 -97q10 -32 36 -57q35 -35 86 -35
t78 31q16 22 21.5 68.5t5.5 162.5v1143z" />
    <glyph glyph-name="c107" unicode="k" horiz-adv-x="742" 
d="M393 664l289 -637h60v-27h-271v27h82l-229 541h-78v-541h88v-27h-287v27h82v1421h-82v27h205v-881h62l233 452h-82v27h207v-27h-82z" />
    <glyph glyph-name="c108" unicode="l" horiz-adv-x="381" 
d="M252 27h82v-27h-287v27h82v1421h-82v27h205v-1448z" />
    <glyph glyph-name="c109" unicode="m" horiz-adv-x="1221" 
d="M1174 27v-27h-285v27h82v713q0 212 -16 262q-26 71 -101 71q-45 0 -88 -28q-27 -21 -47 -47q-29 -43 -39 -91q-9 -47 -9 -161v-719h83v-27h-285v27h82v719q0 195 -14 246q-19 79 -98 79q-41 0 -82 -30q-32 -22 -54 -54q-33 -41 -42 -83t-9 -152v-725h82v-27h-287v27h82
v1019h-82v27h197l-2 -133q45 77 82 109q58 49 147 49q74 0 113 -34q39 -33 72 -126q48 88 95 123q48 35 122 35q218 0 218 -262v-807h83z" />
    <glyph glyph-name="c110" unicode="n" horiz-adv-x="801" 
d="M669 27h83v-27h-285v27h82v760q0 109 -6 162q-12 118 -107 118q-52 0 -92 -33q-23 -17 -43 -49q-33 -49 -41 -92t-8 -168v-698h82v-27h-287v27h82v1019h-82v27h199v-135q40 79 74 108q56 50 147 50q74 0 118 -33t65 -104q19 -71 19 -185v-747z" />
    <glyph glyph-name="c111" unicode="o" horiz-adv-x="758" 
d="M76 535v14q0 283 74.5 417t232.5 134q154 0 226.5 -138.5t72.5 -430.5q0 -145 -18 -249.5t-56 -173t-95 -102t-136 -33.5q-131 0 -199 91q-54 71 -77 178q-23 108 -25 293zM205 557v-215q4 -138 31 -225q16 -59 53 -91q38 -32 88 -32q51 0 89 32.5t54 90.5q19 66 25 160
t6 299q0 175 -6.5 255t-28.5 138q-16 51 -53.5 81t-85.5 30q-67 0 -108 -58q-23 -36 -35 -76q-19 -64 -24 -137t-5 -252z" />
    <glyph glyph-name="c112" unicode="p" horiz-adv-x="778" 
d="M252 -332h82v-29h-287v29h82v1378h-82v27h199v-137q57 154 203 154q90 0 145 -57q56 -56 81 -179q26 -123 26 -321q0 -281 -61 -413q-60 -132 -189 -132q-83 0 -142 49q-29 27 -57 78v-447zM246 533q0 -171 18 -316q29 -204 154 -204q56 0 86 40q37 50 49 127
q19 140 19 357q0 194 -14.5 310t-46 167t-85.5 51q-66 0 -112 -63q-39 -51 -53.5 -152t-14.5 -317z" />
    <glyph glyph-name="c113" unicode="q" horiz-adv-x="772" 
d="M641 -334h82v-27h-284v27h81v449q-54 -134 -190 -134q-89 0 -145 58t-82.5 181t-26.5 317q0 275 68.5 416t203.5 141q131 0 183 -158v137h110v-1407zM531 701q-2 178 -45.5 274t-124.5 96q-53 0 -90 -57q-36 -53 -51 -154.5t-15 -291.5q0 -302 27 -437q13 -57 45 -92
t71 -35q30 0 63.5 18t51.5 44q22 29 35 74q21 64 27 131t6 235v33v162z" />
    <glyph glyph-name="c114" unicode="r" horiz-adv-x="584" 
d="M252 27h94v-27h-299v27h82v1019h-82v27h189v-190q60 205 198 205q136 0 136 -185v-32h-101v30q0 149 -65 149q-48 0 -95 -69q-33 -53 -45 -121t-12 -204v-629z" />
    <glyph glyph-name="c115" unicode="s" horiz-adv-x="695" 
d="M76 322h118v-21q0 -112 11 -166q9 -62 48 -97.5t100 -35.5q155 0 155 254q0 89 -35 142q-14 23 -32 37t-64 36l-68 35q-90 46 -135 82q-86 80 -86 209q0 89 32.5 156.5t93.5 104t141 36.5q239 0 239 -291v-14h-115v39q0 131 -30 188t-99 57q-156 0 -156 -229
q0 -100 47 -154q21 -23 47 -39.5t117 -64.5q124 -65 168.5 -126.5t44.5 -166.5q0 -96 -31.5 -166.5t-92.5 -108t-144 -37.5q-131 0 -202.5 84.5t-71.5 239.5v17z" />
    <glyph glyph-name="c116" unicode="t" horiz-adv-x="477" 
d="M430 35v-35q-78 -19 -129 -19q-50 0 -84 15q-33 15 -47 37q-17 23 -21.5 60t-4.5 141v804h-117v35h117v306h120v-306h140v-35h-140v-864q0 -89 19 -117t76 -28q32 0 71 6z" />
    <glyph glyph-name="c117" unicode="u" horiz-adv-x="795" 
d="M746 0h-185v156q-24 -71 -57 -105q-65 -72 -170 -72t-155 65.5t-50 203.5v798h-82v27h205v-829q0 -124 10 -162q9 -34 39.5 -55t71.5 -21q38 0 77.5 25t57.5 63q35 70 35 267v685h-82v27h203v-1046h82v-27z" />
    <glyph glyph-name="c118" unicode="v" horiz-adv-x="641" 
d="M545 1046h-82v27h178v-27h-55l-221 -1046h-96l-213 1046h-56v27h258v-27h-82l177 -943z" />
    <glyph glyph-name="c119" unicode="w" horiz-adv-x="957" 
d="M865 1046h-82v27h174v-27h-56l-155 -1046h-97l-153 973l-129 -973h-98l-213 1046h-56v27h258v-27h-82l172 -925l125 952h117l143 -940z" />
    <glyph glyph-name="c120" unicode="x" horiz-adv-x="713" 
d="M113 27h82v-27h-195v27h76l221 518l-219 501h-61v27h264v-27h-82l164 -407l164 407h-82v27h203l-1 -27h-82l-179 -433l259 -586h68v-27h-270v27h82l-209 479z" />
    <glyph glyph-name="c121" unicode="y" horiz-adv-x="629" 
d="M541 1046h-82v27h176v-27h-55l-250 -1093q-19 -92 -47.5 -167.5t-50.5 -101.5q-28 -37 -78 -37q-51 0 -69.5 42.5t-18.5 160.5v41h26v-35q0 -62 16.5 -86t57.5 -24q45 0 67 33q23 33 50 135q4 15 11 43t15 62l-253 1027h-56v27h258v-27h-82l187 -796z" />
    <glyph glyph-name="c122" unicode="z" horiz-adv-x="584" 
d="M30 0v56l404 990h-223q-53 0 -80.5 -14.5t-42.5 -53t-24 -118.5h-19v213h500v-55l-404 -991h242q60 0 89 17.5t43 66.5t20 151h18v-262h-523z" />
    <glyph glyph-name="c123" unicode="{" horiz-adv-x="770" 
d="M668 1477v-27h-23h-14q-89 0 -119 -16q-37 -17 -50 -70.5t-13 -183.5v-322q0 -131 -21 -194q-16 -47 -44 -75.5t-85 -55.5q64 -29 94 -64q32 -36 44 -93q12 -56 12 -169v-312q0 -130 12 -187q13 -56 50 -75q38 -18 126 -18h31v-27h-72q-111 0 -160 21q-72 30 -100 112
q-22 67 -22 223v284q0 176 -43 235q-24 32 -60 44t-108 13v27q88 0 127 21q47 24 65.5 84t18.5 188v278q0 209 55 287q28 42 86 57t186 15h27z" />
    <glyph glyph-name="c124" unicode="|" 
d="M328 1534h113v-2046h-113v2046z" />
    <glyph glyph-name="c125" unicode="}" horiz-adv-x="770" 
d="M103 1477h34q160 0 220 -33q52 -26 75 -102q23 -75 23 -224v-278q0 -99 10 -152q10 -52 35 -86q23 -30 60 -42q38 -13 108 -13v-27q-92 -2 -129 -22q-46 -24 -65 -85t-19 -185v-284q0 -127 -12 -188.5t-45 -99.5q-42 -48 -111 -62q-43 -6 -113 -6h-71v27h16q101 0 141 20
q36 21 48 73t12 187v312q0 138 20 199q18 47 46 74t85 53q-62 28 -92 63q-32 39 -46 98q-13 59 -13 164v322q0 110 -6.5 156t-26.5 75q-17 24 -48 31.5t-112 7.5h-24v27z" />
    <glyph glyph-name="c126" unicode="~" horiz-adv-x="944" 
d="M842 1428h33q-46 -148 -92 -213q-55 -76 -164 -76q-62 0 -116.5 28t-84.5 76l-31 50q-55 88 -90 88q-68 0 -168 -211l-22 -47h-35q21 44 25 51q11 22 19 39t14 28q26 54 61 99q57 73 157 73q60 0 100 -30t109 -127q32 -44 56 -62t53 -18q70 0 119 106q23 48 57 146z" />
    <glyph glyph-name="c160" unicode="&#xa0;" horiz-adv-x="512" 
 />
    <glyph glyph-name="c162" unicode="&#xa2;" horiz-adv-x="703" 
d="M338 -312v299q-67 8 -94 21q-39 18 -80 76q-47 69 -67.5 171t-20.5 274q0 235 37 356q19 68 55 119q28 43 62 61q33 19 106 31v266h43v-264q49 -6 84 -16q64 -26 104 -88q23 -36 39 -86q14 -48 16 -160h-120q0 163 -29 237q-33 82 -108 82q-61 0 -96 -47q-27 -33 -40 -83
t-18.5 -139t-5.5 -241q0 -180 5.5 -267.5t21.5 -149.5q14 -56 50 -89q35 -32 81 -32q147 0 147 286q0 54 -2 82h120q-5 -128 -30 -204q-19 -60 -53 -111q-28 -40 -61 -57.5t-101 -24.5v-302h-45z" />
    <glyph glyph-name="c163" unicode="&#xa3;" horiz-adv-x="817" 
d="M172 -33l-32 54q52 71 73 106q92 143 92 275q0 45 -12 112q-17 79 -61 201h-123v41h109q-47 100 -62 176q-12 68 -12 141q0 124 38 217.5t109 144t164 50.5q135 0 213 -106q35 -51 53 -109q13 -41 17 -75.5t6 -112.5q0 -5 1 -21t1 -29h-117v47q0 195 -44 286.5t-136 91.5
q-97 0 -144 -97q-36 -76 -36 -233q0 -83 5.5 -137.5t20.5 -105.5q15 -50 47 -128h240v-41h-223q41 -119 41 -203q0 -116 -74 -264q-48 -94 -125 -205q74 60 122 82q47 23 103 23q72 0 150 -54l43 -30q26 -21 55 -21q39 0 86 49l16 -28q-101 -91 -180 -91q-45 0 -123 33
l-86 35q-32 15 -61 15q-54 0 -154 -89z" />
    <glyph glyph-name="c164" unicode="&#xa4;" horiz-adv-x="1241" 
d="M162 1424l205 -206q59 37 82 48q77 37 172 37q50 0 88 -8q70 -16 168 -77l205 206l82 -80l-205 -207q25 -40 45 -80q36 -78 36 -172q0 -39 -10 -86q-13 -74 -71 -166l205 -205l-82 -82l-205 205q-52 -32 -84 -47q-81 -37 -172 -37q-31 0 -84 8q-45 10 -78 24.5t-92 51.5
l-205 -205l-82 82l207 205q-34 53 -47 80q-35 73 -35 172q0 48 8 86q16 76 74 166l-207 207zM617 1208q-72 0 -158 -42q-156 -85 -156 -275q0 -137 92 -229t230 -92q84 0 156.5 42t114.5 114.5t42 158.5q0 93 -41 166.5t-114.5 115t-165.5 41.5z" />
    <glyph glyph-name="c165" unicode="&#xa5;" horiz-adv-x="856" 
d="M715 1429h-96v27h209v-27h-68l-174 -532h209v-42h-225l-78 -216h303v-40h-299v-572h96v-27h-317v27h96v572h-303v40h303l-76 216h-227v42h211l-182 532h-70v27h311v-27h-94l227 -734z" />
    <glyph glyph-name="c166" unicode="&#xa6;" horiz-adv-x="1536" 
d="M0 540v109h1536v-109h-1536z" />
    <glyph glyph-name="c167" unicode="&#xa7;" horiz-adv-x="735" 
d="M123 140h115v-39v-48q0 -113 29 -166t90 -53q122 0 122 197q0 126 -28 180q-26 51 -156 168q-100 96 -121 117q-92 92 -92 221q0 95 55 186q36 55 72 88q-39 52 -53 95q-16 56 -16 118q0 143 60 225.5t165 82.5q108 0 167.5 -77t59.5 -216q0 -25 -2 -37h-113q2 45 2 80
q0 115 -27 168t-85 53q-53 0 -82 -58t-29 -161q0 -51 6 -94q5 -30 17.5 -53t42 -52.5t82.5 -73.5q156 -130 200 -202q48 -69 48 -170q0 -97 -46 -180q-31 -59 -88 -111q27 -40 45 -74q35 -70 35 -162q0 -129 -67 -207t-178 -78q-116 0 -179 84q-29 42 -40 94t-11 155z
M498 361q45 43 61 78q17 34 17 83q0 72 -35 134q-28 56 -76 106.5t-145 126.5q-53 42 -88 80q-74 -68 -74 -168q0 -28 7 -57q11 -49 47 -105q25 -39 53 -67t143 -131l69 -64z" />
    <glyph glyph-name="c168" unicode="&#xa8;" horiz-adv-x="797" 
d="M168 1616q0 37 24 59.5t62 22.5q39 0 62.5 -23t23.5 -61q0 -37 -24.5 -60.5t-61.5 -23.5q-39 0 -62.5 23.5t-23.5 62.5zM441 1616q0 37 23 59.5t61 22.5t63 -23.5t25 -60.5t-25 -61q-24 -25 -61 -25q-40 0 -63 24t-23 64zM615 1008v-451h-29q-3 114 -45 160
q-41 46 -135 46h-115v-722h162q169 0 211 78q24 44 35 129q4 27 4 98h26v-347h-673v28h108v1421h-108v27h653v-357h-27q-2 97 -16 154q-12 54 -37 94q-22 39 -54.5 53t-99.5 14h-184v-628h115q102 0 143 45q25 27 33 117l4 41h29z" />
    <glyph glyph-name="c169" unicode="&#xa9;" horiz-adv-x="1463" 
d="M729 -31q-178 0 -330 100.5t-240 271.5q-89 172 -89 374q0 205 89 378t241.5 274.5t330.5 101.5t331 -102q153 -101 242 -274t89 -378q0 -203 -89.5 -374t-242.5 -271.5t-332 -100.5zM121 709q0 -187 82.5 -348.5t223 -257t302.5 -95.5q165 0 304.5 94t220.5 257
q82 163 82 354q0 193 -82 357q-81 163 -221 258q-140 93 -306 93q-165 0 -305 -94q-139 -94 -220 -258t-81 -360zM862 590h80v-20q0 -104 -30 -205q-47 -144 -185 -144q-80 0 -129 51t-71.5 163t-22.5 294q0 257 58 373q58 117 186 117q98 0 140 -64q42 -63 48 -221l2 -16
h-80v24q0 140 -26.5 199t-87.5 59q-90 0 -127 -123q-13 -58 -15 -73q-12 -135 -12 -336q0 -208 27 -311q31 -119 121 -119q64 0 94 74t30 235v43z" />
    <glyph glyph-name="c170" unicode="&#xaa;" horiz-adv-x="991" 
d="M557 1446h-26l-234 270h133zM56 0v27h108v1421h-108v27h344v-27h-109v-1300l418 1327h227v-27h-108v-1421h108v-27h-344v27h109v1309l-422 -1336h-223z" />
    <glyph glyph-name="c171" unicode="&#xab;" horiz-adv-x="742" 
d="M328 228l-230 319v35l229 313v-76l-147 -200l147 -205zM643 228l-229 319v35l229 313v-76l-147 -200l147 -205v-186z" />
    <glyph glyph-name="c172" unicode="&#xac;" horiz-adv-x="1024" 
d="M4 491v93h1024v-418h-96v325h-928z" />
    <glyph glyph-name="c173" unicode="&#xad;" 
d="M0 544v105h768v-105h-768z" />
    <glyph glyph-name="c174" unicode="&#xae;" horiz-adv-x="1594" 
d="M1458 715q0 -203 -89 -374t-242.5 -271.5t-331.5 -100.5t-330 100.5t-241 271.5q-89 172 -89 374q0 205 89 378t241 274.5t330 101.5t331.5 -101.5t242.5 -274.5t89 -378zM188 713q0 -188 83 -349.5t224 -256t304 -94.5q164 0 303 94t220 256t81 352q0 194 -81 357
t-221 258q-140 93 -306 93t-305.5 -94t-220.5 -258t-81 -358zM580 1166h215q201 0 201 -224q0 -108 -50 -164q-32 -37 -129 -49q71 -4 102 -19t48 -52q19 -40 24 -174q6 -95 13 -134q5 -31 24 -55h-90q-11 35 -12 41q-5 28 -10 150q-4 108 -11 142t-26 56q-27 33 -103 33
h-66v-405h58v-17h-188v17h57v837h-57v17zM710 740h62q78 0 113 45.5t35 150.5q0 205 -133 205h-77v-401z" />
    <glyph glyph-name="c176" unicode="&#xb0;" horiz-adv-x="760" 
d="M658 1149q0 -85 -37 -157q-38 -71 -101.5 -113t-140.5 -42q-75 0 -139 42q-63 41 -100 111.5t-37 154.5q0 127 80 217q81 90 196 90q73 0 137.5 -41.5t103 -111t38.5 -150.5zM584 1141q0 95 -60 161.5t-145 66.5q-84 1 -143 -65q-60 -65 -60 -159t59.5 -159.5
t143.5 -65.5q53 0 101 30.5t77 81.5q27 51 27 109z" />
    <glyph glyph-name="c177" unicode="&#xb1;" horiz-adv-x="934" 
d="M852 774v-83h-344v-343h-82v343h-344v83h344v342h82v-342h344zM852 183v-83h-770v83h770z" />
    <glyph glyph-name="c178" unicode="&#xb2;" horiz-adv-x="953" 
d="M60 723v82l811 346v-82l-717 -305l717 -305v-82zM871 183v-83h-811v83h811z" />
    <glyph glyph-name="c179" unicode="&#xb3;" horiz-adv-x="953" 
d="M893 805v-82l-811 -346v82l717 305l-717 305v82zM82 100v83h811v-83h-811z" />
    <glyph glyph-name="c180" unicode="&#xb4;" horiz-adv-x="535" 
d="M137 1266l125 254q16 33 31 44t41 11q22 0 35.5 -12t13.5 -31q0 -15 -10 -29l-209 -237h-27z" />
    <glyph glyph-name="c182" unicode="&#xb6;" horiz-adv-x="735" 
d="M688 1475v-83h-88v-1470h-78v1470h-126v-1470h-80v887q-269 33 -269 332q0 98 35.5 174t100 118t147.5 42h358z" />
    <glyph glyph-name="c183" unicode="&#xb7;" horiz-adv-x="697" 
d="M221 1295q-12 -5 -22 -5q-40 0 -68.5 29t-28.5 70q0 44 28 72t73 28q50 0 76 -33.5t26 -95.5q0 -79 -29 -143q-28 -64 -82 -102.5t-127 -49.5v12q71 12 109 52q23 23 39 60t16 67q0 18 -10 39zM502 1295q-12 -5 -23 -5q-39 0 -66.5 28.5t-27.5 70.5q0 44 27 72t74 28
q49 0 75.5 -33.5t26.5 -95.5q0 -79 -28.5 -143t-82.5 -102.5t-127 -49.5v12q71 12 109 52q22 23 37.5 60t15.5 67q0 18 -10 39z" />
    <glyph glyph-name="c184" unicode="&#xb8;" horiz-adv-x="690" 
d="M97 1393q0 39 24 61q23 23 62 23q38 0 62 -23t24 -61q0 -39 -25 -62.5t-61 -23.5q-38 0 -62 23.5t-24 62.5zM416 1393q0 38 23.5 61t62.5 23t62.5 -23t23.5 -61q0 -39 -24.5 -62.5t-61.5 -23.5q-38 0 -62 24t-24 62zM494 363h119q-3 -134 -25 -201q-28 -88 -91.5 -136.5
t-152.5 -48.5q-172 0 -229 177q-39 122 -39 397q0 125 10 212t32.5 149t57.5 108q67 82 174 82q85 0 145 -50t89 -143q31 -105 31 -306h-417q2 -60 2 -173q0 -142 5 -200t21 -111q33 -121 131 -121q56 0 90 43q28 39 37 96q10 57 10 185v41zM198 639h296q0 16 -1 38t-1 28
v131q-3 136 -51 203q-31 43 -86 43q-56 0 -95 -45q-37 -46 -48 -121q-12 -74 -14 -277z" />
    <glyph glyph-name="c185" unicode="&#xb9;" horiz-adv-x="1247" 
d="M762 809q0 176 52 267q51 92 151 92q97 0 149 -93q52 -92 52 -266q0 -175 -53.5 -269.5t-151.5 -94.5q-199 0 -199 364zM770 85v87h371v-87h-371zM27 1475h244l309 -1390h8v1363h-96v27h231v-27h-95v-1448h-141l-313 1405h-10v-1378h96v-27h-233v27h96v1421h-96v27z
M862 754q0 -112 7 -160.5t26 -81.5q27 -41 66 -41q55 0 82 74q8 29 12 53q2 16 8 207v51q0 192 -35 246q-28 39 -65 39q-50 0 -74 -57q-24 -56 -27 -181v-149z" />
    <glyph glyph-name="c186" unicode="&#xba;" horiz-adv-x="740" 
d="M383 1204h-22l-237 271h132zM719 0h-184v156q-28 -75 -58 -105q-65 -72 -172 -72q-69 0 -114 30q-45 28 -67 88q-21 59 -21 151v798h-82v27h202v-829q0 -108 11 -162q7 -33 39 -54.5t71 -21.5q40 0 78.5 25t59.5 63q34 70 34 267v685h-82v27h203v-1046h82v-27z" />
    <glyph glyph-name="c187" unicode="&#xbb;" horiz-adv-x="742" 
d="M414 893l229 -319v-35l-229 -313v75l147 201l-147 205v186zM98 893l229 -319v-35l-229 -313v75l148 201l-148 205v186z" />
    <glyph glyph-name="c191" unicode="&#xbf;" 
d="M193 1546h73l121 -237l115 237h74l-129 -270h-125z" />
    <glyph glyph-name="c192" unicode="&#xc0;" horiz-adv-x="819" 
d="M219 0h-233v27h84l299 1474h76l301 -1474h88v-27h-319l-1 27h105l-99 476h-313l-94 -476h107zM220 545h299l-146 788z" />
    <glyph glyph-name="c192" unicode="&#x410;" horiz-adv-x="819" 
d="M219 0h-233v27h84l299 1474h76l301 -1474h88v-27h-319l-1 27h105l-99 476h-313l-94 -476h107zM220 545h299l-146 788z" />
    <glyph glyph-name="c193" unicode="&#xc1;" horiz-adv-x="862" 
d="M291 1433v-552h164q338 0 338 -420q0 -226 -92 -344t-269 -118h-376v28h108v1421h-108v27h668l-1 -414h-26l-5 57v0q-12 102 -30 162q-21 81 -62.5 117t-111.5 36h-197zM291 846v-805h160q57 0 103 24.5t67 67.5q43 90 43 363q0 108 -9.5 164.5t-37.5 105.5
q-45 80 -156 80h-170z" />
    <glyph glyph-name="c193" unicode="&#x411;" horiz-adv-x="862" 
d="M291 1433v-552h164q338 0 338 -420q0 -226 -92 -344t-269 -118h-376v28h108v1421h-108v27h668l-1 -414h-26l-5 57v0q-12 102 -30 162q-21 81 -62.5 117t-111.5 36h-197zM291 846v-805h160q57 0 103 24.5t67 67.5q43 90 43 363q0 108 -9.5 164.5t-37.5 105.5
q-45 80 -156 80h-170z" />
    <glyph glyph-name="c194" unicode="&#xc2;" horiz-adv-x="883" 
d="M56 1475h397q156 0 225 -86q70 -86 70 -275q0 -104 -23 -170q-24 -65 -75 -102q-52 -36 -142 -53q69 -11 106.5 -24.5t71.5 -43.5q101 -88 101 -289q0 -133 -39 -231t-112 -150t-173 -52h-407v28h108v1421h-108v27zM291 41h150q108 0 161 68q50 63 50 315q0 134 -23 207
t-77 102.5t-152 29.5h-109v-722zM291 805h100q122 0 183 64q49 54 49 221q0 124 -17 205q-28 138 -159 138h-156v-628z" />
    <glyph glyph-name="c194" unicode="&#x412;" horiz-adv-x="883" 
d="M56 1475h397q156 0 225 -86q70 -86 70 -275q0 -104 -23 -170q-24 -65 -75 -102q-52 -36 -142 -53q69 -11 106.5 -24.5t71.5 -43.5q101 -88 101 -289q0 -133 -39 -231t-112 -150t-173 -52h-407v28h108v1421h-108v27zM291 41h150q108 0 161 68q50 63 50 315q0 134 -23 207
t-77 102.5t-152 29.5h-109v-722zM291 805h100q122 0 183 64q49 54 49 221q0 124 -17 205q-28 138 -159 138h-156v-628z" />
    <glyph glyph-name="c195" unicode="&#xc3;" horiz-adv-x="725" 
d="M56 1475h654v-508h-26q-4 78 -4 102q-5 122 -31 211q-22 83 -65 118t-121 35h-172v-1406h123v-27h-358v27h108v1421h-108v27z" />
    <glyph glyph-name="c195" unicode="&#x413;" horiz-adv-x="725" 
d="M56 1475h654v-508h-26q-4 78 -4 102q-5 122 -31 211q-22 83 -65 118t-121 35h-172v-1406h123v-27h-358v27h108v1421h-108v27z" />
    <glyph glyph-name="c196" unicode="&#xc4;" horiz-adv-x="838" 
d="M783 1475v-27h-109v-1407h109v-334h-27q-5 108 -16 164q-14 62 -56.5 95t-107.5 33h-348q-95 0 -136 -64q-40 -66 -45 -228h-26v346q71 5 114.5 79t63.5 230t20 402v684h-108v27h672zM260 1433v-678q0 -56 -4 -192q-8 -234 -49 -360q-38 -110 -131 -162h471v1392h-287z
" />
    <glyph glyph-name="c196" unicode="&#x414;" horiz-adv-x="838" 
d="M783 1475v-27h-109v-1407h109v-334h-27q-5 108 -16 164q-14 62 -56.5 95t-107.5 33h-348q-95 0 -136 -64q-40 -66 -45 -228h-26v346q71 5 114.5 79t63.5 230t20 402v684h-108v27h672zM260 1433v-678q0 -56 -4 -192q-8 -234 -49 -360q-38 -110 -131 -162h471v1392h-287z
" />
    <glyph glyph-name="c197" unicode="&#xc5;" horiz-adv-x="797" 
d="M615 1008v-451h-29q-3 114 -45 160q-41 46 -135 46h-115v-722h162q169 0 211 78q24 44 35 129q4 27 4 98h26v-347h-673v28h108v1421h-108v27h653v-357h-27q-2 97 -16 154q-12 54 -37 94q-22 39 -54.5 53t-99.5 14h-184v-628h115q102 0 143 45q25 27 33 117l4 41h29z" />
    <glyph glyph-name="c197" unicode="&#x415;" horiz-adv-x="797" 
d="M615 1008v-451h-29q-3 114 -45 160q-41 46 -135 46h-115v-722h162q169 0 211 78q24 44 35 129q4 27 4 98h26v-347h-673v28h108v1421h-108v27h653v-357h-27q-2 97 -16 154q-12 54 -37 94q-22 39 -54.5 53t-99.5 14h-184v-628h115q102 0 143 45q25 27 33 117l4 41h29z" />
    <glyph glyph-name="c198" unicode="&#xc6;" horiz-adv-x="1235" 
d="M178 27h97v-27h-281v27h68l344 860l-213 561h-94v27h237v-27h-94l237 -643h82v643h-96v27h307v-27h-94v-643h82l234 643h-95v27h238v-26h-96l-209 -564l342 -858h67v-27h-280v27h96l-289 750h-90v-750h94v-27h-307v27h96v750h-94z" />
    <glyph glyph-name="c198" unicode="&#x416;" horiz-adv-x="1235" 
d="M178 27h97v-27h-281v27h68l344 860l-213 561h-94v27h237v-27h-94l237 -643h82v643h-96v27h307v-27h-94v-643h82l234 643h-95v27h238v-26h-96l-209 -564l342 -858h67v-27h-280v27h96l-289 750h-90v-750h94v-27h-307v27h96v750h-94z" />
    <glyph glyph-name="c199" unicode="&#xc7;" horiz-adv-x="789" 
d="M248 814l94 1q113 0 162 78q37 58 37 225q0 352 -168 352q-96 0 -131 -116q-24 -68 -27 -270h-133q0 16 1 37t1 26q9 128 47 201q40 79 103.5 115t163.5 36q87 0 148 -41q62 -42 94 -121.5t32 -189.5q0 -146 -51 -237q-25 -47 -72 -78q-44 -29 -131 -37q83 -15 128 -35.5
t79 -60.5q67 -83 67 -263q0 -200 -73 -321q-40 -70 -99 -102t-149 -32q-144 0 -221 109q-45 61 -62.5 138t-19.5 200h127q0 -12 -1 -36t-1 -35q0 -347 184 -347q42 0 78.5 20t54.5 54q44 84 44 336q0 134 -19 210.5t-62 109.5t-118 33h-107v41z" />
    <glyph glyph-name="c199" unicode="&#x417;" horiz-adv-x="789" 
d="M248 814l94 1q113 0 162 78q37 58 37 225q0 352 -168 352q-96 0 -131 -116q-24 -68 -27 -270h-133q0 16 1 37t1 26q9 128 47 201q40 79 103.5 115t163.5 36q87 0 148 -41q62 -42 94 -121.5t32 -189.5q0 -146 -51 -237q-25 -47 -72 -78q-44 -29 -131 -37q83 -15 128 -35.5
t79 -60.5q67 -83 67 -263q0 -200 -73 -321q-40 -70 -99 -102t-149 -32q-144 0 -221 109q-45 61 -62.5 138t-19.5 200h127q0 -12 -1 -36t-1 -35q0 -347 184 -347q42 0 78.5 20t54.5 54q44 84 44 336q0 134 -19 210.5t-62 109.5t-118 33h-107v41z" />
    <glyph glyph-name="c200" unicode="&#xc8;" horiz-adv-x="991" 
d="M56 0v27h108v1421h-108v27h344v-27h-109v-1300l418 1327h227v-27h-108v-1421h108v-27h-344v27h109v1309l-422 -1336h-223z" />
    <glyph glyph-name="c200" unicode="&#x418;" horiz-adv-x="991" 
d="M56 0v27h108v1421h-108v27h344v-27h-109v-1300l418 1327h227v-27h-108v-1421h108v-27h-344v27h109v1309l-422 -1336h-223z" />
    <glyph glyph-name="c201" unicode="&#xc9;" horiz-adv-x="991" 
d="M56 0v27h108v1421h-108v27h344v-27h-109v-1300l418 1327h227v-27h-108v-1421h108v-27h-344v27h109v1309l-422 -1336h-223zM303 1774h33q9 -84 49 -112q39 -27 152 -27q108 0 155 38q19 15 26 34t11 67h34q-3 -97 -32 -152q-52 -94 -204 -94q-94 0 -150 45
q-40 31 -55.5 72t-18.5 129z" />
    <glyph glyph-name="c201" unicode="&#x419;" horiz-adv-x="991" 
d="M56 0v27h108v1421h-108v27h344v-27h-109v-1300l418 1327h227v-27h-108v-1421h108v-27h-344v27h109v1309l-422 -1336h-223zM303 1774h33q9 -84 49 -112q39 -27 152 -27q108 0 155 38q19 15 26 34t11 67h34q-3 -97 -32 -152q-52 -94 -204 -94q-94 0 -150 45
q-40 31 -55.5 72t-18.5 129z" />
    <glyph glyph-name="c202" unicode="&#xca;" horiz-adv-x="877" 
d="M815 27h74v-27h-317v27h96l-307 751h-70v-751h94v-27h-329v27h108v1421h-108v27h329v-27h-94v-643h68l290 643h-98v27h230v-26h-97l-252 -560z" />
    <glyph glyph-name="c202" unicode="&#x41a;" horiz-adv-x="877" 
d="M815 27h74v-27h-317v27h96l-307 751h-70v-751h94v-27h-329v27h108v1421h-108v27h329v-27h-94v-643h68l290 643h-98v27h230v-26h-97l-252 -560z" />
    <glyph glyph-name="c203" unicode="&#xcb;" horiz-adv-x="910" 
d="M744 27h110v-27h-346v27h111v1406h-295v-732q0 -118 -12 -330q-8 -116 -17.5 -176.5t-32.5 -114.5q-37 -97 -135 -97q-62 0 -90 50q-29 61 -29 262v43h29v-8q0 -125 23 -175t80 -50q58 0 88 53q17 28 22 55q33 149 33 463v772h-109v27h682v-27h-112v-1421z" />
    <glyph glyph-name="c203" unicode="&#x41b;" horiz-adv-x="910" 
d="M744 27h110v-27h-346v27h111v1406h-295v-732q0 -118 -12 -330q-8 -116 -17.5 -176.5t-32.5 -114.5q-37 -97 -135 -97q-62 0 -90 50q-29 61 -29 262v43h29v-8q0 -125 23 -175t80 -50q58 0 88 53q17 28 22 55q33 149 33 463v772h-109v27h682v-27h-112v-1421z" />
    <glyph glyph-name="c204" unicode="&#xcc;" horiz-adv-x="1188" 
d="M1133 1475v-27h-109v-1421h109v-27h-326v27h96v1377l-6 1l-293 -1405h-96l-295 1403h-8v-1376h96v-27h-245v27h108v1421h-108v27h268l266 -1309h6l273 1309h264z" />
    <glyph glyph-name="c204" unicode="&#x41c;" horiz-adv-x="1188" 
d="M1133 1475v-27h-109v-1421h109v-27h-326v27h96v1377l-6 1l-293 -1405h-96l-295 1403h-8v-1376h96v-27h-245v27h108v1421h-108v27h268l266 -1309h6l273 1309h264z" />
    <glyph glyph-name="c205" unicode="&#xcd;" horiz-adv-x="991" 
d="M56 0v27h108v1421h-108v27h344v-27h-109v-643h410v643h-109v27h344v-27h-108v-1421h108v-27h-344v27h109v736h-410v-736h109v-27h-344z" />
    <glyph glyph-name="c205" unicode="&#x41d;" horiz-adv-x="991" 
d="M56 0v27h108v1421h-108v27h344v-27h-109v-643h410v643h-109v27h344v-27h-108v-1421h108v-27h-344v27h109v736h-410v-736h109v-27h-344z" />
    <glyph glyph-name="c206" unicode="&#xce;" horiz-adv-x="887" 
d="M88 764q0 197 22 337t66.5 228.5t115 131t169.5 42.5q87 0 144.5 -30.5t95.5 -95.5q54 -89 76 -226t22 -377q0 -226 -18.5 -376.5t-59 -243t-107.5 -135.5q-66 -42 -165 -42q-71 0 -134 26q-63 27 -102 73q-49 61 -73 147q-25 89 -38.5 228t-13.5 313zM217 744v-176
q3 -209 29 -328q48 -234 203 -234q37 0 77 21q41 20 64 51q32 44 49 122t26 209q7 132 7 353q0 197 -10 385q-9 133 -49 221q-52 108 -164 108q-92 0 -150 -85q-33 -54 -50.5 -127t-24.5 -196t-7 -324z" />
    <glyph glyph-name="c206" unicode="&#x41e;" horiz-adv-x="887" 
d="M88 764q0 197 22 337t66.5 228.5t115 131t169.5 42.5q87 0 144.5 -30.5t95.5 -95.5q54 -89 76 -226t22 -377q0 -226 -18.5 -376.5t-59 -243t-107.5 -135.5q-66 -42 -165 -42q-71 0 -134 26q-63 27 -102 73q-49 61 -73 147q-25 89 -38.5 228t-13.5 313zM217 744v-176
q3 -209 29 -328q48 -234 203 -234q37 0 77 21q41 20 64 51q32 44 49 122t26 209q7 132 7 353q0 197 -10 385q-9 133 -49 221q-52 108 -164 108q-92 0 -150 -85q-33 -54 -50.5 -127t-24.5 -196t-7 -324z" />
    <glyph glyph-name="c207" unicode="&#xcf;" horiz-adv-x="991" 
d="M56 0v27h108v1421h-108v27h880v-27h-108v-1421h108v-27h-344v27h109v1406h-410v-1406h109v-27h-344z" />
    <glyph glyph-name="c207" unicode="&#x41f;" horiz-adv-x="991" 
d="M56 0v27h108v1421h-108v27h880v-27h-108v-1421h108v-27h-344v27h109v1406h-410v-1406h109v-27h-344z" />
    <glyph glyph-name="c208" unicode="&#xd0;" horiz-adv-x="850" 
d="M56 1475h391q188 0 266 -103q82 -105 82 -311q0 -215 -88 -328q-88 -115 -254 -115h-162v-591h109v-27h-344v27h108v1421h-108v27zM291 660h158q49 0 99 28q50 26 71 66q47 88 47 307q0 132 -23 214.5t-71.5 120t-128.5 37.5h-152v-773z" />
    <glyph glyph-name="c208" unicode="&#x420;" horiz-adv-x="850" 
d="M56 1475h391q188 0 266 -103q82 -105 82 -311q0 -215 -88 -328q-88 -115 -254 -115h-162v-591h109v-27h-344v27h108v1421h-108v27zM291 660h158q49 0 99 28q50 26 71 66q47 88 47 307q0 132 -23 214.5t-71.5 120t-128.5 37.5h-152v-773z" />
    <glyph glyph-name="c209" unicode="&#xd1;" horiz-adv-x="836" 
d="M635 541h121v-31q0 -168 -47 -311q-67 -220 -279 -220q-123 0 -198 79q-75 77 -109.5 246t-34.5 450q0 261 39 426q39 166 121.5 243.5t212.5 77.5q103 0 164.5 -44t91.5 -146q29 -101 33 -270h-119q0 162 -16.5 256t-55.5 136q-38 41 -104 41q-139 0 -193 -188
q-18 -63 -24 -112q-6 -72 -12 -234q-7 -163 -7 -280q0 -185 9 -281t34 -192q48 -181 183 -181q98 0 144 113t46 356v66z" />
    <glyph glyph-name="c209" unicode="&#x421;" horiz-adv-x="836" 
d="M635 541h121v-31q0 -168 -47 -311q-67 -220 -279 -220q-123 0 -198 79q-75 77 -109.5 246t-34.5 450q0 261 39 426q39 166 121.5 243.5t212.5 77.5q103 0 164.5 -44t91.5 -146q29 -101 33 -270h-119q0 162 -16.5 256t-55.5 136q-38 41 -104 41q-139 0 -193 -188
q-18 -63 -24 -112q-6 -72 -12 -234q-7 -163 -7 -280q0 -185 9 -281t34 -192q48 -181 183 -181q98 0 144 113t46 356v66z" />
    <glyph glyph-name="c210" unicode="&#xd2;" horiz-adv-x="719" 
d="M422 1433v-1406h123v-27h-373v27h123v1406h-74q-88 0 -131 -88q-43 -90 -49 -286h-26v416h689v-416h-26q-6 197 -48.5 285.5t-131.5 88.5h-76z" />
    <glyph glyph-name="c210" unicode="&#x422;" horiz-adv-x="719" 
d="M422 1433v-1406h123v-27h-373v27h123v1406h-74q-88 0 -131 -88q-43 -90 -49 -286h-26v416h689v-416h-26q-6 197 -48.5 285.5t-131.5 88.5h-76z" />
    <glyph glyph-name="c211" unicode="&#xd3;" horiz-adv-x="758" 
d="M443 543l219 905h-97v27h207v-26h-67l-299 -1193q-69 -277 -197 -277q-73 0 -104 52q-19 31 -25 82.5t-6 167.5h27q2 -105 20 -144q26 -55 88 -55q68 0 100 49q20 31 29 54q27 60 51 165l-321 1098h-68v27h291v-27h-96z" />
    <glyph glyph-name="c211" unicode="&#x423;" horiz-adv-x="758" 
d="M443 543l219 905h-97v27h207v-26h-67l-299 -1193q-69 -277 -197 -277q-73 0 -104 52q-19 31 -25 82.5t-6 167.5h27q2 -105 20 -144q26 -55 88 -55q68 0 100 49q20 31 29 54q27 60 51 165l-321 1098h-68v27h291v-27h-96z" />
    <glyph glyph-name="c212" unicode="&#xd4;" horiz-adv-x="1075" 
d="M479 1571h-96v27h307v-27h-94v-139q110 -5 170 -32.5t111 -96.5q37 -55 61 -123q47 -161 47 -424q0 -205 -32.5 -356t-94.5 -234q-36 -46 -92 -76q-66 -32 -170 -34v-154h94v-27h-307v27h96v154q-27 0 -59 4q-59 5 -114.5 33.5t-90.5 72.5q-127 168 -127 598
q0 370 111 539q45 66 108 95t172 34v139zM479 1405q-77 -6 -119 -28.5t-69 -71.5q-27 -45 -43 -107q-14 -52 -20.5 -100t-8.5 -115q-2 -66 -2 -186q0 -153 5 -260t16.5 -177t32.5 -124q52 -142 208 -154v1323zM596 1405v-1323q154 12 211 154q30 73 41 186q10 140 10 387
q0 192 -10 277q-10 123 -63 219q-28 49 -71 72q-42 22 -118 28z" />
    <glyph glyph-name="c212" unicode="&#x424;" horiz-adv-x="1075" 
d="M479 1571h-96v27h307v-27h-94v-139q110 -5 170 -32.5t111 -96.5q37 -55 61 -123q47 -161 47 -424q0 -205 -32.5 -356t-94.5 -234q-36 -46 -92 -76q-66 -32 -170 -34v-154h94v-27h-307v27h96v154q-27 0 -59 4q-59 5 -114.5 33.5t-90.5 72.5q-127 168 -127 598
q0 370 111 539q45 66 108 95t172 34v139zM479 1405q-77 -6 -119 -28.5t-69 -71.5q-27 -45 -43 -107q-14 -52 -20.5 -100t-8.5 -115q-2 -66 -2 -186q0 -153 5 -260t16.5 -177t32.5 -124q52 -142 208 -154v1323zM596 1405v-1323q154 12 211 154q30 73 41 186q10 140 10 387
q0 192 -10 277q-10 123 -63 219q-28 49 -71 72q-42 22 -118 28z" />
    <glyph glyph-name="c213" unicode="&#xd5;" horiz-adv-x="758" 
d="M697 27h67v-27h-289v27h95l-226 661l-247 -661h96v-27h-199v27h68l262 715l-240 706h-69v27h290v-27h-96l189 -581l221 581h-94v27h198v-26h-67l-240 -625z" />
    <glyph glyph-name="c213" unicode="&#x425;" horiz-adv-x="758" 
d="M697 27h67v-27h-289v27h95l-226 661l-247 -661h96v-27h-199v27h68l262 715l-240 706h-69v27h290v-27h-96l189 -581l221 581h-94v27h198v-26h-67l-240 -625z" />
    <glyph glyph-name="c214" unicode="&#xd6;" horiz-adv-x="951" 
d="M56 -1v28h108v1421h-108v27h344v-27h-109v-1407h369v1407h-109v27h344v-27h-108v-1421h123v-279h-27q-12 104 -27 139q-18 53 -67 82.5t-121 29.5h-612z" />
    <glyph glyph-name="c214" unicode="&#x426;" horiz-adv-x="951" 
d="M56 -1v28h108v1421h-108v27h344v-27h-109v-1407h369v1407h-109v27h344v-27h-108v-1421h123v-279h-27q-12 104 -27 139q-18 53 -67 82.5t-121 29.5h-612z" />
    <glyph glyph-name="c215" unicode="&#xd7;" horiz-adv-x="865" 
d="M701 27h108v-27h-358v27h123v625q-24 -24 -37 -29q-57 -41 -156 -41q-62 0 -125 22q-78 31 -108 100q-31 70 -31 214v530h-82v27h318v-27h-111v-436q0 -175 4 -230t18 -96q15 -36 47 -56q33 -21 76 -21q62 0 114 29t73 77v733h-109v27h344v-27h-108v-1421z" />
    <glyph glyph-name="c215" unicode="&#x427;" horiz-adv-x="865" 
d="M701 27h108v-27h-358v27h123v625q-24 -24 -37 -29q-57 -41 -156 -41q-62 0 -125 22q-78 31 -108 100q-31 70 -31 214v530h-82v27h318v-27h-111v-436q0 -175 4 -230t18 -96q15 -36 47 -56q33 -21 76 -21q62 0 114 29t73 77v733h-109v27h344v-27h-108v-1421z" />
    <glyph glyph-name="c216" unicode="&#xd8;" horiz-adv-x="1321" 
d="M1266 -1h-1210v28h108v1421h-108v27h329v-27h-94v-1407h307v1407h-96v27h317v-27h-96v-1407h307v1407h-94v27h330v-27h-109v-1421h109v-28z" />
    <glyph glyph-name="c216" unicode="&#x428;" horiz-adv-x="1321" 
d="M1266 -1h-1210v28h108v1421h-108v27h329v-27h-94v-1407h307v1407h-96v27h317v-27h-96v-1407h307v1407h-94v27h330v-27h-109v-1421h109v-28z" />
    <glyph glyph-name="c217" unicode="&#xd9;" horiz-adv-x="1336" 
d="M1254 -252q-10 110 -21 141q-17 51 -69 80.5t-123 29.5h-985v28h108v1421h-108v27h329v-27h-94v-1407h307v1407h-96v27h317v-27h-96v-1407h307v1407h-94v27h330v-27h-109v-1421h123v-279h-26z" />
    <glyph glyph-name="c217" unicode="&#x429;" horiz-adv-x="1336" 
d="M1254 -252q-10 110 -21 141q-17 51 -69 80.5t-123 29.5h-985v28h108v1421h-108v27h329v-27h-94v-1407h307v1407h-96v27h317v-27h-96v-1407h307v1407h-94v27h330v-27h-109v-1421h123v-279h-26z" />
    <glyph glyph-name="c218" unicode="&#xda;" horiz-adv-x="936" 
d="M232 21v1413h-18q-74 0 -103 -29q-30 -28 -43 -110q-5 -33 -15 -119q-9 -86 -12 -174h-26v473h452v-27h-110v-567h163q117 0 192.5 -45.5t111.5 -139t36 -239.5q0 -139 -39.5 -243t-114 -159.5t-175.5 -55.5h-410v22h111zM357 839v-798h162q116 0 168 92q27 48 33 95
q7 82 9 213q0 8 1 24t1 23q0 185 -47 270q-47 81 -155 81h-172z" />
    <glyph glyph-name="c218" unicode="&#x42a;" horiz-adv-x="936" 
d="M232 21v1413h-18q-74 0 -103 -29q-30 -28 -43 -110q-5 -33 -15 -119q-9 -86 -12 -174h-26v473h452v-27h-110v-567h163q117 0 192.5 -45.5t111.5 -139t36 -239.5q0 -139 -39.5 -243t-114 -159.5t-175.5 -55.5h-410v22h111zM357 839v-798h162q116 0 168 92q27 48 33 95
q7 82 9 213q0 8 1 24t1 23q0 185 -47 270q-47 81 -155 81h-172z" />
    <glyph glyph-name="c219" unicode="&#xdb;" horiz-adv-x="1225" 
d="M56 0v27h108v1421h-108v27h344v-27h-109v-567h164q88 0 152 -24q63 -26 104 -75.5t61.5 -127.5t20.5 -185q0 -203 -72 -334q-72 -135 -258 -135h-407zM1061 27h111v-27h-334v27h94v1421h-108v27h348v-27h-111v-1421zM291 839v-798h160q79 0 125.5 38.5t66.5 126.5
q21 87 21 241q0 208 -39 297q-18 45 -62 70t-102 25h-170z" />
    <glyph glyph-name="c219" unicode="&#x42b;" horiz-adv-x="1225" 
d="M56 0v27h108v1421h-108v27h344v-27h-109v-567h164q88 0 152 -24q63 -26 104 -75.5t61.5 -127.5t20.5 -185q0 -203 -72 -334q-72 -135 -258 -135h-407zM1061 27h111v-27h-334v27h94v1421h-108v27h348v-27h-111v-1421zM291 839v-798h160q79 0 125.5 38.5t66.5 126.5
q21 87 21 241q0 208 -39 297q-18 45 -62 70t-102 25h-170z" />
    <glyph glyph-name="c220" unicode="&#xdc;" horiz-adv-x="869" 
d="M56 -1v28h108v1421h-108v27h344v-27h-109v-567h164q338 0 338 -424q0 -139 -40 -243t-114 -159.5t-176 -55.5h-407zM291 839v-798h160q57 0 103 24.5t67 67.5q43 90 43 363q0 106 -9.5 159t-37.5 103q-44 81 -156 81h-170z" />
    <glyph glyph-name="c220" unicode="&#x42c;" horiz-adv-x="869" 
d="M56 -1v28h108v1421h-108v27h344v-27h-109v-567h164q338 0 338 -424q0 -139 -40 -243t-114 -159.5t-176 -55.5h-407zM291 839v-798h160q57 0 103 24.5t67 67.5q43 90 43 363q0 106 -9.5 159t-37.5 103q-44 81 -156 81h-170z" />
    <glyph glyph-name="c221" unicode="&#xdd;" horiz-adv-x="834" 
d="M199 510v-59q0 -447 201 -447q119 0 172 169q18 61 24 121q15 115 17 469h-330v42h328q0 174 -2 219q-7 195 -35 293q-24 75 -70 117t-102 42q-80 0 -133 -69q-34 -46 -48 -109t-16 -180l-2 -77h-119q0 235 81 348.5t249 113.5q126 0 201 -79q56 -67 80 -146
q19 -59 30 -124.5t15 -153.5t4 -232q0 -221 -14 -346t-50 -227q-77 -218 -282 -218q-153 0 -226 105q-43 59 -65 141q-18 71 -23.5 126t-7.5 161h123z" />
    <glyph glyph-name="c221" unicode="&#x42d;" horiz-adv-x="834" 
d="M199 510v-59q0 -447 201 -447q119 0 172 169q18 61 24 121q15 115 17 469h-330v42h328q0 174 -2 219q-7 195 -35 293q-24 75 -70 117t-102 42q-80 0 -133 -69q-34 -46 -48 -109t-16 -180l-2 -77h-119q0 235 81 348.5t249 113.5q126 0 201 -79q56 -67 80 -146
q19 -59 30 -124.5t15 -153.5t4 -232q0 -221 -14 -346t-50 -227q-77 -218 -282 -218q-153 0 -226 105q-43 59 -65 141q-18 71 -23.5 126t-7.5 161h123z" />
    <glyph glyph-name="c222" unicode="&#xde;" horiz-adv-x="1280" 
d="M291 27h94v-27h-329v27h108v1421h-108v27h329v-27h-94v-643h193q0 22 2 70q1 47 2 63q9 202 55 338q77 227 297 227q92 0 147 -28.5t97 -99.5q41 -66 63 -144q45 -154 45 -498q0 -207 -20 -350q-20 -142 -61.5 -232.5t-108.5 -134t-162 -43.5q-115 0 -189 61t-114 191
q-20 63 -33 143q-12 94 -16 159q-3 64 -6 236h-191v-736zM611 561q0 -135 10 -237t43 -187q50 -135 176 -135q130 0 182 160q19 63 21 90q13 110 22 486v98q0 219 -14 339t-49 195q-23 51 -66 78q-44 28 -100 28q-98 0 -148 -81q-27 -49 -43 -109q-21 -90 -28 -192
q-6 -102 -6 -356v-177z" />
    <glyph glyph-name="c222" unicode="&#x42e;" horiz-adv-x="1280" 
d="M291 27h94v-27h-329v27h108v1421h-108v27h329v-27h-94v-643h193q0 22 2 70q1 47 2 63q9 202 55 338q77 227 297 227q92 0 147 -28.5t97 -99.5q41 -66 63 -144q45 -154 45 -498q0 -207 -20 -350q-20 -142 -61.5 -232.5t-108.5 -134t-162 -43.5q-115 0 -189 61t-114 191
q-20 63 -33 143q-12 94 -16 159q-3 64 -6 236h-191v-736zM611 561q0 -135 10 -237t43 -187q50 -135 176 -135q130 0 182 160q19 63 21 90q13 110 22 486v98q0 219 -14 339t-49 195q-23 51 -66 78q-44 28 -100 28q-98 0 -148 -81q-27 -49 -43 -109q-21 -90 -28 -192
q-6 -102 -6 -356v-177z" />
    <glyph glyph-name="c223" unicode="&#xdf;" horiz-adv-x="893" 
d="M838 1475v-27h-109v-1421h109v-27h-330v27h94v675h-149l-258 -675h96v-27h-306v27h83l272 696q-53 12 -79 23q-27 12 -58 37q-57 49 -83 120t-26 177q0 192 87 293q87 102 251 102h406zM602 744v704h-153q-96 0 -148 -45q-44 -36 -62 -100q-18 -63 -18 -187
q0 -160 23 -235q42 -137 229 -137h129z" />
    <glyph glyph-name="c223" unicode="&#x42f;" horiz-adv-x="893" 
d="M838 1475v-27h-109v-1421h109v-27h-330v27h94v675h-149l-258 -675h96v-27h-306v27h83l272 696q-53 12 -79 23q-27 12 -58 37q-57 49 -83 120t-26 177q0 192 87 293q87 102 251 102h406zM602 744v704h-153q-96 0 -148 -45q-44 -36 -62 -100q-18 -63 -18 -187
q0 -160 23 -235q42 -137 229 -137h129z" />
    <glyph glyph-name="c224" unicode="&#xe0;" horiz-adv-x="717" 
d="M670 0q-44 -8 -76 -8q-63 0 -87.5 31.5t-33.5 120.5q-28 -93 -70 -131q-43 -40 -116 -40q-217 0 -217 306q0 94 24 154q23 61 79 105t159 87q88 36 109 59q24 29 24 78v172q0 147 -123 147q-68 0 -102 -47q-33 -48 -33 -190v-57h-112q8 119 30 174q60 141 230 141
q230 0 230 -289v-700q0 -56 12 -75q10 -19 42 -19q10 0 31 6v-25zM465 680q-21 -35 -78 -61l-47 -25q-65 -28 -94 -67q-53 -66 -53 -283q0 -133 25 -189q26 -57 85 -57q66 0 111 70q29 45 40 110.5t11 188.5v313z" />
    <glyph glyph-name="c224" unicode="&#x430;" horiz-adv-x="717" 
d="M670 0q-44 -8 -76 -8q-63 0 -87.5 31.5t-33.5 120.5q-28 -93 -70 -131q-43 -40 -116 -40q-217 0 -217 306q0 94 24 154q23 61 79 105t159 87q88 36 109 59q24 29 24 78v172q0 147 -123 147q-68 0 -102 -47q-33 -48 -33 -190v-57h-112q8 119 30 174q60 141 230 141
q230 0 230 -289v-700q0 -56 12 -75q10 -19 42 -19q10 0 31 6v-25zM465 680q-21 -35 -78 -61l-47 -25q-65 -28 -94 -67q-53 -66 -53 -283q0 -133 25 -189q26 -57 85 -57q66 0 111 70q29 45 40 110.5t11 188.5v313z" />
    <glyph glyph-name="c225" unicode="&#xe1;" horiz-adv-x="789" 
d="M639 1530v-129q-13 -24 -31 -41q-37 -32 -124 -78l-107 -59q-70 -36 -96 -53q-75 -48 -101 -119q-18 -48 -24 -111q-15 -128 -20 -354l10 49q19 88 34.5 132t42.5 87q84 131 207 131q91 0 155 -56t97 -166.5t33 -264.5q0 -186 -49 -315q-37 -105 -100 -152.5t-166 -47.5
q-97 0 -159 48.5t-95 151.5q-43 125 -43 389q0 411 57 571q28 78 84 131q59 56 215 133q104 55 126.5 70t53.5 53zM232 496q2 -167 7 -231t23 -132q38 -129 144 -129q65 0 102.5 45.5t54 147.5t16.5 278q0 127 -4 193q-2 120 -30 194q-37 98 -123 98q-65 0 -106 -50
q-29 -40 -45 -80q-23 -58 -31 -120t-8 -192v-22z" />
    <glyph glyph-name="c225" unicode="&#x431;" horiz-adv-x="789" 
d="M639 1530v-129q-13 -24 -31 -41q-37 -32 -124 -78l-107 -59q-70 -36 -96 -53q-75 -48 -101 -119q-18 -48 -24 -111q-15 -128 -20 -354l10 49q19 88 34.5 132t42.5 87q84 131 207 131q91 0 155 -56t97 -166.5t33 -264.5q0 -186 -49 -315q-37 -105 -100 -152.5t-166 -47.5
q-97 0 -159 48.5t-95 151.5q-43 125 -43 389q0 411 57 571q28 78 84 131q59 56 215 133q104 55 126.5 70t53.5 53zM232 496q2 -167 7 -231t23 -132q38 -129 144 -129q65 0 102.5 45.5t54 147.5t16.5 278q0 127 -4 193q-2 120 -30 194q-37 98 -123 98q-65 0 -106 -50
q-29 -40 -45 -80q-23 -58 -31 -120t-8 -192v-22z" />
    <glyph glyph-name="c226" unicode="&#xe2;" horiz-adv-x="783" 
d="M461 836q95 -19 133 -49q111 -89 111 -332q0 -298 -115 -410q-66 -64 -207 -64q-99 0 -161.5 35t-91.5 108.5t-29 191.5v714q0 211 75 318.5t220 107.5q130 0 197.5 -81t67.5 -236q0 -90 -20 -151t-64 -98t-116 -54zM269 851l120 1q63 0 97 25.5t48.5 85.5t14.5 170
q0 158 -38.5 229t-125.5 71q-68 0 -110 -42q-21 -20 -37 -55q-25 -66 -25 -244v-772q0 -120 18 -189q18 -68 59.5 -98.5t113.5 -30.5q121 0 155 109q14 42 17 84q8 139 8 287v73q-3 130 -51 200q-41 61 -142 61h-122v35z" />
    <glyph glyph-name="c226" unicode="&#x432;" horiz-adv-x="783" 
d="M461 836q95 -19 133 -49q111 -89 111 -332q0 -298 -115 -410q-66 -64 -207 -64q-99 0 -161.5 35t-91.5 108.5t-29 191.5v714q0 211 75 318.5t220 107.5q130 0 197.5 -81t67.5 -236q0 -90 -20 -151t-64 -98t-116 -54zM269 851l120 1q63 0 97 25.5t48.5 85.5t14.5 170
q0 158 -38.5 229t-125.5 71q-68 0 -110 -42q-21 -20 -37 -55q-25 -66 -25 -244v-772q0 -120 18 -189q18 -68 59.5 -98.5t113.5 -30.5q121 0 155 109q14 42 17 84q8 139 8 287v73q-3 130 -51 200q-41 61 -142 61h-122v35z" />
    <glyph glyph-name="c227" unicode="&#xe3;" horiz-adv-x="682" 
d="M613 322v-17q0 -324 -271 -324q-272 0 -272 283q0 97 45 160q16 24 48 45q34 24 163 84q69 32 102.5 65t45.5 84t12 150q0 117 -35 169q-34 52 -111 52q-53 0 -82 -28q-18 -16 -30 -45q-19 -45 -19 -154v-31v-26h-114v22q0 39 4 80q6 88 69 148q62 55 178 55
q81 0 138.5 -30t87.5 -87t30 -137q0 -90 -39 -152q-24 -39 -64 -69.5t-120 -69.5q-92 -45 -116 -63q-42 -31 -59 -82t-17 -146q0 -136 35.5 -196t115.5 -60q79 0 121 58q19 27 25 64.5t8 129.5l2 47v21h119z" />
    <glyph glyph-name="c227" unicode="&#x433;" horiz-adv-x="682" 
d="M613 322v-17q0 -324 -271 -324q-272 0 -272 283q0 97 45 160q16 24 48 45q34 24 163 84q69 32 102.5 65t45.5 84t12 150q0 117 -35 169q-34 52 -111 52q-53 0 -82 -28q-18 -16 -30 -45q-19 -45 -19 -154v-31v-26h-114v22q0 39 4 80q6 88 69 148q62 55 178 55
q81 0 138.5 -30t87.5 -87t30 -137q0 -90 -39 -152q-24 -39 -64 -69.5t-120 -69.5q-92 -45 -116 -63q-42 -31 -59 -82t-17 -146q0 -136 35.5 -196t115.5 -60q79 0 121 58q19 27 25 64.5t8 129.5l2 47v21h119z" />
    <glyph glyph-name="c228" unicode="&#xe4;" horiz-adv-x="762" 
d="M101 -97h118v-28q0 -115 32.5 -164t109.5 -49t116 55q33 46 45 113q13 68 13 201v102q-41 -83 -82 -114.5t-109 -31.5q-83 0 -143 48q-60 46 -84 131q-41 135 -41 414q0 516 268 516q73 0 116 -38.5t77 -131.5v147h108v-1024q0 -214 -68 -312t-216 -98q-128 0 -194 67.5
t-66 196.5zM200 533q9 -339 34 -420q16 -49 48.5 -77t74.5 -28q93 0 139 113q13 36 16 70q14 111 17 364v47q0 250 -29 342q-45 129 -143 129q-54 0 -86 -41q-40 -50 -55.5 -139.5t-15.5 -271.5v-88z" />
    <glyph glyph-name="c228" unicode="&#x434;" horiz-adv-x="762" 
d="M101 -97h118v-28q0 -115 32.5 -164t109.5 -49t116 55q33 46 45 113q13 68 13 201v102q-41 -83 -82 -114.5t-109 -31.5q-83 0 -143 48q-60 46 -84 131q-41 135 -41 414q0 516 268 516q73 0 116 -38.5t77 -131.5v147h108v-1024q0 -214 -68 -312t-216 -98q-128 0 -194 67.5
t-66 196.5zM200 533q9 -339 34 -420q16 -49 48.5 -77t74.5 -28q93 0 139 113q13 36 16 70q14 111 17 364v47q0 250 -29 342q-45 129 -143 129q-54 0 -86 -41q-40 -50 -55.5 -139.5t-15.5 -271.5v-88z" />
    <glyph glyph-name="c229" unicode="&#xe5;" horiz-adv-x="690" 
d="M494 363h119q-3 -134 -25 -201q-28 -88 -91.5 -136.5t-152.5 -48.5q-172 0 -229 177q-39 122 -39 397q0 125 10 212t32.5 149t57.5 108q67 82 174 82q85 0 145 -50t89 -143q31 -105 31 -306h-417q2 -60 2 -173q0 -142 5 -200t21 -111q33 -121 131 -121q56 0 90 43
q28 39 37 96q10 57 10 185v41zM198 639h296q0 16 -1 38t-1 28v131q-3 136 -51 203q-31 43 -86 43q-56 0 -95 -45q-37 -46 -48 -121q-12 -74 -14 -277z" />
    <glyph glyph-name="c229" unicode="&#x435;" horiz-adv-x="690" 
d="M494 363h119q-3 -134 -25 -201q-28 -88 -91.5 -136.5t-152.5 -48.5q-172 0 -229 177q-39 122 -39 397q0 125 10 212t32.5 149t57.5 108q67 82 174 82q85 0 145 -50t89 -143q31 -105 31 -306h-417q2 -60 2 -173q0 -142 5 -200t21 -111q33 -121 131 -121q56 0 90 43
q28 39 37 96q10 57 10 185v41zM198 639h296q0 16 -1 38t-1 28v131q-3 136 -51 203q-31 43 -86 43q-56 0 -95 -45q-37 -46 -48 -121q-12 -74 -14 -277z" />
    <glyph glyph-name="c230" unicode="&#xe6;" horiz-adv-x="1051" 
d="M144 1046h-82v27h213v-27h-82l207 -452h71v854h-82v27h190v-881h72l220 452h-82v27h211v-27h-82l-195 -390l260 -629h68v-27h-273v27h82l-206 541h-75v-541h83v-27h-273v27h82v541h-73l-207 -541h82v-27h-273v27h68l262 629z" />
    <glyph glyph-name="c230" unicode="&#x436;" horiz-adv-x="1051" 
d="M144 1046h-82v27h213v-27h-82l207 -452h71v854h-82v27h190v-881h72l220 452h-82v27h211v-27h-82l-195 -390l260 -629h68v-27h-273v27h82l-206 541h-75v-541h83v-27h-273v27h82v541h-73l-207 -541h82v-27h-273v27h68l262 629z" />
    <glyph glyph-name="c231" unicode="&#xe7;" horiz-adv-x="717" 
d="M76 320h125v-31v-16q0 -147 32.5 -208t112.5 -61q79 0 115 60q24 39 27 88q3 16 6 153v27q0 128 -36 177q-36 47 -128 47h-86v35l84 1q85 0 129 72q29 47 29 166q0 143 -30 197q-29 54 -106 54q-145 0 -145 -251q0 -35 2 -52h-119q2 103 33.5 176t91.5 110.5t142 37.5
q78 0 134 -32t85.5 -93t29.5 -147q0 -208 -176 -254q72 -10 109 -39q86 -65 86 -221q0 -103 -35 -178t-99 -116t-151 -41q-135 0 -196 85q-26 32 -41 82q-19 54 -25 172z" />
    <glyph glyph-name="c231" unicode="&#x437;" horiz-adv-x="717" 
d="M76 320h125v-31v-16q0 -147 32.5 -208t112.5 -61q79 0 115 60q24 39 27 88q3 16 6 153v27q0 128 -36 177q-36 47 -128 47h-86v35l84 1q85 0 129 72q29 47 29 166q0 143 -30 197q-29 54 -106 54q-145 0 -145 -251q0 -35 2 -52h-119q2 103 33.5 176t91.5 110.5t142 37.5
q78 0 134 -32t85.5 -93t29.5 -147q0 -208 -176 -254q72 -10 109 -39q86 -65 86 -221q0 -103 -35 -178t-99 -116t-151 -41q-135 0 -196 85q-26 32 -41 82q-19 54 -25 172z" />
    <glyph glyph-name="c232" unicode="&#xe8;" horiz-adv-x="795" 
d="M746 0h-185v156q-24 -71 -57 -105q-65 -72 -170 -72t-155 65.5t-50 203.5v798h-82v27h205v-829q0 -124 10 -162q9 -34 39.5 -55t71.5 -21q38 0 77.5 25t57.5 63q35 70 35 267v685h-82v27h203v-1046h82v-27z" />
    <glyph glyph-name="c232" unicode="&#x438;" horiz-adv-x="795" 
d="M746 0h-185v156q-24 -71 -57 -105q-65 -72 -170 -72t-155 65.5t-50 203.5v798h-82v27h205v-829q0 -124 10 -162q9 -34 39.5 -55t71.5 -21q38 0 77.5 25t57.5 63q35 70 35 267v685h-82v27h203v-1046h82v-27z" />
    <glyph glyph-name="c233" unicode="&#xe9;" horiz-adv-x="795" 
d="M217 1475h27q5 -49 14 -70q25 -76 152 -76q88 0 129 41q25 28 31 105h27q-2 -131 -48 -188q-45 -59 -147 -59q-79 0 -125 42q-22 20 -34 43t-18 59q-5 35 -8 103zM746 0h-185v156q-33 -95 -85 -136t-140 -41q-107 0 -157 64.5t-50 204.5v798h-82v27h205v-829
q0 -117 12 -162q20 -76 107 -76q41 0 80 25t57 63q35 70 35 267v685h-82v27h203v-1046h82v-27z" />
    <glyph glyph-name="c233" unicode="&#x439;" horiz-adv-x="795" 
d="M217 1475h27q5 -49 14 -70q25 -76 152 -76q88 0 129 41q25 28 31 105h27q-2 -131 -48 -188q-45 -59 -147 -59q-79 0 -125 42q-22 20 -34 43t-18 59q-5 35 -8 103zM746 0h-185v156q-33 -95 -85 -136t-140 -41q-107 0 -157 64.5t-50 204.5v798h-82v27h205v-829
q0 -117 12 -162q20 -76 107 -76q41 0 80 25t57 63q35 70 35 267v685h-82v27h203v-1046h82v-27z" />
    <glyph glyph-name="c234" unicode="&#xea;" horiz-adv-x="742" 
d="M393 664l289 -637h60v-27h-271v27h82l-229 541h-78v-541h88v-27h-287v27h82v1421h-82v27h205v-881h62l233 452h-82v27h207v-27h-82z" />
    <glyph glyph-name="c234" unicode="&#x43a;" horiz-adv-x="742" 
d="M393 664l289 -637h60v-27h-271v27h82l-229 541h-78v-541h88v-27h-287v27h82v1421h-82v27h205v-881h62l233 452h-82v27h207v-27h-82z" />
    <glyph glyph-name="c235" unicode="&#xeb;" horiz-adv-x="731" 
d="M600 1047v-1020h82v-27h-284v27h81v1011h-227v-641q0 -211 -29 -313q-10 -46 -40 -72.5t-68 -26.5q-59 0 -83 43t-24 144q0 41 -2 72h21q10 -97 25 -124.5t59 -27.5q59 0 82 58q24 69 24 280v617h-82v26h547v-26h-82z" />
    <glyph glyph-name="c235" unicode="&#x43b;" horiz-adv-x="731" 
d="M600 1047v-1020h82v-27h-284v27h81v1011h-227v-641q0 -211 -29 -313q-10 -46 -40 -72.5t-68 -26.5q-59 0 -83 43t-24 144q0 41 -2 72h21q10 -97 25 -124.5t59 -27.5q59 0 82 58q24 69 24 280v617h-82v26h547v-26h-82z" />
    <glyph glyph-name="c236" unicode="&#xec;" horiz-adv-x="961" 
d="M830 1046v-1019h82v-27h-285v27h82v979h-6l-236 -1006h-88l-209 1006h-6v-979h82v-27h-199v27h82v1019h-82v27h230l182 -952l223 952h230v-27h-82z" />
    <glyph glyph-name="c236" unicode="&#x43c;" horiz-adv-x="961" 
d="M830 1046v-1019h82v-27h-285v27h82v979h-6l-236 -1006h-88l-209 1006h-6v-979h82v-27h-199v27h82v1019h-82v27h230l182 -952l223 952h230v-27h-82z" />
    <glyph glyph-name="c237" unicode="&#xed;" horiz-adv-x="801" 
d="M252 558v-531h82v-27h-287v27h82v1019h-82v27h205v-479h297v452h-82v27h202v-1046h83v-27h-285v27h82v531h-297z" />
    <glyph glyph-name="c237" unicode="&#x43d;" horiz-adv-x="801" 
d="M252 558v-531h82v-27h-287v27h82v1019h-82v27h205v-479h297v452h-82v27h202v-1046h83v-27h-285v27h82v531h-297z" />
    <glyph glyph-name="c238" unicode="&#xee;" horiz-adv-x="758" 
d="M76 535v14q0 283 74.5 417t232.5 134q154 0 226.5 -138.5t72.5 -430.5q0 -145 -18 -249.5t-56 -173t-95 -102t-136 -33.5q-131 0 -199 91q-54 71 -77 178q-23 108 -25 293zM205 557v-215q4 -138 31 -225q16 -59 53 -91q38 -32 88 -32q51 0 89 32.5t54 90.5q19 66 25 160
t6 299q0 175 -6.5 255t-28.5 138q-16 51 -53.5 81t-85.5 30q-67 0 -108 -58q-23 -36 -35 -76q-19 -64 -24 -137t-5 -252z" />
    <glyph glyph-name="c238" unicode="&#x43e;" horiz-adv-x="758" 
d="M76 535v14q0 283 74.5 417t232.5 134q154 0 226.5 -138.5t72.5 -430.5q0 -145 -18 -249.5t-56 -173t-95 -102t-136 -33.5q-131 0 -199 91q-54 71 -77 178q-23 108 -25 293zM205 557v-215q4 -138 31 -225q16 -59 53 -91q38 -32 88 -32q51 0 89 32.5t54 90.5q19 66 25 160
t6 299q0 175 -6.5 255t-28.5 138q-16 51 -53.5 81t-85.5 30q-67 0 -108 -58q-23 -36 -35 -76q-19 -64 -24 -137t-5 -252z" />
    <glyph glyph-name="c239" unicode="&#xef;" horiz-adv-x="801" 
d="M669 27h83v-27h-285v27h82v760q0 109 -6 162q-12 118 -107 118q-52 0 -92 -33q-23 -17 -43 -49q-33 -49 -41 -92t-8 -168v-698h82v-27h-287v27h82v1019h-82v27h199v-135q40 79 74 108q56 50 147 50q74 0 118 -33t65 -104q19 -71 19 -185v-747z" />
    <glyph glyph-name="c239" unicode="&#x43f;" horiz-adv-x="801" 
d="M669 27h83v-27h-285v27h82v760q0 109 -6 162q-12 118 -107 118q-52 0 -92 -33q-23 -17 -43 -49q-33 -49 -41 -92t-8 -168v-698h82v-27h-287v27h82v1019h-82v27h199v-135q40 79 74 108q56 50 147 50q74 0 118 -33t65 -104q19 -71 19 -185v-747z" />
    <glyph glyph-name="c240" unicode="&#xf0;" horiz-adv-x="778" 
d="M252 -332h82v-29h-287v29h82v1378h-82v27h199v-137q57 154 203 154q90 0 145 -57q56 -56 81 -179q26 -123 26 -321q0 -281 -61 -413q-60 -132 -189 -132q-83 0 -142 49q-29 27 -57 78v-447zM246 533q0 -171 18 -316q29 -204 154 -204q56 0 86 40q37 50 49 127
q19 140 19 357q0 194 -14.5 310t-46 167t-85.5 51q-66 0 -112 -63q-39 -51 -53.5 -152t-14.5 -317z" />
    <glyph glyph-name="c240" unicode="&#x440;" horiz-adv-x="778" 
d="M252 -332h82v-29h-287v29h82v1378h-82v27h199v-137q57 154 203 154q90 0 145 -57q56 -56 81 -179q26 -123 26 -321q0 -281 -61 -413q-60 -132 -189 -132q-83 0 -142 49q-29 27 -57 78v-447zM246 533q0 -171 18 -316q29 -204 154 -204q56 0 86 40q37 50 49 127
q19 140 19 357q0 194 -14.5 310t-46 167t-85.5 51q-66 0 -112 -63q-39 -51 -53.5 -152t-14.5 -317z" />
    <glyph glyph-name="c241" unicode="&#xf1;" horiz-adv-x="703" 
d="M512 377h119v-8q0 -191 -69.5 -293.5t-198.5 -102.5q-100 0 -163 62t-93.5 189t-30.5 329q0 280 70.5 412.5t220.5 132.5q79 0 137.5 -39t89.5 -112t31 -171v-41h-119v50v12q0 75 -3.5 108t-16.5 68q-35 104 -121 104q-76 0 -113 -77q-27 -61 -38 -156.5t-11 -286.5
q0 -220 15 -339.5t50.5 -170.5t100.5 -51q52 0 84 39q34 45 46.5 110t12.5 193v39z" />
    <glyph glyph-name="c241" unicode="&#x441;" horiz-adv-x="703" 
d="M512 377h119v-8q0 -191 -69.5 -293.5t-198.5 -102.5q-100 0 -163 62t-93.5 189t-30.5 329q0 280 70.5 412.5t220.5 132.5q79 0 137.5 -39t89.5 -112t31 -171v-41h-119v50v12q0 75 -3.5 108t-16.5 68q-35 104 -121 104q-76 0 -113 -77q-27 -61 -38 -156.5t-11 -286.5
q0 -220 15 -339.5t50.5 -170.5t100.5 -51q52 0 84 39q34 45 46.5 110t12.5 193v39z" />
    <glyph glyph-name="c242" unicode="&#xf2;" horiz-adv-x="1221" 
d="M1174 27v-27h-285v27h82v713q0 212 -16 262q-26 71 -101 71q-45 0 -88 -28q-27 -21 -47 -47q-29 -43 -39 -91q-9 -47 -9 -161v-719h83v-27h-285v27h82v719q0 195 -14 246q-19 79 -98 79q-41 0 -82 -30q-32 -22 -54 -54q-33 -41 -42 -83t-9 -152v-725h82v-27h-287v27h82
v1019h-82v27h197l-2 -133q45 77 82 109q58 49 147 49q74 0 113 -34q39 -33 72 -126q48 88 95 123q48 35 122 35q218 0 218 -262v-807h83z" />
    <glyph glyph-name="c242" unicode="&#x442;" horiz-adv-x="1221" 
d="M1174 27v-27h-285v27h82v713q0 212 -16 262q-26 71 -101 71q-45 0 -88 -28q-27 -21 -47 -47q-29 -43 -39 -91q-9 -47 -9 -161v-719h83v-27h-285v27h82v719q0 195 -14 246q-19 79 -98 79q-41 0 -82 -30q-32 -22 -54 -54q-33 -41 -42 -83t-9 -152v-725h82v-27h-287v27h82
v1019h-82v27h197l-2 -133q45 77 82 109q58 49 147 49q74 0 113 -34q39 -33 72 -126q48 88 95 123q48 35 122 35q218 0 218 -262v-807h83z" />
    <glyph glyph-name="c243" unicode="&#xf3;" horiz-adv-x="629" 
d="M541 1046h-82v27h176v-27h-55l-250 -1093q-19 -92 -47.5 -167.5t-50.5 -101.5q-28 -37 -78 -37q-51 0 -69.5 42.5t-18.5 160.5v41h26v-35q0 -62 16.5 -86t57.5 -24q45 0 67 33q23 33 50 135q4 15 11 43t15 62l-253 1027h-56v27h258v-27h-82l187 -796z" />
    <glyph glyph-name="c243" unicode="&#x443;" horiz-adv-x="629" 
d="M541 1046h-82v27h176v-27h-55l-250 -1093q-19 -92 -47.5 -167.5t-50.5 -101.5q-28 -37 -78 -37q-51 0 -69.5 42.5t-18.5 160.5v41h26v-35q0 -62 16.5 -86t57.5 -24q45 0 67 33q23 33 50 135q4 15 11 43t15 62l-253 1027h-56v27h258v-27h-82l187 -796z" />
    <glyph glyph-name="c244" unicode="&#xf4;" horiz-adv-x="967" 
d="M542 -412h85v-28h-285v28h82v411q-52 4 -78 9q-113 14 -170 84q-100 119 -100 430q0 171 23 276q22 106 71 171q45 57 99 79t155 23v377h-82v27h200v-404q102 -1 157 -23.5t97 -78.5q51 -66 74 -171t23 -276q0 -307 -101 -430q-33 -36 -80 -59q-55 -25 -170 -33v-412z
M424 35v1002q-70 -5 -102.5 -17.5t-55.5 -44.5q-41 -62 -51 -149q-7 -101 -10 -287q0 -9 -1 -25t-1 -24q0 -129 6 -202.5t20.5 -117.5t43.5 -80q23 -30 56.5 -42.5t94.5 -12.5zM542 35q92 0 138 37t64 131.5t18 282.5q0 47 -2 69q-7 287 -23 350q-9 30 -31.5 62t-44.5 45
q-30 19 -119 25v-1002z" />
    <glyph glyph-name="c244" unicode="&#x444;" horiz-adv-x="967" 
d="M542 -412h85v-28h-285v28h82v411q-52 4 -78 9q-113 14 -170 84q-100 119 -100 430q0 171 23 276q22 106 71 171q45 57 99 79t155 23v377h-82v27h200v-404q102 -1 157 -23.5t97 -78.5q51 -66 74 -171t23 -276q0 -307 -101 -430q-33 -36 -80 -59q-55 -25 -170 -33v-412z
M424 35v1002q-70 -5 -102.5 -17.5t-55.5 -44.5q-41 -62 -51 -149q-7 -101 -10 -287q0 -9 -1 -25t-1 -24q0 -129 6 -202.5t20.5 -117.5t43.5 -80q23 -30 56.5 -42.5t94.5 -12.5zM542 35q92 0 138 37t64 131.5t18 282.5q0 47 -2 69q-7 287 -23 350q-9 30 -31.5 62t-44.5 45
q-30 19 -119 25v-1002z" />
    <glyph glyph-name="c245" unicode="&#xf5;" horiz-adv-x="713" 
d="M113 27h82v-27h-195v27h76l221 518l-219 501h-61v27h264v-27h-82l164 -407l164 407h-82v27h203l-1 -27h-82l-179 -433l259 -586h68v-27h-270v27h82l-209 479z" />
    <glyph glyph-name="c245" unicode="&#x445;" horiz-adv-x="713" 
d="M113 27h82v-27h-195v27h76l221 518l-219 501h-61v27h264v-27h-82l164 -407l164 407h-82v27h203l-1 -27h-82l-179 -433l259 -586h68v-27h-270v27h82l-209 479z" />
    <glyph glyph-name="c246" unicode="&#xf6;" horiz-adv-x="805" 
d="M692 0h-131v156q-24 -71 -57 -105q-65 -72 -170 -72t-155 65.5t-50 203.5v798h-82v27h205v-829q0 -124 10 -162q9 -34 39.5 -55t71.5 -21q38 0 77.5 25t57.5 63q35 70 35 267v685h-82v27h203v-1046h106v-287h-26z" />
    <glyph glyph-name="c246" unicode="&#x446;" horiz-adv-x="805" 
d="M692 0h-131v156q-24 -71 -57 -105q-65 -72 -170 -72t-155 65.5t-50 203.5v798h-82v27h205v-829q0 -124 10 -162q9 -34 39.5 -55t71.5 -21q38 0 77.5 25t57.5 63q35 70 35 267v685h-82v27h203v-1046h106v-287h-26z" />
    <glyph glyph-name="c247" unicode="&#xf7;" horiz-adv-x="756" 
d="M626 27h83v-27h-285v27h82v446q-40 -52 -83 -75t-103 -23q-112 0 -164 66q-26 35 -35 86q-12 94 -12 196v323h-68v27h191v-342q0 -218 20 -264q11 -24 39 -41q27 -16 57 -16q76 0 117 56.5t41 160.5v419h-82v27h202v-1046z" />
    <glyph glyph-name="c247" unicode="&#x447;" horiz-adv-x="756" 
d="M626 27h83v-27h-285v27h82v446q-40 -52 -83 -75t-103 -23q-112 0 -164 66q-26 35 -35 86q-12 94 -12 196v323h-68v27h191v-342q0 -218 20 -264q11 -24 39 -41q27 -16 57 -16q76 0 117 56.5t41 160.5v419h-82v27h202v-1046z" />
    <glyph glyph-name="c248" unicode="&#xf8;" horiz-adv-x="1221" 
d="M1174 0h-195v133q-28 -49 -57 -82q-63 -76 -170 -76q-50 0 -83 15q-32 15 -56.5 49t-47.5 96q-47 -89 -94 -123.5t-123 -34.5q-219 0 -219 262v807h-82v27h205v-739q0 -151 2.5 -189t14.5 -71q22 -72 100 -72q42 0 86 29q54 37 74 100.5t20 195.5l2 719h-82v27h202v-745
q0 -198 17 -254q24 -70 95 -70q44 0 84 27q28 17 51 49q34 43 43.5 87.5t9.5 154.5v724h-82v27h202v-1046h83v-27z" />
    <glyph glyph-name="c248" unicode="&#x448;" horiz-adv-x="1221" 
d="M1174 0h-195v133q-28 -49 -57 -82q-63 -76 -170 -76q-50 0 -83 15q-32 15 -56.5 49t-47.5 96q-47 -89 -94 -123.5t-123 -34.5q-219 0 -219 262v807h-82v27h205v-739q0 -151 2.5 -189t14.5 -71q22 -72 100 -72q42 0 86 29q54 37 74 100.5t20 195.5l2 719h-82v27h202v-745
q0 -198 17 -254q24 -70 95 -70q44 0 84 27q28 17 51 49q34 43 43.5 87.5t9.5 154.5v724h-82v27h202v-1046h83v-27z" />
    <glyph glyph-name="c249" unicode="&#xf9;" horiz-adv-x="1233" 
d="M979 0v133q-28 -49 -57 -82q-63 -76 -170 -76q-50 0 -83 15q-32 15 -56.5 49t-47.5 96q-47 -89 -94 -123.5t-123 -34.5q-219 0 -219 262v807h-82v27h205v-739q0 -151 2.5 -189t14.5 -71q22 -72 100 -72q42 0 86 29q54 37 74 100.5t20 195.5l2 719h-82v27h202v-745
q0 -198 17 -254q24 -70 95 -70q44 0 84 27q28 17 51 49q34 43 43.5 87.5t9.5 154.5v724h-82v27h202v-1046h107v-287h-26l-51 260h-142z" />
    <glyph glyph-name="c249" unicode="&#x449;" horiz-adv-x="1233" 
d="M979 0v133q-28 -49 -57 -82q-63 -76 -170 -76q-50 0 -83 15q-32 15 -56.5 49t-47.5 96q-47 -89 -94 -123.5t-123 -34.5q-219 0 -219 262v807h-82v27h205v-739q0 -151 2.5 -189t14.5 -71q22 -72 100 -72q42 0 86 29q54 37 74 100.5t20 195.5l2 719h-82v27h202v-745
q0 -198 17 -254q24 -70 95 -70q44 0 84 27q28 17 51 49q34 43 43.5 87.5t9.5 154.5v724h-82v27h202v-1046h107v-287h-26l-51 260h-142z" />
    <glyph glyph-name="c250" unicode="&#xfa;" horiz-adv-x="781" 
d="M203 21v1026h-23q-40 0 -58.5 -11.5t-33.5 -44.5q-34 -74 -45 -208h-22v290h302v-381h111q143 0 217 -86.5t74 -252.5q0 -172 -76.5 -263t-220.5 -91h-307v22h82zM323 35h105q89 0 127 55q41 64 41 289q0 151 -38 214.5t-126 63.5h-109v-622z" />
    <glyph glyph-name="c250" unicode="&#x44a;" horiz-adv-x="781" 
d="M203 21v1026h-23q-40 0 -58.5 -11.5t-33.5 -44.5q-34 -74 -45 -208h-22v290h302v-381h111q143 0 217 -86.5t74 -252.5q0 -172 -76.5 -263t-220.5 -91h-307v22h82zM323 35h105q89 0 127 55q41 64 41 289q0 151 -38 214.5t-126 63.5h-109v-622z" />
    <glyph glyph-name="c251" unicode="&#xfb;" horiz-adv-x="991" 
d="M129 1046h-82v27h205v-381h109q142 0 216.5 -87t74.5 -250q0 -114 -35 -193q-34 -79 -101 -120.5t-161 -41.5h-308v27h82v1019zM742 1046h-84v27h204v-1046h82v-27h-284v27h82v1019zM252 35h111q77 0 119 64q26 36 33 85q7 50 7 179q0 159 -30 223q-14 30 -48 50.5
t-73 20.5h-119v-622z" />
    <glyph glyph-name="c251" unicode="&#x44b;" horiz-adv-x="991" 
d="M129 1046h-82v27h205v-381h109q142 0 216.5 -87t74.5 -250q0 -114 -35 -193q-34 -79 -101 -120.5t-161 -41.5h-308v27h82v1019zM742 1046h-84v27h204v-1046h82v-27h-284v27h82v1019zM252 35h111q77 0 119 64q26 36 33 85q7 50 7 179q0 159 -30 223q-14 30 -48 50.5
t-73 20.5h-119v-622z" />
    <glyph glyph-name="c252" unicode="&#xfc;" horiz-adv-x="707" 
d="M129 27v1019h-82v27h205v-381h109q291 0 291 -337q0 -173 -77 -264q-76 -92 -220 -92h-308v28h82zM252 35h103q98 0 132.5 66.5t34.5 257.5q0 115 -14.5 179t-46.5 91.5t-90 27.5h-119v-622z" />
    <glyph glyph-name="c252" unicode="&#x44c;" horiz-adv-x="707" 
d="M129 27v1019h-82v27h205v-381h109q291 0 291 -337q0 -173 -77 -264q-76 -92 -220 -92h-308v28h82zM252 35h103q98 0 132.5 66.5t34.5 257.5q0 115 -14.5 179t-46.5 91.5t-90 27.5h-119v-622z" />
    <glyph glyph-name="c253" unicode="&#xfd;" horiz-adv-x="701" 
d="M187 350q0 -167 24 -251q32 -99 119 -99q89 0 127 97q39 96 39 319q0 49 -4 142h-228v36h228v31q0 249 -23 336q-15 54 -49 85t-80 31q-62 0 -94 -43q-29 -37 -41 -92t-12 -153v-54h-119q2 176 69.5 269.5t194.5 93.5q78 0 123 -25q45 -24 80 -86q45 -76 66 -185
q20 -108 20 -269q0 -191 -32 -313q-31 -123 -96 -181q-65 -60 -167 -60q-126 0 -188 85q-35 49 -50.5 109t-25.5 177h119z" />
    <glyph glyph-name="c253" unicode="&#x44d;" horiz-adv-x="701" 
d="M187 350q0 -167 24 -251q32 -99 119 -99q89 0 127 97q39 96 39 319q0 49 -4 142h-228v36h228v31q0 249 -23 336q-15 54 -49 85t-80 31q-62 0 -94 -43q-29 -37 -41 -92t-12 -153v-54h-119q2 176 69.5 269.5t194.5 93.5q78 0 123 -25q45 -24 80 -86q45 -76 66 -185
q20 -108 20 -269q0 -191 -32 -313q-31 -123 -96 -181q-65 -60 -167 -60q-126 0 -188 85q-35 49 -50.5 109t-25.5 177h119z" />
    <glyph glyph-name="c254" unicode="&#xfe;" horiz-adv-x="1090" 
d="M252 27h82v-27h-287v27h82v1019h-82v27h205v-479h158q2 85 14 195q21 125 80 207q75 104 213 104q103 0 168.5 -60t97 -184.5t31.5 -322.5q0 -228 -41 -355q-71 -205 -262 -205q-128 0 -199 90q-55 73 -78 182t-26 313h-156v-531zM539 344q3 -350 172 -350q103 0 143 123
q16 45 19 86q7 123 9 334v49q0 169 -6 250t-26 133q-18 52 -54 81q-37 30 -83 30q-73 0 -111 -58q-25 -37 -39 -89t-19 -137t-5 -226v-226z" />
    <glyph glyph-name="c254" unicode="&#x44e;" horiz-adv-x="1090" 
d="M252 27h82v-27h-287v27h82v1019h-82v27h205v-479h158q2 85 14 195q21 125 80 207q75 104 213 104q103 0 168.5 -60t97 -184.5t31.5 -322.5q0 -228 -41 -355q-71 -205 -262 -205q-128 0 -199 90q-55 73 -78 182t-26 313h-156v-531zM539 344q3 -350 172 -350q103 0 143 123
q16 45 19 86q7 123 9 334v49q0 169 -6 250t-26 133q-18 52 -54 81q-37 30 -83 30q-73 0 -111 -58q-25 -37 -39 -89t-19 -137t-5 -226v-226z" />
    <glyph glyph-name="c255" unicode="&#xff;" horiz-adv-x="727" 
d="M598 1046v-1019h82v-27h-284v27h81v456h-108l-178 -456h82v-27h-273v27h68l205 475q-185 36 -185 254q0 155 90 246q40 39 87 55t122 16h293v-27h-82zM477 1046h-100q-79 1 -115 -52q-23 -38 -31 -87t-8 -165q0 -117 33 -168q37 -56 125 -56h96v528z" />
    <glyph glyph-name="c255" unicode="&#x44f;" horiz-adv-x="727" 
d="M598 1046v-1019h82v-27h-284v27h81v456h-108l-178 -456h82v-27h-273v27h68l205 475q-185 36 -185 254q0 155 90 246q40 39 87 55t122 16h293v-27h-82zM477 1046h-100q-79 1 -115 -52q-23 -38 -31 -87t-8 -165q0 -117 33 -168q37 -56 125 -56h96v528z" />
    <glyph glyph-name="c145" unicode="&#x2018;" horiz-adv-x="414" 
d="M154 1303l24 4v0q41 0 67 -28t26 -70q0 -45 -28 -73t-71 -28q-49 0 -76 34q-29 33 -29 91q0 124 64 204t174 95v-12q-74 -14 -108 -51q-22 -25 -38 -61.5t-16 -67.5q0 -17 11 -37z" />
    <glyph glyph-name="c146" unicode="&#x2019;" horiz-adv-x="414" 
d="M221 1305l-22 -4v0q-40 0 -68.5 28.5t-28.5 69.5q0 44 28 72t73 28q50 0 76 -33t26 -94q0 -80 -28.5 -144t-82.5 -103t-127 -50v13q74 14 109 51q23 23 39.5 60.5t16.5 68.5q0 16 -11 37z" />
    <glyph glyph-name="c147" unicode="&#x201c;" horiz-adv-x="697" 
d="M221 4q-12 -4 -22 -4q-40 0 -68.5 29t-28.5 70q0 44 28 72t73 28q50 0 76 -34q26 -33 26 -95q0 -81 -29 -144q-28 -63 -82 -102t-127 -50v13q71 10 109 51q23 23 39 60.5t16 66.5q0 18 -10 39zM502 4q-12 -4 -23 -4q-39 0 -66.5 28.5t-27.5 70.5q0 44 27 72t74 28
q49 0 76 -34q26 -33 26 -95q0 -81 -28.5 -144t-82.5 -102t-127 -50v13q71 10 109 51q22 23 38 60q15 38 15 67q0 18 -10 39z" />
    <glyph glyph-name="c148" unicode="&#x201d;" horiz-adv-x="697" 
d="M434 1278q13 4 23 4q41 0 68.5 -28t27.5 -70q0 -45 -28 -73q-28 -27 -72 -27q-103 0 -103 129q0 123 64 202t174 93v-11q-70 -13 -109 -51q-23 -23 -39 -61t-16 -68q0 -18 10 -39zM154 1278q12 4 22 4q41 0 67.5 -28t26.5 -70q0 -45 -27 -73q-27 -27 -73 -27
q-103 0 -103 129q0 123 64 202t174 93v-11q-71 -13 -109 -51q-22 -24 -37.5 -61.5t-15.5 -67.5q0 -18 11 -39z" />
    <glyph glyph-name="c149" unicode="&#x2022;" horiz-adv-x="1209" 
d="M565 1053q7 0 20 1q14 1 19 1q81 0 148 -40q68 -39 106.5 -107t38.5 -150q0 -79 -39 -146.5t-107 -107t-149 -39.5q-78 0 -146 40.5t-107 108.5q-40 69 -40 148q0 112 73 194t183 97z" />
  </font>
</defs>
</svg>
