<?xml version="1.0" encoding="utf-8"?>
<!-- Generator: Adobe Illustrator 15.1.0, SVG Export Plug-In . SVG Version: 6.00 Build 0)  -->
<!DOCTYPE svg PUBLIC "-//W3C//DTD SVG 1.1//EN" "http://www.w3.org/Graphics/SVG/1.1/DTD/svg11.dtd">
<svg version="1.1" id="logo" xmlns="http://www.w3.org/2000/svg" xmlns:xlink="http://www.w3.org/1999/xlink" x="0px" y="0px"
	 width="142px" height="31px" viewBox="0 0 142 31" enable-background="new 0 0 142 31" xml:space="preserve">
<path fill="#FFFFFF" d="M15.55,0C6.679,0,0,6.159,0,15c0,8.842,6.679,15,15.55,15C24.421,30,31,23.842,31,15
	C31,6.159,24.421,0,15.55,0z M15.55,23.344c-4.785,0-7.875-3.674-7.875-8.344c0-4.768,3.09-8.344,7.875-8.344
	s7.875,3.675,7.875,8.344C23.424,19.67,20.334,23.344,15.55,23.344z"/>
<path fill="#FFFFFF" d="M60.899,10c0-5.567-3.73-10-10.182-10H36v30h7.561V19.898h3.831L52.331,30H61l-5.948-11.031
	C57.774,18.041,60.899,15.258,60.899,10z M49.508,13.196h-5.948V6.804h5.948c2.016,0,3.629,1.134,3.629,3.196
	C53.137,12.062,51.524,13.196,49.508,13.196z"/>
<path fill="#FFFFFF" d="M94.065,19.371h5.255v2.285c-1.011,0.893-3.234,1.688-5.456,1.688c-4.851,0-8.186-3.674-8.186-8.344
	c0-4.768,3.437-8.344,8.186-8.344c2.829,0,5.152,1.788,6.264,3.675l6.367-3.278C104.474,3.477,100.533,0,93.965,0
	C85.174,0,78,5.762,78,15c0,9.238,7.174,15,15.965,15c5.558,0,9.902-2.186,13.035-5.662V12.815H93.258L94.065,19.371z"/>
<path fill="#FFFFFF" d="M126.55,0C117.678,0,111,6.159,111,15c0,8.842,6.678,15,15.55,15S142,23.842,142,15
	C142,6.159,135.422,0,126.55,0z M126.55,23.344c-4.784,0-7.875-3.674-7.875-8.344c0-4.768,3.091-8.344,7.875-8.344
	s7.875,3.675,7.875,8.344C134.425,19.67,131.334,23.344,126.55,23.344z"/>
<rect x="66" fill="#FFFFFF" width="8" height="30"/>
</svg>
