<svg xmlns="http://www.w3.org/2000/svg" viewBox="0 0 242.8 85.03"><defs><style>.cls-1{fill:#ffcc02;}.cls-2{fill:#02788a;}.cls-3{fill:#b9dbe0;}</style></defs><title>salauno-logo-blog-def</title><g id="Layer_2" data-name="Layer 2"><g id="Layer_1-2" data-name="Layer 1"><path class="cls-1" d="M8.89,51.42a17.11,17.11,0,0,1-6.21-.9C.76,49.75,0,48.71,0,47v-.1c0-1.57.81-2.58,2.25-2.58,1.67,0,2.43,2,6.3,2,2.82,0,4.3-.76,4.3-2.34s-.91-2.25-4.45-2.68C2.91,40.63.1,38.57.1,33.65S3.87,25.76,10,25.76a16.11,16.11,0,0,1,5.54.76c2,.72,2.54,1.77,2.54,3.2v.19c0,1.67-.86,2.53-2.15,2.53-1.62,0-2.77-1.58-5.87-1.58-2.77,0-3.78.81-3.78,2.24s1.15,2,4.59,2.39c6,.76,8.46,2.73,8.46,7.79s-3.2,8.12-10.47,8.12m29.2-2.77c-1.82,2-4.2,2.77-7.26,2.77-4.68,0-8.12-2.58-8.12-7.55,0-5.26,4.21-7.84,10-7.84a19.42,19.42,0,0,1,5,.57V34.22c0-2.29-1.24-3.49-4.59-3.49-3.92,0-4.63,2-6.5,2a2.17,2.17,0,0,1-2.1-2.39v-.14c0-1.53.62-2.53,2.44-3.25a20.08,20.08,0,0,1,7.27-1.24c6.93,0,10.47,2.29,10.47,8.08v14.1c0,2.39-.81,3.54-3.06,3.54h-.15a3.39,3.39,0,0,1-3.39-2.73m-.38-3.54V40.34a20.77,20.77,0,0,0-3.59-.29c-2.82,0-4.63,1-4.63,3.44S31.06,47,33.4,47a6.4,6.4,0,0,0,4.3-1.91m18.2-22.7V47.93a3.17,3.17,0,0,1-3.44,3.45h-.1a3.16,3.16,0,0,1-3.44-3.45V21c0-2.29,1-3.54,3.3-3.54h.14c2.39,0,3.54,1.48,3.54,5M75.26,48.65c-1.82,2-4.2,2.77-7.26,2.77-4.69,0-8.13-2.58-8.13-7.55,0-5.26,4.2-7.84,10-7.84a19.41,19.41,0,0,1,5,.57V34.22c0-2.29-1.24-3.49-4.58-3.49-3.92,0-4.64,2-6.5,2a2.17,2.17,0,0,1-2.1-2.39v-.14c0-1.53.62-2.53,2.44-3.25a20,20,0,0,1,7.26-1.24c6.93,0,10.47,2.29,10.47,8.08v14.1c0,2.39-.82,3.54-3.06,3.54h-.14a3.39,3.39,0,0,1-3.39-2.73m-.38-3.54V40.34a20.71,20.71,0,0,0-3.59-.29c-2.82,0-4.63,1-4.63,3.44S68.24,47,70.58,47a6.39,6.39,0,0,0,4.3-1.91"/><path class="cls-2" d="M103.22,48.65a15.78,15.78,0,0,1-8.79,2.82c-4.21,0-7.31-1.63-7.31-6.79V29.25a3.17,3.17,0,0,1,3.44-3.44h.1a3.17,3.17,0,0,1,3.44,3.44V42.92c0,2.48,1.05,3.35,3.54,3.35A14.83,14.83,0,0,0,102.88,45V29.25a3.17,3.17,0,0,1,3.44-3.44h.09a3.17,3.17,0,0,1,3.44,3.44V47.84c0,2.39-.9,3.54-3.25,3.54h-.14c-1.67,0-2.72-.91-3.25-2.73m18.2-16.25V47.93A3.16,3.16,0,0,1,118,51.38h-.09a3.17,3.17,0,0,1-3.44-3.44V29.35c0-2.39,1-3.54,3.29-3.54h.15c1.72,0,2.87.81,3.3,3a16.25,16.25,0,0,1,9.27-3.15c3.63,0,6.74,1.39,6.74,7V47.93a3.17,3.17,0,0,1-3.44,3.44h-.1a3.17,3.17,0,0,1-3.44-3.44V34.46c0-2.49-1-3.2-3.11-3.2a16.73,16.73,0,0,0-5.69,1.14m31.35,19.07c-7.07,0-12.8-4.73-12.8-12.76s5.73-13,12.8-13,12.81,5,12.81,13-5.74,12.77-12.81,12.76m0-5c3.39,0,5.74-2.34,5.74-7.74s-2.34-8.13-5.74-8.13S147,33.31,147,38.76s2.34,7.74,5.73,7.74"/><path class="cls-3" d="M238.18,44.94a26.55,26.55,0,0,0,3.45-.27c2.1-.4,1.2-1.23-1.36-1.28-1.13,0-2.3,0-3.42.06l-.67,0-.29-.23,1.23-.25a13.25,13.25,0,0,0,2.75-.75c1.33-.7-.67-1.42-3.06-1.1-1,.14-2.07.33-3,.53l-1.16.26a32.24,32.24,0,0,0-6.33-.78,76.74,76.74,0,0,0-24.87,2.64c-3.66,1-1.83,2,1.14,2.57C199.67,46.82,182.9,51,182.9,51c-.42.11-.52.74-.61.77.21,0,2,.18,3.13.25,1.8.11,20.57-4.85,20.57-4.85l2,.46-15.21,3.73c-1,.28-2.2,1.14-.39,1.25a12.19,12.19,0,0,0,3.83-.37c2-.55,14.05-3.31,14.76-3.53,7.36,1.76,17.39-.42,22.48-1.54a9.69,9.69,0,0,0,1.41-.41l1.49.2a26.61,26.61,0,0,0,3.44.28c2.5,0,3.15-.88,1-1.3-.94-.18-2-.33-3-.46l-1-.12a1.29,1.29,0,0,0,.11-.36l1.26,0"/><path class="cls-2" d="M190.07,49.77V39.18H193v10.4c0,.58.25.62.53.62h2.07c0,.76.07,1.57,0,1.8a11,11,0,0,1-3,.59c-1.8,0-2.57-.84-2.57-2.83m-2.22-10.59H185v10.4c0,.58-.24.62-.54.62h-2.07c0,.77-.07,1.59-.06,1.81a11.36,11.36,0,0,0,3,.59c1.8,0,2.57-.84,2.57-2.83Z"/><path class="cls-2" d="M187.86,23.33v3.29a1.4,1.4,0,0,1-2.8,0V23.33a1.4,1.4,0,1,1,2.8,0m2.67,0v3.29a1.4,1.4,0,0,0,2.8,0V23.33a1.4,1.4,0,1,0-2.8,0"/><path class="cls-1" d="M207.72,14.86a12.29,12.29,0,0,0-2.3.77l-.83.37A15.73,15.73,0,0,0,203,12.91a16.48,16.48,0,0,0,1.6-1.56,7.38,7.38,0,0,0,1.84-2.51c.66-2.1-1.57-3.57-3.42-2.27a15.58,15.58,0,0,0-2.22,2c-.29.31-.61.64-.9,1a14.21,14.21,0,0,0-3-1.75,20.54,20.54,0,0,0,.93-2.09,8.81,8.81,0,0,0,.91-3.45c-.15-2.5-3-3.1-4.44-.95a19.11,19.11,0,0,0-1.5,3.08A17.35,17.35,0,0,0,192,6.57a24.24,24.24,0,0,0-2.84-.18c-10.38,0-16.85,5.92-16.85,18.54s6.46,18.46,16.85,18.46S206,37.46,206,24.93a30,30,0,0,0-.45-5.24,12.44,12.44,0,0,0,1.83-.66,5.9,5.9,0,0,0,2.17-1.29,1.79,1.79,0,0,0-1.87-2.87M189.2,36.31c-5.54,0-8.46-3.85-8.46-11.38s2.93-11.45,8.46-11.45,8.46,3.85,8.46,11.45-2.93,11.38-8.46,11.38"/><path class="cls-2" d="M218.72,10.53a3.93,3.93,0,0,1,1.88.49A3.49,3.49,0,0,1,222,12.44a3.84,3.84,0,0,1,0,3.82,3.6,3.6,0,0,1-1.41,1.42,3.84,3.84,0,0,1-3.81,0,3.59,3.59,0,0,1-1.41-1.42,3.83,3.83,0,0,1,0-3.82A3.55,3.55,0,0,1,216.84,11a3.94,3.94,0,0,1,1.88-.49m0,.63a3.23,3.23,0,0,0-1.57.41A3,3,0,0,0,216,12.76a3.18,3.18,0,0,0,0,3.18,3,3,0,0,0,1.18,1.18,3.2,3.2,0,0,0,3.17,0,3,3,0,0,0,1.18-1.18,3.21,3.21,0,0,0,.42-1.58,3.27,3.27,0,0,0-.42-1.6,3,3,0,0,0-1.19-1.18,3.28,3.28,0,0,0-1.57-.41M217,16.47V12.35h1.41a3.34,3.34,0,0,1,1,.12,1,1,0,0,1,.52.4,1,1,0,0,1,.19.6,1.1,1.1,0,0,1-.32.79,1.28,1.28,0,0,1-.85.37,1.22,1.22,0,0,1,.35.22,4.73,4.73,0,0,1,.61.82l.5.81h-.81l-.36-.65a3.34,3.34,0,0,0-.69-1,.87.87,0,0,0-.53-.14h-.39v1.75Zm.66-2.32h.81a1.29,1.29,0,0,0,.79-.17.59.59,0,0,0,.11-.78.58.58,0,0,0-.28-.21,2.13,2.13,0,0,0-.67-.07h-.76Z"/><path class="cls-3" d="M.78,65.64,4,65.57l2.17,0a6.72,6.72,0,0,1,4,1.07,3.71,3.71,0,0,1,1.47,3.2,3.45,3.45,0,0,1-.59,1.93A3.4,3.4,0,0,1,9.61,73a3.63,3.63,0,0,1,1.11.6,4.19,4.19,0,0,1,.9,1,5,5,0,0,1,.6,1.2,4.06,4.06,0,0,1,.22,1.33,4.2,4.2,0,0,1-1.54,3.58,7.1,7.1,0,0,1-4.36,1.16l-2.3,0L.78,81.78l-.16-.16V65.81ZM4.35,68.2V72H6a2,2,0,0,0,1.58-.55A2.06,2.06,0,0,0,8,70.08a1.93,1.93,0,0,0-.47-1.33A2,2,0,0,0,6,68.23H5.06Zm1.94,6.46H4.35v4.58q.61,0,1.37,0a5.78,5.78,0,0,0,1.41-.12,1.91,1.91,0,0,0,1.1-.68,2.31,2.31,0,0,0,.44-1.5,2.4,2.4,0,0,0-.57-1.6A2.23,2.23,0,0,0,6.29,74.66Z"/><path class="cls-3" d="M21,78.56h4.08a9.47,9.47,0,0,1-.12,1.61,1.83,1.83,0,0,1-.75,1.15,2.69,2.69,0,0,1-1.67.48H17.22A2,2,0,0,1,15,79.62V65.69l.16-.16h1.38q2.19,0,2.19,2.4V78.65Q19.8,78.56,21,78.56Z"/><path class="cls-3" d="M28.56,80.6Q26,78.51,26,73.72a12.35,12.35,0,0,1,.48-3.63,7.26,7.26,0,0,1,1.39-2.62,5.78,5.78,0,0,1,2.19-1.6A7.46,7.46,0,0,1,33,65.34a7.56,7.56,0,0,1,2.92.54,5.72,5.72,0,0,1,2.21,1.61,7.4,7.4,0,0,1,1.39,2.63,13.76,13.76,0,0,1,0,7.21,7.27,7.27,0,0,1-1.39,2.62,5.78,5.78,0,0,1-2.21,1.6,7.59,7.59,0,0,1-2.92.54A6.76,6.76,0,0,1,28.56,80.6Zm1.9-3.24A2.49,2.49,0,0,0,33,79.19a2.42,2.42,0,0,0,1.56-.48,3.32,3.32,0,0,0,.94-1.22A5.68,5.68,0,0,0,36,75.84,14.21,14.21,0,0,0,36.1,74q0-.82-.06-1.83a7.62,7.62,0,0,0-.34-1.89,3.55,3.55,0,0,0-.89-1.48,2.45,2.45,0,0,0-1.78-.6,2.4,2.4,0,0,0-1.73.58,3.55,3.55,0,0,0-.89,1.42A7,7,0,0,0,30,72Q30,73,30,73.7a15.61,15.61,0,0,0,.11,1.92A9.7,9.7,0,0,0,30.46,77.36Z"/><path class="cls-3" d="M48.85,72.62l3.69,0q2.49,0,2.49,2.35v6.18a20.93,20.93,0,0,1-6.36,1,7.47,7.47,0,0,1-3-.56,5.79,5.79,0,0,1-2.18-1.62,7.09,7.09,0,0,1-1.33-2.6,12.5,12.5,0,0,1-.45-3.49,10.17,10.17,0,0,1,.62-3.72A7.7,7.7,0,0,1,44,67.45a6.84,6.84,0,0,1,2.41-1.59,7.8,7.8,0,0,1,2.84-.53A10.54,10.54,0,0,1,55,67a2.5,2.5,0,0,1-.18.76,4.92,4.92,0,0,1-.38.75,3.53,3.53,0,0,1-.52.66,4.35,4.35,0,0,1-.6.51,7.16,7.16,0,0,0-3.94-1.27q-3.83,0-3.83,5.35t3.92,5.33c.36,0,.71,0,1,0s.67-.08,1-.14V77.36c0-.36,0-.67,0-.94s0-.49,0-.68H50.38a2,2,0,0,1-1.4-.39,1.65,1.65,0,0,1-.39-1.21A5.09,5.09,0,0,1,48.85,72.62Z"/><path class="cls-2" d="M64.22,73.56a.63.63,0,0,1,.7-.71h.66a.63.63,0,0,1,.7.71v.53a2.76,2.76,0,0,1,0,.39h0a3.33,3.33,0,0,1,2.84-1.84,2.41,2.41,0,0,1,2.53,1.79h0a3.43,3.43,0,0,1,3-1.79c1.8,0,2.84,1,2.84,3.3V80.8a.64.64,0,0,1-.71.71H76a.63.63,0,0,1-.71-.71V76.35c0-1-.19-1.73-1.19-1.73-1.46,0-2.21,1.5-2.21,3V80.8a.63.63,0,0,1-.7.71h-.75a.64.64,0,0,1-.71-.71V76.35c0-.93-.14-1.73-1.16-1.73-1.53,0-2.24,1.56-2.24,3V80.8a.63.63,0,0,1-.7.71h-.75a.63.63,0,0,1-.7-.71Z"/><path class="cls-2" d="M84.55,72.64c2.46,0,3.84,1.75,3.84,4.13a.75.75,0,0,1-.75.73H82.36A2.49,2.49,0,0,0,85,79.88a3.58,3.58,0,0,0,1.87-.56c.43-.2.73-.15,1,.24l.2.34a.65.65,0,0,1-.24,1,5.47,5.47,0,0,1-2.94.87,4.44,4.44,0,0,1-4.66-4.54A4.28,4.28,0,0,1,84.55,72.64Zm1.7,3.55a1.76,1.76,0,0,0-1.75-1.92,2.11,2.11,0,0,0-2.09,1.92Z"/><path class="cls-2" d="M91.15,73.56a.65.65,0,0,1,.71-.71h.73a.64.64,0,0,1,.71.71v8.18A3.19,3.19,0,0,1,90,85h-.25a.63.63,0,0,1-.7-.71v-.44c0-.54.34-.65.7-.7a1.38,1.38,0,0,0,1.41-1.58Zm0-2.89v-.51a.65.65,0,0,1,.71-.71h.75a.63.63,0,0,1,.7.71v.51a.62.62,0,0,1-.7.7h-.75A.63.63,0,0,1,91.15,70.67Z"/><path class="cls-2" d="M100.85,72.64a4.54,4.54,0,1,1-4.76,4.54A4.57,4.57,0,0,1,100.85,72.64Zm0,7.24a2.71,2.71,0,1,0-2.57-2.7A2.58,2.58,0,0,0,100.85,79.88Z"/><path class="cls-2" d="M108.4,73.56a.63.63,0,0,1,.7-.71h.66a.65.65,0,0,1,.71.71v.82a3.64,3.64,0,0,1-.05.6h0A3,3,0,0,1,113,72.78c.48,0,.65.24.65.71v.66a.66.66,0,0,1-.73.71c-1.58,0-2.35,1.56-2.35,3.14V80.8a.63.63,0,0,1-.7.71h-.75a.63.63,0,0,1-.7-.71Z"/><path class="cls-2" d="M115.2,73.66c-.17-.49,0-.82.56-.82h.8a.76.76,0,0,1,.8.59L119,78.22a12.87,12.87,0,0,1,.32,1.31h0a11.13,11.13,0,0,1,.31-1.31l1.61-4.78a.76.76,0,0,1,.8-.59h.8c.53,0,.75.32.58.82l-2.62,7.28a.75.75,0,0,1-.8.58h-1.36a.74.74,0,0,1-.8-.58Z"/><path class="cls-2" d="M126,70.67v-.51a.63.63,0,0,1,.7-.71h.75a.65.65,0,0,1,.71.71v.51a.63.63,0,0,1-.71.7h-.75A.62.62,0,0,1,126,70.67Zm0,2.89a.63.63,0,0,1,.7-.71h.75a.63.63,0,0,1,.7.71V80.8a.63.63,0,0,1-.7.71h-.75a.63.63,0,0,1-.7-.71Z"/><path class="cls-2" d="M131.1,79.87l.2-.31c.25-.36.54-.39,1-.17a3.89,3.89,0,0,0,1.94.59c.75,0,1.21-.34,1.21-.88,0-1.41-4.3-.88-4.3-3.86,0-1.7,1.5-2.6,3.32-2.6a4.83,4.83,0,0,1,2.41.63.65.65,0,0,1,.25,1l-.17.31c-.2.41-.53.46-1,.27a3.85,3.85,0,0,0-1.65-.43c-.75,0-1.17.31-1.17.85,0,1.43,4.3.87,4.3,3.82,0,1.53-1.29,2.67-3.3,2.67a5.08,5.08,0,0,1-2.89-.88A.61.61,0,0,1,131.1,79.87Z"/><path class="cls-2" d="M140.26,70.67v-.51a.63.63,0,0,1,.7-.71h.75a.65.65,0,0,1,.71.71v.51a.63.63,0,0,1-.71.7H141A.62.62,0,0,1,140.26,70.67Zm0,2.89a.63.63,0,0,1,.7-.71h.75a.63.63,0,0,1,.7.71V80.8a.63.63,0,0,1-.7.71H141a.63.63,0,0,1-.7-.71Z"/><path class="cls-2" d="M149.95,72.64a4.54,4.54,0,1,1-4.76,4.54A4.57,4.57,0,0,1,149.95,72.64Zm0,7.24a2.71,2.71,0,1,0-2.57-2.7A2.58,2.58,0,0,0,149.95,79.88Z"/><path class="cls-2" d="M157.5,73.56a.63.63,0,0,1,.7-.71h.66a.63.63,0,0,1,.7.71v.53a2.76,2.76,0,0,1,0,.39h0a3.38,3.38,0,0,1,3.08-1.84c1.92,0,3,1,3,3.3V80.8a.63.63,0,0,1-.71.71h-.73a.64.64,0,0,1-.71-.71V76.38c0-1.05-.27-1.77-1.36-1.77a2.59,2.59,0,0,0-2.5,2.84V80.8a.63.63,0,0,1-.7.71h-.75a.63.63,0,0,1-.7-.71Z"/></g></g></svg>