<svg width="47" height="36" viewBox="0 0 47 36" fill="none" xmlns="http://www.w3.org/2000/svg">
<g clip-path="url(#clip0_16_858)">
<path d="M16.5147 5.90822C16.6406 5.90822 16.7665 5.8753 16.8841 5.80947C17.0856 5.69427 17.2955 5.57907 17.5054 5.4721C17.8664 5.28285 18.0007 4.84673 17.816 4.50113C17.6229 4.1473 17.1779 4.01564 16.8253 4.19667C16.5986 4.31187 16.3803 4.4353 16.1536 4.55873C15.8682 4.7233 15.7254 5.05244 15.8094 5.36513C15.8934 5.67782 16.1788 5.89999 16.5147 5.90822Z" fill="white"/>
<path d="M33.659 5.84238C33.8605 5.95758 34.062 6.08101 34.2551 6.20444C34.5993 6.41838 35.0443 6.31964 35.2626 5.99049C35.4809 5.66135 35.3885 5.21701 35.0527 4.99484C34.8428 4.86318 34.6245 4.73152 34.4062 4.59986C34.062 4.43529 33.6422 4.56695 33.4491 4.88786C33.256 5.20878 33.3483 5.62844 33.6674 5.84238H33.659Z" fill="white"/>
<path d="M19.8562 4.4353C19.9318 4.4353 20.0073 4.42707 20.0829 4.40238C20.3096 4.32833 20.5279 4.2625 20.7546 4.2049C21.1324 4.0897 21.3507 3.69473 21.2415 3.32444C21.1324 2.94593 20.7378 2.72375 20.3516 2.8225C20.1081 2.88833 19.8646 2.96238 19.6127 3.04467C19.2685 3.15164 19.0586 3.48901 19.1174 3.84284C19.1845 4.18021 19.4952 4.4353 19.8562 4.4353Z" fill="white"/>
<path d="M27.0263 3.69471C27.2698 3.71939 27.5048 3.74408 27.7231 3.78522H27.8323C28.2353 3.81814 28.5879 3.51368 28.6215 3.11871C28.6551 2.72374 28.3444 2.37814 27.9414 2.34522C27.6979 2.31231 27.4461 2.27939 27.1774 2.24648C26.9843 2.23002 26.7912 2.27939 26.6317 2.40282C26.4805 2.52625 26.3798 2.69905 26.363 2.88831C26.321 3.28328 26.6149 3.64534 27.0179 3.68648L27.0263 3.69471Z" fill="white"/>
<path d="M23.4412 3.6865H23.5168C23.7519 3.66182 23.987 3.64536 24.222 3.6289C24.625 3.60422 24.9357 3.26684 24.9105 2.86364C24.8853 2.46867 24.5411 2.16422 24.1297 2.1889C23.8862 2.20536 23.6343 2.22182 23.3657 2.2465C22.9627 2.26296 22.6436 2.60856 22.6688 3.00353C22.694 3.3985 23.0382 3.71119 23.4412 3.6865Z" fill="white"/>
<path d="M30.4685 4.41884C30.6952 4.4929 30.9135 4.56696 31.1318 4.64924C31.5096 4.78913 31.9378 4.59987 32.0806 4.22959C32.2233 3.8593 32.0302 3.43964 31.6524 3.29976C31.4089 3.20924 31.1654 3.12696 30.9135 3.04467C30.5357 2.94593 30.1495 3.15164 30.0236 3.52193C29.9144 3.89221 30.1075 4.28719 30.4685 4.41884Z" fill="white"/>
<path d="M39.2002 11.0427C39.301 11.2073 39.4689 11.3307 39.662 11.3719C39.8551 11.413 40.065 11.3801 40.2329 11.2731C40.4008 11.1662 40.5184 10.9934 40.552 10.8041C40.5856 10.6148 40.5436 10.4091 40.426 10.2528C40.2833 10.0471 40.1406 9.84135 39.9978 9.63564C39.7628 9.31472 39.301 9.23244 38.9735 9.46284C38.6461 9.69324 38.5621 10.1458 38.7972 10.4667C38.94 10.656 39.0743 10.8452 39.2002 11.0427Z" fill="white"/>
<path d="M36.9921 8.36844C37.2776 8.64821 37.7478 8.64821 38.0332 8.36844C38.3187 8.08867 38.3187 7.62787 38.0332 7.3481C37.8485 7.16707 37.6638 6.99427 37.4791 6.8297C37.3364 6.69804 37.1433 6.62398 36.9502 6.63221C36.7487 6.64044 36.5639 6.72273 36.4296 6.86261C36.2953 7.0025 36.2281 7.19176 36.2365 7.38924C36.2449 7.5785 36.3373 7.75953 36.4884 7.89118C36.6563 8.04753 36.8242 8.20387 36.9921 8.36844Z" fill="white"/>
<path d="M39.3094 12.7048C39.0995 13.0422 39.2087 13.4865 39.5529 13.6922L41.7526 15.0088C41.9709 15.1322 42.248 15.1405 42.4746 15.017C42.7013 14.8936 42.8441 14.6714 42.8609 14.4246L42.9616 11.849C42.9784 11.4541 42.6593 11.1167 42.2563 11.1002C41.8533 11.0838 41.5091 11.3965 41.4923 11.7914L41.442 13.1409L40.3421 12.4662C40.1742 12.3592 39.9727 12.3263 39.7796 12.3757C39.5781 12.4168 39.4102 12.5402 39.3094 12.7048Z" fill="white"/>
<path d="M45.1613 16.7122C43.5493 15.9881 41.677 16.597 39.8887 17.3458C32.5759 20.448 23.4496 17.0496 18.5884 12.3099C15.8514 9.63564 14.0379 5.9657 12.9884 3.35724C12.9212 3.16798 12.7869 3.01987 12.6022 2.93758C12.4175 2.8553 12.216 2.84707 12.0229 2.92113C11.8382 2.99518 11.687 3.13507 11.6115 3.3161C11.5359 3.49713 11.5359 3.70284 11.6199 3.88387C12.7197 6.62398 14.634 10.4914 17.5473 13.3385C22.8787 18.5472 32.4752 22.069 40.4596 18.6788C41.3832 18.2839 43.3058 17.4775 44.54 18.0288C44.9262 18.2016 45.2285 18.506 45.388 18.8928C45.5475 19.2795 45.5559 19.7074 45.4132 20.0942C45.1109 20.8183 44.2546 21.4848 43.0036 22.0279C42.7013 22.1513 42.3907 22.25 42.0716 22.3241C41.5511 22.4475 41.0473 22.6286 40.5688 22.8754C39.6872 23.3774 38.9484 23.7723 38.2683 24.1179C34.6833 25.92 31.4257 27.0391 28.3108 27.5739C27.7819 27.6644 27.2529 27.7467 26.724 27.8372C23.458 28.3639 20.0745 28.9152 17.1779 30.8818C16.5986 31.2686 16.0445 31.7129 15.5071 32.1408C14.4325 32.9883 13.4166 33.7947 12.2412 34.2473C11.7038 34.453 11.1413 34.56 10.562 34.5682H10.478C9.5125 34.5682 8.56377 34.2967 7.74937 33.7783C6.54037 33.0212 5.77634 31.7294 5.71757 30.3223C5.71757 29.664 5.47409 14.0791 1.30975 8.29438C1.07467 7.9817 0.621289 7.91587 0.302247 8.13804C-0.0251916 8.36021 -0.10915 8.79633 0.109142 9.12547C4.01322 14.5481 4.2483 30.1824 4.2483 30.3634C4.32386 32.2478 5.33136 33.9758 6.95177 34.9879C7.91729 35.605 9.02554 35.9588 10.1758 36.0164H18.706C19.109 36.0164 19.4448 35.6955 19.4448 35.2923C19.4448 34.8891 19.1174 34.5682 18.706 34.5682H14.6676C15.2805 34.165 15.8514 33.7042 16.4139 33.2599C16.9764 32.8155 17.4718 32.4288 18.0007 32.0667C20.6454 30.2647 23.7183 29.7874 26.9675 29.2608C27.5048 29.1703 28.0338 29.088 28.5711 28.9975C31.8287 28.4297 35.2206 27.2612 38.9316 25.3934C39.6452 25.0313 40.4009 24.6281 41.3076 24.1179C41.677 23.9369 42.0716 23.797 42.4746 23.7065C42.8524 23.6078 43.2303 23.4926 43.5913 23.3444C44.7163 22.859 46.1856 21.995 46.7649 20.6455C47.0672 19.9131 47.0588 19.0985 46.7649 18.3662C46.4711 17.6338 45.9001 17.0414 45.1613 16.7122Z" fill="white"/>
<path d="M8.21955 12.7791C8.21955 12.812 8.22794 12.8449 8.23634 12.8696C8.23634 12.9272 9.89032 18.1523 7.44713 21.7235C7.32959 21.8799 7.27921 22.0856 7.31279 22.2749C7.34638 22.4723 7.46392 22.6451 7.63184 22.7521C7.79975 22.8591 8.00965 22.9002 8.20276 22.8591C8.39586 22.8179 8.57217 22.6945 8.67292 22.5217C9.63005 21.057 10.1758 19.3702 10.2513 17.6339C10.3689 18.2922 10.4528 18.9999 10.5368 19.7322C10.6292 20.7937 10.7887 21.847 11.007 22.892C11.2253 24.8422 11.1581 27.6152 9.64684 29.8369C9.5293 29.9933 9.47893 30.199 9.51251 30.3882C9.54609 30.5857 9.66363 30.7585 9.83155 30.8655C9.99947 30.9725 10.2094 31.0136 10.4025 30.9725C10.5956 30.9313 10.7719 30.8079 10.8726 30.6351C11.813 29.2033 12.3755 27.5576 12.5098 25.8543C13.3662 26.7594 14.5752 27.2614 15.8346 27.2285C16.5231 27.2202 17.2031 27.1215 17.8664 26.9405C19.2769 26.8335 20.6958 27.0968 21.972 27.7139C22.1483 27.7962 22.3498 27.8127 22.5429 27.7469C22.7276 27.681 22.8787 27.5494 22.9627 27.3766C23.0466 27.2038 23.055 26.9981 22.9879 26.817C22.9207 26.636 22.778 26.4879 22.6017 26.4138C22.0643 26.167 21.5102 25.9695 20.9393 25.8214C21.3507 25.6403 21.7537 25.4593 22.1483 25.2783L22.4757 25.1302C22.8871 25.015 25.0197 24.513 27.8155 26.1258C27.9834 26.241 28.1933 26.2822 28.3948 26.2328C28.5963 26.1917 28.7642 26.0682 28.8734 25.8954C28.9741 25.7226 28.9993 25.5169 28.9405 25.3194C28.8818 25.1219 28.739 24.9656 28.5543 24.8833C27.7315 24.4061 26.85 24.044 25.918 23.8054C27.891 23.2623 29.9312 23.0483 31.9714 23.1553H32.6683C33.0713 23.1553 33.4071 22.8344 33.4071 22.4312C33.4071 22.028 33.0797 21.7071 32.6683 21.7071H31.9882C28.9741 21.5343 25.9516 22.0527 23.1726 23.2211C22.7696 23.3939 22.3498 23.5832 21.9132 23.7807H21.8712C21.8208 23.7971 21.7705 23.8218 21.7285 23.8465L21.4934 23.9535C20.2256 24.5953 18.9075 25.1384 17.5473 25.5581H17.5138C16.8505 25.7473 16.1704 25.8131 15.482 25.7638C16.3215 23.7971 18.2778 22.9661 19.8898 22.8509C20.2928 22.8262 20.6034 22.4806 20.5699 22.0774C20.5447 21.6824 20.192 21.3779 19.7806 21.4109C18.5548 21.4685 17.371 21.8634 16.3635 22.5464C15.356 23.2294 14.5668 24.1757 14.0799 25.2865C13.8616 25.1466 13.6685 24.9821 13.5005 24.7928C12.4427 23.6326 12.2076 21.5507 11.9809 19.5759C11.813 18.1112 11.6451 16.5971 11.1329 15.3958C10.7971 14.5976 10.3269 13.676 9.82316 12.705C8.97517 11.0346 7.98446 9.15029 7.67382 7.75143C7.58146 7.36469 7.18686 7.12606 6.79225 7.20835C6.39765 7.29063 6.14577 7.6856 6.23813 8.07235C6.59915 9.47943 7.38836 11.1416 8.21955 12.7791Z" fill="white"/>
<path d="M15.4988 16.0127C15.6835 16.095 15.885 16.095 16.0697 16.0292C16.2544 15.9551 16.4055 15.8152 16.4811 15.6342C16.5566 15.4532 16.5566 15.2557 16.4811 15.0747C16.4055 14.8936 16.2544 14.7538 16.0697 14.6879C12.7785 13.3302 11.3764 7.98988 11.3596 7.92405C11.2588 7.53731 10.8558 7.30691 10.4612 7.40565C10.0666 7.50439 9.83155 7.89936 9.9323 8.28611C9.99107 8.52474 11.5275 14.3999 15.4988 16.0127Z" fill="white"/>
<path d="M36.3457 22.3159C36.3457 22.7109 36.0182 23.04 35.6068 23.04C35.1954 23.04 34.868 22.7191 34.868 22.3159C34.868 21.9127 35.1954 21.5918 35.6068 21.5918C36.0182 21.5918 36.3457 21.9209 36.3457 22.3159Z" fill="white"/>
<path d="M11.7374 0.724114C11.7374 1.11909 11.41 1.44823 10.9986 1.44823C10.5956 1.44823 10.2597 1.12731 10.2597 0.724114C10.2597 0.320914 10.5872 0 10.9986 0C11.41 0 11.7374 0.320914 11.7374 0.724114Z" fill="white"/>
</g>
<defs>
<clipPath id="clip0_16_858">
<rect width="47" height="36" fill="white"/>
</clipPath>
</defs>
</svg>
