<svg width="35" height="35" viewBox="0 0 35 35" fill="none" xmlns="http://www.w3.org/2000/svg">
<path d="M14.3463 0C13.7399 0 13.2482 0.490938 13.2482 1.09642V5.23222C10.8872 5.63359 8.95459 7.30614 8.18377 9.51733C7.56759 9.51048 7.06835 9.00828 7.06835 8.39153L7.0686 3.37226C7.0686 1.51274 5.55362 6.26516e-05 3.69141 6.26516e-05H1.09804C0.49167 6.26516e-05 6.70188e-06 0.491 6.70188e-06 1.09648C6.70188e-06 1.70196 0.49167 2.1929 1.09804 2.1929H3.69141C4.34264 2.1929 4.87253 2.72201 4.87253 3.37226V8.39178C4.87253 10.0961 6.16564 11.5039 7.82348 11.6896V13.0888C7.82348 13.9578 7.1154 14.6649 6.24507 14.6649L4.80388 14.6646C4.38771 14.6646 4.049 14.3264 4.049 13.9108C4.049 12.286 2.72521 10.9642 1.09804 10.9642C0.49167 10.9642 6.70188e-06 11.4552 6.70188e-06 12.0607C6.70188e-06 12.6661 0.49167 13.1571 1.09804 13.1571C1.51422 13.1571 1.85293 13.4953 1.85293 13.9108C1.85293 15.5357 3.17672 16.8574 4.80388 16.8574H6.24507C6.80855 16.8574 7.34286 16.7326 7.82348 16.5106V19.1873C7.82348 19.9808 7.17689 20.6264 6.38229 20.6264C4.52812 20.6264 3.01954 22.1328 3.01954 23.9842C3.01954 24.5897 3.51121 25.0806 4.11758 25.0806C4.72395 25.0806 5.21561 24.5897 5.21561 23.9842C5.21561 23.3418 5.73889 22.8192 6.38229 22.8192C8.38793 22.8192 10.0196 21.19 10.0196 19.1873V11.6528C10.0196 9.64934 11.3926 7.96017 13.2482 7.47367V29.5862H11.8029C11.3134 27.6826 9.58034 26.2715 7.52325 26.2715H6.17643C5.57005 26.2715 5.07839 26.7625 5.07839 27.3679C5.07839 27.9734 5.57005 28.4643 6.17643 28.4643H7.52325C8.42351 28.4643 9.19998 29.002 9.54846 29.7725C8.5399 30.1672 7.82348 31.1479 7.82348 32.2932C7.82348 32.5766 7.5926 32.8072 7.30878 32.8072H1.09804C0.491663 32.8072 0 33.2981 0 33.9036C0 34.5091 0.491663 35 1.09804 35H7.30878C8.80336 35 10.0195 33.7856 10.0195 32.2932C10.0195 32.0098 10.2504 31.7793 10.5342 31.7793H13.2482V33.9036C13.2482 34.5091 13.7399 35 14.3463 35C14.9526 35 15.4443 34.5091 15.4443 33.9036V1.09691C15.4443 0.491432 14.9526 0.000494577 14.3463 0.000494577L14.3463 0Z" fill="white"/>
<path d="M33.902 14.6905C34.5083 14.6905 35 14.1996 35 13.5941C35 12.9886 34.5083 12.4977 33.902 12.4977C32.5397 12.4977 31.4314 11.391 31.4314 10.0307V8.21845C31.4314 6.311 29.8772 4.7591 27.9669 4.7591H26.9706V4.57285C26.9706 3.2606 28.0397 2.19307 29.3539 2.19307H33.9019C34.5083 2.19307 34.9999 1.70213 34.9999 1.09665C34.9999 0.49117 34.5083 0.000232442 33.9019 0.000232442H29.3539C26.8289 0.000232442 24.7745 2.0516 24.7745 4.57285V6.56157C24.7745 7.86994 23.7086 8.93427 22.3983 8.93427H21.7517V1.09646C21.7517 0.490982 21.2601 4.44838e-05 20.6537 4.44838e-05C20.0473 4.44838e-05 19.5557 0.490982 19.5557 1.09646V33.9031C19.5557 34.5086 20.0473 34.9995 20.6537 34.9995C21.2601 34.9995 21.7517 34.5086 21.7517 33.9031V29.4918H24.899C25.8142 29.4918 26.5588 30.2353 26.5588 31.1494C26.5588 33.2725 28.2887 34.9998 30.4149 34.9998L33.9019 34.9995C34.5083 34.9995 34.9999 34.5086 34.9999 33.9031C34.9999 33.2977 34.5083 32.8067 33.9019 32.8067H30.4149C29.4997 32.8067 28.7549 32.0632 28.7549 31.1491C28.7549 29.0263 27.025 27.2989 24.8988 27.2989H21.7515V20.7204H22.516C22.6611 23.3897 24.8814 25.5172 27.5902 25.5172H29.5098C31.0235 25.5172 32.2549 24.2877 32.2549 22.7762C32.2549 22.1717 32.7476 21.6798 33.3529 21.6798H33.902C34.5083 21.6798 35 21.1888 35 20.5834C35 19.9779 34.5083 19.4869 33.902 19.4869H33.3529C31.5365 19.4869 30.0588 20.9625 30.0588 22.7762C30.0588 23.0784 29.8125 23.3244 29.5098 23.3244H27.5905C26.0167 23.3244 24.7339 22.0598 24.7056 20.4948C26.4189 19.9189 27.6568 18.3009 27.6568 16.3984V15.1099C27.6568 14.5044 27.1652 14.0134 26.5588 14.0134C25.9524 14.0134 25.4608 14.5044 25.4608 15.1099V16.3984C25.4608 17.5724 24.5042 18.5275 23.3284 18.5275H21.7515L21.7517 11.1271H22.3983C24.7878 11.1271 26.7534 9.28714 26.9527 6.95183H27.9669C28.6662 6.95183 29.2353 7.51987 29.2353 8.21835V10.0306C29.2353 12.6001 31.3287 14.6904 33.902 14.6904L33.902 14.6905Z" fill="white"/>
</svg>
