<svg width="35" height="42" viewBox="0 0 35 42" fill="none" xmlns="http://www.w3.org/2000/svg">
<g clip-path="url(#clip0_16_873)">
<path d="M30.2103 19.56C29.932 19.56 29.6683 19.3875 29.5658 19.11C27.8667 14.5875 24.3074 11.8875 18.0163 10.365C14.8744 9.615 13.5928 6.1575 14.5009 0.8775C14.5668 0.495 14.9257 0.24 15.2992 0.3C15.6727 0.3675 15.9291 0.735 15.8631 1.1175C15.4164 3.7275 15.1381 8.2275 18.3386 8.985C25.1203 10.635 28.9799 13.5975 30.8621 18.6C31.0012 18.9675 30.8182 19.3725 30.4666 19.515C30.3714 19.545 30.2908 19.56 30.2103 19.56Z" fill="white"/>
<path d="M25.2668 42.0001C25.2009 42.0001 25.135 41.9926 25.069 41.9701C24.7029 41.8576 24.4905 41.4676 24.6003 41.0926C26.3727 34.8901 25.838 29.6701 23.0111 25.5676C22.3812 24.6526 21.7514 23.7826 21.1289 22.9276C19.0123 20.0251 17.0203 17.2876 16.1927 13.9726C16.1341 13.7476 16.1927 13.5151 16.3392 13.3351C16.4857 13.1626 16.7054 13.0726 16.9251 13.0876C20.6821 13.4401 24.1609 15.4801 27.2662 19.1551C27.5152 19.4476 27.4859 19.8976 27.1929 20.1526C26.9073 20.4076 26.4679 20.3776 26.2189 20.0776C23.6116 16.9876 20.8579 15.2026 17.8332 14.6401C18.7121 17.2426 20.3672 19.5076 22.2421 22.0801C22.8719 22.9426 23.5164 23.8201 24.1463 24.7501C27.2295 29.2201 27.8228 34.8526 25.9259 41.4901C25.8454 41.7976 25.5671 42.0001 25.2668 42.0001Z" fill="white"/>
<path d="M20.1182 40.0801C20.0743 40.0801 20.0303 40.0726 19.9864 40.0651C19.6129 39.9901 19.3712 39.6226 19.4444 39.2326C20.3452 34.5151 19.8106 31.0576 17.8552 28.9276C16.0169 31.1476 14.3691 33.7726 12.8311 36.9226C12.6627 37.2751 12.2452 37.4101 11.901 37.2376C11.5568 37.0651 11.425 36.6376 11.5934 36.2851C13.3145 32.7601 15.182 29.8576 17.2913 27.4276C17.5403 27.1426 17.9724 27.1051 18.258 27.3601C21.0264 29.7826 21.8832 33.8626 20.8066 39.4951C20.7334 39.8476 20.4405 40.0801 20.1182 40.0801Z" fill="white"/>
<path d="M9.86503 34.1624C9.75518 34.1624 9.638 34.1324 9.52814 34.0724C9.19125 33.8849 9.07407 33.4499 9.25716 33.1124C10.7146 30.4199 12.4869 27.5249 14.6621 24.2699C9.77715 18.8099 7.89495 10.8524 9.08139 0.6224C9.12534 0.2324 9.46955 -0.0450997 9.85038 -9.96492e-05C10.2312 0.0449004 10.5022 0.3974 10.4583 0.7874C9.29378 10.8449 11.176 18.5549 16.0536 23.7074C16.2806 23.9474 16.3099 24.3224 16.1268 24.5999C13.8272 28.0049 11.9816 31.0124 10.4729 33.7949C10.3411 34.0274 10.1067 34.1624 9.86503 34.1624Z" fill="white"/>
<path d="M7.65327 15.6675C4.98744 15.6675 2.57062 14.8125 0.454067 13.11C0.153795 12.87 0.102529 12.4275 0.336888 12.12C0.571246 11.8125 1.01067 11.76 1.30362 12C3.8303 14.0325 6.84766 14.6925 10.2678 13.9725C10.6413 13.8975 11.0075 14.1375 11.0808 14.52C11.1613 14.9025 10.9196 15.2775 10.5461 15.3525C9.55011 15.5625 8.58338 15.6675 7.65327 15.6675Z" fill="white"/>
<path d="M0.688434 19.1324C0.329573 19.1324 0.0219769 18.8474 5.78864e-06 18.4724C-0.029289 18.0824 0.263659 17.7449 0.644492 17.7149C2.4388 17.5874 3.87425 16.5149 5.03139 14.4299C5.22181 14.0924 5.63926 13.9724 5.97615 14.1674C6.30572 14.3624 6.4229 14.7899 6.23248 15.1349C4.8483 17.6324 3.00273 18.9749 0.7397 19.1324C0.725053 19.1249 0.703082 19.1324 0.688434 19.1324Z" fill="white"/>
<path d="M21.5976 11.2425C21.334 11.2425 21.0849 11.085 20.9678 10.83C20.814 10.4775 20.9604 10.0575 21.312 9.89248C23.2528 8.99248 24.8347 7.70248 26.153 5.95498C26.3873 5.64748 26.8194 5.58748 27.1197 5.82748C27.42 6.06748 27.4785 6.50998 27.2442 6.81748C25.8014 8.72248 23.9998 10.1925 21.8832 11.175C21.788 11.22 21.6928 11.2425 21.5976 11.2425Z" fill="white"/>
<path d="M27.7276 9.99762C27.6031 9.99762 27.4786 9.96012 27.3687 9.89262C26.7096 9.47262 25.7428 9.33762 24.4905 9.48762C24.117 9.53262 23.7654 9.25512 23.7215 8.86512C23.6776 8.47512 23.9485 8.12262 24.3294 8.07762C25.8966 7.89012 27.1636 8.09262 28.0938 8.68512C28.416 8.88762 28.5185 9.32262 28.3208 9.66012C28.1816 9.87762 27.9546 9.99762 27.7276 9.99762Z" fill="white"/>
<path d="M32.3415 38.7599C32.0412 38.7599 31.7629 38.5574 31.675 38.2424C30.95 35.5499 28.8481 32.8949 25.2521 30.1349C24.9445 29.9024 24.886 29.4599 25.113 29.1449C25.34 28.8299 25.7721 28.7699 26.0797 29.0024C29.9247 31.9649 32.1877 34.8599 33.0006 37.8674C33.1032 38.2424 32.8834 38.6324 32.5173 38.7374C32.4587 38.7524 32.4001 38.7599 32.3415 38.7599Z" fill="white"/>
<path d="M34.3042 35.5049C34.0772 35.5049 33.8502 35.3924 33.7257 35.1824C33.1251 34.2299 31.7849 33.8249 29.7269 33.9974C29.3534 34.0124 29.0165 33.7349 28.9799 33.3449C28.9506 32.9549 29.2362 32.6174 29.6171 32.5799C32.217 32.3624 33.9966 32.9849 34.8901 34.4099C35.0952 34.7399 35 35.1749 34.6778 35.3849C34.5606 35.4674 34.4361 35.5049 34.3042 35.5049Z" fill="white"/>
<path d="M6.10065 29.7749C5.91024 29.7749 5.71982 29.6924 5.58067 29.5349C5.33166 29.2424 5.35364 28.7924 5.64658 28.5374C7.69722 26.6849 10.5754 25.6574 14.1934 25.4849C14.5815 25.4549 14.8964 25.7699 14.9184 26.1599C14.933 26.5499 14.6401 26.8799 14.2593 26.9024C10.9636 27.0599 8.371 27.9674 6.56205 29.6024C6.4229 29.7149 6.26178 29.7749 6.10065 29.7749Z" fill="white"/>
<path d="M23.868 35.355C23.8313 35.355 23.7947 35.355 23.7581 35.3475C23.3846 35.2875 23.1283 34.92 23.1869 34.5375C23.553 32.175 22.9305 30.03 21.2754 27.9825C21.0337 27.6825 21.0703 27.2325 21.3706 26.985C21.6635 26.7375 22.1029 26.775 22.3446 27.0825C24.2415 29.43 24.9812 32.0175 24.5564 34.7625C24.4905 35.115 24.1975 35.3625 23.868 35.355Z" fill="white"/>
<path d="M14.5742 18.9824C14.3325 18.9824 14.0981 18.8549 13.9736 18.6224C12.5748 16.1099 11.7839 13.6199 11.6154 11.2049C11.5861 10.8149 11.8717 10.4774 12.2526 10.4474C12.6261 10.4174 12.963 10.7099 12.9923 11.0999C13.1461 13.2974 13.8784 15.5924 15.1747 17.9174C15.3651 18.2549 15.248 18.6899 14.9184 18.8849C14.8085 18.9524 14.684 18.9824 14.5742 18.9824Z" fill="white"/>
</g>
<defs>
<clipPath id="clip0_16_873">
<rect width="35" height="42" fill="white"/>
</clipPath>
</defs>
</svg>
