<svg width="47" height="45" viewBox="0 0 47 45" fill="none" xmlns="http://www.w3.org/2000/svg">
<path d="M6.66341 36.1146L2.45723 34.407L11.0395 15.4855L23.3248 19.8114L34.4051 15.4169L36.4826 19.3312L37.4243 18.8007L35.0324 14.2807L29.8721 12.6171C30.3241 11.5566 30.5752 10.3633 30.5752 9.10782C30.5752 4.63795 27.3923 1.00586 23.4813 1.00586C19.5702 1.00586 16.3941 4.63715 16.3941 9.10782C16.3941 10.2629 16.6013 11.3616 16.9842 12.3566L10.3611 14.3556L1 34.9876L5.45092 36.7983L6.66341 36.1146ZM17.4797 9.10691C17.4797 5.23616 20.1724 2.09148 23.4812 2.09148C26.7959 2.09148 29.4891 5.23708 29.4891 9.10691C29.4891 10.2436 29.2506 11.3261 28.8358 12.2776C28.6856 12.6198 28.5156 12.9525 28.3143 13.2565C27.2219 14.9923 25.4637 16.1224 23.4799 16.1224C21.4082 16.1224 19.5819 14.8951 18.5083 13.0279V13.0247C18.32 12.7077 18.163 12.3781 18.0249 12.0328C17.6747 11.1409 17.4796 10.1522 17.4796 9.10695L17.4797 9.10691ZM17.442 13.3512C18.6909 15.6682 20.9325 17.2121 23.4817 17.2121C25.9427 17.2121 28.1085 15.7745 29.3766 13.5992L33.0429 14.7857L23.2997 18.6497L12.4952 14.8453L17.442 13.3512Z" fill="white" stroke="white" stroke-width="0.4"/>
<path d="M20.317 12.4784C21.1076 13.4357 22.238 14.042 23.481 14.042C24.6482 14.042 25.7096 13.5147 26.4818 12.6635C26.7388 12.3873 26.9715 12.0766 27.1535 11.7403C27.5804 10.9771 27.8253 10.0767 27.8253 9.10676C27.8253 6.38797 25.8729 4.17554 23.481 4.17554C21.0891 4.17554 19.1367 6.38797 19.1367 9.10676C19.1367 9.98879 19.3439 10.8143 19.7017 11.5273C19.8708 11.8762 20.0784 12.1932 20.317 12.4784L20.317 12.4784ZM23.481 12.9528C22.7276 12.9528 22.0241 12.6479 21.4721 12.134L23.2048 11.6035L25.3141 12.2851C24.7931 12.708 24.1586 12.9528 23.481 12.9528ZM23.481 5.2625C25.2765 5.2625 26.7387 6.98936 26.7387 9.1072C26.7387 9.96726 26.5002 10.7547 26.0921 11.3981L23.2169 10.4659L20.7559 11.2129C20.4227 10.6076 20.2223 9.8857 20.2223 9.10716C20.2227 6.9884 21.6855 5.26247 23.481 5.26247L23.481 5.2625Z" fill="white" stroke="white" stroke-width="0.4"/>
<path d="M46.0002 34.9747L38.4044 20.6484L42.5975 18.288L42.0639 17.3396L2.80884 39.4387L3.34245 40.3871L7.92527 37.8068L23.3502 44.0815L46.0002 34.9747ZM37.456 21.1822L44.4747 34.4157L23.3502 42.9096L9.1375 37.1214L37.456 21.1822Z" fill="white" stroke="white" stroke-width="0.4"/>
</svg>
