<svg width="48" height="35" viewBox="0 0 48 35" fill="none" xmlns="http://www.w3.org/2000/svg">
<path d="M46.0438 32.2041C44.3869 33.9896 42.0377 34.8375 39.6033 34.5316L35.8049 34.0539C33.4326 33.7555 31.0177 33.6675 28.6299 33.7945L5.87239 34.9946C5.7994 34.9985 5.72641 35 5.65393 35C3.69252 35.0005 2.02031 33.6033 1.71682 31.6725C1.5277 30.4689 1.90469 29.2699 2.75095 28.382C3.59746 27.4942 4.79011 27.05 6.02012 27.1582C7.06604 27.2526 8.11722 27.0614 9.06005 26.6078L25.5419 18.6757C27.6277 17.6717 28.8998 15.5475 28.7824 13.2637L28.2221 2.33995C28.2005 1.92148 28.5276 1.56501 28.953 1.54377C29.3672 1.51943 29.7193 1.82949 29.7564 2.23277C29.7574 2.24317 29.7606 2.25284 29.7611 2.26337L30.3215 13.1871C30.4705 16.0784 28.8597 18.768 26.2181 20.0393L9.73676 27.9715C8.53985 28.547 7.20574 28.7886 5.88092 28.6701C5.12495 28.5999 4.39381 28.8761 3.87437 29.421C3.35517 29.966 3.12367 30.7017 3.2398 31.4403C3.43293 32.669 4.53753 33.5465 5.79012 33.4788L28.5477 32.2787C31.0288 32.1493 33.536 32.2387 36 32.548L39.7984 33.0257C41.7297 33.2688 43.5918 32.5959 44.9061 31.1799C46.2204 29.7639 46.7341 27.8771 46.3152 26.0036L45.0997 20.565C44.6513 18.5591 44.4802 16.5023 44.5906 14.4512L45.325 0.829134L45.331 0.718927C45.354 0.300456 45.7207 -0.0231562 46.1411 0.00129995C46.5665 0.0235328 46.8926 0.380988 46.87 0.79946L46.1296 14.5317C46.0262 16.4462 46.1863 18.3664 46.6046 20.2389L47.8201 25.6775C48.3483 28.0396 47.7007 30.4186 46.0438 32.2041ZM5.04293 24.9132C5.14 25.2457 5.44826 25.4621 5.7831 25.4621C5.85358 25.4621 5.92531 25.4527 5.99655 25.4325C6.40538 25.3164 6.6414 24.8959 6.52377 24.4933L5.70259 21.683C5.60477 21.3485 5.28974 21.1144 4.93558 21.1346L2.18234 21.228L1.50287 19.1865C1.37044 18.7878 0.935271 18.5719 0.5307 18.7013C0.12638 18.8323 -0.0940896 19.2606 0.0385936 19.6588L0.898401 22.2423C1.0055 22.5634 1.31677 22.7838 1.65713 22.7645L4.38804 22.6716L5.04293 24.9132ZM11.3907 17.3691L13.6839 18.2493L13.417 20.3268C13.3636 20.7428 13.6626 21.1223 14.085 21.1751C14.1178 21.1791 14.1502 21.1811 14.1825 21.1811C14.565 21.1811 14.8966 20.9009 14.946 20.5175L15.2881 17.8525C15.3323 17.5072 15.1326 17.1764 14.8033 17.0502L12.4895 16.1621L12.6641 14.2417C12.7019 13.8242 12.3892 13.4556 11.9653 13.4181C11.5396 13.382 11.1667 13.6886 11.1291 14.1063L10.9028 16.5944C10.8722 16.9309 11.0711 17.2466 11.3907 17.3691ZM23.1358 13.7466L21.9348 15.7565C21.7191 16.1176 21.8415 16.5828 22.2082 16.7955C22.3309 16.8666 22.4656 16.9005 22.5982 16.9002C22.8624 16.9002 23.1194 16.7666 23.2632 16.5262L24.7688 14.0063C24.9479 13.7064 24.8973 13.3247 24.6454 13.0806L22.6825 11.177L23.7199 9.28623C23.9221 8.91766 23.7826 8.45719 23.4084 8.25784C23.0332 8.05774 22.5661 8.19559 22.364 8.5649L21.0514 10.9572C20.8884 11.2541 20.9443 11.6217 21.1889 11.8586L23.1358 13.7466Z" fill="white"/>
</svg>
