<svg width="16" height="16" viewBox="0 0 16 16" fill="none" xmlns="http://www.w3.org/2000/svg">
<g clip-path="url(#clip0)">
<path d="M5.68014 11.456C6.96597 12.4549 8.58417 12.9261 10.2052 12.7737C11.8263 12.6213 13.3284 11.8569 14.4056 10.6359C15.4827 9.41494 16.0541 7.82932 16.0032 6.2019C15.9524 4.57449 15.2831 3.02763 14.1318 1.87631C12.9805 0.724992 11.4337 0.0557723 9.80624 0.00491828C8.17882 -0.0459358 6.5932 0.525399 5.37224 1.60259C4.15128 2.67978 3.38679 4.18183 3.23443 5.8029C3.08206 7.42397 3.55329 9.04217 4.55214 10.328L0.272144 14.592L1.40814 15.728L5.67214 11.456H5.68014ZM9.60014 11.2C8.9698 11.2 8.34563 11.0758 7.76326 10.8346C7.1809 10.5934 6.65175 10.2398 6.20603 9.79411C5.76031 9.34839 5.40674 8.81924 5.16552 8.23688C4.9243 7.65451 4.80014 7.03034 4.80014 6.4C4.80014 5.76965 4.9243 5.14548 5.16552 4.56312C5.40674 3.98075 5.76031 3.45161 6.20603 3.00588C6.65175 2.56016 7.1809 2.2066 7.76326 1.96537C8.34563 1.72415 8.9698 1.6 9.60014 1.6C10.8732 1.6 12.0941 2.10571 12.9943 3.00588C13.8944 3.90606 14.4001 5.12696 14.4001 6.4C14.4001 7.67304 13.8944 8.89393 12.9943 9.79411C12.0941 10.6943 10.8732 11.2 9.60014 11.2Z" fill="#8E2ADD"/>
</g>
<defs>
<clipPath id="clip0">
<rect width="16" height="16" fill="white" transform="matrix(-1 0 0 1 16 0)"/>
</clipPath>
</defs>
</svg>
