<svg xmlns="http://www.w3.org/2000/svg" width="353" height="353" viewBox="0 0 353 353">
  <defs>
    <style>
      .cls-1 {
        fill: #5ed2b8;
        fill-opacity: 0;
        stroke: #5ed2b8;
        stroke-linejoin: round;
        stroke-width: 2px;
        fill-rule: evenodd;
      }
    </style>
  </defs>
  <path id="shape_stroke" class="cls-1" d="M1463.95,507.29c5.87,21.907-14.93,45.406-17.73,66.573-2.9,21.943,10.79,50.034-.1,68.9s-42.07,21.063-59.63,34.544c-16.93,13-26.88,42.771-48.78,48.641s-45.41-14.935-66.58-17.731c-21.94-2.9-50.03,10.79-68.9-.105s-21.06-42.066-34.54-59.621c-13.01-16.933-42.78-26.88-48.65-48.787s14.94-45.4,17.74-66.573c2.89-21.943-10.79-50.034.1-68.9s42.07-21.063,59.62-34.543c16.93-13,26.88-42.771,48.79-48.641s45.4,14.935,66.57,17.73c21.94,2.9,50.04-10.789,68.91.106s21.06,42.066,34.54,59.62C1428.31,475.436,1458.08,485.383,1463.95,507.29Z" transform="translate(-1115 -377)"/>
</svg>
