<svg xmlns="http://www.w3.org/2000/svg" width="432" height="432" viewBox="0 0 432 432">
  <defs>
    <style>
      .cls-1 {
        fill: #ed7478;
        fill-rule: evenodd;
      }
    </style>
  </defs>
  <path id="shape" class="cls-1" d="M1507,553c0,27.44-31.68,48.384-41.57,72.245-10.26,24.735-3.06,61.849-21.7,80.489s-55.75,11.442-80.49,21.7C1339.38,737.325,1318.44,769,1291,769s-48.39-31.672-72.25-41.566c-24.73-10.257-61.85-3.058-80.49-21.7s-11.44-55.754-21.69-80.489C1106.67,601.382,1075,580.438,1075,553s31.67-48.384,41.57-72.244c10.25-24.736,3.05-61.849,21.69-80.49s55.76-11.442,80.49-21.7C1242.61,368.671,1263.56,337,1291,337s48.38,31.671,72.24,41.565c24.74,10.258,61.85,3.058,80.49,21.7s11.44,55.754,21.7,80.49C1475.32,504.614,1507,525.559,1507,553Z" transform="translate(-1075 -337)"/>
</svg>
