<svg xmlns="http://www.w3.org/2000/svg" width="103" height="103" viewBox="0 0 103 103">
  <defs>
    <style>
      .cls-1 {
        fill: #fff;
        fill-opacity: 0;
        stroke: #fff;
        stroke-linejoin: round;
        stroke-width: 2px;
        fill-rule: evenodd;
      }
    </style>
  </defs>
  <path id="shape_stroke_white" class="cls-1" d="M1378.48,728.975c1.62,6.062-4.13,12.564-4.91,18.421-0.8,6.071,2.99,13.845-.03,19.066s-11.64,5.829-16.49,9.559c-4.69,3.6-7.44,11.834-13.5,13.459s-12.57-4.133-18.42-4.906c-6.08-.8-13.85,2.985-19.07-0.029s-5.83-11.64-9.56-16.5c-3.6-4.685-11.83-7.438-13.46-13.5s4.14-12.564,4.91-18.422c0.8-6.071-2.99-13.844.03-19.066s11.64-5.828,16.5-9.558c4.68-3.6,7.43-11.835,13.5-13.459s12.56,4.133,18.42,4.906c6.07,0.8,13.84-2.986,19.06.029s5.83,11.64,9.56,16.5C1368.62,720.161,1376.86,722.913,1378.48,728.975Z" transform="translate(-1279 -690)"/>
</svg>
