<svg xmlns="http://www.w3.org/2000/svg" width="1920" height="1204" viewBox="0 0 1920 1204">
  <defs>
    <style>
      .cls-1 {
        fill: #52bfa8;
        stroke: #67e6ca;
        stroke-linejoin: round;
        stroke-width: 2px;
        fill-rule: evenodd;
      }
    </style>
  </defs>
  <path id="frame_bg_cardiogram" class="cls-1" d="M1927,960.744V2041H-6V960.744H147.011l11.949-4.5,15.97,11.04h15.644l4.889,18.251L205.892,843l9.451,122.487L220.558,954l3.911,8.337h13.036l43.672-13.519,25.095-30.263,6.518-4.28,22.488,46.474,15.97,9.474,12.059-9.474H616.54l11.95-4.5,15.969,11.04H660.1l4.889,18.251L675.421,843l9.451,122.487L690.087,954,694,962.332h13.036l43.672-13.519,25.1-30.263,6.518-4.28,22.488,46.474,15.969,9.474,12.059-9.474H1086.07l11.95-4.5,15.97,11.04h15.64l4.89,18.251L1144.95,843l9.45,122.487L1159.62,954l3.91,8.337h13.03l43.68-13.519,25.09-30.263,6.52-4.28,22.49,46.474,15.97,9.474,12.06-9.474H1555.6l11.95-4.5,15.97,11.04h15.64l4.89,18.251L1614.48,843l9.45,122.487L1629.15,954l3.91,8.337h13.03l43.67-13.519,25.1-30.263,6.52-4.28,22.49,46.474,15.97,9.474,12.05-9.474H1927Z" transform="translate(0 -840)"/>
</svg>
