<svg xmlns="http://www.w3.org/2000/svg" width="92" height="92" viewBox="0 0 92 92">
  <defs>
    <style>
      .cls-1 {
        fill-rule: evenodd;
        opacity: 0.06;
      }
    </style>
  </defs>
  <path id="shape_blakk" class="cls-1" d="M1118,2902c0,5.84-6.75,10.3-8.85,15.38-2.19,5.27-.65,13.18-4.62,17.15s-11.88,2.43-17.15,4.62c-5.08,2.1-9.54,8.85-15.38,8.85s-10.3-6.75-15.39-8.85c-5.26-2.19-13.17-.65-17.14-4.62s-2.43-11.88-4.62-17.15c-2.11-5.08-8.85-9.54-8.85-15.38s6.74-10.3,8.85-15.39c2.19-5.26.65-13.17,4.62-17.14s11.88-2.43,17.14-4.62c5.09-2.11,9.55-8.85,15.39-8.85s10.3,6.74,15.38,8.85c5.27,2.19,13.18.65,17.15,4.62s2.43,11.88,4.62,17.14C1111.25,2891.7,1118,2896.16,1118,2902Z" transform="translate(-1026 -2856)"/>
</svg>
