<svg xmlns="http://www.w3.org/2000/svg" width="62" height="62" viewBox="0 0 62 62">
  <defs>
    <style>
      .cls-1 {
        fill: #67e6ca;
        fill-rule: evenodd;
        opacity: 0.6;
      }
    </style>
  </defs>
  <path id="shape_green" class="cls-1" d="M1466.58,2556.5c1.04,3.91-2.67,8.11-3.17,11.9-0.52,3.92,1.93,8.94-.02,12.31s-7.52,3.76-10.66,6.17c-3.02,2.33-4.8,7.65-8.71,8.7s-8.12-2.67-11.9-3.17c-3.92-.52-8.94,1.93-12.32-0.02s-3.76-7.52-6.17-10.66c-2.32-3.02-7.64-4.8-8.69-8.72s2.67-8.11,3.17-11.89c0.52-3.92-1.93-8.94.02-12.32s7.51-3.76,10.65-6.17c3.03-2.32,4.8-7.64,8.72-8.69s8.11,2.67,11.9,3.17c3.92,0.52,8.94-1.93,12.31.02s3.76,7.51,6.17,10.65C1460.21,2550.81,1465.53,2552.58,1466.58,2556.5Z" transform="translate(-1404.75 -2533.75)"/>
</svg>
