<svg xmlns="http://www.w3.org/2000/svg" width="506" height="506" viewBox="0 0 506 506">
  <defs>
    <style>
      .cls-1 {
        fill: #5ed2b8;
        fill-opacity: 0;
        stroke: #67e6ca;
        stroke-linejoin: round;
        stroke-width: 2px;
        fill-rule: evenodd;
      }
    </style>
  </defs>
  <path id="shape_stroke" class="cls-1" d="M1542.94,2737.95c5.47,31.62-26.86,62.07-33.51,91.54-6.89,30.56,8.81,71.89-8.96,97.09s-61.98,24.3-88.44,41.05c-25.53,16.16-43.35,56.84-74.98,62.31s-62.07-26.86-91.54-33.51c-30.56-6.89-71.89,8.81-97.09-8.96s-24.3-61.98-41.05-88.44c-16.16-25.52-56.84-43.35-62.31-74.97s26.86-62.08,33.5-91.55c6.9-30.55-8.8-71.89,8.97-97.09s61.97-24.3,88.44-41.05c25.52-16.16,43.35-56.84,74.97-62.31s62.08,26.86,91.55,33.51c30.55,6.89,71.89-8.81,97.09,8.96s24.3,61.98,41.05,88.44C1496.79,2688.5,1537.47,2706.32,1542.94,2737.95Z" transform="translate(-1041 -2528)"/>
</svg>
