<svg xmlns="http://www.w3.org/2000/svg" width="102.18" height="120.41" viewBox="0 0 102.18 120.41">
  <defs>
    <style>
      .cls-1 {
        fill: #67e6ca;
        fill-rule: evenodd;
      }
    </style>
  </defs>
  <path id="_-e-icon1_vegan" data-name="-e-icon1_vegan" class="cls-1" d="M1438.92,2468.03l-6.9,6.94-1.62-1.58,5.62-5.66-1.4-1.36,1.28-1.29Zm-2.15,10.43a4.051,4.051,0,0,1-.18-2.28,6.211,6.211,0,0,1,1.16-2.51,6.392,6.392,0,0,1,2.04-1.88,4.058,4.058,0,0,1,2.23-.53,4.223,4.223,0,0,1,3.53,2.53,4.016,4.016,0,0,1,.19,2.27,6.377,6.377,0,0,1-1.17,2.51,6.157,6.157,0,0,1-2.03,1.88,3.929,3.929,0,0,1-4.36-.24A4.014,4.014,0,0,1,1436.77,2478.46Zm4.14,0.4a4.43,4.43,0,0,0,1.81-1.62,4.291,4.291,0,0,0,.98-2.22,1.571,1.571,0,0,0-.69-1.44,1.589,1.589,0,0,0-1.58-.19,4.357,4.357,0,0,0-1.81,1.62,4.443,4.443,0,0,0-.99,2.22,1.579,1.579,0,0,0,.68,1.43A1.611,1.611,0,0,0,1440.91,2478.86Zm5.86,5.93a4.066,4.066,0,0,1-.6-2.21,7.15,7.15,0,0,1,2.35-4.89,4.116,4.116,0,0,1,2.11-.93,4.226,4.226,0,0,1,3.92,1.86,3.869,3.869,0,0,1,.6,2.2,7.037,7.037,0,0,1-2.35,4.9,3.955,3.955,0,0,1-2.1.92,4.037,4.037,0,0,1-2.22-.38A3.985,3.985,0,0,1,1446.77,2484.79Zm4.14-.35a5.731,5.731,0,0,0,2.05-4.27,1.656,1.656,0,0,0-2.53-1.2,5.73,5.73,0,0,0-2.05,4.28,1.561,1.561,0,0,0,.92,1.28A1.6,1.6,0,0,0,1450.91,2484.44Zm8.81,0.57a2.669,2.669,0,0,1-.23-2.05,2.733,2.733,0,0,1,1.09-1.76,2.3,2.3,0,0,1,1.89-.33,2.235,2.235,0,0,1,1.54,1.09,2.739,2.739,0,0,1,.23,2.06,2.8,2.8,0,0,1-1.09,1.76A2.472,2.472,0,0,1,1459.72,2485.01Zm8.43-2.76,1.63,0.37-8.71,8.05-1.63-.37Zm-5.81,2.53a2.024,2.024,0,0,0,.53-1.07,2.051,2.051,0,0,0-.01-1.19,0.873,0.873,0,0,0-.65-0.54,0.855,0.855,0,0,0-.81.23,2.467,2.467,0,0,0-.51,2.24A0.9,0.9,0,0,0,1462.34,2484.78Zm3.26,6.68a2.193,2.193,0,0,1-.63-1.11,3.391,3.391,0,0,1,.63-2.77,2.234,2.234,0,0,1,1.05-.73,2.478,2.478,0,0,1,1.3-.04,2.277,2.277,0,0,1,1.56,1.1,3.145,3.145,0,0,1-.87,3.81,2.281,2.281,0,0,1-1.88.33A2.467,2.467,0,0,1,1465.6,2491.46Zm2.23-.74a2.026,2.026,0,0,0,.52-1.07,1.94,1.94,0,0,0-.01-1.18,0.852,0.852,0,0,0-.64-0.55,0.894,0.894,0,0,0-.82.22,2.525,2.525,0,0,0-.51,2.26A0.91,0.91,0,0,0,1467.83,2490.72Zm19.73-7.39-4.11,9.81-2.25.03-4.37-9.69,2.45-.03,3.09,6.92,2.93-7.01Zm10.47,6.49,0.28,1.79-7.53,1.14-1.48-9.64,7.34-1.11,0.28,1.79-5.11.78,0.32,2.09,4.51-.68,0.27,1.73-4.51.68,0.34,2.23Zm8.78-5.86,1.97-.64,1.23,3.77a5.977,5.977,0,0,1-1.48,1.44,7.163,7.163,0,0,1-1.92.95,5.713,5.713,0,0,1-2.82.22,4.957,4.957,0,0,1-2.38-1.12,5.016,5.016,0,0,1-1.46-2.26,4.965,4.965,0,0,1-.15-2.69,4.884,4.884,0,0,1,1.28-2.3,5.858,5.858,0,0,1,2.45-1.46,6.164,6.164,0,0,1,2.36-.3,4.583,4.583,0,0,1,2.07.65l-0.97,1.72a3.4,3.4,0,0,0-2.76-.28,3.5,3.5,0,0,0-1.47.89,2.775,2.775,0,0,0-.74,1.39,3.257,3.257,0,0,0,.12,1.68,3.218,3.218,0,0,0,.89,1.41,2.86,2.86,0,0,0,1.42.71,3.407,3.407,0,0,0,1.69-.13,3.64,3.64,0,0,0,1.55-.94Zm12.23-2.52-4,2.18,0.26,2.25-2.05,1.11-0.89-10.63,1.97-1.08,8.58,6.45-2.09,1.14Zm-1.45-1.16-3.18-2.52,0.44,4.01Zm8.59-13.86,6.41,7.38-1.41,1.21-7.61-1.31,3.89,4.49-1.7,1.45-6.41-7.39,1.42-1.21,7.6,1.32-3.9-4.49Zm-44.59-93.66c-30.7,0-50.54,19.68-50.54,50.14s19.84,50.15,50.54,50.15,50.55-19.68,50.55-50.15S1512.3,2372.76,1481.59,2372.76Zm0,97.51c-29.44,0-47.73-18.15-47.73-47.37s18.29-47.36,47.73-47.36,47.74,18.15,47.74,47.36S1511.04,2470.27,1481.59,2470.27Zm26.21-60.4-0.96-.17a51.085,51.085,0,0,0-17.89.39,50.528,50.528,0,0,0-9.74-14.4l-0.69-.68-0.88.41c-0.8.36-19.73,9.14-22.76,26.21-2.32,13.03,12.26,26.77,13.19,27.63l0.01,0.02,0.02,0.01h0.01l0.85,0.18a56.8,56.8,0,0,0,10.99,1.07c6.5,0,14.42-1.21,19.43-6.18,12.36-12.26,8.75-32.68,8.59-33.54Zm-3.39,19.7-10.86-3.59,11.99-11.9A47.181,47.181,0,0,1,1504.41,2429.57Zm-0.85-17.46-12.11,12.01-3.73-10.83A48.735,48.735,0,0,1,1503.56,2412.11Zm-22.72,22.54-5.18-15.03a26.974,26.974,0,0,1,9.38-5.5l4.2,12.19Zm-10.64,10.56c-0.71-5.06-1.57-16.32,3.31-23.2l5.11,14.84Zm-12.56-23.09c2.42-13.62,16.58-21.8,20.28-23.73a49.585,49.585,0,0,1,8.27,12.39,30.094,30.094,0,0,0-13.15,7.44c-7.04,6.98-6.59,19.65-5.8,26.14C1463.15,2439.79,1456.15,2430.52,1457.64,2422.12Zm14.54,25.06,8.55-8.49,15.13,5.01C1488.96,2448.77,1477.35,2447.89,1472.18,2447.18Zm26-5.65-15.23-5.04,8.38-8.31,12.26,4.06A26.625,26.625,0,0,1,1498.18,2441.53Z" transform="translate(-1430.41 -2372.75)"/>
</svg>
