<?xml version="1.0" encoding="utf-8"?>
<!-- Generator: Adobe Illustrator 25.0.0, SVG Export Plug-In . SVG Version: 6.00 Build 0)  -->
<!DOCTYPE svg PUBLIC "-//W3C//DTD SVG 1.1//EN" "http://www.w3.org/Graphics/SVG/1.1/DTD/svg11.dtd" [
	<!ENTITY ns_extend "http://ns.adobe.com/Extensibility/1.0/">
	<!ENTITY ns_ai "http://ns.adobe.com/AdobeIllustrator/10.0/">
	<!ENTITY ns_graphs "http://ns.adobe.com/Graphs/1.0/">
	<!ENTITY ns_vars "http://ns.adobe.com/Variables/1.0/">
	<!ENTITY ns_imrep "http://ns.adobe.com/ImageReplacement/1.0/">
	<!ENTITY ns_sfw "http://ns.adobe.com/SaveForWeb/1.0/">
	<!ENTITY ns_custom "http://ns.adobe.com/GenericCustomNamespace/1.0/">
	<!ENTITY ns_adobe_xpath "http://ns.adobe.com/XPath/1.0/">
]>
<svg version="1.1" id="Layer_1" xmlns:x="&ns_extend;" xmlns:i="&ns_ai;" xmlns:graph="&ns_graphs;"
	 xmlns="http://www.w3.org/2000/svg" xmlns:xlink="http://www.w3.org/1999/xlink" x="0px" y="0px" width="102px" height="120.4px"
	 viewBox="0 0 102 120.4" style="enable-background:new 0 0 102 120.4;" xml:space="preserve">
<style type="text/css">
	.st0{fill-rule:evenodd;clip-rule:evenodd;fill:#67E6CA;}
</style>
<metadata>
	<sfw  xmlns="&ns_sfw;">
		<slices></slices>
		<sliceSourceBounds  bottomLeftOrigin="true" height="120.1" width="100.8" x="0" y="0.3"></sliceSourceBounds>
	</sfw>
</metadata>
<path id="_-e-icon3_non_gmo" class="st0" d="M51,0c30.6,0,50.4,19.7,50.4,50.2S81.6,100.4,51,100.4S0.6,80.7,0.6,50.2S20.4,0,51,0z
	 M51,2.8c-14.3,0-25.9,4.3-34.1,12.1l21.7,21.6c0.2-0.7,0.3-1.5,0.3-2.2V19h-2.5v-2.8h29.3V19h-2.5v15.2c0,1.8,0.5,3.6,1.4,5.1
	l16.1,26.1c1.9,3,2,6.8,0.2,9.9c-0.4,0.7-0.9,1.4-1.5,2l7,7c7.9-8.3,12.2-19.9,12.2-34.1C98.6,20.9,80.4,2.8,51,2.8z M78.5,73.9
	c1.3-2.2,1.2-4.9-0.1-7.1L68.1,50.3c-0.9,0.2-1.8,0.6-2.6,1.1c-3.2,2.1-7.4,2.1-10.7,0c-2.3-1.6-5.4-1.6-7.8,0
	c-3.2,2.1-7.4,2.1-10.7,0c-0.8-0.5-1.6-0.9-2.6-1.1l-10,16.5c-2,3.3-1,7.6,2.3,9.6c1.1,0.7,2.4,1,3.7,1h42.7
	C74.9,77.5,77.3,76.1,78.5,73.9L78.5,73.9z M37.9,49c2.3,1.6,5.4,1.6,7.8,0c3.2-2.1,7.4-2.1,10.7,0c2.3,1.6,5.4,1.6,7.8,0
	c0.8-0.5,1.6-0.9,2.5-1.2l-4.3-7c-1.2-2-1.9-4.2-1.9-6.6V19H41.6v15.2c0,2.3-0.6,4.6-1.9,6.6l-4.3,7C36.3,48.1,37.1,48.5,37.9,49
	L37.9,49z M51,97.6c13.9,0,25.3-4.1,33.5-11.5L77.3,79c-1.5,0.8-3.2,1.3-4.9,1.3H29.6c-3.6,0-6.8-1.9-8.6-5
	c-1.8-3.1-1.7-6.9,0.2-9.9l16.1-26.1v-0.1L14.9,16.9C7.5,25,3.4,36.3,3.4,50.2C3.4,79.4,21.6,97.6,51,97.6L51,97.6z M36.4,73.1
	c-2.9,0-5.2-2.3-5.2-5.2s2.3-5.2,5.2-5.2s5.2,2.3,5.2,5.2S39.3,73.1,36.4,73.1L36.4,73.1z M36.4,65.5c-1.3,0-2.4,1.1-2.4,2.4
	s1.1,2.4,2.4,2.4c1.3,0,2.4-1.1,2.4-2.4S37.8,65.5,36.4,65.5L36.4,65.5L36.4,65.5z M65.6,73.1c-2.9,0-5.2-2.3-5.2-5.2
	c0-2.9,2.3-5.2,5.2-5.2s5.2,2.3,5.2,5.2S68.5,73.1,65.6,73.1L65.6,73.1z M65.6,65.5c-1.3,0-2.4,1.1-2.4,2.4s1.1,2.4,2.4,2.4
	s2.4-1.1,2.4-2.4l0,0C68,66.6,66.9,65.5,65.6,65.5L65.6,65.5L65.6,65.5z M50.9,67c-2.9,0-5.2-2.3-5.2-5.2s2.3-5.2,5.2-5.2
	s5.2,2.3,5.2,5.2C56.1,64.7,53.8,67,50.9,67L50.9,67z M50.9,59.4c-1.3,0-2.4,1.1-2.4,2.4c0,1.3,1.1,2.4,2.4,2.4
	c1.3,0,2.4-1.1,2.4-2.4S52.2,59.4,50.9,59.4L50.9,59.4L50.9,59.4z M28.9,104.7c-1.7-0.6-5-1.9-6.6-2.7c-0.2-0.1-0.9-0.6-0.9-0.6
	l0.4-0.2c-0.5-3.1-1.6-5.1-3.2-6.2c-1.7-1.3-3.3-0.8-4.1,0.2c-0.3,0.4-0.4,0.9-0.4,1.6l-1.3-1l-0.2,0.1l-0.2,1.3l0.7,0.5l-4.5,6
	l1,1.3h0.2l4.6-6.3c0,0,0.6,0.4,0.8,0.6c1.1,0.8,4.6,2.8,4.6,2.8l-0.6,1.1c-0.7-0.7-1.2-1.1-1.7-1.4c-1.6-0.9-2.8-0.5-3.4,0.5
	c-0.2,0.4-0.4,1-0.3,1.9c0.2,1.2,0.7,1.9,1.5,2.4c0.5,0.3,1,0.4,1.7,0.4l-1,1.6l1,1.1h0.2l3.9-6.7c0,0,1,0.6,1.3,0.8
	c1.1,0.5,4.4,1.7,4.4,1.7l-0.7,1.8c-0.9-0.5-1.6-0.9-2.3-1.2c-2.1-0.9-2.7,0.2-2.8,0.4c-0.1,0.3-0.1,0.9,0.2,1.5
	c0.3,0.7,0.5,1.1,0.8,1.2c0.2,0.1,0.3,0.1,0.6,0c0.3-0.1,0.4-0.3,0.5-0.6c0.1-0.2,0.2-0.5,0.3-0.9c0.3,0,0.8,0.2,1.2,0.4
	c0.4,0.2,0.7,0.3,1,0.5l-1.6,3.8l1.1,0.9h0.1l2.9-7.2c0,0,1.2,0.4,1.6,0.5c0.1,0,0.3,0.1,0.3,0.1l-2.2,7.1l1.2,0.8h0.1l2.2-7.5
	l1.5,0.4l0.2-0.1l-0.2-1.3C32.7,105.9,29.8,105,28.9,104.7z M15.4,105.1c-0.8-0.5-0.9-1.1-0.7-1.5c0.3-0.4,0.7-0.7,1.3-0.7l0.2,2.5
	C15.9,105.3,15.6,105.2,15.4,105.1z M18,104.9c-0.2,0.4-0.5,0.6-1.1,0.6l-0.1-2.4c0.2,0.1,0.4,0.2,0.6,0.3c0.4,0.2,0.8,0.5,1.1,0.8
	L18,104.9z M16,98.2c-0.3-0.2-1.1-0.8-1.1-0.8c0-0.2,0.1-0.3,0.2-0.5c0.5-0.7,1.5-0.9,2.6-0.5c0.3,0.1,0.5,0.3,0.8,0.5
	c1.3,0.9,2,2.5,2.4,4.4C20.9,101.3,17.2,99,16,98.2z M56.8,108c-1.9,0.2-5.8,0.3-7.7,0.2c-0.3,0-1.2-0.1-1.2-0.1
	c-0.2-0.9-0.5-1.7-0.9-2.4c-0.8-1.3-1.8-1.9-2.9-1.9c-1.2-0.1-2.1,0.6-2.1,1.6c0,0.5,0.1,1.1,0.5,1.6l1.3,0.6l0.1-0.2
	c-0.3-0.4-0.5-0.8-0.4-1.2c0-0.7,0.5-1.1,1.3-1.1c1.2,0.1,1.8,1.1,1.8,2.9c0,0-1.1,0.1-1.5,0c-2.5-0.1-9.9-1.4-9.9-1.4l-0.1,0.1
	l0.4,1.3l7.6,1.1l-0.2,1.3l-4.3-0.6l-0.1,0.1l0.4,1.3c1,0.3,1.5,0.6,1.4,1.1c-0.1,0.6-0.7,1.2-1.6,1.1c-1.1-0.2-2-1.4-2.6-3.8
	l-0.9,0.3c0.8,3.4,2.1,5,3.7,5.2c1.3,0.2,2.2-0.7,2.3-1.6c0.1-0.6,0-1.1-0.4-2l1.8,0.3l-0.7,4.7l1.3,0.6l0.1-0.1l1-7.7
	c0,0,1.2,0.1,1.7,0.1c0.1,0,0.3,0,0.3,0l-0.4,7.5l1.4,0.5l0.1-0.1l0.3-7.8c0,0,0.8,0.1,1.1,0.1c0.2,0,0.8,0,0.8,0v1.9
	c0,1.6,0.5,2.2,0.9,2.8c0.4,0.4,0.8,0.9,1.2,1.2c1.2,0.8,3.3,1.5,3.6,1.8c0.1,0.1,0.1,0.2,0.1,0.3c0,0.3-0.4,0.8-1.3,1.3
	c0.4,0.4,0.9,0.8,1.4,1.2h0.1c0.7-0.4,1.1-1,1.1-1.6s-0.4-1.4-1-2.2c-0.6-0.8-3.4-1.4-4.1-2.3c-0.3-0.4-0.4-1-0.4-2.4v-2l2.8-0.1
	l0.1,2.3c0,0.9-0.3,1.5-0.9,2l1.2,1.1h0.1c0.8-0.4,1.2-1,1.1-2.2l-0.1-3.1c0,0,1.2,0,1.5-0.1c0.3,0,1.2-0.2,1.2-0.2l0.4,2.8
	c-1.1,0.4-1.3,0.8-1.3,1.2c0.1,0.4,0.4,0.9,1,1.3s1.1,0.6,1.4,0.6c0.1,0,0.3-0.1,0.4-0.2c0.3-0.2,0.3-0.4,0.1-1.5l2.8-0.4l0.4,3.1
	l1.4,0.2l0.1-0.1l-1.1-7.7l1.5-0.2l0.1-0.2l-0.8-1.1C65.1,107,58.9,107.9,56.8,108z M60.3,111.9l-0.4-2.8l2.8-0.4l0.4,2.8
	L60.3,111.9z M79.5,104.1l0.1-0.2l-0.9-1l-1.4,0.4c-2.3-2.5-3.3-3.6-5-3.1c-0.6,0.2-1.2,0.5-1.7,0.8l1.1,1.4l0,0
	c0.4-0.3,0.9-0.5,1.6-0.7c1.2-0.4,1.9,0.5,3.1,2l-5.4,1.7l-0.1,0.2l0.9,1l1.3-0.4l0.8,2.6c-0.3,0.4-0.7,0.7-1.2,0.8
	c-0.4,0.1-0.7,0.2-0.9,0.1c-0.2-0.1-0.3-0.2-0.5-0.3c0.2-0.5,0.2-0.9,0.1-1.3c-0.2-0.5-0.5-0.9-1-1.3c-0.9-0.7-1.6-0.9-2.6-0.6
	c-0.7,0.2-1.2,0.7-1.7,1.3v0.1l1.3,1c0.6-0.7,1.2-1.2,1.7-1.3c0.6-0.2,0.9,0,0.9,0.3c0.1,0.4-0.1,0.8-0.5,1.2
	c-0.6,0.3-1.1,0.7-1.6,1.1v0.2l1.3,1c0.5-0.4,1-0.8,1.4-0.9c0.6-0.2,0.9,0,1.1,0.5c0.3,0.8-0.4,1.6-1.2,1.9c-1.4,0.4-2.4-0.3-4-1.8
	l-0.5,0.6v0.1c1.9,2,3.8,3,5.5,2.5c1.3-0.4,1.9-1.6,1.6-2.7c-0.1-0.2-0.2-0.4-0.3-0.6h0.1c0.4,0.1,0.9,0.1,1.4,0
	c0.1,0,0.2-0.1,0.3-0.1l0.9,2.8H77l0.1-0.1l-2.4-7.4l2.2-0.7l2.2,7.1h1.5l0.1-0.1l-2.4-7.4L79.5,104.1z M92.4,100.7
	c-0.4-0.5-0.9-0.9-1.6-1.1c-0.6-0.2-1.2-0.1-1.8,0.3c-0.4,0.2-0.7,0.7-0.9,1.2l0,0l-1.2-1.8l3.8-2.5v-0.2l-1.1-0.7l-3.8,2.5
	c-2.9-1.6-4.3-2.4-5.7-1.4c-0.5,0.4-1,0.8-1.3,1.3l1.5,1l0,0c0.3-0.4,0.7-0.8,1.2-1.2c1-0.7,2-0.1,3.5,0.9l-4.4,2.9v0.2l1.2,0.7
	l4-2.7l0.7,1.1c-0.8,0.2-1.4,0.5-1.9,0.8c-1.1,0.8-1.5,2-0.8,3.1c0.3,0.5,1,0.9,1.6,1.1c0.9,0.2,1.6,0.2,2.4-0.3
	c0.4-0.3,0.8-0.7,1-1.2l0,0l1.1,1.7l1.4-0.4l0.1-0.1l-1.9-2.9c0.1-1.1,0.5-2,1-2.3c0.3-0.2,0.4-0.1,0.6,0.2c0.4,0.6,0.4,1.7,0.3,2.9
	l1.6,0.1l0.1-0.1C93.1,102.5,92.9,101.4,92.4,100.7z M86.6,105c-0.5,0.3-0.9,0.3-1.2-0.1c-0.5-0.7-0.3-1.7,0.9-2.5
	c0.3-0.2,0.5-0.3,0.8-0.4l0.7,1C87.6,104,87.2,104.6,86.6,105z"/>
</svg>
