<?xml version="1.0" encoding="utf-8"?>
<!-- Generator: Adobe Illustrator 25.0.0, SVG Export Plug-In . SVG Version: 6.00 Build 0)  -->
<!DOCTYPE svg PUBLIC "-//W3C//DTD SVG 1.1//EN" "http://www.w3.org/Graphics/SVG/1.1/DTD/svg11.dtd" [
	<!ENTITY ns_extend "http://ns.adobe.com/Extensibility/1.0/">
	<!ENTITY ns_ai "http://ns.adobe.com/AdobeIllustrator/10.0/">
	<!ENTITY ns_graphs "http://ns.adobe.com/Graphs/1.0/">
	<!ENTITY ns_vars "http://ns.adobe.com/Variables/1.0/">
	<!ENTITY ns_imrep "http://ns.adobe.com/ImageReplacement/1.0/">
	<!ENTITY ns_sfw "http://ns.adobe.com/SaveForWeb/1.0/">
	<!ENTITY ns_custom "http://ns.adobe.com/GenericCustomNamespace/1.0/">
	<!ENTITY ns_adobe_xpath "http://ns.adobe.com/XPath/1.0/">
]>
<svg version="1.1" id="Layer_1" xmlns:x="&ns_extend;" xmlns:i="&ns_ai;" xmlns:graph="&ns_graphs;"
	 xmlns="http://www.w3.org/2000/svg" xmlns:xlink="http://www.w3.org/1999/xlink" x="0px" y="0px" width="116px" height="120.4px"
	 viewBox="0 0 116 120.4" style="enable-background:new 0 0 116 120.4;" xml:space="preserve">
<style type="text/css">
	.st0{fill-rule:evenodd;clip-rule:evenodd;fill:#67E6CA;}
</style>
<metadata>
	<sfw  xmlns="&ns_sfw;">
		<slices></slices>
		<sliceSourceBounds  bottomLeftOrigin="true" height="120.3" width="111.8" x="15.3" y="0.1"></sliceSourceBounds>
	</sfw>
</metadata>
<path id="_-e-icon2_approved" class="st0" d="M58,0C27.4,0,7.6,19.7,7.6,50.2s19.8,50.2,50.4,50.2s50.4-19.7,50.4-50.2S88.7,0,58,0
	L58,0z M31.8,85.6l7.2,4.7l-1.2,3.9c-3.6-1.3-7-3.2-10.1-5.4C29,87.5,30.4,86.5,31.8,85.6L31.8,85.6z M70.1,56.6
	c-0.6,0.2-1.3,0.1-1.8-0.3c-1.5-0.6-4.1-1.5-10.1-1.5l-0.1-0.5L58,54.8c-6.1,0-8.7,0.9-10.2,1.5c-0.5,0.3-1.2,0.4-1.8,0.3
	c-1.2-0.5-2.2-1.4-2.8-2.5c0.2-2.1,0.3-4.1,0.2-6.2c-0.1-1-0.1-1.9-0.1-2.9c14.8-1.2,22.4-5.4,26.3-8.9c0.3,0.6,0.5,1.1,0.8,1.7
	c1.7,3,2.5,6.5,2.2,10c-0.1,2.1,0,4.2,0.2,6.3C72.2,55.3,71.2,56.1,70.1,56.6L70.1,56.6z M68.9,59.4c-0.2,0.9-0.6,1.7-1.2,2.4
	c-0.8,0.7-1.8,1.1-2.9,1c-4.4,0-5.4-3-5.5-3.3l-0.5-1.9c5,0.1,7.1,0.8,8.4,1.3C67.8,59.1,68.3,59.3,68.9,59.4L68.9,59.4z M57.2,57.6
	l-0.5,1.9c-0.1,0.3-1,3.3-5.5,3.3c-1.1,0.1-2.1-0.3-2.9-1c-0.6-0.7-1-1.5-1.2-2.4c0.5-0.1,1-0.3,1.6-0.4
	C50.1,58.4,52.1,57.7,57.2,57.6L57.2,57.6z M72.9,36.6c-0.4-0.9-0.8-1.8-1.2-2.8c0.8-1,1.4-2.1,1.8-3.2l-2.7-0.8
	c0,0.1-3.3,10.2-27.3,12.3c0.4-4.1,1.3-8,2.8-11.9l-2.6-1C41.5,35,40.4,41,40.6,47c-0.6-2.5-1-5.1-1.3-7.7
	c-0.7-5.9,0.1-9.9,2.4-12.5c2.8-3.1,8.1-4.6,16.3-4.6s13.6,1.5,16.3,4.6c2.3,2.6,3.1,6.6,2.4,12.5c-0.3,2.7-0.8,5.5-1.4,8.1
	C75.6,43.7,74.7,40,72.9,36.6L72.9,36.6z M42.6,57.8c0.5,0.4,1,0.8,1.6,1.1c0.1,1.8,0.8,3.5,2.1,4.8c1.3,1.3,3.1,2,4.9,1.9
	c3.7-3.8,9.7-3.8,13.5-0.2c0.1,0.1,0.1,0.1,0.2,0.2c1.8,0.1,3.6-0.6,4.9-1.9c1.2-1.3,1.9-3,2.1-4.8c0.6-0.3,1.1-0.6,1.5-1
	c0.4,2.7,1,4.7,1.2,5.6c-0.5,1.5-3.5,7.8-16.6,7.8S42,65,41.4,63.5C41.6,62.6,42.2,60.5,42.6,57.8L42.6,57.8z M84.2,85.6
	c1.5,0.9,2.8,1.9,4.1,3.2c-3.1,2.3-6.5,4.1-10.1,5.4L77,90.3L84.2,85.6z M73.7,89.1l1.8,6c-4.4,1.3-9,2.1-13.6,2.4l10.5-17.7
	c3.4,0.7,6.6,2.1,9.3,4.1L73.7,89.1z M64.5,87.6L59.9,82l5.3-5.4l4.6,2.2L64.5,87.6z M58,74.1c1.9,0,3.7-0.1,5.6-0.4v0.6l-5.5,5.6
	l-5.5-5.6v-0.6C54.3,73.9,56.1,74.1,58,74.1L58,74.1z M50.8,76.5l5.3,5.4l-4.6,5.6l-5.2-8.7L50.8,76.5z M54.1,97.4
	c-4.6-0.2-9.2-1-13.6-2.4l1.8-6l-8.1-5.3c2.8-2,6-3.4,9.3-4.1L54.1,97.4z M57.4,97.6L53,90.2l5-6l5,6l-4.4,7.4c-0.2,0-0.4,0-0.6,0
	S57.6,97.6,57.4,97.6L57.4,97.6z M90.5,87c-1.6-1.7-3.5-3.1-5.5-4.2c-4.8-4.4-11.4-5.7-12.8-6L66.3,74v-1c9.3-2.5,10.9-8.9,11-9.3
	l0.1-0.4l-0.1-0.2c0,0-0.6-2.2-1.2-5.2h0.1c0-2.4,0.4-4.7,1.1-6.9c1.1-3.7,1.8-7.5,2.2-11.3c0.8-6.8-0.2-11.5-3-14.7
	c-3.3-3.7-9.4-5.6-18.4-5.6S42.9,21.3,39.6,25c-2.9,3.2-3.9,7.9-3.1,14.6c0.4,3.8,1.1,7.6,2.2,11.3c0.7,2.2,1.1,4.5,1.1,6.8
	c-0.6,3.1-1.2,5.3-1.2,5.3l-0.1,0.4l0.1,0.4c0.1,0.3,1.7,6.8,11.1,9.3V74l-5.8,2.8c-1.3,0.2-8,1.5-12.8,6c-2.1,1.1-3.9,2.5-5.5,4.2
	c-9.7-8.2-15.2-20.9-15.2-36.8C10.4,21,28.7,2.8,58,2.8s47.6,18.2,47.6,47.4C105.6,66.1,100.2,78.8,90.5,87L90.5,87z M63.6,50.4h4.2
	v-2.8h-4.2V50.4z M48.2,50.4h4.2v-2.8h-4.2C48.2,47.6,48.2,50.4,48.2,50.4z M39.3,105.7c-0.5-3.3-0.8-4.8-2.5-5.3
	c-0.6-0.2-1.2-0.3-1.8-0.3l0.2,1.8l0,0c0.5,0,1.1,0,1.7,0.2c1.2,0.3,1.3,1.5,1.5,3.3c0,0-1.2-0.2-1.5-0.4c-1.8-0.6-5.3-2-7-2.8
	c-1.8-0.9-5.2-2.8-6.8-3.9c-0.2-0.1-0.8-0.6-0.8-0.6c0.5-3.4,0.8-4.9-0.7-5.9c-0.5-0.4-1.1-0.6-1.6-0.8l-0.4,1.7l0,0
	c0.5,0.2,1,0.4,1.6,0.7c1.1,0.7,0.8,1.8,0.4,3.6l-2.3-1.9c-0.2-0.3-0.4-0.6-0.8-0.8c-0.2-0.2-0.5-0.3-0.8-0.4c0,0-1-0.9-1.4-1.2
	c-0.2-0.2-0.9-1-0.9-1h0.4c0.5-3.1,0-5.3-1.1-6.9c-1.2-1.7-2.9-1.8-3.9-1.1c-0.4,0.3-0.7,0.8-0.8,1.4l-1-1.3H8.8L8.2,85l0.5,0.8
	l-6.1,4.3l0.5,1.4h0.1l6.3-4.6c0,0,0.4,0.6,0.5,0.8c0.8,1.1,3.5,4.1,3.5,4.1l-0.9,0.8c-0.4-0.8-0.8-1.4-1.2-1.9
	c-1.2-1.4-2.5-1.4-3.4-0.6c-0.4,0.3-0.7,0.9-0.8,1.7C7,93,7.3,93.9,7.9,94.6c0.4,0.4,0.8,0.7,1.4,0.9l-1.4,1.2L8.5,98h0.1l5.8-5.2
	c0,0,0.5,0.6,0.7,0.8c0.2,0.2,0.8,0.7,0.8,0.7c-0.1,0.1-0.2,0.2-0.3,0.3c-0.6,0.7-0.4,2,0.1,3.5c-0.2,0-0.4,0-0.7-0.1
	c-0.2-0.4-0.5-0.8-0.9-1.1c-0.6-0.5-1.1-0.4-1.4-0.1c-0.1,0.1-0.2,0.4-0.2,0.7c0,0.7,0.1,1.1,0.3,1.3c0.2,0.2,0.6,0.4,1,0.5
	c-0.2,1.9,0,3.2,0.4,4.1l0.1,0.1l1.4-0.8c-0.5-1.1-0.8-2.2-0.7-3c1.6,0.2,2.9,0,3.5-0.9c0.4-0.5,0.6-1,0.6-1.7l1.5,1.2l-4.7,5.8
	l0.8,1.2h0.2l4.9-6.1l1.4,0.9c-0.2,0.4-0.5,0.8-0.8,1.3c-0.9,1.6-0.9,2.4-0.3,3.6c0.3,0.6,0.7,1.1,1.2,1.4c0.4,0.2,0.8,0.3,1.2,0.3
	l-1.2,2l1,1h0.2l3.8-6.8c0,0,1.1,0.6,1.4,0.7c1.2,0.5,4.9,2,4.9,2l-0.4,0.9l-3.1-1.2c-1.6-0.6-2.3-0.3-2.5,0.3
	c-0.1,0.1-0.1,0.3-0.1,0.5c0.1,0.5,0.2,1.1,0.3,1.7c0.4,0.9,1.8,1.4,1.6,1.8c-0.1,0.3-0.6,0.5-1.2,0.4c-0.3-0.4-0.6-0.6-1.1-0.8
	c-0.4-0.2-0.8-0.1-1,0.3c-0.1,0.2,0,0.4,0,0.8c0.1,0.6,0.3,0.9,0.6,1c0.2,0.1,0.5,0.2,0.8,0.2c0.2,1.8,0.8,2.5,1.6,2.9l1.1-1.2
	c-0.9-0.4-1.6-1-1.9-1.6c0.9,0,1.5-0.3,1.8-0.9c0.2-0.4,0.2-1.1,0-2s-1.7-1.6-1.6-1.8c0.1-0.1,0.4-0.2,1.5,0.2l2.6,1l-1.9,4.6
	l1.2,0.9H33l2.8-7.3c0,0,0.9,0.3,1.2,0.3c0.2,0,0.7,0.2,0.7,0.2l-2.1,7.2l1.2,0.8l0.1-0.1l2.1-7.5l1.5,0.4l0.2-0.1l-0.2-1.3
	L39.3,105.7z M11.2,94.1c-0.3,0.3-0.6,0.3-1,0.2c-0.7-0.1-1.2-0.4-1.6-0.9C8,92.7,8,92.2,8.4,91.9c0.6-0.6,1.7-0.5,2.6,0.6
	c0.3,0.4,0.6,0.7,0.8,1.1L11.2,94.1z M11.2,87.1C11,86.8,10.4,86,10.4,86c0.1-0.1,0.2-0.3,0.4-0.4c0.7-0.5,1.7-0.4,2.6,0.4
	c0.2,0.2,0.4,0.4,0.6,0.7c0.9,1.3,1.1,3,1,4.9C15,91.5,12.1,88.3,11.2,87.1z M18.3,97.4c-0.4,0.5-0.9,0.7-1.5,0.7
	c-0.5-0.7-0.7-1.5-0.3-2c0.4-0.5,1.1-0.6,1.7-0.1C18.6,96.4,18.7,97,18.3,97.4z M23.3,100.2L23.3,100.2L23.3,100.2L23.3,100.2z
	 M23.4,105c-0.8-0.5-0.4-1.3,0.4-2.7c0.2-0.3,0.4-0.6,0.5-0.9l0,0l0.5,3.8C24.2,105.3,23.8,105.2,23.4,105z M26,104.4
	c-0.1,0.2-0.3,0.4-0.4,0.5l0,0l-0.4-3.7l0,0l2,1.1L26,104.4z M39.3,103.4l1.4-0.9l0.9,1.4l-1.4,0.9L39.3,103.4z M60.2,108.2
	c-1.4,0-4.1,0-5.4,0c-1,0-2.9-0.2-3.9-0.3c-1.9-0.2-7.4-1-7.4-1l-0.2,0.1l0.4,1.3l4.7,0.7l-0.1,0.9c0,0.2-0.1,0.3-0.4,0.3l-1.1-0.1
	c-2-0.3-3,0.3-3.2,1.7c-0.2,1.1,0.4,2.1,1.5,3l0,0c-0.8,0.3-1.1,0.7-1.2,1.3c-0.1,0.6,0.2,1.1,0.6,1.7c0.6,0.8,1.2,1.1,1.7,1.2
	c0.9,0.1,2-0.3,2.5-1.6l0,0l0.8,2.2l1.2,0.7l0.1-0.1c-0.9-2-1.7-3.7-1.8-4.2c0.4-0.2,0.8-0.6,0.9-1.1c0.1-0.7-0.4-1.7-1.2-1.8
	c-0.5-0.1-1.1,0.3-1.2,0.9c0,0.2,0,0.4,0,0.6c-0.3,0.1-0.6,0.1-0.9,0c-0.8-0.1-1.7-0.8-1.6-1.9c0.1-0.6,0.5-1.4,3-1.1l1.3,0.2
	l0.2-0.2l0.3-2.4c0,0,0.9,0.1,1.2,0.1s1.2,0.1,1.2,0.1l-0.5,7.4l1.4,0.5l0.1-0.1l0.5-7.7c0,0,0.9,0,1.2,0c0.7,0,2.9,0,2.9,0
	c0.1,0.2,0.1,0.4,0.1,0.7c0,0.7-0.1,1-0.3,1.3c-0.3,0-0.7,0-1.1,0s-0.7,0.1-0.8,0.4c-0.1,0.2-0.2,0.4-0.2,0.5c0,0.2,0.1,0.5,0.3,0.9
	c0.8,1.6,2.2,3,4,4.3h0.1l0.7-1.5c-1.4-0.7-2.5-1.4-3.2-2.2c1.1-0.6,1.9-1.5,1.9-3.3c0-0.4,0-0.7-0.1-1.1c0,0,1.5,0.1,2,0
	c0.1,0,0.5-0.1,0.5-0.1l0.4,7.5l1.4,0.3l0.1-0.1l-0.5-7.8l1.5-0.1l0.1-0.2l-0.7-1.2C64.1,108,61.2,108.1,60.2,108.2z M46.9,115.9
	c0.3,0,0.6,0.1,0.9,0c-0.2,1.3-1.4,1.7-2.1,1.6c-0.3,0-0.6-0.2-0.5-0.5C45.2,116.4,45.9,116,46.9,115.9z M88.6,112.9
	c-0.8-0.6-1.4-0.7-2-0.4c-0.4,0.2-0.8,0.6-1.1,1.2l1.2,0.8h0.1c0.3-0.4,0.6-0.8,0.9-1s0.5,0,0.6,0.1c0.3,0.6-0.2,1.3-0.9,1.6
	c-0.9,0.4-2.2,0.1-4-0.9h-0.1l-0.2,0.6c2.3,1.3,4,1.7,5.2,1.1c1-0.5,1.4-1.5,1.1-2.3C89.2,113.5,89,113.2,88.6,112.9z M107.7,85.5
	l0.9-1.2l-0.1-0.2l-1.3-0.3c0,0-3.4,4.7-4.7,6.1c-0.3,0.3-1.1,1.1-1.1,1.1l-0.1-0.5c-3-0.3-5.1,0.1-6.4,1.2
	c-1.6,1.3-1.5,2.9-0.8,3.8c0.3,0.4,0.8,0.6,1.5,0.8L94.7,97l-1.2,0.8c-2.9-1.7-4.2-2.5-5.7-1.5c-0.5,0.4-1,0.8-1.4,1.2l1.5,1l0,0
	c0.3-0.4,0.7-0.8,1.3-1.2c1-0.7,2-0.1,3.5,1c0,0-0.9,0.7-1.2,0.9c-1.6,1-4.8,2.8-6.5,3.6c-1.9,0.8-5.5,2.1-7.5,2.7
	c-0.8,0.2-3.8,0.9-3.8,0.9l-0.1,0.2l0.8,1.1l1.3-0.3l0.6,2.7c-0.4,0.3-0.8,0.6-1.3,0.7c-0.4,0.1-0.7,0.1-0.9,0
	c-0.2-0.1-0.3-0.2-0.5-0.3c0.2-0.4,0.3-0.9,0.2-1.2c-0.1-0.6-0.4-1-0.9-1.4c-0.8-0.7-1.5-1-2.5-0.8c-0.7,0.1-1.3,0.5-1.8,1.1v0.1
	l1.2,1.1c0.7-0.6,1.3-1,1.8-1.1c0.7-0.1,0.8,0.1,0.9,0.4c0.1,0.4-0.1,0.8-0.7,1.2c-0.6,0.2-1.2,0.5-1.7,0.9v0.2l1.2,1.2
	c0.6-0.4,1.1-0.6,1.5-0.7c0.6-0.1,0.9,0.1,1,0.6c0.2,0.8-0.6,1.6-1.3,1.7c-1.4,0.3-2.4-0.6-3.8-2.2l-0.4,0.4v0.1
	c1.7,2.2,3.4,3.4,5.2,3c1.3-0.3,2.1-1.4,1.8-2.6c0-0.2-0.1-0.4-0.2-0.6h0.1c0.4,0.1,0.9,0.2,1.4,0.1c0.1,0,0.2,0,0.3-0.1l0.6,2.9
	l1.5,0.1l0.1-0.1l-1.7-7.7c0,0,1.5-0.3,1.9-0.4c1-0.3,4-1.5,4-1.5L84,107c-1,0.2-1.8,0.4-2.5,0.7c-2.2,0.8-1.9,1.9-1.8,2.2
	c0.1,0.3,0.5,0.7,1.2,1c0.6,0.3,1.1,0.4,1.4,0.3c0.2-0.1,0.3-0.2,0.4-0.4c0.1-0.2,0.1-0.5,0-0.7s-0.2-0.5-0.4-0.9
	c0.2-0.2,0.7-0.4,1.2-0.6c0.4-0.1,0.7-0.2,1.1-0.4l1.4,3.9l1.5-0.1l0.1-0.1l-2.7-7.3c0,0,1.1-0.4,1.5-0.6c0.2-0.1,0.9-0.5,0.9-0.5
	l1.3,2.5c-0.9,0.8-0.9,1.2-0.7,1.6c0.2,0.4,0.7,0.7,1.4,0.9c0.7,0.2,1.2,0.2,1.5,0.1c0.1-0.1,0.2-0.2,0.3-0.4
	c0.2-0.3,0.1-0.5-0.4-1.5l2.5-1.4l1.5,2.8l1.4-0.3l0.1-0.1l-3.8-6.8c0,0,0.7-0.5,1-0.7c0.2-0.1,0.6-0.5,0.6-0.5l4.2,6.2l1.4-0.5
	l0.1-0.1l-4.5-6.4c0,0,1-0.6,1.3-0.9c0.1-0.1,0.4-0.4,0.4-0.4l4.6,5.9l1.4-0.6v-0.1L98,96.7c0,0,0.7-0.4,0.9-0.6
	c0.9-0.7,3.4-3.3,3.4-3.3l0.7,0.7c0.2,0.2,0.2,0.3,0,0.5l-0.6,0.6c-1.7,1.7-1.3,3-0.6,3.8c0.7,0.7,1.8,0.9,2.6,0.9
	c0.9,0,1.8-0.3,2.6-1c0.4-0.4,0.7-0.9,0.9-1.5c0.4,0,0.7,0.1,0.9,0.4c0.4,0.4,0.4,1.1,0.2,1.9l1.9-0.2l0,0c0.2-0.8,0-1.6-0.5-2.1
	c-0.6-0.6-1.3-0.7-2.4-0.7c0.1-0.6-0.1-1.2-0.4-1.5c-0.5-0.5-1.5-0.7-2.1-0.1c-0.5,0.5-0.6,1.2-0.1,1.7c0.2,0.2,0.5,0.4,0.7,0.4
	c-0.1,0.5-0.3,0.9-0.8,1.4c-0.6,0.6-1.5,0.6-2.1,0c-0.7-0.7-0.7-1.8,1-3.4l0.7-0.7v-0.2l-1.8-1.8c0,0,1-1,1.3-1.4
	c0.7-0.9,2.8-3.7,2.8-3.7l1,0.8c-0.4,0.5-0.8,1-1.3,1.6c-1.5,1.9-0.8,3,0,3.6c1.3,1,3.6,1,5.3,0.5l0.1-0.1l-0.7-1.3
	c-1.6,0.7-2.5,1-3.2,0.4c-0.3-0.3-0.5-0.6-0.5-1.1s0.3-1.1,1.1-2.1l0.4-0.6l3.8,2.9l1.2-0.9v-0.2L107.7,85.5z M92,103.9l-2.5,1.4
	l-1.4-2.5l2.5-1.4L92,103.9z M95.9,95.4c-0.7-0.8-0.5-2.1,0.7-3.1c1.2-0.9,2.8-1.2,4.7-1.1c0,0-2.7,2.8-3.8,3.7
	c-0.3,0.2-1.1,0.8-1.1,0.8C96.2,95.7,96,95.5,95.9,95.4z"/>
</svg>
