<?xml version="1.0" encoding="utf-8"?>
<!-- Generator: Adobe Illustrator 25.0.0, SVG Export Plug-In . SVG Version: 6.00 Build 0)  -->
<!DOCTYPE svg PUBLIC "-//W3C//DTD SVG 1.1//EN" "http://www.w3.org/Graphics/SVG/1.1/DTD/svg11.dtd" [
	<!ENTITY ns_extend "http://ns.adobe.com/Extensibility/1.0/">
	<!ENTITY ns_ai "http://ns.adobe.com/AdobeIllustrator/10.0/">
	<!ENTITY ns_graphs "http://ns.adobe.com/Graphs/1.0/">
	<!ENTITY ns_vars "http://ns.adobe.com/Variables/1.0/">
	<!ENTITY ns_imrep "http://ns.adobe.com/ImageReplacement/1.0/">
	<!ENTITY ns_sfw "http://ns.adobe.com/SaveForWeb/1.0/">
	<!ENTITY ns_custom "http://ns.adobe.com/GenericCustomNamespace/1.0/">
	<!ENTITY ns_adobe_xpath "http://ns.adobe.com/XPath/1.0/">
]>
<svg version="1.1" id="Layer_1" xmlns:x="&ns_extend;" xmlns:i="&ns_ai;" xmlns:graph="&ns_graphs;"
	 xmlns="http://www.w3.org/2000/svg" xmlns:xlink="http://www.w3.org/1999/xlink" x="0px" y="0px" width="101px" height="121.8px"
	 viewBox="0 0 101 121.8" style="enable-background:new 0 0 101 121.8;" xml:space="preserve">
<style type="text/css">
	.st0{fill-rule:evenodd;clip-rule:evenodd;fill:#67E6CA;}
</style>
<metadata>
	<sfw  xmlns="&ns_sfw;">
		<slices></slices>
		<sliceSourceBounds  bottomLeftOrigin="true" height="120.5" width="100.9" x="2.7" y="1.3"></sliceSourceBounds>
	</sfw>
</metadata>
<path id="_-e-icon5_gluten_free" class="st0" d="M50.5,0C19.9,0,0,19.9,0,50.7s19.8,50.7,50.4,50.7s50.5-19.9,50.5-50.7
	S81.1,0,50.5,0L50.5,0z M98.1,50.7c0,14.2-4.2,25.8-11.8,34L66.5,64.8c0.2-0.3,0.4-0.5,0.4-0.6l0.5-0.8l-0.5-0.7
	c-0.7-1-1.5-2-2.3-2.9c0.6,0.1,1.2,0.1,1.9,0.1c7.7,0,13.6-8.8,13.9-9.1l0.5-0.8l-0.5-0.8c-2.2-3.1-5-5.8-8.3-7.7
	c2-1,3.9-2.3,5.4-3.9c5.4-5.4,3.4-15.9,3.4-16.3l-0.2-0.9l-0.9-0.2c-0.4-0.1-10.8-2.1-16.3,3.4C62,25.1,60.7,27,59.7,29
	c-1.9-3.3-4.5-6.2-7.6-8.4l-0.8-0.5l-0.8,0.5c-0.4,0.3-9.1,6.2-9.1,13.9c0,0.6,0,1.3,0.1,1.9c-0.9-0.8-1.9-1.6-2.9-2.3l-0.8-0.5
	L37,34.1c-0.1,0-0.3,0.2-0.6,0.4L16.8,14.7C24.9,7.1,36.5,2.8,50.5,2.8C79.9,2.8,98.1,21.2,98.1,50.7L98.1,50.7z M50.7,77
	c-1.5,2-6,7.1-11,7.1c-6.1,0-11.3-3.3-11.3-7.1s5.2-7.1,11.3-7.1c1.3,0,2.6,0.3,3.8,0.9c0.5,0.4,1.1,0.7,1.7,0.9
	C47.3,73.2,49.2,74.9,50.7,77L50.7,77z M30.8,48.1c0-5,5.1-9.5,7.1-11c2,1.5,3.8,3.4,5.2,5.5c0.3,0.6,0.6,1.2,0.9,1.7
	c0.6,1.2,0.9,2.5,0.9,3.8c0,6.2-3.2,11.4-7.1,11.4c-1.9,0-3.7-1.3-4.9-3.3c-0.2-0.4-0.4-0.7-0.6-1.1C31.3,52.9,30.8,50.5,30.8,48.1
	L30.8,48.1z M44.2,34.6c0-5,5.1-9.5,7.1-11c1.9,1.5,6.9,5.8,7.1,10.7c0,0.3,0,0.6,0,0.9C58.2,41.1,55,46,51.3,46
	c-1.9,0-3.7-1.3-4.9-3.3c-0.2-0.4-0.4-0.7-0.6-1.1C44.7,39.4,44.2,37,44.2,34.6L44.2,34.6z M59.5,55.5c-0.3-0.2-0.7-0.4-1-0.6
	c-2-1.3-3.3-3.1-3.3-5c0-3.8,4.9-6.9,10.9-7.1c0.1,0,0.2,0,0.3,0c0.1,0,0.3,0,0.4,0C71.8,43,76,48,77.5,50c-1.6,2-6,7.1-11,7.1
	C64.1,57.1,61.8,56.6,59.5,55.5L59.5,55.5z M34.3,61.4c0.9,0.5,1.8,0.8,2.8,0.9L34,65.4c0.2-1.2,0.4-2.5,0.4-3.8
	C34.3,61.5,34.3,61.4,34.3,61.4L34.3,61.4z M47.7,47.8c0.9,0.5,1.8,0.8,2.8,0.9l-3.1,3.2c0.2-1.3,0.4-2.5,0.4-3.8
	C47.8,48,47.7,47.9,47.7,47.8L47.7,47.8z M39,64.2c0.1,1,0.4,1.9,0.9,2.8c-0.1,0-0.2,0-0.3,0c-1.3,0-2.5,0.1-3.8,0.4L39,64.2z
	 M52.5,50.7c0.1,1,0.4,2,0.9,2.8c-0.1,0-0.2,0-0.3,0c-1.3,0-2.5,0.1-3.8,0.4L52.5,50.7z M62.5,38.6c-2.7-2.7-1.4-8.7,3-13.1
	c2.4-2.4,6.3-3,9.4-3c1.1,0,2.3,0.1,3.4,0.2c0.3,2.5,0.8,9.3-2.8,12.8C71.3,40,65.3,41.4,62.5,38.6L62.5,38.6z M30.5,57.8
	c0.6,1.2,0.9,2.5,0.9,3.8c0,6.2-3.2,11.4-7.1,11.4s-7.1-5.2-7.1-11.4c0-5,5.1-9.5,7.1-11c2,1.5,3.8,3.4,5.2,5.5
	C29.9,56.7,30.2,57.2,30.5,57.8L30.5,57.8z M46.2,69c-0.3-0.2-0.7-0.4-1-0.6c-2-1.3-3.3-3.1-3.3-5c0-3.9,5.2-7.1,11.3-7.1
	c1.3,0,2.6,0.3,3.8,0.9c0.5,0.4,1.1,0.7,1.7,0.9c2.1,1.5,3.9,3.2,5.5,5.3c-1.6,2-6,7.1-11,7.1C50.8,70.6,48.4,70.1,46.2,69L46.2,69z
	 M14.7,16.7l19.6,19.6C31.7,38.7,28,43,28,48c0,0.6,0,1.3,0.1,1.9c-0.9-0.8-1.9-1.6-2.9-2.3l-0.8-0.5l-0.8,0.5
	c-0.4,0.3-9.1,6.2-9.1,13.9c0,7.6,4,13.6,9.1,14.1l-8.9,8.9c-7.6-8.2-11.8-19.8-11.8-34S7.1,24.9,14.7,16.7L14.7,16.7z M16.8,86.7
	l8.9-8.9C26.1,83,32.1,87,39.8,87c7.7,0,13.6-8.8,13.9-9.1l0.5-0.8l-0.5-0.8c-0.7-1-1.5-2-2.3-2.9c0.6,0.1,1.2,0.1,1.9,0.1
	c5,0,9.2-3.7,11.7-6.4l19.6,19.7c-8.2,7.7-19.7,11.9-33.8,11.9S24.9,94.3,16.8,86.7L16.8,86.7z M36,116.4c-0.4-0.1-1,0.1-1.6,0.4
	l0.5,1.3H35c0.5-0.2,0.9-0.4,1.3-0.3c0.4,0.1,0.5,0.3,0.4,0.4c-0.1,0.6-0.9,1-1.6,0.9c-1-0.1-1.9-1.1-2.9-2.9h-0.1l-0.5,0.4
	c1.2,2.4,2.4,3.6,3.8,3.8c1.1,0.2,2-0.4,2.1-1.3c0.1-0.3,0-0.7-0.1-1.2C37.3,116.9,36.8,116.5,36,116.4z M54.7,108.2
	c0,0-5.9,0.1-7.8-0.1c-0.4,0-1.5-0.2-1.5-0.2c-1.3-3.1-1.8-4.6-3.6-4.7c-0.6,0-1.3,0-1.8,0.1l0.6,1.7l0,0c0.5-0.1,1.1-0.2,1.7-0.2
	c1.3,0.1,1.6,1.1,2.1,2.9c0,0-3.9-0.3-5.2-0.5c-3.1-0.5-9.1-2.2-12-3.3c-1.3-0.5-4.9-2.2-4.9-2.2l-0.2,0.1l0.1,1.3l1.7,0.7
	c-0.1,0.4-0.3,0.9-0.5,1.4c-0.2,0.4-0.3,0.7-0.5,1.1c-0.7-0.2-1.2-0.3-1.4-0.2c-0.2,0.1-0.3,0.2-0.4,0.4c-0.1,0.3-0.1,0.8,0.1,1.4
	s0.5,1,0.7,1.1s0.5,0.1,0.9-0.1c0.5-0.4,1-1,1.5-2.3c0.3-0.6,0.5-1.3,0.8-2.2c0,0,1.1,0.5,1.5,0.7c1.8,0.7,7.5,2.2,7.5,2.2
	c0.1,0.3,0.1,0.5,0.1,0.6c-0.2,0.6-0.9,0.7-2,0.6c-0.3-0.3-0.6-0.6-1.1-0.7c-0.4-0.1-0.8,0-1.2,0.2c-0.5-0.7-1-1.1-1.7-1.3
	c-1.1-0.3-2.3,0.3-2.7,1.7c-0.5,1.8,0.6,4.1,2.1,5.4h0.1l0.8-1.2c-1.5-1-2.2-1.9-1.9-3c0.3-1,1.2-1.6,2-1.3c0.2,0,0.4,0.1,0.5,0.3
	c-0.4,0.4-0.8,0.8-1.1,1.3l1,1.2h0.1c0.7-0.9,1.4-1.7,2.2-1.5c0.1,0,0.2,0.1,0.3,0.1c0.3,2.1,1.2,3.5,2.7,3.9c0.5,0.1,1,0.2,1.5,0
	l-0.6,2l1.2,0.8l0.1-0.1l2-7.5c0,0,1.2,0.2,1.6,0.2c1,0.1,3.9,0.2,3.9,0.2l-0.1,1c0,0.2-0.1,0.3-0.3,0.3l-0.9-0.1
	c-2.4-0.3-3.2,0.9-3.3,2c-0.1,0.8,0.2,1.6,0.9,2.4s1.5,1.4,2.6,1.5c1,0.1,2.2-0.2,3.1-1.1v-0.1l-0.8-1.4c-1.1,0.9-2.1,1.2-3,1.2
	c-1-0.1-1.5-0.7-1.4-1.5c0.1-1.2,1.1-1.7,3.2-1.4l1,0.1l0.2-0.2l0.3-2.5c0,0,1.2,0.1,1.6,0.1c1.2,0,4.8,0,4.8,0v2
	c-1-0.1-1.9-0.2-2.6-0.2c-2.3,0-2.5,1.2-2.5,1.4c0,0.4,0.2,0.8,0.7,1.3s0.9,0.8,1.2,0.8c0.2,0,0.4-0.1,0.5-0.2
	c0.2-0.2,0.2-0.4,0.3-0.7c0-0.2,0-0.5-0.1-1c0.3-0.1,0.8-0.1,1.3-0.1c0.4,0,0.7,0,1.1,0.1l-0.1,4.2l1.4,0.4l0.1-0.1v-7.8h1.5
	l0.1-0.2L54.7,108.2z M36.7,111.1c-0.1,0.5-0.4,0.7-0.7,0.9c-0.5,0.2-1.1,0.3-1.7,0.1c-0.9-0.2-1.4-0.7-1.4-1.6
	c1.1,0.2,2.1-0.2,2.3-1c0.1-0.5,0.1-1-0.1-1.6l2.2,0.6L36.7,111.1z M67.6,117.3c-0.6-0.8-1.3-1-1.9-0.8c-0.4,0.1-0.9,0.4-1.4,0.9
	l1,1.1h0.1c0.3-0.4,0.7-0.7,1.1-0.8c0.4-0.1,0.5,0.1,0.6,0.2c0.1,0.6-0.5,1.2-1.2,1.4c-1,0.2-2.1-0.4-3.7-1.7h-0.1l-0.3,0.6
	c2,1.8,3.6,2.5,4.9,2.2c1.1-0.2,1.7-1.1,1.5-2C68.1,118,67.9,117.7,67.6,117.3z M79.9,103.8l1.4-0.5l0.1-0.2l-1-0.9
	c0,0-10.6,3.7-14.2,4.6c-2.2,0.5-9,1.4-9,1.4l-0.1,0.2l0.8,1.1l1.7-0.3l0.4,2.8c-1.1,0.4-1.3,0.8-1.2,1.2c0.1,0.4,0.4,0.9,1,1.3
	s1.1,0.6,1.4,0.6c0.1,0,0.3-0.1,0.4-0.2c0.3-0.3,0.3-0.4,0.1-1.5l2.8-0.4l0.4,3.1l1.4,0.2l0.1-0.1l-1.2-7.7c0,0,1.2-0.2,1.6-0.3
	c1-0.2,3.8-1.1,3.8-1.1l0.4,1.2c-0.8,0-1.5,0.1-2,0.3c-1.3,0.4-2,1.6-1.6,2.8c0.2,0.6,0.7,1.1,1.3,1.4c0.8,0.4,1.5,0.6,2.4,0.3
	c0.5-0.2,0.9-0.4,1.2-0.9l0,0l0.6,1.9l1.4-0.1l0.1-0.1l-1-2.9c0.4-0.9,0.8-1.5,1.4-1.8c0.6,1.5,2.4,2.8,4.1,3.3l0.1-0.1l0.1-1.5
	c-1.8-0.3-2.6-0.6-2.9-1.4c-0.1-0.4-0.1-0.8,0.2-1.2c0.3-0.4,0.8-0.8,2.1-1.2l0.7-0.2l1.5,4.5l1.5-0.1l0.1-0.1L79.9,103.8z
	 M61.5,111.7l-0.4-2.8l2.8-0.4l0.4,2.8L61.5,111.7z M70.3,112c-0.6,0.2-1,0.1-1.1-0.4c-0.3-0.8,0.1-1.7,1.5-2.2
	c0.3-0.1,0.6-0.2,0.8-0.2l0.4,1.1C71.5,111.2,70.9,111.8,70.3,112z M77,106.1c-1.4,0.5-1.9,1.1-2.1,1.8c-0.3,0-0.6,0-0.8,0.1
	c-0.5,0.2-0.9,0.5-1.2,0.9l0,0l-0.8-2.4l6.5-2.2l0.4,1.2C78.4,105.7,77.8,105.9,77,106.1z"/>
</svg>
