<svg xmlns="http://www.w3.org/2000/svg" width="1207.78" height="1053" viewBox="0 0 1207.78 1053">
  <defs>
    <style>
      .cls-1 {
        fill-rule: evenodd;
        opacity: 0.04;
      }
    </style>
  </defs>
  <path id="_-e-Car_dio_vax" data-name="-e-Car dio vax" class="cls-1" d="M1494.88,6934.98h165.6q56.16,0,99.12-20.4t66.72-58.32q23.76-37.905,23.76-89.28,0-51.345-23.76-89.28-23.76-37.9-66.72-58.32-42.96-20.385-99.12-20.4h-165.6v336Zm113.28-88.32V6687.3h47.52q36.465,0,58.32,20.88,21.84,20.88,21.84,58.8,0,37.935-21.84,58.8-21.855,20.88-58.32,20.88h-47.52Zm318.04,88.32h113.28v-336H1926.2v336Zm378.77,7.68q54.225,0,97.44-22.56t67.68-62.64q24.48-40.065,24.48-90.48,0-50.4-24.48-90.48t-67.68-62.64q-43.2-22.545-97.44-22.56-54.255,0-97.44,22.56-43.2,22.575-67.68,62.64-24.48,40.095-24.48,90.48,0,50.4,24.48,90.48t67.68,62.64q43.2,22.56,97.44,22.56h0Zm0-91.68a72.076,72.076,0,0,1-38.16-10.32q-17.055-10.305-27.12-29.28-10.08-18.945-10.08-44.4,0-25.425,10.08-44.4,10.08-18.945,27.12-29.28a75.712,75.712,0,0,1,76.32,0q17.025,10.335,27.12,29.28,10.08,18.975,10.08,44.4,0,25.455-10.08,44.4-10.08,18.975-27.12,29.28a72.176,72.176,0,0,1-38.16,10.32h0Zm-235.59,464H2186.5l-146.88-336H1928.26l-146.88,336h115.2l22.56-58.56h127.68Zm-119.04-140.16,32.64-84.48,32.64,84.48h-65.28Zm639.92,140.16-123.84-173.76,116.64-162.24H2461.14l-55.68,84.48-57.12-84.48h-127.2l117.12,166.56-121.44,169.44h129.12l56.64-89.76,58.08,89.76h129.6Zm-923.63-336-82.08,196.32-80.16-196.32H1382.47l142.08,336h111.36l142.08-336H1666.63Zm-68.31-416.32q48.96,0,87.36-17.28a162.058,162.058,0,0,0,63.36-49.92l-71.52-63.84q-31.2,39.375-73.44,39.36-35.52,0-57.12-22.8t-21.6-61.2q0-38.385,21.6-61.2,21.6-22.785,57.12-22.8,42.24,0,73.44,39.36l71.52-63.84a162.24,162.24,0,0,0-63.36-49.92q-38.4-17.28-87.36-17.28-53.28,0-96,22.32t-66.96,62.4q-24.24,40.095-24.24,90.96,0,50.9,24.24,90.96,24.24,40.1,66.96,62.4t96,22.32h0Zm470.73-7.68h117.12l-146.88-336H1927.93l-146.88,336h115.2l22.56-58.56h127.68Zm-119.04-140.16,32.64-84.48,32.64,84.48h-65.28Zm491.67,140.16h120.96l-70.56-103.68q30.705-15.84,47.04-42.72,16.3-26.865,16.32-62.88,0-38.385-18.72-67.2-18.72-28.8-53.28-44.16t-81.12-15.36H2240.56v336h113.28V6470.5h30.72Zm-0.48-209.28q0,18.72-11.52,29.04-11.52,10.335-34.56,10.32h-41.28v-78.72h41.28q23.04,0,34.56,10.32,11.52,10.335,11.52,29.04h0Z" transform="translate(-1382.47 -6247)"/>
</svg>
