<svg xmlns="http://www.w3.org/2000/svg" width="70" height="112.12" viewBox="0 0 70 112.12">
  <defs>
    <style>
      .cls-1 {
        fill: #00a580;
        fill-rule: evenodd;
      }
    </style>
  </defs>
  <path id="_-e-icon_a_form" data-name="-e-icon_a_form" class="cls-1" d="M1569.6,7004.87h-53.2a8.412,8.412,0,0,0-8.4,8.4v95.31a8.414,8.414,0,0,0,8.4,8.41h53.2a8.414,8.414,0,0,0,8.4-8.41v-95.31A8.412,8.412,0,0,0,1569.6,7004.87Zm-58.8,13.82a412.074,412.074,0,0,1,64.4,0v73.95a412.074,412.074,0,0,1-64.4,0v-73.95Zm5.6-11.02h53.2a5.6,5.6,0,0,1,5.6,5.6v2.61a413.3,413.3,0,0,0-64.4.01v-2.62A5.6,5.6,0,0,1,1516.4,7007.67Zm53.2,106.52h-53.2a5.612,5.612,0,0,1-5.6-5.61v-13.13c10.49,0.83,21.31,1.27,32.2,1.27s21.71-.44,32.2-1.27v13.13A5.612,5.612,0,0,1,1569.6,7114.19Zm1.43-32.24v-9.81a5.6,5.6,0,0,0-5.6-5.6h-44.86a5.6,5.6,0,0,0-5.6,5.6v9.81a5.612,5.612,0,0,0,5.6,5.61h44.86A5.612,5.612,0,0,0,1571.03,7081.95Zm-53.26,0v-9.81a2.8,2.8,0,0,1,2.8-2.8h44.86a2.8,2.8,0,0,1,2.8,2.8v9.81a2.8,2.8,0,0,1-2.8,2.81h-44.86A2.8,2.8,0,0,1,1517.77,7081.95Zm2.1-41.73h28.9a4.917,4.917,0,0,0,4.9-4.91v-7.01a4.908,4.908,0,0,0-4.9-4.9h-28.9a4.9,4.9,0,0,0-4.9,4.9v7.01A4.91,4.91,0,0,0,1519.87,7040.22Zm-2.1-11.92a2.1,2.1,0,0,1,2.1-2.1h28.9a2.1,2.1,0,0,1,2.1,2.1v7.01a2.1,2.1,0,0,1-2.1,2.1h-28.9a2.1,2.1,0,0,1-2.1-2.1v-7.01Zm4.36,4.5a1.5,1.5,0,0,1-.31-1.53,1.436,1.436,0,0,1,.31-0.46,1.2,1.2,0,0,1,.21-0.17,0.677,0.677,0,0,1,.24-0.12,0.9,0.9,0,0,1,.26-0.09,1.406,1.406,0,0,1,1.26.38,1.291,1.291,0,0,1,.31.46,1.4,1.4,0,0,1,.1.54,1.384,1.384,0,0,1-.41.99,1.339,1.339,0,0,1-.97.41A1.39,1.39,0,0,1,1522.13,7032.8Zm5.2-.99a1.39,1.39,0,1,1,1.4,1.4A1.4,1.4,0,0,1,1527.33,7031.81Zm11.2,0a1.4,1.4,0,0,1,1.4-1.41,1.405,1.405,0,0,1,0,2.81A1.391,1.391,0,0,1,1538.53,7031.81Zm-5.6,0a1.39,1.39,0,1,1,1.4,1.4A1.4,1.4,0,0,1,1532.93,7031.81Zm11.29,0.53a1.4,1.4,0,0,1-.11-0.53,1.417,1.417,0,0,1,.42-1,2.108,2.108,0,0,1,.45-0.31,1.332,1.332,0,0,1,.81-0.07,2.681,2.681,0,0,1,.27.07,1.278,1.278,0,0,1,.23.14,0.741,0.741,0,0,1,.21.17,1.407,1.407,0,0,1,.41,1,1.355,1.355,0,0,1-.41.99,1.23,1.23,0,0,1-.44.3,1.4,1.4,0,0,1-.53.11,1.421,1.421,0,0,1-.55-0.11,1.366,1.366,0,0,1-.45-0.3A1.384,1.384,0,0,1,1544.22,7032.34Zm13.57,0.33a1.4,1.4,0,0,1,1.98-1.98l2.63,2.63,6.24-6.25a1.4,1.4,0,1,1,1.98,1.98l-7.23,7.24a1.384,1.384,0,0,1-.99.41,1.367,1.367,0,0,1-.99-0.41Zm-37.92,29.12h28.9a4.917,4.917,0,0,0,4.9-4.91v-7.01a4.908,4.908,0,0,0-4.9-4.9h-28.9a4.9,4.9,0,0,0-4.9,4.9v7.01A4.91,4.91,0,0,0,1519.87,7061.79Zm-2.1-11.92a2.1,2.1,0,0,1,2.1-2.1h28.9a2.1,2.1,0,0,1,2.1,2.1v7.01a2.1,2.1,0,0,1-2.1,2.1h-28.9a2.1,2.1,0,0,1-2.1-2.1v-7.01Zm4.36,4.5a1.438,1.438,0,0,1,0-1.99,0.87,0.87,0,0,1,.21-0.17,0.9,0.9,0,0,1,.24-0.12,1.338,1.338,0,0,1,.26-0.09,1.4,1.4,0,0,1,1.26.38,1.8,1.8,0,0,1,.19.21c0.04,0.09.08,0.17,0.12,0.25s0.06,0.17.09,0.26a2.528,2.528,0,0,1,.01.28,1.367,1.367,0,0,1-.41.99,1.4,1.4,0,0,1-.97.41A1.477,1.477,0,0,1,1522.13,7054.37Zm5.18-.99a1.41,1.41,0,1,1,1.42,1.4A1.411,1.411,0,0,1,1527.31,7053.38Zm6.02,0.99a1.377,1.377,0,0,1-.42-0.99,1.261,1.261,0,0,1,.04-0.28,2.5,2.5,0,0,1,.07-0.26c0.04-.08.09-0.16,0.13-0.25a1.68,1.68,0,0,1,.18-0.21,1.118,1.118,0,0,1,.21-0.17,0.9,0.9,0,0,1,.24-0.12,1.338,1.338,0,0,1,.26-0.09,1.4,1.4,0,0,1,1.26,2.37,1.23,1.23,0,0,1-.44.3A1.393,1.393,0,0,1,1533.33,7054.37Zm24.46-.13a1.4,1.4,0,0,1,1.98-1.98l2.63,2.63,6.24-6.26a1.4,1.4,0,1,1,1.98,1.99l-7.23,7.24a1.384,1.384,0,0,1-.99.41,1.367,1.367,0,0,1-.99-0.41Zm-2.37,21.82a1.4,1.4,0,0,1,0,1.98l-4.03,4.03a1.4,1.4,0,0,1-.99.41,1.436,1.436,0,0,1-.99-0.41,1.412,1.412,0,0,1,0-1.98l1.88-1.89a0.176,0.176,0,0,1-.05.04,6.176,6.176,0,0,1-6.89,0,3.379,3.379,0,0,0-3.93,0,6.176,6.176,0,0,1-6.89,0,3.083,3.083,0,0,0-1.96-.63,1.4,1.4,0,0,1,0-2.8,5.793,5.793,0,0,1,3.44,1.05,3.379,3.379,0,0,0,3.93,0,6.16,6.16,0,0,1,6.88,0,3.4,3.4,0,0,0,3.94,0,8.632,8.632,0,0,1,.97-0.53l-1.32-1.32a1.413,1.413,0,0,1,0-1.98,1.394,1.394,0,0,1,1.98,0ZM1543,7100.87a4.865,4.865,0,1,0,4.86,4.86A4.865,4.865,0,0,0,1543,7100.87Zm0,6.92a2.06,2.06,0,1,1,2.06-2.06A2.063,2.063,0,0,1,1543,7107.79Z" transform="translate(-1508 -7004.88)"/>
</svg>
