<svg xmlns="http://www.w3.org/2000/svg" width="16" height="16.91" viewBox="0 0 16 16.91">
  <defs>
    <style>
      .cls-1 {
        fill: #5ed2b8;
        fill-rule: evenodd;
      }
    </style>
  </defs>
  <path id="icon_shield_check" class="cls-1" d="M515.017,6960.37l-6.4-2.65a1.636,1.636,0,0,0-1.23,0l-6.4,2.65a1.575,1.575,0,0,0-.987,1.46c0,6.57,3.817,11.1,7.383,12.58a1.636,1.636,0,0,0,1.23,0c2.857-1.18,7.387-5.26,7.387-12.58A1.578,1.578,0,0,0,515.017,6960.37Zm-2.646,4.23-4.787,4.75a0.884,0.884,0,0,1-1.252,0l-2.706-2.68a0.87,0.87,0,0,1,0-1.24l0.588-.59a0.9,0.9,0,0,1,1.251,0l1.493,1.48,3.576-3.54a0.876,0.876,0,0,1,1.251,0l0.588,0.58a0.871,0.871,0,0,1,.26.62A0.847,0.847,0,0,1,512.371,6964.6Z" transform="translate(-500 -6957.62)"/>
</svg>
