<?xml version="1.0" encoding="utf-8"?>
<!-- Generator: Adobe Illustrator 25.0.0, SVG Export Plug-In . SVG Version: 6.00 Build 0)  -->
<!DOCTYPE svg PUBLIC "-//W3C//DTD SVG 1.1//EN" "http://www.w3.org/Graphics/SVG/1.1/DTD/svg11.dtd" [
	<!ENTITY ns_extend "http://ns.adobe.com/Extensibility/1.0/">
	<!ENTITY ns_ai "http://ns.adobe.com/AdobeIllustrator/10.0/">
	<!ENTITY ns_graphs "http://ns.adobe.com/Graphs/1.0/">
	<!ENTITY ns_vars "http://ns.adobe.com/Variables/1.0/">
	<!ENTITY ns_imrep "http://ns.adobe.com/ImageReplacement/1.0/">
	<!ENTITY ns_sfw "http://ns.adobe.com/SaveForWeb/1.0/">
	<!ENTITY ns_custom "http://ns.adobe.com/GenericCustomNamespace/1.0/">
	<!ENTITY ns_adobe_xpath "http://ns.adobe.com/XPath/1.0/">
]>
<svg version="1.1" id="Layer_1" xmlns:x="&ns_extend;" xmlns:i="&ns_ai;" xmlns:graph="&ns_graphs;"
	 xmlns="http://www.w3.org/2000/svg" xmlns:xlink="http://www.w3.org/1999/xlink" x="0px" y="0px" width="102px" height="120.4px"
	 viewBox="0 0 102 120.4" style="enable-background:new 0 0 102 120.4;" xml:space="preserve">
<style type="text/css">
	.st0{fill-rule:evenodd;clip-rule:evenodd;fill:#67E6CA;}
</style>
<metadata>
	<sfw  xmlns="&ns_sfw;">
		<slices></slices>
		<sliceSourceBounds  bottomLeftOrigin="true" height="117.6" width="101.1" x="0.6" y="2.8"></sliceSourceBounds>
	</sfw>
</metadata>
<path id="_-e-icon1_vegan" class="st0" d="M51.1,0C20.4,0,0.5,19.7,0.5,50.1s19.8,50.1,50.5,50.1s50.6-19.7,50.6-50.1S81.8,0,51.1,0
	L51.1,0z M51.1,97.5c-29.4,0-47.7-18.1-47.7-47.4S21.6,2.8,51.1,2.8s47.7,18.1,47.7,47.4S80.4,97.5,51.1,97.5L51.1,97.5z M77.3,37.1
	l-1-0.2c-5.9-0.9-12-0.8-17.9,0.4C56,32,52.7,27.1,48.7,22.9L48,22.2L47,22.6c-0.8,0.4-19.7,9.1-22.8,26.2
	c-2.3,13,12.3,26.8,13.2,27.6l0,0l0,0l0,0l0.8,0.2c3.6,0.7,7.3,1.1,11,1.1c6.5,0,14.4-1.2,19.4-6.2C81,59.2,77.4,38.8,77.2,38
	L77.3,37.1z M73.8,56.8L63,53.2l12-11.9C75.4,46.5,75,51.8,73.8,56.8L73.8,56.8z M73,39.4l-12.2,12l-3.7-10.8
	C62.4,39.3,67.7,38.9,73,39.4L73,39.4z M50.3,61.9l-5.2-15c2.7-2.5,5.9-4.3,9.4-5.5l4.2,12.2L50.3,61.9z M39.7,72.5
	C39,67.4,38.1,56.2,43,49.3L48,64.1L39.7,72.5z M27.1,49.4c2.4-13.6,16.6-21.8,20.3-23.7c3.4,3.7,6.2,7.9,8.3,12.4
	c-4.9,1.3-9.5,3.9-13.2,7.4c-7,7-6.6,19.6-5.8,26.1C32.6,67,25.6,57.8,27.1,49.4L27.1,49.4z M41.7,74.4l8.6-8.5l15.1,5
	C58.4,76,46.8,75.1,41.7,74.4z M67.7,68.8l-15.2-5l8.4-8.3l12.3,4.1C71.8,62.9,70,66.1,67.7,68.8z M16.5,109.1l0.3-0.5
	c1.3,0.5,1.4,0.5,2-0.6l2.1-4.3c0.3-0.7,0.3-0.8-0.2-1.2l-0.7-0.4l0.2-0.5c1.1,0.3,2.2,0.5,3.4,0.7l-3.2,6.5
	c-0.5,1.1-0.5,1.2,0.7,1.9l-0.3,0.5L16.5,109.1z M28.3,104.3c2.5,0.9,2.5,3.6,1.7,5.6c-0.7,2-2.4,4.1-4.9,3.3
	c-2.5-0.9-2.5-3.5-1.7-5.6C24.1,105.5,25.8,103.4,28.3,104.3L28.3,104.3z M28.1,104.9c-1.2-0.4-2.2,1.4-2.8,3.2
	c-0.7,1.9-1,3.9,0.2,4.4c1.2,0.4,2.2-1.4,2.9-3.3C28.9,107.4,29.3,105.4,28.1,104.9L28.1,104.9z M35.8,106.4
	c2.6,0.6,2.9,3.2,2.4,5.3c-0.5,2.1-1.8,4.4-4.5,3.9c-2.6-0.6-2.9-3.2-2.5-5.4C31.8,108.2,33.3,105.9,35.8,106.4L35.8,106.4z
	 M35.7,107.1c-1.2-0.3-2,1.7-2.4,3.6s-0.5,4,0.7,4.3s2-1.7,2.4-3.6C36.8,109.4,36.9,107.4,35.7,107.1L35.7,107.1z M44.3,106.4
	c1.8,0.1,2.5,1.8,2.4,3.2c-0.1,1.3-0.9,3-2.7,2.9s-2.5-1.8-2.4-3.2C41.7,108,42.5,106.3,44.3,106.4L44.3,106.4z M44.3,107.1
	c-0.9,0-1.1,1.5-1.2,2.3c0,0.8,0.1,2.4,1,2.5c0.9,0,1.1-1.6,1.2-2.4C45.2,108.7,45.2,107.1,44.3,107.1L44.3,107.1z M43.9,117.6
	l-0.6-0.5l7.1-10.6L51,107L43.9,117.6z M50.5,111.4c1.8,0.1,2.5,1.8,2.4,3.2c-0.1,1.3-0.9,3-2.7,2.9s-2.5-1.8-2.4-3.2
	C47.9,113,48.7,111.3,50.5,111.4L50.5,111.4z M50.5,112c-0.9,0-1.1,1.5-1.2,2.4c0,0.9,0.1,2.4,1,2.5s1.1-1.6,1.2-2.4
	C51.5,113.6,51.4,112,50.5,112L50.5,112z M82,102.3l1.4-0.7v-0.2l-1.1-0.8c0,0-5.2,2.7-7,3.4c-1.8,0.7-5.6,1.8-7.5,2.3
	c-0.3,0.1-1.1,0.2-1.1,0.2c-0.4-0.8-0.9-1.5-1.5-2c-1.1-1-2.3-1.3-3.3-1.1c-1.2,0.3-1.8,1.1-1.6,2.1c0.1,0.5,0.4,1,0.9,1.4l1.4,0.3
	l0.1-0.2c-0.4-0.3-0.7-0.6-0.7-1c-0.1-0.7,0.2-1.2,0.9-1.4c1.2-0.3,2,0.6,2.4,2.3c0,0-1,0.2-1.4,0.3c-1.9,0.3-7.7,1.1-7.7,1.1
	l-0.1,0.2l0.7,1.1l5.3-0.7l0.2,1.2c-0.9-0.1-1.6-0.1-2.2,0c-1.8,0.2-2.5,1.3-2.4,2.5c0.1,0.5,0.3,1,1,1.7c0.8,0.8,1.7,1.1,2.7,1
	c0.5-0.1,1.1-0.3,1.6-0.7l0.2,1.8l1.4,0.2l0.1-0.1l-1-7.7c0,0,1.2-0.3,1.6-0.4c0.1,0,0.3-0.1,0.3-0.1l1.6,7.3l1.5,0.1l0.1-0.1
	l-1.7-7.6c0,0,0.7-0.2,1-0.2c0.5-0.1,1.8-0.5,1.8-0.5c0.2,0.4,0.4,0.9,0.5,1.4c0.1,0.4,0.2,0.8,0.3,1.1c-0.7,0.3-1.1,0.5-1.2,0.8
	c-0.1,0.2-0.1,0.4,0,0.5c0.1,0.3,0.5,0.7,1,1c0.6,0.3,1,0.4,1.3,0.4c0.3-0.1,0.5-0.3,0.6-0.7c0.1-0.6,0-1.4-0.4-2.7
	c-0.2-0.6-0.5-1.3-0.8-2.2l2.4-0.8l2.2,7.1h1.5l0.1-0.1l-2.4-7.4c0,0,1.1-0.3,1.5-0.5c1.1-0.4,4.2-2.1,4.2-2.1l0.8,1.8
	c-1,0.3-1.8,0.6-2.4,0.9c-2.1,1-1.7,2.1-1.6,2.3c0.2,0.3,0.6,0.6,1.2,0.9c0.7,0.3,1.1,0.3,1.4,0.2c0.2-0.1,0.3-0.2,0.4-0.4
	c0.1-0.3,0-0.5-0.1-0.7s-0.3-0.5-0.5-0.8c0.2-0.2,0.6-0.5,1.1-0.7c0.4-0.2,0.7-0.3,1-0.5l1.8,3.8l1.4-0.2l0.1-0.1L82,102.3z
	 M62.5,112.8c-0.5,0.5-1,0.8-1.7,0.8c-0.9,0.1-1.3-0.2-1.4-0.7c-0.1-0.8,0.5-1.6,2-1.8c0.5-0.1,0.9-0.1,1.3,0l0.1,0.7
	C62.9,112.3,62.7,112.5,62.5,112.8z"/>
</svg>
