<svg xmlns="http://www.w3.org/2000/svg" width="16" height="16" viewBox="0 0 16 16">
  <defs>
    <style>
      .cls-1 {
        fill: #67e6ca;
        fill-rule: evenodd;
      }
    </style>
  </defs>
  <path id="_-e-icon_thumb_down" data-name="-e-icon_thumb_down" class="cls-1" d="M2527,7826.75v7.5a0.749,0.749,0,0,0,.75.75h2.5a0.755,0.755,0,0,0,.75-0.75v-7.5a0.755,0.755,0,0,0-.75-0.75h-2.5A0.749,0.749,0,0,0,2527,7826.75Zm9.75,14.25c-0.63,0-.92-1.23-1.06-1.81a3.846,3.846,0,0,0-.8-1.84c-1.01-1.01-1.54-2.31-2.78-3.53a0.386,0.386,0,0,1-.11-0.27v-6.68a0.369,0.369,0,0,1,.37-0.37,5.009,5.009,0,0,0,1.64-.51,8.989,8.989,0,0,1,3.74-.99h0.09c1.33,0,2.91.01,3.55,0.93a1.638,1.638,0,0,1,.19,1.39,2.488,2.488,0,0,1,.52,2.34,2.645,2.645,0,0,1,.29,2.48v0.01a2.261,2.261,0,0,1,.61,1.53,1.875,1.875,0,0,1-1.86,1.82h-3.18c0.23,0.89,1.04,1.63,1.04,2.95C2539,7840.75,2537.5,7841,2536.75,7841Z" transform="translate(-2527 -7825)"/>
</svg>
