<svg xmlns="http://www.w3.org/2000/svg" width="128" height="117.34" viewBox="0 0 128 117.34">
  <defs>
    <style>
      .cls-1 {
        fill: #67e6ca;
        fill-rule: evenodd;
      }
    </style>
  </defs>
  <path id="_-e-quotes" data-name="-e-quotes" class="cls-1" d="M1327.67,3764.33v-44.76a36.3,36.3,0,0,1,1.52-72.57,35.9,35.9,0,0,1,19.76,5.91l-1.66,2.56a32.862,32.862,0,0,0-18.1-5.42,33.25,33.25,0,0,0,0,66.5h1.52v39.31l9.87-11.96a94.973,94.973,0,0,0,14.4-23.91l2.8,1.18a97.763,97.763,0,0,1-14.86,24.67Zm55.62,0v-44.76A36.3,36.3,0,1,1,1421,3683.3a98.492,98.492,0,0,1-22.46,62.54Zm1.52-114.28a33.25,33.25,0,0,0,0,66.5h1.52v39.31l9.87-11.96a95.454,95.454,0,0,0,21.76-60.6A33.24,33.24,0,0,0,1384.81,3650.05Z" transform="translate(-1293 -3647)"/>
</svg>
