<svg xmlns="http://www.w3.org/2000/svg" width="133" height="133" viewBox="0 0 133 133">
  <defs>
    <style>
      .cls-1 {
        fill: #67e6ca;
        fill-rule: evenodd;
      }
    </style>
  </defs>
  <path id="_-e-shape_green" data-name="-e-shape_green" class="cls-1" d="M2006,1385.5c0,8.45-9.75,14.9-12.8,22.24-3.16,7.62-.94,19.04-6.68,24.78s-17.16,3.52-24.78,6.68c-7.34,3.05-13.79,12.8-22.24,12.8s-14.9-9.75-22.24-12.8c-7.62-3.16-19.04-.94-24.78-6.68s-3.53-17.16-6.68-24.78c-3.05-7.34-12.8-13.79-12.8-22.24s9.75-14.9,12.8-22.24c3.15-7.62.94-19.04,6.68-24.78s17.16-3.53,24.78-6.68c7.34-3.05,13.79-12.8,22.24-12.8s14.9,9.75,22.24,12.8c7.62,3.15,19.04.94,24.78,6.68s3.52,17.16,6.68,24.78C1996.25,1370.6,2006,1377.05,2006,1385.5Z" transform="translate(-1873 -1319)"/>
</svg>
