<svg xmlns="http://www.w3.org/2000/svg" width="1920" height="61" viewBox="0 0 1920 61" preserveAspectRatio="none">
  <defs>
    <style>
      .cls-1 {
        fill: #67e6ca;
        fill-rule: evenodd;
      }
    </style>
  </defs>
  <path id="_-e-line_wave" data-name="-e-line_wave" class="cls-1" d="M2944,5011c-80.09,0-120.8-15.27-160.17-30.03-39.29-14.74-79.92-29.97-159.83-29.97s-120.53,15.23-159.82,29.97c-39.37,14.76-80.09,30.03-160.18,30.03s-120.8-15.27-160.17-30.03c-39.29-14.74-79.92-29.97-159.82-29.97s-120.54,15.23-159.83,29.97C1784.81,4995.73,1744.1,5011,1664,5011s-120.8-15.27-160.17-30.03c-39.29-14.74-79.92-29.97-159.83-29.97s-120.53,15.23-159.82,29.97C1144.8,4995.73,1104.09,5011,1024,5011v-1c79.91,0,120.54-15.24,159.83-29.97,39.37-14.76,80.08-30.03,160.17-30.03s120.81,15.27,160.18,30.03c39.29,14.73,79.91,29.97,159.82,29.97s120.54-15.24,159.83-29.97c39.37-14.76,80.08-30.03,160.18-30.03s120.8,15.27,160.17,30.03c39.29,14.73,79.91,29.97,159.82,29.97s120.54-15.24,159.83-29.97c39.37-14.76,80.08-30.03,160.17-30.03s120.8,15.27,160.18,30.03c39.28,14.73,79.91,29.97,159.82,29.97v1Z" transform="translate(-1024 -4950)"/>
</svg>
