<svg xmlns="http://www.w3.org/2000/svg" width="700" height="41" viewBox="0 0 700 41" preserveAspectRatio="none">
  <defs>
    <style>
      .cls-1 {
        fill: #52bfa8;
        fill-rule: evenodd;
      }
    </style>
  </defs>
  <path id="line_wave" class="cls-1" d="M700,2595c-43.858,0-66.149-10.19-87.706-20.05C590.834,2565.14,568.643,2555,525,2555s-65.83,10.14-87.29,19.95c-21.557,9.86-43.848,20.05-87.705,20.05s-66.152-10.19-87.71-20.05C240.837,2565.14,218.646,2555,175,2555s-65.833,10.14-87.294,19.95C66.151,2584.81,43.859,2595,0,2595v-1c43.643,0,65.833-10.15,87.294-19.96,21.558-9.85,43.85-20.04,87.71-20.04s66.151,10.19,87.71,20.04c21.461,9.81,43.652,19.96,87.294,19.96s65.83-10.15,87.289-19.96C458.853,2564.19,481.144,2554,525,2554s66.149,10.19,87.707,20.04c21.46,9.81,43.65,19.96,87.29,19.96v1Z" transform="translate(0 -2554)"/>
</svg>
