<svg xmlns="http://www.w3.org/2000/svg" width="133" height="133" viewBox="0 0 133 133">
  <defs>
    <style>
      .cls-1 {
        fill-rule: evenodd;
        opacity: 0.06;
      }
    </style>
  </defs>
  <path id="shape_blakk" class="cls-1" d="M1404,4439.5c0,8.45-9.75,14.89-12.8,22.24-3.16,7.62-.94,19.04-6.68,24.78s-17.16,3.52-24.78,6.68c-7.34,3.05-13.79,12.8-22.24,12.8s-14.9-9.75-22.24-12.8c-7.62-3.16-19.04-.94-24.78-6.68s-3.53-17.16-6.68-24.78c-3.05-7.35-12.8-13.79-12.8-22.24s9.75-14.9,12.8-22.24c3.15-7.62.94-19.04,6.68-24.78s17.16-3.53,24.78-6.68c7.34-3.05,13.79-12.8,22.24-12.8s14.9,9.75,22.24,12.8c7.62,3.15,19.04.94,24.78,6.68s3.52,17.16,6.68,24.78C1394.25,4424.6,1404,4431.05,1404,4439.5Z" transform="translate(-1271 -4373)"/>
</svg>
