<svg xmlns="http://www.w3.org/2000/svg" width="106.38" height="112.12" viewBox="0 0 106.38 112.12">
  <defs>
    <style>
      .cls-1 {
        fill: #00a580;
        fill-rule: evenodd;
      }
    </style>
  </defs>
  <path id="_-e-icon_b_operator" data-name="-e-icon_b_operator" class="cls-1" d="M1997.96,7084.5c-0.01-.05-0.04-0.09-0.05-0.14v-0.01h-0.01c-0.68-2.52-4.04-4.27-8.28-4.27a12.909,12.909,0,0,1-11.25,0c-4.24,0-7.6,1.75-8.28,4.26a0.01,0.01,0,0,1-.01.01v0.02c-0.01.04-.04,0.08-0.05,0.13a1.7,1.7,0,0,0-.01.22,2.432,2.432,0,0,0,0,.27c0.01,0.07.03,0.12,0.04,0.18a2.349,2.349,0,0,0,.14.37,0.1,0.1,0,0,1,.04.05,1.422,1.422,0,0,0,.67.56,12.3,12.3,0,0,1,2.49,1.67c2.45,1.89,5.8,4.49,10.6,4.49,4.78,0,8.14-2.6,10.59-4.49a12.3,12.3,0,0,1,2.49-1.67,1.422,1.422,0,0,0,.67-0.56c0.01-.02.03-0.04,0.04-0.06a1.419,1.419,0,0,0,.14-0.36c0.01-.06.03-0.11,0.04-0.18a2.432,2.432,0,0,0,0-.27A1.7,1.7,0,0,0,1997.96,7084.5Zm-5.08,1.1c-2.25,1.74-5.05,3.91-8.88,3.91s-6.64-2.17-8.89-3.91c-0.62-.48-1.2-0.92-1.76-1.29a8.076,8.076,0,0,1,5.02-1.43,8.619,8.619,0,0,1,4.81,1.27,1.412,1.412,0,0,0,1.64,0,8.56,8.56,0,0,1,4.8-1.27,8.02,8.02,0,0,1,5.01,1.43C1994.08,7084.68,1993.5,7085.12,1992.88,7085.6Zm40.08-38.94a21.16,21.16,0,0,0-4.03-4.25c-1.6-14.71-11.61-27.22-25.6-33.4-0.14-.05-0.28-0.12-0.43-0.18a48.774,48.774,0,0,0-19.4-3.96c-23.99,0-43.71,16.98-45.52,38.47v0.01a22.087,22.087,0,0,0-2.94,29.31,18.766,18.766,0,0,0,9.28,7.09c2.34,14.31,12.27,25.68,24.91,28.68,0.91,4.86,5.5,8.56,11.03,8.56h6.46c6.17,0,11.2-4.62,11.2-10.31s-5.03-10.32-11.2-10.32h-6.46c-5.74,0-10.47,3.99-11.11,9.14-10.92-2.9-19.51-12.77-21.89-25.23a6.255,6.255,0,0,0,5.87-3.91c1.13-3.39,1.62-11.9,1.44-19.65a0.284,0.284,0,0,0,.04-0.13c2.73-14.05,8.1-17.7,26.03-17.7a19.124,19.124,0,0,0,15.54-7.59c11.44,3.08,16.63,10.1,17.28,23.26v0.03c-0.31,8.27.15,18.08,1.4,21.78a6.23,6.23,0,0,0,6.03,3.91,7.329,7.329,0,0,0,1.67-.2c8.21-1.99,14.64-10.96,14.64-20.42A22.552,22.552,0,0,0,2032.96,7046.66Zm-61.06,59.43c0.34-3.87,3.97-6.93,8.36-6.93h6.46c4.63,0,8.4,3.37,8.4,7.52,0,4.13-3.77,7.51-8.4,7.51h-6.46a8.373,8.373,0,0,1-7.98-5.22,6.724,6.724,0,0,1-.4-2.29C1971.88,7106.48,1971.89,7106.28,1971.9,7106.09Zm31.84-93.8c11.55,5.65,19.95,15.97,22.08,28.16a15.3,15.3,0,0,0-2.47-.98c-2.21-9.88-8.68-17.32-20.37-23.31C2003.35,7014.63,2003.59,7013.3,2003.74,7012.29Zm16.62,26.77a7.251,7.251,0,0,0-2.09.49c-2.39-5.74-6.63-12.5-17.34-16.72,0.53-1.34.96-2.65,1.33-3.89C2012.38,7024.25,2018.19,7030.71,2020.36,7039.06Zm-36.86-31.39a46.12,46.12,0,0,1,17.57,3.43c-0.1.9-.34,2.33-0.72,4.07-1.24-.41-2.48-0.83-3.75-1.12a47.429,47.429,0,0,0-5.63-1.1,46.622,46.622,0,0,0-11.38-.28,47.1,47.1,0,0,0-10.34,2.1,40.5,40.5,0,0,0-10.77,5.19l-0.1.07a0.333,0.333,0,0,0-.15.3,0.35,0.35,0,0,0,.35.35,0.476,0.476,0,0,0,.18-0.06l0.12-.08a44.92,44.92,0,0,1,10.16-4.69,40.581,40.581,0,0,1,10.63-1.78,45.1,45.1,0,0,1,10.95.94,51.82,51.82,0,0,1,5.31,1.39c1.27,0.39,2.52.9,3.76,1.4-0.37,1.32-.84,2.72-1.4,4.15-4.59-1.23-20.52-4.91-32.15.03-13.68,5.79-17.48,14.66-18.3,17.11a7.028,7.028,0,0,0-2.41.16,15.828,15.828,0,0,0-4.35,1.78C1944.04,7022.19,1961.94,7007.67,1983.5,7007.67Zm-33.03,67.79a3.476,3.476,0,0,1-3.63,1.99,3.881,3.881,0,0,1-.75-0.11,12.269,12.269,0,0,1-2.16-.74c-5.39-2.43-10.33-8.85-10.33-16.95a19.187,19.187,0,0,1,5.1-13.09,16.582,16.582,0,0,1,2-1.86,13.983,13.983,0,0,1,5.39-2.73c1.89-.47,3.89.4,4.38,1.87C1952.3,7049.31,1952.3,7070,1950.47,7075.46Zm44.53-47.27c-1.09-.18-2.17-0.37-3.26-0.48-1.44-.1-2.87-0.29-4.31-0.28a54.944,54.944,0,0,0-17.04,2.38,28.132,28.132,0,0,0-7.59,3.56,0.346,0.346,0,0,0-.15.28,0.3,0.3,0,0,0,.06.2,0.351,0.351,0,0,0,.29.15,0.394,0.394,0,0,0,.2-0.05,33.724,33.724,0,0,1,8.03-3.41,41.091,41.091,0,0,1,7.8-1.22,48.445,48.445,0,0,1,8.26.21c1.37,0.1,2.73.41,4.09,0.61,0.59,0.11,1.17.25,1.76,0.39a16.372,16.372,0,0,1-12.5,5.55c-15.54,0-22.75,2.9-26.54,12.12a28.271,28.271,0,0,0-.97-5.24,5.534,5.534,0,0,0-2.62-3.04c0.72-2.01,4.22-10.08,16.72-15.36a33.794,33.794,0,0,1,13.02-2.26,71.383,71.383,0,0,1,16.88,2.26A27.306,27.306,0,0,1,1995,7028.19Zm19.86,14.77c-0.12.35-.23,0.76-0.34,1.22-2.56-7.83-7.94-12.74-16.6-15.32a32.418,32.418,0,0,0,1.9-3.46c10.07,3.94,13.85,10.12,16.09,15.78A5.023,5.023,0,0,0,2014.86,7042.96Zm7.04,34.38c-1.88.46-3.89-.41-4.38-1.88-1.15-3.43-1.59-12.91-1.28-20.81h0.03c0-.11-0.01-0.22-0.01-0.32,0.18-4.53.6-8.51,1.26-10.49a3.447,3.447,0,0,1,3.36-2,4.02,4.02,0,0,1,1.02.13,13.486,13.486,0,0,1,4.35,1.96,17.446,17.446,0,0,1,2.9,2.46,19.334,19.334,0,0,1,5.25,13.26C2034.4,7068.83,2028.04,7075.86,2021.9,7077.34Zm-51.01-7.76a1.4,1.4,0,0,0,1.4-1.41v-3.6a11.956,11.956,0,0,0,3.1-.78l0.67,3.09a1.4,1.4,0,0,0,1.37,1.11,1.5,1.5,0,0,0,.29-0.03,1.411,1.411,0,0,0,1.08-1.67l-0.83-3.85a15.463,15.463,0,0,0,1.75-1.35,1.4,1.4,0,0,0-1.86-2.09,10.05,10.05,0,0,1-13.93,0,1.4,1.4,0,0,0-1.87,2.09,16.5,16.5,0,0,0,1.74,1.34l-0.83,3.86a1.411,1.411,0,0,0,1.08,1.67,1.428,1.428,0,0,0,.29.03,1.4,1.4,0,0,0,1.37-1.11l0.67-3.09a12.13,12.13,0,0,0,3.11.78v3.6A1.406,1.406,0,0,0,1970.89,7069.58Zm33.17-10.58a10.05,10.05,0,0,1-13.93,0,1.4,1.4,0,0,0-1.86,2.09,15.463,15.463,0,0,0,1.75,1.35l-0.83,3.85a1.411,1.411,0,0,0,1.08,1.67,1.5,1.5,0,0,0,.29.03,1.4,1.4,0,0,0,1.37-1.11l0.67-3.09a11.956,11.956,0,0,0,3.1.78v3.6a1.4,1.4,0,1,0,2.8,0v-3.6a12.13,12.13,0,0,0,3.11-.78l0.67,3.09a1.4,1.4,0,0,0,1.37,1.11,1.428,1.428,0,0,0,.29-0.03,1.411,1.411,0,0,0,1.08-1.67l-0.84-3.86a15.631,15.631,0,0,0,1.75-1.34A1.4,1.4,0,0,0,2004.06,7059Z" transform="translate(-1930.81 -7004.88)"/>
</svg>
