<svg xmlns="http://www.w3.org/2000/svg" width="106.35" height="121.78" viewBox="0 0 106.35 121.78">
  <defs>
    <style>
      .cls-1 {
        fill: #67e6ca;
        fill-rule: evenodd;
      }
    </style>
  </defs>
  <path id="_-e-icon5_gluten_free" data-name="-e-icon5_gluten_free" class="cls-1" d="M2439.59,2472.37l1.46,1.48-2.83,2.81a5.979,5.979,0,0,1-1.96-.66,7.552,7.552,0,0,1-1.72-1.28,5.968,5.968,0,0,1-1.47-2.42,4.973,4.973,0,0,1-.06-2.65,5.322,5.322,0,0,1,3.71-3.7,4.85,4.85,0,0,1,2.64.1,5.82,5.82,0,0,1,2.42,1.52,6.216,6.216,0,0,1,1.34,1.97,4.765,4.765,0,0,1,.34,2.16l-1.98-.09a3.376,3.376,0,0,0-1-2.59,3.5,3.5,0,0,0-1.45-.92,2.777,2.777,0,0,0-1.59-.02,3.458,3.458,0,0,0-2.31,2.31,2.865,2.865,0,0,0,0,1.59,3.338,3.338,0,0,0,.88,1.46,3.765,3.765,0,0,0,1.54.96Zm6.88-.33,1.87,1.29-4.51,6.59,4.05,2.8-1.04,1.53-5.93-4.09Zm4.63,13.38a4.481,4.481,0,0,1,.3-3.52l2.26-5.03,2.07,0.94-2.23,4.95q-1.08,2.415.91,3.32a2.061,2.061,0,0,0,1.74.09,2.976,2.976,0,0,0,1.33-1.6l2.23-4.95,2.05,0.93-2.27,5.03A4.627,4.627,0,0,1,2451.1,2485.42Zm14.81-1.74-3.03-.8,0.46-1.8,8.27,2.17-0.46,1.8-3.04-.8-2.01,7.74-2.19-.57Zm14.12,8.67-0.2,1.82-7.55-.86,1.11-9.8,7.36,0.85-0.2,1.81-5.13-.58-0.24,2.12,4.53,0.52-0.2,1.76-4.53-.51-0.25,2.26Zm12.42-8.14,0.31,9.85-1.86.06-5.08-5.82,0.19,5.98-2.24.07-0.31-9.85,1.87-.06,5.07,5.82-0.19-5.98Zm10.2,0.03,0.64,2.53,4.4-1.14,0.45,1.77-4.39,1.14,0.89,3.48-2.2.56-2.45-9.54,7.18-1.86,0.46,1.77Zm16.16,2.72-2.84-1.73-0.1.04-1.8.81,1.1,2.51-2.07.92-3.98-9,3.88-1.74a5.382,5.382,0,0,1,2.24-.52,3.405,3.405,0,0,1,1.86.53,3.467,3.467,0,0,1,1.24,1.53,3.351,3.351,0,0,1,.28,1.94,3.407,3.407,0,0,1-.87,1.72l3.29,2Zm-3.58-6.67a2.368,2.368,0,0,0-1.59.23l-1.7.76,1.39,3.14,1.69-.76a2.322,2.322,0,0,0,1.24-1.04A1.773,1.773,0,0,0,2515.23,2480.29Zm14.4-2.14,1.03,1.51-6.26,4.31-5.55-8.12,6.12-4.22,1.03,1.51-4.26,2.93,1.21,1.77,3.75-2.59,1,1.46-3.75,2.59,1.28,1.88Zm8.27-7.86,1.29,1.29-5.38,5.39-6.93-6.97,5.25-5.26,1.29,1.29-3.65,3.66,1.5,1.52,3.22-3.24,1.25,1.26-3.22,3.23,1.6,1.62Zm-52.48-97.72c-30.64,0-50.43,19.89-50.43,50.68s19.79,50.68,50.43,50.68,50.44-19.89,50.44-50.68S2516.06,2372.57,2485.42,2372.57Zm47.64,50.68c0,14.17-4.22,25.75-11.84,33.98l-19.75-19.85c0.23-.31.37-0.52,0.41-0.57l0.52-.78-0.52-.78a26.084,26.084,0,0,0-2.31-2.88c0.61,0.05,1.23.09,1.87,0.09,7.68,0,13.63-8.78,13.88-9.15l0.52-.79-0.52-.78a25.865,25.865,0,0,0-8.33-7.68,19.457,19.457,0,0,0,5.43-3.89c5.44-5.46,3.46-15.89,3.38-16.33l-0.18-.93-0.93-.18c-0.43-.09-10.82-2.07-16.25,3.39a19.29,19.29,0,0,0-3.87,5.46,25.9,25.9,0,0,0-7.65-8.37l-0.78-.53-0.78.53c-0.37.25-9.11,6.23-9.11,13.95,0,0.64.04,1.26,0.1,1.87a27.364,27.364,0,0,0-2.87-2.32l-0.78-.52-0.77.52c-0.05.04-.26,0.18-0.57,0.41l-19.75-19.84c8.18-7.66,19.71-11.9,33.81-11.9C2514.81,2375.38,2533.06,2393.72,2533.06,2423.25Zm-47.53,26.28c-1.54,2-5.97,7.13-10.97,7.13-6.14,0-11.32-3.27-11.32-7.13s5.18-7.12,11.32-7.12a9.063,9.063,0,0,1,3.81.93,13.033,13.033,0,0,0,1.68.95A23.971,23.971,0,0,1,2485.53,2449.53Zm-19.91-28.87c0-5.02,5.1-9.48,7.08-11.03a24.014,24.014,0,0,1,5.22,5.51,13.16,13.16,0,0,0,.95,1.69,9.14,9.14,0,0,1,.92,3.83c0,6.17-3.24,11.37-7.09,11.37-1.9,0-3.66-1.28-4.95-3.33-0.18-.36-0.38-0.71-0.59-1.05A15.989,15.989,0,0,1,2465.62,2420.66Zm13.44-13.5c0-5.03,5.1-9.49,7.08-11.03,1.95,1.51,6.87,5.82,7.07,10.71-0.01.32-.01,0.63,0,0.94-0.21,5.89-3.36,10.75-7.07,10.75-1.9,0-3.66-1.29-4.95-3.34-0.18-.35-0.38-0.71-0.59-1.05A15.912,15.912,0,0,1,2479.06,2407.16Zm15.42,20.93c-0.34-.21-0.68-0.4-1.04-0.58-2.04-1.3-3.32-3.07-3.32-4.99,0-3.76,4.92-6.94,10.85-7.1,0.11,0,.22.02,0.33,0.02,0.13,0,.27-0.02.41-0.02,4.89,0.18,9.19,5.14,10.71,7.1-1.55,2-5.98,7.13-10.98,7.13A15.824,15.824,0,0,1,2494.48,2428.09Zm-25.34,5.83a7.749,7.749,0,0,0,2.81.88l-3.15,3.16a20.141,20.141,0,0,0,.36-3.79C2469.16,2434.08,2469.14,2434,2469.14,2433.92Zm13.44-13.51a7.382,7.382,0,0,0,2.81.88l-3.15,3.17a20.329,20.329,0,0,0,.36-3.8C2482.6,2420.58,2482.58,2420.5,2482.58,2420.41Zm-8.65,16.38a7.609,7.609,0,0,0,.88,2.82c-0.09,0-.17-0.01-0.25-0.01a20.909,20.909,0,0,0-3.78.35Zm13.44-13.51a7.476,7.476,0,0,0,.88,2.83c-0.09,0-.17-0.02-0.25-0.02a20.034,20.034,0,0,0-3.78.36Zm10.06-12.09c-2.72-2.73-1.35-8.72,2.99-13.08,2.42-2.44,6.34-2.98,9.38-2.98a27.354,27.354,0,0,1,3.39.21c0.32,2.51.79,9.29-2.75,12.84C2506.11,2412.54,2500.15,2413.92,2497.43,2411.19Zm-32,19.15a9.14,9.14,0,0,1,.92,3.83c0,6.16-3.24,11.37-7.08,11.37s-7.09-5.21-7.09-11.37c0-5.03,5.1-9.49,7.09-11.03a24.141,24.141,0,0,1,5.21,5.5A12.641,12.641,0,0,0,2465.43,2430.34Zm15.61,11.26c-0.34-.21-0.68-0.41-1.04-0.59-2.04-1.3-3.32-3.06-3.32-4.98,0-3.86,5.18-7.12,11.32-7.12a8.959,8.959,0,0,1,3.82.93,13.389,13.389,0,0,0,1.67.94,24.5,24.5,0,0,1,5.49,5.25c-1.55,2-5.98,7.12-10.98,7.12A15.856,15.856,0,0,1,2481.04,2441.6Zm-31.41-52.33,19.56,19.65c-2.69,2.45-6.38,6.72-6.38,11.74,0,0.64.04,1.26,0.1,1.88a27.494,27.494,0,0,0-2.86-2.32l-0.78-.53-0.78.53c-0.38.25-9.12,6.23-9.12,13.95,0,7.59,3.96,13.59,9.14,14.13l-8.88,8.93c-7.63-8.23-11.84-19.81-11.84-33.98S2442,2397.49,2449.63,2389.27Zm1.98,69.95,8.88-8.93c0.54,5.21,6.52,9.18,14.07,9.18,7.68,0,13.63-8.78,13.88-9.15l0.52-.79-0.52-.78a28.386,28.386,0,0,0-2.31-2.88c0.61,0.06,1.23.1,1.87,0.1,4.99,0,9.24-3.71,11.68-6.41l19.56,19.66c-8.19,7.66-19.71,11.89-33.82,11.89S2459.79,2466.88,2451.61,2459.22Z" transform="translate(-2432.84 -2372.56)"/>
</svg>
