<svg xmlns="http://www.w3.org/2000/svg" width="36" height="36" viewBox="0 0 36 36">
  <defs>
    <style>
      .cls-1 {
        fill: #67e6ca;
        fill-rule: evenodd;
      }
    </style>
  </defs>
  <path id="_-e-shape_green" data-name="-e-shape_green" class="cls-1" d="M1116.5,1984.5c0,2.29-2.64,4.03-3.46,6.02-0.86,2.06-.26,5.15-1.81,6.71s-4.65.95-6.71,1.81c-1.99.82-3.73,3.46-6.02,3.46s-4.03-2.64-6.02-3.46c-2.06-.86-5.16-0.26-6.71-1.81s-0.95-4.65-1.81-6.71c-0.82-1.99-3.46-3.73-3.46-6.02s2.64-4.03,3.46-6.02c0.86-2.06.26-5.16,1.81-6.71s4.65-.95,6.71-1.81c1.99-.82,3.73-3.46,6.02-3.46s4.03,2.64,6.02,3.46c2.06,0.86,5.15.26,6.71,1.81s0.95,4.65,1.81,6.71C1113.86,1980.47,1116.5,1982.21,1116.5,1984.5Z" transform="translate(-1080.5 -1966.5)"/>
</svg>
