<svg xmlns="http://www.w3.org/2000/svg" width="139" height="139" viewBox="0 0 139 139">
  <defs>
    <style>
      .cls-1 {
        fill: #67e6ca;
        fill-opacity: 0;
        stroke: #67e6ca;
        stroke-linejoin: round;
        stroke-width: 2px;
        fill-rule: evenodd;
      }
    </style>
  </defs>
  <path id="_-e-shape_stroke" data-name="-e-shape_stroke" class="cls-1" d="M1398,10303.5c0,8.4-9.75,14.9-12.8,22.2-3.16,7.7-.94,19.1-6.68,24.8-5.74,5.8-17.16,3.5-24.78,6.7-7.34,3-13.79,12.8-22.24,12.8s-14.9-9.8-22.24-12.8c-7.62-3.2-19.04-.9-24.78-6.7-5.74-5.7-3.53-17.1-6.68-24.8-3.05-7.3-12.8-13.8-12.8-22.2s9.75-14.9,12.8-22.2c3.15-7.7.94-19.1,6.68-24.8,5.74-5.8,17.16-3.5,24.78-6.7,7.34-3,13.79-12.8,22.24-12.8s14.9,9.8,22.24,12.8c7.62,3.2,19.04.9,24.78,6.7,5.74,5.7,3.52,17.1,6.68,24.8C1388.25,10288.6,1398,10295.1,1398,10303.5Z" transform="translate(-1262 -10234)"/>
</svg>
