<svg xmlns="http://www.w3.org/2000/svg" width="16" height="16" viewBox="0 0 16 16">
  <defs>
    <style>
      .cls-1 {
        fill: #67e6ca;
        fill-rule: evenodd;
      }
    </style>
  </defs>
  <path id="_-e-icon_thumb_up" data-name="-e-icon_thumb_up" class="cls-1" d="M2468.25,7832h-2.5a0.755,0.755,0,0,0-.75.75v7.5a0.755,0.755,0,0,0,.75.75h2.5a0.755,0.755,0,0,0,.75-0.75v-7.5A0.755,0.755,0,0,0,2468.25,7832Zm8.75-4.46c0,1.33-.81,2.07-1.04,2.96h3.18a1.875,1.875,0,0,1,1.86,1.82,2.261,2.261,0,0,1-.61,1.53v0.01a2.591,2.591,0,0,1-.29,2.48,2.484,2.484,0,0,1-.51,2.34,1.638,1.638,0,0,1-.2,1.39c-0.63.92-2.22,0.93-3.55,0.93h-0.09a9.032,9.032,0,0,1-3.74-.99,5.009,5.009,0,0,0-1.64-.51,0.369,0.369,0,0,1-.37-0.37v-6.68a0.386,0.386,0,0,1,.11-0.27c1.24-1.22,1.77-2.52,2.79-3.53a3.834,3.834,0,0,0,.79-1.84c0.14-.58.43-1.81,1.06-1.81C2475.5,7825,2477,7825.25,2477,7827.54Z" transform="translate(-2465 -7825)"/>
</svg>
