<svg xmlns="http://www.w3.org/2000/svg" width="141.38" height="120.41" viewBox="0 0 141.38 120.41">
  <defs>
    <style>
      .cls-1 {
        fill: #67e6ca;
        fill-rule: evenodd;
      }
    </style>
  </defs>
  <path id="_-e-icon2_approved" data-name="-e-icon2_approved" class="cls-1" d="M1748.46,2413.52l0.65-4.48-1.96-1.16,0.33-2.29,9.09,5.7-0.32,2.21-10.34,2.92,0.34-2.34Zm1.8-.46,3.94-1-3.49-2.06Zm5,12.9a3.327,3.327,0,0,1-1.21,1.49,3.381,3.381,0,0,1-1.88.54,3.461,3.461,0,0,1-1.89-.49,3.316,3.316,0,0,1-1.26-1.45,5.739,5.739,0,0,1-.46-2.25l-0.02-1.96-2.71.03-0.03-2.26,9.81-.13,0.06,4.22A5.432,5.432,0,0,1,1755.26,2425.96Zm-4.39-.77a1.538,1.538,0,0,0,1.27.51,1.583,1.583,0,0,0,1.26-.54,2.378,2.378,0,0,0,.42-1.56l-0.03-1.84-3.4.05,0.02,1.84A2.357,2.357,0,0,0,1750.87,2425.19Zm5.57,11.41a3.325,3.325,0,0,1-1,1.64,3.708,3.708,0,0,1-3.73.56,3.2,3.2,0,0,1-1.44-1.27,5.363,5.363,0,0,1-.77-2.16l-0.29-1.94-2.68.4-0.34-2.23,9.7-1.46,0.64,4.17A5.394,5.394,0,0,1,1756.44,2436.6Zm-4.46-.16a1.786,1.786,0,0,0,2.5-.38,2.433,2.433,0,0,0,.2-1.6l-0.28-1.82-3.36.51,0.27,1.82A2.467,2.467,0,0,0,1751.98,2436.44Zm-1.7,13.03,2.01-2.63-0.03-.1-0.61-1.87-2.6.83-0.7-2.14,9.33-3.01,1.31,4.02a5.307,5.307,0,0,1,.28,2.27,3.255,3.255,0,0,1-.71,1.78,3.692,3.692,0,0,1-3.6,1.15,3.331,3.331,0,0,1-1.61-1.04l-2.32,3.05Zm6.97-2.85a2.372,2.372,0,0,0-.06-1.61l-0.57-1.75-3.25,1.05,0.57,1.75a2.376,2.376,0,0,0,.9,1.34,1.615,1.615,0,0,0,1.37.12A1.582,1.582,0,0,0,1757.25,2446.62Zm-3.27,10.25a4.8,4.8,0,0,1,.65-2.55,5.194,5.194,0,0,1,4.54-2.51,4.89,4.89,0,0,1,2.52.79,5.7,5.7,0,0,1,1.91,2.07,5.588,5.588,0,0,1,.76,2.71,4.8,4.8,0,0,1-.65,2.55,5.194,5.194,0,0,1-4.54,2.51,4.985,4.985,0,0,1-2.52-.79,5.629,5.629,0,0,1-1.91-2.07A5.559,5.559,0,0,1,1753.98,2456.87Zm3.56,2.95a2.833,2.833,0,0,0,1.51.41,3.191,3.191,0,0,0,1.61-.43,3.392,3.392,0,0,0,1.23-1.14,2.844,2.844,0,0,0,.44-1.49,3.287,3.287,0,0,0-1.53-2.73,2.841,2.841,0,0,0-1.51-.42,3.338,3.338,0,0,0-1.61.44,3.285,3.285,0,0,0-1.23,1.13,2.974,2.974,0,0,0-.44,1.5,3.207,3.207,0,0,0,.42,1.56A3.127,3.127,0,0,0,1757.54,2459.82Zm15.78,8.06-10.2,3.17-1.47-1.69,4.67-9.56,1.6,1.84-3.36,6.8,7.29-2.27Zm2.26,11.83-1.12,1.43-5.97-4.67,6.05-7.67,5.83,4.55-1.12,1.43-4.06-3.17-1.31,1.66,3.58,2.8-1.09,1.38-3.58-2.8-1.4,1.78Zm6.84-4.99,3.98,2a6.275,6.275,0,0,1,2.24,1.81,4.494,4.494,0,0,1,.93,2.38,4.8,4.8,0,0,1-.56,2.59,4.727,4.727,0,0,1-1.77,1.99,4.649,4.649,0,0,1-2.47.67,6.316,6.316,0,0,1-2.8-.73l-3.98-2Zm0.29,9a3.346,3.346,0,0,0,2.47.33,3.235,3.235,0,0,0,2-3.94,3.268,3.268,0,0,0-1.72-1.78l-1.85-.94-2.75,5.4Zm22.27,4.66a2.427,2.427,0,0,1,.16,1.59,2.276,2.276,0,0,1-1.39,1.73,5.079,5.079,0,0,1-3,.09l-4.97-1.02,1.98-9.55,4.7,0.96a4.622,4.622,0,0,1,2.55,1.22,2.135,2.135,0,0,1,.57,2.01,2.5,2.5,0,0,1-.59,1.17,2.46,2.46,0,0,1-1.12.67A2.573,2.573,0,0,1,1804.98,2488.38Zm-2.66,1.7a1.037,1.037,0,0,0,.63-0.8c0.16-.79-0.35-1.31-1.53-1.55l-2.59-.53-0.49,2.36,2.59,0.53A2.561,2.561,0,0,0,1802.32,2490.08Zm-2.69-6.75-0.47,2.26,2.21,0.45a2.343,2.343,0,0,0,1.31-.03,0.99,0.99,0,0,0,.6-0.76,0.972,0.972,0,0,0-.25-0.93,2.358,2.358,0,0,0-1.19-.53Zm13.29,6.4-0.2,3.45-2.27-.12,0.2-3.48-3.43-6.48,2.4,0.13,2.37,4.48,2.87-4.18,2.22,0.13Zm12.82-4.92-3.11.42-0.25-1.83,8.47-1.14,0.25,1.82-3.12.42,1.08,7.85-2.25.3Zm15.43-5.49,2.85,9.34-2.18.66-1.16-3.83-4.27,1.28,1.17,3.83-2.17.66-2.85-9.34,2.18-.66,1.12,3.69,4.26-1.29-1.12-3.68Zm12.99,2.48,0.84,1.61-6.75,3.47-4.5-8.67,6.59-3.38,0.84,1.61-4.59,2.35,0.98,1.88,4.05-2.08,0.81,1.57-4.05,2.07,1.04,2.01Zm13.01-10.28,1.23,1.34-5.61,5.1-6.61-7.21,5.47-4.97,1.22,1.34-3.8,3.46,1.44,1.56,3.36-3.06,1.19,1.3-3.36,3.06,1.53,1.66Zm7.79-6.81-4.14-.13,1.35,3.88-1.56,2.08-1.84-5.85-5.92-.11,1.53-2.06,3.9,0.09-1.24-3.66,1.47-1.96,1.76,5.54,6.26,0.09Zm-2.34-15a3.386,3.386,0,0,1,1.75-.79,3.715,3.715,0,0,1,3.41,1.63,3.225,3.225,0,0,1,.46,1.86,5.536,5.536,0,0,1-.59,2.21l-0.86,1.77,2.44,1.17-0.99,2.03-8.84-4.23,1.85-3.81A5.436,5.436,0,0,1,1872.62,2449.71Zm3.58,2.64a1.751,1.751,0,0,0-2.27-1.09,2.378,2.378,0,0,0-1.07,1.2l-0.8,1.66,3.06,1.47,0.81-1.65A2.352,2.352,0,0,0,1876.2,2452.35Zm7.33-11.65,1.75,0.5-2.1,7.26-9.43-2.7,2.05-7.09,1.75,0.5-1.42,4.93,2.04,0.59,1.26-4.35,1.7,0.48-1.26,4.36,2.18,0.62Zm3.3-9.57-2.94,1.54-0.02.11-0.24,1.95,2.71,0.33-0.28,2.24-9.73-1.2,0.52-4.19a5.341,5.341,0,0,1,.71-2.18,3.4,3.4,0,0,1,1.41-1.31,3.677,3.677,0,0,1,3.74.47,3.321,3.321,0,0,1,1.02,1.62l3.4-1.78Zm-7.53-.35a2.315,2.315,0,0,0-.63,1.48l-0.23,1.83,3.4,0.41,0.22-1.82a2.324,2.324,0,0,0-.25-1.59,1.56,1.56,0,0,0-1.19-.68A1.536,1.536,0,0,0,1879.3,2430.78Zm-0.06-7.64,0.04,3.12-1.85.02-0.11-8.5,1.84-.02,0.05,3.12,7.96-.11,0.03,2.26Zm7.3-9.76a5.333,5.333,0,0,1-.57,1.83l-1.8-.52a4.9,4.9,0,0,0,.52-1.58,5.431,5.431,0,0,0,.04-1.75,2.92,2.92,0,0,0-.49-1.37,0.873,0.873,0,0,0-.82-0.34,0.737,0.737,0,0,0-.54.35,1.965,1.965,0,0,0-.27.74c-0.05.29-.1,0.69-0.14,1.18a15.271,15.271,0,0,1-.27,1.88,2.851,2.851,0,0,1-.67,1.33,2.3,2.3,0,0,1-1.48.73,2.743,2.743,0,0,1-1.6-.24,3.117,3.117,0,0,1-1.29-1.22,5.766,5.766,0,0,1-.72-2.18,7.568,7.568,0,0,1-.04-1.84,5.13,5.13,0,0,1,.42-1.64l1.8,0.45a5.508,5.508,0,0,0-.38,2.79,2.5,2.5,0,0,0,.51,1.34,0.942,0.942,0,0,0,.87.33,0.781,0.781,0,0,0,.67-0.62,8.781,8.781,0,0,0,.25-1.65,17.817,17.817,0,0,1,.26-1.88,3.034,3.034,0,0,1,.66-1.33,2.244,2.244,0,0,1,1.47-.72,2.689,2.689,0,0,1,1.58.24,3.119,3.119,0,0,1,1.29,1.24,5.591,5.591,0,0,1,.73,2.19A8.149,8.149,0,0,1,1886.54,2413.38Zm-70.02-40.61c-30.64,0-50.44,19.7-50.44,50.18s19.8,50.19,50.44,50.19,50.45-19.7,50.45-50.19S1847.17,2372.77,1816.52,2372.77Zm-26.18,85.58,7.23,4.71-1.16,3.89a42.531,42.531,0,0,1-10.13-5.43A20.733,20.733,0,0,1,1790.34,2458.35Zm38.26-28.99a2.419,2.419,0,0,1-1.82-.26c-1.53-.55-4.08-1.47-10.08-1.49l-0.12-.49-0.13.49c-6.08.01-8.65,0.93-10.19,1.49a2.419,2.419,0,0,1-1.82.26,5.415,5.415,0,0,1-2.77-2.52,40.969,40.969,0,0,0,.21-6.19c-0.05-.96-0.06-1.9-0.04-2.82,14.75-1.21,22.39-5.36,26.28-8.9,0.27,0.6.54,1.15,0.8,1.7a17.448,17.448,0,0,1,2.15,10.02,40.268,40.268,0,0,0,.22,6.33A5.25,5.25,0,0,1,1828.6,2429.36Zm-1.22,2.81a4.895,4.895,0,0,1-1.17,2.4,3.827,3.827,0,0,1-2.86,1.03c-4.44,0-5.38-2.96-5.47-3.29l-0.48-1.9c5,0.07,7.05.81,8.42,1.31A9.162,9.162,0,0,0,1827.38,2432.17Zm-11.7-1.76-0.51,1.89c-0.1.34-1.03,3.3-5.47,3.3a3.811,3.811,0,0,1-2.86-1.03,4.728,4.728,0,0,1-1.17-2.4,9.058,9.058,0,0,0,1.55-.45C1808.6,2431.22,1810.66,2430.48,1815.68,2430.41Zm15.77-20.98c-0.41-.86-0.83-1.76-1.22-2.75a10.146,10.146,0,0,0,1.79-3.23l-2.7-.75c-0.03.11-3.34,10.24-27.33,12.32a45.883,45.883,0,0,1,2.78-11.85l-2.63-.96a46.371,46.371,0,0,0-3.08,17.6,67.087,67.087,0,0,1-1.29-7.69c-0.68-5.91.08-9.87,2.4-12.46,2.79-3.11,8.14-4.62,16.35-4.62s13.57,1.51,16.35,4.62c2.32,2.59,3.09,6.55,2.4,12.46a64.343,64.343,0,0,1-1.39,8.13A20.215,20.215,0,0,0,1831.45,2409.43Zm-30.3,21.15a7.29,7.29,0,0,0,1.62,1.09,8.059,8.059,0,0,0,2.05,4.83,6.539,6.539,0,0,0,4.88,1.89,9.527,9.527,0,0,1,13.65,0,6.57,6.57,0,0,0,4.88-1.89,8.059,8.059,0,0,0,2.05-4.83,7.157,7.157,0,0,0,1.53-1.02c0.45,2.66.99,4.74,1.22,5.59-0.53,1.5-3.52,7.81-16.56,7.81s-16.04-6.33-16.55-7.81C1800.15,2435.39,1800.69,2433.27,1801.15,2430.58Zm41.56,27.77a19.606,19.606,0,0,1,4.05,3.17,42.531,42.531,0,0,1-10.13,5.43l-1.15-3.89Zm-10.51,3.51,1.78,6a56.791,56.791,0,0,1-13.56,2.37l10.54-17.73a24.661,24.661,0,0,1,9.35,4.08Zm-9.17-1.5-4.63-5.59,5.33-5.44,4.55,2.21Zm-6.56-13.52a35.75,35.75,0,0,0,5.56-.41v0.64l-5.51,5.63-5.51-5.63v-0.63A35.919,35.919,0,0,0,1816.47,2446.84Zm-7.15,2.49,5.32,5.44-4.63,5.59-5.24-8.82Zm3.31,20.9a56.787,56.787,0,0,1-13.57-2.37l1.79-6-8.12-5.28a24.661,24.661,0,0,1,9.35-4.08Zm3.32,0.11-4.42-7.43,4.99-6.02,4.99,6.02-4.42,7.43c-0.19,0-.38.01-0.57,0.01S1816.14,2470.34,1815.95,2470.34Zm33.02-10.55a22.342,22.342,0,0,0-5.54-4.23c-4.75-4.44-11.44-5.74-12.75-5.96l-5.85-2.84v-0.93c9.35-2.51,10.95-8.93,11.02-9.27l0.08-.35-0.1-.35c-0.01-.04-0.62-2.17-1.17-5.17h0.08a21.685,21.685,0,0,1,1.09-6.92,62.628,62.628,0,0,0,2.23-11.33c0.78-6.76-.2-11.41-3.09-14.63-3.35-3.74-9.39-5.56-18.45-5.56s-15.09,1.82-18.44,5.56c-2.89,3.22-3.88,7.87-3.09,14.63a61.979,61.979,0,0,0,2.22,11.33,21.4,21.4,0,0,1,1.09,6.79c-0.55,3.07-1.17,5.26-1.19,5.3l-0.1.35,0.08,0.35c0.08,0.34,1.68,6.8,11.12,9.3v0.9l-5.85,2.84c-1.3.22-7.99,1.52-12.75,5.96a22.177,22.177,0,0,0-5.53,4.23c-9.74-8.21-15.2-20.86-15.2-36.84,0-29.23,18.26-47.39,47.64-47.39s47.64,18.16,47.64,47.39C1864.16,2438.93,1858.7,2451.58,1848.97,2459.79Zm-26.82-36.6h4.21v-2.78h-4.21v2.78Zm-15.46,0h4.2v-2.78h-4.2v2.78Z" transform="translate(-1745.81 -2372.78)"/>
</svg>
