<svg id="planet" xmlns="http://www.w3.org/2000/svg" width="178" height="178" viewBox="0 0 178 178">
  <defs>
    <style>
      .cls-1 {
        fill: #fff;
        opacity: 0.8;
      }

      .cls-1, .cls-2 {
        fill-rule: evenodd;
      }

      .cls-2 {
        fill: #6ab9eb;
      }
    </style>
  </defs>
  <path id="_-e-shape_green" data-name="-e-shape_green" class="cls-1" d="M2073.5,4190.5c0,11.3-13.05,19.93-17.13,29.77-4.22,10.19-1.26,25.48-8.94,33.16s-22.97,4.72-33.16,8.94c-9.83,4.08-18.47,17.13-29.77,17.13s-19.94-13.05-29.77-17.13c-10.19-4.22-25.48-1.26-33.16-8.94s-4.72-22.97-8.94-33.16c-4.08-9.84-17.13-18.47-17.13-29.77s13.05-19.94,17.13-29.77c4.22-10.19,1.26-25.48,8.94-33.16s22.97-4.72,33.16-8.94c9.83-4.08,18.46-17.13,29.77-17.13s19.94,13.05,29.77,17.13c10.19,4.22,25.48,1.26,33.16,8.94s4.72,22.97,8.94,33.16C2060.45,4170.56,2073.5,4179.19,2073.5,4190.5Z" transform="translate(-1895.5 -4101.5)"/>
  <path id="_-e-icon_planet" data-name="-e-icon_planet" class="cls-2" d="M1984.41,4126.01c-38.88,0-64,25.12-64,63.99s25.12,63.99,64,63.99,63.99-25.12,63.99-63.99S2023.28,4126.01,1984.41,4126.01Zm-18.1,55.54,16.32,8v16.74l-20.16-9.89A37,37,0,0,1,1966.31,4181.55Zm40.02,14.41-20.15,10.07v-16.68l16.18-8.09A37.22,37.22,0,0,1,2006.33,4195.96Zm-0.13,4.04c-1.62,12.06-14.33,22.83-20.02,27.1v-17.09Zm3.73-2.51c0-9.99-4.08-18.68-8.91-25.47a54.188,54.188,0,0,1,9.07-2.97c2.15,4.27,9.11,19.94,3.03,33.36a29.679,29.679,0,0,1-8.68,11.15C2007.63,4208.74,2009.93,4203.27,2009.93,4197.49Zm-9.26-19.36-14.49,7.24V4161.4A66.572,66.572,0,0,1,2000.67,4178.13Zm-18.04,7.46-14.65-7.18a66.616,66.616,0,0,1,14.65-17.01v24.19Zm-23.75,11.9c0,5.84,2.35,11.37,5.6,16.22a29.856,29.856,0,0,1-8.88-11.3c-6.07-13.42.89-29.09,3.04-33.36a54.576,54.576,0,0,1,9.13,2.99C1962.95,4178.83,1958.88,4187.51,1958.88,4197.49Zm3.8,2.97,19.95,9.79v16.85C1977.01,4222.89,1964.55,4212.35,1962.68,4200.46Zm23.5,49.94v-18.91a80.849,80.849,0,0,0,8.67-6.93,48.305,48.305,0,0,1,4.85-3.37c5.53-3.52,12.41-7.91,16.66-17.31,7.83-17.31-3.31-36.91-3.79-37.73l-0.62-1.07-1.21.2a55.642,55.642,0,0,0-11.93,3.82,70.061,70.061,0,0,0-13.39-12.8l-1.01-.69-1.02.69a70.138,70.138,0,0,0-13.41,12.83,55.257,55.257,0,0,0-11.99-3.85l-1.21-.2-0.62,1.07c-0.48.82-11.63,20.42-3.79,37.73,4.25,9.4,11.13,13.79,16.66,17.31a42.292,42.292,0,0,1,5.39,3.81l0.02-.02a79.279,79.279,0,0,0,8.19,6.51v18.91c-36.23-.73-58.66-23.72-58.66-60.4,0-37.28,23.16-60.44,60.44-60.44s60.43,23.16,60.43,60.44C2044.84,4226.68,2022.41,4249.67,1986.18,4250.4Zm-24.84-14.73-5.18-2.17-0.94,2.26,8.09,3.4,4.34-10.33-2.92-1.22-1.49,3.54-4.55-1.92-0.95,2.26,4.55,1.91Zm-15.64-14.65a5.608,5.608,0,0,0-1.42,2.75,5.752,5.752,0,0,0,.25,3.04,6.785,6.785,0,0,0,1.85,2.7,6.624,6.624,0,0,0,2.87,1.59,5.6,5.6,0,0,0,5.66-1.71,5.7,5.7,0,0,0,1.41-2.76,5.613,5.613,0,0,0-.24-3.03,6.579,6.579,0,0,0-1.86-2.7,6.718,6.718,0,0,0-2.86-1.6A5.633,5.633,0,0,0,1945.7,4221.02Zm5.35,1.08a3.127,3.127,0,0,1,2.27,2.07,2.843,2.843,0,0,1,.05,1.56,3.488,3.488,0,0,1-.83,1.51,3.357,3.357,0,0,1-1.42.96,2.885,2.885,0,0,1-1.56.11,3.013,3.013,0,0,1-1.41-.74,2.969,2.969,0,0,1-.87-1.33,2.88,2.88,0,0,1-.04-1.57,3.357,3.357,0,0,1,.83-1.5,3.323,3.323,0,0,1,1.42-.97A2.869,2.869,0,0,1,1951.05,4222.1Zm-3.71-9.65-2.68,1.28-0.75-1.56,1.81-3.11-1.46-3.06-2.14,3.69a3.947,3.947,0,0,0-6.41,3.23,6.394,6.394,0,0,0,.69,2.6l2.2,4.62,10.11-4.83Zm-7.85,3.75-0.76-1.59a2.153,2.153,0,0,1-.24-1.51,1.733,1.733,0,0,1,2.18-1.05,2.22,2.22,0,0,1,1.02,1.15l0.76,1.59Zm3.25-19.7-0.24-3.16-4,.31-7.49-3.73,0.23,3.06,4.64,2.31-4.24,2.99,0.26,3.33,6.79-4.8Zm-9.06-9.34a5.658,5.658,0,0,0,2.88,1.15,5.627,5.627,0,0,0,5.39-2.42,6.715,6.715,0,0,0,1.12-3.09,6.793,6.793,0,0,0-.38-3.26,5.581,5.581,0,0,0-4.69-3.59,5.63,5.63,0,0,0-3.06.45,5.69,5.69,0,0,0-2.33,1.97,7.215,7.215,0,0,0-.74,6.34A5.65,5.65,0,0,0,1933.68,4187.16Zm1-6.88a2.857,2.857,0,0,1,1.24-.95,3.733,3.733,0,0,1,3.33.39,2.832,2.832,0,0,1,.99,1.21,3.13,3.13,0,0,1-.36,3.05,2.874,2.874,0,0,1-1.24.95,3.433,3.433,0,0,1-1.71.2,3.394,3.394,0,0,1-1.61-.59,2.855,2.855,0,0,1-1-1.21A3.13,3.13,0,0,1,1934.68,4180.28Zm8.86-7.1a5.35,5.35,0,0,0,2.8-3.01,5.292,5.292,0,0,0,.31-4.1,5.192,5.192,0,0,0-2.98-2.82l-5.69-2.48-1.25,2.86,5.6,2.45c1.64,0.71,2.18,1.72,1.62,3.01s-1.67,1.59-3.32.87l-5.6-2.45-1.26,2.9,5.68,2.49A5.166,5.166,0,0,0,1943.54,4173.18Zm5.4-24.63,2.58,11.97,2.62-1.9-0.57-2.28,3.83-2.78,1.99,1.25,2.67-1.94-10.59-6.15Zm6.34,3.67-2.33,1.69-0.94-3.75Zm12.03-12.43,1.68,5.72-6.42-4.33-2.51.73,3.15,10.75,2.98-.87-1.68-5.73,6.43,4.34,2.5-.74-3.15-10.74Zm16.88-1.31a7.432,7.432,0,0,0-3.29-.56l-5.29.22,0.45,11.19,5.29-.22a7.387,7.387,0,0,0,3.24-.82,5.092,5.092,0,0,0,2.12-2.04,5.926,5.926,0,0,0-.24-5.91A5.122,5.122,0,0,0,1984.19,4138.48Zm-0.79,7.2a3.248,3.248,0,0,1-2.28.91l-2,.08-0.24-6.14,1.99-.08a3.273,3.273,0,0,1,2.35.73A3.347,3.347,0,0,1,1983.4,4145.68Zm22.77-4.66-9.73-2.44-0.61,2.44,3.33,0.84-2.11,8.42,3.08,0.77,2.11-8.42,3.32,0.83Zm10.71,5.43-2.15,3.62-3.71-2.2,2.14-3.62-2.72-1.62-5.71,9.64,2.72,1.61,2.23-3.75,3.72,2.19-2.23,3.76,2.73,1.62,5.7-9.64Zm6.21,18.46-3.64-4.59,1.61-1.27,3.09,3.9,1.85-1.47-3.09-3.9,1.48-1.17,3.51,4.43,1.92-1.52-5.46-6.89-8.77,6.96,5.58,7.04Zm1.59,10.91,2.85-.66,0.44,1.91a6.491,6.491,0,0,0,1.08,2.45,3.936,3.936,0,0,0,1.79,1.37,4.03,4.03,0,0,0,2.27.1,3.949,3.949,0,0,0,2-1.09,3.9,3.9,0,0,0,1.02-2.01,6.313,6.313,0,0,0-.1-2.68l-1.15-4.99-10.91,2.51Zm8.48-1.95,0.39,1.71a2.144,2.144,0,0,1-.09,1.53,1.508,1.508,0,0,1-1.07.76,1.526,1.526,0,0,1-1.29-.21,2.2,2.2,0,0,1-.74-1.34l-0.4-1.72Zm-6.69,19.16,2.51-.07-0.14-5.34,8.69-.22-0.08-3.16-11.2.28Zm-0.37,4.14,1.99,1.24-0.8,4.66-2.29.5-0.55,3.25,11.87-3,0.53-3.08-10.21-6.75Zm4.14,2.54,3.29,2.03-3.78.81Zm-7.67,10.99,5.27,2.79-7.58,1.58-1.22,2.31,9.9,5.23,1.45-2.74-5.27-2.79,7.58-1.59,1.22-2.3-9.9-5.23Zm-11.95,14.24,1.59,1.86,4.45-3.8,1.33,1.55-3.79,3.24,1.54,1.8,3.78-3.24,1.23,1.44-4.29,3.67,1.59,1.86,6.68-5.7-7.28-8.52Zm-0.7,9.83-3.32-8.02-2.93,1.21,3.32,8.02-3.16,1.31,0.95,2.32,9.27-3.83-0.95-2.32Z" transform="translate(-1895.5 -4101.5)"/>
</svg>
