<svg xmlns="http://www.w3.org/2000/svg" width="112" height="121" viewBox="0 0 112 121">
  <defs>
    <style>
      .cls-1 {
        fill: #00a580;
        fill-rule: evenodd;
      }
    </style>
  </defs>
  <path id="_-e-icon_c_parcel" data-name="-e-icon_c_parcel" class="cls-1" d="M2483.88,7030.47a0.227,0.227,0,0,0-.01-0.04,1.422,1.422,0,0,0-.28-0.41,0.038,0.038,0,0,0-.02-0.02,1.387,1.387,0,0,0-.39-0.28l-30.71-13.91a19.276,19.276,0,0,0,1-6.17,13.657,13.657,0,0,0-13.63-13.65,14.3,14.3,0,0,1-23.68,0,13.657,13.657,0,0,0-13.63,13.65,19.276,19.276,0,0,0,1,6.17l-30.71,13.91a1.384,1.384,0,0,0-.82,1.27c0,0.05.02,0.1,0.02,0.15v59.73a1.405,1.405,0,0,0,.82,1.27l54.6,24.73a1.438,1.438,0,0,0,1.15,0l54.58-24.73a1.405,1.405,0,0,0,.82-1.27v-59.8c0-.03.01-0.05,0.01-0.08A1.319,1.319,0,0,0,2483.88,7030.47Zm-4.68.52-18.9,8.57-20.19-9.3c4.31-2.84,8.76-6.77,11.28-11.86Zm-47.34,3.71a57.829,57.829,0,0,0,5.36-2.68l22.19,10.21v57.6l-6.56,2.97v-59.11Zm-28.71,8.99v59.1l-6.57-2.97v-57.59l22.2-10.21a57.829,57.829,0,0,0,5.36,2.68Zm13.01-44.89a11.492,11.492,0,0,1,10.54,6.96,1.4,1.4,0,0,0,2.6,0,11.492,11.492,0,0,1,10.54-6.96,10.847,10.847,0,0,1,10.83,10.84c0,14.62-19.47,22.4-22.67,23.58-3.2-1.18-22.68-8.96-22.68-23.58A10.855,10.855,0,0,1,2416.16,6998.8Zm-11.55,19.6c2.52,5.09,6.97,9.02,11.28,11.86l-20.19,9.3-18.9-8.57Zm-29.79,14.78,18.96,8.58v56.79l-18.96-8.59v-56.78Zm51.78,80.23-20.65-9.35v-56.79l20.65,9.36v56.78Zm1.4-59.23-20.53-9.29,20.5-8.78h0.06l20.5,8.78Zm1.4,2.45,20.65-9.36v56.8l-20.65,9.35v-56.79Zm51.79,33.33-18.98,8.6v-56.79l18.98-8.6v56.79Z" transform="translate(-2372 -6996)"/>
</svg>
