<svg xmlns="http://www.w3.org/2000/svg" width="120" height="56" viewBox="0 0 120 56">
  <defs>
    <style>
      .cls-1 {
        fill: #00a580;
        fill-rule: evenodd;
      }
    </style>
  </defs>
  <path id="_-e-icon_money" data-name="-e-icon_money" class="cls-1" d="M2259,10675v56h120v-56H2259Zm118,10.5a10.088,10.088,0,0,1-8.45-8.5H2377v8.5Zm-77.31-7.6a18.346,18.346,0,0,1-4.43.9c-2.58.2-5.26,0.5-7.05,2.3s-2.08,4.5-2.36,7.1a16.749,16.749,0,0,1-.86,4.4,17.222,17.222,0,0,1-2.44,3.6c-1.67,2-3.4,4.1-3.4,6.8s1.73,4.8,3.4,6.8a17.222,17.222,0,0,1,2.44,3.6,16.749,16.749,0,0,1,.86,4.4c0.28,2.6.57,5.3,2.36,7.1s4.47,2.1,7.05,2.3a18.346,18.346,0,0,1,4.43.9,6.313,6.313,0,0,1,1.57.9h-29.79a12.05,12.05,0,0,0-10.47-10.5v-31a12.05,12.05,0,0,0,10.47-10.5h29.79A6.313,6.313,0,0,1,2299.69,10677.9Zm38.62,50.2a18.346,18.346,0,0,1,4.43-.9c2.58-.2,5.26-0.5,7.05-2.3s2.08-4.5,2.36-7.1a16.749,16.749,0,0,1,.86-4.4,17.222,17.222,0,0,1,2.44-3.6c1.67-2,3.4-4.1,3.4-6.8s-1.73-4.8-3.4-6.8a17.222,17.222,0,0,1-2.44-3.6,16.749,16.749,0,0,1-.86-4.4c-0.28-2.6-.57-5.3-2.36-7.1s-4.47-2.1-7.05-2.3a18.346,18.346,0,0,1-4.43-.9,6.313,6.313,0,0,1-1.57-.9h29.79a12.05,12.05,0,0,0,10.47,10.5v31a12.05,12.05,0,0,0-10.47,10.5h-29.79A6.313,6.313,0,0,1,2338.31,10728.1Zm-68.86-51.1a10.088,10.088,0,0,1-8.45,8.5v-8.5h8.45Zm-8.45,43.5a10.088,10.088,0,0,1,8.45,8.5H2261v-8.5Zm107.55,8.5a10.088,10.088,0,0,1,8.45-8.5v8.5h-8.45Z" transform="translate(-2259 -10675)"/>
</svg>
