<svg xmlns="http://www.w3.org/2000/svg" width="2099.91" height="2099.902" viewBox="0 0 2099.91 2099.902">
  <defs>
    <style>
      .cls-1 {
        fill-rule: evenodd;
        opacity: 0.04;
      }
    </style>
  </defs>
  <path id="_-e-shape_blakk" data-name="-e-shape_blakk" class="cls-1" d="M3914.45,1983.88c0,133.38-153.95,235.2-202.05,351.18-49.86,120.24-14.86,300.65-105.48,391.26s-271.01,55.62-391.25,105.48c-115.99,48.09-217.8,202.04-351.18,202.04s-235.19-153.95-351.18-202.04c-120.24-49.86-300.64-14.87-391.26-105.48s-55.61-271.02-105.47-391.26c-48.1-115.98-202.05-217.8-202.05-351.18s153.95-235.19,202.05-351.18c49.86-120.23,14.86-300.64,105.48-391.25s271.01-55.62,391.25-105.48c115.99-48.09,217.8-202.046,351.18-202.046s235.19,153.956,351.18,202.046c120.24,49.86,300.64,14.87,391.26,105.48s55.61,271.02,105.47,391.25C3760.5,1748.69,3914.45,1850.5,3914.45,1983.88Z" transform="translate(-1814.53 -933.938)"/>
</svg>
