<svg xmlns="http://www.w3.org/2000/svg" width="497" height="497" viewBox="0 0 497 497">
  <defs>
    <style>
      .cls-1 {
        fill: #fff;
        fill-opacity: 0;
        stroke: #fff;
        stroke-linejoin: round;
        stroke-width: 2px;
        fill-rule: evenodd;
      }
    </style>
  </defs>
  <path id="shape_stroke" class="cls-1" d="M870.852,1977.25c0.794,31.17-34.575,55.88-45.123,83.27-10.934,28.39-1.683,70.34-22.317,92.05s-63,14.61-90.8,26.98c-26.816,11.93-49.691,48.51-80.859,49.31s-55.875-34.58-83.265-45.13c-28.393-10.93-70.342-1.68-92.055-22.32s-14.61-62.99-26.977-90.79c-11.93-26.82-48.511-49.69-49.305-80.86s34.574-55.88,45.122-83.27c10.935-28.39,1.684-70.34,22.318-92.05s63-14.61,90.8-26.98c26.817-11.93,49.691-48.51,80.859-49.3s55.876,34.57,83.265,45.12c28.394,10.93,70.342,1.68,92.055,22.32s14.611,62.99,26.978,90.79C833.476,1923.21,870.058,1946.08,870.852,1977.25Z" transform="translate(-377 -1735)"/>
</svg>
