<svg xmlns="http://www.w3.org/2000/svg" width="133" height="133" viewBox="0 0 133 133">
  <defs>
    <style>
      .cls-1 {
        fill-rule: evenodd;
        opacity: 0.06;
      }
    </style>
  </defs>
  <path id="shape_blakk" class="cls-1" d="M380,3415.5c0,8.45-9.751,14.89-12.8,22.24-3.158,7.62-.942,19.04-6.681,24.78s-17.165,3.52-24.78,6.68c-7.346,3.05-13.794,12.8-22.242,12.8s-14.9-9.75-22.242-12.8c-7.615-3.16-19.041-.94-24.78-6.68s-3.523-17.16-6.68-24.78c-3.047-7.35-12.8-13.79-12.8-22.24s9.75-14.9,12.8-22.24c3.157-7.62.941-19.04,6.68-24.78s17.165-3.53,24.78-6.68c7.346-3.05,13.8-12.8,22.242-12.8s14.9,9.75,22.242,12.8c7.616,3.15,19.042.94,24.781,6.68s3.522,17.16,6.68,24.78C370.248,3400.6,380,3407.05,380,3415.5Z" transform="translate(-247 -3349)"/>
</svg>
