<svg xmlns="http://www.w3.org/2000/svg" width="432" height="432" viewBox="0 0 432 432">
  <defs>
    <style>
      .cls-1 {
        fill: #5ed2b8;
        fill-rule: evenodd;
      }
    </style>
  </defs>
  <path id="shape" class="cls-1" d="M842,3580c0,27.44-31.671,48.38-41.566,72.24-10.257,24.74-3.058,61.85-21.7,80.49s-55.753,11.44-80.489,21.7c-23.86,9.9-44.8,41.57-72.244,41.57s-48.384-31.67-72.245-41.57c-24.735-10.26-61.849-3.06-80.489-21.7s-11.442-55.75-21.7-80.49C441.671,3628.38,410,3607.44,410,3580s31.672-48.39,41.566-72.25c10.257-24.73,3.058-61.85,21.7-80.49s55.754-11.44,80.489-21.69c23.861-9.9,44.806-41.57,72.245-41.57s48.384,31.67,72.244,41.57c24.736,10.25,61.849,3.05,80.49,21.69s11.442,55.76,21.7,80.49C810.325,3531.61,842,3552.56,842,3580Z" transform="translate(-410 -3364)"/>
</svg>
