<svg xmlns="http://www.w3.org/2000/svg" width="388" height="388" viewBox="0 0 388 388">
  <defs>
    <style>
      .cls-1 {
        fill: #52bfa8;
        fill-rule: evenodd;
      }
    </style>
  </defs>
  <path id="shape_green" class="cls-1" d="M819.991,3580c0,24.64-28.445,43.45-37.331,64.88-9.212,22.22-2.747,55.55-19.488,72.29s-50.074,10.28-72.289,19.49c-21.43,8.89-40.241,37.33-64.885,37.33s-43.455-28.44-64.885-37.33c-22.215-9.21-55.547-2.75-72.289-19.49s-10.276-50.07-19.488-72.29c-8.887-21.43-37.331-40.24-37.331-64.88s28.444-43.46,37.331-64.89c9.212-22.21,2.747-55.54,19.488-72.29s50.074-10.27,72.289-19.48c21.43-8.89,40.241-37.33,64.885-37.33s43.455,28.44,64.885,37.33c22.215,9.21,55.547,2.74,72.289,19.48s10.276,50.08,19.488,72.29C791.546,3536.54,819.991,3555.35,819.991,3580Z" transform="translate(-432 -3386)"/>
</svg>
