<svg xmlns="http://www.w3.org/2000/svg" width="424" height="423" viewBox="0 0 424 423">
  <defs>
    <style>
      .cls-1 {
        fill: #fff;
        fill-opacity: 0;
        stroke: #ed7478;
        stroke-linejoin: round;
        stroke-width: 2px;
        fill-rule: evenodd;
        opacity: 0.8;
      }
    </style>
  </defs>
  <path id="shape_stroke" class="cls-1" d="M833.079,3524.08c7.047,26.3-17.931,54.51-21.286,79.92-3.478,26.34,12.953,60.06-.127,82.72s-50.5,25.28-71.573,41.47c-20.329,15.61-32.27,51.34-58.57,58.39s-54.509-17.93-79.92-21.29c-26.342-3.47-60.066,12.96-82.72-.12s-25.286-50.5-41.469-71.58c-15.611-20.33-51.347-32.27-58.393-58.57s17.929-54.5,21.285-79.92c3.478-26.34-12.953-60.06.126-82.71s50.5-25.29,71.574-41.48c20.329-15.61,32.27-51.34,58.57-58.39s54.509,17.93,79.92,21.29c26.343,3.48,60.066-12.96,82.72.12s25.285,50.5,41.469,71.58C790.3,3485.84,826.031,3497.78,833.079,3524.08Z" transform="translate(-414 -3368)"/>
</svg>
