<svg width="380" height="76" viewBox="0 0 380 76" fill="none" xmlns="http://www.w3.org/2000/svg">
<g clip-path="url(#clip0_26_2)">
<rect width="380" height="76" fill="white"/>
<path d="M16.8682 13.6523V53.3691C16.8682 55.625 17.1302 57.0719 17.6543 57.71C18.1784 58.3252 19.2038 58.6784 20.7305 58.7695V60H3.46973V58.7695C4.88249 58.724 5.93066 58.3138 6.61426 57.5391C7.06999 57.015 7.29785 55.625 7.29785 53.3691V20.2832C7.29785 18.0501 7.03581 16.626 6.51172 16.0107C5.98763 15.3727 4.97363 15.0081 3.46973 14.917V13.6523H16.8682ZM41.4775 55.2832C37.5811 58.724 34.0833 60.4443 30.9844 60.4443C29.1615 60.4443 27.6462 59.8519 26.4385 58.667C25.2308 57.4593 24.627 55.9554 24.627 54.1553C24.627 51.7171 25.6751 49.5296 27.7715 47.5928C29.8678 45.6331 34.4365 43.0355 41.4775 39.7998V36.5869C41.4775 34.1715 41.3408 32.6562 41.0674 32.041C40.8167 31.403 40.3268 30.8561 39.5977 30.4004C38.8685 29.9219 38.0482 29.6826 37.1367 29.6826C35.6556 29.6826 34.4365 30.013 33.4795 30.6738C32.887 31.084 32.5908 31.5625 32.5908 32.1094C32.5908 32.5879 32.9098 33.1803 33.5479 33.8867C34.4137 34.8665 34.8467 35.8122 34.8467 36.7236C34.8467 37.8402 34.4251 38.7972 33.582 39.5947C32.7617 40.3695 31.6794 40.7568 30.335 40.7568C28.8994 40.7568 27.6917 40.3239 26.7119 39.458C25.7549 38.5921 25.2764 37.5781 25.2764 36.416C25.2764 34.7754 25.9258 33.2145 27.2246 31.7334C28.5234 30.2295 30.335 29.0788 32.6592 28.2812C34.9834 27.4837 37.3988 27.085 39.9053 27.085C42.9359 27.085 45.3285 27.7344 47.083 29.0332C48.8604 30.3092 50.0111 31.6992 50.5352 33.2031C50.8542 34.1602 51.0137 36.359 51.0137 39.7998V52.207C51.0137 53.6654 51.0706 54.5882 51.1846 54.9756C51.2985 55.3402 51.4694 55.6136 51.6973 55.7959C51.9251 55.9782 52.1872 56.0693 52.4834 56.0693C53.0758 56.0693 53.6797 55.6478 54.2949 54.8047L55.3203 55.625C54.181 57.3112 52.9961 58.5417 51.7656 59.3164C50.5579 60.0684 49.1794 60.4443 47.6299 60.4443C45.807 60.4443 44.3828 60.0228 43.3574 59.1797C42.332 58.3138 41.7054 57.015 41.4775 55.2832ZM41.4775 52.7881V42.0898C38.7204 43.7077 36.6696 45.4395 35.3252 47.2852C34.4365 48.5156 33.9922 49.7575 33.9922 51.0107C33.9922 52.0589 34.3682 52.9818 35.1201 53.7793C35.6898 54.3945 36.4873 54.7021 37.5127 54.7021C38.652 54.7021 39.9736 54.0641 41.4775 52.7881ZM92.5762 38.877V51.8652C92.5762 54.3717 92.7243 55.9554 93.0205 56.6162C93.3395 57.2542 93.8864 57.7669 94.6611 58.1543C95.4359 58.5417 96.8828 58.7354 99.002 58.7354V60H75.2812V58.7354C77.4232 58.7354 78.8701 58.5417 79.6221 58.1543C80.3968 57.7441 80.9323 57.2201 81.2285 56.582C81.5475 55.944 81.707 54.3717 81.707 51.8652V21.7871C81.707 19.2806 81.5475 17.7083 81.2285 17.0703C80.9323 16.4095 80.3968 15.8854 79.6221 15.498C78.8473 15.1107 77.4004 14.917 75.2812 14.917V13.6523H96.8145C102.42 13.6523 106.521 14.0397 109.119 14.8145C111.717 15.5892 113.836 17.0247 115.477 19.1211C117.117 21.1947 117.938 23.6328 117.938 26.4355C117.938 29.8535 116.707 32.679 114.246 34.9121C112.674 36.3249 110.475 37.3844 107.649 38.0908L118.792 53.7793C120.25 55.8073 121.287 57.0719 121.902 57.5732C122.837 58.2796 123.919 58.667 125.149 58.7354V60H110.555L95.6182 38.877H92.5762ZM92.5762 16.1475V36.4502H94.5244C97.6917 36.4502 100.062 36.1654 101.634 35.5957C103.206 35.0033 104.437 33.9551 105.325 32.4512C106.237 30.9245 106.692 28.9421 106.692 26.5039C106.692 22.972 105.861 20.363 104.197 18.6768C102.557 16.9906 99.902 16.1475 96.2334 16.1475H92.5762ZM153.997 42.876H136.463C136.668 47.1143 137.796 50.4639 139.847 52.9248C141.419 54.8161 143.31 55.7617 145.521 55.7617C146.888 55.7617 148.13 55.3857 149.246 54.6338C150.363 53.859 151.559 52.4805 152.835 50.498L153.997 51.25C152.265 54.7819 150.351 57.2884 148.255 58.7695C146.159 60.2279 143.732 60.957 140.975 60.957C136.235 60.957 132.646 59.1341 130.208 55.4883C128.248 52.5488 127.269 48.903 127.269 44.5508C127.269 39.2188 128.704 34.9805 131.575 31.8359C134.469 28.6686 137.853 27.085 141.727 27.085C144.962 27.085 147.765 28.418 150.135 31.084C152.527 33.7272 153.815 37.6579 153.997 42.876ZM145.589 40.5859C145.589 36.9173 145.384 34.3994 144.974 33.0322C144.586 31.665 143.971 30.6283 143.128 29.9219C142.649 29.5117 142.011 29.3066 141.214 29.3066C140.029 29.3066 139.061 29.8877 138.309 31.0498C136.964 33.0778 136.292 35.8577 136.292 39.3896V40.5859H145.589ZM170.403 56.7529V68.6475C170.403 70.2881 170.529 71.4046 170.779 71.9971C171.053 72.5895 171.463 73.0225 172.01 73.2959C172.557 73.5693 173.628 73.7061 175.223 73.7061V74.9707H157.005V73.7061C158.418 73.6605 159.466 73.2617 160.149 72.5098C160.605 71.9857 160.833 70.6299 160.833 68.4424V34.707C160.833 32.4512 160.571 31.0156 160.047 30.4004C159.523 29.7624 158.509 29.3978 157.005 29.3066V28.042H170.403V32.2461C171.52 30.6055 172.659 29.4206 173.821 28.6914C175.485 27.6204 177.296 27.085 179.256 27.085C181.603 27.085 183.733 27.8255 185.647 29.3066C187.584 30.7878 189.054 32.8385 190.057 35.459C191.059 38.0566 191.561 40.8594 191.561 43.8672C191.561 47.1029 191.036 50.0651 189.988 52.7539C188.963 55.4199 187.459 57.4593 185.477 58.8721C183.517 60.262 181.329 60.957 178.914 60.957C177.16 60.957 175.519 60.5697 173.992 59.7949C172.853 59.2025 171.657 58.1885 170.403 56.7529ZM170.403 53.3008C172.363 56.0807 174.459 57.4707 176.692 57.4707C177.923 57.4707 178.937 56.8213 179.734 55.5225C180.919 53.6084 181.512 49.9626 181.512 44.585C181.512 39.0706 180.862 35.2995 179.563 33.2715C178.698 31.9271 177.535 31.2549 176.077 31.2549C173.776 31.2549 171.884 32.9183 170.403 36.2451V53.3008ZM227.859 28.042V53.0615C227.859 55.4997 228.087 57.0264 228.543 57.6416C228.999 58.234 229.922 58.61 231.312 58.7695V60H218.289V55.7275C216.762 57.5505 215.236 58.8835 213.709 59.7266C212.182 60.5469 210.473 60.957 208.582 60.957C206.782 60.957 205.175 60.4102 203.763 59.3164C202.373 58.1999 201.438 56.901 200.96 55.4199C200.481 53.9388 200.242 51.3525 200.242 47.6611V34.9805C200.242 32.5651 200.014 31.0612 199.559 30.4688C199.126 29.8763 198.203 29.4889 196.79 29.3066V28.042H209.812V49.8828C209.812 52.1615 209.915 53.6312 210.12 54.292C210.348 54.9528 210.69 55.4541 211.146 55.7959C211.624 56.1377 212.171 56.3086 212.786 56.3086C213.606 56.3086 214.347 56.0921 215.008 55.6592C215.919 55.0667 217.013 53.8704 218.289 52.0703V34.9805C218.289 32.5651 218.061 31.0612 217.605 30.4688C217.173 29.8763 216.25 29.4889 214.837 29.3066V28.042H227.859ZM224.339 12.0801L213.025 23.9404H210.086L214.051 12.0801H224.339ZM248.333 13.6523V31.2549C251.022 28.4749 253.961 27.085 257.151 27.085C259.339 27.085 261.401 27.7344 263.338 29.0332C265.275 30.3092 266.79 32.1322 267.884 34.502C268.978 36.8717 269.524 39.6061 269.524 42.7051C269.524 46.1914 268.829 49.3587 267.439 52.207C266.049 55.0553 264.192 57.2314 261.868 58.7354C259.544 60.2165 256.889 60.957 253.904 60.957C252.173 60.957 250.634 60.6836 249.29 60.1367C247.946 59.5898 246.624 58.7012 245.325 57.4707L240.027 60.9229H238.865V20.2832C238.865 18.4375 238.785 17.2982 238.626 16.8652C238.398 16.2272 238.034 15.7601 237.532 15.4639C237.054 15.1449 236.233 14.9626 235.071 14.917V13.6523H248.333ZM248.333 34.2969V48.5156C248.333 51.4095 248.401 53.2552 248.538 54.0527C248.766 55.3971 249.313 56.4909 250.179 57.334C251.045 58.1543 252.15 58.5645 253.494 58.5645C254.656 58.5645 255.647 58.234 256.468 57.5732C257.311 56.9124 258.006 55.6022 258.553 53.6426C259.122 51.6829 259.407 48.151 259.407 43.0469C259.407 38.1478 258.792 34.7868 257.562 32.9639C256.673 31.6423 255.477 30.9814 253.973 30.9814C252.013 30.9814 250.133 32.0866 248.333 34.2969ZM287.435 13.6523V53.3691C287.435 55.625 287.697 57.0719 288.221 57.71C288.745 58.3252 289.77 58.6784 291.297 58.7695V60H274.036V58.7695C275.449 58.724 276.497 58.3138 277.181 57.5391C277.636 57.015 277.864 55.625 277.864 53.3691V20.2832C277.864 18.0501 277.602 16.626 277.078 16.0107C276.554 15.3727 275.54 15.0081 274.036 14.917V13.6523H287.435ZM302.098 12.5586C303.579 12.5586 304.832 13.0827 305.857 14.1309C306.883 15.1562 307.396 16.3981 307.396 17.8564C307.396 19.3148 306.871 20.5566 305.823 21.582C304.798 22.6074 303.556 23.1201 302.098 23.1201C300.639 23.1201 299.397 22.6074 298.372 21.582C297.347 20.5566 296.834 19.3148 296.834 17.8564C296.834 16.3981 297.347 15.1562 298.372 14.1309C299.397 13.0827 300.639 12.5586 302.098 12.5586ZM306.883 28.042V53.3691C306.883 55.625 307.145 57.0719 307.669 57.71C308.193 58.3252 309.218 58.6784 310.745 58.7695V60H293.484V58.7695C294.897 58.724 295.945 58.3138 296.629 57.5391C297.085 57.015 297.312 55.625 297.312 53.3691V34.707C297.312 32.4512 297.05 31.0156 296.526 30.4004C296.002 29.7624 294.988 29.3978 293.484 29.3066V28.042H306.883ZM339.969 51.7627L341.028 52.583C339.524 55.4085 337.645 57.5163 335.389 58.9062C333.156 60.2734 330.774 60.957 328.245 60.957C323.984 60.957 320.577 59.3506 318.025 56.1377C315.473 52.9248 314.197 49.0625 314.197 44.5508C314.197 40.1986 315.359 36.3704 317.684 33.0664C320.486 29.0788 324.349 27.085 329.271 27.085C332.575 27.085 335.195 27.9167 337.132 29.5801C339.091 31.2435 340.071 33.1006 340.071 35.1514C340.071 36.4502 339.673 37.487 338.875 38.2617C338.1 39.0365 337.075 39.4238 335.799 39.4238C334.454 39.4238 333.338 38.9795 332.449 38.0908C331.583 37.2021 331.048 35.6185 330.843 33.3398C330.706 31.9043 330.376 30.9017 329.852 30.332C329.327 29.7624 328.712 29.4775 328.006 29.4775C326.912 29.4775 325.978 30.0586 325.203 31.2207C324.018 32.9753 323.426 35.6641 323.426 39.2871C323.426 42.2949 323.904 45.1774 324.861 47.9346C325.818 50.6689 327.129 52.7083 328.792 54.0527C330.045 55.0326 331.526 55.5225 333.235 55.5225C334.352 55.5225 335.411 55.2604 336.414 54.7363C337.417 54.2122 338.602 53.221 339.969 51.7627ZM362.63 55.2832C358.733 58.724 355.236 60.4443 352.137 60.4443C350.314 60.4443 348.799 59.8519 347.591 58.667C346.383 57.4593 345.779 55.9554 345.779 54.1553C345.779 51.7171 346.827 49.5296 348.924 47.5928C351.02 45.6331 355.589 43.0355 362.63 39.7998V36.5869C362.63 34.1715 362.493 32.6562 362.22 32.041C361.969 31.403 361.479 30.8561 360.75 30.4004C360.021 29.9219 359.201 29.6826 358.289 29.6826C356.808 29.6826 355.589 30.013 354.632 30.6738C354.039 31.084 353.743 31.5625 353.743 32.1094C353.743 32.5879 354.062 33.1803 354.7 33.8867C355.566 34.8665 355.999 35.8122 355.999 36.7236C355.999 37.8402 355.577 38.7972 354.734 39.5947C353.914 40.3695 352.832 40.7568 351.487 40.7568C350.052 40.7568 348.844 40.3239 347.864 39.458C346.907 38.5921 346.429 37.5781 346.429 36.416C346.429 34.7754 347.078 33.2145 348.377 31.7334C349.676 30.2295 351.487 29.0788 353.812 28.2812C356.136 27.4837 358.551 27.085 361.058 27.085C364.088 27.085 366.481 27.7344 368.235 29.0332C370.013 30.3092 371.163 31.6992 371.688 33.2031C372.007 34.1602 372.166 36.359 372.166 39.7998V52.207C372.166 53.6654 372.223 54.5882 372.337 54.9756C372.451 55.3402 372.622 55.6136 372.85 55.7959C373.077 55.9782 373.34 56.0693 373.636 56.0693C374.228 56.0693 374.832 55.6478 375.447 54.8047L376.473 55.625C375.333 57.3112 374.148 58.5417 372.918 59.3164C371.71 60.0684 370.332 60.4443 368.782 60.4443C366.959 60.4443 365.535 60.0228 364.51 59.1797C363.484 58.3138 362.858 57.015 362.63 55.2832ZM362.63 52.7881V42.0898C359.873 43.7077 357.822 45.4395 356.478 47.2852C355.589 48.5156 355.145 49.7575 355.145 51.0107C355.145 52.0589 355.521 52.9818 356.272 53.7793C356.842 54.3945 357.64 54.7021 358.665 54.7021C359.804 54.7021 361.126 54.0641 362.63 52.7881Z" fill="black"/>
</g>
<defs>
<clipPath id="clip0_26_2">
<rect width="380" height="76" fill="white"/>
</clipPath>
</defs>
</svg>
