<?xml version="1.0" encoding="UTF-8"?>
<svg width="24px" height="22px" viewBox="0 0 24 22" version="1.1" xmlns="http://www.w3.org/2000/svg" xmlns:xlink="http://www.w3.org/1999/xlink">
    <!-- Generator: Sketch 52.2 (67145) - http://www.bohemiancoding.com/sketch -->
    <title>Group 3 Copy</title>
    <desc>Created with Sketch.</desc>
    <g id="menu---header---footer" stroke="none" stroke-width="1" fill="none" fill-rule="evenodd">
        <g id="mobile_libero_cerca" transform="translate(-20.000000, -456.000000)">
            <g id="Group-2" transform="translate(20.000000, 438.000000)">
                <g id="Group-3-Copy" transform="translate(0.000000, 18.000000)">
                    <g id="Group-8-Copy-3" fill="#FFFFFF">
                        <path d="M21.0086957,4.86956522 L16,4.86956522 C15.8902177,4.86956522 15.7826087,4.92527304 15.7043478,5.02173913 C15.627175,5.11956522 15.5826087,5.25407652 15.5826087,5.39130435 L15.5826087,9.2173913 C15.5826087,9.35461913 15.627175,9.48913043 15.7043478,9.58695652 C15.7826087,9.68342261 15.8902177,9.73913043 16,9.73913043 L21.0086957,9.73913043 C21.1184779,9.73913043 21.226087,9.68342261 21.3043478,9.58695652 C21.3815207,9.48913043 21.426087,9.35461913 21.426087,9.2173913 L21.426087,5.39130435 C21.426087,5.25407652 21.3815207,5.11956522 21.3043478,5.02173913 C21.226087,4.92527304 21.1184779,4.86956522 21.0086957,4.86956522 Z M20.4521739,8.76521739 L16.5565217,8.76521739 L16.5565217,5.84347826 L20.4521739,5.84347826 L20.4521739,8.76521739 Z" id="Fill-6"/>
                        <path d="M22.2867543,0 L2.98968655,0 C2.39196667,0 1.90252781,0.478315257 1.90252781,1.06245059 L1.90252781,5.04664032 L1.08715875,5.04664032 C0.489438868,5.04664032 0,5.52495557 0,6.10909091 L0,15.4055336 C0,16.5738043 0.978877735,17.5304348 2.17431749,17.5304348 L21.1995956,17.5304348 C22.3950353,17.5304348 23.373913,16.5738043 23.373913,15.4055336 L23.373913,1.06245059 C23.373913,0.478315257 22.8844742,0 22.2867543,0 Z M0.81536906,15.4055336 L0.81536906,6.10909091 C0.81536906,5.96487121 0.9395851,5.84347826 1.08715875,5.84347826 L1.90252781,5.84347826 L1.90252781,15.4055336 C1.90252781,15.8361183 1.76663296,16.236609 1.53729683,16.5717325 C1.1094455,16.3486604 0.81536906,15.9118444 0.81536906,15.4055336 Z M22.558544,15.4055336 C22.558544,16.1380402 21.9491371,16.7335968 21.1995956,16.7335968 L2.39093387,16.7335968 C2.60008419,16.3351779 2.71792404,15.8838489 2.71792404,15.4055336 L2.71792404,1.06245059 C2.71792404,0.918230893 2.84214008,0.796837945 2.98971373,0.796837945 L22.2867815,0.796837945 C22.4343551,0.796837945 22.5585712,0.918230893 22.5585712,1.06245059 L22.558544,15.4055336 Z" id="Fill-7"/>
                    </g>
                    <path d="M4.3826087,2.92173913 L20.9391304,2.92173913" id="Line-4" stroke="#FFFFFF" stroke-width="0.973913043" stroke-linecap="round"/>
                    <path d="M4.3826087,11.6869565 L20.9391304,11.6869565" id="Line-4-Copy-5" stroke="#FFFFFF" stroke-width="0.973913043" stroke-linecap="round"/>
                    <path d="M4.3826087,14.6086957 L20.9391304,14.6086957" id="Line-4-Copy-8" stroke="#FFFFFF" stroke-width="0.973913043" stroke-linecap="round"/>
                    <path d="M4.3826087,5.84347826 L12.6608696,5.84347826" id="Line-4-Copy-2" stroke="#FFFFFF" stroke-width="0.973913043" stroke-linecap="round"/>
                    <path d="M4.3826087,8.76521739 L13.6347826,8.76521739" id="Line-4-Copy-4" stroke="#FFFFFF" stroke-width="0.973913043" stroke-linecap="round"/>
                    <g id="Group-3-Copy-6" transform="translate(5.843478, 5.356522)">
                        <rect id="Rectangle" stroke="#FFFFFF" stroke-width="0.973913043" fill="#104877" x="0.486956522" y="0.486956522" width="7.79130435" height="15.5826087" rx="1.94782609"/>
                        <path d="M2.39358486,3.89565217 C2.14414758,3.89565217 1.94782609,3.67951131 1.94782609,3.40488749 C1.94782609,3.13788217 2.1441456,2.92173913 2.39358486,2.92173913 L6.3785504,2.92173913 C6.62106982,2.92173913 6.8173913,3.13788 6.8173913,3.40488749 C6.8173913,3.67950914 6.62107179,3.89565217 6.3785504,3.89565217 L2.39358486,3.89565217 Z" id="Path-Copy" fill="#FFFFFF"/>
                        <path d="M2.39358486,5.84347826 C2.14414758,5.84347826 1.94782609,5.6273374 1.94782609,5.35271358 C1.94782609,5.08570825 2.1441456,4.86956522 2.39358486,4.86956522 L6.3785504,4.86956522 C6.62106982,4.86956522 6.8173913,5.08570608 6.8173913,5.35271358 C6.8173913,5.62733523 6.62107179,5.84347826 6.3785504,5.84347826 L2.39358486,5.84347826 Z" id="Path-Copy-2" fill="#FFFFFF"/>
                        <path d="M2.39358486,7.79130435 C2.14414758,7.79130435 1.94782609,7.57516348 1.94782609,7.30053966 C1.94782609,7.03353434 2.1441456,6.8173913 2.39358486,6.8173913 L6.3785504,6.8173913 C6.62106982,6.8173913 6.8173913,7.03353217 6.8173913,7.30053966 C6.8173913,7.57516131 6.62107179,7.79130435 6.3785504,7.79130435 L2.39358486,7.79130435 Z" id="Path-Copy-4" fill="#FFFFFF"/>
                        <path d="M2.21528135,9.73913043 C2.06561898,9.73913043 1.94782609,9.52298957 1.94782609,9.24836575 C1.94782609,8.98136043 2.0656178,8.76521739 2.21528135,8.76521739 L4.60626067,8.76521739 C4.75177232,8.76521739 4.86956522,8.98135826 4.86956522,9.24836575 C4.86956522,9.5229874 4.75177351,9.73913043 4.60626067,9.73913043 L2.21528135,9.73913043 Z" id="Path-Copy-3" fill="#FFFFFF"/>
                        <path d="M4.38485952,13.6347826 C4.6537028,13.6347826 4.86956522,13.8557094 4.86956522,14.12399 C4.86956522,14.3928333 4.6537028,14.6086957 4.38485952,14.6086957 C4.11601623,14.6086957 3.89565217,14.3928333 3.89565217,14.12399 C3.89565217,13.8551467 4.11657894,13.6347826 4.38485952,13.6347826 Z" id="Path" fill="#FFFFFF"/>
                    </g>
                </g>
            </g>
        </g>
    </g>
</svg>