<?xml version="1.0" encoding="UTF-8"?>
<svg width="28px" height="25px" viewBox="0 0 28 25" version="1.1" xmlns="http://www.w3.org/2000/svg" xmlns:xlink="http://www.w3.org/1999/xlink">
    <!-- Generator: Sketch 52.2 (67145) - http://www.bohemiancoding.com/sketch -->
    <title>Group 34 Copy</title>
    <desc>Created with Sketch.</desc>
    <g id="menu---header---footer" stroke="none" stroke-width="1" fill="none" fill-rule="evenodd" stroke-linecap="round" stroke-linejoin="round">
        <g id="mobile_libero_cerca" transform="translate(-200.000000, -453.000000)" stroke="#FFFFFF" stroke-width="0.8">
            <g id="Group-2" transform="translate(20.000000, 438.000000)">
                <g id="Group-34-Copy" transform="translate(181.000000, 16.000000)">
                    <polyline id="Rectangle-Copy-23" points="22.4106343 4.94908291 26.3699006 4.94908291 26.3699006 21.6606897 22.4106343 21.6606897"/>
                    <polygon id="Rectangle" points="9.29556456 4.94908291 22.4106343 4.94908291 22.4106343 21.6606897 9.29556456 21.6606897"/>
                    <path d="M19.8123657,2.35081438 L13.378558,2.35081438 C13.378558,1.05249545 14.8188149,0 16.5954618,0 C18.3721088,0 19.8123657,1.05249545 19.8123657,2.35081438 Z M13.378558,2.22708731 L13.378558,7.42362436 L13.378558,2.22708731 Z M19.8123657,2.22708731 L19.8123657,7.42362436 L19.8123657,2.22708731 Z" id="Combined-Shape"/>
                    <path d="M24.3902674,2.35081438 L17.9564596,2.35081438 C17.9564596,1.05249545 19.3967166,0 21.1733635,0 C22.9500105,0 24.3902674,1.05249545 24.3902674,2.35081438 Z M17.9564596,2.22708731 L17.9564596,4.94908291 L17.9564596,2.22708731 Z M24.3902674,2.22708731 L24.3902674,6.18635363 L24.3902674,2.22708731 Z" id="Combined-Shape-Copy"/>
                    <path d="M24.3902674,11.1354365 L24.3902674,19.4336023" id="Path-12"/>
                    <polyline id="Path-13" transform="translate(24.390267, 20.670873) scale(1, -1) translate(-24.390267, -20.670873) " points="22.4106343 19.6810565 24.3902674 21.6606897 26.3699006 19.6810565"/>
                    <g id="Group-33" transform="translate(7.176170, 6.928716)">
                        <rect id="Rectangle" fill="#104877" x="0" y="0" width="3.95926632" height="16.3319736"/>
                        <path d="M0,12.9913426 L3.95926632,12.9913426" id="Path-14-Copy"/>
                        <path d="M-7.54951657e-14,2.53217902 L3.95926632,2.53217902" id="Path-14"/>
                    </g>
                    <g id="Group-33-Copy" transform="translate(11.135437, 10.640528)">
                        <rect id="Rectangle" fill="#104877" x="0" y="0" width="3.95926632" height="12.6201614"/>
                        <path d="M0,2.96944974 L3.95926632,2.96944974" id="Path-14-Copy-6"/>
                        <path d="M-7.54951657e-14,7.98462216 L3.95926632,7.98462216" id="Path-14-Copy"/>
                        <path d="M-7.54951657e-14,10.14562 L3.95926632,10.14562" id="Path-14-Copy-2"/>
                    </g>
                    <g id="Group-31" transform="translate(3.470269, 15.178469) rotate(10.000000) translate(-3.470269, -15.178469) translate(1.470269, 7.178469)">
                        <rect id="Rectangle-Copy-43" x="0" y="0" width="3.95926632" height="15.8370653"/>
                        <path d="M0.086143446,3.13621701 L3.84614345,3.13621701" id="Path-14-Copy-3"/>
                        <path d="M-1.8189894e-12,11.1354365 L3.95926632,11.1354365" id="Path-14-Copy-4"/>
                        <path d="M-2.72848411e-12,13.1150697 L3.95926632,13.1150697" id="Path-14-Copy-5"/>
                    </g>
                </g>
            </g>
        </g>
    </g>
</svg>