<svg width="532" height="55" viewBox="0 0 532 55" fill="none" xmlns="http://www.w3.org/2000/svg">
<path d="M35.349 54.0741V9.32099H0V1.11111H79.581V9.32099H44.1102V54.0741H35.349Z" fill="#020203"/>
<path d="M169.383 27.4691C169.383 45.8642 158.554 55 124.908 55C91.0801 55 80.3111 45.8642 80.3111 27.4691C80.3111 9.01235 91.0192 0 124.847 0C158.554 0 169.383 9.01235 169.383 27.4691ZM160.622 27.4691C160.622 13.5185 151.435 8.20988 124.908 8.20988C98.3202 8.20988 89.0723 13.5185 89.0723 27.4691C89.0723 41.4198 98.3202 46.7901 124.908 46.7901C151.374 46.7901 160.622 41.4198 160.622 27.4691Z" fill="#020203"/>
<path d="M249.269 1.11111H258.03V54.0741H244.827L185.932 9.62963V54.0741H177.171V1.11111H189.644L249.269 46.1728V1.11111Z" fill="#020203"/>
<path d="M267.704 54.0741V1.11111H339.74V9.32099H276.465V22.284H336.881V30.4938H276.465V45.8642H340.531V54.0741H267.704Z" fill="#020203"/>
<path d="M425.71 54.0741H416.522C415.792 51.358 415.61 48.0247 415.61 43.2099C415.61 36.8519 412.142 34.8148 401.92 34.8148H357.08V54.0741H348.319V1.11111H399.852C417.192 1.17284 423.58 5.4321 423.58 17.716C423.58 24.2593 421.086 28.0247 414.94 30C421.816 31.7284 424.31 35.6173 424.31 43.2099C424.31 48.0247 424.736 51.2963 425.71 54.0741ZM357.08 26.5432H401.92C411.594 26.5432 414.94 24.2593 414.94 17.716C414.94 11.4198 411.594 9.32099 401.92 9.32099H357.08V26.5432Z" fill="#020203"/>
<path d="M432.706 54.0741V1.11111H441.467V54.0741H432.706Z" fill="#020203"/>
<path d="M523.239 1.11111H532V54.0741H518.797L459.903 9.62963V54.0741H451.141V1.11111H463.614L523.239 46.1728V1.11111Z" fill="#020203"/>
</svg>
