<svg width="56" height="56" viewBox="0 0 56 56" fill="none" xmlns="http://www.w3.org/2000/svg">
<g clip-path="url(#clip0_3696_758)">
<path d="M51.1001 0L20.6501 33.5125L11.8126 26.775H6.9126L20.6501 49.0875L56.0001 0H51.1001Z" fill="#7EB04C"/>
<path d="M47.1625 49.0871C47.1625 49.6121 46.725 50.0496 46.2 50.0496H6.9125C6.3875 50.0496 5.95 49.6121 5.95 49.0871V9.79961C5.95 9.27461 6.3875 8.83711 6.9125 8.83711H33.775L39.1125 2.97461H1.925C0.875 2.97461 0 3.84961 0 4.89961V53.9871C0 55.1246 0.875 55.9996 1.925 55.9996H51.0125C52.0625 55.9996 52.9375 55.1246 52.9375 54.0746V15.8371L47.075 24.0621C47.1625 24.0621 47.1625 49.0871 47.1625 49.0871Z" fill="#023B59"/>
</g>
<defs>
<clipPath id="clip0_3696_758">
<rect width="56" height="56" fill="white"/>
</clipPath>
</defs>
</svg>
