<svg xmlns="http://www.w3.org/2000/svg" width="31" height="30"><path data-name="Forma 1" d="M25.36 20.4l-3.32-1.2a.621.621 0 00-.69.2 7.511 7.511 0 01-11.7 0 .621.621 0 00-.69-.2l-3.32 1.2a8.5 8.5 0 00-5.64 8v.9a.667.667 0 00.65.7h29.7a.667.667 0 00.65-.7v-.9a8.5 8.5 0 00-5.64-8zm4.35 8.3H1.29v-.3a7.161 7.161 0 014.77-6.8l2.93-1a8.757 8.757 0 0013.02 0l2.93 1a7.161 7.161 0 014.77 6.8v.3zM23.25 8v-.2a7.75 7.75 0 10-15.5 0V8a3.453 3.453 0 00-1.29 3.1c0 1.8.79 3.2 1.86 3.2 1.17 4 4 6.6 7.18 6.6s6.01-2.6 7.18-6.6c1.07 0 1.86-1.4 1.86-3.2A3.453 3.453 0 0023.25 8zm-.69 5a.6.6 0 00-.58 0 .467.467 0 00-.38.4c-.91 3.7-3.36 6.2-6.1 6.2s-5.19-2.5-6.1-6.2A.66.66 0 009 13a.235.235 0 00-.23-.1c-.13 0-.26.1-.37.1a2.19 2.19 0 01-.65-1.9 2.682 2.682 0 01.62-2h.02a.493.493 0 00.52-.1.88.88 0 00.18-.6l-.01-.1a4.21 4.21 0 01-.04-.5 6.46 6.46 0 1112.92 0 4.21 4.21 0 01-.04.5l-.01.1a.544.544 0 00.18.5.4.4 0 00.52.2h.02a2.682 2.682 0 01.62 2c0 1.2-.47 1.9-.69 1.9zM15.5 5.2a2.5 2.5 0 00-2.58 2.6.647.647 0 101.29 0 1.29 1.29 0 112.58 0 2.1 2.1 0 01-.98 2.1 2.758 2.758 0 00-1.59 2.6.618.618 0 00.63.5h.08a.6.6 0 00.56-.7 1.593 1.593 0 01.99-1.3 3.257 3.257 0 001.6-3.2 2.5 2.5 0 00-2.58-2.6zm-.65 9.1a.7.7 0 11-.64.7.667.667 0 01.64-.7z" fill="#73ad32" fill-rule="evenodd"/></svg>