<svg xmlns="http://www.w3.org/2000/svg" width="27" height="30"><path data-name="Forma 1" d="M16.536 7a4.2 4.2 0 00-6.072 0 4.212 4.212 0 000 6 4.808 4.808 0 001.09.8v7.3a.641.641 0 00.172.4l.866.9c.09 0 .207.1.334.1l.864.1h.082a.44.44 0 00.345-.1l1.605-1.1a.6.6 0 00.242-.5v-.6a.78.78 0 00-.235-.5l-.438-.3.5-.5a.47.47 0 00.176-.4v-.7a.647.647 0 00-.169-.4l-.6-.6v-.2l.449-.2a.623.623 0 00.318-.6v-1.2a.579.579 0 00-.3-.5l-.474-.3a3.623 3.623 0 001.242-.9 4.21 4.21 0 00.003-6zm-2.02 5.9a.579.579 0 00-.3.3.362.362 0 00-.1.3v.8a.58.58 0 00.3.5l.474.3v.5l-.449.2a.576.576 0 00-.319.5v.8a.925.925 0 00.169.5l.6.6v.2l-.593.5a.9.9 0 00-.176.5v.3a.611.611 0 00.234.5l.529.4-1.165.8h-.436l-.555-.6v-7.4a.584.584 0 00-.372-.5 4.013 4.013 0 01-1.062-.7 3.108 3.108 0 010-4.4 3.154 3.154 0 014.412 0 3.108 3.108 0 010 4.4 2.821 2.821 0 01-1.191.7zM13.5 8a.888.888 0 01.88.9.884.884 0 01-1.76 0 .888.888 0 01.88-.9zm13.06-2.8A53.7 53.7 0 0113.786.1a.583.583 0 00-.572 0A53.517 53.517 0 01.44 5.2a.625.625 0 00-.44.6v6.4a18.059 18.059 0 005.968 13.6c2.92 2.7 6.307 4.2 7.532 4.2s4.611-1.5 7.532-4.2A18.059 18.059 0 0027 12.2V5.8a.625.625 0 00-.44-.6zm-.734 7a16.7 16.7 0 01-5.592 12.7 18.429 18.429 0 01-4.223 3 3.953 3.953 0 01-5.022 0 18.429 18.429 0 01-4.223-3 16.7 16.7 0 01-5.592-12.7v-6A54.71 54.71 0 0013.5 1.3a54.8 54.8 0 0012.326 4.9v6zm-1.3-5.4A59.05 59.05 0 0113.78 2.4a.545.545 0 00-.552 0A59.314 59.314 0 012.482 6.8a.6.6 0 00-.424.5v4.9a16.055 16.055 0 005.073 11.9 21.613 21.613 0 003.954 2.9 10.723 10.723 0 002.312.9h.213a10.735 10.735 0 002.313-.9 21.648 21.648 0 003.954-2.9 16.05 16.05 0 005.072-11.9V7.3a.6.6 0 00-.427-.5zm-.75 5.4a14.735 14.735 0 01-4.712 11 15.875 15.875 0 01-3.7 2.7 11.82 11.82 0 01-1.86.9 11.869 11.869 0 01-1.861-.9 15.891 15.891 0 01-3.7-2.7 14.735 14.735 0 01-4.712-11V7.8a62.744 62.744 0 0010.273-4.2 62.435 62.435 0 0010.271 4.2v4.4zM11.8 23.7a18.139 18.139 0 01-2.024-1.6.6.6 0 00-.782.9 11.783 11.783 0 002.179 1.6.385.385 0 00.313.1.794.794 0 00.5-.2.555.555 0 00-.186-.8zM8.634 21h-.012a.652.652 0 00-.826-.1.678.678 0 00-.044.9h.012a.717.717 0 00.434.2.652.652 0 00.392-.2.553.553 0 00.04-.8z" fill="#73ad32" fill-rule="evenodd"/></svg>