<svg xmlns="http://www.w3.org/2000/svg" width="69.875" height="56"><path d="M49.524 14.47L35.663 5.72a1.225 1.225 0 00-1.281 0l-13.86 8.75a1.217 1.217 0 00-.583 1.05 52.371 52.371 0 0014.093 33.25l.117.11a1.124 1.124 0 001.63 0l.117-.11a53.118 53.118 0 0014.209-33.25 1.215 1.215 0 00-.581-1.05zm-14.56 31.96A50.652 50.652 0 0122.269 16.1l12.695-8.05 12.7 8.05a49.957 49.957 0 01-12.7 30.33zm30.983-35.19a1.152 1.152 0 00.219-.55l1.606-4.07a1.126 1.126 0 00.266-.67l1.752-4.43a1.137 1.137 0 00-.117-1.05 1.41 1.41 0 00-.932-.47h-17.47c-.35 0-.7.23-1.049.23l-4.963 6.01-9.6-6.01a1.271 1.271 0 00-1.281 0l-9.876 6.19L19.586.47a1.063 1.063 0 00-.932-.47H1.187a1.613 1.613 0 00-.932.58.871.871 0 00-.116 1.05l1.769 4.46a1.213 1.213 0 00.175.44l1.7 4.28a1.075 1.075 0 00.135.34l1.743 4.39a1.186 1.186 0 00.087.22l3.008 7.57a14.262 14.262 0 001.98 3.39 13.605 13.605 0 007.45 4.51 56.716 56.716 0 0012.467 20.69l3.494 3.73a1.124 1.124 0 001.63 0l3.5-3.73a56.66 56.66 0 0012.508-20.81 12.922 12.922 0 007.408-4.51 11.579 11.579 0 001.981-3.27l2.957-7.48a1.192 1.192 0 00.161-.41zM12.606 25.08a9.143 9.143 0 01-1.631-2.68l-2.43-6.07h4.294a1.165 1.165 0 000-2.33H7.606l-.934-2.33h3.834a1.17 1.17 0 000-2.34H5.739L4.806 7h4.537a1.165 1.165 0 100-2.33H3.872l-.935-2.34h15.139l4.41 5.35-6.74 4.22a1.038 1.038 0 00-.582.93c0 .29 0 .57.007.86 0 .11 0 .23.006.34 0 .15.007.3.011.44a55.181 55.181 0 00.391 5.28c0 .03.007.06.011.09a57.04 57.04 0 001.721 8.57 9.558 9.558 0 01-4.705-3.33zm24.8 25.32l-2.562 2.8-2.562-2.8a55.2 55.2 0 01-13.706-26.54 58.781 58.781 0 01-1.079-9.94v-.27l7.335-4.67a1.9 1.9 0 00.336-.26l9.8-6.15 17.237 10.96A54.272 54.272 0 0137.406 50.4zM59.07 22.52a12.89 12.89 0 01-1.63 2.68 12.059 12.059 0 01-4.873 3.38c.245-.86.47-1.73.675-2.6a55.466 55.466 0 001.5-11.54c0-.13.007-.27.009-.4s0-.24.007-.36c0-.28.007-.56.007-.85a1.425 1.425 0 00-.466-.93l-.013-.01a1.095 1.095 0 01-.1-.11l-6.755-4.2 4.426-5.25h15.141l-.915 2.34h-5.491a1.165 1.165 0 000 2.33h4.575l-.916 2.33h-4.823a1.17 1.17 0 000 2.34h3.908l-.92 2.33h-5.322a1.165 1.165 0 100 2.33h4.412z" fill="#73ad32" fill-rule="evenodd"/></svg>