<svg xmlns="http://www.w3.org/2000/svg" width="66" height="63"><path data-name="Forma 1" d="M19.06 26a4 4 0 104 4 4 4 0 00-4-4zm0 6a2 2 0 112-2 2 2 0 01-2 2zm13.98-6a4 4 0 104 4 4 4 0 00-4-4zm0 6a2 2 0 112-2 2 2 0 01-2 2zm13.98-6a4 4 0 104 4 4 4 0 00-4-4zm0 6a2 2 0 112-2 2 2 0 01-2 2zM33.04 3C16.52 3 3.09 15.11 3.09 30a24.942 24.942 0 004.76 14.6c-.59 6.54-2.18 11.39-4.47 13.69a1 1 0 00.7 1.71.615.615 0 00.14-.01c.41-.06 9.8-1.41 16.6-5.34A32.449 32.449 0 0033.04 57C49.56 57 63 44.89 63 30S49.56 3 33.04 3zm0 52a30.648 30.648 0 01-10.06-1.68c4.07-2.55 4.08-2.73 4.08-3.32a1 1 0 00-1.83-.57c-.55.44-2.9 1.95-5.01 3.25h0c-4.46 2.7-10.46 4.2-13.79 4.88 2.2-3.67 3.09-8.99 3.44-13.16a1.039 1.039 0 00-.19-.68A22.993 22.993 0 015.08 30c0-13.78 12.55-25 27.96-25S61 16.22 61 30 48.46 55 33.04 55z" fill="#73ad32" stroke="#73ad32" stroke-linejoin="round" fill-rule="evenodd"/></svg>