<svg xmlns="http://www.w3.org/2000/svg" width="27.62" height="32"><path data-name="Forma 1" d="M27.25 14V4.7a.611.611 0 00-.41-.6L14 0h-.76L.4 4.1a.611.611 0 00-.41.6v9.2c-.01.2-.37 13.6 13.32 18.1h.62c13.69-4.5 13.33-17.9 13.32-18zM13.64 30.8h-.04A17.355 17.355 0 011.17 14V5.1l12.43-4h.04l12.43 4V14c0 .1.34 12.6-12.43 16.8zm9.91-24.5l-9.64-3.1a.362.362 0 00-.5 0L3.77 6.3a.616.616 0 00-.4.6v7.2c0 .1.49 10.5 10.07 14.1h.43c9.59-3.6 10.08-14 10.08-14.1V6.9a.616.616 0 00-.4-.6zM13.66 27c-8.64-3.4-9.1-12.8-9.1-12.9V7.3l9.1-3 9.1 3v6.8c0 .1-.46 9.5-9.1 12.9zm6.8-15.3a.57.57 0 00-.84.1l-6.87 8.1-4.44-4.6a.564.564 0 00-.84 0 .55.55 0 00-.02.8l4.9 5a.668.668 0 00.43.2h.02a.668.668 0 00.43-.2l7.31-8.6a.556.556 0 00-.08-.8z" fill="#73ad32" fill-rule="evenodd"/></svg>