<svg xmlns="http://www.w3.org/2000/svg" width="29.31" height="32"><path data-name="Forma 1" d="M19.29 15.534a13.052 13.052 0 003.04-7.791 7.715 7.715 0 10-15.43 0 13.115 13.115 0 003.04 7.791C-1.38 19.351-.19 29.858.3 32h28.63a13.938 13.938 0 00-9.64-16.466zm-4.67-14.5a6.681 6.681 0 016.08 3.944c-2.57 1.758-5.17-.226-5.17-.226a5.412 5.412 0 00-5.83.245l-1.56 1.1a6.712 6.712 0 016.48-5.065zm-6.69 6.71c0-.082.01-.164.01-.245l2.35-1.657a4.386 4.386 0 014.72-.2 5.627 5.627 0 006.05.333 6.831 6.831 0 01.24 1.764c0 3.667-2.99 9.291-6.68 9.291s-6.69-5.623-6.69-9.288zm20.15 23.225H1.16A12.893 12.893 0 016 18.669a14.811 14.811 0 001.28 4.163A4.141 4.141 0 005.6 27.69l.85 2.431 1.94-.687-.34-.976-.97.341-.52-1.462a3.091 3.091 0 115.83-2.054l.51 1.463-.98.339.34.977 1.94-.687-.85-2.438a4.106 4.106 0 00-5.14-2.557 13.474 13.474 0 01-1.27-4.391 13.069 13.069 0 013.82-1.625 5.26 5.26 0 007.71 0 12.738 12.738 0 014.37 2.01 13.209 13.209 0 01-1.51 3.886 1.909 1.909 0 00-.55-.089 2.065 2.065 0 101.45.6 14.594 14.594 0 001.5-3.7 13 13 0 014.35 11.896zm-6.26-6.708a1.04 1.04 0 01-1.03 1.034 1.033 1.033 0 111.03-1.036z" fill="#73ad32" fill-rule="evenodd"/></svg>