<svg xmlns="http://www.w3.org/2000/svg" width="19.62" height="36"><path data-name="Forma 1" d="M13.82 14.843V3.436A1.724 1.724 0 0013.63 0H5.99a1.724 1.724 0 00-.19 3.436v9.205a.575.575 0 001.15 0V3.447h3.24a.575.575 0 000-1.149h-4.2a.574.574 0 010-1.148h7.64a.574.574 0 010 1.148h-1.15a.575.575 0 000 1.149h.19v11.492a.617.617 0 00.03.19l5.57 16.142a2.758 2.758 0 01-.22 2.546 2.73 2.73 0 01-2.32 1.035H3.89a2.73 2.73 0 01-2.32-1.035 2.758 2.758 0 01-.22-2.546l5.57-16.142a.577.577 0 00-1.09-.378L.27 30.894A3.639 3.639 0 003.89 36h11.84a3.639 3.639 0 003.62-5.105zM4.93 26.715a.561.561 0 00-.51-.1.567.567 0 00-.38.363l-1.61 4.664a1.671 1.671 0 00.07 1.5 1.641 1.641 0 001.39.553h11.84a1.641 1.641 0 001.39-.553 1.671 1.671 0 00.07-1.5l-1.61-4.665a.567.567 0 00-.38-.363.561.561 0 00-.51.1 1.859 1.859 0 01-1.33.428 1.883 1.883 0 01-1.4-.626 3.006 3.006 0 00-4.3 0 1.883 1.883 0 01-1.4.626 1.859 1.859 0 01-1.33-.427zm3.48.673a1.878 1.878 0 012.8 0 3.006 3.006 0 002.15.906 3.284 3.284 0 001.37-.259l1.37 3.987a1.113 1.113 0 01.08.458 1.133 1.133 0 01-.45.074H3.89a1.133 1.133 0 01-.45-.074 1.113 1.113 0 01.08-.458l1.37-3.987a3.284 3.284 0 001.37.259 3.006 3.006 0 002.15-.907z" fill="#73ad32" fill-rule="evenodd"/></svg>