<svg xmlns="http://www.w3.org/2000/svg" width="15" height="20"><path data-name="Фигура 4" d="M7.5 0A7.424 7.424 0 000 7.3c0 1.9 1.2 4.5 3.56 7.8a44.99 44.99 0 003.49 4.4l.45.5.45-.5a44.99 44.99 0 003.49-4.4C13.8 11.8 15 9.2 15 7.3A7.424 7.424 0 007.5 0zm2.97 14.4a41.227 41.227 0 01-2.97 3.8c-.62-.7-1.79-2.1-2.96-3.7C2.35 11.4 1.2 8.9 1.2 7.3a6.3 6.3 0 0112.6 0c0 1.6-1.15 4.1-3.33 7.1zM7.5 2.7A4.354 4.354 0 003.07 7a4.43 4.43 0 008.86 0A4.354 4.354 0 007.5 2.7zm0 7.5A3.151 3.151 0 1110.73 7a3.2 3.2 0 01-3.23 3.2z" fill="#3884c4" fill-rule="evenodd"/></svg>