<svg xmlns="http://www.w3.org/2000/svg" width="33.219" height="30.75"><path data-name="Forma 1" d="M32.215 16.829c1.785-1.753 1.233-5.3-1.858-5.3h-8.132c.308-1.7.755-4.519.738-4.784a17.13 17.13 0 00-1.869-5.712 3.479 3.479 0 00-3.3-.969c-1.949.411-2.148 1.639-2.14 1.977 0 0 .084 3.359.093 4.256-.933 2.021-4.147 7.333-5.121 7.742a1.5 1.5 0 00-.772-.214H1.579A1.564 1.564 0 000 15.383v14.018a1.485 1.485 0 001.481 1.349H8.71a1.476 1.476 0 001.484-1.465v-.466a1.073 1.073 0 01.5.074 4.225 4.225 0 002.284.841h13.771c5.149 0 4.6-4.513 4.128-5.129a3.469 3.469 0 00.672-3.888 3.451 3.451 0 00.666-3.888zM8.393 29.282H1.478v-13.99h6.915v13.99zm21.42-12.573l-.084.345c2.372.667 1.108 3.366-.593 3.542l-.084.346c2.275.571 1.19 3.351-.591 3.54l-.085.346c1.858.3 1.408 3.431-1.406 3.431l-14.008.006c-.989 0-1.89-1.113-2.618-1.113h-.635V16.383a22.486 22.486 0 002.3-1.566c1.022-.861 5.2-7.531 5.2-8.366s-.091-4.446-.091-4.446.819-1.043 2.65-.283a15.72 15.72 0 011.7 5.125s-.695 4.682-1.067 6.15h9.712c2.387.001 1.935 3.366-.3 3.712z" fill="#73ad32" fill-rule="evenodd"/></svg>