<svg xmlns="http://www.w3.org/2000/svg" width="26" height="32"><path d="M5.52 7.3a10.948 10.948 0 002.12 6.106c1.5 2.095 3.41 3.248 5.36 3.248s3.86-1.153 5.36-3.248A10.948 10.948 0 0020.48 7.3a7.482 7.482 0 00-14.96 0zM13 1.266A6.113 6.113 0 0119.18 7.3a9.822 9.822 0 01-1.88 5.376 4.766 4.766 0 01-8.6 0A9.822 9.822 0 016.82 7.3 6.113 6.113 0 0113 1.269zm5.58 13.973a.668.668 0 00-.74.124 6.5 6.5 0 01-9.68 0 .667.667 0 00-.74-.125 12.97 12.97 0 00-5.36 4.6A12.431 12.431 0 000 26.704v.01a.65.65 0 00.21.47 19.4 19.4 0 0025.58 0 .65.65 0 00.21-.47v-.01a12.431 12.431 0 00-2.06-6.866 12.964 12.964 0 00-5.36-4.597zM13 30.732a17.963 17.963 0 01-11.7-4.3 11.144 11.144 0 011.86-5.907 11.57 11.57 0 014.42-3.946 7.737 7.737 0 0010.84 0 11.57 11.57 0 014.42 3.946 11.144 11.144 0 011.86 5.907 17.963 17.963 0 01-11.7 4.3zM6.03 11.479" fill="#73ad32" fill-rule="evenodd"/></svg>