<svg xmlns="http://www.w3.org/2000/svg" width="20.75" height="23.812"><path d="M17.76 15.012a2.345 2.345 0 00-1.59-.981 2.449 2.449 0 00-1.81.561l-1.77 1.378c-.12-.087-.25-.17-.36-.249a6.695 6.695 0 01-.47-.327 17.149 17.149 0 01-3.65-4.241 9.939 9.939 0 01-1.09-2.288c.45-.322.88-.666 1.3-1 .15-.12.31-.25.47-.371a2.3 2.3 0 00.43-3.449l-1.2-1.528c-.14-.173-.28-.351-.41-.53-.26-.347-.54-.7-.83-1.043A2.351 2.351 0 005.2.007a2.5 2.5 0 00-1.8.524L3.39.54l-1.91 1.5A3.652 3.652 0 00.11 4.222a8.794 8.794 0 00.18 3.779 21.766 21.766 0 003.05 6.828 23.625 23.625 0 007.09 7.076 12.312 12.312 0 004.24 1.834c.11.016.22.036.32.047a3.809 3.809 0 003.04-.883.069.069 0 01.02-.023 11.081 11.081 0 01.99-.794c.24-.176.48-.365.73-.563a2.506 2.506 0 00.96-1.632 2.367 2.367 0 00-.56-1.805zm1.15 5.47c-.22.183-.45.35-.69.532a12.769 12.769 0 00-1.08.877 2.438 2.438 0 01-1.98.563 2.838 2.838 0 01-.23-.032 10.9 10.9 0 01-3.76-1.644 22.271 22.271 0 01-6.68-6.664 20.579 20.579 0 01-2.87-6.418 7.136 7.136 0 01-.17-3.19 2.273 2.273 0 01.87-1.4l1.92-1.49a1.147 1.147 0 01.8-.263 1.071 1.071 0 01.69.44.145.145 0 01.01.018c.27.319.53.649.79 1 .14.179.28.357.42.542l1.2 1.527a.961.961 0 01-.19 1.544c-.17.129-.32.255-.49.379-.47.374-.92.726-1.4 1.061-.01.008-.02.011-.03.02a1.024 1.024 0 00-.4 1.1c0 .017.01.032.01.047a11.011 11.011 0 001.29 2.823h.01a18.292 18.292 0 003.94 4.573 6.438 6.438 0 00.58.41c.17.112.33.218.46.324a.728.728 0 00.06.042 1.023 1.023 0 001.28-.065l1.92-1.5a1.168 1.168 0 01.8-.284 1.063 1.063 0 01.68.454l.01.008 2.42 3.087a.992.992 0 01-.19 1.579z" fill="#4197d7" fill-rule="evenodd"/></svg>