<svg width="18" height="18" viewBox="0 0 18 18" fill="none" xmlns="http://www.w3.org/2000/svg">
<path d="M5.82899 12.0414H15.5904C15.6087 12.0414 15.6271 12.0402 15.6448 12.0385C15.6511 12.0379 15.6569 12.0368 15.6632 12.0362C15.6746 12.0345 15.6861 12.0333 15.6976 12.031C15.7044 12.0298 15.7119 12.0281 15.7188 12.0264C15.7291 12.0241 15.7394 12.0212 15.7497 12.0183C15.7566 12.0166 15.7635 12.0143 15.7704 12.012C15.7824 12.0079 15.7944 12.0033 15.8065 11.9987C15.8145 11.9958 15.822 11.9924 15.83 11.9889C15.8414 11.9837 15.8529 11.9785 15.8644 11.9722C15.8707 11.9687 15.8764 11.9653 15.8827 11.9618C15.8919 11.9566 15.9011 11.9509 15.9097 11.9451C15.9154 11.9411 15.9211 11.937 15.9269 11.933C15.936 11.9266 15.9446 11.9197 15.9532 11.9128C15.9578 11.9088 15.963 11.9053 15.9676 11.9013C15.9785 11.8921 15.9893 11.8823 15.9997 11.8719C16.0014 11.8702 16.0037 11.8684 16.0054 11.8661C16.0174 11.854 16.0295 11.8407 16.0404 11.8275C16.0432 11.824 16.0461 11.82 16.049 11.816C16.057 11.8062 16.0644 11.7958 16.0713 11.7854C16.0748 11.7802 16.0788 11.7745 16.0822 11.7693C16.0879 11.76 16.0937 11.7508 16.0988 11.7416C16.1023 11.7353 16.1063 11.7289 16.1097 11.722C16.1143 11.7128 16.1189 11.7041 16.1229 11.6949C16.1264 11.688 16.1298 11.6811 16.1327 11.6736C16.1367 11.6632 16.1407 11.6522 16.1441 11.6413C16.1464 11.6349 16.1487 11.6286 16.151 11.6217L17.9734 5.75008C18.0255 5.58175 18.0003 5.39842 17.904 5.25084C17.8083 5.10326 17.6512 5.00641 17.4769 4.98681L3.97566 3.48965L3.65693 2.46118C3.38808 1.59586 2.63597 0.972673 1.7394 0.874093L0.651362 0.753605C0.329193 0.717863 0.0391269 0.951919 0.00358518 1.27649C-0.0319566 1.60048 0.200785 1.89218 0.522953 1.92792L1.61099 2.04784C2.04265 2.09568 2.40552 2.39604 2.53508 2.81284L2.95642 4.17049C2.95928 4.18375 2.96215 4.19701 2.96616 4.20969L5.0809 11.0233C4.45032 11.311 4.01063 11.9491 4.01063 12.6894C4.01063 13.1857 4.2084 13.636 4.52885 13.9657C4.20783 14.3151 4.01063 14.7815 4.01063 15.2934C4.01063 16.372 4.8837 17.25 5.95626 17.25C7.02881 17.25 7.90188 16.372 7.90188 15.2934C7.90188 15.0178 7.84455 14.7555 7.74194 14.518H12.8823C12.7797 14.7561 12.7224 15.0184 12.7224 15.2934C12.7224 16.372 13.5954 17.25 14.668 17.25C15.7406 17.25 16.6136 16.372 16.6136 15.2934C16.6136 14.2148 15.7406 13.3368 14.668 13.3368H5.82842C5.47358 13.3368 5.18466 13.0462 5.18466 12.6894C5.18466 12.3319 5.47358 12.0414 5.82899 12.0414Z" fill="white"/>
</svg>
