<svg width="88" height="47" viewBox="0 0 88 47" fill="none" xmlns="http://www.w3.org/2000/svg">
<path d="M15.375 9.53027V17.8975H16.8359C18.6953 17.8975 19.9681 17.4049 20.6543 16.4199C21.3516 15.4349 21.7002 14.0459 21.7002 12.2529C21.7002 10.3936 21.3682 8.98796 20.7041 8.03613C20.0511 7.08431 18.9775 6.6084 17.4834 6.6084C16.8747 6.6084 16.4264 6.69141 16.1387 6.85742C15.8509 7.01237 15.6517 7.2946 15.541 7.7041C15.4303 8.10254 15.375 8.71126 15.375 9.53027ZM22.9287 30C21.7223 25.9049 20.7705 22.9775 20.0732 21.2178C19.387 19.458 18.557 18.5781 17.583 18.5781H15.375V26.3975C15.375 27.2607 15.4359 27.8861 15.5576 28.2734C15.6794 28.6497 15.9118 28.9098 16.2549 29.0537C16.598 29.1865 17.1514 29.2751 17.915 29.3193V30H7.42285V29.3193C8.16439 29.2751 8.71224 29.1865 9.06641 29.0537C9.42057 28.9098 9.65853 28.6497 9.78027 28.2734C9.90202 27.8861 9.96289 27.2607 9.96289 26.3975V9.53027C9.96289 8.66699 9.90202 8.0472 9.78027 7.6709C9.65853 7.28353 9.42057 7.02344 9.06641 6.89062C8.71224 6.74674 8.16439 6.65267 7.42285 6.6084V5.92773H17.915C21.0472 5.94987 23.3991 6.47005 24.9707 7.48828C26.5534 8.50651 27.3447 9.96745 27.3447 11.8711C27.3447 13.487 26.7526 14.9092 25.5684 16.1377C24.3952 17.3551 22.4473 18.1243 19.7246 18.4453C21.7611 18.6224 23.3216 19.1758 24.4062 20.1055C25.4909 21.0352 26.3929 22.5902 27.1123 24.7705C27.8428 26.9398 28.3906 28.1849 28.7559 28.5059C29.1211 28.8268 29.5859 29.098 30.1504 29.3193V30H22.9287ZM42.4561 5.92773C46.8831 5.92773 50.1924 6.9349 52.3838 8.94922C54.5863 10.9525 55.6875 13.8688 55.6875 17.6982C55.6875 20.1663 55.1507 22.3245 54.0771 24.1729C53.0036 26.0212 51.4486 27.4544 49.4121 28.4727C47.3867 29.4909 44.9684 30 42.1572 30H31.9639V29.3193C32.7054 29.2751 33.2533 29.1865 33.6074 29.0537C33.9616 28.9098 34.1995 28.6497 34.3213 28.2734C34.443 27.8861 34.5039 27.2607 34.5039 26.3975V9.53027C34.5039 8.66699 34.443 8.0472 34.3213 7.6709C34.1995 7.28353 33.9616 7.02344 33.6074 6.89062C33.2533 6.74674 32.7054 6.65267 31.9639 6.6084V5.92773H42.4561ZM42.4229 6.54199C41.7256 6.54199 41.1999 6.625 40.8457 6.79102C40.4915 6.94596 40.248 7.22819 40.1152 7.6377C39.9824 8.03613 39.916 8.64486 39.916 9.46387V26.4639C39.916 27.2829 39.9824 27.8971 40.1152 28.3066C40.248 28.7051 40.4915 28.9873 40.8457 29.1533C41.1999 29.3083 41.7367 29.3857 42.4561 29.3857C45.2008 29.3857 47.1488 28.4284 48.2998 26.5137C49.4619 24.599 50.043 21.7048 50.043 17.8311C50.043 13.9574 49.4453 11.1074 48.25 9.28125C47.0658 7.45508 45.1234 6.54199 42.4229 6.54199ZM67.3125 9.53027V17.8975H68.7734C70.6328 17.8975 71.9056 17.4049 72.5918 16.4199C73.2891 15.4349 73.6377 14.0459 73.6377 12.2529C73.6377 10.3936 73.3057 8.98796 72.6416 8.03613C71.9886 7.08431 70.915 6.6084 69.4209 6.6084C68.8122 6.6084 68.3639 6.69141 68.0762 6.85742C67.7884 7.01237 67.5892 7.2946 67.4785 7.7041C67.3678 8.10254 67.3125 8.71126 67.3125 9.53027ZM74.8662 30C73.6598 25.9049 72.708 22.9775 72.0107 21.2178C71.3245 19.458 70.4945 18.5781 69.5205 18.5781H67.3125V26.3975C67.3125 27.2607 67.3734 27.8861 67.4951 28.2734C67.6169 28.6497 67.8493 28.9098 68.1924 29.0537C68.5355 29.1865 69.0889 29.2751 69.8525 29.3193V30H59.3604V29.3193C60.1019 29.2751 60.6497 29.1865 61.0039 29.0537C61.3581 28.9098 61.596 28.6497 61.7178 28.2734C61.8395 27.8861 61.9004 27.2607 61.9004 26.3975V9.53027C61.9004 8.66699 61.8395 8.0472 61.7178 7.6709C61.596 7.28353 61.3581 7.02344 61.0039 6.89062C60.6497 6.74674 60.1019 6.65267 59.3604 6.6084V5.92773H69.8525C72.9847 5.94987 75.3366 6.47005 76.9082 7.48828C78.4909 8.50651 79.2822 9.96745 79.2822 11.8711C79.2822 13.487 78.6901 14.9092 77.5059 16.1377C76.3327 17.3551 74.3848 18.1243 71.6621 18.4453C73.6986 18.6224 75.2591 19.1758 76.3438 20.1055C77.4284 21.0352 78.3304 22.5902 79.0498 24.7705C79.7803 26.9398 80.3281 28.1849 80.6934 28.5059C81.0586 28.8268 81.5234 29.098 82.0879 29.3193V30H74.8662Z" fill="white"/>
<path d="M7.14844 40.1836V42.1523H7.49219C7.92969 42.1523 8.22917 42.0365 8.39062 41.8047C8.55469 41.5729 8.63672 41.2461 8.63672 40.8242C8.63672 40.3867 8.55859 40.056 8.40234 39.832C8.2487 39.6081 7.99609 39.4961 7.64453 39.4961C7.5013 39.4961 7.39583 39.5156 7.32812 39.5547C7.26042 39.5911 7.21354 39.6576 7.1875 39.7539C7.16146 39.8477 7.14844 39.9909 7.14844 40.1836ZM8.92578 45C8.64193 44.0365 8.41797 43.3477 8.25391 42.9336C8.09245 42.5195 7.89714 42.3125 7.66797 42.3125H7.14844V44.1523C7.14844 44.3555 7.16276 44.5026 7.19141 44.5938C7.22005 44.6823 7.27474 44.7435 7.35547 44.7773C7.4362 44.8086 7.56641 44.8294 7.74609 44.8398V45H5.27734V44.8398C5.45182 44.8294 5.58073 44.8086 5.66406 44.7773C5.7474 44.7435 5.80339 44.6823 5.83203 44.5938C5.86068 44.5026 5.875 44.3555 5.875 44.1523V40.1836C5.875 39.9805 5.86068 39.8346 5.83203 39.7461C5.80339 39.6549 5.7474 39.5938 5.66406 39.5625C5.58073 39.5286 5.45182 39.5065 5.27734 39.4961V39.3359H7.74609C8.48307 39.3411 9.03646 39.4635 9.40625 39.7031C9.77865 39.9427 9.96484 40.2865 9.96484 40.7344C9.96484 41.1146 9.82552 41.4492 9.54688 41.7383C9.27083 42.0247 8.8125 42.2057 8.17188 42.2812C8.65104 42.3229 9.01823 42.4531 9.27344 42.6719C9.52865 42.8906 9.74089 43.2565 9.91016 43.7695C10.082 44.2799 10.2109 44.5729 10.2969 44.6484C10.3828 44.724 10.4922 44.7878 10.625 44.8398V45H8.92578ZM16.9102 39.4961C16.7357 39.5221 16.6068 39.5677 16.5234 39.6328C16.4401 39.6953 16.3841 39.7969 16.3555 39.9375C16.3268 40.0755 16.3125 40.2799 16.3125 40.5508V42.6719C16.3125 43.4349 16.2031 44 15.9844 44.3672C15.8385 44.6016 15.6289 44.7852 15.3555 44.918C15.0846 45.0482 14.7526 45.1133 14.3594 45.1133C13.7396 45.1133 13.2591 44.9792 12.918 44.7109C12.6732 44.513 12.5078 44.2643 12.4219 43.9648C12.3385 43.6628 12.2969 43.2396 12.2969 42.6953V40.1836C12.2969 39.9805 12.2812 39.8346 12.25 39.7461C12.2214 39.6549 12.1654 39.5938 12.082 39.5625C11.9987 39.5286 11.8698 39.5065 11.6953 39.4961V39.3359H14.2148V39.4961C14.0221 39.5065 13.8815 39.5286 13.793 39.5625C13.707 39.5938 13.6471 39.6549 13.6133 39.7461C13.582 39.8346 13.5664 39.9805 13.5664 40.1836V43.1992C13.5664 43.7591 13.6471 44.1719 13.8086 44.4375C13.9727 44.7005 14.2604 44.832 14.6719 44.832C15.2057 44.832 15.582 44.6523 15.8008 44.293C16.0195 43.9336 16.1289 43.4232 16.1289 42.7617V40.6484C16.1289 40.3385 16.1094 40.1094 16.0703 39.9609C16.0339 39.8099 15.9622 39.7018 15.8555 39.6367C15.7487 39.569 15.5807 39.5221 15.3516 39.4961V39.3359H16.9102V39.4961ZM23.6016 39.4961C23.4271 39.5221 23.2982 39.5677 23.2148 39.6328C23.1315 39.6953 23.0755 39.7969 23.0469 39.9375C23.0182 40.0755 23.0039 40.2799 23.0039 40.5508V45.0156H22.5938L19.1211 40.6172V43.6875C19.1211 44.0026 19.1367 44.2344 19.168 44.3828C19.2018 44.5286 19.2721 44.6354 19.3789 44.7031C19.4857 44.7682 19.6589 44.8138 19.8984 44.8398V45H18.3398V44.8398C18.5143 44.8138 18.6432 44.7695 18.7266 44.707C18.8099 44.6419 18.8659 44.5404 18.8945 44.4023C18.9232 44.2617 18.9375 44.056 18.9375 43.7852V40.1836C18.9375 39.9805 18.9232 39.8346 18.8945 39.7461C18.8659 39.6549 18.8099 39.5938 18.7266 39.5625C18.6432 39.5286 18.5143 39.5065 18.3398 39.4961V39.3359H19.7227L22.8203 43.1523V40.6484C22.8203 40.3333 22.8034 40.1029 22.7695 39.957C22.7383 39.8086 22.6693 39.7018 22.5625 39.6367C22.4557 39.569 22.2826 39.5221 22.043 39.4961V39.3359H23.6016V39.4961ZM25.8867 43.8789C26.1497 43.8789 26.3398 43.9727 26.457 44.1602C26.5091 44.2409 26.5508 44.3398 26.582 44.457C26.6159 44.5742 26.6328 44.6966 26.6328 44.8242C26.6328 45.1003 26.5612 45.3503 26.418 45.5742C26.2773 45.7982 26.069 45.9753 25.793 46.1055L25.7188 45.9609C25.875 45.8958 26.0104 45.7969 26.125 45.6641C26.2396 45.5312 26.3073 45.3958 26.3281 45.2578C26.3438 45.1927 26.3516 45.1302 26.3516 45.0703C26.3516 45.0182 26.3438 44.9688 26.3281 44.9219C26.2109 45.0495 26.056 45.1133 25.8633 45.1133C25.6758 45.1133 25.5234 45.0586 25.4062 44.9492C25.2891 44.8398 25.2305 44.6888 25.2305 44.4961C25.2305 44.3138 25.2917 44.1654 25.4141 44.0508C25.5391 43.9362 25.6966 43.8789 25.8867 43.8789ZM33.7383 39.3359C34.7799 39.3359 35.5586 39.5729 36.0742 40.0469C36.5924 40.5182 36.8516 41.2044 36.8516 42.1055C36.8516 42.6862 36.7253 43.194 36.4727 43.6289C36.2201 44.0638 35.8542 44.401 35.375 44.6406C34.8984 44.8802 34.3294 45 33.668 45H31.2695V44.8398C31.444 44.8294 31.5729 44.8086 31.6562 44.7773C31.7396 44.7435 31.7956 44.6823 31.8242 44.5938C31.8529 44.5026 31.8672 44.3555 31.8672 44.1523V40.1836C31.8672 39.9805 31.8529 39.8346 31.8242 39.7461C31.7956 39.6549 31.7396 39.5938 31.6562 39.5625C31.5729 39.5286 31.444 39.5065 31.2695 39.4961V39.3359H33.7383ZM33.7305 39.4805C33.5664 39.4805 33.4427 39.5 33.3594 39.5391C33.276 39.5755 33.2188 39.6419 33.1875 39.7383C33.1562 39.832 33.1406 39.9753 33.1406 40.168V44.168C33.1406 44.3607 33.1562 44.5052 33.1875 44.6016C33.2188 44.6953 33.276 44.7617 33.3594 44.8008C33.4427 44.8372 33.569 44.8555 33.7383 44.8555C34.3841 44.8555 34.8424 44.6302 35.1133 44.1797C35.3867 43.7292 35.5234 43.0482 35.5234 42.1367C35.5234 41.2253 35.3828 40.5547 35.1016 40.125C34.8229 39.6953 34.3659 39.4805 33.7305 39.4805ZM43.5742 39.4961C43.3997 39.5221 43.2708 39.5677 43.1875 39.6328C43.1042 39.6953 43.0482 39.7969 43.0195 39.9375C42.9909 40.0755 42.9766 40.2799 42.9766 40.5508V42.6719C42.9766 43.4349 42.8672 44 42.6484 44.3672C42.5026 44.6016 42.293 44.7852 42.0195 44.918C41.7487 45.0482 41.4167 45.1133 41.0234 45.1133C40.4036 45.1133 39.9232 44.9792 39.582 44.7109C39.3372 44.513 39.1719 44.2643 39.0859 43.9648C39.0026 43.6628 38.9609 43.2396 38.9609 42.6953V40.1836C38.9609 39.9805 38.9453 39.8346 38.9141 39.7461C38.8854 39.6549 38.8294 39.5938 38.7461 39.5625C38.6628 39.5286 38.5339 39.5065 38.3594 39.4961V39.3359H40.8789V39.4961C40.6862 39.5065 40.5456 39.5286 40.457 39.5625C40.3711 39.5938 40.3112 39.6549 40.2773 39.7461C40.2461 39.8346 40.2305 39.9805 40.2305 40.1836V43.1992C40.2305 43.7591 40.3112 44.1719 40.4727 44.4375C40.6367 44.7005 40.9245 44.832 41.3359 44.832C41.8698 44.832 42.2461 44.6523 42.4648 44.293C42.6836 43.9336 42.793 43.4232 42.793 42.7617V40.6484C42.793 40.3385 42.7734 40.1094 42.7344 39.9609C42.6979 39.8099 42.6263 39.7018 42.5195 39.6367C42.4128 39.569 42.2448 39.5221 42.0156 39.4961V39.3359H43.5742V39.4961ZM47.4648 39.3359C48.5065 39.3359 49.2852 39.5729 49.8008 40.0469C50.319 40.5182 50.5781 41.2044 50.5781 42.1055C50.5781 42.6862 50.4518 43.194 50.1992 43.6289C49.9466 44.0638 49.5807 44.401 49.1016 44.6406C48.625 44.8802 48.056 45 47.3945 45H44.9961V44.8398C45.1706 44.8294 45.2995 44.8086 45.3828 44.7773C45.4661 44.7435 45.5221 44.6823 45.5508 44.5938C45.5794 44.5026 45.5938 44.3555 45.5938 44.1523V40.1836C45.5938 39.9805 45.5794 39.8346 45.5508 39.7461C45.5221 39.6549 45.4661 39.5938 45.3828 39.5625C45.2995 39.5286 45.1706 39.5065 44.9961 39.4961V39.3359H47.4648ZM47.457 39.4805C47.293 39.4805 47.1693 39.5 47.0859 39.5391C47.0026 39.5755 46.9453 39.6419 46.9141 39.7383C46.8828 39.832 46.8672 39.9753 46.8672 40.168V44.168C46.8672 44.3607 46.8828 44.5052 46.9141 44.6016C46.9453 44.6953 47.0026 44.7617 47.0859 44.8008C47.1693 44.8372 47.2956 44.8555 47.4648 44.8555C48.1107 44.8555 48.569 44.6302 48.8398 44.1797C49.1133 43.7292 49.25 43.0482 49.25 42.1367C49.25 41.2253 49.1094 40.5547 48.8281 40.125C48.5495 39.6953 48.0924 39.4805 47.457 39.4805ZM56.5898 43.7852C56.5898 44.2747 56.6081 44.6797 56.6445 45H52.207V44.8398C52.3815 44.8294 52.5104 44.8086 52.5938 44.7773C52.6771 44.7435 52.7331 44.6823 52.7617 44.5938C52.7904 44.5026 52.8047 44.3555 52.8047 44.1523V40.1836C52.8047 39.9805 52.7904 39.8346 52.7617 39.7461C52.7331 39.6549 52.6771 39.5938 52.5938 39.5625C52.5104 39.5286 52.3815 39.5065 52.207 39.4961V39.3359H56.4844C56.4479 39.7786 56.4297 40.1732 56.4297 40.5195C56.4297 40.7539 56.4375 40.9349 56.4531 41.0625H56.2695C56.1888 40.4922 56.0443 40.0924 55.8359 39.8633C55.6302 39.6341 55.3372 39.5195 54.957 39.5195H54.6289C54.4648 39.5195 54.3451 39.5339 54.2695 39.5625C54.194 39.5885 54.1432 39.6406 54.1172 39.7188C54.0911 39.7943 54.0781 39.918 54.0781 40.0898V42.0703H54.332C54.6159 42.0703 54.8307 41.9674 54.9766 41.7617C55.125 41.5534 55.2279 41.3047 55.2852 41.0156H55.4688C55.4531 41.2396 55.4453 41.4909 55.4453 41.7695V42.1523C55.4453 42.4232 55.4609 42.8021 55.4922 43.2891H55.3086C55.1966 42.5833 54.8711 42.2305 54.332 42.2305H54.0781V44.2461C54.0781 44.418 54.0911 44.543 54.1172 44.6211C54.1432 44.6966 54.194 44.7487 54.2695 44.7773C54.3451 44.8034 54.4648 44.8164 54.6289 44.8164H55.0234C55.401 44.8164 55.7057 44.6875 55.9375 44.4297C56.1693 44.1693 56.3333 43.7305 56.4297 43.1133H56.6133C56.5977 43.2878 56.5898 43.5117 56.5898 43.7852ZM59.0508 43.8789C59.3138 43.8789 59.5039 43.9727 59.6211 44.1602C59.6732 44.2409 59.7148 44.3398 59.7461 44.457C59.7799 44.5742 59.7969 44.6966 59.7969 44.8242C59.7969 45.1003 59.7253 45.3503 59.582 45.5742C59.4414 45.7982 59.2331 45.9753 58.957 46.1055L58.8828 45.9609C59.0391 45.8958 59.1745 45.7969 59.2891 45.6641C59.4036 45.5312 59.4714 45.3958 59.4922 45.2578C59.5078 45.1927 59.5156 45.1302 59.5156 45.0703C59.5156 45.0182 59.5078 44.9688 59.4922 44.9219C59.375 45.0495 59.2201 45.1133 59.0273 45.1133C58.8398 45.1133 58.6875 45.0586 58.5703 44.9492C58.4531 44.8398 58.3945 44.6888 58.3945 44.4961C58.3945 44.3138 58.4557 44.1654 58.5781 44.0508C58.7031 43.9362 58.8607 43.8789 59.0508 43.8789ZM66.3047 40.1836V42.1523H66.6484C67.0859 42.1523 67.3854 42.0365 67.5469 41.8047C67.7109 41.5729 67.793 41.2461 67.793 40.8242C67.793 40.3867 67.7148 40.056 67.5586 39.832C67.4049 39.6081 67.1523 39.4961 66.8008 39.4961C66.6576 39.4961 66.5521 39.5156 66.4844 39.5547C66.4167 39.5911 66.3698 39.6576 66.3438 39.7539C66.3177 39.8477 66.3047 39.9909 66.3047 40.1836ZM68.082 45C67.7982 44.0365 67.5742 43.3477 67.4102 42.9336C67.2487 42.5195 67.0534 42.3125 66.8242 42.3125H66.3047V44.1523C66.3047 44.3555 66.319 44.5026 66.3477 44.5938C66.3763 44.6823 66.431 44.7435 66.5117 44.7773C66.5924 44.8086 66.7227 44.8294 66.9023 44.8398V45H64.4336V44.8398C64.6081 44.8294 64.737 44.8086 64.8203 44.7773C64.9036 44.7435 64.9596 44.6823 64.9883 44.5938C65.0169 44.5026 65.0312 44.3555 65.0312 44.1523V40.1836C65.0312 39.9805 65.0169 39.8346 64.9883 39.7461C64.9596 39.6549 64.9036 39.5938 64.8203 39.5625C64.737 39.5286 64.6081 39.5065 64.4336 39.4961V39.3359H66.9023C67.6393 39.3411 68.1927 39.4635 68.5625 39.7031C68.9349 39.9427 69.1211 40.2865 69.1211 40.7344C69.1211 41.1146 68.9818 41.4492 68.7031 41.7383C68.4271 42.0247 67.9688 42.2057 67.3281 42.2812C67.8073 42.3229 68.1745 42.4531 68.4297 42.6719C68.6849 42.8906 68.8971 43.2565 69.0664 43.7695C69.2383 44.2799 69.3672 44.5729 69.4531 44.6484C69.5391 44.724 69.6484 44.7878 69.7812 44.8398V45H68.082ZM76.0664 39.4961C75.8919 39.5221 75.763 39.5677 75.6797 39.6328C75.5964 39.6953 75.5404 39.7969 75.5117 39.9375C75.4831 40.0755 75.4688 40.2799 75.4688 40.5508V42.6719C75.4688 43.4349 75.3594 44 75.1406 44.3672C74.9948 44.6016 74.7852 44.7852 74.5117 44.918C74.2409 45.0482 73.9089 45.1133 73.5156 45.1133C72.8958 45.1133 72.4154 44.9792 72.0742 44.7109C71.8294 44.513 71.6641 44.2643 71.5781 43.9648C71.4948 43.6628 71.4531 43.2396 71.4531 42.6953V40.1836C71.4531 39.9805 71.4375 39.8346 71.4062 39.7461C71.3776 39.6549 71.3216 39.5938 71.2383 39.5625C71.1549 39.5286 71.026 39.5065 70.8516 39.4961V39.3359H73.3711V39.4961C73.1784 39.5065 73.0378 39.5286 72.9492 39.5625C72.8633 39.5938 72.8034 39.6549 72.7695 39.7461C72.7383 39.8346 72.7227 39.9805 72.7227 40.1836V43.1992C72.7227 43.7591 72.8034 44.1719 72.9648 44.4375C73.1289 44.7005 73.4167 44.832 73.8281 44.832C74.362 44.832 74.7383 44.6523 74.957 44.293C75.1758 43.9336 75.2852 43.4232 75.2852 42.7617V40.6484C75.2852 40.3385 75.2656 40.1094 75.2266 39.9609C75.1901 39.8099 75.1185 39.7018 75.0117 39.6367C74.9049 39.569 74.737 39.5221 74.5078 39.4961V39.3359H76.0664V39.4961ZM82.7578 39.4961C82.5833 39.5221 82.4544 39.5677 82.3711 39.6328C82.2878 39.6953 82.2318 39.7969 82.2031 39.9375C82.1745 40.0755 82.1602 40.2799 82.1602 40.5508V45.0156H81.75L78.2773 40.6172V43.6875C78.2773 44.0026 78.293 44.2344 78.3242 44.3828C78.3581 44.5286 78.4284 44.6354 78.5352 44.7031C78.6419 44.7682 78.8151 44.8138 79.0547 44.8398V45H77.4961V44.8398C77.6706 44.8138 77.7995 44.7695 77.8828 44.707C77.9661 44.6419 78.0221 44.5404 78.0508 44.4023C78.0794 44.2617 78.0938 44.056 78.0938 43.7852V40.1836C78.0938 39.9805 78.0794 39.8346 78.0508 39.7461C78.0221 39.6549 77.9661 39.5938 77.8828 39.5625C77.7995 39.5286 77.6706 39.5065 77.4961 39.4961V39.3359H78.8789L81.9766 43.1523V40.6484C81.9766 40.3333 81.9596 40.1029 81.9258 39.957C81.8945 39.8086 81.8255 39.7018 81.7188 39.6367C81.612 39.569 81.4388 39.5221 81.1992 39.4961V39.3359H82.7578V39.4961Z" fill="white"/>
</svg>
