<svg width="231" height="21" viewBox="0 0 231 21" fill="none" xmlns="http://www.w3.org/2000/svg">
<path d="M5.57847 2.62954V8.73687H6.60333C7.90769 8.73687 8.80055 8.37738 9.28193 7.6584C9.77106 6.93941 10.0156 5.92556 10.0156 4.61685C10.0156 3.25967 9.78271 2.2337 9.31686 1.53895C8.85878 0.844201 8.10567 0.496826 7.05752 0.496826C6.6305 0.496826 6.31606 0.557415 6.11419 0.678592C5.91233 0.791691 5.77257 0.997692 5.69493 1.2966C5.61729 1.58742 5.57847 2.03174 5.57847 2.62954ZM10.8774 17.5707C10.0312 14.5816 9.36345 12.4449 8.87431 11.1604C8.39294 9.87594 7.81064 9.2337 7.1274 9.2337H5.57847V14.9411C5.57847 15.5713 5.62117 16.0277 5.70658 16.3104C5.79198 16.5851 5.95503 16.775 6.19571 16.88C6.4364 16.9769 6.8246 17.0415 7.36032 17.0739V17.5707H0V17.0739C0.520192 17.0415 0.904512 16.9769 1.15296 16.88C1.40141 16.775 1.56834 16.5851 1.65374 16.3104C1.73915 16.0277 1.78185 15.5713 1.78185 14.9411V2.62954C1.78185 1.99942 1.73915 1.54703 1.65374 1.27236C1.56834 0.989613 1.40141 0.799769 1.15296 0.702827C0.904512 0.597807 0.520192 0.52914 0 0.496826V0H7.36032C9.55755 0.016157 11.2074 0.395845 12.3099 1.13907C13.4202 1.88228 13.9753 2.94864 13.9753 4.33814C13.9753 5.5176 13.5599 6.55568 12.7292 7.45239C11.9062 8.34103 10.5397 8.90248 8.62975 9.13676C10.0583 9.26601 11.1531 9.66994 11.9139 10.3485C12.6748 11.0271 13.3076 12.1621 13.8123 13.7536C14.3247 15.337 14.709 16.2458 14.9652 16.4801C15.2214 16.7144 15.5475 16.9123 15.9435 17.0739V17.5707H10.8774Z" fill="white"/>
<path d="M34.682 0.496826C34.1618 0.577611 33.7775 0.718984 33.5291 0.920946C33.2806 1.11483 33.1137 1.42989 33.0283 1.86613C32.9429 2.29429 32.9002 2.92845 32.9002 3.76861V10.3485C32.9002 12.7155 32.5741 14.4686 31.9219 15.6076C31.4871 16.3347 30.8621 16.9042 30.0469 17.3162C29.2394 17.7201 28.2495 17.9221 27.0771 17.9221C25.2293 17.9221 23.7968 17.5061 22.7797 16.674C22.0499 16.06 21.5569 15.2885 21.3007 14.3595C21.0522 13.4224 20.928 12.1096 20.928 10.4212V2.62954C20.928 1.99942 20.8814 1.54703 20.7883 1.27236C20.7028 0.989613 20.5359 0.799769 20.2875 0.702827C20.039 0.597807 19.6547 0.52914 19.1345 0.496826V0H26.6462V0.496826C26.0717 0.52914 25.6524 0.597807 25.3885 0.702827C25.1322 0.799769 24.9537 0.989613 24.8527 1.27236C24.7596 1.54703 24.713 1.99942 24.713 2.62954V11.9844C24.713 13.7213 24.9537 15.0017 25.435 15.8257C25.9242 16.6417 26.7821 17.0496 28.0088 17.0496C29.6005 17.0496 30.7224 16.4922 31.3745 15.3774C32.0267 14.2626 32.3528 12.6792 32.3528 10.6272V4.07155C32.3528 3.11021 32.2946 2.39931 32.1781 1.93883C32.0694 1.47028 31.8559 1.13503 31.5376 0.933064C31.2193 0.723024 30.7185 0.577611 30.0352 0.496826V0H34.682V0.496826Z" fill="white"/>
<path d="M54.6318 0.496826C54.1116 0.577611 53.7272 0.718984 53.4788 0.920946C53.2304 1.11483 53.0634 1.42989 52.978 1.86613C52.8926 2.29429 52.8499 2.92845 52.8499 3.76861V17.6192H51.6271L41.2737 3.97461V13.4991C41.2737 14.4766 41.3203 15.1956 41.4135 15.6561C41.5144 16.1085 41.724 16.4397 42.0423 16.6497C42.3607 16.8517 42.877 16.9931 43.5913 17.0739V17.5707H38.9445V17.0739C39.4647 16.9931 39.849 16.8557 40.0975 16.6619C40.3459 16.4599 40.5128 16.1448 40.5982 15.7167C40.6836 15.2804 40.7263 14.6422 40.7263 13.8021V2.62954C40.7263 1.99942 40.6836 1.54703 40.5982 1.27236C40.5128 0.989613 40.3459 0.799769 40.0975 0.702827C39.849 0.597807 39.4647 0.52914 38.9445 0.496826V0H43.0672L52.3025 11.839V4.07155C52.3025 3.09406 52.2521 2.37911 52.1511 1.92672C52.058 1.46624 51.8522 1.13503 51.5339 0.933064C51.2156 0.723024 50.6993 0.577611 49.985 0.496826V0H54.6318V0.496826Z" fill="white"/>
<path d="M61.4447 14.0929C62.2289 14.0929 62.7957 14.3837 63.145 14.9654C63.3003 15.2158 63.4245 15.5228 63.5177 15.8863C63.6187 16.2499 63.6691 16.6295 63.6691 17.0254C63.6691 17.8817 63.4556 18.6572 63.0286 19.352C62.6093 20.0467 61.9882 20.5961 61.1652 21L60.9439 20.5516C61.4098 20.3497 61.8135 20.0427 62.1551 19.6307C62.4967 19.2187 62.6986 18.7986 62.7607 18.3705C62.8073 18.1685 62.8306 17.9746 62.8306 17.7888C62.8306 17.6272 62.8073 17.4737 62.7607 17.3283C62.4113 17.7242 61.9494 17.9221 61.3748 17.9221C60.8158 17.9221 60.3616 17.7525 60.0122 17.4132C59.6629 17.0739 59.4882 16.6053 59.4882 16.0075C59.4882 15.442 59.6706 14.9815 60.0355 14.6261C60.4082 14.2706 60.8779 14.0929 61.4447 14.0929Z" fill="white"/>
<path d="M84.8533 0C87.959 0 90.2804 0.735141 91.8177 2.20542C93.3627 3.66763 94.1353 5.79631 94.1353 8.59146C94.1353 10.393 93.7587 11.9683 93.0056 13.3174C92.2525 14.6665 91.1616 15.7126 89.733 16.4559C88.3122 17.1991 86.6158 17.5707 84.6437 17.5707H77.493V17.0739C78.0132 17.0415 78.3975 16.9769 78.646 16.88C78.8944 16.775 79.0614 16.5851 79.1468 16.3104C79.2322 16.0277 79.2749 15.5713 79.2749 14.9411V2.62954C79.2749 1.99942 79.2322 1.54703 79.1468 1.27236C79.0614 0.989613 78.8944 0.799769 78.646 0.702827C78.3975 0.597807 78.0132 0.52914 77.493 0.496826V0H84.8533ZM84.83 0.448355C84.3409 0.448355 83.9721 0.508944 83.7237 0.630121C83.4752 0.74322 83.3044 0.949221 83.2112 1.24812C83.1181 1.53895 83.0715 1.98327 83.0715 2.58107V14.9896C83.0715 15.5874 83.1181 16.0358 83.2112 16.3347C83.3044 16.6255 83.4752 16.8315 83.7237 16.9527C83.9721 17.0658 84.3487 17.1223 84.8533 17.1223C86.7788 17.1223 88.1453 16.4235 88.9528 15.026C89.768 13.6284 90.1756 11.5159 90.1756 8.6884C90.1756 5.86093 89.7563 3.78073 88.9178 2.44778C88.0871 1.11483 86.7245 0.448355 84.83 0.448355Z" fill="white"/>
<path d="M114.178 0.496826C113.658 0.577611 113.274 0.718984 113.025 0.920946C112.777 1.11483 112.61 1.42989 112.524 1.86613C112.439 2.29429 112.396 2.92845 112.396 3.76861V10.3485C112.396 12.7155 112.07 14.4686 111.418 15.6076C110.983 16.3347 110.358 16.9042 109.543 17.3162C108.736 17.7201 107.746 17.9221 106.573 17.9221C104.725 17.9221 103.293 17.5061 102.276 16.674C101.546 16.06 101.053 15.2885 100.797 14.3595C100.548 13.4224 100.424 12.1096 100.424 10.4212V2.62954C100.424 1.99942 100.378 1.54703 100.284 1.27236C100.199 0.989613 100.032 0.799769 99.7836 0.702827C99.5352 0.597807 99.1508 0.52914 98.6307 0.496826V0H106.142V0.496826C105.568 0.52914 105.149 0.597807 104.885 0.702827C104.628 0.799769 104.45 0.989613 104.349 1.27236C104.256 1.54703 104.209 1.99942 104.209 2.62954V11.9844C104.209 13.7213 104.45 15.0017 104.931 15.8257C105.42 16.6417 106.278 17.0496 107.505 17.0496C109.097 17.0496 110.218 16.4922 110.871 15.3774C111.523 14.2626 111.849 12.6792 111.849 10.6272V4.07155C111.849 3.11021 111.791 2.39931 111.674 1.93883C111.566 1.47028 111.352 1.13503 111.034 0.933064C110.715 0.723024 110.215 0.577611 109.531 0.496826V0H114.178V0.496826Z" fill="white"/>
<path d="M125.778 0C128.883 0 131.205 0.735141 132.742 2.20542C134.287 3.66763 135.06 5.79631 135.06 8.59146C135.06 10.393 134.683 11.9683 133.93 13.3174C133.177 14.6665 132.086 15.7126 130.657 16.4559C129.237 17.1991 127.54 17.5707 125.568 17.5707H118.417V17.0739C118.938 17.0415 119.322 16.9769 119.57 16.88C119.819 16.775 119.986 16.5851 120.071 16.3104C120.156 16.0277 120.199 15.5713 120.199 14.9411V2.62954C120.199 1.99942 120.156 1.54703 120.071 1.27236C119.986 0.989613 119.819 0.799769 119.57 0.702827C119.322 0.597807 118.938 0.52914 118.417 0.496826V0H125.778ZM125.754 0.448355C125.265 0.448355 124.896 0.508944 124.648 0.630121C124.4 0.74322 124.229 0.949221 124.136 1.24812C124.042 1.53895 123.996 1.98327 123.996 2.58107V14.9896C123.996 15.5874 124.042 16.0358 124.136 16.3347C124.229 16.6255 124.4 16.8315 124.648 16.9527C124.896 17.0658 125.273 17.1223 125.778 17.1223C127.703 17.1223 129.07 16.4235 129.877 15.026C130.692 13.6284 131.1 11.5159 131.1 8.6884C131.1 5.86093 130.681 3.78073 129.842 2.44778C129.011 1.11483 127.649 0.448355 125.754 0.448355Z" fill="white"/>
<path d="M152.983 13.8021C152.983 15.3208 153.037 16.577 153.146 17.5707H139.916V17.0739C140.436 17.0415 140.821 16.9769 141.069 16.88C141.317 16.775 141.484 16.5851 141.57 16.3104C141.655 16.0277 141.698 15.5713 141.698 14.9411V2.62954C141.698 1.99942 141.655 1.54703 141.57 1.27236C141.484 0.989613 141.317 0.799769 141.069 0.702827C140.821 0.597807 140.436 0.52914 139.916 0.496826V0H152.668C152.56 1.37334 152.505 2.59723 152.505 3.67167C152.505 4.39873 152.529 4.96018 152.575 5.35603H152.028C151.787 3.58684 151.356 2.3468 150.735 1.63589C150.122 0.924986 149.248 0.569533 148.115 0.569533H147.137C146.647 0.569533 146.29 0.613964 146.065 0.702827C145.84 0.783612 145.689 0.945182 145.611 1.18754C145.533 1.42181 145.494 1.80554 145.494 2.33872V8.4824H146.251C147.098 8.4824 147.738 8.1633 148.173 7.5251C148.616 6.87882 148.922 6.10733 149.093 5.21062H149.64C149.594 5.90537 149.571 6.68494 149.571 7.54934V8.73687C149.571 9.57703 149.617 10.7525 149.71 12.2631H149.163C148.829 10.0739 147.859 8.97923 146.251 8.97923H145.494V15.232C145.494 15.7651 145.533 16.1529 145.611 16.3953C145.689 16.6295 145.84 16.7911 146.065 16.88C146.29 16.9608 146.647 17.0012 147.137 17.0012H148.313C149.439 17.0012 150.347 16.6013 151.038 15.8015C151.729 14.9937 152.218 13.6324 152.505 11.7178H153.053C153.006 12.2591 152.983 12.9538 152.983 13.8021Z" fill="white"/>
<path d="M160.32 14.0929C161.104 14.0929 161.671 14.3837 162.02 14.9654C162.176 15.2158 162.3 15.5228 162.393 15.8863C162.494 16.2499 162.544 16.6295 162.544 17.0254C162.544 17.8817 162.331 18.6572 161.904 19.352C161.485 20.0467 160.863 20.5961 160.04 21L159.819 20.5516C160.285 20.3497 160.689 20.0427 161.03 19.6307C161.372 19.2187 161.574 18.7986 161.636 18.3705C161.683 18.1685 161.706 17.9746 161.706 17.7888C161.706 17.6272 161.683 17.4737 161.636 17.3283C161.287 17.7242 160.825 17.9221 160.25 17.9221C159.691 17.9221 159.237 17.7525 158.887 17.4132C158.538 17.0739 158.363 16.6053 158.363 16.0075C158.363 15.442 158.546 14.9815 158.911 14.6261C159.283 14.2706 159.753 14.0929 160.32 14.0929Z" fill="white"/>
<path d="M181.947 2.62954V8.73687H182.972C184.276 8.73687 185.169 8.37738 185.65 7.6584C186.139 6.93941 186.384 5.92556 186.384 4.61685C186.384 3.25967 186.151 2.2337 185.685 1.53895C185.227 0.844201 184.474 0.496826 183.426 0.496826C182.999 0.496826 182.684 0.557415 182.482 0.678592C182.281 0.791691 182.141 0.997692 182.063 1.2966C181.986 1.58742 181.947 2.03174 181.947 2.62954ZM187.246 17.5707C186.399 14.5816 185.732 12.4449 185.243 11.1604C184.761 9.87594 184.179 9.2337 183.496 9.2337H181.947V14.9411C181.947 15.5713 181.989 16.0277 182.075 16.3104C182.16 16.5851 182.323 16.775 182.564 16.88C182.805 16.9769 183.193 17.0415 183.729 17.0739V17.5707H176.368V17.0739C176.888 17.0415 177.273 16.9769 177.521 16.88C177.77 16.775 177.937 16.5851 178.022 16.3104C178.107 16.0277 178.15 15.5713 178.15 14.9411V2.62954C178.15 1.99942 178.107 1.54703 178.022 1.27236C177.937 0.989613 177.77 0.799769 177.521 0.702827C177.273 0.597807 176.888 0.52914 176.368 0.496826V0H183.729C185.926 0.016157 187.576 0.395845 188.678 1.13907C189.788 1.88228 190.344 2.94864 190.344 4.33814C190.344 5.5176 189.928 6.55568 189.097 7.45239C188.274 8.34103 186.908 8.90248 184.998 9.13676C186.427 9.26601 187.521 9.66994 188.282 10.3485C189.043 11.0271 189.676 12.1621 190.18 13.7536C190.693 15.337 191.077 16.2458 191.333 16.4801C191.59 16.7144 191.916 16.9123 192.312 17.0739V17.5707H187.246Z" fill="white"/>
<path d="M211.05 0.496826C210.53 0.577611 210.146 0.718984 209.897 0.920946C209.649 1.11483 209.482 1.42989 209.397 1.86613C209.311 2.29429 209.268 2.92845 209.268 3.76861V10.3485C209.268 12.7155 208.942 14.4686 208.29 15.6076C207.855 16.3347 207.23 16.9042 206.415 17.3162C205.608 17.7201 204.618 17.9221 203.445 17.9221C201.598 17.9221 200.165 17.5061 199.148 16.674C198.418 16.06 197.925 15.2885 197.669 14.3595C197.42 13.4224 197.296 12.1096 197.296 10.4212V2.62954C197.296 1.99942 197.25 1.54703 197.156 1.27236C197.071 0.989613 196.904 0.799769 196.656 0.702827C196.407 0.597807 196.023 0.52914 195.503 0.496826V0H203.014V0.496826C202.44 0.52914 202.021 0.597807 201.757 0.702827C201.5 0.799769 201.322 0.989613 201.221 1.27236C201.128 1.54703 201.081 1.99942 201.081 2.62954V11.9844C201.081 13.7213 201.322 15.0017 201.803 15.8257C202.292 16.6417 203.15 17.0496 204.377 17.0496C205.969 17.0496 207.091 16.4922 207.743 15.3774C208.395 14.2626 208.721 12.6792 208.721 10.6272V4.07155C208.721 3.11021 208.663 2.39931 208.546 1.93883C208.438 1.47028 208.224 1.13503 207.906 0.933064C207.587 0.723024 207.087 0.577611 206.403 0.496826V0H211.05V0.496826Z" fill="white"/>
<path d="M231 0.496826C230.48 0.577611 230.095 0.718984 229.847 0.920946C229.599 1.11483 229.432 1.42989 229.346 1.86613C229.261 2.29429 229.218 2.92845 229.218 3.76861V17.6192H227.995L217.642 3.97461V13.4991C217.642 14.4766 217.689 15.1956 217.782 15.6561C217.883 16.1085 218.092 16.4397 218.411 16.6497C218.729 16.8517 219.245 16.9931 219.96 17.0739V17.5707H215.313V17.0739C215.833 16.9931 216.217 16.8557 216.466 16.6619C216.714 16.4599 216.881 16.1448 216.966 15.7167C217.052 15.2804 217.095 14.6422 217.095 13.8021V2.62954C217.095 1.99942 217.052 1.54703 216.966 1.27236C216.881 0.989613 216.714 0.799769 216.466 0.702827C216.217 0.597807 215.833 0.52914 215.313 0.496826V0H219.435L228.671 11.839V4.07155C228.671 3.09406 228.62 2.37911 228.519 1.92672C228.426 1.46624 228.22 1.13503 227.902 0.933064C227.584 0.723024 227.068 0.577611 226.353 0.496826V0H231V0.496826Z" fill="white"/>
</svg>
