<svg xmlns="http://www.w3.org/2000/svg" xmlns:xlink="http://www.w3.org/1999/xlink" preserveAspectRatio="xMidYMid" width="82" height="69" viewBox="0 0 82 69">
  <defs>
    <style>

      .cls-2 {
        fill: #ffffff;
      }
    </style>
  </defs>
  <path d="M32.610,41.084 C30.255,37.978 27.105,36.240 23.153,35.861 C23.528,30.214 25.032,25.464 27.670,21.604 C30.303,17.748 33.784,14.219 38.116,11.017 C38.116,11.017 29.646,0.007 29.646,0.007 C25.879,1.700 22.209,4.100 18.636,7.206 C15.058,10.311 11.904,13.840 9.178,17.793 C6.447,21.745 4.237,26.121 2.543,30.920 C0.850,35.720 0.003,40.757 0.003,46.024 C0.003,48.662 0.329,51.296 0.991,53.929 C1.648,56.567 2.729,58.967 4.237,61.128 C5.742,63.294 7.718,65.081 10.166,66.492 C12.610,67.904 15.623,68.610 19.200,68.610 C24.467,68.610 28.609,66.916 31.622,63.528 C34.631,60.140 36.139,56.377 36.139,52.235 C36.139,47.908 34.962,44.189 32.610,41.084 ZM75.523,41.084 C73.167,37.978 70.017,36.240 66.065,35.861 C66.440,30.214 67.944,25.464 70.582,21.604 C73.216,17.748 76.696,14.219 81.028,11.017 C81.028,11.017 72.558,0.007 72.558,0.007 C68.791,1.700 65.121,4.100 61.548,7.206 C57.970,10.311 54.816,13.840 52.090,17.793 C49.360,21.745 47.150,26.121 45.456,30.920 C43.762,35.720 42.915,40.757 42.915,46.024 C42.915,48.662 43.241,51.296 43.903,53.929 C44.560,56.567 45.641,58.967 47.150,61.128 C48.654,63.294 50.630,65.081 53.078,66.492 C55.522,67.904 58.535,68.610 62.113,68.610 C67.380,68.610 71.522,66.916 74.534,63.528 C77.543,60.140 79.052,56.377 79.052,52.235 C79.052,47.908 77.874,44.189 75.523,41.084 Z" id="path-1" class="cls-2" fill-rule="evenodd"/>
</svg>
