<svg xmlns="http://www.w3.org/2000/svg" xmlns:xlink="http://www.w3.org/1999/xlink" preserveAspectRatio="xMidYMid" width="19" height="19" viewBox="0 0 19 19">
  <defs>
    <style>

      .cls-2 {
        fill: #bb292e;
      }
    </style>
  </defs>
  <path d="M3.347,2.233 C-0.665,5.615 -1.177,11.608 2.204,15.620 C5.585,19.632 11.578,20.144 15.590,16.762 C19.602,13.382 20.114,7.389 16.733,3.376 C13.352,-0.636 7.359,-1.147 3.347,2.233 ZM4.002,14.105 C1.709,11.385 1.795,7.453 4.044,4.841 C4.044,4.841 13.139,15.634 13.139,15.634 C10.183,17.407 6.294,16.826 4.002,14.105 ZM14.894,14.155 C14.894,14.155 5.798,3.363 5.798,3.363 C8.754,1.589 12.643,2.170 14.936,4.891 C17.229,7.612 17.142,11.542 14.894,14.155 Z" id="path-1" class="cls-2" fill-rule="evenodd"/>
</svg>
