<svg xmlns="http://www.w3.org/2000/svg" width="360" height="140" viewBox="0 0 360 140">
    <g fill="none" fill-rule="evenodd">
        <path fill="#05A2D3" fill-rule="nonzero" d="M335.005 55.546c-1.035-4.925-3.56-11.455-5.513-14.548-4.25-2.52-7.81-2.863-13.093-2.863h-5.17v60.023c0 1.602.346 1.602 2.987 2.176l7.58 1.489v3.321h-34.343v-3.321l7.352-1.489c2.757-.574 3.102-.574 3.102-2.176V38.135h-4.02c-7.006 0-12.289 1.488-14.242 2.749-2.183 3.207-4.366 9.623-5.514 14.548h-3.1l.803-22.795c2.297.916 6.317 1.489 10.566 1.489h45.597c2.413 0 7.697-.573 9.42-1.375l.805 22.795h-3.217zM249.258 140H360V0H249.258v140z"/>
        <path fill="#231F20" d="M218.55 37.447l-6.776 1.146c-1.38.228-2.298.686-2.298 2.635-.115 2.405-.574 6.758-.574 11.912v53.378h-3.791L157.207 46.84v39.29c0 4.351.46 9.85.69 12.028.23 1.488.574 2.06 2.068 2.29l9.306 1.375v3.321h-27.343v-3.321l6.894-1.146c1.493-.229 1.838-.8 2.067-2.291.115-2.29.689-7.789.689-12.142V41.342c0-1.833-.458-1.833-3.33-2.52l-5.63-1.261v-3.435h19.988l40.78 50.858V53.37c0-4.812-.343-9.28-.688-11.8-.114-1.374-.574-2.519-2.181-2.749l-9.306-1.374v-3.321h27.34v3.32zM124.454 140h110.742V0H124.453v140z"/>
        <path fill="#05A2D3" fill-rule="nonzero" d="M95.516 37.219l-5.686 1.488c-2.156.572-2.45.916-2.45 2.405v57.046c0 1.602.294 1.946 2.548 2.404l5.588 1.26v3.322h-25.88v-3.321l4.705-1.146c2.254-.573 2.648-.917 2.648-2.52V46.727L52.48 105.03h-.39L28.368 48.558v37.916c0 2.979.098 8.36.293 10.767.198 1.833.491 3.321 2.059 3.551l6.764 1.145v3.207H14.447v-3.207l6.569-1.145c1.86-.344 2.156-1.604 2.254-3.322.195-2.635.391-7.905.391-10.882v-45.36c0-1.375-.293-1.833-3.039-2.521l-5.194-1.374V34.01H33.17l22.057 52.921 22.25-52.806h18.039v3.093zM0 140h110.742V0H0v140z"/>
    </g>
</svg>
