<svg width="21" height="21" viewBox="0 0 21 21" fill="none" xmlns="http://www.w3.org/2000/svg">
<path d="M5.87315 10.2671H7.55118V11.9338H5.87315V10.2671ZM17.6193 5.26711V16.9338C17.6193 17.3758 17.4426 17.7997 17.1279 18.1123C16.8132 18.4248 16.3864 18.6004 15.9413 18.6004H4.19512C3.75008 18.6004 3.32326 18.4248 3.00857 18.1123C2.69388 17.7997 2.51709 17.3758 2.51709 16.9338V5.26711C2.51709 4.82508 2.69388 4.40116 3.00857 4.0886C3.32326 3.77604 3.75008 3.60044 4.19512 3.60044H5.03413V1.93378H6.71216V3.60044H13.4243V1.93378H15.1023V3.60044H15.9413C16.3864 3.60044 16.8132 3.77604 17.1279 4.0886C17.4426 4.40116 17.6193 4.82508 17.6193 5.26711ZM4.19512 6.93378H15.9413V5.26711H4.19512V6.93378ZM15.9413 16.9338V8.60044H4.19512V16.9338H15.9413ZM12.5853 11.9338V10.2671H14.2633V11.9338H12.5853ZM9.2292 11.9338V10.2671H10.9072V11.9338H9.2292ZM5.87315 13.6004H7.55118V15.2671H5.87315V13.6004ZM12.5853 15.2671V13.6004H14.2633V15.2671H12.5853ZM9.2292 15.2671V13.6004H10.9072V15.2671H9.2292Z" fill="#04C4D0"/>
</svg>
