<svg width="22" height="21" viewBox="0 0 22 21" fill="none" xmlns="http://www.w3.org/2000/svg">
<g clip-path="url(#clip0)">
<path d="M1.00042 8.43506C0.941428 8.90381 0.9021 9.38037 0.9021 9.86475C0.9021 14.1226 3.25003 17.8296 6.72669 19.7944L7.37562 18.4351V9.1499L6.6559 8.43506H1.00042ZM21.0384 9.1499C21.0384 8.43506 20.3187 7.72021 19.599 7.72021H13.8452C14.2031 6.29053 14.5649 4.86475 14.5649 4.1499C14.5649 2.72021 13.8452 1.29443 13.4873 0.935059C13.4794 0.927246 13.1294 0.57959 12.4097 0.57959C11.3321 0.57959 11.3321 1.6499 11.3321 1.6499C11.3321 1.66943 10.9742 3.43506 10.9742 4.1499C10.9742 4.86475 9.53477 7.72022 8.81505 8.43506L8.09533 8.79053V18.7905L8.81505 19.146H16.7241C18.1635 19.146 18.8832 18.4312 18.8832 17.7163C18.8832 17.0015 18.1635 16.2866 17.4438 16.2866C18.8832 16.2866 19.6029 15.5718 19.6029 14.8569C19.6029 14.1421 18.8832 13.4272 18.1635 13.4272C19.6029 13.4272 20.3227 12.7124 20.3227 11.9976C20.3227 11.2827 19.6029 10.5679 18.8832 10.5679C20.3187 10.5796 21.0384 9.86475 21.0384 9.1499Z" fill="#04C4D0"/>
</g>
<defs>
<clipPath id="clip0">
<rect width="20.1363" height="20" fill="white" transform="translate(0.9021 0.26709)"/>
</clipPath>
</defs>
</svg>
