<svg width="21" height="19" viewBox="0 0 21 19" fill="none" xmlns="http://www.w3.org/2000/svg">
<g clip-path="url(#clip0)">
<path d="M20.2077 8.75381C18.3118 5.03393 14.5586 2.51709 10.2611 2.51709C5.96364 2.51709 2.2094 5.03568 0.314631 8.75416C0.23466 8.91325 0.192993 9.08901 0.192993 9.26727C0.192993 9.44552 0.23466 9.62129 0.314631 9.78037C2.21045 13.5003 5.96364 16.0171 10.2611 16.0171C14.5586 16.0171 18.3129 13.4985 20.2077 9.78002C20.2876 9.62093 20.3293 9.44517 20.3293 9.26691C20.3293 9.08866 20.2876 8.91289 20.2077 8.75381ZM10.2611 14.3296C9.2655 14.3296 8.29221 14.0327 7.46436 13.4764C6.63651 12.9201 5.99127 12.1295 5.61026 11.2044C5.22924 10.2794 5.12955 9.26147 5.32379 8.27945C5.51803 7.29742 5.99748 6.39536 6.70151 5.68736C7.40554 4.97936 8.30253 4.4972 9.27904 4.30186C10.2556 4.10653 11.2677 4.20678 12.1876 4.58995C13.1075 4.97312 13.8937 5.62199 14.4468 6.45452C15 7.28704 15.2952 8.26582 15.2952 9.26709C15.2956 9.932 15.1656 10.5905 14.9127 11.2048C14.6598 11.8192 14.289 12.3774 13.8215 12.8475C13.354 13.3177 12.7989 13.6906 12.188 13.9449C11.5771 14.1992 10.9223 14.3299 10.2611 14.3296ZM10.2611 5.89209C9.96159 5.8963 9.66397 5.94112 9.37633 6.02533C9.61343 6.34936 9.72721 6.7481 9.69703 7.14926C9.66686 7.55041 9.49472 7.92741 9.21185 8.21187C8.92898 8.49634 8.5541 8.66945 8.1552 8.69979C7.7563 8.73014 7.35979 8.61572 7.03758 8.37729C6.85411 9.05706 6.88723 9.77759 7.13228 10.4374C7.37733 11.0973 7.82198 11.6633 8.40364 12.0557C8.9853 12.4481 9.67468 12.6472 10.3747 12.6249C11.0748 12.6027 11.7503 12.3602 12.3062 11.9317C12.8621 11.5031 13.2703 10.9101 13.4735 10.236C13.6766 9.5619 13.6644 8.84071 13.4387 8.17393C13.2129 7.50716 12.7849 6.92837 12.2149 6.51903C11.6449 6.1097 10.9616 5.89043 10.2611 5.89209Z" fill="#04C4D0"/>
</g>
<defs>
<clipPath id="clip0">
<rect width="20.1363" height="18" fill="white" transform="translate(0.192993 0.26709)"/>
</clipPath>
</defs>
</svg>
