<?xml version="1.0" encoding="utf-8"?>
<!-- Generator: Adobe Illustrator 26.2.1, SVG Export Plug-In . SVG Version: 6.00 Build 0)  -->
<svg version="1.1" id="Capa_1" xmlns="http://www.w3.org/2000/svg" xmlns:xlink="http://www.w3.org/1999/xlink" x="0px" y="0px"
	 viewBox="0 0 238.6 34.2" style="enable-background:new 0 0 238.6 34.2;" xml:space="preserve">
<style type="text/css">
	.st0{fill:#004F9F;}
	.st1{fill:#1E1E1C;}
</style>
<path class="st0" d="M215.1,0.7c-1.1-0.2-2.3-0.3-3.4-0.3c0.1,0,0.3,0,0.5,0.1c14.4,2.1,25.1,11.6,23.7,21.2
	c-0.7,4.9-4.4,9-9.9,11.4c6.5-2.2,11.1-6.5,11.8-11.9C239.1,11.8,229,2.7,215.1,0.7z"/>
<g>
	<rect x="54" y="8.2" class="st1" width="4.8" height="25"/>
	<path class="st1" d="M80.6,23v10.2h-4.5v-10c0-2.9,0.1-5.1-3.2-5.1c-1.3,0-2.8,0.5-4.7,1.6v13.5h-4.5v-18h2.8l0.8,1.9
		c2.3-1.5,4.5-2.5,7.2-2.5C79.9,14.5,80.6,17.8,80.6,23"/>
	<path class="st1" d="M85,15.2v-4.2h4.5v4.1h4.1v3h-4.1v6.7c0,4.4-0.3,6.5,5.2,5.6l0.4,2.9c-1.5,0.3-2.8,0.5-4,0.5
		c-4.2,0-6.1-2.1-6.1-8.2v-7.4"/>
	<path class="st1" d="M108.6,15l-0.4,3.3c-2.5-0.3-4.5,0.3-6.5,2v12.8h-4.5v-18h2.8l1,2.4C103.2,15.3,105.3,13.9,108.6,15"/>
	<path class="st1" d="M124.9,21.3v11.8h-2.8l-0.7-1.5c-1.9,1.2-4.3,2.2-6.8,2.1c-3-0.1-5.4-2-5.4-5.9c0-4.3,2.1-5.8,8.6-5.7l2.8,0.1
		v-0.6c0-2.8-0.2-3.9-3.1-4c-1.6,0-3.9,0.2-6,0.7l-0.4-2.8c1.7-0.6,4.6-1.1,7.1-1.1C123.2,14.6,124.9,16.8,124.9,21.3 M116.8,30.6
		c1.2,0,2.5-0.5,3.8-1.1v-4.3c-2.8-0.2-4.9-0.2-6.2,0.4c-0.3,0.8-0.4,1.6-0.4,2.2C113.9,29.7,114.9,30.6,116.8,30.6"/>
	<polygon class="st1" points="130.7,8.3 131.9,8.3 141.2,26.9 150.7,8.3 151.8,8.3 153.9,33.2 152,33.2 150.3,12.8 141.5,30 
		140.8,30 132.1,13 130.4,33.2 128.5,33.2 	"/>
	<path class="st1" d="M156.9,24.2c0-5.8,2.3-9.5,8.2-9.4c5.2,0.1,7.2,3.5,6,9.8h-12.2c0.1,5.3,1.9,7.6,6.6,7.6
		c1.8,0,3.6-0.6,4.9-1.2l0.5,1.3c-1.3,0.7-3.1,1.5-5.3,1.5C159.1,33.7,156.9,29.9,156.9,24.2 M169.5,23.2c0.5-3.6-0.2-6.8-4.4-6.8
		c-2.2,0-4.1,0.6-5.1,1.4c-0.6,1.1-0.9,3.1-1,5.4H169.5z"/>
	<path class="st1" d="M189,6.9v26.2h-0.9l-0.4-1.3c-1.9,1-3.5,1.8-6.3,1.8c-5,0-7.3-3.3-7.3-9.1c0-5.8,2.2-9.8,7.6-9.8
		c2.7,0,4.3,0.6,5.5,1.1v-9H189z M181.5,32.1c2.6,0,3.9-0.6,5.7-1.4V17.4c-1.3-0.6-3.1-1-5.4-1c-2.1,0-3.6,0.5-4.6,1.3
		c-0.8,1.4-1.1,3.8-1.1,6.6C176,29.6,177.4,32.1,181.5,32.1"/>
	<path class="st0" d="M24.1,13c2.1,0.5,4,1.7,5.4,3.5c2.8,3.9,1.7,9.1-2.5,11.7c-0.1,0.1-0.3,0.2-0.4,0.2c-4,2.4-8.3,3.9-12.7,4.4
		c1.4,0.2,2.9,0.3,4.4,0.3c11.8,0,22.9-5.5,24.8-12.4c1-3.6-0.8-6.9-4.5-9.2C33.9,11,28.9,11.4,24.1,13"/>
	<path class="st0" d="M19.8,29.5c-2.1-0.5-4-1.7-5.4-3.5c-2.8-3.9-1.7-9.1,2.5-11.7c0.1-0.1,0.3-0.2,0.4-0.2
		c4.8-2.9,10.2-4.4,15.6-4.7c-2.2-0.5-4.8-0.9-7.5-0.9C13.6,8.5,2.5,14,0.6,20.8C-0.6,25.1,2,28.8,7,31
		C11.2,31.4,15.6,30.9,19.8,29.5"/>
</g>
<g>
	<path class="st0" d="M203.3,21.9l3.9-4.9c1.8-2.2,3.2-4,3.3-5.6c0-1.5-1.2-2.2-2.7-2.2c-1.1,0-2.4,0.2-3.6,0.6l-0.2-2.1
		c1.2-0.4,3-0.8,4.9-0.7c3.2,0.1,4.8,1.6,4.8,3.8c0,2.2-1.7,4.2-3.8,6.9l-2.4,3.1h5.9V23h-9.9L203.3,21.9L203.3,21.9z"/>
	<path class="st0" d="M215.2,22.6l0.2-2c1.1,0.4,2.2,0.6,3.3,0.6c1.1,0,2.3-0.1,2.9-0.4c0.4-0.5,0.5-1.3,0.5-2.2
		c0-2.1-0.7-2.9-2.9-2.9l-2.7,0.1l-1.2-1l1-7.3h7.7v2.1h-5.4l-0.5,3.9l1.7,0c3.6,0,5.1,1.6,5.2,4.8c0,3.4-2.3,5-5.5,5
		C218.1,23.4,216.7,23.2,215.2,22.6z"/>
</g>
<g>
	<path class="st0" d="M208.1,29.4v3.8h-0.5l-0.2-0.6c-0.6,0.4-1.3,0.8-2.1,0.7c-0.9,0-1.7-0.5-1.7-1.8c0-1.2,0.6-1.7,2.6-1.6
		c0.3,0,0.7,0,1,0v-0.5c0-0.9-0.1-1.3-1.2-1.3c-0.6,0-1.3,0.1-1.8,0.3l-0.1-0.5c0.5-0.2,1.2-0.4,2-0.4
		C207.7,27.5,208.1,28.1,208.1,29.4z M205.6,32.7c0.6,0,1.2-0.2,1.7-0.6v-1.6c-1.3-0.1-2.1-0.1-2.6,0.2c-0.2,0.3-0.2,0.6-0.2,0.8
		C204.5,32.4,204.9,32.7,205.6,32.7z"/>
	<path class="st0" d="M214.5,30.3v2.9h-0.8v-2.9c0-1.4,0-2.1-1.2-2.1c-0.5,0-1.2,0.2-1.8,0.6v4.4h-0.9v-5.5h0.5l0.2,0.6
		c0.7-0.5,1.5-0.8,2.3-0.8C214.5,27.5,214.5,28.7,214.5,30.3z M210.6,26.5c-0.2-1,0.5-1.4,1.5-1c0.5,0.2,1.2,0.6,1.2-0.2h0.4
		c0.2,1-0.5,1.4-1.5,1c-0.5-0.2-1.2-0.6-1.2,0.2L210.6,26.5L210.6,26.5z"/>
	<path class="st0" d="M215.8,30.4c0-1.8,0.7-2.9,2.6-2.9c1.9,0,2.6,1.1,2.6,2.9s-0.7,2.9-2.6,2.9C216.5,33.4,215.8,32.2,215.8,30.4z
		 M219.8,32.3c0.2-0.4,0.3-1,0.3-1.9c0-1.6-0.5-2.3-1.7-2.3c-0.6,0-1.1,0.1-1.4,0.4c-0.2,0.4-0.3,1-0.3,1.9c0,1.6,0.5,2.3,1.7,2.3
		C218.9,32.8,219.5,32.6,219.8,32.3z"/>
	<path class="st0" d="M221.9,33l0.1-0.6c0.5,0.2,1.1,0.3,1.7,0.3c0.5,0,0.9-0.1,1.2-0.3c0.1-0.2,0.1-0.4,0.1-0.6
		c0-0.5-0.4-0.8-1.3-1.1c-0.9-0.3-1.8-0.6-1.8-1.7c0-1,0.9-1.5,2-1.5c0.6,0,1.2,0.1,1.7,0.3l-0.1,0.5c-0.4-0.2-1-0.2-1.5-0.2
		c-0.4,0-0.9,0.1-1.1,0.3c-0.1,0.2-0.1,0.4-0.1,0.6c0,0.7,0.6,0.9,1.4,1.1c1.3,0.4,1.7,1,1.7,1.7c0,1-0.9,1.5-2,1.5
		C223.2,33.4,222.5,33.2,221.9,33z"/>
</g>
</svg>
