<svg width="14" height="14" viewBox="0 0 14 14" fill="none" xmlns="http://www.w3.org/2000/svg">
<path d="M8.53126 0.391487C8.59625 0.352074 8.66937 0.327998 8.74507 0.321088C8.82076 0.314179 8.89704 0.324619 8.96809 0.351614C9.03915 0.378609 9.10311 0.421449 9.15513 0.476877C9.20714 0.532304 9.24583 0.598861 9.26826 0.671487L9.63826 1.86649C9.67046 1.97051 9.73574 2.06119 9.82418 2.12472C9.91263 2.18826 10.0194 2.22118 10.1283 2.21849L11.3783 2.18849C11.4543 2.18662 11.5297 2.20212 11.5989 2.23381C11.668 2.2655 11.729 2.31255 11.7772 2.37137C11.8255 2.43019 11.8596 2.49924 11.8771 2.57325C11.8946 2.64727 11.895 2.7243 11.8783 2.79849L11.6003 4.01849C11.5761 4.12466 11.5872 4.23584 11.632 4.33511C11.6767 4.43438 11.7527 4.51632 11.8483 4.56849L12.9473 5.16649C13.0143 5.20293 13.072 5.25421 13.1162 5.31642C13.1603 5.37862 13.1896 5.45009 13.2019 5.52537C13.2141 5.60065 13.209 5.67773 13.1869 5.75072C13.1648 5.82371 13.1262 5.89067 13.0743 5.94649L12.2243 6.86349C12.1503 6.94334 12.1045 7.04514 12.0936 7.15342C12.0828 7.26171 12.1076 7.37057 12.1643 7.46349L12.8163 8.53149C12.8559 8.59651 12.8801 8.66972 12.8871 8.74554C12.8941 8.82135 12.8837 8.89777 12.8567 8.96896C12.8297 9.04014 12.7868 9.10422 12.7313 9.1563C12.6757 9.20839 12.609 9.2471 12.5363 9.26949L11.3413 9.63949C11.2372 9.67169 11.1466 9.73697 11.083 9.82541C11.0195 9.91386 10.9866 10.0206 10.9893 10.1295L11.0203 11.3795C11.0221 11.4555 11.0066 11.531 10.9749 11.6001C10.9432 11.6693 10.8962 11.7303 10.8374 11.7785C10.7786 11.8267 10.7095 11.8608 10.6355 11.8783C10.5615 11.8959 10.4844 11.8962 10.4103 11.8795L9.19026 11.6015C9.08408 11.5773 8.97291 11.5884 8.87364 11.6332C8.77436 11.6779 8.69242 11.7539 8.64026 11.8495L8.04026 12.9485C8.00376 13.0151 7.95255 13.0726 7.89051 13.1165C7.82847 13.1604 7.75725 13.1896 7.68225 13.2018C7.60724 13.2141 7.53043 13.2091 7.45766 13.1872C7.38488 13.1653 7.31806 13.1271 7.26226 13.0755L6.34526 12.2255C6.26533 12.1513 6.16334 12.1053 6.05484 12.0945C5.94634 12.0837 5.83727 12.1086 5.74426 12.1655L4.67626 12.8175C4.61123 12.8571 4.53802 12.8813 4.4622 12.8883C4.38639 12.8954 4.30997 12.885 4.23879 12.858C4.1676 12.8309 4.10352 12.788 4.05144 12.7325C3.99936 12.677 3.96064 12.6103 3.93826 12.5375L3.56826 11.3425C3.53606 11.2385 3.47077 11.1478 3.38233 11.0843C3.29389 11.0207 3.18712 10.9878 3.07826 10.9905L1.82826 11.0215C1.75222 11.0234 1.67677 11.0079 1.60763 10.9762C1.53849 10.9445 1.47749 10.8974 1.42928 10.8386C1.38106 10.7798 1.3469 10.7107 1.3294 10.6367C1.31189 10.5627 1.3115 10.4857 1.32826 10.4115L1.60626 9.19149C1.63045 9.08531 1.61932 8.97414 1.57456 8.87487C1.5298 8.77559 1.45385 8.69365 1.35826 8.64149L0.261257 8.04149C0.194543 8.00523 0.136963 7.95426 0.0928835 7.89244C0.0488043 7.83061 0.019384 7.75956 0.00685463 7.68468C-0.00567478 7.60979 -0.000984248 7.53303 0.0205704 7.46023C0.042125 7.38742 0.0799776 7.32048 0.131257 7.26449L0.981257 6.34649C1.05519 6.26663 1.10105 6.16483 1.11188 6.05655C1.12271 5.94826 1.09791 5.8394 1.04126 5.74649L0.391257 4.67749C0.351635 4.61253 0.327361 4.53938 0.320285 4.46362C0.313209 4.38786 0.323517 4.31149 0.350424 4.24031C0.377331 4.16914 0.420127 4.10505 0.475553 4.05291C0.530978 4.00078 0.59757 3.96199 0.670257 3.93949L1.86526 3.56949C1.96928 3.53729 2.05996 3.472 2.12349 3.38356C2.18702 3.29512 2.21995 3.18835 2.21726 3.07949L2.18726 1.82949C2.18539 1.75345 2.20089 1.678 2.23258 1.60886C2.26427 1.53972 2.31132 1.47872 2.37014 1.43051C2.42896 1.38229 2.49801 1.34813 2.57202 1.33063C2.64604 1.31312 2.72307 1.31273 2.79726 1.32949L4.01726 1.60749C4.12343 1.63168 4.2346 1.62055 4.33388 1.57579C4.43315 1.53103 4.51509 1.45508 4.56726 1.35949L5.16626 0.260487C5.20273 0.193658 5.25397 0.13604 5.31609 0.092026C5.37821 0.0480122 5.44956 0.0187651 5.5247 0.0065151C5.59984 -0.00573493 5.67679 -0.000664376 5.74967 0.0213401C5.82255 0.0433445 5.88945 0.0817017 5.94526 0.133487L6.86226 0.983487C6.94211 1.05742 7.04391 1.10328 7.15219 1.11411C7.26048 1.12494 7.36934 1.10014 7.46226 1.04349L8.53126 0.393487V0.391487Z" fill="#0075FF"/>
<path fill-rule="evenodd" clip-rule="evenodd" d="M9.38326 4.72648C9.47739 4.81985 9.53059 4.94678 9.53115 5.07936C9.53171 5.21194 9.4796 5.33932 9.38626 5.43348L5.55626 9.29148L3.17626 6.89748C3.08277 6.80333 3.03051 6.67589 3.03098 6.54321C3.03145 6.41053 3.0846 6.28347 3.17876 6.18998C3.27291 6.09649 3.40034 6.04423 3.53302 6.0447C3.66571 6.04517 3.79277 6.09833 3.88626 6.19248L5.55626 7.87248L8.67626 4.73048C8.76962 4.63635 8.89655 4.58315 9.02914 4.58259C9.16172 4.58202 9.2891 4.63414 9.38326 4.72748V4.72648Z" fill="white"/>
</svg>
