<svg width="32" height="29" viewBox="0 0 32 29" fill="none" xmlns="http://www.w3.org/2000/svg">
<path d="M21.9013 0H3.97369C1.78238 0 0 1.74914 0 3.89889V25.1014C0 27.2509 1.78238 29 3.97369 29H21.9013C22.3242 29 22.712 28.769 22.9107 28.3985C23.1089 28.0293 23.0849 27.5804 22.8482 27.2342C21.8554 25.7792 21.8554 24.4246 22.8482 22.9696C22.9633 22.776 23.0362 22.5599 23.0441 22.336V1.13224C23.0441 0.506476 22.5324 6.41698e-06 21.9013 6.41698e-06L21.9013 0ZM20.7584 21.2038H7.19259V2.26446H20.7584V21.2038ZM3.97369 2.26446H4.90606V21.2038H3.97369C3.36784 21.2038 2.79996 21.3478 2.28568 21.5864V3.89902C2.28568 2.99777 3.04283 2.2646 3.97369 2.2646V2.26446ZM20.0747 26.7355H3.97369C3.04283 26.7355 2.28568 26.0024 2.28568 25.1011C2.28568 24.2012 3.04283 23.468 3.97369 23.468L20.0747 23.4682C19.7293 24.5527 19.7293 25.6508 20.0747 26.7355V26.7355Z" fill="#0075FF"/>
<path d="M10.4879 8.75357H17.4638C18.0949 8.75357 18.6066 8.2471 18.6066 7.62134C18.6066 6.99558 18.0949 6.48911 17.4638 6.48911H10.4879C9.85677 6.48911 9.34505 6.99558 9.34505 7.62134C9.34505 8.2471 9.85677 8.75357 10.4879 8.75357Z" fill="#0075FF"/>
<path d="M30.1095 9.83728H27.0743C26.032 9.83728 25.1838 10.6776 25.1838 11.7102V24.0231C25.1838 24.2233 25.2374 24.4211 25.3394 24.5935L27.6049 28.438C27.8103 28.7863 28.1858 28.9999 28.5921 28.9999C28.9982 28.9999 29.3745 28.7866 29.5793 28.438L31.8444 24.5935C31.9464 24.4211 32 24.2233 32 24.0231V11.7102C32 10.6776 31.1518 9.83728 30.1095 9.83728H30.1095ZM29.7144 12.1017V13.3313H27.4695V12.1017H29.7144ZM28.5922 25.6219L27.4695 23.7168V15.5958H29.7144V23.7168L28.5922 25.6219Z" fill="#0075FF"/>
</svg>
