<svg width="21" height="20" viewBox="0 0 21 20" fill="none" xmlns="http://www.w3.org/2000/svg">
<path d="M11.3701 0.0939855C8.97736 -0.23516 6.54634 0.312537 4.52592 1.63594C2.5055 2.95935 1.03214 4.96909 0.377895 7.29405C-0.276351 9.61902 -0.067296 12.1022 0.966459 14.285C2.00021 16.4679 3.78885 18.203 6.0021 19.17C5.94224 18.4018 5.99718 17.629 6.1651 16.877C6.3501 16.038 7.4611 11.414 7.4611 11.414C7.23986 10.9181 7.1293 10.3799 7.1371 9.83699C7.1371 8.35199 7.9941 7.24399 9.0601 7.24399C9.2516 7.2412 9.44146 7.27968 9.61677 7.35682C9.79208 7.43395 9.94872 7.54793 10.076 7.69101C10.2034 7.83408 10.2984 8.0029 10.3547 8.18598C10.4109 8.36905 10.4271 8.5621 10.4021 8.75199C10.4021 9.65199 9.8241 11.014 9.5221 12.292C9.46241 12.5264 9.45862 12.7715 9.51104 13.0076C9.56345 13.2437 9.6706 13.4642 9.82385 13.6513C9.97711 13.8384 10.1722 13.9869 10.3933 14.0848C10.6145 14.1827 10.8555 14.2273 11.0971 14.215C12.9951 14.215 14.2671 11.784 14.2671 8.91399C14.2671 6.71399 12.8101 5.06599 10.1241 5.06599C9.48147 5.04101 8.84048 5.14691 8.24003 5.37724C7.63958 5.60757 7.09221 5.95753 6.63115 6.40587C6.17008 6.85422 5.80495 7.39159 5.55792 7.98536C5.31089 8.57913 5.18711 9.21691 5.1941 9.85999C5.16546 10.5733 5.3956 11.2729 5.8421 11.83C5.92553 11.8923 5.98645 11.98 6.01567 12.0799C6.04489 12.1798 6.04083 12.2866 6.0041 12.384C5.9581 12.568 5.8421 13.007 5.7961 13.168C5.78653 13.2226 5.76427 13.2742 5.73112 13.3186C5.69797 13.363 5.65484 13.399 5.60523 13.4238C5.55561 13.4485 5.50088 13.4612 5.44545 13.4609C5.39002 13.4606 5.33544 13.4472 5.2861 13.422C3.9021 12.868 3.2501 11.345 3.2501 9.60599C3.2501 6.75899 5.6341 3.35099 10.4041 3.35099C14.2001 3.35099 16.7241 6.12799 16.7241 9.09799C16.7241 13.007 14.5471 15.946 11.3301 15.946C10.8493 15.9614 10.3724 15.8552 9.94343 15.6375C9.51449 15.4197 9.1474 15.0972 8.8761 14.7C8.8761 14.7 8.2981 17.016 8.1841 17.454C7.95139 18.2107 7.608 18.9288 7.1651 19.585C8.0881 19.865 9.0471 20.005 10.0111 20.001C11.3247 20.002 12.6256 19.744 13.8393 19.2416C15.053 18.7391 16.1556 18.0023 17.0842 17.0731C18.0127 16.1439 18.7488 15.0407 19.2504 13.8267C19.7519 12.6126 20.0091 11.3116 20.0071 9.99799C20.0059 7.58298 19.1309 5.24998 17.5437 3.42976C15.9566 1.60955 13.7644 0.42505 11.3721 0.0949854L11.3701 0.0939855Z" fill="white"/>
</svg>
