<svg width="13" height="13" viewBox="0 0 13 13" fill="none" xmlns="http://www.w3.org/2000/svg">
<path d="M9.17133 0.999979L7.838 2.33331H1.33333V11.6666H10.6667V5.16198L12 3.82865V12.3333C12 12.5101 11.9298 12.6797 11.8047 12.8047C11.6797 12.9297 11.5101 13 11.3333 13H0.666667C0.489856 13 0.320286 12.9297 0.195262 12.8047C0.0702379 12.6797 0 12.5101 0 12.3333V1.66665C0 1.48983 0.0702379 1.32026 0.195262 1.19524C0.320286 1.07022 0.489856 0.999979 0.666667 0.999979H9.17133ZM11.6567 0.399979L12.6 1.34398L6.472 7.47198L5.53067 7.47398L5.52933 6.52931L11.6567 0.399979Z" fill="#6C757D"/>
</svg>
