<svg xmlns="http://www.w3.org/2000/svg" width="20" height="21" viewBox="0 0 20 21"><path fill-rule="evenodd" opacity=".302" fill="#8A8A8D" d="M7.177.936c.168 0 .407-.068.738-.163C8.743.537 9.994.179 12.42.179c3.359 0 5.651.321 5.915 1.887.076.457.077.85-.001 1.198.597.364 1.144.97 1.144 1.873 0 .494-.094.876-.23 1.171.409.4.751.97.751 1.708 0 .578-.165 1.031-.392 1.372.229.356.392.841.392 1.487 0 1.585-1.293 2.161-1.977 2.244a.855.855 0 01-.101.006h-4.284c.011.102.045.247.124.432.63 1.464.924 2.548.924 3.414 0 1.561-.791 3.142-2.303 3.142-1.035 0-1.192-.815-1.259-1.164l-.038-.191c-.088-.402-.665-1.947-1.746-3.367-1.191-1.565-1.853-2.554-2.975-4.317-.478-.75-1.003-1.229-1.586-1.459v1.362H0V.936h7.177zm.594 9.247c1.096 1.723 1.741 2.687 2.895 4.204 1.148 1.506 1.811 3.148 2.009 3.865.202-.284.343-.818.343-1.281 0-.616-.265-1.544-.789-2.76-.352-.82-.35-1.598.005-2.134a1.356 1.356 0 011.153-.614h4.463c.23-.047.483-.19.483-.588 0-.46-.146-.65-.177-.673a.822.822 0 01-.599-.732.854.854 0 01.484-.836c.069-.033.292-.175.292-.618 0-.502-.636-.785-.636-.785a.83.83 0 01-.022-1.527c.044-.043.137-.207.137-.567 0-.421-.805-.648-.808-.649a.833.833 0 01-.42-1.373c.094-.101.2-.215.134-.706-.048-.059-.579-.569-4.298-.569-2.192 0-3.307.32-4.045.531-.427.122-.796.227-1.198.227H4.778v5.291c1.16.252 2.184 1.026 2.993 2.294zm-6.104-.867h1.445V2.598H1.667v6.718z"/></svg>