<svg xmlns="http://www.w3.org/2000/svg" width="20" height="21" viewBox="0 0 20 21"><path fill-rule="evenodd" fill="#EF8201" d="M18.018 7.488a.624.624 0 00-.097-.006h-4.278c.014-.089.047-.209.114-.357.633-1.413.928-2.462.928-3.301 0-1.478-.808-3.048-2.303-3.048-1.029 0-1.189.796-1.258 1.136l-.038.184c-.087.382-.659 1.854-1.736 3.21-1.186 1.495-1.849 2.447-2.978 4.147-.694 1.046-1.488 1.554-2.427 1.554H0v9.702h4.778v-1.463h2.4c.171 0 .412.065.746.157.825.227 2.074.569 4.496.569 4.024 0 5.682-.513 5.914-1.832.075-.432.079-.806.008-1.139.594-.354 1.136-.942 1.136-1.821 0-.45-.088-.816-.221-1.108.406-.389.742-.94.742-1.654 0-.552-.158-.987-.379-1.317.222-.344.379-.81.379-1.427 0-1.547-1.296-2.107-1.981-2.186zM3.112 19.047H1.667v-6.379h1.445v6.379zm14.941-7.187c.084.039.28.171.28.558 0 .445-.626.717-.625.717a.83.83 0 00-.021 1.537c.041.039.125.185.125.508 0 .304-.59.539-.8.59a.83.83 0 00-.417 1.386c.087.09.177.183.107.634-.145.113-.901.521-4.282.521-2.197 0-3.315-.306-4.054-.509-.425-.117-.792-.217-1.188-.217h-2.4v-5.012c1.154-.243 2.176-.986 2.984-2.204 1.101-1.658 1.747-2.585 2.894-4.031 1.151-1.45 1.817-3.03 2.016-3.724.206.262.346.768.346 1.21 0 .58-.264 1.463-.783 2.624-.353.788-.358 1.543-.014 2.073.258.395.682.622 1.166.622h4.476c.148.026.47.128.47.531 0 .515-.208.623-.168.612a.822.822 0 00-.61.735.853.853 0 00.498.839z"/></svg>