<svg xmlns="http://www.w3.org/2000/svg" width="129" height="49" viewBox="0 0 129 49"><path fill-rule="evenodd" fill="#8A8A8D" d="M128.135 37.118h-8.039c.142 1.849 1.033 3.129 3.301 3.129 1.465 0 2.642-.626 3.503-1.365l1.522 3.071c-1.35 1.11-3.245 1.793-5.656 1.793-4.594 0-6.748-3.299-6.748-7.794 0-4.551 2.641-7.88 6.748-7.88 4.048 0 5.742 2.618 5.742 5.974 0 1.053-.143 2.162-.373 3.072zm-5.341-5.603c-1.521 0-2.355 1.052-2.469 2.588h4.422c.057-.199.085-.426.085-.655 0-1.308-.803-1.933-2.038-1.933zm-10.863 12.117c-2.326 0-3.417-1.024-3.417-3.527V34.87c0-1.905-.747-2.787-2.096-2.787-1.177 0-1.895 1.082-2.268 2.076v9.188h-4.163V28.471h4.163v1.279c.833-.937 2.211-1.535 3.991-1.535 3.187 0 4.565 2.162 4.565 5.803v4.949c0 .825.259 1.109.833 1.109a1.94 1.94 0 001.149-.398l.144 3.3c-.661.341-1.637.654-2.901.654zm-16.752-17.38c-1.378 0-2.23-.541-1.972-1.991.258-1.451 1.297-1.963 2.676-1.963 1.321 0 2.148.512 1.89 1.963-.258 1.45-1.273 1.991-2.594 1.991zM84.572 15.788c.143 1.848 1.033 3.129 3.301 3.129 1.465 0 2.642-.627 3.504-1.366l1.522 3.072c-1.35 1.109-3.245 1.792-5.657 1.792-4.594 0-6.747-3.299-6.747-7.794 0-4.551 2.64-7.879 6.747-7.879 4.048 0 5.742 2.617 5.742 5.973 0 1.053-.142 2.163-.373 3.073h-8.039zm2.698-5.604c-1.521 0-2.354 1.052-2.469 2.588h4.423c.057-.199.085-.427.085-.654 0-1.309-.803-1.934-2.039-1.934zm-13.962.255c-1.809 0-2.871 1.594-2.871 4.069 0 2.616.948 4.209 3.186 4.209 1.264 0 2.556-.767 3.475-1.593l1.637 3.243a8.728 8.728 0 01-5.628 2.048c-4.796 0-6.977-3.158-6.977-7.794 0-4.722 2.698-7.879 6.776-7.879 3.761 0 5.455 1.991 6.001 5.176l-3.216 1.167c-.201-1.678-.976-2.646-2.383-2.646zm-4.069 19.085v-1.053h4.192v10.296c0 .769.201 1.309.775 1.309.459 0 .832-.17 1.206-.426l.144 3.328c-.69.341-1.838.654-3.073.654-1.464 0-2.499-.341-2.929-1.82-.861 1.166-2.24 1.792-3.933 1.792-3.532 0-5.829-2.731-5.829-7.652 0-4.723 2.124-7.737 5.972-7.737 1.235 0 2.67.341 3.475 1.309zm-5.198 6.428c0 2.502 1.091 4.011 2.928 4.011.949 0 1.81-.682 2.27-1.309v-5.632c-.46-.568-1.293-1.138-2.27-1.138-1.865 0-2.928 1.507-2.928 4.068zm-2.705-13.65c-2.327 0-3.235-1.025-2.789-3.528l.931-5.234c.339-1.906-.251-2.788-1.599-2.788-1.178 0-2.088 1.082-2.638 2.077l-1.635 9.188h-4.164L52.09 7.14h4.163l-.227 1.28c.999-.938 2.484-1.536 4.264-1.536 3.187 0 4.18 2.162 3.532 5.804l-.881 4.948c-.147.826.061 1.109.635 1.109.402 0 .83-.142 1.22-.398l-.444 3.3a7.082 7.082 0 01-3.016.655zm-8.442 7.306v-1.137h4.192v13.711c0 4.778-2.871 6.798-6.719 6.798-2.842 0-4.479-.768-5.398-1.224l.919-3.527c.861.455 2.297 1.166 3.991 1.166 1.636 0 3.015-.426 3.015-2.616V41.3c-.861.768-2.067 1.194-3.532 1.194-3.618 0-5.915-2.758-5.915-7.111 0-4.409 2.297-7.168 5.915-7.168 1.609 0 2.728.54 3.532 1.393zm-5.197 5.775c0 2.105 1.091 3.47 2.929 3.47.976 0 1.78-.569 2.268-1.08V33.05c-.46-.626-1.235-1.166-2.268-1.166-1.838 0-2.929 1.337-2.929 3.499zm-8.082-19.595c.143 1.848 1.034 3.129 3.302 3.129 1.465 0 2.642-.627 3.503-1.366l1.522 3.072c-1.35 1.109-3.245 1.792-5.657 1.792-4.594 0-6.747-3.299-6.747-7.794 0-4.551 2.641-7.879 6.747-7.879 4.049 0 5.742 2.617 5.742 5.973 0 1.053-.142 2.163-.372 3.073h-8.04zm2.698-5.604c-1.52 0-2.354 1.052-2.468 2.588h4.422c.057-.199.085-.427.085-.654 0-1.309-.803-1.934-2.039-1.934zM31.695 22.302c-2.326 0-3.418-1.025-3.418-3.528V7.14h4.194v10.496c0 .826.258 1.109.803 1.109.431 0 .804-.142 1.149-.398l.144 3.3c-.633.341-1.609.655-2.872.655zM30.403 4.921c-1.378 0-2.326-.54-2.326-1.991S29.025.968 30.403.968c1.321 0 2.24.511 2.24 1.962s-.919 1.991-2.24 1.991zm-9.193 5.518c-1.808 0-3.155 1.594-3.595 4.069-.466 2.616.199 4.209 2.437 4.209 1.264 0 2.694-.767 3.759-1.593l1.06 3.243c-1.717 1.252-3.811 2.048-5.993 2.048-4.796 0-6.415-3.158-5.59-7.794.841-4.722 4.102-7.879 8.178-7.879 3.762 0 5.101 1.991 5.08 5.176l-3.423 1.167c.097-1.678-.505-2.646-1.913-2.646zm-6.105 19.966c1.11-1.394 2.572-2.19 4.525-2.19 3.446 0 4.397 2.076 3.754 5.689l-.901 5.063c-.147.825.061 1.109.635 1.109.402 0 .8-.142 1.219-.398l-.472 3.3c-.693.341-1.696.654-3.017.654-2.297 0-3.177-1.024-2.732-3.527l.952-5.348c.34-1.906-.242-2.674-1.591-2.674-1.034 0-1.735.711-2.28 1.678l-.025.143-1.681 9.443H9.327l1.529-8.59c.339-1.906-.356-2.674-1.563-2.674-1.177 0-1.955.825-2.505 1.821l-1.681 9.443H.943l2.648-14.876h4.164l-.223 1.252c1.005-.968 2.392-1.508 4.144-1.508 1.867 0 2.993.768 3.429 2.19zM6.714 12.744l1.751.512c2.126.682 3.044 2.19 3.044 4.153 0 2.617-1.981 4.893-5.484 4.893-2.097 0-3.934-.598-4.91-1.082l.804-3.584c.976.57 2.412 1.252 3.79 1.252 1.005 0 1.579-.399 1.579-1.195 0-.882-.546-1.109-1.378-1.394l-1.867-.597c-2.096-.682-3.1-2.076-3.1-4.124 0-2.674 2.067-4.694 5.656-4.694 1.695 0 3.848.483 4.881.967l-.976 3.442c-1.12-.512-2.383-.939-3.618-.939-1.12 0-1.666.342-1.666 1.109 0 .57.317.911 1.494 1.281zm25.685 15.471c1.234 0 2.67.341 3.474 1.309v-1.053h4.192v10.296c0 .769.201 1.309.775 1.309.46 0 .832-.17 1.207-.426l.143 3.328c-.689.341-1.837.654-3.073.654-1.464 0-2.498-.341-2.928-1.82-.862 1.166-2.24 1.792-3.934 1.792-3.532 0-5.829-2.731-5.829-7.652 0-4.723 2.124-7.737 5.973-7.737zm1.205 11.748c.948 0 1.81-.682 2.269-1.309v-5.632c-.459-.568-1.293-1.138-2.269-1.138-1.866 0-2.928 1.507-2.928 4.068 0 2.502 1.09 4.011 2.928 4.011zm54.589-8.562l-5.284 8.647h5.284v3.299H77.626v-2.929l5.312-8.648h-5.312v-3.299h10.567v2.93zm4.466-2.93h4.193l-1.868 10.496c-.147.825.061 1.109.605 1.109.432 0 .83-.142 1.22-.398l-.443 3.3c-.693.341-1.725.654-2.989.654-2.325 0-3.234-1.024-2.789-3.527l2.071-11.634z"/></svg>