<svg xmlns="http://www.w3.org/2000/svg" viewBox="0 0 53.28 20.24"  width="120" height="45"><defs><clipPath id="a"><path fill="none" d="M0 0h53.28v20.24H0z"/></clipPath></defs><g clip-path="url(#a)"><path d="M4 4.35A3.75 3.75 0 002.48 4c-.47 0-.69.14-.69.47s.13.38.62.54l.73.21a1.7 1.7 0 011.27 1.71A2.09 2.09 0 012.12 9a4.93 4.93 0 01-2.05-.46L.41 7A3.34 3.34 0 002 7.56c.42 0 .66-.17.66-.51s-.23-.47-.58-.59l-.78-.25A1.69 1.69 0 010 4.47c0-1.12.86-2 2.36-2a5.75 5.75 0 012 .41zm6 3.83A4.22 4.22 0 017.49 9c-2 0-2.68-1.33-2.33-3.28s1.71-3.29 3.41-3.29 2.13.84 2.12 2.19l-1.43.49C9.31 4.4 9.05 4 8.47 4 7.71 4 7.15 4.67 7 5.71s.09 1.77 1 1.77a2.78 2.78 0 001.57-.67zM12.3 0c.56 0 .94.22.94.83s-.38.84-.94.84-1-.23-1-.84.4-.83 1-.83m.87 2.6V7c0 .35.11.47.33.47a.76.76 0 00.5-.14v1.39a2.55 2.55 0 01-1.2.28c-1 0-1.42-.44-1.42-1.49V2.6zm2.98 3.65a1.26 1.26 0 001.38 1.32A2.25 2.25 0 0019 7l.63 1.3a3.58 3.58 0 01-2.36.7c-1.92 0-2.82-1.39-2.82-3.28s1.1-3.32 2.82-3.32a2.24 2.24 0 012.4 2.6 5.32 5.32 0 01-.16 1.3zM18.1 5a1.27 1.27 0 000-.28.75.75 0 00-.85-.81c-.63 0-1 .44-1 1.09zm2.16 3.87l1.1-6.27h1.74l-.1.54a2.59 2.59 0 011.78-.65c1.33 0 1.74.92 1.47 2.45L25.9 7c-.06.35 0 .47.26.47a.92.92 0 00.51-.17l-.18 1.39a3.06 3.06 0 01-1.26.31c-1 0-1.36-.43-1.17-1.48l.39-2.21c.14-.8-.1-1.18-.67-1.18s-.87.46-1.1.88L22 8.87zm12.23-.69a3.6 3.6 0 01-2.35.82c-2 0-2.91-1.33-2.91-3.28s1.13-3.33 2.83-3.33a2.3 2.3 0 012.51 2.19l-1.35.49c-.08-.71-.41-1.12-1-1.12-.76 0-1.2.68-1.2 1.72s.39 1.77 1.33 1.77a2.31 2.31 0 001.45-.67zm2.44-1.93a1.25 1.25 0 001.38 1.32A2.23 2.23 0 0037.77 7l.64 1.3a3.62 3.62 0 01-2.36.7c-1.92 0-2.82-1.39-2.82-3.28s1.1-3.32 2.82-3.32A2.23 2.23 0 0138.44 5a5.87 5.87 0 01-.15 1.3zM36.87 5a.86.86 0 000-.28.75.75 0 00-.85-.81A1 1 0 0035 5z" fill="#3f9d9d"/><path d="M0 17.87l1.11-6.27h1.74l-.1.52a2.43 2.43 0 011.73-.63 1.33 1.33 0 011.44.92 2.26 2.26 0 011.88-.92c1.44 0 1.84.87 1.57 2.4L9 16c-.06.35 0 .47.26.47a.94.94 0 00.51-.17l-.2 1.39a2.7 2.7 0 01-1.26.31c-1 0-1.32-.43-1.14-1.49l.4-2.25c.14-.81-.1-1.13-.66-1.13a1.13 1.13 0 00-1 .71v.06l-.7 4H3.5l.64-3.62c.14-.81-.15-1.13-.65-1.13a1.24 1.24 0 00-1.05.77l-.7 4zm16.34-1.93c0 .32.09.55.32.55a.85.85 0 00.51-.18l.06 1.4A3 3 0 0116 18c-.62 0-1-.14-1.23-.77a2 2 0 01-1.64.76c-1.48 0-2.44-1.15-2.44-3.23s.89-3.26 2.5-3.26a1.89 1.89 0 011.45.55v-.45h1.75zM13.64 13c-.78 0-1.22.63-1.22 1.71s.45 1.69 1.22 1.69a1.28 1.28 0 00.95-.55v-2.33a1.26 1.26 0 00-.95-.48m6.58-1.55a1.91 1.91 0 011.48.59v-.48h1.75v5.78a2.57 2.57 0 01-2.81 2.86 4.69 4.69 0 01-2.25-.51l.38-1.49a3.6 3.6 0 001.67.49c.68 0 1.26-.18 1.26-1.1V17a2.17 2.17 0 01-1.48.5c-1.51 0-2.47-1.16-2.47-3s1-3 2.47-3m.53 4.5a1.36 1.36 0 00.95-.45v-2a1.15 1.15 0 00-.95-.49c-.77 0-1.22.56-1.22 1.47S20 16 20.75 16m9.53-.06c0 .32.08.55.32.55a.83.83 0 00.5-.18l.06 1.4a2.89 2.89 0 01-1.28.28c-.61 0-1-.14-1.22-.77A2 2 0 0127 18c-1.48 0-2.44-1.15-2.44-3.23s.89-3.26 2.5-3.26a1.89 1.89 0 011.45.55v-.46h1.75zM27.58 13c-.78 0-1.22.63-1.22 1.71s.45 1.69 1.22 1.69a1.31 1.31 0 001-.55v-2.33a1.28 1.28 0 00-1-.48m6.67-.05h-2.22V11.6h4.41v1.23l-2.2 3.65h2.2v1.39h-4.41v-1.24l2.22-3.64zM39.66 9c.55 0 .89.22.79.83a1 1 0 01-1.09.84c-.57 0-.93-.23-.82-.84A1 1 0 0139.66 9m.4 2.61L39.28 16c-.06.35 0 .47.25.47a.89.89 0 00.51-.17l-.18 1.39a2.75 2.75 0 01-1.25.28c-1 0-1.35-.43-1.17-1.49l.87-4.9zm1.31 6.26V11.6h1.74v.54a2.15 2.15 0 011.67-.65c1.33 0 1.9.91 1.9 2.44V16c0 .35.11.47.35.47a.78.78 0 00.48-.17l.06 1.39a2.54 2.54 0 01-1.21.28c-1 0-1.43-.43-1.43-1.49v-2.19c0-.8-.31-1.17-.87-1.17s-.8.46-1 .87v3.88zm8.4-2.63a1.25 1.25 0 001.38 1.32 2.22 2.22 0 001.46-.56l.64 1.29a3.63 3.63 0 01-2.37.76c-1.92 0-2.81-1.39-2.81-3.29s1.1-3.32 2.81-3.32a2.24 2.24 0 012.4 2.56 5.85 5.85 0 01-.15 1.29zM51.71 14a.82.82 0 000-.28.75.75 0 00-.85-.81c-.64 0-1 .44-1 1.09z" fill="#ef8201"/></g></svg>