<svg xmlns="http://www.w3.org/2000/svg" viewBox="0 0 104.17 22" width="303" height="64"><defs><clipPath id="a"><path fill="none" d="M0 0h104.17v22H0z"/></clipPath><clipPath id="b"><path fill="none" d="M9.64 2.29h1.96v4.43H9.64z"/></clipPath><clipPath id="c"><path fill="none" d="M42.57 0h.4v22h-.4z"/></clipPath></defs><g clip-path="url(#a)" data-name="Layer 1"><path d="M54.88 6a3.65 3.65 0 00-1.51-.4c-.47 0-.7.15-.7.47s.14.38.63.54l.73.22a1.69 1.69 0 011.27 1.78 2.09 2.09 0 01-2.3 2.06 4.74 4.74 0 01-2-.46l.3-1.51a3.3 3.3 0 001.58.53c.42 0 .66-.17.66-.5s-.23-.47-.58-.59l-.78-.25a1.7 1.7 0 01-1.29-1.74c0-1.13.86-2 2.36-2a5.54 5.54 0 012 .41zm6 3.85a4.23 4.23 0 01-2.5.87c-2 0-2.68-1.33-2.34-3.29s1.72-3.32 3.42-3.32 2.13.84 2.12 2.18l-1.43.49c0-.7-.21-1.11-.8-1.11-.75 0-1.31.67-1.5 1.71s.08 1.78 1 1.78a2.81 2.81 0 001.57-.67zm2.31-8.18c.55 0 .94.22.94.83s-.39.84-.94.84-1-.23-1-.84.4-.83 1-.83m.87 2.61V8.7c0 .35.1.47.33.47a.76.76 0 00.48-.17l.06 1.39a2.43 2.43 0 01-1.2.28c-1 0-1.42-.43-1.42-1.49v-4.9zM67 7.92a1.25 1.25 0 001.38 1.32 2.22 2.22 0 001.46-.57l.68 1.33a3.63 3.63 0 01-2.36.76c-1.92 0-2.82-1.39-2.82-3.29s1.1-3.32 2.82-3.32a2.24 2.24 0 012.39 2.52 5.85 5.85 0 01-.15 1.29zm2-1.27a.8.8 0 000-.27.76.76 0 00-.85-.82 1 1 0 00-1 1.09zm2.15 3.9l1.1-6.27H74l-.09.54a2.51 2.51 0 011.78-.65c1.33 0 1.74.91 1.47 2.45l-.38 2.08c-.06.35 0 .47.27.47a.92.92 0 00.51-.17l-.19 1.39a2.83 2.83 0 01-1.26.28c-1 0-1.35-.43-1.16-1.49L75.34 7c.14-.81-.11-1.18-.67-1.18s-.87.46-1.1.88l-.69 3.87zm12.23-.7a3.61 3.61 0 01-2.35.87c-2 0-2.91-1.33-2.91-3.29S79.24 4.11 81 4.11a2.29 2.29 0 012.5 2.18l-1.34.49c-.08-.7-.41-1.11-1-1.11-.75 0-1.2.67-1.2 1.71s.4 1.78 1.34 1.78a2.35 2.35 0 001.45-.67zm2.44-1.93a1.25 1.25 0 001.38 1.32 2.22 2.22 0 001.46-.57L89.3 10a3.63 3.63 0 01-2.37.76c-1.92 0-2.81-1.39-2.81-3.29s1.1-3.32 2.81-3.32a2.24 2.24 0 012.4 2.52 5.85 5.85 0 01-.15 1.29zm1.94-1.27a.8.8 0 000-.27.76.76 0 00-.76-.82 1 1 0 00-1 1.09z" fill="#3f9d9d"/><path d="M50.89 19.54L52 13.27h1.74l-.09.53a2.39 2.39 0 011.73-.64 1.32 1.32 0 011.43.93 2.3 2.3 0 011.89-.93c1.44 0 1.84.88 1.57 2.4l-.38 2.14c-.06.35 0 .46.27.46a1 1 0 00.51-.16l-.2 1.39a2.88 2.88 0 01-1.26.27c-1 0-1.33-.43-1.14-1.48l.4-2.26c.14-.8-.1-1.13-.67-1.13a1.13 1.13 0 00-.95.71v.06l-.7 4h-1.76l.61-3.64c.14-.8-.15-1.13-.65-1.13a1.23 1.23 0 00-1.05.77l-.7 4zm16.34-1.93c0 .33.08.55.32.55a.88.88 0 00.51-.18l.06 1.41a3.14 3.14 0 01-1.29.27c-.61 0-1-.14-1.22-.76a2 2 0 01-1.64.75c-1.48 0-2.44-1.15-2.44-3.22s.89-3.27 2.5-3.27a1.9 1.9 0 011.45.56v-.45h1.75zm-2.7-2.9c-.78 0-1.22.64-1.22 1.72s.45 1.69 1.22 1.69a1.26 1.26 0 001-.56v-2.37a1.26 1.26 0 00-1-.48m6.58-1.55a1.93 1.93 0 011.48.59v-.48h1.75v5.78a2.57 2.57 0 01-2.81 2.87 4.52 4.52 0 01-2.25-.52l.38-1.48a3.6 3.6 0 001.67.49c.68 0 1.26-.18 1.26-1.11v-.62a2.19 2.19 0 01-1.48.5c-1.51 0-2.47-1.16-2.47-3s1-3 2.47-3m.53 4.49a1.35 1.35 0 001-.46v-2a1.19 1.19 0 00-1-.49c-.77 0-1.22.56-1.22 1.48s.45 1.46 1.22 1.46m9.53-.05c0 .33.08.55.32.55A.83.83 0 0082 18l.06 1.41a3.09 3.09 0 01-1.28.27c-.61 0-1-.14-1.22-.76a2 2 0 01-1.65.75c-1.47 0-2.43-1.15-2.43-3.22s.89-3.27 2.49-3.27a1.87 1.87 0 011.45.56v-.45h1.76zm-2.7-2.9c-.78 0-1.23.64-1.23 1.72s.46 1.69 1.23 1.69a1.26 1.26 0 00.94-.56v-2.37a1.26 1.26 0 00-.94-.48m6.67-.05h-2.22v-1.39h4.41v1.24l-2.2 3.64h2.2v1.39h-4.41v-1.23l2.22-3.65zm5.4-3.99c.56 0 .9.21.79.83a1 1 0 01-1.08.84c-.58 0-.93-.23-.82-.84a1 1 0 011.11-.83m.41 2.6l-.78 4.43c-.06.34 0 .46.25.46a1 1 0 00.51-.16l-.18 1.39a2.94 2.94 0 01-1.25.27c-1 0-1.35-.43-1.17-1.48l.87-4.91zm1.31 6.27v-6.27H94v.54a2.16 2.16 0 011.66-.65c1.33 0 1.91.92 1.91 2.45v2.09c0 .35.11.46.35.46a.79.79 0 00.48-.16l.06 1.39a2.71 2.71 0 01-1.21.27c-1 0-1.43-.43-1.43-1.48V16c0-.8-.31-1.18-.88-1.18s-.79.46-.94.88v3.87zm8.4-2.62a1.25 1.25 0 001.34 1.32 2.23 2.23 0 001.46-.58l.63 1.3a3.64 3.64 0 01-2.36.75c-1.92 0-2.82-1.39-2.82-3.28s1.11-3.33 2.82-3.33a2.25 2.25 0 012.4 2.52 5.38 5.38 0 01-.16 1.3zm1.94-1.27a1.26 1.26 0 000-.28.76.76 0 00-.86-.81c-.63 0-1 .44-1 1.09z" fill="#ef8201"/><path d="M8.52 9l-2-.59C5.2 8 4.84 7.56 4.84 6.91c0-.88.62-1.27 1.89-1.27a10.19 10.19 0 014.1 1.07l.77-4.42a40.31 40.31 0 00-4.51-.59h-.68C2.34 1.68 0 4 0 7a4.59 4.59 0 003.51 4.71l2.11.69c1 .32 1.57.58 1.57 1.59S6.54 15.4 5.4 15.4A9 9 0 011.11 14l-.92 4.1a13.06 13.06 0 005.56 1.2c4 0 6.22-2.6 6.22-5.59A4.62 4.62 0 008.52 9" fill="#3f9d9d"/><path d="M34.65 15.22a2.58 2.58 0 01-1.35.45c-.64 0-.87-.32-.71-1.25l1-5.7c.71-4.06-.35-6.39-4.18-6.39a6.08 6.08 0 00-5 2.46c-.49-1.6-1.74-2.46-3.82-2.46A6.43 6.43 0 0015.94 4l.25-1.4h-.12a35.17 35.17 0 01-4.47-.33l-1.28 7.35a5.2 5.2 0 012.15 3.88 5.79 5.79 0 01-2.73 5.84h3.5l1.87-10.62a3.29 3.29 0 012.79-2c1.35 0 2.12.86 1.74 3l-1.7 9.66h4.64l1.87-10.66v-.16A3 3 0 0127 6.68c1.5 0 2.15.86 1.77 3l-1.06 6c-.5 2.81.48 4 3 4A7.43 7.43 0 0034 19z" fill="#ef8201"/><g clip-path="url(#b)" opacity=".2"><path d="M11.6 2.29l-.77 4.42-.57-.25-.61-.24z"/></g><g clip-path="url(#c)" opacity=".2"><path fill="none" stroke="#000" stroke-miterlimit="10" stroke-width=".4" d="M42.77 0v22"/></g></g></svg>