<?xml version="1.0" encoding="utf-8"?>
<!-- Generator: Adobe Illustrator 22.0.1, SVG Export Plug-In . SVG Version: 6.00 Build 0)  -->
<svg version="1.1" id="Layer_1" xmlns="http://www.w3.org/2000/svg" xmlns:xlink="http://www.w3.org/1999/xlink" x="0px" y="0px"
	 width="31px" height="30px" viewBox="0 0 31 30" style="enable-background:new 0 0 31 30;" xml:space="preserve">
<style type="text/css">
	.st0{fill:#FFFFFF;}
</style>
<g>
	<g>
		<path class="st0" d="M24.4,1.4H6.6C2.9,1.4,0,4.4,0,8v8c0,3.6,2.9,6.6,6.6,6.6h5.7v6l7-6h5.2c3.6,0,6.6-2.9,6.6-6.6V8
			C31,4.4,28.1,1.4,24.4,1.4z M11.7,15.1H9.5c-1.4,0-2.5-0.8-2.5-1.9v-2.3C7,9.9,8.1,9,9.5,9h2.3V15.1z M24.1,13.1
			c0,1-1.2,1.9-2.6,1.9h-2.4V8.9h2.4c1.4,0,2.6,0.8,2.6,1.9V13.1z"/>
	</g>
</g>
</svg>
