<?xml version="1.0" encoding="utf-8"?>
<!-- Generator: Adobe Illustrator 19.0.0, SVG Export Plug-In . SVG Version: 6.00 Build 0)  -->
<svg version="1.1" id="Layer_1" xmlns="http://www.w3.org/2000/svg" xmlns:xlink="http://www.w3.org/1999/xlink" x="0px" y="0px"
	 width="159px" height="40px" viewBox="0 0 159 40" style="enable-background:new 0 0 159 40;" xml:space="preserve">
<style type="text/css">
	.st0{fill:#FFFFFF;}
</style>
<g>
	<path class="st0" d="M37.4,17.3c0.1-0.7,0.2-1.3,0.3-1.9c0.1-0.6,0.4-1.2,0.7-1.8c0.7-1.2,1.9-2.2,3.5-3c1.7-0.8,4-1.2,6.9-1.2
		c0.4,0,1,0,1.9,0.1c0.9,0,1.8,0.2,2.9,0.4c0.2,0.1,0.5,0.2,1,0.3c0.4,0.1,0.9,0.3,1.4,0.6c0.5,0.3,1.1,0.6,1.6,1.1
		c0.5,0.5,0.9,1,1.3,1.7c0.3,0.6,0.5,1.3,0.6,2.1c0.1,0.7,0.2,1.8,0.2,3.2v8.8c0,0.8,0,1.5,0.1,2c0,0.5,0.1,1,0.2,1.4
		c0.1,0.4,0.2,0.8,0.4,1.1c0.2,0.3,0.4,0.7,0.6,1.1h-8.2c-0.1-0.4-0.1-0.8-0.2-1.2c0-0.4-0.1-0.8-0.2-1.2c-0.2,0.2-0.3,0.3-0.4,0.4
		c-0.1,0.1-0.3,0.2-0.4,0.4c-1,0.8-2,1.3-3,1.7c-1,0.3-2.2,0.5-3.5,0.5c-0.2,0-0.4,0-0.7,0c-0.3,0-0.7,0-1.1-0.1
		c-0.4,0-0.9-0.1-1.4-0.2c-0.5-0.1-1-0.3-1.4-0.4c-0.6-0.2-1.1-0.5-1.5-0.8c-0.4-0.3-0.7-0.6-0.9-0.7c-0.8-0.8-1.3-1.6-1.5-2.4
		c-0.2-0.8-0.3-1.4-0.3-1.9c0-0.3,0-0.7,0.1-1.1c0.1-0.4,0.2-0.9,0.5-1.4c0.2-0.5,0.6-1,1-1.5c0.4-0.5,1-0.9,1.7-1.4
		c1.2-0.8,2.8-1.4,4.7-1.8c1.9-0.4,4.4-0.9,7.4-1.3c0-0.4,0-0.9,0-1.5c0-0.6-0.2-1-0.6-1.4c-0.4-0.4-0.9-0.6-1.4-0.6
		c-0.5,0-0.9,0-1,0c0,0-0.2,0-0.4,0c-0.2,0-0.5,0-0.8,0.1c-0.3,0-0.6,0.1-0.9,0.2c-0.3,0.1-0.5,0.3-0.7,0.6
		c-0.2,0.2-0.3,0.5-0.3,0.7c-0.1,0.3-0.1,0.4-0.1,0.5H37.4z M51.7,23.3c-0.3,0-0.7,0.1-1.2,0.1c-0.5,0.1-1,0.1-1.4,0.2
		c-0.5,0.1-1,0.1-1.4,0.2c-0.5,0.1-0.9,0.2-1.2,0.3c-0.1,0-0.2,0.1-0.4,0.2c-0.2,0.1-0.4,0.2-0.6,0.3c-0.2,0.2-0.4,0.4-0.6,0.6
		c-0.2,0.2-0.2,0.5-0.2,0.9c0,0.5,0.2,1,0.7,1.4c0.5,0.4,1.2,0.6,2.3,0.6c1,0,1.8-0.1,2.3-0.4c0.5-0.3,0.9-0.6,1.2-1.1
		c0.3-0.4,0.4-0.9,0.5-1.4c0-0.5,0.1-0.9,0.1-1.3V23.3z"/>
	<path class="st0" d="M72.4,0v19.2l7.7-9.6h10.3L80.2,20.7l11,12.7H80.1l-7.7-10.9v10.9h-8.5V0H72.4z"/>
	<path class="st0" d="M100.3,10c0.1,0.3,0.2,0.5,0.4,0.8c0.1,0.3,0.2,0.6,0.4,1.1c0.3-0.3,0.7-0.5,1.1-0.8c0.4-0.3,0.9-0.6,1.4-0.8
		c0.6-0.2,1.2-0.4,1.9-0.6c0.7-0.2,1.6-0.2,2.5-0.2c1.1,0,2.1,0.1,2.9,0.3c0.8,0.2,1.5,0.5,2.1,0.8c0.6,0.3,1.1,0.7,1.5,1.1
		c0.4,0.4,0.8,0.8,1,1.2c0.1-0.2,0.3-0.4,0.6-0.8c0.3-0.4,0.7-0.7,1.2-1.1c0.5-0.4,1.3-0.8,2.2-1.1c1-0.3,2.2-0.5,3.8-0.5
		c2,0,3.6,0.3,4.8,0.9c1.2,0.6,2,1.3,2.5,2c0.3,0.5,0.6,0.9,0.8,1.4c0.2,0.5,0.3,1,0.4,1.6c0.1,0.6,0.2,1.3,0.2,2c0,0.7,0,1.6,0,2.7
		v13.4h-8.6V20c0-0.2,0-0.3,0-0.5c0-0.2,0-0.3,0-0.5c0-0.2,0-0.5-0.1-0.9c0-0.4-0.2-0.7-0.4-1.1c-0.2-0.3-0.5-0.6-0.9-0.9
		c-0.4-0.2-1-0.4-1.7-0.4c-0.2,0-0.4,0-0.8,0c-0.3,0-0.7,0.1-1.1,0.3c-0.8,0.4-1.3,0.9-1.5,1.7c-0.2,0.7-0.3,1.5-0.3,2.3v13.2h-8.6
		v-13c0-0.3,0-0.6,0-0.8c0-0.3,0-0.5,0-0.8c0-0.2,0-0.5-0.1-0.9c-0.1-0.3-0.2-0.7-0.4-1c-0.2-0.3-0.5-0.6-0.9-0.8
		c-0.4-0.2-0.9-0.3-1.6-0.3c-0.4,0-0.7,0-1.1,0.1c-0.3,0.1-0.7,0.2-1,0.4c-0.4,0.2-0.7,0.5-0.9,0.9c-0.2,0.3-0.3,0.7-0.4,1
		c-0.1,0.4-0.2,0.8-0.2,1.1c0,0.4,0,0.8,0,1.1v12.8H93V15.8c0-0.8,0-1.5,0-2.1c0-0.6-0.1-1-0.1-1.4c-0.1-0.4-0.2-0.8-0.3-1.1
		c-0.1-0.3-0.3-0.7-0.5-1.2L100.3,10z"/>
	<path class="st0" d="M150.9,33.3c-0.1-0.2-0.2-0.5-0.3-0.7c-0.1-0.2-0.2-0.6-0.3-1.2c-0.2,0.1-0.3,0.3-0.5,0.4
		c-0.2,0.1-0.3,0.2-0.5,0.4c-0.5,0.4-1.2,0.7-2.1,1.1c-0.9,0.4-2.1,0.6-3.6,0.6c-1,0-1.9-0.1-2.7-0.3c-0.8-0.2-1.5-0.4-2.1-0.7
		c-0.6-0.3-1.1-0.6-1.6-1c-0.4-0.4-0.8-0.7-1-1c-0.4-0.6-0.8-1.2-1-1.8c-0.2-0.6-0.4-1.3-0.5-2c-0.1-0.7-0.1-1.3-0.2-2
		c0-0.7,0-1.3,0-2V9.9h8.4v12.2c0,1.3,0.1,2.4,0.2,3.1c0.1,0.7,0.5,1.3,1.1,1.7c0.2,0.1,0.4,0.2,0.7,0.3c0.3,0.1,0.7,0.2,1.1,0.1
		c0.2,0,0.6,0,1.1-0.1c0.5-0.1,1-0.4,1.4-0.8c0.6-0.6,0.9-1.3,0.9-2.2c0.1-0.8,0.1-1.6,0.1-2.4v-12h8.4v14.9c0,0.5,0,0.9,0,1.4
		c0,0.5,0,1,0,1.4c0,0.6,0,1.1,0,1.6c0,0.5,0.1,0.9,0.1,1.3c0.1,0.4,0.2,0.9,0.3,1.3c0.1,0.4,0.3,1,0.5,1.5L150.9,33.3z"/>
	<g>
		<g id="XMLID_44_">
			<path id="XMLID_45_" class="st0" d="M27.3,9.8H7.3C3.3,9.8,0,13,0,17.1V26c0,4,3.3,7.3,7.3,7.3h6.3V40l7.8-6.7h5.8
				c4,0,7.3-3.3,7.3-7.3v-8.9C34.6,13,31.3,9.8,27.3,9.8z M13.1,25h-2.5c-1.5,0-2.7-0.9-2.7-2.1v-2.6c0-1.2,1.2-2.1,2.7-2.1h2.5V25z
				 M26.8,22.8c0,1.2-1.3,2.1-2.9,2.1h-2.7v-6.8H24c1.6,0,2.9,0.9,2.9,2.1V22.8z"/>
		</g>
	</g>
</g>
</svg>
