<?xml version="1.0" encoding="UTF-8"?>
<!-- Generator: Adobe Illustrator 19.0.0, SVG Export Plug-In . SVG Version: 6.00 Build 0)  -->
<svg version="1.1" id="Layer_1" xmlns="http://www.w3.org/2000/svg" xmlns:xlink="http://www.w3.org/1999/xlink" x="0px" y="0px" width="23px" height="64px" viewBox="-472 249 23 64" style="enable-background:new -472 249 23 64;" xml:space="preserve">
<style type="text/css">
	.st0{fill:#FFFFFF;}
	.st1{fill:#666666;}
</style>
<g id="XMLID_17_">
	<path id="XMLID_34_" class="st0" d="M-462.6,249c-5.1,0-9.4,4.3-9.4,9.4c0,5.1,4.3,9.4,9.4,9.4c5.1,0,9.4-4.3,9.4-9.4   C-453.3,253.3-457.4,249-462.6,249z M-462.6,264.3c-3.2,0-5.8-2.6-5.8-6c0-3.4,2.6-5.8,5.8-5.8c3.2,0,5.8,2.6,5.8,5.8   C-456.8,261.6-459.3,264.3-462.6,264.3z"/>
	<path id="XMLID_31_" class="st0" d="M-449.6,269.2l-0.2,0.2c-0.8,1.2-2.5,1.2-3.7,0.5l-4.3-3.5c-1.2-0.8-1.2-2.5-0.3-3.7l0.2-0.2   c0.8-1.2,2.5-1.2,3.7-0.5l4.3,3.5C-448.8,266.5-448.7,268.2-449.6,269.2z"/>
</g>
<g id="XMLID_1_">
	<path id="XMLID_3_" class="st1" d="M-462.6,291c-5.1,0-9.4,4.3-9.4,9.4c0,5.1,4.3,9.4,9.4,9.4c5.1,0,9.4-4.3,9.4-9.4   C-453.3,295.3-457.4,291-462.6,291z M-462.6,306.3c-3.2,0-5.8-2.6-5.8-6s2.6-5.8,5.8-5.8c3.2,0,5.8,2.6,5.8,5.8   C-456.8,303.6-459.3,306.3-462.6,306.3z"/>
	<path id="XMLID_2_" class="st1" d="M-449.6,311.2l-0.2,0.2c-0.8,1.2-2.5,1.2-3.7,0.5l-4.3-3.5c-1.2-0.8-1.2-2.5-0.3-3.7l0.2-0.2   c0.8-1.2,2.5-1.2,3.7-0.5l4.3,3.5C-448.8,308.5-448.7,310.2-449.6,311.2z"/>
</g>
</svg>