<?xml version="1.0" encoding="utf-8"?>
<!-- Generator: Adobe Illustrator 19.2.1, SVG Export Plug-In . SVG Version: 6.00 Build 0)  -->
<svg version="1.2" baseProfile="tiny" id="Layer_1" xmlns="http://www.w3.org/2000/svg" xmlns:xlink="http://www.w3.org/1999/xlink"
	 x="0px" y="0px" viewBox="0 0 600 600" xml:space="preserve">
<path d="M200.6,200.6c-23.3,23.3-42.1,36.4-60.2,27.6c-26.9-13.1-17.7-43.8-30.9-55.5c-16.7-14.9-45.1,14.3-67.6,41.6
	C25.8,233.8,11.7,259.2,1.2,284c-3.4,8,0.3,17.1,8.3,20.6c33.4,14.5,55.6,30.2,74.4,46.2c30.7,26.1,49.6,47,39.7,61.3
	c-10.7,15.5-31.2,2.4-47.9,20.9c-25.1,27.9-4.5,50.4,18.1,73c22.6,22.6,45.1,43.2,73,18.1c18.5-16.7,5.4-37.2,20.9-47.9
	c14.3-9.9,35.2,9.1,61.3,39.7c16.1,18.8,31.7,41,46.3,74.4c3.5,7.9,12.6,11.6,20.6,8.3c24.8-10.4,50.2-24.6,69.8-40.6
	c27.3-22.5,56.5-50.9,41.6-67.6c-11.7-13.2-42.4-4-55.5-30.9c-8.8-18.1,4.3-36.9,27.6-60.2c23.3-23.3,42.1-36.4,60.2-27.6
	c26.9,13.1,17.7,43.8,30.9,55.5c16.7,14.9,45.1-14.3,67.6-41.6c16.1-19.6,30.2-44.9,40.7-69.8c3.4-8-0.3-17.1-8.3-20.6
	c-33.4-14.5-55.6-30.2-74.4-46.2c-30.7-26.1-49.6-47-39.7-61.3c10.7-15.5,31.2-2.4,47.9-20.9c25.1-27.9,4.5-50.4-18.1-72.9
	c-22.6-22.6-45.1-43.2-73-18.1c-18.6,16.7-5.4,37.2-20.9,47.9c-14.3,9.9-35.2-9.1-61.3-39.7c-16.1-18.8-31.7-41-46.2-74.4
	C301.2,1.6,292-2.1,284,1.2c-24.9,10.5-50.2,24.6-69.8,40.7c-27.3,22.5-56.5,50.9-41.6,67.6c11.7,13.2,42.4,4,55.5,30.9
	C237,158.5,223.9,177.2,200.6,200.6z"/>
</svg>
