<svg xmlns="http://www.w3.org/2000/svg" xml:space="preserve" style="enable-background:new 0 0 420 410" viewBox="0 0 420 410"><path d="M295.2 355.5v-11.3h-12.5v-17.6h-14.4v17.6h-8.1v11.3h8.1v33.8c0 9.6 5.6 14.4 16.9 14.4 4.6 0 7.9-.2 10.1-.6v-11.9l-6.9.6c-3.8 0-5.6-1.8-5.6-5.6v-30.7h12.5m57.5 24.4V368c0-7.5-2.7-13.6-8.1-18.2-5-4.6-11.1-6.9-18.2-6.9s-13.1 2.1-18.2 6.3c-5.9 5-8.7 11.3-8.7 18.8v13.8c0 7.1 2.7 12.7 8.1 16.9 5 3.8 11.3 5.6 18.8 5.6 7.1 0 13.1-2.1 18.2-6.3 5.4-4.6 8.1-10.6 8.1-18.1m-13.7-13.1v15c0 7.9-4.2 11.9-12.5 11.9-3.4 0-6.3-1-8.7-3.1-2.5-2.5-3.8-5.4-3.8-8.7v-15c0-7.9 4.2-11.9 12.5-11.9 3.4 0 6.3 1 8.7 3.1 2.5 2.4 3.8 5.3 3.8 8.7m70.1-14.5c-4.6-6.3-12.3-9.3-23.2-9.3-6.7 0-12.1 1.8-16.3 5.6-5 3.8-7.5 8.5-7.5 14.4 0 8.3 5.6 13.1 16.9 14.4l7.5 1.8c7.5 1.2 11.3 3.6 11.3 6.9 0 4.6-4 6.9-11.9 6.9-7.5 0-12.9-2.5-16.3-7.5L359 393c5.9 7.5 14.8 11.3 26.9 11.3 6.7 0 12.7-1.6 18.2-5 5.4-3.8 8.1-8.5 8.1-14.4 0-9.1-5.4-14.8-16.3-16.9l-8.7-1.2c-7.1-2.1-10.7-4.2-10.7-6.3 0-4.2 3.1-6.3 9.3-6.3 5.4 0 9.9 1.8 13.1 5.6l10.3-7.5M99.2 403v-38.8c0-14.2-6.7-21.3-20-21.3-8.3 0-14.4 2.9-18.2 8.7h-.6c-3.4-5.9-8.7-8.7-16.3-8.7-6.7 0-12.5 2.9-17.6 8.7v-7.4h-13V403h13.8v-33.8c0-9.1 3.8-13.8 11.3-13.8 7.1 0 10.7 4.6 10.7 13.8V403h14.4v-33.8c0-9.1 4-13.8 11.9-13.8 6.7 0 10.1 4.6 10.1 13.8V403h13.5m54.6-58.8h-14.4V403h14.4v-32.5c0-10.1 4.2-15 12.5-15 7.1 0 10.7 4.6 10.7 13.8v33.8h14.4v-37c0-15.4-6.9-23.2-20.6-23.2-7.5 0-13.1 2.9-16.9 8.7v-7.5m-27 .1h-13.8V403h13.8v-58.8m-13.8-23.9v15h13.8v-15h-13.8M217 344.2h-14.4v38.2c0 14.6 6.9 21.9 20.6 21.9 7.1 0 12.7-2.7 16.9-8.1v6.9h13.8v-58.9h-14.4v33.2c0 10.1-4 15-11.9 15-7.1 0-10.7-4.6-10.7-13.8v-34.4M192 258.4H88.7l-43.8 43.8H192v-43.8m-2.6-169.6c0-24.2-7.7-43.6-23.2-58.2C150.4 15.5 128.1 8 99.2 8 71.3 8 49 14.7 32.3 28 14.7 41.8 6 61 6 85.6v10.1h48.9v-7.5c0-11.3 3.6-20.2 10.7-26.9 7.5-7.1 17.6-10.7 30.1-10.7 13.3 0 23.6 3.4 30.7 10.1 6.3 6.3 9.3 14.6 9.3 25.1v8.1c0 20.4-8.9 40.9-26.9 61.4L12.9 267.8v34.4h23.2l81.4-85.7c26.3-29.7 42.4-49.1 48.2-58.2 15.8-23.4 23.7-46.6 23.7-69.5m219.8 9.3c0-40-18-67.2-53.8-81.4V219c0 12.9-4 23.8-11.9 32.5-8.3 9.1-19.8 13.8-34.4 13.8-14.6 0-26.1-4.6-34.4-13.8-7.9-8.3-11.9-19.2-11.9-32.5V97.5c0-13.3 4.2-24.2 12.5-32.5 8.3-9.1 19.8-13.8 34.4-13.8 17.1 0 30.3 6.5 39.4 19.4V14.3c-11.3-3.4-24.4-5-39.4-5-27.9 0-51.3 7.3-70.1 21.9-20.8 16.3-31.3 38.4-31.3 66.3v123.3c0 28.8 10.5 50.9 31.3 66.3 18.4 13.3 41.5 20 69.5 20 27.5 0 50.7-7.3 69.5-21.9 20.4-16.3 30.7-38.2 30.7-65.7l-.1-121.4z" style="fill:#fff"/></svg>