<svg width="130" height="26" viewBox="0 0 130 26" fill="none" xmlns="http://www.w3.org/2000/svg">
<g clip-path="url(#clip0_54_438)">
<path d="M17.19 3.02L14.33 5.82C13.16 4.56 11.72 3.92 10.02 3.92C8.37 3.92 6.96 4.52 5.79 5.71C4.62 6.9 4.04 8.33 4.04 10C4.04 11.67 4.63 13.09 5.8 14.28C6.97 15.47 8.38 16.06 10.03 16.06C11.77 16.06 13.22 15.41 14.37 14.11L17.2 16.96C15.2 18.99 12.81 20.01 10 20.01C7.25 20.01 4.9 19.03 2.94 17.06C0.98 15.1 0 12.74 0 10C0 7.24 0.97 4.88 2.92 2.93C4.87 0.98 7.23 0 10 0C12.82 0 15.21 1.01 17.19 3.02Z" fill="#231F20"/>
<path d="M30.35 5.87988L21.48 25.6499H17.69L21.28 17.6299L15.79 5.87988H19.58L23.07 13.7299L26.56 5.87988H30.35Z" fill="#231F20"/>
<path d="M29.63 16.97L31.52 15.32C32.4 16.77 33.69 17.49 35.39 17.49C36.16 17.49 36.82 17.33 37.38 17C37.94 16.67 38.22 16.2 38.22 15.57C38.22 15.08 37.95 14.72 37.4 14.51C36.85 14.3 36.19 14.15 35.41 14.07C34.63 13.99 33.86 13.85 33.09 13.66C32.32 13.47 31.66 13.05 31.11 12.41C30.56 11.77 30.29 10.89 30.29 9.76996C30.29 8.50996 30.84 7.46996 31.94 6.66996C33.04 5.85996 34.32 5.45996 35.79 5.45996C37.91 5.45996 39.73 6.05996 41.23 7.23996L39.88 9.54996C38.74 8.51996 37.4 8.00996 35.84 8.00996C35.24 8.00996 34.7 8.14996 34.25 8.41996C33.79 8.68996 33.56 9.05996 33.56 9.51996C33.56 10.03 33.84 10.4 34.38 10.63C34.92 10.86 35.59 11.02 36.37 11.11C37.15 11.2 37.92 11.34 38.69 11.54C39.46 11.73 40.12 12.14 40.67 12.78C41.22 13.41 41.49 14.28 41.49 15.37C41.49 16.83 40.88 17.97 39.66 18.79C38.44 19.61 37.03 20.01 35.42 20.01C32.73 20.02 30.8 19 29.63 16.97Z" fill="#231F20"/>
<path d="M51.52 5.87988V8.89988H47.95V19.6099H44.46V8.89988H42.26V5.87988H44.46V2.02988L47.95 0.379883V5.87988H51.52Z" fill="#231F20"/>
<path d="M53.63 17.89C52.22 16.47 51.52 14.75 51.52 12.74C51.52 10.73 52.22 9.00996 53.63 7.58996C55.04 6.16996 56.75 5.45996 58.77 5.45996C60.78 5.45996 62.5 6.16996 63.92 7.58996C65.34 9.00996 66.05 10.73 66.05 12.74C66.05 14.75 65.34 16.47 63.92 17.89C62.5 19.31 60.78 20.02 58.77 20.02C56.75 20.02 55.04 19.31 53.63 17.89ZM56.09 9.97996C55.33 10.76 54.95 11.68 54.95 12.74C54.95 13.8 55.33 14.72 56.09 15.5C56.85 16.28 57.75 16.67 58.79 16.67C59.83 16.67 60.74 16.28 61.5 15.5C62.26 14.72 62.64 13.8 62.64 12.74C62.64 11.68 62.26 10.76 61.5 9.97996C60.74 9.19996 59.84 8.80996 58.79 8.80996C57.75 8.80996 56.85 9.19996 56.09 9.97996Z" fill="#231F20"/>
<path d="M80.63 19.61H77.11V12.33C77.11 11.05 76.87 10.11 76.38 9.49996C75.89 8.88996 75.14 8.58996 74.12 8.58996C73.09 8.58996 72.34 8.88996 71.85 9.49996C71.36 10.11 71.12 11.05 71.12 12.33V19.61H67.61V12.33C67.61 10.15 68.22 8.45996 69.45 7.25996C70.68 6.05996 72.23 5.45996 74.12 5.45996C75.97 5.45996 77.52 6.06996 78.76 7.29996C80 8.52996 80.63 10.2 80.63 12.33V19.61Z" fill="#231F20"/>
<path d="M96.17 13.4H85.52C85.68 14.48 86.11 15.37 86.81 16.08C87.5 16.79 88.39 17.14 89.47 17.14C90.99 17.14 92.34 16.55 93.51 15.38L95.38 17.28C93.92 19.11 91.87 20.03 89.26 20.03C87.17 20.03 85.47 19.33 84.15 17.92C82.83 16.51 82.17 14.79 82.17 12.76C82.17 10.75 82.86 9.02998 84.23 7.60998C85.6 6.18998 87.3 5.47998 89.31 5.47998C91.45 5.47998 93.13 6.19998 94.35 7.62998C95.56 9.05998 96.17 10.98 96.17 13.4ZM91.69 8.98998C91.03 8.40998 90.24 8.12998 89.33 8.12998C88.42 8.12998 87.61 8.40998 86.93 8.96998C86.24 9.52998 85.8 10.26 85.6 11.15H92.69C92.68 10.29 92.35 9.56998 91.69 8.98998Z" fill="#231F20"/>
<path d="M106.09 5.87988V8.89988H102.52V19.6099H99.03V8.89988H96.83V5.87988H99.03V2.02988L102.52 0.379883V5.87988H106.09Z" fill="#231F20"/>
<path d="M115.94 5.87988V8.89988H112.37V19.6099H108.89V8.89988H106.69V5.87988H108.89V2.02988L112.37 0.379883V5.87988H115.94Z" fill="#231F20"/>
<path d="M129.95 13.4H119.3C119.47 14.48 119.9 15.37 120.59 16.08C121.28 16.79 122.17 17.14 123.25 17.14C124.77 17.14 126.12 16.55 127.29 15.38L129.16 17.28C127.7 19.11 125.65 20.03 123.04 20.03C120.95 20.03 119.25 19.33 117.93 17.92C116.61 16.51 115.95 14.79 115.95 12.76C115.95 10.75 116.64 9.02998 118.01 7.60998C119.38 6.18998 121.08 5.47998 123.09 5.47998C125.23 5.47998 126.91 6.19998 128.13 7.62998C129.34 9.05998 129.95 10.98 129.95 13.4ZM125.47 8.98998C124.81 8.40998 124.02 8.12998 123.11 8.12998C122.2 8.12998 121.39 8.40998 120.71 8.96998C120.02 9.52998 119.58 10.26 119.38 11.15H126.47C126.46 10.29 126.13 9.56998 125.47 8.98998Z" fill="#231F20"/>
</g>
<defs>
<clipPath id="clip0_54_438">
<rect width="129.95" height="25.65" fill="white"/>
</clipPath>
</defs>
</svg>
