<svg width="40" height="40" viewBox="0 0 40 40" fill="none" xmlns="http://www.w3.org/2000/svg">
<path d="M21.6683 32.1621V33.3689C22.6643 33.3689 23.4748 34.1811 23.4748 35.1791C23.4748 36.1772 22.6643 36.9894 21.6683 36.9894C20.6724 36.9894 19.8619 36.1772 19.8619 35.1791C19.8619 31.5901 21.5154 29.2332 23.1225 27.3143L23.1081 27.3131L22.179 26.5631C20.9379 28.0475 19.677 29.7823 19.0556 32.0993C18.8376 30.9571 18.6576 29.5361 18.6576 27.9382C18.6576 27.4362 18.6371 26.9173 18.6034 26.3941L17.4189 26.2952L17.3906 26.2734C17.431 26.8394 17.4532 27.3994 17.4532 27.9382C17.4532 31.9298 18.4877 34.8418 18.6732 35.3312C18.7539 36.923 20.06 38.1962 21.6683 38.1962C23.3285 38.1962 24.6791 36.8427 24.6791 35.1791C24.6791 33.5155 23.3285 32.1621 21.6683 32.1621Z" fill="white"/>
<path d="M17.8984 21.6797C18.1008 22.5486 18.3248 23.6921 18.4765 24.9936C19.0455 24.5175 19.5965 24.0306 20.1264 23.5303C19.5375 22.8992 18.7981 22.2608 17.8984 21.6797V21.6797Z" fill="white"/>
<path d="M14.2826 20.0763L13.6678 19.9086L13.8695 19.3033C13.9171 19.1609 14.9606 16.1017 17.091 14.5581C17.0681 14.5352 17.0483 14.5135 17.0254 14.49L16.5497 14.0133L17.0747 13.5921C17.2 13.4919 20.0952 11.2303 25.2791 11.0626C25.2791 11.0572 25.2791 11.0517 25.2791 11.0463V10.3777L25.9433 10.4465C26.0613 10.4586 27.0555 10.5714 28.4025 10.9594C29.2003 8.61577 29.4273 6.90571 29.4803 6.36687C27.0362 2.52195 21.0291 2.0525 19.2052 2L18.6536 8.08357L17.4541 7.97435L17.8545 3.56524C17.2662 3.40836 16.1673 3.20199 14.4409 3.20199C11.8378 3.20199 9.53759 4.55604 8.6187 5.17755L11.9462 10.7355L10.9135 11.3565L8.57715 7.45421C4.26934 7.75531 3.25411 12.3074 3.04637 13.7128L8.68855 16.5397L8.14962 17.6192L3.88697 15.4832C3.53592 15.9924 3 17.0659 3 18.8906C3 20.2018 3.62985 22.0784 3.96104 22.9745C5.10513 22.633 7.82325 21.9077 10.2258 21.9077C13.1493 21.9077 15.7458 23.5025 17.2157 24.6266C16.9874 22.9401 16.6508 21.5848 16.4509 20.8716C15.797 20.5651 15.0774 20.2935 14.2826 20.0763V20.0763Z" fill="white"/>
<path d="M37.913 24.6047C37.9178 24.51 37.9244 24.4153 37.9244 24.3205C37.9244 21.3825 37.3175 19.667 37.0031 18.9755L32.0336 20.0822L31.7722 18.9043L35.3334 18.1115C33.6666 13.4743 28.3213 12.0894 26.4618 11.7461C26.3552 13.6601 25.8958 16.443 25.8729 16.5758L24.6849 16.3773C24.6897 16.3489 25.066 14.068 25.2172 12.2662C21.7518 12.4002 19.3962 13.5551 18.3851 14.164C20.4481 16.3857 21.0087 18.0221 21.0328 18.0958L19.8911 18.4801C19.8863 18.4657 19.4443 17.2208 17.9203 15.4552C16.5419 16.376 15.6333 18.1718 15.2383 19.1016C20.0001 20.6277 22.195 23.9356 23.0235 25.581C23.1036 25.4893 23.1831 25.3958 23.2632 25.3047C24.7535 23.6019 26.1614 21.9938 26.7689 19.9265L27.9239 20.268C27.241 22.5899 25.679 24.3742 24.1688 26.1C24.1484 26.1235 24.1279 26.147 24.108 26.1706C30.0483 26.5435 34.0688 29.508 35.4339 30.6738C36.062 29.8019 37.2904 27.9042 37.7468 25.8405C36.9447 25.5074 35.3135 24.9239 33.7094 24.9239V23.7171C35.3472 23.7171 36.9556 24.2306 37.913 24.6047V24.6047ZM28.2021 18.9731L27.0098 18.8072C27.0604 18.4433 27.0857 18.065 27.0857 17.683H28.29C28.29 18.1205 28.2605 18.5544 28.2021 18.9731Z" fill="white"/>
</svg>
