<svg width="40" height="40" viewBox="0 0 40 40" fill="none" xmlns="http://www.w3.org/2000/svg">
<path d="M35.7396 25.993C35.7526 25.9833 37.2173 24.9499 38.4977 22.7037C39.1061 21.6354 39.505 20.3413 39.7349 19.4273L38.7292 19.8295C38.6076 19.8782 38.4741 19.8892 38.3463 19.8608C38.2184 19.8324 38.1021 19.766 38.0126 19.6704C37.9231 19.5747 37.8646 19.4542 37.8447 19.3248C37.8249 19.1953 37.8446 19.0628 37.9014 18.9448C37.9119 18.9228 38.9753 16.6733 39.111 14.2053C39.181 13.0336 39.1145 11.8578 38.9128 10.7015L37.0451 11.0752C36.9229 11.101 36.7959 11.0913 36.6791 11.047C36.5623 11.0028 36.4607 10.926 36.3863 10.8258C36.3131 10.7269 36.2701 10.609 36.2623 10.4862C36.2545 10.3634 36.2823 10.241 36.3424 10.1336C36.5715 9.67302 36.8347 8.2879 36.21 6.30569C35.3164 3.46965 34.0604 1.63204 33.5843 1C32.5087 1.08936 30.3047 1.50205 27.8782 2.60771C25.9829 3.47209 25.1266 4.59562 24.9365 5.0733C24.8968 5.1896 24.8245 5.292 24.7281 5.36823C24.6317 5.44445 24.5153 5.49126 24.393 5.50305C24.2688 5.51468 24.1439 5.49049 24.0331 5.43333C23.9222 5.37617 23.83 5.28844 23.7675 5.18053L22.7959 3.54683C21.7991 4.17153 20.878 4.90948 20.0508 5.74595C18.3026 7.49908 17.3383 9.79325 17.3285 9.816C17.2784 9.93657 17.193 10.0392 17.0837 10.1106C16.9743 10.182 16.846 10.2187 16.7154 10.2161C16.5848 10.2135 16.4581 10.1716 16.3517 10.0959C16.2453 10.0201 16.1642 9.91412 16.1189 9.79163L15.7452 8.77696C15.2179 9.55929 14.5193 10.7218 14.1302 11.89C14.0237 12.2093 13.9352 12.5164 13.8605 12.8096V12.8121C13.3592 14.7878 13.5241 16.1185 13.5258 16.1339C13.543 16.2656 13.5195 16.3994 13.4584 16.5174C13.3974 16.6353 13.3016 16.7317 13.1841 16.7935C13.0665 16.8554 12.9329 16.8798 12.8011 16.8634C12.6693 16.847 12.5457 16.7906 12.4469 16.7018L11.641 15.9779C11.4785 16.8521 11.3291 18.1901 11.5387 19.5874C11.8961 21.9733 12.823 23.408 12.832 23.4218C12.9094 23.5391 12.9467 23.6782 12.9383 23.8185C12.93 23.9587 12.8764 24.0925 12.7856 24.1997C12.6949 24.3069 12.5718 24.3819 12.4349 24.4133C12.2979 24.4447 12.1545 24.4309 12.0261 24.3739L11.3047 24.0539C11.3039 24.6436 11.4176 25.5478 11.9132 26.673C11.9317 26.7047 11.9478 26.7378 11.9611 26.7721C11.966 26.7851 11.97 26.7989 11.9749 26.8127C12.1112 27.1081 12.2625 27.3964 12.4282 27.6763C12.7457 28.2225 13.1056 28.743 13.5046 29.2328C13.5859 29.331 13.6365 29.4508 13.6502 29.5775C13.6638 29.7042 13.64 29.8321 13.5816 29.9453C13.5231 30.0585 13.4327 30.1521 13.3215 30.2143C13.2104 30.2766 13.0833 30.3048 12.9563 30.2954L12.546 30.2654C12.8867 30.5953 13.2517 30.8991 13.6379 31.1744C14.8589 32.0404 16.1441 32.5002 17.4756 32.5514C17.4902 32.5514 17.5048 32.5522 17.5194 32.553C17.9592 32.5665 18.3991 32.5369 18.8331 32.4645L19.4984 30.9738C18.0158 30.2677 16.638 29.3601 15.404 28.2766C14.4892 27.4902 13.7223 26.4463 13.347 25.8939C13.299 25.8233 13.2654 25.744 13.248 25.6604C13.2307 25.5769 13.23 25.4907 13.2459 25.4068C13.2619 25.323 13.2942 25.2431 13.341 25.1717C13.3879 25.1004 13.4483 25.039 13.5188 24.9909C13.5894 24.9429 13.6688 24.9093 13.7523 24.8919C13.8359 24.8746 13.9221 24.8739 14.0059 24.8898C14.0898 24.9058 14.1696 24.9381 14.241 24.9849C14.3124 25.0318 14.3738 25.0922 14.4218 25.1628C14.7614 25.6616 15.4503 26.6023 16.2513 27.2912C17.3909 28.2911 18.6618 29.1305 20.0289 29.786L21.3474 26.8298C20.1889 26.1904 17.3228 24.3406 14.7021 20.5208C14.2114 19.8059 13.78 18.8652 13.5054 18.2014C13.4727 18.1226 13.4559 18.0381 13.4559 17.9527C13.4558 17.8674 13.4726 17.7829 13.5052 17.704C13.5378 17.6251 13.5857 17.5535 13.646 17.4931C13.7063 17.4327 13.778 17.3848 13.8568 17.3521C14.016 17.2861 14.195 17.286 14.3542 17.3519C14.4331 17.3845 14.5048 17.4323 14.5652 17.4927C14.6255 17.553 14.6734 17.6246 14.7061 17.7034C14.9117 18.1998 15.3244 19.13 15.7736 19.7856C17.3878 22.1366 19.102 23.6761 20.2564 24.5535C20.7733 24.9497 21.3158 25.3114 21.8803 25.6364L23.2134 22.6492C22.0932 21.7727 19.1296 19.1601 17.4772 14.9405C16.9556 13.609 16.5316 12.0549 16.5137 11.9899C16.49 11.9072 16.483 11.8205 16.493 11.735C16.5031 11.6494 16.5301 11.5668 16.5724 11.4918C16.6147 11.4167 16.6714 11.3509 16.7394 11.298C16.8074 11.2451 16.8852 11.2063 16.9683 11.1837C17.0514 11.1612 17.1381 11.1554 17.2235 11.1666C17.3089 11.1779 17.3912 11.206 17.4656 11.2494C17.54 11.2927 17.605 11.3504 17.657 11.4191C17.7089 11.4878 17.7466 11.5661 17.768 11.6496C17.7729 11.665 18.1921 13.202 18.6868 14.4669C20.0988 18.069 22.6025 20.4534 23.7634 21.4177L25.129 18.3566C24.3881 17.6019 22.6042 15.6335 21.5805 13.2321C20.5309 10.7714 20.2361 9.32126 20.2239 9.26033C20.1921 9.09209 20.228 8.91812 20.3238 8.7762C20.4195 8.63428 20.5674 8.53588 20.7353 8.50239C20.9032 8.46889 21.0776 8.503 21.2205 8.59731C21.3634 8.69162 21.4633 8.8385 21.4985 9.00605C21.5017 9.02311 21.7877 10.4042 22.7764 12.7227C23.5701 14.5855 24.9097 16.2062 25.7034 17.0698L27.1145 13.9072C26.658 13.2036 25.5612 11.4034 24.9503 9.42849C24.4897 7.9402 24.2744 7.07989 24.2655 7.04414C24.2425 6.96057 24.2364 6.87324 24.2476 6.78729C24.2589 6.70134 24.2872 6.6185 24.3309 6.54366C24.3746 6.46882 24.4329 6.40348 24.5023 6.35149C24.5716 6.29951 24.6507 6.26192 24.7348 6.24095C24.8189 6.21997 24.9064 6.21604 24.992 6.22937C25.0777 6.24271 25.1598 6.27304 25.2335 6.31859C25.3073 6.36413 25.3712 6.42397 25.4215 6.49459C25.4717 6.5652 25.5074 6.64516 25.5263 6.72975C25.5287 6.73787 25.744 7.59413 26.1925 9.04505C26.6011 10.366 27.2656 11.6317 27.7571 12.4684L29.4103 8.76396C29.1563 8.2055 28.9368 7.63196 28.7531 7.04658C28.2925 5.55748 28.0772 4.69798 28.0683 4.66223C28.0298 4.4962 28.058 4.32169 28.147 4.1763C28.2359 4.0309 28.3784 3.92627 28.5437 3.88493C28.7091 3.84359 28.8841 3.86886 29.031 3.9553C29.1778 4.04173 29.2849 4.18241 29.3291 4.34703C29.3315 4.35596 29.546 5.21222 29.9952 6.66232C30.0407 6.81099 30.0908 6.96209 30.1455 7.11563L32.1716 2.57603C32.2432 2.42072 32.3731 2.29988 32.5331 2.23971C32.6932 2.17953 32.8705 2.18487 33.0267 2.25456C33.1829 2.32425 33.3053 2.45267 33.3674 2.612C33.4295 2.77133 33.4263 2.94871 33.3585 3.1057L31.334 7.64125C31.4851 7.57869 31.6306 7.51533 31.7719 7.45034C33.153 6.8118 33.9345 6.39749 33.9418 6.39342C34.0172 6.35336 34.0997 6.32854 34.1847 6.32037C34.2696 6.31221 34.3554 6.32086 34.437 6.34583C34.5186 6.3708 34.5945 6.4116 34.6604 6.4659C34.7262 6.52021 34.7807 6.58695 34.8208 6.66232C34.8609 6.73769 34.8857 6.82022 34.8938 6.90518C34.902 6.99015 34.8934 7.07589 34.8684 7.15751C34.8434 7.23914 34.8026 7.31504 34.7483 7.3809C34.694 7.44675 34.6273 7.50126 34.5519 7.54132C34.5194 7.5592 33.7346 7.97432 32.317 8.62992C31.7576 8.88531 31.1833 9.10668 30.5972 9.29282L28.9456 12.9949C29.8977 12.7983 31.2845 12.4441 32.5421 11.8624C33.9231 11.2239 34.7046 10.8104 34.7127 10.8055C34.8651 10.7247 35.0433 10.7077 35.2081 10.7583C35.373 10.8089 35.511 10.9229 35.5917 11.0752C35.6725 11.2275 35.6895 11.4057 35.6389 11.5706C35.5884 11.7354 35.4744 11.8734 35.322 11.9542C35.2895 11.9713 34.5048 12.3872 33.088 13.042C31.2065 13.912 29.1309 14.3044 28.3022 14.4352L26.8919 17.5962C28.0674 17.6068 30.1707 17.5133 32.0887 16.8553C34.4812 16.0348 35.7014 15.3215 35.7136 15.3142C35.8617 15.2298 36.037 15.207 36.2017 15.2506C36.3664 15.2942 36.5075 15.4008 36.5944 15.5474C36.6813 15.694 36.7072 15.8688 36.6664 16.0343C36.6257 16.1998 36.5216 16.3426 36.3765 16.4321C36.3237 16.4637 35.045 17.216 32.5104 18.0853C30.5038 18.7734 28.3737 18.9001 27.0763 18.9001C26.7733 18.9001 26.5166 18.8928 26.3168 18.8847L24.9511 21.9441C26.4475 22.1586 29.8986 22.4177 33.5259 21.0529C34.7997 20.5736 36.2262 19.8546 36.24 19.8473C36.3162 19.8088 36.3992 19.7857 36.4843 19.7793C36.5694 19.7728 36.655 19.7832 36.7361 19.8098C36.8172 19.8365 36.8922 19.8788 36.957 19.9345C37.0217 19.9901 37.0748 20.0579 37.1133 20.1341C37.1519 20.2103 37.175 20.2933 37.1814 20.3784C37.1879 20.4635 37.1775 20.5491 37.1508 20.6301C37.1242 20.7112 37.0819 20.7863 37.0262 20.851C36.9706 20.9158 36.9027 20.9689 36.8266 21.0074C36.7656 21.0383 35.3245 21.7646 33.984 22.269C31.8949 23.042 29.684 23.4336 27.4565 23.4251C26.4329 23.4285 25.4108 23.3456 24.4011 23.1773L23.0688 26.162C24.2671 26.5536 27.3298 27.3302 31.5128 26.7721C32.3024 26.6665 33.2716 26.3488 33.7793 26.1693C33.9419 26.1118 34.1206 26.1212 34.2763 26.1955C34.4319 26.2697 34.5516 26.4028 34.6092 26.5653C34.6667 26.7279 34.6573 26.9067 34.583 27.0623C34.5087 27.2179 34.3757 27.3377 34.2131 27.3952C33.5348 27.6349 32.5453 27.9452 31.685 28.0605C30.6525 28.1989 29.612 28.2689 28.5703 28.2701C25.5994 28.2701 23.4815 27.6828 22.5359 27.357L21.2166 30.3133C22.6198 30.8874 24.095 31.2671 25.601 31.4417C26.6246 31.5709 27.7612 31.4587 28.3477 31.3816C28.5181 31.3599 28.6901 31.4065 28.8262 31.5113C28.9622 31.616 29.0513 31.7703 29.074 31.9406C29.0966 32.1108 29.051 32.2831 28.947 32.4197C28.8431 32.5564 28.6892 32.6464 28.5191 32.67C27.8919 32.7537 27.2599 32.7971 26.6271 32.8C26.2299 32.8019 25.8329 32.7789 25.4386 32.7309C23.8053 32.542 22.206 32.1281 20.6861 31.501L20.0208 32.9925C20.4879 33.7268 21.0973 34.3601 21.8129 34.8553C21.8259 34.8635 21.8381 34.8716 21.8511 34.8805C22.642 35.4087 23.5266 35.7809 24.4572 35.9772C24.9216 36.0795 25.393 36.1466 25.8675 36.1779L25.5726 35.896C25.4804 35.808 25.4161 35.6948 25.3877 35.5706C25.3593 35.4463 25.3681 35.3165 25.413 35.1972C25.4578 35.0778 25.5367 34.9744 25.64 34.8996C25.7432 34.8248 25.8661 34.782 25.9934 34.7765C26.6257 34.7442 27.2545 34.6625 27.8741 34.532C29.689 34.1624 30.7597 33.4483 31.3243 32.9405L30.607 32.6221C30.4781 32.5651 30.3713 32.4679 30.3026 32.345C30.2338 32.2221 30.2068 32.0801 30.2257 31.9406C30.2446 31.801 30.3083 31.6713 30.4072 31.5711C30.5062 31.4709 30.635 31.4055 30.7743 31.3848C30.7897 31.3824 32.4787 31.1094 34.4967 29.7771C35.677 28.998 36.5723 27.9931 37.1158 27.288L36.0394 27.175C35.9072 27.1611 35.7825 27.107 35.6821 27.02C35.5816 26.933 35.5103 26.8173 35.4776 26.6885C35.4449 26.5597 35.4525 26.424 35.4994 26.2996C35.5462 26.1753 35.6301 26.0683 35.7396 25.993V25.993Z" fill="white"/>
<path d="M20.9107 36.6629C20.0504 37.286 18.9992 37.732 18.4492 37.9432C18.2882 38.005 18.1094 38.0002 17.9519 37.9301C17.7944 37.8599 17.6713 37.7301 17.6096 37.5691C17.5479 37.4082 17.5526 37.2293 17.6227 37.0718C17.6929 36.9144 17.8227 36.7912 17.9837 36.7295C18.4744 36.5419 19.4078 36.1462 20.1479 35.6101C20.2397 35.5434 20.3298 35.4768 20.4184 35.4102C19.8594 34.93 19.3705 34.3738 18.9659 33.7578C18.5315 33.8247 18.0925 33.856 17.653 33.8512C17.6059 33.8805 17.5604 33.9089 17.5125 33.939C16.6367 34.4882 15.5457 35.173 14.042 35.6994C13.4419 35.9045 12.8277 36.066 12.2044 36.1828C12.1652 36.1899 12.1255 36.1934 12.0858 36.1933C11.9234 36.1936 11.7669 36.1332 11.6469 36.0238C11.5269 35.9145 11.4522 35.7642 11.4374 35.6026C11.4227 35.4409 11.4689 35.2796 11.5671 35.1503C11.6653 35.0211 11.8083 34.9332 11.968 34.9041C12.5256 34.7993 13.0751 34.6549 13.6122 34.4719C14.3079 34.2274 14.9807 33.9221 15.6229 33.5596C14.6246 33.2743 13.6842 32.8159 12.8445 32.2054C12.5886 32.0218 12.353 31.8349 12.1369 31.6505C11.3711 31.8831 10.5887 32.0569 9.79647 32.1704C8.86141 32.302 7.8305 32.3621 7.29838 32.3865C7.28864 32.3873 7.27889 32.3873 7.26833 32.3873C7.09909 32.3863 6.93691 32.3194 6.81629 32.2006C6.69566 32.0819 6.6261 31.9209 6.6224 31.7517C6.6187 31.5825 6.68114 31.4185 6.79646 31.2946C6.91177 31.1707 7.07086 31.0967 7.23989 31.0883C7.64852 31.0696 8.69975 31.012 9.61449 30.8828C10.1027 30.8133 10.587 30.7187 11.0654 30.5993C10.8549 30.3663 10.6588 30.1208 10.4781 29.8641C10.4097 29.763 10.3712 29.6447 10.3669 29.5228C10.3627 29.4008 10.3928 29.2801 10.4539 29.1745C10.515 29.0689 10.6046 28.9826 10.7125 28.9256C10.8204 28.8685 10.9421 28.8429 11.0638 28.8518L11.652 28.8949C11.5358 28.7145 11.4207 28.5277 11.3067 28.3343C11.2019 28.1572 11.106 27.9834 11.0175 27.812C10.4116 28.0196 9.79038 28.1796 9.15956 28.2905C7.25939 28.6162 6.03269 28.6504 5.60781 28.6504C5.5087 28.6504 5.45265 28.6479 5.4429 28.6479C5.27064 28.6418 5.10787 28.5675 4.99041 28.4413C4.87295 28.3152 4.81041 28.1475 4.81655 27.9753C4.82269 27.803 4.89701 27.6402 5.02316 27.5228C5.1493 27.4053 5.31694 27.3428 5.4892 27.3489C5.51439 27.3497 6.75652 27.3838 8.94021 27.0093C9.46579 26.917 9.98386 26.7861 10.4902 26.6178C10.1691 25.7648 10.0064 24.8605 10.0101 23.9491C9.12706 24.2147 7.85487 24.5291 6.55749 24.6161C5.60294 24.6794 4.92378 24.7038 4.60289 24.7127C4.59696 24.7134 4.59099 24.7137 4.58502 24.7135C4.41265 24.7159 4.2464 24.6497 4.12285 24.5295C3.99929 24.4093 3.92855 24.2449 3.92618 24.0726C3.92381 23.9002 3.99 23.734 4.11021 23.6104C4.23042 23.4868 4.39478 23.4161 4.56715 23.4137C4.87748 23.4048 5.53795 23.3812 6.47056 23.3187C7.61928 23.2423 8.77124 22.9596 9.58444 22.7175L6.86945 20.6484C6.34335 20.7499 5.81164 20.8199 5.27717 20.858C3.89693 20.9506 3.10973 20.9603 3.07642 20.9611H3.06911C2.89674 20.9621 2.73105 20.8946 2.60848 20.7734C2.48592 20.6522 2.41652 20.4872 2.41555 20.3149C2.41458 20.1425 2.48212 19.9768 2.60331 19.8543C2.72451 19.7317 2.88943 19.6623 3.0618 19.6613C3.06911 19.6613 3.84981 19.6508 5.19025 19.5614C5.26417 19.5565 5.34054 19.5484 5.41609 19.5411L2.34527 17.2014C2.20814 17.0969 2.11812 16.9422 2.09504 16.7714C2.07196 16.6005 2.1177 16.4275 2.2222 16.2903C2.3267 16.1532 2.48139 16.0632 2.65225 16.0401C2.82312 16.017 2.99615 16.0628 3.13329 16.1672L6.20573 18.5094C6.19192 18.433 6.17811 18.3583 6.16267 18.2843C5.89377 16.9683 5.69636 16.2127 5.69474 16.2054C5.67037 16.1221 5.66297 16.0347 5.67297 15.9484C5.68296 15.8621 5.71015 15.7787 5.75292 15.7031C5.7957 15.6275 5.85319 15.5612 5.92201 15.5082C5.99083 15.4552 6.06957 15.4166 6.15358 15.3945C6.23759 15.3725 6.32518 15.3675 6.41115 15.3799C6.49712 15.3922 6.57974 15.4217 6.65413 15.4666C6.72851 15.5114 6.79315 15.5707 6.84423 15.641C6.8953 15.7112 6.93178 15.791 6.9515 15.8756C6.96043 15.9073 7.15947 16.6685 7.43649 18.0244C7.54162 18.5494 7.61514 19.0803 7.65665 19.6142L10.7754 21.9904C10.5382 21.2692 10.3627 20.5292 10.2506 19.7783C9.84602 17.0804 10.6072 14.6643 10.6397 14.5628C10.6729 14.4596 10.7314 14.3664 10.8099 14.2916C10.8884 14.2168 10.9843 14.1628 11.0889 14.1346C11.1935 14.1063 11.3036 14.1047 11.409 14.1298C11.5145 14.1549 11.6119 14.206 11.6926 14.2785L12.2255 14.757C12.2664 14.2106 12.3421 13.6673 12.4522 13.1306C11.8001 12.9891 11.1378 12.8997 10.4716 12.8633L10.1775 14.3629C10.1578 14.4639 10.1144 14.5586 10.0509 14.6395C9.9874 14.7204 9.90564 14.7851 9.8123 14.8282C9.71897 14.8714 9.61673 14.8917 9.51399 14.8877C9.41125 14.8836 9.31094 14.8552 9.2213 14.8049C8.78911 14.5612 7.81669 14.172 6.15617 14.2915C3.59228 14.4767 1.7831 15.1542 1.11126 15.4426C1.01215 16.1689 0.839113 18.1048 1.33873 20.6134C1.69212 22.3909 2.46876 23.3422 2.83433 23.6006C2.93873 23.6655 3.02207 23.7593 3.07427 23.8706C3.12646 23.9819 3.14527 24.106 3.12841 24.2277C3.11133 24.3516 3.05897 24.4679 2.97758 24.5629C2.8962 24.6578 2.78922 24.7273 2.66942 24.7631L1.13645 25.2424C1.46786 26.1958 1.9058 27.1087 2.44195 27.9639C3.59553 29.821 5.36085 31.1021 5.37872 31.1151C5.48476 31.1916 5.56526 31.2983 5.6097 31.4213C5.65414 31.5443 5.66045 31.6778 5.62781 31.8044C5.59517 31.9311 5.52509 32.0449 5.42674 32.131C5.32838 32.2172 5.20632 32.2717 5.07651 32.2874L4.27225 32.3841C4.83523 32.9812 5.64437 33.7513 6.512 34.2875C8.44385 35.4801 10.0061 35.662 10.0215 35.6637C10.1533 35.6777 10.2777 35.7318 10.378 35.8185C10.4783 35.9053 10.5496 36.0207 10.5824 36.1491C10.6152 36.2776 10.6079 36.413 10.5615 36.5373C10.5151 36.6615 10.4319 36.7685 10.3229 36.8441L9.64618 37.3128C10.3635 37.6183 11.4229 37.9798 12.5927 38.0781C14.7057 38.2552 16.1184 37.7572 16.1323 37.7515C16.2643 37.7038 16.4081 37.7 16.5425 37.7408C16.6768 37.7815 16.7943 37.8646 16.8775 37.9776C16.9608 38.0906 17.0052 38.2275 17.0043 38.3679C17.0034 38.5082 16.9571 38.6445 16.8723 38.7564L16.5206 39.2179C17.1762 39.3543 18.2583 39.4185 19.7238 38.9668C20.2558 38.8062 20.7743 38.6042 21.2747 38.3624C21.3889 38.3062 21.5171 38.2848 21.6435 38.3008C21.7698 38.3168 21.8886 38.3696 21.9852 38.4526C22.0818 38.5356 22.1518 38.6451 22.1867 38.7676C22.2215 38.8901 22.2197 39.0201 22.1813 39.1415L22.1358 39.2861C22.8028 38.836 23.5924 38.1674 24.1903 37.2478C23.2491 37.0462 22.3465 36.694 21.5176 36.2047C21.3226 36.3574 21.1203 36.511 20.9107 36.6629Z" fill="white"/>
</svg>
