<svg width="40" height="40" viewBox="0 0 40 40" fill="none" xmlns="http://www.w3.org/2000/svg">
<g clip-path="url(#clip0_1656_87)">
<path d="M36.2448 29.1147C35.4188 29.6654 34.4574 29.9564 33.4647 29.9564C32.8616 29.9564 32.2696 29.849 31.705 29.6373L27.9531 28.2305C28.2645 28.6884 28.5486 29.1677 28.7997 29.6695L29.0167 30.1031L31.2204 30.9295C31.9405 31.1996 32.6957 31.3366 33.4648 31.3366C34.7309 31.3366 35.957 30.9653 37.0104 30.263L37.6442 29.8405L36.8787 28.6922L36.2448 29.1147Z" fill="white"/>
<path d="M24.6084 33.3638L25.0801 32.0667L27.4827 32.9405C28.5916 33.3437 29.7175 33.68 30.8567 33.9516C30.0791 32.9152 28.9827 32.1509 27.7047 31.7857C26.4997 31.4413 25.3945 30.791 24.5084 29.905L22.976 28.3727L23.9519 27.3967L25.4842 28.9291C26.0767 29.5216 26.79 29.9842 27.5696 30.2858C26.5411 28.2305 24.9013 26.5445 22.8414 25.454C17.9652 22.8723 13.8304 19.042 10.8841 14.377L8.44898 10.5214C7.6743 9.29477 6.34563 8.5625 4.89492 8.5625C2.57711 8.56242 0.691406 10.4482 0.691406 12.766C0.691406 13.9507 1.02102 15.1093 1.64453 16.1166L5.385 22.1588C7.98711 26.3623 12.0323 29.4455 16.7752 30.8405C19.6022 31.672 22.1834 33.0501 24.4474 34.9367L25.7156 35.9936C27.9848 37.8847 30.8614 38.9261 33.8154 38.9261C35.4848 38.9261 36.8811 37.7343 37.1983 36.1569C33.7154 36.0752 30.2922 35.4306 27.0111 34.2376L24.6084 33.3638ZM4.06891 15.772L2.83445 15.1547L2.94219 14.9393C3.84102 13.1416 5.47484 11.831 7.42477 11.3434L7.75953 12.6823C6.20102 13.072 4.895 14.1195 4.17656 15.5565L4.06891 15.772ZM6.13914 19.9124L4.90469 19.2952C5.87773 17.3491 7.65953 15.9882 9.79297 15.5616L10.2171 15.4768L10.4878 16.8302L10.0637 16.9149C8.35078 17.2573 6.92039 18.3499 6.13914 19.9124ZM9.93648 23.1919L9.61297 24.0005L8.33156 23.488L8.655 22.6794C9.39875 20.82 11.0026 19.42 12.9454 18.9343L13.2802 20.2731C11.7662 20.6518 10.5162 21.7429 9.93648 23.1919ZM13.0995 27.33L11.7461 27.0592C12.2201 24.6891 14.0578 22.8516 16.428 22.3774L16.6987 23.7308C14.8766 24.0953 13.4638 25.508 13.0995 27.33ZM16.5981 29.3581L16.4904 29.5735L15.2559 28.9563L15.3637 28.7409C16.2625 26.9432 17.8963 25.6326 19.8463 25.145L20.181 26.4838C18.6225 26.8736 17.3166 27.9212 16.5981 29.3581ZM20.6309 30.9538L19.3964 30.3365C19.9077 29.314 20.7525 28.4691 21.7752 27.9577L22.3925 29.1921C21.6352 29.5707 21.0095 30.1964 20.6309 30.9538ZM28.6775 35.5916C29.9759 36.4571 31.41 37.0512 32.9402 37.3572L33.9508 37.5593L33.6801 38.9127L32.6695 38.7105C30.9616 38.369 29.361 37.7059 27.912 36.7398L28.6775 35.5916Z" fill="white"/>
<path d="M18.1082 11.9934L17.7734 10.6546L18.9673 10.3562C18.2935 9.66828 17.5776 9.01898 16.8195 8.41258L17.6817 7.33484C19.6497 8.9093 21.355 10.7517 22.7679 12.8236C22.648 8.55164 19.1359 5.11328 14.8355 5.11328H13.8984L14.1762 7.19727C14.6955 11.092 18.0276 14.0349 21.9473 14.0821C21.3639 13.1809 20.7234 12.3236 20.0285 11.5134L18.1082 11.9934Z" fill="white"/>
<path d="M3.0857 7.48438C2.83328 6.88688 2.24586 6.49219 1.58906 6.49219C0.711484 6.49219 0 7.20367 0 8.08133C0 8.39508 0.0928906 8.7018 0.266875 8.96281L0.505078 9.32C1.16437 8.48219 2.05742 7.83742 3.0857 7.48438Z" fill="white"/>
<path d="M3.37102 27.9026L2.94078 26.9345C2.36406 25.6366 2.07156 24.2585 2.07156 22.8384C2.07156 21.8895 2.20273 20.9594 2.46156 20.0592L1.52539 18.5469C0.972266 19.9147 0.691406 21.3565 0.691406 22.8384C0.691406 24.4529 1.02383 26.0196 1.67961 27.495L2.10984 28.463C3.00023 30.4666 3.45172 32.5939 3.45172 34.7862H4.83188C4.83188 34.096 4.78945 33.412 4.70758 32.7352L5.90344 33.3332L6.52062 32.0987L4.41492 31.0459C4.17195 29.973 3.82453 28.923 3.37102 27.9026Z" fill="white"/>
<path d="M11.2375 33.2591C8.38359 31.1834 6.33484 28.1214 5.4793 24.7134C5.02758 24.1287 4.6032 23.5194 4.2107 22.8852L3.57812 21.8633L3.8407 23.5698C4.17266 25.7275 4.91695 27.7666 6.05305 29.6309C6.94211 31.0896 8.03727 32.3835 9.31734 33.493L10.3724 37.7132L11.7113 37.3784L11.0884 34.8867C12.253 35.8361 13.2648 36.9487 14.102 38.2046L15.2981 39.9989L16.4465 39.2334L15.2503 37.4391C14.167 35.8141 12.8169 34.4078 11.2375 33.2591Z" fill="white"/>
<path d="M25.7345 6.98133L26.7104 6.00539L27.7539 7.04891L28.3062 4.28781L29.6595 4.55859L29.028 7.71656C28.9298 8.20719 28.8179 8.69438 28.694 9.17813L30.1069 8.61305L30.6195 9.89445L28.2072 10.8594C27.9571 11.6317 27.6737 12.3924 27.3584 13.1394C30.3221 12.3585 32.4334 9.65414 32.4334 6.55719C32.4334 5.69625 32.256 4.8607 31.9064 4.07391L30.0957 0L26.6063 2.79148C25.0467 4.03914 24.1523 5.90016 24.1523 7.89734C24.1523 9.50594 24.7058 11.0835 25.7105 12.3395L26.0297 12.7384C26.5956 11.4173 27.0559 10.05 27.4039 8.6507L25.7345 6.98133Z" fill="white"/>
<path d="M29.2895 16.6373L29.7243 16.0286C28.3183 16.2615 26.9236 16.5655 25.5462 16.9413L25.3755 16.9877C26.1338 15.7573 26.7973 14.4702 27.3589 13.1391C27.2277 13.1738 27.0955 13.2059 26.9612 13.2327L26.4997 13.3249L26.0303 12.7383C25.5959 13.7524 25.0982 14.7389 24.5425 15.6923L23.5676 14.0676C23.3133 13.6438 23.0464 13.2295 22.7693 12.8232C22.7713 12.8983 22.7727 12.9734 22.7727 13.049V14.0841H22.0439C22.012 14.0841 21.9804 14.0823 21.9486 14.0819C22.097 14.3113 22.243 14.5427 22.3841 14.7777L23.723 17.0094C23.2093 17.7844 22.6555 18.5338 22.0619 19.2531C20.5592 18.482 18.9116 17.9963 17.2211 17.8426L15.0742 17.6474C15.5417 18.1704 16.0274 18.6765 16.5297 19.1655L17.0962 19.217C19.6759 19.4516 22.1448 20.5484 24.0482 22.3054L27.3098 25.3159C29.0945 26.9634 31.2968 28.0859 33.6786 28.5624L33.9493 27.2091C32.6803 26.9553 31.4691 26.4951 30.3588 25.8545L32.652 25.09L32.2155 23.7805L28.9216 24.8785C28.6899 24.6948 28.4642 24.5031 28.2461 24.3017L26.141 22.3586C27.7859 22.2972 29.3716 21.7854 30.7463 20.8689L29.9808 19.7205C28.7401 20.5476 27.2962 20.9848 25.8052 20.9848H24.6397C24.2054 20.6115 23.7475 20.2673 23.2696 19.9548C23.5923 19.5572 23.904 19.1514 24.2038 18.7376L25.909 18.2726C27.3973 17.8666 28.9066 17.5471 30.4288 17.3137C30.3445 17.2675 30.2608 17.2201 30.1783 17.1705L29.2895 16.6373Z" fill="white"/>
<path d="M38.391 14.1132C37.4817 13.2039 36.2728 12.7031 34.9869 12.7031C33.18 12.7031 31.4743 13.5809 30.4241 15.0513L29.7266 16.0279C30.8008 15.8499 31.8816 15.7141 32.9665 15.6202L33.8892 13.7747L35.1237 14.392L34.5634 15.5125C35.2337 15.4802 35.9049 15.4635 36.5767 15.4635V16.8437C34.5175 16.8437 32.463 17.0014 30.4313 17.313C31.5195 17.9095 32.742 18.2239 33.9857 18.2239H34.5839C35.7079 18.2239 36.8024 17.8277 37.6659 17.108L39.6949 15.4171L38.391 14.1132Z" fill="white"/>
</g>
<defs>
<clipPath id="clip0_1656_87">
<rect width="40" height="40" fill="white"/>
</clipPath>
</defs>
</svg>
