<svg width="40" height="40" viewBox="0 0 40 40" fill="none" xmlns="http://www.w3.org/2000/svg">
<path d="M7.00168 19.3256H16.8394L21.9238 10.5187L17.0054 2H7.00168L2 10.6628L7.00168 19.3256ZM8.00547 3.33274H16.2355L20.2751 10.3296L19.121 10.996L15.4686 4.66548H8.00547V3.33274Z" fill="white"/>
<path d="M16.8394 20.6602H7.00168L2 29.323L7.00168 37.9858H17.0054L21.9238 29.4668L16.8394 20.6602ZM15.8506 36.653H7.77152L3.73198 29.6562L4.88609 28.9898L8.53843 35.3203H15.8506V36.653Z" fill="white"/>
<path d="M32.9996 28.6538L38.0013 19.9909L32.9996 11.3281H23.1618L18.1602 19.9909L23.1618 28.6538H32.9996ZM24.1507 25.9883H31.4628L35.1178 19.6578L36.2722 20.3241L32.2297 27.321H24.1507V25.9883Z" fill="white"/>
</svg>
