<svg width="55" height="40" viewBox="0 0 55 40" fill="none" xmlns="http://www.w3.org/2000/svg">
<path d="M42.2273 26.2273C41.0307 26.2273 39.9488 26.6307 39.1102 27.274L32.571 22.8687C33.2307 21.8741 33.6364 20.7327 33.6364 19.5C33.6364 18.3158 33.2571 17.2185 32.6447 16.2508L37.1275 13.3543C37.9749 14.0307 39.0874 14.4546 40.3182 14.4546C42.9497 14.4546 45.0909 12.5683 45.0909 10.25C45.0909 7.93178 42.9497 6.0454 40.3182 6.0454C37.6867 6.0454 35.5455 7.9317 35.5455 10.2499C35.5455 10.8765 35.7125 11.4661 35.9927 12.0009L31.5286 14.8855C30.1359 13.5912 28.1794 12.7728 26 12.7728C25.3917 12.7728 24.8074 12.8519 24.2399 12.9709L23.1405 10.3873C24.8419 9.51157 26 7.90316 26 6.04548C26 3.26321 23.431 1 20.2728 1C17.1145 1 14.5455 3.26321 14.5455 6.04548C14.5455 8.82775 17.1145 11.091 20.2728 11.091C20.645 11.091 21.0072 11.0542 21.3599 10.9941L22.4585 13.5761C20.4324 14.5207 18.9377 16.2221 18.5049 18.2693L14.4767 18.061C14.1434 16.0275 12.1718 14.4546 9.7727 14.4546C7.1412 14.4546 5 16.3409 5 18.6591C5 20.9773 7.1412 22.8636 9.7727 22.8636C11.9776 22.8636 13.8202 21.5326 14.3655 19.7395L18.4152 19.9489C18.5464 21.6608 19.3807 23.2004 20.6997 24.325L17.1549 28.489C16.3687 28.1308 15.4901 27.909 14.5455 27.909C11.3873 27.909 8.81821 30.1723 8.81821 32.9545C8.81821 35.7368 11.3873 38 14.5455 38C17.7037 38 20.2728 35.7368 20.2728 32.9545C20.2728 31.6105 19.6642 30.395 18.6885 29.4898L22.2391 25.3189C23.3541 25.8806 24.6263 26.2272 26 26.2272C28.125 26.2272 30.0462 25.4558 31.4318 24.2176L37.9474 28.607C37.6415 29.1612 37.4546 29.7752 37.4546 30.4318C37.4546 32.75 39.5958 34.6363 42.2273 34.6363C44.8588 34.6363 47 32.75 47 30.4318C47 28.1135 44.8588 26.2273 42.2273 26.2273ZM40.3182 7.7272C41.8974 7.7272 43.1819 8.85881 43.1819 10.2499C43.1819 11.6411 41.8974 12.7727 40.3182 12.7727C38.7391 12.7727 37.4546 11.6411 37.4546 10.2499C37.4546 8.85881 38.7391 7.7272 40.3182 7.7272ZM9.7727 21.1818C8.19358 21.1818 6.90906 20.0502 6.90906 18.6591C6.90906 17.268 8.19358 16.1364 9.7727 16.1364C11.3518 16.1364 12.6363 17.268 12.6363 18.6591C12.6363 20.0502 11.3518 21.1818 9.7727 21.1818ZM14.5455 36.3183C12.4396 36.3183 10.7273 34.8098 10.7273 32.9546C10.7273 31.0994 12.4396 29.5909 14.5455 29.5909C16.6513 29.5909 18.3637 31.0994 18.3637 32.9546C18.3637 34.8098 16.6512 36.3183 14.5455 36.3183ZM20.2728 9.40908C18.1669 9.40908 16.4546 7.90048 16.4546 6.0454C16.4546 4.19032 18.1669 2.68172 20.2728 2.68172C22.3786 2.68172 24.0909 4.19032 24.0909 6.0454C24.0909 7.90048 22.3785 9.40908 20.2728 9.40908ZM26 24.5455C22.8418 24.5455 20.2728 22.2823 20.2728 19.5C20.2728 16.7178 22.8418 14.4546 26 14.4546C29.1583 14.4546 31.7273 16.7178 31.7273 19.5C31.7273 22.2823 29.1582 24.5455 26 24.5455ZM42.2273 32.9546C40.6482 32.9546 39.3637 31.823 39.3637 30.4319C39.3637 29.0407 40.6482 27.9091 42.2273 27.9091C43.8064 27.9091 45.0909 29.0407 45.0909 30.4319C45.0909 31.823 43.8064 32.9546 42.2273 32.9546Z" fill="white" stroke="white"/>
</svg>
