<svg xmlns="http://www.w3.org/2000/svg" width="100" height="60"><path d="M59.732 956.4c-.61-1.392-2.304-1.835-3.7-1.712l-8.742.696c-1.936-1.914-4.307-2.205-4.132-2.817.137-.478.546-.247.837-1.51.28-1.214-.715-2.456-1.916-2.715-1.178-.346-2.66.208-3.028 1.452-.448 1.23.274 2.7 1.5 3.14 1.4.637 4.246.493 4.837 3.02-1.385 1.412-2.993.956-4.422.456-1.186-.416-2.734-.485-3.65.535-.881.977-.8 2.751.377 3.465 1.153.842 3.093.752 3.824-.642.564-1.074-.09-1.842.338-2.168.324-.245 1.76.362 4.75-.068l7.685 5.464c.994.61 2.317.979 3.578.191l-7.903-5.89 9.767-.896zm-17.076-6.871c1.046 1.051.404 2.907-.994 2.901-1.286.072-2.455-1.493-1.719-2.654.517-.977 1.998-.967 2.713-.247zm-2.155 7.722c1.161.852.31 2.986-1.094 2.902-.963.053-2.09-.743-1.883-1.8.19-1.304 1.989-2.014 2.977-1.102z" style="marker-start:none" transform="scale(4.43648) rotate(-16.165 -3315.235 612.31)"/></svg>