<svg xmlns="http://www.w3.org/2000/svg" xmlns:xlink="http://www.w3.org/1999/xlink" style="display:none"><symbol id="icon-check"><path stroke="#5FA229" stroke-width="2" d="M6 11.5l4.629 4.5L19 7" fill-rule="evenodd"/></symbol><symbol id="icon-close" viewBox="0 0 30 30"><g fill-rule="evenodd"><path d="M20.303 8.282l1.415 1.415-12.021 12.02-1.415-1.414z"/><path d="M8.282 9.697l1.415-1.415 12.02 12.021-1.414 1.415z"/></g></symbol><symbol id="icon-comments" viewBox="0 0 20 19"><path d="M7.639 15.226a7.587 7.587 0 110-15.174h4.722a7.587 7.587 0 013.897 14.098L13.6 18.961l-2.064-3.735H7.64zm7.22-2.465l.24-.132a5.69 5.69 0 00-2.738-10.68H7.64a5.69 5.69 0 100 11.38h5.016l.945 1.71 1.258-2.278z" fill-rule="nonzero"/></symbol><symbol id="icon-doubleArrowDown"><path d="M16 31.534l13.73-9.861v-8.696L16 22.839 2.27 12.978v8.695zm0-12.511l13.73-9.861V.466L16 10.328 2.27.467v8.695z"/></symbol><symbol id="icon-doubleArrowUp"><path d="M16 .466L2.27 10.327v8.696L16 9.161l13.73 9.861v-8.695zm0 12.511L2.27 22.838v8.696L16 21.672l13.73 9.861v-8.695z"/></symbol><symbol id="icon-down" viewBox="0 0 24 24"><path d="M3 8.301L4.346 7 12 14.397 19.654 7 21 8.301 12 17z"/></symbol><symbol id="icon-error"><path d="M13.914 12.5l3.89 3.89-1.415 1.413-3.889-3.889-3.89 3.89-1.413-1.415 3.889-3.889-3.89-3.89 1.415-1.413 3.889 3.889 3.89-3.89 1.413 1.415z" fill-rule="evenodd"/></symbol><symbol id="icon-gallery"><g fill-rule="evenodd"><path d="M11 4V2.003A.993.993 0 0010.002 1H1.998A1 1 0 001 2.003v6.994A.993.993 0 001.998 10H4V8H2.998V3H9v1h2z"/><path d="M6 5h6c.55 0 .998.438.998 1.003v4.994A1 1 0 0112 12H6a.993.993 0 01-.998-1.003V6.003A1 1 0 016 5zm5.002 2v3H7V7h4.002z"/></g></symbol><symbol id="icon-home" viewBox="0 0 21 28"><path d="M14.695 9.88l2.671 10.632h-6.474l-1.916-9.013h-.12l-1.568 9.013h-6.06L4.798 0h6.068L9.444 8.137h.145L13.915 0h6.288l-5.508 9.88zM0 27.93l.836-4.806h6.068l-.837 4.805H0z"/></symbol><symbol id="icon-info"><path d="M12 10h-1V8h3v8h2v2h-6v-2h2v-6zm0-5h2v2h-2V5z" fill-rule="evenodd"/></symbol><symbol id="icon-live" viewBox="0 0 14 14"><path fill-rule="evenodd" clip-rule="evenodd" d="M7 14A7 7 0 107 0a7 7 0 000 14zM5.75 9.333L9.25 7l-3.5-2.333v4.666z"/></symbol><symbol id="icon-logout"><g fill-rule="evenodd"><path d="M13 17v-2h2v4H5V5h10v4h-2V7H7v10h6z"/><path fill-rule="nonzero" d="M11 13v-2h5.947l-.61-.7.923-1.062L19.663 12l-2.403 2.762-.923-1.061.61-.701z"/></g></symbol><symbol id="icon-mute"><path d="M18 12.007c0-2.362-1.36-4.39-3.333-5.377V9.58l3.266 3.268c.04-.267.067-.547.067-.84zm3.333 0a9.131 9.131 0 01-.72 3.522l2.014 2.014A11.74 11.74 0 0024 12.007C24 6.297 20.013 1.52 14.667.32v2.735a9.345 9.345 0 016.666 8.952zM1.693 0L0 1.68l6.293 6.311H0v8.005h5.333L12 22.666v-8.978l5.667 5.67a9.231 9.231 0 01-3 1.574v2.748c1.84-.414 3.506-1.267 4.92-2.415L22.307 24 24 22.306 12 10.299 1.707 0zm10.294 1.32L9.2 4.097l2.787 2.788v-5.55z"/></symbol><symbol id="icon-next" viewBox="0 0 24 24"><path d="M8.301 3L7 4.346 14.397 12 7 19.654 8.301 21 17 12z"/></symbol><symbol id="icon-password"><g fill-rule="evenodd"><path d="M12 20a4 4 0 110-8 4 4 0 010 8zm0-2a2 2 0 100-4 2 2 0 000 4z" fill-rule="nonzero"/><path d="M13 10v3h-2V4h2v1h2v2h-2v1h1v2z"/></g></symbol><symbol id="icon-pin" viewBox="0 0 512 512"><path d="M316.685 449.874L62.126 195.315a14.984 14.984 0 01-3.252-16.345 14.983 14.983 0 0113.859-9.26c99.064 0 188.039-55.022 232.227-143.583l8.918-17.826a14.992 14.992 0 0111.011-8.11 15.023 15.023 0 0113.01 4.205l169.706 169.706a15.018 15.018 0 014.205 13.01 14.995 14.995 0 01-8.11 11.011l-17.816 8.908C397.311 251.228 342.29 340.203 342.29 439.267c0 6.07-3.646 11.539-9.26 13.859a14.984 14.984 0 01-16.345-3.252zM136.372 311.988L25.607 422.754a15 15 0 00-3.625 5.863L.769 492.257c-1.792 5.397-.394 11.332 3.625 15.351s9.954 5.417 15.351 3.625l63.64-21.213a15.007 15.007 0 005.863-3.625l110.766-110.766z"/></symbol><symbol id="icon-play" viewBox="0 0 240 240"><path d="M62.8 199.5c-1 .8-2.4.6-3.3-.4-.4-.5-.6-1.1-.5-1.8V42.6c-.2-1.3.7-2.4 1.9-2.6.7-.1 1.3.1 1.9.4l154.7 77.7c2.1 1.1 2.1 2.8 0 3.8z"/></symbol><symbol id="icon-plus"><g fill-rule="evenodd"><path d="M5 11h14v2H5z"/><path d="M13 5v14h-2V5z"/></g></symbol><symbol id="icon-prev" viewBox="0 0 24 24"><path d="M15.699 3L17 4.346 9.603 12 17 19.654 15.699 21 7 12z" fill-rule="nonzero"/></symbol><symbol id="icon-react" viewBox="0 0 15 18"><path d="M8.93 8.63c0-.808-.267-1.51-.8-2.109-.533-.597-1.187-.937-1.96-1.019V4.254a3.93 3.93 0 011.564.422c.48.246.9.565 1.257.958.358.392.642.846.853 1.362.21.516.316 1.06.316 1.635a.289.289 0 01-.009.07.24.24 0 00-.008.053H8.93V8.63zm2.074 0c0-.69-.126-1.347-.378-1.968A5.45 5.45 0 009.598 5.02 5.078 5.078 0 006.17 3.375V2.127a5.89 5.89 0 012.364.589c.733.357 1.374.829 1.925 1.415a6.542 6.542 0 011.758 4.5v.123h-1.23c0-.024.002-.044.008-.062a.195.195 0 00.009-.061zm2.057 0c0-.984-.18-1.915-.537-2.794a7.55 7.55 0 00-1.467-2.32 7.153 7.153 0 00-2.189-1.6 7.014 7.014 0 00-2.698-.668V0a7.877 7.877 0 013.094.72 8.58 8.58 0 012.53 1.776 8.707 8.707 0 012.48 5.748v.51H13.06V8.63zm-6.768 8.632L4.166 13.13H2.32v4.13H0V5.978h4.184a6.723 6.723 0 011.757.228c.258.07.496.161.712.273.217.11.413.237.59.377.187.141.348.302.483.484a3.093 3.093 0 01.553 1.274c.047.246.07.504.07.774 0 .21-.011.41-.035.597a3.498 3.498 0 01-.105.528c-.035.164-.088.32-.158.466-.07.146-.147.278-.229.395a3.613 3.613 0 01-.65.686 3.194 3.194 0 01-.387.263c-.14.082-.287.158-.44.229l2.444 4.605v.106H6.293zM2.32 7.875v3.375h1.881c.153 0 .293-.009.422-.026.129-.018.252-.05.37-.097.116-.035.222-.082.316-.14.093-.06.181-.124.263-.194.07-.07.135-.15.194-.237.058-.088.111-.185.158-.29a2.025 2.025 0 00.105-.686c0-.27-.038-.507-.114-.712a1.475 1.475 0 00-.343-.536 1.434 1.434 0 00-.571-.343 2.596 2.596 0 00-.817-.114H2.32z" fill-rule="nonzero"/></symbol><symbol id="icon-search" viewBox="0 0 30 30"><path d="M16.891 16.89a5.839 5.839 0 000-8.248 5.84 5.84 0 00-8.248 0 5.84 5.84 0 000 8.249 5.839 5.839 0 008.248 0m-9.619 1.37c-3.03-3.03-3.029-7.96 0-10.989 3.03-3.03 7.96-3.03 10.989 0 2.797 2.797 3.006 7.21.638 10.256l5.538 5.54-1.37 1.369-5.538-5.538c-3.046 2.368-7.46 2.159-10.257-.638" fill-rule="evenodd"/></symbol><symbol id="icon-soc-fb" viewBox="0 0 24 24"><path d="M15.552 12.702l.353-2.845h-2.713V8.041c0-.824.222-1.384 1.359-1.384L16 6.656V4.112C15.75 4.077 14.89 4 13.887 4c-2.09 0-3.522 1.325-3.522 3.76v2.097H8v2.845h2.365V20h2.827v-7.298z"/></symbol><symbol id="icon-soc-ins" viewBox="0 0 24 24"><path d="M12 3c-2.444 0-2.75.01-3.71.054-.959.044-1.613.196-2.185.419A4.411 4.411 0 004.51 4.51c-.5.5-.809 1.002-1.038 1.594-.223.572-.375 1.226-.419 2.184C3.01 9.25 3 9.556 3 12s.01 2.75.054 3.71c.044.959.196 1.613.419 2.185.23.592.537 1.094 1.038 1.594.5.5 1.002.809 1.594 1.039.572.222 1.226.374 2.184.418C9.25 20.99 9.556 21 12 21s2.75-.01 3.71-.054c.959-.044 1.613-.196 2.185-.418a4.412 4.412 0 001.594-1.039c.5-.5.809-1.002 1.039-1.594.222-.572.374-1.226.418-2.184.044-.96.054-1.267.054-3.711s-.01-2.75-.054-3.71c-.044-.959-.196-1.613-.418-2.185a4.412 4.412 0 00-1.039-1.594c-.5-.5-1.002-.809-1.594-1.038-.572-.223-1.226-.375-2.184-.419C14.75 3.01 14.444 3 12 3zm0 1.622c2.403 0 2.688.009 3.637.052.877.04 1.354.187 1.67.31.421.163.72.358 1.036.673.315.315.51.615.673 1.035.123.317.27.794.31 1.671.043.95.052 1.234.052 3.637s-.009 2.688-.052 3.637c-.04.877-.187 1.354-.31 1.67-.163.421-.358.72-.673 1.036-.315.315-.615.51-1.035.673-.317.123-.794.27-1.671.31-.95.043-1.234.052-3.637.052s-2.688-.009-3.637-.052c-.877-.04-1.354-.187-1.67-.31a2.788 2.788 0 01-1.036-.673 2.789 2.789 0 01-.673-1.035c-.123-.317-.27-.794-.31-1.671-.043-.95-.052-1.234-.052-3.637s.009-2.688.052-3.637c.04-.877.187-1.354.31-1.67.163-.421.358-.72.673-1.036.315-.315.615-.51 1.035-.673.317-.123.794-.27 1.671-.31.95-.043 1.234-.052 3.637-.052zm0 2.756a4.622 4.622 0 100 9.244 4.622 4.622 0 000-9.244zM12 15a3 3 0 110-6 3 3 0 010 6zm5.884-7.804a1.08 1.08 0 11-2.16 0 1.08 1.08 0 012.16 0z"/></symbol><symbol id="icon-soc-mail" viewBox="0 0 24 24"><path d="M3 6h18v.647l-9.001 4.603L3 6.647zm9 6.493l9-4.243V18H3V8.25z"/></symbol><symbol id="icon-soc-rss" viewBox="0 0 24 24"><path d="M6 16.143a1.857 1.857 0 113.715 0 1.857 1.857 0 01-3.715 0zM19 18h-2.476c0-5.803-4.72-10.524-10.524-10.524V5c7.168 0 13 5.832 13 13zm-4.333 0H12.19A6.198 6.198 0 006 11.81V9.333c4.779 0 8.667 3.888 8.667 8.667z"/></symbol><symbol id="icon-soc-twitter" viewBox="0 0 24 24"><path d="M21 7.539a6.548 6.548 0 01-1.885.517 3.29 3.29 0 001.443-1.816 6.575 6.575 0 01-2.084.796 3.283 3.283 0 00-5.595 2.993A9.317 9.317 0 016.115 6.6a3.281 3.281 0 001.016 4.383 3.276 3.276 0 01-1.487-.41v.041a3.285 3.285 0 002.633 3.219 3.28 3.28 0 01-1.483.056 3.287 3.287 0 003.067 2.279A6.583 6.583 0 015 17.526 9.296 9.296 0 0010.033 19c6.038 0 9.34-5 9.34-9.338 0-.141-.005-.283-.01-.425A6.68 6.68 0 0021 7.539"/></symbol><symbol id="icon-soc-viber" viewBox="0 0 24 24"><path d="M16.182 19c-.153-.041-.456-.087-.727-.201-4.772-2.015-8.237-5.315-10.207-10.056-.66-1.588.03-2.93 1.694-3.48.298-.097.59-.104.884.002.71.256 2.508 2.681 2.548 3.407.03.556-.355.858-.738 1.113-.723.48-.727 1.092-.418 1.772.698 1.54 1.892 2.598 3.436 3.285.56.249 1.097.225 1.479-.344.682-1.012 1.518-.964 2.431-.334.459.315.924.623 1.359.967.592.467 1.34.856.985 1.836-.367 1.018-1.64 2.043-2.726 2.033zM12.674 5.01c3.35.11 6.235 3.117 6.195 6.361-.005.319.112.79-.371.781-.464-.008-.342-.487-.384-.805-.444-3.445-2.052-5.07-5.541-5.597-.289-.043-.729.019-.707-.356.032-.556.555-.349.808-.385zm4.475 5.78c-.033.238.109.646-.284.705-.53.078-.426-.397-.478-.703-.355-2.095-1.105-2.863-3.26-3.335-.316-.07-.81-.021-.728-.5.078-.457.52-.301.856-.262 2.153.253 3.91 2.084 3.894 4.096zm-1.638-.381c.01.265-.019.545-.339.583-.23.026-.383-.164-.407-.399-.088-.864-.553-1.374-1.436-1.514-.265-.041-.526-.124-.402-.476.083-.234.302-.258.526-.264.955-.022 2.075 1.099 2.058 2.07z"/></symbol><symbol id="icon-soc-wup" viewBox="0 0 24 24"><path d="M15.666 13.588c-.2-.099-1.178-.578-1.36-.645-.182-.065-.316-.099-.449.1-.132.198-.514.643-.63.776-.115.132-.232.149-.431.05-.198-.1-.84-.31-1.6-.984-.592-.525-.992-1.174-1.108-1.372-.116-.199-.012-.306.087-.405.09-.087.2-.23.298-.346.1-.116.133-.199.2-.33.067-.132.033-.248-.016-.348-.051-.099-.449-1.074-.615-1.47-.161-.387-.325-.335-.447-.341a8.602 8.602 0 00-.381-.006c-.134 0-.35.049-.532.247-.182.199-.696.677-.696 1.653 0 .975.713 1.917.813 2.049.099.133 1.403 2.133 3.4 2.992.475.204.846.325 1.135.417.477.15.91.129 1.254.078.381-.056 1.177-.48 1.343-.942.166-.463.166-.859.116-.942-.05-.082-.182-.133-.381-.231m-3.632 4.935h-.003a6.627 6.627 0 01-3.37-.919l-.242-.142-2.506.654.67-2.432-.158-.249a6.556 6.556 0 01-1.013-3.507c.002-3.634 2.972-6.59 6.624-6.59a6.595 6.595 0 014.681 1.933 6.534 6.534 0 011.938 4.662c-.001 3.634-2.972 6.59-6.621 6.59m5.635-12.198A7.935 7.935 0 0012.034 4c-4.392 0-7.965 3.556-7.967 7.928a7.89 7.89 0 001.063 3.963L4 20l4.223-1.103a7.984 7.984 0 003.808.965h.003c4.39 0 7.964-3.557 7.966-7.929a7.86 7.86 0 00-2.331-5.608"/></symbol><symbol id="icon-soc-yt" viewBox="0 0 24 24"><path d="M10.142 14.213l-.001-4.794 4.863 2.405zM20.82 8.589s-.176-1.176-.716-1.694c-.684-.68-1.451-.683-1.803-.722C15.782 6 12.004 6 12.004 6h-.008S8.218 6 5.7 6.173c-.352.04-1.119.042-1.804.722-.54.518-.715 1.694-.715 1.694S3 9.969 3 11.349v1.295c0 1.381.18 2.762.18 2.762s.176 1.175.715 1.693c.685.68 1.585.658 1.985.73C7.32 17.958 12 18 12 18s3.782-.005 6.301-.178c.352-.04 1.119-.043 1.804-.723.539-.518.715-1.693.715-1.693s.18-1.38.18-2.762V11.35c0-1.38-.18-2.761-.18-2.761z"/></symbol><symbol id="icon-strokeDislike"><path d="M30.395 11.087c.086-1.848-.378-3.192-1.359-3.927-.017-.977-.466-2.17-1.144-2.948-.478-.555-1.033-.848-1.6-.848H14.211c-.531 0-1.326.341-2.004.825-.085-1.189-1.069-1.692-2.28-1.692H2.738A2.299 2.299 0 00.442 4.793v13.296a2.298 2.298 0 002.296 2.295h7.189a2.298 2.298 0 002.296-2.295v-.228c1.786 1.414 2.837 3.613 3.925 6.749v3.516a.65.65 0 00.093.338c.398.662 1.087 1.042 1.889 1.042 1.033 0 2.119-.624 2.907-1.664.795-1.054 1.928-3.38.992-7.456h5.515c1.228 0 4.012-1.265 4.012-3.343 0-.685-.081-1.729-.517-2.341.343-.96.409-2.516-.645-3.613zm-19.48-6.295v1.15c0 .008-.003.016-.003.023v10.664c0 .007.002.013.003.02v1.439a.988.988 0 01-.987.986H2.739a.988.988 0 01-.987-.986V4.792c0-.545.443-.987.987-.987h7.189c.545 0 .987.443.987.987zm19.343 12.255c0 1.064-1.945 2.034-2.702 2.034h-6.359c-.206 0-.398.094-.52.258s-.164.376-.107.573c.838 2.962.63 5.565-.563 7.145-.636.846-1.382 1.144-1.864 1.144-.287 0-.513-.093-.675-.279v-3.413a.689.689 0 00-.035-.213c-1.305-3.774-2.644-6.451-5.207-8.039V5.968c.107-.351 1.435-1.293 1.99-1.293h12.08c.173 0 .399.148.622.403.529.609.901 1.681.809 2.345a.659.659 0 00.338.668c1.063.573 1.092 2.263 1.017 3.222a.657.657 0 00.233.555c.95.791.657 2.241.385 2.656a.655.655 0 00.4.995c-.028.035.161.569.161 1.529z"/></symbol><symbol id="icon-strokeLike"><path d="M31.041 17.3c.436-.611.517-1.656.517-2.341 0-2.079-2.784-3.343-4.012-3.343h-5.515c.936-4.076-.198-6.403-.992-7.456-.788-1.039-1.875-1.664-2.907-1.664-.802 0-1.491.38-1.889 1.042a.65.65 0 00-.093.338v3.516c-1.088 3.136-2.138 5.335-3.925 6.749v-.228a2.298 2.298 0 00-2.296-2.295H2.74a2.298 2.298 0 00-2.296 2.295v13.296a2.299 2.299 0 002.296 2.296h7.189c1.21 0 2.195-.503 2.28-1.692.677.484 1.472.825 2.004.825h12.081c.567 0 1.122-.293 1.6-.848.678-.778 1.127-1.971 1.144-2.948.98-.736 1.445-2.079 1.359-3.927 1.054-1.097.988-2.654.645-3.613zM9.928 28.195H2.739a.988.988 0 01-.987-.987V13.912c0-.543.443-.986.987-.986h7.189c.545 0 .987.443.987.986v1.439c0 .007-.003.013-.003.02v10.664c0 .008.002.016.003.023v1.15a.987.987 0 01-.987.987zm20.169-11.713a.657.657 0 00-.46.394.664.664 0 00.06.601c.272.415.566 1.865-.385 2.656a.657.657 0 00-.233.555c.075.958.046 2.648-1.017 3.222a.659.659 0 00-.338.668c.092.664-.28 1.736-.809 2.345-.223.255-.449.403-.622.403h-12.08c-.555 0-1.882-.943-1.99-1.293V15.744c2.563-1.588 3.902-4.265 5.207-8.039a.694.694 0 00.035-.213V4.079c.162-.186.389-.279.675-.279.482 0 1.228.298 1.864 1.144 1.193 1.58 1.401 4.183.563 7.145-.056.198-.014.41.107.573s.314.258.52.258h6.359c.757 0 2.702.97 2.702 2.034 0 .96-.188 1.494-.161 1.529z"/></symbol><symbol id="icon-totop"><path d="M5.605 20.391a2.058 2.058 0 002.923 0L15 13.881l6.472 6.51a2.058 2.058 0 002.923 0 2.088 2.088 0 000-2.94L15 8.001l-9.395 9.45a2.088 2.088 0 000 2.94" fill-rule="evenodd"/></symbol><symbol id="icon-tvprogram" viewBox="0 0 40 29"><path fill-rule="evenodd" clip-rule="evenodd" d="M38 2H2v22h36V2zM0 0v26h40V0H0z"/><path d="M6 27h28v2H6v-2z"/></symbol><symbol id="icon-unmute"><path d="M0 16.105h5.333L12 22.946V1.054L5.333 7.895H0zm14.667-9.578v10.946C16.64 16.543 18 14.422 18 12c0-2.38-1.36-4.46-3.333-5.473zm0-3.708C18.52 3.995 21.333 7.662 21.333 12c0 4.338-2.813 8.005-6.666 9.181V24C20.013 22.755 24 17.856 24 12S20.013 1.245 14.667 0z"/></symbol><symbol id="icon-user" viewBox="0 0 24 24"><g fill-rule="evenodd"><path d="M12 19.985a8.595 8.595 0 01-7-3.607c0-2.254 4.667-3.494 7-3.494s7 1.24 7 3.494a8.595 8.595 0 01-7 3.607zM11.977 4c1.983 0 3.5 1.465 3.5 3.381s-1.517 3.381-3.5 3.381-3.5-1.465-3.5-3.38S9.994 4 11.977 4z"/></g></symbol><symbol id="icon-video_play_icon" viewBox="0 0 32 32"><g><circle cx="16" cy="16" fill-opacity=".5" r="16"/><path d="M20.153 15.59a1 1 0 01-.038 1.648l-5.235 3.418a1 1 0 01-1.547-.837v-7.197a1 1 0 011.586-.81z" fill-opacity=".8"/></g></symbol><symbol id="icon_h_logo" viewBox="0 0 79 28"><g><path d="M14.695 9.887l2.671 10.633h-6.474l-1.916-9.013h-.12L7.288 20.52h-6.06L4.798.008h6.068L9.444 8.145h.145L13.915.008h6.288zM34.901 12.52c-.841 4.838-2.67 8.575-8.36 8.575-4.56 0-6.939-2.606-6.939-6.228.008-.797.086-1.592.232-2.376L22.008.004h6.129l-2.09 12.053c-.116.665-.204 1.217-.204 1.68 0 .927.351 1.506 1.133 1.506 1.306 0 1.626-1.217 1.974-3.186L31.04.004h6.067zM49.562 11.767l1.945 8.75H45.09l-1.104-7.474h-.755l-1.306 7.474h-5.802L39.695.005h7.109c3.977 0 6.155 1.97 6.155 5.766 0 2.954-1.249 5.069-3.397 5.996zm-4.12-6.693h-.813l-.668 3.796h.64c1.16 0 2.234-.613 2.234-2.318-.002-1.188-.815-1.477-1.396-1.477zM58.997 20.516h-6.155L56.412.004h6.156zM75.516 11.767l1.944 8.75h-6.415l-1.103-7.474h-.755l-1.307 7.474h-5.802L65.648.005h7.114c3.977 0 6.154 1.97 6.154 5.766-.004 2.954-1.252 5.069-3.4 5.996zm-4.121-6.693h-.812l-.668 3.796h.639c1.162 0 2.236-.613 2.236-2.318-.003-1.188-.816-1.477-1.397-1.477zM0 27.937l.836-4.806h6.068l-.837 4.806z"/></g></symbol><symbol id="icon_react"><path d="M8.93 8.63c0-.808-.267-1.51-.8-2.109-.533-.597-1.187-.937-1.96-1.019V4.254a3.93 3.93 0 011.564.422c.48.246.9.565 1.257.958.358.392.642.846.853 1.362.21.516.316 1.06.316 1.635a.289.289 0 01-.009.07.24.24 0 00-.008.053H8.93V8.63zm2.074 0c0-.69-.126-1.347-.378-1.968A5.45 5.45 0 009.598 5.02 5.078 5.078 0 006.17 3.375V2.127a5.89 5.89 0 012.364.589c.733.357 1.374.829 1.925 1.415a6.542 6.542 0 011.758 4.5v.123h-1.23c0-.024.002-.044.008-.062a.195.195 0 00.009-.061zm2.057 0c0-.984-.18-1.915-.537-2.794a7.55 7.55 0 00-1.467-2.32 7.153 7.153 0 00-2.189-1.6 7.014 7.014 0 00-2.698-.668V0a7.877 7.877 0 013.094.72 8.58 8.58 0 012.53 1.776 8.707 8.707 0 012.48 5.748v.51H13.06V8.63zm-6.768 8.632L4.166 13.13H2.32v4.13H0V5.978h4.184a6.723 6.723 0 011.757.228c.258.07.496.161.712.273.217.11.413.237.59.377.187.141.348.302.483.484a3.093 3.093 0 01.553 1.274c.047.246.07.504.07.774 0 .21-.011.41-.035.597a3.498 3.498 0 01-.105.528c-.035.164-.088.32-.158.466-.07.146-.147.278-.229.395a3.613 3.613 0 01-.65.686 3.194 3.194 0 01-.387.263c-.14.082-.287.158-.44.229l2.444 4.605v.106H6.293zM2.32 7.875v3.375h1.881c.153 0 .293-.009.422-.026.129-.018.252-.05.37-.097.116-.035.222-.082.316-.14.093-.06.181-.124.263-.194.07-.07.135-.15.194-.237.058-.088.111-.185.158-.29a2.025 2.025 0 00.105-.686c0-.27-.038-.507-.114-.712a1.475 1.475 0 00-.343-.536 1.434 1.434 0 00-.571-.343 2.596 2.596 0 00-.817-.114H2.32z" fill-rule="nonzero"/></symbol><symbol id="soc-viber"><g fill="#FFF" fill-rule="evenodd"><path d="M21.168 26c-.234-.065-.7-.137-1.116-.315C12.726 22.53 7.405 17.36 4.381 9.937c-1.014-2.488.045-4.59 2.6-5.449.458-.154.908-.164 1.358.002 1.09.4 3.85 4.199 3.912 5.335.047.872-.546 1.344-1.132 1.743-1.11.754-1.118 1.71-.643 2.776 1.072 2.411 2.904 4.069 5.276 5.144.86.39 1.684.352 2.27-.538 1.048-1.586 2.33-1.51 3.733-.524.704.494 1.418.977 2.086 1.515.909.73 2.057 1.34 1.513 2.875-.564 1.594-2.518 3.2-4.186 3.184M15.783 4.09c5.143.173 9.573 4.882 9.51 9.963-.006.498.173 1.238-.57 1.223-.71-.013-.525-.763-.588-1.261-.682-5.395-3.152-7.941-8.508-8.765-.443-.068-1.119.03-1.085-.558.05-.87.852-.547 1.24-.602"/><path d="M22.652 13.143c-.05.373.168 1.01-.435 1.103-.813.123-.654-.622-.733-1.1-.546-3.28-1.697-4.485-5.005-5.224-.487-.109-1.245-.032-1.119-.783.12-.714.8-.471 1.314-.41 3.306.397 6.005 3.264 5.978 6.414"/><path d="M20.139 12.546c.014.415-.03.853-.52.912-.356.041-.589-.257-.626-.623-.135-1.354-.849-2.153-2.206-2.372-.406-.064-.806-.195-.616-.745.127-.367.464-.405.807-.414 1.467-.035 3.186 1.72 3.16 3.242"/></g></symbol></svg>