<svg width="100" height="100" viewBox="0 0 100 100" fill="none" xmlns="http://www.w3.org/2000/svg">
<path d="M5.14447 22.334C5.75189 21.6895 6.89642 21.7422 7.44525 22.4337C7.78704 22.8067 7.81829 23.336 7.81634 23.8165C7.81048 27.4258 7.81048 31.0352 7.81439 34.6446C8.8554 34.6719 9.89642 34.6739 10.9355 34.6465C10.9394 30.9708 10.9335 27.293 10.9374 23.6172C10.8749 22.8516 11.3788 22.0743 12.1484 21.918C13.0781 21.6641 14.0859 22.459 14.0527 23.4239C14.08 27.1641 14.0527 30.9063 14.0624 34.6465C15.1034 34.6739 16.1445 34.6719 17.1855 34.6465C17.1913 31.0372 17.1874 27.4258 17.1835 23.8145C17.1738 23.2911 17.2363 22.709 17.6464 22.334C18.2206 21.7286 19.2792 21.7286 19.8535 22.336C20.2675 22.7071 20.3242 23.2911 20.3163 23.8145C20.3085 27.9239 20.3144 32.0313 20.3124 36.1407C20.3163 37.8887 19.912 39.6407 19.1074 41.1954C18.6249 42.1661 17.955 43.0235 17.3788 43.9376C17.2031 44.1602 17.1874 44.4434 17.1855 44.7149C17.1913 53.7676 17.1855 62.8223 17.1894 71.8751C17.1796 72.9473 17.2851 74.0645 16.8808 75.086C16.1992 76.9337 14.2695 78.2364 12.2909 78.1192C9.88665 78.045 7.76361 75.8712 7.81439 73.4512C7.80853 64.2676 7.81048 55.084 7.81439 45.9005C7.79095 45.1133 7.98626 44.2188 7.39642 43.5821C5.90618 41.5938 4.76947 39.254 4.70111 36.7286C4.664 32.4922 4.70306 28.254 4.68157 24.0157C4.67767 23.4317 4.67572 22.7579 5.14447 22.334ZM7.98822 37.7852C8.23822 39.3399 9.15618 40.6505 10.0331 41.9141C10.4316 42.5313 10.9843 43.1426 10.9374 43.9278C10.9394 53.7032 10.9394 63.4805 10.9374 73.2579C10.8847 73.9161 11.2363 74.584 11.8476 74.8555C12.8144 75.3614 14.0995 74.5391 14.0546 73.4512C14.0722 63.6114 14.0566 53.7696 14.0624 43.9297C14.0136 43.1426 14.5702 42.5352 14.9667 41.918C15.8417 40.6524 16.7617 39.3419 17.0077 37.7872C14.0019 37.7833 10.9941 37.7872 7.98822 37.7852Z" fill="#E02712"/>
<path d="M48.3086 21.9297C54.1387 21.5664 60.0723 23.0703 65.002 26.2109C69.9746 29.3418 73.9258 34.0703 76.1016 39.5313C78.4414 45.3086 78.75 51.873 77.0039 57.8535C75.3965 63.4492 71.9727 68.4922 67.4004 72.0898C63.0195 75.5606 57.5801 77.6758 52.002 78.0469C45.9805 78.4961 39.8301 76.9238 34.7656 73.6348C29.6895 70.3711 25.711 65.4336 23.625 59.7695C21.5547 54.2129 21.3223 47.998 22.9473 42.2988C24.75 35.875 28.9551 30.1758 34.5293 26.5176C38.6094 23.8105 43.4199 22.2148 48.3086 21.9297ZM47.3613 25.1387C44.336 25.4609 41.3692 26.332 38.6641 27.7207C33.8965 30.1328 29.9492 34.127 27.5879 38.9199C25.0098 44.0879 24.3301 50.1641 25.6778 55.7793C26.8203 60.6641 29.5 65.168 33.2246 68.5273C37.707 72.6191 43.7324 74.9727 49.8028 74.9961C55.0293 75.0508 60.2578 73.4063 64.5039 70.3613C68.7442 67.3438 72.0098 62.9746 73.6699 58.0391C75.4375 52.875 75.4395 47.125 73.6699 41.959C71.7442 36.2168 67.6309 31.2539 62.3633 28.2676C57.8555 25.6816 52.5254 24.5879 47.3613 25.1387Z" fill="#E02712"/>
<path d="M93.2401 21.9629C94.2812 21.5528 95.4511 22.5215 95.3124 23.6172C95.3144 39.5723 95.3124 55.5293 95.3124 71.4844C95.2968 72.4473 95.3847 73.42 95.2128 74.3731C94.8417 76.2852 93.162 77.8555 91.2245 78.084C89.0819 78.4043 86.871 76.9864 86.1913 74.9473C85.8788 74.0879 85.9374 73.1621 85.9355 72.2657C85.9374 65.6856 85.9374 59.1075 85.9374 52.5274C85.9784 52.1055 85.6718 51.7871 85.4589 51.461C83.7362 49.0684 82.6933 46.1289 82.8202 43.1602C82.9511 37.9258 84.8769 32.8789 87.6835 28.5078C89.0351 26.3946 90.5995 24.4161 92.3515 22.6211C92.6132 22.3633 92.8847 22.0899 93.2401 21.9629ZM90.4823 29.9297C87.9101 33.8653 86.0819 38.4141 85.9472 43.1602C85.8007 45.8672 86.9472 48.5274 88.7109 50.5411C88.9101 50.7696 89.1093 51.0293 89.0644 51.3555C89.0683 58.7207 89.0526 66.086 89.0702 73.4493C89.0331 74.4121 90.0507 75.209 90.9765 74.961C91.7421 74.7989 92.2558 74.0254 92.1874 73.2578C92.1757 58.0489 92.205 42.8379 92.1737 27.6289C91.5331 28.336 91.0077 29.1348 90.4823 29.9297Z" fill="#E02712"/>
<path d="M47.5448 28.2638C52.0097 27.7579 56.6269 28.6544 60.5565 30.838C65.328 33.461 69.0565 37.92 70.7577 43.0958C72.2401 47.5391 72.2421 52.461 70.7558 56.9044C69.1015 61.9395 65.5253 66.3009 60.9335 68.9454C56.4999 71.5333 51.1327 72.4454 46.0878 71.5196C41.6483 70.7227 37.4804 68.504 34.3437 65.2657C30.7128 61.5763 28.4745 56.5548 28.1718 51.3868C27.8163 46.127 29.4569 40.7657 32.703 36.6134C36.2616 31.9845 41.7362 28.8888 47.5448 28.2638ZM47.744 31.3849C41.9784 32.0431 36.6483 35.5763 33.7694 40.6114C31.4218 44.6212 30.6757 49.5255 31.6952 54.0567C32.4491 57.5235 34.2323 60.752 36.744 63.2559C39.7616 66.2872 43.8417 68.2345 48.0995 68.6524C51.7597 69.0294 55.5292 68.3048 58.7753 66.5684C63.3827 64.1544 66.8808 59.7286 68.1542 54.6837C69.1933 50.6876 68.8573 46.3536 67.2167 42.5665C65.6522 38.9415 62.9179 35.836 59.5116 33.8399C56.0019 31.752 51.7948 30.8927 47.744 31.3849Z" fill="#E02712"/>
<path d="M41.662 42.2324C43.4882 41.8535 45.3573 43.4571 45.3124 45.3086C45.3573 47.0469 43.7187 48.5879 41.9843 48.4317C40.2128 48.3496 38.748 46.5449 39.1054 44.7891C39.3065 43.5078 40.3788 42.4336 41.662 42.2324Z" fill="#E02712"/>
<path d="M57.0976 42.2696C58.9003 41.7755 60.8535 43.2638 60.9316 45.1114C61.0878 46.8458 59.5468 48.4806 57.8085 48.4376C56.0156 48.4766 54.4355 46.7227 54.7089 44.9376C54.8476 43.6641 55.8456 42.545 57.0976 42.2696Z" fill="#E02712"/>
<path d="M48.705 53.1953C52.1269 52.8477 55.6835 53.9102 58.2987 56.1563C58.7558 56.5547 59.3066 56.9785 59.3632 57.6328C59.4941 58.5254 58.7109 59.3985 57.8124 59.375C57.0351 59.3848 56.5312 58.7149 55.9648 58.291C52.5663 55.5547 47.2831 55.584 43.9277 58.377C43.3398 58.8711 42.6894 59.5762 41.8359 59.3321C40.7421 59.1309 40.2206 57.6289 40.9999 56.8184C43.0312 54.75 45.83 53.4883 48.705 53.1953Z" fill="#E02712"/>
</svg>
