<svg id="Capa_1" xmlns="http://www.w3.org/2000/svg" xmlns:xlink="http://www.w3.org/1999/xlink" width="612" height="612" viewBox="0 0 612 612" style="enable-background:new 0 0 612 612"><g><g id="Delete"><g><path d="M387.128 170.748 306 251.915l-81.128-81.167-54.124 54.124L251.915 306l-81.128 81.128 54.085 54.086L306 360.086l81.128 81.128 54.086-54.086L360.086 306l81.128-81.128-54.086-54.124zM522.38 89.62c-119.493-119.493-313.267-119.493-432.76.0s-119.493 313.267.0 432.76 313.267 119.493 432.76.0c119.493-119.492 119.493-313.267.0-432.76zM468.295 468.295c-89.62 89.619-234.932 89.619-324.551.0-89.62-89.62-89.62-234.932.0-324.551 89.62-89.62 234.931-89.62 324.551.0 89.619 89.619 89.619 234.893.0 324.551z"/></g></g></g><g/><g/><g/><g/><g/><g/><g/><g/><g/><g/><g/><g/><g/><g/><g/></svg>