<svg id="Ebene_1" data-name="Ebene 1" xmlns="http://www.w3.org/2000/svg" viewBox="0 0 248.83 37.18"><title>header</title><path d="M11.25,8.05c0-5.81.52-6,3.22-6.3l1-.16A1.15,1.15,0,0,0,15.33,0C13.09.11,10.5.16,8,.16S2.74.11.38,0A1.15,1.15,0,0,0,.27,1.59l1.09.16c2.7.33,3.22.49,3.22,6.3V28.42c0,5.81-.52,6-3.22,6.35l-.8.11a1.13,1.13,0,0,0,.11,1.59c2.07-.11,4.77-.17,7.3-.17s5.12.06,7.82.17a1.14,1.14,0,0,0,.12-1.59l-1.44-.16c-2.7-.33-3.22-.49-3.22-6.3v-7c0-1.58-.11-2.9,1.32-2.9a2.28,2.28,0,0,1,1.38.82c2.13,2.08,9,11,11.39,13.81.63.76.51,1.31-.4,1.47l-1.56.22a1,1,0,0,0,.12,1.59c2.53-.11,5.12-.17,7.93-.17,3,0,5.35.06,7.36.17.46-.17.52-1.31.12-1.59l-1.38-.16a6.17,6.17,0,0,1-4.26-2.08c-4.14-4.6-9.6-11.12-14.14-16.81-.63-.83-.52-1.15.17-1.81,2.24-2.14,4.54-4.38,7-6.74,4-3.67,5.53-5,10.87-5.69A.93.93,0,0,0,37,0c-2.07.06-3.85.16-6.33.16-2.12,0-4,0-6.44-.16a1.1,1.1,0,0,0-.11,1.59l1.78.49c.69.16.63.6-.4,1.86-.69.88-2.36,2.69-3.1,3.4l-5.87,6c-1.9,2-3.22,3.23-4.31,3.23-.92,0-1-1-1-2.46ZM50.75,22c0,5.53,1.21,9.36,3.8,11.72s6.44,3.5,11.84,3.5c4,0,8.28-1,11.27-4.11s3.79-7.66,3.79-12.64V13.91c0-4.33,0-9.15.81-10.79.4-.88,1.44-1.1,2.53-1.31l1.26-.28A1,1,0,0,0,85.94,0c-2.13.11-3.68.16-6.1.16-2.24,0-4.42,0-6.38-.16-.57.16-.63,1.15-.11,1.53l1.15.17c1.44.21,2.35.6,2.87,1.42,1,1.59,1.09,6.68,1.09,10.79v6.84c0,8.33-3.1,13.75-10.63,13.75-8,0-10.41-6.35-10.41-13.91V8.05c0-5.81.52-6,3.22-6.35l1.26-.17A1.06,1.06,0,0,0,61.79,0c-2.53.11-5.12.16-7.7.16S49,.11,46.67,0a1.06,1.06,0,0,0-.12,1.53l1,.17c2.7.38,3.22.54,3.22,6.35Zm49.16,6.46c0,5.81-.52,6-3.22,6.3l-1.26.16a1,1,0,0,0,.11,1.59c2.65-.11,5.23-.17,7.76-.17s5.12.06,7.65.17a1.14,1.14,0,0,0,.12-1.59l-1.27-.16c-2.7-.33-3.22-.49-3.22-6.3v-7c0-1.15.06-1.2,1.78-1.2,1.9,0,2.53.22,3.57,1.86,1.38,2.13,3,5.15,4.54,7.44,3.51,5.1,6.5,7.23,12,7.23a15.94,15.94,0,0,0,3.79-.33,1,1,0,0,0-.11-1.09,7.47,7.47,0,0,1-4-1.7c-2.7-2.13-5.58-6.79-10.18-14.18-.23-.33-.34-.77,0-.93,2.82-1.1,6.9-3.62,6.9-8.65a8.57,8.57,0,0,0-5.06-8C117.33.55,113.42,0,108.94,0c-4.72,0-9.6.16-13.23.49a1.06,1.06,0,0,0,0,1.53l1.49.17c2.7.27,2.76.93,2.76,6.19Zm6.67-23.55c0-2.52.06-2.68,3-2.68,5,0,7.93,3.78,7.93,8.1,0,5.21-2.58,7.83-8.22,7.83-2.76,0-2.76-.1-2.76-1.86Zm46.06,3.18c0-5.81.51-6,3.22-6.3l1.26-.16c.4-.38.35-1.37-.11-1.59-2.54.11-5.12.16-7.65.16s-5.23,0-7.76-.16a1.14,1.14,0,0,0-.12,1.59l1.27.16c2.7.33,3.22.49,3.22,6.3V28.42c0,5.81-.52,6-3.22,6.3l-1.27.16a1.14,1.14,0,0,0,.12,1.59c2.53-.11,5.23-.17,7.76-.17s5.11.06,7.65.17c.46-.22.51-1.2.11-1.59l-1.26-.16c-2.71-.33-3.22-.49-3.22-6.3Zm22,20.37c0,5.81-.52,6-3.22,6.24l-2.13.22a1.14,1.14,0,0,0,.12,1.59c2.58-.11,6.09-.17,8.62-.17h6.56c6.72,0,11.66.06,14.2.17a33.84,33.84,0,0,0,2.41-7.94,1.41,1.41,0,0,0-1.84-.33c-2,4.44-3.28,6-10.58,5.92-4.83,0-5.81-.44-6.5-1.21-.86-.93-1-2.9-1-5.69v-7c0-1.37.06-1.48,1.39-1.48h2.76c5,0,6,.11,6.38,2.41l.4,2.19a1.71,1.71,0,0,0,1.84-.05c-.06-1.76-.17-3.67-.17-5.75s.11-4,.17-5.48c-.29-.44-1.38-.44-1.84,0l-.4,1.86c-.41,2.35-1.38,2.41-6.38,2.41h-2.76c-1.33,0-1.39-.06-1.39-1.48V5.59c0-3.13,0-3.24,2.48-3.24h3.85a17.36,17.36,0,0,1,4.6.5c1.84.44,2.7,1.8,3.62,5,.46.33,1.61.22,1.84-.22-.34-2.35-.69-6.68-.92-7.61-.74.11-4.08.16-7.76.16h-11c-2.53,0-5.23,0-7.42-.16a1.14,1.14,0,0,0-.12,1.59l.93.11c2.7.38,3.22.54,3.22,6.35Zm41.68,0c0,5.81-.52,6-3.22,6.3l-1.27.16a1,1,0,0,0,.12,1.59c2.65-.11,5.23-.17,7.76-.17s5.12.06,7.65.17a1.14,1.14,0,0,0,.12-1.59l-1.27-.16c-2.7-.33-3.22-.49-3.22-6.3v-7c0-1.15.06-1.2,1.78-1.2,1.9,0,2.53.22,3.57,1.86,1.38,2.13,3,5.15,4.54,7.44,3.51,5.1,6.5,7.23,12,7.23a15.94,15.94,0,0,0,3.79-.33.94.94,0,0,0-.11-1.09,7.47,7.47,0,0,1-4-1.7c-2.7-2.13-5.58-6.79-10.18-14.18-.23-.33-.34-.77,0-.93,2.82-1.1,6.9-3.62,6.9-8.65a8.55,8.55,0,0,0-5.06-8C233.76.55,229.85,0,225.37,0c-4.72,0-9.6.16-13.23.49a1.06,1.06,0,0,0,0,1.53l1.49.17c2.7.27,2.76.93,2.76,6.19ZM223,4.87c0-2.52.06-2.68,3.05-2.68,5,0,7.93,3.78,7.93,8.1,0,5.21-2.59,7.83-8.22,7.83-2.76,0-2.76-.1-2.76-1.86Z" fill="#fff"/></svg>