<svg width="16" height="16" viewBox="0 0 16 16" fill="none" xmlns="http://www.w3.org/2000/svg">
<path d="M14.7685 6.88003L13.12 5.23153C12.9713 5.08326 12.77 5 12.56 5C12.35 5 12.1487 5.08326 12 5.23153L5 12.2335V15H7.7665L14.7685 8.00003C14.9168 7.85137 15 7.64999 15 7.44003C15 7.23007 14.9168 7.02869 14.7685 6.88003ZM7.352 14H6V12.648L10.72 7.92753L12.0725 9.27953L7.352 14ZM12.78 8.57253L11.428 7.22053L12.5615 6.08703L13.9135 7.43903L12.78 8.57253Z" fill="white"/>
<path d="M5.5 8.5H6.5V5H8V4H4V5H5.5V8.5Z" fill="white"/>
<path d="M4 10H2V2H10V4H11V2C11 1.73478 10.8946 1.48043 10.7071 1.29289C10.5196 1.10536 10.2652 1 10 1H2C1.73478 1 1.48043 1.10536 1.29289 1.29289C1.10536 1.48043 1 1.73478 1 2V10C1 10.2652 1.10536 10.5196 1.29289 10.7071C1.48043 10.8946 1.73478 11 2 11H4V10Z" fill="white"/>
</svg>
