<svg width="21" height="18" viewBox="0 0 21 18" fill="none" xmlns="http://www.w3.org/2000/svg">
<path d="M20.0153 1.06662L16.8895 16.8261C16.8895 16.8261 16.4524 17.919 15.2502 17.3944L8.03719 11.8644L5.41438 10.5967L0.999185 9.11033C0.999185 9.11033 0.321607 8.86998 0.255982 8.34539C0.190357 7.8208 1.02106 7.5367 1.02106 7.5367L18.5725 0.651543C18.5725 0.651543 20.0151 0.0177149 20.0151 1.06689" fill="white"/>
<path d="M7.48294 16.6488C7.48294 16.6488 7.27239 16.6291 7.00989 15.7984C6.7478 14.9679 5.41438 10.5964 5.41438 10.5964L16.0153 3.86437C16.0153 3.86437 16.6274 3.49277 16.6055 3.86437C16.6055 3.86437 16.7147 3.93 16.3867 4.23598C16.059 4.54209 8.05921 11.7331 8.05921 11.7331" fill="#D2E5F1"/>
<path d="M10.8029 13.9845L7.94996 16.5857C7.94996 16.5857 7.72683 16.7549 7.48293 16.6488L8.02925 11.8172" fill="#B5CFE4"/>
</svg>
