<svg width="20" height="20" viewBox="0 0 20 20" fill="none" xmlns="http://www.w3.org/2000/svg">
<path d="M10 1.66663C5.40502 1.66663 1.66669 5.40496 1.66669 9.99996C1.66669 14.595 5.40502 18.3333 10 18.3333C14.595 18.3333 18.3334 14.595 18.3334 9.99996C18.3334 5.40496 14.595 1.66663 10 1.66663ZM10 16.6666C6.32419 16.6666 3.33335 13.6758 3.33335 9.99996C3.33335 6.32413 6.32419 3.33329 10 3.33329C13.6759 3.33329 16.6667 6.32413 16.6667 9.99996C16.6667 13.6758 13.6759 16.6666 10 16.6666Z" fill="#AEAEAE"/>
<path d="M10.8334 5.83337H9.16669V10.8334H14.1667V9.16671H10.8334V5.83337Z" fill="#AEAEAE"/>
</svg>
