<svg width="18" height="16" viewBox="0 0 18 16" fill="none" xmlns="http://www.w3.org/2000/svg">
<path d="M17.9375 2.46349C17.2801 2.74708 16.5646 2.95118 15.8277 3.03067C16.5928 2.57614 17.1658 1.85805 17.4391 1.01114C16.7211 1.43823 15.9346 1.73771 15.1144 1.8963C14.7717 1.52983 14.3571 1.23789 13.8965 1.03866C13.4359 0.839428 12.9393 0.737182 12.4375 0.73829C10.4072 0.73829 8.77441 2.38399 8.77441 4.40352C8.77441 4.68712 8.80879 4.97071 8.86465 5.24356C5.82461 5.08458 3.11328 3.63224 1.31074 1.4086C0.982297 1.96959 0.810182 2.60835 0.812301 3.25841C0.812301 4.53028 1.45898 5.65177 2.44511 6.31134C1.86397 6.28845 1.29644 6.12872 0.788669 5.84513V5.89024C0.788669 7.6713 2.04765 9.14728 3.72558 9.48673C3.41053 9.56856 3.08644 9.61043 2.76093 9.61134C2.52246 9.61134 2.29687 9.58771 2.06914 9.55548C2.5332 11.0078 3.88457 12.0627 5.49375 12.0971C4.23476 13.0832 2.65781 13.6633 0.945505 13.6633C0.638278 13.6633 0.354684 13.6525 0.0603485 13.6182C1.68457 14.6602 3.61172 15.2617 5.68711 15.2617C12.4246 15.2617 16.1113 9.68009 16.1113 4.83536C16.1113 4.67638 16.1113 4.51739 16.1006 4.35841C16.8139 3.83634 17.4391 3.18966 17.9375 2.46349Z" fill="white"/>
</svg>
