<svg width="12" height="14" viewBox="0 0 12 14" fill="none" xmlns="http://www.w3.org/2000/svg">
<path d="M11.4141 10.9312C11.1193 10.2331 10.6916 9.59891 10.1547 9.06406C9.61943 8.52767 8.98536 8.10001 8.2875 7.80469C8.28125 7.80156 8.275 7.8 8.26875 7.79688C9.24219 7.09375 9.875 5.94844 9.875 4.65625C9.875 2.51562 8.14062 0.78125 6 0.78125C3.85938 0.78125 2.125 2.51562 2.125 4.65625C2.125 5.94844 2.75781 7.09375 3.73125 7.79844C3.725 7.80156 3.71875 7.80312 3.7125 7.80625C3.0125 8.10156 2.38438 8.525 1.84531 9.06563C1.30892 9.60089 0.881257 10.235 0.585937 10.9328C0.295816 11.616 0.139347 12.3485 0.125 13.0906C0.124583 13.1073 0.127508 13.1239 0.133603 13.1394C0.139698 13.1549 0.148839 13.1691 0.160488 13.181C0.172137 13.193 0.186058 13.2025 0.201431 13.2089C0.216805 13.2154 0.233318 13.2188 0.25 13.2188H1.1875C1.25625 13.2188 1.31094 13.1641 1.3125 13.0969C1.34375 11.8906 1.82812 10.7609 2.68437 9.90469C3.57031 9.01875 4.74687 8.53125 6 8.53125C7.25313 8.53125 8.42969 9.01875 9.31563 9.90469C10.1719 10.7609 10.6562 11.8906 10.6875 13.0969C10.6891 13.1656 10.7437 13.2188 10.8125 13.2188H11.75C11.7667 13.2188 11.7832 13.2154 11.7986 13.2089C11.8139 13.2025 11.8279 13.193 11.8395 13.181C11.8512 13.1691 11.8603 13.1549 11.8664 13.1394C11.8725 13.1239 11.8754 13.1073 11.875 13.0906C11.8594 12.3438 11.7047 11.6172 11.4141 10.9312ZM6 7.34375C5.28281 7.34375 4.60781 7.06406 4.1 6.55625C3.59219 6.04844 3.3125 5.37344 3.3125 4.65625C3.3125 3.93906 3.59219 3.26406 4.1 2.75625C4.60781 2.24844 5.28281 1.96875 6 1.96875C6.71719 1.96875 7.39219 2.24844 7.9 2.75625C8.40781 3.26406 8.6875 3.93906 8.6875 4.65625C8.6875 5.37344 8.40781 6.04844 7.9 6.55625C7.39219 7.06406 6.71719 7.34375 6 7.34375Z" fill="#8E9195"/>
</svg>
