<svg xmlns="http://www.w3.org/2000/svg" viewBox="0 0 765 518"><title>fallback</title><rect width="765" height="518" fill="none"/><path d="M124,224.47c-18.62,0-33.55,15.46-33.55,34.51s15,34.59,33.64,34.59a33.38,33.38,0,0,0,29.86-18.79l.86-1.66h-9.13c-.27.44-.67.88-.89,1.32A25.45,25.45,0,0,1,124,285.5c-11.94,0-22.46-8.78-25-20.81l-.08-.44H157.3a42.67,42.67,0,0,0,.25-4.92v-.26C157.6,240,142.6,224.47,124,224.47Zm25.36,31.62H98.41v-.44h.08c1.67-13.17,12.66-23.09,25.39-23.09s23.78,9.92,25.36,23.09Z" fill="#fff"/><path d="M214.63,265.4A24.15,24.15,0,0,1,213,274a19.8,19.8,0,0,1-4.22,6.5,18.32,18.32,0,0,1-6.14,4.22,20,20,0,0,1-14.94,0A19,19,0,0,1,177.41,274a22,22,0,0,1-1.42-8.6V225.8H168.3v40.32a30.78,30.78,0,0,0,1.92,11.24,24.14,24.14,0,0,0,5.7,8.69,24.61,24.61,0,0,0,8.61,5.62,29.17,29.17,0,0,0,21.05.07,26.78,26.78,0,0,0,14.5-14.4,29.5,29.5,0,0,0,2.27-11.24V225.8h-7.72Z" fill="#fff"/><path d="M249.1,227.73a25.53,25.53,0,0,0-10.18,8.08,26.41,26.41,0,0,0-4.47,9.66,37.54,37.54,0,0,0-1,8.25v38.11h8.33v-38.2a27,27,0,0,1,1-7.37,18,18,0,0,1,3.69-6.68,18.33,18.33,0,0,1,7.55-4.91,37.32,37.32,0,0,1,12.83-2h1.32V224.4h-1.32A43.05,43.05,0,0,0,249.1,227.73Z" fill="#fff"/><path d="M399.22,233.09a30,30,0,0,0-10-6.59,33.29,33.29,0,0,0-24.33.09,29.87,29.87,0,0,0-16.69,16.77,34.61,34.61,0,0,0-2.54,12.91v35.47H361V257a21.91,21.91,0,0,1,1.49-7.38,17.49,17.49,0,0,1,3.52-5.44,14.08,14.08,0,0,1,5-3.42,15.92,15.92,0,0,1,12.38,0,14.4,14.4,0,0,1,4.92,3.42,15.42,15.42,0,0,1,3.52,5.44,19.38,19.38,0,0,1,1.14,7.47v34.5h15.09V256.18a34.67,34.67,0,0,0-2.19-12.91A30.6,30.6,0,0,0,399.22,233.09Z" fill="#fff"/><path d="M449.35,224.48c-18.63,0-33.63,15.55-33.63,34.6s15.11,34.5,33.63,34.5a33.67,33.67,0,0,0,30-18.61l.44-1H463.45c-.15.12-1.15,1-1.15,1a19.9,19.9,0,0,1-32-9.4l-.26-.7h52.42l.08-.52c.2-1.75.32-3.51.35-5.27C482.89,239.94,468,224.48,449.35,224.48ZM430,253.28l.27-.7a19.87,19.87,0,0,1,38.1,0l.27.7Z" fill="#fff"/><path d="M555.23,278.39c-4.9-12.55-10.34-36.79-12.46-52.68H528.9c-2,16-7.55,41.27-12.38,52.68-4.57-11.5-9.77-36.79-11.77-52.68H488.17v.44c2.19,21.16,10.1,49.08,17.38,65.68h20.64a177.06,177.06,0,0,0,9.65-32.49,173.59,173.59,0,0,0,9.74,32.49h20.71c6.16-15.19,13.36-40.83,17.22-65.68v-.44H567C564.9,241.69,559.82,265.93,555.23,278.39Z" fill="#fff"/><path d="M622.46,253.08l-10.18-2.81c-3.35-.88-6.15-2.28-6.15-6.06,0-4.71,4-5.71,8.85-5.71h3a82.84,82.84,0,0,1,15.29,2h.7V227.91c-3.71-1.41-11.86-2.46-16-2.46h-3.38c-13.26,0-24.15,5.44-24.15,18.7,0,11.24,6.14,16.42,13.6,18.35l10.18,2.72c3.87,1.06,7.47,2.64,7.47,6.76,0,5.45-4.13,7.12-9.48,7.12h-3.43a75.9,75.9,0,0,1-17.65-2.73h-.7v12.56a72,72,0,0,0,18.39,3.26h3.43c14.57,0,25.11-5.53,25.11-20.11C637.39,261.51,632.28,255.71,622.46,253.08Z" fill="#fff"/><circle cx="660.59" cy="278.04" r="13.96" fill="#fff"/><path d="M304.39,224.57c-18.62,0-33.79,15.45-33.79,34.59s15.1,34.6,33.79,34.6,33.8-15.45,33.8-34.6S323,224.57,304.39,224.57Zm0,59.79c-13,0-23.62-11.32-23.62-25.11s10.62-25.11,23.62-25.11S328,245.5,328,259.25s-10.51,25.11-23.6,25.11Z" fill="#fff"/></svg>