<svg width="62" height="64" viewBox="0 0 62 64" fill="none" xmlns="http://www.w3.org/2000/svg">
<path d="M31 0.859375C13.8789 0.859375 0 14.9626 0 32.3594C0 49.7571 13.8789 63.8594 31 63.8594C48.1211 63.8594 62 49.7571 62 32.3594C62 14.9626 48.1211 0.859375 31 0.859375ZM31 48.1094C28.8598 48.1094 27.125 46.3473 27.125 44.1719C27.125 41.9974 28.8598 40.2344 31 40.2344C33.1402 40.2344 34.875 41.9974 34.875 44.1719C34.875 46.3473 33.1402 48.1094 31 48.1094ZM34.875 34.3281H27.125L25.1875 18.5781C25.1875 17.4909 26.055 16.6094 27.125 16.6094H34.875C35.945 16.6094 36.8125 17.4909 36.8125 18.5781L34.875 34.3281Z" fill="white"/>
</svg>
