<svg version="1.1" xmlns="http://www.w3.org/2000/svg" viewBox="0 0 41.3 41.3">
<title>15 black</title>
<g id="15-age-icon-black">
    <path
       id="path4807"
       style="fill:#ffcb03;fill-opacity:1;fill-rule:nonzero;stroke:none"
       d="m 20.603749,41.5 c 11.37875,0 20.60375,-9.22625 20.60375,-20.60375 0,-11.37875 -9.225,-20.6037501 -20.60375,-20.6037501 C 9.2249995,0.2924999 0,9.5175 0,20.89625 0,32.27375 9.2249995,41.5 20.603749,41.5" />
    <g
       id="g4340"
       transform="translate(4.1281245,4.370625)">
      <g
         id="g5398"
         transform="matrix(1.25,0,0,-1.25,16.47625,4.17)">
        <path
           d="m 0,0 c 5.451,0 9.885,-4.434 9.885,-9.885 0,-5.451 -4.434,-9.885 -9.885,-9.885 -5.451,0 -9.886,4.434 -9.886,9.885 C -9.886,-4.434 -5.451,0 0,0 m 0,3.295 c -7.28,0 -13.181,-5.899 -13.181,-13.18 0,-7.279 5.901,-13.179 13.181,-13.179 7.279,0 13.18,5.9 13.18,13.179 0,7.281 -5.901,13.18 -13.18,13.18"
           style="fill:#231f20;fill-opacity:1;fill-rule:nonzero;stroke:none"
           id="path5400"/>
      </g>
      <g
         id="g5402"
         transform="matrix(1.25,0,0,-1.25,14.320099,12.678604)">
        <g
           id="text4239"
           style="fill:#ffcb03;fill-opacity:1;stroke:none;stroke-width:1px;stroke-linecap:butt;stroke-linejoin:miter;stroke-opacity:1"
           transform="scale(0.99752196,-1.0024842)">
          <path
             id="path4524"
             style="fill:#231f20;fill-opacity:1"
             d="m -2.5320967,6.9586544 0,-7.02622553 -0.8262131,0 q -0.4711463,0 -0.7101336,-0.27995651 -0.2389872,-0.28678472 -0.2389872,-0.68282076 0,-0.3823796 0.2526436,-0.6691643 0.2594719,-0.293613 0.6964772,-0.293613 l 1.9870084,0 q 0.43700529,0 0.68282076,0.2799566 0.25264368,0.2731283 0.25264368,0.7101335 l 0,7.96169 q 0,0.5189438 -0.29361293,0.8057285 -0.28678471,0.2799565 -0.75110281,0.2799565 -0.4574899,0 -0.757931,-0.2867847 -0.293613,-0.2936129 -0.293613,-0.7989003 z"/>
          <path
             id="path4526"
             style="fill:#231f20;fill-opacity:1"
             d="M 4.0298109,-0.06757113 3.8181365,1.4209781 Q 4.459988,1.2775857 4.8696804,1.2775857 q 0.8193849,0 1.4817211,0.4028643 0.6691643,0.396036 1.0378875,1.0788568 0.3755514,0.6828207 0.3755514,1.4953774 0,0.8740106 -0.2389872,1.5841442 Q 7.2936941,6.548962 6.8157196,7.0679057 6.3445733,7.5800213 5.6480961,7.8599778 4.9584471,8.1331061 4.0571237,8.1331061 q -0.5667412,0 -1.2905312,-0.2253308 Q 2.0428025,7.6824444 1.5102023,7.2522673 0.98443035,6.815262 0.98443035,6.255349 q 0,-0.2526436 0.12290775,-0.4711463 Q 1.237074,5.5588719 1.4555767,5.4359641 1.6809075,5.3062282 1.9335512,5.3062282 q 0.2321591,0 0.7101336,0.3004411 0.4779745,0.2936129 0.757931,0.4438335 0.2799565,0.1502206 0.6964772,0.1502206 0.6896489,0 1.085685,-0.5530848 0.396036,-0.5530848 0.396036,-1.2768748 0,-0.4028643 -0.1570488,-0.7306182 Q 5.2725447,3.3123916 4.9721035,3.1348582 4.6716624,2.9573248 4.2414853,2.9573248 q -0.4233488,0 -0.8740105,0.2321591 -0.4506617,0.2253308 -0.7784157,0.2253308 -0.3687232,0 -0.6008822,-0.2185026 Q 1.762846,2.9709812 1.762846,2.7593068 q 0,-0.095595 0.013656,-0.2048462 Q 1.790158,2.438381 1.803815,2.2881605 l 0.355067,-2.9566139 q 0.068282,-0.4370053 0.1502206,-0.6828207 0.081938,-0.2526437 0.2048462,-0.3892079 0.1229078,-0.1365641 0.293613,-0.1911898 0.1707051,-0.061454 0.4370052,-0.061454 l 3.3731346,0 q 0.4643181,0 0.7374464,0.2526437 0.2799565,0.2458155 0.2799565,0.6281951 0,0.63502332 -0.3209258,0.83986954 -0.3140975,0.20484623 -0.6555079,0.20484623 l -2.6288599,0 z"/>
        </g>
      </g>
    </g>
</g>
</svg>
