<svg xmlns="http://www.w3.org/2000/svg" width="192" height="44"><path fill-rule="evenodd" fill="#F7CD16" d="M191.635 30.806c0 .245-.117.438-.352.58a1.47 1.47 0 01-.773.212c-.619 0-.928-.264-.928-.792v-4.781c-1.519 1.98-2.968 3.414-4.346 4.3-1.378.887-2.798 1.329-4.261 1.329-1.35 0-2.541-.551-3.572-1.654-1.032-1.103-1.547-2.343-1.547-3.72 0-2.526.984-4.704 2.953-6.534 1.969-1.829 4.2-2.743 6.694-2.743 1.706 0 3.16.65 4.36 1.951 1.2 1.301 1.8 2.782 1.8 4.441l-.028 7.411zm-2.996-10.225a2.956 2.956 0 00-1.209-.976 9.33 9.33 0 00-1.308-.467c-.394-.103-.722-.155-.984-.155-1.838 0-3.507.74-5.007 2.22-1.5 1.481-2.25 3.192-2.25 5.134 0 1.074.375 1.891 1.125 2.446.75.557 1.547.835 2.391.835.975 0 2.09-.485 3.347-1.457 1.256-.971 2.301-2.055 3.136-3.253.834-1.197 1.252-2.135 1.252-2.814 0-.566-.165-1.07-.493-1.513zm-15.37 10.055a.668.668 0 01-.31.58c-.206.141-.45.212-.731.212-.694 0-1.041-.264-1.041-.792v-7.439c0-1.338-.473-2.366-1.42-3.083-.947-.716-1.927-1.075-2.939-1.075-1.369 0-2.771.458-4.205 1.372-1.435.915-2.433 2.07-2.996 3.465v6.817c0 .509-.356.763-1.069.763a1.25 1.25 0 01-.717-.198.638.638 0 01-.295-.565V18.049a.64.64 0 01.295-.565c.197-.132.436-.198.717-.198.713 0 1.069.254 1.069.763v2.235c.938-1.019 2.072-1.825 3.404-2.419 1.331-.594 2.681-.891 4.05-.891 1.762 0 3.239.552 4.43 1.655 1.19 1.103 1.786 2.541 1.786 4.313l-.014 2.588c-.01 1.556-.014 3.258-.014 5.106zm-19.253.75a1.47 1.47 0 01-.773.212c-.619 0-.928-.264-.928-.792v-4.781c-1.519 1.98-2.968 3.414-4.346 4.3-1.378.887-2.798 1.329-4.261 1.329-1.35 0-2.541-.551-3.572-1.654-1.032-1.103-1.547-2.343-1.547-3.72 0-2.526.984-4.704 2.953-6.534 1.969-1.829 4.2-2.743 6.694-2.743 1.706 0 3.16.65 4.36 1.951 1.2 1.301 1.8 2.782 1.8 4.441l-.028 7.411c0 .245-.117.438-.352.58zm-2.644-10.805a2.956 2.956 0 00-1.209-.976 9.33 9.33 0 00-1.308-.467c-.394-.103-.722-.155-.984-.155-1.838 0-3.507.74-5.007 2.22-1.5 1.481-2.25 3.192-2.25 5.134 0 1.074.375 1.891 1.125 2.446.75.557 1.547.835 2.391.835.975 0 2.09-.485 3.347-1.457 1.256-.971 2.301-2.055 3.136-3.253.834-1.197 1.252-2.135 1.252-2.814 0-.566-.165-1.07-.493-1.513zm-15.37 10.055a.668.668 0 01-.31.58c-.206.141-.45.212-.731.212-.694 0-1.041-.264-1.041-.792v-7.439c0-1.338-.473-2.366-1.42-3.083-.947-.716-1.927-1.075-2.939-1.075-1.369 0-2.771.458-4.205 1.372-1.435.915-2.433 2.07-2.996 3.465v6.817c0 .509-.356.763-1.068.763-.282 0-.521-.065-.718-.198a.638.638 0 01-.295-.565V18.049a.64.64 0 01.295-.565 1.26 1.26 0 01.718-.198c.712 0 1.068.254 1.068.763v2.235c.938-1.019 2.072-1.825 3.404-2.419 1.331-.594 2.681-.891 4.05-.891 1.762 0 3.239.552 4.43 1.655 1.19 1.103 1.786 2.541 1.786 4.313l-.014 2.588c-.01 1.556-.014 3.258-.014 5.106zm-19.253.75a1.47 1.47 0 01-.773.212c-.619 0-.928-.264-.928-.792v-4.781c-1.519 1.98-2.968 3.414-4.346 4.3-1.378.887-2.799 1.329-4.261 1.329-1.35 0-2.541-.551-3.572-1.654-1.031-1.103-1.547-2.343-1.547-3.72 0-2.526.984-4.704 2.953-6.534 1.969-1.829 4.2-2.743 6.694-2.743 1.706 0 3.16.65 4.36 1.951 1.2 1.301 1.8 2.782 1.8 4.441l-.028 7.411c0 .245-.117.438-.352.58zm-2.644-10.805a2.956 2.956 0 00-1.209-.976 9.33 9.33 0 00-1.308-.467c-.394-.103-.722-.155-.984-.155-1.838 0-3.507.74-5.007 2.22-1.5 1.481-2.25 3.192-2.25 5.134 0 1.074.375 1.891 1.125 2.446.75.557 1.547.835 2.391.835.975 0 2.09-.485 3.347-1.457 1.256-.971 2.301-2.055 3.136-3.253.834-1.197 1.252-2.135 1.252-2.814 0-.566-.165-1.07-.493-1.513zM94.066 31.654c-1.463 0-2.883-.442-4.261-1.329-1.379-.886-2.827-2.32-4.346-4.3v4.611a.667.667 0 01-.309.58c-.207.141-.45.212-.732.212-.694 0-1.04-.264-1.04-.792V10.95c0-.491.356-.736 1.068-.736.676 0 1.013.245 1.013.736v7.722c1.162-1.113 2.522-1.669 4.078-1.669 2.494 0 4.726.914 6.694 2.743 1.969 1.83 2.954 4.008 2.954 6.534 0 1.377-.516 2.617-1.547 3.72-1.032 1.103-2.222 1.654-3.572 1.654zm.843-10.451c-1.5-1.48-3.169-2.22-5.006-2.22-.263 0-.591.052-.984.155a9.33 9.33 0 00-1.308.467 2.952 2.952 0 00-1.21.976 2.476 2.476 0 00-.492 1.513c0 .679.417 1.617 1.252 2.814.834 1.198 1.879 2.282 3.136 3.253 1.256.972 2.372 1.457 3.347 1.457.844 0 1.64-.278 2.391-.835.749-.555 1.125-1.372 1.125-2.446 0-1.942-.751-3.653-2.251-5.134zm-20.096 2.932c-.094-.095-.141-.237-.188-.38-.329-.76-.799-1.853-2.775-3.326-2.257-1.71-5.549-1.282-5.596-1.282-.141.047-.282-.048-.282-.19-.048-.143.046-.285.188-.285.141-.048 3.527-.475 5.926 1.33 2.069 1.567 2.586 2.755 2.916 3.515.047.143.094.286.141.381.141.332.329.76.517 1.283.329.902.8 1.995 1.223 2.707.047.096 0 .286-.094.333-.047.048-.094.048-.141.048-.047 0-.141-.048-.047-.095-.471-.713-.894-1.901-1.27-2.804-.188-.522-.376-.95-.518-1.235zm2.54 9.835c-.047.142-.188.237-.329.285h-.094a.506.506 0 01-.329-.143l-1.505-1.568a.26.26 0 01-.141-.237l-.236-1.188c0-.19.047-.38.189-.475l.329-.19.141-.903c-.047-.047-.141-.237-.423-.57-.283-.333-.565-.95-.894-1.71-.423-.95-.941-2.138-1.411-2.613-1.223-1.236-3.01-2.091-4.374-2.186l.894 2.946c-1.082-1.188-2.399-2.803-3.104-3.658h.188c.047-.048.094-.095.188-.095l1.176-.096c.047-.047.141-.047.188-.047 1.693-.095 3.95.903 5.502 2.471.565.57 1.129 1.805 1.6 2.85.282.618.564 1.283.752 1.521.658.807.658 1.045.658 1.14v.095l-.188 1.235c-.047.095-.094.19-.188.285l-.188.143.141.76.894.95c.329-.76.799-1.995 1.034-2.755.236-.856.142-1.236.094-1.569 0-.142-.047-.237-.047-.379 0-.19-.376-1.711-1.316-5.321-.283-1.093-.659-1.996-1.176-2.803-2.305-3.659-5.644-3.707-5.785-3.707-2.963-.284-3.904 1.616-3.951 2.091-.047.428-.423.998-1.081 1.948-.33.523-.706 1.045-.988 1.568-.376.665-.423 1.33-.423 1.71.235-.522.611-1.093 1.175-1.473.706 1.473 4.704 9.122 13.404 15.821.047.048.094.048.141.048.095 0 .142-.048.189-.096.094-.095.047-.237-.047-.332-8.654-6.651-12.605-14.253-13.263-15.583.188-.095.423-.142.705-.19.659.807 2.399 2.945 3.669 4.371.094 0 .188.095.235.189 1.176 1.141 3.903 3.991 4.985 5.559.894 1.331 1.881 2.613 2.446 3.278l.282.38c.47.523 1.552 2.043 1.552 2.043.047 0 .047 0 .047.048.376 2.233-1.693 2.708-1.693 2.708-.282.095-1.035.332-2.258.332-3.245 0-9.547-1.71-17.448-12.352-.141 1.853-.047 4.323.423 7.697.705.855 2.587 2.85 3.668 3.135a.487.487 0 01.283.238c.893 1.52.846 3.848.846 3.943a.5.5 0 01-.235.427c-.094.048-.141.048-.235.048s-.188-.048-.282-.095l-9.595-6.414c-.188-.142-4.562-3.135-6.302-8.504-.988-3.231-.517-6.841 1.317-9.644l.423-.57c-.282-.191-.611-.57-.752-1.141-.189-1.045 2.21-4.703 3.574-4.988.941-.19 2.069.238 2.775.57.329-3.373 1.176-7.506 3.386-9.882C60.516-.902 63.62.001 64.608.285l.047.048c.893.285 2.774 1.473 3.151 2.518.282.76-.329 2.28-2.023 5.321-.517.95-1.317 2.708-1.834 4.133.329 0 .612.048.847.19.376.143.564.428.705.666.423.57.894 1.9 1.129 2.803.705-.428 1.693-.666 3.01-.523.094 0 3.951.047 6.537 4.133.518.855.988 1.9 1.27 3.041 1.317 5.083 1.364 5.416 1.364 5.511 0 .095.047.19.047.285.047.38.141.95-.141 1.995-.376 1.283-1.317 3.468-1.364 3.564zM50.639 13.636c-.799.19-2.351 2.47-2.775 3.515l.188-.189c.894-.761 2.681-.191 3.199 0a4.26 4.26 0 011.787.522c0-.76 0-1.853.094-3.183-.565-.285-1.74-.808-2.493-.665zm-2.069 4.181l.423-.286a.856.856 0 01-.329.095.364.364 0 00-.094.191zm2.445.047c-.188 0-.376 0-.517.048-.941.19-1.787.855-2.54 2.043-1.693 2.565-2.116 5.843-1.175 8.836 1.552 4.941 5.831 7.839 5.879 7.886l8.794 5.892c-.047-.666-.188-1.616-.564-2.376-1.599-.57-3.809-3.183-4.045-3.468a.367.367 0 01-.094-.237c-.94-6.937-.564-11.355 1.129-13.066.423-.617.894-1.14 1.458-1.377a15.498 15.498 0 00-3.01-1.283c-2.069-.665-2.916-1.758-3.151-2.138-.753-.522-1.505-.76-2.164-.76zM64.984 7.697c2.069-3.563 2.022-4.371 1.975-4.513-.188-.618-1.693-1.663-2.493-1.901h-.094c-.893-.237-3.527-1.045-7.101 2.803-3.528 3.801-3.34 13.16-3.293 14.111.189.284.894 1.14 2.634 1.71.471.143 3.998 1.283 4.891 2.85l.142.143c.047 0 .094.048.141.143 1.505 2.802 7.243 12.732 14.815 16.39h.094a.258.258 0 00.235-.142c.094-.143.047-.286-.094-.333-7.337-3.516-12.981-13.065-14.58-16.01.047-.428.188-.903.47-1.379.282-.522.706-1.092 1.035-1.614a2.77 2.77 0 00.188-.333c-.094-.048-.188-.095-.282-.19-.611-.856-1.834-4.941-.894-6.699l.047-.048c.518-1.662 1.552-3.895 2.164-4.988zm-.235 6.271v-.047c0-.048-.094-.381-.377-.523-.188-.095-.423-.095-.705 0-.047.142-.094.238-.094.333a.365.365 0 01-.094.19c-.235 1.615.611 4.465.987 4.988.142-.237.236-.428.236-.523.047-.142.094-.284.094-.427-.424-1.14-.235-2.945-.047-3.991zm-5.033 5.606c.047.143-.047.285-.188.285h-.047c-.094 0-.235-.095-.235-.19 0-.142-.517-3.61.141-5.938.988-3.658 4.139-6.557 4.28-6.699.094-.095.235-.047.329.047a.232.232 0 010 .333c-.047 0-3.198 2.945-4.186 6.461-.611 2.186-.094 5.654-.094 5.701zm1.693-15.203c-1.787.713-3.433 1.616-5.22 4.894-1.693 3.183-.894 9.027-.894 9.074 0 .142-.094.285-.235.285s-.235-.095-.282-.285c0-.237-.8-6.081.988-9.359 1.834-3.421 3.621-4.371 5.455-5.084.941-.332 3.669-.712 3.763-.712.141-.048.282.047.282.189.047.143-.047.286-.188.286-.047 0-2.822.38-3.669.712zM56.988 21.38c.142 0 .283.047.283.189 0 .143-.047.238-.188.286 0 0-1.6.427-2.493 2.375-.847 1.853-1.27 5.416 1.599 11.973.047.142 0 .285-.141.332h-.094a.258.258 0 01-.235-.142c-2.352-5.464-2.822-9.597-1.505-12.4.987-2.138 2.68-2.613 2.774-2.613zm-1.646 16.2c-.047.048-.094.048-.141.048-.094 0-.141-.048-.188-.095-5.173-5.559-7.384-10.262-6.537-13.968.752-3.326 3.762-4.513 3.903-4.561.094-.047.235 0 .283.143.047.095 0 .237-.142.285 0 0-2.916 1.14-3.621 4.228-.8 3.516 1.364 8.076 6.443 13.588a.23.23 0 010 .332zm-23.126 1.061c-1.5 0-2.756-.264-3.768-.792-1.013-.528-1.529-1.405-1.547-2.63 0-.302.093-.533.281-.693a1.04 1.04 0 01.703-.241c.3 0 .558.085.773.255a.79.79 0 01.324.65c0 .321.089.58.267.778.178.198.464.335.858.41.394.075.736.123 1.027.142.29.018.698.028 1.223.028 1.331 0 2.48-.406 3.446-1.216.965-.811 1.448-1.999 1.448-3.564v-5.743c-1.519 1.98-2.967 3.414-4.345 4.3-1.379.887-2.799 1.329-4.262 1.329-1.35 0-2.541-.551-3.572-1.654-1.031-1.103-1.547-2.343-1.547-3.72 0-2.526.985-4.704 2.954-6.534 1.969-1.829 4.2-2.743 6.694-2.743 1.556 0 2.915.556 4.078 1.669v-.651c0-.509.356-.764 1.069-.764.281 0 .52.066.717.198a.64.64 0 01.295.566V31.57c0 2.206-.712 3.936-2.137 5.19-1.425 1.254-3.085 1.881-4.979 1.881zm4.093-18.06a2.952 2.952 0 00-1.21-.976 9.365 9.365 0 00-1.307-.467c-.394-.103-.723-.155-.985-.155-1.838 0-3.506.74-5.006 2.22-1.501 1.481-2.251 3.192-2.251 5.134 0 1.074.375 1.891 1.126 2.446.749.557 1.546.835 2.39.835.975 0 2.091-.485 3.347-1.457 1.256-.971 2.302-2.055 3.136-3.253.835-1.197 1.252-2.135 1.252-2.814 0-.566-.164-1.07-.492-1.513zm-16.58 10.847c-.694 0-1.041-.264-1.041-.792V18.049c0-.509.356-.763 1.069-.763.281 0 .52.066.717.198a.64.64 0 01.295.565v12.587a.667.667 0 01-.309.58c-.207.141-.45.212-.731.212zm0-16.971c-.694 0-1.041-.264-1.041-.792v-.509c0-.509.356-.764 1.069-.764.281 0 .52.066.717.198a.64.64 0 01.295.566v.509a.667.667 0 01-.309.58c-.207.141-.45.212-.731.212zm-8.916 17.197c-1.463 0-2.883-.442-4.261-1.329-1.378-.886-2.827-2.32-4.346-4.3v4.611a.667.667 0 01-.309.58c-.207.141-.45.212-.731.212-.694 0-1.041-.264-1.041-.792V10.95c0-.491.356-.736 1.069-.736.675 0 1.012.245 1.012.736v7.722c1.163-1.113 2.522-1.669 4.079-1.669 2.493 0 4.725.914 6.694 2.743 1.969 1.83 2.953 4.008 2.953 6.534 0 1.377-.516 2.617-1.547 3.72-1.031 1.103-2.222 1.654-3.572 1.654zm.844-10.451c-1.501-1.48-3.169-2.22-5.007-2.22-.263 0-.59.052-.984.155a9.33 9.33 0 00-1.308.467 2.95 2.95 0 00-1.209.976 2.471 2.471 0 00-.493 1.513c0 .679.417 1.617 1.252 2.814.834 1.198 1.88 2.282 3.136 3.253 1.256.972 2.372 1.457 3.347 1.457.844 0 1.641-.278 2.391-.835.75-.555 1.125-1.372 1.125-2.446 0-1.942-.75-3.653-2.25-5.134z"/></svg>