<svg width="12" height="12" viewBox="0 0 12 12" fill="none" xmlns="http://www.w3.org/2000/svg">
<path d="M11.2498 8.33317H3.08317C2.92846 8.33317 2.78009 8.27171 2.67069 8.16232C2.5613 8.05292 2.49984 7.90455 2.49984 7.74984C2.49984 7.59513 2.5613 7.44675 2.67069 7.33736C2.78009 7.22796 2.92846 7.1665 3.08317 7.1665H9.17317C9.56322 7.16653 9.94209 7.03624 10.2496 6.79634C10.5572 6.55643 10.7758 6.22066 10.8707 5.84234L11.8332 2.0565C11.855 1.97041 11.8569 1.88046 11.8387 1.79352C11.8205 1.70658 11.7827 1.62494 11.7282 1.55484C11.6714 1.48293 11.5986 1.42539 11.5155 1.38688C11.4324 1.34837 11.3414 1.32997 11.2498 1.33317H2.94317C2.82282 0.992767 2.60013 0.69792 2.30563 0.489051C2.01112 0.280183 1.65922 0.167519 1.29817 0.166504H0.749837C0.595128 0.166504 0.446754 0.227962 0.337358 0.337358C0.227962 0.446754 0.166504 0.595128 0.166504 0.749837C0.166504 0.904547 0.227962 1.05292 0.337358 1.16232C0.446754 1.27171 0.595128 1.33317 0.749837 1.33317H1.29817C1.43142 1.32929 1.56199 1.37116 1.66812 1.45183C1.77426 1.53249 1.84957 1.64708 1.8815 1.7765L1.9165 2.0565L2.92567 5.99984C2.46154 6.02072 2.02472 6.22513 1.7113 6.56808C1.39788 6.91104 1.23353 7.36446 1.25442 7.82859C1.27531 8.29272 1.47971 8.72954 1.82267 9.04296C2.16563 9.35638 2.61904 9.52072 3.08317 9.49984H3.18817C3.09223 9.76416 3.0614 10.0477 3.0983 10.3265C3.13519 10.6053 3.23871 10.871 3.40011 11.1013C3.5615 11.3316 3.776 11.5196 4.02546 11.6493C4.27491 11.7791 4.55197 11.8469 4.83317 11.8469C5.11437 11.8469 5.39143 11.7791 5.64088 11.6493C5.89034 11.5196 6.10484 11.3316 6.26623 11.1013C6.42763 10.871 6.53115 10.6053 6.56804 10.3265C6.60494 10.0477 6.57411 9.76416 6.47817 9.49984H7.85484C7.7589 9.76416 7.72807 10.0477 7.76496 10.3265C7.80186 10.6053 7.90538 10.871 8.06677 11.1013C8.22817 11.3316 8.44267 11.5196 8.69213 11.6493C8.94158 11.7791 9.21864 11.8469 9.49984 11.8469C9.78104 11.8469 10.0581 11.7791 10.3075 11.6493C10.557 11.5196 10.7715 11.3316 10.9329 11.1013C11.0943 10.871 11.1978 10.6053 11.2347 10.3265C11.2716 10.0477 11.2408 9.76416 11.1448 9.49984H11.2498C11.4045 9.49984 11.5529 9.43838 11.6623 9.32898C11.7717 9.21959 11.8332 9.07121 11.8332 8.9165C11.8332 8.76179 11.7717 8.61342 11.6623 8.50402C11.5529 8.39463 11.4045 8.33317 11.2498 8.33317ZM10.5032 2.49984L9.739 5.5565C9.70707 5.68593 9.63176 5.80052 9.52562 5.88118C9.41949 5.96184 9.28892 6.00372 9.15567 5.99984H4.1215L3.2465 2.49984H10.5032ZM4.83317 10.6665C4.7178 10.6665 4.60502 10.6323 4.50909 10.5682C4.41316 10.5041 4.33839 10.413 4.29424 10.3064C4.25009 10.1998 4.23854 10.0825 4.26105 9.96937C4.28355 9.85621 4.33911 9.75227 4.42069 9.67069C4.50227 9.58911 4.60621 9.53355 4.71937 9.51105C4.83252 9.48854 4.94981 9.50009 5.0564 9.54424C5.16299 9.58839 5.2541 9.66316 5.31819 9.75909C5.38229 9.85502 5.4165 9.9678 5.4165 10.0832C5.4165 10.2379 5.35505 10.3863 5.24565 10.4956C5.13625 10.605 4.98788 10.6665 4.83317 10.6665ZM9.49984 10.6665C9.38446 10.6665 9.27168 10.6323 9.17575 10.5682C9.07983 10.5041 9.00506 10.413 8.96091 10.3064C8.91676 10.1998 8.9052 10.0825 8.92771 9.96937C8.95022 9.85621 9.00578 9.75227 9.08736 9.67069C9.16894 9.58911 9.27288 9.53355 9.38603 9.51105C9.49919 9.48854 9.61648 9.50009 9.72307 9.54424C9.82966 9.58839 9.92076 9.66316 9.98486 9.75909C10.049 9.85502 10.0832 9.9678 10.0832 10.0832C10.0832 10.2379 10.0217 10.3863 9.91232 10.4956C9.80292 10.605 9.65455 10.6665 9.49984 10.6665Z" fill="white"/>
</svg>
