<svg width="172" height="35" viewBox="0 0 172 35" fill="none" xmlns="http://www.w3.org/2000/svg">
<path d="M1.48093 25.6379C1.15266 25.3034 0.988525 24.9689 0.988525 24.4672V2.22325C0.988525 1.72151 1.15266 1.38702 1.48093 1.05252C1.80921 0.718029 2.13748 0.550781 2.62989 0.550781C3.1223 0.550781 3.45057 0.718029 3.77884 1.05252C4.10711 1.38702 4.27125 1.72151 4.27125 2.22325V11.2546C5.09193 10.2511 6.07675 9.58214 7.06157 8.91315C8.04638 8.41141 9.19534 8.07691 10.5084 8.07691C11.8215 8.07691 12.8063 8.41141 13.7912 8.91315C14.776 9.58214 15.4325 10.2511 15.9249 11.4219C16.4173 12.5926 16.5815 13.5961 16.5815 14.7668V24.4672C16.5815 24.9689 16.4173 25.3034 16.0891 25.6379C15.7608 25.9724 15.2684 26.1396 14.776 26.1396C14.2836 26.1396 13.9553 25.9724 13.627 25.6379C13.2987 25.3034 13.1346 24.9689 13.1346 24.4672V15.1013C13.1346 12.2581 11.8215 10.9201 9.35947 10.9201C8.21052 10.9201 7.2257 11.2546 6.40502 11.7564C5.58434 12.4253 4.76366 13.0943 3.94298 14.0978V24.4672C3.94298 24.9689 3.77884 25.3034 3.45057 25.6379C3.1223 25.9724 2.95816 26.1396 2.46575 26.1396C1.97334 26.1396 1.64507 25.9724 1.48093 25.6379Z" fill="white" stroke="white"/>
<path d="M22.8187 23.7987C21.3414 22.1262 20.5208 19.952 20.5208 17.1088C20.5208 15.4363 20.849 13.9311 21.3414 12.5931C21.8338 11.2551 22.8187 10.0844 23.9676 9.24813C25.1166 8.4119 26.5938 7.91016 28.3993 7.91016C30.0407 7.91016 31.5179 8.24465 32.6668 9.08089C33.8158 9.91712 34.8006 10.9206 35.4571 12.2586C36.1137 13.5966 36.442 14.9345 36.442 16.607C36.442 17.1088 36.2778 17.4433 35.9495 17.7778C35.6213 18.1122 35.293 18.2795 34.8006 18.2795H23.3111C23.4752 19.952 24.1317 21.1227 25.1166 21.9589C26.1014 22.7952 27.4145 23.2969 29.22 23.2969C30.2048 23.2969 31.0255 23.1297 31.682 22.9624C32.3386 22.7952 33.1592 22.4607 33.8158 22.1262C33.9799 21.9589 34.1441 21.9589 34.4723 21.9589C34.8006 21.9589 35.1289 22.1262 35.4571 22.2934C35.7854 22.4607 35.7854 22.7952 35.7854 23.2969C35.7854 23.7987 35.4571 24.3004 34.9647 24.6349C34.1441 25.1366 33.1592 25.4711 32.3386 25.8056C31.5179 26.1401 30.3689 26.1401 29.0558 26.1401C26.4297 26.3074 24.2959 25.4711 22.8187 23.7987ZM33.4875 15.7708C33.4875 14.6 33.1592 13.7638 32.6668 12.9276C32.1744 12.0913 31.5179 11.5896 30.8613 11.2551C30.2048 10.9206 29.3841 10.7534 28.5634 10.7534C27.7427 10.7534 27.0862 10.9206 26.2655 11.2551C25.4448 11.5896 24.9524 12.0913 24.46 12.9276C23.9676 13.7638 23.6393 14.6 23.6393 15.7708H33.4875Z" fill="white" stroke="white"/>
<path d="M41.0378 33.499C40.7095 33.1645 40.5454 32.83 40.5454 32.3283V9.74988C40.5454 9.24813 40.7095 8.91364 41.0378 8.57915C41.3661 8.24465 41.6944 8.0774 42.1868 8.0774C42.6792 8.0774 43.0075 8.24465 43.3357 8.57915C43.664 8.91364 43.8281 9.24813 43.8281 9.74988V10.5861C45.4695 8.91364 47.4391 7.91016 49.5729 7.91016C50.886 7.91016 52.3632 8.24465 53.5122 8.91364C54.6611 9.58263 55.8101 10.7534 56.4666 12.0913C57.1232 13.4293 57.6156 15.1018 57.6156 16.9415C57.6156 18.7812 57.2873 20.4537 56.4666 21.7917C55.6459 23.1297 54.6611 24.3004 53.5122 24.9694C52.3632 25.6384 50.886 25.9729 49.5729 25.9729C47.4391 25.9729 45.4695 25.1366 43.8281 23.2969V31.9938C43.8281 32.4955 43.664 32.83 43.3357 33.1645C43.0075 33.499 42.6792 33.6663 42.1868 33.6663C41.6944 34.0008 41.202 33.8335 41.0378 33.499ZM52.8556 21.7917C53.8404 20.7882 54.3328 19.1157 54.3328 17.276C54.3328 15.4363 53.8404 13.7638 52.8556 12.7603C51.8708 11.7568 50.5577 11.0879 48.9164 11.0879C47.9315 11.0879 46.9467 11.2551 45.9619 11.7568C44.9771 12.2586 44.3205 12.9276 43.4999 13.5966V20.7882C44.1564 21.6244 44.9771 22.1262 45.9619 22.6279C46.9467 23.1297 47.7674 23.2969 48.9164 23.2969C50.5577 23.2969 51.8708 22.7952 52.8556 21.7917Z" fill="white" stroke="white"/>
<path d="M63.3599 25.6381C62.5392 25.3036 61.8827 24.6346 61.3903 23.7984C60.8979 22.9622 60.5696 22.1259 60.5696 21.1224C60.5696 19.45 61.2261 18.112 62.5392 17.1085C63.8523 16.105 65.8219 15.6033 68.284 15.6033H72.3874V15.2688C72.3874 13.7636 72.0591 12.5928 71.2384 12.0911C70.5819 11.4221 69.4329 11.0876 67.7916 11.0876C66.9709 11.0876 66.1502 11.0876 65.4937 11.2548C64.8371 11.4221 64.0164 11.5893 63.3599 11.9238C63.1958 11.9238 63.0316 11.9238 62.8675 11.9238C62.5392 11.9238 62.2109 11.7566 62.0468 11.5893C61.7185 11.2548 61.7185 11.0876 61.7185 10.5859C61.7185 9.91687 62.0468 9.58237 62.5392 9.24788C64.5088 8.41164 66.3143 8.07715 68.284 8.07715C69.7612 8.07715 71.0743 8.41164 72.2233 9.08063C73.2081 9.74962 74.0287 10.5859 74.5212 11.5893C75.0136 12.5928 75.3418 13.7636 75.3418 14.9343V24.4674C75.3418 24.9691 75.1777 25.3036 74.8494 25.6381C74.5212 25.9726 74.357 26.1399 74.0287 26.1399C73.5363 26.1399 73.2081 25.9726 72.8798 25.6381C72.5515 25.3036 72.3874 24.9691 72.3874 24.4674V23.6312C70.746 25.3036 68.6123 26.3071 65.9861 26.3071C65.1654 26.3071 64.1806 25.9726 63.3599 25.6381ZM70.0895 22.7949C71.0743 22.2932 71.7308 21.6242 72.3874 20.9552V18.112H68.7764C65.3295 18.112 63.6882 18.9482 63.6882 20.7879C63.6882 21.6242 64.0164 22.2932 64.5089 22.7949C65.0013 23.2967 65.9861 23.6312 67.2992 23.6312C68.284 23.4639 69.2688 23.2967 70.0895 22.7949Z" fill="white" stroke="white"/>
<path d="M80.102 24.6346C79.7738 24.3001 79.6096 23.9656 79.6096 23.4639C79.6096 23.1294 79.7738 22.7949 79.9379 22.4604C80.102 22.1259 80.4303 22.1259 80.9227 22.1259C81.0868 22.1259 81.251 22.1259 81.5792 22.2932C82.2358 22.6277 83.0565 22.7949 83.713 23.1294C84.3696 23.4639 85.1902 23.4639 86.1751 23.4639C88.6371 23.4639 89.9502 22.6277 89.9502 20.9552C89.9502 20.4535 89.6219 19.9517 89.1295 19.7845C88.6371 19.6172 87.6523 19.2827 86.3392 18.781C85.0261 18.4465 83.8772 18.112 83.0565 17.7775C82.2358 17.443 81.4151 16.9413 80.7586 16.2723C80.102 15.6033 79.7738 14.5998 79.7738 13.4291C79.7738 11.7566 80.2662 10.5859 81.4151 9.58238C82.5641 8.57889 84.2054 8.07715 86.3392 8.07715C88.1447 8.07715 89.6219 8.41164 91.2633 8.91339C91.5916 9.08063 91.7557 9.24788 91.9198 9.41513C92.084 9.74962 92.2481 9.91687 92.2481 10.2514C92.2481 10.5859 92.084 10.9204 91.9198 11.2548C91.7557 11.5893 91.2633 11.5893 90.935 11.5893C90.7709 11.5893 90.6067 11.5893 90.4426 11.5893C89.1295 11.2548 87.8164 10.9204 86.6675 10.9204C85.5185 10.9204 84.5337 11.0876 83.8772 11.5893C83.2206 12.0911 82.8923 12.5928 82.8923 13.2618C82.8923 13.9308 83.2206 14.4325 83.8772 14.767C84.5337 15.1015 85.5185 15.436 86.8316 15.7705C88.1447 16.105 89.2936 16.4395 90.1143 16.774C90.935 17.1085 91.5916 17.6102 92.2481 18.2792C92.9046 18.9482 93.0688 19.9517 93.0688 21.1224C93.0688 22.6277 92.5764 23.7984 91.4274 24.8019C90.2785 25.8054 88.6371 26.3071 86.6675 26.3071C84.0413 26.3071 81.9075 25.8054 80.102 24.6346Z" fill="white" stroke="white"/>
<path d="M98.4856 25.6381C97.6649 25.3036 97.0084 24.6346 96.516 23.7984C96.0236 22.9622 95.6953 22.1259 95.6953 21.1224C95.6953 19.45 96.3519 18.112 97.6649 17.1085C98.978 16.105 100.948 15.6033 103.41 15.6033H107.513V15.2688C107.513 13.7636 107.185 12.5928 106.364 12.0911C105.708 11.4221 104.559 11.0876 102.917 11.0876C102.097 11.0876 101.276 11.0876 100.619 11.2548C99.9629 11.4221 99.1422 11.5893 98.4856 11.9238C98.3215 11.9238 98.1574 11.9238 97.9932 11.9238C97.6649 11.9238 97.3367 11.7566 97.1725 11.5893C96.8443 11.2548 96.8443 11.0876 96.8443 10.5859C96.8443 9.91687 97.1725 9.58237 97.6649 9.24788C99.6346 8.41164 101.44 8.07715 103.41 8.07715C104.887 8.07715 106.2 8.41164 107.349 9.08063C108.334 9.74962 109.154 10.5859 109.647 11.5893C110.139 12.5928 110.468 13.7636 110.468 14.9343V24.4674C110.468 24.9691 110.303 25.3036 109.975 25.6381C109.647 25.9726 109.483 26.1399 108.99 26.1399C108.498 26.1399 108.17 25.9726 107.841 25.6381C107.513 25.3036 107.349 24.9691 107.349 24.4674V23.6312C105.708 25.3036 103.574 26.3071 100.948 26.3071C100.291 26.3071 99.3063 25.9726 98.4856 25.6381ZM105.215 22.7949C106.2 22.2932 106.857 21.6242 107.513 20.9552V18.112H103.902C100.455 18.112 98.8139 18.9482 98.8139 20.7879C98.8139 21.6242 99.1422 22.2932 99.6346 22.7949C100.127 23.2967 101.112 23.6312 102.425 23.6312C103.41 23.4639 104.23 23.2967 105.215 22.7949Z" fill="white" stroke="white"/>
<path d="M116.212 25.6384C115.884 25.3039 115.72 24.9694 115.72 24.4676V9.74988C115.72 9.24813 115.884 8.91364 116.212 8.57915C116.54 8.24465 116.869 8.0774 117.361 8.0774C117.853 8.0774 118.182 8.24465 118.51 8.57915C118.838 8.91364 119.002 9.24813 119.002 9.74988V11.0879C119.823 10.0844 120.808 9.41538 121.793 8.74639C122.778 8.24465 123.927 7.91016 125.24 7.91016C126.553 7.91016 127.538 8.24465 128.522 8.74639C129.507 9.41538 130.164 10.0844 130.656 11.2551C131.149 12.4258 131.313 13.4293 131.313 14.6001V24.4676C131.313 24.9694 131.149 25.3039 130.82 25.6384C130.492 25.9729 130 26.1401 129.507 26.1401C129.015 26.1401 128.686 25.9729 128.358 25.6384C128.03 25.3039 127.866 24.9694 127.866 24.4676V15.1018C127.866 12.2586 126.553 10.9206 124.091 10.9206C122.942 10.9206 121.957 11.2551 121.136 11.7568C120.316 12.4258 119.495 13.0948 118.674 14.0983V24.4676C118.674 24.9694 118.51 25.3039 118.182 25.6384C117.853 25.9729 117.689 26.1401 117.361 26.1401C117.033 26.1401 116.54 25.9729 116.212 25.6384Z" fill="white" stroke="white"/>
<path d="M139.355 25.1361C138.042 24.2999 137.057 23.2964 136.401 21.9584C135.744 20.6205 135.416 18.948 135.416 17.2755C135.416 15.603 135.744 13.9306 136.401 12.5926C137.057 11.2546 138.042 10.0839 139.355 9.41487C140.668 8.74588 142.146 8.24414 143.951 8.24414C145.592 8.24414 147.234 8.57864 148.383 9.41487C149.696 10.2511 150.681 11.2546 151.337 12.5926C151.994 13.9306 152.486 15.603 152.486 17.2755C152.486 18.948 152.158 20.6205 151.337 21.9584C150.681 23.2964 149.532 24.4671 148.383 25.1361C147.07 25.9724 145.592 26.3069 143.951 26.3069C142.146 26.3069 140.668 25.8051 139.355 25.1361ZM146.413 22.7947C147.234 22.2929 147.89 21.6239 148.547 20.7877C149.203 19.9515 149.368 18.6135 149.368 17.2755C149.368 15.9375 149.039 14.5995 148.547 13.7633C148.054 12.9271 147.234 12.0908 146.413 11.7563C145.592 11.4218 144.772 11.0873 143.787 11.0873C142.802 11.0873 141.981 11.2546 141.161 11.7563C140.34 12.2581 139.684 12.9271 139.027 13.7633C138.37 14.5995 138.206 15.9375 138.206 17.2755C138.206 18.7807 138.535 19.9515 139.027 20.7877C139.519 21.6239 140.176 22.4602 141.161 22.7947C142.146 23.1292 142.966 23.4637 143.787 23.4637C144.772 23.4637 145.592 23.1292 146.413 22.7947Z" fill="white" stroke="white"/>
<path d="M157.246 25.6379C156.918 25.3034 156.754 24.9689 156.754 24.4672V2.22325C156.754 1.72151 156.918 1.38702 157.246 1.05252C157.574 0.718029 157.903 0.550781 158.395 0.550781C158.887 0.550781 159.216 0.718029 159.544 1.05252C159.872 1.38702 160.036 1.72151 160.036 2.22325V24.4672C160.036 24.9689 159.872 25.3034 159.544 25.6379C159.216 25.9724 158.723 26.1396 158.231 26.1396C157.738 26.1396 157.41 25.9724 157.246 25.6379Z" fill="white" stroke="white"/>
<path d="M168.046 8C170.23 8 172 6.20914 172 4C172 1.79086 170.23 0 168.046 0C165.862 0 164.092 1.79086 164.092 4C164.092 6.20914 165.862 8 168.046 8Z" fill="#F17621"/>
</svg>
