<svg width="60" height="51" viewBox="0 0 60 51" fill="none" xmlns="http://www.w3.org/2000/svg">
<path d="M13.2 0C16.88 0 20 1.47295 22.56 4.41886C25.12 7.20111 26.4 11.0472 26.4 15.957C26.4 23.1581 25.28 28.9681 23.04 33.387C20.96 37.8058 18.64 41.3245 16.08 43.9431C13.2 46.889 9.83999 49.0985 6 50.5714L3.59999 46.6435C6.31999 45.3343 8.71999 43.7795 10.8 41.9792C12.56 40.5062 14.16 38.6241 15.6 36.3329C17.2 34.0416 18 31.3412 18 28.2316C18 27.577 17.92 27.086 17.76 26.7587C17.6 26.2677 17.44 25.8585 17.28 25.5312L16.8 24.5492C16.48 24.8766 16 25.122 15.36 25.2857C14.08 25.613 12.96 25.7767 12 25.7767C8.31999 25.7767 5.36 24.7129 3.12 22.5853C1.04 20.294 0 17.2663 0 13.5021C0 9.73787 1.28 6.54647 3.84 3.92789C6.4 1.3093 9.51999 0 13.2 0ZM46.8 0C50.48 0 53.6 1.47295 56.16 4.41886C58.72 7.20111 60 11.0472 60 15.957C60 23.1581 58.88 28.9681 56.64 33.387C54.56 37.8058 52.24 41.3245 49.68 43.9431C46.8 46.889 43.44 49.0985 39.6 50.5714L37.2 46.6435C39.92 45.3343 42.32 43.7795 44.4 41.9792C46.16 40.5062 47.76 38.6241 49.2 36.3329C50.8 34.0416 51.6 31.3412 51.6 28.2316C51.6 27.577 51.52 27.086 51.36 26.7587C51.2 26.2677 51.04 25.8585 50.88 25.5312L50.4 24.5492C50.08 24.8766 49.6 25.122 48.96 25.2857C47.68 25.613 46.56 25.7767 45.6 25.7767C41.92 25.7767 38.96 24.7129 36.72 22.5853C34.64 20.294 33.6 17.2663 33.6 13.5021C33.6 9.73787 34.88 6.54647 37.44 3.92789C40 1.3093 43.12 0 46.8 0Z" fill="#ECE2DC"/>
</svg>
