<?xml version="1.0" encoding="utf-8"?>
<!-- Generator: Adobe Illustrator 16.0.3, SVG Export Plug-In . SVG Version: 6.00 Build 0)  -->
<!DOCTYPE svg PUBLIC "-//W3C//DTD SVG 1.1//EN" "http://www.w3.org/Graphics/SVG/1.1/DTD/svg11.dtd">
<svg version="1.1" id="Layer_1" xmlns="http://www.w3.org/2000/svg" xmlns:xlink="http://www.w3.org/1999/xlink" x="0px" y="0px"
	 width="1532px" height="184.801px" viewBox="106 60.8 1532 184.801" enable-background="new 106 60.8 1532 184.801"
	 xml:space="preserve">
<g>
	<path fill="#444444" d="M159.8,180C146,180,136,170.6,136,155.6s10-24.4,23.8-24.4c13.8,0,23.8,9.4,23.8,24.4S173.6,180,159.8,180z
		 M165.8,102.8c-13.4,0-23.2,4.601-29.8,12.2V105.6h-30v140h30v-49.4c6.6,7.602,16.4,12.2,29.8,12.2c26.2,0,47.8-23,47.8-52.8
		C213.6,125.8,192,102.8,165.8,102.8z"/>
	<path fill="#444444" d="M276,179.199c-13,0-23-9.399-23-23.6c0-14.201,10-23.601,23-23.601s23,9.4,23,23.601
		C299,169.799,289,179.199,276,179.199z M276,208.399c29.4,0,53-23,53-52.8c0-29.801-23.6-52.801-53-52.801s-53,23-53,52.801
		C223,185.399,246.6,208.399,276,208.399z"/>
	<path fill="#444444" d="M370,123.399v-17.8h-30v100h30v-45.2c0-19.8,17.6-24.8,30-22.8v-34C387.4,103.6,374,110,370,123.399z"/>
	<path fill="#444444" d="M462.8,180C449,180,439,170.6,439,155.6s10-24.4,23.8-24.4s23.8,9.4,23.8,24.4S476.6,180,462.8,180z
		 M486.6,105.6V115c-6.6-7.6-16.399-12.2-29.8-12.2c-26.2,0-47.8,23-47.8,52.801c0,29.8,21.6,52.8,47.8,52.8
		c13.4,0,23.2-4.601,29.8-12.2v9.4h30v-100H486.6z"/>
	<path fill="#444444" d="M582.8,180C569,180,559,170.6,559,155.6s10-24.4,23.8-24.4s23.8,9.4,23.8,24.4S596.6,180,582.8,180z
		 M606.6,65.6V115c-6.6-7.6-16.399-12.2-29.8-12.2c-26.2,0-47.8,23-47.8,52.801c0,29.8,21.6,52.8,47.8,52.8
		c13.4,0,23.2-4.601,29.8-12.2v9.4h30v-140H606.6z"/>
	<path fill="#444444" d="M713.6,102.8C700.4,102.8,690.4,107.6,685,115V105.6h-30v100h30V151c0-14.2,7.6-20.6,18.6-20.6
		c9.601,0,17.4,5.8,17.4,18.2v57h30v-61.4C751,117.2,733.8,102.8,713.6,102.8z"/>
	<path fill="#444444" d="M772,205.6h30v-100h-30V205.6z M787,96.8c9.8,0,18-8.199,18-18c0-9.8-8.2-18-18-18s-18,8.2-18,18
		C769,88.6,777.2,96.8,787,96.8z"/>
	<polygon fill="#444444" points="920,205.6 882.6,155.6 919,105.6 884,105.6 854,149.399 854,65.6 824,65.6 824,205.6 854,205.6 
		854,161.399 886,205.6 	"/>
	<polygon fill="#3597DB" points="973.2,177.6 1011,125.6 1011,105.6 935,105.6 935,133.6 970.8,133.6 933,185.6 933,205.6 
		1013,205.6 1013,177.6 	"/>
	<path fill="#3597DB" d="M1074.8,180c-13.8,0-23.8-9.399-23.8-24.399s10-24.4,23.8-24.4s23.8,9.4,23.8,24.4S1088.6,180,1074.8,180z
		 M1098.6,65.6V115c-6.6-7.6-16.398-12.2-29.8-12.2c-26.2,0-47.8,23-47.8,52.801c0,29.8,21.6,52.8,47.8,52.8
		c13.4,0,23.2-4.601,29.8-12.2v9.4h30v-140H1098.6z"/>
	<path fill="#3597DB" d="M1178,123.399v-17.8h-30v100h30v-45.2c0-19.8,17.6-24.8,30-22.8v-34C1195.4,103.6,1182,110,1178,123.399z"
		/>
	<path fill="#3597DB" d="M1270,179.199c-13,0-23-9.399-23-23.6c0-14.201,10-23.601,23-23.601s23,9.4,23,23.601
		C1293,169.799,1283,179.199,1270,179.199z M1270,208.399c29.4,0,53-23,53-52.8c0-29.801-23.6-52.801-53-52.801s-53,23-53,52.801
		C1217,185.399,1240.6,208.399,1270,208.399z"/>
	<polygon fill="#3597DB" points="1443,105.6 1428.6,159.199 1413,105.6 1385,105.6 1369.4,159.199 1355,105.6 1323,105.6 
		1355,205.6 1383,205.6 1399,152.2 1415,205.6 1443,205.6 1475,105.6 	"/>
	<path fill="#3597DB" d="M1490,205.6h30v-100h-30V205.6z M1505,96.8c9.8,0,18-8.199,18-18c0-9.8-8.2-18-18-18s-18,8.2-18,18
		C1487,88.6,1495.2,96.8,1505,96.8z"/>
	<path fill="#3597DB" d="M1565.2,145.2c2.8-10.2,10.399-15.8,21.8-15.8c9,0,18,4.2,21.2,15.8H1565.2z M1565.8,167.6h71
		c0.8-3.801,1.2-7.801,1.2-12c0-30.2-21.6-52.801-50.8-52.801c-31.601,0-53.2,23-53.2,52.801c0,29.8,21.2,52.8,55.4,52.8
		c19,0,33.8-7,43.6-20.601l-24-13.8c-4,4.399-11,7.601-19.2,7.601C1578.8,181.6,1569.6,178,1565.8,167.6z"/>
</g>
</svg>
