<svg width="32" height="26" viewBox="0 0 32 26" fill="none" xmlns="http://www.w3.org/2000/svg">
<path fill-rule="evenodd" clip-rule="evenodd" d="M0 2.16667C0 1.59203 0.240816 1.04093 0.66947 0.634602C1.09812 0.228274 1.67951 0 2.28571 0H29.7143C30.3205 0 30.9019 0.228274 31.3305 0.634602C31.7592 1.04093 32 1.59203 32 2.16667C32 2.7413 31.7592 3.2924 31.3305 3.69873C30.9019 4.10506 30.3205 4.33333 29.7143 4.33333H2.28571C1.67951 4.33333 1.09812 4.10506 0.66947 3.69873C0.240816 3.2924 0 2.7413 0 2.16667Z" fill="white"/>
<path fill-rule="evenodd" clip-rule="evenodd" d="M0 13C0 12.4254 0.240816 11.8743 0.66947 11.4679C1.09812 11.0616 1.67951 10.8333 2.28571 10.8333H29.7143C30.3205 10.8333 30.9019 11.0616 31.3305 11.4679C31.7592 11.8743 32 12.4254 32 13C32 13.5746 31.7592 14.1257 31.3305 14.5321C30.9019 14.9384 30.3205 15.1667 29.7143 15.1667H2.28571C1.67951 15.1667 1.09812 14.9384 0.66947 14.5321C0.240816 14.1257 0 13.5746 0 13Z" fill="white"/>
<path fill-rule="evenodd" clip-rule="evenodd" d="M0 23.8333C0 23.2587 0.240816 22.7076 0.66947 22.3012C1.09812 21.8949 1.67951 21.6666 2.28571 21.6666H16C16.6062 21.6666 17.1876 21.8949 17.6162 22.3012C18.0449 22.7076 18.2857 23.2587 18.2857 23.8333C18.2857 24.4079 18.0449 24.959 17.6162 25.3654C17.1876 25.7717 16.6062 26 16 26H2.28571C1.67951 26 1.09812 25.7717 0.66947 25.3654C0.240816 24.959 0 24.4079 0 23.8333Z" fill="white"/>
</svg>
