<svg width="18" height="18" viewBox="0 0 18 18" fill="none" xmlns="http://www.w3.org/2000/svg">
<g clip-path="url(#clip0)">
<path d="M11.6106 12.8878C10.1641 14.0115 8.3436 14.5416 6.5199 14.3702C4.6962 14.1988 3.00639 13.3388 1.79455 11.9652C0.58271 10.5916 -0.0600424 8.8078 -0.00283162 6.97696C0.0543792 5.14611 0.807251 3.4059 2.10249 2.11067C3.39772 0.81543 5.13793 0.0625579 6.96878 0.00534709C8.79962 -0.0518637 10.5834 0.590888 11.957 1.80273C13.3306 3.01457 14.1907 4.70438 14.3621 6.52808C14.5335 8.35178 14.0033 10.1723 12.8796 11.6188L17.6946 16.4158L16.4166 17.6938L11.6196 12.8878H11.6106ZM7.20063 12.5998C7.90977 12.5998 8.61196 12.4601 9.26712 12.1888C9.92228 11.9174 10.5176 11.5196 11.019 11.0182C11.5204 10.5168 11.9182 9.92146 12.1896 9.2663C12.461 8.61114 12.6006 7.90895 12.6006 7.19981C12.6006 6.49067 12.461 5.78848 12.1896 5.13332C11.9182 4.47816 11.5204 3.88287 11.019 3.38143C10.5176 2.88 9.92228 2.48224 9.26712 2.21086C8.61196 1.93949 7.90977 1.79981 7.20063 1.79981C5.76846 1.79981 4.39495 2.36874 3.38225 3.38143C2.36956 4.39413 1.80063 5.76764 1.80063 7.19981C1.80063 8.63198 2.36956 10.0055 3.38225 11.0182C4.39495 12.0309 5.76846 12.5998 7.20063 12.5998Z" fill="white"/>
</g>
<defs>
<clipPath id="clip0">
<rect width="18" height="18" fill="white"/>
</clipPath>
</defs>
</svg>
