<svg viewBox="0 0 25 25" xmlns="http://www.w3.org/2000/svg"><g fill="#2fc6d9"><path d="M20.377 3.165c-.953.073-1.66.34-2.159.816-.265.251-1.27 1.448-2.067 2.459-1.594 2.02-3.374 4.546-5.127 7.273a9.645 9.645 0 01-.328.487c-.124.145-.269.215-.355.171-.146-.076-.374-.556-.71-1.499-.178-.501-.278-.691-.447-.837-.23-.202-.516-.22-.992-.06-.489.162-1.082.548-1.301.846-.215.291-.226.502-.06 1.17.147.592.59 1.947.872 2.66.13.325.38.843.489 1.007.087.133.232.292.307.339.12.074.251.092.818.108.783.022 1.138-.026 1.44-.195.19-.106.221-.146.79-1.002a132.47 132.47 0 019.214-12.29c.424-.503.592-.714.687-.866.08-.128.134-.257.136-.318 0-.106-.125-.208-.3-.247-.123-.028-.66-.041-.907-.022z"/><path d="M11.766 4.198a9.175 9.175 0 00-5.59 2.166c-.246.207-.835.796-1.038 1.04a8.686 8.686 0 00-2.044 4.854c-.031.32-.035 1.151-.008 1.455.112 1.21.416 2.27.948 3.295a9.021 9.021 0 003.672 3.736c.958.526 2.1.899 3.182 1.04a9.351 9.351 0 003.79-.284 9.215 9.215 0 003.38-1.822c.261-.222.824-.79 1.048-1.06 1.728-2.075 2.4-4.72 1.87-7.354-.265-1.314-.875-2.608-1.75-3.715-.039-.05-.04-.05-.066-.02-.022.022-.674.779-.803.93-.018.022-.001.048.136.226.808 1.051 1.225 2.208 1.322 3.682.02.304.02.97 0 1.222a7.446 7.446 0 01-1.63 4.1 7.753 7.753 0 01-3.278 2.375 7.946 7.946 0 01-5.636-.015 7.61 7.61 0 01-1.628-.86 7.812 7.812 0 01-1.853-1.81 7.414 7.414 0 01.23-9.002 7.79 7.79 0 012.252-1.905c1.49-.828 3.168-1.14 5.007-.93a6.054 6.054 0 012.084.614c.12.058.222.102.228.096.054-.06.788-1.014.788-1.023 0-.013-.464-.241-.65-.322a8.71 8.71 0 00-2.26-.624 10.389 10.389 0 00-1.703-.085z"/></g></svg>