<?xml version="1.0" encoding="UTF-8" standalone="no"?>
<svg
   xmlns:dc="http://purl.org/dc/elements/1.1/"
   xmlns:cc="http://creativecommons.org/ns#"
   xmlns:rdf="http://www.w3.org/1999/02/22-rdf-syntax-ns#"
   xmlns:svg="http://www.w3.org/2000/svg"
   xmlns="http://www.w3.org/2000/svg"
   xmlns:sodipodi="http://sodipodi.sourceforge.net/DTD/sodipodi-0.dtd"
   xmlns:inkscape="http://www.inkscape.org/namespaces/inkscape"
   viewBox="0 0 22 20"
   width="24px"
   height="24px"
   version="1.1"
   id="svg6"
   sodipodi:docname="donate-heart.svg"
   inkscape:version="0.92.2 (5c3e80d, 2017-08-06)">
  <metadata
     id="metadata12">
    <rdf:RDF>
      <cc:Work
         rdf:about="">
        <dc:format>image/svg+xml</dc:format>
        <dc:type
           rdf:resource="http://purl.org/dc/dcmitype/StillImage" />
        <dc:title></dc:title>
      </cc:Work>
    </rdf:RDF>
  </metadata>
  <defs
     id="defs10" />
  <sodipodi:namedview
     pagecolor="#ffffff"
     bordercolor="#666666"
     borderopacity="1"
     objecttolerance="10"
     gridtolerance="10"
     guidetolerance="10"
     inkscape:pageopacity="0"
     inkscape:pageshadow="2"
     inkscape:window-width="4300"
     inkscape:window-height="1721"
     id="namedview8"
     showgrid="false"
     inkscape:zoom="9.8333333"
     inkscape:cx="12"
     inkscape:cy="12"
     inkscape:window-x="2391"
     inkscape:window-y="-9"
     inkscape:window-maximized="1"
     inkscape:current-layer="svg6" />
  <path
     inkscape:connector-curvature="0"
     id="path2"
     d="m 6.3632812,0 c -1.6928143,0 -3.3016505,0.6677906 -4.5,1.8652344 C 0.66571825,3.0618921 0,4.6696644 0,6.3632812 0,8.0564154 0.6660937,9.666093 1.8632812,10.863281 l 9.0449218,9.044922 9.078125,-9.076172 0.02734,-0.03516 C 22.263559,8.1114368 22.309994,4.2905961 19.964844,1.875 l -0.0059,-0.00586 -0.002,-0.00195 -0.945312,0.9414063 0.943359,-0.9433594 -0.708984,0.7050781 0.707031,-0.7070313 C 18.754999,0.66716667 17.146895,0 15.455078,0 13.762425,0 12.156821,0.66322197 10.976562,1.8417969 l -0.0059,0.00586 -0.02539,0.027344 c -0.0058,0.00587 -0.01265,0.012565 -0.01758,0.017578 l -0.0059,0.00391 -0.0039,0.00391 c 0,0 -0.002,0.00195 -0.002,0.00195 l -0.0039,0.00391 -0.0039,0.00391 -0.002,-0.00195 -0.0039,-0.00391 c -0.0066,-0.00685 -0.01843,-0.018346 -0.03711,-0.037109 v -0.00195 h -0.002 C 9.6649309,0.66779091 8.0560956,0 6.3632812,0 Z m 0,2 c 1.1750907,0 2.2524977,0.4464877 3.0859376,1.2792969 0.01,0.010009 0.00795,0.00578 0.013672,0.011719 l 1.4453122,1.5332032 1.445313,-1.53125 0.0098,-0.00977 c 0.0014,-0.00136 6.47e-4,-6.435e-4 0.0059,-0.00586 l 0.0059,-0.00586 0.01563,-0.015625 0.0039,-0.00195 C 13.201389,2.4498255 14.281626,2 15.455078,2 c 1.172055,0 2.245581,0.4467252 3.078125,1.2753906 1.603637,1.6584662 1.620455,4.2304177 -0.04687,6.2285156 L 10.908203,17.080078 3.2773438,9.4492188 C 2.4457129,8.6175874 2,7.5393535 2,6.3632812 2,5.1861061 2.4459028,4.1101094 3.2773438,3.2792969 4.1107823,2.4464883 5.1881904,2 6.3632812,2 Z"
     style="stroke:none;stroke-opacity:1;fill:#d22338;fill-opacity:1" />
</svg>
