<?xml version="1.0" encoding="UTF-8"?>
<svg width="22px" height="20px" viewBox="0 0 22 20" version="1.1" xmlns="http://www.w3.org/2000/svg" xmlns:xlink="http://www.w3.org/1999/xlink">
    <!-- Generator: Sketch 51.2 (57519) - http://www.bohemiancoding.com/sketch -->
    <title>donate-heart-red</title>
    <desc>Created with Sketch.</desc>
    <defs></defs>
    <g id="Page-1" stroke="none" stroke-width="1" fill="none" fill-rule="evenodd">
        <g id="donate-heart-red" fill="#FFFFFF" fill-rule="nonzero">
            <path d="M6.3632812,0 C4.6704669,0 3.0616307,0.6677906 1.8632812,1.8652344 C0.66571825,3.0618921 0,4.6696644 0,6.3632812 C0,8.0564154 0.6660937,9.666093 1.8632812,10.863281 L10.908203,19.908203 L19.986328,10.832031 L20.013668,10.796871 C22.263559,8.1114368 22.309994,4.2905961 19.964844,1.875 L19.958944,1.86914 L19.956944,1.86719 L19.011632,2.8085963 L19.954991,1.8652369 L19.246007,2.570315 L19.953038,1.8632837 C18.754999,0.66716667 17.146895,0 15.455078,0 C13.762425,0 12.156821,0.66322197 10.976562,1.8417969 L10.970662,1.8476569 L10.945272,1.8750009 C10.939472,1.8808709 10.932622,1.8875659 10.927692,1.8925789 L10.921792,1.8964889 L10.917892,1.9003989 C10.917892,1.9003989 10.915892,1.9023489 10.915892,1.9023489 L10.911992,1.9062589 L10.908092,1.9101689 L10.906092,1.9082189 L10.902192,1.9043089 C10.895592,1.8974589 10.883762,1.8859629 10.865082,1.8671999 L10.865082,1.8652499 L10.863082,1.8652499 C9.6649309,0.66779091 8.0560956,0 6.3632812,0 Z M6.3632812,2 C7.5383719,2 8.6157789,2.4464877 9.4492188,3.2792969 C9.4592188,3.2893059 9.4571688,3.2850769 9.4628908,3.2910159 L10.908203,4.8242191 L12.353516,3.2929691 L12.363316,3.2831991 C12.364716,3.2818391 12.363963,3.2825556 12.369216,3.2773391 L12.375116,3.2714791 L12.390746,3.2558541 L12.394646,3.2539041 C13.201389,2.4498255 14.281626,2 15.455078,2 C16.627133,2 17.700659,2.4467252 18.533203,3.2753906 C20.13684,4.9338568 20.153658,7.5058083 18.486333,9.5039062 L10.908203,17.080078 L3.2773438,9.4492188 C2.4457129,8.6175874 2,7.5393535 2,6.3632812 C2,5.1861061 2.4459028,4.1101094 3.2773438,3.2792969 C4.1107823,2.4464883 5.1881904,2 6.3632812,2 Z" id="path2"></path>
        </g>
    </g>
</svg>