<?xml version="1.0" encoding="UTF-8"?>
<svg width="24px" height="24px" viewBox="0 0 24 24" version="1.1" xmlns="http://www.w3.org/2000/svg" xmlns:xlink="http://www.w3.org/1999/xlink">
    <!-- Generator: Sketch 51.2 (57519) - http://www.bohemiancoding.com/sketch -->
    <title>volunteer</title>
    <desc>Created with Sketch.</desc>
    <defs></defs>
    <g id="Page-1" stroke="none" stroke-width="1" fill="none" fill-rule="evenodd">
        <g id="volunteer" transform="translate(1.000000, 1.000000)" stroke="#000000" stroke-width="1.8">
            <path d="M3,6 C1.9,6 1,5.1 1,4 C1,2.9 1.9,2 3,2 C4.1,2 5,2.9 5,4 C5,5.1 4.1,6 3,6 Z" id="Shape"></path>
            <polyline id="polyline9" points="6 15 6 20 2 20 2 16 0 13 0 9 6 9"></polyline>
            <path d="M19,6 C20.1,6 21,5.1 21,4 C21,2.9 20.1,2 19,2 C17.9,2 17,2.9 17,4 C17,5.1 17.9,6 19,6 Z" id="path11"></path>
            <polyline id="polyline13" points="16 15 16 20 20 20 20 16 22 13 22 9 16 9"></polyline>
            <path d="M11,6 C9.3,6 8,4.7 8,3 C8,1.3 9.3,0 11,0 C12.7,0 14,1.3 14,3 C14,4.7 12.7,6 11,6 Z" id="path15"></path>
            <polygon id="polygon17" points="9 18 6 15 6 9 16 9 16 15 13 18 13 22 9 22"></polygon>
        </g>
    </g>
</svg>