<?xml version="1.0" encoding="UTF-8"?>
<svg width="19px" height="19px" viewBox="0 0 19 19" version="1.1" xmlns="http://www.w3.org/2000/svg" xmlns:xlink="http://www.w3.org/1999/xlink">
    <!-- Generator: Sketch 51.2 (57519) - http://www.bohemiancoding.com/sketch -->
    <title>cross</title>
    <desc>Created with Sketch.</desc>
    <defs></defs>
    <g id="Page-1" stroke="none" stroke-width="1" fill="none" fill-rule="evenodd">
        <g id="cross" fill="#000000" fill-rule="nonzero">
            <path d="M12.4645461,0 L6.6702113,0 C6.1851033,0 5.7943348,0.39077 5.7943348,0.87588 L5.7943348,5.79433 L0.8758765,5.79433 C0.3907686,5.79433 0,6.1851 0,6.67021 L0,12.32979 C0,12.8149 0.3907686,13.20567 0.8758765,13.20567 L5.7943348,13.20567 L5.7943348,18.12412 C5.7943348,18.60923 6.1851033,19 6.6702113,19 L12.4645461,19 C12.949654,19 13.3404226,18.60923 13.3404226,18.12412 L13.3404226,13.20567 L18.1241235,13.20567 C18.6092314,13.20567 19,12.8149 19,12.32979 L19,6.67021 C19,6.1851 18.6092314,5.79433 18.1241235,5.79433 L13.3404226,5.79433 L13.3404226,0.87588 C13.3404226,0.39077 12.949654,0 12.4645461,0 Z M17.248247,7.54609 L17.248247,11.45387 L12.4645461,11.45387 C11.9794381,11.45387 11.5886695,11.84463 11.5886695,12.32974 L11.5886695,17.2482 L7.5461341,17.2482 L7.5461341,12.32979 C7.5461341,11.84468 7.1553655,11.45391 6.6702575,11.45391 L1.751753,11.45391 L1.751753,7.54613 L6.6702113,7.54613 C7.1553192,7.54613 7.5460878,7.15537 7.5460878,6.67026 L7.5460878,1.75175 L11.5886233,1.75175 L11.5886233,6.67021 C11.5886233,7.15532 11.9793919,7.54609 12.4644998,7.54609 L17.248247,7.54609 Z" id="Cross"></path>
        </g>
    </g>
</svg>