<?xml version="1.0" encoding="UTF-8"?>
<svg width="19px" height="19px" viewBox="0 0 19 19" version="1.1" xmlns="http://www.w3.org/2000/svg" xmlns:xlink="http://www.w3.org/1999/xlink">
    <!-- Generator: Sketch 50.2 (55047) - http://www.bohemiancoding.com/sketch -->
    <title>Cross</title>
    <desc>Created with Sketch.</desc>
    <defs></defs>
    <g id="UI-Kit" stroke="none" stroke-width="1" fill="none" fill-rule="evenodd">
        <g id="AHA_UI_Kit_Page2_V2" transform="translate(-73.000000, -7561.000000)" fill="#D22338" fill-rule="nonzero">
            <path d="M85.4645461,7561 L79.6702113,7561 C79.1851033,7561 78.7943348,7561.39077 78.7943348,7561.87588 L78.7943348,7566.79433 L73.8758765,7566.79433 C73.3907686,7566.79433 73,7567.1851 73,7567.67021 L73,7573.32979 C73,7573.8149 73.3907686,7574.20567 73.8758765,7574.20567 L78.7943348,7574.20567 L78.7943348,7579.12412 C78.7943348,7579.60923 79.1851033,7580 79.6702113,7580 L85.4645461,7580 C85.949654,7580 86.3404226,7579.60923 86.3404226,7579.12412 L86.3404226,7574.20567 L91.1241235,7574.20567 C91.6092314,7574.20567 92,7573.8149 92,7573.32979 L92,7567.67021 C92,7567.1851 91.6092314,7566.79433 91.1241235,7566.79433 L86.3404226,7566.79433 L86.3404226,7561.87588 C86.3404226,7561.39077 85.949654,7561 85.4645461,7561 Z M90.248247,7568.54609 L90.248247,7572.45387 L85.4645461,7572.45387 C84.9794381,7572.45387 84.5886695,7572.84463 84.5886695,7573.32974 L84.5886695,7578.2482 L80.5461341,7578.2482 L80.5461341,7573.32979 C80.5461341,7572.84468 80.1553655,7572.45391 79.6702575,7572.45391 L74.751753,7572.45391 L74.751753,7568.54613 L79.6702113,7568.54613 C80.1553192,7568.54613 80.5460878,7568.15537 80.5460878,7567.67026 L80.5460878,7562.75175 L84.5886233,7562.75175 L84.5886233,7567.67021 C84.5886233,7568.15532 84.9793919,7568.54609 85.4644998,7568.54609 L90.248247,7568.54609 Z" id="Cross"></path>
        </g>
    </g>
</svg>