<?xml version="1.0" encoding="UTF-8" standalone="no"?>
<svg
   xmlns:dc="http://purl.org/dc/elements/1.1/"
   xmlns:cc="http://creativecommons.org/ns#"
   xmlns:rdf="http://www.w3.org/1999/02/22-rdf-syntax-ns#"
   xmlns:svg="http://www.w3.org/2000/svg"
   xmlns="http://www.w3.org/2000/svg"
   xmlns:sodipodi="http://sodipodi.sourceforge.net/DTD/sodipodi-0.dtd"
   xmlns:inkscape="http://www.inkscape.org/namespaces/inkscape"
   width="24px"
   height="24px"
   viewBox="0 0 24 24"
   version="1.1"
   id="svg22"
   sodipodi:docname="volunteer.svg"
   inkscape:version="0.92.2 (5c3e80d, 2017-08-06)">
  <metadata
     id="metadata26">
    <rdf:RDF>
      <cc:Work
         rdf:about="">
        <dc:format>image/svg+xml</dc:format>
        <dc:type
           rdf:resource="http://purl.org/dc/dcmitype/StillImage" />
        <dc:title>Volunteer Icon</dc:title>
      </cc:Work>
    </rdf:RDF>
  </metadata>
  <sodipodi:namedview
     pagecolor="#ffffff"
     bordercolor="#666666"
     borderopacity="1"
     objecttolerance="10"
     gridtolerance="10"
     guidetolerance="10"
     inkscape:pageopacity="0"
     inkscape:pageshadow="2"
     inkscape:window-width="4300"
     inkscape:window-height="1721"
     id="namedview24"
     showgrid="false"
     inkscape:zoom="9.8333333"
     inkscape:cx="12"
     inkscape:cy="12"
     inkscape:window-x="2391"
     inkscape:window-y="-9"
     inkscape:window-maximized="1"
     inkscape:current-layer="Volunteer-Icon" />
  <!-- Generator: Sketch 48.2 (47327) - http://www.bohemiancoding.com/sketch -->
  <title
     id="title2">Volunteer Icon</title>
  <desc
     id="desc4">Created with Sketch.</desc>
  <defs
     id="defs6" />
  <g
     id="AHA-Recipe-Landing"
     stroke="none"
     stroke-width="1"
     fill="none"
     fill-rule="evenodd"
     transform="translate(-867.000000, -154.000000)"
     stroke-linecap="square">
    <g
       style="stroke:#d22338;stroke-width:2"
       transform="translate(868,155)"
       id="Volunteer-Icon">
      <path
         inkscape:connector-curvature="0"
         id="Shape"
         d="M 3,6 C 1.9,6 1,5.1 1,4 1,2.9 1.9,2 3,2 4.1,2 5,2.9 5,4 5,5.1 4.1,6 3,6 Z"
         style="stroke-width:1.8;stroke-miterlimit:4;stroke-dasharray:none" />
      <polyline
         points="6 15 6 20 2 20 2 16 0 13 0 9 6 9"
         id="polyline9"
         style="stroke:#d22338;stroke-opacity:1;stroke-width:1.8;stroke-miterlimit:4;stroke-dasharray:none" />
      <path
         inkscape:connector-curvature="0"
         id="path11"
         d="m 19,6 c 1.1,0 2,-0.9 2,-2 0,-1.1 -0.9,-2 -2,-2 -1.1,0 -2,0.9 -2,2 0,1.1 0.9,2 2,2 z"
         style="stroke-width:1.8;stroke-miterlimit:4;stroke-dasharray:none" />
      <polyline
         points="16 15 16 20 20 20 20 16 22 13 22 9 16 9"
         id="polyline13"
         style="stroke-width:1.8;stroke-miterlimit:4;stroke-dasharray:none" />
      <path
         inkscape:connector-curvature="0"
         id="path15"
         d="M 11,6 C 9.3,6 8,4.7 8,3 8,1.3 9.3,0 11,0 c 1.7,0 3,1.3 3,3 0,1.7 -1.3,3 -3,3 z"
         style="stroke-width:1.8;stroke-miterlimit:4;stroke-dasharray:none" />
      <polygon
         points="9,18 6,15 6,9 16,9 16,15 13,18 13,22 9,22 "
         id="polygon17"
         style="stroke-width:1.8;stroke-miterlimit:4;stroke-dasharray:none" />
    </g>
  </g>
</svg>
