<?xml version="1.0" standalone="no"?>
<!DOCTYPE svg PUBLIC "-//W3C//DTD SVG 1.1//EN" "http://www.w3.org/Graphics/SVG/1.1/DTD/svg11.dtd" >
<svg xmlns="http://www.w3.org/2000/svg">
<metadata>
This is a custom SVG webfont generated by Font Squirrel.
</metadata>
<defs>
<font id="webfont5dWVQUq5" horiz-adv-x="1024" vert-adv-y="2048" >
<font-face units-per-em="2048" ascent="1536" descent="-512" />
<missing-glyph horiz-adv-x="397" />
<glyph unicode=" " horiz-adv-x="397" vert-adv-y="0" />
<glyph unicode="!" horiz-adv-x="475" vert-adv-y="0" d="M368 1366l-20 -997h-140l-18 997h178zM370 0h-182v227h182v-227z" />
<glyph unicode="&#x22;" horiz-adv-x="715" vert-adv-y="2457" d="M566 1495l-6 -489h-134l-6 489h146zM295 1495l-6 -489h-133l-6 489h145z" />
<glyph unicode="#" horiz-adv-x="1016" vert-adv-y="2457" d="M942 952l-8 -125h-176l-37 -282h166l-4 -125h-178l-51 -420h-129l51 420h-207l-51 -420h-129l51 420h-166l4 125h178l37 282h-168l4 125h181l51 414h129l-51 -414h206l52 414h129l-52 -414h168zM629 827h-207l-37 -282h207z" />
<glyph unicode="$" horiz-adv-x="913" vert-adv-y="2457" d="M501 788q149 -134 206 -210q101 -134 101 -276q0 -150 -85 -233q-40 -39 -89 -58.5t-133 -29.5v-184h-98v182q-93 9 -141 30q-172 73 -172 308v111h176v-61v-1v-2v-3v-3q0 -111 28 -167q30 -58 109 -74v510q-123 107 -174 170q-108 132 -108 276q0 127 72 209 q69 79 210 103v182h98v-178q84 -8 126 -26q163 -72 163 -316v-64h-170v33v2v1v1q0 108 -27 162q-25 53 -92 69v-463zM403 881v366q-108 -40 -108 -157q0 -95 108 -209zM501 117q129 31 129 175q0 118 -129 247v-422z" />
<glyph unicode="%" horiz-adv-x="1389" vert-adv-y="2457" d="M868 193v425q0 102 61 156q57 51 158 51q216 0 216 -215v-422q0 -101 -59 -154q-56 -50 -160 -50q-110 0 -167 63q-49 54 -49 146zM1178 178v432q0 109 -93 109q-90 0 -90 -101v-423q0 -105 92 -105q41 0 67 25q24 24 24 63zM1096 1380l-676 -1394h-123l678 1394h121z M86 750v428q0 102 61 157q56 50 156 50q215 0 215 -215v-424q0 -102 -59 -155q-56 -50 -158 -50q-109 0 -166 63q-49 54 -49 146zM393 737v433q0 106 -93 106q-89 0 -89 -98v-426q0 -102 89 -102q43 0 69 25q24 23 24 62z" />
<glyph unicode="&#x26;" horiz-adv-x="1030" vert-adv-y="2457" d="M963 0h-195l-77 125q-131 -143 -301 -143q-162 0 -250 98q-74 82 -74 225q0 169 85 284q47 63 163 159q-63 89 -91 141q-57 105 -57 207q0 282 302 282q161 0 234 -81q60 -66 60 -176q0 -131 -107 -263q-50 -61 -138 -137l198 -332q60 112 90 250l138 -37 q-46 -199 -148 -346l116 -176l32 -49zM437 840q167 157 167 273q0 134 -138 134q-140 0 -140 -141q0 -102 111 -266zM617 240l-227 378q-66 -62 -95 -108q-49 -76 -49 -176q0 -211 172 -211q104 0 199 117z" />
<glyph unicode="'" horiz-adv-x="444" vert-adv-y="2457" d="M295 1495l-6 -491h-133l-6 491h145z" />
<glyph unicode="(" horiz-adv-x="532" vert-adv-y="2457" d="M449 -66h-150q-221 415 -221 750q0 332 221 746h150q-197 -449 -197 -747t197 -749z" />
<glyph unicode=")" horiz-adv-x="532" vert-adv-y="2457" d="M234 1430q223 -416 223 -750q0 -329 -223 -746h-150q199 448 199 746q0 296 -199 750h150z" />
<glyph unicode="*" horiz-adv-x="758" vert-adv-y="2457" d="M758 1227l-199 -66l121 -168l-102 -73l-123 170l-123 -168l-102 73l123 170l-197 66l39 121l199 -66v207h127v-209l198 64z" />
<glyph unicode="+" vert-adv-y="2457" d="M955 458h-361v-364h-164v364h-360v154h360v367h164v-367h361v-154z" />
<glyph unicode="," horiz-adv-x="385" vert-adv-y="2457" d="M282 8l-16 -32l-117 -240h-69l83 264h-63v227h182v-219z" />
<glyph unicode="-" horiz-adv-x="420" vert-adv-y="2457" d="M420 483h-420v166h420v-166z" />
<glyph unicode="." horiz-adv-x="385" vert-adv-y="2457" d="M282 0h-180v227h180v-227z" />
<glyph unicode="/" horiz-adv-x="588" vert-adv-y="2457" d="M524 1430l-309 -1496h-152l309 1496h152z" />
<glyph unicode="0" horiz-adv-x="913" vert-adv-y="2457" d="M111 330v694q0 194 103 288q87 79 241 79q172 0 264 -103q84 -93 84 -254v-698q0 -181 -105 -277q-90 -82 -243 -82q-172 0 -262 100q-82 91 -82 253zM631 328v715q0 103 -55 154q-44 40 -118 40q-175 0 -175 -207v-723q0 -80 48 -128t127 -48q81 0 127 51t46 146z" />
<glyph unicode="1" horiz-adv-x="913" vert-adv-y="2457" d="M799 0h-643v150h231v1036l-197 -90l-59 139l268 131h160v-1216h240v-150z" />
<glyph unicode="2" horiz-adv-x="913" vert-adv-y="2457" d="M792 0h-686v103q0 107 56 224q55 116 222 317q95 114 155 206q69 105 69 204q0 68 -19 109q-33 72 -135 72q-96 0 -132 -63q-28 -48 -28 -158v-66h-170v109q0 169 97 257q87 77 238 77q162 0 244 -92q73 -81 73 -222v-39q0 -99 -53 -206q-44 -90 -196 -270 q-146 -173 -189 -259q-27 -53 -48 -153h502v-150z" />
<glyph unicode="3" horiz-adv-x="913" vert-adv-y="2457" d="M593 729q103 -21 151 -84q52 -68 52 -182v-158q0 -166 -94 -250q-88 -78 -253 -78q-182 0 -267 96q-78 88 -78 267v72h170v-59v-1v-2v-1v-1q0 -94 18 -137q34 -80 156 -80q110 0 150 70q27 45 27 172q0 151 -30 203q-29 51 -118 67q-38 6 -146 8v140q126 0 183 25 q91 41 91 150v64q0 88 -17 131q-33 76 -141 76q-110 0 -142 -83q-17 -44 -19 -163h-172v88q0 146 93 229q91 81 245 81q159 0 248 -89q78 -78 78 -204v-72q0 -125 -27 -182q-26 -54 -80 -84q-24 -13 -78 -29z" />
<glyph unicode="4" horiz-adv-x="913" vert-adv-y="2457" d="M842 377h-164v-377h-170v377h-434v143l389 846h215v-842h164v-147zM524 1202q-38 -112 -102 -254l-192 -426h286v418v1v3v3v1q0 137 8 254z" />
<glyph unicode="5" horiz-adv-x="913" vert-adv-y="2457" d="M307 848q92 84 207 84q156 0 225 -118q46 -80 46 -201v-271q0 -205 -95 -291q-81 -74 -243 -74q-330 0 -330 353v88h174v-100q0 -113 46 -155q37 -34 112 -34q102 0 138 62q26 45 26 159v259q0 64 -25 107q-37 65 -123 65q-104 0 -174 -109h-141l26 694h574v-150h-424z " />
<glyph unicode="6" horiz-adv-x="913" vert-adv-y="2457" d="M287 754q118 82 235 82q132 0 206 -82q65 -73 65 -191v-268q0 -157 -91 -239q-88 -79 -251 -79q-172 0 -259 96q-77 86 -77 238v750q0 167 93 250q87 78 248 78q173 0 260 -97q77 -85 77 -235v-76h-174v59q0 79 -18 120q-33 77 -146 77q-168 0 -168 -176v-307zM287 614 v-299q0 -104 48 -148q41 -36 119 -36q167 0 167 170v209q0 174 -152 174q-96 0 -182 -70z" />
<glyph unicode="7" horiz-adv-x="913" vert-adv-y="2457" d="M801 1230q-184 -358 -256 -592q-58 -184 -82 -372q-12 -98 -18 -266h-176q12 231 47 399q44 212 129 425q65 165 186 390h-516v152h686v-136z" />
<glyph unicode="8" horiz-adv-x="913" vert-adv-y="2457" d="M609 731q100 -28 145 -91q45 -62 45 -161v-184q0 -154 -93 -237q-91 -81 -253 -81q-177 0 -267 99q-73 80 -73 219v184q0 191 178 252q-160 64 -160 219v150q0 132 89 210q89 79 236 79q112 0 196 -48q133 -76 133 -241v-148q0 -157 -176 -221zM611 955v133q0 79 -48 123 q-42 37 -107 37q-67 0 -109 -42q-44 -44 -44 -118v-133q0 -74 45 -114q40 -36 106 -36q81 0 122 45q35 38 35 105zM627 309v164q0 182 -172 182q-80 0 -125 -50q-43 -48 -43 -132v-164q0 -71 27 -119q42 -74 142 -74q82 0 127 51q44 49 44 142z" />
<glyph unicode="9" horiz-adv-x="913" vert-adv-y="2457" d="M621 623q-119 -82 -236 -82q-131 0 -204 81q-66 74 -66 197v242q0 161 97 248q88 80 242 80q170 0 259 -98q80 -89 80 -246v-736q0 -177 -89 -258q-82 -74 -248 -74q-177 0 -264 97q-77 86 -77 239v72h172v-47q0 -86 18 -129q34 -78 149 -78q90 0 130 44q37 41 37 132 v316zM621 762v279q0 196 -165 196q-83 0 -127 -49q-42 -47 -42 -131v-197q0 -99 41 -135q35 -32 110 -32q98 0 183 69z" />
<glyph unicode=":" horiz-adv-x="385" vert-adv-y="2457" d="M323 787h-180v227h180v-227zM323 0h-180v227h180v-227z" />
<glyph unicode=";" horiz-adv-x="385" vert-adv-y="2457" d="M322 787h-182v227h182v-227zM319 8l-16 -32l-117 -240h-69l83 264h-63v227h182v-219z" />
<glyph unicode="&#x3c;" vert-adv-y="2457" d="M948 76l-872 387v143l872 385v-166l-702 -290l702 -293v-166z" />
<glyph unicode="=" vert-adv-y="2457" d="M957 632h-887v154h887v-154zM957 287h-887v154h887v-154z" />
<glyph unicode="&#x3e;" vert-adv-y="2457" d="M948 463l-872 -387v166l702 293l-702 290v166l872 -385v-143z" />
<glyph unicode="?" horiz-adv-x="807" vert-adv-y="2457" d="M127 1012v76q0 301 313 301q157 0 229 -79q66 -72 66 -224v-41q0 -90 -39 -180q-22 -49 -90 -141q-59 -80 -86 -135q-39 -80 -39 -187v-66h-174v88q0 99 39 191q27 64 104 172q48 68 77 122q34 63 34 134v26q0 81 -15 116q-26 61 -113 61q-84 0 -114 -53 q-22 -39 -22 -128v-53h-170zM483 0h-182v227h182v-227z" />
<glyph unicode="@" horiz-adv-x="2062" vert-adv-y="2457" d="M386 -108q-187 179 -187 544q0 383 254 635q131 129 305 196q157 60 334 60q243 0 430 -107q161 -92 249 -247q95 -166 95 -383q0 -229 -96 -399q-113 -201 -338 -201q-101 0 -169 32q-72 35 -93 119q-126 -153 -292 -153q-147 0 -228 92q-80 90 -80 254q0 150 61 289 q58 134 157 215q117 96 267 96q121 0 195 -80l10 70h145l-86 -518q0 -2 -2 -13q-16 -80 -16 -124q0 -75 18 -106q28 -46 115 -46q146 0 222 137q79 143 79 335q0 271 -167 436q-177 175 -475 175q-320 0 -538 -217q-217 -218 -217 -550q0 -356 165 -487zM1223 740 q-58 77 -155 77q-172 0 -268 -169q-74 -130 -74 -291q0 -244 172 -244q133 0 249 168z" />
<glyph unicode="A" horiz-adv-x="889" vert-adv-y="2457" d="M846 0h-191l-73 373h-293l-60 -373h-186l256 1366h268zM557 518q-57 294 -125 725l-14 -87q-74 -463 -109 -638h248z" />
<glyph unicode="B" horiz-adv-x="883" vert-adv-y="2457" d="M610 736q79 -21 119 -52q113 -90 113 -299q0 -385 -389 -385h-330v1366h305q375 0 375 -326q0 -159 -77 -243q-42 -46 -116 -61zM301 795h92q234 0 234 228q0 125 -71 166q-50 30 -187 30h-68v-424zM301 147h127q124 0 180 62q54 59 54 192q0 249 -259 249h-102v-503z " />
<glyph unicode="C" horiz-adv-x="918" vert-adv-y="2457" d="M836 473v-143q0 -350 -363 -350q-350 0 -350 364v674q0 191 107 289q90 82 245 82q181 0 274 -102q74 -82 74 -216v-156h-176v86q0 97 -21 146q-35 84 -147 84q-176 0 -176 -193v-673q0 -227 180 -227q101 0 142 71q31 54 31 164v100h180z" />
<glyph unicode="D" horiz-adv-x="946" vert-adv-y="2457" d="M123 1366h283q223 0 329 -117q101 -111 101 -348v-408q0 -189 -44 -292q-87 -201 -374 -201h-295v1366zM299 147h119q240 0 240 310v494q0 268 -244 268h-115v-1072z" />
<glyph unicode="E" horiz-adv-x="762" vert-adv-y="2457" d="M721 0h-598v1366h578v-147h-398v-437h350v-147h-350v-488h418v-147z" />
<glyph unicode="F" horiz-adv-x="739" vert-adv-y="2457" d="M698 1219h-395v-437h342v-147h-342v-635h-180v1366h575v-147z" />
<glyph unicode="G" horiz-adv-x="928" vert-adv-y="2457" d="M836 0h-153l-9 88q-116 -111 -263 -111q-300 0 -300 402v631q0 377 373 377q182 0 271 -99q77 -85 77 -238v-102h-174v57q0 99 -19 143q-34 79 -158 79q-101 0 -146 -51q-46 -51 -46 -189v-606q0 -116 23 -168q37 -86 145 -86q110 0 205 97v309h-197v147h371v-680z" />
<glyph unicode="H" horiz-adv-x="965" vert-adv-y="2457" d="M842 0h-178v648h-363v-648h-178v1366h178v-575h363v575h178v-1366z" />
<glyph unicode="I" horiz-adv-x="444" vert-adv-y="2457" d="M311 0h-178v1366h178v-1366z" />
<glyph unicode="J" horiz-adv-x="590" vert-adv-y="2457" d="M467 1366v-1102q0 -282 -285 -282q-94 0 -172 34l39 156q62 -30 117 -30q123 0 123 155v1069h178z" />
<glyph unicode="K" horiz-adv-x="905" vert-adv-y="2457" d="M930 0h-203l-291 672l-135 -201v-471h-178v1366h178v-631l389 631h211l-346 -541z" />
<glyph unicode="L" horiz-adv-x="707" vert-adv-y="2457" d="M696 0h-573v1366h178v-1219h395v-147z" />
<glyph unicode="M" horiz-adv-x="1290" vert-adv-y="2457" d="M1167 0h-172v1167l-274 -1147h-158l-268 1147v-1167h-172v1366h303l178 -785q20 -90 45 -250q23 157 45 250l182 785h291v-1366z" />
<glyph unicode="N" horiz-adv-x="993" vert-adv-y="2457" d="M871 0h-246q-212 635 -330 1079q4 -397 4 -469v-610h-176v1366h248l9 -29q207 -657 317 -1048l-1 67l-1 107q-2 245 -2 389v514h178v-1366z" />
<glyph unicode="O" horiz-adv-x="942" vert-adv-y="2457" d="M111 350v652q0 204 110 304q90 83 250 83q178 0 270 -104q91 -102 91 -296v-643q0 -183 -109 -283q-94 -86 -254 -86q-176 0 -270 105q-88 97 -88 268zM654 348v637q0 246 -184 246q-86 0 -133 -53q-48 -54 -48 -156v-668q0 -217 181 -217q87 0 135 54q49 55 49 157z" />
<glyph unicode="P" horiz-adv-x="846" vert-adv-y="2457" d="M123 1366h321q193 0 293 -111q88 -97 88 -270q0 -186 -108 -294q-107 -107 -289 -107h-127v-584h-178v1366zM301 729h104q240 0 240 255q0 235 -229 235h-115v-490z" />
<glyph unicode="Q" horiz-adv-x="942" vert-adv-y="2457" d="M900 -4l-76 -141q-70 28 -116 61q-41 30 -99 88q-79 -27 -151 -27q-167 0 -258 103q-89 100 -89 276v639q0 210 113 313q91 83 251 83q357 0 357 -404v-643q0 -92 -32 -159q-19 -39 -62 -93q68 -60 162 -96zM654 350v617q0 107 -26 167q-42 97 -156 97q-183 0 -183 -225 v-648q0 -221 181 -221q184 0 184 213z" />
<glyph unicode="R" horiz-adv-x="897" vert-adv-y="2457" d="M887 0h-189l-250 619l-145 -4v-615h-180v1366h311q206 0 309 -113q84 -91 84 -244q0 -150 -82 -253q-47 -60 -129 -96zM303 754h74q270 0 270 247q0 113 -59 166q-57 52 -195 52h-90v-465z" />
<glyph unicode="S" horiz-adv-x="905" vert-adv-y="2457" d="M614 983v45q0 90 -27 138q-37 65 -138 65q-85 0 -128 -47q-34 -37 -34 -97q0 -58 37 -118q41 -65 182 -186q201 -172 257 -287q46 -93 46 -192q0 -155 -99 -243q-94 -84 -258 -84q-190 0 -287 105q-79 87 -79 235v111h180v-84q0 -207 188 -207q91 0 138 52q39 42 39 112 q0 71 -45 143q-46 72 -188 193q-120 101 -193 192q-90 112 -90 260q0 142 90 223q87 77 246 77q176 0 263 -97q78 -86 78 -245v-64h-178z" />
<glyph unicode="T" horiz-adv-x="793" vert-adv-y="2457" d="M762 1219h-277v-1219h-178v1219h-276v147h731v-147z" />
<glyph unicode="U" horiz-adv-x="956" vert-adv-y="2457" d="M834 1366v-1026q0 -363 -355 -363q-356 0 -356 363v1026h178v-1008q0 -85 21 -134q38 -89 157 -89q105 0 146 72q31 53 31 151v1008h178z" />
<glyph unicode="V" horiz-adv-x="891" vert-adv-y="2457" d="M826 1366l-273 -1366h-227l-260 1366h180q89 -487 195 -1192q24 209 63 422l142 770h180z" />
<glyph unicode="W" horiz-adv-x="1346" vert-adv-y="2457" d="M1315 1366l-209 -1366h-266l-137 872q-10 64 -31 291q-9 -179 -27 -289l-139 -874h-266l-209 1366h182l117 -819l34 -255l9 -70l6 -44q26 278 41 371l131 817h246l133 -793q25 -146 39 -305q4 -51 8 -88q17 149 51 402l103 784h184z" />
<glyph unicode="X" horiz-adv-x="858" vert-adv-y="2457" d="M817 0h-180l-156 449q-35 102 -51 161q-7 -43 -43 -145l-6 -16l-162 -449h-178l289 741l-252 625h184l117 -332q38 -109 55 -178q9 41 58 178l114 332h180l-247 -625z" />
<glyph unicode="Y" horiz-adv-x="885" vert-adv-y="2457" d="M847 1366l-315 -807v-559h-180v559l-315 807h180l129 -358l6 -19l7 -18q63 -175 83 -273q3 29 35 121l67 197l123 350h180z" />
<glyph unicode="Z" horiz-adv-x="831" vert-adv-y="2457" d="M758 0h-690v129l495 1090h-458v147h653v-125l-502 -1094h502v-147z" />
<glyph unicode="[" horiz-adv-x="565" vert-adv-y="2457" d="M485 -66h-360v1496h360v-147h-188v-1202h188v-147z" />
<glyph unicode="\" horiz-adv-x="588" vert-adv-y="2457" d="M524 -66h-154l-307 1496h152z" />
<glyph unicode="]" horiz-adv-x="565" vert-adv-y="2457" d="M440 -66h-358v147h188v1202h-188v147h358v-1496z" />
<glyph unicode="^" vert-adv-y="2457" d="M919 854h-178l-229 420l-230 -420h-178l299 553h219z" />
<glyph unicode="_" vert-adv-y="2457" d="M1045 -367h-1065v154h1065v-154z" />
<glyph unicode="`" vert-adv-y="2457" d="M676 1157h-156l-172 262h207z" />
<glyph unicode="a" horiz-adv-x="823" vert-adv-y="2457" d="M725 0h-158l-4 88q-108 -100 -228 -100q-124 0 -196 80q-63 70 -63 182v57q0 189 182 278q100 49 295 73v137q0 145 -137 145q-101 0 -130 -78q-14 -36 -14 -112h-165v35q0 294 317 294q301 0 301 -278v-801zM553 217v318q-142 -21 -206 -58q-99 -57 -99 -166v-43 q0 -139 130 -139q84 0 175 88z" />
<glyph unicode="b" horiz-adv-x="846" vert-adv-y="2457" d="M274 971q114 104 234 104q137 0 198 -108q45 -79 45 -203v-494q0 -105 -43 -179q-63 -109 -198 -109q-112 0 -240 104l-4 -86h-164v1409h172v-438zM274 221q91 -83 180 -83q125 0 125 149v469q0 66 -15 101q-26 62 -110 62q-83 0 -180 -81v-617z" />
<glyph unicode="c" horiz-adv-x="784" vert-adv-y="2457" d="M713 367v-94q0 -146 -86 -223q-81 -73 -225 -73q-159 0 -241 92q-75 83 -75 230v477q0 133 83 216q87 87 231 87q152 0 237 -93q70 -77 70 -198v-86h-172v51q0 172 -135 172q-142 0 -142 -178v-427q0 -75 18 -118q32 -73 125 -73q85 0 117 56q23 41 23 129v53h172z" />
<glyph unicode="d" horiz-adv-x="846" vert-adv-y="2457" d="M743 0h-164l-4 86q-129 -104 -240 -104q-135 0 -199 109q-42 73 -42 179v494q0 124 45 203q61 108 198 108q119 0 234 -104v438h172v-1409zM571 221v617q-98 81 -180 81q-75 0 -104 -50q-21 -36 -21 -113v-469q0 -149 124 -149q89 0 181 83z" />
<glyph unicode="e" horiz-adv-x="823" vert-adv-y="2457" d="M731 326v-51q0 -146 -87 -224q-82 -74 -228 -74q-165 0 -249 95q-75 84 -75 232v442q0 165 98 253q86 78 232 78q152 0 234 -91q75 -83 75 -224v-274h-465v-205q0 -154 148 -154q80 0 115 38q32 36 32 124v35h170zM565 627v147q0 83 -47 125q-38 35 -103 35 q-74 0 -114 -44q-37 -42 -37 -116v-147h301z" />
<glyph unicode="f" horiz-adv-x="573" vert-adv-y="2457" d="M627 1436l-12 -145q-70 14 -117 14q-74 0 -106 -36q-31 -34 -31 -122v-90h209v-139h-207v-918h-172v918h-160v139h160v90q0 303 289 303q72 0 147 -14z" />
<glyph unicode="g" horiz-adv-x="854" vert-adv-y="2457" d="M289 375q-29 -36 -29 -57q0 -33 46 -58q20 -10 73 -28l194 -68q125 -44 180 -92q76 -67 76 -179q0 -182 -147 -264q-109 -61 -266 -61t-265 62q-133 76 -133 227q0 176 199 270q-113 41 -113 139q0 82 93 152q-22 9 -45 33q-64 69 -64 196v150q0 161 126 234 q80 46 199 46t203 -49q90 84 172 84h31v-137q-43 6 -53 6q-39 0 -74 -29q41 -59 41 -153v-154q0 -287 -320 -287q-84 0 -124 17zM567 637v152q0 77 -46 118q-41 37 -111 37q-77 0 -119 -47q-37 -41 -37 -108v-152q0 -62 38 -101q43 -43 118 -43q81 0 123 47q34 37 34 97z M311 84q-54 -29 -84 -58q-49 -50 -49 -119q0 -104 84 -152q62 -35 165 -35q236 0 236 147q0 68 -56 107q-31 22 -118 51z" />
<glyph unicode="h" horiz-adv-x="840" vert-adv-y="2457" d="M739 0h-172v789q0 122 -98 122q-82 0 -195 -90v-821h-172v1409h172v-438q141 102 258 102q207 0 207 -266v-807z" />
<glyph unicode="i" horiz-adv-x="389" vert-adv-y="2457" d="M280 0h-172v1057h172v-1057zM284 1212h-180v195h180v-195z" />
<glyph unicode="j" horiz-adv-x="389" vert-adv-y="2457" d="M281 1057l-2 -1192q-1 -281 -232 -281q-53 0 -137 15l4 151q45 -14 90 -14q60 0 84 42q21 36 21 128v1151h172zM285 1212h-180v195h180v-195z" />
<glyph unicode="k" horiz-adv-x="797" vert-adv-y="2457" d="M811 0h-187l-237 547l-111 -148v-399h-172v1409h172v-766l297 414h199l-269 -377z" />
<glyph unicode="l" horiz-adv-x="389" vert-adv-y="2457" d="M281 0h-172v1409h172v-1409z" />
<glyph unicode="m" horiz-adv-x="1231" vert-adv-y="2457" d="M1132 0h-172v770q0 139 -102 139q-78 0 -154 -98v-811h-172v785q0 124 -109 124q-78 0 -149 -84v-825h-172v1057h156l6 -92q102 108 222 108q137 0 197 -129q86 129 233 129q216 0 216 -264v-809z" />
<glyph unicode="n" horiz-adv-x="825" vert-adv-y="2457" d="M729 0h-172v785q0 131 -106 131q-84 0 -177 -97v-819h-172v1057h160l6 -98q117 117 234 117q227 0 227 -255v-821z" />
<glyph unicode="o" horiz-adv-x="840" vert-adv-y="2457" d="M92 297v473q0 149 93 232q87 77 237 77q168 0 253 -93q72 -78 72 -216v-473q0 -158 -94 -243q-85 -77 -233 -77q-166 0 -253 97q-75 83 -75 223zM575 289v477q0 73 -44 117q-42 42 -112 42q-75 0 -117 -47q-38 -43 -38 -112v-477q0 -79 46 -121q41 -37 110 -37 q77 0 118 46q37 41 37 112z" />
<glyph unicode="p" horiz-adv-x="846" vert-adv-y="2457" d="M270 973q116 100 242 100q134 0 198 -112q41 -72 41 -168v-504q0 -119 -45 -198q-62 -107 -195 -107q-118 0 -237 102v-494h-172v1465h164zM274 223q91 -83 181 -83q85 0 112 68q14 35 14 103v449q0 57 -24 98q-33 59 -102 59q-87 0 -181 -81v-613z" />
<glyph unicode="q" horiz-adv-x="846" vert-adv-y="2457" d="M743 -408h-172v494q-119 -102 -237 -102q-133 0 -195 107q-45 78 -45 198v504q0 96 41 168q64 112 198 112q125 0 242 -100l4 84h164v-1465zM571 223v613q-95 81 -181 81q-69 0 -103 -59q-23 -40 -23 -98v-449q0 -70 16 -107q27 -64 110 -64q89 0 181 83z" />
<glyph unicode="r" horiz-adv-x="565" vert-adv-y="2457" d="M557 877q-107 -9 -173 -57q-65 -48 -110 -146v-674h-172v1057h166v-174q65 94 120 134q65 46 169 58v-198z" />
<glyph unicode="s" horiz-adv-x="735" vert-adv-y="2457" d="M504 762v43q0 135 -140 135q-51 0 -84 -19q-49 -28 -49 -88q0 -51 35 -97q37 -48 162 -125q172 -106 223 -190q43 -71 43 -154v-25q0 -265 -322 -265q-181 0 -266 93q-65 71 -65 193v59h172v-49q0 -159 160 -159q79 0 117 42q30 33 30 84q0 54 -36 102q-36 46 -157 122 q-169 105 -219 189q-42 73 -42 160v21q0 135 109 198q80 45 195 45q157 0 237 -87q63 -67 63 -175v-53h-166z" />
<glyph unicode="t" horiz-adv-x="602" vert-adv-y="2457" d="M573 4q-89 -16 -143 -16q-132 0 -191 66q-55 61 -55 194v670h-141v139h143v299l172 31v-330h201v-139h-201v-676q0 -115 110 -115q43 0 99 14z" />
<glyph unicode="u" horiz-adv-x="827" vert-adv-y="2457" d="M723 0h-156l-8 92q-120 -110 -246 -110q-217 0 -217 268v807h172v-797q0 -53 14 -77q23 -37 85 -37q96 0 184 90v821h172v-1057z" />
<glyph unicode="v" horiz-adv-x="745" vert-adv-y="2457" d="M719 1057l-246 -1057h-200l-246 1057h176l125 -619q31 -152 45 -274q21 159 174 893h172z" />
<glyph unicode="w" horiz-adv-x="1126" vert-adv-y="2457" d="M1090 1057l-201 -1057h-193q-64 337 -135 819q-15 -155 -37 -260l-114 -559h-189l-184 1057h172l94 -631q19 -128 29 -246q15 126 37 246l112 631h166q64 -363 140 -877q70 504 131 877h172z" />
<glyph unicode="x" horiz-adv-x="739" vert-adv-y="2457" d="M731 0h-184l-117 283q-43 100 -62 178q-15 -72 -59 -178l-117 -283h-186l268 549l-250 508h181l100 -244q51 -119 63 -178q17 62 66 178l102 244h183l-248 -510z" />
<glyph unicode="y" horiz-adv-x="809" vert-adv-y="2457" d="M760 1057l-295 -1180q-36 -142 -89 -205q-75 -90 -227 -90q-44 0 -98 11v139q49 -9 78 -9q79 0 117 49q27 34 45 114l30 137l-272 1034h180q80 -358 180 -850q97 490 179 850h172z" />
<glyph unicode="z" horiz-adv-x="723" vert-adv-y="2457" d="M661 0h-608v121l389 797h-356v139h555v-125l-389 -793h409v-139z" />
<glyph unicode="{" horiz-adv-x="565" vert-adv-y="2457" d="M533 -66h-136q-223 0 -223 242v232q0 110 -25 156q-28 53 -110 61v119q65 6 95 42q40 47 40 173v232q0 239 223 239h136v-137h-74q-117 0 -117 -139v-238q0 -117 -46 -169q-33 -39 -110 -59v-6q84 -22 118 -69q38 -52 38 -162v-238q0 -144 123 -144h68v-135z" />
<glyph unicode="|" vert-adv-y="2457" d="M598 -203h-172v1772h172v-1772z" />
<glyph unicode="}" horiz-adv-x="565" vert-adv-y="2457" d="M527 625q-68 -7 -98 -42q-38 -44 -38 -176v-231q0 -242 -225 -242h-135v135h69q121 0 121 144v237q0 119 47 173q33 39 111 59v6q-84 22 -120 71q-38 53 -38 157v238q0 139 -114 139h-76v137h135q225 0 225 -240v-231q0 -110 25 -155q28 -52 111 -60v-119z" />
<glyph unicode="~" vert-adv-y="2457" d="M971 623q-117 -228 -282 -228q-68 0 -188 61q-118 60 -184 60q-56 0 -100 -39q-31 -27 -68 -90l-96 57q59 105 93 144q76 88 179 88q71 0 191 -61q120 -62 188 -62q94 0 168 125z" />
<glyph unicode="&#xa0;" horiz-adv-x="397" vert-adv-y="2457" />
<glyph unicode="&#xa1;" horiz-adv-x="475" vert-adv-y="2457" d="M288 1139h-182v227h182v-227zM282 0h-174l18 995h142z" />
<glyph unicode="&#xa2;" horiz-adv-x="913" vert-adv-y="2457" d="M772 535v-96q0 -142 -76 -216q-63 -62 -199 -78v-215h-94v217q-78 12 -118 31q-148 74 -148 289v473q0 123 73 206q67 75 193 95v191h94v-189q128 -18 194 -90q71 -78 71 -199v-88h-168v33v2v1v1q0 72 -16 110q-20 50 -81 72v-784q52 15 75 48q28 38 28 124v62h172z M403 303v782q-94 -34 -94 -172v-427q0 -67 17 -110q21 -53 77 -73z" />
<glyph unicode="&#xa3;" horiz-adv-x="913" vert-adv-y="2457" d="M838 307q-3 -126 -35 -197q-58 -130 -214 -130q-159 0 -304 126q-84 -85 -183 -135l-59 129q92 61 139 129q72 101 72 241q0 37 -8 140h-168v129h153q-9 38 -14 61q-43 174 -43 264q0 325 332 325q184 0 248 -111q47 -82 47 -299v-1v-1v-1v-1h-166v74q0 82 -18 123 q-30 72 -126 72q-151 0 -151 -179q0 -76 33 -225q13 -60 20 -101h189v-129h-180q10 -116 10 -153q0 -111 -64 -236q115 -100 218 -100q66 0 92 45q20 35 20 129v12h160z" />
<glyph unicode="&#xa4;" horiz-adv-x="1264" vert-adv-y="2457" d="M1204 219l-100 -102l-193 192q-143 -96 -279 -96q-135 0 -278 94l-192 -190l-101 102l193 191q-96 136 -96 271q0 132 94 275l-195 193l103 102l194 -190q143 94 280 94q132 0 273 -94l193 190l102 -102l-190 -193q94 -144 94 -274q0 -126 -94 -272zM635 991 q-132 0 -222 -91q-87 -88 -87 -217q0 -127 90 -216q89 -90 215 -90q127 0 217 89t90 217q0 102 -58 181q-93 127 -245 127z" />
<glyph unicode="&#xa5;" horiz-adv-x="913" vert-adv-y="2457" d="M862 1366l-205 -524h146v-105l-189 -2l-68 -177v-6h257v-106h-257v-446h-180v446h-254v106h254v6l-68 177h-22h-35q-63 0 -129 2v105h143l-204 524h180l129 -358l6 -19l7 -18q62 -174 83 -273q6 48 24 107q16 51 61 171q13 33 15 40l126 350h180z" />
<glyph unicode="&#xa6;" vert-adv-y="2457" d="M598 782h-172v584h172v-584zM598 -408h-172v588h172v-588z" />
<glyph unicode="&#xa7;" horiz-adv-x="963" vert-adv-y="2457" d="M643 1042q-1 103 -23 141q-34 58 -137 58q-157 0 -157 -137v-29q0 -49 35 -84q18 -19 58 -42l226 -134q102 -60 143 -106q60 -67 60 -161q0 -133 -139 -227q59 -50 84 -90q35 -57 35 -149v-37q0 -291 -353 -291q-198 0 -282 93q-70 78 -70 229v63h180q1 -117 20 -160 q36 -78 153 -78q165 0 165 148v33q0 61 -41 97q-30 26 -116 77l-185 108q-91 54 -125 91q-59 62 -59 166q0 91 61 152q29 30 89 68q-54 42 -79 85q-36 62 -36 149v22q0 142 84 216q85 76 252 76q182 0 267 -93q67 -72 67 -196v-58h-177zM611 383q67 60 67 132q0 55 -50 99 q-19 17 -97 66l-172 106q-41 -30 -56 -47q-30 -34 -30 -77q0 -62 64 -113q20 -15 81 -52z" />
<glyph unicode="&#xa8;" vert-adv-y="2457" d="M758 1198h-180v209h180v-209zM446 1198h-180v209h180v-209z" />
<glyph unicode="&#xa9;" horiz-adv-x="1323" vert-adv-y="2457" d="M924 588v-131q0 -123 -71 -187q-68 -61 -197 -61q-257 0 -257 271v411q0 135 75 203q65 59 184 59q132 0 201 -75q56 -61 56 -158v-129h-147v117q0 116 -109 116q-113 0 -113 -129v-407q0 -64 13 -94q24 -54 100 -54q56 0 82 29q27 30 27 100v119h156zM664 1425 q314 0 488 -196q111 -125 152 -335q19 -96 19 -205q0 -398 -213 -594q-168 -154 -446 -154q-315 0 -490 196q-174 196 -174 546q0 389 215 587q170 155 449 155zM660 1282q-291 0 -419 -221q-85 -146 -85 -378q0 -231 84 -378q127 -221 422 -221q332 0 449 281 q56 134 56 315q0 232 -85 379q-130 223 -422 223z" />
<glyph unicode="&#xaa;" horiz-adv-x="694" vert-adv-y="2457" d="M565 721h-121l-2 59q-46 -65 -135 -65q-90 0 -138 53q-40 44 -40 115v34q0 115 116 171q67 33 189 48v72q0 76 -77 76q-50 0 -68 -31q-13 -22 -13 -77v-5h-127v31q0 187 213 187q203 0 203 -179v-489zM434 866v176q-174 -29 -174 -123v-26q0 -74 73 -74q53 0 101 47z M565 532h-436v109h436v-109z" />
<glyph unicode="&#xab;" horiz-adv-x="733" vert-adv-y="2457" d="M664 102l-131 -14l-156 438l160 439l127 -17l-129 -420zM365 102l-131 -14l-156 438l160 439l127 -17l-129 -420z" />
<glyph unicode="&#xac;" vert-adv-y="2457" d="M955 0h-166v444h-719v154h885v-598z" />
<glyph unicode="&#xad;" horiz-adv-x="420" vert-adv-y="2457" d="M420 483h-420v166h420v-166z" />
<glyph unicode="&#xae;" horiz-adv-x="1032" vert-adv-y="2457" d="M686 829h-88l-84 213l-35 -2v-211h-82v494h121q71 0 108 -41q31 -34 31 -91q0 -88 -69 -128zM479 1112q96 1 96 74q0 42 -25 56q-16 9 -57 9h-14v-139zM518 1534q192 0 300 -121q107 -120 107 -334q0 -244 -134 -366q-104 -95 -273 -95q-195 0 -305 125 q-107 122 -107 333q0 237 134 360q105 98 278 98zM515 1456q-182 0 -263 -141q-54 -93 -54 -238q0 -148 55 -243q81 -140 263 -140q207 0 281 179q36 86 36 201q0 147 -56 242q-81 140 -262 140z" />
<glyph unicode="&#xaf;" vert-adv-y="2457" d="M740 1243h-455v139h455v-139z" />
<glyph unicode="&#xb0;" horiz-adv-x="872" vert-adv-y="2457" d="M436 1419q141 0 225 -84q82 -82 82 -215q0 -137 -82 -219q-84 -84 -224 -84q-139 0 -225 85q-83 84 -83 217t82 216q83 84 225 84zM436 1298q-78 0 -125 -48q-49 -49 -49 -131q0 -84 51 -135q47 -48 124 -48q76 0 123 47q50 51 50 134q0 84 -49 133q-47 48 -125 48z" />
<glyph unicode="&#xb1;" vert-adv-y="2457" d="M955 542h-359v-345h-166v345h-360v156h360v342h166v-342h359v-156zM955 -27h-885v154h885v-154z" />
<glyph unicode="&#xb2;" horiz-adv-x="635" vert-adv-y="2457" d="M561 581h-489v70q0 70 41 145q40 71 155 188q62 62 102 113q44 57 44 113q0 96 -96 96q-59 0 -81 -38q-16 -27 -16 -88v-37h-137v66q0 97 64 153q65 57 178 57q223 0 223 -200v-27q0 -53 -34 -114q-33 -60 -148 -179q-88 -91 -115 -132q-16 -24 -31 -69h340v-117z" />
<glyph unicode="&#xb3;" horiz-adv-x="635" vert-adv-y="2457" d="M461 1026q100 -42 100 -155v-95q0 -204 -246 -204q-134 0 -190 62q-49 54 -49 165v49h139v-33v-2v-1v-1q0 -55 12 -81q20 -47 92 -47q57 0 81 26q22 24 22 90v1v2v2v1v47q0 72 -44 97q-30 18 -101 18h-47v104h36q65 0 97 13q47 20 47 75v67q0 84 -93 84q-51 0 -72 -24 q-19 -21 -19 -78v-43h-140v59q0 112 89 163q61 34 146 34q83 0 142 -34q86 -48 86 -152v-76q0 -88 -88 -133z" />
<glyph unicode="&#xb4;" vert-adv-y="2457" d="M676 1419l-172 -262h-156l121 262h207z" />
<glyph unicode="&#xb5;" horiz-adv-x="1079" vert-adv-y="2457" d="M940 0h-164v121q-62 -146 -243 -146q-159 0 -228 134v-480h-166v1432h166v-617q0 -111 32 -185q56 -130 199 -130q240 0 240 332v600h164v-1061z" />
<glyph unicode="&#xb6;" horiz-adv-x="1180" vert-adv-y="2457" d="M1092 1235h-127v-1643h-147v1643h-202v-1643h-147v1053h-29q-169 0 -273 103q-99 98 -99 254q0 362 452 362h572v-129z" />
<glyph unicode="&#xb7;" horiz-adv-x="385" vert-adv-y="2457" d="M282 453h-180v227h180v-227z" />
<glyph unicode="&#xb8;" vert-adv-y="2457" d="M541 -98q158 -9 158 -130q0 -161 -225 -161q-70 0 -148 22l12 97q69 -21 116 -21q104 0 104 58q0 59 -102 59q-14 0 -46 -4l82 190h100z" />
<glyph unicode="&#xb9;" horiz-adv-x="635" vert-adv-y="2457" d="M549 581h-445v117h158v568l-125 -50l-51 107l196 84h119v-709h148v-117z" />
<glyph unicode="&#xba;" horiz-adv-x="698" vert-adv-y="2457" d="M129 911v281q0 83 54 136q61 61 167 61q114 0 173 -65q46 -50 46 -132v-281q0 -202 -217 -202q-115 0 -175 65q-48 52 -48 137zM438 905v285q0 86 -90 86q-88 0 -88 -86v-285q0 -83 88 -83q90 0 90 83zM569 532h-440v109h440v-109z" />
<glyph unicode="&#xbb;" horiz-adv-x="733" vert-adv-y="2457" d="M656 526l-158 -438l-129 14l131 424l-131 422l129 15zM357 526l-158 -438l-129 14l129 424l-129 422l129 15z" />
<glyph unicode="&#xbc;" horiz-adv-x="1511" vert-adv-y="2457" d="M1417 221h-102v-221h-139v221h-312v101l263 505h188v-491h102v-115zM1186 719h-10q-22 -68 -49 -129q-23 -52 -128 -256h175v1v1v1v1q0 223 12 381zM1212 1380l-675 -1394h-123l676 1394h122zM549 538h-447v117h160v570l-127 -49l-51 106l196 84h119v-711h150v-117z" />
<glyph unicode="&#xbd;" horiz-adv-x="1511" vert-adv-y="2457" d="M1438 0h-489v70q0 70 41 145q40 70 155 187q61 62 101 113q45 58 45 113q0 96 -96 96q-59 0 -81 -38q-16 -26 -16 -88v-37h-137v66q0 97 64 153q65 57 178 57q223 0 223 -200v-27q0 -53 -34 -114q-33 -59 -148 -179q-88 -90 -115 -132q-16 -23 -31 -68h340v-117z M1184 1380l-676 -1394h-123l676 1394h123zM531 538h-447v117h160v570l-127 -49l-51 106l196 84h119v-711h150v-117z" />
<glyph unicode="&#xbe;" horiz-adv-x="1511" vert-adv-y="2457" d="M1417 221h-102v-221h-139v221h-311v101l262 505h188v-491h102v-115zM1186 719h-10q-21 -66 -49 -129q-21 -47 -127 -256h173v1v1v1v1q0 223 13 381zM1206 1380l-676 -1394h-123l678 1394h121zM502 985q100 -42 100 -156v-94q0 -204 -246 -204q-134 0 -190 62 q-49 54 -49 165v49h139v-33v-2v-1v-1q0 -54 12 -81q20 -47 92 -47q57 0 81 26q22 25 22 90v1v2v2v1v47q0 72 -44 97q-30 18 -101 18h-47v104h36q66 0 97 13q47 20 47 75v68q0 83 -93 83q-51 0 -72 -23q-19 -22 -19 -79v-43h-140v59q0 112 89 163q60 34 146 34q84 0 142 -34 q86 -49 86 -152v-76q0 -88 -88 -133z" />
<glyph unicode="&#xbf;" horiz-adv-x="807" vert-adv-y="2457" d="M506 1137h-182v227h182v-227zM680 352v-76q0 -301 -312 -301q-157 0 -229 79q-67 74 -67 224v41q0 89 40 180q22 49 89 140q59 81 86 135q39 80 39 188v66h174v-88q0 -98 -39 -191q-27 -64 -104 -172q-48 -68 -77 -122q-34 -63 -34 -134v-26q0 -81 15 -116 q26 -61 113 -61q86 0 116 53q22 39 22 112q0 2 -1 41q-1 9 -1 28h170z" />
<glyph unicode="&#xc0;" horiz-adv-x="889" vert-adv-y="2457" d="M846 0h-191l-73 373h-293l-60 -373h-186l256 1366h268zM557 518q-57 294 -125 725l-14 -87q-74 -463 -109 -638h248zM507 1440h-156l-172 262h207z" />
<glyph unicode="&#xc1;" horiz-adv-x="889" vert-adv-y="2457" d="M846 0h-191l-73 373h-293l-60 -373h-186l256 1366h268zM557 518q-57 294 -125 725l-14 -87q-74 -463 -109 -638h248zM667 1702l-172 -262h-156l121 262h207z" />
<glyph unicode="&#xc2;" horiz-adv-x="889" vert-adv-y="2457" d="M846 0h-191l-73 373h-293l-60 -373h-186l256 1366h268zM557 518q-57 294 -125 725l-14 -87q-74 -463 -109 -638h248zM679 1438h-148l-98 166l-105 -166h-141l154 260h188z" />
<glyph unicode="&#xc3;" horiz-adv-x="889" vert-adv-y="2457" d="M846 0h-191l-73 373h-293l-60 -373h-186l256 1366h268zM557 518q-57 294 -125 725l-14 -87q-74 -463 -109 -638h248zM704 1554q-98 -96 -178 -96q-40 0 -110 33q-58 27 -85 27q-38 0 -88 -60l-84 92q86 109 173 109q34 0 99 -30q62 -30 95 -30t104 60z" />
<glyph unicode="&#xc4;" horiz-adv-x="889" vert-adv-y="2457" d="M846 0h-191l-73 373h-293l-60 -373h-186l245 1300h291zM557 518q-57 294 -125 725l-14 -87q-74 -463 -109 -638h248zM682 1366h-90h-90v195h180v-195zM370 1366h-90h-90v195h180v-195z" />
<glyph unicode="&#xc5;" horiz-adv-x="889" vert-adv-y="2457" d="M846 0h-191l-73 373h-293l-60 -373h-186l256 1366h268zM557 518q-57 294 -125 725l-14 -87q-74 -463 -109 -638h248zM433 1767q75 0 124 -50q44 -44 44 -109q0 -66 -44 -111q-49 -49 -124 -49t-124 49q-44 45 -44 110t44 110q49 50 124 50zM433 1681q-32 0 -53 -21 q-21 -22 -21 -52q0 -31 22 -53q21 -21 51 -21t53 22q22 22 22 51q0 30 -22 52t-52 22z" />
<glyph unicode="&#xc6;" horiz-adv-x="1188" vert-adv-y="2457" d="M1147 0h-532v564h-233l-158 -564h-182l415 1366h678v-147h-346v-437h299v-150h-299v-485h358v-147zM615 705v514h-41l-154 -514h195z" />
<glyph unicode="&#xc7;" horiz-adv-x="918" vert-adv-y="2457" d="M511 -19l-36 -79q158 -9 158 -132q0 -159 -225 -159q-70 0 -148 22l12 97q69 -21 116 -21q104 0 104 58q0 59 -97 59q-17 0 -51 -4l70 160q-291 33 -291 362v674q0 191 107 289q90 82 245 82q181 0 274 -102q74 -82 74 -216v-156h-176v86q0 97 -21 146q-35 84 -147 84 q-176 0 -176 -193v-674q0 -227 180 -227q101 0 142 71q31 54 31 165v100h180v-143q0 -331 -325 -349z" />
<glyph unicode="&#xc8;" horiz-adv-x="762" vert-adv-y="2457" d="M721 0h-598v1366h578v-147h-398v-437h350v-147h-350v-488h418v-147zM526 1440h-156l-172 262h207z" />
<glyph unicode="&#xc9;" horiz-adv-x="762" vert-adv-y="2457" d="M721 0h-598v1366h578v-147h-398v-437h350v-147h-350v-488h418v-147zM614 1702l-172 -262h-156l121 262h207z" />
<glyph unicode="&#xca;" horiz-adv-x="762" vert-adv-y="2457" d="M721 0h-598v1366h578v-147h-398v-437h350v-147h-350v-488h418v-147zM653 1438h-148l-98 166l-105 -166h-141l154 260h188z" />
<glyph unicode="&#xcb;" horiz-adv-x="762" vert-adv-y="2457" d="M721 0h-598v1366h578v-147h-398v-437h350v-147h-350v-488h418v-147zM659 1468h-90h-90v195h180v-195zM347 1468h-90h-90v195h180v-195z" />
<glyph unicode="&#xcc;" horiz-adv-x="442" vert-adv-y="2457" d="M312 0h-178v1366h178v-1366zM311 1440h-156l-172 262h207z" />
<glyph unicode="&#xcd;" horiz-adv-x="442" vert-adv-y="2457" d="M311 0h-178v1366h178v-1366zM462 1702l-172 -262h-156l121 262h207z" />
<glyph unicode="&#xce;" horiz-adv-x="444" vert-adv-y="2457" d="M311 0h-178v1366h178v-1366zM468 1438h-148l-98 166l-105 -166h-141l154 260h188z" />
<glyph unicode="&#xcf;" horiz-adv-x="444" vert-adv-y="2457" d="M451 1468h-170v195h170v-195zM164 1468h-170v195h170v-195zM311 0h-178v1366h178v-1366z" />
<glyph unicode="&#xd0;" horiz-adv-x="944" vert-adv-y="2457" d="M121 1366h282q227 0 331 -116q99 -110 99 -348v-408q0 -195 -46 -298q-50 -113 -159 -160q-83 -36 -212 -36h-295v648h-117v143h117v575zM301 147h115q239 0 239 310v494q0 268 -243 268h-111v-428h201v-143h-201v-501z" />
<glyph unicode="&#xd1;" horiz-adv-x="993" vert-adv-y="2457" d="M871 0h-246q-212 635 -330 1079q4 -397 4 -469v-610h-176v1366h248l9 -29q207 -657 317 -1048l-1 67l-1 107q-2 245 -2 389v514h178v-1366zM793 1554q-98 -96 -178 -96q-40 0 -110 33q-58 27 -85 27q-38 0 -88 -60l-84 92q86 109 173 109q34 0 99 -30q62 -30 95 -30 t104 60z" />
<glyph unicode="&#xd2;" horiz-adv-x="942" vert-adv-y="2457" d="M111 350v652q0 204 110 304q90 83 250 83q178 0 270 -104q91 -102 91 -296v-643q0 -183 -109 -283q-94 -86 -254 -86q-176 0 -270 105q-88 97 -88 268zM654 348v637q0 246 -184 246q-86 0 -133 -53q-48 -54 -48 -156v-668q0 -217 181 -217q87 0 135 54q49 55 49 157z M581 1440h-156l-172 262h207z" />
<glyph unicode="&#xd3;" horiz-adv-x="942" vert-adv-y="2457" d="M111 350v652q0 204 110 304q90 83 250 83q178 0 270 -104q91 -102 91 -296v-643q0 -183 -109 -283q-94 -86 -254 -86q-176 0 -270 105q-88 97 -88 268zM654 348v637q0 246 -184 246q-86 0 -133 -53q-48 -54 -48 -156v-668q0 -217 181 -217q87 0 135 54q49 55 49 157z M697 1702l-172 -262h-156l121 262h207z" />
<glyph unicode="&#xd4;" horiz-adv-x="942" vert-adv-y="2457" d="M111 350v652q0 204 110 304q90 83 250 83q178 0 270 -104q91 -102 91 -296v-643q0 -183 -109 -283q-94 -86 -254 -86q-176 0 -270 105q-88 97 -88 268zM654 348v637q0 246 -184 246q-86 0 -133 -53q-48 -54 -48 -156v-668q0 -217 181 -217q87 0 135 54q49 55 49 157z M715 1438h-148l-98 166l-105 -166h-141l154 260h188z" />
<glyph unicode="&#xd5;" horiz-adv-x="942" vert-adv-y="2457" d="M111 350v652q0 204 110 304q90 83 250 83q178 0 270 -104q91 -102 91 -296v-643q0 -183 -109 -283q-94 -86 -254 -86q-176 0 -270 105q-88 97 -88 268zM654 348v637q0 246 -184 246q-86 0 -133 -53q-48 -54 -48 -156v-668q0 -217 181 -217q87 0 135 54q49 55 49 157z M733 1554q-98 -96 -178 -96q-40 0 -110 33q-58 27 -85 27q-38 0 -88 -60l-84 92q86 109 173 109q34 0 99 -30q62 -30 95 -30t104 60z" />
<glyph unicode="&#xd6;" horiz-adv-x="942" vert-adv-y="2457" d="M111 350v596q0 204 110 304q90 83 250 83q178 0 270 -104q91 -102 91 -296v-587q0 -183 -109 -283q-94 -86 -254 -86q-176 0 -270 105q-88 97 -88 268zM654 348v581q0 246 -184 246q-86 0 -133 -53q-48 -54 -48 -156v-612q0 -217 181 -217q87 0 135 54q49 55 49 157z M718 1366h-90h-90v195h180v-195zM406 1366h-90h-90v195h180v-195z" />
<glyph unicode="&#xd7;" vert-adv-y="2457" d="M912 252l-115 -115l-287 287l-284 -285l-109 109l285 284l-289 289l115 115l288 -289l285 285l109 -109l-285 -284z" />
<glyph unicode="&#xd8;" horiz-adv-x="942" vert-adv-y="2457" d="M905 1362l-12 -22l-60 -103l-20 -34l-12 -21q31 -91 31 -193v-643q0 -183 -109 -283q-95 -86 -255 -86q-175 0 -275 111q-8 -13 -23 -42q-29 -53 -49 -95l-84 49l12 21l90 157q-28 79 -28 172v652q0 387 359 387q181 0 282 -115l67 129zM646 1102q-32 129 -174 129 q-183 0 -183 -209v-561l43 76zM295 258q27 -121 174 -121q185 0 185 211v555l-44 -77l-68 -123l-69 -122l-67 -123l-68 -123z" />
<glyph unicode="&#xd9;" horiz-adv-x="956" vert-adv-y="2457" d="M834 1366v-1026q0 -363 -355 -363q-356 0 -356 363v1026h178v-1008q0 -85 21 -134q38 -89 157 -89q105 0 146 72q31 53 31 151v1008h178zM581 1440h-156l-172 262h207z" />
<glyph unicode="&#xda;" horiz-adv-x="956" vert-adv-y="2457" d="M834 1366v-1026q0 -363 -355 -363q-356 0 -356 363v1026h178v-1008q0 -85 21 -134q38 -89 157 -89q105 0 146 72q31 53 31 151v1008h178zM676 1702l-172 -262h-156l121 262h207z" />
<glyph unicode="&#xdb;" horiz-adv-x="956" vert-adv-y="2457" d="M834 1366v-1026q0 -363 -355 -363q-356 0 -356 363v1026h178v-1008q0 -85 21 -134q38 -89 157 -89q105 0 146 72q31 53 31 151v1008h178zM718 1438h-148l-98 166l-105 -166h-141l154 260h188z" />
<glyph unicode="&#xdc;" horiz-adv-x="956" vert-adv-y="2457" d="M834 1300v-960q0 -363 -355 -363q-356 0 -356 363v960h178v-942q0 -85 21 -134q38 -89 157 -89q105 0 146 72q31 53 31 151v942h178zM726 1366h-90h-90v195h180v-195zM414 1366h-90h-90v195h180v-195z" />
<glyph unicode="&#xdd;" horiz-adv-x="885" vert-adv-y="2457" d="M847 1366l-315 -807v-559h-180v559l-315 807h180l129 -358l6 -19l7 -18q63 -175 83 -273q3 29 35 121l67 197l123 350h180zM666 1702l-172 -262h-156l121 262h207z" />
<glyph unicode="&#xde;" horiz-adv-x="846" vert-adv-y="2457" d="M301 1161h143q193 0 293 -110q88 -98 88 -271q0 -186 -108 -294q-107 -107 -289 -107h-127v-379h-178v1366h178v-205zM301 524h104q240 0 240 255q0 235 -229 235h-115v-490z" />
<glyph unicode="&#xdf;" horiz-adv-x="905" vert-adv-y="2457" d="M106 -408v1469q0 206 98 295q83 76 241 76q167 0 252 -93q71 -77 71 -197q0 -81 -65 -209q-46 -91 -46 -132q0 -53 82 -194q83 -142 106 -220q19 -63 19 -123q0 -287 -278 -287q-93 0 -183 35l55 154q61 -35 115 -35q119 0 119 139q0 49 -20 101q-20 50 -84 149 q-46 70 -75 128q-34 67 -34 135q0 58 60 160q59 102 59 166q0 167 -155 167q-102 0 -139 -65q-26 -45 -26 -150v-1469h-172z" />
<glyph unicode="&#xe0;" horiz-adv-x="823" vert-adv-y="2457" d="M725 0h-158l-4 88q-108 -100 -228 -100q-124 0 -196 80q-63 70 -63 182v57q0 189 182 278q100 49 295 73v137q0 145 -137 145q-101 0 -130 -78q-14 -36 -14 -112h-165v35q0 294 317 294q301 0 301 -278v-801zM553 217v318q-142 -21 -206 -58q-99 -57 -99 -166v-43 q0 -139 130 -139q84 0 175 88zM518 1157h-156l-172 262h207z" />
<glyph unicode="&#xe1;" horiz-adv-x="823" vert-adv-y="2457" d="M725 0h-158l-4 88q-108 -100 -228 -100q-124 0 -196 80q-63 70 -63 182v57q0 189 182 278q100 49 295 73v137q0 145 -137 145q-101 0 -130 -78q-14 -36 -14 -112h-165v35q0 294 317 294q301 0 301 -278v-801zM553 217v318q-142 -21 -206 -58q-99 -57 -99 -166v-43 q0 -139 130 -139q84 0 175 88zM657 1419l-172 -262h-156l121 262h207z" />
<glyph unicode="&#xe2;" horiz-adv-x="823" vert-adv-y="2457" d="M725 0h-158l-4 88q-108 -100 -228 -100q-124 0 -196 80q-63 70 -63 182v57q0 189 182 278q100 49 295 73v137q0 145 -137 145q-101 0 -130 -78q-14 -36 -14 -112h-165v35q0 294 317 294q301 0 301 -278v-801zM553 217v318q-142 -21 -206 -58q-99 -57 -99 -166v-43 q0 -139 130 -139q84 0 175 88zM669 1159h-148l-98 166l-105 -166h-141l154 260h188z" />
<glyph unicode="&#xe3;" horiz-adv-x="823" vert-adv-y="2457" d="M725 0h-158l-4 88q-108 -100 -228 -100q-124 0 -196 80q-63 70 -63 182v57q0 189 182 278q100 49 295 73v137q0 145 -137 145q-101 0 -130 -78q-14 -36 -14 -112h-165v35q0 294 317 294q301 0 301 -278v-801zM553 217v318q-142 -21 -206 -58q-99 -57 -99 -166v-43 q0 -139 130 -139q84 0 175 88zM696 1290q-97 -97 -178 -97q-40 0 -110 33q-58 27 -85 27q-38 0 -88 -60l-84 93q86 108 173 108q36 0 100 -31q61 -29 93 -29q40 0 105 60z" />
<glyph unicode="&#xe4;" horiz-adv-x="823" vert-adv-y="2457" d="M725 0h-158l-4 88q-108 -100 -228 -100q-124 0 -196 80q-63 70 -63 182v57q0 189 182 278q100 49 295 73v137q0 145 -137 145q-101 0 -130 -78q-14 -36 -14 -112h-165v35q0 294 317 294q301 0 301 -278v-801zM553 217v318q-142 -21 -206 -58q-99 -57 -99 -166v-43 q0 -139 130 -139q84 0 175 88zM661 1198h-180v209h180v-209zM349 1198h-180v209h180v-209z" />
<glyph unicode="&#xe5;" horiz-adv-x="823" vert-adv-y="2457" d="M725 0h-158l-4 88q-108 -100 -228 -100q-124 0 -196 80q-63 70 -63 182v57q0 189 182 278q100 49 295 73v137q0 145 -137 145q-101 0 -130 -78q-14 -36 -14 -112h-165v35q0 294 317 294q301 0 301 -278v-801zM553 217v318q-142 -21 -206 -58q-99 -57 -99 -166v-43 q0 -139 130 -139q84 0 175 88zM425 1471q75 0 124 -50q44 -45 44 -109q0 -66 -44 -111q-49 -50 -124 -50t-124 50q-44 45 -44 110t44 110q49 50 124 50zM425 1385q-32 0 -53 -21q-21 -22 -21 -53t22 -52q21 -22 51 -22t53 22q22 23 22 52q0 30 -22 52t-52 22z" />
<glyph unicode="&#xe6;" horiz-adv-x="1276" vert-adv-y="2457" d="M1184 328v-45q0 -150 -91 -232q-83 -74 -223 -74q-173 0 -266 138q-61 -56 -105 -82q-78 -49 -164 -49q-124 0 -196 80q-63 69 -63 182v61q0 213 218 303q103 42 259 47v124q0 157 -139 157q-76 0 -110 -38q-32 -35 -32 -115v-35h-165v39q0 142 83 217q81 71 223 71 q170 0 238 -108q82 108 226 108q137 0 221 -84q86 -87 86 -233v-236h-467v-241q0 -71 43 -115q41 -41 106 -41q66 0 107 41q43 44 43 115v45h168zM1020 657v118q0 82 -47 124q-38 35 -103 35q-75 0 -115 -45q-38 -42 -38 -114v-118h303zM553 217v307q-305 -7 -305 -212v-48 q0 -71 40 -108q34 -31 90 -31q78 0 175 92z" />
<glyph unicode="&#xe7;" horiz-adv-x="784" vert-adv-y="2457" d="M713 367v-94q0 -141 -81 -218q-49 -48 -120 -65q-27 -7 -82 -12l-35 -76q158 -8 158 -132q0 -159 -225 -159q-68 0 -148 23l12 96q68 -21 116 -21q104 0 104 58q0 59 -97 59q-16 0 -51 -4l70 160q-68 13 -104 33q-144 78 -144 284v477q0 133 83 216q87 87 231 87 q152 0 237 -93q70 -77 70 -198v-86h-172v51q0 172 -135 172q-142 0 -142 -178v-427q0 -75 18 -118q32 -73 125 -73q85 0 117 56q23 41 23 129v53h172z" />
<glyph unicode="&#xe8;" horiz-adv-x="823" vert-adv-y="2457" d="M731 326v-51q0 -146 -87 -224q-82 -74 -228 -74q-165 0 -249 95q-75 84 -75 232v442q0 165 98 253q86 78 232 78q152 0 234 -91q75 -83 75 -224v-274h-465v-205q0 -154 148 -154q80 0 115 38q32 36 32 124v35h170zM565 627v147q0 83 -47 125q-38 35 -103 35 q-74 0 -114 -44q-37 -42 -37 -116v-147h301zM515 1157h-156l-172 262h207z" />
<glyph unicode="&#xe9;" horiz-adv-x="823" vert-adv-y="2457" d="M731 326v-51q0 -146 -87 -224q-82 -74 -228 -74q-165 0 -249 95q-75 84 -75 232v442q0 165 98 253q86 78 232 78q152 0 234 -91q75 -83 75 -224v-274h-465v-205q0 -154 148 -154q80 0 115 38q32 36 32 124v35h170zM565 627v147q0 83 -47 125q-38 35 -103 35 q-74 0 -114 -44q-37 -42 -37 -116v-147h301zM642 1419l-172 -262h-156l121 262h207z" />
<glyph unicode="&#xea;" horiz-adv-x="823" vert-adv-y="2457" d="M731 326v-51q0 -146 -87 -224q-82 -74 -228 -74q-165 0 -249 95q-75 84 -75 232v442q0 165 98 253q86 78 232 78q152 0 234 -91q75 -83 75 -224v-274h-465v-205q0 -154 148 -154q80 0 115 38q32 36 32 124v35h170zM565 627v147q0 83 -47 125q-38 35 -103 35 q-74 0 -114 -44q-37 -42 -37 -116v-147h301zM671 1159h-148l-98 166l-105 -166h-141l154 260h188z" />
<glyph unicode="&#xeb;" horiz-adv-x="823" vert-adv-y="2457" d="M731 326v-51q0 -146 -87 -224q-82 -74 -228 -74q-165 0 -249 95q-75 84 -75 232v442q0 165 98 253q86 78 232 78q152 0 234 -91q75 -83 75 -224v-274h-465v-205q0 -154 148 -154q80 0 115 38q32 36 32 124v35h170zM565 627v147q0 83 -47 125q-38 35 -103 35 q-74 0 -114 -44q-37 -42 -37 -116v-147h301zM665 1198h-180v209h180v-209zM353 1198h-180v209h180v-209z" />
<glyph unicode="&#xec;" horiz-adv-x="389" vert-adv-y="2457" d="M269 0h-172v1057h172v-1057zM284 1157h-156l-172 262h207z" />
<glyph unicode="&#xed;" horiz-adv-x="389" vert-adv-y="2457" d="M277 0h-172v1057h172v-1057zM435 1419l-172 -262h-156l121 262h207z" />
<glyph unicode="&#xee;" horiz-adv-x="389" vert-adv-y="2457" d="M270 0h-172v1057h172v-1057zM411 1159h-143l-80 164l-86 -164h-135l131 260h186z" />
<glyph unicode="&#xef;" horiz-adv-x="389" vert-adv-y="2457" d="M277 0h-172v1057h172v-1057zM395 1198h-156v209h156v-209zM150 1198h-156v209h156v-209z" />
<glyph unicode="&#xf0;" horiz-adv-x="840" vert-adv-y="2457" d="M532 1297q95 -107 143 -209q72 -155 72 -334v-465q0 -140 -85 -224q-88 -88 -242 -88q-166 0 -255 98q-73 81 -73 214v465q0 143 107 220q84 60 205 60q73 0 134 -28q-36 110 -131 215l-165 -101l-54 88l143 86q-60 50 -188 105l53 96q147 -45 252 -127l164 99l55 -89z M575 291v438q0 74 -44 117q-42 43 -111 43t-112 -43q-44 -45 -44 -117v-438q0 -81 47 -123q40 -37 109 -37q155 0 155 160z" />
<glyph unicode="&#xf1;" horiz-adv-x="825" vert-adv-y="2457" d="M729 0h-172v785q0 131 -106 131q-84 0 -177 -97v-819h-172v1057h160l6 -98q117 117 234 117q227 0 227 -255v-821zM681 1301q-97 -97 -178 -97q-40 0 -110 33q-58 27 -85 27q-38 0 -88 -60l-84 93q86 108 173 108q36 0 100 -31q61 -29 93 -29q40 0 105 60z" />
<glyph unicode="&#xf2;" horiz-adv-x="840" vert-adv-y="2457" d="M92 297v473q0 149 93 232q87 77 237 77q168 0 253 -93q72 -78 72 -216v-473q0 -158 -94 -243q-85 -77 -233 -77q-166 0 -253 97q-75 83 -75 223zM575 289v477q0 73 -44 117q-42 42 -112 42q-75 0 -117 -47q-38 -43 -38 -112v-477q0 -79 46 -121q41 -37 110 -37 q77 0 118 46q37 41 37 112zM525 1157h-156l-172 262h207z" />
<glyph unicode="&#xf3;" horiz-adv-x="840" vert-adv-y="2457" d="M92 297v473q0 149 93 232q87 77 237 77q168 0 253 -93q72 -78 72 -216v-473q0 -158 -94 -243q-85 -77 -233 -77q-166 0 -253 97q-75 83 -75 223zM575 289v477q0 73 -44 117q-42 42 -112 42q-75 0 -117 -47q-38 -43 -38 -112v-477q0 -79 46 -121q41 -37 110 -37 q77 0 118 46q37 41 37 112zM636 1419l-172 -262h-156l121 262h207z" />
<glyph unicode="&#xf4;" horiz-adv-x="840" vert-adv-y="2457" d="M92 297v473q0 149 93 232q87 77 237 77q168 0 253 -93q72 -78 72 -216v-473q0 -158 -94 -243q-85 -77 -233 -77q-166 0 -253 97q-75 83 -75 223zM575 289v477q0 73 -44 117q-42 42 -112 42q-75 0 -117 -47q-38 -43 -38 -112v-477q0 -79 46 -121q41 -37 110 -37 q77 0 118 46q37 41 37 112zM665 1157h-148l-98 166l-105 -166h-141l154 260h188z" />
<glyph unicode="&#xf5;" horiz-adv-x="840" vert-adv-y="2457" d="M92 297v473q0 149 93 232q87 77 237 77q168 0 253 -93q72 -78 72 -216v-473q0 -158 -94 -243q-85 -77 -233 -77q-166 0 -253 97q-75 83 -75 223zM575 289v477q0 73 -44 117q-42 42 -112 42q-75 0 -117 -47q-38 -43 -38 -112v-477q0 -79 46 -121q41 -37 110 -37 q77 0 118 46q37 41 37 112zM697 1301q-97 -97 -178 -97q-40 0 -110 33q-58 27 -85 27q-38 0 -88 -60l-84 93q86 108 173 108q36 0 100 -31q61 -29 93 -29q40 0 105 60z" />
<glyph unicode="&#xf6;" horiz-adv-x="840" vert-adv-y="2457" d="M92 297v473q0 149 93 232q87 77 237 77q168 0 253 -93q72 -78 72 -216v-473q0 -158 -94 -243q-85 -77 -233 -77q-166 0 -253 97q-75 83 -75 223zM575 289v477q0 73 -44 117q-42 42 -112 42q-75 0 -117 -47q-38 -43 -38 -112v-477q0 -79 46 -121q41 -37 110 -37 q77 0 118 46q37 41 37 112zM663 1198h-180v209h180v-209zM351 1198h-180v209h180v-209z" />
<glyph unicode="&#xf7;" horiz-adv-x="1022" vert-adv-y="2457" d="M602 770h-180v207h180v-207zM955 464h-887v154h887v-154zM602 104h-180v207h180v-207z" />
<glyph unicode="&#xf8;" horiz-adv-x="840" vert-adv-y="2457" d="M829 1059l-107 -154q25 -62 25 -135v-473q0 -157 -94 -242q-85 -78 -233 -78q-154 0 -250 97l-84 -135l-76 51l99 138l14 19q-31 68 -31 150v473q0 132 83 217q91 92 245 92q159 0 255 -96l78 125zM569 828q-30 97 -147 97q-72 0 -115 -42q-43 -44 -43 -117v-399z M272 217q31 -86 146 -86q157 0 157 158v385z" />
<glyph unicode="&#xf9;" horiz-adv-x="827" vert-adv-y="2457" d="M723 0h-156l-8 92q-120 -110 -246 -110q-217 0 -217 268v807h172v-797q0 -53 14 -77q23 -37 85 -37q96 0 184 90v821h172v-1057zM534 1157h-156l-172 262h207z" />
<glyph unicode="&#xfa;" horiz-adv-x="827" vert-adv-y="2457" d="M723 0h-156l-8 92q-120 -110 -246 -110q-217 0 -217 268v807h172v-797q0 -53 14 -77q23 -37 85 -37q96 0 184 90v821h172v-1057zM620 1419l-172 -262h-156l121 262h207z" />
<glyph unicode="&#xfb;" horiz-adv-x="827" vert-adv-y="2457" d="M723 0h-156l-8 92q-120 -110 -246 -110q-217 0 -217 268v807h172v-797q0 -53 14 -77q23 -37 85 -37q96 0 184 90v821h172v-1057zM657 1157h-148l-98 166l-105 -166h-141l154 260h188z" />
<glyph unicode="&#xfc;" horiz-adv-x="827" vert-adv-y="2457" d="M723 0h-156l-8 92q-120 -110 -246 -110q-217 0 -217 268v807h172v-797q0 -53 14 -77q23 -37 85 -37q96 0 184 90v821h172v-1057zM657 1198h-180v209h180v-209zM345 1198h-180v209h180v-209z" />
<glyph unicode="&#xfd;" horiz-adv-x="809" vert-adv-y="2457" d="M760 1057l-295 -1180q-36 -142 -89 -205q-75 -90 -227 -90q-44 0 -98 11v139q49 -9 78 -9q79 0 117 49q27 34 45 114l30 137l-272 1034h180q80 -358 180 -850q97 490 179 850h172zM626 1419l-172 -262h-156l121 262h207z" />
<glyph unicode="&#xfe;" horiz-adv-x="846" vert-adv-y="2457" d="M274 975q121 98 238 98q136 0 200 -112q41 -73 41 -168v-504q0 -305 -238 -305q-120 0 -241 102v-494h-172v1817h172v-434zM274 223q95 -81 179 -81q128 0 128 169v449q0 157 -125 157q-85 0 -182 -81v-613z" />
<glyph unicode="&#xff;" horiz-adv-x="809" vert-adv-y="2457" d="M760 1057l-295 -1180q-36 -142 -89 -205q-75 -90 -227 -90q-44 0 -98 11v139q49 -9 78 -9q79 0 117 49q27 34 45 114l30 137l-272 1034h180q80 -358 180 -850q97 490 179 850h172zM655 1200h-180v209h180v-209zM343 1200h-180v209h180v-209z" />
<glyph unicode="&#x131;" horiz-adv-x="389" vert-adv-y="2457" d="M281 0h-172v1057h172v-1057z" />
<glyph unicode="&#x152;" horiz-adv-x="1231" vert-adv-y="2457" d="M1190 0h-559v69q-118 -89 -244 -89q-159 0 -224 112q-52 91 -52 297v629q0 368 272 368q110 0 248 -87v67h549v-147h-367v-437h332v-147h-332v-488h377v-147zM631 204v947q-100 86 -196 86q-144 0 -144 -180v-721q0 -211 148 -211q85 0 192 79z" />
<glyph unicode="&#x153;" horiz-adv-x="1305" vert-adv-y="2457" d="M1212 326v-45q0 -148 -92 -230q-82 -74 -214 -74q-147 0 -243 109q-94 -109 -249 -109q-149 0 -236 87q-86 87 -86 233v471q0 132 85 217q93 92 245 92q163 0 241 -104q86 104 241 104q138 0 222 -84q86 -87 86 -233v-272h-467v-205q0 -70 44 -114q41 -42 107 -42 q75 0 113 42q33 36 33 98v59h170zM1048 625v149q0 83 -47 125q-38 35 -102 35q-76 0 -116 -45q-38 -42 -38 -115v-149h303zM575 289v475q0 75 -45 119q-42 43 -111 43q-68 0 -111 -43q-44 -44 -44 -119v-475q0 -78 46 -121q41 -37 110 -37q77 0 118 46q37 41 37 112z" />
<glyph unicode="&#x178;" horiz-adv-x="885" vert-adv-y="2457" d="M847 1366l-315 -807v-559h-180v559l-315 807h180l129 -358l6 -19l7 -18q63 -175 83 -273q3 29 35 121l67 197l123 350h180zM688 1468h-90h-90v195h180v-195zM376 1468h-90h-90v195h180v-195z" />
<glyph unicode="&#x2c6;" vert-adv-y="2457" d="M758 1157h-148l-98 166l-105 -166h-141l154 260h188z" />
<glyph unicode="&#x2da;" vert-adv-y="2457" d="M512 1471q75 0 124 -50q44 -45 44 -109q0 -66 -44 -111q-49 -50 -124 -50t-124 50q-44 45 -44 110t44 110q49 50 124 50zM512 1385q-32 0 -53 -21q-21 -22 -21 -53t22 -52q21 -22 51 -22t53 22q22 23 22 52q0 30 -22 52t-52 22z" />
<glyph unicode="&#x2dc;" vert-adv-y="2457" d="M785 1301q-97 -97 -178 -97q-40 0 -110 33q-58 27 -85 27q-38 0 -88 -60l-84 93q86 108 173 108q36 0 100 -31q61 -29 93 -29q40 0 105 60z" />
<glyph unicode="&#x2000;" horiz-adv-x="883" vert-adv-y="0" />
<glyph unicode="&#x2001;" horiz-adv-x="1767" vert-adv-y="0" />
<glyph unicode="&#x2002;" horiz-adv-x="883" vert-adv-y="0" />
<glyph unicode="&#x2003;" horiz-adv-x="1767" vert-adv-y="0" />
<glyph unicode="&#x2004;" horiz-adv-x="589" vert-adv-y="0" />
<glyph unicode="&#x2005;" horiz-adv-x="441" vert-adv-y="0" />
<glyph unicode="&#x2006;" horiz-adv-x="294" vert-adv-y="0" />
<glyph unicode="&#x2007;" horiz-adv-x="294" vert-adv-y="0" />
<glyph unicode="&#x2008;" horiz-adv-x="220" vert-adv-y="0" />
<glyph unicode="&#x2009;" horiz-adv-x="353" vert-adv-y="0" />
<glyph unicode="&#x200a;" horiz-adv-x="98" vert-adv-y="0" />
<glyph unicode="&#x2010;" horiz-adv-x="420" vert-adv-y="2457" d="M420 483h-420v166h420v-166z" />
<glyph unicode="&#x2011;" horiz-adv-x="420" vert-adv-y="2457" d="M420 483h-420v166h420v-166z" />
<glyph unicode="&#x2013;" horiz-adv-x="627" vert-adv-y="2457" d="M627 483h-627v166h627v-166z" />
<glyph unicode="&#x2014;" horiz-adv-x="1030" vert-adv-y="2457" d="M1030 483h-1030v166h1030v-166z" />
<glyph unicode="&#x2018;" horiz-adv-x="399" vert-adv-y="2457" d="M306 1407l-81 -264h61v-228h-180v217l131 275h69z" />
<glyph unicode="&#x2019;" horiz-adv-x="399" vert-adv-y="2457" d="M294 1190l-133 -275h-69l83 265h-63v225h182v-215z" />
<glyph unicode="&#x201a;" horiz-adv-x="399" vert-adv-y="2457" d="M294 8l-16 -32l-117 -240h-69l83 264h-63v227h182v-219z" />
<glyph unicode="&#x201c;" horiz-adv-x="684" vert-adv-y="2457" d="M594 1405l-86 -264h63v-226h-182v217l133 273h72zM308 1405l-83 -264h61v-226h-180v217l131 273h71z" />
<glyph unicode="&#x201d;" horiz-adv-x="682" vert-adv-y="2457" d="M577 1190l-133 -275h-70l84 265h-63v225h182v-215zM294 1190l-133 -275h-69l83 265h-63v225h182v-215z" />
<glyph unicode="&#x201e;" horiz-adv-x="684" vert-adv-y="2457" d="M577 8l-16 -32l-26 -52l-91 -188h-70l84 264h-63v227h182v-219zM294 8l-16 -32l-117 -240h-69l83 264h-63v227h182v-219z" />
<glyph unicode="&#x2022;" horiz-adv-x="633" vert-adv-y="2457" d="M318 828q52 0 89 -36q38 -38 38 -90q0 -55 -38 -93q-37 -36 -89 -36q-53 0 -90 37q-38 37 -38 90q0 54 38 91q36 37 90 37z" />
<glyph unicode="&#x2026;" horiz-adv-x="1159" vert-adv-y="2457" d="M1056 0h-180v227h180v-227zM671 0h-182v227h182v-227zM282 0h-180v227h180v-227z" />
<glyph unicode="&#x202f;" horiz-adv-x="353" vert-adv-y="0" />
<glyph unicode="&#x2039;" horiz-adv-x="434" vert-adv-y="2457" d="M365 102l-131 -14l-156 438l160 439l127 -17l-129 -420z" />
<glyph unicode="&#x203a;" horiz-adv-x="434" vert-adv-y="2457" d="M357 526l-158 -438l-129 14l129 424l-129 422l129 15z" />
<glyph unicode="&#x205f;" horiz-adv-x="441" vert-adv-y="0" />
<glyph unicode="&#x20ac;" horiz-adv-x="1085" vert-adv-y="2457" d="M1074 1188l-143 -74q-88 146 -242 146q-171 0 -258 -156q-42 -75 -67 -207h434v-129h-448q-2 -51 -2 -140v-14h450v-129h-440q21 -147 68 -228q86 -151 265 -151q150 0 238 125l131 -94q-62 -77 -135 -115q-98 -51 -236 -51q-221 0 -351 127q-90 89 -132 235 q-15 50 -30 152h-162v129h153v12q0 91 3 142h-156v129h172q36 177 103 282q138 216 402 216q154 0 262 -76q64 -45 121 -131z" />
<glyph unicode="&#x2122;" horiz-adv-x="1319" vert-adv-y="2457" d="M1245 668h-131v354q0 202 18 326l-178 -680h-112l-180 680v-7q16 -178 16 -309v-364h-129v829h186l119 -434q35 -128 47 -262q7 102 45 256l111 440h188v-829zM494 1393h-166v-725h-131v725h-166v102h463v-102z" />
<glyph unicode="&#xeff3;" vert-adv-y="2457" d="M512 1767q75 0 124 -50q44 -44 44 -109q0 -66 -44 -111q-49 -49 -124 -49t-124 49q-44 45 -44 110t44 110q49 50 124 50zM512 1681q-32 0 -53 -21q-21 -22 -21 -52q0 -31 22 -53q21 -21 51 -21t53 22q22 22 22 51q0 30 -22 52t-52 22z" />
<glyph unicode="&#xeff5;" vert-adv-y="2457" d="M785 1554q-98 -96 -178 -96q-40 0 -110 33q-58 27 -85 27q-38 0 -88 -60l-84 92q86 109 173 109q34 0 99 -30q62 -30 95 -30t104 60z" />
<glyph unicode="&#xeff7;" vert-adv-y="2457" d="M758 1438h-148l-98 166l-105 -166h-141l154 260h188z" />
<glyph unicode="&#xf6c9;" vert-adv-y="2457" d="M676 1702l-172 -262h-156l121 262h207z" />
<glyph unicode="&#xf6cb;" vert-adv-y="2457" d="M758 1468h-90h-90v195h180v-195zM446 1468h-90h-90v195h180v-195z" />
<glyph unicode="&#xf6ce;" vert-adv-y="2457" d="M676 1440h-156l-172 262h207z" />
</font>
</defs>
</svg>
