<?xml version="1.0" standalone="no"?>
<!DOCTYPE svg PUBLIC "-//W3C//DTD SVG 1.1//EN" "http://www.w3.org/Graphics/SVG/1.1/DTD/svg11.dtd" >
<svg xmlns="http://www.w3.org/2000/svg">
<metadata>Generated by IcoMoon</metadata>
<defs>
<font id="NDR_Icons" horiz-adv-x="512">
<font-face units-per-em="512" ascent="480" descent="-32" />
<missing-glyph horiz-adv-x="512" />
<glyph unicode="&#x20;" horiz-adv-x="256" d="" />
<glyph unicode="&#xe000;" glyph-name="uniE000" d="M224.094 426.667l-107.859-128h-52.235c-17.656 0-32-15.145-32-32.801v-96c0-17.656 14.344-31.199 32-31.199h54.047l106.047-128z" />
<glyph unicode="&#xe001;" glyph-name="uniE001" d="M293.406 318.707c-7.172 6.313-18.078 5.594-24.406-1.578-6.344-7.14-5.688-18.11 1.406-24.515 1.188-1.063 28.938-26.594 28.938-73.969 0-47.344-27.75-72.875-28.844-73.875-7.235-6.313-7.969-17.313-1.641-24.531 3.438-3.938 8.266-5.938 13.094-5.938 4.077 0 8.156 1.406 11.453 4.313 1.656 1.438 40.719 36.344 40.719 100.031 0.001 63.719-39.062 98.625-40.719 100.063zM353.156 367.77c-7.219 6.313-18.11 5.563-24.469-1.594-6.329-7.188-5.641-18.156 1.5-24.531 1.985-1.75 48.563-44.156 48.563-122.984s-46.578-121.234-48.5-122.953c-7.235-6.313-7.954-17.313-1.641-24.531 3.438-3.938 8.265-5.938 13.094-5.938 4.077 0 8.156 1.406 11.453 4.313 2.469 2.156 60.374 53.906 60.374 149.11s-57.904 146.952-60.373 149.108zM413.188 415.614c-7.219 6.297-18.156 5.594-24.485-1.625-6.329-7.188-5.641-18.156 1.531-24.531 0.688-0.594 67.64-61.219 67.64-170.797 0-109.562-66.952-170.203-67.594-170.766-7.235-6.313-7.952-17.313-1.64-24.531 3.438-3.938 8.267-5.938 13.094-5.938 4.077 0 8.156 1.406 11.453 4.297 3.25 2.828 79.469 70.985 79.469 196.938s-76.218 194.108-79.468 196.952zM224.094 426.667l-107.859-128h-52.235c-17.656 0-32-15.145-32-32.801v-96c0-17.656 14.344-31.199 32-31.199h54.047l106.047-128z" />
<glyph unicode="&#xe002;" glyph-name="uniE002" d="M293.406 318.721c-7.172 6.313-18.078 5.578-24.406-1.578-6.344-7.14-5.688-18.11 1.406-24.515 1.188-1.063 28.938-26.594 28.938-73.969 0-47.344-27.75-72.875-28.844-73.875-7.235-6.313-7.969-17.313-1.641-24.531 3.438-3.938 8.265-5.938 13.094-5.938 4.077 0 8.156 1.406 11.453 4.313 1.656 1.438 40.719 36.344 40.719 100.031 0.001 63.719-39.062 98.625-40.718 100.063zM353.156 367.784c-7.219 6.313-18.11 5.578-24.469-1.594-6.329-7.188-5.641-18.156 1.5-24.531 1.985-1.75 48.563-44.156 48.563-122.984s-46.578-121.235-48.5-122.953c-7.235-6.313-7.954-17.313-1.641-24.531 3.438-3.938 8.265-5.938 13.094-5.938 4.077 0 8.156 1.406 11.453 4.313 2.469 2.156 60.374 53.906 60.374 149.109s-57.904 146.953-60.373 149.109zM224.094 426.667l-107.859-128h-52.235c-17.656 0-32-15.145-32-32.801v-96c0-17.656 14.344-31.199 32-31.199h54.047l106.047-128z" />
<glyph unicode="&#xe003;" glyph-name="uniE003" d="M224.094 426.667l-107.859-128h-52.235c-17.656 0-32-15.145-32-32.801v-96c0-17.656 14.344-31.199 32-31.199h54.047l106.047-128zM293.407 320.557c-7.173 6.313-18.079 5.594-24.406-1.578-6.344-7.14-5.688-18.11 1.406-24.515 1.187-1.063 28.937-26.594 28.937-73.969 0-47.344-27.75-72.875-28.844-73.875-7.235-6.313-7.969-17.313-1.641-24.531 3.438-3.938 8.266-5.938 13.094-5.938 4.077 0 8.156 1.406 11.453 4.313 1.656 1.438 40.719 36.344 40.719 100.031 0.001 63.719-39.062 98.625-40.718 100.063z" />
<glyph unicode="&#xe004;" glyph-name="uniE004" d="M438.328 394.941h-363.656c-19.85 0-36-16.149-36-36v-312.547c0-19.851 16.15-36 36-36h363.656c19.851 0 36 16.149 36 36v312.547c0 19.851-16.149 36-36 36zM450.328 46.393c0-6.616-5.384-12-12-12h-363.656c-6.617 0-12 5.384-12 12v312.547c0 6.616 5.383 12 12 12h363.656c6.616 0 12-5.384 12-12v-312.547zM369.634 185.451l-189.327-94.19c-19.582-10.311-35.642-2.545-35.642 17.202l-0.157 193.089c0 19.75 16.559 27.515 36.142 17.206l188.984-97.715c19.601-10.31 19.601-25.279 0-35.591z" />
<glyph unicode="&#xe005;" glyph-name="uniE005" d="M460 130.667c0-13.25-10.735-24-24-24h-360c-13.266 0-24 10.75-24 24v144c0 13.25 10.734 24 24 24h360c13.265 0 24-10.75 24-24v-144z" />
<glyph unicode="&#xe006;" glyph-name="uniE006" d="M208.345 152.261c0-22.546-8.387-33.817-25.155-33.817-7.442 0-13.161 1.832-17.159 5.498-5.554 5.219-8.329 14.659-8.329 28.32v162.089h-40.314v-163.089c0-21.102 5.273-37.539 15.826-49.31 11.437-12.66 27.987-18.99 49.642-18.99 19.767 0 35.204 5.052 46.311 15.159 12.994 11.77 19.49 29.486 19.49 53.141v163.089h-40.314v-162.089zM269.981 281.532h46.811v-194.74h40.314v194.74h46.644v32.817h-133.769zM438.328 394.917h-363.656c-19.85 0-36-16.149-36-36v-312.5c0-19.851 16.15-36 36-36h363.656c19.851 0 36 16.149 36 36v312.5c0 19.851-16.149 36-36 36zM450.328 46.417c0-6.616-5.384-12-12-12h-363.656c-6.617 0-12 5.384-12 12v312.5c0 6.616 5.383 12 12 12h363.656c6.616 0 12-5.384 12-12v-312.5z" />
<glyph unicode="&#xe007;" glyph-name="uniE007" d="M320 317.073v-114.297l-160 102.891v-217.406l160 102.861v-98.049h32v224z" />
<glyph unicode="&#xe008;" glyph-name="uniE008" d="M384.656 114.98c0-24.125-11.765-24.125-20.344-24.125h-222.562c-10.813 0-29.094 5.078-29.094 24.125v160c0 7.14 0 23.875 29.094 23.875h50.906v48h-50.906c-46.828 0-77.094-28.219-77.094-71.875v-160c0-41.125 33.141-72.125 77.094-72.125h222.563c42.156 0 68.344 27.64 68.344 72.125v23.875h-48v-23.875zM459.625 290.417l-64.063 64.063-31.25-31.265 24.36-24.36h-70.922c-128 0-164.656-160-164.656-160s57.344 96 180.688 96h67.25l-36.719-36.719 31.25-31.25 93.781 93.813-29.719 29.719z" />
<glyph unicode="&#xe009;" glyph-name="uniE009" d="M323.503 171.291h-134.938c-16.688 0-22.906-17.063-13.938-31.031l65.031-103.875c9-14 23.75-15.406 32.75-1.375l65 105.938c9 14 2.75 30.344-13.906 30.344zM188.504 235.291h134.938c16.656 0 22.906 9.906 13.906 23.906l-65 99.5c-9 13.969-23.75 13.969-32.75 0l-65-99.5c-9-14-2.781-23.906 13.906-23.906z" />
<glyph unicode="&#xe00a;" glyph-name="uniE00A" d="M111.859 202.683l137.063-108.718v106.469l134.218-106.469v217.406l-134.219-106.438v106.438z" />
<glyph unicode="&#xe00b;" glyph-name="uniE00B" d="M449.476 378.667h-386.953c-32.328 0-58.523-26.203-58.523-58.524v-234.953c0-32.321 26.195-58.524 58.523-58.524h386.953c32.328 0 58.524 26.202 58.524 58.524v234.953c0 32.321-26.195 58.524-58.524 58.524zM263.383 122.619c-40.063 0-72.664 32.313-72.664 72.031h24c0-26.485 21.836-48.031 48.664-48.031 26.656 0 48.344 21.548 48.344 48.024s-21.406 48.024-47.727 48.024h-16.804l18.359-18.36-15.625-15.625-46.898 46.891 46.898 46.906 15.625-15.641-19.953-19.938v-0.234h18.398c39.555 0 71.726-32.313 71.726-72.024s-32.453-72.024-72.344-72.024z" />
<glyph unicode="&#xe00c;" glyph-name="uniE00C" d="M257.578 316.893h-36.797l-0.016 0.469 39.906 39.875-31.25 31.281-93.796-93.813 93.797-93.781 31.25 31.25-36.719 36.719h33.625c52.625 0 95.438-43.094 95.438-96.031 0-52.969-43.375-96.047-96.688-96.047-53.672 0-97.344 48.078-97.344 96.078h-48c0-80 65.219-144.078 145.344-144.078 79.781 0 144.688 64.61 144.688 144.047 0 79.406-64.359 144.031-143.438 144.031z" />
<glyph unicode="&#xe00d;" glyph-name="uniE00D" d="M192 88.261v114.297l160-102.891v217.406l-160-102.861v98.049h-32v-224z" />
<glyph unicode="&#xe00e;" glyph-name="uniE00E" d="M328.438 174.042c0 40-32.438 72.438-72.438 72.438s-72.438-32.438-72.438-72.438c0-29.531 17.75-54.844 43.063-66.125l-34.625-104.094h136.438l-39.875 105.844c23.563 11.969 39.875 36.156 39.875 64.375zM256 335.777c-89.156 0-161.719-72.563-161.719-161.75 0-45.86 20.156-89.985 55.281-120.985 3.281-2.938 7.406-4.375 11.5-4.375 4.813 0 9.594 2 13.031 5.906 6.375 7.188 5.688 18.188-1.531 24.531-28.031 24.781-43.469 58.5-43.469 94.922 0 70.015 56.938 126.969 126.906 126.969s126.907-56.953 126.907-126.969c0-34.203-13.469-66.297-37.938-90.36-6.844-6.75-6.938-17.75-0.219-24.594 6.75-6.844 17.781-6.938 24.594-0.219 31.188 30.688 48.375 71.563 48.375 115.172 0 89.188-72.563 161.75-161.719 161.75zM256 418.855c-135 0-244.844-109.828-244.844-244.813 0-69.844 30.188-136.594 82.813-183.188 3.313-2.906 7.438-4.375 11.531-4.375 4.813 0 9.594 2 13.031 5.875 6.344 7.188 5.688 18.188-1.5 24.563-45.156 39.969-71.061 97.25-71.061 157.125 0 115.813 94.219 210.031 210.031 210.031s210.031-94.219 210.031-210.031c0-56.469-22.125-109.438-62.313-149.219-6.844-6.781-6.906-17.781-0.156-24.594 6.75-6.844 17.781-6.875 24.594-0.156 46.875 46.375 72.688 108.156 72.688 173.969 0 134.985-109.844 244.813-244.844 244.813z" />
<glyph unicode="&#xe00f;" glyph-name="uniE00F" d="M449.485 378.667h-386.969c-32.313 0-58.516-26.203-58.516-58.524v-234.953c0-32.321 26.203-58.524 58.516-58.524h386.969c32.313 0 58.515 26.202 58.515 58.524v234.953c0 32.321-26.203 58.524-58.515 58.524zM220 135.652v134.030l104.219-67.015-104.219-67.015z" />
<glyph unicode="&#xe010;" glyph-name="uniE010" d="M163.031 322.221v-239.109l185.938 119.516z" />
<glyph unicode="&#xe011;" glyph-name="uniE011" d="M168 330.667h64v-256h-64v256zM280 330.667h64v-256h-64v256z" />
<glyph unicode="&#xe012;" glyph-name="uniE012" d="M301.763 103.441c0 16.69 6.978 32.24 20.973 46.697 12.682 14.24 28.626 23.205 47.968 26.906 15.344 2.761 27.988 2.105 37.979-1.843v133.453l-184.327-53.795v-183.974c0-16.685-6.698-31.99-20.267-45.983-13.605-14.452-29.756-23.56-48.659-27.243-17.764-4.747-33.725-2.479-47.949 6.729-13.142 9.212-19.663 22.037-19.663 38.475 0 15.979 6.52 31.281 19.662 45.988 12.879 13.99 28.839 23.166 47.949 27.666 14.668 2.267 27.651 1.662 38.974-1.878v218.335l245.278 66.127v-267.635c0-16.438-7.014-31.387-20.974-44.853-12.008-14.451-28.022-24.015-48.004-28.764-18.883-3.757-34.824-1.026-47.968 8.183-13.995 8.717-20.974 21.188-20.974 37.41z" />
<glyph unicode="&#xe013;" glyph-name="uniE013" d="M351.743 8.167h-255.305c-21.719 0-39.389 17.794-39.389 39.664v235.804c0 21.871 17.67 39.665 39.389 39.665h148.345l-42.502-40.319h-105.099v-234.496h253.813v96.267l40.135 42.271v-139.193c0-21.87-17.67-39.664-39.389-39.664zM195.137 173.422l165.094 165.093-63.512-1.377c-15.853 0.457-28.413 13.611-27.917 29.543 0.416 15.853 13.671 28.353 29.505 27.916l111.23 0.008c0 0 16.45 2.347 32.164-13.366 14.128-14.128 12.161-30.959 12.161-30.959l-0.2-110.416c0.317-15.873-12.302-28.968-28.175-29.246-15.893-0.299-28.99 12.362-29.245 28.175l1.193 55.655-161.014-161.014c-11.011-11.337-29.143-11.601-40.528-0.613-11.363 10.945-11.745 28.963-0.998 40.342l-0.008 0.008 0.251 0.25z" />
<glyph unicode="&#xe014;" glyph-name="uniE014" horiz-adv-x="780" d="M717 394.941h-668c-19.851 0-36-16.149-36-36v-312.547c0-19.851 16.149-36 36-36h668c19.85 0 36 16.149 36 36v312.547c0 19.851-16.15 36-36 36zM729 46.393c0-6.616-5.385-12-12-12h-668c-6.617 0-12 5.384-12 12v312.547c0 6.616 5.383 12 12 12h668c6.615 0 12-5.384 12-12v-312.547zM150.631 314.375v-179.681c0-15.736-4.987-28.035-14.959-36.901-10.085-8.976-23.936-13.464-41.554-13.464h-3.823c-6.207 0-11.635 0.223-16.29 0.664v36.070c1.106-0.112 2.826-0.278 5.153-0.498 6.427-0.445 12.521-0.057 18.284 1.163 8.644 1.771 12.965 9.031 12.965 21.774v170.872h40.225zM279.087 87.323h-106.878v227.053h103.553v-32.745h-62.996v-60.835h56.181v-32.745h-56.181v-67.983h66.321v-32.745zM425.858 281.631h-46.541v-194.308h-40.224v194.308h-46.707v32.745h133.473v-32.745zM561.325 87.323h-123.168v28.591l79.951 165.719h-74.134v32.745h117.35v-28.589l-80.284-165.72h80.284l0.001-32.745zM703.274 281.631h-46.541v-194.308h-40.225v194.308h-46.707v32.745h133.472v-32.745z" />
<glyph unicode="&#xe015;" glyph-name="uniE015" d="M114.438 208.499l60.875 89.406c9.969 14.594 6.188 34.5-8.438 44.438-14.563 10.031-34.5 6.156-44.438-8.438l-84.563-124.156 83.969-132.438c6.094-9.625 16.469-14.875 27.063-14.875 5.844 0 11.781 1.594 17.094 4.969 14.938 9.469 19.375 29.25 9.906 44.156l-61.469 96.938zM391.188 333.030c-9.438 14.906-29.156 19.375-44.156 9.906-14.938-9.469-19.375-29.219-9.906-44.156l61.438-96.938-60.875-89.438c-9.938-14.594-6.156-34.5 8.469-44.469 5.5-3.75 11.781-5.531 17.969-5.531 10.25 0 20.281 4.906 26.5 14l84.5 124.188-83.938 132.438zM224.156 330.468h64v-256h-64v256z" />
<glyph unicode="&#xe016;" glyph-name="uniE016" d="M194.75 222.975h-51.142v91.789h-40.314v-227.558h40.314v103.617h51.142v-103.617h40.314v227.558h-40.314zM384.493 107.364c4.552 6.551 7.772 12.161 9.662 16.825 3.108 7.439 4.664 16.601 4.664 27.487v93.122c0 49.419-21.88 74.132-65.635 74.132-20.323 0-36.094-5.164-47.31-15.493-13.66-12.551-20.49-32.096-20.49-58.638v-89.957c0-22.88 5.44-40.371 16.325-52.475 11.216-12.66 27.541-18.99 48.976-18.99 9.995 0 18.601 1.611 25.821 4.831 5.552-6.885 10.995-12.382 16.325-16.492 5.107-3.774 12.049-7.718 20.823-11.827l16.825 29.32c-9.885 4.106-18.548 10.16-25.987 18.157zM358.505 150.342c0-20.769-8.886-31.151-26.654-31.151-17.437 0-26.154 10.716-26.154 32.151v94.122c0 14.435 2.499 24.488 7.497 30.152 4.44 4.998 10.995 7.497 19.657 7.497 7.33 0 12.937-1.833 16.825-5.498 5.885-5.33 8.829-16.049 8.829-32.151v-95.122zM438.328 394.932h-363.656c-19.85 0-36-16.149-36-36v-312.531c0-19.851 16.15-36 36-36h363.656c19.851 0 36 16.149 36 36v312.531c0 19.851-16.149 36-36 36zM450.328 46.402c0-6.616-5.384-12-12-12h-363.656c-6.617 0-12 5.384-12 12v312.531c0 6.617 5.383 12 12 12h363.656c6.616 0 12-5.383 12-12v-312.531z" />
<glyph unicode="&#xe017;" glyph-name="uniE017" d="M412.828 394.941h-313.656c-19.85 0-36-16.149-36-36v-312.547c0-19.851 16.15-36 36-36h313.656c19.851 0 36 16.149 36 36v312.547c0 19.851-16.149 36-36 36zM424.828 46.393c0-6.616-5.384-12-12-12h-313.656c-6.616 0-12 5.384-12 12v312.547c0 6.616 5.384 12 12 12h313.656c6.616 0 12-5.384 12-12v-312.547zM226.337 122.517h43.522v-48.315h-43.522v48.315zM258.978 330.345c-43.644 0-65.466-18.874-65.466-56.614v-13.277h40.755v13.277c0 6.639 1.78 11.924 5.349 15.861 4.056 4.546 9.893 6.822 17.517 6.822 6.515 0 11.618-1.66 15.306-4.979 3.933-3.567 5.901-8.483 5.901-14.753v-8.298c0-6.393-2.029-12.909-6.086-19.547-3.567-5.902-8.238-12.604-14.015-20.101-10.82-14.383-18.256-26.002-22.314-34.853-5.411-12.050-8.113-24.158-8.113-36.329v-16.966h42.229v15.49c0 11.802 2.582 22.313 7.745 31.534 3.933 6.76 9.711 14.752 17.334 23.974 9.221 11.185 15.427 19.976 18.626 26.37 4.546 9.589 6.822 19.852 6.822 30.796v8.667c0 15.242-3.996 27.229-11.986 35.961-10.45 11.309-26.988 16.966-49.606 16.966z" />
<glyph unicode="&#xe018;" glyph-name="uniE018" d="M64 310.167h96v32h-128v-96h32zM96 246.167v-96c0-17.656 14.313-32 32-32h256c17.688 0 32 14.344 32 32v96c0 17.656-14.313 32-32 32h-256c-17.688 0-32-14.344-32-32zM450.531 342.167h-98.531v-32h96v-64h32v96zM448 86.167h-96v-32h128v96h-32zM64 150.167h-32v-96h128v32h-96z" />
<glyph unicode="&#xe019;" glyph-name="uniE019" d="M176 226.916h160v-48h-160v48zM468 362.667h-424c-15.469 0-28-12.531-28-27.985v-264.031c0-15.454 12.531-27.985 28-27.985h424c15.469 0 28 12.531 28 27.985v264.031c0 15.454-12.531 27.984-28 27.984zM445.046 109.049l-13.652-23.599-106.246 61.466h-138.293l-106.246-61.466-13.653 23.599 76.711 44.38v98.274l-76.711 44.584 13.653 23.599 106.246-61.466h138.291l106.246 61.466 13.654-23.599-76.144-44.052v-99.135l76.144-44.050z" />
<glyph unicode="&#xe01a;" glyph-name="uniE01A" d="M399.281 202.652l-137.062 108.719v-106.469l-134.219 106.469v-217.406l134.219 106.438v-106.438z" />
<glyph unicode="&#xe01b;" glyph-name="uniE01B" d="M222.75 138.667c0 0 11-10.56 33.252-10.56 24.748 0 36.561 10.56 36.561 10.56l90.063 85.125c12.813 12.125 13.406 32.406 1.25 45.219-12.156 12.938-32.406 13.406-45.25 1.281l-51.406-48.625v141h-64v-135.594l-44.656 43c-12.656 12.25-32.938 11.906-45.219-0.844-12.281-12.719-11.906-32.969 0.844-45.219l88.562-85.343zM127.219 106.667h256v-64h-256v64z" />
<glyph unicode="&#xe01c;" glyph-name="uniE01C" d="M440.265 410.027h-208.531c-30.734 0-55.734-25-55.734-55.735v-22.985h-24.266c-30.734 0-55.734-25-55.734-55.718v-24.281h-24.281c-30.719 0-55.719-25-55.719-55.735v-144.531c0-30.735 25-55.735 55.719-55.735h208.562c30.719 0 55.719 25 55.719 55.735v24.265h24.265c30.735 0 55.734 25 55.734 55.719v23h24.265c30.735 0 55.735 25 55.735 55.719v144.547c0 30.734-25 55.734-55.735 55.734zM288 51.042c0-4.265-3.469-7.735-7.719-7.735h-208.562c-4.25 0-7.719 3.469-7.719 7.735v144.531c0 4.265 3.469 7.734 7.719 7.734h208.546c2 0 3.797-0.813 5.172-2.063 0.094-0.094 0.219-0.125 0.297-0.203s0.11-0.203 0.203-0.297c1.25-1.375 2.063-3.172 2.063-5.172v-144.531zM368 131.027c0-4.25-3.469-7.719-7.735-7.719h-24.265v72.281c0 14.844-5.938 28.297-15.438 38.281-0.328 0.344-0.563 0.766-0.906 1.094-0.328 0.344-0.75 0.578-1.094 0.906-9.985 9.5-23.438 15.438-38.281 15.438h-136.281v24.281c0 4.25 3.469 7.719 7.734 7.719h24.266v-1.281h184.265c4.265 0 7.735-3.469 7.735-7.735v-143.265zM448 209.745c0-4.25-3.469-7.719-7.735-7.719h-24.265v73.563c0 30.719-25 55.719-55.735 55.719h-136.266v22.984c0 4.265 3.469 7.734 7.734 7.734h208.531c4.265 0 7.735-3.469 7.735-7.734v-144.547z" />
<glyph unicode="&#xe01d;" glyph-name="uniE01D" d="M401.008 91.209l-99.75 99.078 99.078 99.765c12.453 12.531 12.39 32.797-0.156 45.25-12.5 12.438-32.781 12.375-45.25-0.156l-99.079-99.766-99.766 99.078c-12.516 12.438-32.797 12.375-45.25-0.156s-12.391-32.797 0.156-45.25l99.766-99.078-99.078-99.766c-12.453-12.531-12.391-32.797 0.156-45.25 6.234-6.203 14.391-9.297 22.547-9.297 8.219 0 16.453 3.156 22.703 9.453l99.078 99.766 99.75-99.078c6.235-6.203 14.39-9.297 22.547-9.297 8.219 0 16.453 3.156 22.703 9.453 12.454 12.531 12.391 32.798-0.156 45.25z" />
<glyph unicode="&#xe01e;" glyph-name="uniE01E" d="M256 448.011c-135.281 0-245.313-110.063-245.313-245.344s110.031-245.344 245.313-245.344 245.313 110.063 245.313 245.344-110.031 245.344-245.313 245.344zM256 21.323c-99.969 0-181.313 81.344-181.313 181.344s81.344 181.344 181.313 181.344 181.313-81.344 181.313-181.344-81.344-181.344-181.313-181.344zM256 298.667c-17.688 0-32-14.328-32-32v-47.672l-81.25-58.797c-14.313-10.344-17.531-30.344-7.188-44.688 6.281-8.656 16.063-13.219 25.969-13.219 6.5 0 13.063 1.938 18.719 6.063l94.5 68.39c0.688 0.5 1 1.25 1.656 1.797 1.719 1.453 3.125 3.094 4.5 4.89 1.219 1.563 2.344 3.063 3.25 4.797 0.906 1.813 1.5 3.688 2.094 5.672 0.594 2.11 1.094 4.125 1.25 6.313 0.063 0.86 0.5 1.578 0.5 2.453v64c0 17.672-14.313 32-32 32z" />
<glyph unicode="&#xe01f;" glyph-name="uniE01F" d="M348.353 245.495l-34.125 31.313-85.454-84.281-28.969 27.828-36.156-29.25 65.125-62.578z" />
<glyph unicode="&#xe020;" glyph-name="uniE020" d="M160 234.667h32v-32h-32v32zM224 234.667h32v-32h-32v32zM423 330.667h-71v32c0 8.844-7.156 16-16 16s-16-7.156-16-16v-32h-160v32c0 8.844-7.156 16-16 16s-16-7.156-16-16v-32h-71.5c-13.75 0-24.5-10.781-24.5-24.5v-268.5c0-13.735 10.75-25 24.5-25h366.5c13.75 0 25 11.265 25 25v268.5c0 13.719-11.25 24.5-25 24.5zM416 42.667h-352v224l352 0.25v-224.5zM288 234.667h32v-32h-32v32zM352 234.667h32v-32h-32v32zM160 154.667v-16h32v32h-32zM96 154.667v-16h32v32h-32zM96 90.667v-16h32v32h-32zM224 154.667v-16h32v32h-32zM160 90.667v-16h32v32h-32zM224 90.667v-16h32v32h-32zM288 154.667v-16h32v32h-32zM352 154.667v-16h32v32h-32z" />
<glyph unicode="&#xe021;" glyph-name="uniE021" d="M449.485 378.667h-386.969c-32.313 0-58.516-26.203-58.516-58.524v-234.953c0-32.32 26.203-58.524 58.516-58.524h386.969c32.313 0 58.515 26.203 58.515 58.524v234.953c0 32.321-26.203 58.524-58.515 58.524z" />
<glyph unicode="&#xe022;" glyph-name="uniE022" d="M256 426.667l-128-128h-55.946c-21.188 0-40.054-16.769-40.054-37.956v-115.959c0-21.188 18.867-38.085 40.054-38.085h55.946l128-128zM335.125 322.746c-8.656 7.531-21.719 6.625-29.313-1.906-7.594-8.594-6.813-21.75 1.719-29.438 1.406-1.281 34.719-31.906 34.719-88.719s-33.313-87.438-34.625-88.625c-8.656-7.594-9.563-20.781-1.969-29.469 4.125-4.719 9.906-7.125 15.719-7.125 4.875 0 9.781 1.688 13.75 5.156 1.969 1.75 48.875 43.625 48.875 120.063s-46.906 118.314-48.875 120.064zM407.532 381.621c-8.688 7.531-21.75 6.656-29.375-1.938-7.594-8.625-6.75-21.781 1.813-29.438 2.375-2.125 58.281-52.938 58.281-147.563s-55.906-145.438-58.219-147.5c-8.656-7.594-9.563-20.781-1.969-29.469 4.125-4.719 9.906-7.125 15.719-7.125 4.875 0 9.781 1.688 13.75 5.156 2.938 2.594 72.469 64.688 72.469 178.938s-69.531 176.344-72.468 178.939z" />
<glyph unicode="&#xe023;" glyph-name="uniE023" d="M149.216 314.763l-47.144-227.558h39.981l10.494 56.639h46.478l10.494-56.639h41.314l-47.81 227.558h-53.808zM156.713 175.997l0.5 2.998 2.499 14.659 3.998 23.156 4.663 27.154 4.498 26.82 2.499 14.659c4.441-30.542 10.937-67.024 19.49-109.447h-38.148zM321.8 314.763h-52.975v-227.558h56.306c24.543 0 42.7 5.274 54.474 15.825 13.993 12.77 20.99 34.927 20.99 66.469v65.469c0 26.542-5.664 46.088-16.991 58.638-12.551 14.103-33.151 21.156-61.803 21.156zM360.281 168.167c0-14.884-1.166-25.322-3.498-31.318-4.443-11.219-15.216-16.825-32.318-16.825h-15.659v161.923h16.325c14.881 0 24.876-4.388 29.986-13.161 3.441-5.997 5.164-15.384 5.164-28.153v-72.465zM438.328 394.941h-363.656c-19.85 0-36-16.149-36-36v-312.547c0-19.851 16.15-36 36-36h363.656c19.851 0 36 16.149 36 36v312.547c0 19.851-16.149 36-36 36zM450.328 46.393c0-6.616-5.384-12-12-12h-363.656c-6.617 0-12 5.384-12 12v312.547c0 6.616 5.383 12 12 12h363.656c6.616 0 12-5.384 12-12v-312.547z" />
<glyph unicode="&#xe024;" glyph-name="uniE024" d="M442.536 55.616l-166.623 319.493c-11.166 24.694-29.396 24.671-40.512-0.048l-165.663-319.397c-11.115-24.719 0.547-44.946 25.918-44.946h321.053c25.37 0 36.993 20.204 25.827 44.898zM239.686 266.215h31.999v-160h-32v160zM255.685 37.199c-11.607 0-21.016 9.409-21.016 21.016s9.409 21.016 21.016 21.016 21.016-9.409 21.016-21.016-9.409-21.016-21.016-21.016z" />
<glyph unicode="&#xe025;" glyph-name="uniE025" d="M213.172 322.214l-31.313-34.125 84.281-85.469-82.219-83.344 29.25-36.156 116.969 119.5z" />
<glyph unicode="&#xe026;" glyph-name="uniE026" d="M298.828 322.214l31.313-34.125-84.281-85.469 82.219-83.344-29.25-36.156-116.969 119.5z" />
<glyph unicode="&#xe027;" glyph-name="uniE027" d="M427.435 89.415l-86.263 86.259c13.010 21.37 20.502 46.463 20.502 73.311 0 77.99-67.584 145.57-145.587 145.57-77.99 0-141.219-63.23-141.219-141.228s67.577-145.57 145.566-145.57c25.934 0 50.222 7.022 71.107 19.219l86.726-86.731c8.49-8.488 22.248-8.488 30.728 0l21.517 21.507c8.49 8.489 5.413 19.174-3.076 27.661zM118.327 253.326c0 54.002 43.773 97.775 97.76 97.775 54.009 0 102.124-48.116 102.124-102.118 0-54-43.774-97.774-97.777-97.774-53.992 0.001-102.107 48.116-102.107 102.118zM270.168 266.56h-103.77c-8.573 0-15.548-6.977-15.548-15.553 0-8.567 6.975-15.537 15.548-15.537h103.77c8.575 0 15.553 6.97 15.553 15.537 0 8.575-6.978 15.553-15.553 15.553z" />
<glyph unicode="&#xe028;" glyph-name="uniE028" d="M427.228 91.079l-86.017 86.013c12.972 21.31 20.442 46.332 20.442 73.103 0 77.769-67.39 145.156-145.173 145.156-77.767 0-140.817-63.050-140.817-140.826 0-77.774 67.385-145.155 145.151-145.155 25.862 0 50.080 7.002 70.904 19.165l86.48-86.486c8.466-8.464 22.184-8.464 30.642 0l21.456 21.447c8.464 8.464 5.396 19.118-3.070 27.582zM118.999 254.524c0 53.849 43.648 97.497 97.483 97.497 53.855 0 101.834-47.979 101.834-101.827 0-53.846-43.649-97.498-97.499-97.498-53.84 0.002-101.818 47.981-101.818 101.828zM218.667 324.105c-8.544 0-15.495-6.956-15.495-15.505v-40.88h-40.879c-8.549 0-15.505-6.957-15.505-15.509 0-8.543 6.955-15.494 15.505-15.494h40.879v-40.875c0-8.551 6.951-15.509 15.494-15.509 8.551 0 15.509 6.956 15.509 15.509v40.875h40.877c8.551 0 15.509 6.951 15.509 15.494 0 8.551-6.957 15.509-15.509 15.509h-40.876v40.88c0 8.55-6.957 15.505-15.508 15.505v0z" />
<glyph unicode="&#xe029;" glyph-name="uniE029" d="M446.591 315.047c-13.945-6.188-28.934-10.368-44.663-12.246 16.056 9.625 28.385 24.861 34.192 43.019-15.030-8.91-31.673-15.383-49.383-18.867-14.187 15.113-34.396 24.555-56.76 24.555-42.948 0-77.766-34.817-77.766-77.762 0-6.094 0.685-12.031 2.015-17.721-64.627 3.245-121.928 34.202-160.278 81.249-6.697-11.486-10.531-24.842-10.531-39.094 0-26.979 13.724-50.78 34.594-64.727-12.75 0.406-24.736 3.905-35.221 9.728-0.006-0.326-0.006-0.651-0.006-0.978 0-37.676 26.803-69.107 62.376-76.25-6.525-1.781-13.393-2.729-20.486-2.729-5.015 0-9.886 0.488-14.633 1.396 9.897-30.892 38.615-53.379 72.64-54.002-26.611-20.86-60.139-33.289-96.578-33.289-6.273 0-12.464 0.365-18.546 1.089 34.412-22.068 75.293-34.944 119.2-34.944 143.036 0 221.256 118.496 221.256 221.256 0 3.37-0.077 6.725-0.226 10.059 15.195 10.967 28.38 24.661 38.805 40.258z" />
<glyph unicode="&#xe02a;" glyph-name="uniE02A" d="M426.435 78.915l-86.263 86.259c13.010 21.37 20.502 46.463 20.502 73.311 0 77.99-67.584 145.57-145.587 145.57-77.99 0-141.219-63.23-141.219-141.228s67.577-145.57 145.566-145.57c25.934 0 50.222 7.022 71.107 19.219l86.726-86.731c8.49-8.488 22.248-8.488 30.728 0l21.517 21.507c8.49 8.489 5.413 19.174-3.076 27.661zM117.327 242.826c0 54.002 43.773 97.775 97.76 97.775 54.009 0 102.124-48.116 102.124-102.118 0-54-43.774-97.774-97.777-97.774-53.992 0.001-102.107 48.116-102.107 102.118z" />
<glyph unicode="&#xe02b;" glyph-name="uniE02B" d="M127.796 127.676h-25.685c-14.189 0-25.686-11.501-25.686-25.685s11.496-25.687 25.686-25.687h25.685c14.191 0 25.686 11.502 25.686 25.687s-11.496 25.685-25.686 25.685zM127.796 230.419h-25.685c-14.189 0-25.686-11.499-25.686-25.686 0-14.184 11.496-25.686 25.686-25.686h25.685c14.191 0 25.686 11.5 25.686 25.685 0 14.188-11.496 25.686-25.686 25.686zM127.796 333.162h-25.685c-14.189 0-25.686-11.498-25.686-25.685s11.496-25.687 25.686-25.687h25.685c14.191 0 25.686 11.5 25.686 25.687s-11.496 25.685-25.686 25.685zM230.54 281.791h179.802c14.188 0 25.685 11.5 25.685 25.686s-11.497 25.685-25.685 25.685h-179.802c-14.19 0-25.686-11.498-25.686-25.685s11.496-25.686 25.686-25.686zM410.341 230.419h-179.802c-14.19 0-25.686-11.499-25.686-25.686 0-14.184 11.496-25.686 25.686-25.686h179.802c14.188 0 25.685 11.5 25.685 25.685 0 14.188-11.497 25.686-25.685 25.686zM410.341 127.676h-179.802c-14.19 0-25.686-11.501-25.686-25.685s11.496-25.687 25.686-25.687h179.802c14.188 0 25.685 11.501 25.685 25.687 0 14.184-11.497 25.685-25.685 25.685z" />
<glyph unicode="&#xe02c;" glyph-name="uniE02C" d="M407.295 277.407h-32.735v128.020h-236.731v-128.020h-32.835c-30.975 0-56.117-25.141-56.117-56.166v-143.206h88.952v-44.224h236.731v44.224h88.95v143.206c0 31.025-25.14 56.166-56.215 56.166zM344.139 64.258h-175.94v58.252h175.94v-58.252zM344.139 234.566h-175.94v140.44h175.94v-140.44z" />
<glyph unicode="&#xe02d;" glyph-name="uniE02D" d="M74.25 364.626h363.5v-64.771h-363.5v64.771zM74.25 237.634h363.5v-64.76h-363.5v64.76zM74.25 111.141h363.5v-64.765h-363.5v64.765z" />
<glyph unicode="&#xe02e;" glyph-name="uniE02E" d="M243.964 394.181c-63.589 0-115.136-51.548-115.136-115.139 0-63.584 115.136-271.849 115.136-271.849s115.137 208.265 115.137 271.849c0 63.592-51.553 115.139-115.137 115.139zM243.964 244.060c-19.32 0-34.984 15.664-34.984 34.982 0 19.322 15.664 34.986 34.984 34.986s34.983-15.664 34.983-34.986c0-19.318-15.663-34.982-34.983-34.982z" />
<glyph unicode="&#xe02f;" glyph-name="uniE02F" horiz-adv-x="576" d="M540.078 394.932h-503.078c-19.851 0-36-16.149-36-36l-1-312.531c0-19.851 16.149-36 36-36h504.077c19.85 0 36 16.149 36 36v312.531c0 19.851-16.149 36-36 36zM552.078 46.402c0-6.615-5.384-12-12-12h-504.078c-6.617 0-12 5.385-12 12l1 312.531c0 6.617 5.383 12 12 12h503.077c6.616 0 12-5.383 12-12v-312.531zM98.016 315.208h-37.938v-227.63h106.025v33.060h-68.087zM183.219 315.208h40.802v-227.63h-40.802v227.63zM344.743 294.463l-6.070-34.733c-8.994-51.031-16.131-93.183-21.412-126.454l-3.541 21.921c-9.779 62.046-18.606 114.49-26.471 160.012h-40.802l43.836-227.63h53.616l45.524 227.63h-40.802l-3.878-20.745zM452.987 188.41h56.988v33.215h-56.988v61.709h63.901v31.873h-105.039v-227.63h108.413v31.874h-67.274z" />
<glyph unicode="&#xe030;" glyph-name="uniE030" d="M164.41 246.294v-62.008h83.575c-12.512-32.947-44.361-56.37-81.696-56.37-48.257 0-87.376 39.12-87.376 87.375 0 48.257 39.12 87.375 87.376 87.375 21.502 0 41.172-7.787 56.392-20.668l43.749 42.837c-26.4 24.151-61.541 38.899-100.139 38.899-81.984 0-148.444-66.459-148.444-148.444s66.46-148.444 148.444-148.444 148.444 66.461 148.444 148.444c0 10.633-1.128 21.006-3.252 31.005h-147.072zM434.053 241.598v51.674h-37.581v-51.674h-51.673v-37.582h51.673v-51.673h37.581v51.673h51.673v37.582h-51.673z" />
<glyph unicode="&#xe031;" glyph-name="uniE031" d="M255.518 381.849l43.577-125.328 132.635-2.694-105.738-80.164 38.44-126.996-108.915 75.782-108.914-75.782 38.413 126.996-105.711 80.164 132.635 2.693z" />
<glyph unicode="&#xe032;" glyph-name="uniE032" d="M216.963 54.783v144.587h-38.231v52.061h38.231c0 0 0 21.33 0 44.466 0 34.938 22.583 67.025 74.621 67.025 21.070 0 36.652-2.020 36.652-2.020l-1.229-48.611c0 0-15.889 0.151-33.228 0.151-18.765 0-21.772-8.646-21.772-23 0-11.345 0 24.186 0-38.011h56.492l-2.459-52.061h-54.034v-144.587h-55.044z" />
<glyph unicode="&#xe033;" glyph-name="uniE033" d="M351.743 8.167h-255.305c-21.719 0-39.389 17.794-39.389 39.664v235.804c0 21.871 17.67 39.665 39.389 39.665h148.345l-42.502-40.319h-105.099v-234.496h253.813v96.267l40.135 42.271v-139.193c0-21.87-17.67-39.664-39.389-39.664zM195.137 173.422l165.094 165.093-63.512-1.377c-15.853 0.457-28.413 13.611-27.917 29.543 0.416 15.853 13.671 28.353 29.505 27.916l111.23 0.008c0 0 16.45 2.347 32.164-13.366 14.128-14.128 12.161-30.959 12.161-30.959l-0.2-110.416c0.317-15.873-12.302-28.968-28.175-29.246-15.893-0.299-28.99 12.362-29.245 28.175l1.193 55.655-161.014-161.014c-11.011-11.337-29.143-11.601-40.528-0.613-11.363 10.945-11.745 28.963-0.998 40.342l-0.008 0.008 0.251 0.25z" />
<glyph unicode="&#xe034;" glyph-name="uniE034" d="M376.914 287.059l23.428 27.217c5.866 6.813 5.086 17.187-1.73 23.067l-41.086 35.372c-6.836 5.871-17.229 5.106-23.086-1.75l-23.618-27.446c-0.067-0.033-0.067-0.033-0.067-0.052l0.284 0.303 65.875-56.712zM361.433 269.188l-65.778 56.656-160.881-186.702 66.026-56.808 160.632 186.853zM114.969 42.837l58.371 26.558-46.98 40.414-17.752-61.472c-1.996-5.853 0.884-8.296 6.361-5.5z" />
<glyph unicode="&#xe035;" glyph-name="uniE035" d="M441.476 359.010h-373.233c-10.767 0-19.505-8.738-19.505-19.536v-248.070c0-10.798 8.739-19.567 19.505-19.567h373.235c10.814 0 19.584 8.769 19.584 19.567v248.070c-0.001 10.798-8.771 19.536-19.584 19.536zM412.796 319.905l-160.699-112.787-159.778 112.787h320.476zM87.826 110.942v162.837l152.194-106.859c3.558-2.746 7.819-4.12 12.048-4.12 4.213 0 8.442 1.373 11.985 4.089l157.921 110.635v-166.583h-334.147z" />
<glyph unicode="&#xe036;" glyph-name="uniE036" d="M420.846 409.917h-330c-30.25 0-55-24.75-55-55v-192.5c0-30.25 24.75-55 55-55h110l110-82.5v82.5h110c30.25 0 55 24.75 55 55v192.5c0 30.25-24.75 55-55 55z" />
<glyph unicode="&#xe037;" glyph-name="uniE037" d="M97.039 323.791h317.302c14.188 0 25.685 11.5 25.685 25.686s-11.497 25.685-25.685 25.685h-317.302c-14.189 0-25.686-11.498-25.686-25.685s11.496-25.686 25.686-25.686zM414.341 278.919h-317.302c-14.189 0-25.686-11.499-25.686-25.686 0-14.185 11.496-25.686 25.686-25.686h317.302c14.188 0 25.685 11.5 25.685 25.686 0 14.188-11.497 25.686-25.685 25.686zM301.065 85.676h-204.025c-14.189 0-25.686-11.501-25.686-25.684 0-14.185 11.496-25.687 25.686-25.687h204.025c14.188 0 25.685 11.501 25.685 25.687 0 14.183-11.497 25.684-25.685 25.684zM97.039 130.291h317.026c14.188 0 25.685 11.5 25.685 25.687s-11.497 25.685-25.685 25.685h-317.026c-14.189 0-25.686-11.498-25.686-25.685s11.496-25.687 25.686-25.687z" />
<glyph unicode="&#xe038;" glyph-name="uniE038" d="M135.736 181.018c8.392 8.596 96.673 92.683 96.673 92.683 4.479 4.592 10.345 6.884 16.22 6.884s11.745-2.292 16.22-6.884c0 0 88.281-84.086 96.673-92.683 8.392-8.603 8.962-24.077 0-33.267-8.95-9.176-21.45-9.908-32.437 0.008l-80.457 77.137-80.452-77.137c-10.989-9.916-23.486-9.183-32.44-0.008-8.963 9.191-8.392 24.664 0 33.267z" />
<glyph unicode="&#xe039;" glyph-name="uniE039" d="M361.522 240.16c-8.392-8.596-96.673-92.683-96.673-92.683-4.479-4.592-10.346-6.884-16.22-6.884-5.875 0-11.745 2.292-16.22 6.884 0 0-88.281 84.086-96.673 92.683-8.392 8.603-8.962 24.077 0 33.267 8.95 9.176 21.451 9.908 32.436-0.008l80.457-77.137 80.453 77.137c10.99 9.916 23.486 9.183 32.44 0.008 8.962-9.191 8.392-24.664 0-33.268z" />
<glyph unicode="&#xe03a;" glyph-name="uniE03A" d="M135.736 148.018c8.392 8.596 96.673 92.683 96.673 92.683 4.479 4.592 10.345 6.884 16.22 6.884s11.745-2.292 16.22-6.884c0 0 88.281-84.086 96.673-92.683 8.392-8.603 8.962-24.077 0-33.267-8.95-9.176-21.45-9.908-32.437 0.008l-80.457 77.137-80.452-77.137c-10.989-9.916-23.486-9.183-32.44-0.008-8.963 9.191-8.392 24.664 0 33.267zM355.242 310.853h-212.709c-6.202 0-15.362-9.111-15.362-20.398 0-11.239 9.159-20.35 15.362-20.35h212.709c6.168 0 15.368 9.111 15.368 20.352 0 11.285-9.2 20.396-15.368 20.396z" />
<glyph unicode="&#xe03b;" glyph-name="uniE03B" d="M80.903 274.018c69.585-196.442 234.754-236.144 260.075-238.026 60.716-6.431 99.758 31.609 107.382 89.175 0 0-61.389 39.041-92.016 45.453l-48.415-48.414c0 0-26.054-1.137-83.104 55.91-57.045 57.049-55.909 83.105-55.909 83.105l41.677 41.678c-6.964 42.236-31.411 109.018-79.222 93.588-47.12-14.831-64.528-81.268-50.468-122.469z" />
<glyph unicode="&#xe03c;" glyph-name="uniE03C" d="M401.658 207.105c0 7.947-0.798 15.695-2.040 23.298l31.567 25.483c-8.378 30.315-24.251 57.505-45.71 79.308l-37.751-14.586c-12.038 9.819-25.738 17.677-40.501 23.276l-6.296 40.014c-14.642 3.779-29.918 6.005-45.755 6.005-15.851 0-31.136-2.227-45.777-6.005l-6.274-40.015c-14.775-5.598-28.464-13.457-40.512-23.275l-37.809 14.553c-21.413-21.793-37.275-48.96-45.656-79.274l31.569-25.483c-1.231-7.603-2.039-15.351-2.039-23.298 0-7.97 0.82-15.729 2.039-23.31l-31.569-25.494c8.392-30.283 24.253-57.481 45.688-79.275l37.785 14.543c12.038-9.798 25.727-17.646 40.502-23.276l6.274-39.993c14.642-3.79 29.926-6.007 45.777-6.007 15.838 0 31.113 2.217 45.755 6.007l6.296 39.993c14.764 5.63 28.463 13.478 40.502 23.276l37.751-14.543c21.459 21.793 37.331 48.992 45.71 79.275l-31.565 25.495c1.24 7.58 2.038 15.339 2.038 23.31zM255.17 131.388c-41.821 0-75.715 33.917-75.715 75.716 0 41.808 33.894 75.694 75.716 75.694 41.81 0 75.683-33.886 75.683-75.694 0-41.799-33.873-75.716-75.683-75.716z" />
<glyph unicode="&#xe03d;" glyph-name="uniE03D" d="M494.195 78.891l-11.875 24.968h-351.118c-43.090 0-78.023 34.94-78.023 78.024 0 43.089 34.933 78.023 78.023 78.023 21.542 0 41.048-8.735 55.172-22.853 6.662 6.657 12.79 12.788 17.653 17.654-18.635 18.64-44.382 30.168-72.824 30.168-56.877 0-102.991-46.115-102.991-102.99 0-56.873 46.115-102.993 102.991-102.993h362.993zM371.178 120.377l-11.849 24.906 106.088 0.061 11.873-24.968zM410.661 224.983c-9.779 69.771-69.674 123.461-142.137 123.461-45.37 0-85.74-21.091-112.049-53.946 8.887-1.988 17.353-5.035 25.332-8.942 21.628 23.291 52.416 37.921 86.718 37.921 65.502 0 118.596-53.093 118.596-118.59 0-0.355-0.049-0.695-0.049-1.048 0.012 0 0.037 0.012 0.049 0.012 24.929 0 45.509-18.299 49.251-42.182h25.193c-3.067 29.699-23.449 54.225-50.904 63.316z" />
<glyph unicode="&#xe03e;" glyph-name="uniE03E" d="M255.828 321.903c-65.906 0-119.343-53.434-119.343-119.343s53.435-119.337 119.343-119.337c65.908 0 119.337 53.428 119.337 119.337s-53.427 119.343-119.337 119.343zM255.827 111.302c-50.401 0-91.261 40.863-91.261 91.258 0 50.401 40.861 91.262 91.261 91.262 50.403 0 91.259-40.861 91.259-91.262 0-50.396-40.856-91.258-91.259-91.258zM338.641 365.807l-25.941 10.753-19.098-46.125c9.080-2.687 17.793-6.24 25.958-10.687l19.081 46.059zM218.055 330.435l-19.098 46.125-25.942-10.753 19.077-46.059c8.165 4.447 16.877 8 25.963 10.687zM429.823 259.443l-10.741 25.941-46.065-19.087c4.452-8.164 8.005-16.877 10.677-25.969l46.13 19.114zM81.829 259.444l46.131-19.114c2.675 9.091 6.235 17.804 10.681 25.969l-46.072 19.087-10.74-25.941zM293.601 74.686l19.099-46.12 25.942 10.747-19.082 46.065c-8.166-4.452-16.877-8-25.959-10.692zM373.015 138.829l46.065-19.087 10.741 25.941-46.13 19.115c-2.671-9.091-6.223-17.804-10.676-25.969zM127.96 164.798l-46.131-19.115 10.74-25.941 46.070 19.087c-4.457 8.164-8.005 16.877-10.68 25.969zM173.015 39.314l25.942-10.747 19.098 46.12c-9.085 2.692-17.798 6.24-25.963 10.692l-19.077-46.065z" />
<glyph unicode="&#xe03f;" glyph-name="uniE03F" d="M284.333 371.433l19.204 46.345-26.101 10.817-19.233-46.412c9.149-2.708 17.911-6.28 26.129-10.749zM182.196 382.182l-19.232 46.412-26.108-10.817 19.205-46.345c8.218 4.469 16.986 8.041 26.134 10.749zM348.876 291.506l46.411 19.238-10.817 26.101-46.351-19.204c4.476-8.214 8.054-16.987 10.757-26.135zM102.28 317.641l-46.351 19.204-10.816-26.101 46.411-19.238c2.703 9.149 6.276 17.922 10.756 26.135zM91.525 215.504l-46.413-19.231 10.817-26.101 46.351 19.204c-4.481 8.223-8.054 16.981-10.755 26.129zM220.197 345.343c48.96 0 88.861-38.353 91.568-86.631 9.792-0.011 19.276-1.228 28.424-3.325-1.012 65.451-54.31 118.214-119.992 118.214-66.32 0-120.085-53.77-120.085-120.091 0-31.869 12.494-60.745 32.745-82.25 5.658 7.601 12.389 14.322 20.018 19.947-15.159 16.375-24.505 38.215-24.505 62.302 0 50.716 41.112 91.833 91.827 91.833zM417.921 171.288c-16.094 42.79-57.277 73.3-105.703 73.3-33.010 0-62.666-14.201-83.329-36.768 10.338-2.153 20.008-6.044 28.814-11.246 14.697 12.319 33.597 19.755 54.278 19.755 41.822 0 76.471-30.296 83.417-70.123 0.456 0.011 0.897 0.067 1.353 0.067 23.404 0 42.382-18.968 42.382-42.383s-18.978-42.383-42.382-42.383h-35.172l-7.447-28.258h42.619c39.008 0 70.637 31.622 70.637 70.641 0.001 31.638-20.795 58.399-49.466 67.399zM248.561 61.506h-39.448c-29.261 0-52.978 23.718-52.978 52.978h0.237c0 29.266 23.723 52.978 52.978 52.978 14.63 0 27.873-5.928 37.462-15.522l19.98 19.981c-14.702 14.707-35.007 23.8-57.442 23.8-44.86 0-81.238-36.365-81.238-81.237 0-44.865 36.377-81.238 81.238-81.238h31.76l7.452 28.26zM266.538 76.076l-26.201-99.34h28.254l27.455 104.113zM325.626 85.84l-28.77-109.105h28.253l30.058 113.976z" />
<glyph unicode="&#xe040;" glyph-name="uniE040" d="M284.111 370.056l19.049 45.991-25.897 10.718-19.076-46.046c9.075-2.666 17.773-6.212 25.923-10.663zM182.786 380.72l-19.082 46.046-25.89-10.718 19.049-45.991c8.149 4.451 16.847 7.998 25.922 10.663zM348.139 290.781l46.039 19.076-10.728 25.897-45.986-19.049c4.445-8.145 7.986-16.849 10.674-25.923zM103.505 316.705l-45.98 19.049-10.729-25.897 46.040-19.076c2.682 9.075 6.228 17.779 10.668 25.923zM92.837 215.38l-46.040-19.081 10.729-25.891 45.98 19.050c-4.44 8.155-7.987 16.847-10.668 25.923zM220.484 344.182c48.569 0 88.15-38.048 90.843-85.938 9.711-0.010 19.12-1.215 28.195-3.295-1.008 64.929-53.878 117.258-119.037 117.258-65.788 0-119.125-53.33-119.125-119.12 0-31.616 12.392-60.266 32.487-81.603 5.611 7.543 12.288 14.21 19.859 19.793-15.042 16.246-24.315 37.911-24.315 61.81 0 50.31 40.785 91.094 91.093 91.094zM416.636 171.513c-15.972 42.454-56.827 72.719-104.866 72.719-32.738 0-62.166-14.084-82.654-36.477 10.252-2.135 19.848-5.994 28.579-11.156 14.577 12.213 33.324 19.602 53.84 19.602 41.486 0 75.866-30.068 82.752-69.572 0.449 0.016 0.887 0.072 1.341 0.072 23.224 0 42.044-18.835 42.044-42.044 0-23.231-18.819-42.050-42.044-42.050h-47.508l-19.273-28.026h66.78c38.705 0 70.075 31.365 70.075 70.076 0.002 31.381-20.624 57.935-49.066 66.856zM248.264 62.607h-38.776c-29.029 0-52.553 23.531-52.553 52.56h0.229c0 29.016 23.543 52.559 52.56 52.559 14.522 0 27.659-5.889 37.172-15.398l19.82 19.815c-14.594 14.594-34.737 23.608-56.993 23.608-44.496 0-80.591-36.089-80.591-80.585 0-44.507 36.094-80.585 80.591-80.585h29.169l9.37 28.026zM337.311 132.753l-56.38-9.294-25.661-76.698 43.21 8.074-25.36-76.25 82.637 126.209-42.263-8.255z" />
<glyph unicode="&#xe041;" glyph-name="uniE041" d="M441.983 170.724c-10.988 78.389-78.279 138.713-159.693 138.713-50.968 0-96.325-23.7-125.886-60.614 9.987-2.233 19.497-5.653 28.466-10.036 24.297 26.156 58.886 42.6 97.42 42.6 73.594 0 133.246-59.646 133.246-133.241 0-0.399-0.055-0.772-0.055-1.171 0.010 0 0.038 0 0.055 0 30.978 0 56.1-25.117 56.1-56.101s-25.123-56.1-56.1-56.1l-287.522-0.127c-48.411 0-87.657 39.24-87.657 87.657 0 48.406 39.246 87.657 87.657 87.657 24.203 0 46.114-9.818 61.983-25.681 7.486 7.487 14.369 14.37 19.83 19.837-20.93 20.941-49.862 33.895-81.814 33.895-63.903 0-115.714-51.811-115.714-115.708 0-63.909 51.811-115.708 115.714-115.708l287.522 0.12c46.469 0 84.15 37.681 84.15 84.156 0 37.228-24.203 68.758-57.704 79.85zM269.404 388.34l-25.916 10.736-19.082-46.075c9.073-2.681 17.785-6.233 25.931-10.676l19.066 46.015zM148.94 353.001l-19.087 46.075-25.91-10.736 19.065-46.015c8.153 4.443 16.854 7.994 25.932 10.676zM23.59 307.992l-10.73-25.91 46.075-19.097c2.676 9.084 6.233 17.789 10.671 25.943l-46.015 19.064zM68.123 237.768c9.57 5.056 19.864 8.876 30.671 11.421 10.517 38.721 45.819 67.236 87.882 67.236 12.625 0 24.648-2.566 35.58-7.212 12.225 4.547 25.113 7.71 38.474 9.368-20.351 16.17-46.053 25.894-74.055 25.894-61.616 0-112.299-46.749-118.553-106.707z" />
<glyph unicode="&#xe042;" glyph-name="uniE042" d="M416.296 143.685c-15.969 42.452-56.822 72.707-104.863 72.707-32.74 0-62.159-14.085-82.654-36.469 10.248-2.135 19.844-5.994 28.581-11.156 14.577 12.214 33.325 19.603 53.844 19.603 41.483 0 75.855-30.070 82.747-69.571 0.454 0.015 0.892 0.072 1.341 0.072 23.222 0 42.047-18.837 42.047-42.048 0-23.226-18.825-42.041-42.047-42.041h-186.132c-29.029 0-52.557 23.522-52.557 52.552h0.23c0 29.019 23.533 52.557 52.557 52.557 14.518 0 27.655-5.884 37.164-15.399l19.822 19.822c-14.583 14.588-34.733 23.604-56.986 23.604-44.5 0-80.585-36.091-80.585-80.585 0-44.505 36.085-80.585 80.585-80.585h185.901c38.698 0 70.075 31.372 70.075 70.074 0 31.384-20.632 57.933-49.070 66.862zM283.777 342.216l19.045 45.983-25.898 10.729-19.067-46.044c9.071-2.682 17.769-6.229 25.92-10.668zM182.445 352.885l-19.061 46.043-25.898-10.729 19.044-45.983c8.151 4.44 16.849 7.987 25.915 10.668zM347.791 262.94l46.050 19.077-10.724 25.892-45.983-19.050c4.445-8.15 7.993-16.849 10.658-25.919zM103.174 288.859l-45.983 19.050-10.724-25.893 46.049-19.078c2.666 9.070 6.219 17.769 10.658 25.92zM92.516 187.549l-46.048-19.082 10.724-25.893 45.983 19.051c-4.445 8.144-7.992 16.848-10.659 25.925zM220.15 316.334c48.578 0 88.151-38.040 90.838-85.934 9.706-0.011 19.122-1.214 28.198-3.296-1.012 64.923-53.872 117.262-119.036 117.262-65.788 0-119.123-53.34-119.123-119.129 0-31.602 12.399-60.259 32.484-81.581 5.606 7.538 12.29 14.205 19.855 19.772-15.043 16.264-24.311 37.92-24.311 61.809 0 50.314 40.787 91.095 91.095 91.095z" />
<glyph unicode="&#xe043;" glyph-name="uniE043" d="M373.716 176.599l-36.26-15.024 15.012 36.255-12.981 5.385-15.018-36.26-15.029 36.261-12.982-5.385 15.029-36.255-36.265 15.024-5.375-12.981 36.261-15.029-36.266-15.012 5.38-12.987 36.265 15.029-15.029-36.26 12.982-5.379 15.029 36.26 15.018-36.26 12.981 5.379-15.012 36.26 36.26-15.029 5.38 12.987-36.267 15.012 36.267 15.029zM264.458 106.329l-36.266-15.012 15.030 36.26-12.982 5.379-15.029-36.26-15.018 36.26-12.982-5.379 15.012-36.26-36.26 15.012-5.38-12.981 36.272-15.012-36.272-15.029 5.38-12.986 36.26 15.029-15.012-36.26 12.982-5.38 15.018 36.26 15.029-36.26 12.982 5.38-15.030 36.26 36.266-15.029 5.375 12.986-36.26 15.029 36.271 15.012zM442.351 242.786c-11.005 78.552-78.438 139.003-160.015 139.003-51.075 0-96.524-23.757-126.142-60.747 10.006-2.24 19.535-5.67 28.52-10.061 24.35 26.215 59.007 42.698 97.622 42.698 73.745 0 133.514-59.769 133.514-133.513 0-0.401-0.055-0.785-0.055-1.18 0.010 0 0.038 0 0.055 0 31.046 0 56.213-25.162 56.213-56.202 0-31.046-25.167-56.219-56.213-56.219h-25.035v-28.11h25.035c46.568 0 84.322 37.759 84.322 84.327 0 37.304-24.25 68.888-57.822 80.003zM127.745 106.439c-48.511 0-87.84 39.323-87.84 87.824 0 48.517 39.328 87.841 87.84 87.841 24.251 0 46.212-9.831 62.108-25.733 7.504 7.51 14.398 14.403 19.876 19.882-20.979 20.978-49.966 33.96-81.984 33.96-64.034 0-115.944-51.91-115.944-115.95 0-64.024 51.909-115.927 115.944-115.927h17.125v28.103h-17.125z" />
<glyph unicode="&#xe044;" glyph-name="uniE044" d="M423.772 242.658c-10.993 78.438-78.301 138.789-159.767 138.789-50.995 0-96.382-23.718-125.939-60.652 9.991-2.236 19.499-5.658 28.477-10.046 24.292 26.177 58.91 42.632 97.461 42.632 73.629 0 133.306-59.677 133.306-133.305 0-0.394-0.055-0.778-0.055-1.178 0.027 0 0.038 0 0.065 0 28.012 0 51.161-20.557 55.35-47.403h28.324c-3.44 33.386-26.363 60.943-57.224 71.163zM428.515 125.085l-13.321 27.995 70.134 0.055 13.349-28.050zM355.281 176.568l-36.205-14.993 14.992 36.207-12.96 5.374-14.993-36.207-15.007 36.207-12.96-5.374 15.003-36.207-36.207 14.993-5.368-12.966 36.201-14.991-36.201-15.003 5.368-12.966 36.207 15.009-15.003-36.206 12.96-5.373 15.007 36.206 14.993-36.206 12.96 5.373-14.992 36.206 36.205-15.009 5.373 12.966-36.205 15.003 36.206 14.991zM246.202 106.407l-36.217-14.993 15.008 36.207-12.964 5.368-15.003-36.201-14.992 36.201-12.965-5.368 14.991-36.207-36.206 14.993-5.368-12.966 36.212-14.993-36.212-15.002 5.368-12.965 36.206 15.009-14.991-36.207 12.965-5.373 14.992 36.206 15.003-36.206 12.964 5.373-15.008 36.207 36.217-15.009 5.357 12.965-36.201 15.002 36.217 14.993zM109.692 106.516c-48.438 0-87.7 39.262-87.7 87.7 0 48.432 39.263 87.706 87.7 87.706 24.216 0 46.137-9.827 62.016-25.695 7.488 7.493 14.373 14.373 19.84 19.84-20.946 20.957-49.884 33.916-81.856 33.916-63.934 0-115.766-51.839-115.766-115.767 0-63.938 51.834-115.767 115.766-115.767h17.101v28.067h-17.101zM504.336 106.516h-131.981v-27.968l145.329-0.099z" />
<glyph unicode="&#xe045;" glyph-name="uniE045" d="M168.058 122.476l-26.084-98.899h28.126l27.338 99.147zM226.886 132.198l-28.645-108.621h28.129l29.919 108.469zM285.692 141.893l-31.2-118.316h28.128l32.479 119.163zM344.608 151.605l-33.855-128.385h28.128l35.135 128.732zM149.393 106.318l-21.483-0.010c-48.546 0-87.902 39.362-87.902 87.902 0 48.555 39.356 87.906 87.902 87.906 24.269 0 46.248-9.838 62.159-25.749 7.507 7.508 14.409 14.416 19.888 19.895-20.994 20.995-50.001 33.981-82.049 33.981-64.082 0-116.034-51.948-116.034-116.034 0-64.072 51.953-116.035 116.034-116.035l14.064 0.016 7.422 28.127zM442.76 242.77c-11.019 78.615-78.499 139.101-160.14 139.101-51.112 0-96.594-23.769-126.236-60.784 10.013-2.238 19.549-5.671 28.54-10.074 24.363 26.238 59.053 42.731 97.696 42.731 73.8 0 133.617-59.817 133.617-133.617 0-0.395-0.055-0.78-0.055-1.181 0.010 0 0.038 0.006 0.055 0.006 31.068 0 56.257-25.182 56.257-56.251s-25.188-56.267-56.257-56.267l-41.781-0.015-7.42-28.134 49.2 0.022c46.606 0 84.389 37.796 84.389 84.395 0.002 37.332-24.269 68.944-57.865 80.067z" />
<glyph unicode="&#xe046;" glyph-name="uniE046" d="M424.889 242.874c-11.047 78.834-78.707 139.498-160.584 139.498-51.261 0-96.879-23.838-126.591-60.96 10.046-2.245 19.601-5.688 28.624-10.101 24.421 26.313 59.216 42.85 97.968 42.85 73.998 0 133.99-59.987 133.99-133.991 0-0.395-0.055-0.78-0.060-1.183 0.028 0 0.038 0 0.067 0 28.161 0 51.421-20.662 55.635-47.648h28.469c-3.455 33.552-26.495 61.257-57.517 71.534zM149.409 122.18l-26.148-99.173h28.206l27.406 98.937zM208.405 131.934l-28.722-108.926h28.209l30.006 109.29zM267.379 141.655l-31.286-118.648h28.211l32.567 118.51zM326.464 151.398l-33.949-128.748h28.206l35.235 128.106zM109.155 310.485c32.113 0 61.197-13.015 82.251-34.052 0.012 0.011 0.023 0.016 0.028 0.027-21.058 21.053-50.15 34.081-82.278 34.081-64.26 0-116.365-52.093-116.365-116.365 0-0.010 0-0.010 0-0.027 0.022 64.255 52.114 116.335 116.365 116.335zM109.155 77.818c-64.249 0-116.343 52.075-116.365 116.332 0-0.011 0-0.011 0-0.027 0-64.257 52.103-116.36 116.365-116.36l14.106 0.010 0.011 0.055-14.117-0.010zM109.155 282.33c-48.687 0-88.153-39.462-88.153-88.155 0-0.010 0-0.010 0-0.027 0.022 48.676 39.483 88.125 88.153 88.125 24.344 0 46.382-9.864 62.336-25.818 7.526 7.527 14.447 14.452 19.941 19.948-0.006 0.016-0.015 0.016-0.028 0.027-5.495-5.496-12.394-12.405-19.914-19.92-15.954 15.955-37.993 25.819-62.336 25.819zM109.155 77.818l14.117 0.011 7.433 28.156-21.55-0.017c-48.687 0-88.153 39.478-88.153 88.155 0 0.015 0 0.015 0 0.027 0 0.017 0 0.017 0 0.027 0 48.693 39.467 88.155 88.153 88.155 24.344 0 46.382-9.864 62.336-25.818 7.52 7.515 14.419 14.424 19.914 19.921-21.053 21.037-50.138 34.053-82.251 34.053-64.249 0-116.343-52.082-116.365-116.338 0.024-64.257 52.116-116.333 116.366-116.333zM348.97 77.927l7.41 28.096h149.483l13.418-28.206zM428.152 124.689l-11.89 28.139 70.494 0.055 13.418-28.195z" />
<glyph unicode="&#xe047;" glyph-name="uniE047" d="M375.968 262.964c-16.063 42.719-57.175 73.167-105.509 73.167-32.948 0-62.548-14.165-83.176-36.697 10.317-2.147 19.973-6.039 28.763-11.231 14.666 12.292 33.531 19.719 54.174 19.719 41.745 0 76.327-30.245 83.264-69.996 0.45 0.011 0.892 0.067 1.348 0.067 23.364 0 42.306-18.944 42.306-42.302 0-23.374-18.943-42.305-42.307-42.305h-35.106l-7.431-28.208h42.536c38.938 0 70.51 31.566 70.51 70.512 0.001 31.577-20.759 58.293-49.374 67.272zM206.914 153.386h-39.371c-29.204 0-52.882 23.673-52.882 52.882h0.237c0 29.198 23.677 52.882 52.881 52.882 14.605 0 27.823-5.923 37.396-15.49l19.939 19.945c-14.671 14.677-34.941 23.749-57.335 23.749-44.778 0-81.082-36.305-81.082-81.083 0-44.784 36.305-81.089 81.082-81.089h31.703l7.431 28.205zM224.861 167.936l-26.148-99.162h28.202l27.404 99.413zM283.842 177.674l-28.721-108.901h28.207l29.998 108.767z" />
<glyph unicode="&#xe048;" glyph-name="uniE048" d="M168.782 103.605l-41.149-0.012c-48.654 0-88.099 39.452-88.099 88.094 0 48.664 39.447 88.105 88.099 88.105 24.327 0 46.352-9.856 62.295-25.81 7.521 7.527 14.438 14.449 19.931 19.942-21.047 21.036-50.119 34.057-82.227 34.057-64.223 0-116.293-52.060-116.293-116.293 0-64.212 52.071-116.288 116.293-116.288h31.711l9.439 28.206zM443.167 240.352c-11.037 78.793-78.655 139.417-160.486 139.417-51.225 0-96.818-23.832-126.506-60.927 10.031-2.247 19.585-5.686 28.601-10.093 24.409 26.293 59.179 42.824 97.907 42.824 73.958 0 133.907-59.949 133.907-133.907 0-0.4-0.055-0.785-0.055-1.186 0.027 0 0.038 0 0.065 0 31.139 0 56.372-25.233 56.372-56.366 0-31.139-25.233-56.4-56.372-56.4l-66.058 0.456-18.999-29.084 85.055 0.44c46.709 0 84.561 37.88 84.561 84.589 0 37.414-24.322 69.091-57.993 80.238zM311.188 236.122l-76.815-12.664-34.958-104.504 58.871 11.010-34.555-103.899 112.59 171.957-57.58-11.245z" />
<glyph unicode="&#xe049;" glyph-name="uniE049" d="M108.599 74.626c-64.379 0-116.582 52.207-116.582 116.588 0 64.39 52.203 116.582 116.582 116.582 32.196 0 61.339-13.047 82.443-34.139-5.507-5.507-12.447-12.447-19.987-19.991-15.988 15.988-38.066 25.873-62.457 25.873-48.773 0-88.319-39.542-88.319-88.325 0-48.772 39.547-88.325 88.319-88.325l41.254 0.017-9.462-28.279-31.793-0.055c-64.379 0-116.582 52.207-116.582 116.582 0 0.017 0 0.033 0 0.033 0.018-64.368 52.209-116.56 116.583-116.56zM292.622 235.761l-77.002-12.695-35.053-104.774 59.015 11.036-34.64-104.163 112.875 172.392-57.727-11.274zM424.938 240.007c-11.069 78.984-78.858 139.756-160.899 139.756-51.349 0-97.053-23.88-126.825-61.070 10.061-2.252 19.644-5.7 28.676-10.122 24.474 26.363 59.334 42.928 98.149 42.928 74.149 0 134.249-60.094 134.249-134.244 0-0.402-0.055-0.787-0.055-1.19 0.028 0 0.038 0.006 0.067 0.006 28.208 0 51.519-20.707 55.738-47.742h28.527c-3.465 33.622-26.551 61.379-57.628 71.678zM108.599 307.74c32.184 0 61.312-13.041 82.416-34.112 0.006 0.006 0.011 0.016 0.028 0.028-21.104 21.092-50.248 34.139-82.443 34.139-64.379 0-116.582-52.192-116.582-116.582 0 0 0-0.016 0-0.028 0.016 64.38 52.208 116.555 116.582 116.555zM108.599 279.537c-48.773 0-88.319-39.542-88.319-88.325 0 0 0-0.016 0-0.028 0.017 48.772 39.558 88.291 88.319 88.291 24.392 0 46.47-9.88 62.458-25.866 7.539 7.544 14.478 14.483 19.987 19.99-0.017 0.017-0.022 0.017-0.028 0.028-5.507-5.507-12.43-12.435-19.958-19.964-15.988 15.988-38.066 25.873-62.458 25.873zM331.701 102.888l-18.395-28.152 206.202-0.11-13.438 28.262zM429.712 121.591l-13.414 28.191 70.629 0.072 13.444-28.262z" />
<glyph unicode="&#xe04a;" glyph-name="uniE04A" d="M443.273 225.584c-11.068 78.977-78.866 139.751-160.897 139.751-51.358 0-97.053-23.874-126.835-61.065 10.061-2.25 19.643-5.699 28.677-10.122 24.484 26.365 59.333 42.929 98.159 42.929 74.152 0 134.25-60.103 134.25-134.245 0-0.401-0.055-0.787-0.055-1.188 0.011 0 0.038 0.015 0.055 0.015 31.212 0 56.522-25.309 56.522-56.527s-25.309-56.527-56.522-56.527l-289.69-0.137c-48.777 0-88.323 39.552-88.323 88.324 0 48.776 39.547 88.323 88.323 88.323 24.386 0 46.46-9.885 62.451-25.865 7.542 7.53 14.474 14.473 19.98 19.979-21.090 21.101-50.239 34.149-82.43 34.149-64.388 0-116.587-52.198-116.587-116.587 0-64.378 52.199-116.581 116.587-116.581l289.69 0.137c46.824 0 84.786 37.962 84.786 84.786 0 37.51-24.385 69.278-58.139 80.451z" />
<glyph unicode="&#xe04b;" glyph-name="uniE04B" d="M241.113 87.229h-40.297v103.572h-51.119v-103.572h-40.297v227.458h40.297v-91.749h51.12v91.749h40.297v-227.458zM273.75 314.687h52.951c28.64 0 49.231-7.051 61.777-21.147 11.323-12.546 16.985-32.083 16.985-58.613v-65.44c0-31.529-6.993-53.675-20.981-66.439-11.767-10.548-29.918-15.819-54.45-15.819h-56.282v227.458zM313.713 120.032h15.652c17.094 0 27.863 5.604 32.303 16.818 2.331 5.995 3.497 16.428 3.497 31.305v72.433c0 12.764-1.722 22.146-5.162 28.141-5.107 8.768-15.098 13.154-29.972 13.154h-16.318v-161.851zM438.328 394.941h-363.656c-19.85 0-36-16.149-36-36v-312.547c0-19.851 16.15-36 36-36h363.656c19.851 0 36 16.149 36 36v312.547c0 19.851-16.149 36-36 36zM450.328 46.393c0-6.616-5.384-12-12-12h-363.656c-6.617 0-12 5.384-12 12v312.547c0 6.616 5.383 12 12 12h363.656c6.616 0 12-5.384 12-12v-312.547z" />
<glyph unicode="&#xe04c;" glyph-name="uniE04C" horiz-adv-x="662" d="M438.328 394.941h-518.578c-19.85 0-36-16.149-36-36v-312.547c0-19.851 16.15-36 36-36h518.578c19.851 0 36 16.149 36 36v312.547c0 19.851-16.149 36-36 36zM450.328 46.393c0-6.616-5.384-12-12-12h-518.578c-6.617 0-12 5.384-12 12v312.547c0 6.616 5.383 12 12 12h518.578c6.616 0 12-5.384 12-12v-312.547zM0.779 84.728h-0.651c-21.514 0-38.085 6.464-49.711 19.395-10.54 11.843-15.809 28.303-15.809 49.385v90.62c0 24.993 6.682 43.625 20.047 55.904 11.083 10.105 26.241 15.157 45.473 15.157 21.079 0 37.269-6.356 48.57-19.069 10.974-12.387 16.462-29.719 16.462-51.993v-90.62c0-23.577-6.738-41.453-20.21-53.621-11.084-10.106-25.808-15.158-44.17-15.158zM25.716 150.9v95.51c0 22.492-8.422 33.738-25.262 33.738-17.602 0-26.404-11.246-26.404-33.738v-95.51c0-20.644 8.692-30.968 26.078-30.968 17.058 0 25.588 10.324 25.588 30.968zM273.811 88.477h-37.65v119.794c0 13.583-4.999 20.374-14.995 20.374-7.823 0-15.213-4.671-22.166-14.017v-126.151h-37.65v121.588c0 12.387-5.379 18.581-16.136 18.581-6.954 0-13.963-3.856-21.025-11.572v-128.595h-37.65v172.928h33.249l1.793-15.972c5.649 5.868 10.973 10.212 15.972 13.039 7.063 4.13 14.995 6.193 23.796 6.193 9.996 0 17.873-2.5 23.633-7.497 3.476-3.152 6.79-8.094 9.942-14.832 11.191 14.887 24.719 22.329 40.583 22.329 12.168 0 21.622-3.749 28.36-11.246 6.627-7.605 9.943-18.418 9.943-32.435v-132.508h-0.002zM423.756 311.115v-159.563c0-23.144-6.356-40.476-19.070-51.993-10.866-9.887-25.971-14.832-45.31-14.832-21.188 0-37.38 6.194-48.57 18.58-10.324 11.517-15.485 27.599-15.485 48.243v159.563h39.444v-158.585c0-13.365 2.716-22.599 8.149-27.708 3.911-3.586 9.508-5.378 16.788-5.378 16.406 0 24.611 11.029 24.611 33.087v158.585h39.443z" />
<glyph unicode="&#xe04d;" glyph-name="uniE04D" d="M437.328 395.941h-363.656c-19.85 0-36-16.149-36-36v-312.547c0-19.851 16.15-36 36-36h363.656c19.851 0 36 16.149 36 36v312.547c0 19.851-16.149 36-36 36zM125.546 90.739h-57.695v234.262h57.695c59.846 0 109.987-53.499 109.987-116.589 0.007-65.161-50.133-117.672-109.987-117.672zM384.805 90.739c-59.957 0-109.922 52.51-109.922 117.668 0 63.092 49.964 116.594 109.922 116.594h57.805l0.012-234.262h-57.817z" />
<glyph unicode="&#xe04e;" glyph-name="uniE04E" d="M230.75 202.667c0-33.966-27.535-61.5-61.5-61.5s-61.5 27.534-61.5 61.5c0 33.966 27.535 61.5 61.5 61.5s61.5-27.534 61.5-61.5zM402.75 202.667c0-33.966-27.534-61.5-61.5-61.5s-61.5 27.534-61.5 61.5c0 33.966 27.534 61.5 61.5 61.5s61.5-27.534 61.5-61.5zM437.328 394.941h-363.656c-19.85 0-36-16.149-36-36v-312.547c0-19.851 16.15-36 36-36h363.656c19.851 0 36 16.149 36 36v312.547c0 19.851-16.149 36-36 36zM449.328 46.393c0-6.616-5.384-12-12-12h-363.656c-6.617 0-12 5.384-12 12v312.547c0 6.616 5.383 12 12 12h363.656c6.616 0 12-5.384 12-12v-312.547z" />
<glyph unicode="&#xe04f;" glyph-name="uniE04F" d="M248.238 299.179v-0.055h-159.988v-189.745l335.762-0.057v189.856h-175.774zM402.488 129.845h-146.726v147.81h146.726v-147.81zM437.328 395.941h-363.656c-19.85 0-36-16.149-36-36v-312.547c0-19.851 16.15-36 36-36h363.656c19.851 0 36 16.149 36 36v312.547c0 19.851-16.149 36-36 36zM449.328 47.393c0-6.616-5.384-12-12-12h-363.656c-6.617 0-12 5.384-12 12v312.547c0 6.616 5.383 12 12 12h363.656c6.616 0 12-5.384 12-12v-312.547z" />
<glyph unicode="&#xe050;" glyph-name="uniE050" horiz-adv-x="579" d="M476 394.941h-506.577c-19.85 0-36-16.149-36-36v-312.547c0-19.851 16.15-36 36-36h506.577c19.85 0 36 16.149 36 36v312.547c0 19.851-16.15 36-36 36zM488 46.393c0-6.616-5.384-12-12-12h-506.577c-6.617 0-12 5.384-12 12v312.547c0 6.616 5.383 12 12 12h506.577c6.616 0 12-5.384 12-12v-312.547zM108.675 281.781h-46.937v-195.963h-40.567v195.963h-47.105v33.023h134.609l-0.001-33.024zM170.032 85.818h-40.567v228.987h40.567v-228.987zM190.388 314.804h59.845c24.584 0 42.914-6.651 54.984-19.948 10.281-11.289 15.422-26.934 15.422-46.938 0-23.694-7.041-41.966-21.122-54.816-12.295-11.177-28.611-16.763-48.948-16.763h-19.614v-90.522h-40.567v228.987zM230.954 209.029h12.070c24.474 0 36.712 12.514 36.712 37.55 0 23.691-11.344 35.538-34.030 35.538h-14.751v-73.088zM338.272 314.804h59.844c24.584 0 42.914-6.651 54.983-19.948 10.281-11.289 15.423-26.934 15.423-46.938 0-23.694-7.040-41.966-21.121-54.816-12.295-11.177-28.611-16.763-48.949-16.763h-19.613v-90.522h-40.567v228.987zM378.839 209.029h12.070c24.474 0 36.711 12.514 36.711 37.55 0 23.691-11.344 35.538-34.029 35.538h-14.752v-73.088z" />
<glyph unicode="&#xe051;" glyph-name="uniE051" d="M400.195 346.655l-74.37 6.566 17.6-282.968c1.034-16.626-11.606-30.943-28.233-31.976l-110.379-6.865c4.913-7.177 13.027-12.223 22.564-13.065l142.718-12.601c16.594-1.466 31.193 10.337 32.609 26.361l24.976 282.884c1.413 16.022-10.892 30.2-27.486 31.666zM315.022 88.589l-18.257 296.677c-1.035 16.627-15.351 29.267-31.978 28.232l-142.997-8.894c-16.626-1.033-29.266-15.35-28.232-31.976l18.257-293.521c1.034-16.627 15.35-29.267 31.977-28.232l147.055 8.894c16.626 1.033 25.209 12.195 24.175 28.82z" />
<glyph unicode="&#xe052;" glyph-name="uniE052" d="M403.677 228.201c0.083 9.528-4.714 22.007-28.051 27.517-4.158 0.978-8.572 1.462-13.474 1.462-5.348 0-10.351-0.555-15.187-1.117-4.492-0.512-8.656-0.989-12.375-0.989-9.544 0-17.276 3.046-24.019 17.888-4.742 10.45-0.373 31.885 1.717 42.18l0.417 2.041c4.385 21.864 5.131 43.954-18.967 57.485-4.786 2.696-9.483 4.102-13.625 4.102-2.613 0-5.002-0.545-7.115-1.635-5.163-2.657-8.243-8.077-9.127-16.115-0.272-2.351-0.1-5.175 0.067-8.155 0.656-11.173 1.735-29.795-15.27-55.867-21.563-23.548-32.048-27.016-32.15-27.050l-1.018-0.411c-12.192-7.176-22.752-16.443-32.952-25.399-9.358-8.21-18.995-16.649-29.412-23.096l-35.457-0.534h-11.755v-146.043h45.012l23.17-6.876c33.428-17.583 75.272-21.285 104.462-21.285 17.505 0 30.106 1.363 32.452 1.646 1.334-0.158 3.040-0.239 4.762-0.239 10.913 0 20.285 3.209 27.867 9.552 12.908 10.787 16.955 27.397 18.128 34.471 11.312 4.528 18.76 11.421 22.152 20.482 4.163 11.128 0.955 22.474-1.541 28.592 9.901 5.469 16.060 12.758 18.312 21.671 4.542 18.011-8.889 35.269-9.027 35.442-0.74 0.803-1.406 1.717-1.912 2.565 5.88 4.606 13.813 15.881 13.914 27.716z" />
<glyph unicode="&#xe053;" glyph-name="uniE053" d="M383.763 228.087c0.506 0.848 1.173 1.762 1.912 2.566 0.139 0.173 13.57 17.43 9.027 35.442-2.251 8.913-8.41 16.201-18.312 21.671 2.496 6.118 5.704 17.464 1.541 28.592-3.392 9.061-10.841 15.954-22.152 20.482-1.173 7.073-5.219 23.683-18.128 34.47-7.582 6.343-16.954 9.553-27.867 9.553-1.723 0-3.428-0.080-4.762-0.239-2.346 0.283-14.948 1.645-32.453 1.645-29.19 0-71.034-3.702-104.463-21.285l-23.17-6.876h-45.013v-146.043h11.754l35.457-0.534c10.417-6.448 20.054-14.887 29.412-23.096 10.2-8.955 20.76-18.223 32.952-25.399l1.018-0.411c0.102-0.033 10.587-3.502 32.15-27.050 17.005-26.072 15.926-44.694 15.27-55.867-0.166-2.98-0.339-5.803-0.067-8.156 0.884-8.038 3.964-13.458 9.127-16.115 2.113-1.089 4.502-1.635 7.115-1.635 4.142 0 8.839 1.406 13.625 4.103 24.098 13.531 23.353 35.621 18.967 57.485l-0.417 2.041c-2.090 10.295-6.459 31.73-1.717 42.18 6.742 14.842 14.474 17.889 24.019 17.889 3.719 0 7.883-0.478 12.375-0.99 4.836-0.562 9.839-1.117 15.187-1.117 4.904 0 9.317 0.483 13.474 1.462 23.337 5.509 28.134 17.988 28.051 27.517-0.101 11.835-8.034 23.111-13.914 27.716z" />
<glyph unicode="&#xe054;" glyph-name="uniE054" d="M371.3 237.778h-23.864v71.592c0 52.719-42.738 95.457-95.456 95.457s-95.457-42.738-95.457-95.457v-71.592h-23.864c-13.126 0-23.864-10.739-23.864-23.864v-167.049c0-13.125 10.739-23.864 23.864-23.864h238.64c13.125 0 23.865 10.74 23.865 23.864v167.048c0 13.125-10.739 23.864-23.864 23.864zM251.98 94.593c-13.179 0-23.864 10.685-23.864 23.864 0 13.18 10.685 23.865 23.864 23.865s23.864-10.685 23.864-23.865c0-13.179-10.685-23.864-23.864-23.864zM299.708 237.778h-95.457v71.592c0 26.317 21.41 47.728 47.728 47.728s47.728-21.411 47.728-47.728v-71.592z" />
<glyph unicode="&#xe055;" glyph-name="uniE055" horiz-adv-x="508" d="M257.259 382.681c-96.858 0-175.379-78.515-175.379-175.379 0-33.135 9.195-64.126 25.167-90.561l-31.651-94.089 97.098 31.084c25.126-13.892 54.020-21.813 84.765-21.813 96.864 0 175.379 78.526 175.379 175.379 0.006 96.864-78.515 175.379-175.379 175.379zM257.259 61.302c-29.654 0-57.268 8.892-80.326 24.139l-56.106-17.958 18.238 54.212c-17.479 24.075-27.802 53.652-27.802 85.601 0 80.507 65.493 146.006 145.995 146.006 80.507 0 146-65.499 146-146.006 0-80.501-65.493-145.995-146-145.995zM339.489 167.449c-4.399 2.407-25.99 14.062-30.045 15.709-4.048 1.642-7.005 2.5-10.159-1.87-3.154-4.358-12.11-14.12-14.827-17.012-2.728-2.892-5.351-3.161-9.75-0.748-4.387 2.401-18.642 7.671-35.168 23.56-12.864 12.361-21.299 27.358-23.742 31.931-2.447 4.58-0.018 6.917 2.308 9.055 2.085 1.934 4.673 5.065 7.011 7.595 2.331 2.53 3.155 4.364 4.756 7.303 1.601 2.927 0.958 5.573-0.082 7.851s-9.166 24.647-12.56 33.743-7.179 7.746-9.791 7.846c-2.612 0.099-5.585 0.584-8.57 0.695-2.985 0.117-7.881-0.823-12.145-5.152-4.27-4.323-16.24-14.715-17.064-36.745s14.418-43.913 16.544-46.981c2.126-3.073 29.105-50.819 73.94-70.459 44.842-19.628 45.076-13.647 53.301-13.209 8.231 0.433 26.896 9.844 31.021 20.149s4.457 19.272 3.406 21.183c-1.051 1.916-3.99 3.154-8.383 5.555z" />
<glyph unicode="&#xe056;" glyph-name="uniE056" horiz-adv-x="682" d="M432.558 343.741c-2.47-1.526-9.37-0.54-12.928-0.54-10.772-0.179-21.551-0.359-32.324-0.539-8.12-1.751-18.415 0.759-26.937-1.076-11.851-0.9-23.705-1.795-35.556-2.692-18.135-4.337-32.033-13.497-38.788-29.089-4.106-9.476-5.589-19.959-8.080-31.245-0.539-8.080-1.075-16.164-1.618-24.243-3.271-15.104-1.618-37.949-1.618-55.492 0.001-48.897-0.806-104.55 29.63-123.369 10.603-6.553 24.841-6.545 39.329-9.699 6.285-0.18 12.57-0.359 18.856-0.539 9.192-1.986 21.779 0.965 31.245-1.075 6.265-1.351 15.147 0.959 22.089-0.539 8.175-1.761 18.93 0.288 28.014-0.539 14.139-1.289 30.745-0.539 45.795-0.539 10.522 0 21.497 0.51 31.245 0.539 6.904 0.024 15.573-0.741 21.551 0.539 5.914 1.265 13.616-0.584 18.856 0.539 8.762 1.873 19.234-0.688 27.475 1.075 9.338 0.359 18.677 0.719 28.014 1.075 15.082 3.264 24.694 4.188 35.016 11.853 12.604 9.361 17.285 26.408 21.55 44.176 0.179 3.231 0.359 6.466 0.539 9.699 4.053 18.45 3.231 41.968 3.231 63.572-0.001 49.031 2.253 112.747-25.86 133.067-7.801 5.643-16.85 8.27-28.014 10.773-7.039 1.582-14.837 0.166-21.55 1.618-7.541 0.18-15.085 0.359-22.625 0.54-3.866 0.832-10.010-0.442-14.545 0.539-5.136 1.108-12.405-0.343-18.318 0.539-6.676 0.996-15.598 0.479-23.168 0.54-29.145 0.224-60.479 0.648-90.509 0.54zM30.663 297.949c-9.515 0-19.037 0-28.552 0 2.277-9.527 6.165-19.038 9.157-28.014 4.663-13.986 8.414-28.002 12.928-41.482 3.201-9.562 5.317-18.999 8.619-28.015 1.127-3.070 0.984-6.264 2.692-8.62 0-17.238 0-34.48 0-51.718 0-7.313-1.511-18.026 0.539-24.243 8.023-0.045 20.059-1.755 26.937 0.539 0 24.96 0 49.924 0 74.884 2.975 11.938 8.019 24.544 11.853 36.095 4.128 12.439 6.65 24.195 10.775 36.636 2.757 8.313 5.151 17.029 8.080 25.86 0.835 2.522 2.34 4.931 2.692 8.080-9.516 0-19.037 0-28.552 0-0.478-5.022-2.457-9.707-3.772-14.008-3.349-10.945-5.254-21.969-8.62-32.324-2.178-6.699-2.399-17.338-5.928-22.625 0-0.357 0-0.72 0-1.076-3.2 4.025-3.565 14.321-5.388 19.934-3.353 10.329-5.087 21.479-8.62 32.324-1.743 5.354-4.25 11.64-4.849 17.78zM392.692 296.333c0-8.439 0-16.881 0-25.322-9.877 0-19.752 0-29.63 0 0-51.535 0-103.084 0-154.617-8.979 0-17.957 0-26.937 0 0 51.534 0 103.084 0 154.617-9.339 0-18.677 0-28.014 0 0 8.438 0 16.881 0 25.322 28.192 0 56.39 0 84.582 0zM504.75 296.333c0-19.393 0-38.788 0-58.186 2.692 2.692 5.388 5.388 8.080 8.080 5.846 4.256 18.519 9.794 27.475 4.311 16.302-9.984 12.931-44.498 12.928-70.573 0-9.089 1.144-20.445-0.539-28.552 0-3.231 0-6.466 0-9.699-1.73-7.935-2.452-15.067-6.466-20.473-11.236-15.136-34.575-1.8-40.943 8.080-0.18 0-0.359 0-0.539 0 0-4.311 0-8.62 0-12.928-8.080 0-16.164 0-24.243 0 0 59.974 0 119.966 0 179.941 8.079 0 16.164 0 24.243 0zM123.327 253.234c-3.195-1.961-8.451-1.268-11.852-2.692-7.677-3.221-14.1-11.068-17.239-18.855-4.694-11.65-3.231-29.888-3.231-45.795 0-33.525-2.683-56.082 19.934-67.879 4.564-2.378 12.802-6.147 21.010-4.311 11.822 2.642 20.904 7.822 26.396 16.7 6.893 11.14 5.388 31.127 5.388 49.026 0 41.974 2.639 74.255-40.404 73.807zM620.578 116.932c-4.323-1.639-13.49-3.767-20.472-2.155-4.15 0.959-9.050 2.253-12.391 4.311-21.064 12.971-18.318 39.284-18.318 72.728 0 18.531-0.088 35.571 7.543 46.332 11.45 16.152 43.864 20.487 57.109 2.692 10.654-14.315 9.459-36.235 9.157-61.414-16.163 0-32.326 0-48.486 0-0.005-10.779-2.123-26.161 1.076-35.017 0.899-2.479 2.976-4.42 4.311-6.466 3.042-0.795 7.652-2.893 10.773-0.539 8.627 1.623 7.303 15.382 7.004 25.86 8.438 0 16.881 0 25.322 0 0.255-25.599-4.391-39.415-22.625-46.332zM182.586 252.157c8.619 0 17.239 0 25.859 0 0-28.908 0-57.829 0-86.734 0-6.873-1.697-26.142 2.692-28.014 1.071-0.722 3.506-0.594 5.388-0.539 0.954 0.904 2.066 0.817 3.231 1.618 3.49 2.392 5.304 7.125 8.619 9.699 0 34.654 0 69.319 0 103.978 8.619 0 17.24 0 25.859 0 0-45.249 0-90.513 0-135.763-6.593-2.2-18.137-0.585-25.859-0.539 0 4.849 0 9.699 0 14.546-0.179 0-0.359 0-0.54 0-7.916-12.137-34.196-26.945-43.1-4.849-4.084 10.136-2.156 27.582-2.155 40.944 0 28.55 0 57.11 0 85.659zM414.244 250.541c0-27.113 0-54.237 0-81.35 0-6.44-1.55-26.666 1.075-30.17 0.707-1.768 1.509-1.57 2.692-2.692 7.72 0.060 14.303 6.118 16.164 11.853 2.098 3.387 0.539 22.447 0.539 28.014 0 24.781 0 49.569 0 74.345 8.438 0 16.881 0 25.322 0 0-44.713 0-89.435 0-134.146-8.438 0-16.881 0-25.322 0 0 4.849 0 9.699 0 14.546-2.103-1.435-3.089-3.649-4.849-5.388-4.269-4.219-10.305-8.913-16.7-10.774-11.122-3.24-19.178 3.767-22.089 10.774-4.13 9.947-2.155 27.26-2.155 40.404 0 28.193 0 56.391 0 84.583 8.438 0 16.881 0 25.322 0zM515.525 230.605c3.878 0.058 5.383-0.873 8.080-1.618 4.15-6.518 4.311-15.811 4.311-26.937 0-12.928 0-25.861 0-38.788 0-7.834 0.418-16.466-2.155-22.089-1.437-1.437-2.871-2.871-4.311-4.311-5.996-0.471-14.588 0.706-16.7 5.388 0 27.471 0 54.955 0 82.427 1.382 0.869 2.442 2.403 3.772 3.231 2.060 1.282 5.054 1.268 7.004 2.692zM617.885 199.361c-7.721 0-15.444 0-23.168 0-0.264 9.994-1.898 27.070 5.388 29.631 3.027 2.813 9.032 1.132 12.928 0.54 1.095-1.655 2.976-2.946 3.773-4.849 2.533-6.075 1.109-17.444 1.076-25.323zM136.255 225.758c3.643-5.438 1.618-15.171 1.618-23.166 0-13.288 0-26.579 0-39.866 0.001-6.094 1.625-12.212 0-17.78-0.799-2.732-2.899-4.875-4.311-7.003-3.631-0.959-5.859-1.327-10.239-1.075-2.067 2.089-4.775 3.442-5.927 6.466-2.174 5.717-0.54 12.526-0.54 19.394 0 13.646 0 27.298 0 40.943-0.001 10.204-2.328 22.86 6.466 25.323 0.46 0.356 1.694 0.728 2.155 1.076 4.968-0.032 8.803-1.364 10.775-4.311z" />
<glyph unicode="&#xe057;" glyph-name="uniE057" d="M245.333 202.666c0-35.346 28.654-64 64-64s64 28.654 64 64c0 35.346-28.654 64-64 64s-64-28.654-64-64zM448 320h-64l-31.872 35.413c-3.755 4.117-8.939 7.253-14.336 7.253h-56.917c-5.397 0-10.581-3.136-14.336-7.253l-31.872-35.413h-64v10.666c0 5.867-4.8 10.667-10.667 10.667h-64c-5.867 0-10.667-4.8-10.667-10.667v-10.666h-21.333c-11.733 0-21.333-9.6-21.333-21.334v-213.333c0-11.733 9.6-21.333 21.333-21.333h384c11.733 0 21.333 9.6 21.333 21.333v213.333c0 11.734-9.6 21.334-21.333 21.334zM170.667 245.333c0-5.867-4.8-10.667-10.667-10.667h-64c-5.867 0-10.667 4.8-10.667 10.667v21.333c0 5.867 4.8 10.667 10.667 10.667h64c5.867 0 10.667-4.8 10.667-10.667v-21.333zM309.333 106.666c-53.013 0-96 42.987-96 96s42.987 96 96 96 96-42.987 96-96-42.986-96-96-96z" />
<glyph unicode="&#xe058;" glyph-name="uniE058" d="M199.68 161.595l-102.4 40.986v-34.663l102.4-40.986v34.663zM199.68 267.963l-102.4 40.96v-34.663l102.4-40.96v34.662zM475.161 445.73c-7.014 4.762-15.974 5.735-23.859 2.586l-195.303-78.131-195.303 78.131c-7.885 3.149-16.819 2.176-23.859-2.586-7.014-4.762-11.239-12.697-11.239-21.197v-327.68c0-10.471 6.375-19.865 16.077-23.783l204.365-81.741c0 0 4.198-1.357 4.966-1.51 1.664-0.307 3.328-0.486 4.992-0.486 1.639 0 3.328 0.179 4.966 0.512 0.768 0.154 4.966 1.536 4.966 1.536l204.339 81.715c9.753 3.891 16.128 13.286 16.128 23.757v327.68c0 8.499-4.224 16.435-11.238 21.197zM230.4 41.71l-163.84 65.536v286.925l163.84-65.562v-286.899zM445.44 107.221l-163.84-65.536v286.925l163.84 65.561v-286.95zM414.72 202.581l-102.425-40.986v-34.663l102.425 40.986v34.663zM414.72 308.924l-102.425-40.96v-34.662l102.425 40.96v34.663z" />
<glyph unicode="&#xe059;" glyph-name="uniE059" d="M368 160c-18.923 0-36.011-7.275-49.173-18.88l-121.835 58.261c0.043 1.109 0.341 2.155 0.341 3.285 0 4.629-0.555 9.109-1.344 13.504l122.795 69.419c13.163-11.627 30.251-18.923 49.216-18.923 41.237 0 74.667 33.429 74.667 74.667s-33.429 77.376-74.667 77.376-74.667-36.139-74.667-77.376c0-2.859 0.512-5.589 0.832-8.384l-126.186-71.317c-12.608 9.706-28.182 15.701-45.312 15.701-41.237 0-74.667-33.429-74.667-74.667s33.429-74.666 74.667-74.666c20.864 0 39.659 8.597 53.205 22.379l118.315-56.576c-0.32-2.816-0.853-5.568-0.853-8.469 0-41.237 33.429-74.667 74.667-74.667s74.667 33.429 74.667 74.667-33.431 74.666-74.668 74.666z" />
<glyph unicode="&#xe05a;" glyph-name="uniE05A" d="M458.667 416h-192c-11.755 0-21.333-9.579-21.333-21.333l-0.001-53.334h-149.333c-35.285 0-64-28.715-64-64v-213.333c0-35.285 28.715-64 64-64h256c35.285 0 64 28.715 64 64v138.667h42.667c11.755 0 21.333 9.579 21.333 21.333v170.667c0 11.775-9.579 21.333-21.333 21.333zM362.667 74.666c0-11.733-9.6-21.333-21.333-21.333h-234.667c-11.733 0-21.333 9.6-21.333 21.333v192c0 11.733 9.6 21.333 21.333 21.333h138.667v-64c0-11.755 9.579-21.333 21.333-21.333h96v-128z" />
<glyph unicode="&#xe05b;" glyph-name="uniE05B" d="M362.667 362.666h-341.334c-11.733 0-21.333-9.6-21.333-21.333v-234.667c0-11.733 9.6-21.333 21.333-21.333h341.333c11.733 0 21.333 9.6 21.333 21.333l0.001 234.667c0 11.733-9.6 21.333-21.333 21.333zM341.333 256h-296.021v42.666h296.021v-42.666zM500.736 338.794c-6.933 3.712-15.36 3.307-21.888-1.067l-73.515-48.981v-86.826l73.493-49.003c3.585-2.389 7.702-3.584 11.841-3.584 3.456 0 6.912 0.832 10.069 2.517 6.933 3.712 11.264 10.944 11.264 18.816v149.334c0 7.85-4.331 15.082-11.264 18.794z" />
<glyph unicode="&#xe05c;" glyph-name="uniE05C" d="M76.501 341.333h-33.834c-11.776 0-21.334-9.557-21.334-21.333s9.557-21.333 21.333-21.333h106.667v106.666c0 11.776-9.557 21.333-21.333 21.333s-21.333-9.557-21.333-21.333v-33.835l-48.918 48.918c-4.16 4.16-9.621 6.25-15.082 6.25s-10.923-2.090-15.083-6.25c-8.341-8.341-8.341-21.824 0-30.165l48.917-48.918zM435.499 341.333h33.834c11.776 0 21.333-9.557 21.333-21.333s-9.557-21.333-21.333-21.333h-106.667l0.001 106.666c0 11.776 9.557 21.333 21.333 21.333s21.333-9.557 21.333-21.333v-33.835l48.917 48.917c4.161 4.161 9.622 6.251 15.083 6.251s10.923-2.091 15.083-6.251c8.341-8.341 8.341-21.824 0-30.165l-48.917-48.917zM76.501 85.333h-33.834c-11.776 0-21.333 9.557-21.333 21.333s9.557 21.333 21.333 21.333h106.667v-106.667c0-11.776-9.557-21.333-21.333-21.333s-21.333 9.557-21.333 21.333v33.835l-48.917-48.917c-4.162-4.16-9.623-6.25-15.084-6.25s-10.923 2.091-15.083 6.251c-8.341 8.341-8.341 21.824 0 30.165l48.917 48.917zM435.499 85.333h33.834c11.776 0 21.333 9.557 21.333 21.333s-9.557 21.333-21.333 21.333h-106.667v-106.667c0-11.776 9.557-21.333 21.333-21.333s21.333 9.557 21.333 21.333v33.835l48.917-48.917c4.162-4.16 9.623-6.25 15.084-6.25s10.923 2.091 15.083 6.251c8.341 8.341 8.341 21.824 0 30.165l-48.917 48.917zM362.667 170.666c0-11.733-9.6-21.333-21.333-21.333h-170.667c-11.733 0-21.333 9.6-21.333 21.333v85.333c0 11.733 9.6 21.333 21.333 21.333h170.667c11.733 0 21.333-9.6 21.333-21.333v-85.333z" />
<glyph unicode="&#xe05d;" glyph-name="uniE05D" d="M94.165 384h33.835c11.776 0 21.333 9.557 21.333 21.333s-9.557 21.333-21.333 21.333h-106.667v-106.667c0-11.776 9.557-21.333 21.333-21.333s21.333 9.557 21.333 21.333l0.001 33.835 48.917-48.917c4.16-4.16 9.622-6.251 15.083-6.251s10.923 2.091 15.083 6.251c8.341 8.341 8.341 21.824 0 30.165l-48.918 48.918zM417.835 384h-33.835c-11.776 0-21.333 9.557-21.333 21.333s9.557 21.333 21.333 21.333h106.667v-106.667c0-11.776-9.557-21.333-21.333-21.333s-21.333 9.557-21.333 21.333l-0.001 33.835-48.917-48.917c-4.16-4.16-9.622-6.251-15.083-6.251s-10.923 2.091-15.083 6.251c-8.341 8.341-8.341 21.824 0 30.165l48.918 48.918zM94.165 42.666h33.835c11.776 0 21.333-9.557 21.333-21.333s-9.557-21.333-21.333-21.333h-106.667v106.667c0 11.776 9.557 21.333 21.333 21.333s21.333-9.557 21.333-21.333v-33.835l48.917 48.917c4.161 4.16 9.623 6.251 15.084 6.251s10.923-2.091 15.083-6.251c8.341-8.341 8.341-21.824 0-30.165l-48.918-48.918zM417.835 42.666h-33.835c-11.776 0-21.333-9.557-21.333-21.333s9.557-21.333 21.333-21.333h106.667v106.667c0 11.776-9.557 21.333-21.333 21.333s-21.333-9.557-21.333-21.333v-33.835l-48.917 48.917c-4.161 4.16-9.623 6.251-15.084 6.251s-10.923-2.091-15.083-6.251c-8.341-8.341-8.341-21.824 0-30.165l48.918-48.918zM362.667 170.666c0-11.733-9.6-21.333-21.333-21.333h-170.667c-11.733 0-21.333 9.6-21.333 21.333v85.333c0 11.733 9.6 21.333 21.333 21.333h170.667c11.733 0 21.333-9.6 21.333-21.333v-85.333z" />
<glyph unicode="&#xe05e;" glyph-name="uniE05E" d="M374.827 179.861l-118.827 118.805-118.827-118.805c-11.029-11.051-11.029-28.907 0-39.936 6.187-6.187 14.485-8.768 22.571-8.021l-0.192-0.278 197.291 0.192c6.549 0.469 12.971 3.093 17.984 8.085 11.029 11.030 11.029 28.907 0 39.958z" />
<glyph unicode="&#xe05f;" glyph-name="uniE05F" d="M137.173 250.432l118.827-118.806 118.827 118.805c11.029 11.051 11.029 28.907 0 39.936-6.187 6.187-14.485 8.768-22.571 8.021l0.192 0.278-197.291-0.192c-6.549-0.469-12.97-3.093-17.984-8.106-11.029-11.008-11.029-28.886 0-39.936z" />
<glyph unicode="&#xe060;" glyph-name="uniE060" d="M106.667 298.666h63.979v-21.333h64l-0.001 21.333h170.688c11.733 0 21.333 9.6 21.333 21.333s-9.6 21.333-21.333 21.333h-170.688v21.334h-64v-21.333h-63.978c-11.734 0-21.334-9.6-21.334-21.333s9.6-21.334 21.334-21.334zM405.333 234.666h-42.688v21.333h-64v-21.333h-191.978c-11.733 0-21.333-9.6-21.333-21.333s9.6-21.333 21.333-21.333h191.979v-21.333h64v21.333h42.687c11.733 0 21.333 9.6 21.333 21.333s-9.599 21.333-21.333 21.333zM405.333 128h-213.354v21.333h-64v-21.333h-21.312c-11.733 0-21.333-9.6-21.333-21.333s9.6-21.333 21.333-21.333h21.312v-21.333h64v21.333l213.354-0.001c11.733 0 21.333 9.6 21.333 21.333s-9.599 21.334-21.333 21.334z" />
<glyph unicode="&#xe061;" glyph-name="instagram-glyph" d="M256 419.862c67.266 0 75.233-0.257 101.8-1.469 24.562-1.121 37.9-5.224 46.778-8.674 11.359-4.264 21.034-10.684 28.948-18.827 8.178-7.951 14.599-17.625 18.685-28.447 3.628-9.414 7.732-22.753 8.852-47.315 1.212-26.565 1.469-34.532 1.469-101.8s-0.257-75.233-1.469-101.8c-1.121-24.562-5.225-37.9-8.674-46.778-8.663-22.035-25.776-39.149-47.245-47.615-9.442-3.647-22.781-7.75-47.344-8.87-26.56-1.212-34.527-1.469-101.8-1.469s-75.237 0.257-101.8 1.469c-24.562 1.121-37.9 5.225-46.778 8.674-11.359 4.264-21.034 10.685-28.948 18.827-8.178 7.95-14.599 17.625-18.685 28.447-3.628 9.414-7.732 22.753-8.852 47.315-1.212 26.564-1.469 34.532-1.469 101.8s0.257 75.233 1.469 101.8c1.121 24.562 5.224 37.9 8.674 46.778 4.264 11.36 10.685 21.035 18.828 28.949 7.951 8.179 17.626 14.6 28.447 18.685 9.415 3.628 22.754 7.732 47.316 8.852 26.565 1.212 34.532 1.469 101.8 1.469zM256.002 465.254c-68.418 0-77-0.29-103.866-1.516-26.815-1.224-45.127-5.482-61.151-11.71-17.462-6.68-32.346-16.564-44.602-29.039-12.514-12.291-22.4-27.176-28.797-43.793-6.509-16.87-10.767-35.182-11.986-61.996-1.231-26.866-1.521-35.448-1.521-103.866s0.29-77 1.521-103.866c1.224-26.815 5.482-45.127 11.71-61.151 6.681-17.462 16.564-32.346 29.039-44.603 12.291-12.511 27.177-22.394 43.794-28.789 16.87-6.514 35.182-10.772 61.996-11.996 26.87-1.226 35.449-1.516 103.866-1.516s77 0.29 103.866 1.516c26.815 1.224 45.127 5.482 61.151 11.71 33.938 13.377 60.3 39.738 73.373 72.805 6.532 16.897 10.79 35.209 12.014 62.024 1.226 26.87 1.516 35.449 1.516 103.866s-0.29 77-1.516 103.866c-1.224 26.815-5.482 45.127-11.71 61.151-6.68 17.462-16.564 32.346-29.039 44.603-12.292 12.514-27.178 22.399-43.796 28.795-16.87 6.509-35.182 10.767-61.997 11.986-26.866 1.231-35.448 1.521-103.866 1.521v0zM256 342.698c-71.447 0-129.365-57.918-129.365-129.365s57.918-129.365 129.365-129.365c71.447 0 129.365 57.918 129.365 129.365s-57.918 129.365-129.365 129.365zM256 129.36c-46.376 0-83.972 37.596-83.972 83.973s37.596 83.973 83.973 83.973c46.377 0 83.973-37.596 83.973-83.973s-37.597-83.973-83.974-83.973c0 0 0 0 0 0zM420.706 347.809c0-16.696-13.534-30.23-30.23-30.23s-30.23 13.534-30.23 30.23c0 16.695 13.534 30.23 30.23 30.23s30.23-13.535 30.23-30.23z" />
<glyph unicode="&#xe062;" glyph-name="bubble" d="M255.97 404.514c-120.651 0-218.39-69.786-218.39-155.609 0-49.35 32.177-93.369 82.371-121.817-11.434-40.596-25.754-55.176-41.106-72.438-1.806-2.156-8.142-7.224-6.744-14.755 0.874-4.719 6.715-6.904 12.731-7.487 8.666-0.86 20.145 2.579 25.317 4.007 42.169 10.677 79.371 30.618 111.285 58.803 11.477-1.224 23-1.937 34.945-1.937 120.651 0 218.201 69.539 218.201 155.596 0 86.115-97.957 155.639-218.608 155.639zM157.926 209.502c-13.154 0-23.831 10.647-23.831 23.787 0 13.124 10.663 23.743 23.831 23.743s23.845-10.633 23.845-23.757c-0.014-13.124-10.691-23.772-23.845-23.772zM256 209.502c-13.154 0-23.845 10.647-23.845 23.787 0 13.124 10.691 23.743 23.845 23.743s23.831-10.633 23.831-23.757c0-13.124-10.677-23.772-23.831-23.772zM354.060 209.502c-13.154 0-23.83 10.647-23.83 23.787 0 13.124 10.663 23.757 23.831 23.757 13.138 0 23.844-10.633 23.844-23.757 0-13.138-10.691-23.787-23.844-23.787z" />
<glyph unicode="&#xe063;" glyph-name="icon_arrow_up" d="M213.155 262.284l-97.921-97.912 42.844-42.844 97.922 97.921 97.911-97.921 42.854 42.844-140.767 140.767z" />
<glyph unicode="&#xe064;" glyph-name="icon_arrow_right" d="M315.093 265.054l-118.198 118.212-51.72-51.72 118.212-118.212-118.212-118.198 51.721-51.733 169.933 169.933z" />
<glyph unicode="&#xe065;" glyph-name="icon_arrow_left" d="M200.618 261.806l110.776 110.788 48.472-48.472-110.788-110.789 110.788-110.776-48.472-48.485-159.262 159.262z" />
<glyph unicode="&#xe066;" glyph-name="icon_arrow_down" d="M213.155 164.382l-97.921 97.911 42.844 42.845 97.922-97.922 97.911 97.922 42.854-42.845-140.767-140.767z" />
<glyph unicode="&#xe067;" glyph-name="icon_storytelling" d="M36.836 24.347v313.878l9.018 5.637c36.221 22.639 73.233 34.117 110.010 34.117 33.34 0 66.875-9.433 99.839-28.066 32.964 18.632 66.5 28.066 99.841 28.066 36.776 0 73.788-11.478 110.010-34.117l9.018-5.637v-311.575l-29.357 18.348c-28.831 18.021-58.072 27.156-86.91 27.156-30.058 0-61.156-9.911-92.433-29.459l-10.169-6.356-10.169 6.356c-30.029 18.768-60.198 28.284-89.67 28.284s-59.642-9.515-89.671-28.284l-29.357-18.348zM155.863 109.353c33.338 0 66.867-9.431 99.827-28.058 34.156 19.406 68.627 29.233 102.615 29.233 26.12 0 52.211-5.798 77.892-17.277v223.423c-27.040 15.22-54.129 22.928-80.653 22.928-29.474 0-59.643-9.516-89.671-28.284l-10.169-6.356-10.169 6.356c-30.029 18.768-60.198 28.284-89.67 28.284-26.524 0-53.612-7.707-80.653-22.928v-225.61c26.742 12.149 53.762 18.288 80.653 18.288zM204.083 278.947c-6.060 2.567-11.018-0.716-11.018-7.298v-116.632c0-6.582 4.958-9.865 11.018-7.298l143.829 60.945c6.060 2.567 6.060 6.769 0 9.337l-143.829 60.946z" />
<glyph unicode="&#xe068;" glyph-name="home" d="M512 184.778l-256 198.713-256-198.714v81.019l256 198.713 256-198.714zM448 192v-192h-128v128h-128v-128h-128v192l192 144z" />
</font>
</defs>
</svg>
