<?xml version="1.0" encoding="utf-8"?>
<!-- Generator: Adobe Illustrator 21.1.0, SVG Export Plug-In . SVG Version: 6.00 Build 0)  -->
<svg version="1.1" id="Capa_1" xmlns="http://www.w3.org/2000/svg" xmlns:xlink="http://www.w3.org/1999/xlink" x="0px" y="0px"
	 viewBox="0 0 204 66" style="enable-background:new 0 0 204 66;" xml:space="preserve">
<style type="text/css">
	.st0{fill:#009353;}
	.st1{fill:#004288;}
</style>
<g>
	<path class="st0" d="M25.4,5.6c0,0-4.8,0-8,3.4l1.5,1.5c0,0,2.6-2.6,6.2-2.7c0.1,0,0.2,0,0.2,0c0.1,0,0.1,0,0.2,0
		c0.5,0,3.6-0.1,6.3,2.7l1.5-1.3C33.4,9.1,31,5.8,25.4,5.6z"/>
	<path class="st0" d="M20.3,11.5l1.4,1.4c0,0,2-1.6,3.8-1.5c0,0,2.2,0,3.7,1.5l1.5-1.4c0,0-1.5-2-5.2-2.2C25.5,9.3,22.4,9,20.3,11.5
		z"/>
	<g>
		<path class="st0" d="M25.5,2c0,0-5.3-0.6-10.7,4.5L16.2,8c0,0,3.6-3.7,8.6-3.8c0.1,0,0.2,0,0.2,0c0,0,0.1,0,0.1,0s0.1,0,0.1,0
			s0.1,0,0.1,0s0,0,0.1,0c0.1,0,0.2,0,0.2,0c0,0,0.1,0,0.1,0s0.1,0,0.1,0c0,0,0,0,0.1,0c0.1,0,0.2,0,0.3,0c1.5,0.1,5.4,0.6,8.4,3.8
			l1.5-1.5C36.1,6.5,32.1,1.9,25.5,2z"/>
	</g>
	<path class="st1" d="M36,35.2c-1.2,0-2.3,0.6-2.9,1.6l-4.8,5.6V15.7c0-1.5-1.2-2.8-2.8-2.8c-1.5,0-2.8,1.2-2.8,2.8v20.1h-1.2V25.4
		c0-1.5-1.3-2.8-2.8-2.8c-1.5,0-2.8,1.3-2.8,2.8v10.3h-1.2v-8c0-1.5-1.3-2.8-2.8-2.8c-1.5,0-2.8,1.2-2.8,2.8v8H8v-3.1
		c0-1.5-1.3-2.8-2.8-2.8c-1.5,0-2.8,1.3-2.8,2.8v14.5h0C2.6,56.4,9,63.9,16.9,63.9c5.3,0,10-3.4,12.4-8.5c0,0,2.5-3.9,4-6.3
		c2.3-3.6,4.4-6.4,5.3-8c0.1-0.1,0.9-1.5,0.9-2.4C39.5,36.8,37.9,35.2,36,35.2z M11,48.6c0,0.8,0.6,1.4,1.4,1.4
		c0.8,0,1.4-0.6,1.4-1.4h1.1c0,1.4-1.1,2.5-2.5,2.5S9.9,50,9.9,48.6H11z M16.6,59.9c-3.7,0-6.7-3-6.7-6.7H11c0,3.1,2.5,5.6,5.6,5.6
		c3.1,0,5.6-2.5,5.6-5.6h1.1C23.2,56.9,20.2,59.9,16.6,59.9z M21.1,51.1c-1.4,0-2.5-1.1-2.5-2.5h1.1c0,0.8,0.6,1.4,1.4,1.4
		c0.8,0,1.4-0.6,1.4-1.4h1.1C23.5,50,22.4,51.1,21.1,51.1z"/>
	<g>
		<path class="st1" d="M51,37.7l2.4-2.1c1,1.1,2.5,1.9,4.7,1.9c2,0,2.7-0.4,2.7-1.3c0-1-0.7-1.2-3.2-1.5c-2.7-0.4-6.1-1-6.1-4.5
			c0-3,2.4-4.4,6-4.4c3.1,0,5,0.8,6.5,2.4l-2.2,2.1c-0.6-0.8-1.9-1.7-4.1-1.7c-1.9,0-2.7,0.4-2.7,1.3c0,0.9,0.8,1.1,3.4,1.5
			c2.9,0.3,6,1.1,6,4.5c0,3-2,4.5-6.2,4.5C54.7,40.4,52.6,39.4,51,37.7z"/>
		<path class="st1" d="M65.7,35.4c0-3.2,2.1-5.1,5.1-5.1c3,0,5.1,2,5.1,5c0,3.2-2.1,5.1-5.1,5.1S65.7,38.6,65.7,35.4z M72.7,35.3
			c0-1.6-0.6-2.4-1.8-2.4c-1.2,0-1.9,0.8-1.9,2.4c0,1.6,0.6,2.5,1.9,2.5C72.1,37.9,72.7,36.9,72.7,35.3z"/>
		<path class="st1" d="M77.7,26.2H81v13.9h-3.2V26.2z"/>
		<path class="st1" d="M83.4,37.1v-6.6h3.2V36c0,1,0.3,1.6,1.3,1.6c1.2,0,1.9-0.6,1.9-2.7v-4.4H93v9.5h-3.2l0-1.7
			c-0.6,1.1-1.7,1.9-3.4,1.9C84.6,40.3,83.4,39.4,83.4,37.1z"/>
		<path class="st1" d="M94.7,35.4c0-3.2,2.1-5.1,5-5.1c2.4,0,3.8,1,4.6,2.9l-2.6,1.3c-0.3-0.9-0.9-1.6-1.9-1.6
			c-1.2,0-1.8,0.8-1.8,2.4c0,1.6,0.6,2.5,1.8,2.5c1,0,1.6-0.7,1.9-1.7l2.7,1.2c-0.8,2-2.3,3.1-4.7,3.1
			C96.9,40.4,94.7,38.6,94.7,35.4z"/>
		<path class="st1" d="M106.1,26.2h3.2v3.1h-3.2V26.2z M106.1,30.6h3.2v9.5h-3.2V30.6z"/>
		<path class="st1" d="M111.1,35.4c0-3.2,2.1-5.1,5.1-5.1c3,0,5.1,2,5.1,5c0,3.2-2.1,5.1-5.1,5.1S111.1,38.6,111.1,35.4z
			 M118.1,35.3c0-1.6-0.6-2.4-1.8-2.4c-1.2,0-1.9,0.8-1.9,2.4c0,1.6,0.6,2.5,1.9,2.5C117.4,37.9,118.1,36.9,118.1,35.3z"/>
		<path class="st1" d="M123,30.6h3.2l0,1.7c0.6-1.1,1.7-1.9,3.4-1.9c1.8,0,3.1,0.9,3.1,3.2v6.6h-3.2v-5.4c0-1-0.3-1.6-1.3-1.6
			c-1.2,0-1.9,0.6-1.9,2.7v4.4H123V30.6z"/>
		<path class="st1" d="M139.4,37.9c1,0,1.7-0.2,2.2-1.2l2.7,0.9c-0.9,1.9-2.6,2.8-4.9,2.8c-3,0-5.2-1.8-5.2-5c0-3.2,2-5.1,5.1-5.1
			c2.4,0,5.3,1.4,5,5.8h-6.9C137.7,37.3,138.4,37.9,139.4,37.9z M141.3,34.2c-0.1-0.9-0.7-1.4-1.9-1.4c-1,0-1.7,0.3-2,1.4H141.3z"/>
		<path class="st1" d="M145,38.7l1.7-1.9c0.8,0.6,1.6,1.1,3.3,1.1c1.2,0,1.5-0.2,1.5-0.6c0-0.5-0.4-0.4-2.1-0.6
			c-2.4-0.3-4-0.9-4-3.2c0-2.2,2-3.1,4.5-3.1c2.1,0,3.6,0.5,4.4,1l-1.5,2.1c-0.6-0.4-1.4-0.8-3-0.8c-1.3,0-1.4,0.3-1.4,0.6
			c0,0.3,0.3,0.5,1.8,0.6c2.2,0.2,4.5,0.6,4.5,3.2c0,2.3-1.7,3.3-4.5,3.3C147.7,40.3,146.1,39.8,145,38.7z"/>
		<path class="st1" d="M160.7,30.6h3.2l0,1.4c0.6-0.9,1.4-1.7,2.9-1.7c2.5,0,4,1.8,4,5c0,3.2-1.4,5.1-3.8,5.1
			c-1.5,0-2.5-0.5-3.1-1.5v4.6h-3.2V30.6z M167.6,35.3c0-1.6-0.6-2.4-1.8-2.4c-1.1,0-1.9,1-1.9,2.4c0,1.4,0.8,2.4,1.9,2.4
			C166.9,37.6,167.6,36.9,167.6,35.3z"/>
		<path class="st1" d="M176.8,32.8c-1.4,0-2.2,0.6-2.7,1.2l-2-1.7c1.2-1.4,3-2,5.1-2c2,0,4.2,0.5,4.2,3.1V37c0,0.8,0.3,1,0.7,1
			c0.2,0,0.4,0,0.5-0.1h0.1L182,40c-0.3,0.1-0.8,0.2-1.3,0.2c-0.9,0-2-0.3-2.3-1.3c-0.8,1-1.9,1.4-3.3,1.4c-1.9,0-3.2-0.8-3.2-2.7
			c0-2.7,2.8-3.3,6.4-3.5C178.3,33.2,178.1,32.8,176.8,32.8z M178.4,36.1c-2,0-3.3,0.4-3.3,1.3c0,0.5,0.4,0.7,0.9,0.7
			C177,38.1,178.4,37.4,178.4,36.1z"/>
		<path class="st1" d="M184.2,30.6h3.2l0,1.2c0.5-0.8,1.3-1.3,2.2-1.3c0.8,0,1.3,0.2,1.6,0.5l-1.3,2.9h0c-0.3-0.3-0.6-0.4-1-0.4
			c-0.9,0-1.3,0.6-1.3,1.8v4.9h-3.2V30.6z"/>
		<path class="st1" d="M196.5,32.8c-1.4,0-2.2,0.6-2.7,1.2l-2-1.7c1.2-1.4,3-2,5.1-2c2,0,4.2,0.5,4.2,3.1V37c0,0.8,0.3,1,0.7,1
			c0.2,0,0.4,0,0.5-0.1h0.1l-0.6,2.1c-0.3,0.1-0.8,0.2-1.3,0.2c-0.9,0-2-0.3-2.3-1.3c-0.8,1-1.9,1.4-3.3,1.4c-1.9,0-3.2-0.8-3.2-2.7
			c0-2.7,2.8-3.3,6.4-3.5C198.1,33.2,197.9,32.8,196.5,32.8z M198.1,36.1c-2,0-3.3,0.4-3.3,1.3c0,0.5,0.4,0.7,0.9,0.7
			C196.8,38.1,198.1,37.4,198.1,36.1z"/>
		<path class="st1" d="M51.6,46h3.2v13.9h-3.2V46z"/>
		<path class="st1" d="M61.5,52.7c-1.4,0-2.2,0.6-2.7,1.2l-2-1.7c1.2-1.4,3-2,5.1-2c2,0,4.2,0.5,4.2,3.1v3.6c0,0.8,0.3,1,0.7,1
			c0.2,0,0.4,0,0.5-0.1h0.1l-0.6,2.1c-0.3,0.1-0.8,0.2-1.3,0.2c-0.9,0-2-0.3-2.3-1.3c-0.8,1-1.9,1.4-3.3,1.4c-1.9,0-3.2-0.8-3.2-2.7
			c0-2.7,2.8-3.3,6.4-3.5C63,53,62.8,52.7,61.5,52.7z M63.1,56c-2,0-3.3,0.4-3.3,1.3c0,0.5,0.4,0.7,0.9,0.7
			C61.7,57.9,63.1,57.2,63.1,56z"/>
		<path class="st1" d="M73.7,46h6.1c4.6,0,7.5,2.5,7.5,6.8c0,4.2-2.6,7.1-7.6,7.1h-6V46z M80,57c2.1,0,3.6-1.3,3.6-4
			c0-2.8-1.5-4-3.6-4h-2.7v8H80z"/>
		<path class="st1" d="M89.3,46h3.2v3.1h-3.2V46z M89.3,50.4h3.2v9.5h-3.2V50.4z"/>
		<path class="st1" d="M99.2,52.7c-1.4,0-2.2,0.6-2.7,1.2l-2-1.7c1.2-1.4,3-2,5.1-2c2,0,4.2,0.5,4.2,3.1v3.6c0,0.8,0.3,1,0.7,1
			c0.2,0,0.4,0,0.5-0.1h0.1l-0.6,2.1c-0.3,0.1-0.8,0.2-1.3,0.2c-0.9,0-2-0.3-2.3-1.3c-0.8,1-1.9,1.4-3.3,1.4c-1.9,0-3.2-0.8-3.2-2.7
			c0-2.7,2.8-3.3,6.4-3.5C100.7,53,100.5,52.7,99.2,52.7z M100.7,56c-2,0-3.3,0.4-3.3,1.3c0,0.5,0.4,0.7,0.9,0.7
			C99.4,57.9,100.7,57.2,100.7,56z"/>
		<path class="st1" d="M109.8,58.5l0,1.4h-3.2V46h3.2v5.7c0.5-0.8,1.3-1.5,2.9-1.5c2.5,0,4,1.8,4,5c0,3.2-1.4,5.1-3.8,5.1
			C111.4,60.2,110.4,59.6,109.8,58.5z M113.4,55.1c0-1.6-0.6-2.4-1.8-2.4c-1.1,0-1.9,1-1.9,2.4s0.8,2.4,1.9,2.4
			C112.8,57.5,113.4,56.7,113.4,55.1z"/>
		<path class="st1" d="M123,57.7c1,0,1.7-0.2,2.2-1.2l2.7,0.9c-0.9,1.9-2.6,2.8-4.9,2.8c-3,0-5.2-1.8-5.2-5c0-3.2,2-5.1,5.1-5.1
			c2.4,0,5.3,1.4,5,5.8H121C121.2,57.1,121.9,57.7,123,57.7z M124.8,54.1c-0.1-0.9-0.7-1.4-1.9-1.4c-1,0-1.7,0.3-2,1.4H124.8z"/>
		<path class="st1" d="M128.7,53v-2.6h1.5v-1.3c0.9-0.6,2.1-1.5,3.1-2.4h0.1v3.8h2V53h-2v3.5c0,0.5,0.1,0.8,0.7,0.8
			c0.4,0,0.7-0.1,0.9-0.2h0v2.7c-0.4,0.1-1.2,0.4-2.1,0.4c-1,0-1.8-0.2-2.2-0.7c-0.4-0.4-0.6-1.1-0.6-2.1V53H128.7z"/>
		<path class="st1" d="M141.8,57.7c1,0,1.7-0.2,2.2-1.2l2.7,0.9c-0.9,1.9-2.6,2.8-4.9,2.8c-3,0-5.2-1.8-5.2-5c0-3.2,2-5.1,5.1-5.1
			c2.4,0,5.3,1.4,5,5.8h-6.9C140,57.1,140.7,57.7,141.8,57.7z M143.6,54.1c-0.1-0.9-0.7-1.4-1.9-1.4c-1,0-1.7,0.3-2,1.4H143.6z"/>
		<path class="st1" d="M147.3,58.5l1.7-1.9c0.8,0.6,1.6,1.1,3.3,1.1c1.2,0,1.5-0.2,1.5-0.6c0-0.5-0.4-0.4-2.1-0.6
			c-2.4-0.3-4-0.9-4-3.2c0-2.2,2-3.1,4.5-3.1c2.1,0,3.6,0.5,4.4,1l-1.5,2.1c-0.6-0.4-1.4-0.8-3-0.8c-1.3,0-1.4,0.3-1.4,0.6
			c0,0.3,0.3,0.5,1.8,0.6c2.2,0.2,4.5,0.6,4.5,3.2c0,2.3-1.7,3.3-4.5,3.3C150.1,60.2,148.4,59.6,147.3,58.5z"/>
	</g>
</g>
</svg>
