<?xml version="1.0" encoding="utf-8"?><!DOCTYPE svg PUBLIC "-//W3C//DTD SVG 1.1//EN" "http://www.w3.org/Graphics/SVG/1.1/DTD/svg11.dtd"><svg version="1" xmlns="http://www.w3.org/2000/svg" width="800" height="400"><defs id="_ABSTRACT_RENDERER_ID_6"><filter id="_ABSTRACT_RENDERER_ID_7"><feGaussianBlur in="SourceAlpha" stdDeviation="2"></feGaussianBlur><feOffset dx="1" dy="1"></feOffset><feComponentTransfer><feFuncA type="linear" slope="0.1"></feFuncA></feComponentTransfer><feMerge><feMergeNode></feMergeNode><feMergeNode in="SourceGraphic"></feMergeNode></feMerge></filter></defs><rect x="0" y="0" width="800" height="400" stroke="none" stroke-width="0" fill="#ffffff"></rect><g><rect x="484" y="77" width="183" height="135" stroke="none" stroke-width="0" fill-opacity="0" fill="#ffffff"></rect><g column-id="Eccesso del cibo"><rect x="484" y="77" width="183" height="13" stroke="none" stroke-width="0" fill-opacity="0" fill="#ffffff"></rect><g><text text-anchor="start" x="502" y="88.05" font-family="Arial" font-size="13" stroke="none" stroke-width="0" fill="#222222">Eccesso del cibo</text></g><circle cx="490.5" cy="83.5" r="6.5" stroke="none" stroke-width="0" fill="#4285f4"></circle></g><g column-id="Mancanza della produzione dei chetoni"><rect x="484" y="98" width="183" height="30" stroke="none" stroke-width="0" fill-opacity="0" fill="#ffffff"></rect><g><text text-anchor="start" x="502" y="109.05" font-family="Arial" font-size="13" stroke="none" stroke-width="0" fill="#222222">Mancanza della produzione</text><text text-anchor="start" x="502" y="126.05" font-family="Arial" font-size="13" stroke="none" stroke-width="0" fill="#222222">dei chetoni</text></g><circle cx="490.5" cy="104.5" r="6.5" stroke="none" stroke-width="0" fill="#db4437"></circle></g><g column-id=" Predisposizione genetica"><rect x="484" y="136" width="183" height="13" stroke="none" stroke-width="0" fill-opacity="0" fill="#ffffff"></rect><g><text text-anchor="start" x="502" y="147.05" font-family="Arial" font-size="13" stroke="none" stroke-width="0" fill="#222222">Predisposizione genetica</text></g><circle cx="490.5" cy="142.5" r="6.5" stroke="none" stroke-width="0" fill="#f4b400"></circle></g><g column-id="Fattori ecologici e sociali"><rect x="484" y="157" width="183" height="13" stroke="none" stroke-width="0" fill-opacity="0" fill="#ffffff"></rect><g><text text-anchor="start" x="502" y="168.05" font-family="Arial" font-size="13" stroke="none" stroke-width="0" fill="#222222">Fattori ecologici e sociali</text></g><circle cx="490.5" cy="163.5" r="6.5" stroke="none" stroke-width="0" fill="#0f9d58"></circle></g><g column-id="Fattori ormonali"><rect x="484" y="178" width="183" height="13" stroke="none" stroke-width="0" fill-opacity="0" fill="#ffffff"></rect><g><text text-anchor="start" x="502" y="189.05" font-family="Arial" font-size="13" stroke="none" stroke-width="0" fill="#222222">Fattori ormonali</text></g><circle cx="490.5" cy="184.5" r="6.5" stroke="none" stroke-width="0" fill="#00acc1"></circle></g><g column-id="Altre cause"><rect x="484" y="199" width="183" height="13" stroke="none" stroke-width="0" fill-opacity="0" fill="#ffffff"></rect><g><text text-anchor="start" x="502" y="210.05" font-family="Arial" font-size="13" stroke="none" stroke-width="0" fill="#222222">Altre cause</text></g><circle cx="490.5" cy="205.5" r="6.5" stroke="none" stroke-width="0" fill="#ff7043"></circle></g></g><g><path d="M299,201L299,78A123,123,0,0,1,348.25583039510576,88.29302074809841L299,201A0,0,0,0,0,299,201" stroke="#ffffff" stroke-width="1" fill="#4285f4"></path><text text-anchor="start" x="304.4052248370301" y="107.90361238026857" font-family="Arial" font-size="13" stroke="none" stroke-width="0" fill="#ffffff">6.6%</text></g><g><path d="M299,201L348.25583039510576,88.29302074809841A123,123,0,0,1,389.2679000711605,117.44937931563294L299,201A0,0,0,0,0,299,201" stroke="#ffffff" stroke-width="1" fill="#db4437"></path><text text-anchor="start" x="339.442054962358" y="127.5638064966817" font-family="Arial" font-size="13" stroke="none" stroke-width="0" fill="#ffffff">6.6%</text></g><g><path d="M299,201L389.2679000711605,117.44937931563294A123,123,0,0,1,415.1721751403903,160.58928702496735L299,201A0,0,0,0,0,299,201" stroke="#ffffff" stroke-width="1" fill="#f4b400"></path><text text-anchor="start" x="364.3930732945104" y="157.2762693672581" font-family="Arial" font-size="13" stroke="none" stroke-width="0" fill="#ffffff">6.6%</text></g><g><path d="M299,201L415.1721751403903,160.58928702496735A123,123,0,0,1,421.6331557531688,210.4925818415775L299,201A0,0,0,0,0,299,201" stroke="#ffffff" stroke-width="1" fill="#0f9d58"></path><text text-anchor="start" x="377.41696033621037" y="193.45530421177614" font-family="Arial" font-size="13" stroke="none" stroke-width="0" fill="#ffffff">6.6%</text></g><g><path d="M299,201L421.6331557531688,210.4925818415775A123,123,0,0,1,401.0502726669721,269.66397780930436L299,201A0,0,0,0,0,299,201" stroke="#ffffff" stroke-width="1" fill="#00acc1"></path><text text-anchor="start" x="372.4896391804325" y="236.33128997639292" font-family="Arial" font-size="13" stroke="none" stroke-width="0" fill="#ffffff">8.2%</text></g><g><path d="M299,201L401.0502726669721,269.66397780930436A123,123,0,1,1,299,78L299,201A0,0,0,1,0,299,201" stroke="#ffffff" stroke-width="1" fill="#ff7043"></path><text text-anchor="start" x="200.55062885127728" y="248.1185369704564" font-family="Arial" font-size="13" stroke="none" stroke-width="0" fill="#ffffff">65.6%</text></g><g></g></svg>