<svg width="38" height="38" viewBox="0 0 38 38" fill="none" xmlns="http://www.w3.org/2000/svg">
<path d="M18.9999 35.6668C28.2047 35.6668 35.6666 28.2049 35.6666 19.0002C35.6666 9.79542 28.2047 2.3335 18.9999 2.3335C9.79517 2.3335 2.33325 9.79542 2.33325 19.0002C2.33325 28.2049 9.79517 35.6668 18.9999 35.6668Z" fill="white"/>
<path d="M19.0002 35.6668C28.2049 35.6668 35.6668 28.2049 35.6668 19.0002C35.6668 9.79542 28.2049 2.3335 19.0002 2.3335C9.79542 2.3335 2.3335 9.79542 2.3335 19.0002C2.3335 28.2049 9.79542 35.6668 19.0002 35.6668Z" stroke="black" stroke-width="3" stroke-linecap="round" stroke-linejoin="round"/>
<path d="M24 14L14 24" stroke="black" stroke-width="3" stroke-linecap="round" stroke-linejoin="round"/>
<path d="M14 14L24 24" stroke="black" stroke-width="3" stroke-linecap="round" stroke-linejoin="round"/>
</svg>
