<svg width="120" height="38" viewBox="0 0 120 38" fill="none" xmlns="http://www.w3.org/2000/svg">
<g clip-path="url(#clip0_6_324)">
<path d="M55.9091 0.756836C56.0606 0.756836 56.2121 0.756836 56.3637 0.90823C56.5152 1.05962 56.5152 1.21102 56.5152 1.36241V4.99588C56.5152 5.14727 56.5152 5.29867 56.3637 5.45006C56.2121 5.60146 56.0606 5.60146 55.9091 5.60146H52.2727V15.7449C52.2727 15.8963 52.2727 16.0477 52.1212 16.1991C51.9697 16.3505 51.8182 16.3505 51.6667 16.3505H47.2727C47.1212 16.3505 46.9697 16.3505 46.8182 16.1991C46.6667 16.0477 46.6667 15.8963 46.6667 15.7449V5.45006H43.0303C42.8788 5.45006 42.7273 5.45006 42.5758 5.29867C42.4243 5.14727 42.4243 4.99588 42.4243 4.84449V1.36241C42.4243 1.21102 42.4243 1.05962 42.5758 0.90823C42.7273 0.756836 42.8788 0.756836 43.0303 0.756836H55.9091Z" fill="white"/>
<path d="M72.4243 6.66127C72.4243 7.26685 72.4243 8.02382 72.4243 8.6294C72.4243 9.38637 72.4243 9.99195 72.4243 10.5975C72.4243 11.6573 72.1212 12.4143 71.8182 13.1712C71.5152 13.9282 70.9091 14.5338 70.3031 14.988C69.697 15.4421 68.9394 15.8963 68.0303 16.0477C67.1212 16.3505 66.2121 16.5019 65 16.5019C63.9394 16.5019 62.8788 16.3505 61.9697 16.0477C61.0606 15.7449 60.3031 15.4421 59.697 14.988C59.0909 14.5338 58.4849 13.9282 58.1818 13.1712C57.7273 12.4143 57.5758 11.5059 57.5758 10.5975C57.5758 9.99195 57.5758 9.38637 57.5758 8.6294C57.5758 7.87243 57.5758 7.26685 57.5758 6.66127C57.5758 5.75291 57.8788 4.84454 58.1818 4.08757C58.4849 3.3306 59.0909 2.72502 59.697 2.11944C60.3031 1.66526 61.0606 1.21107 61.9697 0.908285C62.8788 0.605496 63.7879 0.454102 65 0.454102C66.0606 0.454102 67.1212 0.605496 68.0303 0.908285C68.7879 1.21107 69.697 1.51386 70.3031 2.11944C70.9091 2.57362 71.5152 3.3306 71.8182 4.08757C72.1212 4.69314 72.4243 5.60151 72.4243 6.66127ZM63.3333 10.4461C63.3333 11.0517 63.4849 11.5059 63.7879 11.8087C64.0909 12.1115 64.394 12.2629 65 12.2629C65.4546 12.2629 65.9091 12.1115 66.2121 11.8087C66.5152 11.5059 66.6667 11.0517 66.6667 10.4461C66.6667 9.23498 66.6667 7.87243 66.6667 6.66127C66.6667 6.05569 66.5152 5.60151 66.2121 5.29872C65.9091 4.99593 65.4546 4.84454 65 4.84454C64.5455 4.84454 64.0909 4.99593 63.7879 5.29872C63.4849 5.60151 63.3333 6.05569 63.3333 6.66127C63.3333 7.87243 63.3333 9.08358 63.3333 10.4461Z" fill="white"/>
<path d="M81.5152 0.756836C82.5758 0.756836 83.4849 0.90823 84.394 1.21102C85.303 1.51381 86.0606 1.8166 86.6667 2.42217C87.2727 3.02775 87.8788 3.63333 88.1818 4.3903C88.6364 5.14727 88.7879 6.05564 88.7879 6.96401C88.7879 7.2668 88.7879 7.56958 88.7879 7.87237C88.7879 8.17516 88.7879 8.47795 88.7879 8.62935C88.7879 8.93213 88.7879 9.08353 88.7879 9.38632C88.7879 9.68911 88.7879 9.9919 88.7879 10.2947C88.7879 11.3544 88.4849 12.2628 88.1818 13.0198C87.8788 13.7768 87.2727 14.3823 86.6667 14.9879C86.0606 15.4421 85.303 15.8963 84.394 16.0477C83.4849 16.3505 82.5758 16.3505 81.5152 16.3505H75C74.8485 16.3505 74.697 16.3505 74.5455 16.1991C74.394 16.0477 74.394 15.8963 74.394 15.7449V1.36241C74.394 1.21102 74.394 1.05962 74.5455 0.90823C74.697 0.756836 74.8485 0.756836 75 0.756836H81.5152ZM83.3333 6.81261C83.3333 6.20704 83.1818 5.75285 82.7273 5.45006C82.4243 5.14727 81.9697 4.99588 81.3637 4.99588H80V11.96H81.5152C81.9697 11.96 82.4243 11.8086 82.7273 11.5058C83.0303 11.2031 83.1818 10.7489 83.3333 10.1433C83.3333 9.8405 83.3333 9.53771 83.3333 9.23492C83.3333 8.93213 83.3333 8.62935 83.3333 8.47795C83.3333 8.17516 83.3333 8.02377 83.3333 7.72098C83.3333 7.41819 83.3333 7.1154 83.3333 6.81261Z" fill="white"/>
<path d="M100.152 0.756836C100.455 0.756836 100.606 0.90823 100.909 1.05962C101.061 1.21102 101.212 1.36241 101.212 1.51381L106.212 15.7449V15.8963C106.212 16.0477 106.212 16.1991 106.061 16.1991C105.909 16.3505 105.909 16.3505 105.758 16.3505H101.515C101.212 16.3505 101.061 16.3505 100.909 16.1991C100.758 16.0477 100.758 15.8963 100.606 15.8963L100 14.3823H95.1515L94.5455 15.8963C94.5455 16.0477 94.3939 16.1991 94.2424 16.1991C94.0909 16.3505 93.9394 16.3505 93.6364 16.3505H89.5455C89.3939 16.3505 89.2424 16.3505 89.2424 16.1991C89.3939 16.0477 89.3939 15.8963 89.3939 15.7449V15.5935L94.3939 1.51381C94.3939 1.36241 94.5455 1.21102 94.697 1.05962C94.8485 0.90823 95.1515 0.756836 95.4546 0.756836H100.152ZM98.9394 9.9919L97.7273 5.90425L96.5152 9.9919H98.9394Z" fill="white"/>
<path d="M109.849 16.3505C109.697 16.3505 109.545 16.3505 109.394 16.1991C109.242 16.0477 109.242 15.8963 109.242 15.7449V11.3544L104.242 1.51381V1.36241C104.242 1.21102 104.242 1.05962 104.394 1.05962C104.545 0.756836 104.545 0.756836 104.697 0.756836H108.939C109.242 0.756836 109.394 0.756836 109.545 0.90823C109.697 1.05962 109.849 1.21102 109.849 1.21102L112.121 5.75285L114.394 1.21102C114.394 1.21102 114.545 1.05962 114.697 0.90823C114.849 0.756836 115 0.756836 115.303 0.756836H119.545C119.697 0.756836 119.849 0.756836 119.849 0.90823C120 1.05962 120 1.05962 120 1.21102V1.36241L115 11.2031V15.5935C115 15.7449 115 15.8963 114.849 16.0477C114.697 16.1991 114.545 16.1991 114.394 16.1991H109.849V16.3505Z" fill="white"/>
<path d="M59.3939 19.2271C59.5454 19.2271 59.697 19.2271 59.8485 19.3784C60 19.5298 60 19.6812 60 19.8326V36.9402C60 37.0916 60 37.243 59.8485 37.3944C59.697 37.5458 59.5454 37.5458 59.3939 37.5458H55.1515C54.8485 37.5458 54.5454 37.3944 54.3939 37.243C54.2424 37.0916 54.0909 36.9402 54.0909 36.9402L49.697 30.2788V36.9402C49.697 37.0916 49.697 37.243 49.5454 37.3944C49.3939 37.5458 49.2424 37.5458 49.0909 37.5458H44.2424C44.0909 37.5458 43.9394 37.5458 43.7879 37.3944C43.6364 37.243 43.6364 37.0916 43.6364 36.9402V19.984C43.6364 19.8326 43.6364 19.6812 43.7879 19.5298C43.9394 19.3784 44.0909 19.3784 44.2424 19.3784H48.4848C48.7879 19.3784 49.0909 19.5298 49.2424 19.6812C49.3939 19.8326 49.5454 19.984 49.5454 19.984L53.9394 27.251V19.984C53.9394 19.8326 53.9394 19.6812 54.0909 19.5298C54.2424 19.3784 54.3939 19.3784 54.5454 19.3784H59.3939V19.2271Z" fill="white"/>
<path d="M77.4242 32.5497C77.5757 32.5497 77.7273 32.5497 77.8788 32.7011C78.0303 32.8525 78.0303 33.0039 78.0303 33.1553V36.9402C78.0303 37.0916 78.0303 37.243 77.8788 37.3944C77.7273 37.5457 77.5757 37.5457 77.4242 37.5457H63.6363C63.4848 37.5457 63.3333 37.5457 63.1818 37.3944C63.0303 37.243 63.0303 37.0916 63.0303 36.9402V19.984C63.0303 19.8326 63.0303 19.6812 63.1818 19.5298C63.3333 19.3784 63.4848 19.3784 63.6363 19.3784H77.2727C77.4242 19.3784 77.5757 19.3784 77.7272 19.5298C77.8788 19.6812 77.8788 19.8326 77.8788 19.984V23.7689C77.8788 23.9203 77.8788 24.0716 77.7272 24.223C77.5757 24.3744 77.4242 24.3744 77.2727 24.3744H69.3939V26.0398H76.6666C76.8182 26.0398 76.9697 26.0398 77.1212 26.1912C77.2727 26.3426 77.2727 26.494 77.2727 26.6454V30.1274C77.2727 30.2788 77.2727 30.4302 77.1212 30.5816C76.9697 30.733 76.8182 30.733 76.6666 30.733H69.3939V32.3983H77.4242V32.5497Z" fill="white"/>
<path d="M90.4545 31.49L88.3333 36.9402C88.3333 37.0916 88.1818 37.243 88.0303 37.3944C87.8788 37.5458 87.5758 37.6972 87.2727 37.6972H83.4848C83.1818 37.6972 82.8788 37.5458 82.5758 37.3944C82.4242 37.243 82.2727 36.9402 82.2727 36.6374L79.8485 19.8327V19.6813C79.8485 19.5299 79.8485 19.3785 80 19.2271C80.1515 19.0757 80.303 19.0757 80.4545 19.0757H85.303C85.6061 19.0757 85.7576 19.0757 85.9091 19.2271C86.0606 19.3785 86.2121 19.5299 86.2121 19.8327L87.1212 27.251L88.1818 23.9203C88.1818 23.7689 88.3333 23.6175 88.4848 23.4661C88.6364 23.3147 88.7879 23.1633 89.0909 23.1633H91.8182C92.1212 23.1633 92.4242 23.3147 92.4242 23.4661C92.5758 23.6175 92.5758 23.7689 92.7273 23.9203L93.7879 27.251L94.697 19.8327C94.697 19.5299 94.8485 19.3785 95 19.2271C95.1515 19.0757 95.303 19.0757 95.6061 19.0757H100.455C100.606 19.0757 100.758 19.0757 100.909 19.2271C101.061 19.3785 101.061 19.5299 101.061 19.6813V19.8327L98.6364 36.6374C98.6364 36.9402 98.4848 37.0916 98.3333 37.3944C98.1818 37.5458 97.8788 37.6972 97.4242 37.6972H93.6364C93.3333 37.6972 93.0303 37.5458 92.8788 37.3944C92.7273 37.243 92.5758 37.0916 92.5758 36.9402L90.4545 31.49Z" fill="white"/>
<path d="M110.758 18.9243C112.121 18.9243 113.182 19.0757 114.242 19.3785C115.303 19.6813 116.061 20.1355 116.818 20.741C117.576 21.3466 118.03 21.8008 118.485 22.5578C118.788 23.1634 119.091 23.7689 119.091 24.3745C119.091 24.5259 119.091 24.6773 118.939 24.8287C118.788 24.9801 118.636 24.9801 118.485 24.9801H113.182C112.879 24.9801 112.727 24.9801 112.576 24.8287C112.424 24.8287 112.273 24.6773 112.121 24.5259C111.97 24.3745 111.818 24.3745 111.667 24.2231C111.364 24.0717 111.061 24.0717 110.758 24.0717C110.303 24.0717 110 24.0717 109.848 24.2231C109.697 24.3745 109.545 24.5259 109.545 24.8287C109.545 24.9801 109.545 25.1315 109.697 25.1315C109.848 25.2829 110 25.2829 110.151 25.4343C110.303 25.5857 110.606 25.5857 111.061 25.7371C111.515 25.8885 111.97 25.8885 112.576 25.8885C113.939 26.0399 115 26.3426 115.909 26.6454C116.818 26.9482 117.576 27.4024 118.182 27.8566C118.788 28.3108 119.242 28.9163 119.394 29.5219C119.697 30.1275 119.848 30.8845 119.848 31.7928C119.848 32.7012 119.697 33.6096 119.242 34.3665C118.788 35.1235 118.182 35.7291 117.424 36.3347C116.667 36.9403 115.758 37.243 114.697 37.5458C113.636 37.8486 112.424 38 111.212 38C109.697 38 108.485 37.8486 107.424 37.5458C106.364 37.243 105.455 36.7889 104.697 36.3347C103.939 35.8805 103.485 35.2749 103.03 34.5179C102.727 33.9124 102.424 33.1554 102.424 32.3984C102.424 32.247 102.424 32.0956 102.576 31.9442C102.727 31.7928 102.879 31.7928 103.03 31.7928H108.03C108.333 31.7928 108.485 31.7928 108.636 31.9442C108.788 32.0956 108.939 32.0956 109.091 32.247C109.394 32.3984 109.545 32.5498 109.848 32.7012C110.152 32.8526 110.606 32.8526 110.909 32.8526C111.515 32.8526 111.97 32.8526 112.424 32.7012C112.727 32.5498 113.03 32.3984 113.03 32.0956C113.03 31.7928 112.727 31.4901 112.273 31.3387C111.818 31.1873 110.909 31.0359 109.545 30.8845C108.485 30.7331 107.576 30.5817 106.667 30.2789C105.758 29.9761 105.152 29.6733 104.545 29.0677C103.939 28.6136 103.485 28.008 103.182 27.4024C102.879 26.7968 102.727 26.0399 102.727 25.1315C102.727 24.2231 102.879 23.4661 103.333 22.7092C103.788 21.9522 104.242 21.3466 105 20.741C105.758 20.2869 106.515 19.8327 107.576 19.5299C108.485 19.0757 109.545 18.9243 110.758 18.9243Z" fill="white"/>
<path d="M20.1515 17.4104L15.6061 9.99203C15.6061 9.84064 15.4545 9.84064 15.303 9.53785C15.1515 9.38645 14.8485 9.23506 14.5455 9.23506H10.4545C10.303 9.23506 10.1515 9.38645 10 9.38645C9.69697 9.68924 9.69697 9.84064 9.69697 10.1434V38H3.18182C1.36364 38 0 36.4861 0 34.8207V3.33068C0 1.51394 1.51515 0 3.18182 0H20.1515V17.4104Z" fill="white"/>
<path d="M36.2121 3.33068V34.8207C36.2121 36.6374 34.697 38 33.0303 38H15.9091V20.5896L20.4545 27.4024C20.4545 27.5538 20.6061 27.5538 20.7576 27.7052C20.9091 27.8566 21.2121 28.008 21.5151 28.008H25.7576C25.9091 28.008 26.0606 28.008 26.2121 27.8566C26.3636 27.7052 26.3636 27.5538 26.3636 27.4024V0H32.7273C34.697 0 36.2121 1.51394 36.2121 3.33068Z" fill="white"/>
</g>
<defs>
<clipPath id="clip0_6_324">
<rect width="120" height="38" fill="white"/>
</clipPath>
</defs>
</svg>
