<svg width="22" height="18" viewBox="0 0 22 18" fill="none" xmlns="http://www.w3.org/2000/svg">
<path d="M19.0354 4.85345C19.0493 5.04095 19.0493 5.22738 19.0493 5.41381C19.0493 11.1192 14.7068 17.6935 6.77074 17.6935C4.32574 17.6935 2.05431 16.9852 0.142883 15.7552C0.490026 15.7949 0.824312 15.8088 1.18538 15.8088C3.20288 15.8088 5.05967 15.1274 6.5436 13.9649C4.6461 13.9252 3.0561 12.6824 2.50753 10.9724C2.77431 11.012 3.04217 11.0388 3.32288 11.0388C3.70967 11.0388 4.0986 10.9852 4.45967 10.892C2.48074 10.4913 0.998955 8.75452 0.998955 6.65667V6.60309C1.57431 6.92345 2.24181 7.12381 2.94895 7.15059C1.78645 6.37702 1.02467 5.05381 1.02467 3.55702C1.02467 2.75559 1.23788 2.02059 1.61181 1.37988C3.73646 3.99738 6.93038 5.70845 10.5111 5.89595C10.4447 5.57452 10.404 5.24131 10.404 4.90702C10.404 2.52845 12.3282 0.591309 14.7197 0.591309C15.9625 0.591309 17.0843 1.11202 17.8729 1.95417C18.8479 1.76667 19.7822 1.40559 20.6115 0.911665C20.2911 1.91345 19.6086 2.75559 18.714 3.29024C19.5829 3.19595 20.425 2.95595 21.1986 2.62167C20.6115 3.47667 19.8775 4.23845 19.0354 4.85345Z" fill="#5B5B5B"/>
</svg>
