<svg xmlns="http://www.w3.org/2000/svg" width="21" height="24" viewBox="0 0 21 24"><g><g><path fill="#5788bf" d="M20.364 18.154c.444.562.636 1.187.56 1.805-.076.616-.41 1.179-.968 1.634-.243.198-.49.385-.73.563-.353.264-.688.514-.988.794-.006.01-.016.016-.022.024-.863.731-1.885 1.023-3.04.881-.1-.012-.21-.032-.315-.047-1.703-.317-3.16-1.15-4.244-1.833-2.834-1.822-5.218-4.202-7.088-7.076-1.54-2.386-2.503-4.55-3.045-6.828C.264 7.14 0 5.734.3 4.291a3.664 3.664 0 0 1 1.372-2.182L3.584.604l.01-.008c.56-.415 1.182-.599 1.793-.524.61.074 1.16.4 1.586.939.288.34.564.695.827 1.044.13.178.27.357.407.529l1.198 1.528c.922 1.17.755 2.529-.425 3.448-.157.122-.315.252-.473.371-.416.331-.845.673-1.301.995.222.71.561 1.428 1.09 2.287 1.096 1.738 2.292 3.127 3.658 4.242.134.111.293.215.463.328.117.079.239.16.36.248l1.775-1.377c.568-.447 1.191-.634 1.807-.561.62.076 1.172.42 1.596.98zm-1.077.826l-2.42-3.087-.008-.007c-.134-.19-.365-.415-.676-.455-.315-.035-.61.135-.802.284L13.46 17.21c-.096.075-.388.306-.804.253a1.09 1.09 0 0 1-.48-.188c-.018-.01-.036-.028-.055-.04a6.612 6.612 0 0 0-.463-.326 6.355 6.355 0 0 1-.575-.408c-1.481-1.207-2.775-2.707-3.947-4.576l-.005-.004C6.49 10.867 6.088 10 5.84 9.098l-.01-.046c-.055-.295-.083-.726.4-1.102.006-.009.017-.012.028-.019.483-.335.933-.688 1.406-1.062.162-.122.32-.249.483-.38.596-.46.656-.95.19-1.543L7.139 3.422c-.14-.187-.28-.364-.415-.544-.267-.352-.521-.683-.791-1.001-.005-.009-.01-.011-.014-.018-.14-.18-.372-.4-.687-.44-.256-.03-.53.061-.805.261L2.51 3.17a2.305 2.305 0 0 0-.873 1.398c-.187.904-.136 1.888.176 3.19.505 2.127 1.413 4.158 2.867 6.417 1.764 2.707 4.012 4.952 6.676 6.664.975.621 2.285 1.367 3.76 1.645.074.013.154.021.23.033.78.094 1.407-.085 1.979-.565.355-.325.725-.608 1.089-.877.241-.182.465-.35.685-.534-.005.004-.004 0 0 0 .576-.465.64-.987.188-1.561z"/></g></g></svg>