<svg version="1.1" id="Слой_1" xmlns="http://www.w3.org/2000/svg" xmlns:xlink="http://www.w3.org/1999/xlink" x="0px" y="0px"
	 viewBox="0 0 2700 2450" style="enable-background:new 0 0 2700 2450;" xml:space="preserve">
<style type="text/css">
	.st0{fill:#15b093;}
</style>
<g>
	<g>
		<path class="st0" d="M1803.6,2c0.1,34.3,0.1,68.7,0.2,103c0,78.7,0,157.3,0,236c0,3.6,0,7.3,0,11.8
			c-499.6,291.2-999.2,582.4-1498.9,873.6c6.4,7,1435.2,841.5,1499.2,875.7c298.3-174,597.1-348.4,897.2-523.4
			c0,117.4,0,233.2,0,349.9c-3.2,2-7.1,4.5-11.1,6.8c-160.6,93.7-321.2,187.3-481.7,281c-132.1,77.1-264.2,154.2-396.2,231.2
			c-2.3,1.3-4.4,2.9-6.7,4.3c-1.3,0-2.7,0-4,0c-3.9-2.5-7.7-5.2-11.6-7.5c-138.7-80.8-277.4-161.7-416.1-242.5
			c-277.1-161.5-554.3-323-831.4-484.5c-176.7-103-353.4-206-530.1-308.9c-3.4-2-7.2-3.1-10.8-4.6c0-117.3,0-234.7,0-352
			c3.3-1.3,6.9-2.3,9.9-4.1c36.9-21.4,73.7-42.9,110.6-64.4c498.1-290.6,996.3-581.2,1494.4-871.8c57.3-33.4,114.5-66.8,171.8-100.2
			c3.9-2.3,8.6-4,9.3-9.5C1799.6,2,1801.6,2,1803.6,2z"/>
		<path class="st0" d="M2103.1,877.7c-299.9,175.1-599.6,350.2-899.9,525.5c-99.5-58.3-198.7-116.5-299.9-175.7
			C1304,993.7,1703,760.9,2103.1,527.4C2103.1,644.9,2103.1,760.7,2103.1,877.7z"/>
		<path class="st0" d="M2403.1,1053c0,117.9,0,233.9,0,350.3c-199.6,116.6-399.2,233.2-599.3,350
			c-99.9-58.4-199.6-116.5-300.9-175.7C1803.7,1402.4,2102.6,1228.2,2403.1,1053z"/>
	</g>
</g>
</svg>
