<?xml version="1.0" encoding="utf-8"?>
<!-- Generator: Adobe Illustrator 26.1.0, SVG Export Plug-In . SVG Version: 6.00 Build 0)  -->
<svg version="1.1" id="Layer_1" xmlns="http://www.w3.org/2000/svg" xmlns:xlink="http://www.w3.org/1999/xlink" x="0px" y="0px"
	 viewBox="0 0 417.3 144.7" style="enable-background:new 0 0 417.3 144.7;" xml:space="preserve">
<style type="text/css">
	.st0{fill:#009246;}
	.st1{fill:#CE2B37;}
	.st2{fill:#F1F2F1;}
	.st3{display:none;fill:#FFFFFF;}
	.st4{fill:#FFFFFF;}
	.st5{fill:#FCFCFC;}
	.st6{font-family:'Arial-Black';}
	.st7{font-size:74.5238px;}
</style>
<path id="_31268856" class="st0" d="M40.6,36.2c0.7,0.2,4.2,1.2,7.1,1.6V24c0-9.7,7.9-17.6,17.6-17.6h32.8v1.2
	C91,40.8,77.8,70.3,40.6,36.2z M46,100.7H21.3c-9.7,0-17.6-7.9-17.6-17.6V50.4h43.6C54.9,68.1,54.5,85.8,46,100.7z"/>
<path id="_31268688" class="st1" d="M142.1,67.9v32.8h-44v26.4c0,9.7-7.9,17.6-17.6,17.6H47.7v-21.4c-7.8,3.1-17.3,4.6-22.2,4.7
	c38.2-13,65.2-47.2,72.6-90.7v13h26.4C134.2,50.4,142.1,58.3,142.1,67.9L142.1,67.9z"/>
<path id="_31268448" class="st2" d="M99.6,0C105.4,70.6,63.1,128,0,133.3c54.6-16.5,66.1-60.5,37.6-100C80.1,74.8,92.7,36.9,99.6,0
	L99.6,0z M66.4,26.6c5.1-2.9,11.5-1.2,14.5,3.9S82.1,42,77,45s-11.5,1.2-14.5-3.9C59.6,36,61.3,29.5,66.4,26.6z"/>
<g>
	<path class="st3" d="M162.4,31.6h11.5l9.5,18.4l9.3-18.4h11.5v38h-11.5V49.4l-7,13.3H181l-7.1-13.3v20.3h-11.5V31.6z"/>
	<path class="st3" d="M216.5,68.2c-2.4-1.2-4.2-2.9-5.5-5.1c-1.3-2.2-2-4.6-2-7.3c0-2.8,0.7-5.3,2-7.5c1.4-2.2,3.2-3.8,5.5-5
		c2.3-1.2,4.9-1.8,7.7-1.8c2.7,0,5.1,0.6,7,1.8c1.9,1.2,3.4,2.8,4.3,4.9c1,2,1.4,4.3,1.4,6.9c0,0.7,0,1.1-0.1,1.4l-16.6,2.2
		c0.4,1.3,1.2,2.2,2.2,2.8c1,0.6,2.3,0.9,3.9,0.9c2.5,0,5.2-0.6,8.1-1.9l1.4,7.4c-3.4,1.5-7.2,2.3-11.3,2.3
		C221.5,70.1,218.8,69.4,216.5,68.2z M228.4,51.7c-0.6-2.3-2-3.5-4.2-3.5c-1.3,0-2.4,0.5-3.1,1.5c-0.8,1-1.2,2.3-1.2,3.9L228.4,51.7
		z"/>
	<path class="st3" d="M246.3,68.1c-2-1.3-3.7-3.1-4.8-5.3c-1.2-2.2-1.8-4.5-1.8-7c0-2.6,0.6-5,1.9-7.2c1.2-2.2,2.9-3.9,5-5.2
		c2.1-1.3,4.3-1.9,6.7-1.9c2.1,0,3.9,0.4,5.4,1.3c1.5,0.9,2.7,2.3,3.6,4.3V33.2l11.6-1.7v38.1h-11.6v-5.1c-1.7,3.7-4.8,5.6-9.1,5.6
		C250.6,70.1,248.3,69.4,246.3,68.1z M260.6,59.7c1-1.1,1.6-2.4,1.6-3.9v-0.2c0-1.4-0.6-2.7-1.7-3.7c-1.1-1-2.4-1.6-3.8-1.6
		c-1.5,0-2.8,0.5-3.9,1.6c-1,1.1-1.6,2.4-1.6,3.9c0,1.5,0.5,2.9,1.6,3.9c1.1,1.1,2.4,1.6,3.8,1.6C258.3,61.3,259.6,60.8,260.6,59.7z
		"/>
	<path class="st3" d="M280.8,36.2c-1.2-1.1-1.8-2.4-1.8-4c0-1.6,0.6-2.9,1.9-4c1.3-1.1,2.7-1.6,4.3-1.6c1.7,0,3.2,0.6,4.4,1.7
		c1.2,1.1,1.9,2.4,1.9,3.9c0,1.6-0.6,3-1.9,4c-1.3,1.1-2.7,1.6-4.4,1.6C283.5,37.8,282,37.3,280.8,36.2z M282,67.1
		c-1.7-2-2.6-4.7-2.6-8.1V42h11.7v16.5c0,0.8,0.2,1.5,0.7,2c0.5,0.5,1.1,0.7,1.8,0.7c0.7,0,1.5-0.2,2.3-0.7l0.6,7.7
		c-0.8,0.6-1.9,1.1-3.2,1.4c-1.3,0.3-2.7,0.5-4.1,0.5C286.1,70.1,283.7,69.1,282,67.1z"/>
	<path class="st3" d="M305.5,68.3c-2.3-1.2-4-2.9-5.3-5.1c-1.3-2.2-1.9-4.6-1.9-7.4c0-2.7,0.7-5.1,2-7.2c1.3-2.2,3.1-3.9,5.4-5.1
		s4.8-1.9,7.6-1.9c3.6,0,6.4,0.7,8.4,2.2l-1,7.3c-2.1-0.6-3.8-0.9-5.2-0.9c-1.8,0-3.2,0.5-4.2,1.5c-1,1-1.5,2.4-1.5,4.1
		c0,1.7,0.5,3.1,1.5,4.1c1,1,2.4,1.5,4.1,1.5c1.5,0,3.2-0.3,5.2-0.9l1,7.7c-1.3,0.6-2.5,1.1-3.8,1.4c-1.3,0.3-2.8,0.4-4.5,0.4
		C310.3,70.1,307.7,69.5,305.5,68.3z"/>
	<path class="st3" d="M327,36.2c-1.2-1.1-1.8-2.4-1.8-4c0-1.6,0.6-2.9,1.9-4c1.3-1.1,2.7-1.6,4.3-1.6c1.7,0,3.2,0.6,4.4,1.7
		c1.2,1.1,1.9,2.4,1.9,3.9c0,1.6-0.6,3-1.9,4c-1.3,1.1-2.7,1.6-4.4,1.6C329.7,37.8,328.2,37.3,327,36.2z M328.2,67.1
		c-1.7-2-2.6-4.7-2.6-8.1V42h11.7v16.5c0,0.8,0.2,1.5,0.7,2c0.5,0.5,1.1,0.7,1.8,0.7c0.7,0,1.5-0.2,2.3-0.7l0.6,7.7
		c-0.8,0.6-1.9,1.1-3.2,1.4c-1.3,0.3-2.7,0.5-4.1,0.5C332.3,70.1,329.9,69.1,328.2,67.1z"/>
	<path class="st3" d="M345.8,42.3h11.1V48c2.1-4.3,5.5-6.4,10.2-6.4c3.5,0,6.3,1.3,8.3,3.8c2,2.5,3,6,3,10.5v13.8h-11.6v-15
		c0-1.6-0.3-2.8-1-3.6c-0.7-0.8-1.6-1.3-2.8-1.3c-0.9,0-1.7,0.3-2.6,0.9c-0.8,0.6-1.5,1.4-2.1,2.5c-0.5,1.1-0.8,2.3-0.8,3.6v12.9
		h-11.6L345.8,42.3L345.8,42.3z"/>
	<path class="st3" d="M389.3,68.2c-2.1-1.3-3.7-3-5-5.2c-1.3-2.2-1.9-4.6-1.9-7.3c0-2.7,0.6-5.1,1.9-7.2c1.3-2.2,2.9-3.8,5-5.1
		c2.1-1.2,4.3-1.8,6.7-1.8c1.9,0,3.7,0.5,5.3,1.6c1.6,1.1,2.9,2.7,3.7,4.8v-6.4h11.6v28H405v-5.1c-1.8,3.7-4.9,5.6-9.1,5.6
		C393.6,70.1,391.3,69.4,389.3,68.2z M403.3,59.8c1-1,1.6-2.3,1.7-3.7v-0.4c-0.1-1.5-0.7-2.7-1.7-3.8c-1.1-1-2.3-1.5-3.7-1.5
		c-1.5,0-2.9,0.5-3.9,1.6c-1.1,1.1-1.6,2.4-1.6,3.9c0,1.5,0.6,2.9,1.7,3.9c1.1,1.1,2.4,1.6,3.9,1.6C401,61.3,402.3,60.8,403.3,59.8z
		"/>
	<path class="st4" d="M162.4,83.7h12.8v38h-12.8V83.7z"/>
	<path class="st4" d="M188.3,92.1h-7.9v-8.4H209v8.4h-7.9v29.6h-12.9L188.3,92.1L188.3,92.1z"/>
	<path class="st4" d="M218.6,83.7h16.8l11,38h-13l-1.4-7.3h-9.8l-1.6,7.3h-12.4L218.6,83.7z M230.6,107.6L227,91l-3.8,16.6H230.6z"
		/>
	<path class="st4" d="M250,83.7h11.9v29.6h13.2v8.4H250V83.7z"/>
	<path class="st4" d="M279.7,83.7h12.8v38h-12.8V83.7z"/>
	<path class="st4" d="M306.8,83.7h16.8l11,38h-13l-1.4-7.3h-9.8l-1.6,7.3h-12.4L306.8,83.7z M318.8,107.6L315.2,91l-3.8,16.6H318.8z
		"/>
</g>
<text transform="matrix(0.9907 0 0 1 159.276 69.2107)" class="st5 st6 st7">Salute</text>
</svg>
