<svg xmlns="http://www.w3.org/2000/svg" width="209.811" height="223.902" viewBox="0 0 209.811 223.902">
  <path id="Path_152" data-name="Path 152" d="M137.369,132.75q37,0,54.625,14.75T209.619,187a54.87,54.87,0,0,1-8,29.125q-8,13.125-24.375,21T136.869,245a137.639,137.639,0,0,1-36.375-4.875Q82.619,235.25,70.119,226.25l16-31a76.577,76.577,0,0,0,23,11.625A87.92,87.92,0,0,0,135.869,211q15.25,0,24-6a19.181,19.181,0,0,0,8.75-16.75q0-11.25-9.125-17t-31.625-5.75H83.119l9-98.5h106.75V99.5h-73l-2.75,33.25Z" transform="translate(61.775 -93.083) rotate(30)" fill="rgba(255, 255, 255, 0.4)"/>
</svg>
