<?xml version="1.0" encoding="utf-8"?>
<!-- Generator: Adobe Illustrator 15.0.0, SVG Export Plug-In . SVG Version: 6.00 Build 0)  -->
<!DOCTYPE svg PUBLIC "-//W3C//DTD SVG 1.1//EN" "http://www.w3.org/Graphics/SVG/1.1/DTD/svg11.dtd">
<svg version="1.1" id="Layer_1" xmlns="http://www.w3.org/2000/svg" xmlns:xlink="http://www.w3.org/1999/xlink" x="0px" y="0px"
	 width="277.2px" height="54px" viewBox="123.324 106.302 153.548 29.068"
	 enable-background="new 123.324 106.302 153.548 29.068" xml:space="preserve">
<g>
	<g>
		<path fill="#231F20" d="M135.836,111.422v3.773c0,0.483,0.236,0.858,0.504,1.129h-2.507c0.262-0.271,0.491-0.646,0.491-1.129
			v-7.491c0-0.485-0.217-0.887-0.491-1.173h2.507c-0.284,0.287-0.504,0.724-0.504,1.173v3.092h5.163v-3.092
			c0-0.502-0.186-0.887-0.479-1.173h2.469c-0.293,0.287-0.479,0.699-0.479,1.173v7.491c0,0.457,0.205,0.858,0.485,1.129h-2.49
			c0.294-0.271,0.492-0.672,0.492-1.157v-3.746L135.836,111.422L135.836,111.422z"/>
		<path fill="#231F20" d="M151.81,116.325h-6.501c0.281-0.271,0.49-0.655,0.49-1.129v-7.491c0-0.449-0.206-0.887-0.472-1.173h6.712
			l-0.394,1.017c-0.326-0.298-0.65-0.393-1.176-0.393h-3.159v3.638c0.915,0,1.887,0,2.95,0c0.363,0,0.733-0.05,1.14-0.188
			l-0.459,1.114c-0.297-0.271-0.604-0.305-1.143-0.305h-2.487v4.268c0.628,0,0.856,0.006,1.496,0.006c0.302,0,2.62-0.009,3.57-0.686
			L151.81,116.325z"/>
		<path fill="#231F20" d="M206.166,116.325h-6.503c0.279-0.271,0.489-0.655,0.489-1.129v-7.491c0-0.449-0.202-0.887-0.47-1.173
			h6.709l-0.393,1.017c-0.324-0.298-0.648-0.393-1.173-0.393h-3.16v3.638c0.915,0,1.886,0,2.948,0c0.363,0,0.735-0.05,1.141-0.188
			l-0.461,1.114c-0.296-0.271-0.605-0.305-1.142-0.305h-2.487v4.268c0.628,0,0.856,0.006,1.496,0.006
			c0.299,0,2.62-0.009,3.567-0.686L206.166,116.325z"/>
		<path fill="#231F20" d="M160.163,107.693v3.1v0.622v4.268c0.645,0,1.029,0.006,1.669,0.006c0.302,0,2.507-0.035,3.511-0.769
			l-0.598,1.404h-6.587c0.28-0.271,0.489-0.665,0.489-1.138v-7.482c0-0.449-0.203-0.887-0.469-1.173c0.093,0,2.438,0,2.496,0
			C160.399,106.831,160.163,107.266,160.163,107.693z"/>
		<path fill="#231F20" d="M169.083,113.034c-0.17,0.409-0.821,2.175-0.821,2.175c-0.159,0.41-0.155,0.715,0.003,1.115h-1.695
			c0.396-0.409,0.699-0.83,0.844-1.157l3.095-7.523c0.243-0.562-0.07-1.02-0.276-1.114h2.026l3.665,8.664
			c0.142,0.323,0.36,0.729,0.812,1.129h-2.374c0.168-0.391,0.185-0.706,0.01-1.115c0,0-0.83-1.911-0.936-2.175L169.083,113.034
			L169.083,113.034z M173.196,112.407l-1.993-4.673l-1.87,4.673H173.196z"/>
		<path fill="#231F20" d="M186.881,107.705v8.62h-0.435l-7-8.146v7.017c0,0.457,0.209,0.858,0.505,1.129h-1.69
			c0.281-0.271,0.478-0.672,0.478-1.129v-7.431c0-0.422-0.097-0.586-0.369-0.893c-0.141-0.154-0.299-0.27-0.396-0.34h1.967
			l6.239,7.31v-6.137c0-0.485-0.192-0.887-0.465-1.173h1.639C187.065,106.791,186.891,107.219,186.881,107.705z"/>
		<path fill="#231F20" d="M195.993,116.384c-0.569,0.078-0.77,0.115-1.479,0.115c-3.28,0-5.444-2.263-5.444-5.016
			c0-3.067,2.354-5.11,5.468-5.11c0.479,0,0.863,0.024,1.205,0.062c0.443,0.051,0.798,0.114,1.217,0.203l0.44,1.274
			c-0.493-0.47-1.469-0.974-2.864-0.974c-2.554,0-3.762,2.13-3.762,4.537c0,2.488,1.298,4.457,3.856,4.457
			c1.014,0,2.211-0.359,2.918-1.126c-0.303,0.77-0.447,1.16-0.522,1.368C196.738,116.249,196.485,116.315,195.993,116.384z"/>
		<path fill="#231F20" d="M131.617,107.155l-3.233-0.005l0.006,8.281c0,0.433,0.305,0.749,0.503,0.894h-2.499
			c0.237-0.17,0.479-0.447,0.479-0.894l-0.003-8.277h-2.298c-0.409,0-0.883,0.112-1.247,0.3l0.411-0.922h7.031
			c0.543,0,0.927-0.062,1.271-0.23L131.617,107.155z"/>
		<path fill="#231F20" d="M216.57,107.155l-3.234-0.005l0.007,8.281c0,0.433,0.316,0.749,0.513,0.894h-2.489
			c0.237-0.17,0.461-0.447,0.461-0.894l-0.004-8.277h-2.3c-0.406,0-0.88,0.112-1.246,0.3l0.413-0.922h7.029
			c0.543,0,0.926-0.062,1.271-0.23L216.57,107.155z"/>
	</g>
	<g>
		<path fill="#00AB9C" d="M124.515,121.564c1.207,0,3.04-0.031,4.419,0.47c1.175,0.392,2.915,1.504,2.915,4.513
			c0,2.758-1.395,3.98-2.79,4.544c-1.332,0.548-3.259,0.501-4.544,0.501V121.564z M127.916,130.575
			c1.599-0.486,2.633-1.692,2.633-3.98c0-2.522-1.238-3.479-2.304-3.886c-0.925-0.36-1.958-0.408-2.491-0.408v8.541
			C126.286,130.841,127.148,130.825,127.916,130.575z"/>
		<path fill="#00AB9C" d="M133.592,122.207c0-0.439,0.345-0.768,0.784-0.768c0.454,0,0.783,0.329,0.783,0.768
			c0,0.438-0.329,0.784-0.783,0.784C133.937,122.99,133.592,122.645,133.592,122.207z M133.78,124.573h1.191v7.021h-1.191V124.573z"
			/>
		<path fill="#00AB9C" d="M136.633,129.854c0-1.74,1.551-2.367,4.074-2.429v-0.877c0-0.972-0.627-1.27-1.427-1.27
			c-0.768,0-1.552,0.235-2.193,0.533v-0.768c0.705-0.423,1.677-0.674,2.46-0.674c1.223,0,2.351,0.438,2.351,2.1v3.166
			c0,0.517,0.157,0.894,0.706,1.05l-0.36,1.065c-0.877-0.172-1.253-0.689-1.363-1.175h-0.031c-0.627,0.815-1.348,1.191-2.241,1.191
			C137.589,131.766,136.633,131.202,136.633,129.854z M140.708,129.854v-1.708c-1.99,0.047-2.836,0.596-2.836,1.583
			c0,0.689,0.392,1.144,1.112,1.144C139.689,130.873,140.316,130.496,140.708,129.854z"/>
		<path fill="#00AB9C" d="M143.985,129.368v-8.87h1.207v4.874h0.031c0.549-0.517,1.316-1.003,2.241-1.003
			c1.708,0,2.711,1.489,2.711,3.557c0,2.351-1.348,3.839-2.979,3.839c-1.033,0-1.738-0.643-2.131-1.301h-0.03l-0.471,1.128h-0.705
			C143.985,130.606,143.985,129.932,143.985,129.368z M146.931,130.841c1.222,0,2.006-1.175,2.006-2.836
			c0-1.504-0.61-2.68-1.865-2.68c-0.674,0-1.284,0.282-1.88,0.783v3.636C145.552,130.34,146.163,130.841,146.931,130.841z"/>
		<path fill="#00AB9C" d="M154.691,131.766c-1.912,0-3.432-1.113-3.432-3.588c0-2.288,1.207-3.808,3.024-3.808
			c1.975,0,2.758,1.818,2.758,3.354c0,0.141,0,0.345-0.017,0.501h-4.544c0.031,1.849,0.894,2.68,2.507,2.68
			c0.784,0,1.583-0.219,1.865-0.345v0.736C156.556,131.452,155.663,131.766,154.691,131.766z M155.819,127.456
			c0-1.144-0.438-2.288-1.613-2.288c-0.956,0-1.708,0.768-1.725,2.476L155.819,127.456z"/>
		<path fill="#00AB9C" d="M160.899,131.703c-1.033,0-1.802-0.36-1.802-1.708v-4.529l-1.426-0.392v-0.501h1.426v-1.959h1.207v1.959
			h2.069v0.893h-2.069v4.404c0,0.783,0.47,0.94,1.066,0.94c0.406,0,0.831-0.078,1.097-0.141v0.737
			C162.152,131.562,161.463,131.703,160.899,131.703z"/>
		<path fill="#00AB9C" d="M166.793,131.766c-1.912,0-3.433-1.113-3.433-3.588c0-2.288,1.207-3.808,3.024-3.808
			c1.975,0,2.758,1.818,2.758,3.354c0,0.141,0,0.345-0.016,0.501h-4.545c0.031,1.849,0.894,2.68,2.508,2.68
			c0.783,0,1.583-0.219,1.865-0.345v0.736C168.658,131.452,167.765,131.766,166.793,131.766z M167.921,127.456
			c0-1.144-0.438-2.288-1.614-2.288c-0.956,0-1.708,0.768-1.724,2.476L167.921,127.456z"/>
		<path fill="#00AB9C" d="M170.196,130.622c0.471,0.172,1.129,0.282,1.74,0.282c1.285,0,1.708-0.564,1.708-1.175
			c0-1.74-3.448-0.987-3.448-3.4c0-1.27,1.082-1.959,2.414-1.959c0.83,0,1.567,0.204,1.896,0.345v0.799
			c-0.47-0.141-1.145-0.267-1.708-0.267c-0.846,0-1.411,0.298-1.411,0.972c0,1.598,3.463,0.893,3.463,3.385
			c0,1.504-1.332,2.163-2.711,2.163c-0.939,0-1.661-0.204-1.943-0.36V130.622L170.196,130.622z"/>
		<path fill="#00AB9C" d="M178.645,129.321c0-1.583,1.207-2.272,2.084-2.68c-0.784-0.736-1.52-1.379-1.52-2.492
			c0-1.285,1.081-2.115,2.617-2.115c1.426,0,2.507,0.752,2.507,2.068c0,0.784-0.346,1.755-2.163,2.664
			c0.674,0.674,1.646,1.63,2.57,2.523c0.563-0.815,0.83-1.88,0.735-3.009h1.003c0.125,1.254-0.298,2.57-1.112,3.589
			c0.768,0.752,1.426,1.395,1.66,1.629l-1.332,0.267c-0.125-0.125-0.563-0.564-1.128-1.16c-0.799,0.721-1.896,1.16-2.978,1.16
			C179.538,131.766,178.645,130.528,178.645,129.321z M184.052,130.042c-0.909-0.925-2.006-2.069-2.758-2.852
			c-0.611,0.329-1.426,0.862-1.426,1.99c0,1.285,1.019,1.739,1.881,1.739C182.641,130.919,183.425,130.59,184.052,130.042z
			 M183.221,124.212c0-0.862-0.563-1.395-1.411-1.395c-0.909,0-1.441,0.611-1.441,1.332c0,0.799,0.47,1.316,1.254,2.069
			C182.876,125.607,183.221,124.886,183.221,124.212z"/>
		<path fill="#00AB9C" d="M191.186,121.564h5.297v0.94h-2.021l-2.037-0.282v3.808h3.526v0.956h-3.526v3.949l2.037-0.282h2.163v0.94
			h-5.438L191.186,121.564L191.186,121.564z"/>
		<path fill="#00AB9C" d="M198.381,124.573h1.207v1.034h0.031c0.61-0.689,1.379-1.238,2.414-1.238c0.846,0,1.473,0.376,1.817,0.94
			c0.267,0.423,0.393,0.94,0.393,1.677v4.607h-1.207v-4.435c0-0.548-0.062-0.893-0.22-1.159c-0.267-0.486-0.721-0.674-1.237-0.674
			c-0.722,0-1.474,0.454-1.99,1.003v5.265h-1.207L198.381,124.573L198.381,124.573z"/>
		<path fill="#00AB9C" d="M210.889,130.528h-0.047c-0.548,0.674-1.348,1.238-2.335,1.238c-1.521,0-2.728-1.253-2.728-3.588
			c0-2.382,1.363-3.808,2.963-3.808c0.861,0,1.583,0.47,1.989,0.846h0.031v-4.717h1.207v9.136c0,0.533,0.141,0.909,0.674,1.066
			l-0.376,1.05C211.438,131.609,211.015,131.076,210.889,130.528z M210.764,126.062c-0.517-0.455-1.16-0.752-1.802-0.752
			c-1.16,0-1.943,1.113-1.943,2.805c0,1.677,0.658,2.711,1.802,2.711c0.784,0,1.442-0.501,1.943-1.097V126.062z"/>
		<path fill="#00AB9C" d="M213.571,128.067c0-2.116,1.363-3.698,3.448-3.698c2.131,0,3.416,1.583,3.416,3.698
			c0,2.115-1.363,3.698-3.447,3.698C214.872,131.766,213.571,130.183,213.571,128.067z M219.197,128.067
			c0-1.818-0.894-2.915-2.193-2.915c-1.332,0-2.194,1.097-2.194,2.915s0.894,2.915,2.194,2.915
			C218.335,130.982,219.197,129.885,219.197,128.067z"/>
		<path fill="#00AB9C" d="M224.982,131.766c-2.021,0-3.479-1.238-3.479-3.495c0-2.351,1.458-3.902,3.557-3.902
			c0.423,0,0.925,0.078,1.316,0.188v1.019c-0.658-0.172-1.3-0.235-1.818-0.235c-0.454,0-0.877,0.078-1.034,0.125
			c-0.47,0.486-0.782,1.52-0.782,2.382c0,2.225,1.08,3.024,2.522,3.024c0.423,0,0.909-0.063,1.285-0.172v0.799
			C226.111,131.671,225.453,131.766,224.982,131.766z"/>
		<path fill="#00AB9C" d="M228.103,124.573h1.207v1.097h0.031c0.455-0.658,1.113-1.316,2.163-1.348v1.222
			c-0.862-0.031-1.504,0.172-2.194,0.799v5.25h-1.207V124.573z"/>
		<path fill="#00AB9C" d="M232.68,122.207c0-0.439,0.345-0.768,0.784-0.768c0.454,0,0.783,0.329,0.783,0.768
			c0,0.438-0.329,0.784-0.783,0.784C233.025,122.99,232.68,122.645,232.68,122.207z M232.868,124.573h1.19v7.021h-1.19V124.573z"/>
		<path fill="#00AB9C" d="M236.427,124.573h1.207v1.034h0.031c0.61-0.689,1.379-1.238,2.414-1.238c0.846,0,1.473,0.376,1.817,0.94
			c0.267,0.423,0.393,0.94,0.393,1.677v4.607h-1.207v-4.435c0-0.548-0.062-0.893-0.22-1.159c-0.267-0.486-0.721-0.674-1.237-0.674
			c-0.722,0-1.474,0.454-1.99,1.003v5.265h-1.207L236.427,124.573L236.427,124.573z"/>
		<path fill="#00AB9C" d="M243.826,128.067c0-2.116,1.362-3.698,3.447-3.698c2.131,0,3.416,1.583,3.416,3.698
			c0,2.115-1.362,3.698-3.446,3.698C245.126,131.766,243.826,130.183,243.826,128.067z M249.452,128.067
			c0-1.818-0.894-2.915-2.194-2.915c-1.332,0-2.194,1.097-2.194,2.915s0.894,2.915,2.194,2.915
			C248.59,130.982,249.452,129.885,249.452,128.067z"/>
		<path fill="#00AB9C" d="M252.307,120.499h1.191v11.095h-1.191V120.499z"/>
		<path fill="#00AB9C" d="M255.113,128.067c0-2.116,1.363-3.698,3.448-3.698c2.131,0,3.416,1.583,3.416,3.698
			c0,2.115-1.363,3.698-3.447,3.698C256.414,131.766,255.113,130.183,255.113,128.067z M260.739,128.067
			c0-1.818-0.893-2.915-2.193-2.915c-1.332,0-2.194,1.097-2.194,2.915s0.894,2.915,2.194,2.915
			C259.877,130.982,260.739,129.885,260.739,128.067z"/>
		<path fill="#00AB9C" d="M263.39,134.147c0.596,0.188,1.223,0.345,2.069,0.345c1.064,0,1.88-0.297,2.288-0.987
			c0.204-0.345,0.281-0.799,0.281-1.426v-1.489h-0.03c-0.501,0.611-1.285,1.175-2.241,1.175c-1.488,0-2.711-1.238-2.711-3.588
			c0-2.382,1.395-3.808,2.915-3.808c0.939,0,1.661,0.517,2.163,1.003h0.03l0.471-1.003h0.61v7.553c0,0.94-0.156,1.599-0.501,2.116
			c-0.563,0.877-1.583,1.332-3.056,1.332c-0.925,0-1.739-0.22-2.288-0.423L263.39,134.147L263.39,134.147z M268.028,126.108
			c-0.517-0.486-1.19-0.799-1.817-0.799c-1.16,0-1.927,1.113-1.927,2.852c0,1.63,0.674,2.68,1.771,2.68
			c0.815,0,1.473-0.501,1.975-1.097L268.028,126.108L268.028,126.108z"/>
		<path fill="#00AB9C" d="M270.382,134.335c1.207-0.486,2.429-1.441,3.149-3.071h-0.312l-2.899-6.691h1.364l2.163,5.814h0.047
			l1.646-5.814h1.332l-1.959,5.61c-1.065,3.009-2.147,4.247-4.138,5.108L270.382,134.335z"/>
	</g>
</g>
</svg>
