<svg xmlns="http://www.w3.org/2000/svg" width="750" height="750" viewBox="0 0 750 770"><defs><linearGradient id="a"><stop offset="0%" stop-color="#f82b2b"/><stop offset="100%" stop-color="#f78329"/></linearGradient></defs><path d="M521.3 730.4c-7.3-2.1-14.7-3.8-21.8-6.3-10.2-3.5-19.6-9.1-30.8-9.6-16.2-.7-29.7 4.9-40.5 16.8-4.6 5-8.9 10.4-13.6 15.4-19.9 21.4-52.1 21.6-72.4.5-4.6-4.8-8.9-9.9-13.4-14.9-14.7-16.1-36.3-21-56.6-12.8-5.4 2.2-10.7 4.5-16.1 6.8-30.6 12.9-60.4-1.2-69.7-33-1.7-5.9-3.3-11.9-5.2-17.7-6.5-19.8-24.7-33.2-45.4-34-8.3-.3-16.8-.2-24.9-1.6-29.3-5.3-45.8-30.2-40.3-59.6 2-10.6 4.9-21.1 2.8-32.1-2.8-15-10.5-26.5-23.5-34.3-6.3-3.8-12.9-6.9-19.3-10.5-26.4-14.7-33.9-46.8-16.8-71.7 3.6-5.2 7.4-10.3 11-15.5 12.4-18 12.4-39.6-.1-57.5-3.6-5.2-7.5-10.2-11.2-15.3-18.4-25.4-11.4-57.5 15.8-73 4.8-2.7 9.6-5.3 14.4-8 21.7-12.1 31-32.4 26.2-56.7-1.7-8.5-3.5-17.1-3.6-25.6-.3-25.6 21-47 46.6-48 8.5-.3 17.1-.5 25.4-2 19-3.5 31.6-14.9 37.9-33.1 2.4-6.9 4-14.1 6-21.1 8.3-28.5 38.3-43.3 65.9-32.5 6.3 2.5 12.6 5.3 18.9 7.8 19.9 7.8 41.2 2.8 55.7-13 4.4-4.8 8.5-9.8 12.9-14.6C356.2.6 389.7.6 410.4 23.6c4 4.5 8 9 12 13.4 14.8 16.1 36.3 21 56.6 12.8 6.3-2.6 12.5-5.4 18.9-7.9 27.5-11.1 57.2 2.9 66 31.2 2.1 6.7 3.9 13.4 6 20.1 6.3 19.5 23 32.7 43.6 34.3 9.3.7 18.7.7 27.9 1.9 25.4 3.5 44 29.2 40 54.5-1.2 7.4-2.5 14.8-3.5 22.2-2.9 20.2 6.6 39.5 24.4 49.8 5.8 3.3 11.7 6.3 17.6 9.5 27.3 14.8 35.1 47.1 17.4 72.6-3.9 5.6-8 11.1-11.7 16.8-11.1 16.9-10.9 38.3.6 55 3.9 5.6 8.1 11 12 16.6 18 25.2 10.9 57.2-16.1 72.5-4.9 2.8-9.9 5.5-14.8 8.3-21.5 12.2-30.5 32.4-25.8 56.5 1.8 8.9 3.5 18.1 3.5 27.1-.1 24.5-21.1 45.2-45.5 46.4-9.3.4-18.8.4-27.8 2.4-19.4 4.2-31.7 16.7-37.4 35.6-1.9 6.4-3.4 12.9-5.3 19.2-6.7 20.8-25.6 34.8-47.7 36z" fill="url(#a)"/></svg>