<svg xmlns="http://www.w3.org/2000/svg" viewBox="0 0 512 512" fill="#148e94"><path d="M386.4 357.1L138 108.6c-1.7-1.7-4-2.5-6.3-2.4-2.3.1-4.5 1.2-6 3.1-.5.6-11.3 14.2-12.1 37.4-1 29.8 14.2 60.6 45.3 91.7l62.2 62.2c5.4 5.4 12.5 8.3 20.1 8.3 7.6 0 14.7-3 20.1-8.3.4-.4.9-.5 1.2-.5.3 0 .8.1 1.2.5l10.1 10.1c.4.4.2 1.4-.1 2.2-4.9 10.7-2.6 23.6 5.8 31.9l59.7 59.7c6.5 6.5 15.1 9.8 23.6 9.8 8.6 0 17.1-3.3 23.6-9.8 13.1-13.2 13.1-34.4 0-47.4zm-11.7 35.5c-6.6 6.6-17.3 6.6-23.8 0L291.2 333c-3.5-3.5-4.4-8.8-2.4-13.3 3.3-7.3 2.1-15.5-3.2-20.8l-10.1-10.1c-3.5-3.5-8.1-5.4-13-5.4s-9.5 1.9-13 5.4c-2.2 2.2-5.2 3.5-8.4 3.5s-6.1-1.2-8.4-3.5l-62.2-62.2c-48.2-48.2-42.9-83.2-36.6-98.5l240.7 240.7c6.7 6.6 6.7 17.2.1 23.8zm19.2-266.9c-3.2-3.2-8.5-3.2-11.7 0l-52.9 52.9c-3.2 3.2-3.2 8.5 0 11.7 1.6 1.6 3.7 2.4 5.9 2.4s4.2-.8 5.9-2.4l52.9-52.9c3.2-3.2 3.2-8.5-.1-11.7zm-22.5-29.3c-3.2-3.2-8.5-3.2-11.7 0l-54 54c-8.3 8.3-13.2 18.8-13.4 28.8l-.4 15.4-15 15c-3.2 3.2-3.2 8.5 0 11.7 1.6 1.6 3.7 2.4 5.9 2.4 2.1 0 4.2-.8 5.9-2.4L306 204c1.5-1.5 2.4-3.5 2.4-5.7l.5-18.8c.1-5.7 3.3-12.3 8.5-17.5l54-54c3.2-3.2 3.2-8.4 0-11.6zM229.6 325.5c-3.2-3.2-8.5-3.2-11.7 0l-66.4 66.4c-3.2 3.2-7.4 4.9-11.9 4.9s-8.7-1.8-11.9-4.9c-3.2-3.2-4.9-7.4-4.9-11.9s1.8-8.7 4.9-11.9l64.1-64.1c3.2-3.2 3.2-8.5 0-11.7-3.2-3.2-8.5-3.2-11.7 0l-64.1 64c-6.3 6.3-9.8 14.7-9.8 23.6 0 8.9 3.5 17.3 9.8 23.6 6.3 6.3 14.7 9.8 23.6 9.8s17.3-3.5 23.6-9.8l66.4-66.4c3.3-3.1 3.3-8.3 0-11.6zm194.9-176.1c-3.2-3.2-8.5-3.2-11.7 0l-54 54c-5.1 5.1-11.7 8.1-17.7 8l-19.5-.3c-2.2 0-4.4.8-6 2.4l-17.4 17.4c-3.2 3.2-3.2 8.5 0 11.7 1.6 1.6 3.7 2.4 5.9 2.4s4.2-.8 5.9-2.4l14.9-14.9 16 .2c10.5.2 21.3-4.5 29.7-12.9l54-54c3.1-3.1 3.1-8.3-.1-11.6z"/><path d="M437 75C388.7 26.6 324.4 0 256 0S123.3 26.6 75 75 0 187.6 0 256s26.6 132.7 75 181 112.6 75 181 75 132.7-26.6 181-75 75-112.6 75-181-26.6-132.7-75-181zm-11.7 350.3C380.1 470.5 320 495.4 256 495.4s-124.1-24.9-169.3-70.1C41.5 380.1 16.6 319.9 16.6 256S41.5 131.9 86.7 86.7C131.9 41.5 192.1 16.6 256 16.6s124.1 24.9 169.3 70.1c45.2 45.2 70.1 105.3 70.1 169.3s-24.9 124.1-70.1 169.3z"/></svg>