<svg xmlns="http://www.w3.org/2000/svg" width="23.87" height="35.41"><path d="M21.59 25.3l-2.18-.98a11.389 11.389 0 0 0 3.94-8.62v-4.28a11.405 11.405 0 1 0-22.81 0v4.28a3.1 3.1 0 0 0 3.1 3.11h1.74a7.394 7.394 0 0 0 1.39 1.97v2.5l-4.5 2.02a3.427 3.427 0 0 0-2.18 4.02l1.02 5.25a1.047 1.047 0 0 0 1.02.84h19.6a1.039 1.039 0 0 0 1.02-.84l1.02-5.25a3.427 3.427 0 0 0-2.18-4.02zm-4.31-1.94l-.15-.07v-2.51a7.558 7.558 0 0 0 1.37-1.97h1.74a3.037 3.037 0 0 0 .52-.04 9.485 9.485 0 0 1-3.48 4.59zm4.01-11.94v4.28a1.054 1.054 0 0 1-1.05 1.04H19.2v-6.36h1.04a1.048 1.048 0 0 1 1.05 1.04zm-16.6 5.32H3.64A1.046 1.046 0 0 1 2.6 15.7v-4.28a1.056 1.056 0 0 1 1.04-1.06h1.05c-.02 1.99 0 3.68 0 6.38zm.69-8.42a15.479 15.479 0 0 0-2.26.03 9.339 9.339 0 0 1 17.64 0 15.479 15.479 0 0 0-2.26-.03 7.252 7.252 0 0 0-13.12 0zm10.71-.01a5.219 5.219 0 0 1-4.15 2.07H6.86a5.183 5.183 0 0 1 9.23-2.07zM6.75 15.7v-3.25h5.19a7.239 7.239 0 0 0 5.08-2.08 5.2 5.2 0 0 1 .12 1.05v4.28a5.2 5.2 0 0 1-10.39 0zm15 13.14c0 .02-.01.04-.01.06l-.87 4.44H2.99l-.87-4.44c0-.02-.01-.04-.01-.06a1.337 1.337 0 0 1 .87-1.59c.08-.02-.26.13 5.24-2.35a1.046 1.046 0 0 0 .61-.95v-1.69a7.281 7.281 0 0 0 6.23 0v1.7a1.055 1.055 0 0 0 .12.5 9.4 9.4 0 0 1-3.24.58 1.035 1.035 0 1 0 0 2.07 11.318 11.318 0 0 0 5.49-1.41c3.63 1.64 3.38 1.53 3.45 1.55a1.337 1.337 0 0 1 .87 1.59z" fill="#148e94" fill-rule="evenodd"/></svg>