<svg width="223" height="67" viewBox="0 0 223 67" fill="none" xmlns="http://www.w3.org/2000/svg">
<path d="M81.3419 59.736C86.7065 56.9935 85.4278 50.2665 84.2237 44.3769C80.2942 45.2492 71.5928 47.3729 68.5803 51.5017C63.9227 57.8891 74.6706 63.146 81.3419 59.736ZM221.328 41.5088C221.48 41.6926 221.606 41.895 221.708 42.1113C222.119 42.9812 222.068 43.9768 221.753 44.8677C221.403 45.8586 220.731 46.7309 219.921 47.3938C218.446 48.5941 216.045 49.3268 214.372 48.087C214.181 47.9451 214.008 47.7799 213.856 47.5962C213.705 47.4124 213.576 47.21 213.476 46.9937C213.068 46.1214 213.119 45.1282 213.434 44.2373C213.784 43.2487 214.456 42.3741 215.266 41.7135C216.74 40.5133 219.142 39.7806 220.815 41.0204C221.004 41.1599 221.176 41.3251 221.328 41.5088ZM78.2594 18.2736C80.1822 22.849 84.3054 30.2413 87.3179 37.8871C114.178 35.6192 141.104 33.9421 168.062 33.5769C174.556 33.4885 181.048 33.4443 187.533 33.8537C191.294 34.091 195.172 34.5701 198.838 35.4331C202.588 36.317 208.461 38.157 210.004 42.1066C210.541 43.4767 210.478 44.8956 210.022 46.2796C209.663 47.3775 208.788 48.3684 207.876 49.0546C206.291 50.2456 203.841 51.0155 202.296 49.3338C202.084 49.1035 201.921 48.836 201.811 48.5429C201.221 46.9612 202.324 45.298 203.57 44.3908C203.939 44.1233 204.81 43.4348 204.723 42.8882C204.604 42.1299 202.856 41.4321 202.247 41.2111C200.413 40.5412 198.323 40.1341 196.397 39.8178C193.387 39.32 190.267 38.9897 187.218 38.7966C180.861 38.3942 174.493 38.4431 168.128 38.5291C141.72 38.8873 115.347 40.5109 89.0353 42.7137C91.9755 52.0785 92.1971 61.0153 83.582 64.7998C71.5671 70.0777 56.2456 60.3687 63.4163 49.2128C67.0519 43.5581 76.0333 40.4551 81.7269 38.8245C78.6911 32.8837 75.667 26.7708 73.1702 20.5881C72.1761 17.9736 71.1564 15.0427 70.6337 12.2212C68.6549 1.51194 77.6784 -2.69826 85.4021 1.75617C88.2116 3.37745 87.4882 8.06915 83.2344 7.04102C72.5005 4.44745 75.0276 10.5836 78.2594 18.2736Z" fill="black"/>
<path d="M51.1632 20.1789C47.607 22.6771 44.3822 26.108 41.6357 29.4087C37.9722 33.8097 34.654 38.606 31.5762 43.4629C28.0643 49.0036 21.4443 51.1203 22.3147 41.8277C22.569 39.1108 23.2271 35.9799 23.6704 33.5631L9.74906 51.0226C5.80319 55.9725 -0.415457 58.3893 0.0232319 48.2267C0.396584 39.6481 3.42774 31.7022 8.01297 24.4472C9.24504 22.4956 13.0136 24.0774 12.1198 26.2848C9.71639 32.2047 6.19988 40.9996 5.71919 47.1637C8.52167 43.2466 15.7157 33.284 20.98 28.2364C24.2748 25.0776 29.6044 22.6073 29.6044 30.0089C29.6044 32.8792 29.0374 36.0939 28.475 38.9038V39.1015H28.51C31.8865 33.4142 39.4912 20.9534 47.047 16.1292C54.024 11.6724 57.8088 14.4079 57.2371 21.3303C57.0575 23.5051 56.8801 25.68 56.7098 27.8549C56.2874 33.291 54.339 41.9393 62.1094 41.9393C66.7016 41.9393 74.29 38.8363 81.8574 35.0658V41.2089C76.5931 43.6164 71.6135 45.5401 68.3024 46.4868C66.4076 47.0288 64.0882 47.6103 62.1071 47.6103C50.2951 47.6103 50.4725 38.0013 50.9368 29.7832C51.1212 26.5802 51.1585 23.3423 51.1632 20.1789Z" fill="black"/>
</svg>
