<svg xmlns="http://www.w3.org/2000/svg" viewBox="0 0 512 512" width="15" height="15" fill="#00a6d0"><path d="M347.22 301.21l-71.4-53.54V138.61A19.81 19.81 0 00256 118.78a19.81 19.81 0 00-19.83 19.83v118.98c0 6.24 2.93 12.13 7.93 15.86l79.32 59.49a19.71 19.71 0 0011.88 3.97c6.05 0 12-2.72 15.88-7.96a19.8 19.8 0 00-3.96-27.74z"/><path d="M256 0C114.83 0 0 114.83 0 256s114.83 256 256 256 256-114.83 256-256S397.17 0 256 0zm0 472.34c-119.28 0-216.34-97.06-216.34-216.34S136.72 39.66 256 39.66c119.3 0 216.34 97.06 216.34 216.34S375.28 472.34 256 472.34z"/></svg>