<svg viewBox="0 0 24 24" xmlns="http://www.w3.org/2000/svg" width="20" height="20" fill="#ffffff"><path d="M12.33 0C5.75 0 2.25 4.22 2.25 8.81c0 2.13 1.2 4.8 3.1 5.63.54.25.47-.05.94-1.84a.42.42 0 00-.1-.42c-2.73-3.15-.54-9.63 5.75-9.63 9.09 0 7.4 12.58 1.58 12.58-1.5 0-2.61-1.17-2.26-2.63.43-1.73 1.26-3.6 1.26-4.84 0-3.15-4.69-2.69-4.69 1.49 0 1.28.46 2.15.46 2.15L6.5 18.54c-.47 1.93.07 5.05.11 5.32.03.14.2.2.29.07.15-.2 1.97-2.8 2.48-4.68l.95-3.46c.5.9 1.96 1.66 3.5 1.66 4.6 0 7.92-4.04 7.92-9.05-.02-4.8-4.13-8.4-9.42-8.4z"/></svg>