<svg xmlns="http://www.w3.org/2000/svg" width="75" height="75" viewBox="0 0 75 75"><g><g><path fill="#ffb400" d="M75 32.987v11.988a4.625 4.625 0 0 1-4.62 4.62h-1.229v23.94c0 .809-.656 1.465-1.465 1.465h-12.89a1.465 1.465 0 0 1-1.465-1.465v-23.94h-1.25a4.624 4.624 0 0 1-4.619-4.58 7.924 7.924 0 0 1-1.447.393v2.597a1.465 1.465 0 1 1-2.93 0v-7.054H31.952v31.12h4.102V47.358a1.465 1.465 0 0 1 2.93 0V72.07h4.101V59.334a1.464 1.464 0 1 1 2.93 0v14.2c0 .81-.656 1.466-1.465 1.466H30.487a1.465 1.465 0 0 1-1.465-1.465V45.408A7.971 7.971 0 0 1 27.538 45a4.624 4.624 0 0 1-4.619 4.594h-1.25v23.94c0 .809-.656 1.465-1.465 1.465H7.314a1.465 1.465 0 0 1-1.465-1.465v-23.94H4.62A4.625 4.625 0 0 1 0 44.975V32.987c0-5.312 3.602-9.795 8.491-11.144a6.776 6.776 0 0 1-1.532-4.298V16.21a6.818 6.818 0 0 1 6.81-6.81 6.818 6.818 0 0 1 6.811 6.81v1.336c0 1.63-.575 3.126-1.533 4.3 1.181.325 2.305.839 3.327 1.517v-1.088c0-4.42 3.596-8.015 8.016-8.015h.946a7.966 7.966 0 0 1-1.817-5.07V8c0-4.411 3.589-8 8-8 4.41 0 8 3.589 8 8v1.188c0 1.922-.683 3.69-1.817 5.07h.945c4.42 0 8.016 3.596 8.016 8.016v1.061a11.611 11.611 0 0 1 3.29-1.49 6.776 6.776 0 0 1-1.533-4.3V16.21a6.817 6.817 0 0 1 6.81-6.81 6.817 6.817 0 0 1 6.81 6.81v1.336a6.775 6.775 0 0 1-1.531 4.298C71.398 23.192 75 27.675 75 32.987zM9.889 17.545c0 2.14 1.74 3.881 3.88 3.881 2.14 0 3.881-1.741 3.881-3.88v-1.337a3.885 3.885 0 0 0-3.88-3.882c-2.14 0-3.881 1.74-3.881 3.882zm8.85 26.253H8.78V72.07h3.506v-20.8c0-.075.007-.149.018-.22v-1.538a1.465 1.465 0 1 1 2.93 0V72.07h3.506zm5.87 1.177v-1.92a7.985 7.985 0 0 1-2.235-5.545V27.19l-.002-.002a8.651 8.651 0 0 0-6.394-2.833H11.56c-4.76 0-8.631 3.872-8.631 8.631v11.99c0 .932.758 1.69 1.69 1.69h1.229v-12.46a1.465 1.465 0 1 1 2.93 0v6.662h9.96v-2a1.465 1.465 0 0 1 2.93 0v7.798h1.25c.932 0 1.69-.758 1.69-1.69zM32.45 8v1.188a5.076 5.076 0 0 0 5.07 5.07 5.076 5.076 0 0 0 5.07-5.07V8a5.076 5.076 0 0 0-5.07-5.07A5.076 5.076 0 0 0 32.449 8zm17.285 14.274a5.092 5.092 0 0 0-5.087-5.086h-5.713v4.002a1.465 1.465 0 0 1-2.93 0v-4.002H30.39a5.092 5.092 0 0 0-5.087 5.086V37.51c0 2.33 1.577 4.3 3.72 4.899V22.274a1.465 1.465 0 0 1 2.93 0V38.02h11.132V22.274a1.465 1.465 0 0 1 2.93 0v20.135a5.095 5.095 0 0 0 3.719-4.899zm7.615-4.729c0 2.14 1.742 3.881 3.881 3.881 2.14 0 3.881-1.741 3.881-3.88v-1.337a3.885 3.885 0 0 0-3.88-3.882c-2.14 0-3.882 1.74-3.882 3.882zm8.872 26.253h-9.96V72.07h3.506V49.512a1.465 1.465 0 1 1 2.93 0v1.538c.01.072.018.145.018.22v20.8h3.506zm5.85 1.177V32.987c0-4.76-3.873-8.632-8.632-8.632h-4.417a8.65 8.65 0 0 0-6.359 2.797V37.51c0 2.17-.868 4.14-2.273 5.585v1.88c0 .933.759 1.69 1.69 1.69h1.25V38.87a1.465 1.465 0 0 1 2.93 0v1.998h9.961v-6.66a1.465 1.465 0 1 1 2.93 0v12.458h1.229c.932 0 1.69-.758 1.69-1.69zm-26.056 8.597c0 .386-.157.763-.43 1.036-.273.272-.65.429-1.035.429-.385 0-.763-.157-1.035-.429a1.47 1.47 0 0 1-.43-1.036 1.469 1.469 0 0 1 1.465-1.464c.386 0 .763.155 1.036.429.272.273.43.65.43 1.035zm-7.08-26.907a1.466 1.466 0 0 1-2.502 1.035 1.472 1.472 0 0 1-.429-1.035c0-.385.157-.764.43-1.036.272-.273.65-.43 1.035-.43a1.47 1.47 0 0 1 1.465 1.465z"/></g></g></svg>