<svg xmlns="http://www.w3.org/2000/svg" width="57" height="57" viewBox="0 0 57 57"><g><g><g/><g><g><g><path fill="#fff" d="M51.651 41.941c1.215 1.203 1.853 2.635 1.853 4.126 0 1.48-.626 2.924-1.817 4.163a47.49 47.49 0 0 1-1.564 1.552c-.758.734-1.48 1.42-2.105 2.177-.012.024-.036.036-.048.06-1.829 1.986-4.163 2.984-6.942 2.984-.24 0-.505-.012-.757-.024-4.127-.265-7.82-1.817-10.587-3.128-7.242-3.5-13.582-8.47-18.851-14.761-4.343-5.221-7.255-10.093-9.204-15.35-.794-2.142-1.828-5.414-1.54-8.927.193-2.178 1.071-4.054 2.611-5.594l4.09-4.126.024-.025C8.017 3.914 9.437 3.3 10.904 3.3c1.468 0 2.864.614 4.03 1.768a56.77 56.77 0 0 1 2.263 2.238c.36.385.745.77 1.118 1.143l3.285 3.284c2.526 2.527 2.526 5.799 0 8.325-.337.337-.674.686-1.011 1.023-.89.902-1.804 1.84-2.791 2.743.734 1.624 1.744 3.224 3.248 5.125 3.104 3.813 6.34 6.76 9.901 9.022.349.217.758.421 1.191.638.3.156.614.313.926.481l3.802-3.79c1.215-1.215 2.635-1.852 4.114-1.852 1.492 0 2.9.65 4.067 1.865zm-2.31 2.274l-6.628-6.629-.024-.024c-.373-.409-.987-.878-1.733-.878-.758 0-1.407.493-1.816.902L35.025 41.7c-.204.205-.83.83-1.828.83-.397 0-.782-.096-1.191-.3-.048-.024-.097-.06-.145-.084a15.256 15.256 0 0 0-1.19-.638c-.482-.24-.987-.493-1.48-.806-3.862-2.442-7.363-5.63-10.683-9.72l-.012-.012c-1.829-2.322-3.032-4.271-3.886-6.34l-.036-.109c-.217-.685-.41-1.696.625-2.73.012-.025.037-.037.06-.06 1.047-.939 2.01-1.901 3.02-2.936.35-.337.686-.686 1.035-1.035 1.275-1.275 1.275-2.454 0-3.729l-3.284-3.284c-.385-.397-.77-.782-1.143-1.167a60.74 60.74 0 0 0-2.202-2.19c-.385-.385-.998-.842-1.756-.842-.614 0-1.24.3-1.829.854l-4.102 4.103c-.999.998-1.54 2.165-1.66 3.573-.18 2.201.228 4.535 1.347 7.53 1.817 4.909 4.56 9.48 8.662 14.425 4.968 5.93 10.947 10.61 17.756 13.907 2.49 1.19 5.811 2.586 9.384 2.815.18.012.373.012.553.012 1.877 0 3.309-.614 4.524-1.913.746-.878 1.54-1.66 2.322-2.406.517-.505.998-.962 1.467-1.468-.012.012-.012 0 0 0 1.227-1.275 1.227-2.538-.012-3.765z"/></g><g><path fill="#fff" d="M30.807 13.562c3.152.53 6.015 2.02 8.3 4.307a15.335 15.335 0 0 1 4.308 8.3 1.614 1.614 0 0 0 1.6 1.348c.096 0 .18-.012.276-.024a1.626 1.626 0 0 0 1.336-1.877 18.555 18.555 0 0 0-5.21-10.045 18.555 18.555 0 0 0-10.045-5.21 1.633 1.633 0 0 0-1.876 1.324c-.157.878.42 1.732 1.31 1.877z"/></g><g><path fill="#fff" d="M56.936 25.144c-1.071-6.28-4.03-11.994-8.578-16.542C43.811 4.055 38.096 1.095 31.816.025c-.878-.157-1.708.445-1.864 1.323-.145.89.445 1.72 1.335 1.877 5.606.95 10.719 3.609 14.785 7.663 4.067 4.066 6.713 9.18 7.664 14.785a1.614 1.614 0 0 0 1.6 1.348c.096 0 .18-.012.276-.024a1.594 1.594 0 0 0 1.324-1.853z"/></g></g></g></g></g></svg>