<svg xmlns="http://www.w3.org/2000/svg" width="65" height="65" viewBox="0 0 65 65"><g><g><g/><g><g><g><path fill="#fff" d="M19.81 46.97a1.27 1.27 0 1 0 0 2.54 1.27 1.27 0 0 0 0-2.54z"/></g></g></g><g><g><g><path fill="#fff" d="M64.628 31.602a1.27 1.27 0 0 1-.517 2.109l-7.49 2.354v20.048a1.27 1.27 0 0 1-.868 1.205L32.9 64.935l-.01.003c-.277.09-.561.078-.813-.011-.086-.03-16.042-6.015-20.336-7.625a1.27 1.27 0 0 1-.824-1.189V36.587l-7.024-2.34a1.27 1.27 0 0 1-.687-1.858l4.843-8.071L.372 16.64a1.27 1.27 0 0 1 .52-2.11l21.1-6.58A12.7 12.7 0 0 1 33.77 0a12.669 12.669 0 0 1 12.117 8.906l18.218 5.623a1.27 1.27 0 0 1 .523 2.11l-7.48 7.482zM44.658 19.22l10.35 3.45 6.335-6.335-14.916-4.604a12.732 12.732 0 0 1-1.769 7.489zm-21.045-6.524c0 2.085.627 4.087 1.811 5.789a10.166 10.166 0 0 0 8.345 4.368 10.12 10.12 0 0 0 7.893-3.764 10.033 10.033 0 0 0 2.264-6.393A10.136 10.136 0 0 0 33.77 2.54a10.16 10.16 0 0 0-9.607 6.852 10.125 10.125 0 0 0-.55 3.304zM9.991 22.67l12.49-4.163a12.619 12.619 0 0 1-1.407-5.81c0-.62.047-1.235.135-1.842L3.652 16.33zM6.2 32.339l20.384 6.794 4.014-6.69-20.384-6.796zm25.031 3.983l-2.994 4.99a1.27 1.27 0 0 1-1.089.617c-.389 0 .294.141-13.69-4.495v17.8l17.773 6.665zm20.107-12.2l-8.288-2.763a12.64 12.64 0 0 1-9.28 4.032 12.703 12.703 0 0 1-9.849-4.689l-10.257 3.42L32.5 30.4zm2.745 31.076V36.863L39.642 41.4a1.27 1.27 0 0 1-1.372-.418l-4.5-5.625V61.97zm7.27-23.281l-6.343-6.343-20.38 6.793 5.08 6.35z"/></g></g></g><g><g><g><path fill="#fff" d="M27.87 49.79l-2.824-1.059a1.27 1.27 0 0 0-.892 2.378l2.824 1.058a1.27 1.27 0 0 0 .891-2.377z"/></g></g></g><g><g><g><path fill="#fff" d="M27.863 55.218l-7.617-2.857a1.27 1.27 0 0 0-.892 2.378l7.617 2.856a1.266 1.266 0 0 0 1.635-.743 1.27 1.27 0 0 0-.743-1.634z"/></g></g></g><g><g><g><path fill="#fff" d="M41.014 7.992a1.27 1.27 0 0 0-1.796 0l-6.72 6.72-1.64-1.642a1.27 1.27 0 0 0-1.796 1.796l2.54 2.539a1.27 1.27 0 0 0 1.795 0l7.617-7.618a1.27 1.27 0 0 0 0-1.795z"/></g></g></g></g></g></svg>