<svg xmlns="http://www.w3.org/2000/svg" width="60" height="60" viewBox="0 0 60 60"><g><g><g/><g><g><g><path fill="#fff" d="M48.516 17.432c.647 0 1.172-.525 1.172-1.172V3.516A3.52 3.52 0 0 0 46.172 0H3.516A3.52 3.52 0 0 0 0 3.516v52.968A3.52 3.52 0 0 0 3.516 60h42.656a3.52 3.52 0 0 0 3.516-3.516v-8.633a1.172 1.172 0 0 0-2.344 0v8.633c0 .646-.526 1.172-1.172 1.172H3.516a1.173 1.173 0 0 1-1.172-1.172V3.516c0-.647.525-1.172 1.172-1.172h42.656c.646 0 1.172.525 1.172 1.172V16.26c0 .647.525 1.172 1.172 1.172z"/></g></g></g><g><g><g><path fill="#fff" d="M35.623 17.111c0 3.084-1.302 5.87-3.385 7.836-.04.042-.08.082-.126.118a10.74 10.74 0 0 1-7.27 2.827 10.74 10.74 0 0 1-7.272-2.827 1.153 1.153 0 0 1-.125-.118 10.752 10.752 0 0 1-3.385-7.836c0-5.945 4.836-10.781 10.781-10.781s10.782 4.836 10.782 10.781zm-5.685 6.719a5.822 5.822 0 0 0-5.097-2.969 5.822 5.822 0 0 0-5.096 2.969 8.392 8.392 0 0 0 5.096 1.719c1.914 0 3.68-.641 5.097-1.72zm-6.972-7.188c0 1.034.841 1.875 1.875 1.875a1.877 1.877 0 0 0 1.875-1.875v-.761a1.877 1.877 0 0 0-1.875-1.875 1.877 1.877 0 0 0-1.875 1.875zm10.313.47c0-4.653-3.785-8.438-8.438-8.438-4.652 0-8.437 3.785-8.437 8.437 0 1.871.613 3.601 1.647 5.002a8.13 8.13 0 0 1 3.453-2.894 4.197 4.197 0 0 1-.882-2.577v-.761a4.223 4.223 0 0 1 4.22-4.219 4.223 4.223 0 0 1 4.218 4.219v.761c0 .97-.33 1.864-.882 2.577a8.13 8.13 0 0 1 3.453 2.894 8.392 8.392 0 0 0 1.648-5.002z"/></g></g></g><g><g><g><path fill="#fff" d="M31.17 51.33h-6.328a1.172 1.172 0 0 0 0 2.344h6.328a1.172 1.172 0 0 0 0-2.344z"/></g></g></g><g><g><g><path fill="#fff" d="M31.172 44.77h-16.64a1.172 1.172 0 0 0 0 2.344h16.64a1.172 1.172 0 0 0 0-2.344z"/></g></g></g><g><g><g><path fill="#fff" d="M31.172 38.2h-16.64a1.172 1.172 0 0 0 0 2.344h16.64a1.172 1.172 0 0 0 0-2.344z"/></g></g></g><g><g><g><path fill="#fff" d="M10.351 31.983a1.18 1.18 0 0 0-.83-.343c-.307 0-.61.125-.828.343a1.18 1.18 0 0 0-.343.829c0 .308.125.61.343.828.22.218.52.344.829.344.31 0 .61-.126.83-.344a1.18 1.18 0 0 0 .343-.828c0-.308-.125-.61-.344-.829z"/></g></g></g><g><g><g><path fill="#fff" d="M10.351 38.543a1.183 1.183 0 0 0-.83-.343c-.307 0-.609.125-.828.343a1.18 1.18 0 0 0-.343.829c0 .308.125.61.343.828.22.218.52.344.829.344.31 0 .61-.126.83-.344a1.18 1.18 0 0 0 .343-.828c0-.308-.125-.61-.344-.829z"/></g></g></g><g><g><g><path fill="#fff" d="M10.351 45.113a1.183 1.183 0 0 0-.83-.343c-.307 0-.609.125-.828.343a1.18 1.18 0 0 0-.343.829c0 .308.125.61.343.828.218.218.52.344.829.344.31 0 .612-.126.83-.344a1.18 1.18 0 0 0 .343-.828c0-.308-.125-.61-.344-.829z"/></g></g></g><g><g><g><path fill="#fff" d="M31.172 31.64h-16.64a1.172 1.172 0 0 0 0 2.344h16.64a1.172 1.172 0 0 0 0-2.344z"/></g></g></g><g><g><g><path fill="#fff" d="M59.337 21.995L44.59 47.538c-.08.14-.19.261-.32.357l-7.533 5.548a1.17 1.17 0 0 1-1.86-1.073l1.038-9.299c.018-.16.07-.315.15-.455l14.747-25.543a4.89 4.89 0 0 1 2.989-2.293 4.89 4.89 0 0 1 3.735.491 4.928 4.928 0 0 1 1.801 6.724zm-17.9 25.076l-3.391-1.959-.542 4.856zM54.98 24.854l-4.465-2.579-11.834 20.498 4.465 2.578zm2.327-4.031a2.561 2.561 0 0 0 .258-1.956 2.561 2.561 0 0 0-1.201-1.566 2.56 2.56 0 0 0-1.957-.257 2.56 2.56 0 0 0-1.565 1.2l-1.155 2.002 4.465 2.578z"/></g></g></g></g></g></svg>