<svg xmlns="http://www.w3.org/2000/svg" width="55" height="61" viewBox="0 0 55 61"><g><g><g/><g><g><g><path fill="#fff" d="M38.221 0c-.657 0-1.191.534-1.191 1.191v5.48a1.192 1.192 0 0 0 2.383 0v-5.48C39.413.534 38.879 0 38.22 0z"/></g></g></g><g><g><g><path fill="#fff" d="M10.821 37.17a1.192 1.192 0 1 0 .001 2.384 1.192 1.192 0 0 0 0-2.384z"/></g></g></g><g><g><g><path fill="#fff" d="M51.715 39.29a4.767 4.767 0 0 1-2.374 7.146 4.77 4.77 0 0 1 .798 2.651 4.767 4.767 0 0 1-3.19 4.499c.51.758.807 1.67.807 2.65A4.771 4.771 0 0 1 42.991 61H30.178c-5.573 0-7.864-.598-12.024-1.685-.518-.135-1.08-.282-1.684-.437a3.579 3.579 0 0 1-3.264 2.122H1.29A1.192 1.192 0 0 1 .1 59.81V31.216c0-.658.534-1.192 1.191-1.192h11.915a3.58 3.58 0 0 1 3.275 2.147c7.303-1.815 16.978-6.049 16.978-13.584v-1.191a4.771 4.771 0 0 1 4.766-4.766 4.772 4.772 0 0 1 4.763 4.651c.036.257.063.665.084 1.37.107 3.695-.45 7.847-1.827 11.373h8.894a4.767 4.767 0 1 1 1.576 9.265zm-37.318-5.691c0-.657-.535-1.192-1.191-1.192H2.483v26.211h10.723c.656 0 1.19-.534 1.19-1.191zm38.125 1.191a2.386 2.386 0 0 0-2.383-2.383H34.651a1.192 1.192 0 0 1 0-2.383h4.012c2.591-5.756 1.945-12.11 1.945-12.628v-.004a2.387 2.387 0 0 0-2.383-2.38 2.385 2.385 0 0 0-2.383 2.384v1.191c0 8.901-10.44 13.914-19.062 15.968v21.944c.717.183 1.376.355 1.976.512 4.098 1.07 6.155 1.607 11.422 1.607h12.813a2.386 2.386 0 0 0 2.382-2.383 2.385 2.385 0 0 0-2.382-2.382h-3.575a1.192 1.192 0 0 1 0-2.383h5.957a2.383 2.383 0 0 0 2.383-2.383 2.375 2.375 0 0 0-2.383-2.383H41.8a1.192 1.192 0 0 1 0-2.383h5.957a2.383 2.383 0 1 0 0-4.765h-3.574a1.192 1.192 0 0 1 0-2.383h5.957a2.383 2.383 0 0 0 2.383-2.383z"/></g></g></g><g><g><g><path fill="#fff" d="M10.821 41.94c-.657 0-1.191.534-1.191 1.191v9.532a1.192 1.192 0 0 0 2.383 0V43.13c0-.657-.534-1.191-1.192-1.191z"/></g></g></g><g><g><g><path fill="#fff" d="M28.687 15.01h-4.766a1.192 1.192 0 0 0 0 2.383h4.766a1.192 1.192 0 0 0 0-2.383z"/></g></g></g><g><g><g><path fill="#fff" d="M52.517 15.01h-4.766a1.192 1.192 0 0 0 0 2.383h4.766a1.192 1.192 0 0 0 0-2.383z"/></g></g></g><g><g><g><path fill="#fff" d="M49.173 5.249a1.192 1.192 0 0 0-1.685 0l-3.37 3.369a1.192 1.192 0 0 0 1.686 1.685l3.37-3.37a1.192 1.192 0 0 0 0-1.684z"/></g></g></g><g><g><g><path fill="#fff" d="M32.323 8.618l-3.37-3.37a1.192 1.192 0 0 0-1.684 1.686l3.37 3.369a1.192 1.192 0 0 0 1.684-1.685z"/></g></g></g></g></g></svg>