<svg xmlns="http://www.w3.org/2000/svg" width="74" height="48" viewBox="0 0 74 48"><g><g><g><g><path fill="#fff" d="M68.82 20.444A6.112 6.112 0 0 1 74 26.477v12.359c0 .64-.519 1.158-1.159 1.158h-3.787l.002.078c0 4.046-3.292 7.338-7.338 7.338s-7.338-3.292-7.338-7.338l.002-.078H28.269l.002.078c0 4.046-3.292 7.338-7.338 7.338s-7.338-3.292-7.338-7.338l.002-.078H7.338A2.397 2.397 0 0 1 4.944 37.6v-2.55H1.159a1.159 1.159 0 1 1 0-2.317h11.123a1.159 1.159 0 1 1 0 2.318H7.26V37.6c0 .042.034.077.077.077h6.66c.995-2.874 3.727-4.944 6.935-4.944 3.208 0 5.94 2.07 6.935 4.944h24.04v-8.728a1.159 1.159 0 1 1 2.317 0v8.728h.558c.995-2.873 3.727-4.943 6.935-4.943 3.208 0 5.94 2.07 6.935 4.943h3.03V32.58h-1.314a3.634 3.634 0 0 1-3.63-3.63v-2.472c0-.64.519-1.159 1.159-1.159H71.5a3.792 3.792 0 0 0-3.6-2.626H54.225v1.313a1.159 1.159 0 0 1-2.317 0V2.995a.077.077 0 0 0-.077-.078H7.338a.077.077 0 0 0-.077.078v21.01a1.159 1.159 0 0 1-2.317 0V2.995A2.397 2.397 0 0 1 7.338.6h44.493a2.397 2.397 0 0 1 2.394 2.395v2.549h8.73a4.872 4.872 0 0 1 4.865 4.866v1.236c0 .557-.393 1.022-.917 1.133zm-14.594-9.957h11.277v-.077a2.552 2.552 0 0 0-2.549-2.549h-8.729zm12.188 9.888l-1.893-7.57H54.226v7.57zm-40.46 19.697a5.027 5.027 0 0 0-5.02-5.021 5.027 5.027 0 0 0-5.022 5.02 5.027 5.027 0 0 0 5.021 5.022 5.027 5.027 0 0 0 5.021-5.021zm40.785 0a5.026 5.026 0 0 0-5.02-5.021 5.027 5.027 0 0 0-5.022 5.02 5.027 5.027 0 0 0 5.021 5.022 5.026 5.026 0 0 0 5.021-5.021zm4.944-9.81v-2.627h-2.627v1.314c0 .724.59 1.313 1.313 1.313z"/></g></g></g><g><g><g><path fill="#fff" d="M20.935 37.67a2.397 2.397 0 0 0-2.395 2.395 2.397 2.397 0 0 0 2.395 2.394 2.397 2.397 0 0 0 2.394-2.394 2.397 2.397 0 0 0-2.394-2.395z"/></g></g></g><g><g><g><path fill="#fff" d="M61.715 37.67a2.397 2.397 0 0 0-2.395 2.395 2.397 2.397 0 0 0 2.395 2.394 2.397 2.397 0 0 0 2.394-2.394 2.397 2.397 0 0 0-2.394-2.395z"/></g></g></g><g><g><g><path fill="#fff" d="M48.121 32.73H30.82a1.159 1.159 0 0 0 0 2.317H48.12a1.159 1.159 0 1 0 0-2.317z"/></g></g></g><g><g><g><path fill="#fff" d="M18.46 27.78H3.629a1.159 1.159 0 0 0 0 2.317h14.83a1.159 1.159 0 1 0 0-2.317z"/></g></g></g><g><g><g><path fill="#fff" d="M40.29 12.06a1.159 1.159 0 0 0-1.638 0L28.348 22.362l-5.36-5.36a1.159 1.159 0 1 0-1.639 1.639l6.18 6.18a1.155 1.155 0 0 0 1.638 0L40.29 13.697a1.159 1.159 0 0 0 0-1.639z"/></g></g></g></g></svg>