<svg viewBox="0 0 64 64" xmlns="http://www.w3.org/2000/svg"><circle cx="22" cy="16" r="1"/><circle cx="30" cy="16" r="1"/><path d="M23 23h4a4 4 0 004-4h-2a2 2 0 01-2 2h-4z"/><path d="M63 17a10.01 10.01 0 00-20 0c0 3.2 1.52 6.05 3.86 7.88l-1.34 9.4L31 30.23v-3.36A11.01 11.01 0 0033.99 23H35a4 4 0 003.33-6.2l.32-1.28A11.68 11.68 0 0027.32 1h-2.64c-2.86 0-5.48 1.04-7.51 2.75l-.8-.8A6.66 6.66 0 005 7.65v.49c-.01 1.37.31 2.74.93 3.97l.44.89c.4.8.62 1.72.62 2.62a5.3 5.3 0 01-2.37 4.42 8.14 8.14 0 00-2.26 11.32l.1.14a3.17 3.17 0 01-.4 4.02l-.78.77 1.42 1.42.77-.78a5.15 5.15 0 00.65-6.54l-.1-.14a6.14 6.14 0 011.71-8.54A7.3 7.3 0 009 15.62c0-1.21-.29-2.43-.83-3.52l-.44-.88A6.92 6.92 0 017 8.14v-.48a4.66 4.66 0 017.95-3.3l.8.8a11.63 11.63 0 00-2.4 10.36l.32 1.28A4 4 0 0017 23h1.01c.7 1.5 1.71 2.83 2.99 3.88v3.34l-2.15.54A12.98 12.98 0 009 43.36V48a7 7 0 007 7h.85a12.7 12.7 0 01-1.65 4.73L13.23 63h25.54l-1.97-3.27a12.67 12.67 0 01-1.15-10.52l.67-2c.43-1.3.66-2.66.67-4.04l10.4 1.74A6.55 6.55 0 0055 38.46V26.8c4.56-.93 8-4.97 8-9.8zm-4.91 6.17l-.4-.3a9.32 9.32 0 01-3.4-4.75h.34c2.25 0 4.44-.67 6.32-1.97a7.99 7.99 0 01-2.87 7.02zm-9.38.57l.15-.47a9.16 9.16 0 013.48-4.7 11.14 11.14 0 003.92 5.73 7.96 7.96 0 01-7.55-.56zm11.73-9.67l-.4.29a9.16 9.16 0 01-5.58 1.76c.8-2.24.87-4.65.19-6.95a8.02 8.02 0 015.79 4.9zM52.5 9.03l.15.46c.63 1.93.6 3.97-.05 5.85a11.14 11.14 0 00-6.54-2.32 8 8 0 016.44-4zM45 17c0-.7.1-1.36.26-2h.5c2.03 0 3.95.66 5.54 1.86a11.13 11.13 0 00-4.23 5.5A7.96 7.96 0 0145 17zm-10 4h-.32c.2-.84.32-1.72.32-2.62V17a2 2 0 010 4zM24.69 3h2.63a9.7 9.7 0 019.4 12.04l-.09.32A3.96 3.96 0 0035 15h-.06a4.97 4.97 0 00-4.44-4.36l-.35-.03c-.73-1-1.15-2.2-1.15-3.44V5h-2v2.17c0 1.1.24 2.2.69 3.2A2.99 2.99 0 0125 7.37V5h-2v2.38c0 .55.09 1.08.25 1.58l-3 1.13A5.02 5.02 0 0017 14.77V15c-.58 0-1.13.13-1.63.36l-.08-.33A9.7 9.7 0 0124.69 3zM17 21a2 2 0 010-4v1.38c0 .9.11 1.78.32 2.62zm2-2.62v-3.6c0-1.25.78-2.38 1.95-2.82l3.32-1.24c.8.9 1.94 1.5 3.23 1.64l2.8.27a2.99 2.99 0 012.7 2.99v2.76a9.02 9.02 0 01-5.47 8.3 3.9 3.9 0 01-3.06 0 9.03 9.03 0 01-5.47-8.3zm4.69 10.15a5.81 5.81 0 004.62 0c.24-.1.47-.22.7-.33V34a1 1 0 01-1 1h-4a1 1 0 01-1-1v-5.8c.21.12.44.23.68.33zM11 48v-4.63c0-4.4 2.6-8.3 6.5-10.04l-1.82 5.46a13.3 13.3 0 00-.06 8.21H13v2h9.41l1.71-1.7a1 1 0 01.7-.3H25a1 1 0 011 1v1h1c.54.03 1.04.2 1.41.57s.59.88.59 1.43a2 2 0 01-2 2H16a5 5 0 01-5-5zm24.09 12.76l.14.24H16.77l.14-.24A14.7 14.7 0 0018.86 55H27c1.47 0 2.74-.8 3.44-2h2.57l-.01.22c0 2.65.72 5.26 2.09 7.54zm-.67-14.18l-.67 2c-.26.8-.45 1.6-.58 2.42H31v-.02a3.95 3.95 0 00-3.14-3.9A3 3 0 0025 45h-.17c-.8 0-1.56.31-2.12.88L21.59 47h-3.87l-.14-.42a11.3 11.3 0 010-7.16l2.29-6.86 1.13-.28V34a3 3 0 003 3h4a3 3 0 003-3v-1.68l1.16.32 2.26 6.78a11.3 11.3 0 010 7.16zM53 38.46a4.55 4.55 0 01-5.29 4.48l-10.85-1.82c-.11-.79-.29-1.57-.54-2.33l-1.84-5.5 10.76 2.98-.23 1.59 1.98.28 1.73-12.12c1.3.62 2.75.98 4.28.98z"/><path d="M7.46 28.18l-.1-.15a2.15 2.15 0 01.6-3c1.38-.92 2.52-2.1 3.38-3.5l-1.7-1.05a9.23 9.23 0 01-2.79 2.89 4.15 4.15 0 00-1.15 5.77l.1.15a7.14 7.14 0 011.04 5.5l1.96.42a9.26 9.26 0 00-1.34-7.03z"/></svg>