<svg width="449" height="445" viewBox="0 0 449 445" fill="none" xmlns="http://www.w3.org/2000/svg">
<path d="M446.888 386.875V351.932L413.999 332.933V370.364L383.37 388.119V351.253L351.046 369.912L319.852 351.819V317.554C320.756 317.328 321.547 316.423 321.547 315.405C321.547 315.179 321.547 315.066 321.434 314.84L351.385 297.538L351.724 297.425V259.429L319.4 278.088L287.64 259.768L255.881 278.088L224.687 259.994V223.92L257.012 205.261L224.687 186.602V149.172L191.685 168.057L191.346 168.17V204.244L162.299 187.394C162.299 187.168 162.412 187.055 162.412 186.829C162.412 185.811 161.734 184.906 160.717 184.68V113.776L192.25 95.5696L192.589 95.4565V57.4602L159.926 76.3453L159.587 76.4584V113.211L128.393 131.304L97.7638 113.55L128.732 95.6827L129.071 95.5696V57.5733L96.4076 76.4584L96.0685 76.5715V149.398L67.0219 132.548C67.0219 132.322 67.1349 132.209 67.1349 131.983C67.1349 130.965 66.4568 130.06 65.4396 129.834V94.8911L34.2456 76.7976L64.8745 59.0434L65.4396 59.3826V58.7041L66.0047 58.3649L65.4396 58.0257V21.2733L35.0368 3.74519C35.0368 3.51902 35.1498 3.40595 35.1498 3.17978C35.1498 1.93585 34.1326 0.918091 32.8893 0.918091C31.6461 0.918091 30.6289 1.93585 30.6289 3.17978C30.6289 4.19754 31.307 5.10222 32.3242 5.32838V39.5929L0 58.3649L31.7591 76.6846L0.904174 94.5519L0.565109 94.665V131.417L0 131.757L0.565109 132.096V168.848L31.7591 186.829L0.791153 204.809L0.565109 204.922V242.918L33.2284 224.033L33.5675 223.92V187.846V150.415L63.1792 133.227C63.4052 133.453 63.8573 133.679 64.1964 133.792V168.735L95.3904 186.829L64.4224 204.809L64.0834 204.922V241.675L34.4716 258.75C34.0196 258.298 33.5675 258.072 32.8893 258.072C31.6461 258.072 30.6289 259.09 30.6289 260.333C30.6289 261.351 31.307 262.256 32.3242 262.482V333.499L0.791153 351.706L0.565109 351.819V389.815V425.889L32.3242 444.208V444.887L32.8893 444.548L33.4544 444.887V444.208L64.9875 426.002L65.3266 425.889V387.892L34.5847 405.647C34.1326 405.194 33.6805 404.968 33.0024 404.968C32.4373 404.968 31.8721 405.194 31.4201 405.647L2.26044 388.91L32.4373 371.495L64.7615 352.836L97.0857 371.608V334.177L128.619 315.971L128.958 315.858V280.915C129.862 280.689 130.653 279.784 130.653 278.766C130.653 277.522 129.636 276.504 128.393 276.504C127.15 276.504 126.132 277.522 126.132 278.766C126.132 278.992 126.132 279.105 126.245 279.332L96.2946 296.633L95.9555 296.747V332.82L65.3266 315.066V242.24L96.5206 224.26L128.845 242.918V205.488L158.457 188.299C158.683 188.525 159.135 188.751 159.474 188.864V223.807L189.651 241.222C189.651 241.448 189.538 241.561 189.538 241.788C189.538 242.014 189.538 242.127 189.651 242.353L159.7 259.655L159.361 259.768V333.16L129.862 350.235C129.41 349.67 128.845 349.331 128.054 349.331C126.81 349.331 125.793 350.348 125.793 351.592C125.793 352.61 126.471 353.515 127.489 353.741V389.702L159.248 371.382V407.456L192.137 426.454V388.571L160.943 370.591L191.685 352.836L221.297 370.025C221.297 370.251 221.184 370.364 221.184 370.591C221.184 371.834 222.201 372.852 223.444 372.852C224.687 372.852 225.705 371.834 225.705 370.591C225.705 369.573 225.026 368.668 224.009 368.442V297.425L255.203 279.332L285.832 297.086L254.864 314.953L254.525 315.066V351.819L253.96 352.158L254.525 352.497V388.571L222.992 406.777L222.653 406.891V444.887L255.316 426.002L255.655 425.889V389.815L286.284 407.569V408.248L286.849 407.908L319.174 426.567V390.946C319.513 390.833 319.965 390.606 320.191 390.38L349.802 407.569V445L381.562 426.68L414.79 407.795L415.129 407.682V371.608L444.176 388.458C444.176 388.684 444.063 388.797 444.063 389.023C444.063 390.267 445.08 391.285 446.323 391.285C447.566 391.285 448.583 390.267 448.583 389.023C448.583 387.892 447.792 387.101 446.888 386.875ZM97.0857 77.0238L127.715 59.2696V94.665L97.0857 112.419V77.0238ZM32.3242 223.355L1.69533 240.996V205.601L32.3242 187.846V223.355ZM64.1964 389.928V425.323L33.5675 443.078V409.492C34.4716 409.265 35.2628 408.361 35.2628 407.343C35.2628 407.117 35.2628 407.004 35.1498 406.777L64.1964 389.928ZM32.4373 409.492V443.078L1.69533 425.323V389.928L30.7419 406.777C30.7419 407.004 30.6289 407.117 30.6289 407.343C30.7419 408.361 31.4201 409.152 32.4373 409.492ZM382.127 388.571L351.498 406.325V370.93L382.127 353.176V388.571ZM318.608 386.875C318.269 386.988 317.817 387.214 317.591 387.44L288.545 370.591L318.608 353.176V386.875ZM287.866 333.499V298.104L316.913 314.953C316.913 315.179 316.8 315.292 316.8 315.518C316.8 316.536 317.478 317.441 318.495 317.667V351.253L287.866 333.499ZM318.608 313.37C318.269 313.483 317.817 313.709 317.591 313.935L288.545 297.086L318.608 279.671V313.37ZM287.301 334.517L317.93 352.271L304.029 360.3L287.301 369.912L256.672 352.158L270.574 344.129L287.301 334.517ZM287.866 371.608L316.913 388.458C316.913 388.684 316.8 388.797 316.8 389.023C316.8 389.249 316.8 389.363 316.913 389.589L287.866 406.438V371.608ZM350.368 296.747L320.756 313.935C320.53 313.709 320.078 313.483 319.739 313.37V279.105L350.368 261.351V296.747ZM192.476 239.865V206.279L223.105 224.033V259.429L194.058 242.579C194.058 242.353 194.171 242.24 194.171 242.014C194.171 240.996 193.493 240.091 192.476 239.865ZM192.476 244.162C192.815 244.049 193.267 243.823 193.493 243.597L222.54 260.446L192.476 277.748V244.162ZM223.783 223.016L193.154 205.261L208.186 196.554L223.783 187.507L254.412 205.261L223.783 223.016ZM192.476 168.848L223.105 151.094V186.489L192.476 204.244V168.848ZM160.717 77.0238L191.346 59.2696V94.665L160.717 112.419V77.0238ZM159.587 149.85L149.528 155.617L128.845 167.604V132.209L159.474 114.455V149.85H159.587ZM127.715 204.244L112.344 195.423L96.9727 186.602V151.094L112.344 159.915L127.715 168.735V204.244ZM97.0857 114.455L127.715 132.209V167.604L112.344 158.784L96.9727 149.963V114.455H97.0857ZM64.1964 129.608C63.8573 129.721 63.4052 129.947 63.1792 130.173L33.5675 112.985V77.5892L64.1964 95.3435V129.608ZM64.1964 21.9518V57.3472L33.5675 39.5929V5.32838C33.9065 5.2153 34.3586 4.98914 34.5847 4.76297L64.1964 21.9518ZM32.8893 40.6107L63.6313 58.3649L33.5675 75.7799L33.0024 76.1192L32.4373 75.7799L2.26044 58.3649L32.8893 40.6107ZM1.69533 95.3435L32.3242 77.5892V112.985L1.69533 130.852V95.3435ZM1.69533 132.774L32.3242 150.529V185.924L1.69533 168.17V132.774ZM32.8893 149.511L2.26044 131.757L16.1621 123.728L32.8893 114.115L62.501 131.304C62.501 131.53 62.388 131.644 62.388 131.87C62.388 132.096 62.388 132.209 62.501 132.435L32.8893 149.511ZM65.3266 133.905C65.6657 133.792 66.1178 133.566 66.3438 133.34L95.9555 150.529V185.924L65.3266 168.17V133.905ZM65.3266 205.601L95.9555 187.846V223.242L65.3266 240.996V205.601ZM33.5675 262.482C34.4716 262.256 35.2628 261.351 35.2628 260.333C35.2628 260.107 35.2628 259.994 35.1498 259.768L64.1964 242.918V278.314L33.5675 296.068V262.482ZM64.1964 315.179L33.5675 332.933V297.538L64.1964 279.784V315.179ZM32.3242 370.251L1.69533 388.006V352.61L32.3242 334.856V370.251ZM33.5675 334.177L64.1964 316.423V351.819L33.5675 369.573V334.177ZM97.0857 297.425L126.697 280.236C126.923 280.462 127.376 280.689 127.715 280.802V315.066L97.0857 332.82V297.425ZM95.9555 334.856V369.686L65.3266 351.932V316.536L95.9555 334.291V334.856ZM127.715 240.996L97.0857 223.242V187.846L112.457 196.667L127.828 205.488V240.996H127.715ZM128.845 204.244V168.848L146.363 158.671L159.474 151.094V184.68C158.57 184.906 157.778 185.811 157.778 186.829C157.778 187.055 157.778 187.168 157.891 187.394L128.845 204.244ZM160.717 223.355V189.09C161.056 188.977 161.508 188.751 161.734 188.525L191.346 205.714V239.978C191.007 240.091 190.555 240.317 190.329 240.544L160.717 223.355ZM160.717 260.673L190.329 243.484C190.555 243.71 191.007 243.936 191.346 244.049V278.314L190.781 278.653L160.717 296.068V260.673ZM160.717 334.177L191.346 316.423V351.819L160.717 369.573V334.177ZM191.346 315.179L160.717 332.933V297.538L191.346 279.784V315.179ZM128.845 388.006V353.967C129.749 353.741 130.54 352.836 130.54 351.819C130.54 351.705 130.54 351.706 130.54 351.592L159.587 334.856V370.251L128.845 388.006ZM191.346 424.758L160.717 407.004V371.608L191.346 389.363V424.758ZM223.218 368.442C222.879 368.555 222.427 368.781 222.201 369.007L192.589 351.819V316.423L223.218 334.177V368.442ZM192.476 315.179V279.784L223.105 297.538V332.933L192.476 315.179ZM223.783 296.407L193.154 278.653L223.783 260.899L224.348 261.238L254.412 278.653L223.783 296.407ZM287.301 261.012L317.93 278.766L287.866 296.181L287.301 296.52L286.736 296.181L256.672 278.766L287.301 261.012ZM256.107 315.858L286.736 298.104V333.499L256.107 351.253V315.858ZM254.977 425.323L224.348 443.078V407.682L254.977 389.928V425.323ZM256.107 388.684V353.289L286.736 371.043V406.438L256.107 388.684ZM288.432 407.343L317.478 390.493C317.704 390.72 318.156 390.946 318.495 391.059V424.758L288.432 407.343ZM319.739 386.875V353.289L350.368 371.043V406.438L321.321 389.589C321.321 389.363 321.434 389.249 321.434 389.023C321.321 387.892 320.643 387.101 319.739 386.875ZM351.498 443.078V407.682L382.127 389.928V425.323L351.498 443.078ZM413.999 407.004L383.257 424.758V389.363L413.886 371.608V407.004H413.999ZM415.129 370.251V334.856L445.758 352.61V386.875C445.419 386.988 445.08 387.214 444.741 387.44L415.129 370.251Z" fill="white" fill-opacity="0.4"/>
</svg>
