<svg xmlns="http://www.w3.org/2000/svg" viewBox="0 0 511.999 511.999"><path fill="#f4b2b0" d="M132.719 199.249v154.379H438.66l30.963-154.379z"/><g fill="#b3404a"><path d="M462.528 395.155H313.38c-8.491 0-15.374 6.883-15.374 15.374s6.883 15.374 15.374 15.374h43.048c15.259 0 27.674 12.415 27.674 27.674s-12.415 27.674-27.674 27.674-27.674-12.415-27.674-27.674c0-8.491-6.883-15.374-15.374-15.374s-15.374 6.883-15.374 15.374c0 32.214 26.208 58.422 58.422 58.422s58.422-26.208 58.422-58.422a58.052 58.052 0 0 0-6.985-27.674h54.663c8.491 0 15.374-6.883 15.374-15.374s-6.883-15.374-15.374-15.374z"/><path d="M496.703 113.784a15.372 15.372 0 0 0-11.892-5.63H148.093v-62.01a15.373 15.373 0 0 0-11.071-14.759L31.495.618c-8.156-2.374-16.687 2.305-19.063 10.456-2.377 8.151 2.305 16.686 10.456 19.063l94.458 27.54v337.479h-15.087c-8.491 0-15.374 6.883-15.374 15.374s6.883 15.374 15.374 15.374h88.908c15.259 0 27.674 12.415 27.674 27.674s-12.415 27.674-27.674 27.674-27.674-12.415-27.674-27.674c0-8.491-6.883-15.374-15.374-15.374s-15.374 6.883-15.374 15.374c0 32.214 26.208 58.422 58.422 58.422s58.422-26.208 58.422-58.422-26.208-58.422-58.422-58.422h-43.074v-26.153H438.66c2.747 0 5.35-.727 7.609-2.014a15.365 15.365 0 0 0 7.466-10.336l46.152-230.101a15.384 15.384 0 0 0-3.184-12.768zm-30.656 25.118l-9.02 44.973H148.093v-44.973h317.954zM148.093 338.254V293.28h208.335c8.491 0 15.374-6.883 15.374-15.374s-6.883-15.374-15.374-15.374H148.093v-47.908h302.766l-24.796 123.63h-277.97z"/></g></svg>