<svg width="100" height="100" viewBox="0 0 100 100" fill="none" xmlns="http://www.w3.org/2000/svg">
<path d="M37.381 6.51564C38.0997 6.22267 38.9454 6.11134 39.6798 6.41017C40.2911 6.67775 40.6017 7.35744 40.5646 8.00197C40.588 11.6192 40.5802 15.2383 40.6407 18.8555C43.7696 19.1289 46.6896 20.7969 48.6818 23.1973C50.9728 25.9199 52.2189 29.3574 52.92 32.8067C53.5763 32.8106 54.2345 32.8145 54.8907 32.8106C55.6271 29.1367 57.0138 25.461 59.5919 22.6719C61.5431 20.5352 64.2853 19.1524 67.1642 18.8535C67.2267 15.1074 67.1544 11.3594 67.1974 7.61525C67.2189 6.75197 68.1114 6.11525 68.9396 6.24415C73.0802 6.32423 76.6407 8.93361 79.2814 11.9219C83.2364 16.457 85.9239 21.9336 88.1505 27.4805C89.7325 31.5645 91.1192 35.7442 91.965 40.0469C92.1603 41.0938 92.3497 42.2305 91.8732 43.2324C91.2267 44.6524 90.2521 45.8887 89.3087 47.1211C85.1193 52.4121 80.381 57.2442 76.2482 62.5801C75.6837 63.1133 76.2853 63.7774 76.4728 64.3438C78.1798 68.4082 79.4943 72.7129 79.6681 77.1446C79.7169 79.2266 79.6818 81.3125 79.5743 83.3926C79.4298 86.3653 78.6915 89.2617 78.1153 92.1699C78.0177 92.9981 77.2189 93.6621 76.381 93.541C75.4982 93.461 74.8263 92.5391 75.0431 91.6738C75.6935 88.2871 76.5724 84.9121 76.5235 81.4375C72.9962 82.1797 69.631 83.5196 66.2931 84.8535C62.3751 86.4707 58.5079 88.209 54.6896 90.0469C54.6173 91.0137 54.8751 92.0547 54.4786 92.9688C53.92 94.0489 52.1681 93.9668 51.7052 92.8438C51.4259 91.9434 51.6134 90.9746 51.5626 90.0469C47.5196 88.0938 43.42 86.2578 39.2618 84.5645C36.1505 83.3379 33.0138 82.1133 29.7286 81.4336C29.67 84.9102 30.5587 88.2871 31.2071 91.6719C31.4884 92.7383 30.3907 93.8047 29.3341 93.5098C28.6153 93.3692 28.1739 92.6875 28.0939 91.9981C27.5099 89.0352 26.7638 86.084 26.6544 83.0528C26.5431 79.9102 26.4064 76.7364 26.9435 73.6231C27.5861 69.9961 28.7892 66.4863 30.3028 63.1348C30.4122 62.9297 30.4298 62.6914 30.2989 62.4942C29.9903 61.8789 29.7403 61.2305 29.3829 60.6446C28.9181 60.0664 28.2931 59.6504 27.7189 59.1934C24.7579 56.9707 21.6173 55.0059 18.5489 52.9414C15.5294 50.9082 12.4376 48.9551 9.66808 46.5781C8.69738 45.7227 7.63488 44.5918 7.85558 43.1817C8.12316 41.7735 8.70324 40.4473 9.23839 39.1231C11.6505 33.6016 14.6642 28.3438 18.1486 23.4317C21.2071 19.1465 24.6642 15.1074 28.7286 11.7422C31.338 9.59572 34.2247 7.74806 37.381 6.51564ZM70.3185 9.54103C70.3068 12.8086 70.3146 16.0781 70.3126 19.3477C70.254 19.8789 70.6056 20.2988 70.8751 20.7149C71.6193 21.8027 72.3165 22.9199 73.0568 24.0098C73.8048 23.627 74.6681 23.2617 75.5157 23.5254C76.0743 23.7031 76.3693 24.2481 76.6603 24.7129C79.0821 28.7793 81.5607 32.8262 83.5997 37.1035C84.0509 38.2051 84.795 39.5508 84.0411 40.6895C80.6095 46.0508 77.1954 51.4238 73.7716 56.791C73.0235 57.8457 72.0118 58.6699 71.1212 59.5977C70.6232 60.0899 70.1075 60.7305 69.3321 60.6953C67.42 60.7324 65.4923 61.5 64.1661 62.8906C64.797 62.8008 65.4064 62.6074 66.0392 62.5235C66.9161 62.3887 67.7716 63.1836 67.7403 64.0625C67.7716 64.627 67.3888 65.0801 67.0021 65.4414C65.6915 66.6797 64.4923 68.0449 63.4845 69.541C63.0196 70.1485 63.6915 70.836 64.2091 71.1328C65.0138 71.6563 65.9864 71.2832 66.7482 70.8692C69.2403 69.4883 71.2599 67.0469 71.7755 64.2051C72.1017 62.9219 72.9044 61.8379 73.6876 60.7969C76.34 57.2988 79.3224 54.0664 82.1837 50.7422C84.2833 48.2774 86.4747 45.875 88.3146 43.2031C88.6329 42.6582 89.1505 42.1055 89.0216 41.4238C88.7091 39.3418 88.1446 37.3047 87.5587 35.2852C85.8068 29.5957 83.5919 24.0137 80.5099 18.9063C79.006 16.4531 77.2911 14.086 75.1192 12.1777C73.7403 10.9629 72.129 9.95314 70.3185 9.54103ZM30.631 14.2188C25.4552 18.5508 21.3165 23.9805 17.7482 29.6738C15.4884 33.3262 13.4532 37.1289 11.8028 41.0977C11.5138 41.8809 11.1232 42.6465 11.0196 43.4844C11.3165 43.8945 11.7111 44.2207 12.0939 44.5508C14.2521 46.336 16.5997 47.8711 18.92 49.4336C22.6017 51.9375 26.4103 54.2617 29.9513 56.9688C31.0157 57.791 32.1232 58.6914 32.5724 60.0117C33.3224 61.959 34.8536 63.5918 36.8009 64.3711C38.0821 64.8906 39.5372 65.3672 40.9142 64.9375C41.4806 64.7364 42.2501 64.2363 41.9806 63.5313C41.7872 63.252 41.4884 63.0742 41.2169 62.8828C39.5079 61.7695 37.9083 60.4805 36.4884 59.0137C36.0782 58.6172 35.8282 58.0293 35.9786 57.459C36.1622 56.5352 37.3009 55.9473 38.1427 56.4082C39.0275 56.9102 39.8556 57.5371 40.8517 57.8164C39.8497 55.5703 37.2794 54.6035 34.9591 54.625C34.1075 54.582 33.1232 54.9356 32.4044 54.3106C27.6173 50.7012 22.8321 47.086 18.0353 43.4922C17.6583 43.2031 17.2853 42.8418 17.213 42.3477C17.1153 41.5059 17.5196 40.7188 17.9552 40.0293C18.9884 38.4219 20.2032 36.9434 21.4181 35.4727C24.9825 31.2442 28.7306 27.1738 32.5079 23.1348C33.0255 22.5977 33.5157 21.7891 34.3751 21.8633C34.9044 21.8164 35.3224 22.1777 35.7286 22.4551C36.2521 21.6192 36.8361 20.8184 37.3458 19.9746C37.5079 19.7324 37.4943 19.4317 37.504 19.1543C37.4864 16.0742 37.463 12.9961 37.4454 9.91798C34.9532 10.9551 32.715 12.5195 30.631 14.2188ZM39.9103 21.9199C39.3907 22.4024 39.09 23.0684 38.6837 23.6406C37.8575 24.9551 36.9239 26.2012 36.1622 27.5528C34.8634 30.5918 35.9318 34.4492 38.5724 36.4277C39.8712 37.25 41.4611 37.4024 42.9611 37.4902C45.7716 37.7188 48.1505 35.7715 49.9103 33.8028C49.3458 30.6817 48.2814 27.5352 46.1935 25.0918C44.6349 23.252 42.3321 22.0313 39.9103 21.9199ZM62.588 24.1133C60.0607 26.3711 58.7853 29.6778 58.0626 32.9141C58.006 33.336 57.7677 33.8789 58.1798 34.1973C59.7228 35.7578 61.5919 37.3086 63.8712 37.4863C65.6427 37.4942 67.5353 37.3945 69.0997 36.4727C70.9982 35.1192 72.086 32.7813 72.131 30.4727C72.1368 29.2227 71.9396 27.8985 71.1935 26.8613C70.0841 25.2168 69.0372 23.5313 67.9044 21.9024C65.9552 22.043 64.0489 22.8047 62.588 24.1133ZM27.8907 32.7813C25.4064 35.6348 22.8126 38.4199 20.6857 41.5625C24.6954 44.6074 28.7325 47.6152 32.7462 50.6563C33.1153 50.9317 33.4689 51.2402 33.8751 51.4629C34.6173 51.5488 35.3693 51.4883 36.1153 51.5254C37.2247 47.3613 36.631 42.9766 35.8439 38.8106C35.7657 37.9922 35.0861 37.4707 34.6407 36.8457C33.1251 34.8047 32.3517 32.2227 32.5099 29.6856C32.5509 28.9375 32.7169 28.2051 32.8126 27.4629C31.0841 29.1504 29.5275 31.0059 27.8907 32.7813ZM75.0431 28.1289C75.6622 31.211 74.9239 34.5528 72.9689 37.0254C72.5743 37.5449 72.0157 37.9961 71.9337 38.6856C71.3419 41.5684 70.838 44.4727 70.4591 47.3926C70.088 49.8008 70.4786 52.3106 71.4825 54.5254C74.6739 49.6133 77.7911 44.6524 80.9474 39.7168C81.2931 39.3028 80.9044 38.8086 80.7618 38.3945C79.0509 34.8692 77.0821 31.4746 75.0431 28.1289ZM52.1954 35.9512C50.6759 37.6133 48.9025 39.1074 46.7989 39.9668C44.4142 40.9805 41.7169 40.6719 39.2599 40.1074C39.8771 44.0195 40.1974 48.082 39.2345 51.9649C39.1017 52.334 39.6134 52.4219 39.8282 52.586C41.8282 53.5508 43.3732 55.3653 44.1075 57.4492C44.4786 58.5235 44.254 59.7754 43.379 60.5391C43.8946 60.9961 44.4357 61.4629 44.7384 62.0977C45.3888 63.3555 45.2618 64.9649 44.4103 66.0996C43.3204 67.5606 41.4474 68.3223 39.6466 68.2266C37.0997 68.1094 34.6446 67.0606 32.6661 65.4766C31.6837 67.8692 30.8243 70.3203 30.2775 72.8535C31.5314 73.4922 32.8575 73.9805 34.2052 74.3867C39.6427 75.9746 45.338 76.3828 50.9747 76.541C56.6603 76.6192 62.379 76.4024 67.9806 75.3653C70.7189 74.8203 73.4669 74.127 75.965 72.8496C75.5353 70.9004 74.9689 68.9746 74.215 67.125C72.672 70.3555 69.9982 73.211 66.5294 74.3262C63.7403 75.2149 60.3634 73.0801 60.2013 70.1094C60.0743 68.7696 60.9435 67.668 61.6993 66.6621C60.8556 66.5879 59.838 66.4278 59.4142 65.5879C58.8771 64.6797 59.3165 63.584 59.8907 62.8125C61.795 60.3262 64.4767 58.2637 67.6212 57.7324C68.1466 57.6172 68.8087 57.6914 69.1329 57.168C69.1368 56.8633 68.9669 56.5957 68.8575 56.3223C67.4943 53.4707 66.8829 50.2227 67.3556 47.082C67.629 44.7578 68.0626 42.457 68.4415 40.1465C66.0919 40.5977 63.5685 40.9746 61.2696 40.0957C59.0372 39.2852 57.2228 37.6895 55.5763 36.0313C54.4806 35.8086 53.3165 35.9863 52.1954 35.9512ZM29.7618 76.1309C29.7111 76.8399 29.6837 77.5508 29.6993 78.2637C32.9571 78.8203 36.0685 79.9903 39.1446 81.1621C43.8888 83.0137 48.5236 85.1348 53.1232 87.3145C57.4571 85.2715 61.8165 83.2754 66.2638 81.4942C69.6134 80.1934 72.9982 78.8809 76.5509 78.2617C76.5646 77.5528 76.5372 76.8418 76.4845 76.1348C71.1818 78.3047 65.4474 79.125 59.7638 79.4844C54.1212 79.8106 48.4493 79.7481 42.8263 79.1778C38.3673 78.7168 33.9278 77.8223 29.7618 76.1309Z" fill="#E02712"/>
<path d="M55.1543 60.4297C56.1407 59.957 57.4121 60.8164 57.3164 61.9121C57.1641 63.5684 55.8243 64.9844 54.2246 65.3652C53.7207 65.5039 53.1621 65.3438 52.793 64.9785C52.1641 64.4199 52.1524 63.3086 52.7832 62.7481C53.1504 62.4414 53.6328 62.3203 53.9961 62.0137C54.336 61.459 54.461 60.6699 55.1543 60.4297Z" fill="#E02712"/>
</svg>
