<?xml version="1.0" encoding="utf-8"?>
<!-- Generator: Adobe Illustrator 23.1.0, SVG Export Plug-In . SVG Version: 6.00 Build 0)  -->
<svg version="1.1" id="Слой_1" xmlns="http://www.w3.org/2000/svg" xmlns:xlink="http://www.w3.org/1999/xlink" x="0px" y="0px"
	 viewBox="0 0 2220 268" style="enable-background:new 0 0 2220 268;" xml:space="preserve">
<style type="text/css">
	.st0{fill:#39397A;}
	.st1{fill:#39397A;fill-opacity:0.3;}
</style>
<g>
	<path class="st0" d="M0,256.1V268h1110V0L0,256.1z"/>
	<path class="st1" d="M0,44.8V268h1110v-55.4L0,44.8z"/>
	<path class="st1" d="M1110,100.7V268H0V162.9L1110,100.7z"/>
	<path class="st0" d="M1110,0.5v268h1110v-11.9L1110,0.5z"/>
	<path class="st1" d="M1110,213.1v55.4h1110V45.3L1110,213.1z"/>
	<path class="st1" d="M2220,163.4v105.1H1110V101.2L2220,163.4z"/>
</g>
<polygon class="st0" points="1109.2,35.9 1093.8,26.9 1093.8,9.1 1109.2,0.2 1124.6,9.1 1124.6,26.9 "/>
<rect x="1106.3" y="32.4" class="st0" width="9.1" height="235.7"/>
<rect x="1109.5" y="3.4" transform="matrix(0.9689 0.2474 -0.2474 0.9689 35.876 -277.8222)" class="st0" width="27.6" height="0.8"/>
</svg>
