<svg version="1.1" id="Слой_1" xmlns="http://www.w3.org/2000/svg" x="0" y="0" width="71" height="71" xml:space="preserve"><style>.st0{fill:#cfd8e9}.st1{fill:#e7eefd}</style><path class="st0" d="M61.5 56.5c-.2 0-.4 0-.6-.1-.6-.3-1-1-.8-1.7 3.7-16.8 2.1-20.6-11.9-29C32.7 16.4 33 3.5 33 3c0-.8.7-1.4 1.5-1.4h1.1c18.8 0 34 15.3 34 34 0 7.4-2.3 14.5-6.8 20.4-.4.3-.8.5-1.3.5z"/><path class="st1" d="M35.5 3C53.5 3 68 17.6 68 35.5c0 7.3-2.4 14.1-6.5 19.5 3.7-17 2.3-21.7-12.6-30.6C34.1 15.5 34.5 3.2 34.5 3h1m0-3h-1c-1.6 0-2.9 1.3-2.9 2.9 0 .6-.3 14.3 15.8 24 13.4 8 14.7 11.4 11.2 27.4-.3 1.4.4 2.8 1.7 3.4.4.2.8.3 1.2.3.9 0 1.8-.4 2.4-1.2 4.6-6.2 7.1-13.5 7.1-21.3C71 15.9 55.1 0 35.5 0"/><path class="st0" d="M35 69.5C16.5 69.2 1.5 54 1.5 35.5c0-6.1 1.6-12.1 4.7-17.3.3-.5.8-.7 1.3-.7.2 0 .4 0 .5.1.7.3 1.1 1 .9 1.7C6 34 7.9 38 21.4 46.1c13.4 8 14.9 18.7 15.1 21.8 0 .4-.1.8-.4 1.1-.3.3-.7.5-1.1.5z"/><path class="st1" d="M7.5 19c-3 15.1-1.1 19.8 13.1 28.4C33.4 55.1 34.8 65.3 35 68 17.3 67.7 3 53.3 3 35.5c0-6 1.7-11.7 4.5-16.5m0-3h-.3c-.5.1-1 .2-1.4.5-.3.2-.5.4-.7.7-.1.1-.1.2-.2.3C1.7 22.9 0 29.2 0 35.5c0 9.4 3.6 18.2 10.2 24.9 6.6 6.7 15.4 10.4 24.7 10.6.8 0 1.6-.3 2.2-.9.6-.6.9-1.4.8-2.2-.2-3.3-1.8-14.7-15.8-23C9.2 37 7.6 33.7 10.4 19.7c.1-.2.1-.5.1-.7 0-1.6-1.2-2.9-2.8-3h-.2m0 6z"/><path fill="none" d="M0 0h71v71H0z"/></svg>