<svg version="1.1" id="Слой_1" xmlns="http://www.w3.org/2000/svg" xmlns:xlink="http://www.w3.org/1999/xlink" x="0" y="0" width="550.4" height="89.4" xml:space="preserve"><style>.st0{fill:#fff}.st2{clip-path:url(#SVGID_2_);fill:red}</style><path class="st0" d="M0 3.6h16.3c8.8 0 15.2.8 19.1 2.4 3.9 1.6 7 4.3 9.2 7.9 2.3 3.6 3.4 8 3.4 13.1 0 5.6-1.5 10.3-4.4 14.1-2.9 3.7-6.9 6.3-12 7.8-3 .8-8.4 1.3-16.2 1.3v34.2H0V3.6zm15.4 31.5h4.9c3.8 0 6.5-.3 8-.8 1.5-.6 2.7-1.5 3.5-2.7.9-1.3 1.3-2.8 1.3-4.6 0-3.1-1.2-5.4-3.6-6.8-1.8-1.1-5-1.6-9.8-1.6h-4.3v16.5zM57.9 24.6h12.9v7.5c1.4-3 3.2-5.2 5.5-6.8 2.3-1.5 4.8-2.3 7.6-2.3 1.9 0 4 .5 6.1 1.5l-4.7 12.9c-1.8-.9-3.2-1.3-4.3-1.3-2.3 0-4.3 1.4-5.8 4.3-1.6 2.9-2.4 8.5-2.4 16.8l.1 2.9v24.2h-15V24.6zM196.9 33l-9.3 9.3c-3.8-3.7-7.2-5.6-10.3-5.6-1.7 0-3 .4-4 1.1-1 .7-1.4 1.6-1.4 2.7 0 .8.3 1.5.9 2.2.6.7 2.1 1.6 4.5 2.8l5.5 2.7c5.8 2.9 9.8 5.8 11.9 8.7 2.2 3 3.2 6.4 3.2 10.4 0 5.3-1.9 9.7-5.8 13.3-3.9 3.6-9.1 5.3-15.7 5.3-8.7 0-15.7-3.4-20.9-10.2l9.2-10.1c1.8 2.1 3.8 3.7 6.2 5 2.4 1.3 4.5 1.9 6.3 1.9 2 0 3.6-.5 4.8-1.4 1.2-1 1.8-2 1.8-3.3 0-2.3-2.2-4.6-6.5-6.8l-5.1-2.5c-9.7-4.9-14.5-11-14.5-18.3 0-4.7 1.8-8.8 5.5-12.1s8.3-5 14-5c3.9 0 7.5.9 11 2.6 3.4 1.6 6.3 4.1 8.7 7.3zM211.6 2.6h15v22h8.9v12.9h-8.9v46.8h-15V37.5h-7.7V24.6h7.7v-22zM287.6 24.6h15v59.8h-15V78c-2.9 2.8-5.9 4.8-8.8 6-2.9 1.2-6.1 1.8-9.6 1.8-7.7 0-14.4-3-20-9s-8.4-13.4-8.4-22.3c0-9.2 2.7-16.8 8.2-22.7 5.4-5.9 12.1-8.8 19.9-8.8 3.6 0 6.9.7 10.1 2 3.1 1.4 6.1 3.4 8.7 6.1v-6.5zm-15.8 12.3c-4.6 0-8.5 1.6-11.5 4.9-3.1 3.3-4.6 7.5-4.6 12.6 0 5.2 1.6 9.4 4.7 12.7 3.1 3.3 7 5 11.5 5 4.7 0 8.6-1.6 11.7-4.9 3.1-3.3 4.7-7.6 4.7-12.9 0-5.2-1.6-9.4-4.7-12.6-3.1-3.2-7-4.8-11.8-4.8zM310.6 24.6h5.3c0-7.8.2-12.5.4-13.9.4-3.3 1.8-5.9 4.1-7.8 2.4-1.9 5.7-2.9 10-2.9 3.1 0 6.6.7 10.5 2.1v11.4c-2.2-.6-3.9-.9-5.3-.9-1.8 0-3 .4-3.8 1.1-.6.5-.9 1.7-.9 3.4l-.1 7.5h9.5v12.7h-9.5v47.1h-15V37.3h-5.3V24.6zM342.1 24.6h5.3c0-7.8.2-12.5.4-13.9.4-3.3 1.8-5.9 4.1-7.8C354.3 1 357.6 0 362 0c3.1 0 6.6.7 10.5 2.1v11.4c-2.2-.6-3.9-.9-5.3-.9-1.8 0-3 .4-3.8 1.1-.6.5-.9 1.7-.9 3.4l-.1 7.5h9.5v12.7h-9.5v47.1h-15V37.3h-5.3V24.6zM440.6 58.8h-48.2c.7 4.2 2.6 7.6 5.6 10.1s6.9 3.8 11.6 3.8c5.6 0 10.4-2 14.4-5.9l12.6 5.9c-3.1 4.5-6.9 7.8-11.3 9.9s-9.6 3.2-15.7 3.2c-9.4 0-17-3-22.9-8.9-5.9-5.9-8.8-13.3-8.8-22.2 0-9.1 2.9-16.7 8.8-22.7s13.2-9 22.1-9c9.4 0 17.1 3 23 9 5.9 6 8.8 14 8.8 23.9v2.9zm-15-11.8c-1-3.3-2.9-6-5.9-8.1s-6.3-3.1-10.1-3.1c-4.2 0-7.8 1.2-11 3.5-2 1.5-3.8 4-5.5 7.7h32.5zM511.2 36.7l-12.5 6.9c-2.3-2.5-4.7-4.2-7-5.1-2.3-1-5-1.4-8.1-1.4-5.6 0-10.1 1.7-13.6 5s-5.2 7.6-5.2 12.9c0 5.1 1.7 9.2 5 12.4 3.3 3.2 7.7 4.8 13.1 4.8 6.7 0 11.9-2.3 15.7-6.9l11.8 8.1c-6.4 8.3-15.5 12.5-27.1 12.5-10.5 0-18.7-3.1-24.7-9.3-5.9-6.2-8.9-13.5-8.9-21.9 0-5.8 1.4-11.1 4.3-16s6.9-8.7 12.1-11.5c5.2-2.8 11-4.2 17.4-4.2 5.9 0 11.3 1.2 16 3.5 4.8 2.5 8.7 5.8 11.7 10.2zM526.5 2.6h15v22h8.9v12.9h-8.9v46.8h-15V37.5h-7.7V24.6h7.7v-22z"/><path fill="red" d="M135.3 48.2h-6.5v-6.5h-11v6.5h-6.5v11h6.5v6.5h11v-6.5h6.5z"/><g><defs><path id="SVGID_1_" d="M90.5 24.4h65v65h-65z"/></defs><clipPath id="SVGID_2_"><use xlink:href="#SVGID_1_" overflow="visible"/></clipPath><path class="st2" d="M123 24.4h-1c0 .2-.4 12.4 14.4 21.3 14.9 8.9 16.3 13.7 12.6 30.6 4.1-5.4 6.5-12.2 6.5-19.5 0-17.8-14.5-32.4-32.5-32.4M108.1 68.8C93.9 60.2 92 55.6 95 40.4c-2.9 4.8-4.5 10.5-4.5 16.5 0 17.8 14.3 32.2 32 32.5-.2-2.7-1.6-12.9-14.4-20.6"/></g></svg>