<svg width="25" height="25" viewBox="0 0 25 25" fill="none" xmlns="http://www.w3.org/2000/svg">
<path d="M23.4318 17.4473H6.65755C6.33977 17.4473 6.03502 17.321 5.81032 17.0962C5.58562 16.8714 5.45939 16.5666 5.45939 16.2487C5.45939 15.9308 5.58562 15.6259 5.81032 15.4011C6.03502 15.1764 6.33977 15.0501 6.65755 15.0501H19.1663C19.9675 15.0501 20.7457 14.7824 21.3774 14.2895C22.0091 13.7965 22.458 13.1066 22.653 12.3293L24.6299 4.55042C24.6748 4.37352 24.6787 4.1887 24.6413 4.01007C24.604 3.83143 24.5263 3.66369 24.4143 3.51964C24.2977 3.37189 24.1481 3.25367 23.9774 3.17454C23.8067 3.09541 23.6198 3.0576 23.4318 3.06417H6.36999C6.12279 2.36474 5.66539 1.75891 5.06048 1.32974C4.45557 0.900572 3.73277 0.669077 2.99118 0.666992H1.86491C1.54714 0.666992 1.24238 0.793272 1.01768 1.01805C0.792982 1.24283 0.666748 1.5477 0.666748 1.86558C0.666748 2.18347 0.792982 2.48833 1.01768 2.71311C1.24238 2.93789 1.54714 3.06417 1.86491 3.06417H2.99118C3.26488 3.0562 3.53305 3.14224 3.75106 3.30798C3.96906 3.47372 4.12374 3.70916 4.18934 3.9751L4.26123 4.55042L6.33404 12.6529C5.38073 12.6958 4.4835 13.1158 3.83974 13.8205C3.19598 14.5252 2.85842 15.4568 2.90132 16.4105C2.94421 17.3641 3.36406 18.2617 4.06849 18.9057C4.77292 19.5497 5.70423 19.8874 6.65755 19.8444H6.87321C6.67616 20.3876 6.61284 20.9702 6.68861 21.543C6.76439 22.1158 6.97703 22.6618 7.30853 23.135C7.64003 23.6081 8.08062 23.9944 8.593 24.2611C9.10537 24.5278 9.67445 24.667 10.252 24.667C10.8296 24.667 11.3987 24.5278 11.9111 24.2611C12.4234 23.9944 12.864 23.6081 13.1955 23.135C13.527 22.6618 13.7397 22.1158 13.8154 21.543C13.8912 20.9702 13.8279 20.3876 13.6308 19.8444H16.4585C16.2614 20.3876 16.1981 20.9702 16.2739 21.543C16.3497 22.1158 16.5623 22.6618 16.8938 23.135C17.2253 23.6081 17.6659 23.9944 18.1783 24.2611C18.6907 24.5278 19.2597 24.667 19.8373 24.667C20.4149 24.667 20.984 24.5278 21.4963 24.2611C22.0087 23.9944 22.4493 23.6081 22.7808 23.135C23.1123 22.6618 23.3249 22.1158 23.4007 21.543C23.4765 20.9702 23.4132 20.3876 23.2161 19.8444H23.4318C23.7496 19.8444 24.0543 19.7182 24.279 19.4934C24.5037 19.2686 24.6299 18.9637 24.6299 18.6458C24.6299 18.328 24.5037 18.0231 24.279 17.7983C24.0543 17.5735 23.7496 17.4473 23.4318 17.4473ZM21.8981 5.46135L20.3285 11.742C20.2629 12.0079 20.1083 12.2433 19.8903 12.4091C19.6723 12.5748 19.4041 12.6609 19.1304 12.6529H8.79027L6.99303 5.46135H21.8981ZM10.252 22.2416C10.0151 22.2416 9.7834 22.1713 9.58636 22.0396C9.38933 21.9079 9.23575 21.7207 9.14507 21.5017C9.05438 21.2827 9.03066 21.0417 9.07689 20.8092C9.12312 20.5767 9.23723 20.3631 9.4048 20.1955C9.57236 20.0279 9.78586 19.9137 10.0183 19.8675C10.2507 19.8212 10.4916 19.845 10.7105 19.9357C10.9295 20.0264 11.1166 20.18 11.2483 20.3771C11.3799 20.5742 11.4502 20.806 11.4502 21.043C11.4502 21.3609 11.3239 21.6658 11.0993 21.8906C10.8746 22.1153 10.5698 22.2416 10.252 22.2416ZM19.8373 22.2416C19.6003 22.2416 19.3687 22.1713 19.1716 22.0396C18.9746 21.9079 18.821 21.7207 18.7303 21.5017C18.6397 21.2827 18.6159 21.0417 18.6622 20.8092C18.7084 20.5767 18.8225 20.3631 18.9901 20.1955C19.1576 20.0279 19.3711 19.9137 19.6035 19.8675C19.836 19.8212 20.0769 19.845 20.2958 19.9357C20.5148 20.0264 20.7019 20.18 20.8335 20.3771C20.9652 20.5742 21.0355 20.806 21.0355 21.043C21.0355 21.3609 20.9092 21.6658 20.6845 21.8906C20.4598 22.1153 20.1551 22.2416 19.8373 22.2416Z" fill="white"/>
</svg>
