<svg width="17" height="10" viewBox="0 0 17 10" fill="none" xmlns="http://www.w3.org/2000/svg">
<path d="M9.33317 8.33333H0.999837C0.778823 8.33333 0.566862 8.42113 0.410582 8.57741C0.254301 8.73369 0.166504 8.94565 0.166504 9.16667C0.166504 9.38768 0.254301 9.59964 0.410582 9.75592C0.566862 9.9122 0.778823 10 0.999837 10H9.33317C9.55418 10 9.76615 9.9122 9.92243 9.75592C10.0787 9.59964 10.1665 9.38768 10.1665 9.16667C10.1665 8.94565 10.0787 8.73369 9.92243 8.57741C9.76615 8.42113 9.55418 8.33333 9.33317 8.33333ZM0.999837 1.66667H15.9998C16.2209 1.66667 16.4328 1.57887 16.5891 1.42259C16.7454 1.26631 16.8332 1.05435 16.8332 0.833333C16.8332 0.61232 16.7454 0.400358 16.5891 0.244078C16.4328 0.0877975 16.2209 0 15.9998 0H0.999837C0.778823 0 0.566862 0.0877975 0.410582 0.244078C0.254301 0.400358 0.166504 0.61232 0.166504 0.833333C0.166504 1.05435 0.254301 1.26631 0.410582 1.42259C0.566862 1.57887 0.778823 1.66667 0.999837 1.66667ZM15.9998 4.16667H0.999837C0.778823 4.16667 0.566862 4.25446 0.410582 4.41074C0.254301 4.56702 0.166504 4.77899 0.166504 5C0.166504 5.22101 0.254301 5.43297 0.410582 5.58926C0.566862 5.74554 0.778823 5.83333 0.999837 5.83333H15.9998C16.2209 5.83333 16.4328 5.74554 16.5891 5.58926C16.7454 5.43297 16.8332 5.22101 16.8332 5C16.8332 4.77899 16.7454 4.56702 16.5891 4.41074C16.4328 4.25446 16.2209 4.16667 15.9998 4.16667Z" fill="#3B465F"/>
</svg>
