<svg width="11" height="12" viewBox="0 0 11 12" fill="none" xmlns="http://www.w3.org/2000/svg">
<path d="M6.67495 5.99999L10.2583 2.42499C10.4152 2.26807 10.5034 2.05524 10.5034 1.83333C10.5034 1.61141 10.4152 1.39858 10.2583 1.24166C10.1014 1.08474 9.88853 0.996582 9.66662 0.996582C9.4447 0.996582 9.23187 1.08474 9.07495 1.24166L5.49995 4.82499L1.92495 1.24166C1.76803 1.08474 1.5552 0.996582 1.33328 0.996582C1.11136 0.996582 0.898536 1.08474 0.741616 1.24166C0.584696 1.39858 0.496539 1.61141 0.496539 1.83333C0.496539 2.05524 0.584696 2.26807 0.741616 2.42499L4.32495 5.99999L0.741616 9.57499C0.663509 9.65246 0.601514 9.74463 0.559206 9.84618C0.516899 9.94773 0.495117 10.0567 0.495117 10.1667C0.495117 10.2767 0.516899 10.3856 0.559206 10.4871C0.601514 10.5887 0.663509 10.6809 0.741616 10.7583C0.819085 10.8364 0.911252 10.8984 1.0128 10.9407C1.11435 10.983 1.22327 11.0048 1.33328 11.0048C1.44329 11.0048 1.55221 10.983 1.65376 10.9407C1.75531 10.8984 1.84748 10.8364 1.92495 10.7583L5.49995 7.17499L9.07495 10.7583C9.15242 10.8364 9.24459 10.8984 9.34614 10.9407C9.44768 10.983 9.55661 11.0048 9.66662 11.0048C9.77663 11.0048 9.88555 10.983 9.9871 10.9407C10.0886 10.8984 10.1808 10.8364 10.2583 10.7583C10.3364 10.6809 10.3984 10.5887 10.4407 10.4871C10.483 10.3856 10.5048 10.2767 10.5048 10.1667C10.5048 10.0567 10.483 9.94773 10.4407 9.84618C10.3984 9.74463 10.3364 9.65246 10.2583 9.57499L6.67495 5.99999Z" fill="#333333"/>
</svg>
