<?xml version="1.0" encoding="utf-8"?>
<!-- Generator: Adobe Illustrator 19.1.1, SVG Export Plug-In . SVG Version: 6.00 Build 0)  -->
<svg version="1.1" id="Ebene_1" xmlns="http://www.w3.org/2000/svg" xmlns:xlink="http://www.w3.org/1999/xlink" x="0px" y="0px"
	 viewBox="-127 355 325.9 64.1" style="enable-background:new -127 355 325.9 64.1;" xml:space="preserve">
<style type="text/css">
	.st0{fill:#4A4A49;}
	.st1{fill:#0094B9;}
</style>
<g>
	<path class="st0" d="M173,395.9c0,0.4,0.4,0.8,0.8,0.8h3.9c0.5,0,0.8-0.4,0.8-0.8v-18.3l0,0l17.8,19.5h1c0.4,0,0.8-0.3,0.8-0.8
		v-28.5c0-0.4-0.4-0.8-0.8-0.8h-3.9c-0.5,0-0.8,0.4-0.8,0.8v17.6l0,0l-17.7-18.9h-1.1c-0.4,0-0.8,0.3-0.8,0.8V395.9z M146.8,395.9
		c0,0.4,0.3,0.8,0.8,0.8h17.3c0.5,0,0.8-0.4,0.8-0.8v-3.5c0-0.4-0.3-0.8-0.8-0.8h-12.6v-7.4h10.5c0.4,0,0.8-0.3,0.8-0.8v-3.5
		c0-0.4-0.4-0.8-0.8-0.8h-10.5v-7h12.6c0.5,0,0.8-0.4,0.8-0.8v-3.5c0-0.4-0.3-0.8-0.8-0.8h-17.3c-0.5,0-0.8,0.4-0.8,0.8L146.8,395.9
		L146.8,395.9z M121.9,395.9c0,0.4,0.3,0.8,0.8,0.8h15.6c0.5,0,0.8-0.4,0.8-0.8v-3.5c0-0.4-0.3-0.8-0.8-0.8h-10.8v-23.8
		c0-0.4-0.4-0.8-0.8-0.8h-3.9c-0.5,0-0.8,0.4-0.8,0.8v28.1H121.9z M97,395.9c0,0.4,0.3,0.8,0.8,0.8h15.6c0.5,0,0.8-0.4,0.8-0.8v-3.5
		c0-0.4-0.3-0.8-0.8-0.8h-10.8v-23.8c0-0.4-0.4-0.8-0.8-0.8h-3.9c-0.5,0-0.8,0.4-0.8,0.8L97,395.9L97,395.9z M69.3,395.9
		c0,0.4,0.3,0.8,0.8,0.8h17.3c0.5,0,0.8-0.4,0.8-0.8v-3.5c0-0.4-0.3-0.8-0.8-0.8H74.9v-7.4h10.5c0.4,0,0.8-0.3,0.8-0.8v-3.5
		c0-0.4-0.4-0.8-0.8-0.8H74.9v-7h12.6c0.5,0,0.8-0.4,0.8-0.8v-3.5c0-0.4-0.3-0.8-0.8-0.8H70.2c-0.5,0-0.8,0.4-0.8,0.8v28.1H69.3z
		 M49.3,395.9c0,0.4,0.4,0.8,0.8,0.8h4c0.4,0,0.8-0.4,0.8-0.8v-23.8h6.5c0.5,0,0.8-0.4,0.8-0.8v-3.5c0-0.4-0.3-0.8-0.8-0.8H42.8
		c-0.5,0-0.8,0.4-0.8,0.8v3.5c0,0.4,0.3,0.8,0.8,0.8h6.5V395.9z M17.4,393.8c0.9,0.8,4,3.3,9.4,3.3c6,0,9.8-4,9.8-8.4
		c0-5.5-4.8-7.9-8.9-9.6c-3.4-1.4-5-2.8-5-4.8c0-1.4,1.3-3,3.7-3c2.3,0,5.6,2.1,5.9,2.3c0.5,0.3,1.1,0,1.5-0.5l1.6-2.4
		c0.3-0.4,0.2-1.1-0.3-1.4c-0.9-0.6-4.2-2.8-8.5-2.8c-6.8,0-9.6,4.4-9.6,8.2c0,5,4,7.6,8,9.2c3.6,1.4,5.4,2.9,5.4,5.1
		c0,1.8-1.7,3.3-3.9,3.3c-2.8,0-6.2-2.5-6.4-2.6c-0.4-0.3-1.1-0.3-1.4,0.3l-1.5,2.6C16.8,393.2,17,393.5,17.4,393.8"/>
	<path class="st1" d="M-9.5,395.9c0,0.4,0.3,0.8,0.8,0.8H8.6c0.5,0,0.8-0.4,0.8-0.8v-3.5c0-0.4-0.3-0.8-0.8-0.8H-4v-7.4H6.5
		c0.4,0,0.8-0.3,0.8-0.8v-3.5c0-0.4-0.4-0.8-0.8-0.8H-4v-7H8.6c0.5,0,0.8-0.4,0.8-0.8v-3.5c0-0.4-0.3-0.8-0.8-0.8H-8.7
		c-0.5,0-0.8,0.4-0.8,0.8V395.9z M-29.5,395.9c0,0.4,0.4,0.8,0.8,0.8h4c0.4,0,0.8-0.4,0.8-0.8v-23.8h6.5c0.5,0,0.8-0.4,0.8-0.8v-3.5
		c0-0.4-0.3-0.8-0.8-0.8H-36c-0.5,0-0.8,0.4-0.8,0.8v3.5c0,0.4,0.3,0.8,0.8,0.8h6.5V395.9z M-63.3,395.9c0,0.4,0.4,0.8,0.8,0.8h18.2
		c0.5,0,0.8-0.4,0.8-0.8v-3.5c0-0.4-0.3-0.8-0.8-0.8h-10.9v-0.1l12.5-23.2v-0.5c0-0.4-0.4-0.8-0.8-0.8h-17.7c-0.4,0-0.8,0.4-0.8,0.8
		v3.5c0,0.4,0.4,0.8,0.8,0.8h10.6v0.2l-12.7,22.9V395.9z M-86.6,380.5V372h6.9c2.3,0,4.2,1.9,4.2,4.1c0,2.4-2,4.3-4.2,4.3h-6.9
		V380.5z M-92.2,395.9c0,0.4,0.3,0.8,0.8,0.8h3.9c0.4,0,0.8-0.4,0.8-0.8v-10.8h4.7l5.7,11.3c0.1,0.2,0.3,0.4,0.7,0.4h4.5
		c0.7,0,1-0.7,0.7-1.2l-5.8-10.8c3.7-1.5,6.3-4.7,6.3-8.6c0-5.1-4.2-9.1-9.3-9.1h-12.2c-0.5,0-0.8,0.4-0.8,0.8V395.9z M-117.1,386.6
		l4.2-9.4h0.1l4.3,9.4H-117.1z M-126.2,396.7h3.7c0.7,0,1.1-0.4,1.2-0.8l2.1-4.6h12.7l2.1,4.6c0.3,0.6,0.6,0.8,1.2,0.8h3.7
		c0.6,0,1-0.6,0.7-1.1l-13-28.6c-0.1-0.3-0.3-0.5-0.7-0.5h-0.4c-0.4,0-0.6,0.2-0.7,0.5l-13.3,28.6
		C-127.2,396.2-126.8,396.7-126.2,396.7"/>
	<path class="st1" d="M-104.2,355c-2.1,0-3.9,1.3-4.6,3.1c-0.3,0.6-0.9,1.1-1.6,1.1h-5.6c-0.4,0-0.7-0.2-0.9-0.5
		c-0.5-1-1.6-1.8-2.8-1.8c-1.7,0-3.1,1.4-3.1,3.1s1.4,3.1,3.1,3.1c1.2,0,2.3-0.7,2.8-1.7l0,0c0.2-0.3,0.5-0.6,0.9-0.6h5.6
		c0.7,0,1.3,0.4,1.6,1.1c0.8,1.8,2.5,3.1,4.6,3.1c2.8,0,5-2.2,5-5S-101.4,355-104.2,355"/>
</g>
<g>
	<path class="st0" d="M-127,409.8c0-0.1,0.1-0.3,0.2-0.3h3c2.6,0,4.7,2.1,4.7,4.6c0,2.6-2.1,4.7-4.7,4.7h-3c-0.1,0-0.2-0.1-0.2-0.3
		C-127,418.5-127,409.8-127,409.8z M-124,417.9c2.2,0,3.8-1.6,3.8-3.7c0-2.2-1.6-3.7-3.8-3.7h-2v7.5h2V417.9z"/>
	<path class="st0" d="M-117.1,409.8c0-0.1,0.1-0.3,0.3-0.3h5.2c0.1,0,0.3,0.1,0.3,0.3v0.4c0,0.1-0.1,0.3-0.3,0.3h-4.5v3.2h3.8
		c0.1,0,0.3,0.1,0.3,0.3v0.4c0,0.1-0.1,0.3-0.3,0.3h-3.8v3.4h4.5c0.1,0,0.3,0.1,0.3,0.3v0.4c0,0.1-0.1,0.3-0.3,0.3h-5.2
		c-0.1,0-0.3-0.1-0.3-0.3V409.8z"/>
	<path class="st0" d="M-109.2,409.8c0-0.1,0.1-0.3,0.3-0.3h3.4c1.6,0,2.9,1.2,2.9,2.8c0,1.2-0.8,2.2-2,2.7l1.8,3.4
		c0.1,0.2,0,0.4-0.2,0.4h-0.7c-0.1,0-0.2-0.1-0.2-0.1l-1.8-3.5h-2.5v3.4c0,0.1-0.1,0.3-0.3,0.3h-0.5c-0.1,0-0.3-0.1-0.3-0.3
		L-109.2,409.8L-109.2,409.8z M-105.6,414.3c1,0,1.9-0.8,1.9-1.9c0-1-0.9-1.9-1.9-1.9h-2.6v3.8H-105.6z"/>
	<path class="st0" d="M-98.1,417.4c0.1-0.1,0.1-0.2,0.2-0.3c0.1-0.2,0.3-0.3,0.5-0.1c0.1,0.1,1.1,1,2.2,1s1.8-0.7,1.8-1.5
		c0-0.9-0.8-1.5-2.3-2.1s-2.3-1.2-2.3-2.7c0-0.9,0.7-2.4,2.8-2.4c1.3,0,2.3,0.7,2.3,0.7c0.1,0,0.2,0.2,0.1,0.5
		c-0.1,0.1-0.1,0.2-0.2,0.3c-0.1,0.2-0.3,0.2-0.5,0.1c-0.1-0.1-0.9-0.6-1.7-0.6c-1.4,0-1.8,0.9-1.8,1.5c0,0.9,0.7,1.4,1.8,1.9
		c1.8,0.7,2.9,1.4,2.9,2.9c0,1.4-1.3,2.4-2.9,2.4s-2.6-0.9-2.8-1.1C-98.1,417.8-98.3,417.7-98.1,417.4z"/>
	<path class="st0" d="M-89.1,410.4h-2.3c-0.1,0-0.3-0.1-0.3-0.3v-0.3c0-0.1,0.1-0.3,0.3-0.3h5.6c0.1,0,0.3,0.1,0.3,0.3v0.4
		c0,0.1-0.1,0.3-0.3,0.3h-2.3v8.1c0,0.1-0.1,0.3-0.3,0.3h-0.5c-0.1,0-0.3-0.1-0.3-0.3L-89.1,410.4L-89.1,410.4z"/>
	<path class="st0" d="M-84.1,409.8c0-0.1,0.1-0.3,0.3-0.3h5.2c0.1,0,0.3,0.1,0.3,0.3v0.4c0,0.1-0.1,0.3-0.3,0.3h-4.5v3.2h3.8
		c0.1,0,0.3,0.1,0.3,0.3v0.4c0,0.1-0.1,0.3-0.3,0.3h-3.8v3.4h4.5c0.1,0,0.3,0.1,0.3,0.3v0.4c0,0.1-0.1,0.3-0.3,0.3h-5.2
		c-0.1,0-0.3-0.1-0.3-0.3V409.8z"/>
	<path class="st0" d="M-76.3,409.8c0-0.1,0.1-0.3,0.3-0.3h0.5c0.1,0,0.3,0.1,0.3,0.3v8.1h3.8c0.1,0,0.3,0.1,0.3,0.3v0.4
		c0,0.1-0.1,0.3-0.3,0.3H-76c-0.1,0-0.3-0.1-0.3-0.3C-76.3,418.6-76.3,409.8-76.3,409.8z"/>
	<path class="st0" d="M-69.7,409.8c0-0.1,0.1-0.3,0.3-0.3h0.5c0.1,0,0.3,0.1,0.3,0.3v8.1h3.8c0.1,0,0.3,0.1,0.3,0.3v0.4
		c0,0.1-0.1,0.3-0.3,0.3h-4.6c-0.1,0-0.3-0.1-0.3-0.3C-69.7,418.6-69.7,409.8-69.7,409.8z"/>
	<path class="st0" d="M-63.2,409.8c0-0.1,0.1-0.3,0.3-0.3h5.2c0.1,0,0.3,0.1,0.3,0.3v0.4c0,0.1-0.1,0.3-0.3,0.3h-4.5v3.2h3.8
		c0.1,0,0.3,0.1,0.3,0.3v0.4c0,0.1-0.1,0.3-0.3,0.3h-3.8v3.4h4.5c0.1,0,0.3,0.1,0.3,0.3v0.4c0,0.1-0.1,0.3-0.3,0.3h-5.2
		c-0.1,0-0.3-0.1-0.3-0.3V409.8z"/>
	<path class="st0" d="M-55.4,409.6c0-0.1,0.1-0.2,0.3-0.2h0.3l6,7.5l0,0v-7.1c0-0.1,0.1-0.3,0.3-0.3h0.4c0.1,0,0.3,0.1,0.3,0.3v8.9
		c0,0.1-0.1,0.2-0.3,0.2h-0.2l-6.1-7.6l0,0v7.2c0,0.1-0.1,0.3-0.3,0.3h-0.4c-0.1,0-0.3-0.1-0.3-0.3V409.6z"/>
	<path class="st0" d="M-44.1,409.6c0-0.1,0.1-0.2,0.2-0.2h0.2c0.1,0,0.2,0.1,0.2,0.1l2.6,7.3c0,0,0,0,0.1,0l2.6-7.3
		c0-0.1,0.1-0.1,0.2-0.1h0.2c0.1,0,0.2,0.1,0.2,0.2l1.7,8.9c0,0.2,0,0.3-0.2,0.3h-0.5c-0.1,0-0.2-0.1-0.2-0.2l-1.2-6.8
		c0,0,0,0-0.1,0l-2.4,7c0,0.1-0.1,0.1-0.2,0.1h-0.2c-0.1,0-0.2-0.1-0.2-0.1l-2.5-7c0,0,0,0-0.1,0l-1.2,6.8c0,0.1-0.1,0.2-0.2,0.2
		h-0.5c-0.2,0-0.3-0.1-0.2-0.3L-44.1,409.6z"/>
	<path class="st0" d="M-34.9,418.5l4-8.9c0-0.1,0.1-0.1,0.2-0.1h0.1c0.1,0,0.2,0.1,0.2,0.1l4,8.9c0.1,0.2,0,0.3-0.2,0.3h-0.5
		c-0.1,0-0.2-0.1-0.2-0.1l-1-2.2H-33l-1,2.2c0,0.1-0.1,0.1-0.2,0.1h-0.5C-34.9,418.8-35,418.6-34.9,418.5z M-28.6,415.6
		c-0.7-1.4-1.3-2.9-1.9-4.3h-0.1l-1.9,4.3H-28.6z"/>
	<path class="st0" d="M-24.9,409.8c0-0.1,0.1-0.3,0.3-0.3h3.4c1.6,0,2.9,1.2,2.9,2.8c0,1.2-0.8,2.2-2,2.7l1.8,3.4
		c0.1,0.2,0,0.4-0.2,0.4h-0.7c-0.1,0-0.2-0.1-0.2-0.1l-1.8-3.5h-2.5v3.4c0,0.1-0.1,0.3-0.3,0.3h-0.5c-0.1,0-0.3-0.1-0.3-0.3
		L-24.9,409.8L-24.9,409.8z M-21.2,414.3c1,0,1.9-0.8,1.9-1.9c0-1-0.9-1.9-1.9-1.9h-2.6v3.8H-21.2z"/>
	<path class="st0" d="M-16.1,409.8c0-0.2,0.1-0.3,0.3-0.3h0.4c0.2,0,0.3,0.1,0.3,0.3v3.8l4.1-3.9c0.1-0.1,0.2-0.1,0.3-0.1h0.6
		c0.2,0,0.4,0.3,0.2,0.5l-4.2,3.9l4.4,4.5c0.1,0.1,0.1,0.4-0.2,0.4h-0.7c-0.1,0-0.2-0.1-0.2-0.1l-4.3-4.4v4.2c0,0.2-0.1,0.3-0.3,0.3
		h-0.4c-0.2,0-0.3-0.1-0.3-0.3L-16.1,409.8L-16.1,409.8z"/>
	<path class="st0" d="M-6.6,410.4h-2.3c-0.1,0-0.3-0.1-0.3-0.3v-0.3c0-0.1,0.1-0.3,0.3-0.3h5.6c0.1,0,0.3,0.1,0.3,0.3v0.4
		c0,0.1-0.1,0.3-0.3,0.3h-2.3v8.1c0,0.1-0.1,0.3-0.3,0.3h-0.5c-0.1,0-0.3-0.1-0.3-0.3v-8.2H-6.6z"/>
	<path class="st0" d="M1.4,409.8c0-0.1,0.1-0.3,0.2-0.3h3c2.6,0,4.7,2.1,4.7,4.6c0,2.6-2.1,4.7-4.7,4.7h-3c-0.1,0-0.2-0.1-0.2-0.3
		V409.8z M4.4,417.9c2.2,0,3.8-1.6,3.8-3.7c0-2.2-1.6-3.7-3.8-3.7h-2v7.5h2V417.9z"/>
	<path class="st0" d="M11.3,409.8c0-0.1,0.1-0.3,0.3-0.3h5.2c0.1,0,0.3,0.1,0.3,0.3v0.4c0,0.1-0.1,0.3-0.3,0.3h-4.5v3.2h3.8
		c0.1,0,0.3,0.1,0.3,0.3v0.4c0,0.1-0.1,0.3-0.3,0.3h-3.8v3.4h4.5c0.1,0,0.3,0.1,0.3,0.3v0.4c0,0.1-0.1,0.3-0.3,0.3h-5.2
		c-0.1,0-0.3-0.1-0.3-0.3V409.8z"/>
	<path class="st0" d="M18.6,417.4c0.1-0.1,0.1-0.2,0.2-0.3c0.1-0.2,0.3-0.3,0.5-0.1c0.1,0.1,1.1,1,2.2,1c1.1,0,1.8-0.7,1.8-1.5
		c0-0.9-0.8-1.5-2.3-2.1s-2.3-1.2-2.3-2.7c0-0.9,0.7-2.4,2.8-2.4c1.3,0,2.3,0.7,2.3,0.7c0.1,0,0.2,0.2,0.1,0.5
		c-0.1,0.1-0.1,0.2-0.2,0.3c-0.1,0.2-0.3,0.2-0.5,0.1c-0.1-0.1-0.9-0.6-1.7-0.6c-1.4,0-1.8,0.9-1.8,1.5c0,0.9,0.7,1.4,1.8,1.9
		c1.8,0.7,2.9,1.4,2.9,2.9c0,1.4-1.3,2.4-2.9,2.4c-1.6,0-2.6-0.9-2.8-1.1C18.5,417.8,18.4,417.7,18.6,417.4z"/>
	<path class="st0" d="M29.2,409.8c0-0.1,0.1-0.3,0.2-0.3h3c2.6,0,4.7,2.1,4.7,4.6c0,2.6-2.1,4.7-4.7,4.7h-3c-0.1,0-0.2-0.1-0.2-0.3
		V409.8z M32.2,417.9c2.2,0,3.8-1.6,3.8-3.7c0-2.2-1.6-3.7-3.8-3.7h-2v7.5h2V417.9z"/>
	<path class="st0" d="M39.1,409.8c0-0.1,0.1-0.3,0.3-0.3h5.2c0.1,0,0.3,0.1,0.3,0.3v0.4c0,0.1-0.1,0.3-0.3,0.3h-4.5v3.2h3.8
		c0.1,0,0.3,0.1,0.3,0.3v0.4c0,0.1-0.1,0.3-0.3,0.3h-3.8v3.4h4.5c0.1,0,0.3,0.1,0.3,0.3v0.4c0,0.1-0.1,0.3-0.3,0.3h-5.2
		c-0.1,0-0.3-0.1-0.3-0.3V409.8z"/>
	<path class="st0" d="M46.8,409.8c0-0.1,0.1-0.3,0.3-0.3h0.5c0.1,0,0.3,0.1,0.3,0.3v5.5c0,1.5,0.9,2.7,2.5,2.7s2.5-1.2,2.5-2.7v-5.5
		c0-0.1,0.1-0.3,0.3-0.3h0.5c0.1,0,0.3,0.1,0.3,0.3v5.6c0,2-1.4,3.6-3.5,3.6s-3.5-1.5-3.5-3.6v-5.6H46.8z"/>
	<path class="st0" d="M57.8,410.4h-2.3c-0.1,0-0.3-0.1-0.3-0.3v-0.3c0-0.1,0.1-0.3,0.3-0.3h5.6c0.1,0,0.3,0.1,0.3,0.3v0.4
		c0,0.1-0.1,0.3-0.3,0.3h-2.3v8.1c0,0.1-0.1,0.3-0.3,0.3H58c-0.1,0-0.3-0.1-0.3-0.3v-8.2H57.8z"/>
	<path class="st0" d="M62.2,417.4c0.1-0.1,0.1-0.2,0.2-0.3c0.1-0.2,0.3-0.3,0.5-0.1c0.1,0.1,1.1,1,2.2,1c1.1,0,1.8-0.7,1.8-1.5
		c0-0.9-0.8-1.5-2.3-2.1c-1.5-0.6-2.3-1.2-2.3-2.7c0-0.9,0.7-2.4,2.8-2.4c1.3,0,2.3,0.7,2.3,0.7c0.1,0,0.2,0.2,0.1,0.5
		c-0.1,0.1-0.1,0.2-0.2,0.3c-0.1,0.2-0.3,0.2-0.5,0.1c-0.1-0.1-0.9-0.6-1.7-0.6c-1.4,0-1.8,0.9-1.8,1.5c0,0.9,0.7,1.4,1.8,1.9
		c1.8,0.7,2.9,1.4,2.9,2.9c0,1.4-1.3,2.4-2.9,2.4c-1.6,0-2.6-0.9-2.8-1.1C62.2,417.8,62,417.7,62.2,417.4z"/>
	<path class="st0" d="M74,409.4c1.3,0,2.3,0.5,3.2,1.2c0.1,0.1,0.1,0.3,0,0.4l-0.4,0.4c-0.1,0.1-0.2,0.1-0.3,0c-0.7-0.6-1.6-1-2.5-1
		c-2.1,0-3.7,1.8-3.7,3.8s1.6,3.8,3.7,3.8c1.2,0,1.8-0.5,2.5-1c0.1-0.1,0.2-0.1,0.3,0l0.4,0.4c0.1,0.1,0.1,0.3,0,0.4
		c-0.9,0.9-2,1.3-3.2,1.3c-2.7,0-4.8-2.1-4.8-4.8C69.2,411.6,71.3,409.4,74,409.4z"/>
	<path class="st0" d="M79.2,409.8c0-0.1,0.1-0.3,0.3-0.3H80c0.1,0,0.3,0.1,0.3,0.3v3.9h5.4v-3.9c0-0.1,0.1-0.3,0.3-0.3h0.5
		c0.1,0,0.3,0.1,0.3,0.3v8.8c0,0.1-0.1,0.3-0.3,0.3h-0.6c-0.1,0-0.3-0.1-0.3-0.3v-4h-5.4v4c0,0.1-0.1,0.3-0.3,0.3h-0.5
		c-0.1,0-0.3-0.1-0.3-0.3v-8.8H79.2z"/>
	<path class="st0" d="M89.4,409.8c0-0.1,0.1-0.3,0.3-0.3h5.2c0.1,0,0.3,0.1,0.3,0.3v0.4c0,0.1-0.1,0.3-0.3,0.3h-4.5v3.2h3.8
		c0.1,0,0.3,0.1,0.3,0.3v0.4c0,0.1-0.1,0.3-0.3,0.3h-3.8v3.4h4.5c0.1,0,0.3,0.1,0.3,0.3v0.4c0,0.1-0.1,0.3-0.3,0.3h-5.2
		c-0.1,0-0.3-0.1-0.3-0.3V409.8z"/>
	<path class="st0" d="M97.2,409.6c0-0.1,0.1-0.2,0.3-0.2h0.3l6,7.5l0,0v-7.1c0-0.1,0.1-0.3,0.3-0.3h0.5c0.1,0,0.3,0.1,0.3,0.3v8.9
		c0,0.1-0.1,0.2-0.3,0.2h-0.2l-6.1-7.6l0,0v7.2c0,0.1-0.1,0.3-0.3,0.3h-0.5c-0.1,0-0.3-0.1-0.3-0.3V409.6z"/>
	<path class="st0" d="M109.2,418.5l4-8.9c0-0.1,0.1-0.1,0.2-0.1h0.1c0.1,0,0.2,0.1,0.2,0.1l4,8.9c0.1,0.2,0,0.3-0.2,0.3H117
		c-0.1,0-0.2-0.1-0.2-0.1l-1-2.2h-4.7l-1,2.2c0,0.1-0.1,0.1-0.2,0.1h-0.5C109.2,418.8,109.1,418.6,109.2,418.5z M111.5,407.7
		c0-0.4,0.3-0.6,0.6-0.6c0.4,0,0.6,0.3,0.6,0.6c0,0.3-0.3,0.6-0.6,0.6C111.7,408.3,111.5,408,111.5,407.7z M115.5,415.6
		c-0.7-1.4-1.3-2.9-1.9-4.3h-0.1l-1.9,4.3H115.5z M114.3,407.7c0-0.4,0.3-0.6,0.6-0.6c0.4,0,0.6,0.3,0.6,0.6c0,0.3-0.3,0.6-0.6,0.6
		C114.5,408.3,114.3,408,114.3,407.7z"/>
	<path class="st0" d="M119.3,409.8c0-0.1,0.1-0.3,0.3-0.3h3.4c1.6,0,2.9,1.2,2.9,2.8c0,1.2-0.8,2.2-2,2.7l1.8,3.4
		c0.1,0.2,0,0.4-0.2,0.4h-0.7c-0.1,0-0.2-0.1-0.2-0.1l-1.8-3.5h-2.5v3.4c0,0.1-0.1,0.3-0.3,0.3h-0.5c-0.1,0-0.3-0.1-0.3-0.3v-8.8
		H119.3z M122.9,414.3c1,0,1.9-0.8,1.9-1.9c0-1-0.9-1.9-1.9-1.9h-2.6v3.8H122.9z"/>
	<path class="st0" d="M127.1,418.3l4.8-7.8l0,0h-4.2c-0.1,0-0.3-0.1-0.3-0.3v-0.4c0-0.1,0.1-0.3,0.3-0.3h5.4c0.1,0,0.3,0.1,0.3,0.3
		v0.2l-4.9,7.9l0,0h4.4c0.1,0,0.3,0.1,0.3,0.3v0.4c0,0.1-0.1,0.3-0.3,0.3h-5.5c-0.1,0-0.3-0.1-0.3-0.3L127.1,418.3L127.1,418.3z"/>
	<path class="st0" d="M136.4,410.4h-2.3c-0.1,0-0.3-0.1-0.3-0.3v-0.3c0-0.1,0.1-0.3,0.3-0.3h5.6c0.1,0,0.3,0.1,0.3,0.3v0.4
		c0,0.1-0.1,0.3-0.3,0.3h-2.3v8.1c0,0.1-0.1,0.3-0.3,0.3h-0.5c-0.1,0-0.3-0.1-0.3-0.3L136.4,410.4L136.4,410.4z"/>
	<path class="st0" d="M141.5,409.8c0-0.1,0.1-0.3,0.3-0.3h5.2c0.1,0,0.3,0.1,0.3,0.3v0.4c0,0.1-0.1,0.3-0.3,0.3h-4.5v3.2h3.8
		c0.1,0,0.3,0.1,0.3,0.3v0.4c0,0.1-0.1,0.3-0.3,0.3h-3.8v3.4h4.5c0.1,0,0.3,0.1,0.3,0.3v0.4c0,0.1-0.1,0.3-0.3,0.3h-5.2
		c-0.1,0-0.3-0.1-0.3-0.3V409.8z"/>
	<path class="st0" d="M149.3,409.8c0-0.1,0.1-0.3,0.3-0.3h2.9c1.6,0,2.7,1,2.7,2.4c0,1-0.7,1.8-1.3,2.1c0.7,0.3,1.6,0.9,1.6,2.2
		c0,1.5-1.2,2.6-2.9,2.6h-3c-0.1,0-0.3-0.1-0.3-0.3L149.3,409.8L149.3,409.8z M152.7,417.9c1,0,1.7-0.7,1.7-1.7
		c0-0.9-0.9-1.6-1.9-1.6h-2.2v3.3C150.3,417.9,152.7,417.9,152.7,417.9z M152.5,413.7c1,0,1.6-0.7,1.6-1.7s-0.6-1.6-1.6-1.6h-2.2
		v3.2h2.2V413.7z"/>
	<path class="st0" d="M157.6,409.8c0-0.1,0.1-0.3,0.3-0.3h0.5c0.1,0,0.3,0.1,0.3,0.3v8.1h3.8c0.1,0,0.3,0.1,0.3,0.3v0.4
		c0,0.1-0.1,0.3-0.3,0.3h-4.6c-0.1,0-0.3-0.1-0.3-0.3V409.8z"/>
	<path class="st0" d="M163.3,418.5l4-8.9c0-0.1,0.1-0.1,0.2-0.1h0.1c0.1,0,0.2,0.1,0.2,0.1l4,8.9c0.1,0.2,0,0.3-0.2,0.3h-0.5
		c-0.1,0-0.2-0.1-0.2-0.1l-1-2.2h-4.7l-1,2.2c0,0.1-0.1,0.1-0.2,0.1h-0.5C163.3,418.8,163.2,418.6,163.3,418.5z M169.6,415.6
		c-0.6-1.4-1.3-2.9-1.9-4.3h-0.1l-1.9,4.3H169.6z"/>
	<path class="st0" d="M174.1,410.4h-2.3c-0.1,0-0.3-0.1-0.3-0.3v-0.3c0-0.1,0.1-0.3,0.3-0.3h5.6c0.1,0,0.3,0.1,0.3,0.3v0.4
		c0,0.1-0.1,0.3-0.3,0.3h-2.3v8.1c0,0.1-0.1,0.3-0.3,0.3h-0.5c-0.1,0-0.3-0.1-0.3-0.3L174.1,410.4L174.1,410.4z"/>
	<path class="st0" d="M180.8,410.4h-2.3c-0.1,0-0.3-0.1-0.3-0.3v-0.3c0-0.1,0.1-0.3,0.3-0.3h5.6c0.1,0,0.3,0.1,0.3,0.3v0.4
		c0,0.1-0.1,0.3-0.3,0.3h-2.3v8.1c0,0.1-0.1,0.3-0.3,0.3H181c-0.1,0-0.3-0.1-0.3-0.3L180.8,410.4L180.8,410.4z"/>
	<path class="st0" d="M185.8,409.8c0-0.1,0.1-0.3,0.3-0.3h5.2c0.1,0,0.3,0.1,0.3,0.3v0.4c0,0.1-0.1,0.3-0.3,0.3h-4.5v3.2h3.8
		c0.1,0,0.3,0.1,0.3,0.3v0.4c0,0.1-0.1,0.3-0.3,0.3h-3.8v3.4h4.5c0.1,0,0.3,0.1,0.3,0.3v0.4c0,0.1-0.1,0.3-0.3,0.3h-5.2
		c-0.1,0-0.3-0.1-0.3-0.3V409.8z"/>
	<path class="st0" d="M193.1,417.4c0.1-0.1,0.1-0.2,0.2-0.3c0.1-0.2,0.3-0.3,0.5-0.1c0.1,0.1,1.1,1,2.2,1s1.8-0.7,1.8-1.5
		c0-0.9-0.8-1.5-2.3-2.1s-2.3-1.2-2.3-2.7c0-0.9,0.7-2.4,2.8-2.4c1.3,0,2.3,0.7,2.3,0.7c0.1,0,0.2,0.2,0.1,0.5
		c-0.1,0.1-0.1,0.2-0.2,0.3c-0.1,0.2-0.3,0.2-0.5,0.1c-0.1-0.1-0.9-0.6-1.7-0.6c-1.4,0-1.8,0.9-1.8,1.5c0,0.9,0.7,1.4,1.8,1.9
		c1.8,0.7,2.9,1.4,2.9,2.9c0,1.4-1.3,2.4-2.9,2.4s-2.6-0.9-2.8-1.1C193,417.8,192.9,417.7,193.1,417.4z"/>
</g>
</svg>
