<svg xmlns="http://www.w3.org/2000/svg" width="67" height="55" viewBox="0 0 67 55"><g><g><path fill="#e7e7e7" d="M33.611 47.578c-.54 0-1.03-.351-1.213-.856a1.296 1.296 0 0 1 .379-1.418 1.302 1.302 0 0 1 1.514-.113c.45.28.689.828.584 1.347a1.304 1.304 0 0 1-1.264 1.04zM.431 19.862a1.29 1.29 0 0 1 .286-1.48c.323-.305 3.243-2.956 6.398-2.346a5.485 5.485 0 0 1 2.11.922 17.12 17.12 0 0 1 .096-3.546c-.976-1.076-3.141-3.845-2.737-6.855.507-3.78 4.825-6.126 5.008-6.223a1.29 1.29 0 0 1 1.494.2c.151.143 3.697 3.545 3.19 7.324-.398 2.966-3.14 5.048-4.393 5.855-.487 3.51.4 7.476 2.46 10.951 2.163 3.649 5.339 6.21 8.712 7.024a1.29 1.29 0 0 1-.606 2.508 14.186 14.186 0 0 1-4.02-1.684c-.89 1.233-2.84 3.463-5.47 3.74-.186.02-.372.029-.556.029-3.34 0-6.138-3.086-6.262-3.225a1.289 1.289 0 0 1-.159-1.498c.098-.17 2.42-4.172 6.002-4.55.26-.027.52-.035.774-.024a21.689 21.689 0 0 1-2.09-3.946c-1.014.685-2.543 1.47-4.212 1.47-.315 0-.636-.027-.96-.09C2.342 23.81.618 20.264.432 19.863zm15.73 11.375c-.95-.81-2.49-1.812-3.906-1.663-1.417.15-2.716 1.454-3.477 2.447.95.81 2.494 1.816 3.91 1.666 1.495-.158 2.777-1.536 3.474-2.45zm-5.273-19.959c1.106-.789 2.62-2.187 2.831-3.763.212-1.577-.881-3.327-1.742-4.38-1.107.787-2.624 2.188-2.836 3.766-.224 1.665.96 3.418 1.747 4.377zm-7.62 8.363c.59.895 1.573 2.024 2.718 2.246 1.14.218 2.48-.47 3.357-1.075-.591-.894-1.573-2.023-2.717-2.244-1.144-.22-2.475.462-3.359 1.073zm39.386 13.605a1.29 1.29 0 0 1 .95-1.558c3.374-.816 6.549-3.375 8.712-7.024 2.06-3.475 2.947-7.44 2.46-10.951-1.252-.808-3.995-2.89-4.393-5.855-.507-3.78 3.039-7.181 3.19-7.323a1.29 1.29 0 0 1 1.494-.201c.183.097 4.501 2.443 5.008 6.223.404 3.01-1.76 5.778-2.737 6.855a17.12 17.12 0 0 1 .097 3.546 5.478 5.478 0 0 1 2.11-.922c3.155-.61 6.075 2.04 6.398 2.345.403.381.518.976.285 1.48-.186.402-1.91 3.948-5.065 4.558-.323.062-.644.09-.96.09-1.669 0-3.197-.786-4.211-1.472a21.707 21.707 0 0 1-2.091 3.947c.255-.011.514-.002.775.025 3.58.377 5.904 4.379 6.001 4.55a1.289 1.289 0 0 1-.158 1.497c-.124.139-2.922 3.225-6.262 3.225-.184 0-.37-.01-.557-.03-2.629-.276-4.58-2.506-5.47-3.74a14.185 14.185 0 0 1-4.019 1.685 1.293 1.293 0 0 1-1.557-.95zm14.662-12.432c.882.611 2.214 1.292 3.358 1.073 1.14-.221 2.129-1.36 2.718-2.246-.883-.611-2.214-1.293-3.358-1.073-1.14.22-2.129 1.359-2.718 2.246zm-6.822 10.427c.76.99 2.06 2.297 3.477 2.446 1.416.15 2.96-.855 3.91-1.667-.76-.991-2.059-2.296-3.476-2.446-1.417-.15-2.96.855-3.91 1.666zm5.286-19.965c.86-1.052 1.95-2.8 1.74-4.375-.213-1.578-1.73-2.978-2.837-3.766-.86 1.051-1.954 2.802-1.743 4.38.224 1.666 1.829 3.045 2.84 3.761zm10.399 28.708l-3.59 6.302 3.59 6.304a1.29 1.29 0 0 1-1.121 1.928H1.602a1.29 1.29 0 0 1-1.12-1.928l3.589-6.304-3.59-6.302a1.29 1.29 0 0 1 1.12-1.93h25.406V17.38a3.832 3.832 0 0 1-1.845.485c-2.553 0-4.133-2.537-4.133-4.887 0-1.778.842-3.302 2.31-4.182l7.649-4.637c.637-.395 1.43-.598 2.358-.598 2.546 0 5.294 1.582 5.294 4.135v30.36h26.418a1.29 1.29 0 0 1 1.12 1.929zM29.586 15.066v22.989h6.474V7.695c0-.784-1.344-1.555-2.715-1.555-.433 0-.779.073-.999.21a.21.21 0 0 0-.015.01l-7.66 4.644c-.88.527-1.063 1.363-1.063 1.973 0 1.089.665 2.308 1.554 2.308.137 0 .413-.032.736-.247l.035-.024 1.683-1.044a1.29 1.29 0 0 1 1.97 1.096zM3.821 51.938h9.95V40.635h-9.95l2.855 5.014c.225.396.225.88 0 1.276zm12.53 0h33.958v-4.361H39.467a1.29 1.29 0 0 1 0-2.58H50.31v-4.362H16.35v4.362h11.45a1.29 1.29 0 0 1 0 2.58h-11.45zm46.488-11.303h-9.95v11.303h9.95l-2.855-5.013a1.29 1.29 0 0 1 0-1.276z"/></g></g></svg>