<?xml version="1.0" encoding="utf-8"?>
<!-- Generator: Adobe Illustrator 21.0.2, SVG Export Plug-In . SVG Version: 6.00 Build 0)  -->
<svg version="1.1" id="Layer_1" xmlns="http://www.w3.org/2000/svg" xmlns:xlink="http://www.w3.org/1999/xlink" x="0px" y="0px"
	 viewBox="0 0 141 50" style="enable-background:new 0 0 141 50;" xml:space="preserve">
<style type="text/css">
	.st0{fill:url(#SVGID_1_);}
	.st1{fill:none;}
	.st2{fill:#C95828;}
	.st3{fill:#FFFFFF;}
	.st4{opacity:0.6;fill:#F26F28;}
</style>
<linearGradient id="SVGID_1_" gradientUnits="userSpaceOnUse" x1="70.5" y1="2.2" x2="70.5" y2="52.084" gradientTransform="matrix(1 0 0 1 0 -2)">
	<stop  offset="0" style="stop-color:#F89B2A"/>
	<stop  offset="1" style="stop-color:#F37028"/>
</linearGradient>
<path class="st0" d="M135.7,0.2h-3.8h-1.1h-13.1h-1H97.2H83H45h-4.9H5.3c-2.7,0-5,2.2-5,5v39.6c0,2.7,2.2,4.9,4.9,4.9c0,0,0,0,0.1,0
	h39.6c0,0,0,0,0.1,0l0,0h38h14.2h19.5h1h13.1h1.1h3.8c2.7,0,5-2.2,5-5V5.2C140.7,2.5,138.4,0.2,135.7,0.2z"/>
<rect x="36.3" y="14.8" class="st1" width="95.2" height="25.3"/>
<g>
	<g>
		<g>
			<path class="st2" d="M21.2,26.8c2-0.8,3-2.7,3-6.5c0-5-1.7-7.7-6.5-7.7h-2.6c-1,0-1.8,0.1-2.7,0c0.1,0.7,0,1.3,0,2.6V35
				c0,0.9,0.2,1.9,0,2.8h6.3c4.2,0,5.7-3.1,5.7-5.5C24.3,29.1,22.9,27.3,21.2,26.8z M15.5,18.5c0-1.8,0.4-2.6,1.2-2.6h0.9
				c2.3,0,3.4,1.1,3.4,4.6c0,3.9-1.3,4.9-3.5,4.9h-1.9c-0.1-0.1-0.2-0.4-0.2-0.6L15.5,18.5L15.5,18.5z M18.3,34.8h-2.1
				c-0.3,0-0.5-0.2-0.5-0.6v-2.9c0-1.7,0.3-2.9,0.9-2.9H18c2.2,0,3.2,1.6,3.2,3.4C21.2,33.6,20.1,34.8,18.3,34.8z"/>
		</g>
	</g>
	<g>
		<g>
			<path class="st3" d="M21.2,26.5c2-0.8,3-2.7,3-6.5c0-5-1.7-7.7-6.5-7.7h-2.6c-1,0-1.8,0.1-2.7,0c0.1,0.7,0,1.3,0,2.6v19.8
				c0,0.9,0.2,1.9,0,2.8h6.3c4.2,0,5.7-3.1,5.7-5.5C24.3,28.8,22.9,27,21.2,26.5z M15.5,18.1c0-1.8,0.4-2.6,1.2-2.6h0.9
				c2.3,0,3.4,1.1,3.4,4.6c0,3.9-1.3,4.9-3.5,4.9h-1.9c-0.1-0.1-0.2-0.4-0.2-0.6L15.5,18.1L15.5,18.1z M18.3,34.4h-2.1
				c-0.3,0-0.5-0.2-0.5-0.6v-2.9c0-1.7,0.3-2.9,0.9-2.9H18c2.2,0,3.2,1.6,3.2,3.4C21.2,33.3,20.1,34.4,18.3,34.4z"/>
		</g>
	</g>
</g>
<path class="st4" d="M135.7,0.1h-3.8h-1.1h-13.1h-1H97.2H83H45h-4.9H5.3c-2.7,0-5,2.2-5,5v39.6c0,2.7,2.2,4.9,4.9,4.9c0,0,0,0,0.1,0
	h39.6c0,0,0,0,0.1,0l0,0h38h14.2h19.5h1h13.1h1.1h3.8c2.7,0,5-2.2,5-5V5.1C140.7,2.4,138.4,0.1,135.7,0.1z"/>
</svg>
