<svg width="110" height="110" viewBox="0 0 110 110" fill="none" xmlns="http://www.w3.org/2000/svg">
<path d="M53.0643 4.95643C54.8174 4.19589 57.1398 4.94569 57.9391 6.73104C60.8609 13.0689 63.6969 19.4476 66.6295 25.7812C73.135 26.3613 79.6447 26.907 86.1502 27.4914C88.2256 27.5988 90.0367 29.4851 89.9357 31.5863C89.8992 32.566 89.4244 33.4834 88.7176 34.1516C84.0254 38.8352 79.3461 43.5359 74.6453 48.2109C74.4541 48.4193 74.1598 48.6449 74.2801 48.9715C75.466 55.1547 76.7078 61.3293 77.8851 67.5125C78.2976 69.6781 76.5209 71.8824 74.3424 72.0371C72.948 72.2133 71.732 71.4119 70.5396 70.8275C65.2115 68.1742 59.8984 65.4865 54.5617 62.8461C48.5504 65.7959 42.5863 68.8424 36.5793 71.8029C34.7295 72.7504 32.3619 71.702 31.5455 69.8629C31.133 69.0014 31.06 68.0088 31.2662 67.0807C32.435 61.1832 33.5607 55.2793 34.7402 49.384C34.8047 49.0338 34.9186 48.5976 34.5705 48.3527C29.7773 43.551 24.9734 38.7578 20.1781 33.9582C19.3381 33.1203 18.9256 31.885 19.1297 30.7098C19.3875 29.0383 20.9021 27.732 22.5543 27.5387C29.193 26.9156 35.8467 26.4193 42.4811 25.7705C45.3234 19.5014 48.1766 13.2344 51.0254 6.96737C51.4143 6.06718 52.1211 5.28514 53.0643 4.95643ZM54.4221 10.5639C51.6635 16.6267 48.9113 22.6939 46.1527 28.7568C45.8133 29.6141 44.9818 30.2242 44.0559 30.2543C37.5998 30.8086 31.148 31.3844 24.692 31.9301C29.3949 36.7769 34.2461 41.482 38.9877 46.2945C39.5764 46.8746 39.7547 47.749 39.5613 48.5375C38.399 54.667 37.1143 60.7729 36.0143 66.9109C36.4074 66.7563 36.8006 66.5887 37.1809 66.4018C42.6143 63.6732 48.0584 60.9619 53.4939 58.2377C54.2094 57.8639 55.073 57.9391 55.767 58.3215C60.7342 60.8051 65.7014 63.2908 70.6707 65.7723C71.4656 66.1676 72.2434 66.6016 73.0748 66.9195C72.9717 66.073 72.7912 65.2395 72.6236 64.4059C71.5816 59.1529 70.574 53.8935 69.5363 48.6406C69.3236 47.8113 69.4805 46.8768 70.1186 46.2752C74.2264 42.1459 78.3578 38.0381 82.4699 33.9131C83.0887 33.2793 83.7762 32.7014 84.2939 31.9709C77.7734 31.2898 71.2293 30.8387 64.7045 30.207C63.9096 30.106 63.2564 29.5152 62.9492 28.7934C60.1885 22.7412 57.4492 16.674 54.682 10.624C54.6176 10.609 54.4865 10.5789 54.4221 10.5639Z" fill="white"/>
<path d="M81.8469 46.2645C83.2305 45.6995 84.5711 45.0399 85.9504 44.4641C88.0408 48.9866 90.0045 53.567 92.0734 58.1002C96.6152 58.5063 101.159 58.8909 105.703 59.3055C106.696 59.3936 107.768 59.6192 108.447 60.4184C109.738 61.7569 109.684 64.0836 108.348 65.3749C104.93 68.7758 101.451 72.1209 98.0289 75.5176C97.7217 75.7604 97.9193 76.1665 97.9451 76.4823C98.7314 80.5643 99.4769 84.6549 100.257 88.7391C100.495 89.8778 100.366 91.154 99.5736 92.0585C98.6197 93.2917 96.8064 93.7256 95.4164 92.9887C91.1668 90.9198 86.9709 88.737 82.7191 86.6766C78.6307 88.7155 74.5465 90.7565 70.4623 92.804C69.3709 93.412 67.9744 93.6461 66.8465 92.9995C65.4693 92.3034 64.827 90.6233 65.1342 89.1516C65.9699 84.8096 66.7863 80.4655 67.6543 76.1299C69.1561 76.3727 70.6449 76.6778 72.1359 76.9786C71.4678 80.6094 70.7137 84.2252 70.0605 87.8583C73.9385 85.9741 77.7799 84.0083 81.6428 82.0897C82.3088 81.7417 83.1252 81.7288 83.7955 82.0768C87.6734 83.9846 91.5148 85.9698 95.4078 87.8518C94.673 83.671 93.8309 79.5094 93.0875 75.3307C92.9199 74.5444 93.2465 73.7409 93.8287 73.2124C96.5422 70.5526 99.2535 67.8885 101.967 65.2288C102.465 64.7454 102.994 64.2834 103.387 63.7055C99.0773 63.3209 94.7676 62.9514 90.4578 62.5626C89.5684 62.526 88.7412 61.9717 88.4061 61.1424C86.423 56.7381 84.4744 52.3209 82.4978 47.9145C82.2465 47.3774 81.9973 46.8381 81.8469 46.2645Z" fill="white"/>
<path d="M25.4053 48.125C26.8104 48.7072 28.2111 49.3152 29.5668 50.0135C28.2305 53.0234 26.8684 56.0205 25.517 59.024C25.1904 59.8426 24.4105 60.4398 23.5232 60.4914C17.6623 61.0629 11.7949 61.5742 5.93613 62.1629C6.43887 62.8697 7.10703 63.4305 7.71074 64.0471C11.3631 67.6994 15.0176 71.3496 18.6656 75.0041C19.2779 75.5648 19.6152 76.4178 19.424 77.2428C18.3305 82.7836 17.1918 88.318 16.1154 93.8631C21.4328 91.2656 26.7029 88.5693 32.0074 85.9461C32.8818 85.4734 33.8787 85.815 34.6779 86.2684C39.7418 88.8035 44.7971 91.3516 49.8738 93.8566C48.8103 88.1998 47.6394 82.5623 46.5631 76.9098C46.3762 76.0096 46.8725 75.1674 47.517 74.5873C49.8072 72.3594 51.9879 70.0154 54.334 67.8498C55.4039 68.9176 56.4846 69.9746 57.533 71.0639C55.5865 73.0598 53.5863 75.002 51.6162 76.9764C51.2574 77.2256 51.3799 77.6789 51.44 78.0398C52.525 83.6086 53.6701 89.1688 54.7336 94.7439C55.275 97.3951 52.3102 100.063 49.7621 98.9313C44.3588 96.2479 38.9662 93.5387 33.5715 90.8381C33.2643 90.6641 32.8926 90.5309 32.5768 90.7693C27.3754 93.3797 22.1633 95.9707 16.9619 98.5832C16.0682 99.0387 15.0154 99.2406 14.0336 98.9807C12.7488 98.667 11.666 97.6186 11.3459 96.3316C11.073 95.3412 11.3373 94.3164 11.5328 93.3389C12.5898 88.0795 13.634 82.8201 14.691 77.5607C10.2717 73.0018 5.7084 68.5781 1.25254 64.0535C-0.0150405 62.7279 -0.109572 60.4828 1.05918 59.0627C1.63711 58.3451 2.51152 57.8918 3.42246 57.7908C9.56269 57.1871 15.7137 56.6758 21.8496 56.0291C23.0291 53.3908 24.2129 50.7547 25.4053 48.125Z" fill="white"/>
</svg>
