<svg xmlns="http://www.w3.org/2000/svg" viewBox="0 0 128.62 40" width="129px" height="40px"><defs><clipPath id="a" clipPathUnits="userSpaceOnUse"><path d="M0 30h96.47V0H0z"/></clipPath></defs><path d="M19.57 0v7.23h2.76v4.48H11.84V7.23h2.76V0H0v7.23h3.16v17.18H0v7.23h14.6V24.4h-2.76v-5.83h10.49v5.83h-2.76v7.23h14.6V24.4H31V7.23h3.16V0z" fill="#1c1f22"/><g clip-path="url(#a)" transform="matrix(1.33333 0 0 -1.33333 0 40)"><path d="M40.21 16.68c0 .91-.34 2.03-.85 2.68a2.9 2.9 0 01-2.33.95 3.2 3.2 0 01-2.28-.82 4.38 4.38 0 01-1.11-2.81zm6.03-5.42a7.25 7.25 0 00-2.98-4.14c-2-1.32-4.27-1.5-6.2-1.5-2 0-5.12.18-7.36 2.52a9.17 9.17 0 00-2.4 6.54 9.63 9.63 0 002.67 6.91c2.14 2.14 5.05 2.55 7.22 2.55 1.53 0 4.79-.17 6.95-2.44 2.17-2.24 2.41-5.3 2.41-7.77v-.37H33.64a4.4 4.4 0 011.18-3.29 3.7 3.7 0 012.44-.78c.65 0 1.26.07 1.9.48.51.3.85.74.99 1.29zM48.22 30h8.37V10.34h2.2V6.27H48.23v4.07h2.2v15.6h-2.2zM68.8 10.85c.64-.92 1.32-1.22 2.5-1.22 1.13 0 1.9.37 2.58 1.28.92 1.23 1.02 2.72 1.02 3.9 0 1.19-.07 2.58-.98 3.9A2.79 2.79 0 0171.48 20a3.2 3.2 0 01-2.65-1.36c-.91-1.18-1.01-2.91-1.01-3.9 0-1.08.13-2.7.98-3.9M59.7 23.5h8.07v-1.9h.14c1.08 1.8 3.49 2.54 5.39 2.54 2.3 0 4.06-.5 5.66-2.27 1.9-2.1 2.27-4.74 2.27-6.8 0-3.67-1.19-5.98-2.65-7.33-1.76-1.73-3.86-2.1-5.76-2.1a7.2 7.2 0 00-2.91.57c-.65.3-1.3.82-1.83 1.6V3.83h2.2V0H59.71v4.07h2.2v15.35h-2.2z" fill="#1c1f22"/><path d="M90.46 30h5.75v-3.16h-1.32l-2.95-3.46 3.18-4.05h1.35v-3.16h-5.95v2.77h.61l-1.52 2.13-1.52-2.13h.67v-2.77h-5.98v3.16h1.34l3.18 4.05-2.94 3.46h-1.32V30h5.74v-2.57H88l1.62-2.05 1.6 2.05h-.75z" fill="#315efb"/></g></svg>