<svg xmlns="http://www.w3.org/2000/svg" width="37" height="37" viewBox="0 0 37 37"><g><g><path fill="#ffb400" d="M10.089 6.323v3.493c0 .628-.51 1.139-1.138 1.139H5.04a1.14 1.14 0 0 1-1.139-1.139v-3.76C3.902 1.292 6.625.14 8.91.011a.722.722 0 0 1 .763.72v2.163a.723.723 0 0 1-.657.72c-.373.033-1.183.107-1.38 1.57H8.95c.627 0 1.138.511 1.138 1.14zm-1.445.307H6.869a.723.723 0 0 1-.723-.722c0-2.442 1.114-3.312 2.082-3.606v-.76c-1.402.262-2.88 1.19-2.88 4.514V9.51h3.296zm8.833-.307v3.493c0 .628-.51 1.139-1.138 1.139h-3.91a1.14 1.14 0 0 1-1.139-1.139v-3.76c0-4.764 2.723-5.916 5.008-6.045a.722.722 0 0 1 .763.72v2.163a.723.723 0 0 1-.657.72c-.373.033-1.183.107-1.38 1.57h1.315c.627 0 1.138.511 1.138 1.14zM16.032 9.51V6.63h-1.775a.723.723 0 0 1-.723-.722c0-2.443 1.114-3.312 2.082-3.606v-.76c-1.402.262-2.88 1.19-2.88 4.514V9.51zm4.78-3.151a.73.73 0 0 1-.211.511.73.73 0 0 1-1.022 0 .73.73 0 0 1-.212-.511.73.73 0 0 1 .212-.512.73.73 0 0 1 .51-.21.73.73 0 0 1 .512.21.73.73 0 0 1 .212.512zM37 18.476c0 2.965-1.035 5.857-2.914 8.145a12.896 12.896 0 0 1-6.707 4.287v5.37a.723.723 0 0 1-1.234.51l-5.473-5.471h-7.828C5.762 31.317 0 25.557 0 18.476c0-2.181.558-4.337 1.612-6.233a.723.723 0 0 1 1.264.702 11.401 11.401 0 0 0-1.43 5.53c0 6.284 5.113 11.396 11.398 11.396h8.128c.191 0 .375.077.51.213l4.452 4.449v-4.198c0-.341.24-.636.574-.707 5.242-1.098 9.047-5.789 9.047-11.152 0-6.284-5.114-11.397-11.399-11.397h-.91a.722.722 0 1 1 0-1.444h.91c7.082 0 12.844 5.76 12.844 12.84zm-8.884-4.92a.723.723 0 0 1-.723.723H9.607a.723.723 0 0 1 0-1.446h17.786c.4 0 .723.324.723.722zm0 3.852a.723.723 0 0 1-.723.723H9.607a.723.723 0 1 1 0-1.445h17.786c.4 0 .723.324.723.722zm0 3.853c0 .4-.324.723-.723.723H9.607a.722.722 0 1 1 0-1.444h17.786c.4 0 .723.322.723.721zm0 3.854c0 .4-.324.722-.723.722h-9.48a.722.722 0 1 1 0-1.444h9.48c.4 0 .723.323.723.722zm-13.547 0c0 .4-.323.722-.722.722h-.012a.722.722 0 1 1 0-1.445h.012c.399 0 .722.324.722.723z"/></g></g></svg>