<svg width="20" height="72" viewBox="0 0 20 72" fill="none" xmlns="http://www.w3.org/2000/svg">
<path d="M0.746875 0.364253H19.3469L16.2469 46.0643H3.84688L0.746875 0.364253ZM10.0469 71.1643C7.31354 71.1643 5.01354 70.2976 3.14688 68.5643C1.34688 66.7643 0.446875 64.5976 0.446875 62.0643C0.446875 59.5309 1.34688 57.4309 3.14688 55.7643C4.94688 54.0309 7.24688 53.1643 10.0469 53.1643C12.8469 53.1643 15.1469 54.0309 16.9469 55.7643C18.7469 57.4309 19.6469 59.5309 19.6469 62.0643C19.6469 64.5976 18.7135 66.7643 16.8469 68.5643C15.0469 70.2976 12.7802 71.1643 10.0469 71.1643Z" fill="url(#paint0_linear_141_1125)"/>
<defs>
<linearGradient id="paint0_linear_141_1125" x1="-31.3551" y1="32.916" x2="50.3037" y2="32.916" gradientUnits="userSpaceOnUse">
<stop stop-color="#F6A832"/>
<stop offset="1" stop-color="#DE481F"/>
</linearGradient>
</defs>
</svg>
