<svg width="58" height="19" viewBox="0 0 58 19" fill="none" xmlns="http://www.w3.org/2000/svg">
<path d="M7.21974 17.4163H4.44737C3.95718 17.4163 3.48707 17.2495 3.14046 16.9526C2.79385 16.6557 2.59912 16.2529 2.59912 15.833V10.2913C2.59912 9.87141 2.79385 9.46869 3.14046 9.17176C3.48707 8.87482 3.95718 8.70801 4.44737 8.70801H7.21974M13.6886 7.12467V3.95801C13.6886 3.32812 13.3965 2.72403 12.8766 2.27863C12.3567 1.83323 11.6515 1.58301 10.9162 1.58301L7.21974 8.70801V17.4163H17.6439C18.0896 17.4207 18.5221 17.2868 18.8618 17.0395C19.2014 16.7922 19.4253 16.4481 19.4921 16.0705L20.7674 8.94551C20.8076 8.71858 20.7897 8.48688 20.715 8.26646C20.6403 8.04603 20.5106 7.84216 20.3348 7.66896C20.159 7.49576 19.9413 7.35737 19.6969 7.26339C19.4524 7.16941 19.1871 7.12208 18.9192 7.12467H13.6886Z" stroke="black" stroke-width="2" stroke-linecap="round" stroke-linejoin="round"/>
<path d="M51.855 1.58329H54.1991C54.6959 1.57537 55.1787 1.73223 55.5558 2.02411C55.9329 2.31598 56.178 2.72255 56.2446 3.16663V8.70829C56.178 9.15237 55.9329 9.55894 55.5558 9.85081C55.1787 10.1427 54.6959 10.2996 54.1991 10.2916H51.855M45.7096 11.875V15.0416C45.7096 15.6715 45.9871 16.2756 46.481 16.721C46.9749 17.1664 47.6448 17.4166 48.3433 17.4166L51.855 10.2916V1.58329H41.9521C41.5286 1.57898 41.1177 1.71281 40.7951 1.96012C40.4724 2.20744 40.2597 2.55158 40.1963 2.92913L38.9847 10.0541C38.9465 10.2811 38.9635 10.5128 39.0345 10.7332C39.1054 10.9536 39.2287 11.1575 39.3957 11.3307C39.5627 11.5039 39.7695 11.6423 40.0017 11.7362C40.2339 11.8302 40.486 11.8776 40.7406 11.875H45.7096Z" stroke="black" stroke-width="2" stroke-linecap="round" stroke-linejoin="round"/>
</svg>
