<svg width="110" height="110" viewBox="0 0 110 110" fill="none" xmlns="http://www.w3.org/2000/svg">
<path d="M91.5031 39.6295C93.8105 37.8291 96.7882 37.0643 99.6843 37.1287C102.409 37.1825 105.257 38.0526 107.187 40.0592C107.857 40.708 108.34 41.6813 108.02 42.6245C107.573 43.8834 106.912 45.0543 106.293 46.2381C103.584 51.085 100.548 55.7493 97.3124 60.261C96.1179 61.9754 94.5904 63.4106 93.1337 64.8951C89.2064 68.7795 85.2318 72.6403 80.9242 76.1078C79.3472 77.2637 77.7036 78.7418 75.6197 78.6645C65.232 78.658 54.8443 78.6688 44.4544 78.6602C43.9474 78.6602 43.4404 78.6946 42.9355 78.7418C43.8786 79.8053 44.9829 80.7184 45.9025 81.8012C46.6329 82.6949 46.4718 84.0893 45.6296 84.8541C41.8763 88.6182 38.1122 92.3737 34.3546 96.1334C33.6542 96.9241 32.4189 97.2313 31.4822 96.6791C30.8312 96.2602 30.337 95.6543 29.7849 95.1237C21.0171 86.3451 12.2364 77.5774 3.46868 68.7989C2.51692 67.9395 2.50832 66.3217 3.45578 65.458C7.24563 61.6532 11.0462 57.859 14.8468 54.0627C15.6353 53.1948 17.0919 53.068 17.9792 53.8565C19.0943 54.8383 20.0482 55.9899 21.1718 56.9653C22.6993 55.412 24.2484 53.878 25.7866 52.3354C27.4109 50.7327 28.9513 49.0225 30.8333 47.7119C33.3749 45.8944 36.3075 44.2787 39.5173 44.2895C43.2384 44.2873 46.9616 44.283 50.6849 44.2916C53.8646 44.3131 56.2515 46.6721 58.6857 48.3952C59.0466 48.6508 59.4419 48.9129 59.9081 48.8721C63.5648 48.8743 67.2236 48.87 70.8802 48.87C72.9749 48.8248 75.1513 49.1815 76.9324 50.3438C77.3535 50.593 77.7101 50.9582 78.1763 51.128C80.4429 50.0129 82.6536 48.784 84.9138 47.6496C85.3134 47.4262 85.7947 47.2457 86.0074 46.8075C87.4576 44.1627 89.071 41.4901 91.5031 39.6295ZM96.5433 42.1067C94.0898 42.8114 92.4333 44.9362 91.1636 47.0266C90.5384 47.9998 90.04 49.044 89.4513 50.0387C89.1054 50.6446 88.463 50.9625 87.8679 51.2719C85.3972 52.5481 82.9372 53.8457 80.4644 55.1219C80.5782 56.1811 80.705 57.2596 80.4794 58.3145C80.0841 60.4436 78.7327 62.3514 76.8894 63.4793C75.2308 64.5127 73.2542 64.9252 71.3163 64.9102C65.2534 64.9123 59.1884 64.9188 53.1255 64.908C53.1148 63.3848 53.1169 61.8594 53.1255 60.3362C59.2572 60.3211 65.3888 60.3405 71.5204 60.3276C72.8868 60.3168 74.3779 59.958 75.3038 58.8817C76.2126 57.8354 76.2835 56.1682 75.4327 55.066C74.539 53.8672 72.9663 53.4612 71.5355 53.4612C67.5952 53.4461 63.6529 53.4612 59.7105 53.4547C58.8447 53.4612 57.9702 53.2893 57.2118 52.8596C55.3513 51.8412 53.8431 50.2944 51.9868 49.2696C51.5292 49.0096 51.0136 48.8485 50.4829 48.87C46.822 48.8743 43.1611 48.8743 39.5001 48.8721C38.1552 48.8592 36.8855 49.3942 35.721 50.0215C33.8755 51.0313 32.1933 52.3311 30.7431 53.8543C28.6462 55.9942 26.4698 58.0588 24.4138 60.2373C29.4325 65.284 34.4642 70.32 39.513 75.3366C40.8214 74.5996 42.2738 74.0604 43.7948 74.0862C54.3308 74.0733 64.8646 74.0883 75.4005 74.0797C75.9333 74.1076 76.3652 73.7532 76.7863 73.4782C79.3171 71.6778 81.5837 69.5422 83.8825 67.4604C86.8001 64.7254 89.6812 61.9453 92.4355 59.045C93.804 57.4444 94.9363 55.6612 96.1415 53.9403C98.5886 50.2514 101.01 46.5282 103.032 42.5836C101.076 41.4729 98.6574 41.5266 96.5433 42.1067ZM8.30481 67.1274C16.3851 75.2356 24.4675 83.3459 32.595 91.4069C35.3429 88.6741 38.0757 85.9241 40.8214 83.1891C36.488 78.7289 32.0343 74.3848 27.6558 69.9676C23.9368 66.2852 20.2845 62.534 16.5312 58.886C13.7683 61.6123 11.0097 64.3451 8.30481 67.1274Z" fill="white"/>
<path d="M18.0567 65.6127C19.6164 67.0886 21.1182 68.6269 22.62 70.1631C21.5758 71.2695 20.5188 72.3717 19.3801 73.3836C17.8848 71.8517 16.3401 70.3715 14.8598 68.8246C15.9018 67.731 16.9825 66.6761 18.0567 65.6127Z" fill="white"/>
<path d="M64.494 15.125H59.256V28.875H64.494V15.125Z" fill="white"/>
<path d="M55 19.381V24.619L68.75 24.619V19.381L55 19.381Z" fill="white"/>
</svg>
