<?xml version="1.0" encoding="utf-8"?>
<!-- Generator: Adobe Illustrator 19.0.0, SVG Export Plug-In . SVG Version: 6.00 Build 0)  -->
<!DOCTYPE svg PUBLIC "-//W3C//DTD SVG 1.1//EN" "http://www.w3.org/Graphics/SVG/1.1/DTD/svg11.dtd">
<svg version="1.1" id="Layer_1" xmlns="http://www.w3.org/2000/svg" xmlns:xlink="http://www.w3.org/1999/xlink" x="0px" y="0px"
	 viewBox="0 0 191.3 224" enable-background="new 0 0 191.3 224" xml:space="preserve">
<g id="XMLID_3_">
	<g id="XMLID_1_">
		<g id="XMLID_124_">
			<path id="XMLID_135_" fill="#48AAE0" d="M153.3,82.6c-2.9,0-4.5,1.8-4.5,4.6v18.7c0,2.7,1.6,4.6,4.5,4.6c2.9,0,4.6-1.8,4.6-4.6
				V87.2C157.9,84.4,156.2,82.6,153.3,82.6z"/>
			<path id="XMLID_134_" fill="#48AAE0" d="M123.3,83.1h-4.9v11.1h4.6c2.2,0,3.5-1.2,3.5-3.6v-4.3C126.4,84.4,125.6,83.1,123.3,83.1
				z"/>
			<path id="XMLID_125_" fill="#48AAE0" d="M150.7,0h-110c-22,0-40,18-40,40v110c0,22,18,40,40,40h110c22,0,40-18,40-40V40
				C190.7,18,172.7,0,150.7,0z M67,68.2h-6.7l-8.9-16.2L48,45.3v22.8h-8V27.7h7.2l8.7,16.6l3.3,6.6V27.7H67V68.2z M95.4,35H81.6v8.9
				h9.5v6.6h-9.5v10.1h13.8v7.6H72.9V27.7h22.5V35z M103.9,116.7h-6.7v-8.3h6.7V116.7z M136.7,117h-5.2c-3.5,0-4.9-2.4-4.9-6.2v-6.6
				c0-2.1-1.1-3.9-3.6-3.9h-4.7v16.5h-8.7V76.3h14.6c6.6,0,10.5,3.8,10.5,9.6v4.4c0,3.3-1.6,5.8-5.2,6.7c3.6,0.9,5.4,3.9,5.4,6.7
				v6.6c0,1.9,0.6,3.2,1.7,4.1V117z M131.2,68.2h-7.8l-4.8-23.6l-5,23.6h-7.7l-8.4-40.4h8.6l4.4,26.5l5.1-26.5h6.7l4.9,26.5
				l4.5-26.5h8L131.2,68.2z M166.6,105.4c0,7.2-4.9,12.4-13.3,12.4c-8.3,0-13.3-5.2-13.3-12.4V87.7c0-7.2,5-12.3,13.3-12.3
				c8.4,0,13.3,5.2,13.3,12.3V105.4z M154.5,69.2c-8,0-13-4.6-13-11.5v-2.1h8V57c0,3.4,1.7,5.2,4.9,5.2c3.1,0,4.6-1.8,4.6-4.6
				c0-2.9-2.3-4.7-7-7.1c-4.9-2.6-10-5.8-10-12c0-6.2,4.4-11.8,12.7-11.8c7.4,0,12.3,5,12.3,11.4v1.6h-7.8v-1.3
				c0-2.7-1.5-4.9-4.6-4.9c-2.6,0-4.2,1.6-4.2,4c0,2.9,2.3,4.4,7.5,7.1c5.6,3.1,9.6,6.3,9.6,12.1C167.5,63.5,162.6,69.2,154.5,69.2z
				"/>
		</g>
	</g>
	<g id="XMLID_2_">
		<g id="XMLID_64_">
			<path id="XMLID_68_" fill="#48AAE0" d="M0,219.6v-16.9h8.1v2.7H3.2v4.2h3.4v2.5H3.2v4.7h4.9v2.8H0z"/>
			<path id="XMLID_70_" fill="#48AAE0" d="M12.8,219.8c-2.4,0-3.7-1.4-3.7-3.6v-0.6h2.3v0.7c0,1,0.5,1.4,1.3,1.4s1.3-0.4,1.3-1.1
				c0-1.1-0.8-1.5-2.3-2.5c-1.4-0.8-2.4-1.8-2.4-3.5c0-2.1,1.5-3.4,3.6-3.4c2.3,0,3.5,1.4,3.5,3.5v0.5h-2.2v-0.6
				c0-0.7-0.4-1.1-1.2-1.1c-0.7,0-1.1,0.4-1.1,1c0,0.8,0.5,1.3,1.8,2c1.6,0.9,2.8,1.9,2.8,3.9C16.4,218.2,15.3,219.8,12.8,219.8z"/>
			<path id="XMLID_72_" fill="#48AAE0" d="M21.6,219.8c-2.2,0-3.7-1.6-3.7-3.9v-4.9c0-2.3,1.5-3.9,3.7-3.9c2.2,0,3.6,1.6,3.6,3.9
				v2.7h-4.8v2.6c0,0.8,0.4,1.3,1.2,1.3c0.8,0,1.2-0.5,1.2-1.3v-1.2h2.4v0.8C25.2,218.3,23.8,219.8,21.6,219.8z M22.7,210.7
				c0-0.8-0.4-1.3-1.1-1.3c-0.7,0-1.2,0.5-1.2,1.3v1.8h2.3V210.7z"/>
			<path id="XMLID_75_" fill="#48AAE0" d="M32,219.6v-9c0-0.7-0.4-1.2-1-1.2c-0.8,0-1.3,1-1.3,1.7v8.5H27v-12.2h2.3l0.2,2
				c0.5-1.4,1.5-2.2,2.6-2.2c1.7,0,2.6,1.2,2.6,3.1v9.4H32z"/>
			<path id="XMLID_77_" fill="#48AAE0" d="M40,209.7v6.2c0,1.5,0.1,2.7,0.6,3.7h-2.7c-0.4-1-0.6-2-0.6-3.7v-6.2h-1.4v-2.2h1.5v-2.1
				l2.6-0.7v2.8h1.6v2.2H40z"/>
			<path id="XMLID_79_" fill="#48AAE0" d="M42.9,219.6v-12.2h2.7v12.2H42.9z M42.9,205.8v-2.6h2.6v2.6H42.9z"/>
			<path id="XMLID_82_" fill="#48AAE0" d="M54.6,219.8c-1,0-1.7-0.5-2-1.6c-0.6,1-1.5,1.6-2.7,1.6c-1.6,0-2.8-1.1-2.8-3.1v-0.4
				c0-2.5,2.1-3.4,4.9-4.1v-1.8c0-0.7-0.3-1.1-1-1.1c-0.7,0-1,0.4-1,1.1v0.9h-2.4v-0.8c0-2,1.1-3.4,3.6-3.4s3.5,1.6,3.5,3.7v6.4
				c0,0.4,0.2,0.6,0.6,0.6v1.9H54.6z M52,213.9c-1.6,0.4-2.4,1-2.4,2.1v0.7c0,0.7,0.4,1.1,1,1.1c0.7,0,1.3-0.5,1.3-1.3V213.9z"/>
			<path id="XMLID_85_" fill="#48AAE0" d="M56.7,219.6v-16.9h2.7v16.9H56.7z"/>
			<path id="XMLID_87_" fill="#48AAE0" d="M61.4,219.6v-3.2h2.4v3.2H61.4z"/>
			<path id="XMLID_89_" fill="#48AAE0" d="M75.9,219.6l-0.6-3.3h-3l-0.6,3.3h-2.9l3.4-16.9h3.5l3.4,16.9H75.9z M74,207.3l-1.1,6.5
				H75L74,207.3z"/>
			<path id="XMLID_92_" fill="#48AAE0" d="M83.8,219.8c-2.2,0-3.7-1.5-3.7-3.9v-4.8c0-2.4,1.5-3.9,3.7-3.9c2.2,0,3.5,1.5,3.5,3.9
				v0.8h-2.3v-1.2c0-0.8-0.4-1.3-1.2-1.3c-0.8,0-1.2,0.5-1.2,1.4v5.5c0,0.9,0.4,1.4,1.2,1.4c0.8,0,1.2-0.5,1.2-1.3v-1.2h2.3v0.8
				C87.4,218.4,86.1,219.8,83.8,219.8z"/>
			<path id="XMLID_94_" fill="#48AAE0" d="M92.4,209.7v6.2c0,1.5,0.1,2.7,0.6,3.7h-2.7c-0.4-1-0.6-2-0.6-3.7v-6.2h-1.4v-2.2h1.5
				v-2.1l2.6-0.7v2.8H94v2.2H92.4z"/>
			<path id="XMLID_96_" fill="#48AAE0" d="M100.6,219.6l-0.1-1.8c-0.5,1.3-1.6,2-2.7,2c-1.7,0-2.6-1.2-2.6-3v-9.4h2.7v9
				c0,0.7,0.4,1.2,1,1.2c0.8,0,1.3-1,1.3-1.7v-8.6h2.7v12.2H100.6z"/>
			<path id="XMLID_98_" fill="#48AAE0" d="M112,219.8c-1,0-1.7-0.5-2-1.6c-0.6,1-1.5,1.6-2.7,1.6c-1.6,0-2.8-1.1-2.8-3.1v-0.4
				c0-2.5,2.1-3.4,4.9-4.1v-1.8c0-0.7-0.3-1.1-1-1.1c-0.7,0-1,0.4-1,1.1v0.9h-2.4v-0.8c0-2,1.1-3.4,3.6-3.4s3.5,1.6,3.5,3.7v6.4
				c0,0.4,0.2,0.6,0.6,0.6v1.9H112z M109.4,213.9c-1.6,0.4-2.4,1-2.4,2.1v0.7c0,0.7,0.4,1.1,1,1.1c0.7,0,1.3-0.5,1.3-1.3V213.9z"/>
			<path id="XMLID_101_" fill="#48AAE0" d="M114.1,219.6v-16.9h2.7v16.9H114.1z"/>
			<path id="XMLID_103_" fill="#48AAE0" d="M118.8,219.6v-3.2h2.4v3.2H118.8z"/>
			<path id="XMLID_105_" fill="#48AAE0" d="M131.9,220c-2.9,0-4.8-1.9-4.8-4.6V207c0-2.7,1.9-4.6,4.8-4.6c3,0,4.8,1.9,4.8,4.6v8.4
				C136.7,218.1,134.8,220,131.9,220z M133.5,206.7c0-1-0.6-1.7-1.6-1.7c-1,0-1.6,0.7-1.6,1.7v8.8c0,1,0.6,1.7,1.6,1.7
				c1,0,1.6-0.7,1.6-1.7V206.7z"/>
			<path id="XMLID_108_" fill="#48AAE0" d="M143.4,219.8c-1.1,0-2.1-0.5-2.6-1.6l-0.3,1.4h-1.9v-16.9h2.7v6.1
				c0.5-0.9,1.3-1.6,2.4-1.6c1.5,0,2.5,1.4,2.5,3.2v6C146.2,218.4,145.2,219.8,143.4,219.8z M143.6,210.9c0-1-0.4-1.4-1.1-1.4
				s-1.2,0.5-1.2,1.4v5.5c0,0.9,0.5,1.4,1.2,1.4c0.7,0,1.2-0.5,1.2-1.4V210.9z"/>
			<path id="XMLID_111_" fill="#48AAE0" d="M148.1,219.6v-12.2h2.7v12.2H148.1z M148.1,205.8v-2.6h2.6v2.6H148.1z"/>
			<path id="XMLID_114_" fill="#48AAE0" d="M156.4,219.8c-2.2,0-3.7-1.6-3.7-3.9v-4.9c0-2.3,1.5-3.9,3.7-3.9c2.2,0,3.6,1.6,3.6,3.9
				v2.7h-4.8v2.6c0,0.8,0.4,1.3,1.2,1.3c0.8,0,1.2-0.5,1.2-1.3v-1.2h2.4v0.8C160,218.3,158.6,219.8,156.4,219.8z M157.5,210.7
				c0-0.8-0.4-1.3-1.1-1.3s-1.2,0.5-1.2,1.3v1.8h2.3V210.7z"/>
			<path id="XMLID_117_" fill="#48AAE0" d="M165.4,219.8c-2.2,0-3.7-1.5-3.7-3.9v-4.8c0-2.4,1.5-3.9,3.7-3.9c2.2,0,3.5,1.5,3.5,3.9
				v0.8h-2.3v-1.2c0-0.8-0.4-1.3-1.2-1.3s-1.2,0.5-1.2,1.4v5.5c0,0.9,0.4,1.4,1.2,1.4s1.2-0.5,1.2-1.3v-1.2h2.3v0.8
				C168.9,218.4,167.6,219.8,165.4,219.8z"/>
			<path id="XMLID_119_" fill="#48AAE0" d="M173.9,209.7v6.2c0,1.5,0.1,2.7,0.6,3.7h-2.7c-0.4-1-0.6-2-0.6-3.7v-6.2h-1.4v-2.2h1.5
				v-2.1l2.6-0.7v2.8h1.6v2.2H173.9z"/>
			<path id="XMLID_121_" fill="#48AAE0" d="M176.8,219.6v-12.2h2.7v12.2H176.8z M176.8,205.8v-2.6h2.6v2.6H176.8z"/>
			<path id="XMLID_136_" fill="#48AAE0" d="M185.8,219.6h-2.3l-2.9-12.2h2.6l1.1,6l0.4,2.3l0.4-2.3l1.1-6h2.5L185.8,219.6z"/>
			<path id="XMLID_138_" fill="#48AAE0" d="M188.8,219.6v-3.2h2.4v3.2H188.8z"/>
		</g>
		<g id="XMLID_65_">
			<path id="XMLID_66_" fill="#48AAE0" d="M38.5,224H37l0.9-3.5h2.6L38.5,224z"/>
		</g>
	</g>
</g>
</svg>
