<?xml version="1.0" encoding="utf-8"?>
<!-- Generator: Adobe Illustrator 19.1.0, SVG Export Plug-In . SVG Version: 6.00 Build 0)  -->
<!DOCTYPE svg PUBLIC "-//W3C//DTD SVG 1.1//EN" "http://www.w3.org/Graphics/SVG/1.1/DTD/svg11.dtd">
<svg version="1.1" id="Layer_1" xmlns="http://www.w3.org/2000/svg" xmlns:xlink="http://www.w3.org/1999/xlink" x="0px" y="0px"
	 viewBox="0 0 221 58" enable-background="new 0 0 221 58" xml:space="preserve">
<g>
	<g>
		<g>
			<g>
				<g>
					<g>
						<path fill-rule="evenodd" clip-rule="evenodd" fill="#E1BC23" d="M25.2,26.7c-0.4,0-0.7-0.4-0.7-0.4c-1.1-2.4,2.2-3.5,2.5-1.3
							c0.1,0.7-0.1,1.2-0.6,1.5C26.3,26.5,25.7,26.7,25.2,26.7z"/>
					</g>
					<g>
						<path fill-rule="evenodd" clip-rule="evenodd" fill="#E1BC23" d="M24.1,26.8h-0.4c-1.6,0.9-2,2.8-3.5,3.9
							c-1.3,0.9-3.6,1-4.3,2.5c-0.1,0.2,0.1,0.5,0.2,0.5c1-0.1,1.4-0.8,2.5-0.8c-1,2.3-2,3.5-3.9,6.5c-0.1,0.2-0.1,0.8,0,0.8
							c0.3,0.2,0.7,0.2,1.4,0.2c0.6-0.3,1.3-0.9,1.5-1.7c0.9-1.3,1.2-2.1,1.8-3c0.7-1,1.1-2,1.9-2.9c1.2-1.5,2.7-2.9,3.9-4.4
							c0.1-0.3-0.2-0.5-0.3-0.7C24.8,27.4,24.1,26.8,24.1,26.8z"/>
					</g>
				</g>
				<g>
					<path fill-rule="evenodd" clip-rule="evenodd" fill="#E1BC23" d="M54.1,25.8c-0.2,0-0.3,0.1-0.3,0.2c0.1,0.1,0.5,0.2,0.6,0.3
						c0.7,0.4,1.4,1.2,0.9,1.8c-1.6,1.7-3.4,2.7-4.9,4.7c-1.1,1.4-2.6,3.2-3.5,4.9c-0.2,0.6,0.1,1.1,0.1,1.4c0,0.1-0.4,0.4-0.5,0.4
						c-0.6,0-1.1,0-1.4-0.2c-0.1,0-0.3-0.5-0.3-0.6c-0.1-2.8,2.3-4.4,3.1-6.7c-2.3,0.4-4.4,0.5-6.2,1.4c0.7,0.4,1.3,0.8,1.1,1.5
						c-1.1,2.4-5.5,3.3-9,4.5c-1.8,0.6-5.9,1.7-6.5,1.8c-0.9,0.2-2.8,0.8-3.9,0.1c-0.2-0.1-0.4-0.6-0.1-0.9c0.9-1.4,3.3-2.2,5-2.9
						c2.5-1,5.6-2.3,8.3-3.1c-1.8-0.3-3.3-0.4-4.6-0.6c-0.7-0.1-1.8-0.2-2.5-0.4c-1.6-0.3-3.2-0.5-4-1.6c-0.2-0.3-0.1-0.8,0.1-1.1
						c0.6-0.9,3.6-2.3,6.4-3.2c2.6-0.8,5.1-1.5,8-1.7c1.9-0.1,4.1,0,4.1,1.4c-0.1,2.1-3.3,0.9-4.9,0.8c-1.9-0.1-3.9,0.1-5.6,0.6
						c-1.5,0.4-2.8,0.8-3.6,1.3c-0.5,0.3-0.7,0.6-0.4,1c0.3,0.4,1.1,0.6,1.5,0.7c1.7,0.6,5,1.3,7.1,1.2c1.9,0,3.9-0.9,6.1-1.4
						c2-0.5,4.1-0.8,5.4-1.7c1.5-1.1,1.8-3.1,3.5-3.6c0.1,0,0.2-0.1,0.2-0.3c-0.1-0.7-0.7-0.9-0.6-1.8
						C53.8,20.7,57.4,25.1,54.1,25.8z M39,34.5c-0.1,0-0.9,0.2-1.1,0.3c-1.8,0.7-7,2.6-7.5,3.3c-0.2,0.3,0.1,0.5,1,0.3
						c3-0.5,5.8-1.3,7.9-2.7c0.2-0.2,0.8-0.6,0.7-0.8C39.9,34.6,39.7,34.5,39,34.5z"/>
				</g>
				<path fill-rule="evenodd" clip-rule="evenodd" fill="#E1BC23" d="M58.4,29c0.3-0.3,0.4-0.4,0.4-0.6c0-0.2-0.4-0.4-0.4-0.7
					c-0.1-0.4,0.1-0.8,0.2-0.9c3.3-3.1,8-4.5,10.4,0c0.6,1.2,0.8,1.9,0.6,3.6c-0.1,1.2-0.5,2.4-1,3.3c-0.8,1.4-1.8,2.2-2.3,2.7
					c-1.7,1.7-11.7,7.2-12.2,0.6C53.8,33.5,56.8,30.8,58.4,29z M66.1,34.4c1-1.5,2.1-3.8,1.8-5.7c-0.4-2.7-3.7-4.4-5.7-2.2
					c2.4,0.4,1.3,3.6-1,3.3c-1.8,1.5-5.1,3.6-5.1,6.5c0,0.6,0.2,1.4,0.8,1.8C58.7,39,64.1,37.2,66.1,34.4z"/>
				<path fill-rule="evenodd" clip-rule="evenodd" fill="#E1BC23" d="M87.9,25c0.5-0.4,0.8-0.3,1.1,0.1c2.8,6.6-1.8,16.1-9,14.9
					c-2.8-0.5-4.7-3.7-5.6-6.7c0-0.1-0.2-0.1-0.3,0c-1.9,1.7-2.1,5.4-4.6,6.5c-0.2,0.1-0.5-0.1-0.5-0.3c0.2-1.9,1.2-3.5,2.1-5
					c1.2-2.3,1.9-3.9,3.4-6c0.3-0.5,1-1.3,1.7-1.5c0.1,0,0.5,0.1,0.5,0.3c0,0.4,0,0.9-0.1,1c-0.7,4.4-0.1,7.7,2.6,9.4
					c0.2,0.1,1.4,0.7,2.2,0.7c2,0,3.5-0.9,4.5-2.5c1.1-1.8,1.4-4.7,1.3-6.8C86.9,27.6,86.7,26,87.9,25z"/>
				<path fill-rule="evenodd" clip-rule="evenodd" fill="#E1BC23" d="M30.1,0.2c0.2,0,0.2,0.6-0.4,2.5c-1.1,3.6-2.5,6-4.2,9.3
					c-4.3,8.2-8.9,15.8-14.8,23C8.5,37.6,4,43.7,0.6,40.9C0.4,40.7,0,39.7,0,39.4c0-6.2,5.9-12.1,2.8-17.8c-0.1-0.3-0.1-1.2,0.1-1.4
					c0.8-1.1,1.8-2.4,3.5-2c1.4,0.3,1,3.2,0.8,5.3c-0.3,3.5-3.8,10.9-4.4,14C2.7,37.7,3,38,3.2,38c1.8-0.8,5.6-4.8,7-6.6
					c5.4-6.7,8.9-12.8,13.7-21.2c1.8-3.1,2.8-5.1,4.2-7.5C29.3,0.9,29.9,0.2,30.1,0.2z"/>
			</g>
			<g>
				<path fill-rule="evenodd" clip-rule="evenodd" fill="#E1BC23" d="M119.1,35c0.9-0.3,1.9-0.5,2.9-0.8c4.3-1.2,9.6-2.6,11-5.1
					c0.1-0.2,0.1-0.3,0-0.5c-0.1-0.4-0.5-0.7-0.9-0.9c-2.2-0.9-5.1-1.3-9.1-1.3c-2.3,0-4.7,0.1-7.1,0.3c-2.3,0.1-4.7,0.3-6.9,0.3
					c-1.3,0-2.5,0-3.6-0.1c-0.2,0-0.4,0-0.6,0c-1.3-0.1-2.7-0.2-3.6-1.1c-0.2-0.2-0.1-0.5,0-0.6c0.1-0.2,0.5-0.6,0.7-0.7
					c5.9-3.6,14.4-6,23.1-6.4l0.1,0.3c-0.7,0.3-1.3,0.9-1.3,1.3c0,0,0,0.1,0,0.1c0.1,0.1,0.3,0.2,0.5,0.2l0.2,0c4,0,7.7-1.5,8.4-2.9
					c0.1-0.5-0.5-0.8-0.7-0.9c-0.8-0.3-1.7-0.4-2.9-0.4c-1.3,0-2.7,0.2-4,0.3c-0.4,0-0.7,0.1-1.1,0.1c-1.7,0.2-3.6,0.5-5.4,0.8
					c-0.6,0.1-1.1,0.2-1.6,0.3c-5.8,0.9-13.8,3.7-16.8,5.7c-1.8,1.3-2.5,2.4-2.1,3.6c0.6,1.8,3.8,2.1,6.2,2.2
					c2.2,0.1,5.2-0.1,8.4-0.2c2.9-0.1,5.8-0.3,8.6-0.3c2.2,0,4,0.1,5.4,0.3c0,0,1.9,0.3,2,0.9c0,0.4-0.4,0.5-0.6,0.6
					c-4,1.6-8.9,2.9-13.6,4.1c-0.9,0.2-1.7,0.4-2.5,0.7c-0.4,0.1-0.9,0.3-1.3,0.4c-1.4,0.4-2.9,0.8-5,1.6c-1.4,0.5-4.3,1.6-4.1,2.8
					c0.2,0.9,0.9,1.3,2.5,1.3c0.1,0,0.2,0,0.4,0c2.1-0.1,4.4-0.8,5.1-1.4c0.1-0.1,0.1-0.1,0.1-0.1c0-0.1-0.2-0.2-0.2-0.2
					c-0.5-0.1-0.9-0.1-1.7,0c-0.2,0-0.4-0.1-0.4-0.3c0-0.2,0.1-0.4,0.3-0.5c2.4-0.8,4.9-1.5,7.5-2.3C116.7,35.7,117.9,35.4,119.1,35
					z"/>
				<path fill-rule="evenodd" clip-rule="evenodd" fill="#E1BC23" d="M149.5,37.8l0-0.2c0.3,0,0.8-0.1,1.3-0.1l0.1,0
					c2.6-0.4,3.7-1.3,5-2.4c0.8-0.7,1.6-1.4,2.8-2l0.2-0.1l0,0.2c0,0.3,0,0.8,0,1.2c0,0.6-0.1,1.3,0.2,1.6c0.1,0.1,0.3,0.2,0.6,0.1
					c0.2,0,0.3,0,0.4,0c0.7,0,0.9-0.7,1-1.7c0-0.4,0.1-0.7,0.2-1c0.5-1.3,1.2-2.6,1.8-3.8c0.9-1.8,1.7-3.5,2.3-5.3
					c0-0.2,0-0.3-0.1-0.4c-0.2-0.2-0.5-0.4-0.9-0.4c-0.3,0-0.6,0.1-0.7,0.3c-1,1.1-2,2.2-3,3.5c-2.8,3.5-5.7,7.1-10,7.7l-0.3,0
					l0-0.2c0.5-2.4,1.6-4.1,2.7-5.8c0.7-1.2,1.5-2.3,2.1-3.7c0.1-0.1,0-0.3-0.1-0.5c-0.2-0.3-0.7-0.7-1.4-0.6
					c-2.5,2.1-4.8,6.3-5.6,10.6c-0.1,0.6-0.2,1.7,0.3,2.3c0.2,0.3,0.5,0.4,0.9,0.4V37.8L149.5,37.8z"/>
				<path fill-rule="evenodd" clip-rule="evenodd" fill="#E1BC23" d="M138.5,38.4l0.4-0.2c0.7-0.3,1.4-0.6,1.9-0.9l0.1,0
					c0.9-0.5,2.4-1.4,3.3-2.2c2.2-1.8,4.4-4.1,4.1-7.1c-0.4-2.8-3-3.3-4.5-3.3c-2.8,0-6.2,1.3-7.7,3.1c-0.5,0.6-1.5,1.9-1.9,2.6
					c-0.2,0.3-0.3,0.5-0.5,0.8c-1,1.7-2,3.4-2.4,5.4c-0.2,1,0.3,2.2,1,2.5c1.2,0.5,2.8,0.5,4.5,0.1
					C137.3,38.8,137.7,38.7,138.5,38.4z M135.4,36.8c-0.2,0-0.6-0.1-0.8-0.4c-0.1-0.2-0.3-0.5-0.1-1c0.7-2.4,2.3-4.9,4-6.3
					c0.3-0.2,0.9-0.4,1.5-0.5c0.4-0.1,0.9-0.2,1.1-0.3c0.5-0.4,0.9-1,0.9-1.3c0-0.1,0-0.1-0.1-0.2l-0.3-0.2l0.4-0.1
					c1.1-0.3,2.3-0.2,3.3,0.4c0.5,0.3,1.2,1.8,0.6,2.9c-1.8,3.9-5.2,6.3-10.2,7.1C135.4,36.8,135.4,36.8,135.4,36.8z"/>
				<path fill-rule="evenodd" clip-rule="evenodd" fill="#E1BC23" d="M216.2,33.5c-2,0.2-3.5,0.6-5.3,0.9c-1.4,0-3.1,0.2-4.6,0.3
					c-0.2,0-0.4,0-0.7,0l-0.1,0c-1.5,0-2.9-0.2-3.9-0.7c3.6-2.7,9.8-4.5,9.4-10.1c0-0.2-0.6-1-0.9-1c-2.7-0.6-5.9,1.2-7.8,2.9
					c-2.2,2-3.6,4.5-3.8,7.9l0,0c-0.7,0.2-1.5,0.5-2.4,0.7c-1.9,0.6-4.1,1.4-6.1,1.4c-1.2,0-2.2-0.3-3.1-0.8
					c-0.3-0.2-0.5-1.5-0.4-1.9c1.1-3.7,3.1-6,6.2-7.1l0.1,0l0.1,0.1c0.1,0.1,0.2,0.3,0.3,0.5c0.2,0.4,0.4,0.7,0.7,0.9l0,0
					c1.2-0.5,2.3-1.1,2.1-2.9c-0.8-0.8-1.7-1.2-2.7-1.2c-2.8,0-5.7,2.9-6.8,4.5c-0.5,0.6-0.7,1.4-1,2.1c-0.4,1.1-0.8,2-1.6,2.6
					c-0.9,0.6-1,0.6-2.4,0.7c-0.9,0.1-1.8,0.1-2.5,0.1c-1.4,0-2.7-0.2-4.3-1.1l-0.3-0.1l0.3-0.2c0.6-0.4,1.3-0.7,2-1.1
					c2.4-1.3,5-2.7,5.2-4.5c-0.1-1.2-2.5-1.5-4.3-1.8l-0.5-0.1c-0.4-0.1-0.9-0.1-1.4-0.2c-1.9-0.3-4-0.6-5.9-0.6
					c-1.4,0-2.5,0.2-3.4,0.5c-0.2,0.2-0.3,0.4-0.3,0.6c0,0.3,0.1,0.6,0.4,0.8c0.3,0.4,0.8,0.6,1.7,0.6c0.3,0,0.6,0,0.9,0
					c0.3,0,0.6,0,0.9,0c0.8,0,1.6,0.1,2,0.7l0.1,0.1l0,0.1c-0.5,0.9-1,1.8-1.6,2.8c-1.2,2.1-2.5,4.3-3.1,6.4
					c-0.1,0.2-0.2,0.4-0.3,0.7c-0.5,1.1-0.8,2,0.1,2.6c1.4-0.1,1.7-1.3,2.1-2.5c0.3-1,0.6-2,1.5-2.4l0.1,0l0.1,0
					c2.1,0.6,3.6,0.8,4.9,0.8c1.2,0,2.2-0.2,3.6-0.5c1.1-0.2,2.4-0.4,4.2-0.7l0.2,0l0,0.2c-0.2,1.3,0.2,1.9,0.8,2.5
					c1.3,0.7,2.7,1.1,4.2,1.1c2.2,0,4.4-0.8,6.5-1.6c1.2-0.5,2.5-0.9,3.7-1.3c1,1.3,3.3,1.5,5.9,1.3c3.1-0.1,5.5-1,11.6-1.5
					c1.6-0.1,3,0.9,4.3-0.9C219.9,33,217.9,33.4,216.2,33.5z M173.4,30.4l0-0.3c-0.1-1.1,0.2-2.1,0.8-2.7c0.8-0.9,2.1-1,3.5-0.4
					l0.2,0.1l-0.1,0.2c-1,1.5-2.6,2.3-4.1,3L173.4,30.4z M201.1,30.4c0.7-2.2,4.3-4.8,5.9-5.3c0.4-0.1,0.8-0.1,1.2-0.1
					c0.3,0.1,0.4,0.8,0.3,1.1c-1.7,2.9-4.2,4.8-7.6,6C200.8,31.5,200.9,31,201.1,30.4z"/>
			</g>
		</g>
		<g>
			<path fill="#E1BC23" d="M214.1,22.8c0.9,0,1.7,0.7,1.7,1.7c0,1-0.8,1.7-1.7,1.7c-0.9,0-1.7-0.7-1.7-1.7
				C212.4,23.5,213.1,22.8,214.1,22.8z M214.1,25.9c0.8,0,1.4-0.6,1.4-1.4s-0.6-1.4-1.4-1.4c-0.8,0-1.4,0.6-1.4,1.4
				S213.3,25.9,214.1,25.9z M213.4,23.5h0.7c0.5,0,0.7,0.2,0.7,0.6c0,0.4-0.2,0.5-0.5,0.5l0.6,0.9h-0.3l-0.5-0.8h-0.3v0.8h-0.3V23.5
				z M213.7,24.3h0.3c0.3,0,0.5,0,0.5-0.3c0-0.3-0.2-0.3-0.4-0.3h-0.4V24.3z"/>
		</g>
	</g>

</g>
</svg>
