<svg width="447" height="318" viewBox="0 0 447 318" fill="none" xmlns="http://www.w3.org/2000/svg">
<path d="M434.59 174.993C443.817 248.713 339.357 279.057 252.946 289.672C166.536 300.287 32.9897 331.07 23.7632 257.35C14.5368 183.63 99.7255 56.1359 186.136 45.5212C272.546 34.9064 403.055 104.206 434.59 174.993Z" fill="#57A600" fill-opacity="0.1"/>
<path d="M327.933 61.7883C324.138 67.7963 318.107 64.1284 310.708 59.5411C303.308 54.9539 297.341 51.1842 301.135 45.1763C304.93 39.1684 320.533 38.2351 327.933 42.8224C335.333 47.4097 331.728 55.7804 327.933 61.7883Z" fill="#57A600" fill-opacity="0.2"/>
<path d="M132.786 77.363C131.993 77.2835 131.139 77.3643 130.42 77.0954C124.206 74.7704 117.987 72.4472 111.833 69.9801C109.334 68.9817 107.526 66.9637 105.886 64.9183C105.422 64.3437 105.221 63.0354 105.569 62.473C105.977 61.8175 107.094 61.3366 107.948 61.2558C111.627 60.9025 115.065 61.7847 118.371 63.4461C123.138 65.8371 127.979 68.0696 132.783 70.3877C133.292 70.6372 133.807 70.952 134.212 71.3406C136.2 73.2605 135.452 76.3382 132.786 77.363Z" fill="#57A600" fill-opacity="0.2"/>
<path d="M346.848 239.569C346.171 239.153 345.368 238.855 344.841 238.301C340.284 233.512 335.722 228.723 331.283 223.833C329.48 221.85 328.747 219.251 328.178 216.7C328.015 215.982 328.414 214.719 328.976 214.365C329.632 213.953 330.85 214.006 331.652 214.304C335.115 215.584 337.815 217.87 340.051 220.8C343.278 225.019 346.641 229.129 349.932 233.298C350.28 233.744 350.603 234.25 350.795 234.776C351.733 237.365 349.698 239.806 346.848 239.569Z" fill="#57A600" fill-opacity="0.2"/>
<path d="M122.046 182.265C129.311 176.594 137.384 172.442 146.13 169.61C148.841 168.727 151.739 168.372 154.576 167.925C155.182 167.829 155.893 168.413 156.556 168.681C156.241 169.356 156.11 170.345 155.576 170.66C151.864 172.843 148.099 174.944 144.289 176.957C141.237 178.568 138.142 180.112 134.994 181.537C131.066 183.315 127.07 184.936 123.108 186.632C122.137 187.047 121.22 187.651 120.208 187.867C119.593 187.999 118.556 187.77 118.249 187.332C117.952 186.907 118.099 185.778 118.489 185.355C119.547 184.219 120.84 183.281 122.046 182.265Z" fill="#57A600" fill-opacity="0.2"/>
<path d="M227.12 9.7791C227.155 11.9572 226.044 13.4361 224.251 13.5851C222.301 13.7513 220.756 12.5591 220.571 10.3867C220.108 5.07317 219.72 -0.24607 219.466 -5.57104C219.385 -7.21611 220.021 -8.82679 221.774 -9.51462C223.695 -10.2712 225.847 -8.88411 226.264 -6.47096C226.6 -4.51064 226.652 -2.49299 226.686 -0.498276C226.75 2.92369 226.704 6.3514 226.704 9.7791C226.837 9.7791 226.981 9.7791 227.12 9.7791Z" fill="#57A600" fill-opacity="0.2"/>
<path d="M175.593 201.154C174.39 202.977 172.634 203.586 171.064 202.714C169.355 201.77 168.749 199.925 169.824 198.022C172.445 193.364 175.132 188.743 177.932 184.19C178.795 182.783 180.233 181.802 182.074 182.205C184.093 182.644 185.092 184.988 184.072 187.218C183.242 189.028 182.144 190.728 181.045 192.4C179.163 195.27 177.186 198.083 175.248 200.923C175.358 200.997 175.478 201.077 175.593 201.154Z" fill="#57A600" fill-opacity="0.2"/>
<path d="M300.832 31.9365C300.467 34.4242 299.825 36.8144 298.228 38.8148C295.474 42.2655 292.425 45.4238 288.63 47.7968C287.218 48.6795 286.009 48.6681 285.1 47.7166C284.163 46.7307 284.227 45.4008 285.314 44.1169C288.161 40.7694 290.926 37.3417 293.918 34.1261C295.381 32.5556 297.192 31.2429 299.009 30.0679C300.369 29.1909 300.484 29.3686 300.675 30.9621C300.716 31.2888 300.78 31.6155 300.832 31.9365Z" fill="#57A600" fill-opacity="0.2"/>
<path d="M178.037 23.4577C177.308 23.9564 176.868 24.4952 176.527 24.4379C175.607 24.2889 174.536 24.1112 173.871 23.5494C170.336 20.5402 166.847 17.4679 163.468 14.2866C162.155 13.0543 161.096 11.5353 160.061 10.0507C159.713 9.55777 159.794 8.7725 159.679 8.12479C160.425 8.2165 161.316 8.07893 161.9 8.43431C166.951 11.4837 171.354 15.3184 175.26 19.6976C176.226 20.7637 176.984 22.0076 178.037 23.4577Z" fill="#57A600" fill-opacity="0.2"/>
<path d="M226.745 198.619C225.402 203.766 224.054 208.912 222.717 214.059C222.584 214.565 222.601 215.142 222.353 215.58C222.097 216.035 221.608 216.366 221.219 216.746C220.993 216.288 220.57 215.83 220.576 215.376C220.594 213.191 220.612 210.994 220.844 208.822C221.335 204.291 221.965 199.771 222.553 195.254C222.605 194.879 222.709 194.503 222.856 194.159C223.287 193.179 224.118 192.47 225.113 192.903C225.789 193.199 226.507 194.121 226.61 194.849C226.781 196.038 226.464 197.299 226.353 198.527C226.484 198.556 226.614 198.59 226.745 198.619Z" fill="#57A600" fill-opacity="0.2"/>
<path d="M275.608 8.34465C274.619 9.82097 273.845 11.2478 272.805 12.4572C270.974 14.5915 269.202 16.8331 266.584 18.1026C266.017 18.3759 265.289 18.3254 264.631 18.4217C264.6 17.7298 264.372 16.9728 264.584 16.3594C265.743 13.0179 268.331 10.6376 270.539 8.01768C271.126 7.32503 272.056 6.83133 272.923 6.48628C273.542 6.2406 274.478 6.14386 274.996 6.44862C275.411 6.69276 275.408 7.63213 275.608 8.34465Z" fill="#57A600" fill-opacity="0.2"/>
<path d="M315.117 79.6446C314.973 79.6446 314.805 79.6904 314.689 79.6388C314.117 79.3694 313.561 79.0656 312.994 78.779C313.399 78.3434 313.723 77.6728 314.215 77.5123C316.72 76.6983 319.231 75.8328 321.817 75.38C322.778 75.2138 324.045 75.9532 324.942 76.5894C325.387 76.9047 323.727 78.6873 322.419 78.8822C320.001 79.2433 317.559 79.4497 315.123 79.7191C315.123 79.6904 315.117 79.6675 315.117 79.6446Z" fill="#57A600" fill-opacity="0.2"/>
<path d="M380.308 177.179C377.011 176.583 373.973 176.09 370.976 175.42C370.513 175.316 370.23 174.411 369.865 173.872C370.409 173.522 371.022 172.8 371.485 172.886C374.552 173.465 377.595 174.17 380.615 174.955C381.032 175.064 381.275 175.827 381.599 176.291C381.124 176.618 380.656 176.944 380.308 177.179Z" fill="#57A600" fill-opacity="0.2"/>
<ellipse rx="72.3092" ry="3.28612" transform="matrix(1 0 0 -1 172.539 254.345)" fill="#57A600" fill-opacity="0.2"/>
<ellipse rx="54.3977" ry="2.62889" transform="matrix(1 0 0 -1 303.889 254.345)" fill="#57A600" fill-opacity="0.2"/>
<path d="M264.854 38.4264C248.578 18.8581 219.376 16.076 199.63 32.1961C186.528 42.8913 180.885 59.2251 183.316 74.7153L176.711 80.1068L181.398 85.7419L111.841 142.533L107.146 162.146L109.643 165.149L132.466 167.331L141.892 159.636L138.999 141.721L156.196 147.959L165.376 140.465L164.836 131.445L175.858 122.446L184.692 124.696L202.027 110.545L206.714 116.18L213.319 110.788C228.206 116.11 245.464 113.74 258.56 103.049C278.313 86.915 281.125 57.9895 264.854 38.4264ZM254.778 46.6515C260.056 52.9967 259.142 62.3778 252.742 67.6021C246.338 72.8306 236.869 71.9255 231.595 65.5853C226.318 59.2401 227.231 49.859 233.631 44.6347C240.032 39.4011 249.501 40.3063 254.778 46.6515Z" fill="#CFD0D0"/>
<path d="M162.343 128.438L173.366 119.44L182.2 121.689L204.405 103.554L183.78 78.7562L109.353 139.531L107.151 162.142L129.974 164.324L139.399 156.629L136.507 138.714L153.704 144.952L162.883 137.458L162.343 128.438Z" fill="#DFDFDF"/>
<path d="M173.366 119.44L182.2 121.689L204.405 103.554L199.718 97.9186L173.366 119.44Z" fill="#CFD0D0"/>
<path d="M162.343 128.438L145.679 142.042L153.704 144.952L162.883 137.458L162.343 128.438Z" fill="#CFD0D0"/>
<path d="M119.603 163.337L129.974 164.324L139.399 156.629L138.05 148.269L119.603 163.337Z" fill="#CFD0D0"/>
<path d="M194.36 91.4771L189.673 85.8419L108.094 152.456L107.151 162.142L107.744 162.203L136.507 138.714L194.36 91.4771Z" fill="#CFD0D0"/>
<path d="M256.063 100.037C275.815 83.9123 278.627 54.9868 262.356 35.4237C246.081 15.8554 216.879 13.0733 197.132 29.1935C184.031 39.8887 178.387 56.2224 180.818 71.7126L174.214 77.1041L204.218 113.168L210.822 107.776C225.714 113.103 242.971 110.733 256.063 100.037ZM252.281 43.6488C257.558 49.994 256.644 59.3751 250.245 64.5994C243.845 69.8238 234.371 68.9228 229.093 62.5775C223.816 56.2323 224.724 46.8554 231.129 41.6269C237.534 36.3984 247.003 37.3036 252.281 43.6488Z" fill="#DFDFDF"/>
<g filter="url(#filter0_i)">
<path d="M216.83 85.2765C216.193 84.5115 215.554 83.7503 214.923 82.9816C213.284 80.9934 213.665 78.2178 215.813 76.475C217.968 74.7259 220.775 74.8961 222.427 76.8784C223.739 78.4504 225.052 80.0206 226.351 81.6007C227.847 83.4169 227.439 86.1794 225.437 87.8817C223.423 89.5941 220.566 89.5957 218.991 87.8531C218.239 87.0211 217.551 86.1331 216.834 85.2709C216.833 85.2738 216.832 85.2747 216.83 85.2765ZM220.362 81.9375C218.719 83.2518 218.296 85.4819 219.428 86.8721C220.588 88.2954 222.856 88.3793 224.513 87.0591C226.196 85.717 226.618 83.4639 225.454 82.0352C224.317 80.6406 222.038 80.5959 220.362 81.9375Z" fill="#767676"/>
<path d="M206.031 64.7663C207.115 63.8813 208.189 62.9814 209.298 62.1283C209.439 62.0205 209.856 62.0604 209.993 62.189C210.401 62.5766 210.896 62.9871 211.061 63.4913C211.341 64.3531 211.778 65.4638 211.443 66.1553C211.076 66.9122 209.908 67.3133 209.093 67.8731C208.914 67.9958 208.733 68.1234 208.579 68.2749C207.57 69.2637 206.575 70.2657 205.532 71.2179C205.5 71.2473 204.974 70.7925 204.728 70.5195C204.668 70.4519 204.753 70.155 204.857 70.0624C205.46 69.5348 206.121 69.0687 206.697 68.516C206.948 68.2752 207.22 67.8433 207.171 67.5599C207.098 67.1318 206.778 66.7362 206.489 66.3859C206.449 66.3378 205.953 66.6063 205.714 66.7871C205.104 67.2493 204.557 67.8083 203.908 68.1984C203.627 68.367 203.155 68.216 202.77 68.2106C202.861 67.8673 202.841 67.4045 203.065 67.2024C204.01 66.3444 205.029 65.563 206.021 64.7535C206.024 64.7578 206.028 64.7621 206.031 64.7663ZM208.183 64.0553C208.124 64.9073 207.93 65.6219 208.096 65.7108C208.608 65.9838 209.255 66.0168 209.85 66.1446C209.842 65.5449 209.934 64.9131 209.771 64.3631C209.714 64.1779 209.006 64.2 208.183 64.0553Z" fill="#767676"/>
<path d="M234.165 98.5949C233.108 99.4581 232.058 100.33 230.986 101.174C230.826 101.299 230.397 101.382 230.372 101.336C230.219 101.047 229.968 100.636 230.075 100.409C230.718 99.0501 231.452 97.7301 232.149 96.3951C232.196 96.3041 232.194 96.188 232.215 96.0828C232.123 96.1325 232.022 96.1685 231.944 96.2342C230.91 97.1052 229.887 97.9902 228.837 98.842C228.72 98.9376 228.325 98.9225 228.273 98.8325C228.106 98.5457 227.858 97.991 227.959 97.9051C230.157 96.0385 232.395 94.217 234.639 92.4049C234.739 92.323 235.077 92.3346 235.114 92.4044C235.269 92.6962 235.538 93.1148 235.429 93.3278C234.694 94.7496 233.872 96.1295 233.083 97.5251C233.028 97.6216 233.011 97.7381 232.974 97.845C233.086 97.7949 233.217 97.7693 233.307 97.6935C234.411 96.7761 235.499 95.8364 236.626 94.9467C236.757 94.8432 237.227 94.9262 237.321 95.0684C237.461 95.2801 237.545 95.77 237.416 95.8837C236.36 96.8178 235.249 97.6938 234.155 98.5871C234.161 98.5895 234.164 98.5927 234.165 98.5949Z" fill="#767676"/>
<path d="M226.042 88.7632C226.718 88.2114 227.354 87.5975 228.079 87.1224C229.28 86.3354 230.783 86.6636 231.467 87.7758C232.118 88.8375 231.658 90.4846 230.458 91.1359C230.31 91.2151 229.879 90.8906 229.664 90.672C229.555 90.5616 229.591 90.2629 229.635 90.0637C229.755 89.523 229.916 88.9895 230.061 88.4537C229.481 88.5159 228.78 88.3907 228.347 88.6741C227.272 89.3812 226.285 90.237 225.339 91.1119C225.04 91.3879 224.879 91.9124 224.854 92.3278C224.841 92.5245 225.328 92.9323 225.536 92.8957C225.989 92.8166 226.414 92.5216 226.836 92.2902C226.874 92.2693 226.775 92.0578 226.812 91.9579C226.955 91.5668 227.096 91.1665 227.316 90.8164C227.354 90.7565 227.901 90.8466 228.004 91.0045C228.319 91.4846 228.874 92.361 228.735 92.4998C226.727 94.4972 225.077 94.9114 223.981 93.8416C223.046 92.9282 222.991 91.4641 223.949 90.5062C224.586 89.8675 225.344 89.3461 226.048 88.7715C226.048 88.7696 226.045 88.7664 226.042 88.7632Z" fill="#767676"/>
<path d="M200.42 55.578C200.296 55.5432 199.77 55.5387 199.687 55.3424C199.566 55.0523 199.722 54.6163 199.831 54.2615C199.984 53.7693 200.277 53.3022 200.338 52.8088C200.352 52.6951 199.506 52.2939 199.341 52.4137C198.894 52.739 198.417 53.2345 198.295 53.7341C198.159 54.2885 198.409 54.9202 198.481 55.52C198.649 56.924 197.945 58.0457 196.57 58.4615C195.337 58.8347 194.281 58.5338 193.721 57.3874C193.099 56.1123 193.64 55.0297 194.706 54.1672C194.825 54.0697 195.279 54.1474 195.356 54.2753C195.514 54.5424 195.622 54.9103 195.573 55.215C195.492 55.7248 195.207 56.2155 195.167 56.7216C195.16 56.8189 196.088 57.1576 196.225 57.0246C196.582 56.6773 196.95 56.1202 196.937 55.6679C196.898 54.3618 196.383 53.0333 197.562 51.8891C198.79 50.6969 200.456 50.5616 201.382 51.5871C202.356 52.6652 202.084 54.2183 200.42 55.578Z" fill="#767676"/>
<path d="M208.089 59.0576C207.83 59.821 207.799 60.3418 207.524 60.6596C205.782 62.668 203.991 64.6365 202.196 66.6018C202.076 66.7341 201.639 66.8125 201.626 66.7836C201.461 66.4291 201.327 66.0541 201.223 65.6744C201.096 65.2142 201.077 64.7064 200.863 64.2982C200.784 64.1492 200.253 64.2881 199.974 64.1842C199.607 64.0475 199.276 63.8137 198.96 63.5821C198.934 63.5621 199.093 63.1633 199.244 63.0743C201.659 61.6571 204.074 60.243 206.523 58.8863C206.79 58.7386 207.254 58.9529 208.089 59.0576ZM201.736 63.7929C202.378 63.8285 202.731 63.9501 202.843 63.8382C203.7 62.9941 204.51 62.1045 205.331 61.2246C205.377 61.1743 205.382 61.0878 205.407 61.0189C205.343 61.0389 205.272 61.0452 205.215 61.0787C204.243 61.661 203.262 62.2318 202.31 62.8477C202.119 62.9714 202.043 63.2719 201.736 63.7929Z" fill="#767676"/>
<path d="M200.817 59.7357C199.928 60.4634 199.054 61.2123 198.129 61.8922C197.993 61.9923 197.511 61.8445 197.372 61.6688C197.221 61.4782 197.15 60.9674 197.275 60.8604C198.903 59.4701 200.55 58.0971 202.245 56.787C202.886 56.2923 202.968 55.9454 202.401 55.3984C202.242 55.2462 202.294 54.8808 202.25 54.6138C202.696 54.56 203.353 54.2963 203.549 54.4895C204.396 55.3211 205.129 56.2714 205.847 57.2186C205.939 57.3407 205.788 57.809 205.617 57.9253C205.366 58.0973 204.769 58.2389 204.713 58.1497C204.144 57.2312 203.603 57.2944 202.86 58.0426C202.242 58.6658 201.504 59.1748 200.817 59.7357Z" fill="#767676"/>
<path d="M209.816 70.5281C210.648 69.8468 211.513 69.1981 212.294 68.4619C212.482 68.285 212.41 67.822 212.424 67.4896C212.441 67.0806 212.421 66.6717 212.419 66.2631C212.822 66.3499 213.363 66.3066 213.605 66.5503C214.361 67.3108 215.028 68.1621 215.669 69.0223C215.773 69.1613 215.655 69.6523 215.494 69.7564C215.228 69.9291 214.613 70.0704 214.544 69.9651C213.992 69.1158 213.523 69.1718 212.762 69.8506C211.237 71.2082 209.621 72.4667 208.016 73.734C207.882 73.8393 207.408 73.776 207.34 73.6538C207.192 73.3856 207.041 72.8595 207.177 72.7344C208.012 71.9525 208.927 71.2538 209.816 70.5281Z" fill="#767676"/>
<path d="M212.913 73.0176C213.987 72.1407 215.045 71.2396 216.157 70.4137C216.312 70.2981 216.814 70.4784 217.023 70.6636C217.152 70.7786 217.14 71.2928 217.002 71.4088C215.331 72.8227 213.61 74.1778 211.95 75.6026C211.76 75.7653 211.746 76.2953 211.848 76.581C211.971 76.9202 212.406 77.1431 212.522 77.4827C212.623 77.7783 212.586 78.3415 212.397 78.4673C212.156 78.6281 211.526 78.6144 211.362 78.4238C209.241 75.9651 209.254 75.9542 211.861 73.8263C212.203 73.5467 212.547 73.2663 212.889 72.9867C212.897 72.9983 212.905 73.0079 212.913 73.0176Z" fill="#767676"/>
<path d="M230.5 94.2055C229.406 95.0998 228.325 96.0091 227.202 96.8631C227.074 96.9608 226.606 96.8371 226.49 96.6771C226.331 96.46 226.217 95.9378 226.334 95.8391C228.51 94.0217 230.714 92.2365 232.949 90.4926C233.079 90.392 233.58 90.6361 233.805 90.8346C233.917 90.9332 233.893 91.3976 233.764 91.5083C232.699 92.4318 231.593 93.3111 230.5 94.2055Z" fill="#767676"/>
</g>
<g clip-path="url(#clip0)">
<path d="M249.637 56.988C245.17 59.2792 242.715 64.3959 242.725 71.3891C242.735 77.6112 244.705 84.8013 248.274 91.6312C251.842 98.4612 256.631 104.205 261.754 107.805C267.514 111.854 273.146 112.819 277.613 110.528C282.081 108.237 284.535 103.12 284.525 96.1266C284.516 89.9045 282.546 82.7144 278.977 75.8845C275.408 69.0545 270.619 63.3102 265.496 59.7106C259.735 55.6671 254.104 54.6969 249.637 56.988ZM274.558 104.681C270.075 106.98 260.589 100.949 254.148 88.6231C247.706 76.2933 248.213 65.142 252.696 62.8428C257.179 60.5437 266.665 66.5745 273.106 78.9004C279.547 91.2263 279.041 102.381 274.558 104.681Z" fill="#C8C8C8"/>
<path d="M341.493 192.674L315.398 206.058C304.223 211.789 290.4 207.394 284.581 196.258L257.909 145.215C248.346 126.913 237.969 113.356 273.88 94.9383C307.195 77.8523 314.975 92.7409 324.538 111.042L351.21 162.086C357.025 173.224 352.667 186.944 341.493 192.674ZM277.625 102.104C273.126 104.411 271.378 109.912 273.72 114.394C276.062 118.875 281.605 120.637 286.103 118.33C290.602 116.023 292.35 110.522 290.008 106.04C287.668 101.562 282.119 99.7985 277.625 102.104Z" fill="#C03632"/>
<path d="M338.012 194.46L311.921 207.841C300.743 213.574 286.919 209.179 281.1 198.043L254.428 147C244.865 128.698 237.085 113.809 270.4 96.7234C303.715 79.6374 311.494 94.526 321.058 112.828L347.729 163.871C353.545 175.009 349.186 188.729 338.012 194.46ZM274.144 103.889C269.646 106.196 267.898 111.697 270.24 116.179C272.582 120.661 278.124 122.423 282.623 120.115C287.122 117.808 288.869 112.307 286.527 107.825C284.187 103.348 278.643 101.582 274.144 103.889Z" fill="#FC4842"/>
<path d="M249.637 56.988C245.17 59.2792 242.715 64.3959 242.725 71.3891C242.735 77.6112 244.705 84.8013 248.274 91.6312C251.842 98.4612 256.631 104.205 261.754 107.805C267.514 111.854 273.146 112.819 277.613 110.528L274.556 104.677C270.073 106.976 260.587 100.945 254.146 88.6192C247.704 76.2894 248.211 65.1381 252.694 62.8389L249.637 56.988Z" fill="#C8C8C8"/>
<path d="M325.843 147.86L281.659 170.521L292.15 190.598L336.334 167.937L325.843 147.86Z" fill="#FC4842"/>
<path d="M310.106 117.743L265.922 140.404L281.659 170.521L325.843 147.86L310.106 117.743Z" fill="#464655"/>
<path d="M306.796 127.079L304.757 128.124L314.199 146.194L316.238 145.148L306.796 127.079Z" fill="white"/>
<path d="M290.511 137.976L276.236 145.298L275.187 143.29L289.462 135.969L290.511 137.976Z" fill="white"/>
<path d="M289.462 135.969L287.423 137.014L292.668 147.053L294.708 146.007L289.462 135.969Z" fill="white"/>
<path d="M293.658 144L279.383 151.321L280.432 153.329L294.707 146.007L293.658 144Z" fill="white"/>
<path d="M310.992 135.11L296.717 142.431L297.766 144.439L312.041 137.117L310.992 135.11Z" fill="white"/>
<path d="M281.423 150.275L279.383 151.321L284.629 161.36L286.668 160.314L281.423 150.275Z" fill="white"/>
<path d="M297.855 152.031L283.58 159.352L284.629 161.36L298.904 154.038L297.855 152.031Z" fill="white"/>
<path d="M294.56 133.354L292.521 134.4L297.767 144.439L299.806 143.393L294.56 133.354Z" fill="white"/>
<path d="M310.792 161.944L308.753 162.989L312.949 171.02L314.989 169.975L310.792 161.944Z" fill="white"/>
<path d="M320.058 164.829L311.9 169.013L312.95 171.02L321.107 166.837L320.058 164.829Z" fill="white"/>
<path d="M316.91 158.806L314.871 159.852L319.068 167.883L321.107 166.837L316.91 158.806Z" fill="white"/>
<path d="M296.732 172.974L294.692 174.02L295.742 176.027L297.781 174.981L296.732 172.974Z" fill="white"/>
<path d="M299.576 167.696L297.537 168.742L301.734 176.773L303.773 175.727L299.576 167.696Z" fill="white"/>
<path d="M305.229 168.616L300.13 171.23L301.179 173.238L306.278 170.624L305.229 168.616Z" fill="white"/>
<path d="M305.694 164.558L303.655 165.604L307.851 173.635L309.891 172.589L305.694 164.558Z" fill="white"/>
</g>
<mask id="mask0" mask-type="alpha" maskUnits="userSpaceOnUse" x="174" y="18" width="100" height="96">
<path d="M256.278 100.066C276.014 83.9575 278.801 55.0317 262.514 35.4526C246.222 15.8684 217.02 13.0607 197.289 29.1652C184.198 39.85 178.569 56.1804 181.014 71.6742L174.415 77.0604L204.448 113.154L211.047 107.767C225.943 113.107 243.197 110.752 256.278 100.066ZM252.446 43.6698C257.729 50.0202 256.824 59.4013 250.429 64.6206C244.035 69.8399 234.56 68.9306 229.278 62.5802C223.995 56.2298 224.895 46.8528 231.295 41.6293C237.694 36.4059 247.163 37.3194 252.446 43.6698Z" fill="#DFDFDF"/>
</mask>
<g mask="url(#mask0)">
<rect width="25.0742" height="25.0656" transform="matrix(1.00449 0.000871517 0.000880376 0.995493 251.482 53.8923)" fill="#DFDFDF"/>
</g>
<mask id="mask1" mask-type="alpha" maskUnits="userSpaceOnUse" x="177" y="38" width="99" height="78">
<path fill-rule="evenodd" clip-rule="evenodd" d="M264.778 38.6129C278.442 58.0253 275.038 84.8397 256.358 100.087C243.326 110.732 226.122 113.059 211.26 107.71L204.686 113.076L177.119 79.9472L177.118 79.9479L181.784 85.557L202.322 110.245L206.988 115.854L213.551 110.497C228.361 115.803 245.522 113.461 258.537 102.838C278.151 86.8204 280.933 58.0851 264.778 38.6129ZM253.836 45.7589C253.436 45.0841 252.977 44.4316 252.458 43.8083C247.181 37.4646 237.736 36.5403 231.361 41.7438C224.986 46.9472 224.101 56.3026 229.378 62.6463C229.708 63.0421 230.053 63.4168 230.413 63.7702C226.641 57.5826 227.908 49.4359 233.693 44.7141C239.709 39.7959 248.46 40.3419 253.836 45.7589Z" fill="#CFD0D0"/>
</mask>
<g mask="url(#mask1)">
<rect x="270.72" y="65.7222" width="9.28741" height="16.4306" fill="#CFD0D0"/>
</g>
<ellipse cx="340.429" cy="283.263" rx="7.96065" ry="7.88667" fill="#57A600" fill-opacity="0.1"/>
<ellipse cx="355.687" cy="274.062" rx="3.98032" ry="3.94333" fill="#57A600" fill-opacity="0.1"/>
<defs>
<filter id="filter0_i" x="192.062" y="49.638" width="46.1593" height="52.3362" filterUnits="userSpaceOnUse" color-interpolation-filters="sRGB">
<feFlood flood-opacity="0" result="BackgroundImageFix"/>
<feBlend mode="normal" in="SourceGraphic" in2="BackgroundImageFix" result="shape"/>
<feColorMatrix in="SourceAlpha" type="matrix" values="0 0 0 0 0 0 0 0 0 0 0 0 0 0 0 0 0 0 127 0" result="hardAlpha"/>
<feOffset dx="-0.5" dy="0.5"/>
<feComposite in2="hardAlpha" operator="arithmetic" k2="-1" k3="1"/>
<feColorMatrix type="matrix" values="0 0 0 0 0 0 0 0 0 0 0 0 0 0 0 0 0 0 0.1 0"/>
<feBlend mode="normal" in2="shape" result="effect1_innerShadow"/>
</filter>
<clipPath id="clip0">
<rect width="78.7886" height="162.657" fill="white" transform="matrix(0.8898 -0.45635 -0.46312 -0.886296 291.652 218.236)"/>
</clipPath>
</defs>
</svg>
