<svg width="448" height="283" viewBox="0 0 448 283" fill="none" xmlns="http://www.w3.org/2000/svg">
<path d="M419.878 195.094C406.725 274.943 319.159 237.903 206.669 255.55C94.1782 273.196 49.3322 213.695 62.4852 133.845C75.6381 53.9956 156.998 20.3728 241.659 34.3129C326.319 48.2531 433.031 115.244 419.878 195.094Z" fill="#C4C4C4" fill-opacity="0.2"/>
<path d="M404.673 145.754C406.264 146.851 407.168 146.686 407.755 145.195C407.903 144.821 408.041 144.412 408.033 144.019C407.866 138.677 407.544 133.351 405.21 128.404C404.95 127.858 404.742 127.18 404.295 126.852C403.508 126.272 402.563 125.916 401.689 125.468C401.784 126.336 401.706 127.26 402.004 128.055C403.571 132.196 404.541 136.408 404.259 140.895C404.156 142.507 404.516 144.134 404.673 145.754Z" fill="#E8E9E9"/>
<ellipse rx="49.7051" ry="3.26789" transform="matrix(1 0 0 -1 175.276 236.596)" fill="#C4C4C4" fill-opacity="0.12"/>
<path d="M134.104 9.47067C110.109 17.2285 96.9631 42.9658 104.728 66.9504C109.879 82.8634 122.947 94.0052 138.158 97.4406L140.755 105.462L147.665 103.228L175.024 187.717L191.469 199.188L195.151 197.998L205.431 177.886L201.725 166.437L184.104 162.538L196.101 149.063L192.491 137.913L183.95 135.11L179.616 121.722L184.895 114.451L178.079 93.3953L184.989 91.1613L182.392 83.1395C192.705 71.4454 196.759 54.7677 191.61 38.8609C183.835 14.8659 158.093 1.71485 134.104 9.47067ZM138.066 21.7086C145.847 19.193 154.195 23.4596 156.711 31.2327C159.229 39.012 154.964 47.3565 147.19 49.87C139.409 52.3856 131.061 48.1191 128.544 40.346C126.02 32.5687 130.285 24.2242 138.066 21.7086Z" fill="#CFD0D0"/>
<path d="M180.266 136.295L175.932 122.906L181.211 115.635L172.472 88.6616L142.064 98.4926L171.346 188.899L191.467 199.182L201.748 179.07L198.041 167.622L180.42 163.722L192.417 150.247L188.807 139.098L180.266 136.295Z" fill="#DFDFDF"/>
<path d="M175.932 122.906L181.211 115.635L172.472 88.6616L165.562 90.8956L175.932 122.906Z" fill="#CFD0D0"/>
<path d="M180.266 136.295L186.819 156.536L192.416 150.247L188.807 139.098L180.266 136.295Z" fill="#CFD0D0"/>
<path d="M197.08 188.211L201.747 179.07L198.041 167.622L189.818 165.801L197.08 188.211Z" fill="#CFD0D0"/>
<path d="M157.663 93.4494L150.753 95.6834L182.847 194.777L191.467 199.182L191.738 198.662L180.42 163.722L157.663 93.4494Z" fill="#CFD0D0"/>
<path d="M187.92 40.0471C180.153 16.0563 154.411 2.90527 130.422 10.6611C106.426 18.4189 93.281 44.1562 101.046 68.1408C106.197 84.0538 119.265 95.1956 134.476 98.631L137.073 106.653L181.299 92.3475L178.702 84.3257C189.021 72.6296 193.075 55.9519 187.92 40.0471ZM134.384 22.899C142.164 20.3835 150.512 24.65 153.029 32.4231C155.545 40.1962 151.282 48.5469 143.501 51.0625C135.72 53.578 127.374 49.3177 124.856 41.5384C122.338 33.7591 126.603 25.4146 134.384 22.899Z" fill="#DFDFDF"/>
<g filter="url(#filter0_i)">
<path d="M160.061 70.5963C159.123 70.8996 158.188 71.2065 157.248 71.5044C154.815 72.2789 152.385 70.9155 151.55 68.3104C150.713 65.6958 151.886 63.1868 154.318 62.3975C156.247 61.7708 158.176 61.1414 160.108 60.5288C162.329 59.8224 164.737 61.2066 165.587 63.6629C166.442 66.1342 165.41 68.7519 163.227 69.5577C162.186 69.9424 161.115 70.2481 160.058 70.59C160.06 70.5923 160.06 70.5936 160.061 70.5963ZM158.251 66.1396C158.872 68.1253 160.782 69.3276 162.478 68.7987C164.215 68.2568 165.113 66.2092 164.492 64.2087C163.86 62.1757 161.928 60.9654 160.185 61.5095C158.483 62.0418 157.617 64.1133 158.251 66.1396Z" fill="#767676"/>
<path d="M137.177 72.9919C136.751 71.675 136.307 70.3623 135.919 69.0345C135.87 68.8662 136.058 68.4987 136.227 68.4202C136.733 68.1876 137.292 67.8842 137.818 67.9177C138.717 67.9758 139.903 67.9815 140.421 68.5413C140.989 69.154 140.937 70.371 141.159 71.3226C141.208 71.5314 141.261 71.7433 141.345 71.9406C141.894 73.2266 142.461 74.504 142.965 75.8079C142.98 75.8477 142.369 76.1636 142.028 76.289C141.943 76.3192 141.699 76.1332 141.652 76.0035C141.381 75.2587 141.19 74.4827 140.887 73.753C140.755 73.4349 140.454 73.0279 140.174 72.9687C139.751 72.8793 139.27 73.0276 138.841 73.1648C138.782 73.1838 138.851 73.7362 138.931 74.0214C139.138 74.7493 139.458 75.4542 139.583 76.1917C139.638 76.5109 139.327 76.8882 139.183 77.2387C138.898 77.0299 138.463 76.8788 138.357 76.6003C137.905 75.4203 137.551 74.2013 137.161 72.9969C137.166 72.9952 137.172 72.9935 137.177 72.9919ZM137.298 70.7601C138.065 71.1258 138.656 71.5649 138.798 71.4455C139.236 71.0765 139.501 70.4955 139.834 69.997C139.277 69.7853 138.726 69.4695 138.158 69.4182C137.966 69.4024 137.73 70.0594 137.298 70.7601Z" fill="#767676"/>
<path d="M178.659 59.5822C179.074 60.8665 179.501 62.1474 179.894 63.4376C179.952 63.6299 179.873 64.0534 179.821 64.0596C179.498 64.0938 179.028 64.174 178.856 63.993C177.832 62.907 176.876 61.7523 175.893 60.6258C175.826 60.5487 175.718 60.5089 175.628 60.4511C175.641 60.5532 175.638 60.6591 175.67 60.7548C176.102 62.0206 176.55 63.2809 176.958 64.5543C177.004 64.6965 176.847 65.0526 176.745 65.0676C176.419 65.1161 175.816 65.1404 175.773 65.0167C174.843 62.32 173.968 59.6037 173.103 56.8854C173.064 56.7635 173.197 56.4586 173.275 56.4498C173.601 56.4148 174.086 56.3209 174.243 56.4989C175.292 57.6922 176.271 58.9502 177.277 60.183C177.346 60.2683 177.448 60.3267 177.534 60.3993C177.528 60.2785 177.551 60.1497 177.514 60.039C177.065 58.6921 176.589 57.3523 176.174 55.9944C176.126 55.8364 176.373 55.4363 176.538 55.4023C176.785 55.3509 177.268 55.4536 177.327 55.6127C177.809 56.922 178.217 58.2596 178.648 59.5887C178.652 59.5843 178.656 59.583 178.659 59.5822Z" fill="#767676"/>
<path d="M166.622 63.4302C166.356 62.6092 166.018 61.8025 165.841 60.9648C165.548 59.5765 166.396 58.3191 167.672 58.0995C168.89 57.8914 170.247 58.9147 170.416 60.2521C170.435 60.4163 169.979 60.6925 169.699 60.8101C169.557 60.8693 169.294 60.7269 169.126 60.6137C168.669 60.3065 168.234 59.9638 167.79 59.6357C167.638 60.1893 167.268 60.7863 167.374 61.2864C167.639 62.5297 168.073 63.7466 168.54 64.9337C168.687 65.3081 169.114 65.6475 169.489 65.8226C169.667 65.9059 170.22 65.6086 170.262 65.4052C170.352 64.9613 170.233 64.464 170.172 63.993C170.167 63.9498 169.935 63.9633 169.856 63.8931C169.546 63.6192 169.227 63.3438 168.982 63.0142C168.941 62.9573 169.222 62.4893 169.406 62.4524C169.964 62.3393 170.975 62.1514 171.053 62.3297C172.175 64.899 171.96 66.5621 170.574 67.175C169.39 67.6984 168.016 67.2133 167.477 65.9854C167.117 65.168 166.908 64.2834 166.632 63.4286C166.63 63.4276 166.626 63.4289 166.622 63.4302Z" fill="#767676"/>
<path d="M126.646 74.773C126.568 74.8743 126.374 75.3548 126.162 75.3588C125.85 75.364 125.503 75.0616 125.214 74.8317C124.814 74.5121 124.488 74.0727 124.054 73.8359C123.954 73.7815 123.276 74.4107 123.327 74.6051C123.467 75.1333 123.752 75.7518 124.17 76.0462C124.634 76.3737 125.309 76.3755 125.89 76.5289C127.249 76.8885 128.032 77.9434 127.919 79.3553C127.818 80.6212 127.158 81.4783 125.894 81.5724C124.489 81.6765 123.684 80.7845 123.271 79.4931C123.225 79.3481 123.461 78.9604 123.607 78.9372C123.911 78.8896 124.291 78.9257 124.555 79.0811C124.997 79.3422 125.348 79.7825 125.802 80.004C125.889 80.046 126.538 79.3198 126.465 79.1461C126.273 78.6918 125.891 78.1509 125.468 77.9973C124.245 77.556 122.83 77.5422 122.198 76.0433C121.539 74.4828 122.018 72.9064 123.302 72.4329C124.651 71.9352 125.99 72.7521 126.646 74.773Z" fill="#767676"/>
<path d="M132.641 69.0199C133.253 69.5357 133.724 69.7548 133.918 70.1229C135.146 72.4528 136.318 74.814 137.487 77.1764C137.566 77.335 137.48 77.7637 137.449 77.7649C137.061 77.7871 136.665 77.7727 136.276 77.7293C135.805 77.6768 135.328 77.5092 134.873 77.5561C134.706 77.574 134.643 78.1108 134.446 78.3287C134.186 78.6146 133.85 78.8325 133.522 79.0375C133.494 79.0541 133.182 78.7626 133.154 78.592C132.718 75.8613 132.284 73.1311 131.915 70.3918C131.875 70.0935 132.242 69.746 132.641 69.0199ZM134.722 76.5708C134.987 75.9956 135.227 75.7175 135.164 75.5731C134.693 74.4802 134.164 73.4123 133.647 72.3387C133.617 72.278 133.539 72.242 133.484 72.1938C133.479 72.2597 133.459 72.3275 133.47 72.3914C133.657 73.4954 133.83 74.6023 134.055 75.6999C134.1 75.9202 134.351 76.0996 134.722 76.5708Z" fill="#767676"/>
<path d="M130.635 75.9299C130.987 77.0106 131.363 78.0846 131.657 79.1808C131.701 79.3418 131.389 79.7298 131.177 79.7926C130.946 79.8613 130.447 79.7396 130.393 79.5864C129.697 77.5862 129.023 75.5757 128.424 73.5438C128.199 72.7756 127.907 72.5735 127.196 72.8932C126.998 72.9828 126.679 72.8016 126.416 72.7445C126.527 72.3163 126.521 71.6178 126.771 71.5087C127.847 71.0366 128.991 70.713 130.128 70.401C130.274 70.3611 130.652 70.6713 130.698 70.8706C130.767 71.1627 130.681 71.762 130.579 71.7802C129.523 71.9659 129.385 72.4848 129.809 73.4389C130.161 74.2333 130.365 75.0953 130.635 75.9299Z" fill="#767676"/>
<path d="M143.878 71.6307C143.549 70.6191 143.262 69.5895 142.863 68.6048C142.768 68.3678 142.313 68.2648 142.011 68.1307C141.639 67.9651 141.253 67.8338 140.874 67.687C141.1 67.3489 141.256 66.8376 141.569 66.7049C142.547 66.2902 143.576 65.9904 144.603 65.718C144.77 65.6732 145.181 65.9607 145.219 66.1459C145.283 66.4532 145.191 67.0681 145.069 67.0926C144.083 67.2887 143.965 67.7383 144.317 68.6839C145.021 70.577 145.601 72.5179 146.192 74.4518C146.241 74.6126 146.011 75.0237 145.873 75.0412C145.571 75.079 145.03 75.025 144.963 74.855C144.542 73.8044 144.227 72.7105 143.878 71.6307Z" fill="#767676"/>
<path d="M147.302 69.7035C146.88 68.3988 146.429 67.1003 146.068 65.7789C146.017 65.5948 146.365 65.2008 146.612 65.0776C146.765 65.0011 147.236 65.2005 147.294 65.369C147.997 67.4164 148.628 69.4889 149.345 71.5302C149.427 71.7643 149.912 71.9711 150.213 71.9814C150.572 71.9927 150.935 71.6762 151.291 71.6942C151.601 71.7092 152.109 71.9491 152.157 72.1686C152.218 72.4481 151.978 73.0197 151.742 73.1004C148.699 74.1455 148.694 74.1292 147.669 70.9631C147.535 70.5472 147.399 70.1299 147.265 69.714C147.278 69.7111 147.29 69.7073 147.302 69.7035Z" fill="#767676"/>
<path d="M173.27 61.3361C173.702 62.6647 174.152 63.9874 174.535 65.3286C174.579 65.482 174.295 65.8657 174.105 65.9136C173.847 65.9791 173.323 65.8927 173.274 65.75C172.38 63.0922 171.526 60.4198 170.722 57.7346C170.676 57.5789 171.083 57.2093 171.348 57.0757C171.48 57.0091 171.901 57.2007 171.957 57.3593C172.425 58.673 172.839 60.0075 173.27 61.3361Z" fill="#767676"/>
</g>
<g clip-path="url(#clip0)">
<path d="M366.394 31.7308C361.437 31.7521 356.964 35.1784 353.802 41.3726C350.988 46.884 349.456 54.1327 349.489 61.7808C349.522 69.429 351.117 76.6642 353.977 82.1512C357.193 88.3224 361.695 91.7057 366.652 91.6844C371.609 91.6631 376.082 88.2368 379.244 82.0425C382.057 76.5312 383.59 69.2825 383.557 61.6343C383.524 53.9862 381.929 46.7509 379.068 41.264C375.849 35.0971 371.351 31.7095 366.394 31.7308ZM366.624 85.1369C361.649 85.1583 356.065 75.5597 356.005 61.7572C355.946 47.9503 361.448 38.3084 366.422 38.287C371.396 38.2656 376.981 47.8642 377.04 61.6667C377.1 75.4692 371.598 85.1155 366.624 85.1369Z" fill="#C8C8C8"/>
<path d="M341.824 192.673L314.891 182.049C303.358 177.5 297.701 164.365 302.283 152.765L323.282 99.5985C330.811 80.5354 334.256 63.9701 371.321 78.5904C405.706 92.1534 399.581 107.661 392.052 126.724L371.052 179.891C366.467 191.489 353.357 197.222 341.824 192.673ZM368.374 86.0539C363.73 84.2224 358.474 86.521 356.63 91.1893C354.787 95.8575 357.055 101.124 361.698 102.956C366.341 104.787 371.597 102.488 373.441 97.8201C375.283 93.156 373.013 87.8838 368.374 86.0539Z" fill="#CFD0D0"/>
<path d="M338.232 191.256L311.303 180.634C299.766 176.083 294.108 162.948 298.69 151.348L319.689 98.1815C327.219 79.1184 333.344 63.6104 367.729 77.1734C402.114 90.7363 395.988 106.244 388.459 125.307L367.46 178.474C362.874 190.072 349.765 195.805 338.232 191.256ZM364.781 84.6369C360.138 82.8054 354.882 85.104 353.038 89.7723C351.194 94.4405 353.462 99.707 358.105 101.538C362.748 103.37 368.005 101.071 369.848 96.4031C371.691 91.7389 369.424 86.4683 364.781 84.6369Z" fill="#DFDFDF"/>
<path d="M366.394 31.7308C361.437 31.7521 356.964 35.1783 353.802 41.3726C350.988 46.884 349.456 54.1327 349.489 61.7808C349.522 69.429 351.117 76.6642 353.977 82.1512C357.193 88.3224 361.695 91.7057 366.652 91.6844L366.624 85.1325C361.649 85.1539 356.065 75.5553 356.005 61.7528C355.946 47.9459 361.448 38.304 366.422 38.2826L366.394 31.7308Z" fill="#C8C8C8"/>
<path d="M365.9 148.6L321 128.922L311.965 149.512L356.864 169.19L365.9 148.6Z" fill="#CACACC"/>
<path d="M379.454 117.715L334.554 98.037L321 128.922L365.9 148.6L379.454 117.715Z" fill="#909099"/>
<path d="M370.181 121.016L368.109 120.108L359.977 138.639L362.049 139.547L370.181 121.016Z" fill="white"/>
<path d="M351.663 115.355L337.157 108.998L338.061 106.939L352.567 113.296L351.663 115.355Z" fill="white"/>
<path d="M352.566 113.296L350.494 112.388L345.976 122.683L348.049 123.591L352.566 113.296Z" fill="white"/>
<path d="M348.952 121.532L334.446 115.175L333.543 117.234L348.049 123.591L348.952 121.532Z" fill="white"/>
<path d="M366.567 129.252L352.061 122.894L351.157 124.953L365.663 131.311L366.567 129.252Z" fill="white"/>
<path d="M336.519 116.083L334.446 115.175L329.928 125.47L332.001 126.378L336.519 116.083Z" fill="white"/>
<path d="M345.338 129.768L330.832 123.411L329.928 125.47L344.435 131.827L345.338 129.768Z" fill="white"/>
<path d="M357.748 115.567L355.675 114.658L351.157 124.953L353.23 125.862L357.748 115.567Z" fill="white"/>
<path d="M345.682 145.876L343.609 144.968L339.995 153.204L342.067 154.112L345.682 145.876Z" fill="white"/>
<path d="M349.188 154.778L340.898 151.145L339.995 153.204L348.284 156.837L349.188 154.778Z" fill="white"/>
<path d="M351.898 148.601L349.826 147.693L346.212 155.929L348.284 156.837L351.898 148.601Z" fill="white"/>
<path d="M328.439 142.002L326.366 141.094L325.463 143.153L327.535 144.061L328.439 142.002Z" fill="white"/>
<path d="M334.284 140.881L332.211 139.973L328.597 148.209L330.669 149.117L334.284 140.881Z" fill="white"/>
<path d="M337.073 145.786L331.893 143.516L330.989 145.575L336.17 147.845L337.073 145.786Z" fill="white"/>
<path d="M340.501 143.606L338.429 142.698L334.814 150.934L336.887 151.842L340.501 143.606Z" fill="white"/>
</g>
<ellipse rx="44.8" ry="2.61431" transform="matrix(1 0 0 -1 339.107 236.596)" fill="#C4C4C4" fill-opacity="0.12"/>
<ellipse cx="201.433" cy="16.3395" rx="7.84444" ry="7.84296" fill="#C4C4C4" fill-opacity="0.2"/>
<ellipse cx="221.055" cy="22.5485" rx="3.92221" ry="3.59469" fill="#C4C4C4" fill-opacity="0.2"/>
<path d="M43.43 73.3944C50.5926 67.755 58.5518 63.6263 67.1737 60.8092C69.847 59.9317 72.704 59.5781 75.5009 59.1343C76.0979 59.0389 76.7993 59.6188 77.4529 59.8861C77.142 60.5574 77.0134 61.5407 76.4861 61.8542C72.8272 64.0249 69.115 66.1143 65.3587 68.1158C62.3503 69.7182 59.2988 71.253 56.1953 72.6703C52.3225 74.4387 48.3831 76.0506 44.4776 77.7368C43.5199 78.1499 42.616 78.7502 41.618 78.9659C41.0117 79.0966 39.9894 78.8687 39.6867 78.433C39.3942 78.0111 39.5394 76.8876 39.9234 76.4675C40.9665 75.3377 42.2414 74.405 43.43 73.3944Z" fill="#E8E9E9"/>
<path d="M79.6745 113.101C78.4886 114.914 76.757 115.519 75.2092 114.652C73.5242 113.713 72.9273 111.878 73.9871 109.987C76.5712 105.354 79.2199 100.758 81.9804 96.2311C82.8313 94.8312 84.2489 93.8556 86.064 94.2566C88.0545 94.6934 89.0389 97.024 88.0339 99.2418C87.2151 101.042 86.1329 102.733 85.0493 104.395C83.1937 107.249 81.2451 110.047 79.3343 112.871C79.443 112.944 79.5611 113.024 79.6745 113.101Z" fill="#E8E9E9"/>
<path d="M424.092 132.513C425.409 130.866 425.34 128.395 424.197 125.68C421.311 118.795 416.643 112.964 410.832 107.958C408.652 106.08 406.232 104.472 403.827 102.949C402.917 102.377 401.757 102.385 400.712 102.127C401.328 103.177 401.771 104.421 402.599 105.228C404.313 106.888 406.364 108.186 408.049 109.874C413.926 115.749 417.841 122.521 420.269 129.881C420.47 130.493 420.634 131.112 420.885 131.72C421.78 133.897 422.58 134.172 424.092 132.513Z" fill="#E8E9E9"/>
<defs>
<filter id="filter0_i" x="121.09" y="54.6567" width="59.1978" height="28.0471" filterUnits="userSpaceOnUse" color-interpolation-filters="sRGB">
<feFlood flood-opacity="0" result="BackgroundImageFix"/>
<feBlend mode="normal" in="SourceGraphic" in2="BackgroundImageFix" result="shape"/>
<feColorMatrix in="SourceAlpha" type="matrix" values="0 0 0 0 0 0 0 0 0 0 0 0 0 0 0 0 0 0 127 0" result="hardAlpha"/>
<feOffset dx="-0.5" dy="0.5"/>
<feComposite in2="hardAlpha" operator="arithmetic" k2="-1" k3="1"/>
<feColorMatrix type="matrix" values="0 0 0 0 0 0 0 0 0 0 0 0 0 0 0 0 0 0 0.1 0"/>
<feBlend mode="normal" in2="shape" result="effect1_innerShadow"/>
</filter>
<clipPath id="clip0">
<rect width="77.7837" height="161.449" fill="white" transform="matrix(0.930247 0.366933 0.367355 -0.930081 290.382 172.382)"/>
</clipPath>
</defs>
</svg>
