<svg width="320" height="201" viewBox="0 0 320 201" fill="none" xmlns="http://www.w3.org/2000/svg">
<path d="M301.544 146.968C292.179 203.681 215.607 204.733 155.324 194.832C95.0413 184.931 -1.16045 180.32 8.20517 123.607C17.5708 66.8934 124.553 6.2208 184.836 16.1218C245.119 26.0227 310.91 90.2547 301.544 146.968Z" fill="#B4CFE9" fill-opacity="0.2"/>
<path d="M73.6662 28.2625C78.4405 35.1972 71.9722 39.7126 63.9431 45.2102C55.9141 50.7078 49.3649 55.1058 44.5906 48.1711C39.8164 41.2364 47.7633 30.0957 55.7923 24.5982C63.8213 19.1006 68.892 21.3278 73.6662 28.2625Z" fill="#B4CFE9" fill-opacity="0.4"/>
<ellipse rx="27.4628" ry="2.32101" transform="matrix(1 0 0 -1 131.615 167.848)" fill="#4193A0" fill-opacity="0.12"/>
<path d="M132.434 1.66313C114.476 1.66313 99.9258 16.1834 99.9258 34.0877C99.9258 45.9667 106.335 56.3509 115.887 61.9956V67.9838H121.058L121.063 131.055L129.688 142.4H132.444L143.82 131.055V122.509L132.737 116.024L143.82 109.539V101.216L138.648 97.4561V87.4618L143.82 83.7018V67.9838H148.991V61.9956C158.543 56.3463 164.948 45.962 164.948 34.0877C164.943 16.1741 150.388 1.66313 132.434 1.66313ZM132.434 10.7987C138.257 10.7987 142.977 15.5057 142.977 21.3082C142.977 27.1154 138.257 31.8224 132.439 31.8224C126.616 31.8224 121.896 27.1154 121.896 21.3129C121.891 15.5057 126.611 10.7987 132.434 10.7987Z" fill="#CFD0D0"/>
<path d="M135.893 97.4515V87.4572L141.064 83.6971L141.06 63.56H118.303L118.312 131.051L129.688 142.396L141.064 131.051V122.505L129.981 116.02L141.064 109.535V101.212L135.893 97.4515Z" fill="#DFDFDF"/>
<path d="M135.893 87.4572L141.064 83.6971L141.06 63.56H135.888L135.893 87.4572Z" fill="#CFD0D0"/>
<path d="M135.893 97.4515V112.561L141.064 109.535V101.212L135.893 97.4515Z" fill="#CFD0D0"/>
<path d="M135.898 136.208L141.064 131.051V122.505L135.893 119.478L135.898 136.208Z" fill="#CFD0D0"/>
<path d="M129.977 63.56H124.805L124.815 137.535L129.688 142.396L129.986 142.103L129.981 116.02L129.977 63.56Z" fill="#CFD0D0"/>
<path d="M162.187 34.0831C162.187 16.1741 147.632 1.66313 129.679 1.66313C111.721 1.66313 97.1703 16.1834 97.1703 34.0877C97.1703 45.9667 103.58 56.3509 113.131 61.9956V67.9838L146.231 67.9792V61.991C155.787 56.3416 162.192 45.9574 162.187 34.0831ZM129.679 10.7987C135.502 10.7987 140.222 15.5057 140.222 21.3082C140.222 27.1108 135.502 31.8224 129.679 31.8224C123.856 31.8224 119.136 27.12 119.136 21.3129C119.136 15.5057 123.856 10.7987 129.679 10.7987Z" fill="#DFDFDF"/>
<g filter="url(#filter0_i)">
<path d="M136.614 48.6406C135.912 48.6406 135.211 48.6437 134.508 48.6396C132.691 48.6315 131.343 47.1793 131.349 45.2365C131.355 43.2866 132.7 41.8475 134.521 41.8455C135.966 41.8435 137.41 41.8394 138.853 41.8475C140.513 41.8556 141.841 43.317 141.878 45.1627C141.915 47.0195 140.642 48.5628 138.987 48.6305C138.196 48.6629 137.404 48.6356 136.613 48.6356C136.614 48.6376 136.614 48.6386 136.614 48.6406ZM136.365 45.2335C136.35 46.711 137.38 47.9408 138.645 47.9539C139.941 47.9671 140.999 46.7798 141.016 45.2921C141.034 43.7802 139.991 42.5403 138.69 42.5271C137.421 42.515 136.379 43.7256 136.365 45.2335Z" fill="#767676"/>
<path d="M120.585 45.2598C120.585 44.2768 120.572 43.2928 120.6 42.3108C120.604 42.1864 120.812 41.979 120.944 41.9629C121.338 41.9163 121.783 41.8334 122.132 41.9709C122.728 42.2066 123.53 42.4695 123.759 42.961C124.009 43.4991 123.707 44.3102 123.649 45.0019C123.636 45.1536 123.625 45.3083 123.639 45.46C123.729 46.4491 123.833 47.4362 123.888 48.4273C123.89 48.4576 123.407 48.5375 123.148 48.5476C123.084 48.5497 122.96 48.3707 122.956 48.2726C122.936 47.7103 122.976 47.1439 122.931 46.5846C122.912 46.3409 122.797 46.0001 122.62 45.899C122.354 45.7463 121.995 45.7412 121.674 45.7402C121.63 45.7402 121.556 46.1285 121.548 46.3389C121.528 46.8759 121.59 47.422 121.513 47.9479C121.48 48.1755 121.187 48.3626 121.012 48.5679C120.865 48.3646 120.603 48.1674 120.593 47.956C120.546 47.06 120.573 46.1589 120.573 45.2598C120.577 45.2598 120.581 45.2598 120.585 45.2598ZM121.156 43.7782C121.596 44.1928 121.9 44.6186 122.022 44.5691C122.4 44.4153 122.707 44.0806 123.042 43.8166C122.711 43.5517 122.407 43.2179 122.033 43.0591C121.907 43.0066 121.603 43.3989 121.156 43.7782Z" fill="#767676"/>
<path d="M151.629 45.2608C151.629 46.2195 151.636 47.1783 151.62 48.136C151.617 48.2786 151.471 48.5476 151.434 48.5405C151.208 48.493 150.872 48.4445 150.795 48.2847C150.339 47.3269 149.945 46.3379 149.526 45.3619C149.498 45.2952 149.433 45.2446 149.385 45.1859C149.371 45.2578 149.346 45.3285 149.347 45.4004C149.362 46.35 149.389 47.2996 149.386 48.2493C149.386 48.3555 149.202 48.5618 149.129 48.5496C148.898 48.5112 148.484 48.3959 148.482 48.3029C148.443 46.2772 148.446 44.2505 148.457 42.2248C148.457 42.1337 148.613 41.9568 148.668 41.9679C148.897 42.0154 149.246 42.0579 149.314 42.2126C149.763 43.2482 150.15 44.3122 150.561 45.365C150.589 45.4378 150.645 45.4995 150.687 45.5672C150.71 45.4843 150.754 45.4024 150.753 45.3194C150.744 44.3111 150.716 43.3018 150.732 42.2935C150.734 42.1762 150.989 41.9598 151.109 41.9729C151.287 41.9922 151.592 42.1671 151.597 42.2875C151.636 43.2776 151.62 44.2707 151.62 45.2628C151.624 45.2608 151.627 45.2608 151.629 45.2608Z" fill="#767676"/>
<path d="M142.63 45.2314C142.63 44.6186 142.578 43.9996 142.642 43.3949C142.748 42.3926 143.598 41.7282 144.511 41.8586C145.382 41.984 146.077 42.9721 145.897 43.9127C145.875 44.028 145.505 44.1149 145.289 44.1331C145.181 44.1422 145.034 43.9885 144.944 43.8752C144.702 43.5678 144.482 43.2411 144.254 42.9226C144.029 43.2634 143.648 43.586 143.61 43.947C143.517 44.8451 143.544 45.7624 143.6 46.6665C143.618 46.9517 143.832 47.2743 144.048 47.4746C144.15 47.5696 144.59 47.4898 144.663 47.3613C144.822 47.0812 144.85 46.7191 144.912 46.3874C144.918 46.3571 144.758 46.3156 144.72 46.2509C144.57 45.998 144.414 45.7422 144.321 45.4661C144.305 45.4185 144.598 45.1637 144.731 45.1789C145.134 45.2244 145.86 45.3184 145.874 45.456C146.07 47.4372 145.56 48.5142 144.486 48.6255C143.57 48.7205 142.745 48.0925 142.649 47.1449C142.584 46.5138 142.637 45.8706 142.637 45.2325C142.636 45.2314 142.633 45.2314 142.63 45.2314Z" fill="#767676"/>
<path d="M113.059 44.1625C112.985 44.2141 112.747 44.4963 112.603 44.4528C112.39 44.3881 112.222 44.1079 112.077 43.8895C111.876 43.5861 111.751 43.218 111.509 42.9631C111.453 42.9044 110.856 43.1815 110.848 43.3241C110.826 43.7115 110.884 44.1919 111.103 44.4821C111.345 44.8047 111.802 44.9534 112.162 45.184C113.004 45.724 113.303 46.6079 112.917 47.5374C112.571 48.3707 111.935 48.8056 111.059 48.5932C110.084 48.3565 109.734 47.5778 109.738 46.615C109.738 46.5068 109.983 46.2965 110.087 46.3126C110.304 46.347 110.553 46.4542 110.698 46.617C110.94 46.8901 111.081 47.2643 111.34 47.5131C111.39 47.5606 111.989 47.2117 111.978 47.0782C111.947 46.7293 111.807 46.2803 111.554 46.0841C110.823 45.5187 109.867 45.2002 109.767 44.0493C109.664 42.8508 110.333 41.8901 111.307 41.8506C112.331 41.8092 113.058 42.6536 113.059 44.1625Z" fill="#767676"/>
<path d="M118.383 41.5846C118.685 42.067 118.955 42.3178 119.006 42.6091C119.327 44.4517 119.603 46.3035 119.877 48.1552C119.895 48.2796 119.743 48.5507 119.722 48.5446C119.454 48.4748 119.189 48.3787 118.936 48.2645C118.628 48.1259 118.341 47.9085 118.023 47.8407C117.906 47.8164 117.745 48.1654 117.564 48.2695C117.325 48.4061 117.05 48.4799 116.782 48.5466C116.76 48.5517 116.613 48.2867 116.631 48.1654C116.934 46.2246 117.239 44.2849 117.59 42.3532C117.628 42.1429 117.953 41.9881 118.383 41.5846ZM118.136 47.1419C118.442 46.8112 118.666 46.6757 118.655 46.5644C118.576 45.723 118.451 44.8856 118.336 44.0472C118.33 43.9997 118.284 43.9582 118.258 43.9137C118.24 43.9572 118.212 43.9987 118.205 44.0442C118.089 44.831 117.964 45.6168 117.876 46.4077C117.858 46.5664 117.988 46.7424 118.136 47.1419Z" fill="#767676"/>
<path d="M115.509 45.816C115.509 46.6231 115.529 47.4311 115.488 48.2361C115.482 48.3545 115.186 48.5486 115.028 48.5446C114.856 48.5405 114.546 48.3494 114.543 48.2341C114.509 46.7303 114.494 45.2244 114.534 43.7205C114.55 43.1522 114.397 42.9519 113.845 43.0126C113.691 43.0298 113.514 42.8376 113.348 42.7416C113.518 42.4766 113.667 42.0033 113.86 41.9841C114.693 41.9001 115.539 41.9315 116.377 41.9689C116.485 41.974 116.673 42.2662 116.661 42.4109C116.643 42.6232 116.454 43.0096 116.38 42.9995C115.624 42.8943 115.417 43.2149 115.495 43.9521C115.56 44.566 115.509 45.193 115.509 45.816Z" fill="#767676"/>
<path d="M125.423 45.8039C125.422 45.0485 125.453 44.29 125.399 43.5375C125.386 43.3565 125.101 43.1876 124.926 43.0309C124.71 42.8377 124.478 42.6648 124.253 42.4827C124.48 42.3037 124.698 41.9922 124.939 41.971C125.692 41.9042 126.455 41.9265 127.211 41.9669C127.334 41.973 127.55 42.2572 127.535 42.3907C127.51 42.6122 127.313 43.0076 127.225 42.9975C126.514 42.9146 126.336 43.1927 126.367 43.9087C126.429 45.3418 126.395 46.7799 126.372 48.216C126.37 48.3353 126.124 48.5629 126.027 48.5447C125.814 48.5042 125.459 48.3495 125.451 48.22C125.396 47.418 125.423 46.61 125.423 45.8039Z" fill="#767676"/>
<path d="M128.165 45.2497C128.165 44.2758 128.145 43.2999 128.19 42.328C128.196 42.1924 128.518 42.0023 128.712 41.973C128.833 41.9548 129.109 42.1924 129.111 42.3189C129.138 43.8561 129.111 45.3943 129.149 46.9305C129.153 47.1065 129.436 47.3523 129.638 47.4251C129.878 47.511 130.194 47.3765 130.431 47.4665C130.638 47.5444 130.929 47.8175 130.914 47.9763C130.894 48.1785 130.606 48.5123 130.428 48.5153C128.138 48.5568 128.138 48.5446 128.138 46.1811C128.138 45.8707 128.138 45.5592 128.138 45.2487C128.148 45.2497 128.157 45.2497 128.165 45.2497Z" fill="#767676"/>
<path d="M147.594 45.2689C147.595 46.261 147.609 47.2531 147.575 48.2432C147.571 48.3565 147.295 48.5537 147.155 48.5446C146.966 48.5325 146.63 48.3595 146.628 48.2523C146.605 46.261 146.613 44.2687 146.657 42.2784C146.66 42.1631 147.017 42.0023 147.226 41.9699C147.33 41.9538 147.573 42.1752 147.576 42.2946C147.606 43.2847 147.593 44.2768 147.594 45.2689Z" fill="#767676"/>
</g>
<g clip-path="url(#clip0)">
<path d="M231.938 18.3745C228.409 18.3745 225.213 20.7943 222.943 25.184C220.923 29.0899 219.809 34.2335 219.809 39.6656C219.809 45.0978 220.923 50.2414 222.943 54.1472C225.213 58.5401 228.409 60.9568 231.938 60.9568C235.468 60.9568 238.663 58.537 240.934 54.1472C242.954 50.2414 244.068 45.0978 244.068 39.6656C244.068 34.2335 242.954 29.0898 240.934 25.184C238.66 20.7943 235.468 18.3745 231.938 18.3745ZM231.938 56.3064C228.396 56.3064 224.449 49.472 224.449 39.6687C224.449 29.8623 228.396 23.0311 231.938 23.0311C235.48 23.0311 239.428 29.8654 239.428 39.6687C239.428 49.472 235.48 56.3064 231.938 56.3064Z" fill="#C8C8C8"/>
<path d="M244.996 133.033L224.378 133.033C215.549 133.033 208.366 125.829 208.366 116.972L208.366 76.3752C208.366 61.8192 206.314 49.9777 234.688 49.9777C261.01 49.9777 261.01 61.8192 261.01 76.3752L261.01 116.972C261.007 125.829 253.824 133.033 244.996 133.033ZM234.688 55.6766C231.134 55.6766 228.254 58.5649 228.254 62.1294C228.254 65.694 231.134 68.5822 234.688 68.5822C238.243 68.5822 241.123 65.694 241.123 62.1294C241.123 58.568 238.24 55.6766 234.688 55.6766Z" fill="#C03632"/>
<path d="M242.246 133.033L221.631 133.033C212.799 133.033 205.616 125.829 205.616 116.972L205.616 76.3752C205.616 61.8192 205.616 49.9777 231.938 49.9777C258.26 49.9777 258.26 61.8192 258.26 76.3752L258.26 116.972C258.257 125.829 251.074 133.033 242.246 133.033ZM231.938 55.6766C228.384 55.6766 225.504 58.5649 225.504 62.1294C225.504 65.694 228.384 68.5822 231.938 68.5822C235.493 68.5822 238.373 65.694 238.373 62.1294C238.373 58.568 235.493 55.6766 231.938 55.6766Z" fill="#FC4842"/>
<path d="M231.938 18.3745C228.409 18.3745 225.213 20.7943 222.943 25.184C220.923 29.0899 219.809 34.2335 219.809 39.6656C219.809 45.0978 220.923 50.2414 222.943 54.1472C225.213 58.5401 228.409 60.9568 231.938 60.9568L231.938 56.3033C228.396 56.3033 224.449 49.4689 224.449 39.6656C224.449 29.8592 228.396 23.0279 231.938 23.0279L231.938 18.3745Z" fill="#C8C8C8"/>
<path d="M249.836 99.8886L214.926 99.8886V115.857L249.836 115.857V99.8886Z" fill="#FC4842"/>
<path d="M249.836 75.9357L214.926 75.9357V99.8886L249.836 99.8886V75.9357Z" fill="#464655"/>
<path d="M244.734 80.7263L243.122 80.7263V95.098L244.734 95.098V80.7263Z" fill="white"/>
<path d="M231.038 82.3231L219.759 82.3231V80.7263L231.038 80.7263V82.3231Z" fill="white"/>
<path d="M231.038 80.7263L229.427 80.7263V88.7106L231.038 88.7106V80.7263Z" fill="white"/>
<path d="M231.038 87.1137L219.759 87.1137V88.7106L231.038 88.7106V87.1137Z" fill="white"/>
<path d="M244.734 87.1137L233.455 87.1137V88.7106L244.734 88.7106V87.1137Z" fill="white"/>
<path d="M221.371 87.1137L219.759 87.1137V95.098L221.371 95.098V87.1137Z" fill="white"/>
<path d="M231.038 93.5011L219.759 93.5011V95.098L231.038 95.098V93.5011Z" fill="white"/>
<path d="M235.066 80.7263L233.455 80.7263V88.7106L235.066 88.7106V80.7263Z" fill="white"/>
<path d="M235.872 103.881L234.261 103.881V110.268L235.872 110.268V103.881Z" fill="white"/>
<path d="M240.706 108.671L234.261 108.671V110.268L240.706 110.268V108.671Z" fill="white"/>
<path d="M240.706 103.881L239.094 103.881V110.268L240.706 110.268V103.881Z" fill="white"/>
<path d="M223.519 106.276L221.908 106.276V107.873L223.519 107.873V106.276Z" fill="white"/>
<path d="M227.01 103.881L225.399 103.881V110.268L227.01 110.268V103.881Z" fill="white"/>
<path d="M230.232 106.276L226.204 106.276V107.873L230.232 107.873V106.276Z" fill="white"/>
<path d="M231.844 103.881L230.232 103.881V110.268L231.844 110.268V103.881Z" fill="white"/>
</g>
<ellipse rx="23.2736" ry="1.85681" transform="matrix(1 0 0 -1 233.545 167.848)" fill="#4193A0" fill-opacity="0.12"/>
<ellipse cx="295.143" cy="181.503" rx="5.58566" ry="5.57043" fill="#EAF6F8"/>
<ellipse cx="284.903" cy="184.521" rx="2.79282" ry="2.55312" fill="#EAF6F8"/>
<defs>
<filter id="filter0_i" x="109.738" y="41.5846" width="41.8924" height="7.42725" filterUnits="userSpaceOnUse" color-interpolation-filters="sRGB">
<feFlood flood-opacity="0" result="BackgroundImageFix"/>
<feBlend mode="normal" in="SourceGraphic" in2="BackgroundImageFix" result="shape"/>
<feColorMatrix in="SourceAlpha" type="matrix" values="0 0 0 0 0 0 0 0 0 0 0 0 0 0 0 0 0 0 127 0" result="hardAlpha"/>
<feOffset dx="-0.5" dy="0.5"/>
<feComposite in2="hardAlpha" operator="arithmetic" k2="-1" k3="1"/>
<feColorMatrix type="matrix" values="0 0 0 0 0 0 0 0 0 0 0 0 0 0 0 0 0 0 0.1 0"/>
<feBlend mode="normal" in2="shape" result="effect1_innerShadow"/>
</filter>
<clipPath id="clip0">
<rect width="55.3911" height="114.658" fill="white" transform="matrix(1 -8.71847e-08 -8.76615e-08 -1 205.616 133.033)"/>
</clipPath>
</defs>
</svg>
