<svg width="35" height="22" viewBox="0 0 35 22" fill="none" xmlns="http://www.w3.org/2000/svg">
<path fill-rule="evenodd" clip-rule="evenodd" d="M22.8216 14.2C21.4176 14.2 20.0453 13.7837 18.8778 13.0037C17.7103 12.2238 16.8001 11.1153 16.2626 9.81819C15.725 8.52113 15.5842 7.09376 15.8578 5.71663C16.1313 4.3395 16.8072 3.07441 17.7997 2.08125C18.7921 1.0881 20.0565 0.41156 21.4334 0.13704C22.8104 -0.137479 24.2381 0.00240225 25.5355 0.539018C26.8329 1.07563 27.9422 1.98488 28.723 3.15181C29.5038 4.31874 29.9207 5.69089 29.9217 7.09493C29.9202 8.46899 29.5211 9.8017 28.7883 10.9393L34.9769 17.1279L32.8559 19.2489L26.6686 13.0616C25.5308 13.7967 24.1971 14.1975 22.8216 14.2ZM22.8216 2.99092C22.0107 2.99092 21.218 3.23145 20.5438 3.68196C19.8696 4.13248 19.3444 4.77275 19.034 5.52193C18.7237 6.2711 18.6424 7.0955 18.8006 7.89082C18.9588 8.68615 19.3493 9.41667 19.9227 9.99007C20.4961 10.5635 21.2265 10.9539 22.0218 11.1121C22.8172 11.2703 23.6418 11.1892 24.391 10.8789C25.1401 10.5685 25.7803 10.0431 26.2308 9.36885C26.6813 8.69461 26.9217 7.90192 26.9217 7.09102C26.9194 6.00436 26.487 4.9628 25.7186 4.19441C24.9502 3.42603 23.9083 2.9933 22.8216 2.99092ZM13 2.10901H0V5.10901H13V2.10901ZM13 10.109H0V13.109H13V10.109ZM0 18.109H23V21.109H0V18.109Z" fill="#FC4842"/>
</svg>
