<svg width="80" height="80" viewBox="0 0 80 80" fill="none" xmlns="http://www.w3.org/2000/svg">
<rect width="80" height="80" fill="#A37D52"/>
<g clip-path="url(#clip0)">
<path d="M46.1189 34.6365C46.7608 36.562 47.386 38.4209 48.0445 40.3797C44.1601 41.8718 40.234 43.5306 35.9578 43.0305C31.5816 42.522 27.2554 41.5967 22.7291 40.8215C22.1873 43.2972 20.0867 43.2472 17.9778 43.0888C16.219 42.9555 14.977 42.0635 14.3351 40.3881C13.5682 38.3792 14.2434 36.7371 16.469 35.2033C17.6194 34.4114 19.9117 34.5114 21.0536 35.4534C21.5871 35.8952 22.1206 36.362 22.5124 36.9204C23.2459 37.9707 24.2212 38.1291 25.4048 38.0708C26.9219 37.9957 28.4557 37.9624 29.9644 38.0708C35.0992 38.4292 40.0506 38.0791 44.4185 34.9282C44.8019 34.6448 45.4521 34.7365 46.1189 34.6365Z" fill="#F3F3F4"/>
<path d="M63.0724 39.0794C60.2133 38.4709 57.3125 37.9375 54.47 37.2206C52.8112 36.8038 51.5776 34.4365 52.036 32.9694C52.8112 30.4854 54.9202 29.0517 56.9624 29.8769C60.6968 31.3856 64.4061 32.9861 68.0571 34.7032C70.1911 35.7035 70.4578 36.3537 69.3992 38.1208C66.6818 42.6304 63.8393 47.0733 60.9802 51.4912C60.2466 52.6165 58.8629 52.3665 58.4211 51.0494C58.2294 50.4743 58.2628 49.6824 58.5045 49.1239C59.9549 45.798 61.5053 42.5137 63.0724 39.0794Z" fill="#F3F3F4"/>
<path d="M37.2235 56.4426C29.1713 56.4426 21.1274 56.4426 13.0751 56.4426C12.2416 56.4426 11.3997 56.4676 10.5828 56.3425C10.3327 56.3009 9.97428 55.7757 9.99929 55.4923C10.016 55.2172 10.4161 54.8671 10.7245 54.7504C11.0996 54.6087 11.5497 54.6754 11.9665 54.6754C28.8962 54.6754 45.8342 54.6671 62.7639 54.6921C63.4891 54.6921 64.7145 54.2336 64.7812 55.4173C64.8729 57.0427 63.4225 56.4092 62.6222 56.4092C54.1532 56.4592 45.6925 56.4426 37.2235 56.4426Z" fill="#F3F3F4"/>
<path d="M42.334 27.5595C42.3507 24.1586 43.4593 22.9833 46.6436 22.9999C49.1109 23.0166 51.3699 25.0922 51.5366 27.4928C51.7033 29.8852 49.1609 32.2775 46.4935 32.2608C43.4177 32.2358 42.3257 31.0022 42.334 27.5595Z" fill="#F3F3F4"/>
<path d="M14.5852 28.1015C16.119 27.9348 17.511 28.8183 17.2693 29.6936C17.0943 30.3354 16.3107 30.8106 15.8022 31.3607C15.2104 30.7439 14.4769 30.202 14.1018 29.4685C13.9267 29.1351 14.4518 28.4349 14.5852 28.1015Z" fill="#F3F3F4"/>
</g>
<defs>
<clipPath id="clip0">
<rect width="60" height="33.5343" fill="white" transform="translate(10 23)"/>
</clipPath>
</defs>
</svg>
