<svg width="80" height="80" viewBox="0 0 80 80" fill="none" xmlns="http://www.w3.org/2000/svg">
<rect width="80" height="80" fill="#A37D52"/>
<g clip-path="url(#clip0)">
<path d="M51.3792 70C51.1928 67.2451 51.3225 64.5793 51.2981 61.9216C51.2819 60.4389 51.4359 58.9399 51.2576 57.4733C51.1766 56.8008 50.6418 55.9338 50.0665 55.6097C48.8268 54.9048 47.4494 54.4348 46.0882 53.9892C44.735 53.5516 43.4629 53.6407 42.5149 54.9615C41.6641 56.1445 40.789 57.3112 39.8329 58.4051C35.9599 62.8858 30.92 65.9567 26.3015 69.5462C25.6776 70.0324 25.2158 70.0567 24.5433 69.5948C23.4575 68.8494 24.2516 68.1283 24.6 67.6259C25.3535 66.5401 26.1476 65.3328 27.2333 64.6522C31.9248 61.711 34.7769 57.2788 37.3616 52.6117C38.0584 51.3477 38.5041 49.9459 39.2252 48.6981C40.5703 46.3646 42.5635 45.7326 44.97 47.029C48.211 48.7711 51.363 50.6752 54.4987 52.6036C54.9686 52.8953 55.4062 53.7137 55.3657 54.2646C55.2522 56.1039 55.4872 57.9027 54.8876 59.7987C54.1098 62.27 54.0206 64.9844 53.7857 67.6016C53.6722 68.9871 53.2266 69.8379 51.3792 70Z" fill="#F3F3F4"/>
<path d="M38.3258 16.1741C38.3745 12.5117 41.1861 9.91887 45.0024 9.99989C48.6 10.0728 51.444 13.2653 51.3387 17.0978C51.2495 20.3064 47.8059 23.8473 44.7998 23.8311C40.6351 23.8068 38.2529 20.9952 38.3258 16.1741ZM43.9329 15.6555C44.184 16.6522 44.338 17.2842 44.5001 17.9243C44.7107 17.7703 44.9619 17.6407 45.124 17.4462C46.0477 16.3281 44.8809 16.2956 43.9329 15.6555Z" fill="#F3F3F4"/>
<path d="M42.7742 24.6658C43.6493 24.6658 44.4433 24.6658 45.1969 24.6658C45.3751 24.917 45.6263 25.1195 45.6425 25.3464C45.9099 28.6442 46.8093 31.8771 46.5257 35.2316C46.4204 36.4794 46.469 37.7029 45.1645 38.3106C43.9896 38.8616 42.2556 38.2296 41.3481 36.8764C41.0078 36.3741 40.6918 35.5638 40.862 35.0533C41.9639 31.788 41.7857 28.3201 42.7742 24.6658Z" fill="#F3F3F4"/>
<path d="M50.4063 35.9933C48.8911 35.9366 47.1328 33.9191 47.3273 32.4606C47.538 30.9049 49.0937 29.4545 50.5441 29.4788C52.3104 29.5031 53.8175 31.0507 53.7689 32.8009C53.7284 34.5835 52.1646 36.0582 50.4063 35.9933Z" fill="#F3F3F4"/>
</g>
<defs>
<clipPath id="clip0">
<rect width="31.3815" height="60" fill="white" transform="translate(24 10)"/>
</clipPath>
</defs>
</svg>
