<svg width="80" height="80" viewBox="0 0 80 80" fill="none" xmlns="http://www.w3.org/2000/svg">
<rect width="80" height="80" fill="#A37D52"/>
<g clip-path="url(#clip0)">
<path d="M15 68.9825C15.9358 68.1194 16.7717 67.0837 17.8346 66.4295C21.0872 64.4216 24.4034 62.5046 27.7468 60.6421C29.7274 59.5337 31.3356 58.4616 31.9079 55.8814C32.5984 52.7741 34.0157 49.8214 35.2241 46.8505C35.7692 45.5058 36.4052 44.1339 37.3137 43.0164C38.6311 41.3901 40.4755 41.3629 42.0109 42.7348C42.8013 43.4343 43.6554 44.1612 44.146 45.0606C46.4718 49.3217 48.725 53.6282 50.8964 57.971C51.3961 58.9704 51.5051 60.1606 51.8958 61.6597C49.361 62.0685 47.1805 62.8499 45.0818 62.6863C37.7317 62.1139 31.0539 64.1582 24.5669 67.2654C22.5863 68.2102 20.5512 69.0734 18.4706 69.782C17.5621 70.0909 16.49 69.9365 15.4997 69.991C15.3452 69.6639 15.1726 69.3187 15 68.9825ZM40.9752 52.438C39.8304 54.7002 38.831 56.6627 37.4682 59.352C40.3119 58.716 42.3107 58.2708 44.6548 57.7439C43.3555 55.8814 42.3016 54.355 40.9752 52.438Z" fill="#F3F3F4"/>
<path d="M27.9384 26.5173C30.873 26.7989 33.3442 27.1442 35.8245 27.235C37.1782 27.2804 38.3503 27.5984 38.75 28.834C39.0953 29.9061 39.2043 31.1872 38.1595 32.1866C37.1692 33.1314 36.3333 34.1217 34.6888 33.5221C32.3721 32.6681 29.9826 32.0139 27.6477 31.2235C25.1128 30.3604 24.4405 29.5154 24.3406 26.9715C24.2679 25.1635 24.3769 23.3465 24.277 21.5476C24.1498 19.2035 24.4133 16.9049 23.532 14.5155C22.5235 11.7717 23.7954 10.1635 26.1758 10.0363C27.3751 9.97275 28.6107 9.86372 29.4102 11.0903C30.1007 12.1442 30.1734 14.8425 29.1377 15.6875C26.9208 17.5045 26.5847 19.3489 27.8566 21.9291C28.3836 23.0012 27.9384 24.5639 27.9384 26.5173Z" fill="#F3F3F4"/>
<path d="M46.3359 35.0939C46.3359 33.3858 46.3359 31.7777 46.3359 29.9333C49.5431 30.7692 51.8599 33.2495 55.2669 32.8498C58.2015 32.5045 61.2087 32.7771 64.8702 32.7771C63.9889 33.9945 63.5891 35.1211 63.0531 35.1938C57.4383 35.9751 51.769 38.5827 46.3359 35.0939Z" fill="#F3F3F4"/>
<path d="M46.145 22.8377C46.0814 25.0273 44.128 27.2168 42.1474 27.3168C40.512 27.4076 37.9499 24.6184 37.959 22.765C37.9681 20.8843 40.5847 18.295 42.2473 18.5312C44.0644 18.7856 46.1904 21.1296 46.145 22.8377Z" fill="#F3F3F4"/>
</g>
<defs>
<clipPath id="clip0">
<rect width="49.8698" height="60" fill="white" transform="translate(15 10)"/>
</clipPath>
</defs>
</svg>
