<svg width="80" height="80" viewBox="0 0 80 80" fill="none" xmlns="http://www.w3.org/2000/svg">
<rect width="80" height="80" fill="#A37D52"/>
<g clip-path="url(#clip0)">
<path d="M10 53.5786C14.0534 51.3117 18.25 49.5673 22.7079 48.5561C27.0562 47.5701 31.4551 46.7611 35.8876 45.8595C35.618 45.16 35.4579 44.5196 35.1376 43.9718C34.4129 42.7246 33.4775 42.3875 31.9944 42.9522C28.7079 44.1909 25.2949 45.0926 22.0253 46.3819C21.0478 46.7611 20.6011 46.3651 20.4494 45.8595C20.2472 45.1769 20.4494 44.3595 20.5674 43.6095C20.5843 43.4999 21.0899 43.4915 21.3258 43.3735C25.3539 41.351 29.3652 39.2696 33.4185 37.2892C35.5927 36.2274 36.2921 36.2527 37.7669 38.0645C39.9157 40.7106 41.9972 43.4662 43.7247 46.3904C45.9326 50.1235 43.7247 54.101 39.486 54.4802C38.6517 54.5561 37.7079 54.7331 36.9831 54.4465C34.809 53.587 32.8371 53.9915 30.8567 54.9774C30.5365 55.1375 30.0478 55.2218 29.7275 55.1038C28.5815 54.6909 27.5028 53.8904 26.3483 53.7808C25.2022 53.6713 23.9972 54.4213 22.8174 54.4381C21.3258 54.4634 19.8343 54.101 18.3343 53.9915C17.7275 53.9493 17.0871 54.0589 16.4888 54.2022C14.5506 54.6656 12.882 54.6151 10 53.5786Z" fill="#F3F3F4"/>
<path d="M48.8066 35.6124C51.9415 32.1657 52.3712 27.1348 56.0201 24C58.8516 24.8596 59.155 27.6826 60.4359 29.6629C61.6578 31.559 62.5089 33.691 63.5538 35.7809C63.2589 35.823 62.8375 36 62.4668 35.9242C61.3544 35.7135 59.2224 35.6629 58.3207 35.9579C57.0651 36.3708 55.9359 36.7163 54.5286 36.0253C53.1634 35.3596 51.5454 34.7781 49.978 35.9242C49.7842 36.0674 49.2364 35.7388 48.8066 35.6124Z" fill="#F3F3F4"/>
<path d="M50.2885 54.5056C47.5161 54.455 46.1088 52.7696 46.193 49.6095C46.2604 47.1825 48.5779 45.0758 51.0891 45.1685C53.3644 45.2443 55.4627 47.646 55.488 50.1994C55.5217 52.8876 53.4908 54.5645 50.2885 54.5056Z" fill="#F3F3F4"/>
<path d="M70.0005 52.8623C68.1297 55.2724 65.9134 54.7247 64.2027 54.3791C61.7336 53.882 59.5173 54.2359 57.2083 54.8173C56.1044 55.0954 55.6241 54.5561 55.978 53.4775C56.433 52.0954 56.9808 50.7387 57.478 49.3904C61.683 50.6123 65.9218 50.8482 70.0005 52.8623Z" fill="#F3F3F4"/>
</g>
<defs>
<clipPath id="clip0">
<rect width="60" height="31.1714" fill="white" transform="translate(10 24)"/>
</clipPath>
</defs>
</svg>
