<svg width="80" height="80" viewBox="0 0 80 80" fill="none" xmlns="http://www.w3.org/2000/svg">
<rect width="80" height="80" fill="#A37D52"/>
<g clip-path="url(#clip0)">
<path d="M25.3841 55.6367C21.7699 53.0993 18.4179 50.7772 15.1032 48.4083C13.7362 47.4345 12.313 46.4982 11.1238 45.3277C9.51336 43.736 9.71935 40.2903 11.1613 38.5862C12.3504 37.1817 13.7643 37.0319 15.3373 37.5C18.371 38.4176 23.9047 38.5487 27.1257 37.6873C27.2662 37.6498 27.3973 37.4251 27.5096 37.4439C32.5283 38.2866 36.6201 35.4963 41.0489 34.0356C41.6201 33.8483 42.2006 33.633 42.7811 33.5862C47.0602 33.2304 51.4703 33.4645 55.5714 32.4251C59.4665 31.442 63.5489 32.5656 67.2755 30.8146C67.7811 30.5806 68.577 30.618 69.1014 30.8427C69.5227 31.0206 69.9815 31.6761 69.9909 32.1255C70.0002 32.5843 69.4946 33.0712 69.1763 33.5113C69.1201 33.5955 68.8767 33.5487 68.7268 33.5581C64.607 33.8858 60.4778 34.148 56.3673 34.5693C53.9609 34.8221 51.5826 35.3371 48.9984 35.7678C47.0695 39.2135 44.9253 42.8746 42.9591 46.6292C41.8167 48.8203 40.2531 49.8689 37.7718 49.4944C36.0302 49.2322 33.9422 50.2248 32.8092 48.2023C33.7081 46.9101 34.5695 45.6555 35.4497 44.4195C36.077 43.5394 36.6576 42.6311 37.9403 43.6985C38.1276 43.8483 39.1107 43.3708 39.4478 42.9588C40.8804 41.2266 42.2006 39.4008 43.6613 37.5C39.7755 36.7042 37.4722 38.9982 35.5433 41.6292C33.1276 44.9251 31.0302 48.4551 28.6987 51.8165C27.828 53.1086 26.6763 54.1761 25.3841 55.6367ZM24.6257 46.9757C27.8561 44.6536 27.8467 44.6349 28.7737 42.1349C26.7605 42.9401 24.9534 43.6704 22.2474 44.7566C23.4459 45.8708 24.0733 46.4513 24.6257 46.9757Z" fill="#F3F3F4"/>
<path d="M25.2154 36.4327C21.7697 36.4701 19.4851 34.2323 19.4757 30.8147C19.457 27.3596 21.7323 25.3559 25.1218 25.0188C27.9682 24.7379 30.206 27.1817 30.6742 30.4963C31.1143 33.6143 28.3427 36.3952 25.2154 36.4327Z" fill="#F3F3F4"/>
</g>
<defs>
<clipPath id="clip0">
<rect width="60" height="30.6367" fill="white" transform="translate(10 25)"/>
</clipPath>
</defs>
</svg>
