<svg width="80" height="80" viewBox="0 0 80 80" fill="none" xmlns="http://www.w3.org/2000/svg">
<rect width="80" height="80" fill="#A37D52"/>
<g clip-path="url(#clip0)">
<path d="M37.3742 48.9802C37.0197 48.8958 36.0996 48.6173 35.1626 48.4907C34.5633 48.4062 33.9302 48.5244 33.314 48.592C33.0523 48.6257 32.7991 48.879 32.5543 48.8621C30.1232 48.7017 27.6162 48.0433 25.2949 48.44C22.7878 48.8705 20.4665 49.2588 18.0354 48.3134C17.6303 48.153 17.0478 48.4822 16.5413 48.516C14.6168 48.651 12.6837 48.7777 10.7507 48.8283C10.4975 48.8368 10.0332 48.3894 9.99942 48.1192C9.9741 47.8407 10.3033 47.3427 10.5819 47.2414C14.1525 45.9499 17.6134 44.4136 21.3444 43.4682C25.3286 42.4637 29.22 41.1637 33.3815 41.2566C34.4704 41.2819 35.5087 41.0877 35.8041 40.0495C36.108 39.0112 34.0653 36.96 32.9426 37.0951C32.0141 37.2048 31.1277 37.61 30.233 37.9223C27.4136 38.893 24.7293 40.2267 21.7749 40.8851C20.7704 41.1131 20.4918 40.5728 20.2386 40.117C20.0529 39.7794 20.2048 38.9943 20.5003 38.6989C21.1756 38.032 21.969 37.4496 22.8132 37.0191C26.2234 35.2549 29.6505 33.516 33.1114 31.8531C35.7704 30.57 36.2009 30.6122 38.1086 32.8576C39.8812 34.951 41.5104 37.1879 43.0467 39.467C44.3804 41.4423 45.2498 43.4091 43.8402 45.9921C42.4558 48.5497 40.4046 48.8874 37.3742 48.9802Z" fill="#F3F3F4"/>
<path d="M50.6358 48.9292C47.4704 48.9039 46.0269 47.3169 46.1367 43.9742C46.2126 41.7457 48.4327 39.6101 50.7034 39.5679C53.2188 39.5257 55.5233 42.0243 55.4473 44.717C55.3798 47.6039 53.835 48.9545 50.6358 48.9292Z" fill="#F3F3F4"/>
<path d="M69.9992 47.4773C67.6778 49.748 65.1539 49.0558 62.9845 48.735C61.769 48.5578 60.8742 48.3383 59.6418 48.7941C58.5445 49.1993 57.1854 48.8785 55.666 48.8785C56.2738 47.2156 56.8393 45.6793 57.5315 43.8223C61.3891 45.4008 65.863 44.9703 69.9992 47.4773Z" fill="#F3F3F4"/>
</g>
<defs>
<clipPath id="clip0">
<rect width="60" height="18.081" fill="white" transform="translate(10 31)"/>
</clipPath>
</defs>
</svg>
