<svg width="30" height="30" viewBox="0 0 30 30" fill="none" xmlns="http://www.w3.org/2000/svg">
<path d="M27.4697 1H2.53035C1.68392 1 1 1.68375 1 2.52998V27.47C1 28.3162 1.68392 29 2.53035 29H27.4697C28.3161 29 29 28.3162 29 27.47V2.52998C29 1.68375 28.3161 1 27.4697 1ZM15.9311 20.9981H11.0827V22.5348C11.0827 23.1576 10.6426 23.4081 10.1008 23.0967L4.3925 19.353C3.85756 19.0416 3.85756 18.5338 4.3925 18.2224L10.1076 14.4923C10.6426 14.1809 11.0827 14.4381 11.0827 15.0542V16.5909H15.9243V20.9981H15.9311ZM25.6075 11.7708L19.8924 15.501C19.3574 15.8124 18.9173 15.5551 18.9173 14.9323V13.3956H14.0689V8.99516H18.9173V7.45841C18.9173 6.83559 19.3574 6.58511 19.8992 6.89652L25.6075 10.6402C26.1424 10.9516 26.1424 11.4594 25.6075 11.7708Z" fill="white"/>
</svg>
