<svg width="30" height="23" viewBox="0 0 30 23" fill="none" xmlns="http://www.w3.org/2000/svg">
<path d="M27.861 5.33851L27.8601 5.33807L19.9448 1.54901L19.5731 1.37106L19.3274 1.702C18.6427 2.62455 16.9967 3.375 15.0203 3.375C13.0015 3.375 11.3565 2.62347 10.6726 1.702L10.4269 1.37106L10.0552 1.54901L2.13986 5.33807L2.13895 5.33851C1.58221 5.60639 1.31935 6.3009 1.63289 6.84956L3.94081 11.3305L3.94164 11.3321C4.24098 11.9082 4.95196 12.0869 5.49513 11.8256L7.75791 10.7368C7.88821 10.6839 7.98506 10.7789 7.98506 10.8672V20.75C7.98506 21.7571 8.84643 22.5 9.78399 22.5H20.1754C21.1639 22.5 21.9743 21.7472 21.9743 20.75V10.8672C21.9743 10.8322 21.9928 10.7868 22.0508 10.7511C22.1114 10.7139 22.1643 10.7189 22.1912 10.7318L22.1943 10.7333L24.5049 11.8256C24.5055 11.8258 24.5061 11.8261 24.5066 11.8264C25.0496 12.0865 25.7594 11.9076 26.0584 11.3321L26.0592 11.3305L28.3671 6.84957C28.6807 6.30092 28.4178 5.6064 27.861 5.33851Z" fill="#E1E1E4" stroke="#E1E1E4"/>
</svg>
