<svg width="80" height="80" viewBox="0 0 80 80" fill="none" xmlns="http://www.w3.org/2000/svg">
<rect width="80" height="80" fill="#A37D52"/>
<g clip-path="url(#clip0)">
<path d="M39.9352 17C43.9675 23.5448 47.6198 29.3557 51.1512 35.2444C53.3789 38.9657 55.3303 42.8598 57.5925 46.564C59.3798 49.4996 61.452 52.254 63.3947 55.0947C65.1216 57.6159 67.3838 57.8922 70 56.3553C70.1209 60.3444 68.4631 62.6325 65.113 62.4425C61.9442 62.2612 58.8099 62.4943 55.6929 62.3734C53.3789 62.2871 51.1599 61.5014 48.8113 62.477C48.1379 62.7533 47.0586 62.5289 46.3592 62.1662C45.0986 61.5014 43.9675 61.4755 42.7155 62.0626C40.4792 63.1246 38.3206 61.8036 36.2052 61.8208C34.2193 61.8381 31.9571 63.2887 30.1094 62.1835C27.899 60.8624 26.3103 62.7361 24.428 62.5289C22.632 62.3303 20.767 61.51 19.092 61.8208C13.3156 62.8915 12.9098 62.8483 10 57.7627C10.6476 57.0633 11.0189 56.3985 12.4176 56.7179C14.5676 57.2015 16.9161 57.2619 19.1006 56.9511C20.2231 56.7957 21.121 56.3208 22.2608 56.9856C22.6493 57.2101 23.6854 56.8993 24.0394 56.5021C25.1533 55.2415 26.1462 53.86 27.0787 52.4439C28.3825 50.458 29.1337 47.7123 30.9383 46.5812C32.8983 45.3552 35.7821 45.5451 38.2775 45.2429C39.5553 45.0875 40.8678 45.217 42.1543 45.1825C43.5617 45.1479 44.2524 45.9768 44.4337 47.2202C44.7877 49.7241 45.1245 52.2367 45.3058 54.7579C45.4008 56.0531 45.7289 57.1928 47.0931 57.2274C51.6434 57.331 56.2023 57.3051 60.9339 57.2446C58.7149 52.5562 56.7808 48.2477 54.6395 44.0427C53.8452 42.4799 52.5327 41.5301 50.4346 41.7374C46.765 42.1086 43.0954 41.7892 39.5467 40.6149C39.5381 38.8708 39.5726 38.6895 40.4878 36.5913C43.5271 39.3198 47.4385 39.0089 51.4966 39.7169C48.2933 32.9476 43.9502 26.9554 40.5396 20.2292C38.3983 22.6469 37.7767 25.6861 36.7319 28.4923C36.2052 29.9083 36.2657 31.5489 35.7217 32.9649C35.3159 34.0269 35.2554 35.4084 33.6926 35.8919C32.3457 36.315 30.6447 35.8142 30.6361 34.5277C30.6274 33.4398 30.7397 32.2137 31.2405 31.2898C33.1659 27.7152 35.2554 24.2183 37.3277 20.7214C38.0357 19.573 38.8819 18.5024 39.9352 17ZM29.6949 56.7438C32.0176 58.2549 33.943 56.5107 35.9721 56.433C38.1825 56.3467 40.2202 58.2462 42.5687 56.8906C42.6119 56.5194 42.8277 56.0358 42.681 55.7164C41.8175 53.8427 42.4392 51.4942 40.8159 49.8709C38.9941 50.3976 37.1032 50.743 35.3763 51.4855C32.8983 52.5476 30.9469 54.2917 29.6949 56.7438Z" fill="#F3F3F4"/>
<path d="M42.232 34.9162C41.3772 34.9162 40.5224 35.0112 39.6935 34.899C37.8457 34.6399 36.8528 32.8181 37.5435 31.0912C38.0789 29.7443 40.272 28.4578 41.2908 28.8722C43.0177 29.5802 43.7689 31.4884 43.0177 33.3189C42.8105 33.8283 42.5342 34.3032 42.232 34.9162Z" fill="#F3F3F4"/>
</g>
<defs>
<clipPath id="clip0">
<rect width="60" height="45.5979" fill="white" transform="translate(10 17)"/>
</clipPath>
</defs>
</svg>
