<svg width="80" height="80" viewBox="0 0 80 80" fill="none" xmlns="http://www.w3.org/2000/svg">
<rect width="80" height="80" fill="#A37D52"/>
<g clip-path="url(#clip0)">
<path d="M39.2665 37.7586C38.8611 36.0917 38.4706 34.515 37.9901 32.5553C41.1436 30.115 44.4098 27.5246 47.7736 25.0768C48.2692 24.7164 49.1852 23.5151 49.906 24.7615C50.1538 25.1895 49.8159 26.2707 49.3879 26.7062C47.661 28.4782 45.8664 30.1901 43.9668 31.7894C42.3975 33.1109 42.1122 33.6515 42.8781 35.5136C43.7566 37.6385 44.545 39.8234 45.6487 41.8207C46.2419 42.9019 46.392 43.9231 46.2719 45.0118C46.0767 46.7387 43.9968 47.7223 42.4876 46.8138C41.7593 46.3783 41.1211 45.7776 40.4979 45.1845C39.3191 44.0657 38.1928 42.8944 37.0365 41.7606C35.1144 39.8685 33.1321 38.2091 33.1471 34.9955C33.1547 32.2474 31.8482 29.5669 31.9983 26.7287C32.0134 26.4209 32.2987 26.1205 32.4564 25.8202C32.8093 26.0529 33.3799 26.2031 33.4925 26.5185C34.2959 28.786 35.0092 31.0911 35.7601 33.3812C35.9478 33.9518 36.1355 34.53 36.3382 35.0931C36.9614 36.8276 36.9614 36.8276 39.2665 37.7586Z" fill="#F3F3F4"/>
<path d="M22.4995 30.3179C21.8763 30.3179 21.3658 30.2503 20.8777 30.3329C18.8204 30.6633 17.4539 29.6346 16.0047 28.2981C12.0027 24.619 14.5556 18.447 18.7754 16.9529C22.049 15.7966 26.494 18.83 26.8094 22.3064C27.0872 25.3548 26.3589 27.9377 23.8436 29.7848C24.5869 31.1739 25.533 32.3977 25.8934 33.7793C26.3814 35.6564 26.5616 37.4359 29.2196 37.1281C29.6326 37.083 30.1657 37.8564 30.6087 38.2919C31.7725 39.4181 32.8462 40.6495 34.0851 41.6932C36.4803 43.728 36.7205 46.8215 37.997 49.4044C38.1997 49.8098 38.0645 50.388 38.0495 50.8835C38.012 52.0549 37.3663 52.7006 36.2325 52.8207C35.2113 52.9258 34.5581 52.2876 34.2803 51.4317C33.9199 50.2904 33.4393 49.044 33.5595 47.9102C33.9499 44.2761 31.1793 42.4591 29.3472 40.1164C28.9718 39.6434 28.1008 39.4256 27.4251 39.3506C26.5992 39.2605 26.1787 39.0803 25.8483 38.1943C24.8722 35.6038 23.6934 33.0885 22.4995 30.3179ZM23.2279 28.1705C25.3227 25.2122 25.5104 24.8668 25.2176 22.7719C25.0824 21.8409 24.7896 20.7972 24.2115 20.0914C22.9726 18.5747 19.7815 18.1467 18.2498 19.0853C16.0498 20.4293 14.916 23.0572 15.9447 25.032C16.6054 26.3009 17.589 27.5097 18.7003 28.4032C19.2934 28.8763 20.4723 28.6285 21.7412 28.7261C21.3583 27.6224 21.1555 26.9466 20.9078 26.2934C20.6074 25.4975 20.1794 24.7391 19.9992 23.9282C19.9317 23.6279 20.4122 23.2074 20.645 22.847C20.9153 23.0272 21.3357 23.1548 21.4409 23.4026C22.034 24.8518 22.5521 26.3384 23.2279 28.1705Z" fill="#F3F3F4"/>
<path d="M58.6296 45.3048C56.8801 51.8672 53.6289 57.3108 48.9136 61.6883C44.4011 65.878 39.1226 68.8889 32.7404 69.3919C31.922 69.4595 31.1186 70.0302 30.3152 70.0076C29.6845 69.9926 29.0763 69.422 28.4531 69.0916C28.9412 68.6561 29.4142 67.8752 29.9248 67.8527C32.6203 67.7251 35.2483 67.1469 37.7336 66.2459C43.027 64.3237 47.3143 60.9825 50.8058 56.4999C53.5464 52.9785 55.5211 49.1341 56.7299 44.8844C57.0978 43.6004 57.706 42.9997 59.035 43.0298C60.6568 43.0673 62.2787 43.0073 63.9005 43.0523C64.6814 43.0748 65.7476 42.6619 65.8302 44.0885C65.9128 45.4925 64.9292 45.3048 64.0732 45.3123C62.3312 45.3123 60.5818 45.3048 58.6296 45.3048Z" fill="#F3F3F4"/>
<path d="M50.0623 17.3958C50.0173 21.3302 46.8562 24.4162 42.9894 24.3036C39.4829 24.206 36.5321 20.9623 36.5021 17.1781C36.4795 13.7993 40.3013 9.85732 43.4624 9.99998C47.2842 10.1802 50.1149 13.3487 50.0623 17.3958ZM48.5156 17.6661C48.5681 14.4375 46.2781 11.7119 43.4173 11.5918C41.4051 11.5017 38.0338 15.0231 38.0563 17.1856C38.0863 20.219 40.6692 22.7718 43.6876 22.7493C45.9627 22.7343 48.4705 20.0838 48.5156 17.6661Z" fill="#F3F3F4"/>
<path d="M28.6716 53.5491C27.6955 52.8658 26.7419 52.3102 25.916 51.6044C24.9399 50.7634 25.045 49.6147 25.473 48.556C25.6232 48.188 26.3815 47.67 26.4566 47.73C28.6791 49.517 29.4299 47.0618 30.7514 46.2884C30.819 46.2509 30.9316 46.2809 31.0217 46.2809C31.0367 47.8652 31.0367 47.8652 29.1596 49.3744C30.0832 49.7949 30.9767 50.1928 32.3207 50.801C30.8941 51.8747 29.7903 52.7081 28.6716 53.5491Z" fill="#F3F3F4"/>
</g>
<defs>
<clipPath id="clip0">
<rect width="51.8383" height="60" fill="white" transform="translate(14 10)"/>
</clipPath>
</defs>
</svg>
