<svg width="80" height="80" viewBox="0 0 80 80" fill="none" xmlns="http://www.w3.org/2000/svg">
<rect width="80" height="80" fill="#A37D52"/>
<g clip-path="url(#clip0)">
<path d="M33.7696 70.0001C33.3068 68.5934 32.8533 67.7326 32.7793 66.8349C32.7238 66.15 33.2791 65.4282 33.3253 64.7063C33.6955 58.7923 33.9084 52.8599 34.3526 46.946C34.8061 40.921 35.8612 34.9423 39.9704 30.2315C42.3304 27.529 45.3198 25.3356 48.1518 23.0681C53.1032 19.107 58.1472 15.2569 63.1449 11.3606C63.2652 11.268 63.3762 11.1477 63.478 11.0367C64.2555 10.1574 65.3198 9.59289 66.273 10.3518C67.2356 11.12 66.9116 12.2028 66.0972 13.1375C64.709 14.7294 63.4595 16.4601 62.0158 18.0057C56.907 23.4939 51.752 28.9358 46.6062 34.3962C43.5243 37.6725 42.1916 41.865 40.9422 45.9834C39.6465 50.2407 38.9801 54.6924 38.0361 59.0515C37.4068 61.9575 36.87 64.9006 36.0833 67.7697C35.889 68.4823 34.8802 68.9636 33.7696 70.0001Z" fill="#F3F3F4"/>
<path d="M50.2153 11.9805C49.8729 12.4433 49.6785 12.8875 49.3453 13.1282C48.6234 13.6464 47.8275 14.0907 47.0501 14.5349C42.3671 17.2004 37.6563 19.8288 33.3435 23.0958C32.8622 23.4567 32.3347 23.7992 31.7701 23.9843C30.2338 24.484 28.2717 23.6881 27.8368 22.4664C27.3555 21.1245 27.9663 19.1532 29.3268 18.5053C31.8904 17.3022 34.5096 16.2193 37.1473 15.1828C40.5994 13.8315 44.0885 12.5636 47.5776 11.3049C48.1237 11.1106 48.7623 11.0088 49.3361 11.0828C49.6415 11.1198 49.8821 11.6196 50.2153 11.9805Z" fill="#F3F3F4"/>
<path d="M19.2293 34.4978C20.1178 32.4432 20.8582 30.7218 21.6726 28.8245C23.0423 29.8611 24.4121 30.8884 25.9762 32.073C25.643 33.5353 24.7545 34.831 23.6532 36.0711C22.5611 37.3021 21.6818 38.7273 20.599 39.9675C19.5069 41.2169 18.202 40.8837 17.6189 39.2919C16.5546 36.3766 15.5088 33.452 14.463 30.5274C14.2779 29.9721 14.0187 29.4076 14.0002 28.843C13.991 28.4821 14.2779 27.9083 14.574 27.7879C14.898 27.6676 15.4903 27.8435 15.7679 28.1026C16.1936 28.5006 16.4806 29.0559 16.7582 29.5834C17.5171 31.0364 18.239 32.5172 19.2293 34.4978Z" fill="#F3F3F4"/>
<path d="M39.3304 28.1213C37.4239 31.3236 35.7395 34.1371 33.8885 37.2467C32.8704 36.5249 32.056 35.9233 31.2323 35.3587C28.1411 33.2671 28.0486 32.8414 30.0384 29.6947C30.5197 28.9358 31.0657 28.2139 31.5377 27.4457C32.0097 26.6776 32.4262 25.8816 33.0926 24.6877C35.1009 25.7983 37.1185 26.8997 39.3304 28.1213Z" fill="#F3F3F4"/>
<path d="M20.7467 22.161C22.3941 23.5307 23.5972 24.521 24.8189 25.5298C23.5139 27.5196 21.339 27.2605 19.9138 26.4646C17.1373 24.9282 16.2395 22.1518 16.8133 18.9773C21.3205 16.0805 21.3205 16.0805 24.3376 19.3197C23.3288 20.1249 22.3386 20.9116 20.7467 22.161Z" fill="#F3F3F4"/>
</g>
<defs>
<clipPath id="clip0">
<rect width="52.8459" height="60" fill="white" transform="translate(14 10)"/>
</clipPath>
</defs>
</svg>
