<svg width="30" height="18" viewBox="0 0 30 18" fill="none" xmlns="http://www.w3.org/2000/svg">
<path fill-rule="evenodd" clip-rule="evenodd" d="M1 16.7403C1.02614 16.4446 1.04204 16.1456 1.08614 15.8515C1.3024 14.3304 1.77188 12.8563 2.47482 11.4901C3.71167 9.08529 5.63198 7.09997 7.99442 5.78403C8.02872 5.76116 8.06342 5.7383 8.11406 5.70726L7.96331 5.43766C7.2489 4.20161 6.53549 2.96775 5.82327 1.73606C5.77 1.66636 5.73635 1.58368 5.72596 1.49657C5.71557 1.40946 5.72886 1.3212 5.76424 1.24093C5.79962 1.16066 5.85645 1.09123 5.92776 1.04013C5.99906 0.989024 6.08205 0.958103 6.16944 0.950393C6.26138 0.935828 6.35623 0.949946 6.43984 0.990873C6.52344 1.0318 6.59196 1.09757 6.63685 1.17911C6.87862 1.5924 7.11538 2.0073 7.35551 2.42222C7.88152 3.33047 8.40701 4.23988 8.93083 5.15031C8.98311 5.24506 9.02976 5.26302 9.13104 5.21891C10.3756 4.65902 11.6978 4.28899 13.0522 4.12117C13.5275 4.0591 14.0108 4.02631 14.4927 4.00671C16.0175 3.936 17.5437 4.11985 19.0081 4.5507C19.6321 4.73529 20.2413 4.98359 20.8506 5.21392C20.9633 5.2564 21.0136 5.23999 21.0692 5.14034C21.8184 3.83351 22.571 2.52683 23.3257 1.21999C23.3703 1.12994 23.4402 1.05519 23.5275 1.00543C23.6148 0.955665 23.7152 0.93311 23.8154 0.940622C23.9163 0.950542 24.0115 0.991457 24.0882 1.05787C24.1649 1.12429 24.2195 1.21282 24.2437 1.31132C24.2606 1.37772 24.2632 1.44699 24.2517 1.51452C24.2402 1.58205 24.2147 1.64632 24.1767 1.70336L22.339 4.8857C22.205 5.12093 22.071 5.3527 21.9338 5.58303C21.8815 5.66961 21.8812 5.71712 21.9793 5.77266C23.2692 6.48254 24.4326 7.40092 25.4226 8.49079C27.1564 10.3702 28.3244 12.7009 28.7926 15.2146C28.8874 15.7161 28.9314 16.2289 29 16.7353L1 16.7403ZM8.54797 9.30596C7.94427 9.31028 7.36691 9.55313 6.94154 9.98156C6.51618 10.41 6.2779 10.9892 6.27792 11.593C6.27792 12.1947 6.51682 12.7719 6.94234 13.1974C7.36786 13.6229 7.9446 13.862 8.54638 13.862C9.14815 13.862 9.72569 13.6229 10.1512 13.1974C10.5767 12.7719 10.8156 12.1947 10.8156 11.593C10.8157 10.9898 10.5775 10.4111 10.1528 9.98275C9.72814 9.55442 9.15111 9.31113 8.54797 9.30596ZM21.1266 9.30596C20.5226 9.30985 19.9443 9.55249 19.5186 9.98096C19.0929 10.4094 18.8541 10.989 18.8541 11.593C18.8541 12.1947 19.0931 12.7719 19.5186 13.1974C19.9441 13.6229 20.5216 13.862 21.1234 13.862C21.7252 13.862 22.3019 13.6229 22.7274 13.1974C23.153 12.7719 23.3927 12.1947 23.3927 11.593C23.3927 10.989 23.1532 10.4094 22.7274 9.98096C22.3017 9.55249 21.7242 9.30985 21.1202 9.30596H21.1266Z" fill="#6B6B76" stroke="#6B6B76" stroke-width="1.29" stroke-miterlimit="10"/>
</svg>
