<svg width="80" height="80" viewBox="0 0 80 80" fill="none" xmlns="http://www.w3.org/2000/svg">
<rect width="80" height="80" fill="#A37D52"/>
<g clip-path="url(#clip0)">
<path d="M58.9451 57.6985C58.4175 57.8157 57.7895 57.7906 57.3959 58.0753C56.1147 59.0216 56.0979 59.8925 57.354 60.6378C59.9165 62.1535 62.5376 63.5603 65.1084 65.0593C66.1552 65.6706 67.1265 66.3991 68.1566 67.1026C67.4029 68.2163 66.9423 69.0704 65.5104 68.1158C62.2445 65.9469 58.8195 64.0209 55.5285 61.8939C54.0714 60.956 52.7818 60.8471 51.4336 61.9274C49.248 63.6776 46.4259 64.582 44.6925 66.9434L44.7092 66.9267C42.6911 67.2114 40.6813 67.605 38.6548 67.7306C37.7672 67.7892 36.7958 67.4208 35.95 67.0523C35.4224 66.8262 34.652 66.1647 34.7023 65.8129C34.8111 65.0928 35.3471 64.3977 35.8411 63.8116C36.0421 63.5687 36.6283 63.6859 37.0051 63.552C38.7051 62.9239 39.8188 61.852 39.6681 59.8674C39.6346 59.4487 39.5341 58.9546 39.7099 58.628C40.3715 57.3803 41.0749 55.8981 40.1454 54.8011C39.4755 54.0056 37.9179 53.9972 36.8376 53.478C31.6709 51.016 25.9681 50.3963 20.5836 48.6629C18.2891 47.926 15.7351 47.9595 13.2982 47.7501C12.1426 47.6497 11.7825 47.0049 12.1007 46.1256C12.2515 45.6901 13.1307 45.1542 13.5662 45.2379C21.89 46.8876 30.2556 48.3782 38.2026 51.5268C39.0316 51.8534 40.0282 51.7697 41.3429 51.9204C40.8069 48.4954 42.1217 45.8995 43.8132 43.3454C45.0861 41.4194 46.0826 39.3007 47.0372 37.1905C47.5229 36.1186 48.084 35.4487 49.2229 34.963C51.3834 34.0418 53.6611 35.2226 53.9709 37.5171C54.1719 39.016 53.5187 40.2303 52.8907 41.4026C52.3799 42.3573 51.4336 43.0691 50.6632 43.9065C52.7148 46.3433 54.7497 48.7634 56.7009 51.0914C60.6785 49.6678 60.6785 49.6678 63.174 52.8416C61.7672 54.4577 60.3436 56.1074 58.92 57.7487L58.9451 57.6985ZM44.7595 53.7711C48.017 56.8276 50.9144 55.6552 53.234 53.4277C51.4503 51.5603 49.6667 49.6845 47.7741 47.6999C45.8314 49.1486 44.4496 51.0244 44.7595 53.7711ZM44.2235 56.233C44.391 57.2965 42.3561 57.9665 43.7127 59.6162C44.6339 58.7871 45.4545 58.0502 46.3506 57.2463C45.4462 56.8192 44.8349 56.5261 44.2235 56.233Z" fill="#F3F3F4"/>
<path d="M66.2554 31.4124C64.7313 31.5632 63.6427 32.0321 62.9979 31.6804C58.0739 29.0258 52.7732 29.1682 47.4473 29.2603C45.3621 29.2938 44.7759 28.5485 44.6503 26.5973C44.4829 23.8507 45.7557 22.7285 48.5359 23.4738C52.0027 24.4034 55.6873 24.6797 58.8862 26.6392C60.3517 27.5352 62.1688 27.8451 63.6761 28.6825C64.5387 29.1598 65.1081 30.1647 66.2554 31.4124Z" fill="#F3F3F4"/>
<path d="M41.3591 21.7069C41.1414 18.5583 38.2775 17.0007 37.0046 14.4885C36.5189 13.5339 35.8071 12.6797 35.1623 11.8172C34.7018 11.2059 34.3501 10.4941 35.1707 10.1173C35.6732 9.89116 36.6445 10.0084 37.0549 10.3685C38.6124 11.7418 40.1449 13.1822 41.4764 14.7648C43.2182 16.8332 44.7674 19.0691 46.752 21.6902C44.6166 21.6902 42.9753 21.6902 41.3424 21.6902L41.3591 21.7069Z" fill="#F3F3F4"/>
<path d="M41.3513 21.6985C41.2508 23.3482 43.0429 24.8221 41.4518 26.6978C40.2125 28.1633 38.8977 28.9253 36.4609 28.4062C35.1462 28.1298 34.6437 27.2673 34.6019 25.2073C34.5265 21.3971 36.3437 20.208 40.1204 21.5729C40.4972 21.7069 40.941 21.665 41.3513 21.7069V21.6985Z" fill="#F3F3F4"/>
<path d="M58.9278 57.7152C59.7736 57.866 61.0381 57.1207 61.3479 58.3852C61.5321 59.1221 60.9878 60.0432 60.7617 60.9225C58.5677 60.3949 58.9446 58.9546 58.9446 57.6985L58.9278 57.7152Z" fill="#F3F3F4"/>
<path d="M44.692 66.9267C45.2363 66.9184 45.8894 66.7174 46.283 66.9602C46.7268 67.2366 47.2209 67.9232 47.179 68.3838C47.1288 68.9532 46.5426 69.4641 46.1825 70C45.7052 69.6399 45.0018 69.3803 44.7924 68.903C44.5496 68.3336 44.7171 67.5799 44.7087 66.91L44.692 66.9267Z" fill="#F3F3F4"/>
</g>
<defs>
<clipPath id="clip0">
<rect width="56.1647" height="60" fill="white" transform="translate(12 10)"/>
</clipPath>
</defs>
</svg>
