<svg width="44" height="44" viewBox="0 0 44 44" fill="none" xmlns="http://www.w3.org/2000/svg">
<rect width="44" height="44" fill="white"/>
<path fill-rule="evenodd" clip-rule="evenodd" d="M44 0H0V44H44V0ZM7.12076 28.1701C5.30136 26.4169 4.4 24.3602 4.4 22C4.4 19.6567 5.30136 17.6 7.12076 15.8467C8.92348 14.0935 11.0934 13.2 13.6306 13.2C14.5152 13.2 15.3665 13.3349 16.2011 13.5709C17.019 13.8069 17.7034 14.0935 18.2375 14.4307C18.7716 14.7678 19.239 15.0881 19.6563 15.4253C20.0569 15.7625 20.3574 16.0659 20.541 16.3019L20.808 16.6559L17.4029 20.2805C17.3028 20.1456 17.1692 19.977 17.0023 19.7747C16.8354 19.5724 16.4515 19.2858 15.8506 18.9149C15.2497 18.5609 14.6321 18.3755 13.9811 18.3755C12.9462 18.3755 12.0949 18.7295 11.4106 19.4207C10.7262 20.1119 10.3924 20.9716 10.3924 22C10.3924 23.0452 10.7262 23.905 11.4106 24.5962C12.0949 25.2874 12.9462 25.6245 13.9811 25.6245C14.6321 25.6245 15.2497 25.4728 15.8172 25.1525C16.3847 24.8322 16.802 24.5119 17.0524 24.1747L17.4029 23.7364L20.808 27.3609C20.7755 27.4102 20.7351 27.4634 20.6887 27.5245L20.6887 27.5245L20.6885 27.5248C20.6397 27.5891 20.5842 27.6623 20.5243 27.7487C20.3907 27.9172 20.107 28.187 19.673 28.5747C19.2223 28.9625 18.7383 29.2996 18.2375 29.6031C17.7201 29.9065 17.0524 30.1762 16.2178 30.4291C15.3832 30.682 14.5152 30.8 13.6306 30.8C11.0934 30.8 8.92348 29.9234 7.12076 28.1701ZM25.9127 28.1701C24.0933 26.4169 23.192 24.3602 23.192 22C23.192 19.6567 24.0933 17.6 25.9127 15.8467C27.7154 14.0935 29.8854 13.2 32.4225 13.2C33.3072 13.2 34.1585 13.3349 34.9931 13.5709C35.811 13.8069 36.4953 14.0935 37.0295 14.4307C37.5636 14.7678 38.031 15.0881 38.4483 15.4253C38.8489 15.7625 39.1493 16.0659 39.3329 16.3019L39.6 16.6559L36.1949 20.2805C36.0947 20.1456 35.9612 19.977 35.7943 19.7747C35.6273 19.5724 35.2434 19.2858 34.6425 18.9149C34.0416 18.5609 33.424 18.3755 32.773 18.3755C31.7382 18.3755 30.8869 18.7295 30.2025 19.4207C29.5182 20.1119 29.1843 20.9716 29.1843 22C29.1843 23.0452 29.5182 23.905 30.2025 24.5962C30.8869 25.2874 31.7382 25.6245 32.773 25.6245C33.424 25.6245 34.0416 25.4728 34.6091 25.1525C35.1767 24.8322 35.594 24.5119 35.8443 24.1747L36.1949 23.7364L39.6 27.3609C39.5675 27.4102 39.5271 27.4634 39.4807 27.5245L39.4807 27.5245C39.4318 27.589 39.3762 27.6622 39.3162 27.7487C39.1827 27.9172 38.8989 28.187 38.465 28.5747C38.0143 28.9625 37.5302 29.2996 37.0295 29.6031C36.512 29.9065 35.8443 30.1762 35.0098 30.4291C34.1752 30.682 33.3072 30.8 32.4225 30.8C29.8854 30.8 27.7154 29.9234 25.9127 28.1701Z" fill="#FC4842"/>
</svg>
