<svg width="80" height="80" viewBox="0 0 80 80" fill="none" xmlns="http://www.w3.org/2000/svg">
<rect width="80" height="80" fill="#A37D52"/>
<g clip-path="url(#clip0)">
<path d="M62.5017 66.3994C60.9999 66.3994 59.6441 66.4202 58.2883 66.389C57.7877 66.3785 57.287 66.2638 56.7969 66.1699C55.4515 65.8988 56.0251 63.646 54.3043 63.7503C52.4687 63.8651 52.5313 62.5197 52.135 61.2473C50.6957 56.6167 48.7871 52.1112 47.5356 47.4284C46.5448 43.7469 44.4902 41.0039 41.7056 38.6678C39.3694 36.7071 36.9185 34.8819 34.5407 33.0151C34.1756 33.1611 33.7376 33.1819 33.5812 33.4009C30.88 37.1868 30.88 37.1868 26.218 37.1868C24.6641 37.1868 23.0997 37.1868 21.2224 37.1868C21.139 36.342 20.6801 35.2157 21.0347 34.7985C22.4843 33.1402 21.7021 32.1807 20.4923 30.877C18.0519 28.2593 18.1457 27.8317 20.6175 25.4016C20.9825 25.0366 21.3371 24.6403 21.7543 24.3274C22.8285 23.5139 24.2156 22.9299 24.9144 21.8661C25.4776 21.0213 25.196 19.6238 25.2898 18.5183C25.8947 18.4557 26.4266 18.268 26.5309 18.4036C28.6377 21.1882 31.4744 21.7409 34.7701 21.4594C37.3462 21.2299 39.9743 21.4802 42.5713 21.3968C44.2399 21.3342 46.0025 21.8974 47.5773 20.6459C48.0049 20.3121 49.1209 20.2704 49.5068 20.5833C50.216 21.1778 50.6123 22.1477 51.1442 22.9507C50.3307 23.4722 49.5276 24.0354 48.6724 24.4839C48.5368 24.5569 48.1509 24.0145 47.8381 23.9311C45.4602 23.3262 45.4602 23.3366 44.5945 26.5489C42.7277 26.6636 40.7357 26.7887 37.44 27.0078C39.4946 28.3949 40.4124 29.3752 41.5283 29.709C47.7338 31.5758 51.019 36.7175 54.784 41.3168C55.1699 41.7861 55.4932 42.7039 55.295 43.1837C54.419 45.3321 55.5558 47.3554 55.4932 49.4621C55.4306 51.4333 56.1085 53.4357 56.4423 55.4277C56.8073 57.5866 57.1723 59.7455 57.4956 61.9148C57.7042 63.3019 58.4656 63.9798 59.8214 64.2614C60.614 64.4282 61.3545 64.8663 62.0741 65.2626C62.2514 65.346 62.2723 65.7528 62.5017 66.3994Z" fill="#F3F3F4"/>
<path d="M25.9989 46.9799C24.4241 49.0241 23.1517 50.7554 21.7855 52.4136C19.7204 54.9167 17.5616 57.3467 15.507 59.8706C14.8708 60.6528 14.0469 61.6019 14.0573 62.4675C14.0677 63.2601 15.1211 64.0215 15.6321 64.8454C15.7782 65.0853 15.653 65.5024 15.653 65.8153C13.7757 67.4006 12.4929 65.4294 10.9911 65.0123C10.6782 64.9288 10.48 63.8129 10.5218 63.1871C10.5635 62.5822 11.3248 61.6123 11.1788 61.4872C8.6862 59.2866 10.7199 57.8577 11.8046 56.0117C13.8487 52.5179 15.58 48.8364 17.353 45.1861C17.426 45.0401 16.6229 44.4665 15.945 43.8303C17.0505 42.6622 18.2082 41.2959 19.5327 40.1174C20.1063 39.6064 21.0241 39.4812 21.7959 39.2101C21.9523 39.1579 22.1401 39.1997 22.3174 39.1997C25.0916 39.2101 28.2725 38.3757 30.5148 39.4708C32.6424 40.5137 33.6436 43.7051 35.3957 45.7388C38.2951 49.0971 39.9221 52.2676 36.8454 56.5958C35.4792 58.5148 35.3227 61.289 34.5823 63.7816C35.1142 63.938 35.6252 64.0215 36.0528 64.2301C36.5847 64.4908 37.0644 64.8767 37.5546 65.2104C37.1374 65.5963 36.7828 66.1804 36.2927 66.3472C34.8951 66.8061 33.435 67.0981 31.6099 67.557C31.5056 65.9196 31.5995 64.5638 31.297 63.2914C30.4105 59.516 29.7326 56.7105 30.5565 55.4486C31.9436 53.3105 31.1927 51.9756 29.6283 50.5676C28.4915 49.5456 27.459 48.4296 25.9989 46.9799Z" fill="#F3F3F4"/>
<path d="M58.5171 23.0968C60.1336 24.3066 61.3747 25.5373 62.8557 26.2882C68.5084 29.1458 69.0611 34.1832 68.8838 39.6899C67.8409 40.2426 66.8188 40.7954 65.7237 41.3794C64.3575 40.3052 63.1477 38.6469 61.698 38.4071C60.2588 38.1672 58.5901 39.3457 56.452 40.1071C55.4717 39.0328 54.1576 37.7083 52.9895 36.2795C51.9257 34.9862 50.9975 33.5783 49.8398 31.9722C51.373 30.2618 52.8331 28.6348 54.5122 26.7575C53.8656 25.9753 53.0729 25.287 52.6662 24.4213C52.3429 23.733 52.0926 22.5023 52.468 22.0643C54.1472 20.1036 56.0453 18.3306 57.8704 16.495C60.2588 18.1637 61.0097 16.495 61.9379 14.6908C62.1465 14.2944 63.69 14.1067 64.1593 14.4509C64.6391 14.8055 64.6704 15.9318 64.6286 16.714C64.6078 17.1208 64.055 17.7465 63.6483 17.83C60.6655 18.4766 60.5821 21.6054 58.5171 23.0968Z" fill="#F3F3F4"/>
<path d="M62.6056 21.6471C62.6682 19.4256 64.389 18.1845 67.2154 18.3306C68.6755 18.4036 69.9374 20.2704 70 22.4501C70.0522 24.3796 68.1853 26.5906 66.4123 26.6949C64.3786 26.82 62.5326 24.3691 62.6056 21.6471Z" fill="#F3F3F4"/>
<path d="M29.8678 12.1251C32.0267 12.1356 34.5402 11.1969 35.531 14.2006C36.1046 15.9423 35.4475 18.2784 34.415 18.9668C33.1635 19.8011 30.0243 19.676 29.0961 18.6435C26.9685 16.2447 28.6893 14.2423 29.8678 12.1251Z" fill="#F3F3F4"/>
</g>
<defs>
<clipPath id="clip0">
<rect width="60" height="55.5571" fill="white" transform="translate(10 12)"/>
</clipPath>
</defs>
</svg>
