<svg width="27" height="27" viewBox="0 0 27 27" fill="none" xmlns="http://www.w3.org/2000/svg">
<path d="M9.72601 19.452C7.80239 19.452 5.92164 18.8817 4.3222 17.813C2.72277 16.7443 1.47631 15.2252 0.740172 13.448C0.00403422 11.6708 -0.18833 9.71527 0.186949 7.82861C0.562229 5.94195 1.48837 4.20896 2.84857 2.84875C4.20878 1.48855 5.94189 0.562166 7.82855 0.186886C9.71521 -0.188394 11.6705 0.00421524 13.4477 0.740353C15.2249 1.47649 16.7442 2.7232 17.8129 4.32263C18.8816 5.92206 19.4516 7.80245 19.4516 9.72607C19.4487 12.3047 18.4234 14.7769 16.6 16.6002C14.7767 18.4236 12.3046 19.4491 9.72601 19.452ZM9.72601 3.76806C8.54767 3.76826 7.39561 4.11791 6.41595 4.7727C5.4363 5.4275 4.6729 6.35807 4.22211 7.44677C3.77131 8.53547 3.65323 9.73336 3.88324 10.889C4.11324 12.0447 4.68082 13.1062 5.5141 13.9393C6.34738 14.7725 7.40917 15.3399 8.56488 15.5697C9.72059 15.7995 10.9186 15.6814 12.0073 15.2305C13.0959 14.7795 14.026 14.0158 14.6806 13.036C15.3352 12.0562 15.685 10.9044 15.685 9.72607C15.6834 8.14623 15.0547 6.63155 13.9374 5.51452C12.8202 4.3975 11.3059 3.76939 9.72601 3.76806Z" fill="#FC4842"/>
<path d="M16.6032 13.9398L13.9399 16.6031L23.9178 26.581L26.5811 23.9177L16.6032 13.9398Z" fill="#FC4842"/>
</svg>
