<svg width="80" height="80" viewBox="0 0 80 80" fill="none" xmlns="http://www.w3.org/2000/svg">
<rect width="80" height="80" fill="#A37D52"/>
<g clip-path="url(#clip0)">
<path d="M53.4853 68.8408C48.7997 68.3103 48.5148 67.9174 47.5521 64.4695C46.6975 61.4341 45.6071 58.438 44.3301 55.5599C43.8684 54.5186 42.562 53.8604 41.7073 53.0942C39.9981 56.4931 38.3871 59.5579 36.9136 62.6817C36.1278 64.3418 35.3124 65.7956 33.2496 66.0707C32.7977 66.1296 32.4146 66.7092 32.002 67.053C32.4834 67.3378 32.9549 67.6522 33.4657 67.8879C33.8684 68.0746 34.3105 68.1728 34.9392 68.3693C32.3851 70.8447 29.8999 69.9017 27.061 69.2534C28.7014 65.1276 30.1553 61.5127 31.5796 57.8879C32.2181 56.2573 32.1887 54.7642 30.725 53.4872C29.7427 52.6325 28.7899 51.7092 27.9647 50.6876C26.6091 49.0078 25.0669 49.0667 23.1219 50.1276C22.8665 47.2494 24.3498 45.0687 25.3124 42.8094C25.5973 42.1414 26.8252 41.5225 27.6504 41.4931C31.0787 41.3457 34.5266 41.385 37.9647 41.4636C38.7014 41.4832 39.5069 41.8467 40.1258 42.2789C42.503 43.9096 44.9195 45.5107 47.1101 47.3673C49.0453 49.0176 51.0197 50.6581 50.9117 53.7819C50.8527 55.4027 52.1003 57.0333 52.3851 58.7229C52.5914 59.9508 53.4067 61.6993 51.1081 62.2986C50.8134 62.3771 50.5089 63.8604 50.7741 64.4302C51.4323 65.884 52.4244 67.1807 53.4853 68.8408Z" fill="#F3F3F4"/>
<path d="M54.959 26.6308C55.8824 25.7565 56.9138 24.7742 58.7016 23.0846C58.1319 25.6484 57.8568 27.3086 57.346 28.8901C57.2282 29.2732 56.295 29.6661 55.794 29.5974C54.7134 29.4598 53.682 28.8312 52.6113 28.782C51.4914 28.7329 50.1653 28.0257 49.3991 29.9608C48.9079 31.1789 47.2085 30.7074 45.9315 30.3636C44.4187 29.951 42.8569 29.7447 41.1181 29.4009C40.627 32.5738 40.2242 35.393 39.7429 38.1927C39.5071 39.5581 39.2321 40.1278 37.2576 39.8037C33.7704 39.2241 30.126 39.6465 26.3048 39.6465C26.6093 35.7172 22.8372 36.6701 21.236 35.0099C20.5386 32.0335 21.5111 29.3321 22.6113 26.6602C23.0926 25.4913 23.5739 24.3125 24.0356 23.1337C25.5779 19.2241 29.0553 18.3989 31.9629 21.3557C33.5347 22.9471 34.8706 24.7644 36.5798 26.7978C36.5798 24.4598 36.5798 22.4166 36.5798 20.3636C38.3873 19.4402 39.7036 19.8331 41.2851 20.5993C45.7154 22.7408 50.2734 24.5875 54.959 26.6308ZM38.2891 31.0217C35.0769 30.2752 32.7488 31.1887 30.5091 32.564C30.3421 32.672 30.2046 33.1632 30.3028 33.3105C30.5681 33.7035 31.1771 34.342 31.2753 34.2732C33.2891 33.0355 36.2851 33.9785 38.2891 31.0217Z" fill="#F3F3F4"/>
<path d="M37.8471 14.499C37.8176 17.0531 36.0887 18.9097 33.7999 18.8605C31.4718 18.8016 29.8608 16.945 29.9001 14.3517C29.9296 11.7878 31.6486 9.94109 33.9374 10C36.2655 10.059 37.8765 11.9155 37.8471 14.499Z" fill="#F3F3F4"/>
</g>
<defs>
<clipPath id="clip0">
<rect width="37.7014" height="60" fill="white" transform="translate(21 10)"/>
</clipPath>
</defs>
</svg>
