<svg width="12" height="12" viewBox="0 0 12 12" fill="none" xmlns="http://www.w3.org/2000/svg">
<path d="M7.21587 9.83202L5.18387 11.24C4.67187 10.3974 4.17053 9.64536 3.67987 8.98402C3.1892 8.32269 2.6772 7.73069 2.14387 7.20802C1.6212 6.67469 1.0612 6.19469 0.463867 5.76802V5.67202C1.0612 5.23469 1.6212 4.75469 2.14387 4.23202C2.6772 3.69869 3.1892 3.10135 3.67987 2.44002C4.17053 1.76802 4.67187 1.01602 5.18387 0.184021L7.21587 1.59202C6.7572 2.28536 6.2772 2.88802 5.77587 3.40002C5.2852 3.90135 4.78387 4.32802 4.27187 4.68002C3.75987 5.03202 3.26387 5.31469 2.78387 5.52802C2.30387 5.74135 1.8612 5.89602 1.45587 5.99202V5.44802C1.8612 5.54402 2.30387 5.69869 2.78387 5.91202C3.26387 6.11469 3.75987 6.39202 4.27187 6.74402C4.78387 7.09602 5.2852 7.52802 5.77587 8.04002C6.2772 8.55202 6.7572 9.14935 7.21587 9.83202ZM11.1199 7.08002H7.35987C6.4852 7.08002 5.6532 7.02669 4.86387 6.92002C4.0852 6.81336 3.3652 6.68535 2.70387 6.53602L1.35987 5.72002L2.70387 4.90402C3.3652 4.73335 4.0852 4.60002 4.86387 4.50402C5.6532 4.40802 6.4852 4.36002 7.35987 4.36002H11.1199V7.08002Z" fill="white"/>
</svg>
