<svg width="30" height="30" viewBox="0 0 30 30" fill="none" xmlns="http://www.w3.org/2000/svg">
<g clip-path="url(#clip0)">
<path d="M15 1C7.28132 1 1 7.26233 1 14.9557C1 22.649 7.28132 28.9114 15 28.9114C22.7187 28.9114 29 22.649 29 14.9557C29 7.26233 22.7187 1 15 1ZM24.3207 21.0154L21.313 22.0095C20.7874 22.1868 20.0782 22.6933 19.7553 23.1429L17.9127 25.6567C16.9819 25.91 16.0068 26.043 15 26.043C13.9932 26.043 13.0181 25.91 12.0873 25.6567L10.2447 23.1429C9.91542 22.6933 9.21257 22.1805 8.68069 22.0095L5.673 21.0154C4.57123 19.3437 3.91904 17.3618 3.86205 15.2343L5.72999 12.8471C6.07191 12.4102 6.37585 11.5934 6.40118 11.0362L6.54681 7.73722C7.70556 6.39484 9.17458 5.3374 10.8462 4.66621L14.0059 5.67933C14.5378 5.85029 15.4052 5.85029 15.9371 5.67933L19.1348 4.65988C20.8064 5.33107 22.2818 6.39484 23.4405 7.73722L23.5862 11.0362C23.6115 11.5934 23.9154 12.4102 24.2573 12.8471L26.1253 15.2343C26.081 17.3618 25.4224 19.3437 24.3207 21.0154ZM19.3564 12.6318L15.8232 10.0611C15.3736 9.7318 14.6327 9.7318 14.1832 10.0611L10.6499 12.6318C10.2004 12.9611 9.97241 13.664 10.1434 14.1895L11.4921 18.3433C11.663 18.8752 12.2583 19.3057 12.8218 19.3057H17.1909C17.7481 19.3057 18.3433 18.8752 18.5206 18.3433L19.8693 14.1895C20.0339 13.664 19.806 12.9611 19.3564 12.6318Z" fill="white"/>
</g>
<defs>
<clipPath id="clip0">
<rect width="28" height="27.9114" fill="white" transform="translate(1 1)"/>
</clipPath>
</defs>
</svg>
