<svg width="30" height="30" viewBox="0 0 30 30" fill="none" xmlns="http://www.w3.org/2000/svg">
<path fill-rule="evenodd" clip-rule="evenodd" d="M23.1199 3.41035C23.1199 3.11686 22.8763 2.87333 22.5827 2.87333H14.144C13.8504 2.87333 13.6068 3.11686 13.6068 3.41035V9.04906C13.9004 8.99286 14.2065 8.96164 14.5125 8.96164C15.5869 8.96164 16.63 9.33631 17.5295 10.0357C19.7462 11.7711 19.1227 14.5112 18.8227 15.8293L18.8225 15.8305C18.8152 15.8633 18.8079 15.8956 18.8008 15.9271C18.7834 16.0038 18.767 16.0764 18.7538 16.1427C18.7318 16.2386 18.7111 16.3333 18.6905 16.4272C18.6642 16.5475 18.6381 16.6667 18.6101 16.7859H22.5827C22.8763 16.7859 23.1199 16.5424 23.1199 16.2489V3.41035ZM14.1377 1H22.5827C23.9132 1 25 2.08029 24.9875 3.41035V16.2551C24.9875 17.5852 23.9069 18.6655 22.5765 18.6655H16.299C16.4052 18.0285 16.5426 17.4103 16.6925 16.7547C16.7674 16.4237 16.8424 16.0928 16.9111 15.7618C16.9361 15.6557 16.9611 15.5433 16.9861 15.4246L16.9875 15.4184C17.2498 14.2632 17.6459 12.5192 16.3677 11.5219C15.8055 11.0785 15.1621 10.8475 14.5063 10.8475C13.3632 10.8475 12.3201 11.5593 11.7829 12.7145C11.7642 12.752 11.7454 12.802 11.7267 12.8519V3.41035C11.7267 2.08029 12.8073 1 14.1377 1ZM12.8634 13.7261C13.3257 12.727 14.35 12.3024 15.2995 13.0455C15.8715 13.4963 15.6153 14.625 15.4095 15.532C15.3816 15.6551 15.3546 15.774 15.3307 15.8867C15.2658 16.186 15.1977 16.4827 15.1299 16.7786C14.9627 17.5075 14.7966 18.2315 14.6811 18.9777C14.6315 19.2824 14.5859 19.6956 14.542 20.0931C14.5086 20.3962 14.4762 20.6901 14.4437 20.9197C14.2156 22.5404 14.0336 22.9667 13.6204 23.9346C13.6037 23.9736 13.5867 24.0135 13.5693 24.0544C13.2904 24.7069 12.9083 25.3819 12.5503 26.0141C12.2266 26.5858 11.9227 27.1226 11.7328 27.5763C11.6584 27.7527 11.5474 28.0132 11.4466 28.2497C11.3192 28.5487 11.2082 28.8092 11.2082 28.8127C11.1519 29.1186 9.49043 29.0499 7.51036 28.6628C5.52404 28.2694 3.93749 27.7011 3.99995 27.3952C3.99995 27.3952 4.80572 24.6039 4.81821 23.4924C4.82446 22.3996 4.81197 22.0687 4.762 21.3693C4.72232 20.8027 4.64208 20.2395 4.56205 19.6779C4.37749 18.3826 4.19408 17.0954 4.51215 15.793C4.98062 13.8822 6.76081 11.9402 7.79769 10.8849C8.14124 10.529 8.80334 9.90454 9.30305 9.59232V15.9616C9.12815 16.9482 9.0407 18.2908 10.1525 18.5343C11.296 18.7894 11.9927 16.4789 12.467 14.9059C12.6197 14.3994 12.7493 13.9694 12.8634 13.7261Z" fill="white"/>
</svg>
