<svg width="80" height="80" viewBox="0 0 80 80" fill="none" xmlns="http://www.w3.org/2000/svg">
<rect width="80" height="80" fill="#A37D52"/>
<g clip-path="url(#clip0)">
<path d="M26.3098 34.1208C25.3872 33.9027 25.2195 33.3408 25.7562 32.6363C26.7543 31.3363 27.8865 30.1286 28.8342 28.7951C30.26 26.7906 31.6606 24.761 32.8851 22.6307C33.2541 21.9933 33.6987 21.2888 33.1619 20.1062C32.0716 17.674 31.6355 14.9483 30.9142 12.3483C30.8471 12.0967 30.4865 11.7864 30.5536 11.6522C30.8555 11.0735 31.2581 10.5451 31.6187 10C32.0213 10.3187 32.6419 10.5535 32.7845 10.9561C33.749 13.6148 34.7806 16.2734 35.4515 19.0075C35.896 20.8443 36.827 22.203 37.9844 23.6036C41.5824 27.9312 45.1216 32.3092 48.5687 36.7626C49.3738 37.8026 49.8015 39.0942 49.8435 40.5787C49.9441 44.1431 50.246 47.7076 50.6905 51.2385C50.8331 52.3791 51.5041 53.5616 52.2253 54.4926C55.5969 58.8286 59.0104 63.1227 62.5329 67.333C63.6232 68.6329 63.0277 69.2536 62.0632 69.9916C61.9458 69.9581 61.7948 69.9664 61.7277 69.8994C60.302 68.2304 59.1278 66.2007 57.3917 64.9595C55.7143 63.7601 53.4163 63.4498 51.4538 62.6195C49.9525 61.9821 48.5099 61.1854 47.0842 60.3886C42.6475 57.9061 37.8334 56.6648 32.8516 55.8764C31.6942 55.6919 30.5032 55.1468 29.522 54.4842C27.8446 53.3436 27.4672 52.0017 28.331 50.1817C30.0923 46.4915 31.9709 42.8599 33.8496 39.2284C34.4032 38.1633 35.6444 37.8194 36.9779 38.5658C38.756 39.5555 40.4166 40.78 42.1023 41.9374C43.6455 42.9941 45.1552 44.1012 47.2435 45.5941C47.2435 43.1619 47.2855 41.3922 47.2184 39.6226C47.2016 39.1194 46.9584 38.5491 46.6397 38.1465C43.1423 33.7434 39.6114 29.3738 35.8457 24.6939C35.4431 27.6796 34.9735 30.3047 34.7889 32.9466C34.7051 34.1711 34.4451 35.1524 33.447 35.8065C30.9477 37.4672 28.4484 39.1278 25.8737 40.6626C24.6911 41.3671 22.737 40.6626 22.2505 39.589C21.6886 38.3478 22.1583 36.6788 23.324 35.9323C24.2969 35.3033 25.3117 34.7246 26.3014 34.1208C27.8446 33.7769 29.4045 33.5001 30.9142 33.0305C31.1742 32.9466 31.1993 32.0995 31.3335 31.6047C31.5935 31.3783 31.9122 31.2021 32.08 30.917C32.1638 30.7744 31.9709 30.4641 31.9039 30.2292C31.7277 30.4305 31.4845 30.6067 31.3839 30.8499C31.2916 31.0679 31.3503 31.3531 31.3419 31.6131C29.8239 32.7621 27.4839 32.284 26.3098 34.1208ZM37.0954 43.3128C36.6341 44.9986 36.2902 46.2818 35.9296 47.5482C35.2838 49.7875 35.4683 49.9049 37.5315 50.8946C41.0624 52.5888 44.6352 54.2745 47.948 56.3461C49.659 57.4196 51.135 58.8706 53.0892 59.6338C52.9634 58.9964 52.737 58.4932 52.3595 58.1409C49.6422 55.5074 47.3274 52.6894 48.0235 48.7727C44.3165 46.9192 40.9282 45.2251 37.0954 43.3128Z" fill="#F3F3F4"/>
<path d="M21.3193 26.3042C22.1664 27.0674 22.7115 27.5035 23.1896 28.0151C25.6805 30.6486 24.8502 33.6511 21.269 34.4898C19.709 34.8505 18.5516 33.7015 17.6207 32.5441C16.7568 31.4705 16.7652 29.7848 17.8136 28.8035C18.7864 27.8893 19.9942 27.2268 21.3193 26.3042Z" fill="#F3F3F4"/>
</g>
<defs>
<clipPath id="clip0">
<rect width="46.1197" height="60" fill="white" transform="translate(17 10)"/>
</clipPath>
</defs>
</svg>
