<svg width="80" height="80" viewBox="0 0 80 80" fill="none" xmlns="http://www.w3.org/2000/svg">
<rect width="80" height="80" fill="#A37D52"/>
<g clip-path="url(#clip0)">
<path d="M40.1109 60.754C40.1109 59.4101 40.1109 58.2454 40.1109 57.018C39.8063 57.0449 39.5107 56.9911 39.3852 57.1076C38.5162 57.9229 37.7009 58.7919 36.8408 59.6162C34.8519 61.5245 34.2516 61.6589 31.8236 60.4136C27.6934 58.2992 23.5991 56.1042 19.4957 53.945C19.2359 53.8106 18.8775 53.721 18.7611 53.506C18.4296 52.9236 17.8651 52.1531 18.0264 51.6873C18.2683 51.0064 18.7342 50.3882 19.9974 50.9436C22.2193 51.9292 24.6921 52.2875 27.0036 53.0939C29.1717 53.8554 31.2502 54.8409 33.3109 55.71C35.8732 52.5653 38.3639 49.5012 40.8545 46.4371C43.3094 43.4179 44.3934 43.3283 47.0454 45.9623C47.4665 46.3834 47.8427 46.8493 48.1922 47.2435C47.6277 49.985 47.0185 52.6459 46.5437 55.3337C46.1405 57.6183 45.8807 59.9298 45.6029 62.2412C45.379 64.0689 44.3218 65.144 42.6105 65.583C36.9035 67.0434 31.1875 68.4769 25.4715 69.9193C24.1366 70.2598 23.4736 69.3907 23.2228 68.3873C23.0884 67.8587 23.5005 66.7477 23.9216 66.5865C29.1717 64.6154 34.4756 62.7698 40.1109 60.754Z" fill="#F3F3F4"/>
<path d="M27.873 39.4133C27.0667 36.5284 28.4822 34.5395 29.405 32.4072C30.5428 29.7642 31.5104 27.0495 32.6572 24.4066C32.8364 23.9855 33.58 23.8153 34.0638 23.5286C34.3326 24.1199 34.9329 24.7739 34.8254 25.2846C34.4132 27.2466 33.7234 29.146 33.2664 31.1081C33.1231 31.7442 33.141 32.7745 33.5263 33.0701C33.9384 33.3837 34.906 33.1956 35.5331 32.9716C36.4828 32.6222 37.3071 31.8965 38.2567 31.6008C40.6578 30.8572 43.0947 32.9178 42.9335 35.4264C42.8349 36.8957 41.7508 38.4009 39.735 38.5263C35.8198 38.7593 32.0122 40.4078 27.873 39.4133Z" fill="#F3F3F4"/>
<path d="M44.1426 29.5401C48.9895 26.0012 53.6931 22.5788 58.3878 19.1474C58.8626 18.807 59.2837 18.2784 59.8123 18.1529C60.314 18.0365 61.0397 18.1888 61.407 18.5113C61.6041 18.6815 61.4339 19.6491 61.1203 19.9627C56.6676 24.5229 52.1701 29.0294 47.5919 33.6255C46.2838 32.0756 45.1818 30.7675 44.1426 29.5401Z" fill="#F3F3F4"/>
<path d="M39.8248 29.8C37.2177 29.8269 36.6084 29.1549 36.5726 26.2611C36.5457 23.645 38.1226 21.7008 40.2549 21.7456C41.7958 21.7725 43.7221 24.1288 43.8027 26.0819C43.8923 28.1694 42.1721 29.7821 39.8248 29.8Z" fill="#F3F3F4"/>
<path d="M54.921 18.0901C50.7101 16.2804 50.531 16.0295 50.9162 12.5264C51.1133 10.7525 51.8838 10.0716 53.7832 9.99994C55.6467 9.92827 57.6446 10.9317 58.0388 12.41C58.433 13.8793 58.1911 15.3038 56.8472 16.352C56.1574 16.8896 55.5481 17.5257 54.921 18.0901Z" fill="#F3F3F4"/>
</g>
<defs>
<clipPath id="clip0">
<rect width="43.4971" height="60" fill="white" transform="translate(18 10)"/>
</clipPath>
</defs>
</svg>
