<svg width="30" height="30" viewBox="0 0 30 30" fill="none" xmlns="http://www.w3.org/2000/svg">
<path fill-rule="evenodd" clip-rule="evenodd" d="M15 27C21.6274 27 27 21.6274 27 15C27 8.37258 21.6274 3 15 3C8.37258 3 3 8.37258 3 15C3 21.6274 8.37258 27 15 27ZM16.4026 13.5974H20.6104C21.1071 13.5974 21.5455 14.0357 21.5455 14.5325V15.4675C21.5455 15.9935 21.1071 16.4026 20.6104 16.4026H16.4026V20.6104C16.4026 21.1364 15.9643 21.5455 15.4675 21.5455H14.5325C14.0065 21.5455 13.5974 21.1364 13.5974 20.6104V16.4026H9.38961C8.86364 16.4026 8.45455 15.9935 8.45455 15.4675V14.5325C8.45455 14.0357 8.86364 13.5974 9.38961 13.5974H13.5974V9.38961C13.5974 8.89286 14.0065 8.45455 14.5325 8.45455H15.4675C15.9643 8.45455 16.4026 8.89286 16.4026 9.38961V13.5974Z" fill="white"/>
</svg>
