<svg width="80" height="80" viewBox="0 0 80 80" fill="none" xmlns="http://www.w3.org/2000/svg">
<rect width="80" height="80" fill="#A37D52"/>
<g clip-path="url(#clip0)">
<path d="M58.1542 59.515C56.7321 59.515 55.3006 59.4296 53.8881 59.5339C51.082 59.733 48.7024 59.2306 47.2804 56.4339C47.1003 56.0831 46.2566 56.0737 45.7257 55.903C45.5929 56.4908 45.1569 57.3345 45.3939 57.6284C46.2281 58.6807 47.1761 59.7425 48.3138 60.4345C51.4612 62.359 54.7318 64.1034 57.9551 65.9141C58.486 66.2174 59.2728 66.3312 59.5478 66.7768C60.0028 67.4973 60.5337 68.5496 60.3156 69.2321C59.9744 70.2844 58.8462 70.0569 57.9361 69.6872C53.2529 67.8291 48.5602 65.9804 43.8676 64.1128C41.7061 63.2502 40.777 61.9419 40.2935 59.3443C39.5067 55.1162 39.7911 50.9449 39.5446 46.7641C39.5067 46.1384 39.3076 45.3611 39.5825 44.8965C40.2651 43.7305 40.9856 42.4127 42.0568 41.7017C43.2608 40.8959 44.4553 41.8534 45.2611 42.8867C46.1144 43.977 46.977 45.0861 47.6407 46.2996C48.8352 48.4516 49.9254 50.67 50.9682 52.9073C51.4801 53.988 52.1058 54.6042 53.3856 54.7844C57.1777 55.3247 60.9413 56.0737 64.7334 56.652C65.6719 56.7942 66.1554 57.126 66.1649 58.074C66.1744 59.0125 65.7857 59.5434 64.7998 59.5339C62.5909 59.5339 60.3725 59.5339 58.1636 59.5339C58.1542 59.5244 58.1542 59.515 58.1542 59.515Z" fill="#F3F3F4"/>
<path d="M53.7454 20.2197C52.5035 19.357 50.5032 19.7931 49.849 17.5937C49.2233 15.4701 49.5172 12.5218 51.2236 11.4885C52.9585 10.4362 56.5325 11.3273 57.2151 13.4319C57.6986 14.9392 59.0353 16.3897 57.7934 18.5228C56.2955 21.1014 56.2292 24.609 54.4659 26.8937C52.6931 29.1974 49.6025 30.4962 46.7869 32.4396C46.2466 30.3445 45.801 28.6571 45.2891 26.6852C48.9389 25.7466 52.9585 25.102 53.7454 20.2197Z" fill="#F3F3F4"/>
<path d="M24.2052 48.3094C22.7452 46.603 23.4942 45.4843 24.755 44.6121C26.7648 43.2091 28.7746 41.787 30.9172 40.621C32.6994 39.654 33.7517 38.5069 34.0456 36.4023C34.2731 34.7907 35.1169 33.2454 35.79 31.7191C36.2166 30.7616 36.738 29.8136 37.3826 29.0078C38.4634 27.6616 39.9423 27.9934 41.2221 28.5906C42.5872 29.2258 42.5967 30.6099 42.3882 31.8708C42.2649 32.6008 41.8478 33.2928 41.4686 33.9564C40.4163 35.824 39.4588 37.7675 38.1884 39.4739C36.9655 41.1329 35.7805 42.773 33.5432 43.6072C30.3009 44.8302 27.2957 46.7167 24.2052 48.3094Z" fill="#F3F3F4"/>
<path d="M16.148 24.353C14.8208 20.2007 12.3749 16.3328 13.1523 11.4505C17.4657 9.67771 21.7887 9.47863 26.178 11.1377C27.8655 11.7728 28.4817 12.5407 27.5147 14.6169C26.3676 17.0533 26.0927 19.8784 25.3248 22.5044C25.1257 23.187 24.519 23.7558 23.8554 24.7417C22.86 21.4331 25.5334 19.2527 25.2774 16.1621C22.0068 15.6976 18.6508 16.1527 15.0199 15.8588C15.7783 18.7692 16.4419 21.3194 17.115 23.86C16.7927 24.0212 16.4703 24.1918 16.148 24.353ZM27.2588 13.0052C22.3954 11.4695 18.5939 9.99055 14.5838 13.2802C18.7551 15.9441 22.4808 15.0719 27.2588 13.0052Z" fill="#F3F3F4"/>
<path d="M45.3174 22.1537C45.27 24.6849 44.4832 25.4528 41.9235 25.4528C39.4113 25.4528 37.6574 23.8411 37.6859 21.5754C37.7143 19.5561 39.5535 17.7454 41.5538 17.7833C43.8196 17.8307 45.3648 19.6225 45.3174 22.1537Z" fill="#F3F3F4"/>
</g>
<defs>
<clipPath id="clip0">
<rect width="53.1553" height="60" fill="white" transform="translate(13 10)"/>
</clipPath>
</defs>
</svg>
