<svg width="20" height="21" viewBox="0 0 20 21" fill="none" xmlns="http://www.w3.org/2000/svg">
<rect width="20" height="20" transform="translate(0 0.5)" fill="none"/>
<circle cx="10" cy="10.5" r="8" fill="#464655"/>
<path d="M8.36776 14.5C8.09162 14.5 7.86776 14.2761 7.86776 14V9.69545C7.86776 9.55404 7.86776 9.40909 7.86776 9.26061C7.87521 9.08851 7.6593 8.99124 7.52278 9.0963C7.39057 9.19805 7.24979 9.2917 7.10046 9.37727C6.96096 9.45566 6.81912 9.52337 6.67492 9.5804C6.42201 9.68043 6.15704 9.50803 6.10249 9.24158C6.04679 8.96946 6.23156 8.70046 6.48852 8.59497C6.49058 8.59412 6.49264 8.59328 6.4947 8.59242C6.68316 8.51465 6.87835 8.41566 7.08027 8.29545C7.28219 8.17525 7.46729 8.04798 7.63555 7.91364C7.72126 7.8416 7.79737 7.77049 7.86386 7.70029C7.97596 7.58197 8.12633 7.5 8.28932 7.5H8.43794C8.71408 7.5 8.93794 7.72386 8.93794 8V14C8.93794 14.2761 8.71408 14.5 8.43794 14.5H8.36776Z" fill="white"/>
<path d="M12.4298 14.5C12.1537 14.5 11.9298 14.2761 11.9298 14V9.69545C11.9298 9.55404 11.9298 9.40909 11.9298 9.26061C11.9373 9.08851 11.7214 8.99124 11.5848 9.0963C11.4526 9.19805 11.3119 9.2917 11.1625 9.37727C11.023 9.45566 10.8812 9.52337 10.737 9.5804C10.4841 9.68043 10.2191 9.50803 10.1646 9.24158C10.1089 8.96946 10.2936 8.70046 10.5506 8.59497C10.5526 8.59412 10.5547 8.59328 10.5568 8.59242C10.7452 8.51465 10.9404 8.41566 11.1423 8.29545C11.3443 8.17525 11.5293 8.04798 11.6976 7.91364C11.7833 7.8416 11.8594 7.77049 11.9259 7.70029C12.038 7.58197 12.1884 7.5 12.3514 7.5H12.5C12.7761 7.5 13 7.72386 13 8V14C13 14.2761 12.7761 14.5 12.5 14.5H12.4298Z" fill="white"/>
</svg>
