<svg width="80" height="80" viewBox="0 0 80 80" fill="none" xmlns="http://www.w3.org/2000/svg">
<rect width="80" height="80" fill="#A37D52"/>
<g clip-path="url(#clip0)">
<path d="M42.533 50.7689C41.0529 50.7689 40.2456 50.865 39.4671 50.7497C36.6031 50.3461 35.1134 47.9241 36.1322 45.262C36.8722 43.311 37.766 41.408 38.9674 38.6209C35.5652 40.8026 33.3355 39.9472 31.2115 37.9674C29.4911 36.3624 27.4633 35.0842 25.8198 33.4119C24.3109 31.8838 24.6281 29.4907 26.1658 28.1932C27.3672 27.1841 29.4143 27.3379 30.7982 28.8372C32.7204 30.9035 34.4695 33.1428 36.3725 35.4109C38.7463 34.3537 41.7257 34.4114 42.6579 31.163C40.4859 31.336 38.4099 31.509 36.1706 31.6916C35.6324 30.077 35.1615 28.6738 34.5176 26.7228C35.6613 27.1937 36.1706 27.5878 36.6704 27.5782C39.198 27.5493 41.7257 27.4244 44.2629 27.3379C45.3201 25.4542 46.4926 23.6185 47.396 21.6675C49.0298 18.1596 51.7305 15.2187 52.7396 11.3648C52.8549 10.9035 53.6238 10.6152 54.3734 10.0193C55.594 12.2394 55.2864 14.1519 54.6329 16.0645C52.778 21.4561 50.8751 26.8381 49.0202 32.2394C48.1745 34.719 47.4441 37.237 46.5791 39.6973C45.2912 43.3206 43.9361 46.9246 42.533 50.7689Z" fill="#F3F3F4"/>
<path d="M12 69.5867C13.2878 68.4046 13.9125 67.5396 14.7583 67.1264C15.4022 66.8092 16.3248 67.0591 17.1225 67.0591C33.2686 67.0591 49.4147 67.0591 65.5608 67.0591C66.3585 67.0591 67.2234 66.9245 67.9154 67.2033C68.2902 67.357 68.4825 68.2508 68.5113 68.8179C68.5305 69.1735 68.1557 69.7693 67.8385 69.8751C67.2523 70.0577 66.5795 69.9712 65.9356 69.9712C48.9918 69.9712 32.0384 69.9808 15.0947 69.9615C14.345 69.9712 13.605 69.7886 12 69.5867Z" fill="#F3F3F4"/>
<path d="M34.9504 21.0907C34.9216 23.9644 33.2782 25.8577 30.9139 25.7424C28.492 25.627 26.3488 23.455 26.2431 21.0235C26.1566 18.9956 29.0975 16.0739 31.1157 16.17C33.355 16.2758 34.9793 18.3517 34.9504 21.0907Z" fill="#F3F3F4"/>
</g>
<defs>
<clipPath id="clip0">
<rect width="56.5113" height="60" fill="white" transform="translate(12 10)"/>
</clipPath>
</defs>
</svg>
