<svg width="87" height="68" viewBox="0 0 87 68" fill="none" xmlns="http://www.w3.org/2000/svg">
<path d="M45.2477 68L60.4331 36.9938C53.3816 33.7299 50.1283 27.2011 50.1283 19.5843C50.1283 8.15914 58.2644 0 68.5649 0C78.3248 0 87 8.16236 87 19.5843C87 26.112 84.2898 31.0095 80.4948 36.9938L60.4331 68H45.2477ZM4.88058 19.5843C4.88058 8.15914 13.0167 0 23.3162 0C33.0761 0 41.7513 8.16236 41.7513 19.5843C41.7513 26.112 39.0421 31.0095 35.2461 36.9938L15.1812 68H0L15.1822 36.9938C8.13608 33.7299 4.88058 27.2011 4.88058 19.5886V19.5843Z" fill="#E1E1E4"/>
</svg>
