<svg width="14" height="14" viewBox="0 0 14 14" fill="none" xmlns="http://www.w3.org/2000/svg">
<path d="M7 0C10.8387 0 14 3.16129 14 7C14 7.21904 13.9899 7.43573 13.97 7.64963C13.1409 6.64344 11.8859 6 10.4859 6H10.4783L10.4707 6.00011C10.3682 6.00167 10.2664 6.00658 10.1655 6.01474L10.1331 5.98387L10.5847 3.6129L11.5726 3.69758C10.8669 2.7379 9.87903 2.00403 8.72177 1.6371L9.08871 2.54032L7 3.69758L4.88306 2.54032L5.25 1.6371C4.12097 2.00403 3.10484 2.7379 2.39919 3.69758L3.3871 3.6129L3.83871 5.98387L2.08871 7.64919L1.35484 7C1.35484 8.24193 1.72177 9.37097 2.42742 10.3306L2.65323 9.39919L5.05242 9.68145L6.06855 11.8831L5.22177 12.3911C5.83281 12.5897 6.48518 12.6808 7.13414 12.6645C7.02271 13.0615 7.12334 13.5053 7.43604 13.818L7.45732 13.8393L7.47984 13.8592C7.52362 13.898 7.56821 13.936 7.61357 13.9731C7.41127 13.9909 7.20661 14 7 14C3.13306 14 0 10.8669 0 7C0 3.16129 3.13306 0 7 0Z" fill="white"/>
<path d="M8.98625 6.26873C8.69734 6.37221 8.42169 6.50364 8.16263 6.65969C7.28461 5.93874 6 6.6136 6 7.70564V8.97581H5.61694L4.79839 6.40726L7 4.79839L8.98625 6.26873Z" fill="white"/>
<path d="M10.4859 7C9.55444 7.01411 8.70766 7.38105 8.07258 7.97379L7.56452 7.46573C7.35282 7.25403 7 7.40927 7 7.70564V9.59677C7 9.79435 7.14113 9.93548 7.33871 9.93548H9.22984C9.52621 9.93548 9.68145 9.58266 9.46976 9.37097L8.87702 8.77822C9.31452 8.36895 9.87903 8.14314 10.4718 8.14314C11.7702 8.12903 12.871 9.17339 12.8569 10.5282C12.8569 11.8125 11.8125 12.871 10.5 12.871C9.90726 12.871 9.37097 12.6734 8.93347 12.2923C8.8629 12.2359 8.76411 12.2359 8.70766 12.2923L8.14314 12.8569C8.07258 12.9274 8.07258 13.0403 8.14314 13.1109C8.76411 13.6613 9.59677 14 10.5 14C12.4194 14 13.9859 12.4335 14 10.5141C14 8.58064 12.4194 7 10.4859 7Z" fill="white"/>
</svg>
