<svg viewBox="0 0 130 130" fill="none" xmlns="http://www.w3.org/2000/svg">
<path class="play-bg-color" d="M64.9999 0C52.1441 0 39.5772 3.81218 28.888 10.9545C18.1988 18.0968 9.8675 28.2484 4.9478 40.1256C0.0280938 52.0028 -1.25903 65.0721 1.24901 77.6809C3.75706 90.2897 9.94729 101.872 19.0377 110.962C28.1281 120.052 39.7104 126.243 52.3192 128.751C64.9279 131.259 77.9973 129.972 89.8745 125.052C101.752 120.133 111.903 111.801 119.045 101.112C126.187 90.4228 130 77.8558 130 65C130 47.761 123.152 31.2279 110.962 19.0381C98.7722 6.84819 82.239 0 64.9999 0Z" fill="#FC4842"/>
<path d="M107.25 68.25H100.75V74.75H87.7501V81.25H74.7501V87.75H61.7501V94.25H48.7501V100.75H42.2501V29.25H48.7501V35.75H61.7501V42.25H74.7501V48.75H87.7501V55.25H100.75V61.75H107.25V68.25Z" fill="white"/>
</svg>
