<svg width="80" height="80" viewBox="0 0 80 80" fill="none" xmlns="http://www.w3.org/2000/svg">
<rect width="80" height="80" fill="#A37D52"/>
<g clip-path="url(#clip0)">
<path d="M24.1014 31.3976C25.6395 32.6681 27.0688 33.6712 27.6874 35.4851C27.9047 36.1203 28.1722 36.8309 28.6319 37.2739C31.5743 40.0992 31.1814 43.3508 29.9777 46.7361C28.9997 49.4945 28.005 52.253 26.9769 55.1117C26.024 54.6603 25.0293 54.7941 25.5141 53.0053C26.2747 50.1633 26.3416 47.1624 27.3697 44.3288C27.7208 43.3591 27.6957 42.1638 26.6425 41.2861C25.9153 40.6759 25.3803 39.84 24.6197 38.9373C22.3711 41.6372 20.2981 44.0111 18.3589 46.4937C16.2692 49.1686 14.3968 52.0189 12.2402 54.6269C11.2705 55.8055 10.652 54.4514 10 53.7576C13.8618 47.1039 17.7069 40.4084 21.6439 33.7799C22.1789 32.8855 23.1819 32.2753 24.1014 31.3976Z" fill="#F3F3F4"/>
<path d="M56.6434 40.4502C55.3812 41.0354 54.4868 41.2694 53.8181 41.7877C52.5893 42.7406 51.929 44.0613 51.7618 45.6411C51.5111 48.0735 51.1683 50.4893 50.9092 52.9217C50.7755 54.1755 50.2321 54.9445 48.6356 55.0365C48.2762 52.0357 48.2009 49.0682 48.669 46.0925C48.7526 45.5742 49.204 45.0476 49.1455 44.5795C48.6858 41.1357 50.8256 38.9707 52.907 36.7807C53.676 35.9783 54.4952 35.226 55.2475 34.4068C56.0499 33.5375 56.936 32.852 58.1146 33.5542C59.0842 34.1309 60.2712 34.3901 60.2126 36.1454C60.1374 38.419 60.5971 40.7345 60.99 42.9913C61.1154 43.7186 61.6922 44.4374 62.2188 45.0142C63.6398 46.5439 65.2029 47.9314 66.5905 49.4778C67.7774 50.7902 68.839 52.2279 69.8922 53.6573C70.0678 53.8913 70.0343 54.5182 69.8421 54.7272C69.6498 54.9362 69.0229 55.0365 68.7888 54.886C67.5517 54.0501 66.3481 53.1474 65.1862 52.2028C63.3807 50.7317 61.642 49.1853 59.8449 47.7141C57.7217 45.9671 56.5013 43.7854 56.6434 40.4502Z" fill="#F3F3F4"/>
<path d="M34.9016 38.8704C37.334 39.2382 39.3151 39.5391 41.2878 39.8401C42.8175 37.9175 44.4057 36.0451 45.8517 34.0641C47.2059 32.2 48.351 30.1772 49.6968 28.3048C51.0008 26.4909 52.3466 26.1399 53.4667 27.1179C54.7121 28.2129 54.6787 29.9766 53.149 31.431C49.747 34.6743 46.2864 37.8506 42.7673 40.9685C42.224 41.4533 41.2962 41.6707 40.5271 41.6957C38.0278 41.7877 35.5118 41.7292 32.9456 41.7292C30.7473 38.5695 31.8005 35.017 31.6918 31.6484C31.6584 30.6453 32.6029 30.0685 33.7063 29.9432C34.935 29.801 35.0019 30.8041 35.3028 31.4812C36.3477 33.8802 36.0217 36.2708 34.9016 38.8704Z" fill="#F3F3F4"/>
<path d="M39.0712 28.915C40.1328 29.6172 41.0606 29.9933 41.629 30.6704C42.8494 32.1248 42.373 33.9053 40.7597 35.0421C39.4975 35.9281 38.4945 35.2511 37.5583 34.5991C36.3462 33.7548 36.3546 32.384 36.8812 31.2388C37.249 30.4196 38.1685 29.8429 39.0712 28.915Z" fill="#F3F3F4"/>
<path d="M49.1857 26.5076C47.1712 30.6118 47.1712 30.6118 43.4181 28.6391C43.3763 27.0593 42.6909 25.1367 44.6385 24.3009C46.8118 23.373 48.1827 24.7272 49.1857 26.5076Z" fill="#F3F3F4"/>
</g>
<defs>
<clipPath id="clip0">
<rect width="60" height="31.1117" fill="white" transform="translate(10 24)"/>
</clipPath>
</defs>
</svg>
