<svg width="41" height="30" viewBox="0 0 41 30" fill="none" xmlns="http://www.w3.org/2000/svg">
<path d="M20.9441 10.518L15.7061 15.165L15.6875 15C15.6875 12.519 17.9589 10.5 20.75 10.5L20.9441 10.518ZM7.36306 22.566L12.8879 17.664C12.5302 16.833 12.3125 15.9405 12.3125 15C12.3125 10.8645 16.0976 7.5 20.75 7.5C21.8148 7.5 22.8239 7.695 23.7622 8.016L27.7734 4.458C25.6201 3.576 23.2661 3 20.7247 3C7.67525 3 0.499993 15.6735 0.499993 15.6735C0.499993 15.6735 2.8878 19.3905 7.36306 22.566V22.566ZM4.94824 27.87L36.3678 -4.04959e-07L38.6999 2.133L32.8696 7.3035C37.9693 10.9785 41 15.6735 41 15.6735C41 15.6735 33.4974 27 20.7247 27C17.645 27 14.8927 26.361 12.4796 25.3875L7.28037 30L4.94824 27.87V27.87ZM28.1531 11.487L25.5897 13.7595C25.7197 14.1555 25.8125 14.5665 25.8125 15C25.8125 17.481 23.5411 19.5 20.75 19.5C20.2589 19.5 19.7932 19.4175 19.3443 19.299L16.7827 21.5715C17.9707 22.1445 19.3072 22.5 20.75 22.5C25.4024 22.5 29.1875 19.1355 29.1875 15C29.1875 13.722 28.7909 12.5385 28.1531 11.487V11.487Z" fill="#CACACC"/>
</svg>
