<svg width="80" height="80" viewBox="0 0 80 80" fill="none" xmlns="http://www.w3.org/2000/svg">
<rect width="80" height="80" fill="#A37D52"/>
<g clip-path="url(#clip0)">
<path d="M39.6769 46.3481C39.4502 46.2914 39.0696 46.1133 38.7052 46.1376C37.9927 46.1861 37.0048 45.7408 36.7943 46.9554C36.5999 48.0809 37.3125 49.1497 38.4137 49.3197C38.94 49.4007 39.4906 49.3035 40.025 49.3278C45.523 49.587 49.3449 54.9716 47.1506 61.004C46.0817 63.9432 41.5149 66.1214 38.4623 65.5222C35.3773 64.9149 32.7862 61.4007 32.6242 57.8946C32.5109 55.3521 33.0291 53.1416 35.0372 51.4412C35.9846 50.6396 36.1222 49.7975 35.6364 48.6072C35.1991 47.5384 35.1425 46.3157 34.8429 44.7934C30.187 43.9999 30.4056 39.3197 28.7619 35.9513C28.4542 35.3278 29.8631 33.3764 30.7457 33.2307C31.8469 33.0525 32.4299 33.838 32.7133 34.8096C33.0048 35.8056 33.5473 36.8501 33.4421 37.8218C33.021 41.7246 35.523 43.3683 38.5271 44.3967C39.6202 44.7691 40.3975 45.2793 41.1344 46.0404C41.9279 46.8582 41.4987 47.4898 40.8348 48.0566C39.9522 48.8015 38.5838 48.7853 38.5028 48.0161C38.4623 47.506 39.2477 46.923 39.6769 46.3481ZM36.608 51.3683C34.3246 54.3238 33.1991 56.8258 34.357 59.8218C35.3692 62.4291 38.2761 64.2347 40.9643 63.8703C43.7174 63.4979 45.2234 61.8461 46.0817 59.1578C46.8753 56.672 45.9927 54.6963 44.6728 52.9797C43.1344 50.9797 40.8995 50.4129 38.2113 51.4088C39.1425 53.2793 40.0331 54.8744 40.7214 56.5586C40.8833 56.9473 40.3489 57.6274 40.1303 58.1699C39.8064 57.8542 39.3692 57.595 39.1829 57.2145C38.3651 55.4574 37.6202 53.6679 36.608 51.3683Z" fill="#F3F3F4"/>
<path d="M63.5146 52.2752C62.6563 51.8137 61.8628 51.3926 60.9073 50.8825C57.8223 53.093 56.3162 56.6153 53.9681 59.4169C52.5349 61.1173 51.3689 63.0444 50.0086 64.8096C49.8223 65.0525 49.215 64.9716 48.8021 65.0363C48.7373 64.6153 48.4782 64.0971 48.632 63.7894C51.4094 58.2995 54.2191 52.8177 57.0936 47.3845C57.5146 46.5829 58.3486 46.008 59.2069 45.093C61.8142 46.5181 64.4701 47.8784 67.0288 49.3926C68.5997 50.3238 68.8183 51.4736 67.7818 52.6882C65.6199 55.2145 63.4094 57.7084 61.1665 60.1537C60.883 60.4614 60.2515 60.4371 59.7899 60.5748C59.7656 60.1133 59.5713 59.5465 59.7575 59.1983C60.8102 57.2388 61.9681 55.3278 63.0693 53.3926C63.2555 53.0687 63.3527 52.6963 63.5146 52.2752Z" fill="#F3F3F4"/>
<path d="M33.0936 45.7491C31.0936 48.2916 29.5389 50.2754 27.96 52.2916C28.5754 55.0365 29.7819 57.7329 29.4499 60.6964C29.4175 60.9717 28.9964 61.3847 28.7454 61.3928C28.462 61.4009 27.9924 61.0932 27.8952 60.8179C25.79 54.7936 23.709 48.7612 21.6604 42.7126C21.0207 40.826 21.2151 39.7086 22.3244 39.1418C23.6037 38.4859 24.794 38.5993 25.9681 39.6762C28.2191 41.7167 30.5997 43.6276 33.0936 45.7491ZM26.9479 45.1742C27.0855 46.5102 27.1746 47.4171 27.2798 48.4859C28.8669 47.4009 29.045 46.5021 26.9479 45.1742Z" fill="#F3F3F4"/>
<path d="M24.2031 24.2833C26.6161 21.9351 29.28 21.7813 31.6282 21.0039C34.0412 20.2023 36.5756 19.7408 39.1019 19.1173C38.2841 17.7246 37.361 17.4898 35.9845 18.0809C34.5675 18.6881 33.029 19.0444 31.5149 19.3845C31.1829 19.4574 30.7213 18.9553 30.3246 18.7205C30.5108 18.4128 30.6161 17.9594 30.8914 17.8217C33.2315 16.6396 35.7173 15.7003 37.9197 14.3157C39.1019 13.5707 39.9926 14.34 40.3003 14.6881C41.5958 16.1456 42.7942 17.7651 43.6768 19.4979C44.8752 21.8541 43.442 24.2104 40.8266 24.259C35.4825 24.3481 30.1464 24.2833 24.2031 24.2833Z" fill="#F3F3F4"/>
<path d="M25.4253 57.4979C25.1095 62.3805 22.1055 65.1983 17.814 65.4898C13.4658 65.7975 9.96783 61.9756 10.0002 57.3764C10.0326 52.7611 13.5792 48.9878 17.9354 49.3764C22.1784 49.757 25.1824 52.5343 25.4253 57.4979ZM17.7573 50.9716C14.2917 50.9635 11.8788 53.6275 11.5954 57.255C11.3686 60.17 13.9516 63.8137 17.482 63.9028C21.0771 63.9999 23.8302 61.1416 23.7897 57.3279C23.7492 53.6518 21.2148 50.9716 17.7573 50.9716Z" fill="#F3F3F4"/>
<path d="M53.8791 44.8259C54.0978 42.8826 54.2192 40.9149 54.5998 39.004C54.7293 38.34 55.3852 37.6275 56.0006 37.255C57.3366 36.4453 58.8751 35.9595 60.1949 35.1255C61.4095 34.3562 61.9682 35.1255 62.4378 35.8866C63.0046 36.7935 62.7455 37.7732 61.863 38.3158C61.1099 38.7773 60.2111 39.0931 59.3366 39.2469C57.2152 39.6356 56.2921 40.8421 56.1787 42.9635C56.114 44.1052 55.6929 45.2469 55.3285 46.3481C55.2476 46.5911 54.697 46.8502 54.4217 46.7935C54.1625 46.7368 53.8872 46.3077 53.7982 45.9919C53.6929 45.6194 53.7739 45.1983 53.7739 44.7935C53.8063 44.8178 53.8468 44.8259 53.8791 44.8259Z" fill="#F3F3F4"/>
<path d="M69.8456 37.0688C69.9023 38 70.1047 38.5263 69.9266 38.7612C68.1938 41.0203 66.4043 43.2308 64.38 45.7571C63.6918 44.6721 62.7525 43.417 62.8577 43.328C64.1695 42.1539 62.5177 39.6437 64.8335 39.0284C65.0521 39.4899 65.2788 39.9433 65.6432 40.6964C67.0197 39.5061 68.2909 38.413 69.8456 37.0688Z" fill="#F3F3F4"/>
<path d="M49.2385 24.1619C47.5138 24.421 45.8134 24.6801 45.117 22.4534C44.8255 21.5222 45.4976 20.0405 46.5826 19.3441C47.5866 18.7044 48.9308 18.9474 49.9186 20.0162C51.4652 21.6842 49.8134 22.8421 49.2385 24.1619Z" fill="#F3F3F4"/>
<path d="M64.4212 35.9352C63.6763 35.2874 63.1419 34.915 62.737 34.4453C61.3929 32.8988 61.9192 30.6235 63.903 30.0891C64.6075 29.9028 65.733 30.3886 66.2998 30.9474C66.7451 31.3765 66.9394 32.5425 66.6722 33.1093C66.1945 34.1052 65.2876 34.8826 64.4212 35.9352Z" fill="#F3F3F4"/>
<path d="M36.6722 30.672C37.8705 30.6153 39.1418 31.8866 39.1418 33.1497C39.1418 34.2186 38.0163 35.5303 37.0608 35.6032C35.1985 35.7327 34.2754 34.9149 34.2754 33.1335C34.2754 31.4898 34.9879 30.7611 36.6722 30.672Z" fill="#F3F3F4"/>
<path d="M50.5996 24.243C51.0045 23.3361 51.134 22.4049 51.6441 22.0811C52.2271 21.7086 53.1583 21.8624 53.9356 21.7977C54.2028 21.7815 54.6158 21.7086 54.7211 21.8462C55.7008 23.1337 57.6522 21.8705 58.5429 23.3199C57.4903 25.1985 55.7575 24.0082 54.3486 24.2106C53.1826 24.3726 51.9761 24.243 50.5996 24.243Z" fill="#F3F3F4"/>
</g>
<defs>
<clipPath id="clip0">
<rect width="60" height="51.6194" fill="white" transform="translate(10 14)"/>
</clipPath>
</defs>
</svg>
