<svg width="80" height="80" viewBox="0 0 80 80" fill="none" xmlns="http://www.w3.org/2000/svg">
<rect width="80" height="80" fill="#A37D52"/>
<g clip-path="url(#clip0)">
<path d="M55.6185 33.1208C51.6089 35.6812 50.72 39.4397 49.6765 43.488C51.889 43.9711 53.6958 44.3769 55.5026 44.7633C56.9422 45.0725 57.7055 45.9034 57.6765 47.43C57.6475 49.3624 57.4543 51.3237 57.7055 53.2174C58.2948 57.5653 55.319 59.3044 52.2079 61.5266C51.6861 59.5749 51.1064 57.6812 52.8359 56.9179C54.8166 56.0387 54.7973 54.744 54.7103 53.1208C54.662 52.1546 54.7006 51.1885 54.7006 49.9614C52.3721 49.1498 49.976 49.7778 47.5026 49.5653C46.4977 54.4638 45.3093 59.2851 44.6233 64.1836C44.3915 65.8165 45.4543 67.6329 46.005 69.6716C44.8842 69.7682 43.8118 69.8648 42.2562 70.0001C42.0147 66.5508 42.1596 63.2271 42.1403 59.9131C42.1113 56.5701 42.1306 53.2271 42.1306 49.6716C38.2176 49.4204 34.6137 49.6232 31.0291 48.7247C24.2659 47.0339 19.319 43.5266 17.0195 36.7633C16.8842 36.3769 17.0968 35.8648 17.1837 35.1305C20.8746 35.1305 24.5171 35.1305 28.604 35.1305C28.3818 34.2223 28.2755 33.6909 28.1306 33.1595C27.5605 31.1015 27.9857 31.0822 30.1886 31.0146C32.9132 30.9373 34.4591 32.8213 36.5171 33.8455C37.2031 34.1836 37.8021 34.802 38.5267 34.9662C38.9905 35.0725 39.8697 34.7247 40.0726 34.3286C40.3045 33.8841 40.1982 32.9083 39.8601 32.5991C39.1837 32.0001 38.2659 31.5653 37.3866 31.3044C33.2417 30.0484 31.0485 26.715 29.0291 23.3141C27.9084 21.43 28.8939 19.8165 31.0388 19.6039C32.1113 19.4976 33.0002 19.488 33.6475 20.9566C34.72 23.3817 35.7828 25.9421 38.063 27.6232C38.8262 28.1836 39.5412 28.8117 40.3528 29.2851C42.749 30.686 42.8069 30.7054 44.8649 28.9276C47.889 26.3189 51.406 25.2078 55.3287 25.4493C56.5461 25.5266 57.7441 25.9711 59.1161 26.2899C59.9663 25.1305 60.8842 23.8841 62.2465 22.0387C62.2755 25.7972 62.7973 28.744 61.7055 31.9131C60.9615 34.0774 61.6089 36.6957 61.4736 39.1015C61.4446 39.7199 60.9518 40.6474 60.4398 40.8406C59.4446 41.2175 58.8166 40.715 58.4108 39.5363C57.6861 37.3431 56.5944 35.2851 55.6185 33.1208Z" fill="#F3F3F4"/>
<path d="M26.6035 14.5797C27.1736 12.8792 27.6373 11.4686 28.1301 10C30.1108 10 32.0141 10 33.9948 10C34.4779 11.4783 34.9417 12.8889 35.4924 14.5797C32.4393 14.5797 29.6567 14.5797 26.6035 14.5797Z" fill="#F3F3F4"/>
</g>
<defs>
<clipPath id="clip0">
<rect width="45.4106" height="60" fill="white" transform="translate(17 10)"/>
</clipPath>
</defs>
</svg>
