<svg width="80" height="80" viewBox="0 0 80 80" fill="none" xmlns="http://www.w3.org/2000/svg">
<rect width="80" height="80" fill="#A37D52"/>
<g clip-path="url(#clip0)">
<path d="M51.4066 10C52.0368 10.502 52.5068 10.7905 52.8486 11.1857C55.0598 13.6532 55.1238 15.1914 52.8913 17.4987C49.174 21.3228 45.3286 25.0294 41.6006 28.8642C36.4947 34.1196 31.4635 39.4392 26.1012 45.0365C27.351 46.3931 28.3017 47.6001 29.434 48.6256C31.9122 50.8581 34.4438 53.0372 37.0181 55.1522C39.1651 56.9147 41.419 58.5384 43.6302 60.2261C46.2793 58.3781 49.4518 59.7241 52.3145 58.7947C54.2479 58.1645 56.4911 58.047 58.5314 58.2606C61.6825 58.5918 62.9002 60.4504 63.0071 63.6336C63.1566 67.917 60.6036 69.5727 58.1682 69.9039C56.5979 70.1175 54.9743 69.9466 53.372 69.9466C50.1675 69.9466 46.9629 69.8718 43.769 69.968C40.4576 70.0641 38.2038 68.4618 36.2383 65.9836C33.194 62.1488 29.9894 58.4315 26.7956 54.7036C26.4217 54.2656 25.7167 54.0947 24.563 53.4965C25.5778 55.8572 25.6419 57.545 27.6608 58.9229C30.2778 60.7068 32.8201 63.0782 33.9738 66.6245C28.8892 66.6245 23.9435 66.6245 18.7201 66.6245C17.6626 64.9368 15.9321 63.2491 17.8548 60.8243C18.0364 60.5893 17.9723 60.1513 18.0044 59.7988C18.3782 55.4406 18.8803 51.0931 19.0726 46.7349C19.1473 45.122 19.596 43.7226 20.8564 43.1458C25.4603 41.0522 27.5219 36.5231 30.7158 33.1155C33.3328 30.3276 35.4051 27.0482 37.8299 24.0787C41.2588 19.87 44.7518 15.7041 48.3302 11.613C48.9711 10.8759 50.1461 10.6302 51.4066 10Z" fill="#F3F3F4"/>
<path d="M44.7194 53.0692C42.6258 51.4456 40.7458 49.9181 38.791 48.4867C37.2849 47.3865 37.178 45.8803 37.2955 44.2567C37.616 39.9199 42.4442 34.8887 46.6849 34.8246C48.1269 34.8032 49.9215 35.3267 50.9683 36.256C52.9658 38.0398 55.7324 39.3964 55.5722 42.868C55.4761 44.9296 57.1531 45.2821 58.8515 45.4531C59.1399 45.4851 59.5993 46.2008 59.5565 46.564C59.5245 46.8951 58.9583 47.4078 58.5845 47.4399C57.3561 47.5574 56.117 47.536 54.8779 47.504C52.2501 47.4399 49.6651 47.0446 48.5115 50.5269C48.191 51.5417 46.3217 52.0438 44.7194 53.0692Z" fill="#F3F3F4"/>
</g>
<defs>
<clipPath id="clip0">
<rect width="46.0281" height="60" fill="white" transform="translate(17 10)"/>
</clipPath>
</defs>
</svg>
