<svg width="20" height="21" viewBox="0 0 20 21" fill="none" xmlns="http://www.w3.org/2000/svg">
<rect width="20" height="20" transform="translate(0 0.5)" fill="none"/>
<path d="M10 15.5C12.2091 15.5 14 13.7091 14 11.5C14 9.29086 12.2091 7.5 10 7.5C7.79086 7.5 6 9.29086 6 11.5C6 13.7091 7.79086 15.5 10 15.5Z" fill="#464655"/>
<path fill-rule="evenodd" clip-rule="evenodd" d="M7.69231 3.20312C7.69231 2.82227 7.98077 2.5 8.38462 2.5H11.6154C11.9904 2.5 12.3077 2.82227 12.3077 3.20312C12.3077 3.61328 11.9904 3.90625 11.6154 3.90625H10.6923V5.37109C11.9327 5.51758 13.0577 6.04492 13.9519 6.86523L14.8173 5.98633C15.0769 5.72266 15.5096 5.72266 15.7692 5.98633C16.0577 6.2793 16.0577 6.71875 15.7692 6.98242L14.875 7.89062C15.5673 8.88672 16 10.1172 16 11.4062C16 14.7754 13.2885 17.5 10 17.5C6.68269 17.5 4 14.7754 4 11.4062C4 8.30078 6.30769 5.72266 9.30769 5.37109V3.90625H8.38462C7.98077 3.90625 7.69231 3.61328 7.69231 3.20312ZM10 16.0938C12.5385 16.0938 14.6154 14.0137 14.6154 11.4062C14.6154 8.82812 12.5385 6.71875 10 6.71875C7.43269 6.71875 5.38462 8.82812 5.38462 11.4062C5.38462 14.0137 7.43269 16.0938 10 16.0938Z" fill="#464655"/>
<path d="M11.9833 12.1667V13.4833L10.6667 13.4833C10.1052 13.4833 9.65 13.9385 9.65 14.5C9.65 15.0615 10.1052 15.5167 10.6667 15.5167H11.9833V16.8333C11.9833 17.3948 12.4385 17.85 13 17.85C13.5615 17.85 14.0167 17.3948 14.0167 16.8333V15.5167H15.3333C15.8948 15.5167 16.35 15.0615 16.35 14.5C16.35 13.9385 15.8948 13.4833 15.3333 13.4833L14.0167 13.4833V12.1667C14.0167 11.6052 13.5615 11.15 13 11.15C12.4385 11.15 11.9833 11.6052 11.9833 12.1667Z" fill="#57A600" stroke="white" stroke-width="0.7"/>
</svg>
