<svg width="75" height="75" viewBox="0 0 75 75" fill="none" xmlns="http://www.w3.org/2000/svg">
<path d="M37.4999 0C30.0831 0 22.833 2.19933 16.6662 6.31989C10.4993 10.4404 5.69279 16.2972 2.8545 23.1494C0.016208 30.0016 -0.726364 37.5416 0.720584 44.8159C2.16753 52.0902 5.73882 58.7721 10.9833 64.0165C16.2278 69.261 22.9098 72.8325 30.1841 74.2794C37.4584 75.7264 44.9984 74.9838 51.8507 72.1455C58.7029 69.3072 64.5594 64.5007 68.6799 58.3339C72.8005 52.167 75 44.9168 75 37.5C75 27.5544 71.0492 18.0161 64.0166 10.9835C56.984 3.95088 47.4456 0 37.4999 0Z" fill="#FC4842"/>
<path d="M61.8751 39.375H58.1251V43.125H50.6251V46.875H43.1251V50.625H35.6251V54.375H28.125V58.125H24.375V16.875H28.125V20.625H35.6251V24.375H43.1251V28.125H50.6251V31.875H58.1251V35.625H61.8751V39.375Z" fill="white"/>
</svg>
