<svg width="80" height="80" viewBox="0 0 80 80" fill="none" xmlns="http://www.w3.org/2000/svg">
<rect width="80" height="80" fill="#A37D52"/>
<g clip-path="url(#clip0)">
<path d="M40.2441 54.4261C39.0523 51.4025 43.4437 51.9785 43.2517 49.1229C41.42 49.7628 39.6122 50.0427 38.2044 50.9466C35.6127 52.6024 32.6611 53.4023 29.8455 53.8342C25.3661 54.5221 20.9587 53.6582 17.8711 49.7148C20.4308 48.5069 22.9504 47.3231 25.894 45.9313C25.0701 45.0674 24.5102 44.4355 23.8943 43.8596C22.9664 42.9877 23.1344 41.8918 23.3904 40.8919C23.7263 39.5401 25.1821 39.2682 26.102 40.372C27.1819 41.6678 28.1497 43.0677 29.2696 44.5555C30.7174 43.7956 32.3012 43.5556 33.221 41.4919C31.7492 41.3799 30.6374 41.3239 29.5255 41.2039C27.5738 40.9959 27.1179 40.196 27.9418 38.4363C28.6057 37.0285 29.1896 35.5647 30.0375 34.2848C30.3494 33.8129 31.3813 33.5409 31.9972 33.6449C32.3892 33.7169 32.7331 34.6208 32.9251 35.2047C33.469 36.8765 31.6373 37.6364 31.1733 39.1482C32.7331 39.8281 34.0049 39.9641 35.1088 38.5803C36.8766 36.3486 39.1483 34.7808 41.9319 34.3088C43.6437 34.0209 44.3236 32.717 45.2514 31.3972C46.4353 34.9407 47.3632 38.1563 48.611 41.2439C49.1469 42.5637 48.355 42.8757 47.6751 43.5476C46.2673 42.1878 44.8755 40.828 43.5557 39.5481C40.948 40.596 41.436 43.2036 40.2921 44.8514C40.2601 44.8994 41.012 45.7873 41.364 45.7713C42.3798 45.7153 43.3717 45.2274 44.3796 45.2114C46.0113 45.1874 46.5473 46.0913 46.0433 47.699C46.0033 47.819 45.8594 47.923 45.8434 48.043C45.4114 51.3786 44.0596 53.9622 40.2441 54.4261Z" fill="#F3F3F4"/>
<path d="M50.0184 58.0896C49.7144 57.4736 49.2425 56.9617 49.2665 56.4818C49.3065 55.7379 49.6025 54.97 49.9224 54.2741C52.3381 49.1148 54.7938 43.9794 57.3134 38.6602C58.2653 38.8281 59.2172 38.8281 60.0091 39.1801C61.7928 39.972 63.5046 40.9159 65.2324 41.8357C66.5122 42.5156 67.0241 43.8995 66.2322 44.9553C64.1445 47.7469 61.9528 50.4586 59.4891 53.6102C59.2172 52.5783 58.8172 51.9384 58.9852 51.5704C60.0491 49.3627 61.2409 47.219 62.4807 44.8753C61.3369 44.4514 60.193 44.0354 59.1052 43.6355C56.0736 48.4508 53.114 53.1702 50.0184 58.0896Z" fill="#F3F3F4"/>
<path d="M38.3797 14.4955C37.6438 13.2077 36.7319 12.9277 35.3721 13.5356C34.0923 14.1036 32.7165 14.4475 31.3567 14.7995C31.1487 14.8555 30.7487 14.4635 30.5648 14.1915C30.4688 14.0556 30.5888 13.5836 30.7407 13.5036C33.0364 12.3118 35.3321 11.104 37.6998 10.0641C38.1318 9.87212 39.0676 10.2081 39.4356 10.608C40.7474 12.0558 42.1232 13.5196 43.0831 15.1994C44.2589 17.2471 41.8193 20.0948 39.2596 19.4868C38.0598 19.1989 37.1879 18.9189 36.068 19.5748C34.9802 20.2147 34.1403 18.223 32.7965 19.2069C31.8206 19.9188 30.6128 19.8548 29.4769 19.1269C29.165 18.9269 28.493 19.0709 28.0851 19.2549C27.2132 19.6548 26.1654 20.1507 25.8134 18.9589C25.4375 17.6471 27.0692 17.6311 27.6772 17.4391C31.1887 16.3113 34.7962 15.4474 38.3797 14.4955Z" fill="#F3F3F4"/>
<path d="M54.5062 62.8089C53.3384 64.4407 50.6188 64.2967 50.0908 66.6644C47.2352 66.4804 45.4435 68.7201 43.0918 69.664C42.0839 70.0719 40.7401 70.0879 39.6842 69.792C37.4765 69.1761 35.3568 68.2402 33.0371 67.3763C33.0371 66.2485 33.0371 65.1126 33.0371 64.0087C33.645 63.4008 35.7647 63.3448 36.7886 63.9448C37.3485 64.2727 37.8445 64.7207 38.3324 65.1526C40.5401 67.0803 42.9558 67.3363 45.4835 65.9365C46.4273 65.4166 47.8111 65.6405 48.2831 64.1207C48.3871 63.7768 49.9389 63.9448 50.7947 63.7608C52.0346 63.4888 53.2584 63.1209 54.4823 62.7849L54.5062 62.8089Z" fill="#F3F3F4"/>
<path d="M17.215 42.3236C13.5835 40.0199 13.8555 36.5084 12.1197 34.1247C11.9357 33.8687 11.9757 33.2848 12.1277 32.9648C12.9676 31.2131 13.8235 29.4693 14.7913 27.7895C15.4073 26.7257 16.6071 26.4857 17.495 27.0536C18.6148 27.7655 18.8468 28.9654 18.0069 30.0772C17.607 30.6051 17.023 30.9891 16.6631 31.533C15.5672 33.1808 14.6554 34.7406 15.9272 36.9083C16.7191 38.2361 16.7111 40.0359 17.215 42.3236Z" fill="#F3F3F4"/>
<path d="M20.8389 26.3578C21.4788 26.2298 22.0467 26.0219 22.6146 26.0139C25.2623 25.9819 27.9099 25.9979 30.5576 25.9979C31.9894 25.9979 33.1892 25.5659 34.549 24.958C36.2768 24.1901 38.5645 24.67 40.6122 24.646C40.6842 24.646 40.8362 25.094 40.8042 25.31C40.7722 25.5339 40.5722 25.8859 40.4203 25.9019C39.6364 25.9819 38.8445 26.0059 38.0526 25.9899C36.7248 25.9579 35.6369 26.1658 34.4451 27.0697C33.3172 27.9256 31.6054 28.2136 30.1096 28.3416C27.9179 28.5335 25.7262 28.4135 23.5665 29.1654C22.3347 29.5894 22.1907 29.2934 20.8389 26.3578Z" fill="#F3F3F4"/>
<path d="M52.8987 36.5086C52.8987 35.8447 52.9867 35.1648 52.8827 34.5168C52.6667 33.157 53.2746 32.2132 54.2665 31.4533C55.1944 30.7414 56.1063 29.9415 57.1621 29.5015C57.93 29.1816 58.9699 29.1896 59.7858 29.4135C60.9696 29.7335 61.1776 31.2133 60.1697 31.8612C59.3138 32.4131 58.37 33.005 57.3941 33.157C55.6743 33.421 55.2264 34.3889 55.2824 35.9007C55.3064 36.4286 55.4344 37.3165 55.2104 37.4285C53.9386 38.0684 55.2744 40.3881 53.7226 40.2361C52.0188 40.0761 53.2426 38.2923 52.8987 37.2925C52.8267 37.0605 52.8907 36.7725 52.8987 36.5086Z" fill="#F3F3F4"/>
<path d="M28.1889 62.641C30.3806 63.1289 30.8606 63.7368 30.4846 65.1526C30.1487 66.4245 29.0848 67.1044 27.797 66.7284C26.8291 66.4485 25.9172 65.9845 24.8934 65.5686C24.8934 64.9367 24.6694 64.1608 24.9334 63.6568C26.1252 61.3771 27.429 59.1534 28.7808 56.9697C28.9728 56.6658 29.6527 56.6658 30.1087 56.5298C30.1327 56.9857 30.3086 57.4977 30.1647 57.8896C29.5887 59.4334 28.9008 60.9452 28.1889 62.641Z" fill="#F3F3F4"/>
<path d="M61.9614 32.3969C62.6893 33.0289 63.1932 33.4608 63.7611 33.9567C64.465 32.9969 65.1129 32.021 65.8568 31.1331C66.0408 30.9171 66.6567 30.8131 66.8887 30.9571C67.1287 31.1011 67.3526 31.757 67.2247 31.941C65.9288 33.8847 64.585 35.8045 63.1692 37.6602C62.9932 37.8842 62.1853 37.8522 61.8334 37.6522C61.5134 37.4683 61.2255 36.8763 61.2654 36.5004C61.3934 35.2206 61.6814 33.9567 61.9614 32.3969Z" fill="#F3F3F4"/>
<path d="M46.5964 13.8635C47.1483 14.3355 47.5882 14.6234 47.9242 15.0154C49.404 16.7271 48.8041 18.8469 46.6523 19.5908C45.6045 19.9507 44.3247 19.0548 44.0927 17.791C43.7327 15.9033 44.9006 14.9114 46.5964 13.8635Z" fill="#F3F3F4"/>
<path d="M19.455 26.1099C17.9912 25.318 16.4634 24.9181 16.8873 23.0064C17.1433 21.8625 17.7512 21.1986 19.023 21.1266C20.2229 21.0546 21.2387 21.4226 21.5987 22.5104C22.1906 24.2862 20.6548 25.0381 19.455 26.1099Z" fill="#F3F3F4"/>
<path d="M60.0649 24.4622C63.5685 24.5261 64.3284 25.1101 64.1364 27.1498C64.0244 28.3416 63.4085 29.0855 62.2246 29.1975C60.9848 29.3095 60.2729 28.5576 60.0969 27.4218C59.9529 26.5419 60.0649 25.638 60.0649 24.4622Z" fill="#F3F3F4"/>
<path d="M56.4254 18.271C55.5775 18.8709 54.8576 19.6628 54.5777 19.5268C52.7619 18.6629 50.9622 19.4468 49.0664 19.6388C49.4184 18.447 49.6903 17.5191 50.0183 16.3752C52.082 16.9912 54.0817 17.5831 56.4254 18.271Z" fill="#F3F3F4"/>
<path d="M35.2938 34.0129C34.518 33.293 33.7341 32.5731 32.7422 31.6532C33.4541 30.8053 34.174 29.9575 35.1499 28.7976C36.1737 29.8135 37.0376 30.6614 37.7735 31.3973C37.3816 33.045 34.6219 31.7172 35.3098 33.9969L35.2938 34.0129Z" fill="#F3F3F4"/>
<path d="M32.8524 59.4734C32.8524 59.2094 32.8444 58.9455 32.8524 58.6815C32.9244 57.3937 33.4283 56.9058 34.4761 57.2177C35.7 57.5777 35.196 58.2416 34.8121 59.0015C34.6281 59.3694 34.7081 60.0173 34.9241 60.4013C35.436 61.3052 35.396 61.8731 34.2602 62.0251C33.2603 62.1611 32.7964 61.6651 32.8364 60.6733C32.8684 60.2653 32.8524 59.8654 32.8524 59.4734Z" fill="#F3F3F4"/>
<path d="M36.0852 63.1368C36.0852 60.8411 36.0692 59.2733 36.1092 57.7056C36.1172 57.5456 36.4531 57.3056 36.6691 57.2576C36.8851 57.2096 37.237 57.2736 37.381 57.4256C38.8448 58.9934 38.6608 60.0012 36.0852 63.1368Z" fill="#F3F3F4"/>
<path d="M54.4824 62.7931C56.2262 61.1373 58.4179 60.4174 60.6576 59.7935C58.8978 61.4092 57.0821 62.905 54.4984 62.809L54.4824 62.7931Z" fill="#F3F3F4"/>
<path d="M35.3012 34.0049C35.5011 34.1089 35.7091 34.2049 35.9091 34.3088C35.7971 34.4128 35.6931 34.5248 35.5811 34.6288C35.4851 34.4208 35.3811 34.2209 35.2852 34.0129L35.3012 34.0049Z" fill="#F3F3F4"/>
</g>
<defs>
<clipPath id="clip0">
<rect width="55.2646" height="60" fill="white" transform="translate(12 10)"/>
</clipPath>
</defs>
</svg>
