<svg width="80" height="80" viewBox="0 0 80 80" fill="none" xmlns="http://www.w3.org/2000/svg">
<rect width="80" height="80" fill="#A37D52"/>
<g clip-path="url(#clip0)">
<path d="M68.574 40.0815C67.1478 40.3474 66.1002 40.4199 65.1413 40.7503C64.1663 41.0807 64.1502 42.096 65.0285 42.7809C65.3347 43.0227 65.7135 43.1758 66.0116 43.4175C66.7932 44.0622 66.8899 44.9083 66.0116 45.3756C64.0213 46.4312 63.8843 48.3249 63.4008 50.1782C61.757 56.4715 59.3073 62.3619 54.3033 66.818C53.0221 67.9542 51.6764 69.042 50.2179 69.9284C49.815 70.1782 48.9205 69.6222 47.6151 69.2676C56.5837 63.8768 60.3388 55.9155 62.1357 46.4151C54.3194 47.237 46.9705 48.4296 39.4282 50.1782C39.4282 47.7205 39.4282 45.4965 39.4282 42.9904C40.2985 42.934 41.3218 42.8132 42.3452 42.8051C48.2517 42.789 54.1583 42.7971 60.0567 42.7971C60.7255 42.7971 61.4185 42.8615 62.0551 42.7165C62.2888 42.6601 62.5708 42.0799 62.5386 41.7656C62.4902 41.3144 62.2646 40.6294 61.9423 40.5166C61.338 40.3071 60.6208 40.428 59.952 40.428C50.9592 40.428 41.9665 40.428 32.9737 40.428C31.7892 40.428 30.7739 40.4763 29.6619 41.3547C28.4209 42.3458 26.6401 42.6601 24.9479 43.3289C24.5773 44.8035 24.1502 46.5521 23.7392 48.1717C21.5797 49.0662 19.9842 47.7608 18.3323 47.1887C16.3662 46.5037 14.5853 45.3192 12.6756 44.457C11.5877 43.9816 10.9431 43.3369 10.9995 42.0799C11.0398 41.266 11.1446 40.7745 12.0471 40.2427C13.4653 39.4046 14.8674 39.5577 16.3017 39.5577C30.5241 39.5336 44.7546 39.5416 58.977 39.5416C60.0406 39.5416 61.1043 39.5416 62.2969 39.5416C63.2477 36.0041 62.176 32.6681 61.483 29.4046C60.4355 24.4892 57.7521 20.2588 54.8271 16.2378C53.9085 14.9808 52.5144 14.0622 51.3138 13.0227C50.6208 12.4183 49.8392 11.9026 49.1865 11.258C48.9689 11.0404 49.0172 10.5408 48.9447 10.1782C49.404 10.1298 49.952 9.89616 50.3146 10.0654C51.1446 10.4441 51.9423 10.9356 52.6434 11.5239C58.4048 16.3668 61.6522 22.6681 63.4733 29.872C64.0293 32.0799 64.2711 34.2556 64.2791 36.5118C64.2872 39.1709 64.3436 39.1629 67.2122 39.5658C67.5426 39.6061 67.8488 39.7995 68.574 40.0815Z" fill="#F3F3F4"/>
<path d="M32.1693 37.5826C28.8172 37.1555 27.8502 36.0194 27.9066 32.3852C27.9549 29.0653 29.5504 27.3812 32.5641 27.4617C34.8043 27.5262 37.8744 30.4432 37.5037 32.4899C37.262 33.8195 36.5851 35.27 35.6423 36.1966C34.8123 37.0024 33.3458 37.1475 32.1693 37.5826Z" fill="#F3F3F4"/>
</g>
<defs>
<clipPath id="clip0">
<rect width="57.5745" height="60" fill="white" transform="translate(11 10)"/>
</clipPath>
</defs>
</svg>
