<svg width="44" height="44" viewBox="0 0 44 44" fill="none" xmlns="http://www.w3.org/2000/svg">
<rect width="44" height="44" fill="white"/>
<path fill-rule="evenodd" clip-rule="evenodd" d="M44 0H0V44H44V0ZM38.0703 11.888C37.188 13.2115 36.0536 14.3458 34.7932 15.2911V16.1734C34.7932 24.9333 28.176 34.9536 16.013 34.9536C12.2318 34.9536 8.76562 33.8823 5.86667 31.9917C6.37083 32.0547 6.875 32.1177 7.44219 32.1177C10.5302 32.1177 13.3661 31.0464 15.6349 29.2818C12.7359 29.2188 10.2781 27.3281 9.45885 24.6813C9.50849 24.6883 9.55733 24.6954 9.60555 24.7024C9.98589 24.7577 10.3278 24.8073 10.7193 24.8073C11.2865 24.8073 11.9167 24.6813 12.4208 24.5552C9.39583 23.925 7.12708 21.2781 7.12708 18.0641V18.001C8.00937 18.5052 9.08073 18.7573 10.1521 18.8203C8.32448 17.6229 7.1901 15.6063 7.1901 13.3375C7.1901 12.0771 7.50521 10.9427 8.0724 9.9974C11.3495 13.9677 16.2651 16.6146 21.7479 16.9297C21.6219 16.4255 21.5589 15.9214 21.5589 15.4172C21.5589 11.762 24.5208 8.8 28.176 8.8C30.0667 8.8 31.7682 9.55625 33.0286 10.8797C34.4781 10.5646 35.9276 9.9974 37.188 9.24115C36.6839 10.8167 35.6755 12.0771 34.2891 12.8964C35.6125 12.7703 36.9359 12.3922 38.0703 11.888Z" fill="#6B6B76"/>
</svg>
