<svg width="80" height="80" viewBox="0 0 80 80" fill="none" xmlns="http://www.w3.org/2000/svg">
<rect width="80" height="80" fill="#A37D52"/>
<g clip-path="url(#clip0)">
<path d="M60.6503 48.5377C60.5359 47.1747 60.2214 46.4122 60.4787 46.0119C61.4986 44.4297 61.327 42.7141 61.3747 40.9984C61.3937 40.3598 61.1364 39.5115 61.4509 39.1303C63.9005 36.1565 62.6805 33.5258 60.5836 30.4853C60.5168 31.7816 60.3643 32.6966 60.4501 33.5925C60.9648 38.9778 59.2682 44.058 58.3913 49.2526C57.9624 51.8165 57.2285 54.3328 56.6185 56.8586C56.1515 58.7935 53.883 60.9571 52.1292 61.1763C50.385 61.386 47.2206 58.8602 47.1253 56.9539C47.0681 55.7625 47.2968 54.4472 47.7734 53.3606C49.632 49.1191 51.6431 44.9539 53.5875 40.7506C53.9783 39.9118 54.5311 39.0635 54.6169 38.1867C55.084 33.3638 55.4271 28.5314 55.8655 23.0127C49.4986 26.8157 43.6463 30.3328 37.775 33.8022C33.2476 36.4805 28.6725 39.0826 24.1356 41.7419C21.0665 43.5338 18.0069 45.3352 14.9759 47.2033C13.9847 47.8133 13.5367 48.4996 14.1658 49.9293C14.7567 51.2732 14.5947 52.9793 14.6519 54.533C14.6614 54.8475 14.1753 55.4289 13.8703 55.467C13.2984 55.5242 12.4596 55.4861 12.126 55.1334C8.73288 51.4543 9.46679 47.9373 13.8989 45.3257C21.8957 40.6172 29.8258 35.7752 37.8036 31.0286C43.389 27.7117 49.022 24.4805 54.6264 21.1922C55.6749 20.5727 56.6757 19.8769 58.0101 19C59.9354 21.3447 61.9465 23.5274 63.6336 25.9293C65.578 28.7125 67.2936 31.6672 69.0093 34.6029C70.3913 36.9666 70.3532 37.224 68.7424 39.1303C66.2166 42.1136 63.6431 45.0588 60.6503 48.5377Z" fill="#F3F3F4"/>
<path d="M36.5637 43.1906C36.5351 40.0643 39.6328 36.6045 42.4636 36.4043C45.9902 36.1469 49.126 39.1493 49.0974 43.1906C49.0688 47.1557 45.8949 49.9293 42.7877 49.834C38.9275 49.7101 36.6018 47.3463 36.5637 43.1906Z" fill="#F3F3F4"/>
</g>
<defs>
<clipPath id="clip0">
<rect width="60" height="42.1859" fill="white" transform="translate(10 19)"/>
</clipPath>
</defs>
</svg>
