<svg width="80" height="80" viewBox="0 0 80 80" fill="none" xmlns="http://www.w3.org/2000/svg">
<rect width="80" height="80" fill="#A37D52"/>
<g clip-path="url(#clip0)">
<path d="M62.8418 57.9811C56.2352 57.9811 50.2559 57.9811 43.5033 57.9811C47.4466 59.6907 50.8401 60.8677 53.9414 62.5773C57.1545 64.3557 60.5222 66.0911 63.3229 69.4158C62.2404 69.6993 61.7593 69.9141 61.2696 69.9399C58.8641 70.0773 56.4586 68.677 54.0531 69.9571C52.0772 68.8402 50.1184 69.2182 48.1081 69.9141C47.6699 70.0687 46.9741 69.8282 46.5273 69.5619C45.5737 68.9777 44.8005 69.055 43.761 69.4674C42.8246 69.8368 41.5016 69.9485 40.5995 69.5704C39.139 68.9605 38.0394 69.1581 36.5961 69.6993C34.0703 70.6443 32.2318 69.2526 31.7937 66.5808C31.6132 65.4983 31.0634 64.4416 31.0462 63.3763C31.0033 61.1684 31.2095 58.9519 31.3383 56.2629C29.5858 55.7646 27.3693 55.0945 25.127 54.5275C23.5978 54.1409 22.4208 54.7938 21.3469 55.9107C20.4105 56.89 19.3194 58.7457 17.9277 57.7835C16.4071 56.744 17.0342 54.8196 17.8504 53.2474C18.1596 52.6546 18.005 51.7354 18.4174 51.2887C18.9242 50.7388 19.7834 50.3608 20.5308 50.2749C20.8143 50.2406 21.2352 51.1942 21.5703 51.7096C21.7765 52.0447 21.8968 52.6375 22.1545 52.6976C27.1201 53.9003 32.0943 55.043 37.0686 56.1856C37.1717 56.2113 37.3177 56.0911 37.438 56.0309C34.0273 52.1993 33.572 51.9845 28.7782 51.9588C28.3486 51.9588 27.9191 51.9674 27.4895 51.9588C25.5136 51.9072 25.5136 51.9072 24.1648 49.3557C30.3675 49.9828 36.0291 51.3316 40.4706 56.8814C43.3658 48.866 44.9724 41.1168 47.206 33.5567C49.4483 25.945 51.261 18.2045 53.8813 10C55.694 12.5258 56.7851 14.6907 57.5754 16.9931C59.7919 23.4364 61.0634 30.0515 62.0858 36.8127C63.1511 43.7801 62.3177 50.6443 62.8418 57.9811Z" fill="#F3F3F4"/>
<path d="M30.0586 56.8213C30.0586 58.6856 30.0586 59.811 30.0586 60.9622C28.6497 61.6666 27.2923 62.3453 25.6686 63.1615C25.2476 62.8179 24.6634 62.4398 24.2167 61.9502C23.0655 60.6701 23.4091 58.5137 24.9727 57.9725C26.4847 57.4484 28.1084 57.2508 30.0586 56.8213Z" fill="#F3F3F4"/>
<path d="M22.4213 46.9073C22.3611 48.4193 21.4934 49.3729 20.2048 49.3471C18.7787 49.3213 17.911 48.1272 18.0656 46.409C18.1945 44.9829 19.234 44.0292 20.4883 44.1839C21.691 44.3299 22.4814 45.4296 22.4213 46.9073Z" fill="#F3F3F4"/>
</g>
<defs>
<clipPath id="clip0">
<rect width="46.323" height="60" fill="white" transform="translate(17 10)"/>
</clipPath>
</defs>
</svg>
