<svg width="80" height="80" viewBox="0 0 80 80" fill="none" xmlns="http://www.w3.org/2000/svg">
<rect width="80" height="80" fill="#A37D52"/>
<g clip-path="url(#clip0)">
<path d="M25.1865 70C24.9023 69.7326 24.4344 69.4903 24.3424 69.1476C24.2254 68.7048 24.2087 67.9861 24.4761 67.7187C26.2394 65.9805 28.0778 64.3092 29.9079 62.6463C30.5096 62.1031 31.1781 61.6268 31.8299 61.1254C34.153 59.3371 35.3062 57.2145 35.0555 54.0557C34.8299 51.2563 35.4232 48.3816 35.7742 45.5488C36.0917 42.9415 39.0082 41.6128 40.9887 43.2507C43.738 45.5237 46.4121 47.9053 48.9692 50.3872C50.7324 52.0919 50.5068 53.8552 48.5096 55.117C46.9218 56.1198 45.3007 57.156 43.5541 57.8245C40.9553 58.8106 39.4761 61.1588 37.2282 62.546C33.777 64.6769 30.4427 67 27.0332 69.2145C26.4817 69.5571 25.8215 69.7326 25.1865 70ZM40.9553 54.4151C42.4511 54.0056 43.3703 53.571 43.128 52.1671C43.1112 52.0585 42.9525 51.9248 42.8355 51.8914C41.2394 51.4736 41.8745 53.2619 41.1057 53.6713C41.0388 53.7131 41.0555 53.8886 40.9553 54.4151Z" fill="#F3F3F4"/>
<path d="M27.6855 36.0807C29.2064 34.5264 30.4348 33.1977 31.7468 31.961C33.5936 30.2228 34.4125 30.3983 35.8248 32.7381C36.1005 33.1977 36.3429 33.6824 36.6771 34.2924C34.5044 37.752 30.7524 39.5403 27.9529 42.3314C27.1089 43.1754 25.1535 42.3899 24.9446 41.1699C24.5518 38.8969 24.2342 36.5988 24.0922 34.3008C23.8749 30.8746 23.9167 27.4902 25.6381 24.298C26.2482 23.1615 26.1479 21.6573 26.5991 20.4039C27.042 19.1671 26.9919 18.3565 26.0058 17.3036C24.6688 15.8579 24.9028 14.1699 26.0894 12.5571C27.2092 11.0445 28.6381 10.5264 30.4264 10.8356C30.8025 10.9025 31.2537 11.0529 31.5044 11.3203C33.2426 13.1671 32.7078 17.1197 30.4432 18.4233C28.6966 19.4261 27.4849 20.5877 27.393 22.7688C27.3429 23.947 27.0588 25.2089 26.549 26.2785C24.8693 29.7715 26.7245 32.688 27.6855 36.0807ZM31.3958 14.7047C31.0198 13.8857 30.8108 13.2339 30.4432 12.674C29.6576 11.4791 28.8721 11.4707 27.7941 12.5821C27.4181 12.9749 26.7746 13.4094 26.7746 13.8272C26.7663 14.8551 26.8415 16.0083 27.3178 16.8607C27.5685 17.3119 29.056 17.6378 29.4237 17.337C30.2927 16.6267 30.8359 15.5069 31.3958 14.7047Z" fill="#F3F3F4"/>
<path d="M42.7021 32.0027C41.2731 30.6072 40.2118 29.571 38.833 28.2339C41.4068 26.8718 43.7801 25.3676 46.3455 24.3398C48.8274 23.3537 51.5015 22.8356 54.1088 22.1838C54.4848 22.0919 54.9611 22.4011 55.3873 22.5264C55.2536 22.9526 55.2536 23.5376 54.9611 23.7715C54.3344 24.2729 53.599 24.6908 52.8469 24.9916C48.9862 26.5125 45.4263 28.4846 42.7021 32.0027Z" fill="#F3F3F4"/>
<path d="M33.56 21.5071C35.8413 22.5099 37.8135 22.9528 37.521 25.5684C37.3371 27.2146 36.2006 28.9862 34.872 29.2202C33.8107 29.404 32.1477 28.3093 31.3873 27.0642C30.936 26.3288 30.5349 25.7606 31.2369 24.8998C32.0725 23.8803 32.741 22.7188 33.56 21.5071Z" fill="#F3F3F4"/>
<path d="M47.298 13.3092C45.6602 13.3092 44.415 13.3593 43.1866 13.2674C42.9276 13.2507 42.5014 12.7493 42.5014 12.4568C42.493 11.9638 42.61 11.1866 42.9276 11.0362C43.8635 10.585 44.9248 10.3844 46.2451 10C46.5543 10.9861 46.8886 12.0306 47.298 13.3092Z" fill="#F3F3F4"/>
</g>
<defs>
<clipPath id="clip0">
<rect width="31.3955" height="60" fill="white" transform="translate(24 10)"/>
</clipPath>
</defs>
</svg>
