<svg width="80" height="80" viewBox="0 0 80 80" fill="none" xmlns="http://www.w3.org/2000/svg">
<rect width="80" height="80" fill="#A37D52"/>
<g clip-path="url(#clip0)">
<path d="M70.0004 25.2259C68.4701 27.2693 66.0376 27.0127 64.0915 27.3489C61.1371 27.8531 58.218 28.375 55.299 29.1092C52.9637 29.693 50.4073 29.0826 48.0544 30.1176C47.0283 30.5598 45.8695 30.8429 44.7549 30.896C42.6231 31.0021 40.5444 31.3471 38.3772 30.2591C30.9911 26.5439 23.4723 23.0853 16.0066 19.5293C15.352 19.202 14.5648 19.0251 14.1048 18.5386C13.6979 18.0963 13.3441 17.1587 13.5475 16.7076C13.751 16.283 14.8124 15.8761 15.3078 16.0353C20.8452 17.8221 26.3206 19.777 31.8491 21.5815C35.352 22.7226 38.8726 24.4033 42.4551 24.5802C47.6386 24.8367 52.8841 25.2701 58.1472 24.1821C61.5174 23.4833 65.1441 23.9875 68.6559 24.0671C69.0982 24.076 69.5227 24.7925 70.0004 25.2259Z" fill="#F3F3F4"/>
<path d="M40.8358 46.9333C41.1366 47.1986 41.6673 47.4375 41.6939 47.7205C42.0565 51.6126 42.3484 55.5135 42.6669 59.4056C42.8261 61.387 43.3038 61.8912 45.409 61.9089C51.8841 61.9532 58.3679 61.9178 64.8429 61.9355C65.8602 61.9355 66.8686 62.0239 67.877 62.1389C68.0185 62.1566 68.1954 62.5989 68.2043 62.8377C68.2043 63.0854 68.0627 63.5011 67.8947 63.5542C67.3462 63.7046 66.7713 63.7931 66.1963 63.7931C48.0893 63.8019 29.9822 63.8019 11.8664 63.8019C11.4241 63.8019 10.9199 63.8727 10.5661 63.6869C10.2741 63.5188 10.0795 63.0412 9.99993 62.6785C9.96455 62.4927 10.2653 62.0593 10.4422 62.0416C11.4683 61.9532 12.4944 61.9266 13.5293 61.9266C20.7297 61.9178 27.9212 61.9266 35.555 61.9266C35.2189 58.636 36.3069 55.4781 34.6881 52.4264C34.5643 52.1964 34.5908 51.8249 34.6616 51.5507C35.5904 47.9328 35.1304 44.1203 36.298 40.5202C36.6076 39.5471 37.0145 39.1668 37.8106 38.7245C38.9252 38.0965 39.8982 37.663 40.9685 38.6891C42.0831 39.7594 42.4281 41.502 41.9681 42.8377C41.5081 44.1734 41.2074 45.571 40.8358 46.9421C39.6859 47.1013 40.0309 48.0124 39.9513 48.7112C39.3675 49.7639 38.3591 50.79 38.2883 51.878C38.0672 55.1774 38.2087 58.4945 38.2087 61.9708C40.7828 60.8563 40.8093 60.8475 40.199 59.0783C39.164 56.0797 38.3591 53.0987 39.8982 50.0027C40.0751 49.6489 39.9336 49.1358 39.9336 48.7024C41.1366 48.552 40.7651 47.6321 40.8358 46.9333Z" fill="#F3F3F4"/>
<path d="M49.7439 46.261C49.8058 48.3309 48.4171 50.3035 46.7806 50.4627C44.9673 50.6485 42.7647 48.4813 42.6055 46.3672C42.464 44.483 44.0473 42.6255 45.8961 42.4928C48.019 42.3424 49.682 43.97 49.7439 46.261Z" fill="#F3F3F4"/>
</g>
<defs>
<clipPath id="clip0">
<rect width="60" height="47.8019" fill="white" transform="translate(10 16)"/>
</clipPath>
</defs>
</svg>
