<svg width="80" height="80" viewBox="0 0 80 80" fill="none" xmlns="http://www.w3.org/2000/svg">
<rect width="80" height="80" fill="#A37D52"/>
<g clip-path="url(#clip0)">
<path d="M53.5873 47.3685C58.806 48.1957 63.6775 48.9923 68.5694 49.7174C69.6622 49.8808 69.9584 50.4425 69.9175 51.4128C69.8767 52.4647 69.315 52.863 68.3141 52.8528C61.8699 52.8425 55.4358 52.8425 48.5831 52.8425C47.9805 50.4732 47.378 48.114 46.7039 45.4689C43.7422 47.3583 41.5465 49.6664 40.2699 52.8936C38.2886 57.9387 36.2256 62.9532 34.1626 67.9574C33.8562 68.703 33.315 69.3464 32.9065 69.9898C31.1397 69.4587 30.6597 68.1617 31.0886 66.834C32.8248 61.5234 34.0299 56.0902 35.1941 50.6264C36.0418 46.6638 38.8911 43.6817 40.995 40.3523C42.3226 38.2587 43.8954 36.3081 45.3354 34.2757C46.4997 32.6417 48.1541 31.7634 49.5328 32.4272C51.0443 33.1523 52.4026 34.1225 52.5558 36.1243C52.8316 39.7906 53.2197 43.4264 53.5873 47.3685Z" fill="#F3F3F4"/>
<path d="M36.1447 36.4919C37.5132 35.2766 39.0145 34.1736 40.2196 32.8153C42.2213 30.5685 44.0391 28.1583 45.9387 25.8093C44.1821 24.6757 42.2723 23.491 40.4034 22.2553C37.5643 20.3659 37.3089 18.7013 39.4945 16.2502C39.9234 15.7702 40.5055 15.4127 41.0672 14.9634C46.0817 17.0468 48.8289 21.1727 51.8417 25.7583C49.0843 28.1072 46.4187 30.3744 43.7634 32.6417C43.2528 33.0808 42.7626 33.5608 42.2621 34.0204C37.1864 38.7285 32.1413 43.4468 27.0451 48.1242C23.8281 51.0757 20.5804 54.017 17.2511 56.8459C16.1481 57.7855 14.7489 58.3881 13.4315 59.1847C12.257 58.1736 11.2562 57.3157 10 56.2434C11.2868 54.834 12.1651 53.874 13.3804 52.5361C13.5643 53.7515 13.6868 54.5174 13.8604 55.6613C14.8204 55.2119 15.903 54.9566 16.6587 54.3132C19.743 51.7191 22.6638 48.9208 25.7685 46.3472C32.0596 41.1285 33.8672 34.1021 34.0919 26.3813C34.1226 25.4008 34.0919 24.4204 34.0919 22.2451C34.8579 23.7464 34.9396 24.2366 35.2357 24.4613C39.1064 27.3923 38.6877 30.8442 36.594 34.5821C36.2877 35.1234 36.2979 35.8485 36.1651 36.4919C35.9098 36.6144 35.6647 36.7268 35.4094 36.8493C35.5319 36.9821 35.6647 37.1149 35.7872 37.2374C35.8996 37.0025 36.0221 36.7472 36.1447 36.4919Z" fill="#F3F3F4"/>
<path d="M31.6825 10C33.3369 10 34.9914 10 36.5948 10C38.8212 14.4017 38.7701 15.6272 36.3191 17.4655C34.971 18.4868 33.1429 18.4357 31.7642 17.3532C29.4152 15.4945 29.3948 14.2383 31.6825 10Z" fill="#F3F3F4"/>
<path d="M18.875 66.5073C18.6299 66.8137 18.2112 67.7328 17.5167 68.0698C16.6793 68.4681 14.6061 66.5481 14.9942 65.7209C15.3414 64.9754 16.332 64.332 17.1695 64.0664C18.3031 63.7294 18.7933 64.383 18.875 66.5073Z" fill="#F3F3F4"/>
</g>
<defs>
<clipPath id="clip0">
<rect width="59.9183" height="60" fill="white" transform="translate(10 10)"/>
</clipPath>
</defs>
</svg>
