<svg width="15" height="15" viewBox="0 0 15 15" fill="none" xmlns="http://www.w3.org/2000/svg">
	<path d="M14.0027 7C14.0027 3.16129 10.8415 0 7.00275 0C3.13581 0 0.00274658 3.16129 0.00274658 7C0.00274658 10.8669 3.13581 14 7.00275 14C10.8415 14 14.0027 10.8669 14.0027 7ZM12.6479 7C12.6479 8.24194 12.2527 9.37097 11.5471 10.3306L11.3213 9.39919L8.9221 9.68145L7.90597 11.8831L8.75275 12.3911C7.62371 12.7581 6.35355 12.7581 5.22452 12.3911L6.0713 11.8831L5.05517 9.68145L2.65597 9.39919L2.43017 10.3306C1.72452 9.37097 1.35759 8.24194 1.35759 7L2.09146 7.64919L3.84146 5.98387L3.38984 3.6129L2.40194 3.69758C3.10759 2.7379 4.12371 2.00403 5.25275 1.6371L4.88581 2.54032L7.00275 3.69758L9.09146 2.54032L8.72452 1.6371C9.88178 2.00403 10.8697 2.7379 11.5753 3.69758L10.5874 3.6129L10.1358 5.98387L11.8858 7.64919L12.6197 7H12.6479ZM5.61968 8.97581H8.35759L9.17613 6.40726L7.00275 4.79839L4.80113 6.40726L5.61968 8.97581Z" fill="#FFFFFF"/>
	<path d="M10.0027 8.5C10.0027 8.22386 10.2266 8 10.5027 8C10.7789 8 11.0027 8.22386 11.0027 8.5V13.5C11.0027 13.7761 10.7789 14 10.5027 14C10.2266 14 10.0027 13.7761 10.0027 13.5V8.5Z" fill="#FFFFFF"/>
	<path d="M12.0027 8.5C12.0027 8.22386 12.2266 8 12.5027 8C12.7789 8 13.0027 8.22386 13.0027 8.5V13.5C13.0027 13.7761 12.7789 14 12.5027 14C12.2266 14 12.0027 13.7761 12.0027 13.5V8.5Z" fill="#FFFFFF"/>
	<path fill-rule="evenodd" clip-rule="evenodd" d="M11.5027 7.83643C11.2878 7.51309 10.9201 7.29999 10.5027 7.29999C9.83999 7.29999 9.30273 7.83725 9.30273 8.49999V13.5C9.30273 14.1627 9.83999 14.7 10.5027 14.7C10.9201 14.7 11.2878 14.4869 11.5027 14.1635C11.7177 14.4869 12.0853 14.7 12.5027 14.7C13.1655 14.7 13.7027 14.1627 13.7027 13.5V8.49999C13.7027 7.83725 13.1655 7.29999 12.5027 7.29999C12.0853 7.29999 11.7177 7.51309 11.5027 7.83643ZM10.5027 7.99999C10.2266 7.99999 10.0027 8.22385 10.0027 8.49999V13.5C10.0027 13.7761 10.2266 14 10.5027 14C10.7789 14 11.0027 13.7761 11.0027 13.5V8.49999C11.0027 8.22385 10.7789 7.99999 10.5027 7.99999ZM12.5027 7.99999C12.2266 7.99999 12.0027 8.22385 12.0027 8.49999V13.5C12.0027 13.7761 12.2266 14 12.5027 14C12.7789 14 13.0027 13.7761 13.0027 13.5V8.49999C13.0027 8.22385 12.7789 7.99999 12.5027 7.99999Z" fill="#464655"/>
</svg>
