<svg width="80" height="80" viewBox="0 0 80 80" fill="none" xmlns="http://www.w3.org/2000/svg">
<rect width="80" height="80" fill="#A37D52"/>
<g clip-path="url(#clip0)">
<path d="M35.3021 19.8847C38.6931 16.2536 42.1994 16.9164 45.7729 17.8194C46.8199 18.0883 47.9438 18.0691 49.0389 18.1652C51.2099 18.3573 53.4193 20.5667 53.1888 22.3535C52.9006 24.5917 50.8449 26.3016 48.453 25.8501C46.3492 25.4563 44.0053 25.0048 42.3627 23.7848C39.3463 21.5466 38.0783 24.5821 36.1955 25.3986C34.428 26.1671 34.8507 27.9923 35.4078 29.7214C37.8574 29.3371 38.5682 26.657 40.7104 25.9077C41.7671 27.1854 42.8526 28.5014 43.7363 29.5773C41.3732 30.7781 38.3473 32.3054 35.3214 33.8424C34.4856 39.6541 33.7652 45.4274 34.0437 51.268C34.1206 52.9491 33.9093 54.4476 31.5942 54.7166C30.7873 52.3535 30.1725 50.0576 30.1244 47.4928C29.9996 41.4985 30.0956 35.4082 28.9717 29.5677C28.2897 26.0518 29.0293 22.3727 27.4251 18.9721C26.8679 17.7905 27.281 16.1383 27.329 14.6974C27.4059 12.4207 28.9333 10.5859 31.2099 10.0192C31.5557 9.93272 32.0072 10.0672 32.3627 10.2113C35.0716 11.2872 36.061 13.0931 35.648 16.0422C35.5039 17.0701 35.4558 18.0883 35.3021 19.8847Z" fill="#F3F3F4"/>
<path d="M69.0394 70.0001C48.8569 70.0001 29.683 70.0001 10.1633 70.0001C10.1057 68.8858 10.048 67.8291 10 66.8204C12.9299 65.7926 12.9299 65.9847 16.0903 66.1576C18.0403 66.2633 20.2209 65.0529 21.95 65.5812C24.073 66.2248 25.8117 66.6763 27.7618 65.4371C28.0403 65.2642 28.6263 65.4948 29.049 65.6293C29.4909 65.7734 29.9232 66.2152 30.317 66.1768C32.3055 65.9559 34.5149 64.928 36.2152 65.4852C38.3285 66.1864 40.048 66.6283 42.0365 65.5428C42.3727 65.3603 42.9011 65.4852 43.3333 65.5044C43.4678 65.514 43.5831 65.7157 43.7272 65.7734C45.8982 66.513 47.8674 66.0712 50.0865 65.514C51.7291 65.1009 53.804 66.8204 55.9174 65.9367C56.5418 65.6773 57.3967 65.4852 57.9731 65.7061C59.9904 66.4842 62.0077 66.7148 63.8809 65.6197C65.6868 64.563 66.3497 66.5419 67.6369 66.8589C68.2037 66.9933 68.4342 68.5591 69.0394 70.0001Z" fill="#F3F3F4"/>
<path d="M48.5107 39.3947C45.331 39.4236 43.5635 37.6368 43.6308 34.4476C43.6692 32.5648 46.3013 29.9327 48.2993 29.7886C50.0092 29.6637 53.064 32.7473 53.2273 34.7646C53.4482 37.3582 51.4021 39.3659 48.5107 39.3947Z" fill="#F3F3F4"/>
</g>
<defs>
<clipPath id="clip0">
<rect width="59.0394" height="60" fill="white" transform="translate(10 10)"/>
</clipPath>
</defs>
</svg>
