<svg width="80" height="80" viewBox="0 0 80 80" fill="none" xmlns="http://www.w3.org/2000/svg">
<rect width="80" height="80" fill="#A37D52"/>
<g clip-path="url(#clip0)">
<path d="M59.2562 69.2581C58.4533 68.6992 57.5895 68.4045 57.2033 67.7947C55.1911 64.5935 52.996 61.4533 51.4513 58.0285C49.0529 52.7033 45.1098 48.9329 40.1911 45.2642C38.0062 48.4655 35.9025 51.5447 33.5651 54.9797C31.3293 54.5833 28.87 54.3293 26.5123 53.689C22.1119 52.4797 17.7928 50.996 13.4025 49.746C12.4167 49.4512 12.0001 49.0447 12.0001 48.059C11.9899 46.5854 12.996 46.4634 14.0428 46.5752C17.1728 46.9004 20.4858 46.748 23.3517 47.8151C25.9025 48.7602 28.2907 48.252 30.6484 48.7399C33.1586 43.5671 33.2602 37.1647 39.6525 34.2683C46.3293 39.8984 51.2074 46.8801 54.744 54.8577C56.1363 58.0081 57.3558 61.25 58.9615 64.2886C59.8151 65.9045 60.1708 67.2764 59.2562 69.2581Z" fill="#F3F3F4"/>
<path d="M42.4876 22.3069C41.7559 23.4248 41.7762 25.1118 39.9266 25.5386C37.8738 26.0061 35.8616 27.2155 33.8494 27.1952C29.6624 27.1647 26.1969 28.9736 22.6197 30.6301C20.6787 31.5244 18.8087 32.5712 16.8474 33.3842C16.4612 33.5468 15.6787 33.0386 15.2417 32.6525C15.0994 32.5305 15.3636 31.5956 15.6787 31.3821C21.1461 27.7947 25.8717 22.9878 32.4165 21.0976C34.1339 20.5996 35.6685 19.5224 37.325 18.7805C39.3778 17.8557 42.4876 19.9492 42.4876 22.3069Z" fill="#F3F3F4"/>
<path d="M46.8173 21.8088C47.9352 22.5202 48.7482 22.7946 49.1953 23.3536C52.427 27.4491 56.7665 29.6036 61.7258 30.7926C63.301 31.1686 64.8254 31.8495 66.3193 32.5101C66.6445 32.6523 66.7461 33.2926 67.173 34.1361C65.6079 34.2479 64.3071 34.5731 63.0978 34.3698C59.7136 33.821 56.3295 33.2113 53.0368 32.317C51.1669 31.8088 49.3986 30.8027 47.7218 29.8068C47.1425 29.4613 46.6648 28.4755 46.6344 27.7641C46.5226 25.9755 46.7157 24.1564 46.8173 21.8088Z" fill="#F3F3F4"/>
<path d="M46.1568 19.2276C43.2807 19.258 41.5531 17.5711 41.5124 14.695C41.4718 11.7987 43.1283 10.0609 45.984 9.99992C48.8295 9.93894 50.6385 11.9003 50.6893 15.0812C50.7198 17.4389 48.7889 19.2072 46.1568 19.2276Z" fill="#F3F3F4"/>
<path d="M51.746 65.2032C51.8273 67.9268 50.2115 69.878 47.7724 69.9898C45.7602 70.0812 42.5387 67.256 42.5489 65.4065C42.559 62.815 44.6017 60.8231 47.2948 60.7723C50.618 60.7215 51.6444 61.7378 51.746 65.2032Z" fill="#F3F3F4"/>
</g>
<defs>
<clipPath id="clip0">
<rect width="55.1626" height="60" fill="white" transform="translate(12 10)"/>
</clipPath>
</defs>
</svg>
