<svg width="80" height="80" viewBox="0 0 80 80" fill="none" xmlns="http://www.w3.org/2000/svg">
<rect width="80" height="80" fill="#A37D52"/>
<g clip-path="url(#clip0)">
<path d="M22.8405 29.506C25.4343 31.5772 27.6006 33.297 29.5008 34.8171C29.2063 36.0618 29.0447 36.9549 28.7787 37.8195C28.2561 39.5487 26.9165 41.4775 27.325 42.9217C27.8666 44.8599 29.7573 46.4181 31.211 48.3373C34.6599 46.0095 37.1397 43.2637 38.3464 39.3872C38.7074 38.2471 39.439 37.1544 40.2086 36.2138C41.7098 34.3611 42.3654 34.3611 44.5412 35.7388C47.5245 37.6295 50.5174 39.5012 53.9854 41.6865C51.8761 43.3017 50.3179 44.7934 48.4937 45.7625C47.5816 46.2471 46.0329 46.1046 45.0162 45.6675C42.945 44.7744 41.5103 45.2209 40.0471 46.8266C37.8333 49.2494 35.23 51.1212 31.9616 51.1212C31.0115 52.5464 33.7953 53.601 31.9901 54.5416C31.5245 54.7791 30.1659 53.696 29.4533 52.9834C27.9331 51.4537 26.8405 49.335 25.0732 48.2898C23.477 47.3397 21.2063 47.5392 19.249 47.1497C16.2846 46.5606 15.3535 44.8694 16.4462 41.905C16.8642 40.7839 17.7193 39.8243 18.2704 38.7411C19.7241 35.8718 21.1302 32.9644 22.8405 29.506Z" fill="#F3F3F4"/>
<path d="M60.0857 45.6389C58.841 46.855 58.1094 47.8717 59.0596 49.9334C60.9028 53.9334 62.1474 58.228 63.4776 62.4465C63.8196 63.5296 63.6676 64.8123 63.5346 65.9809C63.4016 67.1686 63.0025 68.3372 62.6795 69.7054C61.3018 69.7054 59.8292 69.7054 57.8719 69.7054C58.803 68.4608 59.9907 67.5771 59.9432 66.76C59.8767 65.6484 58.822 64.6128 58.271 63.5106C56.8173 60.6223 55.4111 57.7149 53.7769 54.38C49.3018 56.6508 43.8957 57.2588 42.803 63.6912C42.5465 65.1923 41.7294 67.5011 39.0881 67.1591C38.8885 67.1306 38.4895 67.4631 38.423 67.7007C37.4539 71.1401 34.651 69.6484 32.5132 69.8669C32.2852 69.8859 31.7816 69.2779 31.7911 68.9738C31.8006 68.6603 32.3517 68.0712 32.5607 68.1187C36.3802 68.8883 36.6082 65.5724 37.1308 63.5106C37.6534 61.4299 38.48 59.4251 38.8505 57.3444C39.3161 54.779 40.9218 53.2779 42.86 51.9002C45.8814 49.7529 48.9408 47.6436 51.8862 45.3919C55.1451 42.9026 55.4206 42.836 59.0881 45.1923C59.3351 45.3444 59.6391 45.4394 60.0857 45.6389Z" fill="#F3F3F4"/>
<path d="M43.5822 10.0285C40.7603 11.7292 39.1736 13.6485 39.1831 17.1164C39.1926 20.1473 38.2235 23.0831 36.0382 25.848C37.0168 26.0095 37.7484 26.3801 38.138 26.1615C40.9313 24.5653 43.6582 22.8456 47.2401 20.6508C47.3161 20.6413 47.9527 23.4632 49.4444 21.2969C50.0905 20.3658 50.9076 20.3658 51.8387 21.1164C52.9788 22.038 54.2425 22.8171 55.1071 24.4133C53.8339 24.1188 52.5608 23.8242 51.2116 23.5107C48.2567 26.1045 45.2164 28.7744 42.1665 31.4442C42.0525 31.5487 41.9575 31.7007 41.8244 31.7672C38.7746 33.4394 35.3446 33.3159 32.0572 33.8765C29.9194 34.2375 29.0453 32.5083 27.8007 31.3967C26.518 30.2375 25.2829 29.0119 23.8672 27.6817C24.7033 26.0475 24.8933 24.6698 27.3636 24.1188C30.119 23.5012 32.9313 21.9525 33.7294 18.266C34.518 14.6176 35.2781 14.019 38.3565 10.8171C38.727 10.4276 39.3541 10.1235 39.8862 10.076C41.1023 9.9525 42.347 10.0285 43.5822 10.0285Z" fill="#F3F3F4"/>
<path d="M19.3151 55.2257C19.3246 52.8029 18.308 50.2756 21.4909 49.2685C23.0681 48.7744 24.1702 49.1734 25.3864 50.8551C26.2985 52.1188 26.2035 53.7815 25.1488 55.0737C23.6096 56.9644 23.0966 56.9929 19.3151 55.2257Z" fill="#F3F3F4"/>
<path d="M37.2823 38.684C37.1113 40.7458 35.1635 42.5605 33.2633 42.4275C31.4296 42.304 29.5768 40.3563 29.7384 38.7411C29.8904 37.2304 31.9901 34.9786 33.2158 35.0166C34.7265 35.0641 37.3868 37.4584 37.2823 38.684Z" fill="#F3F3F4"/>
</g>
<defs>
<clipPath id="clip0">
<rect width="47.6865" height="60" fill="white" transform="translate(16 10)"/>
</clipPath>
</defs>
</svg>
