<svg width="80" height="80" viewBox="0 0 80 80" fill="none" xmlns="http://www.w3.org/2000/svg">
<rect width="80" height="80" fill="#A37D52"/>
<g clip-path="url(#clip0)">
<path d="M38.0439 53.3319C34.5964 53.3319 30.9118 52.5911 27.7607 53.5493C24.6886 54.4877 22.1795 57.2141 19.3643 59.0613C17.1022 60.5529 14.7215 61.8766 12.4495 63.3583C11.6692 63.8719 11.1555 64.0596 10.4838 63.2397C9.85158 62.4692 9.81206 61.7975 10.5332 61.1258C14.1091 57.7969 17.7047 54.4877 21.2806 51.1587C22.1203 50.3784 22.9599 49.5881 23.7699 48.7781C27.5039 45.0738 31.386 41.5078 34.9026 37.6059C36.7103 35.6105 38.6958 35.2253 41.0271 35.5117C41.7482 35.6006 42.6866 36.0451 43.0422 36.628C45.4821 40.5792 47.9714 44.5107 50.0952 48.6398C51.5671 51.5045 50.2335 53.2529 46.9145 53.3122C43.9609 53.3714 40.9974 53.3319 38.0439 53.3319ZM35.6237 48.3632C37.5302 48.3632 39.4268 48.3632 41.926 48.3632C40.7209 47.0988 39.9701 46.3184 39.1897 45.4986C38.0834 46.1999 37.0165 46.842 35.9991 47.5433C35.7916 47.6816 35.7521 48.0866 35.6237 48.3632C35.3866 48.4818 35.1397 48.5904 34.8927 48.709C35.0212 48.8374 35.1397 48.9559 35.2681 49.0843C35.3866 48.8374 35.5052 48.6003 35.6237 48.3632Z" fill="#F3F3F4"/>
<path d="M59.4695 36.2723C62.4922 34.9585 65.0803 33.7534 67.7573 32.7359C68.3796 32.4988 69.2489 32.9038 69.9996 33.0026C69.7329 33.6842 69.6638 34.6424 69.16 34.998C66.2953 37.023 63.3516 38.9493 60.3981 40.836C58.4718 42.0708 56.6641 41.8535 55.3701 39.8778C53.3648 36.8156 51.5472 33.6151 49.8679 30.3553C48.8505 28.3895 50.1248 26.1274 52.4856 25.11C53.8587 24.5173 55.7356 25.347 56.5159 27.1449C57.2667 28.8735 57.7803 30.7109 58.3631 32.5087C58.7484 33.704 59.0744 34.9289 59.4695 36.2723Z" fill="#F3F3F4"/>
<path d="M52.1505 23.0158C51.0046 23.9542 50.0168 24.7642 49.029 25.5643C47.0138 27.1942 46.757 27.1448 45.0678 24.8235C44.8802 24.5666 44.6036 24.3691 44.1195 23.9147C40.7906 25.1001 37.3036 26.4139 33.7672 27.5498C33.2239 27.7276 32.4238 27.0954 31.7422 26.8485C32.0287 26.3052 32.1768 25.5149 32.6312 25.268C36.1281 23.3615 39.6348 21.4451 43.27 19.7856C44.1195 19.4004 45.5025 19.8251 46.5002 20.2301C48.4067 21.0105 50.2242 22.0477 52.1505 23.0158Z" fill="#F3F3F4"/>
<path d="M57.3262 22.1959C57.3163 19.7856 59.9637 16.832 61.9788 17.0099C63.5593 17.1482 66.2857 20.24 66.1968 21.7909C66.098 23.5492 63.5297 26.483 61.9788 26.6213C59.5488 26.8189 57.346 24.7247 57.3262 22.1959Z" fill="#F3F3F4"/>
</g>
<defs>
<clipPath id="clip0">
<rect width="60" height="46.8028" fill="white" transform="translate(10 17)"/>
</clipPath>
</defs>
</svg>
