<svg width="80" height="80" viewBox="0 0 80 80" fill="none" xmlns="http://www.w3.org/2000/svg">
<rect width="80" height="80" fill="#A37D52"/>
<g clip-path="url(#clip0)">
<path d="M69.3829 59.6347C67.6536 58.523 65.8548 57.4653 64.1487 56.261C59.5398 52.9954 54.9464 49.7067 50.4225 46.3408C49.635 45.7541 48.8476 45.2291 48.0216 45.5842C45.7364 46.5801 43.2969 46.0937 41.0041 46.3948C39.792 50.8184 39.0663 55.2343 37.1595 59.295C37.1055 59.4108 36.6809 59.349 36.1945 59.3876C35.7853 56.8941 35.9011 54.4005 36.2408 51.9069C36.3952 50.7952 36.5728 49.6913 36.7658 48.5873C36.9974 47.244 37.3602 45.9085 37.4837 44.5497C37.5918 43.3609 38.1168 42.751 39.213 42.3495C42.4709 41.1375 45.6592 39.7556 48.9402 38.6285C49.9747 38.2734 51.1096 38.4895 52.0823 39.4777C57.7411 45.2523 63.4693 50.9574 69.1821 56.6779C69.985 57.4885 70.4405 58.2914 69.3829 59.6347Z" fill="#F3F3F4"/>
<path d="M68.5175 40.2033C67.6374 41.23 66.8885 40.9984 66.0471 40.4735C64.5571 39.5471 63.0826 38.5666 61.4922 37.8409C58.4351 36.4513 55.3008 35.2316 52.2051 33.9114C51.4022 33.5718 50.5761 33.2166 49.8659 32.7148C47.8124 31.2558 47.8818 29.5728 49.889 28.106C51.1397 27.195 52.1433 27.9747 53.0157 28.546C56.6904 30.947 60.3034 33.4482 63.9009 35.9727C65.2442 36.9145 66.4948 37.9876 67.7377 39.053C68.0929 39.3541 68.2781 39.8327 68.5175 40.2033Z" fill="#F3F3F4"/>
<path d="M43.4817 29.2563C43.7442 30.6304 43.9758 31.7962 44.246 33.2166C41.8296 32.9078 39.4905 33.6026 37.0896 32.5913C35.8775 32.0818 34.2717 32.213 32.913 32.4601C31.6778 32.6917 30.6356 31.3021 29.3773 32.2671C29.0685 32.5064 28.2347 32.5064 27.949 32.2594C26.683 31.1863 25.2316 31.6804 23.8806 31.6649C19.2717 31.5954 14.6706 31.634 10 31.14C10.5713 31.0319 11.1426 30.8312 11.7138 30.8312C15.9521 30.8003 20.1904 30.8157 24.4287 30.808C25.2007 30.808 26.297 31.1322 26.683 30.7462C28.4045 29.0401 30.3654 30.2676 32.1796 30.0592C35.1904 29.7195 38.209 29.5033 41.2275 29.264C41.9686 29.2099 42.7174 29.2563 43.4817 29.2563Z" fill="#F3F3F4"/>
<path d="M45.0874 27.2337C41.2891 24.4468 41.3663 21.8838 45.0874 20.0464C45.0874 22.3392 45.0874 24.5472 45.0874 27.2337Z" fill="#F3F3F4"/>
<path d="M46.0366 27.2877C46.0366 24.7323 46.0289 22.8486 46.0366 20.9727C46.0444 20.1235 46.6079 19.8764 47.2873 20.0463C47.681 20.1466 48.2909 20.5172 48.3063 20.8028C48.4144 22.3082 48.5379 23.86 48.2754 25.3191C48.1751 25.9444 47.1174 26.3921 46.0366 27.2877Z" fill="#F3F3F4"/>
</g>
<defs>
<clipPath id="clip0">
<rect width="60" height="39.6346" fill="white" transform="translate(10 20)"/>
</clipPath>
</defs>
</svg>
