<svg width="80" height="80" viewBox="0 0 80 80" fill="none" xmlns="http://www.w3.org/2000/svg">
<rect width="80" height="80" fill="#A37D52"/>
<g clip-path="url(#clip0)">
<path d="M44.0082 35.3191C47.99 34.5598 51.3008 36.2108 54.7175 37.2173C57.216 37.9589 57.1895 38.0472 58.1254 35.063C58.6463 35.9459 59.3084 36.5992 59.4055 37.332C59.9441 41.2961 60.9417 45.1366 62.01 48.9771C62.1248 49.3921 62.2131 49.8865 62.0895 50.2749C61.8952 50.8753 61.6127 51.7405 61.1713 51.8818C60.7122 52.023 59.8558 51.5816 59.4762 51.1313C58.0989 49.4715 56.9158 47.644 55.5032 46.0195C55.0088 45.4456 54.073 45.0483 53.2961 44.96C49.8617 44.5804 48.4932 45.1101 44.5909 47.9618C44.741 48.1914 44.847 48.4915 45.0589 48.6328C48.5462 50.9636 50.3914 54.4774 51.9717 58.1855C52.369 59.1037 52.7928 60.0218 53.2872 60.8871C54.7793 63.5092 55.6004 63.7564 58.611 63.0236C59.6616 62.7676 60.9329 62.6175 61.8776 62.9883C63.2107 63.5092 64.4556 63.7476 65.5856 62.9706C67.0424 61.9642 68.1018 62.8912 69.1613 63.5004C69.6204 63.7652 70.0795 64.6481 69.9647 65.1249C69.8676 65.5575 69.0465 66.0077 68.4726 66.1225C67.6251 66.2902 66.7157 66.1666 65.8328 66.1666C48.6257 66.1666 31.4273 66.1666 14.2201 66.1666C13.7787 66.1666 13.3108 66.2638 12.9046 66.149C11.8717 65.84 10 67.0672 10 64.7364C10 63.5975 12.4102 62.026 13.6374 62.644C14.8999 63.2796 16.136 63.6593 17.3808 63.3679C19.173 62.9442 20.824 62.1407 22.6604 63.3591C23.1195 63.6681 24.1789 63.4739 24.744 63.1384C26.1654 62.2997 27.3926 62.335 28.8405 63.1296C29.538 63.5092 30.7387 63.6858 31.3567 63.3238C32.7869 62.5027 33.8994 62.2732 35.3649 63.2973C35.9211 63.6946 37.2013 63.571 37.8811 63.1914C39.4703 62.3085 40.8387 62.2555 42.3573 63.3061C42.7634 63.5886 43.6551 63.6416 44.0524 63.3856C46.1095 62.0171 48.1313 63.2796 50.1795 63.465C50.9211 61.9112 50.8417 60.6663 49.7028 59.4127C48.8376 58.4592 47.9723 57.3997 47.4956 56.2343C46.9305 54.8482 45.774 54.2479 44.6527 53.8594C39.9029 52.2526 35.5945 49.7364 31.0918 47.6175C27.6486 46.0018 25.2295 43.2296 22.9517 40.4397C21.6804 38.8771 21.08 36.5904 20.6916 34.5333C20.3208 32.5733 20.6121 30.4809 20.6121 27.8323C24.0377 29.4656 27.0306 30.8871 30.0942 32.3438C30.2619 31.611 30.2178 30.5869 30.6327 30.322C31.2861 29.9159 32.4514 29.6687 33.0695 29.9954C34.5703 30.7899 35.9741 31.8406 37.2278 32.9971C38.1636 33.8535 38.7287 35.1072 39.6204 36.0342C40.0265 36.458 40.8211 36.5021 41.4391 36.7228C41.2978 36.1137 41.3596 35.3279 40.9976 34.9306C38.8876 32.6793 36.6716 30.5251 34.4997 28.3356C33.8817 27.7087 33.0606 27.1702 32.6986 26.4197C32.2837 25.5633 32.01 24.4598 32.1601 23.5416C32.4073 22.0142 34.4026 21.405 35.6298 22.3762C36.2036 22.8264 36.751 23.365 37.1307 23.9742C39.3732 27.6381 41.5803 31.3197 44.0082 35.3191Z" fill="#F3F3F4"/>
<path d="M33.8109 17.9088C33.9874 18.465 34.1552 18.8447 34.217 19.2508C34.2611 19.551 34.1552 19.8688 34.111 20.169C33.7491 20.0012 33.2282 19.9394 33.0516 19.6569C32.8574 19.3302 33.0074 18.8093 32.928 18.3944C32.822 17.8647 32.7867 17.0171 32.4689 16.8758C30.4295 15.9665 30.7296 14.8188 32.0716 13.6357C33.2811 12.5763 35.3382 12.8764 36.2299 14.2184C36.7596 15.013 37.0245 15.9841 37.5454 17.1849C36.2388 17.4409 35.0822 17.6616 33.8109 17.9088Z" fill="#F3F3F4"/>
</g>
<defs>
<clipPath id="clip0">
<rect width="60" height="53.2107" fill="white" transform="translate(10 13)"/>
</clipPath>
</defs>
</svg>
