<svg width="23" height="28" viewBox="0 0 23 28" fill="none" xmlns="http://www.w3.org/2000/svg">
<path fill-rule="evenodd" clip-rule="evenodd" d="M6.96955 6.83587C7.7627 6.85674 8.5434 7.03515 9.26702 7.36057C9.74425 7.54034 10.2182 7.73157 10.6971 7.90481C11.1779 8.08926 11.7101 8.08926 12.1909 7.90481C12.8022 7.67273 13.4088 7.43735 14.0184 7.20854C15.0226 6.81223 16.1079 6.66733 17.1809 6.7864C18.2539 6.90546 19.2822 7.28482 20.175 7.89164C20.7578 8.28018 21.265 8.77151 21.6721 9.34143C21.7931 9.50486 21.7668 9.58489 21.6083 9.69275C20.5742 10.4033 19.763 11.3928 19.2693 12.5462C18.8375 13.6297 18.7184 14.8126 18.9262 15.9603C19.1339 17.108 19.6606 18.1745 20.4448 19.0379C20.9848 19.6199 21.629 20.0949 22.3448 20.4384C22.5083 20.5119 22.5248 20.6018 22.4725 20.7538C22.0139 22.132 21.365 23.4396 20.5453 24.6387C20.0415 25.4341 19.4567 26.175 18.8001 26.8498C18.2066 27.4771 17.4073 27.8698 16.5481 27.9562C15.8241 27.9917 15.1025 27.8458 14.4493 27.5315C13.8101 27.2097 13.1253 26.9891 12.4184 26.8777C11.4388 26.7813 10.4502 26.9371 9.54792 27.3304C8.99295 27.5643 8.42364 27.7625 7.84337 27.9237C7.4331 28.0225 7.00604 28.0254 6.59448 27.9321C6.18293 27.8389 5.79851 27.6518 5.47088 27.3859C4.71543 26.7976 4.05641 26.0946 3.51895 25.3023C1.9238 23.1705 0.82858 20.7072 0.314132 18.0948C-0.125325 16.1755 -0.103379 14.1794 0.377973 12.2701C0.625774 11.2321 1.10065 10.2618 1.76811 9.42901C2.43557 8.59624 3.27954 7.92162 4.23875 7.45373C5.08821 7.03699 6.02343 6.82531 6.96955 6.83587V6.83587Z" fill="#6B6B76"/>
<path fill-rule="evenodd" clip-rule="evenodd" d="M16.8525 0.63868C16.8237 1.87325 16.4228 3.07042 15.7025 4.07352C14.9823 5.07662 13.9759 5.83904 12.8153 6.26087C12.4246 6.36947 12.0238 6.43722 11.6191 6.46337C11.2742 6.49605 11.2611 6.46347 11.248 6.11863C11.2189 4.90938 11.5835 3.72337 12.2862 2.73885C12.7604 2.00946 13.3849 1.38954 14.1177 0.920578C14.8504 0.451618 15.6747 0.144304 16.5356 0.019224C16.8233 -0.0265372 16.8395 -0.01013 16.8461 0.288952C16.8526 0.403355 16.8525 0.522643 16.8525 0.63868Z" fill="#6B6B76"/>
</svg>
