<svg width="151" height="51" viewBox="0 0 151 51" fill="none" xmlns="http://www.w3.org/2000/svg">
<path d="M6.668 0.796875H144.174C145.943 0.796875 147.639 1.4995 148.89 2.75018C150.14 4.00086 150.843 5.69715 150.843 7.46588V43.4659C150.843 45.2343 150.14 46.9304 148.89 48.1809C147.639 49.4314 145.943 50.1339 144.175 50.1339H6.668C4.9004 50.1339 3.20513 49.432 1.95478 48.1826C0.70443 46.9332 0.00132543 45.2385 0 43.4709L0 7.46488C0 5.69641 0.702519 4.00038 1.95301 2.74989C3.2035 1.49939 4.89954 0.796875 6.668 0.796875V0.796875Z" fill="#231F20"/>
<path d="M26.0527 9.23486H13.7656C13.0586 9.23486 12.3808 9.5159 11.8809 10.0159C11.3809 10.5158 11.0996 11.1938 11.0996 11.9009V39.1228C11.0995 39.473 11.1683 39.8199 11.3022 40.1436C11.4362 40.4672 11.6328 40.7613 11.8804 41.009C12.1279 41.2568 12.4216 41.4533 12.7451 41.5874C13.0686 41.7216 13.4154 41.7909 13.7656 41.791H26.0527C26.7603 41.7908 27.4387 41.5096 27.939 41.0093C28.4393 40.509 28.7204 39.8303 28.7207 39.1228V11.9009C28.7202 11.1936 28.4388 10.5155 27.9385 10.0156C27.4382 9.51571 26.76 9.23486 26.0527 9.23486ZM19.9087 39.835C19.5577 39.8346 19.215 39.7302 18.9233 39.5349C18.6317 39.3396 18.4045 39.0622 18.2705 38.7378C18.1365 38.4134 18.1012 38.0566 18.1699 37.7124C18.2386 37.3682 18.4079 37.0522 18.6562 36.8042C18.9046 36.5562 19.2212 36.3872 19.5654 36.3188C19.9097 36.2505 20.2661 36.2858 20.5903 36.4202C20.9146 36.5546 21.1918 36.7821 21.3867 37.074C21.5817 37.3658 21.6855 37.7088 21.6855 38.0598C21.6853 38.2929 21.6393 38.5236 21.5498 38.7388C21.4603 38.954 21.3296 39.1497 21.1646 39.3142C20.9995 39.4788 20.8033 39.6091 20.5879 39.698C20.3724 39.7868 20.1417 39.8324 19.9087 39.832V39.835ZM26.625 35.4189H13.1929V15.3389H26.625V35.4189Z" fill="white"/>
<path d="M38.7827 14.0859L38.0366 16.3479H37.0757L39.5195 9.15698H40.6406L43.0938 16.3479H42.1016L41.333 14.0859H38.7827ZM41.1406 13.3618L40.4258 11.291C40.2768 10.823 40.17 10.391 40.063 9.979H40.0308C39.9308 10.395 39.8187 10.8438 39.6797 11.2788L38.98 13.3589L41.1406 13.3618Z" fill="white"/>
<path d="M44.0547 11.1838L45.0688 14.0759C45.2378 14.5569 45.3779 14.9829 45.4849 15.4099H45.5156C45.6346 14.9829 45.7826 14.5569 45.9526 14.0759L46.9526 11.1838H47.9336L45.9048 16.3479H45.0107L43.0488 11.1838H44.0547Z" fill="white"/>
<path d="M52.2589 15.1117C52.2544 15.525 52.2796 15.9381 52.3341 16.3478H51.4918L51.4059 15.6979H51.3736C51.1914 15.9436 50.9528 16.1418 50.6778 16.2758C50.4028 16.4098 50.0999 16.4758 49.7941 16.4679C49.591 16.4826 49.3868 16.4548 49.1949 16.3866C49.0031 16.3184 48.8275 16.2113 48.6793 16.0717C48.5311 15.9321 48.4132 15.7633 48.3336 15.5758C48.254 15.3884 48.2144 15.1864 48.2169 14.9828C48.2169 13.7348 49.325 13.0509 51.317 13.0629V12.9547C51.3385 12.7948 51.3231 12.6322 51.2721 12.4792C51.2211 12.3261 51.1356 12.1868 51.0226 12.0717C50.9095 11.9566 50.7719 11.8688 50.6197 11.8151C50.4676 11.7614 50.3049 11.7432 50.1446 11.7619C49.6645 11.756 49.193 11.8891 48.7867 12.1449L48.5738 11.5138C49.0932 11.2154 49.6829 11.061 50.2818 11.0668C51.8738 11.0668 52.256 12.1448 52.256 13.1808L52.2589 15.1117ZM51.3419 13.7118C50.3169 13.6898 49.1529 13.8709 49.1529 14.8749C49.1418 14.9938 49.1566 15.1136 49.1964 15.2262C49.2361 15.3388 49.2996 15.4414 49.3829 15.527C49.4662 15.6126 49.5673 15.6791 49.6788 15.7218C49.7903 15.7646 49.9098 15.7827 50.0289 15.7748C50.3051 15.7843 50.5769 15.7055 50.8053 15.55C51.0336 15.3944 51.2066 15.1703 51.2989 14.9098C51.3292 14.8128 51.3437 14.7114 51.3419 14.6098V13.7118Z" fill="white"/>
<path d="M54.1578 10.2349C53.9987 10.232 53.8474 10.1661 53.7369 10.0515C53.6265 9.93696 53.566 9.78319 53.5689 9.62406C53.5719 9.46493 53.638 9.31337 53.7525 9.20291C53.8671 9.09245 54.0207 9.03203 54.1798 9.03494C54.2595 9.03155 54.3393 9.04481 54.4137 9.07376C54.488 9.10271 54.5555 9.14675 54.6119 9.20316C54.6683 9.25956 54.7124 9.32707 54.7413 9.4014C54.7703 9.47573 54.7833 9.55534 54.7799 9.63504C54.7827 9.71555 54.7689 9.79568 54.7394 9.87064C54.7099 9.9456 54.6654 10.0136 54.6085 10.0706C54.5516 10.1276 54.4832 10.1723 54.4083 10.2019C54.3334 10.2316 54.2535 10.2456 54.173 10.243L54.1578 10.2349ZM53.7101 16.3479V11.1839H54.649V16.3479H53.7101Z" fill="white"/>
<path d="M56.1528 8.77393H57.0908V16.3479H56.1528V8.77393Z" fill="white"/>
<path d="M62.235 15.1117C62.2306 15.5249 62.2547 15.938 62.3077 16.3478H61.4659L61.381 15.6979H61.3497C61.1673 15.9435 60.9289 16.1416 60.6539 16.2756C60.379 16.4096 60.0754 16.4756 59.7696 16.4679C59.5665 16.4828 59.3625 16.455 59.1705 16.3869C58.9785 16.3187 58.8032 16.2116 58.6549 16.0719C58.5065 15.9323 58.3884 15.7636 58.3087 15.5761C58.229 15.3886 58.1895 15.1865 58.192 14.9828C58.192 13.7348 59.3011 13.0509 61.2921 13.0629V12.9548C61.3135 12.7946 61.2979 12.6317 61.2467 12.4784C61.1955 12.3252 61.1096 12.1858 60.9962 12.0707C60.8828 11.9556 60.7448 11.8679 60.5924 11.8144C60.44 11.7608 60.2773 11.7429 60.1168 11.7619C59.6379 11.7559 59.1676 11.889 58.7628 12.1449L58.5489 11.5138C59.0682 11.2151 59.6579 11.0608 60.2569 11.0668C61.8449 11.0668 62.2301 12.1448 62.2301 13.1808L62.235 15.1117ZM61.317 13.7118C60.293 13.6898 59.129 13.8709 59.129 14.8749C59.1177 14.9938 59.1324 15.1136 59.172 15.2262C59.2116 15.3389 59.2753 15.4414 59.3585 15.527C59.4417 15.6126 59.5425 15.6791 59.6539 15.7219C59.7654 15.7646 59.8849 15.7828 60.004 15.7748C60.2802 15.7843 60.552 15.7055 60.7804 15.55C61.0087 15.3944 61.1817 15.1703 61.274 14.9098C61.3043 14.8128 61.3188 14.7114 61.317 14.6098V13.7118Z" fill="white"/>
<path d="M63.6836 8.77393H64.6216V12.0059H64.647C64.8253 11.7028 65.0834 11.455 65.3936 11.2893C65.7037 11.1236 66.0537 11.0466 66.4048 11.0669C67.6868 11.0669 68.5815 12.1349 68.5815 13.6919C68.5815 15.5489 67.4089 16.468 66.2559 16.468C65.9054 16.4862 65.5568 16.4045 65.251 16.2322C64.9452 16.0599 64.6948 15.8041 64.5288 15.4949H64.5059L64.4526 16.3479H63.6436C63.6746 15.9969 63.6836 15.4748 63.6836 15.0168V8.77393ZM64.6216 14.28C64.6219 14.3942 64.6338 14.508 64.6567 14.6199C64.736 14.9335 64.9174 15.212 65.1724 15.4111C65.4273 15.6103 65.7414 15.719 66.0649 15.72C67.0569 15.72 67.6328 14.9198 67.6328 13.7358C67.6328 12.6908 67.0997 11.8059 66.0977 11.8059C65.7667 11.8121 65.4472 11.9286 65.1899 12.137C64.9327 12.3453 64.7525 12.6333 64.6777 12.9558C64.6415 13.0861 64.6225 13.2207 64.6216 13.356V14.28Z" fill="white"/>
<path d="M69.7026 8.77393H70.6406V16.3479H69.7026V8.77393Z" fill="white"/>
<path d="M72.6796 13.926C72.6573 14.1642 72.6874 14.4042 72.7675 14.6296C72.8476 14.8551 72.9759 15.0605 73.1435 15.2312C73.3111 15.4019 73.5138 15.5339 73.7377 15.6182C73.9616 15.7024 74.2013 15.7369 74.4399 15.719C74.9286 15.7328 75.4147 15.6458 75.8686 15.4639L76.0375 16.125C75.4919 16.3555 74.9041 16.4678 74.3119 16.4548C73.968 16.4747 73.6234 16.4206 73.3022 16.2961C72.9809 16.1717 72.6904 15.9798 72.4496 15.7334C72.2089 15.487 72.0236 15.1917 71.9067 14.8677C71.7897 14.5436 71.744 14.1983 71.7719 13.855C71.7333 13.5088 71.7667 13.1584 71.8705 12.8259C71.9743 12.4935 72.1462 12.186 72.3749 11.9233C72.6036 11.6606 72.8841 11.4482 73.1991 11.2996C73.5141 11.1509 73.8563 11.0693 74.2045 11.0598C74.5084 11.0659 74.808 11.1354 75.0834 11.2639C75.3589 11.3924 75.6042 11.5772 75.8041 11.8062C76.004 12.0351 76.1539 12.3035 76.2441 12.5938C76.3342 12.884 76.3626 13.19 76.3276 13.4919C76.3311 13.6424 76.32 13.7927 76.2939 13.9409L72.6796 13.926ZM75.4198 13.2539C75.4461 13.0671 75.4327 12.8768 75.3803 12.6956C75.3279 12.5143 75.2375 12.3464 75.1156 12.2024C74.9938 12.0584 74.8429 11.9417 74.6728 11.8601C74.5027 11.7785 74.3174 11.7339 74.1288 11.729C73.7413 11.7561 73.3779 11.9279 73.1112 12.2104C72.8446 12.493 72.6944 12.8655 72.6899 13.2539H75.4198Z" fill="white"/>
<path d="M81.7426 16.4681C81.4009 16.471 81.0623 16.4027 80.7484 16.2676C80.4345 16.1326 80.1522 15.9337 79.9193 15.6837C79.6864 15.4336 79.5082 15.1377 79.3959 14.815C79.2835 14.4923 79.2393 14.1495 79.2665 13.8089C79.2363 13.4565 79.2808 13.1019 79.3964 12.7676C79.512 12.4334 79.6965 12.1272 79.9379 11.8687C80.1793 11.6103 80.4722 11.4055 80.7977 11.2674C81.1233 11.1293 81.4739 11.0609 81.8275 11.067C82.1699 11.0597 82.5099 11.1245 82.8256 11.2571C83.1412 11.3898 83.4256 11.5874 83.66 11.837C83.8945 12.0866 84.0738 12.3828 84.1864 12.7061C84.299 13.0295 84.3425 13.3727 84.3139 13.7139C84.345 14.0671 84.3015 14.4228 84.1864 14.7581C84.0713 15.0934 83.8868 15.4008 83.6454 15.6605C83.404 15.9201 83.1111 16.1261 82.785 16.2652C82.459 16.4043 82.1073 16.4735 81.7528 16.4681H81.7426ZM81.7738 15.762C82.6738 15.762 83.3427 14.9199 83.3427 13.7469C83.3427 12.8719 82.9038 11.772 81.7958 11.772C80.6878 11.772 80.2157 12.7949 80.2157 13.7779C80.2157 14.9089 80.8556 15.762 81.7626 15.762H81.7738Z" fill="white"/>
<path d="M85.4487 12.5821C85.4487 12.0381 85.4378 11.612 85.4058 11.182H86.2378L86.291 12.026H86.313C86.4844 11.7268 86.7332 11.4796 87.0337 11.3104C87.3342 11.1412 87.6748 11.0564 88.0195 11.0651C88.7345 11.0651 89.8457 11.493 89.8457 13.265V16.347H88.9048V13.371C88.9048 12.54 88.596 11.8351 87.71 11.8351C87.4261 11.843 87.1517 11.9396 86.9258 12.1117C86.6999 12.2837 86.5337 12.5225 86.4507 12.7941C86.407 12.9359 86.3858 13.0837 86.3877 13.232V16.347H85.4487V12.5821Z" fill="white"/>
<path d="M94.6558 9.948V11.1838H96V11.8989H94.6558V14.6838C94.6558 15.3248 94.838 15.6838 95.356 15.6838C95.5399 15.6913 95.7238 15.6694 95.9009 15.6189L95.9429 16.334C95.6748 16.4235 95.3935 16.4674 95.1108 16.4639C94.9231 16.4717 94.7358 16.4402 94.561 16.3713C94.3862 16.3024 94.2276 16.1978 94.0957 16.064C93.8176 15.6694 93.6892 15.1888 93.7329 14.708V11.8899H92.9326V11.1748H93.7329V10.2258L94.6558 9.948Z" fill="white"/>
<path d="M97.002 8.77393H97.9409V11.9929H97.9629C98.1189 11.7115 98.3528 11.4812 98.6367 11.3298C98.9251 11.1529 99.2574 11.0606 99.5957 11.063C100.289 11.063 101.396 11.491 101.396 13.272V16.344H100.458V13.3799C100.458 12.5369 100.148 11.842 99.2578 11.842C98.9768 11.8495 98.7052 11.9437 98.48 12.1118C98.2547 12.28 98.0871 12.5137 98 12.781C97.9485 12.9245 97.926 13.0768 97.9346 13.229V16.344H96.9956L97.002 8.77393Z" fill="white"/>
<path d="M103.404 13.926C103.382 14.1641 103.412 14.4041 103.492 14.6294C103.573 14.8547 103.701 15.0598 103.868 15.2305C104.036 15.4011 104.238 15.5331 104.462 15.6174C104.686 15.7018 104.925 15.7366 105.164 15.719C105.653 15.7326 106.141 15.6457 106.596 15.4639L106.766 16.125C106.218 16.3553 105.629 16.4676 105.035 16.4548C104.691 16.4744 104.347 16.42 104.026 16.2954C103.705 16.1708 103.414 15.9791 103.174 15.7327C102.933 15.4863 102.749 15.1911 102.632 14.8672C102.515 14.5433 102.469 14.1982 102.497 13.855C102.458 13.5089 102.492 13.1585 102.596 12.8262C102.7 12.4938 102.872 12.1867 103.101 11.9241C103.329 11.6614 103.61 11.449 103.925 11.3003C104.24 11.1516 104.582 11.0696 104.93 11.0598C105.234 11.0657 105.533 11.1352 105.809 11.2637C106.084 11.3921 106.33 11.5769 106.53 11.8059C106.73 12.0349 106.88 12.3031 106.97 12.5935C107.061 12.8839 107.089 13.1899 107.054 13.4919C107.057 13.6423 107.046 13.7926 107.021 13.9409L103.404 13.926ZM106.147 13.2539C106.173 13.0671 106.159 12.8771 106.107 12.696C106.054 12.515 105.964 12.3468 105.842 12.2029C105.72 12.059 105.569 11.9425 105.4 11.8608C105.23 11.7792 105.045 11.7342 104.856 11.729C104.468 11.7558 104.104 11.9274 103.837 12.21C103.57 12.4925 103.419 12.8651 103.414 13.2539H106.147Z" fill="white"/>
<path d="M110.82 10.2349C110.741 10.2336 110.663 10.2167 110.591 10.1853C110.519 10.154 110.453 10.1087 110.399 10.052C110.344 9.99539 110.301 9.92855 110.272 9.85526C110.243 9.78196 110.229 9.70383 110.23 9.62503C110.231 9.54624 110.248 9.46832 110.279 9.39603C110.311 9.32374 110.356 9.25843 110.413 9.20365C110.469 9.14886 110.536 9.10563 110.609 9.07669C110.683 9.04775 110.761 9.03363 110.84 9.03494C110.92 9.03155 110.999 9.04481 111.073 9.07376C111.148 9.10271 111.215 9.14675 111.272 9.20316C111.328 9.25956 111.372 9.32707 111.401 9.4014C111.43 9.47573 111.443 9.55534 111.44 9.63504C111.443 9.71577 111.429 9.79602 111.399 9.87113C111.369 9.94623 111.324 10.0145 111.267 10.0716C111.21 10.1286 111.141 10.1732 111.066 10.2027C110.991 10.2322 110.91 10.2459 110.83 10.243L110.82 10.2349ZM110.371 16.3479V11.1839H111.308V16.3479H110.371Z" fill="white"/>
<path d="M112.843 9.25203C113.43 9.14801 114.026 9.09852 114.623 9.10408C115.346 9.04951 116.064 9.26295 116.64 9.70393C116.849 9.89265 117.014 10.1246 117.125 10.3836C117.236 10.6426 117.288 10.9225 117.28 11.2039C117.294 11.4851 117.252 11.7663 117.155 12.0306C117.058 12.2949 116.909 12.537 116.716 12.742C116.421 13.0151 116.074 13.2258 115.696 13.3614C115.318 13.497 114.917 13.5547 114.516 13.5311C114.265 13.5382 114.014 13.5171 113.768 13.4681V16.347H112.843V9.25203ZM113.77 12.7091C114.022 12.7669 114.28 12.7924 114.539 12.785C115.671 12.785 116.339 12.2311 116.339 11.2601C116.339 10.2891 115.667 9.83992 114.639 9.83992C114.345 9.83766 114.052 9.86327 113.763 9.91609L113.77 12.7091Z" fill="white"/>
<path d="M118.383 8.77393H119.321V11.9929H119.343C119.5 11.7125 119.733 11.4825 120.016 11.3298C120.305 11.1537 120.637 11.0615 120.976 11.063C121.67 11.063 122.776 11.491 122.776 13.272V16.344H121.843V13.3799C121.843 12.5369 121.532 11.842 120.643 11.842C120.362 11.8497 120.09 11.9439 119.865 12.1121C119.64 12.2802 119.473 12.5139 119.386 12.781C119.334 12.9243 119.311 13.0767 119.32 13.229V16.344H118.382L118.383 8.77393Z" fill="white"/>
<path d="M126.354 16.4681C126.012 16.4709 125.673 16.4027 125.359 16.2676C125.045 16.1326 124.763 15.9337 124.53 15.6836C124.297 15.4335 124.119 15.1377 124.007 14.815C123.894 14.4923 123.851 14.1495 123.878 13.8089C123.848 13.4564 123.892 13.1017 124.007 12.7674C124.123 12.4331 124.308 12.1269 124.549 11.8684C124.791 11.61 125.083 11.4049 125.409 11.2669C125.735 11.1288 126.086 11.0607 126.44 11.0669C126.782 11.0598 127.122 11.1249 127.437 11.2576C127.752 11.3903 128.037 11.5878 128.271 11.8374C128.505 12.0871 128.684 12.3831 128.796 12.7063C128.909 13.0296 128.952 13.3729 128.923 13.7139C128.954 14.0669 128.911 14.4228 128.796 14.7581C128.681 15.0934 128.498 15.4008 128.256 15.6604C128.015 15.9201 127.721 16.1261 127.395 16.2652C127.069 16.4043 126.718 16.4735 126.364 16.4681H126.354ZM126.387 15.762C127.281 15.762 127.954 14.9199 127.954 13.7469C127.954 12.8719 127.518 11.772 126.406 11.772C125.294 11.772 124.825 12.7949 124.825 13.7779C124.825 14.9089 125.466 15.762 126.373 15.762H126.387Z" fill="white"/>
<path d="M130.056 12.5821C130.056 12.0381 130.045 11.6119 130.012 11.1819H130.843L130.896 12.0259H130.917C131.088 11.727 131.337 11.48 131.638 11.3109C131.938 11.1417 132.278 11.0568 132.623 11.065C133.339 11.065 134.448 11.493 134.448 13.265V16.347H133.509V13.3709C133.509 12.5399 133.2 11.835 132.314 11.835C132.03 11.843 131.756 11.9398 131.53 12.1119C131.305 12.2839 131.138 12.5225 131.056 12.794C131.011 12.9356 130.988 13.0834 130.99 13.232V16.347H130.053L130.056 12.5821Z" fill="white"/>
<path d="M136.457 13.926C136.435 14.1643 136.465 14.4043 136.546 14.6296C136.626 14.855 136.755 15.0603 136.922 15.231C137.09 15.4016 137.293 15.5336 137.517 15.6179C137.741 15.7022 137.98 15.7367 138.219 15.719C138.707 15.7323 139.193 15.6454 139.647 15.4639L139.819 16.125C139.271 16.355 138.682 16.4673 138.088 16.4548C137.744 16.4746 137.4 16.4204 137.079 16.2959C136.758 16.1713 136.467 15.9793 136.227 15.7329C135.986 15.4865 135.801 15.1914 135.685 14.8674C135.568 14.5435 135.522 14.1982 135.55 13.855C135.512 13.5089 135.546 13.1585 135.65 12.8262C135.753 12.4938 135.925 12.1867 136.153 11.9241C136.382 11.6614 136.663 11.449 136.978 11.3003C137.293 11.1516 137.635 11.0696 137.983 11.0598C138.287 11.0657 138.586 11.1352 138.862 11.2637C139.137 11.3921 139.383 11.5769 139.583 11.8059C139.783 12.0349 139.933 12.3031 140.023 12.5935C140.113 12.8839 140.141 13.19 140.106 13.4919C140.11 13.6423 140.099 13.7927 140.073 13.9409L136.457 13.926ZM139.199 13.2539C139.225 13.0671 139.211 12.877 139.159 12.6958C139.106 12.5146 139.017 12.3466 138.895 12.2026C138.773 12.0587 138.622 11.942 138.452 11.8604C138.282 11.7787 138.096 11.7341 137.908 11.729C137.52 11.7558 137.157 11.9274 136.89 12.21C136.623 12.4925 136.472 12.8652 136.467 13.2539H139.199Z" fill="white"/>
<path d="M43.2026 21.219L36.8779 39.842H39.7778L41.6689 34.1228H47.7939L49.7358 39.842H52.7119L46.3589 21.219H43.2026ZM44.7026 24.282C44.9156 25.114 45.1469 25.9769 45.4429 26.9089L47.1489 31.8459H42.2959L43.9775 26.877C44.2355 26.071 44.4786 25.201 44.7046 24.282H44.7026Z" fill="white"/>
<path d="M60.8945 26.0479C60.0287 26.0104 59.1673 26.1867 58.3857 26.5614C57.6042 26.936 56.9266 27.4973 56.4136 28.1959L56.3027 26.3441H53.7266L53.7407 26.5799C53.8167 27.7349 53.8496 29.0039 53.8496 30.8289V45.182H56.666V38.482C57.1474 39.0235 57.7416 39.4527 58.4072 39.7388C59.0729 40.025 59.7934 40.1612 60.5176 40.138C61.3157 40.1448 62.1068 39.9871 62.8413 39.6746C63.5758 39.3622 64.238 38.9018 64.7866 38.3221C66.0894 36.8263 66.7648 34.8853 66.6719 32.9039C66.7365 31.1111 66.1554 29.3547 65.0347 27.9539C64.5272 27.3514 63.8933 26.8683 63.1777 26.5389C62.4622 26.2094 61.6823 26.0417 60.8945 26.0479ZM60.1948 28.379C62.7068 28.379 63.8296 30.707 63.8296 33.012C63.8296 35.987 62.3969 37.8321 60.0879 37.8321C59.3218 37.8318 58.578 37.5738 57.9761 37.0999C57.3741 36.626 56.9486 35.9637 56.7686 35.2191C56.6962 34.9206 56.663 34.614 56.6689 34.307V32.0411C56.6783 31.8056 56.708 31.5712 56.7578 31.3409C56.7728 31.2629 56.7878 31.1869 56.7998 31.1109C56.9843 30.3448 57.417 29.6613 58.0308 29.1671C58.6446 28.6728 59.405 28.3957 60.1929 28.379H60.1948Z" fill="white"/>
<path d="M75.4028 26.0479C74.5371 26.0104 73.6754 26.1869 72.894 26.5616C72.1127 26.9362 71.4357 27.4974 70.9229 28.1959L70.812 26.344H68.2349L68.25 26.5799C68.325 27.7349 68.3569 29.0039 68.3569 30.8289V45.1819H71.1748V38.482C71.6561 39.0231 72.2502 39.4519 72.9155 39.7381C73.5808 40.0242 74.3011 40.1608 75.0249 40.138C75.8235 40.1446 76.6147 39.9868 77.3496 39.6744C78.0846 39.3619 78.7475 38.9017 79.2969 38.3221C80.598 36.8254 81.2722 34.8848 81.1797 32.9039C81.2433 31.1111 80.6624 29.3549 79.542 27.9539C79.0346 27.3515 78.4005 26.8683 77.6851 26.5389C76.9696 26.2094 76.1904 26.0418 75.4028 26.0479ZM74.7026 28.379C77.2146 28.379 78.3379 30.707 78.3379 33.012C78.3379 35.987 76.9027 37.8321 74.5957 37.8321C73.8294 37.832 73.0855 37.5743 72.4834 37.1004C71.8813 36.6265 71.456 35.9638 71.2759 35.219C71.2041 34.9205 71.1704 34.6139 71.1758 34.3069V32.0411C71.1861 31.8056 71.2164 31.5712 71.2666 31.3409C71.2796 31.2669 71.2936 31.191 71.3076 31.115C71.4907 30.3478 71.9231 29.6629 72.5371 29.1678C73.1511 28.6727 73.9121 28.3953 74.7007 28.379H74.7026Z" fill="white"/>
<path d="M93.5767 29.11C90.9487 28.092 90.106 27.2909 90.106 25.8099C90.106 24.5659 91.0957 23.3099 93.3057 23.3099C94.4634 23.2825 95.607 23.5694 96.6147 24.14L96.854 24.2889L97.6489 21.9371L97.4907 21.8451C96.2282 21.1843 94.8144 20.8663 93.3906 20.9229C89.7966 20.9229 87.291 23.0459 87.291 26.0809C87.291 28.5309 88.8638 30.2421 92.2388 31.4691C94.6258 32.3631 95.5176 33.277 95.5176 34.847C95.5176 36.623 94.145 37.7259 91.938 37.7259C90.5026 37.727 89.0948 37.3283 87.8735 36.5741L87.6299 36.4171L86.8735 38.8241L87.0156 38.9151C88.4695 39.7285 90.1099 40.1505 91.7759 40.14C96.6169 40.14 98.3359 37.187 98.3359 34.658C98.3319 32.051 96.9547 30.442 93.5767 29.11Z" fill="white"/>
<path d="M103.403 23.135L100.64 24.002V26.344H98.6167V28.5959H100.64V35.4958C100.522 36.7665 100.868 38.0371 101.615 39.072C101.969 39.4305 102.395 39.7107 102.864 39.895C103.333 40.0793 103.835 40.1633 104.339 40.1418C105.079 40.1523 105.816 40.0381 106.519 39.804L106.678 39.75L106.542 37.4939L106.272 37.5759C105.846 37.6943 105.403 37.7457 104.961 37.728C103.869 37.728 103.403 37.038 103.403 35.416V28.593H106.803V26.3408H103.403V23.135Z" fill="white"/>
<path d="M113.784 26.0479C109.842 26.0479 107.084 28.989 107.084 33.201C107.084 37.285 109.748 40.139 113.565 40.139H113.592C116.816 40.139 120.285 37.8911 120.285 32.9571C120.349 31.1266 119.704 29.3418 118.485 27.9749C117.879 27.3433 117.148 26.8456 116.338 26.5138C115.529 26.1819 114.658 26.0231 113.784 26.0479ZM113.703 28.2721C116.238 28.2721 117.391 30.7429 117.391 33.0389C117.391 35.8639 115.817 37.9139 113.649 37.9139H113.622C111.485 37.9139 109.934 35.8989 109.934 33.1219C109.934 30.7069 111.1 28.2721 113.703 28.2721Z" fill="white"/>
<path d="M128.918 26.178L128.75 26.1351C128.521 26.0756 128.286 26.0462 128.05 26.0479C127.309 26.0633 126.587 26.2831 125.963 26.6832C125.34 27.0833 124.839 27.6481 124.517 28.315L124.435 26.3441H121.906L121.923 26.5799C121.997 27.6959 122.029 28.948 122.029 30.639L122.003 39.8389H124.821V32.6571C124.819 32.292 124.845 31.9272 124.898 31.566C124.964 30.8138 125.3 30.1111 125.846 29.5887C126.391 29.0663 127.107 28.7596 127.862 28.7259C128.115 28.7287 128.367 28.7451 128.618 28.775L128.918 28.806V26.178Z" fill="white"/>
<path d="M135.254 26.02C131.502 26.02 128.883 29.0198 128.883 33.3088C128.883 37.4398 131.489 40.1089 135.524 40.1089C137.055 40.1419 138.575 39.8502 139.985 39.2529L140.153 39.178L139.613 37.0779L139.377 37.1719C138.257 37.6247 137.054 37.8397 135.847 37.803C135.293 37.8468 134.736 37.7723 134.213 37.5845C133.691 37.3966 133.214 37.0996 132.814 36.7134C132.415 36.3271 132.103 35.8605 131.898 35.3442C131.693 34.8279 131.6 34.2739 131.626 33.719L140.721 33.7458L140.758 33.5669C140.823 33.1785 140.852 32.7847 140.843 32.3909C140.843 29.4539 139.379 26.02 135.254 26.02ZM135.065 28.1638C135.446 28.1472 135.826 28.2089 136.182 28.3447C136.538 28.4806 136.862 28.6878 137.135 28.9539C137.763 29.6829 138.107 30.6138 138.104 31.5759H131.68C131.943 29.9499 132.958 28.1638 135.065 28.1638Z" fill="white"/>
</svg>
