<svg width="80" height="80" viewBox="0 0 80 80" fill="none" xmlns="http://www.w3.org/2000/svg">
<rect width="80" height="80" fill="#A37D52"/>
<g clip-path="url(#clip0)">
<path d="M32.0731 39.8723C30.0058 38.7769 27.9385 37.6898 25.8795 36.5944C25.303 36.2896 24.5782 36.0837 24.1994 35.6143C21.1602 31.8504 18.1541 28.0535 15.2467 24.1826C14.8761 23.6884 15.1232 22.7412 15.082 22C15.8232 22.0741 16.828 21.8682 17.2563 22.2718C20.1472 24.9897 23.0381 27.7323 25.6901 30.6891C27.0738 32.2375 28.861 32.9211 30.5906 33.1187C32.9049 33.3823 34.9804 34.14 37.1136 34.8813C38.5219 35.3672 39.6173 36.8497 39.4773 38.0275C39.3373 39.2217 37.7148 40.7865 36.3558 40.696C34.9145 40.5971 33.4979 40.1524 32.0648 39.8641C32.0566 39.8559 32.0731 39.8723 32.0731 39.8723Z" fill="#F3F3F4"/>
<path d="M50.9993 38.2252C51.024 37.8217 51.0487 37.4181 51.0898 36.7016C51.4769 36.9075 51.897 36.9733 51.9876 37.1875C53.536 40.6549 56.641 42.5162 59.5401 44.5917C60.8414 45.5224 62.1262 46.486 63.7405 47.672C62.6863 48.1991 61.7391 48.9898 61.4097 48.7839C59.4742 47.5814 57.4069 48.2074 55.4303 48.1497C51.9464 48.0344 49.1791 47.0131 47.7542 43.521C46.9965 41.6762 46.0494 39.9054 45.201 38.1017C44.0315 35.6144 44.9457 34.1319 47.6966 34.0578C48.1001 34.0495 48.5037 34.1237 48.9238 34.1648C49.6321 35.5238 50.3321 36.8663 51.024 38.2088C51.2793 39.0406 50.4063 40.2431 51.8476 40.6796C51.8558 41.3467 51.7899 42.0303 51.897 42.681C52.177 44.4188 52.3747 44.5094 54.4914 44.4929C53.6842 43.3398 52.7618 42.0138 51.8393 40.6961C51.5675 39.8642 52.4817 38.6453 50.9993 38.2252Z" fill="#F3F3F4"/>
<path d="M32.0554 39.8558C32.2613 40.3088 32.4672 40.77 32.7225 41.3383C25.796 41.6842 18.9188 42.0301 12.0334 42.3678C11.4899 42.3925 10.8557 42.4831 10.4274 42.2443C10.1391 42.0878 9.89206 41.2065 10.0568 40.9924C10.4439 40.5065 11.0533 40.0041 11.6463 39.9052C12.9559 39.6911 14.2654 39.444 15.5503 39.1887C17.7575 38.7604 20.0389 38.6616 22.2956 38.291C24.7829 37.8792 27.4102 37.8133 29.7328 39.4523C30.3176 39.8641 31.2812 39.7405 32.0719 39.8641C32.0719 39.8723 32.0554 39.8558 32.0554 39.8558Z" fill="#F3F3F4"/>
<path d="M69.9927 40.1852C70.0257 42.3925 69.3503 43.142 67.2501 43.2079C65.257 43.2738 63.5439 41.8407 63.4039 39.9958C63.2886 38.4474 65.0346 36.5778 66.6159 36.5531C68.5514 36.5366 69.9598 38.0521 69.9927 40.1852Z" fill="#F3F3F4"/>
<path d="M51.7815 33.753C51.7568 31.8999 53.2805 30.0797 54.796 30.1538C55.9161 30.2032 58.3045 32.674 58.2716 33.7447C58.2304 34.9719 56.0231 37.3192 54.8124 37.4016C53.3217 37.5086 51.8063 35.6802 51.7815 33.753Z" fill="#F3F3F4"/>
<path d="M57.0934 57.1023C56.5004 57.72 56.1216 58.2883 55.578 58.5766C55.4133 58.6589 54.8367 57.9588 54.4414 57.6212C54.9191 57.2094 55.3639 56.7317 55.9074 56.4187C56.0639 56.3281 56.5004 56.7399 57.0934 57.1023Z" fill="#F3F3F4"/>
<path d="M46.6761 56.114C47.1127 56.5176 47.648 56.8717 47.5986 56.9788C47.3433 57.5553 46.9479 58.066 46.602 58.6013C46.2067 58.2883 45.8113 57.9836 45.416 57.6706C45.8113 57.1929 46.1984 56.707 46.6761 56.114Z" fill="#F3F3F4"/>
<path d="M29.8907 57.1765C29.2895 57.7777 28.8942 58.346 28.3506 58.6178C28.1941 58.7002 27.6176 57.9424 27.2305 57.5636C27.7411 57.1683 28.227 56.7235 28.7871 56.427C28.9353 56.3529 29.3389 56.7894 29.8907 57.1765Z" fill="#F3F3F4"/>
<path d="M20.8394 57.0776C20.2628 57.7035 19.884 58.2718 19.3651 58.5683C19.2086 58.6589 18.6156 57.9753 18.2285 57.6459C18.698 57.2259 19.1263 56.7399 19.6534 56.4187C19.7851 56.3199 20.2299 56.7235 20.8394 57.0776Z" fill="#F3F3F4"/>
<path d="M57.4153 52.3994C58.2718 53.4042 58.6836 53.8737 59.0872 54.3431C58.6919 54.6726 58.3048 55.002 57.9094 55.3315C57.5553 54.7961 57.1023 54.302 56.8799 53.7172C56.7811 53.4701 57.1435 53.0418 57.4153 52.3994Z" fill="#F3F3F4"/>
<path d="M31.9741 54.3927C31.5705 54.5821 31.4305 54.7057 31.3399 54.6809C30.7798 54.508 30.2198 54.3103 29.668 54.1127C29.808 53.775 29.9398 53.4373 30.0798 53.0996C30.6151 53.3796 31.1587 53.6514 31.6858 53.9397C31.7846 54.0056 31.8258 54.1703 31.9741 54.3927Z" fill="#F3F3F4"/>
<path d="M41.2471 54.5243C40.4894 54.5984 39.9787 54.7467 39.501 54.6725C39.2128 54.6231 38.9163 54.2772 38.7598 53.9889C38.6774 53.8407 38.8092 53.3877 38.9574 53.3301C39.2704 53.1983 39.7399 53.0912 39.9869 53.2395C40.3988 53.4783 40.687 53.9313 41.2471 54.5243Z" fill="#F3F3F4"/>
<path d="M50.0932 54.3927C49.6896 54.5821 49.5579 54.7139 49.4673 54.6809C48.899 54.508 48.3472 54.3103 47.7871 54.1127C47.9271 53.775 48.0589 53.4373 48.1989 53.0996C48.7343 53.3796 49.2778 53.6432 49.805 53.9397C49.9038 54.0056 49.945 54.1621 50.0932 54.3927Z" fill="#F3F3F4"/>
<path d="M36.3145 57.6295C36.3803 57.5141 36.4627 57.4153 36.5204 57.2918C36.9157 56.4599 37.9205 56.0811 38.3735 56.6494C38.5464 56.8635 38.4888 57.613 38.4229 57.6295C37.8381 57.7695 37.2204 57.8106 36.6192 57.8518C36.5204 57.8601 36.4133 57.7118 36.3145 57.6295Z" fill="#F3F3F4"/>
<path d="M62.7693 54.8867C62.3328 54.582 62.0445 54.3761 61.748 54.1702C62.0198 53.816 62.2916 53.4701 62.5634 53.116C62.8105 53.3548 63.2223 53.569 63.2635 53.8407C63.3129 54.1125 62.9917 54.4502 62.7693 54.8867Z" fill="#F3F3F4"/>
<path d="M24.0842 58.1811C23.6477 57.8764 23.3512 57.6622 23.0547 57.4563C23.3265 57.1022 23.6065 56.7563 23.8783 56.4021C24.1254 56.6409 24.5207 56.8633 24.5701 57.1351C24.6113 57.4151 24.3066 57.7446 24.0842 58.1811Z" fill="#F3F3F4"/>
<path d="M32.8397 58.2223C32.5185 57.7941 32.0902 57.3576 32.1478 57.2834C32.4032 56.9375 32.7985 56.6904 33.1444 56.4104C33.3174 56.7234 33.6468 57.0446 33.6221 57.3411C33.6056 57.6046 33.2021 57.8352 32.8397 58.2223Z" fill="#F3F3F4"/>
<path d="M53.404 52.8606C53.7664 53.2477 54.1618 53.4865 54.1865 53.7501C54.2112 54.0384 53.8817 54.3513 53.7005 54.6561C53.3546 54.3843 52.9593 54.1454 52.7122 53.8077C52.6546 53.7254 53.0911 53.2806 53.404 52.8606Z" fill="#F3F3F4"/>
<path d="M45.3832 54.1289C44.9467 54.3513 44.6172 54.6561 44.3372 54.6149C44.0737 54.5737 43.8678 54.1701 43.6289 53.923C43.9748 53.6512 44.3207 53.3795 44.6749 53.1077C44.8726 53.3959 45.0785 53.6924 45.3832 54.1289Z" fill="#F3F3F4"/>
<path d="M42.9932 57.2341C42.5731 57.5553 42.1531 57.9918 42.0707 57.926C41.7248 57.6789 41.4777 57.2918 41.1895 56.9541C41.486 56.7729 41.7989 56.427 42.0872 56.4517C42.3507 56.4682 42.5978 56.8717 42.9932 57.2341Z" fill="#F3F3F4"/>
<path d="M52.0129 56.954C51.7 57.3823 51.4941 57.6706 51.2882 57.9588C50.9423 57.687 50.5963 57.4235 50.2422 57.1517C50.481 56.9046 50.6952 56.4928 50.967 56.4516C51.2388 56.4022 51.5682 56.7234 52.0129 56.954Z" fill="#F3F3F4"/>
<path d="M35.2849 52.8606C35.6473 53.2395 36.125 53.6348 36.0755 53.7171C35.8614 54.0795 35.4908 54.3513 35.186 54.6643C34.9801 54.3925 34.6095 54.1125 34.6095 53.8325C34.6013 53.5607 34.9637 53.2889 35.2849 52.8606Z" fill="#F3F3F4"/>
<path d="M61.1123 57.2339C60.6923 57.5551 60.2722 57.9916 60.1899 57.934C59.8439 57.6869 59.5969 57.2998 59.3086 56.9621C59.6133 56.7809 59.9181 56.435 60.2063 56.4515C60.4781 56.468 60.717 56.8715 61.1123 57.2339Z" fill="#F3F3F4"/>
<path d="M26.4961 52.8936C26.735 53.3383 27.0562 53.6677 27.015 53.9395C26.9738 54.2113 26.5703 54.4255 26.3314 54.6726C26.0596 54.3349 25.7878 53.9972 25.5078 53.6513C25.7878 53.4371 26.0679 53.223 26.4961 52.8936Z" fill="#F3F3F4"/>
<path d="M21.6374 52.9102C21.8515 53.3467 22.148 53.6761 22.1068 53.9561C22.0656 54.2197 21.6538 54.4256 21.4067 54.6562C21.135 54.3103 20.8714 53.9561 20.5996 53.6102C20.8961 53.4126 21.1926 53.2067 21.6374 52.9102Z" fill="#F3F3F4"/>
<path d="M17.4458 52.8936C17.6846 53.3383 17.9976 53.6677 17.9564 53.9395C17.9152 54.2113 17.5117 54.4255 17.2646 54.6643C16.9928 54.3266 16.721 53.9807 16.4492 53.643C16.7375 53.4289 17.0175 53.223 17.4458 52.8936Z" fill="#F3F3F4"/>
</g>
<defs>
<clipPath id="clip0">
<rect width="60" height="36.6177" fill="white" transform="translate(10 22)"/>
</clipPath>
</defs>
</svg>
