<svg width="28" height="28" viewBox="0 0 28 28" fill="none" xmlns="http://www.w3.org/2000/svg">
<path d="M12.817 0H15.1838C15.3619 0.0375641 15.5448 0.0865112 15.7261 0.112643C18.2159 0.393428 20.581 1.35276 22.5628 2.88585C24.5447 4.41894 26.0668 6.46687 26.9641 8.80627C27.4098 10.1148 27.7564 11.455 28 12.8158V15.1807C27.9559 15.4028 27.905 15.6216 27.874 15.8453C27.498 18.6817 26.2602 21.3343 24.3284 23.4448C22.3967 25.5554 19.8643 27.0223 17.0723 27.6471C16.4467 27.7859 15.8126 27.8806 15.1838 27.9982H12.817C12.6373 27.9606 12.4568 27.9134 12.2755 27.884C9.7858 27.6035 7.42057 26.6446 5.43875 25.1118C3.45693 23.579 1.93409 21.5311 1.03671 19.1919C0.590584 17.8829 0.244284 16.5419 0 15.1807V12.8158C0.0440969 12.5953 0.0958432 12.3748 0.123608 12.1511C0.500778 9.31484 1.73927 6.66271 3.67156 4.55256C5.60384 2.44241 8.1372 0.975903 10.9293 0.351087C11.5532 0.21063 12.1882 0.115959 12.817 0ZM11.6303 7.34949C11.1403 7.37889 10.2449 7.37402 9.36789 7.50141C8.01558 7.6974 6.67018 7.95047 5.33747 8.24445C5.18886 8.27571 5.04728 8.33587 4.92199 8.42169C4.7967 8.50751 4.68982 8.61738 4.60699 8.74467C4.52416 8.87195 4.46725 9.01423 4.43952 9.16354C4.41179 9.31285 4.4135 9.46617 4.4451 9.61471C4.47093 9.76874 4.52772 9.91619 4.61098 10.0483C4.69423 10.1805 4.80298 10.2947 4.93076 10.3845C5.05855 10.4743 5.20248 10.5377 5.35502 10.5713C5.50756 10.6048 5.66547 10.6077 5.81914 10.5798C6.12599 10.5353 6.43038 10.4743 6.73065 10.397C10.8334 9.44148 15.1182 9.61582 19.1297 10.9016C20.291 11.2691 21.4063 11.7885 22.5365 12.2507C22.7508 12.359 22.9918 12.4023 23.2303 12.3754C23.4688 12.3484 23.6948 12.2522 23.8795 12.0988C24.0708 11.9672 24.2109 11.7739 24.2766 11.5512C24.3423 11.3285 24.3291 11.0899 24.2399 10.8755C24.054 10.495 23.7545 10.1817 23.3826 9.97895C19.7214 8.20432 15.6988 7.30302 11.6303 7.3461V7.34949ZM22.633 15.3228C22.6106 15.0626 22.5138 14.8144 22.3539 14.6079C22.194 14.4014 21.9774 14.2452 21.7311 14.1583C17.9712 12.2508 13.7297 11.5027 9.54413 12.0089C8.37456 12.1696 7.21635 12.4047 6.07673 12.7129C5.9235 12.7512 5.77972 12.8203 5.65407 12.916C5.52842 13.0117 5.42388 13.132 5.34624 13.2695C5.26861 13.4071 5.21969 13.5589 5.2027 13.7159C5.18571 13.8729 5.20095 14.0319 5.24736 14.1828C5.32505 14.4766 5.51168 14.7298 5.7697 14.8904C6.02773 15.051 6.33783 15.1069 6.63576 15.0469C6.88071 15.0052 7.12302 14.9505 7.36225 14.8834C10.2418 14.1189 13.2672 14.0869 16.1623 14.7903C17.7118 15.2352 19.2331 15.7736 20.7175 16.4024C21.7072 16.7699 22.6216 16.3322 22.633 15.3196V15.3228ZM11.7866 16.3501C11.3141 16.3512 10.8426 16.3833 10.3743 16.4464C9.19511 16.6555 8.01222 16.8809 6.85426 17.1863C6.70185 17.2245 6.55962 17.294 6.43559 17.3904C6.31156 17.4869 6.20868 17.6082 6.13415 17.7465C6.05961 17.8848 6.01492 18.0371 6.00256 18.1937C5.99021 18.3503 6.01044 18.5079 6.06237 18.6562C6.15146 18.9586 6.35424 19.2144 6.62858 19.3696C6.90291 19.5247 7.22712 19.567 7.53211 19.4876C7.73626 19.4468 7.93415 19.378 8.13341 19.3241C10.474 18.6383 12.9557 18.5938 15.3194 19.1951C16.6055 19.5846 17.8644 20.0593 19.0875 20.616C20.0511 21.0145 20.9916 20.5263 20.9687 19.5725C20.9567 19.3221 20.8733 19.0802 20.7287 18.8753C20.584 18.6705 20.3841 18.5113 20.1521 18.4162C17.5773 17.0402 14.6996 16.3287 11.7802 16.3468L11.7866 16.3501Z" fill="#6B6B76"/>
</svg>
