<svg width="82" height="64" viewBox="0 0 82 64" fill="none" xmlns="http://www.w3.org/2000/svg">
<path d="M42.2671 63.315L56.4521 34.445C49.8651 31.406 46.8262 25.327 46.8262 18.235C46.8262 7.597 54.4263 0 64.0483 0C73.1653 0 81.269 7.6 81.269 18.235C81.269 24.313 78.7374 28.873 75.1924 34.445L56.4521 63.315H42.2671ZM4.55908 18.235C4.55908 7.597 12.1593 0 21.7803 0C30.8973 0 39.001 7.6 39.001 18.235C39.001 24.313 36.4703 28.873 32.9243 34.445L14.1812 63.315H0L14.1821 34.445C7.60013 31.406 4.55908 25.327 4.55908 18.239V18.235Z" fill="#6B6B76"/>
</svg>
