<svg width="45" height="45" viewBox="0 0 45 45" fill="none" xmlns="http://www.w3.org/2000/svg">
<rect width="45" height="45" fill="white"/>
<path d="M42.4146 0H0V45H45V0H42.4146ZM22.1821 33.249C20.1178 33.2487 18.0998 32.6362 16.3835 31.489C14.6673 30.3419 13.3302 28.7116 12.5405 26.8043C11.7509 24.8969 11.5449 22.7984 11.948 20.7739C12.3511 18.7493 13.3452 16.8897 14.8052 15.4303C16.2652 13.9709 18.1249 12.9772 20.1497 12.575C22.1744 12.1727 24.2734 12.38 26.1804 13.1704C28.0874 13.9609 29.7171 15.2991 30.8635 17.0158C32.0099 18.7325 32.6212 20.7506 32.6206 22.8149C32.6198 25.5825 31.52 28.2365 29.5627 30.1932C27.6055 32.1498 24.9511 33.249 22.1836 33.249H22.1821ZM36.5581 12.375C35.7793 12.375 35.0179 12.1441 34.3704 11.7114C33.7228 11.2788 33.2182 10.6638 32.9202 9.94427C32.6221 9.22479 32.5448 8.43317 32.6968 7.66937C32.8487 6.90557 33.2235 6.20387 33.7742 5.6532C34.3248 5.10253 35.026 4.72755 35.7898 4.57562C36.5536 4.42369 37.3459 4.50172 38.0654 4.79974C38.7849 5.09776 39.3994 5.60242 39.832 6.24994C40.2647 6.89746 40.4956 7.65874 40.4956 8.4375C40.4952 9.48049 40.0813 10.4808 39.3442 11.2187C38.6072 11.9566 37.607 12.3719 36.564 12.3735L36.5581 12.375Z" fill="#909099"/>
</svg>
