<svg width="80" height="80" viewBox="0 0 80 80" fill="none" xmlns="http://www.w3.org/2000/svg">
<rect width="80" height="80" fill="#A37D52"/>
<g clip-path="url(#clip0)">
<path d="M61.9545 61.9491C61.2157 58.6301 60.6176 55.1235 59.6207 51.7458C58.9639 49.5058 60.0194 47.8287 61.1922 46.5621C63.6551 43.8999 68.1352 45.2838 68.7216 48.8725C69.3666 52.8131 69.6129 56.824 69.8709 60.8232C69.9413 61.9022 69.5542 63.0633 69.1789 64.107C68.6864 65.4909 68.2759 67.0742 67.3142 68.0711C65.9655 69.4667 64.5112 68.2118 63.1508 67.5081C62.6817 67.2619 61.9545 67.2736 61.4268 67.426C58.7176 68.2001 56.0554 69.5488 53.2876 67.4612C52.971 67.2267 52.0796 67.4143 51.6574 67.7075C48.9248 69.5957 46.6262 68.3056 43.8818 66.6051C49.5464 63.4737 56.0085 64.6934 61.9545 61.9491Z" fill="#F3F3F4"/>
<path d="M30.817 62.3362C29.6677 58.3487 28.4832 54.3612 28.835 50.1392C28.8936 49.3769 28.8585 48.5442 29.1751 47.8991C30.817 44.4863 34.57 44.1697 36.4464 47.4887C37.5137 49.3886 37.9945 51.7576 38.2056 53.9742C38.4988 57.0704 38.1118 60.2252 38.3346 63.3331C38.4753 65.3855 37.5254 66.6169 36.1649 67.8131C34.7224 69.0915 33.4441 68.6224 31.9429 67.7897C31.2509 67.4027 29.9492 67.4261 29.2572 67.8249C27.369 68.939 25.7506 68.8335 23.8037 67.8718C22.7482 67.344 20.9421 67.2619 19.9687 67.8366C17.1071 69.5254 14.9726 68.2119 12.5332 66.7342C18.3854 63.6966 24.871 64.1423 30.817 62.3362Z" fill="#F3F3F4"/>
<path d="M21.2121 48.8608C18.4912 40.3346 15.9814 32.4652 13.4364 24.6075C12.4044 21.4058 11.1847 18.251 10.2113 15.0258C9.91807 14.0289 9.66006 12.5981 11.3489 12.2932C12.6507 12.0469 13.2605 12.5747 13.8469 13.9234C15.9462 18.7787 19.0072 23.3174 20.4028 28.3487C21.4701 32.2072 24.2144 34.846 25.5866 38.3878C26.4662 40.6748 26.9587 42.1173 24.965 43.9351C23.6045 45.1783 22.678 46.9023 21.2121 48.8608Z" fill="#F3F3F4"/>
<path d="M58.0845 42.0235C56.4895 44.0524 54.8476 46.1517 52.9594 48.5559C48.6435 36.6052 44.3863 24.8772 41.208 12C44.6326 12.6685 45.6529 14.1814 46.5325 16.222C50.2268 24.7131 54.0853 33.122 58.0845 42.0235Z" fill="#F3F3F4"/>
<path d="M69.9883 36.0306C70.0821 38.8453 67.2088 42.4105 64.699 42.5982C62.154 42.7976 58.4246 39.2909 58.2369 36.5114C58.061 33.9899 61.5207 30.2018 64.2885 29.8969C66.6106 29.6389 69.9062 33.1807 69.9883 36.0306Z" fill="#F3F3F4"/>
<path d="M38.3461 35.8194C38.3344 39.6661 36.0005 42.6568 33.092 42.5512C30.5471 42.4574 27.5916 38.9976 27.6503 36.1829C27.7324 32.8639 30.1366 29.9789 32.8926 29.8851C36.0592 29.7795 38.3579 32.2776 38.3461 35.8194Z" fill="#F3F3F4"/>
</g>
<defs>
<clipPath id="clip0">
<rect width="60" height="56.7045" fill="white" transform="translate(10 12)"/>
</clipPath>
</defs>
</svg>
