<svg width="80" height="80" viewBox="0 0 80 80" fill="none" xmlns="http://www.w3.org/2000/svg">
<rect width="80" height="80" fill="#A37D52"/>
<g clip-path="url(#clip0)">
<path d="M26.4754 59.5895C29.9137 62.0529 33.0995 64.3248 36.2505 66.6315C36.9121 67.1102 37.5997 67.6673 38.0088 68.3463C38.209 68.6857 37.9044 69.4343 37.6519 69.8957C37.5649 70.0523 36.8511 70.0175 36.5378 69.8608C31.7851 67.3714 27.0325 64.8645 22.3146 62.3053C21.5748 61.9049 20.9306 61.2869 20.33 60.6863C19.4944 59.842 19.5031 58.8845 20.243 57.9705C20.6086 57.5179 21.0264 57.1175 21.4616 56.7258C24.3341 54.1231 27.163 51.4596 30.14 48.9788C31.3151 48.0039 32.7339 47.3336 34.4574 47.4642C36.4768 47.6209 38.5224 47.412 40.5418 47.5338C46.0169 47.8646 51.2657 46.733 56.471 45.2533C57.6374 44.9225 58.9605 44.1652 59.7961 45.732C60.2836 46.6373 59.4131 47.6905 57.5765 48.2824C53.4419 49.6055 49.2463 50.711 45.2858 52.6173C43.7016 53.3745 41.7169 53.5051 39.8977 53.566C36.355 53.6879 33.2562 54.715 30.523 57.0304C29.3914 57.9792 27.9987 58.6408 26.4754 59.5895Z" fill="#F3F3F4"/>
<path d="M55.5217 64.8209C55.3998 62.8624 56.7403 62.1921 57.7065 61.5567C63.0859 58.014 65.1575 52.4518 66.646 46.6895C67.3075 44.139 67.9082 41.4755 67.647 38.6813C66.6808 28.0793 62.4243 19.6359 52.5709 14.657C49.1239 12.9161 45.5463 11.7323 41.6119 11.7671C40.4455 11.7758 39.5577 12.1414 39.1224 13.1076C37.0421 17.7209 34.7354 22.2734 33.1686 27.0609C32.6202 28.7495 33.952 31.0475 34.4133 33.0757C34.4742 33.3455 34.4655 33.6327 34.5178 34.1811C33.1686 34.1811 31.8281 34.1811 30.1916 34.1811C30.1916 31.5872 30.1829 29.0107 30.2003 26.4341C30.2003 26.0163 30.2526 25.5463 30.4528 25.1981C33.2034 20.5847 36.102 16.0497 38.6785 11.3406C39.3313 10.148 39.9668 10.061 40.9765 10.0088C43.8751 9.8608 46.4864 10.7922 49.2283 11.6539C58.3245 14.5177 64.3306 20.2801 67.3075 29.3153C68.0648 31.622 68.7438 33.8939 68.5958 36.3746C68.4739 38.3941 68.5958 40.4309 68.5697 42.4591C68.4391 51.1462 64.644 58.0401 58.0982 63.5326C57.428 64.0984 56.4966 64.3509 55.5217 64.8209Z" fill="#F3F3F4"/>
<path d="M21.2964 37.0273C23.8642 36.8184 27.3112 37.5148 30.6798 36.2788C31.3849 36.0176 32.5687 36.6356 33.3521 37.1318C34.3618 37.7672 35.0495 38.8031 34.4576 40.0739C34.0136 41.0314 33.2041 41.6146 32.0203 41.4666C29.7833 41.1881 27.5723 41.6146 25.2569 40.7616C22.811 39.8563 19.9733 39.9869 17.301 39.6996C16.5873 39.6213 15.7952 39.8389 15.151 39.6039C14.0543 39.1948 13.0445 38.5419 12 37.9935C12.618 36.0785 14.1761 37.2275 15.2729 37.0883C16.979 36.8794 18.7373 37.0273 21.2964 37.0273Z" fill="#F3F3F4"/>
<path d="M39.3927 31.8048C41.621 31.8222 42.8571 33.1018 43.005 35.539C43.1182 37.3931 41.3164 38.9164 39.0793 38.8467C37.3384 38.7945 35.5801 37.1058 35.4931 35.3911C35.406 33.5631 37.3297 31.7874 39.3927 31.8048Z" fill="#F3F3F4"/>
</g>
<defs>
<clipPath id="clip0">
<rect width="56.6227" height="60" fill="white" transform="translate(12 10)"/>
</clipPath>
</defs>
</svg>
