<svg width="50" height="50" viewBox="0 0 50 50" fill="none" xmlns="http://www.w3.org/2000/svg">
<circle cx="25" cy="25" r="23.5" stroke="#E3E3E3" stroke-opacity="0.5" stroke-width="3"/>
<path d="M26.6758 24.25L31.9062 19.0703L32.9727 18.0039C33.125 17.8516 33.125 17.5977 32.9727 17.3945L31.8555 16.2773C31.6523 16.125 31.3984 16.125 31.2461 16.2773L25 22.5742L18.7031 16.2773C18.5508 16.125 18.2969 16.125 18.0938 16.2773L16.9766 17.3945C16.8242 17.5977 16.8242 17.8516 16.9766 18.0039L23.2734 24.25L16.9766 30.5469C16.8242 30.6992 16.8242 30.9531 16.9766 31.1562L18.0938 32.2734C18.2969 32.4258 18.5508 32.4258 18.7031 32.2734L25 25.9766L30.1797 31.207L31.2461 32.2734C31.3984 32.4258 31.6523 32.4258 31.8555 32.2734L32.9727 31.1562C33.125 30.9531 33.125 30.6992 32.9727 30.5469L26.6758 24.25Z" fill="#6B6B76"/>
</svg>
