<svg width="12" height="16" viewBox="0 0 12 16" fill="none" xmlns="http://www.w3.org/2000/svg">
<path d="M3.69231 1.20312C3.69231 0.822266 3.98077 0.5 4.38462 0.5H7.61539C7.99039 0.5 8.30769 0.822266 8.30769 1.20312C8.30769 1.61328 7.99039 1.90625 7.61539 1.90625H6.69231V3.37109C7.93269 3.51758 9.05769 4.04492 9.95192 4.86523L10.8173 3.98633C11.0769 3.72266 11.5096 3.72266 11.7692 3.98633C12.0577 4.2793 12.0577 4.71875 11.7692 4.98242L10.875 5.89062C11.5673 6.88672 12 8.11719 12 9.40625C12 12.7754 9.28846 15.5 6 15.5C2.68269 15.5 0 12.7754 0 9.40625C0 6.30078 2.30769 3.72266 5.30769 3.37109V1.90625H4.38462C3.98077 1.90625 3.69231 1.61328 3.69231 1.20312ZM6 14.0937C8.53846 14.0937 10.6154 12.0137 10.6154 9.40625C10.6154 6.82812 8.53846 4.71875 6 4.71875C3.43269 4.71875 1.38462 6.82812 1.38462 9.40625C1.38462 12.0137 3.43269 14.0937 6 14.0937Z" fill="#464655"/>
</svg>
