<svg width="27" height="16" viewBox="0 0 27 16" fill="none" xmlns="http://www.w3.org/2000/svg">
<path d="M16.875 8C16.875 9.89029 15.3608 11.4286 13.5 11.4286C11.6392 11.4286 10.125 9.89029 10.125 8C10.125 6.10971 11.6392 4.57143 13.5 4.57143C15.3608 4.57143 16.875 6.10971 16.875 8ZM27 7.48686C27 7.48686 22.2165 16 13.5169 16C5.43938 16 0 7.48686 0 7.48686C0 7.48686 5.00175 0 13.5169 0C22.1726 0 27 7.48686 27 7.48686ZM19.125 8C19.125 4.84457 16.6073 2.28571 13.5 2.28571C10.3939 2.28571 7.875 4.84457 7.875 8C7.875 11.1566 10.3939 13.7143 13.5 13.7143C16.6073 13.7143 19.125 11.1566 19.125 8Z" fill="white"/>
</svg>
