<svg width="80" height="80" viewBox="0 0 80 80" fill="none" xmlns="http://www.w3.org/2000/svg">
<rect width="80" height="80" fill="#A37D52"/>
<g clip-path="url(#clip0)">
<path d="M33.4832 51.7096C33.4832 58.4701 28.085 65.0678 21.9041 64.6917C15.8146 64.3257 10.2436 59.9136 9.99965 51.9028C9.8065 45.4474 15.8146 39.5714 21.6499 39.4494C27.6682 39.3172 33.4731 45.3762 33.4832 51.7096Z" fill="#F3F3F4"/>
<path d="M51.6606 41.2081C51.6606 40.5371 51.7318 40.3135 51.6505 40.2017C49.9121 37.8533 51.0812 34.6815 49.2005 32.262C47.6044 30.2084 46.4963 27.7584 45.3069 25.4202C44.8799 24.5765 44.5241 23.4887 44.6766 22.6144C44.8291 21.7503 45.5204 20.632 46.2523 20.327C46.9639 20.0322 48.2042 20.4287 48.926 20.9268C49.6986 21.4555 50.2577 22.3908 50.6949 23.265C51.4268 24.7289 52.3824 26.2335 52.5248 27.7889C52.8501 31.1946 54.7715 32.323 57.8213 32.9024C60.1595 33.3498 62.1012 33.8784 63.0161 30.9201C63.1076 30.6354 63.8091 30.5338 64.2259 30.3508C64.3885 30.8794 64.7443 31.4385 64.6732 31.9468C64.5715 32.7398 64.1649 33.4921 63.9311 34.2647C63.4838 35.7489 62.5485 36.4199 60.9727 36.3792C58.3194 36.3182 55.6559 36.3589 52.4943 36.3589C53.1347 37.9041 53.5515 38.9207 54.0293 40.0593C58.0856 38.3006 61.7047 39.795 64.9578 42.0519C68.272 44.3596 69.7664 47.9685 69.99 51.9028C70.3357 58.0227 64.1344 64.9357 58.0653 64.6815C54.3953 64.529 50.4611 63.5531 48.621 59.4867C47.6756 57.4026 46.4048 55.3796 45.927 53.1837C45.1849 49.7781 46.7708 46.7588 48.7023 44.0546C49.4546 42.9872 50.6135 42.1942 51.6606 41.2081ZM55.0968 42.7432C56.3065 45.5592 57.5061 48.2532 58.5837 50.9878C58.7464 51.4047 58.3194 52.0553 58.1669 52.6042C57.6993 52.2688 57.0385 52.0248 56.8047 51.5673C55.4831 48.9546 54.2733 46.281 52.9721 43.526C50.5729 44.1156 49.4038 46.2708 48.9768 48.1719C48.4075 50.7337 48.3364 53.6513 48.9971 56.1725C49.9934 59.9746 53.2262 61.6215 57.4451 61.8452C61.8165 62.079 64.785 60.3914 66.6657 56.447C68.4956 52.6042 67.5298 49.0868 65.5373 45.7828C64.2157 43.5971 62.0402 42.2552 59.4682 41.7367C57.9839 41.4521 56.4794 41.0861 55.0968 42.7432Z" fill="#F3F3F4"/>
<path d="M48.0621 32.5262C46.4152 34.5493 45.1648 36.0945 43.9042 37.6296C42.4301 39.429 41.0475 41.33 39.4413 43.0074C38.3129 44.1867 38.14 45.7624 38.689 46.7282C39.8073 48.6699 39.3498 50.6421 39.5938 52.6042C39.7361 53.7326 40.0716 54.8407 40.2139 55.9793C40.3664 57.2094 40.3766 58.4598 40.4579 59.7712C38.2925 59.7509 37.8147 58.6733 37.4487 57.2501C36.178 52.3602 34.7446 47.5008 33.4637 42.611C32.2234 37.8634 31.095 33.0955 29.9157 28.3378C29.5192 26.7214 30.1495 24.2409 31.5321 23.7123C32.6402 23.2853 34.3583 23.1023 35.2529 23.6716C39.4413 26.3148 43.4264 29.2731 48.0621 32.5262ZM37.6419 38.636C41.6168 34.5696 41.6067 34.4985 37.6419 32.6381C37.6419 34.4781 37.6419 36.247 37.6419 38.636Z" fill="#F3F3F4"/>
<path d="M47.584 17.0841C50.6745 15.6608 53.521 13.8208 56.8046 15.9963C59.8137 17.999 60.3932 20.2254 58.5735 22.8482C57.5162 24.363 55.2898 24.7391 53.7446 23.6513C53.2058 23.2752 52.4637 22.7872 52.362 22.2484C51.8436 19.5951 49.8815 18.3955 47.584 17.0841Z" fill="#F3F3F4"/>
</g>
<defs>
<clipPath id="clip0">
<rect width="60" height="49.712" fill="white" transform="translate(10 15)"/>
</clipPath>
</defs>
</svg>
