<svg width="80" height="80" viewBox="0 0 80 80" fill="none" xmlns="http://www.w3.org/2000/svg">
<rect width="80" height="80" fill="#A37D52"/>
<g clip-path="url(#clip0)">
<path d="M21.2642 65.6793C18.675 67.6568 16.2285 68.7272 13.7515 67.8709C12.3141 67.3714 9.93902 67.035 10.0002 64.2623C24.9135 62.3459 39.8167 60.4397 55.1786 58.4723C54.2 57.0248 53.2927 56.036 52.7932 54.8638C52.0899 53.2328 51.0501 53.5692 49.9492 54.0992C47.8595 55.1084 45.7494 56.1074 43.7515 57.2695C42.5894 57.9423 41.6719 58.0034 40.4895 57.3204C38.5017 56.1788 36.412 55.2205 34.2102 54.1196C34.7708 52.244 35.2805 50.5416 35.8514 48.6354C38.1449 48.9514 39.0726 50.9596 40.5201 52.2032C41.7331 53.2532 42.518 54.242 44.3529 52.8454C45.8106 51.7445 48.7056 51.9484 49.4701 50.6844C50.6118 48.768 47.8901 47.3204 46.993 45.6079C44.6893 41.2246 41.9268 37.0758 39.3172 32.8556C38.9706 32.295 38.4202 31.8464 37.7066 31.0717C36.3407 31.9382 34.9339 32.7537 33.6189 33.7017C31.305 35.3735 29.9798 37.4734 30.2652 40.562C30.4079 42.1319 29.8065 43.8036 29.3274 45.3735C28.7362 47.2899 27.3396 48.1257 25.9839 47.6161C24.3937 47.0248 22.834 44.6497 23.252 43.2226C23.6189 41.9688 24.1694 40.7659 24.6791 39.5529C25.6271 37.2695 26.1368 34.5987 27.6862 32.8454C29.1133 31.2246 31.6821 30.6334 33.7209 29.5325C35.8615 28.3908 36.0348 27.4734 34.5058 25.8118C34.1592 25.4346 33.8432 24.9045 33.4151 24.7618C29.3376 23.4978 28.6852 19.3286 26.5649 16.4846C24.9543 14.3133 26.9013 12.4275 28.9095 10.98C31.6516 14.5172 33.884 18.3398 35.4538 22.5498C36.0858 24.242 36.6567 26.0157 37.5945 27.5447C41.7841 34.3133 46.0858 41.0106 50.3671 47.718C51.7943 49.9606 53.6087 52.0095 54.6791 54.4051C55.9329 57.2083 57.8289 58.1461 60.6526 57.7894C62.2836 57.5855 63.9044 57.9423 65.5761 57.0554C66.728 56.454 68.4609 56.9433 70.0002 56.9433C67.7678 64.0687 63.0073 66.9331 56.5037 65.2409C54.7606 64.7822 53.4151 65.0065 51.8962 66.2399C49.4293 68.2481 46.5343 68.8903 43.5884 66.9942C42.5384 66.3215 41.6312 66.3215 40.5506 66.9841C38.2367 68.401 35.8514 68.5437 33.4864 67.035C32.1714 66.1991 31.0399 65.8933 29.4497 66.9331C26.6567 68.7679 23.7515 68.7374 21.2642 65.6793Z" fill="#F3F3F4"/>
<path d="M15.0358 40.001C15.0358 35.9439 15.0052 31.8869 15.0766 27.8298C15.0868 27.3201 15.6372 26.8308 15.943 26.3313C16.3202 26.7492 17.0338 27.157 17.0338 27.5749C17.0949 35.8624 17.1051 44.1499 17.0338 52.4373C17.0338 52.8553 16.3202 53.263 15.943 53.6809C15.6372 53.1815 15.0868 52.6922 15.0766 52.1927C15.0052 48.1254 15.0358 44.0683 15.0358 40.001Z" fill="#F3F3F4"/>
<path d="M51.7529 26.423C51.7529 30.317 51.7835 34.2008 51.702 38.0948C51.6918 38.5331 51.019 38.951 50.652 39.3894C50.336 38.9103 49.7754 38.4414 49.7448 37.9419C49.6327 36.0866 49.704 34.2212 49.704 32.3659C49.704 26.4434 49.6836 20.5209 49.7346 14.5983C49.7346 14.0785 50.1933 13.2018 50.5705 13.1304C51.8243 12.8858 51.7529 13.9357 51.7529 14.7512C51.7631 18.6452 51.7631 22.529 51.7631 26.423C51.7733 26.423 51.7631 26.423 51.7529 26.423Z" fill="#F3F3F4"/>
<path d="M37.9412 38.6044C40.1124 42.8042 40.0717 43.7115 38.0125 45.6789C36.7179 46.9225 35.2704 46.9123 33.8229 46.3618C32.5385 45.8827 31.2847 42.9266 31.6721 41.7645C32.6507 38.8389 33.5069 38.4006 37.9412 38.6044Z" fill="#F3F3F4"/>
</g>
<defs>
<clipPath id="clip0">
<rect width="60" height="57.1763" fill="white" transform="translate(10 11)"/>
</clipPath>
</defs>
</svg>
