<svg width="80" height="80" viewBox="0 0 80 80" fill="none" xmlns="http://www.w3.org/2000/svg">
<rect width="80" height="80" fill="#A37D52"/>
<g clip-path="url(#clip0)">
<path d="M27.103 48.9706C25.9156 53.2274 25.0062 56.5242 23.9451 60.2885C20.042 55.8674 15.9872 51.5853 12.3367 47C11.1493 45.5095 10.6693 43.3874 10.7451 41.1769C10.9346 35.7327 10.8209 30.2885 10.7325 24.8316C10.7072 23.2148 10.5304 21.56 10.1767 19.9685C9.48196 16.9116 10.922 13.1221 13.5746 11.5558C15.2799 10.5453 19.4356 10.9369 21.2167 12.4021C23.9956 14.6885 23.9072 17.9348 23.3514 20.9537C22.9346 23.2653 21.1914 24.9074 18.5262 25.0211C17.743 25.059 16.9599 25.0969 15.7472 25.16C16.2651 30.44 16.5935 35.3411 17.3388 40.1663C17.5283 41.379 18.9683 42.5158 20.042 43.4253C22.4041 45.4337 24.8925 47.2527 27.103 48.9706Z" fill="#F3F3F4"/>
<path d="M39.5453 54.6799C42.6021 55.6905 45.659 56.7389 48.7284 57.7115C55.4611 59.8715 62.219 61.981 68.939 64.1662C69.3937 64.3178 69.9748 64.9115 69.9874 65.3157C70 65.7326 69.419 66.5157 69.04 66.541C66.3242 66.7557 63.899 69.1305 60.8042 67.0462C57.8737 65.0757 54.8674 68.3473 51.8737 67.8041C49.0948 67.3115 46.5432 65.7957 43.5621 67.2484C40.2148 68.8905 37.1579 67.7284 34.4169 65.6062C32.4084 64.0526 31.5748 61.2231 32.2695 58.8862C32.8884 56.8273 35.3769 55.2484 38.1053 55.1726C38.5221 55.1599 38.939 55.1726 39.3558 55.1726C39.4316 55.0336 39.4948 54.8568 39.5453 54.6799Z" fill="#F3F3F4"/>
<path d="M42.4756 42.2126C42.4377 46.8105 39.4062 50.0315 34.9725 50.221C31.5746 50.36 27.0525 45.0421 27.2546 41.1389C27.4693 36.8694 31.0188 33.7115 35.5409 33.7621C39.7346 33.7873 42.5262 37.1979 42.4756 42.2126Z" fill="#F3F3F4"/>
</g>
<defs>
<clipPath id="clip0">
<rect width="60" height="57.0442" fill="white" transform="translate(10 11)"/>
</clipPath>
</defs>
</svg>
