<svg width="30" height="30" viewBox="0 0 30 30" fill="none" xmlns="http://www.w3.org/2000/svg">
<path fill-rule="evenodd" clip-rule="evenodd" d="M15 3C8.384 3 3 8.384 3 15C3 21.616 8.384 27 15 27C15.0423 27 15.0846 26.9998 15.1268 26.9993C14.7048 26.2422 14.6057 25.3539 14.8296 24.5352C12.0473 24.4857 9.5571 23.2437 7.83948 21.3029L9.74532 20.9149C10.1333 20.8332 10.4124 20.4657 10.3851 20.0709L10.1469 16.9195C10.1197 16.5927 9.90187 16.198 9.63642 16.0006L7.32898 14.3398C7.02269 14.1151 6.55304 14.1356 6.26716 14.3874C6.26716 14.3874 5.45718 15.0272 5.45718 15.0068C5.45718 13.312 5.90641 11.7192 6.68236 10.3375L6.77085 10.4532C6.9274 10.6506 7.17924 10.7663 7.43108 10.7663C7.56041 10.7663 7.68973 10.7391 7.81225 10.6778L10.8208 9.08508C11.0998 8.93534 11.3925 8.60182 11.4946 8.30233L12.2569 6.14464C12.2842 6.06296 12.3046 5.96767 12.3114 5.86557C13.1622 5.61373 14.0675 5.4776 15 5.4776C15.3063 5.4776 15.6126 5.49121 15.9121 5.52524C15.9529 5.64095 16.021 5.74305 16.1027 5.83154L18.0493 7.72377C18.274 7.94158 18.6687 8.12536 18.9819 8.15258L21.4867 8.39762C21.5139 8.39762 21.7385 8.39081 21.827 8.37039C22.6098 9.17357 23.2564 10.1197 23.7192 11.1611C23.6648 11.2428 23.6239 11.3313 23.5967 11.4129L23.0823 13.1518C24.5572 13.4345 25.899 14.0994 26.9999 15.0387C27 15.0258 27 15.0129 27 15C27 8.384 21.616 3 15 3ZM20.1357 13.117C20.1302 13.107 20.1245 13.0971 20.1185 13.0874L18.308 9.98355C18.1174 9.65684 17.6954 9.47306 17.3279 9.55474L13.8157 10.3307C13.4617 10.4056 13.1418 10.7391 13.0737 11.093L12.4203 14.5167C12.3522 14.8843 12.5564 15.3063 12.8968 15.4697L13.3072 15.67C14.0669 13.9873 16.1002 13.0666 17.8669 13.8257C18.5759 13.4913 19.3375 13.2497 20.1357 13.117ZM14.3997 22.907L14.8564 24.4424C14.9666 24.0818 15.1402 23.7364 15.3773 23.4237C15.0217 23.3028 14.6926 23.1273 14.3997 22.907ZM16.5102 20.6125C16.5175 20.6128 16.5248 20.6129 16.5323 20.6129L16.5102 20.6125ZM19.1586 24.4171C19.118 24.3846 19.0779 24.351 19.0383 24.3165L19.1586 24.4171ZM18.9723 24.2761C18.9736 24.2767 18.9749 24.2773 18.9762 24.2779C18.9749 24.2773 18.9736 24.2767 18.9723 24.2761M17.9065 25.6978C17.9118 25.7023 17.9172 25.7068 17.9225 25.7113C17.9172 25.7068 17.9118 25.7023 17.9065 25.6978ZM17.8208 25.6244C17.8417 25.6427 17.8627 25.6608 17.8839 25.6788L17.8208 25.6244Z" fill="white"/>
<path d="M21.4778 16C20.0141 16.0222 18.6835 16.5988 17.6855 17.5302L16.8871 16.7319C16.5544 16.3992 16 16.6431 16 17.1089V20.0806C16 20.3911 16.2218 20.6129 16.5323 20.6129H19.504C19.9698 20.6129 20.2137 20.0585 19.881 19.7258L18.9496 18.7944C19.6371 18.1512 20.5242 17.7964 21.4556 17.7964C23.496 17.7742 25.2258 19.4153 25.2036 21.5444C25.2036 23.5625 23.5625 25.2258 21.5 25.2258C20.5685 25.2258 19.7258 24.9153 19.0383 24.3165C18.9274 24.2278 18.7722 24.2278 18.6835 24.3165L17.7964 25.2036C17.6855 25.3145 17.6855 25.4919 17.7964 25.6028C18.7722 26.4677 20.0806 27 21.5 27C24.5161 27 26.9778 24.5383 27 21.5222C27 18.4839 24.5161 16 21.4778 16Z" fill="white"/>
</svg>
