<svg width="80" height="80" viewBox="0 0 80 80" fill="none" xmlns="http://www.w3.org/2000/svg">
<rect width="80" height="80" fill="#A37D52"/>
<g clip-path="url(#clip0)">
<path d="M28.0789 70C28.0789 68.4029 27.8019 67.452 28.1343 66.8242C28.8452 65.5132 29.7684 64.2946 30.7932 63.2052C32.8889 60.971 35.0861 58.8291 37.2834 56.6872C38.2989 55.6994 38.9267 54.7208 38.9729 53.1513C39.0467 50.317 39.4991 47.4827 39.9053 44.6577C40.0253 43.7991 40.3854 42.922 40.8285 42.165C42.3611 39.5154 43.8567 39.0353 46.4417 40.7248C50.0792 43.0974 53.5505 45.7286 57.1049 48.2398C59.653 50.0493 59.8561 53.1328 61.0378 55.6532C62.6627 59.1338 63.7244 62.882 65.2477 66.418C65.7093 67.4889 65.6262 68.0521 64.8876 68.7629C64.2229 69.4 63.5859 69.483 62.9304 68.8091C62.6165 68.486 62.2842 68.1444 62.0718 67.7566C60.1977 64.35 58.1481 61.0264 56.5694 57.4904C55.3231 54.6838 53.6982 52.6435 50.6978 51.7295C49.5714 51.388 48.639 50.4463 47.5219 50.0493C46.7648 49.7816 45.6662 49.5969 45.4539 51.0094C44.6507 56.3549 41.881 60.3155 37.3019 63.2236C34.2922 65.0885 31.5502 67.415 28.0789 70Z" fill="#F3F3F4"/>
<path d="M49.0998 27.7627C49.1275 27.3103 49.146 26.8487 49.1737 26.3224C50.9647 26.6825 52.8019 27.5226 54.4545 27.2456C55.904 27.0056 57.1411 25.5192 58.7475 24.3929C55.1931 21.6879 53.3466 18.4935 53.6605 14.2837C53.8083 12.2803 55.0177 10.5446 56.5964 10.1846C59.0614 9.6214 60.9263 10.3784 62.0803 12.1418C64.3145 15.5669 64.4807 19.269 63.4097 23.0081C63.0312 24.3283 63.1974 25.1869 63.659 26.3963C64.6468 29.009 65.2562 31.7694 66.1332 34.8437C61.8126 35.6285 57.8889 36.3855 53.9467 37.0133C52.5896 37.2256 51.3986 36.8656 50.1615 35.9054C48.0566 34.2621 45.5547 33.1358 43.3205 31.6309C42.1849 30.8647 41.2432 29.8307 41.871 28.1596C42.7204 25.8885 44.9915 25.1222 47.3088 26.4609C47.9458 26.8302 48.5182 27.3195 49.1183 27.7534C49.423 28.0581 49.7369 28.372 50.0415 28.6766C50.3462 28.9813 50.6601 29.2952 50.9647 29.5999C51.2694 29.9045 51.5833 30.2184 51.888 30.5231C52.9404 33.025 54.9623 33.662 57.3996 33.2096C59.246 32.8681 61.0555 32.3234 63.0127 31.8433C62.6158 29.7937 62.3203 27.7719 60.0308 26.664C59.0337 27.6149 58.0828 28.372 57.3257 29.2952C55.7932 31.1416 53.9467 31.2247 51.8787 30.5415C51.5741 30.2369 51.2602 29.923 50.9555 29.6183C50.6508 29.3137 50.3369 28.9998 50.0323 28.6951C49.7092 28.372 49.4045 28.0673 49.0998 27.7627ZM60.7139 23.6728C61.1478 22.9527 61.6002 22.3434 61.9049 21.6602C63.2436 18.6874 62.2834 15.9362 60.8524 13.3327C60.0123 11.8094 58.092 10.8493 57.1411 11.2093C56.1902 11.5694 54.6668 14.1082 54.7222 15.3361C54.7407 15.7608 54.99 16.1763 55.0823 16.6102C55.6824 19.6383 57.7873 21.4663 60.7139 23.6728Z" fill="#F3F3F4"/>
<path d="M50.9851 19.9338C50.9758 22.3619 49.3417 24.1437 47.1722 24.0791C44.9472 24.0145 43.4608 22.2696 43.5255 19.7769C43.5716 17.7735 45.2057 15.9548 47.1076 15.807C49.0648 15.6501 50.9943 17.6996 50.9851 19.9338Z" fill="#F3F3F4"/>
<path d="M15.8276 49.6523C14.9967 48.3505 14.2489 47.6027 14.0366 46.7257C13.7504 45.5809 15.2091 44.0668 16.1231 44.4269C17.1201 44.8146 18.0434 45.6086 17.7018 46.7995C17.4525 47.6581 16.6955 48.3782 15.8276 49.6523Z" fill="#F3F3F4"/>
</g>
<defs>
<clipPath id="clip0">
<rect width="52.1249" height="60" fill="white" transform="translate(14 10)"/>
</clipPath>
</defs>
</svg>
