<svg width="25" height="22" viewBox="0 0 25 22" fill="none" xmlns="http://www.w3.org/2000/svg">
<path fill-rule="evenodd" clip-rule="evenodd" d="M12.35 12.01C10.91 12.01 9.59 11.5 8.56 10.65C7.21 9.55 6.35 7.88 6.35 6C6.35 2.69 9.04 0 12.35 0C15.66 0 18.35 2.69 18.35 6C18.35 7.88 17.49 9.55 16.14 10.65C15.11 11.5 13.79 12.01 12.35 12.01ZM12.35 14.01C14.63 14.01 16.69 13.04 18.15 11.5C21.68 13.37 24.2 16.88 24.7 21.01H0C0.5 16.88 3.02 13.37 6.55 11.5C8.01 13.04 10.07 14.01 12.35 14.01Z" fill="#909099"/>
</svg>
