<svg width="20" height="21" viewBox="0 0 20 21" fill="none" xmlns="http://www.w3.org/2000/svg">
<path d="M8.0836 10.0498C8.0836 9.76546 7.84299 9.52484 7.55862 9.52484C7.25238 9.52484 7.03364 9.76546 7.03364 10.0498C7.03364 10.3561 7.25238 10.5748 7.55862 10.5748C7.84299 10.5748 8.0836 10.3561 8.0836 10.0498ZM13.5959 8.97799C13.4646 8.89049 13.3115 8.86862 13.1803 8.95612L12.5897 9.3061C12.5241 9.32798 12.4366 9.32798 12.3928 9.28423L11.846 8.84674C11.7803 8.803 11.7585 8.7155 11.7803 8.64988L11.9991 8.01553C12.0428 7.86241 11.9991 7.70929 11.8897 7.62179L10.0085 6.22185C8.63045 5.34688 6.9024 5.28126 5.48058 6.02498C5.19621 5.69687 4.82435 5.5 4.40874 5.5C3.62127 5.5 3.0088 6.13435 3.0088 6.89995C3.0088 7.33743 3.18379 7.73116 3.5119 7.97178C2.61506 9.69984 2.89943 11.8435 4.34312 13.2653C6.28992 15.234 9.83353 15.059 11.4741 12.5653L14.7552 14.4465C14.9083 14.534 15.1052 14.5121 15.2146 14.359L16.9208 12.0841C17.052 11.931 17.0083 11.7123 16.877 11.6029L13.5959 8.97799ZM4.8681 6.39684C4.47437 6.6812 4.21188 6.92182 3.88376 7.38118C3.77439 7.24993 3.70877 7.09681 3.70877 6.89995C3.70877 6.52808 4.01501 6.19997 4.40874 6.19997C4.58374 6.19997 4.73686 6.2656 4.8681 6.39684ZM9.13356 10.0498C9.13356 10.9248 8.41171 11.6248 7.55862 11.6248C6.68366 11.6248 5.98368 10.9248 5.98368 10.0498C5.98368 9.19673 6.68366 8.47488 7.55862 8.47488C8.41171 8.47488 9.13356 9.19673 9.13356 10.0498Z" fill="#464655"/>
</svg>
