<svg width="12" height="12" viewBox="0 0 12 12" fill="none" xmlns="http://www.w3.org/2000/svg">
<path d="M11.25 1.42857C11.25 0.765625 10.7098 0.25 10.0714 0.25L1.42857 0.25C0.765624 0.25 0.249999 0.765625 0.249999 1.42857L0.249999 10.0714C0.249999 10.7098 0.765624 11.25 1.42857 11.25L10.0714 11.25C10.7098 11.25 11.25 10.7098 11.25 10.0714L11.25 1.42857ZM6.14286 8.32812C5.92187 8.57366 5.55357 8.57366 5.33259 8.32812L1.9933 5.01339C1.77232 4.79241 1.77232 4.39955 1.9933 4.17857L2.41071 3.76116C2.6317 3.54018 3.02455 3.54018 3.24553 3.76116L5.75 6.26563L8.22991 3.76116C8.45089 3.54018 8.84375 3.54018 9.06473 3.76116L9.48214 4.17857C9.70312 4.39955 9.70312 4.79241 9.48214 5.01339L6.14286 8.32812Z" fill="#FFFFFF"/>
</svg>
