<svg width="80" height="80" viewBox="0 0 80 80" fill="none" xmlns="http://www.w3.org/2000/svg">
<rect width="80" height="80" fill="#A37D52"/>
<g clip-path="url(#clip0)">
<path d="M32.5339 50.233C34.4893 51.6382 36.2669 52.6879 36.7494 55.1343C35.9961 54.5333 35.2681 53.9153 34.4893 53.3482C33.7105 52.781 32.8894 52.2731 32.1021 51.7313C31.3064 51.1896 30.4515 50.724 29.7489 50.0807C28.4368 48.8786 27.2009 47.7359 25.4486 49.3696C25.364 49.4458 25.1778 49.4204 25.0423 49.4204C22.9684 49.4796 20.9368 48.9633 18.9391 48.7686C17.0768 48.5908 14.969 49.6913 12.8696 49.4119C11.092 49.1834 10.2963 48.0406 10 45.2133C14.1733 45.2133 18.3296 45.2133 23.1716 45.2133C18.9221 42.005 15.2906 39.2793 11.7184 36.579C12.7257 34.031 15.443 35.6817 16.7635 34.1834C20.7675 33.777 24.2974 31.8386 28.0643 30.6789C28.7077 30.4757 29.3087 30.0524 29.9605 29.9678C31.7043 29.7477 32.6693 30.5688 32.7709 32.2195C32.8809 33.9548 32.1614 34.8352 30.4853 35.0383C25.4402 35.6732 20.395 36.3166 14.9351 37.0022C17.8979 39.2708 20.6321 41.3702 23.7302 43.7488C24.2297 41.8781 24.6021 40.2274 25.127 38.6275C25.8042 36.5705 26.5745 36.2319 28.5299 37.1377C31.1456 38.3566 33.7274 39.6518 36.3008 40.9469C37.8922 41.7511 38.8996 42.987 38.8488 45.0186C41.5745 45.0186 44.1902 45.0186 47.2714 45.0186C44.004 41.7003 40.1016 39.711 36.6648 36.5197C37.5367 35.9526 38.2054 35.233 39.0096 35.0299C44.1648 33.7432 49.2184 32.1602 54.145 30.154C55.4233 29.6377 56.5406 29.9085 56.9639 31.0344C57.3025 31.9401 57.0401 33.1422 56.8115 34.1495C56.7269 34.5135 55.9735 34.9029 55.4825 34.9791C52.8922 35.3431 50.2765 35.5547 47.6862 35.9102C45.2568 36.2404 42.8442 36.689 39.89 37.1715C42.8781 39.474 45.5192 41.5056 48.3888 43.7234C48.8629 42.0304 49.3115 40.6252 49.6501 39.1947C50.2511 36.6552 51.4024 35.9864 53.8149 37.1123C55.7788 38.0265 57.6411 39.1608 59.5457 40.202C59.9097 40.4052 60.206 40.7861 60.5784 40.8707C62.8047 41.3871 63.6174 42.9108 63.3465 45.1794C64.7771 45.1794 65.886 45.1794 67.0034 45.1794C67.9515 45.1794 68.908 45.1794 69.9915 45.1794C68.2562 49.3103 66.4701 50.2246 62.3476 49.4119C59.4865 48.8448 59.4865 48.8448 57.1501 49.8944C58.8685 51.2742 60.4769 52.5694 62.3646 54.0846C61.645 54.4317 61.645 55.7945 60.316 54.584C58.6738 53.0942 56.9639 51.6467 55.1185 50.4193C53.6541 49.4458 52.1558 47.8798 50.0818 49.4119C49.8025 49.6151 49.2523 49.4881 48.8375 49.4627C47.1953 49.3781 45.4515 49.8775 44.0209 48.6077C42.548 49.6236 40.8634 49.4712 39.2043 49.4627C38.6456 49.4543 37.8837 49.6405 37.5536 49.3527C35.649 47.702 34.2861 49.0225 32.5339 50.233ZM26.0412 45.0017C28.2421 45.0017 30.0198 45.0017 32.5 45.0017C30.6546 43.6811 29.3595 42.7584 27.9204 41.7342C27.2517 42.8854 26.7099 43.8335 26.0412 45.0017ZM56.6591 44.9847C55.237 43.6896 54.399 42.2336 52.6213 41.7088C52.1558 42.7923 51.741 43.7404 51.1992 44.9847C53.1123 44.9847 54.7037 44.9847 56.6591 44.9847Z" fill="#F3F3F4"/>
<path d="M27.7254 26.8527C27.7846 29.0028 27.1074 29.8663 25.3044 29.9594C23.4759 30.0525 22.6379 29.206 22.5617 27.1744C22.4855 25.219 23.4759 24.1439 25.4652 24.0085C26.8196 23.9154 27.683 24.9989 27.7254 26.8527Z" fill="#F3F3F4"/>
<path d="M53.1885 27.6061C52.0288 28.6558 51.3177 30.662 49.303 29.7478C48.3549 29.3161 47.6016 28.0209 47.1952 26.9459C46.8482 26.0401 48.5073 24.1947 49.667 24.0424C52.1896 23.7207 52.1896 26.0232 53.1885 27.6061Z" fill="#F3F3F4"/>
</g>
<defs>
<clipPath id="clip0">
<rect width="60" height="31.1428" fill="white" transform="translate(10 24)"/>
</clipPath>
</defs>
</svg>
