<svg width="27" height="20" viewBox="0 0 27 20" fill="none" xmlns="http://www.w3.org/2000/svg">
<path d="M13.6294 7.012L10.1374 10.11L10.125 10C10.125 8.346 11.6392 7 13.5 7L13.6294 7.012ZM4.57537 15.044L8.25862 11.776C8.02012 11.222 7.875 10.627 7.875 10C7.875 7.243 10.3984 5 13.5 5C14.2099 5 14.8826 5.13 15.5081 5.344L18.1823 2.972C16.7468 2.384 15.1774 2 13.4831 2C4.7835 2 -2.02605e-06 10.449 -2.02605e-06 10.449C-2.02605e-06 10.449 1.59187 12.927 4.57537 15.044V15.044ZM2.9655 18.58L23.9119 2.11421e-06L25.4666 1.422L21.5798 4.869C24.9795 7.319 27 10.449 27 10.449C27 10.449 21.9982 18 13.4831 18C11.43 18 9.59512 17.574 7.98637 16.925L4.52025 20L2.9655 18.58V18.58ZM18.4354 7.658L16.7265 9.173C16.8131 9.437 16.875 9.711 16.875 10C16.875 11.654 15.3607 13 13.5 13C13.1726 13 12.8621 12.945 12.5629 12.866L10.8551 14.381C11.6471 14.763 12.5381 15 13.5 15C16.6016 15 19.125 12.757 19.125 10C19.125 9.148 18.8606 8.359 18.4354 7.658V7.658Z" fill="white"/>
</svg>
