<svg viewBox="0 0 75 75" fill="none" xmlns="http://www.w3.org/2000/svg">
<path class="pause-bg-color" d="M37.5 0C30.0832 0 22.8328 2.1994 16.6659 6.31996C10.4991 10.4405 5.69297 16.2971 2.85468 23.1493C0.0163956 30.0015 -0.726429 37.5416 0.720518 44.8159C2.16747 52.0902 5.73897 58.772 10.9834 64.0165C16.2279 69.261 22.9099 72.8325 30.1842 74.2794C37.4585 75.7264 44.9981 74.9838 51.8504 72.1455C58.7026 69.3072 64.5598 64.5007 68.6803 58.3339C72.8009 52.167 75 44.9168 75 37.5C75 27.5544 71.0491 18.0161 64.0165 10.9835C56.9839 3.9509 47.4456 0 37.5 0Z" fill="#FC4842"/>
<path d="M34.6154 17.3077H23.077V57.6923H34.6154V17.3077Z" fill="white"/>
<path d="M51.9231 17.3077H40.3846V57.6923H51.9231V17.3077Z" fill="white"/>
</svg>
