<svg width="80" height="80" viewBox="0 0 80 80" fill="none" xmlns="http://www.w3.org/2000/svg">
<rect width="80" height="80" fill="#A37D52"/>
<g clip-path="url(#clip0)">
<path d="M60.6625 38.5991C59.2372 39.5948 58.1891 40.4856 56.9944 41.0725C56.5856 41.2716 55.8101 40.7162 55.2022 40.4961C55.5271 39.993 55.8206 39.469 56.1874 39.0079C56.5437 38.5572 56.9839 38.1695 57.8747 37.2472C55.9883 37.1109 54.8145 37.0166 53.2948 36.9118C53.2005 38.1799 52.9385 39.3432 53.0852 40.4646C53.2843 41.9633 53.3053 42.917 55.8834 42.4035C62.1402 41.1459 69.7909 46.4384 69.99 54.3511C70.1367 60.262 67.611 64.276 63.0206 67.0323C58.0319 70.0297 50.9682 67.2839 47.6773 61.9808C44.0092 56.0699 45.5289 50.5572 49.6372 46.0716C51.031 44.552 53.0223 43.3153 50.9158 40.9572C50.7376 40.7581 50.811 40.2655 50.8738 39.9301C51.5236 36.3773 49.7315 34.2708 46.6083 33.2856C44.5123 32.6253 43.611 31.1057 42.9088 29.3555C42.0389 27.1651 41.211 24.9537 40.5926 22.6795C40.2782 21.5371 40.1315 20.1118 40.5612 19.0952C40.949 18.1939 42.1437 17.366 43.1498 17.0725C44.2188 16.7581 45.6127 16.7371 45.8642 18.5607C46.0214 19.7136 46.6607 20.814 46.7236 21.9563C46.9018 25.0271 47.1324 28.1293 49.2704 30.5083C51.335 32.793 53.6826 34.6061 57.0573 35.0463C58.3149 35.1721 59.3105 37.1843 60.6625 38.5991ZM52.7813 45.8411C51.5655 47.193 50.9577 47.8114 50.4022 48.4926C45.9062 54.0472 47.9603 60.545 51.8485 63.469C53.7245 64.8839 55.9359 65.7957 58.273 65.6804C61.0293 65.5441 63.6389 64.4542 65.4415 62.3686C68.7219 58.5642 68.638 51.3747 65.0118 47.6542C63.4607 46.0612 60.9559 45.2122 58.7341 44.5729C57.728 44.2795 56.3446 45.317 55.1393 45.7467C56.376 48.8489 57.3297 51.7625 58.6922 54.4559C59.5096 56.0699 58.252 56.0699 57.5289 56.7197C56.0407 53.2716 54.5524 49.8865 52.7813 45.8411Z" fill="#F3F3F4"/>
<path d="M38.528 47.2768C40.0371 52.1817 41.0328 56.9921 41.5568 61.8655C41.19 62.0122 40.8127 62.1589 40.4459 62.3161C39.7542 61.4987 38.7376 60.7965 38.4022 59.8533C35.0275 50.1799 31.8415 40.4332 28.383 30.7913C27.7332 28.9886 28.0267 27.972 29.1166 26.6515C30.3219 25.1947 31.8415 25.069 33.3507 25.4463C34.4616 25.7188 35.5306 26.4524 36.4319 27.207C39.0834 29.3869 41.6721 31.6506 44.2502 33.9354C46.0738 35.5598 46.2834 36.1572 44.9 38.3371C42.9716 41.345 40.7498 44.1747 38.528 47.2768ZM37.5743 41.2506C40.121 37.8969 40.121 37.8969 36.4424 35.7275C36.8092 36.7546 37.1341 37.4148 37.2703 38.1065C37.438 39.0393 37.459 39.993 37.5743 41.2506Z" fill="#F3F3F4"/>
<path d="M34.2198 55.6193C34.1883 62.2429 28.2564 68.5939 22.0311 68.3215C15.9525 68.0595 9.88438 61.918 9.99966 55.242C10.1149 48.6708 15.8687 42.2254 21.9787 42.1835C28.3403 42.152 35.3411 48.6079 34.2198 55.6193ZM32.0608 55.0743C32.4905 52.1503 30.5726 50.0437 28.8014 47.6123C26.9569 45.0865 24.2215 44.9398 21.9892 44.6987C17.273 44.1957 12.2425 49.7293 12.211 54.6236C12.2005 57.4219 13.1438 59.8114 14.7577 62.18C16.6547 64.9677 19.6206 65.5127 22.2931 66.0263C26.5691 66.8542 32.0294 60.566 32.0608 55.0743Z" fill="#F3F3F4"/>
<path d="M52.7707 20.2166C50.3392 20.2795 48.0021 18.4978 47.9602 16.5485C47.9288 15.1441 50.9366 12.0629 52.3934 12C53.8292 11.9476 56.072 14.0437 56.1873 15.5528C56.3864 18.2987 55.024 20.1642 52.7707 20.2166Z" fill="#F3F3F4"/>
</g>
<defs>
<clipPath id="clip0">
<rect width="60" height="56.3319" fill="white" transform="translate(10 12)"/>
</clipPath>
</defs>
</svg>
