<svg width="30" height="23" viewBox="0 0 30 23" fill="none" xmlns="http://www.w3.org/2000/svg">
<path d="M27.6443 5.78906L19.7289 2C18.9171 3.09375 17.0905 3.875 15.0203 3.875C12.9095 3.875 11.0829 3.09375 10.2711 2L2.35575 5.78906C2.03101 5.94531 1.90924 6.33594 2.07161 6.60937L4.38532 11.1016C4.54769 11.4141 4.9536 11.5312 5.27833 11.375L7.55146 10.2812C7.99797 10.0859 8.48506 10.3984 8.48506 10.8672V20.75C8.48506 21.4531 9.09394 22 9.78399 22H20.1754C20.9061 22 21.4743 21.4531 21.4743 20.75V10.8672C21.4743 10.3984 22.002 10.0859 22.408 10.2812L24.7217 11.375C25.0464 11.5312 25.4523 11.4141 25.6147 11.1016L27.9284 6.60937C28.0908 6.33594 27.969 5.94531 27.6443 5.78906Z" stroke="#E1E1E4" stroke-width="2"/>
</svg>
