<svg width="85" height="85" viewBox="0 0 85 85" fill="none" xmlns="http://www.w3.org/2000/svg">
<path d="M85 0H0V85H85V0Z" fill="white"/>
<path d="M80.1164 0H0V85H85V0H80.1164ZM41.8996 62.8037C38.0003 62.8032 34.1884 61.6461 30.9467 59.4792C27.7049 57.3124 25.1792 54.233 23.6877 50.6303C22.1961 47.0276 21.807 43.0637 22.5684 39.2395C23.3299 35.4153 25.2076 31.9027 27.9653 29.1461C30.7231 26.3895 34.236 24.5125 38.0605 23.7527C41.885 22.9929 45.8498 23.3844 49.4519 24.8774C53.054 26.3705 56.1323 28.8983 58.2978 32.141C60.4632 35.3837 61.6178 39.1956 61.6167 43.0949C61.6152 48.3225 59.5377 53.3356 55.8407 57.0316C52.1437 60.7275 47.1299 62.8037 41.9023 62.8037H41.8996ZM69.0542 23.375C67.5832 23.375 66.1449 22.9388 64.9218 22.1216C63.6987 21.3043 62.7455 20.1427 62.1825 18.7836C61.6196 17.4246 61.4736 15.9293 61.7606 14.4866C62.0476 13.0439 62.7555 11.7184 63.7957 10.6783C64.8358 9.63811 66.1602 8.92982 67.6029 8.64284C69.0457 8.35586 70.5423 8.50326 71.9014 9.06618C73.2604 9.62911 74.421 10.5823 75.2383 11.8054C76.0555 13.0285 76.4917 14.4665 76.4917 15.9375C76.491 17.9076 75.7092 19.797 74.3169 21.1909C72.9246 22.5847 71.0354 23.3692 69.0653 23.3722L69.0542 23.375Z" fill="#FF8580"/>
</svg>
