<svg width="80" height="80" viewBox="0 0 80 80" fill="none" xmlns="http://www.w3.org/2000/svg">
<rect width="80" height="80" fill="#A37D52"/>
<g clip-path="url(#clip0)">
<path d="M30.1586 54.0992C30.4632 52.1932 30.8026 50.2698 31.0724 48.329C31.6294 44.3255 30.8984 40.731 27.9915 37.6588C26.9558 36.5622 26.4075 35.0043 25.6155 33.6727C24.5711 31.8973 24.78 30.5048 26.3031 29.1209C27.4693 28.0592 29.9062 27.7458 31.0637 28.7467C34.3187 31.5666 37.5215 34.456 40.646 37.4238C41.1856 37.9373 41.4989 38.9208 41.5076 39.6954C41.5772 44.4038 42.491 49.0078 42.9088 53.6727C42.9523 54.1601 42.2648 54.7258 41.9079 55.248C41.4989 54.9695 40.9854 54.7606 40.6808 54.3864C39.6016 53.0548 40.0715 51.349 39.6712 49.8781C39.0011 47.4412 38.122 45.0826 37.9915 42.5065C37.8957 40.6179 36.5554 39.6083 34.5972 38.7902C34.7539 39.7389 34.9279 40.5135 35.0063 41.2968C35.1107 42.3847 35.3631 43.5161 35.1629 44.5605C34.5015 47.9895 33.5267 51.3751 32.9523 54.8129C32.7347 56.1357 33.1438 57.624 33.4919 58.973C34.8235 64.1253 31.9253 69.0948 26.8252 69.9652C25.8157 70.1392 24.5972 69.6518 23.6051 69.1906C18.4963 66.8494 15.7896 60.7833 20.2717 55.9182C23.2221 52.7241 26.451 53.1592 30.1586 54.0992ZM31.9514 61.4795C32.0037 57.8503 29.5668 55.3002 26.0071 55.2567C23.0045 55.2219 19.9932 58.0853 19.8366 61.1488C19.6625 64.4125 22.491 67.4064 25.7809 67.4499C29.7495 67.5021 31.8992 65.4308 31.9514 61.4795Z" fill="#F3F3F4"/>
<path d="M50.7155 43.0199C51.6729 43.0199 52.6912 43.1243 53.6659 43.0025C55.8766 42.7153 57.5128 43.4986 58.9923 45.1522C60.585 46.9364 61.7164 48.7292 61.5946 51.2444C61.3944 55.2479 57.887 58.7205 53.8748 58.8162C50.9853 58.8859 48.5397 58.3811 47.1994 55.3611C45.8069 52.254 44.6755 49.2688 47.3561 46.2401C48.0872 45.4133 48.5572 44.3689 49.1055 43.4812C47.7303 40.6874 46.3726 37.8937 44.9714 35.1174C44.545 34.2732 44.2055 33.1592 42.8043 34.2035C42.5432 34.4037 41.5337 33.8554 41.0289 33.4551C38.5833 31.4707 36.1899 29.4168 34.1533 27.7022C34.3274 25.6744 34.397 24.1513 34.5972 22.6457C34.8235 20.9747 35.0323 19.2775 35.5023 17.6674C35.9114 16.2575 37.8 15.5787 39.0967 16.1357C39.7843 16.4316 40.6807 18.5029 40.3935 19.3646C39.7756 21.227 39.1664 23.0895 38.4092 24.8911C37.974 25.9442 37.9392 26.7536 38.7312 27.6413C39.7669 28.8075 40.6807 30.0956 41.7077 31.2706C41.9514 31.5491 42.4823 31.784 42.8217 31.7231C44.8496 31.375 45.5458 32.6283 46.2682 34.1861C47.6346 37.1191 49.1751 39.9825 50.7155 43.0199ZM49.7843 46.1183C47.4954 48.1461 47.417 50.1652 47.739 52.1148C47.9305 53.2984 48.5397 54.5604 49.3317 55.4742C50.8026 57.1626 54.8583 57.563 56.4597 56.4229C59.1838 54.482 60.35 51.5142 59.3317 49.0947C57.8348 45.5351 55.9897 44.5691 51.8644 45.3263C52.2125 45.9877 52.5345 46.5969 52.8391 47.2062C53.4135 48.3376 54.0315 49.4516 54.5102 50.6178C54.6146 50.8789 54.2926 51.3837 54.0489 51.6709C53.9357 51.8015 53.4048 51.7753 53.2656 51.6274C52.7869 51.1226 52.3431 50.5656 51.9775 49.9738C51.2726 48.8162 50.6285 47.6065 49.7843 46.1183Z" fill="#F3F3F4"/>
<path d="M50.3585 15.9444C49.5317 15.9966 49.2358 16.0836 48.9747 16.0227C48.3481 15.8748 47.3646 15.3352 47.1731 15.544C46.677 16.0924 46.4333 16.9279 46.268 17.6937C46.1374 18.2856 46.503 19.0514 46.2593 19.5388C45.8589 20.3308 45.0147 20.9836 44.214 20.0436C42.9346 18.538 41.8729 16.8582 40.637 15.3091C39.7754 14.2299 40.1844 13.1942 40.7153 12.2803C42.2732 9.63456 44.2923 9.24292 46.7031 11.3491C48.0783 12.5501 49.0182 14.2212 50.3585 15.9444Z" fill="#F3F3F4"/>
</g>
<defs>
<clipPath id="clip0">
<rect width="43.6031" height="60" fill="white" transform="translate(18 10)"/>
</clipPath>
</defs>
</svg>
