<svg width="14" height="14" viewBox="0 0 14 14" fill="none" xmlns="http://www.w3.org/2000/svg">
<path d="M14 7C14 3.16129 10.8387 0 7 0C3.13306 0 0 3.16129 0 7C0 10.8669 3.13306 14 7 14C10.8387 14 14 10.8669 14 7ZM12.6452 7C12.6452 8.24194 12.25 9.37097 11.5444 10.3306L11.3185 9.39919L8.91936 9.68145L7.90323 11.8831L8.75 12.3911C7.62097 12.7581 6.35081 12.7581 5.22177 12.3911L6.06855 11.8831L5.05242 9.68145L2.65323 9.39919L2.42742 10.3306C1.72177 9.37097 1.35484 8.24194 1.35484 7L2.08871 7.64919L3.83871 5.98387L3.3871 3.6129L2.39919 3.69758C3.10484 2.7379 4.12097 2.00403 5.25 1.6371L4.88306 2.54032L7 3.69758L9.08871 2.54032L8.72178 1.6371C9.87903 2.00403 10.8669 2.7379 11.5726 3.69758L10.5847 3.6129L10.1331 5.98387L11.8831 7.64919L12.6169 7H12.6452ZM5.61694 8.97581H8.35484L9.17339 6.40726L7 4.79839L4.79839 6.40726L5.61694 8.97581Z" fill="white"/>
</svg>
