<svg width="30" height="30" viewBox="0 0 30 30" fill="none" xmlns="http://www.w3.org/2000/svg">
<path d="M15.4192 12.8054C14.4598 12.0513 13.4247 12.4822 12.9577 13.4961C12.4843 14.51 11.7459 18.7176 10.2185 18.3754C9.09512 18.1283 9.18348 16.7659 9.3602 15.7647V9.30117C8.85528 9.61801 8.18627 10.2517 7.83914 10.6129C6.79145 11.6838 4.99269 13.6545 4.51934 15.5936C4.0586 17.4883 4.63925 19.3513 4.77179 21.2523C4.82229 21.962 4.83491 22.2979 4.8286 23.4068C4.81597 24.5284 4.0018 27.3673 4.0018 27.3673C3.93869 27.6778 5.54179 28.2544 7.54882 28.6537C9.54954 29.0465 11.2284 29.1162 11.2852 28.8057C11.2852 28.7994 11.6449 27.9566 11.8153 27.5511C12.2193 26.5815 13.1344 25.2381 13.6709 23.9771C14.1253 22.9062 14.3147 22.507 14.5545 20.7961C14.6302 20.2574 14.706 19.3703 14.7943 18.8253C14.9584 17.7608 15.2235 16.7405 15.4507 15.6886C15.6527 14.7318 16.0755 13.325 15.4192 12.8054ZM22.57 1H14.037C12.6926 1 11.6007 2.09626 11.6007 3.44599V13.0272C11.6197 12.9765 11.6386 12.9258 11.6576 12.8878C12.2003 11.7155 13.2543 10.9931 14.4093 10.9931C15.072 10.9931 15.7221 11.2275 16.2901 11.6775C17.584 12.6913 17.18 14.4656 16.915 15.6379C16.8897 15.7583 16.8645 15.8724 16.8392 15.9801C16.7698 16.316 16.6941 16.6518 16.6183 16.9877C16.4669 17.653 16.328 18.2804 16.2207 18.9267H22.5637C23.908 18.9267 24.9999 17.8305 24.9999 16.4807V3.44599C25.0125 2.09626 23.9143 1 22.57 1Z" fill="white"/>
</svg>
