<svg width="80" height="80" viewBox="0 0 80 80" fill="none" xmlns="http://www.w3.org/2000/svg">
<rect width="80" height="80" fill="#A37D52"/>
<g clip-path="url(#clip0)">
<path d="M57.2464 56.2463C56.3678 56.6811 55.6341 57.3514 54.8732 57.3695C51.404 57.4691 47.9348 57.4238 44.4747 57.3604C42.7808 57.3242 41.3044 56.8079 40.6522 54.9963C40.462 54.4709 40.1631 53.9818 39.529 52.6865C38.8315 56.0833 39.0761 57.5325 41.4493 58.5561C44.5381 59.8967 47.3641 61.817 50.308 63.4836C50.5616 63.6286 51.0326 63.6014 51.1141 63.7916C51.3949 64.4166 51.875 65.2409 51.6576 65.7028C51.4584 66.1376 50.3352 66.5543 49.846 66.3731C45.3442 64.6702 40.8786 62.8767 36.4402 61.0017C35.6975 60.6847 34.7555 59.9601 34.6105 59.2807C33.5417 54.2989 33.3968 49.2264 33.6776 44.1539C33.7953 42.0706 36.3678 41.1195 38.125 42.4601C38.9131 43.067 39.529 43.9909 40.0181 44.8786C41.087 46.8079 42.0652 48.7916 42.9982 50.7934C43.8949 52.7046 45.2899 53.7282 47.4276 53.7373C50.5526 53.7463 53.5145 54.5615 56.4312 55.5851C56.6395 55.6575 56.8116 55.8931 57.2464 56.2463Z" fill="#F3F3F4"/>
<path d="M53.5692 41.0561C53.4333 39.3622 52.5547 38.067 51.5493 36.7445C50.1 34.8423 50.6163 33.9184 53.0257 33.7735C53.6235 33.7372 54.2304 33.7644 54.6652 33.7644C55.879 35.3767 57.0021 36.8622 58.1163 38.3478C58.4242 38.6557 58.7232 38.9546 59.0311 39.2626L59.013 39.2445C59.5203 40.4311 59.946 41.663 60.58 42.7771C60.9605 43.4474 61.667 43.9456 62.2286 44.5162C62.9079 43.8278 63.6507 43.1757 64.2395 42.4148C64.3935 42.2064 64.1851 41.355 63.9949 41.3007C62.0474 40.7481 62.3192 39.4257 63.5692 38.8641C65.5257 37.9945 65.4079 37.0887 64.475 35.6122C64.2848 35.3133 64.4931 34.7427 64.5384 34.0271C65.2268 33.9365 65.9333 33.7644 66.6308 33.7825C70.0184 33.8822 70.9605 35.7934 69.013 38.7554C68.5148 39.5072 67.7087 40.0144 68.5239 41.047C69.4478 42.2064 69.1127 43.3025 68.1344 44.2354C66.975 45.3405 66.042 46.9528 64.0402 46.4909C63.2069 46.3007 62.129 45.4401 61.6489 45.7209C57.6181 48.0851 56.5945 44.9872 55.2177 42.4057C55.109 42.1974 54.7467 42.1159 54.5022 41.98C54.2032 41.6811 53.9134 41.3822 53.6145 41.0923L53.5692 41.0561Z" fill="#F3F3F4"/>
<path d="M46.3588 23.4113C44.2755 22.5327 42.0653 21.6632 41.8661 19.145C41.6577 16.482 44.2755 16.1197 45.8697 14.9421C50.0726 17.3244 50.136 18.4204 49.203 23.04C48.0527 28.7827 44.7646 32.0255 39.2393 33.4929C39.2393 32.0526 39.2393 30.4494 39.2393 28.5834C42.3371 28.0671 45.2719 27.0708 46.3588 23.4113Z" fill="#F3F3F4"/>
<path d="M20.1083 47.442C19.8909 47.2789 19.3746 47.0797 19.293 46.7626C19.2025 46.4275 19.3836 45.8115 19.6644 45.6032C21.8836 43.9094 24.0485 42.1068 26.4398 40.7119C28.0068 39.7971 28.6318 38.5742 29.1119 37.0163C29.6644 35.2137 30.2532 33.4112 30.9959 31.6811C31.5122 30.4855 32.5992 30.1594 33.9398 30.105C35.5068 30.0416 35.4343 31.3369 35.9416 32.1068C36.1952 32.4873 36.2224 33.2481 36.005 33.6558C34.5738 36.3731 33.0612 39.0452 31.5575 41.7173C31.4126 41.971 31.1952 42.2427 30.9507 42.3695C27.5539 44.0724 24.1391 45.7572 20.7333 47.4329C20.6064 47.4963 20.4343 47.442 20.1083 47.442Z" fill="#F3F3F4"/>
<path d="M42.654 43.1576C42.6721 42.8315 42.4819 41.9257 42.7898 41.6992C44.4021 40.5217 43.8496 39.1449 43.6866 37.5507C43.4058 34.8695 46.6666 32.8858 49.3931 33.8278C50.3079 34.1449 50.2174 35.4673 48.9221 36.5452C48.1521 37.1884 47.8985 37.8949 48.7047 38.1757C50.7971 38.9184 49.8732 39.788 49.0217 40.721C48.1974 41.6177 47.0924 42.0797 48.0163 43.8913C48.759 45.3496 47.355 46.4909 45.4619 46.509C43.4601 46.5181 42.6811 45.6666 42.654 43.1576Z" fill="#F3F3F4"/>
<path d="M23.4506 17.968C22.0466 20.4046 22.2278 23.9734 19.9271 26.5096C19.8908 26.5549 19.6735 26.4281 19.5376 26.3919C20.0811 24.218 20.6245 22.0441 21.2495 19.5622C18.0249 19.5622 15.226 19.5622 12.3093 19.5622C12.4724 20.2506 12.6082 21.0386 12.8528 21.7904C13.0792 22.4788 13.5412 23.1129 13.668 23.8194C13.8129 24.6528 13.7042 25.5223 13.034 26.5006C12.0557 23.6836 11.0231 20.8756 10.1263 18.0314C9.70968 16.718 10.2803 15.7397 11.7024 15.3865C13.668 14.9064 15.9416 13.5749 17.5267 14.1455C19.5557 14.8792 22.8347 13.7651 23.4506 17.968ZM21.7206 17.1346C19.9814 15.785 19.9542 15.5948 18.3057 15.785C16.2042 16.0205 13.7405 14.6528 12.0557 16.9897C12.7532 18.5749 14.1571 18.5839 15.4706 18.3665C17.5629 18.0223 20.0358 19.5078 21.7206 17.1346Z" fill="#F3F3F4"/>
<path d="M39.0765 24.5615C38.9406 26.038 36.7305 28.3478 35.4533 28.3387C34.1489 28.3297 31.7486 25.7662 31.8844 24.5344C32.1018 22.605 33.9497 20.9655 35.7431 21.1014C37.4279 21.2373 39.2123 23.0851 39.0765 24.5615Z" fill="#F3F3F4"/>
<path d="M54.4837 41.9801C54.3569 42.8224 54.52 44.009 54.0308 44.4257C52.9801 45.3315 51.6123 45.884 50.3261 46.4637C50.0634 46.5815 49.2392 46.2101 49.2392 46.038C49.212 45.0688 49.1305 43.3297 49.4565 43.2391C51.0236 42.8043 51.6486 40.6485 53.5689 41.0561L53.596 41.0833C53.895 41.3822 54.1939 41.6811 54.4837 41.9801Z" fill="#F3F3F4"/>
<path d="M58.1064 38.3569C58.1517 34.6612 59.0304 33.6558 62.1916 33.8188C62.6626 33.846 63.351 34.2264 63.4959 34.6069C63.668 35.0688 63.5593 35.9475 63.2242 36.2192C61.8927 37.3243 60.4343 38.2572 59.0213 39.2627L59.0394 39.2808C58.7224 38.9638 58.4144 38.6648 58.1064 38.3569Z" fill="#F3F3F4"/>
</g>
<defs>
<clipPath id="clip0">
<rect width="60" height="52.4094" fill="white" transform="translate(10 14)"/>
</clipPath>
</defs>
</svg>
