<svg width="80" height="80" viewBox="0 0 80 80" fill="none" xmlns="http://www.w3.org/2000/svg">
<rect width="80" height="80" fill="#A37D52"/>
<g clip-path="url(#clip0)">
<path d="M66.2208 35.6714C63.8513 33.0823 61.6667 30.6897 59.5169 28.3317C54.3965 32.5968 53.7492 33.9492 53.8994 39.8902C56.9971 39.451 60.0832 39.0002 63.3774 38.5263C64.198 40.838 64.4408 42.7336 63.3774 44.7563C62.8688 45.7272 62.7301 46.8831 62.3718 47.9349C60.1873 54.2574 60.1872 54.2574 52.2235 55.9912C53.2059 54.0147 52.8592 51.8301 55.5176 51.1713C57.8987 50.5818 58.7424 48.8827 57.9565 45.9931C54.1537 47.6806 50.247 49.1254 46.6176 51.0904C41.2545 53.9915 35.325 55.8871 29.5689 55.7831C23.4544 55.7138 16.7159 54.9971 12 49.1139C12.786 46.2243 16.2766 46.3514 18.4265 44.8257C20.6688 43.2306 23.3735 42.2828 25.9973 40.9883C19.513 34.1919 19.3974 32.8396 25.0726 28.2277C26.4828 30.158 28.0085 32.0073 29.2799 34.0185C32.0655 38.457 32.4354 38.8384 37.7638 35.5789C38.4111 35.1859 38.9312 34.5849 39.5438 34.0532C38.6192 31.4525 36.5386 32.0767 34.7817 31.9958C31.1408 31.834 31.1408 31.8571 28.413 29.164C29.8809 26.1472 31.372 23.142 32.8168 20.1137C33.6952 18.2528 35.2094 17.7558 37.0819 18.0563C39.2202 18.403 40.3645 20.2871 39.4167 22.2404C38.5382 24.0667 37.3015 25.7311 36.0301 27.7769C37.6714 28.5051 39.1393 29.164 40.5725 29.7997C43.9823 26.0663 46.7448 21.9052 51.6455 20.2755C52.524 19.9865 53.3331 19.3971 54.2231 19.2237C59.4591 18.2412 59.4706 18.2643 61.3084 13.3289C61.7476 13.9183 62.2331 14.3344 62.418 14.8546C64.3945 20.2639 66.2323 25.7195 68.3013 31.0827C69.1104 33.1747 68.3591 34.3421 66.2208 35.6714Z" fill="#F3F3F4"/>
<path d="M48.2007 15.444C46.2589 15.6752 44.8372 15.837 43.0572 16.0566C43.5889 17.4899 44.005 18.6111 44.4673 19.8709C43.8779 19.8709 43.4271 19.9865 43.3346 19.8478C42.8376 19.0965 42.4562 18.2759 42.0054 17.4899C41.6702 16.912 41.4275 16.022 40.942 15.8601C39.948 15.5134 38.2027 15.8833 38.7343 14.2073C39.2082 12.7047 40.2601 10.9825 41.5546 10.2543C42.5255 9.69948 44.6638 10.104 45.6232 10.8784C46.779 11.8262 47.2298 13.6294 48.2007 15.444Z" fill="#F3F3F4"/>
<path d="M63.5508 68.1622C62.4758 68.9829 61.5165 70.1503 61.0426 69.9885C59.9907 69.6071 58.8002 68.7286 58.3726 67.7346C57.8987 66.6596 60.0485 65.0299 61.4818 65.5385C62.2215 65.8043 62.6608 66.9833 63.5508 68.1622Z" fill="#F3F3F4"/>
<path d="M60.1405 63.1457C59.6435 62.5909 58.2565 61.5969 58.4183 61.0883C58.7304 60.0712 59.7938 59.1349 60.7763 58.557C61.1115 58.3605 62.5216 59.1349 62.7528 59.736C63.2844 61.0883 61.9668 62.9377 60.1405 63.1457Z" fill="#F3F3F4"/>
</g>
<defs>
<clipPath id="clip0">
<rect width="56.6249" height="60" fill="white" transform="translate(12 10)"/>
</clipPath>
</defs>
</svg>
