<svg width="80" height="80" viewBox="0 0 80 80" fill="none" xmlns="http://www.w3.org/2000/svg">
<rect width="80" height="80" fill="#A37D52"/>
<g clip-path="url(#clip0)">
<path d="M43.3659 49.7359C38.4375 46.7766 37.8544 46.7986 34.4771 49.7249C34.202 49.9669 33.96 50.242 33.696 50.495C27.2053 56.6006 20.7037 62.6952 14.213 68.7898C13.817 69.1639 13.476 69.8019 13.0249 69.8899C12.0678 70.077 11.0667 69.9669 10.0766 69.9889C10.1096 69.1419 9.8016 68.0637 10.2196 67.4917C12.6179 64.1364 15.1591 60.88 17.7004 57.6347C21.8038 52.4092 25.8192 47.1177 30.1206 42.0571C32.3208 39.4719 34.4441 36.6116 38.6905 35.3135C42.4639 38.2838 46.7873 41.4631 50.8357 44.9614C53.696 47.4367 53.652 49.2739 51.0997 51.7821C45.6982 57.0957 39.4716 61.3201 33.1459 65.4345C31.9798 66.1936 31.2757 66.1056 30.3516 65.1705C29.3065 64.1144 29.6256 63.3003 30.5277 62.4092C34.6861 58.3278 38.8335 54.2134 43.3659 49.7359Z" fill="#F3F3F4"/>
<path d="M56.4804 22.4751C57.2065 25.9075 57.7125 28.5037 58.3396 31.078C58.4166 31.408 59.0877 31.6941 59.5277 31.8041C59.7367 31.8591 60.2978 31.43 60.2868 31.232C60.2428 28.1737 62.696 26.9966 64.5772 25.1704C67.1625 26.3805 68.6696 28.4817 69.1317 30.946C69.6157 33.5753 69.6157 36.3695 68.1086 38.8558C66.5134 41.496 64.2032 41.6941 62.388 38.9438C60.6608 36.3365 58.0976 35.5555 55.7873 36.5786C52.685 37.9427 49.7257 37.1506 46.3264 37.5246C45.1273 33.1902 43.8401 28.9768 42.828 24.7084C42.355 22.6842 44.3572 20.1759 46.2604 19.8569C48.0316 19.5599 50.4078 21.6941 50.5398 23.9053C50.6718 26.2815 50.5508 28.6688 50.6608 31.045C50.6718 31.331 51.3649 31.6941 51.7939 31.8151C52.003 31.8811 52.597 31.496 52.597 31.298C52.674 27.9977 55.9524 26.3145 56.4804 22.4751Z" fill="#F3F3F4"/>
<path d="M59.3619 16.1825C59.2849 19.0098 57.2056 21.111 54.6534 20.968C51.7381 20.803 49.3619 18.2727 49.3949 15.3795C49.4279 12.9592 52.9372 9.7579 55.2695 10.0219C57.4147 10.2529 59.4389 13.3223 59.3619 16.1825Z" fill="#F3F3F4"/>
</g>
<defs>
<clipPath id="clip0">
<rect width="59.4169" height="60" fill="white" transform="translate(10 10)"/>
</clipPath>
</defs>
</svg>
