<svg width="80" height="80" viewBox="0 0 80 80" fill="none" xmlns="http://www.w3.org/2000/svg">
<rect width="80" height="80" fill="#A37D52"/>
<g clip-path="url(#clip0)">
<path d="M16.9405 47.8697C19.2946 45.3532 21.2023 44.2167 21.4762 41.3755C21.6285 39.8129 23.668 38.169 25.2307 37.0934C26.5498 36.1802 30.1825 38.8185 30.4463 40.5841C30.8319 43.2223 29.9187 45.4141 27.2804 46.0432C24.8147 46.6216 23.6985 48.3365 22.3793 49.9803C20.5123 52.2837 18.7467 54.6683 17.0115 57.0731C15.9359 58.5749 14.4037 58.6764 12.9527 58.3009C11.5422 57.9357 11.3596 56.5759 10.9841 55.1858C9.39101 49.4019 10.2434 43.547 10.1926 37.7429C10.1622 34.9017 12.2119 32.9433 15.3068 32.9534C17.8334 32.9636 19.3758 34.9321 19.2642 38.1893C19.2134 39.6404 18.7974 41.0813 18.4626 42.512C18.1175 43.9022 17.6812 45.272 16.9405 47.8697Z" fill="#F3F3F4"/>
<path d="M34.7791 34.7798C38.1479 35.1958 41.2428 35.6626 44.3478 35.9366C48.3052 36.2816 52.3234 35.5104 56.2707 36.8701C57.5594 37.3166 59.2134 36.7382 60.6948 36.586C62.3285 36.4135 63.9622 36.0177 65.5858 36.038C68.5487 36.0685 70.1012 37.8645 69.9896 40.8275C69.8881 43.7194 68.1225 45.2415 65.0784 45.1704C63.3331 45.1299 61.5878 44.6428 60.9181 43.1309C59.8932 40.7869 57.9247 40.6956 56.3214 41.2435C52.364 42.5829 48.3661 41.8422 44.3985 42.1365C42.1053 42.309 39.7917 41.8016 37.5289 42.999C36.5041 43.5368 34.9719 43.0903 33.6426 43.0903C34.0282 40.2694 34.3529 37.8747 34.7791 34.7798Z" fill="#F3F3F4"/>
<path d="M33.5009 28.2451C33.4705 32.0401 30.7916 35.1553 27.717 34.9828C24.8352 34.8205 21.2432 31.1675 21.2432 28.3872C21.2432 24.6632 24.6019 20.6754 27.8692 21.0102C29.371 21.1624 30.9134 22.1873 32.1716 23.1513C33.6531 24.2979 33.5313 24.4602 33.5009 28.2451Z" fill="#F3F3F4"/>
</g>
<defs>
<clipPath id="clip0">
<rect width="60" height="37.4734" fill="white" transform="translate(10 21)"/>
</clipPath>
</defs>
</svg>
