<svg width="80" height="80" viewBox="0 0 80 80" fill="none" xmlns="http://www.w3.org/2000/svg">
<rect width="80" height="80" fill="#A37D52"/>
<g clip-path="url(#clip0)">
<path d="M40.8688 39.4806C41.3614 39.2478 42.1405 38.7015 42.3106 38.8448C43.3852 39.7851 44.1464 39.4448 44.9345 38.5224C45.3196 38.0746 45.7046 37.4836 46.2151 37.3045C46.9673 37.0448 48.0151 36.7672 48.6061 37.0985C49.224 37.4388 49.9046 38.5761 49.7793 39.203C49.2151 42.006 48.642 44.8806 47.5315 47.4955C46.5733 49.7343 44.5405 50.0209 42.3912 48.4985C41.4778 47.8448 41.0479 47.5761 40.3315 48.5702C39.5524 49.6627 40.3673 50.2179 41.03 50.7373C44.7017 53.6209 48.4718 56.3881 52.0539 59.3791C53.2539 60.3821 54.0061 61.9135 55.0897 63.3911C52.2778 64.3224 49.7435 63.0508 47.2449 62.3343C41.6569 60.7314 36.5793 57.9642 31.636 54.9284C26.6121 51.8388 21.8927 48.4 17.9703 43.8508C16.6539 44.4776 15.4987 45.0239 13.8151 45.8209C14.4778 44.1821 14.9882 42.9194 15.4897 41.6657C14.7643 40.5284 13.8061 39.3732 13.2688 38.0388C13.0181 37.4209 13.43 36.3642 13.842 35.6836C14.433 34.6896 15.2031 35.1463 16.0987 35.5851C18.5614 36.7851 21.1852 37.6538 23.6121 38.9164C25.3136 39.803 26.4957 39.5523 28.0539 38.5224C30.4718 36.9373 33.1315 35.7284 35.7196 34.403C36.6688 33.9194 37.6897 33.5433 38.2002 35.012C37.027 35.1732 37.3673 36.0866 37.3046 36.803C36.0599 37.8776 34.9315 39.1582 33.5345 39.9821C32.1643 40.797 30.2927 40.7164 29.03 42.2209C30.5434 43.2508 31.7972 44.1105 32.9882 44.9164C34.0539 43.2508 35.0748 41.8538 35.8897 40.3493C36.4897 39.2299 36.839 37.9761 37.3046 36.7851C38.4599 36.6149 38.1285 35.7015 38.2002 34.9941C39.0778 33.803 39.9554 32.612 41.1823 30.9463C41.9345 33.7135 43.9942 35.8896 41.0479 38.1911C40.8061 38.3791 40.9315 39.0418 40.8957 39.4806C40.6002 39.7761 40.2957 40.0806 40.0002 40.3761C38.6658 41.8538 37.3046 43.3045 36.0151 44.8179C34.7972 46.2418 36.1584 46.6717 36.7852 47.3881C39.5972 45.6329 38.9972 42.6597 39.9823 40.3672C40.2688 40.0717 40.5643 39.7761 40.8688 39.4806Z" fill="#F3F3F4"/>
<path d="M40.3041 69.9822C32.2444 69.9822 24.1936 69.9822 16.1339 69.9822C15.3906 69.9822 14.6384 70.0091 13.9041 69.9195C13.2235 69.8389 12.6593 68.0837 13.2414 67.7613C14.4593 67.0986 15.6055 65.6837 17.1817 66.5165C19.0623 67.5106 20.6473 67.3135 22.6264 66.5523C23.8891 66.0688 25.6802 67.215 27.2115 67.1344C28.5906 67.0628 29.9608 65.6479 31.3757 66.4897C32.9787 67.4389 34.3488 67.4837 35.907 66.5344C36.3458 66.2658 37.2055 66.1673 37.5906 66.418C39.5876 67.7434 41.4235 67.4389 43.4115 66.3912C43.8772 66.1404 44.8712 66.5255 45.4354 66.8926C47.4593 68.218 49.1966 65.6837 50.8802 66.427C52.6264 67.1971 54.2384 67.6091 55.922 66.821C56.9518 66.3374 57.7041 66.2658 58.8055 66.7135C59.7906 67.1165 61.3936 67.3583 62.0921 66.83C64.0623 65.3434 65.4145 67.5553 67.0981 67.3494C67.2414 67.3314 67.716 68.3076 67.6623 68.7822C67.6175 69.2031 67.0891 69.83 66.6951 69.8926C65.6742 70.0628 64.6175 69.9822 63.5697 69.9822C55.8235 69.9912 48.0682 69.9822 40.3041 69.9822Z" fill="#F3F3F4"/>
<path d="M60.6689 10.2956C60.5435 11.5762 60.7405 13.0001 60.239 14.1195C58.3674 18.3374 57.3644 22.9583 54.3823 26.6658C53.836 27.3374 53.5047 28.1971 52.9137 28.8061C51.6868 30.0777 49.7346 30.0508 48.6152 28.8508C47.6749 27.8478 47.8271 26.8896 49.1166 25.3941C50.2629 24.0598 51.3107 22.6269 52.5554 21.3822C54.8928 19.0538 56.0928 16.0538 57.651 13.2508C58.2778 12.1225 59.0659 11.0837 59.7823 10.009C60.0778 10.0986 60.3734 10.1971 60.6689 10.2956Z" fill="#F3F3F4"/>
<path d="M47.0839 26.7014C47.2361 28.4029 45.4182 30.4895 43.7077 30.5701C41.8092 30.6507 40.0898 29.0656 39.9734 27.1223C39.866 25.3761 41.6301 23.5313 43.5018 23.4238C44.4242 23.3611 46.9943 25.7253 47.0839 26.7014Z" fill="#F3F3F4"/>
</g>
<defs>
<clipPath id="clip0">
<rect width="54.6716" height="60" fill="white" transform="translate(13 10)"/>
</clipPath>
</defs>
</svg>
