<svg width="80" height="80" viewBox="0 0 80 80" fill="none" xmlns="http://www.w3.org/2000/svg">
<rect width="80" height="80" fill="#A37D52"/>
<g clip-path="url(#clip0)">
<path d="M43.2212 26.8392C41.8695 28.3044 42.0655 30.399 39.6924 30.9045C38.5367 31.1522 37.9692 32.2975 37.9383 33.7008C37.8351 38.1995 34.9976 41.2433 31.6855 43.6062C27.5685 46.5365 23.1111 45.8143 18.1274 42.3267C16.2805 41.0266 15.3209 39.1384 14.6709 36.92C12.9374 31.049 14.578 25.5288 19.3656 22C23.9262 18.6466 31.7267 20.0499 34.9666 24.8065C35.3484 25.3637 35.8024 25.859 36.6691 26.9424C37.1438 23.0008 37.4946 19.6165 37.9795 16.2631C38.1859 14.7979 38.5574 13.3224 39.0423 11.9295C39.9193 9.3809 44.1807 9.34994 45.1403 11.8676C45.9658 14.0344 46.6261 16.2631 47.2143 18.5021C47.6786 20.2665 47.9675 22.0825 48.2874 23.8779C48.7104 26.2717 48.793 28.521 47.7611 30.9458C45.9451 35.2072 44.6863 39.6956 43.0664 44.0499C42.8703 44.5864 41.7766 45.2055 41.2607 45.092C40.7551 44.9785 40.0225 43.8744 40.136 43.3585C40.8686 39.7988 41.8901 36.2906 42.633 32.7309C43.0148 30.8014 43.0354 28.7996 43.2212 26.8392ZM34.7809 28.3869C31.6855 22.9389 27.3725 21.0507 22.6158 22.9286C17.8076 24.8272 15.3828 29.687 16.3527 35.4755C17.0543 39.6543 21.7388 43.2244 26.3613 43.0799C30.5298 42.9561 34.719 38.7773 35.4722 34.0722C32.8927 35.5477 30.21 36.9407 27.682 38.5606C26.1034 39.5718 25.5771 38.4161 24.566 37.3121C27.9709 34.3198 31.3862 31.3379 34.7809 28.3869Z" fill="#F3F3F4"/>
<path d="M53.1783 43.6063C54.0656 40.7069 53.3124 36.8273 57.4293 35.4034C55.0562 32.7723 52.6314 30.1411 51.8782 26.5504C51.2591 23.6201 50.7226 20.6484 50.4233 17.6768C50.2582 16.0775 52.683 14.1067 54.2204 14.2409C55.6753 14.375 56.5007 15.4997 56.5936 17.5736C56.6452 18.7705 56.7277 19.9984 56.5626 21.185C55.8816 26.1893 57.3468 30.4816 60.5764 34.2993C61.5257 35.4137 62.1344 36.817 63.0631 38.3647C60.7931 39.3655 58.9358 39.3552 57.0166 38.179C56.5317 39.5616 55.83 40.9029 55.634 42.3165C55.3864 44.0809 55.407 45.4945 57.5222 46.8772C64.1465 51.2108 64.3528 58.9184 60.6383 64.8204C58.8945 67.5857 56.0054 69.3191 52.8481 69.8557C49.6495 70.3922 46.5643 69.5564 43.9435 67.2658C40.6933 64.4283 38.6916 61.1059 39.0011 56.6897C39.3416 51.7886 41.4981 47.9399 46.0691 45.866C48.1637 44.8961 50.4852 44.4421 53.1783 43.6063ZM52.3631 47.5685C46.2548 47.1351 43.7681 48.9098 41.7974 54.0586C40.0742 58.5573 41.5704 61.8385 44.7587 64.9236C47.7716 67.8436 51.1146 68.1325 54.8292 66.7602C60.5661 64.6347 62.6813 55.3999 58.7191 50.9528C57.5738 49.6734 56.5214 48.3217 54.8292 46.2787C53.8593 50.2202 53.0441 53.068 52.4973 55.9674C52.26 57.2366 51.6821 57.8453 50.4749 58.6502C49.8868 54.5229 51.5686 51.314 52.3631 47.5685Z" fill="#F3F3F4"/>
<path d="M66.8598 17.7387C66.9526 19.3793 64.662 22.2374 63.0833 22.4334C61.4427 22.6398 58.6878 19.8539 58.6156 17.9244C58.5537 16.2322 60.6998 14.2408 62.65 14.1893C64.5588 14.1273 66.7669 15.9846 66.8598 17.7387Z" fill="#F3F3F4"/>
</g>
<defs>
<clipPath id="clip0">
<rect width="52.8702" height="60" fill="white" transform="translate(14 10)"/>
</clipPath>
</defs>
</svg>
