<svg width="44" height="44" viewBox="0 0 44 44" fill="none" xmlns="http://www.w3.org/2000/svg">
<rect width="44" height="44" fill="white"/>
<path d="M41.472 0H0V44H44V0H41.472ZM21.6892 32.5102C19.6708 32.5099 17.6976 31.9109 16.0195 30.7893C14.3414 29.6676 13.0339 28.0735 12.2618 26.2086C11.4898 24.3437 11.2883 22.2918 11.6825 20.3122C12.0767 18.3327 13.0486 16.5143 14.4762 15.0874C15.9037 13.6605 17.7221 12.6888 19.7019 12.2955C21.6816 11.9022 23.734 12.1048 25.5986 12.8777C27.4632 13.6506 29.0567 14.9591 30.1777 16.6377C31.2986 18.3162 31.8963 20.2895 31.8957 22.3079C31.8949 25.014 30.8195 27.609 28.9058 29.5222C26.9921 31.4354 24.3967 32.5102 21.6906 32.5102H21.6892ZM35.7457 12.1C34.9842 12.1 34.2397 11.8742 33.6066 11.4512C32.9734 11.0281 32.48 10.4268 32.1886 9.72329C31.8972 9.0198 31.8216 8.24577 31.9702 7.49894C32.1187 6.75212 32.4852 6.066 33.0236 5.52757C33.5621 4.98914 34.2476 4.6225 34.9945 4.47394C35.7413 4.32539 36.516 4.40169 37.2195 4.69308C37.923 4.98448 38.5238 5.47792 38.9469 6.11105C39.3699 6.74418 39.5957 7.48854 39.5957 8.25C39.5953 9.26981 39.1906 10.2479 38.4699 10.9694C37.7492 11.6909 36.7712 12.097 35.7514 12.0986L35.7457 12.1Z" fill="#6B6B76"/>
</svg>
