<svg width="65" height="75" viewBox="0 0 65 75" fill="none" xmlns="http://www.w3.org/2000/svg">
<path d="M65 45H0V75H65V45Z" fill="#FC4842"/>
<path d="M65 0H0V45H65V0Z" fill="#464655"/>
<path d="M56 9H53V36H56V9Z" fill="white"/>
<path d="M30 12H9V9H30V12Z" fill="white"/>
<path d="M30 9H27V24H30V9Z" fill="white"/>
<path d="M30 21H9V24H30V21Z" fill="white"/>
<path d="M56 21H35V24H56V21Z" fill="white"/>
<path d="M12 21H9V36H12V21Z" fill="white"/>
<path d="M30 33H9V36H30V33Z" fill="white"/>
<path d="M38 9H35V24H38V9Z" fill="white"/>
<path d="M39 52H36V65H39V52Z" fill="white"/>
<path d="M48 62H36V65H48V62Z" fill="white"/>
<path d="M48 52H45V65H48V52Z" fill="white"/>
<path d="M16 57H13V60H16V57Z" fill="white"/>
<path d="M22 52H19V65H22V52Z" fill="white"/>
<path d="M28.5 57H21V60H28.5V57Z" fill="white"/>
<path d="M31 52H28V65H31V52Z" fill="white"/>
</svg>
