<svg width="204" height="45" viewBox="0 0 204 45" fill="none" xmlns="http://www.w3.org/2000/svg">
<path d="M139 0H0V45H139V0Z" fill="#464655"/>
<path fill-rule="evenodd" clip-rule="evenodd" d="M119 12H128V9H119H116H109.14H107V12H116V36H119V12Z" fill="#111115"/>
<path fill-rule="evenodd" clip-rule="evenodd" d="M59 33V12V9H62H77H80V12V33V36H77H62H59V33ZM77 12H62V33H77V12Z" fill="#111115"/>
<path fill-rule="evenodd" clip-rule="evenodd" d="M104 9V24H86V36H83V9H104ZM86 12V21H101V12H86Z" fill="#111115"/>
<path d="M98 24H95L101 36L104 36L98 24Z" fill="#111115"/>
<path fill-rule="evenodd" clip-rule="evenodd" d="M38 9H53H56V24H53H38V36H35V24V21V12V9H38ZM38 12V21H53V12H38Z" fill="#111115"/>
<path fill-rule="evenodd" clip-rule="evenodd" d="M14 12H32V9H29H14H11V12V21V24H14H29V33H11V36H29H32V33V24V21H29H14V12Z" fill="#111115"/>
<path d="M204 0H139V45H204V0Z" fill="#909099"/>
<path fill-rule="evenodd" clip-rule="evenodd" d="M148 12H166V21H151H148V24V33V36H151H169V33H151V24H166H169V21V12V9H166H151H148V12ZM192 9H195V21V24V36H192V24H177H174V21V9H177V21H192V9Z" fill="#111115"/>
</svg>
