<svg width="92" height="24" viewBox="0 0 92 24" fill="none" 
    xmlns="http://www.w3.org/2000/svg">
    <path d="M16.2337 12.287C16.8339 12.287 16.6624 18.0941 17.2912 18.0941C17.92 18.0941 17.6627 14.8398 18.463 14.8398C19.2633 14.8398 19.0632 20.5348 19.7777 20.5348C20.4922 20.5348 20.5494 13.5213 21.2925 13.5213C22.0356 13.5213 21.8355 16.5511 22.5214 16.5511C23.2074 16.5511 23.1216 12.2589 24.2648 12.2309C24.3506 12.2309 24.4649 12.2309 24.5506 12.2309C25.2366 12.2028 25.6367 12.2028 25.6367 12.2028C25.6939 12.2028 25.7224 12.1747 25.7224 12.1747C25.7224 12.1467 25.6939 12.1186 25.6367 12.1186C25.6367 12.1186 25.2366 12.0906 24.5506 12.0906C24.4649 12.0906 24.3792 12.0906 24.2934 12.0906C23.1502 12.0906 23.2074 7.74225 22.55 7.74225C21.8641 7.74225 22.0641 10.7721 21.3211 10.7721C20.578 10.7721 20.5494 3.75861 19.8063 3.75861C19.0918 3.75861 19.2918 9.45353 18.4916 9.45353C17.6913 9.45353 17.9486 6.19929 17.3198 6.19929C16.691 6.19929 16.8339 12.0064 16.2623 12.0064C15.2906 12.0064 15.3477 8.41554 14.8047 8.41554C14.2331 8.41554 14.4046 11.9503 13.8044 11.9784C13.49 11.9784 12.3468 11.9784 12.3468 11.9784C11.3179 11.9784 11.2321 6.36761 10.6605 6.36761C10.0889 6.36761 10.1175 8.66802 9.5173 8.66802C8.91711 8.66802 8.94569 3.19753 8.31692 3.19753C7.68815 3.19753 7.94538 5.86264 7.14512 5.86264C6.34487 5.86264 6.54493 0.476318 5.80184 0.476318C5.08733 0.476318 5.03017 9.87433 4.28707 9.87433C3.54398 9.87433 3.88695 5.32962 3.20102 5.32962C2.51508 5.32962 2.60083 12.0345 1.45761 12.0625C1.37186 12.0625 1.28612 12.0625 1.20038 12.0625C0.514449 12.0906 0.114322 12.0906 0.114322 12.0906C0.057161 12.0906 0 12.1186 0 12.1467C0 12.1747 0.0285806 12.2028 0.0857415 12.2028C0.0857415 12.2028 0.485869 12.2309 1.1718 12.2309C1.25754 12.2309 1.34328 12.2309 1.45761 12.2309C2.60083 12.2589 2.51508 18.9638 3.20102 18.9638C3.88695 18.9638 3.54398 14.419 4.28707 14.419C5.03017 14.419 5.05875 23.8171 5.80184 23.8171C6.51635 23.8171 6.31629 18.4027 7.11654 18.4027C7.9168 18.4027 7.65957 21.0678 8.28834 21.0678C8.91712 21.0678 8.88853 15.5973 9.48872 15.5973C10.0889 15.5973 10.0603 17.8977 10.6319 17.8977C11.2036 17.8977 11.2893 12.287 12.3182 12.287C12.4897 12.287 13.49 12.287 13.7758 12.287C14.376 12.3431 14.2045 15.8498 14.7761 15.8498C15.3477 15.8778 15.2906 12.287 16.2337 12.287Z" fill="white" />
    <path d="M50.9178 4.23145V2.81982H52.136V6.71017H50.9178V5.20488H50.4265V6.71017H49.2084V2.81982H50.4265V4.23145H50.9178Z" fill="#FF4848" />
    <path d="M55.5247 2.81982V6.71017H53.0816C52.7922 6.71017 52.5903 6.50946 52.5903 6.22513V2.81982H53.8152V5.73675H54.3031V2.81982H55.5247Z" fill="#FF4848" />
    <path d="M37.2092 9.24596H30.9501C30.7044 9.24596 30.4958 9.04525 30.4958 8.80441V6.52305C30.4958 5.52956 31.3068 4.72339 32.3062 4.72339H35.8396C36.3444 4.72339 36.7515 4.31194 36.7515 3.80349V2.07742C36.7515 1.57566 36.3376 1.1709 35.8261 1.1709H32.2928C31.7846 1.1709 31.3674 1.58235 31.3674 2.0908V2.61933C31.3674 2.87355 31.1722 3.07091 30.9232 3.07091C30.6742 3.07091 30.4857 2.87021 30.4857 2.61598V2.08746C30.4857 1.08727 31.2967 0.27776 32.2961 0.27776H35.8295C36.8323 0.27776 37.65 1.08393 37.65 2.07742V3.82691C37.65 4.8204 36.839 5.62657 35.8396 5.62657H32.3062C31.8015 5.62657 31.3943 6.03801 31.3943 6.54647V8.34947H37.2092C37.4548 8.34947 37.6534 8.55687 37.6534 8.80106C37.6534 9.04525 37.4515 9.24596 37.2092 9.24596Z" fill="white" />
    <path d="M45.77 9.24596C45.521 9.24596 45.3157 9.04525 45.3157 8.79437V5.36899C45.0297 5.54294 44.7066 5.63326 44.3701 5.63326H40.7156C39.6859 5.63326 38.8513 4.80033 38.8513 3.78007V0.726002C38.8513 0.478465 39.0566 0.274414 39.3056 0.274414C39.5547 0.274414 39.7599 0.47512 39.7599 0.726002V3.78007C39.7599 4.30525 40.1907 4.73008 40.7156 4.73008H44.3701C44.8917 4.73008 45.3157 4.30191 45.3157 3.78007V0.726002C45.3157 0.48181 45.5243 0.274414 45.77 0.274414C46.019 0.274414 46.2243 0.47512 46.2243 0.635684V8.70405C46.2243 9.0486 46.0224 9.24596 45.77 9.24596Z" fill="white" />
    <path d="M34.4717 20.799H32.7645V23.8171H30.661V13.452H34.4717C36.9309 13.452 38.1605 14.6511 38.1605 17.0493C38.1605 18.2586 37.8455 19.1884 37.2155 19.8387C36.5956 20.4789 35.681 20.799 34.4717 20.799ZM32.7645 19.0004H34.4565C35.5032 19.0004 36.0265 18.35 36.0265 17.0493C36.0265 16.4091 35.8995 15.9518 35.6454 15.6774C35.3914 15.3929 34.9951 15.2506 34.4565 15.2506H32.7645V19.0004Z" fill="white" />
    <path d="M41.7863 21.3783C42.0912 21.9067 42.6552 22.1709 43.4783 22.1709C44.3014 22.1709 44.8603 21.9067 45.155 21.3783C45.4599 20.8397 45.6123 19.9454 45.6123 18.6955C45.6123 17.4354 45.4599 16.5209 45.155 15.9518C44.8502 15.3827 44.2912 15.0982 43.4783 15.0982C42.6653 15.0982 42.1064 15.3827 41.8016 15.9518C41.4967 16.5209 41.3443 17.4354 41.3443 18.6955C41.3443 19.9454 41.4916 20.8397 41.7863 21.3783ZM46.8012 22.7197C46.161 23.5733 45.0534 24.0001 43.4783 24.0001C41.9032 24.0001 40.7905 23.5733 40.1401 22.7197C39.4999 21.8559 39.1798 20.5094 39.1798 18.6803C39.1798 16.8511 39.4999 15.4945 40.1401 14.6104C40.7905 13.7162 41.9032 13.269 43.4783 13.269C45.0534 13.269 46.161 13.7162 46.8012 14.6104C47.4516 15.4945 47.7768 16.8511 47.7768 18.6803C47.7768 20.5094 47.4516 21.8559 46.8012 22.7197Z" fill="white" />
    <path d="M53.0713 23.8171H49.5807V13.452H53.0713C53.9656 13.452 54.7023 13.5485 55.2816 13.7416C55.8608 13.9245 56.3079 14.2344 56.6229 14.6714C56.9481 15.0982 57.1717 15.6063 57.2936 16.1957C57.4156 16.7749 57.4765 17.532 57.4765 18.4669C57.4765 19.4018 57.4206 20.1792 57.3089 20.799C57.1971 21.4088 56.9837 21.9575 56.6687 22.4453C56.3638 22.9229 55.9167 23.2735 55.3273 23.497C54.7379 23.7104 53.9859 23.8171 53.0713 23.8171ZM55.2816 19.7016C55.3019 19.3764 55.312 18.9293 55.312 18.3602C55.312 17.7809 55.2917 17.3186 55.2511 16.9731C55.2104 16.6276 55.1139 16.3125 54.9615 16.028C54.809 15.7435 54.5804 15.5504 54.2755 15.4488C53.9808 15.337 53.5794 15.2811 53.0713 15.2811H51.6842V21.988H53.0713C53.8335 21.988 54.3873 21.7949 54.7328 21.4088C55.0275 21.0937 55.2104 20.5247 55.2816 19.7016Z" fill="white" />
    <path d="M65.8707 23.6495C64.7936 23.8832 63.8231 24.0001 62.9594 24.0001C62.0956 24.0001 61.4046 23.8934 60.8863 23.68C60.368 23.4666 59.9616 23.1261 59.6669 22.6587C59.3722 22.1912 59.1689 21.6425 59.0572 21.0125C58.9454 20.3824 58.8895 19.5898 58.8895 18.6346C58.8895 16.6326 59.1689 15.2405 59.7278 14.458C60.2969 13.6654 61.3385 13.269 62.8526 13.269C63.7266 13.269 64.7377 13.4062 65.886 13.6806L65.825 15.3573C64.819 15.2049 63.9806 15.1287 63.3099 15.1287C62.6494 15.1287 62.1769 15.2201 61.8923 15.4031C61.6078 15.5758 61.3944 15.9112 61.2521 16.4091C61.12 16.907 61.054 17.7555 61.054 18.9547C61.054 20.1538 61.1912 20.987 61.4655 21.4545C61.7501 21.9118 62.309 22.1404 63.1423 22.1404C63.9857 22.1404 64.88 22.0693 65.825 21.927L65.8707 23.6495Z" fill="white" />
    <path d="M66.7086 23.8171L69.0408 13.452H73.0344L75.3666 23.8171H73.2631L72.8515 21.9423H69.2237L68.8121 23.8171H66.7086ZM70.6718 15.1897L69.62 20.1131H72.4552L71.4035 15.1897H70.6718Z" fill="white" />
    <path d="M79.8286 15.0982C78.721 15.0982 78.1671 15.464 78.1671 16.1957C78.1671 16.5209 78.3043 16.7698 78.5787 16.9426C78.8531 17.1153 79.4933 17.3643 80.4993 17.6895C81.5155 18.0147 82.2268 18.3856 82.6333 18.8022C83.0398 19.2087 83.243 19.8387 83.243 20.6923C83.243 21.7797 82.9128 22.6028 82.2522 23.1617C81.5917 23.7206 80.728 24.0001 79.6609 24.0001C78.8683 24.0001 77.8979 23.8781 76.7495 23.6342L76.2008 23.5275L76.4142 21.8965C77.7759 22.0795 78.8175 22.1709 79.539 22.1709C80.6162 22.1709 81.1548 21.7238 81.1548 20.8295C81.1548 20.5044 81.0277 20.2503 80.7737 20.0674C80.5298 19.8845 80.0369 19.6863 79.2951 19.4729C78.1163 19.1376 77.2831 18.7413 76.7953 18.284C76.3177 17.8165 76.0789 17.1712 76.0789 16.3481C76.0789 15.3116 76.3939 14.5393 77.0239 14.0312C77.654 13.5231 78.5177 13.269 79.6152 13.269C80.3672 13.269 81.3224 13.3707 82.4809 13.5739L83.0296 13.6806L82.862 15.3421C81.4291 15.1795 80.418 15.0982 79.8286 15.0982Z" fill="white" />
    <path d="M84.0044 15.3116V13.452H91.6258V15.3116H88.8821V23.8171H86.7786V15.3116H84.0044Z" fill="white" />
</svg>