<svg width="65" height="75" viewBox="0 0 65 75" fill="none" xmlns="http://www.w3.org/2000/svg">
<g clip-path="url(#clip0)">
<rect width="65" height="75" fill="#F3F3F4"/>
<path d="M65 0H0V75H65V0Z" fill="#454545"/>
</g>
<path d="M16.1347 58.6125H12.4232C12.1859 58.6125 11.9571 58.6607 11.7368 58.7571C11.5164 58.846 11.3173 58.9683 11.1394 59.124C10.9699 59.2723 10.8343 59.4428 10.7326 59.6356C10.6309 59.8283 10.5801 60.0248 10.5801 60.225V62.6938H16.1347V58.6125ZM16.1347 70V64.3062H10.5801V70H5V60.225C5 59.3798 5.37285 58.631 6.11856 57.9786C6.86426 57.3262 7.73284 57 8.72429 57H21.7402V70H16.1347Z" fill="#E1E1E4"/>
<path d="M35.3536 60.225C35.3536 60.0248 35.3028 59.8283 35.2011 59.6356C35.1079 59.4428 34.9765 59.2723 34.807 59.124C34.646 58.9683 34.4511 58.846 34.2223 58.7571C34.002 58.6607 33.7647 58.6125 33.5105 58.6125H29.7989V68.3875H33.5105C34.002 68.3875 34.4342 68.2207 34.807 67.8871C35.1714 67.5461 35.3536 67.1642 35.3536 66.7417V60.225ZM40.9591 66.7417C40.9591 67.5942 40.5778 68.3541 39.8151 69.0214C39.0694 69.6738 38.2093 70 37.2348 70H24.2189V57H37.2348C38.2178 57 39.0779 57.3225 39.8151 57.9675C40.5778 58.6496 40.9591 59.4021 40.9591 60.225V66.7417Z" fill="#E1E1E4"/>
<path d="M54.3945 60.225C54.3945 60.0248 54.3437 59.8283 54.242 59.6356C54.1488 59.4428 54.0174 59.2723 53.8479 59.124C53.6785 58.9683 53.4793 58.846 53.2505 58.7571C53.0302 58.6607 52.7972 58.6125 52.5514 58.6125H50.6829C50.4457 58.6125 50.2169 58.6607 49.9965 58.7571C49.7762 58.846 49.5771 58.9683 49.3991 59.124C49.2296 59.2723 49.0898 59.4428 48.9797 59.6356C48.878 59.8283 48.8271 60.0248 48.8271 60.225V66.7417C48.8271 66.9567 48.878 67.1642 48.9797 67.3644C49.0898 67.5572 49.2296 67.7314 49.3991 67.8871C49.5771 68.0354 49.7762 68.1577 49.9965 68.2541C50.2169 68.343 50.4457 68.3875 50.6829 68.3875H52.5514C53.0429 68.3875 53.4751 68.2207 53.8479 67.8871C54.2123 67.5461 54.3945 67.1642 54.3945 66.7417V60.225ZM60 66.7417C60 67.5942 59.6187 68.3541 58.856 69.0214C58.1103 69.6738 57.2502 70 56.2757 70H46.9841C45.9841 70 45.1113 69.6775 44.3656 69.0325C43.6284 68.3801 43.2598 67.6165 43.2598 66.7417V60.225C43.2598 59.3798 43.6326 58.631 44.3783 57.9786C45.124 57.3262 45.9926 57 46.9841 57H56.2757C57.2587 57 58.1188 57.3225 58.856 57.9675C59.6187 58.6496 60 59.4021 60 60.225V66.7417Z" fill="#E1E1E4"/>
<path d="M49 56.2266V56.5664L56.6992 55.6992L55 54L49 56.2266Z" fill="#E1E1E4"/>
<path d="M21.5449 10.5043C21.5449 10.1627 21.4668 9.82736 21.3107 9.49836C21.1547 9.16937 20.94 8.87834 20.6669 8.62526C20.4068 8.35954 20.1011 8.15075 19.7499 7.99891C19.4117 7.83441 19.0605 7.75216 18.6963 7.75216H13.5651V16.0656H18.6963C19.0605 16.0656 19.4117 15.9897 19.7499 15.8378C20.1011 15.686 20.4068 15.4835 20.6669 15.2305C20.94 14.9774 21.1547 14.6863 21.3107 14.3574C21.4668 14.0284 21.5449 13.6804 21.5449 13.3134V10.5043ZM22.0912 27.1881V21.6269C22.0912 20.893 21.8115 20.2539 21.2522 19.7098C20.6799 19.1531 20.0166 18.8747 19.2621 18.8747H13.5651V27.1881H5V5H24.3934C25.8762 5 27.1964 5.56309 28.354 6.68926C29.5116 7.81543 30.0905 9.08712 30.0905 10.5043V12.4593C30.0905 14.6104 29.0824 16.2301 27.0663 17.3183C28.0939 17.7865 28.9523 18.4824 29.6417 19.4062C30.3441 20.3425 30.6953 21.3675 30.6953 22.481V27.1881H22.0912Z" fill="white"/>
<path d="M51.3569 7.75216H45.6598C45.2956 7.75216 44.9444 7.83441 44.6062 7.99891C44.2681 8.15075 43.9624 8.35954 43.6893 8.62526C43.4291 8.87834 43.221 9.16937 43.0649 9.49836C42.9088 9.82736 42.8308 10.1627 42.8308 10.5043V14.718H51.3569V7.75216ZM51.3569 27.1881V17.4701H42.8308V27.1881H34.2657V10.5043C34.2657 9.06181 34.838 7.7838 35.9826 6.67028C37.1272 5.55676 38.4604 5 39.9823 5H59.961V27.1881H51.3569Z" fill="white"/>
<path d="M22.0912 52V35.3162C22.0912 34.9745 22.0131 34.6392 21.857 34.3102C21.714 33.9812 21.5124 33.6902 21.2522 33.4371C21.0051 33.1714 20.7059 32.9626 20.3547 32.8108C20.0166 32.6463 19.6524 32.564 19.2621 32.564H13.5651V52H5V29.8119H24.9787C26.4875 29.8119 27.8077 30.3623 28.9393 31.4632C30.11 32.6273 30.6953 33.9116 30.6953 35.3162V52H22.0912Z" fill="white"/>
<path d="M40.0213 52C38.4865 52 37.1467 51.4496 36.0021 50.3487C34.8705 49.2352 34.3047 47.9319 34.3047 46.4387V35.3162C34.3047 33.8737 34.877 32.5957 36.0216 31.4821C37.1663 30.3686 38.4995 29.8119 40.0213 29.8119H60V32.564H45.6988C45.3346 32.564 44.9834 32.6463 44.6453 32.8108C44.3071 32.9626 44.0014 33.1714 43.7283 33.4371C43.4681 33.6902 43.2535 33.9812 43.0844 34.3102C42.9283 34.6392 42.8503 34.9745 42.8503 35.3162V46.4387C42.8503 46.8057 42.9283 47.16 43.0844 47.5016C43.2535 47.8306 43.4681 48.128 43.7283 48.3937C44.0014 48.6468 44.3071 48.8556 44.6453 49.0201C44.9834 49.1719 45.3346 49.2478 45.6988 49.2478H51.3959V40.8775H60V52H40.0213Z" fill="white"/>
<defs>
<clipPath id="clip0">
<rect width="65" height="75" fill="white"/>
</clipPath>
</defs>
</svg>
