<svg width="61" height="70" viewBox="0 0 61 70" fill="none" xmlns="http://www.w3.org/2000/svg">
<path d="M13.9508 56.2642V63.3962H0.0283203L0.0283203 56.2642H13.9508Z" fill="#FCBF49"/>
<path d="M60.9723 57.3208V70H15.0017V57.3208H60.9723Z" fill="#A1BE62"/>
<path d="M28.2914 66.2868L26.8225 61.5757H27.6451L28.6072 64.8773L29.5032 61.5757H30.3037L28.8496 66.2868H28.2914Z" fill="#353540"/>
<path d="M31.9929 66.2718V65.5858H32.889V62.2616H32.0444V61.5757H34.5708V62.2616H33.6748V65.5858H34.6075V66.2718H31.9929Z" fill="#353540"/>
<path d="M36.5611 66.2718V61.5757H37.7436C38.1451 61.5757 38.456 61.6335 38.6763 61.7491C38.9015 61.8596 39.09 62.0179 39.2418 62.224C39.3936 62.435 39.5111 62.6863 39.5944 62.9777C39.6825 63.2692 39.7266 63.5958 39.7266 63.9577C39.7168 64.43 39.6409 64.8421 39.4989 65.1939C39.3569 65.5406 39.1341 65.8069 38.8305 65.9929C38.5319 66.1788 38.1402 66.2718 37.6554 66.2718H36.5611ZM37.369 65.6084H37.6334C37.9468 65.6084 38.1965 65.5406 38.3825 65.4049C38.5735 65.2692 38.7106 65.0783 38.7938 64.832C38.8771 64.5858 38.9162 64.2969 38.9113 63.9652C38.9113 63.6185 38.8746 63.3169 38.8012 63.0607C38.7326 62.8044 38.6102 62.6059 38.4339 62.4652C38.2577 62.3245 38.0178 62.2541 37.7142 62.2541H37.369V65.6084Z" fill="#353540"/>
<path d="M41.4011 66.2718V61.5757H44.3829V62.2692H42.2089V63.4752H43.9936V64.1763H42.2089V65.5783H44.3608V66.2718H41.4011ZM42.4219 61.3496L42.2163 60.9425L43.4134 60.2264L43.7366 60.8672L42.4219 61.3496Z" fill="#353540"/>
<path d="M47.1884 64.1461L46.8873 64.5531V66.2718H46.0721V61.5757H46.9461V61.6435C46.9167 61.6737 46.8995 61.7089 46.8947 61.7491C46.8898 61.7843 46.8873 61.842 46.8873 61.9224V63.4978L48.4076 61.5305C48.481 61.5506 48.5741 61.5631 48.6867 61.5682C48.7993 61.5732 48.885 61.5757 48.9437 61.5757H49.3256L47.776 63.5431L49.4138 66.2642L48.4663 66.3019L47.1884 64.1461Z" fill="#353540"/>
<g clip-path="url(#clip0_108_43)">
<path d="M60.9722 1.52588e-05V31.9623L0.0283203 31.9623L0.0283203 1.52588e-05L60.9722 1.52588e-05Z" fill="#A1BE62"/>
<path d="M19.053 18.925H12.469V17.2527C12.469 16.4723 12.3848 15.9752 12.2164 15.7616C12.048 15.5479 11.7674 15.4411 11.3745 15.4411C10.9479 15.4411 10.6223 15.5851 10.3978 15.8731C10.1845 16.1611 10.0779 16.5977 10.0779 17.183C10.0779 17.9355 10.2013 18.5022 10.4483 18.8832C10.6841 19.2641 11.352 19.7239 12.4521 20.2628C15.6066 21.8143 17.5936 23.0871 18.4131 24.0811C19.2326 25.0752 19.6423 26.6778 19.6423 28.8889C19.6423 30.4962 19.4122 31.6807 18.9519 32.4425C18.5029 33.2043 17.6273 33.8454 16.3251 34.3657C15.0229 34.8766 13.5074 35.1321 11.7786 35.1321C9.88141 35.1321 8.25927 34.8348 6.91216 34.2402C5.57628 33.6456 4.70066 32.8885 4.2853 31.9687C3.86994 31.049 3.66226 29.7437 3.66226 28.0528V26.5756H10.2463V29.321C10.2463 30.1664 10.3361 30.7099 10.5157 30.9514C10.7065 31.193 11.0377 31.3137 11.5092 31.3137C11.9807 31.3137 12.3287 31.1605 12.5532 30.8539C12.7889 30.5473 12.9068 30.0921 12.9068 29.4882C12.9068 28.1596 12.6879 27.291 12.2501 26.8822C11.801 26.4734 10.6953 25.7906 8.93282 24.8337C7.17036 23.8675 6.00286 23.166 5.43034 22.7294C4.85782 22.2927 4.38072 21.6889 3.99904 20.9178C3.62859 20.1467 3.44336 19.1619 3.44336 17.9634C3.44336 16.2354 3.70717 14.9719 4.23478 14.1729C4.77363 13.3739 5.63802 12.7515 6.82797 12.3055C8.01791 11.8503 9.45483 11.6227 11.1387 11.6227C12.9798 11.6227 14.5458 11.8689 15.8367 12.3613C17.139 12.8537 17.9977 13.4761 18.4131 14.2286C18.8397 14.9719 19.053 16.24 19.053 18.0331V18.925Z" fill="#353540"/>
<path d="M38.0809 25.3075C38.0809 27.5744 38.0135 29.1816 37.8788 30.1292C37.7553 31.0676 37.3512 31.9269 36.6664 32.7073C35.9928 33.4877 35.0779 34.0869 33.9217 34.505C32.7654 34.9231 31.4183 35.1321 29.8803 35.1321C28.421 35.1321 27.1075 34.937 25.9401 34.5468C24.7838 34.1473 23.852 33.5527 23.1448 32.7631C22.4376 31.9734 22.0166 31.114 21.8819 30.185C21.7472 29.2559 21.6798 27.6301 21.6798 25.3075V21.4473C21.6798 19.1804 21.7416 17.5778 21.8651 16.6395C21.9998 15.6919 22.4039 14.8279 23.0774 14.0475C23.7622 13.2671 24.6828 12.6679 25.839 12.2498C26.9953 11.8317 28.3424 11.6227 29.8803 11.6227C31.3397 11.6227 32.6475 11.8224 33.8038 12.2219C34.9713 12.6121 35.9086 13.2021 36.6159 13.9917C37.3231 14.7814 37.7441 15.6408 37.8788 16.5698C38.0135 17.4989 38.0809 19.1247 38.0809 21.4473V25.3075ZM30.9917 17.8937C30.9917 16.8439 30.9187 16.175 30.7728 15.887C30.6381 15.5897 30.3518 15.4411 29.914 15.4411C29.5436 15.4411 29.2573 15.5618 29.0552 15.8034C28.8644 16.0356 28.769 16.7324 28.769 17.8937V28.4291C28.769 29.739 28.8307 30.5473 28.9542 30.8539C29.0889 31.1605 29.392 31.3137 29.8635 31.3137C30.3462 31.3137 30.6549 31.1372 30.7896 30.7842C30.9243 30.4312 30.9917 29.5904 30.9917 28.2618V17.8937Z" fill="#353540"/>
<path d="M58.018 11.6227L53.6372 22.3481L58.0827 34.7229H50.7578L47.8952 25.0516V34.7229H40.806V11.6227L47.8305 11.6227L47.8952 20.9266L51.3012 11.6227H58.018Z" fill="#353540"/>
</g>
<g clip-path="url(#clip1_108_43)">
<path d="M60.9722 32.7547V56.2642L0.0283203 56.2642L0.0283203 32.7547H60.9722Z" fill="#FCBF49"/>
<path d="M13.4332 40.6581H9.58017V39.8974C9.58017 39.2493 9.54071 38.8408 9.46178 38.6717C9.39003 38.4956 9.20348 38.4076 8.90213 38.4076C8.65818 38.4076 8.47522 38.4886 8.35324 38.6506C8.23127 38.8056 8.17028 39.0415 8.17028 39.3585C8.17028 39.7882 8.19898 40.1052 8.25638 40.3095C8.32096 40.5067 8.50392 40.725 8.80527 40.9645C9.1138 41.204 9.74161 41.5527 10.6887 42.0106C11.9515 42.6164 12.7802 43.1869 13.1749 43.7223C13.5695 44.2576 13.7668 45.036 13.7668 46.0574C13.7668 47.1985 13.6161 48.0614 13.3148 48.6461C13.0134 49.2237 12.5076 49.671 11.7972 49.9879C11.0941 50.2979 10.2439 50.4528 9.24653 50.4528C8.14158 50.4528 7.19448 50.2838 6.40523 49.9457C5.62315 49.6076 5.08503 49.1497 4.79085 48.5721C4.49668 47.9945 4.2312 47.121 4.2312 45.9517V45.2755H8.20257V46.163C8.20257 46.9167 8.24921 47.4063 8.34248 47.6317C8.44293 47.8571 8.63666 47.9698 8.92366 47.9698C9.23218 47.9698 9.44743 47.8959 9.56941 47.7479C9.69138 47.593 9.75237 47.2725 9.75237 46.7864C9.75237 46.1172 9.67345 45.6981 9.5156 45.5291C9.35057 45.36 8.50751 44.8599 6.9864 44.0287C5.70925 43.3243 4.93076 42.6868 4.65094 42.1162C4.37111 41.5386 4.2312 40.8554 4.2312 40.0664C4.2312 38.9464 4.38188 38.1223 4.68323 37.594C4.98458 37.0586 5.494 36.6466 6.2115 36.3578C6.93618 36.0689 7.77566 35.9245 8.72993 35.9245C9.67703 35.9245 10.4806 36.0443 11.1407 36.2838C11.808 36.5162 12.3174 36.8262 12.669 37.2136C13.0278 37.601 13.243 37.9603 13.3148 38.2913C13.3937 38.6224 13.4332 39.1401 13.4332 39.8445V40.6581Z" fill="#353540"/>
<path d="M23.4621 36.1781V39.2845L20.2549 47.3887H23.4621V50.1993H16.0467V47.2619L19.3293 38.9887H16.3804V36.1781H23.4621Z" fill="#353540"/>
<path d="M30.682 36.1781V50.1993H26.2048V36.1781H30.682ZM32.1565 32.3744L28.6156 35.2378H26.4308L28.325 32.3744H32.1565Z" fill="#353540"/>
<path d="M38.4401 36.1781L38.3647 37.4672C38.6804 36.953 39.0643 36.5691 39.5163 36.3155C39.9755 36.0549 40.5029 35.9245 41.0984 35.9245C41.8446 35.9245 42.4545 36.0971 42.928 36.4423C43.4016 36.7874 43.7065 37.2242 43.8429 37.7525C43.9792 38.2737 44.0473 39.1472 44.0473 40.3728V50.1993H39.6993V40.4891C39.6993 39.524 39.667 38.9359 39.6024 38.7245C39.5378 38.5132 39.3585 38.4076 39.0643 38.4076C38.7558 38.4076 38.562 38.5308 38.4831 38.7774C38.4042 39.0169 38.3647 39.6649 38.3647 40.7215V50.1993H34.0167V36.1781H38.4401Z" fill="#353540"/>
<path d="M57.2727 36.1781V50.1993H52.8494L52.9247 49.037C52.6233 49.5089 52.2502 49.8647 51.8054 50.1042C51.3677 50.3366 50.8619 50.4528 50.2879 50.4528C49.6349 50.4528 49.0932 50.3401 48.6627 50.1147C48.2322 49.8893 47.9129 49.59 47.7049 49.2166C47.504 48.8433 47.3784 48.4559 47.3282 48.0544C47.278 47.6458 47.2528 46.8393 47.2528 45.6347V36.1781H51.6009V45.7193C51.6009 46.8111 51.6332 47.4591 51.6978 47.6634C51.7695 47.8677 51.9561 47.9698 52.2574 47.9698C52.5803 47.9698 52.7704 47.8642 52.8278 47.6528C52.8924 47.4415 52.9247 46.7618 52.9247 45.6136V36.1781H57.2727ZM53.2126 31.9623L50.6188 35.2378H49.0152L50.2852 31.9623H53.2126ZM57.2944 31.9623L54.2808 35.2378H53.1078L54.3777 31.9623H57.2944Z" fill="#353540"/>
</g>
<defs>
<clipPath id="clip0_108_43">
<rect width="60.9439" height="31.9623" fill="white" transform="translate(0.0283203)"/>
</clipPath>
<clipPath id="clip1_108_43">
<rect width="61" height="23.5921" fill="white" transform="translate(0 32.7931)"/>
</clipPath>
</defs>
</svg>
