<svg width="134" height="46" viewBox="0 0 134 46" fill="none" xmlns="http://www.w3.org/2000/svg">
<path d="M134 0H67V46H134V0Z" fill="#0092A6"/>
<path fill-rule="evenodd" clip-rule="evenodd" d="M77 12.2666H95V21.4666H80H77V24.5333V33.7333V36.7999V36.8H98V33.7333H80V24.5333L95 24.5333H98V21.4666V12.2666V9.19995H95H80H77V12.2666ZM121 9.19995H124V21.4666V24.5333V36.8H121V24.5333L106 24.5333L103 24.5333V21.4666V9.19995H106V21.4666H121V9.19995Z" fill="white"/>
<path d="M67 0H0V46H67V0Z" fill="#464655"/>
<path fill-rule="evenodd" clip-rule="evenodd" d="M39 9.19995H54V12.2666H39V21.4666H54V12.2667H57V21.4667H54V24.5333H39V33.7334H54V36.8001H36V36.8V33.7334V24.5333V21.4666V12.2666V9.19995H39ZM54 33.7334L57 33.7334V24.5334H54V33.7334Z" fill="white"/>
<path d="M10 21.5272H31V24.609H10V21.5272Z" fill="white"/>
<path d="M10 9.19995H13V36.9362H10V9.19995Z" fill="white"/>
<path d="M10 9.19995H31V12.2818H10V9.19995Z" fill="white"/>
<path d="M10 33.8544H31V36.9362H10V33.8544Z" fill="white"/>
</svg>
