<svg width="134" height="47" viewBox="0 0 134 47" fill="none" xmlns="http://www.w3.org/2000/svg">
<path d="M134 0H67V47H134V0Z" fill="#538ED0"/>
<path fill-rule="evenodd" clip-rule="evenodd" d="M77 12.2609H95V21.4565H80H77V24.5218V34.7392V37.8044H80H98V34.7392H80V24.5218L95 24.5218H98V21.4565V12.2609V9.19568H95H80H77V12.2609ZM121 9.19568H124V21.4565V24.5218V37.8044H121V24.5218L106 24.5218L103 24.5218V21.4565V9.19568H106V21.4565H121V9.19568Z" fill="white"/>
<path d="M67 0H0V47H67V0Z" fill="#112497"/>
<path fill-rule="evenodd" clip-rule="evenodd" d="M39 9.19568H54V12.2609H39V21.4565H54V24.5218H39V34.7392H54V37.8044H36V37.8042V34.7392V24.5218V21.4565V12.2609V9.19568H39ZM54 34.7392V24.5218H57V34.7392H54ZM54 21.4565V12.2609H57V21.4565H54Z" fill="white"/>
<path d="M28.8571 9.19556L32 9.19556L22.5714 37.8043L19.4286 37.8042L28.8571 9.19556Z" fill="white"/>
<path d="M19.4286 37.8044L22.5714 37.8044L13.1428 9.19562L9.99999 9.19569L19.4286 37.8044Z" fill="white"/>
</svg>
