<svg width="213" height="46" viewBox="0 0 213 46" fill="none" xmlns="http://www.w3.org/2000/svg">
<path d="M146 0H0V46H146V0Z" fill="#464655"/>
<path fill-rule="evenodd" clip-rule="evenodd" d="M11 34V13V10H14H29H32V13V34V37H29H14H11V34ZM29 13H14V34H29V13Z" fill="white"/>
<path fill-rule="evenodd" clip-rule="evenodd" d="M36 10H39V34H51V37H39H36V34V10Z" fill="white"/>
<path d="M57 10H54V37H57V10Z" fill="white"/>
<path d="M111 10H108V37H111V10Z" fill="white"/>
<path fill-rule="evenodd" clip-rule="evenodd" d="M87 10H102H105V25H102H87V37H84V25V22V13V10H87ZM87 13V22H102V13H87Z" fill="white"/>
<path d="M63 10.0001H60V37.0001H63V10.0001Z" fill="white"/>
<path d="M81 10.0001H78V37.0001H81V10.0001Z" fill="white"/>
<path d="M63 10.0001H60L69 22.0001L72 22.0001L63 10.0001Z" fill="white"/>
<path d="M78 10H81L72 22.0001L69 22L78 10Z" fill="white"/>
<path d="M117 37H114L123 9.99994L126 10L117 37Z" fill="white"/>
<path d="M126 10H123L132 37.0001L135 37L126 10Z" fill="white"/>
<path d="M213 0H146V46H213V0Z" fill="#C0233A"/>
<path fill-rule="evenodd" clip-rule="evenodd" d="M156 12.2667H174V21.4667H159H156V24.5333V33.7333V36.8V36.8H177V33.7333H159V24.5333L174 24.5333H177V21.4667V12.2667V9.2H174H159H156V12.2667ZM200 9.2H203V21.4667V24.5333V36.8H200V24.5333L185 24.5333L182 24.5333V21.4667V9.2H185V21.4667H200V9.2Z" fill="white"/>
</svg>
