<svg width="204" height="45" viewBox="0 0 204 45" fill="none" xmlns="http://www.w3.org/2000/svg">
<rect width="204" height="45" fill="#23232B"/>
<g clip-path="url(#clip0)">
<path d="M139 -0.00012207H0V44.9999H139V-0.00012207Z" fill="#464655"/>
<path fill-rule="evenodd" clip-rule="evenodd" d="M119 11.9999H128V8.99988H119H116H109.14H107V11.9999H116V35.9999H119V11.9999Z" fill="white"/>
<path fill-rule="evenodd" clip-rule="evenodd" d="M59 32.9999V11.9999V8.99988H62H77H80V11.9999V32.9999V35.9999H77H62H59V32.9999ZM77 11.9999H62V32.9999H77V11.9999Z" fill="white"/>
<path fill-rule="evenodd" clip-rule="evenodd" d="M104 8.99988V23.9999H86V35.9999H83V8.99988H104ZM86 11.9999V20.9999H101V11.9999H86Z" fill="white"/>
<path d="M98 23.9999H95L101 35.9999L104 35.9999L98 23.9999Z" fill="white"/>
<path fill-rule="evenodd" clip-rule="evenodd" d="M38 8.99988H53H56V23.9999H53H38V35.9999H35V23.9999V20.9999V11.9999V8.99988H38ZM38 11.9999V20.9999H53V11.9999H38Z" fill="white"/>
<path fill-rule="evenodd" clip-rule="evenodd" d="M14 11.9999H32V8.99988H29H14H11V11.9999V20.9999V23.9999H14H29V32.9999H11V35.9999H29H32V32.9999V23.9999V20.9999H29H14V11.9999Z" fill="white"/>
<g clip-path="url(#clip1)">
<path d="M204 -0.00012207H139V44.9999H204V-0.00012207Z" fill="#57A600"/>
<g clip-path="url(#clip2)">
<path d="M164.306 24.5771C167.105 24.655 169.889 24.6968 172.584 25.5232C172.974 25.643 173.395 25.9559 173.616 26.2992C175.382 29.0584 176.498 32.0988 177.209 35.2733C177.711 37.5147 178.04 39.7979 178.38 42.0725C178.433 42.4287 178.243 42.9321 177.991 43.2061C174.168 47.3499 169.645 50.5418 164.547 52.9187C164.265 53.05 163.792 52.9851 163.495 52.8365C159.338 50.7625 155.704 47.9471 152.298 44.823C151.555 44.1422 150.823 43.447 150.129 42.7186C149.947 42.5282 149.8 42.1648 149.844 41.9167C150.792 36.3926 152.476 31.1151 155.161 26.1723C155.459 25.6213 155.831 25.3646 156.433 25.3112C159.057 25.0761 161.681 24.8223 164.306 24.5771Z" fill="#437F01"/>
<path d="M129.016 63.0569C127.964 62.8881 126.934 62.8016 125.947 62.5492C123.722 61.9809 121.646 61.0463 119.772 59.7078C119.436 59.4684 119.137 59.1164 118.938 58.7515C116.493 54.2717 115.192 49.4255 114.42 44.4177C114.376 44.1379 114.461 43.7874 114.604 43.5365C116.04 41.011 117.865 38.8042 120.08 36.9191C120.468 36.5888 120.727 36.534 121.066 36.984C123.872 40.7239 126.695 44.4509 129.499 48.1923C129.629 48.3668 129.694 48.638 129.685 48.8601C129.507 53.438 129.313 58.016 129.12 62.5924C129.119 62.6848 129.081 62.7756 129.016 63.0569Z" fill="#437F01"/>
<path d="M150.979 -1.33138C149.127 1.21 147.401 3.57108 145.685 5.93793C144.883 7.04564 144.113 8.17642 143.302 9.27691C143.13 9.50768 142.862 9.7298 142.592 9.81778C137.99 11.3178 133.382 12.7962 128.774 14.2803C128.528 14.3597 128.282 14.4491 128.008 14.5428C127.922 14.3899 127.831 14.2774 127.789 14.1505C127.066 11.9769 126.803 9.75432 127.158 7.48122C127.21 7.14948 127.374 6.77448 127.609 6.54371C131.568 2.64078 136.111 -0.386653 141.264 -2.47946C141.628 -2.62658 142.059 -2.63956 142.461 -2.65254C144.572 -2.72177 146.691 -2.82274 148.749 -2.22129C149.493 -2.00494 150.195 -1.65013 150.979 -1.33138Z" fill="#437F01"/>
<path d="M174.579 76.7833C173.676 78.1708 172.555 79.29 171.282 80.2824C169.598 81.5949 167.654 82.1199 165.585 82.4603C160.627 83.2766 155.694 83.1209 150.763 82.3002C150.45 82.2483 150.114 82.1011 149.872 81.8992C148.471 80.7295 147.528 79.2583 147.052 77.4857C146.912 76.965 147.013 76.7443 147.585 76.5972C152.342 75.3684 157.087 74.0948 161.839 72.8501C162.146 72.7693 162.517 72.7159 162.805 72.8097C166.613 74.0486 170.411 75.315 174.21 76.5785C174.317 76.6131 174.413 76.6895 174.579 76.7833Z" fill="#437F01"/>
<path d="M143.097 12.4933C143.204 12.5841 143.381 12.6966 143.508 12.8495C146.475 16.4323 149.432 20.0236 152.404 23.602C152.74 24.0073 152.77 24.3448 152.54 24.8266C150.076 29.9713 148.168 35.3137 146.976 40.8984C146.86 41.4378 146.627 41.6989 146.096 41.8561C141.478 43.2306 136.867 44.6297 132.256 46.0331C131.871 46.1499 131.605 46.1557 131.329 45.7908C128.482 42.022 125.622 38.2618 122.755 34.5075C122.422 34.0719 122.334 33.655 122.469 33.1113C123.758 27.9333 125.438 22.8895 127.618 18.0203C127.782 17.6539 128.172 17.2544 128.542 17.1332C133.257 15.5914 137.987 14.0971 142.715 12.5914C142.806 12.5625 142.9 12.5438 143.097 12.4933Z" fill="#437F01"/>
<path d="M131.78 59.8331C132.064 56.5115 132.351 53.1912 132.626 49.8696C132.668 49.3575 132.776 48.9869 133.37 48.8181C137.888 47.5301 142.399 46.2176 146.906 44.8907C147.529 44.7075 147.964 44.8387 148.447 45.2671C151.768 48.2109 155.058 51.1951 158.774 53.6484C159.712 54.2686 160.691 54.8369 161.695 55.3446C162.178 55.5898 162.383 55.8696 162.348 56.3889C162.149 59.3788 161.985 62.3702 161.755 65.3572C161.646 66.7909 161.408 68.2145 161.259 69.6452C161.209 70.1313 161.046 70.4212 160.534 70.5525C155.707 71.7914 150.887 73.0592 146.055 74.2766C145.733 74.3573 145.252 74.1713 144.958 73.9549C141.035 71.0746 137.16 68.1265 133.205 65.2909C132.041 64.4572 131.487 63.563 131.737 62.1365C131.868 61.3865 131.823 60.6062 131.858 59.8389C131.832 59.8375 131.806 59.836 131.78 59.8331Z" fill="#437F01"/>
<path d="M160.475 -0.829437C163.727 -0.585685 166.978 -0.357797 170.226 -0.0808711C170.585 -0.0505823 171.014 0.175862 171.254 0.448461C174.304 3.89994 177.319 7.38171 180.361 10.8404C180.698 11.2226 180.684 11.5212 180.429 11.9164C178.195 15.3837 175.976 18.8626 173.731 22.3227C173.623 22.49 173.292 22.6444 173.104 22.6069C167.487 21.4819 161.838 21.7112 156.185 22.19C155.541 22.2449 155.12 22.1107 154.707 21.6045C151.836 18.0953 148.942 14.6049 146.043 11.1188C145.734 10.7481 145.695 10.4769 145.992 10.0601C148.351 6.73266 150.69 3.39224 153.017 0.0431685C153.323 -0.39674 153.674 -0.591454 154.206 -0.587127C156.293 -0.571261 158.379 -0.579915 160.467 -0.579915C160.468 -0.665012 160.472 -0.747225 160.475 -0.829437Z" fill="#437F01"/>
<path d="M164.19 68.8896C164.603 64.8569 165.026 60.8241 165.419 56.7885C165.489 56.0832 165.75 55.6491 166.407 55.2928C171.322 52.6274 175.862 49.4298 179.915 45.5658C180.251 45.2456 180.56 45.1215 181.001 45.2917C184.692 46.7139 188.383 48.1302 192.08 49.5379C192.521 49.7052 192.549 50.011 192.502 50.3976C192.139 53.4466 191.794 56.4971 191.417 59.5433C191.236 60.9958 191.013 62.4424 190.772 63.8847C190.726 64.1645 190.583 64.5093 190.37 64.6679C186.574 67.4776 182.741 70.241 178.957 73.0666C177.247 74.343 175.606 74.6488 173.534 73.7589C170.832 72.5992 167.967 71.8233 165.187 70.8411C163.917 70.3925 164.136 70.5526 164.218 69.3266C164.229 69.1824 164.243 69.0396 164.256 68.8968C164.234 68.8939 164.213 68.8925 164.19 68.8896Z" fill="#437F01"/>
<path d="M200.045 35.5374C199.988 35.709 199.938 36.0494 199.776 36.3263C197.85 39.6437 195.901 42.948 193.975 46.2654C193.722 46.6995 193.47 46.799 192.99 46.6144C189.254 45.1692 185.507 43.7528 181.774 42.299C181.548 42.211 181.304 41.8879 181.264 41.6413C180.325 35.9008 178.567 30.4085 176.321 25.0574C176.224 24.8267 176.258 24.4401 176.392 24.2267C178.598 20.7117 180.837 17.2184 183.046 13.7064C183.299 13.3025 183.592 13.3732 183.905 13.4886C185.949 14.2472 188.023 14.9439 190.02 15.8122C191.665 16.5275 193.226 17.4377 194.805 18.2987C195.093 18.4559 195.385 18.7531 195.506 19.0545C197.5 24.0074 199.19 29.0498 199.909 34.3705C199.954 34.7037 199.987 35.0383 200.045 35.5374Z" fill="#437F01"/>
<path d="M194.815 15.3895C194.585 15.3246 194.448 15.3015 194.324 15.2496C190.929 13.8015 187.532 12.3549 184.142 10.8909C183.847 10.764 183.545 10.5722 183.338 10.3327C180.162 6.67357 177 3.00286 173.835 -0.666415C173.743 -0.773147 173.658 -0.88709 173.57 -0.995264C174.559 -1.93854 176.426 -2.28614 177.592 -1.71931C183.929 1.36005 189.35 5.59038 193.677 11.1751C194.042 11.6467 194.287 12.2582 194.433 12.8424C194.634 13.6458 194.688 14.4866 194.815 15.3895Z" fill="#437F01"/>
<path d="M193.331 63.5545C193.559 62.1713 193.816 60.9049 193.967 59.6256C194.368 56.2188 194.718 52.8063 195.101 49.3981C195.131 49.1226 195.194 48.8255 195.333 48.5918C197.383 45.123 199.448 41.6629 201.509 38.2013C201.557 38.1205 201.613 38.0455 201.746 37.8494C202.393 38.748 203.052 39.5629 202.997 40.6864C202.599 48.7851 200.141 56.213 195.69 62.9804C195.536 63.2155 195.184 63.3944 194.894 63.4521C194.414 63.5473 193.91 63.5242 193.331 63.5545Z" fill="#437F01"/>
<path d="M124.39 9.9838C124.543 11.3021 124.643 12.4862 124.827 13.6574C124.926 14.292 125.113 14.9252 125.357 15.5209C125.563 16.0286 125.556 16.4541 125.354 16.9618C123.555 21.482 121.523 25.9345 120.488 30.71C120.046 32.7509 119.232 34.3115 117.547 35.6023C116.222 36.6163 115.21 38.037 114 39.338C114.045 34.0086 114.763 28.796 116.565 23.7753C118.366 18.7603 120.997 14.2012 124.39 9.9838Z" fill="#437F01"/>
<path d="M122.173 64.0434C124.162 64.5497 126.059 65.2045 128.011 65.4742C129.397 65.6646 130.425 66.2242 131.505 67.0305C135.617 70.1012 139.801 73.0767 143.952 76.0955C144.149 76.2397 144.402 76.4546 144.431 76.6638C144.647 78.2215 145.066 79.7013 145.94 81.0585C135.953 78.22 128.233 72.2791 122.173 64.0434Z" fill="#437F01"/>
<path d="M147.807 -4.767C156.269 -6.73721 164.521 -6.3449 172.7 -3.6016C171.816 -3.13862 171.176 -2.33524 169.949 -2.45928C164.381 -3.02035 158.795 -3.179 153.201 -2.8689C152.926 -2.85304 152.632 -2.92371 152.369 -3.01602C150.926 -3.52516 149.49 -4.05449 148.052 -4.5795C147.995 -4.60257 147.949 -4.65738 147.807 -4.767Z" fill="#437F01"/>
<path d="M193.435 66.1175C188.488 72.2214 182.581 76.7676 175.358 79.5758C176.488 78.422 176.987 76.8167 178.518 75.9195C183.057 73.2556 187.279 70.1257 191.242 66.6612C191.871 66.1117 192.524 66.0266 193.435 66.1175Z" fill="#437F01"/>
<path d="M197.305 16.6673C200.491 22.3299 202.361 28.3963 202.898 34.8752C202.817 34.9113 202.738 34.9473 202.657 34.9834C202.442 34.5161 202.155 34.0675 202.024 33.5771C201.113 30.1761 200.301 26.7463 199.319 23.3655C198.798 21.5755 197.988 19.8707 197.341 18.1154C197.181 17.6813 197.151 17.1981 197.06 16.738C197.142 16.7149 197.224 16.6918 197.305 16.6673Z" fill="#437F01"/>
</g>
<path fill-rule="evenodd" clip-rule="evenodd" d="M148 11.9999H166V20.9999H151H148V23.9999V32.9999V35.9999H151H169V32.9999H151V23.9999H166H169V20.9999V11.9999V8.99988H166H151H148V11.9999ZM192 8.99988H195V20.9999V23.9999V35.9999H192V23.9999H177H174V20.9999V8.99988H177V20.9999H192V8.99988Z" fill="white"/>
</g>
</g>
<defs>
<clipPath id="clip0">
<rect width="204" height="45" fill="white" transform="translate(0 -0.00012207)"/>
</clipPath>
<clipPath id="clip1">
<rect width="65" height="45" fill="white" transform="translate(139 -0.00012207)"/>
</clipPath>
<clipPath id="clip2">
<rect width="89" height="89" fill="white" transform="translate(114 -6.00012)"/>
</clipPath>
</defs>
</svg>
