<svg width="65" height="50" viewBox="0 0 65 50" fill="none" xmlns="http://www.w3.org/2000/svg">
<path d="M65 0H0V50H65V0Z" fill="#464655"/>
<path d="M38 5H35V14H38V5Z" fill="white"/>
<path d="M47 11H35V14H47V11Z" fill="white"/>
<path d="M47 5H44.001V20H47V5Z" fill="white"/>
<path d="M21 11H18V20H21V11Z" fill="white"/>
<path d="M30 11H18V14H30V11Z" fill="white"/>
<path d="M30 17H18V20H30V17Z" fill="white"/>
<path d="M27 5H18V8H27V5Z" fill="white"/>
<path d="M30 5H27V14H30V5Z" fill="white"/>
<path d="M65 25H0V50H65V25Z" fill="#FC4842"/>
<path d="M38 31H35V44H38V31Z" fill="white"/>
<path d="M47 41H35V44H47V41Z" fill="white"/>
<path d="M47.001 31H44.001V44H47.001V31Z" fill="white"/>
<path d="M13.999 36H11V39H13.999V36Z" fill="white"/>
<path d="M21 31H18V44H21V31Z" fill="white"/>
<path d="M27 36H21V39H27V36Z" fill="white"/>
<path d="M30 31H27V44H30V31Z" fill="white"/>
</svg>
