<svg width="59" height="45" viewBox="0 0 59 45" fill="none" xmlns="http://www.w3.org/2000/svg">
<path d="M59 0H0V45H59V0Z" fill="#4F4F54"/>
<path d="M34.4923 4.5H31.7692V12.6H34.4923V4.5Z" fill="#23232B"/>
<path d="M42.6615 9.90002H31.7692V12.6H42.6615V9.90002Z" fill="#23232B"/>
<path d="M42.6615 4.5H39.9393V18H42.6615V4.5Z" fill="#23232B"/>
<path d="M19.0615 9.90002H16.3384V18H19.0615V9.90002Z" fill="#23232B"/>
<path d="M27.2307 9.90002H16.3384V12.6H27.2307V9.90002Z" fill="#23232B"/>
<path d="M27.2307 15.3H16.3384V18H27.2307V15.3Z" fill="#23232B"/>
<path d="M24.5077 4.5H16.3384V7.2H24.5077V4.5Z" fill="#23232B"/>
<path d="M27.2308 4.5H24.5077V12.6H27.2308V4.5Z" fill="#23232B"/>
<path d="M59 22.5H0V45H59V22.5Z" fill="#717176"/>
<path d="M34.4923 27.9H31.7692V39.6H34.4923V27.9Z" fill="#23232B"/>
<path d="M42.6615 36.9H31.7692V39.6H42.6615V36.9Z" fill="#23232B"/>
<path d="M42.6624 27.9H39.9393V39.6H42.6624V27.9Z" fill="#23232B"/>
<path d="M12.7068 32.4H9.98462V35.1H12.7068V32.4Z" fill="#23232B"/>
<path d="M19.0615 27.9H16.3384V39.6H19.0615V27.9Z" fill="#23232B"/>
<path d="M24.5077 32.4H19.0615V35.1H24.5077V32.4Z" fill="#23232B"/>
<path d="M27.2308 27.9H24.5077V39.6H27.2308V27.9Z" fill="#23232B"/>
</svg>
