<svg width="26" height="24" viewBox="0 0 26 24" fill="none" xmlns="http://www.w3.org/2000/svg">
<path d="M16.2337 11.8106C16.8339 11.8106 16.6624 17.6178 17.2912 17.6178C17.92 17.6178 17.6627 14.3635 18.463 14.3635C19.2633 14.3635 19.0632 20.0584 19.7777 20.0584C20.4922 20.0584 20.5494 13.045 21.2925 13.045C22.0356 13.045 21.8355 16.0748 22.5214 16.0748C23.2074 16.0748 23.1216 11.7826 24.2648 11.7545C24.3506 11.7545 24.4649 11.7545 24.5506 11.7545C25.2366 11.7265 25.6367 11.7265 25.6367 11.7265C25.6939 11.7265 25.7224 11.6984 25.7224 11.6984C25.7224 11.6704 25.6939 11.6423 25.6367 11.6423C25.6367 11.6423 25.2366 11.6143 24.5506 11.6143C24.4649 11.6143 24.3792 11.6143 24.2934 11.6143C23.1502 11.6143 23.2074 7.26593 22.55 7.26593C21.8641 7.26593 22.0641 10.2957 21.3211 10.2957C20.578 10.2957 20.5494 3.28229 19.8063 3.28229C19.0918 3.28229 19.2918 8.97721 18.4916 8.97721C17.6913 8.97721 17.9486 5.72297 17.3198 5.72297C16.691 5.72297 16.8339 11.5301 16.2623 11.5301C15.2906 11.5301 15.3477 7.93922 14.8047 7.93922C14.2331 7.93922 14.4046 11.474 13.8044 11.502C13.49 11.502 12.3468 11.502 12.3468 11.502C11.3179 11.502 11.2321 5.89129 10.6605 5.89129C10.0889 5.89129 10.1175 8.1917 9.5173 8.1917C8.91711 8.1917 8.94569 2.72122 8.31692 2.72122C7.68815 2.72122 7.94538 5.38632 7.14512 5.38632C6.34487 5.38632 6.54493 0 5.80184 0C5.08733 0 5.03017 9.39801 4.28707 9.39801C3.54398 9.39801 3.88695 4.8533 3.20102 4.8533C2.51508 4.8533 2.60083 11.5582 1.45761 11.5862C1.37186 11.5862 1.28612 11.5862 1.20038 11.5862C0.514449 11.6143 0.114322 11.6143 0.114322 11.6143C0.057161 11.6143 0 11.6423 0 11.6704C0 11.6984 0.0285806 11.7265 0.0857415 11.7265C0.0857415 11.7265 0.485869 11.7545 1.1718 11.7545C1.25754 11.7545 1.34328 11.7545 1.45761 11.7545C2.60083 11.7826 2.51508 18.4874 3.20102 18.4874C3.88695 18.4874 3.54398 13.9427 4.28707 13.9427C5.03017 13.9427 5.05875 23.3407 5.80184 23.3407C6.51635 23.3407 6.31629 17.9264 7.11654 17.9264C7.9168 17.9264 7.65957 20.5915 8.28834 20.5915C8.91712 20.5915 8.88853 15.121 9.48872 15.121C10.0889 15.121 10.0603 17.4214 10.6319 17.4214C11.2036 17.4214 11.2893 11.8106 12.3182 11.8106C12.4897 11.8106 13.49 11.8106 13.7758 11.8106C14.376 11.8667 14.2045 15.3735 14.7761 15.3735C15.3477 15.4015 15.2906 11.8106 16.2337 11.8106Z" fill="#666666"/>
</svg>
