<svg width="113" height="113" viewBox="0 0 113 113" fill="none" xmlns="http://www.w3.org/2000/svg">
    <path d="M63.8717 38.8228C67.4249 38.9217 70.9598 38.9748 74.3812 40.0241C74.8772 40.1761 75.4118 40.5735 75.6919 41.0093C77.9343 44.5125 79.3512 48.3728 80.2537 52.4034C80.8908 55.2492 81.3081 58.1481 81.7402 61.036C81.8079 61.4884 81.5663 62.1275 81.2459 62.4754C76.393 67.7366 70.6504 71.7892 64.1774 74.8072C63.8186 74.9738 63.2182 74.8914 62.841 74.7028C57.5634 72.0694 52.9503 68.4948 48.6246 64.5283C47.6818 63.6639 46.7519 62.7812 45.8714 61.8564C45.6407 61.6147 45.454 61.1532 45.5089 60.8383C46.7135 53.8245 48.8516 47.1239 52.2602 40.8481C52.6391 40.1486 53.1114 39.8226 53.8748 39.7549C57.2065 39.4564 60.5382 39.1341 63.8717 38.8228Z" fill="#437F01"/>
    <path d="M19.0657 87.6792C17.7293 87.4649 16.4223 87.355 15.1683 87.0346C12.3437 86.3131 9.70765 85.1264 7.32787 83.427C6.90134 83.123 6.52241 82.6762 6.26979 82.2128C3.16509 76.5249 1.51389 70.3719 0.532685 64.0137C0.477767 63.6585 0.585772 63.2135 0.767002 62.8948C2.59028 59.6883 4.90782 56.8864 7.71962 54.493C8.21205 54.0736 8.54156 54.004 8.97175 54.5754C12.5341 59.3238 16.1184 64.0558 19.6789 68.8061C19.8437 69.0277 19.9261 69.372 19.9151 69.654C19.6881 75.4665 19.4428 81.2789 19.1975 87.0895C19.1957 87.2067 19.1481 87.3221 19.0657 87.6792Z" fill="#437F01"/>
    <path d="M46.951 5.92774C44.5987 9.15443 42.4075 12.1522 40.2291 15.1573C39.2113 16.5637 38.2337 17.9994 37.2031 19.3967C36.9852 19.6897 36.6448 19.9717 36.3024 20.0834C30.4592 21.9879 24.6086 23.865 18.758 25.7494C18.4449 25.8501 18.1337 25.9636 17.7859 26.0826C17.6761 25.8885 17.5608 25.7457 17.5077 25.5845C16.5887 22.8248 16.2555 20.0028 16.7059 17.1168C16.7718 16.6956 16.9805 16.2195 17.2788 15.9264C22.3057 10.971 28.0739 7.12722 34.6165 4.47005C35.0778 4.28326 35.6251 4.26678 36.1359 4.2503C38.8158 4.1624 41.5068 4.03421 44.1191 4.79785C45.0637 5.07254 45.9552 5.52303 46.951 5.92774Z" fill="#437F01"/>
    <path d="M76.9145 105.107C75.7685 106.869 74.3443 108.29 72.7279 109.55C70.5897 111.216 68.1221 111.883 65.4952 112.315C59.1997 113.351 52.9373 113.154 46.6766 112.112C46.2794 112.046 45.8528 111.859 45.5453 111.603C43.7659 110.117 42.5687 108.25 41.9646 105.999C41.7871 105.338 41.9152 105.058 42.642 104.871C48.6811 103.311 54.7056 101.694 60.7393 100.113C61.1292 100.011 61.5997 99.9429 61.9658 100.062C66.8004 101.635 71.6222 103.243 76.4458 104.847C76.5813 104.891 76.7039 104.988 76.9145 105.107Z" fill="#437F01"/>
    <path d="M36.9434 23.4804C37.0788 23.5958 37.304 23.7386 37.4651 23.9327C41.2325 28.4816 44.987 33.0414 48.7599 37.5848C49.1864 38.0994 49.2249 38.5279 48.932 39.1396C45.8035 45.6717 43.3816 52.4547 41.8677 59.5454C41.7212 60.2303 41.4247 60.5617 40.751 60.7613C34.8876 62.5065 29.0333 64.2828 23.1791 66.0647C22.6903 66.213 22.3516 66.2203 22.002 65.757C18.3866 60.9719 14.7565 56.1978 11.1154 51.431C10.6926 50.878 10.5809 50.3487 10.753 49.6584C12.3895 43.0841 14.5222 36.6802 17.29 30.4978C17.4987 30.0327 17.993 29.5254 18.4634 29.3716C24.4495 27.414 30.4557 25.5168 36.4583 23.6049C36.5736 23.5683 36.6926 23.5445 36.9434 23.4804Z" fill="#437F01"/>
    <path d="M22.5746 83.5861C22.9352 79.3687 23.2995 75.1531 23.6492 70.9357C23.7023 70.2856 23.8396 69.815 24.5938 69.6007C30.329 67.9654 36.057 66.299 41.7794 64.6142C42.5703 64.3816 43.1231 64.5483 43.7364 65.0922C47.9522 68.8298 52.1296 72.6187 56.8471 75.7336C58.0388 76.5211 59.2818 77.2426 60.5559 77.8872C61.1691 78.1985 61.4291 78.5538 61.3852 79.213C61.1325 83.0093 60.9239 86.8073 60.6328 90.5999C60.4937 92.4201 60.1916 94.2276 60.0031 96.0442C59.939 96.6613 59.7321 97.0294 59.0823 97.1961C52.9534 98.7691 46.8337 100.379 40.6994 101.924C40.2893 102.027 39.6797 101.791 39.3063 101.516C34.3252 97.859 29.4046 94.1159 24.3832 90.5156C22.906 89.4571 22.203 88.3218 22.5197 86.5106C22.6863 85.5584 22.6295 84.5677 22.6735 83.5934C22.6405 83.5916 22.6076 83.5898 22.5746 83.5861Z" fill="#437F01"/>
    <path d="M59.0077 6.56503C63.1357 6.87452 67.2637 7.16386 71.388 7.51546C71.8438 7.55392 72.3875 7.84142 72.6932 8.18753C76.5649 12.5698 80.3927 16.9904 84.2553 21.3818C84.6836 21.8671 84.6653 22.2462 84.3413 22.7479C81.5057 27.1503 78.6884 31.5673 75.8382 35.9605C75.7009 36.1729 75.2799 36.3689 75.0419 36.3213C67.9099 34.8929 60.7376 35.1841 53.5598 35.792C52.7433 35.8616 52.2088 35.6913 51.6834 35.0485C48.0387 30.5931 44.3647 26.1614 40.6834 21.7352C40.2916 21.2646 40.2422 20.9203 40.6193 20.3911C43.6141 16.1664 46.5834 11.9251 49.538 7.67295C49.926 7.11441 50.3727 6.86719 51.0482 6.87269C53.6971 6.89283 56.346 6.88184 58.9967 6.88184C58.9985 6.7738 59.004 6.66941 59.0077 6.56503Z" fill="#437F01"/>
    <path d="M63.7235 95.0848C64.2488 89.9646 64.7852 84.8443 65.285 79.7204C65.3728 78.825 65.7042 78.2737 66.5389 77.8214C72.7794 74.4372 78.544 70.3773 83.6898 65.4714C84.1163 65.0648 84.5081 64.9073 85.0682 65.1234C89.7546 66.9291 94.4409 68.7274 99.1346 70.5147C99.6947 70.7271 99.7295 71.1153 99.6709 71.6061C99.2096 75.4774 98.7721 79.3505 98.2925 83.2182C98.0637 85.0623 97.7799 86.899 97.4742 88.7303C97.4156 89.0855 97.2344 89.5232 96.9635 89.7247C92.1435 93.292 87.2778 96.8007 82.4724 100.388C80.3014 102.009 78.2181 102.397 75.5876 101.267C72.157 99.7948 68.5196 98.8096 64.9902 97.5625C63.3775 96.993 63.6557 97.1962 63.7601 95.6396C63.7729 95.4565 63.7912 95.2752 63.8077 95.0939C63.7802 95.0903 63.7527 95.0884 63.7235 95.0848Z" fill="#437F01"/>
    <path d="M109.247 52.7387C109.175 52.9566 109.111 53.3888 108.906 53.7404C106.461 57.9523 103.986 62.1477 101.54 66.3596C101.22 66.9108 100.899 67.0372 100.29 66.8028C95.5466 64.9679 90.7889 63.1695 86.0495 61.3236C85.7621 61.2119 85.4527 60.8017 85.4014 60.4886C84.2097 53.2001 81.9782 46.2267 79.1261 39.4327C79.0035 39.1397 79.0456 38.6489 79.2158 38.3779C82.0167 33.9151 84.8596 29.4797 87.6641 25.0206C87.9862 24.5079 88.3579 24.5976 88.7551 24.7441C91.3509 25.7073 93.9833 26.5918 96.5187 27.6943C98.6074 28.6026 100.59 29.7581 102.594 30.8514C102.961 31.051 103.33 31.4282 103.484 31.811C106.016 38.0995 108.161 44.5016 109.075 51.2572C109.132 51.6802 109.174 52.105 109.247 52.7387Z" fill="#437F01"/>
    <path d="M102.607 27.1577C102.316 27.0753 102.142 27.046 101.984 26.98C97.6733 25.1414 93.3604 23.3047 89.0566 21.446C88.6814 21.2848 88.2988 21.0412 88.0352 20.7373C84.0024 16.0913 79.9879 11.4308 75.9697 6.77202C75.8525 6.6365 75.7445 6.49183 75.6329 6.35449C76.8887 5.15684 79.2593 4.7155 80.7402 5.43519C88.7857 9.34495 95.6688 14.7161 101.162 21.8067C101.626 22.4055 101.937 23.182 102.122 23.9237C102.378 24.9437 102.446 26.0113 102.607 27.1577Z" fill="#437F01"/>
    <path d="M100.724 88.311C101.013 86.5548 101.339 84.9469 101.531 83.3226C102.04 78.9972 102.485 74.6644 102.97 70.3371C103.008 69.9873 103.089 69.6101 103.264 69.3134C105.868 64.9092 108.489 60.516 111.107 56.121C111.167 56.0184 111.239 55.9232 111.407 55.6741C112.229 56.815 113.066 57.8497 112.996 59.2762C112.491 69.5588 109.37 78.9898 103.718 87.5821C103.523 87.8806 103.076 88.1077 102.708 88.181C102.098 88.3018 101.458 88.2725 100.724 88.311Z" fill="#437F01"/>
    <path d="M13.1913 20.2942C13.3853 21.968 13.5135 23.4715 13.746 24.9584C13.8723 25.7642 14.1103 26.5681 14.4196 27.3244C14.6814 27.969 14.6723 28.5093 14.416 29.1539C12.1314 34.8931 9.55207 40.5462 8.2377 46.6095C7.67571 49.2007 6.64325 51.1822 4.50328 52.8212C2.82095 54.1085 1.53587 55.9123 0 57.5641C0.0567486 50.7976 0.968388 44.1794 3.25664 37.8048C5.54306 31.4375 8.8839 25.6488 13.1913 20.2942Z" fill="#437F01"/>
    <path d="M10.3773 88.9318C12.9017 89.5746 15.3108 90.406 17.7894 90.7484C19.5486 90.9901 20.8539 91.7007 22.225 92.7243C27.4459 96.6231 32.7583 100.401 38.0286 104.234C38.2793 104.417 38.5997 104.69 38.6363 104.955C38.9109 106.933 39.4436 108.812 40.5529 110.535C27.8724 106.931 18.0714 99.3883 10.3773 88.9318Z" fill="#437F01"/>
    <path d="M42.9236 1.56565C53.6673 -0.935857 64.1439 -0.437753 74.5289 3.04532C73.4067 3.63315 72.5939 4.65317 71.0361 4.49568C63.9663 3.78332 56.8746 3.58188 49.7718 3.9756C49.4222 3.99574 49.0487 3.90601 48.7156 3.78881C46.8831 3.14237 45.0599 2.4703 43.2348 1.80372C43.1615 1.77442 43.103 1.70483 42.9236 1.56565Z" fill="#437F01"/>
    <path d="M100.855 91.5651C94.5746 99.3151 87.0746 105.087 77.9033 108.653C79.3385 107.188 79.9719 105.149 81.916 104.01C87.6787 100.628 93.0387 96.6542 98.0711 92.2555C98.8692 91.5578 99.6985 91.4498 100.855 91.5651Z" fill="#437F01"/>
    <path d="M105.768 28.78C109.814 35.9696 112.188 43.6719 112.869 51.8979C112.767 51.9437 112.666 51.9895 112.563 52.0353C112.291 51.4419 111.926 50.8724 111.76 50.2498C110.603 45.9317 109.572 41.5769 108.326 37.2844C107.665 35.0118 106.636 32.8473 105.814 30.6186C105.611 30.0674 105.572 29.4539 105.457 28.8698C105.561 28.8405 105.666 28.8112 105.768 28.78Z" fill="#437F01"/>
</svg>
