<svg width="20" height="22" viewBox="0 0 20 22" fill="none" xmlns="http://www.w3.org/2000/svg">
<path d="M18.75 3.90596L10.75 0.623107C10.5417 0.541036 10.2083 0.5 10 0.5C9.75 0.5 9.41667 0.541036 9.20833 0.623107L1.20833 3.90596C0.458333 4.23425 0 4.93185 0 5.71153C0 13.8776 4.75 19.4995 9.20833 21.3461C9.70833 21.5513 10.25 21.5513 10.75 21.3461C14.3333 19.8688 20 14.8214 20 5.71153C20 4.93185 19.5 4.23425 18.75 3.90596ZM10 18.8019V3.16732L17.2917 6.16292C17.1667 12.3593 13.875 16.8732 10 18.8019Z" fill="#E1E1E4"/>
</svg>
