<svg xmlns="http://www.w3.org/2000/svg" viewBox="0 0 40 40"><switch><g><path fill="#FFF" d="M31 28.9l-5.9-6c2.5-3.6 2.2-8.6-1-11.9-1.7-1.7-4-2.7-6.4-2.7-2.4 0-4.7 1-6.4 2.7-3.5 3.6-3.5 9.5 0 13.1 1.7 1.7 4 2.7 6.4 2.7 1.9 0 3.7-.6 5.2-1.7l5.9 6c.3.3.7.5 1.1.5.4 0 .8-.2 1.1-.5.6-.5.6-1.5 0-2.2zm-7.5-8.2c-.1.1-.1.3-.2.4-.2.2-.3.5-.5.7-.1.2-.3.3-.5.5-.3.3-.7.6-1 .9-.1 0-.1.1-.2.1-1.1.7-2.3 1-3.5 1-1.3 0-2.5-.4-3.6-1.1-.4-.2-.7-.5-1-.9l-.5-.5c-.3-.4-.5-.7-.7-1.1-.5-1-.8-2-.8-3.1s.3-2.1.8-3.1c.3-.6.7-1.1 1.2-1.6 1.3-1.3 3-2 4.7-2 1.7 0 3.4.7 4.7 2 .5.5.9 1 1.2 1.6.5 1 .8 2 .8 3.1-.2 1.1-.4 2.2-.9 3.1z"/></g></switch></svg>