<svg width="32" height="41" viewBox="0 0 32 41" fill="none" xmlns="http://www.w3.org/2000/svg">
<path d="M26.879 15.4291C20.1506 7.99792 18.6222 2.21826 18.6222 2.21826C18.6222 2.21826 17.4569 2.73829 16.1451 3.92975L14.4938 22.8603L16.1451 39.0385H16.1452C24.2608 39.0385 30.8398 32.4595 30.8398 24.344C30.8397 20.9918 28.9676 17.736 26.879 15.4291Z" fill="#FF6200"/>
<path d="M13.6675 7.17261C12.8258 8.856 12.6276 10.7539 12.6356 12.2103C12.6434 13.6232 11.6481 14.8425 10.2627 15.1196C9.2948 15.3132 8.29423 15.0102 7.59624 14.3122L6.23634 12.9523C6.23634 12.9523 4.22033 15.7321 3.87486 16.2551C2.32306 18.6041 1.42777 21.4249 1.45037 24.4561C1.51059 32.5515 8.04892 39.0388 16.1445 39.0388V3.92999C15.2865 4.70933 14.3659 5.77586 13.6675 7.17261Z" fill="#FD7D21"/>
<path d="M27.7391 14.6498C24.3818 10.9418 22.3866 7.67756 21.3039 5.59212C20.1313 3.33328 19.7471 1.93259 19.7441 1.92144L19.3951 0.601868L18.1485 1.15789C18.0775 1.18955 17.2242 1.57852 16.1444 2.41484L15.3187 3.86964L16.1444 5.58167C16.7897 4.85783 17.4553 4.31675 17.9905 3.94217C18.8638 6.16347 21.0776 10.7526 26.0176 16.2086C27.1182 17.4241 29.6779 20.65 29.6779 24.3441C29.6779 31.8064 23.6068 37.8775 16.1445 37.8775H16.1444L15.3187 39.3741L16.1444 40.1998H16.1445C24.8873 40.1997 32.0001 33.0869 32.0001 24.3441C32.0002 21.1741 30.4471 17.6407 27.7391 14.6498Z" fill="#FFB62D"/>
<path d="M6.60235 33.9588C4.05578 31.4317 2.6386 28.0537 2.61174 24.4472C2.59162 21.7474 3.36353 19.1358 4.84395 16.8949C5.0247 16.6213 5.74978 15.6098 6.37918 14.7368L6.77543 15.1331C7.75015 16.1078 9.13869 16.5284 10.4907 16.258C12.4172 15.8726 13.8078 14.1677 13.797 12.2037C13.7903 10.9884 13.9426 9.21905 14.7063 7.69164C15.1205 6.86322 15.6261 6.16353 16.1448 5.58166V2.41475C15.0075 3.29573 13.6191 4.67312 12.6292 6.65306C11.6604 8.59066 11.4667 10.7479 11.4748 12.2164C11.4795 13.0709 10.874 13.813 10.0352 13.9807C9.44701 14.0982 8.84199 13.9154 8.41748 13.4909L6.09548 11.1689L5.29671 12.2703C5.21381 12.3846 3.26174 15.0768 2.90636 15.6147C1.17095 18.2417 0.266053 21.3019 0.289507 24.4644C0.320935 28.6881 1.98195 32.6453 4.96657 35.6071C7.95095 38.5686 11.9208 40.1996 16.1448 40.1996V37.8774C12.5377 37.8774 9.14883 36.4857 6.60235 33.9588Z" fill="#FDCB02"/>
<path d="M16.1451 16.551C16.1365 16.551 16.1279 16.5513 16.1193 16.5513L14.1843 25.6335L16.1193 34.7157C16.1279 34.7157 16.1365 34.716 16.1451 34.716C21.1612 34.716 25.2276 30.6496 25.2276 25.6335C25.2276 20.6174 21.1612 16.551 16.1451 16.551Z" fill="#ED3800"/>
<path d="M7.0625 25.6342C7.0625 30.6418 11.115 34.7025 16.1192 34.7164V16.5521C11.115 16.566 7.0625 20.6267 7.0625 25.6342Z" fill="#FF4B00"/>
<path d="M21.0732 20.3023H18.499L16.1198 23.7865L15.3199 26.9887L16.1198 27.5563L21.0732 20.3023Z" fill="#D9E7EC"/>
<path d="M20.0523 25.1766C18.4377 25.1766 17.2191 26.258 17.2191 28.1469C17.2191 30.0509 18.4377 31.1171 20.0523 31.1171C21.667 31.1171 22.8855 30.0509 22.8855 28.1469C22.8855 26.258 21.6669 25.1766 20.0523 25.1766ZM20.0523 29.472C19.7172 29.472 19.3821 29.1673 19.3821 28.1468C19.3821 27.1262 19.7172 26.8216 20.0523 26.8216C20.3874 26.8216 20.7225 27.1262 20.7225 28.1468C20.7225 29.1673 20.3874 29.472 20.0523 29.472Z" fill="#D9E7EC"/>
<path d="M13.7917 30.9647L16.1193 27.5562V23.7863L11.2175 30.9647H13.7917Z" fill="#FAFCFD"/>
<path d="M15.0711 23.1202C15.0711 21.2314 13.8525 20.1499 12.2379 20.1499C10.6232 20.1499 9.40466 21.2314 9.40466 23.1202C9.40466 25.0242 10.6232 26.0905 12.2379 26.0905C13.8525 26.0905 15.0711 25.0242 15.0711 23.1202ZM11.5677 23.1202C11.5677 22.0997 11.9028 21.795 12.2379 21.795C12.573 21.795 12.9081 22.0997 12.9081 23.1202C12.9081 24.1407 12.573 24.4454 12.2379 24.4454C11.9028 24.4454 11.5677 24.1407 11.5677 23.1202Z" fill="#FAFCFD"/>
</svg>
