<svg width="141" height="53" viewBox="0 0 141 53" fill="none" xmlns="http://www.w3.org/2000/svg">
<path d="M11.086 52.021C16.387 52.021 18.95 49.632 21.339 43.283L33.339 11.301H24.135L17.319 32.564L10.212 11.3H0.832031L13.066 42.642C12.308 44.214 11.493 44.681 9.97803 44.681C8.81303 44.681 7.35703 44.156 6.19103 43.456L3.22003 49.864C5.49303 51.205 7.88203 52.021 11.086 52.021ZM47.029 51.963C53.088 51.963 57.573 50.682 60.486 47.77C63.107 45.147 64.447 41.069 64.447 35.477V11.301H55.593V15.379C53.204 12.758 50.35 10.719 45.514 10.719C38.349 10.719 31.65 15.962 31.65 25.282V25.399C31.65 34.661 38.233 39.963 45.514 39.963C50.233 39.963 53.088 38.039 55.709 34.895V36.409C55.709 42.003 52.855 44.915 46.796 44.915C42.66 44.915 39.456 43.866 36.252 42.061L33.223 48.702C37.184 50.797 41.961 51.963 47.029 51.963ZM48.078 32.623C43.767 32.623 40.504 29.709 40.504 25.398V25.281C40.504 21.03 43.767 18.059 48.078 18.059C52.388 18.059 55.709 21.03 55.709 25.281V25.398C55.709 29.652 52.388 32.623 48.078 32.623ZM83.088 43.225C88.739 43.225 92.933 41.012 95.846 37.399L90.778 32.915C88.331 35.186 86.176 36.118 83.205 36.118C79.243 36.118 76.447 34.022 75.573 30.001H97.302C97.361 29.187 97.419 28.37 97.419 27.671C97.419 18.817 92.642 10.72 82.214 10.72C73.127 10.72 66.777 18.06 66.777 26.974V27.089C66.777 36.643 73.709 43.225 83.088 43.225ZM75.457 24.467C76.156 20.447 78.544 17.826 82.214 17.826C85.943 17.826 88.273 20.505 88.797 24.467H75.457ZM100.098 7.864H109.419V0H100.098V7.864ZM100.331 42.525H109.186V11.301H100.331V42.525ZM122.292 43.107C126.603 43.107 129.574 41.535 131.73 39.146V42.525H140.293V24.409C140.293 20.214 139.245 16.777 136.914 14.447C134.701 12.233 131.205 10.952 126.37 10.952C121.069 10.952 117.69 11.942 114.253 13.457L116.467 20.214C119.321 19.166 121.71 18.525 125.089 18.525C129.516 18.525 131.788 20.564 131.788 24.234V24.758C129.574 24.001 127.302 23.477 124.157 23.477C116.758 23.477 111.574 26.621 111.574 33.437V33.554C111.574 39.73 116.409 43.107 122.292 43.107ZM124.972 36.992C122.118 36.992 120.137 35.594 120.137 33.205V33.088C120.137 30.291 122.467 28.777 126.254 28.777C128.409 28.777 130.39 29.244 131.905 29.943V31.515C131.905 34.721 129.108 36.992 124.972 36.992Z" fill="#32BCAD"/>
</svg>
