<svg width="36" height="36" viewBox="0 0 36 36" fill="none" xmlns="http://www.w3.org/2000/svg">
<g clip-path="url(#clip0_504_595)">
<circle cx="18" cy="18" r="18" fill="#7B32D8"/>
<path d="M16.6501 8.0306C17.4079 7.98224 18.1656 8.0002 18.9234 8.02323C19.9532 8.05317 20.983 8.1683 21.9904 8.39397C22.9303 8.60583 23.8544 8.92361 24.7021 9.39567C25.325 9.73648 25.8916 10.1993 26.3233 10.775C26.9057 11.5441 27.2767 12.4583 27.5308 13.3886C27.9558 15.0098 28.0434 16.7046 27.9827 18.3764C27.9535 19.1686 27.886 19.9584 27.7961 20.7459C27.6657 21.8605 27.3666 22.9681 26.8045 23.9399C26.4504 24.554 25.9893 25.0965 25.4441 25.5403C25.0282 25.8811 24.5582 26.1528 24.0703 26.367C23.5104 26.6064 22.9213 26.7538 22.3367 26.9127C20.8684 27.265 19.3529 27.4009 17.8463 27.3894C17.3494 27.3825 16.8525 27.3617 16.3556 27.318C15.8654 27.9029 15.3707 28.4832 14.8715 29.0589C14.6849 29.2661 14.514 29.4918 14.3094 29.6806C14.1385 29.8349 13.9384 29.9754 13.7068 29.9961C13.4392 30.0237 13.1491 29.904 13.0142 29.6576C12.8321 29.3306 12.8254 28.9437 12.8299 28.5799C12.8254 27.9582 12.8456 27.3364 12.8388 26.7147C12.8411 26.6732 12.8029 26.6479 12.7691 26.641C11.9439 26.3923 11.1547 25.9916 10.4914 25.4251C9.94425 24.9542 9.4862 24.3844 9.14001 23.7441C8.62959 22.8161 8.33953 21.7776 8.18213 20.7321C8.14166 20.4558 8.10343 20.1772 8.08544 19.8985C8.06296 19.56 8.02698 19.2238 8.02249 18.8853C8.01799 18.609 8.01124 18.3327 8 18.0563C8.00899 16.8957 8.03148 15.7328 8.20911 14.5861C8.33728 13.7364 8.54864 12.8982 8.89267 12.1129C9.16924 11.4843 9.5335 10.8925 9.99445 10.3859C10.1856 10.1717 10.4059 9.98978 10.633 9.81938C11.4403 9.22066 12.3779 8.8361 13.3335 8.55977C14.4151 8.2535 15.5326 8.09508 16.6501 8.0306ZM14.6714 9.83826C13.799 10.0248 12.9355 10.3034 12.1598 10.7594C11.7506 11.0081 11.3571 11.2982 11.0513 11.6736C10.5588 12.2654 10.2103 12.9746 9.98771 13.7161C9.67966 14.7316 9.57397 15.7978 9.54025 16.857C9.51551 18.2111 9.47054 19.5812 9.73812 20.9145C9.89102 21.6928 10.1518 22.4573 10.5723 23.1274C11.0119 23.83 11.6236 24.4023 12.3464 24.7873C12.6882 24.9738 13.0547 25.1074 13.4257 25.2225C13.4392 25.5034 13.428 25.7867 13.4302 26.0676C13.4347 26.9956 13.4055 27.9259 13.4212 28.8539C13.4235 28.9668 13.4145 29.0865 13.4707 29.1878C13.4833 29.2175 13.504 29.2429 13.5303 29.2608C13.5567 29.2788 13.5875 29.2886 13.6191 29.2891C13.7113 29.2891 13.7922 29.2293 13.8574 29.1671C13.9496 29.0773 14.0351 28.9783 14.1183 28.8839C14.9525 27.9236 15.7417 26.9219 16.5467 25.934C16.5962 25.8765 16.6366 25.8051 16.6996 25.7613C16.794 25.7567 16.8885 25.7682 16.9829 25.7728C18.7727 25.8511 20.5828 25.6946 22.3142 25.2133C22.6357 25.1304 22.9573 25.0475 23.2653 24.9208C23.8882 24.6698 24.4638 24.2876 24.918 23.781C25.4351 23.2145 25.7904 22.5121 26.0198 21.7776C26.2671 20.9877 26.3503 20.1564 26.4178 19.3343C26.4949 18.4417 26.516 17.5448 26.4807 16.6493C26.4245 15.5279 26.2806 14.3996 25.9141 13.338C25.669 12.6333 25.3272 11.9448 24.8056 11.4129C24.529 11.1227 24.1917 10.904 23.8432 10.7151C23.1169 10.3329 22.3344 10.075 21.5384 9.89767C20.5041 9.6697 19.4428 9.57528 18.386 9.56607C17.1425 9.51357 15.8901 9.58496 14.6714 9.83826Z" fill="white"/>
<path d="M17.8059 11.9379C18.0802 11.9218 18.3568 11.9517 18.6288 11.984C19.4563 12.0945 20.2658 12.3823 20.9606 12.8567C21.6419 13.315 22.2017 13.9528 22.5975 14.6805C23.1147 15.6361 23.353 16.7368 23.3665 17.8237C23.3642 17.9089 23.3777 18.0011 23.3283 18.077C23.2383 18.2198 23.018 18.2475 22.8988 18.1277C22.8223 18.0563 22.8201 17.9458 22.8178 17.8491C22.8066 16.8842 22.611 15.9102 22.1703 15.0535C21.8014 14.3278 21.2503 13.7157 20.5738 13.2804C19.7936 12.7784 18.8739 12.5228 17.9565 12.5067C17.8598 12.5021 17.7452 12.509 17.671 12.4307C17.5225 12.2833 17.59 11.966 17.8059 11.9379Z" fill="white"/>
<path d="M14.1183 12.5827C14.3813 12.5159 14.6669 12.6333 14.8355 12.8429C15.229 13.338 15.6248 13.8308 15.9418 14.3811C16.0655 14.6022 16.2184 14.8094 16.2904 15.0558C16.3691 15.3552 16.3106 15.7098 16.088 15.9309C15.9148 16.0921 15.7237 16.2325 15.5461 16.3891C15.3774 16.5342 15.3145 16.776 15.3437 16.9925C15.3685 17.126 15.4224 17.2504 15.4696 17.3747C15.7664 18.1553 16.2161 18.8784 16.8098 19.4564C17.345 19.9792 17.9963 20.3609 18.7075 20.5686C18.9391 20.6308 19.2067 20.5571 19.3596 20.366C19.508 20.1795 19.6429 19.9814 19.7981 19.8018C19.9712 19.6061 20.2455 19.5347 20.4974 19.5646C20.6682 19.5807 20.8256 19.6659 20.9696 19.7558C21.5407 20.115 22.0983 20.5065 22.5997 20.9647C22.7436 21.1029 22.9123 21.2318 22.9752 21.4322C23.0764 21.7062 22.982 22.0078 22.8426 22.2473C22.6312 22.602 22.3771 22.9336 22.0668 23.2053C21.797 23.4356 21.4665 23.6267 21.1045 23.6267C20.8639 23.6382 20.6458 23.5254 20.4254 23.4448C19.6024 23.1155 18.8267 22.6802 18.0734 22.2151C17.3786 21.7845 16.7108 21.3078 16.1082 20.7505C14.9637 19.6982 14.0688 18.3879 13.3718 16.9901C13.0345 16.3339 12.7129 15.6638 12.4746 14.9614C12.3746 14.6502 12.3947 14.3115 12.5308 14.015C12.7309 13.566 13.0839 13.2136 13.4684 12.9258C13.6663 12.7835 13.8754 12.6361 14.1183 12.5827Z" fill="white"/>
<path d="M18.2331 13.3868C18.332 13.3615 18.4377 13.3845 18.5389 13.3914C19.3394 13.4789 20.1353 13.7737 20.7469 14.3217C21.2169 14.7339 21.5654 15.2866 21.7588 15.8876C21.92 16.3771 21.9865 16.8941 21.9544 17.4097C21.9432 17.6147 21.6688 17.6976 21.5249 17.5778C21.4193 17.5064 21.4148 17.3637 21.417 17.2485C21.426 16.4356 21.1719 15.5997 20.63 14.9918C20.0949 14.3954 19.3281 14.0592 18.5501 13.9671C18.4242 13.9464 18.2871 13.9579 18.1724 13.8957C17.9947 13.7801 18.0307 13.4536 18.2331 13.3868Z" fill="white"/>
<path d="M18.6378 14.8813C18.7345 14.8514 18.8379 14.8721 18.9369 14.8813C19.3529 14.9319 19.7733 15.0908 20.0724 15.404C20.4456 15.7978 20.5985 16.3643 20.5985 16.9031C20.603 17.0298 20.4951 17.1311 20.3804 17.1518C20.2523 17.1817 20.1039 17.1057 20.0724 16.9699C20.0409 16.834 20.0499 16.6936 20.0229 16.5577C19.9667 16.2192 19.8161 15.8761 19.5305 15.6803C19.2764 15.4961 18.9594 15.4593 18.6581 15.4224C18.4085 15.3764 18.3995 14.9527 18.6378 14.8813Z" fill="white"/>
</g>
<defs>
<clipPath id="clip0_504_595">
<rect width="36" height="36" fill="white"/>
</clipPath>
</defs>
</svg>
