<?xml version="1.0" encoding="utf-8"?>
<!-- Generator: Adobe Illustrator 21.1.0, SVG Export Plug-In . SVG Version: 6.00 Build 0)  -->
<svg version="1.1" id="Layer_1" xmlns="http://www.w3.org/2000/svg" xmlns:xlink="http://www.w3.org/1999/xlink" x="0px" y="0px"
	 viewBox="0 0 20 14" style="enable-background:new 0 0 20 14;" xml:space="preserve">
<g>
	<g>
		<path d="M10,1c3.7,0,7,3.2,8.7,5c0.4,0.5,0.4,1.4,0,1.9c-1.7,1.9-5,5-8.7,5S3,9.8,1.3,8C0.9,7.5,0.9,6.5,1.3,6C3,4.2,6.3,1,10,1
			 M10,0C5.9,0,2.4,3.3,0.6,5.4c-0.7,0.8-0.7,2.4,0,3.2C2.4,10.7,5.9,14,10,14s7.6-3.3,9.4-5.4c0.7-0.8,0.7-2.4,0-3.2
			C17.6,3.3,14.1,0,10,0L10,0z"/>
	</g>
	<g>
		<path d="M10,4c1.7,0,3,1.3,3,3s-1.3,3-3,3S7,8.6,7,7S8.3,4,10,4 M10,3C7.8,3,6,4.8,6,7s1.8,4,4,4s4-1.8,4-4S12.2,3,10,3L10,3z"/>
	</g>
</g>
</svg>
