<?xml version="1.0" encoding="UTF-8"?><svg id="a" xmlns="http://www.w3.org/2000/svg" viewBox="0 0 200 200"><defs><style>.b{fill:#e20613;}</style></defs><g><g><path class="b" d="M130.16,23.06c4.52,6.09,3.24,14.68-2.85,19.2-6.09,4.52-14.68,3.24-19.2-2.85-4.52-6.09-3.24-14.68,2.85-19.2,6.09-4.52,14.68-3.24,19.2,2.85Z"/><path class="b" d="M142.85,46.02c-2.97-1.44-6.55-.2-7.99,2.77l-8.95,18.44-11.04-14.88c-.13,.63-.33,1.26-.6,1.86l-4.86,10.86,12.77,17.22c1.25,1.68,3.28,2.59,5.36,2.39,1.11-.1,2.14-.51,3.01-1.15,.76-.57,1.39-1.31,1.82-2.19l13.25-27.32c1.44-2.97,.2-6.55-2.77-7.99Z"/></g><g><path class="b" d="M79.8,104.8l3.09,27.1-30.45-3.88c-3.28-.42-6.27,1.9-6.69,5.18-.29,2.25,.72,4.37,2.44,5.61,.78,.56,1.71,.95,2.74,1.08l38.01,4.84c1.82,.23,3.65-.39,4.96-1.68s1.95-3.11,1.74-4.94l-2.89-25.35-12.95-7.97Z"/><path class="b" d="M139.59,150.03l-15.56-30.96c-1.44-3.19-3.03-7.5-7.93-9.69l-4.42-2.71-18.4-12.44,18.27-41.25c.9-2.01,.62-4.35-.72-6.09-1.34-1.74-3.53-2.61-5.7-2.26l-31.9,5.2c-2.12,.34-3.89,1.8-4.64,3.8l-10.88,29.01c-1.16,3.09,.41,6.54,3.5,7.7,3.09,1.16,6.54-.41,7.7-3.5l9.66-25.76,17.51-2.86-16.77,37.45c-.61,1.37-.67,2.9-.21,4.3l13.19,8.84h0l19.01,11.65,17.34,34.39c1.34,3.02,4.87,4.39,7.89,3.05,1.95-.86,3.21-2.64,3.5-4.6,.16-1.08,.03-2.22-.45-3.29Z"/></g></g><polygon class="b" points="181.09 182.49 25.28 182.49 25.28 169.29 181.09 157.65 181.09 182.49"/><path class="b" d="M175.22,176.34c-3.33,0-6.03-2.7-6.03-6.03V86.63l-11.53,11.12c-2.4,2.31-6.22,2.24-8.53-.15-2.31-2.4-2.24-6.22,.15-8.53l21.75-20.97c1.74-1.68,4.32-2.15,6.54-1.21,2.23,.95,3.67,3.13,3.67,5.55v97.87c0,3.33-2.7,6.03-6.03,6.03Z"/></svg>