<?xml version="1.0" encoding="UTF-8"?><svg id="a" xmlns="http://www.w3.org/2000/svg" viewBox="0 0 200 200"><defs><style>.b{fill:#e20613;}</style></defs><path class="b" d="M27.51,157.22c0-20.09,13.64-37.04,32.13-42.11-.67-.03-1.34-.05-2.02-.05-21.62,0-39.15,17.53-39.15,39.15,0,16.44,10.13,30.5,24.49,36.3-9.44-8.01-15.45-19.96-15.45-33.29Z"/><path class="b" d="M179.89,7.18c-1.7-2.29-4.58-3.55-8.12-3.55-4.77,0-10.46,2.19-15.59,6.01-4.13,3.07-7.41,6.85-9.23,10.64-1.72,3.58-2.01,6.9-.91,9.58-3.62,3.47-13.59,11.68-30.92,16.29-6.47,1.72-13.62,1.57-20.52,1.43-14.98-.31-30.45-.63-39.95,17.47-8.73,16.63-.8,36.45,6.9,49.59,.13,.22,.26,.45,.39,.66,.28,.47,.56,.92,.84,1.37,.44,.71,.87,1.4,1.29,2.06-18.22,3.35-32.03,19.3-32.03,38.49,0,16.24,9.89,30.17,23.97,36.1,4.67,1.96,9.79,3.05,15.18,3.05,21.62,0,39.15-17.53,39.15-39.15s-16.66-38.26-37.52-39.11c-.54-.02-1.08-.04-1.62-.04-.09,0-.19,0-.28,0-.2-.29-.41-.6-.61-.91-.28-.42-.57-.86-.86-1.31-.45-.7-.91-1.42-1.38-2.18-7.35-11.93-15.91-30.9-8.07-45.83,7.77-14.8,20.16-14.54,34.49-14.25,7.33,.15,14.9,.31,22.19-1.63,18.67-4.97,29.41-13.74,33.57-17.77,1.41,.64,3.06,.99,4.89,.99,4.78,0,10.46-2.19,15.59-6.01,4.13-3.07,7.41-6.85,9.23-10.64,2.13-4.42,2.1-8.45-.06-11.36ZM55.37,157.22c0-9.56,7.75-17.31,17.32-17.31s17.32,7.75,17.32,17.31-7.76,17.31-17.32,17.31-17.32-7.75-17.32-17.31ZM174.52,15.93c-1.39,2.89-4.08,5.95-7.4,8.42-4.05,3.01-8.54,4.82-12,4.82-.92,0-2.56-.15-3.29-1.12-.74-.99-.54-2.92,.54-5.15,1.39-2.89,4.08-5.95,7.4-8.42,4.06-3.02,8.54-4.82,12-4.82,.91,0,2.56,.14,3.29,1.12,.74,.99,.54,2.92-.54,5.15Z"/></svg>