<?xml version="1.0" encoding="UTF-8"?><svg id="a" xmlns="http://www.w3.org/2000/svg" viewBox="0 0 200 200"><defs><style>.b{fill:#e20613;}</style></defs><path class="b" d="M164.15,35.5c-2.75-.76-5.14-1.72-7.62-2.05-11.45-1.54-23-2.17-34.35,.07-7.06,1.39-14.16,3.44-19.3,9.4-3.61,4.18-4.99,9.23-6.25,14.29-1.18,4.73-1.33,9.64-.16,14.48,.16,.65,.06,1.42,.36,1.98,.66,1.27,1.5,2.44,2.27,3.65,.9-.93,1.73-1.94,2.71-2.77,3.95-3.33,4.43-7.69,4.13-12.47-.24-3.91-.08-7.85-.04-11.78,.04-3.25,.79-4.4,2.81-4.55,2.19-.16,3.78,1.66,3.86,4.68,.09,3.51,.02,7.02,.02,11.19,4.34-3.96,8.29-7.49,12.11-11.15,.57-.54,.66-1.71,.73-2.61,.12-1.62,.03-3.25,.07-4.87,.05-2.19,1.24-3.81,3.3-3.95,1.96-.13,3.02,1.49,3.36,3.41,.11,.65,.18,1.32,.3,2.15,1.89-.77,3.54-1.67,5.3-2.1,3.23-.78,5.11,1.19,3.97,4.3-.43,1.19-.35,1.76,.24,2.8,1.88,3.31,.62,5.34-3.27,5.56-.68,.04-1.37,.11-2.03,0-5-.82-8.89,1.14-12.26,4.66-2.2,2.3-4.55,4.46-6.83,6.68,.11,.27,.23,.54,.34,.81,3.3,0,6.61-.01,9.91,0,1.62,.01,3.26-.02,4.87,.16,2.06,.23,3.6,1.36,3.99,3.45,.29,1.51-2.03,3.44-4.22,3.59-1.89,.13-3.79,.05-5.69,.06-4.2,0-8.4,.15-12.59-.05-2.78-.13-4.68,.86-6.04,3.19-.34,.58-.81,1.08-1.2,1.63-.92,1.31-1.82,2.62-2.72,3.93,1.42,.65,2.82,1.35,4.26,1.95,1.98,.83,3.09,2.09,2.56,4.39-.17,.74-.18,1.53-.33,2.97,3.59-1.53,6.67-2.77,9.69-4.14,4.04-1.83,7.94-4.04,12.08-5.6,15.31-5.8,33.1,.78,41.68,13.67,11.39,17.09,6.06,41.89-13.74,51.49-8.25,4-16.63,7.74-24.95,11.58-13.34,6.15-26.69,12.29-40.04,18.42-7.02,3.22-14.03,6.12-22.1,5.59-13.94-.92-24.2-7.71-30.18-19.94-7.53-15.4-3.49-33.64,10.93-44.11,4.84-3.51,10.69-5.62,16.1-8.33,1.69-.85,3.5-1.47,5.1-2.44,.61-.37,1.29-1.64,1.08-2.14-.78-1.85-1.87-3.58-2.95-5.28-.9-1.42-2.15-1.25-3.56-.66-4.5,1.89-9.14,3.03-14.04,3.62-13.09,1.59-24.82-3.69-30.77-14.86-2.53-4.76-3.75-9.76-3.47-15.16,.22-4.29-.48-8.39-3.31-11.81-1.28-1.55-2.72-3.03-4.28-4.29-3.75-3.03-3.69-5.4,.7-7.37,2.91-1.31,6.07-2.34,9.22-2.79,6.39-.9,12.87-2.02,19.26-1.75,8.84,.37,17.7,1.52,25.65,6.21,4.88,2.87,8.15,6.89,10.37,12.02,2.48,5.75,3.19,11.73,2.65,17.84-.25,2.78-.85,5.64-1.94,8.19-1.45,3.4-1.96,6.39,.65,9.41,.68,.8,.95,1.94,1.51,2.86,.71,1.17,1.34,1.58,2.24-.04,2.95-5.3,6.02-10.54,9.11-15.77,.94-1.59,.89-3.09,0-4.57-5.15-8.51-5.67-17.72-3.41-27.02,1.19-4.9,3.13-9.79,5.69-14.13,4.36-7.4,11.93-10.68,19.79-13.04,12.55-3.76,25.37-3.08,38.19-1.88,6.06,.57,11.98,1.77,17.54,4.27,4.47,2.01,4.6,4.84,.66,7.71-6.14,4.48-9.8,10.41-9.66,18.17,.11,5.87-.2,11.61-2.5,17.1-.42,1-.71,2.08-1.31,2.96-.64,.94-1.9,2.53-2.32,2.36-1.56-.59-2.98-1.7-4.24-2.85-.31-.28-.05-1.56,.31-2.15,3.03-4.89,2.73-10.31,2.74-15.74,.02-7.83,2.42-14.84,7.8-20.69,.44-.48,.77-1.06,1.46-2.01ZM46.72,147.9c-.92,11.08,6.22,21.35,15.05,25.69,6.76,3.33,13.77,4.65,21.06,1.89,4.77-1.8,9.48-3.79,14.15-5.83,6.29-2.75,12.51-5.66,18.78-8.46,2.07-.92,2.8-1.87,1.66-4.32-7.07-15.13-13.96-30.34-20.86-45.54-1.65-3.63-2.19-3.81-6.07-2-8.42,3.91-16.83,7.86-25.34,11.57-11.05,4.82-19.05,14.91-18.42,26.98Zm126.29-31.39c-.23-2.55-.08-5.21-.74-7.65-4.69-17.27-22.14-25.45-38.82-19.03-10.17,3.92-19.85,9.09-29.8,13.58-2.04,.92-2.53,1.65-1.45,3.9,3.97,8.26,7.65,16.66,11.43,25.01,3.23,7.12,6.44,14.25,9.69,21.36,1.38,3.03,1.46,3.14,4.72,1.69,8.98-4.01,17.81-8.38,26.89-12.13,10.74-4.45,18.89-14.86,18.08-26.72ZM21.96,54.92l-.33,1.02c5.83,5.59,7,12.53,6.83,20.16-.07,3.23,.93,6.76,2.39,9.69,2.93,5.92,7.66,10.02,14.39,11.39,4.58,.94,9.16,.62,13.68-.17,2.49-.43,4.91-1.42,7.26-2.39,.58-.24,1.23-1.48,1.1-2.09-.56-2.5-3.91-4.95-6.63-4.99-3.79-.05-7.58,.03-11.38-.04-1.48-.03-3-.09-4.41-.49-2.57-.73-3.26-3.64-1.17-5.29,1.07-.84,2.66-1.29,4.05-1.39,2.81-.21,5.64-.06,9.22-.06-4.35-4.67-7.73-9.41-14.52-8.13-.39,.07-.81,.02-1.22-.02-3.1-.31-4.26-1.86-3.71-4.9,.18-1.03,.31-2.09,.34-3.14,.08-3.36,2.21-4.85,5.4-3.44,1.61,.71,2.45,1.25,3.13-1.04,.26-.87,2.15-1.89,3.13-1.74,1.05,.16,2.21,1.46,2.76,2.55,.5,1,.2,2.38,.34,3.59,.12,1.05,.02,2.43,.63,3.06,2.56,2.66,5.36,5.11,8.82,8.33,0-3.68-.07-6.35,.02-9,.06-1.83,1.01-3.16,2.94-3.26,1.9-.11,2.97,1.19,3.48,2.83,.27,.88,.21,1.87,.22,2.82,.02,3.25,.25,6.52-.05,9.74-.34,3.6,1.07,6.3,3.41,8.73,.41,.43,1.05,.64,1.58,.96,.2-.47,.45-.92,.59-1.41,1.55-5.36,1.33-10.78-.15-16.04-1.82-6.47-5.21-11.66-12.08-14.15-6.09-2.21-12.36-3.15-18.67-3.14-7.13,0-14.26,.93-21.39,1.45Zm87.62,38.3c-3.54-1.48-6.08-2.63-8.69-3.54-.46-.16-1.49,.49-1.85,1.03-1.48,2.23-2.81,4.56-4.15,6.88-.25,.43-.28,.98-.41,1.47,.61,.07,1.33,.38,1.82,.17,4.14-1.81,8.24-3.71,13.29-6.01Z"/></svg>