<?xml version="1.0" encoding="UTF-8"?><svg id="a" xmlns="http://www.w3.org/2000/svg" viewBox="0 0 200 200"><defs><style>.b{fill:#e20613;}</style></defs><path class="b" d="M155.04,38.61h-6.01v31.28l18.9,18.9,4.25-4.25-17.14-17.14v-28.79Z"/><path class="b" d="M152.03,20.59c-22.87,0-42.05,16.07-46.87,37.5,.53-.11,1.07-.18,1.63-.18,1.56,0,3.02,.47,4.27,1.28,4.3-18.65,21.03-32.6,40.96-32.6,23.19,0,42.05,18.86,42.05,42.05s-18.86,42.05-42.05,42.05c-20.94,0-38.34-15.38-41.52-35.44-1.12,.6-2.38,.95-3.71,.95-.79,0-1.55-.13-2.27-.35,3.49,23.09,23.47,40.84,47.51,40.84,26.5,0,48.05-21.56,48.05-48.06s-21.56-48.06-48.05-48.06Z"/><path class="b" d="M127.63,59.92l-41.42-15.07c1.12-2.44,1.74-5.15,1.74-8.01,0-10.66-8.67-19.33-19.33-19.33s-19.33,8.67-19.33,19.33c0,2.85,.63,5.56,1.74,8.01L9.62,59.92c-7.41,2.7-11.45,10.9-8.99,18.27,1.25,3.75,3.9,6.76,7.45,8.48,3.56,1.72,7.56,1.92,11.27,.57l9.08-3.31c.56,8.7,3.9,16.92,9.58,23.55v61.48c0,7.46,6.07,13.52,13.52,13.52,6.69,0,12.31-4.8,13.36-11.4l3.73-23.5,3.73,23.5c1.05,6.61,6.67,11.41,13.36,11.41,7.46,0,13.52-6.07,13.52-13.52v-61.48c5.68-6.63,9.02-14.85,9.58-23.55l9.08,3.31c3.71,1.35,7.71,1.15,11.27-.57,3.55-1.72,6.2-4.73,7.45-8.48,2.46-7.38-1.57-15.57-8.99-18.27ZM68.63,27.18c5.33,0,9.67,4.34,9.67,9.67s-4.34,9.67-9.67,9.67-9.67-4.34-9.67-9.67,4.34-9.67,9.67-9.67Zm58.82,47.96c-.42,1.25-1.3,2.26-2.48,2.83-1.19,.57-2.52,.64-3.76,.19l-15.75-5.73c-1.58-.58-3.34-.29-4.66,.76-1.32,1.05-1.99,2.7-1.79,4.37,.15,1.25,.23,2.51,.23,3.75,0,7.84-2.96,15.3-8.35,21.01-.85,.9-1.32,2.08-1.32,3.32v63.33c0,2.13-1.73,3.86-3.86,3.86-1.91,0-3.51-1.37-3.81-3.25l-8.5-53.57c-.37-2.35-2.4-4.08-4.77-4.08s-4.4,1.73-4.77,4.08l-8.5,53.57c-.3,1.88-1.9,3.25-3.81,3.25-2.13,0-3.86-1.73-3.86-3.86v-63.33c0-1.23-.47-2.42-1.32-3.32-5.38-5.7-8.35-13.16-8.35-21.01,0-1.24,.08-2.51,.23-3.75,.2-1.67-.47-3.32-1.79-4.37-1.32-1.05-3.08-1.33-4.66-.76l-15.75,5.73c-1.24,.45-2.57,.38-3.76-.19-1.18-.57-2.07-1.58-2.48-2.83-.82-2.46,.58-5.21,3.12-6.13l44.54-16.21s.06-.02,.1-.04c.02-.01,.05-.02,.07-.03,3.12,2.17,6.91,3.44,10.99,3.44s7.87-1.28,10.99-3.44c.03,.01,.05,.02,.07,.03,.03,.01,.06,.02,.1,.04l44.54,16.21c2.54,.93,3.94,3.68,3.12,6.13Z"/></svg>