<?xml version="1.0" encoding="UTF-8"?><svg id="a" xmlns="http://www.w3.org/2000/svg" viewBox="0 0 200 200"><defs><style>.b{fill:#e20613;stroke:#e20613;stroke-miterlimit:10;stroke-width:2px;}</style></defs><path class="b" d="M9.45,86.66c-.61-1.46-2.39-1.96-3.66-1.11-1.62,1.07-1.43,3.57,.43,4.34,2.03,.85,4.07-1.21,3.23-3.23h0Z"/><polygon class="b" points="86.69 63.61 105.04 45.26 127.62 67.84 176.96 18.5 195.31 36.85 127.62 104.54 86.69 63.61"/><path class="b" d="M83.74,33.93c3.28,.79,4.99,2.49,4.99,2.49,1,1.05,2.69,1.03,3.66-.07,2.81-3.2,6.3-5.51,10.53-5.51,6.87,0,12.61,5.95,12.67,6.01,.79,.84,2.06,1.02,3.05,.44,.14-.08,14.04-8.11,21.07-.15,1.45,2.15,2.44,4.28,3.11,6.33l3.83-3.83c-.75-1.77-1.69-3.58-2.93-5.4-.05-.08-.11-.15-.17-.22-6.42-7.46-16.96-6.16-25.75-1.87-8.56-7.44-19.05-8.9-27.51-.75-3.4-2.21-11.01-5.27-22.56,.37-6.27-5.85-16.72-6.94-24.49-.62-6.42-2.28-12.07-2.12-16.81,.48-7.04,3.87-9.76,11.97-10.57,15.1-11.38,5.92-12.41,17.52-6.68,28.77-.48,.67-.93,1.34-1.33,2h0c-.71,1.17-.33,2.69,.83,3.4s2.69,.33,3.4-.83c.56-.92,1.22-1.86,1.97-2.79,.66-.82,.73-1.96,.18-2.85-.05-.08-5.12-8.43-2.94-15.68,1.04-3.45,3.65-6.16,7.76-8.07,.73-.34,1.25-1.01,1.39-1.8,.02-.09,1.76-9.28,8.38-12.91,3.73-2.05,8.44-1.94,14.01,.32,.9,.37,1.93,.17,2.63-.5,6.39-6.07,15.52-4.6,19.86,.61,.76,.91,2.05,1.15,3.08,.59,5.62-3.06,10.93-4.12,15.35-3.05Z"/><path class="b" d="M146.29,95.04c2.47,14.66-9.56,22.73-10.11,23.09-.81,.52-1.24,1.46-1.11,2.42,.97,7.05-.23,12.65-3.59,16.63-5.32,6.32-14.47,6.71-14.56,6.71-1,.03-1.88,.66-2.24,1.6-2.12,5.61-5.22,9.12-9.21,10.43-7.05,2.31-14.96-2.73-15.04-2.78-1.78-1.16-4.11,.32-3.8,2.43,.02,.14,1.92,13.83-6.07,23.63h-2.94c-7.27-16.75-13.66-45.17,4.26-47.81,4.51-.66,9.62,.82,15.22,4.4,1.39,.89,2.21,1.76,3.64,1.3,3.89-1.25-.37-10.47,14.44-13.83,1.35-.31,2.19-1.67,1.85-3.01-1.59-6.38-1.33-11.47,1.78-15.33l-.37-.37-4.11-4.11c.06,.62,.11,1.26,.1,1.92-3.57,4.84-3.84,10.81-2.73,16.7-9.16,2.75-11.8,7.95-13.11,11.85h0c-1.44-.86-2.87-1.6-4.27-2.22,1.11-2.48,1.1-5.22,.29-7.79,3.68-1.98,7.36-4.29,10.26-7.63,4.02-4.62,5.56-10.58,4.04-15.54-.63-2.04-1.9-4.27-3.7-6.4l-2.87-2.87c-2.42-2.09-5.37-3.91-8.8-5.08-.54-.18-.56-.92-.05-1.18,.48-.24,1.07-.54,1.72-.88l-3.68-3.68c-.09,.05-.16,.09-.25,.14-4.39,2.2-4.06,8.67,.67,10.28,6.62,2.25,11.11,7.45,12.23,11.11,1.23,4-.77,8.23-3.04,10.85-2.37,2.73-5.56,4.74-8.8,6.48-3.05-4.2-8.53-8.11-16.39-11.66-1.24-.56-2.71-.01-3.27,1.23s-.01,2.71,1.23,3.27c5.82,2.63,15.28,7.88,16.25,14.19,.25,1.62-.17,2.83-.54,3.5-8.73-2.22-16.07,.96-19.97,6.07-14.28,.4-22.16-7.71-22.69-8.02,2.96-5.57,2.97-15.53-1.53-23.29,.07-.39,.17-.78,.28-1.17,1.54-1.08,3.66,1.3,4.17,2.1,1,1.56,1.95,3.1,2.44,4.69,3.13,10.02,10.6,14.92,21.48,14.32,1.36-.08,2.41-1.24,2.33-2.6-.08-1.36-1.24-2.4-2.6-2.33-5.41,.3-9.56-.96-12.48-3.86-5.57-5.54-5.03-13.65-1.69-16.14,2.17-1.62,5.26-2.31,8.71-1.94,4.48,.48,6.17,1.65,20.59,8.94,1.22,.62,2.71,.13,3.32-1.09,.62-1.22,.13-2.71-1.09-3.32-13.56-6.86-14.67-7.52-17.51-8.43-3.06-4.43-3.69-9.22-2.69-11.62,.68-1.63,2.17-2.58,4.56-2.91,3.44-.47,7.71-1.4,11.88-3.16l-.47-.47-3.35-3.35c-2.91,1.03-5.94,1.7-8.73,2.08-9.34,1.27-11.24,9.74-7.45,18.32-4.12-.16-7.89,.88-10.73,3-1.64,1.22-2.94,3.21-3.74,5.45-3.12-3.38-7.22-3.97-10.74-1.03-1.77-1.74-3.82-3.12-6.12-4.08,.51-1.07,1.04-2.41,1.44-3.99,11.88,5.13,20.84,.56,21.3-14.76,.24-7.9,10.53-10.89,12.35-11.35,2.82,.1,5.57-.27,8.21-1.08l7.55-7.55,.83-.83c-1.1-.45-1.98-.72-3.02,.08-4.74,3.65-9.46,4.61-13.4,4.46-.04,0-5.51-.12-9.81-2.77-2.25-1.41-3.67,1.68-10.55,1.33-4.38-.22-8.81-2.19-11.38-4.43-1.79-1.55-4.47,.06-4.04,2.32,.53,2.83,.33,5.69-1.15,8.16-1.66,2.76-4.2,3.77-4.24,3.82-1.42,.58-1.97,2.3-1.16,3.6,3.72,5.93,4.52,10.98,4.21,14.8,0,.04-.38,5-2.76,8.03-1.14,1.41-.41,3.53,1.35,3.96,13.18,3.14,14.79,21.72,10.24,26.97-2.21,2.55-1.47,7.23-1.03,10.85,.43,3.46,1.01,8.21-.44,9.56-1.63,1.51-3.71,.3-4.31-.11-2.28-1.55-1.26-7.22-.59-10.97,.64-3.55,1.06-5.89-.49-7.36-.76-.72-1.82-.98-2.91-.73-14.47,3.44-18.14-15.34-13.45-19.16,1.31-1.07,1.19-3.11-.25-4.01-.04-.02-3.94-2.5-6.53-6.74-.71-1.17-2.23-1.53-3.4-.82-1.17,.71-1.53,2.23-.82,3.4,1.84,3.01,4.18,5.28,5.88,6.69-5.22,8.8,1.29,27.87,17.44,25.87-.78,5.03-3.24,14.11,2.33,17.91,3.53,2.41,7.64,2.27,10.46-.35,4.22-3.92,1.9-12.09,1.58-17.87,6.24,4.95,13.88,7.73,21.82,7.96-6.2,17.22,6.11,43.48,6.68,44.67,.41,.86,1.28,1.41,2.23,1.41h5.68c.7,0,1.37-.3,1.84-.82,7.13-7.96,8.27-18.17,8.26-23.95,11.45,4.79,21.67,1.56,26.92-10.67,3.39-.42,11.22-2.04,16.51-8.29,4.07-4.81,5.72-11.21,4.91-19.05,8.96-7.02,13.77-18.17,10.29-30.46l-4.14,4.14ZM39.79,62.22c1.7,3.7,3.06,8.51,1.81,13.22-.42,1.57,.77,3.11,2.39,3.11,1.09,0,2.09-.73,2.39-1.84,1.57-5.92,.08-11.73-1.9-16.16,4.94,1.59,10.19,1.56,15.33-.35,.61,.31,1.46,.7,2.5,1.09-4.97,2.83-8.5,7.25-8.67,12.98-.18,5.96-1.65,9.72-4.36,11.19-3.36,1.82-8.48,0-11.28-1.4,.13-5-1.33-9.84-3.74-14.29,2.42-1.74,4.52-4.39,5.54-7.55Z"/></svg>