<?xml version="1.0" encoding="UTF-8"?> <svg xmlns="http://www.w3.org/2000/svg" width="49" height="53" viewBox="0 0 49 53" fill="none"> <path d="M12.4173 10.3206H11.0228C9.96039 10.6526 8.23391 11.3831 7.9019 12.0471C5.44498 15.2345 3.51929 18.0898 1.5936 21.8084C0.99597 24.2653 0.0663265 27.6519 0.0663265 29.2455C0.0663265 35.4874 3.7185 41.6629 11.0228 41.6629H11.6869C13.0813 41.3309 14.4758 40.9989 15.8703 40.2684L16.2023 39.9364C19.8545 38.3428 23.241 31.9017 23.7722 30.4408C25.2331 26.6558 26.03 21.6756 26.03 18.4218C26.03 15.8321 25.2331 10.5862 23.1746 9.6566L22.1786 8.59415C21.1161 8.26214 20.0537 7.5317 18.9912 7.5317C18.7256 7.59811 18.46 7.66451 18.1944 7.66451C17.4639 7.66451 16.7335 7.33249 16.2023 6.86767C15.8703 7.19969 15.2062 6.86767 14.8078 7.5317C14.1438 8.19573 13.679 9.72301 13.0813 11.0511L12.4173 10.3206ZM11.6869 15.5665C10.9564 17.8906 10.558 19.9491 10.558 21.9412C10.558 23.6013 11.6869 25.2613 13.0813 25.2613C14.6086 25.2613 14.5422 19.6171 15.5383 16.2305C15.5383 16.2305 15.6711 16.0977 15.6711 15.8985C15.6711 15.7657 15.6711 15.6993 15.5383 15.5665C15.5383 14.836 15.5383 14.504 15.8703 13.84V13.1096C16.3351 11.5159 16.2687 10.055 16.9327 9.25818C19.5224 9.78941 21.2489 13.3088 21.2489 15.5001C21.2489 18.289 19.8545 23.07 18.46 25.859C14.2766 34.093 12.5501 35.8858 9.29636 37.4795C7.43707 37.4795 7.30427 35.421 6.83945 34.0266C6.83945 33.8937 7.23787 25.6598 8.23391 25.6598V24.2653C8.23391 23.5349 8.56593 22.8708 8.56593 22.1404C8.76514 21.9412 9.62838 20.6131 9.62838 19.7499H9.29636C10.2924 18.3554 10.2924 16.9609 11.3549 15.5665H11.6869ZM32.0799 52.8186C32.4783 52.8186 32.8767 52.8186 33.2752 52.4202C33.6736 52.4202 34.4704 52.0218 34.8688 51.6234C36.4625 50.8265 38.4546 49.6313 39.6499 48.436C40.8451 47.2408 41.642 46.4439 42.4388 45.2487C43.2356 44.4518 43.634 43.2566 44.4309 42.4598C44.8293 41.6629 45.2277 40.8661 45.2277 39.6708C45.2277 39.2724 45.6261 38.4756 45.6261 37.6787C45.2277 37.2803 45.2277 36.4835 45.2277 35.6866C44.8293 35.6866 44.8293 35.6866 44.8293 35.6866C44.4309 33.2961 43.2356 31.7024 41.2435 30.5072C40.4467 30.1088 39.6499 29.7104 38.853 29.3119C38.4546 28.9135 38.0562 28.9135 37.6578 28.9135C38.0562 28.5151 38.4546 28.1167 38.4546 27.7183C39.2514 27.3198 39.6499 26.9214 40.0483 26.523C41.2435 25.3277 42.4388 24.1325 43.634 22.9372C44.4309 22.5388 44.8293 21.742 45.2277 20.9451C45.6261 20.1483 46.0246 18.953 46.8214 18.1562C47.2198 17.3594 47.6182 16.5625 48.0167 15.3673C48.0167 14.9689 48.4151 14.9689 48.4151 14.5704C48.4151 12.5783 48.4151 12.1799 47.2198 10.1878C46.423 8.59415 45.2277 7.3989 43.634 6.20364C42.0404 5.4068 40.0483 5.4068 38.4546 4.60996C36.8609 4.21155 35.2672 3.81313 33.6736 3.41471C33.2752 3.41471 32.4783 3.01629 31.6815 2.61787C31.2831 2.61787 30.8846 2.21945 30.4862 1.42261C30.4862 1.0242 30.4862 0.625775 30.0878 0.227358C29.6894 0.625775 29.291 0.625775 29.291 1.0242C29.291 1.82103 29.6894 3.01629 29.6894 3.81313C30.4862 6.20364 31.6815 7.79732 33.6736 8.99257C35.2672 9.78941 36.8609 10.1878 38.853 10.5862C39.6499 10.5862 40.8451 10.1878 42.0404 10.5862C42.8372 10.5862 43.2356 11.3831 42.4388 12.1799C42.4388 12.5783 42.0404 13.3752 41.642 13.7736C39.6499 16.1641 37.2593 18.1562 34.8688 20.1483C34.072 20.9451 33.2752 21.742 32.4783 22.9372C30.8846 24.1325 30.4862 25.7262 30.0878 27.3198C30.0878 27.7183 30.4862 28.1167 30.4862 28.1167C30.8846 30.1088 31.6815 31.304 32.8767 32.4993C33.2752 32.8977 33.6736 33.2961 34.4704 33.2961C35.2672 33.6945 36.0641 33.6945 36.8609 33.6945C37.6578 33.6945 38.4546 33.6945 38.853 32.8977C39.2514 33.2961 39.2514 33.2961 39.6499 33.2961C40.0483 33.2961 40.4467 33.6945 40.8451 34.4914C40.8451 35.2882 40.8451 35.6866 40.4467 36.4835C39.2514 38.4756 37.6578 40.0692 36.0641 41.6629C34.4704 42.8582 32.8767 44.0534 30.8846 44.8503C29.6894 45.6471 28.0957 46.4439 26.1036 46.4439C25.7052 46.4439 25.3068 46.8424 24.9084 46.8424C24.1115 47.6392 24.1115 48.436 24.1115 49.2329C24.5099 49.2329 24.9084 50.0297 24.9084 50.8265C25.3068 50.8265 26.1036 50.8265 26.502 51.225C26.9005 51.6234 27.2989 51.6234 28.0957 51.6234C28.0957 52.0218 28.0957 52.0218 28.0957 52.0218C28.0957 52.0218 28.0957 52.4202 27.6973 52.8186C28.8925 52.4202 30.0878 52.4202 31.2831 52.0218C31.6815 52.4202 31.6815 52.4202 32.0799 52.8186Z" fill="#97BB0F" fill-opacity="0.5"></path> </svg> 