<?xml version="1.0" encoding="UTF-8"?> <svg xmlns="http://www.w3.org/2000/svg" width="53" height="45" viewBox="0 0 53 45" fill="none"> <path d="M14.4 7.58701H12.825C11.625 7.96201 9.675 8.78701 9.3 9.53701C6.525 13.137 4.35 16.362 2.175 20.562C1.5 23.337 0.45 27.162 0.45 28.962C0.45 36.012 4.575 42.987 12.825 42.987H13.575C15.15 42.612 16.725 42.237 18.3 41.412L18.675 41.037C22.8 39.237 26.625 31.962 27.225 30.312C28.875 26.037 29.775 20.412 29.775 16.737C29.775 13.812 28.875 7.88701 26.55 6.83701L25.425 5.63701C24.225 5.26201 23.025 4.43701 21.825 4.43701C21.525 4.51201 21.225 4.58701 20.925 4.58701C20.1 4.58701 19.275 4.21201 18.675 3.68701C18.3 4.06201 17.55 3.68701 17.1 4.43701C16.35 5.18701 15.825 6.91201 15.15 8.41201L14.4 7.58701ZM13.575 13.512C12.75 16.137 12.3 18.462 12.3 20.712C12.3 22.587 13.575 24.462 15.15 24.462C16.875 24.462 16.8 18.087 17.925 14.262C17.925 14.262 18.075 14.112 18.075 13.887C18.075 13.737 18.075 13.662 17.925 13.512C17.925 12.687 17.925 12.312 18.3 11.562V10.737C18.825 8.93701 18.75 7.28701 19.5 6.38701C22.425 6.98701 24.375 10.962 24.375 13.437C24.375 16.587 22.8 21.987 21.225 25.137C16.5 34.437 14.55 36.462 10.875 38.262C8.775 38.262 8.625 35.937 8.1 34.362C8.1 34.212 8.55 24.912 9.675 24.912V23.337C9.675 22.512 10.05 21.762 10.05 20.937C10.275 20.712 11.25 19.212 11.25 18.237H10.875C12 16.662 12 15.087 13.2 13.512H13.575ZM44.3332 6.68701C44.3332 6.23701 44.3332 6.68701 43.8832 7.13701C43.8832 6.68701 44.7082 4.88701 45.1582 3.98701C45.1582 3.98701 45.6082 3.98701 46.0582 3.53701C46.0582 3.98701 45.6082 4.43701 45.6082 4.88701C44.4832 10.287 42.8332 15.237 41.1832 20.187C40.3582 23.337 39.5332 26.487 38.7082 29.637C37.8832 32.337 37.0582 34.587 36.6832 37.287C36.3082 37.737 36.3082 38.187 35.8582 38.637C35.4082 39.087 35.8582 39.987 35.9332 40.437C36.3832 40.887 36.3832 41.337 36.8332 41.337C36.8332 41.337 37.2832 41.337 37.2832 41.787C37.8082 42.687 38.7082 44.037 40.0582 44.487C40.5082 44.037 40.5082 43.587 40.9582 43.587C41.8582 42.687 42.2332 41.337 42.6832 40.437C43.0582 39.537 43.5082 38.637 43.8832 37.287C43.8832 37.287 43.8832 36.837 44.3332 36.387C45.2332 35.487 45.6082 33.687 46.4332 32.337C46.8832 31.437 47.3332 30.987 47.7832 30.087C48.1582 28.737 48.5332 27.387 49.4332 25.587C49.8082 23.787 50.1832 21.987 51.0832 20.187C51.4582 18.387 51.8332 16.137 51.7582 13.887C51.7582 13.437 51.7582 12.987 51.6832 12.537C52.1332 12.087 52.1332 11.187 52.1332 10.737C52.0582 8.48701 51.9832 6.68701 51.4582 4.43701C51.4582 3.53701 51.0082 2.63701 50.0332 1.28701L49.5832 0.837012C49.1332 0.837012 48.6832 0.837012 48.2332 0.837012C47.7832 0.837012 47.7832 0.837012 47.3332 0.837012C46.8832 0.837012 46.8832 1.28701 46.4332 1.28701C45.9832 1.28701 45.5332 1.28701 45.0832 1.73701C44.7082 2.63701 43.8082 3.08701 43.3582 3.53701C42.9082 4.43701 42.5332 5.33701 41.6332 6.23701C40.8082 7.58701 39.6082 9.46201 38.7832 10.812C35.7082 14.862 35.1832 16.362 32.8582 18.987C31.9582 19.887 31.2082 21.537 30.3082 22.212C31.6582 23.562 33.0082 24.012 34.8082 23.562C35.2582 23.112 36.3832 23.262 36.7582 22.362C39.2332 20.487 40.1332 16.962 41.0332 15.687C41.0332 15.687 41.4832 15.237 41.4082 14.787C40.9582 13.887 41.8582 12.987 42.2332 12.537C42.2332 12.087 42.6832 11.637 42.6832 10.737C43.5082 9.38701 43.9582 8.03701 44.3332 6.68701Z" fill="#97BB0F" fill-opacity="0.5"></path> </svg> 