<?xml version="1.0" encoding="UTF-8"?> <svg xmlns="http://www.w3.org/2000/svg" width="49" height="55" viewBox="0 0 49 55" fill="none"> <path d="M12.4173 10.3206H11.0228C9.96039 10.6526 8.23391 11.3831 7.9019 12.0471C5.44498 15.2345 3.51929 18.0898 1.5936 21.8084C0.99597 24.2653 0.0663265 27.6519 0.0663265 29.2455C0.0663265 35.4874 3.7185 41.6629 11.0228 41.6629H11.6869C13.0813 41.3309 14.4758 40.9989 15.8703 40.2684L16.2023 39.9364C19.8545 38.3428 23.241 31.9017 23.7722 30.4408C25.2331 26.6558 26.03 21.6756 26.03 18.4218C26.03 15.8321 25.2331 10.5862 23.1746 9.6566L22.1786 8.59415C21.1161 8.26214 20.0537 7.5317 18.9912 7.5317C18.7256 7.59811 18.46 7.66451 18.1944 7.66451C17.4639 7.66451 16.7335 7.33249 16.2023 6.86767C15.8703 7.19969 15.2062 6.86767 14.8078 7.5317C14.1438 8.19573 13.679 9.72301 13.0813 11.0511L12.4173 10.3206ZM11.6869 15.5665C10.9564 17.8906 10.558 19.9491 10.558 21.9412C10.558 23.6013 11.6869 25.2613 13.0813 25.2613C14.6086 25.2613 14.5422 19.6171 15.5383 16.2305C15.5383 16.2305 15.6711 16.0977 15.6711 15.8985C15.6711 15.7657 15.6711 15.6993 15.5383 15.5665C15.5383 14.836 15.5383 14.504 15.8703 13.84V13.1096C16.3351 11.5159 16.2687 10.055 16.9327 9.25818C19.5224 9.78941 21.2489 13.3088 21.2489 15.5001C21.2489 18.289 19.8545 23.07 18.46 25.859C14.2766 34.093 12.5501 35.8858 9.29636 37.4795C7.43707 37.4795 7.30427 35.421 6.83945 34.0266C6.83945 33.8937 7.23787 25.6598 8.23391 25.6598V24.2653C8.23391 23.5349 8.56593 22.8708 8.56593 22.1404C8.76514 21.9412 9.62838 20.6131 9.62838 19.7499H9.29636C10.2924 18.3554 10.2924 16.9609 11.3549 15.5665H11.6869ZM44.8293 19.8827C44.7629 20.5467 44.4309 20.9451 44.4309 21.742C44.3645 22.1404 44.3645 22.1404 44.3645 22.406C44.3645 23.6013 43.9661 23.7341 43.8997 24.5309L43.302 26.7222L43.1692 26.9214C42.1732 28.5815 37.7906 30.972 36.4625 31.1712C35.9313 31.5032 35.7321 31.5032 35.3337 30.972C34.8688 30.3744 35.1344 28.9799 35.5329 28.2495C35.5329 27.6519 36.5289 26.9214 36.9273 26.191C37.0601 25.1285 37.525 24.3317 37.525 23.6013C37.9898 23.2028 37.9898 23.2028 37.9898 22.8708C38.5874 21.41 39.9155 20.6131 40.0483 19.0858C40.1811 18.7538 40.1147 18.3554 40.5131 18.3554C41.1107 17.6914 41.2435 16.5625 41.642 15.8321L43.302 11.9143C43.8997 10.8519 43.9661 9.05898 43.9661 8.39494C43.9661 7.86372 44.1653 6.13724 42.1068 4.27795C42.2396 3.87953 39.1186 1.75463 39.2514 1.35621C39.185 0.957795 38.7866 0.891389 38.9858 0.559373C35.8649 1.0242 39.2514 4.67637 36.9937 9.12538C34.6696 13.9728 31.8807 18.3554 29.1582 23.6013C28.2285 25.3277 27.3653 27.2534 27.0997 28.9799C27.0333 29.7768 26.9669 30.5736 27.2325 30.8392C27.4981 32.4993 28.0293 33.7609 29.0918 34.0266C29.4238 34.4914 29.5566 34.8234 29.5566 34.8234C31.2831 36.2179 33.8728 36.2843 37.525 35.089C37.9898 34.9562 40.1147 33.7609 41.642 32.7649C41.1771 33.8273 40.9115 34.6242 40.3139 36.8155C39.9155 38.3428 40.1811 37.0147 39.5835 38.9404C39.1186 40.3349 38.9194 41.8621 38.3882 43.2566C37.7242 46.3111 35.9977 50.6273 37.3921 53.4163C37.7242 54.0803 38.9194 54.6115 38.189 52.7522C38.189 52.2874 38.4546 52.3538 38.5874 52.0218L38.9194 51.6234L39.4506 51.6898C39.517 50.9594 39.1186 50.8929 40.3139 50.2289C40.2475 49.9633 40.2475 49.9633 40.3139 49.5649C40.7787 49.2329 40.9115 48.8345 41.1107 48.436C41.642 47.8384 41.5755 47.108 42.0404 46.3775C42.5716 45.3151 42.7708 44.3854 43.634 43.655C44.0325 43.4558 44.0989 43.0574 44.4973 42.659C44.6301 41.5965 44.6965 42.7918 44.8293 41.5965C45.2277 40.5341 46.091 39.87 46.2902 38.9404C46.755 37.7451 46.0246 39.4716 46.2238 37.9443C46.6222 37.2803 47.0206 36.8155 47.0206 36.0186C47.2198 34.6242 48.0831 33.6945 48.2159 32.1673C48.2823 31.8353 48.2823 31.8353 48.3487 31.3704C48.0167 30.64 48.2159 28.8471 48.6807 28.1831C48.6807 27.7847 48.3487 27.3862 48.4151 26.9878C48.0831 26.523 48.8799 26.0582 48.8799 25.6598L48.9463 25.2613C48.3487 24.4645 48.4815 24.1989 48.4151 23.8669C48.5479 22.8708 48.3487 22.4724 48.0831 21.8084C48.0167 21.41 46.6886 20.4139 46.6886 20.4139C46.2902 20.0819 45.6261 19.9491 44.8293 19.8827Z" fill="#97BB0F" fill-opacity="0.5"></path> </svg> 