<?xml version="1.0" encoding="UTF-8"?> <svg xmlns="http://www.w3.org/2000/svg" width="56" height="40" viewBox="0 0 56 40" fill="none"> <path d="M14.4 4.58701H12.825C11.625 4.96201 9.675 5.78701 9.3 6.53701C6.525 10.137 4.35 13.362 2.175 17.562C1.5 20.337 0.45 24.162 0.45 25.962C0.45 33.012 4.575 39.987 12.825 39.987H13.575C15.15 39.612 16.725 39.237 18.3 38.412L18.675 38.037C22.8 36.237 26.625 28.962 27.225 27.312C28.875 23.037 29.775 17.412 29.775 13.737C29.775 10.812 28.875 4.88701 26.55 3.83701L25.425 2.63701C24.225 2.26201 23.025 1.43701 21.825 1.43701C21.525 1.51201 21.225 1.58701 20.925 1.58701C20.1 1.58701 19.275 1.21201 18.675 0.687011C18.3 1.06201 17.55 0.687011 17.1 1.43701C16.35 2.18701 15.825 3.91201 15.15 5.41201L14.4 4.58701ZM13.575 10.512C12.75 13.137 12.3 15.462 12.3 17.712C12.3 19.587 13.575 21.462 15.15 21.462C16.875 21.462 16.8 15.087 17.925 11.262C17.925 11.262 18.075 11.112 18.075 10.887C18.075 10.737 18.075 10.662 17.925 10.512C17.925 9.68701 17.925 9.31201 18.3 8.56201V7.73701C18.825 5.93701 18.75 4.28701 19.5 3.38701C22.425 3.98701 24.375 7.96201 24.375 10.437C24.375 13.587 22.8 18.987 21.225 22.137C16.5 31.437 14.55 33.462 10.875 35.262C8.775 35.262 8.625 32.937 8.1 31.362C8.1 31.212 8.55 21.912 9.675 21.912V20.337C9.675 19.512 10.05 18.762 10.05 17.937C10.275 17.712 11.25 16.212 11.25 15.237H10.875C12 13.662 12 12.087 13.2 10.512H13.575ZM50.2582 20.562C50.6332 19.887 50.8582 19.287 51.3832 18.912C51.3082 18.687 51.6832 18.537 52.1332 18.537C52.4332 18.162 51.9832 17.862 51.9832 17.862C52.8832 17.412 52.7332 16.662 53.0332 16.212C54.0082 14.262 53.8582 11.712 54.0082 9.83701C54.0832 8.41201 53.2582 7.36201 52.7332 5.48701C52.2832 5.56201 52.2082 5.33701 52.2082 4.96201C51.3082 4.66201 49.7332 3.68701 49.2832 3.08701C48.4582 2.33701 47.4832 1.73701 46.6582 1.43701C45.7582 1.13701 45.3082 0.987009 45.0082 0.987009C43.6582 0.312011 42.9082 0.987009 41.7082 1.06201C37.6582 1.88701 33.0832 8.48701 33.2332 10.437C33.3082 11.037 32.6332 11.562 33.1582 12.462C33.1582 12.462 33.1582 12.762 33.2332 13.062C34.0582 13.287 34.5082 14.337 35.1832 14.262C36.6082 14.937 37.9582 15.237 39.3832 13.812C39.3832 13.812 39.7582 13.437 40.2082 13.437C41.3332 12.537 42.6082 4.81201 45.4582 5.48701C46.7332 5.78701 47.1082 7.13701 46.8832 8.26201C46.6582 10.212 46.2082 10.662 45.4582 12.237C43.5832 17.637 40.4332 21.837 36.6082 26.712C35.4832 28.437 33.1582 30.987 31.6582 32.337C30.9832 33.687 29.8582 36.687 32.2582 37.287C32.2582 37.662 33.1582 38.412 33.6082 38.337C33.6082 38.337 33.9832 38.337 34.5082 38.187C35.5582 38.487 36.6082 38.787 37.8082 38.562C38.5582 38.487 39.7582 38.412 41.0332 38.562C42.3082 38.937 43.5082 37.887 44.7082 37.812C46.6582 37.587 46.1332 38.337 48.3082 37.737C51.3832 36.912 54.0832 38.037 55.7332 38.562C56.1082 38.487 56.1832 36.687 55.0582 35.787C52.7332 33.912 48.9832 32.937 45.6082 33.387C45.2332 33.387 40.0582 33.837 39.9832 33.462C43.2832 29.712 46.4332 26.562 49.2832 22.587C49.5832 21.762 50.0332 21.312 50.2582 20.562Z" fill="#97BB0F" fill-opacity="0.5"></path> </svg> 