<svg xmlns="http://www.w3.org/2000/svg" viewBox="0 0 512 512" width="20" height="20"><path d="M406 332a89.93 89.93 0 00-72.38 36.57l-141.27-72.2A89.74 89.74 0 00196 271a89.5 89.5 0 00-6.57-33.75l148.06-88.96A89.83 89.83 0 00406 180c49.63 0 90-40.37 90-90S455.63 0 406 0s-90 40.37-90 90a89.54 89.54 0 006.09 32.54l-148.43 89.18A89.81 89.81 0 00106 181c-49.63 0-90 40.37-90 90s40.37 90 90 90a89.94 89.94 0 0073.18-37.67l140.86 71.99A89.7 89.7 0 00316 422c0 49.63 40.37 90 90 90s90-40.37 90-90-40.37-90-90-90zm0-302c33.08 0 60 26.92 60 60s-26.92 60-60 60-60-26.92-60-60 26.92-60 60-60zM106 331c-33.08 0-60-26.92-60-60s26.92-60 60-60 60 26.92 60 60-26.92 60-60 60zm300 151c-33.08 0-60-26.92-60-60s26.92-60 60-60 60 26.92 60 60-26.92 60-60 60z"/></svg>