<svg id="Слой_1" xmlns="http://www.w3.org/2000/svg" width="342.2" height="264"><style>.st0{fill:#f46940}.st1{fill:#999898}.st2{fill:#231300}</style><path class="st0" d="M2.6 227.5l-1-3.9L42 212.4l16.1-48.9 47.8-5.9 15.6-46.3 51-3.5 14.3-50.6 54.5-3.4 29.4-48.5 3.4 2.1-30.5 50.2-53.7 3.4-14.3 50.5-51.2 3.6-15.5 46.2-47.8 5.8-16 48.6z"/><path class="st0" d="M272.9 16.2l-3.9-.7 1-5.6-4.4 3.6-2.5-3.1L275.9 0z"/><path class="st1" d="M46.6 256.9L1.4 240.2l1.4-3.7 43.3 15.9 50-32.1 47.8 16.7 37.1-38.3 54.4 8.4 29-38.9 47.6-1 23.1-15.1 2.1 3.4-23.9 15.6-46.9 1-29.2 39.3-54.8-8.5-37.5 38.8-48.2-17z"/><path class="st1" d="M332.4 163.1l-3.3-2.4 3.4-4.5-5.5 1.3-.9-3.9 16.1-3.7z"/><path class="st2" d="M1.6 45.8h1v216.5h-1z"/><path class="st2" d="M.9 50.1l-.9-.3 2.1-5.7 2.1 5.7-.9.3L2.1 47zm303.4 209.7l5.6 2M173 131.8l-3.1-1.1M2.2 261.3h306v1H2.2z"/><path class="st2" d="M305.1 264l-.3-1 3.1-1.2-3.1-1.1.3-.9 5.7 2z"/></svg>