<svg width="34" height="34" viewBox="0 0 34 34" fill="none" xmlns="http://www.w3.org/2000/svg"><path d="M33.9345 18.5706C33.6292 15.5 32.2574 12.6053 30.0717 10.4195c-1.8679-1.86785-4.1542-3.06817-6.5599-3.60188V5.13034C24.4944 4.8859 25.2247 3.9965 25.2247 2.93937c0-1.24501-1.0128-2.257851-2.2578-2.257851H18.1856c-1.245.0-2.2579 1.012841-2.2579 2.257851C15.9277 3.99644 16.6581 4.88583 17.6406 5.13034V6.82233c-2.3983.53598-4.677 1.73463-6.5396 3.59717-.4076.4077-.7835.8353-1.12756 1.2797C9.95678 11.6979 9.94011 11.6966 9.92311 11.6966H5.19086c-.3667.0-.66407.2973-.66407.6641S4.82416 13.0248 5.19086 13.0248H9.06984C8.58294 13.8399 8.19034 14.696 7.89151 15.5772H.664073C.297372 15.5772.0 15.8745.0 16.2413.0 16.608.297372 16.9053.664073 16.9053H7.51624C7.32486 17.7455 7.21502 18.6005 7.18666 19.4578H4.25007c-.3667.0-.66408.2974-.66408.664100000000001C3.58599 20.4887 3.88337 20.786 4.25007 20.786H7.20785C7.26389 21.6456 7.40209 22.5006 7.62249 23.3385H3.32036c-.3667.0-.66407.2973-.66407.664100000000001C2.65629 24.3693 2.95366 24.6666 3.32036 24.6666H8.04631C8.69776 26.39 9.71585 28.0052 11.101 29.3903c2.1878 2.1879 5.0856 3.56 8.1593 3.8637C19.699 33.2973 20.138 33.3187 20.5764 33.3187 23.1678 33.3187 25.7262 32.5688 27.897 31.1551 28.2044 30.9549 28.2913 30.5435 28.0911 30.2362 27.891 29.9289 27.4796 29.842 27.1723 30.0421c-4.7519 3.0944-11.1159 2.4253-15.1322-1.5909-4.71239-4.7124-4.71239-12.38.0-17.0925 4.7123-4.71228 12.3799-4.71228 17.0924.0 4.0109 4.011 4.6836 10.3696 1.5995 15.1192C30.5322 26.7855 30.6197 27.1968 30.9272 27.3965 31.2349 27.5963 31.6461 27.5088 31.8458 27.2012c1.6478-2.5378 2.3896-5.6028 2.0887-8.6306zM17.2559 2.93943c0-.51266.416999999999998-.9297.9297-.9297h4.7813c.512700000000002.0.9297.41704.9297.9297.0.51267-.416999999999998.9297-.9297.9297h-.1191-4.5432-.119c-.512700000000002.0-.9297-.4171-.9297-.9297zm1.7128 3.65459V5.19728h3.215V6.59163C21.1161 6.46466 20.0361 6.46546 18.9687 6.59402z" fill="#3485ff"/><path d="M29.6025 28.2563C29.4272 28.2563 29.2566 28.3274 29.1331 28.4509 29.0089 28.5744 28.9385 28.7458 28.9385 28.9204 28.9385 29.0951 29.0089 29.2664 29.1331 29.3899 29.2566 29.5141 29.4273 29.5845 29.6025 29.5845 29.7772 29.5845 29.9479 29.5141 30.072 29.3899 30.1955 29.2664 30.2666 29.0951 30.2666 28.9204 30.2666 28.7458 30.1956 28.5744 30.072 28.4509 29.9479 28.3274 29.7771 28.2563 29.6025 28.2563z" fill="#3485ff"/><path d="M20.5869 9.60315c-5.6804.0-10.3017 4.62125-10.3017 10.30165.0 5.6805 4.6213 10.3017 10.3017 10.3017 5.6803.0 10.3016-4.6212 10.3016-10.3017.0-5.6804-4.6213-10.30165-10.3016-10.30165zm0 19.27525c-4.9481.0-8.9736-4.0255-8.9736-8.9736.0-4.948 4.0255-8.9735 8.9736-8.9735 4.948.0 8.9735 4.0255 8.9735 8.9735.0 4.9481-4.0255 8.9736-8.9735 8.9736z" fill="#3485ff"/><path d="M24.7872 14.765l-3.2891 3.2891C21.223 17.9181 20.9136 17.8413 20.5866 17.8413 20.2595 17.8413 19.9501 17.9181 19.6751 18.0541l-1.4721-1.472c-.259399999999999-.2593-.6797-.2593-.9392.0-.2593.2593-.2593.6798.0.9391l1.4721 1.4721C18.5998 19.2683 18.523 19.5777 18.523 19.9048c0 1.1378.925699999999999 2.0635 2.0636 2.0635 1.1379.0 2.0635-.925699999999999 2.0635-2.0635C22.6501 19.5777 22.5733 19.2683 22.4373 18.9933l3.1926-3.1926L25.7264 15.7042c.2593-.2593.2593-.6798.0-.9392C25.467 14.5057 25.0467 14.5057 24.7872 14.765zm-4.2006 5.8752C20.1811 20.6402 19.8512 20.3103 19.8512 19.9048 19.8512 19.4994 20.1811 19.1695 20.5866 19.1695S21.322 19.4994 21.322 19.9048C21.322 20.3103 20.9921 20.6402 20.5866 20.6402z" fill="#3485ff"/><path d="M27.6865 19.2489H27.0713C26.7046 19.2489 26.4072 19.5462 26.4072 19.913 26.4072 20.2797 26.7046 20.577 27.0713 20.577H27.6865C28.0532 20.577 28.3506 20.2797 28.3506 19.913 28.3506 19.5462 28.0532 19.2489 27.6865 19.2489z" fill="#3485ff"/><path d="M14.1015 19.2327h-.6152c-.3667.0-.664.2973-.664.663999999999998C12.8223 20.2635 13.1196 20.5608 13.4863 20.5608h.6152c.3667.0.6641-.2973.6641-.664100000000001C14.7656 19.53 14.4682 19.2327 14.1015 19.2327z" fill="#3485ff"/><path d="M20.5938 14.0839C20.9604 14.0839 21.2578 13.7866 21.2578 13.4199v-.6152C21.2578 12.4379 20.9604 12.1406 20.5938 12.1406 20.2271 12.1406 19.9297 12.4379 19.9297 12.8047v.6152c0 .3667.2974.664.664100000000001.664z" fill="#3485ff"/><path d="M20.5781 25.7257C20.2114 25.7257 19.9141 26.023 19.9141 26.3898V27.005C19.9141 27.3717 20.2114 27.669 20.5781 27.669 20.9448 27.669 21.2422 27.3717 21.2422 27.005V26.3898C21.2422 26.023 20.9448 25.7257 20.5781 25.7257z" fill="#3485ff"/><path d="M.664062 23.3383C.489414 23.3383.318086 23.4093.19457 23.5328.0710547 23.6563.0 23.8277.0 24.0023.0 24.1776.0709883 24.3483.19457 24.4718.318152 24.5953.489414 24.6664.664062 24.6664.838711 24.6664 1.01004 24.5953 1.13349 24.4718 1.257 24.3483 1.32812 24.177 1.32812 24.0023 1.32812 23.8277 1.25707 23.6563 1.13349 23.5328 1.01004 23.4093.838711 23.3383.664062 23.3383z" fill="#3485ff"/></svg>