<svg xmlns="http://www.w3.org/2000/svg" width="12.438" height="16.56" viewBox="0 0 12.438 16.56">
  <metadata><?xpacket begin="﻿" id="W5M0MpCehiHzreSzNTczkc9d"?>
<x:xmpmeta xmlns:x="adobe:ns:meta/" x:xmptk="Adobe XMP Core 5.6-c138 79.159824, 2016/09/14-01:09:01        ">
   <rdf:RDF xmlns:rdf="http://www.w3.org/1999/02/22-rdf-syntax-ns#">
      <rdf:Description rdf:about=""/>
   </rdf:RDF>
</x:xmpmeta>
                                                                                                    
                                                                                                    
                                                                                                    
                                                                                                    
                                                                                                    
                                                                                                    
                                                                                                    
                                                                                                    
                                                                                                    
                                                                                                    
                                                                                                    
                                                                                                    
                                                                                                    
                                                                                                    
                                                                                                    
                                                                                                    
                                                                                                    
                                                                                                    
                                                                                                    
                                                                                                    
                           
<?xpacket end="w"?></metadata>
<defs>
    <style>
      .cls-1 {
        fill: #fff;
        fill-rule: evenodd;
      }
    </style>
  </defs>
  <path id="В" class="cls-1" d="M562.341,7992.21a4.212,4.212,0,0,0-2.3-1.32v-0.08a3.426,3.426,0,0,0,1.569-1.39,4.117,4.117,0,0,0,.568-2.16,4.013,4.013,0,0,0-.412-1.85,3.041,3.041,0,0,0-1.246-1.27,4.655,4.655,0,0,0-1.652-.59,18.287,18.287,0,0,0-2.59-.14h-5.482v16.56h6.212a9.409,9.409,0,0,0,2.663-.32,5.208,5.208,0,0,0,1.923-1.04,4.363,4.363,0,0,0,1.178-1.55,5.018,5.018,0,0,0,.437-2.16A3.969,3.969,0,0,0,562.341,7992.21Zm-4.3-3.16a1.282,1.282,0,0,1-.646.64,2.268,2.268,0,0,1-.829.24c-0.268.01-.735,0.02-1.4,0.02h-0.49v-3.5h0.271c0.695,0,1.218,0,1.569.01a2.481,2.481,0,0,1,.912.2,1.219,1.219,0,0,1,.6.61,1.974,1.974,0,0,1,.193.82A2.418,2.418,0,0,1,558.037,7989.05Zm0.912,6.84a1.559,1.559,0,0,1-.777.72,3.324,3.324,0,0,1-1.188.3c-0.389.01-1.091,0.02-2.105,0.02H554.67v-4.15h0.719c0.695,0,1.249.01,1.663,0.02a2.993,2.993,0,0,1,.974.16,1.793,1.793,0,0,1,.876.66,2.138,2.138,0,0,1,.292,1.2A2.275,2.275,0,0,1,558.949,7995.89Z" transform="translate(-550.781 -7983.41)"/>
</svg>
