<svg xmlns="http://www.w3.org/2000/svg" xmlns:xlink="http://www.w3.org/1999/xlink" viewBox="0 0 250 250"><defs><radialGradient id="a" cx="-538.69817" cy="11584.61338" fx="-572.5878046833752" r="81.03848" gradientTransform="translate(1012.7644 -1949.8456) scale(1.64 0.1883)" gradientUnits="userSpaceOnUse"><stop offset="0" stop-color="#adadad"/><stop offset="0.13707" stop-color="#d0d0d0"/><stop offset="0.21535" stop-color="#dedede"/><stop offset="0.24285" stop-color="#e1e1e1"/><stop offset="0.46351" stop-color="#f2f2f2"/><stop offset="0.70421" stop-color="#fcfcfc"/><stop offset="1" stop-color="#fff"/></radialGradient><linearGradient id="b" x1="67.07986" y1="170.89496" x2="67.07986" y2="193.06951" gradientUnits="userSpaceOnUse"><stop offset="0" stop-color="#ad3a00"/><stop offset="1" stop-color="#f90"/></linearGradient><radialGradient id="c" cx="102.56461" cy="58.56344" r="141.37158" gradientUnits="userSpaceOnUse"><stop offset="0.13119" stop-color="#7d7d7d"/><stop offset="0.19018" stop-color="#717171"/><stop offset="0.45442" stop-color="#414141"/><stop offset="0.68701" stop-color="#1d1d1d"/><stop offset="0.87677" stop-color="#080808"/><stop offset="1"/></radialGradient></defs><g style="isolation:isolate"><ellipse cx="129.2994" cy="231.5371" rx="132.8913" ry="15.2609" opacity="0.7" fill="url(#a)" style="mix-blend-mode:multiply"/><polygon points="44.793 172.475 89.367 195.141 89.367 163.529 44.793 172.475" fill="url(#b)"/><polygon points="195.254 67.77 195.254 153.75 77.541 168.397 44.793 172.473 47.32 90.33 141.152 76.02 195.254 67.77" fill="#ffc800"/><path d="M64.172,106.49513l18.79543-2.5437v6.12574l-9.78257,1.32367V123.2189l8.29917-1.12307V128.33l-8.29917,1.12315v19.73237l-9.01286,1.22Z" fill="#fff"/><path d="M91.92548,102.73917l11.54066-1.56173q7.199-.97452,10.827,1.13717,3.62739,2.11075,3.62706,8.50782a17.90948,17.90948,0,0,1-1.2088,7.07569,9.7591,9.7591,0,0,1-4.28653,4.5643l6.15486,20.5802-9.28818,1.25692-5.05631-19.2113-3.29694.44636V145.43l-9.01286,1.21967Zm11.70572,17.11856a6.40176,6.40176,0,0,0,4.479-2.15142,8.28379,8.28379,0,0,0,1.29166-5.02647q0-3.25239-1.15465-4.61421-1.15371-1.36074-4.17634-.95247l-3.13252.42391v12.68517Z" fill="#fff"/><path d="M128.3617,97.80815l19.40017-2.62547v6.18018l-10.38738,1.4058v11.65516l8.02392-1.08589v6.23427l-8.02392,1.08589v13.76926l10.49764-1.42055v6.07165l-19.51043,2.64021Z" fill="#fff"/><path d="M156.885,93.94827l19.39944-2.62547V97.503l-10.38666,1.4058v11.65516l8.02393-1.08589v6.23427l-8.02393,1.08589v13.76926l10.497-1.42055v6.07165L156.885,137.85878Z" fill="#fff"/><polygon points="195.253 67.77 198.016 71.761 204.768 163.836 195.253 153.752 195.253 67.77" fill="#f90"/><polygon points="204.768 163.836 44.793 172.475 195.253 153.752 204.768 163.836" fill="#d96900"/><polygon points="195.253 67.77 193.489 152.02 44.793 172.475 195.253 153.752 195.253 67.77" fill="#ccc" style="mix-blend-mode:overlay"/><path d="M141.15209,76.02029c-44.20985,34.90794-58.97582,74.56-63.61117,92.37655l-32.74817,4.076,2.52744-82.14237Z" fill="url(#c)" style="mix-blend-mode:screen"/><polygon points="168.446 37.867 166.187 57.461 180.073 42.227 168.446 37.867" fill="#ffc800"/><polygon points="212.134 76.143 233.886 65.587 235.805 78.702 212.134 76.143" fill="#ffc800"/><polygon points="216.396 145.54 241.316 146.1 236.812 161.547 216.396 145.54" fill="#ffc800"/><polygon points="173.923 193.453 171.621 179.182 184.511 192.072 173.923 193.453" fill="#ffc800"/><polygon points="104.866 192.993 105.787 181.944 112.693 191.151 104.866 192.993" fill="#ffc800"/><polygon points="6.346 185.627 32.588 172.276 18.316 195.755 6.346 185.627" fill="#ffc800"/><polygon points="8.188 111.046 29.825 121.635 4.965 125.318 8.188 111.046" fill="#ffc800"/><polygon points="31.513 63.781 43.091 68.385 38.573 57.336 31.513 63.781" fill="#ffc800"/><path d="M98.638,52.64625l8.11519,15.7385s4.18051-18.68949,3.4428-18.68949C109.45817,49.69526,98.638,52.64625,98.638,52.64625Z" fill="#ffc800"/></g></svg>