<svg xmlns="http://www.w3.org/2000/svg" width="79.333" height="79.333" viewBox="0 0 79.333 79.333">
  <g id="Group_43" data-name="Group 43" transform="translate(-754.73 -297.667)">
    <path id="Path_58" data-name="Path 58" d="M794.4,298.167a39.167,39.167,0,1,0,39.167,39.167A39.211,39.211,0,0,0,794.4,298.167Zm0,76.546a37.379,37.379,0,1,1,37.379-37.379A37.421,37.421,0,0,1,794.4,374.713Z" fill="#FF0000" stroke="#FF0000" stroke-width="1"/>
    <path id="Path_59" data-name="Path 59" d="M842.89,340.153a.9.9,0,0,0-.649-.336.881.881,0,0,0-.682.261l-44.417,44.417a.894.894,0,0,0,.076,1.332,32.164,32.164,0,0,0,20.214,7.05,32.545,32.545,0,0,0,32.509-32.508A32.165,32.165,0,0,0,842.89,340.153Zm-21.18,22.3,1.693-1.693a2.967,2.967,0,0,1-1.693,2.245Zm-1.788,1.788v10.032a30,30,0,0,0-5.887-4.144ZM806,381.426a.1.1,0,0,1-.09.14H802.6l2.3-2.3Zm11.434,9.662a30.375,30.375,0,0,1-18.306-6.049l1.685-1.685h5.1a1.886,1.886,0,0,0,1.7-2.7l-1.381-2.72,6.478-6.478A28.271,28.271,0,0,1,820.173,377a.894.894,0,0,0,1.537-.62v-11.5a4.769,4.769,0,0,0,3.537-4.747,5.3,5.3,0,0,0-.117-1.1l5-5a10.577,10.577,0,0,1-1.183,13.619.894.894,0,1,0,1.264,1.264,12.363,12.363,0,0,0,1.2-16.168l2.3-2.3a15.678,15.678,0,0,1-1.224,20.74.894.894,0,1,0,1.264,1.264,17.466,17.466,0,0,0,1.229-23.273l2.71-2.71a21.1,21.1,0,0,1-1.21,28.713.894.894,0,1,0,1.264,1.264,22.885,22.885,0,0,0,1.213-31.243l3.143-3.144a30.37,30.37,0,0,1,6.05,18.307A30.755,30.755,0,0,1,817.432,391.088Z" transform="translate(-23.035 -23.034)" fill="#FF0000" stroke="#FF0000" stroke-width="1"/>
    <path id="Path_60" data-name="Path 60" d="M823.34,320.89a.891.891,0,0,0-.332-.648,32.507,32.507,0,0,0-45.7,45.7.892.892,0,0,0,.648.332H778a.894.894,0,0,0,.632-.262l44.446-44.447A.891.891,0,0,0,823.34,320.89Zm-47.172,26.152h-.184a.129.129,0,0,1-.129-.129v-3.15a.129.129,0,0,1,.129-.129h.184Zm1.788-5.675a1.593,1.593,0,0,1,1.412-1.583l9.014-1.034a30.238,30.238,0,0,0,16.746-7.553v5.8l-15.2,15.2a.871.871,0,0,0-.15-.041c-.158-.027-.3-.052-.426-.076-.3-.055-.581-.107-.969-.151l-9.013-1.035a1.593,1.593,0,0,1-1.412-1.583Zm2.771,13.163,1.072-1.558,6.38.732.213.027-6.067,6.067-1.725-3.932A1.371,1.371,0,0,1,780.726,354.529Zm26.189-19.323v-6.117a.894.894,0,0,0-1.538-.62,28.441,28.441,0,0,1-17.2,8.5l-9.014,1.035a3.38,3.38,0,0,0-3,3.359v.48h-.184a1.919,1.919,0,0,0-1.917,1.916v3.15a1.919,1.919,0,0,0,1.917,1.916h.184v.48a3.381,3.381,0,0,0,3,3.36l.623.072-.534.775a3.145,3.145,0,0,0-.291,3.067l2,4.572-2.882,2.883a30.357,30.357,0,0,1-6.168-18.464,30.755,30.755,0,0,1,30.72-30.72,30.357,30.357,0,0,1,18.464,6.168Z" transform="translate(-8.24 -8.239)" fill="#FF0000" stroke="#FF0000" stroke-width="1"/>
  </g>
</svg>
