<svg id="Group_4" data-name="Group 4" xmlns="http://www.w3.org/2000/svg" width="37.969" height="27.506" viewBox="0 0 37.969 27.506">
  <path id="Path_3" data-name="Path 3" d="M266.4,229.493a1.253,1.253,0,0,1,1.037,0,3.11,3.11,0,0,1,2.267,2.942c.007.346-.008.692-.008,1.029a.413.413,0,0,0-.238.116c-.968.691-1.951,1.383-2.912,2.082a7.127,7.127,0,0,0-1.152.868.612.612,0,0,0-.338.161q-4.793,3.307-9.58,6.607c-1.582,1.091-3.165,2.2-4.748,3.3H250.6c-.069-.054-.131-.123-.2-.169l-11.686-8.136c-.8-.553-1.6-1.114-2.4-1.667-.092-.062-.177-.193-.292-.123s-.038.208-.054.322a.6.6,0,0,0,0,.116v19.244c0,.139.007.284.016.422,0,.077-.008.146-.008.223a3.544,3.544,0,0,1-3.7-1.344,2.829,2.829,0,0,1-.522-1.621q0-10.751.007-21.5a3.088,3.088,0,0,1,2.636-2.958.832.832,0,0,1,.661.092,1.085,1.085,0,0,0,.138.131q7.618,5.647,15.235,11.3a.376.376,0,0,0,.53-.007q6.085-4.494,12.177-8.973Q264.751,230.717,266.4,229.493Z" transform="translate(-231.753 -229.376)" fill="#e65a4d"/>
  <path id="Path_4" data-name="Path 4" d="M267.521,229.495c-1.1.814-2.19,1.636-3.289,2.45q-6.084,4.5-12.177,8.973a.375.375,0,0,1-.53.008q-7.605-5.658-15.226-11.3a1.1,1.1,0,0,1-.139-.131c.093-.154.254-.1.384-.1h30.592C267.267,229.395,267.421,229.341,267.521,229.495Z" transform="translate(-232.87 -229.379)" fill="#f6f4ec"/>
  <path id="Path_5" data-name="Path 5" d="M237.4,259c-.007-.138-.016-.284-.016-.422V239.33a.59.59,0,0,1,0-.115c.016-.107-.054-.254.054-.322s.208.061.293.122c.8.553,1.6,1.114,2.4,1.667l11.685,8.136c.069.054.138.115.2.169-.031.031-.069.054-.1.085l-.077.076a.157.157,0,0,0-.154.077l-.077.077c-.007.016-.023.023-.031.039.016-.008.023-.023.039-.031l.077-.077a.156.156,0,0,0,.153-.077l.077-.077c.077,0,.154-.007.231-.007,1.068.745,2.144,1.482,3.211,2.227,3.181,2.2,6.362,4.4,9.534,6.623a14,14,0,0,1,1.7,1.229c-.139.131-.308.046-.461.069.007-.176-.146-.222-.261-.3-.584-.408-1.183-.8-1.752-1.222-.952-.7-1.92-1.367-2.889-2.044-.807-.561-1.605-1.144-2.436-1.674-.722-.461-1.391-1.014-2.112-1.483-.814-.522-1.582-1.106-2.389-1.636-.669-.438-1.322-.907-1.974-1.367a.3.3,0,0,0-.384-.039,9.266,9.266,0,0,0-.861.546c-.661.607-1.467,1-2.159,1.552-.884.7-1.836,1.321-2.781,1.944-1.567,1.038-3.089,2.159-4.648,3.2-.93.622-1.852,1.252-2.743,1.936-.246.184-.576.269-.73.576-.154-.016-.322.046-.469-.054q4.126-2.881,8.244-5.754a5.672,5.672,0,0,0,1.067-.792c.054-.015.123-.022.116-.1a.034.034,0,0,0-.023-.023c-.077-.007-.093.054-.107.107-.277.015-.446.231-.653.369Q241.8,256,237.4,259Zm13.214-8.989.076-.077a.155.155,0,0,0,.154-.077l.077-.077a.156.156,0,0,0,.154-.076c.007-.016.023-.023.031-.039-.015.007-.023.023-.038.031a.156.156,0,0,0-.154.077l-.077.077a.157.157,0,0,0-.154.077c-.023.031-.046.054-.069.084a.081.081,0,0,0-.039.031A.075.075,0,0,0,250.612,250.008Zm-1,.684a.156.156,0,0,0-.153.077c-.046.008-.107.008-.116.077a.069.069,0,0,0,.046.046c.061-.007.069-.061.077-.107.061-.007.115-.016.146-.093a.346.346,0,0,0,.085-.069.157.157,0,0,0,.154-.077l.076-.077a.156.156,0,0,0,.154-.077c.008-.016.023-.023.031-.039-.016.008-.023.023-.039.031a.156.156,0,0,0-.154.076l-.077.077a.157.157,0,0,0-.154.077Zm-1,.7a.156.156,0,0,0-.153.077c-.062.007-.123.015-.116.1a.036.036,0,0,0,.023.023c.084.007.093-.054.1-.116a.164.164,0,0,0,.146-.084.69.69,0,0,0,.085-.069.154.154,0,0,0,.153-.077l.077-.077a.156.156,0,0,0,.154-.076c.008-.016.023-.023.031-.039-.015.007-.022.023-.038.031a.157.157,0,0,0-.154.077l-.077.077a.157.157,0,0,0-.154.077A.375.375,0,0,0,248.614,251.391Zm-.768.546c.061-.008.123-.016.116-.1a.036.036,0,0,0-.023-.023c-.085-.007-.093.054-.1.115a.163.163,0,0,0-.154.077.267.267,0,0,0-.231.154c-.054.016-.122.016-.115.1a.034.034,0,0,0,.023.023c.077.007.092-.054.1-.115.108,0,.216-.008.231-.154A.18.18,0,0,0,247.846,251.937Zm2.52-1.821a.478.478,0,0,1-.031.062c.023.007.046.031.061.023s.023-.039.031-.062A.434.434,0,0,1,250.366,250.116Zm-2.159,1.591c-.007-.023-.016-.054-.031-.054a.065.065,0,0,0-.062.023.041.041,0,0,0,.031.069C248.169,251.744,248.184,251.722,248.207,251.706Zm3.2-2.19a.152.152,0,0,1,.031-.061c-.023-.007-.046-.031-.061-.023s-.023.039-.031.062A.565.565,0,0,0,251.4,249.516Zm-4.195,2.874a.45.45,0,0,0-.039-.054c-.015,0-.054.016-.054.031-.015.039.008.069.046.061C247.178,252.428,247.193,252.406,247.209,252.39Z" transform="translate(-233.178 -231.785)" fill="#e6e3d6"/>
  <path id="Path_6" data-name="Path 6" d="M271.609,259.181a12.732,12.732,0,0,0-1.7-1.229q-4.759-3.318-9.534-6.622c-1.067-.746-2.143-1.483-3.211-2.228,0-.023-.007-.054-.007-.077l4.748-3.3q4.794-3.307,9.58-6.607a.61.61,0,0,1,.338-.161v20.29C271.762,259.227,271.685,259.2,271.609,259.181Z" transform="translate(-238.195 -231.807)" fill="#b6b5ac"/>
  <path id="Path_7" data-name="Path 7" d="M238.229,262.809c.146-.307.484-.392.73-.576.891-.676,1.813-1.314,2.743-1.936,1.559-1.052,3.08-2.167,4.648-3.2.945-.622,1.9-1.245,2.781-1.944.7-.553,1.5-.945,2.159-1.552a9.984,9.984,0,0,1,.861-.546c.131-.1.246-.062.384.038.652.461,1.305.93,1.974,1.367.807.531,1.575,1.122,2.389,1.637.722.461,1.391,1.014,2.112,1.482.83.53,1.629,1.114,2.435,1.675.968.676,1.944,1.344,2.889,2.044.576.423,1.168.814,1.752,1.221.107.077.269.123.261.3Q252.288,262.805,238.229,262.809Z" transform="translate(-233.395 -235.366)" fill="#e6e3d6"/>
  <path id="Path_8" data-name="Path 8" d="M276.827,258.208v-20.29a7.126,7.126,0,0,1,1.152-.868c.968-.707,1.944-1.391,2.912-2.082a.392.392,0,0,1,.238-.116c.008.131.016.254.016.384q0,9.806.007,19.621a5.632,5.632,0,0,1-.122,1.337,2.211,2.211,0,0,1-1.483,1.675A6.976,6.976,0,0,1,276.827,258.208Z" transform="translate(-243.184 -230.765)" fill="#b1392f"/>
  <path id="Path_9" data-name="Path 9" d="M246.86,257.3a5.636,5.636,0,0,1-1.067.791q-4.114,2.881-8.244,5.755c-.054.015-.1.031-.153.046,0-.077.007-.146.007-.222q4.4-3.008,8.8-6.015c.208-.139.369-.361.653-.37Z" transform="translate(-233.184 -236.453)" fill="#bebdb3"/>
  <path id="Path_10" data-name="Path 10" d="M257.092,252.444a.27.27,0,0,0,.007.077c-.077,0-.153.007-.23.007h0c.031-.031.069-.054.1-.084Z" transform="translate(-238.122 -235.226)" fill="#c7c5bb"/>
  <path id="Path_11" data-name="Path 11" d="M250.879,256.612a.264.264,0,0,1,.231-.154l.007.007c-.015.146-.122.154-.231.154Z" transform="translate(-236.603 -236.244)" fill="#bebdb3"/>
  <path id="Path_12" data-name="Path 12" d="M254.77,253.936c.023.008.046.016.062.023-.008.023-.016.054-.031.062s-.038-.016-.061-.023A.465.465,0,0,1,254.77,253.936Z" transform="translate(-237.582 -235.605)" fill="#c4c2b8"/>
  <path id="Path_13" data-name="Path 13" d="M251.394,256.316c.007-.061.023-.115.1-.115a.034.034,0,0,1,.023.023c0,.084-.062.084-.116.1C251.4,256.332,251.394,256.316,251.394,256.316Z" transform="translate(-236.734 -236.179)" fill="#bebdb3"/>
  <path id="Path_14" data-name="Path 14" d="M251.856,256.046c-.016.016-.039.038-.054.031a.041.041,0,0,1-.031-.069c.007-.015.046-.022.061-.022S251.84,256.031,251.856,256.046Z" transform="translate(-236.827 -236.124)" fill="#bebdb3"/>
  <path id="Path_15" data-name="Path 15" d="M256.149,253.1a.15.15,0,0,1-.062-.031c.008-.023.016-.054.031-.061s.038.016.061.023A.263.263,0,0,0,256.149,253.1Z" transform="translate(-237.924 -235.369)" fill="#c7c5bb"/>
  <path id="Path_16" data-name="Path 16" d="M252.2,255.755c-.007.061-.023.116-.1.116a.036.036,0,0,1-.023-.023c0-.085.062-.085.116-.1Z" transform="translate(-236.906 -236.064)" fill="#bebdb3"/>
  <path id="Path_17" data-name="Path 17" d="M253.534,254.827c-.007.054-.016.1-.077.108a.069.069,0,0,1-.046-.046c.008-.061.062-.069.116-.077A.026.026,0,0,0,253.534,254.827Z" transform="translate(-237.245 -235.827)" fill="#c2c0b6"/>
  <path id="Path_18" data-name="Path 18" d="M250.858,256.682c-.016.061-.023.115-.1.115a.036.036,0,0,1-.023-.023c-.007-.084.061-.084.115-.1Z" transform="translate(-236.566 -236.298)" fill="#bebdb3"/>
  <path id="Path_19" data-name="Path 19" d="M250.517,256.965c-.016.016-.031.038-.046.038-.046.008-.061-.022-.046-.061a.081.081,0,0,1,.054-.031C250.486,256.918,250.5,256.949,250.517,256.965Z" transform="translate(-236.486 -236.359)" fill="#bebdb3"/>
  <path id="Path_20" data-name="Path 20" d="M250.056,257.244c.015-.061.023-.115.107-.107a.036.036,0,0,1,.023.023c.007.084-.062.084-.116.1Z" transform="translate(-236.394 -236.416)" fill="#bebdb3"/>
  <path id="Path_21" data-name="Path 21" d="M255.363,253.586a.155.155,0,0,1-.154.077l-.007-.007a.179.179,0,0,1,.161-.069Z" transform="translate(-237.699 -235.516)" fill="#c4c2b8"/>
  <path id="Path_22" data-name="Path 22" d="M251.2,256.432a.157.157,0,0,1,.154-.077l.007.008a.154.154,0,0,1-.153.077C251.206,256.448,251.2,256.432,251.2,256.432Z" transform="translate(-236.684 -236.218)" fill="#bebdb3"/>
  <path id="Path_23" data-name="Path 23" d="M254.183,254.384a.156.156,0,0,1,.154-.077l.007.007a.178.178,0,0,1-.161.069Z" transform="translate(-237.441 -235.699)" fill="#c2c0b6"/>
  <path id="Path_24" data-name="Path 24" d="M254.028,254.513a.156.156,0,0,1-.154.077h0a.15.15,0,0,1,.154-.077Z" transform="translate(-237.363 -235.751)" fill="#c2c0b6"/>
  <path id="Path_25" data-name="Path 25" d="M252.845,255.31a.157.157,0,0,1,.154-.077l.007.008a.177.177,0,0,1-.161.069Z" transform="translate(-237.102 -235.934)" fill="#bebdb3"/>
  <path id="Path_26" data-name="Path 26" d="M252.69,255.439a.156.156,0,0,1-.154.077h0c.031-.069.085-.077.154-.077Z" transform="translate(-237.023 -235.986)" fill="#bebdb3"/>
  <path id="Path_27" data-name="Path 27" d="M252.378,255.645a.156.156,0,0,1-.153.077l-.008-.007a.179.179,0,0,1,.161-.069Z" transform="translate(-236.942 -236.038)" fill="#bebdb3"/>
  <path id="Path_28" data-name="Path 28" d="M256.7,252.66a.156.156,0,0,1-.153.077l-.008-.007a.179.179,0,0,1,.161-.069Z" transform="translate(-238.039 -235.281)" fill="#c7c5bb"/>
  <path id="Path_29" data-name="Path 29" d="M255.521,253.457a.156.156,0,0,1,.154-.076h0a.15.15,0,0,1-.154.076Z" transform="translate(-237.78 -235.464)" fill="#c4c2b8"/>
  <path id="Path_30" data-name="Path 30" d="M253.716,254.718a.156.156,0,0,1-.153.077l-.008-.008a.179.179,0,0,1,.161-.069Z" transform="translate(-237.282 -235.802)" fill="#c2c0b6"/>
  <path id="Path_31" data-name="Path 31" d="M252.742,255.413l.077-.077.007.007c-.031.023-.054.046-.084.069Z" transform="translate(-237.076 -235.96)" fill="#bebdb3"/>
  <path id="Path_32" data-name="Path 32" d="M253.845,254.616l-.077.077-.007-.008c.031-.023.054-.046.084-.069Z" transform="translate(-237.334 -235.777)" fill="#c2c0b6"/>
  <path id="Path_33" data-name="Path 33" d="M255.11,253.766l.076-.077.008.008c-.031.022-.054.045-.084.069Z" transform="translate(-237.676 -235.542)" fill="#c4c2b8"/>
  <path id="Path_34" data-name="Path 34" d="M254.389,254.3c.016-.007.023-.023.039-.031-.016.007-.023.023-.039.031Z" transform="translate(-237.493 -235.689)" fill="#c2c0b6"/>
  <path id="Path_35" data-name="Path 35" d="M255.727,253.37c.016-.008.023-.023.039-.031-.016.008-.023.023-.039.031Z" transform="translate(-237.833 -235.453)" fill="#c4c2b8"/>
  <path id="Path_36" data-name="Path 36" d="M256.435,252.866c-.016.007-.023.023-.039.031.016-.007.023-.023.039-.031Z" transform="translate(-238.002 -235.333)" fill="#c7c5bb"/>
  <path id="Path_37" data-name="Path 37" d="M256.448,252.84l.077-.077.007.007c-.031.023-.054.046-.084.069Z" transform="translate(-238.015 -235.307)" fill="#c7c5bb"/>
  <path id="Path_38" data-name="Path 38" d="M255.418,253.56l.077-.077.008.008c-.031.023-.055.046-.085.069Z" transform="translate(-237.754 -235.49)" fill="#c4c2b8"/>
  <path id="Path_39" data-name="Path 39" d="M256.83,252.557l-.077.077-.007-.007c.031-.023.054-.046.084-.069Z" transform="translate(-238.091 -235.255)" fill="#c7c5bb"/>
  <path id="Path_40" data-name="Path 40" d="M255.1,253.792c-.016.008-.023.023-.039.031.016-.007.023-.022.039-.031Z" transform="translate(-237.663 -235.568)" fill="#c4c2b8"/>
  <path id="Path_41" data-name="Path 41" d="M253.051,255.223c.016-.007.023-.023.038-.031-.015.007-.022.023-.038.031Z" transform="translate(-237.154 -235.923)" fill="#bebdb3"/>
  <path id="Path_42" data-name="Path 42" d="M254.154,254.41l-.077.077-.007-.008c.031-.022.054-.046.084-.069Z" transform="translate(-237.412 -235.725)" fill="#c2c0b6"/>
  <path id="Path_43" data-name="Path 43" d="M252.507,255.542l-.077.077-.007-.007c.031-.023.054-.046.084-.069Z" transform="translate(-236.995 -236.012)" fill="#bebdb3"/>
</svg>
