<svg id="g3763" xmlns="http://www.w3.org/2000/svg" width="31.983" height="31.983" viewBox="0 0 31.983 31.983">
  <rect id="rect2987" width="31.983" height="31.983" rx="4.606" transform="translate(0 0)" fill="#00abf1"/>
  <g id="layer1" transform="translate(3.498 5.838)">
    <path id="path5" d="M266.592,246.705a10.245,10.245,0,0,1-2.944.807,5.146,5.146,0,0,0,2.254-2.836,10.277,10.277,0,0,1-3.256,1.243,5.129,5.129,0,0,0-8.868,3.508,5.183,5.183,0,0,0,.133,1.168,14.556,14.556,0,0,1-10.566-5.357,5.134,5.134,0,0,0,1.587,6.844,5.1,5.1,0,0,1-2.322-.641v.064a5.132,5.132,0,0,0,4.111,5.028,5.162,5.162,0,0,1-1.35.18,5.11,5.11,0,0,1-.964-.093,5.132,5.132,0,0,0,4.788,3.56,10.343,10.343,0,0,1-7.59,2.123,14.579,14.579,0,0,0,22.444-12.282c0-.223-.005-.444-.015-.664a10.425,10.425,0,0,0,2.557-2.653Z" transform="translate(-241.605 -244.301)" fill="#fff"/>
  </g>
</svg>
