<svg xmlns="http://www.w3.org/2000/svg" width="82.01" height="76.851" viewBox="0 0 82.01 76.851">
  <g id="Group_42" data-name="Group 42" transform="translate(-852 -4397.993)">
    <g id="Group_41" data-name="Group 41" transform="translate(853 4399)">
      <g id="Group_40" data-name="Group 40" transform="translate(0 3.033)">
        <path id="Path_52" data-name="Path 52" d="M271.083,411.832a1.523,1.523,0,0,1-2.137-.273,25.03,25.03,0,0,1-.17-30.365,1.523,1.523,0,0,1,2.431,1.836,21.984,21.984,0,0,0,.149,26.665A1.524,1.524,0,0,1,271.083,411.832Z" transform="translate(-243.819 -368.951)" fill="#FF0000" stroke="#FF0000" stroke-width="2"/>
        <path id="Path_53" data-name="Path 53" d="M248.9,391.572a31.821,31.821,0,0,0,6.455,19.31,1.523,1.523,0,1,1-2.432,1.834,35.154,35.154,0,0,1,.04-42.341,1.523,1.523,0,0,1,2.429,1.839A31.809,31.809,0,0,0,248.9,391.572Z" transform="translate(-236.065 -364.258)" fill="#FF0000" stroke="#FF0000" stroke-width="2"/>
        <path id="Path_54" data-name="Path 54" d="M231.608,387.347a41.5,41.5,0,0,0,8.639,25.482,1.524,1.524,0,0,1-2.417,1.855,44.947,44.947,0,0,1-.481-54.034,1.523,1.523,0,1,1,2.449,1.812A41.546,41.546,0,0,0,231.608,387.347Z" transform="translate(-228.561 -360.032)" fill="#FF0000" stroke="#FF0000" stroke-width="2"/>
      </g>
      <path id="Path_55" data-name="Path 55" d="M295.567,362.279a18.594,18.594,0,0,1,16.044-7.576l2.553.14a25.223,25.223,0,0,1,16.4,7.28c4.38,4.341,6.382,11.64,1.467,16.616a1.134,1.134,0,0,1-1.722-.13,1.171,1.171,0,0,1,.139-1.49c3.846-3.931,2.114-9.827-1.479-13.388a22.961,22.961,0,0,0-14.929-6.627l-2.538-.139a16.349,16.349,0,0,0-14.024,6.538,30.084,30.084,0,0,0-5.189,24.623,24.845,24.845,0,0,0,2.866,7.268c1.041,1.74,2.168,3.408,3.258,5.021.623.922,1.236,1.828,1.82,2.728a19.74,19.74,0,0,0,2.368,2.981,21.856,21.856,0,0,1,3.875,5.468,46.16,46.16,0,0,1,2.607,6.4,13.074,13.074,0,0,0,6.706,7.719l1.262.618a8.119,8.119,0,0,0,5.693.618c2.856-.781,4.209-2.715,4.466-6.616a1.173,1.173,0,0,1,.913-1.105,1.135,1.135,0,0,1,1.351,1.183c-.16,2.564-.781,6.183-4.3,8.017a9.76,9.76,0,0,1-8.766.107l-1.628-.8a15.6,15.6,0,0,1-7.907-9.229,43.824,43.824,0,0,0-2.42-5.9,19.606,19.606,0,0,0-3.474-4.9,21.964,21.964,0,0,1-2.642-3.324c-.576-.888-1.181-1.783-1.8-2.693-1.107-1.638-2.252-3.333-3.325-5.127a27.1,27.1,0,0,1-3.131-7.929A32.348,32.348,0,0,1,295.567,362.279Z" transform="translate(-254.901 -354.675)" fill="#FF0000" stroke="#FF0000" stroke-width="2"/>
      <path id="Path_56" data-name="Path 56" d="M307.693,396.578a1.132,1.132,0,0,1-1.683-.4c-2.71-5.35-2.2-10.93-1.3-14.67a16.4,16.4,0,0,1,9.657-11.472,11.829,11.829,0,0,1,5.056-.942l1.775.109a17.072,17.072,0,0,1,11.617,5.759,1.182,1.182,0,0,1,.073,1.533,1.134,1.134,0,0,1-1.713.03,14.834,14.834,0,0,0-10.116-5.061l-1.775-.109a9.654,9.654,0,0,0-4.073.782,14.141,14.141,0,0,0-8.3,9.9,19.189,19.189,0,0,0,1.075,13.032A1.2,1.2,0,0,1,307.693,396.578Z" transform="translate(-261.285 -360.924)" fill="#FF0000" stroke="#FF0000" stroke-width="2"/>
      <path id="Path_57" data-name="Path 57" d="M333.89,421.181l2.071,1.507a1.19,1.19,0,0,1,.406,1.485,1.133,1.133,0,0,1-1.672.394l-2.111-1.535a9.717,9.717,0,0,1-3.335-4.138,9.494,9.494,0,0,1,4.582-12.146l3.011-1.478a1.193,1.193,0,0,1,1.506.335,1.133,1.133,0,0,1-.433,1.661l-3.087,1.515a7.227,7.227,0,0,0-3.437,9.365A7.414,7.414,0,0,0,333.89,421.181Z" transform="translate(-271.931 -376.568)" fill="#FF0000" stroke="#FF0000" stroke-width="2"/>
    </g>
  </g>
</svg>
