<svg xmlns="http://www.w3.org/2000/svg" width="78.961" height="55.403" viewBox="0 0 78.961 55.403">
  <g id="Group_58" data-name="Group 58" transform="translate(-324.044 -4481)">
    <g id="Group_57" data-name="Group 57" transform="translate(255.455 4006.33)">
      <g id="Group_46" data-name="Group 46" transform="translate(119.695 475.67)">
        <g id="Group_44" data-name="Group 44" transform="translate(8.47 25.664)">
          <path id="Path_61" data-name="Path 61" d="M605.108,724.289a.664.664,0,0,1-.133-1.315c4.927-1.013,6.729-2.85,6.747-2.869a.674.674,0,0,1,.483-.208,9.388,9.388,0,0,0,3.64-.7c-.971-6.785-4.409-10.159-10.492-10.3-1.7,2.9-5.385,4.7-5.548,4.783a.664.664,0,0,1-.579-1.2c.037-.018,3.756-1.851,5.147-4.56a.664.664,0,0,1,.591-.361c7.157,0,11.283,4.016,12.263,11.935a.664.664,0,0,1-.324.655,9.811,9.811,0,0,1-4.431,1.065c-.647.567-2.767,2.136-7.228,3.053A.663.663,0,0,1,605.108,724.289Z" transform="translate(-598.85 -707.566)" fill="#FF0000" stroke="#FF0000" stroke-width="2"/>
        </g>
        <g id="Group_45" data-name="Group 45" transform="translate(0 0)">
          <path id="Path_62" data-name="Path 62" d="M530.1,501.458h-.941a7.719,7.719,0,0,1-4.947-2.421.664.664,0,1,1,.915-.963,6.437,6.437,0,0,0,4.033,2.055h.941c1.427,0,3.454-1.315,5.164-3.351a11.469,11.469,0,0,0,2.949-6.869v-2.976a11.581,11.581,0,0,0-2.2-7.088A6.914,6.914,0,0,0,530.4,477h-1.556a6.878,6.878,0,0,0-5.364,2.557.664.664,0,0,1-1.013-.859,8.275,8.275,0,0,1,6.377-3.026H530.4a8.3,8.3,0,0,1,6.649,3.362,12.908,12.908,0,0,1,2.483,7.9v2.976a12.629,12.629,0,0,1-3.26,7.723C534.3,499.992,531.927,501.458,530.1,501.458Z" transform="translate(-522.314 -475.67)" fill="#FF0000" stroke="#FF0000" stroke-width="2"/>
        </g>
      </g>
      <g id="Group_49" data-name="Group 49" transform="translate(69.593 475.67)">
        <g id="Group_47" data-name="Group 47" transform="translate(0 25.664)">
          <path id="Path_63" data-name="Path 63" d="M81.715,724.289a.662.662,0,0,1-.134-.014c-4.46-.917-6.58-2.487-7.228-3.053a9.812,9.812,0,0,1-4.431-1.065.664.664,0,0,1-.324-.655c.98-7.92,5.105-11.935,12.262-11.935a.664.664,0,0,1,.591.361c1.391,2.709,5.11,4.542,5.147,4.56a.664.664,0,0,1-.58,1.195c-.162-.079-3.843-1.888-5.548-4.783-6.083.137-9.521,3.51-10.492,10.3a9.39,9.39,0,0,0,3.64.7.664.664,0,0,1,.486.212c.015.015,1.816,1.853,6.744,2.866a.664.664,0,0,1-.133,1.315Z" transform="translate(-69.593 -707.566)" fill="#FF0000" stroke="#FF0000" stroke-width="2"/>
        </g>
        <g id="Group_48" data-name="Group 48" transform="translate(9.627 0)">
          <path id="Path_64" data-name="Path 64" d="M166.961,501.458h-.941c-1.831,0-4.2-1.466-6.18-3.825a12.63,12.63,0,0,1-3.26-7.723v-2.976a12.908,12.908,0,0,1,2.483-7.9,8.3,8.3,0,0,1,6.649-3.362h1.556a8.275,8.275,0,0,1,6.377,3.026.664.664,0,0,1-1.013.859A6.877,6.877,0,0,0,167.268,477h-1.556a6.914,6.914,0,0,0-5.6,2.847,11.581,11.581,0,0,0-2.2,7.088v2.976a11.47,11.47,0,0,0,2.949,6.869c1.71,2.036,3.736,3.351,5.163,3.351h.941a6.437,6.437,0,0,0,4.033-2.055.664.664,0,0,1,.915.963A7.72,7.72,0,0,1,166.961,501.458Z" transform="translate(-156.58 -475.67)" fill="#FF0000" stroke="#FF0000" stroke-width="2"/>
        </g>
      </g>
      <g id="Group_52" data-name="Group 52" transform="translate(83.857 475.67)">
        <g id="Group_50" data-name="Group 50" transform="translate(0 32.019)">
          <path id="Path_65" data-name="Path 65" d="M222.722,786.38h-.046c-12.374,0-17.3-3.729-18.352-4.674a12.086,12.086,0,0,1-5.507-1.308.664.664,0,0,1-.324-.655c.579-4.678,2.052-8.288,4.379-10.729,2.542-2.666,6.161-4.019,10.757-4.019a.664.664,0,0,1,.591.361,14.755,14.755,0,0,0,8.5,7.18,14.8,14.8,0,0,0,8.458-7.18.664.664,0,0,1,.591-.361c4.6,0,8.215,1.352,10.757,4.019,2.327,2.441,3.8,6.05,4.379,10.729a.664.664,0,0,1-.324.655,12.087,12.087,0,0,1-5.507,1.308C240.024,782.651,235.1,786.38,222.722,786.38Zm-22.85-6.94a11.78,11.78,0,0,0,4.721.94.664.664,0,0,1,.486.212,11.714,11.714,0,0,0,3.772,2.222c4.516,1.85,10.01,2.238,13.825,2.238h.046c3.814,0,9.309-.388,13.825-2.238a11.7,11.7,0,0,0,3.775-2.225.673.673,0,0,1,.484-.209,11.776,11.776,0,0,0,4.721-.94c-1.205-8.677-5.58-12.972-13.359-13.112a15.819,15.819,0,0,1-9.285,7.543.663.663,0,0,1-.32,0,15.85,15.85,0,0,1-9.331-7.544C205.453,766.468,201.078,770.762,199.873,779.44Z" transform="translate(-198.488 -764.996)" fill="#FF0000" stroke="#FF0000" stroke-width="2"/>
        </g>
        <g id="Group_51" data-name="Group 51" transform="translate(12.011 0)">
          <path id="Path_66" data-name="Path 66" d="M319.807,507.516h-1.174c-4.691,0-11.613-7.206-11.613-13.679v-4.278a15.941,15.941,0,0,1,3.064-9.758,10.2,10.2,0,0,1,8.166-4.131h1.941a10.2,10.2,0,0,1,8.166,4.131,15.941,15.941,0,0,1,3.064,9.758v4.278C331.42,500.31,324.5,507.516,319.807,507.516ZM318.25,477a8.9,8.9,0,0,0-7.116,3.616,14.613,14.613,0,0,0-2.785,8.944v4.278c0,2.633,1.385,5.766,3.706,8.38,2.141,2.412,4.724,3.971,6.579,3.971h1.174c1.856,0,4.439-1.559,6.58-3.971,2.32-2.614,3.706-5.747,3.706-8.38v-4.278a14.613,14.613,0,0,0-2.785-8.944A8.9,8.9,0,0,0,320.191,477Z" transform="translate(-307.02 -475.67)" fill="#FF0000" stroke="#FF0000" stroke-width="2"/>
        </g>
      </g>
      <g id="Group_53" data-name="Group 53" transform="translate(89.445 520.382)">
        <path id="Path_67" data-name="Path 67" d="M249.645,883.686a.664.664,0,0,1-.664-.664v-2.67a.664.664,0,1,1,1.328,0v2.67A.664.664,0,0,1,249.645,883.686Z" transform="translate(-248.981 -879.687)" fill="#FF0000" stroke="#FF0000" stroke-width="2"/>
      </g>
      <g id="Group_54" data-name="Group 54" transform="translate(125.404 520.382)">
        <path id="Path_68" data-name="Path 68" d="M574.562,883.686a.664.664,0,0,1-.664-.664v-2.67a.664.664,0,1,1,1.328,0v2.67A.664.664,0,0,1,574.562,883.686Z" transform="translate(-573.898 -879.687)" fill="#FF0000" stroke="#FF0000" stroke-width="2"/>
      </g>
      <g id="Group_55" data-name="Group 55" transform="translate(140.909 511.557)">
        <path id="Path_69" data-name="Path 69" d="M714.664,803.312a.664.664,0,0,1-.664-.664v-2.04a.664.664,0,1,1,1.328,0v2.04A.664.664,0,0,1,714.664,803.312Z" transform="translate(-714 -799.944)" fill="#FF0000" stroke="#FF0000" stroke-width="2"/>
      </g>
      <g id="Group_56" data-name="Group 56" transform="translate(74.021 511.557)">
        <path id="Path_70" data-name="Path 70" d="M110.268,803.312a.664.664,0,0,1-.664-.664v-2.04a.664.664,0,1,1,1.328,0v2.04A.664.664,0,0,1,110.268,803.312Z" transform="translate(-109.604 -799.944)" fill="#FF0000" stroke="#FF0000" stroke-width="2"/>
      </g>
    </g>
  </g>
</svg>
