<svg
        xmlns="http://www.w3.org/2000/svg"
        xmlns:xlink="http://www.w3.org/1999/xlink"
        width="37px" height="31px">
    <path fill-rule="evenodd"  fill="rgb(61, 178, 237)"
          d="M35.368,16.974 C33.855,16.928 32.753,16.561 32.065,17.982 C31.377,19.403 29.359,19.816 28.166,18.623 C26.973,17.432 28.258,16.882 26.744,16.103 C25.230,15.324 28.257,15.782 28.854,16.745 C29.450,17.707 29.909,16.287 29.221,15.508 C28.533,14.728 31.882,16.928 30.643,14.958 C29.405,12.987 37.066,16.562 31.791,13.446 C34.520,13.469 33.694,12.300 33.053,12.184 C32.410,12.071 35.415,11.498 33.122,10.786 C32.021,10.328 36.792,8.884 32.319,9.160 C30.963,9.169 30.828,7.601 29.176,6.479 C27.524,5.356 25.919,5.952 24.772,7.992 C23.626,10.030 21.630,10.581 21.355,9.090 C21.080,7.601 23.557,7.739 23.258,5.676 C22.960,3.613 24.772,2.766 22.341,1.780 C19.909,0.796 20.162,-0.556 18.510,0.223 C16.859,1.001 15.849,0.429 15.689,2.147 C15.529,3.866 13.835,2.810 14.794,4.737 C15.849,6.857 14.884,6.708 14.932,7.143 C14.932,7.143 15.083,8.656 15.849,9.137 C16.860,9.771 17.387,9.824 17.478,9.870 C17.340,10.581 15.402,11.349 14.794,10.375 L12.134,5.104 C12.134,5.104 13.372,-0.235 9.978,1.712 C8.418,2.926 12.363,3.477 9.680,5.310 C8.166,6.089 5.421,7.348 4.779,10.603 L2.510,9.966 L2.510,8.500 L0.002,9.942 L2.510,12.044 L2.510,10.700 L4.622,11.453 C4.622,11.453 4.446,13.856 5.478,15.186 C6.942,17.071 9.138,18.211 9.138,19.677 C9.138,21.144 7.367,20.914 8.239,22.335 C9.111,23.757 10.977,21.740 10.289,18.806 L13.700,15.231 C13.700,15.231 14.674,14.360 16.873,16.334 L18.895,18.165 C18.895,18.165 18.668,22.473 19.998,23.940 C21.329,25.406 22.994,26.577 24.586,27.285 C27.523,28.591 25.665,30.905 27.110,30.998 C27.110,30.998 29.657,30.516 29.060,27.767 C28.464,25.017 27.799,25.315 26.904,25.246 C25.276,24.902 25.138,23.320 25.344,22.060 C25.551,20.800 29.267,27.377 33.028,21.465 C35.068,18.595 36.010,18.899 36.698,18.715 C37.387,18.532 36.882,17.021 35.368,16.974 ZM10.137,17.776 C10.023,17.501 10.115,17.638 9.060,16.217 C8.004,14.796 8.448,12.909 8.448,12.909 C10.810,14.354 12.890,14.842 12.890,14.842 L10.137,17.776 ZM13.096,12.047 L8.523,11.064 C7.881,6.619 11.536,5.814 11.536,5.814 L13.945,10.833 C13.119,11.130 13.096,12.047 13.096,12.047 Z"/>
</svg>