<svg
        xmlns="http://www.w3.org/2000/svg"
        xmlns:xlink="http://www.w3.org/1999/xlink"
        width="161px" height="103px">
    <path fill-rule="evenodd"  fill="rgb(198, 29, 235)"
          d="M104.700,70.710 C106.092,70.710 107.221,71.852 107.221,73.261 C107.221,74.669 106.092,75.811 104.700,75.811 L67.055,75.811 C65.662,75.811 64.534,74.669 64.534,73.261 C64.534,71.852 65.663,70.710 67.055,70.710 L104.700,70.710 ZM61.677,54.048 C61.032,54.048 60.387,53.800 59.895,53.302 L46.450,39.700 C45.465,38.705 45.465,37.090 46.450,36.094 C47.434,35.098 49.030,35.098 50.015,36.094 L61.677,47.892 L84.095,25.213 C85.079,24.217 86.676,24.217 87.660,25.213 C88.644,26.209 88.644,27.824 87.660,28.819 L63.459,53.302 C62.967,53.800 62.322,54.048 61.677,54.048 ZM158.479,86.691 L150.239,86.691 C150.240,86.747 150.243,86.803 150.243,86.860 C150.243,95.767 143.081,103.012 134.278,103.012 C125.475,103.012 118.312,95.767 118.312,86.860 C118.312,86.804 118.316,86.747 118.317,86.691 L61.504,86.691 C61.505,86.747 61.509,86.803 61.509,86.860 C61.509,95.767 54.346,103.012 45.543,103.012 C36.740,103.012 29.578,95.767 29.578,86.860 C29.578,86.804 29.581,86.747 29.582,86.691 L15.965,86.691 C13.092,86.691 10.755,84.326 10.755,81.420 L10.755,75.810 L2.520,75.810 C1.128,75.810 -0.001,74.669 -0.001,73.259 C-0.001,71.851 1.128,70.709 2.520,70.709 L26.721,70.709 C28.113,70.709 29.241,71.851 29.241,73.259 C29.241,74.669 28.113,75.810 26.721,75.810 L15.797,75.810 L15.797,81.420 C15.797,81.514 15.872,81.591 15.965,81.591 L30.455,81.591 C32.620,75.265 38.564,70.709 45.543,70.709 C52.522,70.709 58.466,75.265 60.631,81.591 L112.934,81.591 L112.934,62.380 C112.934,60.970 114.063,59.829 115.455,59.829 C116.847,59.829 117.976,60.971 117.976,62.380 L117.976,81.591 L119.190,81.591 C121.355,75.266 127.299,70.710 134.278,70.710 C141.257,70.710 147.201,75.266 149.366,81.591 L155.958,81.591 L155.958,70.370 L153.100,70.370 C148.745,70.370 145.202,66.786 145.202,62.380 L145.202,56.939 C145.202,55.530 146.331,54.389 147.723,54.389 L155.561,54.389 C154.494,51.041 151.387,48.611 147.728,48.608 C147.726,48.608 147.723,48.609 147.721,48.609 C147.719,48.609 147.717,48.608 147.714,48.608 L117.977,48.608 L117.977,51.499 C117.977,52.908 116.848,54.050 115.456,54.050 C114.063,54.050 112.935,52.908 112.935,51.499 L112.935,5.255 C112.935,5.161 112.859,5.085 112.767,5.085 L15.965,5.085 C15.872,5.085 15.797,5.161 15.797,5.255 L15.797,51.498 C15.797,52.908 14.668,54.049 13.276,54.049 C11.883,54.049 10.755,52.907 10.755,51.498 L10.755,5.255 C10.755,2.348 13.092,-0.015 15.965,-0.015 L112.767,-0.015 C115.640,-0.015 117.977,2.348 117.977,5.255 L117.977,10.866 L136.967,10.866 C142.805,10.866 147.555,15.670 147.555,21.577 L147.555,24.296 C147.555,25.522 146.700,26.545 145.560,26.790 L149.729,43.661 C156.102,44.643 161.000,50.223 161.000,56.939 L161.000,84.141 C161.000,85.549 159.871,86.691 158.479,86.691 ZM45.543,75.811 C39.520,75.811 34.619,80.767 34.619,86.861 C34.619,92.955 39.520,97.912 45.543,97.912 C51.567,97.912 56.467,92.955 56.467,86.861 C56.467,80.767 51.567,75.811 45.543,75.811 ZM134.279,75.811 C128.255,75.811 123.355,80.767 123.355,86.861 C123.355,92.955 128.255,97.912 134.279,97.912 C140.302,97.912 145.202,92.955 145.202,86.861 C145.202,80.767 140.302,75.811 134.279,75.811 ZM142.513,21.577 C142.513,18.483 140.025,15.966 136.967,15.966 L117.977,15.966 L117.977,21.746 L142.513,21.746 L142.513,21.577 ZM140.377,26.846 L117.977,26.846 L117.977,43.507 L144.495,43.507 L140.377,26.846 ZM155.958,59.489 L150.244,59.489 L150.244,62.380 C150.244,63.973 151.526,65.269 153.101,65.269 L155.958,65.269 L155.958,59.489 ZM134.279,92.132 C131.406,92.132 129.069,89.768 129.069,86.861 C129.069,83.955 131.406,81.591 134.279,81.591 C137.151,81.591 139.488,83.955 139.488,86.861 C139.488,89.768 137.151,92.132 134.279,92.132 ZM45.543,92.132 C42.670,92.132 40.333,89.768 40.333,86.861 C40.333,83.955 42.670,81.591 45.543,81.591 C48.416,81.591 50.753,83.955 50.753,86.861 C50.753,89.768 48.416,92.132 45.543,92.132 ZM42.686,62.380 C42.686,63.788 41.557,64.930 40.165,64.930 L7.898,64.930 C6.505,64.930 5.377,63.788 5.377,62.380 C5.377,60.971 6.506,59.830 7.898,59.830 L40.165,59.830 C41.557,59.830 42.686,60.971 42.686,62.380 Z"/>
</svg>