<svg xmlns="http://www.w3.org/2000/svg"><symbol id="icon-fb" viewBox="0 0 32 32"><g fill="currentColor"><path d="M30 2v28H2V2h28m1-1H1v30h30V1z"/><path d="M30 2v28H2V2h28m1-1H1v30h30V1z"/><path d="M13.892 24.123h3.357V16h2.238l.297-2.8H17.25l.002-1.402c0-.73.07-1.12 1.117-1.12h1.4v-2.8h-2.24c-2.69 0-3.638 1.357-3.638 3.64V13.2h-1.677V16h1.677v8.123z"/></g></symbol><symbol id="icon-git" viewBox="0 0 32 32"><g fill="currentColor"><path d="M30 2v28H2V2h28m1-1H1v30h30V1z"/><path d="M30 2v28H2V2h28m1-1H1v30h30V1z"/><path d="M19.246 24.945h-4.768s.007-1.415 0-2.385c-3.264.703-4.175-1.79-4.175-1.79-.596-1.192-1.193-1.788-1.193-1.788-1.193-.708 0-.596 0-.596 1.193 0 1.79 1.193 1.79 1.193 1.046 1.776 2.908 1.49 3.577 1.192 0-.596.26-1.498.596-1.79-2.605-.292-4.773-1.788-4.773-4.77s.6-3.578 1.195-4.175c-.12-.294-.62-1.38.018-2.982 0 0 1.172 0 2.365 1.79.59-.592 2.385-.597 2.982-.597.595 0 2.39.005 2.98.596 1.194-1.79 2.37-1.79 2.37-1.79.637 1.602.138 2.69.017 2.983.596.596 1.193 1.193 1.193 4.175s-2.165 4.477-4.77 4.77c.335.292.595 1.318.595 1.79v4.173z"/></g></symbol><symbol id="icon-tw" viewBox="0 0 32 32"><g fill="currentColor"><path d="M30 2v28H2V2h28m1-1H1v30h30V1z"/><path d="M30 2v28H2V2h28m1-1H1v30h30V1z"/><path d="M18.14 9.16c-1.528.556-2.494 1.99-2.384 3.562l.037.606-.612-.074c-2.225-.284-4.17-1.25-5.822-2.87L8.55 9.58l-.208.594c-.44 1.323-.16 2.72.758 3.66.49.52.38.595-.465.285-.294-.1-.55-.174-.575-.137-.085.087.208 1.212.44 1.657.318.62.966 1.224 1.676 1.583l.6.284-.71.012c-.684 0-.708.01-.635.272.246.804 1.212 1.657 2.288 2.03l.758.258-.66.396c-.978.57-2.128.89-3.278.915-.55.013-1.004.063-1.004.1 0 .123 1.493.816 2.36 1.088 2.606.804 5.702.457 8.026-.915 1.65-.977 3.302-2.92 4.074-4.8.416-1 .832-2.83.832-3.708 0-.57.037-.643.722-1.323.404-.396.783-.828.856-.952.123-.235.11-.235-.514-.025-1.04.37-1.187.322-.673-.235.38-.396.832-1.113.832-1.323 0-.037-.184.025-.393.136-.22.124-.71.31-1.076.42l-.66.21-.6-.408c-.33-.222-.794-.47-1.04-.544-.622-.172-1.577-.148-2.14.05z"/></g></symbol></svg>