<svg
        xmlns="http://www.w3.org/2000/svg"
        xmlns:xlink="http://www.w3.org/1999/xlink"
        width="126px" height="127px">
    <path fill-rule="evenodd"  fill="rgb(198, 29, 235)"
          d="M119.071,28.677 L113.583,28.677 L94.060,41.030 L96.152,28.677 L90.748,28.677 C87.402,28.677 84.679,25.919 84.679,22.532 L84.679,6.145 C84.679,2.756 87.402,-0.001 90.748,-0.001 L119.071,-0.001 C122.417,-0.001 125.140,2.756 125.140,6.145 L125.140,22.532 C125.140,25.919 122.417,28.677 119.071,28.677 ZM121.094,6.145 C121.094,5.016 120.186,4.096 119.071,4.096 L90.748,4.096 C89.634,4.096 88.725,5.016 88.725,6.145 L88.725,22.532 C88.725,23.660 89.634,24.580 90.748,24.580 L100.951,24.580 L99.573,32.710 L112.421,24.580 L119.071,24.580 C120.186,24.580 121.094,23.660 121.094,22.532 L121.094,6.145 ZM113.002,16.386 L117.048,16.386 L117.048,20.483 L113.002,20.483 L113.002,16.386 ZM92.771,8.192 L117.048,8.192 L117.048,12.289 L92.771,12.289 L92.771,8.192 ZM108.956,20.483 L92.771,20.483 L92.771,16.386 L108.956,16.386 L108.956,20.483 ZM88.725,71.693 C88.725,75.081 86.002,77.839 82.656,77.839 L78.571,77.839 C76.941,80.027 74.894,81.878 72.541,83.261 L72.541,84.321 L86.061,86.812 C91.151,87.750 95.327,91.416 96.963,96.384 L101.647,110.612 L58.236,110.612 L61.309,113.718 L51.454,122.860 C48.843,125.506 45.288,126.999 41.505,126.999 C37.722,126.999 34.165,125.506 31.491,122.798 L4.149,95.114 C1.475,92.406 0.002,88.807 0.002,84.977 C0.002,81.146 1.475,77.546 4.149,74.837 L13.180,65.693 L28.179,80.880 L20.188,88.969 C19.399,89.768 19.399,91.068 20.188,91.867 L27.079,98.844 L27.888,96.384 C29.522,91.416 33.700,87.750 38.788,86.812 L52.310,84.321 L52.310,83.261 C47.346,80.343 43.712,75.361 42.577,69.474 C38.899,68.704 36.126,65.400 36.126,61.451 L36.126,47.112 C36.126,32.429 47.924,20.483 62.425,20.483 C76.927,20.483 88.725,32.429 88.725,47.112 L88.725,71.693 ZM52.800,116.055 L55.456,113.593 L46.172,104.193 L43.500,106.638 L52.800,116.055 ZM20.259,83.104 L22.456,80.880 L13.178,71.486 L10.981,73.710 L20.259,83.104 ZM17.324,94.768 C14.958,92.371 14.958,88.473 17.324,86.077 L17.396,86.003 L8.119,76.608 L7.006,77.736 C5.096,79.670 4.044,82.242 4.044,84.979 C4.044,87.713 5.096,90.286 7.006,92.220 L34.348,119.901 C36.259,121.835 38.800,122.902 41.501,122.902 C44.202,122.902 46.743,121.835 48.653,119.906 L49.814,118.828 L40.494,109.391 L40.342,109.529 C39.270,110.618 37.746,111.257 36.124,111.257 C34.501,111.257 32.978,110.616 31.831,109.457 L17.324,94.768 ZM39.510,90.839 C35.875,91.511 32.891,94.131 31.724,97.679 L30.275,102.083 L34.693,106.556 C35.458,107.333 36.791,107.333 37.554,106.556 L46.310,98.537 L54.190,106.515 L96.035,106.515 L93.123,97.681 C91.956,94.131 88.972,91.513 85.337,90.841 L71.197,88.240 L62.425,97.121 L53.652,88.237 L39.510,90.839 ZM68.495,85.183 L68.495,85.087 C66.577,85.698 64.540,86.032 62.425,86.032 C60.311,86.032 58.274,85.698 56.356,85.087 L56.356,85.183 L62.425,91.329 L68.495,85.183 ZM46.241,65.548 C46.241,74.583 53.502,81.935 62.425,81.935 C66.514,81.935 70.243,80.380 73.095,77.839 L62.425,77.839 L62.425,73.741 L76.421,73.741 C77.805,71.328 78.610,68.534 78.610,65.548 L78.610,55.228 C72.535,54.767 66.870,52.227 62.425,47.948 C57.981,52.227 52.316,54.765 46.241,55.228 L46.241,65.548 ZM42.195,64.978 L42.195,57.924 C40.991,58.635 40.172,59.941 40.172,61.451 C40.172,62.960 40.991,64.267 42.195,64.978 ZM84.679,47.112 C84.679,34.689 74.695,24.580 62.425,24.580 C50.156,24.580 40.172,34.689 40.172,47.112 L40.172,54.396 C40.799,54.026 41.475,53.739 42.195,53.549 L42.195,51.209 L44.218,51.209 C50.200,51.209 55.824,48.849 60.057,44.566 L62.425,42.168 L64.795,44.566 C69.027,48.849 74.651,51.209 80.633,51.209 L82.656,51.209 L82.656,53.549 C83.376,53.736 84.052,54.026 84.679,54.396 L84.679,47.112 ZM82.656,57.924 L82.656,64.978 C83.860,64.267 84.679,62.960 84.679,61.451 C84.679,59.941 83.860,58.635 82.656,57.924 ZM84.679,68.506 C83.937,68.944 83.140,69.292 82.274,69.474 C81.987,70.959 81.541,72.387 80.955,73.741 L82.656,73.741 C83.771,73.741 84.679,72.823 84.679,71.693 L84.679,68.506 ZM62.425,10.241 C38.110,10.241 17.129,27.110 11.396,50.734 L16.878,47.403 L18.960,50.916 L7.111,58.116 L0.000,46.119 L3.470,44.011 L7.303,50.481 C13.223,24.657 35.992,6.145 62.425,6.145 C68.147,6.145 73.793,7.005 79.209,8.704 L78.011,12.617 C72.984,11.040 67.740,10.241 62.425,10.241 ZM112.209,46.286 L108.669,52.262 L105.199,50.154 L112.308,38.155 L124.157,45.354 L122.075,48.868 L116.130,45.257 C118.074,51.115 119.071,57.233 119.071,63.499 C119.071,76.617 114.584,89.444 106.435,99.613 L103.293,97.031 C110.858,87.590 115.025,75.681 115.025,63.499 C115.025,57.582 114.072,51.807 112.209,46.286 Z"/>
</svg>