<svg xmlns="http://www.w3.org/2000/svg" xmlns:xlink="http://www.w3.org/1999/xlink" style="height:0;position:absolute;z-index:-1">
    <defs>
      
        <symbol viewBox="0 0 36 30" id="icon-twitter"><path fill="#7ED2F6" fill-rule="evenodd" d="M36 3c-1.324 1.155-2.748 1.56-4.5 1.5 1.784-.693 2.955-2.177 3-4.5-.921 1.421-2.502 2.052-4.5 3-1.03-2.08-2.952-3-4.5-3-5.345 0-8.848 4.562-7.5 9-6.408-.017-11.85-3.032-15-7.5C.572 4.79 1.503 9.243 4.5 12c-.918-.542-2.058-.882-3-1.5-.134 3.559 2.319 6.841 6 7.5-1.168.36-2.307.427-3 0 .474 3.21 3.201 5.398 6 6-2.67 1.956-6.582 3.071-10.5 3 3.269 1.745 7.152 3 12 3 13.035 0 20.783-11.876 21-22.5.758-1.097 2.01-2.43 3-4.5"></path></symbol>
      
  </defs>
</svg>
