<svg
        xmlns="http://www.w3.org/2000/svg"
        xmlns:xlink="http://www.w3.org/1999/xlink"
        width="127px" height="127px">
    <path fill-rule="evenodd"  fill="rgb(198, 29, 235)"
          d="M114.459,51.390 L89.720,51.390 L81.609,59.502 C81.135,59.975 80.502,60.228 79.857,60.228 C79.538,60.228 79.216,60.166 78.909,60.039 C77.984,59.655 77.380,58.752 77.380,57.749 L77.380,51.311 C71.208,50.612 66.396,45.359 66.396,39.003 L66.396,12.492 C66.396,5.662 71.953,0.105 78.784,0.105 L114.459,0.105 C121.290,0.105 126.847,5.662 126.847,12.492 L126.847,39.003 C126.847,45.833 121.290,51.390 114.459,51.390 ZM121.892,12.492 C121.892,8.394 118.558,5.060 114.459,5.060 L78.784,5.060 C74.685,5.060 71.351,8.394 71.351,12.492 L71.351,39.003 C71.351,43.101 74.685,46.435 78.784,46.435 L79.857,46.435 C81.225,46.435 82.335,47.545 82.335,48.913 L82.335,51.768 L86.942,47.161 C87.407,46.696 88.037,46.435 88.694,46.435 L114.459,46.435 C118.558,46.435 121.892,43.101 121.892,39.003 L121.892,12.492 ZM110.991,38.507 L82.252,38.507 C80.884,38.507 79.775,37.398 79.775,36.030 C79.775,34.661 80.884,33.551 82.252,33.551 L110.991,33.551 C112.359,33.551 113.468,34.661 113.468,36.030 C113.468,37.398 112.359,38.507 110.991,38.507 ZM110.991,27.606 L82.252,27.606 C80.884,27.606 79.775,26.496 79.775,25.128 C79.775,23.760 80.884,22.651 82.252,22.651 L110.991,22.651 C112.359,22.651 113.468,23.760 113.468,25.128 C113.468,26.496 112.359,27.606 110.991,27.606 ZM110.991,16.704 L92.410,16.704 C91.042,16.704 89.932,15.595 89.932,14.227 C89.932,12.858 91.042,11.750 92.410,11.750 L110.991,11.750 C112.359,11.750 113.468,12.858 113.468,14.227 C113.468,15.595 112.359,16.704 110.991,16.704 ZM82.252,16.704 C81.601,16.704 80.962,16.439 80.501,15.979 C80.040,15.518 79.775,14.878 79.775,14.227 C79.775,13.575 80.040,12.936 80.501,12.475 C80.961,12.015 81.601,11.750 82.252,11.750 C82.904,11.750 83.543,12.015 84.004,12.475 C84.465,12.936 84.730,13.575 84.730,14.227 C84.730,14.878 84.464,15.518 84.004,15.979 C83.543,16.439 82.904,16.704 82.252,16.704 ZM110.991,62.126 C110.339,62.126 109.700,61.863 109.239,61.400 C108.778,60.939 108.513,60.302 108.513,59.648 C108.513,58.997 108.779,58.359 109.239,57.897 C109.700,57.435 110.339,57.171 110.991,57.171 C111.643,57.171 112.282,57.435 112.742,57.897 C113.203,58.358 113.468,58.997 113.468,59.648 C113.468,60.302 113.203,60.939 112.742,61.400 C112.282,61.863 111.643,62.126 110.991,62.126 ZM108.513,68.982 C108.513,67.613 109.623,66.504 110.991,66.504 C112.359,66.504 113.468,67.613 113.469,68.982 L113.469,93.813 C113.469,97.604 110.378,100.689 106.580,100.689 L68.879,100.689 L68.879,112.134 C75.129,112.767 80.023,118.061 80.023,124.474 C80.023,125.843 78.913,126.952 77.545,126.952 L35.923,126.952 C34.555,126.952 33.446,125.843 33.446,124.474 C33.446,118.060 38.340,112.767 44.590,112.134 L44.590,100.689 L6.889,100.689 C3.090,100.689 -0.000,97.604 -0.000,93.813 L-0.000,20.354 C-0.000,16.563 3.090,13.479 6.889,13.479 L58.386,13.479 C59.754,13.479 60.863,14.588 60.863,15.956 C60.863,17.324 59.754,18.434 58.386,18.434 L6.889,18.434 C5.822,18.434 4.955,19.296 4.955,20.354 L4.955,79.877 L13.378,79.877 L13.378,73.763 C13.378,64.341 20.462,56.548 29.583,55.418 C27.780,53.193 26.698,50.363 26.698,47.284 L26.698,37.821 C26.698,32.062 31.383,27.376 37.142,27.376 L50.105,27.376 C51.473,27.376 52.582,28.485 52.582,29.854 L52.582,47.284 C52.582,50.363 51.499,53.194 49.697,55.418 C58.817,56.548 65.901,64.341 65.901,73.762 L65.901,79.877 L108.513,79.877 L108.513,68.982 ZM38.824,121.997 L74.644,121.997 C73.620,119.103 70.858,117.026 67.620,117.026 L66.402,117.026 L47.067,117.026 L45.849,117.026 C42.610,117.026 39.847,119.103 38.824,121.997 ZM63.924,112.071 L63.924,100.689 L49.544,100.689 L49.544,112.071 L63.924,112.071 ZM47.627,32.332 L37.142,32.332 C34.115,32.332 31.652,34.795 31.652,37.822 L31.652,39.852 L44.063,39.852 C46.028,39.852 47.627,38.253 47.627,36.288 L47.627,32.332 ZM47.627,44.023 C46.542,44.525 45.335,44.807 44.063,44.807 L31.652,44.807 L31.652,47.284 C31.652,51.689 35.235,55.272 39.640,55.272 C44.044,55.272 47.627,51.689 47.627,47.284 L47.627,47.284 L47.627,44.023 ZM36.749,60.228 L39.640,63.118 L42.531,60.228 L36.749,60.228 ZM60.946,73.763 C60.946,66.972 55.919,61.334 49.391,60.373 L41.391,68.374 C40.907,68.858 40.273,69.100 39.639,69.100 C39.005,69.100 38.371,68.858 37.888,68.374 L29.887,60.373 C23.360,61.334 18.333,66.972 18.333,73.763 L18.333,79.877 L60.946,79.877 L60.946,73.763 ZM4.955,84.832 L4.955,93.813 C4.955,94.871 5.822,95.734 6.889,95.734 L106.580,95.734 C107.646,95.734 108.513,94.871 108.513,93.813 L108.513,84.832 L4.955,84.832 ZM56.734,92.758 C56.083,92.758 55.443,92.493 54.983,92.033 C54.522,91.572 54.257,90.933 54.257,90.281 C54.257,89.627 54.522,88.990 54.983,88.529 C55.443,88.066 56.083,87.803 56.734,87.803 C57.386,87.803 58.025,88.066 58.486,88.529 C58.947,88.990 59.212,89.629 59.212,90.281 C59.212,90.933 58.946,91.572 58.486,92.033 C58.025,92.493 57.386,92.758 56.734,92.758 Z"/>
</svg>