<?xml version="1.0" encoding="utf-8"?>
<!-- Generator: Adobe Illustrator 21.0.0, SVG Export Plug-In . SVG Version: 6.00 Build 0)  -->
<svg version="1.1" id="Слой_1" xmlns="http://www.w3.org/2000/svg" xmlns:xlink="http://www.w3.org/1999/xlink" x="0px" y="0px"
	 viewBox="0 0 53 43" style="enable-background:new 0 0 53 43;" xml:space="preserve">
<style type="text/css">
	.st0{fill:#F5A528;}
	.st1{fill:#D22328;}
	.st2{fill:#FFFFFF;}
</style>
<path class="st0" d="M0,43h53v-8H0V43z"/>
<path class="st1" d="M0,35h53V0H0V35z"/>
<path class="st2" d="M48,21.7V0h-8.8L21.9,21.8v6H9.4c0.7-2.1,2.5-4.6,9-7.8C24.6,16.8,26,14,26,9.5c0-4.8-2.4-8.2-7.1-9.5H8.6
	C5.5,0.7,2.7,2.3,0.1,4.2l4.1,7.1c3.2-2.3,6.3-3.5,9.6-3.5c2.6,0,3.6,0.8,3.6,2.4c0,1.4-0.5,1.9-3.9,3.6C5.5,17.6,0.4,23.2,0,34.6
	V35h25.9v-6.2H40V35h8v-6h5v-7.2H48z M40,17.3v4.2h-2.4c-2.2,0-4.4-0.1-6,0c1.2-1.2,2.5-3.5,4.2-5.7l0.5-0.6c2.1-2.7,3-4,3.9-5.4
	C40.1,11.5,40,15.3,40,17.3z"/>
<g>
	<path class="st2" d="M7.2,36.4v5.9H5.5l-1-2.7v2.7H2.8v-5.9h1.6l1.1,2.7v-2.7H7.2z"/>
	<path class="st2" d="M16.6,36.4h3.3v1.2h-1.3v1.1h1.2v1.1h-1.2v1.3H20v1.2h-3.4V36.4z"/>
	<path class="st2" d="M36.6,36.4l-0.9,5.9h-2.5c-0.2-0.9-0.4-1.9-0.6-3.1c-0.1,0.5-0.3,1.5-0.5,3.1h-2.4l-0.9-5.9h1.9l0.2,2.1l0.2,2
		c0.1-1,0.3-2.4,0.5-4.1h2c0,0.2,0.1,0.8,0.2,2l0.2,2.3c0.1-1.4,0.3-2.8,0.5-4.2H36.6z"/>
	<path class="st2" d="M49.8,38.2H48v-0.4c0-0.2,0-0.3-0.1-0.4s-0.1-0.1-0.2-0.1c-0.1,0-0.2,0-0.3,0.1c-0.1,0.1-0.1,0.2-0.1,0.3
		c0,0.2,0,0.3,0.1,0.4c0.1,0.1,0.3,0.2,0.6,0.4c0.9,0.4,1.4,0.7,1.7,1c0.2,0.3,0.3,0.7,0.3,1.3c0,0.4-0.1,0.7-0.2,0.9
		c-0.1,0.2-0.4,0.4-0.7,0.5c-0.4,0.1-0.8,0.2-1.3,0.2c-0.5,0-1-0.1-1.3-0.2c-0.4-0.2-0.6-0.4-0.7-0.6s-0.2-0.6-0.2-1v-0.4h1.8V41
		c0,0.2,0,0.4,0.1,0.4s0.1,0.1,0.3,0.1s0.2,0,0.3-0.1c0.1-0.1,0.1-0.2,0.1-0.4c0-0.3-0.1-0.6-0.2-0.7c-0.1-0.1-0.4-0.3-0.9-0.5
		c-0.5-0.3-0.8-0.4-1-0.6c-0.2-0.1-0.3-0.3-0.4-0.5s-0.2-0.5-0.2-0.8c0-0.5,0.1-0.8,0.2-1c0.1-0.2,0.4-0.4,0.7-0.5
		c0.3-0.1,0.7-0.2,1.2-0.2c0.5,0,0.9,0.1,1.3,0.2c0.4,0.1,0.6,0.3,0.7,0.5c0.1,0.2,0.2,0.5,0.2,1V38.2z"/>
</g>
</svg>
