<svg width="20" height="20" viewBox="0 0 20 20" fill="none" xmlns="http://www.w3.org/2000/svg">
<path d="M10 0C8.02219 0 6.08879 0.58649 4.4443 1.6853C2.79981 2.78412 1.51809 4.3459 0.761209 6.17316C0.00433284 8.00043 -0.1937 10.0111 0.192152 11.9509C0.578004 13.8907 1.53041 15.6725 2.92894 17.0711C4.32746 18.4696 6.10929 19.422 8.0491 19.8078C9.98891 20.1937 11.9996 19.9957 13.8268 19.2388C15.6541 18.4819 17.2159 17.2002 18.3147 15.5557C19.4135 13.9112 20 11.9778 20 10C20 8.68678 19.7413 7.38642 19.2388 6.17316C18.7362 4.95991 17.9997 3.85752 17.0711 2.92893C16.1425 2.00035 15.0401 1.26375 13.8268 0.761205C12.6136 0.258658 11.3132 0 10 0ZM17.05 6.25H13.62C13.3788 4.82779 12.8386 3.47295 12.035 2.275C13.0995 2.55676 14.0943 3.05523 14.9573 3.73922C15.8202 4.4232 16.5326 5.27797 17.05 6.25ZM18 10C17.9977 10.7619 17.8866 11.5195 17.67 12.25H13.87C13.9549 11.503 13.9983 10.7518 14 10C13.9983 9.24817 13.9549 8.49702 13.87 7.75H17.67C17.8866 8.48046 17.9977 9.23811 18 10ZM10 17.5C9.41 17.5 8.445 16.11 7.905 13.75H12.095C11.545 16.11 10.58 17.5 10 17.5ZM7.63 12.25C7.44333 10.7558 7.44333 9.24419 7.63 7.75H12.35C12.4457 8.49625 12.4958 9.24765 12.5 10C12.4991 10.7521 12.4524 11.5035 12.36 12.25H7.63ZM2 10C2.00068 9.23835 2.11012 8.4807 2.325 7.75H6.13C5.95666 9.24499 5.95666 10.755 6.13 12.25H2.315C2.1035 11.5188 1.99743 10.7612 2 10ZM10 2.5C10.59 2.5 11.555 3.89 12.095 6.25H7.895C8.435 3.89 9.4 2.5 10 2.5ZM7.955 2.275C7.14623 3.4799 6.60413 4.84366 6.365 6.275H2.93C3.44468 5.29832 4.15594 4.43873 5.01902 3.75033C5.8821 3.06193 6.87833 2.55962 7.945 2.275H7.955ZM2.955 13.775H6.38C6.61913 15.2063 7.16123 16.5701 7.97 17.775C6.89657 17.4906 5.8941 16.9859 5.02639 16.2929C4.15868 15.6 3.44474 14.734 2.93 13.75L2.955 13.775ZM12.06 17.775C12.8669 16.5696 13.4072 15.2059 13.645 13.775H17.05C16.53 14.7424 15.8164 15.5923 14.9536 16.2719C14.0908 16.9515 13.0973 17.4461 12.035 17.725L12.06 17.775Z" fill="#002E44"/>
</svg>
