<svg width="23" height="15" viewBox="0 0 23 15" fill="none" xmlns="http://www.w3.org/2000/svg">
<g clip-path="url(#clip0_112_805)">
<path d="M21.2136 8.75521H7.47503C7.14379 8.75521 6.82611 8.62363 6.59189 8.3894C6.35766 8.15517 6.22607 7.8375 6.22607 7.50625C6.22607 7.17501 6.35766 6.85733 6.59189 6.62311C6.82611 6.38888 7.14379 6.25729 7.47503 6.25729H21.2136C21.5448 6.25729 21.8625 6.38888 22.0967 6.62311C22.331 6.85733 22.4625 7.17501 22.4625 7.50625C22.4625 7.8375 22.331 8.15517 22.0967 8.3894C21.8625 8.62363 21.5448 8.75521 21.2136 8.75521Z" fill="#002E44"/>
<path d="M3.7282 8.75521H1.23028C0.899038 8.75521 0.58136 8.62363 0.347135 8.3894C0.11291 8.15517 -0.0186768 7.8375 -0.0186768 7.50625C-0.0186768 7.17501 0.11291 6.85733 0.347135 6.62311C0.58136 6.38888 0.899038 6.25729 1.23028 6.25729H3.7282C4.05945 6.25729 4.37712 6.38888 4.61135 6.62311C4.84557 6.85733 4.97716 7.17501 4.97716 7.50625C4.97716 7.8375 4.84557 8.15517 4.61135 8.3894C4.37712 8.62363 4.05945 8.75521 3.7282 8.75521Z" fill="#002E44"/>
<path d="M21.2136 2.5104H7.47503C7.14379 2.5104 6.82611 2.37881 6.59189 2.14459C6.35766 1.91036 6.22607 1.59269 6.22607 1.26144C6.22607 0.930196 6.35766 0.612519 6.59189 0.378294C6.82611 0.144068 7.14379 0.0124817 7.47503 0.0124817H21.2136C21.5448 0.0124817 21.8625 0.144068 22.0967 0.378294C22.331 0.612519 22.4625 0.930196 22.4625 1.26144C22.4625 1.59269 22.331 1.91036 22.0967 2.14459C21.8625 2.37881 21.5448 2.5104 21.2136 2.5104Z" fill="#002E44"/>
<path d="M3.7282 2.5104H1.23028C0.899038 2.5104 0.58136 2.37881 0.347135 2.14459C0.11291 1.91036 -0.0186768 1.59269 -0.0186768 1.26144C-0.0186768 0.930196 0.11291 0.612519 0.347135 0.378294C0.58136 0.144068 0.899038 0.0124817 1.23028 0.0124817H3.7282C4.05945 0.0124817 4.37712 0.144068 4.61135 0.378294C4.84557 0.612519 4.97716 0.930196 4.97716 1.26144C4.97716 1.59269 4.84557 1.91036 4.61135 2.14459C4.37712 2.37881 4.05945 2.5104 3.7282 2.5104Z" fill="#002E44"/>
<path d="M21.2136 15H7.47503C7.14379 15 6.82611 14.8684 6.59189 14.6342C6.35766 14.4 6.22607 14.0823 6.22607 13.751C6.22607 13.4198 6.35766 13.1021 6.59189 12.8679C6.82611 12.6337 7.14379 12.5021 7.47503 12.5021H21.2136C21.5448 12.5021 21.8625 12.6337 22.0967 12.8679C22.331 13.1021 22.4625 13.4198 22.4625 13.751C22.4625 14.0823 22.331 14.4 22.0967 14.6342C21.8625 14.8684 21.5448 15 21.2136 15Z" fill="#002E44"/>
<path d="M3.7282 15H1.23028C0.899038 15 0.58136 14.8684 0.347135 14.6342C0.11291 14.4 -0.0186768 14.0823 -0.0186768 13.751C-0.0186768 13.4198 0.11291 13.1021 0.347135 12.8679C0.58136 12.6337 0.899038 12.5021 1.23028 12.5021H3.7282C4.05945 12.5021 4.37712 12.6337 4.61135 12.8679C4.84557 13.1021 4.97716 13.4198 4.97716 13.751C4.97716 14.0823 4.84557 14.4 4.61135 14.6342C4.37712 14.8684 4.05945 15 3.7282 15Z" fill="#002E44"/>
</g>
<defs>
<clipPath id="clip0_112_805">
<rect width="22.4813" height="15" fill="white"/>
</clipPath>
</defs>
</svg>
