<svg width="26" height="25" viewBox="0 0 26 25" fill="none" xmlns="http://www.w3.org/2000/svg">
<g clip-path="url(#clip0_112_767)">
<path d="M12.5031 4.84253C12.1716 4.84253 11.8538 4.97419 11.6194 5.20855C11.3851 5.44292 11.2534 5.76078 11.2534 6.09222V12.5469C11.2406 12.7199 11.264 12.8937 11.3221 13.0573C11.3802 13.2208 11.4717 13.3704 11.5908 13.4966L15.0649 17.0957C15.2945 17.336 15.61 17.4753 15.9422 17.4829C16.2745 17.4905 16.5961 17.3659 16.8364 17.1363C17.0767 16.9068 17.2159 16.5912 17.2236 16.259C17.2312 15.9268 17.1065 15.6052 16.877 15.3649L13.7528 12.1345V6.09222C13.7528 5.76078 13.6211 5.44292 13.3867 5.20855C13.1524 4.97419 12.8345 4.84253 12.5031 4.84253Z" fill="#002E44"/>
<path d="M23.874 13.583C23.564 13.4897 23.23 13.5202 22.9421 13.6682C22.6542 13.8163 22.435 14.0702 22.3306 14.3766C22.2744 14.664 22.2056 14.9577 22.1244 15.2451C21.5203 17.4203 20.2021 19.329 18.3819 20.6643C16.5617 21.9997 14.3453 22.684 12.0892 22.6072C9.83299 22.5304 7.66821 21.697 5.94302 20.241C4.21782 18.785 3.03248 16.7911 2.57765 14.5799C2.12281 12.3687 2.42492 10.0688 3.43537 8.05011C4.44583 6.03141 6.1059 4.41123 8.14859 3.45018C10.1913 2.48913 12.4978 2.24306 14.6973 2.75155C16.8968 3.26004 18.8613 4.49353 20.2749 6.25363L17.5693 7.75326C17.5021 7.78744 17.4445 7.83798 17.402 7.90021C17.3594 7.96245 17.3331 8.03438 17.3256 8.10942C17.3238 8.17263 17.3389 8.23518 17.3693 8.29062C17.4041 8.35675 17.4619 8.40786 17.5318 8.43434L24.0552 11.2524C24.1195 11.2741 24.1878 11.282 24.2554 11.2755C24.3231 11.269 24.3885 11.2483 24.4476 11.2146C24.5066 11.181 24.5578 11.1352 24.5979 11.0803C24.638 11.0254 24.666 10.9627 24.68 10.8962L25.786 3.89172C25.8047 3.82006 25.7989 3.74419 25.7695 3.67623C25.74 3.60826 25.6886 3.55214 25.6235 3.51682C25.5582 3.47835 25.4838 3.45807 25.408 3.45807C25.3321 3.45807 25.2577 3.47835 25.1924 3.51682L22.4993 5.00394C20.8095 2.74916 18.4073 1.13162 15.6825 0.41384C12.9578 -0.303942 10.0704 -0.0798366 7.48908 1.04979C4.90771 2.17941 2.78386 4.14825 1.46221 6.63676C0.140565 9.12528 -0.301308 11.9874 0.208308 14.7587C0.717925 17.5299 2.14912 20.0476 4.26962 21.9031C6.39011 23.7586 9.07545 24.8431 11.8898 24.9805C14.7042 25.1178 17.4824 24.3001 19.7735 22.6599C22.0646 21.0197 23.7342 18.6534 24.5113 15.945C24.5738 15.72 24.63 15.4951 24.68 15.2639C24.7025 15.2197 24.7213 15.1737 24.7363 15.1264C24.781 14.9685 24.7942 14.8032 24.7751 14.6402C24.756 14.4771 24.705 14.3194 24.6249 14.1761C24.5448 14.0327 24.4373 13.9066 24.3084 13.8048C24.1796 13.7031 24.032 13.6277 23.874 13.583V13.583Z" fill="#002E44"/>
</g>
<defs>
<clipPath id="clip0_112_767">
<rect width="25.7998" height="25" fill="white"/>
</clipPath>
</defs>
</svg>
