<svg width="16" height="15" viewBox="0 0 16 15" fill="none" xmlns="http://www.w3.org/2000/svg">
<path d="M14.7205 13.3819L11.2088 9.86104C11.9879 8.80579 12.4074 7.52815 12.4054 6.21645C12.4085 4.81879 11.9394 3.46104 11.0743 2.36331C10.2091 1.26558 8.99862 0.492213 7.63894 0.168579C6.27926 -0.155054 4.85012 -0.0099852 3.58321 0.580271C2.31629 1.17053 1.28586 2.17137 0.658953 3.42056C0.032047 4.66974 -0.154584 6.09404 0.129309 7.46258C0.413203 8.83111 1.15098 10.0636 2.22305 10.9604C3.29511 11.8571 4.63863 12.3655 6.03579 12.4031C7.43295 12.4407 8.80186 12.0054 9.92062 11.1676L13.4231 14.6976C13.5063 14.7898 13.6074 14.8641 13.7203 14.916C13.8331 14.9679 13.9553 14.9964 14.0794 14.9997C14.2036 15.003 14.3271 14.981 14.4425 14.9351C14.5579 14.8891 14.6628 14.8203 14.7508 14.7326C14.8388 14.6449 14.908 14.5403 14.9543 14.4251C15.0007 14.3098 15.0231 14.1864 15.0203 14.0622C15.0174 13.938 14.9894 13.8157 14.9379 13.7027C14.8863 13.5897 14.8124 13.4883 14.7205 13.4048V13.3819ZM6.21643 10.5716C5.35506 10.5716 4.51303 10.3162 3.79682 9.83765C3.08062 9.35909 2.52241 8.67891 2.19277 7.8831C1.86314 7.0873 1.77689 6.21162 1.94494 5.3668C2.11298 4.52198 2.52777 3.74596 3.13686 3.13688C3.74594 2.5278 4.52196 2.11301 5.36678 1.94496C6.2116 1.77692 7.08728 1.86316 7.88308 2.1928C8.67888 2.52243 9.35907 3.08064 9.83762 3.79685C10.3162 4.51305 10.5716 5.35508 10.5716 6.21645C10.5704 7.37114 10.1112 8.47819 9.29466 9.29468C8.47817 10.1112 7.37112 10.5704 6.21643 10.5716Z" fill="#002E44"/>
</svg>
