<?xml version="1.0" encoding="utf-8"?>
<!-- Generator: Adobe Illustrator 19.1.0, SVG Export Plug-In . SVG Version: 6.00 Build 0)  -->
<svg version="1.1" id="Capa_1" xmlns="http://www.w3.org/2000/svg" xmlns:xlink="http://www.w3.org/1999/xlink" x="0px" y="0px"
	 viewBox="-249 372.9 95.1 96" style="enable-background:new -249 372.9 95.1 96;" xml:space="preserve">
<style type="text/css">
	.st0{fill:none;}
	.st1{fill:#546D56;}
	.st2{fill:#789C20;}
</style>
<g>
	<path class="st0" d="M188.6,922.8c17.7,6.7,29.1,22.8,30.7,40.5c-5.3,14.1-9.5,24.1-15.2,39.6c-13,12-32.1,16.3-49.7,9.6
		c-16.5-6.3-27.5-20.6-30.2-36.8c6.5-18.1,9.6-26.9,15.8-44.2C152.9,920.2,171.4,916.3,188.6,922.8z"/>
</g>
<g>
	<path class="st1" d="M-243.1,394.4c3.5,8.1,9.3,16,17.5,19.5c0.9,0.4,2,0.7,3.1,0.9c2.2-3.3,4.7-5.9,7.6-8.1
		c2.5-1.9,5.2-3.3,7.9-4.4c-0.8-0.5-1.6-1-2.5-1.5c-3.4-1.8-7.1-3.4-10.7-5c3.4,0.9,7.3,1.3,10.5,2.4c2,0.7,3.9,1.8,5.6,3
		c5.2-1.8,10.6-2.6,16-3.3c-4.4-7.3-13.7-13.1-20.7-15.7c-7.3-2.8-15.7-3.1-23.8-3.9c-5-0.5-10.5-2.4-14.4-4.6
		c-0.9-0.5-1.9,0.3-1.6,1.3C-246.7,381.3-245.7,388.4-243.1,394.4z"/>
	<path class="st2" d="M-156.7,393.4c-9.2,5-19.8,5.6-30.1,6.8c-5.1,0.6-10.1,1.3-14.8,2.7c-1,0.3-2.1,0.7-3.1,1.1
		c-3,1.1-5.9,2.7-8.7,4.7c-2.6,1.9-4.7,4.1-6.5,6.6c-2.8,3.9-4.8,8.5-6.4,13.2c-3,8.5-4.3,17.6-4,26.7c0.1,3.7,0.2,7.5,1.1,11
		c0.2,0.8,0.4,1.8,1,2.4c0.8,0.8,2.2,0,1.9-1.1c-2.3-7.9-0.9-17.1,2.3-24.7c3.7-8.7,10.8-13.8,19.5-17c2.3-0.8,4.7-1.6,7.1-2.3
		c0,0,0.1,0,0.1,0c0.5,0,0.7,0.7,0.2,0.9c-2.8,1.3-5.6,2.6-8.3,4c-13.1,6.8-18.8,22.7-13.9,22.7c0.4,0,0.9-0.1,1.4-0.3
		c7.6-3.1,16.5-3.2,24.9-4.7c2.9-0.5,5.8-1.3,8.4-2.4c10.6-4.4,18.2-13.1,22.7-23.5c3.4-7.8,4.7-16.9,7.2-25c0.3-1-0.4-1.9-1.3-1.9
		C-156.2,393.2-156.5,393.3-156.7,393.4z"/>
</g>
</svg>
