<svg width="29" height="20" viewBox="0 0 29 20" fill="none" xmlns="http://www.w3.org/2000/svg">
<path d="M0.875 10.8C0.433172 10.8 0.075 10.4418 0.075 10C0.075 9.55817 0.433172 9.2 0.875 9.2L0.875 10.8ZM27.125 9.2C27.5668 9.2 27.925 9.55817 27.925 10C27.925 10.4418 27.5668 10.8 27.125 10.8L27.125 9.2ZM20.707 19.2988C20.4039 19.6203 19.8976 19.6352 19.5762 19.332C19.2547 19.0289 19.2398 18.5226 19.543 18.2012L20.707 19.2988ZM19.543 1.79885C19.2398 1.4774 19.2547 0.971082 19.5762 0.667962C19.8976 0.364843 20.4039 0.379703 20.707 0.701154L19.543 1.79885ZM0.875 9.2L27.125 9.2L27.125 10.8L0.875 10.8L0.875 9.2ZM20.125 18.75C19.543 18.2012 19.543 18.2011 19.543 18.2011C19.5431 18.201 19.5432 18.2009 19.5433 18.2008C19.5435 18.2006 19.5439 18.2002 19.5443 18.1997C19.5453 18.1987 19.5467 18.1972 19.5486 18.1952C19.5523 18.1912 19.5579 18.1853 19.5653 18.1774C19.5802 18.1617 19.6022 18.1383 19.631 18.1077C19.6885 18.0466 19.7729 17.9569 19.8804 17.8425C20.0954 17.6138 20.4026 17.2864 20.7713 16.8923C21.5087 16.1041 22.4916 15.0493 23.474 13.9826C24.4574 12.9149 25.4368 11.8389 26.1689 11.0069C26.536 10.5898 26.8348 10.2409 27.0393 9.9877C27.1429 9.85951 27.2133 9.76698 27.2544 9.70772C27.276 9.67665 27.2793 9.66927 27.274 9.67903C27.2715 9.68367 27.2592 9.70657 27.2456 9.74252C27.237 9.76535 27.2 9.86345 27.2 10L28.8 10C28.8 10.149 28.7591 10.2635 28.743 10.3064C28.7219 10.3624 28.6982 10.4092 28.6808 10.4413C28.6457 10.5061 28.6048 10.5682 28.5687 10.6202C28.4945 10.7271 28.3957 10.8549 28.2839 10.9932C28.0578 11.2731 27.7413 11.642 27.3701 12.0639C26.6257 12.9099 25.6364 13.9965 24.651 15.0665C23.6647 16.1374 22.6788 17.1954 21.9397 17.9854C21.5701 18.3805 21.262 18.7087 21.0463 18.9382C20.9385 19.053 20.8537 19.1431 20.7959 19.2045C20.767 19.2352 20.7448 19.2588 20.7298 19.2747C20.7224 19.2826 20.7167 19.2886 20.7128 19.2927C20.7109 19.2947 20.7095 19.2962 20.7085 19.2973C20.708 19.2978 20.7077 19.2982 20.7074 19.2984C20.7073 19.2986 20.7072 19.2987 20.7071 19.2987C20.7071 19.2988 20.707 19.2988 20.125 18.75ZM27.2 10C27.2 10.1366 27.237 10.2347 27.2456 10.2575C27.2592 10.2934 27.2715 10.3163 27.274 10.321C27.2793 10.3307 27.276 10.3233 27.2544 10.2923C27.2133 10.233 27.1429 10.1405 27.0393 10.0123C26.8348 9.75909 26.536 9.41021 26.1689 8.99307C25.4368 8.16105 24.4574 7.08513 23.474 6.01742C22.4916 4.95067 21.5087 3.89594 20.7713 3.10765C20.4026 2.71358 20.0954 2.38624 19.8804 2.15748C19.7729 2.0431 19.6885 1.95337 19.631 1.89227C19.6022 1.86172 19.5802 1.83833 19.5653 1.82259C19.5579 1.81472 19.5523 1.80877 19.5486 1.80479C19.5467 1.8028 19.5453 1.80131 19.5443 1.80031C19.5439 1.79982 19.5435 1.79945 19.5433 1.7992C19.5432 1.79908 19.5431 1.79899 19.543 1.79893C19.543 1.79887 19.543 1.79885 20.125 1.25C20.707 0.701154 20.7071 0.701192 20.7071 0.701263C20.7072 0.701329 20.7073 0.701431 20.7074 0.701562C20.7077 0.701825 20.708 0.702215 20.7085 0.70273C20.7095 0.70376 20.7109 0.705292 20.7128 0.707318C20.7167 0.711371 20.7224 0.717401 20.7298 0.725346C20.7448 0.741237 20.767 0.764788 20.7959 0.795502C20.8537 0.856929 20.9385 0.94701 21.0463 1.06176C21.262 1.29127 21.5701 1.61949 21.9397 2.01457C22.6788 2.8046 23.6647 3.8626 24.651 4.9335C25.6364 6.00345 26.6257 7.09011 27.3701 7.9361C27.7413 8.35797 28.0578 8.72694 28.2839 9.00677C28.3957 9.1451 28.4945 9.27288 28.5687 9.37976C28.6048 9.43176 28.6457 9.49391 28.6808 9.55866C28.6982 9.59079 28.7219 9.63755 28.743 9.69361C28.7591 9.73654 28.8 9.85099 28.8 10L27.2 10Z" fill="#E02712"/>
</svg>
