<svg width="29" height="20" viewBox="0 0 29 20" fill="none" xmlns="http://www.w3.org/2000/svg">
<path d="M28.125 10.8C28.5668 10.8 28.925 10.4418 28.925 10C28.925 9.55817 28.5668 9.2 28.125 9.2L28.125 10.8ZM1.875 9.2C1.43317 9.2 1.075 9.55817 1.075 10C1.075 10.4418 1.43317 10.8 1.875 10.8L1.875 9.2ZM8.29296 19.2988C8.59608 19.6203 9.1024 19.6352 9.42385 19.332C9.7453 19.0289 9.76016 18.5226 9.45704 18.2012L8.29296 19.2988ZM9.45704 1.79885C9.76016 1.4774 9.7453 0.971082 9.42385 0.667962C9.10239 0.364843 8.59608 0.379703 8.29296 0.701154L9.45704 1.79885ZM28.125 9.2L1.875 9.2L1.875 10.8L28.125 10.8L28.125 9.2ZM8.875 18.75C9.45704 18.2012 9.45701 18.2011 9.45696 18.2011C9.4569 18.201 9.45682 18.2009 9.4567 18.2008C9.45647 18.2006 9.45612 18.2002 9.45566 18.1997C9.45472 18.1987 9.45331 18.1972 9.45143 18.1952C9.44768 18.1912 9.44207 18.1853 9.43466 18.1774C9.41983 18.1617 9.3978 18.1383 9.36903 18.1077C9.31151 18.0466 9.22708 17.9569 9.11959 17.8425C8.90461 17.6138 8.59741 17.2864 8.22874 16.8923C7.49127 16.1041 6.50842 15.0493 5.52596 13.9826C4.54261 12.9149 3.56319 11.8389 2.83105 11.0069C2.464 10.5898 2.16523 10.2409 1.96065 9.9877C1.85709 9.85951 1.78672 9.76698 1.74557 9.70772C1.72401 9.67665 1.72067 9.66927 1.72595 9.67903C1.72847 9.68367 1.74084 9.70657 1.75438 9.74252C1.76298 9.76535 1.8 9.86345 1.8 10L0.2 10C0.2 10.149 0.240867 10.2635 0.257033 10.3064C0.278143 10.3624 0.301813 10.4092 0.319228 10.4413C0.354315 10.5061 0.395196 10.5682 0.431307 10.6202C0.505516 10.7271 0.60434 10.8549 0.716104 10.9932C0.942188 11.2731 1.25866 11.642 1.62988 12.0639C2.37431 12.9099 3.36364 13.9965 4.34904 15.0665C5.33533 16.1374 6.32124 17.1954 7.06033 17.9854C7.42994 18.3805 7.73797 18.7087 7.95365 18.9382C8.0615 19.053 8.14626 19.1431 8.20409 19.2045C8.233 19.2352 8.25519 19.2588 8.27016 19.2747C8.27765 19.2826 8.28333 19.2886 8.28715 19.2927C8.28906 19.2947 8.29051 19.2962 8.29148 19.2973C8.29196 19.2978 8.29233 19.2982 8.29258 19.2984C8.2927 19.2986 8.2928 19.2987 8.29286 19.2987C8.29293 19.2988 8.29296 19.2988 8.875 18.75ZM1.8 10C1.8 10.1366 1.76298 10.2347 1.75438 10.2575C1.74084 10.2934 1.72847 10.3163 1.72595 10.321C1.72067 10.3307 1.72401 10.3233 1.74557 10.2923C1.78672 10.233 1.85709 10.1405 1.96065 10.0123C2.16523 9.75909 2.464 9.41021 2.83105 8.99307C3.56319 8.16105 4.54261 7.08513 5.52596 6.01742C6.50842 4.95067 7.49126 3.89594 8.22873 3.10765C8.5974 2.71358 8.9046 2.38624 9.11959 2.15748C9.22708 2.0431 9.31151 1.95337 9.36903 1.89227C9.39779 1.86172 9.41983 1.83833 9.43466 1.82259C9.44207 1.81472 9.44768 1.80877 9.45143 1.80479C9.45331 1.8028 9.45472 1.80131 9.45565 1.80031C9.45612 1.79982 9.45647 1.79945 9.4567 1.7992C9.45682 1.79908 9.4569 1.79899 9.45696 1.79893C9.45701 1.79887 9.45704 1.79885 8.875 1.25C8.29296 0.701154 8.29293 0.701192 8.29286 0.701263C8.2928 0.701329 8.2927 0.701431 8.29258 0.701562C8.29233 0.701825 8.29196 0.702215 8.29148 0.70273C8.2905 0.70376 8.28906 0.705292 8.28715 0.707318C8.28333 0.711371 8.27765 0.717401 8.27016 0.725346C8.25519 0.741237 8.233 0.764788 8.20409 0.795502C8.14625 0.856929 8.06149 0.94701 7.95365 1.06176C7.73797 1.29127 7.42994 1.61949 7.06033 2.01457C6.32123 2.8046 5.33533 3.8626 4.34904 4.9335C3.36364 6.00345 2.37431 7.09011 1.62988 7.9361C1.25866 8.35797 0.942188 8.72694 0.716104 9.00677C0.60434 9.1451 0.505516 9.27288 0.431307 9.37976C0.395196 9.43176 0.354315 9.49391 0.319228 9.55866C0.301813 9.59079 0.278143 9.63755 0.257032 9.69361C0.240867 9.73654 0.2 9.85099 0.2 10L1.8 10Z" fill="black"/>
</svg>
