<svg width="18" height="18" fill="none" xmlns="http://www.w3.org/2000/svg"><path d="M17.413 9.475A2.757 2.757 0 0 0 18 7.778c0-.98-.565-1.909-1.474-2.427a1.558 1.558 0 0 0-.771-.203h-5.396l.135-2.684A2.3 2.3 0 0 0 9.83.73a2.401 2.401 0 0 0-.798-.542A2.461 2.461 0 0 0 8.078 0c-1.17 0-2.205.764-2.516 1.859L3.629 8.652H.72A.709.709 0 0 0 0 9.35v7.95c0 .387.322.699.72.699h13.53c.206 0 .409-.04.595-.118 1.071-.443 1.762-1.459 1.762-2.586 0-.275-.04-.546-.121-.808a2.757 2.757 0 0 0 .465-2.505 2.757 2.757 0 0 0 .588-1.698 2.903 2.903 0 0 0-.126-.81ZM1.62 16.427v-6.203h1.822v6.203H1.62Zm14.319-7.71-.493.415.313.555a1.2 1.2 0 0 1 .155.596c0 .36-.162.704-.44.94l-.494.414.313.555a1.2 1.2 0 0 1 .155.597c0 .36-.162.703-.44.939l-.493.415.313.554a1.2 1.2 0 0 1 .155.597c0 .489-.297.93-.756 1.131H4.882v-6.27l2.24-7.875a.963.963 0 0 1 .352-.507c.172-.127.381-.197.597-.198.17 0 .34.048.475.146a.768.768 0 0 1 .328.666l-.216 4.334h7.074c.4.238.648.64.648 1.057 0 .36-.162.701-.441.94Z" fill="#fff"/></svg>