<svg width="32" height="26" fill="none" xmlns="http://www.w3.org/2000/svg"><path fill-rule="evenodd" clip-rule="evenodd" d="M0 2.167C0 1.592.24 1.04.67.635A2.351 2.351 0 0 1 2.285 0h27.428a2.35 2.35 0 0 1 1.617.635c.428.406.669.957.669 1.532a2.11 2.11 0 0 1-.67 1.532 2.35 2.35 0 0 1-1.616.634H2.286A2.351 2.351 0 0 1 .669 3.7 2.111 2.111 0 0 1 0 2.167ZM0 13c0-.575.24-1.126.67-1.532a2.351 2.351 0 0 1 1.616-.635h27.428a2.35 2.35 0 0 1 1.617.635c.428.406.669.957.669 1.532 0 .575-.24 1.126-.67 1.532a2.35 2.35 0 0 1-1.616.635H2.286a2.351 2.351 0 0 1-1.617-.635A2.111 2.111 0 0 1 0 13ZM0 23.833c0-.574.24-1.125.67-1.532a2.351 2.351 0 0 1 1.616-.634H16a2.35 2.35 0 0 1 1.616.634c.429.407.67.958.67 1.532 0 .575-.241 1.126-.67 1.532A2.35 2.35 0 0 1 16 26H2.286a2.351 2.351 0 0 1-1.617-.635A2.111 2.111 0 0 1 0 23.833Z" fill="#fff"/></svg>