<svg xmlns="http://www.w3.org/2000/svg" viewBox="0 0 461.31 461.31" width="15" height="15" fill="#00a6d0"><path d="M230.66 156.42c-40.96 0-74.24 33.28-74.24 74.24s33.28 74.24 74.24 74.24 74.24-33.28 74.24-74.24-33.28-74.24-74.24-74.24zm-5.64 52.22c-9.21 0-16.9 7.68-16.9 16.9h-24.57c.51-23.04 18.95-41.48 41.47-41.48v24.58z"/><path d="M455.94 215.3c-25.1-31.24-114.7-133.12-225.28-133.12S30.46 184.06 5.38 215.3c-7.17 8.7-7.17 21.5 0 30.72 25.08 31.23 114.68 133.12 225.28 133.12s200.19-101.9 225.28-133.12c7.16-8.7 7.16-21.5 0-30.72zM230.66 338.18c-59.4 0-107.52-48.13-107.52-107.52s48.12-107.52 107.52-107.52 107.52 48.12 107.52 107.52-48.13 107.52-107.52 107.52z"/></svg>