<svg xmlns="http://www.w3.org/2000/svg" viewBox="0 0 4.15 15.3"><path fill="#262626" d="M3.85 11.45a1 1 0 00-.73-.31H1a1 1 0 00-.74.31 1 1 0 00-.3.73v2.08A1 1 0 00.3 15a1 1 0 00.7.3h2.12a1 1 0 00.73-.3 1 1 0 00.3-.73v-2.09a1 1 0 00-.3-.73zm0-5.58a1 1 0 00-.73-.3H1a1 1 0 00-.74.3 1 1 0 00-.3.74v2.08a1 1 0 00.3.73 1 1 0 00.74.31h2.12a1 1 0 00.73-.31 1 1 0 00.3-.73V6.61a1 1 0 00-.3-.74zm0-5.57a1 1 0 00-.73-.3H1a1 1 0 00-1 1v2.12a1 1 0 00.3.73 1 1 0 00.74.3h2.08a1 1 0 001-1V1a1 1 0 00-.27-.7z"/></svg>