<svg xmlns="http://www.w3.org/2000/svg" viewBox="0 0 12.57 12.57"><path fill="#fff" d="M1.71 9.14a1.66 1.66 0 00-1.21.5 1.68 1.68 0 00-.5 1.22 1.66 1.66 0 00.5 1.21 1.66 1.66 0 001.21.5 1.67 1.67 0 001.22-.5 1.66 1.66 0 00.5-1.21 1.71 1.71 0 00-1.72-1.72zm5.57.08a7.78 7.78 0 00-1.62-2.31 7.78 7.78 0 00-2.31-1.62 8.12 8.12 0 00-2.73-.72H.57a.52.52 0 00-.38.15.52.52 0 00-.19.42v1.21a.52.52 0 00.15.38.53.53 0 00.37.18A5.51 5.51 0 014 8.56a5.54 5.54 0 011.65 3.49.51.51 0 00.18.37.54.54 0 00.38.15h1.22a.52.52 0 00.42-.19A.55.55 0 008 12a8.11 8.11 0 00-.72-2.78zM11.5 7.5a12.47 12.47 0 00-2.62-3.8 12.57 12.57 0 00-3.8-2.63A12.41 12.41 0 00.6 0a.53.53 0 00-.42.16.52.52 0 00-.18.41v1.28a.53.53 0 00.16.39.54.54 0 00.38.17 10.11 10.11 0 013.64.91 10.29 10.29 0 013 2.07 10.29 10.29 0 012.07 3 10 10 0 01.9 3.65.59.59 0 00.18.38.56.56 0 00.39.15H12a.58.58 0 00.57-.6A12.31 12.31 0 0011.5 7.5z"/></svg>