<svg xmlns="http://www.w3.org/2000/svg" viewBox="0 0 14.07 11.43"><path fill="#fff" d="M12.41 1.8A2.75 2.75 0 0013.68.21a5.51 5.51 0 01-1.83.7A2.78 2.78 0 009.74 0a2.78 2.78 0 00-2 .84 2.81 2.81 0 00-.84 2 3 3 0 00.07.66 7.92 7.92 0 01-3.32-.88A8.4 8.4 0 011 .53 2.82 2.82 0 00.59 2a2.86 2.86 0 00.35 1.36 2.79 2.79 0 00.94 1A2.86 2.86 0 01.57 4a2.79 2.79 0 00.66 1.84 2.79 2.79 0 001.65 1 2.76 2.76 0 01-.75.1 3.65 3.65 0 01-.55 0 2.74 2.74 0 001 1.42 2.8 2.8 0 001.68.58A5.65 5.65 0 01.7 10.17a5 5 0 01-.7 0 8 8 0 004.43 1.3 8.3 8.3 0 002.88-.49 7.39 7.39 0 002.31-1.3 8.94 8.94 0 001.64-1.88 8.26 8.26 0 001-2.22 8 8 0 00.34-2.32v-.41a6.18 6.18 0 001.44-1.49 5.68 5.68 0 01-1.66.44z"/></svg>