<svg xmlns="http://www.w3.org/2000/svg" viewBox="0 0 13.23 16"><path fill="#fff" d="M8.08 10.51a.53.53 0 00-.4.2v2.68a.57.57 0 00.4.2c.23 0 .35-.2.35-.6v-1.88c0-.4-.12-.6-.35-.6zm3 0c-.26 0-.4.2-.4.61v.41h.81v-.41c-.04-.41-.18-.61-.49-.61zm-8.26 3.74h-.89V9.17H1v-.84h2.78v.84h-1zm2.57-.48a1.3 1.3 0 01-.91.54A.49.49 0 014 14a2.49 2.49 0 01-.07-.65V9.84h.8v3.25a1.73 1.73 0 000 .31c0 .13.08.19.18.19s.33-.13.51-.38V9.84h.8v4.41h-.8zm3.75.05a.61.61 0 01-.63.49 1.09 1.09 0 01-.83-.49v.43h-.8V8.33h.8v1.94a1.06 1.06 0 01.83-.48.61.61 0 01.63.5 2.91 2.91 0 01.08.88v1.76a3 3 0 01-.08.89zm3.08-.46a1.05 1.05 0 01-.18.48 1.11 1.11 0 01-1 .47 1.14 1.14 0 01-1-.45 1.64 1.64 0 01-.26-1v-1.58a1.71 1.71 0 01.25-1 1.23 1.23 0 011.9 0 1.79 1.79 0 01.24 1v.92h-1.6v.8c0 .41.14.62.41.62a.34.34 0 00.36-.32 4.69 4.69 0 000-.55h.81v.12a2.8 2.8 0 010 .52zm-5.79-8C6.17 5.31 6 5.1 6 4.69V2.81c0-.41.13-.61.39-.61s.38.2.38.61v1.88c.04.41-.09.62-.34.62zm6.57 3a1.7 1.7 0 00-.51-.89 1.77 1.77 0 00-.92-.47c-1.09-.11-2.75-.17-4.95-.17s-3.86.02-4.95.17a1.73 1.73 0 00-.92.42 1.79 1.79 0 00-.52.89A15.83 15.83 0 000 11.39a15.59 15.59 0 00.23 3.13 1.63 1.63 0 00.52.88 1.52 1.52 0 00.91.41 46.35 46.35 0 005 .19 46.13 46.13 0 005-.19 1.5 1.5 0 00.91-.41 1.69 1.69 0 00.52-.88 15.87 15.87 0 00.23-3.13A15.48 15.48 0 0013 8.27zM3.71 2.35L3.08 0h-1c.17.5.36 1.06.58 1.67a14.67 14.67 0 01.55 1.89V6h.89V3.56L5.23 0h-.91zm3.67-.42a1.14 1.14 0 00-1-.46 1.12 1.12 0 00-.94.46 1.71 1.71 0 00-.25 1v1.61a1.77 1.77 0 00.25 1 1.12 1.12 0 00.99.46 1.14 1.14 0 001-.45 1.8 1.8 0 00.25-1V3a1.79 1.79 0 00-.25-1zm2.42-.4v3.4c-.17.25-.34.38-.51.38s-.16-.06-.18-.19a1.8 1.8 0 010-.32V1.53h-.82V5a2.18 2.18 0 00.07.67.49.49 0 00.52.33 1.26 1.26 0 00.92-.55V6h.82V1.53z"/></svg>