<svg xmlns="http://www.w3.org/2000/svg" width="22" height="24" viewBox="0 0 22 24"><g><g><path fill="#ed8026" d="M11.292 23.949a.907.907 0 0 1-.293.046.908.908 0 0 1-.293-.046C0 20.477.168 12.246.29 6.235.304 5.59.316 4.978.316 4.39c0-.464.4-.84.894-.84 3.826 0 6.738-1.025 9.166-3.237a.938.938 0 0 1 1.247 0c2.428 2.212 5.34 3.237 9.166 3.237.494 0 .895.376.895.84 0 .59.012 1.197.026 1.846.122 6.011.29 14.24-10.418 17.714zm8.629-17.685c-.008-.363-.015-.712-.02-1.055-3.583-.143-6.449-1.163-8.901-3.157C8.547 4.046 5.682 5.066 2.099 5.21c-.005.343-.012.692-.02 1.055-.123 6.043-.262 12.884 8.92 16.007 9.184-3.123 9.045-9.964 8.922-16.007zm-4.576 2.86c.35.328.35.86 0 1.186l-4.95 4.635a.933.933 0 0 1-.633.244.932.932 0 0 1-.632-.244l-2.475-2.319a.799.799 0 0 1 0-1.183.938.938 0 0 1 1.265 0l1.842 1.723 4.318-4.043a.947.947 0 0 1 1.265 0z"/></g></g></svg>