<svg fill='#ed6e6f' xmlns="http://www.w3.org/2000/svg" height="97.356" width="96.909"><defs><clipPath id="a" clipPathUnits="userSpaceOnUse"><path d="M0 73.017h72.682V0H0z"/></clipPath></defs><g clip-path="url(#a)" transform="matrix(1.33333 0 0 -1.33333 0 97.356)"><path d="M57.563 60.228a1.617 1.617 0 1 0 1.619-1.619c-.891 0-1.62.728-1.62 1.62m-2.734-6.366a1.618 1.618 0 1 0 3.236 0 1.618 1.618 0 0 0-3.236 0m-9.48-2.496a2.079 2.079 0 1 0 2.078-2.078 2.081 2.081 0 0 0-2.078 2.078m-6.588-4.806a1.62 1.62 0 0 0 3.239 0 1.62 1.62 0 0 0-3.24 0m-5.823-6.7a1.62 1.62 0 0 0 1.616 1.62 1.62 1.62 0 0 0 0-3.237c-.892 0-1.616.724-1.616 1.617m-8.05-6.52a1.704 1.704 0 1 0 3.407-.001 1.704 1.704 0 0 0-3.407.001m-.75-5.815a1.62 1.62 0 0 0 3.239 0 1.62 1.62 0 0 0-3.238 0m-10.31-6.624c0 1.156.937 2.095 2.093 2.095a2.094 2.094 0 1 0-2.093-2.095M3.155 15L0 20.045c9.868 16.174 15.919 23.77 22.92 30.77 8.955 8.954 18.884 16.355 29.417 22.18l.033.022 5.064-3.11c-.798-.417-1.592-.843-2.381-1.277-.02-.038-.043-.073-.064-.109a3.354 3.354 0 0 0-3.032-4.772c-.664 0-1.277.191-1.795.522a2.435 2.435 0 0 0-2.798-1.105 2.459 2.459 0 0 0-1.005-1.174 1.7 1.7 0 0 0-.331-1.191c.042-.146.064-.3.064-.459a1.734 1.734 0 0 0-2.636-1.476 2.45 2.45 0 0 0-.53-.512 2.075 2.075 0 0 0-1.762-3.176c-.295 0-.574.061-.83.171A3.544 3.544 0 0 0 39.444 54a2.08 2.08 0 0 0-2.43-2.902 3.291 3.291 0 0 0-.421-.422 1.847 1.847 0 1 0-3.25-.791 3.523 3.523 0 0 0-3.326-1.254c.172-.28.272-.609.272-.96a1.85 1.85 0 0 0-2.932-1.499 2.782 2.782 0 0 0-.088-.267 1.846 1.846 0 0 0-1.132-3.306c-.907-2.316-2.605-3.144-4.892-2.477a1.523 1.523 0 0 0-.887-1.29 1.525 1.525 0 0 0-2.285-1.859 2.438 2.438 0 0 0-1.203-.637A126.034 126.034 0 0 1 3.155 15m14.484.224a1.619 1.619 0 1 0 3.237-.003 1.619 1.619 0 0 0-3.237.003m-8.59-2.09c0 .892.726 1.62 1.619 1.62a1.62 1.62 0 0 0 0-3.238 1.62 1.62 0 0 0-1.62 1.618M26.556 0l-5.017 1.396a103.388 103.388 0 0 0 8.978 15.647c.15.215.3.432.454.648a2.437 2.437 0 0 0-.303 1.72 2.212 2.212 0 0 0 3.126 3.007 2.213 2.213 0 0 0 1.334 1.834 2.624 2.624 0 0 0-.636 1.716c0 1.057.628 1.97 1.526 2.387a2.633 2.633 0 0 0 3.059 3.363 2.632 2.632 0 0 0 1.841 4.513l.117-.018c-.642.561-.885 1.104-.885 1.703 0 .88.526 1.638 1.278 1.98a2.173 2.173 0 0 0 3.088 2.675 2.173 2.173 0 0 0 4.27.156c.012.003.025.006.04.012a2.566 2.566 0 0 0 3.435 2.205 2.56 2.56 0 0 0 3.065-.98c.154.047.313.08.349.076v.003a2.565 2.565 0 0 0 2.752 2.555 2.552 2.552 0 0 0 2.534.506 2.419 2.419 0 0 0 2.549.473 104.043 104.043 0 0 0 7.737 4.105c.272-.747 1.153-4.006 1.436-5.01-9.593-4.679-18.608-11.019-26.604-19.015C41.298 22.878 37.11 17.735 26.555 0"/></g></svg>