<svg fill='#ed6e6f' xmlns="http://www.w3.org/2000/svg" height="680.145" width="682.675"><defs><clipPath id="a" clipPathUnits="userSpaceOnUse"><path d="M0 510.109h512.006V0H0z"/></clipPath></defs><g clip-path="url(#a)" transform="matrix(1.33333 0 0 -1.33333 0 680.145)"><path d="M328.335 100.678a16.06 16.06 0 0 0-2.838-.253c-7.602 0-14.345 5.439-15.73 13.184-5.487 30.648-11.494 56.973-18.365 80.478-2.479 8.48 2.387 17.367 10.868 19.846 8.491 2.48 17.368-2.388 19.847-10.87 7.194-24.613 13.458-52.03 19.15-83.816 1.555-8.698-4.234-17.011-12.932-18.57m152.603 4.286a16.001 16.001 0 0 1 31.063 5.396V209.5a16 16 0 0 1-3.395 9.856c-23.804 30.437-60.088 55.85-86.334 71.81a518.076 518.076 0 0 1-29.066 16.395c20.803 15.316 42.805 33.169 62.08 54.037 25.801 27.933 44.073 58.34 55.861 92.959 2.848 8.365-1.624 17.455-9.989 20.303-8.364 2.848-17.455-1.625-20.303-9.99-6.314-18.541-14.467-35-24.382-50.11l-15.992 61.278c-2.23 8.55-10.965 13.675-19.52 11.44-8.552-2.23-13.674-10.971-11.442-19.52l21.773-83.432c.111-.425.24-.84.382-1.245-19.579-21.122-43.424-40.205-71.352-59.965-12.585 5.478-25.102 10.296-37.257 14.32-7.338 25.913-13.89 50.008-19.042 72.963a94.425 94.425 0 0 1 5.963-.196c17.91 0 36.68 5.459 56.08 24.039 6.382 6.112 6.601 16.24.49 22.622-6.112 6.382-16.242 6.6-22.623.489-13.899-13.31-26.096-17.154-46.394-14.014-2.875 17.392-4.69 34.28-5.136 50.995-.23 8.667-7.324 15.573-15.994 15.573h-129c-8.567 0-15.615-6.75-15.985-15.31-1.218-28.17.937-57.271 6.581-88.635-11.329-6.404-22.765-13.633-34.063-21.47-5.703 14.86-12.837 29.71-22.35 42.369 15.298 20.955 22.178 40.704 23.391 66.288.417 8.828-6.399 16.323-15.225 16.74-8.847.42-16.32-6.396-16.74-15.224-.857-18.077-4.92-30.993-14.81-45.463-11.44 7.422-25.144 12.087-41.724 12.589-8.807.24-16.209-6.677-16.477-15.51-.267-8.832 6.676-16.208 15.51-16.476 27.678-.838 45.768-19.857 61.63-65.243-28.295-22.521-54.325-48.056-73.773-73.042A16.002 16.002 0 0 1 0 281.894V176.407a16.001 16.001 0 0 1 29.348-8.823c20.955 31.704 87.177 106.853 133.401 141.9a5484.598 5484.598 0 0 1 7.771-25.196c11.035-35.577 22.357-72.12 31.4-111.82-28.904 16.43-54.094 22.69-85.969 22.245-8.835-.121-15.9-7.381-15.779-16.217.12-8.761 7.26-15.782 15.993-15.782h.224c28.771.4 50.347-5.752 77.821-22.9L44.197 30.834a16 16 0 0 1 9.121-28.942L159.541.002l.284-.002a16 16 0 0 1 9.4 3.053L219.55 39.59c.24-7.26.36-14.505.36-21.7 0-8.836 7.163-16 16-16h129c8.837 0 16 7.164 16 16 0 14.484-.42 28.614-1.194 42.397C414.926 27.14 450.32 9.26 493.378 2.107c.888-.148 1.77-.22 2.642-.22 7.683 0 14.463 5.552 15.764 13.38 1.448 8.718-4.443 16.958-13.16 18.406-31.642 5.257-57.988 17.052-84.125 38.522l24.298 41.369c4.476 7.618 1.927 17.424-5.69 21.898-7.62 4.474-17.427 1.927-21.9-5.693L390.543 94.59a388.878 388.878 0 0 0-12.273 13.445 16.044 16.044 0 0 1-3.035 2.678c-4.833 39.985-12.256 76.657-20.319 110.08 19.774-12.008 41.61-27.392 61.275-43.395 34.803-28.325 58.403-54.726 64.746-72.436"/></g></svg>