<svg fill='#ed6e6f' xmlns="http://www.w3.org/2000/svg" height="74.497" width="75.107"><defs><clipPath id="a" clipPathUnits="userSpaceOnUse"><path d="M0 55.872h56.33V0H0z"/></clipPath></defs><g clip-path="url(#a)" transform="matrix(1.33333 0 0 -1.33333 0 74.497)"><path d="M50 39.872a2 2 0 0 1 0 4h-5c-.358 0-.689.19-.868.5l-3.712 6.5h-1.094l1.635-5.726A1 1 0 0 0 40 43.872h-1.4a5.14 5.14 0 0 0 0-4zM51.978 9.634a3.813 3.813 0 0 0-5.324-2.2 1.825 1.825 0 0 1-1.448.076l-4.168-1.564c-.926-.345-1.88-.61-2.853-.79l-.363 1.966c.856.16 1.697.395 2.513.7L44.5 9.378a3.835 3.835 0 0 0 3.044-.16 1.816 1.816 0 0 1 2.535 1.05l.972 2.921 1.901-.633zM35.2 13.892l-.4 1.961 1.463.293a7.657 7.657 0 0 1 4.901 3.281l1.664-1.109a9.646 9.646 0 0 0-6.17-4.134zm-1.19 8.96a2.03 2.03 0 0 1-1.023-1.18l-.077-.233a4.04 4.04 0 0 0-5.11-2.553 2.043 2.043 0 0 1-2.626-1.44l-.199-.816-1.94.484.2.815a4.043 4.043 0 0 0 5.2 2.854 2.039 2.039 0 0 1 2.58 1.287l.001.003.077.232a4.04 4.04 0 0 0 5.107 2.553l.113-.036-.629-1.9-.113.037a2.031 2.031 0 0 1-1.561-.108M29.88 4.11L26.313 2.92l-.631 1.901 3.566 1.19c1.184.394 2.409.655 3.65.78l.2-1.99a14.847 14.847 0 0 1-3.216-.688zm-9.9 3.563l-1.96.4c.4 2 2.167 5.8 5.98 5.8a36.92 36.92 0 0 1 7.757.97l.487-1.939A38.487 38.487 0 0 0 24 11.873c-3.144 0-4.011-4.155-4.02-4.2m-3.96 8l-.02.1a8.98 8.98 0 0 0 3.4 8.9l1.2-1.6a6.967 6.967 0 0 1-2.64-6.908zm-1.132 12.226l-1.055-1.582-1.665 1.11 1.056 1.582a4.173 4.173 0 0 0 3.482 1.863c.94 0 1.774.602 2.07 1.494l1.275 3.822 1.9-.632-1.274-3.823a4.18 4.18 0 0 0-3.971-2.86 2.171 2.171 0 0 1-1.818-.974M26 32.372a9.316 9.316 0 0 0 .919 4.021l1.8-.869a7.284 7.284 0 0 1-.72-3.152 9.216 9.216 0 0 0-1.554-5.134l-1.664 1.11A7.22 7.22 0 0 1 26 32.371m15.22-7.152a6.183 6.183 0 0 0 8.554-7.699l-1.828-4.876-1.874.7L47.9 18.22a4.183 4.183 0 0 1-2.446 5.384 4.184 4.184 0 0 1-3.34-.176l-2.66-1.33-.894 1.79zM9.3 15.165l-.464.465a5.338 5.338 0 0 0 .564 8.042l1.2-1.6a3.335 3.335 0 0 1-.356-5.028l.464-.465zm45.4 10.148a6.564 6.564 0 0 0-1.552 1.99 10.595 10.595 0 0 0-.672 2.57c-.056.323-.11.642-.176.948-.018.088-.042.167-.061.254-6.49-5.112-15.896-3.994-21.008 2.496a14.967 14.967 0 0 0-3.022 6.904c-.471.184-.932.383-1.376.586a7.824 7.824 0 0 1-3.384.992 5.307 5.307 0 0 1-3.14-1.5c-.37-.313-.723-.645-1.077-.976a17.61 17.61 0 0 0-2.2-1.843 9.388 9.388 0 0 0-4.89-1.562 20.651 20.651 0 0 0-1.044-.01 5.616 5.616 0 0 1-2.488-.358 11.19 11.19 0 0 1-5.163-5.273c-.4-.978-.67-2.004-.8-3.053a15.696 15.696 0 0 0-.718-2.975 10.1 10.1 0 0 0-1-1.806 4.135 4.135 0 0 1-.93-2.425c.046-5.489 4.702-10.559 10.379-11.3a27.296 27.296 0 0 0 4-.753l4.827-1.368a.998.998 0 0 0 .799-.969A5.86 5.86 0 0 1 27.042.12L43 2.572a9.315 9.315 0 0 0 4.075-.283 6.685 6.685 0 0 1 5.717.912 7.015 7.015 0 0 1 3.058 5.241 7.506 7.506 0 0 1-.39 2.53A9.483 9.483 0 0 0 55 13.92c.103 1.377.337 2.74.7 4.072.16.663.318 1.325.443 2a5.912 5.912 0 0 1-.56 4.353 7.375 7.375 0 0 1-.882.97"/><path d="M36 45.872h2.674l-1.635 5.726A1 1 0 0 0 38 52.872h3c.358 0 .689-.19.868-.5l3.712-6.5H50a4 4 0 0 0 0-8H36c-1.682 0-3 1.757-3 4 0 2.243 1.318 4 3 4m7-16c7.18 0 13 5.82 13 13s-5.82 13-13 13-13-5.82-13-13c.008-7.176 5.823-12.992 13-13"/><path d="M36 43.872c.553 0 1-.896 1-2s-.447-2-1-2c-.553 0-1 .896-1 2s.447 2 1 2"/></g></svg>