<svg width="232" height="50" viewBox="0 0 232 50" fill="none" xmlns="http://www.w3.org/2000/svg">
<path d="M229.989 19H232V31.886H229.989V19Z" fill="white"/>
<path d="M232 22.9885V27.8975H226L226 22.9885H232Z" fill="white"/>
<path d="M0 19H1.89745L1.89745 31.886H0L0 19Z" fill="white"/>
<path d="M5.88597 22.9885V27.8975H0L0 23L5.88597 22.9885Z" fill="white"/>
<path d="M82.9614 13.9609H88.2744V28.356C88.2744 30.0715 87.9162 31.5246 87.1997 32.7153C86.4832 33.896 85.4791 34.7891 84.1875 35.3945C82.8958 36 81.3771 36.3027 79.6313 36.3027C77.9057 36.3027 76.387 36 75.0752 35.3945C73.7734 34.7891 72.7542 33.896 72.0176 32.7153C71.291 31.5246 70.9277 30.0715 70.9277 28.356V13.9609H76.2558V28.356C76.2558 29.2642 76.387 30.0059 76.6494 30.5811C76.9118 31.1462 77.2952 31.5599 77.7998 31.8223C78.3043 32.0846 78.9149 32.2158 79.6313 32.2158C80.3579 32.2158 80.9684 32.0846 81.4629 31.8223C81.9573 31.5599 82.3307 31.1462 82.583 30.5811C82.8353 30.0059 82.9614 29.2642 82.9614 28.356V13.9609ZM104.212 30.1421C104.212 29.799 104.162 29.4912 104.061 29.2188C103.96 28.9362 103.773 28.6738 103.501 28.4316C103.228 28.1895 102.835 27.9473 102.32 27.7051C101.816 27.4528 101.149 27.1904 100.322 26.918C99.3533 26.5951 98.4198 26.2318 97.5217 25.8281C96.6236 25.4144 95.8214 24.9351 95.115 24.3901C94.4086 23.8351 93.8485 23.1893 93.4348 22.4526C93.0211 21.7059 92.8142 20.8381 92.8142 19.8491C92.8142 18.9006 93.0261 18.0479 93.4499 17.291C93.8738 16.5241 94.4641 15.8732 95.2209 15.3384C95.9879 14.7935 96.886 14.3797 97.9153 14.0972C98.9446 13.8045 100.07 13.6582 101.291 13.6582C102.905 13.6582 104.328 13.9408 105.559 14.5059C106.801 15.0609 107.769 15.853 108.466 16.8823C109.172 17.9015 109.525 19.1074 109.525 20.5H104.242C104.242 19.945 104.126 19.4556 103.894 19.0317C103.672 18.6079 103.334 18.2749 102.88 18.0327C102.426 17.7905 101.856 17.6694 101.17 17.6694C100.504 17.6694 99.9436 17.7703 99.4895 17.9722C99.0354 18.174 98.6923 18.4465 98.4602 18.7896C98.2281 19.1226 98.1121 19.4909 98.1121 19.8945C98.1121 20.2275 98.2029 20.5303 98.3845 20.8027C98.5762 21.0651 98.8437 21.3123 99.1868 21.5444C99.5399 21.7765 99.9638 21.9985 100.458 22.2104C100.963 22.4224 101.528 22.6292 102.154 22.8311C103.324 23.2044 104.364 23.6232 105.272 24.0874C106.19 24.5415 106.962 25.0612 107.588 25.6465C108.223 26.2217 108.703 26.8776 109.026 27.6143C109.359 28.3509 109.525 29.1834 109.525 30.1118C109.525 31.1007 109.333 31.9787 108.95 32.7456C108.566 33.5125 108.017 34.1634 107.3 34.6982C106.584 35.223 105.726 35.6216 104.727 35.894C103.728 36.1665 102.613 36.3027 101.382 36.3027C100.251 36.3027 99.1363 36.1615 98.0364 35.8789C96.9465 35.5863 95.9576 35.1423 95.0696 34.5469C94.1815 33.9414 93.4701 33.1694 92.9353 32.231C92.4106 31.2824 92.1482 30.1572 92.1482 28.8555H97.4763C97.4763 29.5013 97.5621 30.0462 97.7336 30.4902C97.9052 30.9342 98.1575 31.2925 98.4905 31.5649C98.8235 31.8273 99.2322 32.019 99.7165 32.1401C100.201 32.2511 100.756 32.3066 101.382 32.3066C102.058 32.3066 102.603 32.2108 103.016 32.019C103.43 31.8172 103.733 31.5549 103.925 31.2319C104.116 30.8989 104.212 30.5356 104.212 30.1421ZM128.066 31.9131V36H116.926V31.9131H128.066ZM118.818 13.9609V36H113.505V13.9609H118.818ZM137.193 13.9609V36H131.895V13.9609H137.193ZM144.805 13.9609H149.134L154.054 29.2944L158.973 13.9609H163.302L155.81 36H152.298L144.805 13.9609ZM142.171 13.9609H146.652L147.484 30.8535V36H142.171V13.9609ZM161.456 13.9609H165.951V36H160.623V30.8535L161.456 13.9609Z" fill="white"/>
</svg>
