<svg width="200" height="52" viewBox="0 0 200 52" fill="none" xmlns="http://www.w3.org/2000/svg">
<path d="M27.657 2.24283H26.657V3.24283V33.2012C26.657 35.0081 26.4047 36.4005 25.955 37.4273C25.5108 38.4209 24.8799 39.1019 24.0696 39.5319C23.2215 39.9819 22.1224 40.2343 20.7266 40.2343C19.3553 40.2343 18.2515 39.9832 17.3762 39.528C16.5419 39.0942 15.8915 38.4085 15.4292 37.4142C14.9634 36.3916 14.7016 35.0043 14.7016 33.2012V3.24283V2.24283H13.7016H2.6129H1.6129V3.24283V33.2012C1.6129 36.9131 2.39978 40.1272 4.02741 42.7947L4.02736 42.7947L4.03264 42.8032C5.67175 45.4302 7.94363 47.4173 10.8227 48.7564L10.8254 48.7576C13.71 50.089 17.0184 50.7398 20.7266 50.7398C24.4743 50.7398 27.7858 50.0898 30.6331 48.7551C33.4935 47.4143 35.7356 45.4241 37.3325 42.7926L37.3344 42.7894C38.9389 40.1229 39.7142 36.9107 39.7142 33.2012V3.24283V2.24283H38.7142H27.657ZM69.9814 35.3332L69.9813 35.3332L69.9854 35.3442C70.1475 35.782 70.2382 36.302 70.2382 36.9185C70.2382 37.5644 70.0836 38.1459 69.7764 38.6817C69.4983 39.1474 69.0376 39.5699 68.3202 39.9215C67.6392 40.2348 66.6676 40.4233 65.3473 40.4233C64.1063 40.4233 63.0318 40.3134 62.1151 40.1042C61.2284 39.8814 60.5176 39.54 59.9566 39.1C59.4147 38.6545 58.9882 38.0595 58.6881 37.2826C58.3882 36.5065 58.2198 35.5028 58.2198 34.2408V33.2408H57.2198H46.131H45.131V34.2408C45.131 37.0854 45.7051 39.6004 46.8941 41.7498L46.894 41.7499L46.9003 41.7609C48.0883 43.8455 49.6731 45.5656 51.6476 46.9118L51.6541 46.9162C53.5982 48.2196 55.7578 49.1876 58.126 49.8235L58.126 49.8236L58.1365 49.8263C60.5066 50.4351 62.9108 50.7398 65.3473 50.7398C67.9821 50.7398 70.3931 50.4484 72.5723 49.854C74.7502 49.2601 76.6508 48.3826 78.2555 47.2074L78.2628 47.2019C79.8734 45.9997 81.1219 44.5257 81.9927 42.784C82.8701 41.0292 83.2954 39.045 83.2954 36.8555C83.2954 34.8043 82.9274 32.9299 82.1693 31.2507C81.4379 29.5845 80.3565 28.1093 78.9402 26.8265C77.5569 25.5337 75.8692 24.4023 73.8924 23.4242C71.9469 22.4303 69.7342 21.5403 67.2593 20.7508C65.9812 20.3385 64.8341 19.9182 63.8161 19.4908C62.8316 19.0687 62.0072 18.6349 61.3343 18.1933C60.7024 17.7652 60.2443 17.3339 59.9303 16.9095C59.6715 16.5144 59.5428 16.0835 59.5428 15.5916C59.5428 14.9573 59.721 14.3901 60.0878 13.8638L60.0879 13.8638L60.0957 13.8523C60.4546 13.3217 61.0072 12.864 61.8157 12.5047C62.5972 12.1573 63.615 11.9608 64.9062 11.9608C66.2228 11.9608 67.2354 12.1939 67.9954 12.5992C68.7772 13.0162 69.3291 13.5696 69.6908 14.26L69.6951 14.2682L69.6995 14.2763C70.0906 14.9905 70.3012 15.8393 70.3012 16.8517V17.8517H71.3012H82.2954H83.2954V16.8517C83.2954 13.7781 82.5133 11.0655 80.9154 8.75784C79.3532 6.45045 77.1873 4.68888 74.4545 3.46603C71.7399 2.22085 68.6333 1.61279 65.1583 1.61279C62.5391 1.61279 60.1056 1.92646 57.8642 2.56323C55.6266 3.17795 53.6498 4.08451 51.9478 5.29359C50.2581 6.48789 48.9253 7.9528 47.9664 9.68709C46.9939 11.4246 46.5171 13.3693 46.5171 15.4971C46.5171 17.6977 46.9786 19.6757 47.934 21.4001L47.9368 21.4052C48.8663 23.06 50.1208 24.503 51.6876 25.734L51.6876 25.7341L51.6946 25.7395C53.2303 26.9242 54.9657 27.9595 56.8959 28.8487L56.8958 28.8487L56.9043 28.8525C58.8052 29.7068 60.7791 30.475 62.8259 31.1572L62.8294 31.1584C64.5273 31.7175 65.8632 32.2461 66.8532 32.7411L66.8638 32.7464L66.8746 32.7515C67.9017 33.2348 68.6261 33.6909 69.0932 34.1062C69.5615 34.5224 69.8388 34.9339 69.9814 35.3332ZM121.238 39.6042H120.238H101.99V3.24283V2.24283H100.99H89.9327H88.9327V3.24283V49.1098V50.1098H89.9327H96.0522H97.0522H100.99H101.99H120.238H121.238V49.1098V40.6042V39.6042ZM139.586 3.24283V2.24283H138.586H127.56H126.56V3.24283V49.1098V50.1098H127.56H138.586H139.586V49.1098V3.24283ZM152.387 2.24283H148.302H147.302V3.24283V49.1098V50.1098H148.302H159.359H160.359V49.1098V38.3991V38.3745L160.358 38.3499L159.628 23.5417L168.43 49.4316L168.661 50.1098H169.377H176.685H177.402L177.632 49.4316L186.434 23.5417L185.704 38.3499L185.703 38.3745V38.3991V49.1098V50.1098H186.703H197.792H198.792V49.1098V3.24283V2.24283H197.792H193.675H192.279H188.436H187.484H183.269H182.54L182.317 2.93734L173.031 31.881L163.745 2.93734L163.522 2.24283H162.793H158.579H157.627H153.784H152.387Z" fill="#E02712" stroke="white" stroke-width="2"/>
</svg>
