<svg width="10" height="13" fill="none" xmlns="http://www.w3.org/2000/svg"><path fill-rule="evenodd" clip-rule="evenodd" d="M0 .722v.722h1.429v.819c0 1.176.411 2.017 1.564 3.199L4.007 6.5 2.993 7.538C1.84 8.72 1.43 9.561 1.43 10.738v.818H0V13h10v-1.444H8.571v-.819c0-1.176-.411-2.017-1.564-3.199L5.993 6.5l1.014-1.038C8.16 4.28 8.57 3.439 8.57 2.262v-.818H10V0H0v.722zM7.143 2.18c0 1.343-.133 1.43-2.143 1.43-2.011 0-2.143-.088-2.143-1.432v-.735h4.286v.735zm-1.22 6.26c1.022 1.067 1.22 1.454 1.22 2.38 0 .61-.06.735-.35.735-.194 0-.676-.346-1.072-.768L5 10.021l-.72.767c-.397.422-.88.768-1.072.768-.291 0-.35-.125-.35-.735 0-.403.089-.911.198-1.128.212-.418 1.77-2.11 1.944-2.11.056 0 .472.386.924.858z" fill="#E90000"/></svg>