<svg width="18" height="18" fill="none" xmlns="http://www.w3.org/2000/svg"><path d="M9.245 0C4.31 0 1.688 3.162 1.688 6.609c0 1.598.893 3.592 2.323 4.225.408.184.354-.04.705-1.383a.319.319 0 00-.077-.313C2.595 6.773 4.24 1.912 8.954 1.912c6.82 0 5.545 9.436 1.186 9.436-1.123 0-1.96-.882-1.695-1.973.32-1.3.949-2.697.949-3.634 0-2.36-3.518-2.01-3.518 1.118 0 .966.343 1.619.343 1.619s-1.132 4.572-1.342 5.426c-.356 1.446.048 3.787.083 3.989.022.11.146.146.216.055.112-.147 1.48-2.098 1.863-3.509l.712-2.599c.377.681 1.464 1.251 2.623 1.251 3.447 0 5.939-3.03 5.939-6.79C16.3 2.697 13.215 0 9.244 0z" fill="#fff"/></svg>