<svg width="18" height="18" fill="none" xmlns="http://www.w3.org/2000/svg"><g clip-path="url(#clip0_45_37)"><path d="M18 16.554a1.446 1.446 0 01-2.892 0C15.108 9.02 8.979 2.89 1.446 2.89a1.446 1.446 0 110-2.891c9.13 0 16.553 7.426 16.553 16.554zM1.445 6.764a1.446 1.446 0 000 2.892c3.803 0 6.899 3.096 6.899 6.899a1.446 1.446 0 102.891 0c0-5.399-4.392-9.79-9.79-9.79zm1.148 6.482a2.16 2.16 0 100 4.319 2.16 2.16 0 000-4.319z" fill="#fff"/></g><defs><clipPath id="clip0_45_37"><path fill="#fff" d="M0 0h18v18H0z"/></clipPath></defs></svg>