<svg width="18" height="18" fill="none" xmlns="http://www.w3.org/2000/svg"><path d="M13.033 0H4.966A4.973 4.973 0 000 4.967v8.066A4.973 4.973 0 004.967 18h8.066A4.973 4.973 0 0018 13.033V4.967A4.973 4.973 0 0013.033 0zm3.37 13.033a3.374 3.374 0 01-3.37 3.37H4.967a3.374 3.374 0 01-3.37-3.37V4.967a3.374 3.374 0 013.37-3.37h8.066a3.374 3.374 0 013.37 3.37v8.066z" fill="#fff"/><path d="M9 4.362A4.643 4.643 0 004.362 9 4.643 4.643 0 009 13.638 4.643 4.643 0 0013.64 9 4.643 4.643 0 009 4.362zm0 7.679A3.044 3.044 0 015.96 9 3.044 3.044 0 019 5.958 3.044 3.044 0 0112.041 9a3.044 3.044 0 01-3.04 3.04zm4.833-9.033a1.176 1.176 0 00-1.171 1.171 1.176 1.176 0 001.171 1.171c.309 0 .61-.125.828-.343a1.176 1.176 0 000-1.657 1.176 1.176 0 00-.828-.342z" fill="#fff"/></svg>