<svg width="18" height="18" fill="none" xmlns="http://www.w3.org/2000/svg"><path d="M16.335 9.113a1.92 1.92 0 00-1.643-1.493c-1.883-.21-3.79-.212-5.689-.21-1.899-.002-3.806 0-5.69.21a1.919 1.919 0 00-1.642 1.493c-.264 1.15-.268 2.407-.268 3.592 0 1.184 0 2.44.265 3.591A1.919 1.919 0 003.31 17.79c1.884.21 3.791.212 5.69.21 1.899.002 3.805 0 5.69-.21a1.92 1.92 0 001.642-1.493c.264-1.15.266-2.406.266-3.591s.002-2.441-.263-3.592zm-10.598.892h-1.1v5.843h-1.02v-5.843h-1.08v-.957h3.2v.957zm2.775 5.844h-.919v-.553c-.365.418-.712.622-1.05.622-.295 0-.499-.12-.59-.376-.05-.153-.082-.396-.082-.754v-4.007h.918v3.731c0 .215 0 .327.009.357.022.143.091.215.214.215.185 0 .377-.142.58-.43v-3.873h.92v5.068zM12 14.328c0 .468-.031.806-.093 1.02-.122.378-.368.57-.733.57-.327 0-.642-.181-.95-.56v.49h-.917v-6.8h.918v2.22c.296-.364.611-.549.949-.549.365 0 .61.192.733.572.062.204.093.539.093 1.018v2.019zm3.466-.846h-1.837v.898c0 .47.154.704.47.704.225 0 .357-.123.41-.368.008-.05.02-.254.02-.623h.937v.134c0 .296-.012.5-.02.592a1.309 1.309 0 01-.214.55c-.255.368-.631.55-1.11.55-.481 0-.847-.173-1.112-.52-.195-.253-.295-.652-.295-1.191v-1.775c0-.542.089-.938.284-1.194.265-.347.63-.52 1.1-.52.46 0 .825.173 1.083.52.192.256.284.652.284 1.194v1.05z" fill="#fff"/><path d="M14.09 11.546c-.307 0-.461.234-.461.703v.468h.918v-.468c0-.469-.154-.703-.458-.703zm-3.408 0c-.151 0-.305.071-.458.223v3.089c.153.153.307.226.458.226.265 0 .4-.226.4-.684v-2.163c0-.457-.135-.691-.4-.691zm.513-4.604c.338 0 .69-.205 1.06-.628v.558h.928V1.751h-.928v3.914c-.206.29-.4.434-.586.434-.125 0-.198-.073-.218-.217-.011-.03-.011-.143-.011-.36V1.75h-.925V5.8c0 .361.03.606.082.76.093.26.3.381.598.381zM4.735 4.09v2.783h1.028V4.09L7.001 0h-1.04l-.702 2.699L4.529 0H3.444c.217.637.443 1.277.66 1.915.33.958.536 1.68.63 2.174zM8.38 6.942c.464 0 .826-.175 1.082-.524.195-.256.288-.66.288-1.204V3.42c0-.547-.093-.947-.288-1.206-.256-.35-.617-.525-1.082-.525-.463 0-.824.175-1.08.525-.198.259-.291.659-.291 1.206v1.794c0 .544.093.948.29 1.204.257.35.618.524 1.08.524zm-.443-3.708c0-.473.143-.71.443-.71.299 0 .442.236.442.71V5.39c0 .473-.143.71-.442.71-.3 0-.443-.237-.443-.71V3.234z" fill="#fff"/></svg>