<svg width="37" height="40" fill="none" xmlns="http://www.w3.org/2000/svg"><path d="M10.571 26.328v4.05c0 .563-.192 1.041-.578 1.435-.385.394-.853.59-1.404.59H1.982c-.55 0-1.018-.196-1.404-.59A1.975 1.975 0 010 30.378v-4.05c0-.563.193-1.04.578-1.435.386-.393.854-.59 1.404-.59H8.59c.55 0 1.019.197 1.404.59.386.394.578.872.578 1.435zm0-10.801v4.05c0 .563-.192 1.041-.578 1.435-.385.393-.853.59-1.404.59H1.982c-.55 0-1.018-.197-1.404-.59A1.974 1.974 0 010 19.577v-4.05c0-.563.193-1.041.578-1.435.386-.394.854-.59 1.404-.59H8.59c.55 0 1.019.196 1.404.59.386.394.578.872.578 1.435zm13.215 10.801v4.05c0 .563-.193 1.041-.578 1.435-.386.394-.854.59-1.404.59h-6.608c-.55 0-1.018-.196-1.404-.59a1.975 1.975 0 01-.578-1.435v-4.05c0-.563.193-1.04.578-1.435.386-.393.854-.59 1.404-.59h6.608c.55 0 1.018.197 1.404.59.385.394.578.872.578 1.435zM10.57 4.726v4.05a1.97 1.97 0 01-.578 1.434 1.89 1.89 0 01-1.404.591H1.982c-.55 0-1.018-.197-1.404-.59A1.975 1.975 0 010 8.775v-4.05c0-.563.193-1.041.578-1.435.386-.394.854-.59 1.404-.59H8.59c.55 0 1.019.196 1.404.59.386.394.578.872.578 1.435zm13.215 10.8v4.051c0 .563-.193 1.041-.578 1.435-.386.393-.854.59-1.404.59h-6.608c-.55 0-1.018-.197-1.404-.59a1.975 1.975 0 01-.578-1.435v-4.05c0-.563.193-1.041.578-1.435.386-.394.854-.59 1.404-.59h6.608c.55 0 1.018.196 1.404.59.385.394.578.872.578 1.435zM37 26.329v4.05c0 .563-.193 1.041-.578 1.435a1.89 1.89 0 01-1.404.59H28.41a1.89 1.89 0 01-1.404-.59 1.975 1.975 0 01-.578-1.435v-4.05c0-.563.192-1.04.578-1.435.385-.393.853-.59 1.404-.59h6.607c.55 0 1.018.197 1.404.59.385.394.578.872.578 1.435zM23.786 4.726v4.05c0 .563-.193 1.04-.578 1.434a1.892 1.892 0 01-1.404.591h-6.608c-.55 0-1.018-.197-1.404-.59a1.975 1.975 0 01-.578-1.435v-4.05c0-.563.193-1.041.578-1.435.386-.394.854-.59 1.404-.59h6.608c.55 0 1.018.196 1.404.59.385.394.578.872.578 1.435zM37 15.526v4.051c0 .563-.193 1.041-.578 1.435-.386.393-.853.59-1.404.59H28.41c-.55 0-1.019-.197-1.404-.59a1.975 1.975 0 01-.578-1.435v-4.05c0-.563.192-1.041.578-1.435.385-.394.853-.59 1.404-.59h6.607c.55 0 1.018.196 1.404.59.385.394.578.872.578 1.435zm0-10.8v4.05c0 .563-.193 1.04-.578 1.434a1.89 1.89 0 01-1.404.591H28.41c-.55 0-1.019-.197-1.404-.59a1.975 1.975 0 01-.578-1.435v-4.05c0-.563.192-1.041.578-1.435.385-.394.853-.59 1.404-.59h6.607c.55 0 1.018.196 1.404.59.385.394.578.872.578 1.435z" fill="#D3D3D3"/></svg>