<svg xmlns="http://www.w3.org/2000/svg" xmlns:xlink="http://www.w3.org/1999/xlink" width="85px" height="34px" viewBox="0 0 85 34" version="1.1">
    <title>438CC4D7-A896-495A-8C93-CBA2EBEF5890</title>
    <defs>
        <linearGradient x1="16.5445471%" y1="54.1359436%" x2="81.691791%" y2="43.5923959%" id="linearGradient-1">
            <stop stop-color="#8520DA" offset="0%"/>
            <stop stop-color="#8123DB" offset="29.25%"/>
            <stop stop-color="#742DDF" offset="38.85%"/>
            <stop stop-color="#603DE4" offset="48.61%"/>
            <stop stop-color="#4254ED" offset="58.49%"/>
            <stop stop-color="#1D70F7" offset="68.35%"/>
            <stop stop-color="#0087FF" offset="75%"/>
            <stop stop-color="#00E474" offset="100%"/>
        </linearGradient>
        <path d="M19.2662589,4.82851133 L19.2662589,16.685644 L21.6380129,16.685644 L21.6380129,4.82851133 C21.6380129,3.52100971 22.7018188,2.45765049 24.0091715,2.45765049 L24.0091715,2.45765049 C25.3166731,2.45765049 26.3806278,3.52100971 26.3806278,4.82851133 L26.3806278,4.82851133 L28.7520841,4.82851133 C28.7520841,2.20919094 26.6286408,0.0857475728 24.0091715,0.0857475728 L24.0091715,0.0857475728 C21.3897023,0.0857475728 19.2662589,2.20919094 19.2662589,4.82851133 L19.2662589,4.82851133 Z M50.3900971,2.45705502 L50.3900971,12.2385307 C50.3900971,14.858 52.5132427,16.9814434 55.1330097,16.9814434 L55.1330097,16.9814434 L55.1330097,14.6099871 C53.8255081,14.6099871 52.7612557,13.5460324 52.7612557,12.2385307 L52.7612557,12.2385307 L52.7612557,4.82851133 L59.8759223,4.82851133 L59.8759223,2.45705502 L50.3900971,2.45705502 Z M45.6473333,4.82851133 L48.0187896,4.82851133 L48.0187896,2.45765049 L45.6473333,2.45765049 L45.6473333,4.82851133 Z M0,4.82851133 L2.37100971,4.82851133 L2.37100971,2.45765049 L0,2.45765049 L0,4.82851133 Z M31.1233916,11.646932 L31.1233916,16.685644 L33.4952945,16.685644 L33.4952945,11.646932 C33.4952945,10.3397282 34.5588026,9.27577346 35.8664531,9.27577346 L35.8664531,9.27577346 C36.3885307,9.27577346 38.1133074,9.47748867 38.3922848,12.0697152 L38.3922848,12.0697152 C38.6322589,14.2969191 39.6646537,15.4763948 40.4881877,16.0733528 L40.4881877,16.0733528 C41.6195793,16.8925696 42.8149838,16.9811456 43.275877,16.9811456 L43.275877,16.9811456 C45.891178,16.9811456 48.0186408,14.8538317 48.0186408,12.238233 L48.0186408,12.238233 L48.0186408,7.2001165 L45.6473333,7.2001165 L45.6473333,12.238233 C45.6473333,13.5460324 44.5836764,14.6099871 43.275877,14.6099871 L43.275877,14.6099871 C42.7539482,14.6099871 41.0288738,14.408123 40.7500453,11.8157476 L40.7500453,11.8157476 C40.5100712,9.58839482 39.4778252,8.40921683 38.6539935,7.81240777 L38.6539935,7.81240777 C37.5226019,6.99274434 36.327644,6.90446602 35.8664531,6.90446602 L35.8664531,6.90446602 C33.2511521,6.90446602 31.1233916,9.03222654 31.1233916,11.646932 L31.1233916,11.646932 Z M9.36494498,7.81240777 C8.5405178,8.40921683 7.50842071,9.58839482 7.26829773,11.8157476 L7.26829773,11.8157476 C6.98961812,14.408123 5.26469256,14.6099871 4.74291262,14.6099871 L4.74291262,14.6099871 C3.43481553,14.6099871 2.37100971,13.5460324 2.37100971,12.238233 L2.37100971,12.238233 L2.37100971,7.2001165 L0,7.2001165 L0,12.238233 C0,14.8538317 2.12746278,16.9811456 4.74291262,16.9811456 L4.74291262,16.9811456 C5.20395469,16.9811456 6.39906149,16.8925696 7.52985761,16.0733528 L7.52985761,16.0733528 C8.35428479,15.4763948 9.38638188,14.2969191 9.62620712,12.0697152 L9.62620712,12.0697152 C9.90563107,9.47748867 11.6302589,9.27577346 12.1523366,9.27577346 L12.1523366,9.27577346 C13.4598382,9.27577346 14.5234951,10.3397282 14.5234951,11.646932 L14.5234951,11.646932 L14.5234951,16.685644 L16.8952492,16.685644 L16.8952492,11.646932 C16.8952492,9.03222654 14.7673398,6.90446602 12.1523366,6.90446602 L12.1523366,6.90446602 C11.6908479,6.90446602 10.49589,6.99274434 9.36494498,7.81240777 L9.36494498,7.81240777 Z M64.6186861,7.2001165 L64.6186861,12.2385307 C64.6186861,13.5460324 63.5550291,14.6099871 62.2470809,14.6099871 L62.2470809,14.6099871 C60.9394304,14.6099871 59.8759223,13.5460324 59.8759223,12.2385307 L59.8759223,12.2385307 L59.8759223,7.2001165 L57.5046149,7.2001165 L57.5046149,12.2385307 C57.5046149,14.448466 59.015767,16.3060324 61.0616505,16.8321294 L61.0616505,16.8321294 L61.0616505,19.3527508 L63.4331068,19.3527508 L63.4331068,16.8321294 C65.4788414,16.3060324 66.9902913,14.448466 66.9902913,12.2385307 L66.9902913,12.2385307 L66.9902913,7.2001165 L64.6186861,7.2001165 Z M24.0091715,7.2001165 L24.0091715,9.57142395 L26.3806278,9.57142395 L26.3806278,16.685644 L28.7520841,16.685644 L28.7520841,7.2001165 L24.0091715,7.2001165 Z" id="path-2"/>
        <polygon id="path-4" points="0 0.121341748 55.1329948 0.121341748 55.1329948 9.3265521 0 9.3265521"/>
        <linearGradient x1="36.3843084%" y1="34.7016078%" x2="60.5830197%" y2="61.4362942%" id="linearGradient-6">
            <stop stop-color="#B26EFF" offset="0%"/>
            <stop stop-color="#C576FF" offset="48.42%"/>
            <stop stop-color="#CF7AFF" offset="100%"/>
        </linearGradient>
        <path d="M0.883676375,0.0784530744 C0.443475728,0.0829190939 0.0418317152,0.436330097 0.0418317152,0.928783172 L0.0418317152,0.928783172 L0.0418317152,0.936822006 C0.0418317152,0.434097087 0.466401294,0.193378641 0.698634304,0.59576699 L0.698634304,0.59576699 L3.21434304,4.95326214 C3.29875081,5.09930097 3.34088026,5.26216181 3.34088026,5.42502265 L3.34088026,5.42502265 C3.34088026,5.5878835 3.29875081,5.75059547 3.21434304,5.89678317 L3.21434304,5.89678317 C3.29875081,5.75059547 3.41873786,5.63269256 3.55986408,5.551411 L3.55986408,5.551411 C3.70084142,5.46998058 3.86295793,5.42502265 4.0316246,5.42502265 L4.0316246,5.42502265 L9.06333981,5.42502265 C9.5060712,5.42502265 9.5301877,5.86864725 9.154,6.12782524 L9.154,6.12782524 C9.40305502,5.96079612 9.52765696,5.69238835 9.52750822,5.42398058 L9.52750822,5.42398058 C9.52735922,5.13845307 9.38593528,4.85292557 9.10323625,4.68961812 L9.10323625,4.68961812 L1.31554045,0.193378641 C1.181411,0.115967638 1.03939159,0.0797928803 0.900647249,0.0784530744 L0.900647249,0.0784530744 L0.883676375,0.0784530744 Z" id="path-7"/>
        <linearGradient x1="36.4910876%" y1="46.4371742%" x2="84.3619681%" y2="30.6724047%" id="linearGradient-9">
            <stop stop-color="#8520DA" offset="0%"/>
            <stop stop-color="#9136DD" offset="68.15%"/>
            <stop stop-color="#9D4DE1" offset="100%"/>
        </linearGradient>
        <path d="M4.0316246,0.0657993528 C3.86295793,0.0657993528 3.70084142,0.110757282 3.55986408,0.192187702 L3.55986408,0.192187702 C3.41873786,0.273469256 3.29875081,0.391372168 3.21434304,0.537559871 L3.21434304,0.537559871 L2.51109385,1.75544337 L0.698634304,4.89520388 C0.466401294,5.2972945 0.0418317152,5.05657605 0.0418317152,4.55385113 L0.0418317152,4.55385113 L0.0418317152,4.56203883 C0.0418317152,5.21556634 0.749398058,5.62420712 1.31554045,5.2972945 L1.31554045,5.2972945 L1.32253722,5.29327508 L9.09623948,0.805223301 C9.10144984,0.802097087 9.10680906,0.798822006 9.11201942,0.795546926 L9.11201942,0.795546926 C9.11737864,0.792420712 9.122589,0.789294498 9.12765049,0.78587055 L9.12765049,0.78587055 C9.1307767,0.783935275 9.13405178,0.782148867 9.13688026,0.780213592 L9.13688026,0.780213592 C9.14253722,0.776491909 9.14834304,0.772472492 9.154,0.768601942 L9.154,0.768601942 C9.5301877,0.509423948 9.5060712,0.0657993528 9.06333981,0.0657993528 L9.06333981,0.0657993528 L4.0316246,0.0657993528 Z" id="path-10"/>
        <linearGradient x1="0%" y1="50%" x2="49.9999993%" y2="50%" id="linearGradient-12">
            <stop stop-color="#B3B3B3" offset="0%"/>
            <stop stop-color="#C9C9C9" offset="6.7%"/>
            <stop stop-color="#E1E1E1" offset="15.96%"/>
            <stop stop-color="#F2F2F2" offset="25.81%"/>
            <stop stop-color="#FCFCFC" offset="36.59%"/>
            <stop stop-color="#FFFFFF" offset="100%"/>
        </linearGradient>
        <path d="M0.0418317152,0.639087379 L0.0418317152,9.61533981 C0.0418317152,10.1180647 0.466401294,10.3587832 0.698634304,9.95669256 L0.698634304,9.95669256 L2.51109385,6.81693204 L3.21434304,5.59904854 C3.29875081,5.45286084 3.34088026,5.29014887 3.34088026,5.12728803 L3.34088026,5.12728803 C3.34088026,4.96442718 3.29875081,4.80156634 3.21434304,4.65552751 L3.21434304,4.65552751 L0.698634304,0.298032362 C0.617501618,0.157650485 0.513145631,0.0954239482 0.411469256,0.0955725491 L0.411469256,0.0955725491 C0.221812298,0.0955725491 0.0418317152,0.311728155 0.0418317152,0.639087379" id="path-13"/>
    </defs>
    <g id="help" stroke="none" stroke-width="1" fill="none" fill-rule="evenodd">
        <g id="01_help" transform="translate(-70.000000, -32.000000)">
            <g id="Group-16" transform="translate(70.000000, 32.000000)">
                <g id="Group-3" transform="translate(0.000000, 13.170887)">
                    <mask id="mask-3" fill="white">
                        <use xlink:href="#path-2"/>
                    </mask>
                    <use id="Clip-2" fill="url(#linearGradient-1)" xlink:href="#path-2"/>
                    <path d="M19.2662589,4.82851133 L19.2662589,16.685644 L21.6380129,16.685644 L21.6380129,4.82851133 C21.6380129,3.52100971 22.7018188,2.45765049 24.0091715,2.45765049 L24.0091715,2.45765049 C25.3166731,2.45765049 26.3806278,3.52100971 26.3806278,4.82851133 L26.3806278,4.82851133 L28.7520841,4.82851133 C28.7520841,2.20919094 26.6286408,0.0857475728 24.0091715,0.0857475728 L24.0091715,0.0857475728 C21.3897023,0.0857475728 19.2662589,2.20919094 19.2662589,4.82851133 L19.2662589,4.82851133 Z M50.3900971,2.45705502 L50.3900971,12.2385307 C50.3900971,14.858 52.5132427,16.9814434 55.1330097,16.9814434 L55.1330097,16.9814434 L55.1330097,14.6099871 C53.8255081,14.6099871 52.7612557,13.5460324 52.7612557,12.2385307 L52.7612557,12.2385307 L52.7612557,4.82851133 L59.8759223,4.82851133 L59.8759223,2.45705502 L50.3900971,2.45705502 Z M45.6473333,4.82851133 L48.0187896,4.82851133 L48.0187896,2.45765049 L45.6473333,2.45765049 L45.6473333,4.82851133 Z M0,4.82851133 L2.37100971,4.82851133 L2.37100971,2.45765049 L0,2.45765049 L0,4.82851133 Z M31.1233916,11.646932 L31.1233916,16.685644 L33.4952945,16.685644 L33.4952945,11.646932 C33.4952945,10.3397282 34.5588026,9.27577346 35.8664531,9.27577346 L35.8664531,9.27577346 C36.3885307,9.27577346 38.1133074,9.47748867 38.3922848,12.0697152 L38.3922848,12.0697152 C38.6322589,14.2969191 39.6646537,15.4763948 40.4881877,16.0733528 L40.4881877,16.0733528 C41.6195793,16.8925696 42.8149838,16.9811456 43.275877,16.9811456 L43.275877,16.9811456 C45.891178,16.9811456 48.0186408,14.8538317 48.0186408,12.238233 L48.0186408,12.238233 L48.0186408,7.2001165 L45.6473333,7.2001165 L45.6473333,12.238233 C45.6473333,13.5460324 44.5836764,14.6099871 43.275877,14.6099871 L43.275877,14.6099871 C42.7539482,14.6099871 41.0288738,14.408123 40.7500453,11.8157476 L40.7500453,11.8157476 C40.5100712,9.58839482 39.4778252,8.40921683 38.6539935,7.81240777 L38.6539935,7.81240777 C37.5226019,6.99274434 36.327644,6.90446602 35.8664531,6.90446602 L35.8664531,6.90446602 C33.2511521,6.90446602 31.1233916,9.03222654 31.1233916,11.646932 L31.1233916,11.646932 Z M9.36494498,7.81240777 C8.5405178,8.40921683 7.50842071,9.58839482 7.26829773,11.8157476 L7.26829773,11.8157476 C6.98961812,14.408123 5.26469256,14.6099871 4.74291262,14.6099871 L4.74291262,14.6099871 C3.43481553,14.6099871 2.37100971,13.5460324 2.37100971,12.238233 L2.37100971,12.238233 L2.37100971,7.2001165 L0,7.2001165 L0,12.238233 C0,14.8538317 2.12746278,16.9811456 4.74291262,16.9811456 L4.74291262,16.9811456 C5.20395469,16.9811456 6.39906149,16.8925696 7.52985761,16.0733528 L7.52985761,16.0733528 C8.35428479,15.4763948 9.38638188,14.2969191 9.62620712,12.0697152 L9.62620712,12.0697152 C9.90563107,9.47748867 11.6302589,9.27577346 12.1523366,9.27577346 L12.1523366,9.27577346 C13.4598382,9.27577346 14.5234951,10.3397282 14.5234951,11.646932 L14.5234951,11.646932 L14.5234951,16.685644 L16.8952492,16.685644 L16.8952492,11.646932 C16.8952492,9.03222654 14.7673398,6.90446602 12.1523366,6.90446602 L12.1523366,6.90446602 C11.6908479,6.90446602 10.49589,6.99274434 9.36494498,7.81240777 L9.36494498,7.81240777 Z M64.6186861,7.2001165 L64.6186861,12.2385307 C64.6186861,13.5460324 63.5550291,14.6099871 62.2470809,14.6099871 L62.2470809,14.6099871 C60.9394304,14.6099871 59.8759223,13.5460324 59.8759223,12.2385307 L59.8759223,12.2385307 L59.8759223,7.2001165 L57.5046149,7.2001165 L57.5046149,12.2385307 C57.5046149,14.448466 59.015767,16.3060324 61.0616505,16.8321294 L61.0616505,16.8321294 L61.0616505,19.3527508 L63.4331068,19.3527508 L63.4331068,16.8321294 C65.4788414,16.3060324 66.9902913,14.448466 66.9902913,12.2385307 L66.9902913,12.2385307 L66.9902913,7.2001165 L64.6186861,7.2001165 Z M24.0091715,7.2001165 L24.0091715,9.57142395 L26.3806278,9.57142395 L26.3806278,16.685644 L28.7520841,16.685644 L28.7520841,7.2001165 L24.0091715,7.2001165 Z" id="Fill-1" mask="url(#mask-3)"/>
                </g>
                <g id="Group-6" transform="translate(0.000000, 0.814900)">
                    <mask id="mask-5" fill="white">
                        <use xlink:href="#path-4"/>
                    </mask>
                    <g id="Clip-5"/>
                    <path d="M54.9542052,1.73878511 L52.4725871,1.73878511 L51.5783411,9.20820259 L49.9574738,9.20820259 L50.8517197,1.73878511 L48.4372408,1.73878511 L48.6161793,0.239691262 L55.1329948,0.239691262 L54.9542052,1.73878511 Z M47.5307877,1.73878511 L44.3896874,1.73878511 L44.1325935,3.85597605 L46.8936356,3.85597605 L46.714846,5.3550699 L43.953655,5.3550699 L43.6742311,7.70910874 L47.631422,7.70910874 L47.4524835,9.20820259 L41.8745741,9.20820259 L42.9477586,0.239691262 L47.7095773,0.239691262 L47.5307877,1.73878511 Z M41.0854285,2.40943236 C40.5935709,1.98873333 39.7776291,1.6204356 39.1963023,1.6204356 C38.6038104,1.6204356 38.1231178,2.01493398 38.1231178,2.60683042 C38.1231178,3.89542589 40.9289689,4.06647443 40.9289689,6.57816375 C40.9289689,8.02470744 40.0570531,9.3265521 38.3467165,9.3265521 C37.2400369,9.3265521 36.4352602,8.99785307 35.7534479,8.47190485 L35.9993767,6.90686278 C36.6141987,7.43295987 37.5196097,7.82745825 38.1567618,7.82745825 C38.816244,7.82745825 39.2521275,7.43295987 39.2521275,6.8412123 C39.2521275,5.3550699 36.4465741,5.18431909 36.4465741,2.83028026 C36.4465741,1.27848738 37.5866,0.121341748 39.129312,0.121341748 C39.8669495,0.121341748 40.6493961,0.3711411 41.3090272,0.831438835 L41.0854285,2.40943236 Z M31.3390854,5.97331586 L33.1052472,5.97331586 L32.7028589,2.00183366 L32.6805288,2.00183366 L31.3390854,5.97331586 Z M35.139668,9.20820259 L33.4741405,9.20820259 L33.2393767,7.248811 L30.8697068,7.248811 L30.1317715,9.20820259 L28.3432796,9.20820259 L32.0768718,0.121341748 L33.7983735,0.121341748 L35.139668,9.20820259 Z M27.5341858,9.20820259 L25.9133184,9.20820259 L26.9865029,0.239691262 L28.6073702,0.239691262 L27.5341858,9.20820259 Z M19.4322311,7.70910874 L20.9524641,7.70910874 C22.752121,7.70910874 23.4899074,6.13096634 23.4899074,4.57932233 C23.4899074,3.00117994 22.5956615,1.73878511 20.9189689,1.73878511 L20.1363735,1.73878511 L19.4322311,7.70910874 Z M21.231888,0.239691262 C24.272354,0.239691262 25.1666,2.65938058 25.1666,4.60567184 C25.1666,7.27516052 23.6017068,9.20820259 21.5672861,9.20820259 L17.6325741,9.20820259 L18.6944447,0.239691262 L21.231888,0.239691262 Z M16.8578686,1.73878511 L13.7167683,1.73878511 L13.4598233,3.85597605 L16.2208654,3.85597605 L16.0419269,5.3550699 L13.2808848,5.3550699 L13.0014608,7.70910874 L16.9585029,7.70910874 L16.7797133,9.20820259 L11.201655,9.20820259 L12.2748395,0.239691262 L17.0368071,0.239691262 L16.8578686,1.73878511 Z M10.1387424,9.20820259 L8.57370032,9.20820259 L8.33893657,3.14602783 L8.31660647,3.14602783 L5.48857411,9.20820259 L4.71729256,9.20820259 L3.37584919,2.97497929 L3.35351909,2.97497929 L1.63201748,9.20820259 L-1.48867313e-05,9.20820259 L2.48160324,0.239691262 L4.2589301,0.239691262 L5.48857411,5.88116699 L8.05951262,0.239691262 L9.78101424,0.239691262 L10.1387424,9.20820259 Z" id="Fill-4" fill="#FFFFFF" mask="url(#mask-5)"/>
                </g>
                <g id="Group-9" transform="translate(57.462783, 0.070563)">
                    <mask id="mask-8" fill="white">
                        <use xlink:href="#path-7"/>
                    </mask>
                    <use id="Clip-8" fill="url(#linearGradient-6)" xlink:href="#path-7"/>
                    <path d="M0.883676375,0.0784530744 C0.443475728,0.0829190939 0.0418317152,0.436330097 0.0418317152,0.928783172 L0.0418317152,0.928783172 L0.0418317152,0.936822006 C0.0418317152,0.434097087 0.466401294,0.193378641 0.698634304,0.59576699 L0.698634304,0.59576699 L3.21434304,4.95326214 C3.29875081,5.09930097 3.34088026,5.26216181 3.34088026,5.42502265 L3.34088026,5.42502265 C3.34088026,5.5878835 3.29875081,5.75059547 3.21434304,5.89678317 L3.21434304,5.89678317 C3.29875081,5.75059547 3.41873786,5.63269256 3.55986408,5.551411 L3.55986408,5.551411 C3.70084142,5.46998058 3.86295793,5.42502265 4.0316246,5.42502265 L4.0316246,5.42502265 L9.06333981,5.42502265 C9.5060712,5.42502265 9.5301877,5.86864725 9.154,6.12782524 L9.154,6.12782524 C9.40305502,5.96079612 9.52765696,5.69238835 9.52750822,5.42398058 L9.52750822,5.42398058 C9.52735922,5.13845307 9.38593528,4.85292557 9.10323625,4.68961812 L9.10323625,4.68961812 L1.31554045,0.193378641 C1.181411,0.115967638 1.03939159,0.0797928803 0.900647249,0.0784530744 L0.900647249,0.0784530744 L0.883676375,0.0784530744 Z" id="Fill-7" mask="url(#mask-8)"/>
                </g>
                <g id="Group-12" transform="translate(57.462783, 5.429786)">
                    <mask id="mask-11" fill="white">
                        <use xlink:href="#path-10"/>
                    </mask>
                    <use id="Clip-11" fill="url(#linearGradient-9)" xlink:href="#path-10"/>
                    <path d="M4.0316246,0.0657993528 C3.86295793,0.0657993528 3.70084142,0.110757282 3.55986408,0.192187702 L3.55986408,0.192187702 C3.41873786,0.273469256 3.29875081,0.391372168 3.21434304,0.537559871 L3.21434304,0.537559871 L2.51109385,1.75544337 L0.698634304,4.89520388 C0.466401294,5.2972945 0.0418317152,5.05657605 0.0418317152,4.55385113 L0.0418317152,4.55385113 L0.0418317152,4.56203883 C0.0418317152,5.21556634 0.749398058,5.62420712 1.31554045,5.2972945 L1.31554045,5.2972945 L1.32253722,5.29327508 L9.09623948,0.805223301 C9.10144984,0.802097087 9.10680906,0.798822006 9.11201942,0.795546926 L9.11201942,0.795546926 C9.11737864,0.792420712 9.122589,0.789294498 9.12765049,0.78587055 L9.12765049,0.78587055 C9.1307767,0.783935275 9.13405178,0.782148867 9.13688026,0.780213592 L9.13688026,0.780213592 C9.14253722,0.776491909 9.14834304,0.772472492 9.154,0.768601942 L9.154,0.768601942 C9.5301877,0.509423948 9.5060712,0.0657993528 9.06333981,0.0657993528 L9.06333981,0.0657993528 L4.0316246,0.0657993528 Z" id="Fill-10" mask="url(#mask-11)"/>
                </g>
                <g id="Group-15" transform="translate(57.462783, 0.368298)">
                    <mask id="mask-14" fill="white">
                        <use xlink:href="#path-13"/>
                    </mask>
                    <use id="Clip-14" fill="url(#linearGradient-12)" xlink:href="#path-13"/>
                    <path d="M0.0418317152,0.639087379 L0.0418317152,9.61533981 C0.0418317152,10.1180647 0.466401294,10.3587832 0.698634304,9.95669256 L0.698634304,9.95669256 L2.51109385,6.81693204 L3.21434304,5.59904854 C3.29875081,5.45286084 3.34088026,5.29014887 3.34088026,5.12728803 L3.34088026,5.12728803 C3.34088026,4.96442718 3.29875081,4.80156634 3.21434304,4.65552751 L3.21434304,4.65552751 L0.698634304,0.298032362 C0.617501618,0.157650485 0.513145631,0.0954239482 0.411469256,0.0955725491 L0.411469256,0.0955725491 C0.221812298,0.0955725491 0.0418317152,0.311728155 0.0418317152,0.639087379" id="Fill-13" mask="url(#mask-14)"/>
                </g>
            </g>
        </g>
    </g>
</svg>