<?xml version="1.0" encoding="UTF-8"?>
<!-- Created with Inkscape (http://www.inkscape.org/) -->
<svg width="85.592mm" height="25.459mm" inkscape:version="0.92.3 (2405546, 2018-03-11)" version="1.1" viewBox="0 0 85.592 25.459" xmlns="http://www.w3.org/2000/svg" xmlns:cc="http://creativecommons.org/ns#" xmlns:dc="http://purl.org/dc/elements/1.1/" xmlns:inkscape="http://www.inkscape.org/namespaces/inkscape" xmlns:rdf="http://www.w3.org/1999/02/22-rdf-syntax-ns#" xmlns:sodipodi="http://sodipodi.sourceforge.net/DTD/sodipodi-0.dtd">
 <sodipodi:namedview id="base" bordercolor="#666666" borderopacity="1.0" fit-margin-bottom="0" fit-margin-left="0" fit-margin-right="0" fit-margin-top="0" inkscape:current-layer="layer1" inkscape:cx="180.09759" inkscape:cy="30.81809" inkscape:document-units="mm" inkscape:pageopacity="0.0" inkscape:pageshadow="2" inkscape:window-height="709" inkscape:window-maximized="1" inkscape:window-width="1366" inkscape:window-x="0" inkscape:window-y="0" inkscape:zoom="0.98994949" pagecolor="#ffffff" showgrid="false"/>
 <metadata>
  <rdf:RDF>
   <cc:Work rdf:about="">
    <dc:format>image/svg+xml</dc:format>
    <dc:type rdf:resource="http://purl.org/dc/dcmitype/StillImage"/>
    <dc:title/>
   </cc:Work>
  </rdf:RDF>
 </metadata>
 <g transform="translate(37.504 -139.13)" shape-rendering="geometricPrecision" inkscape:groupmode="layer" inkscape:label="Layer 1">
  <g id="g23" transform="translate(-76.353 -9.5475)" fill-rule="evenodd">
   <path d="m71.723 161.48c-1.2883 0.10866-1.5819-0.54292-1.5819-1.1081v-11.697h-3.0949v11.697c0 3.0427 2.0779 3.9564 4.6768 3.5429zm5.2698-9.8474v-2.9355h-3.0745v2.9355zm-3.0745 1.2608v10.999h3.0963v-10.999zm5.6307-0.0222v11.021h3.0963v-8.1732c1.8757-1.1959 4.4305-0.26176 4.4305 1.935v6.2382h3.0949v-6.369c0-2.8264-2.056-4.6743-4.5875-4.8038-1.2883-0.0663-2.395 0.30445-3.0508 1.13l-0.45191-0.97861zm23.344 11.021v-0.15134zm0-0.15134-4.4965-6.2604 4.3159-4.4566v-0.17498h-3.3898l-3.8421 3.8266v-8.0006h-3.0053v15.217h3.0053v-3.0452l-1.9417 0.84878 2.6871-2.6074 3.368 4.8038h3.2992zm8.818-3.1736c-1.8768 1.608-5.0631 1.1518-5.5824-1.0227h8.0684c0.24801-0.54293 0.31151-1.13 0.31539-1.4771 0.0416-3.284-2.3054-5.4557-5.6497-5.4352-3.7966 0.0222-5.8194 2.8691-5.8307 5.7175-0.0109 2.8473 1.9445 5.7605 5.854 5.7605 1.6715 0 3.1859-0.60925 4.5642-2.0659zm-5.5824-3.3048c0.24801-1.4785 1.5586-2.0655 2.7573-2.0655 1.174 0 2.3731 0.54434 2.6211 2.0655zm10.286-4.5004v11.13h3.0508v-6.8693c0-1.8038 2.2147-2.1304 3.6615-1.2167l1.3106-2.2394c-1.5145-1.2608-3.9095-1.3049-5.2656 0.34713l-0.248-1.1518z" inkscape:connector-curvature="0"/>
   <path d="m50.398 158.7 4.1892-4.1892c1.8189-1.8027 5.0878-1.3575 7.0224 0.46849l-7.4662 7.4662z" fill="#0096b8" inkscape:connector-curvature="0"/>
   <path d="m50.398 158.7 3.7454 3.7454 0.3048-0.30444-2.5964-4.8948z" fill="#057791" inkscape:connector-curvature="0"/>
   <path d="m46.669 162.39c-0.03986-0.0388-0.08008-0.0801-0.11853-0.11853-2.1855-2.1844-4.3699-4.3699-6.5539-6.5539-1.8027-1.8179-1.3575-5.0864 0.46708-7.0213 4.5724 4.5709 9.1225 9.1613 13.68 13.747-2.2888 2.0422-5.4225 1.954-7.4743-0.0536z" fill="#01add3" inkscape:connector-curvature="0"/>
  </g>
  <g transform="matrix(1.0247 0 0 .97594 -76.353 -9.5475)" fill="#808080" stroke-width=".25297px" aria-label="SPONSORED LINKS">
   <path d="m42.339 176.51q0-0.49409-0.37057-0.82513-0.37057-0.33599-1.3143-0.56327-1.1414-0.27175-1.7837-0.80043-0.63738-0.52868-0.63738-1.3291 0-0.83996 0.68679-1.4032 0.69173-0.56327 1.7886-0.56327 1.1809 0 1.8775 0.64726 0.70161 0.64726 0.67691 1.502l-0.0099 0.0297h-0.92889q0-0.63244-0.41998-1.0228-0.41504-0.39034-1.1957-0.39034-0.72632 0-1.1166 0.33104-0.38539 0.32611-0.38539 0.85478 0 0.46939 0.41998 0.78561 0.41998 0.31128 1.3637 0.54844 1.1364 0.28163 1.7293 0.83008 0.59291 0.54844 0.59291 1.3588 0 0.8696-0.71149 1.3983t-1.8578 0.52868q-1.0771 0-1.9072-0.58303-0.82513-0.58303-0.80043-1.5613l0.0099-0.0297h0.92889q0 0.69173 0.50892 1.0524 0.50891 0.36068 1.2599 0.36068 0.7362 0 1.1661-0.31127 0.42986-0.31128 0.42986-0.8449z" inkscape:connector-curvature="0"/>
   <path d="m45.284 175.44v2.8855h-0.97336v-7.194h2.7521q1.1512 0 1.7886 0.59291t0.63738 1.5613q0 0.98324-0.63738 1.5712-0.63738 0.58303-1.7886 0.58303zm0-0.7609h1.7787q0.73126 0 1.0919-0.39033 0.36069-0.39528 0.36069-0.99313t-0.36563-0.99806q-0.36069-0.40022-1.087-0.40022h-1.7787z" inkscape:connector-curvature="0"/>
   <path d="m55.823 175.37q0 1.3192-0.82019 2.1888-0.81525 0.86961-2.1197 0.86961-1.2599 0-2.0505-0.86961-0.78561-0.8696-0.78561-2.1888v-1.2797q0-1.3143 0.78561-2.1888 0.79055-0.87454 2.0505-0.87454 1.3044 0 2.1197 0.87454 0.82019 0.8696 0.82019 2.1888zm-0.97336-1.2896q0-0.98819-0.53362-1.6206-0.53362-0.63244-1.4329-0.63244-0.84984 0-1.3588 0.63244-0.50397 0.63243-0.50397 1.6206v1.2896q0 0.99806 0.50397 1.6305 0.50891 0.63244 1.3588 0.63244 0.90419 0 1.4329-0.6275 0.53362-0.63244 0.53362-1.6354z" inkscape:connector-curvature="0"/>
   <path d="m62.301 178.32h-0.97336l-3.4636-5.5635-0.02965 0.01v5.5536h-0.97336v-7.194h0.97336l3.4636 5.5536 0.02965-0.01v-5.5437h0.97336z" inkscape:connector-curvature="0"/>
   <path d="m67.578 176.51q0-0.49409-0.37057-0.82513-0.37057-0.33599-1.3143-0.56327-1.1414-0.27175-1.7837-0.80043-0.63738-0.52868-0.63738-1.3291 0-0.83996 0.68679-1.4032 0.69173-0.56327 1.7886-0.56327 1.1809 0 1.8775 0.64726 0.70161 0.64726 0.6769 1.502l-0.0099 0.0297h-0.92889q0-0.63244-0.41998-1.0228-0.41504-0.39034-1.1957-0.39034-0.72632 0-1.1166 0.33104-0.38539 0.32611-0.38539 0.85478 0 0.46939 0.41998 0.78561 0.41998 0.31128 1.3637 0.54844 1.1364 0.28163 1.7293 0.83008 0.59291 0.54844 0.59291 1.3588 0 0.8696-0.71149 1.3983t-1.8578 0.52868q-1.0771 0-1.9072-0.58303-0.82513-0.58303-0.80043-1.5613l0.0099-0.0297h0.92889q0 0.69173 0.50892 1.0524 0.50891 0.36068 1.2599 0.36068 0.7362 0 1.1661-0.31127 0.42986-0.31128 0.42986-0.8449z" inkscape:connector-curvature="0"/>
   <path d="m74.995 175.37q0 1.3192-0.82019 2.1888-0.81525 0.86961-2.1197 0.86961-1.2599 0-2.0505-0.86961-0.78561-0.8696-0.78561-2.1888v-1.2797q0-1.3143 0.78561-2.1888 0.79055-0.87454 2.0505-0.87454 1.3044 0 2.1197 0.87454 0.82019 0.8696 0.82019 2.1888zm-0.97336-1.2896q0-0.98819-0.53362-1.6206-0.53362-0.63244-1.4329-0.63244-0.84984 0-1.3588 0.63244-0.50397 0.63243-0.50397 1.6206v1.2896q0 0.99806 0.50397 1.6305 0.50891 0.63244 1.3588 0.63244 0.90419 0 1.4329-0.6275 0.53362-0.63244 0.53362-1.6354z" inkscape:connector-curvature="0"/>
   <path d="m77.006 175.21v3.1177h-0.97336v-7.189h2.6039q1.1809 0 1.8034 0.52374t0.62256 1.5218q0 0.55338-0.29151 0.96348-0.28657 0.4101-0.83996 0.6522 0.59291 0.1927 0.84984 0.6275 0.26187 0.42986 0.26187 1.0672v0.6769q0 0.33598 0.07411 0.60279t0.25693 0.4348v0.11859h-1.003q-0.1927-0.16799-0.24705-0.49409-0.05435-0.32611-0.05435-0.67197v-0.65714q0-0.58303-0.34092-0.93878-0.34092-0.35574-0.91407-0.35574zm0-0.76584h1.5317q0.82513 0 1.1858-0.31128 0.36563-0.31622 0.36563-0.95854 0-0.60773-0.35575-0.93878-0.3508-0.33598-1.0969-0.33598h-1.6305z" inkscape:connector-curvature="0"/>
   <path d="m86.586 174.99h-3.2956v2.5742h3.7996v0.7609h-4.7729v-7.194h4.7186v0.76584h-3.7452v2.3272h3.2956z" inkscape:connector-curvature="0"/>
   <path d="m87.812 178.32v-7.194h2.2086q1.4131 0 2.2679 0.8696 0.85478 0.86466 0.85478 2.2382v0.98324q0 1.3785-0.85478 2.2432-0.85478 0.85972-2.2679 0.85972zm0.97336-6.4281v5.6672h1.2352q0.99807 0 1.5712-0.65715 0.57809-0.65714 0.57809-1.6848v-0.99312q0-1.0178-0.57809-1.675-0.57315-0.65714-1.5712-0.65714z" inkscape:connector-curvature="0"/>
   <path d="m97.126 177.56h3.4043v0.7609h-4.3777v-7.194h0.97336z" inkscape:connector-curvature="0"/>
   <path d="m102.24 178.32h-0.97831v-7.194h0.97831z" inkscape:connector-curvature="0"/>
   <path d="m109.1 178.32h-0.97336l-3.4636-5.5635-0.0296 0.01v5.5536h-0.97336v-7.194h0.97336l3.4636 5.5536 0.0297-0.01v-5.5437h0.97336z" inkscape:connector-curvature="0"/>
   <path d="m112.28 175.08h-0.83995v3.2462h-0.97337v-7.194h0.97337v3.182h0.75102l2.5742-3.182h1.0771l0.0148 0.0247-2.7916 3.4537 2.9942 3.6909-0.0148 0.0247h-1.1611z" inkscape:connector-curvature="0"/>
   <path d="m120.47 176.51q0-0.49409-0.37056-0.82513-0.37057-0.33599-1.3143-0.56327-1.1414-0.27175-1.7837-0.80043-0.63738-0.52868-0.63738-1.3291 0-0.83996 0.68679-1.4032 0.69173-0.56327 1.7886-0.56327 1.1809 0 1.8776 0.64726 0.70161 0.64726 0.67691 1.502l-0.01 0.0297h-0.92889q0-0.63244-0.41998-1.0228-0.41503-0.39034-1.1957-0.39034-0.72631 0-1.1166 0.33104-0.38539 0.32611-0.38539 0.85478 0 0.46939 0.41998 0.78561 0.41998 0.31128 1.3637 0.54844 1.1364 0.28163 1.7293 0.83008 0.59291 0.54844 0.59291 1.3588 0 0.8696-0.7115 1.3983-0.71149 0.52868-1.8578 0.52868-1.0771 0-1.9072-0.58303-0.82513-0.58303-0.80042-1.5613l0.01-0.0297h0.92889q0 0.69173 0.50891 1.0524 0.50892 0.36068 1.2599 0.36068 0.7362 0 1.166-0.31127 0.42986-0.31128 0.42986-0.8449z" inkscape:connector-curvature="0"/>
  </g>
 </g>
</svg>
