<svg xmlns="http://www.w3.org/2000/svg" viewBox="0 0 770 236" height="50">
	<path fill="#ec2327" d="M95.57 27.01c-.86-8.93 6.98-16.76 15.44-17.89 8.85.62 17.32 8.61 16.39 17.9-.14 6.17-5.35 10.16-8.94 14.54 11.47 1.69 16.54-9.34 22.17-16.88 4.55-6.02 12.37-2.31 16.31 2.36 17.49 17.72 39.57 34.61 65.78 33.85-3.73 6.5-10.36 11.61-18.11 11.55-8.99-.69-16.2 7.73-25.38 4.84-7.89-3.04-15.47 3.63-23.32.51-6.85-3.06-13.4 3.54-20.34.89-5.97-2.22-11.73 1.21-17.5 2.41-.46 12.29-.65 24.62-.32 36.92 17.21-4 35.19-7.24 50.6-16.33-12.28-5.07-25.85-2.32-38.65-4.08-4.75-.15-8.02-7.81-2.87-9.9 8.73-2.79 18.14-.84 27.15-1.09 10.92.79 24.63.84 31.35 11.07 4.35 6.39-1.69 13.34-7.15 16.47-13.75 8.14-29.83 11.1-45.39 13.75 7.38 6.53 14.79 15.93 12.35 26.41-3.47 10.77-14.15 16.38-22.8 22.53 8.64 7.13 20.15 14.64 20.41 27.09-1.19 13.5-13.21 22.25-23.8 28.86 4.29-8.61 10.73-16.77 11.23-26.72-.48-8.44-7.65-14.14-13.68-19.11-.42 10.57.47 21.23-.69 31.75-.33 5.27-8.88 4.64-9.04-.41-1-10.53.04-21.16-.75-31.72-6.68 4.64-14.05 10.79-14.68 19.49.48 10.06 7.05 18.29 11.43 26.96-10.62-6.76-22.6-15.47-23.99-29.03.22-12.54 11.78-20.13 20.52-27.24-8.98-6.1-20.07-11.97-23.03-23.29-1.78-9.93 4.87-18.93 12.04-25.04-14.83-4.09-30.55-6.03-44.12-13.74-4.52-2.75-9.32-6.89-9.5-12.58 1.08-7.94 9.35-11.95 16.34-13.64 13.72-2.42 27.95-2.75 41.78-1.53 7.19.82 4.49 10.92-1.59 11.04-12.53.96-25.48-.74-37.63 3.39 15.16 10.22 34.17 12.62 51.67 16.67.08-12.34-.02-24.69-.41-37.03-9.82-5.1-20.5.69-30.28-3.58-5.9-1.74-11.89 3.18-17.86.49-5.09-2.32-10.49-1.14-15.74-.28-7.96 1.33-14.03-5.87-21.93-5.12C11.05 72.8 4.11 67.59.29 60.9c26.19.72 48.28-16.13 65.77-33.86 3.94-4.67 11.76-8.38 16.3-2.35 5.66 7.51 10.73 18.56 22.18 16.86-3.59-4.37-8.84-8.35-8.97-14.54M90.64 150c-.64 8.77 9.12 12.18 15.22 16.06-.05-10.65-.18-21.29-.28-31.93-6.63 3.12-14.69 7.52-14.94 15.87m26.71-15.05c-.15 10.09-.53 20.17-.43 30.27 5.72-3.57 14.78-6.97 13.95-15.19-.16-7.7-7.22-12.29-13.52-15.08z"></path>
	<path d="M551.24 29.21c9.16-.36 18.34-.43 27.5.06.71 21.19-.1 42.4.38 63.6 2.32.27 4.66.55 7 .8-.15 3.54 2.36 10.43-3.2 10.49-10.75.37-21.53.24-32.28-.16-.14-3.43-.11-6.88.11-10.31 2.37-.27 4.75-.54 7.13-.82.24-16.93.14-33.87.07-50.8-2.64-1.15-5.29-2.28-7.92-3.43.39-3.15.81-6.29 1.21-9.43z"></path>
	<path d="M439.98 32.11c12.88-2.96 26.29-1.07 38.87 2.39.72 7.06.72 14.19-.01 21.25-5.42.24-10.84-.07-16.19-.98-.63-3.19-1.3-6.36-1.99-9.53-6.55-1.42-21.22-2.19-18.51 8.27 8.63 8.15 22.77 5.75 32.15 13.21 11.91 8.04 9.06 28.09-3.73 33.81-16.05 7.65-35.14 5.22-51.7.45.15-6.78-1.32-13.87.69-20.44 5.07-1.81 10.59-.74 15.83-.39.75 3.47 1.55 6.94 2.34 10.4 6.68 1.3 14.34 2.56 20.45-1.26 4-2.38 3.16-8.76-1.04-10.43-9.73-4.47-21.57-3.86-30.2-10.85-6.91-5.23-7.97-15.37-4.77-22.97 3.19-7.07 10.55-11.17 17.81-12.93z"></path>
	<path d="M254.17 32.26c13.98-.49 27.99-.35 41.98-.07.03 3.42.02 6.84-.07 10.25-3.73.19-7.46.43-11.18.66-.33 15.93-.29 31.88-.03 47.81 6.32.22 12.65.21 18.97-.07.8-3.36 1.58-6.72 2.36-10.08 5.26-.34 10.54-.33 15.79.14.49 7.66.56 15.36-.08 23.02-21.27.79-42.59.24-63.88.33-5.78.44-3.79-6.64-4.05-10.23 2.94-.26 5.87-.55 8.81-.77 1.01-16.69.46-33.46.3-50.18-3.01-.23-6.02-.47-9.03-.67-.02-3.38.02-6.76.11-10.14z"></path>
	<path d="M675.5 37.03c4.48-.19 9.32-1.28 13.55.7.91 4.57.58 9.27.84 13.89 5.68-.12 11.37-.08 17.05.26.06 3.89.01 7.78-.22 11.67-5.65.15-11.3.21-16.95.32.25 8.97-1.77 18.46 1.27 27.07 5.13 1.57 10.52.06 15.75-.16 1.24 3.36 2.43 6.75 3.51 10.18-10.08 4.19-21.61 5.88-32.24 2.89-5.5-1.54-9.02-6.88-9.38-12.42-.79-9.09.22-18.23-.49-27.33-2.91-.25-5.8-.53-8.69-.79-.06-3.51-.11-7.03-.11-10.54 9.12.08 15.78-6.73 16.11-15.74z"></path>
	<path d="M329.58 67.83c-1.16-12.25 12.24-17.59 22.41-17.25 10.2-.08 24.45-1.35 29.59 9.73 3.03 10.53.59 21.72 1.54 32.52 2.33.29 4.66.57 6.99.84.24 3.03.57 6.11.13 9.14-3.17 2.37-7.52 1.29-11.22 1.62-5.12-.31-11.52 1.36-14.98-3.54-9.48 4.54-21.55 6.91-31.01 1.15-8.35-5.48-7.9-20.23 1.18-24.79 8.65-4.62 18.79-3.65 28.24-4.39-.26-3.71.96-10.31-4.58-10.11-4.87-1.55-7.49 2.99-10.47 5.78-5.88 1.11-11.92-.25-17.82-.7m18.84 23.19c4.79 1.66 9.78.77 14.09-1.71-.08-1.86-.15-3.71-.22-5.56-5.46.18-15-.99-13.87 7.27z"></path>
	<path d="M487.84 67.71c-.48-11.38 11.2-17.18 21.13-17.02 10.55-.23 25.15-1.78 31.02 9.23 3.4 10.56.6 21.93 1.77 32.82 2.4.5 4.8 1.01 7.2 1.52-.27 3.63 1.83 10.7-4.01 9.94-7.29-.55-16.69 2.85-22.19-3.4-9.84 4.71-22.66 7.25-32.2.58-7.12-5.9-6.55-19.38 1.87-23.9 8.72-4.93 19.13-3.78 28.74-4.68-.34-3.52.72-9.66-4.35-9.98-4.8-1.54-8.36 2.15-10.38 6.01-6.22.04-12.43-.44-18.6-1.12m21.23 17.42c-2.62 1.06-2.76 6.02.25 6.63 3.92.98 7.81-.65 11.49-1.85.09-2.04.19-4.08.29-6.11-4.01.16-8.25-.28-12.03 1.33z"></path>
	<path d="M724.49 53.49c11-4.33 24.82-4.7 34.92 2.1 8.56 6.1 8.78 17.61 8.24 27.09-12.01.33-24.04-.47-36.02.41 4.41 13.61 20.81 6.68 30.82 4.96 1.83 3.85 3.53 7.76 4.96 11.78-14.9 6.06-33.73 8.91-47.93-.3-15.13-11.03-12.86-38.87 5.01-46.04m7.15 17.35c5.26.32 10.54.29 15.8-.15-1.06-9.46-14.4-8.77-15.8.15z"></path>
	<path d="M588.73 51.65c8.98-.11 17.97-.4 26.94.3.75 13.08-1.39 26.37 1.31 39.28 4.36-.3 9.51-.14 12.73-3.67 1.71-7.92.48-16.16.53-24.21-2.1-.59-4.21-1.19-6.3-1.78.16-3.14.44-6.27.6-9.41 8.84-1.1 17.76-.66 26.64-.34.61 13.62.05 27.26.23 40.88 2.48.33 4.97.65 7.46.94-.19 3.77 2.1 11.22-3.92 10.57-7.28-.77-17.31 3.21-22.32-3.7-10.74 4.92-26.92 8.9-35.24-2.03-5.15-10.89-1.65-23.51-2.69-35.13-2.55-.6-5.08-1.26-7.63-1.87.47-3.29 1.01-6.57 1.66-9.83z"></path>
	<path d="M632.46 129.5c4.13-1.26 8.76-1.21 12.8.37 7.03 2.77 7.1 14.63.01 17.36-4.77 1.86-10.5 1.9-15.07-.52-6.55-3.78-5.36-15.41 2.26-17.21z"></path>
	<path d="M549.02 131.08c9.02-.17 18.04-.19 27.06.03 1.07 8.31.12 16.7.71 25.04 10.66-3.97 26.84-7.46 33.97 4.07 3.95 11.06.61 23.18 2.07 34.67 2.4.27 4.8.53 7.21.78.17 3.29.7 6.72-.38 9.93-9.26 1.47-18.8.86-28.11.06-.69-11.79.66-23.66-.53-35.4-1.76-6.36-9.75-2.37-14-1.12-.55 8.54-.4 17.1-.19 25.65 2.37.49 4.74.98 7.13 1.46.07 3.1.33 6.27-.44 9.3-10.34 1.61-21 .58-31.44.62-5.54-.08-3.07-6.91-3.2-10.44 2.09-.29 4.18-.6 6.28-.91.42-17.08.52-34.19-.05-51.27-2.42-.85-5.04-1.42-7.1-3.03-.19-3.18.5-6.32 1.01-9.44z"></path>
	<path d="M660.22 131.21c9.17-.34 18.36-.44 27.52.05.74 21.18-.16 42.4.42 63.59 2.47.33 4.95.68 7.44 1.01.07 3.29.07 6.58.06 9.87-11.96 1.05-24.02.63-36 .27-.15-3.44-.13-6.88.09-10.31 2.37-.26 4.75-.54 7.14-.82.12-17.15.36-34.31-.13-51.45-2.57-.67-5.1-1.44-7.66-2.12.32-3.37.71-6.73 1.12-10.09z"></path>
	<path d="M253.82 134.75c11.5-1.5 23.17-.72 34.73-.46 6.09 13.67 12.64 27.13 18.98 40.69 7.33-13.38 13.46-27.37 20.64-40.82 10.98-.29 21.97-.31 32.95.03.05 3.4.05 6.8-.04 10.2-3.09.2-6.18.44-9.27.68-.3 16.75-.62 33.55.18 50.29 3.08.19 6.16.43 9.24.68-.01 3.3-.07 6.6-.15 9.9-13.73.56-27.51.62-41.24-.02-.2-3.41-.21-6.84.16-10.23 3.64-.16 7.27-.4 10.91-.65.19-10.07.16-20.14-.03-30.2-4.75 9.05-9.42 18.13-14.13 27.2-7.2.45-14.42.42-21.62.03-5.18-9.13-9.64-18.65-14.07-28.16.04 10.47-.44 20.95.26 31.41 3.91.17 7.82.42 11.73.71-.06 3.27-.13 6.55-.25 9.82-11.57.82-23.19.43-34.77.4-5.76.44-3.8-6.63-4.07-10.2 2.99-.23 5.98-.47 8.98-.66.67-16.74.4-33.53.15-50.28-2.98-.24-5.96-.5-8.94-.71-.13-3.22-.19-6.44-.33-9.65z"></path>
	<path d="M368.76 169.8c-.49-11.43 11.2-17.34 21.2-17.12 10.34-.12 24.5-1.79 30.61 8.66 3.79 10.63 1 22.26 1.88 33.32 2.43.39 4.87.79 7.32 1.16.14 3.34.17 6.68.11 10.03-8.51-.57-19.53 3.84-26.14-3.06-9.81 4.73-22.62 7.26-32.14.62-7.49-5.99-6.6-20.15 2.39-24.34 8.69-4.45 18.78-3.41 28.21-4.23-.21-2.95-.11-6.02-1.23-8.8-5.08-3.18-11.89-1.18-13.45 4.85-6.27.14-12.54-.28-18.76-1.09m19.5 18.72c-2.04 9.49 16.72 6.05 14.13-2.68-4.67.33-10.45-.92-14.13 2.68z"></path>
	<path d="M441.34 156.46c12.9-6.24 28.06-4.16 41.58-1.2.54 5.49.54 11.03.02 16.53-4.86.04-9.72-.12-14.57-.34-.78-2.26-1.62-4.5-2.35-6.77-5.12-.56-11.27-1.61-14.85 3.1 8.76 6.66 21.68 3.32 29.84 11.2 7.41 7.19 4.34 21.08-5.25 24.8-13.62 5.8-29.43 3.94-43.28-.14-.35-5.39-.35-10.8 0-16.19 4.86-.25 9.74-.1 14.58.37.22 10.04 15.73 11.11 19.67 3.34-9.32-5.28-21.5-2.71-29.85-10.07-7.61-6.78-4.5-20.49 4.46-24.63z"></path>
	<path d="M503.79 155.93c13.02-5.01 28.37-4.79 41.1 1.06.07 5.5.81 11.12-.44 16.54-4.82 1.6-9.99.39-14.94.17-.72-2.58-1.26-5.25-2.55-7.62-5.85-2.72-14.2.53-15.54 7.23-1.47 6.4-1.2 15.4 5.45 18.82 7.37 3.16 15.4.23 22.86-1.08 2.2 3.41 4.04 7.03 5.5 10.81-14.28 6.95-32.86 8.24-46.63-.53-15.3-10.94-12.33-38.22 5.19-45.4z"></path>
	<path d="M622.59 153.53c9.06-.21 18.12-.2 27.18-.02 1.3 13.85-.06 27.77.71 41.65 2.56.29 5.12.63 7.69.96.01 3.25-.02 6.51-.09 9.77-12.06.66-24.18.66-36.23.03-.17-3.41-.19-6.83-.04-10.24 2.41-.25 4.84-.52 7.26-.79.29-9.75.61-19.53-.24-29.26-2.4-.64-4.79-1.29-7.17-1.93.26-3.4.61-6.78.93-10.17z"></path>
	<path d="M711.9 155.81c11.31-4.68 25.81-5.23 36.08 2.2 8.18 6.29 8.29 17.48 7.7 26.83-12 .52-24-.26-35.99.4 4.56 13.4 20.86 6.61 30.84 4.8 1.73 3.76 3.38 7.55 4.94 11.39-14.4 7.01-33.23 8.98-47.38.47-15.44-10.6-13.79-38.47 3.81-46.09m7.79 16.94c5.26.4 10.53.39 15.79-.02-.71-9.53-14.5-8.87-15.79.02z"></path>
</svg>