<svg xmlns="http://www.w3.org/2000/svg" viewBox="0 0 514.000000 514.000000" fill="#002677">
    <g transform="translate(0.000000,514.000000) scale(0.100000,-0.100000)" stroke="none">
        <path d="M1895 5133 c-259 -9 -684 -58 -950 -109 -225 -43 -533 -123 -740
-192 l-200 -67 0 -1260 0 -1260 28 -118 c168 -703 639 -1314 1333 -1727 228
-136 530 -272 810 -364 l110 -36 149 50 c563 192 1001 450 1364 804 375 366
624 796 738 1273 l28 118 0 1260 0 1260 -199 66 c-502 168 -1055 268 -1646
299 -176 9 -619 11 -825 3z m940 -103 c434 -32 860 -106 1236 -214 177 -51
388 -123 407 -138 9 -8 12 -259 12 -1194 0 -1351 6 -1257 -91 -1549 -187 -566
-594 -1064 -1156 -1416 -238 -149 -586 -309 -864 -398 l-97 -30 -128 43 c-356
120 -672 274 -934 454 -506 348 -877 824 -1049 1347 -97 294 -91 198 -91 1555
0 1146 1 1190 18 1199 34 18 285 99 436 140 405 111 801 176 1251 206 225 15
820 12 1050 -5z"
        ></path>
        <path d="M2290 4259 l0 -712 40 45 c52 59 118 101 205 128 89 28 366 39 508
20 107 -14 324 -58 347 -70 8 -4 35 -45 58 -89 37 -69 47 -81 70 -82 15 -1 77
-4 137 -8 l110 -6 3 -943 2 -943 -82 6 c-847 65 -1134 82 -1158 70 -45 -23
-161 -55 -201 -55 l-39 0 0 -725 0 -724 133 45 c1071 367 1779 1082 1974 1994
17 79 18 162 18 1250 l0 1165 -110 38 c-548 191 -1255 307 -1862 307 l-153 0
0 -711z"
        ></path>
        <path d="M1490 3734 c-90 -14 -310 -60 -315 -66 -2 -2 -22 -39 -47 -83 -49
-89 -54 -92 -164 -94 -39 -1 -92 -4 -118 -7 l-46 -7 0 -939 0 -940 58 6 c31 4
305 24 608 46 l552 40 53 -24 c56 -24 142 -46 184 -46 22 0 25 4 25 39 l0 38
-55 7 c-30 3 -86 20 -123 37 l-68 30 -565 -40 c-310 -23 -574 -41 -586 -41
l-23 0 0 859 0 858 71 7 c40 3 75 4 78 1 3 -3 -5 -25 -17 -48 l-22 -42 0 -773
0 -773 68 6 c37 3 222 15 412 26 190 11 406 24 480 29 132 9 136 8 185 -15 45
-22 153 -50 162 -42 1 2 3 399 3 883 l1 879 -44 51 c-50 56 -132 104 -222 129
-86 24 -396 30 -525 9z m-327 -1669 l-78 -106 -3 667 -2 666 77 107 78 106 3
-667 2 -667 -77 -106z m803 80 c174 -36 263 -113 281 -240 l6 -45 -43 15 c-24
9 -59 27 -77 41 l-33 25 -457 -35 c-252 -20 -473 -38 -490 -40 -22 -3 -33 -1
-32 7 0 7 26 59 57 116 56 104 58 105 104 117 40 10 187 32 313 47 87 11 302
6 371 -8z"
        ></path>
        <path d="M3330 2842 l0 -664 78 -106 77 -106 3 663 2 664 -55 76 c-30 42 -66
90 -80 106 l-24 30 -1 -663z"
        ></path>
        <path d="M3560 3415 c0 -3 11 -28 25 -55 l25 -49 0 -767 0 -766 -82 6 c-46 3
-168 11 -273 17 -104 6 -316 19 -470 28 l-280 17 -46 -23 c-26 -13 -74 -29
-108 -35 l-61 -12 0 -38 c0 -36 1 -38 33 -38 29 0 110 26 192 60 25 10 127 5
605 -29 316 -23 578 -41 583 -41 4 0 7 387 7 860 l0 860 -47 1 c-27 0 -60 3
-75 5 -16 3 -28 2 -28 -1z"
        ></path>
        <path d="M2632 2149 c-80 -12 -159 -42 -210 -79 -42 -30 -85 -106 -96 -169 -6
-33 -6 -33 27 -27 17 3 52 20 76 37 l45 31 483 -38 c266 -20 486 -35 489 -31
3 3 -20 54 -52 114 l-59 108 -60 12 c-215 43 -511 63 -643 42z"
        ></path>

    </g>
</svg>