<svg width="17" height="19" viewBox="0 0 17 19" fill="none" xmlns="http://www.w3.org/2000/svg">
<path d="M8.02789 11.91C6.09991 11.9098 4.23471 12.5747 2.76587 13.786C1.29702 14.9973 0.320336 16.6758 0.0104828 18.5215H1.17074C1.47274 16.9764 2.32128 15.5821 3.56996 14.579C4.81864 13.5759 6.38914 13.027 8.01048 13.027C9.63183 13.027 11.2023 13.5759 12.451 14.579C13.6997 15.5821 14.5482 16.9764 14.8502 18.5215H16.0105C15.7016 16.6815 14.73 15.0075 13.2684 13.7969C11.8068 12.5864 9.94987 11.9178 8.02789 11.91Z" fill="url(#paint0_linear_103_18)"/>
<path d="M8.02789 10.7847C9.25192 10.7844 10.438 10.3724 11.384 9.61906C12.33 8.86567 12.9774 7.81745 13.2159 6.653C13.4544 5.48855 13.2693 4.27991 12.692 3.23302C12.1147 2.18613 11.1811 1.36575 10.0501 0.91167C8.91916 0.457589 7.66085 0.397898 6.4896 0.742767C5.31835 1.08764 4.30661 1.81573 3.62678 2.80299C2.94695 3.79025 2.64109 4.97559 2.7613 6.15706C2.88151 7.33853 3.42036 8.44302 4.28604 9.28235C5.2789 10.2441 6.62467 10.7844 8.02789 10.7847ZM8.02789 1.64121C8.84647 1.6401 9.64699 1.87459 10.3281 2.31499C11.0092 2.75539 11.5403 3.3819 11.854 4.11521C12.1678 4.84851 12.2502 5.65563 12.0908 6.43438C11.9314 7.21314 11.5373 7.9285 10.9585 8.48991C10.3797 9.05132 9.64213 9.43353 8.83922 9.58815C8.03631 9.74277 7.20415 9.66285 6.4481 9.3585C5.69205 9.05415 5.0461 8.53907 4.59204 7.87846C4.13797 7.21785 3.89621 6.44141 3.89736 5.64746C3.90042 4.58585 4.33658 3.56857 5.11054 2.81789C5.8845 2.06722 6.93334 1.64418 8.02789 1.64121Z" fill="url(#paint1_linear_103_18)"/>
<defs>
<linearGradient id="paint0_linear_103_18" x1="8.01048" y1="0.521484" x2="8.01048" y2="18.5215" gradientUnits="userSpaceOnUse">
<stop stop-color="#FF3131"/>
<stop offset="1" stop-color="#E30000"/>
</linearGradient>
<linearGradient id="paint1_linear_103_18" x1="8.01048" y1="0.521484" x2="8.01048" y2="18.5215" gradientUnits="userSpaceOnUse">
<stop stop-color="#FF3131"/>
<stop offset="1" stop-color="#E30000"/>
</linearGradient>
</defs>
</svg>
