<svg width="22" height="21" viewBox="0 0 22 21" fill="none" xmlns="http://www.w3.org/2000/svg">
    <path d="M16.4805 20.5715C16.8642 20.5719 17.2324 20.4205 17.5047 20.1503L17.5049 20.1502L20.6362 17.0192L20.6363 17.0191C20.908 16.7461 21.0605 16.3767 21.0605 15.9916C21.0605 15.6093 20.9101 15.2423 20.642 14.97L20.6398 14.9654L20.6341 14.9597L18.3806 12.6954L18.3805 12.6953C18.1073 12.4222 17.7369 12.2689 17.3506 12.2689C16.9644 12.2689 16.5939 12.4222 16.3208 12.6953L14.0005 15.0044L6.5283 7.53305L8.83975 5.22404L8.83982 5.22398C9.11217 4.95092 9.26512 4.58101 9.26512 4.19537C9.26512 3.80972 9.11217 3.43981 8.83982 3.16676L8.83979 3.16673L6.57295 0.897915L6.57292 0.897889C6.29974 0.62486 5.9293 0.471484 5.54305 0.471484C5.15681 0.471484 4.78637 0.62486 4.51319 0.897889L4.51318 0.897897L1.38627 4.02446L1.38626 4.02447C1.25121 4.15957 1.1441 4.31995 1.07104 4.49645C0.997988 4.67295 0.96042 4.8621 0.960483 5.05312C0.960483 5.05312 0.960483 5.05313 0.960483 5.05313L0.960483 5.44199H0.960456L0.96051 5.44364C0.998684 6.59995 1.51881 8.07055 2.46734 9.70693L2.46768 9.7075C3.61176 11.6221 4.99599 13.3825 6.58669 14.9459C8.14446 16.53 9.89743 17.9094 11.8034 19.0511L11.8039 19.0514C13.4339 19.9999 14.9045 20.5221 16.0628 20.5714L16.0628 20.5715H16.065H16.4805ZM16.4805 20.5715L16.4806 20.5215M16.4805 20.5715H16.4806V20.5215M16.4806 20.5215H16.065L20.6009 14.9994C20.8632 15.263 21.0105 15.6198 21.0105 15.9916C21.0105 16.3635 20.8632 16.7202 20.6009 16.9838L17.4695 20.1148C17.2065 20.3757 16.851 20.5219 16.4806 20.5215ZM16.728 19.8034C16.648 19.8324 16.5635 19.8472 16.4784 19.8471H16.4783H16.0882C15.0581 19.805 13.7002 19.3143 12.1701 18.4252C10.3184 17.3148 8.6154 15.9734 7.10217 14.4333L7.1016 14.4327C5.55977 12.9137 4.21817 11.2042 3.10933 9.34545C2.2222 7.80638 1.7337 6.45098 1.70053 5.42119V5.05312H1.70066L1.70041 5.04958C1.69455 4.96692 1.70282 4.88388 1.72484 4.804C1.76172 4.70395 1.8197 4.613 1.89485 4.53732C1.89487 4.5373 1.89489 4.53728 1.89491 4.53726L5.02391 1.41083L5.02408 1.41066C5.09216 1.34198 5.17317 1.28747 5.26244 1.25027C5.3517 1.21306 5.44745 1.19391 5.54417 1.19391C5.64088 1.19391 5.73663 1.21306 5.8259 1.25027C5.91516 1.28747 5.99617 1.34198 6.06425 1.41066L6.06443 1.41084L8.3246 3.66854L8.32474 3.66868C8.39343 3.73675 8.44795 3.81775 8.48515 3.90701C8.52236 3.99626 8.54152 4.092 8.54152 4.1887C8.54152 4.2854 8.52236 4.38114 8.48515 4.47039C8.44795 4.55965 8.39343 4.64065 8.32474 4.70872L8.32457 4.7089L5.97996 7.05547L5.97994 7.05549L5.53548 7.4999L5.50012 7.53525L5.53548 7.57061L5.97996 8.01504L5.97997 8.01505L13.5228 15.5526L13.5228 15.5526L13.9672 15.997L14.0026 16.0323L14.0379 15.997L14.4824 15.5526L14.4824 15.5525L16.8248 13.2082L16.8251 13.2079C16.893 13.139 16.974 13.0843 17.0632 13.0469C17.1525 13.0096 17.2483 12.9904 17.3451 12.9904C17.4418 12.9904 17.5377 13.0096 17.6269 13.0469C17.7162 13.0843 17.7971 13.139 17.8651 13.2079L17.8653 13.2081L20.1232 15.4725L20.1234 15.4727C20.1921 15.5408 20.2466 15.6218 20.2838 15.7111C20.321 15.8003 20.3402 15.8961 20.3402 15.9927C20.3402 16.0894 20.321 16.1852 20.2838 16.2744C20.2476 16.3613 20.1951 16.4403 20.129 16.5072L20.1246 16.5094L20.1189 16.5151L16.9943 19.6348L17.0294 19.6704L16.9942 19.635L16.9943 19.6349C16.9187 19.7096 16.8279 19.7671 16.728 19.8034ZM16.728 19.8034L16.745 19.8504L16.728 19.8034C16.728 19.8034 16.728 19.8034 16.728 19.8034Z"
          fill="url(#paint0_linear_103_14)" stroke="#E30000" stroke-width="0.1"/>
    <defs>
        <linearGradient id="paint0_linear_103_14" x1="11.0105" y1="0.521484" x2="11.0105" y2="20.5215"
                        gradientUnits="userSpaceOnUse">
            <stop stop-color="#FF3131"/>
            <stop offset="1" stop-color="#E30000"/>
        </linearGradient>
    </defs>
</svg>
