<svg width="47" height="39" fill="none" xmlns="http://www.w3.org/2000/svg"><path d="M26.728 26.246c0 3.584-1.613 6.988-4.122 9.317-2.508 2.33-5.913 3.584-9.317 3.405-3.404-.18-6.63-1.434-8.959-3.763C2 32.875.567 29.471.567 26.246c0-3.404 1.255-6.809 3.584-9.317 2.33-2.509 5.734-3.942 9.138-4.121 1.792 0 3.584.179 5.196.896 1.613.716 3.226 1.612 4.48 2.866l.896.896c.358.359.537.717.896 1.075.179.359.537.717.716 1.075.18.359.359.717.538 1.255.537 1.792.896 3.583.717 5.375z" fill="#8DEFDD"/><path d="M46.587 2.192c-.232-.463-.695-.926-1.39-1.157-.926-.232-2.083-.232-3.241-.232-2.084.232-4.168.926-6.02 1.62-3.936 1.39-7.64 3.474-11.113 6.02-3.242 2.548-6.483 5.558-9.03 9.03-1.39 1.853-2.547 3.936-3.473 6.02-.231.463-.926.695-1.389 0-.232-.231-.463-.694-.926-1.157-1.158-2.547-1.852-5.326-2.315-8.104 0-.231-.232-.231-.232-.231-.232 0-.232 0-.232.231-.463 3.01-.694 6.02 0 9.03.464 3.01 1.853 6.251 4.168 8.798.232.463.695.694 1.39.926 1.388.232 2.778-.463 3.01-1.852l.23-.926c0-3.473 1.39-7.178 3.242-10.42 1.852-3.24 4.63-6.25 7.409-9.029 3.01-2.547 6.251-5.094 9.956-6.714 1.852-.926 3.704-1.621 5.557-2.084a5.643 5.643 0 012.778 0c.463 0 .926.231.926.694.232.464.232.927.232 1.39 0 0 0 .231.231.231.232 0 .232 0 .232-.231.231-.695.231-1.158 0-1.853z" fill="#000"/></svg>