<svg width="48" height="39" fill="none" xmlns="http://www.w3.org/2000/svg"><path class="path" d="M27.095 25.732c0 3.583-1.613 6.987-4.121 9.317-2.509 2.33-5.913 3.584-9.318 3.404-3.404-.179-6.63-1.433-8.959-3.763C2.368 32.361.935 28.957.935 25.733c0-3.405 1.254-6.81 3.583-9.318 2.33-2.508 5.734-3.942 9.138-4.12 1.792 0 3.584.178 5.196.895 1.613.717 3.226 1.613 4.48 2.867l.896.896c.358.358.537.716.896 1.075.179.358.537.716.716 1.075.18.358.359.717.538 1.254.538 1.792.896 3.584.717 5.375z" fill="#fff"/><path class="path" d="M46.954 1.678c-.232-.463-.695-.926-1.39-1.158C44.64.29 43.482.29 42.325.29c-2.084.231-4.168.926-6.02 1.62-3.937 1.39-7.641 3.473-11.114 6.02-3.242 2.547-6.483 5.557-9.03 9.03-1.389 1.852-2.547 3.936-3.473 6.02-.231.463-.926.694-1.389 0-.231-.232-.463-.695-.926-1.158-1.158-2.547-1.852-5.325-2.315-8.104 0-.231-.232-.231-.232-.231-.231 0-.231 0-.231.231-.463 3.01-.695 6.02 0 9.03.463 3.01 1.852 6.252 4.167 8.798.232.463.695.695 1.39.926 1.389.232 2.778-.463 3.01-1.852l.23-.926c0-3.473 1.39-7.177 3.242-10.419 1.852-3.241 4.63-6.251 7.41-9.03 3.01-2.546 6.25-5.093 9.955-6.714 1.852-.926 3.705-1.62 5.557-2.084a5.643 5.643 0 012.778 0c.463 0 .926.232.926.695.232.463.232.926.232 1.39 0 0 0 .23.231.23.232 0 .232 0 .232-.23.231-.695.231-1.159 0-1.853z" fill="#000"/></svg>