<svg width="203" height="40" fill="none" xmlns="http://www.w3.org/2000/svg"><path d="M12.932 16.032L20.708 1.02h-5.994L6.776 16.788h-.108V1.02H.944v37.8h5.724V27.156l2.484-4.86 5.616 16.524h6.102l-7.938-22.788zM40.358 6.312V1.02H24.266v37.8h16.092v-5.292H29.99V22.296h8.37v-5.292h-8.37V6.312h10.368zM60.591 6.42v-5.4H42.663v5.4h6.102v32.4h5.724V6.42h6.102zM72.667.48c-5.724 0-9.234 3.618-9.234 9.558v19.764c0 5.94 3.51 9.558 9.234 9.558s9.234-3.618 9.234-9.558V10.038c0-5.94-3.51-9.558-9.234-9.558zm0 5.292c2.268 0 3.51 1.512 3.51 4.32v19.656c0 2.808-1.242 4.32-3.51 4.32s-3.51-1.512-3.51-4.32V10.092c0-2.808 1.242-4.32 3.51-4.32zM97.725 1.02v37.8h8.424c6.156 0 9.504-3.348 9.504-9.558v-1.296c0-4.968-1.512-7.776-5.076-8.856v-.108c3.024-1.026 4.266-3.51 4.266-7.722v-.702c0-6.21-3.186-9.558-9.126-9.558h-7.992zm5.724 5.292h2.052c2.484 0 3.618 1.404 3.618 4.482v1.242c0 3.186-1.134 4.59-3.888 4.59h-1.782V6.312zm0 15.606h2.214c3.024 0 4.266 1.512 4.266 4.86v2.106c0 3.186-1.242 4.644-3.996 4.644h-2.484v-11.61zM125.966 33.42V1.02h-5.724v37.8h15.282v-5.4h-9.558zM157.48 38.82l-6.534-37.8h-7.29l-6.534 37.8h5.724l1.242-8.586h6.318l1.242 8.586h5.832zm-10.314-29.7h.162l2.322 15.93h-4.806l2.322-15.93zM169.53.48c-5.562 0-8.802 3.348-8.802 9.072v20.736c0 5.724 3.24 9.072 8.802 9.072 5.616 0 8.91-3.348 8.91-9.072v-4.536l-5.508-.27v4.212c0 3.024-1.134 4.374-3.24 4.374-2.106 0-3.24-1.35-3.24-3.834V9.606c0-2.484 1.134-3.834 3.24-3.834 2.106 0 3.24 1.35 3.24 4.374v3.078l5.508-.27V9.552c0-5.724-3.294-9.072-8.91-9.072zM194.76 16.032l7.776-15.012h-5.994l-7.938 15.768h-.108V1.02h-5.724v37.8h5.724V27.156l2.484-4.86 5.616 16.524h6.102l-7.938-22.788z" fill="#000"/></svg>