<svg xmlns="http://www.w3.org/2000/svg" id="Слой_1" viewBox="0 0 1080 1860"><style>.st0{fill:transparent}.st1{fill:#35582e}</style><path class="st0" d="M606 1h475v1859.9H1.2C1.1 1241 1.1 621 1.1 1H476c0 1.8 0 3.7.1 5.5.8 14.8-1.7 29.4-2.8 44.1-1.1 15.9.6 31.9.6 47.9.2 448.6.2 897.3.3 1345.9 0 10.4 1.5 20.8 2 31.2.9 18 3.3 36.1-2.2 53.9-2.9 9.6-7.8 17.5-17.6 21.6-11.5 4.8-25.9-3.1-33.4-11.9-8.7-10.2-16.3-21.3-26-30.8-8.7-8.5-15.9-18.3-24.7-26.7-2.8-2.7-5.1-6.1-7.6-9.2-10.2-12.1-21.6-23-33.5-33.3-9.2-8-18.2-16-25.8-25.5-10.4-13.1-22.7-24.2-35.1-35.1-9.1-8-17.9-16.2-25.5-25.8-7.6-9.6-16.2-18.5-25.5-26.5C205 1314 191.5 1301 180 1286c-8.2-10.7-18-19.6-29.9-25.8-19-9.8-39.2-12.4-59.9-6-9.9 3-18.7 8.1-25.6 16.2-8.9 10.3-13.2 22.4-15.5 35.5-2.2 12.7-.9 25.2 2.3 37.4 4.8 18 17.4 30.6 31.7 41.7 10.1 7.8 19.5 16.4 28.2 25.8 7.9 8.5 15.4 17.4 23.7 25.4 8.5 8.1 18.1 15.1 26.2 23.6 7.1 7.4 13.9 15.2 20.9 22.8 11.9 12.8 25.3 24.1 38 36 7.7 7.2 14 15.6 21.2 23.1 10.4 10.8 21.1 21.2 32.5 30.9 10.1 8.6 18.5 19.1 27.4 29 11.8 13.1 25.3 24.5 38.3 36.4 8.2 7.5 15 16.4 22.6 24.6 11 11.8 23.3 22.3 35.2 33.2 8.7 8 16 17.3 24.1 25.9 10.3 10.9 21.1 21.2 32.5 30.9 10.7 9 18.8 20.6 27.5 31.5 20.6 25.8 47.2 34.2 78.8 27.2 18.8-4.1 32.4-16.3 43.7-31.2 9.8-12.8 20.6-24.6 32.9-35 10.2-8.7 19.6-18.2 28.3-28.4 9.8-11.3 20-22.2 31.7-31.7 11.9-9.6 22.3-20.9 32.3-32.4 8.3-9.5 16.8-18.8 26.7-26.7 12.2-9.8 22.8-21.3 33.1-33 8.3-9.5 16.8-18.8 26.6-26.7 12.4-10.1 23.2-21.8 33.7-33.8 8.3-9.5 16.8-18.7 26.8-26.6 12.1-9.7 22.6-21.1 32.7-32.7 8.5-9.8 17.4-19.1 27.3-27.4 7.1-6 14.2-12.1 20.4-19 13-14.4 25.6-29.1 41.4-40.8 12.8-9.5 23.6-20.8 30.5-35.6 2.5-5.4 3-11.1 4.1-16.8 2.8-14.9 1.4-29.3-3.6-43.5-4.2-11.9-10.9-22.3-21.8-28.8-25-15.1-50.8-13.2-76.1-.9-13.7 6.6-23.4 18.3-33 29.9-5.3 6.4-10.5 12.8-16.3 18.6-8.8 8.8-18.2 17-27.3 25.5-9 8.4-16.8 17.9-25.1 27-8.9 9.9-19.3 18.3-29.1 27.3-10.8 10.1-20.8 21-30.5 32.2-8.6 9.9-19 18.1-28.6 27-19.4 17.8-35.9 38.3-53.6 57.7-5.4 6-11.7 11.3-16.4 18-5.1 7.3-10.4 14.6-17.4 20.4-8.7 7.3-18.5 11-29.5 6.1-8.7-3.9-13.1-12-16-20.7-2.5-7.6-3-15.5-3.3-23.6-.5-17.3 3-34.4 3-51.6.2-451.6.2-903.2.2-1354.9 0-2 0-4 .2-6 1.5-16.2 3.5-32.6.5-48.6-2.9-14.5-2.6-29-2.7-43.6z"/><path class="st1" d="M606 1c.1 14.6-.2 29.1 2.6 43.7 3 16 1 32.4-.5 48.6-.2 2-.2 4-.2 6 0 451.6 0 903.3-.2 1354.9 0 17.2-3.5 34.3-3 51.6.3 8 .7 16 3.3 23.6 2.9 8.7 7.3 16.8 16 20.7 11 5 20.8 1.2 29.5-6.1 6.9-5.8 12.3-13.1 17.4-20.4 4.7-6.8 11-12 16.4-18 17.6-19.5 34.2-39.9 53.6-57.7 9.7-8.9 20-17.1 28.6-27 9.7-11.2 19.7-22.1 30.5-32.2 9.7-9 20.1-17.4 29.1-27.3 8.3-9.1 16.1-18.6 25.1-27 9.1-8.5 18.5-16.7 27.3-25.5 5.8-5.8 11.1-12.3 16.3-18.6 9.6-11.6 19.3-23.2 33-29.9 25.3-12.3 51.1-14.1 76.1.9 10.9 6.5 17.6 16.9 21.8 28.8 5 14.2 6.4 28.6 3.6 43.5-1.1 5.7-1.6 11.4-4.1 16.8-6.8 14.7-17.7 26.1-30.5 35.6-15.7 11.7-28.4 26.4-41.4 40.8-6.2 6.9-13.3 13.1-20.4 19-10 8.3-18.8 17.6-27.3 27.4-10.1 11.6-20.6 23.1-32.7 32.7-9.9 7.9-18.5 17.1-26.8 26.6-10.5 12-21.3 23.7-33.7 33.8-9.8 8-18.3 17.2-26.6 26.7-10.2 11.8-20.8 23.3-33.1 33-9.9 7.9-18.4 17.2-26.7 26.7-10 11.5-20.4 22.8-32.3 32.4-11.7 9.4-21.9 20.3-31.7 31.7-8.8 10.1-18.1 19.7-28.3 28.4-12.3 10.4-23.1 22.2-32.9 35-11.3 14.8-24.9 27-43.7 31.2-31.6 7-58.2-1.4-78.8-27.2-8.7-10.9-16.8-22.4-27.5-31.5-11.5-9.7-22.3-20-32.5-30.9-8.1-8.6-15.4-17.9-24.1-25.9-11.9-10.9-24.1-21.4-35.2-33.2-7.6-8.1-14.4-17-22.6-24.6-13-11.9-26.5-23.3-38.3-36.4-8.9-9.9-17.2-20.4-27.4-29-11.4-9.7-22.2-20.1-32.5-30.9-7.2-7.5-13.6-15.9-21.2-23.1-12.7-11.9-26.1-23.2-38-36-7-7.6-13.7-15.3-20.9-22.8-8.2-8.5-17.8-15.5-26.2-23.6-8.3-8-15.8-16.9-23.7-25.4-8.7-9.4-18-18-28.2-25.8-14.3-11-26.9-23.6-31.7-41.7-3.2-12.1-4.5-24.7-2.3-37.4 2.3-13.2 6.6-25.2 15.5-35.5 7-8.1 15.8-13.2 25.6-16.2 20.7-6.4 40.8-3.8 59.9 6 11.9 6.1 21.6 15.1 29.9 25.8 11.5 14.9 25 28 39.2 40.2 9.3 8 17.8 16.9 25.5 26.5 7.6 9.6 16.5 17.8 25.5 25.8 12.5 11 24.8 22.1 35.1 35.1 7.6 9.5 16.6 17.6 25.8 25.5 11.9 10.3 23.4 21.2 33.5 33.3 2.6 3 4.8 6.4 7.6 9.2 8.8 8.4 16.1 18.2 24.7 26.7 9.7 9.5 17.3 20.6 26 30.8 7.5 8.8 21.9 16.7 33.4 11.9 9.8-4.1 14.7-12 17.6-21.6 5.4-17.8 3.1-35.9 2.2-53.9-.5-10.4-2-20.8-2-31.2-.1-448.6-.1-897.3-.3-1345.9 0-15.9-1.7-32-.6-47.9 1-14.7 3.6-29.3 2.8-44.1.1-1.8.1-3.7.1-5.5h130z"/></svg>