<svg width="199" height="299" viewBox="0 0 199 299" fill="none" xmlns="http://www.w3.org/2000/svg">
<path d="M123.399 136.36C117.695 143.235 109.213 147.622 99.5617 147.622C89.91 147.622 81.4282 143.235 75.7249 136.36C49.8407 146.014 31.2684 171.024 31.2684 200.275C31.2684 238.01 61.8322 268.578 99.5617 268.578C137.291 268.578 167.855 238.01 167.855 200.275C167.855 171.024 149.283 146.014 123.399 136.36ZM99.5617 247.078C73.6775 247.078 52.7655 226.163 52.7655 200.275C52.7655 174.388 73.6775 153.473 99.5617 153.473C125.446 153.473 146.358 174.388 146.358 200.275C146.358 226.163 125.446 247.078 99.5617 247.078Z" fill="url(#paint0_linear)"/>
<path d="M99.5617 299C45.1611 299 0.850952 254.683 0.850952 200.275C0.850952 157.568 27.905 120.126 68.2667 106.67C72.6539 93.3605 85.3766 84 99.5617 84C113.747 84 126.323 93.2143 130.857 106.67C171.218 120.126 198.272 157.568 198.272 200.275C198.272 254.83 153.962 299 99.5617 299ZM99.5617 88.3878C86.9852 88.3878 75.7249 96.8707 72.2151 109.01C72.0689 109.741 71.484 110.326 70.7528 110.473C31.5609 123.051 5.2381 159.177 5.2381 200.275C5.2381 252.343 47.5009 294.612 99.5617 294.612C151.622 294.612 193.885 252.343 193.885 200.275C193.885 159.031 167.562 123.051 128.371 110.473C127.639 110.18 127.201 109.741 126.908 109.01C123.399 96.8707 112.138 88.3878 99.5617 88.3878Z" fill="url(#paint1_linear)"/>
<path d="M107.5 101H105V97.25C105 96.56 104.44 96 103.75 96H96.25C95.56 96 95 96.56 95 97.25V101H92.5C91.1225 101 90 102.122 90 103.5V133.5C90 134.903 91.0975 136 92.5 136H107.5C108.903 136 110 134.903 110 133.5V103.5C110 102.097 108.903 101 107.5 101ZM100 128.5V121H95L100 108.5V116H105L100 128.5Z" fill="url(#paint2_linear)"/>
<path d="M53.8388 7.39902C52.4254 7.39902 51.2795 6.25304 51.2795 4.8394C51.2795 3.42577 52.4254 2.27979 53.8388 2.27979C55.2522 2.27979 56.3981 3.42577 56.3981 4.8394C56.3981 6.25304 55.2522 7.39902 53.8388 7.39902Z" fill="#00BFFF"/>
<path d="M49.5 4.83943C49.5 2.45167 51.4513 0.5 53.8389 0.5C56.2265 0.5 58.1778 2.45167 58.1778 4.83943C58.1778 6.86566 56.7949 8.50542 54.9787 9.01293V45.9213C54.9787 55.1267 62.5714 62.8907 71.5618 62.8907H81.7989C92.1842 62.8907 100.662 71.3694 100.662 81.756C100.662 82.0616 100.558 82.3551 100.339 82.5735C100.121 82.7918 99.8274 82.8959 99.5218 82.8959C99.2162 82.8959 98.9227 82.7918 98.7044 82.5735C98.486 82.3551 98.382 82.0616 98.382 81.756C98.382 72.6255 90.928 65.1705 81.7989 65.1705H71.5618C61.3596 65.1705 52.6991 56.3629 52.6991 45.9213V9.0161C50.8263 8.51074 49.5 6.86258 49.5 4.83943ZM53.8389 6.89905C54.9703 6.89905 55.8982 5.97114 55.8982 4.83943C55.8982 3.70772 54.9703 2.77981 53.8389 2.77981C52.7075 2.77981 51.7796 3.70772 51.7796 4.83943C51.7796 5.97938 52.6517 6.89905 53.8389 6.89905Z" fill="#333333" stroke="#333333"/>
<defs>
<linearGradient id="paint0_linear" x1="99.5617" y1="136.36" x2="99.5617" y2="268.578" gradientUnits="userSpaceOnUse">
<stop stop-color="#0089C9"/>
<stop offset="1" stop-color="#00BFFF"/>
</linearGradient>
<linearGradient id="paint1_linear" x1="99.5617" y1="84" x2="99.5617" y2="299" gradientUnits="userSpaceOnUse">
<stop stop-color="#0089C9"/>
<stop offset="1" stop-color="#00BFFF"/>
</linearGradient>
<linearGradient id="paint2_linear" x1="100" y1="96" x2="100" y2="136" gradientUnits="userSpaceOnUse">
<stop stop-color="#0089C9"/>
<stop offset="1" stop-color="#00BFFF"/>
</linearGradient>
</defs>
</svg>
