<svg width="220" height="299" viewBox="0 0 220 299" fill="none" xmlns="http://www.w3.org/2000/svg">
<g clip-path="url(#clip0)">
<path d="M132.477 119.923L126.29 117.543C126.711 115.553 126.314 113.397 125.032 111.632L131.498 105.166C134.765 107.153 139 104.796 139 100.941C139 98.2166 136.783 96 134.059 96C130.201 96 127.849 100.239 129.834 103.502L123.368 109.968C120.592 107.952 116.786 108.09 114.159 110.341L110.868 107.544C112.51 104.276 110.123 100.392 106.451 100.392C103.726 100.392 101.51 102.609 101.51 105.333C101.51 109.377 106.111 111.679 109.344 109.336L112.634 112.132C111.077 114.685 111.2 117.935 112.968 120.368L108.664 124.672C104.594 121.912 99 124.822 99 129.804C99 133.22 101.78 136 105.196 136C110.174 136 113.091 130.41 110.328 126.336L114.632 122.032C116.435 123.342 118.687 123.752 120.784 123.235L123.458 129.557C120.928 131.802 122.52 136 125.902 136C127.935 136 129.588 134.346 129.588 132.314C129.588 130.201 127.793 128.477 125.625 128.639L122.95 122.315C123.975 121.672 124.833 120.786 125.443 119.739L131.631 122.119C131.543 124.227 133.234 125.961 135.314 125.961C137.346 125.961 139 124.307 139 122.275C139 118.855 134.687 117.261 132.477 119.923Z" fill="url(#paint0_linear)"/>
</g>
<path d="M144.161 136.36C138.458 143.235 129.976 147.622 120.325 147.622C110.673 147.622 102.191 143.235 96.4878 136.36C70.6036 146.014 52.0314 171.024 52.0314 200.275C52.0314 238.01 82.5951 268.578 120.325 268.578C158.054 268.578 188.618 238.01 188.618 200.275C188.618 171.024 170.192 146.014 144.161 136.36ZM120.471 247.078C94.5867 247.078 73.6746 226.163 73.6746 200.275C73.6746 174.388 94.5867 153.473 120.471 153.473C146.355 153.473 167.267 174.388 167.267 200.275C167.267 226.163 146.209 247.078 120.471 247.078Z" fill="url(#paint1_linear)"/>
<path d="M120.471 299C66.0702 299 21.76 254.683 21.76 200.275C21.76 157.568 48.8141 120.126 89.1758 106.67C93.5629 93.3605 106.286 84 120.471 84C134.656 84 147.232 93.2143 151.766 106.67C192.127 120.126 219.182 157.568 219.182 200.275C219.182 254.83 174.871 299 120.471 299ZM120.471 88.3878C107.894 88.3878 96.6339 96.8707 93.1242 109.01C92.978 109.741 92.393 110.326 91.6618 110.473C52.47 123.051 26.1472 159.177 26.1472 200.275C26.1472 252.343 68.41 294.612 120.471 294.612C172.532 294.612 214.794 252.343 214.794 200.275C214.794 159.031 188.471 123.051 149.28 110.473C148.548 110.18 148.11 109.741 147.817 109.01C144.308 96.8707 133.047 88.3878 120.471 88.3878Z" fill="url(#paint2_linear)"/>
<path d="M4.83893 7.39902C3.42549 7.39902 2.27967 6.25304 2.27967 4.8394C2.27967 3.42577 3.42549 2.27979 4.83893 2.27979C6.25237 2.27979 7.39819 3.42577 7.39819 4.8394C7.39819 6.25304 6.25237 7.39902 4.83893 7.39902Z" fill="#00BFFF"/>
<path d="M0.500008 4.83943C0.500008 2.45167 2.4513 0.5 4.83891 0.5C7.22651 0.5 9.1778 2.45167 9.1778 4.83943C9.1778 6.85662 7.80099 8.56582 5.91473 9.02781V46.5612C5.91473 55.5564 13.3614 62.8907 22.4978 62.8907H101.579C111.788 62.8907 120.442 71.833 120.442 82.3959C120.442 82.7015 120.338 82.995 120.12 83.2134C119.901 83.4318 119.608 83.5358 119.302 83.5358C118.996 83.5358 118.703 83.4318 118.485 83.2134C118.266 82.995 118.162 82.7015 118.162 82.3959C118.162 73.0554 110.563 65.1706 101.579 65.1706H22.4339C12.0554 65.1706 3.57112 56.8267 3.57112 46.5612V9.00919C1.80891 8.49452 0.500008 6.84738 0.500008 4.83943ZM4.83891 6.89905C5.9703 6.89905 6.89817 5.97115 6.89817 4.83943C6.89817 3.70772 5.9703 2.77981 4.83891 2.77981C3.70752 2.77981 2.77964 3.70772 2.77964 4.83943C2.77964 5.97114 3.70752 6.89905 4.83891 6.89905Z" fill="#333333" stroke="#333333"/>
<defs>
<linearGradient id="paint0_linear" x1="119" y1="96" x2="119" y2="136" gradientUnits="userSpaceOnUse">
<stop stop-color="#0089C9"/>
<stop offset="1" stop-color="#00BFFF"/>
</linearGradient>
<linearGradient id="paint1_linear" x1="120.325" y1="136.36" x2="120.325" y2="268.578" gradientUnits="userSpaceOnUse">
<stop stop-color="#0089C9"/>
<stop offset="1" stop-color="#00BFFF"/>
</linearGradient>
<linearGradient id="paint2_linear" x1="120.471" y1="84" x2="120.471" y2="299" gradientUnits="userSpaceOnUse">
<stop stop-color="#0089C9"/>
<stop offset="1" stop-color="#00BFFF"/>
</linearGradient>
<clipPath id="clip0">
<rect width="40" height="40" fill="white" transform="translate(99 96)"/>
</clipPath>
</defs>
</svg>
