<svg width="100" height="169" viewBox="0 0 100 169" fill="none" xmlns="http://www.w3.org/2000/svg">
<path d="M17.6598 5.43363C16.6805 5.43363 15.8866 4.63963 15.8866 3.66017C15.8866 2.68072 16.6805 1.88672 17.6598 1.88672C18.6391 1.88672 19.433 2.68072 19.433 3.66017C19.433 4.63963 18.6391 5.43363 17.6598 5.43363Z" fill="#00BFFF"/>
<path d="M14.5 3.66018C14.5 1.92101 15.9207 0.5 17.6598 0.5C19.3989 0.5 20.8196 1.92101 20.8196 3.66018C20.8196 5.09538 19.8681 6.26228 18.6031 6.66613V32.1242C18.6031 38.4207 23.7983 43.728 29.9393 43.728H37.0321C44.3125 43.728 50.2549 49.6713 50.2549 56.9525C50.2549 57.1992 50.1706 57.4435 49.9866 57.6275C49.8026 57.8115 49.5583 57.8959 49.3116 57.8959C49.065 57.8959 48.8206 57.8115 48.6367 57.6275C48.4527 57.4435 48.3683 57.1992 48.3683 56.9525C48.3683 50.7112 43.2725 45.6147 37.0321 45.6147H29.9393C22.783 45.6147 16.7165 39.4408 16.7165 32.1242V6.66944C15.4142 6.26711 14.5 5.09237 14.5 3.66018ZM17.6598 4.93364C18.3589 4.93364 18.933 4.35951 18.933 3.66018C18.933 2.96086 18.3589 2.38673 17.6598 2.38673C16.9608 2.38673 16.3866 2.96086 16.3866 3.66018C16.3866 4.36774 16.9246 4.93364 17.6598 4.93364Z" fill="#333333" stroke="#333333"/>
<path d="M62.0741 86.5222C59.1852 90.0042 54.8889 92.2267 50 92.2267C45.1111 92.2267 40.8148 90.0042 37.926 86.5222C24.8148 91.4118 15.4074 104.08 15.4074 118.897C15.4074 138.011 30.8889 153.494 50 153.494C69.1111 153.494 84.5927 138.011 84.5927 118.897C84.5927 104.08 75.1852 91.4118 62.0741 86.5222ZM50 142.604C36.8889 142.604 26.2963 132.01 26.2963 118.897C26.2963 105.784 36.8889 95.1901 50 95.1901C63.1111 95.1901 73.7037 105.784 73.7037 118.897C73.7037 132.01 63.1111 142.604 50 142.604Z" fill="url(#paint0_linear)"/>
<path d="M50 168.904C22.4444 168.904 0 146.456 0 118.897C0 97.2644 13.7037 78.2988 34.1482 71.4831C36.3704 64.7414 42.8148 60 50 60C57.1852 60 63.5555 64.6673 65.8518 71.4831C86.2963 78.2988 100 97.2644 100 118.897C100 146.53 77.5556 168.904 50 168.904ZM50 62.2225C43.6296 62.2225 37.9259 66.5194 36.1481 72.6684C36.0741 73.0388 35.7778 73.3352 35.4074 73.4093C15.5555 79.7805 2.22222 98.0793 2.22222 118.897C2.22222 145.271 23.6296 166.681 50 166.681C76.3704 166.681 97.7778 145.271 97.7778 118.897C97.7778 98.0052 84.4445 79.7805 64.5926 73.4093C64.2222 73.2611 64 73.0388 63.8519 72.6684C62.0741 66.5194 56.3704 62.2225 50 62.2225Z" fill="url(#paint1_linear)"/>
<g clip-path="url(#clip0)">
<path d="M54.021 68.611H52.7547V66.7115C52.7547 66.362 52.471 66.0784 52.1215 66.0784H48.3226C47.973 66.0784 47.6894 66.362 47.6894 66.7115V68.611H46.4231C45.7253 68.611 45.1567 69.1796 45.1567 69.8773V85.0733C45.1567 85.7837 45.7127 86.3396 46.4231 86.3396H54.021C54.7314 86.3396 55.2873 85.7837 55.2873 85.0733V69.8773C55.2873 69.1669 54.7314 68.611 54.021 68.611ZM50.222 82.5406V78.7416H47.6894L50.222 72.41V76.209H52.7547L50.222 82.5406Z" fill="url(#paint2_linear)"/>
</g>
<defs>
<linearGradient id="paint0_linear" x1="50" y1="86.5222" x2="50" y2="153.494" gradientUnits="userSpaceOnUse">
<stop stop-color="#0089C9"/>
<stop offset="1" stop-color="#00BFFF"/>
</linearGradient>
<linearGradient id="paint1_linear" x1="50" y1="60" x2="50" y2="168.904" gradientUnits="userSpaceOnUse">
<stop stop-color="#0089C9"/>
<stop offset="1" stop-color="#00BFFF"/>
</linearGradient>
<linearGradient id="paint2_linear" x1="50.222" y1="66.0784" x2="50.222" y2="86.3396" gradientUnits="userSpaceOnUse">
<stop stop-color="#0089C9"/>
<stop offset="1" stop-color="#00BFFF"/>
</linearGradient>
<clipPath id="clip0">
<rect width="20.2612" height="20.2612" fill="white" transform="translate(40.0914 66.0784)"/>
</clipPath>
</defs>
</svg>
