<svg width="100" height="168" viewBox="0 0 100 168" fill="none" xmlns="http://www.w3.org/2000/svg">
<path d="M17.6598 5.43363C16.6805 5.43363 15.8866 4.63963 15.8866 3.66017C15.8866 2.68072 16.6805 1.88672 17.6598 1.88672C18.6391 1.88672 19.433 2.68072 19.433 3.66017C19.433 4.63963 18.6391 5.43363 17.6598 5.43363Z" fill="#00BFFF"/>
<path d="M14.5 3.66018C14.5 1.92101 15.9207 0.5 17.6598 0.5C19.3989 0.5 20.8196 1.92101 20.8196 3.66018C20.8196 5.09538 19.8681 6.26228 18.6031 6.66613V32.1242C18.6031 38.4207 23.7983 43.728 29.9393 43.728H37.0321C44.3125 43.728 50.2549 49.6713 50.2549 56.9525C50.2549 57.1992 50.1706 57.4435 49.9866 57.6275C49.8026 57.8115 49.5583 57.8959 49.3116 57.8959C49.065 57.8959 48.8206 57.8115 48.6367 57.6275C48.4527 57.4435 48.3683 57.1992 48.3683 56.9525C48.3683 50.7112 43.2725 45.6147 37.0321 45.6147H29.9393C22.783 45.6147 16.7165 39.4408 16.7165 32.1242V6.66944C15.4142 6.26711 14.5 5.09237 14.5 3.66018ZM17.6598 4.93364C18.3589 4.93364 18.933 4.35951 18.933 3.66018C18.933 2.96086 18.3589 2.38673 17.6598 2.38673C16.9608 2.38673 16.3866 2.96086 16.3866 3.66018C16.3866 4.36774 16.9246 4.93364 17.6598 4.93364Z" fill="#333333" stroke="#333333"/>
<path d="M62 85.5222C59.1111 89.0042 54.8148 91.2267 49.9259 91.2267C45.037 91.2267 40.7407 89.0042 37.8518 85.5222C24.7407 90.4118 15.3333 103.08 15.3333 117.897C15.3333 137.011 30.8148 152.494 49.9259 152.494C69.037 152.494 84.5185 137.011 84.5185 117.897C84.5185 103.08 75.1852 90.4118 62 85.5222ZM50 141.604C36.8889 141.604 26.2963 131.01 26.2963 117.897C26.2963 104.784 36.8889 94.1901 50 94.1901C63.1111 94.1901 73.7037 104.784 73.7037 117.897C73.7037 131.01 63.037 141.604 50 141.604Z" fill="url(#paint0_linear)"/>
<path d="M50 167.904C22.4444 167.904 0 145.456 0 117.897C0 96.2644 13.7037 77.2988 34.1481 70.4831C36.3704 63.7414 42.8148 59 50 59C57.1852 59 63.5555 63.6673 65.8518 70.4831C86.2963 77.2988 100 96.2644 100 117.897C100 145.53 77.5556 167.904 50 167.904ZM50 61.2225C43.6296 61.2225 37.9259 65.5194 36.1481 71.6684C36.0741 72.0388 35.7778 72.3352 35.4074 72.4093C15.5556 78.7805 2.22222 97.0793 2.22222 117.897C2.22222 144.271 23.6296 165.681 50 165.681C76.3704 165.681 97.7778 144.271 97.7778 117.897C97.7778 97.0052 84.4444 78.7805 64.5926 72.4093C64.2222 72.2611 64 72.0388 63.8518 71.6684C62.0741 65.5194 56.3704 61.2225 50 61.2225Z" fill="url(#paint1_linear)"/>
<g clip-path="url(#clip0)">
<path d="M56.0816 77.1962L52.9475 75.9906C53.1607 74.9826 52.9598 73.8905 52.3105 72.9963L55.5857 69.721C57.2403 70.7278 59.3856 69.5337 59.3856 67.5812C59.3856 66.2012 58.2628 65.0784 56.8828 65.0784C54.9287 65.0784 53.7372 67.2253 54.7429 68.8783L51.4677 72.1535C50.0616 71.1324 48.1338 71.2023 46.8028 72.3425L45.136 70.9256C45.9676 69.2705 44.7583 67.3031 42.8985 67.3031C41.5185 67.3031 40.3957 68.4259 40.3957 69.806C40.3957 71.8543 42.7262 73.02 44.3637 71.8333L46.0302 73.2499C45.2419 74.5427 45.3043 76.1889 46.1996 77.4217L44.0197 79.6016C41.9579 78.2038 39.1244 79.6775 39.1244 82.2011C39.1244 83.9317 40.5323 85.3396 42.2629 85.3396C44.7844 85.3396 46.2617 82.5083 44.8624 80.4444L47.0423 78.2645C47.9558 78.9279 49.0965 79.1355 50.1585 78.8736L51.5133 82.0761C50.2317 83.2133 51.038 85.3396 52.7511 85.3396C53.7806 85.3396 54.6183 84.502 54.6183 83.4724C54.6183 82.4025 53.7089 81.5289 52.6107 81.611L51.2556 78.4079C51.7749 78.0819 52.2096 77.6333 52.5186 77.1026L55.6532 78.3084C55.6086 79.3762 56.465 80.2544 57.5184 80.2544C58.548 80.2544 59.3856 79.4168 59.3856 78.3872C59.3856 76.6553 57.2011 75.8479 56.0816 77.1962Z" fill="url(#paint2_linear)"/>
</g>
<defs>
<linearGradient id="paint0_linear" x1="49.9259" y1="85.5222" x2="49.9259" y2="152.494" gradientUnits="userSpaceOnUse">
<stop stop-color="#0089C9"/>
<stop offset="1" stop-color="#00BFFF"/>
</linearGradient>
<linearGradient id="paint1_linear" x1="50" y1="59" x2="50" y2="167.904" gradientUnits="userSpaceOnUse">
<stop stop-color="#0089C9"/>
<stop offset="1" stop-color="#00BFFF"/>
</linearGradient>
<linearGradient id="paint2_linear" x1="49.255" y1="65.0784" x2="49.255" y2="85.3396" gradientUnits="userSpaceOnUse">
<stop stop-color="#0089C9"/>
<stop offset="1" stop-color="#00BFFF"/>
</linearGradient>
<clipPath id="clip0">
<rect width="20.2612" height="20.2612" fill="white" transform="translate(39.1244 65.0784)"/>
</clipPath>
</defs>
</svg>
