<svg width="100" height="168" viewBox="0 0 100 168" fill="none" xmlns="http://www.w3.org/2000/svg">
<path d="M17.6598 5.43363C16.6805 5.43363 15.8866 4.63963 15.8866 3.66017C15.8866 2.68072 16.6805 1.88672 17.6598 1.88672C18.6391 1.88672 19.433 2.68072 19.433 3.66017C19.433 4.63963 18.6391 5.43363 17.6598 5.43363Z" fill="#00BFFF"/>
<path d="M14.5 3.66018C14.5 1.92101 15.9207 0.5 17.6598 0.5C19.3989 0.5 20.8196 1.92101 20.8196 3.66018C20.8196 5.09538 19.8681 6.26228 18.6031 6.66613V32.1242C18.6031 38.4207 23.7983 43.728 29.9393 43.728H37.0321C44.3125 43.728 50.2549 49.6713 50.2549 56.9525C50.2549 57.1992 50.1706 57.4435 49.9866 57.6275C49.8026 57.8115 49.5583 57.8959 49.3116 57.8959C49.065 57.8959 48.8206 57.8115 48.6367 57.6275C48.4527 57.4435 48.3683 57.1992 48.3683 56.9525C48.3683 50.7112 43.2725 45.6147 37.0321 45.6147H29.9393C22.783 45.6147 16.7165 39.4408 16.7165 32.1242V6.66944C15.4142 6.26711 14.5 5.09237 14.5 3.66018ZM17.6598 4.93364C18.3589 4.93364 18.933 4.35951 18.933 3.66018C18.933 2.96086 18.3589 2.38673 17.6598 2.38673C16.9608 2.38673 16.3866 2.96086 16.3866 3.66018C16.3866 4.36774 16.9246 4.93364 17.6598 4.93364Z" fill="#333333" stroke="#333333"/>
<path d="M62.0741 85.5222C59.1852 89.0042 54.8889 91.2267 50 91.2267C45.1111 91.2267 40.8148 89.0042 37.9259 85.5222C24.8148 90.4118 15.4074 103.08 15.4074 117.897C15.4074 137.011 30.8889 152.494 50 152.494C69.1111 152.494 84.5927 137.011 84.5927 117.897C84.5186 103.08 75.1853 90.4118 62.0741 85.5222ZM50 141.604C36.8889 141.604 26.2963 131.01 26.2963 117.897C26.2963 104.784 36.8889 94.1901 50 94.1901C63.1111 94.1901 73.7037 104.784 73.7037 117.897C73.7037 131.01 63.1111 141.604 50 141.604Z" fill="url(#paint0_linear)"/>
<path d="M50 167.904C22.4444 167.904 0 145.456 0 117.897C0 96.2644 13.7037 77.2988 34.1482 70.4831C36.3704 63.7414 42.8148 59 50 59C57.1852 59 63.5556 63.6673 65.8519 70.4831C86.2963 77.2988 100 96.2644 100 117.897C100 145.53 77.5556 167.904 50 167.904ZM50 61.2225C43.6296 61.2225 37.926 65.5194 36.1482 71.6684C36.0741 72.0388 35.7778 72.3352 35.4074 72.4093C15.5556 78.7805 2.22222 97.0793 2.22222 117.897C2.22222 144.271 23.6296 165.681 50 165.681C76.3704 165.681 97.7778 144.271 97.7778 117.897C97.7778 97.0052 84.4445 78.7805 64.5926 72.4093C64.2222 72.2611 64 72.0388 63.8519 71.6684C62.0741 65.5194 56.3704 61.2225 50 61.2225Z" fill="url(#paint1_linear)"/>
<g clip-path="url(#clip0)">
<path d="M51.7657 82.6169V82.9493C51.7657 83.7886 51.0853 84.4689 50.2461 84.4689H50.1511V86.9728C50.1511 87.1752 49.9983 87.3519 49.7963 87.3648C49.575 87.379 49.3913 87.2039 49.3913 86.9857V84.4689H49.2963C48.4571 84.4689 47.7767 83.7886 47.7767 82.9493V82.6169C47.7767 82.4071 47.9468 82.237 48.1566 82.237H51.3858C51.5956 82.237 51.7657 82.4071 51.7657 82.6169ZM50.531 76.8235H49.0114C48.5925 76.8235 48.2516 77.1643 48.2516 77.5833C48.2516 78.0022 48.5925 78.3431 49.0114 78.3431H50.531C50.9499 78.3431 51.2908 78.0022 51.2908 77.5833C51.2908 77.1643 50.9499 76.8235 50.531 76.8235ZM52.1611 74.7141C53.0529 76.0494 54.7276 76.5743 56.196 76.0554C56.444 75.9678 56.7043 76.1496 56.7043 76.4126V79.5777C56.7043 80.6268 55.8539 81.4772 54.8049 81.4772H44.7376C43.6885 81.4772 42.8381 80.6268 42.8381 79.5777V66.4713C42.8381 65.4222 43.6885 64.5718 44.7376 64.5718H54.8049C55.8539 64.5718 56.7043 65.4222 56.7043 66.4713V68.3334C56.7043 68.6244 56.39 68.8082 56.1374 68.6637C55.8208 68.4825 55.4598 68.3802 55.0847 68.3734C54.8769 68.3697 54.7099 68.2017 54.7099 67.9939C54.7099 67.0349 53.9781 66.4238 53.1903 66.4238H46.3521C45.5129 66.4238 44.8325 67.1041 44.8325 67.9434V73.0245C44.8325 73.8637 45.5129 74.5441 46.3521 74.5441H51.8486C51.9749 74.5441 52.0911 74.6091 52.1611 74.7141ZM52.0506 77.5833C52.0506 76.7454 51.3689 76.0637 50.531 76.0637H49.0114C48.1735 76.0637 47.4918 76.7454 47.4918 77.5833C47.4918 78.4212 48.1735 79.1029 49.0114 79.1029H50.531C51.3689 79.1029 52.0506 78.4212 52.0506 77.5833ZM57.2656 71.2461L56.2314 69.7545C55.6567 68.9253 54.4279 68.9253 53.8532 69.7545L52.8189 71.2461C51.5724 73.0429 52.868 75.4924 55.0423 75.4924C57.2202 75.4924 58.5102 73.0401 57.2656 71.2461Z" fill="url(#paint2_linear)"/>
</g>
<defs>
<linearGradient id="paint0_linear" x1="50" y1="85.5222" x2="50" y2="152.494" gradientUnits="userSpaceOnUse">
<stop stop-color="#0089C9"/>
<stop offset="1" stop-color="#00BFFF"/>
</linearGradient>
<linearGradient id="paint1_linear" x1="50" y1="59" x2="50" y2="167.904" gradientUnits="userSpaceOnUse">
<stop stop-color="#0089C9"/>
<stop offset="1" stop-color="#00BFFF"/>
</linearGradient>
<linearGradient id="paint2_linear" x1="50.295" y1="64.5718" x2="50.295" y2="87.3656" gradientUnits="userSpaceOnUse">
<stop stop-color="#0089C9"/>
<stop offset="1" stop-color="#00BFFF"/>
</linearGradient>
<clipPath id="clip0">
<rect width="22.7939" height="22.7939" fill="white" transform="translate(38.898 64.5718)"/>
</clipPath>
</defs>
</svg>
