<svg width="198" height="299" viewBox="0 0 198 297" fill="none" xmlns="http://www.w3.org/2000/svg">
<path d="M123.003 134.36C117.3 141.235 108.818 145.622 99.1665 145.622C89.5148 145.622 81.033 141.235 75.3297 134.36C49.4456 144.014 30.8733 169.024 30.8733 198.275C30.8733 236.01 61.4371 266.578 99.1665 266.578C136.896 266.578 167.46 236.01 167.46 198.275C167.46 169.024 149.034 144.014 123.003 134.36ZM99.1665 245.078C73.2824 245.078 52.3703 224.163 52.3703 198.275C52.3703 172.388 73.2824 151.473 99.1665 151.473C125.051 151.473 145.963 172.388 145.963 198.275C145.963 224.163 125.051 245.078 99.1665 245.078Z" fill="url(#paint0_linear)"/>
<path d="M99.1666 297C44.766 297 0.455811 252.683 0.455811 198.275C0.455811 155.568 27.5099 118.126 67.8716 104.67C72.2588 91.3605 84.9815 82 99.1666 82C113.352 82 125.928 91.2143 130.462 104.67C170.823 118.126 197.877 155.568 197.877 198.275C197.877 252.83 153.713 297 99.1666 297ZM99.1666 86.3878C86.5901 86.3878 75.3298 94.8707 71.82 107.01C71.6738 107.741 71.0888 108.326 70.3577 108.473C31.1658 121.051 4.84296 157.177 4.84296 198.275C4.84296 250.343 47.1058 292.612 99.1666 292.612C151.227 292.612 193.49 250.343 193.49 198.275C193.49 157.031 167.167 121.051 127.976 108.473C127.244 108.18 126.806 107.741 126.513 107.01C123.15 94.8707 111.889 86.3878 99.1666 86.3878Z" fill="url(#paint1_linear)"/>
<g clip-path="url(#clip0)">
<path d="M110.26 109.677C109.887 109.677 109.514 109.534 109.229 109.25L97.9273 97.9477C97.3571 97.3775 97.3571 96.4559 97.9273 95.8857C98.4975 95.3155 99.4192 95.3155 99.9894 95.8857L111.291 107.188C111.862 107.758 111.862 108.68 111.291 109.25C111.007 109.534 110.634 109.677 110.26 109.677Z" fill="url(#paint2_linear)"/>
<path d="M110.99 110.042H105.885C105.443 110.042 105.044 109.775 104.875 109.366C104.706 108.958 104.799 108.487 105.112 108.175L110.217 103.071C110.53 102.759 111 102.664 111.408 102.833C111.816 103.002 112.083 103.402 112.083 103.844V108.948C112.083 109.552 111.593 110.042 110.99 110.042Z" fill="url(#paint3_linear)"/>
<path d="M113.542 116.24V124.625H104.792V116.24C104.792 115.233 105.608 114.417 106.615 114.417H111.719C112.725 114.417 113.542 115.233 113.542 116.24Z" fill="url(#paint4_linear)"/>
<path d="M101.875 110.406V124.625H93.125V110.406C93.125 109.4 93.9417 108.583 94.9479 108.583H100.052C101.058 108.583 101.875 109.4 101.875 110.406Z" fill="url(#paint5_linear)"/>
<path d="M90.2083 104.573V124.625H81.4583V104.573C81.4583 103.567 82.275 102.75 83.2812 102.75H88.3854C89.3916 102.75 90.2083 103.567 90.2083 104.573Z" fill="url(#paint6_linear)"/>
<path d="M113.906 129H81.0938C80.49 129 80 128.51 80 127.906C80 127.303 80.49 126.812 81.0938 126.812H113.906C114.51 126.812 115 127.303 115 127.906C115 128.51 114.51 129 113.906 129Z" fill="url(#paint7_linear)"/>
</g>
<path d="M143.323 7.39902C141.909 7.39902 140.763 6.25304 140.763 4.8394C140.763 3.42577 141.909 2.27979 143.323 2.27979C144.736 2.27979 145.882 3.42577 145.882 4.8394C145.882 6.25304 144.736 7.39902 143.323 7.39902Z" fill="#00BFFF"/>
<path d="M96.5 81.756L96.5 81.7528C96.5657 71.3716 104.975 62.8907 115.363 62.8907H125.6C134.59 62.8907 142.183 55.1267 142.183 45.9213V9.01293C140.367 8.50542 138.984 6.86566 138.984 4.83943C138.984 2.45167 140.935 0.5 143.323 0.5C145.71 0.5 147.662 2.45167 147.662 4.83943C147.662 6.86566 146.279 8.50542 144.463 9.01293V45.9213C144.463 56.3618 135.867 65.1705 125.6 65.1705H115.363C106.234 65.1705 98.7796 72.6255 98.7796 81.756C98.7796 82.0616 98.6756 82.3551 98.4573 82.5735C98.2389 82.7918 97.9454 82.8959 97.6398 82.8959C97.3342 82.8959 97.0407 82.7918 96.8224 82.5735C96.604 82.3551 96.5 82.0616 96.5 81.756ZM145.382 4.83943C145.382 3.70772 144.454 2.77981 143.323 2.77981C142.191 2.77981 141.263 3.70772 141.263 4.83943C141.263 5.97114 142.191 6.89905 143.323 6.89905C144.454 6.89905 145.382 5.97114 145.382 4.83943Z" fill="#333333" stroke="#333333"/>
<defs>
<linearGradient id="paint0_linear" x1="99.1665" y1="134.36" x2="99.1665" y2="266.578" gradientUnits="userSpaceOnUse">
<stop stop-color="#0089C9"/>
<stop offset="1" stop-color="#00BFFF"/>
</linearGradient>
<linearGradient id="paint1_linear" x1="99.1666" y1="82" x2="99.1666" y2="299" gradientUnits="userSpaceOnUse">
<stop stop-color="#0089C9"/>
<stop offset="1" stop-color="#00BFFF"/>
</linearGradient>
<linearGradient id="paint2_linear" x1="104.609" y1="95.458" x2="104.609" y2="109.677" gradientUnits="userSpaceOnUse">
<stop stop-color="#0089C9"/>
<stop offset="1" stop-color="#00BFFF"/>
</linearGradient>
<linearGradient id="paint3_linear" x1="108.437" y1="102.75" x2="108.437" y2="110.042" gradientUnits="userSpaceOnUse">
<stop stop-color="#0089C9"/>
<stop offset="1" stop-color="#00BFFF"/>
</linearGradient>
<linearGradient id="paint4_linear" x1="109.167" y1="114.417" x2="109.167" y2="124.625" gradientUnits="userSpaceOnUse">
<stop stop-color="#0089C9"/>
<stop offset="1" stop-color="#00BFFF"/>
</linearGradient>
<linearGradient id="paint5_linear" x1="97.5" y1="108.583" x2="97.5" y2="124.625" gradientUnits="userSpaceOnUse">
<stop stop-color="#0089C9"/>
<stop offset="1" stop-color="#00BFFF"/>
</linearGradient>
<linearGradient id="paint6_linear" x1="85.8333" y1="102.75" x2="85.8333" y2="124.625" gradientUnits="userSpaceOnUse">
<stop stop-color="#0089C9"/>
<stop offset="1" stop-color="#00BFFF"/>
</linearGradient>
<linearGradient id="paint7_linear" x1="97.5" y1="126.812" x2="97.5" y2="129" gradientUnits="userSpaceOnUse">
<stop stop-color="#0089C9"/>
<stop offset="1" stop-color="#00BFFF"/>
</linearGradient>
<clipPath id="clip0">
<rect width="35" height="35" fill="white" transform="translate(80 94)"/>
</clipPath>
</defs>
</svg>
