<svg width="100" height="169" viewBox="0 0 100 169" fill="none" xmlns="http://www.w3.org/2000/svg">
<path d="M17.6598 5.43363C16.6805 5.43363 15.8866 4.63963 15.8866 3.66017C15.8866 2.68072 16.6805 1.88672 17.6598 1.88672C18.6391 1.88672 19.433 2.68072 19.433 3.66017C19.433 4.63963 18.6391 5.43363 17.6598 5.43363Z" fill="#00BFFF"/>
<path d="M14.5 3.66018C14.5 1.92101 15.9207 0.5 17.6598 0.5C19.3989 0.5 20.8196 1.92101 20.8196 3.66018C20.8196 5.09538 19.8681 6.26228 18.6031 6.66613V32.1242C18.6031 38.4207 23.7983 43.728 29.9393 43.728H37.0321C44.3125 43.728 50.2549 49.6713 50.2549 56.9525C50.2549 57.1992 50.1706 57.4435 49.9866 57.6275C49.8026 57.8115 49.5583 57.8959 49.3116 57.8959C49.065 57.8959 48.8206 57.8115 48.6367 57.6275C48.4527 57.4435 48.3683 57.1992 48.3683 56.9525C48.3683 50.7112 43.2725 45.6147 37.0321 45.6147H29.9393C22.783 45.6147 16.7165 39.4408 16.7165 32.1242V6.66944C15.4142 6.26711 14.5 5.09237 14.5 3.66018ZM17.6598 4.93364C18.3589 4.93364 18.933 4.35951 18.933 3.66018C18.933 2.96086 18.3589 2.38673 17.6598 2.38673C16.9608 2.38673 16.3866 2.96086 16.3866 3.66018C16.3866 4.36774 16.9246 4.93364 17.6598 4.93364Z" fill="#333333" stroke="#333333"/>
<path d="M62.074 86.5222C59.1851 90.0042 54.8888 92.2267 49.9999 92.2267C45.1111 92.2267 40.8148 90.0042 37.9259 86.5222C24.8148 91.4118 15.4073 104.08 15.4073 118.897C15.4073 138.011 30.8888 153.494 49.9999 153.494C69.111 153.494 84.5925 138.011 84.5925 118.897C84.5925 104.08 75.2592 91.4118 62.074 86.5222ZM49.9999 142.604C36.8888 142.604 26.2962 132.01 26.2962 118.897C26.2962 105.784 36.8888 95.1901 49.9999 95.1901C63.1111 95.1901 73.7036 105.784 73.7036 118.897C73.7036 132.01 63.1111 142.604 49.9999 142.604Z" fill="url(#paint0_linear)"/>
<path d="M50 168.904C22.4444 168.904 0 146.456 0 118.897C0 97.2644 13.7037 78.2988 34.1482 71.4831C36.3704 64.7414 42.8148 60 50 60C57.1852 60 63.5555 64.6673 65.8518 71.4831C86.2963 78.2988 100 97.2644 100 118.897C100 146.53 77.6296 168.904 50 168.904ZM50 62.2225C43.6296 62.2225 37.9259 66.5194 36.1481 72.6684C36.0741 73.0388 35.7778 73.3352 35.4074 73.4092C15.5555 79.7805 2.22222 98.0793 2.22222 118.897C2.22222 145.271 23.6296 166.681 50 166.681C76.3704 166.681 97.7778 145.271 97.7778 118.897C97.7778 98.0052 84.4445 79.7805 64.5926 73.4092C64.2222 73.2611 64 73.0388 63.8519 72.6684C62.1482 66.5194 56.4444 62.2225 50 62.2225Z" fill="url(#paint1_linear)"/>
<g clip-path="url(#clip0)">
<path d="M55.6193 74.0193C55.4302 74.0193 55.2411 73.9469 55.097 73.8029L49.3722 68.078C49.0834 67.7892 49.0834 67.3223 49.3722 67.0335C49.661 66.7447 50.1279 66.7447 50.4167 67.0335L56.1416 72.7584C56.4304 73.0472 56.4304 73.514 56.1416 73.8029C55.9975 73.9469 55.8084 74.0193 55.6193 74.0193Z" fill="url(#paint2_linear)"/>
<path d="M55.9887 74.2038H53.4033C53.1794 74.2038 52.977 74.0687 52.8913 73.8618C52.8057 73.655 52.8529 73.4164 53.0118 73.2583L55.5972 70.6729C55.756 70.5148 55.9938 70.4668 56.2007 70.5525C56.4075 70.6382 56.5427 70.8406 56.5427 71.0644V73.6498C56.5427 73.9556 56.2945 74.2038 55.9887 74.2038Z" fill="url(#paint3_linear)"/>
<path d="M57.2814 77.3433V81.5908H52.8492V77.3433C52.8492 76.8336 53.2629 76.4199 53.7726 76.4199H56.358C56.8677 76.4199 57.2814 76.8336 57.2814 77.3433Z" fill="url(#paint4_linear)"/>
<path d="M51.3718 74.3887V81.5909H46.9397V74.3887C46.9397 73.879 47.3534 73.4653 47.8631 73.4653H50.4485C50.9582 73.4653 51.3718 73.879 51.3718 74.3887Z" fill="url(#paint5_linear)"/>
<path d="M45.4623 71.4339V81.5908H41.0302V71.4339C41.0302 70.9242 41.4438 70.5105 41.9535 70.5105H44.5389C45.0486 70.5105 45.4623 70.9242 45.4623 71.4339Z" fill="url(#paint6_linear)"/>
<path d="M57.466 83.807H40.8455C40.5397 83.807 40.2915 83.5588 40.2915 83.253C40.2915 82.9472 40.5397 82.699 40.8455 82.699H57.466C57.7719 82.699 58.0201 82.9472 58.0201 83.253C58.0201 83.5588 57.7719 83.807 57.466 83.807Z" fill="url(#paint7_linear)"/>
</g>
<defs>
<linearGradient id="paint0_linear" x1="49.9999" y1="86.5222" x2="49.9999" y2="153.494" gradientUnits="userSpaceOnUse">
<stop stop-color="#0089C9"/>
<stop offset="1" stop-color="#00BFFF"/>
</linearGradient>
<linearGradient id="paint1_linear" x1="50" y1="60" x2="50" y2="168.904" gradientUnits="userSpaceOnUse">
<stop stop-color="#0089C9"/>
<stop offset="1" stop-color="#00BFFF"/>
</linearGradient>
<linearGradient id="paint2_linear" x1="52.7569" y1="66.8169" x2="52.7569" y2="74.0193" gradientUnits="userSpaceOnUse">
<stop stop-color="#0089C9"/>
<stop offset="1" stop-color="#00BFFF"/>
</linearGradient>
<linearGradient id="paint3_linear" x1="54.6959" y1="70.5105" x2="54.6959" y2="74.2038" gradientUnits="userSpaceOnUse">
<stop stop-color="#0089C9"/>
<stop offset="1" stop-color="#00BFFF"/>
</linearGradient>
<linearGradient id="paint4_linear" x1="55.0653" y1="76.4199" x2="55.0653" y2="81.5908" gradientUnits="userSpaceOnUse">
<stop stop-color="#0089C9"/>
<stop offset="1" stop-color="#00BFFF"/>
</linearGradient>
<linearGradient id="paint5_linear" x1="49.1558" y1="73.4653" x2="49.1558" y2="81.5909" gradientUnits="userSpaceOnUse">
<stop stop-color="#0089C9"/>
<stop offset="1" stop-color="#00BFFF"/>
</linearGradient>
<linearGradient id="paint6_linear" x1="43.2462" y1="70.5105" x2="43.2462" y2="81.5908" gradientUnits="userSpaceOnUse">
<stop stop-color="#0089C9"/>
<stop offset="1" stop-color="#00BFFF"/>
</linearGradient>
<linearGradient id="paint7_linear" x1="49.1558" y1="82.699" x2="49.1558" y2="83.807" gradientUnits="userSpaceOnUse">
<stop stop-color="#0089C9"/>
<stop offset="1" stop-color="#00BFFF"/>
</linearGradient>
<clipPath id="clip0">
<rect width="17.7286" height="17.7286" fill="white" transform="translate(40.2915 66.0784)"/>
</clipPath>
</defs>
</svg>
