<svg width="219" height="299" viewBox="0 0 219 299" fill="none" xmlns="http://www.w3.org/2000/svg">
<path d="M122.755 136.36C117.051 143.235 108.569 147.622 98.9176 147.622C89.2659 147.622 80.7841 143.235 75.0808 136.36C49.1966 146.014 30.6244 171.024 30.6244 200.275C30.6244 238.01 61.1881 268.578 98.9176 268.578C136.647 268.578 167.211 238.01 167.211 200.275C167.065 171.024 148.639 146.014 122.755 136.36ZM98.9176 247.078C73.0334 247.078 52.1214 226.163 52.1214 200.275C52.1214 174.388 73.0334 153.473 98.9176 153.473C124.802 153.473 145.714 174.388 145.714 200.275C145.714 226.163 124.802 247.078 98.9176 247.078Z" fill="url(#paint0_linear)"/>
<path d="M98.9177 299C44.5171 299 0.206909 254.683 0.206909 200.275C0.206909 157.568 27.261 120.126 67.6228 106.67C72.0099 93.3605 84.7326 84 98.9177 84C113.103 84 125.679 93.2143 130.213 106.67C170.574 120.126 197.628 157.568 197.628 200.275C197.628 254.83 153.318 299 98.9177 299ZM98.9177 88.3878C86.3412 88.3878 75.0809 96.8707 71.5712 109.01C71.425 109.741 70.84 110.326 70.1088 110.473C30.917 123.051 4.59405 159.177 4.59405 200.275C4.59405 252.343 46.8569 294.612 98.9177 294.612C150.978 294.612 193.241 252.343 193.241 200.275C193.241 159.031 166.918 123.051 127.727 110.473C126.995 110.18 126.557 109.741 126.264 109.01C122.755 96.8707 111.494 88.3878 98.9177 88.3878Z" fill="url(#paint1_linear)"/>
<g clip-path="url(#clip0)">
<path d="M102.404 130.625V131.281C102.404 132.938 101.06 134.281 99.4036 134.281H99.2161V139.224C99.2161 139.624 98.9144 139.973 98.5157 139.998C98.0788 140.026 97.7161 139.681 97.7161 139.25V134.281H97.5286C95.8717 134.281 94.5286 132.938 94.5286 131.281V130.625C94.5286 130.211 94.8644 129.875 95.2786 129.875H101.654C102.068 129.875 102.404 130.211 102.404 130.625ZM99.9661 119.188H96.9661C96.139 119.188 95.4661 119.86 95.4661 120.688C95.4661 121.515 96.139 122.188 96.9661 122.188H99.9661C100.793 122.188 101.466 121.515 101.466 120.688C101.466 119.86 100.793 119.188 99.9661 119.188ZM103.184 115.023C104.945 117.659 108.251 118.695 111.15 117.671C111.64 117.498 112.154 117.857 112.154 118.376V124.625C112.154 126.696 110.475 128.375 108.404 128.375H88.5286C86.4575 128.375 84.7786 126.696 84.7786 124.625V98.75C84.7786 96.679 86.4575 95 88.5286 95H108.404C110.475 95 112.154 96.679 112.154 98.75V102.426C112.154 103.001 111.533 103.364 111.034 103.078C110.409 102.721 109.697 102.519 108.956 102.505C108.546 102.498 108.216 102.166 108.216 101.756C108.216 99.8627 106.771 98.6562 105.216 98.6562H91.7161C90.0592 98.6562 88.7161 99.9994 88.7161 101.656V111.688C88.7161 113.344 90.0592 114.688 91.7161 114.688H102.567C102.817 114.688 103.046 114.816 103.184 115.023ZM102.966 120.688C102.966 119.033 101.62 117.688 99.9661 117.688H96.9661C95.3118 117.688 93.9661 119.033 93.9661 120.688C93.9661 122.342 95.3118 123.688 96.9661 123.688H99.9661C101.62 123.688 102.966 122.342 102.966 120.688ZM113.262 108.177L111.22 105.232C110.085 103.595 107.659 103.595 106.525 105.232L104.483 108.177C102.022 111.724 104.58 116.56 108.872 116.56C113.172 116.56 115.719 111.718 113.262 108.177Z" fill="url(#paint2_linear)"/>
</g>
<path d="M213.167 7.39902C211.754 7.39902 210.608 6.25304 210.608 4.8394C210.608 3.42577 211.754 2.27979 213.167 2.27979C214.58 2.27979 215.726 3.42577 215.726 4.8394C215.726 6.25304 214.58 7.39902 213.167 7.39902Z" fill="#00BFFF"/>
<path d="M116.363 62.8907H195.508C204.644 62.8907 212.091 55.5564 212.091 46.5612V9.01293C210.275 8.50542 208.892 6.86566 208.892 4.83943C208.892 2.45167 210.843 0.5 213.231 0.5C215.619 0.5 217.57 2.45167 217.57 4.83943C217.57 6.86566 216.187 8.50542 214.371 9.01293V46.5612C214.371 56.8267 205.886 65.1706 195.508 65.1706H116.363C107.379 65.1706 99.7797 73.0554 99.7797 82.3959C99.7797 82.7015 99.6757 82.995 99.4573 83.2134C99.239 83.4318 98.9455 83.5358 98.6399 83.5358C98.3343 83.5358 98.0408 83.4318 97.8224 83.2134C97.6041 82.995 97.5001 82.7015 97.5001 82.3959C97.5001 71.8341 106.089 62.8907 116.363 62.8907ZM215.226 4.83943C215.226 3.70772 214.298 2.77981 213.167 2.77981C212.036 2.77981 211.108 3.70772 211.108 4.83943C211.108 5.97114 212.036 6.89905 213.167 6.89905C214.298 6.89905 215.226 5.97114 215.226 4.83943Z" fill="#333333" stroke="#333333"/>
<defs>
<linearGradient id="paint0_linear" x1="98.9177" y1="136.36" x2="98.9177" y2="268.578" gradientUnits="userSpaceOnUse">
<stop stop-color="#0089C9"/>
<stop offset="1" stop-color="#00BFFF"/>
</linearGradient>
<linearGradient id="paint1_linear" x1="98.9177" y1="84" x2="98.9177" y2="299" gradientUnits="userSpaceOnUse">
<stop stop-color="#0089C9"/>
<stop offset="1" stop-color="#00BFFF"/>
</linearGradient>
<linearGradient id="paint2_linear" x1="99.5001" y1="95" x2="99.5001" y2="140" gradientUnits="userSpaceOnUse">
<stop stop-color="#0089C9"/>
<stop offset="1" stop-color="#00BFFF"/>
</linearGradient>
<clipPath id="clip0">
<rect width="45" height="45" fill="white" transform="translate(77 95)"/>
</clipPath>
</defs>
</svg>
