<svg xmlns="http://www.w3.org/2000/svg" viewBox="0 0 1169 651"><path d="M542.7 33c-.7 14.3-11.7 24.6-28.2 26.3-1 0-2-.1-3-.1-12.5-.7-24.2-11.9-26-24.1V24c3-11.8 11.3-18.5 22-22.9h12C523 2.7 526.6 4 530 5.8c6.2 3.4 9.3 9.5 12.5 15.5.3 3.6.7 7.1 1 10.7l.1.3c-.3.2-.6.4-.9.7z" fill="#018f96"/><path d="M514.6 289.7c14.3.4 23 8 28 20.9.6 1.6 3.6 2.8 5.8 3.2 12.8 2.6 25.9 4.1 38.6 7.4 31.8 8.4 60.2 23.6 85.7 44.4 21.9 17.8 40.8 38.6 59.6 59.5 20.2 22.6 44.6 39.2 72.1 51.7 41.3 18.7 84.9 29.8 129.3 37.8 26.4 4.8 53.1 7.9 79.8 11.4 17.7 2.3 35.5 4.1 53.3 5.8 8.6.8 17.3.7 25.9 1.1 23.3 1.2 46.7 2.4 70.6 3.6.1 1.5.1 3.3.3 5 .5 4-1.5 5.5-5.2 5.3-7-.3-13.9-.7-20.9-1-23.4-1-46.8-1.3-70.2-3.2-27.1-2.2-54.1-5.6-81-8.7-39-4.6-77.4-12-115.3-22.2-38.4-10.3-75.5-23.7-109-45.8-15.8-10.5-28.8-23.9-41.8-37.6-15-15.8-30.3-31.3-46-46.5-13.2-12.8-28.3-23-44.5-31.7-21.4-11.5-44-19.5-68-23.4-4.9-.8-9.9-1.3-14.8-2-2.7-.4-4.1.6-5.1 3.3-4.7 12.5-14.1 18.9-27.3 19.8h-2c-10.3-1.5-18.6-6-23.8-15.3-1.5-2.6-2.6-6.5-4.8-7.3-2.7-1-6.5.3-9.7.9-33.5 6.2-63.4 20.7-90.9 40.4-29.9 21.3-55.7 47.4-82.9 71.8-20.2 18.1-40.3 36.3-61.4 53.2-36.5 29.2-76.9 51.8-121.8 65.8-10.9 3.4-22 6.3-32.9 9.5-1.7.6-3.3 1.2-5 1.8-4.9.4-9.8.9-14.7 1.3v-2c18.4-5.2 35.6-13.3 52-23 1.4-.2 2.9-.1 4.2-.5 29.5-10 57-24 83-41 29.9-19.6 56.6-43.1 82.9-67.1 20.1-18.4 40-37.1 60.4-55.2 23.2-20.5 48.3-38.1 76.7-50.7 18.3-8.1 37.4-13.7 57.3-16.3 3.2-.4 4.5-1.4 5.5-4.3 4.2-11.7 12.4-18.6 24.9-20.1h3.1z" fill="#bdbebe"/><path d="M116.6 545c-16.4 9.8-33.6 17.8-52 23-1-3.6-2-7.3-3-10.9 21.5-5.8 40.9-15.9 59.1-28.4 25.1-17.2 46-38.8 64.9-62.4 28.2-35.4 51.3-74.2 71.5-114.5 28.6-57 56.1-114.6 84.4-171.7 16-32.2 33.9-63.3 55.8-91.9C415.8 64.3 436.7 43 465 30.6c6.6-2.9 13.7-4.5 20.5-6.7V35c-2.2.6-4.4 1.2-6.6 1.9-30.5 10.2-52.1 31.9-71.4 56.2-18.6 23.3-33.8 49-47.6 75.3-16.7 32-32.2 64.7-48.3 97.1-18.9 38-37.7 76.2-57.1 114-16 31.2-35 60.6-56.4 88.5-14.5 19-30.3 36.8-48.7 52-10.5 8.9-21.9 16.7-32.8 25z" fill="#06adb5"/><path d="M543.5 31.9c-.3-3.6-.7-7.1-1-10.7 1.8 0 3.7-.1 5.5-.1h608.6c2 0 4 .1 6 .2.3.2.5.5.8.7v9c-.3.3-.5.6-.8.9-2 .1-4 .2-6 .2H549c-1.9 0-3.7-.2-5.5-.2z" fill="#00abb3"/><path d="M61.5 557.1c1 3.6 2 7.3 3 10.9v2c-1.4 15.2-11.9 26.8-25.2 27.9-15.6 1.3-28.1-6.8-32.2-20.9-4.8-16.6 6.3-34 23.3-36.3 1-.2 2-.4 3.1-.6 12.6.3 22.6 4.9 28 17z" fill="#7adee3"/><path d="M79.3 568.8c1.7-.6 3.3-1.2 5-1.8 141.1 0 282.2 0 423.3.1 4.6 0 5-1.9 5-5.6-.1-71.1-.1-142.3-.1-213.4h2v212.5c0 6.5 0 6.5 6.5 6.5h640.8c.1.4.1.8.2 1.2-.9.3-1.8.7-2.7.8-1.3.1-2.7 0-4 0H86.3c-2.4-.1-4.7-.2-7-.3z" fill="#e8e8e8"/><path d="M33.5 540.2c-1 .2-2 .4-3.1.6V61c0-1.6.4-3.3.6-5 1 .2 1.1.3 1.3.3.2.1.3.1.4.2.1.1.2.2.3.4l.3.9c.1.3.1.7.1 1v2c.1 159.9.1 319.6.1 479.4z" fill="#ededed"/><path d="M514.6 289.7c-1.1 0-2.1.1-3.2.1 0-76.9 0-153.7.1-230.6 1 0 2 .1 3 .1.1 76.8.1 153.6.1 230.4z" fill="#eee"/><path d="M1163.3 22c-.3-.2-.5-.5-.8-.7.3.2.5.5.8.7zm-.8 9.9c.3-.3.5-.6.8-.9-.3.3-.5.6-.8.9z" fill="#22b6bd"/><path d="M542.7 33c.3-.3.6-.5.9-.8-.3.3-.6.5-.9.8z" fill="#dbf3f4"/></svg>