<svg width="233" height="398" viewBox="0 0 233 398" fill="none" xmlns="http://www.w3.org/2000/svg">
<path d="M71.6927 245.131C83.9296 243.894 94.2191 243.466 112.115 244.788C122.358 245.544 130.411 246.695 140.163 247.675C138.926 243.825 138.85 240.983 138.651 237.02C138.496 233.943 139.922 231.245 138.909 226.261C137.004 219.074 135.347 205.926 135.222 205.059C134.668 201.201 133.568 194.707 134.487 189.912C131.261 191.28 129.421 195.16 127.286 197.705C123.549 202.157 119.697 206.189 115.376 209.173C103.178 217.607 89.4311 224.735 75.6855 231.527C69.1453 234.759 59.7298 238.166 55.2483 243.29C54.1235 244.575 54.0992 245.748 53.2693 247.331C59.7014 246.443 64.8734 245.821 71.6927 245.131V245.131ZM177.63 2.39157C177.71 2.40931 176.2 1.7543 174.845 1.56663C171.374 1.08569 168.074 1.80751 165.29 2.83869C161.283 4.32235 157.588 7.46292 156.593 11.8009C156.224 13.4132 156.654 12.578 156.722 12.4456C158.475 9.04268 160.89 5.72599 165.736 3.97298C169.665 2.55161 173.533 1.48579 177.63 2.39157V2.39157ZM201.278 181.473C201.278 178.38 204.298 176.89 204.646 174.942C205.092 172.444 203.852 169.791 202.731 168.647C202.698 168.73 202.665 168.814 202.632 168.898C203.277 170.133 203.968 172.437 203.478 174.392C203.23 175.381 200.109 178.723 201.278 181.473ZM206.534 181.957C208.58 180.655 210.117 178.861 211.156 176.65L212.043 175.26L210.055 176.59C210.084 176.697 208.337 178.841 207.482 179.695C206.459 180.725 203.816 182.865 203.816 182.865C203.816 182.865 205.98 182.312 206.534 181.957ZM211.509 166.707C211.083 166.095 209.798 163.813 209.115 163.118C208.942 163.939 212.541 167.947 211.375 171.608C211.082 172.526 211.014 173.078 209.691 174.649C214.837 173.071 213.646 169.786 211.509 166.707ZM213.721 160.231C214.455 161.536 215.855 162.276 216.606 163.51C217.324 164.691 216.731 167.541 216.738 167.529C217.965 165.177 217.65 162.863 216.811 161.318C216.101 160.01 215.058 159.378 214.17 158.342C213.445 157.498 212.958 156.644 212.335 155.687C212.304 157.713 212.934 158.826 213.721 160.231V160.231ZM217.747 156.136C212.632 150.429 220.822 144.581 216.675 137.437C215.68 135.723 216.49 137.43 216.541 137.515C220.171 143.586 210.782 148.768 217.669 156.213C217.717 156.266 217.794 156.189 217.747 156.136V156.136ZM218.809 128.75C219.017 128.887 220.19 129.496 219.01 128.646C214.848 125.64 211.711 121.762 212.54 116.599C213.055 113.405 215.511 110.986 215.595 107.637C215.597 107.588 215.506 107.574 215.499 107.623C214.791 111.488 210.373 114.964 211.062 119.078C211.771 123.295 214.759 126.143 218.809 128.75ZM222.039 136.514C224.118 140.484 221.613 145.616 220.681 149.18C220.007 151.781 220.138 155.712 221.748 157.271C221.985 157.501 222.466 158.342 222.466 158.342C222.472 155.522 220.874 153.214 221.508 149.797C222.541 144.277 226.721 140.033 222.123 134.772C221.375 133.916 220.68 133.47 219.16 133.171C220.664 134.383 221.719 135.903 222.039 136.514ZM223.275 154.459H223.348C223.725 150.542 225.866 148.29 227.092 145.337C227.686 143.895 227.581 141.531 226.801 140.415C226.883 145.712 222.054 148.619 223.275 154.459ZM223.838 113.469C226.168 110.515 226.376 106.421 224.242 102.342C225.819 108.83 223.973 111.404 220.704 114.017C219.197 115.22 217.296 117.824 217.941 120.277C218.292 121.611 218.677 122.57 219.675 124.112C219.702 124.15 220.19 124.73 219.823 124.045C218.929 122.383 218.864 119.781 219.382 118.739C220.636 116.216 222.878 114.689 223.838 113.469ZM222.11 69.6596C222.351 64.2141 220.887 58.6486 215.391 56.8601C215.031 56.9224 215.031 56.9253 214.675 56.9822C217.361 58.4259 219.687 63.239 219.085 67.8067C218.856 69.5111 217.657 71.8333 218.067 73.8045C218.566 75.2951 219.058 76.7871 219.543 78.2781C219.572 78.4081 219.57 78.5298 219.585 78.6564C220.639 75.569 221.989 72.3369 222.11 69.6596ZM215.935 71.0121C219.488 67.6129 217.044 61.755 215.501 60.381C216.33 61.9348 218.108 64.7565 215.935 71.0121V71.0121ZM217.378 86.3007C217.389 86.3106 217.405 86.3193 217.415 86.3288C217.815 83.8626 218.334 79.1023 217.596 78.2117C215.501 75.6746 213.605 73.8717 213.884 71.0121C212.581 73.5092 214.807 76.9302 215.977 78.0298C217.234 79.2091 217.483 83.764 217.378 86.3007V86.3007ZM212.101 38.7011C212.417 39.6572 212.203 38.48 212.371 37.9124C212.966 35.8876 213.343 34.5842 213.236 32.4723C213.106 29.8622 212.042 27.7693 210.346 25.8229C209.858 25.2615 209.448 25.212 209.966 25.8839C211.465 27.8254 212.071 31.0101 212.198 33.355C212.296 35.1389 211.526 36.9745 212.101 38.7011V38.7011ZM218.825 41.0315C219.175 37.7099 218.411 33.8025 217.02 30.6756C215.894 28.1422 211.968 17.5499 205.575 15.5907C212.896 21.8809 214.501 28.8591 215.348 31.9584C216.982 37.9376 213.823 43.1079 215.157 49.0595C215.229 49.3791 215.406 49.7982 215.654 50.2866C216.647 47.0495 218.442 44.6625 218.825 41.0315V41.0315ZM153.321 15.9037C149.53 14.0439 145.72 19.1383 145.354 22.2933C145.348 22.3367 145.42 22.3457 145.43 22.3037C146.059 19.3681 150.281 15.1456 153.835 16.2094C153.963 16.2477 153.44 15.9619 153.321 15.9037V15.9037ZM143.085 61.8494C142.958 61.1185 142.858 60.4012 142.788 59.6983C142.025 63.5558 142.418 70.8252 146.645 74.9924C145.352 73.1986 144.21 69.5338 143.8 67.7605C143.454 66.2657 143.205 64.0037 143.085 61.8494ZM139.377 41.4869C138.915 43.8025 138.017 46.0851 137.625 48.3971C137.215 50.8216 137.52 52.5407 138.001 54.3849C138.457 53.4973 138.972 52.714 139.525 52.1126C139.171 52.0025 138.802 45.6496 140.024 38.4437C139.774 39.5322 139.562 40.5613 139.377 41.4869V41.4869ZM0.416363 276.083C6.85464 274.385 24.2073 266.309 27.3157 261.819C33.2871 253.202 35.6691 238.057 44.3669 231.047C46.063 229.681 47.8011 228.83 49.6626 227.703C54.5661 223.851 59.6832 220.041 64.3631 215.939C67.0108 213.048 69.6568 210.155 72.3024 207.264C80.5279 197.054 87.8641 189.779 94.9442 182.999C102.493 175.49 113.192 168.968 114.644 168.001C117.141 165.158 119.641 162.315 122.14 159.472C126.983 153.306 132.178 147.169 137.282 141.238C141.028 136.883 144.469 131.069 147.12 125.82C147.258 125.485 153.856 110.847 160.366 102.27C159.188 96.6356 158.01 90.998 156.834 85.3578C154.365 84.2858 152.213 82.1892 150.368 79.5271C150.397 82.2597 151.143 84.968 151.619 87.5621C152.316 91.3519 153.315 94.9503 153.741 98.7809C154.287 103.674 153.859 110.89 150.645 114.96C148.926 117.136 143.012 121.117 140.022 118.507C138.182 116.902 137.455 112.9 140.704 112.677C139.664 113.173 138.943 114.326 139.274 115.577C140.151 118.891 143.413 118.864 146.277 116.956C147.291 116.412 148.176 115.713 148.931 114.859C150.543 113.241 151.266 110.913 151.824 108.766C152.72 105.315 152.498 101.549 152.12 98.0409C151.609 93.3189 150.569 88.5516 149.677 83.8857C149.335 82.0927 149.044 80.2869 149.264 78.5351C148.83 78.0694 148.387 77.4313 147.937 76.5165C145.512 78.8342 150.54 91.0095 149.196 99.3039C148.554 103.276 146.891 107.119 141.893 106.076C138.22 105.317 137.664 100.338 140.727 98.6963C143.581 97.1656 145.585 99.1377 143.998 101.263C144.121 98.6963 141.674 99.7642 141.188 100.443C138.393 104.351 144.882 108.267 147.618 101.389C147.719 100.999 147.824 100.599 147.922 100.201C148.135 99.1831 148.243 98.1589 148.254 97.1215C148.06 93.4245 147.414 91.1543 146.681 87.5406C145.468 81.5627 144.356 79.5164 144.862 75.3249C141.613 71.5565 141.301 68.729 140.144 63.8342C140.026 63.3339 139.697 61.6205 139.505 59.2393C138.717 61.0195 137.935 63.0476 138.017 64.7511C138.138 67.3654 139.452 69.2413 140.526 71.547C141.347 73.3021 142.303 75.7777 141.605 77.8525C140.781 80.3244 136.24 81.2323 136.486 77.6582C136.517 77.2457 136.952 77.9684 137.203 78.338C138.709 80.5529 142.006 77.8913 140.216 74.6641C139.385 73.1614 138.257 71.7735 137.459 70.2927C136.723 68.9249 135.884 65.1888 135.81 63.6292C135.707 61.4213 136.311 58.3661 137.357 55.7951C134.975 50.9296 136.827 46.6032 138.121 41.1709C139.388 35.8542 137.269 35.6987 139.687 30.5139C145.35 18.372 148.344 13.0144 154.255 13.2891C157.483 4.25389 166.902 0.124647 173.841 0.0190544C181.868 -0.0989126 194.266 0.0264597 205.368 9.81607C211.695 15.3939 217.291 24.7174 218.567 28.3773C219.853 32.0768 221.553 38.7922 220.68 42.733C220.164 45.0746 219.341 46.5681 218.348 48.7093C217.228 52.1126 219.752 55.2956 222.657 52.3749C223.041 51.9892 223.421 51.1523 223.658 50.3674C223.946 49.9995 224.204 50.8517 224.229 51.3264C224.457 55.1113 221.178 55.8908 218.555 55.0003C221.004 57.3576 223.166 61.1263 223.61 63.1495C224.254 66.0999 224.079 69.1064 223.646 72.0816C223.425 73.5945 222.842 75.2353 222.253 76.6608C221.926 77.4474 217.307 87.6854 222.479 87.6272C224.649 87.6021 225.368 82.3847 222.485 82.4796C223.963 81.401 225.262 81.9186 225.839 82.7118C227.51 85.0233 226.042 89.431 224.023 90.6164C222.952 91.2459 221.557 91.3077 220.414 91.125C221.534 93.0088 222.76 94.8715 223.813 96.2817C225.786 98.9261 227.981 101.194 228.706 104.381C229.645 108.512 229.078 112.791 227.016 116.566C225.128 120.018 222.501 123.57 224.005 127.539C225.24 130.806 228.517 132.067 229.403 136.812C229.787 138.871 229.807 140.696 228.669 143.974C228.071 145.697 225.612 150.903 224.764 153.466C223.233 158.118 222.58 163.66 227.043 166.472C227.299 166.631 228.38 167.414 230.237 167.009C229.521 168.316 227.297 168.079 225.963 167.269C223.102 165.534 222.58 163.06 222.55 161.255C222.219 162.93 222.608 164.969 218.784 170.768C217.82 172.233 218.006 173.597 219.26 174.829C220.643 176.192 222.155 176.72 224.123 177.05C226.017 177.368 228.069 177.65 232.009 176.634C231.713 177.367 228.604 179.163 225.873 179.405C224.077 179.566 221.703 179.261 220.042 178.66C220.042 178.66 223.082 181.187 226.283 180.859C226.31 181.388 222.799 181.932 221.214 181.813C217.829 181.55 216.229 180.753 214.415 178.362C214.028 177.863 213.786 177.846 213.675 178.097C212.97 179.65 212.402 180.554 210.974 181.813C208.838 183.695 198.975 191.407 207.224 196.15C201.037 195.841 200.54 190.591 198.67 188.709C197.743 193.43 197.084 199.931 197.706 204.323C198.734 211.584 199.904 214.758 201.965 218.665C209.533 233.009 219.289 239.975 223.826 258.124C226.314 268.075 225.822 282.289 223.872 288.583C219.611 302.346 214.077 307.941 201.013 311.204C202.007 312.496 202.803 313.623 203.47 314.871C203.821 315.265 204.129 315.638 204.367 315.941C207.665 320.155 209.012 322.133 210.271 330.267C210.383 331.007 210.294 333.486 210.021 334.528C208.983 338.468 207.644 342.213 206.684 346.573C205.522 351.834 204.982 356.097 204.314 362.919C203.904 367.13 203.729 379.414 203.131 392.059C202.021 392.37 201.163 392.355 198.931 392.17C198.939 390.339 198.928 388.385 198.899 386.429C197.862 386.695 196.981 386.678 194.857 386.501C194.875 382.51 194.804 377.932 194.641 374.024C194.404 368.238 194.21 356.507 194.21 353.808C194.135 352.435 194.042 351.16 193.932 349.94C193.226 350.955 192.362 352.326 191.289 354.209C189.088 358.069 186.826 362.203 185.26 366.681C184.507 370.444 183.542 373.05 182.999 377.973C182.797 380.156 182.411 383.423 182.185 386.467C181.863 390.83 181.84 394.746 178.478 396.684C173.593 399.503 159.963 397.053 154.365 396.147C151.969 395.761 147.684 394.525 147.183 393.179C147.006 392.704 146.615 391.282 146.133 389.403C144.637 388.868 143.368 388.204 143.108 387.509C142.505 385.889 139.402 373.222 138.662 368.862C138.419 367.428 138.703 364.711 139.202 363.808C140.724 361.039 146.913 359.429 149.859 357.788C151.013 357.143 154.94 355.287 155.88 354.904C156.289 354.736 156.651 354.672 156.979 354.671C156.36 351.714 155.297 346.4 154.608 340.487C153.629 332.082 154.423 326.839 149.15 322.554C146.45 320.362 133.513 318.687 105.086 314.316C92.3407 312.845 77.9268 312.549 56.7188 303.289C54.9501 302.516 49.7888 301.41 48.0589 300.583C45.4253 299.32 43.238 298.175 40.8427 295.933C36.9222 292.269 34.873 286.631 33.344 281.82C33.344 281.72 33.344 281.623 33.344 281.524C33.2933 281.524 33.2466 281.524 33.1976 281.524C32.5273 284.172 30.9521 289.88 28.177 291.338C27.1322 291.887 25.9207 291.833 24.5233 290.789C23.5573 291.667 20.5421 297.505 17.5637 296.561C16.8323 296.33 16.1031 295.689 15.4072 294.464C17.7072 291.21 20.5116 289.199 21.438 284.466C17.7109 287.29 15.1305 290.763 10.9967 294.17C8.67035 295.301 6.04662 293.93 5.85193 291.816C9.42888 288.835 10.6024 287.631 12.5719 285.347C16.3761 280.722 17.5311 278.189 19.1715 276.067C16.2008 276.562 2.17433 282.627 0.119396 277.848C-0.179234 277.153 0.14372 276.601 0.416363 276.083" fill="#333333"/>
</svg>
