<svg width="332" height="332" viewBox="0 0 332 332" fill="none" xmlns="http://www.w3.org/2000/svg">
<path d="M179.589 0V37.398H268.158L202.414 103.142C181.311 87.4865 155.183 78.2223 126.889 78.2223C56.8103 78.2223 0 135.032 0 205.111C0 275.19 56.8103 332 126.889 332C196.967 332 253.778 275.19 253.778 205.111C253.778 176.817 244.513 150.689 228.858 129.586L294.602 63.8426V152.412H332V0L179.589 0ZM126.889 290.21C79.8901 290.21 41.7899 252.109 41.7899 205.111C41.7899 158.112 79.8901 120.012 126.889 120.012C173.888 120.012 211.988 158.112 211.988 205.111C211.988 252.11 173.888 290.21 126.889 290.21V290.21Z" fill="url(#paint0_linear)" fill-opacity="0.2"/>
<defs>
<linearGradient id="paint0_linear" x1="166" y1="0" x2="166" y2="332" gradientUnits="userSpaceOnUse">
<stop stop-color="white"/>
<stop offset="1" stop-color="white" stop-opacity="0"/>
</linearGradient>
</defs>
</svg>
