<svg xmlns="http://www.w3.org/2000/svg" xmlns:xlink="http://www.w3.org/1999/xlink" preserveAspectRatio="xMidYMid" width="27" height="27" viewBox="0 0 27 27">
  <defs>
    <style>

      .cls-2 {
        fill: #bb292e;
      }
    </style>
  </defs>
  <path d="M26.873,25.458 C26.873,25.458 25.458,26.873 25.458,26.873 C25.458,26.873 13.438,14.852 13.438,14.852 C13.438,14.852 1.417,26.873 1.417,26.873 C1.417,26.873 0.002,25.458 0.002,25.458 C0.002,25.458 12.023,13.438 12.023,13.438 C12.023,13.438 0.002,1.417 0.002,1.417 C0.002,1.417 1.417,0.002 1.417,0.002 C1.417,0.002 13.438,12.023 13.438,12.023 C13.438,12.023 25.458,0.002 25.458,0.002 C25.458,0.002 26.873,1.417 26.873,1.417 C26.873,1.417 14.852,13.438 14.852,13.438 C14.852,13.438 26.873,25.458 26.873,25.458 Z" id="path-1" class="cls-2" fill-rule="evenodd"/>
</svg>
