<svg xmlns="http://www.w3.org/2000/svg" width="13.03" height="21" viewBox="0 0 13.03 21">
  <metadata><?xpacket begin="﻿" id="W5M0MpCehiHzreSzNTczkc9d"?>
<x:xmpmeta xmlns:x="adobe:ns:meta/" x:xmptk="Adobe XMP Core 5.6-c138 79.159824, 2016/09/14-01:09:01        ">
   <rdf:RDF xmlns:rdf="http://www.w3.org/1999/02/22-rdf-syntax-ns#">
      <rdf:Description rdf:about=""/>
   </rdf:RDF>
</x:xmpmeta>
                                                                                                    
                                                                                                    
                                                                                                    
                                                                                                    
                                                                                                    
                                                                                                    
                                                                                                    
                                                                                                    
                                                                                                    
                                                                                                    
                                                                                                    
                                                                                                    
                                                                                                    
                                                                                                    
                                                                                                    
                                                                                                    
                                                                                                    
                                                                                                    
                                                                                                    
                                                                                                    
                           
<?xpacket end="w"?></metadata>
<defs>
    <style>
      .cls-1 {
        fill: #fff;
        fill-rule: evenodd;
      }
    </style>
  </defs>
  <path id="Эллипс_1" data-name="Эллипс 1" class="cls-1" d="M1366.98,7752.73a2.774,2.774,0,0,1,.37.22,7.573,7.573,0,0,0,8.17.07,2.188,2.188,0,0,1,.79-0.4,1.271,1.271,0,0,1,1.43.55,1.147,1.147,0,0,1-.08,1.55,6.593,6.593,0,0,1-2.38,1.48,11.608,11.608,0,0,1-2.7.59c0.14,0.14.21,0.22,0.29,0.3,1.25,1.22,2.51,2.43,3.75,3.64a1.166,1.166,0,0,1,.28,1.42,1.494,1.494,0,0,1-1.39.84,1.381,1.381,0,0,1-.87-0.44c-0.95-.92-1.91-1.82-2.83-2.75-0.27-.28-0.4-0.22-0.63.01-0.95.95-1.92,1.88-2.88,2.8a1.248,1.248,0,0,1-1.46.26,1.429,1.429,0,0,1-.85-1.32,1.264,1.264,0,0,1,.45-0.88c1.24-1.2,2.47-2.39,3.7-3.59,0.09-.08.16-0.17,0.28-0.29a8.588,8.588,0,0,1-4.49-1.55,4.452,4.452,0,0,1-.48-0.38,1.209,1.209,0,0,1-.17-1.76A1.318,1.318,0,0,1,1366.98,7752.73Zm9.99-5.35a5.487,5.487,0,1,1-5.46-5.38A5.41,5.41,0,0,1,1376.97,7747.38Zm-8.17-.04a2.686,2.686,0,1,0,2.69-2.63A2.639,2.639,0,0,0,1368.8,7747.34Z" transform="translate(-1364.97 -7742)"/>
</svg>
