<svg xmlns="http://www.w3.org/2000/svg" width="14" height="14">
    <path fill="#FFF" fill-rule="evenodd" d="M13.253 13.125H10.25c-.409 0-.734-.317-.734-.717 0-.399.339-.73.748-.73h2.256V2.349h-2.256c-.409 0-.748-.33-.748-.73 0-.413.325-.73.734-.744h3.003c.409 0 .747.331.747.73v10.789c0 .4-.338.731-.747.731zM10.32 7.006c0 .18-.07.373-.212.51l-3.412 3.349c-.296.289-.761.289-1.057 0-.296-.289-.296-.744 0-1.034l2.143-2.094H1.338c-.409 0-.747-.331-.747-.731 0-.399.338-.73.747-.73h6.444l-2.143-2.08c-.296-.29-.296-.744 0-1.034.296-.289.761-.289 1.057 0l3.412 3.335c.142.138.212.33.212.509z"/>
</svg>
