<svg xmlns="http://www.w3.org/2000/svg" width="15" height="14">
    <path fill="#FFF" fill-rule="evenodd" d="M4.214-.001c-.247 0-.447.196-.447.438v1.682c-.518.182-.894.669-.894 1.235 0 .72.606 1.312 1.341 1.312s1.341-.592 1.341-1.312c0-.566-.376-1.053-.894-1.235V.437c0-.242-.2-.438-.447-.438zm6.854 0c-.247 0-.447.196-.447.438v1.682c-.519.182-.894.669-.894 1.235 0 .72.605 1.312 1.341 1.312.735 0 1.341-.592 1.341-1.312 0-.566-.376-1.053-.894-1.235V.437c0-.242-.2-.438-.447-.438zm-8.94.876C1.226.875.485 1.6.485 2.484v9.032c0 .883.741 1.609 1.643 1.609h11.016c.903 0 1.644-.726 1.644-1.609V2.484c0-.884-.741-1.609-1.644-1.609h-.889c-.236-.004-.452.206-.452.437s.216.441.452.438h.889c.422 0 .75.32.75.734v2.474H1.379V2.484c0-.414.327-.734.749-.734h.89c.236.003.451-.207.451-.438S3.254.871 3.018.875h-.89zm3.273 0c-.246 0-.447.196-.447.437 0 .242.201.438.447.438h4.47c.247 0 .447-.196.447-.438 0-.241-.2-.437-.447-.437h-4.47zM4.214 2.917c.252 0 .447.19.447.437s-.195.437-.447.437-.447-.19-.447-.437.195-.437.447-.437zm6.854 0c.252 0 .447.19.447.437s-.195.437-.447.437-.447-.19-.447-.437.195-.437.447-.437zM1.379 5.833h12.515v5.683c0 .413-.328.734-.75.734H2.128c-.422 0-.749-.321-.749-.734V5.833z"/>
</svg>
