<svg width="160" height="49" fill="none" xmlns="http://www.w3.org/2000/svg"><g clip-path="url(#clip0)"><path d="M29.063 0H22.22v3.468h4.785L21.538 8.8a13.272 13.272 0 00-11.363-2.385c-.413.104-.82.229-1.222.373A15.07 15.07 0 003.97 9.971a13.374 13.374 0 00-2.929 4.362A13.422 13.422 0 00.014 19.49v16.024a13.516 13.516 0 003.975 9.459 13.397 13.397 0 009.452 3.907c3.54 0 6.937-1.404 9.451-3.907a13.517 13.517 0 003.975-9.459V19.491a13.394 13.394 0 00-2.961-8.397l5.195-5.061v4.313h3.445V0h-3.483zm-5.607 35.515a10.14 10.14 0 01-2.945 7.135 10.05 10.05 0 01-7.1 2.968 10.05 10.05 0 01-7.107-2.963 10.14 10.14 0 01-2.95-7.14V19.491c-.008-2.624 1-5.15 2.814-7.04a10.037 10.037 0 016.898-3.088c2.612-.09 5.156.844 7.094 2.605a10.12 10.12 0 013.288 6.83v.694l.008 16.023z" fill="url(#paint0_linear)"/><path d="M43.877 23.83V7.288h12.21v2.6H46.77v4.3h8.258v2.6H46.77v4.443h9.435v2.599H43.877zm15.763 0V7.288h7.34c1.913 0 3.411.476 4.493 1.429 1.083.953 1.624 2.233 1.624 3.84 0 1.305-.353 2.38-1.059 3.227-.705.846-1.662 1.44-2.87 1.784l4.447 6.262h-3.408l-4.094-5.761h-3.571v5.761h-2.903zm2.893-8.342h4.235c1.035 0 1.859-.253 2.47-.76.612-.508.918-1.193.918-2.056 0-.883-.298-1.56-.895-2.033-.596-.473-1.435-.707-2.517-.704h-4.21v5.553zm14.115 8.342V7.288H88.86v2.6h-9.317v4.3h8.259v2.6h-8.259v4.443h9.435v2.599h-12.33zm19.81 0V9.982h-5.224V7.288H104.6v2.694h-5.224V23.83h-2.917zm11.194 0V7.288h7.34c1.913 0 3.41.476 4.492 1.429 1.083.953 1.624 2.233 1.624 3.84 0 1.305-.353 2.38-1.059 3.227-.705.846-1.662 1.44-2.871 1.784l4.447 6.262h-3.411l-4.094-5.761h-3.571v5.761h-2.897zm2.893-8.342h4.235c1.035 0 1.858-.253 2.471-.76.612-.508.918-1.193.916-2.056 0-.883-.298-1.56-.893-2.033-.596-.473-1.434-.707-2.513-.704h-4.211l-.005 5.553zm28.166 6.12c-1.632 1.671-3.695 2.505-6.188 2.5-2.494-.004-4.548-.831-6.163-2.48-1.616-1.655-2.423-3.68-2.423-6.074 0-2.363.815-4.38 2.446-6.049 1.632-1.67 3.694-2.503 6.186-2.5 2.495 0 4.551.827 6.169 2.482 1.617 1.654 2.425 3.678 2.423 6.073-.002 2.362-.818 4.378-2.45 6.048zm-10.152-1.878c1.058 1.142 2.395 1.713 4.01 1.713 1.616 0 2.945-.567 3.988-1.701 1.043-1.135 1.565-2.53 1.565-4.183 0-1.639-.529-3.03-1.588-4.171-1.058-1.142-2.395-1.713-4.011-1.713s-2.945.567-3.987 1.7c-1.043 1.135-1.564 2.53-1.565 4.184.001 1.639.53 3.03 1.589 4.17h-.001zm16.104 4.1V7.288h2.683l8.822 11.437V7.288h2.846V23.83h-2.423l-9.081-11.77v11.77h-2.847zM43.877 41.92l4.85-10.768h1.125l4.852 10.768h-1.3l-1.246-2.826h-5.787l-1.263 2.826h-1.23zm2.965-3.913h4.85l-2.417-5.453-2.433 5.453zm22.126 3.913V31.228h1.2v6.384l6.114-6.384h1.55l-4.561 4.674 4.762 6.018h-1.509l-4.089-5.179-2.272 2.308v2.871h-1.195zm25.914 0v-9.577H91.31v-1.115h8.364v1.115h-3.572v9.577h-1.22zm19.307 0V31.228h1.201V41.92h-1.201zm20.149.082l-4.579-10.77h1.34l3.787 9.21 3.802-9.21h1.299l-4.586 10.77h-1.063z" fill="#fff"/></g><defs><linearGradient id="paint0_linear" x1="-.02" y1="24.5" x2="32.514" y2="24.5" gradientUnits="userSpaceOnUse"><stop stop-color="#E52786"/><stop offset=".58" stop-color="#CB1B47"/><stop offset=".86" stop-color="#F39942"/><stop offset="1" stop-color="#F7DA44"/></linearGradient><clipPath id="clip0"><path fill="#fff" transform="translate(.014)" d="M0 0h159v49H0z"/></clipPath></defs></svg>