<svg width="135" height="42" fill="none" xmlns="http://www.w3.org/2000/svg"><g clip-path="url(#clip0)"><path d="M24.664 0h-5.81v2.972h4.063l-4.642 4.57A11.246 11.246 0 0013.682 5.4a11.165 11.165 0 00-5.055.1c-.35.089-.696.195-1.037.32a12.782 12.782 0 00-4.232 2.728 11.47 11.47 0 00-2.486 3.738A11.6 11.6 0 000 16.707v13.735a11.64 11.64 0 003.375 8.107 11.32 11.32 0 008.025 3.35 11.32 11.32 0 008.025-3.35 11.64 11.64 0 003.374-8.107V16.707a11.55 11.55 0 00-2.513-7.198l4.41-4.338v3.697h2.926V0h-2.958zm-4.76 30.442a8.733 8.733 0 01-2.501 6.115 8.493 8.493 0 01-6.028 2.544 8.492 8.492 0 01-6.035-2.54 8.734 8.734 0 01-2.504-6.12V16.708a8.724 8.724 0 012.389-6.035 8.487 8.487 0 015.857-2.647 8.47 8.47 0 016.023 2.233 8.707 8.707 0 012.792 5.855v.594l.006 13.735z" fill="url(#paint0_linear)"/><path d="M37.242 20.426V6.246H47.61v2.23H39.7v3.685h7.011v2.229h-7.012v3.808h8.01v2.228H37.243zm13.383 0V6.246h6.233c1.624 0 2.896.409 3.815 1.226s1.378 1.914 1.378 3.292c0 1.118-.3 2.04-.898 2.765-.6.726-1.412 1.235-2.437 1.529l3.775 5.368h-2.893l-3.476-4.938H53.09v4.938h-2.465zm2.457-7.15h3.596c.879 0 1.578-.218 2.098-.653.519-.434.779-1.022.779-1.761 0-.757-.254-1.338-.76-1.743-.507-.405-1.22-.606-2.138-.604h-3.575v4.76zm11.985 7.15V6.246h10.367v2.23h-7.91v3.685h7.012v2.229h-7.012v3.808h8.01v2.228H65.067zm16.819 0V8.556h-4.435v-2.31h11.347v2.31h-4.435v11.87h-2.477zm9.504 0V6.246h6.233c1.624 0 2.895.409 3.814 1.226s1.378 1.914 1.378 3.292c0 1.118-.299 2.04-.898 2.765-.6.726-1.412 1.235-2.438 1.529l3.775 5.368h-2.896l-3.476-4.938H93.85v4.938h-2.46zm2.457-7.15h3.596c.878 0 1.577-.218 2.097-.653.52-.434.78-1.022.779-1.761 0-.757-.253-1.338-.76-1.743-.505-.405-1.216-.606-2.133-.604h-3.575l-.004 4.76zm23.914 5.244c-1.385 1.433-3.137 2.148-5.254 2.144-2.117-.004-3.861-.713-5.233-2.126-1.371-1.418-2.057-3.154-2.057-5.206 0-2.026.693-3.754 2.078-5.185 1.385-1.431 3.135-2.146 5.252-2.143 2.118 0 3.864.709 5.237 2.127 1.374 1.418 2.059 3.153 2.057 5.206-.001 2.025-.694 3.753-2.08 5.184zm-8.62-1.61c.899.98 2.034 1.47 3.406 1.47 1.371 0 2.5-.487 3.386-1.459.885-.973 1.328-2.168 1.328-3.585 0-1.405-.449-2.596-1.348-3.575-.898-.98-2.034-1.469-3.406-1.469-1.371 0-2.5.486-3.385 1.458-.885.973-1.328 2.168-1.328 3.586 0 1.405.45 2.596 1.348 3.575h-.001zm13.674 3.516V6.246h2.278l7.49 9.804V6.247H135v14.179h-2.057l-7.711-10.088v10.088h-2.417zM37.242 35.931l4.118-9.23h.955l4.12 9.23h-1.103l-1.059-2.422H39.36l-1.072 2.422h-1.045zm2.518-3.354h4.117l-2.052-4.673-2.065 4.673zm18.786 3.355v-9.165h1.019v5.472l5.19-5.472h1.317l-3.873 4.007 4.043 5.158h-1.28l-3.472-4.44-1.93 1.979v2.46h-1.014zm22.002 0v-8.209h-3.032v-.956h7.1v.956h-3.032v8.209h-1.036zm16.392 0v-9.165h1.02v9.165h-1.02zm17.108.069l-3.887-9.23h1.137l3.216 7.894 3.228-7.895h1.103l-3.893 9.231h-.904z" fill="#242424"/></g><defs><linearGradient id="paint0_linear" x1="-.029" y1="21" x2="27.594" y2="21" gradientUnits="userSpaceOnUse"><stop stop-color="#E52786"/><stop offset=".58" stop-color="#CB1B47"/><stop offset=".86" stop-color="#F39942"/><stop offset="1" stop-color="#F7DA44"/></linearGradient><clipPath id="clip0"><path fill="#fff" d="M0 0h135v42H0z"/></clipPath></defs></svg>