<svg xmlns="http://www.w3.org/2000/svg" width="48" height="27" viewBox="0 0 48 27">
  <g fill="none" fill-rule="evenodd">
    <path fill="#374255" d="M23.408867,15.9307731 L21.9123236,15.9307731 C20.6457413,15.9307731 20.5163882,15.3551632 20.5163882,13.7568336 L20.5714286,10.5652174 L22.565622,10.5652174 L23.0747423,6.57391304 L20.5714286,6.57391304 L20.5163882,2.5826087 L16.4130207,2.5826087 L15.2032753,6.57391304 L13.5989377,6.57391304 L13.0599665,10.5652174 L15.2032753,10.5652174 L15.1482349,15.904369 C15.1482349,18.9197198 16.7992834,19.9565217 19.1995019,19.9565217 C20.5415402,19.9565217 22.1207258,19.7840148 22.8698958,19.5129325 L23.408867,15.9307731 Z"/>
    <path fill="#33425B" d="M48 2.81827257C48 1.0927636 46.8184479 0 45.044335 0 43.270222 0 42.08867 1.0927636 42.08867 2.81827257 42.08867 4.54378153 43.270222 5.63478261 45.044335 5.63478261 46.8184479 5.63478261 48 4.54378153 48 2.81827257zM30.7389163 2.81827257C30.7389163 1.0927636 29.5573642 0 27.7832512 0 26.0091383 0 24.8275862 1.0927636 24.8275862 2.81827257 24.8275862 4.54378153 26.0091383 5.63478261 27.7832512 5.63478261 29.5573642 5.63478261 30.7389163 4.54378153 30.7389163 2.81827257z"/>
    <polygon fill="#374255" points="30.975 19.957 30.975 6.574 24.176 6.574 23.645 10.558 25.678 10.558 25.678 19.957"/>
    <path fill="#374255" d="M7.21320274,1.87826087 C9.14531061,1.87826087 10.6652355,2.13415472 12.2109218,2.69712119 L11.4896015,6.86819097 C10.3045753,6.40758204 8.86193479,6.10050942 7.49657856,6.10050942 C6.62068966,6.10050942 5.95089226,6.27963511 5.95089226,7.02172728 C5.95089226,7.86617699 6.46612103,8.14766023 7.83147726,8.55709039 C10.2530525,9.29918256 13.2413793,10.1180429 13.2413793,14.1355764 C13.2413793,17.268424 11.6271887,19.1299966 9.26272679,20.0191142 C9.17873774,19.8947941 9.08755989,19.7775746 8.98905934,19.6659266 C8.33249307,18.9200416 7.43597096,18.5478261 6.30538149,18.5478261 C5.35880724,18.5478261 4.6094973,18.7848082 4.05597954,19.255908 C3.63662662,19.6035069 3.35814332,20.0394648 3.22097925,20.5611173 C2.18391362,20.4486778 1.30199406,20.2319479 0.0515228767,19.893188 L0.566751644,15.5174032 C1.82906212,15.9780121 3.32322555,16.2594953 4.71434322,16.2594953 C6.8525426,16.2594953 7.34200993,15.8244758 7.34200993,15.0056154 C7.34200993,14.1611657 6.87830404,13.9052719 4.61129746,13.2143585 C1.70025493,12.31873 0,10.8857244 0,7.73823007 C0,3.69510721 3.37474842,1.87826087 7.21320274,1.87826087 Z"/>
    <polygon fill="#374255" points="48 19.957 48 6.574 41.2 6.574 40.67 10.558 42.703 10.558 42.703 19.957"/>
    <polygon fill="#374255" points="32.158 19.957 32.158 6.574 40.197 6.574 39.655 10.558 37.573 10.558 37.573 19.957"/>
    <path fill="#FF8B00" d="M7.95651319,25.1029697 C7.25507258,25.9901539 6.30098543,26.6224973 5.09851582,27 C4.89810422,27 4.77124794,26.9629794 4.72114504,26.8900167 L4.14442868,26.2534541 C4.01117628,26.1043564 4.06021316,25.9573736 4.29473738,25.8114482 C5.28187112,25.2065979 5.86711564,24.4473628 6.05047093,23.5316281 C5.43217982,23.4660568 4.93861295,23.2545707 4.57190236,22.8950549 C4.20305973,22.5355286 4.01970443,22.0850526 4.01970443,21.5468311 C4.01970443,20.8943965 4.2457005,20.377313 4.6966266,20.0019252 C5.0974498,19.6593071 5.64005355,19.4869565 6.32550387,19.4869565 C7.14420659,19.4869565 7.79341226,19.7576587 8.2688568,20.3001206 C8.74536736,20.8425718 8.98522167,21.5658648 8.98522167,22.4688999 C8.98522167,23.3719561 8.64089749,24.2485659 7.95651319,25.1029697 Z"/>
  </g>
</svg>
