<svg version="1.1" id="Layer_1" xmlns="http://www.w3.org/2000/svg" x="0" y="0" viewBox="0 0 111.9 60.3" xml:space="preserve"><style>.st0{fill:#c52b25}</style><path class="st0" d="M111.9 24.7c-1.9 2-3.6 4-5.5 5.8-3.2 3.2-6.6 6.1-10.1 8.8-2.5 1.9-5.2 3.8-7.9 5.4-6.4 4-13.2 7-20.6 8.7-2.5.6-5.1 1-7.7 1.1-.7 0-1.3.2-2 .2-4.7.1-9.3-.5-13.8-1.7-3.7-1-7.4-2.3-10.9-3.9-5.4-2.3-10.6-5.1-15.9-7.6-2-1-4.1-2-6.3-2.6-1-.3-2-.4-3-.2-1.7.3-3.5.2-5.1-.8-1.5-1-2.7-2.3-3-4.1-.2-1 0-2 .5-2.9 1.4-2.5 3-5 4.8-7.3 2-2.6 4.2-4.9 6.6-7.1 3.4-3.1 7.1-5.8 11.1-8.1 3.9-2.2 8.1-4 12.4-5.4 3.4-1.1 6.8-1.8 10.4-2.3 5-.8 10.1-.8 15.2-.6 2 .1 4 .4 6 .8 4.4.7 8.7 1.9 12.9 3.5 4.3 1.6 8.5 3.5 12.4 5.8 2.5 1.5 5.1 3 7.5 4.7 4 2.7 7.8 5.6 11.2 9 .3.2.5.4.8.8zM4.8 33.1c.6.9 1.5 1.1 2.5 1 .5-.1.9-.2 1.4-.2 1.8-.1 3.5.3 5.1.9 2.9 1.1 5.6 2.4 8.4 3.8 5.9 3 11.7 6 17.9 8.3 4.4 1.6 8.8 2.7 13.5 3.1 3.5.3 7 .1 10.5-.5 5.4-1 10.6-2.7 15.5-5.2 3.5-1.7 6.8-3.6 10-5.9 1.4-1 2.9-2 4.3-3 3.9-2.9 7.5-6.2 10.9-9.7.2-.2.4-.4.6-.7-1-.8-2-1.7-2.9-2.4-3.7-2.9-7.6-5.5-11.7-7.9-4.3-2.5-8.9-4.6-13.6-6.3-3.5-1.3-7.1-2.2-10.8-2.8-2.9-.6-5.6-.9-8.4-.9-2 0-3.9.1-5.9.2s-4 .3-5.9.6c-3.3.5-6.6 1.3-9.9 2.3-4 1.3-7.9 3-11.6 5.2-4.2 2.4-7.9 5.4-11.3 8.8-1.6 1.6-3.1 3.4-4.5 5.1-1.5 1.8-2.9 3.9-4.1 6.2z"/><path class="st0" d="M6.9 39.2c2.3 3.5 4.4 7 5.8 10.8.9 2.4.6 4.6-.5 6.8-1 1.9-2.5 3.1-4.7 3.4-1.5.2-2.9-.4-4-1.4C2 57.4 1.2 55.7 1 53.7c-.2-1.6.2-3.1.7-4.6 1.3-3.3 3-6.5 4.9-9.6 0-.1.2-.2.3-.3zm.2 19.4c2.1 0 4-1.3 4.8-3.1.8-1.8.8-3.6-.1-4.7-.3 3.3-1.8 5.8-4.7 7.8zM75.6 27.4c.2 10.8-9.2 19.7-19.7 19.7-10.7 0-19.8-9-19.7-19.8S45.2 7.6 56 7.6c10.7.2 19.7 9 19.6 19.8zm-3.8 0c0-8.5-6.9-15.7-15.8-15.8-8.8 0-16 7-15.9 15.9.1 4.2 1.5 8.1 4.6 11.2 3.1 3 6.9 4.6 11.2 4.6 9.1-.2 15.7-7.2 15.9-15.9zM28.9 30.7c.1.1.2.3.4.5.3 0 .6 0 1 .1 0 .4 0 .7.1.9.2.2.5.3.7.5-.1.3-.3.5-.4.8.1.2.3.5.4.9-.3.2-.5.4-.7.6v.9c-.3.1-.6.2-.9.2-.2.2-.3.4-.5.7l-.9-.6c-.2.1-.5.3-.8.5-.2-.3-.4-.6-.6-.8h-.8c0-.3-.1-.6-.1-.9-.3-.2-.6-.3-1-.5.2-.3.3-.6.5-.9-.2-.3-.3-.5-.5-.9.2-.2.4-.3.8-.6 0-.2.1-.6.1-.9.4 0 .7-.1 1-.1.2-.2.3-.4.5-.6.4.1.9.2 1.7.2zM80 32.8c.3-.2.6-.3.8-.5v-.9c.3-.1.6-.1 1-.2.1-.2.3-.4.4-.5h2s.2.2.4.5c.3 0 .6.1 1 .1v.9c.3.2.5.3.9.6-.2.3-.3.5-.5.8.1.3.3.6.4 1-.3.2-.5.3-.8.5 0 .4-.1.7-.1 1-.3 0-.6 0-.9-.1-.1.2-.3.5-.5.8-.2-.1-.5-.3-.7-.5-.3.2-.6.3-.9.5-.5-.3-.7-1-1.5-.8 0-.3-.1-.6-.1-.9-.2-.2-.4-.3-.7-.5.1-.3.2-.6.3-1-.2-.3-.3-.5-.5-.8zM90 25.6c-.3-.2-.7-.5-1.1-.7-.1-.3-.3-.6-.5-.8v-1.2c.1-.3.3-.6.5-1 .3-.2.7-.4 1.1-.5h1.2c.2.1.6.3 1.1.6 0 0 0 .3.1.5s.3.3.3.4v1.3c-.1.2-.3.6-.5.8-.4.3-.7.5-1 .7-.3-.1-.7-.1-1.2-.1zM18.9 21.8c.3-.2.6-.4 1.1-.6.1 0 .2.1.5.2.2-.1.4-.2.5-.3.4.3.7.5 1.1.8.2.3.4.6.6 1.1 0 .2 0 .6-.1 1.2 0 0-.2.2-.4.3v.7c-.2 0-.4 0-.6-.1-.1.2-.3.4-.4.5h-1.3c-.3-.2-.6-.4-1.1-.7-.1-.2-.3-.6-.5-.9v-1.2c.2-.3.4-.6.6-1zM81.9 25.1c-.8.6-1.6.6-2.5 0-.4-.5-.5-1-.4-1.6.1-.3.2-.6.4-.8.5-.5 1.7-.7 2.3-.1.3.3.6.7.6 1.2s-.3.8-.4 1.3zM26.6 19.8h-1c-.2-.1-.4-.3-.8-.5-.1-.2-.3-.5-.4-.8s0-.5-.1-.9c1.1-1.8 2.4-1.6 3.4 0 .2 1.1-.2 1.8-1.1 2.2zM86.3 16.9c.6 1.8.5 2.1-.8 3-.6.1-1.2-.1-1.7-.4-.6-1.1-.4-1.5 0-2.5.5 0 .7-.8 1.3-.4.4-.4.6.3 1.2.3zM32.1 24.3c-.3.9-1.1 1.3-2.1 1.2-.7-.1-1.1-.8-1.3-2 .4-.9 1.2-1.5 2.1-1.3.9.2 1.5 1 1.3 2.1z"/><path class="st0" d="M56 15.4c6.5-.2 12.1 5.5 12.1 12.1-.1 6.4-5.3 12-12.2 12-6.2 0-11.9-5.3-11.9-12.1-.1-6.6 5.6-12.3 12-12zm9.1 7c.2-1.7-1.5-3.8-3.7-3.8-1.9 0-3.8 1.4-3.8 3.8s1.9 3.7 3.7 3.7c2.5.1 4-2.1 3.8-3.7z"/></svg>