<svg version="1.1" id="Layer_1" xmlns="http://www.w3.org/2000/svg" x="0" y="0" viewBox="0 0 111.8 94.1" xml:space="preserve"><style>.st0{fill:#c52b25}</style><path class="st0" d="M111.8 47.1c-2.4 3-5 5.7-7.7 8.2-6.4 6-13.4 11.1-21.2 15.1-5.8 2.9-11.8 5.1-18.2 6.2-6.9 1.2-13.8.7-20.6-1.1-6-1.6-11.6-4.1-17.1-6.8-3.7-1.8-7.3-3.7-11-5.4-1.4-.7-2.8-1.2-4.2-1.7-1.2-.4-2.4-.5-3.7-.4-.9.1-1.9.1-2.9 0-2-.3-3.6-1.5-4.6-3.3-.8-1.5-.8-3 .1-4.6 2.3-4.1 5-7.8 8.3-11.1 9.5-10 21.1-16 34.6-18.4 4.3-.8 8.6-1.1 12.9-1.2 8.1 0 15.9 1.6 23.4 4.4 10.9 4.1 20.6 10.1 29.3 17.7.9.7 1.7 1.6 2.6 2.4zM79.7 31.9v-.4c-.4-.2-.8-.5-1.2-.7-.8-.3-1.6-.5-2.4-.8-5.9-1.7-11.9-2.8-18.1-2.8-4.4 0-8.7.3-13 1.2-2.4.5-4.8 1.1-7.2 1.8-2 .6-2.7 1.6-2.8 3.7 0 .6-.1 1.3-.2 1.9-.1.7-.3 1.3-.6 2.2-.6-1.6 0-3.2-.8-4.7-1.7 3.1-2.8 6.3-5.2 8.8.2-.7.5-1.3.7-2 .4-1.2.8-2.3 1.1-3.5.1-.4 0-.9 0-1.4h-1.6c-3.9.5-6.8 2.7-9.4 5.4-.9.9-.7 1.7.5 2.2 1.4.6 2.9 1.1 4.3 1.7 1.1.5 2.1 1.1 3.1 1.7.7.5 1.2 1.3 1.4 2.4-.3-.1-.6-.1-.8-.2-1.4-.6-2.8-1.2-4.1-1.9-1.1-.5-2.3-.8-3.5-.6-1 1.4-.5 2.8-.4 4.4-.7-.9-1.2-1.7-1.5-2.6-.6-1.7-1.6-2.3-3.4-2-1 .2-1.9.5-2.5 1.2-2 2.1-4 4.4-5.6 6.9-.3.5-.5 1.1-.7 1.6.6 1.3 1.7 1.5 2.7 1.2 1.7-.4 3.4 0 5.1.3 2 .5 4 .9 6 1.2 3 .4 5.9 0 8.4-1.9.5-.4 1-.9 1.6-1.4.1.4.2.6.2.9.1 1.4-.4 2.8-.7 4.1-.2.9-.4 1.7-.5 2.6-.1.8.3 1.4.9 1.8l2.1 1.2c.4.2.8.2 1.2.3.7-.8.3-1.5.3-2.3-.1-1.2-.1-2.5-.1-3.7 0-.2.2-.5.3-.7.4 1.4.7 2.8 1.2 4.1.2.5.4 1.1 1.1 1.2 1.1-1 1-2.5 1.6-3.8.2.8.3 1.5.5 2.1.4 1 1.1 1.6 2.2 1.6h.6c1.4.2 2.8.5 4.1 1.6-1.4.1-2.5.2-3.8.3.4 1.4 1.2 2.3 2.2 3 1.4 1.1 2.9 1.8 4.6 2.3 3.1.9 6.3 1 9.5 1.1 1 0 2.1.1 3.1 0 2.2-.1 3-1.3 2.6-3.3-.1-.2-.1-.5-.2-.9.3.3.6.4.8.6 1.3.9 2.2.6 2.9-.8.2-.5.4-1 .5-1.5h.1v4.3c.6-.8.6-1.8 1.5-2.2.4.8.7 1.5 1.1 2.2 1-.4 1.9-.5 2.6-1.4-.3-.4-.6-.8-.9-1.1-.6-.8-1.1-1.6-1.7-2.5-.2-.3-.5-.6 0-1 .4.3.9.6 1.3 1 .7.6 1.3 1.1 2 1.8.8.9 1.9 1.1 3 .9S78 68 79 67.5c1.9-.9 3.7-2 5.6-3 1.1-.6 2.2-1.3 3.5-2-1.3-.6-2.5-1.3-3.8-1.8-1.5-.7-2.6-1.7-3.8-3 1.2 0 1.4.1 2.7.7.7.4 1.5.8 2.3 1 1.1.3 2-.2 2.6-1.2-2.1-2-5-2.8-7.3-4.6.6 0 1.3.1 1.9.3 1.1.3 2.1.7 3.2 1 .4.1.9.1 1.3.1 1.1-2.7 1.7-3.6 2.9-4.2-.1.7-.3 1.4-.4 2.1-.1.8 0 1.5 0 2.3.1 1.8 1.2 2.8 2.9 2.4 2-.4 3.8-1.1 5.5-2.4l.6-.6c-.6-.6-1.1-1.1-1.6-1.7-.5-.6-1.2-1-1.5-2 2.1 0 3.9 1.2 6 1.2 1.7-1.6 3.3-3.2 5-4.8-.6-.8-1.4-1.1-2.2-1.4-1.3-.5-2.6-.9-4-1.4-.6-.2-1.2-.5-2.1-.9 1.2-.4 2.2-.7 3.4-1.1-1.5-.8-2.8-1.4-4.2-2.1-.5.4-1 .8-1.4 1.2-.4.4-.8.9-1.1 1.4s-.6 1-1 1.8c-.2-2.5-.1-4.8-.7-7-.3.3-.5.7-.6 1-.6 1.3-1.5 2.5-2.6 3.4-2.2 1.7-4.6 3.1-7.1 4.2-.3.1-.6.1-.9.2.2-.6.6-1.1 1-1.4 1.2-1 2.4-1.9 3.5-2.9.7-.6 1.3-1.1 2-1.7.3-.3.7-.6.4-1.2-1-.2-1.9 0-2.8.3-.9.2-1.8.5-2.7.9-.9.3-1.7.8-2.6 1.2v-.4c0-.1.1-.1.1-.2 1.1-1.6 2.5-2.8 4.4-3.4 1-.3 1.9-.6 2.9-.9.5-.2 1.1-.4 1.2-1.1-.2-.2-.3-.5-.6-.6-1.5-.7-3-1.5-4.6-2.1-.7-.3-1.3 0-1.8.7-.5.8-1 1.5-1.5 2.3-1.1 1.9-2.2 3.8-3.4 5.7-.2.3-.4.6-.8 1.1 0-2.3.4-4.1 1.4-5.8.4-.6.6-1.3.9-1.9-.3-.4-.3-.5-1.1-.4-1.3.1-2.5.3-3.8.4-.4 0-.9.1-1.3.2.2-.3.5-.4.7-.5 1.6-.7 3.3-1.4 4.9-2.2.5-.2.8-.5 1.2-.8z"/><path class="st0" d="M55.9 68.3c-11.3 0-19.9-9.5-19.7-19.7.2-12.1 10-19.6 19.7-19.6 9.8 0 19.6 7.6 19.6 19.6.1 12.1-9.8 19.8-19.6 19.7zm15.8-19.8c.2-8-6.8-15.8-16.1-15.7-7.9.1-15.8 6.7-15.5 16.3.3 9.2 7.7 15.6 16.1 15.4 8.9-.2 15.8-7.6 15.5-16z"/><path class="st0" d="M67.9 48.5c.3 6.9-5.7 12.1-11.9 12.1-6.1 0-12.2-4.7-12.1-12.2.2-7.1 5.6-11.7 11.9-11.8 7.6 0 12.3 6.3 12.1 11.9zm-6.5-8.7c-2.1 0-3.8 1.7-3.8 3.8s1.6 3.8 3.6 3.9c2.1 0 3.9-1.7 4-3.8 0-2.1-1.7-3.9-3.8-3.9zM86.8 11.7L102.5 0l-7.9 10 12 1.7-21.7 13.5 10.8-10.5zM7.7 80.7l15.7-11.8-7.8 10 11.9 1.8L5.8 94.1l10.9-10.5zM31.8 12l-9.1-7.7 4.8 6.8-6.2 1.9 12.5 8.5-6.5-7zM96.4 80.5l-9.1-7.6 4.8 6.8-6.2 1.9 12.5 8.5-6.5-7z"/></svg>