<svg id="Cuatro" xmlns="http://www.w3.org/2000/svg" viewBox="0 0 128 63"><defs><style>.cls-1{fill:#fff;fill-rule:evenodd}</style><mask id="mask" x="1" y="14.47" width="126.1" height="29.31" maskUnits="userSpaceOnUse"><g id="mask-2"><path id="path-1" class="cls-1" d="M1 43.78h126.1V14.47H1v29.31z"/></g></mask></defs><g id="Page-2"><g id="Cuatro-header"><g style="mask:url(#mask)" id="cuatro-2" data-name="cuatro"><path id="Fill-1" class="cls-1" d="M38.69 19.84h5.36v14.8a9.45 9.45 0 0 1-2.43 6.3 9.92 9.92 0 0 1-7.51 2.84c-3.37 0-6-1-7.87-2.94a9.19 9.19 0 0 1-2.42-6.5v-14.5h5.36V34.6a4 4 0 0 0 1 2.59 5.36 5.36 0 0 0 3.94 1.23 4.86 4.86 0 0 0 3.6-1.15 4.08 4.08 0 0 0 1-2.65Zm-21.25 8.07a5.06 5.06 0 0 0-4.81-3.64c-3.91 0-5.88 3.32-5.88 6.87S8.49 38 12.32 38c3.28 0 4.66-2.32 5.52-4.4l4.68 2.47c-1.53 3.33-4.14 7-10.29 7C5.26 43 1 37.91 1 31.14s4.26-11.91 11.63-11.91a9.62 9.62 0 0 1 9.61 6.47ZM61 31.06a9.7 9.7 0 0 1-2.6.81l-3 .62c-2 .41-3.75 1-3.75 3.14 0 1.7 1.57 2.81 3.53 2.81 2.55 0 5.82-1.25 5.82-4.15Zm0 11.32v-2.05a11.51 11.51 0 0 1-7.38 2.59c-4.3 0-7.7-2.74-7.7-7.11s3.53-6.41 6.89-7.08l2.28-.45A57.83 57.83 0 0 0 61 27v-.67c0-2.25-1.93-2.87-4.3-2.87-3.17 0-4.21.94-4.21 3.4l-5.45-.22c0-5.32 4.7-7.38 9.66-7.38s9.75 1 9.75 7.43v15.69Zm8.13-27.82h5.52v5.1h4.9v4.95h-4.9v10.58c0 1.81.35 2.8 2.47 2.8.77 0 1.63-.18 2.43-.26v4.5a20.37 20.37 0 0 1-4.37.54c-4.52 0-6-2-6-5.5Zm13 5.21h5.52v3.17c1.39-2.62 3.92-3.71 7.12-3.71v5.6c-3.74 0-7.12 1.76-7.12 6.73v11.05h-5.48Zm36.31 11.42a11.93 11.93 0 1 1-11.93-11.92 11.92 11.92 0 0 1 11.93 11.92Zm8.62-12.44a4.28 4.28 0 1 1-4.27-4.28 4.27 4.27 0 0 1 4.27 4.28Z"/></g></g></g></svg>