<svg viewBox="0 0 20 38" xmlns="http://www.w3.org/2000/svg" fill-rule="evenodd" clip-rule="evenodd" stroke-linejoin="round" stroke-miterlimit="1.414"><path d="M13.941 11.557c2.004.024 4.093-.038 6.05.031-.062 2.101-.015 4.318-.031 6.466h-6.019V38H5.464V18.085c-1.757-.078-3.653-.016-5.464-.031v-6.497h5.402c.085-1.705-.023-3.232.093-4.62a7.313 7.313 0 0 1 1.21-3.465C7.938 1.619 9.996.169 12.762.038c2.289-.109 4.84.054 7.229.031-.015 2.155.046 4.395-.031 6.496-1.202.07-2.42-.093-3.475 0-1.072.093-1.85.76-2.235 1.558-.424.892-.301 2.078-.309 3.434" fill="#fff" fill-rule="nonzero"/></svg>