<svg viewBox="0 0 20 16" xmlns="http://www.w3.org/2000/svg" fill-rule="evenodd" clip-rule="evenodd" stroke-linejoin="round" stroke-miterlimit="1.414"><path d="M17.956 3.992c.08 2.676-.68 4.82-1.688 6.484a11.464 11.464 0 0 1-3.932 3.924c-1.612.964-3.768 1.664-6.292 1.596-2.36-.064-4.228-.736-5.76-1.648-.096-.056-.216-.1-.284-.196 2.616.288 4.628-.568 6.044-1.644-1.044-.036-1.84-.396-2.452-.876A3.943 3.943 0 0 1 2.236 9.68c.528.124 1.304.092 1.792-.044-.976-.22-1.704-.732-2.264-1.368C1.216 7.636.8 6.792.8 5.64c.032-.052.112.032.168.06a4.29 4.29 0 0 0 1.64.416c-1-.708-2.016-2.064-1.732-3.948.08-.552.28-1.032.5-1.432.272.256.5.556.764.82 1.84 1.804 4.24 3.14 7.68 3.392-.412-2.144.684-3.712 2.032-4.46.732-.4 1.792-.612 2.812-.412.92.184 1.628.644 2.184 1.184 1.012-.184 1.828-.556 2.604-.964-.344.976-.932 1.72-1.78 2.208.852-.072 1.632-.34 2.328-.612-.548.832-1.252 1.512-2.044 2.1" fill="#fff" fill-rule="nonzero"/></svg>