<svg width="4" height="15" viewBox="0 0 4 15" fill="none" xmlns="http://www.w3.org/2000/svg">
<path d="M0.149375 -9.53674e-07H3.86938L3.24938 9.14H0.769375L0.149375 -9.53674e-07ZM2.00938 14.16C1.46271 14.16 1.00271 13.9867 0.629375 13.64C0.269375 13.28 0.089375 12.8467 0.089375 12.34C0.089375 11.8333 0.269375 11.4133 0.629375 11.08C0.989375 10.7333 1.44938 10.56 2.00938 10.56C2.56938 10.56 3.02938 10.7333 3.38938 11.08C3.74938 11.4133 3.92938 11.8333 3.92938 12.34C3.92938 12.8467 3.74271 13.28 3.36938 13.64C3.00938 13.9867 2.55604 14.16 2.00938 14.16Z" fill="#999999"/>
</svg>
