<svg width="20" height="12" viewBox="0 0 20 12" fill="none" xmlns="http://www.w3.org/2000/svg">
<path fill-rule="evenodd" clip-rule="evenodd" d="M0 5.79696C7.00152 -2.02278 13.0898 -1.87123 20 5.88789C12.4201 13.6773 7.15373 13.647 0 5.79696ZM10.0152 1.73555C12.2983 1.73555 14.1248 3.5844 14.1248 5.85758C14.1248 8.13076 12.2983 9.97961 10.0152 9.97961C7.73212 9.97961 5.87519 8.13076 5.87519 5.85758C5.87519 3.5844 7.73212 1.73555 10.0152 1.73555Z" fill="black"/>
<path d="M10.0152 8.34286C11.3434 8.34286 12.4201 7.27085 12.4201 5.94845C12.4201 4.62605 11.3434 3.55403 10.0152 3.55403C8.68705 3.55403 7.61035 4.62605 7.61035 5.94845C7.61035 7.27085 8.68705 8.34286 10.0152 8.34286Z" fill="black"/>
</svg>
