<svg width="17" height="16" viewBox="0 0 17 16" fill="none" xmlns="http://www.w3.org/2000/svg">
<path d="M10.9889 7.74792C10.8958 5.94529 9.5553 4.86089 7.93656 4.86089H7.87511C6.00706 4.86089 4.97069 6.32765 4.97069 7.99362C4.97069 9.85868 6.22431 11.0372 7.86817 11.0372C9.7005 11.0372 10.9056 9.69719 10.9928 8.11215L10.9889 7.74792ZM7.88438 3.24786C9.13276 3.24786 10.3068 3.79852 11.1683 4.66108V4.66412C11.1683 4.25037 11.4476 3.93798 11.8351 3.93798L11.9331 3.93737C12.5392 3.93737 12.6636 4.50981 12.6636 4.69101L12.6667 11.1287C12.6238 11.5502 13.1023 11.7678 13.3676 11.4974C14.4034 10.435 15.6418 6.03619 12.7238 3.48771C10.0042 1.11166 6.35463 1.50303 4.41404 2.83848C2.35092 4.25876 1.03074 7.40268 2.31325 10.3554C3.71122 13.5761 7.71139 14.5365 10.0887 13.578C11.2925 13.0934 11.8487 14.7177 10.5984 15.2484C8.70911 16.0515 3.45106 15.9707 0.994534 11.7235C-0.665173 8.85531 -0.577031 3.80947 3.82472 1.19479C7.19192 -0.805467 11.6315 -0.25202 14.3084 2.53887C17.1065 5.45657 16.9434 10.9198 14.214 13.0432C12.9775 14.0084 11.1408 13.0693 11.1525 11.6631L11.1398 11.2035C10.2786 12.0563 9.13276 12.5539 7.88438 12.5539C5.41774 12.5539 3.24746 10.388 3.24746 7.92596C3.24746 5.43954 5.41774 3.24786 7.88438 3.24786Z" fill="white"/>
</svg>
