<svg xmlns="http://www.w3.org/2000/svg" x="0px" y="0px" viewBox="0 0 91.9 337.2" >

                                  <filter id="myfilter">
                                    <feGaussianBlur in="SourceAlpha" stdDeviation="2"/>
                                    <feOffset dx="2" dy="2"/>
                                    <feMerge >
                                        <feMergeNode />
                                        <feMergeNode in="SourceGraphic"/>
                                    </feMerge>

                                </filter>
								<linearGradient id="arr1" gradientUnits="userSpaceOnUse" x1="384" y1="376.9993" x2="384" y2="0">
									<stop offset="0%" style="stop-color:rgba(255, 255, 255,1)"></stop>
									<stop offset="50%" style="stop-color:rgba(255, 255, 255,1)"></stop>
									<stop offset="100%" style="stop-color:rgba(255, 255, 255,0.01)"></stop>
								</linearGradient>
								<path class="arr" d="M51.3,336.2l28.9-24.5c1.3-1.1,1.4-3,0.4-4.2c-1.1-1.3-3-1.4-4.2-0.4l-16.1,13.7
												c4.2-7.9,9.5-19.2,14.5-33.4c7.5-21.2,15.3-52.4,15.7-90.1l0-0.5c0.1-10.3-0.4-21.1-1.6-32.3c-5.5-50.9-27.2-92.7-44.5-118.7
												C25.5,17.5,8.4,1.5,7.6,0.8C7.1,0.3,6.4,0,5.6,0C4.8,0,4,0.3,3.4,1c-0.5,0.6-0.8,1.3-0.8,2l0,0.1c0,0.8,0.3,1.6,1,2.2
												C4.3,5.9,72.4,69.8,82.7,165c5.6,51.3-4.4,93.6-13.7,120.1c-5.5,15.7-11.4,27.8-15.7,35.7l1.9-25c0.1-1.7-1.1-3.1-2.8-3.2
												c-0.1,0-0.1,0-0.2,0c-1.6,0-2.9,1.2-3,2.8l-2.9,38.3c-0.1,1.2,0.6,2.3,1.6,2.9c0.4,0.2,0.9,0.3,1.3,0.3
												C50,336.9,50.7,336.7,51.3,336.2" fill="url(#arr1)"  filter="url(#myfilter)"></path>
							</svg>