<svg version="1.1" id="Слой_1" xmlns="http://www.w3.org/2000/svg" xmlns:xlink="http://www.w3.org/1999/xlink" x="0px" y="0px" width="68px" height="41.6px" viewBox="0 0 68 41.6" xml:space="preserve">
							<style type="text/css">
								.arr1211 {
									fill: #FF0000;
								}

								.arr1212 {
									fill: url(#arr1212);
								}
							</style>
							<linearGradient id="arr1212" gradientUnits="userSpaceOnUse" x1="384" y1="376.9993" x2="384" y2="0">
								<stop offset="0%" style="stop-color:rgba(255, 0, 0, 1)"></stop>
								<stop offset="90%" style="stop-color:rgba(255, 0, 0, 1)"></stop>
								<stop offset="100%" style="stop-color:rgba(255, 0, 0, 0.01)"></stop>
							</linearGradient>
							<path class="arr1212" d="M65.5,33.9c-48.4,0-88.1-38.8-89-87.1l3-0.1C-19.7-6,19.6,31.7,67,30.9l0.1,3C66.5,33.9,66,33.9,65.5,33.9z">
							</path>
							<path class="arr1211" d="M59.1,41.6l-2.7-1.3c2.9-6.2,10.1-9.3,10.4-9.4l1.2,2.8C67.9,33.6,61.5,36.5,59.1,41.6z">
							</path>
							<path class="arr1211" d="M65.9,33.7c-0.3-0.1-7.6-3.1-10.7-9.2l2.7-1.4c2.6,5.1,9.1,7.7,9.1,7.7L65.9,33.7z">
							</path>
						</svg>