<svg class="svg-phone-v1" xmlns="http://www.w3.org/2000/svg" width="18" height="20"><path d="M15.26 12.5a2.016 2.016 0 00-1.37-.82 2.143 2.143 0 00-1.55.47l-1.52 1.14c-.1-.07-.21-.13-.31-.2a4.389 4.389 0 01-.39-.27 14.51 14.51 0 01-3.14-3.54 8.434 8.434 0 01-.93-1.9c.39-.28.76-.56 1.11-.83.14-.11.27-.21.41-.31a1.889 1.889 0 00.36-2.88L6.9 2.09c-.11-.14-.23-.29-.34-.44-.23-.29-.47-.59-.71-.87A2.06 2.06 0 004.49 0a2.162 2.162 0 00-1.54.43c0 .01 0 .01-.01.01L1.3 1.69A3.073 3.073 0 00.13 3.51a7.051 7.051 0 00.16 3.15 17.513 17.513 0 002.6 5.69 20.12 20.12 0 006.08 5.9 10.821 10.821 0 003.64 1.53 2.477 2.477 0 00.27.03 3.262 3.262 0 002.6-.73.038.038 0 00.02-.02c.26-.23.55-.44.85-.66.21-.15.42-.31.62-.47a2.06 2.06 0 00.83-1.36 1.923 1.923 0 00-.47-1.5zm.98 4.56c-.19.15-.38.29-.59.44a10.246 10.246 0 00-.93.73 2.126 2.126 0 01-1.7.47l-.19-.03A9.483 9.483 0 019.6 17.3a18.919 18.919 0 01-5.72-5.55A17.051 17.051 0 011.42 6.4a5.917 5.917 0 01-.15-2.66 1.928 1.928 0 01.75-1.16l1.64-1.24a.99.99 0 01.69-.22.912.912 0 01.59.36.02.02 0 01.01.02c.24.27.45.54.68.83.12.15.24.3.36.46l1.03 1.27a.783.783 0 01-.17 1.28c-.14.11-.27.22-.41.32-.41.31-.79.61-1.21.89a.035.035 0 00-.02.01.849.849 0 00-.34.92v.04a9.265 9.265 0 001.11 2.35l.01.01a15.52 15.52 0 003.38 3.81c.16.12.33.23.49.34a4.622 4.622 0 01.4.27c.02.01.03.02.05.03a.95.95 0 00.41.16.975.975 0 00.69-.21l1.64-1.25a1.044 1.044 0 01.69-.23.849.849 0 01.58.38h.01l2.07 2.58a.813.813 0 01-.16 1.3z" fill="#167134"/></svg>