<svg version="1.1" id="Layer_1" xmlns="http://www.w3.org/2000/svg" xmlns:xlink="http://www.w3.org/1999/xlink" x="0px" y="0px"
	 viewBox="0 0 512 512" style="enable-background:new 0 0 512 512;" xml:space="preserve">
<style type="text/css">
	g{fill:#007178;}
</style>
<g>
	<g>
		<path d="M512,160C512,71.8,397.2,0,256,0S0,71.8,0,160c0,74.1,77.8,135.8,187.5,154.3c-13.9,10.9-22.9,27.8-22.9,46.8
			c0,32.8,26.7,59.4,59.4,59.4h4.6V512h18.3V411.4v-36.6V320v-9.1v-27.4c0-3.5-2-6.8-5.2-8.3l-116.9-55
			c-20.2-9.5-33.3-30.1-33.3-52.5c0-32,26-58,58-58h213.2c32,0,58,26,58,58c0,22.3-13.1,42.9-33.3,52.5l-116.9,55
			c-3.2,1.5-5.2,4.7-5.2,8.3v27.4v9.1v54.9v36.6V512h18.3v-91.4h4.6c32.8,0,59.4-26.7,59.4-59.4c0-19-9-35.9-22.9-46.8
			C434.2,295.8,512,234.1,512,160z M228.6,374.9v27.4H224c-22.7,0-41.1-18.5-41.1-41.1S201.3,320,224,320h4.6V374.9z M329.1,361.1
			c0,22.7-18.5,41.1-41.1,41.1h-4.6v-27.4V320h4.6C310.7,320,329.1,338.5,329.1,361.1z M283.4,300.7v-11.5l111.6-52.5
			c26.6-12.5,43.8-39.6,43.8-69c0-42.1-34.2-76.3-76.3-76.3H149.4c-42,0-76.3,34.2-76.3,76.3c0,29.4,17.2,56.5,43.8,69l111.6,52.5
			v11.5C109.9,292.5,18.3,231.8,18.3,160C18.3,81.9,124.9,18.3,256,18.3S493.7,81.9,493.7,160C493.7,231.8,402.1,292.5,283.4,300.7z
			"/>
	</g>
</g>
<g>
	<g>
		<rect x="246.9" y="54.9" width="18.3" height="18.3"/>
	</g>
</g>
<g>
	<g>
		<rect x="283.4" y="54.9" width="18.3" height="18.3"/>
	</g>
</g>
<g>
	<g>
		<rect x="210.3" y="54.9" width="18.3" height="18.3"/>
	</g>
</g>
</svg>
