<svg xmlns="http://www.w3.org/2000/svg" viewBox="0 0 294.8 294.8" fill="#148e94"><path d="M147.4 0c-3.3 0-6 2.7-6 6s2.7 6 6 6c74.7 0 135.4 60.8 135.4 135.4S222 282.8 147.4 282.8 12 222.1 12 147.4c0-50.8 28-96.9 73.2-120.3 2.9-1.5 4.1-5.1 2.6-8.1-1.5-2.9-5.1-4.1-8.1-2.6C30.5 41.9 0 92.1 0 147.4c0 81.3 66.1 147.4 147.4 147.4s147.4-66.1 147.4-147.4S228.7 0 147.4 0z"/><path d="M205.2 71.5C188.5 58.7 168.5 52 147.4 52 94.8 52 52 94.8 52 147.4s42.8 95.4 95.4 95.4c25.5 0 49.5-9.9 67.5-28 2.3-2.3 2.3-6.1 0-8.5s-6.1-2.3-8.5 0c-15.8 15.8-36.7 24.4-59 24.4-46 0-83.4-37.4-83.4-83.4S101.4 64 147.4 64c36.9 0 69.8 24.7 80.1 60.1.9 3.2 4.3 5 7.4 4.1 3.2-.9 5-4.3 4.1-7.4-5.6-19.5-17.6-37-33.8-49.3z"/><path d="M217.8 129.3c-2.3-2.3-6.1-2.3-8.5 0-2.3 2.3-2.3 6.1 0 8.5l22.6 22.6c1.1 1.1 2.7 1.8 4.2 1.8s3.1-.6 4.2-1.8l22.6-22.6c2.3-2.3 2.3-6.1 0-8.5-2.3-2.3-6.1-2.3-8.5 0l-18.3 18.3-18.3-18.3z"/></svg>