<svg height="20" viewBox="0 0 440 440" width="20" xmlns="http://www.w3.org/2000/svg"><path d="M415.803 24.203C399.673 8.07 380.237 0 357.513 0H82.504C59.78 0 40.345 8.069 24.207 24.203 8.072 40.341.003 59.775.003 82.5v274.999c0 22.722 8.069 42.158 24.204 58.296C40.345 431.93 59.78 440 82.504 440H357.51c22.724 0 42.16-8.069 58.29-24.206 16.138-16.138 24.208-35.573 24.208-58.296V82.499c0-22.724-8.07-42.16-24.205-58.296zm-280.49 331.721c-7.133 7.156-15.733 10.74-25.81 10.74-10.073 0-18.677-3.584-25.806-10.74-7.128-7.162-10.695-15.808-10.695-25.93 0-10.115 3.567-18.761 10.695-25.924 7.13-7.163 15.733-10.74 25.806-10.74 10.077 0 18.68 3.577 25.81 10.74 7.127 7.163 10.694 15.809 10.694 25.924 0 10.122-3.564 18.769-10.694 25.93zm108.214 7.87c-1.9 1.909-4.088 2.857-6.562 2.857h-36.496c-2.473 0-4.562-.804-6.273-2.431-1.712-1.62-2.664-3.673-2.853-6.16-2.09-29.405-13.591-54.615-34.504-75.628-20.912-21-46.004-32.556-75.284-34.658-2.471-.186-4.516-1.14-6.13-2.858-1.616-1.716-2.424-3.818-2.424-6.304v-36.665c0-2.483.952-4.68 2.851-6.588 1.901-1.91 4.182-2.768 6.846-2.579 44.106 2.482 81.746 19.387 112.923 50.706 31.18 31.325 48.007 69.127 50.475 113.439.194 2.674-.667 4.96-2.569 6.87zm109.502 0c-1.9 1.909-4.082 2.864-6.555 2.864h-36.502c-2.471 0-4.563-.859-6.272-2.575-1.709-1.717-2.66-3.82-2.85-6.304-1.333-38.957-11.932-75.052-31.795-108.281-19.867-33.23-46.339-59.822-79.42-79.775-33.08-19.958-69.007-30.603-107.792-31.939-2.47-.19-4.561-1.147-6.272-2.863-1.71-1.72-2.565-3.822-2.565-6.304V91.95c0-2.483.952-4.677 2.851-6.59 1.711-1.909 3.896-2.766 6.56-2.573 29.274.953 57.555 6.297 84.834 16.04 27.28 9.737 51.994 23.057 74.147 39.958 22.15 16.899 41.636 36.476 58.455 58.725 16.82 22.249 30.086 47.077 39.783 74.477 9.69 27.406 15.02 55.817 15.965 85.222.38 2.678-.47 4.869-2.572 6.586z" fill="#fff"/></svg>