<svg height="20" viewBox="0 0 450 450" width="20" xmlns="http://www.w3.org/2000/svg"><path d="M225.1 110.245c-63.6 0-114.9 51.414-114.9 115.156s51.3 115.156 114.9 115.156S340 289.143 340 225.4s-51.3-115.156-114.9-115.156zm0 190.022c-41.1 0-74.7-33.574-74.7-74.866s33.5-74.866 74.7-74.866 74.7 33.574 74.7 74.866-33.6 74.866-74.7 74.866zm146.4-194.732c0 14.933-12 26.86-26.8 26.86-14.9 0-26.8-12.028-26.8-26.86s12-26.86 26.8-26.86 26.8 12.027 26.8 26.86zm76.1 27.26c-1.7-35.98-9.9-67.85-36.2-94.109-26.2-26.258-58-34.477-93.9-36.28C280.5.3 169.6.3 132.6 2.405 96.8 4.108 65 12.326 38.7 38.585S4.3 96.715 2.5 132.695c-2.1 37.082-2.1 148.23 0 185.312 1.7 35.98 9.9 67.85 36.2 94.109s58 34.476 93.9 36.28c37 2.105 147.9 2.105 184.9 0 35.9-1.703 67.7-9.922 93.9-36.28 26.2-26.259 34.4-58.13 36.2-94.11 2.1-37.082 2.1-148.128 0-185.21zm-47.8 225c-7.8 19.644-22.9 34.777-42.6 42.695-29.5 11.726-99.5 9.02-132.1 9.02s-102.7 2.606-132.1-9.02c-19.6-7.817-34.7-22.951-42.6-42.695-11.7-29.566-9-99.722-9-132.394s-2.6-102.929 9-132.394C58.2 73.363 73.3 58.229 93 50.312c29.5-11.726 99.5-9.02 132.1-9.02s102.7-2.606 132.1 9.02c19.6 7.817 34.7 22.95 42.6 42.695 11.7 29.565 9 99.721 9 132.394s2.7 102.929-9 132.394z" fill="#fff"/></svg>