<?xml version="1.0" encoding="UTF-8" standalone="no"?>
<!-- Created with Inkscape (http://www.inkscape.org/) -->

<svg
   version="1.1"
   id="svg2"
   width="481.832"
   height="192.93867"
   viewBox="0 0 481.832 192.93867"
   sodipodi:docname="Saluteital.ai"
   xmlns:inkscape="http://www.inkscape.org/namespaces/inkscape"
   xmlns:sodipodi="http://sodipodi.sourceforge.net/DTD/sodipodi-0.dtd"
   xmlns="http://www.w3.org/2000/svg"
   xmlns:svg="http://www.w3.org/2000/svg">
  <defs
     id="defs6">
    <clipPath
       clipPathUnits="userSpaceOnUse"
       id="clipPath16">
      <path
         d="M 0,144.704 H 361.374 V 0 H 0 Z"
         id="path14" />
    </clipPath>
  </defs>
  <sodipodi:namedview
     id="namedview4"
     pagecolor="#ffffff"
     bordercolor="#000000"
     borderopacity="0.25"
     inkscape:showpageshadow="2"
     inkscape:pageopacity="0.0"
     inkscape:pagecheckerboard="0"
     inkscape:deskcolor="#d1d1d1" />
  <g
     id="g8"
     inkscape:groupmode="layer"
     inkscape:label="Saluteital"
     transform="matrix(1.3333333,0,0,-1.3333333,0,192.93867)">
    <g
       id="g10">
      <g
         id="g12"
         clip-path="url(#clipPath16)">
        <g
           id="g18"
           transform="translate(45.9971,43.9574)">
          <path
             d="m 0,0 h -24.661 c -9.665,0 -17.572,7.907 -17.572,17.572 V 50.384 H 1.346 C 8.888,32.658 8.525,14.943 0,0 m -5.378,64.576 c 0.695,-0.2 4.185,-1.179 7.102,-1.612 v 13.804 c 0,9.665 7.908,17.572 17.573,17.572 H 52.108 V 93.109 C 44.994,59.901 31.839,30.421 -5.378,64.576"
             style="fill:#009246;fill-opacity:1;fill-rule:nonzero;stroke:none"
             id="path20" />
        </g>
        <g
           id="g22"
           transform="translate(142.062,76.768)">
          <path
             d="m 0,0 v -32.811 h -43.957 v -26.385 c 0,-9.664 -7.908,-17.572 -17.572,-17.572 h -32.812 v 21.408 c -7.835,-3.137 -17.313,-4.634 -22.245,-4.729 38.22,12.98 65.215,47.187 72.629,90.653 V 17.572 h 26.384 C -7.908,17.573 0,9.665 0,0"
             style="fill:#ce2b37;fill-opacity:1;fill-rule:nonzero;stroke:none"
             id="path24" />
        </g>
        <g
           id="g26"
           transform="translate(66.4058,118.0971)">
          <path
             d="m 0,0 c 5.068,2.926 11.548,1.19 14.474,-3.878 2.926,-5.068 1.19,-11.548 -3.878,-14.474 -5.068,-2.926 -11.548,-1.19 -14.474,3.878 C -6.804,-9.406 -5.068,-2.926 0,0 m 33.23,26.607 c 5.766,-70.609 -36.536,-128.034 -99.636,-133.284 54.616,16.479 66.142,60.462 37.611,99.952 42.466,-41.436 55.08,-3.534 62.025,33.332"
             style="fill:#f1f2f1;fill-opacity:1;fill-rule:nonzero;stroke:none"
             id="path28" />
        </g>
        <path
           d="m 161.802,61.414 h 12.754 V 23.429 h -12.754 z"
           style="fill:#ffffff;fill-opacity:1;fill-rule:nonzero;stroke:none"
           id="path30" />
        <g
           id="g32"
           transform="translate(187.6402,53.0219)">
          <path
             d="M 0,0 H -7.895 V 8.393 H 20.759 V 0 H 12.863 V -29.594 H -0.001 l 0,29.594 z"
             style="fill:#ffffff;fill-opacity:1;fill-rule:nonzero;stroke:none"
             id="path34" />
        </g>
        <g
           id="g36"
           transform="translate(229.9868,37.5082)">
          <path
             d="M 0,0 -3.588,16.618 -7.343,0 Z M -12.034,23.906 H 4.749 L 15.735,-14.079 H 2.761 l -1.437,7.288 h -9.827 l -1.601,-7.288 h -12.422 z"
             style="fill:#ffffff;fill-opacity:1;fill-rule:nonzero;stroke:none"
             id="path38" />
        </g>
        <g
           id="g40"
           transform="translate(249.3667,61.4145)">
          <path
             d="m 0,0 h 11.927 v -29.593 h 13.194 v -8.393 l -25.121,0 z"
             style="fill:#ffffff;fill-opacity:1;fill-rule:nonzero;stroke:none"
             id="path42" />
        </g>
        <path
           d="m 279.07,61.414 h 12.754 V 23.429 H 279.07 Z"
           style="fill:#ffffff;fill-opacity:1;fill-rule:nonzero;stroke:none"
           id="path44" />
        <g
           id="g46"
           transform="translate(318.2134,37.5082)">
          <path
             d="M 0,0 -3.588,16.618 -7.343,0 Z M -12.035,23.906 H 4.749 L 15.734,-14.079 H 2.76 l -1.436,7.288 h -9.827 l -1.602,-7.288 h -12.422 z"
             style="fill:#ffffff;fill-opacity:1;fill-rule:nonzero;stroke:none"
             id="path48" />
        </g>
        <g
           id="g50"
           transform="translate(179.9175,74.892)">
          <path
             d="M 0,0 C -3.767,0 -7.246,0.645 -10.439,1.934 -13.612,3.183 -16.171,4.871 -18.115,7 v 0.86 l 5.803,7.184 h 0.859 c 1.187,-1.187 2.835,-2.261 4.944,-3.223 2.088,-0.963 4.022,-1.443 5.802,-1.443 1.536,0 2.749,0.22 3.639,0.66 0.89,0.44 1.336,1.059 1.336,1.858 0,0.634 -0.215,1.135 -0.645,1.504 -0.491,0.369 -1.085,0.655 -1.781,0.86 -0.307,0.102 -0.732,0.219 -1.274,0.353 -0.543,0.133 -1.029,0.261 -1.459,0.384 -0.471,0.122 -1.033,0.265 -1.688,0.429 -9.129,2.559 -13.694,7.001 -13.694,13.325 0,3.705 1.524,6.745 4.575,9.12 3.029,2.353 6.969,3.53 11.821,3.53 3.377,0 6.54,-0.563 9.487,-1.688 2.948,-1.126 5.219,-2.6 6.816,-4.421 V 35.401 L 10.562,28.493 H 9.671 c -2.988,2.763 -6.089,4.145 -9.303,4.145 -1.208,0 -2.17,-0.21 -2.886,-0.63 -0.716,-0.42 -1.074,-0.977 -1.074,-1.673 0,-0.635 0.306,-1.197 0.921,-1.689 0.572,-0.491 1.217,-0.88 1.934,-1.167 0.634,-0.286 1.555,-0.593 2.763,-0.92 0.43,-0.123 0.983,-0.282 1.658,-0.476 0.676,-0.195 1.147,-0.333 1.413,-0.415 0.88,-0.287 1.873,-0.635 2.978,-1.044 1.207,-0.471 2.169,-0.921 2.886,-1.351 0.655,-0.43 1.433,-1.013 2.333,-1.75 1.535,-1.29 2.62,-2.968 3.255,-5.035 0.327,-1.044 0.491,-2.241 0.491,-3.592 C 17.04,8.822 15.413,5.66 12.158,3.408 8.863,1.136 4.81,0 0,0"
             style="fill:#ffffff;fill-opacity:1;fill-rule:nonzero;stroke:none"
             id="path52" />
        </g>
        <g
           id="g54"
           transform="translate(215.9937,82.1381)">
          <path
             d="M 0,0 C 1.412,0 2.568,0.43 3.47,1.29 4.35,2.149 4.79,3.08 4.79,4.083 V 5.588 C 3.213,6.345 1.616,6.724 0,6.724 -1.29,6.724 -2.323,6.417 -3.102,5.803 -3.879,5.189 -4.268,4.37 -4.268,3.347 -4.268,2.343 -3.879,1.535 -3.102,0.921 -2.323,0.307 -1.29,0 0,0 M 17.931,3.838 18.79,3.254 19.927,-4.79 19.374,-5.649 c -1.577,-1.024 -3.429,-1.556 -5.558,-1.597 -3.111,0 -5.434,1.259 -6.969,3.776 -2.907,-2.517 -6.285,-3.776 -10.132,-3.776 -3.705,0 -6.704,0.911 -8.996,2.732 -2.293,1.802 -3.44,4.186 -3.44,7.155 0,3.213 1.249,5.822 3.746,7.829 2.477,1.985 5.752,2.978 9.826,2.978 1.944,0 4.165,-0.399 6.663,-1.198 v 0.891 c 0,1.167 -0.615,2.118 -1.843,2.856 -1.228,0.736 -2.723,1.105 -4.483,1.105 -2.416,0 -4.625,-0.717 -6.631,-2.149 h -0.861 l -3.715,5.986 v 0.891 c 1.74,1.31 3.818,2.282 6.234,2.917 2.456,0.655 4.778,0.982 6.969,0.982 4.134,0 7.676,-0.931 10.624,-2.793 1.576,-1.024 2.809,-2.452 3.699,-4.284 0.89,-1.832 1.336,-3.986 1.336,-6.463 V 5.281 c 0,-1.167 0.399,-1.75 1.197,-1.75 0.389,0 0.686,0.102 0.891,0.307"
             style="fill:#ffffff;fill-opacity:1;fill-rule:nonzero;stroke:none"
             id="path56" />
        </g>
        <g
           id="g58"
           transform="translate(239.7271,85.2084)">
          <path
             d="m 0,0 v 32.146 l 11.392,1.198 0.951,-0.584 V 2.21 c 0,-1.166 0.399,-1.75 1.198,-1.75 0.368,0 0.654,0.102 0.859,0.308 L 15.291,0.184 16.427,-7.86 15.874,-8.72 C 14.298,-9.743 12.445,-10.275 10.316,-10.316 3.439,-10.316 0,-6.877 0,0"
             style="fill:#ffffff;fill-opacity:1;fill-rule:nonzero;stroke:none"
             id="path60" />
        </g>
        <g
           id="g62"
           transform="translate(294.564,85.976)">
          <path
             d="M 0,0 0.859,-0.583 1.995,-8.628 1.442,-9.487 c -1.576,-1.024 -3.449,-1.556 -5.618,-1.597 -3.582,0 -6.161,1.494 -7.737,4.483 -2.252,-2.948 -5.333,-4.442 -9.242,-4.483 -3.849,0 -7,1.259 -9.456,3.776 -2.457,2.518 -3.685,5.875 -3.685,10.071 v 18.361 h 12.343 V 3.377 c 0,-1.249 0.338,-2.241 1.013,-2.978 0.675,-0.737 1.596,-1.105 2.763,-1.105 1.167,0 2.088,0.368 2.764,1.105 0.675,0.737 1.013,1.729 1.013,2.978 V 21.124 H -2.088 V 1.443 c 0,-1.167 0.399,-1.75 1.197,-1.75 0.389,0 0.686,0.102 0.891,0.307"
             style="fill:#ffffff;fill-opacity:1;fill-rule:nonzero;stroke:none"
             id="path64" />
        </g>
        <g
           id="g66"
           transform="translate(321.5826,86.2831)">
          <path
             d="M 0,0 0.86,-0.43 4.084,-7.737 3.685,-8.689 c -2.415,-1.802 -5.342,-2.702 -8.782,-2.702 -3.582,0 -6.652,1.064 -9.211,3.193 -2.538,2.108 -3.806,5.281 -3.806,9.518 v 10.685 h -5.528 v 8.812 h 5.528 v 9.119 l 11.237,1.197 0.951,-0.583 V 20.817 H 3.009 V 12.005 H -5.926 V 2.702 c 0,-2.477 1.055,-3.715 3.163,-3.715 0.921,0 1.842,0.337 2.763,1.013"
             style="fill:#ffffff;fill-opacity:1;fill-rule:nonzero;stroke:none"
             id="path68" />
        </g>
        <g
           id="g70"
           transform="translate(344.4566,99.6083)">
          <path
             d="M 0,0 C -2.886,0 -4.585,-1.484 -5.097,-4.452 H 5.035 C 4.871,-3.245 4.391,-2.241 3.593,-1.443 2.63,-0.481 1.433,0 0,0 M 16.672,-10.808 H -5.097 c 0.204,-1.678 0.896,-2.968 2.073,-3.868 1.176,-0.901 2.707,-1.351 4.59,-1.351 3.05,0 5.568,0.941 7.553,2.824 h 0.891 l 5.158,-5.096 v -0.86 c -3.316,-3.664 -8.096,-5.516 -14.339,-5.557 -5.261,0 -9.528,1.545 -12.804,4.636 -3.295,3.07 -4.942,7.02 -4.942,11.851 0,4.831 1.606,8.791 4.82,11.883 3.234,3.07 7.389,4.605 12.465,4.605 4.872,0 8.884,-1.515 12.036,-4.544 3.009,-3.009 4.514,-6.908 4.514,-11.698 0,-1.003 -0.082,-1.945 -0.246,-2.825"
             style="fill:#ffffff;fill-opacity:1;fill-rule:nonzero;stroke:none"
             id="path72" />
        </g>
      </g>
    </g>
  </g>
</svg>
