<?xml version="1.0" encoding="utf-8"?>
<!-- Generator: Adobe Illustrator 16.0.0, SVG Export Plug-In . SVG Version: 6.00 Build 0)  -->
<!DOCTYPE svg PUBLIC "-//W3C//DTD SVG 1.1//EN" "http://www.w3.org/Graphics/SVG/1.1/DTD/svg11.dtd">
<svg version="1.1" id="Layer_1" xmlns="http://www.w3.org/2000/svg" xmlns:xlink="http://www.w3.org/1999/xlink" x="0px" y="0px"
	 width="276px" height="119.097px" viewBox="0 0 276 119.097" enable-background="new 0 0 276 119.097" xml:space="preserve">
<g>
	<path fill="#FFFFFF" d="M217.528,7.431l-0.201-0.203c-0.087-0.061-0.66-0.238-2.874,0.846h0.002
		c-0.534,0.26-5.281,2.409-12.464,5.663c-6.534,2.962-15.234,6.937-24.709,11.288c-22.432,10.333-46.982,21.765-56.951,26.677
		c-0.282,0.14-0.559,0.277-0.817,0.405l-0.488,0.241c-1.353,0.666-2.751,1.355-3.174,1.93c-0.066,0.077-1.909,2.243-3.54,7.374
		c-0.005,0.02-0.008,0.051-0.014,0.072c-0.012,0.063-0.02,0.135-0.025,0.209c-0.012,0.191,0.017,0.404,0.186,0.497
		c0.249,0.135,0.54-0.111,0.767-0.341c-0.033,0.029,0.22-0.184,0.22-0.184l0.214-0.183c0.896-0.861,1.763-1.313,7.335-4.022
		c0.021-0.01,0.042-0.02,0.064-0.033l0.422-0.204l9.474-4.584c0.796-0.383,4.057-1.89,8.828-4.086
		c6.875-3.166,16.896-7.768,27.26-12.527c8.213-3.772,16.893-7.759,24.711-11.353c7.125-3.28,12.916-5.952,15.991-7.389
		c0,0,4.823-2.36,6.285-3.041l0.038-0.018l0.027-0.032c0.017-0.02,0.416-0.48,0.735-1.106l2.606-5.284
		C217.477,7.958,217.614,7.656,217.528,7.431"/>
	<path fill="#FFFFFF" d="M79.949,66.936c-0.483-2.411-1.256-4.732-2.002-6.979c-0.315-0.95-0.653-1.979-0.978-3.045
		c0.629,0.447,1.409,1.001,1.409,1.001c0.417,0.231,0.702,0.286,0.91,0.207c0.126-0.051,0.223-0.148,0.27-0.278
		c0.053-0.145,0.072-0.311,0.073-0.49h0.005c0.19-1.175,0.091-2.204-0.021-2.848c-0.021-0.169-0.063-0.355-0.114-0.545
		c-0.024-0.095-0.044-0.161-0.044-0.161v0.001c-0.419-1.374-1.514-3.21-2.703-5.063l-0.293-0.461l-3.958-6.654
		c-0.173-0.295-0.464-0.348-0.662-0.273c-0.241,0.092-0.381,0.377-0.428,0.557c-0.005,0-0.019-0.004-0.019-0.004l-2.991,8.132
		l-0.007-0.009c0,0-0.541,1.434-0.541,1.903c0,0,0.474,0.687,0.784,1.156l0.039-0.009l0.55,0.733
		c0.453,0.716,0.527,1.706,0.527,1.717c0.933,6.715,3.335,14.811,4.104,17.118c0.664,1.991,1.073,3.523,1.327,4.646
		c-0.646,0.473-1.856,1.391-1.856,1.391c-7.845,5.349-15.607,9.367-23.726,12.281c-0.186,0.068-18.57,6.926-29.887-2.493
		c-4.117-3.427-6.476-8.378-6.769-14.089c0.102-1.587,0.642-6.747,3.467-12.959c0.014-0.025,1.274-2.731,1.535-4.411l0.001-0.003
		c0.412-2.254,0.06-2.977-0.13-3.193c-0.002-0.002-0.005-0.002-0.005-0.006c-0.056-0.062-0.097-0.082-0.097-0.082l-0.002,0.004
		c-0.08-0.057-0.169-0.103-0.273-0.116c-0.639-0.069-1.446,0.697-3.505,4.729c-2.303,4.506-5.603,12.548-5.248,21.066
		c-0.105,2.729,0.121,5.539,0.851,8.327c0.687,2.626,1.896,5.275,3.409,7.461c2.763,3.996,6.8,7.002,11.364,8.459l0.09,0.027
		c6.621,2.118,14.076,1.946,22.161-0.512c7.657-2.328,13.84-5.941,14.099-6.091c10.99-5.943,15.823-10.787,15.871-10.835
		c1.926-2.477,3.086-6.93,3.471-9.171c0.213-1.257,0.321-2.51,0.321-3.729c0-0.419-0.017-0.836-0.043-1.253
		c0.026-0.425,0.043-0.851,0.043-1.271C80.33,69.501,80.202,68.191,79.949,66.936"/>
	<path fill="#FFFFFF" d="M23.718,10.572L23.718,10.572c-0.232,0.448-1.061,2.092-1.994,4.416l-0.353,0.886l-2.755,6.854
		l-2.553,6.312c-1.008,2.557-3.105,7.875-4.065,12.814c-0.235,1.222-1.254,7.542,1.952,11.938c0.531,0.73,2.476,3.079,5.189,2.665
		c0.313-0.046,3.121-0.559,5.248-4.471l0.119-0.225c1.858-3.389,2.916-7.067,3.145-10.933c0.013-0.279-0.053-1.097-0.545-1.2
		c-0.585-0.125-1.078,0.599-2.03,2.98l-0.319,0.877c-0.345,0.986-0.866,2.474-1.377,3.02c-0.941,1.004-2.08,1.167-3.387,0.48
		c-0.89-0.466-3.005-2.045-3.409-6.612c-0.213-2.434,0.494-5.977,2.165-10.831c0.041-0.102,4.417-11.01,4.881-12.885
		c0.004-0.012,1.006-3.171,0.985-4.869c-0.014-0.626-0.083-1.024-0.218-1.256l-0.042-0.072l-0.119-0.073l-0.013-0.007l-0.08-0.021
		C23.938,10.352,23.796,10.423,23.718,10.572"/>
	<path fill="#FFFFFF" d="M196.887,108.214c0,0,4.304-7.042,5.037-7.942c0,0,0.017-0.392,0.989,0.375
		c0.967,0.769,7.436,5.692,7.436,5.692s0.54,0.212-0.104,1.411l-4.191,6.654c0,0-0.422,0.621-1.538-0.249
		c-0.875-0.682-7.538-5.74-7.538-5.74L196.887,108.214z"/>
	<path fill="#FFFFFF" d="M39.496,71.265c0,0,4.305-7.04,5.039-7.942c0,0,0.015-0.393,0.985,0.374
		c0.971,0.768,7.438,5.691,7.438,5.691s0.542,0.213-0.103,1.415l-4.191,6.653c0,0-0.422,0.62-1.538-0.252
		c-0.874-0.679-7.537-5.74-7.537-5.74L39.496,71.265z"/>
	<path fill="#FFFFFF" d="M264.691,81.946c0.004-0.394,0.008-0.796,0.008-1.206c0-0.31-0.001-0.621-0.004-0.938
		c-0.012-1.396-0.107-8.767-0.854-16.718c-0.182-1.913-1.96-19.62-2.724-25.875l-0.394-3.198c0,0-0.354-3.009-0.606-5.15
		c0.677,0.822,2.251,2.728,2.251,2.728c0.212,0.274,0.747,0.956,1.232,0.793c0.254-0.085,0.403-0.693,0.452-1.187
		c0.01-0.083,0.019-0.166,0.024-0.252c0.096-0.937,0.062-2.149,0.016-2.984c-0.003-0.254-0.019-0.54-0.061-0.875
		c-0.004-0.05-0.008-0.083-0.008-0.083l-0.004,0.001c-0.168-1.261-0.689-3.244-2.045-7.089l-3.707-9.778
		c-0.753-2.025-1.408-3.602-1.765-4.222c-0.036-0.1-0.209-0.272-0.448-0.288c-0.149-0.01-0.372,0.037-0.568,0.315l-0.052,0.09
		c-0.339,0.74-2.085,4.582-3.141,7.47c0,0-0.544,1.433-0.544,1.901c0,0,0.294,0.521,0.604,0.992h0.002
		c0.18,0.255,0.456,0.633,0.661,1.222l0.21,0.718c0.083,0.363,0.173,1.41,0.294,2.98c0.04,0.774,0.509,5.739,1.16,12.61l0.766,8.086
		c0.009,0.094,1.623,15.283,2.773,27.58c0.362,3.854,1.448,16.158,1.545,25.71c-0.003,0.2-0.004,0.401-0.008,0.598
		c0,0,0.005-0.005,0.007-0.006c-0.005,0.027-0.008,0.062-0.011,0.132c-0.106,2.962-0.163,3.879-0.193,4.125v0.069
		c0,0.157,0.037,0.318,0.112,0.455c-0.057,1.313-0.089,1.823-0.112,1.998v0.069c0,0.292,0.108,0.614,0.416,0.72
		c0.457,0.157,0.867-0.293,1.242-0.799c1.061-1.431,3.48-6.152,3.48-19.396c0-0.309-0.001-0.619-0.004-0.937
		C264.695,82.229,264.695,82.098,264.691,81.946"/>
	<path fill="#FFFFFF" d="M150.412,108.69c0,0,4.303-7.038,5.036-7.941c0,0,0.016-0.39,0.986,0.377
		c0.971,0.766,7.436,5.69,7.436,5.69s0.543,0.214-0.101,1.414l-4.192,6.653c0,0-0.421,0.619-1.539-0.253
		c-0.873-0.677-7.535-5.738-7.535-5.738L150.412,108.69z"/>
	<path fill="#FFFFFF" d="M162.92,107.737c0,0,4.305-7.04,5.039-7.943c0,0,0.015-0.389,0.987,0.376
		c0.968,0.766,7.436,5.69,7.436,5.69s0.541,0.214-0.103,1.414l-4.191,6.654c0,0-0.422,0.62-1.539-0.252
		c-0.875-0.679-7.537-5.738-7.537-5.738L162.92,107.737z"/>
	<path fill="#FFFFFF" d="M241.343,27.361c-0.017-0.223-0.028-0.361-0.028-0.361l-0.019,0.011c-0.187-1.27-0.711-3.243-1.997-6.925
		l-3.67-9.791c-0.743-2.027-1.395-3.607-1.745-4.229c-0.105-0.173-0.271-0.278-0.451-0.29c-0.217-0.015-0.411,0.096-0.581,0.331
		l-0.041,0.078c-0.339,0.733-2.092,4.543-3.17,7.454c0,0-0.542,1.433-0.542,1.901c0,0,0.294,0.521,0.604,0.992
		c0.176,0.252,0.452,0.63,0.656,1.226l0.211,0.719c0.081,0.355,0.166,1.363,0.281,2.981c0.035,0.743,0.426,5.069,1.117,12.651
		l2.023,21.914c0.072,0.78,1.56,17.141,1.927,25.617c-1.226,0.711-4.383,2.328-8.128,1.958c-0.906-0.086-3.977-0.645-5.419-4.138
		c-0.099-0.239-0.626-1.766-0.747-3.287c-0.057-0.63-0.222-2.145-0.566-2.653l-0.067-0.101l-0.57-0.055
		c-0.811,0.131-2.21,0.966-4.4,4.193c-0.679,1.001-2.556,3.519-3.219,4.192c-1.031,1.051-4.785,4.328-9.813,2.388
		c-0.031-0.012-2.999-1.185-3.655-4.424c-0.004-0.014-0.263-1.587-0.3-3.263c-0.036-1.675-0.178-2.348-0.282-2.707
		c-0.24-0.459-0.793-0.56-1.649-0.311c-2.219,0.648-4.569,1.694-6.841,2.706l-1.333,0.591c-3.207,1.409-5.729,2.497-8.996,3.676
		c-8.764,3.162-14.705,4.872-21.919,6.317c-2.388,0.476-4.615,0.859-6.812,1.173c-11.439,1.636-28.212,2.897-41.734-4.995
		c-6.239-3.64-10.148-9.526-11.31-17.025c-0.784-5.071-1.396-15.365-1.51-17.375c-0.034-1.668-0.275-10.665-1.633-23.842
		c-0.018-0.133-1.814-13.463-4.61-18.595c-0.193-0.242-0.396-0.329-0.61-0.266c-0.274,0.081-0.468,0.421-0.55,0.688l-2.979,7.403
		l-0.034,0.09l-0.119,0.401c0,0-0.541,1.434-0.541,1.902c0,0-0.243,0.235,0.801,2.078c0.462,1.286,1.772,5.449,2.749,13.732
		c0.219,1.831,0.986,8.821,1.625,21.972c0.006,0.142,0.699,14.274,1.436,19.212l0.034,0.237c0.679,4.573,1.943,13.084,11.423,19.704
		c11.065,7.728,28.142,9.903,48.084,6.128c4.249-0.803,7.681-1.563,10.793-2.391c4.108-1.093,8.168-2.444,11.241-3.503
		c1.94-0.668,4.489-1.564,6.972-2.605l2.096-0.889l9.885-4.172l1.373-0.557c0.399-0.147,0.592-0.169,0.631-0.163
		c-0.003,0-0.003,0.001-0.003,0.003c0,0.037,0.086,0.257,0.086,0.257l0.297,2.268c-0.001-0.009,0.008,0.1,0.008,0.1
		c0.197,2.317,1.227,6.465,5.91,8.222c0.048,0.018,4.771,1.702,9.383-1.138c1.149-0.708,3.42-2.476,5.723-6.356
		c0.759-1.283,1.389-2.158,1.879-2.64c0.099,1.242,0.388,3.392,1.274,4.918c1.033,1.773,2.576,3.665,6.188,4.23
		c0.058,0.007,5.541,0.667,9.805-2.36c0.036-0.018,3.927-2.573,5.488-12.768c0.069-0.513,0.397-3.186,0.438-5.478v-0.352
		c0-0.018-0.004-0.502-0.024-1.36c0.012-0.272,0.021-0.544,0.024-0.813v-0.351c0-0.063-0.064-7.14-0.862-15.972l-0.718-7.259
		c0-0.001-1.229-10.831-1.229-10.831l-0.824-7.431l-0.101-0.885c0.657,0.804,2.205,2.693,2.205,2.693
		c0.004,0.003,0.071,0.079,0.071,0.079c0.216,0.245,0.725,0.819,1.173,0.669c0.31-0.102,0.388-0.616,0.446-1.135
		c0.02-0.211,0.036-0.427,0.039-0.669c0.065-0.841,0.039-1.844,0.001-2.597C241.389,27.889,241.374,27.643,241.343,27.361"/>
	<path fill="#FFFFFF" d="M44.018,16.383c-0.463,0.102-0.928,0.203-1.39,0.303c-0.23,0.05-0.459,0.1-0.689,0.149
		c-0.005,0.002-0.252,0.171-0.252,0.171c-0.171,0.241-0.338,0.485-0.507,0.734c-1.597,2.358-3.077,4.956-3.903,6.458
		c-0.354,0.643-0.587,1.085-0.659,1.222c-0.097,0.205-0.095,0.397,0.005,0.525c0.19,0.239,0.546,0.172,0.662,0.15
		c0.005,0,0.729-0.16,0.729-0.16c7.974-1.74,14.098-0.49,14.77-0.342c0.174,0.04,0.251,0.08,0.299,0.115
		c-2.177,1.298-4.214,2.329-5.545,2.966c-4.6,2.202-8.33,4.166-9.039,4.604c-0.617,0.379-1.363,0.921-1.407,1.354
		c-0.004,0.032-0.008,0.066-0.011,0.1c0.034,0.062,0.068,0.125,0.102,0.187c0.044,0.041,0.101,0.094,0.334,0.104
		c0.208,0.009,0.559-0.018,1.166-0.12c0.008,0.004,1.115-0.204,3.265-0.62c2.101-0.394,4.716-0.885,6.583-1.368
		c0.947-0.245,1.704-0.488,2.103-0.714c1.951-1.116,3.63-3.016,4.315-3.964c1.476-2.033,4.052-6.29,5.271-8.503
		c0.129-0.232,0.242-0.442,0.336-0.624c0.187-0.357,0.278-0.671,0.277-0.931c0-0.19-0.067-0.358-0.197-0.5
		c-0.055-0.057-0.116-0.111-0.192-0.159c-1.571-0.679-3.315-1.101-5.061-1.348c-1.604-0.228-3.211-0.31-4.691-0.31
		C47.29,15.863,44.55,16.295,44.018,16.383"/>
</g>
</svg>
