<?xml version="1.0" encoding="utf-8"?>
<!-- Generator: Adobe Illustrator 16.0.0, SVG Export Plug-In . SVG Version: 6.00 Build 0)  -->
<!DOCTYPE svg PUBLIC "-//W3C//DTD SVG 1.0//EN" "http://www.w3.org/TR/2001/REC-SVG-20010904/DTD/svg10.dtd">
<svg version="1.0" id="Layer_1" xmlns="http://www.w3.org/2000/svg" xmlns:xlink="http://www.w3.org/1999/xlink" x="0px" y="0px"
	 width="56.059px" height="55.719px" viewBox="0 0 56.059 55.719" enable-background="new 0 0 56.059 55.719" xml:space="preserve">
<circle fill="#FFFFFF" cx="28.199" cy="27.86" r="27.86"/>
<circle fill="#BA2529" cx="28.2" cy="27.86" r="20.499"/>
<g>
	<g>
		<path fill="#FFFFFF" d="M36.519,21.789c-0.479-0.479-1.059-0.719-1.736-0.719h-2.148l-0.489-1.305
			c-0.121-0.313-0.344-0.583-0.667-0.811c-0.322-0.227-0.653-0.341-0.992-0.341h-4.911c-0.339,0-0.67,0.114-0.993,0.341
			c-0.323,0.228-0.545,0.497-0.666,0.811l-0.489,1.305h-2.148c-0.679,0-1.257,0.239-1.736,0.719s-0.72,1.059-0.72,1.736v8.595
			c0,0.678,0.24,1.257,0.72,1.735c0.479,0.48,1.058,0.72,1.736,0.72h13.505c0.678,0,1.257-0.239,1.735-0.72
			c0.48-0.479,0.72-1.058,0.72-1.735v-8.595C37.238,22.847,36.999,22.268,36.519,21.789z M31.066,30.858
			c-0.841,0.841-1.853,1.262-3.036,1.262c-1.183,0-2.194-0.421-3.035-1.262c-0.842-0.841-1.262-1.853-1.262-3.035
			c0-1.184,0.421-2.195,1.262-3.036s1.853-1.262,3.035-1.262s2.195,0.421,3.036,1.262s1.261,1.853,1.261,3.036
			C32.327,29.005,31.907,30.017,31.066,30.858z"/>
		<path fill="#FFFFFF" d="M28.03,25.06c-0.761,0-1.411,0.27-1.952,0.811c-0.54,0.54-0.811,1.19-0.811,1.952
			c0,0.761,0.271,1.411,0.811,1.951c0.541,0.54,1.191,0.811,1.952,0.811s1.412-0.271,1.952-0.811s0.811-1.19,0.811-1.951
			c0-0.762-0.271-1.412-0.811-1.952C29.442,25.33,28.791,25.06,28.03,25.06z"/>
	</g>
</g>
</svg>
