<?xml version="1.0" encoding="utf-8"?>
<!-- Generator: Adobe Illustrator 16.0.0, SVG Export Plug-In . SVG Version: 6.00 Build 0)  -->
<!DOCTYPE svg PUBLIC "-//W3C//DTD SVG 1.1//EN" "http://www.w3.org/Graphics/SVG/1.1/DTD/svg11.dtd">
<svg version="1.1" id="Layer_1" xmlns="http://www.w3.org/2000/svg" xmlns:xlink="http://www.w3.org/1999/xlink" x="0px" y="0px"
	 width="512px" height="512px" viewBox="0 0 512 512" enable-background="new 0 0 512 512" xml:space="preserve">
<path fill="#B53438" d="M241.847,89.729c-1.503,0.49-20.358,26.567,1.476,48.632C257.858,106.382,242.511,89.525,241.847,89.729
	 M251.145,217.711c-10.961,37.418-25.417,77.814-40.953,114.384c31.992-12.262,66.799-22.968,99.464-30.546
	C288.992,277.84,268.336,248.23,251.145,217.711 M365.529,317.24c12.478,9.475,15.517,14.269,23.697,14.269
	c3.576,0,13.796-0.148,18.516-6.662c2.291-3.166,3.182-5.192,3.518-6.257c-1.869-0.997-4.383-2.979-17.991-2.979
	C385.521,315.615,375.811,315.944,365.529,317.24 M156.721,384.435c-32.733,18.145-46.067,33.072-47.02,41.487
	c-0.157,1.401-0.571,5.059,6.588,10.465C118.583,435.665,131.902,429.669,156.721,384.435 M115.95,461.939
	c-5.332,0-10.444-1.703-14.81-4.93c-15.938-11.831-18.088-24.975-17.075-33.931c2.781-24.597,33.604-50.382,91.645-76.641
	c23.029-49.849,44.944-111.269,58.006-162.578c-15.271-32.849-30.137-75.463-19.317-100.464c3.794-8.758,8.546-15.484,17.367-18.393
	c3.502-1.135,12.32-2.576,15.563-2.576c8.036,0,15.753,9.588,19.468,15.823c6.915,11.572,6.95,25.05,5.855,38.05
	c-1.059,12.626-3.213,25.186-5.686,37.603c-1.809,9.124-3.857,18.21-6.039,27.26c20.636,42.082,49.86,84.971,77.894,114.336
	c20.086-3.578,37.357-5.394,51.433-5.394c23.955,0,38.506,5.515,44.422,16.87c4.923,9.399,2.89,20.412-5.977,32.674
	c-8.527,11.785-20.263,18.005-33.985,18.005c-18.644,0-40.307-11.614-64.494-34.557c-43.442,8.976-94.167,24.97-135.177,42.675
	c-12.803,26.825-25.062,48.431-36.493,64.289C142.891,451.814,129.354,461.939,115.95,461.939"/>
</svg>
