<?xml version="1.0" encoding="utf-8"?>
<!-- Generator: Adobe Illustrator 16.0.0, SVG Export Plug-In . SVG Version: 6.00 Build 0)  -->
<!DOCTYPE svg PUBLIC "-//W3C//DTD SVG 1.1//EN" "http://www.w3.org/Graphics/SVG/1.1/DTD/svg11.dtd">
<svg version="1.1" id="Layer_1" xmlns="http://www.w3.org/2000/svg" xmlns:xlink="http://www.w3.org/1999/xlink" x="0px" y="0px"
	 width="512px" height="512px" viewBox="0 0 512 512" enable-background="new 0 0 512 512" xml:space="preserve">
<path fill="#B53438" d="M0,353.102h512V512H0V353.102z"/>
<path fill="#B53438" d="M240.666,78.647c-0.863,0.281-11.695,15.262,0.848,27.938C249.865,88.214,241.048,78.53,240.666,78.647
	 M246.009,152.171c-6.297,21.496-14.602,44.703-23.527,65.711c18.379-7.043,38.375-13.195,57.141-17.547
	C267.752,186.714,255.884,169.702,246.009,152.171 M311.721,209.347c7.168,5.445,8.914,8.199,13.613,8.199
	c2.055,0,7.926-0.086,10.637-3.828c1.316-1.82,1.828-2.984,2.02-3.594c-1.074-0.574-2.516-1.711-10.336-1.711
	C323.205,208.413,317.627,208.604,311.721,209.347 M191.763,247.949c-18.805,10.424-26.465,18.999-27.012,23.834
	c-0.09,0.805-0.328,2.906,3.785,6.012C169.853,277.381,177.505,273.936,191.763,247.949 M168.341,292.475
	c-3.063,0-6-0.98-8.508-2.832c-9.156-6.797-10.391-14.348-9.809-19.492c1.598-14.132,19.305-28.944,52.648-44.03
	c13.23-28.637,25.82-63.922,33.324-93.398c-8.773-18.871-17.313-43.352-11.098-57.715c2.18-5.031,4.91-8.895,9.977-10.566
	c2.012-0.652,7.078-1.48,8.941-1.48c4.617,0,9.051,5.508,11.184,9.09c3.973,6.648,3.993,14.391,3.364,21.859
	c-0.609,7.254-1.844,14.469-3.266,21.602c-1.039,5.242-2.215,10.461-3.469,15.66c11.856,24.176,28.645,48.816,44.747,65.684
	c11.539-2.055,21.461-3.098,29.547-3.098c13.762,0,22.121,3.168,25.52,9.691c2.828,5.402,1.66,11.727-3.434,18.77
	c-4.898,6.77-11.641,10.344-19.523,10.344c-10.711,0-23.156-6.672-37.051-19.852c-24.957,5.156-54.098,14.344-77.657,24.516
	c-7.355,15.411-14.398,27.823-20.965,36.933C183.818,286.658,176.041,292.475,168.341,292.475"/>
<g>
	<path fill="#FFFFFF" d="M144.236,454.742c0-3.688,1.006-10.505,2.124-13.522l10.058-3.8l1.229,0.447
		c-0.559,2.794-0.782,6.929-0.782,10.505c0,10.617,5.7,15.758,17.322,15.758c8.493,0,15.757-2.906,19.222-7.712
		c1.118-5.587-0.894-12.293-6.37-24.139l12.181-8.605h0.67c3.353,7.6,6.035,17.881,6.035,24.14
		c0,18.216-13.634,30.285-34.532,30.285C154.63,478.099,144.236,469.158,144.236,454.742z M162.676,413.393l7.487-10.952
		l11.846,8.271l-7.376,11.175L162.676,413.393z"/>
	<path fill="#FFFFFF" d="M218.662,434.515V383.33l12.852-3.464l1.118,0.67v52.973c0,7.6,3.017,9.834,11.175,9.834
		c3.241,0,4.47,1.677,4.47,4.471c0,5.699-2.123,9.499-7.487,9.499C226.038,457.313,218.662,450.607,218.662,434.515z"/>
	<path fill="#FFFFFF" d="M288.507,447.813c0,5.252-1.677,9.499-7.376,9.499c-8.382,0-15.98-1.788-20.34-5.253
		c-4.023,3.354-9.164,5.253-16.316,5.253h-3.688l3.018-13.97h2.57c2.794,0,6.37-0.446,7.711-1.452
		c1.118-2.794,2.57-8.271,3.912-15.646l14.416-3.353l1.117,0.782c-1.564,6.594-3.129,12.517-5.252,17.435
		c3.24,1.229,8.27,2.234,15.757,2.234C287.501,443.343,288.507,445.354,288.507,447.813z M266.826,465.471l11.398,7.823
		l-7.152,10.729l-10.84-7.712l-5.141,7.712l-11.399-8.047l7.041-10.505l11.063,7.6L266.826,465.471z"/>
	<path fill="#FFFFFF" d="M325.941,447.813c0,5.252-1.788,9.499-7.487,9.499c-5.7,0-12.964-1.899-17.435-5.364
		c-4.246,3.465-9.946,5.364-17.881,5.364h-2.123l3.018-13.97h2.012c4.246,0,7.376-0.446,8.828-1.452
		c1.118-2.794,2.459-8.271,3.8-15.646l14.417-3.353l1.117,0.782c-1.564,6.706-3.129,12.629-5.364,17.546
		c3.129,1.229,7.487,2.123,12.628,2.123C324.824,443.343,325.941,445.354,325.941,447.813z M298.562,465.471l11.846,8.158
		l-7.376,11.176l-11.958-8.382L298.562,465.471z"/>
	<path fill="#FFFFFF" d="M321.468,443.343c3.129,0,6.705-0.335,8.94-1.452c0.447-1.788,0.782-4.358,0.782-8.271v-50.29l12.964-3.464
		l1.006,0.67v52.414c0,19.557-10.059,24.362-26.71,24.362L321.468,443.343z"/>
	<path fill="#FFFFFF" d="M358.792,457.424V383.33l12.963-3.464l1.118,0.67l-0.336,74.877l-12.852,2.682L358.792,457.424z"/>
</g>
</svg>
