<?xml version="1.0" encoding="UTF-8"?>
<svg width="56px" height="61px" viewBox="0 0 56 61" version="1.1" xmlns="http://www.w3.org/2000/svg" xmlns:xlink="http://www.w3.org/1999/xlink">
    <!-- Generator: sketchtool 51.1 (57501) - http://www.bohemiancoding.com/sketch -->
    <title>151572EF-B7D0-4979-BA00-4FEB78C46062</title>
    <desc>Created with sketchtool.</desc>
    <defs></defs>
    <g id="Page-1" stroke="none" stroke-width="1" fill="none" fill-rule="evenodd">
        <g id="Loyalty-programm-1.1-Copy" transform="translate(-1172.000000, -941.000000)" fill-rule="nonzero">
            <g id="-g-Group" transform="translate(1172.000000, 941.000000)">
                <g id="Group-60911">
                    <polygon id="Path_72093" fill="#C9993F" points="27.9465455 60.5793103 1.90145455 45.9393103 1.90145455 16.6921241 27.9465455 31.3321241"></polygon>
                    <polygon id="Path_72094" fill="#E7BE69" points="53.9865455 45.951931 27.9567273 60.591931 27.9567273 31.3220276 53.9865455 16.6820276"></polygon>
                    <polygon id="Path_72095" fill="#E7BE69" points="28 31.476 3.55271368e-15 15.7506207 28 0.0100965517 56 15.7506207"></polygon>
                    <polygon id="Path_72096" fill="#BA8D3A" points="1.75127273 18.2242759 1.90145455 27.7125103 27.972 42.7790897 27.972 32.8137931"></polygon>
                    <polygon id="Path_72097" fill="#C9993F" points="53.9890909 17.9617655 53.9763636 28.1895724 28 42.7790897 28 32.8036966"></polygon>
                    <polygon id="Path_72098" fill="#B14D42" points="9.65490909 20.8948138 37.1458182 5.15428966 42.2647273 8.02171034 15.3770909 24.3024"></polygon>
                    <path d="M39.5970909,2.53928276 L43.6698182,3.86193103 C46.0143323,4.78865928 47.5119984,7.08366691 47.404,9.58415172 L47.404,12.3455586 L40.9130909,10.4827448 L39.5970909,2.53928276 Z" id="Path_72099" fill="#D88C71"></path>
                    <polygon id="Path_72100" fill="#E8C584" points="56 15.7405241 56 25.5594207 28 41.2999448 28 31.3220276"></polygon>
                    <polygon id="Path_72101" fill="#B14D42" points="12.1112727 8.93292414 39.1210909 25.1227448 44.7210909 22.0180552 17.332 5.99987586"></polygon>
                    <path d="M44.688,22.0180552 L44.688,51.0910759 L39.3909091,54.1427586 C39.5970909,54.039269 39.1210909,25.0722621 39.1210909,25.0722621 L44.688,22.0180552 Z" id="Path_72102" fill="#B14D42"></path>
                    <path d="M47.404,12.3455586 C44.8960767,14.5502346 41.6705896,15.784278 38.3192727,15.8212966 L26.4243636,15.8212966 L26.4243636,15.3316138 L35.3334545,8.42052414 L44.9196364,6.74197241 L47.404,12.3455586 Z" id="Path_72103" fill="#964B43"></path>
                    <path d="M26.4243636,15.3290897 L32.1541818,5.11390345 C33.8206883,2.76198214 36.8137327,1.72527086 39.5945455,2.53675862 L43.6672727,3.8594069 C46.0117868,4.78613515 47.5094529,7.08114277 47.4014545,9.58162759 L47.4014545,12.3430345 L40.9105455,10.4802207 C37.2795701,9.46812398 33.3788987,10.2879525 30.4741818,12.6736966 L26.4829091,15.8187724 L26.4243636,15.3290897 Z" id="Path_72104" fill="#D46652"></path>
                    <polygon id="Path_72105" fill="#D88C71" points="39.5945455 2.53928276 38.8487273 10.0990759 41.6869091 10.7326345 42 3.29147586"></polygon>
                    <path d="M28.7050909,15.5436414 C28.7050909,15.5436414 39.3374545,14.0897379 41.5367273,17.7901241 C43.736,21.4905103 38.4261818,24.4639448 43.6010909,28.9972966 C48.776,33.5306483 46.7370909,35.5120966 46.7370909,35.5120966 L41.6869091,38.9348276 C41.6869091,38.9348276 43.1250909,36.2920552 40.1596364,31.7587034 C37.3596364,27.5156276 36.5476364,25.0444966 37.688,20.3268828 C37.7438151,19.7781099 37.3850422,19.2718654 36.8454545,19.1380138 L26.628,15.8238207 L28.7050909,15.5436414 Z" id="Path_72106" fill="#D46652"></path>
                    <polygon id="Path_72107" fill="#D88C71" points="35.168 2.74878621 34.5163636 10.5206069 36.1327273 10.1647034 36.8785455 2.2893931"></polygon>
                    <polygon id="Path_72108" fill="#D2A562" points="0 15.7405241 0 25.1101241 28 41.2999448 28 31.3220276"></polygon>
                    <polygon id="Path_72109" fill="#B14D42" points="8.82509091 49.8365793 9.65236364 20.8948138 15.3821818 24.3049241 14.5803636 53.0800966"></polygon>
                    <path d="M5.404,12.3455586 C7.91715025,14.5499213 11.1464403,15.7836913 14.5014545,15.8212966 L26.3276364,15.8212966 L26.4218182,15.3316138 L19.5109091,8.33975172 L7.81963636,6.74197241 L5.404,12.3455586 Z" id="Path_72110" fill="#964B43"></path>
                    <path d="M26.7374545,15.5688828 L20.5850909,5.11642759 C18.9258522,2.76267614 15.9346069,1.72481266 13.1574545,2.53928276 L9.08472727,3.86193103 C6.72804681,4.80169915 5.2331157,7.12164348 5.36327273,9.63715862 L5.36327273,12.3985655 L11.8669091,10.5357517 C15.497972,9.52633404 19.3973798,10.345897 22.3032727,12.7292276 L26.2945455,15.8743034 L26.7374545,15.5688828 Z" id="Path_72111" fill="#D46652"></path>
                    <polygon id="Path_72112" fill="#D88C71" points="16.0770909 2.23386207 15.3847273 10.0586897 18.8618182 10.7326345 19.2410909 3.75591724"></polygon>
                    <path d="M23.0974545,15.5436414 C23.0974545,15.5436414 12.4650909,14.0897379 10.2785455,17.7901241 C8.092,21.4905103 13.3738182,24.4639448 8.20145455,28.9972966 C3.02909091,33.5306483 5.06545455,35.5120966 5.06545455,35.5120966 L10.1156364,38.9348276 C10.1156364,38.9348276 8.67745455,36.2920552 11.6429091,31.7587034 C14.4429091,27.5156276 15.2549091,25.0444966 14.1145455,20.3268828 C14.065352,19.7798491 14.4213969,19.2774541 14.9570909,19.1380138 L25.1821818,15.8212966 L23.0974545,15.5436414 Z" id="Path_72113" fill="#D46652"></path>
                    <polygon id="Path_72114" fill="#D88C71" points="20.72 5.35369655 20.1498182 11.2879448 21.9010909 12.3455586 21.9010909 6.74197241"></polygon>
                </g>
            </g>
        </g>
    </g>
</svg>