<?xml version="1.0" encoding="UTF-8"?>
<svg width="32px" height="33px" viewBox="0 0 32 33" version="1.1" xmlns="http://www.w3.org/2000/svg" xmlns:xlink="http://www.w3.org/1999/xlink">
    <!-- Generator: Sketch 48.2 (47327) - http://www.bohemiancoding.com/sketch -->
    <title>Group 7</title>
    <desc>Created with Sketch.</desc>
    <defs></defs>
    <g id="1-Blog-glavnaya-" stroke="none" stroke-width="1" fill="none" fill-rule="evenodd" transform="translate(-692.000000, -4634.000000)">
        <g id="Group-57" transform="translate(137.000000, 4564.000000)">
            <g id="Group-41" transform="translate(497.000000, 69.000000)">
                <g id="Group-7" transform="translate(58.000000, 1.000000)">
                    <path d="M13.3927078,0.201155181 C4.67360529,1.55576384 -1.22469535,9.37459034 0.216816417,17.6674771 C0.822110776,21.1482301 2.37348672,24.1557147 4.90530936,26.3792578 L4.76941102,33 L11.0850393,29.6063516 C13.5036134,30.3979478 15.9094306,30.6487034 18.6120374,30.2284897 C27.3264538,28.8749369 33.2244941,21.0555824 31.7832426,12.7629597 C30.3417309,4.47007291 22.1060828,-1.15266162 13.3927078,0.201155181" id="Fill-6" fill="#29ABE2"></path>
                    <path d="M17.7427975,20.2714286 C17.7427975,20.2714286 15.056509,17.54229 13.5800596,16.3051805 C11.0120023,17.5787071 8.5097456,18.9148925 6.02898551,20.2714286 C7.59299425,18.4299563 10.1041642,16.0815904 12.2247251,13.9072767 C12.4868788,13.6381653 14.2574646,11.7857143 14.2574646,11.7857143 C14.2574646,11.7857143 16.0081268,13.5206131 16.2907284,13.815163 C17.0743057,14.6326728 17.7488271,15.0921706 18.4202026,15.7519623 C20.9853762,14.475758 23.5038864,13.1551035 25.9710145,11.7857143 C23.5379664,14.5402912 17.7427975,20.2714286 17.7427975,20.2714286" id="Fill-7" fill="#FFFFFF"></path>
                </g>
            </g>
        </g>
    </g>
</svg>