<?xml version="1.0" encoding="UTF-8"?>
<svg width="50px" height="50px" viewBox="0 0 50 50" version="1.1" xmlns="http://www.w3.org/2000/svg" xmlns:xlink="http://www.w3.org/1999/xlink">
    <!-- Generator: Sketch 48.2 (47327) - http://www.bohemiancoding.com/sketch -->
    <title>Group 51</title>
    <desc>Created with Sketch.</desc>
    <defs>
        <linearGradient x1="19.0494768%" y1="9.3079069%" x2="63.477562%" y2="92.3075859%" id="linearGradient-1">
            <stop stop-color="#554FE9" offset="0%"></stop>
            <stop stop-color="#E33973" offset="57.8037822%"></stop>
            <stop stop-color="#FBC962" offset="100%"></stop>
        </linearGradient>
    </defs>
    <g id="1-Blog-glavnaya-" stroke="none" stroke-width="1" fill="none" fill-rule="evenodd" transform="translate(-721.000000, -4417.000000)">
        <g id="Group-51" transform="translate(721.000000, 4417.000000)">
            <circle id="Oval-5-Copy-3" fill="url(#linearGradient-1)" cx="25" cy="25" r="25"></circle>
            <g id="Instagram" transform="translate(14.102564, 15.045960)" fill="#FFFFFF">
                <path d="M16.3197015,20.7052435 L6.08034449,20.7052435 C3.20500593,20.7052435 0.86701725,18.3646055 0.86701725,15.4888907 L0.86701725,5.24229868 C0.86701725,2.36658385 3.20500593,0.02594585 6.08034449,0.02594585 L16.3197015,0.02594585 C19.1950401,0.02594585 21.5343205,2.36658385 21.5343205,5.24229868 L21.5343205,15.4888907 C21.5343205,18.3646055 19.1950401,20.7052435 16.3197015,20.7052435 Z M19.2854595,5.24229868 C19.2854595,3.60734171 17.9562936,2.27611192 16.3197015,2.27611192 L6.08034449,2.27611192 C4.44633583,2.27611192 3.11587818,3.60734171 3.11587818,5.24229868 L3.11587818,15.4888907 C3.11587818,17.1238476 4.44633583,18.4550774 6.08034449,18.4550774 L16.3197015,18.4550774 C17.9562936,18.4550774 19.2854595,17.1238476 19.2854595,15.4888907 L19.2854595,5.24229868 Z M16.6942964,6.14055567 C16.00065,6.14055567 15.4348826,5.57575235 15.4348826,4.88041097 C15.4348826,4.18636204 16.00065,3.62155873 16.6942964,3.62155873 C17.3892345,3.62155873 17.9537102,4.18636204 17.9537102,4.88041097 C17.9537102,5.57575235 17.3892345,6.14055567 16.6942964,6.14055567 Z M11.2006689,15.6918063 C8.2659118,15.6918063 5.87754657,13.3020549 5.87754657,10.3655947 C5.87754657,7.4291344 8.2659118,5.03938307 11.2006689,5.03938307 C14.1367176,5.03938307 16.5237911,7.4291344 16.5237911,10.3655947 C16.5237911,13.3020549 14.1354259,15.6918063 11.2006689,15.6918063 Z M11.2006689,7.28954914 C9.50594999,7.28954914 8.1264075,8.66989226 8.1264075,10.3655947 C8.1264075,12.0612971 9.50594999,13.4416402 11.2006689,13.4416402 C12.8953877,13.4416402 14.2736385,12.0612971 14.2736385,10.3655947 C14.2736385,8.66989226 12.8953877,7.28954914 11.2006689,7.28954914 Z" id="Shape"></path>
            </g>
        </g>
    </g>
</svg>