<svg xmlns="http://www.w3.org/2000/svg" width="50" height="51" viewBox="0 0 50 51"><g><g><path fill="#fff" d="M43.75 27.582a6.256 6.256 0 0 1 6.25 6.25c0 .866-.174 1.706-.52 2.495a1.042 1.042 0 0 1-1.91-.831 4.17 4.17 0 0 0-3.82-5.83 4.17 4.17 0 0 0-4.167 4.165 4.17 4.17 0 0 0 5.84 3.818 1.041 1.041 0 1 1 .839 1.906 6.243 6.243 0 0 1-7.551-2.04l-8.08 4.041c.393.817.619 1.728.619 2.692A6.257 6.257 0 0 1 25 50.5a6.257 6.257 0 0 1-6.25-6.25c0-3.09 2.257-5.658 5.208-6.156V33.76a8.345 8.345 0 0 1-6.22-4.187l-5.316 3.323c.047.306.078.617.078.935a6.256 6.256 0 0 1-8.75 5.73 1.04 1.04 0 0 1-.537-1.371 1.04 1.04 0 0 1 1.372-.537 4.17 4.17 0 0 0 5.831-3.822 4.17 4.17 0 0 0-4.166-4.166 4.17 4.17 0 0 0-3.82 5.836 1.041 1.041 0 1 1-1.91.833 6.256 6.256 0 0 1 5.73-8.752 6.253 6.253 0 0 1 5.497 3.278l5.2-3.25a8.312 8.312 0 0 1-.28-2.111c0-1.077.212-2.102.585-3.047l-5.396-2.54a6.252 6.252 0 0 1-5.606 3.503 6.256 6.256 0 0 1-5.725-8.759 1.041 1.041 0 1 1 1.907.837 4.17 4.17 0 0 0 3.818 5.839 4.17 4.17 0 0 0 4.167-4.166 4.171 4.171 0 0 0-5.83-3.822 1.04 1.04 0 0 1-1.371-.538 1.043 1.043 0 0 1 .538-1.372 6.236 6.236 0 0 1 6.915 1.316l8.353-4.178a6.232 6.232 0 0 1-.273-1.824 6.257 6.257 0 0 1 6.25-6.25 6.257 6.257 0 0 1 6.25 6.25c0 3.092-2.257 5.658-5.208 6.157v4.333a8.34 8.34 0 0 1 5.925 3.7l5.556-3.335c-.01-.145-.022-.289-.022-.437a6.257 6.257 0 0 1 6.25-6.251c.87 0 1.712.176 2.503.522.527.23.768.845.537 1.372a1.04 1.04 0 0 1-1.372.537 4.171 4.171 0 0 0-5.834 3.82 4.17 4.17 0 0 0 4.166 4.166 4.17 4.17 0 0 0 3.823-5.83 1.042 1.042 0 1 1 1.91-.83 6.256 6.256 0 0 1-5.733 8.743 6.253 6.253 0 0 1-5.7-3.7l-5.168 3.102c.288.843.451 1.743.451 2.682 0 .73-.104 1.435-.281 2.11l5.201 3.251a6.254 6.254 0 0 1 5.497-3.278zM20.833 6.748A4.17 4.17 0 0 0 25 10.915a4.17 4.17 0 0 0 4.167-4.167A4.17 4.17 0 0 0 25 2.582a4.17 4.17 0 0 0-4.167 4.166zm-2.578 13.874a8.33 8.33 0 0 1 5.702-3.384v-4.333a6.257 6.257 0 0 1-3.996-2.473l-8.08 4.04c.393.817.619 1.728.619 2.694 0 .245-.018.486-.046.725zm.495 4.877a6.256 6.256 0 0 0 6.25 6.25 6.256 6.256 0 0 0 6.25-6.25 6.256 6.256 0 0 0-6.25-6.25 6.256 6.256 0 0 0-6.25 6.25zm10.416 18.75A4.171 4.171 0 0 0 25 40.08a4.171 4.171 0 0 0-4.167 4.167A4.17 4.17 0 0 0 25 48.415a4.17 4.17 0 0 0 4.166-4.167zm8.607-8.594a6.246 6.246 0 0 1-.273-1.824c0-.318.031-.63.078-.938l-5.316-3.322a8.341 8.341 0 0 1-6.22 4.189v4.333a6.24 6.24 0 0 1 3.377 1.74z"/></g></g></svg>