<svg xmlns="http://www.w3.org/2000/svg" width="50" height="51" viewBox="0 0 50 51"><g><g><path fill="#fff" d="M50 33.832c0 9.19-7.477 16.666-16.667 16.666-4.379 0-8.357-1.711-11.335-4.483a12.475 12.475 0 0 1-9.498 4.4c-6.893 0-12.5-5.608-12.5-12.5V12.998C0 6.106 5.607.498 12.5.498S25 6.107 25 12.999v6.422a16.548 16.548 0 0 1 8.333-2.255c9.19 0 16.667 7.477 16.667 16.667zM33.333 19.249c-7.69 0-13.992 5.987-14.53 13.541h29.06c-.537-7.554-6.84-13.541-14.53-13.541zm-31.25-6.25v11.458h17.482a16.784 16.784 0 0 1 3.352-3.614v-7.845c0-5.743-4.673-10.416-10.417-10.416S2.083 7.255 2.083 12.998zM12.5 48.332c3.138 0 6.081-1.428 8.045-3.832a16.586 16.586 0 0 1-3.878-10.67c0-2.616.622-5.085 1.703-7.29H2.083v11.374c0 5.744 4.673 10.418 10.417 10.418zm20.833.082c7.69 0 13.993-5.986 14.531-13.542H18.803c.538 7.556 6.84 13.542 14.53 13.542zm-4.306-5.096a1.041 1.041 0 1 1-.862 1.896 12.625 12.625 0 0 1-6.482-6.845 1.04 1.04 0 1 1 1.94-.757 10.518 10.518 0 0 0 5.404 5.706zm8.662-18.951a1.042 1.042 0 1 1 .872-1.892 12.457 12.457 0 0 1 6.424 6.824 1.04 1.04 0 0 1-.97 1.42 1.04 1.04 0 0 1-.97-.665 10.525 10.525 0 0 0-5.356-5.687zM13.41 6.814a1.04 1.04 0 0 1-.88-1.182c.083-.57.614-.973 1.181-.88 3.623.528 6.517 3.428 7.037 7.053a1.042 1.042 0 0 1-2.063.294 6.273 6.273 0 0 0-5.275-5.285zm-1.806 37.328a1.043 1.043 0 0 1-.295 2.064C7.7 45.689 4.8 42.808 4.26 39.2a1.043 1.043 0 0 1 .875-1.186 1.05 1.05 0 0 1 1.185.876 6.275 6.275 0 0 0 5.285 5.25z"/></g></g></svg>