<svg xmlns="http://www.w3.org/2000/svg" width="51" height="51" viewBox="0 0 51 51"><g><g><path fill="#161616" d="M44.386 45.067c-4.45 4.449-9.275 5.655-12.54 5.884-.47.034-.922.048-1.353.048-2.814 0-4.7-.614-4.791-.644a1.03 1.03 0 0 1-.28-.147 1.012 1.012 0 0 1-.28.147c-.09.03-1.976.644-4.79.644-.431 0-.883-.014-1.353-.048-3.265-.229-8.09-1.435-12.54-5.884C-1.414 37.193.65 28.2 1.143 26.479l.006-.02c.08-.33.325-.6.653-.708.105-.035 2.597-.845 6.145-.597 3.264.229 8.09 1.436 12.54 5.885 2.607 2.609 4.1 5.345 4.936 7.82.835-2.475 2.328-5.211 4.935-7.82 4.45-4.449 9.276-5.656 12.54-5.885 3.548-.248 6.04.562 6.145.597.328.109.573.379.653.708l.006.02c.493 1.722 2.558 10.714-5.316 18.588zm-5.483-17.12v7.167l7.832-7.832a17.188 17.188 0 0 0-7.832.665zm-12.3 19.467L36.91 37.106v-8.358c-1.844.884-3.563 2.119-5.144 3.7-5.673 5.672-5.6 12.013-5.164 14.966zm-7.525-14.966c-1.581-1.581-3.3-2.816-5.144-3.7v8.358l10.31 10.31c.142-.957.248-2.266.134-3.783-.317-4.22-2.1-7.986-5.3-11.185zM4.11 27.282l7.832 7.832v-7.167a17.195 17.195 0 0 0-7.832-.666zm1.924 14.275c.06-.012.122-.019.186-.019h9.33L2.705 28.694c-.407 2.695-.475 7.828 3.328 12.863zm16.8 7.265l-5.292-5.292h-9.8l.126.128c5.673 5.674 12.013 5.6 14.966 5.164zm20.143-5.164l.125-.128h-9.799l-5.293 5.294c.956.142 2.264.248 3.782.134 4.222-.317 7.985-2.1 11.185-5.3zm5.163-14.964L35.295 41.538h9.33a1 1 0 0 1 .186.019c3.804-5.035 3.736-10.168 3.33-12.863zm-27.462-1.585c-1.933-2.224-4.236-6.064-4.236-11.728 0-5.662 2.303-9.503 4.236-11.727 2.101-2.418 4.21-3.492 4.298-3.536a.996.996 0 0 1 .961.038l.014.008c1.411.781 8.452 5.194 8.452 15.217 0 5.664-2.304 9.504-4.237 11.728-2.1 2.418-4.209 3.49-4.297 3.536a.995.995 0 0 1-.893 0c-.089-.045-2.197-1.118-4.298-3.536zm11.733-11.635l-5.993 5.992v6.446a15.215 15.215 0 0 0 2.3-2.174c2.432-2.829 3.674-6.283 3.693-10.264zM20.124 7.999l4.303 4.303V9.729a.996.996 0 1 1 1.991 0v8.92l5.726-5.725a.994.994 0 0 1 .091-.08 15.05 15.05 0 0 0-6.817-10.683 14.8 14.8 0 0 0-3.292 2.864 15.084 15.084 0 0 0-2.002 2.974zm-1.69 7.382c0 6.957 3.83 10.874 5.993 12.53V15.117l-5.14-5.139c-.567 1.671-.854 3.475-.854 5.403zm6.285-8.93a1.005 1.005 0 0 1-.292-.705c0-.263.106-.518.292-.705.185-.185.442-.29.704-.29.261 0 .518.105.703.29.186.185.292.442.292.705 0 .263-.106.52-.292.705a1.004 1.004 0 0 1-.703.291c-.262 0-.52-.107-.704-.291z"/></g></g></svg>