<svg width="112" height="107" viewBox="0 0 112 107" fill="none" xmlns="http://www.w3.org/2000/svg">
<path fill-rule="evenodd" clip-rule="evenodd" d="M40.1041 0.143641C36.9375 0.665372 33.5682 1.99175 30.7665 3.81962C30.1243 4.23868 29.4019 4.6345 29.1611 4.6992C28.9202 4.76403 27.7507 4.93765 26.562 5.08504C20.5795 5.8266 16.4353 7.70931 12.5796 11.437C8.25214 15.6207 5.56813 21.7923 5.56813 27.5591C5.56813 28.637 5.43018 28.9884 4.34171 30.6821C0.00189862 37.4355 -0.682874 45.0872 2.39854 52.3961C5.26198 59.1881 11.4922 64.3182 18.6584 65.7849C20.2998 66.1209 23.3338 66.2612 24.0363 66.0338C25.3043 65.6235 26.0361 64.0713 25.5267 62.8731C25.3169 62.3796 24.5233 61.5958 24.0515 61.4161C23.8594 61.3431 22.9034 61.1983 21.9273 61.0946C17.7794 60.6541 14.5529 59.2973 11.6193 56.7597C6.2487 52.1142 4.19908 44.1833 6.60769 37.3675C7.15588 35.8161 7.89129 34.4741 9.33592 32.3897L10.5231 30.6765L10.6966 27.5882C10.792 25.8896 10.9256 24.2709 10.9933 23.9914C11.4806 21.9813 12.8829 19.0064 14.145 17.3056C15.1463 15.9561 17.0817 14.0746 18.3516 13.2162C20.2584 11.9269 23.0409 10.7434 24.8331 10.459C25.2746 10.389 26.8484 10.27 28.3305 10.1946L31.0251 10.0575L32.5779 8.88842C34.3531 7.5518 36.2639 6.49972 37.8959 5.96038C43.2289 4.19771 48.5535 4.97325 53.3667 8.21355C54.8137 9.18782 57.0385 11.3988 57.9286 12.747C59.6452 15.3473 60.7695 18.6779 61.0064 21.8636C61.1175 23.3604 61.3276 24.0382 61.8569 24.6092C62.2786 25.0641 63.0537 25.4303 63.602 25.4338C64.5666 25.4401 65.697 24.5314 65.9662 23.5334C66.1773 22.7506 66.0259 20.2816 65.6574 18.4957C64.4699 12.7418 61.1128 7.45475 56.5636 4.17373C55.1134 3.12776 52.3558 1.71908 50.6433 1.14926C48.1959 0.334997 46.5665 0.0671988 43.7276 0.0124901C41.908 -0.0224835 40.8889 0.0143637 40.1041 0.143641ZM40.5847 11.9586C38.8542 12.1953 36.8486 13.2875 35.3316 14.8196C34.2456 15.9165 33.3812 17.2542 32.9756 18.4661C32.8642 18.7989 32.7409 19.1037 32.7016 19.1434C32.6624 19.1831 32.3182 19.0976 31.9368 18.9532C31.0777 18.6282 29.2351 18.3178 28.1675 18.3184C25.5403 18.3198 23.4211 19.2294 21.4939 21.1826C20.5599 22.1293 20.3482 22.4344 19.6415 23.8525L18.8437 25.4535L18.8028 27.6892C18.7553 30.294 18.8286 30.6591 19.7873 32.5912C20.1257 33.2734 20.3853 33.8472 20.3641 33.8663C20.3429 33.8856 19.8255 34.1546 19.2142 34.4641C16.9794 35.5956 15.6284 36.9329 14.6428 38.9888C13.8343 40.6756 13.6666 41.4412 13.6717 43.423C13.6809 47.0782 13.918 47.4383 21.3635 55.1017C23.1656 56.9565 29.2548 63.1675 34.895 68.9038C48.4865 82.7268 50.5765 84.8759 50.5013 84.952C50.4389 85.0151 45.3738 85.8548 39.8993 86.7097C30.7086 88.1447 28.0892 88.7071 26.3924 89.6089C25.3161 90.1808 23.2732 92.1814 22.4261 93.4926C20.5301 96.4279 20.2447 100.369 21.7152 103.315C22.2258 104.339 23.7184 105.73 25.038 106.414L26.1691 107H53.1954H80.2217L82.1356 106.449C86.8027 105.107 90.121 103.471 93.1868 101.001C95.1149 99.4473 102.961 91.398 105.632 88.2337C107.238 86.3308 108.812 83.4585 109.892 80.4575C111.851 75.0115 112.03 68.5017 110.373 62.9707C109.326 59.4775 107.608 56.2161 105.407 53.5403C101.766 49.1151 87.7219 33.6479 84.5251 30.5431C82.9582 29.0212 81.313 28.4343 78.6146 28.4343C76.6786 28.4343 75.5463 28.6821 74.0453 29.4342C72.1209 30.3986 70.7356 31.8517 69.7591 33.9301C69.4848 34.5141 69.2396 35.0151 69.2143 35.0436C69.1888 35.0719 64.9027 30.7989 59.6896 25.5478C48.7848 14.5638 47.6746 13.5121 46.2593 12.8242C44.6541 12.044 42.4357 11.7057 40.5847 11.9586ZM43.6232 17.2775C44.2668 17.4594 44.4939 17.6417 46.5253 19.6061C47.7374 20.7783 53.5361 26.55 59.4113 32.432C71.0523 44.0866 72.2895 45.2892 73.0077 45.6486C73.4014 45.8457 73.5936 45.8691 74.0714 45.779C75.3272 45.5416 76.0842 44.6035 76.1 43.2649C76.1095 42.4662 76.0373 42.3062 75.0898 41.0278C74.1872 39.8098 74.0431 39.3869 74.0546 37.9896C74.0667 36.5116 74.3917 35.639 75.2654 34.7385C76.0609 33.9188 76.974 33.5448 78.3859 33.4605C79.2697 33.4078 79.4725 33.438 80.053 33.7091C80.6956 34.009 82.755 35.7585 83.3727 36.5291C83.5405 36.7384 84.428 37.7162 85.345 38.7017C87.2085 40.7048 94.4438 48.7432 97.5765 52.2913C102.566 57.9426 102.846 58.3159 104.18 61.0971C105.102 63.0197 105.757 64.8697 106.049 66.3755C106.219 67.247 106.263 68.1984 106.269 71.0896C106.278 75.0691 106.272 75.1141 105.45 77.8345C104.569 80.7494 103.412 82.8883 101.317 85.4761C99.0924 88.2249 91.9067 95.4968 89.729 97.2031C88.59 98.0956 87.428 98.825 85.9833 99.5542C84.2105 100.449 83.3958 100.764 81.1177 101.438L79.1836 102.01L55.8058 102.082C31.8991 102.157 27.8451 102.105 27.109 101.718C26.6622 101.483 26.286 101.073 26.009 100.52C25.8457 100.193 25.8074 99.853 25.8402 99.0206C25.8769 98.0933 25.9443 97.8142 26.3265 97.0046C26.8531 95.8895 27.8565 94.7455 28.8249 94.1562C29.3315 93.8479 29.8854 93.6626 30.968 93.4394C32.5253 93.1182 40.2055 91.8151 44.9008 91.0753C49.4009 90.3663 56.2033 89.1643 56.887 88.9574C57.2306 88.8533 57.627 88.6409 57.7679 88.485C58.3022 87.8941 58.6015 86.9476 58.4677 86.2715C58.3503 85.6771 55.3982 82.5766 41.6328 68.5901C25.3094 52.0045 21.0895 47.665 19.6597 45.9947C18.8905 45.096 18.7193 44.5691 18.723 43.1107C18.7265 41.7224 18.9966 41.0825 20.0126 40.0549C21.0648 38.9906 21.6584 38.7451 23.166 38.7509C23.9971 38.7541 24.5422 38.8183 24.8331 38.9474C25.4012 39.1993 29.8728 43.5606 40.5168 54.2444C49.6855 63.4471 51.6499 65.3698 52.4002 65.8753C53.0373 66.3043 54.2018 66.2448 54.9488 65.7448C55.9686 65.0621 56.2747 63.6427 55.6035 62.7084C54.8489 61.6577 51.6235 58.3239 34.529 40.9249C23.7916 29.9962 23.7253 29.9174 23.7229 28.0877C23.7202 26.026 24.8859 24.3348 26.809 23.6103C27.6136 23.3073 29.0664 23.3268 29.7729 23.6502C30.5517 24.0068 34.3749 27.7436 48.8526 42.2996C56.8149 50.3048 60.3056 53.7452 61.8585 55.1184C62.8499 55.9951 62.9276 56.0385 63.5076 56.0385C64.8882 56.0385 66.08 54.8342 66.08 53.4394C66.08 52.8681 66.0279 52.7673 65.2647 51.8625C64.0606 50.4352 61.8948 48.173 55.2113 41.362C46.956 32.9491 41.1097 26.9211 39.3261 24.9826C37.9323 23.468 37.8153 23.3023 37.667 22.6322C37.5401 22.0587 37.5377 21.7328 37.6551 21.04C38.0216 18.878 39.4191 17.4029 41.3962 17.0904C42.1777 16.9669 42.6721 17.0084 43.6232 17.2775Z" fill="#2B2B2B"/>
</svg>
