<svg width="136" height="129" viewBox="0 0 136 129" fill="none" xmlns="http://www.w3.org/2000/svg">
<path fill-rule="evenodd" clip-rule="evenodd" d="M70.0159 0.338273C69.2353 0.916271 63.8749 9.67267 63.5385 10.9196C63.1258 12.4484 63.385 14.6952 64.1502 16.2231C65.5827 19.0844 67.9513 20.5617 71.097 20.556C73.4406 20.5514 74.6755 20.0837 76.3609 18.5615C78.0276 17.0567 78.8961 15.0987 78.8995 12.8387C78.9012 11.8564 78.7281 10.635 78.5152 10.1247C77.9004 8.65058 73.2447 1.32766 72.4741 0.622581C71.6958 -0.0896099 70.7425 -0.199637 70.0159 0.338273ZM73.0656 8.81662C74.8736 11.7308 75.1322 12.5766 74.6562 14.0214C74.1584 15.5331 72.8888 16.4727 71.345 16.4727C68.956 16.4727 67.5298 15.097 67.4977 12.7614C67.4855 11.8766 67.8431 11.0735 69.2577 8.80951C70.2344 7.24695 71.1302 6.02812 71.2485 6.10148C71.3669 6.17454 72.1846 7.3965 73.0656 8.81662ZM114.902 6.6283C114.226 6.95923 112.531 9.38381 109.622 14.1804C107.998 16.8588 107.995 16.8674 107.995 19.1558C107.995 21.1709 108.098 21.6346 108.847 22.9894C112.426 29.4682 122.36 27.6662 123.36 20.3564C123.701 17.8641 123.316 16.7798 120.447 12.1587C116.863 6.38436 116.381 5.90331 114.902 6.6283ZM46.3303 12.5047C45.6449 12.7779 45.3151 13.3815 44.8592 15.1976C44.4485 16.8341 43.0606 18.8882 41.8063 19.7156C41.2128 20.1076 39.9606 20.6245 39.0239 20.8647C35.409 21.7919 35.4036 24.4734 39.0148 25.2843C40.7536 25.6746 41.9315 26.3857 43.238 27.8342C44.1059 28.7966 45.1263 31.1825 45.1263 32.2498C45.1263 32.8801 46.2906 33.8155 47.0748 33.8155C47.8409 33.8155 49.1 32.8199 49.1 32.214C49.1 31.0648 50.1402 28.7645 51.162 27.654C52.5329 26.1642 53.3702 25.6837 55.3275 25.2633C56.2829 25.058 56.9479 24.7148 57.3285 24.2298C58.5073 22.7289 57.7376 21.5124 55.2024 20.8704C52.0882 20.0815 50.0176 18.0381 49.3435 15.0887C48.8221 12.8083 47.7901 11.9232 46.3303 12.5047ZM119.363 18.5331C119.603 19.6217 119.064 21.0635 118.056 22.0307C117.33 22.7278 116.974 22.8495 115.659 22.8495C114.343 22.8495 113.987 22.7278 113.261 22.0307C112.246 21.0572 111.7 19.5802 111.962 18.5189C112.066 18.0973 112.938 16.508 113.9 14.9872L115.649 12.2221L117.42 14.9872C118.394 16.508 119.268 18.1035 119.363 18.5331ZM90.8406 14.8442C90.1106 15.2121 83.1527 25.887 81.8102 28.698C81.1801 30.0172 81.0612 30.6617 81.0487 32.8204C81.0354 35.1202 81.125 35.572 81.9334 37.2844C85.8823 45.647 97.4968 45.653 101.402 37.2943C102.188 35.6121 102.292 35.0983 102.281 32.9657C102.274 31.462 102.097 30.0945 101.815 29.353C101.344 28.1143 93.9276 16.1171 93.1246 15.2943C92.4579 14.6108 91.6277 14.4473 90.8406 14.8442ZM48.4784 21.6173L49.9245 23.0658L48.5187 24.474L47.1131 25.8819L45.7053 24.4717L44.2975 23.0619L45.6344 21.6554C46.3698 20.8818 46.9848 20.231 47.0016 20.2088C47.0183 20.1869 47.6828 20.8207 48.4784 21.6173ZM94.8671 25.4995C96.509 28.1188 97.9384 30.5454 98.0437 30.892C98.3903 32.0326 98.2648 34.2539 97.7897 35.3951C95.2321 41.5367 86.3671 40.5311 85.1189 33.9577C84.7382 31.9547 85.3011 30.5306 88.4593 25.5063C90.108 22.8833 91.5527 20.7374 91.6697 20.7374C91.7863 20.7374 93.2254 22.8802 94.8671 25.4995ZM124.883 36.5969C123.991 36.8815 123.48 37.6272 123.177 39.0886C122.573 42.0044 120.38 44.2462 117.362 45.0337C115.419 45.5406 114.665 46.1346 114.665 47.1586C114.665 48.3456 115.378 49.0951 116.721 49.3191C120.137 49.8889 122.743 52.4991 123.313 55.9221C123.537 57.2672 124.285 57.9817 125.47 57.9817C126.487 57.9817 127.085 57.2283 127.58 55.324C128.395 52.1895 130.539 50.0765 133.535 49.4536C135.026 49.1434 135.847 48.566 135.961 47.7466C136.162 46.3015 135.613 45.6245 133.882 45.1821C131.887 44.6721 131.039 44.2536 129.879 43.2056C128.791 42.2234 127.446 39.8352 127.441 38.8753C127.433 37.4834 126.028 36.2321 124.883 36.5969ZM31.5353 40.3671C27.8764 41.3269 24.4594 43.6327 22.2719 46.6173L21.2362 48.0309L16.9318 48.0434C14.5644 48.0502 11.7093 48.1625 10.5868 48.293C5.87828 48.8398 2.11041 51.9174 0.535423 56.5033C0.0429746 57.937 -0.00272234 59.0058 0.000115987 69.0432C0.00323814 80.6171 0.0563148 81.1837 1.37982 83.7823C2.11012 85.2161 4.13101 87.2566 5.77894 88.2238C8.13276 89.6058 9.7086 89.8242 17.321 89.8242H24.3075L24.9958 90.5594C26.1181 91.7586 29.4312 93.8315 31.5378 94.6523L33.5017 95.4176L32.919 96.16C32.5982 96.5679 31.9889 97.6443 31.5645 98.5518C30.8714 100.033 30.7928 100.52 30.7928 103.329C30.7928 106.276 30.8453 106.562 31.7045 108.304C32.7393 110.402 43.5474 123.832 45.9191 125.967C49.5118 129.201 54.3963 129.902 58.7903 127.813C59.6267 127.415 62.6984 125.151 65.6159 122.78L70.9201 118.471L73.7051 118.392C77.8374 118.276 81.4756 116.975 84.7209 114.454C87.6421 112.185 115.219 89.6254 116.179 88.7188C117.891 87.1036 118.48 85.7489 118.48 83.4272C118.48 81.0325 117.816 79.564 116.082 78.1206L114.922 77.1554L116.787 75.505C119.243 73.332 119.897 72.0723 119.908 69.4961C119.915 67.8165 119.791 67.2933 119.117 66.1436C118.677 65.3941 117.837 64.4329 117.251 64.0076L116.185 63.234L116.836 61.9583C117.623 60.4165 117.73 57.6536 117.063 56.0535C116.168 53.9036 113.96 52.2387 111.516 51.8716C109.926 51.6325 108.389 52.026 106.687 53.1069L105.388 53.9323L105.055 53.0111C104.656 51.9046 103.058 50.1982 101.822 49.5576C101.328 49.3023 100.136 49.03 99.1717 48.9523C96.6285 48.7479 95.284 49.4988 89.1203 54.5666L83.8694 58.8841L83.6889 56.9064C83.566 55.5622 83.2228 54.3297 82.6166 53.0578C80.4992 48.6135 77.7826 47.8609 74.2529 50.7412C72.3441 52.2986 71.4305 52.4758 72.4682 51.0872C74.7312 48.0591 75.5912 43.8632 74.3625 41.8447C74.0522 41.3349 73.3824 40.6639 72.8735 40.3532C71.974 39.8036 71.4211 39.7885 52.7898 39.8028C34.7883 39.8164 33.5045 39.8505 31.5353 40.3671ZM70.7916 44.8324C70.2696 47.7722 68.5754 50.0236 65.988 51.2154C64.6358 51.8381 64.1729 51.8759 56.1958 52.0112C50.9205 52.1008 47.6297 52.2679 47.301 52.463C46.961 52.6648 46.6403 53.4362 46.3809 54.676C45.5041 58.8656 43.8925 60.3232 39.1148 61.2472C38.0356 61.4559 37.4628 62.1391 37.4628 63.2175C37.4628 64.7417 38.2252 65.1937 40.5081 65.0231C44.9262 64.6928 49.1797 61.0903 50.0809 56.9155L50.2804 55.9915L58.9856 56.0032L67.691 56.0145L66.6976 56.872C66.1512 57.3434 64.5379 58.6816 63.1125 59.8456L60.5208 61.962H57.7906C54.7091 61.962 53.9251 62.3634 53.9251 63.9411C53.9251 64.7334 54.8269 65.9423 55.4178 65.9423C55.5555 65.9423 53.9001 67.3957 51.7393 69.172C49.5785 70.9481 47.1469 73.129 46.3357 74.0181C43.4889 77.1383 41.8018 81.9241 42.0961 86.0448L42.2423 88.0938L39.9691 89.9541C38.7188 90.9773 37.4279 91.8143 37.1007 91.8143C36.0323 91.8143 32.8086 90.9025 31.5024 90.2313C28.1248 88.4947 25.6691 85.7162 24.1009 81.8567C23.6289 80.695 23.0379 79.5177 22.7873 79.2402C22.1691 78.5562 20.8479 78.6048 20.115 79.3389C19.6118 79.843 19.5425 80.1523 19.6904 81.2346C19.7878 81.9463 20.1863 83.2257 20.576 84.0783C20.9657 84.9306 21.2844 85.69 21.2844 85.7654C21.2844 85.8407 18.6981 85.8507 15.5368 85.7875C9.01122 85.6571 8.34677 85.4919 6.30942 83.494C4.05211 81.2801 3.97064 80.7783 3.97064 69.0697C3.97064 57.3514 4.05324 56.843 6.30942 54.6627C8.48301 52.5628 8.8835 52.4499 14.5408 52.3439L19.5763 52.2495L19.366 53.1965C19.0288 54.715 19.1469 59.4083 19.5652 61.1091C20.121 63.369 21.2066 65.8166 22.5909 67.9324C23.8931 69.9226 26.2694 72.4023 26.9611 72.493C27.8756 72.6127 28.4026 72.4589 28.9479 71.9128C29.9106 70.9484 29.6617 70.0955 27.8248 68.0649C25.7715 65.7956 24.6572 63.8842 23.8545 61.2546C23.1577 58.9722 23.0206 55.4186 23.5528 53.4399C24.9138 48.3817 29.0078 44.7816 34.3407 43.9539C34.731 43.8934 43.1347 43.8263 53.0154 43.805L70.9809 43.7663L70.7916 44.8324ZM126.77 48.643L125.329 50.0341L123.948 48.6507L122.567 47.2673L123.938 45.836L125.309 44.4046L126.76 45.8284L128.211 47.2519L126.77 48.643ZM100.644 53.8308C101.64 54.8284 101.83 55.6566 101.352 56.9158C101.207 57.2985 95.9158 61.8187 89.1762 67.3181C80.4138 74.4684 77.2076 77.2435 77.0685 77.7979C76.7952 78.8888 77.6901 79.9928 78.9305 80.0954C79.8223 80.1691 80.999 79.2732 94.3712 68.3419C102.333 61.8338 109.062 56.3924 109.325 56.2502C110.254 55.7473 111.816 55.9551 112.538 56.6778C113.752 57.8935 113.819 59.5329 112.704 60.7312C112.394 61.0647 105.698 66.5965 97.8223 73.0244C87.1905 81.7023 83.455 84.9068 83.314 85.47C83.0392 86.5666 83.9319 87.6697 85.1748 87.7689C86.0632 87.84 87.1139 87.049 98.3449 77.8568C105.057 72.3625 110.933 67.6268 111.401 67.3323C112.676 66.5314 114.122 66.6298 114.999 67.5771C115.935 68.5866 116.145 69.5118 115.688 70.6072C115.321 71.4866 113.981 72.6346 101.041 83.1551C97.8411 85.7571 94.8077 88.2832 94.3002 88.7685C93.2214 89.8011 93.0872 90.9546 93.9455 91.8143C95.1847 93.0556 95.7237 92.7554 103.174 86.6706C107.021 83.5287 110.557 80.8466 111.031 80.7101C112.28 80.3516 113.692 81.0194 114.275 82.2442C114.821 83.3923 114.656 84.3654 113.741 85.3963C112.566 86.7184 81.4991 111.887 80.1001 112.65C78.0114 113.788 75.7311 114.275 72.4821 114.275H69.5873L63.8141 119.003C60.6386 121.604 57.4659 123.994 56.7634 124.315C55.0153 125.114 52.2551 125.089 50.501 124.258C49.7885 123.92 48.683 123.103 48.0441 122.442C45.8975 120.22 36.0408 107.89 35.4621 106.702C34.1551 104.019 34.5663 100.657 36.4745 98.4245C37.0354 97.768 39.1156 95.9061 41.0973 94.2864C43.079 92.6667 45.1209 90.8619 45.6347 90.2756C46.5333 89.2498 46.5619 89.1432 46.3928 87.4556C46.2963 86.4909 46.1694 85.5473 46.1112 85.3588C45.883 84.6202 46.6113 81.3492 47.3672 79.719C47.8051 78.7742 48.8533 77.2785 49.696 76.3957C50.539 75.5127 57.2221 69.9084 64.5472 63.9422L77.8655 53.0941L78.3849 53.7608C79.2512 54.8736 79.8401 57.3317 79.6755 59.1493C79.4115 62.066 78.5126 63.249 73.3781 67.4361C67.3385 72.3617 66.9814 72.71 66.9814 73.6743C66.9814 75.4427 69.0102 76.1782 70.5619 74.9725C71.0124 74.6225 76.9368 69.7995 83.7275 64.2546C90.5182 58.7098 96.507 53.8785 97.0364 53.5186C98.4235 52.575 99.4816 52.6665 100.644 53.8308ZM116.084 94.2932C115.196 94.6147 114.684 95.3326 114.509 96.5037C114.066 99.4613 111.693 101.936 108.515 102.756C104.97 103.669 104.934 106.391 108.457 107.148C110.258 107.535 111.449 108.242 112.777 109.715C113.645 110.677 114.665 113.063 114.665 114.13C114.665 114.761 115.829 115.696 116.614 115.696C117.641 115.696 118.514 114.722 118.769 113.293C119.041 111.773 119.82 110.312 120.958 109.189C122.153 108.009 123.067 107.531 124.866 107.144C125.822 106.939 126.487 106.595 126.867 106.11C128.045 104.611 127.277 103.396 124.741 102.745C121.528 101.921 119.767 100.196 118.884 97.0055C118.595 95.9615 118.198 94.9559 118.002 94.7705C117.534 94.3287 116.617 94.1004 116.084 94.2932ZM118.034 106.379L116.625 107.79L115.226 106.388L113.827 104.987L115.168 103.559L116.51 102.132L117.976 103.55L119.442 104.968L118.034 106.379Z" fill="#2B2B2B"/>
</svg>
