<svg width="93" height="127" viewBox="0 0 93 127" fill="none" xmlns="http://www.w3.org/2000/svg">
<path d="M91.509 65.053C91.2415 64.7553 90.9373 64.4934 90.6038 64.2736C91.9107 60.9083 92.4742 58.1411 92.4022 55.3921C92.3303 51.7307 91.461 48.9636 89.6865 46.6918C89.4108 46.3414 89.123 45.997 88.8412 45.6526C89.9443 43.5863 89.5247 41.369 87.6722 39.7377C81.0622 33.965 73.9196 28.8424 66.3422 24.4397C64.6276 23.4368 62.8651 22.452 61.1625 21.4973L59.4839 20.5427C59.5345 19.7879 59.3541 19.0357 58.9671 18.3874C58.5801 17.7392 58.0051 17.2262 57.3197 16.9176C54.7599 15.7093 52.1161 14.4344 49.2385 13.1173C48.7401 12.8862 48.1985 12.7647 47.6499 12.7608C46.8413 12.7652 46.0578 13.0441 45.4257 13.5523L43.8371 12.8394C40.2401 11.2262 36.4992 9.55262 32.8064 7.94549C31.8937 7.47636 30.8968 7.19693 29.8748 7.1238C28.3701 7.1238 27.3689 8.06633 26.2778 9.33512C22.2133 7.63132 17.8489 5.81272 13.4306 4.0183C10.8768 3.02139 8.29296 1.98824 5.78108 1.0155L3.70082 0.205892C3.36992 0.0760452 3.01875 0.00648989 2.6637 0.000469656C2.23077 -0.00873864 1.80567 0.117657 1.44704 0.362225C1.0884 0.606793 0.813896 0.957482 0.66138 1.36593C0.55383 1.62859 0.498985 1.91012 0.500014 2.19426C0.501043 2.47841 0.557925 2.75953 0.667375 3.02139C0.808509 3.33064 1.01036 3.60785 1.26074 3.8363C1.51111 4.06476 1.80483 4.23971 2.12415 4.3506L7.21387 6.3867L21.5118 12.1385C22.1593 12.3983 22.8008 12.6702 23.4542 12.9542C23.1245 13.4919 22.7828 14.0357 22.4471 14.5734C21.4279 16.1987 20.3728 17.8783 19.4915 19.6425C15.5589 27.5271 12.975 36.324 11.1286 48.1479C10.9427 49.3563 10.7809 50.5103 10.619 51.7005L10.583 51.9966L8.99437 51.5616L3.497 50.0511C3.24502 49.981 2.98503 49.9445 2.72365 49.9423C2.23831 49.9264 1.76244 50.0801 1.37673 50.3775C0.991028 50.6748 0.719228 51.0974 0.607425 51.5736C0.532969 51.8663 0.517968 52.171 0.563325 52.4696C0.608681 52.7682 0.713459 53.0545 0.871364 53.3113C1.02927 53.5681 1.23704 53.79 1.4822 53.9638C1.72736 54.1376 2.00485 54.2597 2.298 54.3227L4.01256 54.8C6.04485 55.3619 8.08314 55.9298 10.1214 56.4675C10.0536 57.3954 10.306 58.3184 10.8359 59.0802C11.3657 59.8421 12.1404 60.3961 13.029 60.6485C13.2568 60.721 13.4846 60.7814 13.7124 60.8479L15.9186 61.4521C18.916 62.2899 21.9135 63.1357 24.911 63.9896C25.2287 65.5182 26.2659 66.5574 27.9984 67.0891C30.0906 67.7295 32.1949 68.4123 34.2691 69.0708L36.2834 69.7173C36.7616 69.8754 37.261 69.9589 37.7642 69.965C38.7316 69.9709 39.663 69.5959 40.36 68.9198C41.4091 69.2823 42.5122 69.6931 43.7052 70.1281L43.3395 70.7927C42.74 71.8561 42.1405 72.9557 41.6249 74.0976C39.92 77.925 38.6121 81.9198 37.7222 86.0182C37.1414 86.1628 36.6179 86.4817 36.2207 86.9326C35.8236 87.3835 35.5716 87.9453 35.4981 88.5437C35.3902 89.1479 35.2943 89.752 35.2043 90.3925L34.8926 92.4588C34.5988 94.3801 34.2931 96.3074 34.0233 98.2288C33.9311 98.7814 33.9869 99.3488 34.1851 99.8725C34.3832 100.396 34.7164 100.857 35.1504 101.207C34.9645 103.165 34.7487 105.286 34.4729 107.853C34.2212 110.192 35.1024 111.744 37.1647 112.578C37.1647 112.693 37.1647 112.808 37.1287 112.916L36.9429 115.732C36.763 118.551 36.5812 121.371 36.3973 124.191C36.3604 124.532 36.3946 124.878 36.4978 125.206C36.6011 125.534 36.771 125.836 36.9968 126.094C37.192 126.306 37.4283 126.477 37.6912 126.594C37.9541 126.712 38.238 126.774 38.5255 126.776H38.5915C39.5327 126.776 40.6717 126.172 40.7796 124.468L41.0254 120.559C41.1513 118.59 41.2712 116.626 41.4031 114.657C41.4031 114.294 41.4571 113.925 41.493 113.557C46.584 114.521 51.7452 115.06 56.9241 115.17C57.4696 115.17 58.0092 115.17 58.5547 115.17C63.0359 115.193 67.5083 114.766 71.9055 113.895L71.7676 114.451C71.312 116.3 70.8743 118.076 70.4127 119.889C70.1969 120.741 69.9391 121.605 69.6933 122.444C69.5495 122.934 69.4056 123.423 69.2677 123.913C69.1485 124.197 69.0898 124.503 69.0954 124.811C69.101 125.12 69.1708 125.424 69.3001 125.703C69.4295 125.983 69.6157 126.232 69.8466 126.435C70.0775 126.637 70.3479 126.789 70.6405 126.879C70.8725 126.957 71.1153 126.998 71.3599 127C71.8456 126.986 72.314 126.816 72.6962 126.513C73.0783 126.211 73.3538 125.793 73.4821 125.32C73.536 125.185 73.58 125.045 73.614 124.903C73.8778 123.888 74.1476 122.873 74.4114 121.852C75.0828 119.339 75.7722 116.735 76.3477 114.137C76.6775 112.633 76.9472 112.469 77.6906 112.415C77.8313 112.4 77.9688 112.364 78.0983 112.306C78.8291 112.071 79.4821 111.639 79.9863 111.056C80.4904 110.474 80.8265 109.763 80.9579 109.001C81.4914 106.44 81.995 104.126 82.4926 101.932C82.9949 101.725 83.4388 101.396 83.7849 100.974C84.131 100.553 84.3687 100.052 84.4769 99.5157C85.0764 96.7888 85.6759 94.0619 86.2754 91.335C86.4058 90.8236 86.4107 90.2878 86.2895 89.7741C86.1683 89.2604 85.9248 88.7841 85.58 88.3866C85.8078 87.5166 86.0236 86.6405 86.2454 85.7644C86.8809 83.2148 87.5463 80.5805 88.3916 78.0792C89.1428 75.9948 90.0115 73.9554 90.9934 71.9709C91.3411 71.2338 91.6829 70.4906 92.0186 69.7535C93.0077 67.5241 92.2883 65.9714 91.509 65.053ZM77.0312 106.174C76.9053 106.742 76.7674 107.328 76.6715 107.932C76.6628 107.979 76.6508 108.026 76.6355 108.071C76.5752 108.112 76.5083 108.143 76.4377 108.162C73.2769 109.198 70.0215 109.914 66.7198 110.3C63.92 110.629 61.1036 110.792 58.2849 110.79C51.7665 110.751 45.2723 109.986 38.9212 108.506H38.8613C38.8613 108.506 38.8613 108.458 38.8613 108.433C39.0591 106.434 39.2629 104.428 39.4608 102.428C45.8479 103.477 52.2962 104.105 58.7645 104.307C59.9156 104.343 61.0546 104.361 62.1517 104.361C67.3644 104.395 72.5694 103.953 77.7026 103.038L77.193 105.455C77.1511 105.672 77.0911 105.926 77.0312 106.174ZM38.5195 97.7152L39.6526 90.5314L42.3024 90.9362L41.2533 98.1865L38.5195 97.7152ZM46.6607 91.5102L49.2026 91.7579L48.2554 99.129L45.5936 98.8148L46.6607 91.5102ZM58.3269 99.8359H58.2609C56.7322 99.8359 55.2095 99.7332 53.6029 99.6184L52.6437 99.558L53.5849 92.205C54.7839 92.2292 55.9829 92.2594 57.1819 92.2957C60.1793 92.3742 63.2967 92.4528 66.3541 92.4528H67.8169C71.3539 92.4528 74.9449 92.2594 78.416 92.1084L81.5873 91.9694C81.4974 92.3923 81.4015 92.8213 81.3056 93.2503C80.9639 94.8091 80.6161 96.3679 80.2864 97.9267C76.8646 98.8194 73.3653 99.3779 69.8372 99.5942C66.528 99.7573 62.979 99.8359 58.3449 99.8359H58.3269ZM82.031 84.0667C81.6893 85.3596 81.4315 86.4472 81.1977 87.4682L77.8225 87.6434C75.1368 87.7884 72.3611 87.9395 69.6394 87.9818C68.5063 87.9818 67.3673 87.9818 66.2282 87.9818C63.2308 87.9818 60.0954 87.9214 56.8701 87.8005C51.9402 87.629 47.0241 87.1711 42.1465 86.429L42.2005 86.1934C42.4642 85.0998 42.716 84.0667 43.0577 83.0698C43.915 80.5805 44.8922 77.9584 46.0552 75.0522C46.4128 74.2328 46.8337 73.4429 47.3142 72.6899L47.554 72.2911C47.8987 71.7528 48.121 71.1443 48.2049 70.5092C48.2889 69.8741 48.2324 69.2282 48.0395 68.6177C47.8272 68.028 47.4873 67.4932 47.0446 67.0522C46.6019 66.6113 46.0673 66.2751 45.4797 66.068C44.4546 65.6693 43.4234 65.2886 42.3623 64.8959L41.8767 64.7146C41.8767 64.6663 41.8767 64.618 41.8767 64.5757C42.0506 63.748 42.2184 62.9263 42.4103 62.1106C44.4106 53.2927 47.239 44.6865 50.8572 36.4086C52.6574 32.2363 54.8454 28.245 57.3917 24.4881C67.9668 30.1795 76.2818 35.7682 83.5237 42.0094C83.7116 42.1745 83.8974 42.3316 84.0812 42.4807L84.7647 43.0849C84.8703 43.1788 84.963 43.2865 85.0404 43.4051C84.9621 43.5374 84.8581 43.6525 84.7347 43.7434C82.714 45.3218 81.1084 47.3756 80.0586 49.7248C77.5647 55.4465 79.8488 64.3944 86.5212 67.3549C86.8989 67.5241 87.2825 67.6631 87.6482 67.7899L87.942 67.8987C87.6363 68.5512 87.3425 69.2098 87.0128 69.8623C86.4612 71.0102 85.8917 72.2005 85.3642 73.3968C84.1117 76.4302 83.1091 79.5624 82.3667 82.7616L82.031 84.0667ZM39.9224 54.1595L39.4668 55.8815L31.6134 53.2714L32.0989 51.5555L39.9224 54.1595ZM14.5637 56.1231C15.0209 51.3309 15.7454 46.5685 16.7339 41.8584C17.8639 36.2669 19.5076 30.7936 21.6437 25.5091C23.9038 20.0715 26.3438 15.957 29.3293 12.5433L29.623 12.205C29.8149 11.9814 30.0127 11.7519 30.1506 11.6008C30.2945 11.6552 30.4923 11.7458 30.6721 11.8304L31.1997 12.066C34.3131 13.4395 37.4165 14.8171 40.5099 16.1987L42.5002 17.0808C42.3983 17.2318 42.3024 17.3829 42.2005 17.5279C41.4451 18.6637 40.6717 19.8419 39.9523 21.0321C36.5232 26.7598 33.5917 33.2306 30.7261 41.3629C28.6028 47.306 26.8685 53.383 25.5345 59.5549L25.0369 59.4099L20.9124 58.2378C18.91 57.6819 16.9137 57.1201 14.9174 56.5823L14.5457 56.4675C14.5397 56.389 14.5457 56.2802 14.5637 56.1231ZM47.8597 17.3466C49.4723 18.1381 51.115 18.9114 52.7096 19.6546L54.7539 20.6152C51.0063 25.7912 47.9525 31.4427 45.6715 37.4236C44.5025 40.3841 43.4474 43.4655 42.4223 46.3897C42.0226 47.5619 41.6229 48.734 41.2233 49.9061L33.4298 47.3021C33.4778 47.1329 33.5317 46.9698 33.5797 46.8066C35.7735 39.7884 38.5823 32.9806 41.9726 26.4637C43.6464 23.2648 45.6133 20.2307 47.8477 17.401L47.8597 17.3466ZM86.6231 62.2919C84.9939 60.9571 83.9568 59.0253 83.7395 56.9207C83.5001 55.5084 83.5589 54.0611 83.9122 52.6734C84.2655 51.2856 84.9053 49.9885 85.7898 48.8669C86.9973 50.3008 87.7437 52.0708 87.93 53.942C88.2298 56.5098 87.8281 59.1259 86.6231 62.2919ZM38.3157 60.4189C38.0579 61.6273 37.8061 62.7692 37.5604 63.9292C37.4884 64.2736 37.4225 64.618 37.3565 64.9563C37.3565 65.0953 37.3026 65.2342 37.2726 65.3672C34.8087 64.5938 32.069 63.7298 29.3952 62.8477C29.7189 61.1802 30.0667 59.5247 30.4323 57.7847L30.4803 57.5611L38.3697 60.1833L38.3157 60.4189Z" fill="#2B2B2B"/>
</svg>
