<svg xmlns="http://www.w3.org/2000/svg" id="Слой_1" viewBox="0 0 1600 380"><style>.st0{fill:transparent}.st1{fill:#fff}.st2{fill:#35582e}</style><path class="st0" d="M800.9 381c-265.1 0-530.3 0-795.4.1-3.8 0-4.6-.7-4.6-4.6C1 252.7 1 128.9.9 5.1c0-3.2.4-4.2 4-4.2 530.8.1 1061.6.1 1592.3 0 3.1 0 3.9.5 3.9 3.8-.1 124.2-.1 248.3 0 372.5 0 3.8-1.2 3.9-4.3 3.9-265.3-.1-530.6-.1-795.9-.1zM295.6 259.5c23.7 5.2 48.1-5 58.5-30.7 10.3-25.5 11.9-55-2.9-80.9-16.7-29-45.8-24.8-73.4-25.2-9.7-.1-28.7 3-23.8-14.6 4.9-17.6 1.1-30-6.4-44.9-6.3-12.6-16.5-20.7-24.7-31-15.6-19.6-63-22.6-78.9-4.8-37.6 42.3-75.4 84.4-113.4 126.3-19.2 21.2-24.9 61-7.9 79 28.9 30.7 59.7 59.8 89.8 89.4 14 13.8 26.4 31.3 43.1 39.8 31.6 16.1 60.5 5.4 80.3-23.1 11.5-16.5 28.2-33.6 19.7-56.7-6.4-17.2 1.2-21.4 15.5-22.5 6.4-.5 13-.1 24.5-.1zm324.9-.6v.5h90c8.3 0 16.1-1.6 23.2-6.4 24.6-16.7 37.3-75.9 20.8-102-8-12.5-18-26.7-34-27-64.7-1.4-129.5-1.1-194.3-1.1-8.9 0-16 4.9-23.2 10.4-29.9 22.8-21 55-19 84.1 1.5 22.5 18.3 38.9 40.7 40.8 31.6 2.7 63.8.7 95.8.7zm400.5.5h89.9c10.7 0 19.5-4 28.2-10.7 29.9-23.1 20.9-55.3 18.9-84.6-1.5-21.7-18-39.1-39.2-39.9-64.2-2.5-128.5-1.3-192.8-1.3-8.9 0-16 4.9-23.2 10.4-29.9 22.8-21.7 55.2-18.8 84 2.6 25.5 21.4 41.2 48.5 41.9 29.5.8 59 .2 88.5.2zm400-135.9v-.9h-45c-15 0-30-.1-45 0-10.1.1-19.5 2.4-26.9 9.8-20.6 20.3-30.7 68.6-18 95.5 6.9 14.5 18.4 29.6 35.5 30 64.7 1.6 129.5 1.2 194.3 1.1 8.4 0 15.5-4.4 22.4-9.7 31.1-23.7 21.8-57 19.3-87.2-1.7-20.1-17.8-36.1-37.9-37.9-32.6-2.8-65.7-.7-98.7-.7z"/><path class="st1" d="M295.6 259.5c-11.5 0-18.1-.4-24.5.1-14.2 1-21.8 5.2-15.5 22.5 8.5 23.1-8.2 40.2-19.7 56.7-19.8 28.5-48.7 39.1-80.3 23.1-16.8-8.5-29.1-26-43.1-39.8-30.1-29.6-60.9-58.6-89.8-89.4-16.9-18-11.3-57.8 7.9-79 38-41.9 75.8-84 113.4-126.3 15.9-17.9 63.3-14.9 78.9 4.8 8.2 10.3 18.4 18.5 24.7 31 7.5 14.9 11.3 27.3 6.4 44.9-4.9 17.6 14.1 14.5 23.8 14.6 27.6.4 56.7-3.8 73.4 25.2 14.9 25.9 13.2 55.3 2.9 80.9-10.4 25.7-34.8 36-58.5 30.7zm22-72.8c-2.6-6.9 8.4-26.3-12.8-26.5-40.9-.4-81.8 2.2-122.7 3.2-8.5.2-18.3 2.1-23.1-8.2-5.6-12.1 4.3-16 11.6-21.1 2.7-1.9 5.6-3.7 7.9-6 42.1-41.6 52.3-40 15.4-74-8.6-7.9-17.8-7.9-24.2.9-32.4 44.5-73.6 80.8-110 121.7-13.5 15.2-16.3 24.4-.1 39.7 37.5 35.1 73 72.3 109.4 108.6 8 8 17.5 8.4 24.5 0 9-10.8 30-20.4 18.3-36.6-13.1-18.1-30.5-34.2-50.9-45.7-6.7-3.8-11.6-8.5-10.1-17 1.5-8.4 7.5-11.3 15.1-10.4 34.4 4.2 69.1 8 103.2 3.1 18.2-2.5 55.2 20.3 48.5-31.7zm302.9 72.2c-32 0-64.1 2-95.8-.7-22.4-1.9-39.2-18.3-40.7-40.8-1.9-29.1-10.9-61.3 19-84.1 7.2-5.4 14.3-10.4 23.2-10.4 64.8 0 129.6-.3 194.3 1.1 16 .3 26 14.5 34 27 16.5 26.1 3.8 85.3-20.8 102-7.1 4.8-14.9 6.4-23.2 6.4h-90v-.5zm96.6-70.7c2.2-17.7-.4-27.7-20.8-27.2-48.3 1.3-96.6.1-144.9.9-10.6.2-28.3-7.2-28.8 12.3-.4 15.1-12.4 41 12.6 43.2 46.7 4.1 94 1.3 141 1 21.6-.2 51 8.9 40.9-30.2zm303.9 71.2c-29.5 0-59 .6-88.4-.2-27.1-.7-45.9-16.4-48.5-41.9-2.9-28.9-11-61.2 18.8-84 7.1-5.5 14.3-10.4 23.2-10.4 64.3-.1 128.6-1.2 192.8 1.3 21.2.8 37.7 18.2 39.2 39.9 2 29.3 11 61.5-18.9 84.6-8.6 6.7-17.5 10.7-28.2 10.7-30 .1-60 0-90 0zm95-74.2c3.3-19.3-3.3-27.4-21.8-24.8-10.3 1.4-20.9 1.8-31.3 1.7-42.4-.3-85-3.4-127.2-.8-27.9 1.7-10.1 26.9-13.9 40.9-2.8 10.4 5.2 16.3 15.7 16.3 42.9.1 85.9 2 128.5-.8 21-1.3 63.6 20.5 50-32.5zm305-61.7c33 0 66.1-2.1 98.8.8 20.1 1.8 36.2 17.7 37.9 37.9 2.5 30.2 11.8 63.5-19.3 87.2-6.9 5.3-14 9.7-22.4 9.7-64.8 0-129.6.5-194.3-1.1-17.2-.4-28.6-15.5-35.5-30-12.8-26.9-2.6-75.2 18-95.5 7.5-7.4 16.9-9.7 26.9-9.8 15-.1 30 0 45 0h45c-.1.2-.1.5-.1.8zm-3.5 95.1c24.8 0 49.6-.2 74.4.1 8.3.1 19.2 4.1 22.9-5.4 5.8-15.2 5.2-32.1-.5-47.3-3.6-9.6-14.6-5.3-22.6-5.2-9.3.1-18.6 1.6-27.9 1.5-41.5-.4-82.9-1.4-124.4-1.7-34.1-.2-14.3 26.2-18.4 40.2-3.4 11.4 4.5 18 17 17.9 26.6-.2 53-.1 79.5-.1z"/><path class="st2" d="M317.6 186.7c6.7 51.9-30.2 29.2-48.5 31.8-34.2 4.8-68.9 1-103.2-3.1-7.5-.9-13.6 1.9-15.1 10.4s3.4 13.2 10.1 17c20.3 11.5 37.8 27.6 50.9 45.7 11.7 16.2-9.2 25.9-18.3 36.6-7 8.4-16.5 8-24.5 0-36.4-36.3-71.8-73.5-109.2-108.7-16.2-15.3-13.5-24.5.1-39.7 36.3-40.8 77.6-77.2 110-121.7 6.4-8.8 15.6-8.9 24.2-.9 36.9 34 26.7 32.4-15.4 74-2.3 2.3-5.2 4.1-7.9 6-7.4 5.1-17.3 9-11.6 21.1 4.8 10.3 14.6 8.4 23.1 8.2 40.9-1 81.8-3.6 122.7-3.2 20.9.3 10 19.7 12.6 26.5zm399.5 1.5c10.1 39.1-19.3 30-40.9 30.2-47 .3-94.3 3.1-141-1-25-2.2-13-28.1-12.6-43.2.5-19.5 18.2-12.1 28.8-12.3 48.3-.8 96.6.4 144.9-.9 20.4-.5 23 9.6 20.8 27.2zm398.9-3c13.7 53-29 31.2-50 32.6-42.7 2.8-85.7 1-128.5.8-10.5 0-18.5-5.9-15.7-16.3 3.8-14.1-14-39.3 13.9-40.9 42.2-2.6 84.8.5 127.2.8 10.4.1 21-.3 31.3-1.7 18.5-2.7 25.1 5.4 21.8 24.7zm301.5 33.4c-26.5 0-52.9-.1-79.4.1-12.5.1-20.3-6.5-17-17.9 4.1-14-15.7-40.4 18.4-40.2 41.5.3 82.9 1.3 124.4 1.7 9.3.1 18.6-1.4 27.9-1.5 7.9-.1 19-4.4 22.6 5.2 5.7 15.2 6.3 32.1.5 47.3-3.6 9.5-14.5 5.5-22.9 5.4-24.9-.3-49.7-.1-74.5-.1z"/></svg>