<?xml version="1.0" encoding="utf-8"?>
<!-- Generator: Adobe Illustrator 22.0.1, SVG Export Plug-In . SVG Version: 6.00 Build 0)  -->
<svg version="1.1" id="Layer_1" xmlns="http://www.w3.org/2000/svg" xmlns:xlink="http://www.w3.org/1999/xlink" x="0px" y="0px"
	 viewBox="0 0 1405.5 199.1" style="enable-background:new 0 0 1405.5 199.1;" xml:space="preserve">
<style type="text/css">
	.st0{fill:#FFFFFF;}
</style>
<path class="st0" d="M165.3,107.7c-2.9,0-5.1,0.2-5.1-1.5c0-2.3,1-4.2,1.8-6.2l12.4-29.7c0.8-1.8,1.4-2,1.8-2c0.8,0,0.3,0,1.3,1.3
	l13.2,30.3c0.8,2,1.8,3.9,1.8,6.2c0,1.7-2.3,1.5-5.1,1.5L165.3,107.7L165.3,107.7z M192.2,116.8c4.2,0,5,1.7,10.3,14.7
	c1.8,4.5,2.9,7.5,2.9,11.2c0,10.2-11.4,8.4-11.4,13.2c0,2.3,2.1,2,5,2c4.7,0,10.6-0.7,17.7-0.7c10.6,0,15,0.7,20.8,0.7
	c4.3,0,5.8,0.3,5.8-2.5c0-5.5-8.7,1-13.8-10.9L185.9,42c-2.1-5-2.4-5.4-3.9-5.4c-2.1,0-2.9,3.2-4,5.9l-43.6,101.4
	c-4,9.4-12.2,8.4-12.2,12.2c0,2.2,2.6,1.8,4.8,1.8c4.7,0,9.3-0.7,14.2-0.7c5.1,0,10,0.7,15.1,0.7c3.4,0,8.4,1.2,8.4-2.3
	c0-4.5-17.4-1.8-17.4-13.9c0-4,2.3-9.9,3.4-13.2c3.7-11.1,7.1-11.7,9.8-11.7L192.2,116.8L192.2,116.8z"/>
<path class="st0" d="M356.2,132.8c0,36.4-20,66.4-44.2,66.4c-13.3,0-15.4-7.8-15.4-9.6c0-4.5,2.8-23,8.4-23
	c4.1,0,8.2,15.6,16.7,15.6c8.6,0,8.2-18.3,8.2-23.9V30.4c0-31.5-24.9-15.6-24.9-27.9c0-2.9,4.1-2.5,9.4-2.5c4.5,0,12.2,0.9,24.7,0.9
	c12,0,17.2-0.9,22.7-0.9c3.4,0,7.9-0.7,7.9,3.4c0,5.8-13.5,2-13.5,17.2L356.2,132.8L356.2,132.8z"/>
<g>
	<path class="st0" d="M400.2,93c0-24.3,8-47.4,35.2-47.9c20.8-0.3,40.4,19.1,40.4,56.1c0,27.8-9,50.3-36.7,50.8
		C410.3,152.5,400.2,117.5,400.2,93z M380.4,102.6c0,34,21.7,56.6,54.1,56.6c51.3,0,61.1-41.1,61.1-64.5c0-35.5-24-57.1-55.3-56.8
		C401.8,38.2,380.4,65.8,380.4,102.6z"/>
	<path class="st0" d="M533.9,133.1c0,10.4-0.6,16.4,10.9,16.4c39.9,0,37.6-22,43.8-22c0.6,0,1.8,0.5,1.8,3.7
		c0,13.1-9.5,26.8-22.7,26.8c-24.5,0-34.1-0.7-42.2-0.7c-5,0-11.7,0.7-20.6,0.7c-2.1,0-3.1-0.8-3.1-1.8c0-7.7,12.2,1.3,12.2-19.1
		V57.8c0-14.2-18.2-9.7-18.2-15.6c0-1.5,1.8-2.8,5.1-2.8c6.4,0,15.8,0.7,21.9,0.7c13.7,0,15.6-0.7,18.2-0.7c3.4,0,4.2,0.2,4.2,2.2
		c0,6.4-11.4,0.2-11.4,12.9L533.9,133.1L533.9,133.1z"/>
	<path class="st0" d="M626.2,133.1c0,10.4-0.6,16.4,10.9,16.4c39.9,0,37.6-22,43.8-22c0.6,0,1.8,0.5,1.8,3.7
		c0,13.1-9.5,26.8-22.7,26.8c-24.5,0-34.1-0.7-42.2-0.7c-5,0-11.7,0.7-20.6,0.7c-2.1,0-3.1-0.8-3.1-1.8c0-7.7,12.2,1.3,12.2-19.1
		V57.8c0-14.2-18.2-9.7-18.2-15.6c0-1.5,1.8-2.8,5.1-2.8c6.4,0,15.8,0.7,21.9,0.7c13.7,0,15.6-0.7,18.2-0.7c3.4,0,4.2,0.2,4.2,2.2
		c0,6.4-11.4,0.2-11.4,12.9L626.2,133.1L626.2,133.1z"/>
	<path class="st0" d="M725.5,107.7c-2.9,0-5.1,0.2-5.1-1.5c0-2.3,1-4.2,1.8-6.2l12.4-29.7c0.8-1.8,1.4-2,1.8-2c0.8,0,0.3,0,1.3,1.3
		l13.2,30.3c0.8,2,1.8,3.9,1.8,6.2c0,1.7-2.3,1.5-5.1,1.5L725.5,107.7L725.5,107.7z M752.4,116.8c4.2,0,5,1.7,10.3,14.7
		c1.8,4.5,2.9,7.5,2.9,11.2c0,10.2-11.4,8.4-11.4,13.2c0,2.3,2.1,2,5,2c4.7,0,10.6-0.7,17.7-0.7c10.6,0,15,0.7,20.8,0.7
		c4.3,0,5.8,0.3,5.8-2.5c0-5.5-8.7,1-13.8-10.9L746.1,42c-2.1-5-2.4-5.4-3.9-5.4c-2.1,0-2.9,3.2-4,5.9l-43.6,101.4
		c-4,9.4-12.2,8.4-12.2,12.2c0,2.2,2.6,1.8,4.8,1.8c4.7,0,9.3-0.7,14.2-0.7c5.1,0,10,0.7,15.1,0.7c3.4,0,8.4,1.2,8.4-2.3
		c0-4.5-17.4-1.8-17.4-13.9c0-4,2.3-9.9,3.4-13.2c3.7-11.1,7.1-11.7,9.8-11.7L752.4,116.8L752.4,116.8z"/>
</g>
<path class="st0" d="M910,125c0,13.9-0.9,21.9,14.6,21.9c53.2,0,50.2-29.3,58.4-29.3c0.9,0,2.4,0.7,2.4,4.9
	c0,17.4-12.7,35.8-30.2,35.8c-32.6,0-45.5-0.9-56.2-0.9c-6.7,0-15.7,0.9-27.5,0.9c-2.8,0-4.1-1.1-4.1-2.5c0-10.3,16.3,1.8,16.3-25.5
	V24.6c0-19-24.2-13-24.2-20.8c0-2,2.4-3.8,6.9-3.8c8.6,0,21,0.9,29.2,0.9c18.2,0,20.8-0.9,24.2-0.9c4.5,0,5.6,0.2,5.6,2.9
	c0,8.5-15.2,0.2-15.2,17.2L910,125L910,125z"/>
<g>
	<path class="st0" d="M1030.3,137c0,20.6,18,12.9,18,18.3c0,1.8-1.4,2.5-5.1,2.5c-6,0-11.9-0.7-24.5-0.7c-6.9,0-13.8,0.7-18,0.7
		c-1.4,0-1.8-1.2-1.8-2c0-5.9,11.6-1.5,11.6-17.4V57.9c0-15.3-18.2-10.6-18.2-16.4c0-2.8,4-2.3,5.5-2.3c6.3,0,12.5,0.7,18.2,0.7
		c5.8,0,11.6-0.7,20.8-0.7c4.8,0,5.6,0.3,5.6,2.3c0,5.7-12.1-0.3-12.1,15.6L1030.3,137L1030.3,137z"/>
	<path class="st0" d="M1156,78.2c0,2.2-1,3-4,3c-3.5,0-3.5-36.5-45.9-36.5c-15,0-36.2,10.2-36.2,52.6c0,23,11.3,53.5,37.3,53.5
		c29,0,29.4-14.1,29.4-23.8c0-26.1-19.1-14.7-19.1-21.1c0-4.9,5.1-3.5,7.9-3.5c7.6,0,15,0.7,22.5,0.7c6,0,11.6-0.7,17.4-0.7
		c0.8,0,1.8,0.7,1.8,2.3c0,7.2-11.1-1.8-11.1,19.6c0,6.9,0.5,11.6,0.5,13.9c0,2.7-0.2,3.5-1.6,4.4c-15.3,8.7-33.1,16.4-50.7,16.4
		c-47.1,0-54.4-42.9-54.4-56.1c0-28.2,16.6-65.2,57.1-65.2c22.4,0,35.9,10.9,40.2,10.9c3.5,0,3.9-4.7,6.4-4.7c2.4,0,2.4,3.7,2.4,6.4
		L1156,78.2L1156,78.2z"/>
	<path class="st0" d="M1281.2,134.2c0,21.3,16.7,15.1,16.7,21.6c0,2.2-1.3,2-3.4,2c-5.3,0-14.8-0.7-21.4-0.7
		c-5.8,0-12.1,0.7-20.3,0.7c-2.3,0-3.2-0.7-3.2-1.8c0-5.9,11.7-1.3,11.7-17.6v-30.2c0-7,0.5-8.9-6.6-8.9h-43c-7.4,0-7.9,1.7-7.9,9.1
		v26.3c0,20.8,19.9,14.7,19.9,20.8c0,1,0.3,2.3-4.8,2.3c-6.6,0-11.9-0.7-23.5-0.7c-6.8,0-13.5,0.7-21.6,0.7c-1.9,0-3.5-0.3-3.5-2.5
		c0-6.7,13.7-0.7,13.7-21.5V59.1c0-18.3-18.2-10.9-18.2-17.3c0-2.5,4.8-2.7,7.9-2.7c4.8,0,9.7,0.7,18,0.7c9.7,0,16.1-0.7,20.8-0.7
		c2.3,0,3.7,0.8,3.7,2.5c0,5.2-12.4,0.3-12.4,15.3v26.6c0,4.5,0.6,6.7,4,6.7h47.8c4.7,0,5.6-3.9,5.6-7.5V59.1
		c0-18.4-17.7-12.4-17.7-17.3c0-3,1.4-2.7,3.7-2.7c6.6,0,10.8,0.7,20.8,0.7c8.4,0,14.3-0.7,21.2-0.7c2.7,0,3.4,0.5,3.4,2
		c0,6.4-11.6-0.8-11.6,15.6L1281.2,134.2L1281.2,134.2z"/>
	<path class="st0" d="M1328.8,157.8c-2.9,0-5.6,0.2-5.6-3.5c0-6.5,18.2,1.5,18.2-18.4V58.1c0-8-1.6-8.9-8.2-8.9h-13.5
		c-18.2,0-13.4,22-20.6,22c-3.4,0-2.4-3.7-2.1-5.9l2.6-22.1c0.2-1.7,0.2-4,2.6-4c15,0,25.7,0.7,49.2,0.7c23.5,0,34.3-0.7,49.2-0.7
		c2.4,0,2.4,2.3,2.6,4l1.8,15.4c0.3,2,2.1,8.5-2.1,8.5c-6.4,0-1.3-18.6-19.8-17.9h-13.7c-6.6,0-8.2,0.8-8.2,8.9v75.8
		c0,20.6,20.6,15.8,20.6,20.4c0,4-3.2,3.5-7.9,3.5c-6.4,0-11.7-0.7-22.5-0.7"/>
</g>
<path class="st0" d="M50.6,130.9c0,13.9-0.9,21.9,14.6,21.9c53.2,0,50.2-29.3,58.3-29.3c0.9,0,2.4,0.7,2.4,4.9
	c0,17.4-12.7,35.8-30.2,35.8c-32.6,0-45.5-0.9-56.2-0.9c-6.7,0-15.7,0.9-27.5,0.9c-2.8,0-4.1-1.1-4.1-2.5c0-10.3,16.3,1.8,16.3-25.5
	V30.6c0-19-24.2-13-24.2-20.8C0,7.8,2.4,6,6.9,6c8.6,0,21,0.9,29.2,0.9C54.3,6.9,56.8,6,60.3,6c4.5,0,5.6,0.2,5.6,2.9
	c0,8.5-15.2,0.2-15.2,17.2L50.6,130.9L50.6,130.9z"/>
</svg>
