<svg xmlns="http://www.w3.org/2000/svg" viewBox="0 0 18.4 14"><path d="M12.3 0c-.6 0-1.2.4-1.8.5-1-.3-2-.5-3.1-.5C3.3 0 0 2.8 0 6.1c0 1.8.9 3.5 2.5 4.6V14l3.4-1.9c.5.1 1 .1 1.4.1 2 0 3.8-.7 5.2-1.8.3 0 .6 0 .9-.1l2.9 1.6V9.3c1.3-1 2.1-2.3 2.1-3.8 0-2.9-2.8-5.5-6.1-5.5zM7.4 11.3c-.5 0-1 0-1.4-.1h-.2l-2.2 1.2v-2.1l-.2-.1C1.8 9.1 1 7.7 1 6.1 1 3.3 3.8 1 7.4 1c.5 0 1.1 0 1.6.1-1.7.9-2.8 2.5-2.8 4.3 0 2.4 2 4.5 4.8 5-1 .6-2.3.9-3.6.9zm8.1-2.7l-.2.1v1.6l-1.7-.9h-.2c-.4.1-.8.1-1.2.1h-.1c-2.8-.1-5-1.9-5-4.1 0-1.7 1.3-3.3 3.2-4 .6-.1 1.1-.4 1.7-.4h.3c2.8 0 5.1 2.2 5.1 4.4 0 1.3-.7 2.4-1.9 3.2z"/></svg>