<svg viewBox="0 0 17 13" xmlns="http://www.w3.org/2000/svg"><path d="m13.5.3s-1.9-.3-4.9-.3-5.1.3-5.1.3c-1.9 0-3.5 1.5-3.5 3.4v5.3c0 1.9 1.6 3.5 3.5 3.5 0 0 2.1.5 5.1.5s4.9-.4 4.9-.4c1.9 0 3.5-1.6 3.5-3.5v-5.4c0-1.9-1.6-3.4-3.5-3.4zm2.5 8.8c0 .7-.2 1.3-.6 1.7-.5.5-1.1.7-1.7.7 0 0-1.9.5-5 .5-3.2 0-5.1-.5-5.1-.5-.7 0-1.3-.3-1.7-.7-.5-.5-.8-1.1-.8-1.7v-5.3c-.1-.7 0-1.3.5-1.8s1.3-.7 2-.7c0 0 1.8-.3 5-.3s5 .3 5 .3c.7 0 1.3.3 1.7.7.5.5.7 1.1.7 1.7zm-8.3-5.8c-.1-.1-.3-.1-.4-.1s-.3.3-.3.4v5.9c0 .2.1.4.3.5h.2c.1 0 .2 0 .3-.1l4-3.1c.1-.1.2-.2.2-.3s-.1-.3-.2-.3zm.3 5.4v-4.2l2.8 1.9z"/></svg>