<svg viewBox="0 0 15.9 13" xmlns="http://www.w3.org/2000/svg"><path d="m5.1 13c-1.8 0-3.5-.5-4.9-1.5-.2-.1-.2-.3-.2-.5.1-.2.2-.3.4-.3h.7c1 0 1.9-.2 2.8-.7-1-.2-1.8-1-2.2-2 0-.1 0-.3.1-.4l.1-.1c-.8-.6-1.3-1.6-1.3-2.7 0-.1.1-.3.2-.3.1-.1.2-.1.3 0-.3-.6-.5-1.2-.5-1.8s.2-1.2.5-1.7c.1-.1.2-.2.3-.2s.2 0 .3.1c1.4 1.7 3.4 2.7 5.6 3v-.3c0-1.8 1.6-3.6 3.5-3.6.9 0 1.7.6 2.4 1.2.6-.1 1.1-.3 1.6-.6.1-.1.3-.1.4 0s.2.3.1.4c-.1.3-.2.6-.4.8.1 0 .2-.1.3-.1h.1c.2 0 .4.2.4.4 0 .1 0 .2-.1.3-.4.6-1.1 1.2-1.6 1.6v.2c.1 4.1-3.1 8.8-8.9 8.8zm-3.7-1.8c1 .4 2.7.9 3.8.9 5.1-.1 7.9-4 8.1-8v-.4c0-.1.1-.3.2-.3.2-.1 1.1-.9 1.1-.9s-.6.3-.8.3-.4-.1-.4-.3c-.1-.2 0-.4.2-.5s.7-.6.7-.6-.7.3-1 .4c-.1 0-.3 0-.4-.1-.5-.5-1.2-1-2-1-1.6.2-2.9 1.5-2.9 2.9 0 .2 0 .4.1.6 0 .1 0 .2-.1.3 0 .1-.2.2-.3.2-2.4-.1-4.4-1-6-2.7-.1.2-.2.4-.2.7 0 .9.4 1.7 1.1 2.2.1.1.2.3.2.4 0 .2-.2.3-.4.3-.3 0-.6-.1-.9-.2.2 1 1 1.8 2.1 2 .2 0 .3.2.3.4s-.1.3-.3.4c-.3 0-.6.1-.8.1.4.7 1.3 1.2 2.2 1.2.2 0 .3.1.4.3s0 .3-.1.4c-1 .7-2.7.9-3.9 1z"/></svg>