<svg xmlns="http://www.w3.org/2000/svg" width="285" height="305" viewBox="0 0 285 305">
    <g fill="none" fill-rule="evenodd">
        <path d="M82.41 66.65c1.05-5.03-6.75 20-13.14 25.61-6.83 6-15.13 16.48-18.94 28.07-3.28 9.92-6.96 22.63-10.55 37.7-5.33 22.3-43.62 65.2-18.07 93.79 2.74 3.08 68.69 73.76 169.18 41.99 11.82-3.74 93.45-24.37 86.72-85.09-.46-4.09-2.41-18.37-14.13-33.64-4.99-6.51-7.46-9.57-10.23-18.82-1.94-6.51 4.35-29.4-22.34-65.93-2.58-3.54-48.48-89.3-148.5-23.68" fill="#F79CAD"/>
        <path d="M83.15 75.38c-2.75 7.04-8.23 20.91-14.21 26.16-3.17 2.78-6.74 6.74-9.89 11.42-2.59 3.83-4.86 8.11-6.31 12.53-1.74 5.26-3.54 11.15-5.34 17.56-1.54 5.54-3.22 12-5 19.45-1.76 7.37-6.18 15.86-11.07 25.25-10.32 19.82-23.18 44.53-9.17 60.22 1.69 1.89 29.06 31.25 74.94 42.65 23.63 5.86 52.11 6.85 84.39-3.35 2.41-.77 2.48-.79 2.72-.85 16.51-4.92 82.97-24.73 77.47-74.32v-.03c-.19-1.74-.7-5.64-2.4-10.68-1.72-5.16-4.7-11.56-9.85-18.27l-.38-.51c-5.44-7.07-8.21-10.69-11.41-21.41-.74-2.5-.81-5.14-.88-8.66-.22-9.45-.64-27.86-20.06-54.45v-.04c-.32-.43-.63-.94-1.08-1.66-5.89-9.49-46.98-75.63-132.47-21.01" fill="#F7BDBD"/>
        <path d="M129 228.44c1.36 9.86 19.35 12.91 36.54 13.56 9.88.36 27.78-19.98 40.37-36.07 4.29-5.5-4.6-5.6-17.18-4.1-2.35.28-5.03 3.62-7.79 8.76 0 0-4.44 2.44-9.06 4.96-4.86 2.65-9.93 5.36-10.29 5.42-4.51.71-9.37.62-13.97.14-11.03-1.16-18.62 7.33-18.62 7.33" fill="#AB3054"/>
        <path d="M68.11 213c3.04 2.05 6.54 4.42 10.13 6.87v.01c3.88 2.64 8.07 5.51 11.98 8.19 3.98 2.73 8.52 5.49 14.45 6.07 6.02.6 17.17-1.73 27.33-7.75l-.28 7.23c-.99-2.33-2.91-1.11-4.06-.75-6.27 1.98-17.66 5.63-23.35 5.07-6.81-.67-11.83-3.71-16.21-6.71-3.9-2.68-8.1-5.55-11.98-8.19-4.17-2.84-7.83-5.33-10.12-6.87l2.11-3.17z" fill="#AB3054"/>
        <path d="M173 117c8.28 0 15 12.54 15 28s-6.72 28-15 28c-8.28 0-15-12.54-15-28s6.72-28 15-28" fill="#FFF"/>
        <path d="M173 117c8.28 0 15 12.54 15 28s-6.72 28-15 28c-8.28 0-15-12.54-15-28s6.72-28 15-28z" stroke="#75213B" stroke-width=".6"/>
        <path d="M69.5 117c7.46 0 13.5 10.98 13.5 24.53 0 5.14-.88 9.92-2.37 13.87-4.22-1.1-8.79-1.5-13.51-1.08-2.97.26-5.82.83-8.52 1.68-1.63-4.06-2.6-9.06-2.6-14.47C56 127.98 62.04 117 69.5 117" fill="#FFF"/>
        <path d="M69.5 117c7.46 0 13.5 10.98 13.5 24.53 0 5.14-.88 9.92-2.37 13.87-4.22-1.1-8.79-1.5-13.51-1.08-2.97.26-5.82.83-8.52 1.68-1.63-4.06-2.6-9.06-2.6-14.47C56 127.98 62.04 117 69.5 117z" stroke="#75213B" stroke-width=".6"/>
        <path d="M92.88 161c-3.26-2.28-7.07-4.02-11.23-5.07-4.01-1.01-8.35-1.38-12.83-.97-1.05.09-2.05.22-3 .38-1.01.16-1.99.37-2.95.6l-.87-3.68c1.06-.26 2.13-.48 3.22-.66 1.1-.18 2.2-.33 3.27-.43 4.89-.44 9.64-.03 14.05 1.08 4.59 1.16 8.82 3.09 12.46 5.63L92.88 161z" fill="#75213B"/>
        <path d="M178.92 88.54c4.34 1.64 8.69 5.08 10.93 12.07.61 1.9-.61 5.03-4.78 4.28-1.26-.22-4.91-7.98-16.62-10.91-1.21-.29-3.93-1.66-1.42-5.44.77-1.17 1.39-1.48 2.28-1.52 2.87-.14 7 .52 9.61 1.52" fill="#A61F4A"/>
        <path d="M47.95 48L28.9 58.82s-10.22 4.84-9.89 12.78c.1 2.46 17.29 12.47 24.06 22.33.98 1.42 34.16-18.14 4.88-45.93" fill="#F79CAD"/>
        <path d="M44.78 49l-16.24 9.62s-9.85 4.86-9.53 12.85c.09 2.47 16.67 12.54 23.2 22.45.07.12.34.1.75-.04-.85-3.56-1.31-6.75-3.89-10.06-5.69-7.26-12.29-12.92-3.92-20.14l1.17-1.02c1.78-2.74 13.41-5.59 8.46-13.66" fill="#F7BDBD"/>
        <path d="M200.68 33.01s18.02 2.02 36.22 4.14c11.03 1.29 40.37 24.42 47.88 44.1 2.23 5.82-13.13 6.68-30.23 6.72-8.75.01-17.32 2.71-24.2 5.81-3.84 1.73-11.68-7.07-25.39-19.9-10.81-10.11-3.43-41.57-4.28-40.87" fill="#F79CAD"/>
        <path d="M278 88.27c-5.79 1.08-14.32 1.33-23.33 1.35-5.17.01-10.28.96-15.02 2.38-4.03-.61-6.45-1.09-14.49-4.52-10.63-4.54-5.71-9.82 1.32-13.81 10.08-5.74 26.76-4.08 37.04.39 12.03 5.23 12.69 10.47 14.48 14.21" fill="#F7BDBD"/>
        <path d="M69.73 13.82c7.81-2.61 46.07-20.25 76.19-11.16 5.58 1.69 33.33 20.78 52.03 34.81 1.42 1.06-.21 3.45-3.89 6.7-6.83 6.04-13.26 12.88-23.83 25.38-1.37 1.61-3.3 4.68-5.41 3.62-6.64-3.36-11.38-6.07-28.56-12.37-13.56-4.97-56.64.87-70.88-2.4-7.27-1.68-23.99 7.13-40.38 15.16-2.97 1.45-10.03-5.57-18.18-15.25C3.35 54.19-1.71 46.93.69 42.87c2.43-4.11 7.57-7.76 13.36-10.86C35.52 20.55 48.4 20.97 69.73 13.82" fill="#6B6BE6" mask="url(#mask-2)" transform="translate(38)"/>
        <path d="M110.96 16.96c-1.83.7-3.26 1.26-4.28 1.59-7.83 2.62-14.5 4.23-20.86 5.76-10.96 2.64-21 5.06-34.46 12.21-2.78 1.48-5.37 3.07-7.5 4.73-2.02 1.59-3.66 3.24-4.66 4.92-.41.7-.15 1.98.44 3.46 1.15 2.88 3.52 6.06 5.4 8.29 4 4.73 7.71 10.06 10.73 12.71 1.05 1.51 9.43-8.21 20.26-14.42 8.51-4.88 19.51-7.87 23.15-7.03 2.34.53-7.46-17.15-6.85-13.79.73 3.93 24.71 12.06 27.32 11.84 3.55-.32 9.91 2.88 13.71 2.44 13-1.51 22.28 3.18 30.26 6.1 7.81 2.85 15.04 5.71 21.22 8.29 7.67 3.2 13.85 6.03 17.6 7.91.49.25.28-1.22.88-1.98.23-.28.45-.56.7-.85h.01c5.4-6.36 9.7-11.23 13.45-15.21 3.85-4.08 7.24-7.36 10.75-10.45 1.22-1.08 2.16-2.01 2.77-2.76-9.83-7.31-21.82-15.78-31.72-22.38-8.78-5.85-15.84-10.21-18.12-10.89-25.51-7.67-57.59 4.67-70.2 9.51" fill="#8594FF"/>
        <path d="M176 61.89s-32.7 8.72-53.58 20.34c-1.59.87-6.83 5.46-20.69 10.1-5.47 1.83-28.08 5.14-50.85 7.57-10.62 1.13-6.98-7.33-2.11-15.77 3.38-5.83 17.47-19.63 36.28-28.37 7.4-3.44 22.68-11.26 90.95 6.13" fill="#6B6BE6"/>
        <path d="M110.82 79.67c12.97-7.92 30.85-16.14 41.18-20.68-49.84-12.7-64-4.93-70.66-1.26-.6.33-1.14.63-1.56.84-7.13 3.64-13.5 8.18-18.68 12.63-6.82 5.85-11.5 11.42-13.11 14.47-2.05 3.9-3.85 7.75-3.99 10.23-.05.82.67 1.28 2.78 1.04 10.52-1.23 20.96-2.68 29.31-4.05 8.03-1.31 14.11-2.53 16.4-3.37 10.07-3.7 14.9-7.33 17.04-8.93.54-.4.95-.71 1.29-.91v-.01z" fill="#8594FF"/>
        <path d="M39 246.48c-.02.02-8.78 5.2-12 2.96l2.73-4.27c.68.48 6.85-3.16 6.87-3.17l2.4 4.48zM25 225.87c0 .02-2.04 4.98-1.97 5.03l-3.47 4.1c-3.64-2.74.23-10.98.24-11l5.2 1.87zM50.63 237.9c-.01 0-5.2-.35-6.46.84L41 234.43c2.7-2.54 9.98-2.15 10-2.15l-.37 5.62zM60 256.55c-.02.01-5.6 5.38-10.02 7.45L48 259.62c3.74-1.76 8.8-6.61 8.81-6.62l3.19 3.55zM80 254.92c-.02.01-9.18 2.93-12.16 5.08L65 255.81c3.62-2.62 13.55-5.8 13.58-5.81l1.42 4.92zM82.41 275.03c.01-.03.01-.04.03-.01v.02c.41.83 1.57 3.29-1.47 9.96L76 282.99c2.11-4.63 1.67-5.54 1.53-5.85-.19-.4-.32-.7-.32-1.25h3.24l1.96-.86zm.01.03l-.01-.03-1.96.86h.02l1.95-.83zm.14.83c-.06-.2-.14-.68-.14-.83l-1.95.83h2.09zM264.77 206c.01.03 3.94 9.98 3.12 14l-4.98-.96c.52-2.49-2.9-11.39-2.91-11.42l4.77-1.62zM258 241.23c0 .03-.75 10.08-1.5 14.77l-5.5-.7c.73-4.57 1.45-14.28 1.45-14.3l5.55.23zM221 242.64c-.01.03-3.79 10.57-7.68 13.36l-3.32-3.93c2.55-1.83 5.9-11.05 5.91-11.07l5.09 1.64zM229.06 253c.01.01 5.09 4.41 6.94 9.24l-4.57 1.76c-1.41-3.68-5.42-7.14-5.43-7.14l3.06-3.86zM221.35 273l9.65 12.1-4.35 2.9-9.65-12.1zM206.56 257c0 .03.39 8.81-.92 12l-5.26-1.79c.93-2.29.57-9.88.57-9.9l5.61-.31zM184.83 257.34c0 .02-.36 7.61-1.19 10.66l-5.46-1.25c.65-2.39 1.04-9.73 1.04-9.75l5.61.34zM153.44 259c.01.03 5.98 9.92 5.54 14l-5.17-.58c.24-2.25-4.8-10.63-4.81-10.65l4.44-2.77zM172.26 269c0 .02.83 9.22-.59 12l-5.17-1.85c.81-1.59.15-9.89.15-9.91l5.61-.24zM128.54 273.4c0 .03-1.06 10.84-.17 12.89l-5.26 1.71c-1.36-3.13-.18-14.98-.18-15l5.61.4zM157.45 280c.02.02 5.16 9.97 5.55 13.45l-4.96.55c-.28-2.48-5.02-11.74-5.04-11.77l4.45-2.23zM147.52 290c0 .03 2.52 8.56 3.48 14.06l-4.62.94c-.89-5.08-3.37-13.54-3.38-13.56l4.52-1.44zM101.5 283.68c-.24.23.81 6.99.81 7.01l-5.61.31c0-.03-.16-10.08.82-11l3.98 3.68zM116.99 290c0 .02.35 7.39 2.01 12.2l-4.69 1.8c-1.93-5.6-2.31-13.62-2.31-13.65l4.99-.35zM198.98 276c0 .01.39 5.17-2.43 12l-4.55-1.73c2.4-5.8 2.11-9.8 2.11-9.81l4.87-.46zM8.74 162.62c-6.12 9.11-3.61 21.54-.37 30.47 1.95 5.4 9.5 22.72 26.9 25.87 3.5.64 31.37 5.7 47.03-14.19 1.23-1.56 9.31-14.2 3.79-28.72-6.47-17.06-25.17-25.67-42.5-26.94-11.62-.86-28.03 3.35-34.85 13.51" fill="#AB3054"/>
        <path d="M3.71 14.09c-6.07 9.17-3.59 21.7-.38 30.69C5.27 50.21 12.76 67.66 30 70.83c3.47.64 31.1 5.74 46.62-14.3 1.22-1.56 9.23-14.29 3.76-28.91C73.97 10.44 55.43 1.77 38.25.49 26.73-.37 10.47 3.86 3.71 14.09" fill="#F79CAD" mask="url(#mask-4)" transform="translate(0 149)"/>
        <path d="M22.85 168c3.84 0 6.56 3.81 6.1 8.5-.47 4.69-3.97 8.5-7.8 8.5-3.84 0-6.56-3.81-6.1-8.5.47-4.69 3.97-8.5 7.8-8.5M48.85 179c3.84 0 6.56 3.8 6.1 8.5-.47 4.69-3.97 8.5-7.8 8.5-3.84 0-6.56-3.81-6.1-8.5.47-4.7 3.97-8.5 7.8-8.5" fill="#AB3054"/>
        <path d="M178.28 127c-6.78 0-12.28 7.16-12.28 16s5.5 16 12.28 16c3.08 0 5.9-1.48 8.05-3.93 1.06-3.65 1.67-7.79 1.67-12.17 0-4.26-.57-8.3-1.58-11.88-2.17-2.5-5.02-4.02-8.14-4.02M76.13 127c-6.7 0-12.13 7.3-12.13 16.29 0 3.62.88 6.97 2.37 9.67l.54-.04c4.78-.43 9.41-.02 13.69 1.08 1.51-3.98 2.4-8.8 2.4-14 0-4.08-.55-7.94-1.52-11.33-1.61-1.07-3.43-1.67-5.35-1.67" fill="#75213B"/>
    </g>
</svg>
