<svg fill="none" xmlns="http://www.w3.org/2000/svg" viewBox="0 0 129 40" width="129px" height="40px"><path d="M19.57 0v7.23h2.76v4.48H11.84V7.23h2.76V0H0v7.23h3.16v17.18H0v7.23h14.6V24.4h-2.76v-5.83h10.49v5.83h-2.76v7.23h14.6V24.4H31V7.23h3.16V0H19.57zM53.61 17.76c0-1.21-.45-2.7-1.13-3.57a3.87 3.87 0 00-3.1-1.27 4.27 4.27 0 00-3.05 1.1 5.84 5.84 0 00-1.48 3.74h8.76zm8.04 7.23a9.67 9.67 0 01-3.97 5.52c-2.67 1.76-5.7 2-8.27 2-2.66 0-6.82-.24-9.81-3.36a12.23 12.23 0 01-3.2-8.72 12.84 12.84 0 013.56-9.22c2.85-2.85 6.73-3.4 9.63-3.4 2.04 0 6.38.23 9.26 3.26 2.9 2.98 3.22 7.06 3.22 10.36v.49H44.85a5.87 5.87 0 001.58 4.39c.92.72 2.08 1.09 3.25 1.04.87 0 1.68-.1 2.53-.64.68-.4 1.14-.99 1.32-1.72h8.12zM64.3 0h11.16v26.21h2.94v5.43H64.3v-5.43h2.93V5.41h-2.93L64.29 0zm27.44 25.53c.86 1.23 1.76 1.63 3.34 1.63 1.5 0 2.53-.5 3.44-1.7 1.22-1.65 1.36-3.63 1.36-5.2 0-1.6-.1-3.45-1.31-5.2a3.72 3.72 0 00-3.25-1.73 4.27 4.27 0 00-3.54 1.82c-1.21 1.57-1.34 3.88-1.34 5.2 0 1.44.17 3.6 1.3 5.2v-.02zM79.6 8.67h10.76v2.53h.19c1.44-2.4 4.65-3.39 7.18-3.39 3.07 0 5.42.67 7.55 3.03 2.53 2.8 3.03 6.32 3.03 9.07 0 4.89-1.59 7.97-3.54 9.77-2.34 2.3-5.14 2.8-7.68 2.8a9.6 9.6 0 01-3.88-.76 6.05 6.05 0 01-2.44-2.13v5.3h2.94V40H79.6v-5.43h2.94V14.11H79.6l-.01-5.44zM120.61 0h7.67v4.21h-1.76l-3.93 4.62 4.24 5.4h1.8v4.21h-7.94v-3.7h.82l-2.03-2.83-2.03 2.84h.9v3.69h-7.98v-4.21h1.79l4.24-5.4-3.92-4.62h-1.76V0h7.65v3.43h-1.04l2.16 2.73 2.14-2.73h-1L120.6 0z" fill="#8a8a8a"/></svg>