<svg width="16" height="17" viewBox="0 0 16 17" fill="none" xmlns="http://www.w3.org/2000/svg">
<g clip-path="url(#clip0)">
<path d="M9.00008 0.946655C9.00008 0.946655 9.49341 2.71332 9.49341 4.14665C9.49341 5.51999 8.59341 6.63332 7.22008 6.63332C5.84008 6.63332 4.80008 5.51999 4.80008 4.14665L4.82008 3.90666C3.47341 5.50666 2.66675 7.57999 2.66675 9.83332C2.66675 12.78 5.05341 15.1667 8.00008 15.1667C10.9467 15.1667 13.3334 12.78 13.3334 9.83332C13.3334 6.23999 11.6067 3.03332 9.00008 0.946655ZM7.80675 13.1667C6.62008 13.1667 5.66008 12.2333 5.66008 11.0733C5.66008 9.99332 6.36008 9.23332 7.53341 8.99332C8.71341 8.75332 9.93341 8.18665 10.6134 7.27332C10.8734 8.13332 11.0067 9.03999 11.0067 9.96665C11.0067 11.7333 9.57341 13.1667 7.80675 13.1667Z" fill="#E36E2C"/>
</g>
<defs>
<clipPath id="clip0">
<rect width="16" height="16" fill="white" transform="translate(0 0.5)"/>
</clipPath>
</defs>
</svg>
