<svg width="110" height="110" viewBox="0 0 110 110" fill="none" xmlns="http://www.w3.org/2000/svg">
<path d="M80.034 5.9519H89.3742C89.3838 10.6785 89.3397 15.4741 88.104 20.0686C86.8433 24.9791 83.9847 29.5352 79.8309 32.4953C77.3689 34.1162 74.3686 34.6584 71.4717 34.8232C69.7148 34.8711 67.9157 34.8807 66.2048 34.4304C64.9402 34.0587 64.4287 32.3363 65.2449 31.3151C65.7066 30.6426 66.5726 30.3763 67.3543 30.5315C69.7991 30.9166 72.3185 30.8285 74.7288 30.2652C76.1312 29.9414 77.4858 29.3283 78.5377 28.3301C81.3388 25.9141 83.247 22.5765 84.1571 19.011C84.9254 16.0853 85.2051 13.0485 85.2435 10.0309C81.2468 10.0233 77.2272 9.98879 73.2688 10.6268C69.5711 11.1767 65.8331 12.3837 62.9649 14.8668C61.0585 16.4532 59.8956 18.7715 59.2978 21.1453C58.8533 22.8831 58.8552 24.7262 59.3016 26.464C60.1561 25.5501 60.9072 24.5423 61.8019 23.6629C65.7871 19.6126 70.7915 16.7348 75.9492 14.4414C76.5508 14.1579 77.2655 13.9989 77.8977 14.2862C78.9036 14.679 79.4324 15.9397 79.0052 16.9322C78.7791 17.5587 78.1909 17.9342 77.6104 18.1928C72.4162 20.4766 67.3447 23.4195 63.5876 27.7534C60.9608 30.7921 59.1579 34.6125 58.8341 38.6417C61.5145 38.6819 64.1969 38.611 66.8773 38.6704C66.9175 41.1745 66.8715 43.6806 66.8983 46.1866C66.8907 46.6752 66.9271 47.1734 66.8351 47.6562C66.2929 48.4417 65.446 48.9571 64.9038 49.7388C64.785 50.463 64.8579 51.2026 64.8444 51.9345C64.8502 57.9429 64.8502 63.9512 64.8425 69.9577C64.8349 70.3045 64.8808 70.6685 65.1414 70.9253C70.4045 76.9662 75.6618 83.0149 80.9211 89.0616C81.6606 89.9199 82.4634 90.7399 83.0325 91.7305C84.0594 93.4759 84.4062 95.6122 83.9559 97.5875C83.4635 99.877 81.9825 101.963 79.9114 103.079C78.9304 103.621 77.8326 103.904 76.729 104.048H34.6396C33.3157 103.851 31.9995 103.45 30.8844 102.692C28.2347 100.952 26.7345 97.6047 27.2556 94.4703C27.4817 92.9816 28.1772 91.5868 29.1658 90.4583C34.8082 83.9709 40.4545 77.4835 46.1008 70.9962C46.5874 70.5153 46.438 69.7929 46.4629 69.1779C46.4457 62.9147 46.4552 56.6496 46.4591 50.3864C46.438 50.1105 46.4687 49.7963 46.2732 49.5721C45.7387 48.8805 44.9876 48.3861 44.4818 47.6696C44.3707 47.25 44.4109 46.8093 44.4014 46.3782C44.4358 43.8109 44.3726 41.2397 44.432 38.6723C47.8539 38.6034 51.2777 38.6972 54.7015 38.6302C54.9371 35.8731 55.692 33.1947 56.8013 30.6656C56.0522 29.2957 55.3548 27.8722 55.0981 26.3145C54.3508 22.086 55.6096 17.6468 58.062 14.1732C60.2385 11.2456 63.465 9.24924 66.8562 8.01346C71.0751 6.5037 75.5871 6.11284 80.034 5.9519ZM48.5072 42.7456C48.5072 43.8147 48.4478 44.8876 48.5302 45.9548C48.7735 46.2901 49.0667 46.6503 49.469 46.7902C50.2124 46.8879 51.0516 46.702 51.6973 47.1849C52.6303 47.7884 52.866 49.187 52.1935 50.0683C51.8237 50.6297 51.1436 50.8041 50.5477 51.011C50.5305 57.8988 50.5458 64.7885 50.5419 71.6782C50.5956 72.3316 49.9691 72.7148 49.6223 73.1822C46.6104 76.6482 43.5622 80.0835 40.5944 83.5896C41.9394 83.6605 43.2863 83.559 44.6294 83.6356C45.6391 83.7008 46.4782 84.6472 46.4495 85.655C46.4821 86.7241 45.5375 87.6993 44.4646 87.6878C41.9796 87.7261 39.4946 87.6687 37.0097 87.7108C35.6704 89.1439 34.4289 90.6633 33.128 92.129C32.4804 92.8934 31.6948 93.6062 31.4094 94.5986C30.8001 96.5491 31.8903 98.8348 33.7641 99.6261C34.7833 100.078 35.9195 99.9422 37.002 99.9613C49.5821 99.9613 62.164 99.9575 74.746 99.9633C75.75 99.9479 76.8152 100.061 77.7464 99.5992C79.2906 98.8827 80.2122 97.1181 80.0436 95.4416C79.9689 94.5182 79.5167 93.6713 78.917 92.9816C77.5529 91.4086 76.1753 89.8452 74.8227 88.2588C74.5851 88.0193 74.3743 87.6572 73.9835 87.707C66.8926 87.684 59.7998 87.707 52.707 87.6974C51.6455 87.7702 50.6224 86.9195 50.5534 85.8466C50.4097 84.7143 51.385 83.6069 52.5307 83.6222C58.5774 83.5801 64.6279 83.6529 70.6746 83.5858C70.2895 83.0263 69.8297 82.5205 69.3776 82.0147C66.609 78.8458 63.8635 75.6596 61.0873 72.4983C60.8727 72.276 60.7213 71.9963 60.7597 71.6801C60.752 64.7617 60.7711 57.8451 60.752 50.9286C59.3514 50.875 57.9509 50.9497 56.5523 50.8979C55.4353 50.875 54.5022 49.7829 54.6382 48.6755C54.7129 47.7041 55.5751 46.8649 56.5542 46.84C58.3302 46.7748 60.1121 46.8917 61.8843 46.7921C62.3135 46.5507 62.8327 46.1502 62.804 45.6042C62.8135 44.6558 62.8001 43.7055 62.8059 42.7571C58.0409 42.7188 53.2722 42.7399 48.5072 42.7456Z" fill="white"/>
<path d="M20.2202 14.3112C22.1725 13.8992 24.2801 14.2115 26.0082 15.2193C27.9721 16.344 29.4263 18.3193 29.9014 20.5322C30.3612 22.5305 30.0087 24.6955 28.9607 26.4563C27.8935 28.2745 26.0964 29.6483 24.0559 30.1886C22.1074 30.7231 19.9615 30.4913 18.172 29.5486C16.1833 28.5332 14.6582 26.6575 14.0623 24.5059C13.4531 22.3447 13.7769 19.9344 14.9686 18.0262C16.1124 16.137 18.0628 14.7729 20.2202 14.3112ZM21.159 18.2848C19.6052 18.5722 18.2927 19.8386 17.946 21.3771C17.5704 22.9176 18.2027 24.64 19.4845 25.5711C20.6321 26.4429 22.253 26.6345 23.5673 26.0425C24.9315 25.4619 25.9086 24.0805 26.0025 22.5995C26.0887 21.448 25.6653 20.2659 24.8491 19.444C23.916 18.4726 22.4791 18.0223 21.159 18.2848Z" fill="white"/>
<path d="M38.3277 16.1696C39.6669 16.1677 41.0062 16.1677 42.3454 16.1658C42.3799 17.5318 42.3875 18.8979 42.3454 20.2621C41.0062 20.2601 39.6669 20.2601 38.3277 20.2582C38.2415 18.8998 38.2453 17.528 38.3277 16.1696Z" fill="white"/>
<path d="M40.3414 26.6C42.4528 26.1727 44.7002 26.4199 46.6545 27.3338C49.3713 28.5906 51.452 31.0929 52.2816 33.961C52.6379 35.0033 51.9846 36.2352 50.9212 36.5188C49.8962 36.8618 48.7045 36.2142 48.4018 35.1834C47.9918 33.938 47.3174 32.7559 46.2943 31.9129C44.5258 30.3667 41.8359 30.0448 39.7341 31.0756C37.707 32.0317 36.2892 34.1564 36.2413 36.4038C36.1264 38.8237 37.5729 41.2608 39.7992 42.2436C40.5292 42.5789 41.4584 42.6383 41.9547 43.3472C42.6195 44.1921 42.449 45.5333 41.5906 46.179C41.0733 46.5986 40.3568 46.7116 39.7226 46.5277C36.5574 45.7498 33.9115 43.2782 32.8041 40.23C31.8461 37.6952 31.9554 34.781 33.0992 32.3248C34.4346 29.4222 37.1974 27.2131 40.3414 26.6Z" fill="white"/>
<path d="M23.9928 40.6898C25.3339 40.6937 26.6732 40.6917 28.0143 40.6917C28.0948 42.0521 28.0929 43.4239 28.0143 44.7842C26.6732 44.7842 25.3339 44.7823 23.9947 44.7861C23.9621 43.422 23.9545 42.054 23.9928 40.6898Z" fill="white"/>
<path d="M70.414 43.0253C70.7915 42.9046 71.1976 42.9314 71.577 43.031C73.9432 43.623 76.0507 45.1462 77.3919 47.179C79.1296 49.7368 79.6201 53.0993 78.6622 56.0422C77.3766 60.2726 73.0868 63.3745 68.6552 63.1465C67.1991 63.02 66.3695 61.1366 67.2527 59.9737C67.7451 59.1786 68.7261 59.0636 69.5748 59.0349C71.9928 58.8337 74.1367 57.0059 74.8092 54.6895C75.6618 51.9555 74.334 48.7214 71.759 47.4415C70.9332 46.9951 69.8124 46.9817 69.2721 46.108C68.5019 45.0313 69.1304 43.3414 70.414 43.0253Z" fill="white"/>
<path d="M30.1677 48.9227C32.2772 48.7004 34.4613 49.2292 36.2221 50.4171C38.527 51.9326 40.0731 54.5421 40.28 57.2953C40.51 59.832 39.6133 62.4396 37.8755 64.3C36.2432 66.0838 33.8789 67.1739 31.461 67.2486C28.9741 67.3521 26.4642 66.3788 24.6977 64.6238C22.9408 62.9301 21.9215 60.5045 21.9388 58.0655C21.9253 55.6725 22.8986 53.2872 24.6 51.6012C26.0695 50.0971 28.0774 49.1411 30.1677 48.9227ZM30.3727 53.0132C28.0104 53.3198 26.058 55.4829 26.0255 57.8701C25.9028 59.9738 27.2612 62.0296 29.2117 62.7998C30.7061 63.4129 32.4918 63.2597 33.8521 62.3802C35.3158 61.4778 36.247 59.7861 36.2355 58.0655C36.2451 56.391 35.3695 54.7414 33.9689 53.8217C32.9267 53.109 31.6181 52.8331 30.3727 53.0132Z" fill="white"/>
</svg>
