<?xml version="1.0" encoding="utf-8"?>
<!-- Generator: Adobe Illustrator 19.0.0, SVG Export Plug-In . SVG Version: 6.00 Build 0)  -->
<svg version="1.1" id="Capa_1" xmlns="http://www.w3.org/2000/svg" xmlns:xlink="http://www.w3.org/1999/xlink" x="0px" y="0px"
	 viewBox="-77 523 35 35" style="enable-background:new -77 523 35 35;" xml:space="preserve">
<style type="text/css">
	.st0{fill:#316D82;}
</style>
<g>
	<path id="WhatsApp" class="st0" d="M-42,540.1c0,9.4-7.7,17-17.1,17c-3,0-5.9-0.7-8.3-2.1l-9.6,3l3.1-9.1c-1.6-2.6-2.4-5.6-2.4-8.9
		c0-9.4,7.7-17,17.1-17S-42,530.7-42,540.1z M-59.1,525.7c-8,0-14.5,6.4-14.5,14.3c0,3.1,1,6,2.7,8.4l-1.9,5.3l5.7-1.7
		c2.3,1.4,5,2.4,8,2.4c8,0,14.4-6.4,14.4-14.3C-44.7,532.2-51.1,525.7-59.1,525.7z M-50.4,544c-0.1-0.1-0.4-0.3-0.9-0.4
		c-0.4-0.1-2.4-1.3-2.9-1.4c-0.5-0.1-0.7-0.1-1,0.1c-0.3,0.4-1.1,1.4-1.3,1.6c-0.3,0.3-0.4,0.3-0.9,0.1c-0.4-0.1-1.7-0.7-3.4-2.1
		c-1.2-1.2-2.1-2.5-2.2-2.9c-0.3-0.4,0-0.7,0.1-0.9c0.1-0.1,0.4-0.4,0.6-0.7c0.2-0.3,0.3-0.4,0.4-0.7c0.1-0.3,0-0.6,0-0.7
		c-0.1-0.1-1-2.3-1.3-3.1c-0.2-0.9-0.7-0.8-0.9-0.8c-0.3,0-0.6,0-0.9,0s-0.7,0.2-1.1,0.6c-0.4,0.4-1.4,1.4-1.4,3.4s1.6,4,1.7,4.3
		c0.1,0.3,2.9,4.6,7.1,6.3c4.3,1.7,4.3,1.1,5,1c0.7,0,2.4-1,2.9-2C-50.4,545-50.4,544.3-50.4,544z"/>
</g>
</svg>
