<svg id="Слой_1" xmlns="http://www.w3.org/2000/svg" viewBox="0 0 118.1 100"><style>.st0{fill:#0a89b3}</style><path class="st0" d="M1.5 18.4c.8 0 1.5-.7 1.5-1.5v-6.2c0-4.1 3.3-7.3 7.3-7.3h15.5c.8 0 1.5-.7 1.5-1.5S26.6.4 25.8.4H10.3C4.7.3 0 5 0 10.6v6.2c0 .9.7 1.6 1.5 1.6zM107.8.3H92.4c-.8 0-1.5.7-1.5 1.5s.7 1.5 1.5 1.5h15.4c4.1 0 7.3 3.3 7.3 7.3v12.1H1.5c-.8 0-1.5.7-1.5 1.5v65.5C0 95.4 4.6 100 10.3 100h97.5c5.7 0 10.3-4.6 10.3-10.3V10.6C118.1 5 113.5.3 107.8.3zm0 96.8H10.3c-4.1 0-7.3-3.3-7.3-7.3V25.7h112.2v64c0 4.1-3.3 7.4-7.4 7.4z"/><path class="st0" d="M38.6 19.4c3.8 0 6.8-3.1 6.8-6.8V6.8C45.4 3 42.3 0 38.6 0c-3.8 0-6.8 3.1-6.8 6.8v5.7c-.1 3.9 3 6.9 6.8 6.9zM34.7 6.8c0-2.2 1.7-3.9 3.9-3.9s3.9 1.7 3.9 3.9v5.7c0 2.2-1.7 3.9-3.9 3.9s-3.9-1.7-3.9-3.9V6.8zM59.1 19.4c3.8 0 6.8-3.1 6.8-6.8V6.8C65.9 3 62.8 0 59.1 0c-3.8 0-6.8 3.1-6.8 6.8v5.7c-.1 3.9 3 6.9 6.8 6.9zM55.2 6.8c0-2.2 1.7-3.9 3.9-3.9S63 4.6 63 6.8v5.7c0 2.2-1.7 3.9-3.9 3.9s-3.9-1.7-3.9-3.9V6.8zM79.7 19.4c3.8 0 6.8-3.1 6.8-6.8V6.8C86.5 3 83.4 0 79.7 0s-6.8 3.1-6.8 6.8v5.7c-.1 3.9 3 6.9 6.8 6.9zM75.8 6.8c0-2.2 1.7-3.9 3.9-3.9s3.9 1.7 3.9 3.9v5.7c0 2.2-1.7 3.9-3.9 3.9s-3.9-1.7-3.9-3.9V6.8zM104.9 29.1H13.3c-.8 0-1.5.7-1.5 1.5V78c0 5.7 4.6 10.3 10.3 10.3L88 88c.8 0 1.5-.7 1.5-1.5-.1-.2-.1-.4 0-.5V69.9h14V71l-9.1 14.8c-.5.6-.4 1.6.2 2.1.6.5 1.6.4 2.1-.2.1-.1.2-.2.2-.3l9.2-15.1c.1-.2.2-.5.2-.8v-41c0-.8-.6-1.4-1.4-1.4zM88 66.9c-.8 0-1.5.7-1.5 1.5v16.8l-64.4.2c-4.1 0-7.3-3.3-7.3-7.3V32h88.7v34.9H88z"/><path class="st0" d="M26.3 35.2h-8.1c-.8 0-1.5.7-1.5 1.5v8.1c0 .8.7 1.5 1.5 1.5h8.1c.8 0 1.5-.7 1.5-1.5v-8.1c0-.9-.6-1.5-1.5-1.5zm-1.4 8h-5.1v-5.1h5.1v5.1zM44.6 35.2h-8.1c-.8 0-1.5.7-1.5 1.5v8.1c0 .8.7 1.5 1.5 1.5h8.1c.8 0 1.5-.7 1.5-1.5v-8.1c0-.9-.7-1.5-1.5-1.5zm-1.5 8H38v-5.1h5.1v5.1zM62.9 35.2h-8.1c-.8 0-1.5.7-1.5 1.5v8.1c0 .8.7 1.5 1.5 1.5h8.1c.8 0 1.5-.7 1.5-1.5v-8.1c-.1-.9-.7-1.5-1.5-1.5zm-1.5 8h-5.1v-5.1h5.1v5.1zM99.4 35.2h-8c-.8 0-1.5.7-1.5 1.5v8.1c0 .8.7 1.5 1.5 1.5h8.1c.8 0 1.5-.7 1.5-1.5v-8.1c-.1-.9-.7-1.5-1.6-1.5 0-.1 0 0 0 0zm-1.5 8h-5.1v-5.1H98l-.1 5.1zM26.3 53.7h-8.1c-.8 0-1.5.7-1.5 1.5v8.1c0 .8.7 1.5 1.5 1.5h8.1c.8 0 1.5-.7 1.5-1.5v-8.1c0-.8-.6-1.5-1.5-1.5zm-1.4 8.1h-5.1v-5.1h5.1v5.1zM62.9 53.7h-8.1c-.8 0-1.5.7-1.5 1.5v8.1c0 .8.7 1.5 1.5 1.5h8.1c.8 0 1.5-.7 1.5-1.5v-8.1c-.1-.8-.7-1.5-1.5-1.5zm-1.5 8.1h-5.1v-5.1h5.1v5.1zM81.1 53.7h-8c-.8 0-1.5.7-1.5 1.5v8.1c0 .8.7 1.5 1.5 1.5h8c.8 0 1.5-.7 1.5-1.5v-8.1c0-.8-.7-1.5-1.5-1.5zm-1.4 8.1h-5.1v-5.1h5.1v5.1zM99.4 53.7h-8c-.8 0-1.5.7-1.5 1.5v8.1c0 .8.7 1.5 1.5 1.5h8.1c.8 0 1.5-.7 1.5-1.5v-8.1c-.1-.8-.7-1.5-1.6-1.5zm-1.5 8.1h-5.1v-5.1H98l-.1 5.1zM26.3 69.9h-8.1c-.8 0-1.5.7-1.5 1.5v8c0 .8.7 1.5 1.5 1.5h8.1c.8 0 1.5-.7 1.5-1.5v-8c0-.8-.6-1.5-1.5-1.5zM24.9 78h-5.1v-5.1h5.1V78zM44.6 69.9h-8.1c-.8 0-1.5.7-1.5 1.5v8c0 .8.7 1.5 1.5 1.5h8.1c.8 0 1.5-.7 1.5-1.5v-8c0-.8-.7-1.5-1.5-1.5zM43.1 78H38v-5.1h5.1V78zM62.9 69.9h-8.1c-.8 0-1.5.7-1.5 1.5v8c0 .8.7 1.5 1.5 1.5h8.1c.8 0 1.5-.7 1.5-1.5v-8c-.1-.8-.7-1.5-1.5-1.5zM61.4 78h-5.1v-5.1h5.1V78zM81.1 69.9h-8c-.8 0-1.5.7-1.5 1.5v8c0 .8.7 1.5 1.5 1.5h8c.8 0 1.5-.7 1.5-1.5v-8c0-.8-.7-1.5-1.5-1.5zM79.7 78h-5.1v-5.1h5.1V78zM45.7 54.4c-.6-.6-1.5-.6-2.1 0l-2.9 2.9-2.9-2.9c-.6-.5-1.5-.5-2.1.2-.5.6-.5 1.4 0 1.9l2.9 2.9-2.9 2.9c-.6.5-.7 1.5-.2 2.1.5.6 1.5.7 2.1.2.1 0 .1-.1.2-.2l2.9-2.9 2.9 2.9c.6.5 1.5.5 2.1-.2.5-.6.5-1.4 0-1.9l-2.9-2.9 2.9-2.9c.5-.6.5-1.5 0-2.1zM72.2 46.1c.6.6 1.5.6 2.1 0l2.9-2.9 2.9 2.9c.6.5 1.5.5 2.1-.2.5-.6.5-1.4 0-1.9l-2.9-2.8 2.9-2.9c.5-.6.5-1.5-.2-2.1-.6-.5-1.4-.5-1.9 0l-2.9 2.9-2.9-2.9c-.6-.5-1.5-.5-2.1.2-.5.6-.5 1.4 0 1.9l2.9 2.9-2.9 2.9c-.6.5-.6 1.5 0 2z"/></svg>