<svg id="Слой_1" xmlns="http://www.w3.org/2000/svg" viewBox="0 0 100 100"><style>.st0{fill:#0a89b3}</style><path class="st0" d="M5.3 0C2.4 0 0 2.4 0 5.3v4.1c0 2.9 2.4 5.3 5.3 5.3h1.2V18H5.3c-1.4 0-2.8.6-3.7 1.5-1 1-1.5 2.4-1.5 3.7V86.6c0 4.6 2.3 8.5 5.7 11H1.2c-.7 0-1.2.6-1.2 1.2 0 .7.6 1.2 1.2 1.2h89.5c1.6 0 3.3-.4 4.6-1.2 2.2-1.2 3.7-3.3 4.4-5.7s.3-5-.9-7.1L87.4 66.3c-1.6-2.8-4.8-4.7-8.1-4.7-1.6 0-3.3.4-4.6 1.2-2.2 1.2-3.7 3.3-4.4 5.7s-.3 5 .9 7.1l11.4 19.7c.5.8 1.1 1.6 1.9 2.3H61.8c3.5-2.4 5.7-6.4 5.7-11V23.2c0-1.1-.3-2-.8-2.8h2c3.8 0 6.9-3.1 6.9-6.9s-3.1-6.9-6.9-6.9h-1.2V5.3c0-2.9-2.4-5.3-5.3-5.3H5.3zm0 2.4h56.9c1.5 0 2.8 1.3 2.8 2.8v4.1c0 1.5-1.3 2.8-2.8 2.8H5.3c-1.5 0-2.8-1.3-2.8-2.8v-4c-.1-1.6 1.2-2.9 2.8-2.9zm4 1.7c-.7 0-1.2.6-1.2 1.2v4.1c0 .7.6 1.2 1.2 1.2.7 0 1.2-.6 1.2-1.2V5.3c.1-.7-.5-1.2-1.2-1.2zm8.2 0c-.7 0-1.2.6-1.2 1.2v4.1c0 .7.6 1.2 1.2 1.2s1.2-.6 1.2-1.2V5.3c0-.7-.6-1.2-1.2-1.2zm8.1 0c-.7 0-1.2.6-1.2 1.2v4.1c0 .7.6 1.2 1.2 1.2s1.2-.6 1.2-1.2V5.3c0-.7-.5-1.2-1.2-1.2zm8.1 0c-.7 0-1.2.6-1.2 1.2v4.1c0 .7.6 1.2 1.2 1.2S35 10 35 9.3v-4c0-.7-.6-1.2-1.3-1.2zm33.8 4.8h1.2c2.4 0 4.5 2 4.5 4.5s-2 4.5-4.5 4.5H61v-3.3h1.2c2.9 0 5.3-2.4 5.3-5.3v-.4zM8.9 14.6h49.6v4.7c0 .1 0 .1.1.2v.1c0 .1.1.1.1.2v.1c0 .1.1.1.1.2h.1c.1 0 .1.1.2.1 0 0 .1 0 .1.1.1 0 .1.1.2.1h.1c.1 0 .1 0 .2.1h2.6c.7 0 1.5.3 2 .8.6.6.8 1.2.8 2v63.4c0 6-5 11-11 11H13.4c-6 0-11-5-11-11v-6.9h23.2c5.1 0 9.3-4.2 9.3-9.3V45.9c0-5.1-4.2-9.3-9.3-9.3H2.4V23.2c0-.7.3-1.5.8-2 .6-.6 1.2-.8 2-.8h46.3c.7 0 1.2-.6 1.2-1.2s-.6-1.2-1.2-1.2H8.9v-3.4zM2.4 39h23.2c3.8 0 6.9 3.1 6.9 6.9v24.4c0 3.8-3.1 6.9-6.9 6.9H2.4V63.4h6.9c.7 0 1.2-.6 1.2-1.2S10 61 9.3 61H2.4v-5.7h15c.7 0 1.2-.6 1.2-1.2s-.6-1.2-1.2-1.2h-15V39zm76.9 25c2.4 0 4.8 1.3 6 3.5l5.1 8.8-12 6.9-5.2-8.8c-.9-1.6-1.1-3.5-.6-5.3.5-1.8 1.6-3.3 3.3-4.2 1-.6 2.2-.9 3.4-.9zm3.5 3.8c-.2 0-.5 0-.7.2-.6.3-.8 1.1-.4 1.6l3.8 6.5c.2.4.7.7 1.1.7.2 0 .4-.1.6-.2.6-.3.8-1.1.4-1.6l-3.8-6.6c-.3-.4-.6-.6-1-.6zm8.7 10.6l5.1 8.8c.9 1.6 1.1 3.5.6 5.2-.5 1.8-1.6 3.3-3.3 4.2-1.1.6-2.3.9-3.4.9-2.4 0-4.8-1.3-6-3.5l-5-8.7 12-6.9zm-1.1 2.5c-.2 0-.5 0-.7.2-.6.3-.8 1.1-.4 1.6l3.7 6.4c.2.4.7.7 1.1.7.2 0 .4-.1.6-.2.6-.3.8-1.1.4-1.6l-3.7-6.5c-.2-.3-.6-.5-1-.6z"/></svg>