<svg id="Слой_1" xmlns="http://www.w3.org/2000/svg" viewBox="0 0 60 50"><style>.st0{fill:#535353}</style><path class="st0" d="M50.6 8.6H40.3V4.7c0-2.6-2.1-4.7-4.7-4.7H24.4c-2.6 0-4.7 2.1-4.7 4.7v3.9H9.4c-4.4 0-7.9 3.6-7.9 7.9V42c0 4.4 3.5 8 7.9 8h41.2c4.4 0 7.9-3.6 7.9-7.9V16.6c0-4.4-3.5-8-7.9-8zM24.4 3h11.2c.9 0 1.7.8 1.7 1.7v3.9H22.7V4.7c0-.9.7-1.7 1.7-1.7zm26.2 44H9.4c-2.7 0-4.9-2.2-4.9-4.9V16.6c0-2.7 2.2-4.9 4.9-4.9h41.2c2.7 0 4.9 2.2 4.9 4.9v25.5c0 2.7-2.2 4.9-4.9 4.9z"/><path class="st0" d="M37 27.4h-5.1v-5.1c0-1-.8-1.9-1.9-1.9s-1.9.8-1.9 1.9v5.1H23c-1 0-1.9.8-1.9 1.9 0 1 .8 1.9 1.9 1.9h5.1v5.1c0 1 .8 1.9 1.9 1.9s1.9-.8 1.9-1.9v-5.1H37c1 0 1.9-.8 1.9-1.9 0-1-.8-1.9-1.9-1.9z"/></svg>