<svg id="Слой_1" xmlns="http://www.w3.org/2000/svg" viewBox="0 0 70 70"><style>.st0{fill:#cc6767}</style><path class="st0" d="M70 22C70 9.9 54.3 0 35 0S0 9.9 0 22c0 10 10 18.4 25 21.1-1.6 1.5-2.5 3.5-2.7 5.7-.1 2.3.7 4.5 2.3 6.1 1.6 1.7 3.9 2.7 6.3 2.7h.1v10.8c0 .9.7 1.6 1.6 1.6.9 0 1.6-.7 1.6-1.6V38.7c0-.6-.4-1.2-.9-1.4l-15.8-7.4c-3.3-1.6-5-5.3-4-8.8.9-3.2 4-5.5 7.4-5.5h28.5c3.5 0 6.5 2.3 7.4 5.5 1 3.5-.7 7.2-4 8.8L37 37.3c-.6.3-.9.8-.9 1.4v29.7c0 .9.7 1.6 1.6 1.6.9 0 1.6-.7 1.6-1.6V57.6h.1c2.4 0 4.7-1 6.3-2.7 1.6-1.7 2.4-3.9 2.3-6.1-.1-2.2-1.1-4.2-2.7-5.7C60 40.4 70 32 70 22zM43.1 45.6c1 1 1.5 2.4 1.4 3.9-.1 2.8-2.5 5-5.4 5H39V44h.3c1.5 0 2.8.6 3.8 1.6zm15.7-11.1c-5.1 3.4-12.1 5.6-19.7 6.2v-1l14.9-7c3.7-1.8 6.1-5.5 6.1-9.7 0-5.9-4.8-10.7-10.7-10.7H20.6c-5.9 0-10.7 4.8-10.7 10.7 0 4.1 2.4 7.9 6.1 9.7l14.9 7v1c-7.6-.6-14.6-2.8-19.7-6.2-5.2-3.5-8-7.9-8-12.5C3.2 11.6 17.4 3.2 35 3.2S66.8 11.6 66.8 22c0 4.6-2.8 9-8 12.5zM30.9 44v10.5h-.1c-2.9 0-5.3-2.2-5.4-5-.1-1.4.4-2.8 1.4-3.9 1-1 2.3-1.6 3.8-1.6h.3z"/></svg>