<svg width="112" height="155" viewBox="0 0 112 155" fill="none" xmlns="http://www.w3.org/2000/svg">
<path opacity="0.3" d="M79.9788 132.168C126.154 81.1198 61.0199 62.505 37.5673 -0.562337C22.4834 -41.1251 12.3777 -109.088 -28.1436 -127.323C-77.0003 -149.308 -90.0717 -131.323 -140.925 -119.298C-245.661 -94.5313 -274.296 -253.261 -349.609 -178.144C-389.248 -138.607 -341.616 -109.197 -378.639 -67.3657C-426.382 -13.4236 -555.697 -95.4798 -560.853 -25.1099C-564.144 19.8189 -497.9 42.4453 -485.222 85.5685C-465.837 151.506 -579.416 193.735 -522.538 234.359C-492.819 255.585 -465.449 246.662 -430.708 259.064C-363.503 283.054 -381.222 378.196 -309.304 380.137C-249.916 381.741 -240.512 303.336 -182.961 288.187C-134.061 275.315 -90.5023 329.938 -50.6023 299.478C-8.30013 267.184 -69.1102 206.237 -31.597 168.81C-1.57717 138.86 51.5837 163.559 79.9788 132.168Z" stroke="white"/>
<path opacity="0.3" d="M95.7618 116.691C140.937 61.3366 72.2155 45.3718 44.3627 -18.8714C26.4488 -60.1905 15.1811 -143.461 -29.2742 -156.369C-81.0414 -171.399 -95.5049 -148.002 -147.694 -132.904C-255.18 -101.81 -293.696 -265.064 -367.825 -183.23C-406.842 -140.158 -355.715 -112.089 -391.887 -66.7711C-438.531 -8.33259 -577.454 -86.8319 -578.931 -13.5374C-579.874 33.2588 -509.779 53.3298 -494.224 97.4299C-470.44 164.861 -586.154 214.534 -524.8 253.764C-492.742 274.262 -464.789 263.593 -427.998 274.675C-356.829 296.112 -369.996 395.761 -295.144 394.073C-233.335 392.68 -227.885 310.828 -168.907 292.143C-118.795 276.267 -70.512 330.712 -30.7238 297.047C11.4598 261.355 -55.1018 201.235 -18.1784 160.463C11.3694 127.835 67.9819 150.73 95.7618 116.691Z" stroke="white"/>
</svg>