<svg width="37" height="43" viewBox="0 0 37 43" fill="none" xmlns="http://www.w3.org/2000/svg">
<path d="M3.7 30.2051H7.4V32.666H9.86667V15.4395H7.4V17.9004H4.93333V16.6699C4.93333 9.20664 11.0193 3.05273 18.5 3.05273C25.9807 3.05273 32.0667 9.20664 32.0667 16.6699V17.9004H29.6V15.4395H27.1333V32.666H29.6V30.2051H32.0667V33.8965C32.0667 35.932 30.4069 37.6699 28.3667 37.6699H21.9728C21.462 36.2408 20.1058 35.209 18.5 35.209C16.4597 35.209 14.8 36.8649 14.8 38.9004C14.8 40.9359 16.4597 42.5918 18.5 42.5918C20.1058 42.5918 21.462 41.56 21.9728 40.1309H28.3667C31.7668 40.1309 34.5333 37.2887 34.5333 33.8965V29.9784C35.9658 29.4688 37 28.1157 37 26.5137V21.5918C37 19.9897 35.9658 18.6367 34.5333 18.127V16.6699C34.5333 7.84992 27.3405 0.591797 18.5 0.591797C9.65947 0.591797 2.46667 7.84992 2.46667 16.6699V18.127C1.03419 18.6367 0 19.9897 0 21.5918V26.5137C0 28.5492 1.65974 30.2051 3.7 30.2051Z" fill="#444444"/>
</svg>
