<svg width="845" height="997" viewBox="0 0 845 997" fill="none" xmlns="http://www.w3.org/2000/svg">
<path opacity="0.5" d="M0.993164 9.42212C0.993164 9.42212 52.7702 103.687 103.768 147.461C170.03 204.338 254.501 169.561 307.954 238.615C366.216 313.884 273.197 409.632 336.557 480.663C393.146 544.103 481.149 488.96 544.218 545.963C604.041 600.034 573.701 676.123 630.127 733.729C691.631 796.521 799.679 744.835 835.894 824.922C867.763 895.4 796.229 1018.97 796.229 1018.97" stroke="#999999"/>
<path opacity="0.5" d="M24.2812 0.769775C24.2812 0.769775 72.4211 96.9427 121.71 142.632C185.752 201.998 271.49 170.472 322.267 241.517C377.612 318.955 281.005 411.082 341.606 484.48C395.731 550.035 485.776 498.293 546.622 557.662C604.337 613.978 571.113 688.853 625.299 748.572C684.361 813.666 794.303 766.144 827.434 847.556C856.589 919.198 780.388 1039.95 780.388 1039.95" stroke="#999999"/>
</svg>