<svg width="37" height="45" viewBox="0 0 37 45" fill="none" xmlns="http://www.w3.org/2000/svg">
<path d="M18.4235 36.309C18.4181 37.0462 18.3384 37.7808 18.1856 38.5012L24.7259 31.799L18.4235 25.3483V36.309Z" fill="#F9CA5D"/>
<path d="M22.6226 9.50831L18.4235 13.8062V23.1247L25.8083 30.6912L34.5595 21.734C36.1223 20.1301 37 17.9572 37 15.6919C37 13.4266 36.1223 11.2537 34.5595 9.64974L34.429 9.50831C32.8619 7.90866 30.739 7.01035 28.5258 7.01035C26.3126 7.01035 24.1897 7.90866 22.6226 9.50831ZM25.0944 13.649L21.7474 17.0747C21.6029 17.2217 21.4072 17.3038 21.2035 17.303C20.9998 17.3023 20.8048 17.2188 20.6612 17.0708C20.5177 16.9229 20.4375 16.7226 20.4382 16.5141C20.4389 16.3056 20.5205 16.1059 20.6651 15.959L24.0043 12.5333C24.1489 12.3854 24.3449 12.3022 24.5494 12.3022C24.7538 12.3022 24.9498 12.3854 25.0944 12.5333C25.2389 12.6813 25.3201 12.8819 25.3201 13.0912C25.3201 13.3004 25.2389 13.5011 25.0944 13.649Z" fill="#F9CA5D"/>
<path d="M0 23.6983V36.2697C0 38.562 0.889646 40.7603 2.47322 42.3812C4.0568 44.002 6.2046 44.9126 8.44412 44.9126H8.52088C9.62978 44.9126 10.7278 44.689 11.7523 44.2547C12.7768 43.8204 13.7077 43.1837 14.4918 42.3812C15.2759 41.5786 15.8979 40.6258 16.3222 39.5772C16.7466 38.5286 16.965 37.4047 16.965 36.2697V23.6983H0ZM4.36024 25.694V31.194C4.36024 31.4024 4.27936 31.6023 4.1354 31.7496C3.99144 31.897 3.79618 31.9797 3.59259 31.9797C3.389 31.9797 3.19374 31.897 3.04978 31.7496C2.90582 31.6023 2.82494 31.4024 2.82494 31.194V25.694C2.82494 25.4856 2.90582 25.2858 3.04978 25.1384C3.19374 24.9911 3.389 24.9083 3.59259 24.9083C3.79618 24.9083 3.99144 24.9911 4.1354 25.1384C4.27936 25.2858 4.36024 25.4856 4.36024 25.694Z" fill="#F9CA5D"/>
<path d="M8.52088 0.912601H8.32897C6.1185 0.920911 4.00122 1.82498 2.44033 3.42702C0.879444 5.02907 0.00201492 7.19866 0 9.46117V22.1269H16.8882V9.46117C16.8872 8.33753 16.67 7.22509 16.249 6.18737C15.8279 5.14965 15.2113 4.20697 14.4343 3.41316C13.6573 2.61936 12.7352 1.98996 11.7206 1.56091C10.7059 1.13187 9.61869 0.911569 8.52088 0.912601ZM4.26044 14.9219V17.0433C4.26044 17.2517 4.17956 17.4515 4.0356 17.5989C3.89164 17.7462 3.69639 17.829 3.49279 17.829C3.2892 17.829 3.09395 17.7462 2.94999 17.5989C2.80602 17.4515 2.72515 17.2517 2.72515 17.0433V14.9219C2.72515 14.7135 2.80602 14.5137 2.94999 14.3663C3.09395 14.219 3.2892 14.1362 3.49279 14.1362C3.69639 14.1362 3.89164 14.219 4.0356 14.3663C4.17956 14.5137 4.26044 14.7135 4.26044 14.9219ZM6.87044 5.28903C6.91498 5.38186 6.94118 5.48277 6.94754 5.58599C6.95389 5.6892 6.94027 5.79269 6.90747 5.8905C6.87466 5.98832 6.82331 6.07854 6.75636 6.156C6.68941 6.23346 6.60818 6.29663 6.51732 6.34189C5.83902 6.68308 5.26789 7.21229 4.86891 7.8693C4.46992 8.5263 4.25911 9.28474 4.26044 10.0583V11.8576C4.26002 11.9616 4.23945 12.0644 4.19992 12.1602C4.16039 12.2559 4.10268 12.3427 4.03015 12.4155C3.92238 12.5236 3.78587 12.5968 3.63768 12.6259C3.48949 12.6551 3.33619 12.6389 3.19695 12.5794C3.0577 12.5198 2.93868 12.4196 2.85477 12.2913C2.77086 12.1629 2.72577 12.0121 2.72515 11.8576V10.0583C2.72016 8.99058 3.01009 7.94313 3.56152 7.03675C4.11295 6.13036 4.90342 5.40194 5.84179 4.93546C6.02403 4.84283 6.23473 4.82804 6.42761 4.89434C6.62049 4.96063 6.77977 5.1026 6.87044 5.28903Z" fill="#F9CA5D"/>
</svg>
