<svg width="40" height="41" viewBox="0 0 40 41" fill="none" xmlns="http://www.w3.org/2000/svg">
<path d="M36.0804 18.9025H40C39.5254 14.2932 37.4776 9.98806 34.2011 6.71154C30.9245 3.43503 26.6194 1.38717 22.01 0.912598V4.8322C22.01 5.36529 21.7983 5.87656 21.4213 6.25352C21.0444 6.63047 20.5331 6.84225 20 6.84225C19.4669 6.84225 18.9556 6.63047 18.5787 6.25352C18.2017 5.87656 17.9899 5.36529 17.9899 4.8322V0.912598C13.3806 1.38717 9.07546 3.43503 5.79894 6.71154C2.52243 9.98806 0.474575 14.2932 0 18.9025H3.9196C4.4527 18.9025 4.96396 19.1143 5.34092 19.4913C5.71788 19.8682 5.92965 20.3795 5.92965 20.9126C5.92965 21.4457 5.71788 21.957 5.34092 22.3339C4.96396 22.7109 4.4527 22.9226 3.9196 22.9226H0C0.474575 27.532 2.52243 31.8371 5.79894 35.1137C9.07546 38.3902 13.3806 40.438 17.9899 40.9126V36.993C17.9899 36.4599 18.2017 35.9486 18.5787 35.5717C18.9556 35.1947 19.4669 34.9829 20 34.9829C20.5331 34.9829 21.0444 35.1947 21.4213 35.5717C21.7983 35.9486 22.01 36.4599 22.01 36.993V40.9126C26.6194 40.438 30.9245 38.3902 34.2011 35.1137C37.4776 31.8371 39.5254 27.532 40 22.9226H36.0804C35.5473 22.9226 35.036 22.7109 34.6591 22.3339C34.2821 21.957 34.0704 21.4457 34.0704 20.9126C34.0704 20.3795 34.2821 19.8682 34.6591 19.4913C35.036 19.1143 35.5473 18.9025 36.0804 18.9025ZM24.609 28.3638L18.5789 22.3337C18.3922 22.1471 18.244 21.9256 18.143 21.6818C18.0419 21.4379 17.9899 21.1765 17.9899 20.9126V12.8724C17.9899 12.3393 18.2017 11.828 18.5787 11.4511C18.9556 11.0741 19.4669 10.8623 20 10.8623C20.5331 10.8623 21.0444 11.0741 21.4213 11.4511C21.7983 11.828 22.01 12.3393 22.01 12.8724V20.0802L27.4513 25.5214C27.8188 25.9003 28.0225 26.4085 28.0185 26.9362C28.0145 27.464 27.8031 27.9691 27.4299 28.3423C27.0567 28.7155 26.5517 28.927 26.0239 28.931C25.4961 28.9351 24.9879 28.7313 24.609 28.3638Z" fill="#F9CA5D"/>
</svg>
