<svg xmlns="http://www.w3.org/2000/svg" viewBox="0 0 60 60" fill="#148e94"><circle cx="44" cy="40" r="1"/><circle cx="46" cy="57" r="1"/><circle cx="21" cy="49" r="1"/><circle cx="37" cy="43" r="1"/><circle cx="52" cy="48" r="1"/><circle cx="15" cy="57" r="1"/><path d="M17.1 12.9C13.2 9 6.8 9 2.9 12.9 1 14.8 0 17.3 0 20s1 5.2 2.9 7.1l15.6 15.6 14.1-14.1-15.5-15.7zM4.3 25.6C2.8 24.1 2 22.1 2 20s.8-4.1 2.3-5.7C5.9 12.8 8 12 10 12s4.1.8 5.7 2.3l14.1 14.1-11.3 11.4L4.3 25.6zM57.1 3.9C55.2 2 52.7 1 50 1s-5.2 1-7.1 2.9L27.4 19.5l14.1 14.1L57.1 18c1.9-1.8 2.9-4.3 2.9-7s-1-5.2-2.9-7.1zm-1.4 12.8L41.5 30.8 30.2 19.5 44.3 5.3C45.9 3.8 47.9 3 50 3s4.1.8 5.7 2.3S58 8.9 58 11s-.8 4.1-2.3 5.7zM40 36c0-2.2-1.8-4-4-4s-4 1.8-4 4 1.8 4 4 4 4-1.8 4-4zm-6 0c0-1.1.9-2 2-2s2 .9 2 2-.9 2-2 2-2-.9-2-2zm-5 4c-2.2 0-4 1.8-4 4s1.8 4 4 4 4-1.8 4-4-1.8-4-4-4zm0 6c-1.1 0-2-.9-2-2s.9-2 2-2 2 .9 2 2-.9 2-2 2zm10 0c-2.2 0-4 1.8-4 4s1.8 4 4 4 4-1.8 4-4-1.8-4-4-4zm0 6c-1.1 0-2-.9-2-2s.9-2 2-2 2 .9 2 2-.9 2-2 2zm-10-1c-2.2 0-4 1.8-4 4s1.8 4 4 4 4-1.8 4-4-1.8-4-4-4zm0 6c-1.1 0-2-.9-2-2s.9-2 2-2 2 .9 2 2-.9 2-2 2z"/></svg>