<svg version="1.1" id="Слой_1" xmlns="http://www.w3.org/2000/svg" xmlns:xlink="http://www.w3.org/1999/xlink" x="0px" y="0px"
	 viewBox="0 0 2000 2200" style="enable-background:new 0 0 2000 2200;" xml:space="preserve">
<style type="text/css">
	.st0{fill:#01848A;}
	.st1{fill:#02858B;}
</style>
<g>
	<g>
		<path class="st0" d="M2002,896c-1.2,1.5-3,2.8-3.4,4.5c-2.4,12.1-9.8,21-18.3,29.1c-50.3,48.6-100.8,97.1-151.2,145.6
			c-73.9,71.1-147.9,142.2-221.8,213.3c-66,63.5-132,127-198,190.5c-88.8,85.5-177.6,170.9-266.4,256.4
			c-87.1,83.8-174.3,167.6-261.4,251.5c-66.7,64.2-133.4,128.4-200.1,192.6c-11,10.6-23.7,18.3-39,21.1c-0.9,0.2-1.6,0.9-2.4,1.4
			c-10.7,0-21.3,0-32,0c-17.1-5-31-14.8-43.8-27.1c-68.7-66.4-137.7-132.6-206.5-198.8c-52.5-50.5-105.1-101.1-157.6-151.7
			c-35.7-34.4-71.5-68.7-107.2-103.1c-21.8-21-43.7-42.1-65.5-63.1c-9.5-9.1-16.6-19.6-20.8-32.1c-1-2.9-3-5.4-4.6-8.1
			c0-9.3,0-18.7,0-28c2.6-5,5.4-9.9,7.6-15.1c13.3-31.6,47.7-47.8,78.1-44.3c18.3,2.1,34.8,9.2,48.5,22.4
			c56.8,54.9,113.8,109.6,170.7,164.3c103.5,99.6,207,199.1,310.5,298.7c2.3,2.3,4.8,4.3,7.9,7c2.9-2.6,5.4-4.7,7.8-7
			c149.1-143.4,298.3-286.9,447.4-430.4c31.9-30.7,63.9-61.5,95.8-92.2c87.6-84.3,175.2-168.6,262.8-252.9
			c88.3-85,176.7-169.9,265-254.9c54.7-52.6,109.5-105.2,164-158c17.1-16.6,36.9-26.1,60.8-25.3c32.6,1.2,65.3,22.6,71.7,56.4
			c0.1,0.5,0.9,0.8,1.4,1.2C2002,872,2002,884,2002,896z"/>
		<path class="st1" d="M1472,2c1.1,0.6,2.1,1.4,3.2,1.8c22.8,8.1,33.5,31.8,25.6,54.7c-2.8,8.2-7.1,14.7-12.7,20.9
			c-59.4,65.3-118.8,130.7-178.3,195.9c-29,31.9-58.4,63.4-87.4,95.3c-111,122.2-221.9,244.6-332.9,366.8
			c-16.5,18.2-33.5,35.9-49.9,54.3c-10.5,11.9-35.3,16-50,1c-5.3-5.4-10.7-10.9-15.9-16.5c-19.5-21.3-38.9-42.7-58.2-64.1
			c-17.8-19.7-35.5-39.5-53.3-59.1C614,599.9,565.7,546.5,517,493.6c-12.2-13.3-16.9-28.7-12.4-44.8c8.7-31,39.6-39.2,60.8-21.8
			c3.3,2.7,6.1,6.1,9.1,9.3C646.3,515.2,718,594.1,789.7,673c7.8,8.6,15.5,17.2,23.8,26.4c2.2-2,5.1-4,7.4-6.6
			c64.9-71.2,129.7-142.4,194.5-213.7c24.1-26.5,48.2-52.9,72.2-79.5c24.5-27.1,48.7-54.4,73.2-81.4
			c45.5-49.9,91.3-99.7,136.8-149.6c42.4-46.5,84.8-93.1,127.1-139.8C1434.1,18.6,1443,8,1456,2C1461.3,2,1466.7,2,1472,2z"/>
	</g>
</g>
</svg>
