<svg xmlns="http://www.w3.org/2000/svg" width="35.41" height="29.28"><path d="M30.3 0H5.11A5.113 5.113 0 0 0 0 5.11v19.06a5.113 5.113 0 0 0 5.11 5.11H30.3a5.113 5.113 0 0 0 5.11-5.11V5.11A5.113 5.113 0 0 0 30.3 0zm3.07 17.7h-7.5a3.065 3.065 0 0 1 0-6.13h7.5v6.13zm0-8.17h-7.5a5.105 5.105 0 0 0 0 10.21h7.5v4.43a3.069 3.069 0 0 1-3.07 3.06H5.11a3.069 3.069 0 0 1-3.07-3.06V5.11a3.077 3.077 0 0 1 3.07-3.07H30.3a3.077 3.077 0 0 1 3.07 3.07v4.42zm-6.13 4.09h-1.37a1.02 1.02 0 1 0 0 2.04h1.37a1.02 1.02 0 0 0 0-2.04z" fill="#148e94" fill-rule="evenodd"/></svg>