<svg width="52" height="52" fill="none" xmlns="http://www.w3.org/2000/svg"><rect x="1" y="1" width="50" height="50" rx="25" fill="#C4C4C4"/><path fill-rule="evenodd" clip-rule="evenodd" d="M26 4.063C13.884 4.063 4.062 13.883 4.062 26c0 12.116 9.822 21.938 21.938 21.938S47.938 38.115 47.938 26 38.115 4.062 26 4.062zM.812 26C.813 12.09 12.09.812 26 .812 39.91.813 51.188 12.09 51.188 26c0 13.91-11.277 25.188-25.188 25.188C12.09 51.188.812 39.91.812 26z" fill="#AEAEAE"/><path d="M43.147 40.925a5.45 5.45 0 00-2.672-3.514l-.028-.014c-2.492-1.283-4.991-2.532-7.492-3.808a2.088 2.088 0 01-.687-.536l-.003-.003c-.599-.773-1.135-1.598-1.749-2.355a.554.554 0 01-.06-.742l-.001.002a8.95 8.95 0 00.673-1.488l.02-.065c.277-.858.127-1.77.717-2.634.397-.83.667-1.793.758-2.81l.002-.032c.128-.554.118-1.1-.6-1.334.286-1.337.587-2.622.83-3.92.075-.267.118-.575.118-.893 0-.628-.17-1.217-.466-1.722l.01.016c-.29-.442-.513-.925-.824-1.351a7.456 7.456 0 00-1.243-1.45l-.006-.005a12.16 12.16 0 00-1.76-1.014l-.076-.033c-.207-.114-.429-.306-.634-.297a7.417 7.417 0 01-2.023-.534l.048.018v.11a7.177 7.177 0 01-1.938.515l-.036.003c-.207-.011-.427.185-.634.298a12.38 12.38 0 00-1.877 1.073l.04-.027a7.45 7.45 0 00-1.232 1.428l-.017.027c-.31.422-.534.91-.823 1.352a3.367 3.367 0 00-.458 1.705c0 .318.044.626.125.918l-.005-.024c.24 1.294.543 2.588.83 3.92-.72.234-.729.774-.601 1.334a8.421 8.421 0 00.782 2.893l-.022-.051c.592.865.44 1.776.717 2.634.207.6.441 1.113.718 1.598l-.024-.046a.554.554 0 01-.06.74h-.001c-.614.758-1.15 1.584-1.75 2.355a2.073 2.073 0 01-.677.534l-.012.006c-2.494 1.277-5 2.525-7.492 3.808A5.447 5.447 0 008.86 41l-.008.037c-.194.635-.386 1.45-.534 2.28l-.02.138H26v-.112h17.7a22.542 22.542 0 00-.596-2.58l.04.162h.001z" fill="#AEAEAE"/><path fill-rule="evenodd" clip-rule="evenodd" d="M25.94 10.412l.02-.047.064.025v.002c.603.249 1.246.42 1.95.506a.637.637 0 01.328.106c.052.029.103.062.153.094l.009.005c.053.034.104.067.155.095l.075.032a12.14 12.14 0 011.764 1.016l.01.008c.467.42.88.9 1.246 1.453.156.215.29.443.421.672l.059.103c.108.19.215.38.334.563h.001a3.423 3.423 0 01.35 2.633c-.17.912-.37 1.817-.572 2.738-.085.383-.17.769-.253 1.16.352.12.535.316.612.555.079.242.048.522-.016.8l-.002.03a8.291 8.291 0 01-.76 2.818v.002l-.002.001c-.292.428-.401.868-.472 1.31-.018.116-.034.232-.05.348-.044.326-.09.652-.192.97l-.02.065v.001a8.977 8.977 0 01-.675 1.492l-.01-.006.009.007a.526.526 0 00.057.707l.002.002c.308.38.596.776.881 1.174l.098.135c.253.353.505.705.77 1.047l.003.002c.182.219.41.398.679.53 1.006.514 2.01 1.022 3.016 1.53 1.494.757.157 1.512 1.647 2.28h-8.354m13.856 3.387c-.4-1.47-4.224.21-5.502-.493l2.858-2.88-11.212-.015M43.08 40.77c-.397-1.453-2.46-2.191-3.724-2.886.745 1.388.91 1.55.913.467l-.253.168-1.778-.407c-1.49-.767-.785-2.213-2.279-2.969a951.517 951.517 0 01-3.016-1.53 2.116 2.116 0 01-.695-.542l-.003-.004c-.266-.343-.52-.696-.772-1.049l-.098-.135a25.522 25.522 0 00-.878-1.17.58.58 0 01-.064-.77 8.85 8.85 0 00.67-1.482l.02-.065c.102-.314.146-.634.19-.958.016-.117.032-.235.051-.353.071-.444.182-.892.48-1.329a8.243 8.243 0 00.753-2.798l.003-.034v-.002c.064-.276.092-.546.018-.774-.073-.226-.248-.416-.602-.53l-.021-.008.004-.022c.086-.399.173-.793.259-1.183.202-.921.401-1.825.571-2.736v-.002a3.371 3.371 0 00-.335-2.579 10.923 10.923 0 01-.345-.58l-.058-.102a7.094 7.094 0 00-.418-.668l-.001-.001a7.428 7.428 0 00-1.239-1.444l-.005-.005a12.135 12.135 0 00-1.755-1.01v-.001l-.076-.032h-.002a2.976 2.976 0 01-.159-.098l-.008-.005a3.57 3.57 0 00-.15-.093.586.586 0 00-.303-.1h-.004a7.455 7.455 0 01-1.947-.5v.087l-.015.006a7.198 7.198 0 01-1.945.516h-.001l-.038.004h-.002a.568.568 0 00-.303.099 3.584 3.584 0 00-.158.099 2.586 2.586 0 01-.16.096v.001c-.689.32-1.277.66-1.83 1.042-.471.424-.883.9-1.229 1.423l-.017.028a6.67 6.67 0 00-.419.666l-.06.108c-.11.194-.221.39-.343.576a3.385 3.385 0 00-.336 2.58l.006.024h-.001c.171.92.374 1.838.58 2.771.081.373.164.747.245 1.125l.005.023-.022.007c-.353.115-.528.304-.601.529-.074.227-.046.497.018.776v.003a8.4 8.4 0 00.754 2.83h.002c.299.437.41.885.48 1.33.02.118.035.236.051.353.045.324.088.644.19.957.198.58.424 1.076.687 1.546h.002a.579.579 0 01-.063.772c-.306.378-.593.773-.878 1.17l-.09.126c-.256.356-.511.712-.78 1.057a2.1 2.1 0 01-.686.542l-.012.005c-1.149.589-2.3 1.17-3.451 1.753a567.311 567.311 0 00-4.04 2.055 5.422 5.422 0 00-2.68 3.473l-.007.038a20.328 20.328 0 00-.534 2.278l-.016.108h17.648v-.112H43.67a22.625 22.625 0 00-.538-2.368h-.006l-.046-.18zM21.551 30.123l4.678.168c-.278-.487-5.196-1.166-5.403-1.768-.103-.318-.147-.644-.192-.97a15.13 15.13 0 00-.05-.348c-.068-.427-.172-.852-.443-1.266l-.01.004a8.443 8.443 0 01-.783-2.9c-.064-.28-.095-.56-.017-.8s.261-.435.613-.555c-.08-.37-.16-.737-.241-1.102-.207-.937-.41-1.86-.582-2.784a3.437 3.437 0 01.34-2.629v-.001c.121-.186.23-.38.34-.574l.062-.108c.13-.23.265-.458.42-.67l.018-.027a7.43 7.43 0 011.203-1.401l-.005-.006a12.423 12.423 0 011.88-1.076c.05-.027.102-.06.155-.094l.016-.01c.047-.03.096-.062.145-.09a.623.623 0 01.329-.106l.033-.003a7.157 7.157 0 001.917-.506v-.075c.915 3.281.864 4.351-.034-.014m-4.389 19.711a.527.527 0 01-.086.666l-.002.001v.002c-.308.379-.596.776-.881 1.173l-.09.126c-.256.356-.51.711-.778 1.056-.185.22-.412.4-.669.527l-.011.005h-.002c-1.148.589-2.3 1.17-3.451 1.753a612.903 612.903 0 00-4.041 2.056 5.473 5.473 0 00-2.705 3.507l-.007.036a20.386 20.386 0 00-.535 2.282l-.025.168h17.758v-.113H43.73l-.005-.03c-.168-.966-.36-1.78-.594-2.575" fill="#AEAEAE"/><path fill-rule="evenodd" clip-rule="evenodd" d="M26 5.688C14.782 5.688 5.687 14.781 5.687 26c0 11.218 9.095 20.313 20.313 20.313 11.218 0 20.313-9.095 20.313-20.313 0-11.218-9.095-20.313-20.313-20.313zM2.437 26C2.438 12.987 12.988 2.437 26 2.437c13.013 0 23.563 10.55 23.563 23.563 0 13.013-10.55 23.563-23.563 23.563-13.013 0-23.563-10.55-23.563-23.563z" fill="#AEAEAE"/><path d="M24.121 46.516c-3.351-.051 1.828.609 2.082.66.254.05 3.352-.965 3.352-.965l-5.434.305z" fill="#fff"/><path fill-rule="evenodd" clip-rule="evenodd" d="M24.12 46.49l5.433-.305.01.05-.008-.024.008.024-.035.011-.099.033a92.973 92.973 0 01-1.447.458c-.404.123-.815.246-1.141.334-.164.044-.306.08-.416.103a2.29 2.29 0 01-.14.025.304.304 0 01-.087.002c-.039-.008-.196-.03-.422-.063l-.48-.069a46.24 46.24 0 01-1.49-.236 8.717 8.717 0 01-.572-.12 1.55 1.55 0 01-.176-.053.328.328 0 01-.053-.026c-.013-.009-.027-.02-.032-.036a.04.04 0 01.001-.028.051.051 0 01.016-.02.152.152 0 01.05-.021c.042-.012.107-.02.196-.027.18-.013.466-.018.885-.012zm5.241-.243l-5.24.294a10.884 10.884 0 00-.881.012c-.09.006-.15.015-.186.025a.149.149 0 00-.027.01 8.74 8.74 0 00.788.195c.453.082 1.02.168 1.488.236l.475.068c.23.033.39.056.43.064a.266.266 0 00.072-.003c.035-.004.08-.013.135-.024.108-.023.25-.058.412-.102.326-.088.737-.21 1.14-.334a93.839 93.839 0 001.394-.44z" fill="#AEAEAE"/><path fill-rule="evenodd" clip-rule="evenodd" d="M35.266 46.415a1.84 1.84 0 00.44-.276c.11-.092.423-.365.682-.923l.002-.004c.073-.157.555-1.194.304-2.628-.323-1.839-1.378-2.153-1.622-2.195a1.251 1.251 0 00-.677.074c-.127.05-.232.112-.305.16l-.091.063-.015.01a5.427 5.427 0 01-.127.085 3.959 3.959 0 00-.318.087 1.37 1.37 0 00-.084-.002h-.012c-.109-.002-.632-.012-1.16.538l-.002.001-.018.006a1.487 1.487 0 00-.198.086 4.207 4.207 0 01-.511.15 7.627 7.627 0 01-1.344.162h-7.552c-.228 0-.378-.038-.722-.139a4.64 4.64 0 00-.557-.12l-.03-.005a2.007 2.007 0 01-.268-.055c-.479-.153-.806-.153-1.07-.153h-.953v2.13c-.683-.268-1.275-.565-1.753-.914a9.624 9.624 0 01-.855-.692 3.174 3.174 0 01-.18-.176c.007.01.052.064.111.16l-2.67 4.27c.253.405.605.749.846.972.307.284.701.612 1.18.961m9.375 2.256zm.077-.028a1.8 1.8 0 00.57-.353l.015-.01c.043-.024.1-.057.165-.1l.02-.008.01-.005c.023-.011.064-.03.115-.056a1.54 1.54 0 00.37-.089h.001l.035-.013h.416c.431 0 .895-.15 1.144-.23l.052-.018.2-.06c.232-.07.559-.169.773-.254.108-.044.236-.073.48-.122m-3.578.831zm-.788.487c-.6.404-1.246.404-1.625.404h-.021c-.773 0-1.746-.206-3.166-.614-1.528-.439-3.26-1.012-4.64-2.018m13.819.91a9.948 9.948 0 001.225-.326l-1.225.326zm1.225-.326c.347-.119.64-.286.817-.39l.09-.054.06-.034.131-.048a5.296 5.296 0 00.242-.1l.058-.025a3.081 3.081 0 01.058-.024c.175-.067.494-.209.813-.517a1.822 1.822 0 00.281-.214l.01-.004.383-.153c.224-.09.411-.166.601-.232m0 0c.16-.055.304-.115.435-.176.023-.007.047-.016.074-.026a2.15 2.15 0 00.271-.126c.065-.035.122-.07.15-.088l.004-.002.007-.004m-3.474 1.714l-.01.005a.092.092 0 01.01-.005zm2.527-7.56zm-1.003.378z" fill="#AEAEAE"/></svg>