<svg width="16" height="16" fill="none" xmlns="http://www.w3.org/2000/svg"><path fill-rule="evenodd" clip-rule="evenodd" d="M5.775.028C3.72.26 1.962 1.379.91 3.124a6.484 6.484 0 00-.853 2.332c-.082.472-.074 1.564.014 2.048.376 2.058 1.589 3.716 3.402 4.653.97.5 1.849.712 2.957.712 1.35-.001 2.457-.335 3.582-1.08l.375-.249 2.176 2.17c1.467 1.464 2.216 2.19 2.3 2.23.17.08.522.08.673.001.377-.198.55-.603.423-.993-.052-.16-.17-.283-2.243-2.361l-2.189-2.193.242-.358c1.16-1.715 1.416-3.86.695-5.849-.236-.651-.687-1.408-1.175-1.973A6.51 6.51 0 008.146.229C7.425.035 6.449-.048 5.775.028zm1.118 1.595c1.19.13 2.119.573 2.95 1.404.848.849 1.299 1.811 1.412 3.013.1 1.074-.188 2.168-.822 3.124-.264.397-.882 1.015-1.279 1.279-1.605 1.065-3.577 1.122-5.208.148a4.89 4.89 0 01-2.278-3.252c-.1-.5-.1-1.297 0-1.798a4.91 4.91 0 012.4-3.323 4.853 4.853 0 012.825-.595z" fill="#000"/></svg>