<svg width="70" height="70" fill="none" xmlns="http://www.w3.org/2000/svg"><path d="M33.043 1.684a3 3 0 013.914 0l1.516 1.305a3 3 0 003.116.494l1.845-.773a3 3 0 013.722 1.21l1.039 1.71a3 3 0 002.81 1.431L53 6.897a3 3 0 013.167 2.3l.46 1.947a3 3 0 002.23 2.23l1.947.46a3 3 0 012.3 3.167l-.164 1.993a3 3 0 001.432 2.811l1.71 1.039a3 3 0 011.209 3.722l-.773 1.845a3 3 0 00.494 3.116l1.305 1.516a3 3 0 010 3.914l-1.305 1.516a3 3 0 00-.494 3.116l.773 1.845a3 3 0 01-1.21 3.722l-1.71 1.039a3 3 0 00-1.431 2.81L63.103 53a3 3 0 01-2.3 3.167l-1.947.46a3 3 0 00-2.23 2.23l-.46 1.947a3 3 0 01-3.167 2.3l-1.993-.164a3 3 0 00-2.811 1.432l-1.039 1.71a3 3 0 01-3.722 1.209l-1.845-.773a3 3 0 00-3.116.494l-1.516 1.305a3 3 0 01-3.914 0l-1.516-1.305a3 3 0 00-3.116-.494l-1.845.773a3 3 0 01-3.722-1.21l-1.039-1.71a3 3 0 00-2.81-1.431L17 63.103a3 3 0 01-3.167-2.3l-.46-1.947a3 3 0 00-2.23-2.23l-1.947-.46a3 3 0 01-2.3-3.167l.164-1.993a3 3 0 00-1.432-2.811l-1.71-1.039a3 3 0 01-1.209-3.722l.773-1.845a3 3 0 00-.494-3.116l-1.305-1.516a3 3 0 010-3.914l1.305-1.516a3 3 0 00.494-3.116l-.773-1.845a3 3 0 011.21-3.722l1.71-1.039a3 3 0 001.431-2.81L6.897 17a3 3 0 012.3-3.167l1.947-.46a3 3 0 002.23-2.23l.46-1.947a3 3 0 013.167-2.3l1.993.164a3 3 0 002.811-1.432l1.039-1.71a3 3 0 013.722-1.209l1.845.773a3 3 0 003.116-.494l1.516-1.305z" fill="#EC1515"/></svg>