<svg width="120" height="38" viewBox="0 0 120 38" fill="none" xmlns="http://www.w3.org/2000/svg">
<g clip-path="url(#clip0_41_2)">
<path d="M55.9091 0.756958C56.0606 0.756958 56.2121 0.756958 56.3637 0.908352C56.5152 1.05975 56.5152 1.21114 56.5152 1.36254V4.996C56.5152 5.1474 56.5152 5.29879 56.3637 5.45019C56.2121 5.60158 56.0606 5.60158 55.9091 5.60158H52.2727V15.745C52.2727 15.8964 52.2727 16.0478 52.1212 16.1992C51.9697 16.3506 51.8182 16.3506 51.6667 16.3506H47.2727C47.1212 16.3506 46.9697 16.3506 46.8182 16.1992C46.6667 16.0478 46.6667 15.8964 46.6667 15.745V5.45019H43.0303C42.8788 5.45019 42.7273 5.45019 42.5758 5.29879C42.4243 5.1474 42.4243 4.996 42.4243 4.84461V1.36254C42.4243 1.21114 42.4243 1.05975 42.5758 0.908352C42.7273 0.756958 42.8788 0.756958 43.0303 0.756958H55.9091Z" fill="#696969"/>
<path d="M72.4242 6.66139C72.4242 7.26697 72.4242 8.02394 72.4242 8.62952C72.4242 9.38649 72.4242 9.99207 72.4242 10.5976C72.4242 11.6574 72.1212 12.4144 71.8182 13.1714C71.5151 13.9283 70.9091 14.5339 70.303 14.9881C69.697 15.4423 68.9394 15.8965 68.0303 16.0478C67.1212 16.3506 66.2121 16.502 65 16.502C63.9394 16.502 62.8788 16.3506 61.9697 16.0478C61.0606 15.7451 60.303 15.4423 59.697 14.9881C59.0909 14.5339 58.4848 13.9283 58.1818 13.1714C57.7273 12.4144 57.5757 11.506 57.5757 10.5976C57.5757 9.99207 57.5757 9.38649 57.5757 8.62952C57.5757 7.87255 57.5757 7.26697 57.5757 6.66139C57.5757 5.75303 57.8788 4.84466 58.1818 4.08769C58.4848 3.33072 59.0909 2.72514 59.697 2.11956C60.303 1.66538 61.0606 1.2112 61.9697 0.908407C62.8788 0.605618 63.7879 0.454224 65 0.454224C66.0606 0.454224 67.1212 0.605618 68.0303 0.908407C68.7879 1.2112 69.697 1.51398 70.303 2.11956C70.9091 2.57375 71.5151 3.33072 71.8182 4.08769C72.1212 4.69327 72.4242 5.60163 72.4242 6.66139ZM63.3333 10.4463C63.3333 11.0518 63.4848 11.506 63.7879 11.8088C64.0909 12.1116 64.3939 12.263 65 12.263C65.4545 12.263 65.9091 12.1116 66.2121 11.8088C66.5151 11.506 66.6667 11.0518 66.6667 10.4463C66.6667 9.2351 66.6667 7.87255 66.6667 6.66139C66.6667 6.05582 66.5151 5.60163 66.2121 5.29884C65.9091 4.99606 65.4545 4.84466 65 4.84466C64.5454 4.84466 64.0909 4.99606 63.7879 5.29884C63.4848 5.60163 63.3333 6.05582 63.3333 6.66139C63.3333 7.87255 63.3333 9.0837 63.3333 10.4463Z" fill="#696969"/>
<path d="M81.5152 0.756958C82.5758 0.756958 83.4849 0.908352 84.394 1.21114C85.3031 1.51393 86.0607 1.81672 86.6667 2.4223C87.2728 3.02787 87.8788 3.63345 88.1819 4.39042C88.6364 5.1474 88.7879 6.05576 88.7879 6.96413C88.7879 7.26692 88.7879 7.56971 88.7879 7.8725C88.7879 8.17528 88.7879 8.47807 88.7879 8.62947C88.7879 8.93226 88.7879 9.08365 88.7879 9.38644C88.7879 9.68923 88.7879 9.99202 88.7879 10.2948C88.7879 11.3546 88.4849 12.2629 88.1819 13.0199C87.8788 13.7769 87.2728 14.3825 86.6667 14.988C86.0607 15.4422 85.3031 15.8964 84.394 16.0478C83.4849 16.3506 82.5758 16.3506 81.5152 16.3506H75C74.8485 16.3506 74.697 16.3506 74.5455 16.1992C74.394 16.0478 74.394 15.8964 74.394 15.745V1.36254C74.394 1.21114 74.394 1.05975 74.5455 0.908352C74.697 0.756958 74.8485 0.756958 75 0.756958H81.5152ZM83.3334 6.81274C83.3334 6.20716 83.1819 5.75297 82.7273 5.45019C82.4243 5.1474 81.9697 4.996 81.3637 4.996H80V11.9601H81.5152C81.9697 11.9601 82.4243 11.8088 82.7273 11.506C83.0303 11.2032 83.1819 10.749 83.3334 10.1434C83.3334 9.84062 83.3334 9.53783 83.3334 9.23505C83.3334 8.93226 83.3334 8.62947 83.3334 8.47807C83.3334 8.17528 83.3334 8.02389 83.3334 7.7211C83.3334 7.41831 83.3334 7.11552 83.3334 6.81274Z" fill="#696969"/>
<path d="M100.152 0.756958C100.455 0.756958 100.606 0.908352 100.909 1.05975C101.061 1.21114 101.212 1.36254 101.212 1.51393L106.212 15.745V15.8964C106.212 16.0478 106.212 16.1992 106.061 16.1992C105.909 16.3506 105.909 16.3506 105.758 16.3506H101.515C101.212 16.3506 101.061 16.3506 100.909 16.1992C100.758 16.0478 100.758 15.8964 100.606 15.8964L100 14.3825H95.1515L94.5455 15.8964C94.5455 16.0478 94.3939 16.1992 94.2424 16.1992C94.0909 16.3506 93.9394 16.3506 93.6364 16.3506H89.5455C89.3939 16.3506 89.2424 16.3506 89.2424 16.1992C89.3939 16.0478 89.3939 15.8964 89.3939 15.745V15.5936L94.3939 1.51393C94.3939 1.36254 94.5455 1.21114 94.697 1.05975C94.8485 0.908352 95.1515 0.756958 95.4546 0.756958H100.152ZM98.9394 9.99202L97.7273 5.90437L96.5152 9.99202H98.9394Z" fill="#696969"/>
<path d="M109.848 16.3506C109.697 16.3506 109.545 16.3506 109.394 16.1992C109.242 16.0478 109.242 15.8964 109.242 15.745V11.3546L104.242 1.51393V1.36254C104.242 1.21114 104.242 1.05975 104.394 1.05975C104.545 0.756958 104.545 0.756958 104.697 0.756958H108.939C109.242 0.756958 109.394 0.756958 109.545 0.908352C109.697 1.05975 109.848 1.21114 109.848 1.21114L112.121 5.75297L114.394 1.21114C114.394 1.21114 114.545 1.05975 114.697 0.908352C114.848 0.756958 115 0.756958 115.303 0.756958H119.545C119.697 0.756958 119.848 0.756958 119.848 0.908352C120 1.05975 120 1.05975 120 1.21114V1.36254L115 11.2032V15.5936C115 15.745 115 15.8964 114.848 16.0478C114.697 16.1992 114.545 16.1992 114.394 16.1992H109.848V16.3506Z" fill="#696969"/>
<path d="M59.3939 19.2271C59.5454 19.2271 59.697 19.2271 59.8485 19.3784C60 19.5298 60 19.6812 60 19.8326V36.9402C60 37.0916 60 37.243 59.8485 37.3944C59.697 37.5458 59.5454 37.5458 59.3939 37.5458H55.1515C54.8485 37.5458 54.5454 37.3944 54.3939 37.243C54.2424 37.0916 54.0909 36.9402 54.0909 36.9402L49.697 30.2788V36.9402C49.697 37.0916 49.697 37.243 49.5454 37.3944C49.3939 37.5458 49.2424 37.5458 49.0909 37.5458H44.2424C44.0909 37.5458 43.9394 37.5458 43.7879 37.3944C43.6364 37.243 43.6364 37.0916 43.6364 36.9402V19.984C43.6364 19.8326 43.6364 19.6812 43.7879 19.5298C43.9394 19.3784 44.0909 19.3784 44.2424 19.3784H48.4848C48.7879 19.3784 49.0909 19.5298 49.2424 19.6812C49.3939 19.8326 49.5454 19.984 49.5454 19.984L53.9394 27.251V19.984C53.9394 19.8326 53.9394 19.6812 54.0909 19.5298C54.2424 19.3784 54.3939 19.3784 54.5454 19.3784H59.3939V19.2271Z" fill="#696969"/>
<path d="M77.4242 32.5499C77.5757 32.5499 77.7273 32.5499 77.8788 32.7013C78.0303 32.8526 78.0303 33.004 78.0303 33.1554V36.9403C78.0303 37.0917 78.0303 37.2431 77.8788 37.3945C77.7273 37.5459 77.5757 37.5459 77.4242 37.5459H63.6363C63.4848 37.5459 63.3333 37.5459 63.1818 37.3945C63.0303 37.2431 63.0303 37.0917 63.0303 36.9403V19.9841C63.0303 19.8327 63.0303 19.6813 63.1818 19.5299C63.3333 19.3785 63.4848 19.3785 63.6363 19.3785H77.2727C77.4242 19.3785 77.5757 19.3785 77.7272 19.5299C77.8788 19.6813 77.8788 19.8327 77.8788 19.9841V23.769C77.8788 23.9204 77.8788 24.0718 77.7272 24.2232C77.5757 24.3746 77.4242 24.3746 77.2727 24.3746H69.3939V26.0399H76.6666C76.8182 26.0399 76.9697 26.0399 77.1212 26.1913C77.2727 26.3427 77.2727 26.4941 77.2727 26.6455V30.1275C77.2727 30.2789 77.2727 30.4303 77.1212 30.5817C76.9697 30.7331 76.8182 30.7331 76.6666 30.7331H69.3939V32.3985H77.4242V32.5499Z" fill="#696969"/>
<path d="M90.4545 31.49L88.3333 36.9402C88.3333 37.0916 88.1818 37.243 88.0303 37.3944C87.8788 37.5458 87.5757 37.6972 87.2727 37.6972H83.4848C83.1818 37.6972 82.8788 37.5458 82.5757 37.3944C82.4242 37.243 82.2727 36.9402 82.2727 36.6374L79.8484 19.8327V19.6813C79.8484 19.5299 79.8484 19.3785 80 19.2271C80.1515 19.0757 80.303 19.0757 80.4545 19.0757H85.303C85.606 19.0757 85.7575 19.0757 85.9091 19.2271C86.0606 19.3785 86.2121 19.5299 86.2121 19.8327L87.1212 27.251L88.1818 23.9203C88.1818 23.7689 88.3333 23.6175 88.4848 23.4661C88.6363 23.3147 88.7878 23.1633 89.0909 23.1633H91.8181C92.1212 23.1633 92.4242 23.3147 92.4242 23.4661C92.5757 23.6175 92.5757 23.7689 92.7272 23.9203L93.7878 27.251L94.6969 19.8327C94.6969 19.5299 94.8485 19.3785 95 19.2271C95.1515 19.0757 95.303 19.0757 95.606 19.0757H100.455C100.606 19.0757 100.758 19.0757 100.909 19.2271C101.061 19.3785 101.061 19.5299 101.061 19.6813V19.8327L98.6363 36.6374C98.6363 36.9402 98.4848 37.0916 98.3333 37.3944C98.1818 37.5458 97.8788 37.6972 97.4242 37.6972H93.6363C93.3333 37.6972 93.0303 37.5458 92.8788 37.3944C92.7272 37.243 92.5757 37.0916 92.5757 36.9402L90.4545 31.49Z" fill="#696969"/>
<path d="M110.758 18.9243C112.121 18.9243 113.182 19.0757 114.242 19.3785C115.303 19.6813 116.061 20.1355 116.818 20.741C117.576 21.3466 118.03 21.8008 118.485 22.5578C118.788 23.1634 119.091 23.7689 119.091 24.3745C119.091 24.5259 119.091 24.6773 118.939 24.8287C118.788 24.9801 118.636 24.9801 118.485 24.9801H113.182C112.879 24.9801 112.727 24.9801 112.576 24.8287C112.424 24.8287 112.273 24.6773 112.121 24.5259C111.97 24.3745 111.818 24.3745 111.667 24.2231C111.364 24.0717 111.061 24.0717 110.758 24.0717C110.303 24.0717 110 24.0717 109.849 24.2231C109.697 24.3745 109.545 24.5259 109.545 24.8287C109.545 24.9801 109.545 25.1315 109.697 25.1315C109.849 25.2829 110 25.2829 110.152 25.4343C110.303 25.5857 110.606 25.5857 111.061 25.7371C111.515 25.8885 111.97 25.8885 112.576 25.8885C113.939 26.0399 115 26.3426 115.909 26.6454C116.818 26.9482 117.576 27.4024 118.182 27.8566C118.788 28.3108 119.242 28.9163 119.394 29.5219C119.697 30.1275 119.849 30.8845 119.849 31.7928C119.849 32.7012 119.697 33.6096 119.242 34.3665C118.788 35.1235 118.182 35.7291 117.424 36.3347C116.667 36.9403 115.758 37.243 114.697 37.5458C113.636 37.8486 112.424 38 111.212 38C109.697 38 108.485 37.8486 107.424 37.5458C106.364 37.243 105.455 36.7889 104.697 36.3347C103.939 35.8805 103.485 35.2749 103.03 34.5179C102.727 33.9124 102.424 33.1554 102.424 32.3984C102.424 32.247 102.424 32.0956 102.576 31.9442C102.727 31.7928 102.879 31.7928 103.03 31.7928H108.03C108.333 31.7928 108.485 31.7928 108.636 31.9442C108.788 32.0956 108.939 32.0956 109.091 32.247C109.394 32.3984 109.545 32.5498 109.849 32.7012C110.152 32.8526 110.606 32.8526 110.909 32.8526C111.515 32.8526 111.97 32.8526 112.424 32.7012C112.727 32.5498 113.03 32.3984 113.03 32.0956C113.03 31.7928 112.727 31.4901 112.273 31.3387C111.818 31.1873 110.909 31.0359 109.545 30.8845C108.485 30.7331 107.576 30.5817 106.667 30.2789C105.758 29.9761 105.152 29.6733 104.545 29.0677C103.939 28.6136 103.485 28.008 103.182 27.4024C102.879 26.7968 102.727 26.0399 102.727 25.1315C102.727 24.2231 102.879 23.4661 103.333 22.7092C103.788 21.9522 104.242 21.3466 105 20.741C105.758 20.2869 106.515 19.8327 107.576 19.5299C108.485 19.0757 109.545 18.9243 110.758 18.9243Z" fill="#696969"/>
<path d="M20.1515 17.4104L15.6061 9.99203C15.6061 9.84064 15.4545 9.84064 15.303 9.53785C15.1515 9.38645 14.8485 9.23506 14.5455 9.23506H10.4545C10.303 9.23506 10.1515 9.38645 10 9.38645C9.69697 9.68924 9.69697 9.84064 9.69697 10.1434V38H3.18182C1.36364 38 0 36.4861 0 34.8207V3.33068C0 1.51394 1.51515 0 3.18182 0H20.1515V17.4104Z" fill="#696969"/>
<path d="M36.2122 3.33068V34.8207C36.2122 36.6374 34.697 38 33.0303 38H15.9091V20.5896L20.4546 27.4024C20.4546 27.5538 20.6061 27.5538 20.7576 27.7052C20.9091 27.8566 21.2122 28.008 21.5152 28.008H25.7576C25.9091 28.008 26.0606 28.008 26.2122 27.8566C26.3637 27.7052 26.3637 27.5538 26.3637 27.4024V0H32.7273C34.697 0 36.2122 1.51394 36.2122 3.33068Z" fill="#696969"/>
</g>
<defs>
<clipPath id="clip0_41_2">
<rect width="120" height="38" fill="white"/>
</clipPath>
</defs>
</svg>
