<svg width="16" height="21" viewBox="0 0 16 21" fill="none" xmlns="http://www.w3.org/2000/svg">
<path d="M0.439636 7.70416C0.439636 6.87059 0.58535 6.08312 0.872493 5.34812C1.16178 4.61205 1.56142 3.96597 2.07356 3.4174C2.58678 2.86883 3.16964 2.39408 3.83499 1.99336C4.49928 1.59051 5.21285 1.29051 5.97999 1.08908C6.74392 0.888726 7.52285 0.788006 8.32106 0.788006C9.54142 0.788006 10.6771 1.04629 11.7303 1.56058C12.7793 2.07379 13.6332 2.82165 14.2921 3.80415C14.95 4.7845 15.2768 5.89344 15.2768 7.12986C15.2768 7.87129 15.2039 8.59666 15.055 9.30594C14.9071 10.0163 14.6778 10.702 14.3628 11.3555C14.0457 12.0123 13.6621 12.5899 13.2036 13.0881C12.7471 13.5853 12.1889 13.9826 11.5236 14.2816C10.8582 14.5784 10.1286 14.7283 9.33249 14.7283C8.80856 14.7283 8.28571 14.6052 7.76928 14.3577C7.25285 14.1113 6.88214 13.7726 6.65928 13.3387C6.58106 13.6398 6.47392 14.0748 6.33142 14.6437C6.19428 15.2116 6.10214 15.5781 6.06142 15.7442C6.01856 15.9092 5.93928 16.1845 5.82356 16.5659C5.70785 16.9474 5.60714 17.2237 5.52249 17.3898C5.43785 17.5537 5.31571 17.7949 5.15392 18.112C4.99106 18.4292 4.81106 18.7292 4.62035 19.0099C4.42642 19.2906 4.18642 19.6259 3.90035 20.0116L3.74071 20.0684L3.63464 19.9527C3.51999 18.7388 3.46106 18.0123 3.46106 17.7723C3.46106 17.062 3.54571 16.2648 3.71285 15.3798C3.87678 14.4959 4.13606 13.3848 4.48428 12.0487C4.83249 10.7137 5.03178 9.92846 5.08535 9.69596C4.83999 9.1956 4.71571 8.542 4.71571 7.73843C4.71571 7.09664 4.91606 6.49558 5.31785 5.92987C5.72071 5.3663 6.22964 5.08445 6.84678 5.08445C7.31928 5.08445 7.68571 5.24097 7.94821 5.5549C8.21178 5.86775 8.34035 6.26205 8.34035 6.74312C8.34035 7.25312 8.17106 7.99125 7.83035 8.9566C7.48964 9.92303 7.32035 10.6441 7.32035 11.123C7.32035 11.6084 7.49392 12.0145 7.84106 12.3327C8.18821 12.653 8.61142 12.8137 9.10428 12.8137C9.52856 12.8137 9.92178 12.7173 10.2871 12.5234C10.6525 12.3316 10.9546 12.0681 11.1968 11.7381C11.44 11.4049 11.6586 11.0384 11.8461 10.6355C12.0357 10.2327 12.1836 9.80729 12.2864 9.35407C12.3893 8.90193 12.4686 8.47234 12.5178 8.06841C12.5703 7.66234 12.5928 7.27874 12.5928 6.91445C12.5928 5.57838 12.1686 4.53704 11.3253 3.79133C10.4778 3.04561 9.37428 2.67478 8.01678 2.67478C6.47285 2.67478 5.18178 3.17406 4.14785 4.17585C3.11285 5.17442 2.59214 6.44415 2.59214 7.98379C2.59214 8.32343 2.64356 8.65123 2.74106 8.96837C2.83642 9.28445 2.94035 9.53621 3.05285 9.72264C3.16428 9.90585 3.26928 10.0849 3.36464 10.2499C3.46106 10.4149 3.51142 10.5327 3.51142 10.6034C3.51142 10.8198 3.45464 11.1016 3.33999 11.4498C3.22106 11.7981 3.08071 11.9716 2.91142 11.9716C2.89535 11.9716 2.82892 11.9598 2.71321 11.9352C2.31892 11.8195 1.96856 11.6031 1.66428 11.287C1.35999 10.9699 1.12321 10.6035 0.958207 10.192C0.794279 9.77847 0.66785 9.36161 0.581065 8.93947C0.479279 8.51733 0.439636 8.10595 0.439636 7.70416Z" fill="#5B5B5B"/>
</svg>
