<svg width="20" height="21" viewBox="0 0 20 21" fill="none" xmlns="http://www.w3.org/2000/svg">
<path fill-rule="evenodd" clip-rule="evenodd" d="M20 10.8867C20 16.4096 15.5228 20.8867 10 20.8867C4.47715 20.8867 0 16.4096 0 10.8867C0 5.36387 4.47715 0.886719 10 0.886719C15.5228 0.886719 20 5.36387 20 10.8867ZM10.3584 8.26914C9.38573 8.6737 7.4418 9.51103 4.5266 10.7811C4.05321 10.9694 3.80524 11.1535 3.78266 11.3336C3.74451 11.6379 4.12561 11.7578 4.64458 11.921C4.71517 11.9432 4.78832 11.9662 4.8633 11.9905C5.37388 12.1565 6.06071 12.3507 6.41776 12.3584C6.74164 12.3654 7.10313 12.2319 7.50222 11.9578C10.226 10.1192 11.632 9.18988 11.7203 9.16984C11.7826 9.15571 11.8689 9.13793 11.9273 9.18991C11.9858 9.24188 11.98 9.3403 11.9739 9.3667C11.9361 9.52765 10.4401 10.9185 9.66595 11.6382C9.42461 11.8626 9.25342 12.0217 9.21842 12.0581C9.14002 12.1395 9.06013 12.2165 8.98334 12.2905C8.50899 12.7478 8.15328 13.0907 9.00303 13.6507C9.41138 13.9198 9.73815 14.1423 10.0641 14.3643C10.4202 14.6068 10.7753 14.8486 11.2347 15.1498C11.3518 15.2265 11.4635 15.3062 11.5724 15.3838C11.9867 15.6792 12.359 15.9445 12.8188 15.9022C13.0861 15.8776 13.3621 15.6264 13.5023 14.877C13.8335 13.106 14.4847 9.26875 14.6352 7.68751C14.6484 7.54898 14.6318 7.37168 14.6185 7.29385C14.6052 7.21602 14.5773 7.10512 14.4762 7.02303C14.3563 6.92582 14.1714 6.90531 14.0887 6.90677C13.7125 6.9134 13.1355 7.11405 10.3584 8.26914Z" fill="#474747"/>
</svg>
