<svg width="125" height="42" viewBox="0 0 125 42" fill="none" xmlns="http://www.w3.org/2000/svg">
<path d="M69.3178 13.6308H73.1773C74.6067 13.6308 75.8626 13.4368 76.9449 13.0488C78.0272 12.6404 78.8746 12.0482 79.4873 11.2722C80.0999 10.4962 80.4062 9.56708 80.4062 8.48479C80.4062 7.25955 80.0999 6.24873 79.4873 5.45233C78.8746 4.65592 78.0272 4.06373 76.9449 3.67573C75.8626 3.26732 74.6067 3.06311 73.1773 3.06311H66.0403V24.5048H73.6368C75.2296 24.5048 76.6284 24.2903 77.8332 23.8615C79.038 23.4327 79.9671 22.769 80.6206 21.8705C81.2945 20.972 81.6314 19.8182 81.6314 18.4092C81.6314 17.3473 81.4068 16.4386 80.9575 15.6831C80.5287 14.9275 79.9365 14.3149 79.1809 13.8452C78.4254 13.3551 77.5677 12.9977 76.608 12.7731C75.6686 12.5485 74.6782 12.4362 73.6368 12.4362H69.3178V14.8254H73.2385C73.7899 14.8254 74.3004 14.8867 74.7701 15.0092C75.2398 15.1113 75.6482 15.2951 75.9953 15.5605C76.3629 15.8056 76.6386 16.1221 76.8224 16.5101C77.0266 16.8777 77.1287 17.3269 77.1287 17.8579C77.1287 18.593 76.9551 19.1954 76.608 19.6651C76.2812 20.1347 75.8218 20.4819 75.2296 20.7065C74.6374 20.9107 73.9737 21.0128 73.2385 21.0128H70.4205V6.55504H72.7791C73.7389 6.55504 74.4944 6.76946 75.0458 7.19829C75.6176 7.62712 75.9034 8.24995 75.9034 9.06678C75.9034 9.59771 75.7707 10.0572 75.5052 10.4452C75.2602 10.8332 74.9028 11.1293 74.4332 11.3335C73.9635 11.5377 73.4121 11.6398 72.7791 11.6398H69.3178V13.6308Z" fill="white"/>
<path d="M84.9965 0.61264V24.5048H88.9785V0.61264H84.9965Z" fill="white"/>
<path d="M91.944 17.4596C91.944 18.9095 92.2809 20.196 92.9548 21.3191C93.6491 22.4219 94.5782 23.2795 95.7422 23.8921C96.9266 24.5048 98.2642 24.8111 99.7549 24.8111C101.246 24.8111 102.573 24.5048 103.737 23.8921C104.921 23.2795 105.85 22.4219 106.524 21.3191C107.219 20.196 107.566 18.9095 107.566 17.4596C107.566 15.9894 107.219 14.7029 106.524 13.6002C105.85 12.4974 104.921 11.6398 103.737 11.0272C102.573 10.4145 101.246 10.1082 99.7549 10.1082C98.2642 10.1082 96.9266 10.4145 95.7422 11.0272C94.5782 11.6398 93.6491 12.4974 92.9548 13.6002C92.2809 14.7029 91.944 15.9894 91.944 17.4596ZM95.9873 17.4596C95.9873 16.6632 96.1506 15.9587 96.4774 15.3461C96.8245 14.7335 97.284 14.2638 97.8558 13.9371C98.4275 13.6104 99.0606 13.447 99.7549 13.447C100.449 13.447 101.082 13.6104 101.654 13.9371C102.226 14.2638 102.675 14.7335 103.002 15.3461C103.349 15.9587 103.522 16.6632 103.522 17.4596C103.522 18.2561 103.349 18.9606 103.002 19.5732C102.675 20.1654 102.226 20.6351 101.654 20.9822C101.082 21.3089 100.449 21.4723 99.7549 21.4723C99.0606 21.4723 98.4275 21.3089 97.8558 20.9822C97.284 20.6351 96.8245 20.1654 96.4774 19.5732C96.1506 18.9606 95.9873 18.2561 95.9873 17.4596Z" fill="white"/>
<path d="M109.868 25.4849C109.95 26.7102 110.277 27.7925 110.849 28.7318C111.441 29.6916 112.288 30.4267 113.391 30.9373C114.494 31.4682 115.862 31.7337 117.495 31.7337C118.843 31.7337 120.089 31.4682 121.232 30.9373C122.376 30.4267 123.285 29.6099 123.959 28.4868C124.653 27.3636 125 25.9342 125 24.1985V10.4145H121.171V24.1985C121.171 25.1582 120.987 25.9546 120.62 26.5877C120.273 27.2207 119.803 27.6904 119.211 27.9967C118.639 28.303 118.026 28.4562 117.373 28.4562C116.658 28.4562 116.035 28.3336 115.504 28.0886C114.973 27.8435 114.555 27.4964 114.249 27.0471C113.942 26.6183 113.779 26.0976 113.758 25.4849H109.868ZM109.593 17.3371C109.593 18.8891 109.909 20.2062 110.542 21.2885C111.175 22.3504 112.013 23.157 113.054 23.7084C114.095 24.2597 115.198 24.5354 116.362 24.5354C117.546 24.5354 118.588 24.2597 119.486 23.7084C120.405 23.1366 121.12 22.3095 121.631 21.2273C122.162 20.145 122.427 18.8482 122.427 17.3371C122.427 15.8056 122.162 14.5089 121.631 13.447C121.12 12.3647 120.405 11.5377 119.486 10.9659C118.588 10.3941 117.546 10.1082 116.362 10.1082C115.198 10.1082 114.095 10.3839 113.054 10.9353C112.013 11.4866 111.175 12.3034 110.542 13.3857C109.909 14.4476 109.593 15.7647 109.593 17.3371ZM113.697 17.3371C113.697 16.4795 113.871 15.7647 114.218 15.193C114.565 14.6008 115.035 14.1515 115.627 13.8452C116.219 13.5389 116.852 13.3857 117.526 13.3857C117.975 13.3857 118.414 13.4776 118.843 13.6614C119.272 13.8248 119.66 14.0698 120.007 14.3966C120.375 14.7233 120.661 15.1317 120.865 15.6218C121.069 16.1119 121.171 16.6837 121.171 17.3371C121.171 18.1948 120.987 18.9197 120.62 19.5119C120.273 20.0837 119.813 20.5227 119.241 20.829C118.69 21.1149 118.118 21.2579 117.526 21.2579C116.852 21.2579 116.219 21.1047 115.627 20.7984C115.035 20.4921 114.565 20.0531 114.218 19.4813C113.871 18.8891 113.697 18.1744 113.697 17.3371Z" fill="white"/>
<path d="M35.6238 15.0704H51.3681V11.1191H35.6238V15.0704ZM48.5806 3.06312V24.5048H52.9609V3.06312H48.5806ZM34.1841 3.06312V24.5048H38.5643V3.06312H34.1841Z" fill="white"/>
<path d="M57.0247 4.96224C57.0247 5.59528 57.2596 6.12621 57.7292 6.55505C58.1989 6.98388 58.7605 7.1983 59.4139 7.1983C60.0674 7.1983 60.6188 6.98388 61.068 6.55505C61.5377 6.12621 61.7725 5.59528 61.7725 4.96224C61.7725 4.30878 61.5377 3.77784 61.068 3.36943C60.6188 2.9406 60.0674 2.72618 59.4139 2.72618C58.7605 2.72618 58.1989 2.9406 57.7292 3.36943C57.2596 3.77784 57.0247 4.30878 57.0247 4.96224ZM57.4536 10.4145V24.5048H61.3131V10.4145H57.4536Z" fill="white"/>
<path d="M15.9011 26.6914C16.8414 26.0386 17.0619 24.7554 16.4004 23.8274L6.51087 10.0064C5.84616 9.07842 4.54917 8.85762 3.60884 9.51363C2.66852 10.1696 2.44479 11.4496 3.1095 12.3777L12.9991 26.1986C13.6638 27.1266 14.964 27.3474 15.9011 26.6914Z" fill="white"/>
<path d="M22.4574 22.1217C23.3978 21.4689 23.6215 20.1857 22.9568 19.2577L10.8364 2.32312C10.1717 1.39511 8.87467 1.17751 7.93435 1.83032C6.99403 2.48633 6.77029 3.76634 7.435 4.69435L19.5554 21.6321C20.2201 22.5569 21.5204 22.7777 22.4574 22.1217Z" fill="white"/>
<path d="M29.7692 18.6049C30.7095 17.9521 30.93 16.6689 30.2686 15.7409L19.6235 0.870325C18.9588 -0.0576846 17.6618 -0.278487 16.7214 0.37752C15.7811 1.03353 15.5606 2.31354 16.2221 3.24155L26.8672 18.1121C27.5287 19.0369 28.8289 19.2577 29.7692 18.6049Z" fill="white"/>
<path d="M36.1829 9.48161C35.035 9.47201 34.0947 10.384 34.085 11.52L34.1077 24.4802C34.1077 24.5218 34.1174 24.5602 34.1206 24.605C34.1239 24.6434 34.1206 24.6818 34.1206 24.7202C34.1206 28.8514 32.7102 33.0115 29.231 35.4339C23.9522 39.114 16.6242 37.8691 12.8953 32.6595L9.92197 28.5058C9.86036 28.4194 9.78903 28.3458 9.71769 28.2722C9.6723 28.1794 9.6269 28.0898 9.5653 28.0034L3.78394 19.9329C3.12247 19.0081 1.82224 18.7873 0.881917 19.4401C-0.0584043 20.0961 -0.282136 21.3762 0.382574 22.3042L6.15744 30.3747C6.21905 30.4611 6.29038 30.5347 6.36172 30.6083C6.40711 30.7011 6.45251 30.7907 6.51412 30.8771L9.48748 35.0307C14.5393 42.09 24.471 43.7764 31.6239 38.7907C36.2899 35.5363 38.2645 30.1187 38.2645 24.445L38.2418 11.552C38.2548 10.4192 37.3307 9.49121 36.1829 9.48161Z" fill="white"/>
</svg>
