<svg width="38" height="28" viewBox="0 0 38 28" fill="none" xmlns="http://www.w3.org/2000/svg">
<path d="M6.80749 28C4.84314 28 3.21747 27.2687 1.93048 25.806C0.643494 24.3433 0 22.4627 0 20.1642C0 17.0995 0.778966 14.1393 2.3369 11.2836C3.89483 8.42786 5.96079 5.99005 8.53476 3.97015C11.1765 1.8806 14.0553 0.557215 17.1711 0L19.3048 5.01493C16.6631 5.22388 14.4278 5.9204 12.5989 7.10448C10.8378 8.2189 9.4492 9.50746 8.43316 10.9701C7.41711 12.3632 6.70588 13.6517 6.29947 14.8358L6.50267 15.0448C6.63815 14.9751 6.90909 14.9055 7.31551 14.8358C7.78966 14.6965 8.26381 14.6269 8.73797 14.6269C10.4991 14.6269 11.7861 15.1841 12.5989 16.2985C13.4795 17.4129 13.9198 18.7015 13.9198 20.1642C13.9198 22.393 13.2424 24.2736 11.8877 25.806C10.6007 27.2687 8.90731 28 6.80749 28ZM25.5027 28C23.5383 28 21.9127 27.2687 20.6257 25.806C19.3387 24.3433 18.6952 22.4627 18.6952 20.1642C18.6952 17.0995 19.4742 14.1393 21.0321 11.2836C22.59 8.42786 24.656 5.99005 27.2299 3.97015C29.8717 1.8806 32.7504 0.557215 35.8663 0L38 5.01493C35.3583 5.22388 33.123 5.9204 31.2941 7.10448C29.533 8.2189 28.1444 9.50746 27.1283 10.9701C26.1123 12.3632 25.4011 13.6517 24.9947 14.8358L25.1979 15.0448C25.3333 14.9751 25.6043 14.9055 26.0107 14.8358C26.4848 14.6965 26.959 14.6269 27.4332 14.6269C29.1943 14.6269 30.4813 15.1841 31.2941 16.2985C32.1747 17.4129 32.615 18.7015 32.615 20.1642C32.615 22.393 31.9376 24.2736 30.5829 25.806C29.2959 27.2687 27.6025 28 25.5027 28Z" fill="#B4B4B4"/>
</svg>
