<svg width="20" height="20" viewBox="0 0 20 20" fill="none" xmlns="http://www.w3.org/2000/svg">
<circle cx="10" cy="10" r="10" fill="#333333"/>
<path d="M14.6667 15.25V14.0833C14.6667 13.4645 14.4209 12.871 13.9833 12.4334C13.5457 11.9958 12.9522 11.75 12.3334 11.75H7.66671C7.04787 11.75 6.45438 11.9958 6.01679 12.4334C5.57921 12.871 5.33337 13.4645 5.33337 14.0833V15.25" fill="white"/>
<path d="M9.99996 9.41667C11.2886 9.41667 12.3333 8.372 12.3333 7.08333C12.3333 5.79467 11.2886 4.75 9.99996 4.75C8.71129 4.75 7.66663 5.79467 7.66663 7.08333C7.66663 8.372 8.71129 9.41667 9.99996 9.41667Z" fill="white"/>
</svg>
