<?xml version="1.0" encoding="utf-8"?>
<!-- Generator: Adobe Illustrator 22.0.1, SVG Export Plug-In . SVG Version: 6.00 Build 0)  -->
<svg version="1.1" id="Calque_1" xmlns="http://www.w3.org/2000/svg" xmlns:xlink="http://www.w3.org/1999/xlink" x="0px" y="0px"
	 viewBox="0 0 48 48" style="enable-background:new 0 0 48 48;" xml:space="preserve">
<style type="text/css">
	.st0{fill:#FFFFFF;}
	
		.st1{fill-rule:evenodd;clip-rule:evenodd;fill:none;stroke:#FFFFFF;stroke-width:4;stroke-linecap:round;stroke-linejoin:round;stroke-miterlimit:10;}
	.st2{fill-rule:evenodd;clip-rule:evenodd;fill:#FFFFFF;}
	.st3{fill:none;stroke:#FFFFFF;stroke-width:4;stroke-miterlimit:10;}
	.st4{fill:#FFFFFF;stroke:#FFFFFF;stroke-width:4;stroke-linecap:round;stroke-linejoin:round;stroke-miterlimit:10;}
</style>
<g>
	<path class="st0" d="M42,4H18c-1.1,0-2,0.9-2,2c0,1.1,0.9,2,2,2h22v22.1c0,1.1,0.9,2,2,2c1.1,0,2-0.9,2-2V6C44,4.9,43.1,4,42,4z"/>
	<path class="st0" d="M35,11H11c-1.1,0-2,0.9-2,2c0,1.1,0.9,2,2,2h22v22.1c0,1.1,0.9,2,2,2s2-0.9,2-2V13C37,11.9,36.1,11,35,11z"/>
	<path class="st0" d="M26.2,21.9V40H8V21.9H26.2 M28.2,17.9H6c-1.1,0-2,0.9-2,2V42c0,1.1,0.9,2,2,2h22.2c1.1,0,2-0.9,2-2V19.9
		C30.2,18.8,29.3,17.9,28.2,17.9L28.2,17.9z"/>
</g>
</svg>
