<svg width="408" height="798" viewBox="0 0 408 798" fill="none" xmlns="http://www.w3.org/2000/svg">
<g opacity="0.1">
<path d="M446.582 374.308V228.919C446.582 228.016 446.582 227.565 446.133 227.113C450.173 225.759 453.315 222.146 453.315 217.631C453.315 212.213 448.826 207.698 442.992 207.698C437.157 207.698 432.669 212.213 432.669 217.631C432.669 222.146 435.81 225.759 439.85 227.113C439.85 228.016 439.85 228.468 439.85 228.919V270.459L425.039 222.146L421.897 219.889C428.18 219.889 433.117 214.922 433.117 208.601C433.117 204.537 431.322 201.377 427.731 199.119C425.039 197.313 421.897 196.861 419.204 197.764L411.125 166.61L409.778 164.804L312.832 97.9792L311.037 97.5277H251.792L252.24 97.0762C255.382 93.464 257.177 88.9489 257.177 83.9822C257.177 79.0155 254.933 74.5003 251.792 71.3397C248.201 68.1791 243.713 66.373 238.776 66.373L226.657 47.8608L238.776 39.7335H239.673H241.917C245.508 39.7335 249.099 38.379 251.343 35.6699C254.036 32.9608 255.382 29.3486 254.933 25.7365C254.933 22.1243 253.587 18.5122 250.894 16.2546C248.201 13.997 244.61 12.191 241.02 12.6425C237.429 12.6425 234.287 13.997 232.043 16.7061C229.799 18.5122 228.901 21.2213 228.453 23.9304L215.437 32.5092L205.114 16.7061V15.8031V13.5455C205.114 9.93338 203.318 6.32124 201.074 4.06365C198.381 1.35455 195.239 0 191.649 0C188.058 0 184.468 1.35455 182.223 4.06365C179.531 6.77276 178.184 10.3849 178.633 13.997C178.633 17.6092 179.979 20.7698 182.672 23.0274C184.468 25.285 187.161 26.188 189.854 26.6395L200.625 42.4426L188.058 51.0214H187.161H184.916C181.326 51.0214 177.735 52.376 175.491 55.0851C172.798 57.7942 171.452 61.4063 171.9 65.0185C171.9 68.6306 173.247 72.2427 175.94 74.5003C178.633 77.2094 182.223 78.564 185.814 78.1125C189.405 78.1125 192.546 76.7579 194.791 74.0488C197.035 72.2427 197.932 69.5336 198.381 66.8245L211.397 58.2457L223.516 76.7579L222.618 79.467L222.169 84.4337C222.169 88.9489 224.413 93.464 227.555 96.6247H166.963L165.168 97.0762L67.7728 164.804L66.4263 166.61L58.3474 197.764C55.6545 196.861 52.0639 197.313 49.8197 199.119C46.6779 201.377 44.4338 204.537 44.4338 208.601C44.4338 214.922 49.3709 219.889 55.6545 219.889L52.5127 222.146L37.7014 270.459V228.919C37.7014 228.016 37.7014 227.565 37.2526 227.113C38.5991 226.662 40.3944 225.759 41.292 224.856C43.0873 223.049 44.4338 220.34 44.4338 217.631C44.4338 214.922 43.5362 212.213 41.292 210.407C39.4967 208.601 36.8038 207.246 34.1108 207.246C28.7249 207.246 24.2366 211.762 24.2366 217.18C24.2366 221.695 27.3784 225.307 31.4178 226.662C31.4178 228.016 31.4178 228.468 31.4178 228.919V374.308H3.59061L0 377.468V763.515V764.418V763.967C0 777.512 1.34648 790.606 4.03944 803.7C6.28357 816.794 9.87418 829.437 14.8113 841.628V842.079C20.1972 856.979 27.3784 870.525 35.9061 884.07C44.4338 897.616 53.8592 909.355 65.0798 920.643C74.5052 930.577 84.8282 939.156 96.0488 946.831C106.821 954.507 118.49 960.828 130.16 965.795C152.601 975.728 175.94 982.501 194.342 987.919L195.239 988.371C212.744 993.789 228.004 998.304 237.878 1003.72H241.02C250.445 998.304 265.705 993.789 283.209 988.371L284.107 987.919C303.407 982.05 325.399 975.728 348.289 965.795C385.991 949.54 419.653 920.192 442.992 883.619C465.882 847.498 478 805.055 478 761.709V377.92L474.858 374.759H446.582V374.308ZM439.401 218.083C439.401 216.277 441.196 214.471 442.992 214.471C444.787 214.471 446.582 216.277 446.582 218.083C446.582 220.34 444.787 221.695 442.992 221.695C441.196 221.695 439.401 219.889 439.401 218.083ZM448.826 381.08V586.521C442.992 590.133 436.708 591.487 431.771 591.487V538.208V537.757V481.769V481.317V381.08H448.826ZM300.265 770.74C300.714 774.352 301.162 777.964 301.162 781.125C297.123 786.543 293.981 793.316 291.737 800.991L289.493 799.185V724.685C295.777 728.297 298.47 755.84 300.265 770.74ZM289.493 719.267V641.154H306.548V721.073L305.202 719.267L298.918 717.461L297.572 717.912L294.879 718.364L291.737 717.912L289.493 719.267ZM297.572 724.685L299.816 724.233H300.265L301.162 724.685L302.958 727.394L303.407 729.652L306.1 732.361L309.69 730.555L310.139 730.103V729.652L311.037 728.749H310.139L311.037 728.297H311.485H312.832H313.281L315.076 731.458L318.218 736.424L317.769 739.133V739.585L316.423 745.003L314.178 745.455L311.037 742.746L306.997 741.843L305.651 745.906C306.548 748.615 307.446 750.873 308.793 752.679C310.588 755.388 312.832 757.646 315.525 758.549C316.871 759 318.218 759.452 319.564 759.452H305.202C304.304 747.712 302.06 732.812 297.572 724.685ZM311.485 728.297L312.383 727.846L311.934 728.297H311.485ZM346.045 727.846L350.085 727.394V722.879L346.943 717.912L348.738 713.397L354.573 709.785L357.715 708.43L360.856 709.785L366.691 713.397L368.486 717.912L365.345 722.879V727.394L369.833 727.846L375.219 725.588L379.258 727.846L380.156 730.555V731.006L382.849 736.424L381.054 740.036V740.488L378.809 744.552L375.219 746.358L369.384 743.649H365.345L363.998 747.261C366.691 753.582 369.833 757.646 373.423 759.452C374.321 759.903 375.668 760.355 376.565 760.355H338.864C339.762 760.355 341.108 759.903 342.006 759.452C346.045 757.646 349.187 753.582 351.431 747.261L350.085 743.649H346.045L340.21 746.358L336.62 744.552L334.376 740.488L332.58 736.424L335.273 731.006L335.722 730.555L336.62 728.297L340.659 726.039L346.045 728.297V727.846ZM388.235 733.715L385.542 728.749L383.298 723.782L382.4 722.879V641.154H400.802V721.976L397.66 722.427L396.762 722.879C394.07 724.685 393.172 726.943 392.274 729.2L389.581 733.264L388.235 736.424L389.132 740.488C389.581 744.1 390.03 748.164 393.172 750.421C394.069 751.324 395.416 751.776 396.314 751.776L395.416 752.679H390.928L387.337 750.873H383.746L382.4 751.776V748.615L385.991 742.746L388.684 737.779L388.235 733.715ZM385.991 757.646L389.581 759.452C391.377 759.903 392.723 760.355 394.07 760.355H379.707C381.502 759.903 383.746 759 385.991 757.646ZM334.824 760.355H320.462C321.808 760.355 323.604 759.903 324.95 759.452L328.092 757.646C330.785 759 333.029 759.903 334.824 760.355ZM332.58 721.976L331.234 723.33L328.99 728.297L326.297 733.715L325.848 737.779L328.541 742.746L332.131 748.615L333.029 749.518V752.228L331.234 751.324H327.643L324.053 753.131H319.116L318.218 752.228C319.116 751.776 320.462 751.324 321.36 750.873C324.053 748.615 324.95 745.003 325.399 740.94L326.297 736.876L324.95 733.264L322.706 729.2C321.808 726.943 320.911 724.685 318.218 722.879L317.32 722.427L314.178 721.976V641.154H333.478V721.976H332.58ZM408.432 766.676L407.983 768.934V769.837V770.288C407.534 773.449 407.534 776.158 407.085 778.867H307.446C306.997 776.609 306.997 773.9 306.548 769.837L306.1 767.579V766.676H408.432ZM394.518 760.355C395.865 760.355 397.211 759.903 398.558 759.452C401.251 758.549 403.495 756.291 405.29 753.582C406.637 751.776 407.534 749.518 408.432 746.809L406.637 743.197L402.597 744.1L399.455 746.809L397.211 746.358L395.865 740.94L395.416 737.779L398.558 732.812L400.353 729.652H400.802H402.148L403.495 730.555L403.944 731.458L407.085 733.264L409.778 730.555L410.227 728.297L412.023 725.588L412.92 725.136H413.369L415.613 725.588C411.574 733.715 409.33 748.615 407.983 761.258H394.518V760.355ZM414.267 770.74C415.613 755.84 418.755 728.297 425.039 724.233V798.734L422.794 800.54C420.55 792.864 417.408 786.091 413.369 780.673C413.818 778.415 413.818 775.255 414.267 770.74ZM422.794 717.912L419.204 718.364L416.511 717.912L415.164 717.461L408.881 719.267L407.534 721.073V641.154H424.59V719.267L422.794 717.912ZM379.707 634.382L376.565 637.542V718.815L375.219 718.364H374.77C375.219 714.752 373.872 711.591 371.179 708.43C368.935 705.721 365.793 704.367 363.1 703.464L359.061 701.658H355.47L351.88 703.464H351.431C348.738 704.818 346.045 706.173 343.352 708.43C340.659 711.591 339.313 714.752 339.762 717.912V718.364H339.313H338.415V637.091L335.273 633.93H284.556C277.823 633.93 271.54 635.285 266.154 637.994V593.293C271.54 596.003 277.823 597.809 284.556 597.809H335.722L338.864 594.648V530.984L335.722 527.823H308.793C301.611 527.823 294.879 529.178 289.493 531.887V487.638C295.328 490.348 301.611 491.702 308.793 491.702H335.722L338.864 488.542V436.166C338.864 428.941 337.517 422.169 334.824 416.75H380.156C377.463 422.169 376.116 428.941 376.116 436.166V488.542L379.258 491.702H407.983C414.716 491.702 420.101 490.348 425.039 487.638V531.887C420.101 529.178 414.716 527.823 407.983 527.823H379.258L376.116 530.984V594.648L379.258 597.809H429.078C436.259 597.809 442.992 596.454 448.378 593.745V638.445C442.992 635.736 436.259 634.382 429.078 634.382H379.707ZM283.209 641.154V794.67C277.375 791.509 271.54 789.703 266.154 789.703V646.121C270.642 642.96 276.477 641.606 283.209 641.154ZM265.705 586.521V381.08H282.761V591.487C276.477 591.036 270.642 589.681 265.705 586.521ZM289.493 591.487V539.563C295.328 535.951 301.611 535.048 306.548 534.596V591.487H289.493ZM313.281 591.487V534.596H332.58V591.487H313.281ZM289.493 479.963V380.629H306.548V484.478C300.265 484.929 293.981 483.123 289.493 479.963ZM326.746 415.396C330.336 420.814 332.58 428.038 332.58 436.166V485.381H313.281V381.08H330.336V409.978H329.439L326.746 411.784V415.396ZM337.069 409.978V381.08H354.124V409.978H337.069ZM360.408 409.978V381.08H377.463V409.978H360.408ZM385.991 409.978H384.195V381.08H401.251V485.381H382.849V436.166C382.849 428.038 385.093 420.814 388.684 415.396L389.132 412.235L385.991 409.978ZM407.983 484.929V381.08H425.039V480.414C419.653 483.575 414.716 484.929 407.983 484.929ZM425.039 539.563V591.487H407.983V534.596C415.164 534.596 419.653 535.951 425.039 539.563ZM401.251 534.596V591.487H382.4V534.596H401.251ZM431.771 641.154C436.708 641.154 443.44 642.509 448.826 646.121V789.703H446.582C441.645 790.155 436.708 791.509 431.771 794.67V641.154ZM415.164 305.226L412.023 308.386V347.668L415.164 350.829H439.85V358.956H291.288V296.647H439.85V305.226H415.164ZM439.85 311.998V344.056H418.306V311.998H439.85ZM433.566 272.716H410.227L421.897 234.789L433.566 272.716ZM421.897 204.086C424.59 204.086 426.834 206.343 426.834 209.052C426.834 211.762 424.59 214.019 421.897 214.019C419.204 214.019 417.408 211.762 417.408 209.052C417.408 206.343 419.653 204.086 421.897 204.086ZM291.288 103.849H309.69L405.29 169.319L412.471 197.764C400.802 176.543 384.195 158.031 364.447 143.582C342.903 127.779 317.769 117.394 291.288 112.879V103.849ZM360.856 149.001C381.951 164.352 399.455 184.671 410.676 207.698V208.601C410.676 214.922 415.613 219.889 421.897 219.889L418.755 222.146L405.29 265.944V236.143C405.29 228.919 402.597 222.146 397.211 217.18C392.274 212.213 385.542 209.504 378.361 209.504C363.549 209.504 351.88 221.695 351.88 236.143V269.556L325.399 205.892L322.257 204.086L319.116 205.892L291.737 272.716V120.104C316.423 124.619 340.659 134.552 360.856 149.001ZM399.007 236.595V272.716H358.612V236.595C358.612 225.307 367.589 216.277 378.809 216.277C384.195 216.277 389.132 218.534 393.172 222.146C396.762 226.21 399.007 231.177 399.007 236.595ZM346.045 272.716H298.918L322.257 216.277L346.045 272.716ZM270.642 103.849H285.005V202.28C282.761 197.764 279.619 193.701 276.028 190.089L270.642 185.574V103.849ZM212.295 51.0214L192.098 64.5669C192.098 64.5669 192.098 64.5669 192.098 65.0185C192.098 69.5336 188.507 73.1458 184.019 73.1458C179.531 73.1458 175.94 69.5336 175.94 65.0185C175.94 60.5033 179.531 56.8912 184.019 56.8912C185.814 56.8912 187.161 57.3427 188.507 58.2457L208.255 45.1517L192.546 21.6728C192.098 21.6728 192.098 21.6728 191.649 21.6728C187.609 21.6728 184.019 18.0607 184.019 13.5455C184.019 9.03034 187.609 5.41821 192.098 5.41821C196.586 5.41821 200.177 9.03034 200.177 13.5455C200.177 14.9001 199.728 16.7061 198.83 17.6092L214.539 41.0881L234.736 27.5425C234.736 27.091 234.736 27.091 234.736 26.6395C234.736 22.5759 237.878 19.4152 241.917 19.4152C245.957 19.4152 249.099 22.5759 249.099 26.6395C249.099 30.7032 245.957 34.3153 241.917 34.3153C241.02 34.3153 239.673 33.8638 238.776 33.4123L218.578 46.9578L236.98 74.5003C237.878 74.5003 238.776 74.0488 239.673 74.0488C245.508 74.0488 250.445 79.0155 250.445 84.4337C250.445 90.3034 245.957 95.2701 239.673 95.2701C233.839 95.2701 228.901 90.3034 228.901 84.4337C228.901 82.1761 229.799 79.9185 231.146 78.1125L212.295 51.0214ZM213.641 103.849H264.359V181.058C256.729 176.543 247.752 174.286 239.224 174.286C230.248 174.286 221.72 176.543 214.09 181.058V103.849H213.641ZM192.995 103.849H207.358V185.574L201.972 190.089C198.381 193.701 195.688 197.764 192.995 202.28V103.849ZM192.995 225.307C193.444 214.019 198.381 202.731 206.46 194.604C214.988 186.025 226.657 181.058 239.224 181.058C251.343 181.058 263.012 186.025 271.989 194.604C280.068 202.731 285.005 214.019 285.454 225.307V272.265H192.995V225.307ZM72.261 169.319L167.861 103.849H186.263V113.331C159.782 117.846 134.648 128.231 113.104 144.034C93.3559 158.482 77.1981 176.995 65.0798 197.764L72.261 169.319ZM66.8751 208.149C78.5446 185.122 95.6 164.804 117.144 149.452C137.341 134.552 161.577 124.619 186.263 120.104V272.716H185.814L158.436 206.795L155.294 204.989L152.152 206.795L125.671 270.007V236.595C125.671 221.695 113.553 209.955 99.1906 209.955C92.0094 209.955 85.277 212.665 80.3399 217.631C75.4028 222.598 72.261 229.371 72.261 236.595V266.395L58.7962 222.146L55.6545 219.889C58.7962 219.889 61.938 218.534 64.1822 215.825C66.4263 214.019 66.8751 210.858 66.8751 208.149ZM178.633 272.716H131.955L155.294 216.277L178.633 272.716ZM118.939 236.595V272.716H78.5446V236.595C78.5446 231.177 80.7887 226.21 84.3793 222.146C87.97 218.534 93.3559 216.277 98.7418 216.277C109.962 216.277 118.939 225.307 118.939 236.595ZM51.1662 208.601C51.1662 205.892 53.4103 203.634 56.1033 203.634C58.7962 203.634 61.0404 205.892 61.0404 208.601C61.0404 211.31 58.7962 213.568 56.1033 213.568C52.9615 213.568 51.1662 211.31 51.1662 208.601ZM55.6545 234.789L67.3239 272.716H43.985L55.6545 234.789ZM37.7014 279.038H439.85V289.874H37.7014V279.038ZM285.005 296.647V358.956H192.995V296.647H285.005ZM37.7014 311.998H59.2451V344.056H37.7014V311.998ZM37.7014 350.829H62.8357L65.9775 347.668V308.838L62.8357 305.226H37.7014V296.647H186.263V358.956H37.7014V350.829ZM30.969 218.083C30.969 216.277 32.7643 214.471 34.5596 214.471C36.3549 214.471 38.1502 216.277 38.1502 218.083C38.1502 220.34 36.3549 221.695 34.5596 221.695C32.7643 221.695 30.969 219.889 30.969 218.083ZM30.0714 381.08H47.1268V451.517H30.0714V381.08ZM6.73239 381.08H23.7878V451.517H6.73239V381.08ZM6.73239 535.499H23.7878V605.936H6.73239V535.499ZM6.73239 689.918H23.7878V760.806H6.73239V689.918ZM47.1268 889.489C44.8826 886.328 43.0873 883.619 40.8432 880.458C37.2526 874.589 33.2131 868.267 30.0714 861.495V844.337H47.1268V889.489ZM70.9146 915.225H68.6704C63.2845 909.807 58.3474 904.389 53.8592 898.519V844.337H70.9146V915.225ZM235.634 995.595C225.76 991.08 212.295 987.016 197.035 982.05L195.688 981.598C176.389 975.728 154.396 968.956 132.404 959.474C121.183 954.507 109.962 948.637 99.1906 940.962C90.6629 935.092 83.0329 928.319 75.4028 921.546H235.634V995.595ZM77.1981 915.225V844.337H94.2535V914.774H77.1981V915.225ZM100.986 915.225V844.337H118.041V914.774H100.986V915.225ZM124.774 915.225V844.337H141.829V914.774H124.774V915.225ZM148.113 915.225V844.337H165.168V914.774H148.113V915.225ZM171.9 915.225V844.337H188.956V914.774H171.9V915.225ZM195.688 915.225V844.337H212.744V914.774H195.688V915.225ZM235.634 915.225H219.476V844.337H235.634V915.225ZM235.634 838.016H20.1972C16.1577 826.728 12.5671 814.988 10.323 802.797C8.07887 791.058 7.18122 779.318 6.73239 767.128H235.634V838.016ZM30.0714 760.806V689.918H47.1268V760.806H30.0714ZM53.8592 760.806V689.918H70.9146V760.806H53.8592ZM77.1981 760.806V689.918H94.2535V760.806H77.1981ZM100.986 760.806V689.918H118.041V760.806H100.986ZM124.774 760.806V689.918H141.829V760.806H124.774ZM148.113 760.806V689.918H165.168V760.806H148.113ZM171.9 760.806V689.918H188.956V760.806H171.9ZM195.688 760.806V689.918H212.744V760.806H195.688ZM235.634 760.806H219.476V689.918H235.634V760.806ZM235.634 683.597H6.73239V613.16H235.634V683.597ZM30.0714 605.936V535.499H47.1268V605.936H30.0714ZM53.8592 605.936V535.499H70.9146V605.936H53.8592ZM77.1981 605.936V535.499H94.2535V605.936H77.1981ZM100.986 605.936V535.499H118.041V605.936H100.986ZM124.774 605.936V535.499H141.829V605.936H124.774ZM148.113 605.936V535.499H165.168V605.936H148.113ZM171.9 605.936V535.499H188.956V605.936H171.9ZM195.688 605.936V535.499H212.744V605.936H195.688ZM235.634 605.936H219.476V535.499H235.634V605.936ZM235.634 528.727H6.73239V458.29H235.634V528.727ZM53.8592 451.517V381.08H70.9146V451.517H53.8592ZM77.1981 451.517V381.08H94.2535V451.517H77.1981ZM100.986 451.517V381.08H118.041V451.517H100.986ZM124.774 451.517V381.08H141.829V451.517H124.774ZM148.113 451.517V381.08H165.168V451.517H148.113ZM171.9 451.517V381.08H188.956V451.517H171.9ZM195.688 451.517V381.08H212.744V451.517H195.688ZM235.634 451.517H219.476V381.08H235.634V451.517ZM37.7014 374.308V365.277H439.85V374.308H37.7014ZM259.422 381.08V790.607C253.587 791.961 247.752 795.573 242.366 800.991V381.08H259.422ZM242.366 995.144V976.632L255.382 989.725C249.996 991.983 245.957 993.789 242.366 995.144ZM280.068 982.05C274.233 983.856 267.949 985.662 262.115 987.468L241.917 967.15V942.768L280.516 981.598L280.068 982.05ZM287.698 979.792L242.366 933.737V909.355L306.548 973.922C299.816 976.18 293.532 977.986 287.698 979.792ZM313.281 971.665L242.366 900.325V875.943L331.234 965.344C325.848 967.601 320.013 969.407 313.281 971.665ZM345.596 959.925C342.903 960.828 340.659 962.183 337.966 963.086L242.366 866.461V842.079L354.573 954.959C351.431 956.765 348.289 958.571 345.596 959.925ZM360.856 952.25L242.366 833.049V810.925L243.264 809.57L375.668 942.768C370.731 946.38 365.793 949.54 360.856 952.25ZM381.502 939.156L247.752 804.603C252.689 799.637 258.075 796.928 263.461 796.025L394.967 928.771C390.479 932.383 385.991 935.995 381.502 939.156ZM399.904 924.255L273.784 797.379C280.516 799.637 286.8 804.603 291.288 809.119L294.43 810.022L296.674 807.764C297.572 804.603 298.469 801.894 299.367 799.185L412.023 912.065C408.432 916.128 404.392 920.192 399.904 924.255ZM416.511 907.098L302.06 791.961C303.407 789.703 304.753 786.994 306.1 785.188H319.564L427.283 893.552C423.692 898.519 420.101 903.034 416.511 907.098ZM437.157 880.007C435.362 883.167 433.117 885.877 431.322 888.586L328.541 785.64H352.777L440.747 874.137C439.85 875.943 438.503 877.749 437.157 880.007ZM444.338 867.816L362.203 785.64H386.439L452.417 852.013C449.724 856.979 447.031 862.398 444.338 867.816ZM455.11 845.24L395.865 785.64H408.432C412.471 791.509 416.062 799.185 417.857 807.764L420.101 810.022L423.243 809.119C425.936 806.41 429.976 802.797 434.464 800.54L461.393 827.631C459.598 833.501 457.354 839.37 455.11 845.24ZM463.638 819.955L441.196 797.379C443.44 796.928 445.236 796.025 447.031 796.025C455.559 795.573 462.291 800.088 467.228 804.603C465.882 810.022 464.984 814.988 463.638 819.955ZM471.268 761.258C471.268 773.449 470.37 785.188 468.126 796.928C464.086 793.316 459.598 791.509 455.11 790.155V381.08H471.268V761.258Z" fill="#323232"/>
<path d="M214.985 348.134C221.269 350.844 229.797 352.198 239.222 352.198C248.198 352.198 256.726 350.844 263.459 348.134C270.64 344.974 274.679 340.459 274.679 335.492C274.679 320.14 253.136 302.531 239.222 302.531C225.308 302.531 203.765 320.14 203.765 335.492C203.765 340.459 207.804 344.974 214.985 348.134ZM238.773 308.852C249.545 308.852 267.498 323.753 267.498 335.04C267.498 337.298 264.805 339.556 260.317 341.362C254.931 343.619 246.852 344.974 238.773 344.974C230.694 344.974 222.615 343.619 217.229 341.362C212.741 339.556 210.048 336.847 210.048 335.04C210.048 323.753 228.45 308.852 238.773 308.852Z" fill="#323232"/>
<path d="M126.125 305.678L122.983 308.838V347.669L126.125 350.829H168.764L171.905 347.669V308.838L168.764 305.678H126.125ZM165.173 344.508H128.818V312.45H165.173V344.508Z" fill="#323232"/>
<path d="M100.99 305.678H87.974C85.281 305.678 82.5881 307.032 80.3439 308.838C78.5486 310.644 77.2021 313.354 77.2021 316.514V340.445C77.2021 343.154 78.0998 345.863 80.3439 348.12C82.1392 349.926 85.281 351.281 87.974 351.281H100.99C103.683 351.281 106.376 350.378 108.62 348.12L109.069 347.669V347.217C110.415 345.411 111.762 343.154 111.762 340.445V316.063C111.762 313.354 110.415 310.644 108.62 308.387C106.376 306.581 103.683 305.678 100.99 305.678ZM105.029 339.993L103.683 343.154L100.99 344.508H87.974L84.8322 343.154L83.4857 339.993V316.063L84.8322 313.354L87.5252 311.999H100.541L103.234 313.354L104.581 316.063V339.993H105.029Z" fill="#323232"/>
<path d="M99.1949 208.161C105.478 208.161 110.864 202.742 110.864 196.421C110.864 190.1 105.478 184.682 99.1949 184.682C92.9113 184.682 87.5254 190.1 87.5254 196.421C87.5254 203.194 92.4625 208.161 99.1949 208.161ZM99.1949 191.454C101.888 191.454 104.132 193.712 104.132 196.421C104.132 199.13 101.888 201.388 99.1949 201.388C96.5019 201.388 94.2578 199.13 94.2578 196.421C93.809 193.712 96.0531 191.454 99.1949 191.454Z" fill="#323232"/>
<path d="M309.234 305.678L306.092 308.838V347.669L309.234 350.829H351.872L355.014 347.669V308.838L351.872 305.678H309.234ZM348.73 344.508H312.375V312.45H348.73V344.508Z" fill="#323232"/>
<path d="M322.705 203.174C330.784 203.174 337.067 196.853 337.067 188.726C337.067 180.599 330.784 174.277 322.705 174.277C314.626 174.277 308.343 180.599 308.343 188.726C307.894 196.853 314.626 203.174 322.705 203.174ZM322.705 180.599C327.193 180.599 330.335 184.211 330.335 188.726C330.335 193.241 326.744 196.853 322.705 196.853C318.217 196.853 314.626 193.241 314.626 188.726C314.626 184.211 318.217 180.599 322.705 180.599Z" fill="#323232"/>
<path d="M378.803 208.161C385.087 208.161 390.473 202.742 390.473 196.421C390.473 190.1 385.087 184.682 378.803 184.682C372.52 184.682 367.134 190.1 367.134 196.421C367.134 203.194 372.52 208.161 378.803 208.161ZM378.803 191.454C381.496 191.454 383.74 193.712 383.74 196.421C383.74 199.13 381.496 201.388 378.803 201.388C376.11 201.388 373.866 199.13 373.866 196.421C373.866 193.712 376.11 191.454 378.803 191.454Z" fill="#323232"/>
<path d="M390.031 305.678H377.015C374.322 305.678 371.629 306.581 369.385 308.838C367.141 310.644 366.243 313.354 366.243 316.514V340.445C366.243 343.154 367.59 345.863 369.385 348.12C371.18 349.926 373.873 351.281 377.015 351.281H390.031C392.724 351.281 395.417 350.378 397.661 348.12L398.11 347.669V347.217C399.905 345.411 400.803 343.154 400.803 340.445V316.063C400.803 313.354 399.905 310.644 397.661 308.387C395.417 306.581 392.724 305.678 390.031 305.678ZM394.07 339.993L392.724 343.154L390.031 344.508H377.015L374.322 343.154L372.976 339.993V316.063L374.322 313.354L377.015 311.999H390.031L392.724 313.354L394.07 316.063V339.993Z" fill="#323232"/>
<path d="M251.793 169.771C255.383 166.611 257.179 162.547 257.179 158.032C257.179 153.517 255.383 149.453 251.793 146.293C248.202 143.132 243.714 141.777 239.225 141.777C234.288 141.777 229.8 143.583 226.658 146.293C223.068 149.453 221.272 153.517 221.272 158.032C221.272 162.547 223.068 166.611 226.658 169.771C230.249 172.932 234.737 174.287 239.225 174.287C243.714 174.287 248.202 172.48 251.793 169.771ZM227.107 158.032C227.107 155.323 228.454 153.065 230.249 151.259C232.493 149.453 235.635 148.099 238.777 148.099C241.918 148.099 245.06 149.002 247.304 151.259C249.548 153.065 250.446 155.323 250.446 158.032C250.446 160.741 249.1 162.999 247.304 164.805C245.06 166.611 241.918 167.965 238.777 167.965C235.635 167.965 232.493 167.062 230.249 164.805C228.454 162.999 227.107 160.29 227.107 158.032Z" fill="#323232"/>
<path d="M155.286 203.174C163.365 203.174 169.649 196.853 169.649 188.726C169.649 180.599 163.365 174.277 155.286 174.277C147.207 174.277 140.924 180.599 140.924 188.726C140.924 196.853 147.207 203.174 155.286 203.174ZM155.286 180.599C159.775 180.599 162.916 184.211 162.916 188.726C162.916 193.241 159.326 196.853 155.286 196.853C150.798 196.853 147.207 193.241 147.207 188.726C147.656 184.211 150.798 180.599 155.286 180.599Z" fill="#323232"/>
</g>
</svg>
