<?xml version="1.0" encoding="UTF-8"?>
<svg width="271px" height="103px" viewBox="0 0 271 103" version="1.1" xmlns="http://www.w3.org/2000/svg" xmlns:xlink="http://www.w3.org/1999/xlink">
    <defs>
        <path d="M9.06646817,13.8546964 L6.88545407,13.8546964 L1.53340923,5.39076284 L1.47385936,5.39076284 L1.51107803,5.86299948 C1.58055323,6.76388619 1.61529031,7.58726491 1.61529031,8.33316035 L1.61529031,13.8546964 L0,13.8546964 L0,3.23300467 L2.1586829,3.23300467 L7.49584027,11.6533472 L7.54050267,11.6533472 C7.53057764,11.5419472 7.51072788,11.1363121 7.4809528,10.4364297 C7.45117771,9.73654727 7.43629039,9.19045344 7.43629039,8.79813181 L7.43629039,3.23300467 L9.06646817,3.23300467 L9.06646817,13.8546964 Z M19.3772309,13.8546964 L18.2904457,10.9050337 L14.1293984,10.9050337 L13.0649444,13.8546964 L11.1891234,13.8546964 L15.260846,3.1894136 L17.1962168,3.1894136 L21.2679394,13.8546964 L19.3772309,13.8546964 Z M17.8214905,9.40840685 L16.8016989,6.51686559 C16.7272612,6.32312652 16.6242906,6.01799205 16.492784,5.60145304 C16.3612773,5.18491402 16.2707128,4.87977955 16.2210877,4.68604048 C16.0870998,5.28178814 15.8910834,5.93322601 15.6330327,6.64037364 L14.6504598,9.40840685 L17.8214905,9.40840685 Z M15.1491899,2.38297872 L15.1491899,2.20134925 C15.4320533,1.86230586 15.7235966,1.48452033 16.0238287,1.06798132 C16.3240608,0.651442304 16.5610173,0.295452091 16.7347053,0 L18.7668447,0 L18.7668447,0.15256876 C18.508794,0.448020851 18.1229643,0.829438936 17.6093441,1.29683446 C17.0957239,1.76422998 16.662751,2.12627445 16.3104125,2.38297872 L15.1491899,2.38297872 Z M30.2313863,13.8546964 L22.4452404,13.8546964 L22.4452404,12.6486767 L27.9312724,4.72236637 L22.5941151,4.72236637 L22.5941151,3.23300467 L30.0825116,3.23300467 L30.0825116,4.45355475 L24.5741483,12.3653347 L30.2313863,12.3653347 L30.2313863,13.8546964 Z M42.3584202,8.52932019 C42.3584202,10.2584414 41.9155224,11.6024861 41.0297136,12.5614946 C40.1439048,13.520503 38.8896482,14 37.266906,14 C35.6243138,14 34.3626135,13.5241355 33.4817672,12.5723923 C32.600921,11.6206491 32.1605044,10.2681285 32.1605044,8.51478983 C32.1605044,6.76145119 32.6034022,5.41498481 33.489211,4.47535029 C34.3750198,3.53571577 35.6392013,3.06590555 37.2817935,3.06590555 C38.8995731,3.06590555 40.150108,3.54298087 41.0334355,4.49714582 C41.916763,5.45131077 42.3584202,6.79535545 42.3584202,8.52932019 Z M34.0512129,8.52932019 C34.0512129,9.83705895 34.3216659,10.828746 34.8625799,11.504411 C35.403494,12.180076 36.204928,12.5179035 37.266906,12.5179035 C38.3239216,12.5179035 39.1216338,12.1837086 39.6600666,11.5153088 C40.1984993,10.846909 40.4677117,9.85158938 40.4677117,8.52932019 C40.4677117,7.2264249 40.2009806,6.23837043 39.6675103,5.56512714 C39.13404,4.89188385 38.338809,4.55526725 37.2817935,4.55526725 C36.2148529,4.55526725 35.4096971,4.89188385 34.8663018,5.56512714 C34.3229065,6.23837043 34.0512129,7.2264249 34.0512129,8.52932019 Z M47.1608197,8.17332641 L48.3964796,8.17332641 C49.2252194,8.17332641 49.8256746,8.02318088 50.1978632,7.72288531 C50.5700518,7.42258975 50.7561433,6.97699655 50.7561433,6.38609237 C50.7561433,5.78550124 50.5551645,5.35443826 50.1532008,5.0928905 C49.7512372,4.83134275 49.1458195,4.70057084 48.3369297,4.70057084 L47.1608197,4.70057084 L47.1608197,8.17332641 Z M47.1608197,9.61183186 L47.1608197,13.8546964 L45.3817672,13.8546964 L45.3817672,3.23300467 L48.4560294,3.23300467 C49.860421,3.23300467 50.9000521,3.4897051 51.574954,4.00311365 C52.249856,4.5165222 52.5873019,5.29146688 52.5873019,6.32797094 C52.5873019,7.65024013 51.8826354,8.59228226 50.4732814,9.15412558 L53.5475436,13.8546964 L51.5228479,13.8546964 L48.9175409,9.61183186 L47.1608197,9.61183186 Z M65.4735966,8.52932019 C65.4735966,10.2584414 65.0306989,11.6024861 64.1448901,12.5614946 C63.2590813,13.520503 62.0048246,14 60.3820825,14 C58.7394903,14 57.47779,13.5241355 56.5969437,12.5723923 C55.7160974,11.6206491 55.2756809,10.2681285 55.2756809,8.51478983 C55.2756809,6.76145119 55.7185786,5.41498481 56.6043874,4.47535029 C57.4901962,3.53571577 58.7543778,3.06590555 60.39697,3.06590555 C62.0147496,3.06590555 63.2652844,3.54298087 64.148612,4.49714582 C65.0319395,5.45131077 65.4735966,6.79535545 65.4735966,8.52932019 Z M57.1663894,8.52932019 C57.1663894,9.83705895 57.4368423,10.828746 57.9777564,11.504411 C58.5186704,12.180076 59.3201044,12.5179035 60.3820825,12.5179035 C61.439098,12.5179035 62.2368102,12.1837086 62.775243,11.5153088 C63.3136758,10.846909 63.5828882,9.85158938 63.5828882,8.52932019 C63.5828882,7.2264249 63.316157,6.23837043 62.7826868,5.56512714 C62.2492165,4.89188385 61.4539855,4.55526725 60.39697,4.55526725 C59.3300294,4.55526725 58.5248735,4.89188385 57.9814782,5.56512714 C57.4380829,6.23837043 57.1663894,7.2264249 57.1663894,8.52932019 Z M74.5486995,3.23300467 L76.3947456,3.23300467 L72.5835537,13.8546964 L70.7077327,13.8546964 L66.9114283,3.23300467 L68.7425869,3.23300467 L71.0129258,9.83705241 C71.1320262,10.1518784 71.2585684,10.5575135 71.3925563,11.0539699 C71.5265442,11.5504263 71.6133868,11.9197359 71.653087,12.1619097 C71.7175996,11.7938055 71.8168484,11.3675859 71.9508363,10.8832382 C72.0848242,10.3988905 72.1939979,10.0404786 72.2783606,9.8079917 L74.5486995,3.23300467 Z M81.591663,8.07887909 L84.167195,3.23300467 L86.1025659,3.23300467 L82.4774674,9.73533991 L82.4774674,13.8546964 L80.6909712,13.8546964 L80.6909712,9.79346134 L77.0807601,3.23300467 L79.016131,3.23300467 L81.591663,8.07887909 Z M80.4304405,2.38297872 L80.4304405,2.20134925 C80.7133038,1.86230586 81.0048471,1.48452033 81.3050793,1.06798132 C81.6053114,0.651442304 81.8422679,0.295452091 82.0159559,0 L84.0480953,0 L84.0480953,0.15256876 C83.7900445,0.448020851 83.4042148,0.829438936 82.8905946,1.29683446 C82.3769744,1.76422998 81.9440015,2.12627445 81.591663,2.38297872 L80.4304405,2.38297872 Z M92.8713022,13.8546964 L92.8713022,3.23300467 L94.6503547,3.23300467 L94.6503547,13.8546964 L92.8713022,13.8546964 Z M107.276119,13.8546964 L105.095105,13.8546964 L99.7430598,5.39076284 L99.6835099,5.39076284 L99.7207286,5.86299948 C99.7902038,6.76388619 99.8249409,7.58726491 99.8249409,8.33316035 L99.8249409,13.8546964 L98.2096506,13.8546964 L98.2096506,3.23300467 L100.368333,3.23300467 L105.705491,11.6533472 L105.750153,11.6533472 C105.740228,11.5419472 105.720378,11.1363121 105.690603,10.4364297 C105.660828,9.73654727 105.645941,9.19045344 105.645941,8.79813181 L105.645941,3.23300467 L107.276119,3.23300467 L107.276119,13.8546964 Z M114.5945,13.8546964 L112.815448,13.8546964 L112.815448,4.72236637 L109.614642,4.72236637 L109.614642,3.23300467 L117.795306,3.23300467 L117.795306,4.72236637 L114.5945,4.72236637 L114.5945,13.8546964 Z M126.304685,13.8546964 L120.148717,13.8546964 L120.148717,3.23300467 L126.304685,3.23300467 L126.304685,4.70057084 L121.92777,4.70057084 L121.92777,7.59211209 L126.029267,7.59211209 L126.029267,9.0451479 L121.92777,9.0451479 L121.92777,12.3798651 L126.304685,12.3798651 L126.304685,13.8546964 Z M131.121972,8.17332641 L132.357632,8.17332641 C133.186372,8.17332641 133.786827,8.02318088 134.159016,7.72288531 C134.531204,7.42258975 134.717296,6.97699655 134.717296,6.38609237 C134.717296,5.78550124 134.516317,5.35443826 134.114353,5.0928905 C133.71239,4.83134275 133.106972,4.70057084 132.298082,4.70057084 L131.121972,4.70057084 L131.121972,8.17332641 Z M131.121972,9.61183186 L131.121972,13.8546964 L129.34292,13.8546964 L129.34292,3.23300467 L132.417182,3.23300467 C133.821573,3.23300467 134.861205,3.4897051 135.536106,4.00311365 C136.211008,4.5165222 136.548454,5.29146688 136.548454,6.32797094 C136.548454,7.65024013 135.843788,8.59228226 134.434434,9.15412558 L137.508696,13.8546964 L135.484,13.8546964 L132.878693,9.61183186 L131.121972,9.61183186 Z M148.83925,13.8546964 L146.658236,13.8546964 L141.306191,5.39076284 L141.246642,5.39076284 L141.28386,5.86299948 C141.353335,6.76388619 141.388073,7.58726491 141.388073,8.33316035 L141.388073,13.8546964 L139.772782,13.8546964 L139.772782,3.23300467 L141.931465,3.23300467 L147.268622,11.6533472 L147.313285,11.6533472 C147.30336,11.5419472 147.28351,11.1363121 147.253735,10.4364297 C147.22396,9.73654727 147.209073,9.19045344 147.209073,8.79813181 L147.209073,3.23300467 L148.83925,3.23300467 L148.83925,13.8546964 Z M158.554514,13.8546964 L152.398546,13.8546964 L152.398546,3.23300467 L158.554514,3.23300467 L158.554514,4.70057084 L154.177599,4.70057084 L154.177599,7.59211209 L158.279096,7.59211209 L158.279096,9.0451479 L154.177599,9.0451479 L154.177599,12.3798651 L158.554514,12.3798651 L158.554514,13.8546964 Z M165.351835,13.8546964 L163.572782,13.8546964 L163.572782,4.72236637 L160.371977,4.72236637 L160.371977,3.23300467 L168.55264,3.23300467 L168.55264,4.72236637 L165.351835,4.72236637 L165.351835,13.8546964 Z M180.262825,8.52932019 C180.262825,10.2584414 179.819927,11.6024861 178.934119,12.5614946 C178.04831,13.520503 176.794053,14 175.171311,14 C173.528719,14 172.267018,13.5241355 171.386172,12.5723923 C170.505326,11.6206491 170.064909,10.2681285 170.064909,8.51478983 C170.064909,6.76145119 170.507807,5.41498481 171.393616,4.47535029 C172.279425,3.53571577 173.543606,3.06590555 175.186198,3.06590555 C176.803978,3.06590555 178.054513,3.54298087 178.93784,4.49714582 C179.821168,5.45131077 180.262825,6.79535545 180.262825,8.52932019 Z M171.955618,8.52932019 C171.955618,9.83705895 172.226071,10.828746 172.766985,11.504411 C173.307899,12.180076 174.109333,12.5179035 175.171311,12.5179035 C176.228327,12.5179035 177.026039,12.1837086 177.564471,11.5153088 C178.102904,10.846909 178.372117,9.85158938 178.372117,8.52932019 C178.372117,7.2264249 178.105386,6.23837043 177.571915,5.56512714 C177.038445,4.89188385 176.243214,4.55526725 175.186198,4.55526725 C174.119258,4.55526725 173.314102,4.89188385 172.770707,5.56512714 C172.227311,6.23837043 171.955618,7.2264249 171.955618,8.52932019 Z M189.337928,3.23300467 L191.183974,3.23300467 L187.372782,13.8546964 L185.496961,13.8546964 L181.700657,3.23300467 L183.531815,3.23300467 L185.802154,9.83705241 C185.921255,10.1518784 186.047797,10.5575135 186.181785,11.0539699 C186.315773,11.5504263 186.402615,11.9197359 186.442315,12.1619097 C186.506828,11.7938055 186.606077,11.3675859 186.740065,10.8832382 C186.874053,10.3988905 186.983226,10.0404786 187.067589,9.8079917 L189.337928,3.23300467 Z M196.380891,8.07887909 L198.956424,3.23300467 L200.891794,3.23300467 L197.266696,9.73533991 L197.266696,13.8546964 L195.4802,13.8546964 L195.4802,9.79346134 L191.869989,3.23300467 L193.805359,3.23300467 L196.380891,8.07887909 Z M195.219669,2.38297872 L195.219669,2.20134925 C195.502532,1.86230586 195.794076,1.48452033 196.094308,1.06798132 C196.39454,0.651442304 196.631496,0.295452091 196.805184,0 L198.837324,0 L198.837324,0.15256876 C198.579273,0.448020851 198.193443,0.829438936 197.679823,1.29683446 C197.166203,1.76422998 196.73323,2.12627445 196.380891,2.38297872 L195.219669,2.38297872 Z M216.511131,8.44213804 C216.511131,10.1954767 216.012405,11.5358888 215.01494,12.4634146 C214.017475,13.3909405 212.580848,13.8546964 210.705018,13.8546964 L207.660531,13.8546964 L207.660531,3.23300467 L211.025099,3.23300467 C212.757016,3.23300467 214.104318,3.68828467 215.067046,4.59885833 C216.029774,5.50943199 216.511131,6.79051241 216.511131,8.44213804 Z M214.63531,8.50025947 C214.63531,5.95743409 213.417031,4.68604048 210.980436,4.68604048 L209.439583,4.68604048 L209.439583,12.3943954 L210.705018,12.3943954 C213.325225,12.3943954 214.63531,11.0963631 214.63531,8.50025947 Z M225.690446,13.8546964 L219.534478,13.8546964 L219.534478,3.23300467 L225.690446,3.23300467 L225.690446,4.70057084 L221.31353,4.70057084 L221.31353,7.59211209 L225.415028,7.59211209 L225.415028,9.0451479 L221.31353,9.0451479 L221.31353,12.3798651 L225.690446,12.3798651 L225.690446,13.8546964 Z M237.795148,13.8546964 L235.614134,13.8546964 L230.262089,5.39076284 L230.20254,5.39076284 L230.239758,5.86299948 C230.309233,6.76388619 230.343971,7.58726491 230.343971,8.33316035 L230.343971,13.8546964 L228.72868,13.8546964 L228.72868,3.23300467 L230.887363,3.23300467 L236.224521,11.6533472 L236.269183,11.6533472 C236.259258,11.5419472 236.239408,11.1363121 236.209633,10.4364297 C236.179858,9.73654727 236.164971,9.19045344 236.164971,8.79813181 L236.164971,3.23300467 L237.795148,3.23300467 L237.795148,13.8546964 Z M241.354444,13.8546964 L241.354444,3.23300467 L243.133497,3.23300467 L243.133497,13.8546964 L241.354444,13.8546964 Z M241.250232,2.38297872 L241.250232,2.20134925 C241.533095,1.86230586 241.824639,1.48452033 242.124871,1.06798132 C242.425103,0.651442304 242.662059,0.295452091 242.835747,0 L244.867887,0 L244.867887,0.15256876 C244.609836,0.448020851 244.224006,0.829438936 243.710386,1.29683446 C243.196766,1.76422998 242.763793,2.12627445 242.411455,2.38297872 L241.250232,2.38297872 Z M255,13.8546964 L252.938086,13.8546964 L249.521412,9.0451479 L248.471845,9.88064349 L248.471845,13.8546964 L246.692793,13.8546964 L246.692793,3.23300467 L248.471845,3.23300467 L248.471845,8.30409964 C248.958172,7.72288241 249.442009,7.16346922 249.923373,6.62584328 L252.863648,3.23300467 L254.888344,3.23300467 C252.987701,5.41256928 251.625511,6.96488034 250.801734,7.88998443 L255,13.8546964 Z" id="path-1"></path>
        <path d="M6.32285581,23.194603 C6.32285581,24.1269723 6.03581731,24.8471692 5.46173171,25.3552154 C4.88764611,25.8632615 4.07221842,26.1172807 3.01542416,26.1172807 L2.35393784,26.1172807 L2.35393784,28.8858329 L0,28.8858329 L0,20.540218 L3.01542416,20.540218 C4.11592044,20.540218 4.94227347,20.7704526 5.49450806,21.2309289 C6.04674265,21.6914052 6.32285581,22.3459567 6.32285581,23.194603 Z M2.35393784,24.2791905 L2.78301005,24.2791905 C3.1365991,24.2791905 3.41767832,24.1840522 3.62625613,23.9937727 C3.83483395,23.8034933 3.93912129,23.5409116 3.93912129,23.2060197 C3.93912129,22.6427925 3.6133475,22.3611832 2.96179014,22.3611832 L2.35393784,22.3611832 L2.35393784,24.2791905 Z M10.9806731,25.8489881 L10.9806731,28.8858329 L8.62673522,28.8858329 L8.62673522,20.540218 L11.4812573,20.540218 C13.8491121,20.540218 15.0330217,21.3622128 15.0330217,23.0062273 C15.0330217,23.9728469 14.5403882,24.7206339 13.5551063,25.2496108 L16.0937836,28.8858329 L13.4240009,28.8858329 L11.5766067,25.8489881 L10.9806731,25.8489881 Z M10.9806731,24.1536066 L11.4216639,24.1536066 C12.2440565,24.1536066 12.6552466,23.8054005 12.6552466,23.1089777 C12.6552466,22.5343337 12.2520022,22.2470161 11.4455013,22.2470161 L10.9806731,22.2470161 L10.9806731,24.1536066 Z M25.9541014,24.7016087 C25.9541014,26.1058711 25.5945584,27.1733228 24.8754616,27.9039958 C24.1563647,28.6346689 23.1035592,29 21.7170133,29 C20.350332,29 19.3024925,28.6327662 18.5734634,27.8982875 C17.8444343,27.1638088 17.4799252,26.0944543 17.4799252,24.690192 C17.4799252,23.301152 17.8424479,22.24036 18.5675041,21.5077841 C19.2925603,20.7752082 20.3463591,20.4089258 21.728932,20.4089258 C23.1154778,20.4089258 24.166297,20.7723541 24.8814209,21.4992216 C25.5965448,22.2260891 25.9541014,23.2935408 25.9541014,24.7016087 Z M19.9590091,24.7016087 C19.9590091,26.3151785 20.5450047,27.1219512 21.7170133,27.1219512 C22.3129499,27.1219512 22.7549296,26.9259663 23.0429656,26.5339907 C23.3310017,26.142015 23.4750175,25.5312271 23.4750175,24.7016087 C23.4750175,23.8681847 23.3290152,23.2526399 23.0370063,22.8549559 C22.7449974,22.4572718 22.308977,22.2584328 21.728932,22.2584328 C20.5489775,22.2584328 19.9590091,23.0728166 19.9590091,24.7016087 Z M40.6808133,24.7016087 C40.6808133,26.1058711 40.3212702,27.1733228 39.6021734,27.9039958 C38.8830766,28.6346689 37.830271,29 36.4437252,29 C35.0770439,29 34.0292044,28.6327662 33.3001753,27.8982875 C32.5711462,27.1638088 32.2066371,26.0944543 32.2066371,24.690192 C32.2066371,23.301152 32.5691597,22.24036 33.2942159,21.5077841 C34.0192721,20.7752082 35.0730709,20.4089258 36.4556438,20.4089258 C37.8421897,20.4089258 38.8930088,20.7723541 39.6081327,21.4992216 C40.3232567,22.2260891 40.6808133,23.2935408 40.6808133,24.7016087 Z M34.685721,24.7016087 C34.685721,26.3151785 35.2717165,27.1219512 36.4437252,27.1219512 C37.0396618,27.1219512 37.4816415,26.9259663 37.7696775,26.5339907 C38.0577135,26.142015 38.2017294,25.5312271 38.2017294,24.7016087 C38.2017294,23.8681847 38.0557271,23.2526399 37.7637182,22.8549559 C37.4717092,22.4572718 37.0356888,22.2584328 36.4556438,22.2584328 C35.2756894,22.2584328 34.685721,23.0728166 34.685721,24.7016087 Z M43.1694321,20.540218 L46.2086936,20.540218 C47.392621,20.540218 48.2716143,20.7086127 48.8456999,21.0454074 C49.4197855,21.382202 49.706824,21.906414 49.706824,22.6180592 C49.706824,23.0861466 49.5816792,23.4857275 49.3313858,23.8168137 C49.0810925,24.1478999 48.7513458,24.3610097 48.342136,24.4561495 L48.342136,24.513233 C48.8824519,24.6502342 49.2737777,24.8785661 49.5161253,25.1982356 C49.7584728,25.5179051 49.8796448,25.9327081 49.8796448,26.442657 C49.8796448,27.1999692 49.5826742,27.7964863 48.988724,28.2322263 C48.3947738,28.6679662 47.5853054,28.8858329 46.5602945,28.8858329 L43.1694321,28.8858329 L43.1694321,20.540218 Z M45.5233699,23.7426051 L46.232531,23.7426051 C46.5702284,23.7426051 46.8314433,23.6760083 47.0161837,23.5428127 C47.200924,23.409617 47.2932928,23.2117294 47.2932928,22.9491437 C47.2932928,22.4810563 46.9238177,22.2470161 46.1848563,22.2470161 L45.5233699,22.2470161 L45.5233699,23.7426051 Z M45.5233699,25.3923197 L45.5233699,27.1447846 L46.3517177,27.1447846 C47.0867062,27.1447846 47.4541949,26.8479531 47.4541949,26.2542813 C47.4541949,25.9764733 47.3558668,25.7633635 47.1592078,25.6149455 C46.9625487,25.4665275 46.6774966,25.3923197 46.304043,25.3923197 L45.5233699,25.3923197 Z M54.6626081,25.8489881 L54.6626081,28.8858329 L52.3086703,28.8858329 L52.3086703,20.540218 L55.1631923,20.540218 C57.5310471,20.540218 58.7149568,21.3622128 58.7149568,23.0062273 C58.7149568,23.9728469 58.2223232,24.7206339 57.2370414,25.2496108 L59.7757186,28.8858329 L57.105936,28.8858329 L55.2585417,25.8489881 L54.6626081,25.8489881 Z M54.6626081,24.1536066 L55.103599,24.1536066 C55.9259915,24.1536066 56.3371816,23.8054005 56.3371816,23.1089777 C56.3371816,22.5343337 55.9339372,22.2470161 55.1274363,22.2470161 L54.6626081,22.2470161 L54.6626081,24.1536066 Z M66.8291891,28.8858329 L66.4001168,27.3217436 L63.5694321,27.3217436 L63.1284412,28.8858329 L60.5420893,28.8858329 L63.3846927,20.5059678 L66.5252629,20.5059678 L69.4036223,28.8858329 L66.8291891,28.8858329 Z M65.9114513,25.4722366 L65.5360131,24.1022314 C65.4486091,23.7977843 65.3423353,23.4039118 65.2171886,22.920602 C65.0920419,22.4372922 65.0096052,22.0909888 64.9698761,21.8816814 C64.9341199,22.0757664 64.8636018,22.3954311 64.7583197,22.840685 C64.6530376,23.2859389 64.4196326,24.163114 64.0580977,25.4722366 L65.9114513,25.4722366 Z M79.5559477,28.8858329 L76.4690115,28.8858329 L73.2867259,23.0062273 L73.2330918,23.0062273 C73.3085771,23.9309854 73.3463192,24.6369116 73.3463192,25.124027 L73.3463192,28.8858329 L71.2605515,28.8858329 L71.2605515,20.540218 L74.3355691,20.540218 L77.505936,26.3399066 L77.541692,26.3399066 C77.4860712,25.4988714 77.4582613,24.8233895 77.4582613,24.3134406 L77.4582613,20.540218 L79.5559477,20.540218 L79.5559477,28.8858329 Z M89.761907,20.540218 L89.761907,25.5635703 C89.761907,26.6557744 89.4391128,27.5015538 88.7935148,28.1009341 C88.1479168,28.7003144 87.2172765,29 86.0015658,29 C84.8136655,29 83.9009029,28.7088768 83.2632508,28.1266217 C82.6255986,27.5443666 82.3067773,26.7071496 82.3067773,25.6149455 L82.3067773,20.540218 L84.6726338,20.540218 L84.6726338,25.4379865 C84.6726338,26.0278528 84.7878465,26.4559751 85.0182753,26.7223664 C85.2487041,26.9887576 85.5883829,27.1219512 86.0373218,27.1219512 C86.518044,27.1219512 86.8666617,26.989709 87.0831853,26.7252206 C87.299709,26.4607321 87.4079692,26.0278529 87.4079692,25.4265698 L87.4079692,20.540218 L89.761907,20.540218 Z M96.5924982,28.8858329 L96.5924982,20.540218 L98.9464361,20.540218 L98.9464361,27.0648677 L102.301542,27.0648677 L102.301542,28.8858329 L96.5924982,28.8858329 Z M104.611381,28.8858329 L104.611381,20.540218 L106.977238,20.540218 L106.977238,28.8858329 L104.611381,28.8858329 Z M109.775742,20.540218 L112.815004,20.540218 C113.998931,20.540218 114.877924,20.7086127 115.45201,21.0454074 C116.026095,21.382202 116.313134,21.906414 116.313134,22.6180592 C116.313134,23.0861466 116.187989,23.4857275 115.937696,23.8168137 C115.687402,24.1478999 115.357656,24.3610097 114.948446,24.4561495 L114.948446,24.513233 C115.488762,24.6502342 115.880088,24.8785661 116.122435,25.1982356 C116.364783,25.5179051 116.485955,25.9327081 116.485955,26.442657 C116.485955,27.1999692 116.188984,27.7964863 115.595034,28.2322263 C115.001084,28.6679662 114.191615,28.8858329 113.166604,28.8858329 L109.775742,28.8858329 L109.775742,20.540218 Z M112.12968,23.7426051 L112.838841,23.7426051 C113.176538,23.7426051 113.437753,23.6760083 113.622494,23.5428127 C113.807234,23.409617 113.899603,23.2117294 113.899603,22.9491437 C113.899603,22.4810563 113.530128,22.2470161 112.791166,22.2470161 L112.12968,22.2470161 L112.12968,23.7426051 Z M112.12968,25.3923197 L112.12968,27.1447846 L112.958028,27.1447846 C113.693016,27.1447846 114.060505,26.8479531 114.060505,26.2542813 C114.060505,25.9764733 113.962177,25.7633635 113.765518,25.6149455 C113.568859,25.4665275 113.283806,25.3923197 112.910353,25.3923197 L112.12968,25.3923197 Z M124.087684,28.8858329 L118.91498,28.8858329 L118.91498,20.540218 L124.087684,20.540218 L124.087684,22.3497665 L121.268918,22.3497665 L121.268918,23.6626881 L123.879107,23.6626881 L123.879107,25.4722366 L121.268918,25.4722366 L121.268918,27.0477426 L124.087684,27.0477426 L124.087684,28.8858329 Z M128.882566,25.8489881 L128.882566,28.8858329 L126.528628,28.8858329 L126.528628,20.540218 L129.38315,20.540218 C131.751005,20.540218 132.934915,21.3622128 132.934915,23.0062273 C132.934915,23.9728469 132.442281,24.7206339 131.456999,25.2496108 L133.995677,28.8858329 L131.325894,28.8858329 L129.4785,25.8489881 L128.882566,25.8489881 Z M128.882566,24.1536066 L129.323557,24.1536066 C130.145949,24.1536066 130.55714,23.8054005 130.55714,23.1089777 C130.55714,22.5343337 130.153895,22.2470161 129.347394,22.2470161 L128.882566,22.2470161 L128.882566,24.1536066 Z M141.049147,28.8858329 L140.620075,27.3217436 L137.78939,27.3217436 L137.348399,28.8858329 L134.762047,28.8858329 L137.604651,20.5059678 L140.745221,20.5059678 L143.62358,28.8858329 L141.049147,28.8858329 Z M140.131409,25.4722366 L139.755971,24.1022314 C139.668567,23.7977843 139.562293,23.4039118 139.437147,22.920602 C139.312,22.4372922 139.229563,22.0909888 139.189834,21.8816814 C139.154078,22.0757664 139.08356,22.3954311 138.978278,22.840685 C138.872996,23.2859389 138.63959,24.163114 138.278056,25.4722366 L140.131409,25.4722366 Z M137.932414,19.8723404 L137.932414,19.7067981 C138.544242,19.0788759 138.932589,18.6735868 139.097464,18.4909185 C139.26234,18.3082503 139.39841,18.1446124 139.505679,18 L142.056275,18 L142.056275,18.1198755 C141.738442,18.3634331 141.301428,18.673584 140.745221,19.0503373 C140.189013,19.4270906 139.767891,19.7010889 139.481842,19.8723404 L137.932414,19.8723404 Z M145.480509,28.8858329 L145.480509,20.540218 L147.834447,20.540218 L147.834447,27.0648677 L151.189554,27.0648677 L151.189554,28.8858329 L145.480509,28.8858329 Z M161.794789,28.8858329 L158.707852,28.8858329 L155.525567,23.0062273 L155.471933,23.0062273 C155.547418,23.9309854 155.58516,24.6369116 155.58516,25.124027 L155.58516,28.8858329 L153.499392,28.8858329 L153.499392,20.540218 L156.57441,20.540218 L159.744777,26.3399066 L159.780533,26.3399066 C159.724912,25.4988714 159.697102,24.8233895 159.697102,24.3134406 L159.697102,20.540218 L161.794789,20.540218 L161.794789,28.8858329 Z M164.593293,28.8858329 L164.593293,20.540218 L166.959149,20.540218 L166.959149,28.8858329 L164.593293,28.8858329 Z M164.581374,19.8723404 L164.581374,19.7067981 C165.193202,19.0788759 165.581549,18.6735868 165.746424,18.4909185 C165.9113,18.3082503 166.04737,18.1446124 166.154639,18 L168.705235,18 L168.705235,18.1198755 C168.387402,18.3634331 167.950388,18.673584 167.394181,19.0503373 C166.837973,19.4270906 166.416851,19.7010889 166.130802,19.8723404 L164.581374,19.8723404 Z M181.238911,24.5360664 C181.238911,25.928912 180.838646,27.002072 180.038105,27.7555786 C179.237563,28.5090852 178.112253,28.8858329 176.662141,28.8858329 L173.843375,28.8858329 L173.843375,20.540218 L176.858799,20.540218 C178.257263,20.540218 179.336886,20.8827158 180.097698,21.5677218 C180.85851,22.2527279 181.238911,23.2421662 181.238911,24.5360664 Z M178.795583,24.6159834 C178.795583,23.85106 178.637662,23.2840357 178.321816,22.9148936 C178.005969,22.5457515 177.526248,22.3611832 176.882636,22.3611832 L176.197312,22.3611832 L176.197312,27.0363259 L176.721734,27.0363259 C177.436858,27.0363259 177.961274,26.8374869 178.294999,26.4398028 C178.628723,26.0421188 178.795583,25.434185 178.795583,24.6159834 Z M188.12552,28.8858329 L182.952816,28.8858329 L182.952816,20.540218 L188.12552,20.540218 L188.12552,22.3497665 L185.306754,22.3497665 L185.306754,23.6626881 L187.916943,23.6626881 L187.916943,25.4722366 L185.306754,25.4722366 L185.306754,27.0477426 L188.12552,27.0477426 L188.12552,28.8858329 Z M193.599766,28.8858329 L191.817925,22.8749351 L191.764291,22.8749351 C191.847722,23.8986386 191.889437,24.6939947 191.889437,25.2610275 L191.889437,28.8858329 L189.803669,28.8858329 L189.803669,20.540218 L192.93828,20.540218 L194.755878,26.4654904 L194.803552,26.4654904 L196.585394,20.540218 L199.725964,20.540218 L199.725964,28.8858329 L197.562725,28.8858329 L197.562725,25.2267774 C197.562725,25.0364979 197.565705,24.8252909 197.571664,24.59315 C197.577623,24.361009 197.60444,23.792082 197.652115,22.8863518 L197.598481,22.8863518 L195.840477,28.8858329 L193.599766,28.8858329 Z M209.908086,24.7016087 C209.908086,26.1058711 209.548543,27.1733228 208.829446,27.9039958 C208.110349,28.6346689 207.057544,29 205.670998,29 C204.304317,29 203.256477,28.6327662 202.527448,27.8982875 C201.798419,27.1638088 201.43391,26.0944543 201.43391,24.690192 C201.43391,23.301152 201.796432,22.24036 202.521489,21.5077841 C203.246545,20.7752082 204.300344,20.4089258 205.682917,20.4089258 C207.069462,20.4089258 208.120282,20.7723541 208.835405,21.4992216 C209.550529,22.2260891 209.908086,23.2935408 209.908086,24.7016087 Z M203.912994,24.7016087 C203.912994,26.3151785 204.498989,27.1219512 205.670998,27.1219512 C206.266935,27.1219512 206.708914,26.9259663 206.99695,26.5339907 C207.284986,26.142015 207.429002,25.5312271 207.429002,24.7016087 C207.429002,23.8681847 207.283,23.2526399 206.990991,22.8549559 C206.698982,22.4572718 206.262962,22.2584328 205.682917,22.2584328 C204.502962,22.2584328 203.912994,23.0728166 203.912994,24.7016087 Z M219.077121,28.8858329 L216.419257,28.8858329 L214.697009,25.6948625 L213.999766,26.0944473 L213.999766,28.8858329 L211.63391,28.8858329 L211.63391,20.540218 L213.999766,20.540218 L213.999766,24.1650234 C214.118954,23.9404936 214.359311,23.5846764 214.720846,23.097561 L216.550362,20.540218 L219.124796,20.540218 L216.377541,24.2791905 L219.077121,28.8858329 Z M222.525193,25.8489881 L222.525193,28.8858329 L220.171255,28.8858329 L220.171255,20.540218 L223.025777,20.540218 C225.393632,20.540218 226.577541,21.3622128 226.577541,23.0062273 C226.577541,23.9728469 226.084908,24.7206339 225.099626,25.2496108 L227.638303,28.8858329 L224.968521,28.8858329 L223.121126,25.8489881 L222.525193,25.8489881 Z M222.525193,24.1536066 L222.966184,24.1536066 C223.788576,24.1536066 224.199766,23.8054005 224.199766,23.1089777 C224.199766,22.5343337 223.796522,22.2470161 222.990021,22.2470161 L222.525193,22.2470161 L222.525193,24.1536066 Z M233.928979,28.8858329 L233.499907,27.3217436 L230.669222,27.3217436 L230.228231,28.8858329 L227.641879,28.8858329 L230.484482,20.5059678 L233.625053,20.5059678 L236.503412,28.8858329 L233.928979,28.8858329 Z M233.011241,25.4722366 L232.635803,24.1022314 C232.548399,23.7977843 232.442125,23.4039118 232.316978,22.920602 C232.191832,22.4372922 232.109395,22.0909888 232.069666,21.8816814 C232.03391,22.0757664 231.963392,22.3954311 231.858109,22.840685 C231.752827,23.2859389 231.519422,24.163114 231.157887,25.4722366 L233.011241,25.4722366 Z M241.232741,22.2698495 C240.672561,22.2698495 240.235547,22.489619 239.921687,22.9291645 C239.607827,23.36871 239.4509,23.974741 239.4509,24.7472756 C239.4509,26.3532341 240.088542,27.1562013 241.363847,27.1562013 C241.749219,27.1562013 242.122667,27.1048267 242.484202,27.0020758 C242.845737,26.8993249 243.209253,26.7756451 243.57476,26.6310327 L243.57476,28.5376232 C242.847718,28.845876 242.025338,29 241.107595,29 C239.792562,29 238.784451,28.6346689 238.083232,27.9039958 C237.382013,27.1733228 237.031409,26.1172877 237.031409,24.7358588 C237.031409,23.8719901 237.201249,23.1127865 237.540932,22.4582252 C237.880616,21.8036639 238.369277,21.3003823 239.006929,20.9483653 C239.644581,20.5963484 240.394457,20.4203425 241.256579,20.4203425 C242.198158,20.4203425 243.098009,20.6163274 243.956158,21.0083031 L243.235078,22.7836015 C242.913273,22.6389891 242.591472,22.517212 242.269666,22.4182667 C241.94786,22.3193214 241.602222,22.2698495 241.232741,22.2698495 Z M245.42573,28.8858329 L245.42573,20.540218 L247.791587,20.540218 L247.791587,28.8858329 L245.42573,28.8858329 Z M255,28.8858329 L249.827296,28.8858329 L249.827296,20.540218 L255,20.540218 L255,22.3497665 L252.181234,22.3497665 L252.181234,23.6626881 L254.791423,23.6626881 L254.791423,25.4722366 L252.181234,25.4722366 L252.181234,27.0477426 L255,27.0477426 L255,28.8858329 Z" id="path-2"></path>
    </defs>
    <g id="Page-1" stroke="none" stroke-width="1" fill="none" fill-rule="evenodd">
        <g id="logo_s_popisem" fill-rule="nonzero">
            <g id="text" transform="translate(7.000000, 74.000000)" fill="#000000">
                <g id="Group">
                    <g id="NÁZOROVÝINTERNETOVÝDENÍK">
                        <use xlink:href="#path-1"></use>
                        <use xlink:href="#path-1"></use>
                    </g>
                    <g id="PROOBRANULIBERÁLNÍDEMOKRACIE">
                        <use xlink:href="#path-2"></use>
                        <use xlink:href="#path-2"></use>
                    </g>
                </g>
            </g>
            <g id="logo">
                <polygon id="Fill-1" fill="#1A1918" points="191.292213 65.4623377 270.468558 65.4623377 270.468558 0.268184416 191.292213 0.268184416"></polygon>
                <polygon id="Fill-2" fill="#BA262C" points="0 65.4623377 191.828582 65.4623377 191.828582 0.268184416 0 0.268184416"></polygon>
                <polyline id="Fill-3" fill="#FFFFFF" points="18.0401532 16.8336753 37.9498545 16.8336753 37.9498545 23.9711818 26.6755506 23.9711818 26.6755506 29.6072779 37.3121247 29.6072779 37.3121247 36.5610675 26.6755506 36.5610675 26.6755506 49.3339662 18.0401532 49.3339662 18.0401532 16.8336753"></polyline>
                <path d="M63.1760831,41.4249896 C64.477587,40.5767948 65.4862701,39.4259247 66.1965013,37.9702675 C66.9088442,36.5153143 67.2643117,34.9104312 67.2643117,33.1528026 C67.2643117,31.3958779 66.9011013,29.789587 66.1746805,28.3346338 C65.4489636,26.8796805 64.4318338,25.7295143 63.129626,24.8806156 C61.8246026,24.0331247 60.3724649,23.6079714 58.766174,23.6079714 C57.1310234,23.6079714 55.6676234,24.0331247 54.3787896,24.8806156 C53.0927714,25.7295143 52.0840883,26.8796805 51.3576675,28.3346338 C50.6284312,29.789587 50.2652208,31.3958779 50.2652208,33.1528026 C50.2652208,34.9414026 50.6150571,36.5610675 51.3119143,38.0160208 C52.0087714,39.4702701 53.0012649,40.6148052 54.2893948,41.4475143 C55.5761169,42.2809273 57.0690805,42.6969299 58.766174,42.6969299 C60.4020286,42.6969299 61.8703558,42.2738883 63.1760831,41.4249896 L63.1760831,41.4249896 Z M52.9477688,49.1748857 C51.0402104,48.4935143 49.2973636,47.5312883 47.7206364,46.2889117 C45.6891922,44.6530571 44.1293584,42.7053766 43.0397273,40.4479818 C41.9472805,38.1912909 41.4038727,35.7593299 41.4038727,33.1528026 C41.4038727,30.8496545 41.8346571,28.6682805 42.6983377,26.6072727 C43.5613143,24.5469688 44.8262156,22.7147273 46.4937455,21.1070286 C48.1296,19.5028494 50.0153377,18.2661039 52.1509584,17.4031273 C54.2893948,16.5394468 56.4932935,16.1079584 58.766174,16.1079584 C61.0390545,16.1079584 63.2506961,16.5478935 65.4025065,17.4256519 C67.5522052,18.3055221 69.4463896,19.532413 71.0843558,21.1070286 C72.7202104,22.7147273 73.9710338,24.5469688 74.8347143,26.6072727 C75.6983948,28.6682805 76.1284753,30.8496545 76.1284753,33.1528026 C76.1284753,35.4552468 75.6983948,37.6373247 74.8347143,39.6969247 C73.9710338,41.7579325 72.7202104,43.5915818 71.0843558,45.1978727 C69.4463896,46.8048675 67.5522052,48.0380935 65.4025065,48.9024779 C63.2506961,49.7654545 61.0390545,50.1976468 58.766174,50.1976468 C56.7973766,50.1976468 54.857439,49.8555532 52.9477688,49.1748857 L52.9477688,49.1748857 Z" id="Fill-4" fill="#FFFFFF"></path>
                <path d="M91.6261558,32.1976156 C93.5062623,32.1976156 94.8922338,31.8801584 95.7854779,31.2438364 C96.6808338,30.6075143 97.1278078,29.5777143 97.1278078,28.1530286 C97.1278078,27.032426 96.9363481,26.1462208 96.5597636,25.4937091 C96.1810675,24.8426052 95.6052805,24.3731065 94.8331065,24.0838052 C94.0581169,23.7966156 93.0360597,23.6537247 91.7641195,23.6537247 L89.9903013,23.6537247 L89.9903013,32.1976156 L91.6261558,32.1976156 L91.6261558,32.1976156 Z M81.6730649,16.8336753 L91.4917117,16.8336753 C93.3697065,16.8336753 94.8788597,16.8730935 96.0142442,16.9484104 C97.1489247,17.0251351 98.2484104,17.2215221 99.3105896,17.5389792 C100.370657,17.8578442 101.339218,18.3512753 102.218384,19.0157532 C103.399522,19.925187 104.300509,21.063387 104.922049,22.425426 C105.54359,23.7895766 105.855416,25.3050649 105.855416,26.9704831 C105.855416,29.4862078 105.233875,31.5317299 103.991499,33.1063455 C102.748418,34.6837766 100.946444,35.7283584 98.5813532,36.2436104 L107.445517,49.3339662 L97.4466727,49.3339662 L89.9903013,36.6068208 L89.9903013,49.3339662 L81.6730649,49.3339662 L81.6730649,16.8336753 L81.6730649,16.8336753 Z" id="Fill-5" fill="#FFFFFF"></path>
                <path d="M118.057455,49.220639 C116.13441,48.5695351 114.596397,47.5770416 113.444823,46.2424545 C112.626896,45.3034571 112.013099,44.2504286 111.604839,43.0847766 C111.195875,41.917013 110.929099,40.6683013 110.808029,39.3344182 C110.687662,37.9998312 110.628535,36.3498987 110.628535,34.3789896 L110.628535,16.8336753 L119.444834,16.8336753 L119.444834,34.4704961 C119.444834,36.5012364 119.603914,38.1082312 119.920668,39.2886649 C120.238125,40.4698026 120.800538,41.341226 121.601571,41.9022312 C122.406125,42.4632364 123.56333,42.743387 125.080226,42.743387 C126.837151,42.743387 128.109091,42.3794727 128.898158,41.6523481 C129.685818,40.9245195 130.186288,39.8869766 130.398161,38.5383117 C130.608626,37.1903506 130.716322,35.1525714 130.716322,32.4256779 L130.716322,16.8336753 L139.534732,16.8336753 L139.534732,36.1514 C139.534732,39.4554883 139.042709,42.1373325 138.057255,44.1983403 C137.070392,46.2593481 135.526748,47.7734286 133.419283,48.7419896 C131.313226,49.7126623 128.534244,50.1976468 125.080226,50.1976468 C122.323065,50.1976468 119.98261,49.8717429 118.057455,49.220639" id="Fill-6" fill="#FFFFFF"></path>
                <path d="M149.081675,16.8336753 L157.851517,16.8336753 L162.761192,33.6068156 C162.944205,34.1833065 163.132145,34.8498961 163.329236,35.6072883 C163.525623,36.3646805 163.686112,37.1692338 163.807182,38.0160208 C163.988083,36.6518701 164.32173,35.1673532 164.805306,33.5617662 L169.760735,16.8336753 L178.533392,16.8336753 L183.534574,49.3339662 L175.259571,49.3339662 L173.352717,35.2884234 C173.077494,33.319626 172.852247,30.8954078 172.669234,28.0171766 C172.517896,29.0476805 172.322213,30.0232805 172.079369,30.9482 C171.835117,31.8717117 171.63873,32.5692727 171.488096,33.0387714 C171.337462,33.5082701 171.229766,33.8651455 171.170639,34.1072857 L166.762138,49.3339662 L160.851522,49.3339662 L156.444429,34.1072857 C156.382486,33.8651455 156.24593,33.4026857 156.035465,32.7206104 C155.823592,32.039239 155.626501,31.2959247 155.443488,30.4927792 C155.261179,29.6903377 155.094356,28.8646675 154.943722,28.0171766 C154.793088,30.501226 154.550948,32.9247403 154.217301,35.2884234 L152.306927,49.3339662 L144.081197,49.3339662 L149.081675,16.8336753" id="Fill-7" fill="#FFFFFF"></path>
                <path d="M226.674958,49.3283351 L200.508325,49.3283351 L208.570047,40.9660494 C210.695813,38.7537039 212.364047,36.8785247 213.569117,35.3405117 C214.776299,33.8039065 215.675174,32.5031065 216.264335,31.4402234 C216.850681,30.3773403 217.218818,29.5157714 217.364525,28.8534052 C217.506712,28.1931506 217.579917,27.6321455 217.579917,27.1725013 C217.579917,26.6839974 217.498969,26.2102753 217.340592,25.7506312 C217.183623,25.290987 216.945003,24.8820234 216.629657,24.5209247 C216.3122,24.1633455 215.933504,23.8754519 215.48653,23.6600597 C215.042371,23.4439636 214.517969,23.3355636 213.916138,23.3355636 C212.764564,23.3355636 211.866392,23.7100364 211.220216,24.4561662 C210.571927,25.2044078 210.251655,26.137774 210.251655,27.2583766 C210.251655,27.574426 210.294592,28.0340701 210.377652,28.6387169 L201.156613,28.6387169 C201.156613,26.7403091 201.462808,25.0171714 202.081532,23.4650805 C202.700257,21.9143974 203.569569,20.5769948 204.690875,19.4556883 C205.81007,18.3364935 207.139026,17.472813 208.677743,16.8702779 C210.214348,16.2663351 211.902995,15.9650675 213.740868,15.9650675 C215.554104,15.9650675 217.227265,16.252961 218.76387,16.8273403 C220.301883,17.4031273 221.631543,18.2055688 222.750738,19.2402961 C223.872044,20.2764312 224.748395,21.504026 225.381197,22.9258961 C226.013296,24.349174 226.328642,25.894226 226.328642,27.5610519 C226.328642,29.3419091 225.946426,30.9862104 225.187626,32.4946597 C224.42601,34.0045169 223.210382,35.5495688 221.542148,37.1298156 L216.154527,42.1725273 L226.674958,42.1725273 L226.674958,49.3283351" id="Fill-8" fill="#FFFFFF"></path>
                <path d="M245.640735,36.1816675 L245.640735,23.3792052 L238.180844,36.1816675 L245.640735,36.1816675 L245.640735,36.1816675 Z M253.485657,36.1816675 L257.407062,36.1816675 L257.407062,42.6476571 L253.485657,42.6476571 L253.485657,49.3283351 L245.640735,49.3283351 L245.640735,42.6476571 L229.948779,42.6476571 L229.948779,37.2156909 L242.364099,16.8273403 L253.485657,16.8273403 L253.485657,36.1816675 L253.485657,36.1816675 Z" id="Fill-9" fill="#FFFFFF"></path>
            </g>
        </g>
    </g>
</svg>
