<svg xmlns="http://www.w3.org/2000/svg" width="37" height="18"><path fill-rule="evenodd" fill="#9B9B9B" d="M36.374 12.146h-4.367a2.347 2.347 0 01-.301-.056.206.206 0 00-.15.018 4.505 4.505 0 00-.437.479 19.443 19.443 0 00-1.56 2.513.899.899 0 00-.113.47c.02.485.02.971.038 1.457a.8.8 0 01-.434.765 1.622 1.622 0 01-1.739-.094.973.973 0 01-.267-.391 22.238 22.238 0 01-.517-1.351 2.871 2.871 0 01-.063-1.53c.078-.388.135-.779.203-1.169.022-.132.018-.147-.12-.147H23.3a1.407 1.407 0 01-.752-.176 1.111 1.111 0 01-.5-.702c-.012-.045-.027-.089-.041-.133v-.4l-.007.007c.023-.094.054-.186.092-.275.084-.162.184-.317.272-.478a.207.207 0 00.033-.147c-.223-.547-.097-1.032.246-1.49a.158.158 0 00.035-.18c-.209-.5-.094-.96.195-1.392a.342.342 0 00.07-.319c-.138-.559-.054-1.09.376-1.531.202-.206.465-.343.751-.393.254-.049.512-.076.771-.08h5.71c.345.007.68.114.963.307a.36.36 0 00.285.071c0-.093.011-.181.023-.27A.595.595 0 0132.373 5a1.43 1.43 0 01.131 0h3.8a.64.64 0 01.694.577l.002.041v5.83a.663.663 0 01-.626.698zm-2.001-.745V5.737a.11.11 0 00-.079-.138.115.115 0 00-.061 0h-1.51c-.15 0-.15 0-.15.154v5.762l-.004.006c.048 0 .084.007.118.007h1.558a.104.104 0 00.128-.07.092.092 0 000-.057zM14.636 7.045a.208.208 0 00-.033.148c.223.546.096 1.031-.246 1.49a.158.158 0 00-.035.18c.209.5.093.959-.195 1.391a.345.345 0 00-.071.32c.138.558.054 1.089-.375 1.531a1.39 1.39 0 01-.752.392 4.422 4.422 0 01-.77.081h-5.71a1.766 1.766 0 01-.963-.307.367.367 0 00-.286-.072c0 .093-.01.181-.022.271a.595.595 0 01-.551.528.954.954 0 01-.131 0h-3.8A.64.64 0 010 12.38V6.552a.664.664 0 01.626-.699c.026-.001 2.052-.002 2.077 0h2.29c.101.013.202.031.301.056.05.013.104.006.15-.018.157-.149.303-.309.437-.479a19.553 19.553 0 001.56-2.513.886.886 0 00.112-.47c-.019-.485-.019-.971-.037-1.457A.8.8 0 017.95.206 1.624 1.624 0 019.688.3a.972.972 0 01.268.393c.185.442.36.894.517 1.35.159.495.181 1.023.063 1.53-.078.387-.135.779-.203 1.169-.022.132-.018.147.12.147H13.7a1.41 1.41 0 01.751.175c.256.159.436.411.501.702.012.046.027.09.04.134v.4L15 6.292a1.824 1.824 0 01-.092.276c-.084.162-.185.316-.272.477zM4.312 6.471H2.754a.103.103 0 00-.128.069.1.1 0 00.001.057v5.664a.112.112 0 00.079.139.106.106 0 00.061 0h1.509c.151 0 .151 0 .151-.155V6.483l.004-.005c-.048 0-.084-.007-.119-.007z"/></svg>