<svg width="476" height="77" viewBox="0 0 476 77" fill="none" xmlns="http://www.w3.org/2000/svg">
<path d="M43.849 75.9999L32.8155 75.9999L0.923935 1.1831L13.7713 1.1831L38.4078 59.7945L63.0445 1.1831L75.7407 1.18311L43.849 75.9999Z" fill="#222222"/>
<path d="M43.849 75.9999L32.8155 75.9999L0.923933 1.1831L13.7713 1.1831L38.4078 59.7945L63.0445 1.1831L75.7407 1.18311L43.849 75.9999Z" stroke="#222222" stroke-width="0.87" stroke-miterlimit="10"/>
<path d="M134.855 75.9999L80.3588 75.9999L80.3588 1.1831L133.485 1.18311L133.485 12.0018L92.08 12.0018L92.08 30.7442L125.874 30.7442L125.874 41.5629L92.08 41.5629L92.08 65.1812L134.855 65.1812L134.855 75.9999Z" fill="#222222"/>
<path d="M134.855 75.9999L80.3588 75.9999L80.3588 1.1831L133.485 1.18311L133.485 12.0018L92.08 12.0018L92.08 30.7442L125.874 30.7442L125.874 41.5629L92.08 41.5629L92.08 65.1812L134.855 65.1812L134.855 75.9999Z" stroke="#222222" stroke-width="0.87" stroke-miterlimit="10"/>
<path d="M152.929 75.9999L141.321 75.9999L141.321 1.1831L175.091 1.1831C182.779 1.1831 188.659 3.16404 193.031 7.12582C197.403 11.0876 199.664 16.2684 199.664 22.5158C199.664 27.6966 198.308 32.1154 195.443 35.7725C192.579 39.4295 188.659 41.8676 183.684 43.0866L206.901 75.9999L192.88 75.9999L170.568 44.3055L153.231 44.3055L153.231 75.9999L152.929 75.9999ZM152.929 12.0018L152.929 34.0964L174.337 34.0964C178.558 34.0964 181.875 33.1821 184.287 31.2012C186.699 29.2203 187.905 26.4775 187.905 22.9728C187.905 19.6205 186.699 16.8779 184.287 14.897C181.875 12.9161 178.558 12.0018 174.337 12.0018L152.929 12.0018Z" fill="#222222"/>
<path d="M152.929 75.9999L141.321 75.9999L141.321 1.1831L175.091 1.1831C182.779 1.1831 188.659 3.16404 193.031 7.12582C197.403 11.0876 199.664 16.2684 199.664 22.5158C199.664 27.6966 198.308 32.1154 195.443 35.7725C192.579 39.4295 188.659 41.8676 183.684 43.0866L206.901 75.9999L192.88 75.9999L170.568 44.3055L153.231 44.3055L153.231 75.9999L152.929 75.9999ZM152.929 12.0018L152.929 34.0964L174.337 34.0964C178.558 34.0964 181.875 33.1821 184.287 31.2012C186.699 29.2203 187.905 26.4775 187.905 22.9728C187.905 19.6205 186.699 16.8779 184.287 14.897C181.875 12.9161 178.558 12.0018 174.337 12.0018L152.929 12.0018V12.0018Z" stroke="#222222" stroke-width="0.87" stroke-miterlimit="10"/>
<path d="M223.247 75.9999L211.519 75.9999L211.519 1.1831L223.4 1.1831L247.77 34.8583L271.837 1.1831L283.565 1.18311L283.565 75.9999L271.837 75.9999L271.837 19.1634L250.969 47.353L244.115 47.353L223.247 19.1634L223.247 75.9999Z" fill="#222222"/>
<path d="M223.247 75.9999L211.519 75.9999L211.519 1.1831L223.4 1.1831L247.77 34.8583L271.837 1.1831L283.565 1.18311L283.565 75.9999L271.837 75.9999L271.837 19.1634L250.969 47.353L244.115 47.353L223.247 19.1634L223.247 75.9999Z" stroke="#222222" stroke-width="0.87" stroke-miterlimit="10"/>
<path d="M306.656 75.9999L306.656 1.18311L294.649 1.1831L294.649 75.9999L306.656 75.9999Z" fill="#222222"/>
<path d="M306.656 75.9999L306.656 1.18311L294.649 1.1831L294.649 75.9999L306.656 75.9999Z" stroke="#222222" stroke-width="0.87" stroke-miterlimit="10"/>
<path d="M324.633 75.9999L311.275 75.9999L340.393 35.4678L315.777 1.1831L329.586 1.1831L347.297 26.0203L365.159 1.1831L378.667 1.18311L354.052 35.3155L383.32 75.9999L369.512 75.9999L347.147 44.9151L324.633 75.9999Z" fill="#222222"/>
<path d="M324.633 75.9999L311.275 75.9999L340.393 35.4678L315.777 1.1831L329.586 1.1831L347.297 26.0203L365.159 1.1831L378.667 1.18311L354.052 35.3155L383.32 75.9999L369.512 75.9999L347.147 44.9151L324.633 75.9999Z" stroke="#222222" stroke-width="0.87" stroke-miterlimit="10"/>
<path d="M399.023 75.9999L399.023 1.18311L387.939 1.1831L387.939 75.9999L399.023 75.9999Z" fill="#222222"/>
<path d="M399.023 75.9999L399.023 1.18311L387.939 1.1831L387.939 75.9999L399.023 75.9999Z" stroke="#222222" stroke-width="0.87" stroke-miterlimit="10"/>
<path d="M422.563 75.9999L411.03 75.9999L411.03 1.1831L421.197 1.1831L463.231 55.4291L463.231 1.1831L474.763 1.18311L474.763 75.9999L464.9 75.9999L422.563 21.6016L422.563 75.9999Z" fill="#222222"/>
<path d="M422.563 75.9999L411.03 75.9999L411.03 1.1831L421.197 1.1831L463.231 55.4291L463.231 1.1831L474.763 1.18311L474.763 75.9999L464.9 75.9999L422.563 21.6016L422.563 75.9999Z" stroke="#222222" stroke-width="0.87" stroke-miterlimit="10"/>
</svg>
