<svg width="389" height="991" viewBox="0 0 389 991" fill="none" xmlns="http://www.w3.org/2000/svg">
<path opacity="0.5" d="M-454.137 8.50708C-454.137 8.50708 -402.41 102.799 -351.436 146.6C-285.204 203.512 -200.714 168.781 -147.298 237.863C-89.0757 313.162 -182.146 408.862 -118.824 479.926C-62.2688 543.396 25.7639 488.3 88.8021 545.337C148.597 599.439 118.216 675.512 174.612 733.149C236.083 795.973 344.158 744.344 380.33 824.451C412.162 894.945 340.563 1018.48 340.563 1018.48" stroke="#999999"/>
<path opacity="0.5" d="M-434.778 0.591797C-434.778 0.591797 -386.69 96.7903 -337.425 142.506C-273.415 201.905 -187.66 170.425 -136.921 241.497C-81.6161 318.965 -178.273 411.04 -117.711 484.471C-63.6202 550.054 26.4521 498.36 87.2665 557.762C144.952 614.108 111.688 688.965 165.842 748.713C224.869 813.839 334.837 766.375 367.924 847.804C397.041 919.462 320.777 1040.17 320.777 1040.17" stroke="#999999"/>
</svg>