<svg id="Слой_1" xmlns="http://www.w3.org/2000/svg" viewBox="0 0 100 100"><style>.st0{fill:#0a89b3}</style><path class="st0" d="M45.8 26.5H84c.8.0 1.5-.7 1.5-1.5s-.7-1.5-1.5-1.5H45.8c-.8.0-1.5.7-1.5 1.5.0.9.7 1.5 1.5 1.5zm0-9H84c.8.0 1.5-.7 1.5-1.5s-.7-1.5-1.5-1.5H45.8c-.8.0-1.5.7-1.5 1.5.0.9.7 1.5 1.5 1.5z"/><path class="st0" d="M98.6 1.8c0-1-.8-1.8-1.8-1.8H33.2c-1.1.0-2 .9-2 2v15.5c-8.7 2.2-16 7.6-20.8 15.3-.8 1.2-1 2.7-.7 4.1.3 1 .8 1.8 1.5 2.5-1.3 3.6-2.1 7.4-2.1 11.2v.6c-4.5 1.3-7.7 5.4-7.7 10.3V73c0 5.1 3.6 9.4 8.4 10.5 2.1 8.9 9.2 14.2 21.3 15.8.6.5 1.4.7 2.3.7h6.3c2.1.0 3.9-1.5 4.1-3.6.2-2.4-1.6-4.4-4-4.4h-6.5c-2.2.0-4 1.8-4 4v.1c-8-1.4-13.2-4.7-15.6-10h3.7c2.5.0 4.6-2 4.6-4.6V53.2c0-2.5-2-4.6-4.6-4.6h-3.5c-.7.0-1.3.1-1.8.4.2-2.8.8-5.6 1.8-8.3.3.0.6.1.9.1.4.0.8.0 1.2-.2 1.3-.3 2.5-1.2 3.2-2.3 2.8-4.6 7-8.1 12-10V39c0 1.1.9 2 2 2h10v11.4c0 1 1.3 1.6 2 .8L57.4 41h18.9c.9 2.5 1.5 5.1 1.6 7.8-.5-.2-1-.3-1.5-.3H73c-2.5.0-4.6 2-4.6 4.6v28.4c0 2.5 2 4.6 4.6 4.6h3.5c1.7.0 3.3-1 4-2.4 4.8-1 8.5-5.3 8.5-10.5V61.7c0-5-3.4-9.1-8-10.4v-.8c0-3.3-.5-6.5-1.5-9.5h17.1c1.1.0 2-.9 2-2V1.8zM4.3 73V61.5c0-3.2 2-6 4.8-7.2v23.3c0 .9.0 1.8.1 2.6-2.8-1.1-4.9-3.9-4.9-7.2zm29.1 21.9h6.5c.6.0 1.1.5 1.1 1.1s-.5 1.1-1.1 1.1h-6.5c-.6.0-1.1-.5-1.1-1.1s.5-1.1 1.1-1.1zM12.3 53.2c0-.9.7-1.7 1.7-1.7h3.5c.9.0 1.7.7 1.7 1.7v28.4c0 .9-.7 1.7-1.7 1.7H14c-.6.0-1.1-.3-1.4-.7-.1-.5-.2-1.1-.3-1.6V53.2zm18.9-27.9c-6 2-11.2 6-14.5 11.6-.3.5-.8.9-1.4 1s-1.2.1-1.7-.3c-.5-.3-.9-.8-1-1.4s-.1-1.2.3-1.7c4.2-7 10.7-11.9 18.4-14v4.8zm49.9 29.1c2.9 1.1 5 4 5 7.3v11.5c0 3.3-2.1 6.2-5 7.3V54.4zm-2.9 27.2c0 .9-.7 1.7-1.7 1.7H73c-.9.0-1.7-.7-1.7-1.7V53.2c0-.9.7-1.7 1.7-1.7h3.5c.8.0 1.4.5 1.6 1.3v24.9h.1v3.9zm17.5-45.4c0 1.1-.9 2-2 2H56.2l-8.1 8.1c-.7.7-2 .2-2-.8v-7.3h-10c-1.1.0-2-.9-2-2V4.9c0-1.1.9-2 2-2h57.6c1.1.0 2 .9 2 2v31.3z"/></svg>