<svg id="Слой_1" xmlns="http://www.w3.org/2000/svg" viewBox="0 0 100 100"><style>.st0{fill:#0a89b3}</style><path class="st0" d="M78.3.0C66.9.0 57.6 8.8 56.8 20H50v-1.7c0-.9-.7-1.7-1.7-1.7H31.7c-.9.0-1.7.7-1.7 1.7V20H8.3C3.7 20 0 23.7.0 28.3v63.3c0 4.6 3.7 8.3 8.3 8.3h63.4c4.6.0 8.3-3.7 8.3-8.3V43.2c11.2-.9 20-10.2 20-21.6C1e2 9.7 90.3.0 78.3.0zm-45 21.7V20h13.3v18.2L41 33.7c-.3-.2-.7-.4-1-.4s-.7.1-1 .4l-5.6 4.5V21.7zm43.4 70c0 2.8-2.2 5-5 5H8.3c-2.8.0-4.9-2.2-4.9-5V28.3c0-2.8 2.2-5 4.9-5H30v15.2c0 1.2.7 2.3 1.8 2.9.4.2.9.3 1.4.3.7.0 1.4-.2 2-.7l4.8-3.9 4.8 3.9c1 .8 2.2.9 3.4.4 1.1-.5 1.8-1.6 1.8-2.9V23.3h6.7v.3c0 .3.1.6.1.9.1.4.1.8.2 1.2.1.3.1.6.2.9.1.4.2.8.3 1.1.1.3.2.6.3.8.1.4.3.7.4 1.1.1.3.2.5.3.8.2.4.3.7.5 1 .1.3.3.5.4.8.2.3.4.7.6 1 .1.2.3.5.4.7.2.4.5.7.8 1 .1.2.3.4.4.6.4.5.8.9 1.2 1.4l.2.2c.4.4.9.9 1.4 1.2.2.2.4.3.6.4.3.3.7.5 1 .8.2.2.5.3.7.4.3.2.7.4 1 .6.2.1.5.3.8.4.3.2.7.3 1 .5.3.1.5.2.8.3.4.1.7.3 1.1.4.3.1.6.2.8.3.4.1.8.2 1.1.3.3.1.6.1.9.2.4.1.8.1 1.2.2.3.0.6.1.9.1h.3v48.5zM78.3 40C68.2 40 60 31.8 60 21.7S68.2 3.3 78.3 3.3s18.3 8.2 18.3 18.3S88.4 40 78.3 40z"/><path class="st0" d="M86.7 20H80V8.3c0-.9-.7-1.7-1.7-1.7-.9.0-1.7.7-1.7 1.7v13.3c0 .9.7 1.7 1.7 1.7h8.3c.9.0 1.7-.7 1.7-1.7.0-.9-.7-1.6-1.6-1.6zM35 70H11.7c-.9.0-1.7.7-1.7 1.7v20c0 .9.7 1.7 1.7 1.7H35c.9.0 1.7-.7 1.7-1.7v-20c0-1-.8-1.7-1.7-1.7zm-1.7 20h-20V73.3h20V90z"/><path class="st0" d="M18.3 80h10c.9.0 1.7-.7 1.7-1.7.0-.9-.7-1.7-1.7-1.7h-10c-.9.0-1.7.7-1.7 1.7.1 1 .8 1.7 1.7 1.7zm0 6.7H25c.9.0 1.7-.7 1.7-1.7s-.7-1.7-1.7-1.7h-6.7c-.9.0-1.7.7-1.7 1.7s.8 1.7 1.7 1.7z"/></svg>