<svg id="Слой_1" xmlns="http://www.w3.org/2000/svg" viewBox="0 0 154.3 100"><style>.st0{fill:#0a89b3}</style><path class="st0" d="M21.5.0c-.8.0-1.4.6-1.4 1.4v23.4c0 3.3-1.8 6.3-4.8 7.8-.5.2-.8.7-.8 1.3v59c0 1.7-1.4 3-3 3s-3-1.4-3-3v-59c0-.6-.3-1.1-.8-1.3-3-1.5-4.8-4.5-4.8-7.8V1.4C2.8.7 2.2.0 1.4.0S0 .7.0 1.4v23.4c0 3.9 1.9 7.5 5.2 9.6l.4.2v58.2c0 3.2 2.6 5.9 5.9 5.9s5.9-2.6 5.9-5.9V34.7l.4-.2c3.3-2.1 5.2-5.7 5.2-9.6V1.4C22.9.7 22.3.0 21.5.0zM146.2.0c-4.5.0-8.1 3.6-8.1 8.1v41.3c0 .8.6 1.4 1.4 1.4h3v42.1c0 3.2 2.6 5.9 5.9 5.9 3.2.0 5.9-2.6 5.9-5.9V8.1c0-4.4-3.6-8.1-8.1-8.1zM144 48h-3V8.1c0-2.9 2.4-5.3 5.3-5.3s5.3 2.4 5.3 5.3v84.8c0 1.7-1.4 3-3 3-1.7.0-3-1.4-3-3V49.4c-.2-.8-.9-1.4-1.6-1.4z"/><path class="st0" d="M14.8 21.8c.8.0 1.4-.6 1.4-1.4v-19c0-.8-.6-1.4-1.4-1.4s-1.4.6-1.4 1.4v19c0 .8.6 1.4 1.4 1.4zm-6.7.0c.8.0 1.4-.6 1.4-1.4v-19C9.5.7 8.9.0 8.1.0S6.7.7 6.7 1.4v19c0 .8.6 1.4 1.4 1.4zM93.8 1.9c-12.9-3.6-26.3-2-38 4.5-11.6 6.5-20 17.2-23.6 30.1s-2 26.3 4.5 38c6.5 11.6 17.2 20 30.1 23.6 4.5 1.3 9.1 1.9 13.6 1.9 8.5.0 16.8-2.2 24.4-6.4 11.6-6.5 20-17.2 23.6-30.1s2-26.3-4.5-38c-6.5-11.6-17.2-20-30.1-23.6zm32.3 61c-3.4 12.2-11.4 22.4-22.5 28.6s-23.9 7.8-36.1 4.3c-25.2-7.1-40-33.4-32.9-58.6C38 24.9 46 14.8 57.1 8.6c7.2-4.1 15.2-6.1 23.2-6.1 4.3.0 8.6.6 12.9 1.8 12.2 3.4 22.4 11.4 28.6 22.5 6.2 11 7.7 23.8 4.3 36.1z"/><path class="st0" d="M87.7 23.8c-14.5-4.1-29.5 4.4-33.6 18.9-2 7-1.1 14.4 2.5 20.7C60.2 69.7 66 74.3 73 76.3c2.5.7 4.9 1 7.4 1 11.9.0 22.9-7.9 26.2-19.9 4-14.5-4.5-29.6-18.9-33.6zm16.5 32.9c-1.8 6.4-6 11.7-11.7 14.9-5.8 3.2-12.5 4-18.8 2.3-6.4-1.8-11.7-6-14.9-11.7s-4-12.5-2.3-18.8c1.8-6.4 6-11.7 11.7-14.9 3.8-2.1 7.9-3.2 12.1-3.2 2.2.0 4.5.3 6.7.9 6.4 1.8 11.7 6 14.9 11.7 3.3 5.7 4.1 12.4 2.3 18.8z"/><path class="st0" d="M80.7 28.2c-.3.0-.6.1-.8.3-.3.2-.4.6-.4.9.0.7.5 1.2 1.2 1.2 5.1.0 9.9 2.1 13.6 5.7 3.6 3.6 5.6 8.5 5.6 13.6.0.7.5 1.2 1.2 1.2s1.2-.5 1.2-1.2c0-5.8-2.2-11.2-6.3-15.3-4.1-4-9.5-6.3-15.3-6.4zM80.5 4.7c-.7.0-1.2.5-1.2 1.2.0.3.1.6.4.9.2.2.5.4.9.4 11.3.0 22.3 4.6 30.3 12.6s12.5 19 12.5 30.3c0 .7.5 1.2 1.2 1.2s1.2-.5 1.2-1.2c0-11.9-4.8-23.6-13.3-32-8.4-8.6-20.1-13.4-32-13.4zm-1 75c-15.9.0-28.9-13-28.9-28.9v-.4c0-.7-.5-1.2-1.2-1.2s-1.2.6-1.2 1.2v.5c0 17.3 14.1 31.4 31.4 31.4.7.0 1.2-.5 1.2-1.2s-.7-1.4-1.3-1.4z"/></svg>