<svg id="Слой_1" xmlns="http://www.w3.org/2000/svg" viewBox="0 0 100 100"><style>.st0{fill:none}.st1{fill:#0a89b3}</style><path class="st0" d="M75.8 21h-21v45.2l-.2 1.6H64l2.1-8.3v-14c0-3.7 3-6.8 6.8-6.8 1.7.0 3.3.7 4.5 1.8V22.6c0-.9-.7-1.6-1.6-1.6zM59.7 64.5c-.9.0-1.6-.7-1.6-1.6s.7-1.6 1.6-1.6 1.6.7 1.6 1.6-.7 1.6-1.6 1.6zm1.6-8c0 .9-.7 1.6-1.6 1.6s-1.6-.7-1.6-1.6V41.9c0-.9.7-1.6 1.6-1.6s1.6.7 1.6 1.6v14.6zm8.1-19.4c-1.1.0-2.2-.3-3.2-.9-1 .6-2.1.9-3.2.9-3.6.0-6.5-2.9-6.5-6.5s2.9-6.5 6.5-6.5c1.1.0 2.2.3 3.2.9 1-.6 2.1-.9 3.2-.9 3.6.0 6.5 2.9 6.5 6.5-.1 3.6-3 6.5-6.5 6.5z"/><path class="st0" d="M69.4 27.4c-.8.0-1.5.3-2.1.8l-1.1 1-1.1-1c-.6-.5-1.4-.8-2.1-.8-1.8.0-3.2 1.4-3.2 3.2s1.4 3.2 3.2 3.2c.8.0 1.5-.3 2.1-.8l1.1-1 1.1 1c.6.5 1.4.8 2.1.8 1.8.0 3.2-1.4 3.2-3.2.0-1.7-1.5-3.2-3.2-3.2z"/><path class="st1" d="M46.8 29H8.1c-.9.0-1.6.7-1.6 1.6V50c0 .9.7 1.6 1.6 1.6h38.7c.9.0 1.6-.7 1.6-1.6V30.6c0-.8-.7-1.6-1.6-1.6zm-1.6 17.8c0 .9-.7 1.6-1.6 1.6H11.3c-.9.0-1.6-.7-1.6-1.6V33.9c0-.9.7-1.6 1.6-1.6h32.3c.9.0 1.6.7 1.6 1.6v12.9zM17.7 56.5h-6.5c-.9.0-1.6.7-1.6 1.6v6.5c0 .9.7 1.6 1.6 1.6h6.5c.9.0 1.6-.7 1.6-1.6v-6.5c.1-.9-.7-1.6-1.6-1.6zm-3.2 6.4c-.9.0-1.6-.7-1.6-1.6s.7-1.6 1.6-1.6 1.6.7 1.6 1.6-.7 1.6-1.6 1.6zm16.1-6.4h-6.5c-.9.0-1.6.7-1.6 1.6v6.5c0 .9.7 1.6 1.6 1.6h6.5c.9.0 1.6-.7 1.6-1.6v-6.5c.1-.9-.7-1.6-1.6-1.6zm-3.2 6.4c-.9.0-1.6-.7-1.6-1.6s.7-1.6 1.6-1.6c.9.0 1.6.7 1.6 1.6s-.7 1.6-1.6 1.6zm16.1-6.4H37c-.9.0-1.6.7-1.6 1.6v6.5c0 .9.7 1.6 1.6 1.6h6.5c.9.0 1.6-.7 1.6-1.6v-6.5c.1-.9-.7-1.6-1.6-1.6zm-3.2 6.4c-.9.0-1.6-.7-1.6-1.6s.7-1.6 1.6-1.6 1.6.7 1.6 1.6-.7 1.6-1.6 1.6zM17.7 69.4h-6.5c-.9.0-1.6.7-1.6 1.6v6.5c0 .9.7 1.6 1.6 1.6h6.5c.9.0 1.6-.7 1.6-1.6V71c.1-.9-.7-1.6-1.6-1.6zm-3.2 6.4c-.9.0-1.6-.7-1.6-1.6.0-.9.7-1.6 1.6-1.6s1.6.7 1.6 1.6c0 .9-.7 1.6-1.6 1.6zM30.6 69.4h-6.5c-.9.0-1.6.7-1.6 1.6v6.5c0 .9.7 1.6 1.6 1.6h6.5c.9.0 1.6-.7 1.6-1.6V71c.1-.9-.7-1.6-1.6-1.6zm-3.2 6.4c-.9.0-1.6-.7-1.6-1.6.0-.9.7-1.6 1.6-1.6.9.0 1.6.7 1.6 1.6.0.9-.7 1.6-1.6 1.6zM43.5 69.4H37c-.9.0-1.6.7-1.6 1.6v6.5c0 .9.7 1.6 1.6 1.6h6.5c.9.0 1.6-.7 1.6-1.6V71c.1-.9-.7-1.6-1.6-1.6zm-3.2 6.4c-.9.0-1.6-.7-1.6-1.6.0-.9.7-1.6 1.6-1.6s1.6.7 1.6 1.6c0 .9-.7 1.6-1.6 1.6zM17.7 82.3h-6.5c-.9.0-1.6.7-1.6 1.6v6.5c0 .9.7 1.6 1.6 1.6h6.5c.9.0 1.6-.7 1.6-1.6v-6.5c.1-.9-.7-1.6-1.6-1.6zm-3.2 6.4c-.9.0-1.6-.7-1.6-1.6.0-.9.7-1.6 1.6-1.6s1.6.7 1.6 1.6c0 .9-.7 1.6-1.6 1.6zM30.6 82.3h-6.5c-.9.0-1.6.7-1.6 1.6v6.5c0 .9.7 1.6 1.6 1.6h6.5c.9.0 1.6-.7 1.6-1.6v-6.5c.1-.9-.7-1.6-1.6-1.6zm-3.2 6.4c-.9.0-1.6-.7-1.6-1.6.0-.9.7-1.6 1.6-1.6.9.0 1.6.7 1.6 1.6.0.9-.7 1.6-1.6 1.6zM43.5 82.3H37c-.9.0-1.6.7-1.6 1.6v6.5c0 .9.7 1.6 1.6 1.6h6.5c.9.0 1.6-.7 1.6-1.6v-6.5c.1-.9-.7-1.6-1.6-1.6zm-3.2 6.4c-.9.0-1.6-.7-1.6-1.6.0-.9.7-1.6 1.6-1.6s1.6.7 1.6 1.6c0 .9-.7 1.6-1.6 1.6z"/><circle class="st1" cx="40.3" cy="43.5" r="1.6"/><path class="st1" d="M33.9 41.9h-6.5c-.9.0-1.6.7-1.6 1.6s.7 1.6 1.6 1.6h6.5c.9.0 1.6-.7 1.6-1.6.0-.8-.7-1.6-1.6-1.6zM37.1 9.7H17.7c-.9.0-1.6.7-1.6 1.6s.7 1.6 1.6 1.6h19.4c.9.0 1.6-.7 1.6-1.6s-.7-1.6-1.6-1.6z"/><circle class="st1" cx="37.1" cy="17.7" r="1.6"/><path class="st1" d="M80.6 29.9v-7.3c0-2.7-2.2-4.8-4.8-4.8h-21v-1.6c0-3.6-2.9-6.5-6.5-6.5h-3.2V1.6c0-.9-.7-1.6-1.6-1.6H11.3c-.9.0-1.6.7-1.6 1.6v8.1H6.5C2.9 9.7.0 12.6.0 16.1v50.2l2.8 27.9c.3 3.3 3.1 5.8 6.4 5.8h36.4c3.3.0 6.1-2.5 6.4-5.8L54.4 71h9c-.3 1.8-.5 3.6-.5 5.3.0 6.3 1.9 12.4 5.4 17.7l1.1 1.6v2.7c0 .9.7 1.6 1.6 1.6.9.0 1.6-.7 1.6-1.6v-3.7L71 92.1c-3.2-4.7-4.8-10.2-4.8-15.9.0-2.3.3-4.7.9-7l2.3-9.3.1-14.6c0-2.2 2-3.9 4.3-3.4 1.5.3 2.6 1.6 2.7 3.1L79 65.4c.2 1.3 1.2 2.2 2.5 2.2s2.4-1 2.5-2.2l1.6-14.3-4.9-8.1v-9l16.1 13.4v15.2l-8 30.4v5.2c0 .9.7 1.6 1.6 1.6.9.0 1.6-.7 1.6-1.6v-4.6l8-30.4V46L80.6 29.9zM12.9 4.8c0-.9.7-1.6 1.6-1.6h1.6v1.6c0 .9.7 1.6 1.6 1.6.9.0 1.6-.7 1.6-1.6V3.2h3.2v1.6c0 .9.7 1.6 1.6 1.6.9.0 1.6-.7 1.6-1.6V3.2H29v1.6c0 .9.7 1.6 1.6 1.6.9.0 1.6-.7 1.6-1.6V3.2h3.2v1.6c0 .9.7 1.6 1.6 1.6s1.6-.7 1.6-1.6V3.2h1.6c.9.0 1.6.7 1.6 1.6v17.7h-29V4.8zm35.9 89.1c-.2 1.7-1.5 2.9-3.2 2.9H9.2c-1.7.0-3-1.2-3.2-2.9L3.2 66.1v-50c0-1.8 1.4-3.2 3.2-3.2h3.2v9.7H8.1c-.9.0-1.6.7-1.6 1.6.0.9.7 1.6 1.6 1.6h38.7c.9.0 1.6-.7 1.6-1.6.0-.9-.7-1.6-1.6-1.6h-1.6v-9.7h3.2c1.8.0 3.2 1.4 3.2 3.2v49.8l-2.8 28zm28.6-53.4c-1.2-1.1-2.8-1.8-4.5-1.8-3.7.0-6.8 3-6.8 6.8v14L64 67.8h-9.4l.2-1.6V21h21c.9.0 1.6.7 1.6 1.6v17.9zM82.2 52l-.8 7.2-.8-6.1v-3.8l1.6 2.7z"/><path class="st1" d="M69.4 24.2c-1.1.0-2.2.3-3.2.9-1-.6-2.1-.9-3.2-.9-3.6.0-6.5 2.9-6.5 6.5s2.9 6.5 6.5 6.5c1.1.0 2.2-.3 3.2-.9 1 .6 2.1.9 3.2.9 3.6.0 6.5-2.9 6.5-6.5-.1-3.6-3-6.5-6.5-6.5zm0 9.7c-.8.0-1.5-.3-2.1-.8l-1.1-1-1.2.9c-.6.5-1.4.8-2.1.8-1.8.0-3.2-1.4-3.2-3.2s1.4-3.2 3.2-3.2c.8.0 1.5.3 2.1.8l1.1 1 1.1-1c.6-.5 1.4-.8 2.1-.8 1.8.0 3.2 1.4 3.2 3.2.1 1.8-1.4 3.3-3.1 3.3zm-9.7 6.4c-.9.0-1.6.7-1.6 1.6v14.5c0 .9.7 1.6 1.6 1.6s1.6-.7 1.6-1.6V41.9c0-.9-.7-1.6-1.6-1.6z"/><circle class="st1" cx="59.7" cy="62.9" r="1.6"/></svg>