<svg width="70" height="70" viewBox="0 0 70 70" fill="none" xmlns="http://www.w3.org/2000/svg"><g filter="url(#filter0_d)"><circle cx="35" cy="30" r="25" fill="#fff"/><path fill-rule="evenodd" clip-rule="evenodd" d="M20.3713 26.2857H21C21.6232 26.2857 22.1973 26.6239 22.4994 27.169 22.8015 27.7141 22.784 28.3801 22.4537 28.9086L19.5966 33.48C19.2833 33.9813 18.7339 34.2858 18.1428 34.2858 17.5518 34.2858 17.0024 33.9813 16.6891 33.48L13.832 28.9086C13.5017 28.3801 13.4842 27.7141 13.7863 27.169 14.0884 26.6239 14.6625 26.2857 15.2857 26.2857h1.5144C18.5208 17.809 26.0151 11.4286 35 11.4286c10.257.0 18.5714 8.3149 18.5714 18.5714S45.257 48.5714 35 48.5714c-5.082.0-9.6897-2.0436-13.041-5.3493C21.2745 42.5468 21.2669 41.4444 21.9422 40.7599 22.6175 40.0753 23.7198 40.0678 24.4044 40.743 27.1306 43.4322 30.87 45.0893 35 45.0893c8.3338.0 15.0893-6.7559 15.0893-15.0893C50.0893 21.6666 43.3338 14.9107 35 14.9107c-7.052.0-12.974 4.8376-14.6287 11.375z" fill="url(#paint0_angular)"/><path d="M40.9322 35.6391C40.5487 35.9129 40.1757 36.1311 39.8134 36.2917 39.0279 36.6394 38.1057 36.8138 37.0466 36.8138c-1.8708.0-3.4417-.627499999999998-4.7123-1.882C31.8901 34.4932 31.5251 34.0109 31.2362 33.4874h6.0031L38.2112 31.0259H30.478C30.4459 30.7338 30.4278 30.4335 30.4278 30.1241 30.4278 30.0826 30.4296 30.042 30.4305 30.0005 30.43 29.9589 30.4278 29.9183 30.4278 29.8768 30.4278 29.5669 30.4459 29.2671 30.478 28.9746h8.5429L39.9928 26.513H31.2366C31.5256 25.9896 31.8901 25.5072 32.3348 25.0687c1.2709-1.2541 2.8414-1.882 4.7123-1.882C38.1061 23.1867 39.0283 23.361 39.8138 23.7088 40.1542 23.8598 40.5034 24.0606 40.8622 24.3111l1.1703-2.9644C40.5856 20.4495 38.9461 20 37.1135 20 34.2452 20 31.8717 20.9524 29.9916 22.8572c-1.0546 1.0688-1.8133 2.2872-2.2764 3.6558H25.2581L24.2862 28.9746h2.9277C27.1857 29.3095 27.1717 29.6513 27.1717 30 27.1717 30.3491 27.1857 30.6909 27.2139 31.0254H25.2577L24.2858 33.487h3.429C28.1779 34.8556 28.9365 36.074 29.9911 37.1428 31.8708 39.0476 34.2443 40 37.1131 40 38.9923 40 40.6687 39.5281 42.1429 38.5844 41.6868 37.4759 41.5373 37.1118 40.9322 35.6391z" fill="#323232"/></g><defs><filter id="filter0_d" x="0" y="0" width="70" height="70" filterUnits="userSpaceOnUse" color-interpolation-filters="sRGB"><feFlood flood-opacity="0" result="BackgroundImageFix"/><feColorMatrix in="SourceAlpha" type="matrix" values="0 0 0 0 0 0 0 0 0 0 0 0 0 0 0 0 0 0 127 0"/><feOffset dy="5"/><feGaussianBlur stdDeviation="5"/><feColorMatrix type="matrix" values="0 0 0 0 0 0 0 0 0 0 0 0 0 0 0 0 0 0 0.1 0"/><feBlend mode="normal" in2="BackgroundImageFix" result="effect1_dropShadow"/><feBlend mode="normal" in="SourceGraphic" in2="effect1_dropShadow" result="shape"/></filter><radialGradient id="paint0_angular" cx="0" cy="0" r="1" gradientUnits="userSpaceOnUse" gradientTransform="translate(35 29.5455) rotate(133.091) scale(19.2954 19.9087)"><stop offset=".0130676" stop-color="#fff"/><stop offset=".100792" stop-color="#ec750a"/></radialGradient></defs></svg>