<svg xmlns:svg="http://www.w3.org/2000/svg" xmlns="http://www.w3.org/2000/svg" width="100" height="60" id="svg2"><defs id="defs4"><marker refX="0" refY="0" orient="auto" id="Scissors" style="overflow:visible"><path d="M9.0898857-3.6061018C8.1198849-4.7769976 6.3697607-4.7358294 5.0623558-4.2327734l-8.2124046 3.0779029c-2.3882933-1.3067135-4.7482873-.9325372-4.7482873-1.5687873.0-.4973164.4566662-.3883222.3883068-1.6831941-.065635-1.2432767-1.3635771-2.1630796-2.5903987-2.0816435-1.227271-.00735-2.499439.9331613-2.510341 2.2300611-.09143 1.3063864 1.007209 2.5196896 2.306764 2.6052316 1.5223406.2266616 4.218258-.6955566 5.482945 1.57086006C-5.7633447 1.6559151-7.4350844 1.6607341-8.9465707 1.5737277c-1.2548743-.072235-2.7620933.2873979-3.3606483 1.5208605-.578367 1.1820862-.0112 2.8646022 1.316749 3.226412 1.3401912.4918277 3.1806689-.129711 3.4993722-1.6707242.2456585-1.187823-.5953659-1.7459574-.2725074-2.1771537.2436135-.32536 1.7907806-.1368452 4.5471053-1.3748244L5.6763468 4.2330688c1.1236696.3136984 2.4967217.3031958 3.4920965-.8017074L-.05164093-.05372222 9.0898857-3.6061018zm-18.3078016-1.900504c1.294559.7227998 1.1888392 2.6835702-.1564272 3.0632889-1.2165179.423661-2.7710269-.7589694-2.3831779-2.0774648.227148-1.0818519 1.653387-1.480632 2.5396051-.9858241zm.056264 8.0173649c1.3508301.4988648 1.1214429 2.7844356-.2522207 3.091609-.9110594.3163391-2.2135494-.1387976-2.3056964-1.2121394-.177609-1.305055 1.356085-2.4841482 2.5579171-1.8794696z" id="schere" style="marker-start:none"/></marker></defs><g transform="translate(0,-992.36218)" id="layer1"><g transform="matrix(4.2610846,-1.2351263,1.2351263,4.2610846,-1337.7659,-2994.9736)" id="g4593"><path d="m59.731665 956.40057c-.609784-1.39286-2.303491-1.83556-3.698902-1.71226l-8.742604.69566c-1.935736-1.91425-4.307466-2.2049-4.132136-2.81651.137044-.47806.545993-.24745.837105-1.51102.279511-1.21323-.714709-2.45509-1.916471-2.71488-1.177727-.34526-2.659814.20827-3.027677 1.45195-.447882 1.23061.273869 2.69969 1.499535 3.14003 1.400938.6374 4.246607.49379 4.837778 3.02096-1.384807 1.41129-2.993148.95525-4.422137.4551-1.186382-.41524-2.734347-.48487-3.649629.53589-.881717.97694-.800158 2.7506.376675 3.46434 1.15277.8421 3.093263.7518 3.824279-.64172.563472-1.07414-.09119-1.84242.337995-2.16796.32384-.24563 1.759155.36194 4.749906-.0686l7.684693 5.46398c.993719.61119 2.316503.97947 3.577814.19164l-7.902726-5.8909 9.766502-.89574zm-17.075242-6.87194c1.045256 1.05155.403306 2.90727-.994512 2.90157-1.286163.072-2.454591-1.49318-1.718425-2.65375.516476-.97737 1.997384-.96769 2.712937-.24782zm-2.155235 7.72245c1.161058.85179.310724 2.98566-1.0944 2.9024-.962958.053-2.089598-.7434-1.882399-1.80058.188897-1.30347 1.988129-2.01427 2.976799-1.10182z" id="path4599" style="marker-start:none"/></g></g></svg>