<svg id="Слой_1" xmlns="http://www.w3.org/2000/svg" viewBox="0 0 100 100"><style>.st0{fill:#0a89b3}</style><path class="st0" d="M23.5 90.5c.5-.7.3-1.6-.4-2.1-4.5-3.2-8.5-7.2-11.7-11.8h10.8c.7 2.4 1.6 4.7 2.5 7 .3.8 1.3 1.2 2.1.8.8-.3 1.1-1.2.8-2-.8-1.9-1.5-3.8-2.1-5.8h23c.9.0 1.6-.7 1.6-1.6.0-.9-.7-1.6-1.6-1.6h-24c-1.9-7.1-2.8-14.5-2.7-21.9h56.3v1.6c0 .9.7 1.6 1.6 1.6.9.0 1.6-.7 1.6-1.6v-1.6h15.6V53c-.1.8.6 1.6 1.4 1.7.9.1 1.7-.6 1.7-1.5V50C1e2 20.8 74.9-2.6 45.1.2 24.7 2.2 7.2 16.7 1.8 36.6-3.9 57.6 4.3 79.1 21.2 91c.8.4 1.8.2 2.3-.5zm73.4-42.1H81.3c-.4-7.4-1.6-14.7-3.6-21.9h13c3.8 6.7 5.9 14.2 6.2 21.9zm-8.3-25H76.7c-1.7-5.3-3.8-10.6-6.3-15.6 7.3 3.6 13.6 9 18.2 15.6zm-37-20.3c5 .2 9.9 1.1 14.5 2.8 2.9 5.6 5.4 11.5 7.4 17.5H51.6V3.1zm0 23.5h22.8c2.1 7.1 3.4 14.5 3.8 21.9H51.6V26.6zm-3.2 21.8H21.9c.4-7.4 1.6-14.8 3.7-21.9h22.8v21.9zm0-45.3v20.3H26.6c2-6 4.4-11.9 7.4-17.5 4.6-1.6 9.5-2.6 14.4-2.8zM29.5 7.8c-2.4 5.1-4.5 10.3-6.2 15.6H11.4c4.6-6.6 10.8-12 18.1-15.6zM9.4 26.6h13c-2 7.1-3.2 14.5-3.6 21.9H3.1c.3-7.8 2.4-15.3 6.3-21.9zm-6.3 25h15.6c-.1 7.4.8 14.7 2.6 21.9h-12c-3.8-6.7-5.9-14.2-6.2-21.9z"/><path class="st0" d="M59.4 85.9V59.4c0-.6-.3-1.1-.9-1.4l-4.9-2.4c-.8-.4-1.7-.1-2.1.7-.4.8-.1 1.7.7 2.1l4 2V86c0 1.6 1.3 4.7 6.3 4.7h.9c-.6.9-.9 2-.9 3.1.0 3.5 2.8 6.3 6.3 6.3s6.3-2.8 6.3-6.3c0-1.1-.3-2.2-.9-3.1h11.1c-1.2 2.1-1.2 4.8.4 7 .7.9 1.6 1.6 2.6 2 4.4 1.6 8.6-1.6 8.6-5.8.0-1.1-.3-2.2-.9-3.1h2.4c.9.0 1.6-.7 1.6-1.6.0-.9-.7-1.6-1.6-1.6H62.5c-2.9-.1-3.1-1.4-3.1-1.7zm31.2 4.7c1.7.0 3.1 1.4 3.1 3.1s-1.4 3.1-3.1 3.1-3.1-1.4-3.1-3.1 1.4-3.1 3.1-3.1zm-21.8.0c1.7.0 3.1 1.4 3.1 3.1s-1.4 3.1-3.1 3.1c-1.7.0-3.1-1.4-3.1-3.1s1.3-3.1 3.1-3.1z"/><path class="st0" d="M98.4 59.4H64.1c-.9.0-1.6.7-1.6 1.6v21.9c0 .9.7 1.6 1.6 1.6h34.4c.9.0 1.6-.7 1.6-1.6v-22c-.1-.8-.8-1.5-1.7-1.5zM70.3 81.2h-4.7v-7.8h4.7v7.8zm0-10.9h-4.7v-7.8h4.7v7.8zm9.4 10.9h-6.3v-7.8h6.3v7.8zm0-10.9h-6.3v-7.8h6.3v7.8zm9.4 10.9h-6.3v-7.8h6.3v7.8zm0-10.9h-6.3v-7.8h6.3v7.8zm7.8 10.9h-4.7v-7.8h4.7v7.8zm0-10.9h-4.7v-7.8h4.7v7.8zM15.6 96.9h45.3v3.1H15.6c-.9.0-1.6-.7-1.6-1.6.1-.8.8-1.5 1.6-1.5zm-6.2.0c.9.0 1.6.7 1.6 1.6.0.9-.7 1.6-1.6 1.6s-1.6-.7-1.6-1.6c0-.9.7-1.6 1.6-1.6zM37.5 90.6h17.2c.9.0 1.6.7 1.6 1.6.0.9-.7 1.6-1.6 1.6H37.5c-.9.0-1.6-.7-1.6-1.6.0-.9.7-1.6 1.6-1.6zm-6.2.0c.9.0 1.6.7 1.6 1.6.0.9-.7 1.6-1.6 1.6s-1.6-.7-1.6-1.6c0-.9.7-1.6 1.6-1.6z"/></svg>