<svg width="32" height="32" fill="none" xmlns="http://www.w3.org/2000/svg"><path d="M30.72 0H1.28C.572 0 0 .572 0 1.28v29.44C0 31.428.572 32 1.28 32h29.44c.708 0 1.28-.572 1.28-1.28V1.28C32 .572 31.428 0 30.72 0zm-8.04 23.424c-1.624 1.496-3.84 2.376-6.484 2.376A9.793 9.793 0 016.4 16a9.8 9.8 0 011.044-4.404 9.79 9.79 0 018.752-5.4c2.64 0 4.856.972 6.556 2.552l-2.808 2.812c-1.016-.972-2.308-1.464-3.744-1.464-2.552 0-4.712 1.724-5.484 4.04A5.894 5.894 0 0010.408 16c0 .648.112 1.276.308 1.864.772 2.316 2.932 4.04 5.48 4.04 1.32 0 2.44-.348 3.316-.936a4.504 4.504 0 001.956-2.96h-5.272v-3.792h9.228c.116.644.176 1.312.176 2.004 0 2.988-1.068 5.496-2.92 7.204z" fill="#FF3D00"/></svg>