<svg width="86" height="14" fill="none" xmlns="http://www.w3.org/2000/svg"><path d="M13.98 5.071a.41.41 0 00-.331-.279l-4.34-.63L7.368.228a.41.41 0 00-.736 0L4.692 4.16l-4.34.631a.41.41 0 00-.228.7l3.14 3.06-.741 4.323a.41.41 0 00.595.433L7 11.267l3.882 2.04a.41.41 0 00.595-.432l-.742-4.322 3.141-3.061a.41.41 0 00.104-.42zM31.98 5.071a.41.41 0 00-.331-.279l-4.34-.63L25.368.228a.41.41 0 00-.736 0l-1.94 3.932-4.34.631a.41.41 0 00-.228.7l3.14 3.06-.741 4.323a.41.41 0 00.595.433L25 11.267l3.882 2.04a.41.41 0 00.595-.432l-.742-4.322 3.141-3.061a.41.41 0 00.104-.42zM49.98 5.071a.41.41 0 00-.331-.279l-4.34-.63L43.368.228a.41.41 0 00-.736 0l-1.94 3.932-4.34.631a.41.41 0 00-.228.7l3.14 3.06-.741 4.323a.41.41 0 00.595.433L43 11.267l3.882 2.04a.41.41 0 00.595-.432l-.742-4.322 3.141-3.061a.41.41 0 00.104-.42zM67.98 5.071a.41.41 0 00-.331-.279l-4.34-.63L61.368.228a.41.41 0 00-.736 0l-1.94 3.932-4.34.631a.41.41 0 00-.228.7l3.14 3.06-.741 4.323a.41.41 0 00.595.433L61 11.267l3.882 2.04a.41.41 0 00.595-.432l-.742-4.322 3.141-3.061a.41.41 0 00.104-.42z" fill="#F6C646"/><mask id="a" maskUnits="userSpaceOnUse" x="72" y="0" width="14" height="14"><path d="M85.98 5.071a.41.41 0 00-.331-.279l-4.34-.63L79.368.228a.41.41 0 00-.736 0l-1.94 3.932-4.34.631a.41.41 0 00-.228.7l3.14 3.06-.741 4.323a.41.41 0 00.595.433L79 11.267l3.882 2.04a.41.41 0 00.595-.432l-.742-4.322 3.141-3.061a.41.41 0 00.104-.42z" fill="#F6C646"/></mask><g mask="url(#a)"><path fill="#A8A8A8" d="M79 0h8v14h-8z"/><path fill="#F6C646" d="M71 0h8v14h-8z"/></g></svg>