<?xml version="1.0" standalone="no"?>
<!DOCTYPE svg PUBLIC "-//W3C//DTD SVG 20010904//EN"
 "http://www.w3.org/TR/2001/REC-SVG-20010904/DTD/svg10.dtd">
<svg version="1.0" xmlns="http://www.w3.org/2000/svg"
 width="565.000000pt" height="936.000000pt" viewBox="0 0 565.000000 936.000000"
 preserveAspectRatio="xMidYMid meet">
<metadata>
Created by potrace 1.16, written by Peter Selinger 2001-2019
</metadata>
<g transform="translate(0.000000,936.000000) scale(0.100000,-0.100000)"
fill="#62a7d9" stroke="none">
<path d="M2500 9095 c-521 -72 -972 -301 -1336 -677 -447 -462 -672 -1070
-634 -1715 42 -715 413 -1360 1013 -1761 755 -504 1768 -502 2522 6 804 541
1177 1515 940 2452 -162 641 -604 1187 -1200 1480 -228 112 -461 183 -708 215
-144 18 -462 18 -597 0z m540 -1353 c229 -70 413 -203 536 -388 243 -365 199
-850 -104 -1160 -371 -381 -957 -386 -1330 -12 -179 179 -272 400 -273 648 0
190 43 345 139 500 56 90 165 207 248 266 84 60 233 129 324 149 41 9 80 19
85 21 6 2 78 2 160 0 113 -3 166 -9 215 -24z"/>
<path d="M835 4490 c-163 -20 -295 -88 -411 -212 -236 -253 -233 -660 8 -913
184 -194 830 -499 1313 -621 61 -15 112 -29 114 -31 3 -2 -295 -304 -661 -671
l-665 -667 -46 -95 c-95 -195 -100 -393 -16 -578 112 -249 337 -392 613 -392
122 0 192 16 306 71 85 41 85 42 748 702 l662 662 663 -662 c662 -660 662
-661 747 -702 114 -55 184 -71 306 -71 272 0 488 134 604 375 94 193 91 393
-7 595 l-46 95 -665 667 c-366 367 -664 669 -661 671 2 2 38 12 79 22 341 80
787 264 1125 463 282 166 405 358 405 631 0 294 -187 547 -470 638 -123 39
-300 35 -424 -11 -35 -12 -123 -58 -196 -100 -492 -291 -1040 -425 -1612 -395
-452 24 -906 158 -1278 378 -58 34 -132 75 -165 91 -107 52 -249 75 -370 60z"/>
</g>
</svg>
