<svg xmlns="http://www.w3.org/2000/svg" id="Layer_1" width="141.7" height="45" data-name="Layer 1"><defs><style>.cls-4{fill:#004676}</style></defs><path d="M26.21 44.83A16.41 16.41 0 0 1 10.15 32.1v-.13l-1.4-.07a9 9 0 0 1-8.55-9V.17h135.85a5.48 5.48 0 0 1 5.47 5.47v33.71a5.49 5.49 0 0 1-5.47 5.48Z" style="fill:#fff"/><path d="M136.05.35a5.3 5.3 0 0 1 5.3 5.29v33.71a5.31 5.31 0 0 1-5.3 5.3H26.15a16.22 16.22 0 0 1-15.83-12.59l-.06-.25H10l-1.27-.06a8.82 8.82 0 0 1-8.38-8.83V.35h135.7m0-.35H0v22.92a9.17 9.17 0 0 0 8.71 9.16l1.27.06A16.67 16.67 0 0 0 26.18 45h109.87a5.65 5.65 0 0 0 5.65-5.65V5.64A5.65 5.65 0 0 0 136.05 0Z" style="fill:#929497"/><path d="M4.72 4.72v18.17a5.38 5.38 0 0 0 5.12 5.37 16.15 16.15 0 0 1 13.31-16.19 15.73 15.73 0 0 1 2.85-.25 16.1 16.1 0 0 1 15.84 13.33 15.7 15.7 0 0 1 .24 3.11 5.37 5.37 0 0 0 5.1-5.37V4.72Z" style="fill:#5fc323"/><path d="M20.78 28a5.2 5.2 0 1 1 10.4 0Zm-7.18 0a12.35 12.35 0 0 0 12.32 12.28 12.21 12.21 0 0 0 8.74-3.64l-2.51-2.5A8.78 8.78 0 1 1 34.7 28h3.54a12.32 12.32 0 0 0-24.64 0"/><path d="M51.38 34.66h1.9a3.84 3.84 0 0 1 .93.1 1.93 1.93 0 0 1 .73.3 1.49 1.49 0 0 1 .46.56 2.36 2.36 0 0 1 0 1.71 1.52 1.52 0 0 1-.47.59 2 2 0 0 1-.72.36 3.38 3.38 0 0 1-.93.12h-1.11v2.45h-.79Zm1.81 3.09a2 2 0 0 0 1.2-.3 1.17 1.17 0 0 0 .39-1 1 1 0 0 0-.4-.93 2.21 2.21 0 0 0-1.19-.26h-1v2.46ZM56 38.57a2.75 2.75 0 0 1 .17-1 2.33 2.33 0 0 1 .47-.76 2.08 2.08 0 0 1 .67-.47 2.21 2.21 0 0 1 .81-.16 2.15 2.15 0 0 1 .8.16 2.13 2.13 0 0 1 .68.47 2.51 2.51 0 0 1 .47.76 3 3 0 0 1 .17 1 2.93 2.93 0 0 1-.17 1 2.34 2.34 0 0 1-.47.75 2 2 0 0 1-1.48.63 2 2 0 0 1-.81-.16 1.94 1.94 0 0 1-.67-.47 2.18 2.18 0 0 1-.47-.75 2.71 2.71 0 0 1-.17-1Zm.8 0a2.6 2.6 0 0 0 .09.71 1.49 1.49 0 0 0 .27.55 1.19 1.19 0 0 0 .42.36 1.08 1.08 0 0 0 .54.13 1.13 1.13 0 0 0 .54-.13 1.19 1.19 0 0 0 .42-.36 1.65 1.65 0 0 0 .26-.55 2.26 2.26 0 0 0 .1-.71 2.39 2.39 0 0 0-.1-.73 1.92 1.92 0 0 0-.26-.56 1.3 1.3 0 0 0-.42-.36 1.13 1.13 0 0 0-.54-.13 1.08 1.08 0 0 0-.54.13 1.3 1.3 0 0 0-.42.36 1.71 1.71 0 0 0-.27.56 2.75 2.75 0 0 0-.1.73ZM60.66 36.26h.8l.68 2.65c0 .22.09.44.14.65s.08.41.13.63l.15-.64c0-.21.1-.42.16-.64l.71-2.65h.75l.72 2.65c0 .22.11.44.16.65s.11.41.16.63q.08-.33.15-.63c0-.21.09-.43.14-.65l.67-2.65H67l-1.22 4.59h-1l-.66-2.46-.12-.65c0-.22-.1-.44-.16-.67l-.15.67c0 .22-.1.44-.17.66l-.64 2.45h-.9ZM67.42 38.57a2.73 2.73 0 0 1 .17-1 2.49 2.49 0 0 1 .46-.76 1.9 1.9 0 0 1 .66-.47 1.83 1.83 0 0 1 .76-.17 1.94 1.94 0 0 1 .78.15 1.46 1.46 0 0 1 .57.44 1.77 1.77 0 0 1 .36.68 3 3 0 0 1 .12.88 2.63 2.63 0 0 1 0 .43h-3.12a1.75 1.75 0 0 0 .46 1.17 1.4 1.4 0 0 0 1.07.44 1.74 1.74 0 0 0 .61-.1 2.89 2.89 0 0 0 .53-.26l.27.51a3.8 3.8 0 0 1-.67.33 2.38 2.38 0 0 1-.84.14 2.27 2.27 0 0 1-.86-.16 2 2 0 0 1-.7-.48 2 2 0 0 1-.46-.75 2.62 2.62 0 0 1-.17-1.02Zm3.2-.35a1.69 1.69 0 0 0-.3-1.08 1 1 0 0 0-.83-.38 1.28 1.28 0 0 0-.47.1 1.36 1.36 0 0 0-.4.29 1.29 1.29 0 0 0-.29.45 1.88 1.88 0 0 0-.16.62ZM72.24 36.26h.64l.07.83a2.27 2.27 0 0 1 .57-.68 1.19 1.19 0 0 1 .73-.26 1.1 1.1 0 0 1 .49.1l-.15.67-.21-.05h-.23a1.06 1.06 0 0 0-.61.23 1.87 1.87 0 0 0-.55.83v2.94h-.78ZM74.89 38.57a2.73 2.73 0 0 1 .18-1 2.31 2.31 0 0 1 .46-.76 1.9 1.9 0 0 1 .66-.47 1.83 1.83 0 0 1 .76-.17 1.94 1.94 0 0 1 .78.15 1.46 1.46 0 0 1 .57.44 1.91 1.91 0 0 1 .36.68 3 3 0 0 1 .12.88 2.63 2.63 0 0 1 0 .43h-3.12a1.8 1.8 0 0 0 .45 1.17 1.42 1.42 0 0 0 1.08.44 1.68 1.68 0 0 0 .6-.1 2.69 2.69 0 0 0 .54-.26l.27.51a3.8 3.8 0 0 1-.67.33 2.47 2.47 0 0 1-.84.14 2.2 2.2 0 0 1-.86-.16 2 2 0 0 1-.7-.48 2.18 2.18 0 0 1-.47-.75 2.83 2.83 0 0 1-.17-1.02Zm3.21-.35a1.69 1.69 0 0 0-.3-1.08 1 1 0 0 0-.83-.38 1.18 1.18 0 0 0-.87.39 1.48 1.48 0 0 0-.3.45 1.88 1.88 0 0 0-.15.62ZM79.39 38.57a2.89 2.89 0 0 1 .17-1 2.43 2.43 0 0 1 .44-.77 2 2 0 0 1 .64-.48 1.75 1.75 0 0 1 .75-.17 1.63 1.63 0 0 1 .69.14 3.74 3.74 0 0 1 .59.39v-2.55h.78v6.72h-.64l-.07-.54a2.85 2.85 0 0 1-.62.46 1.56 1.56 0 0 1-.76.19 1.74 1.74 0 0 1-1.39-.62 2.74 2.74 0 0 1-.58-1.77Zm.8 0a2.2 2.2 0 0 0 .33 1.29 1.08 1.08 0 0 0 .94.46 1.17 1.17 0 0 0 .6-.16 2.15 2.15 0 0 0 .57-.47v-2.4a2.11 2.11 0 0 0-.57-.37 1.46 1.46 0 0 0-.55-.11 1 1 0 0 0-.51.13 1.19 1.19 0 0 0-.42.36 1.78 1.78 0 0 0-.28.55 2.27 2.27 0 0 0-.11.71ZM86.48 34.13h.78v2.7a3.25 3.25 0 0 1 .68-.46 1.66 1.66 0 0 1 .75-.18 1.73 1.73 0 0 1 .78.17 1.44 1.44 0 0 1 .57.47 2.06 2.06 0 0 1 .35.73 3.6 3.6 0 0 1 .12 1 3.13 3.13 0 0 1-.16 1.05 2.43 2.43 0 0 1-.43.78 2 2 0 0 1-.64.49 1.74 1.74 0 0 1-.75.16 1.62 1.62 0 0 1-.66-.15 2.15 2.15 0 0 1-.65-.41l-.06.45h-.63Zm.78 5.7a2 2 0 0 0 .6.37 1.57 1.57 0 0 0 .52.11 1 1 0 0 0 .52-.13 1.19 1.19 0 0 0 .42-.36 1.89 1.89 0 0 0 .27-.57 2.54 2.54 0 0 0 .1-.76 3 3 0 0 0-.07-.69 1.4 1.4 0 0 0-.21-.53 1.07 1.07 0 0 0-.38-.35 1.15 1.15 0 0 0-.55-.12 1.9 1.9 0 0 0-1.22.62ZM91.35 42.15a.57.57 0 0 0 .18 0 .83.83 0 0 0 .64-.28 2.07 2.07 0 0 0 .4-.7l.1-.34-1.84-4.6h.8l.94 2.54c.06.2.14.41.22.64s.15.44.22.65c.06-.2.13-.42.19-.65s.13-.44.19-.64l.82-2.54H95l-1.73 5a5.35 5.35 0 0 1-.27.64 2.06 2.06 0 0 1-.36.5 1.94 1.94 0 0 1-.47.34 1.48 1.48 0 0 1-.61.12 1.39 1.39 0 0 1-.3 0 .61.61 0 0 1-.24-.07l.15-.61Z" class="cls-4"/><path d="M70.57 6.84v8.49h-2.34V6.84H65V4.68h8.83v2.16ZM81.46 15.33l-2.28-3.41h-1.84v3.41H75V4.68h4.87c2.52 0 4 1.32 4 3.51a3.31 3.31 0 0 1-2.28 3.3l2.61 3.81Zm.05-7c0-1-.7-1.52-1.84-1.52h-2.33v3.04h2.37c1.14 0 1.8-.61 1.8-1.51ZM90.13 15.5c-2.86 0-4.6-1.6-4.6-4.74V4.68h2.34v6c0 1.74.87 2.63 2.3 2.63s2.29-.86 2.29-2.55V4.68h2.35v6c0 3.23-1.81 4.82-4.68 4.82ZM100.68 15.48a6.79 6.79 0 0 1-4.52-1.7l1.39-1.66a4.86 4.86 0 0 0 3.17 1.29c1 0 1.54-.38 1.54-1 0-.6-.36-.9-2.14-1.36-2.15-.54-3.53-1.14-3.53-3.25 0-1.93 1.55-3.21 3.72-3.21a6.15 6.15 0 0 1 4 1.36l-1.21 1.76a5.05 5.05 0 0 0-2.78-1c-.89 0-1.36.4-1.36.92 0 .7.45.93 2.29 1.4 2.16.57 3.38 1.34 3.38 3.2-.04 2.07-1.63 3.25-3.95 3.25ZM110.54 6.84v8.49h-2.34V6.84H105V4.68h8.83v2.16ZM121.09 12.06h-5.68a1.89 1.89 0 0 0 2 1.59 2.68 2.68 0 0 0 2-.83l1.3 1.18a4.31 4.31 0 0 1-7.6-2.69 4.06 4.06 0 0 1 4-4.24c2.73 0 4 2.11 4 4.43.01.21-.01.34-.02.56Zm-4-3.18a1.81 1.81 0 0 0-1.76 1.73h3.48a1.74 1.74 0 0 0-1.67-1.73Z"/><path d="M99.19 35.72h-2v-1h5.13v1h-2v5.06h-1.13Zm4.21 5.06v-3.35a1.61 1.61 0 0 1 .82-.18 3 3 0 0 1 .67.08l.27-.9a2.8 2.8 0 0 0-1-.14 2.86 2.86 0 0 0-1.84.63v3.86Zm5.46-4.34v3.37a2.34 2.34 0 0 1-.86.19c-.88 0-1.07-.4-1.07-1.12v-2.44h-1.06v2.73c0 1.07.61 1.75 2 1.75a4.66 4.66 0 0 0 2.11-.47v-4Zm2 3.8a2.47 2.47 0 0 0 1.71.64c1 0 1.68-.58 1.68-1.32 0-1.41-2.14-1.34-2.14-2 0-.27.27-.39.56-.39a1.69 1.69 0 0 1 1.08.38l.4-.82a2.09 2.09 0 0 0-1.47-.5c-.95 0-1.69.48-1.69 1.3 0 1.41 2.14 1.33 2.14 2 0 .26-.26.4-.57.4a1.84 1.84 0 0 1-1.2-.48Zm4.3-1.07a1.61 1.61 0 0 0 1.83 1.65 2.47 2.47 0 0 0 .34 0v-1a.91.91 0 0 1-.2 0 .79.79 0 0 1-.87-.83v-1.61h1v-.93h-1v-1.27h-1.07Zm9.8 1.61v-3.35a1.61 1.61 0 0 1 .82-.18 3 3 0 0 1 .67.08l.27-.9a2.8 2.8 0 0 0-1-.14 2.86 2.86 0 0 0-1.84.63v3.86Zm4.23-4.43a2.25 2.25 0 1 0 0 4.5 2.42 2.42 0 0 0 1.76-.7l-.41-.76a2 2 0 0 1-1.26.55 1.31 1.31 0 0 1-1.34-1.35 1.28 1.28 0 0 1 1.31-1.33 1.66 1.66 0 0 1 1.11.46l.48-.73a2.18 2.18 0 0 0-1.65-.64m-7.57 2.86h-2l-.62 1.54h-1.11l2.1-6h1.12l2.1 6h-1.12Zm-.31-.88-.69-2-.69 2Z" class="cls-4"/><path d="M51.39 31.76h79.51" style="fill:none;stroke:#231f20;stroke-miterlimit:10;stroke-width:.5px"/><path d="M64.31 24.4h-2.83l-.75 2.36h-1L62.36 19h1.11l2.63 7.76h-1Zm-.25-.8-.37-1.18c-.27-.87-.52-1.72-.77-2.62-.25.9-.5 1.75-.77 2.62l-.38 1.18ZM67.13 19h2.39c1.72 0 2.86.58 2.86 2.28s-1.17 2.41-2.86 2.41h-1.4v3.07h-1Zm2.26 3.88c1.36 0 2-.5 2-1.6s-.67-1.49-2-1.49h-1.27v3.09ZM73.89 19h4.47v.83h-3.48v2.43h2.94v.85h-2.94v2.81h3.6v.84h-4.59ZM83.09 18.85a2.87 2.87 0 0 1 2.12 1l-.56.63a2.06 2.06 0 0 0-1.55-.72c-1.48 0-2.46 1.21-2.46 3.14s.93 3.1 2.41 3.1a2.28 2.28 0 0 0 1.78-.86l.55.6A3 3 0 0 1 83 26.91c-2 0-3.41-1.5-3.41-4s1.51-4.06 3.5-4.06ZM89.16 19h2.39c1.72 0 2.87.58 2.87 2.28s-1.17 2.41-2.87 2.41h-1.39v3.07h-1Zm2.26 3.88c1.36 0 2-.5 2-1.6s-.68-1.49-2-1.49h-1.26v3.09ZM95.86 21h.81l.08 1a2 2 0 0 1 1.63-1.18A1.35 1.35 0 0 1 99 21l-.19.85a1.6 1.6 0 0 0-.56-.1c-.49 0-1.07.36-1.46 1.33v3.69h-1ZM99.79 19.2a.63.63 0 0 1 .68-.63.63.63 0 0 1 .67.63.64.64 0 0 1-.67.63.65.65 0 0 1-.68-.63ZM100 21h1v5.75h-1ZM102.05 21h1l1.09 3.27c.17.57.36 1.15.53 1.69.17-.54.36-1.12.52-1.69l1.15-3.27h1l-2 5.75h-1.13ZM111.43 23.12c0-.74-.25-1.45-1.18-1.45a3.08 3.08 0 0 0-1.72.62l-.39-.68a4.3 4.3 0 0 1 2.26-.74c1.41 0 2 .93 2 2.37v3.52h-.8l-.08-.68a3.1 3.1 0 0 1-1.9.83 1.57 1.57 0 0 1-1.7-1.64c-.03-1.27 1.08-1.88 3.51-2.15Zm-1.57 3a2.34 2.34 0 0 0 1.57-.77v-1.59c-1.93.23-2.58.71-2.58 1.44s.44.92 1.01.92ZM116.58 20.87a2.39 2.39 0 0 1 1.68.68l-.48.63a1.76 1.76 0 0 0-1.16-.51c-1 0-1.8.9-1.8 2.23s.72 2.2 1.77 2.2a2 2 0 0 0 1.35-.58l.44.64a2.85 2.85 0 0 1-1.87.75 2.71 2.71 0 0 1-2.7-3 2.79 2.79 0 0 1 2.77-3.04ZM119.76 28.43c.65 0 1.06-.52 1.3-1.23l.13-.42-2.31-5.78h1l1.17 3.18c.18.5.38 1.09.55 1.63.17-.53.33-1.12.49-1.63l1-3.18h.95L122 27.24c-.4 1.13-1 2-2.16 2a1.91 1.91 0 0 1-.67-.12l.19-.77a1.5 1.5 0 0 0 .4.08Z"/></svg>