<svg version="1.2" xmlns="http://www.w3.org/2000/svg" viewBox="0 0 479 479" width="479" height="479">
	<title>settings-icon-svg</title>
	<style>
		.s0 { fill: #ffffff } 
	</style>
	<g id="Layer">
		<g id="Layer">
			<path id="Layer" fill-rule="evenodd" class="s0" d="m478.7 218.3v42.1c0 14.5-10.4 26.8-24.7 29.2l-33.6 5.6c-3.4 11.2-8 22.1-13.5 32.6l19.8 27.8c8.4 11.8 7 27.9-3.2 38.1l-29.8 29.8c-5.6 5.6-13 8.7-20.9 8.7-6.2 0-12.2-1.9-17.2-5.5l-27.7-19.8c-10.4 5.5-21.3 10-32.6 13.5l-5.7 33.6c-2.4 14.3-14.7 24.7-29.2 24.7h-42.2c-14.5 0-26.8-10.4-29.2-24.7l-5.6-33.6c-10.9-3.4-21.5-7.7-31.6-13l-28.1 20c-5 3.6-10.9 5.5-17.1 5.5-7.9 0-15.3-3.1-20.9-8.7l-29.8-29.8c-10.3-10.2-11.6-26.3-3.2-38.1l19.7-27.4c-5.6-10.4-10.2-21.3-13.7-32.5l-34-5.8c-14.3-2.4-24.7-14.7-24.7-29.2v-42.1c0-14.5 10.4-26.8 24.7-29.2l33.2-5.6c3.4-11.3 7.8-22.2 13.3-32.7l-20-28.1c-8.4-11.8-7-27.9 3.2-38.1l29.9-29.8c5.5-5.6 13-8.7 20.9-8.7 6.2 0 12.2 1.9 17.2 5.5l27.5 19.8c10.4-5.6 21.3-10.2 32.5-13.7l5.8-34c2.4-14.3 14.7-24.7 29.2-24.7h42.1c14.5 0 26.8 10.4 29.2 24.7l5.6 33.2c11.7 3.5 23 8.2 33.8 13.9l27.8-19.8c5-3.6 10.9-5.5 17.1-5.5 7.9 0 15.3 3.1 20.9 8.7l29.8 29.8c10.3 10.2 11.6 26.3 3.2 38.1l-19.8 27.7c5.5 10.4 10 21.3 13.5 32.6l33.6 5.7c14.3 2.4 24.7 14.7 24.5 29.2zm-26.7 42.1v-42.1c0-1.3-0.9-2.4-2.2-2.6l-42-7.1c-5.2-0.8-9.5-4.7-10.8-9.9-3.8-14.7-9.6-28.8-17.4-41.9-2.7-4.6-2.5-10.4 0.6-14.7l24.7-34.7c0.7-1.1 0.6-2.5-0.3-3.4l-29.8-29.8c-0.7-0.7-1.5-0.8-1.9-0.8-0.5 0-1 0.2-1.5 0.5l-34.5 24.8c-4.4 3.1-10.1 3.3-14.7 0.6-13.4-7.9-27.8-13.8-42.9-17.6-5.2-1.3-9.1-5.6-10-10.9l-7-41.7c-0.2-1.3-1.3-2.2-2.6-2.2h-42.1c-1.3 0-2.4 0.9-2.6 2.2l-7.2 42.3c-0.9 5.2-4.8 9.4-9.9 10.8-14.7 3.8-28.8 9.8-41.8 17.6-4.6 2.7-10.4 2.5-14.8-0.6l-34.5-24.6c-0.4-0.3-0.9-0.5-1.5-0.5-0.5 0-1.2 0.1-1.9 0.8l-29.8 29.8c-0.9 0.9-1 2.4-0.3 3.4l24.9 35c3.1 4.3 3.4 10 0.7 14.6-7.7 13.1-13.4 27.3-17.1 42-1.3 5.2-5.6 9.1-10.9 10l-41.7 7c-1.3 0.2-2.2 1.3-2.2 2.6v42.1c0 1.3 0.9 2.4 2.2 2.6l42.3 7.2c5.2 0.9 9.4 4.8 10.8 9.9 3.8 14.7 9.8 28.8 17.6 41.8 2.7 4.6 2.5 10.4-0.6 14.8l-24.6 34.5c-0.7 1.1-0.6 2.5 0.3 3.4l29.8 29.8c0.7 0.7 1.5 0.8 1.9 0.8 0.5 0 1-0.2 1.5-0.5l35-24.9c2.3-1.7 5.1-2.5 7.8-2.5 2.3 0 4.7 0.6 6.8 1.8 12.9 7.4 26.7 13.1 41 16.8 5.1 1.3 9 5.5 9.9 10.8l7 42c0.2 1.3 1.3 2.2 2.6 2.2h42.1c1.3 0 2.4-0.9 2.6-2.2l7.1-42c0.8-5.2 4.7-9.5 9.9-10.8 14.7-3.8 28.8-9.6 41.9-17.4 4.6-2.7 10.4-2.5 14.7 0.6l34.7 24.7c0.4 0.3 0.9 0.5 1.5 0.5 0.5 0 1.2-0.1 1.9-0.8l29.8-29.8c0.9-0.9 1-2.4 0.3-3.4l-24.7-34.8c-3.1-4.4-3.3-10.1-0.6-14.7 7.8-13.1 13.6-27.2 17.4-41.9 1.3-5.1 5.5-9 10.8-9.9l42-7c1.3-0.2 2.2-1.3 2.2-2.6z"/>
			<path id="Layer" fill-rule="evenodd" class="s0" d="m342.7 239.3c0 57-46.3 103.3-103.3 103.3-57 0-103.3-46.3-103.3-103.3 0-57 46.3-103.3 103.3-103.3 57 0 103.3 46.3 103.3 103.3zm-27 0c0-42.1-34.2-76.3-76.3-76.3-42.1 0-76.3 34.2-76.3 76.3 0 42.1 34.2 76.3 76.3 76.3 42.1 0 76.3-34.2 76.3-76.3z"/>
		</g>
	</g>
	<g id="Layer">
	</g>
	<g id="Layer">
	</g>
	<g id="Layer">
	</g>
	<g id="Layer">
	</g>
	<g id="Layer">
	</g>
	<g id="Layer">
	</g>
	<g id="Layer">
	</g>
	<g id="Layer">
	</g>
	<g id="Layer">
	</g>
	<g id="Layer">
	</g>
	<g id="Layer">
	</g>
	<g id="Layer">
	</g>
	<g id="Layer">
	</g>
	<g id="Layer">
	</g>
	<g id="Layer">
	</g>
</svg>