<svg width="16" height="18" fill="none" xmlns="http://www.w3.org/2000/svg"><path d="M15.76 12.912a10.56 10.56 0 0 0-3.524-2.448A10.792 10.792 0 0 0 8 9.599c-1.458 0-2.9.294-4.236.865A10.56 10.56 0 0 0 .24 12.912a.894.894 0 0 0-.24.6v3.6a.89.89 0 0 0 .275.629c.172.166.405.259.648.259h14.154c.245 0 .48-.095.653-.264A.889.889 0 0 0 16 17.1v-3.6a.894.894 0 0 0-.24-.588ZM8 8.4c2.379 0 4.308-1.88 4.308-4.2C12.308 1.88 10.379 0 8 0 5.62 0 3.692 1.88 3.692 4.2c0 2.32 1.929 4.2 4.308 4.2Z" fill="#fff"/></svg>