<svg xmlns="http://www.w3.org/2000/svg" viewBox="0 0 512 512"><path d="M139.54 425.38c-27.12-5.5-55.26-4.71-81.38 2.28l-31.94 8.56c-4.5 1.2-7.55-1.22-8.65-2.32s-3.52-4.14-2.31-8.64l9.5-35.44c6.85-25.57 7.98-52.21 3.27-77.05-1.87-9.86-2.82-20.36-2.82-31.2s.95-21.36 2.82-31.22c4.7-24.83 3.58-51.47-3.28-77.04l-9.5-35.44a8.8 8.8 0 012.32-8.65 8.8 8.8 0 018.65-2.32l31.94 8.56a175.52 175.52 0 0056.7 5.57 7.47 7.47 0 10-.95-14.9 160.63 160.63 0 01-51.89-5.1l-31.93-8.55a23.64 23.64 0 00-23.07 6.18 23.64 23.64 0 00-6.18 23.07l9.5 35.44c6.27 23.42 7.31 47.76 3.02 70.4-2.04 10.78-3.08 22.21-3.08 34s1.04 23.2 3.08 33.98c4.3 22.64 3.25 46.99-3.03 70.4L.83 421.4a23.64 23.64 0 006.19 23.07 23.62 23.62 0 0023.07 6.18l31.93-8.55c23.9-6.4 49.68-7.13 74.55-2.08a7.47 7.47 0 002.97-14.63z"/><path d="M501.67 385.95c-6.28-23.41-7.32-47.76-3.03-70.4 2.04-10.77 3.08-22.21 3.08-33.99s-1.04-23.21-3.08-33.99c-4.3-22.64-3.25-46.98 3.03-70.4l9.5-35.44a23.64 23.64 0 00-6.19-23.07 23.65 23.65 0 00-23.07-6.18l-31.93 8.56c-27.32 7.32-56.62 7.2-84.74-.33-31.6-8.46-68.35-12.75-109.24-12.75s-77.65 4.3-109.24 12.75a7.46 7.46 0 103.86 14.43C180.96 127 216.41 122.9 256 122.9s75.04 4.11 105.38 12.24c30.64 8.2 62.62 8.31 92.46.32l31.94-8.56a8.8 8.8 0 018.64 2.32 8.8 8.8 0 012.32 8.65l-9.5 35.44c-6.85 25.57-7.98 52.2-3.27 77.04 1.87 9.86 2.81 20.36 2.81 31.21s-.94 21.35-2.81 31.21c-4.71 24.83-3.58 51.48 3.28 77.05l9.5 35.44a8.8 8.8 0 01-2.33 8.64 8.8 8.8 0 01-8.64 2.32l-31.94-8.56c-29.84-8-61.81-7.88-92.46.33a304.98 304.98 0 01-15.81 3.77 100.65 100.65 0 0011.1-30.76c16.05-5.15 28.03-25.68 29.36-43.69 1-13.62-4.3-21.84-8.93-26.34a30.58 30.58 0 00-4.98-3.89v-46.87c0-46.44-37.78-84.23-84.23-84.23h-63.13c-46.44 0-84.23 37.79-84.23 84.23v46.47a30.7 30.7 0 00-5.63 4.29c-4.63 4.5-9.93 12.72-8.93 26.34 1.4 18.95 14.32 39.73 30.75 44.08 8.97 47.56 50.96 82.74 99.94 82.74 30.23 0 57.78-13.41 76.56-34.86a338.25 338.25 0 0032.02-6.86c28.12-7.53 57.42-7.64 84.74-.32l31.93 8.55a23.62 23.62 0 0023.07-6.18 23.64 23.64 0 006.19-23.07zM256.66 469.2c-43.44 0-80.42-32.42-86.04-75.41a7.44 7.44 0 00-7.5-6.5c-9.7.14-21.14-15.84-22.26-31.08-.46-6.32 1.03-11.22 4.45-14.54 3.24-3.15 8.28-5.06 14.57-5.53.68-.05 1.34-.05 2.02 0a7.47 7.47 0 007.98-7.45v-31.9a23.6 23.6 0 0123.57-23.57h79.47a7.46 7.46 0 100-14.93h-79.47c-19.1 0-35 14-37.99 32.28v-10.35a69.38 69.38 0 0169.3-69.3h63.13a69.38 69.38 0 0169.3 69.3v7.17a38.56 38.56 0 00-37.33-29.1h-10.44a7.46 7.46 0 100 14.94h10.44a23.6 23.6 0 0123.57 23.56v31.86a7.47 7.47 0 007.46 7.46h.04c.47 0 .85.01 1.2.04 6.28.46 11.32 2.37 14.56 5.52 3.42 3.32 4.91 8.22 4.45 14.55-1.09 14.75-11.96 30.42-21.53 31.05a7.47 7.47 0 00-6.92 6.49c-5.6 43-42.59 75.44-86.03 75.44z"/><path d="M273.36 395.35c-4.57 3.96-10.74 6.14-17.36 6.14s-12.79-2.18-17.36-6.14a7.46 7.46 0 10-9.77 11.29c7.28 6.3 16.92 9.78 27.13 9.78s19.85-3.47 27.13-9.78a7.46 7.46 0 10-9.77-11.29zM316.66 341.5a7.46 7.46 0 00-9.35 4.9c-1.1 3.56-4.36 5.95-8.1 5.95s-7-2.4-8.1-5.95a7.47 7.47 0 00-14.26 4.44c3.07 9.84 12.05 16.44 22.36 16.44s19.3-6.6 22.36-16.44a7.46 7.46 0 00-4.9-9.35zM236.46 350.84a7.47 7.47 0 10-14.26-4.44c-1.1 3.56-4.36 5.95-8.1 5.95s-7-2.4-8.1-5.95a7.47 7.47 0 00-14.26 4.44 23.31 23.31 0 0022.36 16.44c10.3 0 19.3-6.6 22.36-16.44zM379.34 228.41c0 6.13 3.52 8.14 9.55 8.14h44.7c4.73 0 8.55-2.41 8.55-6.93s-3.82-6.93-8.54-6.93h-32.15l37.87-45.01a9.18 9.18 0 002.31-5.93c0-5.73-3.41-7.53-7.63-7.53h-43.4c-4.73 0-8.54 2.4-8.54 6.93s3.81 6.93 8.54 6.93h28.73l-37.27 44c-1.51 1.81-2.72 3.72-2.72 6.33zM416 107.47h35c2.53 0 5.54-1.41 5.54-5.37s-3-5.36-5.55-5.36h-22.58l25.4-27.84c1.32-1.41 2.17-3.1 2.17-4.61 0-3.58-1.98-6.02-5.65-6.02H417.7c-2.54 0-5.55 1.4-5.55 5.36s3 5.36 5.55 5.36h19.85l-25.87 28.13a7.06 7.06 0 00-1.79 4.98c0 2.73 2.07 5.37 6.12 5.37zM360.9 64.68h26.2c1.9 0 4.15-1.05 4.15-4.01s-2.26-4.01-4.16-4.01H370.2l19-20.84a5.4 5.4 0 001.63-3.45c0-2.67-1.48-4.5-4.23-4.5h-24.42c-1.9 0-4.16 1.05-4.16 4.01s2.26 4.01 4.16 4.01h14.85l-19.36 21.05a5.29 5.29 0 00-1.34 3.73c0 2.04 1.55 4.01 4.58 4.01z"/></svg>