<svg viewBox="0 0 500.98 500.98" xmlns="http://www.w3.org/2000/svg"><path d="M377.3 218.62a10.14 10.14 0 00-1.8-3.63 316.42 316.42 0 00-20.02-33.96 124.11 124.11 0 01-9.85-17.69c-5.3-11.67-23.53-3.44-18.22 8.25 3.26 7.16 7.1 14.07 11.45 20.54a327.13 327.13 0 0114.73 24.02c-67.2 27.05-150.06 38.9-217.85 6.63 18.7-41.78 36.93-100.8 27.45-159.39-6.23-38.53-21.6-58.73-22.25-59.57-7.84-10.14-23.72 2-15.85 12.17.13.17 13.36 17.96 18.58 52 8.79 57.32-11.46 115.87-30 154.92-1.59 3.23-12.67 28.42-5.26 86.73 5.55 43.6 19.12 86.03 40.36 126.09 20.87 39.36 23.58 52.31 23.78 56.06.67 12.8 20.65 11.95 19.97-1.05-.22-4.17-.88-16.84-26.07-64.35-20.1-37.93-32.96-78.05-38.2-119.26-3.27-25.74-2.62-45.22-.82-58.27 54.02 37.43 90.7 79.12 100.24 90.46-2.64 66.88-7.08 139.86-10.1 148.54-4.38 12.05 14.42 18.85 18.8 6.8 5.41-14.88 10.08-124.25 11.28-154.5 10.68-12.54 63.48-72.97 115.43-104.85 16.94 38.97 12.44 63.9 8.05 88.19-8.43 46.65-27.88 91.29-44.8 135.4-7.1 18.51-10.27 26.83-11.05 29.9-3.15 12.37 16.1 17.33 19.38 4.93.6-2.26 5.34-14.62 10.35-27.7 17.37-45.3 37.13-91.07 45.8-138.99 4.81-26.6 10.58-58.5-13.5-108.42zM238.05 320.67c-11.5-13.18-35.29-38.63-68.71-65.46 45.14 10.46 92.62 7.93 137.42-2.97-30.48 26.02-56.31 54.27-68.7 68.43zM322.83 98.85a10.15 10.15 0 0010.56-9.4c2.38-41.6 17.02-75.16 17.17-75.5 5.2-11.7-13.08-19.8-18.29-8.07-.66 1.49-16.25 37.05-18.85 82.43a9.99 9.99 0 009.41 10.54z"/><path d="M232.38 186.18a10 10 0 0010-9.99V155.2c0-12.79-20-12.81-20 0v21a10 10 0 0010 9.98zM334.28 123.33a10.07 10.07 0 00-10.98-4.06 10.06 10.06 0 00-7.32 9.36c-.2 8.89 11.03 13.62 17.21 7.15a10.06 10.06 0 001.1-12.44z"/></svg>