<svg xmlns="http://www.w3.org/2000/svg" viewBox="0 0 490.65 490.65"><path d="M437.33 42.65h-128a10.67 10.67 0 000 21.34h128a10.67 10.67 0 000-21.34z"/><path d="M444.88 45.79L402.21 3.12a10.67 10.67 0 00-15.08 15.08l35.12 35.12-35.14 35.13a10.67 10.67 0 0015.1 15.09l42.67-42.67a10.67 10.67 0 000-15.08zM160 42.65H32A10.67 10.67 0 0032 64h128a10.67 10.67 0 000-21.34z"/><path d="M47.08 53.32L82.19 18.2A10.67 10.67 0 0067.11 3.12L24.44 45.79a10.67 10.67 0 000 15.08l42.67 42.67a10.72 10.72 0 007.55 3.11 10.67 10.67 0 007.53-18.22L47.08 53.32zM426.66 213.32a42.52 42.52 0 00-23.72 7.2 42.77 42.77 0 00-40.28-28.54 42.52 42.52 0 00-23.72 7.22 42.77 42.77 0 00-40.28-28.55c-7.76 0-15.06 2.1-21.33 5.74v-69.74a42.71 42.71 0 00-42.67-42.67A42.71 42.71 0 00192 106.65v181.33l-37.07-27.8c-21.98-16.48-53.25-14.29-72.73 5.17a32.02 32.02 0 000 45.25l151.92 151.93a95.42 95.42 0 0067.9 28.12H352c64.69 0 117.34-52.63 117.34-117.33V255.98a42.71 42.71 0 00-42.67-42.66zm21.33 160c0 52.93-43.07 96-96 96h-49.98a74.19 74.19 0 01-52.82-21.87L97.28 295.51a10.67 10.67 0 010-15.08 34.41 34.41 0 0124.32-9.98c7.2 0 14.46 2.24 20.54 6.8l54.12 40.6a10.68 10.68 0 0017.07-8.53V106.65c0-11.75 9.56-21.33 21.33-21.33S256 94.9 256 106.65v160a10.67 10.67 0 0021.33 0v-53.33c0-11.76 9.56-21.33 21.33-21.33S320 201.56 320 213.31v53.33a10.67 10.67 0 0021.34 0v-32c0-11.75 9.56-21.33 21.33-21.33S384 222.9 384 234.65v32a10.67 10.67 0 0021.34 0v-10.67c0-11.75 9.56-21.33 21.33-21.33S448 244.23 448 255.98v117.34z"/></svg>