<svg xmlns="http://www.w3.org/2000/svg" viewBox="0 0 512 512" width="46px" height="46px" fill="#a1a769"><path d="M492.05 96.64a15 15 0 00-5.86-24.84l-95.46-31.82a15 15 0 00-18.97 18.98l31.82 95.46a15 15 0 0024.83 5.86l20.4-20.4C470.59 175.51 482 215.32 482 256c0 124.62-101.38 226-226 226a15 15 0 000 30c140.96 0 256-115.05 256-256 0-48.6-14.3-96-41.44-137.87zm-67.69 25.27L409.7 77.93l43.98 14.66zM15.38 412.31a15 15 0 005.87 24.84l95.45 31.82A15 15 0 00135.68 450l-31.82-95.46a15 15 0 00-24.84-5.87l-18.65 18.65C40.46 332.82 30 294.68 30 256 30 131.38 131.38 30 256 30a15 15 0 000-30C115.04 0 0 115.05 0 256c0 46.58 13.28 92.37 38.5 133.2zm67.7-25.26l14.65 43.97-43.97-14.66z"/><path d="M286 61c-38.85 0-70.9 29.7-74.63 67.58a134.44 134.44 0 00-13.59 5.6A44.86 44.86 0 00166 121c-24.81 0-45 20.19-45 45 0 12.4 5.04 23.63 13.17 31.78A134.92 134.92 0 00121 256c0 13.1 1.87 25.97 5.54 38.38A44.72 44.72 0 00121 316a45.05 45.05 0 0049.83 44.74A134.62 134.62 0 00256 391c15.64 0 30.88-2.64 45.4-7.84A59.61 59.61 0 00331 391c33.08 0 60-26.92 60-60a59.61 59.61 0 00-7.84-29.6A134.25 134.25 0 00391 256c0-35.2-13.54-67.29-35.69-91.34A74.98 74.98 0 00361 136c0-41.36-33.65-75-75-75zm0 30c24.81 0 45 20.19 45 45 0 2.5-.23 4.96-.63 7.39a134.21 134.21 0 00-87-21.79A45.07 45.07 0 01286 91zm-120 60c8.27 0 15 6.73 15 15s-6.73 15-15 15-15-6.73-15-15 6.73-15 15-15zm-15 165c0-8.27 6.73-15 15-15s15 6.73 15 15-6.73 15-15 15-15-6.73-15-15zm180 45c-16.54 0-30-13.46-30-30s13.46-30 30-30 30 13.46 30 30-13.46 30-30 30zm27.73-83.18A59.6 59.6 0 00331 271c-33.08 0-60 26.92-60 60 0 10 2.47 19.43 6.82 27.73a105.45 105.45 0 01-77.48-13.69A44.8 44.8 0 00211 316a45.05 45.05 0 00-58.6-42.9 104.93 104.93 0 018.83-62.36 45.05 45.05 0 0049.52-49.52A104.93 104.93 0 01256 151c57.9 0 105 47.1 105 105 0 7.41-.76 14.7-2.27 21.82z"/></svg>