<svg width="44" height="39" fill="none" xmlns="http://www.w3.org/2000/svg"><path d="M26.933.08a4.129 4.129 0 0 1 3.24 4.856l-.198.98a20.49 20.49 0 0 1-2.475 6.462h12.375a4.126 4.126 0 0 1 .318 8.242 4.124 4.124 0 0 1-2.286 6.806c.378.619.593 1.358.593 2.14a4.119 4.119 0 0 1-2.844 3.919c.06.283.094.584.094.893a4.126 4.126 0 0 1-4.125 4.125h-6.316a8.267 8.267 0 0 1-4.58-1.383l-3.31-2.209a8.25 8.25 0 0 1-3.669-6.866v-9.557a8.279 8.279 0 0 1 3.094-6.445l.636-.507a12.345 12.345 0 0 0 4.4-7.236l.197-.98A4.129 4.129 0 0 1 26.933.08ZM2.75 13.754h5.5a2.747 2.747 0 0 1 2.75 2.75v19.25a2.747 2.747 0 0 1-2.75 2.75h-5.5A2.747 2.747 0 0 1 0 35.753v-19.25a2.747 2.747 0 0 1 2.75-2.75Z" fill="#F46B80"/></svg>