<svg xmlns="http://www.w3.org/2000/svg" viewBox="0 0 106 19"><path fill-rule="evenodd" fill="#FFF" d="M105.37 16.3c-.2.13-.46.2-.77.2-.29 0-.55-.06-.79-.15a1.4 1.4 0 01-.64-.59c-.2-.31-.3-.82-.3-1.52l.03-1.1c0-.2-.01-.34-.04-.42-.02-.08-.07-.12-.13-.12-.2 0-.65.28-1.33.82a18.28 18.28 0 00-2.38 2.3 2.1 2.1 0 01-.37.33.59.59 0 01-.31.1.61.61 0 01-.41-.16l-.26-.22a.43.43 0 01-.17-.33l.05-.22.55-1.58c.35-.82.56-1.34.62-1.55.07-.22.06-.32-.02-.3-.15.02-.35.1-.6.23-.26.13-.42.26-.48.4-.03 0-.14.08-.31.24-.18.17-.33.3-.46.38-.14.2-.5.58-1.06 1.13l-.57.55a6.5 6.5 0 00-1.01 1.17c-.22.3-.35.43-.38.43-.5 0-.81-.23-.94-.72a.92.92 0 01-.1-.45c0-.26.1-.79.3-1.59.14-.54.22-.88.23-1l.12-.48c.03-.21.1-.46.22-.75l.57-1.37c.16-.44.24-.78.24-1 0-.21.08-.38.22-.5s.3-.18.48-.18c.22 0 .42.1.58.27a1 1 0 01.24.7c0 .27-.07.55-.2.83l-.26.65c-.13.26-.3.67-.5 1.24s-.3.88-.3.95c.02.04.08.03.18-.04.1-.07.2-.16.33-.28.15-.14.31-.28.5-.43A11.37 11.37 0 0199 10.08c.2 0 .36.03.46.09.1.05.22.15.35.29l.29.3c.14.14.22.35.22.62 0 .08-.02.18-.05.31a25.12 25.12 0 01-.48 1.52 49.75 49.75 0 011.39-1.18c.8-.63 1.43-.94 1.9-.94.33 0 .62.18.86.53.14.14.23.3.26.44.04.16.05.36.05.62v.6c.02.1.03.3.03.57l.06.75c.02.36.06.57.1.62.08.1.36.18.82.26.29.05.43.18.43.39 0 .14-.1.29-.31.43zM92.39 6.53c-.28.37-.53.55-.77.55-.16 0-.34-.08-.53-.24-.11-.1-.2-.3-.29-.57-.08-.27-.08-.4 0-.4.13-.03.28-.17.45-.43.16-.26.24-.48.22-.66 0-.06.03-.12.08-.18.04-.05.1-.1.16-.1a.66.66 0 01.34-.13c.27 0 .52.2.74.58.1.2.15.39.15.55 0 .14-.04.3-.12.45a3.4 3.4 0 01-.43.58zm-1.2 3.99c.1.1.14.24.14.43 0 .3-.1.67-.31 1.1a5.5 5.5 0 00-.41 1.2 10.54 10.54 0 00-.6 1.78c-.06.29-.15.52-.26.7-.1.44-.19.75-.27.93-.08.18-.17.27-.26.27-.11 0-.27-.12-.46-.34a1.32 1.32 0 01-.33-.96c0-.23.04-.42.12-.58 0-.08.01-.17.04-.29.04-.1.05-.18.05-.21-.01-.1.05-.36.2-.8.28-.63.67-1.76 1.15-3.38 0-.08.03-.14.1-.2.06-.06.15-.1.28-.11l.26-.05c.1 0 .18.04.26.11.07.07.17.2.3.4zm-1.76-5.88c-.04.1-.1.24-.19.4a39.8 39.8 0 01-.89 1.98c0 .04-.03.14-.1.3-.06.14-.11.3-.16.46a31.6 31.6 0 00-1.03 2.42c0 .18-.04.3-.12.39-.05 0-.08.03-.1.1a5.7 5.7 0 01-.4 1.43l-.22.7c-.3 1.04-.52 1.8-.64 2.28a5.2 5.2 0 00-.18 1.22c0 .4-.01.66-.03.77a.4.4 0 01-.2.27.9.9 0 01-.25.02c-.25 0-.45-.13-.6-.38a2.24 2.24 0 01-.21-1.06c0-.37.04-.8.14-1.27.18-.47.26-.8.26-1.01.05-.3.22-.85.5-1.64.28-.8.46-1.27.54-1.43.06 0 .12-.05.16-.16.05-.1.08-.22.08-.35 0-.14.02-.29.08-.44a.89.89 0 01.18-.32c0-.05.02-.14.06-.27.04-.13.06-.21.06-.26 0-.03.02-.1.06-.18a.54.54 0 00.06-.2c.26-.5.7-1.62 1.34-3.35a21 21 0 00.96-2.9c0-.25.13-.38.39-.38.08-.08.2-.12.38-.12l.39.38a.8.8 0 01.21.35 2.34 2.34 0 01-.05 1.17c-.06.17-.22.53-.48 1.08zM83.7 6.37c-.4.17-.68.26-.84.26-.11 0-.19-.04-.23-.12a.75.75 0 01-.03-.38c0-.15.05-.31.15-.5.1-.18.34-.48.7-.9.66-.94 1-1.65 1-2.11 0-.27-.13-.42-.37-.43a4.14 4.14 0 00-1.33.12c-.71.13-1.07.23-1.07.31a.5.5 0 010 .08c-.02.04-.05.06-.1.04-.06-.02-.65.32-1.77 1a11.6 11.6 0 00-1.73 1.14c-.01.08-.07.16-.18.25-.1.09-.23.16-.37.23-.3.17-.58.43-.84.76a13 13 0 00-.91 1.44 3.67 3.67 0 00-.65 1.76c0 .17.03.32.07.45.08.27.33.6.75 1 .41.39.93.77 1.56 1.14.81.46 1.5.91 2.05 1.35.55.44.9.82 1.04 1.12a2.85 2.85 0 01.48 2.33c-.13.27-.33.54-.6.8-.27.27-.5.39-.7.37-.15.05-.29.11-.4.18-.11.08-.2.13-.29.16-.18.11-.6.2-1.26.28-.66.07-1.27.09-1.83.06l-.97-.3.03-.06c0-.16-.14-.25-.4-.27-.34-.2-.64-.48-.9-.81a3.49 3.49 0 01-.55-.9l-.17-.4c0-.05.03-.09.09-.12l.2-.12c.1-.08.2-.12.31-.12.07 0 .13.04.18.1.06.08.14.2.23.38.2.34.52.6.98.8a4.75 4.75 0 003.6-.13c.42-.17.72-.35.92-.51a.75.75 0 00.28-.57c0-.19-.08-.42-.26-.7a1.18 1.18 0 00-.2-.34c-.1-.1-.22-.23-.38-.37-.1-.08-.27-.26-.55-.53a5.2 5.2 0 01-.79-.38l-.5-.25a6.16 6.16 0 01-1.5-1 4.76 4.76 0 01-1.14-1.23c-.23-.2-.4-.5-.53-.86a3.6 3.6 0 01.17-2.78c.19-.44.61-1.04 1.27-1.8a9.26 9.26 0 011.51-1.52l.63-.6c.01-.06.03-.1.07-.1l.07-.02.5-.23c.3-.12.6-.33.91-.63a26.4 26.4 0 012.63-1.14A5.24 5.24 0 0183.4.7c.6.03 1.12.22 1.55.56.42.35.67.8.75 1.36.03.1.05.24.05.43 0 .58-.2 1.2-.63 1.86a4.18 4.18 0 01-1.41 1.46zm-16.93 6.47h-4.74l-1.02 2.52H58.5l4.8-11.28h2.27l4.8 11.28h-2.58l-1.02-2.52zm-2.37-5.8l-1.49 3.63h2.98L64.4 7.04zm-10.1 3.82h-4.54v4.5H47.3V4.16h2.46v4.43h4.55V4.16h2.46v11.2h-2.46v-4.5zm-13.48 2.42c.6 0 1.11-.11 1.55-.32.44-.22.9-.55 1.4-1l1.56 1.68a5.97 5.97 0 01-1.98 1.44c-.7.31-1.58.47-2.61.47A5.65 5.65 0 0135 9.75a5.65 5.65 0 015.83-5.79c.98 0 1.8.16 2.45.48.66.31 1.3.76 1.89 1.35l-1.47 1.7a5.59 5.59 0 00-1.35-.96c-.43-.2-.93-.3-1.53-.3a3 3 0 00-2.33 1.02 3.6 3.6 0 00-.92 2.5c0 .99.3 1.82.92 2.5a3 3 0 002.33 1.03zm-10.14 2.08H28.2V6.43h-3.4V4.16h9.27v2.27h-3.4v8.93zm-7.94 0l-1.03-2.52h-4.73l-1.03 2.52h-2.5l4.8-11.28h2.27l4.8 11.28h-2.58zm-3.4-8.32l-1.48 3.63h2.98l-1.5-3.63zm-10.07 1l-3.15 4.79h-.07L2.93 8.09v7.27H.51V4.16h2.66l2.95 4.73 2.94-4.73h2.65v11.2H9.28V8.04z"/></svg>