<svg xmlns="http://www.w3.org/2000/svg" viewBox="0 0 512 512"><path d="M464.9 457.26l-20.5-6.91-6.22-6.28 8.83-116a56.7 56.7 0 00-5.7-29.4 55.28 55.28 0 00-49.78-31.07c-1.53 0-95.22 7.24-95.22 7.24v-48.56c3.78-2.78 9.5-7.82 12.65-15.24a40.23 40.23 0 00-.78-32.05c-6.95-15.45-20.76-20.14-35.75-25.2l-16.59-16.76v-19.39h2.12a18.2 18.2 0 0018.12-18.23V88.78l6.84-3.8a8 8 0 003.14-10.8l-9.15-16.9v-2.39c0-17.8-12.85-34.04-29.88-37.78-17.26-3.78-34.8-.93-48.11 7.82-11.11 7.31-18.33 20.45-19.57 34.59l-4.87 1.64a8 8 0 00-5.45 7.58v51.13a22.53 22.53 0 01-22.34 22.67h-7.35l4.4-8.9a8 8 0 00.83-3.55V68.74a22.54 22.54 0 0122.35-22.68v-16a38.56 38.56 0 00-38.35 38.68v59.48L119.29 147a8 8 0 007.17 11.55h20.23a38.55 38.55 0 0038.34-38.67V90.39a75.3 75.3 0 0013.55 21.5l-5.98 24.16a28.27 28.27 0 00-7.5 6.24l-54.48 64.25-50.46 52.56-6.44-6.4a20.66 20.66 0 00-34.24 20.94l4.97 15.55-5.95 10.92a8 8 0 00-.57 6.33l10.12 30.68a8.1 8.1 0 0011.89 4.24l46.32-29.46a8.04 8.04 0 001.25-.99l3.34-3.21a14.03 14.03 0 011.15 5.58c0 5.74-4.38 10.83-7.5 15.5a8 8 0 00-.66 7.72l17.4 38.82-29.26 10.14-11.65-36.48-15.24 4.87 32.42 101.5A58 58 0 00152.82 496a59.08 59.08 0 0045.55-22.24l86.81-110.65.2-.27a132.5 132.5 0 0035.06-6.76l61.02-20.56v28.15h16v-39.29a8 8 0 00-10.56-7.58l-71.57 24.12a116.46 116.46 0 01-21.67 5.07 59.6 59.6 0 002.65-17.54v-37.57s94.13-7.28 95.22-7.28a39.37 39.37 0 0135.44 22.16 40.69 40.69 0 014.08 21.1l-5.42 71.33h-28.17v-18.52h-16v96.44A19.85 19.85 0 00401.22 496h57.41a19.9 19.9 0 006.28-38.74zM195.67 67.64c-1-11.64 1.9-22.66 12.04-29.34 7.9-5.2 18.03-7.51 28.56-6.66L224.49 47.8a18.18 18.18 0 00-11.88 1.06 18.65 18.65 0 00-10.5 12.63 19.15 19.15 0 004.79 17.85l2.88 2.96L205 94.1c.25-.62-8.54-17.13-9.34-26.46zm11.72 42h-.01zM57.62 262.95a4.64 4.64 0 014.82 1.1l5.25 5.22-10.6 6.9-2.37-7.4a4.66 4.66 0 012.9-5.82zM97 298.83l-36.97 23.51-5.8-17.62 6.38-11.74 23.82-15.51a7.95 7.95 0 001.4-1.16l56.52-58.87.33-.37 54.64-64.44a12.13 12.13 0 019.26-4.31h21.04v-16h-17.6l5-20.2 11.55-28.68a8 8 0 00-1.69-8.57l-6.5-6.7a3.04 3.04 0 01-.73-2.83 2.7 2.7 0 011.5-1.88 2.23 2.23 0 012.03.07l2.28 1.2a8 8 0 0010.2-2.35l18.53-25.4a23.56 23.56 0 018.73 17.91c0 2.64-.34 5.82.96 8.22l6.36 11.73-4.04 2.25a8 8 0 00-4.11 6.99v15.33a2.18 2.18 0 01-2.12 2.23h-10.12a8 8 0 00-8 8v30.68a8 8 0 002.31 5.63l17.8 17.98c-1.46 19.31-16.54 32.47-43.92 38.33q-1.14-2-2.16-4.06l9.8-11.89-12.35-10.18-50.28 61zM120.25 334c-.33-.74 4.76-7.69 5.36-9a28.83 28.83 0 002.39-11.72 30.25 30.25 0 00-5.29-17.01l49.76-47.93a8.1 8.1 0 00.62-.67l29.8-36.15c.8 1.37 26.1 42.28 26.1 42.28l-8.2 24.81-5.1 3.87a71.7 71.7 0 00-26.93 71.14l-34.62 55.98zm160.06-5.55a43.6 43.6 0 01-6.25 22.49c-.47.8-1 1.62-1.6 2.46l-86.68 110.49A43.13 43.13 0 01152.82 480a42.06 42.06 0 01-40.07-29.52l-15.9-49.78 30.96-10.73 17.9 39.94a8 8 0 006.77 4.7q.27.03.53.03a8 8 0 006.8-3.8l44.26-71.58a8 8 0 00.96-6.13 55.74 55.74 0 0120.32-57.9l4.95-3.75h50.01zm0-52.97h-41.64l6.66-20.17a8 8 0 00-.76-6.66l-5.04-8.3h40.78zm4.4-60.62a8.55 8.55 0 00-4.4 7.26v2.23h-50.49l-4.72-7.79c35.38-9.24 46.82-29.05 49.94-45l6.15 2.07a21.49 21.49 0 0112.43 11.9c5.09 11.36 1.36 22.56-8.91 29.33zM458.63 480h-57.41a3.83 3.83 0 01-3.76-3.89v-61.92h26.95l-2.46 32.3a8 8 0 002.3 6.24l10.1 10.22a7.99 7.99 0 003.13 1.95l22.31 7.52a3.78 3.78 0 011.87 1.4 3.94 3.94 0 01.73 2.29 3.83 3.83 0 01-3.76 3.89z"/></svg>