<svg xmlns="http://www.w3.org/2000/svg" viewBox="0 0 512 512"><path d="M353 344.12a10 10 0 00-14.14.14l-.29.29a10 10 0 0014.3 14l.28-.3a10 10 0 00-.15-14.13zM460.57 239.28H434V212.7a10 10 0 10-20 0v26.58h-26.57a10 10 0 100 20H414v26.57a10 10 0 1020 0v-26.57h26.57a10 10 0 100-20z"/><path d="M456.7 167.58C447.34 98.55 389.64 46.9 321.14 46.9c-34.58 0-66.92 12.89-92.15 36.51-25.23-23.62-57.57-36.51-92.15-36.51C61.4 46.9 0 109.75 0 187c0 15.27 4.45 32.38 13.31 51.27H10a10 10 0 100 20h13.96c18.68 31.62 48.22 67.57 88.49 107.62 54.58 54.27 109.92 96.73 110.48 97.15a9.98 9.98 0 0012.14 0c.43-.32 42.75-32.78 89.66-77a10 10 0 10-13.72-14.56 1306.65 1306.65 0 01-82 70.92c-15.7-12.42-59.4-47.87-102.6-90.83-34.58-34.4-61.05-65.75-78.95-93.3h89.53a10 10 0 009.6-7.24l17.48-60.9 48.38 155.01a10 10 0 0019.1 0l26.79-85.87h44.64a10 10 0 100-20h-52a10 10 0 00-9.54 7.02L222 308.59 173.2 152.3a10 10 0 00-19.16.22l-24.6 85.76H35.62C25.3 218.75 20 201.55 20 187 20 120.78 72.42 66.9 136.85 66.9c32.39 0 62.5 13.31 84.8 37.48a10 10 0 0014.7 0c22.3-24.17 52.41-37.48 84.8-37.48 55.7 0 103.07 40.17 114.32 95.12a88.5 88.5 0 00-11.47-.74c-48.52 0-88 39.47-88 88s39.48 88 88 88 88-39.48 88-88c0-36.98-22.93-68.7-55.3-81.7zM424 317.28c-37.5 0-68-30.5-68-68s30.5-68 68-68 68 30.5 68 68-30.5 68-68 68z"/></svg>