<?xml version="1.0" encoding="utf-8"?>
<svg version="1.1" xmlns="http://www.w3.org/2000/svg" xmlns:xlink="http://www.w3.org/1999/xlink"
	 x="0px" y="0px" viewBox="0 0 539.2 50.4">
<path fill="#FFFFFF" d="M23.6,29.8h-6.3v19.6H0V1.1h17.3V26L38.7,1.1h19.4L37,23.8l22.3,25.6H38.4L23.6,29.8z M68.9,49.4V1.1h51
	v11.5H86.1V20h33.5v10.4H86.1V38h33.7v11.5L68.9,49.4L68.9,49.4z M168,14.4v35h-17.3v-35H129V1.1h60.7v13.3H168z M198.1,25.3
	C198.1,4.9,208.3,0,231.9,0c23.7,0,33.9,4.9,33.9,25.3c0,19.5-9.2,25.1-33.9,25.1C207.3,50.5,198.1,44.9,198.1,25.3z M248.4,25.3
	c0-11.4-3.9-13-16.5-13s-16.5,1.5-16.5,13c0,11,3.9,12.8,16.5,12.8C244.6,38.1,248.4,36.3,248.4,25.3z M301.9,33.5h18
	c0.3,5,3.3,6.4,12.7,6.4c10.9,0,12.9-1.5,12.9-4.3c0-2.7-2.5-3.2-6.1-3.7l-19.7-2.8c-11.6-1.6-16.6-5.5-16.6-13.9
	c0-8.6,6-15.1,29.3-15.1c21.8,0,29.1,4.1,29.6,16.4h-17c-0.4-4.8-3.2-5.9-12.3-5.9c-10.9,0-12.3,1.8-12.3,3.7c0,2,1.6,3,5.8,3.6
	l17.9,2.3c12.7,1.7,19,5,19,14c0,10.3-4.8,16.2-30.2,16.2C308.7,50.5,301.9,45.7,301.9,33.5z M374.5,49.4V1.1h17.3v35.5h34.4v12.8
	H374.5z M435.7,49.4V1.1h17.4v48.3H435.7z M483.4,49.4h-17.3V1.1h13.5l23.2,21l23-21h13.4v48.3h-17.4V22.7l-19.2,16.7l-19.3-16.8
	v26.8H483.4z"/>
</svg>