<svg xmlns="http://www.w3.org/2000/svg" viewBox="0 0 512 512" width="46px" height="46px" fill="#a1a769"><path d="M448.17 337.25c-1.58-40.11-18.72-85.96-38.98-119.76-33.57-61.18-31.99-134.07-7.75-197.12a15 15 0 00-28-10.75c-25.73 66.93-28.1 144.68 3.39 210.47-67.82 31-182.77 30.86-242.22 1.16 31.95-65.82 29.95-144 3.95-211.63a15 15 0 00-28 10.75c24.2 62.95 25.93 135.74-7.75 197.11-25.12 41.92-37.7 87.33-38.98 119.77-2.47 61.8 12.55 119.85 43.44 167.86a15 15 0 0025.23-16.21C98.38 435.87 87.1 367.6 97 314.6c72.63 11.22 130.08 73.76 143.83 89.89v92.22a15 15 0 0030 0V404.5c13.76-16.18 71.22-78.86 144.18-89.94 9.85 52.68-1.2 121.02-35.5 174.36a15 15 0 0025.23 16.21c30.9-48.01 45.91-106.06 43.44-167.87zm-192.35 38.88c-23.45-25.58-79.55-78.5-151.4-90.7a250.81 250.81 0 0115.92-37.81c71.2 36.12 198.35 32.95 270.75-1.1a251.37 251.37 0 0116.47 38.86c-71.98 12.08-128.23 65.13-151.74 90.75z"/><ellipse cx="255.82" cy="166" rx="15" ry="14.99"/></svg>