<svg xmlns="http://www.w3.org/2000/svg" viewBox="0 0 512 512" width="46px" height="46px" fill="#a1a769"><path d="M408.07 202.88A56.07 56.07 0 00464 256a8 8 0 008-8V112a56.06 56.06 0 00-54.24-55.95A88.32 88.32 0 00344 16h-16a88.1 88.1 0 00-88 88v20.3a31.99 31.99 0 0016 59.7h1.6a79.37 79.37 0 0038.4 53.26v35.41l-.12.01-24.76 2.3-.87.04A7.98 7.98 0 00264 272h-48a8 8 0 00-8 8v13.7q-1.12 1.11-2.18 2.3H192v-8a8 8 0 00-8-8h-56a8 8 0 00-7.76 6.06l-2.49 9.94H104v-16a8 8 0 00-8-8H48a8 8 0 00-8 8v80a8 8 0 008 8h48a8 8 0 008-8v-16h16.98l7.02 17.54V460a36 36 0 0070.14 11.4l35.73-51.96a68.56 68.56 0 0013.45 31.4l.68 45.28 16-.24-.6-39.88H408v40h16v-45.2a70.14 70.14 0 001.2-83.94c-.5-.76-1.05-1.5-1.65-2.27l-.78-4.78-10.72-64.4 17.17 2.88A32.04 32.04 0 01456 329.92V496h16V329.92a48.01 48.01 0 00-40.12-47.41l-28.26-4.72-26.24-4.31-1.19-.22-.19-.06v-35.94a79.57 79.57 0 0032.07-34.38zM88 352H56v-64h32v64zm16-24v-16h9.75l-1.51 6.06a8 8 0 00.33 4.91l2.01 5.03zm264-40.91V328a32 32 0 01-64 0v-41.47a16.01 16.01 0 008-13.81V244.3a79.7 79.7 0 0048 0v28.9a15.96 15.96 0 008 13.89zM416 168v-32a16 16 0 010 32zm40-56v127.2a40.07 40.07 0 01-32-39.2v-17.01a31.99 31.99 0 008-58.69V104a87.8 87.8 0 00-5.52-30.6A40.06 40.06 0 01456 112zm-200-8a72.08 72.08 0 0172-72h16a72.27 72.27 0 0162 35.4c.1.24.22.46.35.68A71.83 71.83 0 01416 104v16h-3.06l-29.79-59.58A8 8 0 00371 57.75c-.62.5-63.24 50.24-108.78 60.45q-3.23.74-6.22 1.17zm-16 48a16.02 16.02 0 0116-16v32a16.02 16.02 0 01-16-16zm32 16v-35.8c38.37-10.82 83.32-42.55 101.18-55.94L400 129.89V168a64 64 0 01-128 0zm-48 120h32v64h-32v-64zm-16 24v16h-16v-16zm-24 148a20 20 0 01-40 0V360a8 8 0 00-.57-2.97l-15.04-37.6 5.86-23.43H176v64a7.83 7.83 0 00.04.8l7.96 79.6zm16-19.54V440a7.83 7.83 0 00-.04-.8L192 359.6v-2.9l6.08-12.7H208v16a8 8 0 008 8h29.95a71.84 71.84 0 00-9.7 19.8l-5.96 8.63zm222.42-36.2a53.69 53.69 0 01-10.3 35.74H259.16a53.23 53.23 0 01-9.24-41.02l.12-.57a79.95 79.95 0 011.03-4.39l.03-.13.1-.33a55.99 55.99 0 0110.91-20.42 7.99 7.99 0 001.78-3.88l.2-1.26a8 8 0 007.9-8v-39.9l4.87-29.58L288 289.5V328a48 48 0 0096 0v-37.22l11.37 1.87 11.61 69.76 1.12 6.88a8 8 0 001.83 3.92 27.82 27.82 0 012.05 2.67l.2.28a53.82 53.82 0 0110.24 28.1z"/><path d="M312 140a12 12 0 10-12 12 12.01 12.01 0 0012-12zM372 152a12 12 0 10-12-12 12.01 12.01 0 0012 12zM312 192h14.9c13.9 0 27.08-3.23 37.13-9.09l-8.06-13.82c-7.53 4.4-18.13 6.91-29.08 6.91H312z"/></svg>