<svg xmlns="http://www.w3.org/2000/svg" width="262.515" height="30.362" viewBox="0 0 262.515 30.362"><g fill="#FFF"><path d="M0 16.895h11.594v11.101H9.567v-9.074H0zm.104-6.238v.544h11.408V0h-.545v10.657zm31.391 13.087l-5.283-9.098c-.8-1.361-1.414-2.695-1.948-3.87.107 1.548.16 4.376.16 6.538v6.43h-3.361V5.734h4.509l5.017 8.591c.827 1.388 1.547 2.883 2.214 4.243-.133-1.814-.187-5.016-.187-7.23V5.734h3.362v18.01h-4.483zm18.276-6.084h-8.218c-.026 2.482 1.201 3.683 3.656 3.683 1.308 0 2.722-.293 3.868-.827l.32 2.641c-1.414.562-3.095.855-4.748.855-4.217 0-6.565-2.107-6.565-6.779 0-4.055 2.242-7.043 6.217-7.043 3.87 0 5.577 2.642 5.577 5.924 0 .452-.026.986-.107 1.546zm-5.576-4.963c-1.414 0-2.401 1.041-2.588 2.643h4.883c.053-1.654-.854-2.643-2.295-2.643zm22.728 11.047h-3.707l-1.922-5.896c-.294-.907-.507-1.842-.747-2.962h-.026a35.74 35.74 0 0 1-.908 3.335l-1.68 5.523H54.41l-4.056-13.261h3.736l1.413 5.016c.347 1.308.72 2.642 1.041 4.003h.026c.268-1.468.587-2.668.961-3.842l1.6-5.177h3.282l1.628 5.016c.48 1.521.801 2.696 1.066 4.003h.055c.267-1.361.533-2.535.934-3.842l1.494-5.177h3.495l-4.162 13.261zm12.941-6.377v6.377h-3.469v-6.35l-5.63-11.66h3.788l2.375 5.176a48.61 48.61 0 0 1 1.229 2.988h.053c.373-1.041.907-2.188 1.44-3.335l2.269-4.829h3.682l-5.737 11.633zm9.392 6.645c-3.763 0-6.19-1.948-6.19-6.671 0-4.136 2.748-7.125 6.777-7.125 3.762 0 6.189 2.081 6.189 6.645 0 4.162-2.801 7.151-6.776 7.151zm.347-10.914c-1.521 0-3.015 1.174-3.015 3.896 0 2.721.987 4.109 2.962 4.109 1.68 0 2.961-1.361 2.961-4.057 0-2.562-.907-3.948-2.908-3.948zm15.609.455c-2.455-.508-3.684 1.094-3.684 4.775v5.416h-3.414V10.483h3.229c0 .667-.08 1.733-.24 2.668h.053c.641-1.681 1.922-3.148 4.217-2.962l-.161 3.364zm9.231 10.191l-4.108-6.562v6.562h-3.416V4.267h3.416v11.739l3.868-5.522h4.163l-4.643 6.056 4.988 7.205h-4.268z"/><path d="M118.204 18.328v-2.721h6.563v2.721h-6.563zm13.581-.881c-.32 0-.747 0-1.174-.053v6.35h-3.469V5.734a88.72 88.72 0 0 1 4.829-.107c4.43 0 6.857 2.055 6.857 5.576.001 3.496-2.667 6.244-7.043 6.244zm.054-8.992c-.428 0-.827 0-1.228.027v6.002c.347.054.693.082 1.014.082 2.135-.028 3.603-1.202 3.603-3.148 0-1.815-1.041-2.963-3.389-2.963zm15.875 5.098c-2.455-.508-3.682 1.094-3.682 4.775v5.416h-3.416V10.483h3.229c0 .667-.08 1.733-.24 2.668h.054c.641-1.681 1.921-3.148 4.216-2.962l-.161 3.364zm12.271 4.107h-8.219c-.025 2.482 1.201 3.683 3.656 3.683 1.307 0 2.722-.293 3.869-.827l.32 2.641c-1.414.562-3.096.855-4.75.855-4.215 0-6.563-2.107-6.563-6.779 0-4.055 2.241-7.043 6.218-7.043 3.868 0 5.575 2.642 5.575 5.924.001.452-.026.986-.106 1.546zm-5.576-4.963c-1.414 0-2.402 1.041-2.588 2.643h4.883c.053-1.654-.854-2.643-2.295-2.643zm10.165 11.315c-.96 0-1.921-.107-2.774-.24l.08-2.802c.827.213 1.842.399 2.855.399 1.307 0 2.16-.533 2.16-1.413 0-2.349-5.362-1.015-5.362-5.524 0-2.32 1.894-4.242 5.63-4.242.773 0 1.627.107 2.428.24l-.107 2.695a9.253 9.253 0 0 0-2.454-.348c-1.334 0-1.975.534-1.975 1.361 0 2.162 5.443 1.201 5.443 5.496 0 2.616-2.295 4.378-5.924 4.378zm13.101 0c-1.922 0-3.416-.214-4.937-.641V4.267h3.416v5.71c0 .8-.08 1.894-.214 2.588h.027c.667-1.441 2.161-2.349 4.002-2.349 3.175 0 4.883 2.296 4.883 6.218.001 4.482-2.615 7.578-7.177 7.578zm1.335-10.967c-1.788 0-2.855 2.055-2.855 4.27v3.735c.48.159 1.04.239 1.787.239 1.921 0 3.335-1.227 3.335-4.508-.001-2.482-.721-3.736-2.267-3.736zm13.896 11.928c-1.574 4.135-2.961 5.39-6.003 5.39a8.757 8.757 0 0 1-1.869-.214l.215-2.936c.613.188 1.174.293 1.814.293 1.119 0 1.867-.508 2.561-2.48l.454-1.281-4.884-13.261h3.79l1.787 5.069c.401 1.148.747 2.455 1.04 3.655h.027c.294-1.2.854-2.961 1.281-4.216l1.573-4.509h3.655l-5.441 14.49zm11.603-.961c-2.936 0-3.843-1.066-3.843-4.164v-6.723h-2.294v-2.642h2.268V6.401l3.414-.907v4.989h3.23v2.642h-3.23v5.816c0 1.708.401 2.188 1.576 2.188.561 0 1.174-.079 1.654-.213v2.748c-.854.213-1.842.348-2.775.348zm15.635-6.352h-8.218c-.026 2.482 1.202 3.683 3.657 3.683 1.307 0 2.72-.293 3.868-.827l.319 2.641c-1.414.562-3.096.855-4.75.855-4.215 0-6.562-2.107-6.562-6.779 0-4.055 2.24-7.043 6.216-7.043 3.868 0 5.577 2.642 5.577 5.924 0 .452-.026.986-.107 1.546zm-5.575-4.963c-1.416 0-2.402 1.041-2.59 2.643h4.883c.054-1.654-.853-2.643-2.293-2.643zm14.967.856c-2.454-.508-3.683 1.094-3.683 4.775v5.416h-3.416V10.483h3.229c0 .667-.08 1.733-.24 2.668h.053c.642-1.681 1.922-3.148 4.217-2.962l-.16 3.364zm3.416-4.778a2.09 2.09 0 0 1-2.109-2.08c0-1.122.934-2.055 2.109-2.055 1.172 0 2.133.906 2.133 2.055 0 1.147-.961 2.08-2.133 2.08zm-1.709 14.969V10.483h3.415v13.261h-3.415zm13.528 0c0-.773.027-1.547.135-2.242l-.027-.025c-.641 1.494-2.268 2.535-4.242 2.535-2.402 0-3.789-1.362-3.789-3.496 0-3.175 3.148-4.855 7.658-4.855v-.721c0-1.387-.668-2.108-2.589-2.108-1.2 0-2.802.4-3.923 1.04l-.293-2.854a14.5 14.5 0 0 1 4.75-.828c4.27 0 5.469 1.735 5.469 4.616v5.522c0 1.068.028 2.321.082 3.416h-3.231zm-.266-5.869c-3.603 0-4.402 1.04-4.402 2.107 0 .854.586 1.414 1.574 1.414 1.68 0 2.828-1.602 2.828-3.201v-.32zm14.621 5.869V15.26c0-1.389-.374-2.215-1.627-2.215-1.736 0-3.096 1.975-3.096 4.296v6.403h-3.416V10.483h3.229c0 .613-.054 1.654-.188 2.348l.027.026c.801-1.574 2.349-2.668 4.51-2.668 2.988 0 3.949 1.922 3.949 4.242v9.312h-3.388z"/></g></svg>