<svg version="1.1" id="Layer_1" xmlns="http://www.w3.org/2000/svg" x="0" y="0" viewBox="0 0 230.9 33.6" xml:space="preserve"><style type="text/css">.st0{fill:#fff}</style><path id="Columbia_Trademark_2_" class="st0" d="M76.9 27.1c-.3 0-.3.1-.4.7-.1.6-.6 1.5-1.1 2.1-1.3 1.5-3.1 1.8-6 1.8-4.4 0-10.2-3.8-10.2-11.6 0-3.2.6-6.2 3-8.4 1.4-1.3 3.3-2 6.1-2 3 0 5.5.9 6.6 2 .8.8 1.2 2 1.3 3 0 .5.1.7.3.7.3 0 .4-.3.4-.7.1-.7 0-2.4.1-3.5s.2-1.5.2-1.8c-.1-.2-.2-.4-.6-.4-1-.1-2-.4-3.3-.6-1.5-.2-2.7-.3-4.7-.3-4.8 0-7.9 1.3-10.3 3.4-3.1 2.9-3.8 6.7-3.8 8.9 0 3.2.8 6.8 4 9.6 3 2.6 6.7 3.5 11.1 3.5 2.1 0 4.6-.2 5.8-.7.6-.2.7-.4.8-.9.3-1.1.7-3.9.7-4.3.3-.3.2-.5 0-.5zm15.6-14.9c-8.2 0-11.2 6-11.2 10.7 0 4.8 3.2 10.7 11 10.7 6.9 0 11.3-4.9 11.3-11.2-.1-6.3-4.3-10.2-11.1-10.2zm.9 20c-5.2 0-8.3-4.5-8.3-10.1 0-6.8 3.6-8.5 6.7-8.5 4.5 0 8 3.8 8 9.9-.1 7.7-4.5 8.7-6.4 8.7zm51.8-19.6c-1.1 0-2.8.1-3.1.1 0 0-1.7-.1-3.1-.1-.4 0-.6.1-.6.2 0 .2.2.2.5.2s.8 0 1 .1c.9.2 1.1.6 1.2 1.6.1.9.1 1.6.1 5.8v3.4c0 2.8-.1 5.3-1.6 6.7-1.1 1.1-2.6 1.5-3.8 1.5-.9 0-2.2-.1-3.4-1.1-1.3-1.1-2.1-2.7-2.1-6.7v-3.8c0-4.1 0-4.9.1-5.8.1-1 .3-1.4 1-1.6.3-.1.5-.1.8-.1.3 0 .4-.1.4-.2 0-.2-.2-.2-.6-.2-1 0-2.7.1-3.3.1-.8 0-2.5-.1-4-.1-.4 0-.6.1-.6.2 0 .2.2.2.5.2.4 0 .8 0 1.1.1.9.2 1.1.6 1.2 1.6.1.9.1 1.6.1 5.8v4c0 3.9 1 6 2.4 7.2 2 1.8 4.6 1.9 6 1.9 1.8 0 3.7-.3 5.7-2 2.3-2 2.6-5.2 2.6-8.2v-2.9c0-4.1 0-4.9.1-5.8.1-1 .3-1.4 1-1.6.3-.1.5-.1.8-.1.3 0 .5-.1.5-.2-.3-.2-.5-.2-.9-.2zm60.6 20.1c-.4 0-1-.1-1.4-.1-.8-.1-1-.6-1.1-1.3-.1-1.2-.1-3.3-.1-6v-4.8c0-4.1 0-4.9.1-5.8.1-1 .3-1.4 1-1.6.3-.1.5-.1.8-.1.3 0 .4-.1.4-.3 0-.2-.2-.2-.6-.2-1 0-2.6.1-3.3.1-.8 0-2.5-.1-3.5-.1-.4 0-.7.1-.7.2 0 .2.2.3.4.3.3 0 .7 0 1 .1.6.1.9.6.9 1.5.1.9.1 1.6.1 5.8v4.8c0 2.6 0 4.8-.1 5.9-.1.8-.2 1.2-.8 1.4-.2.1-.6.1-1 .1-.3 0-.4.1-.4.2 0 .2.2.3.5.3 1.1 0 2.8-.1 3.4-.1.7 0 2.4.1 4.2.1.3 0 .5-.1.5-.3.2-.1 0-.1-.3-.1zm-84.5-3.8c-.2 0-.3.2-.3.4-.1.5-.4 1.3-.7 1.6-.7.7-1.7.8-3.2.8-2.1 0-2.8-.2-3.3-.6-.6-.5-.6-2.4-.6-5.8v-4.8c0-4.1 0-4.9.1-5.8.1-1 .3-1.4 1-1.5.3-.1.8-.1 1.1-.1.3 0 .5-.1.5-.2 0-.2-.2-.2-.6-.2-1.1 0-3 .1-3.7.1-.7 0-2.4-.1-3.7-.1-.4 0-.6.1-.6.2 0 .2.2.2.5.2.4 0 .7 0 .9.1.9.2 1.1.6 1.2 1.5.1.9.1 1.6.1 5.8v4.8c0 2.5 0 4.7-.1 5.8-.1.8-.2 1.4-.8 1.5-.2.1-.6.1-1 .1-.3 0-.4.1-.4.2 0 .2.2.3.5.3 1.1 0 2.8-.1 3.4-.1 2.2 0 4 .2 7.9.2 1.4 0 1.5-.1 1.7-.7.2-.8.4-2.8.4-3.1-.1-.5-.1-.6-.3-.6zm67.3-7.5c1.5-1.2 2.8-2.5 2.8-4.8 0-1.4-.9-4.1-5.8-4.1-.9 0-2 .1-3.3.1-.5 0-2.3-.1-3.7-.1-.4 0-.6.1-.6.2 0 .2.2.2.5.2.4 0 .8 0 1.1.1.9.2 1.1.6 1.2 1.6.1.9.1 1.6.1 5.8v4.8c0 2.5 0 4.7-.1 5.8-.1.8-.2 1.4-.8 1.5-.2.1-.6.1-1 .1-.3 0-.4.1-.4.2 0 .2.2.3.5.3 1.1 0 2.8-.1 3.4-.1.8 0 3.3.2 3.9.2 5 0 7.3-3 7.3-5.9-.2-3.2-2.9-5.1-5.1-5.9zm-4.7-7.2c0-.3.1-.4.2-.5.3-.1.5-.1.9-.1 2.3 0 3.4 2.4 3.4 4.2 0 1.3-.4 2.3-1.1 2.9-.5.4-1.1.5-2 .5-.6 0-1 0-1.3-.1-.1 0-.2-.1-.2-.3v-6.6zm3 17.8c-.6 0-1.2 0-2-.3-.9-.4-1-.8-1-2.6v-6.4c0-.1.1-.2.2-.2h1.2c1.1.1 1.7.2 2.3.7 2.1 1.4 2.6 3.7 2.6 5.4 0 2.8-2.1 3.4-3.3 3.4zm-12 .7c-.4 0-.9 0-1.7-.3-.8-.2-1.1-1-1.3-2.7l-2.5-16.8c-.1-.6-.2-.8-.5-.8-.2 0-.4.2-.6.7l-7.4 15.5-7.4-15.3c-.4-.7-.5-.8-.7-.8-.2 0-.4.2-.5.7l-2.7 17.7c-.1.9-.4 2-1.1 2.1-.4.1-.6.1-.8.1-.3 0-.4.1-.4.2 0 .2.2.3.5.3.9 0 2.2-.1 2.7-.1s1.7.1 2.9.1c.4 0 .7-.1.7-.3 0-.1-.2-.2-.4-.2-.3 0-.7 0-1.1-.1-.5-.1-.8-.4-.8-.9 0-.4 0-.8.1-1.3l1.4-10.8h.1c1 2 2.6 5.5 2.8 6 .3.8 2.5 4.9 3.1 6.2.4.8.7 1.4 1 1.4.2 0 .4-.2 1-1.5l5.9-12.3h.1l1.6 12c.1.8 0 1.1-.1 1.2-.2.1-.3.2-.3.3 0 .2.2.2.8.3 1.1.1 4.8.2 5.5.2.4 0 .7-.1.7-.3-.2-.5-.4-.5-.6-.5zm55.6 0c-.3 0-.7 0-1.1-.1-.6-.1-1.4-.5-2.4-3-1.7-4.1-6.1-15.2-6.7-16.7-.3-.6-.4-.9-.7-.9-.3 0-.4.3-.8 1.1L212 30.2c-.5 1.4-1.1 2.3-2.3 2.4-.2 0-.6.1-.8.1-.2 0-.3.1-.3.2 0 .2.2.3.5.3 1.4 0 2.9-.1 3.2-.1.8 0 2 .1 2.9.1.3 0 .5-.1.5-.3 0-.2-.1-.2-.4-.2h-.4c-.8 0-1.1-.4-1.1-.8 0-.3.1-1 .4-1.7l1.5-3.9c.1-.2.1-.2.2-.2h6.1c.1 0 .2.1.3.2l2.2 5.8c.1.3-.1.6-.2.6-.3 0-.4.1-.4.2 0 .2.3.2.8.2 2.2.1 4.2.1 5.1.1 1 0 1.3-.1 1.3-.3-.2-.2-.4-.2-.6-.2zm-9.2-8h-5c-.1 0-.1-.1-.1-.2l2.5-6.7c0-.1.1-.2.2-.2s.1.1.1.2l2.4 6.7c.1.1.1.2-.1.2zM5.4 33.1h31.1v-2.6H5.4v2.6zm19.2-22.3c-.4.1-.8 0-1.1-.3l-.9-.6c.9-.6 1.6-1.6 1.6-2.7 0-1.6-1.2-2.9-2.7-3.1l1.2-1.5c.1-.2.1-.4 0-.5L21.2.2c0-.2-.1-.2-.2-.2s-.2 0-.2.1L19.3 2c-.1.1-.1.4 0 .5L20.5 4c-1.5.2-2.7 1.6-2.7 3.1 0 1.2.6 2.2 1.6 2.7l-.9.6c-.3.3-.7.4-1.1.3-6.6-2-12.5-4.1-15.8-.8-4 3.9.7 10.2 2.1 12.8 1 1.8 1.7 3.9 1.7 5.6h31.1c0-1.7.7-3.8 1.7-5.6 1.5-2.6 6.1-8.9 2.1-12.8-3.2-3.3-9.1-1.2-15.7.9zm-8.3 15.4c-1.2.1-2.2-1-2.6-2.6l1-2.3c.1-.3 0-.5-.1-.7l-3.1-3.1c-.2-.2-.3-.2-.4 0l-1.5 3.1c-.1.3 0 .5.2.7l2.3 2.4c.5 1.9-.8 2.5-1.5 2.5-2.5 0-4.5-3.4-6.5-6.9-2-3.4-2.7-5.9-1.2-7.8 2.5-3.2 9.1-.7 14.2 1.7 0 .7.1 1.6.6 2.6 2.6 6 .8 10.3-1.4 10.4zM38 19.4c-2 3.5-4 6.9-6.5 6.9-.7 0-2-.7-1.5-2.5l2.3-2.4c.2-.2.3-.4.2-.7L31 17.6c-.1-.2-.2-.2-.4 0l-3.1 3.1c-.2.2-.2.4-.1.7l1 2.3c-.4 1.5-1.4 2.6-2.6 2.6-2.2-.1-4.1-4.4-1.4-10.4.5-1 .6-1.9.6-2.6 5.1-2.3 11.7-4.8 14.2-1.7 1.4 1.8.7 4.3-1.2 7.8z"/></svg>