<svg xmlns="http://www.w3.org/2000/svg" viewBox="0 0 500 201.82"><title>Asset 1</title><g id="Layer_2" data-name="Layer 2"><g id="Layer_1-2" data-name="Layer 1"><rect x="275.34" y="16.05" width="218.15" height="21.39" style="fill:#d71920"/><path d="M82.57,86.62l0,85.45H96.25a13.68,13.68,0,0,0,13.62-12.45,29.5,29.5,0,0,0-2.67-14.85c-4.81-10.59-5.45-21.45,3.37-32.62a1.34,1.34,0,0,0,.29-.81V0H85.44a8.13,8.13,0,0,0-7.91,6.27l-22.1,93.94L33.33,6.27A8.13,8.13,0,0,0,25.42,0H0V172.07H28.34V86.62l20.4,85.45H62.12Z" style="fill:#231f20;fill-rule:evenodd"/><path d="M265.3,74.8a68.84,68.84,0,0,0-1.14-12.41c-1.39-7.54-4.82-12.56-10.49-15.36-7.92-3.9-20.68-3-28.29,5.25a14.43,14.43,0,0,0-1.4,1.89L222.23,51a8.14,8.14,0,0,0-7.1-4.16h-18V201.82h28V167.74c5.23,5.57,12,7.93,20.73,7.18,7.47-.65,12.87-4.27,16.06-10.76,3-6.09,3.4-12.7,3.41-18.92v-5.59c0-21.25.05-43.23,0-64.85Zm-34.17,78.28h0a6,6,0,0,1-6-6V72.61a6,6,0,0,1,12,0v74.47A6,6,0,0,1,231.13,153.08Z" style="fill:#231f20;fill-rule:evenodd"/><path d="M316.62,46.88V62.39A56.66,56.66,0,0,1,311.49,86L302.9,104.9v-58h-28V172.37h28v-14A56.56,56.56,0,0,1,308,134.75l8.6-18.91v56.53h28V46.88Z" style="fill:#231f20;fill-rule:evenodd"/><path d="M422.21,151.76V46.88h-28V151.76H382.24V46.88h-28V172.37h51.4l4.13,8.95a8.11,8.11,0,0,0,7.38,4.73h11.43V151.76Z" style="fill:#231f20;fill-rule:evenodd"/><path d="M499.3,69.34c-1.76-10.68-7.64-18.07-17.51-22-7.15-2.81-15.07-3.32-24.2-1.55A29.6,29.6,0,0,0,438,58.48c-5.09,7.44-5,15-4.89,23.79,0,1.26,0,2.56,0,3.9v1.21H460V71.65a6.12,6.12,0,0,1,4.8-6.09A6,6,0,0,1,472,71.45V83.86a11.29,11.29,0,0,1-7.53,10.67c-3.42,1.22-7.91,2.82-13.51,4.84-8,2.9-12.74,6.76-15.75,12.9-2.81,5.74-3.38,10.8-3.38,17.09v5.76s0,0,0,.07h0c0,.06,0,.24,0,.59,0,.76,0,1.86,0,3.4,0,.13,0,.27,0,.42v.17h0c0,.08,0,.15,0,.23v3.76a57.88,57.88,0,0,0,1.13,12.42c1.4,7.54,4.84,12.56,10.5,15.35a23.53,23.53,0,0,0,10.29,2.24,24.44,24.44,0,0,0,18-7.48,15.41,15.41,0,0,0,1.4-1.89l1.75,3.12a8.14,8.14,0,0,0,7.1,4.17h18V79.34a65.42,65.42,0,0,0-.7-10ZM472,110.19h0V146a6,6,0,1,1-12,0V127.33C460,119.88,468.19,113,472,110.19Z" style="fill:#231f20;fill-rule:evenodd"/><path d="M186.6,69.34c-1.75-10.68-7.64-18.07-17.51-22-7.15-2.81-15.06-3.32-24.2-1.55a29.58,29.58,0,0,0-19.56,12.67c-5.09,7.44-5,15-4.9,23.79,0,1.26,0,2.56,0,3.9v1.21h26.29l.53-.53V71.65a6.12,6.12,0,0,1,4.44-6,6,6,0,0,1,7.55,5.81V83.86a11.29,11.29,0,0,1-7.53,10.67c-3.42,1.22-7.91,2.82-13.5,4.84l-.48.2c-6.63,3.2-11.32,7-14.35,11a12,12,0,0,0-.93,1.69,31.08,31.08,0,0,0-2.17,5.77,22.54,22.54,0,0,0,1.83,16.65,31.61,31.61,0,0,0,3.36,4.9c7.51,9,14.8,20.58,11.14,32.48-.12.41-.3.82-.44,1.22a25.33,25.33,0,0,0,4.82.48,24.41,24.41,0,0,0,18-7.48,14.43,14.43,0,0,0,1.4-1.89l1.75,3.12a8.14,8.14,0,0,0,7.1,4.17h18V79.34a64.16,64.16,0,0,0-.7-10ZM159.27,146h0a6,6,0,1,1-12,0V127.33c0-7.45,8.22-14.36,12-17.14Z" style="fill:#231f20;fill-rule:evenodd"/><path d="M147.27,87.38h0v-.11A.54.54,0,0,1,147.27,87.38Z" style="fill:#231f20;fill-rule:evenodd"/><path d="M294,32.16a18.43,18.43,0,0,1-3.94.47c-2.54,0-4.81-.67-4.81-5.49V24.86c0-5.53,2.52-6.05,4.9-6.05a22.26,22.26,0,0,1,3.85.43v3.07a18.77,18.77,0,0,0-2.92-.26c-1.6,0-2.16.41-2.16,2.95v1.37c0,2.78.45,3,2.16,3a28.58,28.58,0,0,0,2.92-.28Z" style="fill:#fff"/><path d="M308.44,32.52h-3.67V26.13h-.18l-3.84,6.39h-2.83V18.92h3.67v6.39h.17l3.7-6.39h3Z" style="fill:#fff"/><path d="M323.36,32.52h-3.67V22.11h-1.76l-1,8.62c-.15,1.4-.95,1.9-2.4,1.9a13.56,13.56,0,0,1-2.35-.19V29.5l.89,0c.45,0,.64-.11.71-.71l1.08-9.91h8.47Z" style="fill:#fff"/><path d="M338.86,32.52H335l-.54-2.78h-3.26l-.52,2.78h-3.89l3-13.6h6.1Zm-6.2-10.62-.93,4.9h2.14L333,21.9Z" style="fill:#fff"/><path d="M347.88,32.52h-3.67V22.11H341.3V18.92h9.5v3.19h-2.92Z" style="fill:#fff"/><path d="M365.33,32.52h-3.89l-.54-2.78h-3.26l-.51,2.78h-3.9l3-13.6h6.09Zm-6.2-10.62-.93,4.9h2.14l-.91-4.9Z" style="fill:#fff"/><path d="M388.07,34.68h-2.62l-.8-2.16h-5.81l-.8,2.16h-2.61V29.33h1.4l1.49-10.41h8.45V29.33h1.3Zm-6.68-12.57-1,7.22h2.74V22.11Z" style="fill:#fff"/><path d="M402.92,32.52H399l-.54-2.78h-3.26l-.52,2.78h-3.88l3-13.6h6.09Zm-6.2-10.62-.93,4.9h2.14l-.9-4.9Z" style="fill:#fff"/><path d="M413.45,29.2a29.37,29.37,0,0,0,3.48.3c1.23,0,1.56-.37,1.56-1.3S418.18,27,416.82,27h-2V24.23h1.82c1.31,0,1.58-.24,1.58-1.26,0-.75-.24-1-1-1a33.15,33.15,0,0,0-3.35.32V19.17a30.24,30.24,0,0,1,4.06-.36c2.7,0,4,.8,4,3.41,0,1.79-.86,3.09-2.35,3.26,1.79.07,2.61,1,2.61,3.15,0,2.92-1.58,4-4.58,4a28.13,28.13,0,0,1-4.17-.39Z" style="fill:#fff"/><path d="M436.45,32.52h-3.67V27H430v5.49H426.3V18.92H430v5h2.81v-5h3.67Z" style="fill:#fff"/><path d="M452,32.52h-3.88l-.55-2.78h-3.26l-.52,2.78h-3.88l3-13.6H449Zm-6.2-10.62-.92,4.9H447l-.91-4.9Z" style="fill:#fff"/><path d="M464,32.52h-8.64V18.92h8.42v3.19H459V24h3.24V27H459v2.3h5Z" style="fill:#fff"/><path d="M483.54,32.52H467.77V18.92h3.68V29.33h2.37V18.92h3.68V29.33h2.37V18.92h3.67Z" style="fill:#fff"/></g></g></svg>