<svg width="861" height="675" viewBox="0 0 861 675" fill="none" xmlns="http://www.w3.org/2000/svg">
<path d="M446.888 616.875V581.932L413.999 562.933V600.364L383.37 618.119V581.253L351.046 599.912L319.852 581.819V547.554C320.756 547.328 321.547 546.423 321.547 545.405C321.547 545.179 321.547 545.066 321.434 544.84L351.385 527.538L351.724 527.425V489.429L319.4 508.088L287.64 489.768L255.881 508.088L224.687 489.994V453.92L257.012 435.261L224.687 416.602V379.172L191.685 398.057L191.346 398.17V434.244L162.299 417.394C162.299 417.168 162.412 417.055 162.412 416.829C162.412 415.811 161.734 414.906 160.717 414.68V343.776L192.25 325.57L192.589 325.457V287.46L159.926 306.345L159.587 306.458V343.211L128.393 361.304L97.7638 343.55L128.732 325.683L129.071 325.57V287.573L96.4076 306.458L96.0685 306.571V379.398L67.0219 362.548C67.0219 362.322 67.1349 362.209 67.1349 361.983C67.1349 360.965 66.4568 360.06 65.4396 359.834V324.891L34.2456 306.798L64.8745 289.043L65.4396 289.383V288.704L66.0047 288.365L65.4396 288.026V251.273L35.0368 233.745C35.0368 233.519 35.1498 233.406 35.1498 233.18C35.1498 231.936 34.1326 230.918 32.8893 230.918C31.6461 230.918 30.6289 231.936 30.6289 233.18C30.6289 234.198 31.307 235.102 32.3242 235.328V269.593L0 288.365L31.7591 306.685L0.904174 324.552L0.565109 324.665V361.417L0 361.757L0.565109 362.096V398.848L31.7591 416.829L0.791153 434.809L0.565109 434.922V472.918L33.2284 454.033L33.5675 453.92V417.846V380.415L63.1792 363.227C63.4052 363.453 63.8573 363.679 64.1964 363.792V398.735L95.3904 416.829L64.4224 434.809L64.0834 434.922V471.674L34.4716 488.75C34.0196 488.298 33.5675 488.072 32.8893 488.072C31.6461 488.072 30.6289 489.089 30.6289 490.333C30.6289 491.351 31.307 492.256 32.3242 492.482V563.499L0.791153 581.706L0.565109 581.819V619.815V655.889L32.3242 674.208V674.887L32.8893 674.548L33.4545 674.887V674.208L64.9875 656.002L65.3266 655.889V617.892L34.5847 635.647C34.1326 635.194 33.6805 634.968 33.0024 634.968C32.4373 634.968 31.8721 635.194 31.4201 635.647L2.26044 618.91L32.4373 601.495L64.7615 582.836L97.0857 601.608V564.177L128.619 545.971L128.958 545.858V510.915C129.862 510.689 130.653 509.784 130.653 508.766C130.653 507.522 129.636 506.504 128.393 506.504C127.15 506.504 126.132 507.522 126.132 508.766C126.132 508.992 126.132 509.105 126.245 509.332L96.2946 526.633L95.9555 526.747V562.82L65.3266 545.066V472.24L96.5206 454.26L128.845 472.918V435.488L158.457 418.299C158.683 418.525 159.135 418.751 159.474 418.864V453.807L189.651 471.222C189.651 471.448 189.538 471.561 189.538 471.788C189.538 472.014 189.538 472.127 189.651 472.353L159.7 489.655L159.361 489.768V563.16L129.862 580.235C129.41 579.67 128.845 579.331 128.054 579.331C126.81 579.331 125.793 580.348 125.793 581.592C125.793 582.61 126.471 583.515 127.489 583.741V619.702L159.248 601.382V637.456L192.137 656.454V618.571L160.943 600.591L191.685 582.836L221.297 600.025C221.297 600.251 221.184 600.364 221.184 600.591C221.184 601.834 222.201 602.852 223.444 602.852C224.687 602.852 225.705 601.834 225.705 600.591C225.705 599.573 225.026 598.668 224.009 598.442V527.425L255.203 509.332L285.832 527.086L254.864 544.953L254.525 545.066V581.819L253.96 582.158L254.525 582.497V618.571L222.992 636.777L222.653 636.891V674.887L255.316 656.002L255.655 655.889V619.815L286.284 637.569V638.248L286.849 637.908L319.174 656.567V620.946C319.513 620.833 319.965 620.606 320.191 620.38L349.802 637.569V675L381.562 656.68L414.79 637.795L415.129 637.682V601.608L444.176 618.458C444.176 618.684 444.063 618.797 444.063 619.023C444.063 620.267 445.08 621.285 446.323 621.285C447.566 621.285 448.583 620.267 448.583 619.023C448.583 617.892 447.792 617.101 446.888 616.875ZM97.0857 307.024L127.715 289.27V324.665L97.0857 342.419V307.024ZM32.3242 453.355L1.69533 470.996V435.601L32.3242 417.846V453.355ZM64.1964 619.928V655.323L33.5675 673.078V639.492C34.4716 639.265 35.2628 638.361 35.2628 637.343C35.2628 637.117 35.2628 637.004 35.1498 636.777L64.1964 619.928ZM32.4373 639.492V673.078L1.69533 655.323V619.928L30.7419 636.777C30.7419 637.004 30.6289 637.117 30.6289 637.343C30.7419 638.361 31.4201 639.152 32.4373 639.492ZM382.127 618.571L351.498 636.325V600.93L382.127 583.176V618.571ZM318.608 616.875C318.269 616.988 317.817 617.214 317.591 617.44L288.545 600.591L318.608 583.176V616.875V616.875ZM287.866 563.499V528.104L316.913 544.953C316.913 545.179 316.8 545.292 316.8 545.519C316.8 546.536 317.478 547.441 318.495 547.667V581.253L287.866 563.499ZM318.608 543.37C318.269 543.483 317.817 543.709 317.591 543.935L288.545 527.086L318.608 509.671V543.37V543.37ZM287.301 564.517L317.93 582.271L304.029 590.3L287.301 599.912L256.672 582.158L270.574 574.129L287.301 564.517ZM287.866 601.608L316.913 618.458C316.913 618.684 316.8 618.797 316.8 619.023C316.8 619.249 316.8 619.363 316.913 619.589L287.866 636.438V601.608ZM350.368 526.747L320.756 543.935C320.53 543.709 320.078 543.483 319.739 543.37V509.105L350.368 491.351V526.747V526.747ZM192.476 469.865V436.279L223.105 454.033V489.429L194.058 472.579C194.058 472.353 194.171 472.24 194.171 472.014C194.171 470.996 193.493 470.091 192.476 469.865ZM192.476 474.162C192.815 474.049 193.267 473.823 193.493 473.597L222.54 490.446L192.476 507.748V474.162ZM223.783 453.016L193.154 435.261L208.186 426.554L223.783 417.507L254.412 435.261L223.783 453.016ZM192.476 398.848L223.105 381.094V416.489L192.476 434.244V398.848ZM160.717 307.024L191.346 289.27V324.665L160.717 342.419V307.024ZM159.587 379.85L149.528 385.617L128.845 397.604V362.209L159.474 344.455V379.85H159.587ZM127.715 434.244L112.344 425.423L96.9727 416.602V381.094L112.344 389.915L127.715 398.735V434.244ZM97.0857 344.455L127.715 362.209V397.604L112.344 388.784L96.9727 379.963V344.455H97.0857ZM64.1964 359.608C63.8573 359.721 63.4052 359.947 63.1792 360.173L33.5675 342.985V307.589L64.1964 325.343V359.608ZM64.1964 251.952V287.347L33.5675 269.593V235.328C33.9065 235.215 34.3586 234.989 34.5847 234.763L64.1964 251.952ZM32.8893 270.611L63.6313 288.365L33.5675 305.78L33.0024 306.119L32.4373 305.78L2.26044 288.365L32.8893 270.611ZM1.69533 325.343L32.3242 307.589V342.985L1.69533 360.852V325.343ZM1.69533 362.774L32.3242 380.529V415.924L1.69533 398.17V362.774ZM32.8893 379.511L2.26044 361.757L16.1621 353.728L32.8893 344.115L62.501 361.304C62.501 361.53 62.388 361.643 62.388 361.87C62.388 362.096 62.388 362.209 62.501 362.435L32.8893 379.511ZM65.3266 363.905C65.6657 363.792 66.1177 363.566 66.3438 363.34L95.9555 380.529V415.924L65.3266 398.17V363.905V363.905ZM65.3266 435.601L95.9555 417.846V453.242L65.3266 470.996V435.601V435.601ZM33.5675 492.482C34.4716 492.256 35.2628 491.351 35.2628 490.333C35.2628 490.107 35.2628 489.994 35.1498 489.768L64.1964 472.918V508.314L33.5675 526.068V492.482V492.482ZM64.1964 545.179L33.5675 562.933V527.538L64.1964 509.784V545.179ZM32.3242 600.251L1.69533 618.006V582.61L32.3242 564.856V600.251ZM33.5675 564.177L64.1964 546.423V581.819L33.5675 599.573V564.177V564.177ZM97.0857 527.425L126.697 510.236C126.923 510.462 127.376 510.689 127.715 510.802V545.066L97.0857 562.82V527.425ZM95.9555 564.856V599.686L65.3266 581.932V546.536L95.9555 564.291V564.856ZM127.715 470.996L97.0857 453.242V417.846L112.457 426.667L127.828 435.488V470.996H127.715ZM128.845 434.244V398.848L146.363 388.671L159.474 381.094V414.68C158.57 414.906 157.778 415.811 157.778 416.829C157.778 417.055 157.778 417.168 157.891 417.394L128.845 434.244ZM160.717 453.355V419.09C161.056 418.977 161.508 418.751 161.734 418.525L191.346 435.714V469.978C191.007 470.091 190.555 470.317 190.329 470.544L160.717 453.355ZM160.717 490.673L190.329 473.484C190.555 473.71 191.007 473.936 191.346 474.049V508.314L190.781 508.653L160.717 526.068V490.673ZM160.717 564.177L191.346 546.423V581.819L160.717 599.573V564.177ZM191.346 545.179L160.717 562.933V527.538L191.346 509.784V545.179ZM128.845 618.006V583.967C129.749 583.741 130.54 582.836 130.54 581.819C130.54 581.705 130.54 581.705 130.54 581.592L159.587 564.856V600.251L128.845 618.006ZM191.346 654.758L160.717 637.004V601.608L191.346 619.363V654.758ZM223.218 598.442C222.879 598.555 222.427 598.781 222.201 599.007L192.589 581.819V546.423L223.218 564.177V598.442ZM192.476 545.179V509.784L223.105 527.538V562.933L192.476 545.179ZM223.783 526.407L193.154 508.653L223.783 490.899L224.348 491.238L254.412 508.653L223.783 526.407ZM287.301 491.012L317.93 508.766L287.866 526.181L287.301 526.52L286.736 526.181L256.672 508.766L287.301 491.012ZM256.107 545.858L286.736 528.104V563.499L256.107 581.253V545.858ZM254.977 655.323L224.348 673.078V637.682L254.977 619.928V655.323ZM256.107 618.684V583.289L286.736 601.043V636.438L256.107 618.684ZM288.432 637.343L317.478 620.493C317.704 620.72 318.156 620.946 318.495 621.059V654.758L288.432 637.343ZM319.739 616.875V583.289L350.368 601.043V636.438L321.321 619.589C321.321 619.363 321.434 619.249 321.434 619.023C321.321 617.892 320.643 617.101 319.739 616.875ZM351.498 673.078V637.682L382.127 619.928V655.323L351.498 673.078ZM413.999 637.004L383.257 654.758V619.363L413.886 601.608V637.004H413.999ZM415.129 600.251V564.856L445.758 582.61V616.875C445.419 616.988 445.08 617.214 444.741 617.44L415.129 600.251ZM860.887 386.748L829.128 368.429L860.096 350.561L860.435 350.448V313.696L861 313.357L860.435 313.017V276.265L829.241 258.284L860.209 240.417L860.548 240.304V202.308L827.885 221.193L827.546 221.306V257.38V294.811L797.934 311.999C797.708 311.773 797.256 311.547 796.917 311.434V239.739L765.158 221.419V184.327L734.642 166.912C734.642 166.686 734.755 166.573 734.755 166.347C734.755 166.121 734.755 166.008 734.642 165.782L764.592 148.48L764.931 148.367V112.18L795.56 129.934V204.117L826.302 186.363C826.754 186.815 827.206 187.041 827.885 187.041C829.128 187.041 830.145 186.024 830.145 184.78C830.145 183.762 829.467 182.857 828.45 182.631V111.614L860.096 93.2945L860.435 93.1814V55.072L828.45 73.5048L796.126 92.1637L763.801 73.5048V110.936L732.268 129.142L731.929 129.255V164.198C731.025 164.425 730.234 165.329 730.234 166.347C730.234 167.365 730.912 168.269 731.929 168.496V203.439L763.688 221.758V257.832L733.059 275.586V239.512L701.3 221.193V220.514L700.735 220.854L700.17 220.514V221.193L668.637 239.399L668.298 239.512V277.509L699.04 259.755C699.492 260.207 699.944 260.433 700.622 260.433C701.3 260.433 701.752 260.207 702.204 259.755L731.816 276.83V351.014L764.14 332.355L795.334 350.448L826.528 368.542L795.899 386.296L795.334 385.957V386.635L794.769 386.974L795.334 387.314V424.066L827.093 442.386V476.65C826.189 476.876 825.398 477.781 825.398 478.799C825.398 480.043 826.415 481.06 827.659 481.06C828.902 481.06 829.919 480.043 829.919 478.799C829.919 478.573 829.919 478.46 829.806 478.233L859.757 460.931L860.096 460.818V422.822L828.337 441.142V405.746L860.887 386.748ZM828.563 221.758L859.192 204.004V239.399L828.563 257.154V221.758ZM859.192 349.657L828.563 367.411V332.015L859.192 314.261V349.657ZM859.192 312.226L828.563 294.471V259.076L859.192 276.83V312.226ZM827.998 295.489L858.627 313.243L844.725 321.272L827.998 330.885L798.386 313.696C798.386 313.47 798.499 313.357 798.499 313.13C798.499 312.904 798.499 312.791 798.386 312.565L827.998 295.489ZM795.56 276.83V311.095C795.221 311.208 794.769 311.434 794.543 311.66L780.189 303.405L764.818 294.585V259.189L780.189 268.01L795.56 276.83ZM796.691 129.934L827.32 112.18V147.575L796.691 165.329V129.934ZM796.691 202.082V166.686L827.32 148.932V182.518C826.415 182.744 825.624 183.649 825.624 184.667C825.624 184.893 825.624 185.006 825.737 185.232L796.691 202.082ZM828.563 74.7487L859.192 56.9945V92.3898L828.563 110.144V74.7487ZM827.32 110.823L796.691 128.577V93.1814L827.32 75.4272V110.823ZM764.931 75.4272L795.56 93.1814V128.577L764.931 110.823V110.144V75.4272ZM763.801 112.18V147.575L734.19 164.764C733.963 164.538 733.511 164.311 733.172 164.198V129.934L763.801 112.18ZM733.059 202.76V168.496C733.398 168.382 733.737 168.156 734.077 167.93L763.688 185.119V220.514L733.059 202.76ZM795.56 240.078V275.473L780.189 266.653L764.818 257.832V222.437L795.56 240.078ZM669.541 275.586V240.191L700.17 222.437V256.023C699.266 256.249 698.475 257.154 698.475 258.171C698.475 258.398 698.475 258.511 698.588 258.737L669.541 275.586ZM701.3 256.023V222.437L731.929 240.191V275.586L702.883 258.737C702.883 258.511 702.996 258.398 702.996 258.171C702.996 257.154 702.317 256.249 701.3 256.023ZM733.059 276.83L763.688 259.076V294.471L733.059 312.226V276.83ZM733.059 313.583L763.688 295.828V331.337L733.059 349.091V313.583ZM764.931 331.337V295.942L780.302 304.762L794.091 312.678C794.091 312.904 793.978 313.017 793.978 313.243C793.978 314.261 794.656 315.166 795.673 315.392V348.978L764.931 331.337ZM796.691 315.392C797.03 315.279 797.482 315.053 797.708 314.827L827.32 332.015V367.411L796.691 349.657V315.392ZM827.433 369.333L827.998 368.994L828.563 369.333L858.627 386.748L827.998 404.502L797.256 386.748L827.433 369.333ZM796.691 387.766L827.32 405.52V440.916L796.691 423.161V387.766ZM859.192 424.405V459.801L829.58 476.989C829.354 476.763 828.902 476.537 828.563 476.424V442.159L859.192 424.405ZM671.123 202.986C671.123 202.76 671.123 202.647 671.01 202.421L700.961 185.119L701.3 185.006V111.614L730.799 94.5384C731.251 95.1039 731.816 95.4431 732.607 95.4431C733.851 95.4431 734.868 94.4254 734.868 93.1814C734.868 92.1637 734.19 91.259 733.172 91.0328V55.072L701.413 73.5048V37.4309L668.524 18.4327V56.4291L699.605 74.4095L668.863 92.1637L639.251 74.9749C639.251 74.7487 639.364 74.6356 639.364 74.4095C639.364 73.1655 638.347 72.1478 637.104 72.1478C635.861 72.1478 634.843 73.1655 634.843 74.4095C634.843 75.4272 635.522 76.3319 636.539 76.558V110.144V147.575L605.345 165.668L574.716 147.914L605.684 130.047L606.023 129.934V93.1814L606.588 92.8422L606.023 92.5029V56.4291L637.443 38.2225L637.782 38.1094V0L605.119 18.8851L604.78 18.9982V55.072L574.151 37.4309V36.7524L573.586 37.0916L541.261 18.4327V54.0543C540.922 54.1674 540.47 54.3935 540.244 54.6197L510.632 37.544V0L478.873 18.3197L446.21 37.2047L445.871 37.3178V73.5048L415.242 55.7505V55.072L414.677 55.4113L414.112 55.072V55.7505L382.918 73.844L350.368 55.072V92.5029L319.739 110.257V74.0702L286.849 55.072L255.09 36.7524V74.1833L225.478 91.3721C225.026 90.9198 224.574 90.6936 223.896 90.6936C222.653 90.6936 221.636 91.7113 221.636 92.9553C221.636 94.1992 222.653 95.217 223.896 95.217C224.461 95.217 225.026 94.9908 225.478 94.5384L255.09 111.727V149.158L287.753 130.273L288.093 130.16V93.7469L318.721 111.501V148.932L349.463 131.178C349.689 131.404 350.142 131.63 350.481 131.743V166.686L383.37 185.684V148.932L415.129 167.252V129.255L383.935 111.162L414.564 93.4076L446.888 112.067V74.7487L477.517 56.9945V129.142L445.984 147.349L445.645 147.462V185.458L476.387 167.704C476.839 168.156 477.291 168.382 477.969 168.382C479.212 168.382 480.23 167.365 480.23 166.121C480.23 165.103 479.551 164.198 478.534 163.972V129.708L510.067 111.501L510.406 111.388V75.4272L541.035 93.1814V127.446C540.131 127.672 539.34 128.577 539.34 129.595C539.34 129.821 539.34 129.934 539.453 130.16L509.502 147.462L509.163 147.575V185.571L541.487 166.912L573.247 185.232L605.006 166.912L636.765 185.232L667.959 167.139V200.725C667.055 200.951 666.263 201.855 666.263 202.873C666.263 204.117 667.281 205.135 668.524 205.135C670.219 205.248 671.123 204.23 671.123 202.986ZM700.17 184.327L670.558 201.516C670.332 201.29 669.88 201.064 669.541 200.951V166.686L670.106 166.347L700.17 148.932V184.327ZM637.669 112.18L668.298 129.934V165.329L637.669 147.575V112.18ZM669.541 129.934L700.17 112.18V147.575L669.541 165.329V129.934ZM700.17 110.823L669.541 128.577V93.1814L700.17 75.4272V110.823ZM732.042 57.1076V91.1459C731.138 91.3721 730.347 92.2768 730.347 93.2945C730.347 93.4076 730.347 93.4076 730.347 93.5207L701.3 110.257V74.7487L732.042 57.1076ZM669.541 20.3552L700.17 38.1094V73.5048L669.541 55.7505V20.3552ZM637.669 76.558C638.008 76.445 638.46 76.2188 638.686 75.9926L668.298 93.1814V128.577L637.669 110.823V76.558ZM573.586 110.596L542.957 92.8422L556.858 84.8132L573.586 75.201L604.214 92.9553L590.313 100.984L573.586 110.596ZM542.279 58.2384C542.618 58.1253 543.07 57.8991 543.296 57.673L572.342 74.5225L542.279 91.9375V58.2384V58.2384ZM573.02 73.5048L543.974 56.6552C543.974 56.429 544.087 56.316 544.087 56.0898C544.087 55.8636 544.087 55.7505 543.974 55.5244L573.02 38.6748V73.5048ZM573.02 111.501V147.01L543.974 130.16C543.974 129.934 544.087 129.821 544.087 129.595C544.087 128.577 543.409 127.672 542.392 127.446V93.8599L573.02 111.501ZM542.279 131.743C542.618 131.63 543.07 131.404 543.296 131.178L572.342 148.027L542.279 165.442V131.743V131.743ZM604.78 129.255L574.151 147.01V111.501L604.78 93.8599V129.255ZM605.91 19.6767L636.539 1.92243V37.3178L605.91 55.072V19.6767ZM604.78 56.4291V91.8244L574.151 74.1833V38.6748L604.78 56.4291ZM572.455 37.7701L543.409 54.6197C543.183 54.3935 542.731 54.1674 542.392 54.0543V20.3552L572.455 37.7701ZM509.389 1.92243V37.3178L478.76 55.072V19.6767L509.389 1.92243ZM413.999 57.1076V92.5029L383.37 110.257V74.7487L413.999 57.1076ZM351.498 57.1076L382.127 74.8618V110.257L366.756 101.437L351.498 92.5029V57.1076ZM382.24 146.896L366.869 138.076L353.08 130.16C353.08 129.934 353.193 129.821 353.193 129.595C353.193 128.577 352.515 127.672 351.498 127.446V93.8599L366.869 102.681L382.24 111.501V146.896V146.896ZM318.608 110.257L287.98 92.5029V57.1076L318.608 74.8618V110.257ZM256.107 38.6748L286.736 56.4291V91.8244L256.107 74.0702V38.6748ZM225.931 92.2768L255.542 75.088L286.171 92.8422L272.269 100.871L255.542 110.483L225.931 93.2945C225.931 93.0684 226.044 92.9553 226.044 92.7291C226.044 92.5029 225.931 92.3898 225.931 92.2768ZM286.736 129.255L256.107 147.01V111.501L286.736 93.8599V129.255ZM319.739 146.896V111.501L350.368 93.8599V127.446C349.463 127.672 348.672 128.577 348.672 129.595C348.672 129.821 348.672 129.934 348.785 130.16L319.739 146.896ZM382.24 183.649L351.498 166.008V131.743C351.837 131.63 352.289 131.404 352.515 131.178L366.869 139.433L382.24 148.253V183.649ZM413.999 165.329L383.37 147.575V112.18L413.999 129.934V165.329ZM445.758 110.257L415.129 92.5029V57.1076L445.758 74.8618V110.257ZM446.888 73.5048V37.9963L477.63 20.3552V55.7505L446.888 73.5048ZM509.389 38.6748V74.0702L478.76 91.8244V56.4291L509.389 38.6748ZM446.888 183.649V148.253L477.517 130.499V164.085C476.613 164.311 475.822 165.216 475.822 166.234C475.822 166.46 475.822 166.573 475.935 166.799L446.888 183.649ZM509.389 110.823L478.76 128.577V93.1814L509.389 75.4272V110.823ZM510.519 38.6748L539.566 55.5244C539.566 55.7505 539.453 55.8636 539.453 56.0898C539.453 57.1076 540.131 58.0122 541.148 58.2384V91.8244L510.519 74.0702V38.6748V38.6748ZM510.519 148.253L540.131 131.065C540.357 131.291 540.809 131.517 541.148 131.63V165.895L510.519 183.649V148.253V148.253ZM573.586 183.988L542.957 166.234L573.02 148.819L573.586 148.48L574.151 148.819L604.214 166.234L573.586 183.988ZM606.475 166.347L637.104 148.593L667.733 166.347L637.104 184.101L606.475 166.347Z" fill="#2C75E2" fill-opacity="0.22"/>
</svg>
