<svg width="861" height="911" viewBox="0 0 861 911" fill="none" xmlns="http://www.w3.org/2000/svg">
<path d="M446.888 852.875V817.932L413.999 798.933V836.364L383.37 854.119V817.253L351.046 835.912L319.852 817.819V783.554C320.756 783.328 321.547 782.423 321.547 781.405C321.547 781.179 321.547 781.066 321.434 780.84L351.385 763.538L351.724 763.425V725.429L319.4 744.088L287.64 725.768L255.881 744.088L224.687 725.994V689.92L257.012 671.261L224.687 652.602V615.172L191.685 634.057L191.346 634.17V670.244L162.299 653.394C162.299 653.168 162.412 653.055 162.412 652.829C162.412 651.811 161.734 650.906 160.717 650.68V579.776L192.25 561.57L192.589 561.457V523.46L159.926 542.345L159.587 542.458V579.211L128.393 597.304L97.7638 579.55L128.732 561.683L129.071 561.57V523.573L96.4076 542.458L96.0685 542.571V615.398L67.0219 598.548C67.0219 598.322 67.1349 598.209 67.1349 597.983C67.1349 596.965 66.4568 596.06 65.4396 595.834V560.891L34.2456 542.798L64.8745 525.043L65.4396 525.383V524.704L66.0047 524.365L65.4396 524.026V487.273L35.0368 469.745C35.0368 469.519 35.1498 469.406 35.1498 469.18C35.1498 467.936 34.1326 466.918 32.8893 466.918C31.6461 466.918 30.6289 467.936 30.6289 469.18C30.6289 470.198 31.307 471.102 32.3242 471.328V505.593L0 524.365L31.7591 542.685L0.904174 560.552L0.565109 560.665V597.417L0 597.757L0.565109 598.096V634.848L31.7591 652.829L0.791153 670.809L0.565109 670.922V708.918L33.2284 690.033L33.5675 689.92V653.846V616.415L63.1792 599.227C63.4052 599.453 63.8573 599.679 64.1964 599.792V634.735L95.3904 652.829L64.4224 670.809L64.0834 670.922V707.674L34.4716 724.75C34.0196 724.298 33.5675 724.072 32.8893 724.072C31.6461 724.072 30.6289 725.089 30.6289 726.333C30.6289 727.351 31.307 728.256 32.3242 728.482V799.499L0.791153 817.706L0.565109 817.819V855.815V891.889L32.3242 910.208V910.887L32.8893 910.548L33.4544 910.887V910.208L64.9875 892.002L65.3266 891.889V853.892L34.5847 871.647C34.1326 871.194 33.6805 870.968 33.0024 870.968C32.4373 870.968 31.8721 871.194 31.4201 871.647L2.26044 854.91L32.4373 837.495L64.7615 818.836L97.0857 837.608V800.177L128.619 781.971L128.958 781.858V746.915C129.862 746.688 130.653 745.784 130.653 744.766C130.653 743.522 129.636 742.504 128.393 742.504C127.15 742.504 126.132 743.522 126.132 744.766C126.132 744.992 126.132 745.105 126.245 745.332L96.2946 762.633L95.9555 762.747V798.82L65.3266 781.066V708.24L96.5206 690.26L128.845 708.918V671.488L158.457 654.299C158.683 654.525 159.135 654.751 159.474 654.864V689.807L189.651 707.222C189.651 707.448 189.538 707.561 189.538 707.788C189.538 708.014 189.538 708.127 189.651 708.353L159.7 725.655L159.361 725.768V799.16L129.862 816.235C129.41 815.67 128.845 815.331 128.054 815.331C126.81 815.331 125.793 816.349 125.793 817.592C125.793 818.61 126.471 819.515 127.489 819.741V855.702L159.248 837.382V873.456L192.137 892.454V854.571L160.943 836.591L191.685 818.836L221.297 836.025C221.297 836.251 221.184 836.364 221.184 836.591C221.184 837.834 222.201 838.852 223.444 838.852C224.687 838.852 225.705 837.834 225.705 836.591C225.705 835.573 225.026 834.668 224.009 834.442V763.425L255.203 745.332L285.832 763.086L254.864 780.953L254.525 781.066V817.819L253.96 818.158L254.525 818.497V854.571L222.992 872.777L222.653 872.891V910.887L255.316 892.002L255.655 891.889V855.815L286.284 873.569V874.248L286.849 873.908L319.174 892.567V856.946C319.513 856.833 319.965 856.606 320.191 856.38L349.802 873.569V911L381.562 892.68L414.79 873.795L415.129 873.682V837.608L444.176 854.458C444.176 854.684 444.063 854.797 444.063 855.023C444.063 856.267 445.08 857.285 446.323 857.285C447.566 857.285 448.583 856.267 448.583 855.023C448.583 853.892 447.792 853.101 446.888 852.875ZM97.0857 543.024L127.715 525.27V560.665L97.0857 578.419V543.024ZM32.3242 689.355L1.69533 706.996V671.601L32.3242 653.846V689.355ZM64.1964 855.928V891.323L33.5675 909.078V875.492C34.4716 875.265 35.2628 874.361 35.2628 873.343C35.2628 873.117 35.2628 873.004 35.1498 872.777L64.1964 855.928ZM32.4373 875.492V909.078L1.69533 891.323V855.928L30.7419 872.777C30.7419 873.004 30.6289 873.117 30.6289 873.343C30.7419 874.361 31.4201 875.152 32.4373 875.492ZM382.127 854.571L351.498 872.325V836.93L382.127 819.176V854.571ZM318.608 852.875C318.269 852.988 317.817 853.214 317.591 853.44L288.545 836.591L318.608 819.176V852.875ZM287.866 799.499V764.104L316.913 780.953C316.913 781.179 316.8 781.292 316.8 781.518C316.8 782.536 317.478 783.441 318.495 783.667V817.253L287.866 799.499ZM318.608 779.37C318.269 779.483 317.817 779.709 317.591 779.935L288.545 763.086L318.608 745.671V779.37ZM287.301 800.517L317.93 818.271L304.029 826.3L287.301 835.912L256.672 818.158L270.574 810.129L287.301 800.517ZM287.866 837.608L316.913 854.458C316.913 854.684 316.8 854.797 316.8 855.023C316.8 855.25 316.8 855.363 316.913 855.589L287.866 872.438V837.608ZM350.368 762.747L320.756 779.935C320.53 779.709 320.078 779.483 319.739 779.37V745.105L350.368 727.351V762.747ZM192.476 705.865V672.279L223.105 690.033V725.429L194.058 708.579C194.058 708.353 194.171 708.24 194.171 708.014C194.171 706.996 193.493 706.091 192.476 705.865ZM192.476 710.162C192.815 710.049 193.267 709.823 193.493 709.597L222.54 726.446L192.476 743.748V710.162ZM223.783 689.016L193.154 671.261L208.186 662.554L223.783 653.507L254.412 671.261L223.783 689.016ZM192.476 634.848L223.105 617.094V652.489L192.476 670.244V634.848ZM160.717 543.024L191.346 525.27V560.665L160.717 578.419V543.024ZM159.587 615.85L149.528 621.617L128.845 633.604V598.209L159.474 580.455V615.85H159.587ZM127.715 670.244L112.344 661.423L96.9727 652.602V617.094L112.344 625.915L127.715 634.735V670.244ZM97.0857 580.455L127.715 598.209V633.604L112.344 624.784L96.9727 615.963V580.455H97.0857ZM64.1964 595.608C63.8573 595.721 63.4052 595.947 63.1792 596.173L33.5675 578.985V543.589L64.1964 561.343V595.608ZM64.1964 487.952V523.347L33.5675 505.593V471.328C33.9065 471.215 34.3586 470.989 34.5847 470.763L64.1964 487.952ZM32.8893 506.611L63.6313 524.365L33.5675 541.78L33.0024 542.119L32.4373 541.78L2.26044 524.365L32.8893 506.611ZM1.69533 561.343L32.3242 543.589V578.985L1.69533 596.852V561.343ZM1.69533 598.774L32.3242 616.529V651.924L1.69533 634.17V598.774ZM32.8893 615.511L2.26044 597.757L16.1621 589.728L32.8893 580.115L62.501 597.304C62.501 597.53 62.388 597.643 62.388 597.87C62.388 598.096 62.388 598.209 62.501 598.435L32.8893 615.511ZM65.3266 599.905C65.6657 599.792 66.1178 599.566 66.3438 599.34L95.9555 616.529V651.924L65.3266 634.17V599.905ZM65.3266 671.601L95.9555 653.846V689.242L65.3266 706.996V671.601ZM33.5675 728.482C34.4716 728.256 35.2628 727.351 35.2628 726.333C35.2628 726.107 35.2628 725.994 35.1498 725.768L64.1964 708.918V744.314L33.5675 762.068V728.482ZM64.1964 781.179L33.5675 798.933V763.538L64.1964 745.784V781.179ZM32.3242 836.251L1.69533 854.006V818.61L32.3242 800.856V836.251ZM33.5675 800.177L64.1964 782.423V817.819L33.5675 835.573V800.177ZM97.0857 763.425L126.697 746.236C126.923 746.462 127.376 746.689 127.715 746.802V781.066L97.0857 798.82V763.425ZM95.9555 800.856V835.686L65.3266 817.932V782.536L95.9555 800.291V800.856ZM127.715 706.996L97.0857 689.242V653.846L112.457 662.667L127.828 671.488V706.996H127.715ZM128.845 670.244V634.848L146.363 624.671L159.474 617.094V650.68C158.57 650.906 157.778 651.811 157.778 652.829C157.778 653.055 157.778 653.168 157.891 653.394L128.845 670.244ZM160.717 689.355V655.09C161.056 654.977 161.508 654.751 161.734 654.525L191.346 671.714V705.978C191.007 706.091 190.555 706.317 190.329 706.544L160.717 689.355ZM160.717 726.673L190.329 709.484C190.555 709.71 191.007 709.936 191.346 710.049V744.314L190.781 744.653L160.717 762.068V726.673ZM160.717 800.177L191.346 782.423V817.819L160.717 835.573V800.177ZM191.346 781.179L160.717 798.933V763.538L191.346 745.784V781.179ZM128.845 854.006V819.967C129.749 819.741 130.54 818.836 130.54 817.819C130.54 817.705 130.54 817.706 130.54 817.592L159.587 800.856V836.251L128.845 854.006ZM191.346 890.758L160.717 873.004V837.608L191.346 855.363V890.758ZM223.218 834.442C222.879 834.555 222.427 834.781 222.201 835.007L192.589 817.819V782.423L223.218 800.177V834.442ZM192.476 781.179V745.784L223.105 763.538V798.933L192.476 781.179ZM223.783 762.407L193.154 744.653L223.783 726.899L224.348 727.238L254.412 744.653L223.783 762.407ZM287.301 727.012L317.93 744.766L287.866 762.181L287.301 762.52L286.736 762.181L256.672 744.766L287.301 727.012ZM256.107 781.858L286.736 764.104V799.499L256.107 817.253V781.858ZM254.977 891.323L224.348 909.078V873.682L254.977 855.928V891.323ZM256.107 854.684V819.289L286.736 837.043V872.438L256.107 854.684ZM288.432 873.343L317.478 856.493C317.704 856.72 318.156 856.946 318.495 857.059V890.758L288.432 873.343ZM319.739 852.875V819.289L350.368 837.043V872.438L321.321 855.589C321.321 855.363 321.434 855.25 321.434 855.023C321.321 853.892 320.643 853.101 319.739 852.875ZM351.498 909.078V873.682L382.127 855.928V891.323L351.498 909.078ZM413.999 873.004L383.257 890.758V855.363L413.886 837.608V873.004H413.999ZM415.129 836.251V800.856L445.758 818.61V852.875C445.419 852.988 445.08 853.214 444.741 853.44L415.129 836.251ZM860.887 386.748L829.128 368.429L860.096 350.561L860.435 350.448V313.696L861 313.357L860.435 313.017V276.265L829.241 258.284L860.209 240.417L860.548 240.304V202.308L827.885 221.193L827.546 221.306V257.38V294.811L797.934 311.999C797.708 311.773 797.256 311.547 796.917 311.434V239.739L765.158 221.419V184.327L734.642 166.912C734.642 166.686 734.755 166.573 734.755 166.347C734.755 166.121 734.755 166.008 734.642 165.782L764.592 148.48L764.931 148.367V112.18L795.56 129.934V204.117L826.302 186.363C826.754 186.815 827.207 187.041 827.885 187.041C829.128 187.041 830.145 186.024 830.145 184.78C830.145 183.762 829.467 182.857 828.45 182.631V111.614L860.096 93.2945L860.435 93.1814V55.072L828.45 73.5048L796.126 92.1637L763.801 73.5048V110.936L732.268 129.142L731.929 129.255V164.198C731.025 164.425 730.234 165.329 730.234 166.347C730.234 167.365 730.912 168.269 731.929 168.496V203.439L763.688 221.758V257.832L733.059 275.586V239.512L701.3 221.193V220.514L700.735 220.854L700.17 220.514V221.193L668.637 239.399L668.298 239.512V277.509L699.04 259.755C699.492 260.207 699.944 260.433 700.622 260.433C701.3 260.433 701.752 260.207 702.204 259.755L731.816 276.83V351.014L764.14 332.355L795.334 350.448L826.528 368.542L795.899 386.296L795.334 385.957V386.635L794.769 386.974L795.334 387.314V424.066L827.093 442.386V476.65C826.189 476.876 825.398 477.781 825.398 478.799C825.398 480.043 826.415 481.06 827.659 481.06C828.902 481.06 829.919 480.043 829.919 478.799C829.919 478.573 829.919 478.46 829.806 478.233L859.757 460.931L860.096 460.818V422.822L828.337 441.142V405.746L860.887 386.748ZM828.563 221.758L859.192 204.004V239.399L828.563 257.154V221.758ZM859.192 349.657L828.563 367.411V332.015L859.192 314.261V349.657ZM859.192 312.226L828.563 294.471V259.076L859.192 276.83V312.226ZM827.998 295.489L858.627 313.243L844.725 321.272L827.998 330.885L798.386 313.696C798.386 313.47 798.499 313.357 798.499 313.13C798.499 312.904 798.499 312.791 798.386 312.565L827.998 295.489ZM795.56 276.83V311.095C795.221 311.208 794.769 311.434 794.543 311.66L780.189 303.405L764.818 294.585V259.189L780.189 268.01L795.56 276.83ZM796.691 129.934L827.32 112.18V147.575L796.691 165.329V129.934ZM796.691 202.082V166.686L827.32 148.932V182.518C826.415 182.744 825.624 183.649 825.624 184.667C825.624 184.893 825.624 185.006 825.737 185.232L796.691 202.082ZM828.563 74.7487L859.192 56.9945V92.3898L828.563 110.144V74.7487ZM827.32 110.823L796.691 128.577V93.1814L827.32 75.4272V110.823ZM764.931 75.4272L795.56 93.1814V128.577L764.931 110.823V110.144V75.4272ZM763.801 112.18V147.575L734.19 164.764C733.964 164.538 733.511 164.311 733.172 164.198V129.934L763.801 112.18ZM733.059 202.76V168.496C733.398 168.382 733.737 168.156 734.077 167.93L763.688 185.119V220.514L733.059 202.76ZM795.56 240.078V275.473L780.189 266.653L764.818 257.832V222.437L795.56 240.078ZM669.541 275.586V240.191L700.17 222.437V256.023C699.266 256.249 698.475 257.154 698.475 258.171C698.475 258.398 698.475 258.511 698.588 258.737L669.541 275.586ZM701.3 256.023V222.437L731.929 240.191V275.586L702.883 258.737C702.883 258.511 702.996 258.398 702.996 258.171C702.996 257.154 702.317 256.249 701.3 256.023ZM733.059 276.83L763.688 259.076V294.471L733.059 312.226V276.83ZM733.059 313.583L763.688 295.828V331.337L733.059 349.091V313.583ZM764.931 331.337V295.942L780.302 304.762L794.091 312.678C794.091 312.904 793.978 313.017 793.978 313.243C793.978 314.261 794.656 315.166 795.673 315.392V348.978L764.931 331.337ZM796.691 315.392C797.03 315.279 797.482 315.053 797.708 314.827L827.32 332.015V367.411L796.691 349.657V315.392ZM827.432 369.333L827.998 368.994L828.563 369.333L858.627 386.748L827.998 404.502L797.256 386.748L827.432 369.333ZM796.691 387.766L827.32 405.52V440.916L796.691 423.161V387.766ZM859.192 424.405V459.801L829.58 476.989C829.354 476.763 828.902 476.537 828.563 476.424V442.159L859.192 424.405ZM671.123 202.986C671.123 202.76 671.123 202.647 671.01 202.421L700.961 185.119L701.3 185.006V111.614L730.799 94.5384C731.251 95.1039 731.816 95.4431 732.607 95.4431C733.85 95.4431 734.868 94.4254 734.868 93.1814C734.868 92.1637 734.19 91.259 733.172 91.0328V55.072L701.413 73.5048V37.4309L668.524 18.4327V56.4291L699.605 74.4095L668.863 92.1637L639.251 74.9749C639.251 74.7487 639.364 74.6356 639.364 74.4095C639.364 73.1655 638.347 72.1478 637.104 72.1478C635.861 72.1478 634.843 73.1655 634.843 74.4095C634.843 75.4272 635.522 76.3319 636.539 76.558V110.144V147.575L605.345 165.668L574.716 147.914L605.684 130.047L606.023 129.934V93.1814L606.588 92.8422L606.023 92.5029V56.4291L637.443 38.2225L637.782 38.1094V0L605.119 18.8851L604.78 18.9982V55.072L574.151 37.4309V36.7524L573.586 37.0916L541.261 18.4327V54.0543C540.922 54.1674 540.47 54.3935 540.244 54.6197L510.632 37.544V0L478.873 18.3197L446.21 37.2047L445.871 37.3178V73.5048L415.242 55.7505V55.072L414.677 55.4113L414.112 55.072V55.7505L382.918 73.844L350.368 55.072V92.5029L319.739 110.257V74.0702L286.849 55.072L255.09 36.7524V74.1833L225.478 91.3721C225.026 90.9198 224.574 90.6936 223.896 90.6936C222.653 90.6936 221.636 91.7113 221.636 92.9553C221.636 94.1992 222.653 95.2169 223.896 95.2169C224.461 95.2169 225.026 94.9908 225.478 94.5384L255.09 111.727V149.158L287.753 130.273L288.093 130.16V93.7469L318.721 111.501V148.932L349.463 131.178C349.689 131.404 350.142 131.63 350.481 131.743V166.686L383.37 185.684V148.932L415.129 167.252V129.255L383.935 111.162L414.564 93.4076L446.888 112.067V74.7487L477.517 56.9945V129.142L445.984 147.349L445.645 147.462V185.458L476.387 167.704C476.839 168.156 477.291 168.382 477.969 168.382C479.212 168.382 480.23 167.365 480.23 166.121C480.23 165.103 479.551 164.198 478.534 163.972V129.708L510.067 111.501L510.406 111.388V75.4272L541.035 93.1814V127.446C540.131 127.672 539.34 128.577 539.34 129.595C539.34 129.821 539.34 129.934 539.453 130.16L509.502 147.462L509.163 147.575V185.571L541.487 166.912L573.247 185.232L605.006 166.912L636.765 185.232L667.959 167.139V200.725C667.055 200.951 666.263 201.855 666.263 202.873C666.263 204.117 667.281 205.135 668.524 205.135C670.219 205.248 671.123 204.23 671.123 202.986ZM700.17 184.327L670.558 201.516C670.332 201.29 669.88 201.064 669.541 200.951V166.686L670.106 166.347L700.17 148.932V184.327ZM637.669 112.18L668.298 129.934V165.329L637.669 147.575V112.18ZM669.541 129.934L700.17 112.18V147.575L669.541 165.329V129.934ZM700.17 110.823L669.541 128.577V93.1814L700.17 75.4272V110.823ZM732.042 57.1076V91.1459C731.138 91.3721 730.347 92.2768 730.347 93.2945C730.347 93.4076 730.347 93.4076 730.347 93.5207L701.3 110.257V74.7487L732.042 57.1076ZM669.541 20.3552L700.17 38.1094V73.5048L669.541 55.7505V20.3552ZM637.669 76.558C638.008 76.445 638.46 76.2188 638.686 75.9926L668.298 93.1814V128.577L637.669 110.823V76.558ZM573.586 110.596L542.957 92.8422L556.858 84.8132L573.586 75.201L604.214 92.9553L590.313 100.984L573.586 110.596ZM542.279 58.2384C542.618 58.1253 543.07 57.8991 543.296 57.673L572.342 74.5225L542.279 91.9375V58.2384ZM573.021 73.5048L543.974 56.6552C543.974 56.429 544.087 56.316 544.087 56.0898C544.087 55.8636 544.087 55.7505 543.974 55.5244L573.021 38.6748V73.5048ZM573.021 111.501V147.01L543.974 130.16C543.974 129.934 544.087 129.821 544.087 129.595C544.087 128.577 543.409 127.672 542.392 127.446V93.8599L573.021 111.501ZM542.279 131.743C542.618 131.63 543.07 131.404 543.296 131.178L572.342 148.027L542.279 165.442V131.743ZM604.78 129.255L574.151 147.01V111.501L604.78 93.8599V129.255ZM605.91 19.6767L636.539 1.92243V37.3178L605.91 55.072V19.6767ZM604.78 56.4291V91.8244L574.151 74.1833V38.6748L604.78 56.4291ZM572.455 37.7701L543.409 54.6197C543.183 54.3935 542.731 54.1674 542.392 54.0543V20.3552L572.455 37.7701ZM509.389 1.92243V37.3178L478.76 55.072V19.6767L509.389 1.92243ZM413.999 57.1076V92.5029L383.37 110.257V74.7487L413.999 57.1076ZM351.498 57.1076L382.127 74.8618V110.257L366.756 101.437L351.498 92.5029V57.1076ZM382.24 146.896L366.869 138.076L353.08 130.16C353.08 129.934 353.193 129.821 353.193 129.595C353.193 128.577 352.515 127.672 351.498 127.446V93.8599L366.869 102.681L382.24 111.501V146.896ZM318.608 110.257L287.98 92.5029V57.1076L318.608 74.8618V110.257ZM256.107 38.6748L286.736 56.4291V91.8244L256.107 74.0702V38.6748ZM225.931 92.2768L255.542 75.088L286.171 92.8422L272.27 100.871L255.542 110.483L225.931 93.2945C225.931 93.0684 226.044 92.9553 226.044 92.7291C226.044 92.5029 225.931 92.3898 225.931 92.2768ZM286.736 129.255L256.107 147.01V111.501L286.736 93.8599V129.255ZM319.739 146.896V111.501L350.368 93.8599V127.446C349.463 127.672 348.672 128.577 348.672 129.595C348.672 129.821 348.672 129.934 348.785 130.16L319.739 146.896ZM382.24 183.649L351.498 166.008V131.743C351.837 131.63 352.289 131.404 352.515 131.178L366.869 139.433L382.24 148.253V183.649ZM413.999 165.329L383.37 147.575V112.18L413.999 129.934V165.329ZM445.758 110.257L415.129 92.5029V57.1076L445.758 74.8618V110.257ZM446.888 73.5048V37.9963L477.63 20.3552V55.7505L446.888 73.5048ZM509.389 38.6748V74.0702L478.76 91.8244V56.4291L509.389 38.6748ZM446.888 183.649V148.253L477.517 130.499V164.085C476.613 164.311 475.822 165.216 475.822 166.234C475.822 166.46 475.822 166.573 475.935 166.799L446.888 183.649ZM509.389 110.823L478.76 128.577V93.1814L509.389 75.4272V110.823ZM510.519 38.6748L539.566 55.5244C539.566 55.7505 539.453 55.8636 539.453 56.0898C539.453 57.1076 540.131 58.0122 541.148 58.2384V91.8244L510.519 74.0702V38.6748ZM510.519 148.253L540.131 131.065C540.357 131.291 540.809 131.517 541.148 131.63V165.895L510.519 183.649V148.253ZM573.586 183.988L542.957 166.234L573.021 148.819L573.586 148.48L574.151 148.819L604.214 166.234L573.586 183.988ZM606.475 166.347L637.104 148.593L667.733 166.347L637.104 184.101L606.475 166.347Z" fill="white" fill-opacity="0.16"/>
</svg>
