<svg width="848" height="295" viewBox="0 0 848 295" fill="none" xmlns="http://www.w3.org/2000/svg">
<path d="M437.888 494.875V459.932L404.999 440.933V478.364L374.37 496.119V459.253L342.046 477.912L310.852 459.819V425.554C311.756 425.328 312.547 424.423 312.547 423.405C312.547 423.179 312.547 423.066 312.434 422.84L342.385 405.538L342.724 405.425V367.429L310.4 386.088L278.64 367.768L246.881 386.088L215.687 367.994V331.92L248.012 313.261L215.687 294.602V257.172L182.685 276.057L182.346 276.17V312.244L153.299 295.394C153.299 295.168 153.412 295.055 153.412 294.829C153.412 293.811 152.734 292.906 151.717 292.68V221.776L183.25 203.57L183.589 203.457V165.46L150.926 184.345L150.587 184.458V221.211L119.393 239.304L88.7638 221.55L119.732 203.683L120.071 203.57V165.573L87.4076 184.458L87.0685 184.571V257.398L58.0219 240.548C58.0219 240.322 58.1349 240.209 58.1349 239.983C58.1349 238.965 57.4568 238.06 56.4396 237.834V202.891L25.2456 184.798L55.8745 167.043L56.4396 167.383V166.704L57.0047 166.365L56.4396 166.026V129.273L26.0368 111.745C26.0368 111.519 26.1498 111.406 26.1498 111.18C26.1498 109.936 25.1326 108.918 23.8893 108.918C22.6461 108.918 21.6289 109.936 21.6289 111.18C21.6289 112.198 22.307 113.102 23.3242 113.328V147.593L-9 166.365L22.7591 184.685L-8.09583 202.552L-8.43489 202.665V239.417L-9 239.757L-8.43489 240.096V276.848L22.7591 294.829L-8.20885 312.809L-8.43489 312.922V350.918L24.2284 332.033L24.5675 331.92V295.846V258.415L54.1792 241.227C54.4052 241.453 54.8573 241.679 55.1964 241.792V276.735L86.3904 294.829L55.4224 312.809L55.0834 312.922V349.674L25.4716 366.75C25.0196 366.298 24.5675 366.072 23.8893 366.072C22.6461 366.072 21.6289 367.089 21.6289 368.333C21.6289 369.351 22.307 370.256 23.3242 370.482V441.499L-8.20885 459.706L-8.43489 459.819V497.815V533.889L23.3242 552.208V552.887L23.8893 552.548L24.4544 552.887V552.208L55.9875 534.002L56.3266 533.889V495.892L25.5847 513.647C25.1326 513.194 24.6805 512.968 24.0024 512.968C23.4373 512.968 22.8721 513.194 22.4201 513.647L-6.73956 496.91L23.4373 479.495L55.7615 460.836L88.0857 479.608V442.177L119.619 423.971L119.958 423.858V388.915C120.862 388.689 121.653 387.784 121.653 386.766C121.653 385.522 120.636 384.504 119.393 384.504C118.15 384.504 117.132 385.522 117.132 386.766C117.132 386.992 117.132 387.105 117.245 387.332L87.2946 404.633L86.9555 404.747V440.82L56.3266 423.066V350.24L87.5206 332.26L119.845 350.918V313.488L149.457 296.299C149.683 296.525 150.135 296.751 150.474 296.864V331.807L180.651 349.222C180.651 349.448 180.538 349.561 180.538 349.788C180.538 350.014 180.538 350.127 180.651 350.353L150.7 367.655L150.361 367.768V441.16L120.862 458.235C120.41 457.67 119.845 457.331 119.054 457.331C117.81 457.331 116.793 458.348 116.793 459.592C116.793 460.61 117.471 461.515 118.489 461.741V497.702L150.248 479.382V515.456L183.137 534.454V496.571L151.943 478.591L182.685 460.836L212.297 478.025C212.297 478.251 212.184 478.364 212.184 478.591C212.184 479.834 213.201 480.852 214.444 480.852C215.687 480.852 216.705 479.834 216.705 478.591C216.705 477.573 216.026 476.668 215.009 476.442V405.425L246.203 387.332L276.832 405.086L245.864 422.953L245.525 423.066V459.819L244.96 460.158L245.525 460.497V496.571L213.992 514.777L213.653 514.891V552.887L246.316 534.002L246.655 533.889V497.815L277.284 515.569V516.248L277.849 515.908L310.174 534.567V498.946C310.513 498.833 310.965 498.606 311.191 498.38L340.802 515.569V553L372.562 534.68L405.79 515.795L406.129 515.682V479.608L435.176 496.458C435.176 496.684 435.063 496.797 435.063 497.023C435.063 498.267 436.08 499.285 437.323 499.285C438.566 499.285 439.583 498.267 439.583 497.023C439.583 495.892 438.792 495.101 437.888 494.875ZM88.0857 185.024L118.715 167.27V202.665L88.0857 220.419V185.024ZM23.3242 331.355L-7.30467 348.996V313.601L23.3242 295.846V331.355ZM55.1964 497.928V533.323L24.5675 551.078V517.492C25.4716 517.265 26.2628 516.361 26.2628 515.343C26.2628 515.117 26.2628 515.004 26.1498 514.777L55.1964 497.928ZM23.4373 517.492V551.078L-7.30467 533.323V497.928L21.7419 514.777C21.7419 515.004 21.6289 515.117 21.6289 515.343C21.7419 516.361 22.4201 517.152 23.4373 517.492ZM373.127 496.571L342.498 514.325V478.93L373.127 461.176V496.571ZM309.608 494.875C309.269 494.988 308.817 495.214 308.591 495.44L279.545 478.591L309.608 461.176V494.875ZM278.866 441.499V406.104L307.913 422.953C307.913 423.179 307.8 423.292 307.8 423.518C307.8 424.536 308.478 425.441 309.495 425.667V459.253L278.866 441.499ZM309.608 421.37C309.269 421.483 308.817 421.709 308.591 421.935L279.545 405.086L309.608 387.671V421.37ZM278.301 442.517L308.93 460.271L295.029 468.3L278.301 477.912L247.672 460.158L261.574 452.129L278.301 442.517ZM278.866 479.608L307.913 496.458C307.913 496.684 307.8 496.797 307.8 497.023C307.8 497.25 307.8 497.363 307.913 497.589L278.866 514.438V479.608ZM341.368 404.747L311.756 421.935C311.53 421.709 311.078 421.483 310.739 421.37V387.105L341.368 369.351V404.747ZM183.476 347.865V314.279L214.105 332.033V367.429L185.058 350.579C185.058 350.353 185.171 350.24 185.171 350.014C185.171 348.996 184.493 348.091 183.476 347.865ZM183.476 352.162C183.815 352.049 184.267 351.823 184.493 351.597L213.54 368.446L183.476 385.748V352.162ZM214.783 331.016L184.154 313.261L199.186 304.554L214.783 295.507L245.412 313.261L214.783 331.016ZM183.476 276.848L214.105 259.094V294.489L183.476 312.244V276.848ZM151.717 185.024L182.346 167.27V202.665L151.717 220.419V185.024ZM150.587 257.85L140.528 263.617L119.845 275.604V240.209L150.474 222.455V257.85H150.587ZM118.715 312.244L103.344 303.423L87.9727 294.602V259.094L103.344 267.915L118.715 276.735V312.244ZM88.0857 222.455L118.715 240.209V275.604L103.344 266.784L87.9727 257.963V222.455H88.0857ZM55.1964 237.608C54.8573 237.721 54.4052 237.947 54.1792 238.173L24.5675 220.985V185.589L55.1964 203.343V237.608ZM55.1964 129.952V165.347L24.5675 147.593V113.328C24.9065 113.215 25.3586 112.989 25.5847 112.763L55.1964 129.952ZM23.8893 148.611L54.6313 166.365L24.5675 183.78L24.0024 184.119L23.4373 183.78L-6.73956 166.365L23.8893 148.611ZM-7.30467 203.343L23.3242 185.589V220.985L-7.30467 238.852V203.343ZM-7.30467 240.774L23.3242 258.529V293.924L-7.30467 276.17V240.774ZM23.8893 257.511L-6.73956 239.757L7.16212 231.728L23.8893 222.115L53.501 239.304C53.501 239.53 53.388 239.643 53.388 239.87C53.388 240.096 53.388 240.209 53.501 240.435L23.8893 257.511ZM56.3266 241.905C56.6657 241.792 57.1178 241.566 57.3438 241.34L86.9555 258.529V293.924L56.3266 276.17V241.905ZM56.3266 313.601L86.9555 295.846V331.242L56.3266 348.996V313.601ZM24.5675 370.482C25.4716 370.256 26.2628 369.351 26.2628 368.333C26.2628 368.107 26.2628 367.994 26.1498 367.768L55.1964 350.918V386.314L24.5675 404.068V370.482ZM55.1964 423.179L24.5675 440.933V405.538L55.1964 387.784V423.179ZM23.3242 478.251L-7.30467 496.006V460.61L23.3242 442.856V478.251ZM24.5675 442.177L55.1964 424.423V459.819L24.5675 477.573V442.177ZM88.0857 405.425L117.697 388.236C117.923 388.462 118.376 388.689 118.715 388.802V423.066L88.0857 440.82V405.425ZM86.9555 442.856V477.686L56.3266 459.932V424.536L86.9555 442.291V442.856ZM118.715 348.996L88.0857 331.242V295.846L103.457 304.667L118.828 313.488V348.996H118.715ZM119.845 312.244V276.848L137.363 266.671L150.474 259.094V292.68C149.57 292.906 148.778 293.811 148.778 294.829C148.778 295.055 148.778 295.168 148.891 295.394L119.845 312.244ZM151.717 331.355V297.09C152.056 296.977 152.508 296.751 152.734 296.525L182.346 313.714V347.978C182.007 348.091 181.555 348.317 181.329 348.544L151.717 331.355ZM151.717 368.673L181.329 351.484C181.555 351.71 182.007 351.936 182.346 352.049V386.314L181.781 386.653L151.717 404.068V368.673ZM151.717 442.177L182.346 424.423V459.819L151.717 477.573V442.177ZM182.346 423.179L151.717 440.933V405.538L182.346 387.784V423.179ZM119.845 496.006V461.967C120.749 461.741 121.54 460.836 121.54 459.819C121.54 459.706 121.54 459.705 121.54 459.592L150.587 442.856V478.251L119.845 496.006ZM182.346 532.758L151.717 515.004V479.608L182.346 497.363V532.758ZM214.218 476.442C213.879 476.555 213.427 476.781 213.201 477.007L183.589 459.819V424.423L214.218 442.177V476.442ZM183.476 423.179V387.784L214.105 405.538V440.933L183.476 423.179ZM214.783 404.407L184.154 386.653L214.783 368.899L215.348 369.238L245.412 386.653L214.783 404.407ZM278.301 369.012L308.93 386.766L278.866 404.181L278.301 404.52L277.736 404.181L247.672 386.766L278.301 369.012ZM247.107 423.858L277.736 406.104V441.499L247.107 459.253V423.858ZM245.977 533.323L215.348 551.078V515.682L245.977 497.928V533.323ZM247.107 496.684V461.289L277.736 479.043V514.438L247.107 496.684ZM279.432 515.343L308.478 498.493C308.704 498.72 309.156 498.946 309.495 499.059V532.758L279.432 515.343ZM310.739 494.875V461.289L341.368 479.043V514.438L312.321 497.589C312.321 497.363 312.434 497.25 312.434 497.023C312.321 495.892 311.643 495.101 310.739 494.875ZM342.498 551.078V515.682L373.127 497.928V533.323L342.498 551.078ZM404.999 515.004L374.257 532.758V497.363L404.886 479.608V515.004H404.999ZM406.129 478.251V442.856L436.758 460.61V494.875C436.419 494.988 436.08 495.214 435.741 495.44L406.129 478.251ZM851.887 264.748L820.128 246.429L851.096 228.561L851.435 228.448V191.696L852 191.357L851.435 191.017V154.265L820.241 136.284L851.209 118.417L851.548 118.304V80.3078L818.885 99.1928L818.546 99.3059V135.38V172.811L788.934 189.999C788.708 189.773 788.256 189.547 787.917 189.434V117.739L756.158 99.419V62.3274L725.642 44.9124C725.642 44.6862 725.755 44.5731 725.755 44.347C725.755 44.1208 725.755 44.0077 725.642 43.7815L755.592 26.4796L755.931 26.3666V-9.82041L786.56 7.93382V82.1171L817.302 64.3629C817.754 64.8152 818.206 65.0414 818.885 65.0414C820.128 65.0414 821.145 64.0236 821.145 62.7797C821.145 61.7619 820.467 60.8573 819.45 60.6311V-10.3858L851.096 -28.7055L851.435 -28.8186V-66.928L819.45 -48.4952L787.126 -29.8363L754.801 -48.4952V-11.0643L723.268 7.14223L722.929 7.25533V42.1983C722.025 42.4245 721.234 43.3292 721.234 44.347C721.234 45.3647 721.912 46.2694 722.929 46.4956V81.4386L754.688 99.7583V135.832L724.059 153.586V117.512L692.3 99.1928V98.5143L691.735 98.8536L691.17 98.5143V99.1928L659.637 117.399L659.298 117.512V155.509L690.04 137.755C690.492 138.207 690.944 138.433 691.622 138.433C692.3 138.433 692.752 138.207 693.204 137.755L722.816 154.83V229.014L755.14 210.355L786.334 228.448L817.528 246.542L786.899 264.296L786.334 263.957V264.635L785.769 264.974L786.334 265.314V302.066L818.093 320.386V354.65C817.189 354.876 816.398 355.781 816.398 356.799C816.398 358.043 817.415 359.06 818.659 359.06C819.902 359.06 820.919 358.043 820.919 356.799C820.919 356.573 820.919 356.46 820.806 356.233L850.757 338.931L851.096 338.818V300.822L819.337 319.142V283.746L851.887 264.748ZM819.563 99.7583L850.192 82.004V117.399L819.563 135.154V99.7583ZM850.192 227.657L819.563 245.411V210.015L850.192 192.261V227.657ZM850.192 190.226L819.563 172.471V137.076L850.192 154.83V190.226ZM818.998 173.489L849.627 191.243L835.725 199.272L818.998 208.885L789.386 191.696C789.386 191.47 789.499 191.357 789.499 191.13C789.499 190.904 789.499 190.791 789.386 190.565L818.998 173.489ZM786.56 154.83V189.095C786.221 189.208 785.769 189.434 785.543 189.66L771.189 181.405L755.818 172.585V137.189L771.189 146.01L786.56 154.83ZM787.691 7.93382L818.32 -9.82041V25.575L787.691 43.3292V7.93382ZM787.691 80.0816V44.6862L818.32 26.932V60.518C817.415 60.7442 816.624 61.6488 816.624 62.6666C816.624 62.8928 816.624 63.0059 816.737 63.232L787.691 80.0816ZM819.563 -47.2513L850.192 -65.0055V-29.6102L819.563 -11.8559V-47.2513ZM818.32 -11.1774L787.691 6.57681V-28.8186L818.32 -46.5728V-11.1774ZM755.931 -46.5728L786.56 -28.8186V6.57681L755.931 -11.1774V-11.8559V-46.5728ZM754.801 -9.82041V25.575L725.19 42.7638C724.964 42.5376 724.511 42.3114 724.172 42.1983V7.93382L754.801 -9.82041ZM724.059 80.7601V46.4956C724.398 46.3825 724.737 46.1563 725.077 45.9301L754.688 63.1189V98.5143L724.059 80.7601ZM786.56 118.078V153.473L771.189 144.653L755.818 135.832V100.437L786.56 118.078ZM660.541 153.586V118.191L691.17 100.437V134.023C690.266 134.249 689.475 135.154 689.475 136.171C689.475 136.398 689.475 136.511 689.588 136.737L660.541 153.586ZM692.3 134.023V100.437L722.929 118.191V153.586L693.883 136.737C693.883 136.511 693.996 136.398 693.996 136.171C693.996 135.154 693.317 134.249 692.3 134.023ZM724.059 154.83L754.688 137.076V172.471L724.059 190.226V154.83ZM724.059 191.583L754.688 173.828V209.337L724.059 227.091V191.583ZM755.931 209.337V173.942L771.302 182.762L785.091 190.678C785.091 190.904 784.978 191.017 784.978 191.243C784.978 192.261 785.656 193.166 786.673 193.392V226.978L755.931 209.337ZM787.691 193.392C788.03 193.279 788.482 193.053 788.708 192.827L818.32 210.015V245.411L787.691 227.657V193.392ZM818.432 247.333L818.998 246.994L819.563 247.333L849.627 264.748L818.998 282.502L788.256 264.748L818.432 247.333ZM787.691 265.766L818.32 283.52V318.916L787.691 301.161V265.766ZM850.192 302.405V337.801L820.58 354.989C820.354 354.763 819.902 354.537 819.563 354.424V320.159L850.192 302.405ZM662.123 80.9863C662.123 80.7601 662.123 80.647 662.01 80.4208L691.961 63.1189L692.3 63.0059V-10.3858L721.799 -27.4616C722.251 -26.8961 722.816 -26.5569 723.607 -26.5569C724.851 -26.5569 725.868 -27.5746 725.868 -28.8186C725.868 -29.8363 725.19 -30.741 724.172 -30.9672V-66.928L692.413 -48.4952V-84.5691L659.524 -103.567V-65.5709L690.605 -47.5905L659.863 -29.8363L630.251 -47.0251C630.251 -47.2513 630.364 -47.3644 630.364 -47.5905C630.364 -48.8345 629.347 -49.8522 628.104 -49.8522C626.861 -49.8522 625.843 -48.8345 625.843 -47.5905C625.843 -46.5728 626.522 -45.6681 627.539 -45.442V-11.8559V25.575L596.345 43.6685L565.716 25.9142L596.684 8.04691L597.023 7.93382V-28.8186L597.588 -29.1578L597.023 -29.4971V-65.5709L628.443 -83.7775L628.782 -83.8906V-122L596.119 -103.115L595.78 -103.002V-66.928L565.151 -84.5691V-85.2476L564.586 -84.9084L532.261 -103.567V-67.9457C531.922 -67.8326 531.47 -67.6065 531.244 -67.3803L501.632 -84.456V-122L469.873 -103.68L437.21 -84.7953L436.871 -84.6822V-48.4952L406.242 -66.2495V-66.928L405.677 -66.5887L405.112 -66.928V-66.2495L373.918 -48.156L341.368 -66.928V-29.4971L310.739 -11.7428V-47.9298L277.849 -66.928L246.09 -85.2476V-47.8167L216.478 -30.6279C216.026 -31.0802 215.574 -31.3064 214.896 -31.3064C213.653 -31.3064 212.636 -30.2887 212.636 -29.0447C212.636 -27.8008 213.653 -26.7831 214.896 -26.7831C215.461 -26.7831 216.026 -27.0092 216.478 -27.4616L246.09 -10.2727V27.1581L278.753 8.27307L279.093 8.15999V-28.2531L309.721 -10.4989V26.932L340.463 9.17775C340.689 9.40392 341.142 9.63008 341.481 9.74318V44.6862L374.37 63.6844V26.932L406.129 45.2516V7.25533L374.935 -10.8382L405.564 -28.5924L437.888 -9.93349V-47.2513L468.517 -65.0055V7.14223L436.984 25.3488L436.645 25.4619V63.4582L467.387 45.704C467.839 46.1563 468.291 46.3825 468.969 46.3825C470.212 46.3825 471.23 45.3647 471.23 44.1208C471.23 43.103 470.551 42.1984 469.534 41.9722V7.70766L501.067 -10.4989L501.406 -10.612V-46.5728L532.035 -28.8186V5.44597C531.131 5.67213 530.34 6.57681 530.34 7.59457C530.34 7.82074 530.34 7.93382 530.453 8.15999L500.502 25.4619L500.163 25.575V63.5713L532.487 44.9124L564.247 63.232L596.006 44.9124L627.765 63.232L658.959 45.1385V78.7246C658.055 78.9507 657.263 79.8554 657.263 80.8732C657.263 82.1171 658.281 83.1349 659.524 83.1349C661.219 83.2479 662.123 82.2302 662.123 80.9863ZM691.17 62.3274L661.558 79.5162C661.332 79.29 660.88 79.0638 660.541 78.9507V44.6862L661.106 44.347L691.17 26.932V62.3274ZM628.669 -9.82041L659.298 7.93382V43.3292L628.669 25.575V-9.82041ZM660.541 7.93382L691.17 -9.82041V25.575L660.541 43.3292V7.93382ZM691.17 -11.1774L660.541 6.57681V-28.8186L691.17 -46.5728V-11.1774ZM723.042 -64.8924V-30.8541C722.138 -30.6279 721.347 -29.7232 721.347 -28.7055C721.347 -28.5924 721.347 -28.5924 721.347 -28.4793L692.3 -11.7428V-47.2513L723.042 -64.8924ZM660.541 -101.645L691.17 -83.8906V-48.4952L660.541 -66.2495V-101.645ZM628.669 -45.442C629.008 -45.555 629.46 -45.7812 629.686 -46.0074L659.298 -28.8186V6.57681L628.669 -11.1774V-45.442ZM564.586 -11.4036L533.957 -29.1578L547.858 -37.1868L564.586 -46.799L595.214 -29.0447L581.313 -21.0157L564.586 -11.4036ZM533.279 -63.7616C533.618 -63.8747 534.07 -64.1009 534.296 -64.327L563.342 -47.4775L533.279 -30.0625V-63.7616ZM564.021 -48.4952L534.974 -65.3448C534.974 -65.571 535.087 -65.684 535.087 -65.9102C535.087 -66.1364 535.087 -66.2495 534.974 -66.4756L564.021 -83.3252V-48.4952ZM564.021 -10.4989V25.0096L534.974 8.15999C534.974 7.93382 535.087 7.82074 535.087 7.59457C535.087 6.57681 534.409 5.67213 533.392 5.44597V-28.1401L564.021 -10.4989ZM533.279 9.74318C533.618 9.63008 534.07 9.40392 534.296 9.17775L563.342 26.0273L533.279 43.4423V9.74318ZM595.78 7.25533L565.151 25.0096V-10.4989L595.78 -28.1401V7.25533ZM596.91 -102.323L627.539 -120.078V-84.6822L596.91 -66.928V-102.323ZM595.78 -65.5709V-30.1756L565.151 -47.8167V-83.3252L595.78 -65.5709ZM563.455 -84.2299L534.409 -67.3803C534.183 -67.6065 533.731 -67.8326 533.392 -67.9457V-101.645L563.455 -84.2299ZM500.389 -120.078V-84.6822L469.76 -66.928V-102.323L500.389 -120.078ZM404.999 -64.8924V-29.4971L374.37 -11.7428V-47.2513L404.999 -64.8924ZM342.498 -64.8924L373.127 -47.1382V-11.7428L357.756 -20.5634L342.498 -29.4971V-64.8924ZM373.24 24.8965L357.869 16.0759L344.08 8.15999C344.08 7.93382 344.193 7.82074 344.193 7.59457C344.193 6.57681 343.515 5.67213 342.498 5.44597V-28.1401L357.869 -19.3195L373.24 -10.4989V24.8965ZM309.608 -11.7428L278.98 -29.4971V-64.8924L309.608 -47.1382V-11.7428ZM247.107 -83.3252L277.736 -65.5709V-30.1756L247.107 -47.9298V-83.3252ZM216.931 -29.7232L246.542 -46.912L277.171 -29.1578L263.27 -21.1288L246.542 -11.5167L216.931 -28.7055C216.931 -28.9316 217.044 -29.0447 217.044 -29.2709C217.044 -29.4971 216.931 -29.6102 216.931 -29.7232ZM277.736 7.25533L247.107 25.0096V-10.4989L277.736 -28.1401V7.25533ZM310.739 24.8965V-10.4989L341.368 -28.1401V5.44597C340.463 5.67213 339.672 6.57681 339.672 7.59457C339.672 7.82074 339.672 7.93382 339.785 8.15999L310.739 24.8965ZM373.24 61.6488L342.498 44.0077V9.74318C342.837 9.63008 343.289 9.40392 343.515 9.17775L357.869 17.4329L373.24 26.2535V61.6488ZM404.999 43.3292L374.37 25.575V-9.82041L404.999 7.93382V43.3292ZM436.758 -11.7428L406.129 -29.4971V-64.8924L436.758 -47.1382V-11.7428ZM437.888 -48.4952V-84.0037L468.63 -101.645V-66.2495L437.888 -48.4952ZM500.389 -83.3252V-47.9298L469.76 -30.1756V-65.5709L500.389 -83.3252ZM437.888 61.6488V26.2535L468.517 8.49925V42.0853C467.613 42.3114 466.822 43.2161 466.822 44.2339C466.822 44.46 466.822 44.5731 466.935 44.7993L437.888 61.6488ZM500.389 -11.1774L469.76 6.57681V-28.8186L500.389 -46.5728V-11.1774ZM501.519 -83.3252L530.566 -66.4756C530.566 -66.2495 530.453 -66.1364 530.453 -65.9102C530.453 -64.8924 531.131 -63.9878 532.148 -63.7616V-30.1756L501.519 -47.9298V-83.3252ZM501.519 26.2535L531.131 9.06467C531.357 9.29083 531.809 9.51701 532.148 9.6301V43.8946L501.519 61.6488V26.2535ZM564.586 61.9881L533.957 44.2339L564.021 26.8189L564.586 26.4796L565.151 26.8189L595.214 44.2339L564.586 61.9881ZM597.475 44.347L628.104 26.5927L658.733 44.347L628.104 62.1012L597.475 44.347Z" fill="#EFEFEF"/>
</svg>
