<svg width="394" height="445" viewBox="0 0 394 445" fill="none" xmlns="http://www.w3.org/2000/svg">
<path d="M1.69534 59.0434V93.9865L34.5847 112.985V75.5537L65.2136 57.7995V94.665L97.5378 76.006L128.732 94.0995V128.364C127.828 128.59 127.036 129.495 127.036 130.513C127.036 130.739 127.037 130.852 127.15 131.078L97.1988 148.38L96.8597 148.493V186.489L129.184 167.831L160.943 186.15L192.702 167.831L223.896 185.924V221.998L191.572 240.657L223.896 259.316V296.747L256.899 277.861L257.238 277.748V241.674L286.284 258.524C286.284 258.75 286.171 258.863 286.171 259.089C286.171 260.107 286.849 261.012 287.867 261.238V332.142L256.333 350.348L255.994 350.462V388.458L288.658 369.573L288.997 369.46V332.707L320.191 314.614L350.82 332.368L319.852 350.235L319.513 350.348V388.345L352.176 369.46L352.515 369.347V296.52L381.562 313.37C381.562 313.596 381.449 313.709 381.449 313.935C381.449 314.953 382.127 315.858 383.144 316.084V351.027L414.338 369.12L383.709 386.875L383.144 386.535V387.214L382.579 387.553L383.144 387.892V424.645L413.547 442.173C413.547 442.399 413.434 442.512 413.434 442.738C413.434 443.982 414.451 445 415.694 445C416.937 445 417.955 443.982 417.955 442.738C417.955 441.721 417.276 440.816 416.259 440.59V406.325L448.583 387.553L416.824 369.234L447.679 351.366L448.018 351.253V314.501L448.583 314.162L448.018 313.822V277.07L416.824 259.089L447.792 241.109L448.018 240.996V203L415.355 221.885L415.016 221.998V258.072V295.503L385.404 312.691C385.178 312.465 384.726 312.239 384.387 312.126V277.183L353.193 259.089L384.161 241.109L384.5 240.996V204.244L414.112 187.168C414.564 187.62 415.016 187.846 415.694 187.846C416.937 187.846 417.955 186.829 417.955 185.585C417.955 184.567 417.276 183.662 416.259 183.436V112.419L447.792 94.2126L448.018 94.0995V56.1033V20.0294L416.259 1.70966V1.03119L415.694 1.37042L415.129 1.03119V1.70966L383.596 19.9163L383.257 20.0294V58.0256L413.999 40.2714C414.451 40.7238 414.903 40.95 415.581 40.95C416.146 40.95 416.711 40.7238 417.163 40.2714L446.323 57.0079L416.146 74.4229L383.822 93.0817L351.498 74.3098V111.741L319.965 129.947L319.626 130.06V165.003C318.721 165.23 317.93 166.134 317.93 167.152C317.93 168.396 318.948 169.414 320.191 169.414C321.434 169.414 322.451 168.396 322.451 167.152C322.451 166.926 322.451 166.813 322.338 166.587L352.289 149.285L352.628 149.172V113.098L383.257 130.852V203.678L352.063 221.659L319.739 203V240.431L290.127 257.619C289.901 257.393 289.449 257.167 289.11 257.054V222.111L258.933 204.696C258.933 204.47 259.046 204.357 259.046 204.131C259.046 203.904 259.046 203.791 258.933 203.565L288.884 186.263L289.223 186.15V112.758L318.721 95.6827C319.174 96.2482 319.739 96.5874 320.53 96.5874C321.773 96.5874 322.79 95.5696 322.79 94.3257C322.79 93.3079 322.112 92.4032 321.095 92.1771V56.2163L289.336 74.5359V38.462L256.446 19.4639V57.3472L287.64 75.3276L256.899 93.0817L227.287 75.893C227.287 75.6668 227.4 75.5537 227.4 75.3276C227.4 74.0836 226.383 73.0659 225.139 73.0659C223.896 73.0659 222.879 74.0836 222.879 75.3276C222.879 76.3453 223.557 77.25 224.574 77.4761V148.493L193.38 166.587L162.751 148.832L193.719 130.965L194.058 130.852V94.0995L194.624 93.7603L194.058 93.421V57.3472L225.591 39.1406L225.931 39.0275V1.03119L193.267 19.9163L192.928 20.0294V56.1033L162.299 38.349V37.6705L161.734 38.0098L129.41 19.3508V54.9724C129.071 55.0855 128.619 55.3117 128.393 55.5378L98.7811 38.349V0.918091L67.0219 19.2377L33.7935 38.1228L33.4545 38.2359V74.3098L4.40787 57.4602C4.40787 57.234 4.52087 57.1209 4.52087 56.8948C4.52087 55.6508 3.50366 54.6331 2.26044 54.6331C1.01721 54.6331 0 55.6508 0 56.8948C0 58.0256 0.791168 58.8172 1.69534 59.0434ZM351.498 368.894L320.869 386.649V351.253L351.498 333.499V368.894ZM416.259 222.563L446.888 204.922V240.317L416.259 258.072V222.563ZM384.387 55.9901V20.5947L415.016 2.84052V36.4266C414.112 36.6527 413.321 37.5574 413.321 38.5752C413.321 38.8014 413.321 38.9145 413.434 39.1406L384.387 55.9901ZM416.146 36.4266V2.84052L446.888 20.5947V55.9901L417.842 39.1406C417.842 38.9145 417.955 38.8014 417.955 38.5752C417.842 37.5574 417.163 36.7658 416.146 36.4266ZM66.4568 57.3472L97.0857 39.5929V74.9883L66.4568 92.7425V57.3472ZM129.975 59.0434C130.314 58.9303 130.766 58.7041 130.992 58.478L160.039 75.3276L129.975 92.7425V59.0434ZM160.717 112.419V147.815L131.67 130.965C131.67 130.739 131.783 130.626 131.783 130.4C131.783 129.382 131.105 128.477 130.088 128.251V94.665L160.717 112.419ZM129.975 132.548C130.314 132.435 130.766 132.209 130.992 131.983L160.039 148.832L129.975 166.247V132.548ZM161.282 111.401L130.653 93.6472L144.555 85.6182L161.282 76.006L191.911 93.7603L178.009 101.789L161.282 111.401ZM160.717 74.3098L131.67 57.4602C131.67 57.234 131.783 57.1209 131.783 56.8948C131.783 56.6686 131.783 56.5555 131.67 56.3293L160.717 39.4799V74.3098ZM98.2159 149.172L127.828 131.983C128.054 132.209 128.506 132.435 128.845 132.548V166.813L98.2159 184.567V149.172ZM256.107 206.053V239.639L225.478 221.885V186.489L254.525 203.339C254.525 203.565 254.412 203.678 254.412 203.904C254.412 204.922 255.09 205.827 256.107 206.053ZM256.107 201.756C255.768 201.869 255.316 202.095 255.09 202.321L226.044 185.472L256.107 168.17V201.756ZM224.8 222.902L255.429 240.657L240.397 249.364L224.8 258.411L194.171 240.657L224.8 222.902ZM256.107 277.07L225.478 294.824V259.429L256.107 241.674V277.07ZM287.867 368.894L257.238 386.649V351.253L287.867 333.499V368.894ZM288.997 296.068L299.056 290.301L319.739 278.314V313.709L289.11 331.463V296.068H288.997ZM320.869 241.674L336.24 250.495L351.611 259.316V294.824L336.24 286.004L320.869 277.183V241.674ZM351.498 331.463L320.869 313.709V278.314L336.24 287.134L351.611 295.955V331.463H351.498ZM384.387 316.31C384.726 316.197 385.178 315.971 385.404 315.745L415.016 332.934V368.329L384.387 350.575V316.31ZM384.387 423.966V388.571L415.016 406.325V440.59C414.677 440.703 414.225 440.929 413.999 441.155L384.387 423.966ZM415.694 405.307L384.952 387.553L415.016 370.138L415.581 369.799L416.146 370.138L446.323 387.553L415.694 405.307ZM446.888 350.575L416.259 368.329V332.934L446.888 315.066V350.575ZM446.888 313.144L416.259 295.39V259.994L446.888 277.748V313.144ZM415.694 296.407L446.323 314.162L432.421 322.191L415.694 331.803L386.082 314.614C386.082 314.388 386.195 314.275 386.195 314.048C386.195 313.822 386.195 313.709 386.082 313.483L415.694 296.407ZM383.257 312.013C382.918 312.126 382.466 312.352 382.24 312.578L352.628 295.39V259.994L383.257 277.748V312.013ZM383.257 240.317L352.628 258.072V222.676L383.257 204.922V240.317ZM415.016 183.436C414.112 183.662 413.321 184.567 413.321 185.585C413.321 185.811 413.321 185.924 413.434 186.15L384.387 203V167.604L415.016 149.85V183.436ZM384.387 130.739L415.016 112.985V148.38L384.387 166.134V130.739ZM416.259 75.6668L446.888 57.9125V93.3079L416.259 111.062V75.6668ZM415.016 111.741L384.387 129.495V94.0995L415.016 76.3453V111.741ZM351.498 148.493L321.886 165.682C321.66 165.456 321.208 165.229 320.869 165.116V130.852L351.498 113.098V148.493ZM352.628 111.062V76.2322L383.257 93.9865V129.382L352.628 111.628V111.062ZM320.869 204.922L351.498 222.676V258.072L336.127 249.251L320.756 240.431V204.922H320.869ZM319.739 241.674V277.07L302.22 287.247L289.11 294.824V261.238C290.014 261.012 290.805 260.107 290.805 259.089C290.805 258.863 290.805 258.75 290.692 258.524L319.739 241.674ZM287.867 222.563V256.828C287.527 256.941 287.075 257.167 286.849 257.393L257.238 240.204V205.94C257.577 205.827 258.029 205.601 258.255 205.374L287.867 222.563ZM287.867 185.245L258.255 202.434C258.029 202.208 257.577 201.982 257.238 201.869V167.604L257.803 167.265L287.867 149.85V185.245ZM287.867 111.741L257.238 129.495V94.0995L287.867 76.3453V111.741ZM257.238 130.739L287.867 112.985V148.38L257.238 166.134V130.739ZM319.739 57.9125V91.9509C318.834 92.1771 318.043 93.0818 318.043 94.0995C318.043 94.2126 318.043 94.2126 318.043 94.3257L288.997 111.062V75.6668L319.739 57.9125ZM257.238 21.1602L287.867 38.9144V74.3098L257.238 56.5555V21.1602ZM225.365 77.4761C225.705 77.363 226.157 77.1369 226.383 76.9107L255.994 94.0995V129.495L225.365 111.741V77.4761ZM256.107 130.739V166.134L225.478 148.38V112.985L256.107 130.739ZM224.8 149.511L255.429 167.265L224.8 185.019L224.235 184.68L194.171 167.265L224.8 149.511ZM161.282 184.906L130.653 167.152L160.717 149.737L161.282 149.398L161.847 149.737L191.911 167.152L161.282 184.906ZM192.476 130.06L161.847 147.815V112.419L192.476 94.665V130.06ZM193.606 20.5947L224.235 2.84052V38.2359L193.606 55.9901V20.5947ZM192.476 57.2341V92.6295L161.847 74.8752V39.4799L192.476 57.2341ZM160.152 38.5752L131.105 55.4247C130.879 55.1985 130.427 54.9724 130.088 54.8593V21.1602L160.152 38.5752ZM128.845 59.0434V92.6295L98.2159 74.8752V39.4799L127.263 56.3293C127.263 56.5555 127.15 56.6686 127.15 56.8948C127.263 58.0256 127.941 58.8172 128.845 59.0434ZM97.0857 2.84052V38.2359L66.4568 55.9901V20.5947L97.0857 2.84052ZM34.5847 38.9144L65.3266 21.1602V56.5555L34.6977 74.3098V38.9144H34.5847ZM33.4545 75.6668V111.062L2.82556 93.3079V59.0434C3.16461 58.9303 3.50369 58.7041 3.84274 58.478L33.4545 75.6668Z" fill="white" fill-opacity="0.4"/>
</svg>
