<?xml version="1.0" encoding="UTF-8"?>
<svg width="38px" height="27px" viewBox="0 0 38 27" version="1.1" xmlns="http://www.w3.org/2000/svg" xmlns:xlink="http://www.w3.org/1999/xlink">
    <!-- Generator: Sketch 59.1 (86144) - https://sketch.com -->
    <title>logoE+</title>
    <desc>Created with Sketch.</desc>
    <defs>
        <linearGradient x1="100%" y1="50%" x2="0%" y2="50%" id="linearGradient-1">
            <stop stop-color="#F6D03B" offset="0%"></stop>
            <stop stop-color="#FCBF00" offset="100%"></stop>
        </linearGradient>
    </defs>
    <g id="Page-1" stroke="none" stroke-width="1" fill="none" fill-rule="evenodd">
        <g id="elementos-suscripcion" transform="translate(-468.000000, -118.000000)">
            <g id="logoE+" transform="translate(468.000000, 118.000000)">
                <circle id="Oval-2" fill="#FFFFFF" cx="24.5" cy="13.5" r="13.5"></circle>
                <g id="Group-6-Copy-4" transform="translate(0.000000, 3.000000)">
                    <g id="Group-Copy-3" transform="translate(24.500000, 11.000000) rotate(-345.000000) translate(-24.500000, -11.000000) translate(16.000000, 2.000000)" fill="url(#linearGradient-1)">
                        <ellipse id="Oval" cx="8.38330504" cy="8.56153846" rx="8.38330504" ry="8.56153846"></ellipse>
                    </g>
                    <path d="M0,4 L0,5.56292842 L1.16151189,5.56292842 C1.87281349,5.56292842 2.27095864,5.78262972 2.27095864,7.04532577 L2.27095864,15.2923338 C2.27095864,16.2047588 2.02441492,16.4815355 0.937172413,16.4815355 L0,16.4815355 L0,18.0538462 L13.7612743,18.0538462 L13.7612743,12.4534178 L12.2215245,12.4534178 C11.9114307,15.3368995 11.6618244,16.4815355 8.86255774,16.4815355 L5.18813747,16.4815355 L5.18813747,12.0726543 L6.29988121,12.0726543 C7.55174143,12.0726543 8.11297294,12.7106481 8.11297294,14.422129 L8.11297294,14.6989057 L9.66191067,14.6989057 L9.66191067,7.61529816 L8.11297294,7.61529816 L8.11297294,8.13601368 C8.11297294,9.84593089 7.55174143,10.5073803 6.29988121,10.5073803 L5.18813747,10.5073803 L5.18813747,5.56292842 L9.37248978,5.56292842 C11.2858835,5.56292842 12.0392966,6.7693309 12.2215245,9.9241164 L13.7612743,9.9241164 L13.7612743,4 L0,4 Z" id="path22-copy-3" fill="#4A4A4A" fill-rule="nonzero" transform="translate(6.880637, 11.026923) scale(-1, 1) rotate(-180.000000) translate(-6.880637, -11.026923) "></path>
                </g>
                <g id="Group-Copy-3" transform="translate(24.763885, 14.022704) rotate(-345.000000) translate(-24.763885, -14.022704) translate(18.763885, 8.022704)" fill="#FFFFFF" fill-rule="nonzero">
                    <g id="Group-2" transform="translate(5.874525, 5.683704) rotate(-15.000000) translate(-5.874525, -5.683704) translate(1.374525, 1.183704)">
                        <g id="Group-4" transform="translate(0.000000, -0.000000)">
                            <polygon id="Line" points="3.36 0 4.78978723 0 4.78978723 8.16060291 3.36 8.16060291"></polygon>
                            <polygon id="Line" points="0 4.57978723 0 3.15 8.2212766 3.15 8.2212766 4.57978723"></polygon>
                        </g>
                    </g>
                </g>
            </g>
        </g>
    </g>
</svg>