<svg xmlns="http://www.w3.org/2000/svg" width="21" height="24" viewBox="0 0 21 24"><g><g><path fill="#898989" d="M20.364 18.15c.444.562.636 1.185.56 1.804-.076.614-.41 1.18-.969 1.634-.243.196-.49.386-.73.564-.352.264-.688.513-.987.793-.006.01-.017.013-.023.021-.862.733-1.884 1.026-3.04.882-.1-.009-.21-.028-.314-.046-1.703-.319-3.16-1.148-4.244-1.833-2.834-1.82-5.218-4.2-7.089-7.078-1.54-2.382-2.502-4.548-3.044-6.828C.264 7.134 0 5.73.3 4.287A3.684 3.684 0 0 1 1.671 2.1L3.584.598l.01-.008c.56-.416 1.182-.598 1.793-.523.61.073 1.16.399 1.586.937.288.338.564.696.827 1.044.13.179.27.356.407.528l1.198 1.529c.922 1.175.755 2.53-.425 3.45-.157.121-.315.248-.473.372-.416.33-.845.669-1.301.995.222.71.561 1.426 1.09 2.288 1.096 1.736 2.292 3.124 3.658 4.244a5.4 5.4 0 0 0 .462.32c.117.084.24.166.361.248l1.775-1.374c.568-.442 1.19-.635 1.806-.557.621.073 1.173.414 1.597.977zm-1.077.824l-2.42-3.082-.008-.011c-.134-.186-.366-.413-.676-.45-.315-.042-.61.13-.802.28l-1.921 1.492c-.096.075-.388.304-.804.253a1.085 1.085 0 0 1-.48-.183c-.018-.014-.037-.032-.055-.043-.135-.11-.294-.215-.463-.326a6.868 6.868 0 0 1-.575-.41c-1.481-1.207-2.775-2.707-3.947-4.57l-.005-.008C6.49 10.863 6.088 9.994 5.84 9.09a.9.9 0 0 1-.01-.044c-.055-.295-.083-.725.4-1.1.006-.01.017-.013.028-.023.483-.333.933-.685 1.406-1.061.162-.121.32-.249.483-.377.596-.461.656-.952.19-1.548L7.139 3.414c-.14-.186-.28-.363-.416-.542-.266-.35-.52-.682-.79-1.003-.005-.007-.01-.01-.013-.016-.141-.18-.373-.4-.688-.439-.255-.032-.531.06-.805.26L2.51 3.166a2.31 2.31 0 0 0-.873 1.396c-.187.904-.136 1.89.176 3.191.505 2.124 1.413 4.156 2.866 6.418 1.765 2.704 4.013 4.952 6.677 6.662.975.621 2.285 1.371 3.76 1.643.074.014.154.024.23.032.78.1 1.407-.084 1.98-.558a13.06 13.06 0 0 1 1.088-.88c.24-.182.464-.348.685-.534-.005.002-.005 0 0 0 .576-.466.64-.991.188-1.561z"/></g></g></svg>