<svg xmlns="http://www.w3.org/2000/svg" width="15" height="19" viewBox="0 0 15 19"><g><g><path fill="#898989" d="M4.867 9.03C3.462 7.322 3.696 4.396 3.721 4.115 3.813 2.008 4.747 1 5.513.532c.763-.469 1.558-.54 1.963-.54h.062c.737.017 1.398.205 1.963.556.76.465 1.679 1.47 1.77 3.567.025.28.259 3.207-1.146 4.915-.639.776-1.503 1.183-2.572 1.202H7.436c-1.07-.02-1.934-.426-2.569-1.202zm.734-.703c.456.557 1.072.834 1.875.842h.036c.807-.008 1.42-.285 1.88-.842 1.16-1.41.905-4.087.9-4.113-.003-.01-.003-.019-.003-.033-.113-2.666-1.788-3.099-2.773-3.123h-.044c-.795 0-2.652.303-2.773 3.123 0 .01-.003.02-.003.033-.004.025-.252 2.71.905 4.113zm9.216 8.537a.498.498 0 0 1-.19.247c-.109.073-2.732 1.88-7.122 1.88S.492 17.19.383 17.111a.479.479 0 0 1-.19-.247c-.193-.525-.19-1.579-.186-1.78v-.013c.004-.031.004-.064.004-.102.022-.772.069-2.593 1.653-3.18.01-.005.022-.01.036-.013 1.653-.455 3.014-1.476 3.028-1.487a.47.47 0 0 1 .687.129.558.558 0 0 1-.12.74c-.063.044-1.515 1.138-3.332 1.64-.85.328-.945 1.311-.97 2.203 0 .039-.004.07-.004.1-.008.355.018.902.076 1.215.595.361 2.926 1.617 6.437 1.617 3.524 0 5.841-1.25 6.432-1.612.059-.316.08-.86.077-1.215-.004-.031-.004-.064-.004-.1-.025-.895-.12-1.875-.97-2.204-1.817-.504-3.27-1.593-3.332-1.64a.557.557 0 0 1-.12-.74.474.474 0 0 1 .686-.131c.015.015 1.383 1.035 3.028 1.488l.037.014c1.584.583 1.631 2.404 1.653 3.18 0 .038.003.069.003.102v.012c.004.202.008 1.255-.175 1.777z"/></g></g></svg>