<svg width="28" height="18" viewBox="0 0 28 18" fill="none" xmlns="http://www.w3.org/2000/svg">
<path fill-rule="evenodd" clip-rule="evenodd" d="M27.1247 9.00002C27.1247 8.75138 27.026 8.51293 26.8501 8.33711C26.6743 8.1613 26.4359 8.06252 26.1872 8.06252H4.07535L9.97597 2.16377C10.0631 2.07661 10.1323 1.97313 10.1795 1.85924C10.2266 1.74536 10.2509 1.62329 10.2509 1.50002C10.2509 1.37675 10.2266 1.25469 10.1795 1.14081C10.1323 1.02692 10.0631 0.923439 9.97597 0.836274C9.88881 0.749109 9.78533 0.679967 9.67144 0.632793C9.55756 0.58562 9.43549 0.56134 9.31222 0.56134C9.18895 0.56134 9.06689 0.58562 8.953 0.632793C8.83912 0.679967 8.73564 0.749109 8.64847 0.836274L1.14847 8.33627C1.06117 8.42336 0.991899 8.52681 0.944637 8.64071C0.897375 8.75461 0.873047 8.87671 0.873047 9.00002C0.873047 9.12334 0.897375 9.24544 0.944637 9.35934C0.991899 9.47323 1.06117 9.57669 1.14847 9.66377L8.64847 17.1638C8.73564 17.2509 8.83912 17.3201 8.953 17.3673C9.06689 17.4144 9.18895 17.4387 9.31222 17.4387C9.43549 17.4387 9.55756 17.4144 9.67144 17.3673C9.78533 17.3201 9.88881 17.2509 9.97597 17.1638C10.0631 17.0766 10.1323 16.9731 10.1795 16.8592C10.2266 16.7454 10.2509 16.6233 10.2509 16.5C10.2509 16.3768 10.2266 16.2547 10.1795 16.1408C10.1323 16.0269 10.0631 15.9234 9.97597 15.8363L4.07535 9.93752H26.1872C26.4359 9.93752 26.6743 9.83875 26.8501 9.66294C27.026 9.48712 27.1247 9.24866 27.1247 9.00002Z" fill="#FD9800"/>
</svg>
