<svg width="18" height="18" viewBox="0 0 18 18" fill="none" xmlns="http://www.w3.org/2000/svg">
<path d="M7.81624 15.0198C9.44331 15.0194 11.0235 14.4747 12.3052 13.4724L16.3348 17.5021L17.631 16.2059L13.6013 12.1763C14.6042 10.8944 15.1492 9.3139 15.1496 7.68642C15.1496 3.643 11.8597 0.353088 7.81624 0.353088C3.77283 0.353088 0.48291 3.643 0.48291 7.68642C0.48291 11.7298 3.77283 15.0198 7.81624 15.0198ZM7.81624 2.18642C10.8495 2.18642 13.3162 4.65317 13.3162 7.68642C13.3162 10.7197 10.8495 13.1864 7.81624 13.1864C4.78299 13.1864 2.31624 10.7197 2.31624 7.68642C2.31624 4.65317 4.78299 2.18642 7.81624 2.18642Z" fill="black"/>
</svg>
