<svg width="14" height="14" viewBox="0 0 14 14" fill="none" xmlns="http://www.w3.org/2000/svg">
<path d="M13.1892 5.21551L9.22203 4.63895L7.44859 1.04363C7.40015 0.945196 7.32046 0.865509 7.22203 0.817071C6.97515 0.695196 6.67515 0.796759 6.55171 1.04363L4.77828 4.63895L0.811089 5.21551C0.701714 5.23113 0.601714 5.2827 0.525151 5.36082C0.432592 5.45596 0.381587 5.58395 0.383345 5.71667C0.385103 5.84939 0.439479 5.97598 0.534526 6.06863L3.40484 8.86707L2.72671 12.8186C2.71081 12.9106 2.72098 13.0051 2.75608 13.0915C2.79117 13.178 2.84978 13.2528 2.92526 13.3077C3.00074 13.3625 3.09007 13.3951 3.18312 13.4017C3.27617 13.4083 3.36922 13.3888 3.45171 13.3452L7.00015 11.4796L10.5486 13.3452C10.6455 13.3968 10.758 13.4139 10.8658 13.3952C11.1377 13.3483 11.3205 13.0905 11.2736 12.8186L10.5955 8.86707L13.4658 6.06863C13.5439 5.99207 13.5955 5.89207 13.6111 5.7827C13.6533 5.50926 13.4627 5.25613 13.1892 5.21551Z" fill="black"/>
</svg>
