<svg class="ui-lib-mitten-icon _state_passive _theme_default _animation_zoom-in ui-lib-mitten__icon mittens__icon mittens__icon_passive" xmlns="http://www.w3.org/2000/svg" viewBox="0 0 28 28" width="28" height="28"><path transform="" d="M17.2325 9.52697L15.3957 11.7014L21.734 11.7014C22.433 11.7014 22.9992 12.2722 22.9992 13.0269C22.8909 14.7282 22.5743 16.3693 22.0559 17.934C21.3462 20.0711 20.2936 22.0447 18.9366 23.7808L18.7538 24L9 23.9999L9 13.0269L14.7208 6.45065C15.1096 5.95335 15.4056 5.39769 15.6117 4.77676C15.7595 4.3309 15.8502 3.86018 15.8813 3.37195C16.1102 3.14221 16.4257 3 16.7744 3C17.4273 3 17.8719 3.43657 18.1374 4.17983C18.4542 5.06637 18.4265 6.07071 18.4265 6.07071C18.4265 7.37675 17.977 8.57516 17.2325 9.52697Z"></path><path transform="" d="M5.00002 23.9999V13.0269H6.9999L7 23.9999H5.00002Z"></path></svg>