<svg xmlns="http://www.w3.org/2000/svg" width="47" height="39"><path fill-rule="evenodd" fill="#101010" d="M9.946.364c-2.7 0-4.974.924-6.825 2.776C1.272 4.988.346 7.264.346 9.964c0 2.9.926 5.225 2.775 6.976 1.851 1.748 4.125 2.624 6.825 2.624 2.1 0 3.951-.651 5.55-1.949.3.9.45 1.949.45 3.15 0 2.899-1.125 5.749-3.375 8.549-2.25 2.799-4.924 4.85-8.025 6.151l1.35 2.7c5.201-2.401 9.075-5.602 11.625-9.6 2.55-4.001 3.825-8.501 3.825-13.501 0-3.899-.849-7.2-2.55-9.9-1.999-3.201-4.95-4.8-8.85-4.8zm25.5 0c-2.7 0-4.974.924-6.825 2.776-1.849 1.848-2.775 4.124-2.775 6.824 0 2.9.926 5.225 2.775 6.976 1.851 1.748 4.125 2.624 6.825 2.624 2.1 0 3.951-.651 5.55-1.949.3.9.45 1.949.45 3.15 0 2.899-1.125 5.749-3.375 8.549-2.25 2.799-4.924 4.85-8.025 6.151l1.35 2.7c5.201-2.401 9.075-5.602 11.625-9.6 2.55-4.001 3.825-8.501 3.825-13.501 0-3.899-.849-7.2-2.55-9.9-1.999-3.201-4.95-4.8-8.85-4.8z"/></svg>