<svg id="Слой_1" data-name="Слой 1" xmlns="http://www.w3.org/2000/svg" xmlns:xlink="http://www.w3.org/1999/xlink" width="30" height="30" viewBox="0 0 30 30"><defs><clipPath id="clip-path"><rect width="30" height="30" style="fill:none"/></clipPath></defs><title>tw</title><rect width="30" height="30" style="fill:#50abf1"/><g style="clip-path:url(#clip-path)"><path d="M4,22.24A12.92,12.92,0,0,0,23.79,11.32c0-.18,0-.35,0-.53A10.17,10.17,0,0,0,26,8.49a10.46,10.46,0,0,1-2.56.67h0a4.81,4.81,0,0,0,2-2.52,15.63,15.63,0,0,1-2.2.92l-.66.2a4.53,4.53,0,0,0-7.72,4.12,13.65,13.65,0,0,1-9.3-4.7s-2.17,3,1.29,6a4.66,4.66,0,0,1-2-.58,4.31,4.31,0,0,0,3.58,4.5,4.14,4.14,0,0,1-2,.08,4.47,4.47,0,0,0,4.16,3.16A8.7,8.7,0,0,1,4,22.24Z" style="fill:#fff"/></g></svg>