<svg xmlns="http://www.w3.org/2000/svg" width="19" height="23" viewBox="0 0 19 23"><g><g><path fill="#5788bf" d="M6.166 10.939c-1.78-2.07-1.484-5.613-1.452-5.95.116-2.556 1.299-3.771 2.27-4.34C7.95.085 8.956-.003 9.47-.003h.079c.933.023 1.77.25 2.486.675.962.57 2.126 1.78 2.242 4.317.032.338.328 3.882-1.452 5.95-.808.938-1.904 1.428-3.258 1.455H9.42c-1.354-.027-2.45-.517-3.253-1.454zm.929-.855c.577.676 1.358 1.013 2.375 1.022h.046c1.022-.009 1.798-.346 2.38-1.022 1.47-1.701 1.147-4.943 1.142-4.976-.005-.009-.005-.025-.005-.039-.143-3.23-2.264-3.753-3.512-3.78h-.056c-1.007 0-3.36.368-3.512 3.78 0 .01-.005.024-.005.04-.004.025-.319 3.28 1.147 4.975zm11.674 10.337a.63.63 0 0 1-.24.3C18.39 20.812 15.067 23 9.507 23c-5.56 0-8.883-2.182-9.022-2.278a.606.606 0 0 1-.24-.3C0 19.783.005 18.51.009 18.265v-.014c.005-.037.005-.077.005-.12.028-.94.088-3.144 2.094-3.854.014-.005.027-.01.046-.014 2.094-.55 3.817-1.785 3.836-1.799a.606.606 0 0 1 .869.16.648.648 0 0 1-.153.889c-.078.053-1.918 1.378-4.22 1.99-1.076.394-1.197 1.581-1.229 2.664 0 .047-.004.084-.004.12-.01.428.023 1.092.097 1.471.753.441 3.706 1.957 8.153 1.957 4.464 0 7.399-1.51 8.148-1.95.073-.38.101-1.043.097-1.471-.005-.04-.005-.078-.005-.12-.032-1.086-.153-2.27-1.23-2.67-2.301-.609-4.14-1.929-4.219-1.987a.65.65 0 0 1-.152-.892.611.611 0 0 1 .868-.157c.019.014 1.752 1.25 3.836 1.8l.047.012c2.006.707 2.066 2.91 2.093 3.855 0 .043.005.08.005.12v.016c.005.246.01 1.516-.222 2.15z"/></g></g></svg>