<svg width="24" height="24" viewBox="0 0 24 24" fill="none" xmlns="http://www.w3.org/2000/svg">
<path d="M21.0997 10.6645H23.3535C23.0806 8.01417 21.9031 5.5387 20.0191 3.65471C18.1351 1.77071 15.6597 0.593193 13.0093 0.320312V2.57408C13.0093 2.88061 12.8875 3.17459 12.6708 3.39134C12.454 3.60809 12.16 3.72986 11.8535 3.72986C11.547 3.72986 11.253 3.60809 11.0363 3.39134C10.8195 3.17459 10.6977 2.88061 10.6977 2.57408V0.320312C8.04737 0.593193 5.5719 1.77071 3.68791 3.65471C1.80391 5.5387 0.626396 8.01417 0.353516 10.6645H2.60728C2.91382 10.6645 3.20779 10.7863 3.42454 11.0031C3.64129 11.2198 3.76306 11.5138 3.76306 11.8203C3.76306 12.1268 3.64129 12.4208 3.42454 12.6376C3.20779 12.8543 2.91382 12.9761 2.60728 12.9761H0.353516C0.626396 15.6265 1.80391 18.1019 3.68791 19.9859C5.5719 21.8699 8.04737 23.0474 10.6977 23.3203V21.0665C10.6977 20.76 10.8195 20.466 11.0363 20.2493C11.253 20.0325 11.547 19.9108 11.8535 19.9108C12.16 19.9108 12.454 20.0325 12.6708 20.2493C12.8875 20.466 13.0093 20.76 13.0093 21.0665V23.3203C15.6597 23.0474 18.1351 21.8699 20.0191 19.9859C21.9031 18.1019 23.0806 15.6265 23.3535 12.9761H21.0997C20.7932 12.9761 20.4992 12.8543 20.2825 12.6376C20.0657 12.4208 19.944 12.1268 19.944 11.8203C19.944 11.5138 20.0657 11.2198 20.2825 11.0031C20.4992 10.7863 20.7932 10.6645 21.0997 10.6645ZM14.5037 16.1048L11.0364 12.6374C10.929 12.5302 10.8438 12.4028 10.7857 12.2626C10.7276 12.1224 10.6977 11.9721 10.6977 11.8203V7.1972C10.6977 6.89066 10.8195 6.59669 11.0363 6.37994C11.253 6.16319 11.547 6.04142 11.8535 6.04142C12.16 6.04142 12.454 6.16319 12.6708 6.37994C12.8875 6.59669 13.0093 6.89066 13.0093 7.1972V11.3417L16.138 14.4704C16.3493 14.6882 16.4665 14.9804 16.4642 15.2839C16.4619 15.5874 16.3403 15.8778 16.1257 16.0924C15.9111 16.307 15.6207 16.4286 15.3173 16.4309C15.0138 16.4332 14.7216 16.3161 14.5037 16.1048Z" fill="#444444"/>
</svg>
