<svg width="29" height="17" viewBox="0 0 29 17" fill="none" xmlns="http://www.w3.org/2000/svg">
<path fill-rule="evenodd" clip-rule="evenodd" d="M28.1014 0.356702C28.3742 0.370697 28.4501 0.736137 28.2019 0.851211C26.8444 1.48101 25.7099 3.29007 24.9472 6.94706C24.009 11.4433 20.1752 13.2269 17.2168 12.6598C17.0393 13.6286 16.9775 14.4824 16.9623 15.1205C16.9466 15.7891 16.3964 16.3189 15.7211 16.3189H15.7022C14.964 16.3189 14.395 15.685 14.4646 14.9577C14.9447 9.91205 18.0377 7.1119 20.0135 5.81808C18.9355 6.22033 16.7477 7.23889 15.0441 9.33512C14.5955 9.88717 13.6919 9.60933 13.616 8.90489L13.6139 8.88519C12.9427 2.55556 20.627 -0.0305091 28.1014 0.356702ZM0.480567 6.16797C0.269586 6.07052 0.333979 5.75899 0.566949 5.74707C6.93513 5.41688 13.4818 7.6204 12.9107 13.0134C12.862 13.4716 12.2515 13.6888 11.9102 13.229C10.4386 11.252 8.42194 10.3184 7.45761 9.95818C8.57219 10.6885 10.1009 11.9834 11.1265 14.0216C11.5448 14.853 11.1108 15.8949 10.2082 16.1463C7.64922 16.8601 4.0929 15.3812 3.25421 11.3619C2.60451 8.24657 1.63756 6.70499 0.480567 6.16797Z" fill="#444444"/>
</svg>
