<svg width="30" height="41" viewBox="0 0 30 41" fill="none" xmlns="http://www.w3.org/2000/svg">
<path d="M21.25 3.0918H18.535C18.02 1.6368 16.63 0.591797 15 0.591797C13.37 0.591797 11.98 1.6368 11.4625 3.0918H8.75C8.06 3.0918 7.5 3.6518 7.5 4.3418V9.3418C7.5 10.0318 8.06 10.5918 8.75 10.5918H21.25C21.94 10.5918 22.5 10.0318 22.5 9.3418V4.3418C22.5 3.6518 21.94 3.0918 21.25 3.0918Z" fill="#444444"/>
<path d="M27.5 5.5918H25V9.3418C25 11.4093 23.3175 13.0918 21.25 13.0918H8.75C6.6825 13.0918 5 11.4093 5 9.3418V5.5918H2.5C1.1225 5.5918 0 6.7143 0 8.0918V38.0918C0 39.4943 1.0975 40.5918 2.5 40.5918H27.5C28.9025 40.5918 30 39.4943 30 38.0918V8.0918C30 6.6893 28.9025 5.5918 27.5 5.5918ZM14.635 27.7268L9.635 32.7268C9.39 32.9693 9.07 33.0918 8.75 33.0918C8.43 33.0918 8.11 32.9693 7.865 32.7268L5.365 30.2268C4.8775 29.7393 4.8775 28.9468 5.365 28.4593C5.8525 27.9718 6.645 27.9718 7.1325 28.4593L8.75 30.0743L12.865 25.9593C13.3525 25.4718 14.145 25.4718 14.6325 25.9593C15.12 26.4468 15.1225 27.2368 14.635 27.7268ZM14.635 17.7268L9.635 22.7268C9.39 22.9693 9.07 23.0918 8.75 23.0918C8.43 23.0918 8.11 22.9693 7.865 22.7268L5.365 20.2268C4.8775 19.7393 4.8775 18.9468 5.365 18.4593C5.8525 17.9718 6.645 17.9718 7.1325 18.4593L8.75 20.0743L12.865 15.9593C13.3525 15.4718 14.145 15.4718 14.6325 15.9593C15.12 16.4468 15.1225 17.2368 14.635 17.7268ZM23.75 30.5918H18.75C18.06 30.5918 17.5 30.0318 17.5 29.3418C17.5 28.6518 18.06 28.0918 18.75 28.0918H23.75C24.44 28.0918 25 28.6518 25 29.3418C25 30.0318 24.44 30.5918 23.75 30.5918ZM23.75 20.5918H18.75C18.06 20.5918 17.5 20.0318 17.5 19.3418C17.5 18.6518 18.06 18.0918 18.75 18.0918H23.75C24.44 18.0918 25 18.6518 25 19.3418C25 20.0318 24.44 20.5918 23.75 20.5918Z" fill="#444444"/>
</svg>
