<svg xmlns="http://www.w3.org/2000/svg" xmlns:xlink="http://www.w3.org/1999/xlink" width="1200" height="1200" viewBox="0 0 1200 1200"><rect width="100%" height="100%" fill="rgba(0,0,0,0)"></rect><g transform="translate(600 600) scale(0.69 0.69) rotate(0) translate(-600 -600)" style="fill:#000"><svg fill="#000" xmlns="http://www.w3.org/2000/svg" xmlns:xlink="http://www.w3.org/1999/xlink" viewBox="0 0 26 26" version="1.1" x="0px" y="0px"><title>Data, internet, media, pople, send, share, social</title><desc>Created with Sketch.</desc><g stroke="none" stroke-width="1" fill="none" fill-rule="evenodd"><g transform="translate(-419.000000, -227.000000)" fill="#000" fill-rule="nonzero"><g transform="translate(419.000000, 227.000000)"><path d="M9.79872268,11.5909929 C9.92972662,12.0378868 10,12.5107368 10,13 C10,13.4892632 9.92972662,13.9621132 9.79872268,14.4090071 L19.0449681,19.3040782 C19.7764502,18.5027457 20.8295138,18 22,18 C24.209139,18 26,19.790861 26,22 C26,24.209139 24.209139,26 22,26 C19.790861,26 18,24.209139 18,22 C18,21.6802594 18.0375156,21.369281 18.1083851,21.0712264 L8.86189971,16.1760283 C7.94486095,17.2898151 6.55536676,18 5,18 C2.23857625,18 0,15.7614237 0,13 C0,10.2385763 2.23857625,8 5,8 C6.55536676,8 7.94486095,8.71018485 8.86189971,9.82397168 L18.1083851,4.92877356 C18.0375156,4.63071902 18,4.31974062 18,4 C18,1.790861 19.790861,0 22,0 C24.209139,0 26,1.790861 26,4 C26,6.209139 24.209139,8 22,8 C20.8295138,8 19.7764502,7.49725431 19.0449681,6.69592184 L9.79872268,11.5909929 Z"></path></g></g></g></svg></g></svg>