<svg xmlns="http://www.w3.org/2000/svg" xmlns:xlink="http://www.w3.org/1999/xlink" width="1200" height="1200" viewBox="0 0 1200 1200"><rect width="100%" height="100%" fill="#FFFFFF"></rect><g transform="translate(600 600) scale(0.69 0.69) rotate(0) translate(-600 -600)" style="fill:#FFFFFF"><svg fill="#000" xmlns="http://www.w3.org/2000/svg" viewBox="0 0 16 11" x="0px" y="0px"><path fill-rule="evenodd" d="M300,18 C295.581722,18 292,13.6 292,12.5 C292,11.4 295.581722,7 300,7 C304.418278,7 308,11.4 308,12.5 C308,13.6 304.418278,18 300,18 Z M300,16.1666667 C301.893548,16.1666667 303.428571,14.5250441 303.428571,12.5 C303.428571,10.4749559 301.893548,8.83333333 300,8.83333333 C298.106452,8.83333333 296.571429,10.4749559 296.571429,12.5 C296.571429,14.5250441 298.106452,16.1666667 300,16.1666667 Z M300,14.1793332 C299.132755,14.1793332 298.429714,13.4274701 298.429714,12.5 C298.429714,11.5725299 299.132755,10.8206668 300,10.8206668 C300.867245,10.8206668 301.570286,11.5725299 301.570286,12.5 C301.570286,13.4274701 300.867245,14.1793332 300,14.1793332 Z" transform="translate(-292 -7)"></path></svg></g></svg>