<svg xmlns="http://www.w3.org/2000/svg" viewBox="0 0 48 48" xmlns:v="https://vecta.io/nano"><path d="M24 4a20 20 0 1 0 20 20A20 20 0 0 0 24 4zm14.1 12.5h-6.86a20.39 20.39 0 0 0-3.17-7.95A16 16 0 0 1 38.1 16.5zM40 24a16 16 0 0 1-.66 4.5h-7.6A40.66 40.66 0 0 0 32 24a40.66 40.66 0 0 0-.26-4.5h7.6A16 16 0 0 1 40 24zM24 39c-1.18 0-3.1-2.78-4.2-7.5h8.38C27.1 36.22 25.16 39 24 39zm-4.74-10.5a36.3 36.3 0 0 1 0-9h9.44A37 37 0 0 1 29 24a37 37 0 0 1-.28 4.5zM8 24a16 16 0 0 1 .65-4.5h7.6a39.07 39.07 0 0 0 0 9H8.63A16 16 0 0 1 8 24zM24 9c1.18 0 3.1 2.78 4.2 7.5h-8.4c1.08-4.72 3-7.5 4.2-7.5zm-4.1-.45a20.38 20.38 0 0 0-3.18 8H9.86a16 16 0 0 1 10.03-8zm-10 23h6.85a20.38 20.38 0 0 0 3.18 8A16 16 0 0 1 9.86 31.5zm18.2 8a20.39 20.39 0 0 0 3.17-8h6.8a16 16 0 0 1-10.03 7.9z" fill="#002e44"/></svg>