<svg xmlns="http://www.w3.org/2000/svg" xmlns:xlink="http://www.w3.org/1999/xlink" width="32" height="32"><g><path fill="#FFF" d="M12.684 19.477a1.925 1.925 0 01-1.924-1.924c0-1.06.863-1.923 1.924-1.923s1.924.863 1.924 1.923a1.927 1.927 0 01-1.924 1.924zm13.923-1.341c.028.219.044.436.044.646 0 4.001-4.786 7.256-10.67 7.256S5.313 22.783 5.313 18.782c0-.218.016-.445.047-.675a2.93 2.93 0 01-1.2-2.366 2.953 2.953 0 012.949-2.95 2.95 2.95 0 011.76.584c1.829-1.111 4.16-1.76 6.611-1.838l1.88-5.341 4.503 1.076a2.454 2.454 0 012.175-1.311c1.356 0 2.462 1.104 2.462 2.462s-1.105 2.462-2.462 2.462a2.467 2.467 0 01-2.451-2.227l-3.318-.793-1.299 3.692c2.277.144 4.438.785 6.144 1.828a2.948 2.948 0 011.776-.598 2.954 2.954 0 012.95 2.95 2.928 2.928 0 01-1.233 2.399zM5.574 15.741c0 .295.086.581.244.827.39-.824.998-1.6 1.79-2.283a1.538 1.538 0 00-2.034 1.456zm19.662 3.041c0-3.222-4.152-5.842-9.256-5.842s-9.256 2.621-9.256 5.842 4.152 5.843 9.256 5.843c5.105 0 9.256-2.619 9.256-5.843zm-.871-4.485c.797.689 1.407 1.475 1.793 2.308.174-.253.27-.554.27-.863a1.538 1.538 0 00-2.063-1.445zm-1.374-5.871a1.049 1.049 0 002.096 0 1.048 1.048 0 00-2.096 0zm-3.458 12.555c-.19 0-.37.076-.5.206-.037.039-.963.909-3.072.909-2.082 0-2.923-.872-2.926-.874a.703.703 0 00-.531-.242.705.705 0 00-.537 1.166c.033.039.342.388.992.719.837.427 1.846.644 3.002.644 1.148 0 2.172-.213 3.039-.633.673-.325 1.008-.663 1.043-.701a.705.705 0 00-.51-1.194zm-.022-5.353a1.926 1.926 0 00-1.925 1.924c0 1.062.863 1.925 1.925 1.925a1.925 1.925 0 000-3.849z"/></g></svg>