<?xml version="1.0" encoding="utf-8"?>
<!-- Generator: Adobe Illustrator 16.0.3, SVG Export Plug-In . SVG Version: 6.00 Build 0)  -->
<!DOCTYPE svg PUBLIC "-//W3C//DTD SVG 1.1//EN" "http://www.w3.org/Graphics/SVG/1.1/DTD/svg11.dtd" [
	<!ENTITY ns_extend "http://ns.adobe.com/Extensibility/1.0/">
	<!ENTITY ns_ai "http://ns.adobe.com/AdobeIllustrator/10.0/">
	<!ENTITY ns_graphs "http://ns.adobe.com/Graphs/1.0/">
	<!ENTITY ns_vars "http://ns.adobe.com/Variables/1.0/">
	<!ENTITY ns_imrep "http://ns.adobe.com/ImageReplacement/1.0/">
	<!ENTITY ns_sfw "http://ns.adobe.com/SaveForWeb/1.0/">
	<!ENTITY ns_custom "http://ns.adobe.com/GenericCustomNamespace/1.0/">
	<!ENTITY ns_adobe_xpath "http://ns.adobe.com/XPath/1.0/">
]>
<svg version="1.1" xmlns:x="&ns_extend;" xmlns:i="&ns_ai;" xmlns:graph="&ns_graphs;"
	 xmlns="http://www.w3.org/2000/svg" xmlns:xlink="http://www.w3.org/1999/xlink" x="0px" y="0px" width="380px" height="380px"
	 viewBox="0 0 380 380" enable-background="new 0 0 380 380" xml:space="preserve">
<metadata>
	<sfw  xmlns="&ns_sfw;">
		<slices></slices>
		<sliceSourceBounds  width="380" height="380" x="0" y="-380" bottomLeftOrigin="true"></sliceSourceBounds>
	</sfw>
</metadata>
<g id="Layer_8">
	<rect y="0" fill="none" width="380" height="380"/>
</g>
<g id="icon_x5F_search">
	<path fill="#A8A8A8" d="M20.448,35.068c0.405,0.266,0.951,0.152,1.217-0.253l4.048-6.176c1.753,0.854,3.797,1.135,5.838,0.657
		c4.719-1.104,7.661-5.841,6.558-10.562c-1.104-4.72-5.842-7.662-10.561-6.558c-4.72,1.104-7.662,5.842-6.558,10.563
		c0.481,2.063,1.659,3.785,3.224,4.979l-4.019,6.133C19.928,34.257,20.042,34.803,20.448,35.068z M31.151,27.585
		c-3.782,0.885-7.565-1.464-8.45-5.246c-0.885-3.783,1.464-7.565,5.247-8.45c3.781-0.885,7.564,1.464,8.449,5.246
		C37.281,22.919,34.933,26.701,31.151,27.585z"/>
</g>
<g id="icon_x5F_search_x5F_white">
	<path fill="#FFFFFF" d="M20.448,191.068c0.405,0.266,0.951,0.152,1.217-0.253l4.048-6.176c1.753,0.854,3.797,1.135,5.838,0.657
		c4.719-1.104,7.661-5.841,6.558-10.562c-1.104-4.72-5.842-7.662-10.561-6.558c-4.72,1.104-7.662,5.842-6.558,10.563
		c0.481,2.063,1.659,3.785,3.224,4.979l-4.019,6.133C19.928,190.257,20.042,190.803,20.448,191.068z M31.151,183.585
		c-3.782,0.885-7.565-1.464-8.45-5.246c-0.885-3.783,1.464-7.566,5.247-8.45c3.781-0.885,7.564,1.464,8.449,5.246
		C37.281,178.919,34.933,182.701,31.151,183.585z"/>
</g>
<g id="icon_x5F_android">
	<g>
		<g>
			<path fill="#FFFFFF" d="M17.836,69.878c-0.392,0-0.725,0.136-0.998,0.409c-0.274,0.275-0.411,0.604-0.411,0.986v5.886
				c0,0.392,0.137,0.725,0.411,0.999c0.273,0.274,0.606,0.41,0.998,0.41c0.393,0,0.724-0.136,0.994-0.41
				c0.269-0.274,0.403-0.607,0.403-0.999v-5.886c0-0.383-0.137-0.711-0.411-0.986C18.548,70.015,18.22,69.878,17.836,69.878
				L17.836,69.878z"/>
			<path fill="#FFFFFF" d="M29.17,64.595l0.971-1.793c0.064-0.119,0.042-0.21-0.067-0.275c-0.119-0.054-0.21-0.027-0.274,0.083
				l-0.985,1.806c-0.868-0.382-1.784-0.574-2.752-0.574s-1.884,0.192-2.75,0.574l-0.986-1.806c-0.065-0.11-0.155-0.137-0.275-0.083
				c-0.109,0.066-0.131,0.156-0.067,0.275l0.973,1.793c-0.986,0.502-1.772,1.203-2.354,2.101c-0.584,0.899-0.875,1.881-0.875,2.95
				h12.659c0-1.068-0.292-2.05-0.876-2.95C30.926,65.797,30.146,65.097,29.17,64.595L29.17,64.595z M23.551,67.201
				c-0.105,0.106-0.23,0.159-0.376,0.159c-0.147,0-0.27-0.052-0.37-0.159c-0.101-0.104-0.15-0.229-0.15-0.375
				s0.049-0.272,0.15-0.378c0.1-0.104,0.224-0.157,0.37-0.157s0.271,0.053,0.376,0.157c0.104,0.105,0.157,0.231,0.157,0.378
				C23.708,66.971,23.655,67.097,23.551,67.201L23.551,67.201z M29.32,67.201c-0.101,0.106-0.224,0.159-0.369,0.159
				c-0.146,0-0.272-0.052-0.377-0.159c-0.106-0.104-0.157-0.229-0.157-0.375s0.051-0.272,0.157-0.378
				c0.104-0.104,0.23-0.157,0.377-0.157c0.146,0,0.268,0.053,0.369,0.157c0.1,0.105,0.15,0.231,0.15,0.378
				C29.471,66.971,29.42,67.097,29.32,67.201L29.32,67.201z"/>
		</g>
		<path fill="#FFFFFF" d="M19.78,79.253c0,0.421,0.145,0.776,0.438,1.068c0.292,0.292,0.647,0.438,1.067,0.438h1.013l0.014,3.107
			c0,0.392,0.138,0.726,0.411,0.999c0.274,0.273,0.604,0.41,0.986,0.41c0.393,0,0.725-0.136,1-0.41
			c0.273-0.274,0.409-0.608,0.409-0.999v-3.107h1.89v3.107c0,0.392,0.137,0.726,0.412,0.999c0.272,0.273,0.606,0.41,0.999,0.41
			c0.392,0,0.725-0.136,0.998-0.41c0.274-0.274,0.411-0.608,0.411-0.999v-3.107h1.026c0.411,0,0.762-0.146,1.055-0.438
			c0.292-0.292,0.437-0.647,0.437-1.067v-9.116H19.78V79.253z"/>
		<path fill="#FFFFFF" d="M34.289,69.878c-0.383,0-0.711,0.134-0.985,0.403c-0.274,0.27-0.411,0.601-0.411,0.992v5.886
			c0,0.392,0.136,0.725,0.411,0.999c0.274,0.274,0.602,0.41,0.985,0.41c0.393,0,0.726-0.136,0.999-0.41
			c0.275-0.274,0.411-0.607,0.411-0.999v-5.886c0-0.391-0.136-0.722-0.411-0.992C35.015,70.012,34.681,69.878,34.289,69.878
			L34.289,69.878z"/>
	</g>
</g>
<g id="icon_x5F_apple">
	<g>
		<path fill="#FFFFFF" d="M32.502,126.087c-0.199-2.379,1.082-3.806,2.447-4.743c-0.803-1.149-1.957-1.982-3.667-2.224
			c-0.949-0.133-1.83,0.006-2.573,0.242c-0.363,0.121-0.72,0.271-1.064,0.405c-0.362,0.138-0.712,0.296-1.118,0.344
			c-0.296,0.03-0.597-0.054-0.876-0.152c-0.767-0.271-1.527-0.651-2.368-0.785c-1.335-0.217-2.592,0.271-3.377,0.762
			c-1.722,1.074-2.78,2.833-2.924,5.492c0,0.012-0.006,0.019-0.018,0.024v0.937c0.266,3.637,1.613,6.272,3.377,8.421
			c0.592,0.719,1.275,1.408,2.357,1.579h0.392c1.468-0.187,2.344-1.119,4.121-0.92c0.701,0.086,1.305,0.407,1.903,0.634
			c0.61,0.235,1.474,0.358,2.157,0.121c1.166-0.408,1.952-1.568,2.586-2.501c0.701-1.026,1.269-2.127,1.686-3.401v-0.023
			C33.952,129.548,32.678,128.256,32.502,126.087L32.502,126.087z"/>
		<path fill="#FFFFFF" d="M27.492,118.348c0.538-0.284,1.015-0.671,1.377-1.1c0.744-0.882,1.317-2.09,1.22-3.691h-0.115
			c-1.383,0.2-2.458,0.815-3.208,1.673c-0.743,0.846-1.371,1.981-1.256,3.579C26.29,118.892,26.941,118.638,27.492,118.348
			L27.492,118.348z"/>
	</g>
</g>
<g id="icon_x5F_facebook">
	<g id="Layer_10">
		<path fill="#FFFFFF" d="M116.396,12.729L116.5,54.75l-42.063-0.063L74.5,12.75L116.396,12.729 M117.5,11.625h-1.634H75.009h-1.634
			v1.634v40.856v1.634h1.634h40.856h1.634v-1.634V13.259L117.5,11.625L117.5,11.625z"/>
		<path fill="#FFFFFF" d="M102.196,20.641l-4.048-0.004c-3.623,0-5.967,2.305-5.967,5.873v4.351h-3.244
			c-0.278,0-0.506,0.217-0.506,0.485v3.926c0,0.267,0.228,0.485,0.506,0.485h3.244v11.546c0,0.267,0.228,0.484,0.509,0.484h4.23
			c0.279,0,0.507-0.218,0.507-0.484V35.757h3.793c0.282,0,0.509-0.218,0.509-0.485l0.001-3.926c0-0.128-0.053-0.252-0.149-0.343
			c-0.095-0.091-0.224-0.142-0.36-0.142h-3.794v-3.938c0-1.104,0.276-1.664,1.773-1.664l2.996-0.002
			c0.279,0,0.505-0.218,0.505-0.486v-3.644C102.702,20.859,102.476,20.643,102.196,20.641L102.196,20.641z"/>
	</g>
</g>
<g id="icon_x5F_facebook_x5F_hover">
	<g id="Layer_10_copy">
		<path fill="#FFFFFF" d="M117.5,80.625h-1.634H75.009h-1.634v1.634v40.856v1.634h1.634h40.856h1.634v-1.634V82.259L117.5,80.625
			L117.5,80.625z"/>
		<path fill="#2A53C1" d="M102.196,89.641l-4.048-0.004c-3.623,0-5.967,2.305-5.967,5.873v4.351h-3.244
			c-0.278,0-0.506,0.217-0.506,0.485v3.926c0,0.267,0.228,0.485,0.506,0.485h3.244v11.546c0,0.267,0.228,0.484,0.509,0.484h4.23
			c0.279,0,0.507-0.218,0.507-0.484v-11.546h3.793c0.282,0,0.509-0.218,0.509-0.485l0.001-3.926c0-0.128-0.053-0.252-0.149-0.343
			c-0.095-0.091-0.224-0.142-0.36-0.142h-3.794v-3.938c0-1.104,0.276-1.664,1.773-1.664l2.996-0.002
			c0.279,0,0.505-0.218,0.505-0.486v-3.644C102.702,89.859,102.476,89.643,102.196,89.641L102.196,89.641z"/>
	</g>
</g>
<g id="icon_x5F_facebook_x5F_article">
	<path fill="#2A53C1" d="M102.196,155.641l-4.048-0.004c-3.623,0-5.967,2.305-5.967,5.873v4.352h-3.244
		c-0.278,0-0.506,0.217-0.506,0.485v3.926c0,0.267,0.228,0.485,0.506,0.485h3.244v11.546c0,0.267,0.228,0.484,0.509,0.484h4.23
		c0.279,0,0.507-0.218,0.507-0.484v-11.546h3.793c0.282,0,0.509-0.218,0.509-0.485l0.001-3.926c0-0.128-0.053-0.252-0.149-0.343
		c-0.095-0.091-0.224-0.142-0.36-0.142h-3.794v-3.938c0-1.104,0.276-1.664,1.773-1.664l2.996-0.001c0.279,0,0.505-0.218,0.505-0.486
		v-3.644C102.702,155.859,102.476,155.643,102.196,155.641L102.196,155.641z"/>
</g>
<g id="icon_x5F_facebook_x5F_article_x5F_hover">
	<path fill="#FFFFFF" d="M102.196,213.641l-4.048-0.004c-3.623,0-5.967,2.305-5.967,5.873v4.352h-3.244
		c-0.278,0-0.506,0.217-0.506,0.485v3.926c0,0.267,0.228,0.485,0.506,0.485h3.244v11.546c0,0.267,0.228,0.484,0.509,0.484h4.23
		c0.279,0,0.507-0.218,0.507-0.484v-11.546h3.793c0.282,0,0.509-0.218,0.509-0.485l0.001-3.926c0-0.128-0.053-0.252-0.149-0.343
		c-0.095-0.091-0.224-0.142-0.36-0.142h-3.794v-3.938c0-1.104,0.276-1.664,1.773-1.664l2.996-0.001c0.279,0,0.505-0.218,0.505-0.486
		v-3.644C102.702,213.859,102.476,213.643,102.196,213.641L102.196,213.641z"/>
</g>
<g id="arrow_x5F_left">
	<polygon opacity="0.4" enable-background="new    " points="169.666,10.521 169.666,81.479 223.667,81.479 210.334,10.521 	"/>
	<g id="Layer_9">
		<g>
			<g>
				<polygon fill="#FFFFFF" points="198.516,20.49 195.729,19.001 181.612,45.908 181.537,45.948 181.564,46 181.537,46.051 
					181.612,46.091 195.729,72.999 198.516,71.51 185.132,46 				"/>
			</g>
		</g>
	</g>
</g>
<g id="arrow_x5F_right">
	<polygon opacity="0.4" enable-background="new    " points="223.668,107 223.668,177.958 169.667,177.958 183,107 	"/>
	<g id="Layer_9_copy">
		<g>
			<g>
				<polygon fill="#FFFFFF" points="194.818,116.969 197.605,115.48 211.723,142.387 211.797,142.427 211.77,142.479 
					211.797,142.53 211.723,142.57 197.605,169.478 194.818,167.989 208.201,142.479 				"/>
			</g>
		</g>
	</g>
</g>
<g id="gallery">
	<g>
		<g>
			<path fill="#FFFFFF" d="M41.237,326.699l-26.399-0.002v24.001h26.399V326.699z M39.638,349.099h-23.2v-5.601l5.68,3.467
				l11.44-7.467l6.08,4V349.099z M39.638,341.098l-6.08-3.734l-11.44,7.468l-5.68-2.933v-13.6h23.2V341.098z M44.438,332.299v21.6
				h-25.6v1.6h27.199V332.3h-1.599V332.299z M21.204,336.916c1.5,0,2.716-1.27,2.716-2.838c0-1.568-1.216-2.838-2.716-2.838
				c-1.499,0-2.716,1.27-2.716,2.838S19.705,336.916,21.204,336.916z M19.988,334.078c0.006-0.7,0.547-1.266,1.216-1.271
				c0.679-0.007,1.232,0.562,1.238,1.271c0.006,0.708-0.538,1.287-1.216,1.293c-0.679,0.007-1.233-0.563-1.238-1.271V334.078z"/>
		</g>
	</g>
</g>
<g id="close_x5F_gallery">
</g>
<g id="close_x5F_gallery_x5F_hover">
</g>
<g id="comments_x5F_hover_1_">
	<g>
		<path fill="#FFFFFF" d="M95.362,352.353l-3.264-3.915h-11.24v-21.396h29.158v21.396H98.705L95.362,352.353z M82.711,346.586
			l10.399-0.003l2.271,2.421l2.163-2.561l10.64-0.023l0.011-17.439l-25.413-0.012L82.711,346.586z"/>
	</g>
	<g id="Layer_19_copy">
		<rect x="87.939" y="333.053" fill="#FFFFFF" width="15" height="1.938"/>
		<rect x="87.939" y="337.053" fill="#FFFFFF" width="15" height="1.938"/>
		<rect x="87.938" y="341.053" fill="#FFFFFF" width="10.939" height="1.938"/>
	</g>
</g>
<g id="comments">
	<g>
		<path fill="#2A53C1" d="M95.362,298.353l-3.264-3.915h-11.24v-21.396h29.158v21.396H98.705L95.362,298.353z M82.711,292.586
			l10.399-0.003l2.271,2.421l2.163-2.561l10.64-0.023l0.011-17.439l-25.413-0.012L82.711,292.586z"/>
	</g>
	<g id="Layer_19_copy_2">
		<rect x="87.939" y="279.053" fill="#2A53C1" width="15" height="1.938"/>
		<rect x="87.939" y="283.053" fill="#2A53C1" width="15" height="1.938"/>
		<rect x="87.938" y="287.053" fill="#2A53C1" width="10.939" height="1.938"/>
	</g>
</g>
<g id="copy_x5F_anketa">
	<g>
		<g>
			<path fill="#FFFFFF" d="M210.439,225.75l-5.413-5.414v-0.586h-14v6h-6v24h20v-6h6v-18H210.439z M208.612,226.751h-4.586v-4.586
				L208.612,226.751z M203.026,247.751h-16V227.75h4v16h12V247.751z M209.026,241.751h-16V221.75h9v7h7V241.751z"/>
		</g>
	</g>
</g>
<g id="like">
	<path fill="#2A53C1" d="M193.884,298.953l-1.781-0.059h-0.917l-1.751-0.018l-0.03-11.239h4.479L193.884,298.953L193.884,298.953z
		 M192.13,297.293l0.153,0.005v-8.06h-1.271l0.022,8.053L192.13,297.293z M202.99,299.084L202.99,299.084c-0.005,0-0.055,0-0.061,0
		c-0.632-0.014-1.356-0.018-2.123-0.018l-3.449,0.008c-1.024,0-1.993-0.006-2.791-0.031c-1.053-0.092-1.83-0.828-2.024-1.879
		c-0.008-0.047-0.013-0.096-0.012-0.143l0.063-6.861l-0.009-2.005c-0.001-0.184,0.066-0.362,0.188-0.499
		c0.022-0.025,2.247-2.551,3.224-4.123c0.167-0.269,0.333-0.559,0.502-0.852c0.806-1.404,1.639-2.856,2.965-2.856
		c0.363,0,0.721,0.116,1.063,0.345c0.942,0.628,1.214,2.227,0.677,3.98c-0.174,0.569-0.174,1.538-0.047,1.845
		c0.05,0.124,0.164,0.202,0.291,0.202l4.257-0.482c0.068-0.007,0.136-0.006,0.202,0.004c0.13,0.02,1.279,0.229,1.693,1.185
		c0.843,1.939-0.714,8.367-1.035,9.635C206.237,298.379,204.197,299.084,202.99,299.084z M200.807,297.566
		c0.777,0,1.512,0.004,2.154,0.018l0.029,0.75v-0.75c0.585,0,1.926-0.343,2.108-1.36c0.756-3.001,1.594-7.641,1.124-8.723
		c-0.051-0.117-0.284-0.23-0.472-0.281l-4.098,0.466c-0.821,0.098-1.58-0.37-1.885-1.122c-0.326-0.79-0.209-2.164,0.001-2.852
		c0.38-1.241,0.156-2.14-0.076-2.294c-0.064-0.043-0.154-0.092-0.23-0.092c-0.458,0-1.213,1.316-1.665,2.103
		c-0.178,0.309-0.354,0.615-0.529,0.897c-0.88,1.415-2.607,3.442-3.184,4.106l0.008,1.733l-0.062,6.788
		c0.046,0.184,0.192,0.557,0.625,0.595c0.742,0.021,1.695,0.027,2.702,0.027L200.807,297.566z"/>
</g>
<g id="dislike">
	<path fill="#2A53C1" d="M203.367,330.957l1.781,0.059l0.917-0.001l1.751,0.019l0.03,11.239h-4.479L203.367,330.957L203.367,330.957
		z M205.121,332.616l-0.153-0.005v8.06h1.271l-0.022-8.053L205.121,332.616z M194.261,330.825L194.261,330.825
		c0.005,0,0.055,0.001,0.061,0.001c0.632,0.013,1.356,0.016,2.123,0.016l3.449-0.008c1.024,0,1.993,0.007,2.791,0.031
		c1.053,0.092,1.83,0.829,2.024,1.881c0.008,0.047,0.013,0.094,0.012,0.143l-0.063,6.86l0.009,2.005
		c0.001,0.185-0.066,0.362-0.187,0.5c-0.023,0.025-2.247,2.551-3.224,4.123c-0.167,0.267-0.333,0.558-0.502,0.851
		c-0.806,1.403-1.639,2.856-2.965,2.856c-0.363,0-0.721-0.116-1.063-0.346c-0.942-0.627-1.214-2.227-0.677-3.98
		c0.174-0.569,0.174-1.538,0.047-1.845c-0.05-0.125-0.164-0.202-0.291-0.202l-4.257,0.482c-0.068,0.007-0.136,0.006-0.202-0.005
		c-0.13-0.02-1.279-0.229-1.693-1.184c-0.843-1.939,0.714-8.367,1.035-9.636C191.014,331.53,193.054,330.825,194.261,330.825z
		 M196.444,332.342c-0.777,0-1.512-0.004-2.154-0.016l-0.029-0.751v0.75c-0.584,0-1.926,0.343-2.108,1.36
		c-0.756,3.001-1.594,7.641-1.124,8.723c0.051,0.117,0.284,0.23,0.472,0.281l4.098-0.466c0.821-0.099,1.58,0.37,1.885,1.122
		c0.326,0.789,0.209,2.164-0.001,2.852c-0.38,1.24-0.156,2.14,0.076,2.295c0.064,0.042,0.154,0.092,0.23,0.092
		c0.458,0,1.213-1.316,1.664-2.103c0.178-0.31,0.354-0.615,0.529-0.897c0.88-1.415,2.607-3.441,3.184-4.106l-0.008-1.732
		l0.062-6.789c-0.046-0.184-0.192-0.557-0.624-0.595c-0.742-0.022-1.695-0.028-2.702-0.028L196.444,332.342z"/>
</g>
<g id="vote1_1_">
	<path fill="#2A53C1" d="M328.241,44.988l-8.795-0.034l0.054-21.823h8.741L328.241,44.988L328.241,44.988z M326.248,42.503
		l0.099-16.837l-4.255,0.047l0.001,16.844L326.248,42.503z M346.015,44.988c-2.525-0.008-18.813-0.01-18.813-0.01
		s-0.603-21.543-0.366-21.811c0.045-0.05,3.617-4.98,5.527-8.047c0.327-0.524,0.65-1.09,0.978-1.661
		c1.573-2.741,3.199-5.575,5.788-5.575c0.708,0,1.407,0.227,2.074,0.674c1.839,1.226,2.373,4.348,1.322,7.769
		c-0.339,1.109-0.339,3.001-0.09,3.602c0.097,0.241,0.318,0.394,0.567,0.394l8.307-0.943c0.133-0.013,0.267-0.01,0.396,0.009
		c0.253,0.04,2.496,0.447,3.305,2.313c1.644,3.785-1.394,16.33-2.02,18.805C352.351,44.098,348.541,44.995,346.015,44.988z
		 M346.015,42.546c1.139,0,4.056-0.669,4.413-2.654c1.477-5.857,3.266-14.916,2.348-17.027c-0.1-0.228-0.188-0.676-1.085-0.839
		c-0.896-0.163-8.286,0.718-8.286,0.718c-1.603,0.191-2.552-0.238-3.146-1.706c-0.639-1.542-0.411-4.225,0-5.567
		c0.739-2.421,0.147-4.549-0.305-4.852c-1.824-1.016-3.439,2.516-4.321,4.05c-0.345,0.603-0.906,1.449-1.247,2.001
		c-1.721,2.761-4.627,6.718-5.75,8.013l0.018,3.381l-0.123,13.251c0.09,0.358,0.374,1.087,1.218,1.162
		C331.196,42.514,346.015,42.546,346.015,42.546z"/>
</g>
<g id="vote2">
	<path fill="#2A53C1" d="M337.113,106.642c-0.23,0-0.462-0.08-0.648-0.239c-0.747-0.636-18.27-15.709-17.47-26.38
		c0.214-2.852,1.678-5.141,4.352-6.804c1.684-1.046,3.392-1.577,5.079-1.577c4.199,0,7.167,3.217,8.553,5.116
		c1.385-1.898,4.353-5.116,8.55-5.116c1.688,0,3.396,0.531,5.079,1.577c2.684,1.669,4.157,3.968,4.379,6.835
		c0.827,10.669-16.483,25.711-17.221,26.346C337.578,106.561,337.346,106.642,337.113,106.642z M328.426,73.642
		c-1.309,0-2.661,0.429-4.022,1.275c-2.132,1.325-3.248,3.044-3.414,5.254c-0.645,8.583,12.951,21.296,16.12,24.135
		c3.14-2.842,16.55-15.519,15.883-24.099c-0.173-2.227-1.298-3.957-3.441-5.29c-1.361-0.846-2.714-1.275-4.022-1.275
		c-4.654,0-7.643,5.369-7.672,5.423c-0.176,0.32-0.512,0.519-0.877,0.52h-0.001c-0.365,0-0.701-0.199-0.877-0.519
		C336.072,79.013,333.061,73.642,328.426,73.642z"/>
</g>
<g id="vote3">
	<path fill="#2A53C1" d="M350.484,140.342c-1.933,0-3.505-1.572-3.505-3.505c0-1.629,2.303-5.18,2.765-5.876
		c0.328-0.496,1.152-0.496,1.48,0c0.462,0.695,2.765,4.246,2.765,5.876C353.989,138.77,352.417,140.342,350.484,140.342z
		 M350.484,133.117c-0.924,1.534-1.728,3.145-1.728,3.72c0,0.953,0.775,1.728,1.728,1.728c0.952,0,1.727-0.775,1.727-1.728
		C352.212,136.263,351.408,134.651,350.484,133.117z M337.563,160.75c-5.479,0-9.938-4.458-9.938-9.938v-1H347.5v1
		C347.5,156.292,343.042,160.75,337.563,160.75z M329.688,151.813c0.493,3.906,3.837,6.938,7.875,6.938s7.382-3.031,7.875-6.938
		H329.688z M331.394,140.75c-2.445,0-4.436,2.122-4.436,4.73h1.827c0.015-0.542,0.225-1,0.225-1c0.376-1.012,1.303-1.73,2.383-1.73
		s2.007,0.718,2.382,1.73c0,0,0.271,0.526,0.271,1h1.783C335.829,142.872,333.839,140.75,331.394,140.75z M343.439,140.75
		c-2.445,0-4.436,2.122-4.436,4.73h1.827c0.015-0.542,0.227-1,0.227-1c0.375-1.012,1.302-1.73,2.382-1.73s2.007,0.718,2.383,1.73
		c0,0,0.27,0.526,0.27,1h1.783C347.875,142.872,345.885,140.75,343.439,140.75z M353.404,143.044
		c0.355,1.345,0.564,2.749,0.564,4.204c0,9.097-7.4,16.498-16.497,16.498s-16.498-7.401-16.498-16.498s7.401-16.498,16.498-16.498
		c2.102,0,4.104,0.41,5.955,1.13l1.647-1.482c-2.32-1.049-4.889-1.648-7.602-1.648c-10.217,0-18.498,8.282-18.498,18.498
		s8.281,18.498,18.498,18.498c10.216,0,18.497-8.282,18.497-18.498c0-1.958-0.309-3.841-0.872-5.612
		C354.504,142.128,353.927,142.609,353.404,143.044z"/>
</g>
<g id="vote4">
	<path fill="#2A53C1" d="M337.471,192.75c9.097,0,16.497,7.401,16.497,16.498s-7.4,16.498-16.497,16.498
		c-9.097,0-16.498-7.401-16.498-16.498C320.973,200.151,328.374,192.75,337.471,192.75 M337.471,190.75
		c-10.217,0-18.498,8.282-18.498,18.498s8.281,18.498,18.498,18.498c10.216,0,18.497-8.282,18.497-18.498
		C355.968,199.032,347.686,190.75,337.471,190.75L337.471,190.75z M338,221.585c-2.685,0-4.787-2.764-4.787-6.292
		c0-3.528,2.103-6.292,4.787-6.292s4.787,2.764,4.787,6.292C342.787,218.82,340.685,221.585,338,221.585z M338,211
		c-1.511,0-2.787,1.965-2.787,4.292s1.276,4.292,2.787,4.292s2.787-1.966,2.787-4.292C340.787,212.965,339.511,211,338,211z
		 M327.846,204.5l5.99-0.083c0.02,0,0.039-0.001,0.059-0.002c0.144-0.009,0.28-0.048,0.401-0.111
		c0.115-0.06,0.222-0.144,0.309-0.251c0.083-0.101,0.148-0.218,0.186-0.345c0-0.001,0-0.001,0.001-0.001v-0.001
		c0.034-0.115,0.048-0.233,0.04-0.351c-0.009-0.144-0.048-0.28-0.111-0.4c-0.06-0.114-0.142-0.218-0.246-0.305
		c-0.019-0.015-0.037-0.03-0.057-0.044l-3.806-2.809c-0.445-0.329-1.07-0.233-1.398,0.211s-0.233,1.07,0.211,1.399l1.426,1.052
		l-3.031,0.042c-0.553,0.008-0.994,0.461-0.986,1.014c0.008,0.548,0.454,0.986,1,0.986C327.836,204.5,327.841,204.5,327.846,204.5z
		 M348.832,203.514c0.008-0.552-0.434-1.006-0.986-1.014l-3.031-0.042l1.426-1.052c0.444-0.328,0.539-0.954,0.211-1.399
		c-0.328-0.444-0.954-0.539-1.398-0.211l-3.808,2.81c-0.015,0.01-0.028,0.021-0.043,0.033c-0.112,0.091-0.2,0.201-0.262,0.323
		c-0.061,0.119-0.099,0.251-0.107,0.392c-0.008,0.117,0.006,0.236,0.04,0.351c0,0.001,0,0.001,0,0.001
		c0.001,0,0.001,0.001,0.001,0.001c0.038,0.128,0.103,0.245,0.186,0.345c0.089,0.108,0.197,0.194,0.315,0.254
		c0.119,0.062,0.253,0.099,0.395,0.108c0.02,0.002,0.039,0.002,0.059,0.002l5.99,0.083c0.005,0,0.009,0,0.014,0
		C348.378,204.5,348.824,204.061,348.832,203.514z"/>
</g>
<g id="vote5">
	<path fill="#2A53C1" d="M350.484,290.342c-1.933,0-3.505-1.572-3.505-3.505c0-1.63,2.303-5.18,2.765-5.876
		c0.328-0.496,1.152-0.496,1.48,0c0.462,0.695,2.765,4.246,2.765,5.876C353.989,288.77,352.417,290.342,350.484,290.342z
		 M350.484,283.117c-0.924,1.534-1.728,3.146-1.728,3.72c0,0.953,0.775,1.728,1.728,1.728c0.952,0,1.727-0.775,1.727-1.728
		C352.212,286.262,351.408,284.65,350.484,283.117z M329.493,272.488c0.046-0.068,1.145-1.668,4.153-1.6
		c0.499-0.006,0.897-0.378,0.909-0.868c0.012-0.491-0.377-0.898-0.868-0.909c-4.061-0.103-5.621,2.307-5.686,2.41
		c-0.262,0.41-0.143,0.949,0.264,1.217c0.15,0.098,0.317,0.145,0.484,0.145C329.037,272.883,329.32,272.743,329.493,272.488z
		 M332.291,272.5c-0.76,0-1.375,0.877-1.375,1.958c0,1.082,0.615,1.958,1.375,1.958s1.376-0.877,1.376-1.958
		S333.051,272.5,332.291,272.5z M348.147,272.749c0.413-0.264,0.534-0.814,0.27-1.228c-0.066-0.103-1.657-2.51-5.686-2.41
		c-0.491,0.011-0.88,0.418-0.868,0.909s0.45,0.868,0.909,0.868c2.98-0.076,4.098,1.516,4.153,1.599
		c0.17,0.26,0.454,0.402,0.744,0.402C347.833,272.889,347.999,272.844,348.147,272.749z M344.291,272.5
		c-0.76,0-1.375,0.877-1.375,1.958c0,1.082,0.615,1.958,1.375,1.958s1.376-0.877,1.376-1.958S345.051,272.5,344.291,272.5z
		 M355.096,279.86c0.563-1.771,0.872-3.654,0.872-5.612c0-10.216-8.281-18.499-18.497-18.499c-10.217,0-18.498,8.282-18.498,18.499
		c0,10.216,8.281,18.498,18.498,18.498c2.713,0,5.281-0.598,7.602-1.647l-1.647-1.482c-1.851,0.72-3.853,1.13-5.955,1.13
		c-9.097,0-16.498-7.401-16.498-16.498c0-9.097,7.401-16.499,16.498-16.499s16.497,7.401,16.497,16.499
		c0,1.455-0.208,2.859-0.564,4.204C353.927,278.887,354.504,279.368,355.096,279.86z M345.058,284.392
		c0.354-0.423,0.299-1.054-0.124-1.409c-8.107-6.793-14.405,0.028-14.468,0.098c-0.369,0.411-0.336,1.043,0.074,1.412
		c0.411,0.371,1.043,0.336,1.412-0.074c0.204-0.226,5.055-5.468,11.696,0.098c0.188,0.157,0.415,0.233,0.642,0.233
		C344.576,284.75,344.859,284.628,345.058,284.392z"/>
</g>
<g id="vote6">
	<path fill="#2A53C1" d="M341.048,343.77c-0.246,0-0.478-0.008-0.691-0.021c-0.551-0.033-0.971-0.507-0.938-1.059
		c0.033-0.551,0.525-0.962,1.059-0.938c2.34,0.132,7.11-0.523,10.109-3.917c0.366-0.414,0.997-0.451,1.411-0.087
		c0.414,0.365,0.453,0.997,0.087,1.411C348.854,342.816,343.921,343.77,341.048,343.77z M344.961,343.315
		c0,1.113,0.659,2.017,1.473,2.017s1.567-2.999,1.567-2.999C347.568,342.39,344.961,343.315,344.961,343.315z M335.397,343.749
		c0.551-0.033,0.971-0.507,0.938-1.059c-0.033-0.551-0.504-0.961-1.059-0.938c-2.342,0.132-7.11-0.523-10.109-3.917
		c-0.364-0.414-0.997-0.451-1.411-0.087c-0.414,0.365-0.453,0.997-0.087,1.411c3.23,3.656,8.164,4.609,11.037,4.609
		C334.952,343.77,335.184,343.762,335.397,343.749z M327.847,343.315c0,1.113,0.659,2.017,1.474,2.017
		c0.814,0,1.473-0.903,1.473-2.017c0-1.114-0.659-2.018-1.473-2.018C328.506,341.297,327.847,342.201,327.847,343.315z
		 M343.084,351.001c0-0.553-0.447-1-1-1h-8.833c-0.553,0-1,0.447-1,1s0.447,1,1,1h8.833
		C342.637,352.001,343.084,351.554,343.084,351.001z M337.471,322.75c-9.097,0-16.498,7.4-16.498,16.498
		c0,9.097,7.401,16.498,16.498,16.498s16.497-7.401,16.497-16.498C353.968,330.15,346.567,322.75,337.471,322.75 M337.471,320.75
		c10.216,0,18.497,8.281,18.497,18.498c0,10.216-8.281,18.498-18.497,18.498c-10.217,0-18.498-8.282-18.498-18.498
		C318.973,329.031,327.254,320.75,337.471,320.75L337.471,320.75z"/>
</g>
<g id="vote1_copy">
	<path fill="#FF7800" d="M265.241,44.988l-8.795-0.034l0.054-21.823h8.741L265.241,44.988L265.241,44.988z M263.248,42.503
		l0.099-16.837l-4.255,0.047l0.001,16.844L263.248,42.503z M283.015,44.988c-2.525-0.008-18.813-0.01-18.813-0.01
		s-0.603-21.543-0.366-21.811c0.045-0.05,3.617-4.98,5.527-8.047c0.327-0.524,0.65-1.09,0.978-1.661
		c1.573-2.741,3.199-5.575,5.788-5.575c0.708,0,1.407,0.227,2.074,0.674c1.839,1.226,2.373,4.348,1.322,7.769
		c-0.339,1.109-0.339,3.001-0.09,3.602c0.097,0.241,0.318,0.394,0.567,0.394l8.307-0.943c0.133-0.013,0.267-0.01,0.396,0.009
		c0.253,0.04,2.496,0.447,3.305,2.313c1.644,3.785-1.394,16.33-2.02,18.805C289.351,44.098,285.541,44.995,283.015,44.988z
		 M283.015,42.546c1.139,0,4.056-0.669,4.413-2.654c1.477-5.857,3.266-14.916,2.348-17.027c-0.1-0.228-0.188-0.676-1.085-0.839
		c-0.896-0.163-8.286,0.718-8.286,0.718c-1.603,0.191-2.552-0.238-3.146-1.706c-0.639-1.542-0.411-4.225,0-5.567
		c0.739-2.421,0.147-4.549-0.305-4.852c-1.824-1.016-3.439,2.516-4.321,4.05c-0.345,0.603-0.906,1.449-1.247,2.001
		c-1.721,2.761-4.627,6.718-5.75,8.013l0.018,3.381l-0.123,13.251c0.09,0.358,0.374,1.087,1.218,1.162
		C268.196,42.514,283.015,42.546,283.015,42.546z"/>
</g>
<g id="vote2_copy">
	<path fill="#FF7800" d="M274.113,106.642c-0.23,0-0.462-0.08-0.648-0.239c-0.747-0.636-18.27-15.709-17.47-26.38
		c0.214-2.852,1.678-5.141,4.352-6.804c1.684-1.046,3.392-1.577,5.079-1.577c4.199,0,7.167,3.217,8.553,5.116
		c1.385-1.898,4.353-5.116,8.55-5.116c1.688,0,3.396,0.531,5.079,1.577c2.684,1.669,4.157,3.968,4.379,6.835
		c0.827,10.669-16.483,25.711-17.221,26.346C274.578,106.561,274.346,106.642,274.113,106.642z M265.426,73.642
		c-1.309,0-2.661,0.429-4.022,1.275c-2.132,1.325-3.248,3.044-3.414,5.254c-0.645,8.583,12.951,21.296,16.12,24.135
		c3.14-2.842,16.55-15.519,15.883-24.099c-0.173-2.227-1.298-3.957-3.441-5.29c-1.361-0.846-2.714-1.275-4.022-1.275
		c-4.654,0-7.643,5.369-7.672,5.423c-0.176,0.32-0.512,0.519-0.877,0.52h-0.001c-0.365,0-0.701-0.199-0.877-0.519
		C273.072,79.013,270.061,73.642,265.426,73.642z"/>
</g>
<g id="vote3_copy">
	<path fill="#FF7800" d="M287.484,140.342c-1.933,0-3.505-1.572-3.505-3.505c0-1.629,2.303-5.18,2.765-5.876
		c0.328-0.496,1.152-0.496,1.48,0c0.462,0.695,2.765,4.246,2.765,5.876C290.989,138.77,289.417,140.342,287.484,140.342z
		 M287.484,133.117c-0.924,1.534-1.728,3.145-1.728,3.72c0,0.953,0.775,1.728,1.728,1.728c0.952,0,1.727-0.775,1.727-1.728
		C289.212,136.263,288.408,134.651,287.484,133.117z M274.563,160.75c-5.479,0-9.938-4.458-9.938-9.938v-1H284.5v1
		C284.5,156.292,280.042,160.75,274.563,160.75z M266.688,151.813c0.493,3.906,3.837,6.938,7.875,6.938s7.382-3.031,7.875-6.938
		H266.688z M268.394,140.75c-2.445,0-4.436,2.122-4.436,4.73h1.827c0.015-0.542,0.225-1,0.225-1c0.376-1.012,1.303-1.73,2.383-1.73
		s2.007,0.718,2.382,1.73c0,0,0.271,0.526,0.271,1h1.783C272.829,142.872,270.839,140.75,268.394,140.75z M280.439,140.75
		c-2.445,0-4.436,2.122-4.436,4.73h1.827c0.015-0.542,0.227-1,0.227-1c0.375-1.012,1.302-1.73,2.382-1.73s2.007,0.718,2.383,1.73
		c0,0,0.27,0.526,0.27,1h1.783C284.875,142.872,282.885,140.75,280.439,140.75z M290.404,143.044
		c0.355,1.345,0.564,2.749,0.564,4.204c0,9.097-7.4,16.498-16.497,16.498s-16.498-7.401-16.498-16.498s7.401-16.498,16.498-16.498
		c2.102,0,4.104,0.41,5.955,1.13l1.647-1.482c-2.32-1.049-4.889-1.648-7.602-1.648c-10.217,0-18.498,8.282-18.498,18.498
		s8.281,18.498,18.498,18.498c10.216,0,18.497-8.282,18.497-18.498c0-1.958-0.309-3.841-0.872-5.612
		C291.504,142.128,290.927,142.609,290.404,143.044z"/>
</g>
<g id="vote4_copy">
	<path fill="#FF7800" d="M274.471,192.75c9.097,0,16.497,7.401,16.497,16.498s-7.4,16.498-16.497,16.498
		c-9.097,0-16.498-7.401-16.498-16.498C257.973,200.151,265.374,192.75,274.471,192.75 M274.471,190.75
		c-10.217,0-18.498,8.282-18.498,18.498s8.281,18.498,18.498,18.498c10.216,0,18.497-8.282,18.497-18.498
		C292.968,199.032,284.686,190.75,274.471,190.75L274.471,190.75z M275,221.585c-2.685,0-4.787-2.764-4.787-6.292
		c0-3.528,2.103-6.292,4.787-6.292s4.787,2.764,4.787,6.292C279.787,218.82,277.685,221.585,275,221.585z M275,211
		c-1.511,0-2.787,1.965-2.787,4.292s1.276,4.292,2.787,4.292s2.787-1.966,2.787-4.292C277.787,212.965,276.511,211,275,211z
		 M264.846,204.5l5.99-0.083c0.02,0,0.039-0.001,0.059-0.002c0.144-0.009,0.28-0.048,0.401-0.111
		c0.115-0.06,0.222-0.144,0.309-0.251c0.083-0.101,0.148-0.218,0.186-0.345c0-0.001,0-0.001,0.001-0.001v-0.001
		c0.034-0.115,0.048-0.233,0.04-0.351c-0.009-0.144-0.048-0.28-0.111-0.4c-0.06-0.114-0.142-0.218-0.246-0.305
		c-0.019-0.015-0.037-0.03-0.057-0.044l-3.806-2.809c-0.445-0.329-1.07-0.233-1.398,0.211s-0.233,1.07,0.211,1.399l1.426,1.052
		l-3.031,0.042c-0.553,0.008-0.994,0.461-0.986,1.014c0.008,0.548,0.454,0.986,1,0.986C264.836,204.5,264.841,204.5,264.846,204.5z
		 M285.832,203.514c0.008-0.552-0.434-1.006-0.986-1.014l-3.031-0.042l1.426-1.052c0.444-0.328,0.539-0.954,0.211-1.399
		c-0.328-0.444-0.954-0.539-1.398-0.211l-3.808,2.81c-0.015,0.01-0.028,0.021-0.043,0.033c-0.112,0.091-0.2,0.201-0.262,0.323
		c-0.061,0.119-0.099,0.251-0.107,0.392c-0.008,0.117,0.006,0.236,0.04,0.351c0,0.001,0,0.001,0,0.001
		c0.001,0,0.001,0.001,0.001,0.001c0.038,0.128,0.103,0.245,0.186,0.345c0.089,0.108,0.197,0.194,0.315,0.254
		c0.119,0.062,0.253,0.099,0.395,0.108c0.02,0.002,0.039,0.002,0.059,0.002l5.99,0.083c0.005,0,0.009,0,0.014,0
		C285.378,204.5,285.824,204.061,285.832,203.514z"/>
</g>
<g id="vote5_copy">
	<path fill="#FF7800" d="M287.484,290.342c-1.933,0-3.505-1.572-3.505-3.505c0-1.63,2.303-5.18,2.765-5.876
		c0.328-0.496,1.152-0.496,1.48,0c0.462,0.695,2.765,4.246,2.765,5.876C290.989,288.77,289.417,290.342,287.484,290.342z
		 M287.484,283.117c-0.924,1.534-1.728,3.146-1.728,3.72c0,0.953,0.775,1.728,1.728,1.728c0.952,0,1.727-0.775,1.727-1.728
		C289.212,286.262,288.408,284.65,287.484,283.117z M266.493,272.488c0.046-0.068,1.145-1.668,4.153-1.6
		c0.499-0.006,0.897-0.378,0.909-0.868c0.012-0.491-0.377-0.898-0.868-0.909c-4.061-0.103-5.621,2.307-5.686,2.41
		c-0.262,0.41-0.143,0.949,0.264,1.217c0.15,0.098,0.317,0.145,0.484,0.145C266.037,272.883,266.32,272.743,266.493,272.488z
		 M269.291,272.5c-0.76,0-1.375,0.877-1.375,1.958c0,1.082,0.615,1.958,1.375,1.958s1.376-0.877,1.376-1.958
		S270.051,272.5,269.291,272.5z M285.147,272.749c0.413-0.264,0.534-0.814,0.27-1.228c-0.066-0.103-1.657-2.51-5.686-2.41
		c-0.491,0.011-0.88,0.418-0.868,0.909s0.45,0.868,0.909,0.868c2.98-0.076,4.098,1.516,4.153,1.599
		c0.17,0.26,0.454,0.402,0.744,0.402C284.833,272.889,284.999,272.844,285.147,272.749z M281.291,272.5
		c-0.76,0-1.375,0.877-1.375,1.958c0,1.082,0.615,1.958,1.375,1.958s1.376-0.877,1.376-1.958S282.051,272.5,281.291,272.5z
		 M292.096,279.86c0.563-1.771,0.872-3.654,0.872-5.612c0-10.216-8.281-18.499-18.497-18.499c-10.217,0-18.498,8.282-18.498,18.499
		c0,10.216,8.281,18.498,18.498,18.498c2.713,0,5.281-0.598,7.602-1.647l-1.647-1.482c-1.851,0.72-3.853,1.13-5.955,1.13
		c-9.097,0-16.498-7.401-16.498-16.498c0-9.097,7.401-16.499,16.498-16.499s16.497,7.401,16.497,16.499
		c0,1.455-0.208,2.859-0.564,4.204C290.927,278.887,291.504,279.368,292.096,279.86z M282.058,284.392
		c0.354-0.423,0.299-1.054-0.124-1.409c-8.107-6.793-14.405,0.028-14.468,0.098c-0.369,0.411-0.336,1.043,0.074,1.412
		c0.411,0.371,1.043,0.336,1.412-0.074c0.204-0.226,5.055-5.468,11.696,0.098c0.188,0.157,0.415,0.233,0.642,0.233
		C281.576,284.75,281.859,284.628,282.058,284.392z"/>
</g>
<g id="vote6_copy">
	<path fill="#FF7800" d="M278.048,343.77c-0.246,0-0.478-0.008-0.691-0.021c-0.551-0.033-0.971-0.507-0.938-1.059
		c0.033-0.551,0.525-0.962,1.059-0.938c2.34,0.132,7.11-0.523,10.109-3.917c0.366-0.414,0.997-0.451,1.411-0.087
		c0.414,0.365,0.453,0.997,0.087,1.411C285.854,342.816,280.921,343.77,278.048,343.77z M281.961,343.315
		c0,1.113,0.659,2.017,1.473,2.017s1.567-2.999,1.567-2.999C284.568,342.39,281.961,343.315,281.961,343.315z M272.397,343.749
		c0.551-0.033,0.971-0.507,0.938-1.059c-0.033-0.551-0.504-0.961-1.059-0.938c-2.342,0.132-7.11-0.523-10.109-3.917
		c-0.364-0.414-0.997-0.451-1.411-0.087c-0.414,0.365-0.453,0.997-0.087,1.411c3.23,3.656,8.164,4.609,11.037,4.609
		C271.952,343.77,272.184,343.762,272.397,343.749z M264.847,343.315c0,1.113,0.659,2.017,1.474,2.017
		c0.814,0,1.473-0.903,1.473-2.017c0-1.114-0.659-2.018-1.473-2.018C265.506,341.297,264.847,342.201,264.847,343.315z
		 M280.084,351.001c0-0.553-0.447-1-1-1h-8.833c-0.553,0-1,0.447-1,1s0.447,1,1,1h8.833
		C279.637,352.001,280.084,351.554,280.084,351.001z M274.471,322.75c-9.097,0-16.498,7.4-16.498,16.498
		c0,9.097,7.401,16.498,16.498,16.498s16.497-7.401,16.497-16.498C290.968,330.15,283.567,322.75,274.471,322.75 M274.471,320.75
		c10.216,0,18.497,8.281,18.497,18.498c0,10.216-8.281,18.498-18.497,18.498c-10.217,0-18.498-8.282-18.498-18.498
		C255.973,329.031,264.254,320.75,274.471,320.75L274.471,320.75z"/>
</g>
</svg>
