<?xml version="1.0" encoding="utf-8"?>
<!-- Generator: Adobe Illustrator 16.0.3, SVG Export Plug-In . SVG Version: 6.00 Build 0)  -->
<!DOCTYPE svg PUBLIC "-//W3C//DTD SVG 1.1//EN" "http://www.w3.org/Graphics/SVG/1.1/DTD/svg11.dtd" [
	<!ENTITY ns_extend "http://ns.adobe.com/Extensibility/1.0/">
	<!ENTITY ns_ai "http://ns.adobe.com/AdobeIllustrator/10.0/">
	<!ENTITY ns_graphs "http://ns.adobe.com/Graphs/1.0/">
	<!ENTITY ns_vars "http://ns.adobe.com/Variables/1.0/">
	<!ENTITY ns_imrep "http://ns.adobe.com/ImageReplacement/1.0/">
	<!ENTITY ns_sfw "http://ns.adobe.com/SaveForWeb/1.0/">
	<!ENTITY ns_custom "http://ns.adobe.com/GenericCustomNamespace/1.0/">
	<!ENTITY ns_adobe_xpath "http://ns.adobe.com/XPath/1.0/">
]>
<svg version="1.1" id="Layer_1" xmlns:x="&ns_extend;" xmlns:i="&ns_ai;" xmlns:graph="&ns_graphs;"
	 xmlns="http://www.w3.org/2000/svg" xmlns:xlink="http://www.w3.org/1999/xlink" x="0px" y="0px" width="141px" height="36px"
	 viewBox="0 0 141 36" style="enable-background:new 0 0 141 36;" xml:space="preserve">
<style type="text/css">
<![CDATA[
	.st0{fill:url(#SVGID_1_);}
]]>
</style>
<metadata>
	<sfw  xmlns="&ns_sfw;">
		<slices></slices>
		<sliceSourceBounds  width="140.6" height="34.7" x="0.2" y="-35.4" bottomLeftOrigin="true"></sliceSourceBounds>
	</sfw>
</metadata>
<linearGradient id="SVGID_1_" gradientUnits="userSpaceOnUse" x1="70.4922" y1="0.6348" x2="70.4922" y2="35.3608">
	<stop  offset="0.3118" style="stop-color:#2C65BD"/>
	<stop  offset="0.8817" style="stop-color:#264E9F"/>
</linearGradient>
<path class="st0" d="M32.2,1.1L20.8,34.8h-9.2L0.2,1.1h8.7l7.3,23.4l7.2-23.4H32.2z M61.5,34.8H36.3V1.1h25.2v7.5H45v5.1h15.7v7.5
	H45v6.1h16.6V34.8z M95.2,24.9c0,3.3-1.3,5.8-3.9,7.7c-2.6,1.9-6.2,2.8-10.8,2.8c-4.7,0-9.4-1-14.2-2.9l1.6-6.7
	c4.8,1.4,8.9,2.2,12.6,2.2c2.1,0,3.6-0.2,4.6-0.6c1-0.4,1.5-1.2,1.5-2.3c0-0.5-0.2-0.9-0.7-1.3c-0.5-0.4-1.3-0.8-2.5-1.2
	c-1.1-0.4-2.6-1-4.5-1.7c-2.1-0.8-3.7-1.4-4.8-2c-1.1-0.6-2.3-1.3-3.4-2.1c-1.1-0.8-1.9-1.8-2.3-2.9c-0.5-1.1-0.7-2.4-0.7-3.9
	c0-3.3,1.1-5.7,3.4-7.2c2.3-1.5,5.9-2.3,10.9-2.3c4.7,0,8.8,0.6,12.3,1.7l-1.2,7C89.9,8.4,86.2,8,82.2,8c-2.4,0-3.9,0.2-4.7,0.5
	c-0.7,0.3-1.1,0.9-1.1,1.7c0,0.5,0.3,1,0.8,1.4c0.5,0.4,1.4,0.8,2.7,1.3s2.9,1.1,5,1.9c0.9,0.4,1.8,0.7,2.6,1
	c0.8,0.3,1.6,0.6,2.3,0.9c0.7,0.3,1.3,0.7,1.9,1c0.6,0.4,1.1,0.8,1.5,1.2c0.4,0.5,0.8,1,1.1,1.5c0.3,0.6,0.5,1.2,0.7,1.9
	C95.1,23.2,95.2,24,95.2,24.9z M127.7,8.8h-10.9v26h-8.6v-26H97.2V1.1h30.5V8.8z M140.8,34.8h-8.6V1.1h8.6V34.8z"/>
</svg>
