<svg width="16" height="16" viewBox="0 0 16 16" fill="none" xmlns="http://www.w3.org/2000/svg">
<path d="M4 5.5H12V1.5C12 1.10218 11.842 0.720644 11.5607 0.43934C11.2794 0.158035 10.8978 0 10.5 0H5.5C5.10218 0 4.72064 0.158035 4.43934 0.43934C4.15804 0.720644 4 1.10218 4 1.5V5.5ZM0 5V11.5C0 11.8978 0.158036 12.2794 0.439341 12.5607C0.720645 12.842 1.10218 13 1.5 13H2.5V14.5C2.5 14.8978 2.65804 15.2794 2.93934 15.5607C3.22064 15.842 3.60218 16 4 16H12C12.3978 16 12.7794 15.842 13.0607 15.5607C13.342 15.2794 13.5 14.8978 13.5 14.5V13H14.5C14.8978 13 15.2794 12.842 15.5607 12.5607C15.842 12.2794 16 11.8978 16 11.5V5C16 4.60218 15.842 4.22064 15.5607 3.93934C15.2794 3.65804 14.8978 3.5 14.5 3.5H13.5V7H2.5V3.5H1.5C1.10218 3.5 0.720645 3.65804 0.439341 3.93934C0.158036 4.22064 0 4.60218 0 5ZM4.5 10.5H11.5V14H4.5V10.5Z" fill="#9E9E9E"/>
</svg>
