<?xml version="1.0" encoding="utf-8"?>
<!-- Generator: Adobe Illustrator 24.2.3, SVG Export Plug-In . SVG Version: 6.00 Build 0)  -->
<svg version="1.1" id="Слой_1" xmlns="http://www.w3.org/2000/svg" xmlns:xlink="http://www.w3.org/1999/xlink" x="0px" y="0px"
	 viewBox="0 0 719 178" style="enable-background:new 0 0 719 178;" xml:space="preserve">
<style type="text/css">
	.st0{fill:#0093D5;}
	.st1{font-family:'ArialNarrow-Bold';}
	.st2{font-size:63.8245px;}
</style>
<path class="st0" d="M164,32.6c3.9,4.6,10.6,7.3,14.6,11.9c-2.8-13.6-13.4-24.8-25.8-27.4C158.8,21.6,160.1,28,164,32.6z M14.5,67.1
	C23,48.5,35.8,52.4,41.3,34.7c-3,5.5-17,7.8-23.5,21.7c3.3-8.3,1.6-21,7.3-27.9C8.3,40.9,15.4,60.9,14.5,67.1z M30,111.9
	c1.5,7.3-3,17.7,4.2,27.8c-7.4-8.3-23.2-10.5-29.6-23.1c8,31,29,24.6,38.4,31.3C35.2,136.7,41.6,129.3,30,111.9z M27.6,131.3
	C23,114,31.2,108,24.9,91.4c-0.6,9.4-6.9,13.9-2.7,31C14.8,107.9,3.3,102.5,0,92.6C0.2,119.8,22.1,123.8,27.6,131.3z M61.1,160.3
	c-6.4-8.9-2-13.9-20.1-30.1c3.8,5.9-0.1,13.3,12.1,24.9c-11.9-7-28.4-4-36.3-13.4C30.4,167.7,54.3,157.1,61.1,160.3L61.1,160.3z
	 M148.6,155.1c12.2-11.5,8.2-19,12.1-24.9c-18.1,16.2-13.7,21.2-20.1,30.1c6.8-3.2,30.7,7.4,44.3-18.6
	C176.9,151.1,160.5,148.1,148.6,155.1L148.6,155.1z M167.4,139.6c7.2-10,2.7-20.5,4.2-27.8c-11.6,17.4-5.2,24.8-13,36
	c9.4-6.7,30.4-0.4,38.4-31.3C190.6,129.2,174.9,131.3,167.4,139.6L167.4,139.6z M138.6,161.5c-6.5-1.7-13.1-2.7-19.8-3
	c-6.1-0.1-12.3,0.9-18,3.1c-5.7-2.2-11.9-3.2-18-3.1c-6.7,0.3-13.3,1.3-19.8,3c-10.9,2.9-20.3,5.1-28.5,1c7.8,7,17,9.4,30.2,8
	c11-1.2,19.9-6.7,30.3-6.6h0.4c-6.5,3.3-12.3,7.8-17.1,13.3l5,0.7c0,0,5.3-10.6,17.4-13.4c12.1,2.8,17.4,13.4,17.4,13.4l5-0.7
	c-4.8-5.5-10.6-10-17.1-13.2h0.4c10.4-0.1,19.3,5.4,30.3,6.6c13.2,1.4,22.4-1.1,30.2-8C158.8,166.7,149.4,164.5,138.6,161.5
	L138.6,161.5z M25.7,72.6C21.2,81.2,14.2,83.2,15,101C11.2,85.2,2.2,79.3,2.3,69.2c-6.2,26.3,10.4,29.4,14.7,40.4
	C16.4,93.9,26.5,90.7,25.7,72.6z M31.9,52.3c-1.6,2.2-2.6,3.1-6.8,6.5c-6.2,5-10.5,12-12.1,19.8C13.4,69,7.5,55.2,11.4,45
	c-15.3,21.6,0.9,34.6,1.4,42.5C16.9,72.4,26,72.3,31.9,52.3z M188.6,78.6c-1.6-7.8-5.9-14.8-12.1-19.8c-4.2-3.4-5.3-4.4-6.8-6.5
	c5.9,20,15.1,20.1,19,35.2c0.6-7.8,16.8-20.8,1.4-42.5C194.1,55.2,188.2,69,188.6,78.6z M201.6,92.6c-3.3,9.9-14.8,15.3-22.3,29.8
	c4.2-17.1-2-21.7-2.7-31c-6.3,16.6,2,22.6-2.7,39.9C179.6,123.8,201.4,119.8,201.6,92.6L201.6,92.6z M176,72.6
	c-0.9,18.1,9.2,21.3,8.6,37c4.3-11,21-14.1,14.7-40.4c0.1,10.1-8.9,16-12.6,31.7C187.4,83.2,180.4,81.2,176,72.6z M37.7,32.6
	c3.9-4.6,5.2-10.9,11.2-15.5c-12.4,2.7-23,13.8-25.8,27.4C27,39.9,33.8,37.2,37.7,32.6L37.7,32.6z M160.4,34.7
	c5.4,17.8,18.2,13.8,26.8,32.5c-0.9-6.3,6.2-26.3-10.5-38.6c5.6,6.9,3.9,19.6,7.3,27.9C177.4,42.4,163.4,40.1,160.4,34.7L160.4,34.7
	z M117,44.8c-3.3-1.3-6.7-2.3-10.2-2.8c0,0.8,0,1.5,0,2.3c3.2,0.5,6.4,1.3,9.4,2.6C116.6,46.2,116.9,45.5,117,44.8z M114.4,22.7
	l0.7-0.6l-1.3-0.5l-3.4-0.1l-0.9,0.6l-2-0.2v0.5c1.2,0.1,2.4,0.2,3.5,0.4l1.7-0.1L114.4,22.7z M107.8,96.5c0-0.6-0.8-1.2-1.9-1.7
	h-0.2c0,0.5,0,2.8-0.1,3.9C107,98.1,107.8,97.4,107.8,96.5z M68.2,53c0.1-0.4,0.2-0.8,0.3-1.3c-0.5,0.1-0.9,0.2-1.4,0.1L68.2,53z
	 M100.9,153.6c38.5-0.1,69.6-31.5,69.5-70c-0.1-35.6-27-65.4-62.4-69.1c0,0.1,0,0.3-0.1,0.4c-0.1,0.7-0.3,1.3-0.4,1.8
	c15.3,1.5,29.7,8.2,40.6,19l-7.7,7.7l0.3-1.4l-1-0.4l-1.4-0.1l0.3-0.9l-0.9-3.2l-1.9-2.1l-6-3.2l-0.5,0.5l-1.1,0.3
	c2.1,3,3.2,6.5,3.2,10.1c0,0.5,0,0.9,0,1.4l3,3.8l-1.4,0.3l0.9,1.4l-2.6,2.6l-1.1-2c-0.5,1.4-1.2,2.7-2,3.9l0.6,0.5l-8.1,8.1
	c-0.5-0.5-1-0.9-1.5-1.3c-0.8,0.4-1.6,0.7-2.4,1l0.7,0.5l-0.4,0.4l-1,0.5l-0.3,1l-0.6-0.6l-1.7,0.6l0.5,0.8l1.2-0.3l0.8,0.1l0.1-0.4
	l0.6-0.3l0.2-0.3l1.1-0.3h0.8c0.2,0.1,0.3,0.3,0.5,0.4l-3.3,3.1l-0.2-0.3l-3.4,0.6l-0.8,0.8l-0.7,0.1l2.1-2l-0.7-0.4l-1.9,2.6
	l0.6-0.1v1l0.7,0.3l0.1,1l-1.2-0.2l-1.2,0.2l-3-1.5c0,0-0.2,7.9-0.2,11.9c7,2.3,14.3,5.7,14.3,14.6c0.1,3.8-1.8,7.3-5,9.4l0,0
	l-0.2,0.1l0,0l-0.2,0.2c-2.8,1.9-6.4,2.9-9.6,3.8l-0.1,6.2c5,2.5,11.1,6.1,10.5,16.4c-0.1,2.5-1.1,3.2-1.9,3.5l0,0
	c-3,0.7-6,1.2-9,1.4c0,0.8,0,1.6,0,2.3c13-0.9,25.3-6.3,34.8-15.4l8.1,8.1c-26,25.1-67.2,25.2-93.3,0.2l8.1-8.1
	c9.3,8.9,21.5,14.2,34.3,15.2c0-0.7,0-1.5,0-2.3c-12.2-0.9-23.8-6-32.7-14.5l2.2-2.2l3,0.3l1.6-1.7l4.1,0.1l0.6-1.4l-0.2-0.6
	c6.1,4.7,13.4,7.6,21.1,8.4c0-0.9,0-1.7,0-2.3c-8.5-1-16.5-4.6-22.7-10.4l8.1-8.1c2,1.8,4.2,3.2,6.6,4.4c0.2-0.7,0.4-1.5,0.8-2.1
	c-2.1-1-4-2.3-5.8-3.9l8.1-8.1c1.3,1,2.8,1.9,4.3,2.4c0-0.8,0-1.7,0-2.4c-1-0.4-1.9-1-2.7-1.6l2.3-2.3c-0.8-0.2-1.6-0.5-2.4-0.8
	l-1.5,1.5c-0.8-0.9-1.4-1.8-1.9-2.9c-1.4-0.6-2.7-1.3-4-2.1c-4.8-2.9-7.7-8.2-7.6-13.8c-0.1-3.8,1-7.5,3.3-10.5l-8.1-8.1
	c5.9-5.7,13.5-9.4,21.6-10.6c0-0.8,0-1.5-0.1-2.3c-8.7,1.3-16.8,5.2-23.2,11.3L70.3,52c-0.3,0.5-0.7,1.2-1.1,2.1l0.9,0.9
	c-7.2,7.6-11.3,17.7-11.5,28.2H47.1c0.2-13.6,5.5-26.5,14.9-36.3l3.6,3.7c0.2,0,0.3,0,0.5,0c0.7-0.1,1.4-0.3,2.1-0.6l-4.6-4.6
	c2.5-2.4,5.1-4.5,8-6.4c0.2-0.6,0.3-1.1,0.6-1.7c0.5-0.8,1.1-1.6,1.8-2.3c-4.3,2.4-8.4,5.3-11.9,8.8l-8.1-8.1
	c10.9-10.6,25-17.2,40.1-18.8c-0.1-0.3-0.1-0.5-0.1-0.5c-0.1-0.5-0.2-1.1-0.3-1.7c-38.3,4.1-66.1,38.4-62,76.7
	C35.3,126.7,65.2,153.6,100.9,153.6L100.9,153.6z M116,105.4L116,105.4L116,105.4L116,105.4z M149.8,37.3
	c11.8,12.4,18.5,28.7,18.6,45.8h-11.5c-0.1-8.5-2.2-16.9-6-24.5l0.1-0.2l0.8,0.4l0.2-0.6l-2-3.6l-2.4-3.4l-2.9-2.3
	c-1-1.2-2-2.4-3.1-3.5L149.8,37.3z M135.1,52l2.8,0.1l0.7,0.8l-0.3,1.2l3.8,2.4l0.8-0.1l4.9,5.6l2-0.7c3.2,6.9,4.9,14.3,5,21.9
	h-11.5c0-2.9-0.4-5.9-1.1-8.7l0.5-0.7l0.7-3.6l-0.5-3.9l-1.4-4.4l-3.2-4.7l0.8,0.4l0.4-0.4l-2.6-1.7l-0.2,0.6l2.6,3.7l1.4,3l1,3
	l0.3,2l0.5,3.4l-1,0.1c0,0-1.1-2.1-1.4-2.9l0.5-0.8l-1-1.4v-1.4l-0.7-0.9l-0.9,0.1c-0.3-0.6-0.6-1.2-1-1.7l0.6,0.3l0.2-0.2l-0.3-0.7
	l0.8-0.4l-0.3-0.4l-1.1,0.4l0.4-1.7l-0.7-0.4l-0.6,1.4c-1.2-1.9-2.6-3.6-4.2-5.3L135.1,52z M132.8,78.9l2.1-1.1l2.1-0.3l0.5-1
	l1.2-0.7l0.4-1l0.4-1.7c0.2,0.6,0.3,1.2,0.5,1.8l-1.1,3.3v1.1l1.6-2.2c0.3,2,0.5,4,0.6,6h-10l-0.2-0.9l1.2-0.9l0.2-0.6l0.5-0.4
	l1.4-0.1l0.1-0.6L132.8,78.9z M119.1,71l1-0.2v-0.2l-1-0.7l0.3-2.2l1.2-1.2c0.8,0.9,1.5,1.8,2.1,2.8l-0.4,1.3l-1.1-0.8l-0.8,0.2
	l0.4,0.8h0.4l-0.5,1.2l-0.3-0.5L119.1,71z M123.5,109.1l-2.5-0.7l-0.7,0.3l-1.4-1.1l-1.3-0.5c0.7-0.5,1.3-1,1.9-1.5l2,1.4l1.6,0.8
	l0.8,0.8L123.5,109.1z M122.2,64.8l8.1-8.1c1.9,2.1,3.6,4.3,5,6.7l-1,0.3l0.1,1.8l3,1.9c0.8,1.7,1.4,3.4,1.9,5.1l-0.5,0.8l-1.1,0.7
	l-0.3,1.7l-0.8,0.4l-0.6,0.7l-0.6-0.2h-1.1l0.6-0.9l0.5-2.3l0.7-0.5l-2.1-2.1l-1.6,0.6L132,73l-1,1.1l-1.1-0.9l-0.4-0.9l0.6-0.4
	l0.3,0.6l0.5-0.2l-0.2-1h-0.7l-0.1,0.4l-0.5,0.1l-2.5-3l-0.9-0.7l0.3-0.4l0.8-0.3l-0.7-0.3c0,0-0.9,0.2-1,0.2l0.5,0.6h-1.3
	C124,67,123.1,65.9,122.2,64.8z M126.3,108l-1.1-1.1l0.8-1.1l1.1-2.2l-0.4-0.6l0.7-1.6l-0.1-1.4l-0.4-1.5l-1-0.3l-0.4,0.8l-0.6-0.2
	c0.9-1.3,1.7-2.7,2.4-4.2l1-0.4l0.6-0.8l0.3,0.3l0.7-0.8l-0.6-0.7l0.5-0.1l0.9,0.4h1.8l1.1-0.6l2.8-0.7l-0.5-0.9l-0.2-1.1l1.5,0.7
	l0.6-0.3l-0.3-1.2l-1.8,0.7l-2-0.4l-1.5-3.2h8.8c-0.4,9.8-4.3,19-11.1,26.1l-1.2-1.2l0.5-1.6l-0.9-3.6L126.3,108z M127.9,130.4
	l1.1-2.3l-0.4-1l1.6-1.4v-0.8l-1.4-0.8l1.1-2.2l1.7-2.2l-1.7-1.8h-1.3l-0.8-1.3c0.7-0.6,1.3-1.1,2-1.7l8.1,8.1
	C134.9,125.7,131.5,128.3,127.9,130.4L127.9,130.4z M138,119.7l0.9-1l-0.9-4.4l-0.6-0.2l0.4-0.8l-1.9-0.6l-0.4,1.6l-0.2,2l-0.4,0.4
	l-3.5-3.5c7.2-7.5,11.4-17.3,11.7-27.7h11.5c-0.4,13.4-5.8,26.2-15.1,35.8L138,119.7z M141.2,122.8c9.8-10,15.4-23.4,15.8-37.4h11.5
	c-0.4,17-7.2,33.3-19.1,45.5L141.2,122.8z M72.2,111.7c-0.8-0.9-1.6-1.8-2.4-2.7l0.3-2.9l-1.2-2.8L68.6,99l-1.4-2.6l0.3-1.6
	l-1.6-3.2l-1.4-0.7l0.6-1.7l-0.6-1.3l0.6-1.5h1.6l0.6-0.9h2.7l0.4,0.8L69.8,89l-0.3,0.5l1,2.2L69.8,92l-0.5-0.6l-0.2,0.2l0.5,1.3
	l0.8,1.5h0.4L71,93l-0.4-0.5v-0.9l-0.1-1.9l0.5-3.3l-0.5-0.9h1.9c0.4,6.8,3.2,13.3,7.9,18.2L72.2,111.7z M64.6,89.3L63.5,91h-1.9
	l-0.2-0.1c-0.3-1.8-0.5-3.6-0.6-5.4h3.5l-0.8,2.8L64.6,89.3z M68.3,81.4l0.2-2.3l1.4-0.8l2.4,0.4l0.4,0.4c-0.2,1.3-0.3,2.6-0.4,3.9
	h-2.7L68.3,81.4z M80,90l0.6-0.3l1.4,1.1l-0.7,0.5l1.7,1.1l0-1.2l0.9-1.5l0.9,1l1,1.4L84,92.6l0.8,1.6l1.2-0.6L85.9,93l0.9-0.6
	l0.5-2.5c0.7,1.5,1.5,2.8,2.6,4l-8.1,8.1c-4-4.2-6.5-9.5-7.1-15.2l1.7,1.8H78L80,90z M71.7,56.5l8.1,8.1c-1.7,1.9-3.1,3.9-4.3,6.2
	h-0.6l-1.1,0.3h-0.4l-1.2,1.1l1.5-0.3l1.4-0.3l-0.2,0.5l-1.2,0.8H73l-1.8,1.3l-1.7-0.1L67,78.8l0.5,0.9l-1.3,1.5l-0.2,2h-5.1
	C61,73.3,64.9,63.8,71.7,56.5z M61.2,117.7l2.6,1.5l0.5,0.4l-1.9,1.9c-0.9-0.9-1.7-1.8-2.5-2.8L61.2,117.7z M58.6,85.4
	c0,1.1,0.1,2.2,0.3,3.3l-1.4,0.3l-0.3,1.4l-2.9,3.7l0.1,5.1l-3,1h-1.6c-1.6-4.8-2.4-9.8-2.6-14.9L58.6,85.4z M47.3,100.3l-0.7-0.1
	L46,99.4l-3.2-0.3l1,1.3l-3-0.6l0.8-0.7l-0.7-0.7l-2.2,0.9l-0.8,1.4l0.3,3.3l2.5,5.9l1.2,1.9l0.7,0.3l-1.9-3.6l-0.4-1.8l0.4-0.4
	l-0.3-1l1.1,0.2l1.7,2.6l0.4,0.2v-1.9l0.7,0.4l0.2,1l1.8,0.5l0.8-0.5l0.3,0.2v1.4l0.8,1l1,0.2l2.1,3.6l1.3,0.4l0.4-1.7
	c2.2,3.7,4.9,7.1,7.9,10.2l-8.1,8.1c-12-12.2-19-28.5-19.4-45.6h11.5C45,90.5,45.8,95.5,47.3,100.3z M52.3,37.1l8.1,8.1
	C50.6,55.5,45,69,44.9,83.2H33.4C33.6,66,40.3,49.5,52.3,37.1L52.3,37.1z M135.3,33l-0.7-1.1l-1.5-0.8l-1.2,0.9l1.5,0.8l1.6,1.2
	L135.3,33z M128.3,65.3v0.9l2-0.6l0.6-1.2l-1.4-1.8l0.7-1.1l1.9,1.3l0.3-0.3l-0.4-0.3l-0.4-0.8l0.8-0.4l-0.7-1l-1.7,0.9l-0.6,1.1
	l-0.4,1l0.8,1.3l-0.3,0.6L128.3,65.3z M45.4,116.7l0.2-0.5l-1-2.2l-1.2-0.4L45.4,116.7z M92.3,73.6c0,1.9,1.2,3.3,3.3,4.4
	c0,0,0-0.3,0-0.9l-1.3-1.3l0.7-1.3l0.6-0.2c0-2.2-0.1-4.8-0.1-5.1h-0.1C93.3,70.4,92.3,71.8,92.3,73.6z"/>
<path class="st0" d="M105.1,123.3c3.6,1.8,6.9,4.3,8.3,9.1c0.6-7.9-3.8-11.3-8.2-13.6C105.2,118.8,105.1,123.3,105.1,123.3z"/>
<path class="st0" d="M129,43.2c0-7.2-5.2-15.1-17.9-18c-1.3-0.2-2.6-0.4-3.9-0.5c0,1.1-0.1,3.6-0.1,3.6c0,0.8-0.1,3.7-0.1,4.3
	c0.8,0.1,1.6,0.2,2.4,0.3c7.4,1.8,10.1,6,10.1,10.2c0,6.8-5.8,9.4-13,11.3l-2.4,0.6c-2.2,0.5-4.4,1.1-6.6,1.7
	c-0.8,0.2-1.6,0.4-2.3,0.7l0,0c-7.9,2.4-14.8,6.2-14.8,16s7.8,13.3,15.4,15.7c0-2.8-0.1-5.6-0.2-8.4c-3.3-1.6-5.7-3.6-5.7-7.1
	s2.2-5.5,5.4-7c0.7-0.3,1.5-0.6,2.3-0.9c1.9-0.6,4-1.2,6.3-1.7l2.4-0.6l0,0C117,60.9,129,57.5,129,43.2z"/>
<path class="st0" d="M90.6,111.7c0,3.9,2.9,6,5.8,7.7c0-0.7-0.1-6.7-0.1-6.8c0.1-1.2,1.2-1.9,2.2-2.4c1.5-0.7,3-1.2,4.6-1.8
	c0.9-0.3,1.6-0.6,2.4-0.8l0,0c5.8-1.7,12.5-4,12.5-11s-5.8-10-12-12.1c0,2.3-0.1,5.5-0.2,7.8c2.7,1,4.4,2.3,4.4,4.3
	c0,2.5-2.7,4-4.6,4.7c-0.8,0.3-2,0.7-2.3,0.8c-1.5,0.5-3.2,1-4.8,1.6c-0.8,0.3-1.6,0.6-2.3,1C93.4,106.1,90.6,108.1,90.6,111.7z"/>
<path class="st0" d="M94.5,25.9c-2.4,0.8-4.7,1.7-7,2.9c-2.5,0.8-6,1-9.7,4.9c-1.2,1.4-2.3,2.8-3.3,4.3c-1.1,1.6-1.2,4.1-2,5.5
	c-1.2,2-0.9,3.1-0.9,3.1v0.1c-0.2,0.9-0.7,1.8-1.3,2.5c-1.1,1.4-2.9,2.1-4.7,1.9c1.7,0.8,4-0.3,4-0.3c-0.4,1.1-0.6,2.2-0.9,3.3
	c1.9-4.2,3.6-5.8,4.1-6.2c0.8,0.2,2.5,0.1,5.5-1.7c3.5-2,8.7-5.3,10.2-7.3c1.6-2.1,3.7-3.7,6.2-4.7C94.6,31,94.6,28.3,94.5,25.9z
	 M79.8,39.1L78,39.5l2.1-3.5l2.5,0.1L79.8,39.1z"/>
<path class="st0" d="M101.7,111.2c-0.3,0.1-1.2,0.5-1.8,0.7s-1.3,0.5-1.3,0.7s0.6,30.4,0.6,31.1c0,6.3,3.2,6.3,3.2,0
	c0-0.4,0.6-32.9,0.6-32.9S102.2,111,101.7,111.2z"/>
<path class="st0" d="M98.4,101.2c1-0.3,2-0.6,2.9-0.9l1.9-0.6c0-1.9,0.6-28.3,0.7-33.1c-2.1,0.5-4.1,1.1-6.2,1.8
	C97.8,71.9,98.3,98.3,98.4,101.2z"/>
<path class="st0" d="M101,0c-8.9,0-5.1,13.3-4.4,17.6c0,0.2,0.7,30,0.9,36.8c1.4-0.4,2.7-0.7,4-1l2.7-0.7c0.1-6.6,0.8-35,0.8-35.2
	C105.5,12.9,110.2,0,101,0z"/>
<text transform="matrix(1 0 0 1 215.7603 73.6835)"><tspan x="0" y="0" class="st0 st1 st2">Παγκόσμιος</tspan><tspan x="0" y="76.6" class="st0 st1 st2">Οργανισμός Υγείας</tspan></text>
</svg>
