<svg id="Слой_1" data-name="Слой 1" xmlns="http://www.w3.org/2000/svg" xmlns:xlink="http://www.w3.org/1999/xlink" width="159.48" height="146.18" viewBox="0 0 159.48 146.18"><defs><clipPath id="clip-path"><rect width="159.48" height="146.18" style="fill:none"/></clipPath></defs><title>logo</title><g style="clip-path:url(#clip-path)"><path d="M144.51,54.6l-3.43,84.81c-2.32-.11-4.68-.16-7.06-.16-19.89,0-40.52.72-53.72,6.79l-.16.08-.14.06V64.37l.3-.14c13.22-6.06,35.27-9.79,55.16-9.79,2.38,0,6.74.06,9.05.16" style="fill:#ed1c24"/><path d="M15,54.6l3.43,84.81c2.32-.11,4.68-.16,7.06-.16,19.89,0,40.52.72,53.72,6.79l.16.08.14.06V64.37l-.3-.14C66,58.17,41.91,54.44,22,54.44c-2.38,0-4.74.06-7.05.16" style="fill:#ed1c24"/><path d="M148.21,61.34l-3.63,78.57c-2.45-.1-4.95-.15-7.46-.15-21,0-42.84.67-56.79,6.29l-.17.07-.15.06V70.39l.32-.13c14-5.61,37.28-9.07,58.31-9.07,2.51,0,7.13.06,9.57.15" style="fill:#ed1c24"/><path d="M11.27,61.34l3.63,78.57c2.45-.1,4.95-.15,7.46-.15,21,0,42.84.67,56.79,6.29l.17.07.15.06V70.39l-.32-.13c-14-5.61-39.4-9.07-60.43-9.07-2.52,0-5,.06-7.45.15" style="fill:#ed1c24"/><path d="M138.51,49.9l-1.43,85.81c-2.32-.11-4.68-.16-7.06-.16-19.89,0-36.52,3.72-49.72,9.79l-.16.08-.14.06V59.67l.3-.14c13.22-6.06,31.27-9.79,51.16-9.79,2.38,0,4.74.06,7.05.16" style="fill:#fff"/><path d="M21,49.9l1.43,85.81c2.32-.11,4.68-.16,7.06-.16,19.89,0,36.52,3.72,49.72,9.79l.16.08.14.06V59.67l-.3-.14C66,53.47,47.91,49.74,28,49.74c-2.38,0-4.74.06-7.05.16" style="fill:#fff"/><path d="M65.84,110.51a4.78,4.78,0,0,0,4.78,4.77h7.92l-.43-9.55H70.62a4.79,4.79,0,0,0-4.78,4.78" style="fill:#0098dd"/><path d="M71.72,122.38a3.69,3.69,0,0,0,3.68,3.69h3.39V121l-.1-2.27H75.4a3.69,3.69,0,0,0-3.68,3.68" style="fill:#0098dd"/><path d="M59.81,96.24A5.23,5.23,0,0,0,65,101.47H77.92L77.45,91H65a5.22,5.22,0,0,0-5.22,5.22" style="fill:#0098dd"/><path d="M46.65,46.72A48.88,48.88,0,0,1,58.8,36.41c-.14-.33-.28-.66-.41-1a3.14,3.14,0,0,0-3.84-1.83C49.65,35,46,38.71,39.64,43.85a35.35,35.35,0,0,1-10.12,5.9c4.63,0,9.14.27,13.52.69a41.08,41.08,0,0,0,3.61-3.72" style="fill:#0098dd"/><path d="M62.09,41.87a19.33,19.33,0,0,1-1.93-2.78,47,47,0,0,0-11.24,9.58c-.66.77-1.33,1.5-2,2.2,2.07.25,4.11.55,6.1.88a50.73,50.73,0,0,1,9.08-9.88" style="fill:#0098dd"/><path d="M66.7,45.72A14.81,14.81,0,0,1,64.23,44a47.25,47.25,0,0,0-8,8.33c1.57.31,3.12.64,4.62,1a48.42,48.42,0,0,1,5.8-7.62" style="fill:#0098dd"/><path d="M71.74,47.29a9.09,9.09,0,0,1-2.05-.35h0A45.48,45.48,0,0,0,64,54.1q2.47.66,4.83,1.39c1.77-4.25,2.94-8.2,2.94-8.2" style="fill:#0098dd"/><path d="M159.1,34.78c-13.79,6.38-42.38-9.45-54.38-12.51S92,23.55,92.72,33.51c.44,5.77-4.09,8.28-8,9.37L85,37.09A9.55,9.55,0,0,0,88,23.55a13.11,13.11,0,1,0-15.82,0A9.55,9.55,0,0,0,75,37.08l.27,6c-4-1-9-3.47-8.55-9.52.77-10,0-14.3-12-11.23S14.17,41.16.38,34.78C-2.69,43,13.51,49.32,24.63,46.27,40,42.06,56,24.06,59.87,31.21c2.5,4.67,4.44,12.91,15.56,14.53L76,58.05c1.3.52,2.55,1.06,3.76,1.62v82.56l-.59-13.14c-.49.05-1,.07-1.48.08a2,2,0,0,0-.39,0,1.16,1.16,0,0,0-.26.07,1.22,1.22,0,0,0-.47.33,1.48,1.48,0,0,0-.3,1.25,2.26,2.26,0,0,0,1.2,1.55,2.16,2.16,0,0,1-2.67-.77,3,3,0,0,1-.16-3.1,6.17,6.17,0,0,1-3.83-10.23h-.17a7.76,7.76,0,0,1-5.9-12.83,9.22,9.22,0,0,1-8.91-9.21,9.12,9.12,0,0,1,1.93-5.62,10.73,10.73,0,0,1,2.2-21.24h2.45c.15-.1.3-.21.48-.31,5-2.81,9.64.38,11.17,1.28,0,0,1.28,2.17.64,2.68a17.42,17.42,0,0,1-2.49,1.28v.07H72c-2.34,1-5.6,2.15-7.26,1.58A9.09,9.09,0,0,1,62,74.38h-2a5.74,5.74,0,1,0,0,11.47H77.22L76,58.05c-2.27-.92-4.67-1.78-7.18-2.56l0,.07a13,13,0,0,1-10.18,7.88,47.15,47.15,0,0,0,2.74-4.74A48.17,48.17,0,0,1,64,54.1c-1-.26-2-.52-3.07-.76-.76,1.22-1.52,2.56-2.25,4a41.33,41.33,0,0,1-3.91,6.32,37,37,0,0,1-8-.95,40.94,40.94,0,0,0,8.69-9.19c.29-.41.57-.8.86-1.18Q54.66,52,53,51.75l0,.05a36.43,36.43,0,0,1-10,9.91,57.46,57.46,0,0,1-7.19-2.78,37.29,37.29,0,0,0,11.17-8.06c-1.27-.16-2.57-.3-3.87-.43a32.53,32.53,0,0,1-10.9,6.72,66.14,66.14,0,0,1-9.3-5.91,29,29,0,0,0,6.67-1.5H28.28c-2.38,0-4.74.06-7.06.16l1.44,85.81c2.32-.11,4.68-.16,7.06-.16,20,0,36.76,3.78,50,9.93l.14-.06.16-.08c13.2-6.07,29.83-9.79,49.72-9.79,2.38,0,4.74.05,7.06.16l1.43-85.81c-2.31-.1-4.67-.16-7-.16H130a35.21,35.21,0,0,1-10.16-5.9c-6.41-5.14-10-8.84-14.91-10.28a3.15,3.15,0,0,0-3.84,1.83c-.13.35-.27.68-.41,1a48.87,48.87,0,0,1,12.15,10.31,42.73,42.73,0,0,0,3.62,3.72c-1.3.13-2.59.27-3.86.43-.69-.7-1.36-1.43-2-2.2a47,47,0,0,0-11.24-9.58,19.28,19.28,0,0,1-1.93,2.78,51,51,0,0,1,9.09,9.88q-1.66.28-3.28.6A47.45,47.45,0,0,0,95.25,44a14.81,14.81,0,0,1-2.47,1.7,48.93,48.93,0,0,1,5.8,7.63q-1.56.37-3.08.76a46,46,0,0,0-5.71-7.17h0a9.12,9.12,0,0,1-2.05.35s1.17,3.95,2.94,8.2c-2.32.73-4.54,1.52-6.67,2.36l.6-12.21c10.64-1.81,12.55-9.84,15-14.44,3.83-7.15,19.85,10.85,35.23,15.06,11.13,3,27.32-3.32,24.26-11.49M81.74,118.71h2.95a3.68,3.68,0,1,1,0,7.36H81.74Zm0-3.42v-9.55h7.73a4.77,4.77,0,1,1,0,9.55Zm.3-13.82V98.19L82.39,91H95.05a5.22,5.22,0,1,1,0,10.45ZM91.6,57.3a13,13,0,0,0,9.28,6.14,47.15,47.15,0,0,1-2.74-4.74c-.5-1-1-1.92-1.55-2.81q1.5-.39,3-.74c.4.71.8,1.43,1.18,2.2a41.25,41.25,0,0,0,3.91,6.32,37,37,0,0,0,8-.95,40.54,40.54,0,0,1-8.25-8.59q1.64-.31,3.31-.57a35.25,35.25,0,0,0,8.74,8.15,57.46,57.46,0,0,0,7.19-2.78,36.43,36.43,0,0,1-9.31-6.27c1.38-.15,2.78-.28,4.18-.4a31.67,31.67,0,0,0,8.73,4.9,69.78,69.78,0,0,0,8.55-5.34h.33l-1.36,81.81c-1.65-.05-3.35-.08-5.09-.08-18,0-34.18,3-48,8.85V129.14l.68,0a2.28,2.28,0,0,1,.39,0,1.16,1.16,0,0,1,.26.07,1.14,1.14,0,0,1,.47.33,1.48,1.48,0,0,1,.3,1.25,2.29,2.29,0,0,1-1.21,1.55,2.15,2.15,0,0,0,2.67-.77,2.94,2.94,0,0,0,.17-3.1,6.16,6.16,0,0,0,3.83-10.23h.17a7.76,7.76,0,0,0,5.89-12.83,9.2,9.2,0,0,0,7-14.83,10.73,10.73,0,0,0-2.2-21.24H97.7c-.16-.1-.3-.21-.49-.31-5-2.81-9.64.38-11.17,1.28,0,0-1.28,2.17-.64,2.68a17.46,17.46,0,0,0,2.49,1.29v.06H88c2.34,1,5.6,2.15,7.25,1.58a9.12,9.12,0,0,0,2.8-1.58h2.06a5.73,5.73,0,0,1,0,11.47H82.64L83.9,60c2.45-1,5-1.92,7.7-2.75" style="fill:#0098dd"/></g></svg>