<svg width="345" height="181" fill="none" xmlns="http://www.w3.org/2000/svg"><g clip-path="url(#a)"><path d="M.222.39v180.442h344V.391h-344Z" fill="#FA1E0A"/><path d="M16.258 16.623h12.055c3.808 0 6.693.3 8.653.898 1.96.599 3.545 1.81 4.75 3.634 1.205 1.825 1.808 4.764 1.808 8.818 0 2.742-.425 4.653-1.277 5.734-.851 1.08-2.53 1.912-5.037 2.49 2.793.64 4.687 1.697 5.683 3.176.994 1.479 1.492 3.745 1.492 6.8v4.349c0 3.171-.358 5.52-1.076 7.046-.718 1.528-1.861 2.571-3.43 3.131-1.57.56-4.784.84-9.644.84H16.258V16.623Zm12.084 8.028v10.432c.516-.02.918-.029 1.205-.029 1.186 0 1.941-.295 2.267-.883.325-.59.489-2.275.489-5.058 0-1.468-.135-2.496-.402-3.086-.269-.588-.618-.96-1.048-1.116-.43-.154-1.268-.24-2.512-.26Zm0 17.735v13.127c1.702-.058 2.788-.328 3.257-.812.468-.482.704-1.67.704-3.564V46.76c0-2.01-.21-3.226-.632-3.65-.42-.426-1.531-.667-3.33-.725ZM48.485 16.623h20.148v9.39h-8.065v8.897h7.549v8.925h-7.549V54.15h8.868v9.388H48.484V16.623ZM73.507 16.623h8.552c5.702 0 9.563.223 11.581.667 2.019.444 3.665 1.58 4.937 3.405 1.272 1.825 1.908 4.738 1.908 8.736 0 3.651-.45 6.106-1.349 7.36-.9 1.256-2.669 2.01-5.31 2.26 2.391.6 4 1.401 4.822 2.406.823 1.005 1.335 1.927 1.536 2.767.201.84.301 3.155.301 6.94V63.54H89.264V47.95c0-2.512-.196-4.066-.589-4.666-.392-.598-1.421-.897-3.085-.897v21.152H73.507V16.623Zm12.083 8.028v10.432c1.359 0 2.31-.189 2.856-.565.545-.376.818-1.599.818-3.666v-2.579c0-1.488-.264-2.463-.79-2.927-.526-.463-1.487-.695-2.884-.695ZM117.425 16.623v37.528h7.348v9.388h-19.431V16.623h12.083ZM139.96 16.623V63.54h-12.083V16.623h12.083ZM171.967 16.623V63.54h-10.591l-6.286-21.328V63.54h-10.103V16.623h10.103l6.774 21.126V16.623h10.103ZM176.993 16.623h20.149v9.39h-8.065v8.897h7.548v8.925h-7.548V54.15h8.868v9.388h-20.953V16.623h.001ZM201.594 16.623h8.553c5.702 0 9.563.223 11.581.667 2.02.444 3.664 1.58 4.937 3.405 1.273 1.825 1.909 4.738 1.909 8.736 0 3.651-.45 6.106-1.349 7.36-.9 1.256-2.669 2.01-5.31 2.26 2.391.6 3.999 1.401 4.822 2.406.822 1.005 1.335 1.927 1.535 2.767.202.84.301 3.155.301 6.94V63.54h-11.222V47.95c0-2.512-.196-4.066-.588-4.666-.393-.598-1.421-.897-3.086-.897v21.152h-12.083V16.623Zm12.085 8.028v10.432c1.358 0 2.31-.189 2.856-.565.545-.377.818-1.599.818-3.666v-2.579c0-1.488-.263-2.463-.79-2.927-.526-.463-1.489-.695-2.884-.695ZM72.346 72.42l-13.48 41.617 14.764 50.552H49.348l-9.518-39.508v39.508h-23.5V72.421h23.5v35.808l10.468-35.808h22.048ZM130.527 72.42v61.599c0 6.983-.223 11.889-.671 14.716-.447 2.826-1.768 5.73-3.963 8.71-2.196 2.98-5.089 5.237-8.68 6.774-3.593 1.536-7.825 2.307-12.7 2.307-5.397 0-10.16-.912-14.29-2.733-4.131-1.821-7.221-4.194-9.267-7.116-2.047-2.923-3.257-6.007-3.629-9.251-.372-3.246-.558-10.068-.558-20.467V72.421h23.501v69.111c0 4.024.215 6.595.642 7.715.428 1.12 1.292 1.679 2.596 1.679 1.488 0 2.447-.616 2.875-1.85.427-1.234.641-4.146.641-8.738V72.421h23.503ZM138.485 72.42h16.634c11.09 0 18.597.436 22.525 1.31 3.926.872 7.126 3.102 9.601 6.689 2.474 3.585 3.712 9.308 3.712 17.165 0 7.171-.875 11.993-2.625 14.459-1.749 2.468-5.191 3.946-10.327 4.44 4.651 1.177 7.778 2.752 9.378 4.725 1.601 1.975 2.596 3.786 2.987 5.437.391 1.652.586 6.199.586 13.635v24.309H169.13v-30.627c0-4.934-.382-7.99-1.144-9.165-.764-1.176-2.763-1.765-6.001-1.765v41.557h-23.501V72.421h.001Zm23.5 15.769v20.494c2.642 0 4.494-.371 5.554-1.109 1.061-.74 1.591-3.14 1.591-7.201v-5.067c0-2.922-.512-4.84-1.535-5.75-1.024-.91-2.894-1.367-5.61-1.367ZM221.727 72.42v92.168h-23.501V72.421h23.501ZM229.331 72.42h39.187v18.446h-15.686v17.478h14.68v17.533h-14.68v20.266h17.249v18.446h-40.75V72.421ZM275.006 72.42h16.635c11.089 0 18.597.436 22.525 1.31 3.926.872 7.126 3.102 9.601 6.689 2.474 3.585 3.712 9.308 3.712 17.165 0 7.171-.875 11.993-2.624 14.459-1.75 2.468-5.192 3.946-10.328 4.44 4.651 1.177 7.778 2.752 9.378 4.725 1.601 1.975 2.596 3.786 2.987 5.437.391 1.652.586 6.199.586 13.635v24.309h-21.826v-30.627c0-4.934-.381-7.99-1.144-9.165-.764-1.176-2.763-1.765-6.001-1.765v41.557h-23.501V72.421Zm23.501 15.769v20.494c2.641 0 4.493-.371 5.554-1.109 1.06-.74 1.591-3.14 1.591-7.201v-5.067c0-2.922-.512-4.84-1.535-5.75-1.024-.91-2.895-1.367-5.61-1.367ZM328.044 20.975V46.91c0 9.164-3.552 14.165-8.434 16.738-6.326 2.569-14.537 2.353-20.087-1.82-4.216-3.747-5.673-9.166-5.673-14.917l.014-26.043 3.3-.008a5.453 5.453 0 0 0-.6-.982c-.621-.79-1.245-1.922-1.912-1.727l-.705-1.24s.445-.251.838-.418c.391-.168.51-.638 1.035-.862.519-.192.96-.002 1.35-.146l.928-.34s.406.633.345 1.066c-.068.493-.763.51-.775 1.008-.008.348.124.557.347.822.549.65 1.343.292 2.169.102.978-.224 2.16-.333 2.2-1.344.014-.348-.026-.58-.224-.868-.318-.464-.987-.09-1.337-.534-.316-.402-.259-1.292-.259-1.292s.536-.16.996-.24c.46-.083.849-.458 1.461-.566.636-.114 1.024.049 1.502-.035l1.133-.203s.345.906.156 1.436c-.192.541-.925.457-1.062 1.016-.103.426-.027.733.199 1.106.477.785 2.163.383 2.31.37.15-.012 1.958.106 2.274-.783.152-.43.147-.756-.047-1.167-.255-.536-.967-.322-1.258-.838-.286-.502-.095-1.485-.095-1.485h1.187c.498 0 .783-.264 1.448-.264.664 0 .924.264 1.422.264h1.187s.191.982-.095 1.486c-.293.514-1.004.301-1.257.837-.194.41-.2.737-.048 1.167.316.89 2.124.771 2.275.783.145.013 1.832.415 2.309-.37.226-.373.304-.68.199-1.106-.138-.56-.87-.474-1.062-1.016-.188-.53.156-1.436.156-1.436l1.134.203c.476.084.77-.164 1.403-.05.613.108 1.099.568 1.558.652.46.08.998.239.998.239s.056.89-.261 1.292c-.348.443-.996.085-1.337.534-.253.335-.318.623-.278 1.043.098.992 2.118 1.133 2.256 1.17.12.033 1.539.667 2.114.07.287-.3.436-.577.401-.995-.044-.495-.708-.515-.775-1.008-.06-.434.345-1.066.345-1.066l.928.34c.389.144.825-.046 1.345.146.521.224.648.694 1.038.862.394.167.839.418.839.418l-.705 1.24c-.816.037-1.289.936-1.912 1.727-.232.292-.44.652-.624 1.037 1.921.013 3.273.033 3.723.06Z" fill="#fff"/><path d="M312.726 28.816c-.231-.037-.582-.106-1.186-.172-.861-.095-1.359.039-2.228.03-1.376-.011-1.52-1.429-1.52-1.429s.556.876 1.425.944c.903.07 1.426-.136 2.324-.004.392.059 1.086.203 1.086.203.1.24.099.428.099.428Z" fill="#EA3A32"/><path fill-rule="evenodd" clip-rule="evenodd" d="M313.028 28.729c-.102-.601-.404-1.03-.896-1.276-.201.142-.397.435-.397.435l-.316-.69-.396.626-.25-.832-.463.77-.245-.994-.492.897-.178-1.125-.515-.408c-.305-.46-.297-1.316-.297-1.316l2.426-.019s1.004-.686 1.729-.926c1.452-.482 3.917.116 3.917.116s.853-.385 1.334-.175c.776.341.565 1.137.34 1.514.461 1.456.646 2.86.405 4.017-.202.963-.416 1.403-.692 2.095-.457 1.143.153 1.335.288 2.094.511 2.884-.98 4.486-.98 6.694 0 1.086.531 2.365.672 3.013.255 1.166.096 2.09.788 3.921l.731.98-.139.836-.319-.062.281 4.907 1.504 4.437c-1.569 1.445-3.104 2.565-5.218 3.242l-.623-2.955s.704-.05 1.153-.18c.599-.177.826-.335.826-.335l-.001-.827s-2.376-2.855-3.687-4.944c-.37-.585-.335-1.775-.335-1.775l-.362.007s-.095.501.046 1.115c.147.632.073.667.073.667s-2.025.901-2.904 1.946c-.679.806-1.261 2.393-1.261 2.393-.563 2.005-2.292 4.332-2.292 4.332-2.079-.647-3.509-1.124-5.083-2.52l1.767-2.468s.417.547 1.036.962c.532.357.882.546.882.546s.822-.652.862-1.16c-.04-.479-.606-3.25.001-5.173.703-2.23 1.46-3.426 3.635-4.684.016-.01.234.589.251.578.038-.025.2-.08.239-.106.032-.015-.146-.38-.225-.625 0 0-.534-1.479-.756-3.339.195-.07.778-.38.778-.38l-.159-.391c-2.825.776-5.073 1.708-7.321.907-1.861-.66-3.736-3.433-3.736-3.433l2.469-1.8s.594 1.652 1.499 2.017c1.153.466 5.364-2.415 5.364-2.415s.102-1.006.341-2.24c.367-1.884 2.602-3.084 3.671-3.442 0 0 .884-.516 1-1.273-.577 0-2.324.023-2.767-.292-.454-.32-.263-1.323-.263-1.323l.383.612.328-.559.312.616.372-.565.269.621.372-.566.332.63.306-.571.468.64c.001 0 .186-.624.118-1.02Zm-.833-3.065s.278-.545.607-.639c.561-.154 1.051 1.07 1.051 1.07l-.665-.2s-.006-.435-.272-.52c-.193-.046-.279.335-.279.335l-.442-.046Z" fill="#000"/><path d="M307.319 36.965c-3.068-.723-5.523-2.75-6.745-4.538-.847-1.238-.959-2.373-.959-2.373l2.55-1.859s-.006 1.447.54 2.078c1.616 1.862 5.766 2.969 5.766 2.969-.581.636-1.208 1.92-1.152 3.724Z" fill="#000"/><path fill-rule="evenodd" clip-rule="evenodd" d="m300.127 57.171.885.17-.43-.795.882.169-.431-.797.884.171-.432-.797c.623-.003 1.199.401 1.199.401l-1.803 2.507c-.448-.394-.754-1.029-.754-1.029Z" fill="#000"/><path d="m313.997 61.495.715-.55-.872-.207.716-.55-.875-.206.715-.55-.874-.209c.351-.432 1.097-.633 1.097-.633l.637 3.033c-.817-.02-1.259-.127-1.259-.127Z" fill="#000"/><path fill-rule="evenodd" clip-rule="evenodd" d="M299.127 28.433c.346.183.786.437.786.437l-.167-.89.79.437-.168-.891.79.437-.169-.892c.599.178 1.017.755 1.017.755l-2.481 1.821c.001 0-.121-.675-.398-1.214Zm-1.288 9.687c.309.184.789.437.789.437l-.168-.89.791.438-.169-.892.788.438-.166-.893c.756.295 1.015.755 1.015.755l-2.482 1.822c-.299-.533-.398-1.215-.398-1.215Z" fill="#000"/><path d="M300.433 20.835s.682-.547 1.199-.718c.516-.168.716-.135 1.379-.135 1.161 0 1.721-1.084 2.898-1.162 1.15-.076 1.236.134 2.372.08 1.077-.05 1.528-.551 2.615-.555 1.084.004 1.492.504 2.569.555 1.134.055 1.223-.157 2.371-.08 1.175.079 1.737 1.162 2.899 1.162.663 0 .863-.034 1.377.136.517.17 1.201.718 1.201.718h-20.88Z" fill="#DB352B"/></g><defs><clipPath id="a"><path fill="#fff" d="M.222.391h344v180.442h-344z"/></clipPath></defs></svg>