<svg width="34" height="27" fill="none" xmlns="http://www.w3.org/2000/svg"><path d="M33.722 3.257a13.71 13.71 0 0 1-3.894 1.071A6.806 6.806 0 0 0 32.812.574a13.476 13.476 0 0 1-4.308 1.646A6.774 6.774 0 0 0 23.55.07a6.783 6.783 0 0 0-6.78 6.787c0 .532.055 1.05.174 1.548A19.22 19.22 0 0 1 2.964 1.31a6.8 6.8 0 0 0 2.108 9.064 6.623 6.623 0 0 1-3.082-.847v.084a6.788 6.788 0 0 0 5.443 6.655 6.827 6.827 0 0 1-1.786.238c-.435 0-.862-.042-1.275-.126a6.793 6.793 0 0 0 6.34 4.714 13.598 13.598 0 0 1-10.046 2.81 18.956 18.956 0 0 0 10.381 3.067c12.49 0 19.313-10.346 19.313-19.32 0-.294-.007-.588-.021-.875a13.804 13.804 0 0 0 3.383-3.516Z" fill="#fff"/></svg>