<svg width="40" height="40" viewBox="0 0 40 40" fill="none" xmlns="http://www.w3.org/2000/svg">
<path d="M16.9 16.2C17 16.2 19.4 17.5 21.5 18H21.4C20.9 18.3 19.2001 19 18 18.8C17.4 18.4 16.9 17.9 16 17.9C16 17.8 16 17.6 15.9 17.5C15.7 17.1 15.3 16.7 14.6 16.5C14.6 16.4 14.6 16.2 14.6 16.1C14.5 15.7 14.1 15.4 13.6 15.1C13.6 15.1 13.6 15.1 13.6 15C13.6 14.6 13.2 14.3 12.9 13.9C12.8 13.8 12.6 13.6 12.5 13.5C12.5 13.4 12.4 13.2 12.4 13C12.9 12.9 13.7 12.8 13.9 12.9H14C14.5 13 15.1 13.2 15.5 12.9C15.6 12.9 15.6 12.8 15.7 12.7C16.4 13 17 13.2 17.5 13C17.6 13 17.6 12.9 17.8 12.9C18.2 13.2 18.9 13.7 19.5 13.6C19.6 13.6 19.8 13.6 19.9 13.5C20.9 14.2 21.9 15.8 21.9 17C19.9 16.6 17.4 15.3 17.3 15.3C17 15.2 16.8001 15.3 16.6 15.5C16.6 15.8 16.7 16.1 16.9 16.2ZM20.3 12.6C20.8 12.9 21.3001 13.3 21.7001 13.8C21.4001 9.90004 22.8 6.90004 22.9 6.80004C23 6.60004 23.3 6.50004 23.5 6.60004C23.7001 6.70004 23.9 7.00004 23.8 7.20004C23.8 7.20004 22.2 10.7 22.8 14.9C23.1 14.6 23.4 14.3 24.1 14.1C24.2001 14.1 24.5 14.1 24.6 14.1C24.7001 14.2 24.9 14.3 24.9 14.5C24.9 14.7 25.2 14.6 25.3 14.6C25.5 14.6 25.7 14.6 25.8 14.8C25.9 14.9 25.9 15.1 25.9 15.3C26.4 14.9 26.9001 14.6 27.2001 14.3C28 13.6 28.6 12.3 29 11.4C29 11.3 29 11.2 28.9 11.1C28.7 11 28.6 10.9 28.6 10.8C28.3001 10.4 28.3001 9.90004 28.6 9.30004C28.6 9.20004 28.6 9.10004 28.6 9.00004C28.6 8.90003 28.4 8.80004 28.3 8.60004C28.1 8.20004 28 7.70004 28.3 7.20004C28.3 7.10004 28.3001 6.90004 28.2001 6.80004C28 6.70004 27.9 6.50004 27.9 6.40004C27.7 6.10004 27.7 5.70004 27.9 5.20004C27.9 5.10004 27.9 5.00004 27.8 4.90004C27.2 4.60004 26.9 4.10004 26.8 3.50004C26.8 3.40004 26.7001 3.30004 26.6 3.20004C26.1 2.90004 25.8001 2.30004 25.7001 1.90004C25.7001 1.70004 25.6 1.50004 25.6 1.40004C25.2001 1.20004 25 1.00004 24.9 0.800035H24.8C24.3 1.10004 23.8001 1.50004 23.7001 1.80004C23.3001 2.40004 23.2 2.70004 22.9 2.60004C22.9 2.60004 22.4 2.50004 22.4 2.60004C22.3 3.10004 22.3001 3.60004 21.6 3.60004C21.5 3.60004 21.1 3.50004 21.1 3.70004C21.1 4.30004 21 5.00004 20.4 5.00004C20.3 5.00004 19.9 5.00004 19.9 5.30004C19.9 6.20004 19.7001 6.50004 19.2001 6.80004C19.1 6.80004 18.9 6.80004 18.9 7.00004C19 7.60004 18.9 8.10003 18.4 8.40003C18.4 8.40003 18.3001 8.50004 18.1 8.50004C18.4 9.30004 18.4 9.70004 18.1 10.1C18 10.2 17.8001 10.2 17.6 10.2C17.7001 10.7 17.9001 11.2 18.2001 11.9C18.7001 12.3 19.1 12.6 19.3 12.6C19.6 12.5 20 12.5 20.3 12.6ZM16.4 25.9C16.5 25.9 16.7 25.9 16.9 25.9C16.9 25.9 16.9 25.9 17 25.9C17.4 25.4 17.9 25 18.4 25C18.5 25 18.7 25 18.9 25.1C19.3 24.5 19.8 24.1 20.3 24.1C20.6 24.1 20.8 24.1 20.9 24.2C21.3 23.7 21.9 23.4 22.4 23.4C22.5 23.4 22.7 23.4 22.8 23.5C23.1 22.9 23.4 21.7 23.1 20.8C23 20.8 22.8001 20.7 22.7001 20.7L22.5 20.8C22.2001 21 22.1 21 22 21H21.9C21.1 20.7 20.6 20.3 20.6 19.9C16.7001 20.5 15.7 23.8 15.7 23.9C15.7 24.1 15.4 24.2 15.2 24.2H15.1C14.8 24.2 14.7 23.9 14.7 23.6C14.7 23.5 15.5 21.2 17.8 19.8H17.7001H17.6L17.5 19.7C17.4 19.6 17.2001 19.5 17.1 19.4C16.7001 19.4 16.2 19.6 15.8 19.7C15.6 19.7 15.4 19.8 15.2 19.9C13.8 20.2 13.2 20.5 12.8 20.6C12.8 21.1 12.7 21.8 12.1 22.3C12.4 22.8 12.4 23.4 12.1 24C12.3 24.2 12.5 24.4 12.5 24.7C12.6 25.2 12.6 25.7 12.4 26.2C12.9 26.8 13 27.3 13.2 27.8C14.1 27.4 15 27 15.3 26.7C15.6 26.3 16 26 16.4 25.9ZM34.2001 17.5C33.7001 17.4 33.7001 17.3 33.4001 17.1C33.2001 17 33.2 16.8 33.1 16.7C31.7 16.8 30.3 17 28.3 17.9C28 18 27.8 18.2 27.5 18.4C27.5 18.5 27.4 18.6 27.4 18.7C27.6 18.9 27.7001 19.1 27.7001 19.4C27.7001 19.6 27.7001 19.8 27.5 19.9C27.5 19.9 27.5 19.9 27.4 19.9C31.9 20.9 33.9001 23.1 34 23.1C34.2001 23.3 34.2001 23.6 34 23.8C33.9001 23.9 33.8 23.9 33.7001 23.9C33.5 23.9 33.4 23.9 33.3 23.8C33.3 23.8 30.7 21 24.8 20.5C24.7 20.5 24.4 20.5 24.3 20.5C24.1 20.4 23.8 20.4 23.8 20.4C23.8 20.5 23.8001 20.7 23.7001 20.8C24 21.6 23.9001 22.6 23.7001 23.3C23.7001 25.3 25.1 27.2 25.6 27.9C25.7001 28 25.7 28.1 25.8 28.2C25.9 28.5 26.6 28.9 27.2001 29.3C27.3001 29.3 27.5 29.3 27.5 29.3C27.8 29.1 28.2001 29 28.5 28.9C29 28.9 29.5 29.1 29.8 29.5C29.9 29.6 30 29.6 30.1 29.5C30.3001 29.4 30.5 29.3 30.9 29.3C31.4 29.3 31.7 29.5 31.9 29.8C32 29.9 32.2 29.9 32.3 29.8C32.5 29.7 32.8 29.6 33 29.6C33.5 29.6 34 29.8 34.5 30.1C34.6 30.1 34.7001 30.1 34.8 30.1C35 30 35.3 29.8 35.6 29.8C36.1 29.8 36.5 29.9 36.9001 30.1C37.1001 30 37.4001 29.9 37.9001 30C38.2001 30.1 39.1001 29.9 39.9001 29.7C40 29.7 40.1 29.6 40.1 29.5C40.1 28.7 40 27.8 39.7001 27.4C39 26.5 39 26 39.1 25.7C39.1 25.5 39.2001 25.4 39.3 25.2C38.8 24.4 38.8 23.8 39 23.3C39 23.2 39 23.1 39 23C38.7001 22.7 38.2001 22.2 38.2001 21.7C38.2001 21.6 38.2001 21.4 38.2001 21.3C37.6001 21 37.1001 20.5 36.9001 20C36.8001 19.8 36.7001 19.5 36.8 19.3C36.8 19.2 36.8 19.1 36.6 19C35.6 18.6 35.2 17.9 35.1 17.5C34.8 17.5 34.6001 17.4 34.4001 17.4L34.2001 17.5ZM25.5 16.7C25.1 16.5 24.9 16.1 24.8 15.7C24.4 15.7 24.2001 15.5 24 15.2C23.3 15.5 23.3 16.3 23.4 17C23.4 17.3 23.4 17.5 23.4 17.7C23.3 17.9 23.1 18 22.8 18.2C22.5 18.4 21.5 19.2 21.5 19.5C21.5 19.5 21.6 19.6 21.8 19.7C21.8 19.7 21.9 19.7 21.9 19.6C22 19.6 22.1 19.5 22.3 19.5C22.5 19.5 22.7 19.6 22.8 19.6C22.9 19.6 23 19.7 23.1 19.7C23.1 19.5 23.3 19.4 23.4 19.3C23.7 19.1 24 19.1 24.4 19.2C24.4 19.1 24.5 19.1 24.6 19C25 18.8 25.4001 18.9 25.7001 19C25.7001 19 25.7 18.9 25.8 18.9C25.9 18.8 26.2 18.8 26.3 18.8C26.1 18.5 25.8 18 25.8 17.7C25.7 17.5 25.4 17.2 25.5 16.7ZM16.8 9.70004C16.5 10.1 16.8001 11 17.2001 11.9C17.2001 12 17.2001 12.1 17 12.1C16.7001 12.1 16.3 12 16 11.8C15.9 11.8 15.7 11.8 15.6 11.8L15 12.2C14.8 12.2 14.5 12.2 14.3 12.2H14.2C13.4 12 11.9 12.4 11.6 12.5L11.2 12.6L11.3 13C11.3 13 11.4 13.5 11.6 14C10.5 14 8.60005 13.7 6.70005 12.2C6.60005 12 6.20005 12 6.10005 12.3C5.90005 12.5 5.90005 12.8 6.20005 13C8.50005 14.7 10.8 15 11.9 15C12.2 15 12.4 15 12.5 15L12.6 15.1C12.6 15.2 12.5 15.3 12.6 15.5C12.6 15.7 12.7 15.8 13 15.9C13.6 16.2 13.8 16.4 13.8 16.5C13.8 16.5 13.8 16.5 13.8 16.6C13.7 16.7 13.7 16.9 13.8 17.1C13.8 17.2 14 17.4 14.2 17.4C14.8 17.6 15.2 17.9 15.2 18.1C15.2 18.2 15.2 18.2 15.2 18.3C15.1 18.5 15.2 18.7 15.3 18.9L15.4 19C15.3 19 15.2 19 15.1 19.1C13.2 19.6 12.5 19.9 12.2 20.1C12.1 20.1 12 20.2 12 20.3C11.9 20.4 11.9 20.6 12 20.7C12 20.8 12 21 12 21.2C11.9 21.2 11.7 21.2 11.6 21.2C10.7 21.2 9.40005 21.1 8.80005 20.3L8.50005 19.9L8.90005 19.6C9.00005 19.5 9.00005 19.5 9.00005 19.5C8.90005 19.4 8.30005 19 7.10005 18.9C6.90005 18.9 6.70005 18.8 6.70005 18.6C6.60005 18.4 6.60005 18.2 6.80005 18C6.90005 17.8 6.90005 17.7 6.90005 17.7C6.80005 17.6 6.50005 17.4 5.00005 17.2C4.80005 17.2 4.60005 17.1 4.60005 16.9C4.50005 16.7 4.50005 16.5 4.70005 16.4C4.80005 16.3 4.80005 16.2 4.80005 16.1C4.80005 15.9 4.60005 15.6 3.10005 15.3C2.90005 15.3 2.80005 15.1 2.70005 14.9C2.60005 14.7 2.70005 14.5 2.90005 14.4C3.10005 14.3 3.10005 14.2 3.10005 14.2C3.00005 14.1 2.80005 13.8 1.30005 13.2C1.10005 13.1 1.00005 13 1.00005 12.8C1.00005 12.5 1.30005 12.3 1.40005 12.2C1.50005 12.2 1.60005 12.1 1.70005 12C1.60005 11.9 1.40005 11.6 1.30005 11.4C0.900049 10.9 0.300049 10.2 0.300049 9.50004V9.20004L0.600049 9.10004C1.00005 8.90004 1.60005 8.80004 2.20005 8.80004C3.10005 8.70004 3.60005 8.60004 3.60005 8.30004C3.60005 8.30004 3.70005 7.90004 3.80005 7.80004C3.90005 7.80004 4.30005 7.80004 4.30005 7.80004C5.40005 8.10004 6.20005 8.00004 6.50005 7.80004C6.60005 7.70004 6.60005 7.70004 6.60005 7.60004L6.90005 7.20004C7.00005 7.10004 7.30005 7.20004 7.40005 7.20004C8.00005 7.60004 8.80005 7.70004 9.30005 7.50004C9.20005 7.40004 9.40005 7.30004 9.40005 7.00004C9.40005 7.00004 9.70005 6.70004 9.80005 6.60004C9.90005 6.50004 10.2 6.60004 10.3 6.70004C11.2 7.40003 11.8 7.60004 12.2 7.50004C12.3 7.50004 12.4 7.50004 12.5 7.30004C12.5 7.30004 12.7 7.00004 12.9 7.00004C13 6.90004 13.4 7.10004 13.5 7.30004C14 8.00004 14.5 8.30004 14.7 8.30004C14.7 8.30004 14.9 8.30004 15.1 8.10004C15.1 8.10004 15.2 7.80004 15.4 7.80004C15.6 7.80004 15.8 7.90003 15.8 7.90003C16.2 8.00004 16.8 8.50004 17.4 9.00004C17.4 9.20004 17.5 9.40004 17.5 9.60004C17.2001 9.50004 16.9 9.50004 16.8 9.70004ZM39.8 7.80004C39.8 7.70004 39.6 7.50004 39.5 7.40004C39.1 7.20004 39.1 6.30004 39.5 5.30004C39.6 5.20004 39.6 5.00004 39.5 4.80004C39.4001 4.70004 39.2 4.50004 39.1 4.50004C38.6 4.40004 38.5 4.30003 38.4001 4.20004C38.3001 4.10004 38.2 3.70004 38.6 2.80004C38.7 2.50004 38.6 2.20004 38.3 2.10004C37.9 2.00004 37.8 1.40004 37.8 0.800035C37.8 0.400035 37.8001 0.100035 37.4001 -0.0999647C37.3001 -0.0999647 37.1001 -0.199965 36.9001 -0.0999647C36.3001 0.100035 35.5 0.300035 35.1 3.5271e-05C34.9 -0.0999647 34.6001 -0.0999647 34.4001 3.5271e-05C33.6001 0.400035 32.9 0.400035 32.3 3.5271e-05C32 -0.0999647 31.6 3.52561e-05 31.4 0.100035C30.6 0.900035 29.7001 1.20004 29.1 0.900035C28.8001 0.700035 28.5 0.700035 28.3 0.900035C27.9 1.20004 27.3 1.90004 26.8 2.40004C26.8 2.40004 26.8 2.40004 26.9 2.40004C27 2.40004 27.3 2.40004 27.4 2.50004C27.5 2.60004 27.6 2.80004 27.5 2.90004C27.5 3.60004 27.7 3.90004 28.4 4.00004C28.6 4.00004 28.7001 4.10004 28.7001 4.30004C28.7001 4.40004 28.8001 4.60004 28.7001 4.70004C28.5 5.20004 28.4 5.60004 28.5 5.80004C28.5 5.90004 28.6 6.00004 28.8 6.10004C29 6.10004 29.1 6.30004 29.1 6.40004C29.1 6.50004 29.1 6.70004 29.1 6.80004C28.8001 7.30004 28.8 7.80003 28.9 7.90003C28.9 8.00004 29.1 8.00004 29.2001 8.10004C29.4001 8.10004 29.5 8.20004 29.7001 8.40003C29.8001 8.50004 29.8001 8.70004 29.7001 8.90003C29.2001 9.70004 29.3 10 29.4 10C29.4 10 29.4 10 29.6 10C29.8001 10 29.9 10 30.1 10.2C30.2001 10.3 30.3001 10.5 30.2001 10.7C29.9001 11.7 29.1 13.6 27.9 14.7C27.6 15 27.2001 15.3 26.6 15.7C26.6 15.7 26.6 15.7 26.7001 15.8C26.7001 15.9 26.7001 16.1 26.7001 16.2C26.6 16.4 26.6 16.4 27.1 16.7L27.3 16.8C27.6 16.6 27.8001 16.5 28.1 16.4C30.4 15.3 32 15.2 33.7001 15.1C33.9001 15.1 34 15.1 34.2001 15.3C34.3 15.4 34.4001 15.6 34.4001 15.8C34.4001 15.8 34.4001 15.8 34.4001 15.9C34.5 16 34.7001 16.1 34.9001 16.1C35.2001 16.1 35.4 16.2 35.8 16.2C36 16.2 36.1 16.2 36.3 16.4C36.3 16.4 36.3001 16.5 36.4001 16.5C36.9001 16.1 37.4001 15.5 37.7001 15.3C37.8 15.2 37.9 15 37.8 14.9C37.8 14.8 37.7001 14.6 37.5 14.5C37.3 14.4 37.3 14.3 37.3 14.3C37.3 14 37.8 13.4 38.6 13C38.8 12.9 38.9001 12.8 38.9001 12.6C38.9001 12.4 38.9001 12.2 38.7001 12.1C38.4001 11.9 38.4001 11.7 38.4001 11.5C38.4001 11.2 38.9 10.8 39.6 10.3C39.8 10.2 39.9001 10 39.9001 9.80004C39.9001 9.60004 39.8 9.40004 39.6 9.30004C39.1 9.80004 39 9.70004 39 9.60004C39 9.30004 39.2 8.80004 39.6 8.30004C39.8 8.20004 39.8 8.00004 39.8 7.80004ZM25.6 29.3C25.4 30.7 24.7 32.2 23.9 33.2C23.8 33.3 23.5 33.4 23.4 33.4C23.2 33.4 23 33.3 23 33.1C22.7001 33.3 22.1 34 21.5 35.3C21.4 35.5 21.2001 35.6 21 35.6C20.8 35.6 20.6 35.5 20.5 35.3C20.3 35.2 20.3001 35.2 20.2001 35.2C19.8001 35.2 19 35.8 18.4 36.9C18.2 37 18 37.1 17.7001 37C17.4001 37 17.3001 36.8 17.2001 36.6V36.5C16.9001 36.5 16 37.3 15.4 37.7C15 38 14.6 38.3 14.3 38.6C14.2 38.7 13.9 38.7 13.8 38.6C13.6 38.6 13.5 38.4 13.4 38.2C13.4 38 13.3 37.9 13.3 37.9C13.1 37.9 12.4 38.3 12 38.6C11.7 38.8 11.5 39 11.2 39.1C11.1 39.2 10.9 39.2 10.7 39.1C10.6 39.1 10.4 38.9 10.3 38.8C10.2 38.7 10.2 38.7 10.2 38.6C10 38.7 9.40005 39 9.00005 39.2C8.60005 39.4 8.00005 39.7 7.40005 39.9C7.30005 39.9 7.00005 39.9 6.90005 39.9C6.80005 39.8 6.60005 39.7 6.60005 39.5C6.30005 39.5 5.50005 39.6 5.10005 39.7C4.70005 39.9 4.20005 40 3.70005 40C3.60005 40 3.50005 40 3.40005 40H3.00005V39.6C3.00005 39.3 3.10005 39 3.20005 38.6C3.40005 37.9 3.60005 37.2 3.20005 36.7C3.00005 36.5 3.00005 36.2 3.20005 36.1C3.50005 35.8 4.20005 34.7 3.60005 33.9C3.40005 33.7 3.40005 33.3 3.70005 33.1C4.20005 32.7 5.00005 31.7 4.50005 30.6C4.40005 30.4 4.40005 30 4.70005 29.9C5.80005 29.3 6.00005 28.8 5.80005 27.5C5.50005 27.3 5.70005 27 6.00005 26.9C7.40005 26.5 7.60005 26 7.70005 25.8C7.80005 25.6 7.60005 25.4 7.60005 25.4C7.50005 25.3 7.40005 25.1 7.50005 24.9C7.60005 24.7 7.60005 24.1 11.4 22.7C11.5 22.9 11.5 23.3 11.3 23.8C11.3 23.8 11.3 23.8 11.2 23.9C11 24 10.9 24.1 11 24.2C11.1 24.3 11.1 24.5 11.4 24.5C11.5 24.5 11.5 24.5 11.6 24.8C11.7 25.1 11.6 25.5 11.5 25.7C11.4 25.9 11.4 26.2 11.5 26.4C12.2 27.3 12.3 28 12.4 28.2C12.4 28.4 12.5 28.5 12.7 28.6C12.8 28.6 12.9 28.7 13 28.7C13.1 28.7 13.1 28.7 13.3 28.7C13.6 28.6 14.2 28.3 14.8 28C13.2 29.8 11.4 31.3 11.4 31.3C11.2 31.5 11.2 31.8 11.4 32C11.5 32.1 11.7 32.1 11.8 32.1C11.9 32.1 12.1 32.1 12.2 32C12.3 31.9 15.4001 29.1 17.2001 26.8C17.3001 26.9 17.5 27 17.7001 27H18.1L18.2001 26.7C18.5 26.2 18.8 25.9 19 25.9C19 25.9 19 25.9 19.1 26C19.2001 26.2 19.4 26.3 19.6 26.3C19.9 26.3 20 26.2 20.1 26C20.4 25.4 20.7001 25 21 25C21 25 21.1 25 21.1 25.1C21.2001 25.3 21.4 25.4 21.6 25.4C21.8001 25.4 22 25.3 22.1 25.1C22.3001 24.6 22.7 24.4 22.9 24.4C22.9 24.6 23.1 24.7 23.3 24.7H23.6C23.9 26.1 25.4 28.3 25.5 28.4C25.5 28.5 25.6 28.6 25.6 28.6C25.2001 28.9 25.3001 29.1 25.6 29.3Z" fill="white"/>
</svg>
