<svg xmlns="http://www.w3.org/2000/svg" viewBox="0 0 60.2 61.32"><defs><style>.cls-1{fill:#fff;fill-rule:evenodd;}</style></defs><title>Ресурс 3</title><g id="Слой_2" data-name="Слой 2"><g id="_20" data-name="20"><path class="cls-1" d="M8.82,9A29.69,29.69,0,0,1,51.38,9a31,31,0,0,1,0,43.35,30.15,30.15,0,0,1-21.28,9,30.14,30.14,0,0,1-21.28-9A31,31,0,0,1,8.82,9Zm4.54,38.72a23.41,23.41,0,0,0,33.46,0,25,25,0,0,0,6.91-17,24.63,24.63,0,0,0-6.91-17,23.4,23.4,0,0,0-33.46,0,24.23,24.23,0,0,0-6.91,17A24.57,24.57,0,0,0,13.37,47.71Z"/><path class="cls-1" d="M33.56,17.69,21.28,30.39a.35.35,0,0,0,0,.55l12.28,12.6a.56.56,0,0,0,.55,0l2.73-2.78-9.64-9.82a.35.35,0,0,1,0-.55l9.64-9.82L34.1,17.69a.57.57,0,0,0-.55,0Z"/></g></g></svg>