<svg xmlns="http://www.w3.org/2000/svg" viewBox="0 0 54.73 54.73"><defs><style>.cls-1{fill:#fff;fill-rule:evenodd;}</style></defs><title>Ресурс 2</title><g id="Слой_2" data-name="Слой 2"><g id="_20" data-name="20"><path class="cls-1" d="M46.71,8A27.36,27.36,0,1,0,8,46.71a27.35,27.35,0,0,0,38.69,0,27.34,27.34,0,0,0,0-38.7ZM42.58,42.58a21.56,21.56,0,0,1-30.43,0A22.09,22.09,0,0,1,5.87,27.37a21.78,21.78,0,0,1,6.29-15.21A21.51,21.51,0,0,1,42.58,42.58Z"/><path class="cls-1" d="M24.22,15.79,35.39,27.12a.31.31,0,0,1,0,.5L24.22,38.86a.52.52,0,0,1-.5,0l-2.48-2.48L30,27.62a.31.31,0,0,0,0-.5l-8.76-8.76,2.48-2.57a.52.52,0,0,1,.5,0Z"/></g></g></svg>