<svg id="Layer_1" data-name="Layer 1" xmlns="http://www.w3.org/2000/svg" xmlns:xlink="http://www.w3.org/1999/xlink" viewBox="0 0 160 19.14"><defs><style>.cls-1{fill:url(#Pewter);}.cls-2{fill:url(#Pewter-2);}.cls-3{fill:url(#Pewter-3);}.cls-4{fill:url(#Pewter-4);}.cls-5{fill:url(#Pewter-5);}.cls-6{fill:url(#Pewter-6);}.cls-7{fill:url(#Pewter-7);}.cls-8{fill:url(#Pewter-8);}.cls-9{fill:url(#Pewter-9);}.cls-10{fill:url(#Pewter-10);}.cls-11{fill:url(#Pewter-11);}.cls-12{fill:url(#Pewter-12);}.cls-13{fill:url(#Pewter-13);}.cls-14{fill:url(#Pewter-14);}.cls-15{fill:url(#Pewter-15);}.cls-16{fill:url(#Pewter-16);}.cls-17{fill:url(#Pewter-17);}.cls-18{fill:url(#Pewter-18);}.cls-19{fill:url(#Lead);}.cls-20{fill:url(#Lead-2);}.cls-21{fill:url(#Lead-3);}.cls-22{fill:url(#Lead-4);}.cls-23{fill:url(#Lead-5);}.cls-24{fill:url(#Lead-6);}.cls-25{fill:url(#Lead-7);}.cls-26{fill:url(#Lead-8);}.cls-27{fill:url(#Lead-9);}.cls-28{fill:url(#Lead-10);}.cls-29{fill:url(#Lead-11);}.cls-30{fill:url(#Lead-12);}.cls-31{fill:url(#Lead-13);}.cls-32{fill:url(#Lead-14);}.cls-33{fill:url(#Lead-15);}.cls-34{fill:url(#Lead-16);}.cls-35{fill:url(#Lead-17);}.cls-36{fill:url(#Lead-18);}.cls-37,.cls-38,.cls-39,.cls-40,.cls-41,.cls-42,.cls-43,.cls-44,.cls-45,.cls-46,.cls-47,.cls-48,.cls-49,.cls-50,.cls-51,.cls-52,.cls-53,.cls-54,.cls-56,.cls-57{stroke:#bcbec0;stroke-miterlimit:10;}.cls-37,.cls-38,.cls-39,.cls-40,.cls-41,.cls-42,.cls-43,.cls-44,.cls-56{stroke-width:0.29px;}.cls-37{fill:url(#Lead-19);}.cls-38{fill:url(#Lead-20);}.cls-39{fill:url(#Lead-21);}.cls-40{fill:url(#Lead-22);}.cls-41{fill:url(#Lead-23);}.cls-42{fill:url(#Lead-24);}.cls-43{fill:url(#Lead-25);}.cls-44{fill:url(#Lead-26);}.cls-45,.cls-46,.cls-47,.cls-48,.cls-49,.cls-50,.cls-51,.cls-52,.cls-53,.cls-54,.cls-57{stroke-width:0.14px;}.cls-45{fill:url(#Lead-27);}.cls-46{fill:url(#Lead-28);}.cls-47{fill:url(#Lead-29);}.cls-48{fill:url(#Lead-30);}.cls-49{fill:url(#Lead-31);}.cls-50{fill:url(#Lead-32);}.cls-51{fill:url(#Lead-33);}.cls-52{fill:url(#Lead-34);}.cls-53{fill:url(#Lead-35);}.cls-54{fill:url(#Lead-36);}.cls-55{opacity:0.2;}.cls-56,.cls-57{fill:#2c2d2d;}.cls-58{opacity:0.15;}.cls-59{fill:#231f20;}</style><linearGradient id="Pewter" x1="115.43" y1="18.7" x2="115.43" y2="3.21" gradientUnits="userSpaceOnUse"><stop offset="0.03" stop-color="#9b9b98"/><stop offset="0.13" stop-color="#a4a5a7"/><stop offset="0.22" stop-color="#aeb0b7"/><stop offset="0.35" stop-color="#9fa3aa"/><stop offset="0.61" stop-color="#788187"/><stop offset="0.72" stop-color="#657076"/><stop offset="1" stop-color="#8b949a"/></linearGradient><linearGradient id="Pewter-2" x1="2.67" y1="18.84" x2="2.67" y2="0.43" xlink:href="#Pewter"/><linearGradient id="Pewter-3" x1="97.67" y1="19.41" x2="97.67" y2="2.48" xlink:href="#Pewter"/><linearGradient id="Pewter-4" x1="16.77" y1="18.7" x2="16.77" y2="3.21" xlink:href="#Pewter"/><linearGradient id="Pewter-5" x1="34.33" y1="18.7" x2="34.33" y2="3.21" xlink:href="#Pewter"/><linearGradient id="Pewter-6" x1="50.92" y1="19.57" x2="50.92" y2="2.4" xlink:href="#Pewter"/><linearGradient id="Pewter-7" x1="66.84" y1="19.05" x2="66.84" y2="2.94" xlink:href="#Pewter"/><linearGradient id="Pewter-8" x1="81.89" y1="18.7" x2="81.89" y2="2.36" xlink:href="#Pewter"/><linearGradient id="Pewter-9" x1="129.64" y1="9.74" x2="129.64" y2="3.26" xlink:href="#Pewter"/><linearGradient id="Pewter-10" x1="137.84" y1="9.74" x2="137.84" y2="3.26" xlink:href="#Pewter"/><linearGradient id="Pewter-11" x1="145" y1="9.74" x2="145" y2="3.26" xlink:href="#Pewter"/><linearGradient id="Pewter-12" x1="150.98" y1="9.74" x2="150.98" y2="3.26" xlink:href="#Pewter"/><linearGradient id="Pewter-13" x1="156.67" y1="9.74" x2="156.67" y2="3.18" xlink:href="#Pewter"/><linearGradient id="Pewter-14" x1="129.54" y1="18.17" x2="129.54" y2="11.71" xlink:href="#Pewter"/><linearGradient id="Pewter-15" x1="136.69" y1="18.03" x2="136.69" y2="11.84" xlink:href="#Pewter"/><linearGradient id="Pewter-16" x1="143.45" y1="18.17" x2="143.45" y2="11.7" xlink:href="#Pewter"/><linearGradient id="Pewter-17" x1="150.87" y1="18.17" x2="150.87" y2="11.84" xlink:href="#Pewter"/><linearGradient id="Pewter-18" x1="157.53" y1="18.03" x2="157.53" y2="11.84" xlink:href="#Pewter"/><linearGradient id="Lead" x1="115.43" y1="18.54" x2="115.43" y2="3.37" gradientUnits="userSpaceOnUse"><stop offset="0.01" stop-color="#c4c6c8"/><stop offset="0.36" stop-color="#939598"/><stop offset="0.59" stop-color="#a2a4a7"/><stop offset="0.65" stop-color="#a7a9ac"/><stop offset="0.87" stop-color="#a9abae"/><stop offset="1" stop-color="#a7a9ac"/><stop offset="1" stop-color="#d1d3d4"/></linearGradient><linearGradient id="Lead-2" x1="2.67" y1="18.69" x2="2.67" y2="0.59" xlink:href="#Lead"/><linearGradient id="Lead-3" x1="97.67" y1="19.26" x2="97.67" y2="2.63" xlink:href="#Lead"/><linearGradient id="Lead-4" x1="16.77" y1="18.54" x2="16.77" y2="3.37" xlink:href="#Lead"/><linearGradient id="Lead-5" x1="34.33" y1="18.54" x2="34.33" y2="3.37" xlink:href="#Lead"/><linearGradient id="Lead-6" x1="50.92" y1="19.41" x2="50.92" y2="2.55" xlink:href="#Lead"/><linearGradient id="Lead-7" x1="66.86" y1="18.9" x2="66.86" y2="3.09" xlink:href="#Lead"/><linearGradient id="Lead-8" x1="81.89" y1="18.54" x2="81.89" y2="2.52" xlink:href="#Lead"/><linearGradient id="Lead-9" x1="129.64" y1="9.62" x2="129.64" y2="3.39" xlink:href="#Lead"/><linearGradient id="Lead-10" x1="137.84" y1="9.62" x2="137.84" y2="3.39" xlink:href="#Lead"/><linearGradient id="Lead-11" x1="145" y1="9.62" x2="145" y2="3.39" xlink:href="#Lead"/><linearGradient id="Lead-12" x1="150.98" y1="9.62" x2="150.98" y2="3.39" xlink:href="#Lead"/><linearGradient id="Lead-13" x1="156.67" y1="9.62" x2="156.67" y2="3.3" xlink:href="#Lead"/><linearGradient id="Lead-14" x1="129.54" y1="18.05" x2="129.54" y2="11.83" xlink:href="#Lead"/><linearGradient id="Lead-15" x1="136.69" y1="17.91" x2="136.69" y2="11.96" xlink:href="#Lead"/><linearGradient id="Lead-16" x1="143.45" y1="18.05" x2="143.45" y2="11.82" xlink:href="#Lead"/><linearGradient id="Lead-17" x1="150.87" y1="18.05" x2="150.87" y2="11.96" xlink:href="#Lead"/><linearGradient id="Lead-18" x1="157.53" y1="17.91" x2="157.53" y2="11.96" xlink:href="#Lead"/><linearGradient id="Lead-19" x1="115.35" y1="18.46" x2="115.35" y2="3.45" xlink:href="#Lead"/><linearGradient id="Lead-20" x1="2.59" y1="18.61" x2="2.59" y2="0.67" xlink:href="#Lead"/><linearGradient id="Lead-21" x1="97.75" y1="19.18" x2="97.75" y2="2.71" xlink:href="#Lead"/><linearGradient id="Lead-22" x1="16.69" y1="18.46" x2="16.69" y2="3.45" xlink:href="#Lead"/><linearGradient id="Lead-23" x1="34.25" y1="18.46" x2="34.25" y2="3.45" xlink:href="#Lead"/><linearGradient id="Lead-24" x1="50.84" y1="19.33" x2="50.84" y2="2.64" xlink:href="#Lead"/><linearGradient id="Lead-25" x1="66.79" y1="18.82" x2="66.79" y2="3.17" xlink:href="#Lead"/><linearGradient id="Lead-26" x1="81.81" y1="18.46" x2="81.81" y2="2.6" xlink:href="#Lead"/><linearGradient id="Lead-27" x1="129.64" y1="9.54" x2="129.64" y2="3.47" xlink:href="#Lead"/><linearGradient id="Lead-28" x1="137.83" y1="9.54" x2="137.83" y2="3.47" xlink:href="#Lead"/><linearGradient id="Lead-29" x1="145" y1="9.54" x2="145" y2="3.47" xlink:href="#Lead"/><linearGradient id="Lead-30" x1="150.98" y1="9.54" x2="150.98" y2="3.47" xlink:href="#Lead"/><linearGradient id="Lead-31" x1="156.67" y1="9.54" x2="156.67" y2="3.38" xlink:href="#Lead"/><linearGradient id="Lead-32" x1="129.54" y1="17.97" x2="129.54" y2="11.91" xlink:href="#Lead"/><linearGradient id="Lead-33" x1="136.69" y1="17.83" x2="136.69" y2="12.04" xlink:href="#Lead"/><linearGradient id="Lead-34" x1="143.45" y1="17.97" x2="143.45" y2="11.9" xlink:href="#Lead"/><linearGradient id="Lead-35" x1="150.87" y1="17.97" x2="150.87" y2="12.04" xlink:href="#Lead"/><linearGradient id="Lead-36" x1="157.53" y1="17.83" x2="157.53" y2="12.04" xlink:href="#Lead"/></defs><title>IMG_logo</title><path class="cls-1" d="M117.34,18.7V18l.11,0a1.23,1.23,0,0,0,.46-.21.32.32,0,0,0,.12-.25,2.09,2.09,0,0,0-.1-.27h0a3.89,3.89,0,0,0-.24-.5l-2.42-3.87-.21-.35h-3.18v4.56c0,.32,0,.52.12.61h0c0,.07.17.17.52.26l.12,0v.73h-5.1V18l.12,0a1,1,0,0,0,.51-.24,1.18,1.18,0,0,0,.12-.64V4.85c0-.42-.08-.57-.12-.61a.86.86,0,0,0-.51-.27l-.12,0V3.21h9.14A6.86,6.86,0,0,1,121,4.41a4,4,0,0,1,1.54,3.35,4.5,4.5,0,0,1-1,3,5.35,5.35,0,0,1-2.67,1.57l2.52,3.94a4,4,0,0,0,.71.87,7.48,7.48,0,0,0,1.18.85l.07,0v.7Zm-1.75-9.29a6.36,6.36,0,0,0,2.57-.4,1.28,1.28,0,0,0,.78-1.21,1.2,1.2,0,0,0-.76-1.13,6.61,6.61,0,0,0-2.73-.4h-3.58V9.41Z" transform="translate(0 -0.43)"/><path class="cls-2" d="M0,18.84v-.71l.11,0a1.5,1.5,0,0,0,.54-.25,1.5,1.5,0,0,0,.09-.61V2a1.23,1.23,0,0,0-.11-.63,1.06,1.06,0,0,0-.51-.23L0,1.15V.43H5.35v.72l-.12,0a.94.94,0,0,0-.5.24A1.13,1.13,0,0,0,4.61,2v15.2a1.08,1.08,0,0,0,.12.61,1.35,1.35,0,0,0,.51.27l.11,0v.69Z" transform="translate(0 -0.43)"/><path class="cls-3" d="M97.63,19.41a8.26,8.26,0,0,1-8.49-8.47,8.21,8.21,0,0,1,8.49-8.46h0a8.32,8.32,0,0,1,6.11,2.39,8.18,8.18,0,0,1,2.42,6.07A8.24,8.24,0,0,1,103.78,17a8.47,8.47,0,0,1-6.11,2.41h0ZM97.63,6a4.35,4.35,0,0,0-3.36,1.38A5.07,5.07,0,0,0,93,10.94a5.05,5.05,0,0,0,1.31,3.62,4.45,4.45,0,0,0,3.4,1.37,4.4,4.4,0,0,0,3.4-1.39,5.08,5.08,0,0,0,1.31-3.6,5.09,5.09,0,0,0-1.31-3.61A4.5,4.5,0,0,0,97.67,6Z" transform="translate(0 -0.43)"/><path class="cls-4" d="M19.64,18.7V18l.11,0a1,1,0,0,0,.41-.18.32.32,0,0,0,.11-.19.25.25,0,0,0,0-.13l0,0v0a.33.33,0,0,0-.1-.15L12.56,8.83v8.23a1,1,0,0,0,.12.61h0a.92.92,0,0,0,.53.26l.11,0v.73H8.69V18l.12,0a1,1,0,0,0,.51-.24,1.3,1.3,0,0,0,.11-.64V4.85c0-.4-.06-.56-.11-.61h0A.89.89,0,0,0,8.81,4l-.12,0V3.21h5.53v.73l-.11,0a1,1,0,0,0-.38.19.19.19,0,0,0-.08.18.3.3,0,0,0,0,.11h0a.8.8,0,0,0,.15.2l7.14,8V4.89a1.28,1.28,0,0,0-.13-.66A1.08,1.08,0,0,0,20.31,4l-.12,0V3.21h4.66v.73l-.11,0a.85.85,0,0,0-.51.26,1.14,1.14,0,0,0-.13.66V17.06a1.15,1.15,0,0,0,.13.64,1,1,0,0,0,.51.24l.11,0v.73Z" transform="translate(0 -0.43)"/><path class="cls-5" d="M31.49,18.7V18l.09,0a1.57,1.57,0,0,0,.54-.3h0a.49.49,0,0,0,.14-.36,1.31,1.31,0,0,0,0-.22,3.08,3.08,0,0,0-.11-.36l-4.63-11,0,0h0c-.4-1-.85-1.53-1.34-1.67l-.12,0V3.21h5.81v.72l-.09,0a1.45,1.45,0,0,0-.56.32h0a.46.46,0,0,0-.11.34,1.42,1.42,0,0,0,0,.31.87.87,0,0,0,.08.26l3.4,8,3.27-8a.78.78,0,0,0,.09-.27,1.42,1.42,0,0,0,0-.31.43.43,0,0,0-.12-.34h0A1.37,1.37,0,0,0,37.24,4l-.1,0V3.21h5.52v.72l-.11,0a2.32,2.32,0,0,0-1.33,1.51l0,.1,0,0v0l-4.52,11a2.68,2.68,0,0,0-.07.27h0a.49.49,0,0,1,0,.12s0,.09,0,.14a.47.47,0,0,0,.13.36h0a1.5,1.5,0,0,0,.58.34l.09,0v.71Z" transform="translate(0 -0.43)"/><path class="cls-6" d="M57.37,19.57l0-.13a1.22,1.22,0,0,0-.24-.61.74.74,0,0,0-.52-.13H43.79V18l.12,0a.85.85,0,0,0,.52-.26h0a1,1,0,0,0,.14-.61V4.85a1,1,0,0,0-.14-.61h0A.85.85,0,0,0,43.91,4l-.12,0V3.21H56.25c.38,0,.5-.07.54-.11a1.4,1.4,0,0,0,.2-.57l0-.13h.7v5H57l0-.13a1.41,1.41,0,0,0-.21-.61c-.08-.08-.25-.11-.53-.11H48.13V9.31H53c.3,0,.48,0,.54-.11a1.58,1.58,0,0,0,.23-.61l0-.11.69,0V13.1h-.69l0-.13a1.09,1.09,0,0,0-.23-.59.75.75,0,0,0-.53-.13H48.13v3.11h8.46a.86.86,0,0,0,.52-.11,1.29,1.29,0,0,0,.24-.62l0-.12h.68v5.06Z" transform="translate(0 -0.43)"/><path class="cls-7" d="M66.89,19.05a12.06,12.06,0,0,1-5.61-1.38,1.82,1.82,0,0,0-.55-.24.23.23,0,0,0-.11,0h0l-.07.14,0,.13-.73-.23,1.59-4.09.81.41L62,14s0,0,0,0a.66.66,0,0,0,0,.15c0,.18.2.55,1.54,1.11a8.7,8.7,0,0,0,3.29.66,5.91,5.91,0,0,0,2.7-.52,1.45,1.45,0,0,0,1-1.27c0-.74-1.12-1.18-3.32-1.31l-1.7-.12-.46,0a6.21,6.21,0,0,1-3.65-1.34,4,4,0,0,1-1.24-3.11,4.73,4.73,0,0,1,1.82-3.85,7.5,7.5,0,0,1,4.76-1.44,10.14,10.14,0,0,1,4,.86l.24.08.14.05a2.06,2.06,0,0,1,.83.35,1.87,1.87,0,0,0,.84.34.21.21,0,0,0,.1,0h0a.7.7,0,0,0,.2-.16l.08-.08.59.29L72,8.69l-.68-.41V8.19a.19.19,0,0,1,0-.08V8c0-.26-.26-.69-1.46-1.29A7.29,7.29,0,0,0,66.73,6a5.36,5.36,0,0,0-2.4.46c-.58.29-.87.64-.87,1.07,0,.67.87,1.06,2.57,1.15a30.15,30.15,0,0,1,3.34.38,6.42,6.42,0,0,1,3.41,1.63,4.19,4.19,0,0,1,1.13,3,4.69,4.69,0,0,1-2,3.86A8.25,8.25,0,0,1,66.89,19.05Z" transform="translate(0 -0.43)"/><path class="cls-8" d="M79.34,18.7V18l.11,0A1.1,1.1,0,0,0,80,17.7a1.27,1.27,0,0,0,.11-.64V6.55H76.3a.88.88,0,0,0-.53.12,1.8,1.8,0,0,0-.25.62l0,.11h-.67v-5h.7l0,.13a1.08,1.08,0,0,0,.23.6.88.88,0,0,0,.53.12H87.44A.79.79,0,0,0,88,3.08h0s.15-.17.24-.59l0-.12H89v5h-.69l0-.13A1.28,1.28,0,0,0,88,6.68s-.18-.13-.57-.13H83.68V17.06a1.1,1.1,0,0,0,.13.64,1,1,0,0,0,.52.24l.12,0v.73Z" transform="translate(0 -0.43)"/><path class="cls-9" d="M130.63,9.74V9.19h.12l.37,0a.86.86,0,0,0,.28-.06.53.53,0,0,0,.15-.15.41.41,0,0,0,0-.21V4.84l-.06,0-1.93,4.82h-.38l-1.82-4.86h-.06v3a4,4,0,0,0,.06.79.67.67,0,0,0,.17.34,1,1,0,0,0,.36.15,2.09,2.09,0,0,0,.36.09h.12v.55h-2.76V9.2h.11a3.06,3.06,0,0,0,.4-.07.55.55,0,0,0,.29-.12.57.57,0,0,0,.17-.31,4.91,4.91,0,0,0,.05-.82V4.68a1.15,1.15,0,0,0-.06-.41.6.6,0,0,0-.16-.24.63.63,0,0,0-.28-.15,1.23,1.23,0,0,0-.36-.06h-.12V3.26H128l1.7,4.47,1.41-3.62a3.73,3.73,0,0,0,.14-.44,1.46,1.46,0,0,0,.06-.29V3.26h2.28v.56h-.12a1.37,1.37,0,0,0-.3,0,.88.88,0,0,0-.26.06c-.09,0-.12.07-.13.11a.51.51,0,0,0,0,.22V8.74a.46.46,0,0,0,0,.21.33.33,0,0,0,.15.13l.25.07.3,0h.12v.55Z" transform="translate(0 -0.43)"/><path class="cls-10" d="M135.07,9.74V9.2h.11l.35,0a.62.62,0,0,0,.25-.05.28.28,0,0,0,.14-.12.56.56,0,0,0,0-.21V4.29a.46.46,0,0,0,0-.21.24.24,0,0,0-.14-.12l-.3-.09a1.53,1.53,0,0,0-.3-.05h-.11V3.26h5.07V5h-.55l0-.09a1.85,1.85,0,0,0-.36-.67.82.82,0,0,0-.48-.36l-.31,0h-1.28V6.09h.58a1.52,1.52,0,0,0,.45,0,.63.63,0,0,0,.22-.18.93.93,0,0,0,.15-.3,1.84,1.84,0,0,0,.08-.38V5.07h.56V7.75h-.56V7.64a1.87,1.87,0,0,0-.09-.42.84.84,0,0,0-.14-.3.43.43,0,0,0-.25-.18,1.2,1.2,0,0,0-.42,0h-.58V8.44a2.07,2.07,0,0,0,0,.41.33.33,0,0,0,.11.18.66.66,0,0,0,.25.09l.55,0h.38l.39,0a1.91,1.91,0,0,0,.33-.06.39.39,0,0,0,.19-.09,2.55,2.55,0,0,0,.41-.61,5.32,5.32,0,0,0,.27-.61l0-.09h.53l-.13,2.08Z" transform="translate(0 -0.43)"/><path class="cls-11" d="M141.88,9.74V9.19H142l.32,0,.23,0a.28.28,0,0,0,.14-.12.41.41,0,0,0,.05-.21V4.29a.54.54,0,0,0-.05-.22.26.26,0,0,0-.14-.13.88.88,0,0,0-.26-.08,1.27,1.27,0,0,0-.26,0h-.11V3.26h2.84a3.8,3.8,0,0,1,1.15.19,3.32,3.32,0,0,1,1,.48,2.85,2.85,0,0,1,.9,1.07,3.5,3.5,0,0,1,.32,1.54A3,3,0,0,1,147.8,8,3,3,0,0,1,147,9a3.51,3.51,0,0,1-1.12.58,4.32,4.32,0,0,1-1.28.19Zm2.65-5.88h-.62V8.55a.48.48,0,0,0,.18.45,1.21,1.21,0,0,0,.65.14,2,2,0,0,0,.92-.19,1.52,1.52,0,0,0,.63-.51,2.33,2.33,0,0,0,.38-.81,4.43,4.43,0,0,0,.12-1.09,3.4,3.4,0,0,0-.16-1.1,2.4,2.4,0,0,0-.46-.85,2.1,2.1,0,0,0-.71-.53A2.15,2.15,0,0,0,144.53,3.86Z" transform="translate(0 -0.43)"/><path class="cls-12" d="M149.46,9.74V9.2h.11l.34,0a1.07,1.07,0,0,0,.28,0,.41.41,0,0,0,.16-.11.41.41,0,0,0,0-.21V4.28a.56.56,0,0,0,0-.2.32.32,0,0,0-.17-.12l-.31-.09a1.73,1.73,0,0,0-.31-.05h-.11V3.26h3v.56h-.11l-.31,0a1.61,1.61,0,0,0-.31.07.24.24,0,0,0-.16.11.46.46,0,0,0,0,.21V8.75a.33.33,0,0,0,.05.2.3.3,0,0,0,.16.12,1,1,0,0,0,.27.07,1.74,1.74,0,0,0,.34,0h.11v.55Z" transform="translate(0 -0.43)"/><path class="cls-13" d="M157.16,9.74V9.2h.11a3,3,0,0,0,.55-.09l.12,0,0,0V9s0-.06,0-.07l-.49-1.33h-2v0l-.16.44-.06.18c0,.08-.05.16-.07.24a2.65,2.65,0,0,0-.08.29.71.71,0,0,0,0,.17c0,.08.11.13.2.16a2.06,2.06,0,0,0,.59.11h.11v.55h-2.59V9.2h.11a1.57,1.57,0,0,0,.27,0A.82.82,0,0,0,154,9a1,1,0,0,0,.24-.22,1.24,1.24,0,0,0,.17-.33c.34-.84.69-1.73,1-2.63l1-2.61,0-.07H157l2.11,5.45a1.42,1.42,0,0,0,.13.25,1,1,0,0,0,.21.18,1.1,1.1,0,0,0,.23.09l.24,0H160v.55ZM155.67,7h1.52l-.77-2Z" transform="translate(0 -0.43)"/><path class="cls-14" d="M129.51,18.17a3,3,0,0,1-1.14-.23,2.72,2.72,0,0,1-1-.63,2.86,2.86,0,0,1-.66-1,3.63,3.63,0,0,1,0-2.62,3,3,0,0,1,.66-1,2.87,2.87,0,0,1,1-.68,3.12,3.12,0,0,1,1.22-.24,2.73,2.73,0,0,1,.91.13,3.13,3.13,0,0,1,.56.23h0l.15-.24h.52l0,2.32h-.56l0-.09q-.09-.33-.21-.66a2.27,2.27,0,0,0-.32-.57,1.57,1.57,0,0,0-.46-.39,1.45,1.45,0,0,0-.65-.14,1.51,1.51,0,0,0-.75.17,1.68,1.68,0,0,0-.57.5,2.54,2.54,0,0,0-.37.83,4.43,4.43,0,0,0,0,2.17,2.82,2.82,0,0,0,.38.82,1.77,1.77,0,0,0,.61.55,1.62,1.62,0,0,0,.83.2,1.81,1.81,0,0,0,.63-.1,1.39,1.39,0,0,0,.35-.18h0l0-.37v-.7a1,1,0,0,0,0-.27.22.22,0,0,0-.14-.13,1.09,1.09,0,0,0-.34-.09l-.36,0h-.11V15.1h2.84v.54h-.1l-.27,0a1,1,0,0,0-.24.07.23.23,0,0,0-.12.12.48.48,0,0,0,0,.22v1.13c0,.12,0,.22,0,.29v.08l-.07,0a6.59,6.59,0,0,1-1.13.39A4.91,4.91,0,0,1,129.51,18.17Z" transform="translate(0 -0.43)"/><path class="cls-15" d="M137.92,18l0-.06c-.34-.53-.66-1-1-1.43s-.58-.8-.88-1.19v0h-.43V17.1a.46.46,0,0,0,0,.21.18.18,0,0,0,.13.1.63.63,0,0,0,.23.05l.31,0h.12V18h-2.76V17.5h.11l.29,0a1.21,1.21,0,0,0,.23,0,.22.22,0,0,0,.12-.11.41.41,0,0,0,.05-.21V12.8a.72.72,0,0,0,0-.22s-.06-.07-.12-.1l-.26-.06a1.76,1.76,0,0,0-.27,0h-.11v-.53h2.86a3.43,3.43,0,0,1,.74.08,2,2,0,0,1,.64.27,1.3,1.3,0,0,1,.45.48,1.31,1.31,0,0,1,.17.71,1.67,1.67,0,0,1-.11.65,1.43,1.43,0,0,1-.34.5,1.7,1.7,0,0,1-.48.33l-.4.17h0l0,0,.6.81c.2.26.43.59.72,1a1.4,1.4,0,0,0,.31.35,1.48,1.48,0,0,0,.27.19,1,1,0,0,0,.24.07l.26,0h.11V18Zm-2.32-3.3H136a1.17,1.17,0,0,0,1.23-1.26,1,1,0,0,0-1.07-1.05h-.59Z" transform="translate(0 -0.43)"/><path class="cls-16" d="M143.45,18.17a3,3,0,0,1-1.19-.24,2.81,2.81,0,0,1-.95-.68,3.15,3.15,0,0,1-.61-1,3.69,3.69,0,0,1-.23-1.29,3.52,3.52,0,0,1,.24-1.34,3.18,3.18,0,0,1,.65-1,2.84,2.84,0,0,1,2.09-.88,3.09,3.09,0,0,1,1.17.23,2.69,2.69,0,0,1,.94.65,3.09,3.09,0,0,1,.64,1,3.57,3.57,0,0,1,.23,1.33,3.71,3.71,0,0,1-.23,1.33,3,3,0,0,1-.66,1,2.76,2.76,0,0,1-.94.64A3,3,0,0,1,143.45,18.17Zm0-5.86a1.38,1.38,0,0,0-.78.21,1.77,1.77,0,0,0-.54.58,3,3,0,0,0-.3.83,4.74,4.74,0,0,0-.1,1,4.86,4.86,0,0,0,.11,1.06,2.93,2.93,0,0,0,.32.83,1.64,1.64,0,0,0,.54.54,1.54,1.54,0,0,0,1.5,0,1.5,1.5,0,0,0,.55-.54,2.93,2.93,0,0,0,.32-.83,5.08,5.08,0,0,0,0-2.15,2.72,2.72,0,0,0-.33-.83,1.67,1.67,0,0,0-.54-.52A1.5,1.5,0,0,0,143.45,12.31Z" transform="translate(0 -0.43)"/><path class="cls-17" d="M150.82,18.17a3.33,3.33,0,0,1-1-.14,2.46,2.46,0,0,1-.75-.41,1.69,1.69,0,0,1-.45-.59,1.65,1.65,0,0,1-.15-.69V12.82a.53.53,0,0,0,0-.19.41.41,0,0,0-.15-.13.76.76,0,0,0-.23-.08l-.25,0h-.11v-.53h2.71v.53h-.11l-.28,0-.24.06a.18.18,0,0,0-.12.1.52.52,0,0,0,0,.21v3.29a1.93,1.93,0,0,0,0,.47,1.11,1.11,0,0,0,.19.45,1,1,0,0,0,.4.34,1.5,1.5,0,0,0,.71.13,1.85,1.85,0,0,0,.72-.13,1.24,1.24,0,0,0,.45-.35,1.21,1.21,0,0,0,.22-.44,1.47,1.47,0,0,0,.07-.46V13.64a3.73,3.73,0,0,0-.06-.74.55.55,0,0,0-.15-.31,1.22,1.22,0,0,0-.36-.15,1.8,1.8,0,0,0-.37-.06h-.11v-.53h2.67v.53h-.11a1.69,1.69,0,0,0-.33,0,.86.86,0,0,0-.32.12c-.09,0-.13.2-.15.32a4.53,4.53,0,0,0,0,.71v2.59a1.92,1.92,0,0,1-.22.92,2.09,2.09,0,0,1-.58.64,2.61,2.61,0,0,1-.74.34A2.73,2.73,0,0,1,150.82,18.17Z" transform="translate(0 -0.43)"/><path class="cls-18" d="M155.15,18V17.5h.11l.29,0a1.21,1.21,0,0,0,.23,0,.22.22,0,0,0,.12-.11.41.41,0,0,0,0-.21V12.81a.8.8,0,0,0,0-.23.24.24,0,0,0-.13-.1,1.37,1.37,0,0,0-.29-.07l-.26,0h-.11v-.53H158a2.25,2.25,0,0,1,1.43.43,1.41,1.41,0,0,1,.56,1.16,2.1,2.1,0,0,1-.19.88,1.86,1.86,0,0,1-.55.63,2,2,0,0,1-.74.36,2.89,2.89,0,0,1-.84.12h-.54V17.1a.66.66,0,0,0,0,.21.22.22,0,0,0,.14.1.86.86,0,0,0,.23.05l.34,0h.12V18Zm1.93-3.22h.3a1.52,1.52,0,0,0,.69-.13.88.88,0,0,0,.37-.31,1,1,0,0,0,.18-.37,2.63,2.63,0,0,0,0-.36,2.31,2.31,0,0,0,0-.46,1.17,1.17,0,0,0-.18-.39.93.93,0,0,0-.34-.27,1.38,1.38,0,0,0-.54-.09h-.47Z" transform="translate(0 -0.43)"/><path class="cls-19" d="M122,17.22a4.5,4.5,0,0,1-.73-.89l-2.63-4.12a5.28,5.28,0,0,0,2.79-1.58,4.3,4.3,0,0,0,1-2.87,3.89,3.89,0,0,0-1.48-3.23,6.66,6.66,0,0,0-4.18-1.16h-9v.45a1.05,1.05,0,0,1,.59.32,1.15,1.15,0,0,1,.16.71V17.06a1.27,1.27,0,0,1-.16.73,1.19,1.19,0,0,1-.59.3v.45h4.78v-.45a1.12,1.12,0,0,1-.61-.32,1.1,1.1,0,0,1-.16-.71V12.35h3.43l.25.42,2.42,3.87a3.16,3.16,0,0,1,.25.52,1.5,1.5,0,0,1,.12.34.48.48,0,0,1-.17.37,1.4,1.4,0,0,1-.52.24v.43h5.68v-.45A7.86,7.86,0,0,1,122,17.22Zm-6.37-7.66h-3.88V6.12h3.74a6.84,6.84,0,0,1,2.79.41,1.33,1.33,0,0,1,.85,1.27,1.41,1.41,0,0,1-.87,1.34A6.23,6.23,0,0,1,115.59,9.56Z" transform="translate(0 -0.43)"/><path class="cls-20" d="M.15,1a1.18,1.18,0,0,1,.6.29A1.28,1.28,0,0,1,.89,2v15.2a1.41,1.41,0,0,1-.12.69,1.23,1.23,0,0,1-.62.32v.44h5v-.43A1.43,1.43,0,0,1,4.61,18a1.2,1.2,0,0,1-.15-.71V2a1.26,1.26,0,0,1,.15-.72A1.23,1.23,0,0,1,5.19,1V.59h-5Z" transform="translate(0 -0.43)"/><path class="cls-21" d="M103.67,5a8.1,8.1,0,0,0-6-2.35h0a8.07,8.07,0,0,0-8.34,8.31,8.1,8.1,0,0,0,8.34,8.32h0a8.26,8.26,0,0,0,6-2.37,8,8,0,0,0,2.37-6A8,8,0,0,0,103.67,5Zm-2.49,9.66a4.56,4.56,0,0,1-3.51,1.44,4.63,4.63,0,0,1-3.51-1.41,5.21,5.21,0,0,1-1.35-3.73,5.15,5.15,0,0,1,1.35-3.69,4.49,4.49,0,0,1,3.47-1.44h0a4.62,4.62,0,0,1,3.51,1.42,5.2,5.2,0,0,1,1.35,3.71A5.19,5.19,0,0,1,101.18,14.64Z" transform="translate(0 -0.43)"/><path class="cls-22" d="M20.34,3.82a1.19,1.19,0,0,1,.64.32,1.39,1.39,0,0,1,.16.75v8.17L13.73,4.77a2,2,0,0,1-.19-.26.59.59,0,0,1,0-.17.36.36,0,0,1,.14-.3,1.14,1.14,0,0,1,.43-.22V3.37H8.85v.45a1.05,1.05,0,0,1,.59.32,1.18,1.18,0,0,1,.14.71V17.06a1.29,1.29,0,0,1-.14.73,1.19,1.19,0,0,1-.59.3v.45h4.33v-.45a1.08,1.08,0,0,1-.61-.32,1.1,1.1,0,0,1-.16-.71V8.43l7.82,8.71a.61.61,0,0,1,.13.22.39.39,0,0,1,.06.21.45.45,0,0,1-.16.3,1.21,1.21,0,0,1-.47.22v.45H24.7v-.45a1.18,1.18,0,0,1-.6-.3,1.37,1.37,0,0,1-.15-.73V4.89a1.4,1.4,0,0,1,.15-.75,1,1,0,0,1,.6-.32V3.37H20.34Z" transform="translate(0 -0.43)"/><path class="cls-23" d="M37.3,3.82a1.61,1.61,0,0,1,.61.36.6.6,0,0,1,.16.45,1.83,1.83,0,0,1,0,.34,1.05,1.05,0,0,1-.1.3l-3.4,8.31L31,5.27a1.05,1.05,0,0,1-.1-.3,1.83,1.83,0,0,1,0-.34.6.6,0,0,1,.16-.45,1.53,1.53,0,0,1,.61-.36V3.37h-5.5v.45c.55.16,1,.75,1.44,1.76l0,0,4.63,11a2.6,2.6,0,0,1,.12.38,1.17,1.17,0,0,1,0,.26.63.63,0,0,1-.18.47,1.51,1.51,0,0,1-.59.34v.45H37.2v-.45a1.55,1.55,0,0,1-.63-.38.63.63,0,0,1-.18-.47c0-.1,0-.2,0-.28a2.49,2.49,0,0,1,.08-.32L41,5.62a1,1,0,0,1,.08-.2,2.43,2.43,0,0,1,1.42-1.6V3.37H37.3Z" transform="translate(0 -0.43)"/><path class="cls-24" d="M57.22,15.36a.94.94,0,0,1-.63.16H48V12.09H53a.87.87,0,0,1,.64.18,1.28,1.28,0,0,1,.28.67h.41V8.61l-.41,0a1.7,1.7,0,0,1-.26.67c-.1.12-.32.16-.66.16H48v-3h8.27a.87.87,0,0,1,.63.16,1.37,1.37,0,0,1,.26.69h.42V2.55h-.42a1.56,1.56,0,0,1-.24.66.93.93,0,0,1-.65.16H43.94v.45a1,1,0,0,1,.62.32,1.15,1.15,0,0,1,.17.71V17.06a1.15,1.15,0,0,1-.17.71,1,1,0,0,1-.62.32v.45H56.59a.89.89,0,0,1,.63.18,1.36,1.36,0,0,1,.28.69h.39V14.66H57.5A1.58,1.58,0,0,1,57.22,15.36Z" transform="translate(0 -0.43)"/><path class="cls-25" d="M69.34,9.2A29.16,29.16,0,0,0,66,8.83c-1.8-.1-2.71-.54-2.71-1.31,0-.49.32-.89,1-1.21a5.51,5.51,0,0,1,2.47-.47,7.54,7.54,0,0,1,3.21.75c1,.52,1.54,1,1.54,1.43v.12s0,0,0,0l.46.28,1.66-3.8-.36-.18a.92.92,0,0,1-.25.2.37.37,0,0,1-.2.08,2,2,0,0,1-.91-.36,2.7,2.7,0,0,0-.77-.33s-.18-.06-.42-.14a10,10,0,0,0-4-.85A7.34,7.34,0,0,0,62,4.49a4.59,4.59,0,0,0-1.76,3.74,3.84,3.84,0,0,0,1.19,3A6,6,0,0,0,65,12.53l2.16.16c2.31.14,3.46.61,3.46,1.46a1.61,1.61,0,0,1-1,1.41,6.06,6.06,0,0,1-2.77.53,8.66,8.66,0,0,1-3.34-.67c-1.11-.46-1.65-.87-1.65-1.25a1,1,0,0,1,0-.2s0-.08,0-.1l-.47-.23L60,17.42l.44.13a.64.64,0,0,1,.12-.21.58.58,0,0,1,.22-.06,2.31,2.31,0,0,1,.61.25,11.77,11.77,0,0,0,5.54,1.37,8,8,0,0,0,5-1.45,4.5,4.5,0,0,0,1.9-3.73,4.07,4.07,0,0,0-1.09-2.93A6.19,6.19,0,0,0,69.34,9.2Z" transform="translate(0 -0.43)"/><path class="cls-26" d="M88.1,3.19a.93.93,0,0,1-.66.18H76.3a1,1,0,0,1-.63-.16,1.28,1.28,0,0,1-.28-.69H75V7.25h.39a1.79,1.79,0,0,1,.3-.7,1,1,0,0,1,.63-.16h3.94V17.06a1.29,1.29,0,0,1-.14.73,1.18,1.18,0,0,1-.61.3v.45H84.3v-.45a1.18,1.18,0,0,1-.62-.3,1.28,1.28,0,0,1-.15-.73V6.39h3.91a1,1,0,0,1,.68.18,1.36,1.36,0,0,1,.27.68h.42V2.52h-.42A1.36,1.36,0,0,1,88.1,3.19Z" transform="translate(0 -0.43)"/><path class="cls-27" d="M133.5,9.62h-2.75V9.31l.38,0a1.11,1.11,0,0,0,.33-.08.53.53,0,0,0,.2-.19.54.54,0,0,0,.06-.27V4.21h-.07l-2.12,5.31h-.22l-2-5.42h0V7.82a4.22,4.22,0,0,0,.06.82.79.79,0,0,0,.21.4,1,1,0,0,0,.4.18,2,2,0,0,0,.4.09v.31h-2.52V9.31a3.67,3.67,0,0,0,.42-.07.84.84,0,0,0,.33-.14.62.62,0,0,0,.21-.38,4.22,4.22,0,0,0,.06-.85V4.68a1.12,1.12,0,0,0-.07-.45.65.65,0,0,0-.18-.29,1,1,0,0,0-.34-.18,1.76,1.76,0,0,0-.39-.06V3.39H128l1.78,4.67,1.53-3.91c.05-.14.1-.29.14-.45a1.68,1.68,0,0,0,.06-.31h2V3.7a1.39,1.39,0,0,0-.32,0l-.28.06a.36.36,0,0,0-.2.18.76.76,0,0,0,0,.27V8.74a.67.67,0,0,0,0,.26.45.45,0,0,0,.2.18,1.31,1.31,0,0,0,.28.09l.32,0Z" transform="translate(0 -0.43)"/><path class="cls-28" d="M140.48,7.78l-.11,1.84h-5.18V9.31l.35,0a1.36,1.36,0,0,0,.29-.06A.36.36,0,0,0,136,9a.54.54,0,0,0,.06-.27V4.29A.71.71,0,0,0,136,4a.4.4,0,0,0-.2-.18,1.52,1.52,0,0,0-.32-.1,1.57,1.57,0,0,0-.32,0V3.39H140v1.5h-.32a2.16,2.16,0,0,0-.38-.71.93.93,0,0,0-.56-.41l-.33,0H137V6.21h.71a1.46,1.46,0,0,0,.49-.06.83.83,0,0,0,.28-.22,1,1,0,0,0,.16-.34,1.53,1.53,0,0,0,.09-.4h.33V7.63h-.33a2,2,0,0,0-.09-.45,1.84,1.84,0,0,0-.16-.34.69.69,0,0,0-.31-.22,1.5,1.5,0,0,0-.46,0H137V8.44a2.36,2.36,0,0,0,0,.44.44.44,0,0,0,.16.25.75.75,0,0,0,.31.11l.56,0h.38l.4,0a2.14,2.14,0,0,0,.35-.06.45.45,0,0,0,.25-.13,2.6,2.6,0,0,0,.43-.64,4.44,4.44,0,0,0,.28-.63Z" transform="translate(0 -0.43)"/><path class="cls-29" d="M148,6.54a3,3,0,0,1-.3,1.38,2.84,2.84,0,0,1-.78,1,3.25,3.25,0,0,1-1.08.55,4,4,0,0,1-1.24.19H142V9.31l.34,0a1,1,0,0,0,.27,0,.45.45,0,0,0,.19-.17.54.54,0,0,0,.06-.27V4.29a.76.76,0,0,0-.05-.27.46.46,0,0,0-.2-.19,1.49,1.49,0,0,0-.3-.09,1.6,1.6,0,0,0-.27,0V3.39h2.72a3.48,3.48,0,0,1,1.11.17,3.13,3.13,0,0,1,.95.47,2.76,2.76,0,0,1,.86,1A3.31,3.31,0,0,1,148,6.54Zm-1.08,0a3.7,3.7,0,0,0-.16-1.14,2.44,2.44,0,0,0-.49-.88,2.19,2.19,0,0,0-.74-.57,2.28,2.28,0,0,0-1-.21h-.74V8.55a.64.64,0,0,0,.23.56,1.38,1.38,0,0,0,.72.15,2.24,2.24,0,0,0,1-.2,1.68,1.68,0,0,0,.68-.55,2.38,2.38,0,0,0,.4-.85A4.75,4.75,0,0,0,146.91,6.54Z" transform="translate(0 -0.43)"/><path class="cls-30" d="M152.38,9.62h-2.8V9.31l.34,0a1.3,1.3,0,0,0,.31,0,.47.47,0,0,0,.22-.16.49.49,0,0,0,.06-.27V4.28a.47.47,0,0,0,0-.25.37.37,0,0,0-.23-.18,2.25,2.25,0,0,0-.33-.1,1.57,1.57,0,0,0-.32,0V3.39h2.8V3.7l-.32,0a2.09,2.09,0,0,0-.33.07.42.42,0,0,0-.23.17.76.76,0,0,0-.05.27V8.75a.55.55,0,0,0,.06.26.44.44,0,0,0,.22.17,1.51,1.51,0,0,0,.3.08,1.82,1.82,0,0,0,.35.05Z" transform="translate(0 -0.43)"/><path class="cls-31" d="M159.88,9.62h-2.6V9.31a3.42,3.42,0,0,0,.57-.09c.15,0,.23-.1.23-.16s0-.06,0-.1l0-.1-.52-1.4h-2.18c-.08.21-.15.39-.2.54s-.1.29-.14.42-.06.23-.08.31a1.76,1.76,0,0,0,0,.19c0,.12.09.21.28.27a2,2,0,0,0,.62.12v.31h-2.35V9.31a2,2,0,0,0,.29-.05,1.09,1.09,0,0,0,.28-.11,1.11,1.11,0,0,0,.27-.25,1.49,1.49,0,0,0,.19-.36c.32-.78.66-1.66,1-2.64s.71-1.84,1-2.6h.35L159,8.67a.82.82,0,0,0,.15.28,1,1,0,0,0,.23.21,1.18,1.18,0,0,0,.27.1,1,1,0,0,0,.27.05Zm-2.52-2.55-.94-2.41-.93,2.41Z" transform="translate(0 -0.43)"/><path class="cls-32" d="M132.46,15.53l-.27,0a1.25,1.25,0,0,0-.27.08.32.32,0,0,0-.18.18.54.54,0,0,0-.05.27v1.14c0,.12,0,.21,0,.29a6.94,6.94,0,0,1-1.11.38,4.59,4.59,0,0,1-1.09.14,2.81,2.81,0,0,1-1.1-.22,2.6,2.6,0,0,1-.92-.61,3,3,0,0,1-.63-1,3.28,3.28,0,0,1-.24-1.28,3.48,3.48,0,0,1,.23-1.26,3.19,3.19,0,0,1,.63-1,3,3,0,0,1,1-.65,3.1,3.1,0,0,1,1.18-.23,2.78,2.78,0,0,1,1.54.42l.17-.29h.33l0,2.08h-.34a5.39,5.39,0,0,0-.22-.68,2.28,2.28,0,0,0-.34-.59,1.49,1.49,0,0,0-.5-.43,1.51,1.51,0,0,0-.7-.15,1.71,1.71,0,0,0-.8.18,1.76,1.76,0,0,0-.62.54,2.5,2.5,0,0,0-.39.87,4.61,4.61,0,0,0-.14,1.16,4.13,4.13,0,0,0,.14,1.07,2.72,2.72,0,0,0,.39.86,1.92,1.92,0,0,0,.65.59,1.86,1.86,0,0,0,.89.21,1.81,1.81,0,0,0,.67-.11,1.19,1.19,0,0,0,.43-.24c0-.14,0-.29,0-.44v-.7a1,1,0,0,0,0-.31.31.31,0,0,0-.2-.2,1.1,1.1,0,0,0-.37-.1l-.37,0v-.3h2.6Z" transform="translate(0 -0.43)"/><path class="cls-33" d="M139.58,17.91H138q-.53-.84-1-1.44t-.93-1.26h-.61V17.1a.55.55,0,0,0,.05.26.32.32,0,0,0,.19.17,1.65,1.65,0,0,0,.27,0l.32,0v.3h-2.52v-.3l.29,0a1,1,0,0,0,.27,0,.4.4,0,0,0,.18-.16.54.54,0,0,0,.06-.27V12.8a.71.71,0,0,0-.05-.26c0-.08-.09-.13-.19-.17a1.26,1.26,0,0,0-.28-.07,1.7,1.7,0,0,0-.28,0V12h2.74a3.15,3.15,0,0,1,.71.08,1.78,1.78,0,0,1,.6.25,1.26,1.26,0,0,1,.42.44,1.3,1.3,0,0,1,.15.65,1.57,1.57,0,0,1-.1.6,1.33,1.33,0,0,1-.31.46,1.8,1.8,0,0,1-.45.31A3.15,3.15,0,0,1,137,15l.74,1,.71,1a2.12,2.12,0,0,0,.33.37,1.66,1.66,0,0,0,.3.19.85.85,0,0,0,.27.09l.27,0Zm-2.2-4.44a1.09,1.09,0,0,0-1.19-1.17h-.71v2.55H136a1.31,1.31,0,0,0,1-.37A1.33,1.33,0,0,0,137.38,13.47Z" transform="translate(0 -0.43)"/><path class="cls-34" d="M145.47,12.66a2.91,2.91,0,0,1,.62,1,3.47,3.47,0,0,1,.22,1.28,3.57,3.57,0,0,1-.22,1.29,3,3,0,0,1-.63,1,2.59,2.59,0,0,1-.91.62,2.7,2.7,0,0,1-1.1.22,2.87,2.87,0,0,1-1.14-.23,2.81,2.81,0,0,1-.91-.65,2.87,2.87,0,0,1-.59-1,3.59,3.59,0,0,1-.21-1.24,3.49,3.49,0,0,1,.22-1.29,3,3,0,0,1,.63-1,2.59,2.59,0,0,1,.91-.62,2.72,2.72,0,0,1,1.09-.22,2.8,2.8,0,0,1,1.12.22A2.73,2.73,0,0,1,145.47,12.66Zm-.62,4.22a2.62,2.62,0,0,0,.34-.86,5.05,5.05,0,0,0,.11-1.08,4.87,4.87,0,0,0-.12-1.12,2.88,2.88,0,0,0-.35-.87,1.72,1.72,0,0,0-.58-.56,1.61,1.61,0,0,0-.8-.2,1.54,1.54,0,0,0-.85.23A1.7,1.7,0,0,0,142,13a2.91,2.91,0,0,0-.32.86,5,5,0,0,0-.1,1,5.15,5.15,0,0,0,.11,1.09,2.86,2.86,0,0,0,.34.86,1.67,1.67,0,0,0,.57.58,1.54,1.54,0,0,0,.82.21,1.58,1.58,0,0,0,.81-.21A1.67,1.67,0,0,0,144.85,16.88Z" transform="translate(0 -0.43)"/><path class="cls-35" d="M153.93,12.26a2,2,0,0,0-.34.05,1.06,1.06,0,0,0-.37.14.55.55,0,0,0-.2.39,4,4,0,0,0-.05.74v2.59a1.71,1.71,0,0,1-.21.86,1.94,1.94,0,0,1-.54.6,2.11,2.11,0,0,1-.7.32,2.47,2.47,0,0,1-.7.1,3.06,3.06,0,0,1-.95-.14,2.09,2.09,0,0,1-.71-.38,1.47,1.47,0,0,1-.42-.55,1.42,1.42,0,0,1-.14-.64V12.82a.6.6,0,0,0,0-.24.45.45,0,0,0-.2-.18,1.18,1.18,0,0,0-.27-.1,1.66,1.66,0,0,0-.26,0V12h2.47v.3a1.17,1.17,0,0,0-.29,0l-.26.06a.31.31,0,0,0-.2.17.69.69,0,0,0,0,.25v3.29a2.23,2.23,0,0,0,.05.5,1.18,1.18,0,0,0,.21.49,1.15,1.15,0,0,0,.44.37,1.65,1.65,0,0,0,.77.15,1.73,1.73,0,0,0,.77-.15,1.21,1.21,0,0,0,.5-.38,1.61,1.61,0,0,0,.24-.47,1.77,1.77,0,0,0,.07-.5V13.64a3.16,3.16,0,0,0-.07-.76.64.64,0,0,0-.19-.39,1,1,0,0,0-.4-.16,2,2,0,0,0-.39-.07V12h2.43Z" transform="translate(0 -0.43)"/><path class="cls-36" d="M159.82,13.43a1.8,1.8,0,0,1-.18.82,1.62,1.62,0,0,1-.51.59,2,2,0,0,1-.7.35,3,3,0,0,1-.81.11H157v1.8a.71.71,0,0,0,0,.26.38.38,0,0,0,.2.17,1.65,1.65,0,0,0,.27,0l.35,0v.3h-2.55v-.3l.29,0a1,1,0,0,0,.26,0,.38.38,0,0,0,.19-.16.68.68,0,0,0,.05-.27V12.81a.77.77,0,0,0,0-.27.29.29,0,0,0-.2-.17,1.77,1.77,0,0,0-.31-.08l-.27,0V12H158a2.11,2.11,0,0,1,1.35.4A1.27,1.27,0,0,1,159.82,13.43Zm-1.28,1a1,1,0,0,0,.19-.42,1.89,1.89,0,0,0,.05-.38,2.12,2.12,0,0,0-.06-.49,1,1,0,0,0-.19-.43,1.1,1.1,0,0,0-.39-.31,1.48,1.48,0,0,0-.59-.11H157v2.63h.42a1.58,1.58,0,0,0,.74-.14A1,1,0,0,0,158.54,14.44Z" transform="translate(0 -0.43)"/><path class="cls-37" d="M117.49,18.46v-.29a1.32,1.32,0,0,0,.49-.24.52.52,0,0,0,.2-.43,1.21,1.21,0,0,0-.12-.36h0c-.08-.2-.18-.37-.26-.53l-2.42-3.88-.28-.45h-3.55v4.79a1.1,1.1,0,0,0,.18.76,1,1,0,0,0,.59.33v.31H107.7v-.31a1.12,1.12,0,0,0,.57-.31,1.32,1.32,0,0,0,.18-.78V4.85a1.19,1.19,0,0,0-.18-.76,1,1,0,0,0-.57-.33V3.45h8.9a6.51,6.51,0,0,1,4.12,1.15,3.74,3.74,0,0,1,1.46,3.16,4.24,4.24,0,0,1-.93,2.82,5.31,5.31,0,0,1-2.75,1.55l-.11,0,2.69,4.21a4.41,4.41,0,0,0,.75.91,6.75,6.75,0,0,0,1.18.85v.33Zm-5.94-8.82h4a6.44,6.44,0,0,0,2.67-.42,1.51,1.51,0,0,0,.91-1.42,1.41,1.41,0,0,0-.89-1.34A6.69,6.69,0,0,0,115.37,6h-3.82Z" transform="translate(0 -0.43)"/><path class="cls-38" d="M.15,18.61v-.3A1.24,1.24,0,0,0,.75,18h0a1.48,1.48,0,0,0,.13-.73V2a1.35,1.35,0,0,0-.15-.76A1.15,1.15,0,0,0,.15,1V.67H5V1a1.11,1.11,0,0,0-.56.3A1.3,1.3,0,0,0,4.29,2v15.2a1.35,1.35,0,0,0,.17.76h0a1.69,1.69,0,0,0,.56.31v.29Z" transform="translate(0 -0.43)"/><path class="cls-39" d="M97.71,19.18a7.94,7.94,0,0,1-5.91-2.35,8.1,8.1,0,0,1-2.34-5.89,8,8,0,0,1,8.25-8.23h0a8.09,8.09,0,0,1,6,2.33,7.94,7.94,0,0,1,2.34,5.9,8,8,0,0,1-2.34,5.89,8.26,8.26,0,0,1-6,2.35Zm0-13.45a4.58,4.58,0,0,0-3.53,1.46,5.31,5.31,0,0,0-1.37,3.75,5.28,5.28,0,0,0,1.37,3.78,5.12,5.12,0,0,0,7.14,0,5.31,5.31,0,0,0,1.37-3.76,5.31,5.31,0,0,0-1.37-3.77,4.71,4.71,0,0,0-3.57-1.44Z" transform="translate(0 -0.43)"/><path class="cls-40" d="M19.79,18.46v-.31a1.35,1.35,0,0,0,.45-.22.48.48,0,0,0,.12-.61.63.63,0,0,0-.16-.24L12.25,8.22v8.84a1.16,1.16,0,0,0,.17.76,1.07,1.07,0,0,0,.6.33v.31H8.85v-.31a1.08,1.08,0,0,0,.57-.31,1.33,1.33,0,0,0,.16-.78V4.85a1.2,1.2,0,0,0-.16-.76,1,1,0,0,0-.57-.33V3.45h5.06v.31A1.6,1.6,0,0,0,13.5,4a.42.42,0,0,0-.16.36.71.71,0,0,0,0,.2h0l0,0a1.49,1.49,0,0,0,.19.24l7.54,8.45V4.89a1.59,1.59,0,0,0-.17-.8h0a1.24,1.24,0,0,0-.62-.32V3.45h4.2v.31a1,1,0,0,0-.58.33,1.39,1.39,0,0,0-.18.8V17.06a1.32,1.32,0,0,0,.18.78,1.12,1.12,0,0,0,.58.31v.31Z" transform="translate(0 -0.43)"/><path class="cls-41" d="M31.64,18.46v-.32a1.52,1.52,0,0,0,.57-.33.72.72,0,0,0,.2-.53,1,1,0,0,0,0-.28,3.86,3.86,0,0,0-.12-.38l-4.63-11,0,0c-.41-1-.88-1.6-1.43-1.79V3.45H31.5v.32a1.48,1.48,0,0,0-.6.36.65.65,0,0,0-.18.5,1.31,1.31,0,0,0,0,.35.92.92,0,0,0,.1.32l3.62,8.49L38,5.3a1.31,1.31,0,0,0,.1-.32,1.94,1.94,0,0,0,0-.35.69.69,0,0,0-.18-.51,1.55,1.55,0,0,0-.59-.35V3.45h5v.31A2.58,2.58,0,0,0,40.92,5.4l0,.09a.3.3,0,0,0,0,.11l-4.51,11a2.86,2.86,0,0,0-.08.31v0h0s0,.07,0,.12a.81.81,0,0,0,0,.16.69.69,0,0,0,.2.53,1.6,1.6,0,0,0,.61.37v.32Z" transform="translate(0 -0.43)"/><path class="cls-42" d="M57.48,19.33a1.4,1.4,0,0,0-.28-.67,1,1,0,0,0-.69-.2H43.94v-.31a1,1,0,0,0,.6-.33,1.16,1.16,0,0,0,.19-.76V4.85a1.21,1.21,0,0,0-.19-.77,1.07,1.07,0,0,0-.6-.32V3.45H56.17a1,1,0,0,0,.71-.19,1.59,1.59,0,0,0,.25-.62h.27V7.2h-.27a1.33,1.33,0,0,0-.27-.67,1,1,0,0,0-.69-.18H47.82V9.54H53c.4,0,.61,0,.72-.18a1.64,1.64,0,0,0,.26-.65l.27,0v4.17h-.27a1.27,1.27,0,0,0-.28-.65A1,1,0,0,0,53,12H47.82V15.6h8.69a1.06,1.06,0,0,0,.69-.18,1.72,1.72,0,0,0,.28-.67h.25v4.58Z" transform="translate(0 -0.43)"/><path class="cls-43" d="M66.81,18.82a11.87,11.87,0,0,1-5.5-1.36,1.64,1.64,0,0,0-.66-.26.37.37,0,0,0-.2.05h-.07a.71.71,0,0,0-.11.17L60,17.37l1.4-3.62.33.16v0h0a1.06,1.06,0,0,0,0,.21c0,.42.56.85,1.69,1.32a8.76,8.76,0,0,0,3.38.68,6.1,6.1,0,0,0,2.81-.54,1.67,1.67,0,0,0,1.07-1.48c0-.9-1.16-1.4-3.54-1.54l-1.69-.13-.46,0a6,6,0,0,1-3.52-1.29,3.75,3.75,0,0,1-1.16-2.93A4.52,4.52,0,0,1,62,4.56a7.32,7.32,0,0,1,4.62-1.39,10,10,0,0,1,4,.84l.24.09.2.06a3,3,0,0,1,.74.33,2,2,0,0,0,1,.36.4.4,0,0,0,.23-.09.7.7,0,0,0,.24-.17l.23.12L71.8,8.35l-.32-.19V8c0-.48-.52-1-1.59-1.5a7.49,7.49,0,0,0-3.24-.76,5.55,5.55,0,0,0-2.51.48c-.67.34-1,.75-1,1.28,0,.82.93,1.29,2.78,1.39a27.72,27.72,0,0,1,3.32.37,6.23,6.23,0,0,1,3.28,1.56,4,4,0,0,1,1.06,2.88,4.43,4.43,0,0,1-1.86,3.67A8,8,0,0,1,66.81,18.82Z" transform="translate(0 -0.43)"/><path class="cls-44" d="M79.49,18.46v-.31a1.11,1.11,0,0,0,.59-.31,1.33,1.33,0,0,0,.16-.78V6.31h-4a1,1,0,0,0-.68.18,1.49,1.49,0,0,0-.31.67H75V2.6h.26a1.35,1.35,0,0,0,.29.67,1.08,1.08,0,0,0,.69.18H87.36a1,1,0,0,0,.71-.2,1.34,1.34,0,0,0,.31-.65h.27V7.16h-.27a1.27,1.27,0,0,0-.29-.65,1,1,0,0,0-.73-.2h-4V17.06a1.32,1.32,0,0,0,.18.78,1.15,1.15,0,0,0,.59.31v.31Z" transform="translate(0 -0.43)"/><path class="cls-45" d="M130.83,9.54V9.39l.31,0a.9.9,0,0,0,.35-.09.57.57,0,0,0,.24-.22.59.59,0,0,0,.07-.31V4.13h-.2l-2.13,5.31h-.1l-2-5.42h-.19v3.8a4.53,4.53,0,0,0,.06.84.91.91,0,0,0,.24.45,1.17,1.17,0,0,0,.43.19l.34.08v.16h-2.36V9.38a2.14,2.14,0,0,0,.35-.06.8.8,0,0,0,.37-.16.7.7,0,0,0,.24-.42,4.39,4.39,0,0,0,.06-.87V4.68a1.28,1.28,0,0,0-.07-.48.81.81,0,0,0-.21-.32.93.93,0,0,0-.37-.19,1.3,1.3,0,0,0-.33-.07V3.47h2l1.84,4.82,1.6-4.11a3.53,3.53,0,0,0,.15-.46c0-.11,0-.19.05-.25h1.88v.15l-.24,0a1,1,0,0,0-.29.07.35.35,0,0,0-.25.22.73.73,0,0,0-.06.3V8.74a.7.7,0,0,0,.06.3.52.52,0,0,0,.24.22,1.08,1.08,0,0,0,.3.09l.25,0v.16Z" transform="translate(0 -0.43)"/><path class="cls-46" d="M135.27,9.54V9.38l.28,0a.94.94,0,0,0,.31-.07.54.54,0,0,0,.24-.2.68.68,0,0,0,.06-.31V4.29A.68.68,0,0,0,136.1,4a.44.44,0,0,0-.24-.22,1.58,1.58,0,0,0-.33-.11l-.26,0V3.47h4.66V4.81h-.18a2.14,2.14,0,0,0-.38-.68,1,1,0,0,0-.61-.44l-.33,0h-1.5V6.29h.79a1.38,1.38,0,0,0,.52-.07.79.79,0,0,0,.31-.24,1.21,1.21,0,0,0,.18-.36,2.49,2.49,0,0,0,.08-.35H139V7.55h-.18a1.55,1.55,0,0,0-.09-.39,1.07,1.07,0,0,0-.17-.37.76.76,0,0,0-.35-.25,1.6,1.6,0,0,0-.48,0h-.79V8.44a2.52,2.52,0,0,0,0,.46.51.51,0,0,0,.19.29.73.73,0,0,0,.35.13l.57,0h.38l.41,0a2.25,2.25,0,0,0,.36-.06.71.71,0,0,0,.29-.15,3.11,3.11,0,0,0,.44-.66c.13-.26.22-.45.27-.58h.17l-.11,1.67Z" transform="translate(0 -0.43)"/><path class="cls-47" d="M142.09,9.54V9.39l.25,0a.76.76,0,0,0,.3-.06.45.45,0,0,0,.23-.2.74.74,0,0,0,.07-.31V4.29a.73.73,0,0,0-.06-.3.45.45,0,0,0-.24-.23,1.41,1.41,0,0,0-.31-.1l-.21,0V3.47h2.64a3.3,3.3,0,0,1,1.08.17,3.22,3.22,0,0,1,.93.45,2.64,2.64,0,0,1,.84,1,3.23,3.23,0,0,1,.3,1.45,2.94,2.94,0,0,1-.29,1.34,2.68,2.68,0,0,1-.76.93,3.19,3.19,0,0,1-1.05.55,4.24,4.24,0,0,1-1.22.18Zm2.44-5.88h-.82V8.55a.67.67,0,0,0,.27.62,1.32,1.32,0,0,0,.76.17,2.46,2.46,0,0,0,1-.2,1.93,1.93,0,0,0,.71-.58,2.74,2.74,0,0,0,.41-.88A4.83,4.83,0,0,0,147,6.54a3.89,3.89,0,0,0-.17-1.17,2.79,2.79,0,0,0-.51-.91,2.36,2.36,0,0,0-.77-.59A2.42,2.42,0,0,0,144.53,3.66Z" transform="translate(0 -0.43)"/><path class="cls-48" d="M149.66,9.54V9.38l.26,0a1,1,0,0,0,.34-.06.44.44,0,0,0,.25-.18.53.53,0,0,0,.08-.32V4.28a.84.84,0,0,0-.05-.29.49.49,0,0,0-.28-.21,1.94,1.94,0,0,0-.34-.11l-.26,0V3.47h2.64v.15l-.25,0a2.29,2.29,0,0,0-.35.08.42.42,0,0,0-.27.21.73.73,0,0,0-.06.3V8.75a.6.6,0,0,0,.07.3.51.51,0,0,0,.26.21,1.37,1.37,0,0,0,.31.08l.29.05v.15Z" transform="translate(0 -0.43)"/><path class="cls-49" d="M157.36,9.54V9.38a2.18,2.18,0,0,0,.51-.08c.07,0,.29-.09.29-.24s0-.08,0-.11l0-.12-.54-1.45h-2.3l0,0c-.08.2-.14.38-.2.54l-.06.18a1.83,1.83,0,0,1-.08.25l-.08.31a1.83,1.83,0,0,0,0,.21c0,.16.11.27.33.35a2,2,0,0,0,.57.11v.16h-2.18V9.38l.22,0a1,1,0,0,0,.31-.13,1.24,1.24,0,0,0,.29-.26,2.19,2.19,0,0,0,.2-.38l1-2.64q.54-1.42,1-2.55h.24l2,5.32a1.1,1.1,0,0,0,.42.53,1.18,1.18,0,0,0,.29.11,1,1,0,0,0,.21,0v.16Zm-2-2.39h2.1l-1.06-2.72Z" transform="translate(0 -0.43)"/><path class="cls-50" d="M129.51,18a2.8,2.8,0,0,1-1.07-.21,2.71,2.71,0,0,1-.89-.59,3,3,0,0,1-.62-.94,3.31,3.31,0,0,1-.22-1.25,3.49,3.49,0,0,1,.21-1.23,3.2,3.2,0,0,1,.62-1,2.79,2.79,0,0,1,.92-.63,3,3,0,0,1,1.15-.23,2.75,2.75,0,0,1,1.49.41l.07,0,.19-.32h.21l0,1.92h-.2a5.17,5.17,0,0,0-.21-.63,2.27,2.27,0,0,0-.34-.61,1.54,1.54,0,0,0-.53-.45,1.58,1.58,0,0,0-.74-.16,1.76,1.76,0,0,0-.84.19,1.79,1.79,0,0,0-.64.56,2.67,2.67,0,0,0-.41.9,4.77,4.77,0,0,0-.14,1.18A4.22,4.22,0,0,0,127.7,16a2.7,2.7,0,0,0,.41.89,2,2,0,0,0,.68.61,1.84,1.84,0,0,0,.92.22,2.23,2.23,0,0,0,.7-.11,1.26,1.26,0,0,0,.46-.26l0,0v0a3.14,3.14,0,0,0,0-.45v-.7a1.16,1.16,0,0,0-.05-.34.44.44,0,0,0-.25-.25,1.36,1.36,0,0,0-.39-.1l-.3,0v-.15h2.44v.15l-.2,0a1.07,1.07,0,0,0-.3.09.43.43,0,0,0-.21.21.62.62,0,0,0-.06.31v1.14a2.09,2.09,0,0,1,0,.24,6.36,6.36,0,0,1-1,.35A4.43,4.43,0,0,1,129.51,18Z" transform="translate(0 -0.43)"/><path class="cls-51" d="M138,17.83c-.34-.53-.66-1-.94-1.41s-.61-.84-.94-1.26l0,0h-.73v2a.88.88,0,0,0,0,.29.39.39,0,0,0,.24.21l.29.06.24,0v.14h-2.35v-.15l.22,0a.85.85,0,0,0,.29-.06.4.4,0,0,0,.22-.2.53.53,0,0,0,.07-.3V12.8a.88.88,0,0,0,0-.29.37.37,0,0,0-.24-.22,1.54,1.54,0,0,0-.29-.07l-.22,0V12h2.66a3,3,0,0,1,.69.08,1.77,1.77,0,0,1,.58.24,1.18,1.18,0,0,1,.39.41,1.25,1.25,0,0,1,.14.61,1.42,1.42,0,0,1-.1.57,1.06,1.06,0,0,1-.29.43,1.5,1.5,0,0,1-.43.3,2.94,2.94,0,0,1-.57.22l-.11,0,.07.1.73,1,.71,1a2.26,2.26,0,0,0,.35.38,2.11,2.11,0,0,0,.31.21l.29.09.21,0v.14Zm-2.63-2.9H136a1.37,1.37,0,0,0,1.43-1.46,1.21,1.21,0,0,0-.34-.91,1.22,1.22,0,0,0-.93-.34h-.79Z" transform="translate(0 -0.43)"/><path class="cls-52" d="M143.45,18a2.72,2.72,0,0,1-2-.85,3,3,0,0,1-.57-1,3.42,3.42,0,0,1-.21-1.21,3.3,3.3,0,0,1,.22-1.26,3,3,0,0,1,.6-1,2.83,2.83,0,0,1,.89-.61,2.78,2.78,0,0,1,1.06-.21,2.74,2.74,0,0,1,2,.82,2.87,2.87,0,0,1,.59,1,3.69,3.69,0,0,1,0,2.51,3,3,0,0,1-.61,1,2.65,2.65,0,0,1-.88.6A2.72,2.72,0,0,1,143.45,18Zm0-5.86a1.58,1.58,0,0,0-.89.24,1.79,1.79,0,0,0-.6.65,2.84,2.84,0,0,0-.33.89,5.06,5.06,0,0,0-.1,1,5.35,5.35,0,0,0,.11,1.11,2.81,2.81,0,0,0,.35.89,1.81,1.81,0,0,0,.6.6,1.6,1.6,0,0,0,.86.22,1.71,1.71,0,0,0,.85-.22,1.75,1.75,0,0,0,.62-.62,2.66,2.66,0,0,0,.35-.88,5.18,5.18,0,0,0,.11-1.1,5,5,0,0,0-.12-1.14,3.08,3.08,0,0,0-.36-.9,1.78,1.78,0,0,0-.61-.58A1.66,1.66,0,0,0,143.45,12.11Z" transform="translate(0 -0.43)"/><path class="cls-53" d="M150.82,18a2.93,2.93,0,0,1-.93-.14,2.1,2.1,0,0,1-.68-.36,1.65,1.65,0,0,1-.4-.52,1.42,1.42,0,0,1-.13-.61V12.82a.61.61,0,0,0-.06-.28.48.48,0,0,0-.23-.21.88.88,0,0,0-.29-.11l-.2,0V12h2.31v.14l-.23,0-.27.06a.36.36,0,0,0-.24.21.74.74,0,0,0-.05.29v3.29a2.21,2.21,0,0,0,.05.51,1.41,1.41,0,0,0,.22.52,1.44,1.44,0,0,0,.47.41,1.83,1.83,0,0,0,.81.15,1.92,1.92,0,0,0,.81-.15,1.27,1.27,0,0,0,.52-.41,1.6,1.6,0,0,0,.26-.5,1.86,1.86,0,0,0,.07-.52V13.64a3.29,3.29,0,0,0-.07-.78.75.75,0,0,0-.22-.44,1.43,1.43,0,0,0-.43-.17l-.33-.07V12h2.27v.14l-.28.05a1.11,1.11,0,0,0-.4.15.66.66,0,0,0-.23.45,4,4,0,0,0-.05.75v2.59a1.63,1.63,0,0,1-.72,1.39,1.94,1.94,0,0,1-.67.31A2.33,2.33,0,0,1,150.82,18Z" transform="translate(0 -0.43)"/><path class="cls-54" d="M155.35,17.83v-.15l.22,0a.85.85,0,0,0,.29-.06.46.46,0,0,0,.22-.19.75.75,0,0,0,.06-.31V12.81a.85.85,0,0,0,0-.29.38.38,0,0,0-.25-.23,1.59,1.59,0,0,0-.33-.08l-.2,0V12H158a2,2,0,0,1,1.3.39,1.21,1.21,0,0,1,.49,1,1.7,1.7,0,0,1-.18.79,1.52,1.52,0,0,1-.48.56,2.1,2.1,0,0,1-.67.33,2.9,2.9,0,0,1-.79.11h-.75V17.1a.65.65,0,0,0,.06.29.39.39,0,0,0,.24.21,1.19,1.19,0,0,0,.29.06l.28,0v.14ZM156.87,15h.51a1.75,1.75,0,0,0,.78-.15,1.11,1.11,0,0,0,.45-.37,1.2,1.2,0,0,0,.2-.45,2.08,2.08,0,0,0,.05-.4,2.22,2.22,0,0,0-.06-.51,1.21,1.21,0,0,0-.21-.46,1,1,0,0,0-.41-.33,1.48,1.48,0,0,0-.63-.12h-.68Z" transform="translate(0 -0.43)"/><g class="cls-55"><path class="cls-56" d="M117.49,18.46v-.29a1.32,1.32,0,0,0,.49-.24.52.52,0,0,0,.2-.43,1.21,1.21,0,0,0-.12-.36h0c-.08-.2-.18-.37-.26-.53l-2.42-3.88-.28-.45h-3.55v4.79a1.1,1.1,0,0,0,.18.76,1,1,0,0,0,.59.33v.31H107.7v-.31a1.12,1.12,0,0,0,.57-.31,1.32,1.32,0,0,0,.18-.78V4.85a1.19,1.19,0,0,0-.18-.76,1,1,0,0,0-.57-.33V3.45h8.9a6.51,6.51,0,0,1,4.12,1.15,3.74,3.74,0,0,1,1.46,3.16,4.24,4.24,0,0,1-.93,2.82,5.31,5.31,0,0,1-2.75,1.55l-.11,0,2.69,4.21a4.41,4.41,0,0,0,.75.91,6.75,6.75,0,0,0,1.18.85v.33Zm-5.94-8.82h4a6.44,6.44,0,0,0,2.67-.42,1.51,1.51,0,0,0,.91-1.42,1.41,1.41,0,0,0-.89-1.34A6.69,6.69,0,0,0,115.37,6h-3.82Z" transform="translate(0 -0.43)"/><path class="cls-56" d="M.15,18.61v-.3A1.24,1.24,0,0,0,.75,18h0a1.48,1.48,0,0,0,.13-.73V2a1.35,1.35,0,0,0-.15-.76A1.15,1.15,0,0,0,.15,1V.67H5V1a1.11,1.11,0,0,0-.56.3A1.3,1.3,0,0,0,4.29,2v15.2a1.35,1.35,0,0,0,.17.76h0a1.69,1.69,0,0,0,.56.31v.29Z" transform="translate(0 -0.43)"/><path class="cls-56" d="M97.71,19.18a7.94,7.94,0,0,1-5.91-2.35,8.1,8.1,0,0,1-2.34-5.89,8,8,0,0,1,8.25-8.23h0a8.09,8.09,0,0,1,6,2.33,7.94,7.94,0,0,1,2.34,5.9,8,8,0,0,1-2.34,5.89,8.26,8.26,0,0,1-6,2.35Zm0-13.45a4.58,4.58,0,0,0-3.53,1.46,5.31,5.31,0,0,0-1.37,3.75,5.28,5.28,0,0,0,1.37,3.78,5.12,5.12,0,0,0,7.14,0,5.31,5.31,0,0,0,1.37-3.76,5.31,5.31,0,0,0-1.37-3.77,4.71,4.71,0,0,0-3.57-1.44Z" transform="translate(0 -0.43)"/><path class="cls-56" d="M19.79,18.46v-.31a1.35,1.35,0,0,0,.45-.22.48.48,0,0,0,.12-.61.63.63,0,0,0-.16-.24L12.25,8.22v8.84a1.16,1.16,0,0,0,.17.76,1.07,1.07,0,0,0,.6.33v.31H8.85v-.31a1.08,1.08,0,0,0,.57-.31,1.33,1.33,0,0,0,.16-.78V4.85a1.2,1.2,0,0,0-.16-.76,1,1,0,0,0-.57-.33V3.45h5.06v.31A1.6,1.6,0,0,0,13.5,4a.42.42,0,0,0-.16.36.71.71,0,0,0,0,.2h0l0,0a1.49,1.49,0,0,0,.19.24l7.54,8.45V4.89a1.59,1.59,0,0,0-.17-.8h0a1.24,1.24,0,0,0-.62-.32V3.45h4.2v.31a1,1,0,0,0-.58.33,1.39,1.39,0,0,0-.18.8V17.06a1.32,1.32,0,0,0,.18.78,1.12,1.12,0,0,0,.58.31v.31Z" transform="translate(0 -0.43)"/><path class="cls-56" d="M31.64,18.46v-.32a1.52,1.52,0,0,0,.57-.33.72.72,0,0,0,.2-.53,1,1,0,0,0,0-.28,3.86,3.86,0,0,0-.12-.38l-4.63-11,0,0c-.41-1-.88-1.6-1.43-1.79V3.45H31.5v.32a1.48,1.48,0,0,0-.6.36.65.65,0,0,0-.18.5,1.31,1.31,0,0,0,0,.35.92.92,0,0,0,.1.32l3.62,8.49L38,5.3a1.31,1.31,0,0,0,.1-.32,1.94,1.94,0,0,0,0-.35.69.69,0,0,0-.18-.51,1.55,1.55,0,0,0-.59-.35V3.45h5v.31A2.58,2.58,0,0,0,40.92,5.4l0,.09a.3.3,0,0,0,0,.11l-4.51,11a2.86,2.86,0,0,0-.08.31v0h0s0,.07,0,.12a.81.81,0,0,0,0,.16.69.69,0,0,0,.2.53,1.6,1.6,0,0,0,.61.37v.32Z" transform="translate(0 -0.43)"/><path class="cls-56" d="M57.48,19.33a1.4,1.4,0,0,0-.28-.67,1,1,0,0,0-.69-.2H43.94v-.31a1,1,0,0,0,.6-.33,1.16,1.16,0,0,0,.19-.76V4.85a1.21,1.21,0,0,0-.19-.77,1.07,1.07,0,0,0-.6-.32V3.45H56.17a1,1,0,0,0,.71-.19,1.59,1.59,0,0,0,.25-.62h.27V7.2h-.27a1.33,1.33,0,0,0-.27-.67,1,1,0,0,0-.69-.18H47.82V9.54H53c.4,0,.61,0,.72-.18a1.64,1.64,0,0,0,.26-.65l.27,0v4.17h-.27a1.27,1.27,0,0,0-.28-.65A1,1,0,0,0,53,12H47.82V15.6h8.69a1.06,1.06,0,0,0,.69-.18,1.72,1.72,0,0,0,.28-.67h.25v4.58Z" transform="translate(0 -0.43)"/><path class="cls-56" d="M66.81,18.82a11.87,11.87,0,0,1-5.5-1.36,1.64,1.64,0,0,0-.66-.26.37.37,0,0,0-.2.05h-.07a.71.71,0,0,0-.11.17L60,17.37l1.4-3.62.33.16v0h0a1.06,1.06,0,0,0,0,.21c0,.42.56.85,1.69,1.32a8.76,8.76,0,0,0,3.38.68,6.1,6.1,0,0,0,2.81-.54,1.67,1.67,0,0,0,1.07-1.48c0-.9-1.16-1.4-3.54-1.54l-1.69-.13-.46,0a6,6,0,0,1-3.52-1.29,3.75,3.75,0,0,1-1.16-2.93A4.52,4.52,0,0,1,62,4.56a7.32,7.32,0,0,1,4.62-1.39,10,10,0,0,1,4,.84l.24.09.2.06a3,3,0,0,1,.74.33,2,2,0,0,0,1,.36.4.4,0,0,0,.23-.09.7.7,0,0,0,.24-.17l.23.12L71.8,8.35l-.32-.19V8c0-.48-.52-1-1.59-1.5a7.49,7.49,0,0,0-3.24-.76,5.55,5.55,0,0,0-2.51.48c-.67.34-1,.75-1,1.28,0,.82.93,1.29,2.78,1.39a27.72,27.72,0,0,1,3.32.37,6.23,6.23,0,0,1,3.28,1.56,4,4,0,0,1,1.06,2.88,4.43,4.43,0,0,1-1.86,3.67A8,8,0,0,1,66.81,18.82Z" transform="translate(0 -0.43)"/><path class="cls-56" d="M79.49,18.46v-.31a1.11,1.11,0,0,0,.59-.31,1.33,1.33,0,0,0,.16-.78V6.31h-4a1,1,0,0,0-.68.18,1.49,1.49,0,0,0-.31.67H75V2.6h.26a1.35,1.35,0,0,0,.29.67,1.08,1.08,0,0,0,.69.18H87.36a1,1,0,0,0,.71-.2,1.34,1.34,0,0,0,.31-.65h.27V7.16h-.27a1.27,1.27,0,0,0-.29-.65,1,1,0,0,0-.73-.2h-4V17.06a1.32,1.32,0,0,0,.18.78,1.15,1.15,0,0,0,.59.31v.31Z" transform="translate(0 -0.43)"/><path class="cls-57" d="M130.83,9.54V9.39l.31,0a.9.9,0,0,0,.35-.09.57.57,0,0,0,.24-.22.59.59,0,0,0,.07-.31V4.13h-.2l-2.13,5.31h-.1l-2-5.42h-.19v3.8a4.53,4.53,0,0,0,.06.84.91.91,0,0,0,.24.45,1.17,1.17,0,0,0,.43.19l.34.08v.16h-2.36V9.38a2.14,2.14,0,0,0,.35-.06.8.8,0,0,0,.37-.16.7.7,0,0,0,.24-.42,4.39,4.39,0,0,0,.06-.87V4.68a1.28,1.28,0,0,0-.07-.48.81.81,0,0,0-.21-.32.93.93,0,0,0-.37-.19,1.3,1.3,0,0,0-.33-.07V3.47h2l1.84,4.82,1.6-4.11a3.53,3.53,0,0,0,.15-.46c0-.11,0-.19.05-.25h1.88v.15l-.24,0a1,1,0,0,0-.29.07.35.35,0,0,0-.25.22.73.73,0,0,0-.06.3V8.74a.7.7,0,0,0,.06.3.52.52,0,0,0,.24.22,1.08,1.08,0,0,0,.3.09l.25,0v.16Z" transform="translate(0 -0.43)"/><path class="cls-57" d="M135.27,9.54V9.38l.28,0a.94.94,0,0,0,.31-.07.54.54,0,0,0,.24-.2.68.68,0,0,0,.06-.31V4.29A.68.68,0,0,0,136.1,4a.44.44,0,0,0-.24-.22,1.58,1.58,0,0,0-.33-.11l-.26,0V3.47h4.66V4.81h-.18a2.14,2.14,0,0,0-.38-.68,1,1,0,0,0-.61-.44l-.33,0h-1.5V6.29h.79a1.38,1.38,0,0,0,.52-.07.79.79,0,0,0,.31-.24,1.21,1.21,0,0,0,.18-.36,2.49,2.49,0,0,0,.08-.35H139V7.55h-.18a1.55,1.55,0,0,0-.09-.39,1.07,1.07,0,0,0-.17-.37.76.76,0,0,0-.35-.25,1.6,1.6,0,0,0-.48,0h-.79V8.44a2.52,2.52,0,0,0,0,.46.51.51,0,0,0,.19.29.73.73,0,0,0,.35.13l.57,0h.38l.41,0a2.25,2.25,0,0,0,.36-.06.71.71,0,0,0,.29-.15,3.11,3.11,0,0,0,.44-.66c.13-.26.22-.45.27-.58h.17l-.11,1.67Z" transform="translate(0 -0.43)"/><path class="cls-57" d="M142.09,9.54V9.39l.25,0a.76.76,0,0,0,.3-.06.45.45,0,0,0,.23-.2.74.74,0,0,0,.07-.31V4.29a.73.73,0,0,0-.06-.3.45.45,0,0,0-.24-.23,1.41,1.41,0,0,0-.31-.1l-.21,0V3.47h2.64a3.3,3.3,0,0,1,1.08.17,3.22,3.22,0,0,1,.93.45,2.64,2.64,0,0,1,.84,1,3.23,3.23,0,0,1,.3,1.45,2.94,2.94,0,0,1-.29,1.34,2.68,2.68,0,0,1-.76.93,3.19,3.19,0,0,1-1.05.55,4.24,4.24,0,0,1-1.22.18Zm2.44-5.88h-.82V8.55a.67.67,0,0,0,.27.62,1.32,1.32,0,0,0,.76.17,2.46,2.46,0,0,0,1-.2,1.93,1.93,0,0,0,.71-.58,2.74,2.74,0,0,0,.41-.88A4.83,4.83,0,0,0,147,6.54a3.89,3.89,0,0,0-.17-1.17,2.79,2.79,0,0,0-.51-.91,2.36,2.36,0,0,0-.77-.59A2.42,2.42,0,0,0,144.53,3.66Z" transform="translate(0 -0.43)"/><path class="cls-57" d="M149.66,9.54V9.38l.26,0a1,1,0,0,0,.34-.06.44.44,0,0,0,.25-.18.53.53,0,0,0,.08-.32V4.28a.84.84,0,0,0-.05-.29.49.49,0,0,0-.28-.21,1.94,1.94,0,0,0-.34-.11l-.26,0V3.47h2.64v.15l-.25,0a2.29,2.29,0,0,0-.35.08.42.42,0,0,0-.27.21.73.73,0,0,0-.06.3V8.75a.6.6,0,0,0,.07.3.51.51,0,0,0,.26.21,1.37,1.37,0,0,0,.31.08l.29.05v.15Z" transform="translate(0 -0.43)"/><path class="cls-57" d="M157.36,9.54V9.38a2.18,2.18,0,0,0,.51-.08c.07,0,.29-.09.29-.24s0-.08,0-.11l0-.12-.54-1.45h-2.3l0,0c-.08.2-.14.38-.2.54l-.06.18a1.83,1.83,0,0,1-.08.25l-.08.31a1.83,1.83,0,0,0,0,.21c0,.16.11.27.33.35a2,2,0,0,0,.57.11v.16h-2.18V9.38l.22,0a1,1,0,0,0,.31-.13,1.24,1.24,0,0,0,.29-.26,2.19,2.19,0,0,0,.2-.38l1-2.64q.54-1.42,1-2.55h.24l2,5.32a1.1,1.1,0,0,0,.42.53,1.18,1.18,0,0,0,.29.11,1,1,0,0,0,.21,0v.16Zm-2-2.39h2.1l-1.06-2.72Z" transform="translate(0 -0.43)"/><path class="cls-57" d="M129.51,18a2.8,2.8,0,0,1-1.07-.21,2.71,2.71,0,0,1-.89-.59,3,3,0,0,1-.62-.94,3.31,3.31,0,0,1-.22-1.25,3.49,3.49,0,0,1,.21-1.23,3.2,3.2,0,0,1,.62-1,2.79,2.79,0,0,1,.92-.63,3,3,0,0,1,1.15-.23,2.75,2.75,0,0,1,1.49.41l.07,0,.19-.32h.21l0,1.92h-.2a5.17,5.17,0,0,0-.21-.63,2.27,2.27,0,0,0-.34-.61,1.54,1.54,0,0,0-.53-.45,1.58,1.58,0,0,0-.74-.16,1.76,1.76,0,0,0-.84.19,1.79,1.79,0,0,0-.64.56,2.67,2.67,0,0,0-.41.9,4.77,4.77,0,0,0-.14,1.18A4.22,4.22,0,0,0,127.7,16a2.7,2.7,0,0,0,.41.89,2,2,0,0,0,.68.61,1.84,1.84,0,0,0,.92.22,2.23,2.23,0,0,0,.7-.11,1.26,1.26,0,0,0,.46-.26l0,0v0a3.14,3.14,0,0,0,0-.45v-.7a1.16,1.16,0,0,0-.05-.34.44.44,0,0,0-.25-.25,1.36,1.36,0,0,0-.39-.1l-.3,0v-.15h2.44v.15l-.2,0a1.07,1.07,0,0,0-.3.09.43.43,0,0,0-.21.21.62.62,0,0,0-.06.31v1.14a2.09,2.09,0,0,1,0,.24,6.36,6.36,0,0,1-1,.35A4.43,4.43,0,0,1,129.51,18Z" transform="translate(0 -0.43)"/><path class="cls-57" d="M138,17.83c-.34-.53-.66-1-.94-1.41s-.61-.84-.94-1.26l0,0h-.73v2a.88.88,0,0,0,0,.29.39.39,0,0,0,.24.21l.29.06.24,0v.14h-2.35v-.15l.22,0a.85.85,0,0,0,.29-.06.4.4,0,0,0,.22-.2.53.53,0,0,0,.07-.3V12.8a.88.88,0,0,0,0-.29.37.37,0,0,0-.24-.22,1.54,1.54,0,0,0-.29-.07l-.22,0V12h2.66a3,3,0,0,1,.69.08,1.77,1.77,0,0,1,.58.24,1.18,1.18,0,0,1,.39.41,1.25,1.25,0,0,1,.14.61,1.42,1.42,0,0,1-.1.57,1.06,1.06,0,0,1-.29.43,1.5,1.5,0,0,1-.43.3,2.94,2.94,0,0,1-.57.22l-.11,0,.07.1.73,1,.71,1a2.26,2.26,0,0,0,.35.38,2.11,2.11,0,0,0,.31.21l.29.09.21,0v.14Zm-2.63-2.9H136a1.37,1.37,0,0,0,1.43-1.46,1.21,1.21,0,0,0-.34-.91,1.22,1.22,0,0,0-.93-.34h-.79Z" transform="translate(0 -0.43)"/><path class="cls-57" d="M143.45,18a2.72,2.72,0,0,1-2-.85,3,3,0,0,1-.57-1,3.42,3.42,0,0,1-.21-1.21,3.3,3.3,0,0,1,.22-1.26,3,3,0,0,1,.6-1,2.83,2.83,0,0,1,.89-.61,2.78,2.78,0,0,1,1.06-.21,2.74,2.74,0,0,1,2,.82,2.87,2.87,0,0,1,.59,1,3.69,3.69,0,0,1,0,2.51,3,3,0,0,1-.61,1,2.65,2.65,0,0,1-.88.6A2.72,2.72,0,0,1,143.45,18Zm0-5.86a1.58,1.58,0,0,0-.89.24,1.79,1.79,0,0,0-.6.65,2.84,2.84,0,0,0-.33.89,5.06,5.06,0,0,0-.1,1,5.35,5.35,0,0,0,.11,1.11,2.81,2.81,0,0,0,.35.89,1.81,1.81,0,0,0,.6.6,1.6,1.6,0,0,0,.86.22,1.71,1.71,0,0,0,.85-.22,1.75,1.75,0,0,0,.62-.62,2.66,2.66,0,0,0,.35-.88,5.18,5.18,0,0,0,.11-1.1,5,5,0,0,0-.12-1.14,3.08,3.08,0,0,0-.36-.9,1.78,1.78,0,0,0-.61-.58A1.66,1.66,0,0,0,143.45,12.11Z" transform="translate(0 -0.43)"/><path class="cls-57" d="M150.82,18a2.93,2.93,0,0,1-.93-.14,2.1,2.1,0,0,1-.68-.36,1.65,1.65,0,0,1-.4-.52,1.42,1.42,0,0,1-.13-.61V12.82a.61.61,0,0,0-.06-.28.48.48,0,0,0-.23-.21.88.88,0,0,0-.29-.11l-.2,0V12h2.31v.14l-.23,0-.27.06a.36.36,0,0,0-.24.21.74.74,0,0,0-.05.29v3.29a2.21,2.21,0,0,0,.05.51,1.41,1.41,0,0,0,.22.52,1.44,1.44,0,0,0,.47.41,1.83,1.83,0,0,0,.81.15,1.92,1.92,0,0,0,.81-.15,1.27,1.27,0,0,0,.52-.41,1.6,1.6,0,0,0,.26-.5,1.86,1.86,0,0,0,.07-.52V13.64a3.29,3.29,0,0,0-.07-.78.75.75,0,0,0-.22-.44,1.43,1.43,0,0,0-.43-.17l-.33-.07V12h2.27v.14l-.28.05a1.11,1.11,0,0,0-.4.15.66.66,0,0,0-.23.45,4,4,0,0,0-.05.75v2.59a1.63,1.63,0,0,1-.72,1.39,1.94,1.94,0,0,1-.67.31A2.33,2.33,0,0,1,150.82,18Z" transform="translate(0 -0.43)"/><path class="cls-57" d="M155.35,17.83v-.15l.22,0a.85.85,0,0,0,.29-.06.46.46,0,0,0,.22-.19.75.75,0,0,0,.06-.31V12.81a.85.85,0,0,0,0-.29.38.38,0,0,0-.25-.23,1.59,1.59,0,0,0-.33-.08l-.2,0V12H158a2,2,0,0,1,1.3.39,1.21,1.21,0,0,1,.49,1,1.7,1.7,0,0,1-.18.79,1.52,1.52,0,0,1-.48.56,2.1,2.1,0,0,1-.67.33,2.9,2.9,0,0,1-.79.11h-.75V17.1a.65.65,0,0,0,.06.29.39.39,0,0,0,.24.21,1.19,1.19,0,0,0,.29.06l.28,0v.14ZM156.87,15h.51a1.75,1.75,0,0,0,.78-.15,1.11,1.11,0,0,0,.45-.37,1.2,1.2,0,0,0,.2-.45,2.08,2.08,0,0,0,.05-.4,2.22,2.22,0,0,0-.06-.51,1.21,1.21,0,0,0-.21-.46,1,1,0,0,0-.41-.33,1.48,1.48,0,0,0-.63-.12h-.68Z" transform="translate(0 -0.43)"/></g><g class="cls-58"><path class="cls-59" d="M117.34,18.7V18l.11,0a1.23,1.23,0,0,0,.46-.21.32.32,0,0,0,.12-.25,2.09,2.09,0,0,0-.1-.27h0a3.89,3.89,0,0,0-.24-.5l-2.42-3.87-.21-.35h-3.18v4.56c0,.32,0,.52.12.61h0c0,.07.17.17.52.26l.12,0v.73h-5.1V18l.12,0a1,1,0,0,0,.51-.24,1.18,1.18,0,0,0,.12-.64V4.85c0-.42-.08-.57-.12-.61a.86.86,0,0,0-.51-.27l-.12,0V3.21h9.14A6.86,6.86,0,0,1,121,4.41a4,4,0,0,1,1.54,3.35,4.5,4.5,0,0,1-1,3,5.35,5.35,0,0,1-2.67,1.57l2.52,3.94a4,4,0,0,0,.71.87,7.48,7.48,0,0,0,1.18.85l.07,0v.7Zm-1.75-9.29a6.36,6.36,0,0,0,2.57-.4,1.28,1.28,0,0,0,.78-1.21,1.2,1.2,0,0,0-.76-1.13,6.61,6.61,0,0,0-2.73-.4h-3.58V9.41Z" transform="translate(0 -0.43)"/><path class="cls-59" d="M0,18.84v-.71l.11,0a1.5,1.5,0,0,0,.54-.25,1.5,1.5,0,0,0,.09-.61V2a1.23,1.23,0,0,0-.11-.63,1.06,1.06,0,0,0-.51-.23L0,1.15V.43H5.35v.72l-.12,0a.94.94,0,0,0-.5.24A1.13,1.13,0,0,0,4.61,2v15.2a1.08,1.08,0,0,0,.12.61,1.35,1.35,0,0,0,.51.27l.11,0v.69Z" transform="translate(0 -0.43)"/><path class="cls-59" d="M97.63,19.41a8.26,8.26,0,0,1-8.49-8.47,8.21,8.21,0,0,1,8.49-8.46h0a8.32,8.32,0,0,1,6.11,2.39,8.18,8.18,0,0,1,2.42,6.07A8.24,8.24,0,0,1,103.78,17a8.47,8.47,0,0,1-6.11,2.41h0ZM97.63,6a4.35,4.35,0,0,0-3.36,1.38A5.07,5.07,0,0,0,93,10.94a5.05,5.05,0,0,0,1.31,3.62,4.45,4.45,0,0,0,3.4,1.37,4.4,4.4,0,0,0,3.4-1.39,5.08,5.08,0,0,0,1.31-3.6,5.09,5.09,0,0,0-1.31-3.61A4.5,4.5,0,0,0,97.67,6Z" transform="translate(0 -0.43)"/><path class="cls-59" d="M19.64,18.7V18l.11,0a1,1,0,0,0,.41-.18.32.32,0,0,0,.11-.19.25.25,0,0,0,0-.13l0,0v0a.33.33,0,0,0-.1-.15L12.56,8.83v8.23a1,1,0,0,0,.12.61h0a.92.92,0,0,0,.53.26l.11,0v.73H8.69V18l.12,0a1,1,0,0,0,.51-.24,1.3,1.3,0,0,0,.11-.64V4.85c0-.4-.06-.56-.11-.61h0A.89.89,0,0,0,8.81,4l-.12,0V3.21h5.53v.73l-.11,0a1,1,0,0,0-.38.19.19.19,0,0,0-.08.18.3.3,0,0,0,0,.11h0a.8.8,0,0,0,.15.2l7.14,8V4.89a1.28,1.28,0,0,0-.13-.66A1.08,1.08,0,0,0,20.31,4l-.12,0V3.21h4.66v.73l-.11,0a.85.85,0,0,0-.51.26,1.14,1.14,0,0,0-.13.66V17.06a1.15,1.15,0,0,0,.13.64,1,1,0,0,0,.51.24l.11,0v.73Z" transform="translate(0 -0.43)"/><path class="cls-59" d="M31.49,18.7V18l.09,0a1.57,1.57,0,0,0,.54-.3h0a.49.49,0,0,0,.14-.36,1.31,1.31,0,0,0,0-.22,3.08,3.08,0,0,0-.11-.36l-4.63-11,0,0h0c-.4-1-.85-1.53-1.34-1.67l-.12,0V3.21h5.81v.72l-.09,0a1.45,1.45,0,0,0-.56.32h0a.46.46,0,0,0-.11.34,1.42,1.42,0,0,0,0,.31.87.87,0,0,0,.08.26l3.4,8,3.27-8a.78.78,0,0,0,.09-.27,1.42,1.42,0,0,0,0-.31.43.43,0,0,0-.12-.34h0A1.37,1.37,0,0,0,37.24,4l-.1,0V3.21h5.52v.72l-.11,0a2.32,2.32,0,0,0-1.33,1.51l0,.1,0,0v0l-4.52,11a2.68,2.68,0,0,0-.07.27h0a.49.49,0,0,1,0,.12s0,.09,0,.14a.47.47,0,0,0,.13.36h0a1.5,1.5,0,0,0,.58.34l.09,0v.71Z" transform="translate(0 -0.43)"/><path class="cls-59" d="M57.37,19.57l0-.13a1.22,1.22,0,0,0-.24-.61.74.74,0,0,0-.52-.13H43.79V18l.12,0a.85.85,0,0,0,.52-.26h0a1,1,0,0,0,.14-.61V4.85a1,1,0,0,0-.14-.61h0A.85.85,0,0,0,43.91,4l-.12,0V3.21H56.25c.38,0,.5-.07.54-.11a1.4,1.4,0,0,0,.2-.57l0-.13h.7v5H57l0-.13a1.41,1.41,0,0,0-.21-.61c-.08-.08-.25-.11-.53-.11H48.13V9.31H53c.3,0,.48,0,.54-.11a1.58,1.58,0,0,0,.23-.61l0-.11.69,0V13.1h-.69l0-.13a1.09,1.09,0,0,0-.23-.59.75.75,0,0,0-.53-.13H48.13v3.11h8.46a.86.86,0,0,0,.52-.11,1.29,1.29,0,0,0,.24-.62l0-.12h.68v5.06Z" transform="translate(0 -0.43)"/><path class="cls-59" d="M66.89,19.05a12.06,12.06,0,0,1-5.61-1.38,1.82,1.82,0,0,0-.55-.24.23.23,0,0,0-.11,0h0l-.07.14,0,.13-.73-.23,1.59-4.09.81.41L62,14s0,0,0,0a.66.66,0,0,0,0,.15c0,.18.2.55,1.54,1.11a8.7,8.7,0,0,0,3.29.66,5.91,5.91,0,0,0,2.7-.52,1.45,1.45,0,0,0,1-1.27c0-.74-1.12-1.18-3.32-1.31l-1.7-.12-.46,0a6.21,6.21,0,0,1-3.65-1.34,4,4,0,0,1-1.24-3.11,4.73,4.73,0,0,1,1.82-3.85,7.5,7.5,0,0,1,4.76-1.44,10.14,10.14,0,0,1,4,.86l.24.08.14.05a2.06,2.06,0,0,1,.83.35,1.87,1.87,0,0,0,.84.34.21.21,0,0,0,.1,0h0a.7.7,0,0,0,.2-.16l.08-.08.59.29L72,8.69l-.68-.41V8.19a.19.19,0,0,1,0-.08V8c0-.26-.26-.69-1.46-1.29A7.29,7.29,0,0,0,66.73,6a5.36,5.36,0,0,0-2.4.46c-.58.29-.87.64-.87,1.07,0,.67.87,1.06,2.57,1.15a30.15,30.15,0,0,1,3.34.38,6.42,6.42,0,0,1,3.41,1.63,4.19,4.19,0,0,1,1.13,3,4.69,4.69,0,0,1-2,3.86A8.25,8.25,0,0,1,66.89,19.05Z" transform="translate(0 -0.43)"/><path class="cls-59" d="M79.34,18.7V18l.11,0A1.1,1.1,0,0,0,80,17.7a1.27,1.27,0,0,0,.11-.64V6.55H76.3a.88.88,0,0,0-.53.12,1.8,1.8,0,0,0-.25.62l0,.11h-.67v-5h.7l0,.13a1.08,1.08,0,0,0,.23.6.88.88,0,0,0,.53.12H87.44A.79.79,0,0,0,88,3.08h0s.15-.17.24-.59l0-.12H89v5h-.69l0-.13A1.28,1.28,0,0,0,88,6.68s-.18-.13-.57-.13H83.68V17.06a1.1,1.1,0,0,0,.13.64,1,1,0,0,0,.52.24l.12,0v.73Z" transform="translate(0 -0.43)"/><path class="cls-59" d="M130.63,9.74V9.19h.12l.37,0a.86.86,0,0,0,.28-.06.53.53,0,0,0,.15-.15.41.41,0,0,0,0-.21V4.84l-.06,0-1.93,4.82h-.38l-1.82-4.86h-.06v3a4,4,0,0,0,.06.79.67.67,0,0,0,.17.34,1,1,0,0,0,.36.15,2.09,2.09,0,0,0,.36.09h.12v.55h-2.76V9.2h.11a3.06,3.06,0,0,0,.4-.07.55.55,0,0,0,.29-.12.57.57,0,0,0,.17-.31,4.91,4.91,0,0,0,.05-.82V4.68a1.15,1.15,0,0,0-.06-.41.6.6,0,0,0-.16-.24.63.63,0,0,0-.28-.15,1.23,1.23,0,0,0-.36-.06h-.12V3.26H128l1.7,4.47,1.41-3.62a3.73,3.73,0,0,0,.14-.44,1.46,1.46,0,0,0,.06-.29V3.26h2.28v.56h-.12a1.37,1.37,0,0,0-.3,0,.88.88,0,0,0-.26.06c-.09,0-.12.07-.13.11a.51.51,0,0,0,0,.22V8.74a.46.46,0,0,0,0,.21.33.33,0,0,0,.15.13l.25.07.3,0h.12v.55Z" transform="translate(0 -0.43)"/><path class="cls-59" d="M135.07,9.74V9.2h.11l.35,0a.62.62,0,0,0,.25-.05.28.28,0,0,0,.14-.12.56.56,0,0,0,0-.21V4.29a.46.46,0,0,0,0-.21.24.24,0,0,0-.14-.12l-.3-.09a1.53,1.53,0,0,0-.3-.05h-.11V3.26h5.07V5h-.55l0-.09a1.85,1.85,0,0,0-.36-.67.82.82,0,0,0-.48-.36l-.31,0h-1.28V6.09h.58a1.52,1.52,0,0,0,.45,0,.63.63,0,0,0,.22-.18.93.93,0,0,0,.15-.3,1.84,1.84,0,0,0,.08-.38V5.07h.56V7.75h-.56V7.64a1.87,1.87,0,0,0-.09-.42.84.84,0,0,0-.14-.3.43.43,0,0,0-.25-.18,1.2,1.2,0,0,0-.42,0h-.58V8.44a2.07,2.07,0,0,0,0,.41.33.33,0,0,0,.11.18.66.66,0,0,0,.25.09l.55,0h.38l.39,0a1.91,1.91,0,0,0,.33-.06.39.39,0,0,0,.19-.09,2.55,2.55,0,0,0,.41-.61,5.32,5.32,0,0,0,.27-.61l0-.09h.53l-.13,2.08Z" transform="translate(0 -0.43)"/><path class="cls-59" d="M141.88,9.74V9.19H142l.32,0,.23,0a.28.28,0,0,0,.14-.12.41.41,0,0,0,.05-.21V4.29a.54.54,0,0,0-.05-.22.26.26,0,0,0-.14-.13.88.88,0,0,0-.26-.08,1.27,1.27,0,0,0-.26,0h-.11V3.26h2.84a3.8,3.8,0,0,1,1.15.19,3.32,3.32,0,0,1,1,.48,2.85,2.85,0,0,1,.9,1.07,3.5,3.5,0,0,1,.32,1.54A3,3,0,0,1,147.8,8,3,3,0,0,1,147,9a3.51,3.51,0,0,1-1.12.58,4.32,4.32,0,0,1-1.28.19Zm2.65-5.88h-.62V8.55a.48.48,0,0,0,.18.45,1.21,1.21,0,0,0,.65.14,2,2,0,0,0,.92-.19,1.52,1.52,0,0,0,.63-.51,2.33,2.33,0,0,0,.38-.81,4.43,4.43,0,0,0,.12-1.09,3.4,3.4,0,0,0-.16-1.1,2.4,2.4,0,0,0-.46-.85,2.1,2.1,0,0,0-.71-.53A2.15,2.15,0,0,0,144.53,3.86Z" transform="translate(0 -0.43)"/><path class="cls-59" d="M149.46,9.74V9.2h.11l.34,0a1.07,1.07,0,0,0,.28,0,.41.41,0,0,0,.16-.11.41.41,0,0,0,0-.21V4.28a.56.56,0,0,0,0-.2.32.32,0,0,0-.17-.12l-.31-.09a1.73,1.73,0,0,0-.31-.05h-.11V3.26h3v.56h-.11l-.31,0a1.61,1.61,0,0,0-.31.07.24.24,0,0,0-.16.11.46.46,0,0,0,0,.21V8.75a.33.33,0,0,0,.05.2.3.3,0,0,0,.16.12,1,1,0,0,0,.27.07,1.74,1.74,0,0,0,.34,0h.11v.55Z" transform="translate(0 -0.43)"/><path class="cls-59" d="M157.16,9.74V9.2h.11a3,3,0,0,0,.55-.09l.12,0,0,0V9s0-.06,0-.07l-.49-1.33h-2v0l-.16.44-.06.18c0,.08-.05.16-.07.24a2.65,2.65,0,0,0-.08.29.71.71,0,0,0,0,.17c0,.08.11.13.2.16a2.06,2.06,0,0,0,.59.11h.11v.55h-2.59V9.2h.11a1.57,1.57,0,0,0,.27,0A.82.82,0,0,0,154,9a1,1,0,0,0,.24-.22,1.24,1.24,0,0,0,.17-.33c.34-.84.69-1.73,1-2.63l1-2.61,0-.07H157l2.11,5.45a1.42,1.42,0,0,0,.13.25,1,1,0,0,0,.21.18,1.1,1.1,0,0,0,.23.09l.24,0H160v.55ZM155.67,7h1.52l-.77-2Z" transform="translate(0 -0.43)"/><path class="cls-59" d="M129.51,18.17a3,3,0,0,1-1.14-.23,2.72,2.72,0,0,1-1-.63,2.86,2.86,0,0,1-.66-1,3.63,3.63,0,0,1,0-2.62,3,3,0,0,1,.66-1,2.87,2.87,0,0,1,1-.68,3.12,3.12,0,0,1,1.22-.24,2.73,2.73,0,0,1,.91.13,3.13,3.13,0,0,1,.56.23h0l.15-.24h.52l0,2.32h-.56l0-.09q-.09-.33-.21-.66a2.27,2.27,0,0,0-.32-.57,1.57,1.57,0,0,0-.46-.39,1.45,1.45,0,0,0-.65-.14,1.51,1.51,0,0,0-.75.17,1.68,1.68,0,0,0-.57.5,2.54,2.54,0,0,0-.37.83,4.43,4.43,0,0,0,0,2.17,2.82,2.82,0,0,0,.38.82,1.77,1.77,0,0,0,.61.55,1.62,1.62,0,0,0,.83.2,1.81,1.81,0,0,0,.63-.1,1.39,1.39,0,0,0,.35-.18h0l0-.37v-.7a1,1,0,0,0,0-.27.22.22,0,0,0-.14-.13,1.09,1.09,0,0,0-.34-.09l-.36,0h-.11V15.1h2.84v.54h-.1l-.27,0a1,1,0,0,0-.24.07.23.23,0,0,0-.12.12.48.48,0,0,0,0,.22v1.13c0,.12,0,.22,0,.29v.08l-.07,0a6.59,6.59,0,0,1-1.13.39A4.91,4.91,0,0,1,129.51,18.17Z" transform="translate(0 -0.43)"/><path class="cls-59" d="M137.92,18l0-.06c-.34-.53-.66-1-1-1.43s-.58-.8-.88-1.19v0h-.43V17.1a.46.46,0,0,0,0,.21.18.18,0,0,0,.13.1.63.63,0,0,0,.23.05l.31,0h.12V18h-2.76V17.5h.11l.29,0a1.21,1.21,0,0,0,.23,0,.22.22,0,0,0,.12-.11.41.41,0,0,0,.05-.21V12.8a.72.72,0,0,0,0-.22s-.06-.07-.12-.1l-.26-.06a1.76,1.76,0,0,0-.27,0h-.11v-.53h2.86a3.43,3.43,0,0,1,.74.08,2,2,0,0,1,.64.27,1.3,1.3,0,0,1,.45.48,1.31,1.31,0,0,1,.17.71,1.67,1.67,0,0,1-.11.65,1.43,1.43,0,0,1-.34.5,1.7,1.7,0,0,1-.48.33l-.4.17h0l0,0,.6.81c.2.26.43.59.72,1a1.4,1.4,0,0,0,.31.35,1.48,1.48,0,0,0,.27.19,1,1,0,0,0,.24.07l.26,0h.11V18Zm-2.32-3.3H136a1.17,1.17,0,0,0,1.23-1.26,1,1,0,0,0-1.07-1.05h-.59Z" transform="translate(0 -0.43)"/><path class="cls-59" d="M143.45,18.17a3,3,0,0,1-1.19-.24,2.81,2.81,0,0,1-.95-.68,3.15,3.15,0,0,1-.61-1,3.69,3.69,0,0,1-.23-1.29,3.52,3.52,0,0,1,.24-1.34,3.18,3.18,0,0,1,.65-1,2.84,2.84,0,0,1,2.09-.88,3.09,3.09,0,0,1,1.17.23,2.69,2.69,0,0,1,.94.65,3.09,3.09,0,0,1,.64,1,3.57,3.57,0,0,1,.23,1.33,3.71,3.71,0,0,1-.23,1.33,3,3,0,0,1-.66,1,2.76,2.76,0,0,1-.94.64A3,3,0,0,1,143.45,18.17Zm0-5.86a1.38,1.38,0,0,0-.78.21,1.77,1.77,0,0,0-.54.58,3,3,0,0,0-.3.83,4.74,4.74,0,0,0-.1,1,4.86,4.86,0,0,0,.11,1.06,2.93,2.93,0,0,0,.32.83,1.64,1.64,0,0,0,.54.54,1.54,1.54,0,0,0,1.5,0,1.5,1.5,0,0,0,.55-.54,2.93,2.93,0,0,0,.32-.83,5.08,5.08,0,0,0,0-2.15,2.72,2.72,0,0,0-.33-.83,1.67,1.67,0,0,0-.54-.52A1.5,1.5,0,0,0,143.45,12.31Z" transform="translate(0 -0.43)"/><path class="cls-59" d="M150.82,18.17a3.33,3.33,0,0,1-1-.14,2.46,2.46,0,0,1-.75-.41,1.69,1.69,0,0,1-.45-.59,1.65,1.65,0,0,1-.15-.69V12.82a.53.53,0,0,0,0-.19.41.41,0,0,0-.15-.13.76.76,0,0,0-.23-.08l-.25,0h-.11v-.53h2.71v.53h-.11l-.28,0-.24.06a.18.18,0,0,0-.12.1.52.52,0,0,0,0,.21v3.29a1.93,1.93,0,0,0,0,.47,1.11,1.11,0,0,0,.19.45,1,1,0,0,0,.4.34,1.5,1.5,0,0,0,.71.13,1.85,1.85,0,0,0,.72-.13,1.24,1.24,0,0,0,.45-.35,1.21,1.21,0,0,0,.22-.44,1.47,1.47,0,0,0,.07-.46V13.64a3.73,3.73,0,0,0-.06-.74.55.55,0,0,0-.15-.31,1.22,1.22,0,0,0-.36-.15,1.8,1.8,0,0,0-.37-.06h-.11v-.53h2.67v.53h-.11a1.69,1.69,0,0,0-.33,0,.86.86,0,0,0-.32.12c-.09,0-.13.2-.15.32a4.53,4.53,0,0,0,0,.71v2.59a1.92,1.92,0,0,1-.22.92,2.09,2.09,0,0,1-.58.64,2.61,2.61,0,0,1-.74.34A2.73,2.73,0,0,1,150.82,18.17Z" transform="translate(0 -0.43)"/><path class="cls-59" d="M155.15,18V17.5h.11l.29,0a1.21,1.21,0,0,0,.23,0,.22.22,0,0,0,.12-.11.41.41,0,0,0,0-.21V12.81a.8.8,0,0,0,0-.23.24.24,0,0,0-.13-.1,1.37,1.37,0,0,0-.29-.07l-.26,0h-.11v-.53H158a2.25,2.25,0,0,1,1.43.43,1.41,1.41,0,0,1,.56,1.16,2.1,2.1,0,0,1-.19.88,1.86,1.86,0,0,1-.55.63,2,2,0,0,1-.74.36,2.89,2.89,0,0,1-.84.12h-.54V17.1a.66.66,0,0,0,0,.21.22.22,0,0,0,.14.1.86.86,0,0,0,.23.05l.34,0h.12V18Zm1.93-3.22h.3a1.52,1.52,0,0,0,.69-.13.88.88,0,0,0,.37-.31,1,1,0,0,0,.18-.37,2.63,2.63,0,0,0,0-.36,2.31,2.31,0,0,0,0-.46,1.17,1.17,0,0,0-.18-.39.93.93,0,0,0-.34-.27,1.38,1.38,0,0,0-.54-.09h-.47Z" transform="translate(0 -0.43)"/><path class="cls-59" d="M122,17.22a4.5,4.5,0,0,1-.73-.89l-2.63-4.12a5.28,5.28,0,0,0,2.79-1.58,4.3,4.3,0,0,0,1-2.87,3.89,3.89,0,0,0-1.48-3.23,6.66,6.66,0,0,0-4.18-1.16h-9v.45a1.05,1.05,0,0,1,.59.32,1.15,1.15,0,0,1,.16.71V17.06a1.27,1.27,0,0,1-.16.73,1.19,1.19,0,0,1-.59.3v.45h4.78v-.45a1.12,1.12,0,0,1-.61-.32,1.1,1.1,0,0,1-.16-.71V12.35h3.43l.25.42,2.42,3.87a3.16,3.16,0,0,1,.25.52,1.5,1.5,0,0,1,.12.34.48.48,0,0,1-.17.37,1.4,1.4,0,0,1-.52.24v.43h5.68v-.45A7.86,7.86,0,0,1,122,17.22Zm-6.37-7.66h-3.88V6.12h3.74a6.84,6.84,0,0,1,2.79.41,1.33,1.33,0,0,1,.85,1.27,1.41,1.41,0,0,1-.87,1.34A6.23,6.23,0,0,1,115.59,9.56Z" transform="translate(0 -0.43)"/><path class="cls-59" d="M.15,1a1.18,1.18,0,0,1,.6.29A1.28,1.28,0,0,1,.89,2v15.2a1.41,1.41,0,0,1-.12.69,1.23,1.23,0,0,1-.62.32v.44h5v-.43A1.43,1.43,0,0,1,4.61,18a1.2,1.2,0,0,1-.15-.71V2a1.26,1.26,0,0,1,.15-.72A1.23,1.23,0,0,1,5.19,1V.59h-5Z" transform="translate(0 -0.43)"/><path class="cls-59" d="M103.67,5a8.1,8.1,0,0,0-6-2.35h0a8.07,8.07,0,0,0-8.34,8.31,8.1,8.1,0,0,0,8.34,8.32h0a8.26,8.26,0,0,0,6-2.37,8,8,0,0,0,2.37-6A8,8,0,0,0,103.67,5Zm-2.49,9.66a4.56,4.56,0,0,1-3.51,1.44,4.63,4.63,0,0,1-3.51-1.41,5.21,5.21,0,0,1-1.35-3.73,5.15,5.15,0,0,1,1.35-3.69,4.49,4.49,0,0,1,3.47-1.44h0a4.62,4.62,0,0,1,3.51,1.42,5.2,5.2,0,0,1,1.35,3.71A5.19,5.19,0,0,1,101.18,14.64Z" transform="translate(0 -0.43)"/><path class="cls-59" d="M20.34,3.82a1.19,1.19,0,0,1,.64.32,1.39,1.39,0,0,1,.16.75v8.17L13.73,4.77a2,2,0,0,1-.19-.26.59.59,0,0,1,0-.17.36.36,0,0,1,.14-.3,1.14,1.14,0,0,1,.43-.22V3.37H8.85v.45a1.05,1.05,0,0,1,.59.32,1.18,1.18,0,0,1,.14.71V17.06a1.29,1.29,0,0,1-.14.73,1.19,1.19,0,0,1-.59.3v.45h4.33v-.45a1.08,1.08,0,0,1-.61-.32,1.1,1.1,0,0,1-.16-.71V8.43l7.82,8.71a.61.61,0,0,1,.13.22.39.39,0,0,1,.06.21.45.45,0,0,1-.16.3,1.21,1.21,0,0,1-.47.22v.45H24.7v-.45a1.18,1.18,0,0,1-.6-.3,1.37,1.37,0,0,1-.15-.73V4.89a1.4,1.4,0,0,1,.15-.75,1,1,0,0,1,.6-.32V3.37H20.34Z" transform="translate(0 -0.43)"/><path class="cls-59" d="M37.3,3.82a1.61,1.61,0,0,1,.61.36.6.6,0,0,1,.16.45,1.83,1.83,0,0,1,0,.34,1.05,1.05,0,0,1-.1.3l-3.4,8.31L31,5.27a1.05,1.05,0,0,1-.1-.3,1.83,1.83,0,0,1,0-.34.6.6,0,0,1,.16-.45,1.53,1.53,0,0,1,.61-.36V3.37h-5.5v.45c.55.16,1,.75,1.44,1.76l0,0,4.63,11a2.6,2.6,0,0,1,.12.38,1.17,1.17,0,0,1,0,.26.63.63,0,0,1-.18.47,1.51,1.51,0,0,1-.59.34v.45H37.2v-.45a1.55,1.55,0,0,1-.63-.38.63.63,0,0,1-.18-.47c0-.1,0-.2,0-.28a2.49,2.49,0,0,1,.08-.32L41,5.62a1,1,0,0,1,.08-.2,2.43,2.43,0,0,1,1.42-1.6V3.37H37.3Z" transform="translate(0 -0.43)"/><path class="cls-59" d="M57.22,15.36a.94.94,0,0,1-.63.16H48V12.09H53a.87.87,0,0,1,.64.18,1.28,1.28,0,0,1,.28.67h.41V8.61l-.41,0a1.7,1.7,0,0,1-.26.67c-.1.12-.32.16-.66.16H48v-3h8.27a.87.87,0,0,1,.63.16,1.37,1.37,0,0,1,.26.69h.42V2.55h-.42a1.56,1.56,0,0,1-.24.66.93.93,0,0,1-.65.16H43.94v.45a1,1,0,0,1,.62.32,1.15,1.15,0,0,1,.17.71V17.06a1.15,1.15,0,0,1-.17.71,1,1,0,0,1-.62.32v.45H56.59a.89.89,0,0,1,.63.18,1.36,1.36,0,0,1,.28.69h.39V14.66H57.5A1.58,1.58,0,0,1,57.22,15.36Z" transform="translate(0 -0.43)"/><path class="cls-59" d="M69.34,9.2A29.16,29.16,0,0,0,66,8.83c-1.8-.1-2.71-.54-2.71-1.31,0-.49.32-.89,1-1.21a5.51,5.51,0,0,1,2.47-.47,7.54,7.54,0,0,1,3.21.75c1,.52,1.54,1,1.54,1.43v.12s0,0,0,0l.46.28,1.66-3.8-.36-.18a.92.92,0,0,1-.25.2.37.37,0,0,1-.2.08,2,2,0,0,1-.91-.36,2.7,2.7,0,0,0-.77-.33s-.18-.06-.42-.14a10,10,0,0,0-4-.85A7.34,7.34,0,0,0,62,4.49a4.59,4.59,0,0,0-1.76,3.74,3.84,3.84,0,0,0,1.19,3A6,6,0,0,0,65,12.53l2.16.16c2.31.14,3.46.61,3.46,1.46a1.61,1.61,0,0,1-1,1.41,6.06,6.06,0,0,1-2.77.53,8.66,8.66,0,0,1-3.34-.67c-1.11-.46-1.65-.87-1.65-1.25a1,1,0,0,1,0-.2s0-.08,0-.1l-.47-.23L60,17.42l.44.13a.64.64,0,0,1,.12-.21.58.58,0,0,1,.22-.06,2.31,2.31,0,0,1,.61.25,11.77,11.77,0,0,0,5.54,1.37,8,8,0,0,0,5-1.45,4.5,4.5,0,0,0,1.9-3.73,4.07,4.07,0,0,0-1.09-2.93A6.19,6.19,0,0,0,69.34,9.2Z" transform="translate(0 -0.43)"/><path class="cls-59" d="M88.1,3.19a.93.93,0,0,1-.66.18H76.3a1,1,0,0,1-.63-.16,1.28,1.28,0,0,1-.28-.69H75V7.25h.39a1.79,1.79,0,0,1,.3-.7,1,1,0,0,1,.63-.16h3.94V17.06a1.29,1.29,0,0,1-.14.73,1.18,1.18,0,0,1-.61.3v.45H84.3v-.45a1.18,1.18,0,0,1-.62-.3,1.28,1.28,0,0,1-.15-.73V6.39h3.91a1,1,0,0,1,.68.18,1.36,1.36,0,0,1,.27.68h.42V2.52h-.42A1.36,1.36,0,0,1,88.1,3.19Z" transform="translate(0 -0.43)"/><path class="cls-59" d="M133.5,9.62h-2.75V9.31l.38,0a1.11,1.11,0,0,0,.33-.08.53.53,0,0,0,.2-.19.54.54,0,0,0,.06-.27V4.21h-.07l-2.12,5.31h-.22l-2-5.42h0V7.82a4.22,4.22,0,0,0,.06.82.79.79,0,0,0,.21.4,1,1,0,0,0,.4.18,2,2,0,0,0,.4.09v.31h-2.52V9.31a3.67,3.67,0,0,0,.42-.07.84.84,0,0,0,.33-.14.62.62,0,0,0,.21-.38,4.22,4.22,0,0,0,.06-.85V4.68a1.12,1.12,0,0,0-.07-.45.65.65,0,0,0-.18-.29,1,1,0,0,0-.34-.18,1.76,1.76,0,0,0-.39-.06V3.39H128l1.78,4.67,1.53-3.91c.05-.14.1-.29.14-.45a1.68,1.68,0,0,0,.06-.31h2V3.7a1.39,1.39,0,0,0-.32,0l-.28.06a.36.36,0,0,0-.2.18.76.76,0,0,0,0,.27V8.74a.67.67,0,0,0,0,.26.45.45,0,0,0,.2.18,1.31,1.31,0,0,0,.28.09l.32,0Z" transform="translate(0 -0.43)"/><path class="cls-59" d="M140.48,7.78l-.11,1.84h-5.18V9.31l.35,0a1.36,1.36,0,0,0,.29-.06A.36.36,0,0,0,136,9a.54.54,0,0,0,.06-.27V4.29A.71.71,0,0,0,136,4a.4.4,0,0,0-.2-.18,1.52,1.52,0,0,0-.32-.1,1.57,1.57,0,0,0-.32,0V3.39H140v1.5h-.32a2.16,2.16,0,0,0-.38-.71.93.93,0,0,0-.56-.41l-.33,0H137V6.21h.71a1.46,1.46,0,0,0,.49-.06.83.83,0,0,0,.28-.22,1,1,0,0,0,.16-.34,1.53,1.53,0,0,0,.09-.4h.33V7.63h-.33a2,2,0,0,0-.09-.45,1.84,1.84,0,0,0-.16-.34.69.69,0,0,0-.31-.22,1.5,1.5,0,0,0-.46,0H137V8.44a2.36,2.36,0,0,0,0,.44.44.44,0,0,0,.16.25.75.75,0,0,0,.31.11l.56,0h.38l.4,0a2.14,2.14,0,0,0,.35-.06.45.45,0,0,0,.25-.13,2.6,2.6,0,0,0,.43-.64,4.44,4.44,0,0,0,.28-.63Z" transform="translate(0 -0.43)"/><path class="cls-59" d="M148,6.54a3,3,0,0,1-.3,1.38,2.84,2.84,0,0,1-.78,1,3.25,3.25,0,0,1-1.08.55,4,4,0,0,1-1.24.19H142V9.31l.34,0a1,1,0,0,0,.27,0,.45.45,0,0,0,.19-.17.54.54,0,0,0,.06-.27V4.29a.76.76,0,0,0-.05-.27.46.46,0,0,0-.2-.19,1.49,1.49,0,0,0-.3-.09,1.6,1.6,0,0,0-.27,0V3.39h2.72a3.48,3.48,0,0,1,1.11.17,3.13,3.13,0,0,1,.95.47,2.76,2.76,0,0,1,.86,1A3.31,3.31,0,0,1,148,6.54Zm-1.08,0a3.7,3.7,0,0,0-.16-1.14,2.44,2.44,0,0,0-.49-.88,2.19,2.19,0,0,0-.74-.57,2.28,2.28,0,0,0-1-.21h-.74V8.55a.64.64,0,0,0,.23.56,1.38,1.38,0,0,0,.72.15,2.24,2.24,0,0,0,1-.2,1.68,1.68,0,0,0,.68-.55,2.38,2.38,0,0,0,.4-.85A4.75,4.75,0,0,0,146.91,6.54Z" transform="translate(0 -0.43)"/><path class="cls-59" d="M152.38,9.62h-2.8V9.31l.34,0a1.3,1.3,0,0,0,.31,0,.47.47,0,0,0,.22-.16.49.49,0,0,0,.06-.27V4.28a.47.47,0,0,0,0-.25.37.37,0,0,0-.23-.18,2.25,2.25,0,0,0-.33-.1,1.57,1.57,0,0,0-.32,0V3.39h2.8V3.7l-.32,0a2.09,2.09,0,0,0-.33.07.42.42,0,0,0-.23.17.76.76,0,0,0-.05.27V8.75a.55.55,0,0,0,.06.26.44.44,0,0,0,.22.17,1.51,1.51,0,0,0,.3.08,1.82,1.82,0,0,0,.35.05Z" transform="translate(0 -0.43)"/><path class="cls-59" d="M159.88,9.62h-2.6V9.31a3.42,3.42,0,0,0,.57-.09c.15,0,.23-.1.23-.16s0-.06,0-.1l0-.1-.52-1.4h-2.18c-.08.21-.15.39-.2.54s-.1.29-.14.42-.06.23-.08.31a1.76,1.76,0,0,0,0,.19c0,.12.09.21.28.27a2,2,0,0,0,.62.12v.31h-2.35V9.31a2,2,0,0,0,.29-.05,1.09,1.09,0,0,0,.28-.11,1.11,1.11,0,0,0,.27-.25,1.49,1.49,0,0,0,.19-.36c.32-.78.66-1.66,1-2.64s.71-1.84,1-2.6h.35L159,8.67a.82.82,0,0,0,.15.28,1,1,0,0,0,.23.21,1.18,1.18,0,0,0,.27.1,1,1,0,0,0,.27.05Zm-2.52-2.55-.94-2.41-.93,2.41Z" transform="translate(0 -0.43)"/><path class="cls-59" d="M132.46,15.53l-.27,0a1.25,1.25,0,0,0-.27.08.32.32,0,0,0-.18.18.54.54,0,0,0-.05.27v1.14c0,.12,0,.21,0,.29a6.94,6.94,0,0,1-1.11.38,4.59,4.59,0,0,1-1.09.14,2.81,2.81,0,0,1-1.1-.22,2.6,2.6,0,0,1-.92-.61,3,3,0,0,1-.63-1,3.28,3.28,0,0,1-.24-1.28,3.48,3.48,0,0,1,.23-1.26,3.19,3.19,0,0,1,.63-1,3,3,0,0,1,1-.65,3.1,3.1,0,0,1,1.18-.23,2.78,2.78,0,0,1,1.54.42l.17-.29h.33l0,2.08h-.34a5.39,5.39,0,0,0-.22-.68,2.28,2.28,0,0,0-.34-.59,1.49,1.49,0,0,0-.5-.43,1.51,1.51,0,0,0-.7-.15,1.71,1.71,0,0,0-.8.18,1.76,1.76,0,0,0-.62.54,2.5,2.5,0,0,0-.39.87,4.61,4.61,0,0,0-.14,1.16,4.13,4.13,0,0,0,.14,1.07,2.72,2.72,0,0,0,.39.86,1.92,1.92,0,0,0,.65.59,1.86,1.86,0,0,0,.89.21,1.81,1.81,0,0,0,.67-.11,1.19,1.19,0,0,0,.43-.24c0-.14,0-.29,0-.44v-.7a1,1,0,0,0,0-.31.31.31,0,0,0-.2-.2,1.1,1.1,0,0,0-.37-.1l-.37,0v-.3h2.6Z" transform="translate(0 -0.43)"/><path class="cls-59" d="M139.58,17.91H138q-.53-.84-1-1.44t-.93-1.26h-.61V17.1a.55.55,0,0,0,.05.26.32.32,0,0,0,.19.17,1.65,1.65,0,0,0,.27,0l.32,0v.3h-2.52v-.3l.29,0a1,1,0,0,0,.27,0,.4.4,0,0,0,.18-.16.54.54,0,0,0,.06-.27V12.8a.71.71,0,0,0-.05-.26c0-.08-.09-.13-.19-.17a1.26,1.26,0,0,0-.28-.07,1.7,1.7,0,0,0-.28,0V12h2.74a3.15,3.15,0,0,1,.71.08,1.78,1.78,0,0,1,.6.25,1.26,1.26,0,0,1,.42.44,1.3,1.3,0,0,1,.15.65,1.57,1.57,0,0,1-.1.6,1.33,1.33,0,0,1-.31.46,1.8,1.8,0,0,1-.45.31A3.15,3.15,0,0,1,137,15l.74,1,.71,1a2.12,2.12,0,0,0,.33.37,1.66,1.66,0,0,0,.3.19.85.85,0,0,0,.27.09l.27,0Zm-2.2-4.44a1.09,1.09,0,0,0-1.19-1.17h-.71v2.55H136a1.31,1.31,0,0,0,1-.37A1.33,1.33,0,0,0,137.38,13.47Z" transform="translate(0 -0.43)"/><path class="cls-59" d="M145.47,12.66a2.91,2.91,0,0,1,.62,1,3.47,3.47,0,0,1,.22,1.28,3.57,3.57,0,0,1-.22,1.29,3,3,0,0,1-.63,1,2.59,2.59,0,0,1-.91.62,2.7,2.7,0,0,1-1.1.22,2.87,2.87,0,0,1-1.14-.23,2.81,2.81,0,0,1-.91-.65,2.87,2.87,0,0,1-.59-1,3.59,3.59,0,0,1-.21-1.24,3.49,3.49,0,0,1,.22-1.29,3,3,0,0,1,.63-1,2.59,2.59,0,0,1,.91-.62,2.72,2.72,0,0,1,1.09-.22,2.8,2.8,0,0,1,1.12.22A2.73,2.73,0,0,1,145.47,12.66Zm-.62,4.22a2.62,2.62,0,0,0,.34-.86,5.05,5.05,0,0,0,.11-1.08,4.87,4.87,0,0,0-.12-1.12,2.88,2.88,0,0,0-.35-.87,1.72,1.72,0,0,0-.58-.56,1.61,1.61,0,0,0-.8-.2,1.54,1.54,0,0,0-.85.23A1.7,1.7,0,0,0,142,13a2.91,2.91,0,0,0-.32.86,5,5,0,0,0-.1,1,5.15,5.15,0,0,0,.11,1.09,2.86,2.86,0,0,0,.34.86,1.67,1.67,0,0,0,.57.58,1.54,1.54,0,0,0,.82.21,1.58,1.58,0,0,0,.81-.21A1.67,1.67,0,0,0,144.85,16.88Z" transform="translate(0 -0.43)"/><path class="cls-59" d="M153.93,12.26a2,2,0,0,0-.34.05,1.06,1.06,0,0,0-.37.14.55.55,0,0,0-.2.39,4,4,0,0,0-.05.74v2.59a1.71,1.71,0,0,1-.21.86,1.94,1.94,0,0,1-.54.6,2.11,2.11,0,0,1-.7.32,2.47,2.47,0,0,1-.7.1,3.06,3.06,0,0,1-.95-.14,2.09,2.09,0,0,1-.71-.38,1.47,1.47,0,0,1-.42-.55,1.42,1.42,0,0,1-.14-.64V12.82a.6.6,0,0,0,0-.24.45.45,0,0,0-.2-.18,1.18,1.18,0,0,0-.27-.1,1.66,1.66,0,0,0-.26,0V12h2.47v.3a1.17,1.17,0,0,0-.29,0l-.26.06a.31.31,0,0,0-.2.17.69.69,0,0,0,0,.25v3.29a2.23,2.23,0,0,0,.05.5,1.18,1.18,0,0,0,.21.49,1.15,1.15,0,0,0,.44.37,1.65,1.65,0,0,0,.77.15,1.73,1.73,0,0,0,.77-.15,1.21,1.21,0,0,0,.5-.38,1.61,1.61,0,0,0,.24-.47,1.77,1.77,0,0,0,.07-.5V13.64a3.16,3.16,0,0,0-.07-.76.64.64,0,0,0-.19-.39,1,1,0,0,0-.4-.16,2,2,0,0,0-.39-.07V12h2.43Z" transform="translate(0 -0.43)"/><path class="cls-59" d="M159.82,13.43a1.8,1.8,0,0,1-.18.82,1.62,1.62,0,0,1-.51.59,2,2,0,0,1-.7.35,3,3,0,0,1-.81.11H157v1.8a.71.71,0,0,0,0,.26.38.38,0,0,0,.2.17,1.65,1.65,0,0,0,.27,0l.35,0v.3h-2.55v-.3l.29,0a1,1,0,0,0,.26,0,.38.38,0,0,0,.19-.16.68.68,0,0,0,.05-.27V12.81a.77.77,0,0,0,0-.27.29.29,0,0,0-.2-.17,1.77,1.77,0,0,0-.31-.08l-.27,0V12H158a2.11,2.11,0,0,1,1.35.4A1.27,1.27,0,0,1,159.82,13.43Zm-1.28,1a1,1,0,0,0,.19-.42,1.89,1.89,0,0,0,.05-.38,2.12,2.12,0,0,0-.06-.49,1,1,0,0,0-.19-.43,1.1,1.1,0,0,0-.39-.31,1.48,1.48,0,0,0-.59-.11H157v2.63h.42a1.58,1.58,0,0,0,.74-.14A1,1,0,0,0,158.54,14.44Z" transform="translate(0 -0.43)"/><path class="cls-59" d="M117.49,18.46v-.29a1.32,1.32,0,0,0,.49-.24.52.52,0,0,0,.2-.43,1.21,1.21,0,0,0-.12-.36h0c-.08-.2-.18-.37-.26-.53l-2.42-3.88-.28-.45h-3.55v4.79a1.1,1.1,0,0,0,.18.76,1,1,0,0,0,.59.33v.31H107.7v-.31a1.12,1.12,0,0,0,.57-.31,1.32,1.32,0,0,0,.18-.78V4.85a1.19,1.19,0,0,0-.18-.76,1,1,0,0,0-.57-.33V3.45h8.9a6.51,6.51,0,0,1,4.12,1.15,3.74,3.74,0,0,1,1.46,3.16,4.24,4.24,0,0,1-.93,2.82,5.31,5.31,0,0,1-2.75,1.55l-.11,0,2.69,4.21a4.41,4.41,0,0,0,.75.91,6.75,6.75,0,0,0,1.18.85v.33Zm-5.94-8.82h4a6.44,6.44,0,0,0,2.67-.42,1.51,1.51,0,0,0,.91-1.42,1.41,1.41,0,0,0-.89-1.34A6.69,6.69,0,0,0,115.37,6h-3.82Z" transform="translate(0 -0.43)"/><path class="cls-59" d="M.15,18.61v-.3A1.24,1.24,0,0,0,.75,18h0a1.48,1.48,0,0,0,.13-.73V2a1.35,1.35,0,0,0-.15-.76A1.15,1.15,0,0,0,.15,1V.67H5V1a1.11,1.11,0,0,0-.56.3A1.3,1.3,0,0,0,4.29,2v15.2a1.35,1.35,0,0,0,.17.76h0a1.69,1.69,0,0,0,.56.31v.29Z" transform="translate(0 -0.43)"/><path class="cls-59" d="M97.71,19.18a7.94,7.94,0,0,1-5.91-2.35,8.1,8.1,0,0,1-2.34-5.89,8,8,0,0,1,8.25-8.23h0a8.09,8.09,0,0,1,6,2.33,7.94,7.94,0,0,1,2.34,5.9,8,8,0,0,1-2.34,5.89,8.26,8.26,0,0,1-6,2.35Zm0-13.45a4.58,4.58,0,0,0-3.53,1.46,5.31,5.31,0,0,0-1.37,3.75,5.28,5.28,0,0,0,1.37,3.78,5.12,5.12,0,0,0,7.14,0,5.31,5.31,0,0,0,1.37-3.76,5.31,5.31,0,0,0-1.37-3.77,4.71,4.71,0,0,0-3.57-1.44Z" transform="translate(0 -0.43)"/><path class="cls-59" d="M19.79,18.46v-.31a1.35,1.35,0,0,0,.45-.22.48.48,0,0,0,.12-.61.63.63,0,0,0-.16-.24L12.25,8.22v8.84a1.16,1.16,0,0,0,.17.76,1.07,1.07,0,0,0,.6.33v.31H8.85v-.31a1.08,1.08,0,0,0,.57-.31,1.33,1.33,0,0,0,.16-.78V4.85a1.2,1.2,0,0,0-.16-.76,1,1,0,0,0-.57-.33V3.45h5.06v.31A1.6,1.6,0,0,0,13.5,4a.42.42,0,0,0-.16.36.71.71,0,0,0,0,.2h0l0,0a1.49,1.49,0,0,0,.19.24l7.54,8.45V4.89a1.59,1.59,0,0,0-.17-.8h0a1.24,1.24,0,0,0-.62-.32V3.45h4.2v.31a1,1,0,0,0-.58.33,1.39,1.39,0,0,0-.18.8V17.06a1.32,1.32,0,0,0,.18.78,1.12,1.12,0,0,0,.58.31v.31Z" transform="translate(0 -0.43)"/><path class="cls-59" d="M31.64,18.46v-.32a1.52,1.52,0,0,0,.57-.33.72.72,0,0,0,.2-.53,1,1,0,0,0,0-.28,3.86,3.86,0,0,0-.12-.38l-4.63-11,0,0c-.41-1-.88-1.6-1.43-1.79V3.45H31.5v.32a1.48,1.48,0,0,0-.6.36.65.65,0,0,0-.18.5,1.31,1.31,0,0,0,0,.35.92.92,0,0,0,.1.32l3.62,8.49L38,5.3a1.31,1.31,0,0,0,.1-.32,1.94,1.94,0,0,0,0-.35.69.69,0,0,0-.18-.51,1.55,1.55,0,0,0-.59-.35V3.45h5v.31A2.58,2.58,0,0,0,40.92,5.4l0,.09a.3.3,0,0,0,0,.11l-4.51,11a2.86,2.86,0,0,0-.08.31v0h0s0,.07,0,.12a.81.81,0,0,0,0,.16.69.69,0,0,0,.2.53,1.6,1.6,0,0,0,.61.37v.32Z" transform="translate(0 -0.43)"/><path class="cls-59" d="M57.48,19.33a1.4,1.4,0,0,0-.28-.67,1,1,0,0,0-.69-.2H43.94v-.31a1,1,0,0,0,.6-.33,1.16,1.16,0,0,0,.19-.76V4.85a1.21,1.21,0,0,0-.19-.77,1.07,1.07,0,0,0-.6-.32V3.45H56.17a1,1,0,0,0,.71-.19,1.59,1.59,0,0,0,.25-.62h.27V7.2h-.27a1.33,1.33,0,0,0-.27-.67,1,1,0,0,0-.69-.18H47.82V9.54H53c.4,0,.61,0,.72-.18a1.64,1.64,0,0,0,.26-.65l.27,0v4.17h-.27a1.27,1.27,0,0,0-.28-.65A1,1,0,0,0,53,12H47.82V15.6h8.69a1.06,1.06,0,0,0,.69-.18,1.72,1.72,0,0,0,.28-.67h.25v4.58Z" transform="translate(0 -0.43)"/><path class="cls-59" d="M66.81,18.82a11.87,11.87,0,0,1-5.5-1.36,1.64,1.64,0,0,0-.66-.26.37.37,0,0,0-.2.05h-.07a.71.71,0,0,0-.11.17L60,17.37l1.4-3.62.33.16v0h0a1.06,1.06,0,0,0,0,.21c0,.42.56.85,1.69,1.32a8.76,8.76,0,0,0,3.38.68,6.1,6.1,0,0,0,2.81-.54,1.67,1.67,0,0,0,1.07-1.48c0-.9-1.16-1.4-3.54-1.54l-1.69-.13-.46,0a6,6,0,0,1-3.52-1.29,3.75,3.75,0,0,1-1.16-2.93A4.52,4.52,0,0,1,62,4.56a7.32,7.32,0,0,1,4.62-1.39,10,10,0,0,1,4,.84l.24.09.2.06a3,3,0,0,1,.74.33,2,2,0,0,0,1,.36.4.4,0,0,0,.23-.09.7.7,0,0,0,.24-.17l.23.12L71.8,8.35l-.32-.19V8c0-.48-.52-1-1.59-1.5a7.49,7.49,0,0,0-3.24-.76,5.55,5.55,0,0,0-2.51.48c-.67.34-1,.75-1,1.28,0,.82.93,1.29,2.78,1.39a27.72,27.72,0,0,1,3.32.37,6.23,6.23,0,0,1,3.28,1.56,4,4,0,0,1,1.06,2.88,4.43,4.43,0,0,1-1.86,3.67A8,8,0,0,1,66.81,18.82Z" transform="translate(0 -0.43)"/><path class="cls-59" d="M79.49,18.46v-.31a1.11,1.11,0,0,0,.59-.31,1.33,1.33,0,0,0,.16-.78V6.31h-4a1,1,0,0,0-.68.18,1.49,1.49,0,0,0-.31.67H75V2.6h.26a1.35,1.35,0,0,0,.29.67,1.08,1.08,0,0,0,.69.18H87.36a1,1,0,0,0,.71-.2,1.34,1.34,0,0,0,.31-.65h.27V7.16h-.27a1.27,1.27,0,0,0-.29-.65,1,1,0,0,0-.73-.2h-4V17.06a1.32,1.32,0,0,0,.18.78,1.15,1.15,0,0,0,.59.31v.31Z" transform="translate(0 -0.43)"/><path class="cls-59" d="M130.83,9.54V9.39l.31,0a.9.9,0,0,0,.35-.09.57.57,0,0,0,.24-.22.59.59,0,0,0,.07-.31V4.13h-.2l-2.13,5.31h-.1l-2-5.42h-.19v3.8a4.53,4.53,0,0,0,.06.84.91.91,0,0,0,.24.45,1.17,1.17,0,0,0,.43.19l.34.08v.16h-2.36V9.38a2.14,2.14,0,0,0,.35-.06.8.8,0,0,0,.37-.16.7.7,0,0,0,.24-.42,4.39,4.39,0,0,0,.06-.87V4.68a1.28,1.28,0,0,0-.07-.48.81.81,0,0,0-.21-.32.93.93,0,0,0-.37-.19,1.3,1.3,0,0,0-.33-.07V3.47h2l1.84,4.82,1.6-4.11a3.53,3.53,0,0,0,.15-.46c0-.11,0-.19.05-.25h1.88v.15l-.24,0a1,1,0,0,0-.29.07.35.35,0,0,0-.25.22.73.73,0,0,0-.06.3V8.74a.7.7,0,0,0,.06.3.52.52,0,0,0,.24.22,1.08,1.08,0,0,0,.3.09l.25,0v.16Z" transform="translate(0 -0.43)"/><path class="cls-59" d="M135.27,9.54V9.38l.28,0a.94.94,0,0,0,.31-.07.54.54,0,0,0,.24-.2.68.68,0,0,0,.06-.31V4.29A.68.68,0,0,0,136.1,4a.44.44,0,0,0-.24-.22,1.58,1.58,0,0,0-.33-.11l-.26,0V3.47h4.66V4.81h-.18a2.14,2.14,0,0,0-.38-.68,1,1,0,0,0-.61-.44l-.33,0h-1.5V6.29h.79a1.38,1.38,0,0,0,.52-.07.79.79,0,0,0,.31-.24,1.21,1.21,0,0,0,.18-.36,2.49,2.49,0,0,0,.08-.35H139V7.55h-.18a1.55,1.55,0,0,0-.09-.39,1.07,1.07,0,0,0-.17-.37.76.76,0,0,0-.35-.25,1.6,1.6,0,0,0-.48,0h-.79V8.44a2.52,2.52,0,0,0,0,.46.51.51,0,0,0,.19.29.73.73,0,0,0,.35.13l.57,0h.38l.41,0a2.25,2.25,0,0,0,.36-.06.71.71,0,0,0,.29-.15,3.11,3.11,0,0,0,.44-.66c.13-.26.22-.45.27-.58h.17l-.11,1.67Z" transform="translate(0 -0.43)"/><path class="cls-59" d="M142.09,9.54V9.39l.25,0a.76.76,0,0,0,.3-.06.45.45,0,0,0,.23-.2.74.74,0,0,0,.07-.31V4.29a.73.73,0,0,0-.06-.3.45.45,0,0,0-.24-.23,1.41,1.41,0,0,0-.31-.1l-.21,0V3.47h2.64a3.3,3.3,0,0,1,1.08.17,3.22,3.22,0,0,1,.93.45,2.64,2.64,0,0,1,.84,1,3.23,3.23,0,0,1,.3,1.45,2.94,2.94,0,0,1-.29,1.34,2.68,2.68,0,0,1-.76.93,3.19,3.19,0,0,1-1.05.55,4.24,4.24,0,0,1-1.22.18Zm2.44-5.88h-.82V8.55a.67.67,0,0,0,.27.62,1.32,1.32,0,0,0,.76.17,2.46,2.46,0,0,0,1-.2,1.93,1.93,0,0,0,.71-.58,2.74,2.74,0,0,0,.41-.88A4.83,4.83,0,0,0,147,6.54a3.89,3.89,0,0,0-.17-1.17,2.79,2.79,0,0,0-.51-.91,2.36,2.36,0,0,0-.77-.59A2.42,2.42,0,0,0,144.53,3.66Z" transform="translate(0 -0.43)"/><path class="cls-59" d="M149.66,9.54V9.38l.26,0a1,1,0,0,0,.34-.06.44.44,0,0,0,.25-.18.53.53,0,0,0,.08-.32V4.28a.84.84,0,0,0-.05-.29.49.49,0,0,0-.28-.21,1.94,1.94,0,0,0-.34-.11l-.26,0V3.47h2.64v.15l-.25,0a2.29,2.29,0,0,0-.35.08.42.42,0,0,0-.27.21.73.73,0,0,0-.06.3V8.75a.6.6,0,0,0,.07.3.51.51,0,0,0,.26.21,1.37,1.37,0,0,0,.31.08l.29.05v.15Z" transform="translate(0 -0.43)"/><path class="cls-59" d="M157.36,9.54V9.38a2.18,2.18,0,0,0,.51-.08c.07,0,.29-.09.29-.24s0-.08,0-.11l0-.12-.54-1.45h-2.3l0,0c-.08.2-.14.38-.2.54l-.06.18a1.83,1.83,0,0,1-.08.25l-.08.31a1.83,1.83,0,0,0,0,.21c0,.16.11.27.33.35a2,2,0,0,0,.57.11v.16h-2.18V9.38l.22,0a1,1,0,0,0,.31-.13,1.24,1.24,0,0,0,.29-.26,2.19,2.19,0,0,0,.2-.38l1-2.64q.54-1.42,1-2.55h.24l2,5.32a1.1,1.1,0,0,0,.42.53,1.18,1.18,0,0,0,.29.11,1,1,0,0,0,.21,0v.16Zm-2-2.39h2.1l-1.06-2.72Z" transform="translate(0 -0.43)"/><path class="cls-59" d="M129.51,18a2.8,2.8,0,0,1-1.07-.21,2.71,2.71,0,0,1-.89-.59,3,3,0,0,1-.62-.94,3.31,3.31,0,0,1-.22-1.25,3.49,3.49,0,0,1,.21-1.23,3.2,3.2,0,0,1,.62-1,2.79,2.79,0,0,1,.92-.63,3,3,0,0,1,1.15-.23,2.75,2.75,0,0,1,1.49.41l.07,0,.19-.32h.21l0,1.92h-.2a5.17,5.17,0,0,0-.21-.63,2.27,2.27,0,0,0-.34-.61,1.54,1.54,0,0,0-.53-.45,1.58,1.58,0,0,0-.74-.16,1.76,1.76,0,0,0-.84.19,1.79,1.79,0,0,0-.64.56,2.67,2.67,0,0,0-.41.9,4.77,4.77,0,0,0-.14,1.18A4.22,4.22,0,0,0,127.7,16a2.7,2.7,0,0,0,.41.89,2,2,0,0,0,.68.61,1.84,1.84,0,0,0,.92.22,2.23,2.23,0,0,0,.7-.11,1.26,1.26,0,0,0,.46-.26l0,0v0a3.14,3.14,0,0,0,0-.45v-.7a1.16,1.16,0,0,0-.05-.34.44.44,0,0,0-.25-.25,1.36,1.36,0,0,0-.39-.1l-.3,0v-.15h2.44v.15l-.2,0a1.07,1.07,0,0,0-.3.09.43.43,0,0,0-.21.21.62.62,0,0,0-.06.31v1.14a2.09,2.09,0,0,1,0,.24,6.36,6.36,0,0,1-1,.35A4.43,4.43,0,0,1,129.51,18Z" transform="translate(0 -0.43)"/><path class="cls-59" d="M138,17.83c-.34-.53-.66-1-.94-1.41s-.61-.84-.94-1.26l0,0h-.73v2a.88.88,0,0,0,0,.29.39.39,0,0,0,.24.21l.29.06.24,0v.14h-2.35v-.15l.22,0a.85.85,0,0,0,.29-.06.4.4,0,0,0,.22-.2.53.53,0,0,0,.07-.3V12.8a.88.88,0,0,0,0-.29.37.37,0,0,0-.24-.22,1.54,1.54,0,0,0-.29-.07l-.22,0V12h2.66a3,3,0,0,1,.69.08,1.77,1.77,0,0,1,.58.24,1.18,1.18,0,0,1,.39.41,1.25,1.25,0,0,1,.14.61,1.42,1.42,0,0,1-.1.57,1.06,1.06,0,0,1-.29.43,1.5,1.5,0,0,1-.43.3,2.94,2.94,0,0,1-.57.22l-.11,0,.07.1.73,1,.71,1a2.26,2.26,0,0,0,.35.38,2.11,2.11,0,0,0,.31.21l.29.09.21,0v.14Zm-2.63-2.9H136a1.37,1.37,0,0,0,1.43-1.46,1.21,1.21,0,0,0-.34-.91,1.22,1.22,0,0,0-.93-.34h-.79Z" transform="translate(0 -0.43)"/><path class="cls-59" d="M143.45,18a2.72,2.72,0,0,1-2-.85,3,3,0,0,1-.57-1,3.42,3.42,0,0,1-.21-1.21,3.3,3.3,0,0,1,.22-1.26,3,3,0,0,1,.6-1,2.83,2.83,0,0,1,.89-.61,2.78,2.78,0,0,1,1.06-.21,2.74,2.74,0,0,1,2,.82,2.87,2.87,0,0,1,.59,1,3.69,3.69,0,0,1,0,2.51,3,3,0,0,1-.61,1,2.65,2.65,0,0,1-.88.6A2.72,2.72,0,0,1,143.45,18Zm0-5.86a1.58,1.58,0,0,0-.89.24,1.79,1.79,0,0,0-.6.65,2.84,2.84,0,0,0-.33.89,5.06,5.06,0,0,0-.1,1,5.35,5.35,0,0,0,.11,1.11,2.81,2.81,0,0,0,.35.89,1.81,1.81,0,0,0,.6.6,1.6,1.6,0,0,0,.86.22,1.71,1.71,0,0,0,.85-.22,1.75,1.75,0,0,0,.62-.62,2.66,2.66,0,0,0,.35-.88,5.18,5.18,0,0,0,.11-1.1,5,5,0,0,0-.12-1.14,3.08,3.08,0,0,0-.36-.9,1.78,1.78,0,0,0-.61-.58A1.66,1.66,0,0,0,143.45,12.11Z" transform="translate(0 -0.43)"/><path class="cls-59" d="M150.82,18a2.93,2.93,0,0,1-.93-.14,2.1,2.1,0,0,1-.68-.36,1.65,1.65,0,0,1-.4-.52,1.42,1.42,0,0,1-.13-.61V12.82a.61.61,0,0,0-.06-.28.48.48,0,0,0-.23-.21.88.88,0,0,0-.29-.11l-.2,0V12h2.31v.14l-.23,0-.27.06a.36.36,0,0,0-.24.21.74.74,0,0,0-.05.29v3.29a2.21,2.21,0,0,0,.05.51,1.41,1.41,0,0,0,.22.52,1.44,1.44,0,0,0,.47.41,1.83,1.83,0,0,0,.81.15,1.92,1.92,0,0,0,.81-.15,1.27,1.27,0,0,0,.52-.41,1.6,1.6,0,0,0,.26-.5,1.86,1.86,0,0,0,.07-.52V13.64a3.29,3.29,0,0,0-.07-.78.75.75,0,0,0-.22-.44,1.43,1.43,0,0,0-.43-.17l-.33-.07V12h2.27v.14l-.28.05a1.11,1.11,0,0,0-.4.15.66.66,0,0,0-.23.45,4,4,0,0,0-.05.75v2.59a1.63,1.63,0,0,1-.72,1.39,1.94,1.94,0,0,1-.67.31A2.33,2.33,0,0,1,150.82,18Z" transform="translate(0 -0.43)"/><path class="cls-59" d="M155.35,17.83v-.15l.22,0a.85.85,0,0,0,.29-.06.46.46,0,0,0,.22-.19.75.75,0,0,0,.06-.31V12.81a.85.85,0,0,0,0-.29.38.38,0,0,0-.25-.23,1.59,1.59,0,0,0-.33-.08l-.2,0V12H158a2,2,0,0,1,1.3.39,1.21,1.21,0,0,1,.49,1,1.7,1.7,0,0,1-.18.79,1.52,1.52,0,0,1-.48.56,2.1,2.1,0,0,1-.67.33,2.9,2.9,0,0,1-.79.11h-.75V17.1a.65.65,0,0,0,.06.29.39.39,0,0,0,.24.21,1.19,1.19,0,0,0,.29.06l.28,0v.14ZM156.87,15h.51a1.75,1.75,0,0,0,.78-.15,1.11,1.11,0,0,0,.45-.37,1.2,1.2,0,0,0,.2-.45,2.08,2.08,0,0,0,.05-.4,2.22,2.22,0,0,0-.06-.51,1.21,1.21,0,0,0-.21-.46,1,1,0,0,0-.41-.33,1.48,1.48,0,0,0-.63-.12h-.68Z" transform="translate(0 -0.43)"/><g class="cls-55"><path class="cls-59" d="M117.49,18.46v-.29a1.32,1.32,0,0,0,.49-.24.52.52,0,0,0,.2-.43,1.21,1.21,0,0,0-.12-.36h0c-.08-.2-.18-.37-.26-.53l-2.42-3.88-.28-.45h-3.55v4.79a1.1,1.1,0,0,0,.18.76,1,1,0,0,0,.59.33v.31H107.7v-.31a1.12,1.12,0,0,0,.57-.31,1.32,1.32,0,0,0,.18-.78V4.85a1.19,1.19,0,0,0-.18-.76,1,1,0,0,0-.57-.33V3.45h8.9a6.51,6.51,0,0,1,4.12,1.15,3.74,3.74,0,0,1,1.46,3.16,4.24,4.24,0,0,1-.93,2.82,5.31,5.31,0,0,1-2.75,1.55l-.11,0,2.69,4.21a4.41,4.41,0,0,0,.75.91,6.75,6.75,0,0,0,1.18.85v.33Zm-5.94-8.82h4a6.44,6.44,0,0,0,2.67-.42,1.51,1.51,0,0,0,.91-1.42,1.41,1.41,0,0,0-.89-1.34A6.69,6.69,0,0,0,115.37,6h-3.82Z" transform="translate(0 -0.43)"/><path class="cls-59" d="M.15,18.61v-.3A1.24,1.24,0,0,0,.75,18h0a1.48,1.48,0,0,0,.13-.73V2a1.35,1.35,0,0,0-.15-.76A1.15,1.15,0,0,0,.15,1V.67H5V1a1.11,1.11,0,0,0-.56.3A1.3,1.3,0,0,0,4.29,2v15.2a1.35,1.35,0,0,0,.17.76h0a1.69,1.69,0,0,0,.56.31v.29Z" transform="translate(0 -0.43)"/><path class="cls-59" d="M97.71,19.18a7.94,7.94,0,0,1-5.91-2.35,8.1,8.1,0,0,1-2.34-5.89,8,8,0,0,1,8.25-8.23h0a8.09,8.09,0,0,1,6,2.33,7.94,7.94,0,0,1,2.34,5.9,8,8,0,0,1-2.34,5.89,8.26,8.26,0,0,1-6,2.35Zm0-13.45a4.58,4.58,0,0,0-3.53,1.46,5.31,5.31,0,0,0-1.37,3.75,5.28,5.28,0,0,0,1.37,3.78,5.12,5.12,0,0,0,7.14,0,5.31,5.31,0,0,0,1.37-3.76,5.31,5.31,0,0,0-1.37-3.77,4.71,4.71,0,0,0-3.57-1.44Z" transform="translate(0 -0.43)"/><path class="cls-59" d="M19.79,18.46v-.31a1.35,1.35,0,0,0,.45-.22.48.48,0,0,0,.12-.61.63.63,0,0,0-.16-.24L12.25,8.22v8.84a1.16,1.16,0,0,0,.17.76,1.07,1.07,0,0,0,.6.33v.31H8.85v-.31a1.08,1.08,0,0,0,.57-.31,1.33,1.33,0,0,0,.16-.78V4.85a1.2,1.2,0,0,0-.16-.76,1,1,0,0,0-.57-.33V3.45h5.06v.31A1.6,1.6,0,0,0,13.5,4a.42.42,0,0,0-.16.36.71.71,0,0,0,0,.2h0l0,0a1.49,1.49,0,0,0,.19.24l7.54,8.45V4.89a1.59,1.59,0,0,0-.17-.8h0a1.24,1.24,0,0,0-.62-.32V3.45h4.2v.31a1,1,0,0,0-.58.33,1.39,1.39,0,0,0-.18.8V17.06a1.32,1.32,0,0,0,.18.78,1.12,1.12,0,0,0,.58.31v.31Z" transform="translate(0 -0.43)"/><path class="cls-59" d="M31.64,18.46v-.32a1.52,1.52,0,0,0,.57-.33.72.72,0,0,0,.2-.53,1,1,0,0,0,0-.28,3.86,3.86,0,0,0-.12-.38l-4.63-11,0,0c-.41-1-.88-1.6-1.43-1.79V3.45H31.5v.32a1.48,1.48,0,0,0-.6.36.65.65,0,0,0-.18.5,1.31,1.31,0,0,0,0,.35.92.92,0,0,0,.1.32l3.62,8.49L38,5.3a1.31,1.31,0,0,0,.1-.32,1.94,1.94,0,0,0,0-.35.69.69,0,0,0-.18-.51,1.55,1.55,0,0,0-.59-.35V3.45h5v.31A2.58,2.58,0,0,0,40.92,5.4l0,.09a.3.3,0,0,0,0,.11l-4.51,11a2.86,2.86,0,0,0-.08.31v0h0s0,.07,0,.12a.81.81,0,0,0,0,.16.69.69,0,0,0,.2.53,1.6,1.6,0,0,0,.61.37v.32Z" transform="translate(0 -0.43)"/><path class="cls-59" d="M57.48,19.33a1.4,1.4,0,0,0-.28-.67,1,1,0,0,0-.69-.2H43.94v-.31a1,1,0,0,0,.6-.33,1.16,1.16,0,0,0,.19-.76V4.85a1.21,1.21,0,0,0-.19-.77,1.07,1.07,0,0,0-.6-.32V3.45H56.17a1,1,0,0,0,.71-.19,1.59,1.59,0,0,0,.25-.62h.27V7.2h-.27a1.33,1.33,0,0,0-.27-.67,1,1,0,0,0-.69-.18H47.82V9.54H53c.4,0,.61,0,.72-.18a1.64,1.64,0,0,0,.26-.65l.27,0v4.17h-.27a1.27,1.27,0,0,0-.28-.65A1,1,0,0,0,53,12H47.82V15.6h8.69a1.06,1.06,0,0,0,.69-.18,1.72,1.72,0,0,0,.28-.67h.25v4.58Z" transform="translate(0 -0.43)"/><path class="cls-59" d="M66.81,18.82a11.87,11.87,0,0,1-5.5-1.36,1.64,1.64,0,0,0-.66-.26.37.37,0,0,0-.2.05h-.07a.71.71,0,0,0-.11.17L60,17.37l1.4-3.62.33.16v0h0a1.06,1.06,0,0,0,0,.21c0,.42.56.85,1.69,1.32a8.76,8.76,0,0,0,3.38.68,6.1,6.1,0,0,0,2.81-.54,1.67,1.67,0,0,0,1.07-1.48c0-.9-1.16-1.4-3.54-1.54l-1.69-.13-.46,0a6,6,0,0,1-3.52-1.29,3.75,3.75,0,0,1-1.16-2.93A4.52,4.52,0,0,1,62,4.56a7.32,7.32,0,0,1,4.62-1.39,10,10,0,0,1,4,.84l.24.09.2.06a3,3,0,0,1,.74.33,2,2,0,0,0,1,.36.4.4,0,0,0,.23-.09.7.7,0,0,0,.24-.17l.23.12L71.8,8.35l-.32-.19V8c0-.48-.52-1-1.59-1.5a7.49,7.49,0,0,0-3.24-.76,5.55,5.55,0,0,0-2.51.48c-.67.34-1,.75-1,1.28,0,.82.93,1.29,2.78,1.39a27.72,27.72,0,0,1,3.32.37,6.23,6.23,0,0,1,3.28,1.56,4,4,0,0,1,1.06,2.88,4.43,4.43,0,0,1-1.86,3.67A8,8,0,0,1,66.81,18.82Z" transform="translate(0 -0.43)"/><path class="cls-59" d="M79.49,18.46v-.31a1.11,1.11,0,0,0,.59-.31,1.33,1.33,0,0,0,.16-.78V6.31h-4a1,1,0,0,0-.68.18,1.49,1.49,0,0,0-.31.67H75V2.6h.26a1.35,1.35,0,0,0,.29.67,1.08,1.08,0,0,0,.69.18H87.36a1,1,0,0,0,.71-.2,1.34,1.34,0,0,0,.31-.65h.27V7.16h-.27a1.27,1.27,0,0,0-.29-.65,1,1,0,0,0-.73-.2h-4V17.06a1.32,1.32,0,0,0,.18.78,1.15,1.15,0,0,0,.59.31v.31Z" transform="translate(0 -0.43)"/><path class="cls-59" d="M130.83,9.54V9.39l.31,0a.9.9,0,0,0,.35-.09.57.57,0,0,0,.24-.22.59.59,0,0,0,.07-.31V4.13h-.2l-2.13,5.31h-.1l-2-5.42h-.19v3.8a4.53,4.53,0,0,0,.06.84.91.91,0,0,0,.24.45,1.17,1.17,0,0,0,.43.19l.34.08v.16h-2.36V9.38a2.14,2.14,0,0,0,.35-.06.8.8,0,0,0,.37-.16.7.7,0,0,0,.24-.42,4.39,4.39,0,0,0,.06-.87V4.68a1.28,1.28,0,0,0-.07-.48.81.81,0,0,0-.21-.32.93.93,0,0,0-.37-.19,1.3,1.3,0,0,0-.33-.07V3.47h2l1.84,4.82,1.6-4.11a3.53,3.53,0,0,0,.15-.46c0-.11,0-.19.05-.25h1.88v.15l-.24,0a1,1,0,0,0-.29.07.35.35,0,0,0-.25.22.73.73,0,0,0-.06.3V8.74a.7.7,0,0,0,.06.3.52.52,0,0,0,.24.22,1.08,1.08,0,0,0,.3.09l.25,0v.16Z" transform="translate(0 -0.43)"/><path class="cls-59" d="M135.27,9.54V9.38l.28,0a.94.94,0,0,0,.31-.07.54.54,0,0,0,.24-.2.68.68,0,0,0,.06-.31V4.29A.68.68,0,0,0,136.1,4a.44.44,0,0,0-.24-.22,1.58,1.58,0,0,0-.33-.11l-.26,0V3.47h4.66V4.81h-.18a2.14,2.14,0,0,0-.38-.68,1,1,0,0,0-.61-.44l-.33,0h-1.5V6.29h.79a1.38,1.38,0,0,0,.52-.07.79.79,0,0,0,.31-.24,1.21,1.21,0,0,0,.18-.36,2.49,2.49,0,0,0,.08-.35H139V7.55h-.18a1.55,1.55,0,0,0-.09-.39,1.07,1.07,0,0,0-.17-.37.76.76,0,0,0-.35-.25,1.6,1.6,0,0,0-.48,0h-.79V8.44a2.52,2.52,0,0,0,0,.46.51.51,0,0,0,.19.29.73.73,0,0,0,.35.13l.57,0h.38l.41,0a2.25,2.25,0,0,0,.36-.06.71.71,0,0,0,.29-.15,3.11,3.11,0,0,0,.44-.66c.13-.26.22-.45.27-.58h.17l-.11,1.67Z" transform="translate(0 -0.43)"/><path class="cls-59" d="M142.09,9.54V9.39l.25,0a.76.76,0,0,0,.3-.06.45.45,0,0,0,.23-.2.74.74,0,0,0,.07-.31V4.29a.73.73,0,0,0-.06-.3.45.45,0,0,0-.24-.23,1.41,1.41,0,0,0-.31-.1l-.21,0V3.47h2.64a3.3,3.3,0,0,1,1.08.17,3.22,3.22,0,0,1,.93.45,2.64,2.64,0,0,1,.84,1,3.23,3.23,0,0,1,.3,1.45,2.94,2.94,0,0,1-.29,1.34,2.68,2.68,0,0,1-.76.93,3.19,3.19,0,0,1-1.05.55,4.24,4.24,0,0,1-1.22.18Zm2.44-5.88h-.82V8.55a.67.67,0,0,0,.27.62,1.32,1.32,0,0,0,.76.17,2.46,2.46,0,0,0,1-.2,1.93,1.93,0,0,0,.71-.58,2.74,2.74,0,0,0,.41-.88A4.83,4.83,0,0,0,147,6.54a3.89,3.89,0,0,0-.17-1.17,2.79,2.79,0,0,0-.51-.91,2.36,2.36,0,0,0-.77-.59A2.42,2.42,0,0,0,144.53,3.66Z" transform="translate(0 -0.43)"/><path class="cls-59" d="M149.66,9.54V9.38l.26,0a1,1,0,0,0,.34-.06.44.44,0,0,0,.25-.18.53.53,0,0,0,.08-.32V4.28a.84.84,0,0,0-.05-.29.49.49,0,0,0-.28-.21,1.94,1.94,0,0,0-.34-.11l-.26,0V3.47h2.64v.15l-.25,0a2.29,2.29,0,0,0-.35.08.42.42,0,0,0-.27.21.73.73,0,0,0-.06.3V8.75a.6.6,0,0,0,.07.3.51.51,0,0,0,.26.21,1.37,1.37,0,0,0,.31.08l.29.05v.15Z" transform="translate(0 -0.43)"/><path class="cls-59" d="M157.36,9.54V9.38a2.18,2.18,0,0,0,.51-.08c.07,0,.29-.09.29-.24s0-.08,0-.11l0-.12-.54-1.45h-2.3l0,0c-.08.2-.14.38-.2.54l-.06.18a1.83,1.83,0,0,1-.08.25l-.08.31a1.83,1.83,0,0,0,0,.21c0,.16.11.27.33.35a2,2,0,0,0,.57.11v.16h-2.18V9.38l.22,0a1,1,0,0,0,.31-.13,1.24,1.24,0,0,0,.29-.26,2.19,2.19,0,0,0,.2-.38l1-2.64q.54-1.42,1-2.55h.24l2,5.32a1.1,1.1,0,0,0,.42.53,1.18,1.18,0,0,0,.29.11,1,1,0,0,0,.21,0v.16Zm-2-2.39h2.1l-1.06-2.72Z" transform="translate(0 -0.43)"/><path class="cls-59" d="M129.51,18a2.8,2.8,0,0,1-1.07-.21,2.71,2.71,0,0,1-.89-.59,3,3,0,0,1-.62-.94,3.31,3.31,0,0,1-.22-1.25,3.49,3.49,0,0,1,.21-1.23,3.2,3.2,0,0,1,.62-1,2.79,2.79,0,0,1,.92-.63,3,3,0,0,1,1.15-.23,2.75,2.75,0,0,1,1.49.41l.07,0,.19-.32h.21l0,1.92h-.2a5.17,5.17,0,0,0-.21-.63,2.27,2.27,0,0,0-.34-.61,1.54,1.54,0,0,0-.53-.45,1.58,1.58,0,0,0-.74-.16,1.76,1.76,0,0,0-.84.19,1.79,1.79,0,0,0-.64.56,2.67,2.67,0,0,0-.41.9,4.77,4.77,0,0,0-.14,1.18A4.22,4.22,0,0,0,127.7,16a2.7,2.7,0,0,0,.41.89,2,2,0,0,0,.68.61,1.84,1.84,0,0,0,.92.22,2.23,2.23,0,0,0,.7-.11,1.26,1.26,0,0,0,.46-.26l0,0v0a3.14,3.14,0,0,0,0-.45v-.7a1.16,1.16,0,0,0-.05-.34.44.44,0,0,0-.25-.25,1.36,1.36,0,0,0-.39-.1l-.3,0v-.15h2.44v.15l-.2,0a1.07,1.07,0,0,0-.3.09.43.43,0,0,0-.21.21.62.62,0,0,0-.06.31v1.14a2.09,2.09,0,0,1,0,.24,6.36,6.36,0,0,1-1,.35A4.43,4.43,0,0,1,129.51,18Z" transform="translate(0 -0.43)"/><path class="cls-59" d="M138,17.83c-.34-.53-.66-1-.94-1.41s-.61-.84-.94-1.26l0,0h-.73v2a.88.88,0,0,0,0,.29.39.39,0,0,0,.24.21l.29.06.24,0v.14h-2.35v-.15l.22,0a.85.85,0,0,0,.29-.06.4.4,0,0,0,.22-.2.53.53,0,0,0,.07-.3V12.8a.88.88,0,0,0,0-.29.37.37,0,0,0-.24-.22,1.54,1.54,0,0,0-.29-.07l-.22,0V12h2.66a3,3,0,0,1,.69.08,1.77,1.77,0,0,1,.58.24,1.18,1.18,0,0,1,.39.41,1.25,1.25,0,0,1,.14.61,1.42,1.42,0,0,1-.1.57,1.06,1.06,0,0,1-.29.43,1.5,1.5,0,0,1-.43.3,2.94,2.94,0,0,1-.57.22l-.11,0,.07.1.73,1,.71,1a2.26,2.26,0,0,0,.35.38,2.11,2.11,0,0,0,.31.21l.29.09.21,0v.14Zm-2.63-2.9H136a1.37,1.37,0,0,0,1.43-1.46,1.21,1.21,0,0,0-.34-.91,1.22,1.22,0,0,0-.93-.34h-.79Z" transform="translate(0 -0.43)"/><path class="cls-59" d="M143.45,18a2.72,2.72,0,0,1-2-.85,3,3,0,0,1-.57-1,3.42,3.42,0,0,1-.21-1.21,3.3,3.3,0,0,1,.22-1.26,3,3,0,0,1,.6-1,2.83,2.83,0,0,1,.89-.61,2.78,2.78,0,0,1,1.06-.21,2.74,2.74,0,0,1,2,.82,2.87,2.87,0,0,1,.59,1,3.69,3.69,0,0,1,0,2.51,3,3,0,0,1-.61,1,2.65,2.65,0,0,1-.88.6A2.72,2.72,0,0,1,143.45,18Zm0-5.86a1.58,1.58,0,0,0-.89.24,1.79,1.79,0,0,0-.6.65,2.84,2.84,0,0,0-.33.89,5.06,5.06,0,0,0-.1,1,5.35,5.35,0,0,0,.11,1.11,2.81,2.81,0,0,0,.35.89,1.81,1.81,0,0,0,.6.6,1.6,1.6,0,0,0,.86.22,1.71,1.71,0,0,0,.85-.22,1.75,1.75,0,0,0,.62-.62,2.66,2.66,0,0,0,.35-.88,5.18,5.18,0,0,0,.11-1.1,5,5,0,0,0-.12-1.14,3.08,3.08,0,0,0-.36-.9,1.78,1.78,0,0,0-.61-.58A1.66,1.66,0,0,0,143.45,12.11Z" transform="translate(0 -0.43)"/><path class="cls-59" d="M150.82,18a2.93,2.93,0,0,1-.93-.14,2.1,2.1,0,0,1-.68-.36,1.65,1.65,0,0,1-.4-.52,1.42,1.42,0,0,1-.13-.61V12.82a.61.61,0,0,0-.06-.28.48.48,0,0,0-.23-.21.88.88,0,0,0-.29-.11l-.2,0V12h2.31v.14l-.23,0-.27.06a.36.36,0,0,0-.24.21.74.74,0,0,0-.05.29v3.29a2.21,2.21,0,0,0,.05.51,1.41,1.41,0,0,0,.22.52,1.44,1.44,0,0,0,.47.41,1.83,1.83,0,0,0,.81.15,1.92,1.92,0,0,0,.81-.15,1.27,1.27,0,0,0,.52-.41,1.6,1.6,0,0,0,.26-.5,1.86,1.86,0,0,0,.07-.52V13.64a3.29,3.29,0,0,0-.07-.78.75.75,0,0,0-.22-.44,1.43,1.43,0,0,0-.43-.17l-.33-.07V12h2.27v.14l-.28.05a1.11,1.11,0,0,0-.4.15.66.66,0,0,0-.23.45,4,4,0,0,0-.05.75v2.59a1.63,1.63,0,0,1-.72,1.39,1.94,1.94,0,0,1-.67.31A2.33,2.33,0,0,1,150.82,18Z" transform="translate(0 -0.43)"/><path class="cls-59" d="M155.35,17.83v-.15l.22,0a.85.85,0,0,0,.29-.06.46.46,0,0,0,.22-.19.75.75,0,0,0,.06-.31V12.81a.85.85,0,0,0,0-.29.38.38,0,0,0-.25-.23,1.59,1.59,0,0,0-.33-.08l-.2,0V12H158a2,2,0,0,1,1.3.39,1.21,1.21,0,0,1,.49,1,1.7,1.7,0,0,1-.18.79,1.52,1.52,0,0,1-.48.56,2.1,2.1,0,0,1-.67.33,2.9,2.9,0,0,1-.79.11h-.75V17.1a.65.65,0,0,0,.06.29.39.39,0,0,0,.24.21,1.19,1.19,0,0,0,.29.06l.28,0v.14ZM156.87,15h.51a1.75,1.75,0,0,0,.78-.15,1.11,1.11,0,0,0,.45-.37,1.2,1.2,0,0,0,.2-.45,2.08,2.08,0,0,0,.05-.4,2.22,2.22,0,0,0-.06-.51,1.21,1.21,0,0,0-.21-.46,1,1,0,0,0-.41-.33,1.48,1.48,0,0,0-.63-.12h-.68Z" transform="translate(0 -0.43)"/></g></g></svg>