<svg id="Layer_1" data-name="Layer 1" xmlns="http://www.w3.org/2000/svg" viewBox="0 0 30 30"><defs><style>.cls-1{fill:#2190e2;}</style></defs><title>instagram_icon</title><path class="cls-1" d="M21.06,0H8.94A9,9,0,0,0,0,8.94V21.06A9,9,0,0,0,8.94,30H21.06A9,9,0,0,0,30,21.06V8.94A9,9,0,0,0,21.06,0ZM27,21.06A5.92,5.92,0,0,1,21.06,27H8.94A5.92,5.92,0,0,1,3,21.06V8.94A5.92,5.92,0,0,1,8.94,3H21.06A5.92,5.92,0,0,1,27,8.94V21.06Z"/><path class="cls-1" d="M15,7.24A7.76,7.76,0,1,0,22.76,15,7.77,7.77,0,0,0,15,7.24Zm0,12.5A4.74,4.74,0,1,1,19.74,15,4.74,4.74,0,0,1,15,19.74Z"/><circle class="cls-1" cx="22.77" cy="7.3" r="1.86"/></svg>