<svg id="Layer_1" data-name="Layer 1" xmlns="http://www.w3.org/2000/svg" viewBox="0 0 31 30"><defs><style>.cls-1{fill:#fff;}</style></defs><title>likedin_icon</title><path class="cls-1" d="M31,18.4V30H24.35V19.17c0-2.73-1-4.58-3.36-4.58a3.66,3.66,0,0,0-3.41,2.46,4.82,4.82,0,0,0-.23,1.64V30H10.71s.09-18.34,0-20.24h6.65v2.87a.43.43,0,0,0,0,.07h0v-.07a6.56,6.56,0,0,1,6-3.35c4.39,0,7.66,2.9,7.66,9.12ZM3.76,0A3.49,3.49,0,0,0,0,3.5,3.46,3.46,0,0,0,3.67,7h0A3.49,3.49,0,0,0,7.48,3.5,3.48,3.48,0,0,0,3.76,0ZM.4,30H7V9.76H.4Zm0,0"/></svg>