<?xml version="1.0" encoding="utf-8"?>
<!-- Generator: Adobe Illustrator 15.1.0, SVG Export Plug-In . SVG Version: 6.00 Build 0)  -->
<!DOCTYPE svg PUBLIC "-//W3C//DTD SVG 1.1//EN" "http://www.w3.org/Graphics/SVG/1.1/DTD/svg11.dtd">
<svg version="1.1" id="Layer_1" xmlns="http://www.w3.org/2000/svg" xmlns:xlink="http://www.w3.org/1999/xlink" x="0px" y="0px"
	 width="195px" height="147px" viewBox="0 0 195 147" enable-background="new 0 0 195 147" xml:space="preserve">
<path d="M119.224,73.1c0,11.998-9.729,21.719-21.727,21.719c-11.992,0-21.721-9.722-21.721-21.719s9.729-21.715,21.721-21.715
	C109.494,51.385,119.224,61.103,119.224,73.1z"/>
<path fill="none" stroke="#000000" stroke-width="14.496" stroke-linecap="round" stroke-miterlimit="10" d="M161.781,8.868
	c12.845,13.876,22.582,39.392,22.785,64.632c0.218,26.814-11.303,48.936-22.785,64.631"/>
<path fill="none" stroke="#000000" stroke-width="9" stroke-linecap="round" stroke-miterlimit="10" d="M134.776,31.858
	c8.274,8.94,14.547,25.379,14.678,41.642c0.141,17.276-7.28,31.528-14.678,41.639"/>
<path fill="none" stroke="#000000" stroke-width="14.496" stroke-linecap="round" stroke-miterlimit="10" d="M33.219,8.868
	C20.374,22.744,10.637,48.259,10.433,73.5c-0.216,26.814,11.303,48.936,22.786,64.631"/>
<path fill="none" stroke="#000000" stroke-width="9" stroke-linecap="round" stroke-miterlimit="10" d="M60.224,31.858
	c-8.274,8.94-14.547,25.379-14.679,41.642c-0.14,17.276,7.281,31.528,14.679,41.639"/>
</svg>
