<svg id="Layer_1" data-name="Layer 1" xmlns="http://www.w3.org/2000/svg" viewBox="0 0 37 30"><defs><style>.cls-1{fill:#fff;}</style></defs><title>twitter_icon</title><path class="cls-1" d="M37,3.55a15.47,15.47,0,0,1-4.36,1.2A7.63,7.63,0,0,0,36,.55a15.17,15.17,0,0,1-4.83,1.84A7.59,7.59,0,0,0,18,7.57a8.19,8.19,0,0,0,.19,1.73A21.54,21.54,0,0,1,2.58,1.38,7.57,7.57,0,0,0,4.92,11.49a7.55,7.55,0,0,1-3.43-.94v.09a7.6,7.6,0,0,0,6.09,7.44,7.67,7.67,0,0,1-3.44.12,7.63,7.63,0,0,0,7.09,5.27A15.29,15.29,0,0,1,1.81,26.7c-.61,0-1.21,0-1.81-.1A21.52,21.52,0,0,0,11.64,30c14,0,21.59-11.54,21.59-21.55l0-1A15.23,15.23,0,0,0,37,3.55Zm0,0"/></svg>