<svg id="Layer_1" data-name="Layer 1" xmlns="http://www.w3.org/2000/svg" viewBox="0 0 23 23"><defs><style>.cls-1{fill:#292929;}</style></defs><title>weather_icon</title><path class="cls-1" d="M11.5,15.74a4.24,4.24,0,1,1,4.24-4.24A4.24,4.24,0,0,1,11.5,15.74Zm0-7.27a3,3,0,1,0,3,3A3,3,0,0,0,11.5,8.47Z"/><rect class="cls-1" x="10.89" width="1.21" height="4.84"/><rect class="cls-1" x="10.89" y="18.16" width="1.21" height="4.84"/><rect class="cls-1" x="18.16" y="10.89" width="4.84" height="1.21"/><rect class="cls-1" y="10.89" width="4.84" height="1.21"/><rect class="cls-1" x="15.5" y="4.47" width="4.84" height="1.21" transform="translate(1.66 14.16) rotate(-45)"/><rect class="cls-1" x="2.66" y="17.31" width="4.84" height="1.21" transform="translate(-11.18 8.84) rotate(-45)"/><rect class="cls-1" x="17.31" y="15.5" width="1.21" height="4.84" transform="translate(-7.42 17.92) rotate(-45)"/><rect class="cls-1" x="4.47" y="2.66" width="1.21" height="4.84" transform="translate(-2.1 5.08) rotate(-45)"/></svg>