<svg width="20" height="20" viewBox="0 0 20 20" fill="none" xmlns="http://www.w3.org/2000/svg">
<path d="M16.9549 7.13217C16.9471 6.54434 16.8368 5.96235 16.6292 5.41224C16.4491 4.94823 16.174 4.52682 15.8215 4.17494C15.4691 3.82307 15.047 3.54846 14.5822 3.36867C14.0382 3.16482 13.4636 3.05459 12.8827 3.04269C12.1348 3.00931 11.8977 3 9.99922 3C8.10073 3 7.8574 3 7.11495 3.04269C6.53433 3.05468 5.95996 3.1649 5.41626 3.36867C4.9514 3.54833 4.52923 3.8229 4.17675 4.17479C3.82427 4.52668 3.54925 4.94815 3.36928 5.41224C3.16468 5.95487 3.05452 6.52842 3.04354 7.10811C3.01011 7.85553 3 8.09225 3 9.98758C3 11.8829 3 12.1251 3.04354 12.8671C3.0552 13.4476 3.16482 14.0204 3.36928 14.5645C3.54955 15.0284 3.82477 15.4497 4.17737 15.8015C4.52997 16.1532 4.95218 16.4277 5.41704 16.6073C5.95924 16.8193 6.53372 16.9374 7.11573 16.9565C7.86439 16.9899 8.10151 17 10 17C11.8985 17 12.1418 17 12.8843 16.9565C13.4651 16.9451 14.0398 16.8351 14.5837 16.6313C15.0484 16.4513 15.4704 16.1767 15.8228 15.8248C16.1753 15.473 16.4504 15.0517 16.6307 14.5878C16.8352 14.0445 16.9448 13.4717 16.9565 12.8903C16.9899 12.1437 17 11.907 17 10.0109C16.9984 8.11553 16.9984 7.87493 16.9549 7.13217ZM9.99456 13.5718C8.009 13.5718 6.40049 11.966 6.40049 9.9837C6.40049 8.00144 8.009 6.39561 9.99456 6.39561C10.9478 6.39561 11.8619 6.77364 12.5359 7.44654C13.21 8.11944 13.5886 9.03208 13.5886 9.9837C13.5886 10.9353 13.21 11.848 12.5359 12.5209C11.8619 13.1938 10.9478 13.5718 9.99456 13.5718ZM13.7317 7.09957C13.6216 7.09967 13.5126 7.0781 13.4108 7.03609C13.3091 6.99408 13.2167 6.93245 13.1388 6.85474C13.061 6.77703 12.9993 6.68475 12.9572 6.58319C12.9151 6.48164 12.8935 6.37279 12.8936 6.26289C12.8936 6.15307 12.9153 6.04432 12.9574 5.94286C12.9995 5.84139 13.0612 5.7492 13.139 5.67154C13.2167 5.59389 13.3091 5.53229 13.4107 5.49026C13.5124 5.44823 13.6213 5.4266 13.7313 5.4266C13.8413 5.4266 13.9502 5.44823 14.0519 5.49026C14.1535 5.53229 14.2458 5.59389 14.3236 5.67154C14.4014 5.7492 14.4631 5.84139 14.5052 5.94286C14.5473 6.04432 14.569 6.15307 14.569 6.26289C14.569 6.72547 14.1942 7.09957 13.7317 7.09957Z" fill="white"/>
<path d="M9.99456 12.3144C11.2839 12.3144 12.3292 11.2709 12.3292 9.9837C12.3292 8.69647 11.2839 7.65296 9.99456 7.65296C8.70518 7.65296 7.65993 8.69647 7.65993 9.9837C7.65993 11.2709 8.70518 12.3144 9.99456 12.3144Z" fill="white"/>
</svg>
