<svg width="26" height="26" viewBox="0 0 26 26" fill="none" xmlns="http://www.w3.org/2000/svg">
<path d="M1 2.719C1 1.7695 1.789 1 2.7625 1H23.2375C24.211 1 25 1.7695 25 2.719V23.281C25 24.2305 24.211 25 23.2375 25H2.7625C1.789 25 1 24.2305 1 23.281V2.719ZM8.4145 21.091V10.2535H4.813V21.091H8.4145ZM6.6145 8.773C7.87 8.773 8.6515 7.942 8.6515 6.901C8.629 5.8375 7.8715 5.029 6.6385 5.029C5.4055 5.029 4.6 5.839 4.6 6.901C4.6 7.942 5.3815 8.773 6.5905 8.773H6.6145ZM13.9765 21.091V15.0385C13.9765 14.7145 14.0005 14.3905 14.0965 14.1595C14.356 13.513 14.9485 12.8425 15.9445 12.8425C17.248 12.8425 17.7685 13.8355 17.7685 15.2935V21.091H21.37V14.875C21.37 11.545 19.594 9.997 17.224 9.997C15.313 9.997 14.4565 11.047 13.9765 11.7865V11.824H13.9525C13.9605 11.8115 13.9685 11.799 13.9765 11.7865V10.2535H10.3765C10.4215 11.2705 10.3765 21.091 10.3765 21.091H13.9765Z" fill="#657685"/>
</svg>
