<svg width="20" height="20" viewBox="0 0 20 20" fill="none" xmlns="http://www.w3.org/2000/svg">
<path d="M7.39775 15.7692C12.681 15.7692 15.5711 11.625 15.5711 8.03734C15.5711 7.92136 15.5711 7.80374 15.5659 7.68777C16.1286 7.30216 16.6142 6.82474 17 6.2779C16.4744 6.49729 15.9174 6.64189 15.3471 6.70699C15.9478 6.36706 16.3978 5.83222 16.6132 5.20187C16.0489 5.5184 15.4311 5.74061 14.7871 5.85875C14.3542 5.42223 13.7812 5.13304 13.1571 5.03599C12.5329 4.93894 11.8924 5.03944 11.3347 5.32193C10.777 5.60441 10.3332 6.05311 10.0721 6.59853C9.81108 7.14394 9.74728 7.75564 9.89062 8.33886C8.74852 8.28464 7.63121 8.00376 6.61116 7.51443C5.59111 7.0251 4.6911 6.33824 3.9695 5.49842C3.60317 6.09739 3.49138 6.8059 3.65682 7.48007C3.82225 8.15424 4.25252 8.74354 4.86025 9.12828C4.40485 9.11364 3.95946 8.99787 3.56 8.79031V8.82759C3.56079 9.45505 3.79039 10.063 4.21001 10.5487C4.62964 11.0344 5.21353 11.3681 5.863 11.4932C5.61648 11.5575 5.36183 11.5896 5.10612 11.5885C4.92586 11.589 4.74596 11.5732 4.56887 11.5413C4.75244 12.0814 5.10986 12.5537 5.59109 12.8919C6.07232 13.2301 6.65324 13.4174 7.2525 13.4275C6.23449 14.1844 4.97698 14.595 3.6825 14.593C3.45441 14.5939 3.22647 14.5814 3 14.5557C4.31383 15.3486 5.83964 15.7697 7.39775 15.7692Z" fill="white"/>
</svg>
