<svg width="26" height="26" viewBox="0 0 26 26" fill="none" xmlns="http://www.w3.org/2000/svg">
<path d="M25 5.36503C24.1005 5.77425 23.1477 6.04257 22.1728 6.16128C23.1961 5.53532 23.9657 4.54266 24.3376 3.36878C23.368 3.95669 22.3105 4.37078 21.2092 4.59378C20.7455 4.08779 20.1876 3.68552 19.5697 3.41151C18.9518 3.1375 18.2868 2.99749 17.6152 3.00003C14.896 3.00003 12.6916 5.26253 12.6916 8.05002C12.6916 8.44502 12.7348 8.83127 12.8188 9.20002C10.8683 9.10339 8.95854 8.58428 7.2114 7.67582C5.46426 6.76736 3.91811 5.4895 2.6716 3.92378C2.23459 4.69178 2.0049 5.5685 2.0068 6.46128C2.00764 7.29623 2.20819 8.11781 2.59035 8.85176C2.9725 9.58571 3.52421 10.2089 4.1956 10.665C3.41498 10.6388 2.65123 10.4217 1.966 10.0313V10.0938C1.966 12.5413 3.664 14.5825 5.914 15.0475C5.49113 15.1644 5.0555 15.2236 4.618 15.2238C4.3 15.2238 3.9916 15.1925 3.6904 15.13C4.0121 16.1399 4.62773 17.0204 5.45178 17.6492C6.27584 18.278 7.26741 18.6238 8.2888 18.6387C6.53688 20.0444 4.38618 20.8038 2.1748 20.7975C1.7764 20.7975 1.3852 20.7725 1 20.7275C3.2575 22.2159 5.87511 23.0041 8.5468 23C17.6032 23 22.5544 15.3038 22.5544 8.63002L22.5376 7.97627C23.5034 7.26836 24.3378 6.38358 25 5.36503V5.36503Z" fill="#657685"/>
</svg>
