<svg width="20" height="20" viewBox="0 0 20 20" fill="none" xmlns="http://www.w3.org/2000/svg">
<path d="M16.9168 6.74222C16.8594 8.07409 15.9815 9.89813 14.2821 12.2143C12.5253 14.6358 11.0383 15.8462 9.82193 15.8462C9.06834 15.8462 8.43106 15.1092 7.91009 13.6352L6.86735 9.58314C6.47965 8.10833 6.06449 7.37221 5.62106 7.37221C5.52575 7.37221 5.18732 7.58876 4.6082 8.0176L4 7.18732C4.63256 6.59855 5.26098 6.00479 5.88518 5.40608C6.7365 4.62716 7.37539 4.21801 7.80186 4.17607C8.80584 4.07079 9.42534 4.79921 9.65796 6.36132C9.90835 8.04584 10.0828 9.09182 10.1797 9.49925C10.4705 10.8953 10.7904 11.5929 11.1377 11.5921C11.4074 11.5921 11.8129 11.1384 12.3557 10.2337C12.8977 9.32806 13.1876 8.63902 13.2256 8.16653C13.3031 7.38505 13.0132 6.99387 12.3557 6.99387C12.0257 6.999 11.7001 7.075 11.3986 7.21728C12.0358 5.01491 13.249 3.94325 15.0397 4.00231C16.3676 4.04511 16.9935 4.95841 16.9168 6.74137V6.74222Z" fill="white"/>
</svg>
