<svg width="20" height="20" viewBox="0 0 20 20" fill="none" xmlns="http://www.w3.org/2000/svg">
<path d="M18.6338 6.88667C18.5314 6.52476 18.3312 6.1947 18.0532 5.92935C17.7751 5.66401 17.429 5.47262 17.0491 5.37426C15.6407 5.006 10.0062 5.00001 10.0062 5.00001C10.0062 5.00001 4.37262 4.99401 2.96331 5.346C2.58371 5.44889 2.23826 5.64298 1.96013 5.90963C1.682 6.17628 1.48052 6.50653 1.37504 6.86869C1.0036 8.20982 1 10.9914 1 10.9914C1 10.9914 0.996404 13.7868 1.36514 15.1142C1.572 15.8481 2.17907 16.4279 2.95072 16.6257C4.37352 16.994 9.99274 17 9.99274 17C9.99274 17 15.6273 17.006 17.0357 16.6549C17.4156 16.5567 17.7621 16.3657 18.0408 16.1009C18.3196 15.8361 18.5209 15.5066 18.6248 15.145C18.9972 13.8047 18.9999 11.024 18.9999 11.024C18.9999 11.024 19.0179 8.22781 18.6338 6.88667V6.88667ZM8.20391 13.5684L8.2084 8.42992L12.8914 11.0034L8.20391 13.5684V13.5684Z" fill="white"/>
</svg>
