<svg xmlns="http://www.w3.org/2000/svg" width="46.67" height="60.871" viewBox="0 0 46.67 60.871"><path fill="#FFF" d="M0 57.866a2.371 2.371 0 0 0 2.371 2.371h41.927a2.371 2.371 0 0 0 2.371-2.371V31.233H0v26.633z"/><linearGradient id="a" gradientUnits="userSpaceOnUse" x1="23.335" y1="60.871" x2="23.335" y2="31.867"><stop offset="0" stop-color="#fff"/><stop offset="1" stop-color="#dedede"/></linearGradient><path fill="url(#a)" d="M0 58.5a2.371 2.371 0 0 0 2.371 2.371h41.927a2.371 2.371 0 0 0 2.371-2.371V31.867H0V58.5z"/><path fill="#FFF" d="M44.299 0H2.371A2.372 2.372 0 0 0 0 2.371v26.496h46.67V2.371A2.372 2.372 0 0 0 44.299 0z"/><linearGradient id="b" gradientUnits="userSpaceOnUse" x1="23.335" y1="1" x2="23.335" y2="29.867"><stop offset="0" stop-color="#e0e0e0"/><stop offset="1" stop-color="#dedede"/></linearGradient><path fill="url(#b)" d="M44.299 1H2.371A2.372 2.372 0 0 0 0 3.371v26.496h46.67V3.371A2.372 2.372 0 0 0 44.299 1z"/><path d="M2.355 31.233v2.421c0 .979.797 1.775 1.775 1.775s1.775-.796 1.775-1.775v-2.421h-3.55zm3.551-1.366v-1.295c0-.979-.797-1.775-1.775-1.775s-1.775.796-1.775 1.775v1.295h3.55z" fill="#969696"/><path fill="#FFF" d="M4.131 35.029a1.376 1.376 0 0 1-1.375-1.375v-5.082a1.376 1.376 0 0 1 2.75 0v5.082c0 .759-.616 1.375-1.375 1.375z"/><path d="M40.764 31.233v2.421c0 .979.797 1.775 1.775 1.775s1.775-.796 1.775-1.775v-2.421h-3.55zm3.551-1.366v-1.295c0-.979-.797-1.775-1.775-1.775s-1.775.796-1.775 1.775v1.295h3.55z" fill="#969696"/><path fill="#FFF" d="M42.54 35.029a1.376 1.376 0 0 1-1.375-1.375v-5.082a1.376 1.376 0 0 1 2.75 0v5.082c0 .759-.616 1.375-1.375 1.375z"/></svg>