<svg xmlns="http://www.w3.org/2000/svg" width="180.354" height="180.354" viewBox="0 0 180.354 180.354"><path fill="#FFF" d="M90.178 180.354C40.453 180.354 0 139.901 0 90.177 0 40.453 40.453 0 90.178 0c49.724 0 90.177 40.453 90.177 90.177-.001 49.724-40.454 90.177-90.177 90.177zM90.178 1C41.005 1 1 41.005 1 90.177c0 49.172 40.005 89.177 89.178 89.177 49.172 0 89.177-40.005 89.177-89.177C179.354 41.005 139.35 1 90.178 1z"/><path fill="#FFF" d="M90.178 152.278c-34.242 0-62.101-27.858-62.101-62.101s27.858-62.1 62.101-62.1 62.1 27.858 62.1 62.1-27.858 62.101-62.1 62.101zm0-123.201c-33.691 0-61.101 27.409-61.101 61.1s27.409 61.101 61.101 61.101c33.69 0 61.1-27.409 61.1-61.101-.001-33.691-27.41-61.1-61.1-61.1zM50.482 157.573c-.559.192-1.171.214-1.837.062-.664-.15-1.336-.451-2.012-.899-.694-.461-1.206-1.026-1.532-1.697-.327-.67-.44-1.395-.342-2.175.099-.778.401-1.563.909-2.354l.431-.649c.831-1.254 1.779-2.034 2.848-2.34 1.067-.307 2.138-.104 3.213.608.923.611 1.505 1.327 1.744 2.146.239.817.13 1.692-.329 2.623l-1.413-.937c.503-1.104.255-1.988-.744-2.65-.646-.428-1.291-.521-1.936-.279-.645.241-1.271.809-1.878 1.701l-.422.637c-.594.896-.867 1.716-.817 2.462s.411 1.342 1.083 1.788c.737.488 1.372.668 1.904.541l1.077-1.624-1.709-1.134.726-1.093 3.145 2.085-2.109 3.178zm13.793-2.839l-2.813 6.026c-.447.959-1.107 1.574-1.981 1.849-.874.273-1.822.172-2.842-.305-1.032-.481-1.724-1.14-2.073-1.975-.35-.834-.297-1.741.16-2.72l2.81-6.021 1.561.729-2.815 6.034c-.28.603-.343 1.135-.186 1.595.156.461.533.83 1.128 1.107 1.206.563 2.105.207 2.699-1.063l2.792-5.985 1.56.729zm5.512 9.825l-3.69-1.114-1.442 1.985-1.721-.519 6.474-8.443 1.486.448.731 10.616-1.728-.521-.11-2.452zm-2.823-2.309l2.761.833-.188-4.37-2.573 3.537zm12.164 2.705l-1.905-.288-.573 3.785-1.71-.259 1.487-9.841 3.461.522c1.136.172 1.974.56 2.514 1.162.541.603.737 1.387.592 2.352-.1.659-.342 1.187-.726 1.583-.386.396-.88.67-1.483.824l1.59 4.433-.014.086-1.831-.276-1.402-4.083zm-1.697-1.667l1.758.266c.576.087 1.049.01 1.417-.232.368-.241.591-.614.667-1.118.08-.527-.009-.959-.265-1.292-.257-.334-.681-.55-1.274-.648l-1.805-.273-.498 3.297zm14.043 3.99l-3.854-.027-.823 2.312-1.798-.014 3.83-9.926 1.552.011 3.695 9.98-1.805-.014-.797-2.322zm-3.361-1.419l2.885.021-1.413-4.139-1.472 4.118zm17.212 2.354l-1.712.246-5.396-6.359 1.005 6.99-1.712.245-1.415-9.851 1.712-.246 5.413 6.383-1.009-7.017 1.698-.243 1.416 9.852zm8.519-11.15l-2.979.869 2.397 8.216-1.647.48-2.396-8.215-2.953.862-.392-1.34 7.579-2.212.391 1.34zm9.212.542l-3.742 1.646 1.233 2.803 4.374-1.924.556 1.264-5.956 2.621-4.009-9.111 5.913-2.601.562 1.276-4.33 1.905 1.106 2.515 3.742-1.646.551 1.252zm8.291-4.708l-3.503 2.109 1.579 2.623 4.095-2.464.712 1.183-5.575 3.356-5.134-8.527 5.535-3.331.719 1.194-4.053 2.439 1.417 2.354 3.503-2.108.705 1.172zm5.875 1.358l-6.244-7.749 2.288-1.846c.686-.552 1.416-.889 2.192-1.011s1.536-.021 2.279.307c.742.325 1.405.851 1.989 1.574l.313.389c.592.734.966 1.498 1.122 2.291s.085 1.559-.213 2.296c-.298.738-.797 1.389-1.496 1.952l-2.23 1.797zm-4.023-7.749l4.503 5.589.879-.708c.706-.568 1.07-1.227 1.092-1.973s-.297-1.536-.955-2.368l-.348-.431c-.678-.842-1.378-1.337-2.102-1.485-.723-.149-1.432.057-2.127.616l-.942.76zM53.993 28.853c-.041.59-.26 1.163-.658 1.716-.397.554-.935 1.056-1.61 1.504-.695.461-1.415.712-2.159.752a3.784 3.784 0 0 1-2.138-.531c-.68-.394-1.284-.978-1.815-1.753l-.43-.649c-.832-1.253-1.182-2.431-1.049-3.534s.736-2.01 1.811-2.724c.923-.612 1.808-.87 2.654-.772.847.097 1.609.538 2.289 1.323l-1.413.938c-.821-.893-1.732-1.007-2.73-.345-.646.428-.982.986-1.01 1.674-.028.688.251 1.485.836 2.391l.423.638c.594.895 1.245 1.465 1.951 1.709s1.396.144 2.067-.302c.736-.489 1.15-1.004 1.239-1.545l-1.076-1.623-1.709 1.134-.727-1.094 3.145-2.086 2.109 3.179zm5.67-12.446l2.82 6.023c.449.958.498 1.86.146 2.706-.351.846-1.036 1.508-2.055 1.985-1.033.483-1.98.591-2.846.324-.864-.266-1.526-.889-1.983-1.867l-2.817-6.018 1.56-.731 2.823 6.03c.282.603.65.992 1.104 1.166.454.175.978.123 1.572-.155 1.205-.564 1.51-1.482.915-2.753l-2.801-5.98 1.562-.73zm11.468 4.197l-3.69 1.116-.101 2.452-1.722.521.718-10.615 1.484-.45 6.487 8.437-1.728.522-1.448-1.983zm-3.63-.359l2.762-.834-2.576-3.535-.186 4.369zm12.001-2.911l-1.906.288.572 3.786-1.71.258-1.487-9.841 3.461-.523c1.135-.172 2.05-.049 2.744.367.694.417 1.114 1.107 1.261 2.072.1.658.024 1.233-.227 1.726-.25.492-.643.9-1.173 1.226l2.829 3.764.014.087-1.832.277-2.546-3.487zm-2.114-1.091l1.757-.266c.577-.087 1.006-.3 1.286-.64.281-.339.383-.762.307-1.266-.08-.528-.292-.913-.635-1.156-.343-.243-.813-.323-1.409-.243l-1.804.272.498 3.299zm14.343 1.812l-3.855.021-.794 2.322-1.799.009 3.706-9.973 1.553-.008 3.819 9.933-1.804.01-.826-2.314zm-3.377-1.377l2.885-.015-1.465-4.122-1.42 4.137zm15.975 5.046l-1.71-.255-3.345-7.64-1.044 6.984-1.711-.255 1.472-9.844 1.711.256 3.353 7.668 1.049-7.011 1.696.253-1.471 9.844zm12.201-5.421l-2.971-.898-2.476 8.192-1.643-.496 2.476-8.193-2.944-.89.403-1.335 7.558 2.284-.403 1.336zm6.931 7.522l-3.698-1.74-1.304 2.771 4.323 2.034-.588 1.25-5.889-2.771 4.237-9.006 5.845 2.75-.594 1.261-4.28-2.013-1.169 2.487 3.698 1.74-.581 1.237zm8.227 4.752l-3.479-2.148-1.608 2.606 4.066 2.51-.726 1.175-5.538-3.418 5.229-8.47 5.497 3.394-.732 1.187-4.025-2.485-1.444 2.338 3.479 2.147-.719 1.164zm.254 5.577l6.343-7.67 2.266 1.874c.678.56 1.154 1.208 1.43 1.945.275.736.327 1.5.157 2.294-.171.793-.554 1.547-1.145 2.265l-.318.384c-.602.727-1.275 1.246-2.021 1.558a3.948 3.948 0 0 1-2.291.251c-.783-.145-1.521-.503-2.211-1.075l-2.21-1.826zm6.787-5.493l-4.573 5.532.869.719c.699.578 1.416.803 2.151.674.735-.127 1.445-.598 2.13-1.41l.353-.427c.688-.833 1.033-1.618 1.034-2.356s-.344-1.392-1.031-1.961l-.933-.771z"/><path d="M43.188 96.116c0-.5-.176-.886-.527-1.156s-.985-.544-1.902-.82-1.646-.583-2.188-.922c-1.036-.651-1.555-1.5-1.555-2.547 0-.917.374-1.672 1.121-2.266s1.718-.891 2.91-.891c.792 0 1.497.146 2.117.438.62.292 1.106.707 1.461 1.246s.531 1.137.531 1.793h-1.969c0-.594-.187-1.059-.559-1.395s-.905-.504-1.598-.504c-.646 0-1.147.138-1.504.414s-.535.661-.535 1.156c0 .417.192.765.578 1.043s1.021.55 1.906.813 1.597.563 2.133.898.93.722 1.18 1.156.375.944.375 1.527c0 .948-.363 1.702-1.09 2.262s-1.712.84-2.957.84c-.823 0-1.579-.152-2.27-.457s-1.227-.726-1.609-1.262-.574-1.161-.574-1.875h1.977c0 .646.214 1.146.641 1.5s1.039.531 1.836.531c.688 0 1.204-.14 1.551-.418s.52-.646.52-1.104zm10.079.281H48.86l-.922 2.648h-2.055L50.18 87.67h1.773l4.305 11.375h-2.063l-.928-2.648zm-3.852-1.594h3.297l-1.648-4.719-1.649 4.719zm15.414-5.539h-3.547v9.781h-1.961v-9.781h-3.516V87.67h9.023v1.594zm3.578 9.781h-1.969V87.67h1.969v11.375zm8.375-2.929c0-.5-.176-.886-.527-1.156s-.985-.544-1.902-.82-1.646-.583-2.188-.922c-1.036-.651-1.555-1.5-1.555-2.547 0-.917.374-1.672 1.121-2.266s1.718-.891 2.91-.891c.792 0 1.497.146 2.117.438.62.292 1.106.707 1.461 1.246s.531 1.137.531 1.793h-1.969c0-.594-.187-1.059-.559-1.395s-.905-.504-1.598-.504c-.646 0-1.147.138-1.504.414s-.535.661-.535 1.156c0 .417.192.765.578 1.043s1.021.55 1.906.813 1.597.563 2.133.898.93.722 1.18 1.156.375.944.375 1.527c0 .948-.363 1.702-1.09 2.262s-1.712.84-2.957.84c-.823 0-1.579-.152-2.27-.457s-1.227-.726-1.609-1.262-.574-1.161-.574-1.875h1.977c0 .646.214 1.146.641 1.5s1.039.531 1.836.531c.688 0 1.204-.14 1.551-.418s.52-.646.52-1.104zm10.266-1.891H82.47v4.82h-1.977V87.67h7.227v1.594h-5.25v3.383h4.578v1.578zm7.101 2.172h-4.406l-.922 2.648h-2.055l4.297-11.375h1.773l4.305 11.375h-2.063l-.929-2.648zm-3.851-1.594h3.297l-1.648-4.719-1.649 4.719zm16.648.539c-.114 1.214-.563 2.16-1.344 2.84s-1.82 1.02-3.117 1.02c-.906 0-1.704-.215-2.395-.645s-1.223-1.04-1.598-1.832-.57-1.711-.586-2.758v-1.063c0-1.073.19-2.019.57-2.836s.926-1.448 1.637-1.891c.711-.442 1.532-.664 2.465-.664 1.255 0 2.266.34 3.031 1.02s1.211 1.642 1.336 2.887h-1.969c-.094-.817-.332-1.407-.715-1.77s-.944-.543-1.684-.543c-.859 0-1.52.314-1.98.942s-.696 1.55-.707 2.765v1.008c0 1.23.22 2.169.66 2.815s1.085.97 1.934.97c.776 0 1.359-.175 1.75-.523s.638-.93.742-1.742h1.97zm9.758-6.078h-3.547v9.781h-1.961v-9.781h-3.516V87.67h9.023v1.594zm3.578 9.781h-1.969V87.67h1.969v11.375zm11.508-5.39c0 1.114-.192 2.093-.578 2.934s-.937 1.487-1.652 1.938-1.54.676-2.473.676c-.922 0-1.743-.226-2.465-.676s-1.278-1.093-1.672-1.926-.593-1.794-.598-2.883v-.641c0-1.109.196-2.089.59-2.938s.948-1.499 1.664-1.949c.716-.45 1.538-.676 2.465-.676s1.749.223 2.465.668 1.27 1.086 1.66 1.922.589 1.809.594 2.918v.633zm-1.977-.594c0-1.261-.238-2.227-.715-2.898s-1.152-1.008-2.027-1.008c-.854 0-1.522.335-2.004 1.004s-.728 1.616-.738 2.84v.656c0 1.25.243 2.216.73 2.898s1.163 1.023 2.027 1.023c.875 0 1.548-.333 2.02-1s.707-1.641.707-2.922v-.593zm12.969 5.984h-1.977l-5.07-8.07v8.07h-1.977V87.67h1.977l5.086 8.102V87.67h1.961v11.375zm-81.01-21.494h-5.119V57.817l-6.112 1.896V55.55l10.683-3.827h.549v25.828zm25.74-10.664c0 3.566-.738 6.294-2.215 8.184-1.476 1.89-3.637 2.834-6.483 2.834-2.811 0-4.96-.927-6.448-2.781-1.487-1.854-2.249-4.511-2.285-7.972v-4.748c0-3.602.747-6.336 2.241-8.202 1.494-1.866 3.646-2.799 6.457-2.799s4.96.924 6.448 2.772c1.488 1.849 2.25 4.502 2.285 7.963v4.749zm-5.12-5.22c0-2.14-.292-3.697-.876-4.673-.585-.975-1.497-1.463-2.737-1.463-1.205 0-2.094.464-2.666 1.392-.573.928-.877 2.379-.912 4.353v6.277c0 2.104.286 3.667.858 4.69.573 1.022 1.491 1.534 2.755 1.534 1.252 0 2.155-.49 2.711-1.472.555-.981.844-2.482.867-4.504v-6.134zm25.935 5.22c0 3.566-.738 6.294-2.215 8.184-1.476 1.89-3.637 2.834-6.483 2.834-2.811 0-4.96-.927-6.448-2.781-1.487-1.854-2.249-4.511-2.285-7.972v-4.748c0-3.602.747-6.336 2.241-8.202 1.494-1.866 3.646-2.799 6.457-2.799s4.96.924 6.448 2.772c1.488 1.849 2.25 4.502 2.285 7.963v4.749zm-5.12-5.22c0-2.14-.292-3.697-.876-4.673-.585-.975-1.497-1.463-2.737-1.463-1.205 0-2.094.464-2.666 1.392-.573.928-.877 2.379-.912 4.353v6.277c0 2.104.286 3.667.858 4.69.573 1.022 1.491 1.534 2.755 1.534 1.252 0 2.155-.49 2.711-1.472.555-.981.844-2.482.867-4.504v-6.134zm8.503-4.948c0-1.583.514-2.867 1.541-3.853 1.028-.986 2.374-1.479 4.039-1.479 1.689 0 3.047.487 4.075 1.461 1.027.974 1.541 2.294 1.541 3.959v1.276c0 1.594-.514 2.875-1.541 3.844-1.028.969-2.374 1.453-4.039 1.453-1.678 0-3.032-.487-4.065-1.461-1.034-.974-1.551-2.288-1.551-3.941v-1.259zm3.401 1.364c0 .708.204 1.278.611 1.709s.941.646 1.604.646c.661 0 1.187-.218 1.576-.656.39-.437.585-1.021.585-1.753v-1.311c0-.708-.195-1.281-.585-1.718s-.927-.655-1.612-.655c-.649 0-1.175.215-1.576.646s-.603 1.03-.603 1.798v1.294zm3.225 17.538l-2.498-1.347 12.595-20.159 2.498 1.346-12.595 20.16zm5.704-4.394c0-1.594.52-2.878 1.559-3.853 1.039-.974 2.386-1.461 4.039-1.461 1.677 0 3.032.481 4.065 1.444 1.033.963 1.55 2.288 1.55 3.977v1.275c0 1.583-.508 2.861-1.523 3.835-1.016.974-2.368 1.461-4.057 1.461-1.7 0-3.064-.49-4.092-1.471-1.027-.98-1.541-2.279-1.541-3.897v-1.31zm3.4 1.382c0 .649.213 1.205.639 1.665.425.461.956.691 1.594.691 1.44 0 2.161-.797 2.161-2.392v-1.346c0-.708-.201-1.278-.603-1.709-.401-.431-.933-.646-1.594-.646-.662 0-1.193.216-1.595.646-.401.431-.603 1.019-.603 1.763v1.328z" fill="#FFF"/><circle fill="#FFF" cx="164.641" cy="90.177" r="4"/><circle fill="#FFF" cx="14.891" cy="90.177" r="4"/><path fill="#FFF" d="M48.139 123.468l4.379 3.212-1.701 5.157 4.408-3.172 4.378 3.212-1.655-5.171 4.411-3.174-5.43-.024-1.655-5.173-1.704 5.16-5.431-.027zm17.508 0l4.379 3.212-1.701 5.157 4.408-3.172 4.378 3.212-1.655-5.171 4.411-3.174-5.43-.024-1.655-5.173-1.704 5.16-5.431-.027zm17.508 0l4.379 3.212-1.701 5.157 4.408-3.172 4.378 3.212-1.655-5.171 4.411-3.174-5.43-.024-1.655-5.173-1.704 5.16-5.431-.027zm17.508 0l4.379 3.212-1.701 5.157 4.408-3.172 4.378 3.212-1.655-5.171 4.411-3.174-5.43-.024-1.655-5.173-1.704 5.16-5.431-.027zm17.333 0l4.379 3.212-1.701 5.157 4.408-3.172 4.378 3.212-1.655-5.171 4.411-3.174-5.43-.024-1.655-5.173-1.704 5.16-5.431-.027zm-47.819-14.671h40v1h-40z"/></svg>