<svg xmlns="http://www.w3.org/2000/svg" width="161.255" height="188.373" viewBox="0 0 161.255 188.373"><g fill="#FFF"><path d="M90.394 160.166c-3.201.389-6.46.589-9.766.589-3.231 0-6.418-.191-9.549-.563"/><path d="M80.628 161.255a81.57 81.57 0 0 1-9.608-.567l.117-.992c6.33.751 12.882.742 19.196-.026l.121.992a81.568 81.568 0 0 1-9.826.593z"/></g><path fill="#FFF" d="M80.628 152.909c-39.856 0-72.281-32.425-72.281-72.281 0-39.855 32.425-72.28 72.281-72.28 39.855 0 72.28 32.425 72.28 72.28 0 39.856-32.425 72.281-72.28 72.281zm0-143.562c-39.305 0-71.281 31.976-71.281 71.28 0 39.305 31.977 71.281 71.281 71.281s71.28-31.977 71.28-71.281-31.976-71.28-71.28-71.28z"/><path fill="#FFF" d="M30.326 143.644C11.054 128.24 0 105.271 0 80.627 0 36.169 36.17 0 80.628 0s80.627 36.169 80.627 80.627c0 24.552-10.985 47.466-30.14 62.867l-.627-.779c18.917-15.211 29.767-37.841 29.767-62.088C160.255 36.721 124.534 1 80.628 1 36.721 1 1 36.721 1 80.627c0 24.338 10.917 47.022 29.951 62.235l-.625.782z"/><path d="M58.688 125.272c.51 0 .944.075 1.307.224.361.148.657.363.887.643.229.28.397.622.504 1.026.106.406.159.862.159 1.373 0 .51-.071.945-.216 1.306a2.29 2.29 0 0 1-.601.887c-.255.23-.555.398-.904.504-.349.106-.728.16-1.135.16h-1.224v5.305h-1.633v-11.428h2.856zm-.817 4.898c.409 0 .744-.028 1.008-.083.263-.056.471-.147.625-.274a.989.989 0 0 0 .319-.504c.059-.209.089-.466.089-.771 0-.307-.012-.585-.032-.837a1.29 1.29 0 0 0-.223-.645c-.126-.178-.329-.317-.605-.414-.276-.098-.67-.146-1.18-.146h-.408v3.673h.407zm9.467 6.531l-1.711-5.305h-1.224v5.305H62.77v-11.428h2.042c.714 0 1.308.073 1.78.22.471.147.847.353 1.127.622.281.266.479.589.594.966.116.377.173.794.173 1.253 0 .28-.022.533-.062.759a3.29 3.29 0 0 1-.163.602c-.07.178-.146.333-.231.466a2.154 2.154 0 0 1-.262.342 1.808 1.808 0 0 1-.718.484l1.843 5.714h-1.555zm-2.936-6.531h.409c.306 0 .584-.028.835-.087a1.63 1.63 0 0 0 .645-.296c.179-.141.316-.33.414-.566.099-.236.147-.531.147-.889s-.048-.655-.147-.89a1.364 1.364 0 0 0-.414-.564 1.599 1.599 0 0 0-.645-.297 3.836 3.836 0 0 0-.835-.085h-.409v3.674zm12.041 2.857c0 .51-.053.995-.159 1.454a3.28 3.28 0 0 1-.536 1.206 2.677 2.677 0 0 1-1.004.822c-.419.205-.942.305-1.566.305-.425 0-.801-.046-1.128-.139a2.928 2.928 0 0 1-.852-.388 2.502 2.502 0 0 1-.609-.601 3.174 3.174 0 0 1-.398-.773 4.5 4.5 0 0 1-.215-.898 7.574 7.574 0 0 1-.064-.989v-4.081c0-.339.022-.67.064-.989.043-.319.115-.618.215-.9.1-.281.233-.537.398-.771a2.52 2.52 0 0 1 .609-.601c.241-.164.525-.295.852-.388a4.131 4.131 0 0 1 1.128-.141c.624 0 1.147.102 1.566.307.417.203.753.479 1.004.822.251.344.429.746.536 1.206.106.459.159.944.159 1.454v4.083zm-4.897.408c0 .307.026.585.081.836.056.251.147.465.275.643.127.179.295.317.504.415.209.098.465.146.772.146.306 0 .563-.048.771-.146a1.26 1.26 0 0 0 .504-.415c.127-.178.217-.392.274-.643.056-.251.083-.529.083-.836v-4.897a3.86 3.86 0 0 0-.083-.837 1.79 1.79 0 0 0-.274-.645 1.265 1.265 0 0 0-.504-.414c-.208-.098-.465-.146-.771-.146-.307 0-.563.048-.772.146a1.265 1.265 0 0 0-.504.414 1.75 1.75 0 0 0-.275.645 3.916 3.916 0 0 0-.081.837v4.897zm6.327 3.266v-11.428h2.449c.612 0 1.127.054 1.544.166.416.11.753.293 1.008.548.256.255.437.591.548 1.007.111.417.167.931.167 1.545v4.489c0 .612-.056 1.15-.167 1.607-.111.459-.292.842-.548 1.148a2.325 2.325 0 0 1-1.012.69c-.418.152-.936.229-1.554.229h-2.435zm2.449-1.225c.408 0 .723-.052.943-.158a.997.997 0 0 0 .485-.504c.103-.23.162-.526.179-.887.018-.363.025-.798.025-1.308v-3.674c0-.408-.008-.765-.025-1.072-.018-.306-.077-.563-.181-.765a.994.994 0 0 0-.495-.46c-.226-.102-.547-.152-.963-.152h-.786v8.979h.818zm7.96 1.347c-.477 0-.889-.056-1.234-.169a2.681 2.681 0 0 1-.884-.466 2.365 2.365 0 0 1-.587-.701 3.93 3.93 0 0 1-.347-.871 5.73 5.73 0 0 1-.17-.976c-.028-.34-.044-.68-.044-1.02v-7.347h1.633v7.351c0 .205.002.417.007.64.004.22.021.436.054.648.031.21.079.411.143.602.064.191.157.359.278.5.12.143.274.257.461.342.187.085.417.127.69.127.271 0 .5-.043.688-.127.187-.085.342-.199.463-.342.121-.141.214-.309.277-.5a3.7 3.7 0 0 0 .144-.602c.031-.211.049-.428.053-.648.005-.222.007-.434.007-.64v-7.351h1.632v7.347c0 .34-.015.68-.044 1.02a5.73 5.73 0 0 1-.168.976 3.845 3.845 0 0 1-.347.871c-.15.27-.346.504-.588.701a2.705 2.705 0 0 1-.883.466c-.348.113-.759.169-1.234.169zm11.224-4.203v.408c0 .51-.055.995-.165 1.454-.112.46-.294.862-.549 1.206a2.75 2.75 0 0 1-1.009.822c-.416.205-.931.305-1.542.305-.613 0-1.129-.104-1.545-.313a2.597 2.597 0 0 1-1.007-.869 3.684 3.684 0 0 1-.549-1.331 7.93 7.93 0 0 1-.167-1.688v-3.261c0-.612.055-1.176.167-1.69.11-.514.293-.956.549-1.327a2.642 2.642 0 0 1 1.007-.867c.416-.209.932-.313 1.545-.313.577 0 1.074.093 1.488.278.414.186.752.444 1.013.775.263.332.454.732.579 1.196.122.465.184.979.184 1.541h-1.632c0-.408-.029-.765-.083-1.072a2.169 2.169 0 0 0-.274-.765 1.212 1.212 0 0 0-.504-.46c-.209-.102-.464-.152-.77-.152-.308 0-.564.05-.773.152a1.22 1.22 0 0 0-.505.46 2.189 2.189 0 0 0-.274.765 6.145 6.145 0 0 0-.082 1.072v4.081c0 .305.027.606.082.9.056.293.148.554.274.784.128.23.296.413.505.554.209.141.465.211.773.211.306 0 .561-.07.77-.211.209-.141.377-.324.504-.554.127-.23.218-.491.274-.784a4.98 4.98 0 0 0 .083-.9v-.408h1.633zm6.736-7.348v1.338H104.2v10.09h-1.632v-10.09h-2.042v-1.338h5.716zm-71.581-20.675v6.263h-3.662V93.086h6.934c1.335 0 2.509.244 3.521.732 1.014.488 1.793 1.182 2.338 2.081s.817 1.923.817 3.07c0 1.741-.596 3.114-1.788 4.12-1.192 1.005-2.842 1.507-4.95 1.507h-3.21zm0-2.966h3.271c.969 0 1.707-.228 2.216-.684.508-.456.763-1.106.763-1.953 0-.871-.257-1.575-.769-2.112-.514-.537-1.221-.813-2.125-.83h-3.356v5.579zm19.653-.672a9.789 9.789 0 0 0-1.27-.098c-1.335 0-2.21.452-2.625 1.355v8.643h-3.527V97.652h3.332l.098 1.574c.708-1.212 1.688-1.818 2.941-1.818.391 0 .758.053 1.1.158l-.049 3.393zm7.543 10.145c-1.937 0-3.514-.594-4.729-1.782-1.217-1.188-1.825-2.771-1.825-4.749v-.342c0-1.326.256-2.513.77-3.558.512-1.046 1.238-1.852 2.179-2.417.939-.566 2.012-.849 3.216-.849 1.807 0 3.229.569 4.267 1.709 1.038 1.14 1.557 2.755 1.557 4.846v1.44h-8.411c.114.863.458 1.555 1.032 2.075.573.521 1.3.781 2.179.781 1.359 0 2.421-.492 3.186-1.477l1.734 1.94c-.529.749-1.246 1.333-2.148 1.752-.907.421-1.907.631-3.007.631zm-.402-10.853c-.7 0-1.268.237-1.703.712-.436.474-.714 1.152-.836 2.035h4.907v-.282c-.017-.785-.228-1.392-.635-1.821-.407-.429-.984-.644-1.733-.644zm11.146-2.599l.11 1.477c.936-1.147 2.201-1.721 3.796-1.721 1.701 0 2.868.671 3.503 2.014.928-1.343 2.251-2.014 3.968-2.014 1.433 0 2.498.417 3.198 1.251s1.05 2.09 1.05 3.766v8.436h-3.54v-8.423c0-.749-.146-1.296-.439-1.642-.293-.347-.81-.52-1.551-.52-1.058 0-1.79.505-2.197 1.514l.013 9.07h-3.528v-8.411c0-.765-.15-1.318-.451-1.66s-.813-.513-1.538-.513c-1.001 0-1.726.415-2.173 1.245v9.339h-3.527V97.652h3.306zm18.309-3.418c0-.529.178-.965.531-1.307.354-.342.836-.513 1.447-.513.602 0 1.082.171 1.439.513.358.342.537.777.537 1.307 0 .537-.181.977-.543 1.318s-.84.513-1.434.513c-.595 0-1.073-.171-1.435-.513-.36-.342-.542-.781-.542-1.318zm3.748 16.626h-3.54V97.652h3.54v13.208zm10.817-1.343c-.871 1.058-2.076 1.587-3.613 1.587-1.416 0-2.497-.407-3.241-1.221-.745-.813-1.125-2.006-1.142-3.577v-8.654h3.527v8.542c0 1.377.627 2.065 1.881 2.065 1.195 0 2.018-.415 2.465-1.246v-9.361h3.541v13.208h-3.32l-.098-1.343zm9.386-11.865l.11 1.477c.936-1.147 2.201-1.721 3.796-1.721 1.701 0 2.868.671 3.503 2.014.928-1.343 2.251-2.014 3.968-2.014 1.433 0 2.498.417 3.198 1.251s1.05 2.09 1.05 3.766v8.436h-3.54v-8.423c0-.749-.146-1.296-.439-1.642-.293-.347-.81-.52-1.551-.52-1.058 0-1.79.505-2.197 1.514l.013 9.07h-3.528v-8.411c0-.765-.15-1.318-.451-1.66s-.813-.513-1.538-.513c-1.001 0-1.726.415-2.173 1.245v9.339h-3.527V97.652h3.306zm-3.931-56.746a6.062 6.062 0 0 0-12.122 0 6.03 6.03 0 0 0 1.424 3.899l-6.272 7.01-3.07-13.599a6.062 6.062 0 0 0-1.779-11.856 6.06 6.06 0 0 0-6.061 6.061 6.05 6.05 0 0 0 2.859 5.139l-5.284 13.648-5.283-13.648a6.053 6.053 0 0 0 2.859-5.139 6.062 6.062 0 1 0-7.84 5.795l-3.07 13.599-6.273-7.01a6.03 6.03 0 0 0 1.424-3.899 6.062 6.062 0 0 0-12.122 0 6.055 6.055 0 0 0 5.796 6.047l6.932 19.407h35.151l6.932-19.407a6.055 6.055 0 0 0 5.799-6.047zM63.052 69.997h35.151v8.485H63.052v-8.485zM40.628 86.861h80v1h-80zm0 30.911h80v1h-80zm13.471 70.601l-14.752-18.197-22.708-4.878 18.403-29.872.442.362c11.518 9.437 25.463 14.948 40.329 15.94l.827.056-22.541 36.589zm-35.867-23.755l21.669 4.653 14.086 17.377 20.936-33.981c-14.576-1.138-28.249-6.569-39.628-15.745l-17.063 27.696zm89.095 23.755l-22.549-36.6.825-.058c14.861-1.025 28.791-6.564 40.281-16.018l.442-.364 18.46 29.964-22.708 4.878-14.751 18.198zm-20.833-35.721l20.944 33.996 14.086-17.377 21.669-4.653-17.117-27.786c-11.353 9.194-25.009 14.651-39.582 15.82z" fill="#FFF"/></svg>