<svg xmlns="http://www.w3.org/2000/svg" xmlns:xlink="http://www.w3.org/1999/xlink" width="169.338" height="173.352" viewBox="0 0 169.338 173.352"><defs><path id="a" d="M0 0h169.337v173.352H0z"/></defs><clipPath id="b"><use xlink:href="#a" overflow="visible"/></clipPath><path clip-path="url(#b)" fill="#FFF" d="M12.085 99.153c-1.892.06-3.723-.672-5.493-2.197-1.954-1.587-3.602-2.473-4.944-2.656-.244-1.037-.489-3.082-.732-6.133-.245-2.686-.549-4.67-.916-5.952 3.479 1.892 5.829 3.449 7.05 4.669 2.197 2.137 3.326 4.884 3.387 8.24-.61.306-.335-2.106.825-7.233 1.465-.305 2.929-1.556 4.394-3.753 1.404-2.074 2.898-3.265 4.486-3.571.243 7.874-2.442 14.069-8.057 18.586M1.648 79.011c.305-8.117.55-12.42.733-12.909 2.929 2.746 4.761 4.7 5.493 5.859 1.586 2.625 2.197 5.768 1.831 9.43.793-5.553 4.546-10.131 11.261-13.733.183 3.969-.855 7.386-3.113 10.254-.732.916-1.801 2.046-3.204 3.387a307.175 307.175 0 0 0-3.387 3.296c-2.138.306-3.877-.488-5.219-2.38-1.465-2.074-2.93-3.143-4.395-3.204M9.705 96.68c-1.343-.975-2.687-3.112-4.028-6.408-1.405-3.296-2.747-5.432-4.029-6.409.06.123 1.221 2.778 3.479 7.966 1.404 3.356 2.93 4.974 4.578 4.851m12.817 5.677c-1.648 4.822-3.602 7.965-5.859 9.43-2.87 1.831-6.532 1.373-10.986-1.373-2.259-4.029-3.602-8.057-4.029-12.085 1.342.305 3.204 1.281 5.585 2.929 2.014 1.343 3.631 1.984 4.852 1.922.122.794.427 1.71.916 2.747.609 1.405.976 2.259 1.099 2.564.121.732.243 1.373.366 1.923 0-.61-.123-1.251-.366-1.923-.673-4.883 1.341-9.888 6.042-15.015.854.489 1.342 1.862 1.465 4.12.183 2.564.488 4.152.915 4.761M8.881 82.215c-1.281-.854-2.229-3.143-2.838-6.866-.611-3.662-1.557-5.951-2.838-6.867.183.306.884 3.174 2.105 8.606.854 3.663 2.045 5.372 3.571 5.127m-5.676 18.494c.976.611 2.655 2.778 5.035 6.501 1.953 2.929 3.784 4.272 5.493 4.027-1.465-.609-3.327-2.593-5.585-5.95-1.953-3.052-3.601-4.578-4.943-4.578m8.057-30.579c-1.649 0-2.87-1.19-3.662-3.57-.794-2.441-1.985-3.662-3.571-3.662.183-.427.671-2.777 1.465-7.05.549-2.868 1.678-4.546 3.387-5.035.122 1.221 1.037 3.51 2.747 6.866 1.22 2.32 1.373 4.852.457 7.599.488-.609 1.038-1.678 1.648-3.204.671-1.587 1.191-2.655 1.557-3.205 1.77.245 3.447-.243 5.035-1.465 1.648-1.281 3.204-1.891 4.669-1.831-1.587 6.958-6.165 11.81-13.732 14.557m12.085 56.397c-1.465.428-3.388.152-5.768-.824-2.076-.793-3.632-.793-4.67 0-1.465-.793-2.807-2.41-4.028-4.853-1.526-2.989-2.595-4.851-3.204-5.584 1.952-1.099 4.821-.732 8.606 1.098 3.905 1.892 6.134 4.212 6.683 6.959.671-.733-.153-3.144-2.472-7.234 1.037-.609 1.983-2.348 2.838-5.217.793-2.686 2.015-4.181 3.662-4.487.366 2.564 1.434 5.525 3.205 8.881-1.16.733-2.046 2.533-2.655 5.402-.611 3.112-1.343 5.066-2.197 5.859m-15.29-72.51c.06.672.06 2.014 0 4.028-.061 2.137-.061 3.694 0 4.669.122 3.479.916 4.884 2.38 4.212-1.038-.61-1.556-2.99-1.556-7.141.06-3.906-.215-5.828-.824-5.768m0 61.249c5.859 6.714 10.163 9.948 12.909 9.704-2.075-.609-4.303-2.166-6.683-4.669-2.504-2.685-4.578-4.363-6.226-5.035m6.409-58.869c-.733-.549-1.435-2.136-2.106-4.761-.55-2.319-1.435-3.692-2.655-4.119 3.784-7.568 5.645-11.322 5.585-11.262 1.647 2.504 2.563 5.311 2.746 8.423.184 3.296-.457 6.135-1.922 8.515.549-.609 1.342-1.831 2.38-3.662.916-1.708 1.739-2.899 2.472-3.57 1.708.182 3.418-.123 5.127-.916 2.074-.916 3.601-1.434 4.578-1.557-1.099 6.287-6.501 10.59-16.205 12.909m4.028 12.909c-.306.733-.855 1.771-1.648 3.113-1.098 1.771-1.771 2.899-2.014 3.387-1.526 2.808-2.167 4.945-1.923 6.409.305-1.22 1.434-3.509 3.388-6.866 1.586-2.807 2.319-4.821 2.197-6.043m11.353 48.34c1.891 1.099 3.326 3.022 4.302 5.768.976 2.747 1.283 5.463.916 8.148-.489 2.991-1.679 5.189-3.57 6.592-2.259 1.709-5.25 2.137-8.973 1.282-.061-.06-3.265-3.297-9.613-9.705 7.934-1.403 14.374.764 19.318 6.5-3.662-5.065-5.524-7.75-5.584-8.057.609-.853 1.128-2.623 1.556-5.309.366-2.624.915-4.363 1.648-5.219M17.762 83.039c-3.296 5.554-4.639 10.102-4.029 13.641 2.564-8.117 3.906-12.664 4.029-13.641m4.76-25.818c-3.479 1.648-6.408 5.402-8.789 11.261.793-.976 2.228-2.868 4.303-5.676 1.831-2.441 3.326-4.303 4.486-5.585M15.29 38.728c-.732 1.464-1.19 4.913-1.374 10.345-.061 1.892-.031 2.838.092 2.838.122 0 .275-1.465.458-4.394.06-.183.304-.824.732-1.923.366-.976.61-1.799.733-2.472.487-2.014.274-3.479-.641-4.394m0 91.827c1.342.306 3.875 1.74 7.599 4.303 2.989 2.075 5.585 2.808 7.782 2.197-2.076-.183-4.793-1.433-8.149-3.754-3.112-2.135-5.524-3.05-7.232-2.746m4.028-34.607c-.916 1.344-1.526 3.723-1.831 7.141-.306 3.236-.215 5.676.275 7.325.304-1.526.64-4.212 1.006-8.057.306-3.967.489-6.103.55-6.409m9.704-50.812c-2.075.49-4.119 1.801-6.133 3.937-2.504 2.747-4.212 4.394-5.127 4.944 1.037-.183 2.777-1.465 5.218-3.846 2.685-2.746 4.7-4.424 6.042-5.035m-8.88-3.204V39.46c.06-1.037.06-1.831 0-2.38-.123-1.708-.672-2.777-1.648-3.204 3.418-5.494 6.378-9.003 8.881-10.529.426.977.274 2.808-.458 5.493-.549 1.954-.123 3.082 1.282 3.387-2.138 3.296-3.754 5.983-4.852 8.057.792-.733 2.685-2.868 5.675-6.408 1.343.671 2.991.732 4.945.182 2.563-.732 4.394-1.067 5.493-1.007-1.526 3.662-4.182 6.349-7.965 8.057-3.786 1.709-7.569 1.984-11.353.824m5.676-15.289c-.123.306-1.19 2.503-3.204 6.591-1.405 2.809-1.679 5.159-.824 7.05-.062-1.708.792-4.455 2.563-8.24 1.465-3.234 1.953-5.035 1.465-5.401m-2.471 81.39c-.856 1.526-1.069 4.303-.641 8.331.426 3.662.915 5.708 1.464 6.135 0-2.015-.123-4.7-.366-8.057-.306-3.418-.457-5.554-.457-6.409m14.556 20.141c6.775 2.687 9.46 9.401 8.057 20.142-.916.305-3.022.609-6.317.916-2.747.243-4.669.732-5.768 1.465-.611-.611-2.503-1.954-5.676-4.028-2.381-1.526-3.998-3.144-4.852-4.853 6.225-.243 10.222-.243 11.993 0 3.356.428 6.073 1.77 8.148 4.028-.855-1.22-2.991-3.356-6.409-6.408.671-1.404.916-3.356.732-5.859-.244-2.747-.214-4.547.092-5.403m-1.648-94.298c-.672.488-2.746 1.77-6.225 3.844-2.504 1.527-4.456 2.93-5.86 4.212 7.446-3.479 11.474-6.164 12.085-8.056m-9.612 109.587c1.524.307 4.119 1.191 7.781 2.656 3.173 1.22 5.951 1.953 8.332 2.197-7.508-3.662-12.879-5.278-16.113-4.853m3.204-23.345c-.977 4.335.366 9.155 4.028 14.466-2.503-8.85-3.845-13.672-4.028-14.466m0-89.447c5.797-8.606 9.276-13.459 10.437-14.557.121-.488-.153-.762-.824-.824-5.616 8.057-8.546 12.36-8.789 12.909-.733-3.235.06-6.317 2.38-9.247 2.136-2.746 5.095-4.761 8.881-6.042-.55 1.221-1.13 2.778-1.74 4.669a562.818 562.818 0 0 1-1.465 4.12c-1.16 2.929-3.052 5.096-5.676 6.5.243-.122 1.282-.671 3.113-1.648 1.342-.793 2.563-1.403 3.662-1.831 3.356-1.159 7.018-1.342 10.986-.55-3.662 6.104-10.651 8.272-20.965 6.501m18.493-5.676c-4.577.794-9.4 2.686-14.465 5.676 3.601-1.159 8.423-3.051 14.465-5.676m13.733 128.174c-2.869 4.088-7.019 6.102-12.451 6.042-5.25-.123-9.43-2.137-12.543-6.042.976-.184 3.052-.582 6.226-1.191 2.136-.489 3.845-.764 5.127-.823 3.418-.307 6.897.365 10.437 2.014-1.038-.428-2.503-1.252-4.394-2.472-1.771-1.222-3.267-2.015-4.487-2.381.55-1.588.488-3.417-.183-5.493-.915-2.93-1.405-4.852-1.465-5.768 3.845.549 6.897 2.442 9.156 5.676 1.403 2.015 2.929 5.494 4.577 10.438m-17.761-8.881c.976-1.037.488-3.113-1.465-6.226-2.563-4.028-3.937-6.53-4.12-7.507-.061 2.38.763 4.792 2.472 7.233 1.891 2.686 2.93 4.852 3.113 6.5m-4.028 8.881c2.318 1.281 5.401 2.197 9.246 2.746 4.455.671 7.568.275 9.339-1.19-2.32.61-5.342.579-9.064-.092-5.31-.916-8.484-1.404-9.521-1.464m2.472-132.203c-.306-1.708.243-3.479 1.647-5.31 1.221-1.586 1.465-3.051.733-4.394.854-.366 3.081-1.495 6.683-3.387 2.685-1.404 5.035-2.411 7.05-3.022-3.968 7.324-7.752 11.627-11.352 12.909 5.553-1.891 11.199-1.891 16.937 0-4.029 4.456-11.262 5.525-21.698 3.204m1.556-4.028c-.062.732.06 1.16.366 1.282.366.061.518-.366.458-1.282.671-.792 2.747-2.44 6.225-4.944 2.747-1.952 4.151-3.539 4.212-4.761-2.076 1.71-5.829 4.944-11.261 9.705m13.733 1.557c-2.991 0-6.043.519-9.155 1.556-1.161.428-1.68.732-1.557.915.06.183.946.183 2.655 0 .793-.121 1.983-.458 3.571-1.006 2.014-.672 3.509-1.16 4.486-1.465m.824 133.025c.854-1.221-.153-3.204-3.021-5.95-3.479-3.357-5.434-5.677-5.86-6.958.122 2.503 1.434 4.822 3.937 6.958 2.807 2.318 4.455 4.303 4.944 5.95m20.965 7.233c-2.38 3.601-6.225 5.798-11.535 6.592-5.25.792-10.011-.061-14.282-2.563 7.141-4.822 14.403-6.409 21.789-4.761-.428-.245-3.662-1.344-9.704-3.296.183-1.954-.428-3.907-1.832-5.859-1.464-2.015-2.197-3.815-2.197-5.403 4.516.428 8.515 2.29 11.993 5.585 3.114 2.93 5.036 6.164 5.768 9.705m-22.613 2.472c.793.855 4.18 1.221 10.162 1.099 6.103-.123 8.911-1.038 8.423-2.747-1.099.672-7.294 1.22-18.585 1.648m24.17-147.491c-5.738 3.785-13.52 3.785-23.346 0 .671-4.334 3.081-7.568 7.232-9.705C67.414 2.87 71.716 1.527 78.186.001c-.549 2.197-2.411 4.426-5.584 6.683-3.053 2.137-6.287 3.662-9.705 4.578 4.517-1.404 10.681-.58 18.494 2.472M76.539 1.649c.243-.184-2.961 1.221-9.613 4.211-3.969 1.771-6.135 3.571-6.501 5.402 1.282-1.708 3.906-3.356 7.874-4.944 4.211-1.708 6.958-3.265 8.24-4.669M63.63 145.112c.915 2.319 2.959 4.425 6.134 6.317 4.333 2.564 6.866 4.211 7.598 4.944-1.038-1.831-3.265-3.753-6.683-5.768-3.602-2.137-5.951-3.968-7.049-5.493M67.658 12.91c1.342.549 3.692.947 7.049 1.19 3.356.244 3.967-.152 1.832-1.19h-8.881zm7.324 158.753c-.732-2.504.03-4.061 2.289-4.67 2.319-.549 3.692.214 4.12 2.289.243 2.99-1.373 4.333-4.852 4.028-.428-.976-.947-1.526-1.557-1.647m6.409-6.41c-.183-1.587.579-2.625 2.289-3.112 1.648-.489 3.052-.275 4.211.641.122 2.563-.152 4.179-.823 4.851-2.321 1.1-4.213.306-5.677-2.38m7.232 7.233c-.671-1.222-.732-2.35-.182-3.388.55-.976 1.403-1.587 2.563-1.83 1.16-.245 2.075.029 2.746.823.793.916.977 2.381.55 4.395-.55.55-1.496.824-2.838.824-1.343 0-2.289-.274-2.839-.824m0-157.196c4.212-3.784 9.065-5.402 14.558-4.852C96.466 5.983 92.438 2.504 91.096.001c13.976 2.38 20.691 7.202 20.142 14.465-.978.183-2.167.032-3.572-.458-1.342-.426-2.562-.518-3.662-.274.061.427.458.672 1.191.732h2.014c-1.221 1.343-3.753 1.954-7.599 1.831-1.343-.06-3.144-.213-5.402-.458a477.875 477.875 0 0 0-5.585-.549M94.3 157.197c6.409-.428 13.672 1.159 21.79 4.761-3.662 3.234-8.424 4.363-14.283 3.387-5.433-.916-9.553-3.113-12.359-6.592 2.44-4.578 4.729-7.935 6.867-10.071 3.173-3.051 7.079-4.791 11.719-5.219-.307 1.344-1.161 3.174-2.565 5.495-1.281 2.197-2.045 4.119-2.288 5.767a30.624 30.624 0 0 1-8.881 2.472m11.261-12.085c-1.038 1.831-3.266 3.754-6.684 5.767-3.601 2.075-5.92 3.906-6.957 5.494.854-.672 2.165-1.496 3.937-2.472a548.185 548.185 0 0 0 4.577-2.472c3.48-2.137 5.188-4.243 5.127-6.317m-12.908 15.289c1.158.732 7.903 1.251 20.232 1.557-.305 0-7.049-.52-20.232-1.557m9.704-147.491c-6.409 1.16-9.37 1.434-8.881.824 6.409-1.221 9.369-1.495 8.881-.824M94.3 1.649c.489 1.281 2.777 2.808 6.866 4.577 4.517 2.015 7.325 3.694 8.423 5.036-.976-2.074-3.327-3.876-7.05-5.402-4.394-1.77-7.14-3.173-8.239-4.211m27.374 16.846c-6.287-6.897-9.765-11.445-10.436-13.642 1.89.611 4.211 1.648 6.958 3.113 3.355 1.709 5.614 2.808 6.774 3.296-.794 1.221-.61 2.716.55 4.486 1.342 2.197 1.952 3.937 1.831 5.218-6.287 1.771-13.825 1.222-22.614-1.648 2.441-1.891 5.31-2.96 8.606-3.204 3.539-.305 6.318.489 8.331 2.381m0 131.378c.184 1.587 1.679 2.38 4.487 2.38 3.418.06 5.431.367 6.043.916-2.198 3.722-5.831 5.615-10.896 5.675-4.272.061-8.697-1.038-13.274-3.295 1.037-10.254 5.339-16.419 12.908-18.494-.611 5.433-1.251 8.881-1.922 10.346-1.282 2.685-3.877 4.333-7.782 4.943.975.55 2.593.367 4.852-.549 2.868-1.221 4.729-1.862 5.584-1.922m-2.38-10.437c-.489 1.465-2.228 3.54-5.218 6.225-2.625 2.381-3.845 4.334-3.662 5.859-.428.55 1.556-1.617 5.951-6.5 2.563-2.868 3.539-4.729 2.929-5.584m-8.056 16.113c2.074.854 5.004.884 8.789.091 4.333-.915 7.567-1.221 9.704-.915-1.343-1.16-4.364-1.344-9.064-.55-5.676 1.037-8.82 1.495-9.429 1.374m.823-136.231c1.525.123 4.272.519 8.24 1.19 2.014.367 1.953.245-.183-.366-.122 0-.549-.182-1.282-.549-.732-.305-1.373-.518-1.922-.641-1.832-.488-3.449-.366-4.853.366m4.029-9.612h.091c5.554 5.005 8.728 7.934 9.522 8.789-1.405-3.357-4.578-6.286-9.522-8.789-1.038-.916-1.617-1.434-1.739-1.557-.123-.06-.184-.092-.184-.092l1.832 1.649m2.38 16.113c2.686-1.709 5.645-2.349 8.881-1.923 3.051.428 5.585 1.618 7.599 3.57-3.724-4.516-5.983-9.368-6.776-14.556.184.061 3.938 2.746 11.262 8.056-.611.916-.673 2.625-.184 5.127.427 2.442.214 4.212-.64 5.31-6.165.307-12.879-1.556-20.142-5.584m7.233 119.293c8.056-3.052 14.77-4.151 20.141-3.296-.549 1.831-1.954 3.511-4.211 5.035-3.052 1.953-4.852 3.235-5.402 3.846-1.038-.733-3.235-1.222-6.592-1.465-3.235-.307-5.341-.886-6.316-1.739-.123-5.677.366-9.797 1.465-12.361 1.219-2.989 3.692-5.309 7.416-6.958.487 5.25.395 8.943-.276 11.079-.855 2.686-2.93 4.638-6.225 5.859m4.852-14.557c0 1.893-1.099 4.334-3.296 7.324-2.014 2.747-2.778 4.884-2.289 6.409.184-.854 1.495-3.113 3.937-6.775 1.77-2.685 2.319-5.004 1.648-6.958m-4.028 16.938c2.806.671 8.453-.947 16.937-4.853-1.771.366-4.548 1.222-8.331 2.564-3.479 1.16-6.348 1.922-8.606 2.289m8.881-116.822c.487-.366-.886-1.22-4.12-2.564-3.174-1.341-4.487-1.586-3.937-.732 3.234 1.588 5.919 2.687 8.057 3.296m-5.677-14.557c1.648 1.831 4.608 5.859 8.881 12.085-.733-2.502-2.014-5.035-3.846-7.599-1.892-2.563-3.57-4.058-5.035-4.486m4.028 18.585c2.502-1.22 4.913-1.067 7.234.458.792.55 1.769 1.373 2.929 2.472 1.465 1.465 2.38 2.35 2.746 2.655-2.441-2.746-4.059-8.117-4.852-16.114 1.525-.426 3.113.49 4.761 2.748 2.44 3.295 3.814 5.066 4.12 5.309-.244.977-.49 2.747-.733 5.311-.182 2.38-.458 4.119-.824 5.218-3.601.549-7.507-.275-11.719-2.472-4.272-2.198-6.561-4.608-6.866-7.233.976.428 3.265 1.863 6.866 4.303 3.296 2.32 6.103 3.846 8.423 4.578-8.546-5.004-12.574-7.416-12.085-7.233m4.029 101.532c3.784-4.454 9.979-6.866 18.585-7.232-.855 2.625-3.541 5.829-8.056 9.613-5.068.915-8.668.457-10.804-1.373-2.015-1.649-3.266-4.944-3.754-9.889 4.578-6.592 6.744-9.826 6.501-9.704.488.672.884 2.441 1.19 5.31.243 2.442.916 3.907 2.014 4.394-.061.245-1.954 3.205-5.676 8.881m1.648-16.113c.366 1.954-.184 4.548-1.648 7.782-1.282 2.869-1.527 5.097-.733 6.684-.061-1.221.641-3.663 2.106-7.325 1.159-2.868 1.251-5.249.275-7.141m13.732-68.573c-.123-.854-.548-2.044-1.281-3.571-.673-1.403-1.068-2.623-1.19-3.662 1.159-.243 1.831-1.342 2.014-3.296.244-3.051.396-4.638.457-4.761 1.587.49 2.869 1.893 3.846 4.212 1.342 3.174 2.197 5.005 2.564 5.494-.367.732-.733 1.831-1.099 3.295-.489 1.709-.824 2.838-1.008 3.388-.976 2.503-2.685 3.753-5.127 3.753-.122-.671-.457-1.465-1.007-2.38h.184c.121.061.03 0-.274-.183-2.138-3.784-5.526-6.684-10.164-8.698 1.038.733 2.686 2.229 4.945 4.487 2.013 2.013 3.754 3.418 5.219 4.211.059.061.09.123.09.183-2.503.306-5.066-.701-7.69-3.021-2.38-2.075-4.06-4.578-5.035-7.508 1.22.062 2.868.581 4.943 1.557 1.892.855 3.754 1.16 5.585.916 1.953 3.356 3.296 5.218 4.028 5.584m-13.732 86.243c4.577-1.037 9.398-3.723 14.465-8.057l-14.465 8.057zm9.796-16.297c2.319-2.807 7.109-5.432 14.374-7.873.426 1.526-.215 3.51-1.923 5.951-2.197 3.235-3.419 5.279-3.662 6.134-1.282-.671-3.388-.579-6.317.274-2.808.794-5.005.702-6.592-.274-.244-1.099-.672-2.93-1.281-5.493-.428-1.954-.703-3.448-.825-4.487-.366-3.051.335-6.164 2.106-9.338 2.197 1.527 3.722 3.785 4.578 6.775.853 3.052.701 5.829-.458 8.331-.733.916-1.314 1.802-1.739 2.655.671-.732 1.25-1.616 1.739-2.655m-5.768-95.672c2.136 7.08 4.029 11.901 5.676 14.465-.428-2.93-2.32-7.751-5.676-14.465m11.261 33.05c.061.916.518 2.076 1.373 3.479.793 1.222 1.159 2.472 1.099 3.754.366-8.24 2.227-13.335 5.585-15.289 3.356 6.408 2.563 12.848-2.381 19.317-8.239-1.342-13.336-6.194-15.289-14.557 1.465-.06 3.021.55 4.67 1.831 1.586 1.222 3.234 1.71 4.943 1.465m-7.232 50.72c-.184-1.403-.398-1.433-.641-.091-.245 1.221-.458 3.113-.642 5.676-.489 6.654-.336 9.37.458 8.149 1.404-2.075 1.678-6.653.825-13.734m0-51.544c1.341.855 2.838 2.595 4.486 5.219 1.647 2.625 3.112 4.364 4.394 5.218-3.845-6.835-6.806-10.314-8.88-10.437m7.232 51.544c1.403-3.112 3.173-5.461 5.311-7.049 1.464-1.099 4.271-2.502 8.421-4.211-1.342 5.675-2.685 9.704-4.027 12.085-1.771-.184-3.571.305-5.402 1.464-1.893 1.222-3.602 1.801-5.127 1.74-1.281-.489-2.38-2.074-3.296-4.761-.856-2.686-1.893-4.303-3.112-4.853 0-3.662.548-7.17 1.647-10.528 1.099.428 2.228 1.862 3.388 4.303 1.037 2.259 2.319 3.511 3.845 3.754-.306.794-.581 2.137-.824 4.028-.245 1.893-.519 3.235-.824 4.028m5.676-37.079c1.587.062 2.747-.792 3.479-2.563.915-2.197 1.648-3.479 2.198-3.845 1.403.733 2.166 2.503 2.289 5.31.059.794.09 2.046.09 3.754-.06 1.709-.06 2.991 0 3.845-1.77-.183-3.173.672-4.21 2.563-1.161 2.014-2.442 3.021-3.846 3.021-3.418-1.158-6.257-3.356-8.514-6.592-2.32-3.355-3.236-6.804-2.747-10.345.488.428 1.557 1.16 3.204 2.198 1.404.915 2.473 1.679 3.205 2.288 2.257 1.954 3.601 4.243 4.029 6.867-.612.183-.336-1.983.823-6.501m-11.261 53.193c2.441-.915 4.913-2.502 7.416-4.761 2.502-2.197 4.059-4.089 4.669-5.676-3.724 3.479-7.752 6.957-12.085 10.437m11.261-37.812c1.77 0 3.326-.884 4.67-2.655 1.465-1.891 2.868-2.898 4.211-3.021.243 3.053-.306 7.356-1.648 12.909-1.831-.366-3.387.245-4.669 1.832-1.282 1.587-2.686 2.319-4.212 2.197-3.296-2.381-5.585-4.639-6.866-6.775-1.892-3.114-2.563-7.05-2.014-11.811 1.586.489 3.143 1.771 4.668 3.846 1.709 2.258 3.114 3.662 4.212 4.211.183 3.602-.061 6.287-.732 8.056-.55.366.243-2.563 2.38-8.789m-10.528 8.057c.792 1.039 1.25 3.541 1.374 7.508.121 3.662.761 5.982 1.921 6.958-.427-.976-.763-3.601-1.006-7.874-.123-3.539-.886-5.737-2.289-6.592m.824-25.818c.854.733 2.044 2.961 3.57 6.684 1.282 3.112 2.532 4.639 3.754 4.577-.489-.609-1.862-2.99-4.12-7.141-1.709-3.173-2.778-4.546-3.204-4.12m3.204 16.114c-.794-2.075-1.251-2.777-1.373-2.106-.062.611.151 1.922.64 3.937 1.404 5.616 2.747 8.239 4.029 7.873-.794-1.281-1.465-3.022-2.014-5.219-.732-2.685-1.16-4.18-1.282-4.485m0-47.516c-.062 3.235.427 6.958 1.465 11.169.426 1.588.732 2.35.916 2.289.243-.122.274-1.404.091-3.846-.061-.548-.367-1.799-.916-3.753-.489-1.831-.732-3.539-.732-5.127-.061-.609-.336-.854-.824-.732m12.909 61.248c-1.831.794-3.724 2.778-5.677 5.951-2.013 3.236-3.876 5.281-5.584 6.134 2.38-.671 4.516-2.44 6.408-5.309 2.441-3.846 4.059-6.103 4.853-6.776m-5.585-41.107c-.489.489-.824 2.289-1.007 5.402a49.495 49.495 0 0 0-.092 2.564c.061.61.153.64.275.091 1.404-.854 1.953-4.089 1.648-9.705-.123-1.952-.305-2.929-.549-2.929-.183 0-.275 1.526-.275 4.577m0 38.635c.305-.67.885-1.677 1.74-3.021.976-1.586 1.648-2.715 2.014-3.387 1.525-2.747 2.136-4.913 1.831-6.501-.366 1.099-1.465 3.419-3.296 6.958-1.465 2.93-2.228 4.914-2.289 5.951m5.585-29.022c-1.404 1.039-2.533 3.479-3.388 7.324-.244.977-.518 2.381-.824 4.212-.244 1.588-.427 2.595-.549 3.021.916-1.403 1.77-3.784 2.564-7.141.854-3.662 1.587-6.134 2.197-7.416M57.607 108.409c0 1.383-.218 2.579-.656 3.591-.437 1.012-1.05 1.815-1.838 2.41l2.505 1.953-1.643 1.482-3.106-2.454c-.407.087-.845.13-1.312.13-1.176 0-2.225-.289-3.151-.866-.925-.578-1.639-1.401-2.143-2.47-.505-1.068-.76-2.301-.766-3.696v-.821c0-1.423.252-2.678.755-3.767.505-1.089 1.216-1.922 2.134-2.499.919-.578 1.969-.867 3.151-.867 1.202 0 2.262.286 3.18.856.919.571 1.628 1.393 2.129 2.465.501 1.071.755 2.319.761 3.741v.812zm-2.544-.762c0-1.643-.307-2.888-.921-3.736-.615-.848-1.483-1.273-2.605-1.273-1.089 0-1.942.43-2.559 1.288-.618.858-.934 2.069-.947 3.631v.852c0 1.576.308 2.808.927 3.696.617.889 1.483 1.333 2.599 1.333 1.129 0 1.995-.428 2.599-1.283.605-.855.907-2.104.907-3.746v-.762zm15.787-6.912v9.747c0 1.55-.496 2.777-1.488 3.682-.991.905-2.312 1.357-3.962 1.357-1.669 0-2.995-.445-3.977-1.337-.981-.891-1.472-2.129-1.472-3.712v-9.737h2.524v9.758c0 .974.247 1.72.742 2.233.494.515 1.222.772 2.183.772 1.95 0 2.926-1.029 2.926-3.085v-9.678h2.524zm10.649 11.19h-5.65l-1.182 3.395h-2.635l5.51-14.585h2.274l5.519 14.585h-2.644l-1.192-3.395zm-4.939-2.044h4.228l-2.114-6.051-2.114 6.051zm12.963 3.416h6.622v2.023h-9.156v-14.586h2.534zm8.716-12.563h2.524v14.586h-2.524zm15.888 2.045h-4.549v12.542h-2.513v-12.542h-4.508v-2.044h11.57zm6.832 4.868l3.355-6.912h2.805l-4.889 9.217v5.369h-2.543v-5.369l-4.899-9.217h2.815zM50.038 83.604h-6.031V60.358l-7.198 2.233v-4.904l12.582-4.507h.647zm30.319-12.563c0 4.202-.869 7.415-2.608 9.641s-4.285 3.339-7.637 3.339c-3.311 0-5.843-1.092-7.596-3.276-1.752-2.184-2.65-5.314-2.691-9.391v-5.592c0-4.243.879-7.463 2.639-9.661 1.76-2.198 4.295-3.297 7.606-3.297s5.843 1.089 7.595 3.266c1.753 2.177 2.651 5.303 2.692 9.379v5.592zm-6.03-6.148c0-2.52-.344-4.355-1.033-5.504-.689-1.148-1.763-1.723-3.224-1.723-1.419 0-2.466.547-3.14 1.64-.675 1.093-1.033 2.802-1.075 5.128v7.394c0 2.478.337 4.32 1.012 5.524.674 1.205 1.756 1.807 3.245 1.807 1.474 0 2.538-.578 3.193-1.734.653-1.155.994-2.924 1.022-5.305v-7.227zm30.55 6.148c0 4.202-.871 7.415-2.609 9.641s-4.285 3.339-7.637 3.339c-3.31 0-5.844-1.092-7.596-3.276-1.753-2.184-2.65-5.314-2.691-9.391v-5.592c0-4.243.879-7.463 2.639-9.661 1.759-2.198 4.295-3.297 7.605-3.297 3.311 0 5.844 1.089 7.596 3.266 1.754 2.177 2.65 5.303 2.693 9.379v5.592zm-6.031-6.148c0-2.52-.344-4.355-1.033-5.504-.688-1.148-1.764-1.723-3.225-1.723-1.418 0-2.465.547-3.138 1.64-.676 1.093-1.034 2.802-1.077 5.128v7.394c0 2.478.338 4.32 1.012 5.524.676 1.205 1.758 1.807 3.246 1.807 1.475 0 2.539-.578 3.192-1.734.654-1.155.996-2.924 1.023-5.305v-7.227zm10.016-5.829c0-1.864.605-3.376 1.815-4.538 1.21-1.161 2.796-1.743 4.758-1.743 1.989 0 3.589.574 4.799 1.722 1.211 1.148 1.815 2.702 1.815 4.664v1.502c0 1.878-.604 3.388-1.815 4.528-1.21 1.141-2.796 1.711-4.758 1.711-1.975 0-3.571-.573-4.788-1.721-1.218-1.148-1.826-2.695-1.826-4.643v-1.482zm4.006 1.607c0 .835.24 1.506.72 2.014.48.508 1.109.762 1.888.762s1.398-.258 1.857-.772c.459-.515.689-1.204.689-2.066v-1.545c0-.834-.23-1.509-.689-2.024-.459-.514-1.091-.772-1.898-.772-.766 0-1.385.254-1.857.762-.473.508-.71 1.214-.71 2.118v1.523zm3.797 20.658l-2.941-1.586 14.836-23.746 2.942 1.586-14.837 23.746zm6.72-5.174c0-1.879.611-3.392 1.836-4.539 1.224-1.148 2.81-1.722 4.758-1.722 1.974 0 3.571.567 4.789 1.701 1.217 1.134 1.825 2.695 1.825 4.685v1.502c0 1.864-.598 3.37-1.794 4.518-1.196 1.147-2.789 1.721-4.778 1.721-2.004 0-3.61-.577-4.82-1.732-1.211-1.154-1.816-2.684-1.816-4.59v-1.544zm4.006 1.627c0 .765.251 1.419.752 1.961.5.543 1.126.814 1.878.814 1.696 0 2.545-.939 2.545-2.817v-1.585c0-.835-.237-1.506-.709-2.014-.473-.508-1.099-.762-1.878-.762-.779 0-1.405.254-1.878.762-.474.508-.71 1.2-.71 2.076v1.565z"/></svg>