<svg viewBox="0 0 70 70" id="sale" xmlns="http://www.w3.org/2000/svg">
<path d="M33.0429 1.68448C34.168 0.716139 35.832 0.71614 36.9571 1.68448L38.4731 2.98933C39.3343 3.73065 40.5406 3.9217 41.5888 3.48281L43.4338 2.71029C44.803 2.137 46.3856 2.65122 47.1563 3.91982L48.1949 5.62928C48.785 6.60047 49.8731 7.1549 51.0056 7.06141L52.9991 6.89685C54.4784 6.77472 55.8247 7.75283 56.1657 9.1975L56.6252 11.1442C56.8862 12.2502 57.7498 13.1138 58.8558 13.3748L60.8025 13.8343C62.2472 14.1753 63.2253 15.5216 63.1032 17.0009L62.9386 18.9944C62.8451 20.1269 63.3995 21.215 64.3707 21.8051L66.0802 22.8437C67.3488 23.6144 67.863 25.197 67.2897 26.5662L66.5172 28.4112C66.0783 29.4594 66.2693 30.6657 67.0107 31.5269L68.3155 33.0429C69.2839 34.168 69.2839 35.832 68.3155 36.9571L67.0107 38.4731C66.2693 39.3343 66.0783 40.5406 66.5172 41.5888L67.2897 43.4338C67.863 44.803 67.3488 46.3856 66.0802 47.1563L64.3707 48.1949C63.3995 48.785 62.8451 49.8731 62.9386 51.0056L63.1032 52.9991C63.2253 54.4784 62.2472 55.8247 60.8025 56.1657L58.8558 56.6252C57.7498 56.8862 56.8862 57.7498 56.6252 58.8558L56.1657 60.8025C55.8247 62.2472 54.4784 63.2253 52.9991 63.1032L51.0056 62.9386C49.8731 62.8451 48.785 63.3995 48.1949 64.3707L47.1563 66.0802C46.3856 67.3488 44.803 67.863 43.4338 67.2897L41.5888 66.5172C40.5406 66.0783 39.3343 66.2693 38.4731 67.0107L36.9571 68.3155C35.832 69.2839 34.168 69.2839 33.0429 68.3155L31.5269 67.0107C30.6657 66.2693 29.4594 66.0783 28.4112 66.5172L26.5662 67.2897C25.197 67.863 23.6144 67.3488 22.8437 66.0802L21.8051 64.3707C21.215 63.3995 20.1269 62.8451 18.9944 62.9386L17.0009 63.1032C15.5216 63.2253 14.1753 62.2472 13.8343 60.8025L13.3748 58.8558C13.1138 57.7498 12.2502 56.8862 11.1442 56.6252L9.1975 56.1657C7.75282 55.8247 6.77472 54.4784 6.89685 52.9991L7.06141 51.0056C7.1549 49.8731 6.60047 48.785 5.62928 48.1949L3.91982 47.1563C2.65122 46.3856 2.137 44.803 2.71029 43.4338L3.48281 41.5888C3.9217 40.5406 3.73065 39.3343 2.98933 38.4731L1.68448 36.9571C0.716139 35.832 0.716139 34.168 1.68448 33.0429L2.98933 31.5269C3.73065 30.6657 3.9217 29.4594 3.48281 28.4112L2.71029 26.5662C2.137 25.197 2.65122 23.6144 3.91982 22.8437L5.62928 21.8051C6.60047 21.215 7.1549 20.1269 7.06141 18.9944L6.89685 17.0009C6.77472 15.5216 7.75283 14.1753 9.1975 13.8343L11.1442 13.3748C12.2502 13.1138 13.1138 12.2502 13.3748 11.1442L13.8343 9.1975C14.1753 7.75282 15.5216 6.77472 17.0009 6.89685L18.9944 7.06141C20.1269 7.1549 21.215 6.60047 21.8051 5.62928L22.8437 3.91982C23.6144 2.65122 25.197 2.137 26.5662 2.71029L28.4112 3.48281C29.4594 3.9217 30.6657 3.73065 31.5269 2.98933L33.0429 1.68448Z"/>
</svg>
