<svg xmlns="http://www.w3.org/2000/svg" width="255" height="76.48" viewBox="0 0 255 76.48"><defs><style>.a,.b{fill:#b3b3b3}.b{stroke:#b3b3b3;stroke-miterlimit:10}</style></defs><path class="a" d="M47.52 61.83v-.09l.1-.64a.89.89 0 0 1-.32.29.85.85 0 0 1-.26.11 2.09 2.09 0 0 0-.13-.65.61.61 0 0 0-.27 0l-.93 1.06c-.07-.15-.17-.18-.26-.09a1.48 1.48 0 0 0-.22.29l-.64.8a7.47 7.47 0 0 0-.63.85c-.54.86-1.06 1.59-1.49 2.22a19.29 19.29 0 0 1-1.69 1.93 14.93 14.93 0 0 1-1.32 1.06 8.71 8.71 0 0 1-1.53.89 4.5 4.5 0 0 1-.6.17 1.83 1.83 0 0 1-.66 0 .44.44 0 0 1-.48-.37l-.07-.59a6.66 6.66 0 0 1 .21-1.25c.11-.43.2-.85.32-1.26a10.3 10.3 0 0 1 .67-2c.22-.46.45-1 .66-1.53s.29-.76.36-1 .16-.41.24-.59.17-.38.29-.6a8.13 8.13 0 0 0 .43-1 7.29 7.29 0 0 1 .37-.77l.22-.48c.06-.17.15-.33.22-.5l.35-.78c.39-.78.8-1.55 1.25-2.32a20.1 20.1 0 0 0 1.22-2.35 5.67 5.67 0 0 1 .92-1.55 4.45 4.45 0 0 0 .85-1.59c.13-.45.29-.89.46-1.33a2.67 2.67 0 0 0 .18-1.31 1.76 1.76 0 0 0-.06-.4l-.1-.3a1 1 0 0 0-.25-.62l-.47-.51a3.45 3.45 0 0 0-.51-.5l-.54-.35a3.35 3.35 0 0 0-1.58-.38 16.26 16.26 0 0 0-1.84.07 8 8 0 0 1-1.07.38 3.82 3.82 0 0 0-1 .47c-.86.55-1.69 1.14-2.52 1.76a15.93 15.93 0 0 0-2.3 2.12c-.23.24-.43.48-.62.72s-.4.48-.59.72a1 1 0 0 0-.31.34.83.83 0 0 1-.3.26l.25-1.24v-2.55a2.74 2.74 0 0 0-.12-.81 2.19 2.19 0 0 0-.29-.81 2.6 2.6 0 0 0-.16-.34 2.88 2.88 0 0 0-.16-.29 6 6 0 0 0-1.2-.65 2.59 2.59 0 0 0-1.06-.19 5.61 5.61 0 0 0-1.29.21 8.53 8.53 0 0 0-1.27.49 6.49 6.49 0 0 0-1.06.74l-.68.58a5.86 5.86 0 0 0-.69.62l-.36.43c-.23.25-.44.54-.68.85l-.68.84a2.41 2.41 0 0 1-.37.38 8.46 8.46 0 0 1 .11-1c.06-.38.08-.75.11-1.15a7.45 7.45 0 0 0 .1-1.03 3.75 3.75 0 0 0 0-.67 5 5 0 0 0-1.76-3.1 5.13 5.13 0 0 0-3.7-1.06c-.43.08-.86.19-1.31.32l-1.31.44a19.63 19.63 0 0 0-2.06 1.14c-.68.44-1.34.88-1.94 1.36l-.58.44a3.72 3.72 0 0 0-.48.41c-.27.23-.58.54-.94.89l-1.05 1.06c-.34.34-.7.8-1.07 1.2a12.13 12.13 0 0 0-.8 1.07c-.39.47-.76 1-1.12 1.48a11 11 0 0 0-1 1.59 16.72 16.72 0 0 0-.88 1.64 9.82 9.82 0 0 0-.55 1.77.17.17 0 0 0 0 .14v.1a4.1 4.1 0 0 0-.26 1.93 3.32 3.32 0 0 0 0 .63 2.62 2.62 0 0 0 .12.62 1.09 1.09 0 0 0 .12.3.69.69 0 0 0 .14.3 4.44 4.44 0 0 0 .35.77 2.34 2.34 0 0 0 .53.56 3.6 3.6 0 0 0 .55.29 4.76 4.76 0 0 0 .53.19 5.61 5.61 0 0 0 .58 0h.34a5 5 0 0 0 .95-.1c.33-.08.66-.13 1.06-.19l.54-.17h.28a1.22 1.22 0 0 0 .27 0 2.16 2.16 0 0 0 .48-.24 3.26 3.26 0 0 0 .85-.48 8.41 8.41 0 0 0 1.12-.74 1.46 1.46 0 0 0 .48-.41c.12-.17.27-.35.4-.54h.05a.48.48 0 0 0 .29-.3 1.25 1.25 0 0 0 .14-.41c.06-.16.09-.28.11-.32a2.9 2.9 0 0 0-.06-.41c-.07-.21-.15-.43-.24-.63a4.48 4.48 0 0 1-.29-.58l-.29-.08a.57.57 0 0 1-.27-.13l-.5-.18a.76.76 0 0 0-.32-.11.92.92 0 0 0-.33 0 2 2 0 0 0-.47.23.56.56 0 0 0-.2.11l-.37.31-.35.27a1.22 1.22 0 0 1-.19.12 2.33 2.33 0 0 0-.35.27.49.49 0 0 1-.12.13.72.72 0 0 1-.2.09l-.52.27-.3.15a2.2 2.2 0 0 1-.37.06.47.47 0 0 1-.32-.12.83.83 0 0 1-.25-.41v-.16a1.22 1.22 0 0 0 0-.27.71.71 0 0 1 0-.29 13.53 13.53 0 0 1 .65-1.85 7.43 7.43 0 0 1 1.07-1.69c.35-.57.72-1.1 1.06-1.57l1.22-1.34c.28-.26.53-.54.79-.82a3.68 3.68 0 0 1 .88-.74 6.54 6.54 0 0 0 .65-.53l.79-.71c.29-.25.57-.49.84-.7a4.23 4.23 0 0 1 .68-.52 7.7 7.7 0 0 1 2.5-.93 2.6 2.6 0 0 1 1.24.06.79.79 0 0 1 .47.33 2.06 2.06 0 0 1 .25.59 2.77 2.77 0 0 1 .11.64 2.46 2.46 0 0 1-.07.6 7 7 0 0 0-.12.92 3.45 3.45 0 0 1-.19.89c-.07.24-.13.54-.22.89a3.92 3.92 0 0 1-.28.88c-.16.51-.3 1.06-.46 1.47s-.31.94-.5 1.43-.3.79-.41 1.14-.29.75-.46 1.15-.31.64-.44.93-.24.58-.38.89c-.28.64-.56 1.28-.79 1.94s-.51 1.27-.8 1.87c-.15.31-.28.6-.43.9s-.25.59-.39.88c-.24.63-.5 1.23-.78 1.81s-.56 1.14-.79 1.74a9.51 9.51 0 0 0-.62 1.43 7.91 7.91 0 0 1-.63 1.54c-.27.48-.51 1-.74 1.46a7.47 7.47 0 0 0-.45 1.46 5 5 0 0 0-.09 1.54.81.81 0 0 0 0 .22 1.58 1.58 0 0 0 1.34 1.24 2.19 2.19 0 0 1 .64.07h.7a1.86 1.86 0 0 0 1.31-.47 2.38 2.38 0 0 0 .69-1.28c.12-.48.27-1 .4-1.44l.42-1.43.09-.23c.1-.22.2-.46.3-.69a3.44 3.44 0 0 1 .35-.69.83.83 0 0 1 .16-.33c.06-.13.09-.25.15-.39a1.72 1.72 0 0 1 .16-.45 19.51 19.51 0 0 0 .95-2c.29-.65.56-1.32.83-2a9.1 9.1 0 0 1 .4-.9c.13-.28.27-.57.39-.88s.38-.89.57-1.31.37-.87.53-1.29a9.94 9.94 0 0 1 .44-.95c.15-.29.26-.55.4-.8s.27-.53.41-.82a8.33 8.33 0 0 1 .55-.89l.13-.29a3.41 3.41 0 0 1 .49-1.06l.67-1a13.44 13.44 0 0 1 1.21-1.69 19.45 19.45 0 0 1 1.4-1.61 16.6 16.6 0 0 1 1.41-1.37 5 5 0 0 1 1.16-.78 1 1 0 0 1 .65-.19.44.44 0 0 1 .36.19.86.86 0 0 1 .15.43 2 2 0 0 1 0 .49 14.15 14.15 0 0 1-.55 1.82l-.62 1.73c-.34 1.06-.72 2.12-1.12 3.19s-.87 1.93-1.32 3a9.85 9.85 0 0 1-.52 1.05 10.41 10.41 0 0 0-.45 1.07l-1.2 3c-.13.39-.29.78-.45 1.16a9.42 9.42 0 0 0-.47 1.14c-.07.21-.16.41-.23.62a2.87 2.87 0 0 0-.22.62c-.12.33-.25.65-.36 1s-.18.64-.25 1a3.17 3.17 0 0 0-.12 1.3 3.67 3.67 0 0 0 .41 1.29 1.6 1.6 0 0 0 1.84.67 1.79 1.79 0 0 0 .4-.09 1.36 1.36 0 0 1 .36-.1.58.58 0 0 0 .34-.19.75.75 0 0 1 .26-.21 3.59 3.59 0 0 0 1-1.45 4.37 4.37 0 0 1 .17-.62 1.82 1.82 0 0 1 .27-.54l1.06-2.47c.54-1.22 1.06-2.44 1.64-3.62s1.16-2.36 1.82-3.55c.21-.36.41-.74.63-1.14a7.42 7.42 0 0 1 .7-1.14c.23-.33.44-.67.63-1s.4-.7.64-1.06a17.82 17.82 0 0 0 1.17-1.67 12.79 12.79 0 0 1 1.41-1.79 12.78 12.78 0 0 1 1.34-1.52c.45-.4.95-.84 1.48-1.28a3.55 3.55 0 0 1 .44-.35 5.75 5.75 0 0 1 .74-.37c.27-.13.54-.25.81-.35a2.42 2.42 0 0 1 .65-.13.25.25 0 0 1 .28.22 1.34 1.34 0 0 1-.25.74 6.19 6.19 0 0 0-.38.63l-.33.58c-.36.61-.66 1.17-.91 1.65s-.5 1-.73 1.41l-.71 1.38c-.22.48-.49 1-.78 1.55s-.39.73-.5 1a3.93 3.93 0 0 0-.3.66c-.09.2-.18.42-.28.68a6.53 6.53 0 0 1-.41 1 7.81 7.81 0 0 1-.38.83l-.25.47-.2.48c-.07.19-.15.48-.25.88s-.29.73-.41 1.06-.22.7-.32 1.06l-.61 2.13a14.29 14.29 0 0 0-.52 2.42 4.92 4.92 0 0 0 .66 3 3.61 3.61 0 0 0 .59.76 1.64 1.64 0 0 0 .77.46 10.06 10.06 0 0 0 1.45.29 3 3 0 0 0 1.43-.13l1-.29a13.3 13.3 0 0 0 2.26-1.06 7.9 7.9 0 0 0 1.8-1.51l.82-.87c.27-.28.53-.56.79-.86l.12-.13a14.46 14.46 0 0 0 1.17-1.42c.38-.54.77-1.07 1.18-1.66.13-.23.25-.44.38-.63s.25-.41.38-.63a4.3 4.3 0 0 0 .32-.6 2.32 2.32 0 0 0 .16-.68 1 1 0 0 1 .1-.17.42.42 0 0 0 .09-.16.37.37 0 0 0 0-.21.91.91 0 0 1 .1-.41.72.72 0 0 0 0-.46.2.2 0 0 1-.05-.31z"/><path class="a" d="M53.78 51.55a1.46 1.46 0 0 0-1.06-.88 3.62 3.62 0 0 0-.93 0l-.85.21a.22.22 0 0 0-.15.08h-.13l-.43.39a.88.88 0 0 0-.28.38 1.12 1.12 0 0 0-.22.58 2 2 0 0 1 0 .49 2.52 2.52 0 0 0 .08.54 1.5 1.5 0 0 0 .31.55 1.08 1.08 0 0 0 .54.35.82.82 0 0 0 .49.2 1.69 1.69 0 0 0 .55 0 .9.9 0 0 0 .68-.08 2.35 2.35 0 0 1 .6-.2c.17-.13.35-.27.51-.42a1.35 1.35 0 0 0 .29-.58.81.81 0 0 1 0-.22 1.63 1.63 0 0 1 .09-.19 2.12 2.12 0 0 0-.09-1.2zm5.53 7.7a.81.81 0 0 1 0-.22.45.45 0 0 0 .08-.22c-.16 0-.22.08-.19.14s0 .08-.16.14a.66.66 0 0 0 0-.28l.16-.62v-.03a1.09 1.09 0 0 0-.28.36c-.23 0-.38-.1-.39-.2s-.1-.12-.21 0a.87.87 0 0 1-.17-.22.34.34 0 0 0-.28 0 .94.94 0 0 0-.33.25l-.35.37-.19.18h.07c.07 0 .07 0 0 .09s-.08 0-.11 0a.3.3 0 0 0-.07.29c0 .07 0 .17-.22.26a2.13 2.13 0 0 1-.31.47 1.25 1.25 0 0 0-.2.38 12 12 0 0 0-.82 1.06l-1.16 1.31a12.7 12.7 0 0 1-1.07 1.33c-.38.41-.6.72-.79.91-.42.46-.95 1-1.57 1.56a10.84 10.84 0 0 1-1.61 1.33c-.22.08-.33.15-.36.21a1.31 1.31 0 0 1-.37.24.56.56 0 0 1-.65 0 .6.6 0 0 1-.15-.6 8.61 8.61 0 0 1 .77-2.38c.37-.8.78-1.6 1.23-2.43s.86-1.66 1.27-2.54a12.28 12.28 0 0 0 .95-2.71 3.63 3.63 0 0 1 .13-.64 1.13 1.13 0 0 0 0-.63c-.09-.15-.16-.28-.26-.42a1.6 1.6 0 0 1-.23-.4.33.33 0 0 0-.29-.19l-.35-.13-.4-.13a2.13 2.13 0 0 1-.42.1h-.59l-.24.09a.85.85 0 0 1-.17.25 1.67 1.67 0 0 1-.23.23 1.22 1.22 0 0 0-.24.32 16.28 16.28 0 0 0-.91 1.42 20.44 20.44 0 0 0-1 2.13l-.69 1.53-.26.56-.08.27v.22a2.24 2.24 0 0 1-.22.4 1.46 1.46 0 0 0-.23.61 3.53 3.53 0 0 1-.16.64 2.44 2.44 0 0 1-.19.44l-.1.15a.66.66 0 0 0-.09.19 4.57 4.57 0 0 0-.22.62c-.17.58-.33 1.23-.49 2a8.52 8.52 0 0 0-.12 1.66 5 5 0 0 0 0 .55 3.08 3.08 0 0 0 .72 1.81 2.67 2.67 0 0 0 2.07.79 5.06 5.06 0 0 0 1.77-.25 8.37 8.37 0 0 0 1.66-.71 17.24 17.24 0 0 0 1.57-1.06c.5-.39 1-.77 1.45-1.15l.35-.38a2.89 2.89 0 0 1 .23-.28l.32-.41.37-.44c.15-.17.39-.45.74-.83a7.72 7.72 0 0 0 .53-.61c.19-.27.36-.53.55-.82s.37-.54.55-.79l.42-.55.44-.71c.19-.3.38-.64.59-1l.56-1c.18-.32.31-.54.38-.7a3.16 3.16 0 0 0 .16-.43c0-.17.12-.33.16-.49s-.06-.1 0-.15-.05.03-.1-.11z"/><path class="a" d="M76.78 59.44c-.05-.12-.09-.19-.12-.19v-.21a.24.24 0 0 1-.23-.13.7.7 0 0 1-.13-.24.65.65 0 0 1-.31.08h-.21a.17.17 0 0 1 0-.19v-.18a1.44 1.44 0 0 0-.25.18.74.74 0 0 1-.16.19.37.37 0 0 0-.09.16h-.15s-.1-.06-.11 0l-.12.09a.7.7 0 0 1 .13-.32.5.5 0 0 0 .1-.33 2.46 2.46 0 0 0-.62.33 2.29 2.29 0 0 0-.41.52c-.16.26-.37.57-.61.92l-.71 1.04c-.23.36-.5.72-.73 1.06s-.44.61-.6.86l-2 2.41-.59.69-.82.92c-.3.32-.58.61-.89.89a3.14 3.14 0 0 1-.68.52 1.07 1.07 0 0 1-.71.24.39.39 0 0 1-.29-.24.89.89 0 0 1 0-.51 3.39 3.39 0 0 1 .13-.55 18.62 18.62 0 0 1 1.17-3.39c.41-.93.87-1.85 1.35-2.8a8.73 8.73 0 0 1 .53-1.06l.69-1.18c.23-.43.49-.92.76-1.52a5.91 5.91 0 0 0 .48-1.9v-.44a2.21 2.21 0 0 0-.44-1.06 7.57 7.57 0 0 0-.73-.88 1.16 1.16 0 0 0-.7-.32 4.68 4.68 0 0 1-.83-.16 2 2 0 0 0-.6 0l-.51.12a1.45 1.45 0 0 0-.54.19c-.14.06-.47.25-1 .57a5.46 5.46 0 0 0-.71.53 12.39 12.39 0 0 0-.94.83c-.32.3-.65.64-1 1s-.59.69-.85 1a2 2 0 0 1-.12.19l-.23.31-.22.26c-.06.09-.12.13-.15.13a.29.29 0 0 1 0-.13.79.79 0 0 1 .08-.26 2.19 2.19 0 0 1 .11-.42 3.53 3.53 0 0 1 .15-.46l.32-.93c.13-.34.22-.64.32-.92a3.64 3.64 0 0 0 .14-.47 1.65 1.65 0 0 0-1.44-1.83h-.08a5 5 0 0 0-.54-.06 1 1 0 0 0-.49.06 2 2 0 0 0-1.22 1.25 2.39 2.39 0 0 1-.23.73c-.12.26-.23.52-.33.79s-.19.71-.3 1.07-.26.7-.39 1.06q-.39 1.08-.63 1.86c-.1.28-.19.58-.28.86s-.13.41-.17.6c-.13.47-.29 1-.45 1.49s-.37 1.16-.63 1.91l-1.2 3.5c-.12.3-.21.59-.31.88a.9.9 0 0 0-.07.27 3 3 0 0 0-.15.59 1 1 0 0 1-.13.32c0 .08-.06.15 0 .21a2.53 2.53 0 0 1 0 .55v.34a2.54 2.54 0 0 0 .16.38c.15.15.19.25.16.29a.4.4 0 0 0 .08.28 1.37 1.37 0 0 0 1.06.57 4 4 0 0 0 1.23-.29c.19-.07.29-.16.27-.29s.06-.27.26-.39.19-.16.24-.16.11-.12.16-.32 0-.39.11-.44.13-.16.17-.38a9.32 9.32 0 0 1 .23-.91 3 3 0 0 1 .38-.81 1.51 1.51 0 0 1 .12-.47 2.82 2.82 0 0 0 .07-.31c0-.09.08-.19.13-.28a3.26 3.26 0 0 1 .24-.4c.08-.19.13-.28.13-.3l.14-.32a3.73 3.73 0 0 0 .31-.78 2.22 2.22 0 0 1 .38-.79 15.49 15.49 0 0 1 .79-1.52 18.36 18.36 0 0 1 1.07-1.54c.11-.13.27-.34.48-.62l.72-.77c.24-.26.48-.54.71-.78l.51-.52a12.07 12.07 0 0 1 1.86-1.7c.42-.25.67-.35.78-.26s.06.28-.08.61a9.08 9.08 0 0 1-.6 1.06 21.64 21.64 0 0 0-1.5 2.6 26.12 26.12 0 0 0-1.19 3l-.57 1.76a11.25 11.25 0 0 0-.38 1.7 7 7 0 0 0-.08.92 6.84 6.84 0 0 0 .08.89 4.79 4.79 0 0 0 .24 1.06 1.6 1.6 0 0 0 .64.81l.44.36a1.73 1.73 0 0 0 .8.4 5.2 5.2 0 0 0 .94.09h.57c.23 0 .45-.06.68-.08a3.82 3.82 0 0 0 .67-.15 1.8 1.8 0 0 0 .49-.22c.31-.2.57-.39.83-.55a7.26 7.26 0 0 0 .78-.59.69.69 0 0 0 .23-.22.45.45 0 0 1 .21-.15l.21-.17a.28.28 0 0 0 .16-.28.47.47 0 0 1 .24-.18c.49-.45.94-.93 1.37-1.41a10.55 10.55 0 0 0 .69-.81c.23-.28.39-.48.56-.72l.87-1.06a10.31 10.31 0 0 0 .86-1.19 1.53 1.53 0 0 0 .14-.21 1.14 1.14 0 0 0 .15-.23 3.86 3.86 0 0 1 .39-.65l.59-.84c.22-.29.39-.6.58-.86a5.07 5.07 0 0 0 .4-.72.49.49 0 0 0 .07-.19.18.18 0 0 0 0-.22 1.25 1.25 0 0 0-.09-.25.42.42 0 0 1 0-.27.89.89 0 0 1 .31-.19c.1-.07.11-.16.04-.31z"/><path class="a" d="M93.87 58.67a.74.74 0 0 0 0 .21c.06-.1.08-.17 0-.21zm.76 1.78c0-.09 0-.13-.07-.1h-.21l.19-.43a.4.4 0 0 0-.07-.43l-.23.08a.24.24 0 0 1-.09-.28c0-.13 0-.2-.2-.2v-.06c0-.06-.06 0-.1 0a.16.16 0 0 0-.14.09.25.25 0 0 1-.26.12c-.12 0 0-.19 0-.25s.07-.11 0-.17a1.45 1.45 0 0 0-.37.37c0 .12-.09.22-.16.37h-.24l-.16.23a9.94 9.94 0 0 0-.74 1.18l-.57.81c-.22.32-.46.67-.7 1.06l-.73 1.07c-.22.34-.39.59-.55.81s-.44.56-.66.87a3.93 3.93 0 0 1-.64.82l-.63.61a8.05 8.05 0 0 1-1 .78 2.39 2.39 0 0 1-1 .42c-.29.06-.47-.12-.52-.53a.11.11 0 0 1 0-.11.28.28 0 0 0 0-.13 6.25 6.25 0 0 1 0-1.06 3.26 3.26 0 0 1 .24-1.06 4.53 4.53 0 0 1 .09-.74 9.9 9.9 0 0 1 .28-1.07 11.28 11.28 0 0 1 .34-1.13c.13-.35.22-.66.3-.9s.37-.77.53-1.16.29-.8.42-1.17c.31-.56.59-1.14.84-1.72s.51-1.17.78-1.71a1.58 1.58 0 0 1 .3-.61.68.68 0 0 0 .17-.56.71.71 0 0 0 0-.57 1.79 1.79 0 0 0-.28-.63 1.1 1.1 0 0 0-.29-.42 3.18 3.18 0 0 0-.4-.23 1 1 0 0 1-.24 0 1.3 1.3 0 0 0-.93-.08.41.41 0 0 0-.32.09c-.06.06-.16.16-.29.31a.74.74 0 0 1-.39 0 1.27 1.27 0 0 0-.13.19l-.14.22a.46.46 0 0 0-.14.22l-.14.26a3.21 3.21 0 0 1-.31.5 2.56 2.56 0 0 0-.22.35c-.16.27-.34.57-.51.92s-.38.65-.53.93a11.45 11.45 0 0 0-.55 1.11 6.45 6.45 0 0 1-.48 1.22 1.2 1.2 0 0 0-.33.55 3.33 3.33 0 0 1-.38.66c-.12.2-.2.35-.23.41a.8.8 0 0 0-.08.16.26.26 0 0 1-.11.14l-.32.32a.37.37 0 0 1-.08.15l-.08.14-.56.87a2.67 2.67 0 0 1-.69.77 2.15 2.15 0 0 1-.33.46 1.71 1.71 0 0 0-.35.36 9.63 9.63 0 0 0-.73.83 9 9 0 0 1-.79.85 4.55 4.55 0 0 1-1.4 1.06c-.28.09-.44 0-.47-.13a1.3 1.3 0 0 1 .09-.73 4.64 4.64 0 0 1 .22-.66l.19-.61a3.43 3.43 0 0 0 .14-.42 2.05 2.05 0 0 1 .16-.38 5 5 0 0 1 .31-.52 4.17 4.17 0 0 1 .36-.81l.4-.8.39-1.06c.12-.28.28-.61.49-1a5.33 5.33 0 0 0 .35-.73 4.32 4.32 0 0 1 .42-.76 9.35 9.35 0 0 1 .6-1.18c.27-.44.49-.86.68-1.24a4 4 0 0 0 .3-.88 2.22 2.22 0 0 0 0-.89.51.51 0 0 0-.08-.32.73.73 0 0 1-.29-.26 1.64 1.64 0 0 0-.29-.3 1.22 1.22 0 0 1-.32-.24 3 3 0 0 1-.24-.32h-1.1c-.19 0-.28 0-.29.1s-.13.13-.34.17a1.67 1.67 0 0 0-.32.08.84.84 0 0 0-.13.27.48.48 0 0 1-.12.22.86.86 0 0 0-.23.5 2.34 2.34 0 0 1-.13.54 4.42 4.42 0 0 0-.34.6 4.26 4.26 0 0 0-.26.62 8.14 8.14 0 0 0-.69 1.73 16 16 0 0 1-.63 1.62s-.19.38-.3.65a5.33 5.33 0 0 1-.4.79q-.3.6-.54 1.23a5.17 5.17 0 0 1-.51 1.06 1.24 1.24 0 0 1-.18.52c-.1.19-.16.34-.22.46-.21.44-.4.9-.58 1.38a7.05 7.05 0 0 0-.35 1.51c0 .28-.07.57-.1.87v.21a3.14 3.14 0 0 0 0 1.06 2.94 2.94 0 0 0 .6 1.47 3.17 3.17 0 0 0 1.17.91 5.31 5.31 0 0 0 .87.16 2.22 2.22 0 0 0 .77-.07c.34-.07.67-.15 1-.25a1.86 1.86 0 0 0 .6-.29 8.16 8.16 0 0 1 1.13-.79 4.5 4.5 0 0 0 1.16-1.06 6.59 6.59 0 0 0 .63-.67 3.57 3.57 0 0 1 .7-.7l.5-.67a4.22 4.22 0 0 1 .54-.58 2 2 0 0 1 0 .35 1.66 1.66 0 0 1-.08.61c-.09.21 0 .41-.08.6a.69.69 0 0 0 0 .32.53.53 0 0 1 .06.39.71.71 0 0 0 .07.35v.62a1.71 1.71 0 0 0 0 .32 1.17 1.17 0 0 0 .11.33c.07.15.19.35.35.66a.65.65 0 0 1 .2.17l.2.26a1.38 1.38 0 0 0 1.19.55 7.42 7.42 0 0 1 1.49 0 2.8 2.8 0 0 0 .5-.12l.65-.22.67-.24a1.26 1.26 0 0 0 .44-.24 8.66 8.66 0 0 0 1.21-.79 7.38 7.38 0 0 0 1.12-1.18c.29-.39.57-.76.82-1.06l.35-.41a4.62 4.62 0 0 0 .87-1.3c.45-.61.91-1.22 1.35-1.83a8.41 8.41 0 0 0 1.06-1.9 3.45 3.45 0 0 0 .16-.37l.18-.29a.48.48 0 0 1 0-.17.15.15 0 0 0 0-.18.4.4 0 0 1 0-.37.69.69 0 0 0 .1-.5z"/><path class="a" d="M105.27 58.33zm5.56-9.66a.16.16 0 0 1 .17-.08.84.84 0 0 0-.22-.43 3.21 3.21 0 0 1-.22-.38.36.36 0 0 1 .22-.09c.09 0 .13-.1.12-.23l-.29-.37a.28.28 0 0 0-.16-.19c-.06-.06-.12 0-.18 0s-.13.06-.19 0a.45.45 0 0 0-.23 0h-.22a.53.53 0 0 0-.35 0 .44.44 0 0 1-.32 0 .66.66 0 0 0-.44 0h-.54a2.15 2.15 0 0 0-.7.12 1.38 1.38 0 0 1-.7 0h-.46a4.27 4.27 0 0 1-.48.13l-.49.09h-.37c-.47 0-.8.09-1.06.1a7.8 7.8 0 0 0-1.07.15h-.44a1.35 1.35 0 0 1 .08-.36c.07-.16.11-.34.19-.51a3.9 3.9 0 0 0 .19-.5 3.09 3.09 0 0 1 .14-.32c0-.18 0-.36.07-.54a1 1 0 0 0-.07-.47 2.17 2.17 0 0 0-.17-.42 1.23 1.23 0 0 0-.27-.4l-.34-.32a2 2 0 0 0-.46-.23 2.11 2.11 0 0 0-.45-.1.62.62 0 0 0-.27 0 1.46 1.46 0 0 0-.24.17 1.76 1.76 0 0 1-.37.29.38.38 0 0 0-.23.16 1.77 1.77 0 0 1-.31.46.63.63 0 0 0-.22.44 1.08 1.08 0 0 1-.16.68 2.63 2.63 0 0 0-.29.64 2.6 2.6 0 0 1-.21.55 2.27 2.27 0 0 0-.22.54c-.07.13-.11.27-.2.42a.29.29 0 0 1-.28.22.62.62 0 0 0-.27 0h-.25a4.21 4.21 0 0 0-.71 0l-.67.11a10.88 10.88 0 0 0-1.24.16l-1.66.1h-.45a1.73 1.73 0 0 0-.55.15.73.73 0 0 0-.43.16 1.15 1.15 0 0 0-.34.32 7.75 7.75 0 0 1-.39.73.66.66 0 0 0 0 .28 1.85 1.85 0 0 1 .07.41.52.52 0 0 0 .16.35c.09.13.16.28.26.44a.8.8 0 0 0 .34.34 4.48 4.48 0 0 0 .52.16 4.68 4.68 0 0 0 .53 0 3.08 3.08 0 0 0 .66-.13l1-.26h.38l.7-.05a4.22 4.22 0 0 0 .7-.1 3.89 3.89 0 0 0 .47-.09.44.44 0 0 0-.17.19.14.14 0 0 1 0 .09l-2.89 5.49c-.31.63-.5 1.06-.59 1.25l-.2.4-.12.23c0 .07-.16.34-.34.76a.06.06 0 0 0 0 .06c-.15.32-.23.58-.29.73l-.19.48a2 2 0 0 1-.16.5c-.06.2-.15.47-.28.82-.23.71-.47 1.57-.73 2.58a23.56 23.56 0 0 0-.45 2.61v.38a9.83 9.83 0 0 1-.1 1.06 6.07 6.07 0 0 0 .1 1.47 3.39 3.39 0 0 0 .39 1.09 2.1 2.1 0 0 0 .86.86 1.25 1.25 0 0 1 .4.2 1.09 1.09 0 0 0 .72.21 5.91 5.91 0 0 0 3.38-1.06 20.12 20.12 0 0 0 2.5-1.81 25.3 25.3 0 0 0 2.12-2.27c.62-.76 1.06-1.39 1.42-1.83.11-.15.3-.38.59-.71l.86-1.06c.28-.38.57-.73.83-1.06a5 5 0 0 0 .46-.76.39.39 0 0 0 .1-.16.42.42 0 0 1 .09-.16 1.24 1.24 0 0 0 .29-.39 3 3 0 0 0 .12-.43l-.09-.09a.59.59 0 0 0 .07-.29.28.28 0 0 1 0-.22.18.18 0 0 0-.07-.25.17.17 0 0 1-.09-.23c.09-.18 0-.31-.22-.35 0-.23 0-.37.07-.43s.06 0-.07 0-.1 0 0-.05.09-.09 0-.09-.07 0-.06-.08a1 1 0 0 0 0-.24.41.41 0 0 0-.19-.13h-.07a.33.33 0 0 0 0 .14.09.09 0 1 1-.12 0s0-.07-.09-.09l-.2.14a.23.23 0 0 1-.16.06 1 1 0 0 0-.57.39 5 5 0 0 1-.35.54l-.13.13-.12.15c-.79.94-1.48 1.79-2.06 2.57s-1.14 1.52-1.69 2.2-1.15 1.32-1.74 1.94a15.88 15.88 0 0 1-2.12 1.8 1.5 1.5 0 0 1-.42.15 1.62 1.62 0 0 1-.44 0 .46.46 0 0 1-.34-.21 1.26 1.26 0 0 1-.13-.63v-.64a1.91 1.91 0 0 1 .14-.52 11.22 11.22 0 0 1 .37-1.7c.17-.49.37-1.06.57-1.71s.39-1.06.5-1.34.22-.62.35-.92.3-.7.52-1.15.54-1.16.94-2.06c.13-.21.22-.35.25-.41a.55.55 0 0 0 .08-.15.22.22 0 0 1 .06-.14 2 2 0 0 0 .21-.47c.12-.24.26-.5.56-1.06s.6-1.06.92-1.68.63-1.14.9-1.69l.55-1.06c.08-.18.25-.35.36-.32a2 2 0 0 0 .6 0 5.7 5.7 0 0 1 1.48-.22 2.6 2.6 0 0 0 1-.09 3.72 3.72 0 0 1 .57-.08l.9-.08 1-.08.67-.08h.31c0-.09.23-.12.5-.1a2.91 2.91 0 0 0 .59 0l.52-.06a.77.77 0 0 0 .44-.17c0-.09 0-.16.16-.23a1 1 0 0 1 .29-.11c.13 0 .17-.08.11-.16a.23.23 0 0 1 0-.25.46.46 0 0 0 .23-.17zm26.62-3.28v-.08a.43.43 0 0 1 0-.16.43.43 0 0 0 0-.16 3.7 3.7 0 0 0-.25-.73 1.75 1.75 0 0 0-.26-.51l-.5-.32-.35-.32a.28.28 0 0 1-.16-.05h-.15a3.88 3.88 0 0 0-.66-.14l-.58-.15a14.59 14.59 0 0 0-1.87 0 13 13 0 0 0-1.87.29h-.61a1.55 1.55 0 0 1-.31.06l-.38.06-.39.09a10.22 10.22 0 0 1-1.22.17l-1.25.15-.31.07-1.34.29a16.79 16.79 0 0 0-1.77.39c-.62.17-1.21.3-1.81.48a9.27 9.27 0 0 0-1.55.57 2.15 2.15 0 0 0-.46.33 1.46 1.46 0 0 0-.36.56 2.69 2.69 0 0 0-.27.32 1.15 1.15 0 0 0-.12.25l-.12.48a.36.36 0 0 1-.08.19.3.3 0 0 0-.08.17c-.06.06 0 .15 0 .27a.43.43 0 0 1 .06.29.5.5 0 0 0 .16.49.62.62 0 0 1 .1.22.11.11 0 0 0 .11.12h.06c.16-.07.36.06.58.36h.27v.07l.29.13.63.09.72-.29.61-.22.45-.21.44-.19.64-.19h.19l2.73-.91c.82-.16 1.61-.32 2.43-.45s1.63-.28 2.39-.44l.85-.16-.64 1-.43.48c-.16.17-.29.35-.41.5l-.24.41c-.31.38-.59.75-.89 1.11s-.6.72-.91 1.06l-.42.36-.27.32-.56.66-.28.25-.69.76-.73.72-.44.51a4.67 4.67 0 0 1-.4.38c-.51.59-1.06 1.19-1.64 1.84s-1.15 1.24-1.7 1.87v-.13l-.13.16-.58.66-.22.26c-.07.09-.15.17-.23.26l-.38.48a4.11 4.11 0 0 1-.38.45l-1.24 1.56v.08l-.49.48-.29.35c-.36.4-.75.83-1.13 1.3a7.66 7.66 0 0 0-1 1.37l-.21.27-.51.71a11.56 11.56 0 0 0-1.24 1.78 20.16 20.16 0 0 0-.93 1.86 7.42 7.42 0 0 0-.69 2.36 2.49 2.49 0 0 0 .13 1.82 1.76 1.76 0 0 0 .24.42 3 3 0 0 1 .29.43 2.59 2.59 0 0 0 1.06.62 3.4 3.4 0 0 0 1.27 0 2 2 0 0 0 .63-.07 2 2 0 0 0 .54-.09l.66-.13 1.75-.51.84-.34a4.85 4.85 0 0 1 .68-.19l1.4-.24a11 11 0 0 1 1.13-.28 7 7 0 0 1 1.12-.16 2.41 2.41 0 0 0 .38 0h.82a2.8 2.8 0 0 0 .41 0h1.65a2.1 2.1 0 0 0 .51-.1h.55a.72.72 0 0 0 .54 0 6 6 0 0 0 .58-.25V74h.88c.11-.14.1-.22 0-.23s-.21-.09-.21-.13l-.07-.17.22-.31c.34-.19.41-.42.24-.71v-.6c0-.29 0-.47-.13-.53a4.16 4.16 0 0 1-.47-.24l-.16-.07h.44a2.46 2.46 0 0 0-.73-.59h-3.41l-.87.09-.9.11a10.86 10.86 0 0 1-1.13.13l-.85.13a3.72 3.72 0 0 0-.66.08 1 1 0 0 0-.33.09c-.09 0-.21.09-.34.12a4 4 0 0 1-.6.14l-.61.08-.46.11a2.51 2.51 0 0 0-.46.16c-.21.08-.42.16-.64.22a2.72 2.72 0 0 1-.69.19h-.64c.25-.45.5-.89.79-1.32s.48-.72.57-.88l.23-.31a1 1 0 0 1 .27-.26.56.56 0 0 0 .19-.31 1.48 1.48 0 0 1 .21-.34l.27-.36a4.58 4.58 0 0 1 .63-.82 2.94 2.94 0 0 0 .54-.67l.49-.55a3.7 3.7 0 0 1 .54-.71l.63-.71 1.47-1.67c.44-.45.85-.92 1.29-1.4s.86-1 1.28-1.4.88-1 1.32-1.47.87-1 1.34-1.52a12.41 12.41 0 0 0 1-1.06c.31-.37.6-.75.89-1.16s.47-.58.73-.9a12.05 12.05 0 0 1 .85-.9 3.66 3.66 0 0 0 .51-.68v.1l1.21-1.4v-.08l1.28-1.28a7.62 7.62 0 0 0 .76-.94 9.89 9.89 0 0 1 .76-1.07l.57-.92.16-.29a6.18 6.18 0 0 1 .26-.72.8.8 0 0 0 .03-.68z"/><path class="a" d="M153.95 58.16zm.37 1.26l-.08.11.08-.74-.08.16a.6.6 0 0 1-.17-.38 1.23 1.23 0 0 0-.12-.37l-.07.07v-.11c-.1.12-.15.17-.13.12s0 0-.12 0l-.09-.11a.36.36 0 0 0-.07-.1l-.06.1c-.06.09 0 .09-.1.08v-.13a1 1 0 0 0 .07-.15h-.16a.15.15 0 0 0-.12.19c0 .06 0 .12-.13.17s0 .11-.08.08h-.11a1.11 1.11 0 0 0-.51.25 1.06 1.06 0 0 0-.36.31l-.19.3a2.75 2.75 0 0 1-.22.26s-.07 0 0 .11a.48.48 0 0 1 0 .17 3.89 3.89 0 0 0-.36.34 1.77 1.77 0 0 0-.28.43c-.13.21-.37.59-.69 1.16s-.67 1.12-1.06 1.78-.8 1.26-1.22 1.87a10.4 10.4 0 0 1-1.11 1.3 7 7 0 0 1-1 1.06 4 4 0 0 1-1 .63l-.4.13a.82.82 0 0 1-.44 0 .69.69 0 0 1-.45-.71 7.49 7.49 0 0 1 .13-1.83c.11-.48.22-1 .36-1.47a20.17 20.17 0 0 1 .82-2.12c.25-.58.52-1.23.83-2a14.65 14.65 0 0 1 .72-1.58c.28-.52.55-1.06.84-1.63.08-.18.19-.37.32-.6a11.39 11.39 0 0 0 .7-1.54 2 2 0 0 0 .15-.68 1.09 1.09 0 0 0 .21-.48.55.55 0 0 0 0-.53 2.65 2.65 0 0 1-.27-.53.08.08 0 0 0-.12 0s-.08 0-.11-.13a.32.32 0 0 0-.21.08c0 .07-.1 0-.11-.08s-.13-.23-.21-.23l-.32-.07a1 1 0 0 0-.39.07l-.69.23a1 1 0 0 0-.57.56l-.47 1v-.16a3.25 3.25 0 0 1-.35-.63 1.43 1.43 0 0 0-.4-.48 1.6 1.6 0 0 0-.72-.31 6 6 0 0 0-1.27-.07.68.68 0 0 0-.28.07.92.92 0 0 1-.23.09 6.65 6.65 0 0 0-1.87.77 12.31 12.31 0 0 0-1.64 1.23 15.19 15.19 0 0 0-1.46 1.54c-.48.55-.93 1.09-1.34 1.63l-.26.32a2.69 2.69 0 0 1-.34.47 5 5 0 0 0-.33.47 2 2 0 0 0-.21.35c-.32.52-.7 1.06-1.06 1.71a9 9 0 0 0-1.06 1.86 6.21 6.21 0 0 1-.31.75 6.21 6.21 0 0 0-.3.82.67.67 0 0 1-.16.41.84.84 0 0 0-.2.4 2.28 2.28 0 0 0-.35 1.15 6 6 0 0 1-.35 1.26 1.71 1.71 0 0 0-.09.45.94.94 0 0 1-.07.37 2.94 2.94 0 0 0 .1 1.06c.09.31.2.64.35 1.06a2.82 2.82 0 0 0 1.56 1.4 3.74 3.74 0 0 0 2.57-.2c.31-.13.63-.31 1.06-.5a4 4 0 0 0 1-.74 1.09 1.09 0 0 1 .23-.25 1 1 0 0 0 .29-.28l1.17-1.17a16.6 16.6 0 0 0 1.17-1.33l.25-.2a1.18 1.18 0 0 0 .27-.32 2.57 2.57 0 0 0-.08.62v.51a4.11 4.11 0 0 0 .08 1.06 2.66 2.66 0 0 0 .24.92 2.54 2.54 0 0 0 .64.94 2.75 2.75 0 0 0 1.62.61 4.35 4.35 0 0 0 1.86-.25 6.53 6.53 0 0 0 1.81-.95 7.78 7.78 0 0 0 1.46-1.35.38.38 0 0 1 .13-.09l.08-.1a9.11 9.11 0 0 0 1.07-1.17l.89-1.32c.19-.26.48-.65.85-1.21s.76-1.17 1.16-1.82l1.13-1.83a10.4 10.4 0 0 0 .69-1.27c0-.2.1-.4.16-.6s.1-.38.16-.57a.28.28 0 0 1 0-.13.47.47 0 0 0-.15.13zm-11.21-1.36a1 1 0 0 0-.29.42.53.53 0 0 1-.17.31.5.5 0 0 0-.15.38.83.83 0 0 0-.07.13v.18a10.29 10.29 0 0 1-1.34 2.26c-.37.61-.71 1.15-1.06 1.62a12.13 12.13 0 0 1-1.06 1.39 4.39 4.39 0 0 1-.71.84c-.22.22-.47.5-.75.82-.9 1-1.58 1.59-2 1.66a.6.6 0 0 1-.76-.39.41.41 0 0 1 0-.19 4 4 0 0 1 .2-1.78 6.53 6.53 0 0 1 1.09-2c.12-.16.19-.29.28-.39l.18-.31c0-.1.1-.19.16-.3a2 2 0 0 1 .28-.43c.45-.67.94-1.37 1.48-2.13a14.57 14.57 0 0 1 1.52-1.81 4.11 4.11 0 0 1 .57-.67 5.39 5.39 0 0 1 .6-.47c.08-.11.11-.16.08-.16h.26a1.14 1.14 0 0 0 .19-.19c.07-.12.13-.16.2-.16a1.43 1.43 0 0 1 .27-.15l.24-.14a.66.66 0 0 0 .29-.17c.11 0 .14-.06.12 0h.2c.16 0 .27 0 .35.31a5 5 0 0 1 .21.78l-.21.56c.06 0 0 .08-.12.21zm63 3.77v-.09l.11-.64a.89.89 0 0 1-.32.29.81.81 0 0 1-.27.11 2.07 2.07 0 0 0-.12-.65.71.71 0 0 0-.29 0l-.91 1.06c-.07-.16-.14-.21-.24-.15a1.54 1.54 0 0 0-.21.29l-.65.79c-.22.27-.43.56-.63.85-.54.86-1.06 1.6-1.48 2.22a19.57 19.57 0 0 1-1.69 1.94c-.43.37-.87.73-1.33 1.06a8.36 8.36 0 0 1-1.53.89 4.24 4.24 0 0 1-.61.17 2.22 2.22 0 0 1-.63 0 .42.42 0 0 1-.48-.34l-.13-.51a7.29 7.29 0 0 1 .2-1.24c.12-.44.22-.85.32-1.27a10.55 10.55 0 0 1 .67-2c.22-.46.45-1 .66-1.53l.37-1c.09-.2.16-.41.24-.59l.28-.6c.1-.2.26-.52.44-1l.36-.78.22-.48c.07-.17.15-.33.23-.5l.35-.78c.39-.78.8-1.55 1.25-2.32a21.69 21.69 0 0 0 1.21-2.35 6.41 6.41 0 0 1 .92-1.55 4.29 4.29 0 0 0 .85-1.59c.13-.44.29-.89.46-1.33a2.94 2.94 0 0 0 .18-1.31 1.34 1.34 0 0 0-.06-.4c0-.12-.07-.25-.1-.38a.88.88 0 0 0-.27-.61c-.15-.18-.3-.35-.46-.51a2 2 0 0 0-.5-.5 5.49 5.49 0 0 0-.54-.35 3.28 3.28 0 0 0-1.56-.39 16.43 16.43 0 0 0-1.86.07 7.09 7.09 0 0 1-1 .38 3.62 3.62 0 0 0-1 .47c-.86.55-1.69 1.14-2.51 1.76a16 16 0 0 0-2.31 2.12c-.22.24-.42.48-.62.73s-.4.47-.59.71a1.22 1.22 0 0 0-.3.34.66.66 0 0 1-.31.26l.25-1.24a5.23 5.23 0 0 0 0-.56v-1.95a2.45 2.45 0 0 0-.12-.81 2 2 0 0 0-.28-.81 2.11 2.11 0 0 0-.16-.34c0-.09-.11-.19-.16-.29a6.34 6.34 0 0 0-1.2-.65 2.6 2.6 0 0 0-1.07-.19 5.44 5.44 0 0 0-1.27.21 8.13 8.13 0 0 0-1.27.49 6.58 6.58 0 0 0-1.07.74l-.69.58a8 8 0 0 0-.69.62l-.36.43c-.22.25-.43.54-.67.85s-.48.58-.69.84a1.8 1.8 0 0 1-.36.38c0-.27.06-.59.1-1s.07-.75.12-1.15a6.8 6.8 0 0 0 .07-1.06 3 3 0 0 0-.06-.67 4.91 4.91 0 0 0-1.77-3.1 5.09 5.09 0 0 0-3.69-1.06 13 13 0 0 0-1.3.32c-.45.13-.88.28-1.32.44a20.54 20.54 0 0 0-2.05 1.14 21.92 21.92 0 0 0-1.97 1.4l-.58.44a3.07 3.07 0 0 0-.47.41c-.28.23-.58.54-.95.89s-.71.72-1.06 1.06-.72.8-1.06 1.2a10.17 10.17 0 0 0-.83 1.07c-.38.47-.76 1-1.14 1.48a18.5 18.5 0 0 0-1 1.59 17.84 17.84 0 0 0-.8 1.64 9.11 9.11 0 0 0-.56 1.77.17.17 0 0 0 0 .14v.1a4.1 4.1 0 0 0-.26 1.93 3.31 3.31 0 0 0 0 .63 3.46 3.46 0 0 0 .14.62 5.63 5.63 0 0 0 .24.6 5.4 5.4 0 0 0 .36.77 2 2 0 0 0 .53.56 5.31 5.31 0 0 0 1.06.48 5.61 5.61 0 0 0 .58 0h.51a5.13 5.13 0 0 0 1-.1c.32-.08.65-.13 1-.19l.53-.17h.28a1.41 1.41 0 0 0 .29 0 3 3 0 0 0 .47-.24 3.16 3.16 0 0 0 .84-.48 7.84 7.84 0 0 0 1.07-.74 1.53 1.53 0 0 0 .47-.41c.13-.17.27-.35.4-.54a.43.43 0 0 0 .3-.3 14.69 14.69 0 0 0 .24-.73 1.41 1.41 0 0 0 0-.41 4.86 4.86 0 0 0-.25-.63 6.19 6.19 0 0 1-.28-.58l-.29-.08a.29.29 0 0 1-.26-.13l-.45-.19a.94.94 0 0 0-.32-.11 1.09 1.09 0 0 0-.36 0 2.38 2.38 0 0 0-.45.23.56.56 0 0 0-.2.11l-.34.27-.35.26a.8.8 0 0 1-.19.13 3 3 0 0 0-.35.27.45.45 0 0 1-.11.13 1.33 1.33 0 0 1-.21.09l-.5.22a1.4 1.4 0 0 1-.3.15 1.51 1.51 0 0 1-.37.07.47.47 0 0 1-.32-.12.88.88 0 0 1-.25-.41v-.16a1.22 1.22 0 0 0 0-.27.76.76 0 0 1 0-.3 11.82 11.82 0 0 1 .65-1.84 6.87 6.87 0 0 1 1.06-1.69 20 20 0 0 1 1.06-1.52l1.12-1.29c.27-.26.53-.54.78-.82a4.36 4.36 0 0 1 .86-.74 3.81 3.81 0 0 0 .67-.53l.81-.71c.29-.25.55-.49.83-.7a3.83 3.83 0 0 1 .68-.52 7.65 7.65 0 0 1 2.49-.93 2.64 2.64 0 0 1 1.25.06.73.73 0 0 1 .46.33 2.08 2.08 0 0 1 .26.59 3.4 3.4 0 0 1 .09.64 1.51 1.51 0 0 1 0 .6 7 7 0 0 0-.12.92 4.58 4.58 0 0 1-.2.89c-.06.24-.12.54-.2.89a5.3 5.3 0 0 1-.28.88c-.16.51-.31 1.06-.47 1.47s-.31 1-.5 1.43-.3.79-.43 1.14a10.06 10.06 0 0 1-.44 1.15 9.9 9.9 0 0 0-.44.93c-.11.3-.24.6-.38.89-.29.64-.55 1.28-.8 1.94s-.51 1.26-.81 1.87c-.13.31-.26.6-.4.9s-.25.59-.4.88a17.3 17.3 0 0 1-.78 1.81c-.28.59-.56 1.19-.83 1.78a10.49 10.49 0 0 0-.59 1.43 6.56 6.56 0 0 1-.66 1.54c-.25.48-.5 1-.72 1.46a7.5 7.5 0 0 0-.53 1.45 5.76 5.76 0 0 0-.06 1.55.89.89 0 0 0 0 .23v.22a1.26 1.26 0 0 0 1.3 1.06 1.82 1.82 0 0 1 .63.08h.66a1.94 1.94 0 0 0 1.3-.48 2.54 2.54 0 0 0 .74-1.3c.13-.48.28-.95.4-1.43s.27-1 .4-1.42l.08-.24c.11-.21.2-.45.31-.69a3.73 3.73 0 0 1 .35-.69l.16-.33c0-.13.1-.26.16-.38a1.1 1.1 0 0 1 .16-.46 20.29 20.29 0 0 0 .93-1.94c.29-.66.57-1.33.84-2 .13-.32.26-.61.4-.89s.25-.57.4-.88.36-.89.55-1.32.37-.87.53-1.28l.45-1c.13-.26.25-.54.4-.8l.42-.81a8.24 8.24 0 0 1 .54-.9l.13-.28a3.18 3.18 0 0 1 .48-1.06l.68-1a16.34 16.34 0 0 1 1.16-1.77 21.2 21.2 0 0 1 1.44-1.7 15.12 15.12 0 0 1 1.4-1.37 4.88 4.88 0 0 1 1.17-.78.91.91 0 0 1 .63-.19.42.42 0 0 1 .36.19.86.86 0 0 1 .15.43 2 2 0 0 1 0 .49 14.6 14.6 0 0 1-.54 1.82l-.63 1.73c-.32 1.06-.72 2.12-1.06 3.19s-.83 2-1.29 3.08a8.72 8.72 0 0 1-.43 1.06 9.11 9.11 0 0 0-.45 1.06l-1.22 3a11.42 11.42 0 0 1-.45 1.15c-.16.38-.32.76-.45 1.14-.09.21-.18.42-.26.63a3.31 3.31 0 0 0-.19.61c-.14.33-.26.65-.37 1a5.61 5.61 0 0 0-.24 1 3 3 0 0 0-.11 1.29 3.46 3.46 0 0 0 .4 1.3 1.61 1.61 0 0 0 1.83.67 1.07 1.07 0 0 0 .39-.1 2.34 2.34 0 0 1 .42-.09.51.51 0 0 0 .32-.19 1.06 1.06 0 0 1 .29-.22 3.42 3.42 0 0 0 1-1.44c.06-.22.13-.44.19-.63a1.68 1.68 0 0 1 .2-.52l1.06-2.46c.54-1.22 1.06-2.45 1.65-3.62s1.16-2.36 1.81-3.55c.21-.36.42-.75.63-1.15a7.42 7.42 0 0 1 .7-1.14c.23-.32.44-.65.64-1s.4-.7.63-1.07a19.09 19.09 0 0 0 1.17-1.66 13.62 13.62 0 0 1 1.37-1.74 12 12 0 0 1 1.35-1.5c.45-.41.92-.84 1.47-1.29l.44-.35a6.37 6.37 0 0 1 .72-.41 6.26 6.26 0 0 1 .8-.35 2.09 2.09 0 0 1 .65-.13c.16 0 .26.06.28.21a1.35 1.35 0 0 1-.25.75 6.18 6.18 0 0 0-.38.62l-.33.59c-.35.6-.66 1.16-.91 1.64s-.49 1-.73 1.42l-.68 1.38c-.22.47-.47 1-.78 1.55a9.52 9.52 0 0 0-.49 1c-.11.22-.22.44-.31.66s-.18.43-.27.68-.23.6-.42 1a8.84 8.84 0 0 1-.38.83 5 5 0 0 0-.23.47 2.86 2.86 0 0 0-.22.47c-.06.19-.14.48-.25.89a9.63 9.63 0 0 0-.4 1.06c-.11.33-.22.7-.32 1.06l-.61 2.14a14.18 14.18 0 0 0-.51 2.43 4.82 4.82 0 0 0 .64 3 4.08 4.08 0 0 0 .6.77 1.77 1.77 0 0 0 .77.45 8.89 8.89 0 0 0 1.45.3 3.07 3.07 0 0 0 1.44-.14l1-.28a12.71 12.71 0 0 0 2.2-1.1 7.8 7.8 0 0 0 1.79-1.5l.84-.89c.28-.27.53-.56.81-.86a7.55 7.55 0 0 0 .63-.73 8.39 8.39 0 0 0 .62-.82c.4-.54.81-1.06 1.2-1.65.13-.24.26-.44.38-.63s.25-.42.39-.64a4.75 4.75 0 0 0 .31-.59 2.32 2.32 0 0 0 .16-.68.59.59 0 0 1 .1-.17.37.37 0 0 0 .09-.16.74.74 0 0 0 0-.21 2.53 2.53 0 0 1 .1-.42.72.72 0 0 0 0-.46.18.18 0 0 1-.21-.16.2.2 0 0 1 .12-.19z"/><path class="a" d="M221.68 60.81l.8-1.72h-.11l-.12-.06a.26.26 0 0 0 0-.21.77.77 0 0 1-.08-.19l-.08-.08a.06.06 0 0 1 0-.08c-.06-.25-.18-.34-.35-.28a.86.86 0 0 0-.38.16c-.06-.06-.09-.07-.12-.07a.59.59 0 0 1-.32-.06s-.1-.06-.14 0a.49.49 0 0 0-.11.14l-.06.18v.07c-.16 0-.28 0-.34.06a2.5 2.5 0 0 0-.27.29l-.31.44a3.79 3.79 0 0 1-.34.45.28.28 0 0 1-.08.11c-.16.2-.28.39-.43.55a3.79 3.79 0 0 1-.32.38c-.35.41-.76.89-1.2 1.45s-1 1.14-1.47 1.71-1.07 1.11-1.61 1.69a10.25 10.25 0 0 1-1.63 1.42 17.33 17.33 0 0 1-3.36 1.82 2.54 2.54 0 0 1-.72.09h-.67a5 5 0 0 1-.67-.16.61.61 0 0 1-.44-.46 3.45 3.45 0 0 1-.16-1.06 7 7 0 0 1 .29-1.87 12.83 12.83 0 0 1 .7-1.91h.08a.81.81 0 0 1 .39.29.65.65 0 0 0 .42.26.24.24 0 0 1 .06.09h.06a.24.24 0 0 1 .12 0h.07a3.63 3.63 0 0 0 1.23 0 2.27 2.27 0 0 0 .89-.38 11.56 11.56 0 0 0 3.19-3.12 20.77 20.77 0 0 0 2.05-4 .38.38 0 0 1 .16-.31c.07-.39.13-.73.16-1.07a2.85 2.85 0 0 0-.09-.92 2.8 2.8 0 0 0-.69-1.58 1 1 0 0 0-.52-.43 1.35 1.35 0 0 0-.89-.41 4.7 4.7 0 0 0-1.06 0 8.17 8.17 0 0 0-3.05 1.37 13.27 13.27 0 0 0-2.53 2.32 19.79 19.79 0 0 0-2.06 3c-.54.95-1 1.92-1.48 2.92-.07.14-.15.29-.21.44l-.56 2a3.39 3.39 0 0 0-.13.55 2.12 2.12 0 0 1-.13.54 3.83 3.83 0 0 1-.1.62c0 .2-.05.42-.09.63a2.55 2.55 0 0 1-.09.74 5.68 5.68 0 0 0 0 1 .89.89 0 0 0 0 .23 3.82 3.82 0 0 0 .16.73.54.54 0 0 1 .1.3 2.3 2.3 0 0 0 .1.35 8 8 0 0 0 .48.85 4.29 4.29 0 0 0 .61.67 2.57 2.57 0 0 0 .8.54 3.31 3.31 0 0 0 1 .3 5.39 5.39 0 0 0 1.06.13h1a8.51 8.51 0 0 0 3.69-1.1 20.32 20.32 0 0 0 3.56-2.46c.53-.46 1.06-1 1.54-1.44s1.13-1.17 1.66-1.79a41.38 41.38 0 0 0 2.54-3.31 5.49 5.49 0 0 0 .73-1.32v-.13s-.13.14-.13.1zm-13-.08v-.07a.89.89 0 0 1 0-.23.54.54 0 0 0 0-.22 1 1 0 0 0 .15-.31.6.6 0 0 1 .17-.3q.27-.34.51-.72c.09-.16.19-.32.29-.47a6.87 6.87 0 0 1 .44-.58c.2-.23.51-.59 1-1.06a4.07 4.07 0 0 1 .56-.54c.16-.12.39-.28.68-.47a.78.78 0 0 1 .42-.09.35.35 0 0 1 .21.22.86.86 0 0 1 0 .32 1.31 1.31 0 0 1 0 .28 1.49 1.49 0 0 0-.22.48 2.2 2.2 0 0 1-.26.56c-.42.7-.9 1.4-1.44 2.13a4.55 4.55 0 0 1-2.06 1.5h-.35a.12.12 0 0 0-.1-.11.67.67 0 0 0 0-.2 1 1 0 0 1 0-.16z"/><path class="a" d="M239.89 59.44a.21.21 0 0 0-.12-.19v-.21a.24.24 0 0 1-.23-.13.44.44 0 0 1-.13-.24.68.68 0 0 1-.31.08h-.25c-.07-.06-.07-.11 0-.19s0-.11 0-.18a2.27 2.27 0 0 0-.25.18.74.74 0 0 1-.16.19.65.65 0 0 0-.09.16.1.1 0 0 1-.14 0c-.07-.06-.1-.06-.13 0a.31.31 0 0 1-.11.09.71.71 0 0 1 .14-.32.5.5 0 0 0 .1-.33 2.64 2.64 0 0 0-.38.18.58.58 0 0 0-.25.15 2.29 2.29 0 0 0-.41.52c-.16.26-.37.57-.61.92s-.47.71-.72 1.07l-.73 1.06c-.25.33-.44.61-.61.86l-2 2.45c-.15.16-.34.4-.6.69s-.52.61-.83.93a10.44 10.44 0 0 1-.88.88 3.14 3.14 0 0 1-.68.52 1 1 0 0 1-.7.24.4.4 0 0 1-.31-.24 1.1 1.1 0 0 1 0-.51 4.71 4.71 0 0 1 .12-.54 21.29 21.29 0 0 1 1.16-3.37c.43-.93.9-1.85 1.38-2.79a10.56 10.56 0 0 1 .52-1.07c.18-.33.41-.71.69-1.18a14.17 14.17 0 0 0 .75-1.51 5.79 5.79 0 0 0 .49-1.91v-.54a2.44 2.44 0 0 0-.42-1.06 8.94 8.94 0 0 0-.75-.88 1.22 1.22 0 0 0-.71-.32 4.57 4.57 0 0 1-.82-.16 2 2 0 0 0-.6 0l-.53.12a1.74 1.74 0 0 0-.54.19l-1 .57a6.61 6.61 0 0 0-.74.53 11.94 11.94 0 0 0-.91.83c-.34.3-.66.64-1 1a10.6 10.6 0 0 0-.85 1 1.33 1.33 0 0 1-.14.19l-.21.31-.23.26c-.06.09-.1.13-.14.13v-.13a2 2 0 0 1 .1-.26 3.25 3.25 0 0 1 .11-.42s0-.18.14-.46.2-.6.32-.93.23-.64.32-.92a2.76 2.76 0 0 0 .1-.63 1.66 1.66 0 0 0-1.48-1.72 3.43 3.43 0 0 0-.55-.06 1.11 1.11 0 0 0-.51.06 2 2 0 0 0-1.19 1.24 3.15 3.15 0 0 1-.22.74 6 6 0 0 0-.3.8c-.09.35-.19.7-.31 1.07s-.25.7-.38 1.06c-.27.72-.48 1.34-.64 1.86-.07.23-.16.45-.22.68s-.16.53-.22.78c-.14.47-.29 1-.45 1.49s-.37 1.16-.64 1.91l-1.18 3.42v.07c-.09.31-.21.6-.31.89a8.26 8.26 0 0 0-.2.86 2.08 2.08 0 0 1-.12.32.2.2 0 0 0 0 .21 5 5 0 0 1 0 .55v.34a1 1 0 0 0 .15.38c.14.15.19.25.16.29a.4.4 0 0 0 .08.28 1.35 1.35 0 0 0 1.06.57 4.07 4.07 0 0 0 1.33-.25c.19-.06.27-.15.27-.28a.5.5 0 0 1 .26-.4c.19-.12.19-.15.23-.15s.12-.12.16-.32 0-.4.1-.44.13-.16.19-.38a9.28 9.28 0 0 1 .22-.91 3.34 3.34 0 0 1 .38-.81c.06-.2.09-.36.12-.47a1.81 1.81 0 0 1 .09-.31 2.36 2.36 0 0 1 .12-.28 3.26 3.26 0 0 1 .24-.4 1.22 1.22 0 0 0 .09-.27s.07-.14.13-.3a3.7 3.7 0 0 0 .3-.78 2.62 2.62 0 0 1 .38-.79 14.57 14.57 0 0 1 .8-1.52 16.17 16.17 0 0 1 1.06-1.54l.48-.62c.22-.25.44-.54.68-.8s.49-.55.71-.79.39-.41.51-.52a11.69 11.69 0 0 1 1.94-1.72c.41-.25.67-.35.74-.26s.09.28-.07.61a8.49 8.49 0 0 1-.58 1.07 19.1 19.1 0 0 0-1.52 2.59 26 26 0 0 0-1.17 3c-.22.63-.41 1.2-.59 1.76a11.25 11.25 0 0 0-.38 1.7 4.7 4.7 0 0 0-.08.92 4.4 4.4 0 0 0 .08.89 4.79 4.79 0 0 0 .24 1.06 1.6 1.6 0 0 0 .64.81l.45.36a1.7 1.7 0 0 0 .79.4 4.87 4.87 0 0 0 .93.08h.56c.23 0 .46-.06.69-.08a3.82 3.82 0 0 0 .67-.15 1.8 1.8 0 0 0 .49-.22l.84-.55a6.28 6.28 0 0 0 .77-.59.52.52 0 0 0 .16-.17.49.49 0 0 1 .21-.14l.31-.24a.28.28 0 0 0 .16-.28.45.45 0 0 1 .25-.18 18.23 18.23 0 0 0 1.37-1.39c.16-.18.31-.35.46-.54l.79-1 .86-1.06a12.38 12.38 0 0 0 .86-1.19l.14-.21a1.14 1.14 0 0 0 .15-.23 3.91 3.91 0 0 1 .4-.65q.28-.4.57-.84c.2-.29.4-.6.59-.86a5.07 5.07 0 0 0 .4-.72c0-.07 0-.13.08-.19a.22.22 0 0 0 0-.22 1.12 1.12 0 0 0-.11-.25.42.42 0 0 1 0-.27.77.77 0 0 1 .31-.19c.06-.06.06-.15 0-.3z"/><path class="a" d="M253.72 60.81l.8-1.72h-.12l-.13-.06c.06-.08.08-.15 0-.21l-.08-.19-.08-.08a.11.11 0 0 1 0-.08c0-.25-.17-.34-.35-.28s-.32.1-.36.16a.16.16 0 0 0-.13-.07.54.54 0 0 1-.31-.06c-.06 0-.1-.06-.13 0a.32.32 0 0 0-.12.14l-.06.18v.07c-.16 0-.28 0-.34.06l-.28.29c-.07.11-.17.25-.32.44a5.75 5.75 0 0 1-.41.56 6.59 6.59 0 0 1-.43.55 2.8 2.8 0 0 1-.32.38c-.35.41-.75.89-1.2 1.45s-.94 1.14-1.46 1.71-1.06 1.15-1.62 1.69a9.82 9.82 0 0 1-1.58 1.42 16.58 16.58 0 0 1-3.43 1.82 2.4 2.4 0 0 1-.7.09h-.67a5 5 0 0 1-.69-.16.59.59 0 0 1-.43-.46 3.17 3.17 0 0 1-.16-1.06 7.31 7.31 0 0 1 .3-1.87 10.64 10.64 0 0 1 .7-1.91h.09a.9.9 0 0 1 .38.29.65.65 0 0 0 .41.26l.07.09h.06a.24.24 0 0 1 .12 0h.04a3.63 3.63 0 0 0 1.23 0 2.76 2.76 0 0 0 .92-.38 12.25 12.25 0 0 0 3.18-3.12 19.62 19.62 0 0 0 2-4 .45.45 0 0 1 .16-.31 7.67 7.67 0 0 0 .16-1.07 4.06 4.06 0 0 0-.76-2.5 1 1 0 0 0-.53-.43 1.39 1.39 0 0 0-.9-.41 4.7 4.7 0 0 0-1.06 0 8.61 8.61 0 0 0-3.07 1.46 13.92 13.92 0 0 0-2.52 2.33 19.63 19.63 0 0 0-1.81 2.68 1.41 1.41 0 0 0-.18.29 36.2 36.2 0 0 0-1.7 3.37l-.56 2a3.53 3.53 0 0 0-.13.54 1.92 1.92 0 0 1-.11.54 4.7 4.7 0 0 0-.13.63 2 2 0 0 1-.07.63 2.29 2.29 0 0 1-.09.73v.41a3 3 0 0 0 0 .6 3.84 3.84 0 0 0 .21 1 1.18 1.18 0 0 1 .1.3 1.06 1.06 0 0 0 .09.35c.15.29.31.58.48.85a3.89 3.89 0 0 0 .61.67 2.26 2.26 0 0 0 .82.54 3.21 3.21 0 0 0 .95.31 5.48 5.48 0 0 0 1.06.13h1a8.74 8.74 0 0 0 3.65-1.12 19.77 19.77 0 0 0 3.55-2.47 29 29 0 0 0 3.19-3.18 41.38 41.38 0 0 0 2.57-3.32 5.55 5.55 0 0 0 .73-1.33c0-.08 0-.12-.05-.12s-.05 0-.05-.04zm-13.05-.08v-.07a.3.3 0 0 1 0-.23.81.81 0 0 0 0-.22.87.87 0 0 0 .14-.31.52.52 0 0 1 .18-.3 7 7 0 0 0 .51-.72c.1-.16.19-.32.3-.47l.44-.58a13 13 0 0 1 1-1.06 4 4 0 0 1 .55-.54c.16-.12.39-.28.69-.47a.78.78 0 0 1 .42-.09.35.35 0 0 1 .21.22 1.14 1.14 0 0 1 .07.32.71.71 0 0 1-.06.28 1.49 1.49 0 0 0-.22.48 1.91 1.91 0 0 1-.26.56c-.43.7-.91 1.4-1.45 2.13a4.4 4.4 0 0 1-2 1.54h-.41c-.06-.08-.09-.11-.12-.11a1.46 1.46 0 0 0-.05-.2.75.75 0 0 1 .06-.16zM179.1 18.16c7.84-4.18 9.15-14.73 6.07-17.14-2.6-2-5.59 0-4.55 4.77 1.8 8.21.31 10.37-1.52 12.37zm-44 17.27l.19-1.32c.06-.43.13-1 .23-1.59s.31-1.34.5-2.12.51-1.66.8-2.61.78-1.92 1.2-3a37.28 37.28 0 0 1 4-6.65 37.85 37.85 0 0 1 6.38-6.7 37.29 37.29 0 0 1 8.82-5.45l1.26-.54 1.3-.45 1.32-.46 1.33-.38a20.75 20.75 0 0 1 5.75-.87 10.41 10.41 0 0 1 6.21 1.87l.35.26.32.29a7.86 7.86 0 0 1 1.61 2.06 9.68 9.68 0 0 1 1.11 3.17 11.25 11.25 0 0 1-.92 6.37 17.34 17.34 0 0 1-3.52 5 28.24 28.24 0 0 1-2.12 2c-.34.27-.71.56-1.06.86a14.06 14.06 0 0 1-1.16.81 35.13 35.13 0 0 1-4.79 2.78 30.75 30.75 0 0 1-5.07 2 9.78 9.78 0 0 1-5.62.08 5.48 5.48 0 0 1-2-1.15 4.56 4.56 0 0 1-.48-.5 5.48 5.48 0 0 1-1.26-2.72 7.53 7.53 0 0 1 .75-4.93 10.57 10.57 0 0 1 2.85-3.28 25 25 0 0 1 3.18-2 28.7 28.7 0 0 1 5.43-2.43 13.07 13.07 0 0 1 3.79-.67 9.94 9.94 0 0 1 1.34.06 10 10 0 0 0-1.33.12 14.52 14.52 0 0 0-3.53 1.06 31.41 31.41 0 0 0-5 3c-1.8 1.26-3.89 2.81-4.88 5a5.32 5.32 0 0 0-.29 3.54 3.59 3.59 0 0 0 .77 1.44 3.94 3.94 0 0 0 .67.54 3.19 3.19 0 0 0 .79.32c2.35.64 5.57-.82 8.5-2.27a33 33 0 0 0 4.25-2.68l1.06-.77c.32-.27.65-.53 1-.84a23.35 23.35 0 0 0 1.85-1.73c2.36-2.4 3.94-5.47 3.41-8.5a6 6 0 0 0-.67-2 5.84 5.84 0 0 0-.56-.84 4.17 4.17 0 0 0-.38-.35l-.17-.1-.06-.06-.2-.15a7 7 0 0 0-4.2-1.23 18.93 18.93 0 0 0-5 .66l-1.24.27-1.13.37-1.2.37-1.17.47a38.64 38.64 0 0 0-8.42 4.65 41.88 41.88 0 0 0-10.75 11.89 43.77 43.77 0 0 0-2.53 5.2c-.28.75-.52 1.42-.74 2s-.33 1.13-.46 1.54c-.27.82-.41 1.29-.41 1.29z"/><path class="a" d="M157 29.65l.32-.07c.2-.07.51-.14.9-.27.78-.24 1.91-.67 3.33-1.23 2.84-1.14 6.86-2.89 11.68-4.94s10.55-4.39 16.82-6.52a102.34 102.34 0 0 1 9.88-2.86 47.92 47.92 0 0 1 5.31-.92c.91-.09 1.85-.14 2.79-.15a25.1 25.1 0 0 1 2.75.09 16.67 16.67 0 0 1 5.65 1.25 10.16 10.16 0 0 1 4.68 4.06 7.89 7.89 0 0 1 .67 1.47 7.62 7.62 0 0 1 .22.82l.08.31.06.45a8.57 8.57 0 0 1-.22 3.19 10.42 10.42 0 0 1-3 5 17.19 17.19 0 0 1-4.36 3 35.93 35.93 0 0 1-4.41 1.83 44.47 44.47 0 0 1-4.37 1.23 11.8 11.8 0 0 1-4.51.15 5.45 5.45 0 0 1-3.85-2.27 4.54 4.54 0 0 1-.46-1.06c-.07-.25-.07-.31-.11-.49a5.8 5.8 0 0 1 0-.59 4.16 4.16 0 0 1 .46-1.93 5.71 5.71 0 0 1 2.3-2.42 6.66 6.66 0 0 1 2.61-.76 13.38 13.38 0 0 1 3.63.23l1.28.22h-1.26a14.62 14.62 0 0 0-3.49.3 5 5 0 0 0-3.75 3 2.56 2.56 0 0 0 .33 2.45 3.56 3.56 0 0 0 2.63 1.15 11.15 11.15 0 0 0 3.63-.42 41.15 41.15 0 0 0 4-1.42c2.64-1.15 5.56-2.44 7.52-4.5a7.73 7.73 0 0 0 2-3.54 5.51 5.51 0 0 0 .12-1.9v-.19l-.08-.24a2.18 2.18 0 0 0-.12-.43 4.48 4.48 0 0 0-.42-.85 7.08 7.08 0 0 0-3.11-2.62 13.2 13.2 0 0 0-4.52-1.1c-.82-.08-1.64-.1-2.52-.11a16.24 16.24 0 0 0-2.44.11c-1.65.15-3.32.41-5 .73-3.31.65-6.55 1.54-9.67 2.45s-6.18 1.83-9.05 2.84l-8 2.66c-5 1.67-9.18 3-12.16 3.84a30.55 30.55 0 0 1-4.77.97z"/><path class="a" d="M174.06 30.16s.46-.35 1.3-.94c.42-.3.94-.65 1.55-1.06a21.62 21.62 0 0 1 2.08-1.22 50 50 0 0 1 5.41-2.63c1.06-.4 2.07-.86 3.19-1.21l3.36-1.06c1.12-.35 2.27-.6 3.4-.84s2.27-.42 3.35-.63a52.12 52.12 0 0 1 6-.58 19.17 19.17 0 0 1 2.4 0c.71.05 1.34 0 1.85 0 1.06.06 1.61.13 1.61.13l-1.58.34-4.12.84-2.73.58c-1 .19-2 .47-3 .68-2.12.52-4.31 1.06-6.52 1.69-1.06.32-2.21.61-3.28 1l-3.19 1-2.95 1-2.63.93-3.93 1.48c-1.01.36-1.57.5-1.57.5zm40.31.83l.48-.36a14.26 14.26 0 0 1 1.47-1 18.79 18.79 0 0 1 2.46-1.04 18.42 18.42 0 0 1 3.5-.85 18.63 18.63 0 0 1 9.06 1 19.74 19.74 0 0 1 4.6 2.45 16.22 16.22 0 0 0 3.95 2.29 9.65 9.65 0 0 0 8.15-.61 11.06 11.06 0 0 0 3-2.48 11.42 11.42 0 0 0 1.85-3.23 7.56 7.56 0 0 0 .53-3 2.66 2.66 0 0 0-1-1.94 2.15 2.15 0 0 0-1.45-.49 1.44 1.44 0 0 0-.58.13 1.26 1.26 0 0 1 .53-.32 2.44 2.44 0 0 1 1.84.07 3.47 3.47 0 0 1 1.95 2.26 7.8 7.8 0 0 1 .09 3.81 11 11 0 0 1-1.65 4.15 11.72 11.72 0 0 1-3.62 3.63 12.09 12.09 0 0 1-5.17 1.81 12.61 12.61 0 0 1-5.71-.7 20.22 20.22 0 0 1-4.65-2.81 19.34 19.34 0 0 0-3.81-2.35 19.71 19.71 0 0 0-4-1.29 21.57 21.57 0 0 0-7.11-.31c-1 .15-1.84.31-2.55.49a13.41 13.41 0 0 0-1.62.49zM75.91 18.16C68.06 13.93 66.78 3.38 69.84.97c2.59-2 5.58 0 4.52 4.77-1.77 8.26-.28 10.42 1.55 12.42zm43.99 17.27l-.36-1.27c-.13-.41-.27-.93-.46-1.54l-.75-2a38.74 38.74 0 0 0-6.91-11.22 40.56 40.56 0 0 0-6.37-5.91 38.89 38.89 0 0 0-8.39-4.66l-1.17-.46-1.2-.38-1.24-.38-1.27-.26a18.86 18.86 0 0 0-5-.66 7 7 0 0 0-4.25 1.23l-.2.15c-.07 0 .05-.05 0 0l.01.09-.12.12-.37.37a7.76 7.76 0 0 0-.57.84 6.82 6.82 0 0 0-.67 2.06c-.52 3 1.06 6.09 3.42 8.5a23.37 23.37 0 0 0 1.86 1.73c.35.31.68.57 1 .84l1.06.77a33 33 0 0 0 4.25 2.68c2.92 1.46 6.14 2.91 8.5 2.27a3.1 3.1 0 0 0 .78-.31c.1-.08.27-.17.32-.23a1.78 1.78 0 0 0 .35-.32 3.35 3.35 0 0 0 .88-1.48 5.51 5.51 0 0 0-.28-3.54 13.89 13.89 0 0 0-4.89-5 31.35 31.35 0 0 0-5-2.91 14.13 14.13 0 0 0-3.55-1.07 11.38 11.38 0 0 0-1.31-.11 8.47 8.47 0 0 1 1.33-.07 13.3 13.3 0 0 1 3.77.64 29 29 0 0 1 5.42 2.43 25.15 25.15 0 0 1 3.19 2 10.44 10.44 0 0 1 2.85 3.28 7.53 7.53 0 0 1 .65 4.87 5.64 5.64 0 0 1-1.72 3.1c-.2.17-.41.33-.62.49a6.29 6.29 0 0 1-1.36.65 9.81 9.81 0 0 1-5.63-.07 32.22 32.22 0 0 1-5-1.93 36.38 36.38 0 0 1-4.79-2.78l-1.11-.82-1.06-.86a26.56 26.56 0 0 1-2.13-2 17 17 0 0 1-3.51-5 11.35 11.35 0 0 1-.93-6.37 10.08 10.08 0 0 1 1.06-3.19 9.59 9.59 0 0 1 .94-1.49 7 7 0 0 1 .6-.62l.32-.29.35-.18a10.41 10.41 0 0 1 6.21-1.81 20.73 20.73 0 0 1 5.75.81l1.36.36 1.31.46 1.3.46 1.23.54a38.18 38.18 0 0 1 15.24 12.18 37.23 37.23 0 0 1 4 6.65c.44 1.06.91 2 1.2 3s.62 1.8.81 2.6.35 1.52.5 2.13a13.21 13.21 0 0 1 .23 1.59z"/><path class="a" d="M98 29.65a30.73 30.73 0 0 1-4.74-1c-3-.8-7.16-2.12-12.15-3.83l-8-2.6c-2.85-1-5.86-1.91-9-2.82s-6.37-1.8-9.67-2.45c-1.66-.32-3.33-.57-5-.73-.85-.06-1.66-.06-2.48-.06a19.4 19.4 0 0 0-2.51.11 13.2 13.2 0 0 0-4.55 1.06 7.33 7.33 0 0 0-3.12 2.57 5.48 5.48 0 0 0-.4.85 2.42 2.42 0 0 1-.13.43l-.08.3v.2a5.08 5.08 0 0 0 .12 1.9 7.92 7.92 0 0 0 1.94 3.47c2 2.06 4.88 3.35 7.53 4.5 1.31.54 2.64 1 4 1.42a11.12 11.12 0 0 0 3.63.42 3.52 3.52 0 0 0 2.62-1.15 2.51 2.51 0 0 0 .33-2.45 5 5 0 0 0-3.7-3 14.24 14.24 0 0 0-3.44-.33h-1.26l1.24-.24a13.38 13.38 0 0 1 3.6-.22 6.66 6.66 0 0 1 2.61.76 5.75 5.75 0 0 1 2.33 2.4 4.53 4.53 0 0 1 .46 2v.59a3.88 3.88 0 0 1-.11.49 3.83 3.83 0 0 1-.46 1.06 5.41 5.41 0 0 1-3.85 2.26 11.55 11.55 0 0 1-4.5-.14 44.53 44.53 0 0 1-4.43-1.26 33.9 33.9 0 0 1-4.46-1.82 17.42 17.42 0 0 1-4.37-3 10.63 10.63 0 0 1-3-5 8.53 8.53 0 0 1-.22-3.18l.06-.46.06-.31a7.71 7.71 0 0 1 .24-.82 7.89 7.89 0 0 1 .69-1.47 10.16 10.16 0 0 1 4.68-4.06 16.67 16.67 0 0 1 5.65-1.25c.93-.08 1.86-.09 2.73-.09s1.88.06 2.8.15a50.37 50.37 0 0 1 5.31.92 102.15 102.15 0 0 1 9.87 2.86c6.3 2.14 12.01 4.53 16.91 6.53s8.86 3.8 11.68 4.94c1.43.56 2.56 1 3.34 1.23.39.13.7.2.9.27z"/><path class="a" d="M80.95 30.16s-.56-.18-1.52-.54l-4-1.44-2.63-.93-2.95-1-3.19-1c-1.06-.35-2.13-.65-3.28-1-2.2-.63-4.43-1.17-6.52-1.69-1.07-.21-2.06-.49-3-.68l-2.73-.58-4.13-.84c-1-.2-1.57-.34-1.57-.34s.58-.06 1.6-.13h4.26a50.19 50.19 0 0 1 6 .59c1.06.2 2.22.35 3.34.62l3.41.84c1.14.29 2.26.68 3.35 1.06s2.12.81 3.19 1.22a49.9 49.9 0 0 1 5.41 2.62c.78.41 1.47.84 2.13 1.22a12.07 12.07 0 0 1 1.55 1.06c.81.63 1.28.94 1.28.94zm-40.31.83l-.58-.19c-.37-.15-.93-.3-1.62-.49a24.27 24.27 0 0 0-2.55-.49 24.39 24.39 0 0 0-3.31-.17 23.2 23.2 0 0 0-3.8.51 19.77 19.77 0 0 0-4 1.35 20.14 20.14 0 0 0-3.83 2.36 19.91 19.91 0 0 1-4.64 2.8 12.29 12.29 0 0 1-5.7.7 12.13 12.13 0 0 1-5.18-1.81 11.69 11.69 0 0 1-3.61-3.63A11.09 11.09 0 0 1 .16 27.8a7.76 7.76 0 0 1 .1-3.8 3.47 3.47 0 0 1 2-2.26 2.49 2.49 0 0 1 1.84-.08 1.6 1.6 0 0 1 .53.32 1.63 1.63 0 0 0-.58-.13 2.21 2.21 0 0 0-1.46.49 2.65 2.65 0 0 0-1 1.95 7.35 7.35 0 0 0 .54 3 11.91 11.91 0 0 0 1.83 3.19 11.05 11.05 0 0 0 3 2.41 9.67 9.67 0 0 0 4 1.12 10 10 0 0 0 4.15-.59 16.55 16.55 0 0 0 3.95-2.29 19.71 19.71 0 0 1 4.59-2.46 18.62 18.62 0 0 1 9.06-1 16.78 16.78 0 0 1 3.49.85 16.12 16.12 0 0 1 2.5 1.14 14.26 14.26 0 0 1 1.47 1z"/><path class="b" d="M127.23 11.96V7.71a.19.19 0 0 1 .17-.21.18.18 0 0 1 .19.19v4.27a.54.54 0 0 1 .38.54.45.45 0 0 1-.09.29l5.31 4.44a.29.29 0 0 1 .1.37c-.06.07-.24.06-.37 0l-5.4-4.5a.2.2 0 0 1-.15 0 .59.59 0 0 1-.59-.59.57.57 0 0 1 .45-.55z"/><path class="b" d="M139.07 11.33a10.21 10.21 0 0 0-.47-2.26 11.4 11.4 0 0 0-1.47-3.09c-.12-.17-.27-.31-.4-.48a9.82 9.82 0 0 0-.71-.86 4.23 4.23 0 0 0-.34-.4v-.08l-.06-.06a9.62 9.62 0 0 0-.74-.68 8.49 8.49 0 0 0-.9-.68.14.14 0 0 0-.09 0l-.88-.58a8.94 8.94 0 0 0-1.07-.5 7.47 7.47 0 0 0-1.06-.4 5.15 5.15 0 0 0-.88-.22 10.91 10.91 0 0 0-2.61-.32.74.74 0 0 0-.21 0 11.15 11.15 0 0 0-3.44.55c-.31.1-.63.23-.95.36a10.94 10.94 0 0 0-2 1.06c-.31.2-.59.42-.86.62v.06c-.26.23-.54.48-.79.74a10.52 10.52 0 0 0-1.6 2 11.29 11.29 0 0 0-.76 1.47 13.5 13.5 0 0 0-.55 1.37 12 12 0 0 0-.45 2.28 9.18 9.18 0 0 0-.07 1.17v.07a7.55 7.55 0 0 0 .07 1.06 6.62 6.62 0 0 0 .16 1.15 9.4 9.4 0 0 0 .67 2.19 11.6 11.6 0 0 0 2.7 4 11.74 11.74 0 0 0 16.6-.27l.1-.1a.33.33 0 0 0 .15-.16 11.47 11.47 0 0 0 1.6-2.37c.08-.13.14-.26.2-.38a5.08 5.08 0 0 0 .31-.62 9.33 9.33 0 0 0 .67-2.2 11 11 0 0 0 .16-1.15 7.45 7.45 0 0 0 .07-1.06 10.14 10.14 0 0 0-.1-1.23zm-11.8-9.74a.13.13 0 0 0 .13-.13v-.17a11.09 11.09 0 0 1 7.74 3.19l-.14.16a.134.134 0 0 0 .19.19l.16-.16a11.28 11.28 0 0 1 3.19 7.74h-.21a.13.13 0 1 0 0 .26h.19a11.06 11.06 0 0 1-2.94 7.43l-.07-.06a.14.14 0 0 0-.17 0 .17.17 0 0 0 0 .19l.09.09a11.14 11.14 0 0 1-8 3.44v-.27a.13.13 0 0 0-.13-.13.13.13 0 0 0-.13.13v.26a10.89 10.89 0 0 1-4.84-1.2l-.37-.21a8.94 8.94 0 0 1-1.17-.75c-.22-.16-.42-.33-.64-.5a4.31 4.31 0 0 1-.41-.36l.13-.13a.14.14 0 0 0 0-.19.11.11 0 0 0-.15 0l-.13.13a11.12 11.12 0 0 1-3.39-7.88h.19a.14.14 0 0 0 .14-.14.13.13 0 0 0-.13-.13h-.22a11.1 11.1 0 0 1 3.48-8l.22.19a.11.11 0 0 0 .16 0 .15.15 0 0 0 0-.18l-.2-.24a11 11 0 0 1 7.3-2.92v.16a.12.12 0 0 0 .08.16z"/><path class="b" d="M127.4 23.44v.72c0 .07 0 .1-.11.13-.06 0-.11 0-.11-.13v-.67a.12.12 0 0 1 .12-.13.14.14 0 0 1 .1.08zm0-22.65v.67a.13.13 0 0 1-.13.13.13.13 0 0 1-.13-.13V.78c0-.05.07-.06.11-.06s.08 0 .1.05zm11.75 11.72v.07h-.76a.12.12 0 0 1-.13-.12.13.13 0 0 1 .13-.13h.76a.09.09 0 1 1 0 .18zm-22.66.05a.14.14 0 0 1-.14.14h-.66a.06.06 0 0 1-.06 0 .09.09 0 0 1 0-.07h.73a.15.15 0 0 1 .13-.07zm19.53 7.94a.14.14 0 0 1 0 .15.09.09 0 0 1-.12 0l-.12-.19-.2-.17-.11-.11a.17.17 0 0 1 0-.19.12.12 0 0 1 .17 0l.08.08.17.19.16.15s-.02.08-.03.09zM120.03 4.42a.15.15 0 0 1 0 .18.14.14 0 0 1-.17 0l-.22-.19-.24-.25a.14.14 0 0 1 0-.19h.19l.07.06.17.18zm15.65-.17a.07.07 0 0 1 0 .09l-.09.1-.17.19-.19.19a.17.17 0 0 1-.19 0 .14.14 0 0 1 0-.19l.13-.16.17-.19.1-.1h.16a.08.08 0 0 1 .08.07zm-15.84 16.3l-.13.13-.19.17-.13.12a.09.09 0 0 1-.07 0l.14-.13.17-.18.18-.17a.12.12 0 0 1 .15 0 .14.14 0 0 1-.12.06z"/><path class="b" d="M135.87 3.97a12.06 12.06 0 1 0 .13.13zm3 8.5a.43.43 0 0 1 0 .16 11.27 11.27 0 0 1-3 7.61 1.54 1.54 0 0 1-.17.19 11.51 11.51 0 0 1-8.24 3.55h-.21a11.25 11.25 0 0 1-7.66-3.11 1 1 0 0 1-.19-.17 11.38 11.38 0 0 1-3.52-8 .67.67 0 0 1 0-.2v-.07a11.49 11.49 0 0 1 3.52-8.27.52.52 0 0 1 .21-.18 11.28 11.28 0 0 1 7.53-3 .81.81 0 0 1 .22 0 11.56 11.56 0 0 1 8 3.27l.19.19a11.48 11.48 0 0 1 3.32 8z"/><g opacity=".13"><path class="b" d="M139.05 11.66v-.5a4.83 4.83 0 0 0-.15-1 .17.17 0 0 0 0-.1c-.07-.34-.13-.69-.23-1.06a11 11 0 0 0-1.48-3.09 10.09 10.09 0 0 0-1.41-1.75 7.07 7.07 0 0 0-.77-.68 10 10 0 0 0-.89-.68 6.47 6.47 0 0 0-1-.58 10.94 10.94 0 0 0-2.12-.89 11.27 11.27 0 0 0-3.45-.56h-.23a11.65 11.65 0 0 0-4.31.92h-.09a5.34 5.34 0 0 0-.68.33 9.16 9.16 0 0 0-1.07.57l-.3.18a10.07 10.07 0 0 0-.86.63 9.49 9.49 0 0 0-.82.73 11.28 11.28 0 0 0-1.6 2c-.13.21-.24.43-.36.66 0 .06-.07.13-.11.21a11.57 11.57 0 0 0-1.34 5.47v.19a11.7 11.7 0 0 0 3.43 8.16l.09.09a.7.7 0 0 0 .17.13 11.52 11.52 0 0 0 8.06 3.18 11.73 11.73 0 0 0 8.25-3.45l.16-.17a1.54 1.54 0 0 0 .17-.19 11.62 11.62 0 0 0 3-7.75v-.19c.04-.31-.05-.56-.06-.81zm-11.68 12.08h-.26a11.21 11.21 0 0 1-4.16-.86 11.36 11.36 0 0 1-3.29-2.18 1.2 1.2 0 0 1-.21-.17 11.19 11.19 0 0 1-3.32-7.87.67.67 0 0 1 0-.2v-.07a11.15 11.15 0 0 1 3.5-8.06l.2-.18a11 11 0 0 1 7.31-2.86h.22a11.22 11.22 0 0 1 7.76 3.19 1.8 1.8 0 0 1 .2.19 11.18 11.18 0 0 1 3.19 7.77v.25a11.06 11.06 0 0 1-2.95 7.47.63.63 0 0 1-.18.21 11.25 11.25 0 0 1-3.67 2.54 11.59 11.59 0 0 1-4.31.87z"/><path class="b" d="M135.39 4.63l-.2-.19a11.29 11.29 0 0 0-7.79-3.19h-.21a11 11 0 0 0-7.41 2.91 1.54 1.54 0 0 0-.19.17 11.15 11.15 0 0 0-3.51 8.08v.07a.67.67 0 0 0 0 .2 11.16 11.16 0 0 0 3.36 7.83 1.24 1.24 0 0 0 .22.18 11.6 11.6 0 0 0 2.49 1.74c.28.14.54.31.83.44a10.84 10.84 0 0 0 4.16.87.81.81 0 0 0 .22 0 10.94 10.94 0 0 0 4.33-.9 11.13 11.13 0 0 0 3.72-2.57 1 1 0 0 0 .19-.21 11 11 0 0 0 3-7.43.43.43 0 0 0 0-.16v-.1a11.18 11.18 0 0 0-3.21-7.74zm-8 19.12h-.26a10.89 10.89 0 0 1-4.84-1.2l-.37-.21a8.94 8.94 0 0 1-1.17-.75c-.22-.16-.42-.33-.64-.5a4.31 4.31 0 0 1-.41-.36 1.7 1.7 0 0 1-.19-.19 11.09 11.09 0 0 1-3.36-7.88.67.67 0 0 1 0-.2v-.07a11.15 11.15 0 0 1 3.49-8 .46.46 0 0 1 .21-.18 11 11 0 0 1 7.3-2.92h.26a11 11 0 0 1 7.74 3.19l.22.19a11.31 11.31 0 0 1 3.18 7.74v.1a.43.43 0 0 1 0 .16 11.06 11.06 0 0 1-2.94 7.43.51.51 0 0 1-.17.21 11.07 11.07 0 0 1-8 3.42zm8-19.12l-.2-.19a11.29 11.29 0 0 0-7.79-3.19h-.21a11 11 0 0 0-7.41 2.91 1.54 1.54 0 0 0-.19.17 11.15 11.15 0 0 0-3.51 8.08v.07a.67.67 0 0 0 0 .2 11.16 11.16 0 0 0 3.36 7.83 1.24 1.24 0 0 0 .22.18 11.6 11.6 0 0 0 2.49 1.74c.28.14.54.31.83.44a10.84 10.84 0 0 0 4.16.87.81.81 0 0 0 .22 0 10.94 10.94 0 0 0 4.33-.9 11.13 11.13 0 0 0 3.72-2.57 1 1 0 0 0 .19-.21 11 11 0 0 0 3-7.43.43.43 0 0 0 0-.16v-.1a11.18 11.18 0 0 0-3.21-7.74zm-8 19.12h-.26a10.89 10.89 0 0 1-4.84-1.2l-.37-.21a8.94 8.94 0 0 1-1.17-.75c-.22-.16-.42-.33-.64-.5a4.31 4.31 0 0 1-.41-.36 1.7 1.7 0 0 1-.19-.19 11.09 11.09 0 0 1-3.36-7.88.67.67 0 0 1 0-.2v-.07a11.15 11.15 0 0 1 3.49-8 .46.46 0 0 1 .21-.18 11 11 0 0 1 7.3-2.92h.26a11 11 0 0 1 7.74 3.19l.22.19a11.31 11.31 0 0 1 3.18 7.74v.1a.43.43 0 0 1 0 .16 11.06 11.06 0 0 1-2.94 7.43.51.51 0 0 1-.17.21 11.07 11.07 0 0 1-8 3.42zm11.69-12.38a9.44 9.44 0 0 0-.47-2.28A10.88 10.88 0 0 0 138 7.5a11.91 11.91 0 0 0-2.32-3.34A11.63 11.63 0 0 0 127.4.73h-.2a11.68 11.68 0 0 0-11.12 8.32 10.36 10.36 0 0 0-.46 2.28 7.65 7.65 0 0 0-.06 1.17v.06a6.22 6.22 0 0 0 .06 1.06 7.4 7.4 0 0 0 .16 1.15 13 13 0 0 0 .67 2.2 12 12 0 0 0 2.55 3.82.64.64 0 0 0 .15.13.28.28 0 0 0 .09.1 11.8 11.8 0 0 0 16.42-.23.93.93 0 0 0 .16-.18.74.74 0 0 0 .16-.19c.07-.07.13-.16.19-.23.28-.32.54-.65.79-1a10.1 10.1 0 0 0 .59-1 7.81 7.81 0 0 0 .41-.76c.12-.27.19-.33.26-.51a13 13 0 0 0 .67-2.2c.06-.38.13-.76.16-1.15a6.22 6.22 0 0 0 .06-1.06 7.23 7.23 0 0 0 0-1.23zm-5.24-8.64a10.62 10.62 0 0 1 1.72 1.43l.08.08a4 4 0 0 1 .34.37 9.82 9.82 0 0 1 .71.86 11.72 11.72 0 0 1 2.09 4.61v.08c.06.33.11.66.15 1v1.5a11.59 11.59 0 0 1-3 7.76.55.55 0 0 1-.17.2l-.16.18a11.62 11.62 0 0 1-8.28 3.44h-.1a11.74 11.74 0 0 1-8-3.19.57.57 0 0 1-.15-.16l-.1-.07a11.68 11.68 0 0 1-3.41-8.16v-.18a11.85 11.85 0 0 1 1.33-5.41c0-.07.07-.15.11-.21a12 12 0 0 1 2-2.7 10.38 10.38 0 0 1 1.32-1.06 6.76 6.76 0 0 1 .7-.49 9.78 9.78 0 0 1 1.06-.57 7.83 7.83 0 0 1 .78-.36 7.28 7.28 0 0 1 .92-.32 11 11 0 0 1 3.37-.58.81.81 0 0 1 .22 0 10.71 10.71 0 0 1 2.58.31 6.87 6.87 0 0 1 .87.21c.36.12.71.25 1.06.4s.7.32 1.06.5a7.55 7.55 0 0 1 .9.53zm-6.51-1.49a.74.74 0 0 0-.21 0 11 11 0 0 0-7.34 2.92 1.54 1.54 0 0 0-.19.17 11.15 11.15 0 0 0-3.51 8.08v.07a.67.67 0 0 0 0 .2 11.16 11.16 0 0 0 3.36 7.83 1.24 1.24 0 0 0 .22.18 11.6 11.6 0 0 0 2.49 1.74c.28.14.54.31.83.44a10.84 10.84 0 0 0 4.16.87.81.81 0 0 0 .22 0 10.94 10.94 0 0 0 4.33-.9 11.13 11.13 0 0 0 3.72-2.57 1 1 0 0 0 .19-.21 11 11 0 0 0 3-7.43.43.43 0 0 0 0-.16v-.1a11.12 11.12 0 0 0-3.19-7.77l-.19-.19a11.24 11.24 0 0 0-7.79-3.19zm0 22.46h-.25a10.86 10.86 0 0 1-4.84-1.2l-.37-.2a8.94 8.94 0 0 1-1.17-.75c-.23-.16-.43-.33-.64-.5a3.33 3.33 0 0 1-.41-.36 1.8 1.8 0 0 1-.2-.19 11.11 11.11 0 0 1-3.29-7.84.67.67 0 0 1 0-.2v-.07a11.15 11.15 0 0 1 3.49-8 .46.46 0 0 1 .21-.18 11 11 0 0 1 7.3-2.92h.26a11 11 0 0 1 7.74 3.19l.22.19a11.31 11.31 0 0 1 3.18 7.74v.1a.43.43 0 0 1 0 .16 11.06 11.06 0 0 1-2.94 7.43.51.51 0 0 1-.17.21 11.07 11.07 0 0 1-8 3.42z"/></g></svg>