<svg xmlns="http://www.w3.org/2000/svg" width="150" height="36.85" viewBox="0 0 150 36.85"><defs><style>.a{fill:#71327e}.b{fill:#ba7cb5}</style></defs><path class="a" d="M15.49 20.25a2.72 2.72 0 0 0-.69.47 9.31 9.31 0 0 0-.84.82c-.3.32-.58.66-.84 1a10.79 10.79 0 0 0-.7 1.06c-.13.21-.26.41-.4.6a2.06 2.06 0 0 0-.31.63l-.07.17a4.8 4.8 0 0 0-.32.54l-.26.48c-.08.15-.16.31-.23.48l-.27.57c-.1.25-.2.51-.31.77s-.23.52-.34.79l-.24.52c-.08.16-.16.35-.24.54-.15.4-.31.8-.49 1.19a12.44 12.44 0 0 1-.56 1.17.79.79 0 0 0-.1.27l-.09.22c0 .08-.07.14-.1.21a2.22 2.22 0 0 0-.2.41l-.18.41-.05.14-.24.84-.24.89a1.52 1.52 0 0 1-.45.77 1.11 1.11 0 0 1-.78.29h-.38l-.39-.06a.74.74 0 0 1-.77-.6v-.13a.66.66 0 0 1 0-.14 3.16 3.16 0 0 1 0-.92 4 4 0 0 1 .29-.89 8.62 8.62 0 0 1 .43-.89 4.35 4.35 0 0 0 .38-.92 7.25 7.25 0 0 1 .36-.87c.16-.35.32-.7.49-1.05s.32-.72.47-1.09l.23-.5c.08-.17.17-.35.24-.53.18-.36.33-.74.48-1.13s.3-.77.48-1.15c.08-.17.16-.36.23-.53a5.25 5.25 0 0 1 .25-.55 6.65 6.65 0 0 0 .28-.69c.07-.22.15-.45.25-.69s.21-.57.3-.85.18-.58.28-.88a3.24 3.24 0 0 0 .16-.53c0-.21.09-.38.12-.53a1.69 1.69 0 0 0 .12-.54 4.68 4.68 0 0 1 .08-.54 1.1 1.1 0 0 0 0-.36 1.76 1.76 0 0 0-.06-.39 1.19 1.19 0 0 0-.15-.35.47.47 0 0 0-.28-.2 1.68 1.68 0 0 0-.74 0 4.63 4.63 0 0 0-1.49.56 3.08 3.08 0 0 0-.41.3c-.17.14-.33.27-.49.42s-.34.29-.48.43a2.27 2.27 0 0 1-.4.31 2.86 2.86 0 0 0-.52.46c-.15.17-.31.33-.47.49s-.47.55-.7.84-.44.58-.65.9a4.87 4.87 0 0 0-.61 1 10.46 10.46 0 0 0-.4 1.11.52.52 0 0 0 0 .18.4.4 0 0 1 0 .15v.1a.51.51 0 0 0 .16.25.31.31 0 0 0 .19.06.83.83 0 0 0 .22 0 .76.76 0 0 0 .18-.09l.3-.13.12-.06a.46.46 0 0 0 .07-.07 1.06 1.06 0 0 1 .2-.17.35.35 0 0 0 .12-.07l.21-.16.2-.16.12-.07a1.43 1.43 0 0 1 .28-.13.44.44 0 0 1 .2 0 .66.66 0 0 1 .2.06l.26.13.17.07.17.05a3.4 3.4 0 0 0 .16.34 1.77 1.77 0 0 1 .15.38.93.93 0 0 1 0 .24 1.62 1.62 0 0 1-.06.19 1 1 0 0 1-.08.25.33.33 0 0 1-.17.18l-.24.32a1 1 0 0 1-.29.26 5.16 5.16 0 0 1-.61.43 2.16 2.16 0 0 1-.51.29 1 1 0 0 1-.28.14h-.34l-.31.1-.6.1a2.86 2.86 0 0 1-.58.06h-.33a2.06 2.06 0 0 1-.35 0l-.28-.18a2.16 2.16 0 0 1-.34-.17 1.22 1.22 0 0 1-.31-.33 2.77 2.77 0 0 1-.22-.46 1.42 1.42 0 0 1-.13-.18 1.89 1.89 0 0 0 0-.18 2.34 2.34 0 0 1-.09-.38 2.29 2.29 0 0 1 0-.37 2.38 2.38 0 0 1 .17-1.15v-.06a.14.14 0 0 1 0-.09 5.69 5.69 0 0 1 .33-1.05 8.88 8.88 0 0 1 .48-1 8.32 8.32 0 0 1 .6-.94c.22-.31.45-.61.67-.89s.29-.39.49-.62l.63-.71c.21-.24.43-.46.65-.67l.56-.53a3.47 3.47 0 0 1 .29-.25l.33-.25c.38-.29.77-.57 1.17-.82a12.39 12.39 0 0 1 1.24-.67c.26-.1.52-.18.78-.26a7.44 7.44 0 0 1 .78-.2 3.08 3.08 0 0 1 2.22.59 3 3 0 0 1 1.06 1.86 1.76 1.76 0 0 1 0 .4v.62c0 .21 0 .46-.07.69l-.07.57a.92.92 0 0 0 .22-.22c.13-.16.27-.32.41-.51l.41-.5.21-.25.41-.37c.13-.11.27-.22.41-.35a4 4 0 0 1 .66-.44 5.57 5.57 0 0 1 .77-.3 3.26 3.26 0 0 1 .76-.12 1.62 1.62 0 0 1 .65.11 3.6 3.6 0 0 1 .72.39 1.62 1.62 0 0 0 .1.18l.09.2a1.38 1.38 0 0 1 .17.48 1.59 1.59 0 0 1 .07.48 3.78 3.78 0 0 1 0 .46v.77a1.94 1.94 0 0 1 0 .34l-.14.74a.55.55 0 0 0 .18-.16.86.86 0 0 1 .18-.2c.11-.14.22-.29.35-.43s.24-.29.37-.43a9.83 9.83 0 0 1 1.38-1.28c.49-.37 1-.72 1.51-1.06a2.32 2.32 0 0 1 .57-.28 5.31 5.31 0 0 0 .6-.22 8.24 8.24 0 0 1 1.11 0 2 2 0 0 1 .94.23l.32.2a1.42 1.42 0 0 1 .3.3l.28.3a.59.59 0 0 1 .16.38 1.58 1.58 0 0 0 .06.23.85.85 0 0 1 0 .23 1.54 1.54 0 0 1-.11.79c-.1.26-.19.52-.27.79a2.82 2.82 0 0 1-.51.95 3.8 3.8 0 0 0-.55.93 11.74 11.74 0 0 1-.73 1.41c-.27.46-.52.92-.74 1.38l-.22.46c-.05.1-.09.2-.13.29l-.13.29-.22.47c-.11.25-.2.45-.26.57l-.17.35c-.05.11-.09.22-.14.35l-.22.58a8.81 8.81 0 0 1-.4.91 6 6 0 0 0-.39 1.18c-.07.24-.13.49-.19.74a3.26 3.26 0 0 0-.07.74l.07.31a.27.27 0 0 0 .29.22 1.63 1.63 0 0 0 .38 0l.36-.11a4.68 4.68 0 0 0 .92-.53 9.48 9.48 0 0 0 .79-.63 9.93 9.93 0 0 0 1-1.15c.28-.37.57-.81.89-1.33a5.86 5.86 0 0 1 .37-.5l.4-.48a.66.66 0 0 1 .12-.17c.07-.06.12 0 .17.07l.55-.62a.32.32 0 0 1 .17 0 1.07 1.07 0 0 1 .07.39l.17-.06a.81.81 0 0 0 .19-.18l-.07.38v.06a.1.1 0 0 0 0 .09.42.42 0 0 1 0 .27l-.06.26a.5.5 0 0 1 0 .12.27.27 0 0 1-.06.1l-.06.09a1.43 1.43 0 0 1-.09.41 3 3 0 0 1-.19.36l-.23.38-.23.37-.71 1a7.52 7.52 0 0 1-.76.93l-.48.52-.5.51a4.7 4.7 0 0 1-1.07.92 7.39 7.39 0 0 1-1.36.65l-.57.17a2 2 0 0 1-.87.08 6.25 6.25 0 0 1-.86-.18 1.1 1.1 0 0 1-.46-.26 2.6 2.6 0 0 1-.36-.46 2.87 2.87 0 0 1-.38-1.81 7.19 7.19 0 0 1 .3-1.45c.12-.38.24-.79.37-1.24.06-.23.13-.44.19-.64s.14-.41.24-.64.12-.41.16-.53a1.78 1.78 0 0 1 .12-.29c0-.08.08-.17.14-.27s.13-.27.23-.5.2-.43.25-.59l.16-.41a3.26 3.26 0 0 1 .18-.39c.07-.15.17-.34.3-.58s.33-.65.47-.93.27-.55.41-.83.28-.56.43-.84.33-.62.54-1a2.57 2.57 0 0 0 .2-.35l.23-.37a.86.86 0 0 0 .15-.44.16.16 0 0 0-.17-.14 1.38 1.38 0 0 0-.39.09 4.89 4.89 0 0 0-.48.2l-.43.25a2.65 2.65 0 0 0-.26.21c-.33.27-.62.53-.88.77a6.85 6.85 0 0 0-.81.89 8.16 8.16 0 0 0-.81 1c-.21.33-.44.66-.7 1a6.65 6.65 0 0 0-.39.63 4.67 4.67 0 0 1-.38.6 4.89 4.89 0 0 0-.42.69l-.37.68c-.39.71-.75 1.41-1.08 2.12s-.67 1.43-1 2.18l-.64 1.53a1.26 1.26 0 0 0-.16.33c0 .12-.07.24-.1.37a2.22 2.22 0 0 1-.58.87.52.52 0 0 0-.17.13.29.29 0 0 1-.19.11 1 1 0 0 0-.23.06l-.23.06a1 1 0 0 1-1.1-.41 2.3 2.3 0 0 1-.24-.77 1.82 1.82 0 0 1 .07-.77 3.75 3.75 0 0 1 .14-.6c.07-.2.14-.39.22-.58a2.29 2.29 0 0 1 .17-.4l.15-.38a4.69 4.69 0 0 1 .27-.67 5.86 5.86 0 0 0 .28-.69l.72-1.81c.08-.21.17-.41.26-.61a6.14 6.14 0 0 0 .27-.64c.27-.63.53-1.24.77-1.84s.46-1.23.67-1.89l.37-1a7.9 7.9 0 0 0 .24-1.09 1.51 1.51 0 0 0 0-.3.54.54 0 0 0-.09-.25.3.3 0 0 0-.21-.12.67.67 0 0 0-.34.1z"/><path class="a" d="M29.53 24.1l.22.07.21.08a.18.18 0 0 1 .17.12c0 .08.08.16.13.24s.11.16.16.24a.62.62 0 0 1 0 .38c0 .13 0 .26-.07.39a8.39 8.39 0 0 1-.56 1.62c-.25.52-.51 1-.77 1.52s-.51 1-.74 1.44a5.66 5.66 0 0 0-.45 1.43.32.32 0 0 0 .48.39.51.51 0 0 0 .21-.15.54.54 0 0 1 .22-.12 6.52 6.52 0 0 0 1-.81c.36-.36.68-.67.93-.94.11-.11.27-.3.47-.54s.4-.52.6-.8l.59-.82a7.31 7.31 0 0 1 .48-.61 1 1 0 0 1 .13-.23 1.67 1.67 0 0 0 .18-.28c.12-.06.16-.12.14-.16a.15.15 0 0 1 0-.17.11.11 0 0 0 .08 0c.06 0 .07-.05 0-.05s-.06 0 0 0l.12-.12.2-.22c.11-.11.17-.17.21-.14a.19.19 0 0 1 .16 0l.1.12q.11-.09.12 0t.24.12a.72.72 0 0 1 .17-.22l-.09.36a1 1 0 0 1 0 .17q.12 0 .09-.09s0-.05.12-.08a.28.28 0 0 1 0 .13.31.31 0 0 0 0 .13v.22l-.1.29-.09.27-.23.42c-.11.18-.22.38-.34.59l-.34.59-.27.42a3.6 3.6 0 0 1-.25.33c-.11.14-.21.3-.32.47s-.23.34-.34.48a3.68 3.68 0 0 1-.31.38l-.45.49-.21.26-.19.25-.35.39c-.28.23-.56.46-.87.69a7.27 7.27 0 0 1-.94.62 4.5 4.5 0 0 1-1 .45 2.92 2.92 0 0 1-1.06.14 1.51 1.51 0 0 1-1.23-.47 1.86 1.86 0 0 1-.44-1.08 4.18 4.18 0 0 1 .17-1.26c.09-.46.19-.86.28-1.19s.11-.32.14-.38a.34.34 0 0 1 .09-.13l.06-.08a1.08 1.08 0 0 0 .1-.27 1.64 1.64 0 0 0 .1-.38.77.77 0 0 1 .15-.36l.09-.21v-.13a.75.75 0 0 1 0-.16 3.47 3.47 0 0 1 .16-.36l.4-.92c.18-.44.37-.88.59-1.3a6.56 6.56 0 0 1 .54-.83.75.75 0 0 1 .15-.2l.14-.14a1.3 1.3 0 0 0 .1-.15.35.35 0 0 1 .14-.06h.36a1 1 0 0 0 .32-.09zm.79-.38H30a.64.64 0 0 1-.3-.14.63.63 0 0 1-.33-.2.92.92 0 0 1-.18-.32 1.24 1.24 0 0 1 0-.33 1.53 1.53 0 0 0 0-.3.63.63 0 0 1 .12-.33.66.66 0 0 1 .17-.23l.26-.23a.11.11 0 0 0 .08 0l.09-.05.5-.12a2.1 2.1 0 0 1 .56 0 .92.92 0 0 1 .61.53 1.3 1.3 0 0 1 .15.75v.1a.35.35 0 0 0 0 .14.68.68 0 0 1-.18.32 1.81 1.81 0 0 1-.3.25 2.5 2.5 0 0 0-.38.15.64.64 0 0 1-.41.05z"/><path class="a" d="M37.13 26.3c-.06.06-.17.16-.3.31l-.42.47c-.14.16-.28.33-.41.5l-.29.36a7.65 7.65 0 0 0-.64.93 8.68 8.68 0 0 0-.48.9 1.26 1.26 0 0 0-.23.48 2 2 0 0 1-.18.46l-.09.19s0 .07-.08.18-.1.16-.14.24a1.22 1.22 0 0 0-.07.17.78.78 0 0 0 0 .18c0 .07 0 .17-.07.28a1.69 1.69 0 0 0-.23.49 3.53 3.53 0 0 0-.13.54.45.45 0 0 1-.11.23s-.06.11-.06.25-.07.2-.1.2a.26.26 0 0 0-.14.09c-.11.08-.17.16-.16.24s0 .14-.16.17a2.35 2.35 0 0 1-.79.14.79.79 0 0 1-.65-.33.23.23 0 0 1 0-.17s0-.09-.09-.17a.88.88 0 0 1-.1-.22.31.31 0 0 1 0-.21 1.82 1.82 0 0 0 0-.33.12.12 0 0 1 0-.13.4.4 0 0 0 .07-.19 4.25 4.25 0 0 1 .14-.51 5.34 5.34 0 0 1 .18-.52l.73-2.08c.16-.45.29-.83.38-1.14s.19-.61.27-.89.16-.57.26-.88.22-.67.39-1.1c.08-.2.15-.4.22-.62a3.83 3.83 0 0 0 .18-.64 4.12 4.12 0 0 1 .21-.48 1.64 1.64 0 0 0 .13-.43 1.24 1.24 0 0 1 .72-.75.63.63 0 0 1 .24-.07 3.11 3.11 0 0 1 .33 0 1 1 0 0 1 .89 1l-.09.27c0 .17-.12.36-.19.56s-.14.38-.19.55a2.29 2.29 0 0 0-.09.28c0 .09-.05.18-.07.24a.84.84 0 0 0-.05.17.14.14 0 0 0 0 .07l.08-.07.14-.17.13-.18a.44.44 0 0 1 .08-.11c.16-.21.33-.41.5-.6s.39-.41.58-.59.38-.35.55-.49a3.19 3.19 0 0 1 .43-.32l.59-.35a2.13 2.13 0 0 1 .33-.11l.31-.07a1.1 1.1 0 0 1 .36 0l.49.09a.62.62 0 0 1 .42.2 4.32 4.32 0 0 1 .47.63 1.37 1.37 0 0 1 .25.67v.33a3.25 3.25 0 0 1-.29 1.15q-.24.51-.45.9c-.17.27-.3.51-.41.71s-.22.42-.32.64c-.28.56-.56 1.11-.81 1.67a12.28 12.28 0 0 0-.7 2 1.65 1.65 0 0 0-.07.32.61.61 0 0 0 0 .3.23.23 0 0 0 .18.15.79.79 0 0 0 .42-.15 1.77 1.77 0 0 0 .41-.31 6.62 6.62 0 0 0 .53-.53c.18-.19.34-.38.49-.55l.35-.41 1.2-1.47.36-.52c.15-.2.29-.41.44-.62s.29-.43.43-.64.26-.39.36-.56a2.42 2.42 0 0 1 .25-.31 1.69 1.69 0 0 1 .38-.19.31.31 0 0 1-.06.19.37.37 0 0 0-.09.19h.15a.06.06 0 0 0 .08 0 .21.21 0 0 1 .06-.1l.1-.11a.53.53 0 0 1 .14-.11c.05 0 .06.07 0 .11a.07.07 0 0 0 0 .1h.34a.25.25 0 0 0 .28.15v.12l.07.12a.12.12 0 0 1 0 .16.57.57 0 0 0-.18.12.22.22 0 0 0 0 .16.39.39 0 0 1 .06.15.11.11 0 0 1 0 .12.56.56 0 0 1 0 .12 2.86 2.86 0 0 1-.24.42l-.35.52c-.12.19-.24.35-.35.5a4.11 4.11 0 0 0-.24.39.64.64 0 0 1-.08.14l-.09.12a6.41 6.41 0 0 1-.52.73l-.51.65c-.24.32-.49.62-.75.91a10.79 10.79 0 0 1-.82.84.31.31 0 0 0-.14.09.24.24 0 0 1-.09.18l-.17.09a.2.2 0 0 0-.12.08.52.52 0 0 1-.1.11 4 4 0 0 1-.47.33l-.5.34a1.36 1.36 0 0 1-.3.13l-.39.09h-.41a2 2 0 0 1-.34 0 3.41 3.41 0 0 1-.55-.05 1 1 0 0 1-.48-.24l-.27-.22a.91.91 0 0 1-.38-.48 3.22 3.22 0 0 1-.15-.63 3.26 3.26 0 0 1 0-1.08 7.16 7.16 0 0 1 .23-1c.11-.34.22-.67.35-1.05a16.09 16.09 0 0 1 .71-1.78 11.9 11.9 0 0 1 .9-1.54 4.94 4.94 0 0 0 .35-.64c.09-.2.11-.32 0-.37s-.21 0-.46.16a7.42 7.42 0 0 0-1.22 1.05z"/><path class="a" d="M45.54 30.44a5.34 5.34 0 0 0 .46-.5 6.67 6.67 0 0 1 .45-.51 2 2 0 0 1 .2-.21.9.9 0 0 0 .21-.27 1.81 1.81 0 0 0 .41-.46l.33-.52.05-.09v-.08l.19-.2a.16.16 0 0 0 .06-.08.47.47 0 0 1 0-.1s.07-.12.13-.25a1.14 1.14 0 0 0 .23-.38.83.83 0 0 1 .2-.34 5 5 0 0 0 .38-.72 5.16 5.16 0 0 1 .32-.67c.1-.16.2-.35.31-.55s.22-.4.32-.56a.86.86 0 0 1 .13-.2 2.38 2.38 0 0 0 .18-.3 1.19 1.19 0 0 0 .08-.16.38.38 0 0 1 .09-.13l.08-.13a.44.44 0 0 1 .08-.11.47.47 0 0 0 .17 0l.17-.18a.22.22 0 0 1 .19-.06.8.8 0 0 1 .55.05.26.26 0 0 0 .15 0 1 1 0 0 1 .24.15.46.46 0 0 1 .17.24 1.27 1.27 0 0 1 .18.37.52.52 0 0 1 0 .35.47.47 0 0 1-.11.34.82.82 0 0 0-.18.36c-.16.32-.32.67-.47 1s-.31.69-.49 1-.17.46-.27.7-.2.48-.31.7-.11.33-.18.54l-.21.67c-.06.23-.11.45-.15.65a1.67 1.67 0 0 0-.06.44 2.18 2.18 0 0 0-.15.61v.62a.22.22 0 0 1 0 .08.09.09 0 0 0 0 .07c0 .24.14.34.32.31a1.49 1.49 0 0 0 .56-.25 4.41 4.41 0 0 0 .58-.47l.37-.36a3.48 3.48 0 0 0 .38-.48 6.08 6.08 0 0 1 .39-.53 5.13 5.13 0 0 0 .33-.49l.41-.61.42-.61.35-.48a4.7 4.7 0 0 1 .46-.7l.09-.15a.4.4 0 0 1 .15 0l.09-.22a.73.73 0 0 1 .22-.21q.09 0 0 .09t0 .15a.14.14 0 0 0 .16-.07c0-.06.05-.08.08 0a.11.11 0 0 0 .07 0s0 .05 0 0q.13 0 .12.12a.14.14 0 0 0 0 .17l.15-.05a.26.26 0 0 1 0 .27 2 2 0 0 0-.1.26h.12v.07a.33.33 0 0 1 0 .26.28.28 0 0 0 0 .22.11.11 0 0 1 0 .11.21.21 0 0 0 0 .11 1.29 1.29 0 0 0-.09.16 2.14 2.14 0 0 0-.1.22 6.15 6.15 0 0 1-.66 1.14l-.81 1.1a2.86 2.86 0 0 1-.53.77 8.47 8.47 0 0 0-.69.89 5.62 5.62 0 0 1-.68.7 5.22 5.22 0 0 1-.7.54.89.89 0 0 1-.27.15l-.39.14-.4.13a.72.72 0 0 1-.29.06 5.41 5.41 0 0 0-.9 0 .8.8 0 0 1-.71-.32l-.12-.16.08-.16c-.1-.17-.17-.3-.21-.38a.86.86 0 0 1-.07-.21 1.21 1.21 0 0 1 0-.19 3 3 0 0 0 0-.37.32.32 0 0 1 0-.21.37.37 0 0 0 0-.23.74.74 0 0 1 0-.19c0-.11 0-.23.05-.36s0-.25 0-.36v-.22a2.2 2.2 0 0 0-.33.35l-.3.4a2.78 2.78 0 0 0-.42.42 2.79 2.79 0 0 1-.37.4 2.76 2.76 0 0 1-.7.62 4.54 4.54 0 0 0-.67.48 1.49 1.49 0 0 1-.36.17l-.6.14a1 1 0 0 1-.46 0c-.12 0-.3 0-.53-.09a2.15 2.15 0 0 1-.69-.55 1.86 1.86 0 0 1-.36-.87 2.36 2.36 0 0 1 0-.65c0-.23.05-.44.08-.65a3.54 3.54 0 0 1 .21-.91 8.51 8.51 0 0 1 .34-.83l.14-.27a1.12 1.12 0 0 0 .1-.31 3.13 3.13 0 0 0 .3-.61 6.16 6.16 0 0 1 .33-.74 4.16 4.16 0 0 0 .24-.47c.08-.18.14-.33.19-.42a7.15 7.15 0 0 0 .37-1 5.67 5.67 0 0 1 .42-1c.05-.13.1-.25.16-.37a4 4 0 0 1 .2-.35 2 2 0 0 0 .08-.33.69.69 0 0 1 .14-.3.21.21 0 0 0 .07-.13 1.11 1.11 0 0 1 .07-.16.71.71 0 0 1 .2 0c.13 0 .19-.07.2-.11s.07-.06.18-.06h.65a.9.9 0 0 0 .15.19.7.7 0 0 0 .19.15.69.69 0 0 1 .16.18.49.49 0 0 0 .17.15.27.27 0 0 1 0 .19 1.35 1.35 0 0 1 0 .53 2.37 2.37 0 0 1-.18.53c-.11.23-.25.48-.41.75a4.63 4.63 0 0 0-.36.7 2.85 2.85 0 0 0-.25.45l-.21.44c-.1.19-.2.39-.29.6s-.14.36-.24.6a5.36 5.36 0 0 1-.24.48 5 5 0 0 0-.21.48 2.58 2.58 0 0 0-.18.32 1.6 1.6 0 0 0-.1.23l-.08.25c0 .09-.08.22-.12.36a3.3 3.3 0 0 0-.14.4.78.78 0 0 0 0 .43c0 .1.11.13.27.08a2.67 2.67 0 0 0 .83-.57zm9.66-4.05a.12.12 0 0 1 0 .1.14.14 0 0 1 0-.1zm0-.12v.12a.5.5 0 0 1 0-.12z"/><path class="a" d="M56.9 21.68l-.28.06-.42.06h-.62l-.59.15a2.57 2.57 0 0 1-.4.08 1.62 1.62 0 0 1-.31 0 1.58 1.58 0 0 1-.31-.09.48.48 0 0 1-.21-.19l-.15-.27a.28.28 0 0 1-.1-.2.75.75 0 0 0-.05-.26 1 1 0 0 1 0-.17c.1-.17.18-.3.24-.43a.48.48 0 0 1 .21-.19.46.46 0 0 1 .25-.1.89.89 0 0 1 .32-.08h.28c.42 0 .75 0 1-.06l.76-.06.4-.07a2 2 0 0 1 .42 0 .4.4 0 0 0 .15 0h.16a.21.21 0 0 0 .18-.13c0-.09.08-.17.11-.26a1.27 1.27 0 0 1 .13-.32 1.51 1.51 0 0 0 .13-.33 1.36 1.36 0 0 1 .17-.39.66.66 0 0 0 .1-.41.35.35 0 0 1 .13-.26 1.27 1.27 0 0 0 .18-.27.17.17 0 0 1 .14-.09 1.84 1.84 0 0 0 .22-.17l.14-.11a.32.32 0 0 1 .17 0 1.1 1.1 0 0 1 .26.06.92.92 0 0 1 .28.14l.2.19a.87.87 0 0 1 .16.23c0 .09.08.17.11.25a.9.9 0 0 1 0 .28 2.09 2.09 0 0 1 0 .34 1.16 1.16 0 0 0-.09.19c0 .1-.08.19-.12.3s-.07.2-.1.3a.54.54 0 0 0-.05.22h.26a4.52 4.52 0 0 1 .63-.08c.14 0 .35 0 .62-.06a1.46 1.46 0 0 0 .22 0l.3-.06.29-.07a.57.57 0 0 1 .18 0h.09a.75.75 0 0 0 .42 0 1.23 1.23 0 0 1 .42-.07 1.73 1.73 0 0 0 .32 0 .57.57 0 0 1 .26 0 .25.25 0 0 0 .19 0 .41.41 0 0 1 .22 0h.13a.28.28 0 0 1 .13 0 .07.07 0 0 0 .08 0s.08-.05.11 0a.15.15 0 0 1 .1.12l.16.21c0 .08 0 .13-.06.13a.31.31 0 0 0-.13.06 1.26 1.26 0 0 0 .13.23.5.5 0 0 1 .11.26.08.08 0 0 0-.09 0s-.07.06-.15.08a.12.12 0 0 0 0 .14s0 .08-.07.1a.49.49 0 0 0-.17.06c-.08 0-.11.08-.09.13a.54.54 0 0 1-.27.11h-.31a1.35 1.35 0 0 1-.35 0c-.17 0-.27 0-.3.06h-.19l-.4.05-.56.05h-.54l-.33.05a1.94 1.94 0 0 1-.59.06 2.88 2.88 0 0 0-.87.14 1.09 1.09 0 0 1-.36 0c-.07 0-.14.05-.22.19l-.33.63c-.16.32-.34.66-.54 1s-.37.69-.55 1-.29.51-.33.61a1.81 1.81 0 0 0-.12.28v.16l-.15.26-.55 1.22-.32.69c-.08.18-.15.37-.21.55s-.17.46-.29.81-.25.73-.35 1a8.16 8.16 0 0 0-.28 1.05 1.18 1.18 0 0 0-.08.31 2.54 2.54 0 0 0 0 .39.67.67 0 0 0 .07.37.26.26 0 0 0 .21.12.74.74 0 0 0 .26 0 1.84 1.84 0 0 0 .25-.09 9 9 0 0 0 1.3-1.08 14.59 14.59 0 0 0 1.05-1.17c.32-.41.66-.85 1-1.31s.76-1 1.24-1.54a.24.24 0 0 1 .06-.09l.08-.08c.08-.1.14-.21.21-.31a.64.64 0 0 1 .35-.25.16.16 0 0 0 .09 0l.12-.08v.05a.05.05 0 1 0 .09 0 .24.24 0 0 1 0-.08.25.25 0 0 1 .1.08.85.85 0 0 1 0 .13v.06c0-.03 0 0 0 0s.09 0 0 0-.06.11 0 .24.18.1.12.22a.12.12 0 0 0 .06.14.09.09 0 0 1 0 .13.23.23 0 0 0 0 .14.29.29 0 0 1 0 .18 2.33 2.33 0 0 1-.07.25.55.55 0 0 1-.17.23.18.18 0 0 0-.06.09.21.21 0 0 1-.06.1 2.18 2.18 0 0 1-.28.46c-.15.21-.31.42-.49.65l-.52.63-.35.42c-.19.28-.47.64-.85 1.1a16.46 16.46 0 0 1-1.28 1.36 12.42 12.42 0 0 1-1.51 1.2 3.34 3.34 0 0 1-1.54.61h-.48a.66.66 0 0 1-.43-.12.55.55 0 0 0-.24-.12 1.3 1.3 0 0 1-.52-.52 1.92 1.92 0 0 1-.23-.66 3.24 3.24 0 0 1-.06-.88c0-.23.06-.52.09-.85a14.12 14.12 0 0 1 .28-1.58c.15-.6.29-1.12.44-1.55.08-.21.13-.37.17-.48a2.82 2.82 0 0 1 .09-.3c0-.09.07-.19.11-.29l.18-.47.2-.46.08-.13.12-.24c0-.12.16-.38.35-.76l1.73-3.27a.14.14 0 0 0 0-.06.28.28 0 0 1 .22.07zm5 4.35zm8.37-5.32v-.05h-.14c-.13-.17-.24-.25-.34-.22s-.1 0-.1-.06a.31.31 0 0 0-.06-.13.32.32 0 0 1-.1-.29.23.23 0 0 0 0-.18v-.16a.22.22 0 0 1 .05-.11.19.19 0 0 0 0-.1l.07-.29a1 1 0 0 1 .07-.15 1.54 1.54 0 0 1 .17-.19.79.79 0 0 1 .2-.33 1.79 1.79 0 0 1 .28-.2 6.12 6.12 0 0 1 .93-.35c.36-.1.72-.2 1.09-.28s.72-.17 1-.23l.81-.17h.19l.75-.08a6 6 0 0 0 .72-.11l.24-.05h.23a.57.57 0 0 0 .18 0h.36a8.48 8.48 0 0 1 1.11-.16 5.24 5.24 0 0 1 1.12 0l.36.08.39.09a.15.15 0 0 1 .09 0 .18.18 0 0 0 .1 0l.22.2.28.19a.9.9 0 0 1 .17.3 3 3 0 0 1 .15.45.29.29 0 0 1 0 .09v.15a.46.46 0 0 1 0 .38 3.83 3.83 0 0 0-.17.43l-.09.17-.34.56a5.36 5.36 0 0 0-.45.63 3.7 3.7 0 0 1-.46.57l-.75.79v.05l-.72.84v-.15a2 2 0 0 1-.31.41 6.39 6.39 0 0 0-.5.54 7 7 0 0 0-.44.54q-.25.36-.54.69a6.77 6.77 0 0 1-.59.61l-.8.9-.78.88c-.26.27-.51.55-.77.84s-.51.57-.77.83l-.84.94-.38.43a3.19 3.19 0 0 0-.32.43l-.32.36a1.8 1.8 0 0 1-.33.4 2.52 2.52 0 0 0-.37.49l-.17.22a.53.53 0 0 0-.11.21.46.46 0 0 1-.13.18.54.54 0 0 0-.15.15l-.13.15-.35.53a8 8 0 0 0-.47.8h.11a.2.2 0 0 0 .11 0h.17a2.64 2.64 0 0 0 .4-.12c.14 0 .26-.09.39-.14a2.29 2.29 0 0 1 .28-.09l.27-.06h.36a2.93 2.93 0 0 0 .36-.08l.21-.08.2-.06h.39l.5-.07a5.05 5.05 0 0 0 .68-.07c.19 0 .36-.06.53-.07h.53a6.86 6.86 0 0 1 .69 0h1.38a1.58 1.58 0 0 1 .43.34h-.27.1a1.59 1.59 0 0 0 .29.15c.08 0 .1.13.07.31v.36c.11.18.07.32-.14.44l-.12.16v.1l.12.07c.12.07.09.07 0 .15h-.53a1.81 1.81 0 0 1-.35.16.53.53 0 0 1-.33 0c-.17 0-.28-.06-.32 0a1.59 1.59 0 0 1-.3.06h-.19a.09.09 0 0 0-.07 0h-.07a.67.67 0 0 1-.2 0h-.53a1 1 0 0 1-.25 0h-.7a4.92 4.92 0 0 0-.67.1c-.23.05-.45.1-.67.17l-.84.14a2.77 2.77 0 0 0-.41.12l-.5.19-1.06.32-.41.07a1.65 1.65 0 0 1-.32.06h-.38a1.67 1.67 0 0 1-.77-.06 1.36 1.36 0 0 1-.62-.37l-.17-.25a1.28 1.28 0 0 1-.15-.25 1.52 1.52 0 0 1-.07-1.09 4.61 4.61 0 0 1 .48-1.44q.24-.52.57-1.11a6.89 6.89 0 0 1 .73-1.06l.31-.43.12-.16a4.74 4.74 0 0 1 .56-.82c.24-.27.46-.53.69-.77l.17-.22.26-.26v-.05l.73-.92a2.85 2.85 0 0 0 .23-.26l.22-.29.15-.16.12-.15.36-.39.07-.09c.32-.37.65-.74 1-1.12l1-1.09a1.75 1.75 0 0 0 .24-.23l.27-.3.43-.44.41-.45.16-.15.34-.39.2-.22.24-.22c.19-.21.37-.42.55-.64s.35-.43.53-.66l.14-.25a2.26 2.26 0 0 0 .25-.29 3.58 3.58 0 0 1 .26-.29l.38-.6-.5.09c-.46.1-.94.19-1.43.27s-1 .17-1.45.27l-1.61.48h-.12l-.39.12-.26.11-.27.12-.36.13-.43.17-.39-.05z"/><path class="a" d="M85.53 22.95a.57.57 0 0 1 .33-.33l.41-.15a.69.69 0 0 1 .25 0h.19s.09.05.12.15 0 .08.07 0a.17.17 0 0 1 .12 0c0 .06 0 .08.07.07h.07a1.33 1.33 0 0 0 .15.32.31.31 0 0 1 0 .31.5.5 0 0 1-.12.29 1.15 1.15 0 0 1-.08.41c-.06.16-.12.31-.19.47s-.15.3-.23.44-.15.27-.19.36c-.18.32-.35.65-.5 1s-.31.64-.44.95-.33.83-.49 1.18a12 12 0 0 0-.49 1.3c-.08.3-.16.6-.22.87a4.53 4.53 0 0 0-.07 1.1.41.41 0 0 0 .26.43.5.5 0 0 0 .27 0l.24-.08a2.2 2.2 0 0 0 .59-.38 4.87 4.87 0 0 0 .59-.61 8.17 8.17 0 0 0 .61-.81 31.003 31.003 0 0 0 1.38-2.19c.19-.33.34-.55.41-.68a.74.74 0 0 1 .17-.25 1.39 1.39 0 0 1 .21-.21.2.2 0 0 0 0-.11v-.06l.13-.15a1.74 1.74 0 0 0 .18-.15.87.87 0 0 1 .23-.2 1 1 0 0 1 .3-.14h.1v-.05c0-.05.09-.06.08-.1s0-.08.07-.11a1 1 0 0 1 0 .1.17.17 0 0 0 0 .07s.05 0 .06-.05 0-.06 0 0l.06.08q.08-.08.06 0l.08-.07v.06-.05a.86.86 0 0 1 .06.23.46.46 0 0 0 .11.22v-.09.43-.06a.17.17 0 0 1 .1-.06.11.11 0 0 0 0 .07v.08l-.1.33q0 .16-.09.36a6.93 6.93 0 0 1-.41.76l-.67 1.1c-.24.38-.47.74-.7 1.08s-.39.58-.5.72-.36.54-.54.79a4.57 4.57 0 0 1-.61.7.1.1 0 0 1-.05.06l-.07.06a4.81 4.81 0 0 1-.88.81 4.47 4.47 0 0 1-1.08.57 3 3 0 0 1-1.11.15 1.74 1.74 0 0 1-1-.37 1.67 1.67 0 0 1-.39-.56 2 2 0 0 1-.14-.55c0-.17 0-.37-.05-.62v-.31a2.35 2.35 0 0 1 .05-.37.58.58 0 0 1-.16.19l-.15.12a8.91 8.91 0 0 1-.7.8l-.7.7a.61.61 0 0 1-.16.16.54.54 0 0 0-.15.15 2.62 2.62 0 0 1-.6.45l-.6.29a2.31 2.31 0 0 1-1.54.13 1.72 1.72 0 0 1-.94-.84l-.21-.63a1.67 1.67 0 0 1 0-.67.49.49 0 0 0 0-.21.86.86 0 0 1 .05-.27 3.87 3.87 0 0 0 .11-.76 1.49 1.49 0 0 1 .2-.68.55.55 0 0 1 .12-.24.37.37 0 0 0 .1-.24 4.24 4.24 0 0 1 .18-.5 3.38 3.38 0 0 0 .18-.44 5.86 5.86 0 0 1 .63-1.12q.38-.54.66-1a.74.74 0 0 1 .13-.21l.2-.27.2-.28.15-.21c.25-.32.52-.64.8-1s.57-.63.88-.92a6.31 6.31 0 0 1 1-.73 4.2 4.2 0 0 1 1.12-.46.35.35 0 0 0 .14-.06.51.51 0 0 1 .17 0 3.23 3.23 0 0 1 .76 0 1.16 1.16 0 0 1 .43.18.76.76 0 0 1 .24.3 2.82 2.82 0 0 0 .21.38zm-1.59 1.69h-.14a.42.42 0 0 1-.17.1l-.14.08-.17.09s-.07 0-.12.09a.34.34 0 0 1-.12.12h-.14v.09a3.44 3.44 0 0 0-.36.28 2.57 2.57 0 0 0-.34.4 9.39 9.39 0 0 0-.91 1.09c-.32.45-.62.87-.89 1.27a2.33 2.33 0 0 0-.17.26.77.77 0 0 1-.1.18 1.62 1.62 0 0 1-.1.18c0 .07-.1.15-.16.24a4 4 0 0 0-.6 1.22 2.43 2.43 0 0 0-.24 1.11.37.37 0 0 0 .39.36h.09c.27 0 .68-.38 1.23-1a5 5 0 0 1 .44-.49 2.86 2.86 0 0 0 .42-.5 10 10 0 0 0 .61-.84c.19-.27.39-.6.62-1a5.69 5.69 0 0 0 .79-1.35.36.36 0 0 0 0-.1v-.09a.31.31 0 0 1 .09-.22.32.32 0 0 0 .1-.19.62.62 0 0 1 .17-.25.17.17 0 0 0 .07-.21l.12-.33a3.59 3.59 0 0 0-.12-.47c0-.15-.12-.21-.22-.17zm6.64 1.25zm18.46-5.64a2.77 2.77 0 0 0-.7.47 9.31 9.31 0 0 0-.84.82c-.29.31-.57.65-.84 1a11.86 11.86 0 0 0-.69 1c-.13.21-.26.41-.4.6a2 2 0 0 0-.3.63l-.07.17a4.86 4.86 0 0 0-.33.54l-.25.48c-.08.15-.17.31-.24.48s-.17.36-.26.57-.2.51-.32.77-.22.52-.33.79l-.24.52c-.08.16-.16.35-.24.54-.16.4-.33.8-.49 1.19s-.36.78-.57 1.17a.79.79 0 0 0-.1.27l-.09.22c0 .08-.07.14-.1.21a2.22 2.22 0 0 0-.2.41l-.18.41v.14l-.24.84-.24.87a1.52 1.52 0 0 1-.45.77 1.16 1.16 0 0 1-.78.29l-.42.02h-.39a.71.71 0 0 1-.76-.6.65.65 0 0 1 0-.13.62.62 0 0 1 0-.13 3.21 3.21 0 0 1 0-.93 3.92 3.92 0 0 1 .28-.88c.13-.29.27-.58.43-.86a5 5 0 0 0 .39-.92 6.63 6.63 0 0 1 .36-.87l.49-1.06c.17-.35.32-.71.47-1.08l.24-.53c.08-.17.17-.35.24-.53.17-.37.33-.74.48-1.13s.3-.77.48-1.15c.08-.17.16-.36.23-.53s.15-.36.25-.56a5.72 5.72 0 0 0 .28-.68c.07-.22.15-.45.25-.69s.21-.57.3-.85l.28-.88a2.49 2.49 0 0 0 .16-.53c0-.21.09-.39.13-.53a2.62 2.62 0 0 0 .12-.54 4.41 4.41 0 0 1 .07-.54 1.1 1.1 0 0 0 0-.36 1.32 1.32 0 0 0-.06-.39 1.19 1.19 0 0 0-.15-.35.51.51 0 0 0-.28-.2 1.55 1.55 0 0 0-.74 0 4.41 4.41 0 0 0-1.49.56 2.06 2.06 0 0 0-.41.3c-.17.13-.33.27-.5.42l-.48.43a1.9 1.9 0 0 1-.39.31 2.8 2.8 0 0 0-.52.45c-.15.17-.31.33-.47.49s-.47.55-.7.84a10.3 10.3 0 0 0-.64.9 4.51 4.51 0 0 0-.62 1q-.22.55-.39 1.11a.57.57 0 0 0 0 .18.29.29 0 0 1 0 .16v.09a.61.61 0 0 0 .06.19.36.36 0 0 0 .2.06.52.52 0 0 0 .21 0 .75.75 0 0 0 .18-.08l.3-.14a.23.23 0 0 0 .12-.06.18.18 0 0 0 .08-.07 1 1 0 0 1 .2-.16l.12-.08.2-.15.21-.16a.24.24 0 0 1 .18-.16 1.47 1.47 0 0 1 .28-.14.44.44 0 0 1 .2 0 .6.6 0 0 1 .19.06l.27.12a.46.46 0 0 0 .16.07l.17.05a3.7 3.7 0 0 0 .17.35 1.66 1.66 0 0 1 .14.37.67.67 0 0 1 0 .24 1.2 1.2 0 0 1-.06.2 1.25 1.25 0 0 1-.09.25.32.32 0 0 1-.18.18c-.08.12-.16.22-.24.33a1 1 0 0 1-.29.25 3.81 3.81 0 0 1-.62.43 1.61 1.61 0 0 1-.51.29.94.94 0 0 1-.28.15h-.17a.51.51 0 0 0-.17 0l-.31.09-.6.11a2.86 2.86 0 0 1-.58.06h-.65l-.31-.12-.33-.17a1 1 0 0 1-.32-.34 2.31 2.31 0 0 1-.21-.45.76.76 0 0 1-.09-.18 1.89 1.89 0 0 0-.06-.18 1.72 1.72 0 0 1-.08-.38 2.29 2.29 0 0 1 0-.37 2.38 2.38 0 0 1 .17-1.15.07.07 0 0 0 0-.06.14.14 0 0 1 0-.09 6.51 6.51 0 0 1 .4-.97c.15-.33.31-.67.49-1a9.19 9.19 0 0 1 .6-.93c.22-.31.45-.61.67-.89a6.51 6.51 0 0 1 .49-.62l.62-.71c.22-.24.44-.46.65-.67l.57-.53a2.37 2.37 0 0 1 .29-.25l.33-.25c.38-.29.77-.57 1.17-.82a11.38 11.38 0 0 1 1.24-.67c.26-.1.52-.18.78-.26a7.44 7.44 0 0 1 .78-.2 3.09 3.09 0 0 1 2.2.6 3 3 0 0 1 1.06 1.86 2.6 2.6 0 0 1 0 .4v.62c0 .21 0 .46-.07.69l-.06.57a1.1 1.1 0 0 0 .21-.22c.13-.16.27-.32.41-.51l.41-.5.22-.25c.14-.14.28-.27.4-.37s.27-.22.41-.35a4 4 0 0 1 .66-.44 5.57 5.57 0 0 1 .77-.3 3.26 3.26 0 0 1 .76-.12 1.62 1.62 0 0 1 .65.11 3.6 3.6 0 0 1 .72.39 1.62 1.62 0 0 0 .1.18 1.21 1.21 0 0 1 .09.2 1.2 1.2 0 0 1 .17.48 1.33 1.33 0 0 1 .07.48 3.93 3.93 0 0 1 0 .46v.77a2 2 0 0 1 0 .34l-.14.74a.55.55 0 0 0 .18-.16.86.86 0 0 1 .18-.2l.35-.43c.12-.14.24-.29.37-.43a9.83 9.83 0 0 1 1.38-1.28c.49-.37 1-.72 1.51-1.06a2.39 2.39 0 0 1 .58-.28c.2-.06.4-.14.6-.22a8.09 8.09 0 0 1 1.1 0 2 2 0 0 1 .94.23l.33.2a2.13 2.13 0 0 1 .3.3l.27.3a.59.59 0 0 1 .16.38 1.58 1.58 0 0 0 .06.23.85.85 0 0 1 0 .23 1.53 1.53 0 0 1-.1.79 7.41 7.41 0 0 0-.28.79 2.63 2.63 0 0 1-.5.95 3.84 3.84 0 0 0-.56.93 11.68 11.68 0 0 1-.72 1.41q-.41.69-.75 1.38l-.22.46c0 .1-.09.2-.13.29l-.13.29-.22.47c-.11.25-.2.45-.26.57l-.17.35c0 .11-.09.22-.14.35l-.22.58c-.13.34-.26.64-.39.91a5.47 5.47 0 0 0-.4 1.18c-.07.24-.13.49-.19.74a3.9 3.9 0 0 0-.12.75l.07.31a.27.27 0 0 0 .29.22 1.61 1.61 0 0 0 .38 0l.36-.11a4.68 4.68 0 0 0 .92-.53 7.79 7.79 0 0 0 .79-.63 9.93 9.93 0 0 0 1-1.15c.27-.37.57-.81.89-1.33a5.86 5.86 0 0 1 .37-.5l.4-.48a.66.66 0 0 1 .12-.17c.06-.06.12 0 .17.07l.55-.62a.5.5 0 0 1 .17 0 1.07 1.07 0 0 1 .07.39l.17-.06a1.07 1.07 0 0 0 .19-.18l-.07.38a.14.14 0 0 1 0 .06.15.15 0 0 0 0 .09.5.5 0 0 1 0 .27 1.22 1.22 0 0 0-.06.26.5.5 0 0 1 0 .12l-.06.1-.06.09a1.43 1.43 0 0 1-.09.41 2.08 2.08 0 0 1-.2.36c-.08.13-.15.26-.23.38l-.22.37-.71 1a7.52 7.52 0 0 1-.76.93l-.48.52-.5.51a4.7 4.7 0 0 1-1.07.92 7.71 7.71 0 0 1-1.36.65l-.57.17a2 2 0 0 1-.87.08 6.72 6.72 0 0 1-.87-.18 1.07 1.07 0 0 1-.45-.26 2.6 2.6 0 0 1-.36-.46 3 3 0 0 1-.39-1.81 8.89 8.89 0 0 1 .3-1.45c.12-.38.25-.79.38-1.24.06-.23.12-.44.19-.64a5.78 5.78 0 0 1 .24-.64 4 4 0 0 1 .16-.53c0-.1.07-.19.11-.29l.15-.27c.05-.11.13-.27.23-.5s.19-.43.25-.59l.16-.41a2.2 2.2 0 0 1 .18-.39c.07-.15.16-.34.3-.58s.33-.65.46-.93.28-.55.41-.83.28-.56.44-.84.33-.62.54-1a2.57 2.57 0 0 0 .2-.35c.06-.1.13-.22.23-.37a.77.77 0 0 0 .14-.44.15.15 0 0 0-.16-.14 1.38 1.38 0 0 0-.39.09 4.89 4.89 0 0 0-.48.2l-.43.25a2.65 2.65 0 0 0-.26.21c-.33.27-.62.53-.88.77a6.85 6.85 0 0 0-.81.89 8.16 8.16 0 0 0-.81 1c-.21.33-.44.66-.7 1a6.65 6.65 0 0 0-.39.63 4.67 4.67 0 0 1-.38.6 4.89 4.89 0 0 0-.42.69c-.12.23-.24.46-.38.68-.38.71-.74 1.41-1.08 2.12s-.66 1.43-1 2.17l-.65 1.47a1.37 1.37 0 0 0-.16.32c0 .12-.08.25-.11.38a2.1 2.1 0 0 1-.57.86.58.58 0 0 0-.17.14.45.45 0 0 1-.19.11.86.86 0 0 0-.23.06l-.23.06a1 1 0 0 1-1.1-.41 2.48 2.48 0 0 1-.25-.77 1.81 1.81 0 0 1 .08-.77 4.15 4.15 0 0 1 .14-.61c.06-.19.14-.38.22-.57a2.4 2.4 0 0 1 .12-.38c.05-.12.09-.24.14-.37a6.35 6.35 0 0 1 .28-.67 6 6 0 0 0 .27-.7l.73-1.8a5.45 5.45 0 0 1 .26-.62 5.93 5.93 0 0 0 .26-.63c.28-.63.53-1.24.77-1.84s.47-1.24.67-1.89c.13-.37.25-.72.38-1a9.61 9.61 0 0 0 .32-1.08 1 1 0 0 0 0-.3.5.5 0 0 0-.08-.26.37.37 0 0 0-.22-.12.7.7 0 0 0-.33.11z"/><path class="a" d="M122.21 29.16a6 6 0 0 0-.42 1.14 3.93 3.93 0 0 0-.19 1.12 2.59 2.59 0 0 0 .1.63.36.36 0 0 0 .27.26 2 2 0 0 0 .4.1h.4a1.51 1.51 0 0 0 .42 0 9.94 9.94 0 0 0 2-1.11 7.72 7.72 0 0 0 1-.83l1-1q.47-.49.87-1c.28-.34.51-.63.72-.87a2.2 2.2 0 0 0 .2-.23c.07-.1.16-.21.25-.32l.25-.33.19-.27.16-.18a.21.21 0 0 1 .2 0 .2.2 0 0 1 0-.11l.06-.08h.08a.27.27 0 0 0 .2 0l.07.05a.55.55 0 0 1 .22-.1c.11 0 .18 0 .21.17a.05.05 0 0 0 0 .05.37.37 0 0 1 .05.11.13.13 0 0 1 0 .13h.14l-.48 1h.05c.05 0 0 0 0 .07a3 3 0 0 1-.43.79 23 23 0 0 1-1.54 2 16.49 16.49 0 0 1-1.91 1.92 11.46 11.46 0 0 1-2.12 1.47 5.28 5.28 0 0 1-2.19.64h-.6a3.38 3.38 0 0 1-.63-.07 2.7 2.7 0 0 1-.57-.18 1.58 1.58 0 0 1-.48-.33 2.08 2.08 0 0 1-.37-.41 2.69 2.69 0 0 1-.28-.5.36.36 0 0 1-.06-.2.48.48 0 0 0-.06-.18 1.94 1.94 0 0 1-.12-.58 3 3 0 0 1 0-.6 1.29 1.29 0 0 0 0-.44v-.37c0-.12 0-.25.07-.37a2 2 0 0 0 .08-.33 1.14 1.14 0 0 1 .07-.32l.33-1.2c.31-.69.64-1.36 1-2a11.07 11.07 0 0 1 1.24-1.8 8.25 8.25 0 0 1 1.5-1.39 5.13 5.13 0 0 1 1.83-.82 2.74 2.74 0 0 1 .64 0 .92.92 0 0 1 .54.24.68.68 0 0 1 .31.27 1.64 1.64 0 0 1 .41.94 2.05 2.05 0 0 1 0 .55c0 .2-.06.4-.1.6a.3.3 0 0 0-.1.2 11.92 11.92 0 0 1-.96 2.4 7.08 7.08 0 0 1-1.91 1.87 1.81 1.81 0 0 1-.54.22 2.24 2.24 0 0 1-.73 0h-.08v-.06a.38.38 0 0 1-.25-.16.68.68 0 0 0-.23-.18zm.62-1.59a.39.39 0 0 1 0 .11.23.23 0 0 1 .06.07h.05a.09.09 0 0 1 .07 0h.12a2.68 2.68 0 0 0 1.23-.92c.32-.43.61-.86.86-1.27a1.17 1.17 0 0 0 .16-.34 1.08 1.08 0 0 1 .13-.29.45.45 0 0 0 0-.16.71.71 0 0 0 0-.2.2.2 0 0 0-.12-.12.42.42 0 0 0-.26-.01l-.41.28c-.12.1-.23.21-.34.32-.27.29-.46.51-.57.65l-.27.35-.18.28a3.55 3.55 0 0 1-.3.43.32.32 0 0 0-.1.18.51.51 0 0 1-.09.18.68.68 0 0 1 0 .14.2.2 0 0 0 0 .15s-.04.13-.04.17zm7.62-1.52z"/><path class="a" d="M133.41 26.3l-.31.31-.42.47a6.25 6.25 0 0 0-.4.5l-.29.36a6.73 6.73 0 0 0-.65.93 8.68 8.68 0 0 0-.48.9 1.52 1.52 0 0 0-.23.48 2 2 0 0 1-.18.46 1.63 1.63 0 0 0-.08.19l-.07.18a1.58 1.58 0 0 0-.15.24.87.87 0 0 0-.02.12c0 .05 0 .11-.05.18s0 .17-.07.28a1.69 1.69 0 0 0-.23.49 5.29 5.29 0 0 0-.13.54c0 .13-.07.21-.11.23s-.06.11-.06.25-.06.2-.1.2a.26.26 0 0 0-.14.09.31.31 0 0 0-.16.24c0 .08 0 .14-.15.17a2.4 2.4 0 0 1-.8.14.77.77 0 0 1-.64-.33c0-.08-.07-.14 0-.17s0-.09-.1-.17a1.47 1.47 0 0 1-.1-.22.5.5 0 0 1 0-.21.92.92 0 0 0 0-.33.19.19 0 0 1 0-.13.41.41 0 0 0 .08-.19 2.93 2.93 0 0 1 .13-.51l.18-.52.72-2.1c.17-.45.29-.83.39-1.14l.26-.89.26-.88c.1-.3.23-.67.39-1.1.08-.2.15-.4.23-.62s.13-.43.18-.64a4.42 4.42 0 0 1 .2-.48 1.33 1.33 0 0 0 .13-.43 1.24 1.24 0 0 1 .72-.75.77.77 0 0 1 .3 0h.33a1 1 0 0 1 .89 1 1.43 1.43 0 0 1-.09.27c-.05.17-.12.36-.19.56l-.19.55a2.29 2.29 0 0 0-.08.28 2.23 2.23 0 0 0-.08.24c0 .05 0 .11-.05.17a.14.14 0 0 0 0 .07l.09-.07.04-.07.13-.18.08-.11q.23-.29.51-.6a8 8 0 0 1 .57-.59c.2-.19.38-.35.55-.49a3.28 3.28 0 0 1 .44-.32l.59-.35a1.73 1.73 0 0 1 .32-.11l.31-.07a1.08 1.08 0 0 1 .36 0l.5.09a.69.69 0 0 1 .42.2 4.23 4.23 0 0 1 .44.51 1.37 1.37 0 0 1 .25.67v.35a3.24 3.24 0 0 1-.28 1.15c-.16.34-.32.64-.46.9s-.3.51-.41.71a5.38 5.38 0 0 0-.31.64c-.29.56-.56 1.11-.82 1.67a13.27 13.27 0 0 0-.7 2 3 3 0 0 0-.07.32.51.51 0 0 0 0 .3.2.2 0 0 0 .18.15.82.82 0 0 0 .42-.15 2 2 0 0 0 .4-.31 6.62 6.62 0 0 0 .53-.53l.51-.55.34-.41 1.2-1.46c.09-.15.21-.32.36-.52l.43-.62c.14-.22.29-.43.43-.64a5.1 5.1 0 0 0 .36-.56 2.42 2.42 0 0 1 .25-.31 1.93 1.93 0 0 1 .38-.19.31.31 0 0 1-.06.19.37.37 0 0 0-.09.19h.15a.06.06 0 0 0 .08 0 .17.17 0 0 1 .06-.1l.1-.11.14-.11s.06.07 0 .11a.07.07 0 0 0 0 .1h.33a.25.25 0 0 0 .22.21v.12l.07.12a.12.12 0 0 1 0 .16.57.57 0 0 0-.18.12.22.22 0 0 0 0 .16.47.47 0 0 1 .06.15.13.13 0 0 1 0 .12l-.05.12a2.86 2.86 0 0 1-.24.42l-.35.52-.35.5a4.11 4.11 0 0 0-.24.39.64.64 0 0 1-.08.14l-.09.12a6.34 6.34 0 0 1-.51.73c-.19.22-.36.44-.52.65s-.49.62-.75.91-.53.57-.81.84a.29.29 0 0 0-.15.09.22.22 0 0 1-.09.18l-.17.09a.2.2 0 0 0-.12.08.52.52 0 0 1-.1.11 5 5 0 0 1-.47.33l-.49.34a1.94 1.94 0 0 1-.3.13 2.59 2.59 0 0 1-.4.09h-.41a1.84 1.84 0 0 1-.33 0 3.31 3.31 0 0 1-.55 0 .92.92 0 0 1-.49-.25l-.26-.21a.92.92 0 0 1-.39-.48 3.56 3.56 0 0 1-.14-.63 2.8 2.8 0 0 1 0-1.08 6.1 6.1 0 0 1 .22-1c.11-.33.23-.66.35-1a15.35 15.35 0 0 1 .71-1.78 11.26 11.26 0 0 1 .9-1.54 4.45 4.45 0 0 0 .35-.64c.09-.2.11-.33 0-.38s-.21 0-.46.16a6.9 6.9 0 0 0-1.03.89z"/><path class="a" d="M141.07 29.16a7.79 7.79 0 0 0-.42 1.14 4.29 4.29 0 0 0-.18 1.12 1.89 1.89 0 0 0 .1.63.35.35 0 0 0 .26.26 2 2 0 0 0 .41.1h.4a1.51 1.51 0 0 0 .42 0 9.94 9.94 0 0 0 2-1.11 7.81 7.81 0 0 0 1-.83c.33-.34.65-.67 1-1s.61-.67.88-1 .51-.63.72-.87a2.11 2.11 0 0 0 .19-.23l.25-.32.25-.33.2-.27.15-.18a.23.23 0 0 1 .21 0 .36.36 0 0 1 0-.11.16.16 0 0 1 .06-.08h.08a.25.25 0 0 0 .19 0l.07.05a.62.62 0 0 1 .22-.1c.11 0 .19 0 .22.17a.08.08 0 0 0 0 .05l.05.11a.16.16 0 0 1 0 .13h.15l-.48 1v.07a3.36 3.36 0 0 1-.34.88c-.44.63-.95 1.29-1.54 2a17.4 17.4 0 0 1-1.92 1.92 11.53 11.53 0 0 1-2.13 1.47 5.24 5.24 0 0 1-2.19.64h-.6a3.18 3.18 0 0 1-.62-.07 3 3 0 0 1-.58-.18 1.58 1.58 0 0 1-.48-.33 2 2 0 0 1-.36-.41 2.72 2.72 0 0 1-.29-.5.66.66 0 0 1-.06-.2.28.28 0 0 0-.06-.18 2.85 2.85 0 0 1-.12-.58v-.6a1.3 1.3 0 0 0 0-.44c0-.12 0-.25.05-.37s0-.25.07-.37a1.94 1.94 0 0 0 .07-.33 1.67 1.67 0 0 1 .08-.32l.33-1.2c.3-.69.64-1.36 1-2a12.49 12.49 0 0 1 1.24-1.8 8.31 8.31 0 0 1 1.51-1.39 5.13 5.13 0 0 1 1.83-.82 2.66 2.66 0 0 1 .63 0 .87.87 0 0 1 .54.24.76.76 0 0 1 .32.27 2.34 2.34 0 0 1 .45 1.49q0 .3-.09.6a.26.26 0 0 0-.1.2 11.92 11.92 0 0 1-1.21 2.39 7.38 7.38 0 0 1-1.91 1.87 1.76 1.76 0 0 1-.55.22 2.23 2.23 0 0 1-.73 0h-.07v-.06a.38.38 0 0 1-.25-.16.68.68 0 0 0-.23-.18zm.63-1.59v.11c0 .01 0 0 0 0l.06.07h.05a.08.08 0 0 1 .07 0h.07a2.68 2.68 0 0 0 1.23-.92c.32-.43.6-.86.86-1.27a1.5 1.5 0 0 0 .16-.34.84.84 0 0 1 .13-.29.44.44 0 0 0 0-.16.69.69 0 0 0 0-.2.23.23 0 0 0-.12-.12.47.47 0 0 0-.26.05l-.4.28a2.61 2.61 0 0 0-.34.32c-.27.29-.46.51-.58.65l-.26.35a1.67 1.67 0 0 0-.18.28c-.06.09-.16.24-.3.43a.29.29 0 0 0-.11.18.37.37 0 0 1-.08.18.35.35 0 0 1 0 .14.38.38 0 0 0 0 .15.37.37 0 0 0 0 .11zm7.62-1.52z"/><path class="b" d="M79.38 14.65l.09-.6c0-.19 0-.43.1-.72s.14-.6.23-1 .23-.75.36-1.17.35-.87.54-1.36a17.62 17.62 0 0 1 1.8-3 17.21 17.21 0 0 1 2.88-3 16.75 16.75 0 0 1 4-2.46l.56-.24.59-.21.6-.21.61-.16a8.81 8.81 0 0 1 2.6-.39 4.65 4.65 0 0 1 2.79.83l.15.12.15.13a3.71 3.71 0 0 1 .73.94 4.24 4.24 0 0 1 .49 1.44 5.09 5.09 0 0 1-.39 2.85 7.92 7.92 0 0 1-1.59 2.25c-.31.31-.64.61-1 .89l-.5.39-.52.37a16.71 16.71 0 0 1-2.17 1.25 13.07 13.07 0 0 1-2.28.87 4.3 4.3 0 0 1-2.54 0 2.62 2.62 0 0 1-.9-.52 2.29 2.29 0 0 1-.21-.23 2.41 2.41 0 0 1-.56-1.17 3.36 3.36 0 0 1 .34-2.24 4.7 4.7 0 0 1 1.29-1.48 10.07 10.07 0 0 1 1.42-.91 12.83 12.83 0 0 1 2.45-1.1 6.12 6.12 0 0 1 1.7-.29h.61l-.6.06a6.76 6.76 0 0 0-1.6.5 14.89 14.89 0 0 0-2.25 1.32 6 6 0 0 0-2.22 2.38 2.42 2.42 0 0 0-.13 1.59 1.51 1.51 0 0 0 .35.66l.16.15.14.09a1.14 1.14 0 0 0 .36.15c1.06.29 2.52-.37 3.85-1a15.68 15.68 0 0 0 1.97-1.24l.46-.35.45-.39c.29-.24.57-.51.84-.78a4.56 4.56 0 0 0 1.55-3.83 3.07 3.07 0 0 0-.3-.93 2.65 2.65 0 0 0-.26-.39 1.29 1.29 0 0 0-.17-.16l-.06-.06-.09-.07a3.16 3.16 0 0 0-1.9-.55 8.51 8.51 0 0 0-2.24.3l-.56.12-.55.17-.58.18-.53.21a17.91 17.91 0 0 0-3.76 2.06 18.37 18.37 0 0 0-2.94 2.73 18.63 18.63 0 0 0-2 2.72 20.36 20.36 0 0 0-1.06 2.28l-.34.91c-.08.27-.14.5-.2.69z"/><path class="b" d="M89.29 12.05h.14l.41-.12c.35-.1.86-.3 1.5-.55 1.29-.52 3.1-1.31 5.3-2.24s4.77-2 7.61-2.95a42.9 42.9 0 0 1 4.46-1.29 19.92 19.92 0 0 1 2.42-.46c.41 0 .83-.06 1.26-.07s.82 0 1.24 0a7.67 7.67 0 0 1 2.55.56 4.65 4.65 0 0 1 2.12 1.85 3.31 3.31 0 0 1 .31.66c0 .13.08.25.11.37v.35a4.05 4.05 0 0 1-.1 1.43 4.8 4.8 0 0 1-1.34 2.26 7.75 7.75 0 0 1-2 1.35 14.71 14.71 0 0 1-2 .84 19.4 19.4 0 0 1-2 .56 5.6 5.6 0 0 1-2 .07 2.47 2.47 0 0 1-1.74-1 1.92 1.92 0 0 1-.21-.46v-.22a2.45 2.45 0 0 1 0-.27 1.9 1.9 0 0 1 .21-.88 2.54 2.54 0 0 1 1-1.09 3.18 3.18 0 0 1 1.19-.31 6 6 0 0 1 1.64.11l.56.11h-.57a6.94 6.94 0 0 0-1.57.13 2.24 2.24 0 0 0-1.66 1.32 1.14 1.14 0 0 0 .15 1.11 1.58 1.58 0 0 0 1.18.52 4.77 4.77 0 0 0 1.64-.2 18.42 18.42 0 0 0 1.81-.63 10.35 10.35 0 0 0 3.4-2 3.56 3.56 0 0 0 .91-1.6 2.26 2.26 0 0 0 0-.86v-.26a.82.82 0 0 0-.06-.19 2.09 2.09 0 0 0-.19-.4 3.24 3.24 0 0 0-1.4-1.16 6.13 6.13 0 0 0-2.06-.48h-1.14a10.24 10.24 0 0 0-1.1 0 21.4 21.4 0 0 0-2.25.33c-1.5.29-3 .7-4.38 1.11s-2.78.84-4.07 1.27l-3.64 1.19c-2.25.75-4.15 1.37-5.49 1.73a13.51 13.51 0 0 1-2.15.46z"/><path class="b" d="M97 12.29s.21-.17.59-.43c.19-.14.42-.29.7-.46s.58-.37.94-.56a22.07 22.07 0 0 1 2.45-1.18c.46-.18.94-.39 1.43-.55l1.52-.48c.51-.13 1-.27 1.54-.38l1.51-.28a24.62 24.62 0 0 1 2.71-.27h1.93l.73.05s-.26.07-.72.16l-1.86.38-1.24.26-1.37.31c-.94.23-2 .48-3 .76-.5.15-1 .28-1.48.44l-1.43.45-1.34.45-1.19.41-1.78.67zm-30.36 2.36l-.17-.58c-.06-.19-.12-.43-.21-.7l-.33-.93a20.22 20.22 0 0 0-1.14-2.34 18.31 18.31 0 0 0-4.86-5.4 18 18 0 0 0-3.8-2.09l-.54-.17-.55-.16-.54-.17-.57-.17a9.37 9.37 0 0 0-2.24-.3 3.14 3.14 0 0 0-1.89.56l-.1.07v.05a1.37 1.37 0 0 0-.17.17 1.85 1.85 0 0 0-.25.37 3.07 3.07 0 0 0-.3.93 4.55 4.55 0 0 0 1.54 3.84 7.76 7.76 0 0 0 .84.78l.45.38c.15.12.3.24.46.35a15.68 15.68 0 0 0 1.86 1.24c1.33.66 2.78 1.31 3.85 1a1.94 1.94 0 0 0 .36-.15.85.85 0 0 0 .14-.1 1.07 1.07 0 0 0 .16-.14 1.51 1.51 0 0 0 .35-.66 2.42 2.42 0 0 0-.13-1.59 6 6 0 0 0-2.21-2.28 14.1 14.1 0 0 0-2.25-1.32 6.46 6.46 0 0 0-1.6-.5q-.3 0-.6-.06h.61a6.12 6.12 0 0 1 1.7.29 12.92 12.92 0 0 1 2.46 1.1 10.94 10.94 0 0 1 1.41.91 4.81 4.81 0 0 1 1.29 1.48 3.45 3.45 0 0 1 .34 2.23 2.5 2.5 0 0 1-.56 1.17 2.39 2.39 0 0 1-.22.23 2.62 2.62 0 0 1-.9.52 4.38 4.38 0 0 1-2.54 0 13.28 13.28 0 0 1-2.27-.87 16.07 16.07 0 0 1-2.17-1.25l-.52-.37-.5-.39c-.34-.28-.67-.58-1-.89a7.89 7.89 0 0 1-1.56-2.3 5 5 0 0 1-.42-2.88 4.24 4.24 0 0 1 .49-1.44 3.71 3.71 0 0 1 .73-.94l.15-.13.15-.12a4.65 4.65 0 0 1 2.81-.82 8.81 8.81 0 0 1 2.6.39l.62.17.59.2.59.21.56.26a16.75 16.75 0 0 1 4 2.46 17.21 17.21 0 0 1 2.88 3 17.62 17.62 0 0 1 1.8 3c.19.49.41.92.54 1.35s.28.82.36 1.17.16.69.23 1 .07.52.1.72c.05.4.09.61.09.61z"/><path class="b" d="M56.73 12.05a14 14 0 0 1-2.14-.45c-1.34-.37-3.24-1-5.5-1.74l-3.64-1.2c-1.29-.43-2.65-.87-4.07-1.28S38.5 6.57 37 6.27c-.74-.14-1.5-.25-2.24-.33h-2.25a6.31 6.31 0 0 0-2.05.5 3.27 3.27 0 0 0-1.41 1.19 2.69 2.69 0 0 0-.19.38c0 .07 0 .15-.05.2v.23a2.48 2.48 0 0 0 .06.86 3.6 3.6 0 0 0 .9 1.6 10.63 10.63 0 0 0 3.4 2c.6.24 1.2.45 1.81.63a4.8 4.8 0 0 0 1.64.2 1.6 1.6 0 0 0 1.19-.52 1.14 1.14 0 0 0 .15-1.11 2.26 2.26 0 0 0-1.67-1.36 7.61 7.61 0 0 0-1.58-.14h-.57l.56-.11a6 6 0 0 1 1.59-.05 3 3 0 0 1 1.18.35 2.54 2.54 0 0 1 1 1.09 2 2 0 0 1 .22.88 2.48 2.48 0 0 1 0 .27.82.82 0 0 1 0 .22 1.57 1.57 0 0 1-.2.46 2.47 2.47 0 0 1-1.74 1 5.38 5.38 0 0 1-2-.07 17.14 17.14 0 0 1-2-.56 16 16 0 0 1-2-.83 8.11 8.11 0 0 1-2-1.36 4.77 4.77 0 0 1-1.35-2.26 3.82 3.82 0 0 1-.09-1.43v-.34a2.74 2.74 0 0 1 .11-.42 3.39 3.39 0 0 1 .31-.67 4.63 4.63 0 0 1 2.12-1.84 7.5 7.5 0 0 1 2.55-.49h1.24c.4 0 .85 0 1.26.07a21.7 21.7 0 0 1 2.41.43 45.46 45.46 0 0 1 4.46 1.2c2.85 1 5.42 2 7.61 3s4 1.72 5.3 2.24c.64.25 1.15.45 1.5.55l.41.12z"/><path class="b" d="M49.02 12.29l-.69-.25-1.78-.66-1.2-.41-1.34-.45-1.43-.45c-.48-.17-1-.29-1.48-.43-1-.29-2-.53-2.95-.77-.48-.09-.93-.22-1.37-.31l-1.24-.26-1.85-.38-.71-.15.72-.06h1.93a24.62 24.62 0 0 1 2.71.27c.49.09 1 .16 1.5.28l1.55.38c.5.16 1 .31 1.5.48l1.44.55a24 24 0 0 1 2.45 1.18c.35.19.67.38.94.56l.7.46z"/><path class="a" d="M72.97 6.98a.26.26 0 0 1-.25-.26V4.31a.25.25 0 0 1 .29-.21.27.27 0 0 1 .21.21v2.41a.26.26 0 0 1-.25.26z"/><path class="a" d="M72.96 7.07s-.17 0-.17-.25V4.44c0-.24.13-.25.17-.25s.17-.02.17.25v2.38c0 .23-.13.25-.17.25z"/><path class="a" d="M71.64 2.97a.3.3 0 0 1 .12.17l1.37 3.51a.28.28 0 0 1-.13.38.28.28 0 0 1-.35-.19l-1.36-3.5a.34.34 0 0 1 0-.2.23.23 0 0 1 .27-.19h.08z"/><path class="a" d="M72.96 7.27a.46.46 0 0 1 0-.91.46.46 0 0 1 .46.46.46.46 0 0 1-.46.45zm0-.62a.17.17 0 0 0 0 .34.17.17 0 0 0 0-.34z"/><path class="a" d="M72.96 7.16a.33.33 0 0 1-.35-.33.35.35 0 0 1 .33-.39.36.36 0 0 1 .36.34.34.34 0 0 1-.34.38zm0-.4a.06.06 0 0 0 0 .06v.06c0 .06.06 0 .06 0a.067.067 0 0 0-.06-.12z"/><path class="a" d="M79.74 6.36a6.65 6.65 0 0 0-1.73-4.14c-.17-.18-.34-.36-.53-.53A6.7 6.7 0 0 0 73.4.02h-.38a3.7 3.7 0 0 0-.47 0 6.64 6.64 0 0 0-3.86 1.56c-.17.15-.34.3-.49.45a6.68 6.68 0 0 0-1.91 4.41v.72a6.7 6.7 0 0 0 1.84 4.18c.17.17.33.34.51.5a6.69 6.69 0 0 0 4.1 1.65h.56a6.67 6.67 0 0 0 4.39-1.84 6.32 6.32 0 0 0 .56-.6 6.75 6.75 0 0 0 1.54-3.93v-.36c0-.12-.04-.27-.05-.4zm-1 .91a5.74 5.74 0 0 1-5.2 5.17 4.61 4.61 0 0 1-.53 0h-.6a5.75 5.75 0 0 1-5.11-5.15 5.07 5.07 0 0 1 0-.55 4.75 4.75 0 0 1 0-.54 5.67 5.67 0 0 1 1.44-3.28 4.81 4.81 0 0 1 .81-.75 5.62 5.62 0 0 1 2.91-1.15 5 5 0 0 1 .55 0 3.93 3.93 0 0 1 .49 0 5.61 5.61 0 0 1 3.14 1.28 5.46 5.46 0 0 1 .77.75 5.76 5.76 0 0 1 1.31 3.13 5.25 5.25 0 0 1 0 .56 4.58 4.58 0 0 1 0 .53z"/><path class="a" d="M73.54 12.44a.59.59 0 0 0-1.13 0 .88.88 0 0 0 0 .16v.36a.58.58 0 0 0 .3.5h.56a.56.56 0 0 0 .3-.5v-.37a.76.76 0 0 0-.03-.15zm-.57.6a.49.49 0 0 1-.4-.26.44.44 0 0 1 .58-.22.4.4 0 0 1 .22.22.46.46 0 0 1-.4.28zM73.4.01h-.39a3.54 3.54 0 0 0-.46 0 .59.59 0 0 0-.16.39v.36a.58.58 0 0 0 .58.58.56.56 0 0 0 .52-.33.37.37 0 0 0 .06-.25V.44a.59.59 0 0 0-.15-.43zm-.43.33a.43.43 0 0 1 .4.26.44.44 0 0 1-.58.22.58.58 0 0 1-.22-.22.44.44 0 0 1 .4-.26zm6.77 6.02a.58.58 0 0 0-.41-.17h-.4a.52.52 0 0 0-.21 0 .63.63 0 0 0-.2.13.58.58 0 0 0-.17.41.55.55 0 0 0 .17.41.66.66 0 0 0 .2.14.76.76 0 0 0 .21 0h.36a.62.62 0 0 0 .41-.16v-.36c0-.12.05-.27.04-.4zm-.5.67a.14.14 0 0 1-.26 0 .44.44 0 0 1 0-.62.14.14 0 0 1 .26 0 .44.44 0 0 1 0 .62zm-11.73-.69a.57.57 0 0 0-.21-.13.48.48 0 0 0-.2 0h-.37a.58.58 0 0 0-.45.22v.73a.61.61 0 0 0 .46.21h.39a.64.64 0 0 0 .2 0 .61.61 0 0 0 .38-.55.58.58 0 0 0-.2-.48zm-.59.81a.44.44 0 0 1-.23-.57.42.42 0 0 1 .09-.14.67.67 0 0 1 .14-.09.44.44 0 0 1 .22.58.47.47 0 0 1-.22.22zm11.11 3.49l-.25-.26a.49.49 0 0 0-.23-.14.56.56 0 0 0-.59.14.58.58 0 0 0 0 .82l.25.26a.62.62 0 0 0 .41.16 6.28 6.28 0 0 0 .56-.59.57.57 0 0 0-.15-.39zm-.35.47a.45.45 0 0 1-.47.1.46.46 0 0 1 .09-.46l.37.35-.36-.36a.46.46 0 0 1 .47-.1.45.45 0 0 1 0 .16.44.44 0 0 1-.1.31zm-8.13-8.93a.66.66 0 0 0-.12-.17l-.3-.25a.53.53 0 0 0-.49-.17c-.17.14-.33.29-.49.45a.49.49 0 0 0 0 .12.57.57 0 0 0 .17.41l.26.25a.41.41 0 0 0 .13.1.58.58 0 0 0 .89-.48.79.79 0 0 0-.05-.26zm-.94.39a.45.45 0 0 1 .26-.57h.15a.41.41 0 0 1 .16 0 .45.45 0 0 1 0 .16.44.44 0 0 1-.05.28.45.45 0 0 1-.52.13zm9.4-.34a6.75 6.75 0 0 0-.53-.54.6.6 0 0 0-.46.17l-.25.26a.58.58 0 0 0 0 .81.56.56 0 0 0 .4.17.59.59 0 0 0 .23 0 .62.62 0 0 0 .19-.12l.24-.26a.56.56 0 0 0 .17-.4.07.07 0 0 0 .01-.09zm-.42.45a.42.42 0 0 1-.56-.24.47.47 0 0 1 0-.31.45.45 0 0 1 .47.09l-.37.36.38-.35a.44.44 0 0 1 .11.29.41.41 0 0 1-.03.16zm-8.27 7.9a.59.59 0 0 0-.42-.17.5.5 0 0 0-.24.06.52.52 0 0 0-.17.12l-.25.25a.59.59 0 0 0-.17.42v.07l.51.51h.07a.59.59 0 0 0 .42-.17l.25-.26a.5.5 0 0 0 .11-.17.59.59 0 0 0 0-.23.56.56 0 0 0-.11-.43zm-.25.82a.43.43 0 0 1-.47-.09.45.45 0 0 1-.1-.47h.15a.48.48 0 0 1 .32.13l-.36.36.37-.35a.44.44 0 0 1 .09.46z"/></svg>