<svg fill="none" xmlns="http://www.w3.org/2000/svg" viewBox="0 0 14 15" width="14" height="15"><path d="M7.09 4.67a2.6 2.6 0 100 5.2 2.6 2.6 0 000-5.2zm0 4.3a1.7 1.7 0 110-3.39 1.7 1.7 0 010 3.38zM9.8 5.18a.6.6 0 100-1.21.6.6 0 000 1.21z" fill="#fff"/><path d="M11.9 3.95a2.6 2.6 0 00-1.49-1.48c-.39-.15-.8-.23-1.23-.23-.54-.03-.71-.03-2.09-.03-1.37 0-1.55 0-2.09.03-.42 0-.83.08-1.23.23A2.6 2.6 0 002.3 3.95c-.15.4-.23.82-.24 1.24-.02.54-.03.71-.03 2.09 0 1.37 0 1.55.03 2.09.01.42.1.83.24 1.23.26.68.8 1.22 1.48 1.48.4.15.81.24 1.23.25.55.03.72.04 2.1.04 1.37 0 1.55 0 2.08-.04.42 0 .84-.08 1.24-.23a2.6 2.6 0 001.48-1.48c.15-.4.23-.81.23-1.24.03-.54.04-.71.04-2.09 0-1.37 0-1.55-.04-2.09 0-.42-.08-.85-.23-1.25zm-.69 5.37c0 .33-.06.65-.17.96-.18.44-.53.79-.97.96-.3.11-.62.17-.94.17-.53.03-.69.04-2.06.04s-1.51 0-2.06-.04a2.8 2.8 0 01-.94-.17c-.44-.17-.8-.52-.97-.96-.1-.3-.17-.62-.17-.94-.02-.54-.03-.7-.03-2.06 0-1.38 0-1.52.03-2.06 0-.33.06-.65.17-.95.18-.45.53-.8.97-.97.3-.1.62-.17.94-.17.54-.03.69-.03 2.06-.03 1.38 0 1.52 0 2.06.03.32 0 .64.06.94.17.44.17.8.52.97.97.1.3.17.62.17.94.03.53.03.68.03 2.06 0 1.37 0 1.52-.02 2.06z" fill="#fff"/></svg>