<svg width="25" height="25" viewBox="0 0 25 25" fill="none" xmlns="http://www.w3.org/2000/svg">
<path d="M12.5 0C9.1241 0 6.37756 2.74653 6.37756 6.12246C6.37756 9.49839 9.1241 12.2449 12.5 12.2449C15.876 12.2449 18.6225 9.49834 18.6225 6.12241C18.6225 2.74648 15.876 0 12.5 0ZM12.5 10.7143C9.96809 10.7143 7.90818 8.65439 7.90818 6.12246C7.90818 3.59053 9.96809 1.53062 12.5 1.53062C15.032 1.53062 17.0919 3.59053 17.0919 6.12246C17.0919 8.65439 15.032 10.7143 12.5 10.7143Z" fill="white"/>
<path d="M12.5 13.7755C6.73283 13.7755 2.04083 18.4675 2.04083 24.2347V25H22.9592V24.2347C22.9592 18.4675 18.2672 13.7755 12.5 13.7755ZM3.60392 23.4694C3.99342 18.9031 7.83459 15.3061 12.5 15.3061C17.1655 15.3061 21.0066 18.9031 21.3961 23.4694H3.60392Z" fill="white"/>
</svg>
