<svg width="32" height="32" fill="none" xmlns="http://www.w3.org/2000/svg"><path d="M30.72 0H1.28C.572 0 0 .572 0 1.28v29.44C0 31.428.572 32 1.28 32h29.44c.708 0 1.28-.572 1.28-1.28V1.28C32 .572 31.428 0 30.72 0zm-6.108 11.588c.012.188.012.384.012.576 0 5.872-4.472 12.636-12.644 12.636a12.6 12.6 0 01-6.824-1.992c.36.04.704.056 1.072.056 2.08 0 3.992-.704 5.516-1.896a4.444 4.444 0 01-4.152-3.08c.684.1 1.3.1 2.004-.08a4.44 4.44 0 01-3.556-4.36v-.056c.588.332 1.28.536 2.004.564a4.445 4.445 0 01-1.98-3.696c0-.828.216-1.584.604-2.24a12.611 12.611 0 009.16 4.644C15.2 9.644 17.456 7.2 20.168 7.2c1.28 0 2.432.536 3.244 1.4a8.776 8.776 0 002.82-1.068 4.422 4.422 0 01-1.952 2.444 8.786 8.786 0 002.56-.692 9.31 9.31 0 01-2.228 2.304z" fill="#55ACEE"/></svg>