<svg xmlns="http://www.w3.org/2000/svg">
  <symbol id="arrow-right" viewBox="0 0 20 15" fill="none">
    <path d="M18.8496 7.5001H1.14846" stroke="currentColor" stroke-width="1.89655" stroke-linecap="round" stroke-linejoin="round"/>
    <path d="M12.5278 1.17822L18.8496 7.50006" stroke="currentColor" stroke-width="1.89655" stroke-linecap="round" stroke-linejoin="round"/>
    <path d="M12.5278 13.8218L18.8496 7.5" stroke="currentColor" stroke-width="1.89655" stroke-linecap="round" stroke-linejoin="round"/>
  </symbol>

  <symbol id="arrow-left" viewBox="0 0 20 16" fill="none">
    <path d="M1.14844 8.0001H18.8496" stroke="currentColor" stroke-width="1.89655" stroke-linecap="round" stroke-linejoin="round"/>
    <path d="M7.47028 1.67822L1.14844 8.00006" stroke="currentColor" stroke-width="1.89655" stroke-linecap="round" stroke-linejoin="round"/>
    <path d="M7.47028 14.3218L1.14844 8" stroke="currentColor" stroke-width="1.89655" stroke-linecap="round" stroke-linejoin="round"/>
  </symbol>

  <symbol id="caret" viewBox="0 0 10 7" fill="none">
    <path d="M1 1.5L5 5.5L9 1.5" stroke="currentColor" stroke-width="1.5" stroke-linecap="round" stroke-linejoin="round"/>
  </symbol>

  <symbol id="play" viewBox="0 0 5 8" fill="none">
   <path d="M5 4L0.5 7.57235L0.5 0.427645L5 4Z" fill="currentColor"/>
  </symbol>

  <symbol id="search" viewBox="0 0 18 18" fill="none" xmlns="http://www.w3.org/2000/svg">
    <circle cx="8.37202" cy="8.37239" r="4.70796" stroke="currentColor" stroke-linecap="round" stroke-linejoin="round"/>
    <path d="M14.3356 14.3355L11.7012 11.701" stroke="currentColor" stroke-linecap="round" stroke-linejoin="round"/>
  </symbol>

  <symbol id="facebook" viewBox="0 0 20 20" fill="none" xmlns="http://www.w3.org/2000/svg">
    <path d="M10.001 0.00195312C4.47895 0.00195312 0.00195312 4.47895 0.00195312 10.001C0.00195312 14.991 3.65795 19.127 8.43895 19.88V12.892H5.89895V10.001H8.43895V7.79795C8.43895 5.28995 9.93195 3.90695 12.215 3.90695C13.309 3.90695 14.455 4.10195 14.455 4.10195V6.56095H13.191C11.951 6.56095 11.563 7.33295 11.563 8.12395V9.99895H14.334L13.891 12.89H11.563V19.878C16.344 19.129 20 14.992 20 10.001C20 4.47895 15.523 0.00195312 10.001 0.00195312Z" fill="currentColor"/>
  </symbol>

  <symbol id="instagram" viewBox="0 0 19 19" fill="none" xmlns="http://www.w3.org/2000/svg">
    <path d="M8.99895 4.377C6.44495 4.377 4.37595 6.447 4.37595 9C4.37595 11.554 6.44495 13.624 8.99895 13.624C11.551 13.624 13.622 11.554 13.622 9C13.622 6.447 11.551 4.377 8.99895 4.377ZM8.99895 12.004C7.33995 12.004 5.99495 10.659 5.99495 9.00101C5.99495 7.34201 7.33995 5.998 8.99895 5.998C10.658 5.998 12.001 7.34201 12.001 9.00101C12.001 10.659 10.658 12.004 8.99895 12.004Z" fill="currentColor"/>
    <path d="M13.806 5.285C14.4013 5.285 14.884 4.80237 14.884 4.207C14.884 3.61164 14.4013 3.129 13.806 3.129C13.2106 3.129 12.728 3.61164 12.728 4.207C12.728 4.80237 13.2106 5.285 13.806 5.285Z" fill="currentColor"/>
    <path d="M17.533 3.111C17.064 1.902 16.109 0.946005 14.9 0.479005C14.201 0.216005 13.462 0.0750048 12.714 0.0590048C11.751 0.0170048 11.446 0.00500488 9.00395 0.00500488C6.56195 0.00500488 6.24895 0.00500478 5.29395 0.0590048C4.54795 0.0740048 3.80895 0.215005 3.10995 0.479005C1.89995 0.946005 0.944953 1.902 0.476953 3.111C0.213953 3.811 0.0729531 4.549 0.0579531 5.297C0.0149531 6.259 0.00195312 6.564 0.00195312 9.007C0.00195312 11.449 0.00195312 11.76 0.0579531 12.717C0.0729531 13.465 0.213953 14.203 0.476953 14.904C0.945953 16.112 1.90095 17.068 3.11095 17.536C3.80695 17.808 4.54595 17.962 5.29595 17.986C6.25895 18.028 6.56395 18.041 9.00595 18.041C11.448 18.041 11.761 18.041 12.716 17.986C13.463 17.971 14.202 17.829 14.902 17.567C16.111 17.098 17.066 16.143 17.535 14.934C17.798 14.234 17.939 13.496 17.954 12.748C17.997 11.786 18.01 11.481 18.01 9.038C18.01 6.59501 18.01 6.285 17.954 5.328C17.941 4.57 17.801 3.819 17.533 3.111ZM16.315 12.643C16.308 13.219 16.204 13.79 16.004 14.331C15.699 15.118 15.078 15.74 14.292 16.042C13.757 16.241 13.193 16.345 12.622 16.353C11.672 16.397 11.404 16.408 8.96795 16.408C6.52995 16.408 6.28095 16.408 5.31295 16.353C4.74395 16.346 4.17795 16.241 3.64395 16.042C2.85495 15.741 2.22995 15.119 1.92495 14.331C1.72895 13.797 1.62295 13.232 1.61395 12.662C1.57095 11.712 1.56095 11.444 1.56095 9.00801C1.56095 6.571 1.56095 6.322 1.61395 5.353C1.62095 4.777 1.72495 4.207 1.92495 3.666C2.22995 2.877 2.85495 2.256 3.64395 1.954C4.17795 1.756 4.74395 1.651 5.31295 1.643C6.26395 1.6 6.53095 1.588 8.96795 1.588C11.405 1.588 11.655 1.588 12.622 1.643C13.193 1.65 13.757 1.755 14.292 1.954C15.078 2.257 15.699 2.879 16.004 3.666C16.2 4.2 16.306 4.765 16.315 5.335C16.358 6.28601 16.369 6.553 16.369 8.99C16.369 11.426 16.369 11.688 16.326 12.644H16.315V12.643Z" fill="currentColor"/>
  </symbol>

  <symbol id="twitter" viewBox="0 0 22 17" fill="none" xmlns="http://www.w3.org/2000/svg">
    <path d="M21.4594 2.01238C20.6898 2.35373 19.8626 2.58442 18.9946 2.68815C19.8805 2.15701 20.5611 1.31598 20.8815 0.31378C20.0522 0.80564 19.1338 1.16278 18.1562 1.3552C17.3734 0.52112 16.2581 0 15.0237 0C12.6536 0 10.7319 1.92147 10.7319 4.29155C10.7319 4.6279 10.7699 4.95546 10.8431 5.2696C7.27633 5.0906 4.114 3.38203 1.99734 0.78551C1.6279 1.41935 1.41626 2.15656 1.41626 2.94309C1.41626 4.43204 2.17389 5.74563 3.32548 6.5153C2.62204 6.4929 1.96021 6.2999 1.38164 5.97846C1.38123 5.99639 1.38123 6.0143 1.38123 6.0324C1.38123 8.1118 2.86057 9.8463 4.82383 10.2406C4.46373 10.3387 4.08458 10.3912 3.69318 10.3912C3.41665 10.3912 3.1478 10.3642 2.88571 10.3142C3.43186 12.0191 5.01677 13.26 6.89478 13.2945C5.426 14.4457 3.57552 15.1318 1.56478 15.1318C1.21837 15.1318 0.876756 15.1114 0.541016 15.0717C2.44028 16.2894 4.69615 17 7.11974 17C15.0136 17 19.3304 10.4605 19.3304 4.78918C19.3304 4.60314 19.3262 4.41805 19.3179 4.23395C20.1565 3.62886 20.8841 2.87302 21.4594 2.01238Z" fill="currentColor"/>
  </symbol>

  <symbol id="whatsapp" viewBox="0 0 20 20" fill="none" xmlns="http://www.w3.org/2000/svg">
    <path d="M17.077 2.92798C14.995 0.844979 12.155 -0.206021 9.17302 0.0339786C5.16402 0.355979 1.65002 3.14398 0.474016 6.98998C-0.365984 9.73798 -0.0129836 12.607 1.35502 14.977L0.0590165 19.28C-0.0649835 19.693 0.312017 20.082 0.729017 19.971L5.23302 18.764C6.69202 19.56 8.33402 19.979 10.006 19.98H10.01C14.205 19.98 18.081 17.414 19.422 13.439C20.728 9.56298 19.762 5.61598 17.077 2.92798ZM14.898 13.554C14.69 14.137 13.671 14.699 13.213 14.74C12.755 14.782 12.326 14.947 10.218 14.116C7.68102 13.116 6.07902 10.515 5.95502 10.349C5.83002 10.182 4.93602 8.99598 4.93602 7.76798C4.93602 6.53998 5.58102 5.93598 5.81002 5.68698C6.03902 5.43698 6.30902 5.37498 6.47602 5.37498C6.64202 5.37498 6.80902 5.37498 6.95402 5.38098C7.13202 5.38798 7.32902 5.39698 7.51602 5.81198C7.73802 6.30598 8.22302 7.53998 8.28502 7.66498C8.34702 7.78998 8.38902 7.93598 8.30602 8.10198C8.22302 8.26798 8.18102 8.37198 8.05702 8.51798C7.93202 8.66398 7.79502 8.84298 7.68302 8.95498C7.55802 9.07898 7.42802 9.21498 7.57302 9.46398C7.71902 9.71398 8.21902 10.531 8.96102 11.192C9.91502 12.042 10.718 12.305 10.968 12.431C11.218 12.556 11.363 12.535 11.509 12.368C11.655 12.202 12.133 11.64 12.299 11.39C12.465 11.14 12.632 11.182 12.861 11.265C13.09 11.348 14.317 11.952 14.566 12.077C14.816 12.202 14.982 12.264 15.044 12.368C15.106 12.471 15.106 12.971 14.898 13.554Z" fill="currentColor"/>
  </symbol>

  <symbol id="email" viewBox="0 0 20 16" fill="none" xmlns="http://www.w3.org/2000/svg">
    <path fill-rule="evenodd" clip-rule="evenodd" d="M2.37652e-06 1.99688C7.92364e-07 1.99792 0 1.99896 0 2V14C0 15.1046 0.895431 16 2 16H18C19.1046 16 20 15.1046 20 14V2C20 1.99896 20 1.99792 20 1.99688L10 9L2.37652e-06 1.99688ZM19.3474 0.521997C18.9919 0.197739 18.5191 0 18 0H2C1.48093 0 1.00805 0.197739 0.652573 0.521997L10 7.06811L19.3474 0.521997Z" fill="currentColor"/>
  </symbol>

  <symbol id="calendar" viewBox="0 0 44 44" fill="none" xmlns="http://www.w3.org/2000/svg">
    <path d="M24.8789 32.0834H29.7922" stroke="white" stroke-width="1.5" stroke-linecap="round" stroke-linejoin="round"/>
    <path d="M27.3349 32.0834V22.9167L24.6582 25.3367" stroke="white" stroke-width="1.5" stroke-linecap="round" stroke-linejoin="round"/>
    <path d="M38.5 16.5H5.5" stroke="white" stroke-width="1.5" stroke-linecap="round" stroke-linejoin="round"/>
    <path d="M14.6667 5.28003V9.3867" stroke="white" stroke-width="1.5" stroke-linecap="round" stroke-linejoin="round"/>
    <path d="M29.3327 5.28003V9.3867" stroke="white" stroke-width="1.5" stroke-linecap="round" stroke-linejoin="round"/>
    <path fill-rule="evenodd" clip-rule="evenodd" d="M33 38.5H11C7.96217 38.5 5.5 36.0379 5.5 33V12.8334C5.5 9.79554 7.96217 7.33337 11 7.33337H33C36.0378 7.33337 38.5 9.79554 38.5 12.8334V33C38.5 36.0379 36.0378 38.5 33 38.5Z" stroke="white" stroke-width="1.5" stroke-linecap="round" stroke-linejoin="round"/>
    <path d="M15.125 24.6767C15.4165 23.6684 16.3075 22.9167 17.4093 22.9167C18.744 22.9167 19.8275 23.9984 19.8275 25.3349C19.8275 26.5302 18.8577 27.5001 17.6623 27.5001C18.8577 27.5001 19.8275 28.4699 19.8275 29.6653C19.8275 30.9999 18.7458 32.0834 17.4093 32.0834C16.3075 32.0834 15.4165 31.3318 15.125 30.3234" stroke="white" stroke-width="1.5" stroke-linecap="round" stroke-linejoin="round"/>
  </symbol>

  <symbol id="youtube" viewBox="0 0 22 16" fill="none" xmlns="http://www.w3.org/2000/svg">
    <path d="M17.4309 0H4.56912C2.04566 0 0 2.04566 0 4.56912V10.9986C0 13.5221 2.04566 15.5678 4.56912 15.5678H17.4309C19.9543 15.5678 22 13.5221 22 10.9986V4.56912C22 2.04566 19.9543 0 17.4309 0ZM14.3408 8.0967L8.32495 10.9659C8.16465 11.0424 7.97949 10.9255 7.97949 10.7479V4.83016C7.97949 4.65005 8.16952 4.53333 8.33016 4.61474L14.346 7.66328C14.5249 7.75391 14.5218 8.01042 14.3408 8.0967Z" fill="currentColor"/>
  </symbol>
</svg>