<svg id="logo-tv2000-main" viewBox="0 0 119 181" fill="none" xmlns="http://www.w3.org/2000/svg">
  <path d="M50.7535 55.4344H42.479C41.7473 55.4344 41.0456 55.1426 40.5282 54.623C40.0108 54.1035 39.7202 53.3989 39.7202 52.6642C39.7202 51.9295 40.0108 51.2249 40.5282 50.7054C41.0456 50.1859 41.7473 49.894 42.479 49.894H64.5455C65.2772 49.894 65.9789 50.1859 66.4963 50.7054C67.0137 51.2249 67.3043 51.9295 67.3043 52.6642C67.3043 53.3989 67.0137 54.1035 66.4963 54.623C65.9789 55.1426 65.2772 55.4344 64.5455 55.4344H56.271V85.8958C56.271 86.6305 55.9804 87.3352 55.463 87.8547C54.9456 88.3742 54.2439 88.666 53.5123 88.666C52.7806 88.666 52.0789 88.3742 51.5615 87.8547C51.0441 87.3352 50.7535 86.6305 50.7535 85.8958V55.4344Z" fill="currentColor"/>
  <path d="M70.7786 53.5512C70.2826 52.055 70.9999 50.505 72.4881 50.0607C73.9782 49.5625 75.5217 50.2829 75.9643 51.7773L84.4047 77.1498L92.8452 51.7844C93.2877 50.29 94.8313 49.5697 96.3213 50.0678C97.8113 50.5104 98.5287 52.0622 98.0308 53.5584L86.9975 86.7882C86.8602 87.1275 86.6745 87.445 86.4461 87.7307C86.0607 88.2288 85.454 88.6714 84.4047 88.6714C83.3555 88.6714 82.7505 88.2288 82.3633 87.7307C82.1363 87.4441 81.9506 87.1268 81.8119 86.7882L70.7786 53.5512Z" fill="currentColor"/>
  <path d="M1.65417 131.948C1.43572 131.952 1.21873 131.912 1.01617 131.829C0.813605 131.747 0.629622 131.625 0.475214 131.47C0.320806 131.314 0.199141 131.13 0.117488 130.926C0.0358357 130.723 -0.00412876 130.505 -1.72897e-05 130.285C-0.00600247 129.899 0.131385 129.524 0.385425 129.234L16.4955 109.733C17.7642 108.183 18.7564 106.409 18.7564 104.25C18.7564 102.193 17.9427 100.22 16.4943 98.7661C15.046 97.3117 13.0816 96.4946 11.0333 96.4946C8.98497 96.4946 7.02057 97.3117 5.5722 98.7661C4.12383 100.22 3.31015 102.193 3.31015 104.25C3.31402 104.469 3.27383 104.687 3.19195 104.89C3.11008 105.094 2.98822 105.279 2.83365 105.434C2.67907 105.589 2.49496 105.711 2.2923 105.793C2.08965 105.875 1.87262 105.915 1.65417 105.911C1.43588 105.915 1.21904 105.874 1.01659 105.792C0.814149 105.71 0.630249 105.588 0.475866 105.433C0.321483 105.278 0.19978 105.093 0.118019 104.89C0.0362576 104.687 -0.00388614 104.469 -1.72897e-05 104.25C0.000929106 101.312 1.16384 98.4953 3.23293 96.4187C5.30202 94.342 8.10784 93.1756 11.0333 93.1761C17.0469 93.1761 22.0666 98.2184 22.0666 104.257C22.0666 107.359 20.7425 109.907 18.8117 112.068L5.18561 128.624H20.4124C20.8419 128.638 21.2492 128.82 21.548 129.13C21.8469 129.44 22.014 129.855 22.014 130.286C22.014 130.718 21.8469 131.132 21.548 131.443C21.2492 131.753 20.8419 131.934 20.4124 131.948H1.65417Z" fill="currentColor"/>
  <path d="M47.4433 120.867C47.4438 122.323 47.1585 123.765 46.6037 125.11C46.049 126.455 45.2357 127.676 44.2104 128.706C43.185 129.735 41.9677 130.551 40.628 131.107C39.2883 131.664 37.8526 131.949 36.4029 131.948C30.2233 131.948 25.3696 127.072 25.3696 120.867V104.25C25.3705 101.312 26.5334 98.4953 28.6025 96.4187C30.6716 94.342 33.4774 93.1756 36.4029 93.1761C42.4165 93.1761 47.4362 98.2184 47.4362 104.257L47.4433 120.867ZM44.1331 104.25C44.1331 102.193 43.3194 100.22 41.8711 98.766C40.4227 97.3117 38.4583 96.4946 36.41 96.4946C34.3617 96.4946 32.3973 97.3117 30.9489 98.766C29.5006 100.22 28.6869 102.193 28.6869 104.25V120.867C28.6869 122.924 29.5006 124.897 30.9489 126.351C32.3973 127.805 34.3617 128.622 36.41 128.622C38.4583 128.622 40.4227 127.805 41.8711 126.351C43.3194 124.897 44.1331 122.924 44.1331 120.867V104.25Z" fill="currentColor"/>
  <path d="M72.8201 120.867C72.8205 122.322 72.5355 123.763 71.9812 125.108C71.4269 126.452 70.6142 127.674 69.5896 128.703C68.565 129.732 67.3486 130.548 66.0097 131.105C64.6709 131.662 63.2359 131.948 61.7868 131.948C55.6072 131.948 50.7535 127.073 50.7535 120.867V104.25C50.7544 101.312 51.9173 98.4953 53.9864 96.4187C56.0555 94.342 58.8613 93.1756 61.7868 93.1761C67.8004 93.1761 72.8201 98.2184 72.8201 104.257V120.867ZM69.5099 104.25C69.5099 102.193 68.6962 100.22 67.2478 98.766C65.7995 97.3117 63.8351 96.4946 61.7868 96.4946C59.7385 96.4946 57.7741 97.3117 56.3257 98.766C54.8773 100.22 54.0636 102.193 54.0636 104.25V120.867C54.0636 122.924 54.8773 124.897 56.3257 126.351C57.7741 127.805 59.7385 128.622 61.7868 128.622C63.8351 128.622 65.7995 127.805 67.2478 126.351C68.6962 124.897 69.5099 122.924 69.5099 120.867V104.25Z" fill="currentColor"/>
  <path d="M98.1968 120.867C98.1973 122.322 97.9122 123.763 97.3579 125.108C96.8037 126.452 95.991 127.674 94.9664 128.703C93.9418 129.732 92.7253 130.548 91.3865 131.105C90.0476 131.662 88.6126 131.948 87.1635 131.948C80.984 131.948 76.1284 127.073 76.1284 120.867V104.25C76.1289 102.795 76.4147 101.355 76.9695 100.011C77.5244 98.6672 78.3373 97.4463 79.362 96.418C80.3867 95.3898 81.6031 94.5742 82.9417 94.018C84.2803 93.4617 85.7148 93.1757 87.1635 93.1761C93.1754 93.1761 98.1968 98.2184 98.1968 104.257V120.867ZM94.8866 104.25C94.9022 103.221 94.7139 102.2 94.3328 101.245C93.9516 100.291 93.3851 99.4215 92.6663 98.6887C91.9475 97.9559 91.0908 97.374 90.1459 96.9767C89.2011 96.5795 88.187 96.3749 87.1626 96.3749C86.1383 96.3749 85.1242 96.5795 84.1793 96.9767C83.2345 97.374 82.3777 97.9559 81.6589 98.6887C80.9402 99.4215 80.3737 100.291 79.9925 101.245C79.6113 102.2 79.423 103.221 79.4386 104.25V120.867C79.423 121.896 79.6113 122.917 79.9925 123.872C80.3737 124.826 80.9402 125.696 81.6589 126.428C82.3777 127.161 83.2345 127.743 84.1793 128.14C85.1242 128.538 86.1383 128.742 87.1626 128.742C88.187 128.742 89.2011 128.538 90.1459 128.14C91.0908 127.743 91.9475 127.161 92.6663 126.428C93.3851 125.696 93.9516 124.826 94.3328 123.872C94.7139 122.917 94.9022 121.896 94.8866 120.867V104.25Z" fill="currentColor"/>
  <path d="M119 90.5009C119 57.1295 109.221 26.0517 92.3866 0C102.26 29.1417 107.281 59.7188 107.246 90.5009C107.278 121.283 102.255 151.859 92.3795 181C109.221 154.948 119 123.87 119 90.5009Z" fill="currentColor"/>
</svg>
