<svg xmlns="http://www.w3.org/2000/svg" viewBox="0 0 20 20" width="20" height="20" fill="#ffffff"><path fill-rule="evenodd" fill="#FFF" d="M13.48 14.73l-6.37-3.48a3.07 3.07 0 00.05-2.36l6.42-3.51a3.47 3.47 0 002.53 1.08 3.32 3.32 0 003.4-3.23A3.32 3.32 0 0016.12 0a3.32 3.32 0 00-3.41 3.23c0 .37.08.71.2 1.04L6.45 7.79a3.48 3.48 0 00-2.48-1.02A3.32 3.32 0 00.56 10a3.32 3.32 0 003.4 3.23 3.5 3.5 0 002.38-.92l6.5 3.56a3 3 0 00-.14.9A3.32 3.32 0 0016.1 20a3.32 3.32 0 003.42-3.23 3.32 3.32 0 00-3.41-3.23c-1.06 0-2 .47-2.63 1.2z"/></svg>