<svg version="1.1" id="Capa_1" xmlns="http://www.w3.org/2000/svg" x="0" y="0" viewBox="0 0 512 512" xml:space="preserve"><style>.st0{fill:#247ef0}</style><path class="st0" d="M256 162.1c2.3 0 4.4-.9 6-2.5 1.6-1.6 2.5-3.8 2.5-6V85.3c0-4.7-3.8-8.5-8.5-8.5s-8.5 3.8-8.5 8.5v68.3c0 2.3.9 4.4 2.5 6 1.6 1.6 3.7 2.5 6 2.5z"/><path class="st0" d="M494.9 93.9h-17.1V59.7c0-9.4-7.6-17.1-17.1-17.1H339C319.8 15.9 288.9 0 256 0s-63.8 15.9-83 42.7H51.2c-9.4 0-17.1 7.6-17.1 17.1v34.1h-17c-9.5 0-17.1 7.6-17.1 17v349.9c0 9.4 7.6 17.1 17.1 17.1h185.2C212 498.7 233 512 256 512s44-13.3 53.8-34.1H495c9.4 0 17.1-7.6 17.1-17.1V110.9c-.1-9.4-7.7-17-17.2-17zM349 59.7h111.8v281.6H307.2c-16.1 0-31.5 6.5-42.7 18v-155c33.3-2.7 63.1-21.5 79.9-50.3 16.9-28.7 18.6-64 4.6-94.3zm-41.8 341.4h153.6v25.6H264.5v-25.6c0-23.6 19.1-42.6 42.7-42.7h153.6V384H307.2c-4.7 0-8.5 3.8-8.5 8.5s3.8 8.6 8.5 8.6zM256 17.1c47.1 0 85.3 38.2 85.3 85.3s-38.2 85.3-85.3 85.3-85.3-38.2-85.3-85.3c0-47.1 38.2-85.3 85.3-85.3zM51.2 59.7H163c-14 30.3-12.3 65.5 4.5 94.3 16.8 28.8 46.7 47.6 79.9 50.3v155c-11.2-11.5-26.6-18-42.7-18H51.2V59.7zm0 341.4h153.6c4.7 0 8.5-3.8 8.5-8.5s-3.8-8.5-8.5-8.5H51.2v-25.6h153.6c23.6 0 42.6 19.1 42.7 42.7v25.6H51.2v-25.7zm443.7 59.7H304.2c-.1 0-.2 0-.3.1-.6.1-1.2.2-1.8.4-1 .1-2 .5-2.7 1.2-1 .5-1.7 1.2-2.2 2.2-.4.5-.7 1.1-1 1.7 0 .1-.1.1-.1.2-6 17-22.1 28.4-40.2 28.4s-34.1-11.4-40.2-28.4c0-.1-.1-.1-.1-.2-.3-.6-.6-1.1-1-1.6-.4-.9-1.2-1.7-2.1-2.2-.4-.3-.9-.6-1.3-.9-.4-.2-.9-.3-1.4-.4-.6-.2-1.2-.3-1.9-.4-.1 0-.2-.1-.3-.1H17.1V110.9h17.1v315.7c0 9.4 7.6 17.1 17.1 17.1h409.6c9.4 0 17.1-7.6 17.1-17.1V110.9h17.1l-.2 349.9z"/><path class="st0" d="M341.3 204.8c0 2.3.9 4.4 2.5 6 1.6 1.6 3.8 2.5 6 2.5h85.3c4.7 0 8.5-3.8 8.5-8.5s-3.8-8.5-8.5-8.5h-85.3c-2.3 0-4.4.9-6 2.5-1.6 1.6-2.5 3.7-2.5 6zM435.2 238.9H315.7c-4.7 0-8.5 3.8-8.5 8.5s3.8 8.5 8.5 8.5h119.5c4.7 0 8.5-3.8 8.5-8.5s-3.8-8.5-8.5-8.5zM435.2 281.6H315.7c-4.7 0-8.5 3.8-8.5 8.5s3.8 8.5 8.5 8.5h119.5c4.7 0 8.5-3.8 8.5-8.5s-3.8-8.5-8.5-8.5zM76.8 213.3h85.3c4.7 0 8.5-3.8 8.5-8.5s-3.8-8.5-8.5-8.5H76.8c-4.7 0-8.5 3.8-8.5 8.5s3.8 8.5 8.5 8.5zM76.8 256h119.5c4.7 0 8.5-3.8 8.5-8.5s-3.8-8.5-8.5-8.5H76.8c-4.7 0-8.5 3.8-8.5 8.5s3.8 8.5 8.5 8.5zM196.3 281.6H76.8c-4.7 0-8.5 3.8-8.5 8.5s3.8 8.5 8.5 8.5h119.5c4.7 0 8.5-3.8 8.5-8.5s-3.8-8.5-8.5-8.5zM256 59.7c2.3 0 4.4-.9 6-2.5 1.6-1.6 2.5-3.8 2.5-6v-8.5c0-4.7-3.8-8.5-8.5-8.5s-8.5 3.8-8.5 8.5v8.5c0 2.3.9 4.4 2.5 6 1.6 1.6 3.7 2.5 6 2.5z"/></svg>