<svg version="1.1" id="Layer_1" xmlns="http://www.w3.org/2000/svg" x="0" y="0" viewBox="0 0 512 392.5" xml:space="preserve"><style>.st0{fill:#247ef0}</style><g id="Tracking"><path class="st0" d="M509.5 215.8L403.6 109.9c-4.8-4.8-11.3-7.5-18.1-7.5h-138c-4.7 0-8.5 3.8-8.5 8.5s3.8 8.5 8.5 8.5h34.1v119.5c0 4.7 3.8 8.5 8.5 8.5s8.5-3.8 8.5-8.5V119.5h86.8c2.3 0 4.4.9 6 2.5l14.6 14.6h-39.1c-9.4 0-17.1 7.6-17.1 17.1v76.8c0 9.4 7.6 17.1 17.1 17.1h128v68.3c0 4.7-3.8 8.5-8.5 8.5h-17.7c-4.7-32.6-34.9-55.3-67.5-50.6-26.2 3.8-46.8 24.4-50.6 50.6H229.7c-4.7-32.6-34.9-55.3-67.5-50.6-26.2 3.8-46.8 24.4-50.6 50.6H93.9c-4.7 0-8.5-3.8-8.5-8.5v-68.3c0-4.7-3.8-8.5-8.5-8.5s-8.5 3.8-8.5 8.5v68.3c0 14.1 11.5 25.6 25.6 25.6h17.7c1.9 13 8 25 17.3 34.1H8.5c-4.7 0-8.5 3.8-8.5 8.5s3.8 8.5 8.5 8.5h401.1c29.7-.1 54.8-21.8 59.1-51.2h17.7c14.1 0 25.6-11.5 25.6-25.6v-93.9c0-2.3-.9-4.5-2.5-6.1zM128 332.8c0-24.6 20.8-44.3 45.7-42.6 21 1.5 38.1 18.5 39.5 39.5 1.7 24.9-18 45.7-42.6 45.7-23.5 0-42.6-19-42.6-42.6zm84.4 42.7c9.4-9.2 15.5-21.2 17.3-34.1h120.8c1.9 13 8 25 17.3 34.1H212.4zm197.2 0c-24.6 0-44.3-20.8-42.6-45.7 1.5-21 18.5-38.1 39.5-39.5 24.9-1.7 45.7 18 45.7 42.6 0 23.5-19 42.5-42.6 42.6zm-42.7-145.1v-76.8h56.2l71.8 71.8v5h-128z"/><path class="st0" d="M170.7 324.3c4.7 0 8.5 3.8 8.5 8.5s-3.8 8.5-8.5 8.5-8.5-3.8-8.5-8.5c-.1-4.7 3.8-8.5 8.5-8.5zM409.6 324.3c4.7 0 8.5 3.8 8.5 8.5s-3.8 8.5-8.5 8.5-8.5-3.8-8.5-8.5 3.8-8.5 8.5-8.5zM8.5 298.7h25.6c4.7 0 8.5 3.8 8.5 8.5s-3.8 8.5-8.5 8.5H8.5c-4.7 0-8.5-3.8-8.5-8.5s3.8-8.5 8.5-8.5zM25.6 264.5h8.5c4.7 0 8.5 3.8 8.5 8.5s-3.8 8.5-8.5 8.5h-8.5c-4.7 0-8.5-3.8-8.5-8.5 0-4.6 3.8-8.5 8.5-8.5zM32.9 230.4h2.5c4 0 7.3 3.3 7.3 7.3v2.5c0 4-3.3 7.3-7.3 7.3h-2.5c-4 0-7.3-3.3-7.3-7.3v-2.5c0-4 3.3-7.3 7.3-7.3zM110.9 221.9c61.3 0 110.9-49.7 110.9-110.9S172.2 0 110.9 0 0 49.7 0 110.9c.1 61.3 49.7 110.9 110.9 111zm0-204.8c51.8 0 93.9 42 93.9 93.9s-42 93.9-93.9 93.9S17 162.9 17 111c.1-51.9 42.1-93.9 93.9-93.9z"/><path class="st0" d="M110.9 187.7c2.3 0 4.4-.9 6-2.5 5.5-5.5 53.7-54.8 53.7-91.4 0-33-26.7-59.7-59.7-59.7S51.2 60.9 51.2 93.9c0 36.6 48.2 85.9 53.7 91.4 1.6 1.5 3.8 2.4 6 2.4zm0-136.5c23.6 0 42.6 19.1 42.7 42.7 0 21.9-26.9 55.7-42.7 73-15.8-17.2-42.7-51.1-42.7-73 .1-23.6 19.2-42.7 42.7-42.7z"/><path class="st0" d="M136.5 93.9c0-14.1-11.5-25.6-25.6-25.6S85.3 79.7 85.3 93.9s11.5 25.6 25.6 25.6 25.6-11.5 25.6-25.6zm-34.1 0c0-4.7 3.8-8.5 8.5-8.5s8.5 3.8 8.5 8.5-3.8 8.5-8.5 8.5-8.5-3.8-8.5-8.5zM332.8 264.5h17.1c4.7 0 8.5 3.8 8.5 8.5s-3.8 8.5-8.5 8.5h-17.1c-4.7 0-8.5-3.8-8.5-8.5 0-4.6 3.8-8.5 8.5-8.5z"/></g></svg>