<svg version="1.1" id="Layer_1" xmlns="http://www.w3.org/2000/svg" x="0" y="0" viewBox="0 0 388.1 510.2" xml:space="preserve"><style>.st0{fill:#247ef0}</style><path class="st0" d="M388 404.4c-.7-10.1-16.2-225.7-18.3-250-3.5-41.2-17.5-76.9-40.3-103.2C306.3 24.5 274 7.4 236.2 1.8 208-2.5 181.9 1 158.5 12c-4.2 2-6 7-4 11.2 1.9 4 6.6 5.9 10.7 4.3.2-.1.4-.1.5-.2 20.3-9.6 43.2-12.5 68-8.8 34.3 5.1 62.2 19.8 83 43.8 20.5 23.6 33 56 36.2 93.6 2.1 24.5 17.5 239.8 18.2 249.8.8 10.8-2.9 21.2-10.3 29.1-5.8 6.2-13.2 10.3-21.4 11.7v-4.3c0-28.2-14.3-53.9-38.1-68.8-5.5-3.4-11.4-6.2-17.6-8.2-.2-.1-.3-.1-.5-.2-.8-1.5-1.5-2.9-2.4-4.2-11.7-18.3-33.3-22.2-45.7-22.8v-15.9c2.9-1.2 5.7-2.4 8.4-3.8h7.5c8.8 0 16.9-5 20.9-12.9h21.9c15.3 0 27.7-12.4 27.7-27.7v-34.1c11.7-6.7 19-19.1 19-32.6 0-20.2-16.1-36.8-36.2-37.5v-16c9.6-7 13.4-15.3 13.8-16.2.9-2.1.9-4.4.1-6.4-.8-2.1-2.4-3.7-4.5-4.6-4.3-1.9-9.2.1-11.1 4.3 0 .1-2.8 5.9-9.7 10.3-10.2 6.5-24.5 7.2-41.5 1.9-14.7-4.6-28.6-14.5-42.1-24-2.7-1.9-5.4-3.9-8.2-5.7-22.2-15.3-46.4-29.5-77.5-19.8h-.2c-16.7 5.2-37.2 21.5-39.7 69.3-.2.7-.3 1.4-.3 2v5c-20 .7-36.2 17.3-36.2 37.5 0 20.7 16.8 37.5 37.5 37.5h2.5c1.2 4.4 2.7 8.7 4.4 13 11.3 27.4 33.4 49.5 60.9 60.6V338c-12.5.6-34 4.5-45.7 22.8-.8 1.3-1.6 2.6-2.3 4.2-14.4 4.6-27.7 13.5-37.5 25.2-1 1.2-1.9 2.4-2.7 3.4-10.6 14.1-16.2 30.9-16.2 48.6v4.2c-8.1-1.5-15.3-5.5-21-11.6-7.4-7.9-11.1-18.3-10.3-29.1 5.6-79 15.4-216.6 18.2-249.8 3.5-40.4 15.4-68.8 33.4-80 13.6-8.4 28.3-5.4 38.3-1.4 3.2 1.3 7.7.9 10.8-4.1 4.4-7.1 9.8-13.9 16-20.2 2.3-2.3 4.7-4.6 7.1-6.6 1.7-1.5 2.7-3.5 2.9-5.7.2-2.2-.5-4.4-2-6.1-3-3.5-8.4-3.9-11.9-.9-6.2 5.3-15.2 14-23.3 25.8-17-5.1-33.1-3.4-46.8 5-23.1 14.2-37.4 46.3-41.4 92.9-2.7 31-11.4 153.1-18.3 250-1.1 15.3 4.3 30.5 14.8 41.8 8.7 9.4 20.5 15.5 33.3 17.2V502c0 4.6 3.8 8.4 8.4 8.4H177c4.6 0 8.4-3.8 8.4-8.4s-3.8-8.4-8.4-8.4H65v-51.2c0-24.4 13.3-46.1 34.7-57-.1 8.6 1.8 17.4 5.8 26.4 9.1 20.4 28.3 41.2 57.1 61.8 2.2 1.6 5.1 2 7.6 1.1 2.6-.9 4.6-2.9 5.4-5.5 2.9-9.6 10.1-25.4 18.2-30.7 8.1 5.3 15.3 21.1 18.2 30.7.8 2.6 2.8 4.7 5.4 5.5 2.6.9 5.4.4 7.6-1.1 28.8-20.6 48-41.4 57.1-61.8 4-9 5.9-17.8 5.8-26.3 10.5 5.4 19.2 13.5 25.3 23.5 3.9 6.4 6.6 13.4 8.1 20.7.8 4.2 1.3 8.5 1.3 12.7v51.2h-109c-4.6 0-8.4 3.8-8.4 8.4 0 4.6 3.8 8.4 8.4 8.4H331c4.6 0 8.4-3.8 8.4-8.4v-38.3c12.9-1.6 24.9-7.7 33.8-17.2 10.5-11.5 15.9-26.8 14.8-42.1zM100.3 219.7v-43.1c0-45.1 15.3-59.3 28.1-63.3 5.2-1.6 10.1-2.3 14.9-2.3 20.1 0 37.7 12.5 56.2 25.6 14.5 10.3 29.6 21 46.8 26.3 15.2 4.7 29 5.6 41 2.5v54.4c0 15.2-3.5 29.7-10.5 43.1-1.4 2.7-1.3 5.5.3 8 1.7 2.7 5 4.4 8.1 4.3 2.8-.1 5.2-1.7 6.6-4.5 3.6-6.9 6.5-14.3 8.5-22 1.4 0 2.8 0 4.2-.1v29.2c0 6-4.9 10.8-10.8 10.8h-20.3c-1.6-5.7-5.4-10.6-10.5-13.6-3.6-2.1-7.7-3.3-11.9-3.3h-17c-12.9 0-23.3 10.5-23.3 23.3 0 5.7 2.1 11.2 5.8 15.4-7.5 1.9-15.1 2.8-22.8 2.8-49.6 0-90.6-38.7-93.3-88.2 0-1.8-.1-3.6-.1-5.3zM227.6 295c0-3.6 2.9-6.5 6.5-6.5H251c3.6 0 6.5 2.9 6.5 6.5s-2.9 6.5-6.5 6.5h-17c-3.5-.1-6.4-3-6.4-6.5zm-75 59.9v.9c0 2.9-2.4 5.3-5.3 5.3-.7 0-1.5.1-2.2.3l-.1-.3-.9.4c-1.1.4-10.7 4.3-13.1 14.1-1.8 7.2.8 14.8 7.6 22.7 10.4 11.9 29 24.4 39.8 31.2-6.8 7-11.7 16.4-14.8 23.6-21.1-16.4-35.8-33.1-42.6-48.3-5.9-13.3-5.9-25.3.2-34.8 7.3-11.8 22.4-14.5 31.4-15.1zm-5.3 24.7c.1-.5.7-1.1 1.5-1.7 11.6-.8 20.6-10.5 20.6-22.1v-28.4c16 3.6 32.8 3.6 48.8 0v28.4c0 11.7 9 21.3 20.7 22.1.8.6 1.4 1.3 1.6 1.7.2.9-.4 3.4-4 7.5-10.8 12.3-33 26.2-42.6 31.9-9.6-5.7-31.8-19.6-42.6-31.9-3.6-4.1-4.3-6.6-4-7.5zm101.8 18.6c6.9-7.9 9.4-15.5 7.6-22.7-2.5-9.8-12-13.7-13.1-14.1l-.9-.4-.1.3c-.7-.2-1.4-.3-2.2-.3-2.9 0-5.3-2.4-5.3-5.3v-.9c9 .6 24.1 3.3 31.5 14.9 6 9.5 6.1 21.5.2 34.8-6.8 15.2-21.5 31.9-42.6 48.3-3.1-7.2-8-16.6-14.8-23.6 10.8-6.7 29.4-19.2 39.7-31zm54.4-166.5c.4-4 .7-8 .7-12v-29.3c10.7.7 19.3 9.8 19.3 20.6 0 11.2-8.9 20.3-20 20.7zm-219.4 0c-11.1-.4-20-9.5-20-20.7 0-10.9 8.6-19.9 19.3-20.6v29.3c.1 4 .3 8 .7 12z"/><path class="st0" d="M195 465.5c-9.6 0-9.6 15 0 15s9.7-15 0-15z"/></svg>