<svg version="1.0" xmlns="http://www.w3.org/2000/svg"
 width="35.000000pt" height="38.000000pt" viewBox="0 0 35.000000 38.000000"
 preserveAspectRatio="xMidYMid meet">

<g transform="translate(0.000000,38.000000) scale(0.100000,-0.100000)"
fill="#284976" stroke="none">
<path d="M129 365 c-54 -30 -61 -104 -14 -151 70 -70 188 23 141 111 -28 52
-77 67 -127 40z"/>
<path d="M36 181 c-38 -42 -47 -130 -16 -161 18 -18 33 -20 155 -20 122 0 137
2 155 20 23 23 25 47 9 105 -20 74 -49 89 -113 59 -37 -18 -51 -47 -35 -75 6
-11 5 -28 -2 -46 l-11 -28 -14 28 c-10 19 -12 32 -5 45 16 29 2 58 -35 76 -45
21 -67 20 -88 -3z"/>
</g>
</svg>
