<svg width="35" height="42" viewBox="0 0 35 42" fill="none" xmlns="http://www.w3.org/2000/svg">
<path d="M17.4277 33.5748C17.4226 34.2617 17.3471 34.9462 17.2026 35.6175L23.3894 29.3723L17.4277 23.3614V33.5748Z" fill="#444444"/>
<path d="M21.3997 8.60144L17.4277 12.6063V21.2895L24.4133 28.34L32.6914 19.9936C34.1698 18.499 35 16.4743 35 14.3634C35 12.2526 34.1698 10.2278 32.6914 8.73323L32.5679 8.60144C31.0856 7.11086 29.0774 6.27379 26.9838 6.27379C24.8903 6.27379 22.8821 7.11086 21.3997 8.60144ZM23.7379 12.4598L20.5719 15.652C20.4352 15.7889 20.2501 15.8654 20.0574 15.8647C19.8647 15.864 19.6802 15.7862 19.5444 15.6483C19.4086 15.5105 19.3327 15.3239 19.3334 15.1296C19.3341 14.9353 19.4113 14.7492 19.548 14.6123L22.7068 11.4202C22.8435 11.2823 23.029 11.2049 23.2224 11.2049C23.4157 11.2049 23.6012 11.2823 23.7379 11.4202C23.8747 11.5581 23.9515 11.745 23.9515 11.94C23.9515 12.135 23.8747 12.322 23.7379 12.4598Z" fill="#444444"/>
<path d="M0 21.8239V33.5382C0 35.6742 0.841557 37.7226 2.33954 39.233C3.83752 40.7433 5.86922 41.5918 7.98768 41.5918H8.0603C9.10925 41.5918 10.1479 41.3835 11.117 40.9788C12.0862 40.574 12.9667 39.9808 13.7084 39.233C14.4502 38.4851 15.0385 37.5973 15.4399 36.6202C15.8414 35.6431 16.048 34.5958 16.048 33.5382V21.8239H0ZM4.12455 23.6836V28.8086C4.12455 29.0028 4.04804 29.189 3.91186 29.3263C3.77568 29.4636 3.59098 29.5407 3.39839 29.5407C3.20581 29.5407 3.02111 29.4636 2.88493 29.3263C2.74875 29.189 2.67224 29.0028 2.67224 28.8086V23.6836C2.67224 23.4894 2.74875 23.3032 2.88493 23.1659C3.02111 23.0286 3.20581 22.9514 3.39839 22.9514C3.59098 22.9514 3.77568 23.0286 3.91186 23.1659C4.04804 23.3032 4.12455 23.4894 4.12455 23.6836Z" fill="#444444"/>
<path d="M8.0603 0.5918H7.87876C5.78777 0.599543 3.78494 1.44197 2.30842 2.93478C0.831907 4.4276 0.00190601 6.44927 0 8.55751V20.3597H15.9754V8.55751C15.9744 7.51048 15.7689 6.47389 15.3706 5.50692C14.9724 4.53996 14.3891 3.66156 13.6541 2.92187C12.9191 2.18219 12.0468 1.5957 11.087 1.19591C10.1272 0.796115 9.09876 0.590838 8.0603 0.5918ZM4.03015 13.6459V15.6227C4.03015 15.8169 3.95364 16.0031 3.81746 16.1404C3.68128 16.2777 3.49658 16.3548 3.30399 16.3548C3.11141 16.3548 2.92671 16.2777 2.79053 16.1404C2.65435 16.0031 2.57784 15.8169 2.57784 15.6227V13.6459C2.57784 13.4517 2.65435 13.2655 2.79053 13.1282C2.92671 12.9909 3.11141 12.9138 3.30399 12.9138C3.49658 12.9138 3.68128 12.9909 3.81746 13.1282C3.95364 13.2655 4.03015 13.4517 4.03015 13.6459ZM6.49907 4.66984C6.5412 4.75633 6.56598 4.85037 6.57199 4.94655C6.578 5.04272 6.56512 5.13915 6.53409 5.2303C6.50306 5.32145 6.45448 5.40552 6.39115 5.4777C6.32782 5.54988 6.25098 5.60874 6.16504 5.65091C5.5234 5.96884 4.98314 6.46196 4.60572 7.07417C4.22831 7.68639 4.02889 8.39311 4.03015 9.11394V10.7906C4.02975 10.8874 4.01029 10.9832 3.97289 11.0725C3.9355 11.1617 3.88091 11.2426 3.8123 11.3104C3.71036 11.4111 3.58123 11.4793 3.44105 11.5065C3.30087 11.5337 3.15586 11.5186 3.02414 11.4631C2.89242 11.4076 2.77984 11.3143 2.70046 11.1946C2.62108 11.075 2.57843 10.9345 2.57784 10.7906V9.11394C2.57312 8.11901 2.84739 7.14298 3.36901 6.29839C3.89063 5.4538 4.63837 4.77505 5.52602 4.34037C5.6984 4.25406 5.89772 4.24028 6.08018 4.30205C6.26263 4.36383 6.4133 4.49611 6.49907 4.66984Z" fill="#444444"/>
</svg>
