<svg width="38" height="38" viewBox="0 0 38 38" fill="none" xmlns="http://www.w3.org/2000/svg">
<path d="M8.88018 7.63495L24.029 3.44073L23.2267 1.79594C22.7019 0.726825 21.4217 0.285328 20.3677 0.817721L6.80629 7.63495H8.88018Z" fill="#444444"/>
<path d="M28.7315 3.56193C28.5438 3.56193 28.356 3.5879 28.1682 3.63984L13.7406 7.63495H31.454L30.7883 5.15911C30.5323 4.19387 29.6703 3.56193 28.7315 3.56193Z" fill="#444444"/>
<path d="M33.6773 9.14989H2.1379C1.46367 9.14989 0.861988 9.46586 0.469399 9.96363C0.290174 10.193 0.153622 10.4571 0.0768108 10.7471C0.0298709 10.9289 0 11.1193 0 11.3141V35.4276C0 36.6223 0.955867 37.5918 2.13363 37.5918H33.673C34.8508 37.5918 35.8066 36.6223 35.8066 35.4276V29.3895H23.1457C21.1443 29.3895 19.5185 27.7404 19.5185 25.7103V20.8972C19.5185 19.9016 19.911 18.997 20.5469 18.3348C21.1102 17.7461 21.8655 17.3479 22.7104 17.2483C22.8512 17.2311 22.9963 17.2224 23.1414 17.2224H35.8066V11.3141C35.8109 10.1194 34.855 9.14989 33.6773 9.14989Z" fill="#444444"/>
<path d="M37.3044 19.2913C37.0911 19.0922 36.8393 18.9407 36.5577 18.8412C36.34 18.7676 36.1096 18.7243 35.8664 18.7243H23.1457C21.9678 18.7243 21.012 19.6939 21.012 20.8885V25.706C21.012 26.9007 21.9678 27.8702 23.1457 27.8702H35.8664C36.1096 27.8702 36.34 27.8269 36.5577 27.7533C36.8393 27.6581 37.0911 27.5023 37.3044 27.3032C37.7312 26.9093 38 26.338 38 25.7061V20.8885C38 20.2566 37.7312 19.6852 37.3044 19.2913ZM27.6007 23.7279C27.6007 24.3253 27.1227 24.81 26.5339 24.81H25.8255C25.2366 24.81 24.7587 24.3253 24.7587 23.7279V23.0094C24.7587 22.6632 24.9166 22.3558 25.1683 22.161C25.3518 22.0182 25.578 21.9273 25.8255 21.9273H26.5339C27.1227 21.9273 27.6007 22.4121 27.6007 23.0094V23.7279Z" fill="#444444"/>
</svg>
