<svg width="938" height="564" viewBox="0 0 938 564" fill="none" xmlns="http://www.w3.org/2000/svg">
<path opacity="0.5" d="M-266.153 -381.384C-266.153 -381.384 -197.258 -229.396 -123.566 -155.612C-27.8171 -59.7426 107 -103.501 181.484 9.68454C262.671 133.055 107.381 270.124 196.957 387.545C276.961 492.419 419.663 417.572 510.456 513.257C596.578 604.019 540.594 718.126 621.039 813.955C708.725 918.409 882.025 851.294 928.53 979.499C969.455 1092.32 844.097 1274.99 844.097 1274.99" stroke="#999999"/>
<path opacity="0.5" d="M-229.097 -392C-229.097 -392 -166.056 -237.492 -95.2352 -160.948C-3.21654 -61.4927 133.173 -100.071 203.281 15.8759C279.697 142.257 119.287 273.296 204.314 394.052C280.255 501.904 425.711 432.561 512.785 531.643C595.378 625.627 535.077 737.513 611.805 836.344C695.438 944.07 871.175 883.621 912.751 1013.51C949.337 1127.81 817.096 1305.56 817.096 1305.56" stroke="#999999"/>
</svg>