<svg width="144" height="143" viewBox="0 0 144 143" fill="none" xmlns="http://www.w3.org/2000/svg">
<path d="M72 0L82.4788 22.7014L101.285 6.22472L101.624 31.2255L125.506 23.8226L115.648 46.8L140.476 49.7508L122.124 66.7318L143.606 79.526L119.933 87.5745L134.354 108L109.454 105.724L114.321 130.249L92.4995 118.043L86.9696 142.427L72 122.4L57.0304 142.427L51.5005 118.043L29.6795 130.249L34.5455 105.724L9.64617 108L24.0668 87.5745L0.394424 79.526L21.8761 66.7318L3.52393 49.7508L28.3523 46.8L18.4936 23.8226L42.3756 31.2255L42.715 6.22472L61.5213 22.7014L72 0Z" fill="#F9CA5D"/>
</svg>
