<?xml version="1.0" encoding="UTF-8"?>
<svg xmlns="http://www.w3.org/2000/svg" xmlns:xlink="http://www.w3.org/1999/xlink" width="118px" height="118px" viewBox="0 0 118 118" version="1.1">
<g id="surface1">
<path style=" stroke:none;fill-rule:nonzero;fill:rgb(5.490196%,59.215686%,61.176471%);fill-opacity:1;" d="M 114.71875 89.824219 L 96.777344 71.878906 C 92.652344 67.757812 85.945312 67.757812 81.824219 71.878906 L 79.453125 74.25 C 77.621094 76.082031 75.1875 77.089844 72.597656 77.089844 C 70.007812 77.089844 67.574219 76.082031 65.742188 74.25 L 43.566406 52.074219 C 41.734375 50.242188 40.726562 47.808594 40.726562 45.21875 C 40.726562 42.628906 41.734375 40.191406 43.566406 38.359375 L 45.9375 35.992188 C 50.058594 31.867188 50.058594 25.160156 45.9375 21.039062 L 27.992188 3.09375 C 23.871094 -1.027344 17.160156 -1.027344 13.039062 3.09375 C -2.121094 18.253906 -4.320312 42.085938 7.804688 59.765625 C 21.367188 79.542969 38.273438 96.449219 58.046875 110.011719 C 65.6875 115.25 74.472656 117.816406 83.214844 117.816406 C 94.703125 117.8125 106.113281 113.382812 114.71875 104.777344 C 116.71875 102.777344 117.816406 100.125 117.816406 97.300781 C 117.816406 94.476562 116.71875 91.820312 114.71875 89.824219 Z M 18.421875 8.476562 C 18.980469 7.917969 19.722656 7.609375 20.515625 7.609375 C 21.304688 7.609375 22.050781 7.917969 22.609375 8.476562 L 40.550781 26.421875 C 41.113281 26.980469 41.417969 27.722656 41.417969 28.515625 C 41.417969 29.304688 41.113281 30.046875 40.550781 30.609375 L 39.484375 31.675781 L 17.378906 9.570312 C 17.71875 9.199219 18.066406 8.835938 18.421875 8.476562 Z M 62.355469 103.734375 C 43.355469 90.703125 27.113281 74.460938 14.082031 55.460938 C 5.804688 43.390625 5.585938 27.867188 12.785156 15.742188 L 34.796875 37.753906 C 33.695312 40.054688 33.113281 42.589844 33.113281 45.21875 C 33.113281 49.839844 34.914062 54.1875 38.183594 57.457031 L 60.359375 79.632812 C 63.628906 82.902344 67.972656 84.703125 72.597656 84.703125 C 75.222656 84.703125 77.757812 84.117188 80.058594 83.019531 L 102.074219 105.03125 C 89.949219 112.226562 74.421875 112.011719 62.355469 103.734375 Z M 109.335938 99.390625 C 108.980469 99.75 108.613281 100.097656 108.246094 100.4375 L 86.136719 78.328125 L 87.207031 77.261719 C 87.765625 76.703125 88.507812 76.394531 89.300781 76.394531 C 90.089844 76.394531 90.835938 76.703125 91.394531 77.261719 L 109.335938 95.207031 C 110.492188 96.359375 110.492188 98.238281 109.335938 99.390625 Z M 109.335938 99.390625 "/>
</g>
</svg>
