<?xml version="1.0" encoding="utf-8"?>
<!-- Generator: Adobe Illustrator 19.0.0, SVG Export Plug-In . SVG Version: 6.00 Build 0)  -->
<svg version="1.1" xmlns="http://www.w3.org/2000/svg" xmlns:xlink="http://www.w3.org/1999/xlink" x="0px" y="0px"
	 viewBox="0 0 165.8 165.8" style="enable-background:new 0 0 165.8 165.8;" xml:space="preserve">
<style type="text/css">
	.st0{display:none;}
	.st1{display:inline;fill:#00DEB6;}
	.st2{display:inline;}
	.st3{fill:#6000FF;}
	.st4{fill:#FFFF00;}
	.st5{fill:#EB0085;}
	.st6{display:inline;fill:#FFFF00;}
	.st7{fill:#FF4900;}
	.st8{fill:#7F0076;}
	.st9{display:inline;fill:#FF7CFF;}
</style>
<g id="Capa_1" class="st0">
	<circle id="XMLID_7_" class="st1" cx="82.9" cy="82.9" r="82.9"/>
	<g id="XMLID_26_" class="st2">
		<g id="XMLID_10_">
			<path id="XMLID_11_" class="st3" d="M53,144l-11-22.3h5.3l4.6,10.6c0.1,0.3,0.3,0.8,0.5,1.5c0.2,0.7,0.4,1.4,0.6,2.3
				c0.1-0.6,0.3-1.3,0.5-1.9c0.2-0.6,0.4-1.3,0.7-1.9l4.6-10.6h5.2L53,144z"/>
			<path id="XMLID_13_" class="st3" d="M66.7,112.6c0-0.8,0.3-1.5,0.9-2.1c0.6-0.6,1.3-0.9,2.1-0.9c0.9,0,1.6,0.3,2.1,0.9
				c0.6,0.6,0.9,1.3,0.9,2.1c0,0.9-0.3,1.6-0.9,2.2c-0.6,0.6-1.3,0.9-2.1,0.9c-0.8,0-1.5-0.3-2.1-0.9
				C67,114.1,66.7,113.4,66.7,112.6z M67.3,142.7v-21h4.8v21H67.3z"/>
			<path id="XMLID_16_" class="st3" d="M86.4,144l-11-22.3h5.3l4.6,10.6c0.1,0.3,0.3,0.8,0.5,1.5c0.2,0.7,0.4,1.4,0.6,2.3
				c0.1-0.6,0.3-1.3,0.5-1.9c0.2-0.6,0.4-1.3,0.7-1.9l4.6-10.6h5.2L86.4,144z"/>
			<path id="XMLID_18_" class="st3" d="M98.9,132.2c0-1.5,0.3-3,0.9-4.4c0.6-1.4,1.4-2.6,2.5-3.7c1.1-1.1,2.3-1.9,3.7-2.4
				c1.4-0.6,2.9-0.8,4.4-0.8c1.6,0,3.1,0.3,4.5,0.8c1.4,0.6,2.7,1.4,3.8,2.5c1.1,1.1,2,2.3,2.5,3.7c0.6,1.4,0.9,2.8,0.9,4.3
				c0,1.6-0.3,3-0.9,4.4c-0.6,1.4-1.4,2.6-2.5,3.6c-1.2,1.1-2.4,1.9-3.8,2.5c-1.4,0.6-2.9,0.9-4.4,0.9c-1.5,0-3-0.3-4.4-0.9
				c-1.4-0.6-2.7-1.4-3.8-2.5c-1.1-1.1-2-2.3-2.5-3.7C99.2,135.2,98.9,133.7,98.9,132.2z M117,132.2c0-2-0.6-3.6-1.9-5
				c-1.3-1.4-2.8-2-4.6-2c-1.8,0-3.3,0.7-4.6,2c-1.3,1.4-1.9,3-1.9,5c0,2,0.6,3.6,1.9,5c1.3,1.4,2.8,2,4.6,2s3.3-0.7,4.6-2
				C116.4,135.8,117,134.2,117,132.2z"/>
		</g>
		<g id="XMLID_25_">
			<g id="XMLID_5_">
				<circle id="XMLID_2_" class="st3" cx="82.9" cy="72.9" r="11.1"/>
			</g>
			<g id="XMLID_8_">
				<path id="XMLID_24_" class="st3" d="M38.6,110.2c-2,0-4-0.9-5.2-2.7c-7.1-10.2-10.9-22.2-10.9-34.7c0-12.5,3.8-24.5,10.9-34.7
					c2-2.9,6-3.6,8.9-1.6c2.9,2,3.6,6,1.6,8.9c-5.6,8-8.6,17.5-8.6,27.4c0,9.9,3,19.3,8.6,27.4c2,2.9,1.3,6.8-1.6,8.9
					C41.1,109.9,39.8,110.2,38.6,110.2z"/>
			</g>
			<g id="XMLID_6_">
				<path id="XMLID_23_" class="st3" d="M127.2,110.2c-1.3,0-2.5-0.4-3.6-1.2c-2.9-2-3.6-6-1.6-8.9c5.6-8,8.6-17.5,8.6-27.4
					c0-9.9-3-19.3-8.6-27.4c-2-2.9-1.3-6.8,1.6-8.9c2.9-2,6.8-1.3,8.9,1.6c7.1,10.2,10.9,22.2,10.9,34.7c0,12.5-3.8,24.5-10.9,34.7
					C131.2,109.3,129.2,110.2,127.2,110.2z"/>
			</g>
			<g id="XMLID_9_">
				<path id="XMLID_22_" class="st3" d="M58.8,96.1c-2,0-4-0.9-5.2-2.7c-4.2-6-6.5-13.1-6.5-20.5c0-7.4,2.2-14.5,6.5-20.5
					c2-2.9,6-3.6,8.9-1.6c2.9,2,3.6,6,1.6,8.9c-2.7,3.9-4.2,8.5-4.2,13.2c0,4.8,1.4,9.3,4.2,13.2c2,2.9,1.3,6.8-1.6,8.9
					C61.3,95.7,60,96.1,58.8,96.1z"/>
			</g>
			<g id="XMLID_1_">
				<path id="XMLID_21_" class="st3" d="M107,96.1c-1.3,0-2.5-0.4-3.6-1.2c-2.9-2-3.6-6-1.6-8.9c2.7-3.9,4.2-8.5,4.2-13.2
					c0-4.8-1.4-9.3-4.2-13.2c-2-2.9-1.3-6.8,1.6-8.9c2.9-2,6.8-1.3,8.9,1.6c4.2,6,6.5,13.1,6.5,20.5c0,7.4-2.2,14.5-6.5,20.5
					C111,95.2,109,96.1,107,96.1z"/>
			</g>
		</g>
	</g>
</g>
<g id="Capa_2">
	<circle id="XMLID_100_" class="st4" cx="82.9" cy="82.9" r="82.9"/>
	<g id="XMLID_77_">
		<g id="XMLID_89_">
			<path id="XMLID_98_" class="st5" d="M53,144l-11-22.3h5.3l4.6,10.6c0.1,0.3,0.3,0.8,0.5,1.5c0.2,0.7,0.4,1.4,0.6,2.3
				c0.1-0.6,0.3-1.3,0.5-1.9c0.2-0.6,0.4-1.3,0.7-1.9l4.6-10.6h5.2L53,144z"/>
			<path id="XMLID_95_" class="st5" d="M66.7,112.6c0-0.8,0.3-1.5,0.9-2.1c0.6-0.6,1.3-0.9,2.1-0.9c0.9,0,1.6,0.3,2.1,0.9
				c0.6,0.6,0.9,1.3,0.9,2.1c0,0.9-0.3,1.6-0.9,2.2c-0.6,0.6-1.3,0.9-2.1,0.9c-0.8,0-1.5-0.3-2.1-0.9
				C67,114.1,66.7,113.4,66.7,112.6z M67.3,142.7v-21h4.8v21H67.3z"/>
			<path id="XMLID_93_" class="st5" d="M86.4,144l-11-22.3h5.3l4.6,10.6c0.1,0.3,0.3,0.8,0.5,1.5c0.2,0.7,0.4,1.4,0.6,2.3
				c0.1-0.6,0.3-1.3,0.5-1.9c0.2-0.6,0.4-1.3,0.7-1.9l4.6-10.6h5.2L86.4,144z"/>
			<path id="XMLID_90_" class="st5" d="M98.9,132.2c0-1.5,0.3-3,0.9-4.4c0.6-1.4,1.4-2.6,2.5-3.7c1.1-1.1,2.3-1.9,3.7-2.4
				c1.4-0.6,2.9-0.8,4.4-0.8c1.6,0,3.1,0.3,4.5,0.8c1.4,0.6,2.7,1.4,3.8,2.5c1.1,1.1,2,2.3,2.5,3.7c0.6,1.4,0.9,2.8,0.9,4.3
				c0,1.6-0.3,3-0.9,4.4c-0.6,1.4-1.4,2.6-2.5,3.6c-1.2,1.1-2.4,1.9-3.8,2.5c-1.4,0.6-2.9,0.9-4.4,0.9c-1.5,0-3-0.3-4.4-0.9
				c-1.4-0.6-2.7-1.4-3.8-2.5c-1.1-1.1-2-2.3-2.5-3.7C99.2,135.2,98.9,133.7,98.9,132.2z M117,132.2c0-2-0.6-3.6-1.9-5
				c-1.3-1.4-2.8-2-4.6-2c-1.8,0-3.3,0.7-4.6,2c-1.3,1.4-1.9,3-1.9,5c0,2,0.6,3.6,1.9,5c1.3,1.4,2.8,2,4.6,2s3.3-0.7,4.6-2
				C116.4,135.8,117,134.2,117,132.2z"/>
		</g>
		<g id="XMLID_78_">
			<g id="XMLID_87_">
				<circle id="XMLID_88_" class="st5" cx="82.9" cy="72.9" r="11.1"/>
			</g>
			<g id="XMLID_85_">
				<path id="XMLID_86_" class="st5" d="M38.6,110.2c-2,0-4-0.9-5.2-2.7c-7.1-10.2-10.9-22.2-10.9-34.7c0-12.5,3.8-24.5,10.9-34.7
					c2-2.9,6-3.6,8.9-1.6c2.9,2,3.6,6,1.6,8.9c-5.6,8-8.6,17.5-8.6,27.4c0,9.9,3,19.3,8.6,27.4c2,2.9,1.3,6.8-1.6,8.9
					C41.1,109.9,39.8,110.2,38.6,110.2z"/>
			</g>
			<g id="XMLID_83_">
				<path id="XMLID_84_" class="st5" d="M127.2,110.2c-1.3,0-2.5-0.4-3.6-1.2c-2.9-2-3.6-6-1.6-8.9c5.6-8,8.6-17.5,8.6-27.4
					c0-9.9-3-19.3-8.6-27.4c-2-2.9-1.3-6.8,1.6-8.9c2.9-2,6.8-1.3,8.9,1.6c7.1,10.2,10.9,22.2,10.9,34.7c0,12.5-3.8,24.5-10.9,34.7
					C131.2,109.3,129.2,110.2,127.2,110.2z"/>
			</g>
			<g id="XMLID_81_">
				<path id="XMLID_82_" class="st5" d="M58.8,96.1c-2,0-4-0.9-5.2-2.7c-4.2-6-6.5-13.1-6.5-20.5c0-7.4,2.2-14.5,6.5-20.5
					c2-2.9,6-3.6,8.9-1.6c2.9,2,3.6,6,1.6,8.9c-2.7,3.9-4.2,8.5-4.2,13.2c0,4.8,1.4,9.3,4.2,13.2c2,2.9,1.3,6.8-1.6,8.9
					C61.3,95.7,60,96.1,58.8,96.1z"/>
			</g>
			<g id="XMLID_79_">
				<path id="XMLID_80_" class="st5" d="M107,96.1c-1.3,0-2.5-0.4-3.6-1.2c-2.9-2-3.6-6-1.6-8.9c2.7-3.9,4.2-8.5,4.2-13.2
					c0-4.8-1.4-9.3-4.2-13.2c-2-2.9-1.3-6.8,1.6-8.9c2.9-2,6.8-1.3,8.9,1.6c4.2,6,6.5,13.1,6.5,20.5c0,7.4-2.2,14.5-6.5,20.5
					C111,95.2,109,96.1,107,96.1z"/>
			</g>
		</g>
	</g>
</g>
<g id="Capa_3" class="st0">
	<circle id="XMLID_124_" class="st6" cx="82.9" cy="82.9" r="82.9"/>
	<g id="XMLID_101_" class="st2">
		<g id="XMLID_113_">
			<path id="XMLID_122_" class="st7" d="M53,144l-11-22.3h5.3l4.6,10.6c0.1,0.3,0.3,0.8,0.5,1.5c0.2,0.7,0.4,1.4,0.6,2.3
				c0.1-0.6,0.3-1.3,0.5-1.9c0.2-0.6,0.4-1.3,0.7-1.9l4.6-10.6h5.2L53,144z"/>
			<path id="XMLID_119_" class="st7" d="M66.7,112.6c0-0.8,0.3-1.5,0.9-2.1c0.6-0.6,1.3-0.9,2.1-0.9c0.9,0,1.6,0.3,2.1,0.9
				c0.6,0.6,0.9,1.3,0.9,2.1c0,0.9-0.3,1.6-0.9,2.2c-0.6,0.6-1.3,0.9-2.1,0.9c-0.8,0-1.5-0.3-2.1-0.9
				C67,114.1,66.7,113.4,66.7,112.6z M67.3,142.7v-21h4.8v21H67.3z"/>
			<path id="XMLID_117_" class="st7" d="M86.4,144l-11-22.3h5.3l4.6,10.6c0.1,0.3,0.3,0.8,0.5,1.5c0.2,0.7,0.4,1.4,0.6,2.3
				c0.1-0.6,0.3-1.3,0.5-1.9c0.2-0.6,0.4-1.3,0.7-1.9l4.6-10.6h5.2L86.4,144z"/>
			<path id="XMLID_114_" class="st7" d="M98.9,132.2c0-1.5,0.3-3,0.9-4.4c0.6-1.4,1.4-2.6,2.5-3.7c1.1-1.1,2.3-1.9,3.7-2.4
				c1.4-0.6,2.9-0.8,4.4-0.8c1.6,0,3.1,0.3,4.5,0.8c1.4,0.6,2.7,1.4,3.8,2.5c1.1,1.1,2,2.3,2.5,3.7c0.6,1.4,0.9,2.8,0.9,4.3
				c0,1.6-0.3,3-0.9,4.4c-0.6,1.4-1.4,2.6-2.5,3.6c-1.2,1.1-2.4,1.9-3.8,2.5c-1.4,0.6-2.9,0.9-4.4,0.9c-1.5,0-3-0.3-4.4-0.9
				c-1.4-0.6-2.7-1.4-3.8-2.5c-1.1-1.1-2-2.3-2.5-3.7C99.2,135.2,98.9,133.7,98.9,132.2z M117,132.2c0-2-0.6-3.6-1.9-5
				c-1.3-1.4-2.8-2-4.6-2c-1.8,0-3.3,0.7-4.6,2c-1.3,1.4-1.9,3-1.9,5c0,2,0.6,3.6,1.9,5c1.3,1.4,2.8,2,4.6,2s3.3-0.7,4.6-2
				C116.4,135.8,117,134.2,117,132.2z"/>
		</g>
		<g id="XMLID_102_">
			<g id="XMLID_111_">
				<circle id="XMLID_112_" class="st7" cx="82.9" cy="72.9" r="11.1"/>
			</g>
			<g id="XMLID_109_">
				<path id="XMLID_110_" class="st7" d="M38.6,110.2c-2,0-4-0.9-5.2-2.7c-7.1-10.2-10.9-22.2-10.9-34.7c0-12.5,3.8-24.5,10.9-34.7
					c2-2.9,6-3.6,8.9-1.6c2.9,2,3.6,6,1.6,8.9c-5.6,8-8.6,17.5-8.6,27.4c0,9.9,3,19.3,8.6,27.4c2,2.9,1.3,6.8-1.6,8.9
					C41.1,109.9,39.8,110.2,38.6,110.2z"/>
			</g>
			<g id="XMLID_107_">
				<path id="XMLID_108_" class="st7" d="M127.2,110.2c-1.3,0-2.5-0.4-3.6-1.2c-2.9-2-3.6-6-1.6-8.9c5.6-8,8.6-17.5,8.6-27.4
					c0-9.9-3-19.3-8.6-27.4c-2-2.9-1.3-6.8,1.6-8.9c2.9-2,6.8-1.3,8.9,1.6c7.1,10.2,10.9,22.2,10.9,34.7c0,12.5-3.8,24.5-10.9,34.7
					C131.2,109.3,129.2,110.2,127.2,110.2z"/>
			</g>
			<g id="XMLID_105_">
				<path id="XMLID_106_" class="st7" d="M58.8,96.1c-2,0-4-0.9-5.2-2.7c-4.2-6-6.5-13.1-6.5-20.5c0-7.4,2.2-14.5,6.5-20.5
					c2-2.9,6-3.6,8.9-1.6c2.9,2,3.6,6,1.6,8.9c-2.7,3.9-4.2,8.5-4.2,13.2c0,4.8,1.4,9.3,4.2,13.2c2,2.9,1.3,6.8-1.6,8.9
					C61.3,95.7,60,96.1,58.8,96.1z"/>
			</g>
			<g id="XMLID_103_">
				<path id="XMLID_104_" class="st7" d="M107,96.1c-1.3,0-2.5-0.4-3.6-1.2c-2.9-2-3.6-6-1.6-8.9c2.7-3.9,4.2-8.5,4.2-13.2
					c0-4.8-1.4-9.3-4.2-13.2c-2-2.9-1.3-6.8,1.6-8.9c2.9-2,6.8-1.3,8.9,1.6c4.2,6,6.5,13.1,6.5,20.5c0,7.4-2.2,14.5-6.5,20.5
					C111,95.2,109,96.1,107,96.1z"/>
			</g>
		</g>
	</g>
</g>
<g id="Capa_4" class="st0">
	<circle id="XMLID_148_" class="st6" cx="82.9" cy="82.9" r="82.9"/>
	<g id="XMLID_125_" class="st2">
		<g id="XMLID_137_">
			<path id="XMLID_146_" class="st8" d="M53,144l-11-22.3h5.3l4.6,10.6c0.1,0.3,0.3,0.8,0.5,1.5c0.2,0.7,0.4,1.4,0.6,2.3
				c0.1-0.6,0.3-1.3,0.5-1.9c0.2-0.6,0.4-1.3,0.7-1.9l4.6-10.6h5.2L53,144z"/>
			<path id="XMLID_143_" class="st8" d="M66.7,112.6c0-0.8,0.3-1.5,0.9-2.1c0.6-0.6,1.3-0.9,2.1-0.9c0.9,0,1.6,0.3,2.1,0.9
				c0.6,0.6,0.9,1.3,0.9,2.1c0,0.9-0.3,1.6-0.9,2.2c-0.6,0.6-1.3,0.9-2.1,0.9c-0.8,0-1.5-0.3-2.1-0.9
				C67,114.1,66.7,113.4,66.7,112.6z M67.3,142.7v-21h4.8v21H67.3z"/>
			<path id="XMLID_141_" class="st8" d="M86.4,144l-11-22.3h5.3l4.6,10.6c0.1,0.3,0.3,0.8,0.5,1.5c0.2,0.7,0.4,1.4,0.6,2.3
				c0.1-0.6,0.3-1.3,0.5-1.9c0.2-0.6,0.4-1.3,0.7-1.9l4.6-10.6h5.2L86.4,144z"/>
			<path id="XMLID_138_" class="st8" d="M98.9,132.2c0-1.5,0.3-3,0.9-4.4c0.6-1.4,1.4-2.6,2.5-3.7c1.1-1.1,2.3-1.9,3.7-2.4
				c1.4-0.6,2.9-0.8,4.4-0.8c1.6,0,3.1,0.3,4.5,0.8c1.4,0.6,2.7,1.4,3.8,2.5c1.1,1.1,2,2.3,2.5,3.7c0.6,1.4,0.9,2.8,0.9,4.3
				c0,1.6-0.3,3-0.9,4.4c-0.6,1.4-1.4,2.6-2.5,3.6c-1.2,1.1-2.4,1.9-3.8,2.5c-1.4,0.6-2.9,0.9-4.4,0.9c-1.5,0-3-0.3-4.4-0.9
				c-1.4-0.6-2.7-1.4-3.8-2.5c-1.1-1.1-2-2.3-2.5-3.7C99.2,135.2,98.9,133.7,98.9,132.2z M117,132.2c0-2-0.6-3.6-1.9-5
				c-1.3-1.4-2.8-2-4.6-2c-1.8,0-3.3,0.7-4.6,2c-1.3,1.4-1.9,3-1.9,5c0,2,0.6,3.6,1.9,5c1.3,1.4,2.8,2,4.6,2s3.3-0.7,4.6-2
				C116.4,135.8,117,134.2,117,132.2z"/>
		</g>
		<g id="XMLID_126_">
			<g id="XMLID_135_">
				<circle id="XMLID_136_" class="st8" cx="82.9" cy="72.9" r="11.1"/>
			</g>
			<g id="XMLID_133_">
				<path id="XMLID_134_" class="st8" d="M38.6,110.2c-2,0-4-0.9-5.2-2.7c-7.1-10.2-10.9-22.2-10.9-34.7c0-12.5,3.8-24.5,10.9-34.7
					c2-2.9,6-3.6,8.9-1.6c2.9,2,3.6,6,1.6,8.9c-5.6,8-8.6,17.5-8.6,27.4c0,9.9,3,19.3,8.6,27.4c2,2.9,1.3,6.8-1.6,8.9
					C41.1,109.9,39.8,110.2,38.6,110.2z"/>
			</g>
			<g id="XMLID_131_">
				<path id="XMLID_132_" class="st8" d="M127.2,110.2c-1.3,0-2.5-0.4-3.6-1.2c-2.9-2-3.6-6-1.6-8.9c5.6-8,8.6-17.5,8.6-27.4
					c0-9.9-3-19.3-8.6-27.4c-2-2.9-1.3-6.8,1.6-8.9c2.9-2,6.8-1.3,8.9,1.6c7.1,10.2,10.9,22.2,10.9,34.7c0,12.5-3.8,24.5-10.9,34.7
					C131.2,109.3,129.2,110.2,127.2,110.2z"/>
			</g>
			<g id="XMLID_129_">
				<path id="XMLID_130_" class="st8" d="M58.8,96.1c-2,0-4-0.9-5.2-2.7c-4.2-6-6.5-13.1-6.5-20.5c0-7.4,2.2-14.5,6.5-20.5
					c2-2.9,6-3.6,8.9-1.6c2.9,2,3.6,6,1.6,8.9c-2.7,3.9-4.2,8.5-4.2,13.2c0,4.8,1.4,9.3,4.2,13.2c2,2.9,1.3,6.8-1.6,8.9
					C61.3,95.7,60,96.1,58.8,96.1z"/>
			</g>
			<g id="XMLID_127_">
				<path id="XMLID_128_" class="st8" d="M107,96.1c-1.3,0-2.5-0.4-3.6-1.2c-2.9-2-3.6-6-1.6-8.9c2.7-3.9,4.2-8.5,4.2-13.2
					c0-4.8-1.4-9.3-4.2-13.2c-2-2.9-1.3-6.8,1.6-8.9c2.9-2,6.8-1.3,8.9,1.6c4.2,6,6.5,13.1,6.5,20.5c0,7.4-2.2,14.5-6.5,20.5
					C111,95.2,109,96.1,107,96.1z"/>
			</g>
		</g>
	</g>
</g>
<g id="Capa_5" class="st0">
	<circle id="XMLID_172_" class="st9" cx="82.9" cy="82.9" r="82.9"/>
	<g id="XMLID_149_" class="st2">
		<g id="XMLID_161_">
			<path id="XMLID_170_" class="st3" d="M53,144l-11-22.3h5.3l4.6,10.6c0.1,0.3,0.3,0.8,0.5,1.5c0.2,0.7,0.4,1.4,0.6,2.3
				c0.1-0.6,0.3-1.3,0.5-1.9c0.2-0.6,0.4-1.3,0.7-1.9l4.6-10.6h5.2L53,144z"/>
			<path id="XMLID_167_" class="st3" d="M66.7,112.6c0-0.8,0.3-1.5,0.9-2.1c0.6-0.6,1.3-0.9,2.1-0.9c0.9,0,1.6,0.3,2.1,0.9
				c0.6,0.6,0.9,1.3,0.9,2.1c0,0.9-0.3,1.6-0.9,2.2c-0.6,0.6-1.3,0.9-2.1,0.9c-0.8,0-1.5-0.3-2.1-0.9
				C67,114.1,66.7,113.4,66.7,112.6z M67.3,142.7v-21h4.8v21H67.3z"/>
			<path id="XMLID_165_" class="st3" d="M86.4,144l-11-22.3h5.3l4.6,10.6c0.1,0.3,0.3,0.8,0.5,1.5c0.2,0.7,0.4,1.4,0.6,2.3
				c0.1-0.6,0.3-1.3,0.5-1.9c0.2-0.6,0.4-1.3,0.7-1.9l4.6-10.6h5.2L86.4,144z"/>
			<path id="XMLID_162_" class="st3" d="M98.9,132.2c0-1.5,0.3-3,0.9-4.4c0.6-1.4,1.4-2.6,2.5-3.7c1.1-1.1,2.3-1.9,3.7-2.4
				c1.4-0.6,2.9-0.8,4.4-0.8c1.6,0,3.1,0.3,4.5,0.8c1.4,0.6,2.7,1.4,3.8,2.5c1.1,1.1,2,2.3,2.5,3.7c0.6,1.4,0.9,2.8,0.9,4.3
				c0,1.6-0.3,3-0.9,4.4c-0.6,1.4-1.4,2.6-2.5,3.6c-1.2,1.1-2.4,1.9-3.8,2.5c-1.4,0.6-2.9,0.9-4.4,0.9c-1.5,0-3-0.3-4.4-0.9
				c-1.4-0.6-2.7-1.4-3.8-2.5c-1.1-1.1-2-2.3-2.5-3.7C99.2,135.2,98.9,133.7,98.9,132.2z M117,132.2c0-2-0.6-3.6-1.9-5
				c-1.3-1.4-2.8-2-4.6-2c-1.8,0-3.3,0.7-4.6,2c-1.3,1.4-1.9,3-1.9,5c0,2,0.6,3.6,1.9,5c1.3,1.4,2.8,2,4.6,2s3.3-0.7,4.6-2
				C116.4,135.8,117,134.2,117,132.2z"/>
		</g>
		<g id="XMLID_150_">
			<g id="XMLID_159_">
				<circle id="XMLID_160_" class="st3" cx="82.9" cy="72.9" r="11.1"/>
			</g>
			<g id="XMLID_157_">
				<path id="XMLID_158_" class="st3" d="M38.6,110.2c-2,0-4-0.9-5.2-2.7c-7.1-10.2-10.9-22.2-10.9-34.7c0-12.5,3.8-24.5,10.9-34.7
					c2-2.9,6-3.6,8.9-1.6c2.9,2,3.6,6,1.6,8.9c-5.6,8-8.6,17.5-8.6,27.4c0,9.9,3,19.3,8.6,27.4c2,2.9,1.3,6.8-1.6,8.9
					C41.1,109.9,39.8,110.2,38.6,110.2z"/>
			</g>
			<g id="XMLID_155_">
				<path id="XMLID_156_" class="st3" d="M127.2,110.2c-1.3,0-2.5-0.4-3.6-1.2c-2.9-2-3.6-6-1.6-8.9c5.6-8,8.6-17.5,8.6-27.4
					c0-9.9-3-19.3-8.6-27.4c-2-2.9-1.3-6.8,1.6-8.9c2.9-2,6.8-1.3,8.9,1.6c7.1,10.2,10.9,22.2,10.9,34.7c0,12.5-3.8,24.5-10.9,34.7
					C131.2,109.3,129.2,110.2,127.2,110.2z"/>
			</g>
			<g id="XMLID_153_">
				<path id="XMLID_154_" class="st3" d="M58.8,96.1c-2,0-4-0.9-5.2-2.7c-4.2-6-6.5-13.1-6.5-20.5c0-7.4,2.2-14.5,6.5-20.5
					c2-2.9,6-3.6,8.9-1.6c2.9,2,3.6,6,1.6,8.9c-2.7,3.9-4.2,8.5-4.2,13.2c0,4.8,1.4,9.3,4.2,13.2c2,2.9,1.3,6.8-1.6,8.9
					C61.3,95.7,60,96.1,58.8,96.1z"/>
			</g>
			<g id="XMLID_151_">
				<path id="XMLID_152_" class="st3" d="M107,96.1c-1.3,0-2.5-0.4-3.6-1.2c-2.9-2-3.6-6-1.6-8.9c2.7-3.9,4.2-8.5,4.2-13.2
					c0-4.8-1.4-9.3-4.2-13.2c-2-2.9-1.3-6.8,1.6-8.9c2.9-2,6.8-1.3,8.9,1.6c4.2,6,6.5,13.1,6.5,20.5c0,7.4-2.2,14.5-6.5,20.5
					C111,95.2,109,96.1,107,96.1z"/>
			</g>
		</g>
	</g>
</g>
<g id="Capa_6" class="st0">
	<circle id="XMLID_196_" class="st1" cx="82.9" cy="82.9" r="82.9"/>
	<g id="XMLID_173_" class="st2">
		<g id="XMLID_185_">
			<path id="XMLID_194_" class="st8" d="M53,144l-11-22.3h5.3l4.6,10.6c0.1,0.3,0.3,0.8,0.5,1.5c0.2,0.7,0.4,1.4,0.6,2.3
				c0.1-0.6,0.3-1.3,0.5-1.9c0.2-0.6,0.4-1.3,0.7-1.9l4.6-10.6h5.2L53,144z"/>
			<path id="XMLID_191_" class="st8" d="M66.7,112.6c0-0.8,0.3-1.5,0.9-2.1c0.6-0.6,1.3-0.9,2.1-0.9c0.9,0,1.6,0.3,2.1,0.9
				c0.6,0.6,0.9,1.3,0.9,2.1c0,0.9-0.3,1.6-0.9,2.2c-0.6,0.6-1.3,0.9-2.1,0.9c-0.8,0-1.5-0.3-2.1-0.9
				C67,114.1,66.7,113.4,66.7,112.6z M67.3,142.7v-21h4.8v21H67.3z"/>
			<path id="XMLID_189_" class="st8" d="M86.4,144l-11-22.3h5.3l4.6,10.6c0.1,0.3,0.3,0.8,0.5,1.5c0.2,0.7,0.4,1.4,0.6,2.3
				c0.1-0.6,0.3-1.3,0.5-1.9c0.2-0.6,0.4-1.3,0.7-1.9l4.6-10.6h5.2L86.4,144z"/>
			<path id="XMLID_186_" class="st8" d="M98.9,132.2c0-1.5,0.3-3,0.9-4.4c0.6-1.4,1.4-2.6,2.5-3.7c1.1-1.1,2.3-1.9,3.7-2.4
				c1.4-0.6,2.9-0.8,4.4-0.8c1.6,0,3.1,0.3,4.5,0.8c1.4,0.6,2.7,1.4,3.8,2.5c1.1,1.1,2,2.3,2.5,3.7c0.6,1.4,0.9,2.8,0.9,4.3
				c0,1.6-0.3,3-0.9,4.4c-0.6,1.4-1.4,2.6-2.5,3.6c-1.2,1.1-2.4,1.9-3.8,2.5c-1.4,0.6-2.9,0.9-4.4,0.9c-1.5,0-3-0.3-4.4-0.9
				c-1.4-0.6-2.7-1.4-3.8-2.5c-1.1-1.1-2-2.3-2.5-3.7C99.2,135.2,98.9,133.7,98.9,132.2z M117,132.2c0-2-0.6-3.6-1.9-5
				c-1.3-1.4-2.8-2-4.6-2c-1.8,0-3.3,0.7-4.6,2c-1.3,1.4-1.9,3-1.9,5c0,2,0.6,3.6,1.9,5c1.3,1.4,2.8,2,4.6,2s3.3-0.7,4.6-2
				C116.4,135.8,117,134.2,117,132.2z"/>
		</g>
		<g id="XMLID_174_">
			<g id="XMLID_183_">
				<circle id="XMLID_184_" class="st8" cx="82.9" cy="72.9" r="11.1"/>
			</g>
			<g id="XMLID_181_">
				<path id="XMLID_182_" class="st8" d="M38.6,110.2c-2,0-4-0.9-5.2-2.7c-7.1-10.2-10.9-22.2-10.9-34.7c0-12.5,3.8-24.5,10.9-34.7
					c2-2.9,6-3.6,8.9-1.6c2.9,2,3.6,6,1.6,8.9c-5.6,8-8.6,17.5-8.6,27.4c0,9.9,3,19.3,8.6,27.4c2,2.9,1.3,6.8-1.6,8.9
					C41.1,109.9,39.8,110.2,38.6,110.2z"/>
			</g>
			<g id="XMLID_179_">
				<path id="XMLID_180_" class="st8" d="M127.2,110.2c-1.3,0-2.5-0.4-3.6-1.2c-2.9-2-3.6-6-1.6-8.9c5.6-8,8.6-17.5,8.6-27.4
					c0-9.9-3-19.3-8.6-27.4c-2-2.9-1.3-6.8,1.6-8.9c2.9-2,6.8-1.3,8.9,1.6c7.1,10.2,10.9,22.2,10.9,34.7c0,12.5-3.8,24.5-10.9,34.7
					C131.2,109.3,129.2,110.2,127.2,110.2z"/>
			</g>
			<g id="XMLID_177_">
				<path id="XMLID_178_" class="st8" d="M58.8,96.1c-2,0-4-0.9-5.2-2.7c-4.2-6-6.5-13.1-6.5-20.5c0-7.4,2.2-14.5,6.5-20.5
					c2-2.9,6-3.6,8.9-1.6c2.9,2,3.6,6,1.6,8.9c-2.7,3.9-4.2,8.5-4.2,13.2c0,4.8,1.4,9.3,4.2,13.2c2,2.9,1.3,6.8-1.6,8.9
					C61.3,95.7,60,96.1,58.8,96.1z"/>
			</g>
			<g id="XMLID_175_">
				<path id="XMLID_176_" class="st8" d="M107,96.1c-1.3,0-2.5-0.4-3.6-1.2c-2.9-2-3.6-6-1.6-8.9c2.7-3.9,4.2-8.5,4.2-13.2
					c0-4.8-1.4-9.3-4.2-13.2c-2-2.9-1.3-6.8,1.6-8.9c2.9-2,6.8-1.3,8.9,1.6c4.2,6,6.5,13.1,6.5,20.5c0,7.4-2.2,14.5-6.5,20.5
					C111,95.2,109,96.1,107,96.1z"/>
			</g>
		</g>
	</g>
</g>
</svg>
