<?xml version="1.0" encoding="utf-8"?>
<!-- Generator: Adobe Illustrator 15.0.0, SVG Export Plug-In . SVG Version: 6.00 Build 0)  -->
<!DOCTYPE svg PUBLIC "-//W3C//DTD SVG 1.1//EN" "http://www.w3.org/Graphics/SVG/1.1/DTD/svg11.dtd">
<svg version="1.1" id="Layer_1" xmlns="http://www.w3.org/2000/svg" xmlns:xlink="http://www.w3.org/1999/xlink" x="0px" y="0px"
	 width="128px" height="128px" viewBox="0 0 128 128" enable-background="new 0 0 128 128" xml:space="preserve">
<rect x="5" y="6" fill="#FFFFFF" width="119" height="116"/>
<path fill="#14377D" d="M118,0H10C4.477,0,0,4.477,0,10v108c0,5.523,4.477,10,10,10h108c5.521,0,10-4.477,10-10V10
	C128,4.477,123.521,0,118,0z M121,112.099c0,4.916-3.984,8.901-8.9,8.901H15.901C10.985,121,7,117.015,7,112.099V15.902
	c0-4.916,3.985-8.901,8.901-8.901h96.197c4.916,0,8.901,3.985,8.901,8.901L121,112.099L121,112.099z"/>
<g>
	<g>
		<path fill="#FFCE34" d="M48.685,34.223c0-0.069,0.035-0.141,0.035-0.246c0-0.672-0.53-1.202-1.202-1.202H22.985
			c-0.919,0-1.626,0.707-1.626,1.591c0.813,23.049,19.054,41.679,41.997,43.197c0.99,0.071,2.016,0.035,3.041,0.035
			c3.252,0,6.646-0.563,9.722-1.236c9.897-2.155,17.252-10.924,17.252-21.527c0-0.743-0.035-1.45-0.106-2.157
			c-0.142-1.308-0.39-2.614-0.742-3.853c-2.615-9.262-11.135-16.051-21.281-16.051c-10.145,0-18.665,6.788-21.316,16.051
			c1.803,6.397,6.434,11.595,12.478,14.211c-2.015-2.157-3.251-5.021-3.251-8.201c0-6.646,5.41-12.02,12.089-12.02
			c6.682,0,12.09,5.373,12.09,12.02c0,3.182-1.236,6.044-3.252,8.201c-2.191,2.368-5.338,3.816-8.838,3.816
			c-9.791,0-18.24-5.832-22.023-14.176c-0.566-1.236-1.025-2.51-1.343-3.853c-0.495-1.909-0.778-3.924-0.778-6.011
			c0-2.897,0.53-5.655,1.449-8.235C48.579,34.471,48.614,34.329,48.685,34.223z"/>
		<path fill="#FFCE34" d="M87.217,72.861c3.041-1.592,4.596-2.935,6.398-4.313c7.248-6.222,11.844-15.483,11.844-25.771
			c0-3.04-0.426-6.011-1.168-8.804c-0.176-0.671-0.813-1.202-1.555-1.236h-7.742c-0.672,0-1.201,0.529-1.201,1.202
			c0,0.142,0.035,0.246,0.07,0.389c0.99,2.616,1.52,5.443,1.52,8.414c0,2.085-0.283,4.101-0.777,6.01
			c0.531,1.908,0.777,3.923,0.777,6.01C95.383,61.655,92.695,67.7,87.217,72.861z"/>
	</g>
	<polygon fill="#14377D" points="25.707,81.168 24.222,81.168 24.222,81.77 25.601,83.29 27.439,83.29 28.889,81.77 28.889,81.168 
		27.439,81.168 26.591,81.77 	"/>
	<path fill="#14377D" d="M27.05,85.835c0.955,0,1.626,0.354,2.015,0.707h1.131v-2.05c-0.813-0.46-1.732-0.778-3.252-0.778
		c-3.323,0-5.55,2.051-5.55,5.586c0,3.499,2.05,5.479,5.338,5.479c1.591,0,2.757-0.459,3.57-1.061v-1.943h-1.061
		c-0.53,0.528-1.167,0.953-2.333,0.953c-1.626,0-2.475-1.023-2.475-3.5C24.435,86.932,25.424,85.835,27.05,85.835z"/>
	<path fill="#14377D" d="M33.555,91.208h0.004c-0.001-0.012-0.003-0.022-0.004-0.035V91.208z"/>
	<path fill="#14377D" d="M35.004,94.778c1.697,0,2.651-0.425,3.358-0.813v-1.662h-0.849c-0.459,0.354-1.131,0.603-2.05,0.603
		c-1.121,0-1.755-0.35-1.904-1.697h-0.004v-0.035c0.001,0.013,0.003,0.023,0.004,0.035h5.086c0-0.104,0.036-0.389,0.036-0.706
		c0-2.758-1.273-4.102-3.818-4.102c-2.439,0-4.136,1.625-4.136,4.241C30.727,93.224,32.176,94.778,35.004,94.778z M34.898,88.063
		c0.742,0,1.167,0.425,1.202,1.661h-2.545C33.696,88.415,34.262,88.098,34.898,88.063z"/>
	<path fill="#14377D" d="M42.04,91.597c1.131,0.144,1.414,0.283,1.414,0.707c0,0.426-0.459,0.603-1.202,0.603
		c-0.884,0-1.556-0.318-1.874-0.603h-0.954v1.805c0.671,0.316,1.52,0.636,2.898,0.707c2.51,0,3.642-1.025,3.642-2.759
		c0-1.732-0.884-2.298-2.793-2.545c-1.025-0.142-1.379-0.283-1.379-0.636c0-0.39,0.283-0.603,1.061-0.603
		c0.813,0,1.449,0.248,1.803,0.494h0.883v-1.802c-0.707-0.319-1.449-0.531-2.757-0.531c-2.051,0-3.429,0.886-3.429,2.651
		C39.353,90.784,40.307,91.385,42.04,91.597z"/>
	<path fill="#14377D" d="M48.473,83.82h-1.768v10.852h2.792v-2.438l0.672-0.742l1.873,3.146h2.616v-0.671l-2.545-4.242l2.227-2.546
		v-0.671h-2.298l-2.545,3.04v-4.276C49.498,84.032,49.321,83.82,48.473,83.82z"/>
	<polygon fill="#14377D" points="61.094,84.457 61.094,83.785 58.442,83.785 57.947,85.48 57.947,85.977 59.538,85.977 	"/>
	<path fill="#14377D" d="M58.018,89.759c-1.874,0-3.182,0.85-3.182,2.545c0,1.627,1.131,2.439,2.581,2.439
		c0.99,0,1.768-0.247,2.333-0.884c0.141,0.564,0.459,0.776,1.025,0.776h1.52v-5.515c0-1.979-1.166-2.792-3.605-2.792
		c-1.45,0-2.545,0.317-3.288,0.637v1.873h0.849c0.495-0.282,1.131-0.53,1.944-0.53c1.025,0,1.378,0.318,1.378,1.025v0.564
		C59.114,89.829,58.619,89.759,58.018,89.759z M59.608,91.243v1.45c-0.318,0.246-0.671,0.459-1.096,0.459
		c-0.601,0-1.025-0.282-1.025-0.989c0-0.708,0.46-0.99,1.202-0.99C59.007,91.173,59.326,91.208,59.608,91.243z"/>
	<path fill="#14377D" d="M71.945,94.566c1.804,0,3.5-1.097,3.5-4.207c0-2.97-1.521-3.959-3.075-3.959
		c-1.132,0-1.909,0.424-2.511,0.989c-0.105-0.743-0.354-0.884-0.777-0.884h-1.943v10.641h2.793v-3.146
		C70.426,94.354,71.063,94.566,71.945,94.566z M69.932,88.733c0.389-0.177,0.848-0.282,1.166-0.282c0.848,0,1.521,0.425,1.521,2.156
		c0,1.803-0.707,2.19-1.556,2.19c-0.459,0-0.813-0.104-1.131-0.316V88.733z"/>
	<path fill="#14377D" d="M84.707,90.607c0-2.616-1.873-4.242-4.313-4.242c-2.476,0-4.349,1.626-4.349,4.242
		c0,2.615,1.873,4.171,4.349,4.136C82.834,94.743,84.707,93.188,84.707,90.607z M78.838,90.643c0-1.626,0.602-2.367,1.521-2.367
		c0.918,0,1.52,0.741,1.52,2.367c0,1.592-0.6,2.299-1.52,2.299S78.838,92.233,78.838,90.643z"/>
	<path fill="#14377D" d="M85.201,89.087c0,1.697,0.955,2.298,2.688,2.51c1.131,0.144,1.414,0.283,1.414,0.707
		c0,0.426-0.459,0.603-1.201,0.603c-0.885,0-1.555-0.318-1.873-0.603h-0.955v1.805c0.672,0.316,1.521,0.636,2.898,0.707
		c2.51,0,3.641-1.025,3.641-2.759c0-1.732-0.883-2.298-2.793-2.545c-1.024-0.142-1.379-0.283-1.379-0.636
		c0-0.39,0.283-0.603,1.062-0.603c0.85,0,1.45,0.248,1.805,0.494h0.884v-1.802c-0.707-0.319-1.449-0.531-2.759-0.531
		C86.582,86.436,85.201,87.32,85.201,89.087z"/>
	<polygon fill="#14377D" points="90.895,84.386 90.895,83.785 89.443,83.785 88.596,84.421 87.748,83.785 86.262,83.785 
		86.262,84.386 87.605,85.977 89.479,85.977 	"/>
	<path fill="#14377D" d="M93.086,84.457v2.05h-0.885v1.769h0.885v4.136c0,1.768,1.061,2.368,2.721,2.368
		c0.709,0,1.238-0.106,1.592-0.212v-1.591h-0.53c-0.707,0-0.99-0.213-0.99-0.954v-3.712h1.521v-1.804h-1.521v-2.05H93.086z"/>
	<path fill="#14377D" d="M101.146,89.759c-1.875,0-3.183,0.85-3.183,2.545c0,1.627,1.132,2.439,2.58,2.439
		c0.99,0,1.769-0.247,2.332-0.884c0.144,0.564,0.461,0.776,1.024,0.776h1.521v-5.515c0-1.979-1.166-2.792-3.604-2.792
		c-1.449,0-2.545,0.317-3.287,0.637v1.873h0.848c0.496-0.282,1.133-0.53,1.945-0.53c1.025,0,1.379,0.318,1.379,1.025v0.564
		C102.24,89.829,101.746,89.759,101.146,89.759z M102.701,92.693c-0.283,0.246-0.637,0.424-1.096,0.459
		c-0.603,0-1.025-0.282-1.025-0.989c0-0.708,0.459-0.99,1.201-0.99c0.318,0,0.637,0.035,0.92,0.07V92.693z"/>
</g>
</svg>
