<svg xmlns="http://www.w3.org/2000/svg" width="27" height="27" viewBox="0 0 27 27">
    <g fill="#CCC">
        <path d="M13.5 0C6.056 0 0 6.056 0 13.5S6.056 27 13.5 27 27 20.944 27 13.5 20.944 0 13.5 0zm9.606 20.537C20.852 19.379 17.356 18 13.5 18c-3.855 0-7.352 1.38-9.607 2.537-.13.067-.258.144-.389.229-1.489-2.043-2.379-4.55-2.379-7.266 0-6.824 5.551-12.375 12.375-12.375S25.875 6.676 25.875 13.5c0 2.716-.89 5.223-2.38 7.266-.13-.085-.258-.162-.389-.23z"/>
        <path d="M13.5 3.938c-3.567 0-6.469 2.902-6.469 6.468 0 3.567 2.902 6.469 6.469 6.469s6.469-2.902 6.469-6.469-2.902-6.468-6.469-6.468z"/>
    </g>
</svg>
