<svg id="Layer_3" data-name="Layer 3" xmlns="http://www.w3.org/2000/svg" viewBox="0 0 484.54 40.92"><defs><style>.cls-1{fill:#006a72;}.cls-2{fill:none;stroke:#006a72;stroke-miterlimit:10;stroke-width:0.86px;}</style></defs><title>MedEdPortal-horizontal-09-19-17</title><path class="cls-1" d="M24.54,29.5l8.78,23.41L42.14,29.5h5.07V57.36H43.7V34.18h-.08l-8.7,23.18H31.76l-8.7-23.18H23V57.36H19.47V29.5Z" transform="translate(-19.47 -23.04)"/><path class="cls-1" d="M66.71,56.07A9.15,9.15,0,0,1,61,57.79,10.37,10.37,0,0,1,56.81,57a8.27,8.27,0,0,1-3-2.18A9.28,9.28,0,0,1,52,51.47a16.15,16.15,0,0,1-.68-4.25A12.14,12.14,0,0,1,52,43a10.09,10.09,0,0,1,2-3.32,9,9,0,0,1,3-2.18,9.18,9.18,0,0,1,3.8-.78,8.28,8.28,0,0,1,4.47,1.11,8.85,8.85,0,0,1,2.85,2.83,11.21,11.21,0,0,1,1.48,3.75,16.07,16.07,0,0,1,.33,3.86H54.84a8,8,0,0,0,.31,2.52,5.68,5.68,0,0,0,1.13,2.11,5.57,5.57,0,0,0,2,1.46,6.85,6.85,0,0,0,2.85.55,5.74,5.74,0,0,0,3.45-1,4.71,4.71,0,0,0,1.77-3h3.28A8.06,8.06,0,0,1,66.71,56.07Zm-.8-13A5.7,5.7,0,0,0,64.7,41.3a5.76,5.76,0,0,0-1.8-1.21,5.68,5.68,0,0,0-2.28-.45,5.78,5.78,0,0,0-2.32.45,5.35,5.35,0,0,0-1.77,1.23,5.88,5.88,0,0,0-1.17,1.81,6.88,6.88,0,0,0-.51,2.2H66.43A6.8,6.8,0,0,0,65.91,43.12Z" transform="translate(-19.47 -23.04)"/><path class="cls-1" d="M88.06,57.36V54.63H88A4.88,4.88,0,0,1,85.41,57a9.85,9.85,0,0,1-3.86.74,9.09,9.09,0,0,1-4.08-.86,8.37,8.37,0,0,1-2.89-2.3,10,10,0,0,1-1.74-3.36,13.77,13.77,0,0,1-.59-4.06,14.25,14.25,0,0,1,.57-4.06,9.56,9.56,0,0,1,1.72-3.34,8.32,8.32,0,0,1,2.89-2.26,9.19,9.19,0,0,1,4-.84,9.86,9.86,0,0,1,1.68.16,8.62,8.62,0,0,1,1.8.53,7.71,7.71,0,0,1,1.7,1A5.36,5.36,0,0,1,88,39.88h.08V29.5h3.32V57.36ZM76.14,50.2a7.41,7.41,0,0,0,1.13,2.4,5.52,5.52,0,0,0,2,1.68A5.91,5.91,0,0,0,82,54.9a5.47,5.47,0,0,0,4.76-2.4,7.25,7.25,0,0,0,1.07-2.44,11.83,11.83,0,0,0,0-5.64A7.13,7.13,0,0,0,86.72,42a5.68,5.68,0,0,0-2-1.7,6.15,6.15,0,0,0-2.93-.64,5.71,5.71,0,0,0-2.85.66,5.28,5.28,0,0,0-1.87,1.76,7.64,7.64,0,0,0-1,2.5,13.25,13.25,0,0,0-.31,2.89A10.29,10.29,0,0,0,76.14,50.2Z" transform="translate(-19.47 -23.04)"/><path class="cls-1" d="M115.8,29.5v3.12H100.27v8.86h14.48V44.6H100.27v9.64h15.65v3.12H96.56V29.5Z" transform="translate(-19.47 -23.04)"/><path class="cls-1" d="M133.61,57.36V54.63h-.08A4.88,4.88,0,0,1,131,57a9.85,9.85,0,0,1-3.86.74,9.09,9.09,0,0,1-4.08-.86,8.37,8.37,0,0,1-2.89-2.3,10,10,0,0,1-1.74-3.36,13.77,13.77,0,0,1-.59-4.06,14.25,14.25,0,0,1,.57-4.06,9.56,9.56,0,0,1,1.72-3.34A8.32,8.32,0,0,1,123,37.56a9.19,9.19,0,0,1,4-.84,9.86,9.86,0,0,1,1.68.16,8.62,8.62,0,0,1,1.8.53,7.71,7.71,0,0,1,1.7,1,5.36,5.36,0,0,1,1.35,1.5h.08V29.5h3.32V57.36ZM121.69,50.2a7.41,7.41,0,0,0,1.13,2.4,5.52,5.52,0,0,0,2,1.68,5.91,5.91,0,0,0,2.79.62,5.47,5.47,0,0,0,4.76-2.4,7.25,7.25,0,0,0,1.07-2.44,11.83,11.83,0,0,0,0-5.64A7.13,7.13,0,0,0,132.26,42a5.68,5.68,0,0,0-2-1.7,6.15,6.15,0,0,0-2.93-.64,5.71,5.71,0,0,0-2.85.66,5.28,5.28,0,0,0-1.87,1.76,7.64,7.64,0,0,0-1,2.5,13.25,13.25,0,0,0-.31,2.89A10.29,10.29,0,0,0,121.69,50.2Z" transform="translate(-19.47 -23.04)"/><path class="cls-1" d="M141.8,29.5h11.86a13.88,13.88,0,0,1,2.59.27,7,7,0,0,1,2.65,1.11,6.5,6.5,0,0,1,2,2.38,8.59,8.59,0,0,1,.82,4A7.13,7.13,0,0,1,159.52,43,9.51,9.51,0,0,1,153,45h-9.52V57.36H141.8Zm1.72,14h9.79a8,8,0,0,0,3.18-.57,5.71,5.71,0,0,0,2.09-1.46,5.64,5.64,0,0,0,1.13-2,7.11,7.11,0,0,0,.35-2.18,8.85,8.85,0,0,0-.23-1.85,5.56,5.56,0,0,0-2.91-3.75,7.13,7.13,0,0,0-3.38-.68h-10Z" transform="translate(-19.47 -23.04)"/><path class="cls-1" d="M189.9,43.43a17.85,17.85,0,0,1-.9,5.72,13.7,13.7,0,0,1-2.59,4.64,12.06,12.06,0,0,1-4.16,3.1A13.2,13.2,0,0,1,176.67,58a13.33,13.33,0,0,1-5.6-1.13,12,12,0,0,1-4.17-3.1,13.71,13.71,0,0,1-2.6-4.64,18.67,18.67,0,0,1,0-11.43,13.72,13.72,0,0,1,2.6-4.64,12,12,0,0,1,4.17-3.1,13.34,13.34,0,0,1,5.6-1.13A13.21,13.21,0,0,1,182.25,30a12.07,12.07,0,0,1,4.16,3.1A13.71,13.71,0,0,1,189,37.72,17.84,17.84,0,0,1,189.9,43.43Zm-24.78,0a16.17,16.17,0,0,0,.78,5.07,12.45,12.45,0,0,0,2.26,4.16,10.76,10.76,0,0,0,8.51,3.88,10.8,10.8,0,0,0,4.86-1.05,11,11,0,0,0,3.61-2.83,12.49,12.49,0,0,0,2.26-4.16,16.88,16.88,0,0,0,0-10.15,12.5,12.5,0,0,0-2.26-4.16,11,11,0,0,0-3.61-2.83,10.81,10.81,0,0,0-4.86-1.05,10.76,10.76,0,0,0-8.51,3.88,12.46,12.46,0,0,0-2.26,4.16A16.17,16.17,0,0,0,165.13,43.43Z" transform="translate(-19.47 -23.04)"/><path class="cls-1" d="M193.39,29.5H205a15.22,15.22,0,0,1,3.43.37,8.1,8.1,0,0,1,2.81,1.21,5.79,5.79,0,0,1,1.89,2.2,7.56,7.56,0,0,1,.68,3.39,7.25,7.25,0,0,1-1.58,4.74,6.91,6.91,0,0,1-4.39,2.4v.08a6.63,6.63,0,0,1,3,1,5,5,0,0,1,1.66,1.91,7.75,7.75,0,0,1,.7,2.5,24.1,24.1,0,0,1,.16,2.73v1.6a12.93,12.93,0,0,0,.08,1.46,7.23,7.23,0,0,0,.25,1.27,2.84,2.84,0,0,0,.49,1h-1.91a5.07,5.07,0,0,1-.6-2.28q-.06-1.31-.06-2.71t-.12-2.79a6,6,0,0,0-.74-2.48,4.45,4.45,0,0,0-2-1.76,8.79,8.79,0,0,0-3.8-.66h-9.91V57.36h-1.72ZM205,43.2a10.31,10.31,0,0,0,2.83-.37,6,6,0,0,0,2.24-1.15,5.48,5.48,0,0,0,1.48-2,7,7,0,0,0,.55-2.89,5.67,5.67,0,0,0-.59-2.67A5.17,5.17,0,0,0,210,32.31a6.42,6.42,0,0,0-2.26-1A11.37,11.37,0,0,0,205,31h-9.91V43.2Z" transform="translate(-19.47 -23.04)"/><path class="cls-1" d="M214.37,31V29.5h21.34V31h-9.83V57.36h-1.72V31Z" transform="translate(-19.47 -23.04)"/><path class="cls-1" d="M242.3,29.5h1.87l11,27.86h-1.83l-3.51-8.94H236.49l-3.55,8.94H231.1Zm7,17.44-6-15.76h-.08L237,46.94Z" transform="translate(-19.47 -23.04)"/><path class="cls-1" d="M257.1,29.5h1.72V55.88h15.8v1.48H257.1Z" transform="translate(-19.47 -23.04)"/><path class="cls-1" d="M266.75,31.93a4,4,0,0,1,.88-1.28,4.13,4.13,0,0,1,1.3-.85,4.07,4.07,0,0,1,1.58-.31,4,4,0,0,1,1.57.31,4,4,0,0,1,2.17,2.13,3.9,3.9,0,0,1,.32,1.59,4,4,0,0,1-.32,1.62,4.12,4.12,0,0,1-.88,1.29,4,4,0,0,1-1.29.85,4.09,4.09,0,0,1-1.57.3,4.13,4.13,0,0,1-1.58-.3,4,4,0,0,1-1.3-.85,4.07,4.07,0,0,1-.88-1.29,4,4,0,0,1-.32-1.62A3.9,3.9,0,0,1,266.75,31.93Zm.67,3a3.38,3.38,0,0,0,.7,1.1,3.28,3.28,0,0,0,2.39,1,3.24,3.24,0,0,0,1.31-.27,3.29,3.29,0,0,0,1.06-.73,3.38,3.38,0,0,0,.7-1.1,3.66,3.66,0,0,0,.26-1.38,3.56,3.56,0,0,0-.26-1.35,3.28,3.28,0,0,0-1.76-1.82,3.22,3.22,0,0,0-1.31-.27,3.31,3.31,0,0,0-2.39,1,3.32,3.32,0,0,0-.7,1.09,3.56,3.56,0,0,0-.26,1.35A3.66,3.66,0,0,0,267.42,34.9Zm3.34-3.73a1.94,1.94,0,0,1,1.25.34,1.25,1.25,0,0,1,.41,1,1.15,1.15,0,0,1-.36.94,1.62,1.62,0,0,1-.89.35l1.35,2.09h-.79l-1.29-2h-.78v2h-.74V31.17Zm-.32,2.1.47,0a1.19,1.19,0,0,0,.4-.09.62.62,0,0,0,.28-.23.8.8,0,0,0,.1-.44.68.68,0,0,0-.09-.38.62.62,0,0,0-.24-.22,1,1,0,0,0-.34-.1l-.37,0h-1v1.51Z" transform="translate(-19.47 -23.04)"/><line class="cls-2" x1="263.39" x2="263.39" y2="40.92"/><path class="cls-1" d="M291.2,30.53V29.4h8v1.13h-3.35v8.93h-1.34V30.53Z" transform="translate(-19.47 -23.04)"/><path class="cls-1" d="M301.4,29.4v3.85h0a1.6,1.6,0,0,1,.39-.57,2.25,2.25,0,0,1,.57-.38,3,3,0,0,1,.66-.22,3.29,3.29,0,0,1,.67-.07,3.16,3.16,0,0,1,1.2.2,2,2,0,0,1,.78.55,2,2,0,0,1,.41.84,4.47,4.47,0,0,1,.12,1.08v4.79H305V34.53a1.45,1.45,0,0,0-.39-1.07,1.47,1.47,0,0,0-1.08-.39,2.45,2.45,0,0,0-1,.17,1.8,1.8,0,0,0-.67.48,2.07,2.07,0,0,0-.4.73,3,3,0,0,0-.13.91v4.11h-1.2V29.4Z" transform="translate(-19.47 -23.04)"/><path class="cls-1" d="M313.16,39a3.31,3.31,0,0,1-2.06.62,3.73,3.73,0,0,1-1.51-.28,3,3,0,0,1-1.08-.79,3.36,3.36,0,0,1-.66-1.21,5.83,5.83,0,0,1-.25-1.54,4.38,4.38,0,0,1,.25-1.52,3.64,3.64,0,0,1,.71-1.2,3.22,3.22,0,0,1,1.08-.79A3.32,3.32,0,0,1,311,32a3,3,0,0,1,1.61.4,3.19,3.19,0,0,1,1,1,4,4,0,0,1,.54,1.35,5.8,5.8,0,0,1,.12,1.4h-5.45a2.89,2.89,0,0,0,.11.91,2.05,2.05,0,0,0,.41.76,2,2,0,0,0,.72.53,2.48,2.48,0,0,0,1,.2,2.08,2.08,0,0,0,1.25-.35,1.7,1.7,0,0,0,.64-1.07h1.18A2.91,2.91,0,0,1,313.16,39Zm-.29-4.68a2.06,2.06,0,0,0-.44-.66,2.1,2.1,0,0,0-.65-.44,2.07,2.07,0,0,0-.82-.16,2.11,2.11,0,0,0-.84.16,1.94,1.94,0,0,0-.64.44,2.12,2.12,0,0,0-.42.66,2.52,2.52,0,0,0-.18.8h4.19A2.46,2.46,0,0,0,312.87,34.32Z" transform="translate(-19.47 -23.04)"/><path class="cls-1" d="M324.65,38a2.31,2.31,0,0,1-.49.88,2.43,2.43,0,0,1-.92.62,3.76,3.76,0,0,1-1.42.23,3,3,0,0,1-2.17-.74,2.9,2.9,0,0,1-.76-2.18v-.62h1.34v.42a4.3,4.3,0,0,0,.07.8,1.73,1.73,0,0,0,.25.63,1.17,1.17,0,0,0,.49.42,1.93,1.93,0,0,0,.81.15,1.44,1.44,0,0,0,1.26-.49,2.27,2.27,0,0,0,.35-1.32V29.4h1.34V37A3.48,3.48,0,0,1,324.65,38Z" transform="translate(-19.47 -23.04)"/><path class="cls-1" d="M326.57,34.32a3.39,3.39,0,0,1,.68-1.21,3.18,3.18,0,0,1,1.11-.81,4.07,4.07,0,0,1,3.05,0,3.19,3.19,0,0,1,1.11.81,3.39,3.39,0,0,1,.68,1.21,4.85,4.85,0,0,1,.23,1.5,4.79,4.79,0,0,1-.23,1.49,3.41,3.41,0,0,1-.68,1.2,3.12,3.12,0,0,1-1.11.8,4.18,4.18,0,0,1-3.05,0,3.11,3.11,0,0,1-1.11-.8,3.41,3.41,0,0,1-.68-1.2,4.79,4.79,0,0,1-.23-1.49A4.85,4.85,0,0,1,326.57,34.32ZM327.79,37a2.46,2.46,0,0,0,.49.86,2.09,2.09,0,0,0,.73.53,2.21,2.21,0,0,0,1.76,0,2.1,2.1,0,0,0,.73-.53A2.46,2.46,0,0,0,332,37a4,4,0,0,0,0-2.35,2.55,2.55,0,0,0-.49-.87,2.09,2.09,0,0,0-.73-.54,2.21,2.21,0,0,0-1.76,0,2.09,2.09,0,0,0-.73.54,2.55,2.55,0,0,0-.49.87,4,4,0,0,0,0,2.35Z" transform="translate(-19.47 -23.04)"/><path class="cls-1" d="M339.7,39.46V38.3h0a2.45,2.45,0,0,1-1,1,2.9,2.9,0,0,1-1.39.32,3.27,3.27,0,0,1-1.2-.19,1.91,1.91,0,0,1-.77-.54,2,2,0,0,1-.42-.84,4.53,4.53,0,0,1-.12-1.08V32.17H336v4.93a1.45,1.45,0,0,0,.39,1.07,1.47,1.47,0,0,0,1.08.39,2.45,2.45,0,0,0,1-.17,1.79,1.79,0,0,0,.67-.48,2.07,2.07,0,0,0,.4-.73,3,3,0,0,0,.13-.91V32.17h1.2v7.28Z" transform="translate(-19.47 -23.04)"/><path class="cls-1" d="M343.7,32.17v1.54h0a3.24,3.24,0,0,1,1.07-1.31A2.69,2.69,0,0,1,346.4,32v1.27a3.39,3.39,0,0,0-1.23.2,1.94,1.94,0,0,0-.82.58,2.38,2.38,0,0,0-.45.92,5,5,0,0,0-.14,1.25v3.24h-1.2V32.17Z" transform="translate(-19.47 -23.04)"/><path class="cls-1" d="M348.48,32.17v1.15h0A2.52,2.52,0,0,1,350.87,32a3.16,3.16,0,0,1,1.2.2,2,2,0,0,1,.78.55,2,2,0,0,1,.41.84,4.47,4.47,0,0,1,.12,1.08v4.79h-1.2V34.53a1.45,1.45,0,0,0-.39-1.07,1.47,1.47,0,0,0-1.08-.39,2.45,2.45,0,0,0-1,.17,1.8,1.8,0,0,0-.67.48,2.07,2.07,0,0,0-.4.73,3,3,0,0,0-.13.91v4.11h-1.2V32.17Z" transform="translate(-19.47 -23.04)"/><path class="cls-1" d="M361.6,39.43a1.69,1.69,0,0,1-.86.18,1,1,0,0,1-.74-.26,1.13,1.13,0,0,1-.28-.85,2.85,2.85,0,0,1-1.15.85,4,4,0,0,1-2.35.15,2.18,2.18,0,0,1-.77-.35,1.69,1.69,0,0,1-.51-.63,2.11,2.11,0,0,1-.19-.94,2.14,2.14,0,0,1,.21-1,1.85,1.85,0,0,1,.56-.64,2.53,2.53,0,0,1,.79-.37q.44-.13.91-.21c.33-.07.64-.12.94-.15a5.16,5.16,0,0,0,.78-.14,1.31,1.31,0,0,0,.54-.27.65.65,0,0,0,.2-.51,1.19,1.19,0,0,0-.15-.63,1,1,0,0,0-.38-.37,1.56,1.56,0,0,0-.52-.17,4,4,0,0,0-.57,0,2.53,2.53,0,0,0-1.27.29,1.23,1.23,0,0,0-.55,1.09H355a2.59,2.59,0,0,1,.28-1.14,2.12,2.12,0,0,1,.68-.75,2.85,2.85,0,0,1,1-.41,5.08,5.08,0,0,1,1.16-.13,6.73,6.73,0,0,1,1,.07,2.57,2.57,0,0,1,.88.29,1.69,1.69,0,0,1,.63.61,2,2,0,0,1,.24,1v3.74a2.79,2.79,0,0,0,0,.62c0,.13.14.2.33.2a1.48,1.48,0,0,0,.37-.06Zm-1.94-3.73a1.51,1.51,0,0,1-.59.25q-.37.08-.77.13l-.81.11a3,3,0,0,0-.73.2,1.33,1.33,0,0,0-.53.4,1.12,1.12,0,0,0-.2.71,1,1,0,0,0,.12.5,1,1,0,0,0,.31.33,1.31,1.31,0,0,0,.44.18,2.42,2.42,0,0,0,.54.06,2.86,2.86,0,0,0,1-.16,2.15,2.15,0,0,0,.69-.41,1.61,1.61,0,0,0,.39-.53,1.34,1.34,0,0,0,.13-.54Z" transform="translate(-19.47 -23.04)"/><path class="cls-1" d="M364,29.4V39.46h-1.2V29.4Z" transform="translate(-19.47 -23.04)"/><path class="cls-1" d="M369.6,34.32a3.39,3.39,0,0,1,.68-1.21,3.18,3.18,0,0,1,1.11-.81,4.07,4.07,0,0,1,3.05,0,3.19,3.19,0,0,1,1.11.81,3.39,3.39,0,0,1,.68,1.21,4.85,4.85,0,0,1,.23,1.5,4.79,4.79,0,0,1-.23,1.49,3.41,3.41,0,0,1-.68,1.2,3.12,3.12,0,0,1-1.11.8,4.18,4.18,0,0,1-3.05,0,3.11,3.11,0,0,1-1.11-.8,3.41,3.41,0,0,1-.68-1.2,4.79,4.79,0,0,1-.23-1.49A4.85,4.85,0,0,1,369.6,34.32ZM370.82,37a2.46,2.46,0,0,0,.49.86,2.09,2.09,0,0,0,.73.53,2.21,2.21,0,0,0,1.76,0,2.1,2.1,0,0,0,.73-.53A2.46,2.46,0,0,0,375,37a4,4,0,0,0,0-2.35,2.55,2.55,0,0,0-.49-.87,2.09,2.09,0,0,0-.73-.54,2.21,2.21,0,0,0-1.76,0,2.09,2.09,0,0,0-.73.54,2.55,2.55,0,0,0-.49.87,4,4,0,0,0,0,2.35Z" transform="translate(-19.47 -23.04)"/><path class="cls-1" d="M376.94,33.23V32.17h1.23V31.09a1.71,1.71,0,0,1,.51-1.35,2.19,2.19,0,0,1,1.5-.46l.39,0a2.15,2.15,0,0,1,.39.08v1a1.51,1.51,0,0,0-.34-.08l-.34,0a1.16,1.16,0,0,0-.68.17.75.75,0,0,0-.24.65v1h1.41v1.06h-1.41v6.23h-1.2V33.23Z" transform="translate(-19.47 -23.04)"/><path class="cls-1" d="M291.2,48.41V47.28h8v1.13h-3.35v8.93h-1.34V48.41Z" transform="translate(-19.47 -23.04)"/><path class="cls-1" d="M304.1,56.88a3.31,3.31,0,0,1-2.06.62,3.73,3.73,0,0,1-1.51-.28,3,3,0,0,1-1.08-.79,3.36,3.36,0,0,1-.66-1.21,5.83,5.83,0,0,1-.25-1.54,4.38,4.38,0,0,1,.25-1.52,3.64,3.64,0,0,1,.71-1.2,3.22,3.22,0,0,1,1.08-.79,3.32,3.32,0,0,1,1.37-.28,3,3,0,0,1,1.61.4,3.19,3.19,0,0,1,1,1,4,4,0,0,1,.54,1.35,5.8,5.8,0,0,1,.12,1.4h-5.45a2.89,2.89,0,0,0,.11.91,2.05,2.05,0,0,0,.41.76,2,2,0,0,0,.72.53,2.48,2.48,0,0,0,1,.2,2.08,2.08,0,0,0,1.25-.35A1.7,1.7,0,0,0,304,55h1.18A2.91,2.91,0,0,1,304.1,56.88Zm-.29-4.68a2.06,2.06,0,0,0-.44-.66,2.1,2.1,0,0,0-.65-.44,2.07,2.07,0,0,0-.82-.16,2.11,2.11,0,0,0-.84.16,1.94,1.94,0,0,0-.64.44,2.12,2.12,0,0,0-.42.66,2.52,2.52,0,0,0-.18.8H304A2.46,2.46,0,0,0,303.81,52.2Z" transform="translate(-19.47 -23.04)"/><path class="cls-1" d="M313,57.31a1.69,1.69,0,0,1-.86.18,1,1,0,0,1-.74-.26,1.13,1.13,0,0,1-.28-.85,2.85,2.85,0,0,1-1.15.85,4,4,0,0,1-2.35.15,2.18,2.18,0,0,1-.77-.35,1.69,1.69,0,0,1-.51-.63,2.11,2.11,0,0,1-.19-.94,2.14,2.14,0,0,1,.21-1,1.85,1.85,0,0,1,.56-.64,2.53,2.53,0,0,1,.79-.37q.44-.13.91-.21c.33-.07.64-.12.94-.15a5.16,5.16,0,0,0,.78-.14,1.31,1.31,0,0,0,.54-.27.65.65,0,0,0,.2-.51,1.19,1.19,0,0,0-.15-.63,1,1,0,0,0-.38-.37A1.56,1.56,0,0,0,310,51a4,4,0,0,0-.57,0,2.53,2.53,0,0,0-1.27.29,1.23,1.23,0,0,0-.55,1.09h-1.2a2.59,2.59,0,0,1,.28-1.14,2.12,2.12,0,0,1,.68-.75,2.85,2.85,0,0,1,1-.41,5.08,5.08,0,0,1,1.16-.13,6.73,6.73,0,0,1,1,.07,2.57,2.57,0,0,1,.88.29,1.69,1.69,0,0,1,.63.61,2,2,0,0,1,.24,1v3.74a2.79,2.79,0,0,0,0,.62c0,.13.14.2.33.2a1.48,1.48,0,0,0,.37-.06ZM311,53.58a1.51,1.51,0,0,1-.59.25q-.37.08-.77.13l-.81.11a3,3,0,0,0-.73.2,1.33,1.33,0,0,0-.53.4,1.12,1.12,0,0,0-.2.71,1,1,0,0,0,.12.5,1,1,0,0,0,.31.33,1.31,1.31,0,0,0,.44.18,2.42,2.42,0,0,0,.54.06,2.86,2.86,0,0,0,1-.16,2.15,2.15,0,0,0,.69-.41,1.61,1.61,0,0,0,.39-.53,1.34,1.34,0,0,0,.13-.54Z" transform="translate(-19.47 -23.04)"/><path class="cls-1" d="M318.4,51.33a1.81,1.81,0,0,0-1.21-.38,2.23,2.23,0,0,0-1.08.24,1.92,1.92,0,0,0-.7.63,2.64,2.64,0,0,0-.37.91,5,5,0,0,0-.11,1.06,4.07,4.07,0,0,0,.12,1,2.65,2.65,0,0,0,.37.85,1.89,1.89,0,0,0,.66.6,2,2,0,0,0,1,.23,2,2,0,0,0,1.39-.46,2.1,2.1,0,0,0,.61-1.31h1.23a3.36,3.36,0,0,1-1,2.09,3.16,3.16,0,0,1-2.2.73,3.8,3.8,0,0,1-1.47-.27,2.87,2.87,0,0,1-1.07-.76,3.28,3.28,0,0,1-.65-1.18,4.89,4.89,0,0,1-.22-1.5,5.35,5.35,0,0,1,.21-1.53A3.52,3.52,0,0,1,314.5,51a3,3,0,0,1,1.08-.83,3.52,3.52,0,0,1,1.51-.3,4.42,4.42,0,0,1,1.16.15,2.84,2.84,0,0,1,1,.46,2.51,2.51,0,0,1,.68.78,2.89,2.89,0,0,1,.34,1.12H319A1.82,1.82,0,0,0,318.4,51.33Z" transform="translate(-19.47 -23.04)"/><path class="cls-1" d="M322.78,47.28v3.85h0a1.6,1.6,0,0,1,.39-.57,2.25,2.25,0,0,1,.57-.38,3,3,0,0,1,.66-.22,3.29,3.29,0,0,1,.67-.07,3.16,3.16,0,0,1,1.2.2,2,2,0,0,1,.78.55,2,2,0,0,1,.41.84,4.47,4.47,0,0,1,.12,1.08v4.79h-1.2V52.41a1.45,1.45,0,0,0-.39-1.07,1.47,1.47,0,0,0-1.08-.39,2.45,2.45,0,0,0-1,.17,1.8,1.8,0,0,0-.67.48,2.07,2.07,0,0,0-.4.73,3,3,0,0,0-.13.91v4.11h-1.2V47.28Z" transform="translate(-19.47 -23.04)"/><path class="cls-1" d="M329.41,48.75V47.28h1.2v1.47Zm1.2,1.31v7.28h-1.2V50.06Z" transform="translate(-19.47 -23.04)"/><path class="cls-1" d="M333.54,50.06v1.15h0a2.52,2.52,0,0,1,2.37-1.32,3.16,3.16,0,0,1,1.2.2,2,2,0,0,1,.78.55,2,2,0,0,1,.41.84,4.47,4.47,0,0,1,.12,1.08v4.79h-1.2V52.41a1.45,1.45,0,0,0-.39-1.07,1.47,1.47,0,0,0-1.08-.39,2.45,2.45,0,0,0-1,.17,1.8,1.8,0,0,0-.67.48,2.07,2.07,0,0,0-.4.73,3,3,0,0,0-.13.91v4.11h-1.2V50.06Z" transform="translate(-19.47 -23.04)"/><path class="cls-1" d="M345.69,59.4a3.33,3.33,0,0,1-2.56.89,5,5,0,0,1-1-.11,3.18,3.18,0,0,1-1-.37,2.24,2.24,0,0,1-.71-.66,1.89,1.89,0,0,1-.31-1h1.2a.89.89,0,0,0,.2.55,1.5,1.5,0,0,0,.46.37,2.25,2.25,0,0,0,.6.2,3.22,3.22,0,0,0,.62.06,2.22,2.22,0,0,0,1-.2,1.88,1.88,0,0,0,.68-.56,2.33,2.33,0,0,0,.39-.87,4.87,4.87,0,0,0,.12-1.11V56.1h0a2,2,0,0,1-.94,1,2.91,2.91,0,0,1-1.33.32,3.21,3.21,0,0,1-1.42-.3,3,3,0,0,1-1-.8,3.4,3.4,0,0,1-.61-1.17,4.84,4.84,0,0,1-.2-1.42A5.51,5.51,0,0,1,340,52.4a3.63,3.63,0,0,1,.56-1.24,3.1,3.1,0,0,1,1-.92,3.24,3.24,0,0,1,1.59-.36,2.69,2.69,0,0,1,1.27.3,2.13,2.13,0,0,1,.9.91h0v-1h1.13v6.66A3.84,3.84,0,0,1,345.69,59.4Zm-1.53-3.28a2,2,0,0,0,.67-.65,3,3,0,0,0,.37-.91,4.43,4.43,0,0,0,.12-1,4,4,0,0,0-.11-.94,2.64,2.64,0,0,0-.36-.84,1.86,1.86,0,0,0-.64-.6,1.9,1.9,0,0,0-1-.23,2.06,2.06,0,0,0-1,.22,1.91,1.91,0,0,0-.67.58,2.5,2.5,0,0,0-.38.85,4.14,4.14,0,0,0-.12,1,5,5,0,0,0,.1,1,2.8,2.8,0,0,0,.34.89,1.91,1.91,0,0,0,.63.65,1.83,1.83,0,0,0,1,.25A1.94,1.94,0,0,0,344.16,56.12Z" transform="translate(-19.47 -23.04)"/><path class="cls-1" d="M358.68,57.31a1.69,1.69,0,0,1-.86.18,1,1,0,0,1-.74-.26,1.13,1.13,0,0,1-.28-.85,2.85,2.85,0,0,1-1.15.85,4,4,0,0,1-2.35.15,2.18,2.18,0,0,1-.77-.35,1.69,1.69,0,0,1-.51-.63,2.11,2.11,0,0,1-.19-.94,2.14,2.14,0,0,1,.21-1,1.85,1.85,0,0,1,.56-.64,2.53,2.53,0,0,1,.79-.37q.44-.13.91-.21c.33-.07.64-.12.94-.15a5.16,5.16,0,0,0,.78-.14,1.31,1.31,0,0,0,.54-.27.65.65,0,0,0,.2-.51,1.19,1.19,0,0,0-.15-.63,1,1,0,0,0-.38-.37,1.56,1.56,0,0,0-.52-.17,4,4,0,0,0-.57,0,2.53,2.53,0,0,0-1.27.29,1.23,1.23,0,0,0-.55,1.09h-1.2a2.59,2.59,0,0,1,.28-1.14,2.12,2.12,0,0,1,.68-.75,2.85,2.85,0,0,1,1-.41,5.08,5.08,0,0,1,1.16-.13,6.73,6.73,0,0,1,1,.07,2.57,2.57,0,0,1,.88.29,1.69,1.69,0,0,1,.63.61,2,2,0,0,1,.24,1v3.74a2.79,2.79,0,0,0,0,.62c0,.13.14.2.33.2a1.48,1.48,0,0,0,.37-.06Zm-1.94-3.73a1.51,1.51,0,0,1-.59.25q-.37.08-.77.13l-.81.11a3,3,0,0,0-.73.2,1.33,1.33,0,0,0-.53.4,1.12,1.12,0,0,0-.2.71,1,1,0,0,0,.12.5,1,1,0,0,0,.31.33,1.31,1.31,0,0,0,.44.18,2.42,2.42,0,0,0,.54.06,2.86,2.86,0,0,0,1-.16,2.15,2.15,0,0,0,.69-.41,1.61,1.61,0,0,0,.39-.53,1.34,1.34,0,0,0,.13-.54Z" transform="translate(-19.47 -23.04)"/><path class="cls-1" d="M361,50.06v1.15h0a2.52,2.52,0,0,1,2.37-1.32,3.16,3.16,0,0,1,1.2.2,2,2,0,0,1,.78.55,2,2,0,0,1,.41.84,4.47,4.47,0,0,1,.12,1.08v4.79h-1.2V52.41a1.45,1.45,0,0,0-.39-1.07,1.47,1.47,0,0,0-1.08-.39,2.45,2.45,0,0,0-1,.17,1.8,1.8,0,0,0-.67.48,2.07,2.07,0,0,0-.4.73,3,3,0,0,0-.13.91v4.11h-1.2V50.06Z" transform="translate(-19.47 -23.04)"/><path class="cls-1" d="M373,57.34v-1h0a1.76,1.76,0,0,1-.93.87,3.56,3.56,0,0,1-1.4.27,3.29,3.29,0,0,1-1.47-.31,3,3,0,0,1-1-.83,3.61,3.61,0,0,1-.63-1.21,5,5,0,0,1-.21-1.46,5.17,5.17,0,0,1,.2-1.47,3.46,3.46,0,0,1,.62-1.2,3,3,0,0,1,1-.82,3.31,3.31,0,0,1,1.46-.3,3.6,3.6,0,0,1,.61.06,3.15,3.15,0,0,1,.65.19,2.74,2.74,0,0,1,.61.35,1.93,1.93,0,0,1,.49.54h0V47.28h1.2V57.34Zm-4.3-2.59a2.68,2.68,0,0,0,.41.87,2,2,0,0,0,.7.61,2.14,2.14,0,0,0,1,.23,2,2,0,0,0,1.72-.87,2.61,2.61,0,0,0,.39-.88,4.25,4.25,0,0,0,0-2,2.57,2.57,0,0,0-.4-.88,2,2,0,0,0-.71-.61,2.23,2.23,0,0,0-1.06-.23,2.05,2.05,0,0,0-1,.24,1.91,1.91,0,0,0-.68.63,2.74,2.74,0,0,0-.37.9,4.79,4.79,0,0,0-.11,1A3.69,3.69,0,0,0,368.65,54.76Z" transform="translate(-19.47 -23.04)"/><path class="cls-1" d="M381.45,47.28v8.93h5.33v1.13h-6.66V47.28Z" transform="translate(-19.47 -23.04)"/><path class="cls-1" d="M392.85,56.88a3.31,3.31,0,0,1-2.06.62,3.73,3.73,0,0,1-1.51-.28,3,3,0,0,1-1.08-.79,3.36,3.36,0,0,1-.66-1.21,5.83,5.83,0,0,1-.25-1.54,4.38,4.38,0,0,1,.25-1.52,3.64,3.64,0,0,1,.71-1.2,3.22,3.22,0,0,1,1.08-.79,3.32,3.32,0,0,1,1.37-.28,3,3,0,0,1,1.61.4,3.19,3.19,0,0,1,1,1,4,4,0,0,1,.54,1.35,5.8,5.8,0,0,1,.12,1.4h-5.45a2.89,2.89,0,0,0,.11.91,2.05,2.05,0,0,0,.41.76,2,2,0,0,0,.72.53,2.48,2.48,0,0,0,1,.2,2.08,2.08,0,0,0,1.25-.35,1.7,1.7,0,0,0,.64-1.07h1.18A2.91,2.91,0,0,1,392.85,56.88Zm-.29-4.68a2.06,2.06,0,0,0-.44-.66,2.1,2.1,0,0,0-.65-.44,2.07,2.07,0,0,0-.82-.16,2.11,2.11,0,0,0-.84.16,1.94,1.94,0,0,0-.64.44,2.12,2.12,0,0,0-.42.66,2.52,2.52,0,0,0-.18.8h4.19A2.46,2.46,0,0,0,392.56,52.2Z" transform="translate(-19.47 -23.04)"/><path class="cls-1" d="M401.73,57.31a1.69,1.69,0,0,1-.86.18,1,1,0,0,1-.74-.26,1.13,1.13,0,0,1-.28-.85,2.85,2.85,0,0,1-1.15.85,4,4,0,0,1-2.35.15,2.18,2.18,0,0,1-.77-.35,1.69,1.69,0,0,1-.51-.63,2.11,2.11,0,0,1-.19-.94,2.14,2.14,0,0,1,.21-1,1.85,1.85,0,0,1,.56-.64,2.53,2.53,0,0,1,.79-.37q.44-.13.91-.21c.33-.07.64-.12.94-.15a5.16,5.16,0,0,0,.78-.14,1.31,1.31,0,0,0,.54-.27.65.65,0,0,0,.2-.51,1.19,1.19,0,0,0-.15-.63,1,1,0,0,0-.38-.37,1.56,1.56,0,0,0-.52-.17,4,4,0,0,0-.57,0,2.53,2.53,0,0,0-1.27.29,1.23,1.23,0,0,0-.55,1.09h-1.2a2.59,2.59,0,0,1,.28-1.14,2.12,2.12,0,0,1,.68-.75,2.85,2.85,0,0,1,1-.41,5.08,5.08,0,0,1,1.16-.13,6.73,6.73,0,0,1,1,.07,2.57,2.57,0,0,1,.88.29,1.69,1.69,0,0,1,.63.61,2,2,0,0,1,.24,1v3.74a2.79,2.79,0,0,0,0,.62c0,.13.14.2.33.2a1.48,1.48,0,0,0,.37-.06Zm-1.94-3.73a1.51,1.51,0,0,1-.59.25q-.37.08-.77.13l-.81.11a3,3,0,0,0-.73.2,1.33,1.33,0,0,0-.53.4,1.12,1.12,0,0,0-.2.71,1,1,0,0,0,.12.5,1,1,0,0,0,.31.33,1.31,1.31,0,0,0,.44.18,2.42,2.42,0,0,0,.54.06,2.86,2.86,0,0,0,1-.16,2.15,2.15,0,0,0,.69-.41,1.61,1.61,0,0,0,.39-.53,1.34,1.34,0,0,0,.13-.54Z" transform="translate(-19.47 -23.04)"/><path class="cls-1" d="M404,50.06v1.54h0a3.24,3.24,0,0,1,1.07-1.31,2.69,2.69,0,0,1,1.61-.39v1.27a3.39,3.39,0,0,0-1.23.2,1.94,1.94,0,0,0-.82.58,2.38,2.38,0,0,0-.45.92A5,5,0,0,0,404,54.1v3.24h-1.2V50.06Z" transform="translate(-19.47 -23.04)"/><path class="cls-1" d="M408.76,50.06v1.15h0a2.52,2.52,0,0,1,2.37-1.32,3.16,3.16,0,0,1,1.2.2,2,2,0,0,1,.78.55,2,2,0,0,1,.41.84,4.47,4.47,0,0,1,.12,1.08v4.79h-1.2V52.41a1.45,1.45,0,0,0-.39-1.07,1.47,1.47,0,0,0-1.08-.39,2.45,2.45,0,0,0-1,.17,1.8,1.8,0,0,0-.67.48,2.07,2.07,0,0,0-.4.73,3,3,0,0,0-.13.91v4.11h-1.2V50.06Z" transform="translate(-19.47 -23.04)"/><path class="cls-1" d="M415.46,48.75V47.28h1.2v1.47Zm1.2,1.31v7.28h-1.2V50.06Z" transform="translate(-19.47 -23.04)"/><path class="cls-1" d="M419.58,50.06v1.15h0A2.52,2.52,0,0,1,422,49.89a3.16,3.16,0,0,1,1.2.2,2,2,0,0,1,.78.55,2,2,0,0,1,.41.84,4.47,4.47,0,0,1,.12,1.08v4.79h-1.2V52.41a1.45,1.45,0,0,0-.39-1.07,1.47,1.47,0,0,0-1.08-.39,2.45,2.45,0,0,0-1,.17,1.8,1.8,0,0,0-.67.48,2.07,2.07,0,0,0-.4.73,3,3,0,0,0-.13.91v4.11h-1.2V50.06Z" transform="translate(-19.47 -23.04)"/><path class="cls-1" d="M431.73,59.4a3.33,3.33,0,0,1-2.56.89,5,5,0,0,1-1-.11,3.18,3.18,0,0,1-1-.37,2.24,2.24,0,0,1-.71-.66,1.89,1.89,0,0,1-.31-1h1.2a.89.89,0,0,0,.2.55,1.5,1.5,0,0,0,.46.37,2.25,2.25,0,0,0,.6.2,3.22,3.22,0,0,0,.62.06,2.22,2.22,0,0,0,1-.2,1.88,1.88,0,0,0,.68-.56,2.33,2.33,0,0,0,.39-.87,4.88,4.88,0,0,0,.12-1.11V56.1h0a2,2,0,0,1-.94,1,2.91,2.91,0,0,1-1.33.32,3.21,3.21,0,0,1-1.42-.3,3,3,0,0,1-1-.8,3.4,3.4,0,0,1-.61-1.17,4.84,4.84,0,0,1-.2-1.42A5.51,5.51,0,0,1,426,52.4a3.63,3.63,0,0,1,.56-1.24,3.1,3.1,0,0,1,1-.92,3.24,3.24,0,0,1,1.59-.36,2.69,2.69,0,0,1,1.27.3,2.13,2.13,0,0,1,.9.91h0v-1h1.13v6.66A3.84,3.84,0,0,1,431.73,59.4Zm-1.53-3.28a2,2,0,0,0,.67-.65,3,3,0,0,0,.37-.91,4.43,4.43,0,0,0,.12-1,4,4,0,0,0-.11-.94,2.64,2.64,0,0,0-.36-.84,1.86,1.86,0,0,0-.64-.6,1.9,1.9,0,0,0-1-.23,2.06,2.06,0,0,0-1,.22,1.91,1.91,0,0,0-.67.58,2.5,2.5,0,0,0-.38.85,4.14,4.14,0,0,0-.12,1,5,5,0,0,0,.1,1,2.8,2.8,0,0,0,.34.89,1.91,1.91,0,0,0,.63.65,1.83,1.83,0,0,0,1,.25A1.94,1.94,0,0,0,430.21,56.12Z" transform="translate(-19.47 -23.04)"/><path class="cls-1" d="M443.2,47.28a3.31,3.31,0,0,1,2.25.7,2.42,2.42,0,0,1,.81,1.93,3,3,0,0,1-.42,1.61,2.14,2.14,0,0,1-1.33.94v0a1.79,1.79,0,0,1,.71.28,1.54,1.54,0,0,1,.44.47,2.11,2.11,0,0,1,.24.61,6.52,6.52,0,0,1,.12.7c0,.24,0,.49,0,.75a6.18,6.18,0,0,0,.07.75,4.63,4.63,0,0,0,.16.7,1.74,1.74,0,0,0,.32.58h-1.49a.84.84,0,0,1-.19-.42,4.37,4.37,0,0,1-.06-.6q0-.33,0-.71a4.85,4.85,0,0,0-.08-.75,6.94,6.94,0,0,0-.14-.7,1.63,1.63,0,0,0-.27-.58,1.32,1.32,0,0,0-.48-.39,1.77,1.77,0,0,0-.79-.15h-3.27v4.3h-1.34V47.28Zm.28,4.56a1.93,1.93,0,0,0,.74-.27,1.51,1.51,0,0,0,.51-.55,1.86,1.86,0,0,0,.19-.9,1.81,1.81,0,0,0-.42-1.24,1.74,1.74,0,0,0-1.37-.48h-3.33v3.51h2.79A5.31,5.31,0,0,0,443.49,51.85Z" transform="translate(-19.47 -23.04)"/><path class="cls-1" d="M453,56.88a3.31,3.31,0,0,1-2.06.62,3.73,3.73,0,0,1-1.51-.28,3,3,0,0,1-1.08-.79,3.36,3.36,0,0,1-.66-1.21,5.83,5.83,0,0,1-.25-1.54,4.38,4.38,0,0,1,.25-1.52,3.64,3.64,0,0,1,.71-1.2,3.22,3.22,0,0,1,1.08-.79,3.32,3.32,0,0,1,1.37-.28,3,3,0,0,1,1.61.4,3.19,3.19,0,0,1,1,1,4,4,0,0,1,.54,1.35,5.8,5.8,0,0,1,.12,1.4h-5.45a2.89,2.89,0,0,0,.11.91,2.05,2.05,0,0,0,.41.76,2,2,0,0,0,.72.53,2.48,2.48,0,0,0,1,.2,2.08,2.08,0,0,0,1.25-.35,1.7,1.7,0,0,0,.64-1.07h1.18A2.91,2.91,0,0,1,453,56.88Zm-.29-4.68a2.06,2.06,0,0,0-.44-.66,2.1,2.1,0,0,0-.65-.44,2.07,2.07,0,0,0-.82-.16,2.11,2.11,0,0,0-.84.16,1.94,1.94,0,0,0-.64.44,2.12,2.12,0,0,0-.42.66,2.52,2.52,0,0,0-.18.8h4.19A2.46,2.46,0,0,0,452.73,52.2Z" transform="translate(-19.47 -23.04)"/><path class="cls-1" d="M456.43,55.71a1.27,1.27,0,0,0,.44.44,2,2,0,0,0,.62.23,3.59,3.59,0,0,0,.71.07,4.33,4.33,0,0,0,.59,0,2.15,2.15,0,0,0,.57-.15,1.07,1.07,0,0,0,.43-.33.89.89,0,0,0,.17-.56.8.8,0,0,0-.35-.7,3,3,0,0,0-.88-.39q-.53-.15-1.15-.27a6,6,0,0,1-1.15-.34,2.36,2.36,0,0,1-.88-.61,1.59,1.59,0,0,1-.35-1.1,1.75,1.75,0,0,1,.25-.94,2,2,0,0,1,.63-.64A2.93,2.93,0,0,1,457,50a4.06,4.06,0,0,1,1-.12,5.73,5.73,0,0,1,1.14.11,2.64,2.64,0,0,1,.92.37,1.9,1.9,0,0,1,.64.7,2.66,2.66,0,0,1,.28,1.1h-1.2a1.15,1.15,0,0,0-.58-1,1.82,1.82,0,0,0-.53-.2,2.71,2.71,0,0,0-.58-.06,3.65,3.65,0,0,0-.54,0,1.87,1.87,0,0,0-.5.15,1,1,0,0,0-.37.28.71.71,0,0,0-.14.46.67.67,0,0,0,.22.51,1.72,1.72,0,0,0,.56.34A4.73,4.73,0,0,0,458,53l.85.19c.3.07.59.15.88.24a2.9,2.9,0,0,1,.76.37,1.84,1.84,0,0,1,.54.59,1.72,1.72,0,0,1,.2.87,2,2,0,0,1-.28,1.1,2.15,2.15,0,0,1-.72.7,3,3,0,0,1-1,.37,6,6,0,0,1-1.11.1,5.19,5.19,0,0,1-1.16-.13,2.83,2.83,0,0,1-1-.42,2.12,2.12,0,0,1-.68-.76,2.62,2.62,0,0,1-.28-1.15h1.2A1.35,1.35,0,0,0,456.43,55.71Z" transform="translate(-19.47 -23.04)"/><path class="cls-1" d="M462.38,52.21a3.39,3.39,0,0,1,.68-1.21,3.18,3.18,0,0,1,1.11-.81,4.07,4.07,0,0,1,3.05,0,3.19,3.19,0,0,1,1.11.81,3.39,3.39,0,0,1,.68,1.21,4.85,4.85,0,0,1,.23,1.5A4.79,4.79,0,0,1,469,55.2a3.41,3.41,0,0,1-.68,1.2,3.12,3.12,0,0,1-1.11.8,4.18,4.18,0,0,1-3.05,0,3.11,3.11,0,0,1-1.11-.8,3.41,3.41,0,0,1-.68-1.2,4.79,4.79,0,0,1-.23-1.49A4.85,4.85,0,0,1,462.38,52.21Zm1.22,2.68a2.46,2.46,0,0,0,.49.86,2.09,2.09,0,0,0,.73.53,2.21,2.21,0,0,0,1.76,0,2.1,2.1,0,0,0,.73-.53,2.46,2.46,0,0,0,.49-.86,4,4,0,0,0,0-2.35,2.55,2.55,0,0,0-.49-.87,2.09,2.09,0,0,0-.73-.54,2.21,2.21,0,0,0-1.76,0,2.09,2.09,0,0,0-.73.54,2.55,2.55,0,0,0-.49.87,4,4,0,0,0,0,2.35Z" transform="translate(-19.47 -23.04)"/><path class="cls-1" d="M475.51,57.34V56.19h0a2.45,2.45,0,0,1-1,1,2.9,2.9,0,0,1-1.39.32,3.27,3.27,0,0,1-1.2-.19,1.91,1.91,0,0,1-.77-.54,2,2,0,0,1-.42-.84,4.53,4.53,0,0,1-.12-1.08V50.06h1.2V55a1.45,1.45,0,0,0,.39,1.07,1.47,1.47,0,0,0,1.08.39,2.45,2.45,0,0,0,1-.17,1.79,1.79,0,0,0,.67-.48,2.07,2.07,0,0,0,.4-.73,3,3,0,0,0,.13-.91V50.06h1.2v7.28Z" transform="translate(-19.47 -23.04)"/><path class="cls-1" d="M479.51,50.06v1.54h0a3.24,3.24,0,0,1,1.07-1.31,2.69,2.69,0,0,1,1.61-.39v1.27a3.39,3.39,0,0,0-1.23.2,1.94,1.94,0,0,0-.82.58,2.38,2.38,0,0,0-.45.92,5,5,0,0,0-.14,1.25v3.24h-1.2V50.06Z" transform="translate(-19.47 -23.04)"/><path class="cls-1" d="M487.43,51.33a1.81,1.81,0,0,0-1.21-.38,2.23,2.23,0,0,0-1.08.24,1.92,1.92,0,0,0-.7.63,2.64,2.64,0,0,0-.37.91,5,5,0,0,0-.11,1.06,4.07,4.07,0,0,0,.12,1,2.65,2.65,0,0,0,.37.85,1.89,1.89,0,0,0,.66.6,2,2,0,0,0,1,.23,2,2,0,0,0,1.39-.46,2.1,2.1,0,0,0,.61-1.31h1.23a3.36,3.36,0,0,1-1,2.09,3.16,3.16,0,0,1-2.2.73,3.8,3.8,0,0,1-1.47-.27,2.87,2.87,0,0,1-1.07-.76,3.28,3.28,0,0,1-.65-1.18,4.89,4.89,0,0,1-.22-1.5,5.35,5.35,0,0,1,.21-1.53,3.52,3.52,0,0,1,.64-1.24,3,3,0,0,1,1.08-.83,3.52,3.52,0,0,1,1.51-.3,4.42,4.42,0,0,1,1.16.15,2.84,2.84,0,0,1,1,.46,2.51,2.51,0,0,1,.68.78,2.89,2.89,0,0,1,.34,1.12H488A1.82,1.82,0,0,0,487.43,51.33Z" transform="translate(-19.47 -23.04)"/><path class="cls-1" d="M495.79,56.88a3.31,3.31,0,0,1-2.06.62,3.73,3.73,0,0,1-1.51-.28,3,3,0,0,1-1.08-.79,3.36,3.36,0,0,1-.66-1.21,5.83,5.83,0,0,1-.25-1.54,4.38,4.38,0,0,1,.25-1.52,3.64,3.64,0,0,1,.71-1.2,3.22,3.22,0,0,1,1.08-.79,3.32,3.32,0,0,1,1.37-.28,3,3,0,0,1,1.61.4,3.19,3.19,0,0,1,1,1,4,4,0,0,1,.54,1.35,5.8,5.8,0,0,1,.12,1.4h-5.45a2.89,2.89,0,0,0,.11.91,2.05,2.05,0,0,0,.41.76,2,2,0,0,0,.72.53,2.48,2.48,0,0,0,1,.2A2.08,2.08,0,0,0,495,56.1a1.7,1.7,0,0,0,.64-1.07h1.18A2.91,2.91,0,0,1,495.79,56.88Zm-.29-4.68a2.06,2.06,0,0,0-.44-.66,2.1,2.1,0,0,0-.65-.44,2.07,2.07,0,0,0-.82-.16,2.11,2.11,0,0,0-.84.16,1.94,1.94,0,0,0-.64.44,2.12,2.12,0,0,0-.42.66,2.52,2.52,0,0,0-.18.8h4.19A2.46,2.46,0,0,0,495.5,52.2Z" transform="translate(-19.47 -23.04)"/><path class="cls-1" d="M499.2,55.71a1.27,1.27,0,0,0,.44.44,2,2,0,0,0,.62.23,3.59,3.59,0,0,0,.71.07,4.33,4.33,0,0,0,.59,0,2.15,2.15,0,0,0,.57-.15,1.07,1.07,0,0,0,.43-.33.89.89,0,0,0,.17-.56.8.8,0,0,0-.35-.7,3,3,0,0,0-.88-.39q-.53-.15-1.15-.27a6,6,0,0,1-1.15-.34,2.36,2.36,0,0,1-.88-.61A1.59,1.59,0,0,1,498,52a1.75,1.75,0,0,1,.25-.94,2,2,0,0,1,.63-.64,2.93,2.93,0,0,1,.87-.37,4.06,4.06,0,0,1,1-.12,5.73,5.73,0,0,1,1.14.11,2.64,2.64,0,0,1,.92.37,1.9,1.9,0,0,1,.64.7,2.66,2.66,0,0,1,.28,1.1h-1.2a1.15,1.15,0,0,0-.58-1,1.82,1.82,0,0,0-.53-.2,2.71,2.71,0,0,0-.58-.06,3.65,3.65,0,0,0-.54,0,1.87,1.87,0,0,0-.5.15,1,1,0,0,0-.37.28.71.71,0,0,0-.14.46.67.67,0,0,0,.22.51,1.72,1.72,0,0,0,.56.34,4.73,4.73,0,0,0,.76.23l.85.19c.3.07.59.15.88.24a2.9,2.9,0,0,1,.76.37,1.84,1.84,0,0,1,.54.59,1.72,1.72,0,0,1,.2.87,2,2,0,0,1-.28,1.1,2.15,2.15,0,0,1-.72.7,3,3,0,0,1-1,.37,6,6,0,0,1-1.11.1,5.19,5.19,0,0,1-1.16-.13,2.83,2.83,0,0,1-1-.42,2.12,2.12,0,0,1-.68-.76,2.62,2.62,0,0,1-.28-1.15H499A1.35,1.35,0,0,0,499.2,55.71Z" transform="translate(-19.47 -23.04)"/></svg>