<svg xmlns="http://www.w3.org/2000/svg" xmlns:xlink="http://www.w3.org/1999/xlink" width="32" height="30" viewBox="0 0 32 30"><defs><path id="61wea" d="M924.07 6876.3a5.04 5.04 0 0 1-5.08-4.94c0-2.7 2.3-4.94 5.08-4.94a5.04 5.04 0 0 1 5.09 4.94c0 2.71-2.3 4.94-5.09 4.94zm0-12.65a7.84 7.84 0 0 0-7.93 7.71 7.8 7.8 0 0 0 7.93 7.72c4.4 0 7.94-3.5 7.94-7.72s-3.6-7.71-7.94-7.71z"/><path id="61web" d="M929.79 6862.73c0-.96.8-1.74 1.8-1.74s1.8.78 1.8 1.75c0 .96-.8 1.74-1.8 1.74s-1.8-.78-1.8-1.75z"/><path id="61wec" d="M936.5 6877.21a7.5 7.5 0 0 1-1.48 4.39 8.92 8.92 0 0 1-5.17 1.46h-12.54a7.7 7.7 0 0 1-4.43-1.46 6.98 6.98 0 0 1-1.48-4.39v-12.43c0-1.73.56-3.22 1.48-4.39a7.56 7.56 0 0 1 4.43-1.46h13.28a7.7 7.7 0 0 1 4.43 1.46 7.66 7.66 0 0 1 1.48 4.39v12.43s0-.06 0 0zm.73-19.01a11.6 11.6 0 0 0-6.64-2.2h-13.28c-5.24 0-8.86 3.5-8.86 8.78v12.44c0 2.55.87 4.79 2.95 6.58 1.36 1.41 3.61 2.2 5.9 2.2h13.3c2.41 0 4.66-.85 6.63-2.2a10.66 10.66 0 0 0 2.22-6.58v-12.44c0-2.55-.88-4.73-2.22-6.58z"/></defs><g><g transform="translate(-908 -6856)"><g><use xlink:href="#61wea"/></g><g><use xlink:href="#61web"/></g><g><use xlink:href="#61wec"/></g></g></g></svg>