<?xml version="1.0" encoding="utf-8"?>
<!-- Generator: Adobe Illustrator 25.4.1, SVG Export Plug-In . SVG Version: 6.00 Build 0)  -->
<svg version="1.1" id="Layer_1" xmlns="http://www.w3.org/2000/svg" xmlns:xlink="http://www.w3.org/1999/xlink" x="0px" y="0px"
	 viewBox="0 0 54.9 71.4" style="enable-background:new 0 0 54.9 71.4;" xml:space="preserve">
<style type="text/css">
	.st0{fill:url(#SVGID_1_);}
	.st1{fill:url(#SVGID_00000134230496235598410970000009900933956623621805_);}
	.st2{fill:url(#SVGID_00000119091564194300814820000015084325716513668229_);}
</style>
<linearGradient id="SVGID_1_" gradientUnits="userSpaceOnUse" x1="24.597" y1="26.7297" x2="9.3347" y2="59.4598">
	<stop  offset="0" style="stop-color:#0757A8"/>
	<stop  offset="1" style="stop-color:#053C68"/>
</linearGradient>
<path class="st0" d="M46.6,38.4c-2.5-1.2-5.1-2.5-7.6-3.7L13.4,50.6c-1.1,0.7-2.2,0.9-3,0.5c-0.6-0.3-1-1.1-1.1-2.4l0.1-28.2
	l-7.3-4.3c0,13.2,0.1,20.6,0,33.8c0,2.1,0.5,3.9,1.4,5.4c0.7,1.2,1.7,2.1,2.9,2.7c1.1,0.6,2.4,0.9,3.7,0.9c2.2,0,4.6-0.7,7.1-2.3
	C27,50.6,36.8,44.5,46.6,38.4L46.6,38.4z"/>
<linearGradient id="SVGID_00000134236353947618220150000007644563288505121691_" gradientUnits="userSpaceOnUse" x1="14.1989" y1="41.9523" x2="52.2396" y2="39.9586">
	<stop  offset="0" style="stop-color:#0757A8"/>
	<stop  offset="1" style="stop-color:#053C68"/>
</linearGradient>
<path style="fill:url(#SVGID_00000134236353947618220150000007644563288505121691_);" d="M15.5,66.1c0-2.8,0-5.7,0-8.4L42.3,41
	c1.1-0.7,1.8-1.6,1.7-2.5c0-0.7-0.5-1.4-1.7-2.1L16.6,23.8l0.1-3.3c0-0.7,0.2-1.4,0.4-1.8c0.3-0.7,1.2-1.2,2-1.2
	c0.5,0,1,0.1,1.5,0.4l15.7,7.6l10.5,5.1c1.9,0.9,3.3,2.1,4.2,3.6c0.7,1.2,1.1,2.4,1.1,3.8c0,1.3-0.2,2.5-0.8,3.8
	c-0.9,1.9-2.7,3.8-5.2,5.4c-9.8,6.1-17.5,11-27.3,17.1L15.5,66.1z"/>
<g>
	
		<linearGradient id="SVGID_00000146481239240468227910000012189064254913860780_" gradientUnits="userSpaceOnUse" x1="32.5419" y1="39.6654" x2="13.3022" y2="12.1882">
		<stop  offset="0" style="stop-color:#0757A8"/>
		<stop  offset="1" style="stop-color:#053C68"/>
	</linearGradient>
	<path style="fill:url(#SVGID_00000146481239240468227910000012189064254913860780_);" d="M52.9,25.4c-9.9-4.8-19-9.2-28.9-14
		c-1.7-0.9-3.4-1.3-5-1.2c-1.8,0-3.5,0.5-4.9,1.5c-1.4,0.9-2.5,2.2-3.3,3.8c-0.8,1.7-1.4,3.8-1.4,6.2l0,27c0.1,1.3,0.5,2.1,1.1,2.4
		c0.8,0.4,1.9,0.2,3-0.5l3-1.8l0.2-0.1l0.1-27.3c0-1.4-0.1-2.7,1.2-3.5c0.4-0.2,0.8-0.4,1.1-0.4c0.5,0,1,0.1,1.5,0.4L45.9,30
		l4.3-2.7L52.9,25.4z"/>
</g>
</svg>
