<svg id="common-nav-order" xmlns="http://www.w3.org/2000/svg" width="36" height="23" viewBox="0 0 36 23">
  <metadata><?xpacket begin="﻿" id="W5M0MpCehiHzreSzNTczkc9d"?>
<x:xmpmeta xmlns:x="adobe:ns:meta/" x:xmptk="Adobe XMP Core 5.6-c142 79.160924, 2017/07/13-01:06:39        ">
   <rdf:RDF xmlns:rdf="http://www.w3.org/1999/02/22-rdf-syntax-ns#">
      <rdf:Description rdf:about=""/>
   </rdf:RDF>
</x:xmpmeta>
                                                                                                    
                                                                                                    
                                                                                                    
                                                                                                    
                                                                                                    
                                                                                                    
                                                                                                    
                                                                                                    
                                                                                                    
                                                                                                    
                                                                                                    
                                                                                                    
                                                                                                    
                                                                                                    
                                                                                                    
                                                                                                    
                                                                                                    
                                                                                                    
                                                                                                    
                                                                                                    
                           
<?xpacket end="w"?></metadata>
<defs>
    <style>
      .cls-1 {
        fill: #5f79c0;
      }

      .cls-1, .cls-2 {
        fill-rule: evenodd;
      }

      .cls-2 {
        fill: #eaa23e;
      }
    </style>
  </defs>
  <path class="cls-1" d="M1712.48,36.751l-0.93-3.767a0.568,0.568,0,0,0,.44-0.556V31.82a2.379,2.379,0,0,0-2.36-2.391h-4.25V28.177A1.172,1.172,0,0,0,1704.21,27h-21.64a1.178,1.178,0,0,0-1.17,1.177V38.5a0.573,0.573,0,0,0,.57.569,0.564,0.564,0,0,0,.56-0.569V28.177a0.041,0.041,0,0,1,.04-0.039h21.64a0.035,0.035,0,0,1,.04.039V38.5a0.565,0.565,0,1,0,1.13,0V37.855h6.65a1.835,1.835,0,0,1,1.75,1.29h-1.75a0.564,0.564,0,0,0-.56.57v1.214a1.774,1.774,0,0,0,1.76,1.784h0.64v2.5h-1.47a3.559,3.559,0,0,0-6.75,0h-0.27V40.929a0.565,0.565,0,1,0-1.13,0v4.289h-11.69a3.559,3.559,0,0,0-6.75,0h-3.24a0.041,0.041,0,0,1-.04-0.038V43.927h2.44a0.57,0.57,0,1,0,0-1.139h-5.41a0.57,0.57,0,0,0,0,1.139h1.85V45.18a1.17,1.17,0,0,0,1.16,1.176h3.04v0.038a3.57,3.57,0,1,0,7.14,0V46.356h12.71c0,0.012-.01.025-0.01,0.038a3.57,3.57,0,1,0,7.14,0V46.356h1.85a0.564,0.564,0,0,0,.56-0.569V39.715A3,3,0,0,0,1712.48,36.751Zm-7.1-6.183h4.25a1.25,1.25,0,0,1,1.24,1.252v0.038h-5.49v-1.29Zm0,6.149V33h5.01l0.92,3.72h-5.93Zm-16.2,12.145a2.467,2.467,0,1,1,2.45-2.467A2.46,2.46,0,0,1,1689.18,48.861Zm19.84,0a2.467,2.467,0,1,1,2.45-2.467A2.46,2.46,0,0,1,1709.02,48.861Zm4.85-7.287h-0.64a0.645,0.645,0,0,1-.64-0.645V40.284h1.28v1.29h0Zm-24.69,3.643a1.176,1.176,0,1,0,1.17,1.176A1.169,1.169,0,0,0,1689.18,45.218Zm19.84,0a1.176,1.176,0,1,0,1.17,1.176A1.169,1.169,0,0,0,1709.02,45.218Z" transform="translate(-1679 -27)"/>
  <path id="Shape_1_copy_3" data-name="Shape 1 copy 3" class="cls-2" d="M1702.35,42.788h-8.39a0.57,0.57,0,1,0,0,1.139h8.39A0.57,0.57,0,0,0,1702.35,42.788Zm-14.39-2.429h-7.2a0.569,0.569,0,0,0,0,1.139h7.2A0.569,0.569,0,0,0,1687.96,40.359Zm10.59-7.728a0.552,0.552,0,0,0-.79,0l-5,5.063-2.6-2.634a0.562,0.562,0,0,0-.8,0,0.574,0.574,0,0,0,0,.805l3,3.036a0.553,0.553,0,0,0,.4.167,0.547,0.547,0,0,0,.39-0.167l5.4-5.466A0.573,0.573,0,0,0,1698.55,32.632Z" transform="translate(-1679 -27)"/>
</svg>
