<svg version="1.1" fill="#4cc02a" xmlns="http://www.w3.org/2000/svg" xmlns:xlink="http://www.w3.org/1999/xlink" x="0px" y="0px"
	 viewBox="0 0 50 52.5" style="enable-background:new 0 0 50 52.5;" xml:space="preserve">
<g>
	<path d="M45.8,49.1c-1.5,3.7-4.8,4.2-9.2,2.5c-11.9-4.7-32.4-27-36-39.2C-0.7,7.9,0,4.6,3.9,3.4C8.4,2.1,13.1-3.1,17,2.6
		c2.3,3.4,9.7,10.5,5.5,13.9c-1.8,1.4-2.9,2.8-3.4,3.6c2.3,3.5,8.1,9.9,11.4,12.5c0.8-0.5,2.3-1.5,3.9-3.1
		c3.8-3.9,10.3,4.1,13.4,6.6C53.1,40.4,47.5,44.7,45.8,49.1z"/>
</g>
</svg>