<svg width="271" height="48" fill="none" xmlns="http://www.w3.org/2000/svg"><g clip-path="url(#clip0)"><path fill="#fff" d="M0 0h271v48H0z"/><path fill-rule="evenodd" clip-rule="evenodd" d="M168.378 27.68c.045-.064.067-.13.032-.198a.21.21 0 00-.189-.118c-.032 0-.063-.003-.094 0-.066.003-.109.082-.071.137.078.11.167.207.322.179zm-13.259-6.416c-.205-.05-.392-.114-.583-.135a5.49 5.49 0 01-.716-.135.551.551 0 00-.29-.011l.545.316c.02.011.04.027.061.034.038.01.076.023.115.024.266.016.532.004.796-.035.019-.003.035-.028.072-.058zm5.909-2.194c.006.02.006.046.018.065.031.044.065.088.103.128.066.068.103.076.186.023a1.88 1.88 0 01.497-.213c.461-.13.923-.21 1.394-.055.022.008.046.01.07.011.046.004.089-.059.064-.098a.249.249 0 00-.078-.083.77.77 0 00-.363-.092c-.189-.006-.378 0-.567-.008-.392-.018-.765.076-1.134.19-.072.023-.153.044-.19.132zm8.263 2.99c.033-.135.064-.24.085-.347a.169.169 0 00-.021-.112c-.101-.177-.368-.181-.467-.005a.686.686 0 00-.073.388.264.264 0 00.043.108c.122.207.28.378.499.486.071.035.147.06.213.103.132.083.267.163.387.264.157.133.219.321.254.519.009.05-.005.113.077.142.045-.152.075-.3-.011-.445-.089-.148-.172-.3-.275-.438a.934.934 0 00-.349-.31c-.165-.076-.265-.215-.362-.353zm-2.487 11.719c-.072.052-.12.079-.154.115a.64.64 0 01-.363.207c-.17.031-.34.063-.512.078-.123.014-.25.004-.374 0-.206-.002-.41-.017-.613-.009a.683.683 0 00-.44.203c-.125.118-.146.224-.027.396.066.096.17.137.291.114.117-.02.181-.086.191-.205.003-.029.016-.058.02-.08a.97.97 0 01.435-.14c.125-.007.251-.018.376-.02.224 0 .437-.042.635-.146.07-.036.128-.097.199-.124.139-.056.226-.168.319-.274.014-.016.008-.052.017-.115zm-3.758-9.506c-.027.122.021.2.044.28.048.175.116.345.143.521.02.132.067.259.138.372.194.314.389.627.575.946.137.24.252.489.342.753-.098.219-.141.439-.044.679.048-.028.051-.066.061-.104.041-.16.08-.325.199-.447.099-.102.092-.203.048-.323a4.712 4.712 0 00-.421-.84c-.151-.25-.318-.488-.481-.73a3.434 3.434 0 01-.294-.618c-.054-.18-.129-.35-.31-.49v.001zm7.824-6.617c.003-.014.006-.029.007-.043-.017-.013-.033-.035-.052-.037-.288-.028-.579-.057-.871-.043-.275.014-.551.024-.825.037-.079.004-.158.008-.236.016-.484.053-.969.1-1.443.224-.319.083-.644.146-.963.224-.497.12-.984.278-1.466.447-.416.146-.827.305-1.24.46a.694.694 0 00-.149.069c-.036.023-.06.063-.094.101.102.11.205.188.332.247l.187-.102c.136-.079.266-.171.409-.234.324-.142.65-.278.983-.403a12.4 12.4 0 01.848-.284c.324-.096.653-.177.979-.265a9.853 9.853 0 011.407-.3c.665-.08 1.332-.13 2.003-.114.06.002.123 0 .184 0zm-2.683 9.574c.083.087.194.103.299.13a.408.408 0 00.254-.018.543.543 0 00.264-.732c-.024-.047-.054-.095-.079-.142a.405.405 0 01.016-.426 4.88 4.88 0 01.228-.326c.15-.196.363-.322.549-.478.263-.221.476-.477.573-.816a.855.855 0 00.001-.396c-.003-.016-.033-.038-.051-.04-.017 0-.047.02-.053.037-.022.067-.033.138-.055.205-.031.098-.048.207-.107.284-.115.147-.237.301-.39.405-.195.133-.373.285-.561.426-.3.224-.544.491-.73.818a1.274 1.274 0 00-.175.79c.009.085.011.17.017.28v-.001zM155.23 14.648c-1.68-1.446-2.901-3.192-3.653-5.272-.042.02-.071.03-.093.047-.079.066-.106.156-.108.254-.003.158.013.313.071.464.117.309.258.606.42.895.269.48.535.96.882 1.39.248.306.486.622.748.914.384.428.835.785 1.297 1.127.082.061.164.123.247.18.047.032.097.057.189.001zm-.245 26.68c.029-.063.043-.084.046-.104.016-.132.031-.265.043-.399.021-.22.06-.433.138-.643.117-.316.223-.636.356-.947.137-.317.241-.649.357-.974.081-.228.158-.46.236-.69.116-.343.228-.687.346-1.028.056-.162.14-.315.157-.492.006-.06.037-.12.065-.176a.784.784 0 00.068-.246c.018-.117.058-.228.093-.34.017-.062.051-.116.066-.177.03-.126.037-.25-.038-.364-.023-.034-.047-.064-.105-.042-.057.093-.086.209-.125.319-.03.083-.098.093-.165.032-.236-.22-.343-.503-.388-.814-.015-.11-.033-.217-.05-.325a.243.243 0 00-.136-.19c-.02.039-.051.072-.052.105-.001.141-.001.28.012.422.014.147.054.294.061.44.012.213.005.424.005.636 0 .11.006.22 0 .33-.011.195-.027.39-.042.586-.014.173-.025.345-.046.515-.062.51-.194 1.002-.318 1.497-.073.29-.167.574-.227.867-.066.325-.177.636-.287.947a2.93 2.93 0 00-.165.945c-.001.056-.003.112.01.164.009.042.042.076.085.146zm-2.846-24.913a.494.494 0 00-.034.468.789.789 0 00.322.395c.047.027.092.057.121.077.006.136-.009.257.021.366.081.302.159.36.438.358.213-.002.425-.017.637-.024a.887.887 0 00.364-.09c.36-.179.719-.358 1.077-.539.026-.013.044-.038.085-.075-.087-.031-.152-.053-.216-.078-.183-.07-.371-.131-.548-.214-.298-.14-.586-.306-.889-.436a5.882 5.882 0 01-.843-.47 3.737 3.737 0 01-.501-.392 3.201 3.201 0 01-.596-.726.543.543 0 00-.071-.094c-.026-.028-.056-.056-.107-.02-.022.13.024.258.038.389.02.188.093.346.211.49.159.195.313.394.491.615z" fill="#DB334A"/><path fill-rule="evenodd" clip-rule="evenodd" d="M156.08 16.519c.07-.062.043-.102-.011-.139-.343-.236-.687-.47-1.03-.709-.511-.352-1.04-.68-1.5-1.102-.29-.265-.625-.48-.887-.777-.192-.218-.391-.434-.561-.668-.311-.43-.535-.908-.721-1.405a2.304 2.304 0 01-.12-1.275l.015-.094c.029-.165-.081-.299-.102-.454a.182.182 0 00-.118-.15.702.702 0 00-.209.323c-.161.456-.129.919-.006 1.372.132.485.34.945.583 1.386.034.06.062.124.087.177-.122.2-.124.235-.069.435.049.18.14.334.263.47.152.17.305.339.476.49.2.176.38.376.606.522.436.283.868.57 1.318.828.451.261.935.45 1.427.619.183.063.376.102.559.15v.001zm3.096 1.922c.03-.025.062-.039.072-.062a.251.251 0 00.017-.115c-.018-.37-.009-.74-.07-1.108-.051-.302-.081-.609-.155-.905a7.62 7.62 0 00-.301-.919 17.25 17.25 0 00-.435-1.02c-.126-.28-.259-.557-.405-.825-.192-.353-.4-.696-.603-1.043a8.657 8.657 0 00-.222-.362c-.019-.029-.051-.049-.103-.096.003.063-.004.095.008.12.024.057.067.108.086.167.081.245.144.497.236.738.101.267.151.545.2.822.046.271.054.548.076.821.031.4-.042.785-.176 1.158-.07.191-.172.37-.254.558-.105.241-.244.456-.463.611-.01.007-.011.027-.021.055.068.014.133.033.2.043.331.049.638.168.926.336.389.226.749.493 1.11.76.063.045.115.106.172.161l.105.105zm-2.219 8.77c-.133.121-.255.245-.389.352-.209.168-.426.325-.64.485-.23.173-.143.17-.436.052a.646.646 0 01-.157-.103 9.224 9.224 0 01-.28-.252 1.154 1.154 0 01-.157-.177c-.188-.29-.368-.586-.467-.922-.004-.013-.017-.024-.033-.049l-.187-.066c-.026.035-.048.057-.063.082-.124.21-.233.43-.372.628-.205.308-.393.628-.563.957-.134.248-.245.51-.364.766-.028.061-.061.126-.005.197.056-.024.108-.043.157-.068a.571.571 0 01.298-.056c.275.016.545.035.813.123.381.123.771.101 1.12-.1.195-.114.398-.187.607-.254.188-.06.382-.091.582-.087.315.006.627-.044.939-.079a.629.629 0 00.138-.03c.17-.063.339-.127.507-.195.166-.067.285-.222.471-.255.013-.002.025-.019.038-.028.335-.24.54-.585.76-.921.039-.061.043-.132-.012-.196-.024-.003-.048-.013-.069-.009-.062.012-.123.03-.183.046-.137.032-.274.082-.413.096-.313.03-.627.05-.941.06-.236.01-.472.003-.699.003zm-2.801 16.983c-.159.116-.189.14-.369.173-.24.04-.484.069-.726.092-.282.025-.565.04-.848.058-.023.002-.051.002-.068.013-.031.021-.07.046-.081.079a.358.358 0 00.016.297.15.15 0 00.132.086c.071.003.142.003.213.003l4.892-.01c.063 0 .126 0 .189-.003.09-.005.123-.04.132-.133a.738.738 0 00.002-.094c-.007-.142-.046-.205-.183-.235-.176-.04-.356-.064-.534-.095l-.153-.025c-.073-.152-.066-.324-.208-.445-.068-.003-.146-.015-.223-.008a1.2 1.2 0 00-.278.051.655.655 0 01-.439-.02 1.837 1.837 0 01-.715-.446c-.07-.072-.118-.165-.169-.253-.027-.046-.032-.107-.06-.154a.597.597 0 01-.066-.364c.006-.063.011-.126.006-.189-.014-.23-.152-.342-.378-.307-.038.005-.076.019-.115.025-.143.021-.25-.057-.263-.2a.446.446 0 01.021-.185c.063-.169.123-.343.209-.5.247-.446.386-.927.48-1.424.072-.379.153-.755.222-1.135.042-.232.096-.461.098-.698.002-.334.074-.656.162-.976.065-.233.128-.47.188-.705a.69.69 0 00.02-.163c.009-.234-.066-.465-.005-.693-.182-.066-.187-.064-.255.066-.014.027-.027.057-.042.085-.21.43-.422.86-.632 1.292a1.39 1.39 0 00-.16.704c.017.26.034.518.053.778.012.18.015.362-.024.542-.042.192-.077.386-.124.576-.065.267-.145.53-.205.8-.07.3-.197.58-.324.86a.269.269 0 01-.064.096c-.13.114-.194.268-.266.415-.125.256-.115.507.072.728.194.231.306.499.367.784.039.184.123.336.231.483.088.119.174.238.272.374zm-1.524-25.896c-.107.082-.124.168-.087.267.11.292.258.556.552.73-.134.209-.28.41-.274.667.005.246.039.485.177.695.03.003.054.01.076.007.27-.036.534.004.796.061a.871.871 0 00.369.016c.177-.033.36-.038.54-.048.157-.01.315-.009.472-.017.073-.004.114-.062.094-.131-.027-.09-.064-.178-.094-.268-.048-.147-.109-.294-.076-.461.028-.017.054-.033.082-.048.224-.12.465-.187.718-.218.038-.004.08-.01.072-.077-.056-.012-.116-.033-.177-.039-.165-.013-.33-.031-.494-.027-.269.008-.508-.09-.748-.187a.213.213 0 01-.09-.071.791.791 0 01-.156-.314c-.017-.079.006-.133.063-.188.142-.134.314-.207.495-.263.211-.064.422-.129.633-.188.113-.032.229-.057.344-.08a.263.263 0 01.241.067c.181.167.335.354.423.588.084.22.174.44.244.663.063.194.103.395.148.594.012.053.006.109.005.165-.002.102-.009.204-.01.307-.002.044.002.089.003.135.036.007.059.012.081.013.178.002.337-.068.5-.125.428-.151.85-.148 1.256.072.159.087.309.188.465.28.06.035.126.061.19.088.01.005.032-.005.041-.015.01-.009.017-.029.013-.04a.206.206 0 00-.034-.061 9.091 9.091 0 01-.661-1.032 7.321 7.321 0 00-.817-1.21c-.23-.27-.456-.542-.739-.76a1.295 1.295 0 00-.175-.119c-.287-.153-.598-.241-.911-.32a.663.663 0 00-.34-.017l.156.23c-.077.014-.129.026-.18.032a2.225 2.225 0 00-.575.124c-.196.078-.411.113-.58.253-.017.015-.043.018-.065.027-.374.15-.76.256-1.155.33-.273.052-.548.066-.811-.087zm-.306 2.678c-.117.019-.195.103-.288.155-.101.057-.152.152-.175.268a.47.47 0 00.029.3c.091.191.179.385.282.57.203.36.442.691.799.917.016.01.023.037.038.062-.065.105-.158.174-.25.247a.897.897 0 01-.891.15c-.059-.02-.118-.044-.179-.06-.17-.04-.328-.03-.455.111-.058.064-.125.121-.181.186a.893.893 0 00-.228.605c.001.087-.006.174.002.26.017.193-.008.377-.137.52a.332.332 0 00.241.253c.131.041.269.05.39-.018a.75.75 0 01.431-.093c.078.004.158.001.235-.009.065-.009.108-.066.114-.133a.73.73 0 00-.061-.345c-.033-.08-.118-.116-.216-.104-.063.008-.125.03-.186.025a.492.492 0 00-.31.089c-.064.039-.13.087-.23.066a1.23 1.23 0 01.204-.69.54.54 0 01.365-.238c.178-.033.352-.087.529-.12.212-.04.412-.103.589-.231.02-.014.05-.015.097-.027-.01.061-.014.1-.023.136-.027.122-.054.245-.085.367a.655.655 0 00.009.326c.051.2.145.362.326.469.026.015.046.038.073.062l-.054.137c-.033.086-.071.174-.097.264-.07.229-.068.443.093.645.109.139.212.27.372.353.083.044.147.033.216-.021.257-.21.565-.35.892-.404a.363.363 0 00.259-.181c.126-.21.262-.413.395-.617.129-.2.273-.387.466-.53.125-.09.175-.212.189-.362.013-.156.034-.313.07-.466.036-.152.095-.3.145-.449a.703.703 0 01.173-.304c.023-.021.029-.061.045-.104-.058-.005-.097-.013-.135-.009-.174.02-.326-.039-.473-.12-.034-.02-.07-.037-.102-.06a.916.916 0 00-.535-.154c-.063-.002-.127-.002-.189-.007-.026-.003-.051-.019-.102-.039.059-.035.092-.053.124-.074.1-.067.2-.066.313-.024.168.065.341.121.514.173.143.044.291.07.422.148.085.051.167.029.239-.034.045-.038.085-.082.142-.136.041.093.023.172.036.247.015.085.035.169.051.253.007.04.021.08.016.118-.024.156.036.292.097.43.057.13.107.261.169.389.054.113.116.223.184.328.076.12.181.213.329.293-.004-.058.004-.1-.009-.131-.026-.065-.064-.125-.099-.187-.113-.2-.226-.396-.338-.596-.026-.047-.058-.098-.065-.151-.028-.226-.067-.453-.065-.68.002-.298.036-.595.059-.893.009-.117.027-.233.038-.35.004-.047.001-.093.001-.145-.105-.055-.2-.111-.3-.152-.064-.026-.136-.031-.206-.043-.008-.001-.02.018-.042.04.026.025.05.053.077.076.03.026.069.043.093.072.017.02.031.065.021.082-.018.03-.057.066-.087.065-.053 0-.105-.023-.157-.04-.06-.02-.117-.05-.178-.065-.072-.017-.173.103-.146.172.008.019.031.04.05.045a.52.52 0 00.118.007c.124 0 .246.022.361.067.029.176.014.201-.122.22l-.024.001c-.188 0-.374.056-.564.026-.045-.007-.075.019-.084.063-.01.05.023.097.073.102.039.004.079 0 .117.003.056.001.11.003.166.006.07.005.112.048.141.109.019.04.024.08-.008.109-.019.018-.056.034-.082.029-.131-.024-.261-.056-.392-.084a1.104 1.104 0 01-.373-.14c-.092-.058-.194-.1-.29-.154-.052-.027-.107-.042-.159-.016-.246.122-.512.201-.744.354-.164.108-.326.217-.511.295a.365.365 0 01-.338-.002c-.223-.118-.441-.249-.602-.448a2.462 2.462 0 01-.436-.752.699.699 0 01-.025-.438c.023-.073.048-.149.009-.235z" fill="#DB334A"/><path fill-rule="evenodd" clip-rule="evenodd" d="M159.172 15.522l.03-.001c-.009-.101-.005-.205-.031-.302a7.233 7.233 0 00-.346-1.054c-.207-.46-.433-.91-.678-1.349-.018-.035-.042-.067-.064-.1-.132-.204-.27-.406-.395-.615-.192-.324-.376-.655-.561-.984-.089-.158-.173-.317-.261-.476-.174-.316-.355-.63-.523-.949-.118-.222-.218-.454-.33-.68a4.276 4.276 0 01-.263-.602c-.037-.111-.08-.221-.121-.331-.144-.375-.289-.749-.431-1.125-.058-.154-.105-.311-.166-.464-.055-.139-.124-.272-.183-.41a3.484 3.484 0 00-.383-.702 1.03 1.03 0 00-.46-.355.293.293 0 00-.138-.022.799.799 0 00-.47.195 1.34 1.34 0 00-.395.71c-.039.18-.081.9-.065 1.082.004.043.02.096-.051.126a1.096 1.096 0 00-.654-.204.512.512 0 00-.492.263 1.333 1.333 0 00-.074.147 2.261 2.261 0 00-.032 1.705c.097.256.212.507.316.761.181.438.414.85.658 1.252.232.384.48.758.729 1.13.207.309.413.616.64.908.3.386.647.73 1.002 1.066.171.162.33.341.513.487.296.234.608.448.914.67.018.015.04.025.063.03a.087.087 0 00.062-.02c.014-.014.025-.044.021-.062a.275.275 0 00-.055-.1c-.096-.095-.196-.184-.294-.274-.126-.12-.254-.236-.377-.357-.113-.11-.221-.225-.33-.339-.26-.273-.545-.524-.781-.822-.14-.18-.283-.356-.429-.531-.253-.3-.476-.628-.706-.947-.442-.611-.725-1.305-1-2-.163-.411-.25-.845-.354-1.273a1.923 1.923 0 01-.01-.752c.015-.092.05-.182.088-.268.052-.116.131-.15.271-.137.126.012.167.051.202.186.102.388.194.778.31 1.162.169.566.371 1.12.634 1.65.271.543.57 1.07.938 1.555.413.547.863 1.064 1.362 1.535.097.091.185.193.286.281.16.14.326.273.491.406.047.038.087.028.104-.043-.178-.225-.356-.455-.538-.682a8.662 8.662 0 01-.712-.997c-.12-.203-.231-.412-.361-.608a8.33 8.33 0 01-.657-1.17c-.204-.453-.439-.89-.604-1.359a.692.692 0 00-.048-.107c-.083-.145-.127-.304-.175-.462-.062-.203-.112-.41-.188-.609-.101-.267-.147-.546-.205-.822-.072-.34-.064-.69-.07-1.035-.004-.173.084-.331.186-.472a.383.383 0 01.111-.087.185.185 0 01.22.01.89.89 0 01.273.29c.126.244.257.486.38.731.251.5.438 1.029.706 1.52.128.235.24.479.368.713.248.455.509.905.755 1.362.198.368.43.715.656 1.064.226.35.466.69.687 1.045.201.319.38.653.575.976.126.21.233.428.327.654.191.465.388.925.583 1.388zm-4.108 19.758c.068.009.097-.028.103-.08a.433.433 0 00-.006-.139 1.758 1.758 0 01.029-.75l.073-.298a.542.542 0 00-.03-.344 2.99 2.99 0 01-.196-1.087 7.289 7.289 0 01.234-1.865.505.505 0 01.258-.347c.133-.072.272-.127.419-.157.167-.032.216 0 .254.158.004.015.005.032.009.046l.081.37c.143.643.3 1.286.353 1.948a.549.549 0 00.01.07c.067.285.089.575.077.866a7.46 7.46 0 00-.004.473c0 .051.015.102.023.15.099.018.135-.036.155-.096.06-.162.113-.326.157-.493.099-.397.189-.796.243-1.2.037-.275.066-.548.111-.82.022-.127.026-.25.016-.376-.007-.078-.019-.157-.023-.234-.025-.424-.04-.85-.078-1.272a.36.36 0 01.097-.297c.127-.15.246-.307.366-.464.025-.032.038-.069-.013-.108-.114.018-.209.086-.306.152-.365.25-.771.426-1.148.654-.04.025-.086.038-.13.057-.335.155-.699.241-1.023.425a.464.464 0 01-.132.05c-.243.067-.485.14-.731.192a9 9 0 00-.979.262c-.111.04-.227.064-.345.074-.306.023-.609.044-.915-.03-.181-.044-.338-.125-.498-.207-.041-.02-.073-.06-.104-.096-.071-.084-.076-.166-.022-.234.046-.06.144-.067.235-.003.078.055.165.083.255.115.201.07.409.113.619.148.367.06.722.05 1.054-.14a.785.785 0 01.36-.103c.225-.008.432-.084.644-.14.289-.073.573-.168.857-.257a3.47 3.47 0 00.331-.126c.417-.184.831-.372 1.248-.556.341-.147.649-.355.963-.548.024-.014.053-.036.027-.079-.02.002-.043.001-.062.01-.154.08-.307.158-.46.239-.307.161-.628.246-.978.21-.208-.02-.41.02-.6.1-.21.09-.415.19-.617.293-.079.04-.152.081-.239.096-.086.016-.17.038-.254.056-.227.05-.454.06-.673-.031a1.435 1.435 0 00-.626-.09c-.157.01-.313.037-.464.082-.181.055-.37.078-.559.068a.587.587 0 01-.433-.252c-.024-.03-.039-.068-.062-.1a.245.245 0 01-.049-.13.247.247 0 01.027-.136c.126-.271.245-.546.37-.818.03-.062.075-.12.115-.178.097-.143.197-.285.293-.429.185-.275.374-.545.616-.773a.519.519 0 00.094-.132c.007-.014-.009-.045-.022-.06-.006-.009-.031-.012-.041-.007-.073.045-.149.087-.215.142-.417.343-.774.74-1.08 1.182-.03.045-.064.087-.092.121-.031.002-.047.007-.061.003-.43-.102-.806.014-1.156.268a4.22 4.22 0 00-.767.697 2.093 2.093 0 01-.293.306c-.159.131-.336.228-.557.215-.047-.005-.097.03-.169.055.057.046.087.088.128.101.2.072.403.137.62.114.157-.018.314-.035.467-.066.115-.025.227-.065.336-.108.107-.044.211-.1.331-.155.272-.389.272-.389.477-.447-.153.33-.279.672-.375 1.023-.07.04-.137.08-.206.118a2.976 2.976 0 00-.868.682c-.031.036-.065.068-.099.101a84.8 84.8 0 00-.636.56c-.023.019-.051.042-.061.07-.029.08-.062.162-.069.246-.006.075.021.152.033.228l-.024.04c-.123.184-.115.225.074.355l.037.028c.03.281.047.3.313.364.011.032.022.07.037.107.082.2.278.248.434.104a.548.548 0 00.102-.13.68.68 0 01.342-.313.705.705 0 00.356-.36c.067-.135.132-.268.168-.415.025-.101.06-.205.174-.269a.92.92 0 01.096.279c.02.143.11.224.239.263.119.038.242.067.365.093a.476.476 0 00.382-.084c.076-.054.155-.106.231-.164.331-.253.661-.508.991-.764a.364.364 0 01.169-.07c.194-.033.386-.074.579-.113.038-.008.076-.022.115-.026.043-.005.088-.037.141.006a.54.54 0 01-.026.222 2.273 2.273 0 00-.088.795 3.92 3.92 0 00.347 1.508c.038.086.09.166.131.252.05.1.074.205.069.319-.015.316.035.628.083.937a.625.625 0 00.121.298z" fill="#DB334A"/><path fill-rule="evenodd" clip-rule="evenodd" d="M155.064 35.28a.625.625 0 01-.121-.298c-.048-.31-.098-.62-.083-.937a.642.642 0 00-.069-.319c-.041-.085-.093-.167-.131-.252a3.909 3.909 0 01-.347-1.508 2.273 2.273 0 01.088-.795.54.54 0 00.026-.222c-.053-.043-.098-.011-.141-.006-.039.004-.077.018-.115.026-.193.039-.385.08-.579.112a.365.365 0 00-.169.071c-.33.256-.66.511-.991.764-.076.058-.155.11-.231.164a.474.474 0 01-.382.084 3.767 3.767 0 01-.365-.093c-.129-.039-.219-.12-.239-.263a.92.92 0 00-.096-.279c-.114.064-.149.168-.174.269a2.048 2.048 0 01-.168.416.704.704 0 01-.356.359.68.68 0 00-.342.313.548.548 0 01-.102.13c-.156.144-.352.096-.434-.104-.015-.037-.026-.075-.037-.107-.266-.064-.283-.083-.313-.364-.013-.01-.025-.017-.037-.028-.189-.13-.197-.171-.074-.356a.508.508 0 00.024-.039c-.012-.076-.039-.153-.033-.228.007-.084.04-.166.069-.246.01-.028.038-.051.061-.07a84.8 84.8 0 01.636-.56c.034-.033.068-.065.099-.101.243-.287.54-.504.868-.682.069-.038.136-.078.206-.118.096-.35.222-.693.375-1.023-.205.058-.205.058-.477.447-.12.055-.224.11-.331.155a2.118 2.118 0 01-.336.108c-.153.031-.31.048-.467.066-.217.023-.42-.042-.62-.114-.041-.013-.071-.055-.128-.101.072-.024.122-.06.169-.055.221.013.398-.084.557-.215.109-.089.204-.197.293-.306.224-.268.486-.493.767-.697.35-.254.726-.37 1.156-.268.014.004.03-.001.061-.003.028-.034.062-.077.092-.121a5.773 5.773 0 011.08-1.182c.066-.055.142-.097.215-.142.01-.005.035-.002.041.007.013.016.029.046.022.06a.519.519 0 01-.094.132c-.242.228-.431.498-.616.773-.096.144-.196.286-.293.43-.04.057-.085.115-.115.177-.125.272-.244.547-.37.818a.247.247 0 00-.027.136.245.245 0 00.049.13c.023.032.038.07.062.1.11.142.242.237.433.252.189.01.378-.013.559-.068.151-.045.307-.072.464-.082.215-.008.425.005.626.09.219.091.446.081.673.031.084-.017.168-.041.254-.056.087-.015.16-.056.239-.096.202-.104.407-.203.617-.293.19-.08.392-.12.6-.1.35.036.671-.049.978-.21l.46-.24c.019-.008.042-.007.062-.009.026.043-.003.065-.027.079-.314.193-.622.4-.963.548-.417.184-.831.372-1.248.556a3.47 3.47 0 01-.331.126c-.284.09-.568.183-.857.257-.212.055-.419.13-.644.14a.785.785 0 00-.36.103c-.332.19-.687.2-1.054.14a3.758 3.758 0 01-.619-.148c-.09-.032-.177-.06-.255-.115-.091-.064-.189-.057-.235.003-.054.068-.049.15.022.234.031.036.063.075.104.096.16.082.317.163.498.207.306.074.609.053.915.03.116-.008.234-.037.345-.074a9 9 0 01.979-.262c.246-.052.488-.125.731-.191a.463.463 0 00.132-.051c.324-.184.688-.27 1.023-.425.044-.02.09-.032.13-.057.377-.228.783-.404 1.148-.654.097-.066.192-.134.306-.152.051.039.038.076.013.108-.12.157-.239.314-.366.464a.371.371 0 00-.097.297c.038.422.053.848.078 1.272.004.077.016.156.023.234.01.127.006.249-.016.376-.045.272-.074.545-.111.82-.054.404-.144.803-.243 1.2a5.307 5.307 0 01-.157.493c-.02.06-.056.114-.155.095-.008-.047-.023-.098-.023-.149a7.46 7.46 0 01.004-.473 3.192 3.192 0 00-.077-.866.549.549 0 01-.01-.07c-.053-.662-.21-1.305-.353-1.948a23.45 23.45 0 01-.081-.37c-.004-.014-.005-.031-.009-.046-.038-.159-.087-.19-.254-.157a1.483 1.483 0 00-.419.156.504.504 0 00-.258.347 7.289 7.289 0 00-.234 1.865c-.001.372.062.739.196 1.087.047.108.058.23.03.344l-.073.298c-.057.248-.08.497-.029.75a.433.433 0 01.006.139c-.006.05-.035.088-.103.08zm4.108-19.758c-.195-.463-.392-.923-.583-1.388a4.988 4.988 0 00-.327-.654c-.195-.323-.374-.657-.575-.976-.221-.355-.461-.695-.687-1.045-.226-.349-.458-.696-.656-1.064-.246-.457-.507-.907-.755-1.362-.128-.234-.24-.478-.368-.713-.268-.491-.455-1.02-.706-1.52-.123-.245-.254-.487-.38-.732a.883.883 0 00-.273-.289.182.182 0 00-.22-.01.367.367 0 00-.111.087c-.102.14-.19.3-.186.472.006.345-.002.695.07 1.035.058.276.104.555.205.822.076.199.126.406.188.609.048.158.092.317.175.462.019.034.035.07.048.107.165.47.4.907.604 1.359.186.411.409.796.657 1.17.13.196.241.405.361.608.209.353.456.678.712.997.182.227.36.457.538.682-.017.071-.057.081-.104.043-.165-.133-.331-.266-.491-.406-.101-.088-.189-.19-.286-.281A12.34 12.34 0 01154.66 12a9.813 9.813 0 01-.938-1.555 10.364 10.364 0 01-.634-1.65c-.116-.384-.208-.774-.31-1.162-.035-.135-.076-.174-.202-.186-.14-.013-.219.021-.271.137-.04.085-.07.175-.088.268-.04.25-.049.506.01.752.104.428.191.862.354 1.273.275.695.558 1.389 1 2 .23.319.453.647.706.947.147.174.288.352.429.531.236.298.521.549.781.822.109.114.217.229.33.339.123.121.251.237.377.357.098.09.198.18.294.274.025.03.044.063.055.1.004.018-.007.048-.021.062a.087.087 0 01-.062.02.146.146 0 01-.063-.03c-.306-.222-.618-.436-.914-.67-.183-.146-.342-.325-.513-.487a9.75 9.75 0 01-1.002-1.066 15.74 15.74 0 01-.64-.908 28.44 28.44 0 01-.729-1.13 9.24 9.24 0 01-.658-1.252c-.104-.254-.219-.505-.316-.761-.212-.55-.2-1.162.032-1.704.022-.051.046-.101.074-.148a.515.515 0 01.492-.263c.242.005.465.061.654.204.071-.03.055-.083.051-.126a7.118 7.118 0 01.065-1.082c.062-.277.187-.515.395-.709a.8.8 0 01.47-.196.293.293 0 01.138.022c.185.075.34.19.46.355.158.219.279.455.383.702.059.137.128.271.183.41.061.153.108.31.166.464.142.376.287.75.431 1.125.041.11.084.22.121.33.069.21.164.407.263.603.112.225.212.457.33.68.168.319.349.633.523.949.088.159.172.318.261.476.185.33.369.66.561.984.125.21.263.41.395.615.022.033.046.065.064.1.241.442.476.888.678 1.35.149.34.251.696.346 1.053.026.097.022.201.031.302l-.03.001zm-6.846 5.454c.039.086.014.162-.009.235a.699.699 0 00.025.438c.094.282.253.523.436.752.161.2.379.33.602.448a.367.367 0 00.338.002c.185-.078.347-.187.511-.295.232-.153.498-.232.744-.354.052-.026.107-.011.159.016.096.053.198.096.29.155.116.073.241.112.373.14.131.027.261.059.392.083.026.005.063-.011.082-.029.032-.03.027-.07.008-.109-.029-.061-.071-.104-.141-.109a4.602 4.602 0 00-.166-.006c-.038-.003-.078 0-.117-.003a.087.087 0 01-.033-.01.078.078 0 01-.026-.025.077.077 0 01-.014-.032.084.084 0 010-.035c.009-.044.039-.07.084-.063.19.03.376-.027.564-.026.008 0 .016 0 .024-.002.136-.018.151-.043.122-.219a.984.984 0 00-.361-.067.52.52 0 01-.118-.007.088.088 0 01-.05-.045c-.027-.07.074-.19.146-.172.061.016.118.045.178.064.052.018.104.04.157.04.03.002.069-.034.087-.064.01-.017-.004-.061-.021-.082-.024-.03-.063-.046-.093-.072-.027-.023-.051-.05-.077-.077.022-.021.034-.04.042-.039.07.012.142.017.206.043.1.041.195.097.3.152 0 .052.003.098-.001.144-.011.118-.029.234-.038.351-.023.298-.057.595-.059.894-.002.226.037.453.065.679.007.053.039.104.065.151.112.2.225.397.338.596.035.062.073.122.099.187.013.031.005.073.009.13a.836.836 0 01-.329-.292 2.927 2.927 0 01-.184-.328c-.062-.128-.112-.259-.169-.39-.061-.137-.121-.273-.097-.43.005-.037-.009-.077-.016-.117-.016-.084-.036-.168-.051-.253-.013-.075.005-.154-.036-.247-.057.054-.097.098-.142.137-.072.062-.154.084-.239.033-.131-.078-.279-.104-.422-.148a7.163 7.163 0 01-.514-.173c-.113-.042-.213-.043-.313.024-.032.02-.065.04-.124.074.051.02.076.037.102.04.062.005.126.005.189.006.191.003.374.04.535.155.032.022.068.04.102.058.147.082.299.14.473.121.038-.004.077.004.135.009-.016.043-.022.083-.045.104a.703.703 0 00-.173.304c-.05.15-.109.297-.145.449-.036.153-.057.31-.07.466-.014.15-.064.272-.189.362a1.962 1.962 0 00-.466.53c-.133.204-.269.407-.395.617a.351.351 0 01-.259.181 1.897 1.897 0 00-.892.404c-.069.054-.133.065-.216.02-.16-.081-.263-.213-.372-.352-.161-.202-.163-.416-.093-.645.026-.09.064-.178.097-.264l.054-.137c-.027-.024-.047-.047-.073-.062-.181-.107-.275-.27-.326-.469a.655.655 0 01-.009-.326c.031-.122.058-.245.085-.367.009-.036.013-.075.023-.136-.047.012-.077.013-.097.027-.177.128-.377.19-.589.23-.177.034-.351.088-.529.121a.539.539 0 00-.365.238c-.14.206-.199.436-.204.69.1.021.166-.027.23-.066a.492.492 0 01.31-.09c.061.006.123-.016.186-.024.098-.012.183.024.216.104a.74.74 0 01.061.345c-.006.067-.049.124-.114.133-.077.01-.157.013-.235.01a.749.749 0 00-.431.091c-.121.069-.259.06-.39.02a.333.333 0 01-.241-.254c.129-.143.154-.327.137-.52-.008-.086-.001-.173-.002-.26a.893.893 0 01.228-.605c.056-.065.123-.122.181-.186.127-.14.285-.152.455-.11.061.015.12.04.179.06a.902.902 0 00.891-.151c.092-.073.185-.142.25-.247-.015-.025-.022-.052-.038-.062-.357-.226-.596-.557-.799-.917-.103-.185-.191-.378-.282-.57a.47.47 0 01-.029-.3c.023-.116.074-.211.175-.268.093-.052.171-.136.288-.155zm.306-2.678c.263.153.538.14.811.088a6.207 6.207 0 001.155-.33c.022-.01.048-.013.065-.028.169-.14.384-.175.58-.253.183-.072.378-.102.575-.124.051-.006.103-.018.18-.032l-.156-.23a.663.663 0 01.34.017c.313.079.624.167.911.32.062.033.119.076.175.118.283.219.509.492.739.76.318.372.578.784.817 1.21.2.357.413.706.661 1.033a.225.225 0 01.034.06c.004.012-.003.032-.013.041-.009.01-.031.02-.041.015-.064-.027-.13-.053-.19-.089-.156-.091-.306-.192-.465-.279-.406-.22-.828-.223-1.256-.072-.163.057-.322.127-.5.125-.022-.001-.045-.006-.081-.013-.001-.046-.005-.09-.003-.135.001-.103.008-.205.01-.307.001-.056.007-.112-.005-.165-.045-.2-.085-.4-.148-.594-.07-.224-.16-.442-.244-.663a1.537 1.537 0 00-.423-.588.26.26 0 00-.241-.067 4.78 4.78 0 00-.344.08c-.211.059-.422.124-.633.188a1.209 1.209 0 00-.495.263c-.057.055-.08.11-.063.188.024.12.086.22.156.314.022.03.055.058.09.071.24.097.479.195.748.187.164-.004.329.014.494.027.061.006.121.027.177.039.008.068-.034.073-.072.077a2.023 2.023 0 00-.718.218c-.028.015-.054.031-.082.048-.033.167.028.314.076.461.03.09.067.178.094.268.02.07-.021.127-.094.13-.157.009-.315.008-.472.018-.18.01-.363.015-.54.048a.871.871 0 01-.369-.016c-.262-.057-.526-.097-.796-.06-.022.002-.046-.005-.076-.008-.138-.21-.172-.449-.177-.695-.006-.258.14-.458.274-.668-.294-.173-.442-.437-.552-.729-.037-.1-.02-.184.087-.267zm1.524 25.896a37.255 37.255 0 00-.272-.374 1.243 1.243 0 01-.231-.483 1.756 1.756 0 00-.367-.784c-.187-.22-.197-.472-.072-.728.072-.147.136-.302.266-.415a.269.269 0 00.064-.096c.127-.28.254-.56.324-.86.06-.27.14-.533.205-.8.047-.19.082-.384.124-.576.039-.18.036-.362.024-.542-.019-.26-.036-.518-.053-.778a1.38 1.38 0 01.16-.704l.632-1.293c.015-.027.028-.057.042-.084.068-.13.073-.132.255-.066-.061.228.014.46.005.693a.69.69 0 01-.02.163c-.06.234-.123.472-.188.705-.088.32-.16.642-.162.976-.002.236-.056.466-.098.698-.069.38-.15.756-.222 1.135-.094.497-.233.978-.48 1.424-.086.157-.146.331-.209.5a.446.446 0 00-.021.185c.013.143.12.221.263.2.039-.006.077-.02.115-.025.226-.035.364.076.378.307a1.1 1.1 0 01-.006.19.594.594 0 00.066.363c.028.047.033.108.06.154.051.088.099.181.169.253.201.205.444.35.715.445.145.05.287.072.439.021.091-.028.184-.044.278-.05.077-.008.155.004.223.007.142.121.135.293.208.445l.153.025c.178.03.358.055.534.095.137.03.176.093.183.235a.738.738 0 01-.002.094c-.009.093-.042.128-.132.133-.063.003-.126.002-.189.002-1.631.004-3.261.008-4.892.01-.071 0-.142 0-.213-.002a.15.15 0 01-.132-.086.358.358 0 01-.016-.297c.011-.033.05-.058.081-.08.017-.01.045-.01.068-.012.283-.018.566-.033.848-.058.242-.023.486-.052.726-.092.18-.033.21-.057.369-.173z" fill="#DB334A"/><path fill-rule="evenodd" clip-rule="evenodd" d="M156.957 27.211c.227 0 .463.007.699-.002.314-.012.628-.03.941-.061.139-.014.276-.064.413-.096.06-.017.121-.034.183-.046.021-.004.045.006.069.009.055.064.051.135.012.196-.22.336-.425.68-.76.921-.013.009-.025.026-.038.028-.186.033-.305.188-.471.255-.168.068-.337.132-.507.195a.629.629 0 01-.138.03c-.312.035-.624.085-.939.079-.2-.004-.394.027-.582.087-.209.067-.412.14-.607.254-.349.201-.739.223-1.12.1-.268-.088-.538-.107-.813-.123a.571.571 0 00-.298.056c-.049.025-.101.044-.157.068-.056-.07-.023-.136.005-.197.119-.256.23-.518.364-.766.175-.326.35-.65.563-.957.139-.198.248-.417.372-.628.015-.025.037-.047.063-.082l.187.066c.016.024.029.036.033.049.099.336.279.632.467.922.043.064.101.122.157.177.091.085.184.17.28.252.048.04.1.08.157.103.293.119.206.12.436-.052.214-.16.431-.317.64-.485.134-.107.256-.23.389-.352zm2.219-8.77a3.15 3.15 0 00-.105-.105c-.057-.055-.109-.116-.172-.161-.361-.266-.721-.533-1.11-.76a2.57 2.57 0 00-.926-.336c-.067-.01-.132-.029-.2-.043.01-.028.011-.048.021-.055.219-.155.358-.37.463-.611.082-.188.184-.367.254-.558a2.77 2.77 0 00.176-1.158c-.022-.273-.03-.55-.076-.82a4.4 4.4 0 00-.2-.823c-.092-.24-.155-.493-.236-.738-.019-.059-.062-.11-.086-.167-.012-.025-.005-.057-.008-.12.052.047.084.067.103.096.076.12.152.24.222.362.203.347.411.69.603 1.043.146.268.279.545.405.825.153.337.303.675.435 1.02.116.3.223.606.301.919.074.296.104.603.155.905.061.368.052.738.07 1.108a.251.251 0 01-.017.115c-.01.023-.042.037-.072.063v-.001zm-3.096-1.922c-.183-.05-.376-.088-.559-.151-.492-.17-.976-.358-1.427-.619-.45-.258-.882-.545-1.318-.828-.226-.146-.406-.346-.606-.522a6.329 6.329 0 01-.476-.49 1.167 1.167 0 01-.263-.47c-.055-.2-.053-.234.069-.435-.025-.053-.053-.117-.087-.177a6.388 6.388 0 01-.583-1.386c-.123-.453-.155-.916.006-1.372a.702.702 0 01.209-.323c.076.032.11.089.118.15.021.155.131.289.102.454l-.015.094c-.085.437-.037.86.12 1.275.186.497.41.975.721 1.405.17.234.369.45.561.668.262.297.597.512.887.777.46.422.989.75 1.5 1.102.343.238.687.473 1.03.71.054.036.081.076.011.138zm-3.941-.104c-.178-.221-.332-.42-.491-.614a.912.912 0 01-.211-.491c-.014-.131-.06-.26-.038-.389.051-.036.081-.008.107.02.026.03.052.061.071.094.161.274.364.513.596.726.156.143.323.279.501.392.272.173.544.345.843.47.303.13.591.297.889.436.177.083.365.144.548.214.064.025.129.047.216.078-.041.037-.059.062-.085.075-.358.181-.717.36-1.077.539a.887.887 0 01-.364.09c-.212.007-.424.022-.637.024-.279.002-.357-.056-.438-.358-.03-.11-.015-.23-.021-.366a2.155 2.155 0 00-.121-.077.789.789 0 01-.322-.395.488.488 0 01.034-.468zm2.846 24.913c-.043-.07-.076-.104-.085-.146-.013-.052-.011-.108-.01-.164a2.93 2.93 0 01.165-.945c.11-.311.221-.622.287-.947.06-.293.154-.577.227-.867.124-.495.256-.987.318-1.497.021-.17.032-.342.046-.515.015-.196.031-.389.042-.586.006-.108 0-.219 0-.33 0-.212.007-.423-.005-.635-.007-.147-.047-.294-.061-.44a4.265 4.265 0 01-.012-.423c.001-.033.032-.066.052-.105a.243.243 0 01.136.19c.017.108.035.216.05.325.045.311.152.594.388.814.067.061.135.051.165-.032.039-.11.068-.226.125-.319.058-.022.082.008.105.042.075.115.068.238.038.364-.015.061-.049.115-.066.177-.035.113-.075.224-.093.34a.784.784 0 01-.068.246c-.028.056-.059.116-.065.176-.017.177-.101.33-.157.492-.118.341-.23.685-.346 1.028-.078.23-.155.462-.236.69-.116.325-.22.657-.357.974-.133.311-.239.631-.356.947-.078.21-.117.423-.138.643-.012.134-.027.267-.043.399-.003.02-.017.04-.046.104z" fill="#DB334A"/><path fill-rule="evenodd" clip-rule="evenodd" d="M155.23 14.648c-.092.056-.142.03-.189 0-.083-.058-.165-.12-.247-.18-.462-.343-.913-.7-1.297-1.128-.262-.292-.5-.608-.748-.913-.347-.43-.613-.912-.882-1.391a6.692 6.692 0 01-.42-.895 1.202 1.202 0 01-.071-.464c.002-.098.029-.188.108-.254.022-.017.051-.026.093-.047.752 2.08 1.973 3.826 3.653 5.272zm12.957 12.582c-.006-.108-.008-.194-.017-.279-.03-.283.032-.539.175-.79.186-.327.43-.594.73-.818.188-.141.366-.293.561-.426.153-.104.275-.258.39-.405.059-.077.076-.186.107-.284.022-.067.033-.138.055-.205.006-.017.036-.036.053-.036.018 0 .048.023.051.04.03.13.03.265-.001.395-.097.339-.31.595-.573.816-.186.156-.399.282-.549.478a4.88 4.88 0 00-.228.326.406.406 0 00-.016.426c.025.047.055.095.079.142a.54.54 0 01-.264.732.408.408 0 01-.254.018c-.105-.027-.216-.043-.299-.13zm2.683-9.574c-.061 0-.124.002-.184 0-.669-.01-1.339.028-2.003.114a9.853 9.853 0 00-1.407.3c-.326.088-.655.169-.979.265a12.4 12.4 0 00-.848.284c-.333.125-.659.26-.983.403-.143.063-.273.155-.409.234l-.187.102a1.064 1.064 0 01-.332-.247c.034-.038.058-.078.094-.101a.693.693 0 01.149-.07c.413-.154.824-.313 1.24-.46.482-.168.969-.325 1.466-.446.319-.078.644-.141.963-.224.474-.124.959-.17 1.443-.224.078-.008.157-.012.236-.016.274-.013.55-.023.825-.037.292-.014.583.015.871.043.019.002.035.024.052.037-.001.014-.004.029-.007.043zm-7.824 6.617c.181.14.256.31.31.489.044.147.206.487.294.618.163.242.33.48.481.73.164.268.313.544.421.84.044.12.051.221-.048.323-.119.122-.158.288-.199.447-.01.038-.013.076-.061.104-.097-.24-.054-.46.044-.68a4.325 4.325 0 00-.342-.752c-.186-.319-.381-.632-.575-.946a.974.974 0 01-.138-.372c-.027-.176-.095-.346-.143-.52-.023-.08-.071-.159-.044-.281zm3.758 9.506c-.009.063-.003.099-.017.115-.093.106-.18.218-.319.274-.071.027-.129.088-.199.124-.196.1-.414.15-.635.147-.125 0-.251.012-.376.02a.97.97 0 00-.435.14c-.004.02-.017.05-.02.079-.01.119-.074.185-.191.205a.273.273 0 01-.291-.114c-.119-.172-.098-.278.027-.396a.683.683 0 01.44-.203c.203-.008.407.007.613.01.124.003.251.013.374 0 .172-.016.342-.048.512-.079a.64.64 0 00.363-.207c.034-.036.082-.063.154-.115zm2.487-11.719c.097.138.197.277.362.352a.934.934 0 01.349.31c.103.139.186.29.275.439.086.145.056.293.011.445-.082-.03-.068-.092-.077-.142-.035-.198-.097-.386-.254-.518-.12-.102-.255-.182-.387-.265-.066-.042-.142-.068-.213-.103a1.19 1.19 0 01-.499-.486.264.264 0 01-.043-.108.686.686 0 01.073-.388c.099-.177.366-.172.467.005.02.034.027.073.021.112-.021.107-.052.212-.085.347zm-8.263-2.99c.037-.087.118-.109.19-.132.369-.114.742-.208 1.134-.19.189.008.378.002.567.008.126.004.25.028.363.092.032.021.059.05.078.083.025.039-.018.102-.064.098-.024-.002-.048-.003-.07-.01-.471-.155-.933-.075-1.394.053a1.91 1.91 0 00-.497.214c-.083.053-.12.045-.186-.023a1.118 1.118 0 01-.103-.128c-.012-.018-.012-.044-.018-.064v-.001zm-5.909 2.194c-.037.03-.053.055-.072.058-.264.039-.53.051-.796.035-.039-.001-.077-.013-.115-.024-.021-.007-.041-.023-.061-.034l-.545-.316a.551.551 0 01.29.011c.236.058.473.109.716.135.191.02.378.086.583.135zm13.259 6.416c-.155.028-.244-.07-.322-.18-.038-.054.005-.133.071-.137.031-.002.062 0 .094.001a.21.21 0 01.189.118c.035.067.013.134-.032.198zm-.042 1.21c-.006-.003-.01-.01-.015-.011-.005-.002-.012.004-.017.006.005.003.009.01.014.01.006 0 .011-.004.018-.005z" fill="#DB334A"/><path fill-rule="evenodd" clip-rule="evenodd" d="M168.336 28.89c-.007.001-.012.006-.018.005-.005 0-.009-.007-.014-.01.005-.002.012-.008.017-.006.005 0 .009.009.015.011z" fill="#DB334A"/><path fill-rule="evenodd" clip-rule="evenodd" d="M159.316 28.891a.406.406 0 01-.041-.346c.186-.003.373.002.556-.017.187-.017.371-.06.556-.095.183-.034.361-.087.552-.2-.087.148-.125.192-.251.267a3.111 3.111 0 01-.705.322c-.135.04-.273.07-.41.102a.34.34 0 01-.257-.033zm6.957.112c-.041-.114-.084-.2-.105-.29-.052-.222-.205-.302-.412-.318a1.382 1.382 0 00-.164-.005c-.174.007-.347.022-.52.024-.269.005-.534-.009-.777-.149-.1-.059-.205-.114-.333-.097-.055.006-.123-.021-.126-.084-.013-.22-.123-.404-.196-.602-.248-.681-.65-1.274-1.04-1.875-.056-.084-.096-.18-.154-.264a2.104 2.104 0 01-.268-.596c-.038-.127-.08-.25-.12-.374-.037.001-.065-.005-.081.004-.138.082-.288.125-.439.17-.399.12-.798.242-1.213.295a.375.375 0 00-.15.06 2.17 2.17 0 01-1.118.327.66.66 0 00-.16.027c-.014.005-.024.036-.027.057-.003.01.011.03.022.037a.82.82 0 00.088.028c.317.067.637.074.959.031.2-.027.3.055.305.254a.755.755 0 01-.093.363 1.844 1.844 0 01-.55.668c-.077.056-.153.108-.196.19.015.11.088.154.175.177.053.015.109.014.164.022.09.014.187.005.272.048-.048.147-.05.146-.132.217-.059.052-.122.102-.171.162-.067.08-.047.169.045.216.047.028.1.044.155.048.109.002.22-.002.328-.019.237-.036.447-.147.658-.252.031-.015.065-.05.105-.01-.083.193-.156.284-.308.367-.392.215-.8.365-1.259.346-.275-.012-.28-.004-.266-.273.004-.077-.045-.125-.113-.108-.187.05-.303.224-.188.417.027.046.068.084.102.124-.01.055-.016.101-.027.146a.705.705 0 00.023.35c.038.14.12.254.264.313.156.063.318.112.482.103.266-.017.535-.044.791-.128.287-.094.561-.217.746-.47.073-.102.132-.213.193-.324a3.74 3.74 0 00.321-.86.582.582 0 00-.02-.371c-.035-.087-.073-.173-.106-.262-.039-.102-.08-.205-.108-.312a.627.627 0 01.062-.457.39.39 0 01.196-.196.102.102 0 01.07-.006c.023.006.043.02.057.04a.287.287 0 01.045.082c.122.327.282.627.515.89.282.319.566.633.874.926a.439.439 0 01.149.26.605.605 0 00.047.182c.113.259.17.332.463.277a.507.507 0 01.322.041c.179.093.369.138.564.169.159.026.301.086.435.171.067.04.135.087.208.111.199.07.4.134.602.193.338.102.677.198 1.051.208a.416.416 0 000 .373c.008.02.007.046.015.068.026.068.003.125-.042.173-.036.041-.082.074-.118.116-.068.076-.139.15-.193.236-.221.352-.256.736-.174 1.136.044.224.099.443.166.66.122.395.187.797.139 1.212 0 .015.003.03.01.044a.108.108 0 00.026.036c.037.028.081.006.103-.023.053-.068.1-.14.143-.215.078-.133.074-.288.103-.433.079-.41.078-.83-.002-1.24-.016-.085-.038-.168-.056-.254-.063-.323-.039-.37.243-.531.081-.045.163-.096.23-.16.109-.107.162-.233.08-.385-.021-.04-.034-.085-.054-.133.073-.068.163-.12.202-.197.039-.076.025-.181.036-.277.041-.035.089-.072.127-.104.013-.124-.104-.16-.145-.26.042-.004.07-.011.096-.01.094.004.189.02.281.01.167-.02.205-.137.099-.265-.026-.033-.079-.05-.07-.116.043-.013.089-.023.13-.04.103-.047.122-.14.052-.232a.361.361 0 00-.22-.126c-.129-.03-.261-.055-.393-.083-.032-.088-.012-.157.05-.221.068-.008.138-.015.207-.028a.412.412 0 00.132-.043c.143-.081.148-.168.015-.27a.602.602 0 00-.099-.064c-.105-.052-.216-.096-.317-.158-.16-.098-.3-.067-.434.045a.706.706 0 00-.129.134c-.083.114-.155.236-.241.35a.653.653 0 00-.14.416c-.001.1.011.203.011.306-.002.13-.087.209-.213.195-.186-.022-.373-.054-.574-.081zm11.002-8.837a.724.724 0 00-.27-.44 4.287 4.287 0 00-.361-.264c-.138-.09-.277-.184-.425-.253-.322-.147-.649-.28-.974-.418a.754.754 0 00-.09-.033c-.241-.07-.482-.139-.724-.207-.106-.03-.213-.054-.319-.086a8.043 8.043 0 00-1.312-.294c-.264-.03-.535-.015-.795-.088-.058-.016-.124-.003-.188-.002-.055.001-.111.008-.165.005a6.804 6.804 0 00-.894-.003c-.164.013-.329.026-.494.046-.311.037-.626.05-.934.12-.315.071-.635.118-.949.188-.354.078-.713.135-1.054.26-.568.21-1.156.358-1.738.527-.362.106-.718.231-1.076.351-.364.123-.726.181-1.109.074-.187-.054-.388-.055-.584-.072-.028-.003-.072.032-.087.062-.02.037.007.078.047.093.104.036.211.066.314.104.197.073.402.129.578.283l-.255.007c-.125.004-.253-.004-.377.015-.203.033-.407.027-.612.035-.246.007-.438-.107-.612-.261-.076-.067-.14-.148-.21-.223-.032-.033-.064-.071-.103-.096-.021-.014-.064-.016-.085-.003-.02.011-.039.052-.034.076.027.115.057.229.094.34.057.173.109.346.099.53-.001.037.001.08-.046.096-.017 0-.033.003-.047-.002-.169-.057-.262-.201-.348-.337a14.11 14.11 0 01-.551-.935 2.5 2.5 0 01-.288-.821c-.011-.078-.017-.156-.026-.234-.006-.044-.032-.077-.074-.079a.212.212 0 00-.107.028c-.025.016-.04.048-.057.075a.858.858 0 00-.127.496c.006.196.021.392.03.59.006.11.012.22.008.33-.001.042-.028.082-.046.135-.055-.028-.101-.042-.136-.07-.079-.066-.151-.139-.226-.207-.051-.045-.107-.066-.181-.022-.029.181.004.369.009.555.002.049.047.097.076.143.086.141.175.28.261.42.044.075.071.164.128.225a.461.461 0 01.109.23c.022.1.039.201.049.302.026.26.008.518-.021.777-.036.33-.142.63-.313.907-.145.234-.312.454-.47.678-.024.035-.045.066-.007.104.101-.014.169-.076.229-.151.063-.081.128-.16.195-.238.024-.03.053-.066.087-.075.11-.03.196-.096.289-.155a.37.37 0 01.294-.055c.163.03.312.11.427.229.078.088.156.177.23.267.083.102.226.155.333.083.115-.078.238-.076.359-.1.343-.065.655.004.934.214.032.022.059.05.092.074.063.043.111.041.171-.008.274-.228.509-.49.695-.793.049-.08.1-.161.178-.194.195.03.373.06.552.082.348.04.672-.04.97-.223a.632.632 0 00.233-.228c.023-.04.057-.074.089-.114.09-.003.175 0 .261-.01.155-.02.314-.03.465-.072.296-.085.568-.23.843-.366.054-.027.099-.077.142-.122.041-.046.074-.099.114-.156.142.046.282.032.422.014.385-.049.712-.185.904-.568h.157c.308-.003.614-.005.92-.041a1.42 1.42 0 00.53-.184.211.211 0 00.121-.189c0-.02.013-.041.024-.07.041.004.08.003.117.01.262.052.523.112.787.159.226.04.455.034.681-.006.202-.036.225-.112.095-.263-.024-.029-.066-.048-.045-.113.069-.026.145-.007.219.01.239.055.481.076.725.082.135.003.268.014.402.008.196-.006.393-.018.588-.037.101-.01.202-.036.299-.067.093-.028.137-.15.087-.232-.031-.053-.079-.096-.117-.145-.017-.022-.025-.05-.041-.083.04-.006.064-.015.085-.012.257.036.513.083.77.111.685.075 1.368.08 2.053.015.044-.004.086-.028.134-.045zm-14.005 1.63c-.05.004-.094.014-.136.01-.069-.01-.135-.05-.209-.01-.068.071-.021.166-.051.267l-.172.147.009.184c-.076.05-.153.103-.242.16v.308c-.062.075-.125.065-.184.038-.05-.023-.093-.058-.139-.088-.098-.065-.192-.138-.296-.193a.73.73 0 01-.259-.23 14.965 14.965 0 01-.635-.965c-.011-.018-.011-.044-.022-.087.227-.103.45-.143.676-.164.126-.012.252-.023.377-.021.349.01.69-.055 1.032-.102.032-.003.063-.012.094-.015.065-.006.101.023.114.089.04.216.048.436.043.672z" fill="#DB334A"/><path d="M.84 8h20.8l.4 7.92h-.72c-1.12-2.693-2.293-4.533-3.52-5.52-1.227-1.013-3.027-1.52-5.4-1.52H11v12.36h1.36c1.253 0 2.307-.467 3.16-1.4.853-.96 1.453-2.24 1.8-3.84h.6v11.84h-.68c-.48-2-1.133-3.427-1.96-4.28-.8-.853-1.907-1.28-3.32-1.28H11v12.84h1.52c2.453 0 4.533-.733 6.24-2.2 1.733-1.467 2.92-3.347 3.56-5.64h.8L22.8 36H.84v-.88H3.2V8.88H.84V8zm22.129 9.68v-.72h11.96v.72h-2.52l4.8 13.28 4.32-13.28h-2.68v-.72h5.4v.72h-1.76L36.569 36h-4.56l-7.4-18.32h-1.64zM54.162 36.4c-3.44 0-6.026-.88-7.76-2.64-1.706-1.787-2.56-4.253-2.56-7.4 0-3.173.96-5.6 2.88-7.28 1.947-1.68 4.413-2.52 7.4-2.52 6.053 0 8.96 3.04 8.72 9.12h-11.28v1.56c0 2.613.334 4.587 1 5.92.667 1.333 1.827 2 3.48 2 3.093 0 5.12-1.653 6.08-4.96l.72.12c-.506 1.92-1.426 3.413-2.76 4.48-1.306 1.067-3.28 1.6-5.92 1.6zm-2.56-11.52h4.12v-1.96c0-2.16-.133-3.627-.4-4.4-.24-.8-.747-1.2-1.52-1.2-.746 0-1.306.427-1.68 1.28-.346.827-.52 2.267-.52 4.32v1.96zm12.745-7.92h9.64v3.68c.427-1.227 1.08-2.213 1.96-2.96.88-.747 2.213-1.12 4-1.12 4.133 0 6.2 2.227 6.2 6.68v12.04h2.24V36h-11.32v-.72h1.64v-13c0-1.6-.106-2.627-.32-3.08-.213-.48-.6-.72-1.16-.72-.853 0-1.613.56-2.28 1.68-.64 1.12-.96 2.48-.96 4.08v11.04h1.72V36h-11.36v-.72h2.2v-17.6h-2.2v-.72zm30.449-2.76c-1.414 0-2.427-.36-3.04-1.08-.587-.72-.88-1.613-.88-2.68 0-1.067.32-1.947.96-2.64.666-.693 1.666-1.04 3-1.04 1.333 0 2.346.32 3.04.96.693.613 1.04 1.507 1.04 2.68 0 1.147-.334 2.067-1 2.76-.667.693-1.707 1.04-3.12 1.04zm-6.04 2.76h9.8v18.32h2.24V36h-11.88v-.72h2.2v-17.6h-2.36v-.72zm12.935 0h9.64v3.68c.427-1.227 1.08-2.213 1.96-2.96.88-.747 2.213-1.12 4-1.12 4.133 0 6.2 2.227 6.2 6.68v12.04h2.24V36h-11.32v-.72h1.64v-13c0-1.6-.107-2.627-.32-3.08-.213-.48-.6-.72-1.16-.72-.853 0-1.613.56-2.28 1.68-.64 1.12-.96 2.48-.96 4.08v11.04h1.72V36h-11.36v-.72h2.2v-17.6h-2.2v-.72zm40.608-2.08l1.12-.68c.16-.827-.16-1.24-.96-1.24-1.146 0-1.72.88-1.72 2.64 0 .693.094 1.493.28 2.4 2.027 1.36 3.04 3.107 3.04 5.24 0 2.107-.733 3.747-2.2 4.92-1.466 1.173-3.453 1.76-5.96 1.76-1.04 0-2.12-.107-3.24-.32-1.173.747-1.76 1.307-1.76 1.68s.854.56 2.56.56h4.08c6.054 0 9.08 2.173 9.08 6.52 0 2.347-.92 4.2-2.76 5.56-1.813 1.387-4.653 2.08-8.52 2.08-6.586 0-9.88-1.427-9.88-4.28 0-1.547 1.027-2.613 3.08-3.2l2.4 1.08a8.294 8.294 0 00-.32 2.2c0 2.293 1.707 3.44 5.12 3.44 2.08 0 3.68-.387 4.8-1.16 1.12-.773 1.68-1.733 1.68-2.88 0-1.147-.346-1.92-1.04-2.32-.666-.373-2.013-.56-4.04-.56h-3.88c-2.16 0-3.706-.36-4.64-1.08-.933-.72-1.4-1.6-1.4-2.64 0-1.067.334-1.947 1-2.64.667-.72 1.854-1.6 3.56-2.64-3.093-.88-4.64-2.907-4.64-6.08 0-2 .72-3.613 2.16-4.84 1.44-1.227 3.6-1.84 6.48-1.84 1.734 0 3.214.333 4.44 1a9.11 9.11 0 01-.24-1.96c0-1.493.4-2.573 1.2-3.24.8-.667 1.694-1 2.68-1 .987 0 1.774.267 2.36.8.614.507.92 1.213.92 2.12s-.24 1.587-.72 2.04c-.48.427-1.066.64-1.76.64-.666 0-1.226-.173-1.68-.52-.426-.373-.653-.893-.68-1.56zm-8.48 7.48v2.16c0 1.787.147 3 .44 3.64.32.64.787.96 1.4.96.64 0 1.094-.307 1.36-.92.294-.64.44-1.933.44-3.88v-1.96c0-2.08-.133-3.44-.4-4.08-.266-.667-.72-1-1.36-1-.613 0-1.08.347-1.4 1.04-.32.667-.48 2.013-.48 4.04zm65.289-13.6V36h-5.6l-13.72-25.88v25.12h2.2V36h-5.48v-.76h2.2V8.76h-2.2V8h11.04l10.48 20.08V8.76h-2.2V8h5.48v.76h-2.2zm13.726 27.64c-3.44 0-6.027-.88-7.76-2.64-1.707-1.787-2.56-4.253-2.56-7.4 0-3.173.96-5.6 2.88-7.28 1.947-1.68 4.413-2.52 7.4-2.52 6.053 0 8.96 3.04 8.72 9.12h-11.28v1.56c0 2.613.333 4.587 1 5.92.667 1.333 1.827 2 3.48 2 3.093 0 5.12-1.653 6.08-4.96l.72.12c-.507 1.92-1.427 3.413-2.76 4.48-1.307 1.067-3.28 1.6-5.92 1.6zm-2.56-11.52h4.12v-1.96c0-2.16-.133-3.627-.4-4.4-.24-.8-.747-1.2-1.52-1.2-.747 0-1.307.427-1.68 1.28-.347.827-.52 2.267-.52 4.32v1.96zm25.134-7.2v-.72h10.32v.72h-1.64l3.6 13.48 3.56-13.48h-2.76v-.72h5.4v.72h-1.68l-4.8 18.32h-5.48l-3.48-12.28-3.76 12.28h-5.36l-5.92-18.32h-1.8v-.72h12.12v.72h-2.4l3.68 13.6 2.88-9.36-1-4.24h-1.48zM254.25 36.4v-7.16h.48c.693 2.32 1.626 3.947 2.8 4.88 1.173.933 2.64 1.4 4.4 1.4 2.72 0 4.08-.867 4.08-2.6 0-.747-.334-1.307-1-1.68-1.04-.587-2.374-1.04-4-1.36-1.814-.48-3.334-1.12-4.56-1.92-1.467-.96-2.2-2.48-2.2-4.56 0-2.08.64-3.733 1.92-4.96 1.28-1.253 2.986-1.88 5.12-1.88 1.306 0 2.653.307 4.04.92.506.213.893.32 1.16.32a.927.927 0 00.68-.28c.186-.187.413-.533.68-1.04h.44v6.12h-.48c-1.36-3.467-3.467-5.2-6.32-5.2-1.254 0-2.187.227-2.8.68-.614.427-.92.973-.92 1.64 0 .4.093.72.28.96.186.213.333.373.44.48.106.107.28.227.52.36.24.107.44.2.6.28l.72.24c.346.107.6.173.76.2 1.813.453 3.12.853 3.92 1.2.8.32 1.56.72 2.28 1.2 1.466 1.013 2.2 2.653 2.2 4.92 0 2.24-.667 3.947-2 5.12-1.334 1.147-3.16 1.72-5.48 1.72-1.654 0-3.254-.387-4.8-1.16-.32-.213-.574-.32-.76-.32-.587 0-1.16.493-1.72 1.48h-.48z" fill="#000"/></g><defs><clipPath id="clip0"><path fill="#fff" d="M0 0h271v48H0z"/></clipPath></defs></svg>