<?xml version="1.0" encoding="UTF-8" standalone="no"?>
<svg xmlns:sketch="http://www.bohemiancoding.com/sketch/ns" xmlns="http://www.w3.org/2000/svg" xmlns:xlink="http://www.w3.org/1999/xlink" version="1.1" viewBox="0 0 220 89">
 <title>logo</title>
 <desc>Created with Sketch.</desc>
 <g id="Page-1" fill-rule="evenodd" sketch:type="MSPage" fill="none">
  <g id="logo" fill="#111" sketch:type="MSLayerGroup">
   <g id="Group" sketch:type="MSShapeGroup">
    <path id="Shape" d="m6.7 86.8h-6.7v1.3h37.1v-23.4h-1.1s0 13.5-4.5 17.9c-3.8 3.8-7.8 4.1-14.3 4.1v-43.1s4.5-0.3 6.7 1.9c3.4 3.4 3.8 7.8 3.8 13.9h1.2v-33h-1.2c0 6.1-0.3 10.5-3.8 13.9-2.2 2.2-6.7 1.9-6.7 1.9v-40.9c6.5 0 9.6 0.4 13.4 4.1 4.4 4.4 4.5 17.9 4.5 17.9h1.1v-23.3h-36.2v1.3h6.7v85.5z"/>
    <path id="Shape" d="m79.2 1.3v85.5c6.5 0 10.5-0.4 14.3-4.1 4.4-4.4 4.5-17.9 4.5-17.9h1.1v23.4h-37.1v-1.3h6.7v-85.7h-6.7v-1.2h23.3v1.3h-6.1z"/>
    <path id="Shape" d="m138.8 1.3v85.5c6.5 0 10.5-0.4 14.3-4.1 4.4-4.4 4.5-17.9 4.5-17.9h1.1v23.4h-37.1v-1.3h6.7v-85.7h-6.7v-1.2h23.3v1.3h-6.1z"/>
    <path id="Shape" d="m189.4 86.8h-6.7v1.3h37.1v-23.4h-1.1s0 13.5-4.5 17.9c-3.8 3.8-7.8 4.1-14.3 4.1v-43.1s4.5-0.3 6.7 1.9c3.4 3.4 3.8 7.8 3.8 13.9h1.2v-33h-1.2c0 6.1-0.3 10.5-3.8 13.9-2.2 2.2-6.7 1.9-6.7 1.9v-40.9c6.5 0 9.6 0.4 13.4 4.1 4.4 4.4 4.5 17.9 4.5 17.9h1.1v-23.3h-36.2v1.3h6.7v85.5z"/>
   </g>
  </g>
 </g>
</svg>
