<?xml version="1.0" encoding="utf-8"?>
<!-- Generator: Adobe Illustrator 19.2.0, SVG Export Plug-In . SVG Version: 6.00 Build 0)  -->
<svg version="1.1" id="Layer_1" xmlns="http://www.w3.org/2000/svg" xmlns:xlink="http://www.w3.org/1999/xlink" x="0px" y="0px"
	 width="41.1px" height="40.6px" viewBox="0 0 41.1 40.6" style="enable-background:new 0 0 41.1 40.6;" xml:space="preserve">
<metadata><?xpacket begin="﻿" id="W5M0MpCehiHzreSzNTczkc9d"?>
<x:xmpmeta xmlns:x="adobe:ns:meta/" x:xmptk="Adobe XMP Core 5.6-c111 79.158366, 2015/09/25-01:12:00        ">
   <rdf:RDF xmlns:rdf="http://www.w3.org/1999/02/22-rdf-syntax-ns#">
      <rdf:Description rdf:about=""/>
   </rdf:RDF>
</x:xmpmeta>
                                                                                                    
                                                                                                    
                                                                                                    
                                                                                                    
                                                                                                    
                                                                                                    
                                                                                                    
                                                                                                    
                                                                                                    
                                                                                                    
                                                                                                    
                                                                                                    
                                                                                                    
                                                                                                    
                                                                                                    
                                                                                                    
                                                                                                    
                                                                                                    
                                                                                                    
                                                                                                    
                           
<?xpacket end="w"?></metadata>
<style type="text/css">
	.st0{fill:none;}
	.st1{fill:#6F8460;}
</style>
<path class="st0" d="M29.5,16.4l-1.4-0.2l-4-0.6L23,13.4l-0.6-1.3l-0.6-1.3c-0.6-1.3-1.6-1.3-2.3,0l-0.6,1.3l-0.6,1.3l-1.1,3l-4-0.1
	l-1.4,0.2c-1.4,0.2-1.7,1.2-0.7,2.1l1,1l2.9,2.8l-0.4,2.5v0l-0.3,1.8l-0.2,1c-0.2,1.4,0.6,2,1.8,1.3l4.8-2.5l4.8,2.5
	c1.2,0.7,2.1,0.1,1.8-1.3l-0.2-1l-0.3-1.8v0l-0.4-2.5l2.9-2.8l1-1C31.2,17.6,30.9,16.7,29.5,16.4z"/>
<path class="st1" d="M37.2,17.3c2-1.7,2.9-3.7,2.3-5.2c-0.6-1.5-2.6-2.1-5-1.9c0.9-2.3,0.9-4.3-0.2-5.4c-1.2-1.1-3.3-0.8-5.4,0.4
	c-0.1-2.5-1-4.4-2.5-4.8c-1.6-0.5-3.4,0.8-4.9,3c-1.2-2.3-2.9-3.7-4.5-3.4c-1.6,0.3-2.7,2.1-3,4.6c-2-1.5-4.1-1.9-5.4-1
	C7.2,4.6,7,6.6,7.7,8.9c-2.4-0.4-4.4,0-5.2,1.4c-0.8,1.4,0,3.4,1.7,5.3c-2.5,0.7-4.2,2-4.2,3.6c-0.1,1.6,1.5,3.2,3.9,4
	C2,25,1,27,1.7,28.5c0.6,1.5,2.6,2.1,5,1.9c-0.9,2.3-0.9,4.3,0.2,5.4c1.2,1,3.3,0.8,5.4-0.4c0.1,2.5,1,4.3,2.5,4.8
	c1.6,0.5,3.4-0.8,4.9-3c1.2,2.3,2.9,3.7,4.5,3.4c1.6-0.3,2.7-2.1,3-4.6c2,1.5,4.1,1.9,5.4,1c1.3-0.9,1.5-3,0.8-5.3
	c2.4,0.4,4.4,0,5.2-1.4c0.8-1.4,0-3.4-1.7-5.3c2.5-0.7,4.2-2,4.2-3.6C41.2,19.7,39.6,18.2,37.2,17.3z M30.2,18.6l-1,1l-2.9,2.8
	l0.4,2.5v0l0.3,1.8l0.2,1c0.2,1.4-0.6,2-1.8,1.3l-4.8-2.5l-4.8,2.5c-1.2,0.7-2.1,0.1-1.8-1.3l0.2-1l0.3-1.8v0l0.4-2.5l-2.9-2.8l-1-1
	c-1-1-0.7-1.9,0.7-2.1l1.4-0.2l4-0.6l1.1-2.3l0.6-1.3l0.6-1.3c0.6-1.3,1.6-1.3,2.3,0l0.6,1.3l0.6,1.3l1.1,2.3l4,0.6l1.4,0.2
	C30.9,16.7,31.2,17.6,30.2,18.6z"/>
</svg>
