<svg xmlns="http://www.w3.org/2000/svg" viewBox="0 0 699.06 699.06"><defs><style>.cls-1{fill:#cdcdcd}.cls-2{fill:none;stroke:#fff;stroke-miterlimit:10;stroke-width:20px}.cls-3{fill:#fff}</style></defs><title>Asset 5</title><g id="Layer_2" data-name="Layer 2"><g id="Layer_4" data-name="Layer 4"><path class="cls-1" d="M0 0h699.06v699.06H0z"/><rect class="cls-2" x="182.78" y="312.6" width="347.48" height="215.48" rx="14" ry="14"/><path class="cls-3" d="M395.43 415.8L331.62 379a6 6 0 0 0-9 5.2v73.69a6 6 0 0 0 9 5.2l63.82-36.85a6 6 0 0 0-.01-10.44z"/><rect class="cls-2" x="169.12" y="199.74" width="355.48" height="70.63" rx="14" ry="14" transform="rotate(-13.92 346.795 235.047)"/><path class="cls-2" d="M230.11 227.61l-49.22 84.96m107.46-99.4l-49.22 84.97m107.45-99.4l-49.21 84.97m107.45-99.4l-49.21 84.96m107.45-99.39l-49.21 84.96m97.27-81.83l-39.04 67.4"/></g></g></svg>