<?xml version="1.0" encoding="utf-8"?><svg id="Layer_1" data-name="Layer 1" xmlns="http://www.w3.org/2000/svg" viewBox="0 0 360 360"><defs><style>.cls-1{fill:#fff}</style></defs><path class="cls-1" d="M15.49 355A10.45 10.45 0 0 1 5 344.51v-329A10.45 10.45 0 0 1 15.49 5h329A10.45 10.45 0 0 1 355 15.49v329A10.45 10.45 0 0 1 344.51 355zm228.8 0V231.89h41.31l6.18-48h-47.49v-30.58c0-13.89 3.86-23.35 23.77-23.35h25.4V87a339.87 339.87 0 0 0-37-1.89c-36.62 0-61.69 22.35-61.69 63.4v35.37h-41.43v48h41.42V355z"/></svg>
