<?xml version="1.0" encoding="utf-8"?><svg id="Layer_1" data-name="Layer 1" xmlns="http://www.w3.org/2000/svg" viewBox="0 0 360 360"><defs><style>.cls-1{fill:#fff}.cls-2{fill:none}.cls-3{fill:#4285f4}.cls-4{fill:#34a853}.cls-5{fill:#fbbc05}.cls-6{fill:#ea4335}</style></defs><g id="button-bg-copy"><rect id="path-3" class="cls-1" x="5" y="5.04" width="349.92" height="349.92" rx="9.98" ry="9.98"/><rect id="path-3-2" data-name="path-3" class="cls-2" x="5" y="5.04" width="349.92" height="349.92" rx="9.98" ry="9.98"/><rect id="path-3-3" data-name="path-3" class="cls-2" x="5" y="5.04" width="349.92" height="349.92" rx="9.98" ry="9.98"/><rect id="path-3-4" data-name="path-3" class="cls-2" x="5" y="5.04" width="349.92" height="349.92" rx="9.98" ry="9.98"/></g><g id="logo_googleg_48dp" data-name="logo googleg 48dp"><path id="Shape" class="cls-3" d="M277.9 182.36a117.23 117.23 0 0 0-1.9-20.87h-96V201h54.91a46.93 46.93 0 0 1-20.36 30.79v25.6h33c19.29-17.76 30.42-43.92 30.42-75z"/><path id="Shape-2" data-name="Shape" class="cls-4" d="M180 282.06c27.55 0 50.64-9.14 67.52-24.72l-33-25.6c-9.14 6.12-20.82 9.74-34.55 9.74-26.57 0-49.06-17.95-57.09-42.06H88.79v26.43A102 102 0 0 0 180 282.06z"/><path id="Shape-3" data-name="Shape" class="cls-5" d="M122.87 199.42a60.32 60.32 0 0 1 0-38.77v-26.43H88.79a102.15 102.15 0 0 0 0 91.64l34.09-26.43z"/><path id="Shape-4" data-name="Shape" class="cls-6" d="M180 118.59c15 0 28.43 5.15 39 15.26l29.26-29.26C230.56 88.12 207.46 78 180 78a102 102 0 0 0-91.17 56.21l34.09 26.43c8-24.11 30.51-42.06 57.09-42.06z"/><path id="Shape-5" data-name="Shape" class="cls-2" d="M77.94 78H282v204H78z"/></g></svg>
