<svg id="Layer_1" data-name="Layer 1" xmlns="http://www.w3.org/2000/svg" viewBox="0 0 360 361"><defs><style>.cls-1{fill:#fff;}.cls-2{fill:none;}.cls-3{fill:#3fac3b;}</style></defs><title>logo cropped 2</title><g id="button-bg-copy"><rect id="path-3" class="cls-1" width="349.92" height="349.92" rx="9.98" ry="9.98"/><rect id="path-3-2" class="cls-2" width="349.92" height="349.92" rx="9.98" ry="9.98"/><rect id="path-3-3" class="cls-2" width="349.92" height="349.92" rx="9.98" ry="9.98"/><rect id="path-3-4" class="cls-2" width="349.92" height="349.92" rx="9.98" ry="9.98"/></g><g id="Desktop-Interior-Product-Views"><g id="ID-Protection---History"><g id="Header"><g id="Logo"><path id="Fill-1" class="cls-3" d="M179.7,249.21c-42.7,0-77.43-34.32-77.43-76.5S137,96.21,179.7,96.21a77.46,77.46,0,0,1,74.07,54.19h26.69C270.16,104.8,229,70.71,179.7,70.71c-57,0-103.24,48.52-103.24,104.85s46.22,99.15,103.24,99.15c49.26,0,90.46-34.09,100.76-79.69H253.77a77.46,77.46,0,0,1-74.07,54.19"/><path id="Fill-3" class="cls-3" d="M204.83,157.85A26.32,26.32,0,1,0,167,181.42v32.39h23.1V181.42a26.22,26.22,0,0,0,14.77-23.57"/></g></g></g></g></svg>