<?xml version="1.0" encoding="utf-8"?><svg id="Layer_1" xmlns="http://www.w3.org/2000/svg" viewBox="0 0 360 360"><style>.st0{fill:#fff}.st1{fill:#93b771}</style><g id="button-bg-copy"><path id="path-3" class="st0" d="M15 5h330c5.5 0 10 4.5 10 10v330c0 5.5-4.5 10-10 10H15c-5.5 0-10-4.5-10-10V15C5 9.5 9.5 5 15 5z"/><path id="path-3-2" class="st0" d="M15 5h330c5.5 0 10 4.5 10 10v330c0 5.5-4.5 10-10 10H15c-5.5 0-10-4.5-10-10V15C5 9.5 9.5 5 15 5z"/><path id="path-3-3" class="st0" d="M15 5h330c5.5 0 10 4.5 10 10v330c0 5.5-4.5 10-10 10H15c-5.5 0-10-4.5-10-10V15C5 9.5 9.5 5 15 5z"/><path id="path-3-4" class="st0" d="M15 5h330c5.5 0 10 4.5 10 10v330c0 5.5-4.5 10-10 10H15c-5.5 0-10-4.5-10-10V15C5 9.5 9.5 5 15 5z"/></g><ellipse class="st1" cx="178.2" cy="138.8" rx="60" ry="60.8"/><path class="st1" d="M277.8 275.3c-1.6-27.3-15.9-58.1-33.3-76.6-2.7-2.9-6.9-2.2-9.6.6-18.2 19.4-39.9 23.2-56.7 23.2-15.4 0-39.7-3.2-57.7-23-2.7-2.9-6.9-3.6-9.6-.7-17.3 18.5-31.6 49.3-33.3 76.5-.2 3.6 2.6 6.7 6.2 6.7h187.7c3.6 0 6.5-3.1 6.3-6.7z"/></svg>
