<?xml version="1.0" standalone="no"?>
<!DOCTYPE svg PUBLIC "-//W3C//DTD SVG 1.1//EN" "http://www.w3.org/Graphics/SVG/1.1/DTD/svg11.dtd" >
<svg xmlns="http://www.w3.org/2000/svg">
<metadata>
<json>
<![CDATA[
{
	"fontFamily": "mujerhoy-icon",
	"majorVersion": 1,
	"minorVersion": 0,
	"designer": "Paco Trujillo",
	"version": "Version 1.0",
	"fontId": "mujerhoy-icon",
	"psName": "mujerhoy-icon",
	"subFamily": "Regular",
	"fullName": "mujerhoy-icon",
	"description": "Font generated by IcoMoon."
}
]]>
</json>
</metadata>
<defs>
<font id="mujerhoy-icon" horiz-adv-x="1024">
<font-face units-per-em="1024" ascent="960" descent="-64" />
<missing-glyph horiz-adv-x="1024" />
<glyph unicode="&#x20;" horiz-adv-x="512" d="" />
<glyph unicode="&#xe600;" glyph-name="mujerhoy" data-tags="mujerhoy" d="M216.235 353.067v-2.475h-56.704v2.475h14.165v89.131c0 16.171-7.979 23.936-21.632 23.936-14.208 0-30.421-13.653-30.421-42.325v-70.699h15.189v-2.475h-56.747v2.475h14.208v89.131c0 16.171-8.021 23.936-21.675 23.936-13.909 0-30.080-13.653-30.080-42.325v-70.699h14.933v-2.475h-57.472v2.475h15.147v119.509h-15.147v2.475h42.581v-33.323c7.936 25.685 25.088 35.84 42.752 35.84 19.413 0 35.115-10.667 36.352-36.352 7.765 25.899 25.685 36.352 43.093 36.352 20.181 0 36.352-11.435 36.352-39.339v-85.12h15.104zM307.072 383.958c-8.149-25.643-25.088-35.84-42.795-35.84-20.139 0-36.565 11.477-36.565 39.339v85.12h-14.933v2.475h42.283v-91.563c0-16.171 8.235-23.893 21.931-23.893 13.909 0 30.080 13.696 30.080 42.283v70.699h-21.163v2.475h48.597v-121.941h15.147v-2.475h-42.581v33.323zM397.952 338.902c0-24.363-13.44-40.576-41.813-40.576-15.104 0-23.381 6.741-23.381 15.445 0 8.448 5.973 12.928 12.416 12.928 6.229 0 12.715-2.688 12.715-11.648 0-3.797-2.219-10.709-10.453-12.971 2.005-0.768 4.267-1.195 6.997-1.195 12.672 0 16.171 9.685 16.171 24.064v147.627h-19.925v2.475h47.275v-136.149zM382.251 520.875c9.515 0 16.896-5.717 16.896-15.403 0-9.515-7.424-14.72-16.896-14.72-9.899 0-17.408 5.205-17.408 14.72 0 9.685 7.509 15.403 17.408 15.403zM524.928 364.544c-9.984-7.979-23.979-16.469-47.317-16.469-40.021 0-62.464 27.179-62.464 65.237 0 42.325 30.379 64.213 61.44 64.213 25.899 0 50.773-14.933 50.773-50.005 0-3.755-0.469-10.197-1.195-13.696h-82.176c0-44.8 17.92-61.227 42.837-61.227 15.659 0 28.587 6.955 38.101 15.147v-3.2zM500.224 416.342c0.555 2.517 1.28 12.203 1.28 16.896 0 17.963-7.253 41.771-24.917 41.771-23.381 0-32.085-27.563-32.597-58.709h56.235zM533.333 472.576v2.475h42.539v-36.096c4.693 24.149 20.907 38.571 37.632 38.571 10.667 0 17.152-6.955 17.152-16.427 0-8.448-5.461-15.403-14.72-15.403-7.467 0-13.952 3.968-13.952 13.909 0 4.48 1.493 11.477 8.021 15.147-20.437-2.475-34.133-26.581-34.133-60.459v-61.269h24.917v-2.475h-67.456v2.475h15.147v119.509h-15.147zM671.701 441.728c7.979 25.685 25.131 35.84 42.837 35.84 20.139 0 36.523-11.435 36.523-39.339v-85.12h14.976v-2.475h-56.747v2.475h14.421v89.131c0 16.171-8.192 23.936-21.888 23.936-13.952 0-30.123-13.653-30.123-42.325v-70.699h14.933v-2.475h-57.472v2.475h15.189v174.165h-15.189v2.517h42.539v-88.107zM889.941 412.843c0-36.821-21.163-64.768-60.501-64.768-39.040 0-60.16 27.904-60.16 64.768s21.12 64.725 60.16 64.725c39.339-0.043 60.501-27.861 60.501-64.725zM797.867 412.843c0-38.315 9.728-62.208 31.573-62.208 22.187 0 31.872 23.893 31.872 62.208 0 38.357-9.728 62.208-31.872 62.208-21.845 0-31.573-23.851-31.573-62.208zM898.176 472.576h-15.957v2.475h72.704v-2.475h-24.661l38.101-103.040h0.512l32.341 103.040h-26.581v2.475h48v-2.475h-18.688l-38.571-123.221c-9.643-30.123-24.32-51.029-50.219-51.029-15.019 0-23.211 6.741-23.211 15.445 0 8.448 5.973 12.928 12.459 12.928 6.229 0 12.757-2.688 12.757-11.648 0-3.755-2.304-10.709-10.496-12.971 2.005-0.768 4.736-1.195 7.467-1.195 11.691 0 35.584 5.205 48.512 48.512h-19.115l-45.355 123.179z" />
<glyph unicode="&#xe601;" glyph-name="guapabox" data-tags="guapabox" d="M77.44 373.803c25.984 0 42.624-9.387 42.624-31.189 0-27.477-31.957-40.619-67.413-40.619-26.752 0-51.328 5.419-51.328 25.045 0 13.824 14.848 22.272 33.451 23.808-13.867 3.2-21.077 12.331-21.077 22.485 0 14.677 12.885 22.869 29.995 26.325-27.989 6.699-36.693 23.552-36.693 39.893 0 24.747 18.859 40.832 48.853 40.832 15.616 0 26.965-4.139 34.944-10.667 2.944 6.741 9.643 16.896 22.784 16.896 8.661 0 13.184-4.992 13.184-12.117 0-5.973-3.712-11.435-10.667-11.435-4.224 0-12.16 1.195-13.141 16.384-4.693-1.963-7.936-6.699-9.899-11.691 8.192-7.68 11.904-17.835 11.904-28.203 0-24.789-18.347-40.875-49.067-40.875-13.184 0-23.083-4.736-23.083-13.141 0-7.168 5.717-11.691 17.579-11.691h27.051zM45.995 350.080c-20.565 0-26.283-13.653-26.283-22.315 0-15.104 13.355-23.296 35.157-23.296 27.989 0 44.117 9.856 44.117 27.264 0 9.131-6.912 18.389-27.733 18.389h-25.259zM79.957 439.51c0 22.528-8.917 38.4-24.021 38.4-14.635 0-23.851-15.872-23.851-38.4 0-22.571 8.96-38.443 23.851-38.443 14.848 0 24.021 15.872 24.021 38.443zM216.875 384.683c-8.149-25.472-25.045-35.669-42.624-35.669-20.096 0-36.437 11.477-36.437 39.211v84.736h-9.344v2.432h36.608v-91.179c0-16.043 8.149-23.723 21.845-23.723 13.867 0 29.995 13.568 29.995 42.112v70.4h-21.12v2.432h48.341v-121.387h15.104v-2.517h-42.368v33.152zM367.189 370.39c0-10.88 3.712-13.397 8.405-13.397 3.2 0 5.717 0.939 7.467 2.261v-2.432c-5.717-4.352-13.909-7.253-22.571-7.253-14.421 0-20.565 5.461-20.565 19.072v12.672c-7.936-23.851-25.045-32.256-41.131-32.256-19.584 0-32.469 12.629-32.469 31.232 0 19.755 15.36 40.107 73.643 42.581v25.771c0 13.397-6.443 26.027-27.989 26.027-13.909 0-27.051-5.845-31.232-13.355 11.605 0 16.597-6.997 16.597-13.867 0-7.424-4.437-13.141-13.355-13.141s-13.867 5.717-13.867 13.867c0 13.909 17.579 29.781 48.299 29.781 40.875 0 48.853-20.309 48.853-48.555v-59.008zM339.925 420.438c-33.92-1.237-45.141-17.621-45.141-33.963 0-13.568 7.723-21.803 18.816-21.803 14.933 0 26.325 11.605 26.325 29.995v25.771zM439.637 304.47v-2.517h-57.216v2.517h15.104v168.491h-15.104v2.432h42.411v-23.723c6.699 21.803 26.24 26.24 37.163 26.24 31.189 0 48.341-23.040 48.341-64.469 0-37.163-19.797-64.427-52.011-64.427-9.685 0-23.083 3.243-33.493 9.941v-54.485h14.805zM424.832 361.472c6.955-4.011 14.336-5.76 22.059-5.76 21.035 0 34.688 18.816 34.688 57.728 0 38.699-10.667 57.771-29.227 57.771-11.435 0-27.52-7.893-27.52-37.163v-72.576zM623.104 370.39c0-10.88 3.627-13.397 8.405-13.397 3.285 0 5.717 0.939 7.467 2.261v-2.432c-5.717-4.352-13.909-7.253-22.613-7.253-14.293 0-20.523 5.461-20.523 19.072v12.672c-7.936-23.851-25.003-32.256-41.173-32.256-19.541 0-32.427 12.629-32.427 31.232 0 19.755 15.36 40.107 73.6 42.581v25.771c0 13.397-6.443 26.027-27.989 26.027-13.867 0-26.965-5.845-31.232-13.355 11.648 0 16.597-6.997 16.597-13.867 0-7.424-4.437-13.141-13.355-13.141-8.96 0-13.909 5.717-13.909 13.867 0 13.909 17.621 29.781 48.341 29.781 40.832 0 48.853-20.309 48.853-48.555v-59.008zM595.797 420.438c-33.963-1.237-45.099-17.621-45.099-33.963 0-13.568 7.723-21.803 18.816-21.803 14.848 0 26.24 11.605 26.24 29.995v25.771zM650.624 349.014v178.432h-15.147v2.517h42.325v-78.293c6.955 21.803 26.283 26.24 37.163 26.24 31.275 0 48.384-23.040 48.384-64.469 0-37.163-19.797-64.427-52.053-64.427-9.643 0-23.040 3.243-33.493 9.941l-25.003-9.941h-2.176zM677.803 361.472c6.955-4.011 14.421-5.76 22.101-5.76 21.077 0 34.688 18.816 34.688 57.728 0 38.699-10.667 57.771-29.056 57.771-11.648 0-27.733-7.893-27.733-37.163v-72.576zM898.987 413.44c0-36.651-21.035-64.427-60.203-64.427-38.955 0-59.989 27.776-59.989 64.427 0 36.693 21.035 64.469 59.989 64.469 39.168 0 60.203-27.776 60.203-64.469zM807.296 413.44c0-38.101 9.728-61.952 31.488-61.952 22.059 0 31.744 23.851 31.744 61.952 0 38.229-9.728 61.995-31.744 61.995-21.803 0-31.488-23.765-31.488-61.995zM1022.336 355.456v-2.56h-66.731v2.56h17.877l-29.013 52.309-31.232-52.309h26.325v-2.56h-49.664v2.56h20.395l32.683 54.784-35.413 64.171h-15.317v2.475h65.877v-2.475h-18.048l27.221-48.811 29.227 48.811h-26.283v2.475h49.579v-2.475h-20.267l-30.763-51.541 37.632-67.413z" />
<glyph unicode="&#xe602;" glyph-name="vocento" data-tags="vocento" d="M110.251 501.419l-40.448-119.424h-0.597l-39.637 119.424h-29.568l52.523-146.432h32.171l52.565 146.432zM219.648 373.419c31.573 0 45.653 28.672 45.653 54.827 0 27.861-16.939 54.827-45.653 54.827-29.013 0-45.952-26.965-45.952-54.827 0-26.155 14.080-54.827 45.952-54.827zM219.648 504.875c44.501 0 74.368-32.128 74.368-76.672 0-41.899-30.421-76.629-74.368-76.629-44.203 0-74.667 34.731-74.667 76.629 0 44.544 29.867 76.672 74.667 76.672zM421.803 476.758c-10.325 4.309-20.693 6.315-29.312 6.315-30.165 0-47.104-26.965-47.104-54.827 0-26.112 14.080-54.827 48.811-54.827 9.173 0 20.693 2.816 29.013 8.32l2.005-24.149c-11.179-5.163-24.107-6.016-33.877-6.016-44.245 0-74.667 34.731-74.667 76.629 0 44.501 29.867 76.672 74.667 76.672 10.923 0 24.96-2.603 32.768-5.717l-2.304-22.4zM548.139 442.283c0 22.4-13.184 40.789-36.437 40.789-26.411 0-37.333-21.803-39.339-40.789h75.776zM565.675 361.003c-10.325-3.669-22.144-9.429-46.251-9.429-51.968 0-75.819 31.573-75.819 79.232 0 43.349 27.264 74.069 68.608 74.069 48.811 0 64.597-35.584 64.597-82.688h-104.533c0-29.013 22.699-48.811 48.256-48.811 17.792 0 38.443 9.173 45.099 14.592v-26.965zM605.824 501.462h26.155v-23.253h0.597c8.021 16.683 27.52 26.709 47.915 26.709 37.931 0 54.827-23.552 54.827-62.891v-87.040h-27.008v75.776c0 34.176-7.424 50.816-31.019 52.267-30.763 0-44.501-24.704-44.501-60.288v-67.755h-27.008v146.475zM848.981 501.462v-21.845h-38.741v-80.085c0-16.939 10.325-26.112 22.656-26.112 8.405 0 14.421 2.603 18.432 5.163v-22.997c-6.016-1.749-14.336-4.011-22.997-4.011-27.819 0-45.013 13.184-45.013 42.496v85.547h-33.067v21.845h98.731zM939.179 373.419c31.573 0 45.653 28.672 45.653 54.827 0 27.861-16.896 54.827-45.653 54.827-29.013 0-45.909-26.965-45.909-54.827 0-26.155 14.080-54.827 45.909-54.827zM939.179 504.875c44.587 0 74.411-32.128 74.411-76.672 0-41.899-30.507-76.629-74.411-76.629-44.16 0-74.667 34.731-74.667 76.629 0 44.544 29.909 76.672 74.667 76.672z" />
<glyph unicode="&#xe603;" glyph-name="comentario" data-tags="comentario" d="M170.667 725.334v-469.333h128v-213.333l213.333 213.333h341.333v469.333z" />
<glyph unicode="&#xe604;" glyph-name="hamburguesa" data-tags="hamburguesa" d="M85.333 725.334h853.333v-42.667h-853.333v42.667zM85.333 128h853.333v-42.667h-853.333v42.667zM85.333 426.667h853.333v-42.667h-853.333v42.667z" />
<glyph unicode="&#xe605;" glyph-name="lupadcha" data-tags="lupadcha" d="M115.456-0l329.173 329.131c52.395-45.483 120.619-73.131 195.371-73.131 164.949 0 298.667 133.717 298.667 298.667s-133.717 298.667-298.667 298.667c-164.907 0-298.667-133.717-298.667-298.667 0-74.795 27.691-142.976 73.131-195.371l-329.131-329.131 30.123-30.165zM640 298.667c-139.179 0-256 118.528-256 256 0 144.896 119.253 256 256 256 136.277 0 256-118.784 256-256 0-144.896-121.344-256-256-256z" />
<glyph unicode="&#xe606;" glyph-name="lupaizda" data-tags="lupaizda" d="M938.667 30.166l-329.131 329.131c45.483 52.395 73.131 120.576 73.131 195.371 0 164.949-133.76 298.667-298.667 298.667s-298.667-133.717-298.667-298.667 133.717-298.667 298.667-298.667c74.795 0 143.019 27.648 195.413 73.131l329.131-329.131 30.123 30.165zM128 554.667c0 137.216 119.723 256 256 256 136.747 0 256-111.104 256-256 0-137.472-116.821-256-256-256-134.656 0-256 111.104-256 256z" />
<glyph unicode="&#xe607;" glyph-name="facebook" data-tags="facebook" d="M668.245 767.872l-92.117 0.128c-103.467 0-170.368-66.005-170.368-168.021v-77.44h-92.672c-7.936 0-14.421-6.229-14.421-13.952v-112.213c0-7.68 6.485-13.952 14.421-13.952h92.672v-283.179c0-7.68 6.485-13.909 14.507-13.909h120.789c8.021 0 14.549 6.229 14.549 13.909v283.179h108.245c8.021 0 14.464 6.272 14.464 13.952l0.085 112.213c0 3.669-1.536 7.253-4.267 9.856-2.688 2.603-6.357 4.053-10.197 4.053h-108.331v65.707c0 31.531 7.765 47.573 50.56 47.573l62.123 0.043c7.979-0.043 14.379 6.229 14.379 13.909v104.192c0 7.723-6.4 13.909-14.421 13.952z" />
<glyph unicode="&#xe608;" glyph-name="twitter" data-tags="twitter" d="M667.563 727.339c-79.317 0-143.659-64.341-143.659-143.659 0-11.264 1.237-22.229 3.712-32.725-119.339 5.973-225.152 63.104-296.064 150.101-12.331-21.205-19.413-45.867-19.413-72.192 0-49.835 25.344-93.867 63.915-119.595-23.595 0.768-45.696 7.168-65.067 17.92v-1.749c0-69.589 49.493-127.659 115.243-140.843-12.075-3.328-24.789-5.077-37.931-5.077-9.259 0-18.176 0.896-27.008 2.603 18.261-57.088 71.339-98.603 134.187-99.797-49.152-38.528-111.104-61.483-178.347-61.483-11.605 0-23.083 0.725-34.347 2.048 63.573-40.747 139.093-64.597 220.245-64.597 264.235 0 408.747 218.923 408.747 408.789 0 6.229-0.171 12.459-0.427 18.603 28.075 20.309 52.437 45.568 71.68 74.368-25.771-11.435-53.461-19.115-82.517-22.613 29.653 17.835 52.437 45.909 63.147 79.488-27.733-16.469-58.496-28.416-91.221-34.816-26.24 27.819-63.573 45.227-104.875 45.227z" />
<glyph unicode="&#xe609;" glyph-name="pinterest" data-tags="pinterest" d="M571.52 253.91c-47.787 0-92.843 25.813-108.245 55.168 0 0-25.728-101.931-31.189-121.685-19.2-69.461-75.648-136.747-80-142.379-3.115-4.053-9.856-2.688-10.581 2.475-1.237 8.917-15.616 94.293 1.323 165.931 8.533 35.883 57.003 241.024 57.003 241.024s-14.123 28.245-14.123 69.973c0 65.621 38.101 114.56 85.547 114.56 40.277 0 59.733-30.165 59.733-66.389 0-40.491-25.813-100.992-39.125-157.013-11.093-46.976 23.552-85.248 70.016-85.248 83.925 0 140.501 107.691 140.501 235.179 0 97.067-65.408 169.643-184.405 169.643-134.443 0-218.197-100.139-218.197-211.968 0-38.528 11.392-65.749 29.227-86.784 8.192-9.685 9.301-13.525 6.357-24.619-2.176-8.235-6.997-27.733-9.088-35.541-2.901-11.221-12.032-15.147-22.144-11.008-61.995 25.173-90.795 92.885-90.795 169.003 0 125.696 106.155 276.437 316.715 276.437 169.301 0 280.619-122.24 280.619-253.483 0-173.611-96.683-303.275-239.147-303.275z" />
<glyph unicode="&#xe60a;" glyph-name="instagram" data-tags="instagram" d="M807.637 42.667h-591.019c-48.939 0-88.619 39.68-88.619 88.619v590.763c0 48.981 39.68 88.619 88.619 88.619h591.019c48.939 0 88.363-39.637 88.363-88.619v-590.763c0-48.939-39.424-88.619-88.363-88.619zM512.128 574.251c-81.664 0-147.712-66.091-147.712-147.669s66.048-147.797 147.712-147.797c81.536 0 147.755 66.219 147.755 147.797s-66.219 147.669-147.755 147.669zM810.667 695.808c0 16.299-13.269 29.525-29.611 29.525h-90.112c-16.341 0-29.611-13.227-29.611-29.525v-90.24c0-16.256 13.269-29.568 29.568-29.568h90.112c16.384 0 29.653 13.312 29.653 29.568v90.24zM810.667 485.675h-69.973c4.864-18.859 7.808-38.656 7.808-59.093 0-130.603-105.813-236.416-236.373-236.416-130.603 0-236.373 105.813-236.373 236.416 0 20.437 2.859 40.192 7.765 59.093h-70.187v-324.992c0-16.341 16.555-32.683 32.853-32.683h531.797c16.341 0 32.683 16.341 32.683 32.683v324.992z" />
<glyph unicode="&#xe60b;" glyph-name="whatsapp" data-tags="whatsapp" d="M709.333 350.294c-2.389 3.84-8.491 6.144-17.664 10.752-9.301 4.565-54.699 26.752-63.147 29.824-8.448 3.029-14.677 4.565-20.779-4.608-6.229-9.173-23.893-29.867-29.355-35.968-5.376-6.144-10.624-6.869-19.925-2.304s-39.083 14.336-74.368 45.483c-27.435 24.363-45.995 54.4-51.371 63.531-5.419 9.131-0.597 14.165 3.968 18.688 4.181 4.139 9.301 10.667 13.909 16 4.608 5.419 6.187 9.259 9.259 15.36 3.029 6.144 1.493 11.477-0.811 16.043s-20.864 49.707-28.501 68.096c-7.68 18.432-15.403 15.403-20.821 15.403-5.333 0-11.52 0.768-17.707 0.768s-16.171-2.304-24.533-11.52c-8.576-9.173-32.427-31.36-32.427-76.459s33.152-88.747 37.717-94.891c4.608-6.144 63.915-101.717 157.867-138.453 93.995-36.693 93.995-24.448 110.933-22.869 16.896 1.451 54.656 22.144 62.379 43.52 7.808 21.461 7.808 39.808 5.376 43.605zM518.997 751.104c-174.763 0-317.013-141.099-317.013-314.581 0-68.779 22.4-132.565 60.373-184.491l-39.595-116.821 121.813 38.741c50.048-32.853 110.037-52.011 174.379-52.011 174.763 0 316.928 141.141 316.928 314.581 0.043 173.44-142.123 314.581-316.885 314.581zM895.829 436.48c0-206.635-168.661-374.187-376.875-374.187-66.091 0-128.213 16.896-182.229 46.507l-208.725-66.133 68.096 200.576c-34.389 56.405-54.101 122.539-54.101 193.237 0 206.677 168.747 374.187 377.003 374.187 208.171 0 377.003-167.509 377.003-374.187z" />
<glyph unicode="&#xe60c;" glyph-name="izda" data-tags="flechaizda" d="M257.109 395.606l482.688-482.688 30.165 30.165-482.688 482.688 482.688 482.731-30.165 30.165-512.896-512.896z" />
<glyph unicode="&#xe60d;" glyph-name="dcha" data-tags="flechadcha" d="M761.088 455.979l-482.688 482.688-30.165-30.165 482.688-482.731-482.688-482.688 30.165-30.208 512.939 512.896z" />
<glyph unicode="&#xe60e;" glyph-name="arriba" data-tags="flechaarriba" d="M481.835 652.544l-481.835-481.835 30.123-30.123 481.835 481.835 481.877-481.835 30.080 30.123-511.957 511.957z" />
<glyph unicode="&#xe60f;" glyph-name="abajo" data-tags="flechaabajo" d="M542.080 170.71l481.835 481.835-30.080 30.123-481.835-481.835-481.877 481.835-30.123-30.123 512-511.957z" />
<glyph unicode="&#xe610;" glyph-name="mas" data-tags="mas" d="M938.667 426.667h-426.667v426.667h-42.667v-426.667h-426.667v-42.667h426.667v-426.667h42.667v426.667h426.667z" />
<glyph unicode="&#xe611;" glyph-name="cerrar" data-tags="cerrar" d="M888.619 752.769l-30.165 30.165-346.923-346.965-346.965 346.965-30.165-30.165 346.965-346.965-346.965-346.965 30.165-30.165 346.965 346.965 346.923-346.965 30.165 30.165-346.923 346.965z" />
<glyph unicode="&#xe612;" glyph-name="googleplus" data-tags="googleplus" d="M346.922 467.414v-111.744h184.832c-7.509-47.915-55.893-140.544-184.832-140.544-111.232 0-201.984 92.16-201.984 205.739 0 113.536 90.709 205.739 201.984 205.739 63.275 0 105.643-27.008 129.792-50.261l88.491 85.163c-56.747 53.035-130.261 85.163-218.283 85.163-180.181 0-325.845-145.707-325.845-325.803s145.664-325.803 325.845-325.803c187.989 0 312.789 132.224 312.789 318.379 0 21.376-2.304 37.675-5.12 53.973h-307.669zM1023.744 467.414h-93.013v93.099h-93.141v-93.099h-93.056v-93.099h93.056v-93.099h93.141v93.099h93.013z" />
<glyph unicode="&#xe613;" glyph-name="izda2" data-tags="izda2" d="M660.736 768l-362.069-362.027 30.208-30.165 331.861-331.904 30.165 30.165-331.861 331.904 331.861 331.861z" />
<glyph unicode="&#xe614;" glyph-name="dcha2" data-tags="dcha2" d="M328.875 43.904l362.027 362.069-362.027 362.027-30.208-30.165 331.861-331.861-331.861-331.904z" />
<glyph unicode="&#xe615;" glyph-name="arriba2" data-tags="arriba2" d="M884.395 247.979l-362.027 362.069-362.027-362.069 30.165-30.165 331.861 331.904 331.861-331.904z" />
<glyph unicode="&#xe616;" glyph-name="abajo2" data-tags="abajo2" d="M157.739 604.416l362.112-362.027 361.984 362.027-30.165 30.165-331.819-331.861-331.947 331.861z" />
<glyph unicode="&#xe617;" glyph-name="izda2doble" data-tags="izda2doble" d="M573.355 778.368l-362.069-362.027 362.069-362.112 30.165 30.208-331.861 331.904 331.861 331.861zM786.688 778.368l-362.069-362.027 362.069-362.112 30.165 30.208-331.904 331.904 331.904 331.861z" />
<glyph unicode="&#xe618;" glyph-name="dcha2doble" data-tags="dcha2doble" d="M454.784 54.23l362.069 362.112-362.069 362.027-30.165-30.165 331.819-331.861-331.819-331.904zM241.451 54.23l362.069 362.112-362.069 362.027-30.165-30.165 331.819-331.861-331.819-331.904z" />
<glyph unicode="&#xe619;" glyph-name="arriba2doble" data-tags="arriba2doble" d="M873.429 384.64l-362.069 362.027-362.027-362.027 30.165-30.165 331.861 331.861 331.904-331.861zM873.429 171.307l-362.069 362.027-362.027-362.027 30.165-30.165 331.861 331.861 331.904-331.861z" />
<glyph unicode="&#xe61a;" glyph-name="abajo2doble" data-tags="abajo2doble" d="M149.333 503.168l362.027-362.027 362.027 362.027-30.165 30.165-331.861-331.819-331.819 331.819zM149.333 716.502l362.027-362.027 362.027 362.027-30.165 30.165-331.861-331.819-331.819 331.819z" />
<glyph unicode="&#xe61b;" glyph-name="mas2" data-tags="mas2" d="M552.96 675.84h-40.96v-245.76h-245.76v-40.96h245.76v-245.76h40.96v245.76h245.76v40.96h-245.76zM532.48 921.6c-282.788 0-512-229.212-512-512 0-282.747 229.212-512 512-512s512 229.253 512 512c0 282.788-229.212 512-512 512zM532.48-61.44c-259.195 0-471.040 211.845-471.040 471.040 0 259.236 211.845 471.040 471.040 471.040s471.040-211.804 471.040-471.040c0-259.195-211.845-471.040-471.040-471.040z" />
<glyph unicode="&#xe61c;" glyph-name="cerrar2" data-tags="cerrar2" d="M714.711 661.791l-202.711-202.752-202.752 202.752-28.959-28.959 202.752-202.752-202.752-202.711 28.959-29 202.752 202.752 202.711-202.752 28.959 29-202.711 202.711 202.711 202.752zM512 942.080c-282.788 0-512-229.212-512-512 0-282.747 229.212-512 512-512s512 229.253 512 512c0 282.788-229.212 512-512 512zM512-40.96c-259.195 0-471.040 211.845-471.040 471.040 0 259.236 211.845 471.040 471.040 471.040s471.040-211.804 471.040-471.040c0-259.195-211.845-471.040-471.040-471.040z" />
<glyph unicode="&#xe61d;" glyph-name="play" data-tags="play" d="M128 810.667v-768l768 381.013z" />
<glyph unicode="&#xe61e;" glyph-name="play2" data-tags="play2" d="M512 942.080c-282.788 0-512-229.212-512-512 0-282.747 229.212-512 512-512s512 229.253 512 512c0 282.788-229.212 512-512 512zM512-40.96c-259.195 0-471.040 211.845-471.040 471.040 0 259.236 211.845 471.040 471.040 471.040s471.040-211.804 471.040-471.040c0-259.195-211.845-471.040-471.040-471.040zM327.68 205.988l452.239 224.379-452.239 227.86z" />
<glyph unicode="&#xe620;" glyph-name="galeria" data-tags="galeria" d="M0 725.334v-768h1024v768h-1024zM981.333-0h-938.667v682.667h938.667v-682.667zM85.333 853.334h213.333v-42.667h-213.333v42.667zM512 106.667c129.579 0 234.667 105.045 234.667 234.667s-105.088 234.667-234.667 234.667-234.667-105.045-234.667-234.667 105.088-234.667 234.667-234.667zM512 533.334c106.027 0 192-85.973 192-192s-85.973-192-192-192-192 85.973-192 192 85.973 192 192 192z" />
<glyph unicode="&#xe621;" glyph-name="rss" data-tags="rss" d="M554.667 85.334h85.333c0 259.2-213.333 469.333-469.333 469.333v-85.333c213.333 0 384-171.904 384-384zM768 85.334h85.333c0 377.131-305.536 682.667-682.667 682.667v-85.333c329.984 0 597.333-267.349 597.333-597.333zM384 192c0-58.91-47.756-106.667-106.667-106.667s-106.667 47.756-106.667 106.667c0 58.91 47.756 106.667 106.667 106.667s106.667-47.756 106.667-106.667zM0 938.667v-1024h1024v1024h-1024zM981.333-42.666h-938.667v938.667h938.667v-938.667z" />
<glyph unicode="&#xe622;" glyph-name="rss2" data-tags="rss2" d="M0 938.667v-1024h1024v1024h-1024zM241.536 85.334c-58.923 0-106.667 47.744-106.667 106.667s47.744 106.667 106.667 106.667c58.88 0 106.667-47.744 106.667-106.667s-47.787-106.667-106.667-106.667zM518.869 85.334c0 212.096-134.869 384-348.203 384v85.333c256 0 433.493-210.133 433.493-469.333h-85.291zM732.16 85.334c0 329.984-262.827 597.333-561.493 597.333v85.333c341.333 0 646.827-305.536 646.827-682.667h-85.333z" />
<glyph unicode="&#xe623;" glyph-name="mosaico" data-tags="mosaico" d="M42.667 896h256v-256h-256v256zM725.333 896h256v-256h-256v256zM384 896h256v-256h-256v256zM42.667 554.667h256v-256h-256v256zM725.333 554.667h256v-256h-256v256zM384 554.667h256v-256h-256v256zM42.667 213.334h256v-256h-256v256zM725.333 213.334h256v-256h-256v256zM384 213.334h256v-256h-256v256z" />
<glyph unicode="&#xe624;" glyph-name="rss3" data-tags="rss3" d="M853.333 42.667c0 400.811-324.565 725.333-725.333 725.333v42.667c424.277 0 768-343.723 768-768h-42.667zM128 597.334c306.219 0 554.667-248.32 554.667-554.667h42.667c0 329.941-267.349 597.333-597.333 597.333v-42.667zM512 42.667c0 212.309-171.776 384-384 384v42.667c235.605 0 426.667-191.061 426.667-426.667h-42.667zM213.333 42.667c47.104 0 85.333 38.229 85.333 85.376 0 47.061-38.229 85.291-85.333 85.291-47.147 0-85.333-38.229-85.333-85.291 0-47.147 38.229-85.376 85.333-85.376z" />
<glyph unicode="&#xe625;" glyph-name="sobre" data-tags="sobre" d="M0 810.667v-768h1024v768h-1024zM947.669 768l-435.669-356.437-435.627 356.437h871.296zM42.667 85.334v655.104l469.333-384 469.333 384v-655.104h-938.667z" />
<glyph unicode="&#xe800;" glyph-name="tumblr" data-tags="tumblr" d="M512 768v-170.667h128v-85.333h-128v-239.275c0 0 9.557-51.968 59.52-63.275 23.339-5.333 74.112 10.539 74.112 10.539l33.195-102.912c0 0-130.347-71.125-258.731 0-78.763 43.605-78.763 149.931-78.763 149.931v244.992h-42.667v59.733c0 0 50.816 18.944 93.056 80.512 42.155 61.568 36.992 115.755 36.992 115.755h83.285z" />
<glyph unicode="&#xe801;" glyph-name="linkedin" data-tags="linkedin" d="M312.789 653.781c0-37.973-27.819-68.523-73.899-68.523-43.904 0-71.637 30.549-71.637 68.523 0 38.869 28.757 68.565 73.301 68.565 44.416 0 71.296-29.696 72.235-68.565zM170.709 531.029h137.344v-442.283h-137.344v442.283zM390.443 389.76c0 55.381-1.92 101.419-3.797 141.269h119.381l6.571-61.824h2.517c18.091 29.099 62.507 71.509 136.533 71.509 90.027 0 158.251-60.672 158.251-190.805v-261.163h-137.6v244.907c0 57.173-19.755 95.829-69.547 95.829-37.888 0-60.8-25.941-70.4-51.328-3.883-9.259-4.651-21.931-4.651-34.517v-254.891h-137.259v301.013z" />
<glyph unicode="&#xe802;" glyph-name="spotify" data-tags="spotify" d="M512 810.667c-212.096 0-384-171.904-384-384s171.904-384 384-384 384 171.904 384 384c0 212.096-171.904 384-384 384zM685.483 256.171c-6.485-11.264-21.163-14.933-32.811-7.936-89.771 55.083-203.307 67.328-336.853 36.821-12.928-2.603-25.984 5.163-28.544 18.219-2.944 12.715 5.163 25.728 17.835 28.629 146.261 33.323 271.531 19.072 372.779-42.752 11.093-6.656 14.933-21.589 7.595-32.981zM732.629 363.435c-8.619-14.080-26.837-18.091-40.96-9.557-103.253 63.317-260.437 81.579-382.549 44.8-15.829-5.077-32.683 3.968-37.461 19.883-4.736 15.787 4.181 32.469 20.224 37.419 139.349 41.941 312.576 21.419 430.848-51.029 13.995-8.789 18.432-27.179 9.899-41.515zM736.512 472.235c-123.179 73.472-327.296 80.299-445.653 44.587-18.944-6.101-38.827 4.907-44.544 23.851-5.76 18.773 4.992 38.869 23.851 44.757 135.296 41.131 360.96 33.109 503.083-51.541 17.365-10.069 22.528-32.043 12.885-48.896-10.197-17.195-32.299-22.869-49.621-12.757z" />
<glyph unicode="&#xe803;" glyph-name="comentario2" data-tags="comentario2" d="M810.667 725.334v-384h-316.331l-153.003-153.003v153.003h-128v384h597.333zM853.333 768h-682.667v-469.333h128v-213.333l213.333 213.333h341.333v469.333z" />
<glyph unicode="&#xe804;" glyph-name="comentario3" data-tags="comentario3" d="M840.533 755.2v-443.733h-333.867l-3.712-3.755-191.488-191.445v195.2h-128v443.733h657.067zM853.333 768h-682.667v-469.333h128v-213.333l213.333 213.333h341.333v469.333z" />
<glyph unicode="&#xe901;" glyph-name="galeria3" data-tags="galeria3" d="M0-28.444h896v768h-896v-768zM42.667 696.889h810.667v-682.667h-810.667v682.667zM981.333 867.556h-853.333v-42.667h853.333v-725.333h42.667v768z" />
</font>
</defs>
</svg>
