<svg xmlns="http://www.w3.org/2000/svg" xmlns:xlink="http://www.w3.org/1999/xlink" width="168.253" height="168.253" viewBox="0 0 168.253 168.253">
  <defs>
    <linearGradient id="linear-gradient" x1="1.045" y1="0.032" x2="-0.105" y2="0.838" gradientUnits="objectBoundingBox">
      <stop offset="0" stop-color="#b37e16"/>
      <stop offset="0.379" stop-color="#f0de7a"/>
      <stop offset="1" stop-color="#b37e16"/>
    </linearGradient>
  </defs>
  <path id="Polygon_2" data-name="Polygon 2" d="M98.71,4.752a9,9,0,0,1,12.474,3.342l5.657,10.14a9,9,0,0,0,7.992,4.614l11.61-.171a9,9,0,0,1,9.131,9.131L145.4,43.42a9,9,0,0,0,4.614,7.992l10.14,5.657A9,9,0,0,1,163.5,69.543l-5.953,9.97a9,9,0,0,0,0,9.228l5.953,9.97a9,9,0,0,1-3.342,12.474l-10.14,5.657a9,9,0,0,0-4.614,7.992l.171,11.61a9,9,0,0,1-9.131,9.131l-11.61-.171a9,9,0,0,0-7.992,4.614l-5.657,10.14A9,9,0,0,1,98.71,163.5l-9.97-5.953a9,9,0,0,0-9.228,0l-9.97,5.953a9,9,0,0,1-12.474-3.342l-5.657-10.14A9,9,0,0,0,43.42,145.4l-11.61.171a9,9,0,0,1-9.131-9.131l.171-11.61a9,9,0,0,0-4.614-7.992l-10.14-5.657A9,9,0,0,1,4.752,98.71L10.7,88.74a9,9,0,0,0,0-9.228l-5.953-9.97A9,9,0,0,1,8.094,57.069l10.14-5.657a9,9,0,0,0,4.614-7.992l-.171-11.61a9,9,0,0,1,9.131-9.131l11.61.171a9,9,0,0,0,7.992-4.614l5.657-10.14A9,9,0,0,1,69.543,4.752l9.97,5.953a9,9,0,0,0,9.228,0Z" fill="url(#linear-gradient)"/>
</svg>
