<svg xmlns="http://www.w3.org/2000/svg" xmlns:xlink="http://www.w3.org/1999/xlink" width="67.882" height="67.882" viewBox="0 0 67.882 67.882"><defs><style>.a{fill:url(#a);}.b{fill:none;}.c,.d{stroke:none;}.d{fill:#000;}</style><linearGradient id="a" x1="1.138" y1="0.138" x2="-0.667" y2="0.333" gradientUnits="objectBoundingBox"><stop offset="0" stop-color="#b37e16"/><stop offset="0.405" stop-color="#f0de7a"/><stop offset="1" stop-color="#b37e16"/></linearGradient></defs><g transform="translate(-445.716 -2966.46)"><rect class="a" width="48" height="48" rx="10" transform="translate(479.657 2966.46) rotate(45)"/><g transform="translate(80.449 -5512.602)"><g class="b" transform="translate(385.946 8500.388)"><path class="c" d="M7.484,0a23.636,23.636,0,0,0,3,6.41,11.95,11.95,0,0,0,4.483,3.569,13.506,13.506,0,0,0-4.483,3.729,23.664,23.664,0,0,0-3,6.25,26.41,26.41,0,0,0-3.137-6.25A13.8,13.8,0,0,0,0,9.979,12.1,12.1,0,0,0,4.347,6.41,26.2,26.2,0,0,0,7.484,0Z"/><path class="d" d="M 7.418450355529785 7.238343238830566 C 7.204548835754395 7.572680473327637 6.980597496032715 7.898712158203125 6.74717903137207 8.209939002990723 C 6.220968246459961 8.911555290222168 5.659785270690918 9.522274017333984 5.103452682495117 10.04870414733887 C 5.658417701721191 10.58672142028809 6.220241546630859 11.2059211730957 6.747188568115234 11.90851879119873 C 6.979838848114014 12.21872138977051 7.203744888305664 12.54368686676025 7.417866230010986 12.8763370513916 C 7.629337310791016 12.54484367370605 7.852102756500244 12.22018432617188 8.085859298706055 11.90850925445557 C 8.612571716308594 11.20622158050537 9.18079948425293 10.58731365203857 9.74675178527832 10.04903411865234 C 9.179751396179199 9.522311210632324 8.611994743347168 8.911456108093262 8.085859298706055 8.209939002990723 C 7.852283954620361 7.898506164550781 7.629745960235596 7.572541236877441 7.418450355529785 7.238343238830566 M 7.484328746795654 -1.9073486328125e-06 C 7.484328746795654 -1.9073486328125e-06 8.614768981933594 3.915149688720703 10.48585891723633 6.409938812255859 C 12.3569393157959 8.904718399047852 14.96865844726563 9.979128837585449 14.96865844726563 9.979128837585449 C 14.96865844726563 9.979128837585449 12.3569393157959 11.21372890472412 10.48585891723633 13.70850944519043 C 8.614768981933594 16.20329856872559 7.484328746795654 19.95825958251953 7.484328746795654 19.95825958251953 C 7.484328746795654 19.95825958251953 6.218258857727051 16.20329856872559 4.34717845916748 13.70850944519043 C 2.476099014282227 11.21372890472412 -9.5367431640625e-07 9.979128837585449 -9.5367431640625e-07 9.979128837585449 C -9.5367431640625e-07 9.979128837585449 2.476099014282227 8.904718399047852 4.34717845916748 6.409938812255859 C 6.218258857727051 3.915149688720703 7.484328746795654 -1.9073486328125e-06 7.484328746795654 -1.9073486328125e-06 Z"/></g><g class="b" transform="translate(400.915 8515.356)"><path class="c" d="M4.7,0A14.842,14.842,0,0,0,6.585,4.025,7.5,7.5,0,0,0,9.4,6.266,8.481,8.481,0,0,0,6.585,8.608,14.86,14.86,0,0,0,4.7,12.533,16.584,16.584,0,0,0,2.73,8.608,8.663,8.663,0,0,0,0,6.266,7.6,7.6,0,0,0,2.73,4.025,16.449,16.449,0,0,0,4.7,0Z"/><path class="d" d="M 4.699834823608398 1.9073486328125e-06 C 4.699834823608398 1.9073486328125e-06 5.40970516204834 2.458541870117188 6.584664821624756 4.025161743164063 C 7.75962495803833 5.591781616210938 9.399664878845215 6.266461849212646 9.399664878845215 6.266461849212646 C 9.399664878845215 6.266461849212646 7.75962495803833 7.041741847991943 6.584664821624756 8.608351707458496 C 5.40970516204834 10.17497158050537 4.699834823608398 12.53292179107666 4.699834823608398 12.53292179107666 C 4.699834823608398 12.53292179107666 3.904794692993164 10.17497158050537 2.72984504699707 8.608351707458496 C 1.554884910583496 7.041741847991943 4.76837158203125e-06 6.266461849212646 4.76837158203125e-06 6.266461849212646 C 4.76837158203125e-06 6.266461849212646 1.554884910583496 5.591772079467773 2.72984504699707 4.025161743164063 C 3.904794692993164 2.458541870117188 4.699834823608398 1.9073486328125e-06 4.699834823608398 1.9073486328125e-06 Z"/></g><g class="b" transform="translate(407.964 8504.1)"><path class="c" d="M2.35,0a7.421,7.421,0,0,0,.942,2.013A3.752,3.752,0,0,0,4.7,3.133,4.241,4.241,0,0,0,3.292,4.3,7.43,7.43,0,0,0,2.35,6.267,8.293,8.293,0,0,0,1.365,4.3,4.332,4.332,0,0,0,0,3.133,3.8,3.8,0,0,0,1.365,2.013,8.225,8.225,0,0,0,2.35,0Z"/><path class="d" d="M 2.350018739700317 -3.814697265625e-06 C 2.350018739700317 -3.814697265625e-06 2.704968690872192 1.229326248168945 3.292478561401367 2.01266622543335 C 3.879978656768799 2.796006202697754 4.700038909912109 3.133366107940674 4.700038909912109 3.133366107940674 C 4.700038909912109 3.133366107940674 3.879978656768799 3.521016120910645 3.292478561401367 4.304366111755371 C 2.704968690872192 5.087706089019775 2.350018739700317 6.266736030578613 2.350018739700317 6.266736030578613 C 2.350018739700317 6.266736030578613 1.952488660812378 5.087706089019775 1.364978790283203 4.304366111755371 C 0.7774786949157715 3.521016120910645 -1.430511474609375e-06 3.133366107940674 -1.430511474609375e-06 3.133366107940674 C -1.430511474609375e-06 3.133366107940674 0.7774786949157715 2.796006202697754 1.364978790283203 2.01266622543335 C 1.952488660812378 1.229326248168945 2.350018739700317 -3.814697265625e-06 2.350018739700317 -3.814697265625e-06 Z"/></g></g></g></svg>