<svg id="Layer_1" data-name="Layer 1" xmlns="http://www.w3.org/2000/svg" viewBox="0 0 50.68 8.73"><defs><style>.cls-1{fill:#2a3a76;}</style></defs><title>stars</title><path class="cls-1" d="M44,9l2.46-1.48L48.94,9a.32.32,0,0,0,.47-.34l-.65-2.8L50.92,4a.32.32,0,0,0-.18-.56l-2.86-.25L46.74.53a.32.32,0,0,0-.58,0L45,3.17l-2.86.26A.32.32,0,0,0,42,4l2.17,1.89-.63,2.8A.32.32,0,0,0,44,9Z" transform="translate(-0.35 -0.33)"/><path class="cls-1" d="M33.62,9l2.46-1.48L38.55,9A.32.32,0,0,0,39,8.67l-.65-2.8L40.54,4a.32.32,0,0,0-.18-.56l-2.86-.25L36.36.53a.32.32,0,0,0-.58,0L34.65,3.17l-2.86.26a.32.32,0,0,0-.18.56l2.17,1.89-.63,2.8A.32.32,0,0,0,33.62,9Z" transform="translate(-0.35 -0.33)"/><path class="cls-1" d="M23.23,9,25.7,7.54,28.17,9a.32.32,0,0,0,.47-.34L28,5.87,30.15,4A.32.32,0,0,0,30,3.42l-2.86-.25L26,.53a.32.32,0,0,0-.58,0L24.27,3.17l-2.86.26a.32.32,0,0,0-.18.56l2.17,1.89-.63,2.8A.32.32,0,0,0,23.23,9Z" transform="translate(-0.35 -0.33)"/><path class="cls-1" d="M12.85,9l2.46-1.48L17.78,9a.32.32,0,0,0,.47-.34l-.64-2.8L19.77,4a.32.32,0,0,0-.18-.56l-2.86-.25L15.59.53a.32.32,0,0,0-.58,0L13.88,3.17,11,3.43a.32.32,0,0,0-.18.56L13,5.88l-.63,2.8A.32.32,0,0,0,12.85,9Z" transform="translate(-0.35 -0.33)"/><path class="cls-1" d="M2.47,9,4.93,7.54,7.4,9a.32.32,0,0,0,.47-.34l-.65-2.8L9.38,4a.32.32,0,0,0-.18-.56L6.34,3.17,5.21.53a.32.32,0,0,0-.58,0L3.5,3.17.64,3.43A.32.32,0,0,0,.46,4L2.63,5.88,2,8.68A.32.32,0,0,0,2.47,9Z" transform="translate(-0.35 -0.33)"/></svg>