<?xml version="1.0" encoding="utf-8"?>
<!-- Generator: Adobe Illustrator 24.0.0, SVG Export Plug-In . SVG Version: 6.00 Build 0)  -->
<svg version="1.1" id="Layer_1" xmlns="http://www.w3.org/2000/svg" xmlns:xlink="http://www.w3.org/1999/xlink" x="0px" y="0px"
	 viewBox="0 0 410 162" style="enable-background:new 0 0 410 162;" xml:space="preserve">
<style type="text/css">
	.st0{fill:#3B4456;}
	.st1{fill:#E60004;}
	.st2{fill:#E7684F;}
	.st3{fill:#9EC842;}
</style>
<g>
	<g>
		<g>
			<path class="st0" d="M120.8,75.6c0-1.1,1-1.7,2.5-1.9c0,0,0,0,0,0c3.7,0,6.4,3.2,6.4,3.2l2.6-3.5c0,0-2.8-3.6-8.3-3.9v0
				c-0.1,0-0.2,0-0.3,0c-0.1,0-0.2,0-0.2,0c-4.7,0-8.3,2.5-8.3,6.5c-0.1,7.2,11.4,6.6,11.4,10c0,1.1-1,1.7-2.5,1.9c0,0,0,0,0,0
				c-3.7,0-6.4-3.2-6.4-3.2l-2.6,3.5c0,0,2.8,3.6,8.3,3.9v0c0.1,0,0.2,0,0.3,0c0.1,0,0.2,0,0.2,0c4.7,0,8.3-2.5,8.3-6.5
				C132.3,78.3,120.8,78.9,120.8,75.6z"/>
			<path class="st0" d="M133.7,88.7l10-12c1-1.2,1.8-2,1.8-2v-0.1c0,0-0.6,0.1-2,0.1l-3.9,0c-0.6,0-0.9,0.3-0.9,0.9l0,1.2l-4.8,0
				l0-3.8c0-2,0.9-2.9,2.9-2.8l15.8,0.1l0,2.9l-10,12c-1,1.2-1.8,2-1.8,2v0.1c0,0,0.6-0.1,2-0.1l4.7,0c0.6,0,0.9-0.3,0.9-0.9l0-1.2
				l4.8,0l0,3.8c0,2-0.9,2.9-2.8,2.8l-16.7-0.1L133.7,88.7z"/>
			<path class="st0" d="M165.1,69.8c6.2,0,9.5,4.6,9.4,10.3c0,0.6-0.1,2-0.1,2L159.6,82c0.4,3.8,3.2,5.8,6.4,5.8c3.5,0,6-2.4,6-2.4
				l2.2,3.7c0,0-3.3,3.2-8.7,3.2c-7.1-0.1-11.5-5.2-11.5-11.3C154.1,74.4,158.6,69.8,165.1,69.8z M169.1,78.3
				c-0.1-2.6-1.8-4.4-4-4.4c-2.7,0-4.7,1.6-5.3,4.3L169.1,78.3z"/>
			<path class="st0" d="M178.7,75.9c0-0.6-0.3-0.9-0.9-0.9l-1.7,0l0-4.6l4.9,0c1.9,0,2.9,0.8,2.8,2.6l0,1.3c0,0.8-0.1,1.4-0.1,1.4
				h0.1c1-3.1,3.6-5.5,6.9-5.5c0.5,0,1,0.1,1,0.1l0,5.3c0,0-0.5-0.1-1.3-0.1c-2.3,0-4.9,1.3-5.9,4.5c-0.3,1-0.5,2.2-0.5,3.5
				l-0.1,8.5l-5.3,0L178.7,75.9z"/>
			<path class="st0" d="M203,70.1c6.2,0,9.5,4.6,9.4,10.3c0,0.6-0.1,2-0.1,2l-14.8-0.1c0.4,3.8,3.2,5.8,6.4,5.8c3.5,0,6-2.4,6-2.4
				l2.2,3.7c0,0-3.3,3.2-8.7,3.2c-7.1-0.1-11.5-5.2-11.5-11.3C192.1,74.6,196.6,70,203,70.1z M207,78.6c-0.1-2.6-1.8-4.4-4-4.4
				c-2.7,0-4.7,1.6-5.3,4.3L207,78.6z"/>
			<path class="st0" d="M216.7,75l-2.8,0l0-4.3l2.9,0l0-5.9l5.2,0l0,5.9l4.9,0l0,4.3l-4.9,0l-0.1,8.7c0,3.5,2.8,4.1,4.2,4.1
				c0.6,0,1-0.1,1-0.1l0,4.7c0,0-0.7,0.1-1.6,0.1c-3,0-8.9-0.9-8.9-8.2L216.7,75z"/>
			<path class="st0" d="M230.9,67.8c0-0.6-0.3-0.9-0.9-0.9l-1.7,0l0-4.6l5.1,0c2,0,2.9,0.9,2.8,2.9l-0.2,21.6c0,0.6,0.3,0.9,0.9,0.9
				l1.6,0l0,4.5l-5.1,0c-2,0-2.9-0.9-2.8-2.9L230.9,67.8z"/>
			<path class="st0" d="M250.9,70.4c6.2,0,9.5,4.6,9.5,10.3c0,0.6-0.1,2-0.1,2l-14.8-0.1c0.4,3.8,3.2,5.8,6.4,5.8c3.5,0,6-2.4,6-2.4
				l2.2,3.7c0,0-3.3,3.2-8.7,3.2c-7.1-0.1-11.5-5.2-11.5-11.3C240,75,244.5,70.4,250.9,70.4z M254.9,78.9c-0.1-2.6-1.8-4.4-4-4.4
				c-2.7,0-4.7,1.6-5.3,4.3L254.9,78.9z"/>
			<path class="st0" d="M264.5,68.1c0-0.6-0.3-0.9-0.9-0.9l-1.7,0l0-4.6l5.1,0c2,0,2.9,0.5,2.8,2.5l-0.1,13.6l1.6,0
				c0.7,0,1.6-0.1,2-0.8l4.4-6.8l5.9,0l-5.5,8.1c-0.9,1.3-1.6,1.7-1.6,1.7l0,0.1c0,0,0.8,0.3,1.5,1.7l2.4,4.7
				c0.3,0.6,0.7,0.8,1.8,0.8l1.4,0l0,4.5l-4,0c-1.8,0-2.5-0.3-3.4-1.9l-3.5-6.8c-0.4-0.8-1.3-0.8-2-0.8l-1.2,0l-0.1,9.4l-5.4,0
				L264.5,68.1z"/>
		</g>
	</g>
	<g>
		<g>
			<path class="st0" d="M293.4,104.7c0-1.1,1-1.7,2.5-1.9c0,0,0,0,0,0c3.7,0,6.4,3.2,6.4,3.2l2.6-3.5c0,0-2.8-3.6-8.3-3.9v0
				c-0.1,0-0.2,0-0.3,0c-0.1,0-0.2,0-0.2,0c-4.7,0-8.3,2.5-8.3,6.5c-0.1,7.2,11.4,6.6,11.3,10c0,1.1-1,1.7-2.5,1.9c0,0,0,0,0,0
				c-3.7,0-6.4-3.2-6.4-3.2l-2.6,3.5c0,0,2.8,3.6,8.3,3.9v0c0.1,0,0.2,0,0.3,0c0.1,0,0.2,0,0.2,0c4.7,0,8.3-2.5,8.3-6.5
				C304.8,107.5,293.3,108.1,293.4,104.7z"/>
			<path class="st0" d="M103.1,103.2c0-0.6-0.3-0.9-0.9-0.9l-1.7,0l0-4.6l4.9,0c1.9,0,2.8,0.9,2.8,2.4l0,0.6c0,0.5,0,0.9,0,0.9h0.1
				c1-2.1,3.6-4.4,7-4.4c3.2,0,5.3,1.6,6.3,4.5l0.1,0c1.2-2.3,4-4.4,7.4-4.4c4.5,0,7,2.6,7,8.2l-0.1,8.4c0,0.6,0.3,0.9,0.9,0.9
				l1.6,0l0,4.5l-5.1,0c-2,0-2.9-0.9-2.8-2.9l0.1-9.9c0-2.4-0.4-4.3-2.9-4.3c-2.7,0-4.6,2.2-5.2,4.9c-0.3,0.8-0.4,1.7-0.4,2.7
				l-0.1,9.4l-5.3,0l0.1-12.8c0-2.3-0.3-4.3-2.9-4.3c-2.7,0-4.5,2.2-5.2,4.9c-0.2,0.8-0.3,1.7-0.4,2.7l-0.1,9.4l-5.3,0L103.1,103.2z
				"/>
			<path class="st0" d="M152.5,106.1l0.7,0l0-0.2c0-3.1-1.2-4.2-3.9-4.2c-1,0-2.9,0.2-2.9,1.4l0,1.1l-5,0l0-2.3c0-4,5.7-4.4,7.9-4.4
				c7.2,0.1,9.2,3.8,9.2,8.6l-0.1,8c0,0.6,0.3,0.9,0.9,0.9l1.7,0l0,4.5l-4.8,0c-2,0-2.7-1.1-2.7-2.4c0-0.5,0.1-0.9,0.1-0.9l-0.1,0
				c0,0-1.7,3.8-6.5,3.8c-3.8,0-7.3-2.5-7.3-6.8C139.7,106.6,149,106.1,152.5,106.1z M148.2,115.9c2.9,0,4.9-3,4.9-5.6l0-0.5l-0.9,0
				c-2.8,0-7.2,0.3-7.2,3.3C145,114.5,146.1,115.9,148.2,115.9z"/>
			<path class="st0" d="M171.8,97.7c5,0,6.6,3.1,6.6,3.1l0.1,0c0,0,0-0.3,0-0.6c0-1,0.7-2,2.4-2l5,0l0,4.6l-1.6,0
				c-0.5,0-0.9,0.3-0.9,0.8l-0.1,14.8c-0.1,7.4-5.8,10.1-11.4,10.1c-2.7,0-5.6-0.8-7.6-1.9l1.7-4.2c0,0,2.6,1.5,5.9,1.5
				c3.2,0,6.1-1.4,6.1-5.2l0-1c0-0.5,0-1.1,0-1.1h-0.1c-1.3,1.8-3.1,2.8-6,2.7c-6.2,0-9.6-5-9.6-10.9
				C162.2,102.5,165.6,97.7,171.8,97.7z M178,108.5c0-4.9-2.4-6.2-5.3-6.2c-3.3,0-5,2.3-5.1,6c0,3.8,1.8,6.5,5.3,6.6
				C175.5,114.8,177.9,113.4,178,108.5z"/>
			<path class="st0" d="M190.1,124.2c1.5,0,2.8-0.9,3.6-2.7l0.7-1.6l-7-16.2c-0.3-0.6-0.5-0.8-1.1-0.8l-0.6,0l0-4.6l3.5,0
				c1.5,0,2.3,0.6,2.8,2l4.1,10.8c0.4,1.1,0.7,2.9,0.7,2.9l0.1,0c0,0,0.3-1.8,0.7-2.9l3.7-10.7c0.5-1.5,1.4-2,2.9-2l3.6,0l0,4.6
				l-0.6,0c-0.6,0-1,0.1-1.2,0.8l-7.9,19.4c-1.5,3.9-4.6,5.6-7.8,5.5c-3.4,0-5.4-2.2-5.4-2.2l2.1-3.8
				C187,122.7,188.3,124.2,190.1,124.2z"/>
			<path class="st0" d="M221.1,106.6l0.7,0v-0.2c0-3.1-1.2-4.2-3.9-4.2c-1,0-2.9,0.2-2.9,1.4l0,1.1l-5,0l0-2.3c0-4,5.7-4.4,7.9-4.4
				c7.2,0.1,9.2,3.8,9.2,8.6l-0.1,8c0,0.6,0.3,0.9,0.9,0.9l1.7,0l0,4.5l-4.8,0c-2,0-2.7-1.1-2.7-2.4c0-0.6,0.1-0.9,0.1-0.9l-0.1,0
				c0,0-1.7,3.8-6.5,3.8c-3.8,0-7.3-2.5-7.3-6.8C208.3,107.1,217.6,106.6,221.1,106.6z M216.9,116.4c2.9,0,4.9-3,4.9-5.6l0-0.5
				l-0.9,0c-2.8,0-7.2,0.3-7.2,3.3C213.7,115,214.7,116.4,216.9,116.4z"/>
			<path class="st0" d="M233,104.2c0-0.6-0.3-0.9-0.9-0.9l-1.7,0l0-4.6l4.9,0c1.9,0,2.9,0.8,2.8,2.6l0,1.3c0,0.8-0.1,1.4-0.1,1.4
				h0.1c1-3.1,3.6-5.5,6.9-5.5c0.5,0,1,0.1,1,0.1l0,5.3c0,0-0.5-0.1-1.3-0.1c-2.3,0-4.9,1.3-5.9,4.5c-0.3,1.1-0.5,2.2-0.5,3.5
				l-0.1,8.5l-5.3,0L233,104.2z"/>
			<path class="st0" d="M258.2,98.4c6.6,0,11.8,4.8,11.7,11.3c-0.1,6.6-5.3,11.2-11.9,11.2c-6.5,0-11.7-4.7-11.7-11.3
				C246.4,103,251.7,98.3,258.2,98.4z M258.1,116.3c3.5,0,6.4-2.7,6.5-6.7c0-4-2.9-6.7-6.4-6.8c-3.5,0-6.4,2.7-6.4,6.7
				C251.7,113.6,254.6,116.3,258.1,116.3z"/>
			<path class="st0" d="M273.8,104.5c0-0.6-0.3-0.9-0.9-0.9l-1.7,0l0-4.6l4.9,0c1.9,0,2.9,0.8,2.8,2.6l0,1.3c0,0.8-0.1,1.3-0.1,1.3
				h0.1c1-3.1,3.6-5.5,6.9-5.5c0.5,0,1,0.1,1,0.1l0,5.3c0,0-0.6-0.1-1.3-0.1c-2.3,0-4.9,1.3-5.9,4.5c-0.3,1.1-0.5,2.2-0.5,3.5
				l-0.1,8.5l-5.3,0L273.8,104.5z"/>
			<path class="st0" d="M306.3,117.9l10-12c1-1.2,1.8-2,1.8-2l0-0.1c0,0-0.6,0.1-2,0.1l-3.9,0c-0.6,0-0.9,0.3-0.9,0.9l0,1.2l-4.9,0
				l0-3.8c0-2,0.9-2.9,2.9-2.8l15.8,0.1l0,2.9l-10,12c-1,1.2-1.8,2-1.8,2v0.1c0,0,0.6-0.1,2-0.1l4.7,0c0.6,0,0.9-0.3,0.9-0.9l0-1.2
				l4.8,0l0,3.8c0,2-0.9,2.9-2.8,2.8l-16.7-0.1L306.3,117.9z"/>
			<path class="st0" d="M339.9,107.5l0.7,0l0-0.2c0-3.1-1.2-4.2-3.9-4.2c-1,0-2.9,0.2-2.9,1.4l0,1.1l-5,0l0-2.3c0-4,5.7-4.4,7.9-4.4
				c7.2,0.1,9.2,3.8,9.2,8.6l-0.1,8c0,0.6,0.3,0.9,0.9,0.9l1.7,0l0,4.5l-4.8,0c-2,0-2.7-1.1-2.7-2.4c0-0.5,0-0.9,0-0.9h-0.1
				c0,0-1.7,3.8-6.5,3.7c-3.8,0-7.3-2.5-7.3-6.8C327.1,107.9,336.4,107.5,339.9,107.5z M335.7,117.3c2.9,0,4.9-3,4.9-5.6l0-0.5
				l-0.9,0c-2.8,0-7.2,0.3-7.2,3.3C332.4,115.9,333.5,117.3,335.7,117.3z M338.4,91.1l5.1,0l-4.5,5.7l-3.9,0L338.4,91.1z"/>
			<path class="st0" d="M359.2,99.1c5,0,6.6,3.1,6.6,3.1l0.1,0c0,0,0-0.3,0-0.5c0-1,0.7-2,2.4-2l5,0l0,4.6l-1.6,0
				c-0.5,0-0.9,0.3-0.9,0.8l-0.1,14.8c-0.1,7.4-5.8,10.1-11.4,10.1c-2.7,0-5.6-0.8-7.6-1.9l1.7-4.2c0,0,2.6,1.5,5.9,1.5
				c3.2,0,6.1-1.4,6.1-5.2l0-1c0-0.5,0-1.1,0-1.1l-0.1,0c-1.3,1.8-3.1,2.8-6,2.7c-6.2,0-9.6-5-9.6-10.9
				C349.6,103.8,353,99.1,359.2,99.1z M365.4,109.9c0-4.9-2.4-6.2-5.3-6.2c-3.2,0-5,2.3-5.1,6c0,3.8,1.8,6.5,5.3,6.6
				C362.9,116.2,365.4,114.8,365.4,109.9z"/>
		</g>
	</g>
	<g>
		<g>
			<path class="st1" d="M45.3,45.6l-0.1,0.2C45.3,45.8,45.3,45.8,45.3,45.6L45.3,45.6L45.3,45.6z"/>
			<path class="st1" d="M45.2,45.9C45.2,45.9,45.2,45.9,45.2,45.9L45.2,45.9C45.2,45.9,45.2,45.9,45.2,45.9z"/>
			<path class="st2" d="M62.1,109.5c-17.2-8.1-39.1-20.8-46.2-36.7C9,57.1,16.7,48.7,16.7,48.7C25.5,38,38,40.6,45.3,45.9l0,0l0,0
				c0,0,0,0,0,0l0,0l0,0l0.1-0.2c0,0,0,0.1-0.1,0.1l0.1-0.2l0,0l0,0.1c3.8-8.1,13.6-16.6,26.3-11.6c0,0,10.9,3.5,12.5,20.6
				c0.1,1.3,0.2,2.6,0.1,4c4.1-0.3,8.8-2,12.4-5.1c0-1-0.1-2-0.2-3c-0.1-0.6-0.2-1.2-0.3-1.7c0-0.1,0-0.2-0.1-0.3
				c-0.1-0.4-0.2-0.9-0.2-1.3c0-0.2-0.1-0.3-0.1-0.5c-0.1-0.4-0.2-0.7-0.3-1.1c0-0.2-0.1-0.4-0.2-0.6c-0.1-0.3-0.2-0.7-0.3-1
				c-0.1-0.2-0.1-0.4-0.2-0.6c-0.1-0.3-0.2-0.7-0.3-1c-0.1-0.2-0.1-0.4-0.2-0.6c-0.2-0.4-0.3-0.9-0.5-1.3c-0.1-0.2-0.2-0.4-0.3-0.6
				c-0.1-0.3-0.2-0.6-0.4-0.9h0c-0.9-2-2-4-3.2-5.8l0,0c0,0,0,0,0,0c-0.8-1.1-1.6-2.2-2.5-3.3c-0.1-0.1-0.1-0.2-0.2-0.2
				c-0.4-0.4-0.8-0.9-1.2-1.3c-0.1-0.1-0.1-0.1-0.2-0.2c-0.9-0.9-1.9-1.8-3-2.6c-0.1-0.1-0.2-0.2-0.3-0.2c-0.4-0.3-0.9-0.6-1.3-1
				c-0.1-0.1-0.2-0.1-0.3-0.2c-0.5-0.4-1.1-0.7-1.6-1c0,0,0,0,0,0c-0.5-0.3-1.1-0.6-1.6-0.9c-0.1-0.1-0.3-0.1-0.4-0.2
				c-0.4-0.2-0.9-0.4-1.3-0.6c-0.1-0.1-0.3-0.1-0.4-0.2c-0.6-0.2-1.2-0.5-1.7-0.6c0,0-0.1,0-0.1,0c-0.5-0.2-1.1-0.3-1.6-0.5
				c-0.2,0-0.4-0.1-0.6-0.1c-0.4-0.1-0.9-0.2-1.3-0.3c-0.2,0-0.4-0.1-0.6-0.1c-0.6-0.1-1.2-0.2-1.8-0.2c-0.1,0-0.1,0-0.2,0
				c-0.6-0.1-1.1-0.1-1.7-0.1c-0.2,0-0.4,0-0.6,0c-0.4,0-0.9,0-1.3,0c-0.2,0-0.4,0-0.6,0c-0.6,0-1.2,0.1-1.8,0.2c0,0-0.1,0-0.1,0
				c-2.4,0.3-4.7,1-6.9,1.9c-3.6,1.5-6.5,3.7-9.2,6.6c0,0-1.8,2-3.5,4.8c-2.8-1.5-5.2-2.3-5.2-2.3c-3.7-1.1-7.4-1.7-11.2-1.2
				c-2.3,0.3-4.6,0.8-6.9,1.7c0,0-0.1,0-0.1,0c-0.6,0.2-1.1,0.5-1.6,0.7c-0.2,0.1-0.4,0.2-0.5,0.3c-0.4,0.2-0.8,0.4-1.2,0.6
				c-0.2,0.1-0.4,0.2-0.5,0.3c-0.5,0.3-0.9,0.6-1.4,0.9c0,0-0.1,0.1-0.1,0.1c-0.5,0.4-1,0.7-1.5,1.1c-0.1,0.1-0.3,0.2-0.4,0.4
				c-0.3,0.3-0.7,0.6-1,0.9c-0.1,0.1-0.3,0.3-0.4,0.4c-0.4,0.4-0.8,0.8-1.2,1.2c0,0-0.1,0.1-0.1,0.1c-0.4,0.5-0.8,0.9-1.2,1.4
				c-0.1,0.1-0.2,0.2-0.3,0.4c-0.3,0.4-0.6,0.8-0.9,1.2c-0.1,0.1-0.2,0.3-0.3,0.4c-0.3,0.5-0.7,1-1,1.5c0,0,0,0,0,0
				c-0.3,0.6-0.6,1.1-0.9,1.7c0,0.1-0.1,0.2-0.1,0.3c-0.2,0.5-0.5,1-0.7,1.5c-0.1,0.1-0.1,0.2-0.2,0.4c-0.5,1.2-0.9,2.5-1.3,3.7
				c0,0.1,0,0.1-0.1,0.2c-0.2,0.6-0.3,1.2-0.4,1.7c0,0.1,0,0.2-0.1,0.3c-0.3,1.3-0.5,2.7-0.6,4.1c0,0,0,0,0,0.1l0,0
				c-0.2,2.2-0.2,4.4,0,6.6h0c0,0.3,0.1,0.6,0.1,0.9c0,0.2,0,0.4,0.1,0.7c0.1,0.5,0.1,0.9,0.2,1.4c0,0.2,0.1,0.4,0.1,0.6
				c0.1,0.4,0.1,0.7,0.2,1.1c0,0.2,0.1,0.4,0.1,0.6c0.1,0.3,0.2,0.7,0.3,1c0,0.2,0.1,0.4,0.2,0.6c0.1,0.4,0.2,0.7,0.3,1.1
				C1.9,71.6,2,71.8,2,72c0.1,0.4,0.3,0.8,0.4,1.3c0,0.1,0.1,0.2,0.1,0.3c0.2,0.5,0.4,1.1,0.6,1.6c11.3,27.4,56.1,43.3,63.6,47.1
				l0,0c0,0,0,0,0,0c1.1-1.4,3.7-4,6.9-7.6C71.3,113.6,64.4,110.5,62.1,109.5C62.1,109.5,62.1,109.5,62.1,109.5z M45.2,45.9
				C45.2,45.9,45.2,45.9,45.2,45.9L45.2,45.9C45.2,45.9,45.2,45.9,45.2,45.9z"/>
			<path class="st1" d="M87,78.5C87,78.5,87,78.5,87,78.5c0.1,0.2,0.2,0.3,0.3,0.5L87,78.5z"/>
			<path class="st3" d="M73.7,114.7L73.7,114.7c0,0-0.9-6.1-4.3-14.2c4.7,0.9,10.4,1.5,16.7,1.3c3.1-2.7,6.6-7.9,7.8-10.3
				c0,0-2.2-6.4-6-11.8l0.1,0.2l0-0.1l-1-1.3c6-1.6,11.9-3.2,21.4-8.7l-3.6-2.7l5.6-8.6c-16.2,12.3-30.8,14-30.8,14
				c-3,3.2-3.6,7.3-3.6,7.8l0,0.1c0,0,5.8,5.2,8.8,11.8c-10.7,0.2-18.5-1.8-18.5-1.8C61.7,92.3,57,97,57,97s0,0,0,0l0,0
				c2.3,4.7,4,9,5.1,12.4C64.4,110.5,71.3,113.6,73.7,114.7C73.7,114.7,73.7,114.7,73.7,114.7C73.7,114.7,73.7,114.7,73.7,114.7z
				 M87,78.5l0.3,0.5C87.2,78.8,87.1,78.7,87,78.5C87,78.5,87,78.5,87,78.5z"/>
			<path class="st1" d="M45.6,45.6l-0.1,0.2C45.5,45.8,45.6,45.7,45.6,45.6L45.6,45.6L45.6,45.6z"/>
			<path class="st1" d="M45.5,45.9C45.5,45.9,45.5,45.8,45.5,45.9L45.5,45.9C45.5,45.9,45.5,45.9,45.5,45.9z"/>
		</g>
	</g>
	<g>
		<g>
			<path class="st0" d="M373.2,126.5l3.2,0l0,3.3l-3.2,0L373.2,126.5z"/>
			<path class="st0" d="M379.7,114.6c0-0.4-0.2-0.6-0.6-0.6l-1.1,0l0-2.8l3.2,0c1.2,0,1.8,0.6,1.8,1.8l0,4.7c0,0.7-0.1,1.1-0.1,1.1
				h0.1c0.6-1.3,2.3-2.6,4.6-2.6c3,0,4.7,1.6,4.7,5.1l0,5.2c0,0.4,0.2,0.6,0.6,0.6l1.1,0l0,2.8l-3.2,0c-1.2,0-1.8-0.5-1.8-1.8l0-6.1
				c0-1.6-0.4-2.7-2.1-2.7c-1.8,0-3.1,1.1-3.6,2.8c-0.2,0.5-0.2,1.1-0.2,1.7l0,6.1l-3.3,0L379.7,114.6z"/>
			<path class="st0" d="M395.9,119.9c0-0.4-0.2-0.6-0.6-0.6l-1.1,0l0-2.8l3.2,0c1.2,0,1.8,0.6,1.8,1.8l0,6.2c0,1.6,0.4,2.7,2.1,2.7
				c2.4,0,3.8-2.1,3.8-4.5l0-6.1l3.3,0l0,10c0,0.4,0.2,0.6,0.6,0.6l1.1,0l0,2.8l-3.1,0c-1.2,0-1.8-0.6-1.8-1.5l0-0.4
				c0-0.3,0-0.6,0-0.6h-0.1c-0.6,1.4-2.3,2.8-4.6,2.8c-2.9,0-4.6-1.5-4.6-5.1L395.9,119.9z"/>
		</g>
	</g>
</g>
</svg>
