<svg xmlns="http://www.w3.org/2000/svg" viewBox="0 0 512 512" width="18" height="18" fill="#ffffff"><path d="M225.47 0C101.15 0 0 101.15 0 225.47 0 349.8 101.15 450.95 225.47 450.95c124.33 0 225.48-101.15 225.48-225.48C450.95 101.15 349.8 0 225.47 0zm0 409.32c-101.37 0-183.84-82.47-183.84-183.85S124.1 41.63 225.47 41.63s183.85 82.47 183.85 183.84-82.47 183.85-183.85 183.85z"/><path d="M505.9 476.47L386.57 357.14a20.8 20.8 0 10-29.43 29.43L476.47 505.9a20.74 20.74 0 0014.72 6.1 20.8 20.8 0 0014.72-35.53z"/></svg>