<svg width="63" height="74" viewBox="0 0 63 74" fill="none" xmlns="http://www.w3.org/2000/svg">
<path d="M37.9154 5.12572V25.5146C40.7193 27.5971 42.5401 30.932 42.5401 34.6851C42.5401 40.9261 37.5058 46.0107 31.2853 46.0982C29.8666 48.9981 27.9098 51.0987 26.1368 52.5494C22.6404 55.41 19.1234 56.3912 18.9755 56.4315C17.8204 56.7466 16.6287 56.0654 16.3137 54.9104C15.9993 53.7576 16.6773 52.5682 17.8282 52.2505C17.9002 52.2299 20.7457 51.4016 23.5131 49.093C24.8687 47.9623 25.9735 46.6824 26.8246 45.2596C22.6538 43.558 19.7057 39.4605 19.7057 34.6853C19.7057 30.9323 21.5265 27.5972 24.3304 25.5148V6.33796C11.9773 10.7558 4.12646 23.8463 6.80256 37.441L1.46914 42.7744C-0.556323 44.7997 -0.479149 48.1205 1.64922 50.0531C3.10599 51.3752 4.54196 52.2625 5.93977 52.7065C6.42782 56.9817 8.48118 61.308 10.2393 64.3468C11.6101 66.7162 14.2522 68.0273 16.9701 67.687L21.2269 67.1552L22.0467 72.1761C22.2402 73.3618 23.3579 74.159 24.5355 73.9663L47.3113 73.9997C48.7116 73.9997 49.7539 72.6874 49.417 71.3187C49.3975 71.236 47.5272 62.9045 53.1507 51.5295C54.1642 49.4787 55.5317 47.1973 57.1054 44.932C59.7432 41.1324 62.1855 36.9921 62.1953 32.4627C62.2265 18.6708 51.2663 7.25047 37.9154 5.12572Z" fill="#028994"/>
<path d="M38.2045 34.6852C38.2045 30.7804 35.0277 27.6037 31.1229 27.6037C27.2181 27.6037 24.0414 30.7804 24.0414 34.6852C24.0414 37.6491 25.8724 40.1921 28.4621 41.2461C28.7895 39.9165 28.9551 38.4997 28.9551 36.9976C28.9551 35.8004 29.9257 34.8298 31.1229 34.8298C32.3201 34.8298 33.2907 35.8004 33.2907 36.9976C33.2907 38.6489 33.1235 40.1645 32.8329 41.5568C35.9141 40.7898 38.2045 38.0004 38.2045 34.6852Z" fill="#028994"/>
<path d="M28.6661 2.16782V23.537C30.2789 23.1818 31.9345 23.1746 33.5798 23.537V2.16782C33.5798 0.970605 32.6092 0 31.412 0H30.8339C29.6367 0 28.6661 0.970605 28.6661 2.16782Z" fill="#028994"/>
</svg>
