<svg xmlns="http://www.w3.org/2000/svg" xmlns:xlink="http://www.w3.org/1999/xlink" width="775.833" height="89.255" viewBox="0 0 775.833 89.255">
  <defs>
    <filter id="Rectangle_30" x="179.269" y="0" width="596.564" height="89.255" filterUnits="userSpaceOnUse">
      <feOffset dy="6" input="SourceAlpha"/>
      <feGaussianBlur stdDeviation="5.5" result="blur"/>
      <feFlood flood-opacity="0.161"/>
      <feComposite operator="in" in2="blur"/>
      <feComposite in="SourceGraphic"/>
    </filter>
    <clipPath id="clip-path">
      <rect id="Rectangle_35" data-name="Rectangle 35" width="281.277" height="56.255" rx="14.173" fill="none"/>
    </clipPath>
    <linearGradient id="linear-gradient" y1="0.5" x2="1" y2="0.5" gradientUnits="objectBoundingBox">
      <stop offset="0" stop-color="#2d6297"/>
      <stop offset="1" stop-color="#84dcd3"/>
    </linearGradient>
  </defs>
  <g id="Group_87" data-name="Group 87" transform="translate(-354 -6556.705)">
    <path id="Path_107" data-name="Path 107" d="M18,0H275a18,18,0,0,1,18,18V38a18,18,0,0,1-18,18H18A18,18,0,0,1,0,38V18A18,18,0,0,1,18,0Z" transform="translate(354 6567)" fill="#4d8fad"/>
    <g transform="matrix(1, 0, 0, 1, 354, 6556.7)" filter="url(#Rectangle_30)">
      <rect id="Rectangle_30-2" data-name="Rectangle 30" width="563.565" height="56.255" rx="14.173" transform="translate(195.77 10.5)" fill="#add8d2"/>
    </g>
    <g id="Group_17" data-name="Group 17" transform="translate(549.769 6567.205)">
      <g id="Group_16" data-name="Group 16" clip-path="url(#clip-path)">
        <rect id="Rectangle_33" data-name="Rectangle 33" width="281.277" height="56.255" fill="#1d1d1b"/>
        <rect id="Rectangle_34" data-name="Rectangle 34" width="574.595" height="115.527" transform="translate(-1.15 -23.012)" fill="url(#linear-gradient)"/>
      </g>
    </g>
  </g>
</svg>
