<?xml version="1.0" encoding="utf-8"?>
<!-- Generator: Adobe Illustrator 24.2.3, SVG Export Plug-In . SVG Version: 6.00 Build 0)  -->
<svg version="1.1" id="Warstwa_1" xmlns="http://www.w3.org/2000/svg" xmlns:xlink="http://www.w3.org/1999/xlink" x="0px" y="0px"
	 viewBox="0 0 336.28 118.89" style="enable-background:new 0 0 336.28 118.89;" xml:space="preserve">
<style type="text/css">
	.st0{fill:#2D6297;}
</style>
<g id="Group_73" transform="translate(-151.888 -390.741)">
	<g id="Group_34">
		<g id="Group_32">
			<g id="BRITISH">
				<g id="Group_69">
					<path id="Path_76" class="st0" d="M251.52,407.69c6.5,0,15.01,1.9,15.01,9.8c0,3.64-2.02,6.83-6.5,8.45
						c6.05,1.51,8.74,5.15,8.74,10.14c0,6.5-4.7,10.81-15.18,10.81h-14.05c-0.15,0.01-0.27-0.1-0.28-0.25c0-0.01,0-0.02,0-0.03
						v-38.64c-0.01-0.15,0.1-0.27,0.25-0.28c0.01,0,0.02,0,0.03,0H251.52z M244.69,424.94c-0.01,0.15,0.1,0.27,0.25,0.28
						c0.01,0,0.02,0,0.03,0h5.49c6.94,0,10.42-2.58,10.42-7.73c0-5.21-3.47-7.78-10.42-7.78h-5.49c-0.15-0.01-0.27,0.1-0.28,0.25
						c0,0.01,0,0.02,0,0.03V424.94z M252.7,444.88c6.78,0,10.42-3.3,10.42-8.96c0-5.6-3.86-8.68-10.42-8.68h-7.73
						c-0.17,0-0.28,0.06-0.28,0.23v17.14c-0.01,0.15,0.1,0.27,0.25,0.28c0.01,0,0.02,0,0.03,0H252.7z"/>
					<path id="Path_77" class="st0" d="M280.59,407.98c0-0.17,0.06-0.28,0.22-0.28h13.27c6.55,0,15.01,1.62,15.01,9.86
						c0,8.18-7.78,9.74-14.5,9.91c-0.12-0.02-0.23,0.07-0.25,0.19c-0.01,0.08,0.02,0.15,0.08,0.2l6.22,8.01l5.6,7.45
						c2.41,3.08,3.86,3.92,6.05,4.09c0.17,0,0.28,0.06,0.28,0.22v0.45c0.01,0.15-0.1,0.27-0.25,0.28c-0.01,0-0.02,0-0.03,0h-3.86
						c-1.68,0-2.86,0.05-5.71-2.46c-1.36-1.26-2.63-2.6-3.81-4.03c-3.3-3.75-6.83-7.84-11.87-14.39h-0.84
						c-0.17,0-0.22,0.06-0.22,0.22v18.93c0,0.17-0.06,0.28-0.22,0.28h-4.93c-0.15,0.01-0.27-0.1-0.28-0.25c0-0.01,0-0.02,0-0.03
						c0-5.54,0.06-18.93,0.06-29.4L280.59,407.98z M285.96,425.17c-0.01,0.15,0.1,0.27,0.25,0.28c0.01,0,0.02,0,0.03,0h6.83
						c7,0,10.36-2.74,10.36-7.9c0-5.21-3.47-7.84-10.36-7.84h-6.83c-0.15-0.01-0.27,0.1-0.28,0.25c0,0.01,0,0.02,0,0.03V425.17z"/>
					<path id="Path_78" class="st0" d="M320.74,407.92c0-0.17,0.11-0.23,0.28-0.23h4.87c0.17,0,0.28,0.06,0.28,0.23v38.7
						c0,0.17-0.06,0.28-0.22,0.28h-5.21V407.92z"/>
					<path id="Path_79" class="st0" d="M337.42,407.98c0-0.17,0.05-0.28,0.22-0.28h7.28c6.05,0,21.05,0.11,26.04,0.11
						c0.17,0.05,0.28,0.17,0.28,0.28v1.23c0,0.17-0.11,0.23-0.28,0.23h-13.72c-0.17,0-0.28,0.06-0.28,0.22
						c0,7.45,0.05,27.72,0.05,36.51v0.34c0,0.17-0.05,0.28-0.22,0.28h-4.93c-0.15,0.01-0.27-0.1-0.28-0.25c0-0.01,0-0.02,0-0.03
						v-36.79c0-0.17-0.06-0.28-0.22-0.28h-13.72c-0.17,0-0.22-0.06-0.22-0.23V407.98z"/>
					<path id="Path_80" class="st0" d="M382.5,407.92c0-0.17,0.11-0.23,0.28-0.23h4.87c0.17,0,0.28,0.06,0.28,0.23v38.7
						c0,0.17-0.05,0.28-0.22,0.28h-5.21V407.92z"/>
					<path id="Path_81" class="st0" d="M399.86,436.25c0.12-0.06,0.26-0.01,0.31,0.1c0.01,0.02,0.02,0.04,0.02,0.06
						c1.71,5.5,6.84,9.22,12.6,9.13c2.46,0,5.43-0.67,7.17-2.52c1.3-1.33,1.84-3.22,1.46-5.04c-0.49-1.72-1.51-3.25-2.91-4.37
						c-2.41-1.96-5.04-3.63-7.84-4.98c-2.69-1.51-5.43-3.14-7.39-5.54c-2.02-2.41-3.19-5.49-2.35-8.62
						c1.34-4.87,7.5-7.39,12.21-7.39c5.82,0,10.08,3.7,11.65,9.13c0.06,0.17,0,0.22-0.11,0.28l-0.34,0.11
						c-0.12,0.06-0.27,0.01-0.34-0.11c0,0,0,0,0,0c-1.51-4.47-5.7-7.49-10.42-7.5c-3.08,0-7,1.51-7.73,4.93
						c-0.28,1.46,0.02,2.96,0.84,4.2c0.83,1.19,1.85,2.23,3.02,3.08c2.32,1.6,4.75,3.02,7.28,4.26c2.5,1.27,4.79,2.94,6.78,4.93
						c1.97,2.04,3.06,4.78,3.02,7.61c-0.34,3.36-2.37,6.31-5.38,7.84c-2.16,1.12-4.57,1.67-7,1.62c-7.39,0-13.27-3.19-15.23-10.64
						c0-0.17,0.06-0.28,0.17-0.28C399.53,436.37,399.69,436.42,399.86,436.25z"/>
					<path id="Path_82" class="st0" d="M438.17,407.98c-0.01-0.15,0.1-0.27,0.25-0.28c0.01,0,0.02,0,0.03,0h4.93
						c0.17,0,0.22,0.11,0.22,0.28v17.58c-0.01,0.15,0.1,0.27,0.25,0.28c0.01,0,0.02,0,0.03,0h19.04c0.15,0.01,0.27-0.1,0.28-0.25
						c0-0.01,0-0.02,0-0.03v-17.58c0-0.17,0.06-0.28,0.22-0.28h4.93c0.15-0.01,0.27,0.1,0.28,0.25c0,0.01,0,0.02,0,0.03v38.64
						c0.01,0.15-0.1,0.27-0.25,0.28c-0.01,0-0.02,0-0.03,0h-4.93c-0.17,0-0.22-0.11-0.22-0.28v-18.54c0-0.17-0.11-0.22-0.28-0.22
						h-19.04c-0.17,0-0.28,0.05-0.28,0.22v18.54c0,0.17-0.06,0.28-0.22,0.28h-4.93c-0.15,0.01-0.27-0.1-0.28-0.25
						c0-0.01,0-0.02,0-0.03V407.98z"/>
				</g>
			</g>
			<g id="larygnology_institute_">
				<g id="Group_70">
					<path id="Path_83" class="st0" d="M256.78,460.74c0-0.06,0.02-0.08,0.08-0.08c0.66-0.02,1.37-0.02,1.65-0.02
						c0.06,0,0.08,0.02,0.08,0.08v14.08c0,0.06-0.02,0.1-0.08,0.1h-1.63c-0.05,0.01-0.09-0.03-0.1-0.08c0-0.01,0-0.01,0-0.02
						L256.78,460.74z"/>
					<path id="Path_84" class="st0" d="M267.59,468.32c-0.06-1.16-0.38-2.43-1.67-2.68c-1.48-0.15-2.93,0.54-3.74,1.79
						c-0.04,0.04-0.1,0.04-0.14,0c-0.02-0.02-0.03-0.04-0.03-0.06v-0.87c0-0.03,0.02-0.06,0.04-0.08c0.94-0.8,2.09-1.3,3.31-1.46
						c0.93-0.14,1.89,0.01,2.74,0.44c1.27,0.67,1.31,2.47,1.31,3.68v5.72c0.01,0.05-0.03,0.09-0.08,0.1c-0.01,0-0.01,0-0.02,0h-1.56
						c-0.06,0-0.08-0.04-0.08-0.1v-1.45l-0.04,0.02c-1.04,0.99-2.42,1.55-3.86,1.56c-1.69,0-2.91-0.87-2.91-2.39
						c0-2.85,4.69-2.68,6.69-4.14C267.57,468.37,267.58,468.35,267.59,468.32z M264.59,474.23c1.2-0.02,2.32-0.62,3-1.61
						c0.01-0.02,0.02-0.04,0.02-0.06v-3.44c0-0.08-0.08-0.13-0.13-0.08c-1.88,1.12-4.65,1.18-4.65,3.46
						c-0.08,0.87,0.56,1.65,1.44,1.73C264.36,474.24,264.48,474.24,264.59,474.23L264.59,474.23z"/>
					<path id="Path_85" class="st0" d="M272.24,465.28c0-0.06,0.04-0.08,0.1-0.08h1.63c0.06,0,0.07,0.02,0.07,0.08v2.45
						c0,0.05,0.04,0.09,0.09,0.09c0.02,0,0.04-0.01,0.06-0.03c0.67-0.8,1.42-1.54,2.24-2.18c0.38-0.28,0.84-0.41,1.31-0.36
						c0.24,0.03,0.44,0.16,0.57,0.36c0.01,0.02,0.02,0.04,0.02,0.06v1.54c0,0.1-0.11,0.11-0.17,0.04c-0.11-0.46-0.52-0.79-0.99-0.8
						c-1.06,0-2.41,1.5-3.12,2.17c-0.01,0.02-0.02,0.04-0.02,0.06v6.14c0,0.06-0.02,0.1-0.07,0.1h-1.63
						c-0.05,0.01-0.09-0.03-0.1-0.08c0-0.01,0-0.01,0-0.02V465.28z"/>
					<path id="Path_86" class="st0" d="M281.57,465.15c0.02,0,0.04,0.02,0.08,0.06c0.86,2.05,2.47,6.17,2.93,7.3l0.04,0.1
						c0.02,0.09,0.08,0.09,0.15,0c0.36-0.97,1.96-4.96,2.87-7.31l0.02-0.08c0.02-0.03,0.06-0.05,0.1-0.06h0.57
						c0.06,0,0.1,0.04,0.08,0.13l-5.87,14.91c-0.01,0.03-0.04,0.05-0.08,0.06h-0.72c-0.1,0-0.11-0.04-0.1-0.11
						c0.51-1.18,1.94-4.5,2.09-4.92c0.02-0.01,0.02-0.04,0.01-0.05c0,0,0,0-0.01-0.01l-3.97-9.88c-0.02-0.1,0.02-0.13,0.1-0.13
						L281.57,465.15z"/>
					<path id="Path_87" class="st0" d="M312.72,463.92l-1.39,0.95h-1.8c-0.08,0-0.08,0.17,0,0.17c0.09,0.08,0.18,0.16,0.27,0.25
						c0.78,0.63,1.25,1.58,1.27,2.58c0,1.8-1.54,3.7-4.81,3.7c-0.86,0.03-1.72-0.15-2.49-0.53c-0.02,0-0.02,0-0.04,0.02
						c-0.02,0.02-0.03,0.05-0.04,0.08c-0.74,0.61-1.12,1.1-1.12,1.46s0.4,0.59,1.71,0.51l2.41-0.09c3.44-0.06,4.73,1.46,4.73,3.19
						c0,1.99-2.41,3.36-5.34,3.36c-2.76,0-4.73-0.95-4.73-2.58c0-1.06,0.67-1.63,1.88-1.79c0.09-0.1,0.09,0,0.09,0.08
						c-0.86,2.49,1.14,3.69,3.53,3.69c1.98,0,3.53-0.93,3.53-2.07c0-1.05-0.76-1.6-1.65-1.96c-0.61-0.18-1.24-0.29-1.88-0.34h-2.68
						c-0.43,0.01-0.87-0.02-1.29-0.1c-0.61-0.1-1.35-0.34-1.35-1.04v-0.08c0-0.59,0.68-1.44,1.69-2.41c0.09-0.1,0.09-0.1,0-0.17
						c-1.05-0.6-1.7-1.72-1.69-2.93c0-1.8,1.61-3.7,4.71-3.7c0.58-0.05,1.16,0.01,1.71,0.19h0.1c1.56-0.11,3.12-0.31,4.65-0.61
						C312.82,463.75,312.82,463.92,312.72,463.92z M308.07,470.36c1.37-1.37,1.41-4.2-0.32-5.32c-1.06-0.85-2.61-0.67-3.46,0.39
						c-0.09,0.12-0.17,0.24-0.24,0.37c-0.46,0.68-0.68,1.5-0.61,2.32c0.03,1.65,1.38,2.96,3.03,2.93c0.05,0,0.09,0,0.14-0.01
						C307.17,471.03,307.7,470.79,308.07,470.36L308.07,470.36z"/>
					<path id="Path_88" class="st0" d="M289.99,465.21h1.6c0.06,0,0.1,0.02,0.1,0.08v1.2c0,0.08,0.08,0.13,0.13,0.08
						c1.12-0.84,2.48-1.31,3.88-1.35c2.3,0,2.92,1.02,2.92,3.97v5.62c0.01,0.05-0.03,0.09-0.08,0.1c0,0-0.01,0-0.01,0h-1.63
						c-0.06,0-0.08-0.04-0.08-0.1v-5.51c0-1.52-0.04-3.23-1.99-3.23c-1.18,0.05-2.29,0.55-3.12,1.39c-0.01,0.02-0.02,0.04-0.02,0.06
						v7.3c0.01,0.05-0.03,0.09-0.08,0.1c-0.01,0-0.01,0-0.02,0h-1.61c-0.05,0.01-0.09-0.03-0.1-0.08c0-0.01,0-0.01,0-0.02
						c0-2.66,0.02-8.05,0.02-9.52C289.89,465.23,289.93,465.21,289.99,465.21z"/>
					<path id="Path_89" class="st0" d="M319.31,465.11c2.82-0.16,5.23,2,5.39,4.83c0,0.04,0,0.09,0.01,0.13
						c0,2.96-2.51,4.92-5.39,4.92c-2.93,0-5.41-1.96-5.41-4.92C313.89,467.13,316.38,465.11,319.31,465.11z M322.9,470.64
						c0.15-2.64-1.14-5.09-3.49-5.24c-2.18-0.15-3.53,1.71-3.69,3.99c-0.15,2.64,1.16,5.03,3.59,5.18
						C321.41,474.72,322.74,472.92,322.9,470.64z"/>
					<path id="Path_90" class="st0" d="M326.98,460.74c0-0.06,0.02-0.08,0.08-0.08c0.67-0.02,1.37-0.02,1.65-0.02
						c0.06,0,0.08,0.02,0.08,0.08v14.08c0,0.06-0.02,0.1-0.08,0.1h-1.63c-0.05,0.01-0.09-0.03-0.1-0.08c0-0.01,0-0.01,0-0.02
						L326.98,460.74z"/>
					<path id="Path_91" class="st0" d="M336.48,465.11c2.82-0.16,5.24,2,5.39,4.82c0,0.05,0,0.09,0.01,0.14
						c0,2.96-2.51,4.92-5.4,4.92c-2.92,0-5.41-1.96-5.41-4.92C331.07,467.13,333.56,465.11,336.48,465.11z M340.07,470.64
						c0.15-2.64-1.14-5.09-3.5-5.24c-2.18-0.15-3.53,1.71-3.68,3.99c-0.15,2.64,1.16,5.03,3.59,5.18
						C338.59,474.72,339.92,472.92,340.07,470.64z"/>
					<path id="Path_92" class="st0" d="M354.97,464.92l-1.39,0.95h-1.8c-0.08,0-0.08,0.17,0,0.17c0.09,0.08,0.18,0.16,0.27,0.25
						c0.78,0.63,1.25,1.58,1.27,2.58c0,1.8-1.54,3.7-4.81,3.7c-0.86,0.03-1.72-0.15-2.49-0.53c-0.02,0-0.02,0-0.04,0.02
						c-0.02,0.02-0.03,0.05-0.04,0.08c-0.74,0.61-1.12,1.1-1.12,1.46s0.4,0.59,1.71,0.51l2.41-0.09c3.44-0.06,4.73,1.46,4.73,3.19
						c0,1.99-2.41,3.36-5.34,3.36c-2.76,0-4.73-0.95-4.73-2.58c0-1.06,0.67-1.63,1.88-1.79c0.1-0.1,0.1,0,0.1,0.08
						c-0.86,2.49,1.14,3.69,3.53,3.69c1.98,0,3.53-0.93,3.53-2.07c0-1.05-0.76-1.6-1.65-1.96c-0.61-0.18-1.24-0.29-1.88-0.34h-2.68
						c-0.43,0.01-0.87-0.02-1.29-0.1c-0.61-0.1-1.35-0.34-1.35-1.04v-0.08c0-0.59,0.68-1.44,1.69-2.41c0.1-0.1,0.1-0.1,0-0.17
						c-1.05-0.6-1.69-1.72-1.69-2.93c0-1.8,1.61-3.7,4.71-3.7c0.58-0.05,1.16,0.01,1.71,0.19h0.09c1.56-0.11,3.12-0.31,4.65-0.61
						C355.06,464.75,355.06,464.92,354.97,464.92z M350.31,471.36c1.37-1.37,1.41-4.2-0.32-5.32c-1.06-0.85-2.61-0.67-3.46,0.39
						c-0.09,0.11-0.17,0.24-0.24,0.37c-0.46,0.68-0.68,1.5-0.61,2.32c0.03,1.65,1.38,2.96,3.03,2.93c0.05,0,0.09,0,0.14-0.01
						C349.41,472.03,349.94,471.78,350.31,471.36L350.31,471.36z"/>
					<path id="Path_93" class="st0" d="M357.88,465.15c0.02,0,0.04,0.02,0.08,0.06c0.86,2.05,2.47,6.17,2.93,7.3l0.04,0.1
						c0.02,0.09,0.08,0.09,0.15,0c0.36-0.97,1.96-4.96,2.87-7.31l0.02-0.08c0.03-0.03,0.06-0.05,0.1-0.06h0.57
						c0.06,0,0.1,0.04,0.08,0.13l-5.87,14.91c-0.01,0.03-0.04,0.05-0.08,0.06h-0.72c-0.09,0-0.11-0.04-0.09-0.11
						c0.51-1.18,1.94-4.5,2.09-4.92c0.02-0.01,0.02-0.04,0.01-0.05c0,0,0,0-0.01-0.01l-3.97-9.88c-0.02-0.1,0.02-0.13,0.09-0.13
						L357.88,465.15z"/>
					<path id="Path_94" class="st0" d="M376.36,461.82c0.08,0.58-0.33,1.12-0.91,1.2c-0.1,0.01-0.19,0.01-0.29,0
						c-0.48-0.07-0.85-0.45-0.91-0.93c-0.08-0.59,0.34-1.12,0.93-1.2c0.09-0.01,0.18-0.01,0.27,0
						C375.94,460.95,376.32,461.34,376.36,461.82z M374.46,465.21h1.65c0.05-0.01,0.09,0.03,0.1,0.08c0,0.01,0,0.02,0,0.02v9.52
						c0,0.06-0.04,0.08-0.1,0.08h-1.63c-0.06,0-0.08-0.02-0.08-0.08c0-1.73-0.02-7.03-0.02-9.52
						C374.39,465.24,374.4,465.21,374.46,465.21L374.46,465.21z"/>
					<path id="Path_95" class="st0" d="M379.36,465.21h1.6c0.06,0,0.1,0.02,0.1,0.08v1.2c0,0.08,0.08,0.13,0.13,0.08
						c1.12-0.84,2.48-1.31,3.88-1.35c2.3,0,2.93,1.02,2.93,3.97v5.62c0.01,0.05-0.03,0.09-0.08,0.1c-0.01,0-0.01,0-0.02,0h-1.64
						c-0.06,0-0.08-0.04-0.08-0.1v-5.51c0-1.52-0.04-3.23-2-3.23c-1.18,0.05-2.29,0.55-3.11,1.39c-0.01,0.02-0.02,0.04-0.02,0.06
						v7.3c0.01,0.05-0.03,0.09-0.08,0.1c-0.01,0-0.01,0-0.02,0h-1.61c-0.05,0.01-0.09-0.03-0.1-0.08c0-0.01,0-0.01,0-0.02
						c0-2.66,0.02-8.05,0.02-9.52C379.27,465.23,379.31,465.21,379.36,465.21z"/>
					<path id="Path_96" class="st0" d="M390.31,472.03c0.03-0.03,0.08-0.03,0.11,0.01c0.01,0.01,0.01,0.02,0.02,0.03l0.11,0.32
						c0.85,1.48,2.51,2.29,4.2,2.05c0.75,0.04,1.45-0.37,1.79-1.05c0.06-0.13,0.09-0.27,0.08-0.42c0-2.18-6.17-2.22-6.17-5.4
						c0-1.73,2.03-2.39,3.46-2.45c1.22-0.12,2.41,0.37,3.19,1.31c0.28,0.36,0.49,0.77,0.63,1.2c0.02,0.06,0,0.08-0.04,0.09
						l-0.15,0.08c-0.06,0.02-0.09,0.02-0.11-0.04c-0.06-0.17-0.1-0.25-0.1-0.27c-0.27-0.52-0.67-0.96-1.16-1.27
						c-0.77-0.5-1.71-0.69-2.62-0.53c-0.67,0.1-1.42,0.55-1.42,1.31c0,2.13,6.23,2.24,6.23,5.45c0,1.63-1.75,2.32-3.12,2.47
						c-1.05,0.14-2.11-0.01-3.08-0.44c-0.97-0.43-1.72-1.25-2.05-2.26c0-0.04,0.01-0.07,0.04-0.1L390.31,472.03z"/>
					<path id="Path_97" class="st0" d="M402.16,463.31c0.01-0.04,0.06-0.07,0.1-0.06h0.11c0.06,0,0.1,0.02,0.1,0.08v1.83
						c-0.01,0.05,0.03,0.09,0.08,0.1c0.01,0,0.01,0,0.02,0h1.94c0.06,0,0.1,0.02,0.1,0.08v0.4c0.01,0.05-0.03,0.09-0.08,0.1
						c-0.01,0-0.01,0-0.02,0h-1.94c-0.06,0-0.1,0.02-0.1,0.08v6.78c0,0.84,0.19,1.61,1.18,1.61c0.65-0.05,1.2-0.51,1.37-1.14
						c0.02-0.06,0.06-0.06,0.11-0.04l0.25,0.08c0.04,0.01,0.07,0.05,0.06,0.09c0,0.01,0,0.01-0.01,0.02
						c-0.29,1.04-1.28,1.72-2.36,1.63c-1.67,0-2.41-1.01-2.41-2.6v-6.44c0-0.06-0.02-0.08-0.08-0.08h-1.23
						c-0.05,0.01-0.09-0.03-0.1-0.08c0-0.01,0-0.01,0-0.02v-0.4c0-0.06,0.02-0.08,0.08-0.08C400.78,465,401.8,464.64,402.16,463.31z
						"/>
					<path id="Path_98" class="st0" d="M408.93,461.82c0.08,0.58-0.33,1.12-0.91,1.2c-0.1,0.01-0.19,0.01-0.29,0
						c-0.48-0.07-0.85-0.45-0.91-0.93c-0.07-0.59,0.34-1.13,0.93-1.2c0.09-0.01,0.18-0.01,0.27,0
						C408.5,460.95,408.89,461.34,408.93,461.82z M407.03,465.21h1.65c0.05,0,0.09,0.03,0.09,0.08c0,0.01,0,0.01,0,0.02v9.52
						c0,0.06-0.04,0.08-0.09,0.08h-1.63c-0.06,0-0.08-0.02-0.08-0.08c0-1.73-0.02-7.03-0.02-9.52
						C406.95,465.24,406.97,465.21,407.03,465.21z"/>
					<path id="Path_99" class="st0" d="M413.43,463.31c0.01-0.04,0.05-0.06,0.09-0.06h0.11c0.06,0,0.09,0.02,0.09,0.08v1.83
						c-0.01,0.05,0.03,0.09,0.08,0.1c0.01,0,0.01,0,0.02,0h1.94c0.06,0,0.09,0.02,0.09,0.08v0.4c0.01,0.05-0.03,0.09-0.08,0.1
						c0,0-0.01,0-0.01,0h-1.94c-0.06,0-0.1,0.02-0.1,0.08v6.78c0,0.84,0.19,1.61,1.18,1.61c0.65-0.05,1.2-0.51,1.37-1.14
						c0.02-0.06,0.06-0.06,0.11-0.04l0.25,0.08c0.04,0.01,0.07,0.05,0.06,0.09c0,0.01,0,0.01-0.01,0.02
						c-0.29,1.04-1.28,1.72-2.36,1.63c-1.67,0-2.41-1.01-2.41-2.6v-6.44c0-0.06-0.02-0.08-0.08-0.08h-1.21
						c-0.05,0.01-0.09-0.03-0.1-0.08c0-0.01,0-0.01,0-0.02v-0.4c0-0.06,0.02-0.08,0.08-0.08C412.04,465,413.07,464.64,413.43,463.31
						z"/>
					<path id="Path_100" class="st0" d="M419.78,465.21c0.06,0,0.08,0.02,0.08,0.08v5.62c0,1.44,0.17,2.17,0.7,2.68
						c0.35,0.34,0.82,0.52,1.31,0.48c1.18-0.07,2.28-0.58,3.1-1.42c0.01-0.02,0.02-0.04,0.02-0.06v-7.3c0-0.06,0.02-0.08,0.08-0.08
						h1.63c0.06,0,0.1,0.02,0.1,0.08v9.52c0.01,0.05-0.03,0.09-0.08,0.1c-0.01,0-0.01,0-0.02,0h-1.63c-0.06,0-0.08-0.04-0.08-0.1
						v-1.2c0-0.08-0.08-0.13-0.13-0.08c-1.11,0.84-2.46,1.32-3.86,1.37c-2.34,0-2.94-0.91-2.94-3.84v-5.77
						c0-0.06,0.04-0.08,0.1-0.08L419.78,465.21z"/>
					<path id="Path_101" class="st0" d="M431.35,463.31c0.01-0.04,0.05-0.06,0.09-0.06h0.11c0.06,0,0.09,0.02,0.09,0.08v1.83
						c-0.01,0.05,0.03,0.09,0.08,0.1c0.01,0,0.01,0,0.02,0h1.94c0.06,0,0.09,0.02,0.09,0.08v0.4c0.01,0.05-0.03,0.09-0.08,0.1
						c0,0-0.01,0-0.01,0h-1.94c-0.06,0-0.1,0.02-0.1,0.08v6.78c0,0.84,0.19,1.61,1.18,1.61c0.65-0.05,1.2-0.51,1.37-1.14
						c0.02-0.06,0.06-0.06,0.11-0.04l0.25,0.08c0.04,0.01,0.07,0.05,0.06,0.09c0,0.01,0,0.01-0.01,0.02
						c-0.29,1.04-1.28,1.72-2.36,1.63c-1.67,0-2.41-1.01-2.41-2.6v-6.44c0-0.06-0.02-0.08-0.08-0.08h-1.21
						c-0.05,0.01-0.09-0.03-0.1-0.08c0-0.01,0-0.01,0-0.02v-0.4c0-0.06,0.02-0.08,0.08-0.08C429.96,465,430.99,464.64,431.35,463.31
						z"/>
					<path id="Path_102" class="st0" d="M440.26,465.11c2.59-0.03,4.71,2.05,4.73,4.64c0,0.08,0,0.16,0,0.25v0.1
						c0.01,0.05-0.03,0.09-0.08,0.1c-0.01,0-0.01,0-0.02,0h-7.79c-0.08,0-0.09,0.04-0.08,0.09c0.53,2.55,3.03,4.19,5.59,3.66
						c0.54-0.11,1.05-0.32,1.52-0.6c0.03-0.02,0.07-0.01,0.09,0.02l0.1,0.1c0.02,0.02,0.02,0.08,0,0.13
						c-1.07,0.92-2.44,1.42-3.86,1.4c-2.75,0.14-5.09-1.96-5.24-4.71c0-0.07-0.01-0.14-0.01-0.21c-0.04-2.71,2.13-4.93,4.83-4.97
						C440.12,465.11,440.19,465.11,440.26,465.11z M437.05,469.61h6.23c0.06,0,0.08-0.02,0.08-0.08c0.41-1.64-0.58-3.3-2.22-3.71
						c-0.24-0.06-0.48-0.09-0.72-0.09c-2.24,0-3.44,1.69-3.44,3.78C436.97,469.58,436.99,469.61,437.05,469.61L437.05,469.61z"/>
				</g>
			</g>
		</g>
		<g id="Group_72">
			<g id="Group_71">
				<path id="Path_103" class="st0" d="M174.72,437.46c0.08-10.16,2.29-17.72,6.61-22.7c4.81-5.51,12.61-8.26,23.38-8.26
					c10.44,0,17.95,3.98,22.52,11.93c3.14,5.47,4.71,12.44,4.71,20.93c0.02,2.87-0.19,5.73-0.61,8.57h-4.04
					c0.38-2.61,0.57-5.25,0.55-7.89c0-7.79-1.35-14.18-4.04-19.15c-3.87-7.18-10.3-10.75-19.28-10.71
					c-9.26,0.08-15.97,2.63-20.13,7.65c-3.67,4.45-5.55,11.16-5.63,20.13c-0.08,6.41,2.02,12.79,6.3,19.15
					c4.04,5.51,8.1,11.02,12.18,16.52c1.73,2.84,3.15,5.86,4.22,9c2.41,6.53,4.1,10.51,5.08,11.93c2.53,3.75,6.22,5.65,11.08,5.69
					c5.38,0,8.08-4.69,8.08-14.08c0-1.3-0.27-4.47-0.8-9.49h3.74c0.77,3.52,1.16,7.11,1.16,10.71c0,11.1-3.94,16.58-11.81,16.46
					c-7.59-0.12-12.87-3.3-15.85-9.55c-0.53-1.18-1.71-4.24-3.55-9.18c-1.03-3.09-2.43-6.05-4.16-8.81
					c-4.45-5.96-8.89-11.89-13.34-17.81C176.89,452.3,174.67,444.96,174.72,437.46z"/>
				<path id="Path_104" class="st0" d="M188.8,454.84c-3.18-6.69-4.77-11.99-4.77-15.91c0-6.85,1.61-12.34,4.84-16.46
					c3.63-4.69,8.96-7.04,15.97-7.04c4.79-0.15,9.42,1.77,12.7,5.26c3.33,3.51,4.99,8.04,4.99,13.59c0,8.24-3.84,14.87-11.51,19.89
					l-2.26-2.69c4.9-3.92,7.96-8.26,9.18-13.04c-9.79,6.16-14.77,12.1-14.93,17.81c-0.09,3.03,0.7,6.03,2.26,8.63
					c1.63,2.53,3.27,5.06,4.9,7.59c0.82,1.75,1.54,3.55,2.14,5.39c0.69,1.63,1.75,2.45,3.18,2.45c1.22,0,1.73-1.04,1.53-3.12
					c-0.19-1.33-0.6-2.61-1.22-3.79c-0.89-1.83-1.33-3.84-1.29-5.88c-2.73-1.67-4.16-3.65-4.28-5.94c-0.2-4.16,1.37-6.32,4.71-6.49
					c3.59-0.16,5.47,1.63,5.63,5.39c0.01,1.59-0.33,3.17-0.98,4.62c-0.58,1.22-0.94,2.54-1.04,3.89c0.11,1.49,0.5,2.94,1.16,4.28
					c0.66,1.36,1.06,2.84,1.16,4.35c0,4.16-1.69,6.24-5.08,6.24c-2.4,0-4.61-1.31-5.75-3.43c-1.51-2.85-2.59-5.02-3.24-6.49
					c-1.71-2.77-3.43-5.55-5.14-8.32c-1.69-2.85-2.58-6.11-2.57-9.42c0.08-7.51,6.55-15.01,19.4-22.52
					c0.01-3.81-1.42-7.48-4.01-10.28c-2.44-2.75-5.97-4.29-9.64-4.22c-5-0.17-9.76,2.17-12.67,6.24c-2.8,3.89-4.24,8.6-4.1,13.4
					c0,3.79,1.45,8.65,4.35,14.56L188.8,454.84z"/>
				<path id="Path_105" class="st0" d="M225.23,456.87c0-0.35,0.39-0.63,0.87-0.63h7.3c0.36-0.03,0.7,0.16,0.85,0.49l0.44,1.4
					l2.22-4.74c0.19-0.3,0.53-0.46,0.88-0.43c0.34-0.01,0.66,0.18,0.8,0.5l1.8,6l2.9-10.34c0.01-0.04,0.03-0.08,0.05-0.12
					c0.03-0.04,0.05-0.07,0.08-0.11c0.02-0.02,0.04-0.04,0.06-0.05c0.01-0.01,0.03-0.03,0.05-0.04c0.02-0.02,0.05-0.03,0.07-0.04
					c0.02-0.01,0.04-0.03,0.06-0.04s0.06-0.02,0.09-0.04s0.04-0.02,0.06-0.02c0.22-0.07,0.46-0.07,0.68,0
					c0.02,0.01,0.04,0.02,0.06,0.02s0.06,0.02,0.09,0.04s0.04,0.02,0.06,0.04s0.05,0.03,0.07,0.04s0.03,0.03,0.05,0.04
					c0.02,0.02,0.04,0.03,0.06,0.05c0.01,0.02,0.03,0.03,0.04,0.05c0.01,0.02,0.03,0.04,0.04,0.05c0.02,0.04,0.04,0.08,0.05,0.12
					l2.9,9.08l1.8-4.74c0.14-0.31,0.46-0.51,0.8-0.5c0.35-0.04,0.69,0.13,0.88,0.43l2.22,4.74l0.44-1.4
					c0.15-0.32,0.49-0.52,0.85-0.49h7.3c0.48,0,0.87,0.28,0.87,0.63s-0.39,0.63-0.87,0.63h-6.61l-0.97,3.08
					c-0.14,0.31-0.46,0.5-0.8,0.49c-0.35,0.04-0.69-0.13-0.87-0.43l-2.2-4.69l-2.02,5.46c-0.15,0.33-0.49,0.53-0.85,0.49h-0.01
					c-0.36,0.03-0.7-0.17-0.85-0.5l-2.82-9.12l-2.9,10.38c-0.15,0.33-0.49,0.53-0.85,0.5h-0.01c-0.36,0.03-0.7-0.17-0.85-0.49
					l-2.02-6.72l-2.2,4.69c-0.18,0.3-0.52,0.46-0.87,0.43c-0.34,0.02-0.66-0.18-0.81-0.49l-0.97-3.08h-6.61
					C225.63,457.5,225.23,457.22,225.23,456.87z"/>
			</g>
		</g>
	</g>
	<path id="Path_106" class="st0" d="M468.66,457.38l-211.12,0.14c-0.35,0-0.64-0.28-0.64-0.63c0-0.35,0.28-0.64,0.63-0.64
		c0,0,0,0,0.01,0l211.12,0.14c0.28,0.07,0.44,0.35,0.38,0.62C468.99,457.19,468.85,457.33,468.66,457.38z"/>
</g>
</svg>
