<svg version="1" xmlns="http://www.w3.org/2000/svg" width="256" height="256" viewBox="0 0 2560 2560">
  <g fill="#5f79c0">
    <path d="M337 2553c-4-3-7-84-7-179 0-161 1-174 19-184 11-5 29-10 41-10 18 0 21-5 18-29-2-21-51-82-187-231a3096 3096 0 0 1-203-238c-16-33-18-67-18-393V933l29-40c74-103 228-91 289 21 14 26 17 67 20 259l4 227 31-22c24-17 46-23 84-23h53l206 205c113 113 212 219 220 237 10 24 14 79 14 208v175h28c56 0 62 20 62 196 0 111-4 164-12 172-9 9-100 12-348 12-185 0-340-3-343-7zm603-178v-95H420v190h520v-95zm-80-355c0-120-4-168-14-188-15-27-376-392-389-392-15 0-87 73-87 88 0 8 47 63 105 122 63 63 105 114 105 126 0 26-19 44-45 44-25 0-269-243-285-283-6-17-10-134-10-297 0-148-3-276-6-285-10-26-59-46-87-36-56 22-57 27-57 383v327l59 68 205 228c145 159 146 160 146 208v47h360v-160z"/>
    <path d="M462 2388c-15-15-15-51 0-66 8-8 49-12 120-12 96 0 108 2 118 19 14 27 13 37-6 55-20 20-213 23-232 4zM752 2388c-28-28-7-78 33-78 12 0 26 5 33 12s12 21 12 33-5 26-12 33-21 12-33 12-26-5-33-12zM1240 2539c-14-26 11-69 40-69 11 0 27 11 35 24 23 34 5 66-35 66-19 0-33-7-40-21zM1532 2548c-8-8-12-60-12-173 0-144 2-164 18-178 10-10 31-17 45-17h27v-175c0-129 4-184 14-208 8-18 107-124 220-237l206-205h53c38 0 60 6 84 23l31 22 4-227c3-192 6-233 20-259a170 170 0 0 1 289-21l29 40v356c0 326-2 360-18 393-10 19-102 127-203 238-136 149-185 210-187 231-3 25 0 29 20 29 14 0 32 6 41 13 16 11 17 31 15 187l-3 175-340 3c-257 2-344-1-353-10zm608-173v-95h-520v190h520v-95zm-80-242c0-48 1-49 146-208l205-228 59-68v-327c0-356-1-361-57-383-28-10-77 10-87 36-3 9-6 137-6 285 0 163-4 280-10 297-16 40-260 283-285 283-26 0-45-18-45-44 0-12 42-63 105-126 58-59 105-114 105-122 0-15-72-88-87-88-13 0-374 365-389 392-10 20-14 68-14 188v160h360v-47zM1240 2421c-6-12-10-106-10-237v-217l-117-121a1499 1499 0 0 1-379-601c-25-81-28-105-28-250-1-196 14-259 109-450 79-159 163-274 315-428 155-156 145-156 300 1 151 152 235 267 315 427 95 191 110 253 109 450 0 145-3 169-28 250-62 204-188 405-378 601l-118 121v221c0 187-2 223-16 236-21 22-61 20-74-3zm-10-815v-223l-120-99c-95-79-120-104-120-125 0-30 17-49 43-49 11 0 57 32 103 70 45 39 85 70 88 70s6-26 6-58v-58l-120-99c-97-80-120-104-120-125 0-30 16-50 41-50 9 0 58 34 108 75l91 76V845l-120-99c-103-84-120-103-120-128 0-21 7-31 25-40 28-13 29-13 139 80l76 63V565c0-89 4-165 10-176 7-12 21-19 40-19s33 7 40 19c6 11 10 87 10 176v156l76-63c110-93 111-93 139-80 18 9 25 19 25 40 0 25-17 44-120 128l-120 99v165l90-75c50-41 99-75 108-75 25 0 42 20 42 50 0 21-23 45-120 125l-120 99v58c0 32 3 58 6 58s43-31 88-70c46-38 92-70 103-70 26 0 43 19 43 49 0 21-25 46-120 125l-120 99v226l1 226 65-70c193-208 318-428 360-635 21-104 14-240-16-350-51-184-199-417-374-590l-86-85-86 85a1502 1502 0 0 0-376 595 887 887 0 0 0 0 410c50 173 161 362 317 538 47 53 88 97 90 97 3 0 5-101 5-224z"/>
    <path d="M1621 1106c-7-8-11-27-9-43 2-23 9-29 33-31 46-6 71 40 39 72-19 20-48 20-63 2z"/>
  </g>
  <path d="M1240 2421c-6-12-10-106-10-237v-217l-117-121a1499 1499 0 0 1-379-601c-25-81-28-105-28-250-1-196 14-259 109-450 79-159 163-274 315-428 155-156 145-156 300 1 151 152 235 267 315 427 95 191 110 253 109 450 0 145-3 169-28 250-62 204-188 405-378 601l-118 121v221c0 187-2 223-16 236-21 22-61 20-74-3zm-10-815v-223l-120-99c-95-79-120-104-120-125 0-30 17-49 43-49 11 0 57 32 103 70 45 39 85 70 88 70s6-26 6-58v-58l-120-99c-97-80-120-104-120-125 0-30 16-50 41-50 9 0 58 34 108 75l91 76V845l-120-99c-103-84-120-103-120-128 0-21 7-31 25-40 28-13 29-13 139 80l76 63V565c0-89 4-165 10-176 7-12 21-19 40-19s33 7 40 19c6 11 10 87 10 176v156l76-63c110-93 111-93 139-80 18 9 25 19 25 40 0 25-17 44-120 128l-120 99v165l90-75c50-41 99-75 108-75 25 0 42 20 42 50 0 21-23 45-120 125l-120 99v58c0 32 3 58 6 58s43-31 88-70c46-38 92-70 103-70 26 0 43 19 43 49 0 21-25 46-120 125l-120 99v226l1 226 65-70c193-208 318-428 360-635 21-104 14-240-16-350-51-184-199-417-374-590l-86-85-86 85a1502 1502 0 0 0-376 595 887 887 0 0 0 0 410c50 173 161 362 317 538 47 53 88 97 90 97 3 0 5-101 5-224z" fill="#eaa23e"/>
</svg>
