<svg xmlns="http://www.w3.org/2000/svg" viewBox="0 0 20 20"><path fill-rule="evenodd" fill="#315EFB" d="M17.88 20H2.08A2.07 2.07 0 010 17.93v-1.02c-.01-1 .33-2 .95-2.81C1.97 12.8 4 11.87 5.5 11.18l.13-.06a.8.8 0 01.9.15 4.95 4.95 0 006.91 0 .8.8 0 01.9-.15l.13.06c1.49.69 3.52 1.63 4.53 2.91.62.78.96 1.78.96 2.82v1.02c0 1.14-.93 2.07-2.07 2.07zm.48-3.09c0-.68-.22-1.33-.62-1.82-.71-.9-2.36-1.72-3.6-2.3a6.56 6.56 0 01-8.32 0c-1.25.58-2.9 1.4-3.61 2.3-.4.51-.62 1.16-.61 1.81v1.03c0 .26.21.47.47.47h15.8c.27 0 .48-.21.48-.47v-1.02zm-8.38-5.7a4.6 4.6 0 01-4.6-4.6v-2A4.6 4.6 0 019.98 0a4.6 4.6 0 014.59 4.6v2.01a4.6 4.6 0 01-4.6 4.6zm3-6.6a3 3 0 10-6 0v2a3 3 0 106 0v-2z"/></svg>