<?xml version="1.0" encoding="UTF-8" standalone="no"?>
<svg
   xmlns:dc="http://purl.org/dc/elements/1.1/"
   xmlns:cc="http://creativecommons.org/ns#"
   xmlns:rdf="http://www.w3.org/1999/02/22-rdf-syntax-ns#"
   xmlns:svg="http://www.w3.org/2000/svg"
   xmlns="http://www.w3.org/2000/svg"
   xmlns:sodipodi="http://sodipodi.sourceforge.net/DTD/sodipodi-0.dtd"
   xmlns:inkscape="http://www.inkscape.org/namespaces/inkscape"
   id="Warstwa_1"
   data-name="Warstwa 1"
   viewBox="0 0 210 60"
   version="1.1"
   sodipodi:docname="logo.svg"
   width="210"
   height="60"
   inkscape:version="0.92.3 (2405546, 2018-03-11)">
  <metadata
     id="metadata159">
    <rdf:RDF>
      <cc:Work
         rdf:about="">
        <dc:format>image/svg+xml</dc:format>
        <dc:type
           rdf:resource="http://purl.org/dc/dcmitype/StillImage" />
        <dc:title>cukrzyca_pl_logo_small_trans</dc:title>
      </cc:Work>
    </rdf:RDF>
  </metadata>
  <sodipodi:namedview
     pagecolor="#ffffff"
     bordercolor="#666666"
     borderopacity="1"
     objecttolerance="10"
     gridtolerance="10"
     guidetolerance="10"
     inkscape:pageopacity="0"
     inkscape:pageshadow="2"
     inkscape:window-width="1920"
     inkscape:window-height="1052"
     id="namedview157"
     showgrid="false"
     inkscape:zoom="4.9201476"
     inkscape:cx="107.51772"
     inkscape:cy="30.650572"
     inkscape:window-x="0"
     inkscape:window-y="0"
     inkscape:window-maximized="1"
     inkscape:current-layer="Warstwa_1" />
  <defs
     id="defs4">
    <style
       id="style2">.cls-1{fill:#6feafb;}.cls-2{fill:#f90;}.cls-3{fill:#6feacd;}.cls-4{fill:#52aae5;}</style>
  </defs>
  <title
     id="title6">cukrzyca_pl_logo_small_trans</title>
  <path
     class="cls-1"
     d="M 28.092907,5.0530632 C 29.309829,4.8163079 30.522016,4.6387414 31.722366,4.5179961 A 5.826549,5.826549 0 0 0 32.81144,4.1723333 C 33.891045,3.6988226 34.705483,2.7896821 35.614624,2.0249624 A 5.6821282,5.6821282 0 0 1 36.088134,1.6627266 22.830318,22.830318 0 0 0 24.375848,1.9563033 C 18.184696,3.781687 13.305168,8.0835316 10.26523,13.706471 14.571809,9.8497268 20.171073,6.8808144 26.587143,5.3750504 27.074859,5.2543052 27.58625,5.1453978 28.092907,5.0530632 Z"
     id="path8"
     inkscape:connector-curvature="0"
     style="fill:#6feafb;stroke-width:0.23675534" />
  <path
     class="cls-1"
     d="m 37.598634,55.444071 v 0 l -0.248594,0.04735 A 37.570705,37.570705 0 0 1 20.701405,55.065262 c 6.06804,4.079294 13.371941,5.58269 20.360959,3.520552 6.191152,-1.825384 11.07068,-6.127229 14.112986,-11.747801 -4.306579,3.854378 -9.905844,6.82329 -16.321913,8.329053 q -0.622667,0.156259 -1.254803,0.277005 z"
     id="path10"
     inkscape:connector-curvature="0"
     style="fill:#6feafb;stroke-width:0.23675534" />
  <path
     class="cls-2"
     d="m 38.091084,55.342265 v 0 c -0.16336,0.03552 -0.324354,0.07103 -0.487715,0.101806 q 0.632137,-0.120746 1.257171,-0.274637 l -0.236756,0.05445 c -0.184669,0.04262 -0.359867,0.0805 -0.5327,0.118378 z"
     id="path12"
     inkscape:connector-curvature="0"
     style="fill:#ff9900;stroke-width:0.23675534" />
  <path
     class="cls-2"
     d="m 28.092907,5.0530632 c -0.506657,0.092334 -1.010945,0.201242 -1.508132,0.3219872 l 0.767088,-0.1728313 c 0.246225,-0.052086 0.494819,-0.1018048 0.741044,-0.1491559 z"
     id="path14"
     inkscape:connector-curvature="0"
     style="fill:#ff9900;stroke-width:0.23675534" />
  <path
     class="cls-2"
     d="m 37.345306,55.493789 0.248592,-0.04735 -0.113642,0.01895 z"
     id="path16"
     inkscape:connector-curvature="0"
     style="fill:#ff9900;stroke-width:0.23675534" />
  <path
     class="cls-3"
     d="M 7.4478407,34.806107 C 5.866315,27.203893 7.016946,19.703484 10.26523,13.706471 3.2856818,19.952077 -0.30116167,28.524988 1.5052816,36.958213 A 20.922069,20.922069 0 0 0 3.295152,42.01294 c 0.800233,-1.387387 1.9177183,-2.694276 3.0067928,-4.136116 a 5.2086175,5.2086175 0 0 0 1.1458959,-3.070717 z"
     id="path18"
     inkscape:connector-curvature="0"
     style="fill:#6feacd;stroke-width:0.23675534" />
  <path
     class="cls-3"
     d="M 63.935298,23.586272 C 62.327729,16.07876 56.773449,10.221432 49.275408,7.0133974 c 0.236754,0.9470214 0.355133,1.9129832 0.61793,2.860005 a 32.740896,32.740896 0 0 1 7.05531,11.9916576 l 0.02605,0.07102 v 0 q 0.3575,1.051195 0.629769,2.130799 c 2.130799,8.156221 1.048826,16.31481 -2.42911,22.745085 C 62.1549,40.592407 65.741743,32.021863 63.9353,23.586271 Z"
     id="path20"
     inkscape:connector-curvature="0"
     style="fill:#6feacd;stroke-width:0.23675534" />
  <path
     class="cls-2"
     d="m 30.794285,4.6955627 c 0.310149,-0.054454 0.620299,-0.1112751 0.928081,-0.1799341 -1.20035,0.1207452 -2.412537,0.2983117 -3.629459,0.535067 a 25.543534,25.543534 0 0 1 2.604308,-0.3385601 z"
     id="path22"
     inkscape:connector-curvature="0"
     style="fill:#ff9900;stroke-width:0.23675534" />
  <path
     class="cls-2"
     d="m 7.4478407,34.806107 c 0,-0.05683 0,-0.113643 0,-0.170464 A 25.983899,25.983899 0 0 1 7.0832375,30.265139 v 0 c 0,-0.203609 0,-0.409586 0,-0.613196 0,-0.130215 0,-0.258063 0.011838,-0.385911 0,-0.06629 0,-0.132583 0,-0.198874 a 25.519858,25.519858 0 0 1 5.3506705,-14.48706 l 0.01421,-0.01893 c 0.09233,-0.118378 0.187037,-0.236756 0.281739,-0.352766 l 0.118377,-0.149156 0.215449,-0.26043 0.189404,-0.222551 0.182301,-0.210711 0.132583,-0.146789 0.08286,-0.0876 c 0.07814,-0.0876 0.156259,-0.175198 0.236756,-0.26043 l 0.187037,-0.201242 0.300679,-0.312517 0.113642,-0.116011 A 25.59562,25.59562 0 0 1 26.587143,5.3750504 C 20.168705,6.8808144 14.569442,9.8497268 10.26523,13.706471 7.016946,19.703484 5.866315,27.203893 7.4478407,34.806107 Z"
     id="path24"
     inkscape:connector-curvature="0"
     style="fill:#ff9900;stroke-width:0.23675534" />
  <path
     class="cls-2"
     d="m 56.974691,21.945557 -0.02605,-0.07103 v 0 z"
     id="path26"
     inkscape:connector-curvature="0"
     style="fill:#ff9900;stroke-width:0.23675534" />
  <path
     class="cls-2"
     d="m 57.616298,24.095296 q -0.269902,-1.089075 -0.629769,-2.130799 0.329089,0.970697 0.582418,1.960335 c 0.0071,0.04972 0.02131,0.111274 0.04735,0.170464 z"
     id="path28"
     inkscape:connector-curvature="0"
     style="fill:#ff9900;stroke-width:0.23675534" />
  <path
     class="cls-2"
     d="m 46.912589,51.625207 c -0.163361,0.108907 -0.32909,0.215447 -0.494819,0.321987 0.165729,-0.10654 0.331458,-0.21308 0.494819,-0.321987 z"
     id="path30"
     inkscape:connector-curvature="0"
     style="fill:#ff9900;stroke-width:0.23675534" />
  <path
     class="cls-2"
     d="m 7.0832375,30.265139 v 0 a 25.983899,25.983899 0 0 0 0.3693383,4.363402 c 0.01894,-1.337668 -0.3693383,-2.706114 -0.3693383,-4.363402 z"
     id="path32"
     inkscape:connector-curvature="0"
     style="fill:#ff9900;stroke-width:0.23675534" />
  <path
     class="cls-2"
     d="m 58.357343,30.265139 v 0 c 0,0.253329 0,0.506657 0,0.757618 -0.0048,-0.243858 0,-0.497186 0,-0.757618 z"
     id="path34"
     inkscape:connector-curvature="0"
     style="fill:#ff9900;stroke-width:0.23675534" />
  <path
     class="cls-2"
     d="m 47.625222,51.135123 c -0.196507,0.139686 -0.395381,0.277004 -0.594256,0.411954 0.198875,-0.13495 0.404852,-0.272268 0.594256,-0.411954 z"
     id="path36"
     inkscape:connector-curvature="0"
     style="fill:#ff9900;stroke-width:0.23675534" />
  <path
     class="cls-2"
     d="m 56.299939,20.193568 c 0.05445,0.127848 0.106539,0.255695 0.160993,0.385911 -0.05445,-0.130216 -0.10654,-0.258063 -0.160993,-0.385911 z"
     id="path38"
     inkscape:connector-curvature="0"
     style="fill:#ff9900;stroke-width:0.23675534" />
  <path
     class="cls-2"
     d="m 56.541429,20.780721 c 0.05919,0.149156 0.118377,0.298311 0.175199,0.449835 -0.04735,-0.151524 -0.11601,-0.300679 -0.175199,-0.449835 z"
     id="path40"
     inkscape:connector-curvature="0"
     style="fill:#ff9900;stroke-width:0.23675534" />
  <path
     class="cls-2"
     d="m 58.340769,31.150605 c 0,0.236755 -0.01895,0.47351 -0.03314,0.710266 0.01894,-0.239123 0.01894,-0.473511 0.03314,-0.710266 z"
     id="path42"
     inkscape:connector-curvature="0"
     style="fill:#ff9900;stroke-width:0.23675534" />
  <path
     class="cls-2"
     d="m 46.252041,52.046631 c -0.163361,0.101805 -0.32909,0.201242 -0.494818,0.300679 0.156259,-0.08997 0.321987,-0.189404 0.494818,-0.300679 z"
     id="path44"
     inkscape:connector-curvature="0"
     style="fill:#ff9900;stroke-width:0.23675534" />
  <path
     class="cls-2"
     d="m 36.781828,55.597962 c -0.236756,0.03788 -0.473511,0.07102 -0.710266,0.104172 0.236755,-0.04262 0.47351,-0.07576 0.710266,-0.104172 z"
     id="path46"
     inkscape:connector-curvature="0"
     style="fill:#ff9900;stroke-width:0.23675534" />
  <path
     class="cls-2"
     d="m 7.0903402,29.659046 c 0,-0.127848 0,-0.258064 0.011838,-0.385912 -0.00474,0.127848 -0.00947,0.255696 -0.011838,0.385912 z"
     id="path48"
     inkscape:connector-curvature="0"
     style="fill:#ff9900;stroke-width:0.23675534" />
  <path
     class="cls-2"
     d="m 36.028946,55.697399 c -0.236756,0.03314 -0.487716,0.05919 -0.733942,0.08523 0.246226,-0.02604 0.490084,-0.05209 0.733942,-0.08523 z"
     id="path50"
     inkscape:connector-curvature="0"
     style="fill:#ff9900;stroke-width:0.23675534" />
  <path
     class="cls-2"
     d="m 48.250256,50.671082 c -0.165728,0.127848 -0.333824,0.250961 -0.504288,0.374074 0.163361,-0.123113 0.33856,-0.246226 0.504288,-0.374074 z"
     id="path52"
     inkscape:connector-curvature="0"
     style="fill:#ff9900;stroke-width:0.23675534" />
  <path
     class="cls-2"
     d="m 25.334706,54.828506 a 25.612193,25.612193 0 0 0 7.3844,1.081973 c 0.757617,0 1.505764,-0.03552 2.246808,-0.09943 -3.129905,0.26043 -6.420804,-0.312517 -9.631208,-0.982536 z"
     id="path54"
     inkscape:connector-curvature="0"
     style="fill:#ff9900;stroke-width:0.23675534" />
  <path
     class="cls-2"
     d="m 36.869427,55.574286 0.473511,-0.0805 0.13495,-0.02841 c -0.201242,0.03788 -0.404851,0.07576 -0.608461,0.108908 z"
     id="path56"
     inkscape:connector-curvature="0"
     style="fill:#ff9900;stroke-width:0.23675534" />
  <path
     class="cls-2"
     d="m 38.855804,55.169434 a 25.48908,25.48908 0 0 0 6.771203,-2.741627 25.664279,25.664279 0 0 1 -7.017428,2.796081 z"
     id="path58"
     inkscape:connector-curvature="0"
     style="fill:#ff9900;stroke-width:0.23675534" />
  <path
     class="cls-2"
     d="M 38.091084,55.342265 Z"
     id="path60"
     inkscape:connector-curvature="0"
     style="fill:#ff9900;stroke-width:0.23675534" />
  <path
     class="cls-2"
     d="m 56.953383,21.886368 v 0 c -0.05919,-0.170464 -0.118378,-0.340928 -0.182301,-0.509024 0.05919,0.160993 0.120744,0.333826 0.182301,0.509024 z"
     id="path62"
     inkscape:connector-curvature="0"
     style="fill:#ff9900;stroke-width:0.23675534" />
  <path
     class="cls-2"
     d="m 58.357343,30.265139 a 25.619295,25.619295 0 0 0 -0.741045,-6.169843 c -0.01657,-0.05919 -0.03078,-0.120746 -0.04735,-0.182302 a 25.78029,25.78029 0 0 1 0.788395,6.352145 z"
     id="path64"
     inkscape:connector-curvature="0"
     style="fill:#ff9900;stroke-width:0.23675534" />
  <path
     class="cls-1"
     d="M 49.275408,7.0228677 A 7.2020975,7.2020975 0 0 0 47.909329,4.0586908 9.4702137,9.4702137 0 0 0 40.584118,0.54997653 c -1.628877,0 -3.160684,0.21307982 -4.498351,1.11275007 a 26.279843,26.279843 0 0 1 8.658143,3.8141286 32.390498,32.390498 0 0 1 4.531498,1.5460125 z"
     id="path66"
     inkscape:connector-curvature="0"
     style="fill:#6feafb;stroke-width:0.23675534" />
  <path
     class="cls-1"
     d="m 3.2927845,42.01294 c -1.0867071,1.882205 -1.5933635,3.913566 -0.662915,6.643354 1.4371049,4.218981 6.6883384,7.303903 11.0801495,6.231401 1.245334,-0.303047 2.308365,-0.710266 3.404542,-0.977799 C 10.956555,51.516299 6.0036331,47.377816 3.2927845,42.01294 Z"
     id="path68"
     inkscape:connector-curvature="0"
     style="fill:#6feafb;stroke-width:0.23675534" />
  <path
     class="cls-2"
     d="M 37.598634,55.444071 Z"
     id="path70"
     inkscape:connector-curvature="0"
     style="fill:#ff9900;stroke-width:0.23675534" />
  <path
     class="cls-2"
     d="M 32.81144,4.1723333 A 5.826549,5.826549 0 0 1 31.722366,4.5179961 36.895953,36.895953 0 0 1 44.74391,5.4768552 26.279843,26.279843 0 0 0 36.095237,1.6627266 5.6821282,5.6821282 0 0 0 35.621726,2.0249624 c -0.90914,0.7765575 -1.730681,1.6667575 -2.810286,2.1473709 z"
     id="path72"
     inkscape:connector-curvature="0"
     style="fill:#ff9900;stroke-width:0.23675534" />
  <path
     class="cls-2"
     d="m 37.492094,55.465378 0.113642,-0.01895 v 0 c 0.163362,-0.03078 0.324355,-0.06629 0.487717,-0.101805 z"
     id="path74"
     inkscape:connector-curvature="0"
     style="fill:#ff9900;stroke-width:0.23675534" />
  <path
     class="cls-2"
     d="m 38.091084,55.342265 c 0.172833,-0.03788 0.345664,-0.07576 0.518495,-0.118377 z"
     id="path76"
     inkscape:connector-curvature="0"
     style="fill:#ff9900;stroke-width:0.23675534" />
  <path
     class="cls-2"
     d="M 49.893338,9.8828721 C 49.630541,8.9358508 49.502693,7.9722566 49.275408,7.0228677 A 32.390498,32.390498 0 0 0 44.74391,5.4768552 29.79566,29.79566 0 0 1 49.893338,9.8828721 Z"
     id="path78"
     inkscape:connector-curvature="0"
     style="fill:#ff9900;stroke-width:0.23675534" />
  <path
     class="cls-2"
     d="M 56.974691,21.945557 Z"
     id="path80"
     inkscape:connector-curvature="0"
     style="fill:#ff9900;stroke-width:0.23675534" />
  <path
     class="cls-2"
     d="m 45.747753,52.356781 -0.120746,0.07102 z"
     id="path82"
     inkscape:connector-curvature="0"
     style="fill:#ff9900;stroke-width:0.23675534" />
  <path
     class="cls-2"
     d="m 48.335488,50.607159 -0.08523,0.06392 z"
     id="path84"
     inkscape:connector-curvature="0"
     style="fill:#ff9900;stroke-width:0.23675534" />
  <path
     class="cls-2"
     d="m 36.869427,55.574286 -0.0876,0.02367 z"
     id="path86"
     inkscape:connector-curvature="0"
     style="fill:#ff9900;stroke-width:0.23675534" />
  <path
     class="cls-2"
     d="M 58.307623,31.856135 Z"
     id="path88"
     inkscape:connector-curvature="0"
     style="fill:#ff9900;stroke-width:0.23675534" />
  <path
     class="cls-2"
     d="m 47.745968,51.045156 -0.120746,0.08997 z"
     id="path90"
     inkscape:connector-curvature="0"
     style="fill:#ff9900;stroke-width:0.23675534" />
  <path
     class="cls-1"
     d="M 49.893338,9.8828721 A 29.79566,29.79566 0 0 0 44.74391,5.4768552 36.895953,36.895953 0 0 0 31.722366,4.5179961 c -0.307782,0.068659 -0.617932,0.1254803 -0.928081,0.179934 l -0.09471,0.016573 c 0.667655,-0.052086 1.34004,-0.080497 2.019528,-0.080497 A 25.671382,25.671382 0 0 1 56.240749,20.056249 l 0.03078,0.07102 0.02841,0.06629 c 0.05445,0.127848 0.106539,0.255695 0.160993,0.385911 0.02605,0.06629 0.05445,0.132582 0.0805,0.201242 0.05919,0.149155 0.118377,0.298311 0.175199,0.449835 l 0.04972,0.13495 c 0.06393,0.168097 0.123113,0.33856 0.182302,0.509024 A 32.740896,32.740896 0 0 0 49.893338,9.8828721 Z"
     id="path92"
     inkscape:connector-curvature="0"
     style="fill:#6feafb;stroke-width:0.23675534" />
  <path
     class="cls-2"
     d="m 58.345505,31.029859 c 0,0.04025 0,0.0805 0,0.120746 -0.0023,-0.04025 0,-0.0805 0,-0.120746 z"
     id="path94"
     inkscape:connector-curvature="0"
     style="fill:#ff9900;stroke-width:0.23675534" />
  <path
     class="cls-2"
     d="m 47.007291,51.573121 0.02367,-0.01657 -0.118377,0.07813 z"
     id="path96"
     inkscape:connector-curvature="0"
     style="fill:#ff9900;stroke-width:0.23675534" />
  <path
     class="cls-2"
     d="m 46.41777,51.947194 -0.165729,0.09943 z"
     id="path98"
     inkscape:connector-curvature="0"
     style="fill:#ff9900;stroke-width:0.23675534" />
  <path
     class="cls-2"
     d="m 36.071562,55.692663 h -0.04972 z"
     id="path100"
     inkscape:connector-curvature="0"
     style="fill:#ff9900;stroke-width:0.23675534" />
  <path
     class="cls-2"
     d="M 58.357343,30.265139 Z"
     id="path102"
     inkscape:connector-curvature="0"
     style="fill:#ff9900;stroke-width:0.23675534" />
  <path
     class="cls-2"
     d="m 36.869427,55.574286 -0.0876,0.02367 c -0.236756,0.03788 -0.473511,0.07102 -0.710266,0.104173 h -0.04972 c -0.236755,0.03314 -0.487716,0.05919 -0.733941,0.08523 h -0.04024 l -0.288841,0.02367 c -0.741044,0.06393 -1.489191,0.09943 -2.246809,0.09943 A 25.619295,25.619295 0 0 1 8.4919317,38.672322 Q 8.1131232,37.583247 7.833752,36.449189 C 7.6893312,35.902285 7.5614833,35.353012 7.4478407,34.806107 a 5.2086175,5.2086175 0 0 1 -1.1482635,3.077819 c -1.0890745,1.441841 -2.2065597,2.74873 -3.0067927,4.136117 2.7108486,5.357773 7.6637705,9.496256 13.8217765,11.889853 a 32.452055,32.452055 0 0 0 3.582109,1.157733 37.570705,37.570705 0 0 0 16.648636,0.42616 z"
     id="path104"
     inkscape:connector-curvature="0"
     style="fill:#ff9900;stroke-width:0.23675534" />
  <path
     class="cls-2"
     d="m 56.716628,21.230556 0.04972,0.13495 z"
     id="path106"
     inkscape:connector-curvature="0"
     style="fill:#ff9900;stroke-width:0.23675534" />
  <path
     class="cls-2"
     d="m 35.254756,55.787366 h 0.04024 l -0.32909,0.02841 z"
     id="path108"
     inkscape:connector-curvature="0"
     style="fill:#ff9900;stroke-width:0.23675534" />
  <path
     class="cls-2"
     d="m 56.460932,20.579479 c 0.02605,0.06629 0.05445,0.132582 0.0805,0.201242 -0.02604,-0.06866 -0.05445,-0.13495 -0.0805,-0.201242 z"
     id="path110"
     inkscape:connector-curvature="0"
     style="fill:#ff9900;stroke-width:0.23675534" />
  <path
     class="cls-2"
     d="m 56.271528,20.127276 -0.03078,-0.07102 c 0.01895,0.04735 0.04024,0.09233 0.05919,0.137319 z"
     id="path112"
     inkscape:connector-curvature="0"
     style="fill:#ff9900;stroke-width:0.23675534" />
  <path
     class="cls-2"
     d="m 7.4478407,34.806107 c 0.1136426,0.546905 0.2367553,1.096178 0.3859113,1.643082 -0.149156,-0.596623 -0.2746363,-1.202717 -0.3811762,-1.813546 0,0.05683 -0.00236,0.113642 -0.00474,0.170464 z"
     id="path114"
     inkscape:connector-curvature="0"
     style="fill:#ff9900;stroke-width:0.23675534" />
  <path
     class="cls-2"
     d="m 7.0832375,30.265139 v 0 c 0,-0.205976 0,-0.409586 0,-0.613196 0.00236,0.210713 0,0.41669 0,0.613196 z"
     id="path116"
     inkscape:connector-curvature="0"
     style="fill:#ff9900;stroke-width:0.23675534" />
  <path
     class="cls-2"
     d="m 7.1021779,29.273134 c 0,-0.06629 0,-0.132582 0,-0.198874 0.00474,0.06629 0.00474,0.132583 0,0.198874 z"
     id="path118"
     inkscape:connector-curvature="0"
     style="fill:#ff9900;stroke-width:0.23675534" />
  <path
     class="cls-4"
     d="m 58.357343,30.265139 a 25.78029,25.78029 0 0 0 -0.797867,-6.354512 c -0.07812,-0.295945 -0.160993,-0.591889 -0.236754,-0.887833 q -0.179935,-0.57058 -0.369339,-1.136426 C 56.891826,21.71117 56.83027,21.538337 56.766346,21.365506 l -0.04972,-0.13495 c -0.05683,-0.151524 -0.11601,-0.300679 -0.175199,-0.449835 -0.02605,-0.06866 -0.05445,-0.13495 -0.0805,-0.201242 -0.05445,-0.130216 -0.10654,-0.258063 -0.160993,-0.385911 -0.01895,-0.04498 -0.04024,-0.08997 -0.05919,-0.137319 A 25.671382,25.671382 0 0 0 32.719106,4.6340062 c -0.679488,0 -1.351873,0.028411 -2.019523,0.080497 a 25.543534,25.543534 0 0 0 -2.604309,0.3385602 c -0.236756,0.047351 -0.494819,0.09707 -0.741044,0.1491559 L 26.587143,5.3750504 A 25.58615,25.58615 0 0 0 14.986131,11.767445 c -0.160994,0.153891 -0.321987,0.310149 -0.473511,0.47351 l -0.113642,0.11601 c -0.09943,0.101806 -0.201242,0.205978 -0.300679,0.312517 -0.06393,0.06629 -0.125481,0.134951 -0.187037,0.201243 -0.06155,0.06629 -0.158627,0.172831 -0.236756,0.26043 l -0.213079,0.236756 -0.182302,0.210713 -0.189404,0.222549 -0.220183,0.258063 -0.118377,0.149156 c -0.09471,0.11601 -0.189405,0.236756 -0.281739,0.352766 l -0.01421,0.01893 A 25.71163,25.71163 0 0 0 9.41291,19.61115 25.71163,25.71163 0 0 1 12.445746,14.580098 25.519858,25.519858 0 0 0 7.1116481,29.081363 q 0.047351,-0.984902 0.1680963,-1.960334 -0.1207452,0.9778 -0.1680963,1.960334 c 0,0.06629 0,0.132583 0,0.198874 0,0.127848 0,0.258064 -0.011838,0.385911 0,0.203611 0,0.40722 0,0.613197 0,1.657287 0.3882788,3.01863 0.3693384,4.363401 0.1065399,0.610829 0.2367553,1.216923 0.3811761,1.813546 0.092334,0.357501 0.1894043,0.710266 0.2935766,1.070134 0.1041723,0.359868 0.2367554,0.771822 0.3646032,1.152998 A 25.687955,25.687955 0 0 0 25.35128,54.835609 c 3.210402,0.670018 6.501302,1.238231 9.631207,0.982535 l 0.32909,-0.02841 c 0.236755,-0.02604 0.490083,-0.05209 0.733941,-0.08523 h 0.04972 c 0.236755,-0.03314 0.473511,-0.06629 0.710266,-0.104172 l 0.0805,-0.01421 c 0.20361,-0.03314 0.407219,-0.07102 0.610828,-0.108908 L 38.10292,55.3541 v 0 l 0.518495,-0.118377 a 25.664279,25.664279 0 0 0 7.017428,-2.796081 l 0.120746,-0.07102 c 0.165728,-0.09943 0.331457,-0.198875 0.494818,-0.30068 l 0.175199,-0.108907 c 0.165729,-0.10654 0.331457,-0.21308 0.494819,-0.321988 l 0.118377,-0.07812 c 0.198875,-0.134951 0.397749,-0.272268 0.594256,-0.411954 l 0.120746,-0.08997 c 0.170464,-0.123113 0.338559,-0.236755 0.504288,-0.374074 l 0.08523,-0.06393 a 25.60509,25.60509 0 0 0 9.972135,-18.748657 v 0 c 0.01421,-0.236754 0.02605,-0.47351 0.03314,-0.710266 0,-0.04024 0,-0.0805 0,-0.120744 0,-0.250961 0,-0.50429 0,-0.757617 z M 8.347511,22.340938 C 8.146269,22.961238 7.9663349,23.588639 7.812444,24.234981 7.9663349,23.600477 8.146269,22.973076 8.347511,22.340938 8.548753,21.708801 8.7760382,21.107443 9.0246313,20.503717 8.7760382,21.107443 8.548753,21.720639 8.347511,22.340938 Z M 32.719106,44.266851 A 13.994608,13.994608 0 1 1 46.725552,30.265139 13.994608,13.994608 0 0 1 32.719106,44.266851 Z"
     id="path120"
     inkscape:connector-curvature="0"
     style="fill:#52aae5;stroke-width:0.23675534" />
  <path
     class="cls-4"
     d="m 13.579804,13.218755 -0.130215,0.149156 0.213079,-0.236756 z"
     id="path122"
     inkscape:connector-curvature="0"
     style="fill:#52aae5;stroke-width:0.23675534" />
  <path
     class="cls-2"
     d="m 7.833752,36.449189 q 0.2770037,1.131691 0.6581797,2.223133 C 8.3640839,38.291146 8.240971,37.907602 8.1273285,37.519324 8.0136859,37.131044 7.9260865,36.806689 7.833752,36.449189 Z"
     id="path124"
     inkscape:connector-curvature="0"
     style="fill:#ff9900;stroke-width:0.23675534" />
  <path
     class="cls-2"
     d="m 57.313251,23.025161 c 0.08523,0.295944 0.168097,0.591889 0.236756,0.887833 q -0.241491,-0.98727 -0.572949,-1.960334 v 0 l -0.02131,-0.05919 q 0.187036,0.558744 0.3575,1.131691 z"
     id="path126"
     inkscape:connector-curvature="0"
     style="fill:#ff9900;stroke-width:0.23675534" />
  <circle
     class="cls-1"
     cx="60.604149"
     cy="50.600056"
     r="3.6768105"
     id="circle128"
     style="fill:#6feafb;stroke-width:0.23675534" />
  <circle
     class="cls-1"
     cx="4.6304522"
     cy="6.2699842"
     r="2.8600044"
     id="circle130"
     style="fill:#6feafb;stroke-width:0.23675534" />
  <path
     class="cls-2"
     d="m 57.616298,24.095296 a 25.619295,25.619295 0 0 1 0.741045,6.169843 v 0 0 c 0,0.253329 0,0.506657 0,0.757618 0,0.04024 0,0.0805 0,0.120745 0,0.236755 -0.01895,0.473511 -0.03314,0.710266 v 0 a 25.60509,25.60509 0 0 1 -9.972137,18.748655 l -0.08523,0.06393 c -0.165728,0.127847 -0.333825,0.250961 -0.504288,0.374073 l -0.120746,0.08997 c -0.196506,0.139686 -0.395381,0.277004 -0.594255,0.411955 l -0.02367,0.01657 -0.09471,0.06155 c -0.16336,0.108908 -0.329089,0.215448 -0.494818,0.321988 l -0.182302,0.104172 c -0.163361,0.101805 -0.32909,0.201242 -0.494818,0.300679 l -0.120746,0.07102 a 25.48908,25.48908 0 0 1 -6.771202,2.741627 c 6.416069,-1.505764 12.015334,-4.474676 16.321913,-8.329053 3.468465,-6.420805 4.540967,-14.579394 2.42911,-22.735615 z"
     id="path132"
     inkscape:connector-curvature="0"
     style="fill:#ff9900;stroke-width:0.23675534" />
  <path
     class="cls-4"
     d="m 125.0087,35.154138 5.72239,-7.178423 c 0.13967,-0.177566 0.27462,-0.33856 0.40958,-0.47351 l 0.34803,-0.371707 c 0.11364,-0.123112 0.22019,-0.236754 0.31726,-0.317251 v -0.04972 l -0.29359,0.02367 c -0.0971,0 -0.21781,0.01421 -0.3646,0.01895 -0.14678,0.0048 -0.32199,0 -0.5256,0 h -5.36961 v -1.155366 a 1.5436449,1.5436449 0 0 1 1.54364,-1.541277 h 9.30686 v 1.721211 l -5.72474,7.176055 c -0.14679,0.187036 -0.2841,0.350397 -0.41433,0.490083 -0.13021,0.139686 -0.24859,0.260431 -0.35512,0.364604 -0.10655,0.104172 -0.23676,0.236755 -0.32909,0.317251 v 0.04972 l 0.29357,-0.03788 0.36461,-0.02367 c 0.14678,0 0.32671,-0.01184 0.53743,-0.01184 h 5.79813 v 2.696644 H 125.0087 Z"
     id="path134"
     inkscape:connector-curvature="0"
     style="fill:#52aae5;stroke-width:0.23675534" />
  <path
     class="cls-4"
     d="m 163.36544,33.177231 a 3.3784988,3.3784988 0 0 1 0.41432,-1.728314 3.8449067,3.8449067 0 0 1 1.08197,-1.183778 5.4193298,5.4193298 0 0 1 1.50103,-0.757616 12.176327,12.176327 0 0 1 1.67859,-0.421425 12.971825,12.971825 0 0 1 1.5981,-0.182302 c 0.5043,-0.02367 0.93046,-0.03552 1.28085,-0.03552 h 0.42853 V 28.68361 a 2.6942758,2.6942758 0 0 0 -0.18467,-1.055929 1.7141087,1.7141087 0 0 0 -0.51139,-0.696061 2.0692417,2.0692417 0 0 0 -0.7813,-0.376441 3.8851552,3.8851552 0 0 0 -0.9778,-0.116009 4.5172919,4.5172919 0 0 0 -1.32346,0.189403 8.0496816,8.0496816 0 0 0 -1.11748,0.419058 v 0 a 1.2548033,1.2548033 0 0 1 -1.65729,-0.537435 l -0.045,-0.0876 a 1.2500682,1.2500682 0 0 1 0.56584,-1.70464 l 0.25096,-0.118377 a 11.212733,11.212733 0 0 1 1.56969,-0.542169 7.7797805,7.7797805 0 0 1 2.05504,-0.250961 7.0126933,7.0126933 0 0 1 2.24681,0.336193 4.3965467,4.3965467 0 0 1 1.65728,0.989637 4.320785,4.320785 0 0 1 1.03935,1.598098 6.0443639,6.0443639 0 0 1 0.35988,2.154474 v 7.969185 h -2.9263 V 35.80521 c 0,-0.123113 0,-0.236756 0,-0.348031 0,-0.111275 0,-0.205977 0.019,-0.286474 0.019,-0.0805 0.0165,-0.179934 0.0236,-0.269901 h -0.0474 l -0.0734,0.158626 a 3.2246077,3.2246077 0 0 1 -0.27463,0.428527 4.1479536,4.1479536 0 0 1 -0.49482,0.542171 4.3136824,4.3136824 0 0 1 -0.73394,0.544537 4.2615962,4.2615962 0 0 1 -0.99911,0.421424 4.7351069,4.7351069 0 0 1 -1.29505,0.163361 5.1541638,5.1541638 0 0 1 -1.64309,-0.265166 4.1219106,4.1219106 0 0 1 -1.38501,-0.769455 3.6294594,3.6294594 0 0 1 -0.94703,-1.250068 3.8922579,3.8922579 0 0 1 -0.35276,-1.697535 z m 3.19857,-0.146789 a 1.6288768,1.6288768 0 0 0 0.12074,0.615564 1.531807,1.531807 0 0 0 0.35987,0.525597 1.8277513,1.8277513 0 0 0 0.59899,0.364603 2.3036295,2.3036295 0 0 0 0.84759,0.142053 2.279954,2.279954 0 0 0 1.15536,-0.305414 3.1819918,3.1819918 0 0 0 0.91387,-0.793131 3.8662147,3.8662147 0 0 0 0.59899,-1.081971 3.4447902,3.4447902 0 0 0 0.21309,-1.183777 V 31.02039 h -0.54928 c -0.27701,0 -0.57294,0 -0.88546,0.02367 a 9.2689717,9.2689717 0 0 0 -0.94703,0.09943 6.6291496,6.6291496 0 0 0 -0.91623,0.205977 2.9168258,2.9168258 0 0 0 -0.7742,0.359868 1.8656321,1.8656321 0 0 0 -0.53744,0.544537 1.4015917,1.4015917 0 0 0 -0.19886,0.776558 z"
     id="path136"
     inkscape:connector-curvature="0"
     style="fill:#52aae5;stroke-width:0.23675534" />
  <path
     class="cls-3"
     d="m 179.25645,33.750178 v 0 a 1.5862608,1.5862608 0 0 1 1.58627,1.586261 v 0 a 1.5862608,1.5862608 0 0 1 -1.58627,1.586261 v 0 a 1.5862608,1.5862608 0 0 1 -1.58626,-1.586261 v 0 a 1.5862608,1.5862608 0 0 1 1.58626,-1.586261 z"
     id="path138"
     inkscape:connector-curvature="0"
     style="fill:#6feacd;stroke-width:0.23675534" />
  <path
     class="cls-4"
     d="m 185.75539,24.109501 h 1.36609 v 0.916243 c 0,0.120745 0,0.236755 0,0.340927 0,0.104173 -0.0119,0.198875 -0.019,0.281739 -0.007,0.08286 -0.0165,0.175199 -0.0236,0.255696 h 0.0474 a 3.9964302,3.9964302 0 0 1 0.92808,-1.048826 5.5377074,5.5377074 0 0 1 0.55638,-0.385911 4.188202,4.188202 0 0 1 0.71027,-0.336193 5.5992639,5.5992639 0 0 1 0.87125,-0.236755 5.8573271,5.8573271 0 0 1 3.37614,0.395381 5.1470612,5.1470612 0 0 1 1.7804,1.368446 6.1911522,6.1911522 0 0 1 1.13642,2.111858 8.8475472,8.8475472 0 0 1 0.39539,2.708481 8.2106753,8.2106753 0 0 1 -0.438,2.7582 6.2195629,6.2195629 0 0 1 -1.22166,2.10002 5.4453729,5.4453729 0 0 1 -1.84905,1.342402 5.6489825,5.6489825 0 0 1 -2.32494,0.473511 4.406017,4.406017 0 0 1 -1.63598,-0.274636 5.2086175,5.2086175 0 0 1 -1.13406,-0.603726 4.0650893,4.0650893 0 0 1 -0.87836,-0.878363 h -0.0497 c 0,0.08997 0.0165,0.191773 0.0236,0.305415 0.007,0.113643 0.0142,0.21308 0.019,0.34803 0.005,0.134951 0,0.281739 0,0.4451 v 6.50367 h -3.17964 V 25.650778 a 1.5436449,1.5436449 0 0 1 1.54365,-1.541277 z m 1.53181,6.44448 a 5.2086175,5.2086175 0 0 0 0.20361,1.446576 3.9159333,3.9159333 0 0 0 0.59662,1.250068 3.0588791,3.0588791 0 0 0 0.98964,0.885464 2.7392593,2.7392593 0 0 0 1.38501,0.336193 3.0138955,3.0138955 0 0 0 1.24534,-0.262799 2.9026205,2.9026205 0 0 0 1.01805,-0.762351 3.7573073,3.7573073 0 0 0 0.68895,-1.233496 5.0286835,5.0286835 0 0 0 0.25807,-1.68333 5.53534,5.53534 0 0 0 -0.23676,-1.657288 3.8093934,3.8093934 0 0 0 -0.65344,-1.25717 2.9760146,2.9760146 0 0 0 -1.00621,-0.804969 2.9026205,2.9026205 0 0 0 -1.29505,-0.286474 3.170154,3.170154 0 0 0 -1.19562,0.236755 2.7937131,2.7937131 0 0 0 -1.02042,0.710267 3.6010488,3.6010488 0 0 0 -0.71026,1.250068 5.492724,5.492724 0 0 0 -0.26753,1.830119 z"
     id="path140"
     inkscape:connector-curvature="0"
     style="fill:#52aae5;stroke-width:0.23675534" />
  <path
     class="cls-4"
     d="m 200.78462,18.245071 h 1.6052 v 14.150867 a 3.6862807,3.6862807 0 0 0 0.0852,0.866525 1.2548033,1.2548033 0 0 0 0.2557,0.535066 0.91861073,0.91861073 0 0 0 0.40958,0.274637 1.707006,1.707006 0 0 0 0.55401,0.0805 h 0.17757 a 0.7883953,0.7883953 0 0 0 0.13969,0 0.99674,0.99674 0 0 0 0.14678,-0.01183 v 2.753465 a 2.5782657,2.5782657 0 0 1 -0.29121,0.03552 5.2251904,5.2251904 0 0 1 -0.69606,0.03788 7.5027768,7.5027768 0 0 1 -1.3566,-0.127848 3.037571,3.037571 0 0 1 -1.26901,-0.556375 3.0920248,3.0920248 0 0 1 -0.94703,-1.238231 5.386184,5.386184 0 0 1 -0.36459,-2.178149 V 19.788716 a 1.5436449,1.5436449 0 0 1 1.55074,-1.543645 z"
     id="path142"
     inkscape:connector-curvature="0"
     style="fill:#52aae5;stroke-width:0.23675534" />
  <path
     class="cls-4"
     d="m 123.4982,24.178159 a 3.4140121,3.4140121 0 0 0 -1.9911,-0.179933 4.0248408,4.0248408 0 0 0 -1.1601,0.459305 4.1834669,4.1834669 0 0 0 -0.59899,0.419057 4.6475074,4.6475074 0 0 0 -0.90205,1.036989 5.514032,5.514032 0 0 0 -0.60372,1.280846 h -0.0497 c 0,-0.0876 0.0165,-0.177567 0.0261,-0.267534 0.009,-0.08997 0,-0.175198 0.0165,-0.281739 0.0165,-0.106539 0,-0.217814 0,-0.340928 v -2.194721 h -1.33529 a 1.7188438,1.7188438 0 0 0 -1.71648,1.718844 v 11.023329 h 3.17252 v -5.054728 a 8.3598312,8.3598312 0 0 1 0.0687,-1.079604 6.070407,6.070407 0 0 1 0.21308,-0.994372 3.8875227,3.8875227 0 0 1 0.60373,-1.214555 3.7241615,3.7241615 0 0 1 0.85468,-0.831011 c 0.0805,-0.05445 0.161,-0.10654 0.23676,-0.153891 a 3.3358828,3.3358828 0 0 1 0.74578,-0.321988 4.055619,4.055619 0 0 1 1.55548,-0.127848 l 0.15863,0.01657 c 0.09,0.01421 0.17757,0.02604 0.26753,0.04498 l 0.76472,-2.213662 a 0.5895208,0.5895208 0 0 0 -0.34093,-0.743413 z"
     id="path144"
     inkscape:connector-curvature="0"
     style="fill:#52aae5;stroke-width:0.23675534" />
  <path
     class="cls-4"
     d="m 95.307748,24.109501 v 5.847857 a 5.5211346,5.5211346 0 0 1 -0.236755,1.628876 4.3373578,4.3373578 0 0 1 -0.688958,1.366079 3.3784988,3.3784988 0 0 1 -1.124588,0.947021 3.2317104,3.2317104 0 0 1 -1.524705,0.352765 2.1686789,2.1686789 0 0 1 -0.970696,-0.189404 1.5081316,1.5081316 0 0 1 -0.608461,-0.530331 2.1307981,2.1307981 0 0 1 -0.312518,-0.816807 6.0633044,6.0633044 0 0 1 -0.08523,-1.063031 v -7.543025 h -1.456046 a 1.7164763,1.7164763 0 0 0 -1.716476,1.718844 v 6.470523 a 7.1973624,7.1973624 0 0 0 0.303047,2.227868 3.8046584,3.8046584 0 0 0 0.885465,1.508131 3.4542604,3.4542604 0 0 0 1.396857,0.854687 5.9496618,5.9496618 0 0 0 1.844324,0.267534 4.9860676,4.9860676 0 0 0 1.519969,-0.224918 5.1873095,5.1873095 0 0 0 1.269008,-0.603726 4.9339814,4.9339814 0 0 0 0.984903,-0.854687 4.4675733,4.4675733 0 0 0 0.525597,-0.738677 v 0.400117 a 1.7141087,1.7141087 0 0 0 1.716476,1.716477 h 1.456048 V 24.109501 Z"
     id="path146"
     inkscape:connector-curvature="0"
     style="fill:#52aae5;stroke-width:0.23675534" />
  <path
     class="cls-4"
     d="m 113.18041,24.109501 h -3.78809 a 1.7164763,1.7164763 0 0 0 -1.21455,0.504288 l -3.61289,3.612887 v -9.981605 h -1.62887 a 1.5412773,1.5412773 0 0 0 -1.54365,1.543645 v 17.060589 h 3.17252 v -4.114808 l 4.11481,4.114808 h 4.49835 l -6.36872,-6.371086 z"
     id="path148"
     inkscape:connector-curvature="0"
     style="fill:#52aae5;stroke-width:0.23675534" />
  <path
     class="cls-4"
     d="m 79.265207,37.131044 a 6.5794309,6.5794309 0 1 1 4.652242,-11.231673 1.3234624,1.3234624 0 1 1 -1.870367,1.870368 3.9348738,3.9348738 0 1 0 0,5.566118 1.3234624,1.3234624 0 0 1 1.870367,1.870367 6.5557555,6.5557555 0 0 1 -4.652242,1.92482 z"
     id="path150"
     inkscape:connector-curvature="0"
     style="fill:#52aae5;stroke-width:0.23675534" />
  <path
     class="cls-4"
     d="m 156.87124,37.131044 a 6.5794309,6.5794309 0 1 1 4.65461,-11.231673 1.3234624,1.3234624 0 0 1 -1.87274,1.870368 3.9348738,3.9348738 0 1 0 0,5.566118 1.3234624,1.3234624 0 0 1 1.87274,1.870367 6.5628581,6.5628581 0 0 1 -4.65461,1.92482 z"
     id="path152"
     inkscape:connector-curvature="0"
     style="fill:#52aae5;stroke-width:0.23675534" />
  <path
     class="cls-4"
     d="m 148.23914,24.109501 a 1.7188438,1.7188438 0 0 0 -1.62651,1.167204 l -0.87836,2.604308 -1.56496,4.469941 -2.59956,-6.347411 v 0 l -0.27702,-0.755249 a 1.7164763,1.7164763 0 0 0 -1.61229,-1.129323 h -2.36756 l 2.80792,6.558123 0.96833,2.263381 v 0 l 1.57915,3.691016 -0.14442,0.416689 -0.16098,0.378809 h 0.0261 l -1.5176,4.334991 h 2.7582 l 4.11244,-10.585332 2.744,-7.067147 z"
     id="path154"
     inkscape:connector-curvature="0"
     style="fill:#52aae5;stroke-width:0.23675534" />
</svg>
