<svg id="Layer_1" data-name="Layer 1" xmlns="http://www.w3.org/2000/svg" viewBox="0 0 50 30"><defs><style>.cls-1{fill:#1d1d1b;}.cls-2{fill:#f5f5f5;}</style></defs><title>Combined Shape</title><rect class="cls-1" x="2.082" y="5" width="14" height="20" rx="1.5" ry="1.5"/><path class="cls-2" d="M11.223,21.325H8.753V12.018a8.514,8.514,0,0,1-3.19,1.872V11.648a7.142,7.142,0,0,0,2.1-1.2A4.559,4.559,0,0,0,9.219,8.388h2V21.325Z"/><rect class="cls-1" x="18.041" y="5" width="14" height="20" rx="1.5" ry="1.5"/><path class="cls-2" d="M25.037,8.388a3.521,3.521,0,0,1,2.927,1.336q1.257,1.582,1.257,5.247t-1.266,5.256a3.515,3.515,0,0,1-2.918,1.318A3.687,3.687,0,0,1,22,20.1q-1.151-1.446-1.151-5.155,0-3.639,1.266-5.238A3.515,3.515,0,0,1,25.037,8.388Zm0,2.048a1.234,1.234,0,0,0-.8.286,1.918,1.918,0,0,0-.545,1.024,14.123,14.123,0,0,0-.255,3.226,14.019,14.019,0,0,0,.229,3.116,2.183,2.183,0,0,0,.576,1.129,1.263,1.263,0,0,0,1.595,0,1.918,1.918,0,0,0,.545-1.024,14,14,0,0,0,.255-3.217,14.019,14.019,0,0,0-.229-3.116,2.221,2.221,0,0,0-.576-1.134A1.215,1.215,0,0,0,25.037,10.436Z"/><rect class="cls-1" x="33.979" y="5" width="14" height="20" rx="1.5" ry="1.5"/><path class="cls-2" d="M40.975,8.388A3.521,3.521,0,0,1,43.9,9.724q1.257,1.582,1.257,5.247t-1.266,5.256a3.515,3.515,0,0,1-2.918,1.318A3.687,3.687,0,0,1,37.943,20.1q-1.151-1.446-1.151-5.155,0-3.639,1.266-5.238A3.515,3.515,0,0,1,40.975,8.388Zm0,2.048a1.234,1.234,0,0,0-.8.286,1.918,1.918,0,0,0-.545,1.024,14.123,14.123,0,0,0-.255,3.226,14.019,14.019,0,0,0,.229,3.116,2.183,2.183,0,0,0,.576,1.129,1.263,1.263,0,0,0,1.595,0,1.918,1.918,0,0,0,.545-1.024,14,14,0,0,0,.255-3.217,14.019,14.019,0,0,0-.229-3.116,2.221,2.221,0,0,0-.576-1.134A1.215,1.215,0,0,0,40.975,10.436Z"/></svg>