<svg id="Layer_1" data-name="Layer 1" xmlns="http://www.w3.org/2000/svg" viewBox="0 0 50 30"><defs><style>.cls-1{fill:#1d1d1b;}.cls-2{fill:#f5f5f5;}</style></defs><title>Combined Shape</title><rect class="cls-1" x="2.082" y="5" width="14" height="20" rx="1.5" ry="1.5"/><path class="cls-2" d="M13.244,19.031v2.294H4.587a5.962,5.962,0,0,1,.844-2.465,16.406,16.406,0,0,1,2.777-3.089,17.469,17.469,0,0,0,2.048-2.109,2.717,2.717,0,0,0,.51-1.512,1.722,1.722,0,0,0-.443-1.27A1.66,1.66,0,0,0,9.1,10.436a1.645,1.645,0,0,0-1.23.466,2.392,2.392,0,0,0-.527,1.547L4.877,12.2a4.035,4.035,0,0,1,1.38-2.927,4.633,4.633,0,0,1,2.9-.888,4.192,4.192,0,0,1,3,1.028,3.373,3.373,0,0,1,1.09,2.558,4.453,4.453,0,0,1-.312,1.657,6.734,6.734,0,0,1-.988,1.648,15.823,15.823,0,0,1-1.617,1.644q-1.169,1.072-1.48,1.424a4.21,4.21,0,0,0-.506.686h4.9Z"/><rect class="cls-1" x="18.041" y="5" width="14" height="20" rx="1.5" ry="1.5"/><path class="cls-2" d="M25.037,8.388a3.521,3.521,0,0,1,2.927,1.336q1.257,1.582,1.257,5.247t-1.266,5.256a3.515,3.515,0,0,1-2.918,1.318A3.687,3.687,0,0,1,22,20.1q-1.151-1.446-1.151-5.155,0-3.639,1.266-5.238A3.515,3.515,0,0,1,25.037,8.388Zm0,2.048a1.234,1.234,0,0,0-.8.286,1.918,1.918,0,0,0-.545,1.024,14.123,14.123,0,0,0-.255,3.226,14.019,14.019,0,0,0,.229,3.116,2.183,2.183,0,0,0,.576,1.129,1.263,1.263,0,0,0,1.595,0,1.918,1.918,0,0,0,.545-1.024,14,14,0,0,0,.255-3.217,14.019,14.019,0,0,0-.229-3.116,2.221,2.221,0,0,0-.576-1.134A1.215,1.215,0,0,0,25.037,10.436Z"/><rect class="cls-1" x="33.979" y="5" width="14" height="20" rx="1.5" ry="1.5"/><path class="cls-2" d="M40.975,8.388A3.521,3.521,0,0,1,43.9,9.724q1.257,1.582,1.257,5.247t-1.266,5.256a3.515,3.515,0,0,1-2.918,1.318A3.687,3.687,0,0,1,37.943,20.1q-1.151-1.446-1.151-5.155,0-3.639,1.266-5.238A3.515,3.515,0,0,1,40.975,8.388Zm0,2.048a1.234,1.234,0,0,0-.8.286,1.918,1.918,0,0,0-.545,1.024,14.123,14.123,0,0,0-.255,3.226,14.019,14.019,0,0,0,.229,3.116,2.183,2.183,0,0,0,.576,1.129,1.263,1.263,0,0,0,1.595,0,1.918,1.918,0,0,0,.545-1.024,14,14,0,0,0,.255-3.217,14.019,14.019,0,0,0-.229-3.116,2.221,2.221,0,0,0-.576-1.134A1.215,1.215,0,0,0,40.975,10.436Z"/></svg>