<svg id="Layer_1" data-name="Layer 1" xmlns="http://www.w3.org/2000/svg" viewBox="0 0 50 30"><defs><style>.cls-1{fill:#1d1d1b;}.cls-2{fill:#f5f5f5;}</style></defs><title>Combined Shape</title><rect class="cls-1" x="2.082" y="5" width="14" height="20" rx="1.5" ry="1.5"/><path class="cls-2" d="M4.816,17.906l2.391-.29a2.263,2.263,0,0,0,.615,1.4,1.74,1.74,0,0,0,2.5-.1,2.253,2.253,0,0,0,.522-1.564,2.1,2.1,0,0,0-.5-1.477,1.6,1.6,0,0,0-1.222-.545,4.309,4.309,0,0,0-1.134.185L8.261,13.5a2.165,2.165,0,0,0,1.529-.435,1.549,1.549,0,0,0,.527-1.226A1.331,1.331,0,0,0,8.9,10.418a1.488,1.488,0,0,0-1.081.439,2.064,2.064,0,0,0-.545,1.283L5,11.754a5.07,5.07,0,0,1,.717-1.868,3.221,3.221,0,0,1,1.336-1.1,4.482,4.482,0,0,1,1.92-.4,3.831,3.831,0,0,1,2.918,1.16,2.937,2.937,0,0,1-.949,4.852,3,3,0,0,1,1.771,1.063,3.091,3.091,0,0,1,.663,2,3.87,3.87,0,0,1-1.239,2.892,4.269,4.269,0,0,1-3.085,1.2,4.248,4.248,0,0,1-2.9-1.006A3.955,3.955,0,0,1,4.816,17.906Z"/><rect class="cls-1" x="18.041" y="5" width="14" height="20" rx="1.5" ry="1.5"/><path class="cls-2" d="M25.037,8.388a3.521,3.521,0,0,1,2.927,1.336q1.257,1.582,1.257,5.247t-1.266,5.256a3.515,3.515,0,0,1-2.918,1.318A3.687,3.687,0,0,1,22,20.1q-1.151-1.446-1.151-5.155,0-3.639,1.266-5.238A3.515,3.515,0,0,1,25.037,8.388Zm0,2.048a1.234,1.234,0,0,0-.8.286,1.918,1.918,0,0,0-.545,1.024,14.123,14.123,0,0,0-.255,3.226,14.019,14.019,0,0,0,.229,3.116,2.183,2.183,0,0,0,.576,1.129,1.263,1.263,0,0,0,1.595,0,1.918,1.918,0,0,0,.545-1.024,14,14,0,0,0,.255-3.217,14.019,14.019,0,0,0-.229-3.116,2.221,2.221,0,0,0-.576-1.134A1.215,1.215,0,0,0,25.037,10.436Z"/><rect class="cls-1" x="33.979" y="5" width="14" height="20" rx="1.5" ry="1.5"/><path class="cls-2" d="M40.975,8.388A3.521,3.521,0,0,1,43.9,9.724q1.257,1.582,1.257,5.247t-1.266,5.256a3.515,3.515,0,0,1-2.918,1.318A3.687,3.687,0,0,1,37.943,20.1q-1.151-1.446-1.151-5.155,0-3.639,1.266-5.238A3.515,3.515,0,0,1,40.975,8.388Zm0,2.048a1.234,1.234,0,0,0-.8.286,1.918,1.918,0,0,0-.545,1.024,14.123,14.123,0,0,0-.255,3.226,14.019,14.019,0,0,0,.229,3.116,2.183,2.183,0,0,0,.576,1.129,1.263,1.263,0,0,0,1.595,0,1.918,1.918,0,0,0,.545-1.024,14,14,0,0,0,.255-3.217,14.019,14.019,0,0,0-.229-3.116,2.221,2.221,0,0,0-.576-1.134A1.215,1.215,0,0,0,40.975,10.436Z"/></svg>