<svg id="Layer_1" data-name="Layer 1" xmlns="http://www.w3.org/2000/svg" viewBox="0 0 50 30"><defs><style>.cls-1{fill:#1d1d1b;}.cls-2{fill:#f5f5f5;}</style></defs><title>Combined Shape</title><rect class="cls-1" x="10.021" y="5" width="14" height="20" rx="1.5" ry="1.5"/><path class="cls-2" d="M12.877,18.012l2.461-.255a2.111,2.111,0,0,0,.624,1.323,1.693,1.693,0,0,0,1.2.488,1.659,1.659,0,0,0,1.31-.628A2.859,2.859,0,0,0,19,17.045a2.6,2.6,0,0,0-.531-1.78,1.774,1.774,0,0,0-1.385-.593,2.515,2.515,0,0,0-1.907.94l-2-.29,1.266-6.706h6.53v2.312H16.314l-0.387,2.188A3.775,3.775,0,0,1,20.4,13.9,4.3,4.3,0,0,1,21.543,17a4.652,4.652,0,0,1-.923,2.839,4.091,4.091,0,0,1-3.489,1.705,4.331,4.331,0,0,1-2.909-.958A3.946,3.946,0,0,1,12.877,18.012Z"/><rect class="cls-1" x="25.979" y="5" width="14" height="20" rx="1.5" ry="1.5"/><path class="cls-2" d="M32.975,8.388A3.521,3.521,0,0,1,35.9,9.724q1.257,1.582,1.257,5.247t-1.266,5.256a3.515,3.515,0,0,1-2.918,1.318A3.687,3.687,0,0,1,29.943,20.1q-1.151-1.446-1.151-5.155,0-3.639,1.266-5.238A3.515,3.515,0,0,1,32.975,8.388Zm0,2.048a1.234,1.234,0,0,0-.8.286,1.918,1.918,0,0,0-.545,1.024,14.123,14.123,0,0,0-.255,3.226,14.019,14.019,0,0,0,.229,3.116,2.183,2.183,0,0,0,.576,1.129,1.263,1.263,0,0,0,1.595,0,1.918,1.918,0,0,0,.545-1.024,14,14,0,0,0,.255-3.217,14.019,14.019,0,0,0-.229-3.116,2.221,2.221,0,0,0-.576-1.134A1.215,1.215,0,0,0,32.975,10.436Z"/></svg>