<?xml version="1.0" encoding="UTF-8" standalone="no"?>
<svg width="35px" height="270px" viewBox="0 0 35 270" version="1.1" xmlns="http://www.w3.org/2000/svg" xmlns:xlink="http://www.w3.org/1999/xlink" style="background: transparent;">
    <!-- Generator: Sketch 3.7.1 (28215) - http://www.bohemiancoding.com/sketch -->
    <title>events</title>
    <desc>Created with Sketch.</desc>
    <defs>
        <rect id="path-1" x="0" y="0" width="11" height="16" rx="2"></rect>
        <mask id="mask-2" maskContentUnits="userSpaceOnUse" maskUnits="objectBoundingBox" x="0" y="0" width="11" height="16" fill="white">
            <use xlink:href="#path-1"></use>
        </mask>
        <mask id="mask-4" maskContentUnits="userSpaceOnUse" maskUnits="objectBoundingBox" x="0" y="0" width="11" height="16" fill="white">
            <use xlink:href="#path-1"></use>
        </mask>
        <rect id="path-5" x="0" y="0" width="11" height="16" rx="2"></rect>
        <mask id="mask-6" maskContentUnits="userSpaceOnUse" maskUnits="objectBoundingBox" x="0" y="0" width="11" height="16" fill="white">
            <use xlink:href="#path-5"></use>
        </mask>
        <mask id="mask-8" maskContentUnits="userSpaceOnUse" maskUnits="objectBoundingBox" x="0" y="0" width="11" height="16" fill="white">
            <use xlink:href="#path-5"></use>
        </mask>
        <rect id="path-9" x="0" y="0" width="11" height="16" rx="2"></rect>
        <mask id="mask-10" maskContentUnits="userSpaceOnUse" maskUnits="objectBoundingBox" x="0" y="0" width="11" height="16" fill="white">
            <use xlink:href="#path-9"></use>
        </mask>
        <mask id="mask-12" maskContentUnits="userSpaceOnUse" maskUnits="objectBoundingBox" x="0" y="0" width="11" height="16" fill="white">
            <use xlink:href="#path-9"></use>
        </mask>
        <rect id="path-13" x="0" y="0" width="11" height="16" rx="2"></rect>
        <mask id="mask-14" maskContentUnits="userSpaceOnUse" maskUnits="objectBoundingBox" x="0" y="0" width="11" height="16" fill="white">
            <use xlink:href="#path-13"></use>
        </mask>
        <mask id="mask-16" maskContentUnits="userSpaceOnUse" maskUnits="objectBoundingBox" x="0" y="0" width="11" height="16" fill="white">
            <use xlink:href="#path-13"></use>
        </mask>
    </defs>
    <g id="Page-1" stroke="none" stroke-width="1" fill="none" fill-rule="evenodd">
        <g id="events">
            <polygon id="sub-on" fill="#3FA41D" points="17.5 37 23 45 12 45"></polygon>
            <polygon id="sub-off" fill="#DC2429" transform="translate(17.500000, 59.000000) rotate(-180.000000) translate(-17.500000, -59.000000) " points="17.5 55 23 63 12 63"></polygon>
            <g id="card-yellow" transform="translate(12.000000, 73.000000)">
                <mask id="mask-3" fill="white">
                    <use xlink:href="#path-1"></use>
                </mask>
                <g id="Mask" stroke="#FBB203" mask="url(#mask-2)" stroke-width="2" stroke-linecap="round" stroke-linejoin="round" fill="#FCCF00">
                    <use mask="url(#mask-4)" xlink:href="#path-1"></use>
                </g>
            </g>
            <g id="card-red" transform="translate(12.000000, 99.000000)">
                <mask id="mask-7" fill="white">
                    <use xlink:href="#path-5"></use>
                </mask>
                <g id="Mask" stroke="#AF0001" mask="url(#mask-6)" stroke-width="2" stroke-linecap="round" stroke-linejoin="round" fill="#E22123">
                    <use mask="url(#mask-8)" xlink:href="#path-5"></use>
                </g>
                <polygon id="Rectangle-5" fill="#FFFFFF" opacity="0.4" mask="url(#mask-7)" points="0 0 11 0 11 9 0 6"></polygon>
            </g>
            <g id="card-second-yellow" transform="translate(11.000000, 125.000000)">
                <g id="Group">
                    <mask id="mask-11" fill="white">
                        <use xlink:href="#path-9"></use>
                    </mask>
                    <g id="Mask" stroke="#FBB203" mask="url(#mask-10)" stroke-width="2" stroke-linecap="round" stroke-linejoin="round" fill="#FCCF00">
                        <use mask="url(#mask-12)" xlink:href="#path-9"></use>
                    </g>
                    <polygon id="Rectangle-5" fill="#FFFFFF" opacity="0.4" mask="url(#mask-11)" points="3 -49 14 -49 14 -40 3 -43"></polygon>
                </g>
                <g id="Group-2" transform="translate(3.000000, 3.000000)">
                    <mask id="mask-15" fill="white">
                        <use xlink:href="#path-13"></use>
                    </mask>
                    <g id="Mask" stroke="#AF0001" mask="url(#mask-14)" stroke-width="2" stroke-linecap="round" stroke-linejoin="round" fill="#E22123">
                        <use mask="url(#mask-16)" xlink:href="#path-13"></use>
                    </g>
                    <polygon id="Rectangle-5" fill="#FFFFFF" opacity="0.4" mask="url(#mask-15)" points="0 0 11 0 11 9 0 6"></polygon>
                </g>
            </g>
            <circle id="Oval-151" fill="#FFFFFF" cx="16.5" cy="160.5" r="6.5"></circle>
            <path d="M22.4547461,157.969027 C22.1247241,157.192478 21.6655629,156.502212 21.0629139,155.89823 C20.4746137,155.308628 19.7715232,154.834071 18.9966887,154.503319 C18.2075055,154.172566 17.3609272,154 16.4856512,154 C15.6103753,154 14.7637969,154.172566 13.9602649,154.517699 C13.1854305,154.848451 12.4966887,155.308628 11.8940397,155.912611 C11.3057395,156.502212 10.8322296,157.206858 10.5022075,157.983407 C10.1721854,158.774336 10,159.622788 10,160.5 C10,161.377212 10.1721854,162.225664 10.5165563,163.030973 C10.8465784,163.807522 11.3057395,164.497788 11.9083885,165.10177 C12.4966887,165.691372 13.1997792,166.165929 13.9746137,166.496681 C14.7781457,166.841814 15.6247241,167 16.5,167 C17.3752759,167 18.2218543,166.827434 19.0253863,166.496681 C19.8002208,166.165929 20.4889625,165.705752 21.0916115,165.10177 C21.6799117,164.512168 22.1534216,163.807522 22.4834437,163.030973 C22.8278146,162.225664 23,161.377212 23,160.5 C22.9569536,159.622788 22.7847682,158.774336 22.4547461,157.969027 Z M14.4481236,159.349558 C14.7064018,160.945796 15.2516556,161.707965 15.2516556,161.707965 C15.7538631,161.880531 16.4856512,161.85177 16.5143488,161.85177 C16.5143488,161.85177 17.2604857,161.894912 17.7770419,161.707965 C17.7770419,161.707965 18.3222958,160.945796 18.580574,159.349558 C18.580574,159.349558 17.6048565,158.429204 16.5286976,157.882743 C15.4238411,158.429204 14.4481236,159.349558 14.4481236,159.349558 Z M20.919426,164.123894 C21.0772627,163.505531 20.9624724,162.987832 20.9624724,162.987832 C20.9624724,162.987832 20.2450331,163.563053 18.9679912,163.606195 C18.9679912,163.606195 18.8101545,164.483407 17.7339956,165.389381 C17.7339956,165.389381 18.0783664,165.734513 18.6379691,165.806416 C17.9779249,166.079646 17.2461369,166.223451 16.4856512,166.223451 L16.4856512,166.223451 C15.7251656,166.223451 14.9933775,166.079646 14.3333333,165.806416 C14.892936,165.734513 15.2373068,165.389381 15.2373068,165.389381 C14.1611479,164.497788 14.0033113,163.620575 14.0033113,163.620575 C12.7262693,163.577434 12.00883,162.987832 12.00883,162.987832 C12.00883,162.987832 11.8796909,163.505531 12.0518764,164.123894 C11.2483444,163.131637 10.7604857,161.86615 10.7604857,160.485619 C10.7604857,160.356195 10.7604857,160.22677 10.7748344,160.097345 C10.8609272,160.269912 11.0331126,160.485619 11.3774834,160.571903 C11.3774834,160.571903 11.5640177,159.69469 12.5110375,158.716814 C12.5110375,158.716814 12.2671082,158.357301 12.410596,156.890487 C12.410596,156.890487 12.1523179,156.904867 11.8366446,157.134956 C12.5397351,156.15708 13.5441501,155.409292 14.7207506,155.021018 C14.5198675,155.207965 14.5055188,155.394912 14.5055188,155.394912 C16.0838852,155.394912 16.4856512,155.912611 16.4856512,155.912611 C16.4856512,155.912611 16.8874172,155.394912 18.4657837,155.394912 C18.4657837,155.394912 18.4514349,155.222345 18.2505519,155.021018 C19.4271523,155.409292 20.4315673,156.15708 21.1346578,157.134956 C20.8189845,156.904867 20.5607064,156.890487 20.5607064,156.890487 C20.7041943,158.357301 20.4602649,158.716814 20.4602649,158.716814 C21.4216336,159.69469 21.593819,160.571903 21.593819,160.571903 C21.9381898,160.485619 22.1103753,160.269912 22.196468,160.097345 C22.2108168,160.22677 22.2108168,160.356195 22.2108168,160.485619 C22.2108168,161.86615 21.7229581,163.131637 20.919426,164.123894 L20.919426,164.123894 Z" id="Shape" fill="#000000"></path>
            <circle id="Oval-151" fill="#FFFFFF" cx="16.5" cy="183.5" r="6.5"></circle>
            <path d="M22.4547461,180.969027 C22.1247241,180.192478 21.6655629,179.502212 21.0629139,178.89823 C20.4746137,178.308628 19.7715232,177.834071 18.9966887,177.503319 C18.2075055,177.172566 17.3609272,177 16.4856512,177 C15.6103753,177 14.7637969,177.172566 13.9602649,177.517699 C13.1854305,177.848451 12.4966887,178.308628 11.8940397,178.912611 C11.3057395,179.502212 10.8322296,180.206858 10.5022075,180.983407 C10.1721854,181.774336 10,182.622788 10,183.5 C10,184.377212 10.1721854,185.225664 10.5165563,186.030973 C10.8465784,186.807522 11.3057395,187.497788 11.9083885,188.10177 C12.4966887,188.691372 13.1997792,189.165929 13.9746137,189.496681 C14.7781457,189.841814 15.6247241,190 16.5,190 C17.3752759,190 18.2218543,189.827434 19.0253863,189.496681 C19.8002208,189.165929 20.4889625,188.705752 21.0916115,188.10177 C21.6799117,187.512168 22.1534216,186.807522 22.4834437,186.030973 C22.8278146,185.225664 23,184.377212 23,183.5 C22.9569536,182.622788 22.7847682,181.774336 22.4547461,180.969027 Z M14.4481236,182.349558 C14.7064018,183.945796 15.2516556,184.707965 15.2516556,184.707965 C15.7538631,184.880531 16.4856512,184.85177 16.5143488,184.85177 C16.5143488,184.85177 17.2604857,184.894912 17.7770419,184.707965 C17.7770419,184.707965 18.3222958,183.945796 18.580574,182.349558 C18.580574,182.349558 17.6048565,181.429204 16.5286976,180.882743 C15.4238411,181.429204 14.4481236,182.349558 14.4481236,182.349558 Z M20.919426,187.123894 C21.0772627,186.505531 20.9624724,185.987832 20.9624724,185.987832 C20.9624724,185.987832 20.2450331,186.563053 18.9679912,186.606195 C18.9679912,186.606195 18.8101545,187.483407 17.7339956,188.389381 C17.7339956,188.389381 18.0783664,188.734513 18.6379691,188.806416 C17.9779249,189.079646 17.2461369,189.223451 16.4856512,189.223451 L16.4856512,189.223451 C15.7251656,189.223451 14.9933775,189.079646 14.3333333,188.806416 C14.892936,188.734513 15.2373068,188.389381 15.2373068,188.389381 C14.1611479,187.497788 14.0033113,186.620575 14.0033113,186.620575 C12.7262693,186.577434 12.00883,185.987832 12.00883,185.987832 C12.00883,185.987832 11.8796909,186.505531 12.0518764,187.123894 C11.2483444,186.131637 10.7604857,184.86615 10.7604857,183.485619 C10.7604857,183.356195 10.7604857,183.22677 10.7748344,183.097345 C10.8609272,183.269912 11.0331126,183.485619 11.3774834,183.571903 C11.3774834,183.571903 11.5640177,182.69469 12.5110375,181.716814 C12.5110375,181.716814 12.2671082,181.357301 12.410596,179.890487 C12.410596,179.890487 12.1523179,179.904867 11.8366446,180.134956 C12.5397351,179.15708 13.5441501,178.409292 14.7207506,178.021018 C14.5198675,178.207965 14.5055188,178.394912 14.5055188,178.394912 C16.0838852,178.394912 16.4856512,178.912611 16.4856512,178.912611 C16.4856512,178.912611 16.8874172,178.394912 18.4657837,178.394912 C18.4657837,178.394912 18.4514349,178.222345 18.2505519,178.021018 C19.4271523,178.409292 20.4315673,179.15708 21.1346578,180.134956 C20.8189845,179.904867 20.5607064,179.890487 20.5607064,179.890487 C20.7041943,181.357301 20.4602649,181.716814 20.4602649,181.716814 C21.4216336,182.69469 21.593819,183.571903 21.593819,183.571903 C21.9381898,183.485619 22.1103753,183.269912 22.196468,183.097345 C22.2108168,183.22677 22.2108168,183.356195 22.2108168,183.485619 C22.2108168,184.86615 21.7229581,186.131637 20.919426,187.123894 L20.919426,187.123894 Z" id="Shape" fill="#E22123"></path>
            <circle id="Oval-151" fill="#FFFFFF" cx="16.5" cy="206.5" r="6.5"></circle>
            <path d="M22.4547461,203.969027 C22.1247241,203.192478 21.6655629,202.502212 21.0629139,201.89823 C20.4746137,201.308628 19.7715232,200.834071 18.9966887,200.503319 C18.2075055,200.172566 17.3609272,200 16.4856512,200 C15.6103753,200 14.7637969,200.172566 13.9602649,200.517699 C13.1854305,200.848451 12.4966887,201.308628 11.8940397,201.912611 C11.3057395,202.502212 10.8322296,203.206858 10.5022075,203.983407 C10.1721854,204.774336 10,205.622788 10,206.5 C10,207.377212 10.1721854,208.225664 10.5165563,209.030973 C10.8465784,209.807522 11.3057395,210.497788 11.9083885,211.10177 C12.4966887,211.691372 13.1997792,212.165929 13.9746137,212.496681 C14.7781457,212.841814 15.6247241,213 16.5,213 C17.3752759,213 18.2218543,212.827434 19.0253863,212.496681 C19.8002208,212.165929 20.4889625,211.705752 21.0916115,211.10177 C21.6799117,210.512168 22.1534216,209.807522 22.4834437,209.030973 C22.8278146,208.225664 23,207.377212 23,206.5 C22.9569536,205.622788 22.7847682,204.774336 22.4547461,203.969027 Z M14.4481236,205.349558 C14.7064018,206.945796 15.2516556,207.707965 15.2516556,207.707965 C15.7538631,207.880531 16.4856512,207.85177 16.5143488,207.85177 C16.5143488,207.85177 17.2604857,207.894912 17.7770419,207.707965 C17.7770419,207.707965 18.3222958,206.945796 18.580574,205.349558 C18.580574,205.349558 17.6048565,204.429204 16.5286976,203.882743 C15.4238411,204.429204 14.4481236,205.349558 14.4481236,205.349558 Z M20.919426,210.123894 C21.0772627,209.505531 20.9624724,208.987832 20.9624724,208.987832 C20.9624724,208.987832 20.2450331,209.563053 18.9679912,209.606195 C18.9679912,209.606195 18.8101545,210.483407 17.7339956,211.389381 C17.7339956,211.389381 18.0783664,211.734513 18.6379691,211.806416 C17.9779249,212.079646 17.2461369,212.223451 16.4856512,212.223451 L16.4856512,212.223451 C15.7251656,212.223451 14.9933775,212.079646 14.3333333,211.806416 C14.892936,211.734513 15.2373068,211.389381 15.2373068,211.389381 C14.1611479,210.497788 14.0033113,209.620575 14.0033113,209.620575 C12.7262693,209.577434 12.00883,208.987832 12.00883,208.987832 C12.00883,208.987832 11.8796909,209.505531 12.0518764,210.123894 C11.2483444,209.131637 10.7604857,207.86615 10.7604857,206.485619 C10.7604857,206.356195 10.7604857,206.22677 10.7748344,206.097345 C10.8609272,206.269912 11.0331126,206.485619 11.3774834,206.571903 C11.3774834,206.571903 11.5640177,205.69469 12.5110375,204.716814 C12.5110375,204.716814 12.2671082,204.357301 12.410596,202.890487 C12.410596,202.890487 12.1523179,202.904867 11.8366446,203.134956 C12.5397351,202.15708 13.5441501,201.409292 14.7207506,201.021018 C14.5198675,201.207965 14.5055188,201.394912 14.5055188,201.394912 C16.0838852,201.394912 16.4856512,201.912611 16.4856512,201.912611 C16.4856512,201.912611 16.8874172,201.394912 18.4657837,201.394912 C18.4657837,201.394912 18.4514349,201.222345 18.2505519,201.021018 C19.4271523,201.409292 20.4315673,202.15708 21.1346578,203.134956 C20.8189845,202.904867 20.5607064,202.890487 20.5607064,202.890487 C20.7041943,204.357301 20.4602649,204.716814 20.4602649,204.716814 C21.4216336,205.69469 21.593819,206.571903 21.593819,206.571903 C21.9381898,206.485619 22.1103753,206.269912 22.196468,206.097345 C22.2108168,206.22677 22.2108168,206.356195 22.2108168,206.485619 C22.2108168,207.86615 21.7229581,209.131637 20.919426,210.123894 L20.919426,210.123894 Z" id="Shape" fill="#000000"></path>
            <circle id="Oval-154" fill="#2FA624" cx="21" cy="211" r="4"></circle>
            <path d="M18.6516504,210.90165 L23.6516504,210.90165 L23.6516504,211.90165 L18.6516504,211.90165 L18.6516504,210.90165 Z M18.6516504,210.90165 L18.6516504,209.40165 L19.6516504,209.40165 L19.6516504,210.90165 L18.6516504,210.90165 Z" id="Combined-Shape" fill="#FFFFFF" transform="translate(21.151650, 210.651650) rotate(-45.000000) translate(-21.151650, -210.651650) "></path>
            <circle id="Oval-151" fill="#FFFFFF" cx="16.5" cy="231.5" r="6.5"></circle>
            <path d="M22.4547461,228.969027 C22.1247241,228.192478 21.6655629,227.502212 21.0629139,226.89823 C20.4746137,226.308628 19.7715232,225.834071 18.9966887,225.503319 C18.2075055,225.172566 17.3609272,225 16.4856512,225 C15.6103753,225 14.7637969,225.172566 13.9602649,225.517699 C13.1854305,225.848451 12.4966887,226.308628 11.8940397,226.912611 C11.3057395,227.502212 10.8322296,228.206858 10.5022075,228.983407 C10.1721854,229.774336 10,230.622788 10,231.5 C10,232.377212 10.1721854,233.225664 10.5165563,234.030973 C10.8465784,234.807522 11.3057395,235.497788 11.9083885,236.10177 C12.4966887,236.691372 13.1997792,237.165929 13.9746137,237.496681 C14.7781457,237.841814 15.6247241,238 16.5,238 C17.3752759,238 18.2218543,237.827434 19.0253863,237.496681 C19.8002208,237.165929 20.4889625,236.705752 21.0916115,236.10177 C21.6799117,235.512168 22.1534216,234.807522 22.4834437,234.030973 C22.8278146,233.225664 23,232.377212 23,231.5 C22.9569536,230.622788 22.7847682,229.774336 22.4547461,228.969027 Z M14.4481236,230.349558 C14.7064018,231.945796 15.2516556,232.707965 15.2516556,232.707965 C15.7538631,232.880531 16.4856512,232.85177 16.5143488,232.85177 C16.5143488,232.85177 17.2604857,232.894912 17.7770419,232.707965 C17.7770419,232.707965 18.3222958,231.945796 18.580574,230.349558 C18.580574,230.349558 17.6048565,229.429204 16.5286976,228.882743 C15.4238411,229.429204 14.4481236,230.349558 14.4481236,230.349558 Z M20.919426,235.123894 C21.0772627,234.505531 20.9624724,233.987832 20.9624724,233.987832 C20.9624724,233.987832 20.2450331,234.563053 18.9679912,234.606195 C18.9679912,234.606195 18.8101545,235.483407 17.7339956,236.389381 C17.7339956,236.389381 18.0783664,236.734513 18.6379691,236.806416 C17.9779249,237.079646 17.2461369,237.223451 16.4856512,237.223451 L16.4856512,237.223451 C15.7251656,237.223451 14.9933775,237.079646 14.3333333,236.806416 C14.892936,236.734513 15.2373068,236.389381 15.2373068,236.389381 C14.1611479,235.497788 14.0033113,234.620575 14.0033113,234.620575 C12.7262693,234.577434 12.00883,233.987832 12.00883,233.987832 C12.00883,233.987832 11.8796909,234.505531 12.0518764,235.123894 C11.2483444,234.131637 10.7604857,232.86615 10.7604857,231.485619 C10.7604857,231.356195 10.7604857,231.22677 10.7748344,231.097345 C10.8609272,231.269912 11.0331126,231.485619 11.3774834,231.571903 C11.3774834,231.571903 11.5640177,230.69469 12.5110375,229.716814 C12.5110375,229.716814 12.2671082,229.357301 12.410596,227.890487 C12.410596,227.890487 12.1523179,227.904867 11.8366446,228.134956 C12.5397351,227.15708 13.5441501,226.409292 14.7207506,226.021018 C14.5198675,226.207965 14.5055188,226.394912 14.5055188,226.394912 C16.0838852,226.394912 16.4856512,226.912611 16.4856512,226.912611 C16.4856512,226.912611 16.8874172,226.394912 18.4657837,226.394912 C18.4657837,226.394912 18.4514349,226.222345 18.2505519,226.021018 C19.4271523,226.409292 20.4315673,227.15708 21.1346578,228.134956 C20.8189845,227.904867 20.5607064,227.890487 20.5607064,227.890487 C20.7041943,229.357301 20.4602649,229.716814 20.4602649,229.716814 C21.4216336,230.69469 21.593819,231.571903 21.593819,231.571903 C21.9381898,231.485619 22.1103753,231.269912 22.196468,231.097345 C22.2108168,231.22677 22.2108168,231.356195 22.2108168,231.485619 C22.2108168,232.86615 21.7229581,234.131637 20.919426,235.123894 L20.919426,235.123894 Z" id="Shape" fill="#000000"></path>
            <circle id="Oval-154" fill="#E81D1C" cx="21" cy="236" r="4"></circle>
            <path d="M20.4445436,236.15165 L19,237.596194 L19.7071068,238.303301 L21.1516504,236.858757 L22.5355339,238.242641 L23.2426407,237.535534 L21.8587572,236.15165 L23.2426407,234.767767 L22.5355339,234.06066 L21.1516504,235.444544 L19.7071068,234 L19,234.707107 L20.4445436,236.15165 Z" id="Combined-Shape" fill="#FFFFFF"></path>
            <path d="M20.2307692,251 L20.2330769,252.384875 L17.9230769,252.3905 L17.9230769,251 L11,251.019125 L11.0057692,253.719125 C13.0019231,253.71575 14.9276923,254.4605 16.5580769,255.40325 L16.5384615,255.5 C16.5384615,257.985125 18.605,260 21.1538462,260 C23.7026923,260 25.7692308,257.985125 25.7692308,255.5 C25.7692308,253.014875 23.7026923,251 21.1538462,251 L20.2307692,251 Z" id="Shape" fill="#424242"></path>
            <polyline id="sub-off" fill="#DC2429" points="17.892818 26.5294118 13 19 22.785636 19 17.892818 26.5294118"></polyline>
            <polygon id="sub-on" fill="#3FA41D" points="17.892818 10 22.785636 17.5294118 13 17.5294118"></polygon>
        </g>
    </g>
</svg>