<?xml version="1.0" encoding="UTF-8"?>
<svg width="86px" height="23px" viewBox="0 0 86 23" version="1.1" xmlns="http://www.w3.org/2000/svg" xmlns:xlink="http://www.w3.org/1999/xlink">
    <!-- Generator: Sketch 48.2 (47327) - http://www.bohemiancoding.com/sketch -->
    <title>Artboard 2 Copy 2</title>
    <desc>Created with Sketch.</desc>
    <defs></defs>
    <g id="Page-1" stroke="none" stroke-width="1" fill="none" fill-rule="evenodd">
        <g id="Artboard-2-Copy-2" fill="#FFFFFF" fill-rule="nonzero">
            <g id="Download_on_the_App_Store_Badge_US-UK_RGB_wht_092917-Copy" transform="translate(2.000000, 1.000000)">
                <g id="Group">
                    <g id="_Group_">
                        <g id="_Group_2">
                            <g id="_Group_3">
                                <path d="M12.8290447,10.5024333 C12.8472738,9.06497494 13.5890011,7.7372011 14.7943613,6.98429926 C14.0304995,5.87591156 12.796949,5.19836413 11.4658307,5.15605037 C10.0653808,5.00669481 8.70771653,6.00746667 7.99405842,6.00746667 C7.26660624,6.00746667 6.16784525,5.17088 4.98465178,5.19560963 C3.42788722,5.24671078 2.01174325,6.12418669 1.25434515,7.50699481 C-0.358525248,10.34418 0.844533267,14.5139052 2.38955614,16.8072911 C3.16256881,17.9302933 4.06599149,19.1847089 5.24811832,19.1402281 C6.40489455,19.0914778 6.83692931,18.3907859 8.23324901,18.3907859 C9.61661673,18.3907859 10.0219455,19.1402281 11.2280596,19.1119459 C12.4693405,19.0914778 13.2513915,17.983957 13.9972972,16.8503215 C14.5527061,16.0501436 14.9800921,15.1657724 15.263624,14.2299667 C13.7893623,13.5964477 12.8307604,12.1287523 12.8290447,10.5024333 Z" id="_Path_"></path>
                                <path d="M10.5509397,3.64777111 C11.2277396,2.82230276 11.5611747,1.76129972 11.4804348,0.690082963 C10.4464445,0.800421053 9.49132697,1.30250939 8.8053897,2.09630667 C8.12805727,2.87949533 7.78492254,3.90411628 7.85156257,4.94449185 C8.89941251,4.95545058 9.8943233,4.47751757 10.5509397,3.64777111 Z" id="_Path_2"></path>
                            </g>
                        </g>
                        <g id="Group" transform="translate(20.049505, 5.148148)">
                            <path d="M6.65786317,8.26193704 L2.8617701,8.26193704 L1.95014317,10.9968222 L0.342269109,10.9968222 L3.93786713,0.878451852 L5.60839188,0.878451852 L9.2039899,10.9968222 L7.56870416,10.9968222 L6.65786317,8.26193704 Z M3.25493287,6.99992741 L6.26396257,6.99992741 L4.78060396,2.56141111 L4.73906139,2.56141111 L3.25493287,6.99992741 Z" id="Shape"></path>
                            <path d="M16.9692594,7.30866889 C16.9692594,9.60113407 15.7615895,11.0740015 13.9391216,11.0740015 C12.9971038,11.1240675 12.1097746,10.6227658 11.6545767,9.78333481 L11.6200916,9.78333481 L11.6200916,13.4372741 L10.1296916,13.4372741 L10.1296916,3.61971704 L11.5723176,3.61971704 L11.5723176,4.84671407 L11.5997293,4.84671407 C12.0751498,4.01254571 12.9634359,3.51145979 13.9116858,3.54252963 C15.7545401,3.54253778 16.9692594,5.02256741 16.9692594,7.30866889 Z M15.4373489,7.30866889 C15.4373489,5.81511333 14.6776571,4.83318815 13.5185471,4.83318815 C12.3797994,4.83318815 11.6138442,5.83579333 11.6138442,7.30866889 C11.6138442,8.79507037 12.3797994,9.79051333 13.5185471,9.79051333 C14.6776651,9.79051333 15.4373168,8.81575852 15.4373168,7.30866889 L15.4373489,7.30866889 Z" id="Shape"></path>
                            <path d="M24.9612567,7.30866889 C24.9612567,9.60113407 23.7531939,11.0740015 21.9307259,11.0740015 C20.9887082,11.1240675 20.101379,10.6227658 19.6461811,9.78333481 L19.6116959,9.78333481 L19.6116959,13.4372741 L18.1212959,13.4372741 L18.1212959,3.61971704 L19.563922,3.61971704 L19.563922,4.84671407 L19.5913337,4.84671407 C20.0667542,4.01254571 20.9550402,3.51145979 21.9032902,3.54252963 C23.7461525,3.54253778 24.9612567,5.02256741 24.9612567,7.30866889 Z M23.4289613,7.30866889 C23.4289613,5.81511333 22.6692695,4.83318815 21.5101595,4.83318815 C20.3714118,4.83318815 19.6054565,5.83579333 19.6054565,7.30866889 C19.6054565,8.79507037 20.3714118,9.79051333 21.5101595,9.79051333 C22.6692695,9.79051333 23.4289613,8.81575852 23.4289613,7.30866889 Z" id="Shape"></path>
                            <path d="M30.2422643,8.17758741 C30.3526969,9.18099111 31.3121058,9.83980963 32.623143,9.83980963 C33.8793728,9.83980963 34.7831644,9.18095852 34.7831644,8.27622074 C34.7831644,7.49084519 34.2380664,7.02059111 32.9473836,6.69831556 L31.6567007,6.38241185 C29.8279693,5.93362815 28.9789931,5.06470148 28.9789931,3.65468889 C28.9789931,1.90888296 30.4764425,0.709736296 32.6020028,0.709736296 C34.7072008,0.709736296 36.1498268,1.90888296 36.1983867,3.65468889 L34.6938719,3.65468889 C34.6038095,2.64492148 33.782245,2.03540741 32.5816245,2.03540741 C31.381004,2.03540741 30.5594474,2.65209185 30.5594474,3.54965926 C30.5594474,4.26500963 31.0841831,4.68594296 32.3678165,5.00817778 L33.4650538,5.28190667 C35.508379,5.77286519 36.3565693,6.60679556 36.3565693,8.08680889 C36.3565693,9.97981926 34.8732187,11.16544 32.5126782,11.16544 C30.3040969,11.16544 28.812919,10.0076696 28.7165851,8.17751407 L30.2422643,8.17758741 Z" id="Shape"></path>
                            <path d="M39.5746833,1.87391111 L39.5746833,3.61971704 L40.9554365,3.61971704 L40.9554365,4.8188637 L39.5746833,4.8188637 L39.5746833,8.88577556 C39.5746833,9.51757481 39.8511499,9.81199185 40.4581126,9.81199185 C40.6220305,9.80908781 40.7856831,9.79739252 40.9483871,9.77695481 L40.9483871,10.9689393 C40.675496,11.0207448 40.3981251,11.0442074 40.1205591,11.0389644 C38.6505294,11.0389644 38.0772339,10.4779807 38.0772339,9.04728 L38.0772339,4.8188637 L37.0215071,4.8188637 L37.0215071,3.61971704 L38.0772178,3.61971704 L38.0772178,1.87391111 L39.5746833,1.87391111 Z" id="Shape"></path>
                            <path d="M41.754297,7.30866889 C41.754297,4.98756296 43.0998033,3.52901185 45.1979599,3.52901185 C47.3031579,3.52901185 48.6424007,4.98753037 48.6424007,7.30866889 C48.6424007,9.63614667 47.3102073,11.0883259 45.1979599,11.0883259 C43.0864824,11.0883259 41.754297,9.63613852 41.754297,7.30866889 Z M47.1238031,7.30866889 C47.1238031,5.71643926 46.4056218,4.77669704 45.1979519,4.77669704 C43.990282,4.77669704 43.2721007,5.72360148 43.2721007,7.30866889 C43.2721007,8.90726222 43.990282,9.83985037 45.1979519,9.83985037 C46.4056218,9.83985037 47.123795,8.90726222 47.123795,7.30866889 L47.1238031,7.30866889 Z" id="Shape"></path>
                            <path d="M49.8712028,3.61971704 L51.2926806,3.61971704 L51.2926806,4.87534667 L51.3271657,4.87534667 C51.525396,4.06704092 52.2543612,3.51073682 53.0736621,3.54252148 C53.2454174,3.54191219 53.4166988,3.56086357 53.5842989,3.59902074 L53.5842989,5.01539704 C53.3674683,4.94807974 53.1412767,4.91717216 52.9146454,4.92389333 C52.4764821,4.90583332 52.0524373,5.08325052 51.7538525,5.40956042 C51.4552677,5.73587033 51.3119735,6.17847246 51.3615948,6.62115259 L51.3615948,10.9968059 L49.8711948,10.9968059 L49.8712028,3.61971704 Z" id="Shape"></path>
                            <path d="M60.4559299,8.83007481 C60.2554349,10.1692637 58.9717934,11.0883178 57.3294582,11.0883178 C55.2172108,11.0883178 53.9061656,9.65045481 53.9061656,7.34367333 C53.9061656,5.02972963 55.2242602,3.5290037 57.2668075,3.5290037 C59.2756717,3.5290037 60.5389509,4.93105556 60.5389509,7.16782 L60.5389509,7.68662889 L55.4106645,7.68662889 L55.4106645,7.77813259 C55.3627842,8.32734355 55.5494404,8.87098621 55.9231538,9.2707755 C56.2968672,9.67056478 56.8216183,9.88796787 57.3639273,9.86768444 C58.087187,9.93653598 58.7690793,9.5145744 59.0407236,8.83006667 L60.4559299,8.83007481 Z M55.4176997,6.62833111 L59.047765,6.62832296 C59.0748121,6.13482018 58.8980004,5.65222622 58.5599285,5.29681089 C58.2218565,4.94139556 57.7531771,4.74538404 57.2668075,4.75600074 C56.7765905,4.75302848 56.3055145,4.94913192 55.958285,5.30072338 C55.6110555,5.65231485 55.4164437,6.13026164 55.4176997,6.62833111 Z" id="Shape"></path>
                        </g>
                    </g>
                </g>
            </g>
        </g>
    </g>
</svg>