<?xml version="1.0" encoding="utf-8"?>
<!-- Generator: Adobe Illustrator 21.1.0, SVG Export Plug-In . SVG Version: 6.00 Build 0)  -->
<svg version="1.1"
	 id="Layer_1" inkscape:version="0.48.5 r10040" sodipodi:docname="controls.svg" xmlns:cc="http://creativecommons.org/ns#" xmlns:dc="http://purl.org/dc/elements/1.1/" xmlns:inkscape="http://www.inkscape.org/namespaces/inkscape" xmlns:rdf="http://www.w3.org/1999/02/22-rdf-syntax-ns#" xmlns:sodipodi="http://sodipodi.sourceforge.net/DTD/sodipodi-0.dtd" xmlns:svg="http://www.w3.org/2000/svg"
	 xmlns="http://www.w3.org/2000/svg" xmlns:xlink="http://www.w3.org/1999/xlink" x="0px" y="0px" viewBox="0 0 45 45"
	 style="enable-background:new 0 0 45 45;" xml:space="preserve">
<style type="text/css">
	.st0{fill:#FFFFFF;}
</style>
<sodipodi:namedview  bordercolor="#666666" borderopacity="1" gridtolerance="10" guidetolerance="10" id="namedview35" inkscape:current-layer="layer2" inkscape:cx="152.30222" inkscape:cy="92.086374" inkscape:pageopacity="0" inkscape:pageshadow="2" inkscape:window-height="1028" inkscape:window-maximized="1" inkscape:window-width="1680" inkscape:window-x="1672" inkscape:window-y="-8" inkscape:zoom="3.588757" objecttolerance="10" pagecolor="#ffffff" showgrid="false">
	</sodipodi:namedview>
<path class="st0" d="M28,29v4h4v-4H28z M23,29v4h4v-4H23z M18,29v4h4v-4H18z M13,29v4h4v-4H13z M28,24v4h4v-4H28z M23,24v4h4v-4H23z
	 M18,24v4h4v-4H18z M13,24v4h4v-4H13z M28,19v4h4v-4H28z M23,19v4h4v-4H23z M18,19v4h4v-4H18z M13,19v4h4v-4H13z M11,17h23v16
	c0,1.1-0.9,2-2,2H13c-1.1,0-2-0.9-2-2V17z M29,12h3c1.1,0,2,0.9,2,2v2H11v-2c0-1.1,0.9-2,2-2h3v-2h2v2h9v-2h2V12z"/>
</svg>
