<?xml version="1.0" encoding="utf-8"?>
<!-- Generator: Adobe Illustrator 20.1.0, SVG Export Plug-In . SVG Version: 6.00 Build 0)  -->
<svg version="1.1" id="Layer_1" xmlns="http://www.w3.org/2000/svg" xmlns:xlink="http://www.w3.org/1999/xlink" x="0px" y="0px"
	 viewBox="0 0 16 16" enable-background="new 0 0 16 16" xml:space="preserve">
<path fill="#FBCE30" d="M10,15H5c-1.105,0-2-0.895-2-2V3c0-1.105,0.895-2,2-2h5c1.105,0,2,0.895,2,2v10C12,14.105,11.105,15,10,15z"
	/>
<path fill="#F8B31A" d="M10,2c0.551,0,1,0.449,1,1v10c0,0.551-0.449,1-1,1H5c-0.551,0-1-0.449-1-1V3c0-0.551,0.449-1,1-1H10 M10,1H5
	C3.895,1,3,1.895,3,3v10c0,1.105,0.895,2,2,2h5c1.105,0,2-0.895,2-2V3C12,1.895,11.105,1,10,1L10,1z"/>
</svg>
