<svg id="Layer_1" data-name="Layer 1" xmlns="http://www.w3.org/2000/svg" viewBox="0 0 30 30"><defs><style>.cls-1{fill:#c9baa0;}.cls-2{fill:#9e1f1c;}</style></defs><title>Combined Shape</title><rect class="cls-1" x="10.987" y="8.101" width="5.658" height="19.804" rx="1" ry="1" transform="translate(-7.488 10.186) rotate(-32.346)"/><path class="cls-2" d="M5.566,2.406H7.688a0,0,0,0,1,0,0V10.2a0.7,0.7,0,0,1-.7.7H6.262a0.7,0.7,0,0,1-.7-0.7V2.406a0,0,0,0,1,0,0Z" transform="translate(-2.53 4.577) rotate(-32.346)"/><path d="M10.033,22.278H8.185v-6.9A6.38,6.38,0,0,1,5.8,16.767V15.106a5.361,5.361,0,0,0,1.572-.889,3.378,3.378,0,0,0,1.164-1.528h1.5v9.589Z"/><path d="M15.919,12.689a2.644,2.644,0,0,1,2.19.99,6.275,6.275,0,0,1,.941,3.889,6.29,6.29,0,0,1-.947,3.9,2.64,2.64,0,0,1-2.183.977,2.769,2.769,0,0,1-2.269-1.072,6.283,6.283,0,0,1-.862-3.821,6.264,6.264,0,0,1,.947-3.882A2.64,2.64,0,0,1,15.919,12.689Zm0,1.518a0.928,0.928,0,0,0-.6.212,1.415,1.415,0,0,0-.408.759,10.342,10.342,0,0,0-.191,2.391,10.294,10.294,0,0,0,.171,2.309,1.619,1.619,0,0,0,.431.837,0.952,0.952,0,0,0,1.193,0,1.419,1.419,0,0,0,.408-0.759,10.289,10.289,0,0,0,.191-2.384,10.294,10.294,0,0,0-.171-2.309,1.641,1.641,0,0,0-.431-0.84A0.915,0.915,0,0,0,15.919,14.207Z"/><path d="M23.41,12.689a2.645,2.645,0,0,1,2.19.99,6.279,6.279,0,0,1,.94,3.889,6.29,6.29,0,0,1-.947,3.9,2.641,2.641,0,0,1-2.183.977,2.769,2.769,0,0,1-2.269-1.072,6.287,6.287,0,0,1-.862-3.821,6.263,6.263,0,0,1,.947-3.882A2.64,2.64,0,0,1,23.41,12.689Zm0,1.518a0.929,0.929,0,0,0-.6.212,1.419,1.419,0,0,0-.408.759,10.381,10.381,0,0,0-.191,2.391,10.294,10.294,0,0,0,.171,2.309,1.619,1.619,0,0,0,.43.837,0.953,0.953,0,0,0,1.194,0,1.419,1.419,0,0,0,.408-0.759,10.289,10.289,0,0,0,.191-2.384,10.294,10.294,0,0,0-.171-2.309,1.641,1.641,0,0,0-.43-0.84A0.916,0.916,0,0,0,23.41,14.207Z"/></svg>