<?xml version="1.0" encoding="utf-8"?>
<!-- Generator: Adobe Illustrator 20.0.0, SVG Export Plug-In . SVG Version: 6.00 Build 0)  -->
<svg version="1.1" id="Layer_1" xmlns="http://www.w3.org/2000/svg" xmlns:xlink="http://www.w3.org/1999/xlink" x="0px" y="0px"
	 viewBox="0 0 120.7 58.2" style="enable-background:new 0 0 120.7 58.2;" xml:space="preserve">
<style type="text/css">
	.st0{fill:#5D5D5D;}
	.st1{fill:#FFFFFF;}
	.st2{fill:#157FAA;}
	.st3{fill:#CDCCCC;}
	.st4{clip-path:url(#SVGID_2_);fill:#157FAA;}
	.st5{clip-path:url(#SVGID_4_);fill:#157FAA;}
	.st6{clip-path:url(#SVGID_6_);fill:#157FAA;}
	.st7{clip-path:url(#SVGID_8_);fill:#157FAA;}
	.st8{clip-path:url(#SVGID_10_);fill:#157FAA;}
	.st9{clip-path:url(#SVGID_12_);fill:#157FAA;}
</style>
<g id="ico-shots-full">
	<circle class="st0" cx="8" cy="50.2" r="7.5"/>
	<circle class="st1" cx="8" cy="50.2" r="6.2"/>
	<circle class="st2" cx="8" cy="50.2" r="5"/>
</g>
<g id="ico-shots-half">
	<circle class="st0" cx="8" cy="29" r="7.5"/>
	<circle class="st1" cx="8" cy="29" r="6.2"/>
	<circle class="st3" cx="8" cy="29" r="5"/>
	<g>
		<g>
			<defs>
				<circle id="SVGID_1_" cx="8" cy="29" r="5"/>
			</defs>
			<clipPath id="SVGID_2_">
				<use xlink:href="#SVGID_1_"  style="overflow:visible;"/>
			</clipPath>
			<rect x="0.5" y="21.5" class="st4" width="7.5" height="15"/>
		</g>
	</g>
</g>
<g id="ico-shots-non">
	<circle class="st0" cx="8" cy="7.8" r="7.5"/>
	<circle class="st1" cx="8" cy="7.8" r="6.2"/>
	<circle class="st3" cx="8" cy="7.8" r="5"/>
</g>
<g id="ico-dist-full">
	<rect x="21.1" y="42.5" class="st0" width="15" height="15"/>
	<rect x="22.3" y="43.7" class="st1" width="12.5" height="12.5"/>
	<rect x="23.6" y="45" class="st2" width="10" height="10"/>
</g>
<g id="ico-dist-half">
	<rect x="21.1" y="21.5" class="st0" width="15" height="15"/>
	<rect x="22.3" y="22.8" class="st1" width="12.5" height="12.5"/>
	<rect x="23.5" y="24" class="st3" width="10" height="10"/>
	<g>
		<g>
			<defs>
				<rect id="SVGID_3_" x="23.6" y="24" width="10" height="10"/>
			</defs>
			<clipPath id="SVGID_4_">
				<use xlink:href="#SVGID_3_"  style="overflow:visible;"/>
			</clipPath>
			<rect x="21.1" y="21.5" class="st5" width="7.5" height="15"/>
		</g>
	</g>
</g>
<g id="ico-dist-non">
	<rect x="20.8" y="0.3" class="st0" width="15" height="15"/>
	<rect x="22" y="1.6" class="st1" width="12.5" height="12.5"/>
	<rect x="23.2" y="2.8" class="st3" width="10" height="10"/>
</g>
<g id="ico-def-non">
	<polygon class="st0" points="42.3,15.3 49.8,0.3 57.3,15.3 	"/>
	<polygon class="st1" points="44.5,13.9 49.8,3 55.2,13.9 	"/>
	<polygon class="st3" points="46.2,12.8 49.8,5.5 53.5,12.8 	"/>
</g>
<g id="ico-dist-half_1_">
	<polygon class="st0" points="42.1,36.5 49.6,21.5 57.1,36.5 	"/>
	<polygon class="st1" points="44.2,35.1 49.6,24.2 54.9,35.1 	"/>
	<polygon class="st3" points="45.9,34 49.6,26.6 53.2,34 	"/>
	<g>
		<g>
			<defs>
				<polygon id="SVGID_5_" points="45.9,34 49.6,26.6 53.2,34 				"/>
			</defs>
			<clipPath id="SVGID_6_">
				<use xlink:href="#SVGID_5_"  style="overflow:visible;"/>
			</clipPath>
			<rect x="42.1" y="21.5" class="st6" width="7.5" height="15"/>
		</g>
	</g>
</g>
<g id="ico-dist-full_1_">
	<polygon class="st0" points="42.1,57.4 49.6,42.4 57.1,57.4 	"/>
	<polygon class="st1" points="44.2,56 49.6,45.1 54.9,56 	"/>
	<polygon class="st2" points="45.9,54.9 49.6,47.5 53.2,54.9 	"/>
</g>
<g id="ico-poss-non">
	<polygon class="st0" points="78.2,0.3 70.7,15.3 63.2,0.3 	"/>
	<polygon class="st1" points="76.1,1.8 70.7,12.7 65.4,1.8 	"/>
	<polygon class="st3" points="74.4,2.8 70.7,10.2 67.1,2.8 	"/>
</g>
<g id="ico-poss-full">
	<polygon class="st0" points="78.2,42.4 70.7,57.4 63.2,42.4 	"/>
	<polygon class="st1" points="76.1,43.9 70.7,54.7 65.4,43.9 	"/>
	<polygon class="st2" points="74.4,44.9 70.7,52.3 67.1,44.9 	"/>
</g>
<g id="ico-poss-half">
	<polygon class="st0" points="78.2,21.5 70.7,36.5 63.2,21.5 	"/>
	<polygon class="st1" points="76.1,22.9 70.7,33.8 65.4,22.9 	"/>
	<polygon class="st3" points="74.4,24 70.7,31.4 67.1,24 	"/>
	<g>
		<g>
			<defs>
				<polygon id="SVGID_7_" points="74.4,24 70.7,31.4 67.1,24 				"/>
			</defs>
			<clipPath id="SVGID_8_">
				<use xlink:href="#SVGID_7_"  style="overflow:visible;"/>
			</clipPath>
			<rect x="63.3" y="21.5" class="st7" width="7.4" height="15"/>
		</g>
	</g>
</g>
<g id="ico-disc-non">
	<polygon class="st0" points="91,0.3 98.5,6.1 95.6,15.3 86.4,15.3 83.5,6.1 	"/>
	<polygon class="st1" points="91,1.8 97.2,6.6 94.9,14.3 87.1,14.3 84.8,6.6 	"/>
	<polygon class="st3" points="91,3.2 96,7.1 94.1,13.2 87.9,13.2 86,7.1 	"/>
</g>
<g id="ico-disc-half">
	<polygon class="st0" points="91,21.5 98.5,27.2 95.6,36.5 86.4,36.5 83.5,27.2 	"/>
	<polygon class="st1" points="91,22.9 97.2,27.7 94.9,35.4 87.1,35.4 84.8,27.7 	"/>
	<polygon class="st3" points="91,24.4 96,28.2 94.1,34.4 87.9,34.4 86,28.2 	"/>
	<g>
		<g>
			<defs>
				<polygon id="SVGID_9_" points="91,24.4 96,28.2 94.1,34.4 87.9,34.4 86,28.2 				"/>
			</defs>
			<clipPath id="SVGID_10_">
				<use xlink:href="#SVGID_9_"  style="overflow:visible;"/>
			</clipPath>
			<rect x="83.5" y="21.5" class="st8" width="7.5" height="15"/>
		</g>
	</g>
</g>
<g id="ico-gk-non">
	<polygon class="st0" points="91,42.8 98.5,48.5 95.6,57.8 86.4,57.8 83.5,48.5 	"/>
	<polygon class="st1" points="91,44.2 97.2,49 94.9,56.7 87.1,56.7 84.8,49 	"/>
	<polygon class="st2" points="91,45.7 96,49.5 94.1,55.7 87.9,55.7 86,49.5 	"/>
	
		<rect x="107.4" y="2.5" transform="matrix(0.7071 -0.7071 0.7071 0.7071 27.4929 81.9475)" class="st0" width="10.6" height="10.6"/>
	<rect x="108.6" y="3.8" transform="matrix(0.7071 -0.7071 0.7071 0.7071 27.4636 82.0182)" class="st1" width="8.2" height="8.2"/>
	<rect x="109.8" y="5" transform="matrix(0.7071 -0.7071 0.7071 0.7071 27.4429 81.9682)" class="st3" width="5.7" height="5.7"/>
</g>
<g id="ico-gk-half">
	<polyline class="st0" points="112.7,36.5 105.2,29 112.7,21.5 120.2,29 112.7,36.5 	"/>
	
		<rect x="108.6" y="24.9" transform="matrix(0.7071 -0.7071 0.7071 0.7071 12.5161 88.1705)" class="st1" width="8.2" height="8.2"/>
	
		<rect x="109.8" y="26.1" transform="matrix(0.7071 -0.7071 0.7071 0.7071 12.4954 88.1205)" class="st3" width="5.7" height="5.7"/>
	<g>
		<g>
			<defs>
				
					<rect id="SVGID_11_" x="109.8" y="26.1" transform="matrix(0.7071 -0.7071 0.7071 0.7071 12.4954 88.1205)" width="5.7" height="5.7"/>
			</defs>
			<clipPath id="SVGID_12_">
				<use xlink:href="#SVGID_11_"  style="overflow:visible;"/>
			</clipPath>
			<rect x="105.2" y="21.5" class="st9" width="7.5" height="15"/>
		</g>
	</g>
</g>
<g id="ico-gk-full">
	<polyline class="st0" points="112.7,57.8 105.2,50.2 112.7,42.8 120.2,50.2 112.7,57.8 	"/>
	
		<rect x="108.6" y="46.2" transform="matrix(0.7071 -0.7071 0.7071 0.7071 -2.5245 94.4297)" class="st1" width="8.2" height="8.2"/>
	
		<rect x="109.8" y="47.4" transform="matrix(0.7071 -0.7071 0.7071 0.7071 -2.5452 94.3797)" class="st2" width="5.7" height="5.7"/>
</g>
</svg>