<?xml version="1.0" encoding="utf-8"?>
<!-- Generator: Adobe Illustrator 20.1.0, SVG Export Plug-In . SVG Version: 6.00 Build 0)  -->
<svg version="1.1" id="Layer_1" xmlns="http://www.w3.org/2000/svg" xmlns:xlink="http://www.w3.org/1999/xlink" x="0px" y="0px"
	 viewBox="0 0 16 16" enable-background="new 0 0 16 16" xml:space="preserve">
<g>
	<ellipse fill="#FFFFFF" cx="10" cy="8" rx="4.333" ry="6.5"/>
	<path fill="#E0272D" d="M10,1C7.196,1,5,4.075,5,8s2.196,7,5,7s5-3.075,5-7S12.804,1,10,1z M6.111,8
		c0-2.387,0.961-4.497,2.305-5.454C9.085,3.975,9.5,5.887,9.5,8s-0.415,4.025-1.084,5.454C7.072,12.497,6.111,10.387,6.111,8z
		 M11.584,13.454C10.915,12.025,10.5,10.113,10.5,8s0.415-4.025,1.084-5.454C12.928,3.503,13.889,5.613,13.889,8
		S12.928,12.497,11.584,13.454z"/>
</g>
<polygon fill="#010202" points="3,4 0,9 2,9 2,15 4,15 4,9 6,9 "/>
</svg>
