<svg id="Layer_1" data-name="Layer 1" xmlns="http://www.w3.org/2000/svg" viewBox="0 0 30 30"><defs><style>.cls-1{fill:#fda900;fill-rule:evenodd;}.cls-2{fill:#9e1f1c;stroke:#fff;stroke-miterlimit:10;}.cls-3{fill:#fff;}</style></defs><title>Combined Shape</title><path class="cls-1" d="M5.71,21.251a6.644,6.644,0,0,1-4.016-6.278,6.569,6.569,0,0,1,4.166-5.4Q5.8,9.528,5.728,9.489A4,4,0,0,0,3.61,8.955a0.549,0.549,0,0,1-.434-0.909q0.05-.053.1-0.105A4.888,4.888,0,0,1,1.382,4.7a0.638,0.638,0,0,1,1-.564,4.435,4.435,0,0,0,2.287.816A3.732,3.732,0,0,0,5.385,4.93a4.436,4.436,0,0,1,4.737-3.812A4.37,4.37,0,0,1,14.25,5.75,4.336,4.336,0,0,1,12.1,9.171a8.625,8.625,0,0,1,3.01,1.509,1.332,1.332,0,0,0,1.88-.367,2.584,2.584,0,0,0,.215-0.5,1.486,1.486,0,0,1,2.553-.5A6.032,6.032,0,0,1,21.1,13.669a8.312,8.312,0,0,1-5.429,7.582H5.71Z"/><circle class="cls-2" cx="20.595" cy="20.923" r="8.345"/><rect class="cls-3" x="21.054" y="11.734" width="0.927" height="16.689" transform="translate(-7.895 21.096) rotate(-45)"/><rect class="cls-3" x="19.363" y="13.424" width="0.927" height="16.689" transform="translate(-9.586 20.396) rotate(-45)"/></svg>