<svg xmlns="http://www.w3.org/2000/svg" xmlns:xlink="http://www.w3.org/1999/xlink" width="66" height="54" version="1.1" style=""><rect id="backgroundrect" width="100%" height="100%" x="0" y="0" fill="none" stroke="none"/>
    <!-- Generator: Sketch 52.5 (67469) - http://www.bohemiancoding.com/sketch -->
    <title>VAR icon</title>
    <desc>Created with Sketch.</desc>
    <defs>
        <rect id="path-1" x="17" y="23" width="66" height="46" rx="8"/>
        <filter x="-10.6%" y="-10.9%" width="121.2%" height="130.4%" filterUnits="objectBoundingBox" id="filter-2">
            <feOffset dx="0" dy="2" in="SourceAlpha" result="shadowOffsetOuter1"/>
            <feGaussianBlur stdDeviation="2" in="shadowOffsetOuter1" result="shadowBlurOuter1"/>
            <feComposite in="shadowBlurOuter1" in2="SourceAlpha" operator="out" result="shadowBlurOuter1"/>
            <feColorMatrix values="0 0 0 0 0   0 0 0 0 0   0 0 0 0 0  0 0 0 0.5 0" type="matrix" in="shadowBlurOuter1"/>
        </filter>
    </defs>
    
<g class="currentLayer" style=""><title>Layer 1</title><g id="VAR-icon" stroke="none" stroke-width="1" fill="none" fill-rule="evenodd" class="">
        <g id="Rectangle-2" fill-rule="nonzero">
            <use fill="black" fill-opacity="1" filter="url(#filter-2)" xlink:href="#path-1" id="svg_1" y="-23" x="-17"/>
            <rect stroke="#4B73C7" stroke-width="7" stroke-linejoin="square" fill="#FFFFFF" fill-rule="evenodd" x="3.5" y="3.5" width="59" height="39" rx="8" id="svg_2"/>
        </g>
        <path d="M15.618164100000001,31 L9.9892578,15.251953100000001 L13.4375,15.251953100000001 L17.4228516,26.9072266 L21.2792969,15.251953100000001 L24.652343799999997,15.251953100000001 L19.012695299999997,31 L15.618164100000001,31 zM40.4755859,31 L37.0166016,31 L35.6416016,27.4228516 L29.346679700000003,27.4228516 L28.046875,31 L24.6738281,31 L30.807617200000003,15.251953100000001 L34.1699219,15.251953100000001 L40.4755859,31 zM34.6210938,24.769531200000003 L32.4511719,18.925781200000003 L30.324218799999997,24.769531200000003 L34.6210938,24.769531200000003 zM42.1728516,31 L42.1728516,15.251953100000001 L48.865234400000006,15.251953100000001 C50.5481855,15.251953100000001 51.7709923,15.393390500000002 52.533691399999995,15.676269500000004 C53.2963905,15.959148499999998 53.90689879999999,16.462235999999997 54.365234400000006,17.1855469 C54.823570000000004,17.9088578 55.052734400000006,18.7359979 55.052734400000006,19.666992200000003 C55.052734400000006,20.848638700000002 54.7054071,21.8243777 54.010742199999996,22.5942383 C53.3160773,23.364098900000002 52.2776762,23.8492829 50.895507800000004,24.049804700000003 C51.5830112,24.450848399999998 52.1505511,24.891273599999998 52.598144500000004,25.371093799999997 C53.045737900000006,25.850913900000002 53.6490847,26.7031189 54.408203099999994,27.9277344 L56.331054699999996,31 L52.528320300000004,31 L50.229492199999996,27.573242200000003 C49.413081899999995,26.348626699999997 48.854493700000006,25.5769873 48.5537109,25.2583008 C48.2529282,24.939614300000002 47.9342465,24.721192000000002 47.5976562,24.6030273 C47.261066,24.4848627 46.7275427,24.425781200000003 45.9970703,24.425781200000003 L45.3525391,24.425781200000003 L45.3525391,31 L42.1728516,31 zM45.3525391,21.9121094 L47.705078099999994,21.9121094 C49.2304764,21.9121094 50.1829408,21.847656899999997 50.5625,21.71875 C50.9420592,21.589843100000003 51.2392567,21.367840100000002 51.4541016,21.0527344 C51.668946399999996,20.7376286 51.776367199999996,20.3437524 51.776367199999996,19.871093799999997 C51.776367199999996,19.341143199999998 51.634929799999995,18.9132503 51.3520508,18.5874023 C51.06917180000001,18.2615544 50.66992449999999,18.0556645 50.154296900000006,17.9697266 C49.8964831,17.933919099999997 49.123053299999995,17.9160156 47.833984400000006,17.9160156 L45.3525391,17.9160156 L45.3525391,21.9121094 z" id="VAR" fill="#4B73C7"/>
        <rect id="Rectangle-3" fill="#4B73C7" fill-rule="nonzero" x="26" y="46" width="15" height="4"/>
        <polygon id="Rectangle-3" fill="#4B73C7" fill-rule="nonzero" points="18,50 48,50 48,54 18,54 " transform=""/>
    </g></g></svg>