<?xml version="1.0" encoding="UTF-8" standalone="no"?>
<svg width="13px" height="13px" viewBox="0 0 13 13" version="1.1" xmlns="http://www.w3.org/2000/svg" xmlns:xlink="http://www.w3.org/1999/xlink">
    <!-- Generator: Sketch 3.7.1 (28215) - http://www.bohemiancoding.com/sketch -->
    <title>goal-own</title>
    <desc>Created with Sketch.</desc>
    <defs></defs>
    <g id="Page-1" stroke="none" stroke-width="1" fill="none" fill-rule="evenodd">
        <g id="events" transform="translate(-10.000000, -121.000000)">
            <g id="goal-own" transform="translate(10.000000, 121.000000)">
                <circle id="Oval-151" fill="#FFFFFF" cx="6.5" cy="6.5" r="6.5"></circle>
                <path d="M12.4547461,3.96902655 C12.1247241,3.19247788 11.6655629,2.50221239 11.0629139,1.89823009 C10.4746137,1.30862832 9.77152318,0.834070796 8.99668874,0.503318584 C8.20750552,0.172566372 7.36092715,0 6.48565121,0 C5.61037528,0 4.76379691,0.172566372 3.9602649,0.517699115 C3.18543046,0.848451327 2.49668874,1.30862832 1.89403974,1.91261062 C1.30573951,2.50221239 0.832229581,3.20685841 0.502207506,3.98340708 C0.17218543,4.77433628 0,5.62278761 0,6.5 C0,7.37721239 0.17218543,8.22566372 0.516556291,9.03097345 C0.846578366,9.80752212 1.30573951,10.4977876 1.90838852,11.1017699 C2.49668874,11.6913717 3.19977925,12.1659292 3.97461369,12.4966814 C4.7781457,12.8418142 5.62472406,13 6.5,13 C7.37527594,13 8.2218543,12.8274336 9.02538631,12.4966814 C9.80022075,12.1659292 10.4889625,11.7057522 11.0916115,11.1017699 C11.6799117,10.5121681 12.1534216,9.80752212 12.4834437,9.03097345 C12.8278146,8.22566372 13,7.37721239 13,6.5 C12.9569536,5.62278761 12.7847682,4.77433628 12.4547461,3.96902655 Z M4.44812362,5.34955752 C4.70640177,6.94579646 5.25165563,7.7079646 5.25165563,7.7079646 C5.75386313,7.88053097 6.48565121,7.85176991 6.51434879,7.85176991 C6.51434879,7.85176991 7.26048565,7.8949115 7.77704194,7.7079646 C7.77704194,7.7079646 8.32229581,6.94579646 8.58057395,5.34955752 C8.58057395,5.34955752 7.60485651,4.42920354 6.52869757,3.88274336 C5.42384106,4.42920354 4.44812362,5.34955752 4.44812362,5.34955752 Z M10.919426,10.1238938 C11.0772627,9.50553097 10.9624724,8.98783186 10.9624724,8.98783186 C10.9624724,8.98783186 10.2450331,9.5630531 8.96799117,9.60619469 C8.96799117,9.60619469 8.81015453,10.4834071 7.73399558,11.3893805 C7.73399558,11.3893805 8.07836645,11.7345133 8.63796909,11.8064159 C7.97792494,12.079646 7.24613687,12.2234513 6.48565121,12.2234513 L6.48565121,12.2234513 C5.72516556,12.2234513 4.99337748,12.079646 4.33333333,11.8064159 C4.89293598,11.7345133 5.23730684,11.3893805 5.23730684,11.3893805 C4.1611479,10.4977876 4.00331126,9.62057522 4.00331126,9.62057522 C2.72626932,9.57743363 2.00883002,8.98783186 2.00883002,8.98783186 C2.00883002,8.98783186 1.87969095,9.50553097 2.05187638,10.1238938 C1.24834437,9.13163717 0.760485651,7.86615044 0.760485651,6.48561947 C0.760485651,6.35619469 0.760485651,6.22676991 0.774834437,6.09734513 C0.860927152,6.2699115 1.03311258,6.48561947 1.37748344,6.57190265 C1.37748344,6.57190265 1.56401766,5.69469027 2.51103753,4.71681416 C2.51103753,4.71681416 2.26710817,4.35730088 2.41059603,2.89048673 C2.41059603,2.89048673 2.15231788,2.90486726 1.83664459,3.13495575 C2.5397351,2.15707965 3.54415011,1.40929204 4.72075055,1.0210177 C4.51986755,1.2079646 4.50551876,1.3949115 4.50551876,1.3949115 C6.08388521,1.3949115 6.48565121,1.91261062 6.48565121,1.91261062 C6.48565121,1.91261062 6.88741722,1.3949115 8.46578366,1.3949115 C8.46578366,1.3949115 8.45143488,1.22234513 8.25055188,1.0210177 C9.42715232,1.40929204 10.4315673,2.15707965 11.1346578,3.13495575 C10.8189845,2.90486726 10.5607064,2.89048673 10.5607064,2.89048673 C10.7041943,4.35730088 10.4602649,4.71681416 10.4602649,4.71681416 C11.4216336,5.69469027 11.593819,6.57190265 11.593819,6.57190265 C11.9381898,6.48561947 12.1103753,6.2699115 12.196468,6.09734513 C12.2108168,6.22676991 12.2108168,6.35619469 12.2108168,6.48561947 C12.2108168,7.86615044 11.7229581,9.13163717 10.919426,10.1238938 L10.919426,10.1238938 Z" id="Shape" fill="#E22123"></path>
            </g>
        </g>
    </g>
</svg>