<?xml version="1.0" encoding="UTF-8"?>
<svg width="32px" height="32px" viewBox="0 0 32 32" version="1.1" xmlns="http://www.w3.org/2000/svg" xmlns:xlink="http://www.w3.org/1999/xlink">
    <title>minimise</title>
    <desc>Created with Sketch.</desc>
    <g id="minimise" stroke="none" stroke-width="1" fill="none" fill-rule="evenodd">
        <rect id="Rectangle" fill-opacity="0.724524457" fill="#211D1D" fill-rule="nonzero" x="0" y="0" width="32" height="32"></rect>
        <g id="Group-4">
            <g id="right-48">
                <g id="Group">
                    <g id="icomoon-ignore"></g>
                </g>
            </g>
            <rect id="Rectangle" fill-rule="nonzero" x="8" y="8" width="16" height="16"></rect>
            <g id="Group-3" transform="translate(8.000000, 8.000000)" fill="#BEBEBE" fill-rule="nonzero">
                <g id="Group" transform="translate(12.266667, 3.733333) scale(-1, -1) translate(-12.266667, -3.733333) translate(8.533333, 0.000000)">
                    <polygon id="Path-2" points="5.33333333 2.13333333 0 2.13333333 0 0 7.46666667 0 7.46666667 7.46666667 5.33333333 7.46666667"></polygon>
                    <polygon id="Path-3" points="2.34386552 6.66364309 0.862384485 5.12861049 5.57907991 0.576462993 7.06056094 2.11149559"></polygon>
                </g>
                <g id="Group-2" transform="translate(3.733333, 12.266667) scale(-1, -1) translate(-3.733333, -12.266667) translate(0.000000, 8.533333)">
                    <polygon id="Path-2" transform="translate(3.733333, 3.733333) scale(-1, -1) translate(-3.733333, -3.733333) " points="5.33333333 2.13333333 0 2.13333333 0 0 7.46666667 0 7.46666667 7.46666667 5.33333333 7.46666667"></polygon>
                    <polygon id="Path-3" points="2.34386552 6.66364309 0.862384485 5.12861049 5.57907991 0.576462993 7.06056094 2.11149559"></polygon>
                </g>
            </g>
        </g>
    </g>
</svg>
