<svg id="Layer_1" data-name="Layer 1" xmlns="http://www.w3.org/2000/svg" viewBox="0 0 50 50"><defs><style>.cls-1{fill:#828386;fill-rule:evenodd;}</style></defs><title>Combined Shape</title><path class="cls-1" d="M26.193,34H43.429a23.281,23.281,0,0,0-2.611-8.661C39.312,22.93,36.3,22.93,35.7,22.027l-0.011-.055A3.676,3.676,0,0,1,36,19.618c1.5-.3,2.408-0.3,2.408-0.9s-1.2-.9-2.408-0.9c0-.236-0.012-1.6-0.012-1.806,0-1.205-.591-1.506-1.8-1.506H32.387c-1.2,0-1.8.3-1.8,1.506,0,0.2-.011,1.57-0.011,1.806-1.2,0-2.409.3-2.409,0.9s0.9,0.6,2.409.9a3.792,3.792,0,0,1,.3,2.409,8.891,8.891,0,0,1-1.806.9,74.932,74.932,0,0,0-7.828.9,35.363,35.363,0,0,1-8.43,0,0.954,0.954,0,0,0-.9,0c-1.166-.481-2.776-1.806-3.011-1.806-0.3,0-.3.6-0.3,0.9,0,0-1.505-.6-1.805-0.3a0.892,0.892,0,0,0,0,1.2,4.409,4.409,0,0,1,.6.9,2.276,2.276,0,0,0,1.2,1.2,10.345,10.345,0,0,0,2.71.3,1.087,1.087,0,0,0,.9.9c0.9,0.3,3.915-.3,9.333,1.2,3.155,0.876,4.264,2.979,4.645,5.65"/></svg>