<?xml version="1.0" encoding="utf-8"?>
<!-- Generator: Adobe Illustrator 20.1.0, SVG Export Plug-In . SVG Version: 6.00 Build 0)  -->
<svg version="1.1" id="Layer_1" xmlns="http://www.w3.org/2000/svg" xmlns:xlink="http://www.w3.org/1999/xlink" x="0px" y="0px"
	 viewBox="0 0 16 16" enable-background="new 0 0 16 16" xml:space="preserve">
<g>
	<ellipse fill="#FFFFFF" cx="8" cy="8" rx="4.333" ry="6.5"/>
	<path fill="#E0272D" d="M8,1C5.196,1,3,4.075,3,8s2.196,7,5,7s5-3.075,5-7S10.804,1,8,1z M4.111,8c0-2.387,0.961-4.497,2.305-5.454
		C7.085,3.975,7.5,5.887,7.5,8s-0.415,4.025-1.084,5.454C5.072,12.497,4.111,10.387,4.111,8z M9.584,13.454
		C8.915,12.025,8.5,10.113,8.5,8s0.415-4.025,1.084-5.454C10.928,3.503,11.889,5.613,11.889,8S10.928,12.497,9.584,13.454z"/>
</g>
</svg>
