<?xml version="1.0" encoding="utf-8"?>
<!-- Generator: Adobe Illustrator 20.1.0, SVG Export Plug-In . SVG Version: 6.00 Build 0)  -->
<svg version="1.1" id="Layer_1" xmlns="http://www.w3.org/2000/svg" xmlns:xlink="http://www.w3.org/1999/xlink" x="0px" y="0px"
	 viewBox="0 0 16 16" enable-background="new 0 0 16 16" xml:space="preserve">
<g>
	<ellipse fill="#FFFFFF" cx="8" cy="8.125" rx="4.333" ry="6.5"/>
	<path fill="#45A43C" d="M8,1.125c-2.804,0-5,3.075-5,7s2.196,7,5,7s5-3.075,5-7S10.804,1.125,8,1.125z M4.111,8.125
		c0-2.387,0.961-4.497,2.305-5.454C7.085,4.1,7.5,6.012,7.5,8.125s-0.415,4.025-1.084,5.454C5.072,12.622,4.111,10.512,4.111,8.125z
		 M9.584,13.579C8.915,12.15,8.5,10.238,8.5,8.125S8.915,4.1,9.584,2.671c1.344,0.957,2.305,3.067,2.305,5.454
		S10.928,12.622,9.584,13.579z"/>
</g>
</svg>
