<svg id="Layer_1" data-name="Layer 1" xmlns="http://www.w3.org/2000/svg" viewBox="0 0 30 30"><defs><style>.cls-1{fill:#26953d;}.cls-2{fill:#fff;}</style></defs><title>Combined Shape</title><circle class="cls-1" cx="15" cy="15" r="12.5"/><path class="cls-2" d="M19.082,11.716l-2.365.258a1.7,1.7,0,0,0-.452-1.068,1.324,1.324,0,0,0-.947-0.345,1.6,1.6,0,0,0-1.309.689,5.757,5.757,0,0,0-.674,2.868A2.867,2.867,0,0,1,15.6,13.051a3.48,3.48,0,0,1,2.622,1.154,4.162,4.162,0,0,1,1.091,2.98,4.251,4.251,0,0,1-1.148,3.109,3.947,3.947,0,0,1-2.947,1.171,3.955,3.955,0,0,1-3.174-1.486q-1.243-1.486-1.243-4.871,0-3.471,1.3-5a4.2,4.2,0,0,1,3.365-1.533,3.593,3.593,0,0,1,2.4.805A3.76,3.76,0,0,1,19.082,11.716ZM13.544,17a2.723,2.723,0,0,0,.548,1.822,1.616,1.616,0,0,0,1.252.642,1.431,1.431,0,0,0,1.131-.525,2.632,2.632,0,0,0,.452-1.723,2.755,2.755,0,0,0-.487-1.8,1.576,1.576,0,0,0-2.409-.026A2.361,2.361,0,0,0,13.544,17Z"/></svg>