<svg id="Layer_1" data-name="Layer 1" xmlns="http://www.w3.org/2000/svg" viewBox="0 0 30 30"><defs><style>.cls-1{fill:#6c6e6c;}.cls-2{fill:#fff;}</style></defs><title>Combined Shape</title><circle class="cls-1" cx="15" cy="15" r="12.5"/><path class="cls-2" d="M10.718,17.9l2.365-.284a2.207,2.207,0,0,0,.609,1.369,1.673,1.673,0,0,0,1.2.474,1.655,1.655,0,0,0,1.274-.568,2.19,2.19,0,0,0,.517-1.533,2.043,2.043,0,0,0-.5-1.447,1.587,1.587,0,0,0-1.208-.534,4.3,4.3,0,0,0-1.122.181l0.27-1.972a2.156,2.156,0,0,0,1.513-.426,1.511,1.511,0,0,0,.522-1.2,1.366,1.366,0,0,0-.383-1.016,1.382,1.382,0,0,0-1.017-.379,1.479,1.479,0,0,0-1.069.431,2.013,2.013,0,0,0-.539,1.257L10.9,11.871a4.955,4.955,0,0,1,.709-1.83,3.19,3.19,0,0,1,1.322-1.077,4.475,4.475,0,0,1,1.9-.392A3.809,3.809,0,0,1,17.717,9.71a2.865,2.865,0,0,1-.939,4.754,2.973,2.973,0,0,1,1.752,1.042,3.006,3.006,0,0,1,.656,1.955,3.775,3.775,0,0,1-1.226,2.834,4.245,4.245,0,0,1-3.052,1.171,4.226,4.226,0,0,1-2.869-.986A3.863,3.863,0,0,1,10.718,17.9Z"/></svg>