<?xml version="1.0" encoding="utf-8"?>
<!-- Generator: Adobe Illustrator 20.1.0, SVG Export Plug-In . SVG Version: 6.00 Build 0)  -->
<svg version="1.1" id="Layer_1" xmlns="http://www.w3.org/2000/svg" xmlns:xlink="http://www.w3.org/1999/xlink" x="0px" y="0px"
	 viewBox="0 0 16 16" enable-background="new 0 0 16 16" xml:space="preserve">
<g>
	<ellipse transform="matrix(0.7071 -0.7071 0.7071 0.7071 -3.3137 8)" fill="#FFFFFF" cx="8" cy="8" rx="6.5" ry="4.348"/>
	<path fill="#010202" d="M12.95,3.05c-1.983-1.983-5.71-1.361-8.485,1.414C1.689,7.24,1.068,10.967,3.05,12.95
		s5.71,1.361,8.485-1.414C14.311,8.76,14.932,5.033,12.95,3.05z M3.023,10.736C2.75,9.11,3.562,6.938,5.25,5.25
		c1.688-1.688,3.859-2.5,5.486-2.227c-0.537,1.484-1.596,3.129-3.09,4.623C6.152,9.141,4.507,10.199,3.023,10.736z M10.75,10.75
		c-1.688,1.688-3.859,2.5-5.486,2.227c0.537-1.484,1.596-3.129,3.09-4.623c1.494-1.494,3.139-2.553,4.623-3.09
		C13.25,6.89,12.438,9.062,10.75,10.75z"/>
</g>
</svg>
