<svg id="Layer_1" data-name="Layer 1" xmlns="http://www.w3.org/2000/svg" viewBox="0 0 30 30"><defs><style>.cls-1{fill:#6c6e6c;}.cls-2{fill:#fff;}</style></defs><title>Combined Shape</title><circle class="cls-1" cx="15" cy="15" r="12.5"/><path class="cls-2" d="M19.056,19v2.248H10.492a5.8,5.8,0,0,1,.834-2.416,16.134,16.134,0,0,1,2.748-3.027A17.2,17.2,0,0,0,16.1,13.74a2.646,2.646,0,0,0,.5-1.481,1.674,1.674,0,0,0-.439-1.245,1.648,1.648,0,0,0-1.213-.435,1.635,1.635,0,0,0-1.217.456,2.33,2.33,0,0,0-.522,1.516l-2.435-.241a3.939,3.939,0,0,1,1.365-2.868,4.614,4.614,0,0,1,2.869-.87A4.172,4.172,0,0,1,17.978,9.58a3.291,3.291,0,0,1,1.078,2.506,4.327,4.327,0,0,1-.309,1.624,6.592,6.592,0,0,1-.978,1.615,15.592,15.592,0,0,1-1.6,1.611q-1.157,1.051-1.465,1.4a4.168,4.168,0,0,0-.5.672h4.852Z"/></svg>