<?xml version="1.0" encoding="UTF-8"?>
<svg width="102px" height="148px" viewBox="0 0 102 148" version="1.1" xmlns="http://www.w3.org/2000/svg" xmlns:xlink="http://www.w3.org/1999/xlink">
    <!-- Generator: Sketch 47 (45396) - http://www.bohemiancoding.com/sketch -->
    <title>all-controls-sprite</title>
    <desc>Created with Sketch.</desc>
    <defs></defs>
    <g id="Player-Controls" stroke="none" stroke-width="1" fill="none" fill-rule="evenodd">
        <g id="all-controls-sprite">
            <g id="Group" transform="translate(0.000000, 38.000000)">
                <path d="M3,2 L7,2 L7,16 L3,16 L3,2 Z M11,2 L15,2 L15,16 L11,16 L11,2 Z" id="Combined-Shape" fill="#FFFFFF"></path>
                <rect id="container" x="0" y="0" width="18" height="18"></rect>
            </g>
            <g id="Group" transform="translate(0.000000, 76.000000)">
                <rect id="Combined-Shape" fill="#FFFFFF" x="3" y="3" width="12" height="12"></rect>
                <rect id="container" x="0" y="0" width="18" height="18"></rect>
            </g>
            <g id="Group">
                <polygon id="play" fill="#FFFFFF" points="2 1 16 9 2 17"></polygon>
                <rect id="container" x="0" y="0" width="18" height="18"></rect>
            </g>
            <g id="Group" transform="translate(36.000000, 0.000000)">
                <path d="M5,14 L10,18 L10,4 L5,8 L1,8 L1,14 L5,14 L5,14 Z M12,5.25 C15.1756373,5.25 17.75,7.82436269 17.75,11 C17.75,14.1756373 15.1756373,16.75 12,16.75 L12,15 C14.209139,15 16,13.209139 16,11 C16,8.790861 14.209139,7 12,7 L12,5.25 L12,5.25 Z M12,2 C16.9705627,2 21,6.02943725 21,11 C21,15.9705627 16.9705627,20 12,20 L12,18.4441964 C16.1113162,18.4441964 19.4441964,15.1113162 19.4441964,11 C19.4441964,6.88868384 16.1113162,3.55580357 12,3.55580357 L12,2 L12,2 L12,2 Z M12,8.5 C13.3807119,8.5 14.5,9.61928813 14.5,11 C14.5,12.3807119 13.3807119,13.5 12,13.5 L12,8.5 L12,8.5 L12,8.5 Z" id="Combined-Shape" fill="#FFFFFF"></path>
                <rect id="container" x="0" y="0" width="22" height="22"></rect>
            </g>
            <path d="M79,9 L79,3 L87,3 L87,5 L81,5 L81,9 L79,9 L79,9 Z M79,14 L79,20 L87,20 L87,18 L81,18 L81,14 L79,14 L79,14 Z M101,9 L101,3 L93,3 L93,5 L99,5 L99,9 L101,9 L101,9 Z M101,14 L101,20 L93,20 L93,18 L99,18 L99,14 L101,14 L101,14 Z" id="Combined-Shape" fill="#FFFFFF"></path>
            <rect id="container" x="78" y="0" width="24" height="24"></rect>
            <g id="Group" transform="translate(78.000000, 44.000000)">
                <path d="M7,9 L1,9 L1,7 L5,7 L5,3 L7,3 L7,9 Z M7,14 L1,14 L1,16 L5,16 L5,20 L7,20 L7,14 Z M17,9 L23,9 L23,7 L19,7 L19,3 L17,3 L17,9 Z M17,14 L23,14 L23,16 L19,16 L19,20 L17,20 L17,14 Z" id="Combined-Shape" fill="#FFFFFF"></path>
                <rect id="container" x="0" y="0" width="24" height="24"></rect>
            </g>
            <g id="Group" transform="translate(36.000000, 42.000000)">
                <path d="M5,14 L10,18 L10,4 L5,8 L1,8 L1,14 L5,14 L5,14 Z M12,5.25 C15.1756373,5.25 17.75,7.82436269 17.75,11 C17.75,14.1756373 15.1756373,16.75 12,16.75 L12,15 C14.209139,15 16,13.209139 16,11 C16,8.790861 14.209139,7 12,7 L12,5.25 L12,5.25 Z M12,8.5 C13.3807119,8.5 14.5,9.61928813 14.5,11 C14.5,12.3807119 13.3807119,13.5 12,13.5 L12,8.5 L12,8.5 L12,8.5 Z" id="Combined-Shape" fill="#FFFFFF"></path>
                <rect id="container" x="0" y="0" width="22" height="22"></rect>
            </g>
            <g id="Group" transform="translate(36.000000, 84.000000)">
                <path d="M5,14 L10,18 L10,4 L5,8 L1,8 L1,14 L5,14 L5,14 Z M12,8.5 C13.3807119,8.5 14.5,9.61928813 14.5,11 C14.5,12.3807119 13.3807119,13.5 12,13.5 L12,8.5 L12,8.5 L12,8.5 Z" id="Combined-Shape" fill="#FFFFFF"></path>
                <rect id="container" x="0" y="0" width="22" height="22"></rect>
            </g>
            <g id="Group" transform="translate(36.000000, 126.000000)">
                <path d="M18.0104076,11.0961941 L21.1923882,7.91421356 L19.7781746,6.5 L16.5961941,9.68198052 L13.4142136,6.5 L12,7.91421356 L15.1819805,11.0961941 L12,14.2781746 L13.4142136,15.6923882 L16.5961941,12.5104076 L19.7781746,15.6923882 L21.1923882,14.2781746 L18.0104076,11.0961941 L18.0104076,11.0961941 Z M5,14 L10,18 L10,4 L5,8 L1,8 L1,14 L5,14 L5,14 Z" id="Combined-Shape" fill="#FFFFFF" opacity="0.5"></path>
                <rect id="container" x="0" y="0" width="22" height="22"></rect>
            </g>
        </g>
    </g>
</svg>