<svg width="14" height="15" viewBox="0 0 14 15" fill="none" xmlns="http://www.w3.org/2000/svg">
<g clip-path="url(#clip0)">
<path d="M9.87444 6.46091H9.20641V4.51892C9.20641 2.27226 7.3786 0.444458 5.13194 0.444458C2.88528 0.444458 1.05748 2.27226 1.05748 4.51892V6.46091H0.389444C0.000144958 6.46091 -0.31543 6.77648 -0.31543 7.16578V13.3501C-0.31543 13.7394 0.000144958 14.055 0.389444 14.055H9.87444C10.2637 14.055 10.5794 13.7394 10.5794 13.3501V7.16583C10.5794 6.77653 10.2637 6.46091 9.87444 6.46091ZM2.7688 4.51892C2.7688 3.21588 3.82891 2.15578 5.13194 2.15578C6.43498 2.15578 7.49509 3.21588 7.49509 4.51892V6.46091H2.7688V4.51892ZM5.90011 10.4924V11.7566C5.90011 12.1809 5.5562 12.5248 5.13194 12.5248C4.70768 12.5248 4.36378 12.1809 4.36378 11.7566V10.4924C4.07804 10.2658 3.89455 9.91578 3.89455 9.52268C3.89455 8.83928 4.44854 8.28524 5.13194 8.28524C5.81534 8.28524 6.36934 8.83928 6.36934 9.52268C6.36934 9.91578 6.18585 10.2658 5.90011 10.4924Z" fill="white"/>
</g>
<defs>
<clipPath id="clip0">
<rect width="13.6106" height="13.6106" fill="white" transform="translate(0.141357 0.444458)"/>
</clipPath>
</defs>
</svg>
