<svg width="159" height="106" viewBox="0 0 159 106" fill="none" xmlns="http://www.w3.org/2000/svg">
<mask id="path-1-outside-1_34_318" maskUnits="userSpaceOnUse" x="0" y="0" width="159" height="106" fill="black">
<rect fill="white" width="159" height="106"/>
<path fill-rule="evenodd" clip-rule="evenodd" d="M82.0429 79.895C80.4754 81.3957 78.7901 82.765 77.036 83.9866C76.9762 84.0464 76.9463 83.9567 77.0061 83.8072C77.8733 83.2093 78.6806 82.5814 79.4879 81.9237C80.3342 81.2193 81.1621 80.4773 81.9629 79.7001C81.3293 78.091 81.2537 76.269 81.4016 74.5688C81.7903 70.3831 83.4049 66.1377 85.6475 62.6097C86.5744 61.1447 87.7406 59.7097 89.2954 58.8725C90.1027 58.4539 91.5679 58.0354 91.7473 59.321C92.136 61.8324 91.4782 64.5531 90.6708 66.8851C89.0031 71.7025 86.0168 76.0096 82.3563 79.5916C82.9472 81.0016 83.969 82.1993 85.3784 82.8804C86.6641 83.5082 88.1293 83.568 89.415 82.9402C91.4184 81.9536 93.0031 80.0999 94.3487 78.3359C96.1726 75.9441 97.6676 73.343 99.0132 70.6522C100.478 67.7521 101.704 64.7325 102.691 61.6231C103.541 58.928 104.218 56.1469 104.414 53.3077C104.408 53.299 104.401 53.2903 104.395 53.2816C104.402 53.2799 104.409 53.2782 104.416 53.2764C104.419 53.2284 104.422 53.1803 104.425 53.1322C104.455 52.9528 104.664 52.893 104.754 53.0425C105.352 53.8796 106.16 54.5075 107.176 54.627C107.954 54.7167 108.731 54.5373 109.449 54.2384C110.346 53.8796 111.243 53.3414 111.96 52.6837C112.11 52.5342 112.349 52.7435 112.259 52.9229C112.244 52.9528 112.229 52.9752 112.214 52.9976C112.199 53.02 112.185 53.0425 112.17 53.0724C110.734 55.8528 109.329 58.6632 108.043 61.5035L108.043 61.5036C107.206 63.3572 106.369 65.2109 105.681 67.1243C105.66 67.1845 105.638 67.2451 105.617 67.3062C105.09 68.7927 104.473 70.5365 104.904 72.0873C105.292 73.6121 106.817 73.941 108.223 73.7616C110.077 73.5523 111.871 72.6853 113.425 71.6687C115.518 70.3233 117.253 68.4697 118.837 66.5562C120.691 64.3139 122.246 61.8623 123.622 59.2911C126.082 54.6387 127.824 49.6756 129.277 44.6367C129.437 44.0386 129.605 43.4421 129.781 42.8473C129.841 42.5783 130.29 42.6978 130.2 42.9669C130.02 43.6845 129.811 44.402 129.602 45.1196C129.579 45.1987 129.555 45.2779 129.532 45.3571C129.41 45.8349 129.295 46.3144 129.183 46.7938C128.413 50.0602 127.871 53.362 127.443 56.6815C130.618 53.4229 133.975 50.3398 137.332 47.257C139.639 45.1382 141.946 43.0196 144.193 40.8442C145.21 39.8875 146.197 38.9008 147.154 37.9142C147.991 37.0771 148.828 36.1801 149.486 35.1935C150.622 33.4595 151.19 31.1274 149.934 29.2738C148.65 27.3608 146.126 27.7677 144.072 28.0987C143.782 28.1453 143.502 28.1904 143.237 28.2273L134.805 29.4831C134.565 29.5428 134.296 29.2439 134.535 29.0346C136.569 27.2706 138.512 25.417 140.426 23.5334C147.154 16.8064 153.164 9.24229 158.008 1.05032C158.067 0.930727 158.217 1.05032 158.157 1.14001C156.782 3.44214 155.376 5.74426 153.881 7.95669C148.666 15.6336 142.525 22.6368 135.593 28.8031C135.953 28.7499 136.313 28.6979 136.673 28.6459C137.346 28.5487 138.019 28.4516 138.692 28.3469C139.379 28.2423 140.067 28.1451 140.755 28.048C141.443 27.9508 142.13 27.8536 142.818 27.749C143.012 27.7198 143.207 27.6899 143.401 27.6599C144.403 27.5055 145.409 27.3506 146.436 27.3005C147.483 27.2706 148.619 27.4201 149.486 28.048C150.204 28.5562 150.682 29.3336 150.951 30.1707C151.579 32.1738 150.861 34.2069 149.695 35.8513C148.513 37.5107 146.972 38.9798 145.462 40.4187C145.177 40.6908 144.893 40.9618 144.612 41.2329C142.362 43.4107 140.054 45.5311 137.747 47.6512C134.202 50.9087 130.657 54.1653 127.324 57.6275C126.945 60.7238 126.656 63.834 126.367 66.9441C126.008 70.8106 125.65 74.6768 125.117 78.5153C124.758 81.0566 124.369 83.6278 123.741 86.1392C123.173 88.3517 122.246 90.594 120.452 92.059C118.837 93.3745 116.685 94.0322 114.711 93.225C112.887 92.4776 111.601 90.7136 111.093 88.8599C110.405 86.3784 110.974 83.7474 111.661 81.3257C112.319 79.0236 113.186 76.7812 114.233 74.6286C115.316 72.3848 116.571 70.2315 117.952 68.1645C117.713 68.4291 117.47 68.6903 117.223 68.948C115.638 70.5924 113.934 71.9976 111.9 73.0141C110.405 73.7616 108.611 74.4193 106.877 74.21C105.352 74.0307 104.485 72.9543 104.365 71.4595C104.246 69.6991 104.931 67.9388 105.558 66.327L105.561 66.317C106.309 64.3139 107.206 62.3407 108.103 60.3973C109.167 58.1102 110.278 55.8467 111.437 53.6068C110.749 54.1092 109.995 54.5146 109.209 54.7765C108.402 55.0456 107.505 55.1951 106.668 54.9858C105.87 54.8112 105.217 54.3039 104.693 53.6719C104.651 54.1794 104.583 54.6959 104.515 55.1951C104.066 58.3643 103.14 61.4437 102.033 64.4335C100.837 67.6624 99.4019 70.8017 97.6976 73.7915C96.2324 76.3328 94.5879 78.8442 92.5247 80.9669C90.9998 82.5216 89.0263 84.0763 86.694 83.7175C84.9299 83.4185 83.3451 82.2226 82.4481 80.6979C82.2948 80.4381 82.1603 80.1699 82.0429 79.895ZM122.325 62.3369C123.8 60.561 125.347 58.8551 126.944 57.1966C127.252 54.7438 127.617 52.3014 128.084 49.8783C126.642 54.0325 124.89 58.0818 122.635 61.8324C122.533 62.0013 122.43 62.1695 122.325 62.3369ZM126.828 58.1462C125.328 59.7229 123.875 61.3439 122.485 63.0283C119.465 66.7356 116.744 70.712 114.681 75.0472C113.665 77.1998 112.827 79.4122 112.17 81.6845C111.482 84.1361 110.944 86.8867 111.871 89.3682C112.618 91.3713 114.412 93.1054 116.655 93.0755C119.017 93.0456 120.96 91.3115 122.037 89.3383C123.204 87.1793 123.631 84.7071 124.04 82.3385L124.07 82.1628C124.549 79.5318 124.907 76.841 125.206 74.1801C125.473 71.7804 125.699 69.3712 125.925 66.961C126.201 64.0194 126.477 61.0762 126.828 58.1462ZM82.2764 79.3927C86.2295 75.4753 89.4834 70.6908 90.9698 65.3304C91.2988 64.1046 91.538 62.8489 91.6277 61.5932C91.6576 61.0252 91.6576 60.4571 91.6277 59.889C91.6196 59.8241 91.6131 59.7558 91.6065 59.686C91.5644 59.2419 91.5166 58.7367 90.9998 58.6333C90.3655 58.4892 89.6479 58.9287 89.1149 59.2552C89.095 59.2673 89.0755 59.2793 89.0562 59.2911C88.2489 59.7993 87.5611 60.487 86.9631 61.2344C85.8568 62.6695 84.9598 64.284 84.2122 65.9284C83.3451 67.8717 82.6275 69.9048 82.179 71.9976C81.7305 74.0905 81.4614 76.3029 81.9697 78.3957C82.0494 78.7358 82.1518 79.0694 82.2764 79.3927ZM80.1458 16.5673C78.4115 26.5531 77.066 36.5988 75.8699 46.6743C75.3535 51.1499 74.8722 55.6315 74.4339 60.1163C73.1071 60.6239 71.7818 61.1363 70.4579 61.6529C68.4639 62.4397 66.478 63.2371 64.4993 64.0477C65.668 54.2854 66.8344 44.5029 67.9761 34.7451C68.6937 28.7058 69.4113 22.6365 70.0393 16.5673C70.0393 16.5075 69.9196 16.5075 69.9196 16.5673C68.8059 24.3625 67.8198 32.1736 66.8331 39.9891L66.833 39.9902C66.4687 42.8756 66.1044 45.7616 65.7335 48.6476C65.0778 53.8785 64.4149 59.1165 63.7519 64.3546C60.0767 65.8677 56.4261 67.4271 52.795 69.0482C53.4499 65.2676 54.1052 61.487 54.8197 57.7065C55.2503 55.4282 55.7131 53.15 56.176 50.8717C56.4846 49.353 56.7932 47.8342 57.0922 46.3154L57.0923 46.3144L57.0924 46.3144L57.0924 46.3143L57.0924 46.3143L57.0924 46.3142C57.182 45.8363 57.2716 45.3583 57.3613 44.9102C57.3613 44.7009 57.0623 44.6112 57.0025 44.8205C56.1054 48.5876 55.2981 52.3548 54.4908 56.1518C54.1021 58.0353 53.7134 59.9488 53.3546 61.8323C52.9658 63.7159 52.5771 65.6293 52.2183 67.5129L52.2183 67.5132C52.0938 68.1666 51.9693 68.82 51.8461 69.4734C51.4616 69.6463 51.0774 69.82 50.6934 69.9944C48.4249 71.0181 46.17 72.0654 43.9274 73.1385C44.8145 68.9515 45.6949 64.7642 46.5761 60.5726C47.3481 56.9006 48.1208 53.2255 48.8993 49.5445C50.6635 41.2329 52.3977 32.9213 54.132 24.5799C54.2594 23.9609 54.3869 23.3308 54.5076 22.6963C56.3783 28.3488 56.5625 34.5093 55.4476 40.3061C55.0888 42.07 54.6403 43.8041 54.1021 45.5382C54.0423 45.6877 54.1619 45.7475 54.1918 45.6578C56.853 39.7978 57.2716 32.9811 56.1054 26.7026C55.7863 24.9332 55.2984 23.2201 54.7234 21.5087L54.73 21.4705H54.7106L54.6702 21.3509C54.5805 21.0519 54.1021 20.9922 54.0124 21.3509C52.7295 26.9989 51.5469 32.6612 50.3655 38.318C49.8396 40.836 49.3139 43.3529 48.7797 45.8671C47.8268 50.4138 46.8646 54.9605 45.9034 59.502L45.9033 59.5023L45.9033 59.5026L45.9032 59.5029L45.9031 59.5032L45.9025 59.5061C45.1449 63.086 44.3879 66.6628 43.6368 70.2337C43.4025 71.3615 43.1683 72.4892 42.9333 73.6163C38.8335 75.5954 34.7745 77.6622 30.7495 79.8307C30.0245 80.2066 29.2996 80.6065 28.5963 81.009C28.5261 81.044 28.4565 81.0797 28.3873 81.1163C28.3899 81.1189 28.3924 81.1217 28.3949 81.1246L28.3574 81.1462C28.2677 81.206 28.3574 81.3256 28.4172 81.2658C29.3079 80.7927 30.2763 80.4232 31.226 80.0609L31.2262 80.0608L31.4372 79.9802C32.0651 79.741 32.693 79.5019 33.321 79.3225C33.3463 79.3147 33.3725 79.3065 33.3992 79.298L33.4611 79.2784C33.8368 79.1592 34.3155 79.0073 34.6067 79.1132C34.3681 79.0178 34.0534 79.0937 33.7841 79.1586C33.7158 79.175 33.6505 79.1908 33.5901 79.2029C32.9322 79.3823 32.2744 79.5916 31.6166 79.8307C31.4153 79.9034 31.2119 79.9751 31.0076 80.047L31.0072 80.0472C30.6747 80.1643 30.3398 80.2822 30.0075 80.407C34.2578 78.1615 38.5361 76.004 42.8669 73.9344C42.3138 76.5852 41.7563 79.2315 41.1849 81.8639C40.4374 85.2125 39.5702 88.561 38.1649 91.6704C36.7895 94.7498 34.8459 97.5303 32.1847 99.6232C29.6132 101.686 26.5334 103.032 23.3042 103.689C16.5167 105.065 9.46004 103.002 3.92838 98.9355C3.4854 98.6081 3.05483 98.2683 2.63666 97.9161C4.15608 97.2865 5.61325 96.5185 7.00817 95.6468C8.68262 94.6003 10.1777 93.3446 11.6727 92.059C11.9418 91.8497 11.5531 91.4611 11.3139 91.7003C9.87865 92.9261 8.2341 93.9426 6.55965 94.8395C4.91511 95.7365 3.18085 96.5138 1.4167 97.1715C1.05789 97.321 0.818683 97.8293 1.17749 98.1283C6.44005 102.792 13.4967 105.722 20.6131 105.124C23.962 104.855 27.2511 103.869 30.1814 102.194C33.1415 100.49 35.5635 98.0685 37.3576 95.1684C39.1516 92.2384 40.3178 88.9497 41.1849 85.6609C41.9579 82.69 42.5748 79.6801 43.1932 76.6626C43.3403 75.9451 43.4874 75.2271 43.6368 74.5091L43.8588 73.4624C45.3528 72.7544 46.8532 72.0568 48.3611 71.3697C49.4974 70.8481 50.6373 70.3327 51.7803 69.8231C51.5711 70.9366 51.3662 72.0501 51.1718 73.1636L51.025 73.9454C50.7156 75.5917 50.4093 77.2217 50.1253 78.874C49.4674 82.6711 48.8096 86.498 48.2415 90.3249L48.1621 90.8358L48.0978 91.2485C47.5456 94.7934 46.9965 98.319 46.7764 101.895C46.7524 102.278 46.8051 102.661 46.8577 103.043L46.8577 103.043C46.8708 103.139 46.884 103.235 46.896 103.33C46.9259 103.689 47.4043 103.779 47.5239 103.42C47.5737 103.271 47.6302 103.121 47.6867 102.972L47.6867 102.972C47.7996 102.673 47.9126 102.374 47.9724 102.075L48.0092 101.879C48.0861 101.473 48.16 101.082 48.2116 100.669C48.2614 100.341 48.3146 100.012 48.3677 99.6829C48.4741 99.0251 48.5804 98.3674 48.6601 97.7096C48.8993 95.7962 49.1385 93.9126 49.4076 91.9991C49.9159 88.1722 50.4243 84.3453 50.9924 80.5483C51.2615 78.6349 51.5306 76.7513 51.8296 74.8378C52.1129 73.025 52.423 71.2122 52.7346 69.3993C56.3659 67.7928 60.0271 66.2432 63.7036 64.7358L63.7003 64.7623L63.7001 64.7635L63.7 64.7647C63.0198 70.138 62.3397 75.5114 61.667 80.8773C61.4727 82.3721 61.2858 83.8743 61.0989 85.3766C60.912 86.8791 60.7251 88.3815 60.5308 89.8765L59.9926 94.4509C59.858 95.5944 59.7739 96.738 59.6898 97.8816C59.6618 98.2628 59.6337 98.644 59.6038 99.0252C59.5739 99.2644 59.9627 99.3242 60.0225 99.085C60.1062 98.5468 60.1911 98.0086 60.276 97.4704C60.6157 95.3178 60.9554 93.1652 61.2185 91.0126C61.3829 89.6822 61.5474 88.3443 61.7119 87.0063C61.8763 85.6684 62.0408 84.3305 62.2052 83C62.5154 80.4761 62.819 77.9522 63.1222 75.4315L63.1223 75.4311L63.1223 75.4308C63.462 72.6067 63.8012 69.7866 64.1488 66.9749L64.4537 64.4289C65.7558 63.8973 67.0598 63.3708 68.3648 62.8488C70.367 62.0519 72.3787 61.2677 74.3968 60.497C73.8608 66.0116 73.3902 71.531 72.9994 77.0504C72.5808 82.7608 72.222 88.4713 72.1024 94.2117C72.1024 94.3612 72.3117 94.3612 72.3117 94.2117C72.5343 91.2837 72.7177 88.3655 72.9012 85.4459L72.9012 85.4456L72.9013 85.4439C73.0382 83.2663 73.1751 81.0879 73.3284 78.904C73.6872 73.8513 74.0759 68.7986 74.5543 63.7758C74.657 62.6226 74.7624 61.4695 74.8706 60.3164C78.905 58.7809 82.964 57.3002 87.023 55.8827C92.3154 54.029 97.6079 52.265 102.96 50.5908C106.907 49.365 110.884 48.1691 114.861 47.0927L114.876 47.0892C114.671 47.2803 114.475 47.4824 114.279 47.6843C113.983 47.9891 113.688 48.2933 113.366 48.5577C111.601 49.9629 109.209 50.6207 107.027 51.0691C106.877 51.099 106.937 51.3382 107.086 51.3083C109.359 50.9794 111.661 50.4413 113.515 49.0062C113.866 48.7281 114.182 48.401 114.5 48.0725L114.5 48.0725L114.5 48.0724L114.5 48.0724C114.951 47.6066 115.405 47.138 115.962 46.8018L115.997 46.7938L115.993 46.7837L116.027 46.7639C116.236 46.6443 116.087 46.2855 115.847 46.3453C112.02 47.3917 108.223 48.5278 104.455 49.6938C99.2524 51.3083 94.0796 53.0125 88.9366 54.8063C84.2427 56.4389 79.5659 58.1573 74.9064 59.9357C75.7363 51.1411 76.7286 42.3522 77.9032 33.609C78.4782 29.2621 79.1064 24.8975 79.7331 20.5424L79.7335 20.5403L79.7339 20.5369C79.9217 19.2325 80.1093 17.929 80.2953 16.6271C80.2953 16.5075 80.1458 16.4776 80.1458 16.5673Z"/>
</mask>
<path fill-rule="evenodd" clip-rule="evenodd" d="M82.0429 79.895C80.4754 81.3957 78.7901 82.765 77.036 83.9866C76.9762 84.0464 76.9463 83.9567 77.0061 83.8072C77.8733 83.2093 78.6806 82.5814 79.4879 81.9237C80.3342 81.2193 81.1621 80.4773 81.9629 79.7001C81.3293 78.091 81.2537 76.269 81.4016 74.5688C81.7903 70.3831 83.4049 66.1377 85.6475 62.6097C86.5744 61.1447 87.7406 59.7097 89.2954 58.8725C90.1027 58.4539 91.5679 58.0354 91.7473 59.321C92.136 61.8324 91.4782 64.5531 90.6708 66.8851C89.0031 71.7025 86.0168 76.0096 82.3563 79.5916C82.9472 81.0016 83.969 82.1993 85.3784 82.8804C86.6641 83.5082 88.1293 83.568 89.415 82.9402C91.4184 81.9536 93.0031 80.0999 94.3487 78.3359C96.1726 75.9441 97.6676 73.343 99.0132 70.6522C100.478 67.7521 101.704 64.7325 102.691 61.6231C103.541 58.928 104.218 56.1469 104.414 53.3077C104.408 53.299 104.401 53.2903 104.395 53.2816C104.402 53.2799 104.409 53.2782 104.416 53.2764C104.419 53.2284 104.422 53.1803 104.425 53.1322C104.455 52.9528 104.664 52.893 104.754 53.0425C105.352 53.8796 106.16 54.5075 107.176 54.627C107.954 54.7167 108.731 54.5373 109.449 54.2384C110.346 53.8796 111.243 53.3414 111.96 52.6837C112.11 52.5342 112.349 52.7435 112.259 52.9229C112.244 52.9528 112.229 52.9752 112.214 52.9976C112.199 53.02 112.185 53.0425 112.17 53.0724C110.734 55.8528 109.329 58.6632 108.043 61.5035L108.043 61.5036C107.206 63.3572 106.369 65.2109 105.681 67.1243C105.66 67.1845 105.638 67.2451 105.617 67.3062C105.09 68.7927 104.473 70.5365 104.904 72.0873C105.292 73.6121 106.817 73.941 108.223 73.7616C110.077 73.5523 111.871 72.6853 113.425 71.6687C115.518 70.3233 117.253 68.4697 118.837 66.5562C120.691 64.3139 122.246 61.8623 123.622 59.2911C126.082 54.6387 127.824 49.6756 129.277 44.6367C129.437 44.0386 129.605 43.4421 129.781 42.8473C129.841 42.5783 130.29 42.6978 130.2 42.9669C130.02 43.6845 129.811 44.402 129.602 45.1196C129.579 45.1987 129.555 45.2779 129.532 45.3571C129.41 45.8349 129.295 46.3144 129.183 46.7938C128.413 50.0602 127.871 53.362 127.443 56.6815C130.618 53.4229 133.975 50.3398 137.332 47.257C139.639 45.1382 141.946 43.0196 144.193 40.8442C145.21 39.8875 146.197 38.9008 147.154 37.9142C147.991 37.0771 148.828 36.1801 149.486 35.1935C150.622 33.4595 151.19 31.1274 149.934 29.2738C148.65 27.3608 146.126 27.7677 144.072 28.0987C143.782 28.1453 143.502 28.1904 143.237 28.2273L134.805 29.4831C134.565 29.5428 134.296 29.2439 134.535 29.0346C136.569 27.2706 138.512 25.417 140.426 23.5334C147.154 16.8064 153.164 9.24229 158.008 1.05032C158.067 0.930727 158.217 1.05032 158.157 1.14001C156.782 3.44214 155.376 5.74426 153.881 7.95669C148.666 15.6336 142.525 22.6368 135.593 28.8031C135.953 28.7499 136.313 28.6979 136.673 28.6459C137.346 28.5487 138.019 28.4516 138.692 28.3469C139.379 28.2423 140.067 28.1451 140.755 28.048C141.443 27.9508 142.13 27.8536 142.818 27.749C143.012 27.7198 143.207 27.6899 143.401 27.6599C144.403 27.5055 145.409 27.3506 146.436 27.3005C147.483 27.2706 148.619 27.4201 149.486 28.048C150.204 28.5562 150.682 29.3336 150.951 30.1707C151.579 32.1738 150.861 34.2069 149.695 35.8513C148.513 37.5107 146.972 38.9798 145.462 40.4187C145.177 40.6908 144.893 40.9618 144.612 41.2329C142.362 43.4107 140.054 45.5311 137.747 47.6512C134.202 50.9087 130.657 54.1653 127.324 57.6275C126.945 60.7238 126.656 63.834 126.367 66.9441C126.008 70.8106 125.65 74.6768 125.117 78.5153C124.758 81.0566 124.369 83.6278 123.741 86.1392C123.173 88.3517 122.246 90.594 120.452 92.059C118.837 93.3745 116.685 94.0322 114.711 93.225C112.887 92.4776 111.601 90.7136 111.093 88.8599C110.405 86.3784 110.974 83.7474 111.661 81.3257C112.319 79.0236 113.186 76.7812 114.233 74.6286C115.316 72.3848 116.571 70.2315 117.952 68.1645C117.713 68.4291 117.47 68.6903 117.223 68.948C115.638 70.5924 113.934 71.9976 111.9 73.0141C110.405 73.7616 108.611 74.4193 106.877 74.21C105.352 74.0307 104.485 72.9543 104.365 71.4595C104.246 69.6991 104.931 67.9388 105.558 66.327L105.561 66.317C106.309 64.3139 107.206 62.3407 108.103 60.3973C109.167 58.1102 110.278 55.8467 111.437 53.6068C110.749 54.1092 109.995 54.5146 109.209 54.7765C108.402 55.0456 107.505 55.1951 106.668 54.9858C105.87 54.8112 105.217 54.3039 104.693 53.6719C104.651 54.1794 104.583 54.6959 104.515 55.1951C104.066 58.3643 103.14 61.4437 102.033 64.4335C100.837 67.6624 99.4019 70.8017 97.6976 73.7915C96.2324 76.3328 94.5879 78.8442 92.5247 80.9669C90.9998 82.5216 89.0263 84.0763 86.694 83.7175C84.9299 83.4185 83.3451 82.2226 82.4481 80.6979C82.2948 80.4381 82.1603 80.1699 82.0429 79.895ZM122.325 62.3369C123.8 60.561 125.347 58.8551 126.944 57.1966C127.252 54.7438 127.617 52.3014 128.084 49.8783C126.642 54.0325 124.89 58.0818 122.635 61.8324C122.533 62.0013 122.43 62.1695 122.325 62.3369ZM126.828 58.1462C125.328 59.7229 123.875 61.3439 122.485 63.0283C119.465 66.7356 116.744 70.712 114.681 75.0472C113.665 77.1998 112.827 79.4122 112.17 81.6845C111.482 84.1361 110.944 86.8867 111.871 89.3682C112.618 91.3713 114.412 93.1054 116.655 93.0755C119.017 93.0456 120.96 91.3115 122.037 89.3383C123.204 87.1793 123.631 84.7071 124.04 82.3385L124.07 82.1628C124.549 79.5318 124.907 76.841 125.206 74.1801C125.473 71.7804 125.699 69.3712 125.925 66.961C126.201 64.0194 126.477 61.0762 126.828 58.1462ZM82.2764 79.3927C86.2295 75.4753 89.4834 70.6908 90.9698 65.3304C91.2988 64.1046 91.538 62.8489 91.6277 61.5932C91.6576 61.0252 91.6576 60.4571 91.6277 59.889C91.6196 59.8241 91.6131 59.7558 91.6065 59.686C91.5644 59.2419 91.5166 58.7367 90.9998 58.6333C90.3655 58.4892 89.6479 58.9287 89.1149 59.2552C89.095 59.2673 89.0755 59.2793 89.0562 59.2911C88.2489 59.7993 87.5611 60.487 86.9631 61.2344C85.8568 62.6695 84.9598 64.284 84.2122 65.9284C83.3451 67.8717 82.6275 69.9048 82.179 71.9976C81.7305 74.0905 81.4614 76.3029 81.9697 78.3957C82.0494 78.7358 82.1518 79.0694 82.2764 79.3927ZM80.1458 16.5673C78.4115 26.5531 77.066 36.5988 75.8699 46.6743C75.3535 51.1499 74.8722 55.6315 74.4339 60.1163C73.1071 60.6239 71.7818 61.1363 70.4579 61.6529C68.4639 62.4397 66.478 63.2371 64.4993 64.0477C65.668 54.2854 66.8344 44.5029 67.9761 34.7451C68.6937 28.7058 69.4113 22.6365 70.0393 16.5673C70.0393 16.5075 69.9196 16.5075 69.9196 16.5673C68.8059 24.3625 67.8198 32.1736 66.8331 39.9891L66.833 39.9902C66.4687 42.8756 66.1044 45.7616 65.7335 48.6476C65.0778 53.8785 64.4149 59.1165 63.7519 64.3546C60.0767 65.8677 56.4261 67.4271 52.795 69.0482C53.4499 65.2676 54.1052 61.487 54.8197 57.7065C55.2503 55.4282 55.7131 53.15 56.176 50.8717C56.4846 49.353 56.7932 47.8342 57.0922 46.3154L57.0923 46.3144L57.0924 46.3144L57.0924 46.3143L57.0924 46.3143L57.0924 46.3142C57.182 45.8363 57.2716 45.3583 57.3613 44.9102C57.3613 44.7009 57.0623 44.6112 57.0025 44.8205C56.1054 48.5876 55.2981 52.3548 54.4908 56.1518C54.1021 58.0353 53.7134 59.9488 53.3546 61.8323C52.9658 63.7159 52.5771 65.6293 52.2183 67.5129L52.2183 67.5132C52.0938 68.1666 51.9693 68.82 51.8461 69.4734C51.4616 69.6463 51.0774 69.82 50.6934 69.9944C48.4249 71.0181 46.17 72.0654 43.9274 73.1385C44.8145 68.9515 45.6949 64.7642 46.5761 60.5726C47.3481 56.9006 48.1208 53.2255 48.8993 49.5445C50.6635 41.2329 52.3977 32.9213 54.132 24.5799C54.2594 23.9609 54.3869 23.3308 54.5076 22.6963C56.3783 28.3488 56.5625 34.5093 55.4476 40.3061C55.0888 42.07 54.6403 43.8041 54.1021 45.5382C54.0423 45.6877 54.1619 45.7475 54.1918 45.6578C56.853 39.7978 57.2716 32.9811 56.1054 26.7026C55.7863 24.9332 55.2984 23.2201 54.7234 21.5087L54.73 21.4705H54.7106L54.6702 21.3509C54.5805 21.0519 54.1021 20.9922 54.0124 21.3509C52.7295 26.9989 51.5469 32.6612 50.3655 38.318C49.8396 40.836 49.3139 43.3529 48.7797 45.8671C47.8268 50.4138 46.8646 54.9605 45.9034 59.502L45.9033 59.5023L45.9033 59.5026L45.9032 59.5029L45.9031 59.5032L45.9025 59.5061C45.1449 63.086 44.3879 66.6628 43.6368 70.2337C43.4025 71.3615 43.1683 72.4892 42.9333 73.6163C38.8335 75.5954 34.7745 77.6622 30.7495 79.8307C30.0245 80.2066 29.2996 80.6065 28.5963 81.009C28.5261 81.044 28.4565 81.0797 28.3873 81.1163C28.3899 81.1189 28.3924 81.1217 28.3949 81.1246L28.3574 81.1462C28.2677 81.206 28.3574 81.3256 28.4172 81.2658C29.3079 80.7927 30.2763 80.4232 31.226 80.0609L31.2262 80.0608L31.4372 79.9802C32.0651 79.741 32.693 79.5019 33.321 79.3225C33.3463 79.3147 33.3725 79.3065 33.3992 79.298L33.4611 79.2784C33.8368 79.1592 34.3155 79.0073 34.6067 79.1132C34.3681 79.0178 34.0534 79.0937 33.7841 79.1586C33.7158 79.175 33.6505 79.1908 33.5901 79.2029C32.9322 79.3823 32.2744 79.5916 31.6166 79.8307C31.4153 79.9034 31.2119 79.9751 31.0076 80.047L31.0072 80.0472C30.6747 80.1643 30.3398 80.2822 30.0075 80.407C34.2578 78.1615 38.5361 76.004 42.8669 73.9344C42.3138 76.5852 41.7563 79.2315 41.1849 81.8639C40.4374 85.2125 39.5702 88.561 38.1649 91.6704C36.7895 94.7498 34.8459 97.5303 32.1847 99.6232C29.6132 101.686 26.5334 103.032 23.3042 103.689C16.5167 105.065 9.46004 103.002 3.92838 98.9355C3.4854 98.6081 3.05483 98.2683 2.63666 97.9161C4.15608 97.2865 5.61325 96.5185 7.00817 95.6468C8.68262 94.6003 10.1777 93.3446 11.6727 92.059C11.9418 91.8497 11.5531 91.4611 11.3139 91.7003C9.87865 92.9261 8.2341 93.9426 6.55965 94.8395C4.91511 95.7365 3.18085 96.5138 1.4167 97.1715C1.05789 97.321 0.818683 97.8293 1.17749 98.1283C6.44005 102.792 13.4967 105.722 20.6131 105.124C23.962 104.855 27.2511 103.869 30.1814 102.194C33.1415 100.49 35.5635 98.0685 37.3576 95.1684C39.1516 92.2384 40.3178 88.9497 41.1849 85.6609C41.9579 82.69 42.5748 79.6801 43.1932 76.6626C43.3403 75.9451 43.4874 75.2271 43.6368 74.5091L43.8588 73.4624C45.3528 72.7544 46.8532 72.0568 48.3611 71.3697C49.4974 70.8481 50.6373 70.3327 51.7803 69.8231C51.5711 70.9366 51.3662 72.0501 51.1718 73.1636L51.025 73.9454C50.7156 75.5917 50.4093 77.2217 50.1253 78.874C49.4674 82.6711 48.8096 86.498 48.2415 90.3249L48.1621 90.8358L48.0978 91.2485C47.5456 94.7934 46.9965 98.319 46.7764 101.895C46.7524 102.278 46.8051 102.661 46.8577 103.043L46.8577 103.043C46.8708 103.139 46.884 103.235 46.896 103.33C46.9259 103.689 47.4043 103.779 47.5239 103.42C47.5737 103.271 47.6302 103.121 47.6867 102.972L47.6867 102.972C47.7996 102.673 47.9126 102.374 47.9724 102.075L48.0092 101.879C48.0861 101.473 48.16 101.082 48.2116 100.669C48.2614 100.341 48.3146 100.012 48.3677 99.6829C48.4741 99.0251 48.5804 98.3674 48.6601 97.7096C48.8993 95.7962 49.1385 93.9126 49.4076 91.9991C49.9159 88.1722 50.4243 84.3453 50.9924 80.5483C51.2615 78.6349 51.5306 76.7513 51.8296 74.8378C52.1129 73.025 52.423 71.2122 52.7346 69.3993C56.3659 67.7928 60.0271 66.2432 63.7036 64.7358L63.7003 64.7623L63.7001 64.7635L63.7 64.7647C63.0198 70.138 62.3397 75.5114 61.667 80.8773C61.4727 82.3721 61.2858 83.8743 61.0989 85.3766C60.912 86.8791 60.7251 88.3815 60.5308 89.8765L59.9926 94.4509C59.858 95.5944 59.7739 96.738 59.6898 97.8816C59.6618 98.2628 59.6337 98.644 59.6038 99.0252C59.5739 99.2644 59.9627 99.3242 60.0225 99.085C60.1062 98.5468 60.1911 98.0086 60.276 97.4704C60.6157 95.3178 60.9554 93.1652 61.2185 91.0126C61.3829 89.6822 61.5474 88.3443 61.7119 87.0063C61.8763 85.6684 62.0408 84.3305 62.2052 83C62.5154 80.4761 62.819 77.9522 63.1222 75.4315L63.1223 75.4311L63.1223 75.4308C63.462 72.6067 63.8012 69.7866 64.1488 66.9749L64.4537 64.4289C65.7558 63.8973 67.0598 63.3708 68.3648 62.8488C70.367 62.0519 72.3787 61.2677 74.3968 60.497C73.8608 66.0116 73.3902 71.531 72.9994 77.0504C72.5808 82.7608 72.222 88.4713 72.1024 94.2117C72.1024 94.3612 72.3117 94.3612 72.3117 94.2117C72.5343 91.2837 72.7177 88.3655 72.9012 85.4459L72.9012 85.4456L72.9013 85.4439C73.0382 83.2663 73.1751 81.0879 73.3284 78.904C73.6872 73.8513 74.0759 68.7986 74.5543 63.7758C74.657 62.6226 74.7624 61.4695 74.8706 60.3164C78.905 58.7809 82.964 57.3002 87.023 55.8827C92.3154 54.029 97.6079 52.265 102.96 50.5908C106.907 49.365 110.884 48.1691 114.861 47.0927L114.876 47.0892C114.671 47.2803 114.475 47.4824 114.279 47.6843C113.983 47.9891 113.688 48.2933 113.366 48.5577C111.601 49.9629 109.209 50.6207 107.027 51.0691C106.877 51.099 106.937 51.3382 107.086 51.3083C109.359 50.9794 111.661 50.4413 113.515 49.0062C113.866 48.7281 114.182 48.401 114.5 48.0725L114.5 48.0725L114.5 48.0724L114.5 48.0724C114.951 47.6066 115.405 47.138 115.962 46.8018L115.997 46.7938L115.993 46.7837L116.027 46.7639C116.236 46.6443 116.087 46.2855 115.847 46.3453C112.02 47.3917 108.223 48.5278 104.455 49.6938C99.2524 51.3083 94.0796 53.0125 88.9366 54.8063C84.2427 56.4389 79.5659 58.1573 74.9064 59.9357C75.7363 51.1411 76.7286 42.3522 77.9032 33.609C78.4782 29.2621 79.1064 24.8975 79.7331 20.5424L79.7335 20.5403L79.7339 20.5369C79.9217 19.2325 80.1093 17.929 80.2953 16.6271C80.2953 16.5075 80.1458 16.4776 80.1458 16.5673Z" fill="black"/>
<path d="M77.036 83.9866L76.8646 83.7404L76.8427 83.7556L76.8239 83.7745L77.036 83.9866ZM82.0429 79.895L82.3188 79.7772L82.1485 79.3785L81.8354 79.6783L82.0429 79.895ZM77.0061 83.8072L76.8358 83.5602L76.7613 83.6117L76.7276 83.6958L77.0061 83.8072ZM79.4879 81.9237L79.6774 82.1562L79.6798 82.1542L79.4879 81.9237ZM81.9629 79.7001L82.1719 79.9154L82.3153 79.7762L82.2421 79.5902L81.9629 79.7001ZM81.4016 74.5688L81.1028 74.5411L81.1027 74.5428L81.4016 74.5688ZM85.6475 62.6097L85.9007 62.7707L85.901 62.7701L85.6475 62.6097ZM89.2954 58.8725L89.1573 58.6062L89.1532 58.6084L89.2954 58.8725ZM91.7473 59.321L91.4501 59.3624L91.4508 59.3669L91.7473 59.321ZM90.6708 66.8851L90.9543 66.9832L90.6708 66.8851ZM82.3563 79.5916L82.1465 79.3772L82.0009 79.5197L82.0796 79.7076L82.3563 79.5916ZM85.3784 82.8804L85.51 82.6108L85.5089 82.6103L85.3784 82.8804ZM89.415 82.9402L89.5466 83.2098L89.5476 83.2093L89.415 82.9402ZM94.3487 78.3359L94.5872 78.5179L94.5872 78.5178L94.3487 78.3359ZM99.0132 70.6522L98.7454 70.5169L98.7449 70.518L99.0132 70.6522ZM102.691 61.6231L102.977 61.7138L102.977 61.7133L102.691 61.6231ZM104.414 53.3077L104.713 53.3283L104.72 53.2213L104.658 53.1339L104.414 53.3077ZM104.395 53.2816L104.323 52.9906L103.898 53.0966L104.15 53.4543L104.395 53.2816ZM104.416 53.2764L104.491 53.567L104.701 53.5131L104.715 53.2967L104.416 53.2764ZM104.425 53.1322L104.129 53.0828L104.127 53.0981L104.126 53.1136L104.425 53.1322ZM104.754 53.0425L104.497 53.1968L104.503 53.2071L104.51 53.2168L104.754 53.0425ZM107.176 54.627L107.141 54.925L107.142 54.9251L107.176 54.627ZM109.449 54.2384L109.337 53.9598L109.333 53.9614L109.449 54.2384ZM111.96 52.6837L112.163 52.9051L112.172 52.8958L111.96 52.6837ZM112.259 52.9229L112.528 53.0571L112.528 53.057L112.259 52.9229ZM112.214 52.9976L112.464 53.164L112.464 53.164L112.214 52.9976ZM112.17 53.0724L112.436 53.21L112.438 53.2065L112.17 53.0724ZM108.043 61.5035L108.304 61.6524L108.311 61.6401L108.317 61.6272L108.043 61.5035ZM108.043 61.5036L107.783 61.3548L107.776 61.3671L107.77 61.3801L108.043 61.5036ZM105.681 67.1243L105.399 67.0228L105.398 67.0244L105.681 67.1243ZM105.617 67.3062L105.9 67.4063L105.617 67.3062ZM104.904 72.0873L105.194 72.0132L105.193 72.007L104.904 72.0873ZM108.223 73.7616L108.189 73.4634L108.185 73.464L108.223 73.7616ZM113.425 71.6687L113.263 71.4164L113.261 71.4176L113.425 71.6687ZM118.837 66.5562L119.069 66.7476L119.069 66.7474L118.837 66.5562ZM123.622 59.2911L123.886 59.4326L123.887 59.4313L123.622 59.2911ZM129.277 44.6367L129.566 44.7199L129.567 44.714L129.277 44.6367ZM129.781 42.8473L130.069 42.9328L130.072 42.9227L130.074 42.9124L129.781 42.8473ZM130.2 42.9669L129.915 42.8721L129.912 42.883L129.909 42.8942L130.2 42.9669ZM129.602 45.1196L129.89 45.2041L129.89 45.2036L129.602 45.1196ZM129.532 45.3571L129.244 45.2718L129.241 45.2832L129.532 45.3571ZM129.183 46.7938L129.475 46.8626L129.475 46.8618L129.183 46.7938ZM127.443 56.6815L127.145 56.6432L127.03 57.5348L127.658 56.8909L127.443 56.6815ZM137.332 47.257L137.535 47.478L137.332 47.257ZM144.193 40.8442L143.988 40.6257L143.985 40.6286L144.193 40.8442ZM147.154 37.9142L146.941 37.702L146.938 37.7054L147.154 37.9142ZM149.486 35.1935L149.736 35.3599L149.737 35.3579L149.486 35.1935ZM149.934 29.2738L149.685 29.441L149.686 29.442L149.934 29.2738ZM144.072 28.0987L144.024 27.8025H144.024L144.072 28.0987ZM143.237 28.2273L143.195 27.9302L143.192 27.9306L143.237 28.2273ZM134.805 29.4831L134.76 29.1863L134.746 29.1885L134.732 29.192L134.805 29.4831ZM134.535 29.0346L134.339 28.808L134.338 28.8088L134.535 29.0346ZM140.426 23.5334L140.636 23.7472L140.638 23.7455L140.426 23.5334ZM158.008 1.05032L158.266 1.20301L158.271 1.19393L158.276 1.18449L158.008 1.05032ZM158.157 1.14001L157.908 0.973594L157.903 0.97977L157.9 0.986143L158.157 1.14001ZM153.881 7.95669L154.129 8.12527L154.13 8.12466L153.881 7.95669ZM135.593 28.8031L135.394 28.5789L134.643 29.2466L135.637 29.0999L135.593 28.8031ZM136.673 28.6459L136.716 28.9428L136.673 28.6459ZM138.692 28.3469L138.647 28.0504L138.646 28.0505L138.692 28.3469ZM140.755 28.048L140.797 28.345L140.755 28.048ZM142.818 27.749L142.773 27.4523L142.773 27.4524L142.818 27.749ZM143.401 27.6599L143.447 27.9565L143.401 27.6599ZM146.436 27.3005L146.427 27.0006L146.421 27.0009L146.436 27.3005ZM149.486 28.048L149.31 28.291L149.312 28.2928L149.486 28.048ZM150.951 30.1707L151.237 30.081L151.237 30.0789L150.951 30.1707ZM149.695 35.8513L149.94 36.0253L149.94 36.0248L149.695 35.8513ZM145.462 40.4187L145.669 40.6359V40.6358L145.462 40.4187ZM144.612 41.2329L144.404 41.0171L144.403 41.0173L144.612 41.2329ZM137.747 47.6512L137.544 47.4303L137.747 47.6512ZM127.324 57.6275L127.108 57.4195L127.038 57.4916L127.026 57.591L127.324 57.6275ZM126.367 66.9441L126.069 66.9163L126.367 66.9441ZM125.117 78.5153L125.414 78.5573L125.414 78.5566L125.117 78.5153ZM123.741 86.1392L124.032 86.2138L124.032 86.212L123.741 86.1392ZM120.452 92.059L120.642 92.2916L120.642 92.2914L120.452 92.059ZM114.711 93.225L114.597 93.5026L114.598 93.5027L114.711 93.225ZM111.093 88.8599L111.382 88.7806L111.382 88.7798L111.093 88.8599ZM111.661 81.3257L111.373 81.2433L111.373 81.2437L111.661 81.3257ZM114.233 74.6286L114.503 74.7598L114.503 74.759L114.233 74.6286ZM117.952 68.1645L118.202 68.3312L117.73 67.9632L117.952 68.1645ZM117.223 68.948L117.439 69.1562L117.439 69.1556L117.223 68.948ZM111.9 73.0141L111.766 72.7458L111.9 73.0141ZM106.877 74.21L106.913 73.9122L106.912 73.9121L106.877 74.21ZM104.365 71.4595L104.066 71.4798L104.066 71.4834L104.365 71.4595ZM105.558 66.327L105.278 66.2181L105.278 66.2182L105.558 66.327ZM105.561 66.317L105.841 66.4259L105.843 66.4219L105.561 66.317ZM108.103 60.3973L107.831 60.2708L107.831 60.2716L108.103 60.3973ZM111.437 53.6068L111.703 53.7447L111.26 53.3646L111.437 53.6068ZM109.209 54.7765L109.304 55.0611L109.209 54.7765ZM106.668 54.9858L106.741 54.6946L106.732 54.6927L106.668 54.9858ZM104.693 53.6719L104.924 53.4804L104.455 52.9145L104.394 53.6472L104.693 53.6719ZM104.515 55.1951L104.812 55.2371L104.812 55.2356L104.515 55.1951ZM102.033 64.4335L102.314 64.5377L102.315 64.5376L102.033 64.4335ZM97.6976 73.7915L97.9575 73.9413L97.9582 73.9401L97.6976 73.7915ZM92.5247 80.9669L92.7389 81.177L92.7398 81.176L92.5247 80.9669ZM86.694 83.7175L86.6439 84.0133L86.6484 84.014L86.694 83.7175ZM82.4481 80.6979L82.7067 80.5457L82.7065 80.5454L82.4481 80.6979ZM126.944 57.1966L127.16 57.4046L127.229 57.3328L127.242 57.2339L126.944 57.1966ZM122.325 62.3369L122.071 62.1783L122.556 62.5285L122.325 62.3369ZM128.084 49.8783L128.379 49.935L127.801 49.7799L128.084 49.8783ZM122.635 61.8324L122.892 61.9876L122.892 61.987L122.635 61.8324ZM122.485 63.0283L122.254 62.8374L122.253 62.8388L122.485 63.0283ZM126.828 58.1462L127.126 58.1818L127.233 57.2847L126.61 57.9395L126.828 58.1462ZM114.681 75.0472L114.41 74.9183L114.41 74.9191L114.681 75.0472ZM112.17 81.6845L111.881 81.601L111.881 81.6034L112.17 81.6845ZM111.871 89.3682L112.152 89.2633L112.152 89.2632L111.871 89.3682ZM116.655 93.0755L116.651 92.7755H116.651L116.655 93.0755ZM122.037 89.3383L122.3 89.482L122.301 89.481L122.037 89.3383ZM124.04 82.3385L123.744 82.2875V82.2875L124.04 82.3385ZM124.07 82.1628L123.775 82.1092L123.775 82.1118L124.07 82.1628ZM125.206 74.1801L125.505 74.2136L125.505 74.2133L125.206 74.1801ZM125.925 66.961L126.224 66.989L125.925 66.961ZM90.9698 65.3304L91.2589 65.4106L91.2596 65.4082L90.9698 65.3304ZM82.2764 79.3927L81.9964 79.5006L82.1615 79.929L82.4875 79.6058L82.2764 79.3927ZM91.6277 61.5932L91.927 61.6146L91.9273 61.609L91.6277 61.5932ZM91.6277 59.889L91.9273 59.8733L91.9267 59.8625L91.9254 59.8518L91.6277 59.889ZM91.6065 59.686L91.9051 59.6577L91.9051 59.6577L91.6065 59.686ZM90.9998 58.6333L90.9333 58.926L90.9409 58.9275L90.9998 58.6333ZM89.1149 59.2552L89.2715 59.511V59.511L89.1149 59.2552ZM89.0562 59.2911L88.8997 59.0351L88.8964 59.0372L89.0562 59.2911ZM86.9631 61.2344L86.7288 61.047L86.7255 61.0513L86.9631 61.2344ZM84.2122 65.9284L83.9391 65.8042L83.9383 65.8061L84.2122 65.9284ZM82.179 71.9976L82.4723 72.0605L82.179 71.9976ZM81.9697 78.3957L82.2618 78.3273L82.2612 78.3249L81.9697 78.3957ZM75.8699 46.6743L75.572 46.6389L75.5719 46.6399L75.8699 46.6743ZM80.1458 16.5673L80.4413 16.6186L80.4458 16.5931V16.5673H80.1458ZM74.4339 60.1163L74.5411 60.3965L74.7144 60.3301L74.7324 60.1454L74.4339 60.1163ZM70.4579 61.6529L70.3488 61.3734L70.3477 61.3739L70.4579 61.6529ZM64.4993 64.0477L64.2014 64.012L64.1408 64.5188L64.613 64.3253L64.4993 64.0477ZM67.9761 34.7451L67.6782 34.7097L67.6781 34.7103L67.9761 34.7451ZM70.0393 16.5673L70.3377 16.5982L70.3393 16.5828V16.5673H70.0393ZM69.9196 16.5673L70.2166 16.6097L70.2197 16.5886V16.5673H69.9196ZM66.8331 39.9891L66.5355 39.9515L66.5353 39.9533L66.8331 39.9891ZM66.833 39.9902L67.1306 40.0278L67.1309 40.026L66.833 39.9902ZM65.7335 48.6476L65.436 48.6093L65.4359 48.6102L65.7335 48.6476ZM63.7519 64.3546L63.8661 64.632L64.0276 64.5656L64.0495 64.3923L63.7519 64.3546ZM52.795 69.0482L52.4994 68.997L52.4033 69.5516L52.9173 69.3221L52.795 69.0482ZM54.8197 57.7065L54.5249 57.6507L54.8197 57.7065ZM56.176 50.8717L56.47 50.9315L56.176 50.8717ZM57.0922 46.3154L57.3865 46.3734L57.387 46.3709L57.0922 46.3154ZM57.0923 46.3144L56.7982 46.2556L56.7975 46.2589L57.0923 46.3144ZM57.0924 46.3142L57.3866 46.3731L57.3873 46.3695L57.0924 46.3142ZM57.3613 44.9102L57.6554 44.9691L57.6613 44.9399V44.9102H57.3613ZM57.0025 44.8205L56.7137 44.738L56.7106 44.751L57.0025 44.8205ZM54.4908 56.1518L54.1973 56.0894L54.197 56.0911L54.4908 56.1518ZM53.3546 61.8323L53.6484 61.893L53.6493 61.8885L53.3546 61.8323ZM52.2183 67.5129L52.5121 67.5741L52.513 67.569L52.2183 67.5129ZM52.2183 67.5132L51.9245 67.452L51.9236 67.457L52.2183 67.5132ZM51.8461 69.4734L51.9692 69.747L52.1119 69.6828L52.1409 69.529L51.8461 69.4734ZM50.6934 69.9944L50.8168 70.2678L50.8174 70.2675L50.6934 69.9944ZM43.9274 73.1385L43.6339 73.0763L43.5077 73.6719L44.0569 73.4091L43.9274 73.1385ZM46.5761 60.5726L46.8697 60.6343L46.5761 60.5726ZM48.8993 49.5445L48.6059 49.4822L48.6058 49.4824L48.8993 49.5445ZM54.132 24.5799L54.4257 24.6409L54.4258 24.6404L54.132 24.5799ZM54.5076 22.6963L54.7924 22.6021L54.429 21.5041L54.2129 22.6402L54.5076 22.6963ZM55.4476 40.3061L55.7416 40.3659L55.7422 40.3627L55.4476 40.3061ZM54.1021 45.5382L54.3806 45.6496L54.385 45.6385L54.3886 45.6271L54.1021 45.5382ZM54.1918 45.6578L53.9186 45.5337L53.9121 45.548L53.9072 45.5629L54.1918 45.6578ZM56.1054 26.7026L55.8102 26.7559L55.8105 26.7574L56.1054 26.7026ZM54.7234 21.5087L54.4278 21.4579L54.4149 21.5325L54.439 21.6042L54.7234 21.5087ZM54.73 21.4705L55.0257 21.5213L55.0859 21.1705H54.73V21.4705ZM54.7106 21.4705L54.4264 21.5665L54.4953 21.7705H54.7106V21.4705ZM54.6702 21.3509L54.3827 21.4372L54.386 21.4469L54.6702 21.3509ZM54.0124 21.3509L53.7213 21.2781L53.7198 21.2845L54.0124 21.3509ZM50.3655 38.318L50.0718 38.2566L50.3655 38.318ZM48.7797 45.8671L48.4863 45.8047L48.4861 45.8055L48.7797 45.8671ZM45.9034 59.502L46.1968 59.5648L46.1969 59.5641L45.9034 59.502ZM45.9031 59.5032L45.6098 59.4404L45.6096 59.4412L45.9031 59.5032ZM45.9025 59.5061L46.196 59.5682L46.1961 59.5681L45.9025 59.5061ZM43.6368 70.2337L43.3432 70.1719L43.343 70.1727L43.6368 70.2337ZM42.9333 73.6163L43.0637 73.8864L43.1968 73.8222L43.227 73.6775L42.9333 73.6163ZM30.7495 79.8307L30.8876 80.0971L30.8918 80.0948L30.7495 79.8307ZM28.5963 81.009L28.7302 81.2774L28.7379 81.2736L28.7453 81.2693L28.5963 81.009ZM28.3873 81.1163L28.247 80.8512L27.8878 81.0413L28.1753 81.3286L28.3873 81.1163ZM28.3949 81.1246L28.5448 81.3845L28.8585 81.2037L28.6225 80.9291L28.3949 81.1246ZM28.3574 81.1462L28.2076 80.8863L28.1991 80.8912L28.191 80.8966L28.3574 81.1462ZM28.4172 81.2658L28.2765 81.0009L28.2368 81.0219L28.2051 81.0537L28.4172 81.2658ZM31.226 80.0609L31.1261 79.7779L31.1191 79.7806L31.226 80.0609ZM31.2262 80.0608L31.3261 80.3438L31.3332 80.341L31.2262 80.0608ZM31.4372 79.9802L31.3304 79.6999L31.3302 79.7L31.4372 79.9802ZM33.321 79.3225L33.4034 79.611L33.4092 79.6092L33.321 79.3225ZM33.3992 79.298L33.4895 79.5841L33.4899 79.584L33.3992 79.298ZM33.4611 79.2784L33.5517 79.5644L33.5519 79.5644L33.4611 79.2784ZM34.6067 79.1132L34.5042 79.3951L34.7181 78.8346L34.6067 79.1132ZM33.7841 79.1586L33.7138 78.867H33.7137L33.7841 79.1586ZM33.5901 79.2029L33.5312 78.9087L33.5211 78.9107L33.5111 78.9135L33.5901 79.2029ZM31.6166 79.8307L31.7185 80.1129L31.7191 80.1127L31.6166 79.8307ZM31.0076 80.047L30.9078 79.7639L30.8993 79.7673L31.0076 80.047ZM31.0072 80.0472L31.1069 80.3303L31.1155 80.3269L31.0072 80.0472ZM30.0075 80.407L29.8674 80.1417L30.113 80.6878L30.0075 80.407ZM42.8669 73.9344L43.1606 73.9957L43.2844 73.4024L42.7376 73.6637L42.8669 73.9344ZM41.1849 81.8639L41.4777 81.9293L41.4781 81.9276L41.1849 81.8639ZM38.1649 91.6704L37.8915 91.5468L37.891 91.548L38.1649 91.6704ZM32.1847 99.6232L31.9993 99.3873L31.997 99.3892L32.1847 99.6232ZM23.3042 103.689L23.3637 103.983L23.364 103.983L23.3042 103.689ZM3.92838 98.9355L3.75007 99.1768L3.7507 99.1772L3.92838 98.9355ZM2.63666 97.9161L2.52181 97.639L2.06613 97.8278L2.44341 98.1456L2.63666 97.9161ZM7.00817 95.6468L6.84918 95.3923H6.84918L7.00817 95.6468ZM11.6727 92.059L11.4885 91.8222L11.4827 91.8268L11.4771 91.8316L11.6727 92.059ZM11.3139 91.7003L11.5087 91.9284L11.5177 91.9207L11.526 91.9124L11.3139 91.7003ZM6.55965 94.8395L6.418 94.5751L6.41601 94.5761L6.55965 94.8395ZM1.4167 97.1715L1.31182 96.8902L1.30133 96.8946L1.4167 97.1715ZM1.17749 98.1283L1.37657 97.9037L1.36954 97.8978L1.17749 98.1283ZM20.6131 105.124L20.589 104.825L20.588 104.825L20.6131 105.124ZM30.1814 102.194L30.3302 102.455L30.331 102.454L30.1814 102.194ZM37.3576 95.1684L37.6127 95.3262L37.6134 95.3251L37.3576 95.1684ZM41.1849 85.6609L41.475 85.7374L41.4752 85.7365L41.1849 85.6609ZM43.1932 76.6626L43.4871 76.7229L43.1932 76.6626ZM43.6368 74.5091L43.3433 74.4468L43.343 74.448L43.6368 74.5091ZM43.8588 73.4624L43.7303 73.1913L43.5961 73.2549L43.5653 73.4002L43.8588 73.4624ZM48.3611 71.3697L48.4855 71.6427L48.4863 71.6423L48.3611 71.3697ZM51.7803 69.8231L52.0751 69.8785L52.1808 69.3161L51.6581 69.5491L51.7803 69.8231ZM51.1718 73.1636L51.4667 73.2189L51.4673 73.2152L51.1718 73.1636ZM51.025 73.9454L51.3198 74.0008L51.3198 74.0008L51.025 73.9454ZM50.1253 78.874L50.4209 78.9252L50.4209 78.9249L50.1253 78.874ZM48.2415 90.3249L48.5379 90.3709L48.5382 90.3689L48.2415 90.3249ZM48.1621 90.8358L48.4585 90.8819L48.4586 90.8818L48.1621 90.8358ZM48.0978 91.2485L48.3943 91.2947L48.3943 91.2947L48.0978 91.2485ZM46.7764 101.895L47.0758 101.914L47.0758 101.914L46.7764 101.895ZM46.8577 103.043L46.5603 103.084L46.5618 103.093L46.8577 103.043ZM46.8577 103.043L47.155 103.002L47.1536 102.994L46.8577 103.043ZM46.896 103.33L47.1952 103.305L47.1936 103.293L46.896 103.33ZM47.5239 103.42L47.2393 103.325L47.5239 103.42ZM47.6867 102.972L47.9675 103.078L47.9713 103.066L47.6867 102.972ZM47.6867 102.972L47.4058 102.865L47.4021 102.877L47.6867 102.972ZM47.9724 102.075L48.2666 102.134L48.2672 102.13L47.9724 102.075ZM48.0092 101.879L47.7145 101.824L47.7144 101.824L48.0092 101.879ZM48.2116 100.669L47.9149 100.625L47.9139 100.632L48.2116 100.669ZM48.3677 99.6829L48.0716 99.635L48.3677 99.6829ZM48.6601 97.7096L48.3624 97.6724L48.3623 97.6735L48.6601 97.7096ZM49.4076 91.9991L49.7047 92.0409L49.705 92.0386L49.4076 91.9991ZM50.9924 80.5483L51.2891 80.5927L51.2895 80.5901L50.9924 80.5483ZM51.8296 74.8378L52.126 74.8842L51.8296 74.8378ZM52.7346 69.3993L52.6132 69.125L52.4661 69.19L52.4389 69.3485L52.7346 69.3993ZM63.7036 64.7358L64.0013 64.7734L64.0659 64.263L63.5898 64.4582L63.7036 64.7358ZM63.7003 64.7623L63.4027 64.7246L63.4026 64.7251L63.7003 64.7623ZM63.7 64.7647L63.9976 64.8023L63.9977 64.8019L63.7 64.7647ZM61.667 80.8773L61.9645 80.916L61.9647 80.9146L61.667 80.8773ZM61.0989 85.3766L61.3966 85.4136L61.0989 85.3766ZM60.5308 89.8765L60.2332 89.8378L60.2328 89.8415L60.5308 89.8765ZM59.9926 94.4509L60.2905 94.4859L59.9926 94.4509ZM59.6898 97.8816L59.989 97.9036L59.6898 97.8816ZM59.6038 99.0252L59.9018 99.0625L59.9029 99.0487L59.6038 99.0252ZM60.0225 99.085L60.3135 99.1578L60.3168 99.1446L60.3189 99.1311L60.0225 99.085ZM60.276 97.4704L60.5724 97.5172L60.276 97.4704ZM61.2185 91.0126L60.9208 90.9758L60.9207 90.9762L61.2185 91.0126ZM61.7119 87.0063L61.4141 86.9697L61.7119 87.0063ZM62.2052 83L62.503 83.0368L62.503 83.0366L62.2052 83ZM63.1222 75.4315L62.8245 75.3943L62.8244 75.3957L63.1222 75.4315ZM63.1223 75.4308L63.42 75.468L63.4202 75.4666L63.1223 75.4308ZM64.1488 66.9749L64.4465 67.0117L64.4466 67.0105L64.1488 66.9749ZM64.4537 64.4289L64.3403 64.1511L64.1768 64.2179L64.1558 64.3932L64.4537 64.4289ZM68.3648 62.8488L68.2539 62.5701L68.2534 62.5703L68.3648 62.8488ZM74.3968 60.497L74.6954 60.5261L74.7422 60.044L74.2897 60.2168L74.3968 60.497ZM72.9994 77.0504L73.2986 77.0723L73.2987 77.0716L72.9994 77.0504ZM72.1024 94.2117L71.8024 94.2054V94.2117H72.1024ZM72.3117 94.2117L72.0126 94.1889L72.0117 94.2003V94.2117H72.3117ZM72.9012 85.4459L72.602 85.4245L72.6018 85.4271L72.9012 85.4459ZM72.9012 85.4456L73.2005 85.467L73.2005 85.4661L72.9012 85.4456ZM72.9013 85.4439L73.2006 85.4644L73.2007 85.4627L72.9013 85.4439ZM73.3284 78.904L73.0291 78.8828L73.0291 78.883L73.3284 78.904ZM74.5543 63.7758L74.8529 63.8042L74.8531 63.8024L74.5543 63.7758ZM74.8706 60.3164L74.7638 60.036L74.5893 60.1025L74.5719 60.2884L74.8706 60.3164ZM87.023 55.8827L87.1219 56.1659L87.1221 56.1658L87.023 55.8827ZM102.96 50.5908L102.871 50.3043L102.871 50.3044L102.96 50.5908ZM114.861 47.0927L114.793 46.8003L114.782 46.8032L114.861 47.0927ZM114.876 47.0892L115.081 47.3084L115.899 46.544L114.808 46.797L114.876 47.0892ZM114.279 47.6843L114.494 47.8933L114.279 47.6843ZM113.366 48.5577L113.553 48.7924L113.556 48.7895L113.366 48.5577ZM107.027 51.0691L107.085 51.3633L107.087 51.363L107.027 51.0691ZM107.086 51.3083L107.043 51.0114L107.036 51.0126L107.028 51.0141L107.086 51.3083ZM113.515 49.0062L113.699 49.2434L113.702 49.2412L113.515 49.0062ZM114.5 48.0725L114.288 47.8603L114.285 47.8639L114.5 48.0725ZM114.5 48.0724L114.713 48.2845L114.716 48.281L114.5 48.0724ZM115.962 46.8018L115.894 46.5097L115.848 46.5204L115.808 46.5449L115.962 46.8018ZM115.997 46.7938L116.065 47.0859L116.406 47.0064L116.275 46.6819L115.997 46.7938ZM115.993 46.7837L115.842 46.5245L115.618 46.655L115.714 46.8955L115.993 46.7837ZM116.027 46.7639L115.878 46.5034L115.876 46.5047L116.027 46.7639ZM115.847 46.3453L115.775 46.0542L115.768 46.0559L115.847 46.3453ZM104.455 49.6938L104.366 49.4072L104.366 49.4073L104.455 49.6938ZM88.9366 54.8063L89.0352 55.0897L89.0354 55.0896L88.9366 54.8063ZM74.9064 59.9357L74.6077 59.9075L74.5624 60.3881L75.0134 60.216L74.9064 59.9357ZM77.9032 33.609L78.2005 33.6489L78.2006 33.6483L77.9032 33.609ZM79.7331 20.5424L79.4363 20.4987L79.4362 20.4997L79.7331 20.5424ZM79.7335 20.5403L80.0303 20.584L80.0305 20.5823L79.7335 20.5403ZM79.7339 20.5369L79.437 20.4941L79.4369 20.4949L79.7339 20.5369ZM80.2953 16.6271L80.5923 16.6695L80.5953 16.6484V16.6271H80.2953ZM77.2075 84.2328C78.9738 83.0027 80.6712 81.6235 82.2504 80.1117L81.8354 79.6783C80.2796 81.1678 78.6064 82.5273 76.8646 83.7404L77.2075 84.2328ZM76.7276 83.6958C76.6896 83.7907 76.6564 83.919 76.6834 84.0405C76.6947 84.0916 76.7461 84.2553 76.9312 84.2974C77.1006 84.3358 77.2165 84.2304 77.2482 84.1987L76.8239 83.7745C76.8257 83.7727 76.9154 83.6785 77.0642 83.7123C77.2288 83.7497 77.2652 83.8928 77.2691 83.9103C77.2767 83.9445 77.272 83.9629 77.2732 83.9553C77.2738 83.9516 77.2765 83.9391 77.2847 83.9186L76.7276 83.6958ZM79.2984 81.6911C78.4944 82.3461 77.6939 82.9685 76.8358 83.5602L77.1765 84.0542C78.0527 83.45 78.8668 82.8167 79.6774 82.1562L79.2984 81.6911ZM81.754 79.4848C80.9588 80.2565 80.1366 80.9934 79.296 81.6931L79.6798 82.1542C80.5318 81.4452 81.3654 80.6981 82.1719 79.9154L81.754 79.4848ZM81.1027 74.5428C80.9529 76.2652 81.0261 78.1398 81.6838 79.81L82.2421 79.5902C81.6325 78.0421 81.5545 76.2728 81.7004 74.5948L81.1027 74.5428ZM85.3943 62.4488C83.1303 66.0105 81.4966 70.3011 81.1029 74.5411L81.7003 74.5966C82.0839 70.4652 83.6796 66.2648 85.9007 62.7707L85.3943 62.4488ZM89.1532 58.6084C87.5306 59.482 86.3307 60.9689 85.394 62.4493L85.901 62.7701C86.8182 61.3206 87.9505 59.9373 89.4376 59.1367L89.1532 58.6084ZM92.0444 59.2795C91.9911 58.8975 91.8351 58.6046 91.5851 58.4121C91.3411 58.224 91.0441 58.1599 90.7591 58.1577C90.198 58.1534 89.5784 58.3879 89.1573 58.6062L89.4335 59.1389C89.8197 58.9386 90.3364 58.7545 90.7545 58.7577C90.9592 58.7592 91.1126 58.8054 91.2189 58.8873C91.3194 58.9647 91.4138 59.1016 91.4502 59.3624L92.0444 59.2795ZM90.9543 66.9832C91.7656 64.6397 92.444 61.8614 92.0437 59.2751L91.4508 59.3669C91.8279 61.8034 91.1907 64.4665 90.3874 66.787L90.9543 66.9832ZM82.5662 79.806C86.2533 76.198 89.2686 71.8526 90.9543 66.9832L90.3874 66.787C88.7376 71.5525 85.7804 75.8213 82.1465 79.3772L82.5662 79.806ZM85.5089 82.6103C84.1748 81.9655 83.1999 80.8284 82.633 79.4757L82.0796 79.7076C82.6945 81.1747 83.7633 82.433 85.2478 83.1505L85.5089 82.6103ZM89.2834 82.6706C88.0892 83.2537 86.7216 83.2024 85.51 82.6108L85.2467 83.15C86.6067 83.814 88.1693 83.8823 89.5466 83.2098L89.2834 82.6706ZM94.1101 78.154C92.7652 79.9171 91.2169 81.7184 89.2825 82.671L89.5476 83.2093C91.6198 82.1888 93.241 80.2826 94.5872 78.5179L94.1101 78.154ZM98.7449 70.518C97.4042 73.1991 95.9187 75.7823 94.1101 78.154L94.5872 78.5178C96.4265 76.1059 97.9311 73.4869 99.2815 70.7864L98.7449 70.518ZM102.405 61.5324C101.423 64.6268 100.203 67.6316 98.7454 70.5169L99.281 70.7875C100.754 67.8727 101.985 64.8381 102.977 61.7138L102.405 61.5324ZM104.114 53.287C103.921 56.0933 103.251 58.8494 102.405 61.5329L102.977 61.7133C103.83 59.0067 104.515 56.2004 104.713 53.3283L104.114 53.287ZM104.15 53.4543C104.156 53.4634 104.163 53.4725 104.169 53.4815L104.658 53.1339C104.652 53.1256 104.647 53.1173 104.641 53.109L104.15 53.4543ZM104.341 52.9859C104.335 52.9875 104.329 52.989 104.323 52.9906L104.468 53.5727C104.476 53.5708 104.483 53.5689 104.491 53.567L104.341 52.9859ZM104.126 53.1136C104.123 53.1612 104.12 53.2087 104.117 53.2561L104.715 53.2967C104.719 53.248 104.722 53.1993 104.725 53.1507L104.126 53.1136ZM105.011 52.8881C104.894 52.6927 104.679 52.6217 104.487 52.6749C104.304 52.7258 104.163 52.8818 104.129 53.0828L104.721 53.1815C104.718 53.2031 104.696 53.2395 104.648 53.253C104.624 53.2597 104.593 53.2603 104.561 53.2481C104.528 53.2352 104.507 53.2132 104.497 53.1968L105.011 52.8881ZM107.211 54.3291C106.305 54.2225 105.565 53.662 104.998 52.8681L104.51 53.2168C105.139 54.0972 106.014 54.7924 107.141 54.925L107.211 54.3291ZM109.333 53.9614C108.645 54.2483 107.92 54.4109 107.211 54.329L107.142 54.9251C107.987 55.0225 108.817 54.8264 109.564 54.5153L109.333 53.9614ZM111.758 52.4625C111.07 53.093 110.205 53.6129 109.337 53.9598L109.56 54.5169C110.487 54.1463 111.416 53.5899 112.163 52.9048L111.758 52.4625ZM112.528 53.057C112.65 52.8114 112.536 52.57 112.392 52.4495C112.315 52.3861 112.212 52.3369 112.093 52.3329C111.966 52.3287 111.843 52.3764 111.748 52.4715L112.172 52.8958C112.152 52.9162 112.115 52.934 112.073 52.9326C112.037 52.9314 112.016 52.9178 112.007 52.9104C111.998 52.9029 111.989 52.8909 111.983 52.8712C111.976 52.848 111.977 52.8168 111.991 52.7887L112.528 53.057ZM112.464 53.164C112.479 53.1417 112.503 53.1054 112.528 53.0571L111.991 52.7887C111.985 52.8001 111.98 52.8087 111.965 52.8312L112.464 53.164ZM112.438 53.2065C112.444 53.1951 112.449 53.1865 112.464 53.164L111.965 52.8312C111.95 52.8535 111.925 52.8898 111.901 52.9382L112.438 53.2065ZM108.317 61.6272C109.599 58.7937 111.002 55.9885 112.436 53.21L111.903 52.9348C110.467 55.7172 109.059 58.5328 107.77 61.3798L108.317 61.6272ZM108.304 61.6524L108.304 61.6524L107.783 61.3547L107.783 61.3548L108.304 61.6524ZM105.963 67.2258C106.646 65.3254 107.479 63.4825 108.317 61.6271L107.77 61.3801C106.933 63.2319 106.091 65.0963 105.399 67.0228L105.963 67.2258ZM105.9 67.4063C105.921 67.3453 105.943 67.2845 105.964 67.2241L105.398 67.0244C105.377 67.0844 105.356 67.1449 105.334 67.2061L105.9 67.4063ZM105.193 72.007C104.995 71.2946 105.034 70.5233 105.195 69.7326C105.357 68.9409 105.635 68.153 105.9 67.4063L105.334 67.2061C105.072 67.946 104.779 68.7732 104.607 69.6127C104.436 70.4533 104.382 71.3292 104.615 72.1676L105.193 72.007ZM108.185 73.464C107.512 73.5498 106.837 73.5098 106.297 73.2863C105.769 73.0682 105.363 72.6747 105.194 72.0132L104.613 72.1614C104.833 73.0247 105.384 73.558 106.067 73.8407C106.738 74.118 107.528 74.1527 108.261 74.0592L108.185 73.464ZM113.261 71.4176C111.725 72.4222 109.977 73.2617 108.189 73.4635L108.256 74.0597C110.176 73.8429 112.016 72.9484 113.59 71.9198L113.261 71.4176ZM118.606 66.3649C117.027 68.2716 115.317 70.0965 113.263 71.4164L113.588 71.9211C115.72 70.5502 117.478 68.6677 119.069 66.7476L118.606 66.3649ZM123.357 59.1496C121.988 61.7081 120.444 64.1419 118.606 66.3651L119.069 66.7474C120.938 64.4859 122.504 62.0165 123.886 59.4326L123.357 59.1496ZM128.989 44.5536C127.539 49.5825 125.803 54.5239 123.356 59.1508L123.887 59.4313C126.36 54.7535 128.11 49.7686 129.566 44.7199L128.989 44.5536ZM129.494 42.7619C129.316 43.3595 129.148 43.9587 128.988 44.5595L129.567 44.714C129.726 44.1185 129.893 43.5247 130.069 42.9328L129.494 42.7619ZM130.484 43.0618C130.536 42.9078 130.513 42.7524 130.429 42.6287C130.352 42.5143 130.236 42.4464 130.126 42.4161C130.017 42.3859 129.884 42.3851 129.76 42.4418C129.626 42.5031 129.524 42.6227 129.488 42.7823L130.074 42.9124C130.072 42.9208 130.067 42.9365 130.053 42.9532C130.04 42.9697 130.024 42.9809 130.009 42.9875C129.983 42.9993 129.968 42.9949 129.967 42.9945C129.965 42.9941 129.949 42.9898 129.932 42.9651C129.923 42.9514 129.915 42.9335 129.913 42.9131C129.91 42.8927 129.913 42.878 129.915 42.8721L130.484 43.0618ZM129.89 45.2036C130.099 44.487 130.31 43.7639 130.491 43.0397L129.909 42.8942C129.731 43.6051 129.523 44.317 129.314 45.0356L129.89 45.2036ZM129.819 45.4422C129.843 45.3629 129.866 45.2835 129.89 45.2041L129.314 45.035C129.291 45.114 129.267 45.193 129.244 45.2719L129.819 45.4422ZM129.475 46.8618C129.587 46.384 129.702 45.9065 129.823 45.4309L129.241 45.2832C129.119 45.7634 129.003 46.2449 128.891 46.7259L129.475 46.8618ZM127.74 56.7199C128.167 53.407 128.709 50.116 129.475 46.8626L128.891 46.725C128.118 50.0045 127.574 53.317 127.145 56.6432L127.74 56.7199ZM137.129 47.036C133.773 50.1179 130.409 53.2066 127.228 56.4722L127.658 56.8909C130.826 53.6392 134.177 50.5617 137.535 47.478L137.129 47.036ZM143.985 40.6286C141.741 42.8008 139.436 44.9168 137.129 47.036L137.535 47.478C139.841 45.3596 142.151 43.2383 144.402 41.0597L143.985 40.6286ZM146.938 37.7054C145.984 38.6898 145 39.673 143.988 40.6257L144.399 41.0627C145.42 40.1019 146.41 39.1118 147.369 38.1231L146.938 37.7054ZM149.236 35.0271C148.596 35.9882 147.776 36.8681 146.941 37.7021L147.366 38.1264C148.206 37.2861 149.061 36.3721 149.735 35.3599L149.236 35.0271ZM149.686 29.442C150.842 31.1488 150.342 33.3389 149.235 35.0291L149.737 35.3579C150.902 33.58 151.538 31.106 150.183 29.1055L149.686 29.442ZM144.12 28.3948C145.155 28.228 146.26 28.0515 147.264 28.1435C148.256 28.2343 149.11 28.5833 149.685 29.441L150.183 29.1066C149.475 28.0512 148.424 27.6472 147.319 27.546C146.226 27.4459 145.043 27.6383 144.024 27.8025L144.12 28.3948ZM143.278 28.5245C143.548 28.487 143.831 28.4414 144.12 28.3948L144.024 27.8025C143.734 27.8492 143.457 27.8938 143.195 27.9302L143.278 28.5245ZM134.849 29.7798L143.281 28.5241L143.192 27.9306L134.76 29.1863L134.849 29.7798ZM134.338 28.8088C134.228 28.9051 134.156 29.032 134.144 29.1766C134.132 29.3167 134.18 29.4414 134.247 29.535C134.374 29.7109 134.619 29.8386 134.877 29.7741L134.732 29.192C134.743 29.1892 134.747 29.1923 134.743 29.1906C134.741 29.1898 134.739 29.1885 134.737 29.1868C134.734 29.1851 134.734 29.184 134.734 29.1844C134.734 29.1847 134.744 29.199 134.742 29.2261C134.741 29.2394 134.737 29.2506 134.733 29.2582C134.729 29.2655 134.727 29.2656 134.733 29.2604L134.338 28.8088ZM140.215 23.3196C138.304 25.2012 136.365 27.0499 134.339 28.808L134.732 29.2612C136.772 27.4913 138.721 25.6327 140.636 23.7472L140.215 23.3196ZM157.749 0.897624C152.919 9.06593 146.925 16.6104 140.214 23.3213L140.638 23.7455C147.382 17.0025 153.408 9.41866 158.266 1.20301L157.749 0.897624ZM158.407 1.30643C158.557 1.08039 158.42 0.855657 158.299 0.770905C158.23 0.722616 158.126 0.683522 158.007 0.706848C157.878 0.732177 157.788 0.81955 157.739 0.916147L158.276 1.18449C158.258 1.22129 158.209 1.27877 158.122 1.29569C158.046 1.3106 157.987 1.28459 157.955 1.26246C157.923 1.24011 157.894 1.20536 157.88 1.157C157.863 1.10183 157.868 1.03234 157.908 0.973594L158.407 1.30643ZM154.13 8.12466C155.63 5.90506 157.039 3.59709 158.415 1.29388L157.9 0.986143C156.525 3.28718 155.123 5.58346 153.633 7.78872L154.13 8.12466ZM135.792 29.0272C142.743 22.8444 148.901 15.8225 154.129 8.12527L153.633 7.78812C148.432 15.4446 142.307 22.4291 135.394 28.5789L135.792 29.0272ZM136.631 28.349C136.27 28.401 135.91 28.4531 135.549 28.5063L135.637 29.0999C135.996 29.0468 136.356 28.9949 136.716 28.9428L136.631 28.349ZM138.646 28.0505C137.975 28.1548 137.304 28.2518 136.631 28.349L136.716 28.9428C137.389 28.8457 138.063 28.7483 138.738 28.6434L138.646 28.0505ZM140.713 27.7509C140.025 27.848 139.336 27.9454 138.647 28.0504L138.737 28.6435C139.423 28.5392 140.109 28.4422 140.797 28.345L140.713 27.7509ZM142.773 27.4524C142.087 27.5568 141.401 27.6537 140.713 27.7509L140.797 28.345C141.484 28.2479 142.174 28.1505 142.863 28.0456L142.773 27.4524ZM143.355 27.3634C143.161 27.3934 142.967 27.4233 142.773 27.4523L142.862 28.0457C143.058 28.0164 143.252 27.9864 143.447 27.9565L143.355 27.3634ZM146.421 27.0009C145.376 27.0518 144.355 27.2094 143.355 27.3634L143.447 27.9565C144.452 27.8017 145.442 27.6494 146.451 27.6002L146.421 27.0009ZM149.662 27.805C148.715 27.1194 147.498 26.9701 146.427 27.0006L146.445 27.6004C147.467 27.5712 148.523 27.7208 149.31 28.291L149.662 27.805ZM151.237 30.0789C150.953 29.198 150.444 28.3586 149.659 27.8031L149.312 28.2928C149.964 28.7539 150.41 29.4691 150.665 30.2625L151.237 30.0789ZM149.94 36.0248C151.134 34.3414 151.905 32.2097 151.237 30.081L150.665 30.2604C151.253 32.138 150.589 34.0724 149.45 35.6777L149.94 36.0248ZM145.669 40.6358C147.175 39.2009 148.738 37.7122 149.94 36.0253L149.451 35.6772C148.289 37.3092 146.769 38.7587 145.255 40.2015L145.669 40.6358ZM144.82 41.4486C145.1 41.1784 145.384 40.9081 145.669 40.6359L145.255 40.2015C144.97 40.4735 144.685 40.7452 144.404 41.0171L144.82 41.4486ZM137.95 47.8721C140.257 45.7525 142.567 43.6294 144.821 41.4484L144.403 41.0173C142.156 43.1919 139.852 45.3098 137.544 47.4303L137.95 47.8721ZM127.54 57.8356C130.866 54.3811 134.403 51.1306 137.95 47.8721L137.544 47.4303C134 50.6867 130.449 53.9495 127.108 57.4195L127.54 57.8356ZM126.666 66.9718C126.955 63.861 127.243 60.7552 127.622 57.664L127.026 57.591C126.646 60.6924 126.357 63.807 126.069 66.9163L126.666 66.9718ZM125.414 78.5566C125.948 74.7102 126.307 70.8372 126.666 66.9718L126.069 66.9163C125.71 70.784 125.351 74.6434 124.82 78.4741L125.414 78.5566ZM124.032 86.212C124.664 83.6838 125.055 81.0988 125.414 78.5573L124.82 78.4734C124.461 81.0145 124.074 83.5718 123.45 86.0665L124.032 86.212ZM120.642 92.2914C122.511 90.7649 123.459 88.4456 124.032 86.2138L123.451 86.0646C122.888 88.2577 121.981 90.4231 120.262 91.8266L120.642 92.2914ZM114.598 93.5027C116.705 94.3645 118.972 93.6516 120.642 92.2916L120.263 91.8264C118.703 93.0974 116.665 93.7 114.825 92.9473L114.598 93.5027ZM110.804 88.9393C111.331 90.8601 112.668 92.7119 114.597 93.5026L114.825 92.9474C113.107 92.2433 111.872 90.5671 111.382 88.7806L110.804 88.9393ZM111.373 81.2437C110.685 83.667 110.092 86.3706 110.804 88.94L111.382 88.7798C110.719 86.3862 111.263 83.8279 111.95 81.4076L111.373 81.2437ZM113.963 74.4974C112.909 76.6651 112.036 78.9237 111.373 81.2433L111.95 81.4081C112.603 79.1234 113.463 76.8974 114.503 74.7598L113.963 74.4974ZM117.703 67.9979C116.315 70.075 115.052 72.2403 113.963 74.4982L114.503 74.759C115.579 72.5292 116.828 70.3881 118.202 68.3312L117.703 67.9979ZM117.439 69.1556C117.688 68.8958 117.934 68.6325 118.175 68.3658L117.73 67.9632C117.493 68.2257 117.251 68.4848 117.006 68.7405L117.439 69.1556ZM112.035 73.2825C114.108 72.246 115.839 70.8164 117.439 69.1562L117.007 68.7399C115.437 70.3685 113.76 71.7492 111.766 72.7458L112.035 73.2825ZM106.841 74.5079C108.667 74.7282 110.527 74.036 112.035 73.2825L111.766 72.7458C110.283 73.4872 108.556 74.1105 106.913 73.9122L106.841 74.5079ZM104.066 71.4834C104.13 72.2819 104.396 72.9902 104.869 73.5266C105.345 74.0656 106.014 74.4105 106.842 74.508L106.912 73.9121C106.216 73.8302 105.688 73.5472 105.319 73.1295C104.948 72.7092 104.72 72.1319 104.664 71.4355L104.066 71.4834ZM105.278 66.2182C104.656 67.8164 103.941 69.6408 104.066 71.4798L104.665 71.4392C104.551 69.7574 105.205 68.0612 105.837 66.4357L105.278 66.2182ZM105.282 66.2082L105.278 66.2181L105.837 66.4358L105.841 66.4259L105.282 66.2082ZM107.831 60.2716C106.934 62.2147 106.032 64.1972 105.28 66.2122L105.843 66.4219C106.586 64.4306 107.478 62.4666 108.375 60.523L107.831 60.2716ZM111.17 53.469C110.01 55.7126 108.897 57.9798 107.831 60.2708L108.375 60.5238C109.437 58.2405 110.547 55.9808 111.703 53.7447L111.17 53.469ZM109.304 55.0611C110.123 54.7882 110.905 54.3673 111.614 53.849L111.26 53.3646C110.594 53.851 109.868 54.241 109.115 54.4919L109.304 55.0611ZM106.595 55.2769C107.511 55.5058 108.472 55.3386 109.304 55.0611L109.115 54.4919C108.333 54.7526 107.499 54.8843 106.741 54.6948L106.595 55.2769ZM104.462 53.8634C105.012 54.5259 105.718 55.0851 106.604 55.2789L106.732 54.6927C106.022 54.5374 105.423 54.0818 104.924 53.4804L104.462 53.8634ZM104.812 55.2356C104.88 54.7365 104.949 54.2129 104.992 53.6966L104.394 53.6472C104.353 54.1459 104.286 54.6553 104.218 55.1546L104.812 55.2356ZM102.315 64.5376C103.425 61.5371 104.359 58.4355 104.812 55.2371L104.218 55.1531C103.774 58.293 102.854 61.3503 101.752 64.3294L102.315 64.5376ZM97.9582 73.9401C99.6714 70.9348 101.113 67.7805 102.314 64.5377L101.752 64.3293C100.561 67.5444 99.1324 70.6686 97.4369 73.6429L97.9582 73.9401ZM92.7398 81.176C94.8285 79.027 96.4876 76.4907 97.9575 73.9413L97.4377 73.6416C95.9772 76.1748 94.3472 78.6614 92.3096 80.7578L92.7398 81.176ZM86.6484 84.014C89.1425 84.3977 91.2138 82.7318 92.7389 81.177L92.3105 80.7569C90.7857 82.3114 88.9101 83.7549 86.7396 83.421L86.6484 84.014ZM82.1895 80.85C83.1263 82.4423 84.7829 83.6979 86.6439 84.0133L86.7442 83.4217C85.0768 83.1392 83.564 82.003 82.7067 80.5457L82.1895 80.85ZM81.767 80.0128C81.8893 80.2991 82.0295 80.5789 82.1897 80.8503L82.7065 80.5454C82.5601 80.2974 82.4314 80.0408 82.3188 79.7772L81.767 80.0128ZM126.728 56.9885C125.127 58.6513 123.575 60.3627 122.094 62.1452L122.556 62.5285C124.025 60.7593 125.568 59.059 127.16 57.4046L126.728 56.9885ZM127.79 49.8215C127.321 52.2527 126.955 54.7018 126.646 57.1592L127.242 57.2339C127.549 54.7857 127.913 52.3501 128.379 49.935L127.79 49.8215ZM122.892 61.987C125.16 58.2138 126.92 54.1444 128.368 49.9767L127.801 49.7799C126.363 53.9206 124.619 57.9497 122.378 61.6778L122.892 61.987ZM122.58 62.4955C122.685 62.327 122.789 62.1577 122.892 61.9876L122.378 61.6772C122.277 61.845 122.174 62.012 122.071 62.1783L122.58 62.4955ZM122.717 63.2192C124.101 61.5411 125.55 59.9255 127.045 58.3529L126.61 57.9395C125.107 59.5204 123.648 61.1467 122.254 62.8374L122.717 63.2192ZM114.952 75.1761C117.002 70.8687 119.708 66.9126 122.718 63.2178L122.253 62.8388C119.223 66.5586 116.487 70.5554 114.41 74.9183L114.952 75.1761ZM112.458 81.7679C113.111 79.5111 113.943 77.3136 114.953 75.1753L114.41 74.9191C113.387 77.086 112.544 79.3134 111.881 81.601L112.458 81.7679ZM112.152 89.2632C111.262 86.8803 111.771 84.2144 112.458 81.7655L111.881 81.6034C111.192 84.0578 110.626 86.893 111.59 89.4732L112.152 89.2632ZM116.651 92.7755C114.576 92.8032 112.871 91.1921 112.152 89.2633L111.59 89.4731C112.365 91.5506 114.248 93.4076 116.659 93.3755L116.651 92.7755ZM121.774 89.1946C120.725 91.1165 118.863 92.7475 116.651 92.7755L116.659 93.3755C119.171 93.3437 121.196 91.5066 122.3 89.482L121.774 89.1946ZM123.744 82.2875C123.334 84.665 122.913 87.0872 121.773 89.1956L122.301 89.481C123.495 87.2714 123.928 84.7492 124.335 82.3896L123.744 82.2875ZM123.775 82.1118L123.744 82.2875L124.335 82.3896L124.366 82.2139L123.775 82.1118ZM124.908 74.1466C124.61 76.8037 124.252 79.4872 123.775 82.1092L124.365 82.2165C124.845 79.5764 125.205 76.8784 125.505 74.2136L124.908 74.1466ZM125.626 66.9329C125.4 69.3437 125.175 71.7502 124.908 74.147L125.505 74.2133C125.772 71.8105 125.998 69.3988 126.224 66.989L125.626 66.9329ZM126.53 58.1106C126.179 61.045 125.902 63.9921 125.626 66.9329L126.224 66.989C126.5 64.0468 126.776 61.1074 127.126 58.1818L126.53 58.1106ZM90.6808 65.2503C89.2119 70.5473 85.9921 75.2882 82.0652 79.1796L82.4875 79.6058C86.4669 75.6624 89.7549 70.8343 91.2589 65.4106L90.6808 65.2503ZM91.3284 61.5718C91.2404 62.8043 91.0053 64.0408 90.6801 65.2527L91.2596 65.4082C91.5922 64.1684 91.8355 62.8935 91.9269 61.6146L91.3284 61.5718ZM91.3281 59.9048C91.3574 60.4624 91.3574 61.0199 91.3281 61.5774L91.9273 61.609C91.9577 61.0304 91.9577 60.4518 91.9273 59.8733L91.3281 59.9048ZM91.3078 59.7143C91.3143 59.7832 91.3212 59.856 91.33 59.9262L91.9254 59.8518C91.9179 59.7921 91.9118 59.7284 91.9051 59.6577L91.3078 59.7143ZM90.9409 58.9275C91.085 58.9563 91.1542 59.0282 91.2046 59.1481C91.2652 59.2925 91.2857 59.4808 91.3078 59.7143L91.9051 59.6577C91.8852 59.4471 91.8607 59.1608 91.7577 58.9157C91.6444 58.6461 91.4313 58.4137 91.0586 58.3392L90.9409 58.9275ZM89.2715 59.511C89.5415 59.3457 89.8336 59.1675 90.1326 59.0456C90.4334 58.9229 90.7031 58.8736 90.9333 58.9259L91.0662 58.3408C90.6622 58.249 90.2559 58.3473 89.9061 58.49C89.5544 58.6334 89.2213 58.8382 88.9582 58.9994L89.2715 59.511ZM89.2126 59.5471C89.2321 59.5352 89.2517 59.5232 89.2715 59.511L88.9582 58.9994C88.9384 59.0115 88.9189 59.0234 88.8998 59.0351L89.2126 59.5471ZM87.1974 61.4219C87.7824 60.6907 88.4461 60.0297 89.216 59.545L88.8964 59.0372C88.0517 59.569 87.3399 60.2833 86.7289 61.047L87.1974 61.4219ZM84.4854 66.0525C85.2265 64.4223 86.1124 62.8293 87.2007 61.4176L86.7255 61.0513C85.6012 62.5097 84.6931 64.1457 83.9391 65.8042L84.4854 66.0525ZM82.4723 72.0605C82.9155 69.9925 83.6255 67.9795 84.4862 66.0506L83.9383 65.8061C83.0647 67.7639 82.3395 69.8171 81.8857 71.9348L82.4723 72.0605ZM82.2612 78.3249C81.7692 76.2993 82.0264 74.1411 82.4723 72.0605L81.8857 71.9348C81.4345 74.0398 81.1535 76.3065 81.6782 78.4665L82.2612 78.3249ZM82.5563 79.2849C82.4368 78.9746 82.3384 78.6543 82.2618 78.3273L81.6776 78.4642C81.7604 78.8174 81.8668 79.1641 81.9964 79.5006L82.5563 79.2849ZM76.1678 46.7097C77.3635 36.6368 78.7084 26.5971 80.4413 16.6186L79.8502 16.516C78.1147 26.5092 76.7684 36.5607 75.572 46.6389L76.1678 46.7097ZM74.7324 60.1454C75.1706 55.6626 75.6517 51.1828 76.168 46.7087L75.5719 46.6399C75.0553 51.1171 74.5738 55.6004 74.1353 60.0871L74.7324 60.1454ZM70.5669 61.9324C71.8903 61.416 73.215 60.9038 74.5411 60.3965L74.3267 59.8361C72.9993 60.344 71.6733 60.8566 70.3488 61.3734L70.5669 61.9324ZM64.613 64.3253C66.5904 63.5153 68.5752 62.7183 70.568 61.932L70.3477 61.3739C68.3527 62.1611 66.3656 62.959 64.3856 63.7701L64.613 64.3253ZM67.6781 34.7103C66.5365 44.4676 65.3701 54.2498 64.2014 64.012L64.7972 64.0834C65.9659 54.321 67.1323 44.5382 68.2741 34.78L67.6781 34.7103ZM69.7408 16.5364C69.1132 22.6031 68.3958 28.6702 67.6782 34.7097L68.274 34.7805C68.9916 28.7414 69.7095 22.67 70.3377 16.5982L69.7408 16.5364ZM70.2197 16.5673C70.2197 16.6687 70.1627 16.7447 70.1047 16.7833C70.0557 16.816 70.009 16.8225 69.9795 16.8225C69.9499 16.8225 69.9032 16.816 69.8542 16.7833C69.7962 16.7447 69.7393 16.6687 69.7393 16.5673H70.3393C70.3393 16.436 70.2673 16.3376 70.187 16.284C70.1155 16.2364 70.0389 16.2225 69.9795 16.2225C69.92 16.2225 69.8434 16.2364 69.7719 16.284C69.6916 16.3376 69.6196 16.436 69.6196 16.5673H70.2197ZM67.1308 40.0266C68.1175 32.2108 69.1033 24.4021 70.2166 16.6097L69.6227 16.5249C68.5085 24.3229 67.5221 32.1365 66.5355 39.9515L67.1308 40.0266ZM67.1309 40.026L67.131 40.0248L66.5353 39.9533L66.5351 39.9545L67.1309 40.026ZM66.0311 48.6858C66.402 45.7994 66.7664 42.9131 67.1306 40.0278L66.5354 39.9526C66.1711 42.8381 65.8068 45.7237 65.436 48.6093L66.0311 48.6858ZM64.0495 64.3923C64.7125 59.1542 65.3754 53.916 66.0312 48.6849L65.4359 48.6102C64.7801 53.8409 64.1173 59.0788 63.4543 64.317L64.0495 64.3923ZM52.9173 69.3221C56.5454 67.7023 60.1933 66.1441 63.8661 64.632L63.6377 64.0772C59.96 65.5913 56.3067 67.1518 52.6727 68.7742L52.9173 69.3221ZM54.5249 57.6507C53.8099 61.4339 53.1543 65.2167 52.4994 68.997L53.0906 69.0994C53.7456 65.3185 54.4005 61.5401 55.1145 57.7622L54.5249 57.6507ZM55.882 50.812C55.4192 53.0899 54.9559 55.3702 54.5249 57.6507L55.1145 57.7622C55.5446 55.4863 56.0071 53.21 56.47 50.9315L55.882 50.812ZM56.7978 46.2575C56.499 47.7752 56.1906 49.2931 55.882 50.812L56.47 50.9315C56.7786 49.4128 57.0873 47.8932 57.3865 46.3734L56.7978 46.2575ZM56.7975 46.2589L56.7973 46.2599L57.387 46.3709L57.3872 46.3699L56.7975 46.2589ZM56.7982 46.2556L56.7982 46.2556L57.3865 46.3733L57.3865 46.3732L56.7982 46.2556ZM56.7982 46.2555L56.7982 46.2556L57.3865 46.3732L57.3865 46.3732L56.7982 46.2555ZM56.7982 46.2554L56.7982 46.2555L57.3865 46.3732L57.3866 46.3731L56.7982 46.2554ZM56.7982 46.2554L56.7982 46.2554L57.3866 46.3731L57.3866 46.3731L56.7982 46.2554ZM57.0671 44.8514C56.977 45.3016 56.8871 45.7813 56.7975 46.2589L57.3873 46.3695C57.477 45.8912 57.5662 45.4151 57.6554 44.9691L57.0671 44.8514ZM57.2909 44.903C57.2846 44.9251 57.262 44.9637 57.2151 44.9865C57.1748 45.0062 57.1412 45.0022 57.1254 44.9978C57.0996 44.9908 57.0613 44.9629 57.0613 44.9102H57.6613C57.6613 44.6483 57.4734 44.4708 57.2832 44.419C57.1851 44.3922 57.0655 44.392 56.9524 44.4471C56.8327 44.5054 56.7502 44.6113 56.714 44.7381L57.2909 44.903ZM54.7842 56.2142C55.5916 52.417 56.3982 48.6532 57.2943 44.89L56.7106 44.751C55.8126 48.5221 55.0046 52.2925 54.1973 56.0894L54.7842 56.2142ZM53.6493 61.8885C54.0076 60.0072 54.396 58.0955 54.7846 56.2124L54.197 56.0911C53.8082 57.9752 53.4191 59.8904 53.0599 61.7762L53.6493 61.8885ZM52.513 67.569C52.8714 65.6878 53.2597 63.7761 53.6484 61.893L53.0607 61.7717C52.6719 63.6557 52.2829 65.5709 51.9236 67.4568L52.513 67.569ZM52.512 67.5744L52.512 67.5741L51.9246 67.4517L51.9246 67.452L52.512 67.5744ZM52.1409 69.529C52.2641 68.8759 52.3885 68.2228 52.513 67.5693L51.9236 67.457C51.7991 68.1104 51.6746 68.7641 51.5513 69.4178L52.1409 69.529ZM50.8174 70.2675C51.2011 70.0933 51.585 69.9198 51.9692 69.747L51.723 69.1998C51.3382 69.3729 50.9537 69.5467 50.5693 69.7212L50.8174 70.2675ZM44.0569 73.4091C46.2974 72.337 48.5503 71.2906 50.8168 70.2678L50.57 69.7209C48.2996 70.7455 46.0426 71.7937 43.7979 72.8679L44.0569 73.4091ZM46.2826 60.5108C45.4013 64.7025 44.521 68.8896 43.6339 73.0763L44.2209 73.2007C45.1081 69.0134 45.9885 64.8258 46.8697 60.6343L46.2826 60.5108ZM48.6058 49.4824C47.8273 53.1636 47.0546 56.8389 46.2826 60.5108L46.8697 60.6343C47.6417 56.9623 48.4144 53.2873 49.1928 49.6065L48.6058 49.4824ZM53.8382 24.5188C52.104 32.8602 50.3699 41.1713 48.6059 49.4822L49.1928 49.6068C50.9571 41.2946 52.6914 32.9825 54.4257 24.6409L53.8382 24.5188ZM54.2129 22.6402C54.0926 23.2725 53.9655 23.9009 53.8381 24.5194L54.4258 24.6404C54.5534 24.0208 54.6812 23.389 54.8023 22.7524L54.2129 22.6402ZM55.7422 40.3627C56.8654 34.523 56.6814 28.3098 54.7924 22.6021L54.2228 22.7906C56.0752 28.3877 56.2596 34.4956 55.153 40.2494L55.7422 40.3627ZM54.3886 45.6271C54.9296 43.8839 55.3807 42.1402 55.7416 40.3659L55.1536 40.2463C54.7969 41.9999 54.3509 43.7243 53.8156 45.4493L54.3886 45.6271ZM53.9072 45.5629C53.9216 45.5196 53.9659 45.4443 54.0646 45.4124C54.1637 45.3805 54.2544 45.4135 54.3085 45.4599C54.3617 45.5055 54.3797 45.5598 54.3842 45.594C54.3887 45.6293 54.3807 45.6494 54.3806 45.6496L53.8235 45.4268C53.7679 45.5657 53.7559 45.7765 53.9181 45.9155C53.9983 45.9842 54.1208 46.0248 54.2488 45.9835C54.3765 45.9423 54.447 45.8408 54.4764 45.7527L53.9072 45.5629ZM55.8105 26.7574C56.9679 32.9889 56.5493 39.741 53.9186 45.5337L54.4649 45.7818C57.1566 39.8546 57.5752 32.9733 56.4004 26.6478L55.8105 26.7574ZM54.439 21.6042C55.0112 23.3073 55.4945 25.0055 55.8102 26.7559L56.4007 26.6494C56.0781 24.8609 55.5855 23.133 55.0078 21.4132L54.439 21.6042ZM54.4343 21.4197L54.4278 21.4579L55.0191 21.5595L55.0257 21.5213L54.4343 21.4197ZM54.7106 21.7705H54.73V21.1705H54.7106V21.7705ZM54.386 21.4469L54.4264 21.5665L54.9948 21.3745L54.9544 21.2549L54.386 21.4469ZM54.3034 21.4237C54.3067 21.4106 54.3102 21.4052 54.3108 21.4044C54.3113 21.4036 54.3108 21.4044 54.3095 21.4053C54.307 21.407 54.311 21.4031 54.3255 21.4039C54.3404 21.4046 54.3562 21.4102 54.3678 21.4185C54.378 21.4258 54.3814 21.4322 54.3828 21.4371L54.9575 21.2647C54.8701 20.9732 54.6025 20.8176 54.357 20.8047C54.0916 20.7907 53.8056 20.941 53.7213 21.2782L54.3034 21.4237ZM50.6592 38.3793C51.8407 32.7221 53.0228 27.0624 54.3049 21.4174L53.7198 21.2845C52.4363 26.9354 51.2532 32.6003 50.0718 38.2566L50.6592 38.3793ZM49.0732 45.9294C49.6075 43.4147 50.1333 40.8972 50.6592 38.3793L50.0718 38.2566C49.5459 40.7747 49.0203 43.2912 48.4863 45.8047L49.0732 45.9294ZM46.1969 59.5641C47.158 55.0226 48.1204 50.4756 49.0733 45.9286L48.4861 45.8055C47.5333 50.3519 46.5711 54.8983 45.6099 59.4398L46.1969 59.5641ZM46.1967 59.5651L46.1968 59.5648L45.6101 59.4391L45.61 59.4394L46.1967 59.5651ZM46.1966 59.5655L46.1967 59.5651L45.61 59.4394L45.6099 59.4397L46.1966 59.5655ZM46.1965 59.5658L46.1966 59.5655L45.6099 59.4397L45.6099 59.4401L46.1965 59.5658ZM46.1965 59.5661L46.1965 59.5658L45.6099 59.4401L45.6098 59.4404L46.1965 59.5661ZM46.1961 59.5681L46.1967 59.5653L45.6096 59.4412L45.609 59.444L46.1961 59.5681ZM43.9303 70.2954C44.6814 66.7247 45.4384 63.1482 46.196 59.5682L45.609 59.4439C44.8514 63.0239 44.0944 66.6008 43.3432 70.1719L43.9303 70.2954ZM43.227 73.6775C43.462 72.5503 43.6962 71.4225 43.9305 70.2947L43.343 70.1727C43.1088 71.3005 42.8745 72.4281 42.6396 73.555L43.227 73.6775ZM30.8918 80.0948C34.9128 77.9285 38.9677 75.8637 43.0637 73.8864L42.8029 73.3461C38.6992 75.327 34.6363 77.3959 30.6072 79.5666L30.8918 80.0948ZM28.7453 81.2693C29.446 80.8684 30.1672 80.4706 30.8876 80.0971L30.6114 79.5644C29.8819 79.9426 29.1533 80.3446 28.4473 80.7486L28.7453 81.2693ZM28.5277 81.3815C28.5946 81.3461 28.6621 81.3114 28.7302 81.2774L28.4625 80.7405C28.3902 80.7765 28.3183 80.8134 28.247 80.8512L28.5277 81.3815ZM28.6225 80.9291C28.6157 80.9212 28.608 80.9128 28.5994 80.9041L28.1753 81.3286C28.1717 81.325 28.1691 81.3221 28.1674 81.3201L28.6225 80.9291ZM28.5072 81.4061L28.5448 81.3845L28.2451 80.8647L28.2076 80.8863L28.5072 81.4061ZM28.2051 81.0537C28.2608 80.998 28.3499 80.9672 28.4407 80.9892C28.5162 81.0075 28.5622 81.0543 28.5856 81.0919C28.6106 81.1318 28.627 81.1874 28.616 81.2503C28.6038 81.3198 28.5632 81.3696 28.5238 81.3959L28.191 80.8966C28.1068 80.9528 28.0437 81.0399 28.025 81.1468C28.0074 81.2471 28.0332 81.3401 28.0769 81.4099C28.119 81.4773 28.193 81.5466 28.2993 81.5723C28.421 81.6018 28.5438 81.5635 28.6293 81.478L28.2051 81.0537ZM31.1191 79.7806C30.1726 80.1417 29.1864 80.5175 28.2765 81.0009L28.5579 81.5308C29.4294 81.0679 30.3801 80.7047 31.333 80.3411L31.1191 79.7806ZM31.1264 79.7779L31.1262 79.778L31.3259 80.3438L31.3261 80.3437L31.1264 79.7779ZM31.3302 79.7L31.1192 79.7805L31.3332 80.341L31.5442 80.2605L31.3302 79.7ZM33.2386 79.034C32.5961 79.2175 31.9561 79.4616 31.3304 79.6999L31.544 80.2606C32.1742 80.0205 32.79 79.7862 33.4034 79.6109L33.2386 79.034ZM33.3089 79.0119C33.2825 79.0203 33.2572 79.0282 33.2327 79.0357L33.4092 79.6092C33.4355 79.6011 33.4624 79.5927 33.4895 79.5841L33.3089 79.0119ZM33.3705 78.9924L33.3086 79.012L33.4899 79.584L33.5517 79.5644L33.3705 78.9924ZM34.7092 78.8312C34.4827 78.7489 34.2214 78.7753 34.0081 78.817C33.7852 78.8605 33.555 78.9339 33.3704 78.9925L33.5519 79.5644C33.7429 79.5037 33.9399 79.4416 34.1231 79.4058C34.3158 79.3682 34.4395 79.3716 34.5042 79.3951L34.7092 78.8312ZM33.8544 79.4502C33.9926 79.4169 34.1194 79.3868 34.2387 79.3741C34.3591 79.3612 34.4412 79.3701 34.4953 79.3917L34.7181 78.8346C34.5336 78.7609 34.3391 78.76 34.1751 78.7775C34.0101 78.795 33.8449 78.8353 33.7138 78.867L33.8544 79.4502ZM33.6489 79.4971C33.7162 79.4836 33.7876 79.4664 33.8544 79.4502L33.7137 78.867C33.6441 78.8837 33.5848 78.898 33.5312 78.9087L33.6489 79.4971ZM31.7191 80.1127C32.3694 79.8762 33.0193 79.6695 33.669 79.4923L33.5111 78.9135C32.8451 79.0951 32.1795 79.3069 31.5141 79.5488L31.7191 80.1127ZM31.1072 80.33C31.3113 80.2581 31.5159 80.1861 31.7185 80.1129L31.5147 79.5486C31.3147 79.6208 31.1124 79.692 30.9079 79.7641L31.1072 80.33ZM31.1155 80.3269L31.1159 80.3268L30.8993 79.7673L30.8989 79.7674L31.1155 80.3269ZM30.113 80.6878C30.4419 80.5644 30.7739 80.4474 31.1069 80.3301L30.9075 79.7642C30.5755 79.8811 30.2377 80.0001 29.9021 80.1261L30.113 80.6878ZM42.7376 73.6637C38.4029 75.7352 34.121 77.8945 29.8674 80.1417L30.1477 80.6722C34.3946 78.4286 38.6693 76.2729 42.9963 74.2051L42.7376 73.6637ZM41.4781 81.9276C42.0497 79.294 42.6074 76.6468 43.1606 73.9957L42.5732 73.8731C42.0202 76.5236 41.4629 79.169 40.8917 81.8003L41.4781 81.9276ZM38.4383 91.7939C39.8568 88.6553 40.7292 85.2819 41.4777 81.9293L40.8921 81.7985C40.1455 85.143 39.2836 88.4667 37.8915 91.5468L38.4383 91.7939ZM32.3702 99.859C35.0777 97.7297 37.0482 94.9062 38.4388 91.7927L37.891 91.548C36.5307 94.5935 34.6141 97.3309 31.9993 99.3873L32.3702 99.859ZM23.364 103.983C26.6345 103.317 29.7595 101.953 32.3724 99.8572L31.997 99.3892C29.467 101.419 26.4324 102.746 23.2443 103.395L23.364 103.983ZM3.7507 99.1772C9.33755 103.284 16.4787 105.378 23.3637 103.983L23.2446 103.395C16.5546 104.751 9.58253 102.719 4.10606 98.6938L3.7507 99.1772ZM2.44341 98.1456C2.86646 98.5019 3.30202 98.8456 3.75007 99.1768L4.10668 98.6943C3.66878 98.3706 3.24319 98.0348 2.82992 97.6867L2.44341 98.1456ZM6.84918 95.3923C5.46669 96.2563 4.02423 97.0164 2.52181 97.639L2.75152 98.1933C4.28794 97.5566 5.75982 96.7807 7.16715 95.9012L6.84918 95.3923ZM11.4771 91.8316C9.9818 93.1174 8.50218 94.3593 6.84918 95.3923L7.16715 95.9012C8.86306 94.8413 10.3735 93.5719 11.8683 92.2865L11.4771 91.8316ZM11.526 91.9124C11.5265 91.9119 11.5215 91.9168 11.5105 91.9208C11.4996 91.9246 11.4891 91.9254 11.4812 91.9247C11.468 91.9235 11.4676 91.9194 11.4718 91.9236C11.4767 91.9285 11.4651 91.9208 11.464 91.8923C11.4634 91.8764 11.4667 91.8587 11.4745 91.8427C11.4821 91.8269 11.4901 91.821 11.4885 91.8222L11.8569 92.2959C11.9946 92.1887 12.0698 92.0354 12.0636 91.8698C12.0579 91.717 11.9846 91.5879 11.896 91.4993C11.8068 91.4101 11.6812 91.3406 11.5363 91.3272C11.3824 91.3131 11.2252 91.3647 11.1018 91.4881L11.526 91.9124ZM6.70131 95.104C8.38558 94.2018 10.0508 93.1736 11.5087 91.9284L11.1191 91.4721C9.70655 92.6785 8.08263 93.6834 6.418 94.5751L6.70131 95.104ZM1.52151 97.4526C3.29767 96.7904 5.04505 96.0073 6.7033 95.1029L6.41601 94.5761C4.78516 95.4656 3.06403 96.2372 1.3119 96.8904L1.52151 97.4526ZM1.36954 97.8978C1.29933 97.8393 1.28513 97.7728 1.31317 97.687C1.34633 97.5854 1.43478 97.489 1.53207 97.4485L1.30133 96.8946C1.03981 97.0036 0.829254 97.236 0.742811 97.5007C0.651248 97.7811 0.696847 98.1183 0.985449 98.3587L1.36954 97.8978ZM20.588 104.825C13.5689 105.415 6.5905 102.525 1.37647 97.9038L0.978514 98.3528C6.2896 103.06 13.4244 106.029 20.6382 105.423L20.588 104.825ZM30.0325 101.934C27.1419 103.585 23.8956 104.56 20.589 104.825L20.6371 105.423C24.0283 105.151 27.3602 104.152 30.3302 102.455L30.0325 101.934ZM37.1024 95.0106C35.3328 97.8712 32.946 100.257 30.0317 101.934L30.331 102.454C33.3371 100.724 35.7942 98.2657 37.6127 95.3262L37.1024 95.0106ZM40.8948 85.5844C40.0315 88.8586 38.8746 92.1164 37.1017 95.0117L37.6134 95.3251C39.4287 92.3605 40.604 89.0407 41.475 85.7374L40.8948 85.5844ZM42.8993 76.6024C42.2806 79.6211 41.6652 82.6233 40.8946 85.5854L41.4752 85.7365C42.2505 82.7567 42.8689 79.739 43.4871 76.7229L42.8993 76.6024ZM43.343 74.448C43.1936 75.1665 43.0463 75.8849 42.8993 76.6024L43.4871 76.7229C43.6342 76.0052 43.7812 75.2877 43.9305 74.5702L43.343 74.448ZM43.5653 73.4002L43.3433 74.4468L43.9302 74.5713L44.1522 73.5247L43.5653 73.4002ZM48.2367 71.0967C46.7274 71.7845 45.2256 72.4827 43.7303 73.1913L43.9872 73.7335C45.4799 73.0261 46.979 72.3292 48.4855 71.6427L48.2367 71.0967ZM51.6581 69.5491C50.5142 70.0591 49.3733 70.5749 48.2359 71.097L48.4863 71.6423C49.6215 71.1212 50.7604 70.6063 51.9024 70.0971L51.6581 69.5491ZM51.4673 73.2152C51.6614 72.1034 51.8661 70.9913 52.0751 69.8785L51.4854 69.7677C51.2761 70.8819 51.071 71.9967 50.8763 73.112L51.4673 73.2152ZM51.3198 74.0008L51.4666 73.2189L50.8769 73.1082L50.7301 73.8901L51.3198 74.0008ZM50.4209 78.9249C50.7045 77.2752 51.0104 75.6475 51.3198 74.0008L50.7301 73.89C50.4208 75.5359 50.1141 77.1682 49.8296 78.8232L50.4209 78.9249ZM48.5382 90.3689C49.1058 86.5461 49.763 82.7225 50.4209 78.9252L49.8297 78.8228C49.1719 82.6196 48.5135 86.4499 47.9447 90.2808L48.5382 90.3689ZM48.4586 90.8818L48.5379 90.3709L47.9451 90.2788L47.8657 90.7897L48.4586 90.8818ZM48.3943 91.2947L48.4585 90.8819L47.8657 90.7896L47.8014 91.2024L48.3943 91.2947ZM47.0758 101.914C47.2949 98.3537 47.8417 94.8419 48.3943 91.2947L47.8014 91.2024C47.2496 94.7449 46.698 98.2843 46.4769 101.877L47.0758 101.914ZM47.1549 103.002C47.1015 102.615 47.054 102.262 47.0758 101.914L46.4769 101.877C46.4508 102.294 46.5086 102.707 46.5605 103.084L47.1549 103.002ZM47.1536 102.994L47.1536 102.994L46.5618 103.093L46.5618 103.093L47.1536 102.994ZM47.1936 103.293C47.1814 103.195 47.168 103.098 47.1549 103.002L46.5605 103.084C46.5737 103.18 46.5866 103.274 46.5983 103.368L47.1936 103.293ZM47.2393 103.325C47.2345 103.34 47.2298 103.346 47.2282 103.348C47.2266 103.35 47.2264 103.35 47.2278 103.349C47.2306 103.347 47.2302 103.349 47.2243 103.348C47.218 103.347 47.2114 103.344 47.2067 103.339C47.2045 103.337 47.2023 103.334 47.2004 103.329C47.1985 103.325 47.1959 103.317 47.1949 103.305L46.597 103.355C46.6241 103.68 46.8623 103.897 47.1283 103.94C47.4046 103.985 47.6999 103.841 47.8085 103.515L47.2393 103.325ZM47.406 102.866C47.3499 103.014 47.2913 103.169 47.2393 103.325L47.8085 103.515C47.8561 103.372 47.9105 103.228 47.9673 103.078L47.406 102.866ZM47.4021 102.877L47.4021 102.877L47.9713 103.066L47.9713 103.066L47.4021 102.877ZM47.6782 102.016C47.6241 102.286 47.5208 102.562 47.4061 102.865L47.9673 103.078C48.0785 102.783 48.2011 102.461 48.2666 102.134L47.6782 102.016ZM47.7144 101.824L47.6776 102.019L48.2672 102.13L48.304 101.935L47.7144 101.824ZM47.9139 100.632C47.8637 101.034 47.7916 101.416 47.7145 101.824L48.304 101.935C48.3807 101.53 48.4563 101.13 48.5093 100.707L47.9139 100.632ZM48.0716 99.635C48.0185 99.9636 47.9651 100.294 47.915 100.625L48.5082 100.714C48.5578 100.387 48.6107 100.06 48.6639 99.7308L48.0716 99.635ZM48.3623 97.6735C48.2834 98.3244 48.1781 98.9763 48.0716 99.635L48.6639 99.7308C48.77 99.074 48.8774 98.4104 48.9579 97.7457L48.3623 97.6735ZM49.1106 91.9574C48.8411 93.8732 48.6017 95.7587 48.3624 97.6724L48.9578 97.7468C49.197 95.8336 49.4359 93.9519 49.7047 92.0409L49.1106 91.9574ZM50.6957 80.5039C50.1271 84.3038 49.6185 88.1331 49.1102 91.9596L49.705 92.0386C50.2134 88.2113 50.7214 84.3869 51.2891 80.5927L50.6957 80.5039ZM51.5332 74.7915C51.2338 76.7074 50.9644 78.5928 50.6953 80.5065L51.2895 80.5901C51.5585 78.6769 51.8274 76.7952 52.126 74.8842L51.5332 74.7915ZM52.4389 69.3485C52.1274 71.1612 51.8169 72.9761 51.5332 74.7915L52.126 74.8842C52.4089 73.0739 52.7187 71.2631 53.0302 69.4501L52.4389 69.3485ZM63.5898 64.4582C59.9113 65.9665 56.2474 67.5172 52.6132 69.125L52.8559 69.6737C56.4843 68.0685 60.143 66.5199 63.8174 65.0133L63.5898 64.4582ZM63.9979 64.7999L64.0013 64.7734L63.406 64.6981L63.4027 64.7246L63.9979 64.7999ZM63.9978 64.8007L63.998 64.7995L63.4026 64.7251L63.4024 64.7263L63.9978 64.8007ZM63.9977 64.8019L63.9978 64.8007L63.4024 64.7263L63.4023 64.7275L63.9977 64.8019ZM61.9647 80.9146C62.6373 75.5489 63.3175 70.1757 63.9976 64.8023L63.4024 64.727C62.7222 70.1003 62.042 75.4739 61.3693 80.84L61.9647 80.9146ZM61.3966 85.4136C61.5835 83.9112 61.7703 82.4098 61.9645 80.916L61.3695 80.8386C61.175 82.3344 60.9881 83.8374 60.8012 85.3396L61.3966 85.4136ZM60.8283 89.9152C61.0228 88.4192 61.2098 86.916 61.3966 85.4136L60.8012 85.3396C60.6143 86.8422 60.4275 88.3438 60.2333 89.8378L60.8283 89.9152ZM60.2905 94.4859L60.8287 89.9116L60.2328 89.8415L59.6946 94.4158L60.2905 94.4859ZM59.989 97.9036C60.0732 96.7589 60.1568 95.6219 60.2905 94.4859L59.6946 94.4158C59.5592 95.567 59.4746 96.7171 59.3906 97.8596L59.989 97.9036ZM59.9029 99.0487C59.9329 98.6666 59.961 98.2847 59.989 97.9036L59.3906 97.8596C59.3626 98.2409 59.3346 98.6214 59.3048 99.0018L59.9029 99.0487ZM59.7314 99.0123C59.7375 98.9878 59.7574 98.9614 59.7836 98.9471C59.8038 98.936 59.818 98.9369 59.8235 98.9377C59.8284 98.9385 59.8468 98.9422 59.8674 98.9643C59.8786 98.9763 59.8893 98.9927 59.8959 99.0128C59.9026 99.0333 59.903 99.051 59.9015 99.0624L59.3062 98.988C59.2875 99.1375 59.336 99.2744 59.429 99.3739C59.516 99.467 59.6297 99.5156 59.7355 99.5313C59.9396 99.5615 60.2351 99.4712 60.3135 99.1578L59.7314 99.0123ZM59.9797 97.4237C59.8948 97.9618 59.8098 98.5003 59.726 99.0389L60.3189 99.1311C60.4026 98.5933 60.4874 98.0554 60.5724 97.5172L59.9797 97.4237ZM60.9207 90.9762C60.6583 93.1228 60.3195 95.2702 59.9797 97.4237L60.5724 97.5172C60.9119 95.3655 61.2524 93.2077 61.5163 91.049L60.9207 90.9762ZM61.4141 86.9697C61.2496 88.3077 61.0852 89.6455 60.9208 90.9758L61.5162 91.0494C61.6807 89.7189 61.8452 88.3808 62.0096 87.0429L61.4141 86.9697ZM61.9075 82.9632C61.743 84.2938 61.5785 85.6318 61.4141 86.9697L62.0096 87.0429C62.1741 85.705 62.3385 84.3672 62.503 83.0368L61.9075 82.9632ZM62.8244 75.3957C62.5212 77.9165 62.2176 80.44 61.9075 82.9634L62.503 83.0366C62.8133 80.5123 63.1169 77.988 63.4201 75.4673L62.8244 75.3957ZM62.8246 75.3939L62.8246 75.3943L63.4199 75.4687L63.42 75.4683L62.8246 75.3939ZM62.8246 75.3935L62.8246 75.3939L63.42 75.4683L63.42 75.468L62.8246 75.3935ZM63.851 66.9381C63.5034 69.7504 63.1641 72.571 62.8245 75.3949L63.4202 75.4666C63.7599 72.6425 64.099 69.8228 64.4465 67.0117L63.851 66.9381ZM64.1558 64.3932L63.8509 66.9392L64.4466 67.0105L64.7516 64.4646L64.1558 64.3932ZM68.2534 62.5703C66.9477 63.0925 65.6432 63.6192 64.3403 64.1511L64.5671 64.7066C65.8685 64.1753 67.1718 63.6491 68.4762 63.1274L68.2534 62.5703ZM74.2897 60.2168C72.2704 60.9879 70.2574 61.7727 68.2539 62.5701L68.4757 63.1276C70.4766 62.3312 72.487 61.5474 74.5038 60.7773L74.2897 60.2168ZM73.2987 77.0716C73.6893 71.555 74.1597 66.0383 74.6954 60.5261L74.0982 60.468C73.562 65.9849 73.0912 71.5069 72.7002 77.0292L73.2987 77.0716ZM72.4024 94.2179C72.5218 88.4855 72.8801 82.7812 73.2986 77.0723L72.7002 77.0284C72.2815 82.7405 71.9223 88.4571 71.8025 94.2054L72.4024 94.2179ZM72.0117 94.2117C72.0117 94.1746 72.027 94.1215 72.0721 94.0785C72.1133 94.0393 72.1635 94.0238 72.2071 94.0238C72.2507 94.0238 72.3008 94.0393 72.342 94.0785C72.3872 94.1215 72.4024 94.1746 72.4024 94.2117H71.8024C71.8024 94.3235 71.8438 94.4326 71.9282 94.513C72.0087 94.5896 72.1112 94.6238 72.2071 94.6238C72.303 94.6238 72.4054 94.5896 72.4859 94.513C72.5703 94.4326 72.6117 94.3235 72.6117 94.2117H72.0117ZM72.6018 85.4271C72.4183 88.347 72.235 91.2632 72.0126 94.1889L72.6109 94.2344C72.8337 91.3041 73.0172 88.384 73.2006 85.4647L72.6018 85.4271ZM72.602 85.4242L72.602 85.4245L73.2004 85.4673L73.2005 85.467L72.602 85.4242ZM72.602 85.4234L72.6019 85.4251L73.2005 85.4661L73.2006 85.4644L72.602 85.4234ZM73.0291 78.883C72.8757 81.0682 72.7388 83.2477 72.6019 85.4251L73.2007 85.4627C73.3376 83.285 73.4744 81.1076 73.6276 78.925L73.0291 78.883ZM74.2556 63.7473C73.7769 68.7736 73.388 73.8291 73.0291 78.8828L73.6276 78.9253C73.9863 73.8736 74.3749 68.8236 74.8529 63.8042L74.2556 63.7473ZM74.5719 60.2884C74.4636 61.4419 74.3582 62.5956 74.2555 63.7492L74.8531 63.8024C74.9557 62.6497 75.0611 61.497 75.1693 60.3444L74.5719 60.2884ZM86.924 55.5994C82.8624 57.0179 78.8009 58.4995 74.7638 60.036L74.9773 60.5968C79.0091 59.0623 83.0655 57.5826 87.1219 56.1659L86.924 55.5994ZM102.871 50.3044C97.5148 51.9798 92.2191 53.7449 86.9238 55.5995L87.1221 56.1658C92.4117 54.3131 97.701 52.5503 103.05 50.8771L102.871 50.3044ZM114.782 46.8032C110.8 47.8809 106.82 49.078 102.871 50.3043L103.049 50.8773C106.995 49.6519 110.967 48.4572 114.939 47.3823L114.782 46.8032ZM114.808 46.797L114.793 46.8005L114.928 47.385L114.944 47.3815L114.808 46.797ZM114.494 47.8933C114.691 47.6906 114.882 47.4937 115.081 47.3084L114.671 46.8701C114.46 47.0669 114.259 47.2743 114.064 47.4753L114.494 47.8933ZM113.556 48.7895C113.893 48.5126 114.2 48.1959 114.494 47.8933L114.064 47.4753C113.766 47.7823 113.482 48.074 113.175 48.3259L113.556 48.7895ZM107.087 51.363C109.273 50.9138 111.728 50.2456 113.553 48.7924L113.179 48.3231C111.475 49.6802 109.146 50.3275 106.966 50.7753L107.087 51.363ZM107.028 51.0141C107.077 51.0042 107.133 51.0173 107.176 51.05C107.212 51.0779 107.229 51.1117 107.235 51.1384C107.242 51.1644 107.245 51.2082 107.22 51.2575C107.191 51.3164 107.136 51.3531 107.085 51.3633L106.968 50.775C106.842 50.8001 106.739 50.8779 106.684 50.9891C106.633 51.0908 106.632 51.198 106.653 51.2839C106.694 51.4478 106.866 51.6583 107.145 51.6025L107.028 51.0141ZM113.332 48.769C111.542 50.154 109.306 50.684 107.043 51.0114L107.129 51.6052C109.412 51.2749 111.78 50.7285 113.699 49.2434L113.332 48.769ZM114.285 47.8639C113.964 48.195 113.661 48.5074 113.329 48.7711L113.702 49.2412C114.07 48.9488 114.4 48.607 114.716 48.2811L114.285 47.8639ZM114.288 47.8603L114.288 47.8604L114.712 48.2846L114.712 48.2846L114.288 47.8603ZM114.288 47.8603L114.288 47.8603L114.712 48.2846L114.712 48.2845L114.288 47.8603ZM114.288 47.8602L114.288 47.8603L114.712 48.2845L114.713 48.2845L114.288 47.8602ZM115.808 46.5449C115.211 46.9046 114.731 47.4029 114.285 47.8638L114.716 48.281C115.171 47.8103 115.599 47.3713 116.117 47.0588L115.808 46.5449ZM115.929 46.5016L115.894 46.5097L116.031 47.094L116.065 47.0859L115.929 46.5016ZM115.714 46.8955L115.719 46.9056L116.275 46.6819L116.271 46.6718L115.714 46.8955ZM115.876 46.5047L115.842 46.5245L116.144 47.0429L116.178 47.0231L115.876 46.5047ZM115.92 46.6363C115.911 46.6385 115.899 46.6397 115.884 46.6373C115.87 46.635 115.858 46.63 115.849 46.6247C115.834 46.6151 115.83 46.6059 115.829 46.6042C115.828 46.6028 115.824 46.5918 115.829 46.5707C115.831 46.5592 115.837 46.5454 115.847 46.5319C115.857 46.518 115.869 46.5087 115.878 46.5034L116.176 47.0243C116.454 46.8656 116.461 46.5588 116.382 46.3704C116.301 46.1805 116.079 45.9782 115.775 46.0542L115.92 46.6363ZM104.544 49.9804C108.31 48.8149 112.104 47.6799 115.927 46.6347L115.768 46.0559C111.937 47.1035 108.136 48.2407 104.366 49.4072L104.544 49.9804ZM89.0354 55.0896C94.1751 53.2969 99.3446 51.5938 104.544 49.9804L104.366 49.4073C99.1602 51.0228 93.984 52.7281 88.8378 54.5231L89.0354 55.0896ZM75.0134 60.216C79.6706 58.4385 84.3445 56.7211 89.0352 55.0897L88.8381 54.523C84.1409 56.1566 79.4613 57.8762 74.7994 59.6554L75.0134 60.216ZM77.6059 33.569C76.4307 42.3165 75.438 51.1092 74.6077 59.9075L75.2051 59.9639C76.0346 51.1729 77.0265 42.388 78.2005 33.6489L77.6059 33.569ZM79.4362 20.4997C78.8095 24.8545 78.1811 29.2208 77.6058 33.5696L78.2006 33.6483C78.7754 29.3034 79.4033 24.9405 80.0301 20.5852L79.4362 20.4997ZM79.4367 20.4965L79.4363 20.4987L80.0299 20.5862L80.0303 20.584L79.4367 20.4965ZM79.4369 20.4949L79.4364 20.4983L80.0305 20.5823L80.031 20.5789L79.4369 20.4949ZM79.9983 16.5847C79.8123 17.8864 79.6247 19.1897 79.437 20.4941L80.0309 20.5796C80.2186 19.2753 80.4062 17.9716 80.5923 16.6695L79.9983 16.5847ZM80.4458 16.5673C80.4458 16.6385 80.4089 16.7309 80.317 16.783C80.2413 16.8259 80.171 16.817 80.1343 16.8061C80.0526 16.7815 79.9953 16.7077 79.9953 16.6271H80.5953C80.5953 16.4269 80.4632 16.2783 80.3067 16.2314C80.2327 16.2092 80.1249 16.2022 80.0212 16.261C79.9013 16.3289 79.8458 16.4513 79.8458 16.5673H80.4458Z" fill="black" mask="url(#path-1-outside-1_34_318)"/>
</svg>
