<?xml version="1.0" encoding="utf-8"?>
<!DOCTYPE svg PUBLIC "-//W3C//DTD SVG 1.1//EN" "http://www.w3.org/Graphics/SVG/1.1/DTD/svg11.dtd">
<svg class="icon-social-comment" version="1.1" id="Layer_1" xmlns="http://www.w3.org/2000/svg" xmlns:xlink="http://www.w3.org/1999/xlink" x="0px" y="0px"
	 width="32px" height="32px" viewBox="0 0 715 539.319" enable-background="new 0 0 715 539.319" xml:space="preserve">
<path fill="#005587" d="M156.508,539.319c-4.415,0-8.268-2.164-10.307-5.79c-1.002-1.781-2.941-6.564,0.664-12.487
	c0.911-1.498,2.113-3.418,3.519-5.661c4.898-7.822,12.303-19.643,18.217-30.971c6.254-11.981,8.102-18.247,8.631-21.151
	C125.193,442.157,81.43,412.09,50.507,376.16C17.465,337.768,0,293.624,0,248.5c0-34.105,9.7-67.128,28.832-98.151
	c18.251-29.596,44.279-56.107,77.363-78.799C173.466,25.41,262.714,0,357.5,0s184.034,25.41,251.305,71.55
	c33.084,22.691,59.112,49.203,77.363,78.799C705.3,181.372,715,214.394,715,248.5s-9.7,67.128-28.832,98.151
	c-18.251,29.596-44.279,56.107-77.363,78.799C541.534,471.59,452.286,497,357.5,497c-30.966,0-61.696-2.744-91.351-8.154
	c-7.458,1.433-36.91,16.756-54.677,25.998c-34.846,18.129-47.688,24.473-54.96,24.476
	C156.512,539.319,156.51,539.319,156.508,539.319z M357.5,21C171.953,21,21,123.055,21,248.5
	c0,80.423,64.081,155.734,167.236,196.545c4.434,1.754,7.71,5.262,9.226,9.877c3.614,11.007-3.391,28.078-17.759,52.665
	c7.325-3.697,15.209-7.799,22.078-11.372c38.002-19.771,55.592-28.436,64.551-28.436c0.915,0,1.807,0.079,2.651,0.235
	C297.686,473.313,327.468,476,357.5,476C543.047,476,694,373.944,694,248.5S543.047,21,357.5,21z"/>
</svg>
