<?xml version="1.0" encoding="utf-8"?>
<!-- Generator: Adobe Illustrator 22.0.1, SVG Export Plug-In . SVG Version: 6.00 Build 0)  -->
<svg version="1.1" id="Calque_1" xmlns="http://www.w3.org/2000/svg" xmlns:xlink="http://www.w3.org/1999/xlink" x="0px" y="0px"
	 viewBox="0 0 48 48" enable-background="new 0 0 48 48" xml:space="preserve">
<path fill="#FFFFFF" d="M23.979,8c8.822,0,16,7.178,16,16s-7.178,16-16,16c-8.822,0-16-7.178-16-16S15.157,8,23.979,8 M23.979,4
	c-11.046,0-20,8.954-20,20s8.954,20,20,20s20-8.954,20-20S35.025,4,23.979,4L23.979,4z"/>
<path fill="#FFFFFF" d="M23.979,9c1.717,0,5,5.842,5,15s-3.283,15-5,15c-1.717,0-5-5.841-5-15S22.262,9,23.979,9 M23.979,6
	c-4.418,0-8,8.059-8,18s3.582,18,8,18s8-8.059,8-18S28.397,6,23.979,6L23.979,6z"/>
<rect x="5.979" y="28.5" fill="#FFFFFF" width="36" height="3"/>
<rect x="5.979" y="16.5" fill="#FFFFFF" width="36" height="3"/>
</svg>
