<svg width="24" height="40" viewBox="0 0 24 40" fill="none" xmlns="http://www.w3.org/2000/svg">
<g clip-path="url(#clip0)">
<path d="M18.6 11.8C18.6 11.8 19 15.3 21 15.2C23 15.1 23.4 13.6 23.4 13.6C23.4 13.6 20.7 15.6 19.8 13.7C19 11.8 19.8 3.69995 15.6 3.69995L16.2 5.09995C16.3 5.09995 17.8 5.79995 18.6 11.8Z" fill="white"/>
<path d="M9.59997 4.69997C9.59997 4.69997 12.8 6.19997 15 4.19997C15 4.19997 14.7 2.69997 14.4 2.49997C14.1 2.29997 13.6 -0.700028 11.7 0.199972C9.79997 1.09997 10.1 2.09997 10.7 2.19997C11.3 2.19997 12.2 3.29997 12 3.79997C11.7 3.19997 10.9 2.89997 10.3 3.19997C10.3 3.19997 9.09997 2.09997 9.89997 1.09997C9.89997 1.09997 7.99997 1.59997 8.49997 3.09997C8.99997 4.59997 9.59997 4.69997 9.59997 4.69997Z" fill="white"/>
<path d="M9.59995 35.2C8.29995 34.7 6.29995 36.7 7.59995 37.9C8.89995 39.1 9.79995 39.3 9.79995 39.3C9.79995 39.3 7.19995 37.3 8.09995 36.5C9.39995 35.2 10.7999 36.9 13.0999 35.5L12.4999 34.5C12.3999 34.5 10.8999 35.7 9.59995 35.2Z" fill="white"/>
<path d="M22.5 36.7C20.8 36 21.2 35 21.2 35L20.5 35.6C20.5 35.6 20.5 36.4 20.9 36.6C21.3 36.8 24 37.5 24.1 38.4C24 38.3 24.2 37.4 22.5 36.7Z" fill="white"/>
<path d="M13.6 31.3C13.6 31.3 13 28 14.4 26.2C15.8 24.4 16.3 21.3 16.3 21.3C16.3 21.3 16.2 19.8 15.4 19C16.4 19.8 17.1 21 17.1 22.3C17.1 22.9 17.2 23.5 17.3 24.1C17.3 24.1 16.2 26.5 16.3 28.4C15.7 29.1 15 29.7 14.2 30.2V30.9C14.9 30.3 15.6 29.7 16.4 29.2C16.5 29.5 16.6 29.8 16.8 30.1C18.1 31.8 15 33 15 33L15.4 33.8C15.4 33.8 19.2 31.7 17.6 29.6C17.2 29 17.1 28.2 17.3 27.5C17.4 27 17.5 26.5 17.7 26C18 26.8 18.6 27.5 19.4 27.9C19.6 28 19.8 28.1 20 28.2C19.3 28.9 19.1 30 19.5 30.9C20.2 32.6 19.8 33.2 19.8 33.2L20.6 32.6C20.6 32.6 20.9 32 20.5 30.8C20.3 30.2 20.4 29.5 20.8 29L20.9 28.8C21.9 29.6 22.4 30.8 21.9 32C21.2 33.7 18.8 34.2 18.3 36.4L19.1 36.9C19.8 35.6 20.9 34.6 22.1 33.8C24 32.7 23.4 29.8 22.8 28.8C22.2 27.8 20.2 26.8 19.7 25.7C19.2 24.6 19.6 20.3 18.1 18.4C18.1 18.4 18.2 8.30002 15.6 5.40002C15.6 5.40002 12.5 7.20002 9.30001 5.80002C7.70001 6.10002 6.60001 7.60002 6.50001 9.30002C6.40001 11.1 7.10001 12.9 8.50001 14.2L8.00001 12.4C8.00001 12.4 6.80001 9.10002 8.80001 7.20002C8.60001 7.80002 8.50001 8.60002 8.50001 9.30002C8.50001 10.7 8.60001 12.1 8.90001 13.4C9.50001 13.4 10.1 13.4 10.7 13.4C11.3 13.4 11.9 13.4 12.5 13.4C12.5 13.4 11.4 13.9 10.7 14.1C10.2 14.3 9.60001 14.3 9.10001 14.3C9.20001 14.9 9.3 15.6 9.40001 16.2C10 16.3 10.6 16.3 11.3 16.1C12.5 15.8 13.8 15.7 15 15.7C15 15.7 12 16.1 11.4 16.7C11 17 10.3 17 9.60001 16.9C9.70001 17.8 9.80001 18.8 9.70001 19.7C9.30001 22.6 5.00001 26.1 2.40001 25.9C-0.199994 25.7 -0.199994 28.2 0.300006 28.3C0.800006 28.4 0.900006 27.2 1.20001 27.2C1.50001 27.2 1.80001 26.8 4.10001 26.7C5.20001 26.6 6.40001 26.3 7.40001 25.9C7.50001 26.4 7.70001 26.8 7.90001 27.3C7.90001 27.3 7.10001 28.9 5.70001 29.3C4.30001 29.6 4.60001 31.6 4.90001 32.8C5.20001 34 3.70001 35 4.20001 36.3C4.50001 35.5 4.80001 34.8 5.30001 34.2C6.20001 33 5.00001 31.5 5.40001 30.8C5.80001 30.1 7.20001 30.1 8.40001 28.3C9.00001 29.2 9.00001 31 8.40001 32.1C7.80001 33.1 9.60001 34.5 9.60001 34.5C9.60001 34.5 10.2 34.6 10.1 34.5C10 34.4 8.20001 32.6 9.30001 31.6C9.80001 31.1 9.60001 29.5 9.30001 28C9.70001 28.2 10.1 28.2 10.5 28.2V27.4C10.1 27.8 9.50001 27.3 9.00001 26.9C8.80001 26.3 8.70001 25.8 8.60001 25.4C10.2 24.5 11.6 23.3 12 21.7C12 21.7 11.2 26.4 11.1 26.8C10.9 27.2 10.9 30.2 11.6 31.7C12.3 33.2 14.4 37.1 17 37.9C19.6 38.7 21.5 40.6 22 39.8C22 39.8 19.7 37.6 17.6 37C15.5 36.4 13.6 31.3 13.6 31.3Z" fill="white"/>
</g>
<defs>
<clipPath id="clip0">
<rect width="24" height="40" fill="white"/>
</clipPath>
</defs>
</svg>
