<svg width="14" height="15" viewBox="0 0 14 15" fill="none" xmlns="http://www.w3.org/2000/svg"><g clip-path="url(#clip0)" fill="#D0BAAE"><path d="M.4 11.5h11c0-.2 2.4-2.2 2.6-6.5H2.5C2.3 9 .2 10.8 0 10.8a.4.4 0 00.3.7zM13.6 2.5h-2V2c0-.2-.2-.4-.5-.4-.2 0-.4.2-.4.4v.4h-2V2c0-.2-.2-.4-.5-.4-.2 0-.4.2-.4.4v.4h-2V2c0-.2-.2-.4-.4-.4-.3 0-.5.2-.5.4v.4H3c-.2 0-.4.2-.4.4v1.2H14V3c0-.2-.2-.4-.4-.4z"/><path d="M12 12l-.9.3H2.5v1.3c0 .2.2.4.4.4h10.7c.2 0 .4-.2.4-.4V9c-.8 2-1.9 2.9-2 3z"/></g><defs><clipPath id="clip0"><path fill="#fff" transform="translate(0 .8)" d="M0 0h14v14H0z"/></clipPath></defs></svg>