<svg width="20" height="20" viewBox="0 0 20 20" fill="none" xmlns="http://www.w3.org/2000/svg"><path d="M18 .8H6.6c-1 0-2 1-2 2v1h8.8C14.8 3.8 16 5 16 6.5V14l1 1.3a.3.3 0 00.7-.2v-3.4h.3c1.1 0 2-.8 2-2v-7c0-1-.9-2-2-2z" fill="#D0BAAE"/><path d="M13.4 4.5H2c-1.1 0-2 .9-2 2v7c0 1.1.9 2 2 2h2v3.3a.3.3 0 00.6.3l3.2-3.6h5.6c1 0 2-.9 2-2v-7c0-1.1-1-2-2-2zm-9.4 7a1.3 1.3 0 110-2.7 1.3 1.3 0 010 2.7zm3.7 0a1.3 1.3 0 110-2.7 1.3 1.3 0 010 2.7zm3.6 0a1.3 1.3 0 110-2.7 1.3 1.3 0 010 2.7z" fill="#D0BAAE"/></svg>