<svg width="24" height="24" viewBox="0 0 24 24" fill="none" xmlns="http://www.w3.org/2000/svg"><path d="M14.3 12a2.3 2.3 0 11-4.6 0 2.3 2.3 0 014.6 0z" fill="url(#paint0_linear)"/><path d="M17.4 8c-.1-.4-.3-.6-.5-.9l-.8-.5c-.3 0-.6-.2-1.3-.2a47.8 47.8 0 00-6.9.2l-.8.5-.5.8c0 .3-.2.6-.2 1.3a47.8 47.8 0 00.2 6.9l.5.8.8.5c.3 0 .6.2 1.3.2a47.8 47.8 0 006.9-.2c.6-.3 1-.7 1.3-1.3 0-.3.2-.6.2-1.3a48 48 0 00-.2-6.9zM12 15.4a3.5 3.5 0 110-7 3.5 3.5 0 010 7zm3.7-6.4a.8.8 0 110-1.6.8.8 0 010 1.6z" fill="url(#paint1_linear)"/><path d="M12 0a12 12 0 100 24 12 12 0 000-24zm6.8 14.8a5 5 0 01-.3 1.7c-.3 1-1 1.7-2 2a48.9 48.9 0 01-9 0c-.5-.1-.9-.4-1.2-.8-.4-.3-.7-.7-.8-1.2a48.5 48.5 0 010-9c.1-.5.4-.9.8-1.2.3-.4.7-.7 1.2-.8a48.9 48.9 0 019 0c.5.1.9.4 1.2.8.4.3.7.7.8 1.2a48.8 48.8 0 01.3 7.4z" fill="url(#paint2_linear)"/><defs><linearGradient id="paint0_linear" x1="12" y1="9.7" x2="5.2" y2="16.8" gradientUnits="userSpaceOnUse"><stop offset=".4" stop-color="#E1101D"/><stop offset=".4" stop-color="#E1101D"/><stop offset="1" stop-color="#EFEA77"/></linearGradient><linearGradient id="paint1_linear" x1="12" y1="6.4" x2="4.4" y2="18.8" gradientUnits="userSpaceOnUse"><stop offset=".4" stop-color="#E1101D"/><stop offset=".4" stop-color="#E1101D"/><stop offset="1" stop-color="#EFEA77"/></linearGradient><linearGradient id="paint2_linear" x1="19.2" y1="-6" x2="2.8" y2="21.2" gradientUnits="userSpaceOnUse"><stop offset="0" stop-color="#9917FF"/><stop offset=".4" stop-color="#E1101D"/><stop offset=".7" stop-color="#E87E4A"/><stop offset="1" stop-color="#EFEA77"/></linearGradient></defs></svg>