<svg width="45" height="45" viewBox="0 0 45 45" fill="none" xmlns="http://www.w3.org/2000/svg"><g clip-path="url(#clip0)" fill="#FF8E8C"><path d="M9.3 18.9c.5-3.5 4.8-7.2 8.2-7.2.2 0 .5-.1.6-.3.2 0 .3-.1.4-.4 1.2-2.2.6-3.9-1.4-5.3-2.3-1.6-5.9 0-7.7 1.5C5 11 .2 17.5.4 23.7A26 26 0 001 36c.8 2.3 3 3.5 5.4 3.7 2.4.1 7.3.8 9.4-.6 2.1-1.4 2.3-4.1 2.5-6.5.2-2.6 1-7.4-1.3-9.5-2.2-2-8.4.2-7.7-4.2zM35.2 18.9c.5-3.5 4.8-7.2 8.2-7.2.2 0 .5-.1.6-.3.2 0 .3-.1.4-.4 1.2-2.2.6-3.9-1.4-5.3-2.3-1.6-5.9 0-7.7 1.5-4.5 3.8-9.2 10.3-9 16.5A26 26 0 0027 36c.8 2.3 3 3.5 5.4 3.7 2.4.1 7.2.8 9.4-.6 2-1.4 2.2-4.1 2.5-6.5.2-2.6 1-7.4-1.3-9.5-2.2-2-8.5.2-7.7-4.2z"/></g><defs><clipPath id="clip0"><path fill="#fff" d="M0 0h45v45H0z"/></clipPath></defs></svg>