<svg width="83" height="83" viewBox="0 0 83 83" fill="none" xmlns="http://www.w3.org/2000/svg"><g clip-path="url(#clip0)" fill="#FF8E8C" fill-opacity=".2"><path d="M17.1 34.8c1-6.3 9-13.1 15.2-13.3.4 0 .9-.1 1.1-.4.3-.2.6-.3.8-.7 2.1-4 1-7.3-2.6-9.9-4.2-3-10.9 0-14.2 2.8C9 20.3.4 32.3.9 43.7c-1.5 7.6-1.2 15.9 1 22.7 1.5 4.3 5.6 6.5 10 6.8 4.3.3 13.3 1.6 17.2-1 4-2.7 4.2-7.7 4.6-12 .5-4.8 1.8-13.8-2.3-17.6-4-3.6-15.6.3-14.3-7.8zM64.8 34.8c1-6.3 9-13.1 15.2-13.3.5 0 .9-.1 1.2-.4.3-.2.6-.3.7-.7 2.2-4 1-7.3-2.6-9.9-4.2-3-10.8 0-14.2 2.8-8.4 7-16.9 19-16.5 30.4-1.4 7.6-1.1 15.9 1 22.7 1.5 4.3 5.7 6.5 10 6.8 4.4.3 13.3 1.6 17.2-1 4-2.7 4.2-7.7 4.7-12 .4-4.8 1.7-13.8-2.3-17.6-4-3.6-15.8.3-14.4-7.8z"/></g><defs><clipPath id="clip0"><path fill="#fff" d="M0 0h83v83H0z"/></clipPath></defs></svg>