<svg width="20" height="20" viewBox="0 0 20 20" fill="none" xmlns="http://www.w3.org/2000/svg"><path d="M16.2 3.1H3.8a.4.4 0 01-.4-.4v-1C3.4.7 4.2 0 5.2 0h9.6c1 0 1.8.8 1.8 1.7v1c0 .3-.2.4-.4.4zM17.9 4.4H2C1 4.4 0 5.4 0 6.4v7.4C0 15 1 16 2.1 16h1.3v-3c0-1.6 1.3-2.9 2.9-2.9h7.5c1.5 0 2.8 1.3 2.8 2.8V16h1.3c1.2 0 2.1-1 2.1-2V6.4c0-1.2-1-2.1-2.1-2.1zM3.8 9a1 1 0 010-2 1 1 0 110 2z" fill="#D0BAAE"/><path d="M13.8 11.9H6.2a1 1 0 00-.9 1v4.3c0 .5.4 1 1 1h7.5c.5 0 .9-.5.9-1v-4.3c0-.6-.4-1-1-1z" fill="#D0BAAE"/></svg>