<svg width="20" height="20" viewBox="0 0 20 20" fill="none" xmlns="http://www.w3.org/2000/svg"><g clip-path="url(#clip0)" fill="#D0BAAE"><path d="M2 8.8a2 2 0 00-2 2v6.7c0 1.1 1 2 2 2h2.6a2 2 0 001.2-.3V8.8H2.1zM20 11.9c0-.5-.2-1-.5-1.3.3-.5.5-1 .5-1.6-.1-1-1-2-2.2-2h-5.1c.2-.7.6-2.1.6-3.3C13.3 2 11.8.4 10.8.4c-.8 0-1.5.5-1.5.5l-.1.3v2.9L6.8 9.3h-.1v9c.6.3 1.5.4 2 .4h7.7a2 2 0 001.9-1.4c0-.4 0-.9-.2-1.3a1.9 1.9 0 00.9-2.5c.6-.3 1-.9 1-1.6z"/></g><defs><clipPath id="clip0"><path fill="#fff" d="M0 0h20v20H0z"/></clipPath></defs></svg>