<svg width="77" height="77" viewBox="0 0 77 77" fill="none" xmlns="http://www.w3.org/2000/svg"><g clip-path="url(#clip0)"><path d="M73 56.4v7.3c0 1-.8 1.9-1.8 1.9H4.8c-1 0-1.8-.9-1.8-1.9V54l39-5.2 27.9 6.8 3.1.8z" fill="#FFB09E"/><path d="M73 56.4v7.3c0 1-.8 1.9-1.8 1.9h-2.7c.8-.4 1.4-1.3 1.4-2.2v-7.8l3.1.8z" fill="#FFA78F"/><path d="M73 35.5v20.9l-9.7-1.9c-2-.4-3.9-.3-5.7.1L48 57c-2 .5-4.2.5-6.3 0L33 54.8c-2.2-.6-4.4-.5-6.6 0l-7.2 1.9c-2.4.6-4.9.6-7.2-.1L3 54V35.5l37-2.1 33 2z" fill="#FFCEBF"/><path d="M69.9 35.3v20.5l3.1.6v-21l-3.1-.1z" fill="#FFB09E"/><path d="M73 35.5V29c0-1-.8-1.9-1.8-1.9H4.8c-1 0-1.8.9-1.8 1.9v6.4h70z" fill="#FFEEE6"/><path d="M69 27.2c.5.4.9 1 .9 1.7v6.6H73V29c0-1-.8-1.9-1.8-1.9h-2.3zM59.1 35.5h-31a17 17 0 01-1.4-8.3h33.9a17 17 0 01-1.5 8.3z" fill="#FFDFCF"/><path d="M37.5 40.4L29 49l-3-3 5-5.2 3.5-3.4 3 3z" fill="#8D9CA8"/><path d="M37.5 40.4l-3.2 3.2a17 17 0 01-3.3-2.8l3.5-3.4 3 3z" fill="#7A8C98"/><path d="M30 48.2l-3.3-3.4c-.8-.7-2-.7-2.7 0l-8.6 8.6c-.7.7-.7 2 0 2.7l3.4 3.4c.8.7 2 .7 2.7 0l8.6-8.6c.7-.7.7-2 0-2.7z" fill="#FF9F9D"/><path d="M30 48.2l-3.3-3.4c-.8-.7-2-.7-2.7 0l-.4.4.8.5 2.5 2.5c.8.8.8 2 0 2.7l-7.3 7.3c-.4.4-1 .6-1.5.5l.7.8c.8.7 2 .7 2.7 0l8.6-8.6c.7-.7.7-2 0-2.7z" fill="#DA8483"/><path d="M46.7 45.5a17 17 0 100-34 17 17 0 000 34z" fill="#F7F9FA"/><path d="M58.8 16.5a17 17 0 00-13.6-5c3.8.4 7.5 2 10.4 5a17 17 0 01-10.4 28.9 17 17 0 0013.6-29z" fill="#E8EDF2"/><path d="M11.4 31.7a1 1 0 01-1-1v-7c0-2.4.6-4.7 1.8-6.7l2.9-4.8a1 1 0 111.8 1.1l-3 4.8c-1 1.7-1.5 3.6-1.5 5.5v7c0 .6-.4 1.1-1 1.1zM20.4 31.7a1 1 0 01-1-1v-7a1 1 0 012.1 0v7c0 .5-.5 1-1 1z" fill="#8D9CA8"/><path d="M50 34.2l2-2 1.9 2a1 1 0 001.4 0c.5-.4.5-1 0-1.5L53 30.1l-1-4.9c-.1-.5 0-1 .3-1.3l3.2-4.2a1 1 0 00-1.7-1.3l-3.2 4.2c-.7.8-1 2-.7 3l1 4.7-2.5 2.4a1 1 0 101.5 1.5zM43.1 38.1l-2.7-2c-.4-.4-.6-.9-.6-1.4v-8.5l2.3-3a1 1 0 10-1.6-1.3l-1.7 2-1.6-2.7a1 1 0 00-1.9 1l2.4 4v8.5c0 1.2.5 2.3 1.4 3l2.7 2a1 1 0 001.5-.1A1 1 0 0043 38zM54.7 42.5l-4.4-3.1a1 1 0 00-1.2 1.7l4.4 3.1a1 1 0 001.4-.2 1 1 0 00-.2-1.5z" fill="#C5D3DD"/><path d="M46.7 46.5a18 18 0 110-36 18 18 0 010 36zm0-34a15.9 15.9 0 00-11.2 27.2 15.8 15.8 0 0022.5 0 16 16 0 00-11.3-27.1z" fill="#8D9CA8"/></g><defs><clipPath id="clip0"><path fill="#fff" transform="translate(3 3)" d="M0 0h70v70H0z"/></clipPath></defs></svg>