<svg width="77" height="77" viewBox="0 0 77 77" fill="none" xmlns="http://www.w3.org/2000/svg"><path d="M41 22.4h-5a6 6 0 010-12h5a6 6 0 010 12zm-5-9.6a3.6 3.6 0 000 7.2h5a3.6 3.6 0 000-7.2h-5z" fill="#FF9F9D"/><path d="M38.5 17.6c-.7 0-1.3.5-1.4 1.2l-1 6h4.8l-1-6c-.1-.7-.7-1.2-1.4-1.2z" fill="#E28D8C"/><path d="M10.8 44c-.6 0-1.2-.5-1.2-1.1v-1.1c0-1-.6-2-1.5-2.3L.8 36.8a1.2 1.2 0 01.8-2.3L9 37.2c1.9.7 3.1 2.6 3.1 4.6v1c0 .7-.5 1.3-1.2 1.3zM66.2 44c-.7 0-1.2-.5-1.2-1.1v-1.1c0-2 1.2-3.9 3-4.6l7.4-2.7c.6-.2 1.3.1 1.5.7.3.6 0 1.3-.7 1.6L69 39.5c-.9.3-1.5 1.3-1.5 2.3v1c0 .7-.6 1.3-1.2 1.3z" fill="#FF9F9D"/><path d="M10.8 33.2v26.5c0 4 3.3 7.2 7.2 7.2h41c4 0 7.2-3.2 7.2-7.2V33.2H10.8z" fill="#DAD8DB"/><path d="M30 35.6h36.2v-2.4H10.8v26.5c0 4 3.3 7.2 7.2 7.2h6V41.7a6 6 0 016-6z" fill="#C8C5C9"/><path d="M38.5 21.2c-13 0-24.1 3-27.7 7.2h55.4c-3.6-4.2-14.6-7.2-27.7-7.2z" fill="#DBEAFF"/><path d="M67.4 33.2H9.6c-.6 0-1.2-.5-1.2-1.2v-2.4c0-.6.6-1.2 1.2-1.2h57.8c.6 0 1.2.6 1.2 1.2V32c0 .7-.6 1.2-1.2 1.2z" fill="#ECEAEC"/><path d="M22.9 30.8a1.2 1.2 0 010-2.4H9.6c-.6 0-1.2.6-1.2 1.2V32c0 .7.6 1.2 1.2 1.2h57.8c.6 0 1.2-.5 1.2-1.2v-1.2H22.9z" fill="#DAD8DB"/><path d="M65.2 63.3c.4-.7.7-1.5.9-2.4H10.9c.2.9.5 1.7.9 2.4h53.4z" fill="#C8C5C9"/><path d="M24 63.3V61H11c0 .9.4 1.7.8 2.4H24z" fill="#B6B1B7"/><path d="M63 26H28.8c-1.6 0-2.1-2.1-.7-2.8 1.2-.7 2.7-1.2 4.3-1.8-10.3.8-18.5 3.5-21.5 7h55.4c-.8-.8-1.8-1.6-3.1-2.4z" fill="#C3DDFF"/></svg>