<svg width="77" height="77" viewBox="0 0 77 77" fill="none" xmlns="http://www.w3.org/2000/svg"><g clip-path="url(#clip0)"><path d="M28.9 38h19V65H29V38z" fill="#FFE0D1"/><path d="M67.8 34.8c1.6-7 1.6-14.2 0-21.2-.4-1.2 0-2.4 1-3.3A5.3 5.3 0 1061 3c-.8 1-2 1.3-3.3 1l-5.2-1c-9.2-2-18.8-2-28 0L19.2 4C18 4.4 16.7 3.9 16 3a5.3 5.3 0 10-7.6 7.4c1 .9 1.4 2.2 1.1 3.4-1.6 6.9-1.6 14 0 20.9.2 1.2-.2 2.4-1.2 3.3a5.3 5.3 0 003.2 9.3c1.7 0 3.2-.6 4.3-1.7.8-.8 2-1.1 3.1-1l5.8 1.3c9.2 2 18.8 2 28 0l5.6-1.2c1.2-.2 2.3.1 3.2 1a5.3 5.3 0 107.5-7.6c-1-.9-1.4-2.1-1-3.3z" fill="#E3F6FC"/><path d="M16.4 41c0-1.7.7-3.2 1.8-4.2 1-.8 1.4-2 1.1-3.3-1.6-6.9-1.6-14 0-20.9.4-1.2 0-2.5-1-3.4a5.3 5.3 0 01-1.6-5.6l-.8-.6a5.3 5.3 0 10-7.6 7.4c1 .9 1.4 2.2 1.1 3.4-1.6 6.9-1.6 14 0 20.9.2 1.2-.2 2.4-1.2 3.3a5.3 5.3 0 003.2 9.3c1.7 0 3.2-.6 4.3-1.7.6-.6 1.5-1 2.4-1-1-1-1.6-2.2-1.7-3.6z" fill="#CFEFFC"/><path d="M53.7 25.2l1.8-6.5A14.7 14.7 0 0041.3 0h-5.8c-9.7 0-16.8 9.3-14.2 18.7l1.8 6.5 2.6 7.6H50l3.7-7.6z" fill="#A59CA6"/><path d="M28.9 38V65h4.2v-8.5c0-1 1-1.8 2-1.7l1.8.2h3c2.5 0 5-.8 7-2.3l1-.8V38H29z" fill="#FFD1C2"/><path d="M57.3 28.7v3.1c0 1.2-.7 2.4-1.8 3L53 36.5c-.6.3-.9.8-.9 1.4v3c0 2.7-1.3 5.2-3.5 6.8L45 50.3a8.6 8.6 0 01-5 1.7h-3c-2 0-3.7-.6-5.2-1.7l-3.5-2.6a8.6 8.6 0 01-3.5-6.9V38c0-.6-.3-1.1-.8-1.4l-2.7-1.7c-1-.6-1.7-1.8-1.7-3v-3.1a3.5 3.5 0 013.5-3.5c1-2.5 1.4-5.1 1.4-7.7v-1.3a5.5 5.5 0 017.5-5l4.3 1.6c1.4.6 2.9.6 4.2 0l4.4-1.7a5.5 5.5 0 017.5 5.1v1.3a22.7 22.7 0 001.3 7.7c2 0 3.6 1.5 3.6 3.5z" fill="#FFE0D1"/><path d="M24.9 16.7a6 6 0 016.5-1.4l4.8 1.9c1.4.5 3 .5 4.5 0l4.7-2a6 6 0 017 2v-1a5.5 5.5 0 00-7.5-5l-4.4 1.6c-1.3.6-2.8.6-4.2 0L32 11.1a5.5 5.5 0 00-7.5 5.1v1l.4-.5z" fill="#FFBBBA"/><path d="M70.2 73.3v2.1c0 1-.7 1.6-1.5 1.6H8.2c-.9 0-1.6-.7-1.6-1.6v-2A11 11 0 0113 63.2l10-4.7 4.1-2 11.3 3.5 10.9-4.4 4.6 2.9 10 4.7a11 11 0 016.3 10z" fill="#F8F3F2"/><path d="M53.9 58.6l-4.6-2.9-10.9 4.4-11.3-3.5-4.1 2-2.8 1.3-7.2 3.4a11 11 0 00-6.4 10v2.1c0 1 .7 1.6 1.6 1.6H12v-.6a11 11 0 016.3-10l3.2-1.5c1.5-.7 3.2-.5 4.5.5l2.7 2.2a5.3 5.3 0 007.2-.4l1.6-1.7c.5-.5 1.4-.5 1.9 0l1.6 1.7a5.3 5.3 0 007.1.4l7-5.6c.7-.6 1.2-1.3 1.6-2l-2.8-1.4z" fill="#F2EAE7"/><path d="M39.6 77V60l-.1-.4-1 .5-1.2-.4V77h2.3z" fill="#F2EAE7"/><path d="M37.3 60v5.7l.2-.2c.5-.5 1.4-.5 1.9 0l.2.2v-5.6l-.1-.5-1 .5-1.2-.4v.4z" fill="#EDE2DD"/><path d="M38.4 60L28.1 54c-1-.6-2.4-.5-3.3.4l-1.3 1.3c-1.1 1.1-1 3 .2 4l7 5.6c.9.7 2.2.6 3-.2l4.7-5z" fill="#F8F3F2"/><path d="M38.4 60L48.7 54c1-.6 2.4-.5 3.3.4l1.3 1.3c1.1 1.1 1 3-.2 4l-7 5.6c-.8.7-2.1.6-2.9-.2l-4.8-5z" fill="#F8F3F2"/><path d="M38.4 34c-1 0-1.7-.3-2.2-.9L36 33a1.2 1.2 0 012-1.3l1.1-.1a1.2 1.2 0 011.9 1.4l-.1.1-.4.4a5 5 0 01-2.2.6zM42.6 44.7c-.3 0-.7-.2-1-.5a4 4 0 00-3.2-1.6 4 4 0 00-3.2 1.6 1.2 1.2 0 11-1.9-1.4c1.2-1.6 3-2.5 5.1-2.5 2 0 4 1 5.1 2.5a1.2 1.2 0 01-.9 1.9z" fill="#FFBBBA"/><path d="M34.7 23c-.4 0-.7-.2-1-.5-.6-1-1.6-1.6-2.8-1.7l-2.1-.2a1.2 1.2 0 11.2-2.3l2.1.2c1.9.2 3.6 1.1 4.6 2.7a1.2 1.2 0 01-1 1.8zM42.3 23c-.2 0-.5 0-.7-.2-.5-.3-.6-1-.3-1.6 1-1.6 2.7-2.5 4.6-2.7l2.1-.2a1.2 1.2 0 01.2 2.3l-2.1.2c-1.2.1-2.2.7-2.9 1.7-.2.3-.5.5-1 .5zM30.6 28.5a2 2 0 100-4 2 2 0 000 4z" fill="#A59CA6"/><path d="M30.6 34c-.9 0-1.7-.3-2.4-.9a1.2 1.2 0 111.4-1.8c.6.5 1.4.5 2 0a1.2 1.2 0 111.5 1.8c-.8.6-1.6.9-2.5.9z" fill="#FFBBBA"/><path d="M46.4 28.5a2 2 0 100-4 2 2 0 000 4z" fill="#A59CA6"/><path d="M46.4 34c-.9 0-1.7-.3-2.4-.8a1.2 1.2 0 111.4-1.9c.6.5 1.4.5 2 0a1.2 1.2 0 111.4 1.8c-.7.6-1.5.9-2.4.9z" fill="#FFBBBA"/></g><defs><clipPath id="clip0"><path fill="#fff" d="M0 0h77v77H0z"/></clipPath></defs></svg>