<svg width="77" height="77" viewBox="0 0 77 77" fill="none" xmlns="http://www.w3.org/2000/svg"><g clip-path="url(#clip0)"><path d="M61.7 26.4c-.3-.5-1-.7-1.5-.5a3.6 3.6 0 01-4-.6 3.7 3.7 0 01-7 1c-.8.8-1.9 1.3-3 1.2-1.4-.1-2.6-1-3.1-2.3-.4-1-.4-1.8 0-2.6h-.3a3.7 3.7 0 01-2.5-6.3c-1-.4-2-1.3-2.3-2.4-.1-.6-.6-1-1.2-1-5.6.6-10.7 2.9-14.7 6.4-5.7 5-7.7 12.6-7.1 20.9A23.5 23.5 0 0037.7 63c8.3.4 15.8-2 20.8-7.7a25.6 25.6 0 003.2-29z" fill="#E6E4E6"/><path d="M55 38.5c0-3.8-1.3-7.2-3.5-10-1.1-.3-2-1.1-2.4-2.2-.7.8-1.8 1.3-3 1.2-1.3-.1-2.5-1-3-2.3-.4-.8-.4-1.5-.2-2.1A15.9 15.9 0 1055 38.5z" fill="#FFBBBA"/><path d="M40.1 61.7a25.8 25.8 0 01-18-42.4 25.6 25.6 0 0015.6 44.8c8.3.5 15.8-3 20.8-8.7A25.6 25.6 0 0140 61.7z" fill="#C8C5C9"/><path d="M74.6 64.2l.8-2.5V43.4l-3.3-2.5v20.8c0 1.4 1.1 2.5 2.5 2.5zM3.7 28.7v33c0 1.4 1 2.5 2.4 2.5l1.1-2.5v-33H3.7z" fill="#C9C5C9"/><path d="M11 12.8c-.7 0-1.2.6-1.2 1.3v9.7a1.2 1.2 0 01-2.5 0v-9.7A1.2 1.2 0 105 14v9.7a1.2 1.2 0 01-2.5 0v-9.7A1.2 1.2 0 100 14v12.2c0 2 1.6 3.6 3.7 3.6C5 30 6 31 6 32.4v31.8c1.4 0 2.5-1.1 2.5-2.5V30c2 0 3.6-1.6 3.6-3.6V14c0-.7-.5-1.3-1.2-1.3zM69.7 20.2v22c0 .6.5 1.2 1.2 1.2H72c1.4 0 2.5 1 2.5 2.4v18.4c1.3 0 2.4-1.1 2.4-2.5V12.8c-4 0-7.3 3.3-7.3 7.4z" fill="#DBD8DB"/></g><defs><clipPath id="clip0"><path fill="#fff" d="M0 0h77v77H0z"/></clipPath></defs></svg>