<svg width="77" height="77" viewBox="0 0 77 77" fill="none" xmlns="http://www.w3.org/2000/svg"><path d="M72.2 72.2c.9-.8.8-2 0-2.9l-34-33.5c-.9-.9-1.6-.9-2.4 0-.9.8-.9 2.2 0 3l33.5 33.6.6.4c.8.4 1.7 0 2.3-.6z" fill="#FFBFBE"/><path d="M70 69.7c.8.8.8 2.2 0 3v.1a2.2 2.2 0 002.4-3.5L38.9 35.8c-.9-.9-2.3-.9-3.1 0l.7.4L70 69.7z" fill="#FF8E8C"/><path d="M5.5 21.9c.7-2.3.7-4.9 2-6.8 1.3-2 3.7-3 5.4-4.4C14.7 9 16 6.9 18 5.8c2.1-1 4.7-.7 7-1.2l1-.2c1.9-.6 3.8-1.2 5.8-1C34 3.3 36 5 38.4 5.7c2.2.7 4.8.7 6.7 2 2 1.3 2.8 3.6 4.3 5.3 1.5 1.8 3.7 3 4.7 5 1 2.1.8 4.5 1.3 6.8.4 2.2 1.7 4.5 1.5 6.8-.1 2.3-1.6 4.4-2.4 6.6-.8 2.3-.7 4.7-2 6.6-1.1 1.7-2.9 3-4.5 4.2l-.6.5c-1.8 1.6-3 3.8-5.1 4.9-2.1 1-4.7.7-7 1.1-2.2.5-4.5 1.8-6.8 1.7-2.3-.2-4.4-1.7-6.6-2.5-2.3-.7-4.9-.7-6.8-2-2-1.3-3-3.7-4.4-5.4-1.6-1.8-3.8-3-4.9-5.1-1-2.1-.7-4.7-1.2-7-.4-2.2-1.7-4.5-1.6-6.8.2-2.3 1.7-4.4 2.5-6.6z" fill="#BDE4FF"/><path d="M53.7 32.4a27 27 0 01-6 17c1.6-1.4 3.9-2.4 5.1-4.2 1.3-2 1.3-4.5 2-6.8.8-2.2 2.3-4.3 2.5-6.6.1-2.3-1.2-4.6-1.7-6.8-.4-2.3 0-4.9-1.1-7-1-2-3.3-3.3-4.9-5-1.5-1.8-2.5-4.2-4.4-5.5-2-1.3-4.5-1.3-6.8-2-2.2-.8-4.3-2.3-6.6-2.5-2-.1-4 .9-6 1.4 15.6.7 28 13 28 28z" fill="#99DBFF"/><path d="M11.4 23.9c.6-1.7.6-3.7 1.5-5.2 1-1.4 2.8-2.2 4.2-3.4l.5-.5c1-1 2.2-2.1 3.6-2.8 1.6-.8 3.5-.5 5.3-.9 1.7-.3 3-1.4 4.8-1.3 1.7 0 3.3 1.3 5 1.8 1.7.6 3.7.6 5.2 1.6 1.4 1 2 2.6 3.2 3.9 1.1 1.3 2.9 2.3 3.6 3.9.8 1.6.6 3.5 1 5.2.3 1.7 1.3 3.4 1.2 5.2-.1 1.7-1.2 3.1-1.8 4.8-.6 1.7-.6 3.7-1.5 5.2-1 1.4-2.7 2.4-4 3.6-1.3 1.1-2.3 2.8-3.8 3.6-1.6.8-3.6.6-5.3 1-1.7.3-3.4 1.3-5.2 1.2-1.7-.1-3.3-1.3-5-2-1.7-.5-3.7-.5-5.2-1.4-1.4-1-2.2-2.9-3.4-4.2-1.1-1.3-2.9-2.3-3.6-3.8-.8-1.6-.6-3.6-1-5.3-.3-1.7-1.3-3.4-1.2-5.2.1-1.7 1.3-3.3 2-5z" fill="#F8F7F7"/><path d="M17.4 15A20.3 20.3 0 0143.3 45c1.2-1.1 3-1.9 4-3.3 1-1.5 1-3.5 1.6-5.2.6-1.7 1.8-3.3 1.9-5 0-1.8-1-3.5-1.3-5.2-.3-1.7 0-3.7-.9-5.3-.8-1.5-2.5-2.5-3.6-3.8-1.2-1.4-2-3.2-3.4-4.2-1.5-1-3.5-1-5.2-1.5-1.7-.6-3.3-1.8-5-1.9-1.8 0-3.5 1-5.2 1.3-1.7.3-3.7 0-5.3.9-1.4.7-2.4 2.2-3.5 3.4z" fill="#E8E8E8"/><path d="M17.5 26c.4-1.2.4-2.6 1-3.6.7-1 2-1.5 2.8-2.2 1-.8 1.6-1.8 2.6-2.3 1-.6 2.4-.4 3.6-.6 1.1-.3 2.1-1 3.3-.9 1.2.1 2.2 1 3.4 1.3 1.1.4 2.4.2 3.4.9 1 .6 1.5 1.9 2.3 2.7.8 1 2 1.6 2.4 2.7.6 1 .4 2.2.6 3.3.3 1.2 1 2.3.9 3.5-.1 1.2-1 2.3-1.3 3.4-.4 1.2-.3 2.6-1 3.5-.5 1-1.3 1.5-2.1 2.1a6 6 0 00-.4.3c-1 .8-1.6 2-2.6 2.5-1.1.6-2.4.4-3.6.6-1.2.3-2.3 1-3.5.9-1.2-.1-2.2-1-3.4-1.3-1.1-.4-2.5-.4-3.5-1-1-.7-1.5-2-2.2-2.8-.8-1-2-1.6-2.5-2.6-.6-1.1-.4-2.4-.6-3.6-.3-1.2-1-2.3-.9-3.5.1-1.2 1-2.2 1.3-3.4z" fill="#BDE4FF"/><path d="M21.2 20.3a14.1 14.1 0 0118.2 19.6c.8-.7 1.8-1.2 2.4-2 .6-1 .6-2.4 1-3.5.4-1.2 1.2-2.2 1.3-3.4 0-1.2-.6-2.4-.9-3.5-.2-1.2 0-2.5-.6-3.6-.5-1-1.7-1.7-2.5-2.6-.7-.9-1.2-2.1-2.3-2.8-1-.6-2.3-.6-3.4-1-1.2-.4-2.2-1.2-3.4-1.3-1.2 0-2.4.6-3.5.9-1.2.2-2.5 0-3.6.6-1 .5-1.7 1.7-2.6 2.5h-.1z" fill="#99DBFF"/><path d="M30.1 36a5.8 5.8 0 110-11.7 5.8 5.8 0 010 11.7z" fill="#F8F7F7"/></svg>