<svg width="77" height="77" viewBox="0 0 77 77" fill="none" xmlns="http://www.w3.org/2000/svg"><g clip-path="url(#clip0)"><path d="M73 29.6c0 10-.8 21.7-4 29.5-.5 1.5-1.2 3-2 4.2H9C8.2 62 7.5 60.6 7 59.1 3.9 51.3 3 39.6 3 29.6 3 18.5 5 7.4 6.3 3.8c.2-.5.6-.8 1.1-.8h61.2c.5 0 1 .3 1.1.8A98.1 98.1 0 0173 29.6z" fill="#FFE0D1"/><path d="M69 59.1c-.5 1.5-1.2 3-2 4.2H9C8.2 62 7.5 60.6 7 59.1c.5-5 1.8-10 3.8-14.7a36 36 0 01-1.6-14.1c-.9-2.2-1.3-4.5-1.3-6.8a34 34 0 013-13.3V9L10.3 3h55.6c0 2.1-.3 4.3-.8 6.4 2.2 4 3.2 8.4 3.2 13 0 2.3-.5 4.6-1.4 6.7a41.1 41.1 0 01-1.5 15.4c2 4.7 3.3 9.6 3.8 14.6z" fill="#FFD1C2"/><path d="M67 64.6c0 2.5-.4 5-1 7.5-.1.5-.6.9-1.1.9H11c-.5 0-1-.4-1.1-.9-.6-2.5-1-5-1-7.5 0-4.1.5-8.2 1.5-12.1a33 33 0 0023.9 14.3l15.7-2a33.8 33.8 0 0015.4-12.3c1 4 1.5 8 1.5 12zM63.3 3c0 2.3-.3 4.5-.8 6.7l-49.2 1v-2c-.4-1.9-.6-3.8-.6-5.7h50.6z" fill="#96B0CD"/><path d="M36.8 67h2.4v6h-2.4v-6z" fill="#96B0CD"/><path d="M65.8 22.3c0 2-.4 4.1-1.2 6l-.4-.5c-1.3-2-4-3-13-1.9-9.6 1.2-12-2.4-22.9-2.4-6-.1-12 2-16.7 5.9l-.2.2c-.8-2-1.2-4-1.2-6 0-5.7 3-20 13.3-20.5L55 3c9.7 4.8 10.9 14.4 10.9 19.3z" fill="#C9E1FC"/><path d="M65.5 52.5A33.8 33.8 0 0150 64.8l-15.7 2a33 33 0 01-23.9-14.3c.7-2.7 1.6-5.3 2.7-7.9h.1C17.7 56.8 29.1 61 38 61c9 0 20.3-4 24.8-16.3 1.1 2.6 2 5.2 2.7 7.9z" fill="#FF9F9D"/><path d="M41.6 61c3.9 0 8.5.4 8.5 2.3v4.9s-4.3-.7-8.5-1v-6.3z" fill="#B78785"/><path d="M41.6 60.7v6.2c0 .7-.5 1.3-1.2 1.3h-4.8c-.7 0-1.2-.6-1.2-1.2v-6-.3h7.2z" fill="#C69492"/><path d="M64.6 35.6C63.3 54.9 48.9 60.9 38 60.9c-10.8 0-25.3-6-26.5-25.3-.1-2 0-4.2.1-6.2 4.7-4 10.7-6 16.7-5.9 11 0 13.3 3.6 23 2.4 8.8-1 11.6-.2 13 1.9.3 2.6.4 5.2.3 7.8z" fill="#FFE0D1"/><path d="M38 56.1c-3.6.1-7.2-.8-10.3-2.6a1.2 1.2 0 111.3-2c2.8 1.5 5.9 2.3 9 2.2 3.1 0 6.2-.7 9-2.2a1.2 1.2 0 011.3 2A19.7 19.7 0 0138 56zM38 41.6a2.4 2.4 0 100-4.8 2.4 2.4 0 000 4.8z" fill="#FFD1C2"/><path d="M65.7 23.5a14 14 0 01-1.1 4.8l-.4-.5c-1.3-2-4-3-13-1.9-9.6 1.2-12-2.4-22.9-2.4-6-.1-12 2-16.7 5.9l-.2.2c-.6-1.5-1-3-1.1-4.6 3-2 10-6.1 18-6.1 11 0 13.3 3.6 23 2.4 7.1-1 12 .5 14.4 2.2z" fill="#96B0CD"/></g><defs><clipPath id="clip0"><path fill="#fff" transform="translate(3 3)" d="M0 0h70v70H0z"/></clipPath></defs></svg>