<svg width="77" height="77" viewBox="0 0 77 77" fill="none" xmlns="http://www.w3.org/2000/svg"><g clip-path="url(#clip0)"><path d="M18 47l-4.8-1.8-.3 1.9c-.8 6.8-.3 13.8 1.9 20.4l.6 2.1c.4 1.2 1.5 2 2.8 2h4.1l7.8-5L18 47zM65 47l-.2-1.8-4.8 1-9 20.1 4.7 5.3h4.1c1.3 0 2.4-.8 2.8-2l.6-2A47.5 47.5 0 0065.1 47zM64.5 16.5l-2.8-5.7c-1-1.9-1.4-3.9-1.6-6 0-.4-.4-.8-.8-.8h-3.4l-9.3 5.7.8 23 13.9 1a14.6 14.6 0 003.2-17.2zM22.1 4h-3.5c-.5 0-.9.4-.9.8 0 2.1-.6 4.1-1.5 6l-2.8 5.7a14.6 14.6 0 003.2 17.3h8.6l4-25-7-4.8z" fill="#C9E1FC"/><path d="M61.7 34l1-1.5s-.5-5.9-2.8-13.1C57.6 12 56 11.2 56 4H22c2 6.4 1.6 13.3-1 19.5l-4.4 10.2v.3l1.3 7.5 40.7.5 2.6-7.6s.4-.3.4-.5zM60.3 43.5l-14 1.3L20 42.4l-6.7 4.3.3 2c1.2 8.2 4.2 16 8.6 23h33.4c4.4-7 7.4-14.8 8.6-23l.3-2-4.3-3.2z" fill="#FFE0D1"/><path d="M40 61.9V51.4a1 1 0 10-2 0v10.5c0 3.3-.7 6.6-2 9.7h2.2l.8-2.3.8 2.3H42c-1.3-3-2-6.4-2-9.7zM24 34.3v-.1l5-11.8A30.6 30.6 0 0031 4h-8.8c-1.7 7.2-4 9.5-5.4 15.8A79.3 79.3 0 0015.4 33v1l2.6 7.5h3.6a42 42 0 012.4-7.2z" fill="#FFD1C2"/><path d="M21.1 56.2a43.3 43.3 0 011.7-19c-2.3-.7-4.4-1.8-6.1-3.4l-.2.4v.2a47.5 47.5 0 00-3.3 10.8l.5 3.6c1.2 8.1 4.2 16 8.6 22.8h6.3c-3.4-5.2-6-9.4-7.5-15.4z" fill="#FFD1C2"/><path d="M63 34l-.4-1.5a21.4 21.4 0 01-8.3 4.8 76.5 76.5 0 01-30.8 0c-1.2-.3-2.4-.7-3.5-1.2l-4.5 11.3 1 .1c4.1.5 8 2 11.5 4.4l9 6.1c1.2.8 2.7.8 3.8 0l9-6.1c3.5-2.4 7.5-3.9 11.6-4.4l3.5-.4h.2c-.6-4.4-.3-9.1-2-13.2z" fill="#FF9F9D"/><path d="M22.9 37.1c-2.4-.6-5.8-2.6-7.5-4.1l-.5 1.4c-1.7 4-1.4 8.3-2 12.7l3.5.4c1.5.2 2.9.5 4.3.9a43 43 0 012.2-11.3z" fill="#E47F7E"/><path d="M11.3 21a1 1 0 01-.7-1.7l1.5-1.3-1.2-1.5a1 1 0 011.7-1.3l1.7 2.4c.4.4.3 1-.1 1.4l-2.3 1.8a1 1 0 01-.6.3z" fill="#E5ADAB"/><path d="M12.9 19.1h-.1l-7.9-.9a1 1 0 01.2-2l8 .9a1 1 0 01-.2 2zM65.4 21a1 1 0 01-.6-.2L62.5 19a1 1 0 01-.1-1.4l1.7-2.4a1 1 0 011.7 1.3L64.6 18l1.5 1.3a1 1 0 01-.7 1.8z" fill="#E5ADAB"/><path d="M63.8 19.1a1 1 0 010-2l7.8-1a1 1 0 01.2 2.1l-7.9 1z" fill="#E5ADAB"/><path d="M39 30.5a1 1 0 01-1-1v-1.1a1 1 0 112 0v1c0 .6-.4 1-1 1z" fill="#FFD1C2"/></g><defs><clipPath id="clip0"><path fill="#fff" transform="translate(4 3)" d="M0 0h70v70H0z"/></clipPath></defs></svg>