<svg width="24" height="24" viewBox="0 0 24 24" fill="none" xmlns="http://www.w3.org/2000/svg"><path d="M12 24a12 12 0 100-24 12 12 0 000 24z" fill="#4D76A1"/><path fill-rule="evenodd" clip-rule="evenodd" d="M11.5 17.3h1s.3 0 .4-.2c.2-.2.1-.4.1-.4s0-1.3.6-1.5c.6-.2 1.3 1.2 2.1 1.8.6.4 1 .3 1 .3H19s1-.1.6-1l-1.6-1.8c-1.3-1.2-1.2-1 .4-3.1 1-1.3 1.4-2.1 1.3-2.4-.1-.4-.9-.3-.9-.3h-2.3-.3l-.2.3s-.4 1-1 1.9c-1 1.8-1.4 1.9-1.6 1.8-.4-.3-.3-1-.3-1.6 0-1.8.3-2.5-.5-2.7a4 4 0 00-1 0c-1-.1-1.6 0-2 .1-.3.1-.5.4-.4.5.2 0 .5 0 .7.3.2.3.2 1 .2 1s.2 2.1-.3 2.4c-.3.2-.8-.2-1.7-1.8L7.2 9 7 9l-.4-.2H4.4s-.4 0-.5.2c-.1.1 0 .4 0 .4s1.7 4.1 3.7 6.2c1.9 1.9 4 1.8 4 1.8z" fill="#fff"/></svg>