<svg xmlns="http://www.w3.org/2000/svg" width="20" height="20" viewBox="-2 -2.988 20 20" xml:space="preserve"><path fill="#FFF" d="M7.993 1.861a5.13 5.13 0 0 0-5.135 5.126 5.13 5.13 0 0 0 5.135 5.126 5.13 5.13 0 0 0 5.135-5.126 5.131 5.131 0 0 0-5.135-5.126zm0 8.456a3.332 3.332 0 0 1-3.336-3.33 3.333 3.333 0 0 1 3.336-3.33 3.333 3.333 0 0 1 3.336 3.33 3.331 3.331 0 0 1-3.336 3.33z"/><circle fill="#FFF" cx="13.332" cy="1.672" r="1.196"/><path fill="#FFF" d="M17.473.457a5.117 5.117 0 0 0-2.924-2.918 7.328 7.328 0 0 0-2.428-.466c-1.068-.048-1.407-.061-4.121-.061-2.713 0-3.058 0-4.121.061a7.328 7.328 0 0 0-2.428.466A5.11 5.11 0 0 0-1.472.457a7.311 7.311 0 0 0-.467 2.425C-1.987 3.949-2 4.286-2 6.995c0 2.708 0 3.053.061 4.114a7.34 7.34 0 0 0 .467 2.424 5.117 5.117 0 0 0 2.923 2.919 7.35 7.35 0 0 0 2.429.498c1.068.048 1.407.062 4.12.062 2.714 0 3.058 0 4.121-.062a7.357 7.357 0 0 0 2.428-.465 5.111 5.111 0 0 0 2.924-2.918 7.305 7.305 0 0 0 .466-2.425c.047-1.066.061-1.405.061-4.114 0-2.708 0-3.053-.062-4.113a7.275 7.275 0 0 0-.465-2.458zm-1.354 10.571a5.451 5.451 0 0 1-.346 1.869 3.309 3.309 0 0 1-1.9 1.9 5.594 5.594 0 0 1-1.854.344c-1.057.047-1.354.06-4.06.06s-2.984 0-4.06-.06a5.584 5.584 0 0 1-1.854-.344 3.31 3.31 0 0 1-1.908-1.9 5.509 5.509 0 0 1-.346-1.85C-.255 9.994-.27 9.695-.27 6.994c0-2.702 0-2.979.061-4.053A5.515 5.515 0 0 1 .137 1.07 3.3 3.3 0 0 1 2.045-.827 5.545 5.545 0 0 1 3.9-1.171c1.055-.047 1.353-.061 4.06-.061s2.984 0 4.06.061c.632.008 1.26.125 1.854.345a3.306 3.306 0 0 1 1.9 1.897 5.5 5.5 0 0 1 .346 1.851c.048 1.053.062 1.351.062 4.053s0 2.992-.047 4.054h-.016z"/></svg>