<svg xmlns="http://www.w3.org/2000/svg" width="19.685" height="16" viewBox="-1.66 -0.837 19.685 16" xml:space="preserve"><path fill="#FFF" d="M16.014 3.146c.008.174.011.348.011.523 0 5.337-4.063 11.494-11.492 11.494-2.283 0-4.402-.67-6.192-1.815a8.5 8.5 0 0 0 .963.055 8.102 8.102 0 0 0 5.015-1.731 4.037 4.037 0 0 1-3.769-2.8c.246.05.499.071.76.071.364 0 .726-.048 1.064-.143A4.043 4.043 0 0 1-.871 4.841V4.79a4.083 4.083 0 0 0 1.832.51A4.044 4.044 0 0 1-.834 1.932c0-.742.198-1.436.543-2.027A11.478 11.478 0 0 0 8.035 4.12 4.037 4.037 0 0 1 11.97-.837c1.164 0 2.21.488 2.948 1.272a7.904 7.904 0 0 0 2.563-.979 4.025 4.025 0 0 1-1.773 2.233 7.891 7.891 0 0 0 2.317-.639 8.134 8.134 0 0 1-2.011 2.096z"/></svg>