<svg xmlns="http://www.w3.org/2000/svg" width="20.994" height="14" viewBox="-2.499 0 20.994 14" xml:space="preserve"><path fill="#FFF" d="M17.681 1.201C16.92.344 15.519 0 12.85 0H3.146C.415 0-1.008.372-1.766 1.278c-.733.885-.733 2.193-.733 4v3.445c0 3.496.875 5.277 5.646 5.277h9.704c2.316 0 3.604-.31 4.433-1.064.851-.767 1.212-2.032 1.212-4.213V5.278c.002-1.909-.057-3.22-.815-4.077zm-6.7 6.273L6.574 9.658a.715.715 0 0 1-.663-.019.643.643 0 0 1-.328-.551V4.74a.64.64 0 0 1 .328-.551.703.703 0 0 1 .662-.021l4.407 2.168a.642.642 0 0 1 .365.572.628.628 0 0 1-.364.566z"/></svg>