<?xml version="1.0" standalone="no"?>
<!DOCTYPE svg PUBLIC "-//W3C//DTD SVG 1.1//EN" "http://www.w3.org/Graphics/SVG/1.1/DTD/svg11.dtd" >
<svg xmlns="http://www.w3.org/2000/svg" xmlns:xlink="http://www.w3.org/1999/xlink" version="1.1">
<metadata>
Created by FontForge 20170731 at Sat Dec  1 07:57:22 2018
 By Aleksey,,,
Copyright (c) 2014 by Aakash Soneri. All rights reserved. |DCNT
</metadata>
<defs>
<font id="AmpleSoftPro-Medium" horiz-adv-x="633" >
  <font-face 
    font-family="AmpleSoft Pro Medium"
    font-weight="500"
    font-stretch="normal"
    units-per-em="1000"
    panose-1="2 0 0 0 0 0 0 0 0 0"
    ascent="768"
    descent="-232"
    x-height="496"
    cap-height="650"
    bbox="-437.154 -316.474 1145 1002"
    underline-thickness="50"
    underline-position="-150"
    unicode-range="U+0020-FB02"
  />
<missing-glyph horiz-adv-x="212" 
 />
    <glyph glyph-name=".notdef" horiz-adv-x="212" 
 />
    <glyph glyph-name=".null" horiz-adv-x="0" 
 />
    <glyph glyph-name="nonmarkingreturn" horiz-adv-x="333" 
 />
    <glyph glyph-name="space" unicode=" " horiz-adv-x="246" 
 />
    <glyph glyph-name="exclam" unicode="!" horiz-adv-x="276" 
d="M134 650h10q27 0 36 -9t9 -36v-174q0 -135 -13 -217q-2 -16 -9 -22t-24 -6h-8q-16 0 -23 5.5t-10 22.5q-13 72 -13 217v174q0 27 9 36t36 9zM73 56q0 27 19 46t46 19t46 -19t19 -46q0 -28 -19 -47t-46 -19t-46 19t-19 47z" />
    <glyph glyph-name="quotedbl" unicode="&#x22;" horiz-adv-x="315" 
d="M190 552v133q0 23 8 30.5t30 7.5h10q22 0 30 -7.5t8 -30.5v-133q0 -22 -8 -30t-30 -8h-10q-22 0 -30 8t-8 30zM39 552v133q0 23 7.5 30.5t30.5 7.5h10q23 0 30.5 -7.5t7.5 -30.5v-133q0 -22 -7.5 -30t-30.5 -8h-10q-23 0 -30.5 8t-7.5 30z" />
    <glyph glyph-name="numbersign" unicode="#" horiz-adv-x="674" 
d="M335 37l28 113h-140l-28 -113q-5 -22 -14.5 -29.5t-32.5 -7.5h-11q-23 0 -28.5 7.5t-0.5 29.5l28 113h-59q-19 0 -26 7t-7 26v11q0 20 7 26.5t26 6.5h79l49 196h-84q-19 0 -26 6.5t-7 26.5v11q0 19 7 26t26 7h103l28 113q5 22 14.5 29.5t32.5 7.5h11q23 0 28.5 -7.5
t0.5 -29.5l-29 -113h140l29 113q5 22 14.5 29.5t32.5 7.5h10q23 0 28.5 -7.5t0.5 -29.5l-29 -113h61q19 0 26 -7t7 -26v-11q0 -20 -7 -26.5t-26 -6.5h-79l-49 -196h84q19 0 26 -6.5t7 -26.5v-11q0 -19 -7 -26t-26 -7h-104l-28 -113q-5 -22 -14.5 -29.5t-32.5 -7.5h-10
q-23 0 -28.5 7.5t-0.5 29.5zM382 227l49 196h-140l-49 -196h140z" />
    <glyph glyph-name="dollar" unicode="$" horiz-adv-x="503" 
d="M204 -47v46q-64 3 -121 21q-27 9 -34.5 18t-7.5 33v16q0 27 9 34.5t33 -0.5q75 -23 149 -23q66 0 93.5 14.5t27.5 49.5q0 26 -16.5 45t-65.5 50l-125 80q-97 63 -97 161q0 130 155 148v51q0 23 8 30.5t30 7.5h12q22 0 30 -7.5t8 -30.5v-48q46 -2 98 -19q28 -10 35 -18
t7 -32v-17q0 -27 -8 -34t-33 1q-58 20 -130 20q-55 0 -79 -13t-24 -43q0 -23 12.5 -38.5t46.5 -37.5l129 -84q64 -42 90 -79.5t26 -93.5q0 -138 -170 -158v-50q0 -23 -8 -30.5t-30 -7.5h-12q-22 0 -30 7.5t-8 30.5z" />
    <glyph glyph-name="percent" unicode="%" horiz-adv-x="828" 
d="M576 650h15q28 0 33 -8t-8 -33l-297 -568q-13 -25 -26 -33t-41 -8h-13q-28 0 -33 8t8 33l295 568q13 25 26 33t41 8zM358 495q0 -166 -158 -166t-158 166q0 165 158 165t158 -165zM254 429q16 19 16 66q0 46 -16 65q-17 20 -54 20t-54 -20q-16 -19 -16 -65q0 -47 15 -66
q16 -19 55 -19t54 19zM786 155q0 -165 -159 -165q-158 0 -158 165q0 166 158 166q159 0 159 -166zM698 155q0 46 -16 65q-17 20 -55 20t-55 -20q-15 -20 -15 -65q0 -47 15 -66q16 -19 55 -19t55 19t16 66z" />
    <glyph glyph-name="ampersand" unicode="&#x26;" horiz-adv-x="621" 
d="M567 291h-49v-96q0 -206 -229 -206q-236 0 -236 192q0 119 102 156q-86 36 -86 137q0 185 220 185q3 0 9 -0.5t17.5 -1t22.5 -0.5q26 -2 34.5 -11.5t8.5 -34.5v-16q0 -25 -8.5 -33t-32.5 -4q-23 4 -54 4q-60 0 -86.5 -22.5t-26.5 -71.5t25 -70t86 -21h128v43q0 28 9 37.5
t38 9.5h12q29 0 38 -9.5t9 -37.5v-43h49q23 0 30 -7.5t7 -29.5v-12q0 -22 -7 -29.5t-30 -7.5zM159 187q0 -54 30 -77t96 -23q67 0 97 25t30 87v92h-126q-67 0 -97 -24t-30 -80z" />
    <glyph glyph-name="quotesingle" unicode="'" horiz-adv-x="164" 
d="M39 552v133q0 23 7.5 30.5t30.5 7.5h10q23 0 30.5 -7.5t7.5 -30.5v-133q0 -22 -7.5 -30t-30.5 -8h-10q-23 0 -30.5 8t-7.5 30z" />
    <glyph glyph-name="parenleft" unicode="(" horiz-adv-x="360" 
d="M227 716q16 16 27 15.5t28 -16.5l9 -9q17 -16 18 -26t-15 -26q-147 -151 -147 -404q0 -250 149 -405q15 -15 14 -25t-18 -26l-10 -9q-17 -15 -28.5 -15t-26.5 14q-176 182 -176 466t176 466z" />
    <glyph glyph-name="parenright" unicode=")" horiz-adv-x="360" 
d="M134 -216q-15 -14 -26.5 -14t-28.5 15l-10 9q-17 16 -18 26t14 25q149 155 149 405q0 253 -147 404q-16 16 -15 26t18 26l9 9q17 16 28 16.5t27 -15.5q176 -182 176 -466t-176 -466z" />
    <glyph glyph-name="asterisk" unicode="*" horiz-adv-x="466" 
d="M278 706l-5 -110l102 39q19 8 29 3.5t15 -24.5l3 -11q6 -20 1.5 -28.5t-24.5 -14.5l-104 -31l66 -84q14 -16 12.5 -26.5t-18.5 -21.5l-9 -6q-17 -12 -26.5 -10.5t-21.5 18.5l-61 90l-60 -89q-11 -17 -20.5 -18.5t-26.5 10.5l-9 6q-17 12 -18.5 21t11.5 26l67 85l-104 30
q-21 6 -25.5 14.5t1.5 28.5l4 12q7 20 15.5 24t28.5 -3l102 -39l-5 109q-1 21 6 28t28 7h12q21 0 28 -7t6 -28z" />
    <glyph glyph-name="plus" unicode="+" horiz-adv-x="560" 
d="M509 326v-11q0 -23 -7.5 -30.5t-30.5 -7.5h-144v-140q0 -25 -8 -33t-33 -8h-12q-25 0 -33 8t-8 33v140h-144q-23 0 -30.5 7.5t-7.5 30.5v11q0 22 7.5 30t30.5 8h144v141q0 25 8 33t33 8h12q25 0 33 -8t8 -33v-141h144q23 0 30.5 -8t7.5 -30z" />
    <glyph glyph-name="comma" unicode="," horiz-adv-x="214" 
d="M57 -140l-3 1q-13 4 -13 21q0 40 3 80q10 153 70 153q21 0 33 -14.5t12 -38.5q0 -33 -28 -90q-27 -60 -51 -99q-11 -17 -23 -13z" />
    <glyph glyph-name="hyphen" unicode="-" horiz-adv-x="400" 
d="M374 326v-11q0 -23 -8 -30.5t-30 -7.5h-272q-22 0 -30 7.5t-8 30.5v11q0 22 8 30t30 8h272q22 0 30 -8t8 -30z" />
    <glyph glyph-name="period" unicode="." horiz-adv-x="222" 
d="M111 -10q-27 0 -46 19t-19 46t19 46t46 19t46 -19t19 -46t-19 -46t-46 -19z" />
    <glyph glyph-name="slash" unicode="/" horiz-adv-x="333" 
d="M288 741h14q25 0 30.5 -8t-2.5 -31l-223 -693q-8 -23 -18.5 -31t-35.5 -8h-12q-25 0 -30.5 8t1.5 31l222 693q8 23 18.5 31t35.5 8z" />
    <glyph glyph-name="zero" unicode="0" horiz-adv-x="583" 
d="M426 245v157q0 87 -30 122.5t-105 35.5q-74 0 -104.5 -36.5t-30.5 -121.5v-157q0 -85 30.5 -121.5t104.5 -36.5q75 0 105 35.5t30 122.5zM50 245v157q0 132 57 194.5t184 62.5t184.5 -62.5t57.5 -194.5v-157q0 -132 -57.5 -194.5t-184.5 -62.5t-184 62.5t-57 194.5z" />
    <glyph glyph-name="one" unicode="1" horiz-adv-x="370" 
d="M38 471l-9 9q-18 17 -18.5 29t15.5 32l48 57q52 61 116 61q57 0 83.5 -32t26.5 -101v-480q0 -28 -9 -37t-37 -9h-13q-28 0 -37 9t-9 37v445q0 49 -3 59.5t-17 10.5q-13 0 -40 -33l-41 -53q-16 -20 -27 -20.5t-29 16.5z" />
    <glyph glyph-name="two" unicode="2" horiz-adv-x="517" 
d="M468 487q0 -54 -26 -95q-25 -40 -90 -91l-169 -133q-37 -28 -37 -46q0 -13 10 -18t39 -5h228q27 0 36 -9t9 -36v-9q0 -27 -9 -36t-36 -9h-235q-77 0 -110.5 24.5t-33.5 79.5q0 81 78 141l149 117q53 41 73 66q18 24 18 55q0 41 -29 59.5t-94 18.5q-61 0 -127 -17
q-25 -7 -34 1t-9 35v17q0 25 8 33.5t35 15.5q46 13 124 13q118 0 175 -41.5t57 -130.5z" />
    <glyph glyph-name="three" unicode="3" horiz-adv-x="508" 
d="M177 328v12q0 22 7.5 30t30.5 8h7q67 0 94.5 20.5t27.5 69.5q0 52 -26 72.5t-93 20.5q-57 0 -125 -16q-25 -6 -34 2t-9 35v16q0 26 8.5 35.5t35.5 14.5q63 11 124 11q225 0 225 -185q0 -52 -20 -85t-64 -54q94 -34 94 -146q0 -200 -235 -200q-79 0 -137 15
q-26 7 -34.5 16.5t-8.5 34.5v16q0 26 9.5 34.5t33.5 1.5q67 -19 137 -19q72 0 100.5 23t28.5 78q0 52 -30.5 76.5t-101.5 24.5h-7q-23 0 -30.5 8t-7.5 30z" />
    <glyph glyph-name="four" unicode="4" horiz-adv-x="521" 
d="M83 317l96 287q9 28 21.5 37t41.5 9h15q29 0 35.5 -9t-2.5 -36l-108 -321q-9 -28 0 -40t39 -12h166v212q0 28 9 37t37 9h13q28 0 37 -9t9 -37v-398q0 -28 -9 -37t-37 -9h-13q-28 0 -37 9t-9 37v88h-172q-101 0 -132.5 43.5t0.5 139.5z" />
    <glyph glyph-name="five" unicode="5" horiz-adv-x="544" 
d="M76 409v127q0 60 27 87t87 27h222q27 0 36 -9t9 -36v-9q0 -27 -9 -36t-36 -9h-192q-39 0 -39 -38v-80q0 -39 39 -39h36q123 0 180.5 -50t57.5 -155q0 -101 -60 -150t-181 -49q-85 0 -140 15q-26 7 -34.5 16.5t-8.5 34.5v15q0 27 9.5 35t33.5 0q55 -18 138 -18
q74 0 106 23.5t32 77.5q0 62 -34 84q-32 22 -122 22h-43q-60 0 -87 27.5t-27 86.5z" />
    <glyph glyph-name="six" unicode="6" horiz-adv-x="548" 
d="M291 401q113 0 164.5 -46t51.5 -149q0 -111 -55.5 -163.5t-170.5 -52.5q-119 0 -175 62.5t-56 191.5v162q0 135 60.5 194t198.5 59q73 0 122 -16q43 -12 43 -52v-14q0 -48 -43 -35q-58 19 -125 19q-88 0 -119 -31t-31 -120v-30q58 21 135 21zM280 309q-70 0 -124 -23v-33
q0 -86 25 -126q26 -39 107 -39q64 0 89 25t25 87t-26.5 85.5t-95.5 23.5z" />
    <glyph glyph-name="seven" unicode="7" horiz-adv-x="497" 
d="M161 0h-16q-31 0 -36.5 9t8.5 37l220 430q14 31 14 46q0 29 -49 29h-223q-27 0 -36 9t-9 36v9q0 27 9 36t36 9h232q74 0 108.5 -27t34.5 -85q0 -63 -46 -151l-172 -341q-13 -28 -28 -37t-47 -9z" />
    <glyph glyph-name="eight" unicode="8" horiz-adv-x="564" 
d="M282 659q111 0 164.5 -45t53.5 -138q0 -54 -17.5 -85.5t-62.5 -54.5q51 -22 73 -57.5t22 -96.5q0 -93 -59 -143t-175 -50q-233 0 -233 193q0 61 22.5 96.5t74.5 57.5q-45 23 -63 54.5t-18 85.5q0 183 218 183zM154 189q0 -54 29.5 -78t98.5 -24t98 23.5t29 78.5
q0 52 -30.5 76.5t-96.5 24.5q-68 0 -98 -24.5t-30 -76.5zM168 468q0 -51 25.5 -72t88.5 -21q62 0 88 21t26 72t-26 72.5t-89 21.5t-88 -21.5t-25 -72.5z" />
    <glyph glyph-name="nine" unicode="9" horiz-adv-x="548" 
d="M259 249q-114 0 -166 45.5t-52 148.5q0 111 55.5 163.5t170.5 52.5q119 0 175 -62.5t56 -191.5v-163q0 -135 -60.5 -194t-198.5 -59q-71 0 -129 18q-27 8 -35 18t-8 34v14q0 27 9.5 35t33.5 0q60 -20 132 -20q88 0 119 30q31 31 31 120v31q-55 -20 -133 -20zM392 363v33
q0 85 -26 126q-25 40 -106 40q-64 0 -89 -25t-25 -88t27 -86q29 -23 98 -23q67 0 121 23z" />
    <glyph glyph-name="colon" unicode=":" horiz-adv-x="222" 
d="M111 -10q-27 0 -46 19t-19 46t19 46t46 19t46 -19t19 -46t-19 -46t-46 -19zM46 441q0 28 19 47t46 19t46 -19.5t19 -46.5q0 -26 -19 -45.5t-46 -19.5t-46 19t-19 46z" />
    <glyph glyph-name="semicolon" unicode=";" horiz-adv-x="219" 
d="M44 441q0 28 19 47t47 19q27 0 46 -19.5t19 -46.5q0 -26 -19 -45.5t-46 -19.5q-28 0 -47 19t-19 46zM67 -140l-3 1q-13 4 -13 21q0 40 3 80q10 153 70 153q21 0 33 -14.5t12 -38.5q0 -33 -28 -90q-27 -60 -51 -99q-11 -17 -23 -13z" />
    <glyph glyph-name="less" unicode="&#x3c;" horiz-adv-x="459" 
d="M412 119v-12q0 -26 -8 -31t-31 7l-277 140q-36 18 -51.5 41.5t-15.5 59.5t15.5 59t51.5 41l277 140q23 12 31 7t8 -31v-11q0 -26 -8 -39t-31 -25l-238 -117q-18 -10 -18 -24q0 -16 18 -24l238 -117q23 -12 31 -25t8 -39z" />
    <glyph glyph-name="equal" unicode="=" horiz-adv-x="540" 
d="M489 219v-10q0 -23 -7.5 -30.5t-30.5 -7.5h-362q-23 0 -30.5 7.5t-7.5 30.5v10q0 23 7.5 30.5t30.5 7.5h362q23 0 30.5 -7.5t7.5 -30.5zM489 443v-10q0 -23 -7.5 -30.5t-30.5 -7.5h-362q-23 0 -30.5 7.5t-7.5 30.5v10q0 23 7.5 30.5t30.5 7.5h362q23 0 30.5 -7.5
t7.5 -30.5z" />
    <glyph glyph-name="greater" unicode="&#x3e;" horiz-adv-x="459" 
d="M47 107v12q0 26 8 39t31 25l238 117q18 8 18 24q0 14 -18 24l-238 117q-23 12 -31 25t-8 39v11q0 26 8 31t31 -7l277 -140q36 -18 51.5 -41t15.5 -59t-15.5 -59.5t-51.5 -41.5l-277 -140q-23 -12 -31 -7t-8 31z" />
    <glyph glyph-name="question" unicode="?" horiz-adv-x="425" 
d="M62 56q0 27 19 46t46 19t46 -19t19 -46q0 -28 -19 -47t-46 -19t-46 19t-19 47zM378 469q0 -75 -33 -115q-28 -37 -94 -74q-54 -31 -70 -64q-9 -19 -17 -24t-31 -5h-11q-24 0 -33.5 7.5t-8.5 25.5q5 69 110 137q32 19 45 30q38 30 38 82q0 53 -24.5 73t-85.5 20
q-35 0 -76 -9q-25 -6 -33.5 1t-8.5 32v18q0 25 8.5 34t34.5 14q35 7 74 7q113 0 164.5 -45t51.5 -145z" />
    <glyph glyph-name="at" unicode="@" horiz-adv-x="963" 
d="M680 284v-71q0 -101 61 -101q72 0 72 104v69q0 151 -95 229q-94 78 -237 78q-158 0 -244 -79.5t-86 -228.5v-71q0 -156 88 -232q89 -77 225 -77q105 0 169 46q21 13 28 11.5t22 -20.5l7 -9q15 -18 14.5 -28t-19.5 -22q-103 -64 -231 -64q-172 0 -284 106
q-113 105 -113 289v71q0 189 115 291q115 103 309 103q175 0 297 -95q61 -46 95 -124t34 -175v-66q0 -37 -7.5 -68.5t-24.5 -60.5t-50.5 -46t-81.5 -17q-47 0 -81 24t-49 69q-33 -93 -153 -93q-89 0 -134.5 49.5t-45.5 141.5v67q0 188 201 188q95 0 147 -48.5t52 -139.5z
M377 282v-66q0 -56 23 -80t78 -24q106 0 106 104v66q0 54 -24 78.5t-80 24.5t-79.5 -24.5t-23.5 -78.5z" />
    <glyph glyph-name="A" unicode="A" 
d="M483 491l123 -447q7 -26 0.5 -35t-34.5 -9h-14q-27 0 -38.5 8.5t-19.5 35.5l-37 136h-281l-37 -136q-8 -27 -19.5 -35.5t-38.5 -8.5h-14q-28 0 -34.5 9t0.5 35l123 447q27 97 57 132q31 36 104 36t103 -36q30 -35 57 -132zM266 493l-59 -218h231l-59 218q-12 46 -22 59
t-34 13t-34.5 -13.5t-22.5 -58.5z" />
    <glyph glyph-name="B" unicode="B" horiz-adv-x="602" 
d="M187 650h132q214 0 214 -173q0 -56 -21.5 -88t-71.5 -50v-4q62 -20 87.5 -55t25.5 -96q0 -184 -234 -184h-132q-60 0 -87 27t-27 87v422q0 60 27 87t87 27zM332 287h-154v-150q0 -38 39 -38h96q75 0 104 20.5t29 71.5q0 50 -26.5 73t-87.5 23zM319 551h-102
q-39 0 -39 -38v-135h141q56 0 81.5 21.5t25.5 66.5q0 44 -25 64.5t-82 20.5z" />
    <glyph glyph-name="C" unicode="C" horiz-adv-x="529" 
d="M161 399v-160q0 -77 38.5 -114t124.5 -37q80 0 129 21q18 7 29 -1.5t11 -31.5v-15q0 -21 -8.5 -32t-32.5 -20q-55 -20 -130 -20q-137 0 -203 61t-66 189v160q0 260 269 260q75 0 126 -21q28 -12 35 -20.5t7 -31.5v-15q0 -28 -8 -34.5t-33 1.5q-60 23 -129 23
q-83 0 -121 -39t-38 -123z" />
    <glyph glyph-name="D" unicode="D" horiz-adv-x="617" 
d="M73 114v422q0 60 27 87t87 27h83q158 0 226 -56t68 -200v-138q0 -136 -69.5 -196t-224.5 -60h-83q-60 0 -87 27t-27 87zM217 99h53q110 0 147 34q39 35 39 123v138q0 88 -39 122q-41 35 -147 35h-53q-39 0 -39 -38v-376q0 -38 39 -38z" />
    <glyph glyph-name="E" unicode="E" horiz-adv-x="562" 
d="M430 286h-252v-149q0 -38 39 -38h253q27 0 36 -9t9 -36v-9q0 -27 -9 -36t-36 -9h-283q-60 0 -87 27t-27 87v422q0 60 27 87t87 27h283q27 0 36 -9t9 -36v-9q0 -27 -9 -36t-36 -9h-253q-39 0 -39 -38v-128h252q27 0 36 -9t9 -36v-9q0 -27 -9 -36t-36 -9z" />
    <glyph glyph-name="F" unicode="F" horiz-adv-x="538" 
d="M416 279h-238v-233q0 -28 -9 -37t-37 -9h-13q-28 0 -37 9t-9 37v490q0 60 27 87t87 27h269q27 0 36 -9t9 -36v-9q0 -27 -9 -36t-36 -9h-239q-39 0 -39 -38v-135h238q27 0 36 -9t9 -36v-9q0 -27 -9 -36t-36 -9z" />
    <glyph glyph-name="G" unicode="G" horiz-adv-x="589" 
d="M439 137v182q0 27 9 36t36 9h9q27 0 36 -9t9 -36v-183q0 -67 -23 -98.5t-80 -41.5q-36 -7 -85 -7q-157 0 -227 59.5t-70 194.5v160q0 124 73.5 190t218.5 66q79 0 143 -24q26 -10 32.5 -18t6.5 -33v-15q0 -27 -8 -34t-32 1q-65 25 -141 25q-101 0 -143 -37.5t-42 -127.5
v-160q0 -77 43.5 -112.5t144.5 -35.5q38 0 55 3q35 5 35 46z" />
    <glyph glyph-name="H" unicode="H" horiz-adv-x="628" 
d="M450 46v247h-272v-247q0 -28 -9 -37t-37 -9h-13q-28 0 -37 9t-9 37v558q0 28 9 37t37 9h13q28 0 37 -9t9 -37v-212h272v212q0 28 9 37t37 9h13q28 0 37 -9t9 -37v-558q0 -28 -9 -37t-37 -9h-13q-28 0 -37 9t-9 37z" />
    <glyph glyph-name="I" unicode="I" horiz-adv-x="265" 
d="M80 46v558q0 28 9 37t37 9h13q28 0 37 -9t9 -37v-558q0 -28 -9 -37t-37 -9h-13q-28 0 -37 9t-9 37z" />
    <glyph glyph-name="J" unicode="J" horiz-adv-x="265" 
d="M189 604v-448q0 -127 -35 -203q-34 -75 -97 -129q-28 -24 -54 14l-7 10q-14 22 -12.5 34t17.5 27q83 75 83 240v455q0 28 9 37t37 9h13q28 0 37 -9t9 -37z" />
    <glyph glyph-name="K" unicode="K" horiz-adv-x="585" 
d="M263 445l136 163q21 25 38.5 33.5t49.5 8.5h18q33 0 37 -8t-17 -34l-166 -202q-21 -26 -35 -45q-7 -10 -7 -22q0 -10 7 -20q13 -18 35 -46l186 -231q20 -26 16 -34t-36 -8h-18q-32 0 -49.5 8.5t-38.5 33.5l-156 193q-47 59 -47 106t47 104zM73 46v558q0 28 9 37t37 9h13
q28 0 37 -9t9 -37v-558q0 -28 -9 -37t-37 -9h-13q-28 0 -37 9t-9 37z" />
    <glyph glyph-name="L" unicode="L" horiz-adv-x="499" 
d="M73 114v490q0 28 9 37t37 9h13q28 0 37 -9t9 -37v-467q0 -38 39 -38h213q27 0 36 -9t9 -36v-9q0 -27 -9 -36t-36 -9h-243q-60 0 -87 27t-27 87z" />
    <glyph glyph-name="M" unicode="M" horiz-adv-x="822" 
d="M752 509l35 -463q2 -28 -6.5 -37t-36.5 -9h-15q-28 0 -37.5 9t-11.5 37l-32 462q-2 32 -9.5 43t-25.5 11q-16 0 -23.5 -11.5t-11.5 -42.5l-54 -402q-8 -61 -31.5 -83.5t-79.5 -22.5q-52 0 -77.5 24t-33.5 82l-55 402q-4 30 -12 42t-24 12q-30 0 -34 -54l-31 -462
q-1 -27 -11 -36.5t-38 -9.5h-15q-28 0 -36.5 9t-6.5 37l34 463q6 78 38.5 112.5t98.5 34.5q62 0 93 -34t41 -113l47 -386q3 -23 7 -29.5t15 -6.5q10 0 14 6.5t7 29.5l47 386q10 78 41.5 112.5t92.5 34.5q67 0 99 -34t38 -113z" />
    <glyph glyph-name="N" unicode="N" horiz-adv-x="660" 
d="M73 46v482q0 71 27.5 101.5t90.5 30.5q53 0 79 -23t43 -83l126 -447q5 -17 10.5 -22.5t15.5 -5.5q20 0 20 33v492q0 28 9 37t37 9h10q28 0 37 -9t9 -37v-482q0 -72 -26.5 -102t-87.5 -30q-54 0 -81.5 24t-45.5 87l-124 437q-5 20 -10.5 26.5t-16.5 6.5q-20 0 -20 -35
v-490q0 -28 -9 -37t-37 -9h-10q-28 0 -37 9t-9 37z" />
    <glyph glyph-name="O" unicode="O" horiz-adv-x="636" 
d="M477 252v143q0 88 -32 126q-31 39 -127 39t-127 -39q-32 -38 -32 -126v-143q0 -85 32 -126q31 -39 127 -39t127 39q32 41 32 126zM318 -12q-149 0 -207 67t-58 197v143q0 129 58 196q59 68 207 68t207 -68q58 -67 58 -196v-143q0 -129 -59 -197q-58 -67 -206 -67z" />
    <glyph glyph-name="P" unicode="P" horiz-adv-x="597" 
d="M187 650h155q113 0 166 -53t53 -159q0 -212 -219 -212h-164v-180q0 -28 -9 -37t-37 -9h-13q-28 0 -37 9t-9 37v490q0 60 27 87t87 27zM342 551h-125q-39 0 -39 -38v-188h164q63 0 88.5 26t25.5 87t-26 87t-88 26z" />
    <glyph glyph-name="Q" unicode="Q" horiz-adv-x="636" 
d="M583 395v-143q0 -109 -38 -170t-123 -82l98 -95q25 -24 21.5 -32t-38.5 -8h-26q-31 0 -48.5 7.5t-38.5 30.5l-78 86q-48 1 -83 11q-94 17 -135 77.5t-41 174.5v143q0 129 58 196q59 68 207 68t207 -68q58 -67 58 -196zM477 252v143q0 88 -32 126q-31 39 -127 39t-127 -39
q-32 -38 -32 -126v-143q0 -85 32 -126q31 -39 127 -39t127 39q32 41 32 126z" />
    <glyph glyph-name="R" unicode="R" horiz-adv-x="618" 
d="M561 449q0 -83 -33.5 -130t-106.5 -62l138 -213q17 -26 12 -35t-36 -9h-17q-31 0 -47 9t-33 35l-131 205h-129v-203q0 -28 -9 -37t-37 -9h-13q-28 0 -37 9t-9 37v490q0 60 27 87t87 27h158q113 0 164.5 -49.5t51.5 -151.5zM345 551h-128q-39 0 -39 -38v-165h167
q60 0 85.5 23.5t25.5 77.5q0 55 -25 78.5t-86 23.5z" />
    <glyph glyph-name="S" unicode="S" horiz-adv-x="525" 
d="M43 62v16q0 27 9 34.5t32 -0.5q76 -24 162 -24q69 0 99 16t30 54q0 30 -18 48q-17 18 -68 49l-138 83q-100 60 -100 163q0 80 54 119t167 39q76 0 139 -20q27 -8 35 -17t8 -33v-17q0 -27 -7.5 -33.5t-32.5 0.5q-63 21 -142 21q-60 0 -86.5 -14t-26.5 -48q0 -24 13 -40
t50 -38l142 -87q65 -39 92 -77.5t27 -97.5q0 -169 -239 -169q-89 0 -161 23q-25 8 -32.5 17t-7.5 33z" />
    <glyph glyph-name="T" unicode="T" horiz-adv-x="564" 
d="M28 596v9q0 27 9 36t36 9h417q27 0 36 -9t9 -36v-9q0 -27 -9 -36t-36 -9h-155v-505q0 -28 -9 -37t-37 -9h-14q-28 0 -37 9t-9 37v505h-156q-27 0 -36 9t-9 36z" />
    <glyph glyph-name="U" unicode="U" horiz-adv-x="632" 
d="M63 217v387q0 28 9 37t37 9h13q28 0 37 -9t9 -37v-387q0 -68 36 -98.5t112 -30.5t112 30.5t36 98.5v387q0 28 9 37t37 9h14q28 0 37 -9t9 -37v-387q0 -114 -65 -171t-189 -57q-253 0 -253 228z" />
    <glyph glyph-name="V" unicode="V" horiz-adv-x="617" 
d="M589 605l-111 -446q-24 -94 -56 -132q-32 -36 -107 -36q-77 0 -108 36q-31 34 -55 132l-111 446q-7 27 0 36t35 9h17q28 0 39 -9t18 -36l108 -448q11 -44 22 -58t35 -14t35 14t22 58l108 448q7 27 18 36t39 9h17q28 0 35 -9t0 -36z" />
    <glyph glyph-name="W" unicode="W" horiz-adv-x="929" 
d="M895 604l-65 -458q-12 -85 -44.5 -120t-101.5 -35q-68 0 -97 35q-28 34 -41 120l-54 373q-4 27 -8 34t-16 7q-11 0 -15.5 -8t-8.5 -33l-53 -373q-12 -85 -41 -120t-97 -35q-71 0 -103 35q-31 34 -43 120l-65 458q-4 28 3.5 37t35.5 9h14q28 0 38 -9t14 -37l64 -458
q5 -36 14 -48.5t28 -12.5q18 0 27 12.5t15 48.5l58 381q11 72 35 97.5t80 25.5t80 -25.5t35 -97.5l59 -381q6 -36 15 -48.5t27 -12.5q19 0 28 12.5t14 48.5l64 458q4 28 14 37t38 9h14q28 0 35.5 -9t3.5 -37z" />
    <glyph glyph-name="X" unicode="X" horiz-adv-x="623" 
d="M515 650h14q32 0 37.5 -9t-8.5 -38l-92 -186q-6 -15 -17 -33q-16 -30 -41 -41q32 -18 59 -73l111 -223q14 -29 8.5 -38t-37.5 -9h-14q-31 0 -45.5 9t-28.5 38l-87 186q-19 41 -29 51q-9 11 -28 11t-30 -11q-10 -12 -28 -51l-87 -186q-14 -29 -28.5 -38t-45.5 -9h-13
q-32 0 -37.5 9t8.5 38l110 223q16 32 27 46.5t31 26.5q-26 11 -57 74l-91 186q-14 29 -8 38t37 9h13q32 0 46 -9.5t27 -37.5l68 -150q17 -38 28 -49.5t30 -11.5t29.5 11.5t27.5 49.5l68 150q13 28 27 37.5t46 9.5z" />
    <glyph glyph-name="Y" unicode="Y" horiz-adv-x="632" 
d="M268 46v214q-30 10 -47 27q-13 13 -43 68l-134 249q-15 28 -9.5 37t36.5 9h14q32 0 47 -9t28 -37l94 -185q21 -42 35 -59q12 -12 32 -12q21 0 31 12q14 17 35 59l94 185q14 28 29 37t47 9h14q31 0 36.5 -9t-9.5 -37l-135 -249q-30 -54 -44 -68q-17 -17 -45 -27v-214
q0 -28 -9 -37t-37 -9h-14q-28 0 -37 9t-9 37z" />
    <glyph glyph-name="Z" unicode="Z" horiz-adv-x="555" 
d="M55 596v9q0 27 9 36t36 9h287q72 0 105 -27t33 -84q0 -40 -16 -70t-55 -63l-295 -244q-30 -24 -30 -43q0 -20 37 -20h316q27 0 36 -9t9 -36v-9q0 -27 -9 -36t-36 -9h-314q-76 0 -108 25t-32 79q0 44 15.5 74t55.5 62l298 246q25 19 25 39q0 26 -41 26h-281q-27 0 -36 9
t-9 36z" />
    <glyph glyph-name="bracketleft" unicode="[" horiz-adv-x="337" 
d="M296 -194v-11q0 -22 -7 -29t-29 -7h-78q-56 0 -80.5 24.5t-24.5 80.5v772q0 56 24.5 80.5t80.5 24.5h78q22 0 29 -7t7 -29v-11q0 -22 -7 -29t-29 -7h-56q-33 0 -33 -33v-750q0 -33 33 -33h56q22 0 29 -7t7 -29z" />
    <glyph glyph-name="backslash" unicode="\" horiz-adv-x="333" 
d="M41 741h14q24 0 34.5 -7.5t18.5 -31.5l222 -693q8 -23 2.5 -31t-30.5 -8h-12q-25 0 -35.5 8t-18.5 31l-223 693q-8 23 -2.5 31t30.5 8z" />
    <glyph glyph-name="bracketright" unicode="]" horiz-adv-x="337" 
d="M41 -205v11q0 22 7 29t29 7h56q33 0 33 33v750q0 33 -33 33h-56q-22 0 -29 7t-7 29v11q0 22 7 29t29 7h78q55 0 80 -24.5t25 -80.5v-772q0 -56 -25 -80.5t-80 -24.5h-78q-22 0 -29 7t-7 29z" />
    <glyph glyph-name="asciicircum" unicode="^" horiz-adv-x="520" 
d="M347 634l100 -234q10 -22 5 -29.5t-29 -7.5h-14q-24 0 -35 7.5t-19 29.5l-74 198q-16 38 -32 0l-74 -198q-8 -22 -19 -29.5t-35 -7.5h-13q-24 0 -29 7.5t5 29.5l99 234q16 38 34 52t48 14t48 -14t34 -52z" />
    <glyph glyph-name="underscore" unicode="_" horiz-adv-x="502" 
d="M504 -52v-9q0 -21 -7 -28t-28 -7h-436q-21 0 -28 7t-7 28v9q0 21 7 28t28 7h436q21 0 28 -7t7 -28z" />
    <glyph glyph-name="grave" unicode="`" horiz-adv-x="281" 
d="M123 782l-44 69q-13 21 -9.5 28t28.5 7h25q25 0 37 -7.5t22 -29.5l31 -65q10 -20 5.5 -27t-26.5 -7h-11q-23 0 -34.5 6.5t-23.5 25.5z" />
    <glyph glyph-name="a" unicode="a" horiz-adv-x="490" 
d="M446 343v-194q0 -83 -51 -121.5t-162 -38.5q-203 0 -203 154q0 78 50.5 114.5t153.5 36.5h110v49q0 42 -27.5 59t-90.5 17q-60 0 -105 -9q-22 -4 -29.5 2.5t-7.5 29.5v14q0 22 7.5 30.5t28.5 12.5q53 8 100 8q114 0 170 -39t56 -125zM344 154v62h-110q-52 0 -76.5 -16.5
t-24.5 -54.5q0 -37 24 -53t74 -16q61 0 87 17t26 61z" />
    <glyph glyph-name="b" unicode="b" horiz-adv-x="558" 
d="M57 203v452q0 27 9 36t36 9h12q27 0 36 -9t9 -36v-213q41 65 147 65q208 0 208 -218v-86q0 -214 -229 -214q-110 0 -169 54.5t-59 159.5zM411 205v86q0 66 -27.5 93t-97.5 27q-71 0 -99 -27t-28 -93v-86q0 -65 28 -92t99 -27t98 26.5t27 92.5z" />
    <glyph glyph-name="c" unicode="c" horiz-adv-x="422" 
d="M44 199v98q0 101 59.5 155.5t171.5 54.5q41 0 78 -10q25 -6 32.5 -15.5t7.5 -34.5v-13q0 -26 -9 -33t-33 0q-27 10 -74 10q-72 0 -101 -26t-29 -89v-94q0 -65 30.5 -90.5t106.5 -25.5q29 0 77 9q24 5 32.5 -2t8.5 -32v-12q0 -24 -8.5 -34t-33.5 -16q-39 -10 -81 -10
q-235 0 -235 210z" />
    <glyph glyph-name="d" unicode="d" horiz-adv-x="552" 
d="M501 655v-452q0 -105 -58.5 -159.5t-169.5 -54.5q-229 0 -229 214v86q0 218 209 218q105 0 146 -65v213q0 27 9 36t36 9h12q27 0 36 -9t9 -36zM147 291v-86q0 -66 27 -92.5t98 -26.5t99 27t28 92v86q0 66 -28 93t-99 27q-70 0 -97.5 -27t-27.5 -93z" />
    <glyph glyph-name="e" unicode="e" horiz-adv-x="522" 
d="M478 300q0 -4 -2 -44q-3 -28 -13 -37t-38 -9h-278v-22q0 -55 33.5 -78.5t109.5 -23.5q65 0 130 16q24 6 32.5 -1.5t8.5 -33.5v-13q0 -25 -7.5 -33.5t-33.5 -15.5q-57 -16 -130 -16q-127 0 -186.5 51.5t-59.5 162.5v87q0 217 222 217q104 0 158 -52.5t54 -154.5zM147 319
v-25h234v25q0 99 -118 99q-116 0 -116 -99z" />
    <glyph glyph-name="f" unicode="f" horiz-adv-x="392" 
d="M14 435v10q0 21 7 29t27 12l53 10v58q0 91 44.5 132t135.5 41q32 0 64 -5q26 -5 34.5 -14t8.5 -34v-12q0 -26 -9 -33q-9 -4 -20 -4l-32 2q-24 3 -39 3q-85 0 -85 -68v-66h133q26 0 34 -8t8 -34v-12q0 -26 -8 -34t-34 -8h-133v-355q0 -27 -9 -36t-36 -9h-12q-27 0 -36 9
t-9 36v355h-52q-21 0 -28 7t-7 28z" />
    <glyph glyph-name="g" unicode="g" horiz-adv-x="515" 
d="M477 330v-9q0 -180 -215 -180q-72 0 -93 -6t-21 -26q0 -17 22 -23q23 -6 92 -6q129 0 179 -32q49 -31 49 -111q0 -85 -50 -120t-178 -35q-132 0 -182 33q-49 33 -49 103q0 69 53 101q-38 23 -38 70q0 67 79 86q-81 39 -81 146v9q0 84 57.5 130.5t160.5 46.5q54 0 95 -16
l57 49q17 15 28.5 15t27.5 -16l9 -9q16 -16 16.5 -27t-15.5 -27l-41 -44q38 -38 38 -102zM374 321v9q0 45 -26.5 66.5t-85.5 21.5q-115 0 -115 -88v-9q0 -48 26.5 -69.5t88.5 -21.5q61 0 86.5 21.5t25.5 69.5zM262 -8q-66 0 -91 4q-37 -16 -37 -64q0 -38 26 -50.5t102 -12.5
q73 0 99 13t26 52q0 38 -25 48q-24 10 -100 10z" />
    <glyph glyph-name="h" unicode="h" horiz-adv-x="553" 
d="M64 45v610q0 27 9 36t36 9h13q27 0 36 -9t9 -36v-210q47 62 155 62q85 0 131 -43.5t46 -129.5v-289q0 -27 -9 -36t-36 -9h-13q-27 0 -36 9t-9 36v273q0 49 -25 71t-81 22q-63 0 -93 -30t-30 -96v-240q0 -27 -9 -36t-36 -9h-13q-27 0 -36 9t-9 36z" />
    <glyph glyph-name="i" unicode="i" horiz-adv-x="233" 
d="M65 45v406q0 27 9 36t36 9h13q27 0 36 -9t9 -36v-406q0 -27 -9 -36t-36 -9h-13q-27 0 -36 9t-9 36zM72 604q-19 19 -19 45t19 44q19 19 45 19t44 -19q19 -18 19 -44t-19 -45q-18 -18 -44 -18t-45 18z" />
    <glyph glyph-name="j" unicode="j" horiz-adv-x="228" 
d="M72 604q-18 19 -18 45t18 44q19 19 45 19t44 -19q19 -18 19 -44t-19 -45q-18 -18 -44 -18t-45 18zM168 451v-325q0 -132 -36 -205q-34 -73 -96 -123q-15 -12 -24.5 -8.5t-23.5 24.5l-8 12q-13 21 -12.5 31.5t15.5 24.5q83 74 83 237v332q0 27 9 36t36 9h12q27 0 36 -9
t9 -36z" />
    <glyph glyph-name="k" unicode="k" horiz-adv-x="521" 
d="M64 45v610q0 27 9 36t36 9h12q27 0 36 -9t9 -36v-610q0 -27 -9 -36t-36 -9h-12q-27 0 -36 9t-9 36zM240 350l92 104q22 25 40.5 33.5t52.5 8.5h17q34 0 37.5 -8t-18.5 -34l-139 -156q-20 -20 -20 -36t19 -35l160 -185q22 -26 18.5 -34t-37.5 -8h-17q-34 0 -52.5 8.5
t-40.5 33.5l-112 131q-40 46 -40 92q0 24 8 41.5t32 43.5z" />
    <glyph glyph-name="l" unicode="l" horiz-adv-x="254" 
d="M55 140v515q0 27 9 36t36 9h13q27 0 36 -9t9 -36v-495q0 -39 11 -55t36 -16t31.5 -7t6.5 -33v-10q0 -24 -8 -32.5t-33 -13.5q-3 -1 -14 -1q-63 0 -98 37.5t-35 110.5z" />
    <glyph glyph-name="m" unicode="m" horiz-adv-x="813" 
d="M157 313v-268q0 -27 -9 -36t-36 -9h-13q-27 0 -36 9t-9 36v268q0 194 203 194q110 0 150 -73q40 73 150 73q103 0 152.5 -48t49.5 -146v-268q0 -27 -9 -36t-36 -9h-13q-27 0 -36 9t-9 36v268q0 54 -21.5 76t-77.5 22q-55 0 -78 -22.5t-23 -75.5v-268q0 -27 -9 -36t-36 -9
h-10q-27 0 -36 9t-9 36v268q0 54 -21.5 76t-77.5 22t-78 -22t-22 -76z" />
    <glyph glyph-name="n" unicode="n" horiz-adv-x="543" 
d="M157 313v-268q0 -27 -9 -36t-36 -9h-13q-27 0 -36 9t-9 36v268q0 194 218 194q112 0 164.5 -47.5t52.5 -146.5v-268q0 -27 -9 -36t-36 -9h-13q-27 0 -36 9t-9 36v268q0 54 -25 76t-89 22q-65 0 -90 -22t-25 -76z" />
    <glyph glyph-name="o" unicode="o" horiz-adv-x="546" 
d="M399 205v86q0 66 -27.5 93t-97.5 27q-71 0 -99 -27t-28 -93v-86q0 -65 28 -92t99 -27t98 26.5t27 92.5zM274 -11q-118 0 -174 53t-56 163v86q0 216 230 216q117 0 172.5 -53.5t55.5 -162.5v-86q0 -106 -57.5 -161t-170.5 -55z" />
    <glyph glyph-name="p" unicode="p" horiz-adv-x="558" 
d="M57 -155v449q0 105 58.5 159t169.5 54q116 0 172.5 -52t56.5 -161v-87q0 -218 -208 -218q-106 0 -147 65v-209q0 -27 -9 -36t-36 -9h-12q-27 0 -36 9t-9 36zM411 205v86q0 66 -27 93t-98 27t-99 -27t-28 -93v-86q0 -65 28 -92t99 -27t98 26.5t27 92.5z" />
    <glyph glyph-name="q" unicode="q" horiz-adv-x="558" 
d="M501 294v-449q0 -27 -9 -36t-36 -9h-12q-27 0 -36 9t-9 36v209q-41 -65 -146 -65q-209 0 -209 218v87q0 213 229 213q111 0 169.5 -54t58.5 -159zM147 291v-86q0 -66 27 -92.5t98 -26.5t99 27t28 92v86q0 66 -28 93t-99 27t-98 -27t-27 -93z" />
    <glyph glyph-name="r" unicode="r" horiz-adv-x="324" 
d="M157 323v-278q0 -27 -9 -36t-36 -9h-13q-27 0 -36 9t-9 36v285q0 177 189 177q17 0 20 -1q25 -3 33.5 -12t8.5 -35v-14q0 -25 -8 -32t-34 -3q-3 1 -20 1q-48 0 -67 -20t-19 -68z" />
    <glyph glyph-name="s" unicode="s" horiz-adv-x="463" 
d="M40 55v13q0 26 8 33.5t32 1.5q70 -19 146 -19q51 0 72 9.5t21 33.5q0 19 -13 31t-51 29l-108 48q-54 24 -76.5 54t-22.5 82q0 70 46 103t145 33q62 0 116 -15q27 -8 34.5 -17t7.5 -33v-12q0 -26 -8.5 -33.5t-32.5 -0.5q-54 16 -119 16q-48 0 -68 -9.5t-20 -31.5
q0 -18 10 -28.5t37 -22.5l116 -50q58 -24 82.5 -56t24.5 -85q0 -72 -48.5 -106t-153.5 -34q-71 0 -137 17q-25 7 -32.5 16t-7.5 33z" />
    <glyph glyph-name="t" unicode="t" horiz-adv-x="423" 
d="M14 435v10q0 21 7 29t27 12l53 10l12 94q3 22 11 29t30 7h13q22 0 29 -7t7 -29v-94h140q25 0 33.5 -8t8.5 -34v-12q0 -26 -8.5 -34t-33.5 -8h-140v-227q0 -87 78 -87q45 0 81 9q25 5 33 -2t8 -33v-12q0 -25 -8 -35t-33 -15q-46 -8 -81 -8q-180 0 -180 184v226h-52
q-21 0 -28 7t-7 28z" />
    <glyph glyph-name="u" unicode="u" horiz-adv-x="537" 
d="M154 451v-267q0 -54 25 -76t90 -22q64 0 89 22t25 76v267q0 27 9 36t36 9h13q27 0 36 -9t9 -36v-267q0 -99 -53 -147t-164 -48q-218 0 -218 195v267q0 27 9 36t36 9h13q27 0 36 -9t9 -36z" />
    <glyph glyph-name="v" unicode="v" horiz-adv-x="534" 
d="M146 452l78 -325q7 -28 17.5 -38t32.5 -10q23 0 33 9.5t17 38.5l78 325q6 26 17 35t38 9h15q27 0 34 -9t0 -35l-80 -330q-18 -74 -47 -103t-105 -29q-77 0 -105 28q-29 29 -47 104l-80 330q-7 26 0 35t34 9h15q27 0 38 -9t17 -35z" />
    <glyph glyph-name="w" unicode="w" horiz-adv-x="827" 
d="M145 451l47 -324q4 -28 12.5 -38.5t27.5 -10.5q18 0 27 11t13 38l39 271q8 54 31.5 76t74.5 22t75 -21.5t32 -76.5l39 -271q4 -28 12.5 -38.5t27.5 -10.5q18 0 27 11t13 38l47 324q4 27 14 36t37 9h15q27 0 34.5 -9t3.5 -36l-49 -329q-12 -73 -43 -103t-99 -30
q-61 0 -89.5 30.5t-38.5 102.5l-33 244q-4 26 -8.5 34t-16.5 8q-11 0 -15.5 -8t-8.5 -34l-34 -244q-10 -73 -38 -103t-89 -30q-69 0 -100.5 30t-41.5 103l-49 329q-4 27 3.5 36t34.5 9h15q27 0 37 -9t14 -36z" />
    <glyph glyph-name="x" unicode="x" horiz-adv-x="556" 
d="M182 452l59 -105q14 -24 21.5 -31t20.5 -7t20 6.5t21 31.5l59 105q14 26 29 35t45 9h13q30 0 35 -9t-10 -34l-67 -113q-25 -41 -36 -54.5t-25 -21.5q15 -7 26 -22q12 -16 12 -17l23 -37l86 -145q16 -25 11 -34t-35 -9h-14q-30 0 -45 9t-30 35l-77 136q-14 26 -21 32.5
t-20 6.5t-20.5 -7t-21.5 -32l-77 -136q-15 -26 -30 -35t-45 -9h-14q-30 0 -35 9t11 34l87 145q30 47 35 54q11 14 25 22q-15 8 -25.5 21.5t-34.5 54.5l-67 113q-16 25 -11 34t35 9h13q30 0 45 -9t29 -35z" />
    <glyph glyph-name="y" unicode="y" horiz-adv-x="534" 
d="M147 451l79 -322q7 -29 18 -39t36 -10q19 0 30 11t17 38l75 322q6 27 17 36t39 9h13q28 0 35 -9t0 -36l-108 -451q-25 -105 -76.5 -158t-137.5 -62q-19 -2 -29.5 6t-15.5 31l-3 13q-5 20 1 28.5t27 11.5q50 7 81 38t48 91q-13 -7 -46 -7q-52 0 -77.5 27.5t-43.5 100.5
l-84 331q-7 27 0 36t35 9h13q28 0 39 -9t18 -36z" />
    <glyph glyph-name="z" unicode="z" horiz-adv-x="482" 
d="M62 443v13q0 24 8 32t32 8h230q64 0 90 -23.5t26 -79.5q0 -42 -16 -67q-14 -24 -61 -53l-222 -135q-21 -14 -21 -27q0 -18 32 -18h248q24 0 32 -8t8 -32v-13q0 -24 -8 -32t-32 -8h-259q-115 0 -115 102q0 74 76 120l220 135q24 17 24 29q0 17 -32 17h-220q-24 0 -32 8
t-8 32z" />
    <glyph glyph-name="braceleft" unicode="{" horiz-adv-x="393" 
d="M28 253v12q0 21 5.5 28.5t19.5 7.5h4q83 0 83 146v115q0 87 42.5 134.5t120.5 47.5h13q22 0 29 -7t7 -29v-11q0 -22 -7 -29t-29 -7h-4q-78 0 -78 -112v-118q0 -131 -80 -172q80 -38 80 -172v-136q0 -112 78 -112h4q22 0 29 -7t7 -29v-11q0 -22 -7 -29t-29 -7h-13
q-76 0 -119.5 48t-43.5 134v133q0 146 -83 146h-4q-14 0 -19.5 7.5t-5.5 28.5z" />
    <glyph glyph-name="bar" unicode="|" horiz-adv-x="249" 
d="M171 700v-900q0 -25 -8 -33t-33 -8h-12q-25 0 -33 8t-8 33v900q0 25 8 33t33 8h12q25 0 33 -8t8 -33z" />
    <glyph glyph-name="braceright" unicode="}" horiz-adv-x="393" 
d="M364 265v-12q0 -21 -5.5 -28.5t-19.5 -7.5h-4q-83 0 -83 -146v-133q0 -86 -43.5 -134t-119.5 -48h-13q-22 0 -29 7t-7 29v11q0 22 7 29t29 7h4q78 0 78 112v136q0 134 80 172q-80 41 -80 172v118q0 112 -78 112h-4q-22 0 -29 7t-7 29v11q0 22 7 29t29 7h13
q78 0 120.5 -47.5t42.5 -134.5v-115q0 -146 83 -146h4q14 0 19.5 -7.5t5.5 -28.5z" />
    <glyph glyph-name="asciitilde" unicode="~" horiz-adv-x="558" 
d="M86 201h-10q-22 0 -29 5.5t-5 21.5q5 67 40.5 104t95.5 37q33 0 65.5 -14t51.5 -35q49 -49 87 -49q50 0 57 63q1 18 8.5 23.5t28.5 5.5h9q20 0 27.5 -5.5t6.5 -21.5q-6 -69 -39.5 -105t-92.5 -36q-34 -3 -77 23t-78 52t-52 22q-49 0 -57 -62q-2 -18 -9 -23.5t-28 -5.5z
" />
    <glyph glyph-name="nbspace" unicode="&#xa0;" horiz-adv-x="246" 
 />
    <glyph glyph-name="exclamdown" unicode="&#xa1;" horiz-adv-x="276" 
d="M142 -160h-10q-27 0 -36 9t-9 36v174q0 135 13 217q2 16 9 22t24 6h8q16 0 23 -5.5t10 -22.5q13 -72 13 -217v-174q0 -27 -9 -36t-36 -9zM203 434q0 -27 -19 -46t-46 -19t-46 19t-19 46q0 28 19 47t46 19t46 -19t19 -47z" />
    <glyph glyph-name="cent" unicode="&#xa2;" horiz-adv-x="427" 
d="M222 17v48q-178 22 -178 208v95q0 88 45.5 142t132.5 66v48q0 21 7 28t28 7h12q21 0 28 -7t7 -28v-47l38 -6q26 -6 35.5 -17.5t9.5 -38.5v-7q0 -27 -8.5 -34t-34.5 0q-36 9 -70 9q-69 0 -98 -27t-29 -90v-90q0 -65 30 -91.5t102 -26.5q27 0 73 8q27 5 35.5 -1t8.5 -33v-6
q0 -27 -9 -38t-35 -17q-20 -4 -48 -8v-46q0 -21 -7 -28t-28 -7h-12q-21 0 -28 7t-7 28z" />
    <glyph glyph-name="sterling" unicode="&#xa3;" horiz-adv-x="515" 
d="M484 54v-9q0 -27 -9 -36t-36 -9h-224q-60 0 -87 27t-27 87v173h-52q-19 0 -25 6t-6 25v13q0 19 6 25t25 6h52v70q0 115 51.5 171t158.5 56q50 0 86 -9q27 -5 35.5 -15t8.5 -37v-7q0 -27 -9 -35t-35 -3q-40 8 -82 8q-62 0 -85 -30t-23 -110v-59h134q19 0 25 -6t6 -25v-13
q0 -19 -6 -25t-25 -6h-134v-150q0 -20 9 -29t30 -9h193q27 0 36 -9t9 -36z" />
    <glyph glyph-name="currency" unicode="&#xa4;" horiz-adv-x="663" 
d="M271 189l-110 -111q-19 -19 -31 -19t-31 19l-10 10q-19 19 -19 31t19 31l103 101q-18 30 -18 69q0 38 18 68l-103 103q-19 19 -19 31.5t19 30.5l10 9q20 18 31.5 18.5t30.5 -18.5l109 -111q27 13 62 13t61 -13l108 110q19 19 31 19t32 -19l8 -8q19 -19 19.5 -31
t-18.5 -31l-101 -101q18 -31 18 -70t-19 -70l102 -99q19 -19 18.5 -30.5t-18.5 -31.5l-10 -11q-18 -19 -30.5 -19t-31.5 19l-109 111q-59 -26 -121 0zM278 267q22 -21 54 -21t53 21q22 21 22 53t-22 53q-21 22 -53 22t-54 -22q-21 -21 -21 -53t21 -53z" />
    <glyph glyph-name="yen" unicode="&#xa5;" horiz-adv-x="620" 
d="M93 252v10q0 19 6 25t25 6h109q-27 10 -41 28q-15 21 -37 66l-103 218q-13 27 -7 36t36 9h18q30 0 44 -9t26 -37l80 -185q20 -47 32 -60q12 -12 35 -12q24 0 36 12q12 13 32 60l79 185q12 28 26 37t44 9h18q30 0 36 -9t-7 -36l-103 -218q-24 -49 -38 -66q-15 -18 -40 -28
h109q19 0 25 -6t6 -25v-10q0 -19 -6 -25t-25 -6h-138v-68h138q19 0 25 -6t6 -25v-10q0 -19 -6 -25t-25 -6h-138v-35q0 -28 -9 -37t-37 -9h-14q-28 0 -37 9t-9 37v35h-140q-19 0 -25 6t-6 25v10q0 19 6 25t25 6h140v68h-140q-19 0 -25 6t-6 25z" />
    <glyph glyph-name="brokenbar" unicode="&#xa6;" horiz-adv-x="247" 
d="M171 700v-312q0 -25 -8 -33t-33 -8h-12q-25 0 -33 8t-8 33v312q0 25 8 33t33 8h12q25 0 33 -8t8 -33zM171 133v-333q0 -25 -8 -33t-33 -8h-12q-25 0 -33 8t-8 33v333q0 25 8 33t33 8h12q25 0 33 -8t8 -33z" />
    <glyph glyph-name="section" unicode="&#xa7;" horiz-adv-x="535" 
d="M60 -151v16q0 26 9 33.5t31 0.5q69 -23 149 -23q66 0 95.5 15.5t29.5 51.5q0 25 -18 45q-15 17 -69 50l-132 81q-101 62 -101 165q0 97 78 130q-78 58 -78 143q0 155 212 155q69 0 132 -20q27 -9 34 -18t7 -33v-17q0 -27 -8 -33.5t-33 1.5q-62 20 -131 20q-57 0 -81 -13
t-24 -46q0 -24 13.5 -39.5t50.5 -37.5l136 -81q66 -39 93.5 -77.5t27.5 -96.5q0 -99 -83 -134q44 -35 63.5 -68t19.5 -78q0 -164 -236 -164q-87 0 -147 22q-25 9 -32.5 18t-7.5 32zM159 293q0 -30 14.5 -51t50.5 -44l100 -62q54 14 54 75q0 55 -89 108l-79 46
q-51 -11 -51 -72z" />
    <glyph glyph-name="dieresis" unicode="&#xa8;" horiz-adv-x="385" 
d="M103 863q24 0 40.5 -17t16.5 -40t-16.5 -39.5t-40.5 -16.5q-23 0 -39.5 16.5t-16.5 39.5t16.5 40t39.5 17zM242 766q-17 17 -17 40t17 40t40 17t39 -17q17 -17 17 -40t-17 -40q-16 -16 -39 -16t-40 16z" />
    <glyph glyph-name="copyright" unicode="&#xa9;" horiz-adv-x="841" 
d="M259 307v93q0 78 47.5 118t137.5 40q36 0 60 -6q20 -5 27.5 -14.5t7.5 -30.5v-9q0 -20 -8 -25t-28 1q-27 6 -56 6q-54 0 -77.5 -20t-23.5 -65v-88q0 -82 106 -82q21 0 60 6q21 3 28 -2.5t7 -26.5v-8q0 -20 -8 -28.5t-30 -13.5q-33 -6 -59 -6q-97 0 -144 39t-47 122z
M166 606q105 105 254 105t254 -105t105 -254t-105 -254q-107 -104 -254 -104q-148 0 -253 105t-105 253q0 147 104 254zM124 352q0 -122 87 -209t209 -87q123 0 210 87t87 209q0 123 -87 210q-87 88 -210 88q-122 0 -209 -88q-87 -87 -87 -210z" />
    <glyph glyph-name="guillemotleft" unicode="&#xab;" horiz-adv-x="519" 
d="M231 44h-12q-26 0 -39.5 6.5t-29.5 25.5l-92 112q-29 34 -29 62t29 62l92 112q16 19 29.5 25.5t39.5 6.5h12q26 0 28.5 -6t-13.5 -26l-120 -147q-14 -17 -14 -27t14 -27l120 -147q16 -20 13.5 -26t-28.5 -6zM433 44h-11q-26 0 -39.5 6.5t-29.5 25.5l-93 112
q-29 38 -29 62q0 27 29 62l93 112q16 19 29.5 25.5t39.5 6.5h11q25 0 28.5 -7t-13.5 -26l-119 -146q-25 -27 0 -54l119 -146q17 -19 13.5 -26t-28.5 -7z" />
    <glyph glyph-name="logicalnot" unicode="&#xac;" horiz-adv-x="542" 
d="M496 359v-126q0 -25 -8 -33t-33 -8h-13q-25 0 -33 8t-8 33v112q0 33 -33 33h-305q-23 0 -30.5 8t-7.5 30v10q0 22 7.5 30t30.5 8h327q56 0 81 -25t25 -80z" />
    <glyph glyph-name="registered" unicode="&#xae;" horiz-adv-x="841" 
d="M166 606q105 105 254 105t254 -105t105 -254t-105 -254q-107 -104 -254 -104q-148 0 -253 105t-105 253q0 147 104 254zM124 352q0 -122 87 -209t209 -87q123 0 210 87t87 209q0 123 -87 210q-87 88 -210 88q-122 0 -209 -88q-87 -87 -87 -210zM468 193l-50 110h-51v-110
q0 -23 -7.5 -30.5t-30.5 -7.5h-10q-23 0 -30.5 7.5t-7.5 30.5v246q0 58 26.5 84t83.5 26h48q139 0 139 -122q0 -89 -76 -116l61 -119q11 -22 6.5 -29.5t-29.5 -7.5h-12q-25 0 -37 7.5t-23 30.5zM436 473h-33q-36 0 -36 -36v-61h66q31 0 44 11t13 37q0 27 -12 38t-42 11z" />
    <glyph glyph-name="degree" unicode="&#xb0;" horiz-adv-x="401" 
d="M201 435q-67 0 -110 43q-44 44 -44 110q0 65 44 109q47 44 110 44q65 0 109 -45q44 -44 44 -108q0 -62 -44 -109q-44 -44 -109 -44zM279 588q0 35 -22 57q-22 23 -56 23t-57 -23q-21 -24 -23 -57q0 -31 23 -57q24 -25 57 -22q31 0 54.5 23t23.5 56z" />
    <glyph glyph-name="plusminus" unicode="&#xb1;" horiz-adv-x="560" 
d="M509 68v-10q0 -22 -7.5 -30t-30.5 -8h-382q-23 0 -30.5 8t-7.5 30v10q0 22 7.5 30t30.5 8h144v171h-144q-23 0 -30.5 7.5t-7.5 30.5v11q0 22 7.5 30t30.5 8h144v141q0 25 8 33t33 8h12q25 0 33 -8t8 -33v-141h144q23 0 30.5 -8t7.5 -30v-11q0 -23 -7.5 -30.5t-30.5 -7.5
h-144v-171h144q23 0 30.5 -8t7.5 -30z" />
    <glyph glyph-name="acute" unicode="&#xb4;" horiz-adv-x="281" 
d="M209 851l-44 -69q-12 -19 -23.5 -25.5t-34.5 -6.5h-11q-22 0 -26.5 7t5.5 27l31 65q10 22 22 29.5t37 7.5h25q25 0 28.5 -7t-9.5 -28z" />
    <glyph glyph-name="mu" unicode="&#xb5;" horiz-adv-x="550" 
d="M64 -155v606q0 27 9 36t36 9h12q27 0 36 -9t9 -36v-274q0 -49 27 -70t89 -21q64 0 89 22t25 76v267q0 27 9 36t36 9h13q27 0 36 -9t9 -36v-267q0 -94 -56 -145q-56 -50 -139 -50q-98 0 -138 60v-204q0 -27 -9 -36t-36 -9h-12q-27 0 -36 9t-9 36z" />
    <glyph glyph-name="paragraph" unicode="&#xb6;" horiz-adv-x="574" 
d="M24 457q0 89 57.5 141t159.5 52h148q60 0 87 -27t27 -87v-593q0 -21 -7 -28t-28 -7h-12q-21 0 -28 7t-7 28v568q0 53 -53 53h-66v-335q0 -109 -28.5 -182t-94.5 -132q-18 -14 -25.5 -12t-19.5 21l-7 11q-11 17 -9.5 26t15.5 22q87 78 87 246v34q-86 0 -141 55t-55 139z
" />
    <glyph glyph-name="middot" unicode="&#xb7;" horiz-adv-x="214" 
d="M42 321q0 27 19 46t46 19t46 -19t19 -46q0 -28 -19 -47t-46 -19t-46 19t-19 47z" />
    <glyph glyph-name="cedilla" unicode="&#xb8;" horiz-adv-x="244" 
d="M61 -54l20 79h57l-15 -64q45 2 65 -14t20 -55q0 -47 -25.5 -68t-80.5 -21q-23 0 -36 4q-13 3 -18 8.5t-5 19.5v6q-1 9 1 13.5t7.5 6t10.5 1.5t14 -1t14 -1q24 0 33 6.5t9 24.5t-9.5 24.5t-31.5 6.5h-10q-17 0 -20.5 4t0.5 20z" />
    <glyph glyph-name="guillemotright" unicode="&#xbb;" horiz-adv-x="519" 
d="M302 44h-12q-26 0 -28.5 6t13.5 26l120 147q14 17 14 27t-14 27l-120 147q-16 20 -13.5 26t28.5 6h12q26 0 39.5 -6.5t29.5 -25.5l93 -112q28 -34 28 -62t-28 -62l-93 -112q-16 -19 -29.5 -25.5t-39.5 -6.5zM100 44h-12q-26 0 -28.5 6t13.5 26l120 147q14 17 14 27
t-14 27l-120 147q-16 20 -13.5 26t28.5 6h12q26 0 39.5 -6.5t29.5 -25.5l92 -112q29 -35 29 -62q0 -24 -29 -62l-92 -112q-16 -19 -29.5 -25.5t-39.5 -6.5z" />
    <glyph glyph-name="questiondown" unicode="&#xbf;" horiz-adv-x="425" 
d="M363 441q0 -27 -19 -46t-46 -19t-46 19t-19 46q0 28 19 47t46 19t46 -19t19 -47zM47 28q0 73 32 114q33 40 95 75q54 31 70 64q9 19 17 24t31 5h11q24 0 33.5 -7.5t8.5 -25.5q-5 -69 -110 -137q-30 -19 -45 -31q-38 -28 -38 -81t24.5 -73t85.5 -20q36 0 76 9
q25 6 33.5 -1t8.5 -32v-18q0 -25 -8.5 -34t-34.5 -14q-35 -7 -74 -7q-113 0 -164.5 45t-51.5 145z" />
    <glyph glyph-name="Agrave" unicode="&#xc0;" 
d="M483 491l123 -447q7 -26 0.5 -35t-34.5 -9h-14q-27 0 -38.5 8.5t-19.5 35.5l-37 136h-281l-37 -136q-8 -27 -19.5 -35.5t-38.5 -8.5h-14q-28 0 -34.5 9t0.5 35l123 447q27 97 57 132q31 36 104 36t103 -36q30 -35 57 -132zM266 493l-59 -218h231l-59 218q-12 46 -22 59
t-34 13t-34.5 -13.5t-22.5 -58.5zM262 734l-44 69q-13 21 -9.5 28t28.5 7h25q25 0 37 -7.5t22 -29.5l31 -65q10 -20 5.5 -27t-26.5 -7h-11q-23 0 -34.5 6.5t-23.5 25.5z" />
    <glyph glyph-name="Aacute" unicode="&#xc1;" 
d="M483 491l123 -447q7 -26 0.5 -35t-34.5 -9h-14q-27 0 -38.5 8.5t-19.5 35.5l-37 136h-281l-37 -136q-8 -27 -19.5 -35.5t-38.5 -8.5h-14q-28 0 -34.5 9t0.5 35l123 447q27 97 57 132q31 36 104 36t103 -36q30 -35 57 -132zM266 493l-59 -218h231l-59 218q-12 46 -22 59
t-34 13t-34.5 -13.5t-22.5 -58.5zM423 803l-44 -69q-12 -19 -23.5 -25.5t-34.5 -6.5h-11q-22 0 -26.5 7t5.5 27l31 65q10 22 22 29.5t37 7.5h25q25 0 28.5 -7t-9.5 -28z" />
    <glyph glyph-name="Acircumflex" unicode="&#xc2;" 
d="M483 491l123 -447q7 -26 0.5 -35t-34.5 -9h-14q-27 0 -38.5 8.5t-19.5 35.5l-37 136h-281l-37 -136q-8 -27 -19.5 -35.5t-38.5 -8.5h-14q-28 0 -34.5 9t0.5 35l123 447q27 97 57 132q31 36 104 36t103 -36q30 -35 57 -132zM266 493l-59 -218h231l-59 218q-12 46 -22 59
t-34 13t-34.5 -13.5t-22.5 -58.5zM208 733l38 60q17 26 33 35t44 9t44 -9t33 -35l39 -60q11 -17 8 -23t-24 -6h-11q-21 0 -32 6t-21 24l-15 24q-21 32 -42 0l-15 -24q-10 -18 -21 -24t-32 -6h-10q-21 0 -24 6t8 23z" />
    <glyph glyph-name="Atilde" unicode="&#xc3;" 
d="M483 491l123 -447q7 -26 0.5 -35t-34.5 -9h-14q-27 0 -38.5 8.5t-19.5 35.5l-37 136h-281l-37 -136q-8 -27 -19.5 -35.5t-38.5 -8.5h-14q-28 0 -34.5 9t0.5 35l123 447q27 97 57 132q31 36 104 36t103 -36q30 -35 57 -132zM266 493l-59 -218h231l-59 218q-12 46 -22 59
t-34 13t-34.5 -13.5t-22.5 -58.5zM192 711h-8q-17 0 -22.5 4.5t-4.5 17.5q9 101 100 101q35 0 79 -29t58 -29q30 0 31 28q1 25 30 25h8q15 0 21.5 -5t5.5 -17q-8 -101 -99 -101q-37 0 -81 29t-57 29q-29 0 -32 -33q-2 -12 -7.5 -16t-21.5 -4z" />
    <glyph glyph-name="Adieresis" unicode="&#xc4;" 
d="M483 491l123 -447q7 -26 0.5 -35t-34.5 -9h-14q-27 0 -38.5 8.5t-19.5 35.5l-37 136h-281l-37 -136q-8 -27 -19.5 -35.5t-38.5 -8.5h-14q-28 0 -34.5 9t0.5 35l123 447q27 97 57 132q31 36 104 36t103 -36q30 -35 57 -132zM266 493l-59 -218h231l-59 218q-12 46 -22 59
t-34 13t-34.5 -13.5t-22.5 -58.5zM234 827q24 0 40.5 -17t16.5 -40t-16.5 -39.5t-40.5 -16.5q-23 0 -39.5 16.5t-16.5 39.5t16.5 40t39.5 17zM373 730q-17 17 -17 40t17 40t40 17t39 -17q17 -17 17 -40t-17 -40q-16 -16 -39 -16t-40 16z" />
    <glyph glyph-name="Aring" unicode="&#xc5;" 
d="M483 491l123 -447q7 -26 0.5 -35t-34.5 -9h-14q-27 0 -38.5 8.5t-19.5 35.5l-37 136h-281l-37 -136q-8 -27 -19.5 -35.5t-38.5 -8.5h-14q-28 0 -34.5 9t0.5 35l123 447q27 97 57 132q31 36 104 36t103 -36q30 -35 57 -132zM266 493l-59 -218h231l-59 218q-12 46 -22 59
t-34 13t-34.5 -13.5t-22.5 -58.5zM322 680q-40 0 -65 24.5t-25 65.5t25.5 66t64.5 25q40 0 66 -25t26 -66t-26 -65.5t-66 -24.5zM322 730q19 0 30.5 11.5t11.5 28.5q0 18 -11.5 30t-30.5 12q-18 0 -29.5 -12t-11.5 -30q0 -17 11.5 -28.5t29.5 -11.5z" />
    <glyph glyph-name="AE" unicode="&#xc6;" horiz-adv-x="890" 
d="M765 286h-253v-149q0 -38 39 -38h254q27 0 36 -9t9 -36v-9q0 -27 -9 -36t-36 -9h-284q-60 0 -87 27t-27 87v66h-223l-40 -137q-8 -26 -19 -34.5t-38 -8.5h-15q-27 0 -33.5 9t1.5 34l130 439q28 94 62 131t108 37h465q27 0 36 -9t9 -36v-9q0 -27 -9 -36t-36 -9h-254
q-39 0 -39 -38v-128h253q27 0 36 -9t9 -36v-9q0 -27 -9 -36t-36 -9zM271 481l-60 -206h196v240q0 23 5 36h-79q-26 0 -38 -14t-24 -56z" />
    <glyph glyph-name="Ccedilla" unicode="&#xc7;" horiz-adv-x="529" 
d="M161 399v-160q0 -77 38.5 -114t124.5 -37q80 0 129 21q18 7 29 -1.5t11 -31.5v-15q0 -21 -8.5 -32t-32.5 -20q-43 -18 -114 -20l-6 -28q45 2 65 -14t20 -55q0 -47 -25.5 -68t-80.5 -21q-23 0 -36 4q-13 3 -18 8.5t-5 19.5v6q-1 9 1 13.5t7.5 6t10.5 1.5t14 -1t14 -1
q24 0 33 6.5t9 24.5t-9.5 24.5t-31.5 6.5h-10q-17 0 -20.5 4t0.5 20l11 45q-115 8 -171.5 68.5t-56.5 179.5v160q0 260 269 260q75 0 126 -21q28 -12 35 -20.5t7 -31.5v-15q0 -28 -8 -34.5t-33 1.5q-60 23 -129 23q-83 0 -121 -39t-38 -123z" />
    <glyph glyph-name="Egrave" unicode="&#xc8;" horiz-adv-x="562" 
d="M430 286h-252v-149q0 -38 39 -38h253q27 0 36 -9t9 -36v-9q0 -27 -9 -36t-36 -9h-283q-60 0 -87 27t-27 87v422q0 60 27 87t87 27h283q27 0 36 -9t9 -36v-9q0 -27 -9 -36t-36 -9h-253q-39 0 -39 -38v-128h252q27 0 36 -9t9 -36v-9q0 -27 -9 -36t-36 -9zM239 734l-44 69
q-13 21 -9.5 28t28.5 7h25q25 0 37 -7.5t22 -29.5l31 -65q10 -20 5.5 -27t-26.5 -7h-11q-23 0 -34.5 6.5t-23.5 25.5z" />
    <glyph glyph-name="Eacute" unicode="&#xc9;" horiz-adv-x="562" 
d="M430 286h-252v-149q0 -38 39 -38h253q27 0 36 -9t9 -36v-9q0 -27 -9 -36t-36 -9h-283q-60 0 -87 27t-27 87v422q0 60 27 87t87 27h283q27 0 36 -9t9 -36v-9q0 -27 -9 -36t-36 -9h-253q-39 0 -39 -38v-128h252q27 0 36 -9t9 -36v-9q0 -27 -9 -36t-36 -9zM403 803l-44 -69
q-12 -19 -23.5 -25.5t-34.5 -6.5h-11q-22 0 -26.5 7t5.5 27l31 65q10 22 22 29.5t37 7.5h25q25 0 28.5 -7t-9.5 -28z" />
    <glyph glyph-name="Ecircumflex" unicode="&#xca;" horiz-adv-x="562" 
d="M430 286h-252v-149q0 -38 39 -38h253q27 0 36 -9t9 -36v-9q0 -27 -9 -36t-36 -9h-283q-60 0 -87 27t-27 87v422q0 60 27 87t87 27h283q27 0 36 -9t9 -36v-9q0 -27 -9 -36t-36 -9h-253q-39 0 -39 -38v-128h252q27 0 36 -9t9 -36v-9q0 -27 -9 -36t-36 -9zM184 733l38 60
q17 26 33 35t44 9t44 -9t33 -35l39 -60q11 -17 8 -23t-24 -6h-11q-21 0 -32 6t-21 24l-15 24q-21 32 -42 0l-15 -24q-10 -18 -21 -24t-32 -6h-10q-21 0 -24 6t8 23z" />
    <glyph glyph-name="Edieresis" unicode="&#xcb;" horiz-adv-x="562" 
d="M430 286h-252v-149q0 -38 39 -38h253q27 0 36 -9t9 -36v-9q0 -27 -9 -36t-36 -9h-283q-60 0 -87 27t-27 87v422q0 60 27 87t87 27h283q27 0 36 -9t9 -36v-9q0 -27 -9 -36t-36 -9h-253q-39 0 -39 -38v-128h252q27 0 36 -9t9 -36v-9q0 -27 -9 -36t-36 -9zM212 827
q24 0 40.5 -17t16.5 -40t-16.5 -39.5t-40.5 -16.5q-23 0 -39.5 16.5t-16.5 39.5t16.5 40t39.5 17zM351 730q-17 17 -17 40t17 40t40 17t39 -17q17 -17 17 -40t-17 -40q-16 -16 -39 -16t-40 16z" />
    <glyph glyph-name="Igrave" unicode="&#xcc;" horiz-adv-x="265" 
d="M83 46v558q0 28 9 37t37 9h13q28 0 37 -9t9 -37v-558q0 -28 -9 -37t-37 -9h-13q-28 0 -37 9t-9 37zM69 734l-44 69q-13 21 -9.5 28t28.5 7h25q25 0 37 -7.5t22 -29.5l31 -65q10 -20 5.5 -27t-26.5 -7h-11q-23 0 -34.5 6.5t-23.5 25.5z" />
    <glyph glyph-name="Iacute" unicode="&#xcd;" horiz-adv-x="265" 
d="M80 46v558q0 28 9 37t37 9h13q28 0 37 -9t9 -37v-558q0 -28 -9 -37t-37 -9h-13q-28 0 -37 9t-9 37zM242 803l-44 -69q-12 -19 -23.5 -25.5t-34.5 -6.5h-11q-22 0 -26.5 7t5.5 27l31 65q10 22 22 29.5t37 7.5h25q25 0 28.5 -7t-9.5 -28z" />
    <glyph glyph-name="Icircumflex" unicode="&#xce;" horiz-adv-x="265" 
d="M20 733l38 60q17 26 33 35t44 9t44 -9t33 -35l39 -60q11 -17 8 -23t-24 -6h-11q-21 0 -32 6t-21 24l-15 24q-21 32 -42 0l-15 -24q-10 -18 -21 -24t-32 -6h-10q-21 0 -24 6t8 23zM83 46v558q0 28 9 37t37 9h13q28 0 37 -9t9 -37v-558q0 -28 -9 -37t-37 -9h-13
q-28 0 -37 9t-9 37z" />
    <glyph glyph-name="Idieresis" unicode="&#xcf;" horiz-adv-x="265" 
d="M43 827q24 0 40.5 -17t16.5 -40t-16.5 -39.5t-40.5 -16.5q-23 0 -39.5 16.5t-16.5 39.5t16.5 40t39.5 17zM182 730q-17 17 -17 40t17 40t40 17t39 -17q17 -17 17 -40t-17 -40q-16 -16 -39 -16t-40 16zM80 46v558q0 28 9 37t37 9h13q28 0 37 -9t9 -37v-558q0 -28 -9 -37
t-37 -9h-13q-28 0 -37 9t-9 37z" />
    <glyph glyph-name="Eth" unicode="&#xd0;" horiz-adv-x="630" 
d="M92 114v173h-43q-19 0 -26 6.5t-7 26.5v10q0 20 7 26.5t26 6.5h43v173q0 60 27 87t87 27h83q158 0 226 -56t68 -200v-138q0 -136 -69.5 -196t-224.5 -60h-83q-60 0 -87 27t-27 87zM236 99h53q110 0 147 34q39 35 39 123v138q0 88 -39 122q-41 35 -147 35h-53
q-39 0 -39 -38v-150h59q20 0 26.5 -6.5t6.5 -26.5v-10q0 -20 -6.5 -26.5t-26.5 -6.5h-59v-150q0 -38 39 -38z" />
    <glyph glyph-name="Ntilde" unicode="&#xd1;" horiz-adv-x="660" 
d="M73 46v482q0 71 27.5 101.5t90.5 30.5q53 0 79 -23t43 -83l126 -447q5 -17 10.5 -22.5t15.5 -5.5q20 0 20 33v492q0 28 9 37t37 9h10q28 0 37 -9t9 -37v-482q0 -72 -26.5 -102t-87.5 -30q-54 0 -81.5 24t-45.5 87l-124 437q-5 20 -10.5 26.5t-16.5 6.5q-20 0 -20 -35
v-490q0 -28 -9 -37t-37 -9h-10q-28 0 -37 9t-9 37zM198 711h-8q-17 0 -22.5 4.5t-4.5 17.5q9 101 100 101q35 0 79 -29t58 -29q30 0 31 28q1 25 30 25h8q15 0 21.5 -5t5.5 -17q-8 -101 -99 -101q-37 0 -81 29t-57 29q-29 0 -32 -33q-2 -12 -7.5 -16t-21.5 -4z" />
    <glyph glyph-name="Ograve" unicode="&#xd2;" horiz-adv-x="636" 
d="M477 252v143q0 88 -32 126q-31 39 -127 39t-127 -39q-32 -38 -32 -126v-143q0 -85 32 -126q31 -39 127 -39t127 39q32 41 32 126zM318 -12q-149 0 -207 67t-58 197v143q0 129 58 196q59 68 207 68t207 -68q58 -67 58 -196v-143q0 -129 -59 -197q-58 -67 -206 -67z
M258 734l-44 69q-13 21 -9.5 28t28.5 7h25q25 0 37 -7.5t22 -29.5l31 -65q10 -20 5.5 -27t-26.5 -7h-11q-23 0 -34.5 6.5t-23.5 25.5z" />
    <glyph glyph-name="Oacute" unicode="&#xd3;" horiz-adv-x="636" 
d="M477 252v143q0 88 -32 126q-31 39 -127 39t-127 -39q-32 -38 -32 -126v-143q0 -85 32 -126q31 -39 127 -39t127 39q32 41 32 126zM318 -12q-149 0 -207 67t-58 197v143q0 129 58 196q59 68 207 68t207 -68q58 -67 58 -196v-143q0 -129 -59 -197q-58 -67 -206 -67z
M407 803l-44 -69q-12 -19 -23.5 -25.5t-34.5 -6.5h-11q-22 0 -26.5 7t5.5 27l31 65q10 22 22 29.5t37 7.5h25q25 0 28.5 -7t-9.5 -28z" />
    <glyph glyph-name="Ocircumflex" unicode="&#xd4;" horiz-adv-x="636" 
d="M203 733l38 60q17 26 33 35t44 9t44 -9t33 -35l39 -60q11 -17 8 -23t-24 -6h-11q-21 0 -32 6t-21 24l-15 24q-21 32 -42 0l-15 -24q-10 -18 -21 -24t-32 -6h-10q-21 0 -24 6t8 23zM477 252v143q0 88 -32 126q-31 39 -127 39t-127 -39q-32 -38 -32 -126v-143
q0 -85 32 -126q31 -39 127 -39t127 39q32 41 32 126zM318 -12q-149 0 -207 67t-58 197v143q0 129 58 196q59 68 207 68t207 -68q58 -67 58 -196v-143q0 -129 -59 -197q-58 -67 -206 -67z" />
    <glyph glyph-name="Otilde" unicode="&#xd5;" horiz-adv-x="636" 
d="M187 711h-8q-17 0 -22.5 4.5t-4.5 17.5q9 101 100 101q35 0 79 -29t58 -29q30 0 31 28q1 25 30 25h8q15 0 21.5 -5t5.5 -17q-8 -101 -99 -101q-37 0 -81 29t-57 29q-29 0 -32 -33q-2 -12 -7.5 -16t-21.5 -4zM477 252v143q0 88 -32 126q-31 39 -127 39t-127 -39
q-32 -38 -32 -126v-143q0 -85 32 -126q31 -39 127 -39t127 39q32 41 32 126zM318 -12q-149 0 -207 67t-58 197v143q0 129 58 196q59 68 207 68t207 -68q58 -67 58 -196v-143q0 -129 -59 -197q-58 -67 -206 -67z" />
    <glyph glyph-name="Odieresis" unicode="&#xd6;" horiz-adv-x="636" 
d="M477 252v143q0 88 -32 126q-31 39 -127 39t-127 -39q-32 -38 -32 -126v-143q0 -85 32 -126q31 -39 127 -39t127 39q32 41 32 126zM318 -12q-149 0 -207 67t-58 197v143q0 129 58 196q59 68 207 68t207 -68q58 -67 58 -196v-143q0 -129 -59 -197q-58 -67 -206 -67z
M229 827q24 0 40.5 -17t16.5 -40t-16.5 -39.5t-40.5 -16.5q-23 0 -39.5 16.5t-16.5 39.5t16.5 40t39.5 17zM368 730q-17 17 -17 40t17 40t40 17t39 -17q17 -17 17 -40t-17 -40q-16 -16 -39 -16t-40 16z" />
    <glyph glyph-name="multiply" unicode="&#xd7;" horiz-adv-x="550" 
d="M469 458l-132 -133l132 -133q17 -16 17 -27t-17 -27l-7 -7q-16 -17 -27 -17t-27 17l-133 132l-133 -132q-16 -17 -27 -17t-27 17l-7 7q-17 16 -17 27t17 27l132 133l-132 133q-17 16 -17 27t17 27l7 7q16 17 27 17t27 -17l133 -132l133 132q16 17 27 17t27 -17l7 -7
q17 -16 17 -27t-17 -27z" />
    <glyph glyph-name="Oslash" unicode="&#xd8;" horiz-adv-x="636" 
d="M318 -12q-82 0 -135 22l-16 -28q-11 -18 -20.5 -20.5t-27.5 7.5l-9 5q-18 11 -20.5 20t7.5 27l18 31q-62 59 -62 200v143q0 129 58 196q59 68 207 68q79 0 134 -23l17 30q11 18 20.5 20.5t27.5 -7.5l9 -5q18 -10 20.5 -19.5t-8.5 -27.5l-18 -31q63 -62 63 -201v-143
q0 -129 -59 -197q-58 -67 -206 -67zM477 252v143q0 75 -21 109l-232 -401q31 -16 94 -16q96 0 127 39q32 41 32 126zM159 395v-143q0 -72 20 -107l230 400q-33 15 -91 15q-96 0 -127 -39q-32 -38 -32 -126z" />
    <glyph glyph-name="Ugrave" unicode="&#xd9;" horiz-adv-x="632" 
d="M63 217v387q0 28 9 37t37 9h13q28 0 37 -9t9 -37v-387q0 -68 36 -98.5t112 -30.5t112 30.5t36 98.5v387q0 28 9 37t37 9h14q28 0 37 -9t9 -37v-387q0 -114 -65 -171t-189 -57q-253 0 -253 228zM249 734l-44 69q-13 21 -9.5 28t28.5 7h25q25 0 37 -7.5t22 -29.5l31 -65
q10 -20 5.5 -27t-26.5 -7h-11q-23 0 -34.5 6.5t-23.5 25.5z" />
    <glyph glyph-name="Uacute" unicode="&#xda;" horiz-adv-x="632" 
d="M63 217v387q0 28 9 37t37 9h13q28 0 37 -9t9 -37v-387q0 -68 36 -98.5t112 -30.5t112 30.5t36 98.5v387q0 28 9 37t37 9h14q28 0 37 -9t9 -37v-387q0 -114 -65 -171t-189 -57q-253 0 -253 228zM422 803l-44 -69q-12 -19 -23.5 -25.5t-34.5 -6.5h-11q-22 0 -26.5 7t5.5 27
l31 65q10 22 22 29.5t37 7.5h25q25 0 28.5 -7t-9.5 -28z" />
    <glyph glyph-name="Ucircumflex" unicode="&#xdb;" horiz-adv-x="632" 
d="M201 733l38 60q17 26 33 35t44 9t44 -9t33 -35l39 -60q11 -17 8 -23t-24 -6h-11q-21 0 -32 6t-21 24l-15 24q-21 32 -42 0l-15 -24q-10 -18 -21 -24t-32 -6h-10q-21 0 -24 6t8 23zM63 217v387q0 28 9 37t37 9h13q28 0 37 -9t9 -37v-387q0 -68 36 -98.5t112 -30.5
t112 30.5t36 98.5v387q0 28 9 37t37 9h14q28 0 37 -9t9 -37v-387q0 -114 -65 -171t-189 -57q-253 0 -253 228z" />
    <glyph glyph-name="Udieresis" unicode="&#xdc;" horiz-adv-x="632" 
d="M63 217v387q0 28 9 37t37 9h13q28 0 37 -9t9 -37v-387q0 -68 36 -98.5t112 -30.5t112 30.5t36 98.5v387q0 28 9 37t37 9h14q28 0 37 -9t9 -37v-387q0 -114 -65 -171t-189 -57q-253 0 -253 228zM227 827q24 0 40.5 -17t16.5 -40t-16.5 -39.5t-40.5 -16.5q-23 0 -39.5 16.5
t-16.5 39.5t16.5 40t39.5 17zM366 730q-17 17 -17 40t17 40t40 17t39 -17q17 -17 17 -40t-17 -40q-16 -16 -39 -16t-40 16z" />
    <glyph glyph-name="Yacute" unicode="&#xdd;" horiz-adv-x="632" 
d="M268 46v214q-30 10 -47 27q-13 13 -43 68l-134 249q-15 28 -9.5 37t36.5 9h14q32 0 47 -9t28 -37l94 -185q21 -42 35 -59q12 -12 32 -12q21 0 31 12q14 17 35 59l94 185q14 28 29 37t47 9h14q31 0 36.5 -9t-9.5 -37l-135 -249q-30 -54 -44 -68q-17 -17 -45 -27v-214
q0 -28 -9 -37t-37 -9h-14q-28 0 -37 9t-9 37zM431 803l-44 -69q-12 -19 -23.5 -25.5t-34.5 -6.5h-11q-22 0 -26.5 7t5.5 27l31 65q10 22 22 29.5t37 7.5h25q25 0 28.5 -7t-9.5 -28z" />
    <glyph glyph-name="Thorn" unicode="&#xde;" horiz-adv-x="591" 
d="M73 46v549q0 28 9 37t37 9h13q28 0 37 -9t9 -37v-58h154q114 0 168.5 -51.5t54.5 -157.5t-54.5 -157.5t-168.5 -51.5h-154v-73q0 -28 -9 -37t-37 -9h-13q-28 0 -37 9t-9 37zM332 438h-154v-220h154q65 0 91.5 24.5t26.5 85.5q0 60 -27 85t-91 25z" />
    <glyph glyph-name="germandbls" unicode="&#xdf;" horiz-adv-x="554" 
d="M506 152q0 -86 -51 -124.5t-162 -38.5q-5 0 -35 2q-25 3 -33.5 12t-8.5 35v21q0 25 8 31t33 1q15 -3 38 -3q59 0 82 13t23 46q0 27 -26 46t-57.5 30t-57.5 39t-26 71q0 30 17.5 55.5t43.5 41.5q61 37 61 73q0 59 -84 59q-59 0 -82.5 -26.5t-23.5 -90.5v-399q0 -28 -9 -37
t-37 -9h-13q-28 0 -37 9t-9 37v395q0 115 51.5 166.5t162.5 51.5q187 0 187 -159q0 -36 -18 -65t-44 -45q-62 -34 -62 -58t84 -58q37 -15 61 -48t24 -74z" />
    <glyph glyph-name="agrave" unicode="&#xe0;" horiz-adv-x="490" 
d="M446 343v-194q0 -83 -51 -121.5t-162 -38.5q-203 0 -203 154q0 78 50.5 114.5t153.5 36.5h110v49q0 42 -27.5 59t-90.5 17q-60 0 -105 -9q-22 -4 -29.5 2.5t-7.5 29.5v14q0 22 7.5 30.5t28.5 12.5q53 8 100 8q114 0 170 -39t56 -125zM344 154v62h-110q-52 0 -76.5 -16.5
t-24.5 -54.5q0 -37 24 -53t74 -16q61 0 87 17t26 61zM208 591l-44 69q-13 21 -9.5 28t28.5 7h25q25 0 37 -7.5t22 -29.5l31 -65q10 -20 5.5 -27t-26.5 -7h-11q-23 0 -34.5 6.5t-23.5 25.5z" />
    <glyph glyph-name="aacute" unicode="&#xe1;" horiz-adv-x="490" 
d="M446 343v-194q0 -83 -51 -121.5t-162 -38.5q-203 0 -203 154q0 78 50.5 114.5t153.5 36.5h110v49q0 42 -27.5 59t-90.5 17q-60 0 -105 -9q-22 -4 -29.5 2.5t-7.5 29.5v14q0 22 7.5 30.5t28.5 12.5q53 8 100 8q114 0 170 -39t56 -125zM344 154v62h-110q-52 0 -76.5 -16.5
t-24.5 -54.5q0 -37 24 -53t74 -16q61 0 87 17t26 61zM346 660l-44 -69q-12 -19 -23.5 -25.5t-34.5 -6.5h-11q-22 0 -26.5 7t5.5 27l31 65q10 22 22 29.5t37 7.5h25q25 0 28.5 -7t-9.5 -28z" />
    <glyph glyph-name="acircumflex" unicode="&#xe2;" horiz-adv-x="490" 
d="M446 343v-194q0 -83 -51 -121.5t-162 -38.5q-203 0 -203 154q0 78 50.5 114.5t153.5 36.5h110v49q0 42 -27.5 59t-90.5 17q-60 0 -105 -9q-22 -4 -29.5 2.5t-7.5 29.5v14q0 22 7.5 30.5t28.5 12.5q53 8 100 8q114 0 170 -39t56 -125zM344 154v62h-110q-52 0 -76.5 -16.5
t-24.5 -54.5q0 -37 24 -53t74 -16q61 0 87 17t26 61zM128 590l38 60q17 26 33 35t44 9t44 -9t33 -35l39 -60q11 -17 8 -23t-24 -6h-11q-21 0 -32 6t-21 24l-15 24q-21 32 -42 0l-15 -24q-10 -18 -21 -24t-32 -6h-10q-21 0 -24 6t8 23z" />
    <glyph glyph-name="atilde" unicode="&#xe3;" horiz-adv-x="490" 
d="M446 343v-194q0 -83 -51 -121.5t-162 -38.5q-203 0 -203 154q0 78 50.5 114.5t153.5 36.5h110v49q0 42 -27.5 59t-90.5 17q-60 0 -105 -9q-22 -4 -29.5 2.5t-7.5 29.5v14q0 22 7.5 30.5t28.5 12.5q53 8 100 8q114 0 170 -39t56 -125zM344 154v62h-110q-52 0 -76.5 -16.5
t-24.5 -54.5q0 -37 24 -53t74 -16q61 0 87 17t26 61zM112 568h-8q-17 0 -22.5 4.5t-4.5 17.5q9 101 100 101q35 0 79 -29t58 -29q30 0 31 28q1 25 30 25h8q15 0 21.5 -5t5.5 -17q-8 -101 -99 -101q-37 0 -81 29t-57 29q-29 0 -32 -33q-2 -12 -7.5 -16t-21.5 -4z" />
    <glyph glyph-name="adieresis" unicode="&#xe4;" horiz-adv-x="490" 
d="M446 343v-194q0 -83 -51 -121.5t-162 -38.5q-203 0 -203 154q0 78 50.5 114.5t153.5 36.5h110v49q0 42 -27.5 59t-90.5 17q-60 0 -105 -9q-22 -4 -29.5 2.5t-7.5 29.5v14q0 22 7.5 30.5t28.5 12.5q53 8 100 8q114 0 170 -39t56 -125zM344 154v62h-110q-52 0 -76.5 -16.5
t-24.5 -54.5q0 -37 24 -53t74 -16q61 0 87 17t26 61zM160 684q24 0 40.5 -17t16.5 -40t-16.5 -39.5t-40.5 -16.5q-23 0 -39.5 16.5t-16.5 39.5t16.5 40t39.5 17zM299 587q-17 17 -17 40t17 40t40 17t39 -17q17 -17 17 -40t-17 -40q-16 -16 -39 -16t-40 16z" />
    <glyph glyph-name="aring" unicode="&#xe5;" horiz-adv-x="490" 
d="M446 343v-194q0 -83 -51 -121.5t-162 -38.5q-203 0 -203 154q0 78 50.5 114.5t153.5 36.5h110v49q0 42 -27.5 59t-90.5 17q-60 0 -105 -9q-22 -4 -29.5 2.5t-7.5 29.5v14q0 22 7.5 30.5t28.5 12.5q53 8 100 8q114 0 170 -39t56 -125zM344 154v62h-110q-52 0 -76.5 -16.5
t-24.5 -54.5q0 -37 24 -53t74 -16q61 0 87 17t26 61zM241 537q-40 0 -65 24.5t-25 65.5t25.5 66t64.5 25q40 0 66 -25t26 -66t-26 -65.5t-66 -24.5zM241 587q19 0 30.5 11.5t11.5 28.5q0 18 -11.5 30t-30.5 12q-18 0 -29.5 -12t-11.5 -30q0 -17 11.5 -28.5t29.5 -11.5z" />
    <glyph glyph-name="ae" unicode="&#xe6;" horiz-adv-x="809" 
d="M774 300q0 -1 -0.5 -6t-1 -15.5t-0.5 -22.5q-2 -27 -12.5 -36.5t-37.5 -9.5h-279v-22q0 -55 33.5 -78.5t109.5 -23.5q63 0 131 16q25 5 33 -2t8 -33v-13q0 -25 -7.5 -33.5t-33.5 -15.5q-55 -16 -131 -16q-73 0 -122 20.5t-61 58.5h-4q-6 -39 -49.5 -59t-116.5 -20
q-203 0 -203 154q0 78 50.5 114.5t153.5 36.5h110v49q0 42 -27.5 59t-90.5 17q-51 0 -101 -8q-23 -4 -32 3t-9 29v14q0 22 8.5 30.5t31.5 12.5q36 7 96 7q154 0 177 -80h4q10 36 54.5 58t106.5 22q104 0 158 -52.5t54 -154.5zM344 154v62h-110q-52 0 -76.5 -16.5
t-24.5 -54.5q0 -37 24 -53t74 -16q61 0 87 17t26 61zM443 319v-25h234v25q0 99 -118 99q-116 0 -116 -99z" />
    <glyph glyph-name="ccedilla" unicode="&#xe7;" horiz-adv-x="429" 
d="M44 199v98q0 101 59.5 155.5t171.5 54.5q41 0 78 -10q25 -6 32.5 -15.5t7.5 -34.5v-13q0 -26 -9 -33t-33 0q-27 10 -74 10q-72 0 -101 -26t-29 -89v-94q0 -65 30.5 -90.5t106.5 -25.5q29 0 77 9q24 5 32.5 -2t8.5 -32v-12q0 -24 -8.5 -34t-33.5 -16q-36 -9 -76 -10
l-6 -28q45 2 65 -14t20 -55q0 -47 -25.5 -68t-80.5 -21q-23 0 -36 4q-13 3 -18 8.5t-5 19.5v6q-1 9 1 13.5t7.5 6t10.5 1.5t14 -1t14 -1q24 0 33 6.5t9 24.5t-9.5 24.5t-31.5 6.5h-10q-17 0 -20.5 4t0.5 20l12 46q-184 19 -184 207z" />
    <glyph glyph-name="egrave" unicode="&#xe8;" horiz-adv-x="513" 
d="M478 300q0 -4 -2 -44q-3 -28 -13 -37t-38 -9h-278v-22q0 -55 33.5 -78.5t109.5 -23.5q65 0 130 16q24 6 32.5 -1.5t8.5 -33.5v-13q0 -25 -7.5 -33.5t-33.5 -15.5q-57 -16 -130 -16q-127 0 -186.5 51.5t-59.5 162.5v87q0 217 222 217q104 0 158 -52.5t54 -154.5zM147 319
v-25h234v25q0 99 -118 99q-116 0 -116 -99zM207 591l-44 69q-13 21 -9.5 28t28.5 7h25q25 0 37 -7.5t22 -29.5l31 -65q10 -20 5.5 -27t-26.5 -7h-11q-23 0 -34.5 6.5t-23.5 25.5z" />
    <glyph glyph-name="eacute" unicode="&#xe9;" horiz-adv-x="513" 
d="M478 300q0 -4 -2 -44q-3 -28 -13 -37t-38 -9h-278v-22q0 -55 33.5 -78.5t109.5 -23.5q65 0 130 16q24 6 32.5 -1.5t8.5 -33.5v-13q0 -25 -7.5 -33.5t-33.5 -15.5q-57 -16 -130 -16q-127 0 -186.5 51.5t-59.5 162.5v87q0 217 222 217q104 0 158 -52.5t54 -154.5zM147 319
v-25h234v25q0 99 -118 99q-116 0 -116 -99zM347 660l-44 -69q-12 -19 -23.5 -25.5t-34.5 -6.5h-11q-22 0 -26.5 7t5.5 27l31 65q10 22 22 29.5t37 7.5h25q25 0 28.5 -7t-9.5 -28z" />
    <glyph glyph-name="ecircumflex" unicode="&#xea;" horiz-adv-x="513" 
d="M478 300q0 -4 -2 -44q-3 -28 -13 -37t-38 -9h-278v-22q0 -55 33.5 -78.5t109.5 -23.5q65 0 130 16q24 6 32.5 -1.5t8.5 -33.5v-13q0 -25 -7.5 -33.5t-33.5 -15.5q-57 -16 -130 -16q-127 0 -186.5 51.5t-59.5 162.5v87q0 217 222 217q104 0 158 -52.5t54 -154.5zM147 319
v-25h234v25q0 99 -118 99q-116 0 -116 -99zM144 590l38 60q17 26 33 35t44 9t44 -9t33 -35l39 -60q11 -17 8 -23t-24 -6h-11q-21 0 -32 6t-21 24l-15 24q-21 32 -42 0l-15 -24q-10 -18 -21 -24t-32 -6h-10q-21 0 -24 6t8 23z" />
    <glyph glyph-name="edieresis" unicode="&#xeb;" horiz-adv-x="513" 
d="M478 300q0 -4 -2 -44q-3 -28 -13 -37t-38 -9h-278v-22q0 -55 33.5 -78.5t109.5 -23.5q65 0 130 16q24 6 32.5 -1.5t8.5 -33.5v-13q0 -25 -7.5 -33.5t-33.5 -15.5q-57 -16 -130 -16q-127 0 -186.5 51.5t-59.5 162.5v87q0 217 222 217q104 0 158 -52.5t54 -154.5zM147 319
v-25h234v25q0 99 -118 99q-116 0 -116 -99zM161 684q24 0 40.5 -17t16.5 -40t-16.5 -39.5t-40.5 -16.5q-23 0 -39.5 16.5t-16.5 39.5t16.5 40t39.5 17zM300 587q-17 17 -17 40t17 40t40 17t39 -17q17 -17 17 -40t-17 -40q-16 -16 -39 -16t-40 16z" />
    <glyph glyph-name="igrave" unicode="&#xec;" horiz-adv-x="233" 
d="M64 591l-44 69q-13 21 -9.5 28t28.5 7h25q25 0 37 -7.5t22 -29.5l31 -65q10 -20 5.5 -27t-26.5 -7h-11q-23 0 -34.5 6.5t-23.5 25.5zM68 45v406q0 27 9 36t36 9h13q27 0 36 -9t9 -36v-406q0 -27 -9 -36t-36 -9h-13q-27 0 -36 9t-9 36z" />
    <glyph glyph-name="iacute" unicode="&#xed;" horiz-adv-x="233" 
d="M65 45v406q0 27 9 36t36 9h13q27 0 36 -9t9 -36v-406q0 -27 -9 -36t-36 -9h-13q-27 0 -36 9t-9 36zM213 660l-44 -69q-12 -19 -23.5 -25.5t-34.5 -6.5h-11q-22 0 -26.5 7t5.5 27l31 65q10 22 22 29.5t37 7.5h25q25 0 28.5 -7t-9.5 -28z" />
    <glyph glyph-name="icircumflex" unicode="&#xee;" horiz-adv-x="233" 
d="M4 590l38 60q17 26 33 35t44 9t44 -9t33 -35l39 -60q11 -17 8 -23t-24 -6h-11q-21 0 -32 6t-21 24l-15 24q-21 32 -42 0l-15 -24q-10 -18 -21 -24t-32 -6h-10q-21 0 -24 6t8 23zM68 45v406q0 27 9 36t36 9h13q27 0 36 -9t9 -36v-406q0 -27 -9 -36t-36 -9h-13q-27 0 -36 9
t-9 36z" />
    <glyph glyph-name="idieresis" unicode="&#xef;" horiz-adv-x="233" 
d="M27 684q24 0 40.5 -17t16.5 -40t-16.5 -39.5t-40.5 -16.5q-23 0 -39.5 16.5t-16.5 39.5t16.5 40t39.5 17zM166 587q-17 17 -17 40t17 40t40 17t39 -17q17 -17 17 -40t-17 -40q-16 -16 -39 -16t-40 16zM65 45v406q0 27 9 36t36 9h13q27 0 36 -9t9 -36v-406q0 -27 -9 -36
t-36 -9h-13q-27 0 -36 9t-9 36z" />
    <glyph glyph-name="eth" unicode="&#xf0;" horiz-adv-x="549" 
d="M181 535l66 66q-29 14 -95 27q-25 5 -31.5 15t0.5 34l4 13q7 23 15.5 28t33.5 1q84 -12 144 -46l46 46q13 12 21 12t21 -13l6 -6q13 -12 13 -20t-13 -20l-37 -37q64 -52 93 -127t29 -189q0 -179 -51 -255q-51 -75 -196 -75q-208 0 -208 211q0 105 53 154t165 49
q68 0 128 -21q-11 127 -83 182l-76 -76q-13 -13 -21 -13t-21 13l-6 6q-13 13 -13 21t13 20zM262 311q-61 0 -87.5 -25t-26.5 -87q0 -59 25 -85t79 -26q85 0 110 40q26 41 26 159q-54 24 -126 24z" />
    <glyph glyph-name="ntilde" unicode="&#xf1;" horiz-adv-x="543" 
d="M141 568h-8q-17 0 -22.5 4.5t-4.5 17.5q9 101 100 101q35 0 79 -29t58 -29q30 0 31 28q1 25 30 25h8q15 0 21.5 -5t5.5 -17q-8 -101 -99 -101q-37 0 -81 29t-57 29q-29 0 -32 -33q-2 -12 -7.5 -16t-21.5 -4zM157 313v-268q0 -27 -9 -36t-36 -9h-13q-27 0 -36 9t-9 36v268
q0 194 218 194q112 0 164.5 -47.5t52.5 -146.5v-268q0 -27 -9 -36t-36 -9h-13q-27 0 -36 9t-9 36v268q0 54 -25 76t-89 22q-65 0 -90 -22t-25 -76z" />
    <glyph glyph-name="ograve" unicode="&#xf2;" horiz-adv-x="546" 
d="M399 205v86q0 66 -27.5 93t-97.5 27q-71 0 -99 -27t-28 -93v-86q0 -65 28 -92t99 -27t98 26.5t27 92.5zM274 -11q-118 0 -174 53t-56 163v86q0 216 230 216q117 0 172.5 -53.5t55.5 -162.5v-86q0 -106 -57.5 -161t-170.5 -55zM215 591l-44 69q-13 21 -9.5 28t28.5 7h25
q25 0 37 -7.5t22 -29.5l31 -65q10 -20 5.5 -27t-26.5 -7h-11q-23 0 -34.5 6.5t-23.5 25.5z" />
    <glyph glyph-name="oacute" unicode="&#xf3;" horiz-adv-x="546" 
d="M399 205v86q0 66 -27.5 93t-97.5 27q-71 0 -99 -27t-28 -93v-86q0 -65 28 -92t99 -27t98 26.5t27 92.5zM274 -11q-118 0 -174 53t-56 163v86q0 216 230 216q117 0 172.5 -53.5t55.5 -162.5v-86q0 -106 -57.5 -161t-170.5 -55zM351 660l-44 -69q-12 -19 -23.5 -25.5
t-34.5 -6.5h-11q-22 0 -26.5 7t5.5 27l31 65q10 22 22 29.5t37 7.5h25q25 0 28.5 -7t-9.5 -28z" />
    <glyph glyph-name="ocircumflex" unicode="&#xf4;" horiz-adv-x="546" 
d="M158 590l38 60q17 26 33 35t44 9t44 -9t33 -35l39 -60q11 -17 8 -23t-24 -6h-11q-21 0 -32 6t-21 24l-15 24q-21 32 -42 0l-15 -24q-10 -18 -21 -24t-32 -6h-10q-21 0 -24 6t8 23zM399 205v86q0 66 -27.5 93t-97.5 27q-71 0 -99 -27t-28 -93v-86q0 -65 28 -92t99 -27
t98 26.5t27 92.5zM274 -11q-118 0 -174 53t-56 163v86q0 216 230 216q117 0 172.5 -53.5t55.5 -162.5v-86q0 -106 -57.5 -161t-170.5 -55z" />
    <glyph glyph-name="otilde" unicode="&#xf5;" horiz-adv-x="546" 
d="M143 568h-8q-17 0 -22.5 4.5t-4.5 17.5q9 101 100 101q35 0 79 -29t58 -29q30 0 31 28q1 25 30 25h8q15 0 21.5 -5t5.5 -17q-8 -101 -99 -101q-37 0 -81 29t-57 29q-29 0 -32 -33q-2 -12 -7.5 -16t-21.5 -4zM399 205v86q0 66 -27.5 93t-97.5 27q-71 0 -99 -27t-28 -93
v-86q0 -65 28 -92t99 -27t98 26.5t27 92.5zM274 -11q-118 0 -174 53t-56 163v86q0 216 230 216q117 0 172.5 -53.5t55.5 -162.5v-86q0 -106 -57.5 -161t-170.5 -55z" />
    <glyph glyph-name="odieresis" unicode="&#xf6;" horiz-adv-x="546" 
d="M399 205v86q0 66 -27.5 93t-97.5 27q-71 0 -99 -27t-28 -93v-86q0 -65 28 -92t99 -27t98 26.5t27 92.5zM274 -11q-118 0 -174 53t-56 163v86q0 216 230 216q117 0 172.5 -53.5t55.5 -162.5v-86q0 -106 -57.5 -161t-170.5 -55zM185 684q24 0 40.5 -17t16.5 -40
t-16.5 -39.5t-40.5 -16.5q-23 0 -39.5 16.5t-16.5 39.5t16.5 40t39.5 17zM324 587q-17 17 -17 40t17 40t40 17t39 -17q17 -17 17 -40t-17 -40q-16 -16 -39 -16t-40 16z" />
    <glyph glyph-name="divide" unicode="&#xf7;" horiz-adv-x="560" 
d="M345 140q0 -26 -19 -45.5t-46 -19.5t-46 19t-19 46t19 46.5t46 19.5t46 -19.5t19 -46.5zM345 510q0 -27 -19 -46.5t-46 -19.5t-46 19.5t-19 46.5t19 46t46 19t46 -19.5t19 -45.5zM509 330v-10q0 -22 -7.5 -30t-30.5 -8h-382q-23 0 -30.5 8t-7.5 30v10q0 22 7.5 30t30.5 8
h382q23 0 30.5 -8t7.5 -30z" />
    <glyph glyph-name="oslash" unicode="&#xf8;" horiz-adv-x="546" 
d="M274 -11q-56 0 -101 14l-11 -19q-9 -16 -17 -18t-24 7l-11 6q-15 8 -17 16t7 24l9 16q-65 53 -65 170v86q0 216 230 216q53 0 100 -14l12 20q9 16 17 18t24 -7l9 -5q16 -9 18 -17t-7 -24l-10 -16q65 -53 65 -171v-86q0 -106 -57.5 -161t-170.5 -55zM399 205v86
q0 59 -21 85l-163 -283q18 -7 59 -7q71 0 98 26.5t27 92.5zM147 291v-86q0 -57 21 -83l163 282q-22 7 -57 7q-71 0 -99 -27t-28 -93z" />
    <glyph glyph-name="ugrave" unicode="&#xf9;" horiz-adv-x="537" 
d="M154 451v-267q0 -54 25 -76t90 -22q64 0 89 22t25 76v267q0 27 9 36t36 9h13q27 0 36 -9t9 -36v-267q0 -99 -53 -147t-164 -48q-218 0 -218 195v267q0 27 9 36t36 9h13q27 0 36 -9t9 -36zM206 591l-44 69q-13 21 -9.5 28t28.5 7h25q25 0 37 -7.5t22 -29.5l31 -65
q10 -20 5.5 -27t-26.5 -7h-11q-23 0 -34.5 6.5t-23.5 25.5z" />
    <glyph glyph-name="uacute" unicode="&#xfa;" horiz-adv-x="537" 
d="M154 451v-267q0 -54 25 -76t90 -22q64 0 89 22t25 76v267q0 27 9 36t36 9h13q27 0 36 -9t9 -36v-267q0 -99 -53 -147t-164 -48q-218 0 -218 195v267q0 27 9 36t36 9h13q27 0 36 -9t9 -36zM373 660l-44 -69q-12 -19 -23.5 -25.5t-34.5 -6.5h-11q-22 0 -26.5 7t5.5 27
l31 65q10 22 22 29.5t37 7.5h25q25 0 28.5 -7t-9.5 -28z" />
    <glyph glyph-name="ucircumflex" unicode="&#xfb;" horiz-adv-x="537" 
d="M154 590l38 60q17 26 33 35t44 9t44 -9t33 -35l39 -60q11 -17 8 -23t-24 -6h-11q-21 0 -32 6t-21 24l-15 24q-21 32 -42 0l-15 -24q-10 -18 -21 -24t-32 -6h-10q-21 0 -24 6t8 23zM154 451v-267q0 -54 25 -76t90 -22q64 0 89 22t25 76v267q0 27 9 36t36 9h13q27 0 36 -9
t9 -36v-267q0 -99 -53 -147t-164 -48q-218 0 -218 195v267q0 27 9 36t36 9h13q27 0 36 -9t9 -36z" />
    <glyph glyph-name="udieresis" unicode="&#xfc;" horiz-adv-x="537" 
d="M154 451v-267q0 -54 25 -76t90 -22q64 0 89 22t25 76v267q0 27 9 36t36 9h13q27 0 36 -9t9 -36v-267q0 -99 -53 -147t-164 -48q-218 0 -218 195v267q0 27 9 36t36 9h13q27 0 36 -9t9 -36zM180 684q24 0 40.5 -17t16.5 -40t-16.5 -39.5t-40.5 -16.5q-23 0 -39.5 16.5
t-16.5 39.5t16.5 40t39.5 17zM319 587q-17 17 -17 40t17 40t40 17t39 -17q17 -17 17 -40t-17 -40q-16 -16 -39 -16t-40 16z" />
    <glyph glyph-name="yacute" unicode="&#xfd;" horiz-adv-x="534" 
d="M147 451l79 -322q7 -29 18 -39t36 -10q19 0 30 11t17 38l75 322q6 27 17 36t39 9h13q28 0 35 -9t0 -36l-108 -451q-25 -105 -76.5 -158t-137.5 -62q-19 -2 -29.5 6t-15.5 31l-3 13q-5 20 1 28.5t27 11.5q50 7 81 38t48 91q-13 -7 -46 -7q-52 0 -77.5 27.5t-43.5 100.5
l-84 331q-7 27 0 36t35 9h13q28 0 39 -9t18 -36zM378 660l-44 -69q-12 -19 -23.5 -25.5t-34.5 -6.5h-11q-22 0 -26.5 7t5.5 27l31 65q10 22 22 29.5t37 7.5h25q25 0 28.5 -7t-9.5 -28z" />
    <glyph glyph-name="thorn" unicode="&#xfe;" horiz-adv-x="558" 
d="M514 289v-82q0 -218 -208 -218q-106 0 -147 65v-209q0 -27 -9 -36t-36 -9h-12q-27 0 -36 9t-9 36v801q0 27 9 36t36 9h12q27 0 36 -9t9 -36v-204q42 65 147 65q208 0 208 -218zM411 205v86q0 66 -27.5 93t-97.5 27t-98.5 -27t-28.5 -90v-89q0 -65 28 -92t99 -27t98 26.5
t27 92.5z" />
    <glyph glyph-name="ydieresis" unicode="&#xff;" horiz-adv-x="534" 
d="M147 451l79 -322q7 -29 18 -39t36 -10q19 0 30 11t17 38l75 322q6 27 17 36t39 9h13q28 0 35 -9t0 -36l-108 -451q-25 -105 -76.5 -158t-137.5 -62q-19 -2 -29.5 6t-15.5 31l-3 13q-5 20 1 28.5t27 11.5q50 7 81 38t48 91q-13 -7 -46 -7q-52 0 -77.5 27.5t-43.5 100.5
l-84 331q-7 27 0 36t35 9h13q28 0 39 -9t18 -36zM185 684q24 0 40.5 -17t16.5 -40t-16.5 -39.5t-40.5 -16.5q-23 0 -39.5 16.5t-16.5 39.5t16.5 40t39.5 17zM324 587q-17 17 -17 40t17 40t40 17t39 -17q17 -17 17 -40t-17 -40q-16 -16 -39 -16t-40 16z" />
    <glyph glyph-name="Amacron" unicode="&#x100;" 
d="M493 744v-11q0 -23 -8 -30.5t-30 -7.5h-272q-22 0 -30 7.5t-8 30.5v11q0 22 8 30t30 8h272q22 0 30 -8t8 -30zM483 491l123 -447q7 -26 0.5 -35t-34.5 -9h-14q-27 0 -38.5 8.5t-19.5 35.5l-37 136h-281l-37 -136q-8 -27 -19.5 -35.5t-38.5 -8.5h-14q-28 0 -34.5 9t0.5 35
l123 447q27 97 57 132q31 36 104 36t103 -36q30 -35 57 -132zM266 493l-59 -218h231l-59 218q-12 46 -22 59t-34 13t-34.5 -13.5t-22.5 -58.5z" />
    <glyph glyph-name="amacron" unicode="&#x101;" horiz-adv-x="490" 
d="M423 624v-11q0 -23 -8 -30.5t-30 -7.5h-272q-22 0 -30 7.5t-8 30.5v11q0 22 8 30t30 8h272q22 0 30 -8t8 -30zM446 343v-194q0 -83 -51 -121.5t-162 -38.5q-203 0 -203 154q0 78 50.5 114.5t153.5 36.5h110v49q0 42 -27.5 59t-90.5 17q-60 0 -105 -9q-22 -4 -29.5 2.5
t-7.5 29.5v14q0 22 7.5 30.5t28.5 12.5q53 8 100 8q114 0 170 -39t56 -125zM344 154v62h-110q-52 0 -76.5 -16.5t-24.5 -54.5q0 -37 24 -53t74 -16q61 0 87 17t26 61z" />
    <glyph glyph-name="Abreve" unicode="&#x102;" 
d="M483 491l123 -447q7 -26 0.5 -35t-34.5 -9h-14q-27 0 -38.5 8.5t-19.5 35.5l-37 136h-281l-37 -136q-8 -27 -19.5 -35.5t-38.5 -8.5h-14q-28 0 -34.5 9t0.5 35l123 447q27 97 57 132q31 36 104 36t103 -36q30 -35 57 -132zM266 493l-59 -218h231l-59 218q-12 46 -22 59
t-34 13t-34.5 -13.5t-22.5 -58.5zM191 809v4q0 13 6 17.5t25 4.5h11q19 0 25 -4.5t6 -17.5v-4q0 -22 14.5 -31.5t47.5 -9.5t47.5 9.5t14.5 31.5v4q0 13 6 17.5t25 4.5h11q19 0 25 -4.5t6 -17.5v-4q0 -105 -135 -105t-135 105z" />
    <glyph glyph-name="abreve" unicode="&#x103;" horiz-adv-x="490" 
d="M446 343v-194q0 -83 -51 -121.5t-162 -38.5q-203 0 -203 154q0 78 50.5 114.5t153.5 36.5h110v49q0 42 -27.5 59t-90.5 17q-60 0 -105 -9q-22 -4 -29.5 2.5t-7.5 29.5v14q0 22 7.5 30.5t28.5 12.5q53 8 100 8q114 0 170 -39t56 -125zM344 154v62h-110q-52 0 -76.5 -16.5
t-24.5 -54.5q0 -37 24 -53t74 -16q61 0 87 17t26 61zM110 665v4q0 13 6 17.5t25 4.5h11q19 0 25 -4.5t6 -17.5v-4q0 -22 14.5 -31.5t47.5 -9.5t47.5 9.5t14.5 31.5v4q0 13 6 17.5t25 4.5h11q19 0 25 -4.5t6 -17.5v-4q0 -105 -135 -105t-135 105z" />
    <glyph glyph-name="Aogonek" unicode="&#x104;" 
d="M483 491l123 -447q9 -30 -3 -39q-47 -34 -58 -53q-11 -20 -11 -48q0 -20 8 -27.5t27 -7.5q12 0 15 1q17 2 22.5 -3t5.5 -21v-10q0 -16 -5.5 -22.5t-22.5 -9.5q-18 -3 -34 -3q-52 0 -75 20.5t-23 68.5q0 40 17 65t57 49q-17 6 -26 40l-37 136h-281l-37 -136
q-8 -27 -19.5 -35.5t-38.5 -8.5h-14q-28 0 -34.5 9t0.5 35l123 447q27 97 57 132q31 36 104 36t103 -36q30 -35 57 -132zM266 493l-59 -218h231l-59 218q-12 46 -22 59t-34 13t-34.5 -13.5t-22.5 -58.5z" />
    <glyph glyph-name="aogonek" unicode="&#x105;" horiz-adv-x="490" 
d="M446 343v-194q0 -109 -95 -144q-38 -13 -66 -44q-29 -32 -29 -57q0 -20 8 -27.5t27 -7.5q12 0 15 1q17 2 22.5 -3t5.5 -21v-10q0 -16 -5.5 -22.5t-22.5 -9.5q-18 -3 -34 -3q-52 0 -75 20.5t-23 68.5q0 34 16.5 56t55.5 43h-13q-203 0 -203 154q0 78 50.5 114.5
t153.5 36.5h110v49q0 42 -27.5 59t-90.5 17q-60 0 -105 -9q-22 -4 -29.5 2.5t-7.5 29.5v14q0 22 7.5 30.5t28.5 12.5q53 8 100 8q114 0 170 -39t56 -125zM344 154v62h-110q-52 0 -76.5 -16.5t-24.5 -54.5q0 -37 24 -53t74 -16q61 0 87 17t26 61z" />
    <glyph glyph-name="Cacute" unicode="&#x106;" horiz-adv-x="529" 
d="M161 399v-160q0 -77 38.5 -114t124.5 -37q80 0 129 21q18 7 29 -1.5t11 -31.5v-15q0 -21 -8.5 -32t-32.5 -20q-55 -20 -130 -20q-137 0 -203 61t-66 189v160q0 260 269 260q75 0 126 -21q28 -12 35 -20.5t7 -31.5v-15q0 -28 -8 -34.5t-33 1.5q-60 23 -129 23
q-83 0 -121 -39t-38 -123zM380 803l-44 -69q-12 -19 -23.5 -25.5t-34.5 -6.5h-11q-22 0 -26.5 7t5.5 27l31 65q10 22 22 29.5t37 7.5h25q25 0 28.5 -7t-9.5 -28z" />
    <glyph glyph-name="cacute" unicode="&#x107;" horiz-adv-x="429" 
d="M44 199v98q0 101 59.5 155.5t171.5 54.5q41 0 78 -10q25 -6 32.5 -15.5t7.5 -34.5v-13q0 -26 -9 -33t-33 0q-27 10 -74 10q-72 0 -101 -26t-29 -89v-94q0 -65 30.5 -90.5t106.5 -25.5q29 0 77 9q24 5 32.5 -2t8.5 -32v-12q0 -24 -8.5 -34t-33.5 -16q-39 -10 -81 -10
q-235 0 -235 210zM344 660l-44 -69q-12 -19 -23.5 -25.5t-34.5 -6.5h-11q-22 0 -26.5 7t5.5 27l31 65q10 22 22 29.5t37 7.5h25q25 0 28.5 -7t-9.5 -28z" />
    <glyph glyph-name="Ccaron" unicode="&#x10c;" horiz-adv-x="529" 
d="M161 399v-160q0 -77 38.5 -114t124.5 -37q80 0 129 21q18 7 29 -1.5t11 -31.5v-15q0 -21 -8.5 -32t-32.5 -20q-55 -20 -130 -20q-137 0 -203 61t-66 189v160q0 260 269 260q75 0 126 -21q28 -12 35 -20.5t7 -31.5v-15q0 -28 -8 -34.5t-33 1.5q-60 23 -129 23
q-83 0 -121 -39t-38 -123zM220 748l-38 60q-11 17 -8 23t24 6h10q21 0 32 -6t21 -24l15 -24q21 -32 42 0l15 24q10 18 21 24t32 6h11q21 0 24 -6t-8 -23l-39 -60q-17 -26 -33 -35t-44 -9t-44 9t-33 35z" />
    <glyph glyph-name="ccaron" unicode="&#x10d;" horiz-adv-x="422" 
d="M44 199v98q0 101 59.5 155.5t171.5 54.5q41 0 78 -10q25 -6 32.5 -15.5t7.5 -34.5v-13q0 -26 -9 -33t-33 0q-27 10 -74 10q-72 0 -101 -26t-29 -89v-94q0 -65 30.5 -90.5t106.5 -25.5q29 0 77 9q24 5 32.5 -2t8.5 -32v-12q0 -24 -8.5 -34t-33.5 -16q-39 -10 -81 -10
q-235 0 -235 210zM171 604l-38 60q-11 17 -8 23t24 6h10q21 0 32 -6t21 -24l15 -24q21 -32 42 0l15 24q10 18 21 24t32 6h11q21 0 24 -6t-8 -23l-39 -60q-17 -26 -33 -35t-44 -9t-44 9t-33 35z" />
    <glyph glyph-name="Dcaron" unicode="&#x10e;" horiz-adv-x="617" 
d="M73 114v422q0 60 27 87t87 27h83q158 0 226 -56t68 -200v-138q0 -136 -69.5 -196t-224.5 -60h-83q-60 0 -87 27t-27 87zM217 99h53q110 0 147 34q39 35 39 123v138q0 88 -39 122q-41 35 -147 35h-53q-39 0 -39 -38v-376q0 -38 39 -38zM230 748l-38 60q-11 17 -8 23t24 6
h10q21 0 32 -6t21 -24l15 -24q21 -32 42 0l15 24q10 18 21 24t32 6h11q21 0 24 -6t-8 -23l-39 -60q-17 -26 -33 -35t-44 -9t-44 9t-33 35z" />
    <glyph glyph-name="dcaron" unicode="&#x10f;" horiz-adv-x="615" 
d="M501 655v-452q0 -105 -58.5 -159.5t-169.5 -54.5q-229 0 -229 214v86q0 218 209 218q105 0 146 -65v213q0 27 9 36t36 9h12q27 0 36 -9t9 -36zM147 291v-86q0 -66 27 -92.5t98 -26.5t99 27t28 92v86q0 66 -28 93t-99 27q-70 0 -97.5 -27t-27.5 -93zM548 536l-3 1
q-13 4 -13 21q0 40 3 80q11 153 70 153q21 0 33 -14.5t12 -38.5q0 -33 -28 -90q-27 -60 -51 -99q-11 -17 -23 -13z" />
    <glyph glyph-name="Dcroat" unicode="&#x110;" horiz-adv-x="617" 
d="M348 341v-11q0 -23 -8 -30.5t-30 -7.5h-272q-22 0 -30 7.5t-8 30.5v11q0 22 8 30t30 8h272q22 0 30 -8t8 -30zM73 114v422q0 60 27 87t87 27h83q158 0 226 -56t68 -200v-138q0 -136 -69.5 -196t-224.5 -60h-83q-60 0 -87 27t-27 87zM217 99h53q110 0 147 34q39 35 39 123
v138q0 88 -39 122q-41 35 -147 35h-53q-39 0 -39 -38v-376q0 -38 39 -38z" />
    <glyph glyph-name="dslash" unicode="&#x111;" horiz-adv-x="552" 
d="M501 655v-31h13q22 0 30 -8t8 -30v-11q0 -23 -8 -30.5t-30 -7.5h-13v-334q0 -105 -58.5 -159.5t-169.5 -54.5q-229 0 -229 214v86q0 218 209 218q105 0 146 -65v95h-97q-22 0 -30 7.5t-8 30.5v11q0 22 8 30t30 8h97v31q0 27 9 36t36 9h12q27 0 36 -9t9 -36zM147 291v-86
q0 -66 27 -92.5t98 -26.5t99 27t28 92v86q0 66 -28 93t-99 27q-70 0 -97.5 -27t-27.5 -93z" />
    <glyph glyph-name="Emacron" unicode="&#x112;" horiz-adv-x="562" 
d="M473 744v-11q0 -23 -8 -30.5t-30 -7.5h-272q-22 0 -30 7.5t-8 30.5v11q0 22 8 30t30 8h272q22 0 30 -8t8 -30zM430 286h-252v-149q0 -38 39 -38h253q27 0 36 -9t9 -36v-9q0 -27 -9 -36t-36 -9h-283q-60 0 -87 27t-27 87v422q0 60 27 87t87 27h283q27 0 36 -9t9 -36v-9
q0 -27 -9 -36t-36 -9h-253q-39 0 -39 -38v-128h252q27 0 36 -9t9 -36v-9q0 -27 -9 -36t-36 -9z" />
    <glyph glyph-name="emacron" unicode="&#x113;" horiz-adv-x="522" 
d="M433 624v-11q0 -23 -8 -30.5t-30 -7.5h-272q-22 0 -30 7.5t-8 30.5v11q0 22 8 30t30 8h272q22 0 30 -8t8 -30zM478 300q0 -4 -2 -44q-3 -28 -13 -37t-38 -9h-278v-22q0 -55 33.5 -78.5t109.5 -23.5q65 0 130 16q24 6 32.5 -1.5t8.5 -33.5v-13q0 -25 -7.5 -33.5
t-33.5 -15.5q-57 -16 -130 -16q-127 0 -186.5 51.5t-59.5 162.5v87q0 217 222 217q104 0 158 -52.5t54 -154.5zM147 319v-25h234v25q0 99 -118 99q-116 0 -116 -99z" />
    <glyph glyph-name="Edotaccent" unicode="&#x116;" horiz-adv-x="562" 
d="M430 286h-252v-149q0 -38 39 -38h253q27 0 36 -9t9 -36v-9q0 -27 -9 -36t-36 -9h-283q-60 0 -87 27t-27 87v422q0 60 27 87t87 27h283q27 0 36 -9t9 -36v-9q0 -27 -9 -36t-36 -9h-253q-39 0 -39 -38v-128h252q27 0 36 -9t9 -36v-9q0 -27 -9 -36t-36 -9zM242 769
q0 25 16.5 42t41.5 17t42 -17t17 -42q0 -24 -17 -41t-42 -17t-41.5 17t-16.5 41z" />
    <glyph glyph-name="edotaccent" unicode="&#x117;" horiz-adv-x="522" 
d="M478 300q0 -4 -2 -44q-3 -28 -13 -37t-38 -9h-278v-22q0 -55 33.5 -78.5t109.5 -23.5q65 0 130 16q24 6 32.5 -1.5t8.5 -33.5v-13q0 -25 -7.5 -33.5t-33.5 -15.5q-57 -16 -130 -16q-127 0 -186.5 51.5t-59.5 162.5v87q0 217 222 217q104 0 158 -52.5t54 -154.5zM147 319
v-25h234v25q0 99 -118 99q-116 0 -116 -99zM210 626q0 25 16.5 42t41.5 17t42 -17t17 -42q0 -24 -17 -41t-42 -17t-41.5 17t-16.5 41z" />
    <glyph glyph-name="Eogonek" unicode="&#x118;" horiz-adv-x="562" 
d="M430 286h-252v-149q0 -38 39 -38h253q27 0 36 -9t9 -36v-9q0 -30 -12 -39q-48 -39 -60 -56q-12 -18 -12 -46q0 -20 8 -27.5t27 -7.5q12 0 15 1q17 2 22.5 -3t5.5 -21v-10q0 -16 -5.5 -22.5t-22.5 -9.5q-18 -3 -34 -3q-52 0 -75 20.5t-23 68.5q0 38 17.5 63t57.5 47h-237
q-60 0 -87 27t-27 87v422q0 60 27 87t87 27h283q27 0 36 -9t9 -36v-9q0 -27 -9 -36t-36 -9h-253q-39 0 -39 -38v-128h252q27 0 36 -9t9 -36v-9q0 -27 -9 -36t-36 -9z" />
    <glyph glyph-name="eogonek" unicode="&#x119;" horiz-adv-x="513" 
d="M478 300q0 -4 -2 -44q-3 -28 -13 -37t-38 -9h-278v-22q0 -55 33.5 -78.5t109.5 -23.5q65 0 130 16q24 6 32.5 -1.5t8.5 -33.5v-13q0 -32 -19 -42q-83 -50 -83 -108q0 -20 8 -27.5t27 -7.5q12 0 15 1q17 2 22.5 -3t5.5 -21v-10q0 -16 -5.5 -22.5t-22.5 -9.5q-18 -3 -34 -3
q-52 0 -75 20.5t-23 68.5q0 35 18 58t61 45q-20 -4 -66 -4q-127 0 -186.5 51.5t-59.5 162.5v87q0 217 222 217q104 0 158 -52.5t54 -154.5zM147 319v-25h234v25q0 99 -118 99q-116 0 -116 -99z" />
    <glyph glyph-name="Ecaron" unicode="&#x11a;" horiz-adv-x="562" 
d="M430 286h-252v-149q0 -38 39 -38h253q27 0 36 -9t9 -36v-9q0 -27 -9 -36t-36 -9h-283q-60 0 -87 27t-27 87v422q0 60 27 87t87 27h283q27 0 36 -9t9 -36v-9q0 -27 -9 -36t-36 -9h-253q-39 0 -39 -38v-128h252q27 0 36 -9t9 -36v-9q0 -27 -9 -36t-36 -9zM220 748l-38 60
q-11 17 -8 23t24 6h10q21 0 32 -6t21 -24l15 -24q21 -32 42 0l15 24q10 18 21 24t32 6h11q21 0 24 -6t-8 -23l-39 -60q-17 -26 -33 -35t-44 -9t-44 9t-33 35z" />
    <glyph glyph-name="ecaron" unicode="&#x11b;" horiz-adv-x="522" 
d="M478 300q0 -4 -2 -44q-3 -28 -13 -37t-38 -9h-278v-22q0 -55 33.5 -78.5t109.5 -23.5q65 0 130 16q24 6 32.5 -1.5t8.5 -33.5v-13q0 -25 -7.5 -33.5t-33.5 -15.5q-57 -16 -130 -16q-127 0 -186.5 51.5t-59.5 162.5v87q0 217 222 217q104 0 158 -52.5t54 -154.5zM147 319
v-25h234v25q0 99 -118 99q-116 0 -116 -99zM191 604l-38 60q-11 17 -8 23t24 6h10q21 0 32 -6t21 -24l15 -24q21 -32 42 0l15 24q10 18 21 24t32 6h11q21 0 24 -6t-8 -23l-39 -60q-17 -26 -33 -35t-44 -9t-44 9t-33 35z" />
    <glyph glyph-name="Gcommaaccent" unicode="&#x122;" horiz-adv-x="589" 
d="M269 -316l-3 1q-13 4 -13 21q0 10 15 51q16 40 21 85q6 58 14.5 75.5t33.5 17.5q40 0 40 -52q0 -44 -23 -93q-15 -33 -62 -93q-13 -16 -23 -13zM439 137v182q0 27 9 36t36 9h9q27 0 36 -9t9 -36v-183q0 -67 -23 -98.5t-80 -41.5q-36 -7 -85 -7q-157 0 -227 59.5
t-70 194.5v160q0 124 73.5 190t218.5 66q79 0 143 -24q26 -10 32.5 -18t6.5 -33v-15q0 -27 -8 -34t-32 1q-65 25 -141 25q-101 0 -143 -37.5t-42 -127.5v-160q0 -77 43.5 -112.5t144.5 -35.5q38 0 55 3q35 5 35 46z" />
    <glyph glyph-name="gcommaaccent" unicode="&#x123;" horiz-adv-x="515" 
d="M331 812l3 -1q13 -4 13 -21q0 -12 -16 -51q-16 -42 -20 -85q-6 -58 -14.5 -75.5t-33.5 -17.5q-40 0 -40 52q0 44 23 93q15 33 62 93q13 16 23 13zM477 330v-9q0 -180 -215 -180q-72 0 -93 -6t-21 -26q0 -17 22 -23q23 -6 92 -6q129 0 179 -32q49 -31 49 -111
q0 -85 -50 -120t-178 -35q-132 0 -182 33q-49 33 -49 103q0 69 53 101q-38 23 -38 70q0 67 79 86q-81 39 -81 146v9q0 84 57.5 130.5t160.5 46.5q54 0 95 -16l57 49q17 15 28.5 15t27.5 -16l9 -9q16 -16 16.5 -27t-15.5 -27l-41 -44q38 -38 38 -102zM374 321v9
q0 45 -26.5 66.5t-85.5 21.5q-115 0 -115 -88v-9q0 -48 26.5 -69.5t88.5 -21.5q61 0 86.5 21.5t25.5 69.5zM262 -8q-66 0 -91 4q-37 -16 -37 -64q0 -38 26 -50.5t102 -12.5q73 0 99 13t26 52q0 38 -25 48q-24 10 -100 10z" />
    <glyph glyph-name="Imacron" unicode="&#x12a;" horiz-adv-x="265" 
d="M303 744v-11q0 -23 -8 -30.5t-30 -7.5h-265q-22 0 -30 7.5t-8 30.5v11q0 22 8 30t30 8h265q22 0 30 -8t8 -30zM80 46v558q0 28 9 37t37 9h13q28 0 37 -9t9 -37v-558q0 -28 -9 -37t-37 -9h-13q-28 0 -37 9t-9 37z" />
    <glyph glyph-name="imacron" unicode="&#x12b;" horiz-adv-x="233" 
d="M271 624v-11q0 -23 -8 -30.5t-30 -7.5h-233q-22 0 -30 7.5t-8 30.5v11q0 22 8 30t30 8h233q22 0 30 -8t8 -30zM65 45v406q0 27 9 36t36 9h13q27 0 36 -9t9 -36v-406q0 -27 -9 -36t-36 -9h-13q-27 0 -36 9t-9 36z" />
    <glyph glyph-name="Iogonek" unicode="&#x12e;" horiz-adv-x="265" 
d="M80 46v558q0 28 9 37t37 9h13q28 0 37 -9t9 -37v-558q0 -29 -10 -38q-1 -1 -21 -16l-14 -14l-14 -14q-25 -25 -25 -60q0 -20 8 -27.5t27 -7.5q12 0 15 1q17 2 22.5 -3t5.5 -21v-10q0 -16 -5.5 -22.5t-22.5 -9.5q-18 -3 -34 -3q-52 0 -75 20.5t-23 68.5q0 40 18 64t63 49
q-20 6 -20 43z" />
    <glyph glyph-name="iogonek" unicode="&#x12f;" horiz-adv-x="233" 
d="M65 45v406q0 27 9 36t36 9h13q27 0 36 -9t9 -36v-406q0 -30 -11 -38q-73 -53 -80 -61q-15 -16 -15 -42q0 -20 8 -27.5t27 -7.5q12 0 15 1q17 2 22.5 -3t5.5 -21v-10q0 -16 -5.5 -22.5t-22.5 -9.5q-18 -3 -34 -3q-52 0 -75 20.5t-23 68.5q0 39 22 62t81 51q-18 6 -18 42z
M72 604q-19 19 -19 45t19 44q19 19 45 19t44 -19q19 -18 19 -44t-19 -45q-18 -18 -44 -18t-45 18z" />
    <glyph glyph-name="dotlessi" unicode="&#x131;" horiz-adv-x="233" 
d="M65 45v406q0 27 9 36t36 9h13q27 0 36 -9t9 -36v-406q0 -27 -9 -36t-36 -9h-13q-27 0 -36 9t-9 36z" />
    <glyph glyph-name="Kcommaaccent" unicode="&#x136;" horiz-adv-x="585" 
d="M239 -316l-3 1q-13 4 -13 21q0 10 15 51q16 40 21 85q6 58 14.5 75.5t33.5 17.5q40 0 40 -52q0 -44 -23 -93q-15 -33 -62 -93q-13 -16 -23 -13zM263 445l136 163q21 25 38.5 33.5t49.5 8.5h18q33 0 37 -8t-17 -34l-166 -202q-21 -26 -35 -45q-7 -10 -7 -22q0 -10 7 -20
q13 -18 35 -46l186 -231q20 -26 16 -34t-36 -8h-18q-32 0 -49.5 8.5t-38.5 33.5l-156 193q-47 59 -47 106t47 104zM73 46v558q0 28 9 37t37 9h13q28 0 37 -9t9 -37v-558q0 -28 -9 -37t-37 -9h-13q-28 0 -37 9t-9 37z" />
    <glyph glyph-name="kcommaaccent" unicode="&#x137;" horiz-adv-x="521" 
d="M219 -316l-3 1q-13 4 -13 21q0 10 15 51q16 40 21 85q6 58 14.5 75.5t33.5 17.5q40 0 40 -52q0 -44 -23 -93q-15 -33 -62 -93q-13 -16 -23 -13zM64 45v610q0 27 9 36t36 9h12q27 0 36 -9t9 -36v-610q0 -27 -9 -36t-36 -9h-12q-27 0 -36 9t-9 36zM240 350l92 104
q22 25 40.5 33.5t52.5 8.5h17q34 0 37.5 -8t-18.5 -34l-139 -156q-20 -20 -20 -36t19 -35l160 -185q22 -26 18.5 -34t-37.5 -8h-17q-34 0 -52.5 8.5t-40.5 33.5l-112 131q-40 46 -40 92q0 24 8 41.5t32 43.5z" />
    <glyph glyph-name="Lacute" unicode="&#x139;" horiz-adv-x="499" 
d="M73 114v490q0 28 9 37t37 9h13q28 0 37 -9t9 -37v-467q0 -38 39 -38h213q27 0 36 -9t9 -36v-9q0 -27 -9 -36t-36 -9h-243q-60 0 -87 27t-27 87zM241 803l-44 -69q-12 -19 -23.5 -25.5t-34.5 -6.5h-11q-22 0 -26.5 7t5.5 27l31 65q10 22 22 29.5t37 7.5h25q25 0 28.5 -7
t-9.5 -28z" />
    <glyph glyph-name="lacute" unicode="&#x13a;" horiz-adv-x="254" 
d="M55 140v515q0 27 9 36t36 9h13q27 0 36 -9t9 -36v-495q0 -39 11 -55t36 -16t31.5 -7t6.5 -33v-10q0 -24 -8 -32.5t-33 -13.5q-3 -1 -14 -1q-63 0 -98 37.5t-35 110.5zM201 851l-44 -69q-12 -19 -23.5 -25.5t-34.5 -6.5h-11q-22 0 -26.5 7t5.5 27l31 65q10 22 22 29.5
t37 7.5h25q25 0 28.5 -7t-9.5 -28z" />
    <glyph glyph-name="Lcommaaccent" unicode="&#x13b;" horiz-adv-x="499" 
d="M219 -316l-3 1q-13 4 -13 21q0 10 15 51q16 40 21 85q6 58 14.5 75.5t33.5 17.5q40 0 40 -52q0 -44 -23 -93q-15 -33 -62 -93q-13 -16 -23 -13zM73 114v490q0 28 9 37t37 9h13q28 0 37 -9t9 -37v-467q0 -38 39 -38h213q27 0 36 -9t9 -36v-9q0 -27 -9 -36t-36 -9h-243
q-60 0 -87 27t-27 87z" />
    <glyph glyph-name="lcommaaccent" unicode="&#x13c;" horiz-adv-x="254" 
d="M79 -316l-3 1q-13 4 -13 21q0 10 15 51q16 40 21 85q6 58 14.5 75.5t33.5 17.5q40 0 40 -52q0 -44 -23 -93q-15 -33 -62 -93q-13 -16 -23 -13zM55 140v515q0 27 9 36t36 9h13q27 0 36 -9t9 -36v-495q0 -39 11 -55t36 -16t31.5 -7t6.5 -33v-10q0 -24 -8 -32.5t-33 -13.5
q-3 -1 -14 -1q-63 0 -98 37.5t-35 110.5z" />
    <glyph glyph-name="Lcaron" unicode="&#x13d;" horiz-adv-x="499" 
d="M73 114v490q0 28 9 37t37 9h13q28 0 37 -9t9 -37v-467q0 -38 39 -38h213q27 0 36 -9t9 -36v-9q0 -27 -9 -36t-36 -9h-243q-60 0 -87 27t-27 87zM236 536l-3 1q-13 4 -13 21q0 40 3 80q11 153 70 153q21 0 33 -14.5t12 -38.5q0 -33 -28 -90q-27 -60 -51 -99
q-11 -17 -23 -13z" />
    <glyph glyph-name="lcaron" unicode="&#x13e;" horiz-adv-x="284" 
d="M55 140v515q0 27 9 36t36 9h13q27 0 36 -9t9 -36v-495q0 -39 11 -55t36 -16t31.5 -7t6.5 -33v-10q0 -24 -8 -32.5t-33 -13.5q-3 -1 -14 -1q-63 0 -98 37.5t-35 110.5zM206 536l-3 1q-13 4 -13 21q0 40 3 80q11 153 70 153q21 0 33 -14.5t12 -38.5q0 -33 -28 -90
q-27 -60 -51 -99q-11 -17 -23 -13z" />
    <glyph glyph-name="Lslash" unicode="&#x141;" horiz-adv-x="513" 
d="M91 114v198l-23 -8q-17 -7 -25 -3t-15 21l-5 13q-7 17 -3 25t21 14l50 18v212q0 28 9 37t37 9h13q28 0 37 -9t9 -37v-174l48 17q17 7 25 3t14 -21l5 -13q7 -17 3 -25t-21 -14l-74 -27v-213q0 -38 39 -38h213q27 0 36 -9t9 -36v-9q0 -27 -9 -36t-36 -9h-243q-60 0 -87 27
t-27 87z" />
    <glyph glyph-name="lslash" unicode="&#x142;" horiz-adv-x="289" 
d="M88 140v178l-21 -7q-17 -7 -25 -3t-15 21l-5 12q-7 17 -3 25t21 15l48 17v257q0 27 9 36t36 9h13q27 0 36 -9t9 -36v-220l34 13q17 6 25 2t15 -21l4 -12q7 -17 3 -25t-21 -15l-60 -22v-195q0 -39 11 -55t36 -16t31.5 -7t6.5 -33v-10q0 -24 -8 -32.5t-33 -13.5
q-3 -1 -14 -1q-63 0 -98 37.5t-35 110.5z" />
    <glyph glyph-name="Nacute" unicode="&#x143;" horiz-adv-x="661" 
d="M73 46v482q0 71 27.5 101.5t90.5 30.5q53 0 79 -23t43 -83l126 -447q5 -17 10.5 -22.5t15.5 -5.5q20 0 20 33v492q0 28 9 37t37 9h10q28 0 37 -9t9 -37v-482q0 -72 -26.5 -102t-87.5 -30q-54 0 -81.5 24t-45.5 87l-124 437q-5 20 -10.5 26.5t-16.5 6.5q-20 0 -20 -35
v-490q0 -28 -9 -37t-37 -9h-10q-28 0 -37 9t-9 37zM419 803l-44 -69q-12 -19 -23.5 -25.5t-34.5 -6.5h-11q-22 0 -26.5 7t5.5 27l31 65q10 22 22 29.5t37 7.5h25q25 0 28.5 -7t-9.5 -28z" />
    <glyph glyph-name="nacute" unicode="&#x144;" horiz-adv-x="543" 
d="M157 313v-268q0 -27 -9 -36t-36 -9h-13q-27 0 -36 9t-9 36v268q0 194 218 194q112 0 164.5 -47.5t52.5 -146.5v-268q0 -27 -9 -36t-36 -9h-13q-27 0 -36 9t-9 36v268q0 54 -25 76t-89 22q-65 0 -90 -22t-25 -76zM346 660l-44 -69q-12 -19 -23.5 -25.5t-34.5 -6.5h-11
q-22 0 -26.5 7t5.5 27l31 65q10 22 22 29.5t37 7.5h25q25 0 28.5 -7t-9.5 -28z" />
    <glyph glyph-name="Ncommaaccent" unicode="&#x145;" horiz-adv-x="660" 
d="M269 -316l-3 1q-13 4 -13 21q0 10 15 51q16 40 21 85q6 58 14.5 75.5t33.5 17.5q40 0 40 -52q0 -44 -23 -93q-15 -33 -62 -93q-13 -16 -23 -13zM73 46v482q0 71 27.5 101.5t90.5 30.5q53 0 79 -23t43 -83l126 -447q5 -17 10.5 -22.5t15.5 -5.5q20 0 20 33v492q0 28 9 37
t37 9h10q28 0 37 -9t9 -37v-482q0 -72 -26.5 -102t-87.5 -30q-54 0 -81.5 24t-45.5 87l-124 437q-5 20 -10.5 26.5t-16.5 6.5q-20 0 -20 -35v-490q0 -28 -9 -37t-37 -9h-10q-28 0 -37 9t-9 37z" />
    <glyph glyph-name="ncommaaccent" unicode="&#x146;" horiz-adv-x="543" 
d="M219 -316l-3 1q-13 4 -13 21q0 10 15 51q16 40 21 85q6 58 14.5 75.5t33.5 17.5q40 0 40 -52q0 -44 -23 -93q-15 -33 -62 -93q-13 -16 -23 -13zM157 313v-268q0 -27 -9 -36t-36 -9h-13q-27 0 -36 9t-9 36v268q0 194 218 194q112 0 164.5 -47.5t52.5 -146.5v-268
q0 -27 -9 -36t-36 -9h-13q-27 0 -36 9t-9 36v268q0 54 -25 76t-89 22q-65 0 -90 -22t-25 -76z" />
    <glyph glyph-name="Ncaron" unicode="&#x147;" horiz-adv-x="660" 
d="M73 46v482q0 71 27.5 101.5t90.5 30.5q53 0 79 -23t43 -83l126 -447q5 -17 10.5 -22.5t15.5 -5.5q20 0 20 33v492q0 28 9 37t37 9h10q28 0 37 -9t9 -37v-482q0 -72 -26.5 -102t-87.5 -30q-54 0 -81.5 24t-45.5 87l-124 437q-5 20 -10.5 26.5t-16.5 6.5q-20 0 -20 -35
v-490q0 -28 -9 -37t-37 -9h-10q-28 0 -37 9t-9 37zM260 748l-38 60q-11 17 -8 23t24 6h10q21 0 32 -6t21 -24l15 -24q21 -32 42 0l15 24q10 18 21 24t32 6h11q21 0 24 -6t-8 -23l-39 -60q-17 -26 -33 -35t-44 -9t-44 9t-33 35z" />
    <glyph glyph-name="ncaron" unicode="&#x148;" horiz-adv-x="543" 
d="M157 313v-268q0 -27 -9 -36t-36 -9h-13q-27 0 -36 9t-9 36v268q0 194 218 194q112 0 164.5 -47.5t52.5 -146.5v-268q0 -27 -9 -36t-36 -9h-13q-27 0 -36 9t-9 36v268q0 54 -25 76t-89 22q-65 0 -90 -22t-25 -76zM196 604l-38 60q-11 17 -8 23t24 6h10q21 0 32 -6t21 -24
l15 -24q21 -32 42 0l15 24q10 18 21 24t32 6h11q21 0 24 -6t-8 -23l-39 -60q-17 -26 -33 -35t-44 -9t-44 9t-33 35z" />
    <glyph glyph-name="Omacron" unicode="&#x14c;" horiz-adv-x="636" 
d="M493 744v-11q0 -23 -8 -30.5t-30 -7.5h-272q-22 0 -30 7.5t-8 30.5v11q0 22 8 30t30 8h272q22 0 30 -8t8 -30zM477 252v143q0 88 -32 126q-31 39 -127 39t-127 -39q-32 -38 -32 -126v-143q0 -85 32 -126q31 -39 127 -39t127 39q32 41 32 126zM318 -12q-149 0 -207 67
t-58 197v143q0 129 58 196q59 68 207 68t207 -68q58 -67 58 -196v-143q0 -129 -59 -197q-58 -67 -206 -67z" />
    <glyph glyph-name="omacron" unicode="&#x14d;" horiz-adv-x="546" 
d="M443 624v-11q0 -23 -8 -30.5t-30 -7.5h-272q-22 0 -30 7.5t-8 30.5v11q0 22 8 30t30 8h272q22 0 30 -8t8 -30zM399 205v86q0 66 -27.5 93t-97.5 27q-71 0 -99 -27t-28 -93v-86q0 -65 28 -92t99 -27t98 26.5t27 92.5zM274 -11q-118 0 -174 53t-56 163v86q0 216 230 216
q117 0 172.5 -53.5t55.5 -162.5v-86q0 -106 -57.5 -161t-170.5 -55z" />
    <glyph glyph-name="Ohungarumlaut" unicode="&#x150;" horiz-adv-x="636" 
d="M477 252v143q0 88 -32 126q-31 39 -127 39t-127 -39q-32 -38 -32 -126v-143q0 -85 32 -126q31 -39 127 -39t127 39q32 41 32 126zM318 -12q-149 0 -207 67t-58 197v143q0 129 58 196q59 68 207 68t207 -68q58 -67 58 -196v-143q0 -129 -59 -197q-58 -67 -206 -67z
M341 803l-44 -69q-12 -19 -23.5 -25.5t-34.5 -6.5h-11q-22 0 -26.5 7t5.5 27l31 65q10 22 22 29.5t37 7.5h25q25 0 28.5 -7t-9.5 -28zM487 803l-44 -69q-12 -19 -23.5 -25.5t-34.5 -6.5h-11q-22 0 -26.5 7t5.5 27l31 65q10 22 22 29.5t37 7.5h25q25 0 28.5 -7t-9.5 -28z" />
    <glyph glyph-name="ohungarumlaut" unicode="&#x151;" horiz-adv-x="546" 
d="M399 205v86q0 66 -27.5 93t-97.5 27q-71 0 -99 -27t-28 -93v-86q0 -65 28 -92t99 -27t98 26.5t27 92.5zM274 -11q-118 0 -174 53t-56 163v86q0 216 230 216q117 0 172.5 -53.5t55.5 -162.5v-86q0 -106 -57.5 -161t-170.5 -55zM298 660l-44 -69q-12 -19 -23.5 -25.5
t-34.5 -6.5h-11q-22 0 -26.5 7t5.5 27l31 65q10 22 22 29.5t37 7.5h25q25 0 28.5 -7t-9.5 -28zM444 660l-44 -69q-12 -19 -23.5 -25.5t-34.5 -6.5h-11q-22 0 -26.5 7t5.5 27l31 65q10 22 22 29.5t37 7.5h25q25 0 28.5 -7t-9.5 -28z" />
    <glyph glyph-name="OE" unicode="&#x152;" horiz-adv-x="964" 
d="M318 -12q-149 0 -207 67t-58 197v143q0 129 58 196q59 68 207 68q133 0 185 -69q19 60 103 60h267q27 0 36 -9t9 -36v-9q0 -27 -9 -36t-36 -9h-254q-20 0 -29 -9t-9 -29v-128h252q27 0 36 -9t9 -36v-9q0 -27 -9 -36t-36 -9h-252v-149q0 -20 9 -29t29 -9h254q27 0 36 -9
t9 -36v-9q0 -27 -9 -36t-36 -9h-267q-82 0 -101 58q-51 -70 -187 -70zM477 252v143q0 88 -32 126q-31 39 -127 39t-127 -39q-32 -38 -32 -126v-143q0 -85 32 -126q31 -39 127 -39t127 39q32 41 32 126z" />
    <glyph glyph-name="oe" unicode="&#x153;" horiz-adv-x="865" 
d="M274 -11q-118 0 -174 53t-56 163v86q0 216 230 216q131 0 176 -84q42 84 168 84q104 0 157.5 -52.5t53.5 -154.5q0 -3 -0.5 -9t-1 -16.5t-0.5 -19.5q-2 -27 -12 -36t-37 -9h-280v-22q0 -54 34 -78t110 -24q62 0 130 16q24 6 32.5 -1.5t8.5 -33.5v-13q0 -24 -8 -33
t-33 -16q-52 -16 -130 -16q-149 0 -194 85q-46 -85 -174 -85zM399 205v86q0 66 -27.5 93t-97.5 27q-71 0 -99 -27t-28 -93v-86q0 -65 28 -92t99 -27t98 26.5t27 92.5zM498 319v-25h234v25q0 99 -117 99t-117 -99z" />
    <glyph glyph-name="Racute" unicode="&#x154;" horiz-adv-x="618" 
d="M561 449q0 -83 -33.5 -130t-106.5 -62l138 -213q17 -26 12 -35t-36 -9h-17q-31 0 -47 9t-33 35l-131 205h-129v-203q0 -28 -9 -37t-37 -9h-13q-28 0 -37 9t-9 37v490q0 60 27 87t87 27h158q113 0 164.5 -49.5t51.5 -151.5zM345 551h-128q-39 0 -39 -38v-165h167
q60 0 85.5 23.5t25.5 77.5q0 55 -25 78.5t-86 23.5zM391 803l-44 -69q-12 -19 -23.5 -25.5t-34.5 -6.5h-11q-22 0 -26.5 7t5.5 27l31 65q10 22 22 29.5t37 7.5h25q25 0 28.5 -7t-9.5 -28z" />
    <glyph glyph-name="racute" unicode="&#x155;" horiz-adv-x="324" 
d="M157 323v-278q0 -27 -9 -36t-36 -9h-13q-27 0 -36 9t-9 36v285q0 177 189 177q17 0 20 -1q25 -3 33.5 -12t8.5 -35v-14q0 -25 -8 -32t-34 -3q-3 1 -20 1q-48 0 -67 -20t-19 -68zM268 660l-44 -69q-12 -19 -23.5 -25.5t-34.5 -6.5h-11q-22 0 -26.5 7t5.5 27l31 65
q10 22 22 29.5t37 7.5h25q25 0 28.5 -7t-9.5 -28z" />
    <glyph glyph-name="Rcommaaccent" unicode="&#x156;" horiz-adv-x="618" 
d="M259 -316l-3 1q-13 4 -13 21q0 10 15 51q16 40 21 85q6 58 14.5 75.5t33.5 17.5q40 0 40 -52q0 -44 -23 -93q-15 -33 -62 -93q-13 -16 -23 -13zM561 449q0 -83 -33.5 -130t-106.5 -62l138 -213q17 -26 12 -35t-36 -9h-17q-31 0 -47 9t-33 35l-131 205h-129v-203
q0 -28 -9 -37t-37 -9h-13q-28 0 -37 9t-9 37v490q0 60 27 87t87 27h158q113 0 164.5 -49.5t51.5 -151.5zM345 551h-128q-39 0 -39 -38v-165h167q60 0 85.5 23.5t25.5 77.5q0 55 -25 78.5t-86 23.5z" />
    <glyph glyph-name="rcommaaccent" unicode="&#x157;" horiz-adv-x="324" 
d="M39 -316l-3 1q-13 4 -13 21q0 10 15 51q16 40 21 85q6 58 14.5 75.5t33.5 17.5q40 0 40 -52q0 -44 -23 -93q-15 -33 -62 -93q-13 -16 -23 -13zM157 323v-278q0 -27 -9 -36t-36 -9h-13q-27 0 -36 9t-9 36v285q0 177 189 177q17 0 20 -1q25 -3 33.5 -12t8.5 -35v-14
q0 -25 -8 -32t-34 -3q-3 1 -20 1q-48 0 -67 -20t-19 -68z" />
    <glyph glyph-name="Rcaron" unicode="&#x158;" horiz-adv-x="618" 
d="M561 449q0 -83 -33.5 -130t-106.5 -62l138 -213q17 -26 12 -35t-36 -9h-17q-31 0 -47 9t-33 35l-131 205h-129v-203q0 -28 -9 -37t-37 -9h-13q-28 0 -37 9t-9 37v490q0 60 27 87t87 27h158q113 0 164.5 -49.5t51.5 -151.5zM345 551h-128q-39 0 -39 -38v-165h167
q60 0 85.5 23.5t25.5 77.5q0 55 -25 78.5t-86 23.5zM230 748l-38 60q-11 17 -8 23t24 6h10q21 0 32 -6t21 -24l15 -24q21 -32 42 0l15 24q10 18 21 24t32 6h11q21 0 24 -6t-8 -23l-39 -60q-17 -26 -33 -35t-44 -9t-44 9t-33 35z" />
    <glyph glyph-name="rcaron" unicode="&#x159;" horiz-adv-x="324" 
d="M157 323v-278q0 -27 -9 -36t-36 -9h-13q-27 0 -36 9t-9 36v285q0 177 189 177q17 0 20 -1q25 -3 33.5 -12t8.5 -35v-14q0 -25 -8 -32t-34 -3q-3 1 -20 1q-48 0 -67 -20t-19 -68zM111 604l-38 60q-11 17 -8 23t24 6h10q21 0 32 -6t21 -24l15 -24q21 -32 42 0l15 24
q10 18 21 24t32 6h11q21 0 24 -6t-8 -23l-39 -60q-17 -26 -33 -35t-44 -9t-44 9t-33 35z" />
    <glyph glyph-name="Sacute" unicode="&#x15a;" horiz-adv-x="525" 
d="M43 62v16q0 27 9 34.5t32 -0.5q76 -24 162 -24q69 0 99 16t30 54q0 30 -18 48q-17 18 -68 49l-138 83q-100 60 -100 163q0 80 54 119t167 39q76 0 139 -20q27 -8 35 -17t8 -33v-17q0 -27 -7.5 -33.5t-32.5 0.5q-63 21 -142 21q-60 0 -86.5 -14t-26.5 -48q0 -24 13 -40
t50 -38l142 -87q65 -39 92 -77.5t27 -97.5q0 -169 -239 -169q-89 0 -161 23q-25 8 -32.5 17t-7.5 33zM338 803l-44 -69q-12 -19 -23.5 -25.5t-34.5 -6.5h-11q-22 0 -26.5 7t5.5 27l31 65q10 22 22 29.5t37 7.5h25q25 0 28.5 -7t-9.5 -28z" />
    <glyph glyph-name="sacute" unicode="&#x15b;" horiz-adv-x="463" 
d="M40 55v13q0 26 8 33.5t32 1.5q70 -19 146 -19q51 0 72 9.5t21 33.5q0 19 -13 31t-51 29l-108 48q-54 24 -76.5 54t-22.5 82q0 70 46 103t145 33q62 0 116 -15q27 -8 34.5 -17t7.5 -33v-12q0 -26 -8.5 -33.5t-32.5 -0.5q-54 16 -119 16q-48 0 -68 -9.5t-20 -31.5
q0 -18 10 -28.5t37 -22.5l116 -50q58 -24 82.5 -56t24.5 -85q0 -72 -48.5 -106t-153.5 -34q-71 0 -137 17q-25 7 -32.5 16t-7.5 33zM310 660l-44 -69q-12 -19 -23.5 -25.5t-34.5 -6.5h-11q-22 0 -26.5 7t5.5 27l31 65q10 22 22 29.5t37 7.5h25q25 0 28.5 -7t-9.5 -28z" />
    <glyph glyph-name="Scedilla" unicode="&#x15e;" horiz-adv-x="525" 
d="M200 -54l11 44q-71 3 -128 22q-25 8 -32.5 17t-7.5 33v16q0 27 9 34.5t32 -0.5q76 -24 162 -24q69 0 99 16t30 54q0 30 -18 48q-17 18 -68 49l-138 83q-100 60 -100 163q0 80 54 119t167 39q76 0 139 -20q27 -8 35 -17t8 -33v-17q0 -27 -7.5 -33.5t-32.5 0.5
q-63 21 -142 21q-60 0 -86.5 -14t-26.5 -48q0 -24 13 -40t50 -38l142 -87q65 -39 92 -77.5t27 -97.5q0 -160 -215 -168l-6 -29q45 2 65 -14t20 -55q0 -47 -25.5 -68t-80.5 -21q-23 0 -36 4q-13 3 -18 8.5t-5 19.5v6q-1 9 1 13.5t7.5 6t10.5 1.5t14 -1t14 -1q24 0 33 6.5
t9 24.5t-9.5 24.5t-31.5 6.5h-10q-17 0 -20.5 4t0.5 20z" />
    <glyph glyph-name="scedilla" unicode="&#x15f;" horiz-adv-x="463" 
d="M40 55v13q0 26 8 33.5t32 1.5q70 -19 146 -19q51 0 72 9.5t21 33.5q0 19 -13 31t-51 29l-108 48q-54 24 -76.5 54t-22.5 82q0 70 46 103t145 33q62 0 116 -15q27 -8 34.5 -17t7.5 -33v-12q0 -26 -8.5 -33.5t-32.5 -0.5q-54 16 -119 16q-48 0 -68 -9.5t-20 -31.5
q0 -18 10 -28.5t37 -22.5l116 -50q58 -24 82.5 -56t24.5 -85q0 -67 -41.5 -101t-130.5 -38l-6 -29q45 2 65 -14t20 -55q0 -47 -25.5 -68t-80.5 -21q-23 0 -36 4q-13 3 -18 8.5t-5 19.5v6q-1 9 1 13.5t7.5 6t10.5 1.5t14 -1t14 -1q24 0 33 6.5t9 24.5t-9.5 24.5t-31.5 6.5
h-10q-17 0 -20.5 4t0.5 20l11 44q-63 3 -110 16q-25 7 -32.5 16t-7.5 33z" />
    <glyph glyph-name="Scaron" unicode="&#x160;" horiz-adv-x="525" 
d="M43 62v16q0 27 9 34.5t32 -0.5q76 -24 162 -24q69 0 99 16t30 54q0 30 -18 48q-17 18 -68 49l-138 83q-100 60 -100 163q0 80 54 119t167 39q76 0 139 -20q27 -8 35 -17t8 -33v-17q0 -27 -7.5 -33.5t-32.5 0.5q-63 21 -142 21q-60 0 -86.5 -14t-26.5 -48q0 -24 13 -40
t50 -38l142 -87q65 -39 92 -77.5t27 -97.5q0 -169 -239 -169q-89 0 -161 23q-25 8 -32.5 17t-7.5 33zM185 748l-38 60q-11 17 -8 23t24 6h10q21 0 32 -6t21 -24l15 -24q21 -32 42 0l15 24q10 18 21 24t32 6h11q21 0 24 -6t-8 -23l-39 -60q-17 -26 -33 -35t-44 -9t-44 9
t-33 35z" />
    <glyph glyph-name="scaron" unicode="&#x161;" horiz-adv-x="463" 
d="M40 55v13q0 26 8 33.5t32 1.5q70 -19 146 -19q51 0 72 9.5t21 33.5q0 19 -13 31t-51 29l-108 48q-54 24 -76.5 54t-22.5 82q0 70 46 103t145 33q62 0 116 -15q27 -8 34.5 -17t7.5 -33v-12q0 -26 -8.5 -33.5t-32.5 -0.5q-54 16 -119 16q-48 0 -68 -9.5t-20 -31.5
q0 -18 10 -28.5t37 -22.5l116 -50q58 -24 82.5 -56t24.5 -85q0 -72 -48.5 -106t-153.5 -34q-71 0 -137 17q-25 7 -32.5 16t-7.5 33zM154 604l-38 60q-11 17 -8 23t24 6h10q21 0 32 -6t21 -24l15 -24q21 -32 42 0l15 24q10 18 21 24t32 6h11q21 0 24 -6t-8 -23l-39 -60
q-17 -26 -33 -35t-44 -9t-44 9t-33 35z" />
    <glyph glyph-name="Tcedilla" unicode="&#x162;" horiz-adv-x="564" 
d="M209 -316l-3 1q-13 4 -13 21q0 10 15 51q16 40 21 85q6 58 14.5 75.5t33.5 17.5q40 0 40 -52q0 -44 -23 -93q-15 -33 -62 -93q-13 -16 -23 -13zM28 596v9q0 27 9 36t36 9h417q27 0 36 -9t9 -36v-9q0 -27 -9 -36t-36 -9h-155v-505q0 -28 -9 -37t-37 -9h-14q-28 0 -37 9
t-9 37v505h-156q-27 0 -36 9t-9 36z" />
    <glyph glyph-name="tcedilla" unicode="&#x163;" horiz-adv-x="423" 
d="M179 -316l-3 1q-13 4 -13 21q0 10 15 51q16 40 21 85q6 58 14.5 75.5t33.5 17.5q40 0 40 -52q0 -44 -23 -93q-15 -33 -62 -93q-13 -16 -23 -13zM14 435v10q0 21 7 29t27 12l53 10l12 94q3 22 11 29t30 7h13q22 0 29 -7t7 -29v-94h140q25 0 33.5 -8t8.5 -34v-12
q0 -26 -8.5 -34t-33.5 -8h-140v-227q0 -87 78 -87q45 0 81 9q25 5 33 -2t8 -33v-12q0 -25 -8 -35t-33 -15q-46 -8 -81 -8q-180 0 -180 184v226h-52q-21 0 -28 7t-7 28z" />
    <glyph glyph-name="Tcaron" unicode="&#x164;" horiz-adv-x="564" 
d="M28 596v9q0 27 9 36t36 9h417q27 0 36 -9t9 -36v-9q0 -27 -9 -36t-36 -9h-155v-505q0 -28 -9 -37t-37 -9h-14q-28 0 -37 9t-9 37v505h-156q-27 0 -36 9t-9 36zM206 748l-38 60q-11 17 -8 23t24 6h10q21 0 32 -6t21 -24l15 -24q21 -32 42 0l15 24q10 18 21 24t32 6h11
q21 0 24 -6t-8 -23l-39 -60q-17 -26 -33 -35t-44 -9t-44 9t-33 35z" />
    <glyph glyph-name="tcaron" unicode="&#x165;" horiz-adv-x="423" 
d="M14 435v10q0 21 7 29t27 12l53 10l12 94q3 22 11 29t30 7h13q22 0 29 -7t7 -29v-94h140q25 0 33.5 -8t8.5 -34v-12q0 -26 -8.5 -34t-33.5 -8h-140v-227q0 -87 78 -87q45 0 81 9q25 5 33 -2t8 -33v-12q0 -25 -8 -35t-33 -15q-46 -8 -81 -8q-180 0 -180 184v226h-52
q-21 0 -28 7t-7 28zM276 536l-3 1q-13 4 -13 21q0 40 3 80q11 153 70 153q21 0 33 -14.5t12 -38.5q0 -33 -28 -90q-27 -60 -51 -99q-11 -17 -23 -13z" />
    <glyph glyph-name="Umacron" unicode="&#x16a;" horiz-adv-x="632" 
d="M493 744v-11q0 -23 -8 -30.5t-30 -7.5h-272q-22 0 -30 7.5t-8 30.5v11q0 22 8 30t30 8h272q22 0 30 -8t8 -30zM63 217v387q0 28 9 37t37 9h13q28 0 37 -9t9 -37v-387q0 -68 36 -98.5t112 -30.5t112 30.5t36 98.5v387q0 28 9 37t37 9h14q28 0 37 -9t9 -37v-387
q0 -114 -65 -171t-189 -57q-253 0 -253 228z" />
    <glyph glyph-name="umacron" unicode="&#x16b;" horiz-adv-x="537" 
d="M438 624v-11q0 -23 -8 -30.5t-30 -7.5h-272q-22 0 -30 7.5t-8 30.5v11q0 22 8 30t30 8h272q22 0 30 -8t8 -30zM154 451v-267q0 -54 25 -76t90 -22q64 0 89 22t25 76v267q0 27 9 36t36 9h13q27 0 36 -9t9 -36v-267q0 -99 -53 -147t-164 -48q-218 0 -218 195v267q0 27 9 36
t36 9h13q27 0 36 -9t9 -36z" />
    <glyph glyph-name="Uring" unicode="&#x16e;" horiz-adv-x="632" 
d="M63 217v387q0 28 9 37t37 9h13q28 0 37 -9t9 -37v-387q0 -68 36 -98.5t112 -30.5t112 30.5t36 98.5v387q0 28 9 37t37 9h14q28 0 37 -9t9 -37v-387q0 -114 -65 -171t-189 -57q-253 0 -253 228zM315 680q-40 0 -65 24.5t-25 65.5t25.5 66t64.5 25q40 0 66 -25t26 -66
t-26 -65.5t-66 -24.5zM315 730q19 0 30.5 11.5t11.5 28.5q0 18 -11.5 30t-30.5 12q-18 0 -29.5 -12t-11.5 -30q0 -17 11.5 -28.5t29.5 -11.5z" />
    <glyph glyph-name="uring" unicode="&#x16f;" horiz-adv-x="537" 
d="M154 451v-267q0 -54 25 -76t90 -22q64 0 89 22t25 76v267q0 27 9 36t36 9h13q27 0 36 -9t9 -36v-267q0 -99 -53 -147t-164 -48q-218 0 -218 195v267q0 27 9 36t36 9h13q27 0 36 -9t9 -36zM267 537q-40 0 -65 24.5t-25 65.5t25.5 66t64.5 25q40 0 66 -25t26 -66t-26 -65.5
t-66 -24.5zM267 587q19 0 30.5 11.5t11.5 28.5q0 18 -11.5 30t-30.5 12q-18 0 -29.5 -12t-11.5 -30q0 -17 11.5 -28.5t29.5 -11.5z" />
    <glyph glyph-name="Uhungarumlaut" unicode="&#x170;" horiz-adv-x="632" 
d="M63 217v387q0 28 9 37t37 9h13q28 0 37 -9t9 -37v-387q0 -68 36 -98.5t112 -30.5t112 30.5t36 98.5v387q0 28 9 37t37 9h14q28 0 37 -9t9 -37v-387q0 -114 -65 -171t-189 -57q-253 0 -253 228zM321 803l-44 -69q-12 -19 -23.5 -25.5t-34.5 -6.5h-11q-22 0 -26.5 7t5.5 27
l31 65q10 22 22 29.5t37 7.5h25q25 0 28.5 -7t-9.5 -28zM467 803l-44 -69q-12 -19 -23.5 -25.5t-34.5 -6.5h-11q-22 0 -26.5 7t5.5 27l31 65q10 22 22 29.5t37 7.5h25q25 0 28.5 -7t-9.5 -28z" />
    <glyph glyph-name="uhungarumlaut" unicode="&#x171;" horiz-adv-x="537" 
d="M154 451v-267q0 -54 25 -76t90 -22q64 0 89 22t25 76v267q0 27 9 36t36 9h13q27 0 36 -9t9 -36v-267q0 -99 -53 -147t-164 -48q-218 0 -218 195v267q0 27 9 36t36 9h13q27 0 36 -9t9 -36zM278 660l-44 -69q-12 -19 -23.5 -25.5t-34.5 -6.5h-11q-22 0 -26.5 7t5.5 27
l31 65q10 22 22 29.5t37 7.5h25q25 0 28.5 -7t-9.5 -28zM424 660l-44 -69q-12 -19 -23.5 -25.5t-34.5 -6.5h-11q-22 0 -26.5 7t5.5 27l31 65q10 22 22 29.5t37 7.5h25q25 0 28.5 -7t-9.5 -28z" />
    <glyph glyph-name="Uogonek" unicode="&#x172;" horiz-adv-x="632" 
d="M63 217v387q0 28 9 37t37 9h13q28 0 37 -9t9 -37v-387q0 -68 36 -98.5t112 -30.5t112 30.5t36 98.5v387q0 28 9 37t37 9h14q28 0 37 -9t9 -37v-387q0 -204 -206 -225q-53 -44 -53 -88q0 -20 8 -27.5t27 -7.5q12 0 15 1q17 2 22.5 -3t5.5 -21v-10q0 -16 -5.5 -22.5
t-22.5 -9.5q-18 -3 -34 -3q-52 0 -75 20.5t-23 68.5q0 35 13.5 58t43.5 42q-223 13 -223 227z" />
    <glyph glyph-name="uogonek" unicode="&#x173;" horiz-adv-x="537" 
d="M154 451v-267q0 -54 25 -76t90 -22q64 0 89 22t25 76v267q0 27 9 36t36 9h13q27 0 36 -9t9 -36v-267q0 -99 -53 -147t-164 -48q-218 0 -218 195v267q0 27 9 36t36 9h13q27 0 36 -9t9 -36zM275 0h71q-54 -38 -69 -54t-15 -42q0 -20 8 -27.5t27 -7.5q12 0 15 1
q17 2 22.5 -3t5.5 -21v-10q0 -16 -5.5 -22.5t-22.5 -9.5q-18 -3 -34 -3q-52 0 -75 20.5t-23 68.5q0 39 20.5 62t74.5 48z" />
    <glyph glyph-name="Ydieresis" unicode="&#x178;" horiz-adv-x="632" 
d="M268 46v214q-30 10 -47 27q-13 13 -43 68l-134 249q-15 28 -9.5 37t36.5 9h14q32 0 47 -9t28 -37l94 -185q21 -42 35 -59q12 -12 32 -12q21 0 31 12q14 17 35 59l94 185q14 28 29 37t47 9h14q31 0 36.5 -9t-9.5 -37l-135 -249q-30 -54 -44 -68q-17 -17 -45 -27v-214
q0 -28 -9 -37t-37 -9h-14q-28 0 -37 9t-9 37zM232 827q24 0 40.5 -17t16.5 -40t-16.5 -39.5t-40.5 -16.5q-23 0 -39.5 16.5t-16.5 39.5t16.5 40t39.5 17zM371 730q-17 17 -17 40t17 40t40 17t39 -17q17 -17 17 -40t-17 -40q-16 -16 -39 -16t-40 16z" />
    <glyph glyph-name="Zacute" unicode="&#x179;" horiz-adv-x="555" 
d="M55 596v9q0 27 9 36t36 9h287q72 0 105 -27t33 -84q0 -40 -16 -70t-55 -63l-295 -244q-30 -24 -30 -43q0 -20 37 -20h316q27 0 36 -9t9 -36v-9q0 -27 -9 -36t-36 -9h-314q-76 0 -108 25t-32 79q0 44 15.5 74t55.5 62l298 246q25 19 25 39q0 26 -41 26h-281q-27 0 -36 9
t-9 36zM364 803l-44 -69q-12 -19 -23.5 -25.5t-34.5 -6.5h-11q-22 0 -26.5 7t5.5 27l31 65q10 22 22 29.5t37 7.5h25q25 0 28.5 -7t-9.5 -28z" />
    <glyph glyph-name="zacute" unicode="&#x17a;" horiz-adv-x="482" 
d="M62 443v13q0 24 8 32t32 8h230q64 0 90 -23.5t26 -79.5q0 -42 -16 -67q-14 -24 -61 -53l-222 -135q-21 -14 -21 -27q0 -18 32 -18h248q24 0 32 -8t8 -32v-13q0 -24 -8 -32t-32 -8h-259q-115 0 -115 102q0 74 76 120l220 135q24 17 24 29q0 17 -32 17h-220q-24 0 -32 8
t-8 32zM336 660l-44 -69q-12 -19 -23.5 -25.5t-34.5 -6.5h-11q-22 0 -26.5 7t5.5 27l31 65q10 22 22 29.5t37 7.5h25q25 0 28.5 -7t-9.5 -28z" />
    <glyph glyph-name="Zdotaccent" unicode="&#x17b;" horiz-adv-x="555" 
d="M55 596v9q0 27 9 36t36 9h287q72 0 105 -27t33 -84q0 -40 -16 -70t-55 -63l-295 -244q-30 -24 -30 -43q0 -20 37 -20h316q27 0 36 -9t9 -36v-9q0 -27 -9 -36t-36 -9h-314q-76 0 -108 25t-32 79q0 44 15.5 74t55.5 62l298 246q25 19 25 39q0 26 -41 26h-281q-27 0 -36 9
t-9 36zM250 729q-19 19 -19 45t19 44q19 19 45 19t44 -19q19 -18 19 -44t-19 -45q-18 -18 -44 -18t-45 18z" />
    <glyph glyph-name="zdotaccent" unicode="&#x17c;" horiz-adv-x="482" 
d="M62 443v13q0 24 8 32t32 8h230q64 0 90 -23.5t26 -79.5q0 -42 -16 -67q-14 -24 -61 -53l-222 -135q-21 -14 -21 -27q0 -18 32 -18h248q24 0 32 -8t8 -32v-13q0 -24 -8 -32t-32 -8h-259q-115 0 -115 102q0 74 76 120l220 135q24 17 24 29q0 17 -32 17h-220q-24 0 -32 8
t-8 32zM217 604q-19 19 -19 45t19 44q19 19 45 19t44 -19q19 -18 19 -44t-19 -45q-18 -18 -44 -18t-45 18z" />
    <glyph glyph-name="Zcaron" unicode="&#x17d;" horiz-adv-x="555" 
d="M55 596v9q0 27 9 36t36 9h287q72 0 105 -27t33 -84q0 -40 -16 -70t-55 -63l-295 -244q-30 -24 -30 -43q0 -20 37 -20h316q27 0 36 -9t9 -36v-9q0 -27 -9 -36t-36 -9h-314q-76 0 -108 25t-32 79q0 44 15.5 74t55.5 62l298 246q25 19 25 39q0 26 -41 26h-281q-27 0 -36 9
t-9 36zM210 748l-38 60q-11 17 -8 23t24 6h10q21 0 32 -6t21 -24l15 -24q21 -32 42 0l15 24q10 18 21 24t32 6h11q21 0 24 -6t-8 -23l-39 -60q-17 -26 -33 -35t-44 -9t-44 9t-33 35z" />
    <glyph glyph-name="zcaron" unicode="&#x17e;" horiz-adv-x="482" 
d="M62 443v13q0 24 8 32t32 8h230q64 0 90 -23.5t26 -79.5q0 -42 -16 -67q-14 -24 -61 -53l-222 -135q-21 -14 -21 -27q0 -18 32 -18h248q24 0 32 -8t8 -32v-13q0 -24 -8 -32t-32 -8h-259q-115 0 -115 102q0 74 76 120l220 135q24 17 24 29q0 17 -32 17h-220q-24 0 -32 8
t-8 32zM181 604l-38 60q-11 17 -8 23t24 6h10q21 0 32 -6t21 -24l15 -24q21 -32 42 0l15 24q10 18 21 24t32 6h11q21 0 24 -6t-8 -23l-39 -60q-17 -26 -33 -35t-44 -9t-44 9t-33 35z" />
    <glyph glyph-name="florin" unicode="&#x192;" horiz-adv-x="499" 
d="M87 315v9q0 20 6.5 26.5t26.5 6.5h90l14 91q20 122 57 168q39 48 139 48q2 0 6.5 -0.5t13 -1t14.5 -0.5q23 -3 30 -11t7 -33v-10q0 -25 -8.5 -33t-34.5 -8h-12q-52 0 -72 -21q-19 -21 -33 -101l-14 -88h115q20 0 26.5 -6.5t6.5 -26.5v-9q0 -19 -6.5 -26t-26.5 -7h-127
l-30 -194q-18 -120 -44 -184q-22 -50 -60 -70q-35 -18 -111 -23h-9q-25 0 -33.5 9t-8.5 35v11q0 26 7.5 33.5t33.5 7.5h4q58 0 77 34q20 36 38 153l29 188h-78q-20 0 -26.5 7t-6.5 26z" />
    <glyph glyph-name="Ohorn" unicode="&#x1a0;" horiz-adv-x="680" 
d="M318 -12q-149 0 -207 67t-58 197v143q0 129 58 196q59 68 207 68t207 -68l10 -14q7 -5 21 -5q18 0 24.5 9t6.5 33q0 4 -0.5 16.5t-0.5 14.5q2 14 22 14h42q14 0 19.5 -5t7.5 -18q3 -16 3 -36q0 -112 -104 -123q7 -41 7 -82v-143q0 -129 -59 -197q-58 -67 -206 -67z
M445 126q32 41 32 126v143q0 88 -32 126q-31 39 -127 39t-127 -39q-32 -38 -32 -126v-143q0 -85 32 -126q31 -39 127 -39t127 39z" />
    <glyph glyph-name="ohorn" unicode="&#x1a1;" horiz-adv-x="615" 
d="M274 -11q-118 0 -174 53t-56 163v86q0 216 230 216q141 0 194 -80q7 -7 23 -7q18 0 24.5 9t6.5 33q0 4 -0.5 16.5t-0.5 14.5q2 14 22 14h42q14 0 19.5 -5t7.5 -18q3 -16 3 -36q0 -120 -114 -124q1 -7 1 -33v-86q0 -106 -57.5 -161t-170.5 -55zM274 86q71 0 98 26.5
t27 92.5v86q0 66 -27.5 93t-97.5 27q-71 0 -99 -27t-28 -93v-86q0 -65 28 -92t99 -27z" />
    <glyph glyph-name="Uhorn" unicode="&#x1af;" horiz-adv-x="724" 
d="M316 -11q-253 0 -253 228v387q0 28 9 37t37 9h13q28 0 37 -9t9 -37v-387q0 -68 36 -98.5t112 -30.5t112 30.5t36 98.5v387q0 28 9 37t37 9h14q28 0 37 -9t9 -37q0 -22 6.5 -31.5t24.5 -9.5t24.5 9t6.5 33q0 4 -0.5 16.5t-0.5 14.5q2 14 22 14h42q14 0 19.5 -5t7.5 -18
q3 -17 3 -36q0 -124 -127 -124q-13 0 -28 5v-255q0 -114 -65 -171t-189 -57z" />
    <glyph glyph-name="uhorn" unicode="&#x1b0;" horiz-adv-x="641" 
d="M269 -11q-218 0 -218 195v267q0 27 9 36t36 9h13q27 0 36 -9t9 -36v-267q0 -54 25 -76t90 -22q64 0 89 22t25 76v267q0 27 9 36t36 9h13q27 0 36 -9t9 -37q0 -22 6.5 -31.5t24.5 -9.5t24.5 9t6.5 33q0 4 -0.5 16.5t-0.5 14.5q2 14 22 14h42q14 0 19.5 -5t7.5 -18
q3 -17 3 -36q0 -124 -127 -124q-13 0 -28 5v-134q0 -99 -53 -147t-164 -48z" />
    <glyph glyph-name="Scommaaccent" unicode="&#x218;" horiz-adv-x="525" 
d="M199 -316l-3 1q-13 4 -13 21q0 10 15 51q16 40 21 85q6 58 14.5 75.5t33.5 17.5q40 0 40 -52q0 -44 -23 -93q-15 -33 -62 -93q-13 -16 -23 -13zM43 62v16q0 27 9 34.5t32 -0.5q76 -24 162 -24q69 0 99 16t30 54q0 30 -18 48q-17 18 -68 49l-138 83q-100 60 -100 163
q0 80 54 119t167 39q76 0 139 -20q27 -8 35 -17t8 -33v-17q0 -27 -7.5 -33.5t-32.5 0.5q-63 21 -142 21q-60 0 -86.5 -14t-26.5 -48q0 -24 13 -40t50 -38l142 -87q65 -39 92 -77.5t27 -97.5q0 -169 -239 -169q-89 0 -161 23q-25 8 -32.5 17t-7.5 33z" />
    <glyph glyph-name="scommaaccent" unicode="&#x219;" horiz-adv-x="463" 
d="M169 -316l-3 1q-13 4 -13 21q0 10 15 51q16 40 21 85q6 58 14.5 75.5t33.5 17.5q40 0 40 -52q0 -44 -23 -93q-15 -33 -62 -93q-13 -16 -23 -13zM40 55v13q0 26 8 33.5t32 1.5q70 -19 146 -19q51 0 72 9.5t21 33.5q0 19 -13 31t-51 29l-108 48q-54 24 -76.5 54t-22.5 82
q0 70 46 103t145 33q62 0 116 -15q27 -8 34.5 -17t7.5 -33v-12q0 -26 -8.5 -33.5t-32.5 -0.5q-54 16 -119 16q-48 0 -68 -9.5t-20 -31.5q0 -18 10 -28.5t37 -22.5l116 -50q58 -24 82.5 -56t24.5 -85q0 -72 -48.5 -106t-153.5 -34q-71 0 -137 17q-25 7 -32.5 16t-7.5 33z" />
    <glyph glyph-name="Tcommaaccent" unicode="&#x21a;" horiz-adv-x="564" 
d="M209 -316l-3 1q-13 4 -13 21q0 10 15 51q16 40 21 85q6 58 14.5 75.5t33.5 17.5q40 0 40 -52q0 -44 -23 -93q-15 -33 -62 -93q-13 -16 -23 -13zM28 596v9q0 27 9 36t36 9h417q27 0 36 -9t9 -36v-9q0 -27 -9 -36t-36 -9h-155v-505q0 -28 -9 -37t-37 -9h-14q-28 0 -37 9
t-9 37v505h-156q-27 0 -36 9t-9 36z" />
    <glyph glyph-name="tcommaaccent" unicode="&#x21b;" horiz-adv-x="423" 
d="M179 -316l-3 1q-13 4 -13 21q0 10 15 51q16 40 21 85q6 58 14.5 75.5t33.5 17.5q40 0 40 -52q0 -44 -23 -93q-15 -33 -62 -93q-13 -16 -23 -13zM14 435v10q0 21 7 29t27 12l53 10l12 94q3 22 11 29t30 7h13q22 0 29 -7t7 -29v-94h140q25 0 33.5 -8t8.5 -34v-12
q0 -26 -8.5 -34t-33.5 -8h-140v-227q0 -87 78 -87q45 0 81 9q25 5 33 -2t8 -33v-12q0 -25 -8 -35t-33 -15q-46 -8 -81 -8q-180 0 -180 184v226h-52q-21 0 -28 7t-7 28z" />
    <glyph glyph-name="circumflex" unicode="&#x2c6;" horiz-adv-x="405" 
d="M90 779l38 60q17 26 33 35t44 9t44 -9t33 -35l39 -60q11 -17 8 -23t-24 -6h-11q-21 0 -32 6t-21 24l-15 24q-21 32 -42 0l-15 -24q-10 -18 -21 -24t-32 -6h-10q-21 0 -24 6t8 23z" />
    <glyph glyph-name="caron" unicode="&#x2c7;" horiz-adv-x="405" 
d="M128 794l-38 60q-11 17 -8 23t24 6h10q21 0 32 -6t21 -24l15 -24q21 -32 42 0l15 24q10 18 21 24t32 6h11q21 0 24 -6t-8 -23l-39 -60q-17 -26 -33 -35t-44 -9t-44 9t-33 35z" />
    <glyph glyph-name="breve" unicode="&#x2d8;" horiz-adv-x="390" 
d="M60 855v4q0 13 6 17.5t25 4.5h11q19 0 25 -4.5t6 -17.5v-4q0 -22 14.5 -31.5t47.5 -9.5t47.5 9.5t14.5 31.5v4q0 13 6 17.5t25 4.5h11q19 0 25 -4.5t6 -17.5v-4q0 -105 -135 -105t-135 105z" />
    <glyph glyph-name="dotaccent" unicode="&#x2d9;" horiz-adv-x="202" 
d="M43 808q0 25 16.5 42t41.5 17t42 -17t17 -42q0 -24 -17 -41t-42 -17t-41.5 17t-16.5 41z" />
    <glyph glyph-name="ring" unicode="&#x2da;" horiz-adv-x="282" 
d="M140 750q-40 0 -65 24.5t-25 65.5t25.5 66t64.5 25q40 0 66 -25t26 -66t-26 -65.5t-66 -24.5zM140 800q19 0 30.5 11.5t11.5 28.5q0 18 -11.5 30t-30.5 12q-18 0 -29.5 -12t-11.5 -30q0 -17 11.5 -28.5t29.5 -11.5z" />
    <glyph glyph-name="ogonek" unicode="&#x2db;" horiz-adv-x="259" 
d="M142 0h71q-54 -38 -69 -54t-15 -42q0 -20 8 -27.5t27 -7.5q12 0 15 1q17 2 22.5 -3t5.5 -21v-10q0 -16 -5.5 -22.5t-22.5 -9.5q-18 -3 -34 -3q-52 0 -75 20.5t-23 68.5q0 39 20.5 62t74.5 48z" />
    <glyph glyph-name="tilde" unicode="&#x2dc;" horiz-adv-x="489" 
d="M114 761h-8q-17 0 -22.5 4.5t-4.5 17.5q9 101 100 101q35 0 79 -29t58 -29q30 0 31 28q1 25 30 25h8q15 0 21.5 -5t5.5 -17q-8 -101 -99 -101q-37 0 -81 29t-57 29q-29 0 -32 -33q-2 -12 -7.5 -16t-21.5 -4z" />
    <glyph glyph-name="hungarumlaut" unicode="&#x2dd;" horiz-adv-x="427" 
d="M209 851l-44 -69q-12 -19 -23.5 -25.5t-34.5 -6.5h-11q-22 0 -26.5 7t5.5 27l31 65q10 22 22 29.5t37 7.5h25q25 0 28.5 -7t-9.5 -28zM355 851l-44 -69q-12 -19 -23.5 -25.5t-34.5 -6.5h-11q-22 0 -26.5 7t5.5 27l31 65q10 22 22 29.5t37 7.5h25q25 0 28.5 -7t-9.5 -28z
" />
    <glyph glyph-name="gravecomb" unicode="&#x300;" horiz-adv-x="0" 
d="M-212 559h-11q-23 0 -34.5 6.5t-23.5 25.5l-44 69q-13 21 -9.5 28t28.5 7h25q25 0 37 -7.5t22 -29.5l31 -65q10 -20 5.5 -27t-26.5 -7z" />
    <glyph glyph-name="acutecomb" unicode="&#x301;" horiz-adv-x="0" 
d="M-245 559h-11q-22 0 -26.5 7t5.5 27l31 65q10 22 22 29.5t37 7.5h25q25 0 28.5 -7t-9.5 -28l-44 -69q-12 -19 -23.5 -25.5t-34.5 -6.5z" />
    <glyph glyph-name="tildecomb" unicode="&#x303;" horiz-adv-x="0" 
d="M-203 563q-37 0 -81 29t-57 29q-29 0 -32 -33q-2 -12 -7.5 -16t-21.5 -4h-8q-17 0 -22.5 4.5t-4.5 17.5q9 101 100 101q35 0 79 -29t58 -29q30 0 31 28q1 25 30 25h8q15 0 21.5 -5t5.5 -17q-8 -101 -99 -101z" />
    <glyph glyph-name="hookabovecomb" unicode="&#x309;" horiz-adv-x="0" 
d="M-248 531h-25q-15 0 -20 14l-12 45q-4 16 -0.5 20t20.5 4h10q22 0 31.5 6.5t9.5 24.5t-9 24.5t-33 6.5q-5 0 -14 -1t-14 -1t-10.5 1.5t-7.5 6t-1 13.5v6q0 14 5 19.5t18 8.5q13 4 36 4q55 0 80.5 -21t25.5 -68q0 -39 -20 -55t-65 -14l7 -30q5 -14 -12 -14z" />
    <glyph glyph-name="dotbelowcomb" unicode="&#x323;" horiz-adv-x="0" 
d="M-250 -186q-27 0 -46 19t-19 46t19 46t46 19t46 -19t19 -46t-19 -46t-46 -19z" />
    <glyph glyph-name="afii10023" unicode="&#x401;" horiz-adv-x="562" 
d="M470 0h-283q-60 0 -87 27t-27 87v422q0 60 27 87t87 27h283q27 0 36 -9t9 -36v-9q0 -27 -9 -36t-36 -9h-253q-39 0 -39 -38v-128h252q27 0 36 -9t9 -36v-9q0 -27 -9 -36t-36 -9h-252v-149q0 -38 39 -38h253q27 0 36 -9t9 -36v-9q0 -27 -9 -36t-36 -9zM212 714
q-23 0 -39.5 16.5t-16.5 39.5t16.5 40t39.5 17q24 0 40.5 -17t16.5 -40t-16.5 -39.5t-40.5 -16.5zM351 730q-17 17 -17 40t17 40t40 17t39 -17q17 -17 17 -40t-17 -40q-16 -16 -39 -16t-40 16z" />
    <glyph glyph-name="afii10051" unicode="&#x402;" horiz-adv-x="775" 
d="M571 -176q-28 -24 -54 14l-7 10q-14 22 -12.5 34t17.5 27q82 73 82 211q0 77 -38.5 114t-124.5 37q-67 0 -109 -13v-212q0 -28 -9 -37t-37 -9h-14q-28 0 -37 9t-9 37v505h-146q-27 0 -36 9t-9 36v9q0 27 9 36t36 9h397q27 0 36 -9t9 -36v-9q0 -27 -9 -36t-36 -9h-145
v-194q43 13 111 13q136 0 201 -60.5t65 -189.5q0 -98 -34 -167q-34 -75 -97 -129z" />
    <glyph glyph-name="afii10052" unicode="&#x403;" horiz-adv-x="562" 
d="M132 0h-13q-28 0 -37 9t-9 37v490q0 60 27 87t87 27h283q27 0 36 -9t9 -36v-9q0 -27 -9 -36t-36 -9h-253q-39 0 -39 -38v-467q0 -28 -9 -37t-37 -9zM285 702h-11q-22 0 -26.5 7t5.5 27l31 65q10 22 22 29.5t37 7.5h25q25 0 28.5 -7t-9.5 -28l-44 -69q-12 -19 -23.5 -25.5
t-34.5 -6.5z" />
    <glyph glyph-name="afii10053" unicode="&#x404;" horiz-adv-x="529" 
d="M322 -11q-137 0 -203 61t-66 189v160q0 260 269 260q75 0 126 -21q28 -12 35 -20.5t7 -31.5v-15q0 -28 -8 -34.5t-33 1.5q-60 23 -129 23q-83 0 -121 -39t-38 -123v-14h182q27 0 36 -9t9 -36v-9q0 -27 -9 -36t-36 -9h-182v-47q0 -77 38.5 -114t124.5 -37q80 0 129 21
q18 7 29 -1.5t11 -31.5v-15q0 -21 -8.5 -32t-32.5 -20q-55 -20 -130 -20z" />
    <glyph glyph-name="afii10054" unicode="&#x405;" horiz-adv-x="525" 
d="M244 -11q-89 0 -161 23q-25 8 -32.5 17t-7.5 33v16q0 27 9 34.5t32 -0.5q76 -24 162 -24q69 0 99 16t30 54q0 30 -18 48q-17 18 -68 49l-138 83q-100 60 -100 163q0 80 54 119t167 39q76 0 139 -20q27 -8 35 -17t8 -33v-17q0 -27 -7.5 -33.5t-32.5 0.5q-63 21 -142 21
q-60 0 -86.5 -14t-26.5 -48q0 -24 13 -40t50 -38l142 -87q65 -39 92 -77.5t27 -97.5q0 -169 -239 -169z" />
    <glyph glyph-name="afii10055" unicode="&#x406;" horiz-adv-x="265" 
d="M139 0h-13q-28 0 -37 9t-9 37v558q0 28 9 37t37 9h13q28 0 37 -9t9 -37v-558q0 -28 -9 -37t-37 -9z" />
    <glyph glyph-name="afii10056" unicode="&#x407;" horiz-adv-x="265" 
d="M43 714q-23 0 -39.5 16.5t-16.5 39.5t16.5 40t39.5 17q24 0 40.5 -17t16.5 -40t-16.5 -39.5t-40.5 -16.5zM182 730q-17 17 -17 40t17 40t40 17t39 -17q17 -17 17 -40t-17 -40q-16 -16 -39 -16t-40 16zM139 0h-13q-28 0 -37 9t-9 37v558q0 28 9 37t37 9h13q28 0 37 -9
t9 -37v-558q0 -28 -9 -37t-37 -9z" />
    <glyph glyph-name="afii10057" unicode="&#x408;" horiz-adv-x="265" 
d="M57 -176q-28 -24 -54 14l-7 10q-14 22 -12.5 34t17.5 27q83 75 83 240v455q0 28 9 37t37 9h13q28 0 37 -9t9 -37v-448q0 -127 -35 -203q-34 -75 -97 -129z" />
    <glyph glyph-name="afii10058" unicode="&#x409;" horiz-adv-x="979" 
d="M696 0h-132q-60 0 -87 27t-27 87v399q0 38 -39 38h-124q-39 0 -39 -38v-171q0 -127 -35 -203q-34 -75 -97 -129q-28 -24 -54 14l-7 10q-14 22 -12.5 34t17.5 27q83 75 83 240v201q0 60 27 87t87 27h184q60 0 87 -27t27 -87v-154h141q116 0 175 -49t59 -142t-59 -142
t-175 -49zM594 99h96q75 0 104 20.5t29 71.5t-29 71.5t-104 20.5h-135v-146q0 -38 39 -38z" />
    <glyph glyph-name="afii10059" unicode="&#x40a;" horiz-adv-x="979" 
d="M132 0h-13q-28 0 -37 9t-9 37v558q0 28 9 37t37 9h13q28 0 37 -9t9 -37v-212h272v212q0 28 9 37t37 9h13q28 0 37 -9t9 -37v-222h141q116 0 175 -49t59 -142t-59 -142t-175 -49h-132q-60 0 -87 27t-27 87v179h-272v-247q0 -28 -9 -37t-37 -9zM594 99h96q75 0 104 20.5
t29 71.5t-29 71.5t-104 20.5h-135v-146q0 -38 39 -38z" />
    <glyph glyph-name="afii10060" unicode="&#x40b;" horiz-adv-x="774" 
d="M278 0h-13q-28 0 -37 9t-9 37v505h-146q-27 0 -36 9t-9 36v9q0 27 9 36t36 9h396q27 0 36 -9t9 -36v-9q0 -27 -9 -36t-36 -9h-145v-194q43 13 111 13q136 0 201 -60.5t65 -189.5v-74q0 -28 -9 -37t-37 -9h-13q-28 0 -37 9t-9 37v74q0 77 -38.5 114t-124.5 37
q-67 0 -109 -13v-212q0 -28 -9 -37t-37 -9z" />
    <glyph glyph-name="afii10061" unicode="&#x40c;" horiz-adv-x="585" 
d="M132 0h-13q-28 0 -37 9t-9 37v558q0 28 9 37t37 9h13q28 0 37 -9t9 -37v-558q0 -28 -9 -37t-37 -9zM525 0h-18q-32 0 -49.5 8.5t-38.5 33.5l-156 193q-47 59 -47 106t47 104l136 163q21 25 38.5 33.5t49.5 8.5h18q33 0 37 -8t-17 -34l-166 -202q-21 -26 -35 -45
q-7 -10 -7 -22q0 -10 7 -20q13 -18 35 -46l186 -231q20 -26 16 -34t-36 -8zM285 702h-11q-22 0 -26.5 7t5.5 27l31 65q10 22 22 29.5t37 7.5h25q25 0 28.5 -7t-9.5 -28l-44 -69q-12 -19 -23.5 -25.5t-34.5 -6.5z" />
    <glyph glyph-name="afii10062" unicode="&#x40e;" horiz-adv-x="632" 
d="M223 0h-14q-31 0 -36.5 9t9.5 37l115 208q-51 6 -76 33q-13 13 -43 68l-134 249q-15 28 -9.5 37t36.5 9h14q32 0 47 -9t28 -37l94 -185q21 -42 35 -59q12 -12 32 -12q21 0 31 12q14 17 35 59l94 185q14 28 29 37t47 9h14q31 0 36.5 -9t-9.5 -37l-299 -558
q-14 -28 -29 -37t-47 -9zM186 809v4q0 13 6 17.5t25 4.5h11q19 0 25 -4.5t6 -17.5v-4q0 -22 14.5 -31.5t47.5 -9.5t47.5 9.5t14.5 31.5v4q0 13 6 17.5t25 4.5h11q19 0 25 -4.5t6 -17.5v-4q0 -105 -135 -105t-135 105z" />
    <glyph glyph-name="afii10145" unicode="&#x40f;" horiz-adv-x="628" 
d="M321 -200h-13q-28 0 -37 9t-9 37v154h-75q-60 0 -87 27t-27 87v490q0 28 9 37t37 9h13q28 0 37 -9t9 -37v-467q0 -38 39 -38h194q39 0 39 38v467q0 28 9 37t37 9h13q28 0 37 -9t9 -37v-490q0 -60 -27 -87t-87 -27h-74v-154q0 -28 -9 -37t-37 -9z" />
    <glyph glyph-name="afii10017" unicode="&#x410;" 
d="M87 0h-14q-28 0 -34.5 9t0.5 35l123 447q27 97 57 132q31 36 104 36t103 -36q30 -35 57 -132l123 -447q7 -26 0.5 -35t-34.5 -9h-14q-27 0 -38.5 8.5t-19.5 35.5l-37 136h-281l-37 -136q-8 -27 -19.5 -35.5t-38.5 -8.5zM266 493l-59 -218h231l-59 218q-12 46 -22 59
t-34 13t-34.5 -13.5t-22.5 -58.5z" />
    <glyph glyph-name="afii10018" unicode="&#x411;" horiz-adv-x="602" 
d="M319 0h-132q-60 0 -87 27t-27 87v422q0 60 27 87t87 27h283q27 0 36 -9t9 -36v-9q0 -27 -9 -36t-36 -9h-253q-39 0 -39 -38v-131h141q116 0 175 -49t59 -142t-59 -142t-175 -49zM217 99h96q75 0 104 20.5t29 71.5t-29 71.5t-104 20.5h-135v-146q0 -38 39 -38z" />
    <glyph glyph-name="afii10019" unicode="&#x412;" horiz-adv-x="602" 
d="M319 0h-132q-60 0 -87 27t-27 87v422q0 60 27 87t87 27h132q214 0 214 -173q0 -56 -21.5 -88t-71.5 -50v-4q62 -20 87.5 -55t25.5 -96q0 -184 -234 -184zM217 99h96q75 0 104 20.5t29 71.5q0 50 -26.5 73t-87.5 23h-154v-150q0 -38 39 -38zM178 513v-135h141
q56 0 81.5 21.5t25.5 66.5q0 44 -25 64.5t-82 20.5h-102q-39 0 -39 -38z" />
    <glyph glyph-name="afii10020" unicode="&#x413;" horiz-adv-x="562" 
d="M132 0h-13q-28 0 -37 9t-9 37v490q0 60 27 87t87 27h283q27 0 36 -9t9 -36v-9q0 -27 -9 -36t-36 -9h-253q-39 0 -39 -38v-467q0 -28 -9 -37t-37 -9z" />
    <glyph glyph-name="afii10021" unicode="&#x414;" horiz-adv-x="628" 
d="M46 -200h-13q-28 0 -37 9t-9 37v139q0 49 17.5 75.5t55.5 34.5q83 75 83 240v201q0 60 27 87t87 27h184q60 0 87 -27t27 -87v-437q60 0 87 -27t27 -87v-139q0 -28 -9 -37t-37 -9h-13q-28 0 -37 9t-9 37v116q0 38 -39 38h-29h-8h-357q-39 0 -39 -38v-116q0 -28 -9 -37
t-37 -9zM191 99h259v414q0 38 -39 38h-124q-39 0 -39 -38v-171q0 -127 -35 -203q-9 -20 -22 -40z" />
    <glyph glyph-name="afii10022" unicode="&#x415;" horiz-adv-x="562" 
d="M470 0h-283q-60 0 -87 27t-27 87v422q0 60 27 87t87 27h283q27 0 36 -9t9 -36v-9q0 -27 -9 -36t-36 -9h-253q-39 0 -39 -38v-128h252q27 0 36 -9t9 -36v-9q0 -27 -9 -36t-36 -9h-252v-149q0 -38 39 -38h253q27 0 36 -9t9 -36v-9q0 -27 -9 -36t-36 -9z" />
    <glyph glyph-name="afii10024" unicode="&#x416;" horiz-adv-x="919" 
d="M78 0h-18q-32 0 -36 8t16 34l186 231q22 28 35 46q7 10 7 20q0 12 -7 22q-14 19 -35 45l-166 202q-21 26 -17 34t37 8h18q32 0 49.5 -8.5t38.5 -33.5l136 -163q47 -57 47 -104t-47 -106l-156 -193q-21 -25 -38.5 -33.5t-49.5 -8.5zM466 0h-13q-28 0 -37 9t-9 37v558
q0 28 9 37t37 9h13q28 0 37 -9t9 -37v-558q0 -28 -9 -37t-37 -9zM859 0h-18q-32 0 -49.5 8.5t-38.5 33.5l-156 193q-47 59 -47 106t47 104l136 163q21 25 38.5 33.5t49.5 8.5h18q33 0 37 -8t-17 -34l-166 -202q-21 -26 -35 -45q-7 -10 -7 -22q0 -10 7 -20q13 -18 35 -46
l186 -231q20 -26 16 -34t-36 -8z" />
    <glyph glyph-name="afii10025" unicode="&#x417;" horiz-adv-x="495" 
d="M207 -11q-75 0 -130 20q-24 9 -32.5 20t-8.5 32v15q0 23 11 31.5t29 1.5q50 -21 129 -21q73 0 102 23t29 78q0 52 -30.5 76.5t-101.5 24.5h-7q-23 0 -30.5 8t-7.5 30v12q0 22 7.5 30t30.5 8h7q67 0 94.5 20.5t27.5 69.5q0 52 -25.5 72.5t-91.5 20.5q-69 0 -129 -23
q-25 -8 -33 -1.5t-8 34.5v15q0 23 7 31.5t35 20.5q51 21 126 21q225 0 225 -185q0 -52 -20 -85t-64 -54q94 -34 94 -146q0 -200 -235 -200z" />
    <glyph glyph-name="afii10026" unicode="&#x418;" horiz-adv-x="628" 
d="M132 0h-13q-28 0 -37 9t-9 37v558q0 28 9 37t37 9h13q28 0 37 -9t9 -37v-399l276 428q11 17 42 17h13q28 0 37 -9t9 -37v-558q0 -28 -9 -37t-37 -9h-13q-28 0 -37 9t-9 37v399l-276 -428q-11 -17 -42 -17z" />
    <glyph glyph-name="afii10027" unicode="&#x419;" horiz-adv-x="628" 
d="M132 0h-13q-28 0 -37 9t-9 37v558q0 28 9 37t37 9h13q28 0 37 -9t9 -37v-399l276 428q11 17 42 17h13q28 0 37 -9t9 -37v-558q0 -28 -9 -37t-37 -9h-13q-28 0 -37 9t-9 37v399l-276 -428q-11 -17 -42 -17zM179 809v4q0 13 6 17.5t25 4.5h11q19 0 25 -4.5t6 -17.5v-4
q0 -22 14.5 -31.5t47.5 -9.5t47.5 9.5t14.5 31.5v4q0 13 6 17.5t25 4.5h11q19 0 25 -4.5t6 -17.5v-4q0 -105 -135 -105t-135 105z" />
    <glyph glyph-name="afii10028" unicode="&#x41a;" horiz-adv-x="585" 
d="M132 0h-13q-28 0 -37 9t-9 37v558q0 28 9 37t37 9h13q28 0 37 -9t9 -37v-558q0 -28 -9 -37t-37 -9zM525 0h-18q-32 0 -49.5 8.5t-38.5 33.5l-156 193q-47 59 -47 106t47 104l136 163q21 25 38.5 33.5t49.5 8.5h18q33 0 37 -8t-17 -34l-166 -202q-21 -26 -35 -45
q-7 -10 -7 -22q0 -10 7 -20q13 -18 35 -46l186 -231q20 -26 16 -34t-36 -8z" />
    <glyph glyph-name="afii10029" unicode="&#x41b;" horiz-adv-x="628" 
d="M509 0h-13q-28 0 -37 9t-9 37v467q0 38 -39 38h-124q-39 0 -39 -38v-171q0 -127 -35 -203q-34 -75 -97 -129q-28 -24 -54 14l-7 10q-14 22 -12.5 34t17.5 27q83 75 83 240v201q0 60 27 87t87 27h184q60 0 87 -27t27 -87v-490q0 -28 -9 -37t-37 -9z" />
    <glyph glyph-name="afii10030" unicode="&#x41c;" horiz-adv-x="822" 
d="M97 0h-15q-28 0 -36.5 9t-6.5 37l34 463q6 78 38.5 112.5t98.5 34.5q62 0 93 -34t41 -113l47 -386q3 -23 7 -29.5t15 -6.5q10 0 14 6.5t7 29.5l47 386q10 78 41.5 112.5t92.5 34.5q67 0 99 -34t38 -113l35 -463q2 -28 -6.5 -37t-36.5 -9h-15q-28 0 -37.5 9t-11.5 37
l-32 462q-2 32 -9.5 43t-25.5 11q-16 0 -23.5 -11.5t-11.5 -42.5l-54 -402q-8 -61 -31.5 -83.5t-79.5 -22.5q-52 0 -77.5 24t-33.5 82l-55 402q-4 30 -12 42t-24 12q-30 0 -34 -54l-31 -462q-1 -27 -11 -36.5t-38 -9.5z" />
    <glyph glyph-name="afii10031" unicode="&#x41d;" horiz-adv-x="628" 
d="M132 0h-13q-28 0 -37 9t-9 37v558q0 28 9 37t37 9h13q28 0 37 -9t9 -37v-212h272v212q0 28 9 37t37 9h13q28 0 37 -9t9 -37v-558q0 -28 -9 -37t-37 -9h-13q-28 0 -37 9t-9 37v247h-272v-247q0 -28 -9 -37t-37 -9z" />
    <glyph glyph-name="afii10032" unicode="&#x41e;" horiz-adv-x="636" 
d="M318 -12q-149 0 -207 67t-58 197v143q0 129 58 196q59 68 207 68t207 -68q58 -67 58 -196v-143q0 -129 -59 -197q-58 -67 -206 -67zM445 126q32 41 32 126v143q0 88 -32 126q-31 39 -127 39t-127 -39q-32 -38 -32 -126v-143q0 -85 32 -126q31 -39 127 -39t127 39z" />
    <glyph glyph-name="afii10033" unicode="&#x41f;" horiz-adv-x="628" 
d="M132 0h-13q-28 0 -37 9t-9 37v490q0 60 27 87t87 27h254q60 0 87 -27t27 -87v-490q0 -28 -9 -37t-37 -9h-13q-28 0 -37 9t-9 37v467q0 38 -39 38h-194q-39 0 -39 -38v-467q0 -28 -9 -37t-37 -9z" />
    <glyph glyph-name="afii10034" unicode="&#x420;" horiz-adv-x="597" 
d="M132 0h-13q-28 0 -37 9t-9 37v490q0 60 27 87t87 27h155q113 0 166 -53t53 -159q0 -212 -219 -212h-164v-180q0 -28 -9 -37t-37 -9zM178 513v-188h164q63 0 88.5 26t25.5 87t-26 87t-88 26h-125q-39 0 -39 -38z" />
    <glyph glyph-name="afii10035" unicode="&#x421;" horiz-adv-x="529" 
d="M322 -11q-137 0 -203 61t-66 189v160q0 260 269 260q75 0 126 -21q28 -12 35 -20.5t7 -31.5v-15q0 -28 -8 -34.5t-33 1.5q-60 23 -129 23q-83 0 -121 -39t-38 -123v-160q0 -77 38.5 -114t124.5 -37q80 0 129 21q18 7 29 -1.5t11 -31.5v-15q0 -21 -8.5 -32t-32.5 -20
q-55 -20 -130 -20z" />
    <glyph glyph-name="afii10036" unicode="&#x422;" horiz-adv-x="564" 
d="M289 0h-14q-28 0 -37 9t-9 37v505h-156q-27 0 -36 9t-9 36v9q0 27 9 36t36 9h417q27 0 36 -9t9 -36v-9q0 -27 -9 -36t-36 -9h-155v-505q0 -28 -9 -37t-37 -9z" />
    <glyph glyph-name="afii10037" unicode="&#x423;" horiz-adv-x="632" 
d="M223 0h-14q-31 0 -36.5 9t9.5 37l115 208q-51 6 -76 33q-13 13 -43 68l-134 249q-15 28 -9.5 37t36.5 9h14q32 0 47 -9t28 -37l94 -185q21 -42 35 -59q12 -12 32 -12q21 0 31 12q14 17 35 59l94 185q14 28 29 37t47 9h14q31 0 36.5 -9t-9.5 -37l-299 -558
q-14 -28 -29 -37t-47 -9z" />
    <glyph glyph-name="afii10038" unicode="&#x424;" horiz-adv-x="776" 
d="M394 0h-13q-28 0 -37 9t-9 37v12h-17q-149 0 -207 67t-58 197v3q0 129 58 196q59 68 207 68h17v15q0 28 9 37t37 9h13q28 0 37 -9t9 -37v-15h18q148 0 207 -68q58 -67 58 -196v-3q0 -129 -59 -197q-58 -67 -206 -67h-18v-12q0 -28 -9 -37t-37 -9zM440 490v-333h18
q96 0 127 39q32 41 32 126v3q0 88 -32 126q-31 39 -127 39h-18zM318 157h17v333h-17q-96 0 -127 -39q-32 -38 -32 -126v-3q0 -85 32 -126q31 -39 127 -39z" />
    <glyph glyph-name="afii10039" unicode="&#x425;" horiz-adv-x="623" 
d="M98 0h-13q-32 0 -37.5 9t8.5 38l110 223q16 32 27 46.5t31 26.5q-26 11 -57 74l-91 186q-14 29 -8 38t37 9h13q32 0 46 -9.5t27 -37.5l68 -150q17 -38 28 -49.5t30 -11.5t29.5 11.5t27.5 49.5l68 150q13 28 27 37.5t46 9.5h14q32 0 37.5 -9t-8.5 -38l-92 -186
q-6 -15 -17 -33q-16 -30 -41 -41q32 -18 59 -73l111 -223q14 -29 8.5 -38t-37.5 -9h-14q-31 0 -45.5 9t-28.5 38l-87 186q-19 41 -29 51q-9 11 -28 11t-30 -11q-10 -12 -28 -51l-87 -186q-14 -29 -28.5 -38t-45.5 -9z" />
    <glyph glyph-name="afii10040" unicode="&#x426;" horiz-adv-x="628" 
d="M623 -200h-13q-28 0 -37 9t-9 37v116q0 38 -39 38h-338q-60 0 -87 27t-27 87v490q0 28 9 37t37 9h13q28 0 37 -9t9 -37v-467q0 -38 39 -38h233v505q0 28 9 37t37 9h13q28 0 37 -9t9 -37v-505q60 0 87 -27t27 -87v-139q0 -28 -9 -37t-37 -9z" />
    <glyph glyph-name="afii10041" unicode="&#x427;" horiz-adv-x="628" 
d="M509 0h-13q-28 0 -37 9t-9 37v247q-43 -13 -111 -13q-136 0 -201 60.5t-65 189.5v74q0 28 9 37t37 9h13q28 0 37 -9t9 -37v-74q0 -77 38.5 -114t124.5 -37q67 0 109 13v212q0 28 9 37t37 9h13q28 0 37 -9t9 -37v-558q0 -28 -9 -37t-37 -9z" />
    <glyph glyph-name="afii10042" unicode="&#x428;" horiz-adv-x="885" 
d="M698 0h-511q-60 0 -87 27t-27 87v490q0 28 9 37t37 9h13q28 0 37 -9t9 -37v-467q0 -38 39 -38h173v505q0 28 9 37t37 9h13q28 0 37 -9t9 -37v-505h173q39 0 39 38v467q0 28 9 37t37 9h13q28 0 37 -9t9 -37v-490q0 -60 -27 -87t-87 -27z" />
    <glyph glyph-name="afii10043" unicode="&#x429;" horiz-adv-x="885" 
d="M880 -200h-13q-28 0 -37 9t-9 37v116q0 38 -39 38h-595q-60 0 -87 27t-27 87v490q0 28 9 37t37 9h13q28 0 37 -9t9 -37v-467q0 -38 39 -38h173v505q0 28 9 37t37 9h13q28 0 37 -9t9 -37v-505h212v505q0 28 9 37t37 9h13q28 0 37 -9t9 -37v-505q60 0 87 -27t27 -87v-139
q0 -28 -9 -37t-37 -9z" />
    <glyph glyph-name="afii10044" unicode="&#x42a;" horiz-adv-x="748" 
d="M465 0h-132q-60 0 -87 27t-27 87v399q0 38 -39 38h-107q-27 0 -36 9t-9 36v9q0 27 9 36t36 9h137q60 0 87 -27t27 -87v-154h141q116 0 175 -49t59 -142t-59 -142t-175 -49zM363 99h96q75 0 104 20.5t29 71.5t-29 71.5t-104 20.5h-135v-146q0 -38 39 -38z" />
    <glyph glyph-name="afii10045" unicode="&#x42b;" horiz-adv-x="828" 
d="M319 0h-132q-60 0 -87 27t-27 87v490q0 28 9 37t37 9h13q28 0 37 -9t9 -37v-222h141q116 0 175 -49t59 -142t-59 -142t-175 -49zM217 99h96q75 0 104 20.5t29 71.5t-29 71.5t-104 20.5h-135v-146q0 -38 39 -38zM709 0h-13q-28 0 -37 9t-9 37v558q0 28 9 37t37 9h13
q28 0 37 -9t9 -37v-558q0 -28 -9 -37t-37 -9z" />
    <glyph glyph-name="afii10046" unicode="&#x42c;" horiz-adv-x="602" 
d="M319 0h-132q-60 0 -87 27t-27 87v490q0 28 9 37t37 9h13q28 0 37 -9t9 -37v-222h141q116 0 175 -49t59 -142t-59 -142t-175 -49zM217 99h96q75 0 104 20.5t29 71.5t-29 71.5t-104 20.5h-135v-146q0 -38 39 -38z" />
    <glyph glyph-name="afii10047" unicode="&#x42d;" horiz-adv-x="529" 
d="M207 -11q-75 0 -130 20q-24 9 -32.5 20t-8.5 32v15q0 23 11 31.5t29 1.5q50 -21 129 -21q86 0 124.5 37t38.5 114v47h-182q-27 0 -36 9t-9 36v9q0 27 9 36t36 9h182v14q0 84 -38 123t-121 39q-69 0 -129 -23q-25 -8 -33 -1.5t-8 34.5v15q0 23 7 31.5t35 20.5
q51 21 126 21q269 0 269 -260v-160q0 -128 -66 -189t-203 -61z" />
    <glyph glyph-name="afii10048" unicode="&#x42e;" horiz-adv-x="858" 
d="M540 -12q-149 0 -207 67t-58 197v41h-97v-247q0 -28 -9 -37t-37 -9h-13q-28 0 -37 9t-9 37v558q0 28 9 37t37 9h13q28 0 37 -9t9 -37v-212h97v3q0 129 58 196q59 68 207 68t207 -68q58 -67 58 -196v-143q0 -129 -59 -197q-58 -67 -206 -67zM667 126q32 41 32 126v143
q0 88 -32 126q-31 39 -127 39q-95 0 -127 -39q-32 -38 -32 -126v-143q0 -85 32 -126q32 -39 127 -39q96 0 127 39z" />
    <glyph glyph-name="afii10049" unicode="&#x42f;" horiz-adv-x="618" 
d="M100 0h-17q-31 0 -36 9t12 35l138 213q-73 15 -106.5 62t-33.5 130q0 102 51.5 151.5t164.5 49.5h158q60 0 87 -27t27 -87v-490q0 -28 -9 -37t-37 -9h-13q-28 0 -37 9t-9 37v203h-129l-131 -205q-17 -26 -33 -35t-47 -9zM273 348h167v165q0 38 -39 38h-128
q-61 0 -86 -23.5t-25 -78.5q0 -54 25.5 -77.5t85.5 -23.5z" />
    <glyph glyph-name="afii10065" unicode="&#x430;" horiz-adv-x="490" 
d="M233 -11q-203 0 -203 154q0 78 50.5 114.5t153.5 36.5h110v49q0 42 -27.5 59t-90.5 17q-60 0 -105 -9q-22 -4 -29.5 2.5t-7.5 29.5v14q0 22 7.5 30.5t28.5 12.5q53 8 100 8q114 0 170 -39t56 -125v-194q0 -83 -51 -121.5t-162 -38.5zM231 76q61 0 87 17t26 61v62h-110
q-52 0 -76.5 -16.5t-24.5 -54.5q0 -37 24 -53t74 -16z" />
    <glyph glyph-name="afii10066" unicode="&#x431;" horiz-adv-x="546" 
d="M274 -11q-118 0 -174 53t-56 163v279q0 101 59.5 155.5t171.5 54.5h75q47 0 74 10q24 7 33 0t9 -33v-13q0 -25 -7.5 -34.5t-32.5 -15.5q-37 -10 -78 -10h-71q-72 0 -101 -26t-29 -89q51 24 127 24q117 0 172.5 -53.5t55.5 -162.5v-86q0 -106 -57.5 -161t-170.5 -55z
M274 86q71 0 98 26.5t27 92.5v86q0 66 -27.5 93t-97.5 27q-71 0 -99 -27t-28 -93v-86q0 -65 28 -92t99 -27z" />
    <glyph glyph-name="afii10067" unicode="&#x432;" horiz-adv-x="537" 
d="M279 0h-183q-27 0 -36 9t-9 36v406q0 27 9 36t36 9h140q90 0 148.5 -33.5t58.5 -111.5q0 -60 -32 -86q75 -37 75 -120q0 -78 -58.5 -111.5t-148.5 -33.5zM154 206v-122h125q104 0 104 61t-104 61h-125zM154 412v-122h82q104 0 104 61t-104 61h-82z" />
    <glyph glyph-name="afii10068" unicode="&#x433;" horiz-adv-x="414" 
d="M109 0h-13q-27 0 -36 9t-9 36v406q0 27 9 36t36 9h242q28 0 36.5 -8t8.5 -34q0 -27 -8.5 -34.5t-36.5 -7.5h-184v-367q0 -27 -9 -36t-36 -9z" />
    <glyph glyph-name="afii10069" unicode="&#x434;" horiz-adv-x="586" 
d="M58 -200h-13q-27 0 -36 9t-9 36v194q0 27 9 36t36 9h11q94 82 94 246v121q0 27 9 36t36 9h295q27 0 36 -9t9 -36v-367h6q27 0 36 -9t9 -36v-194q0 -27 -9 -36t-36 -9h-13q-27 0 -36 9t-9 36v155h-6h-8h-366v-155q0 -27 -9 -36t-36 -9zM432 412h-179v-75q0 -159 -64 -253
h243v328z" />
    <glyph glyph-name="afii10070" unicode="&#x435;" horiz-adv-x="522" 
d="M290 -11q-127 0 -186.5 51.5t-59.5 162.5v87q0 217 222 217q104 0 158 -52.5t54 -154.5q0 -4 -2 -44q-3 -28 -13 -37t-38 -9h-278v-22q0 -55 33.5 -78.5t109.5 -23.5q65 0 130 16q24 6 32.5 -1.5t8.5 -33.5v-13q0 -25 -7.5 -33.5t-33.5 -15.5q-57 -16 -130 -16zM147 319
v-25h234v25q0 99 -118 99q-116 0 -116 -99z" />
    <glyph glyph-name="afii10072" unicode="&#x436;" horiz-adv-x="811" 
d="M76 0h-17q-34 0 -37.5 8t18.5 34l160 185q19 19 19 35t-20 36l-139 156q-22 26 -18.5 34t37.5 8h17q34 0 52.5 -8.5t40.5 -33.5l92 -104q24 -26 32 -43.5t8 -41.5q0 -46 -40 -92l-112 -131q-22 -25 -40.5 -33.5t-52.5 -8.5zM412 0h-13q-27 0 -36 9t-9 36v406q0 27 9 36
t36 9h13q27 0 36 -9t9 -36v-406q0 -27 -9 -36t-36 -9zM752 0h-17q-34 0 -52.5 8.5t-40.5 33.5l-112 131q-40 46 -40 92q0 24 8 41.5t32 43.5l92 104q22 25 40.5 33.5t52.5 8.5h17q34 0 37.5 -8t-18.5 -34l-139 -156q-20 -20 -20 -36t19 -35l160 -185q22 -26 18.5 -34
t-37.5 -8z" />
    <glyph glyph-name="afii10073" unicode="&#x437;" horiz-adv-x="517" 
d="M195 -11q-94 0 -133 10q-25 6 -33.5 16t-8.5 34v12q0 25 8.5 32t32.5 2q61 -11 134 -11q93 0 130.5 14t37.5 47q0 65 -149 65h-72q-28 0 -36.5 7.5t-8.5 34.5q0 26 8.5 34t36.5 8h60q118 0 118 57q0 60 -145 60q-73 0 -104 -10q-24 -7 -33 0t-9 33v13q0 25 7.5 34.5
t32.5 15.5q37 10 108 10q109 0 177 -38q69 -38 69 -118q0 -60 -32 -86q75 -37 75 -120q0 -74 -57 -114q-21 -15 -62 -26q-60 -16 -152 -16z" />
    <glyph glyph-name="afii10074" unicode="&#x438;" horiz-adv-x="537" 
d="M109 0h-13q-27 0 -36 9t-9 36v406q0 27 9 36t36 9h13q27 0 36 -9t9 -36v-288l233 316q14 17 41 17h13q27 0 36 -9t9 -36v-406q0 -27 -9 -36t-36 -9h-13q-27 0 -36 9t-9 36v288l-233 -316q-14 -17 -41 -17z" />
    <glyph glyph-name="afii10075" unicode="&#x439;" horiz-adv-x="537" 
d="M109 0h-13q-27 0 -36 9t-9 36v406q0 27 9 36t36 9h13q27 0 36 -9t9 -36v-288l233 316q14 17 41 17h13q27 0 36 -9t9 -36v-406q0 -27 -9 -36t-36 -9h-13q-27 0 -36 9t-9 36v288l-233 -316q-14 -17 -41 -17zM134 665v4q0 13 6 17.5t25 4.5h11q19 0 25 -4.5t6 -17.5v-4
q0 -22 14.5 -31.5t47.5 -9.5t47.5 9.5t14.5 31.5v4q0 13 6 17.5t25 4.5h11q19 0 25 -4.5t6 -17.5v-4q0 -105 -135 -105t-135 105z" />
    <glyph glyph-name="afii10076" unicode="&#x43a;" horiz-adv-x="521" 
d="M122 0h-13q-27 0 -36 9t-9 36v406q0 27 9 36t36 9h13q27 0 36 -9t9 -36v-406q0 -27 -9 -36t-36 -9zM462 0h-17q-34 0 -52.5 8.5t-40.5 33.5l-112 131q-40 46 -40 92q0 24 8 41.5t32 43.5l92 104q22 25 40.5 33.5t52.5 8.5h17q34 0 37.5 -8t-18.5 -34l-139 -156
q-20 -20 -20 -36t19 -35l160 -185q22 -26 18.5 -34t-37.5 -8z" />
    <glyph glyph-name="afii10077" unicode="&#x43b;" horiz-adv-x="501" 
d="M348 412h-179v-75q0 -130 -37 -205q-34 -74 -96 -123q-15 -12 -24.5 -8.5t-23.5 24.5l-8 12q-13 21 -12.5 31.5t15.5 24.5q83 74 83 237v121q0 27 9 36t36 9h295q27 0 36 -9t9 -36v-406q0 -27 -9 -36t-36 -9h-13q-27 0 -36 9t-9 36v367z" />
    <glyph glyph-name="afii10078" unicode="&#x43c;" horiz-adv-x="668" 
d="M109 0h-13q-27 0 -36 9t-9 36v406q0 27 9 36t36 9h13q32 0 41 -17l184 -370l184 370q9 17 41 17h13q27 0 36 -9t9 -36v-406q0 -27 -9 -36t-36 -9h-13q-27 0 -36 9t-9 36v235l-133 -263q-9 -17 -41 -17h-12q-32 0 -41 17l-133 263v-235q0 -27 -9 -36t-36 -9z" />
    <glyph glyph-name="afii10079" unicode="&#x43d;" horiz-adv-x="537" 
d="M109 0h-13q-27 0 -36 9t-9 36v406q0 27 9 36t36 9h13q27 0 36 -9t9 -36v-157h229v157q0 27 9 36t36 9h13q27 0 36 -9t9 -36v-406q0 -27 -9 -36t-36 -9h-13q-27 0 -36 9t-9 36v165h-229v-165q0 -27 -9 -36t-36 -9z" />
    <glyph glyph-name="afii10080" unicode="&#x43e;" horiz-adv-x="546" 
d="M274 -11q-118 0 -174 53t-56 163v86q0 216 230 216q117 0 172.5 -53.5t55.5 -162.5v-86q0 -106 -57.5 -161t-170.5 -55zM274 86q71 0 98 26.5t27 92.5v86q0 66 -27.5 93t-97.5 27q-71 0 -99 -27t-28 -93v-86q0 -65 28 -92t99 -27z" />
    <glyph glyph-name="afii10081" unicode="&#x43f;" horiz-adv-x="537" 
d="M109 0h-13q-27 0 -36 9t-9 36v406q0 27 9 36t36 9h345q27 0 36 -9t9 -36v-406q0 -27 -9 -36t-36 -9h-13q-27 0 -36 9t-9 36v367h-229v-367q0 -27 -9 -36t-36 -9z" />
    <glyph glyph-name="afii10082" unicode="&#x440;" horiz-adv-x="558" 
d="M114 -200h-12q-27 0 -36 9t-9 36v449q0 105 58.5 159t169.5 54q116 0 172.5 -52t56.5 -161v-87q0 -218 -208 -218q-106 0 -147 65v-209q0 -27 -9 -36t-36 -9zM286 86q71 0 98 26.5t27 92.5v86q0 66 -27 93t-98 27t-99 -27t-28 -93v-86q0 -65 28 -92t99 -27z" />
    <glyph glyph-name="afii10083" unicode="&#x441;" horiz-adv-x="422" 
d="M279 -11q-235 0 -235 210v98q0 101 59.5 155.5t171.5 54.5q41 0 78 -10q25 -6 32.5 -15.5t7.5 -34.5v-13q0 -26 -9 -33t-33 0q-27 10 -74 10q-72 0 -101 -26t-29 -89v-94q0 -65 30.5 -90.5t106.5 -25.5q29 0 77 9q24 5 32.5 -2t8.5 -32v-12q0 -24 -8.5 -34t-33.5 -16
q-39 -10 -81 -10z" />
    <glyph glyph-name="afii10084" unicode="&#x442;" horiz-adv-x="497" 
d="M255 0h-13q-27 0 -36 9t-9 36v367h-121q-28 0 -36.5 7.5t-8.5 34.5q0 26 8.5 34t36.5 8h345q28 0 36.5 -8t8.5 -34q0 -27 -8.5 -34.5t-36.5 -7.5h-121v-367q0 -27 -9 -36t-36 -9z" />
    <glyph glyph-name="afii10085" unicode="&#x443;" horiz-adv-x="534" 
d="M184 -220q-19 -2 -29.5 6t-15.5 31l-3 13q-5 20 1 28.5t27 11.5q50 7 81 38t48 91q-13 -7 -46 -7q-52 0 -77.5 27.5t-43.5 100.5l-84 331q-7 27 0 36t35 9h13q28 0 39 -9t18 -36l79 -322q7 -29 18 -39t36 -10q19 0 30 11t17 38l75 322q6 27 17 36t39 9h13q28 0 35 -9
t0 -36l-108 -451q-25 -103 -76.5 -156.5t-137.5 -63.5z" />
    <glyph glyph-name="afii10086" unicode="&#x444;" horiz-adv-x="900" 
d="M456 -200h-12q-27 0 -36 9t-9 36v209q-41 -65 -147 -65q-208 0 -208 218v82q0 218 208 218q106 0 147 -65v209q0 27 9 36t36 9h12q27 0 36 -9t9 -36v-209q41 65 147 65q208 0 208 -218v-82q0 -218 -208 -218q-106 0 -147 65v-209q0 -27 -9 -36t-36 -9zM399 205v86
q0 65 -28 92t-99 27t-98 -26.5t-27 -92.5v-86q0 -66 27 -92.5t98 -26.5t99 27t28 92zM628 86q71 0 98 26.5t27 92.5v86q0 66 -27 92.5t-98 26.5t-99 -27t-28 -92v-86q0 -65 28 -92t99 -27z" />
    <glyph glyph-name="afii10087" unicode="&#x445;" horiz-adv-x="556" 
d="M89 0h-14q-30 0 -35 9t11 34l87 145q30 47 35 54q11 14 25 22q-15 8 -25.5 21.5t-34.5 54.5l-67 113q-16 25 -11 34t35 9h13q30 0 45 -9t29 -35l59 -105q14 -24 21.5 -31t20.5 -7t20 6.5t21 31.5l59 105q14 26 29 35t45 9h13q30 0 35 -9t-10 -34l-67 -113
q-25 -41 -36 -54.5t-25 -21.5q15 -7 26 -22q12 -16 12 -17l23 -37l86 -145q16 -25 11 -34t-35 -9h-14q-30 0 -45 9t-30 35l-77 136q-14 26 -21 32.5t-20 6.5t-20.5 -7t-21.5 -32l-77 -136q-15 -26 -30 -35t-45 -9z" />
    <glyph glyph-name="afii10088" unicode="&#x446;" horiz-adv-x="537" 
d="M492 -200h-13q-27 0 -36 9t-9 36v155h-338q-27 0 -36 9t-9 36v406q0 27 9 36t36 9h13q27 0 36 -9t9 -36v-367h229v367q0 27 9 36t36 9h13q27 0 36 -9t9 -36v-367h6q27 0 36 -9t9 -36v-194q0 -27 -9 -36t-36 -9z" />
    <glyph glyph-name="afii10089" unicode="&#x447;" horiz-adv-x="537" 
d="M441 0h-13q-27 0 -36 9t-9 36v153q-58 -14 -97 -14q-235 0 -235 210v57q0 27 9 36t36 9h13q27 0 36 -9t9 -36v-54q0 -65 30.5 -90.5t106.5 -25.5q33 0 92 13v157q0 27 9 36t36 9h13q27 0 36 -9t9 -36v-406q0 -27 -9 -36t-36 -9z" />
    <glyph glyph-name="afii10090" unicode="&#x448;" horiz-adv-x="769" 
d="M673 0h-577q-27 0 -36 9t-9 36v406q0 27 9 36t36 9h13q27 0 36 -9t9 -36v-367h179v367q0 27 9 36t36 9h13q27 0 36 -9t9 -36v-367h179v367q0 27 9 36t36 9h13q27 0 36 -9t9 -36v-406q0 -27 -9 -36t-36 -9z" />
    <glyph glyph-name="afii10091" unicode="&#x449;" horiz-adv-x="769" 
d="M724 -200h-13q-27 0 -36 9t-9 36v155h-570q-27 0 -36 9t-9 36v406q0 27 9 36t36 9h13q27 0 36 -9t9 -36v-367h179v367q0 27 9 36t36 9h13q27 0 36 -9t9 -36v-367h179v367q0 27 9 36t36 9h13q27 0 36 -9t9 -36v-367h6q27 0 36 -9t9 -36v-194q0 -27 -9 -36t-36 -9z" />
    <glyph glyph-name="afii10092" unicode="&#x44a;" horiz-adv-x="663" 
d="M405 0h-183q-27 0 -36 9t-9 36v367h-101q-28 0 -36.5 7.5t-8.5 34.5q0 26 8.5 34t36.5 8h138h8h13q27 0 36 -9t9 -36v-161h125q90 0 148.5 -33.5t58.5 -111.5t-58.5 -111.5t-148.5 -33.5zM280 206v-122h125q104 0 104 61t-104 61h-125z" />
    <glyph glyph-name="afii10093" unicode="&#x44b;" horiz-adv-x="715" 
d="M279 0h-183q-27 0 -36 9t-9 36v406q0 27 9 36t36 9h13q27 0 36 -9t9 -36v-161h125q90 0 148.5 -33.5t58.5 -111.5t-58.5 -111.5t-148.5 -33.5zM154 206v-122h125q104 0 104 61t-104 61h-125zM619 0h-13q-27 0 -36 9t-9 36v406q0 27 9 36t36 9h13q27 0 36 -9t9 -36v-406
q0 -27 -9 -36t-36 -9z" />
    <glyph glyph-name="afii10094" unicode="&#x44c;" horiz-adv-x="537" 
d="M279 0h-183q-27 0 -36 9t-9 36v406q0 27 9 36t36 9h13q27 0 36 -9t9 -36v-161h125q90 0 148.5 -33.5t58.5 -111.5t-58.5 -111.5t-148.5 -33.5zM154 206v-122h125q104 0 104 61t-104 61h-125z" />
    <glyph glyph-name="afii10095" unicode="&#x44d;" horiz-adv-x="422" 
d="M143 -11q-42 0 -81 10q-25 6 -33.5 16t-8.5 34v12q0 25 8.5 32t32.5 2q48 -9 77 -9q76 0 106.5 25.5t30.5 90.5v8h-133q-28 0 -36.5 7.5t-8.5 34.5q0 26 8.5 34t36.5 8h133v2q0 63 -29 89t-101 26q-47 0 -74 -10q-24 -7 -33 0t-9 33v13q0 25 7.5 34.5t32.5 15.5
q37 10 78 10q112 0 171.5 -54.5t59.5 -155.5v-98q0 -210 -235 -210z" />
    <glyph glyph-name="afii10096" unicode="&#x44e;" horiz-adv-x="731" 
d="M459 -11q-118 0 -174 53t-56 163v5h-75v-165q0 -27 -9 -36t-36 -9h-13q-27 0 -36 9t-9 36v406q0 27 9 36t36 9h13q27 0 36 -9t9 -36v-157h75q1 213 230 213q117 0 172.5 -53.5t55.5 -162.5v-86q0 -106 -57.5 -161t-170.5 -55zM459 86q71 0 98 26.5t27 92.5v86
q0 66 -27.5 93t-97.5 27q-71 0 -99 -27t-28 -93v-86q0 -65 28 -92t99 -27z" />
    <glyph glyph-name="afii10097" unicode="&#x44f;" horiz-adv-x="537" 
d="M486 451v-406q0 -27 -9 -36t-36 -9h-13q-27 0 -36 9t-9 36v161h-77l-119 -161q-20 -27 -35.5 -36t-42.5 -9h-28q-27 0 -29.5 9t17.5 36l131 177q-106 37 -106 129q0 78 58.5 111.5t148.5 33.5h140q27 0 36 -9t9 -36zM301 290h82v122h-82q-104 0 -104 -61t104 -61z" />
    <glyph glyph-name="afii10071" unicode="&#x451;" horiz-adv-x="513" 
d="M290 -11q-127 0 -186.5 51.5t-59.5 162.5v87q0 217 222 217q104 0 158 -52.5t54 -154.5q0 -4 -2 -44q-3 -28 -13 -37t-38 -9h-278v-22q0 -55 33.5 -78.5t109.5 -23.5q65 0 130 16q24 6 32.5 -1.5t8.5 -33.5v-13q0 -25 -7.5 -33.5t-33.5 -15.5q-57 -16 -130 -16zM147 319
v-25h234v25q0 99 -118 99q-116 0 -116 -99zM161 571q-23 0 -39.5 16.5t-16.5 39.5t16.5 40t39.5 17q24 0 40.5 -17t16.5 -40t-16.5 -39.5t-40.5 -16.5zM300 587q-17 17 -17 40t17 40t40 17t39 -17q17 -17 17 -40t-17 -40q-16 -16 -39 -16t-40 16z" />
    <glyph glyph-name="afii10099" unicode="&#x452;" 
d="M449 -202q-15 -12 -24.5 -8.5t-23.5 24.5l-8 12q-13 21 -12.5 31.5t15.5 24.5q83 74 83 217q0 65 -30.5 90.5t-106.5 25.5q-33 0 -92 -13v-157q0 -27 -9 -36t-36 -9h-13q-27 0 -36 9t-9 36v447h-71q-28 0 -36.5 7.5t-8.5 34.5q0 26 8.5 34t36.5 8h71v79q0 27 9 36t36 9
h13q27 0 36 -9t9 -36v-79h71q28 0 36.5 -8t8.5 -34q0 -27 -8.5 -34.5t-36.5 -7.5h-71v-194q58 14 97 14q235 0 235 -210q0 -108 -37 -181q-35 -73 -96 -123z" />
    <glyph glyph-name="afii10100" unicode="&#x453;" horiz-adv-x="414" 
d="M109 0h-13q-27 0 -36 9t-9 36v406q0 27 9 36t36 9h242q28 0 36.5 -8t8.5 -34q0 -27 -8.5 -34.5t-36.5 -7.5h-184v-367q0 -27 -9 -36t-36 -9zM196 559h-11q-22 0 -26.5 7t5.5 27l31 65q10 22 22 29.5t37 7.5h25q25 0 28.5 -7t-9.5 -28l-44 -69q-12 -19 -23.5 -25.5
t-34.5 -6.5z" />
    <glyph glyph-name="afii10101" unicode="&#x454;" horiz-adv-x="422" 
d="M279 -11q-235 0 -235 210v98q0 101 59.5 155.5t171.5 54.5q41 0 78 -10q25 -6 32.5 -15.5t7.5 -34.5v-13q0 -26 -9 -33t-33 0q-27 10 -74 10q-72 0 -101 -26t-29 -89v-2h133q28 0 36.5 -8t8.5 -34q0 -27 -8.5 -34.5t-36.5 -7.5h-133v-8q0 -65 30.5 -90.5t106.5 -25.5
q29 0 77 9q24 5 32.5 -2t8.5 -32v-12q0 -24 -8.5 -34t-33.5 -16q-39 -10 -81 -10z" />
    <glyph glyph-name="afii10102" unicode="&#x455;" horiz-adv-x="463" 
d="M217 -11q-71 0 -137 17q-25 7 -32.5 16t-7.5 33v13q0 26 8 33.5t32 1.5q70 -19 146 -19q51 0 72 9.5t21 33.5q0 19 -13 31t-51 29l-108 48q-54 24 -76.5 54t-22.5 82q0 70 46 103t145 33q62 0 116 -15q27 -8 34.5 -17t7.5 -33v-12q0 -26 -8.5 -33.5t-32.5 -0.5
q-54 16 -119 16q-48 0 -68 -9.5t-20 -31.5q0 -18 10 -28.5t37 -22.5l116 -50q58 -24 82.5 -56t24.5 -85q0 -72 -48.5 -106t-153.5 -34z" />
    <glyph glyph-name="afii10103" unicode="&#x456;" horiz-adv-x="233" 
d="M123 0h-13q-27 0 -36 9t-9 36v406q0 27 9 36t36 9h13q27 0 36 -9t9 -36v-406q0 -27 -9 -36t-36 -9zM72 604q-19 19 -19 45t19 44q19 19 45 19t44 -19q19 -18 19 -44t-19 -45q-18 -18 -44 -18t-45 18z" />
    <glyph glyph-name="afii10104" unicode="&#x457;" horiz-adv-x="233" 
d="M27 571q-23 0 -39.5 16.5t-16.5 39.5t16.5 40t39.5 17q24 0 40.5 -17t16.5 -40t-16.5 -39.5t-40.5 -16.5zM166 587q-17 17 -17 40t17 40t40 17t39 -17q17 -17 17 -40t-17 -40q-16 -16 -39 -16t-40 16zM123 0h-13q-27 0 -36 9t-9 36v406q0 27 9 36t36 9h13q27 0 36 -9
t9 -36v-406q0 -27 -9 -36t-36 -9z" />
    <glyph glyph-name="afii10105" unicode="&#x458;" horiz-adv-x="228" 
d="M36 -202q-15 -12 -24.5 -8.5t-23.5 24.5l-8 12q-13 21 -12.5 31.5t15.5 24.5q83 74 83 237v332q0 27 9 36t36 9h12q27 0 36 -9t9 -36v-325q0 -132 -36 -205q-34 -73 -96 -123zM72 604q-18 19 -18 45t18 44q19 19 45 19t44 -19q19 -18 19 -44t-19 -45q-18 -18 -44 -18
t-45 18z" />
    <glyph glyph-name="afii10106" unicode="&#x459;" horiz-adv-x="833" 
d="M576 0h-183q-27 0 -36 9t-9 36v367h-179v-75q0 -130 -37 -205q-34 -74 -96 -123q-15 -12 -24.5 -8.5t-23.5 24.5l-8 12q-13 21 -12.5 31.5t15.5 24.5q83 74 83 237v121q0 27 9 36t36 9h295q27 0 36 -9t9 -36v-161h125q90 0 148.5 -33.5t58.5 -111.5t-58.5 -111.5
t-148.5 -33.5zM451 206v-122h125q104 0 104 61t-104 61h-125z" />
    <glyph glyph-name="afii10107" unicode="&#x45a;" horiz-adv-x="869" 
d="M109 0h-13q-27 0 -36 9t-9 36v406q0 27 9 36t36 9h13q27 0 36 -9t9 -36v-157h229v157q0 27 9 36t36 9h13q27 0 36 -9t9 -36v-161h125q90 0 148.5 -33.5t58.5 -111.5t-58.5 -111.5t-148.5 -33.5h-183q-27 0 -36 9t-9 36v165h-229v-165q0 -27 -9 -36t-36 -9zM486 206v-122
h125q104 0 104 61t-104 61h-125z" />
    <glyph glyph-name="afii10108" unicode="&#x45b;" 
d="M205 0h-13q-27 0 -36 9t-9 36v447h-71q-28 0 -36.5 7.5t-8.5 34.5q0 26 8.5 34t36.5 8h71v79q0 27 9 36t36 9h13q27 0 36 -9t9 -36v-79h71q28 0 36.5 -8t8.5 -34q0 -27 -8.5 -34.5t-36.5 -7.5h-71v-194q58 14 97 14q235 0 235 -210v-57q0 -27 -9 -36t-36 -9h-13
q-27 0 -36 9t-9 36v54q0 65 -30.5 90.5t-106.5 25.5q-33 0 -92 -13v-157q0 -27 -9 -36t-36 -9z" />
    <glyph glyph-name="afii10109" unicode="&#x45c;" horiz-adv-x="521" 
d="M121 0h-12q-27 0 -36 9t-9 36v406q0 27 9 36t36 9h12q27 0 36 -9t9 -36v-406q0 -27 -9 -36t-36 -9zM462 0h-17q-34 0 -52.5 8.5t-40.5 33.5l-112 131q-40 46 -40 92q0 24 8 41.5t32 43.5l92 104q22 25 40.5 33.5t52.5 8.5h17q34 0 37.5 -8t-18.5 -34l-139 -156
q-20 -20 -20 -36t19 -35l160 -185q22 -26 18.5 -34t-37.5 -8zM246 559h-11q-22 0 -26.5 7t5.5 27l31 65q10 22 22 29.5t37 7.5h25q25 0 28.5 -7t-9.5 -28l-44 -69q-12 -19 -23.5 -25.5t-34.5 -6.5z" />
    <glyph glyph-name="afii10110" unicode="&#x45e;" horiz-adv-x="534" 
d="M184 -220q-19 -2 -29.5 6t-15.5 31l-3 13q-5 20 1 28.5t27 11.5q50 7 81 38t48 91q-13 -7 -46 -7q-52 0 -77.5 27.5t-43.5 100.5l-84 331q-7 27 0 36t35 9h13q28 0 39 -9t18 -36l79 -322q7 -29 18 -39t36 -10q19 0 30 11t17 38l75 322q6 27 17 36t39 9h13q28 0 35 -9
t0 -36l-108 -451q-25 -103 -76.5 -156.5t-137.5 -63.5zM135 665v4q0 13 6 17.5t25 4.5h11q19 0 25 -4.5t6 -17.5v-4q0 -22 14.5 -31.5t47.5 -9.5t47.5 9.5t14.5 31.5v4q0 13 6 17.5t25 4.5h11q19 0 25 -4.5t6 -17.5v-4q0 -105 -135 -105t-135 105z" />
    <glyph glyph-name="afii10193" unicode="&#x45f;" horiz-adv-x="537" 
d="M275 -200h-13q-27 0 -36 9t-9 36v155h-121q-27 0 -36 9t-9 36v406q0 27 9 36t36 9h13q27 0 36 -9t9 -36v-367h229v367q0 27 9 36t36 9h13q27 0 36 -9t9 -36v-406q0 -27 -9 -36t-36 -9h-121v-155q0 -27 -9 -36t-36 -9z" />
    <glyph glyph-name="afii10147" unicode="&#x472;" horiz-adv-x="644" 
d="M53 239v160q0 260 269 260t269 -260v-160q0 -128 -66 -189t-203 -61t-203 61t-66 189zM483 239v47h-322v-47q0 -77 37.5 -114t123.5 -37t123.5 37t37.5 114zM161 399v-14h322v14q0 84 -38.5 123t-122.5 39t-122.5 -39t-38.5 -123z" />
    <glyph glyph-name="afii10195" unicode="&#x473;" horiz-adv-x="522" 
d="M44 206v84q0 217 217 217t217 -217v-84q0 -217 -217 -217t-217 217zM147 319v-25h228v25q0 99 -114 99t-114 -99zM375 177v33h-228v-33q0 -99 114 -99t114 99z" />
    <glyph glyph-name="afii10050" unicode="&#x490;" horiz-adv-x="562" 
d="M456 814h13q28 0 37 -9t9 -37v-172q0 -27 -9 -36t-36 -9h-253q-39 0 -39 -38v-467q0 -28 -9 -37t-37 -9h-13q-28 0 -37 9t-9 37v490q0 60 27 87t87 27h223v118q0 28 9 37t37 9z" />
    <glyph glyph-name="afii10098" unicode="&#x491;" horiz-adv-x="414" 
d="M109 0h-13q-27 0 -36 9t-9 36v406q0 27 9 36t36 9h184v105q0 27 9 36t36 9h13q27 0 36 -9t9 -36v-144q0 -27 -9 -36t-36 -9h-184v-367q0 -27 -9 -36t-36 -9z" />
    <glyph glyph-name="uni0492" unicode="&#x492;" horiz-adv-x="643" 
d="M213 0h-13q-28 0 -37 9t-9 37v247h-62q-27 0 -36 9t-9 36v9q0 27 9 36t36 9h62v144q0 60 27 87t87 27h283q27 0 36 -9t9 -36v-9q0 -27 -9 -36t-36 -9h-253q-39 0 -39 -38v-121h82q27 0 36 -9t9 -36v-9q0 -27 -9 -36t-36 -9h-82v-247q0 -28 -9 -37t-37 -9z" />
    <glyph glyph-name="uni0493" unicode="&#x493;" horiz-adv-x="478" 
d="M173 0h-13q-27 0 -36 9t-9 36v165h-39q-28 0 -36.5 7.5t-8.5 34.5q0 26 8.5 34t36.5 8h39v157q0 27 9 36t36 9h242q28 0 36.5 -8t8.5 -34q0 -27 -8.5 -34.5t-36.5 -7.5h-184v-118h59q28 0 36.5 -8t8.5 -34q0 -27 -8.5 -34.5t-36.5 -7.5h-59v-165q0 -27 -9 -36t-36 -9z
" />
    <glyph glyph-name="uni0496" unicode="&#x496;" horiz-adv-x="973" 
d="M78 0h-18q-32 0 -36 8t16 34l186 231q22 28 35 46q7 10 7 20q0 12 -7 22q-14 19 -35 45l-166 202q-21 26 -17 34t37 8h18q32 0 49.5 -8.5t38.5 -33.5l136 -163q47 -57 47 -104t-47 -106l-156 -193q-21 -25 -38.5 -33.5t-49.5 -8.5zM466 0h-13q-28 0 -37 9t-9 37v558
q0 28 9 37t37 9h13q28 0 37 -9t9 -37v-558q0 -28 -9 -37t-37 -9zM968 -200h-13q-28 0 -37 9t-9 37v116q0 38 -39 38h-29q-32 0 -49.5 8.5t-38.5 33.5l-156 193q-47 59 -47 106t47 104l136 163q21 25 38.5 33.5t49.5 8.5h18q33 0 37 -8t-17 -34l-166 -202q-21 -26 -35 -45
q-7 -10 -7 -22q0 -9 7 -19.5t35 -46.5l124 -154q17 -20 44 -20h39q60 0 87 -27t27 -87v-139q0 -28 -9 -37t-37 -9z" />
    <glyph glyph-name="uni0497" unicode="&#x497;" horiz-adv-x="838" 
d="M76 0h-17q-34 0 -37.5 8t18.5 34l160 185q19 19 19 35t-20 36l-139 156q-22 26 -18.5 34t37.5 8h17q34 0 52.5 -8.5t40.5 -33.5l92 -104q24 -26 32 -43.5t8 -41.5q0 -46 -40 -92l-112 -131q-22 -25 -40.5 -33.5t-52.5 -8.5zM412 0h-13q-27 0 -36 9t-9 36v406q0 27 9 36
t36 9h13q27 0 36 -9t9 -36v-406q0 -27 -9 -36t-36 -9zM793 -200h-13q-27 0 -36 9t-9 36v155q-34 0 -52.5 8.5t-40.5 33.5l-112 131q-40 46 -40 92q0 24 8 41.5t32 43.5l92 104q22 25 40.5 33.5t52.5 8.5h17q34 0 37.5 -8t-18.5 -34l-139 -156q-20 -20 -20 -36t19 -35
l123 -143h59q27 0 36 -9t9 -36v-194q0 -27 -9 -36t-36 -9z" />
    <glyph glyph-name="uni0498" unicode="&#x498;" horiz-adv-x="495" 
d="M231 -200h-13q-28 0 -37 9t-9 37v144q-52 4 -95 19q-24 9 -32.5 20t-8.5 32v15q0 23 11 31.5t29 1.5q50 -21 129 -21q73 0 102 23t29 78q0 52 -30.5 76.5t-101.5 24.5h-7q-23 0 -30.5 8t-7.5 30v12q0 22 7.5 30t30.5 8h7q67 0 94.5 20.5t27.5 69.5q0 52 -25.5 72.5
t-91.5 20.5q-69 0 -129 -23q-25 -8 -33 -1.5t-8 34.5v15q0 23 7 31.5t35 20.5q51 21 126 21q225 0 225 -185q0 -52 -20 -85t-64 -54q94 -34 94 -146q0 -168 -165 -195v-148q0 -28 -9 -37t-37 -9z" />
    <glyph glyph-name="uni0499" unicode="&#x499;" horiz-adv-x="517" 
d="M240 -200h-13q-27 0 -36 9t-9 36v144q-94 3 -120 10q-25 6 -33.5 16t-8.5 34v12q0 25 8.5 32t32.5 2q61 -11 134 -11q93 0 130.5 14t37.5 47q0 65 -149 65h-72q-28 0 -36.5 7.5t-8.5 34.5q0 26 8.5 34t36.5 8h60q118 0 118 57q0 60 -145 60q-73 0 -104 -10q-24 -7 -33 0
t-9 33v13q0 25 7.5 34.5t32.5 15.5q37 10 108 10q109 0 177 -38q69 -38 69 -118q0 -60 -32 -86q75 -37 75 -120q0 -133 -181 -152v-148q0 -27 -9 -36t-36 -9z" />
    <glyph glyph-name="uni049A" unicode="&#x49a;" horiz-adv-x="639" 
d="M132 0h-13q-28 0 -37 9t-9 37v558q0 28 9 37t37 9h13q28 0 37 -9t9 -37v-558q0 -28 -9 -37t-37 -9zM634 -200h-13q-28 0 -37 9t-9 37v116q0 38 -39 38h-29q-32 0 -49.5 8.5t-38.5 33.5l-156 193q-47 59 -47 106t47 104l136 163q21 25 38.5 33.5t49.5 8.5h18q33 0 37 -8
t-17 -34l-166 -202q-21 -26 -35 -45q-7 -10 -7 -22q0 -9 7 -19.5t35 -46.5l124 -154q17 -20 44 -20h39q60 0 87 -27t27 -87v-139q0 -28 -9 -37t-37 -9z" />
    <glyph glyph-name="uni049B" unicode="&#x49b;" horiz-adv-x="548" 
d="M121 0h-12q-27 0 -36 9t-9 36v406q0 27 9 36t36 9h12q27 0 36 -9t9 -36v-406q0 -27 -9 -36t-36 -9zM503 -200h-13q-27 0 -36 9t-9 36v155q-34 0 -52.5 8.5t-40.5 33.5l-112 131q-40 46 -40 92q0 24 8 41.5t32 43.5l92 104q22 25 40.5 33.5t52.5 8.5h17q34 0 37.5 -8
t-18.5 -34l-139 -156q-20 -20 -20 -36t19 -35l123 -143h59q27 0 36 -9t9 -36v-194q0 -27 -9 -36t-36 -9z" />
    <glyph glyph-name="uni049C" unicode="&#x49c;" horiz-adv-x="725" 
d="M132 0h-13q-28 0 -37 9t-9 37v558q0 28 9 37t37 9h13q28 0 37 -9t9 -37v-558q0 -28 -9 -37t-37 -9zM282 190h-13q-28 0 -37 9t-9 37v201q0 28 9 37t37 9h13q28 0 37 -9t9 -37v-201q0 -28 -9 -37t-37 -9zM665 0h-18q-32 0 -49.5 8.5t-38.5 33.5l-156 193q-47 59 -47 106
t47 104l136 163q21 25 38.5 33.5t49.5 8.5h18q33 0 37 -8t-17 -34l-166 -202q-21 -26 -35 -45q-7 -10 -7 -22q0 -10 7 -20q13 -18 35 -46l186 -231q20 -26 16 -34t-36 -8z" />
    <glyph glyph-name="uni049D" unicode="&#x49d;" horiz-adv-x="641" 
d="M122 0h-13q-27 0 -36 9t-9 36v406q0 27 9 36t36 9h13q27 0 36 -9t9 -36v-406q0 -27 -9 -36t-36 -9zM256 126h-13q-27 0 -36 9t-9 36v170q0 27 9 36t36 9h13q27 0 36 -9t9 -36v-170q0 -27 -9 -36t-36 -9zM582 0h-17q-34 0 -52.5 8.5t-40.5 33.5l-112 131q-40 46 -40 92
q0 24 8 41.5t32 43.5l92 104q22 25 40.5 33.5t52.5 8.5h17q34 0 37.5 -8t-18.5 -34l-139 -156q-20 -20 -20 -36t19 -35l160 -185q22 -26 18.5 -34t-37.5 -8z" />
    <glyph glyph-name="uni04A0" unicode="&#x4a0;" horiz-adv-x="731" 
d="M278 0h-13q-28 0 -37 9t-9 37v467q0 38 -39 38h-107q-27 0 -36 9t-9 36v9q0 27 9 36t36 9h137q60 0 87 -27t27 -87v-490q0 -28 -9 -37t-37 -9zM671 0h-18q-32 0 -49.5 8.5t-38.5 33.5l-156 193q-47 59 -47 106t47 104l136 163q21 25 38.5 33.5t49.5 8.5h18q33 0 37 -8
t-17 -34l-166 -202q-21 -26 -35 -45q-7 -10 -7 -22q0 -10 7 -20q13 -18 35 -46l186 -231q20 -26 16 -34t-36 -8z" />
    <glyph glyph-name="uni04A1" unicode="&#x4a1;" horiz-adv-x="634" 
d="M235 0h-13q-27 0 -36 9t-9 36v367h-101q-28 0 -36.5 7.5t-8.5 34.5q0 26 8.5 34t36.5 8h159q27 0 36 -9t9 -36v-406q0 -27 -9 -36t-36 -9zM575 0h-17q-34 0 -52.5 8.5t-40.5 33.5l-112 131q-40 46 -40 92q0 24 8 41.5t32 43.5l92 104q22 25 40.5 33.5t52.5 8.5h17
q34 0 37.5 -8t-18.5 -34l-139 -156q-20 -20 -20 -36t19 -35l160 -185q22 -26 18.5 -34t-37.5 -8z" />
    <glyph glyph-name="uni04A2" unicode="&#x4a2;" horiz-adv-x="628" 
d="M623 -200h-13q-28 0 -37 9t-9 37v116q0 38 -39 38h-29q-28 0 -37 9t-9 37v247h-272v-247q0 -28 -9 -37t-37 -9h-13q-28 0 -37 9t-9 37v558q0 28 9 37t37 9h13q28 0 37 -9t9 -37v-212h272v212q0 28 9 37t37 9h13q28 0 37 -9t9 -37v-505q60 0 87 -27t27 -87v-139
q0 -28 -9 -37t-37 -9z" />
    <glyph glyph-name="uni04A3" unicode="&#x4a3;" horiz-adv-x="537" 
d="M492 -200h-13q-27 0 -36 9t-9 36v155h-6q-27 0 -36 9t-9 36v165h-229v-165q0 -27 -9 -36t-36 -9h-13q-27 0 -36 9t-9 36v406q0 27 9 36t36 9h13q27 0 36 -9t9 -36v-157h229v157q0 27 9 36t36 9h13q27 0 36 -9t9 -36v-367h6q27 0 36 -9t9 -36v-194q0 -27 -9 -36t-36 -9z
" />
    <glyph glyph-name="uni04AA" unicode="&#x4aa;" horiz-adv-x="529" 
d="M311 -200h-13q-28 0 -37 9t-9 37v148q-199 27 -199 245v160q0 260 269 260q75 0 126 -21q28 -12 35 -20.5t7 -31.5v-15q0 -28 -8 -34.5t-33 1.5q-60 23 -129 23q-83 0 -121 -39t-38 -123v-160q0 -77 38.5 -114t124.5 -37q80 0 129 21q18 7 29 -1.5t11 -31.5v-15
q0 -21 -8.5 -32t-32.5 -20q-43 -15 -95 -19v-144q0 -28 -9 -37t-37 -9z" />
    <glyph glyph-name="uni04AB" unicode="&#x4ab;" horiz-adv-x="422" 
d="M255 -200h-13q-27 0 -36 9t-9 36v152q-153 31 -153 202v98q0 101 59.5 155.5t171.5 54.5q41 0 78 -10q25 -6 32.5 -15.5t7.5 -34.5v-13q0 -26 -9 -33t-33 0q-27 10 -74 10q-72 0 -101 -26t-29 -89v-94q0 -65 30.5 -90.5t106.5 -25.5q29 0 77 9q24 5 32.5 -2t8.5 -32v-12
q0 -24 -8.5 -34t-33.5 -16q-32 -7 -60 -9v-145q0 -27 -9 -36t-36 -9z" />
    <glyph glyph-name="uni04AE" unicode="&#x4ae;" horiz-adv-x="632" 
d="M328 0h-14q-28 0 -37 9t-9 37v214q-28 10 -45 27q-14 14 -44 68l-135 249q-15 28 -9.5 37t36.5 9h14q32 0 47 -9t29 -37l94 -185q21 -42 35 -59q10 -12 31 -12t31 12q14 17 35 59l94 185q14 28 29 37t47 9h14q31 0 36.5 -9t-9.5 -37l-135 -249q-30 -54 -44 -68
q-17 -17 -45 -27v-214q0 -28 -9 -37t-37 -9z" />
    <glyph glyph-name="uni04AF" unicode="&#x4af;" horiz-adv-x="534" 
d="M273 -200h-12q-27 0 -36 9t-9 36v149q-42 8 -64 36t-37 90l-84 331q-7 27 0 36t35 9h13q28 0 39 -9t18 -36l79 -322q7 -30 17.5 -39.5t34.5 -9.5t34.5 9.5t17.5 39.5l79 322q7 27 18 36t39 9h13q28 0 35 -9t0 -36l-84 -331q-15 -62 -37 -90t-64 -36v-149q0 -27 -9 -36
t-36 -9z" />
    <glyph glyph-name="uni04B0" unicode="&#x4b0;" horiz-adv-x="632" 
d="M328 0h-14q-28 0 -37 9t-9 37v149h-111q-35 0 -47 9t-12 36v9q0 27 12 36t47 9h60q-17 20 -38 61l-135 249q-15 28 -9.5 37t36.5 9h14q32 0 47 -9t29 -37l94 -185q21 -42 35 -59q10 -12 31 -12t31 12q14 17 35 59l94 185q14 28 29 37t47 9h14q31 0 36.5 -9t-9.5 -37
l-135 -249q-21 -41 -38 -61h60q35 0 47 -9t12 -36v-9q0 -27 -12 -36t-47 -9h-111v-149q0 -28 -9 -37t-37 -9z" />
    <glyph glyph-name="uni04B1" unicode="&#x4b1;" horiz-adv-x="534" 
d="M273 -200h-12q-27 0 -36 9t-9 36v92h-89q-28 0 -36.5 7.5t-8.5 34.5t8.5 34.5t36.5 7.5h33q-26 25 -45 99l-84 331q-7 27 0 36t35 9h13q28 0 39 -9t18 -36l79 -322q7 -30 17.5 -39.5t34.5 -9.5t34.5 9.5t17.5 39.5l79 322q7 27 18 36t39 9h13q28 0 35 -9t0 -36l-84 -331
q-19 -74 -45 -99h33q28 0 36.5 -7.5t8.5 -34.5t-8.5 -34.5t-36.5 -7.5h-89v-92q0 -27 -9 -36t-36 -9z" />
    <glyph glyph-name="uni04B2" unicode="&#x4b2;" horiz-adv-x="698" 
d="M693 -200h-13q-28 0 -37 9t-9 37v116q0 38 -39 38h-60q-31 0 -45.5 9t-28.5 38l-87 186q-19 41 -29 51q-9 11 -28 11t-30 -11q-10 -12 -28 -51l-87 -186q-14 -29 -28.5 -38t-45.5 -9h-13q-32 0 -37.5 9t8.5 38l110 223q16 32 27 46.5t31 26.5q-26 11 -57 74l-91 186
q-14 29 -8 38t37 9h13q32 0 46 -9.5t27 -37.5l68 -150q17 -38 28 -49.5t30 -11.5t29.5 11.5t27.5 49.5l68 150q13 28 27 37.5t46 9.5h14q32 0 37.5 -9t-8.5 -38l-92 -186q-6 -15 -17 -33q-16 -30 -41 -41q32 -18 59 -73l75 -151q11 -20 44 -20h39q60 0 87 -27t27 -87v-139
q0 -28 -9 -37t-37 -9z" />
    <glyph glyph-name="uni04B3" unicode="&#x4b3;" horiz-adv-x="593" 
d="M548 -200h-13q-27 0 -36 9t-9 36v155h-14q-30 0 -45 9t-30 35l-77 136q-14 26 -21 32.5t-20 6.5t-20.5 -7t-21.5 -32l-77 -136q-15 -26 -30 -35t-45 -9h-14q-30 0 -35 9t11 34l87 145q30 47 35 54q11 14 25 22q-15 8 -25.5 21.5t-34.5 54.5l-67 113q-16 25 -11 34t35 9
h13q30 0 45 -9t29 -35l59 -105q14 -24 21.5 -31t20.5 -7t20 6.5t21 31.5l59 105q14 26 29 35t45 9h13q30 0 35 -9t-10 -34l-67 -113q-25 -41 -36 -54.5t-25 -21.5q15 -7 26 -22q12 -16 12 -17l23 -37l61 -104h59q27 0 36 -9t9 -36v-194q0 -27 -9 -36t-36 -9z" />
    <glyph glyph-name="uni04B8" unicode="&#x4b8;" horiz-adv-x="628" 
d="M509 0h-13q-28 0 -37 9t-9 37v247q-33 -10 -80 -13v-64q0 -28 -9 -37t-37 -9h-13q-28 0 -37 9t-9 37v69q-98 15 -145 75t-47 170v74q0 28 9 37t37 9h13q28 0 37 -9t9 -37v-74q0 -116 87 -141v48q0 28 9 37t37 9h13q28 0 37 -9t9 -37v-58q50 3 80 13v212q0 28 9 37t37 9
h13q28 0 37 -9t9 -37v-558q0 -28 -9 -37t-37 -9z" />
    <glyph glyph-name="uni04B9" unicode="&#x4b9;" horiz-adv-x="537" 
d="M441 0h-13q-27 0 -36 9t-9 36v153q-33 -8 -62 -12v-55q0 -27 -9 -36t-36 -9h-13q-27 0 -36 9t-9 36v58q-167 26 -167 205v57q0 27 9 36t36 9h13q27 0 36 -9t9 -36v-54q0 -89 64 -108v42q0 27 9 36t36 9h13q27 0 36 -9t9 -36v-48q39 6 62 11v157q0 27 9 36t36 9h13
q27 0 36 -9t9 -36v-406q0 -27 -9 -36t-36 -9z" />
    <glyph glyph-name="uni04BA" unicode="&#x4ba;" horiz-adv-x="628" 
d="M132 0h-13q-28 0 -37 9t-9 37v558q0 28 9 37t37 9h13q28 0 37 -9t9 -37v-247q43 13 111 13q136 0 201 -60.5t65 -189.5v-74q0 -28 -9 -37t-37 -9h-13q-28 0 -37 9t-9 37v74q0 77 -38.5 114t-124.5 37q-67 0 -109 -13v-212q0 -28 -9 -37t-37 -9z" />
    <glyph glyph-name="uni04BB" unicode="&#x4bb;" horiz-adv-x="537" 
d="M109 0h-13q-27 0 -36 9t-9 36v610q0 27 9 36t36 9h13q27 0 36 -9t9 -36v-357q58 14 97 14q235 0 235 -210v-57q0 -27 -9 -36t-36 -9h-13q-27 0 -36 9t-9 36v54q0 65 -30.5 90.5t-106.5 25.5q-33 0 -92 -13v-157q0 -27 -9 -36t-36 -9z" />
    <glyph glyph-name="uni04D8" unicode="&#x4d8;" horiz-adv-x="644" 
d="M53 239v101q0 45 54 45h376v14q0 84 -38.5 123t-122.5 39q-67 0 -127 -23q-25 -8 -33 -1.5t-8 34.5v15q0 23 7 31.5t35 20.5q51 21 126 21q269 0 269 -260v-160q0 -128 -66 -189t-203 -61t-203 61t-66 189zM483 239v47h-322v-47q0 -77 37.5 -114t123.5 -37t123.5 37
t37.5 114z" />
    <glyph glyph-name="afii10846" unicode="&#x4d9;" horiz-adv-x="522" 
d="M256 -11q-104 0 -158 52.5t-54 154.5q0 12 2 52q3 28 13 37t38 9h278v14q0 55 -33.5 78.5t-109.5 23.5q-65 0 -130 -16q-24 -6 -32.5 1.5t-8.5 33.5v13q0 25 7.5 33.5t33.5 15.5q57 16 130 16q127 0 186.5 -51.5t59.5 -162.5v-87q0 -217 -222 -217zM259 78q116 0 116 99
v33h-234v-33q0 -99 118 -99z" />
    <glyph glyph-name="uni04E8" unicode="&#x4e8;" horiz-adv-x="636" 
d="M318 -12q-149 0 -207 67t-58 197v143q0 129 58 196q59 68 207 68t207 -68q58 -67 58 -196v-143q0 -129 -59 -197q-58 -67 -206 -67zM477 252v34h-318v-34q0 -85 32 -126q31 -39 127 -39t127 39q32 41 32 126zM159 395v-10h318v10q0 88 -32 126q-31 39 -127 39t-127 -39
q-32 -38 -32 -126z" />
    <glyph glyph-name="uni04E9" unicode="&#x4e9;" horiz-adv-x="546" 
d="M274 -11q-118 0 -174 53t-56 163v86q0 216 230 216q117 0 172.5 -53.5t55.5 -162.5v-86q0 -106 -57.5 -161t-170.5 -55zM399 205v5h-252v-5q0 -65 28 -92t99 -27t98 26.5t27 92.5zM274 411q-71 0 -99 -26.5t-28 -90.5h252q-1 64 -28.5 90.5t-96.5 26.5z" />
    <glyph glyph-name="Adotbelow" unicode="&#x1ea0;" 
d="M87 0h-14q-28 0 -34.5 9t0.5 35l123 447q27 97 57 132q31 36 104 36t103 -36q30 -35 57 -132l123 -447q7 -26 0.5 -35t-34.5 -9h-14q-27 0 -38.5 8.5t-19.5 35.5l-37 136h-281l-37 -136q-8 -27 -19.5 -35.5t-38.5 -8.5zM266 493l-59 -218h231l-59 218q-12 46 -22 59
t-34 13t-34.5 -13.5t-22.5 -58.5zM330 -186q-27 0 -46 19t-19 46t19 46t46 19t46 -19t19 -46t-19 -46t-46 -19z" />
    <glyph glyph-name="adotbelow" unicode="&#x1ea1;" horiz-adv-x="490" 
d="M233 -11q-203 0 -203 154q0 78 50.5 114.5t153.5 36.5h110v49q0 42 -27.5 59t-90.5 17q-60 0 -105 -9q-22 -4 -29.5 2.5t-7.5 29.5v14q0 22 7.5 30.5t28.5 12.5q53 8 100 8q114 0 170 -39t56 -125v-194q0 -83 -51 -121.5t-162 -38.5zM231 76q61 0 87 17t26 61v62h-110
q-52 0 -76.5 -16.5t-24.5 -54.5q0 -37 24 -53t74 -16zM240 -186q-27 0 -46 19t-19 46t19 46t46 19t46 -19t19 -46t-19 -46t-46 -19z" />
    <glyph glyph-name="Ahookabove" unicode="&#x1ea2;" 
d="M87 0h-14q-28 0 -34.5 9t0.5 35l123 447q27 97 57 132q31 36 104 36t103 -36q30 -35 57 -132l123 -447q7 -26 0.5 -35t-34.5 -9h-14q-27 0 -38.5 8.5t-19.5 35.5l-37 136h-281l-37 -136q-8 -27 -19.5 -35.5t-38.5 -8.5zM266 493l-59 -218h231l-59 218q-12 46 -22 59
t-34 13t-34.5 -13.5t-22.5 -58.5zM318 683h-25q-15 0 -20 14l-12 45q-4 16 -0.5 20t20.5 4h10q22 0 31.5 6.5t9.5 24.5t-9 24.5t-33 6.5q-5 0 -14 -1t-14 -1t-10.5 1.5t-7.5 6t-1 13.5v6q0 14 5 19.5t18 8.5q13 4 36 4q55 0 80.5 -21t25.5 -68q0 -39 -20 -55t-65 -14l7 -30
q5 -14 -12 -14z" />
    <glyph glyph-name="ahookabove" unicode="&#x1ea3;" horiz-adv-x="490" 
d="M233 -11q-203 0 -203 154q0 78 50.5 114.5t153.5 36.5h110v49q0 42 -27.5 59t-90.5 17q-60 0 -105 -9q-22 -4 -29.5 2.5t-7.5 29.5v14q0 22 7.5 30.5t28.5 12.5q53 8 100 8q114 0 170 -39t56 -125v-194q0 -83 -51 -121.5t-162 -38.5zM231 76q61 0 87 17t26 61v62h-110
q-52 0 -76.5 -16.5t-24.5 -54.5q0 -37 24 -53t74 -16zM242 531h-25q-15 0 -20 14l-12 45q-4 16 -0.5 20t20.5 4h10q22 0 31.5 6.5t9.5 24.5t-9 24.5t-33 6.5q-5 0 -14 -1t-14 -1t-10.5 1.5t-7.5 6t-1 13.5v6q0 14 5 19.5t18 8.5q13 4 36 4q55 0 80.5 -21t25.5 -68
q0 -39 -20 -55t-65 -14l7 -30q5 -14 -12 -14z" />
    <glyph glyph-name="Acircumflexacute" unicode="&#x1ea4;" 
d="M87 0h-14q-28 0 -34.5 9t0.5 35l123 447q27 97 57 132q31 36 104 36t103 -36q30 -35 57 -132l123 -447q7 -26 0.5 -35t-34.5 -9h-14q-27 0 -38.5 8.5t-19.5 35.5l-37 136h-281l-37 -136q-8 -27 -19.5 -35.5t-38.5 -8.5zM266 493l-59 -218h231l-59 218q-12 46 -22 59
t-34 13t-34.5 -13.5t-22.5 -58.5zM234 704h-10q-21 0 -24 6t8 23l38 60q17 26 33 35t44 9t44 -9t33 -35l39 -60q11 -17 8 -23t-24 -6h-11q-21 0 -32 6t-21 24l-15 24q-21 32 -42 0l-15 -24q-10 -18 -21 -24t-32 -6zM469 796h-11q-22 0 -26.5 7t5.5 27l31 65q10 22 22 29.5
t37 7.5h25q25 0 28.5 -7t-9.5 -28l-44 -69q-12 -19 -23.5 -25.5t-34.5 -6.5z" />
    <glyph glyph-name="acircumflexacute" unicode="&#x1ea5;" horiz-adv-x="490" 
d="M233 -11q-203 0 -203 154q0 78 50.5 114.5t153.5 36.5h110v49q0 42 -27.5 59t-90.5 17q-60 0 -105 -9q-22 -4 -29.5 2.5t-7.5 29.5v14q0 22 7.5 30.5t28.5 12.5q53 8 100 8q114 0 170 -39t56 -125v-194q0 -83 -51 -121.5t-162 -38.5zM231 76q61 0 87 17t26 61v62h-110
q-52 0 -76.5 -16.5t-24.5 -54.5q0 -37 24 -53t74 -16zM154 561h-10q-21 0 -24 6t8 23l38 60q17 26 33 35t44 9t44 -9t33 -35l39 -60q11 -17 8 -23t-24 -6h-11q-21 0 -32 6t-21 24l-15 24q-21 32 -42 0l-15 -24q-10 -18 -21 -24t-32 -6zM389 653h-11q-22 0 -26.5 7t5.5 27
l31 65q10 22 22 29.5t37 7.5h25q25 0 28.5 -7t-9.5 -28l-44 -69q-12 -19 -23.5 -25.5t-34.5 -6.5z" />
    <glyph glyph-name="Acircumflexgrave" unicode="&#x1ea6;" 
d="M87 0h-14q-28 0 -34.5 9t0.5 35l123 447q27 97 57 132q31 36 104 36t103 -36q30 -35 57 -132l123 -447q7 -26 0.5 -35t-34.5 -9h-14q-27 0 -38.5 8.5t-19.5 35.5l-37 136h-281l-37 -136q-8 -27 -19.5 -35.5t-38.5 -8.5zM266 493l-59 -218h231l-59 218q-12 46 -22 59
t-34 13t-34.5 -13.5t-22.5 -58.5zM234 704h-10q-21 0 -24 6t8 23l38 60q17 26 33 35t44 9t44 -9t33 -35l39 -60q11 -17 8 -23t-24 -6h-11q-21 0 -32 6t-21 24l-15 24q-21 32 -42 0l-15 -24q-10 -18 -21 -24t-32 -6zM188 796h-11q-23 0 -34.5 6.5t-23.5 25.5l-44 69
q-13 21 -9.5 28t28.5 7h25q25 0 37 -7.5t22 -29.5l31 -65q10 -20 5.5 -27t-26.5 -7z" />
    <glyph glyph-name="acircumflexgrave" unicode="&#x1ea7;" horiz-adv-x="490" 
d="M234 -11q-203 0 -203 154q0 78 50.5 114.5t153.5 36.5h110v49q0 42 -27.5 59t-90.5 17q-60 0 -105 -9q-22 -4 -29.5 2.5t-7.5 29.5v14q0 22 7.5 30.5t28.5 12.5q53 8 100 8q114 0 170 -39t56 -125v-194q0 -83 -51 -121.5t-162 -38.5zM232 76q61 0 87 17t26 61v62h-110
q-52 0 -76.5 -16.5t-24.5 -54.5q0 -37 24 -53t74 -16zM155 561h-10q-21 0 -24 6t8 23l38 60q17 26 33 35t44 9t44 -9t33 -35l39 -60q11 -17 8 -23t-24 -6h-11q-21 0 -32 6t-21 24l-15 24q-21 32 -42 0l-15 -24q-10 -18 -21 -24t-32 -6zM109 653h-11q-23 0 -34.5 6.5
t-23.5 25.5l-44 69q-13 21 -9.5 28t28.5 7h25q25 0 37 -7.5t22 -29.5l31 -65q10 -20 5.5 -27t-26.5 -7z" />
    <glyph glyph-name="Acircumflexhookabove" unicode="&#x1ea8;" 
d="M87 0h-14q-28 0 -34.5 9t0.5 35l123 447q27 97 57 132q31 36 104 36t103 -36q30 -35 57 -132l123 -447q7 -26 0.5 -35t-34.5 -9h-14q-27 0 -38.5 8.5t-19.5 35.5l-37 136h-281l-37 -136q-8 -27 -19.5 -35.5t-38.5 -8.5zM266 493l-59 -218h231l-59 218q-12 46 -22 59
t-34 13t-34.5 -13.5t-22.5 -58.5zM234 704h-10q-21 0 -24 6t8 23l38 60q17 26 33 35t44 9t44 -9t33 -35l39 -60q11 -17 8 -23t-24 -6h-11q-21 0 -32 6t-21 24l-15 24q-21 32 -42 0l-15 -24q-10 -18 -21 -24t-32 -6zM468 800h-25q-15 0 -20 14l-12 45q-4 16 -0.5 20t20.5 4
h10q22 0 31.5 6.5t9.5 24.5t-9 24.5t-33 6.5q-5 0 -14 -1t-14 -1t-10.5 1.5t-7.5 6t-1 13.5v6q0 14 5 19.5t18 8.5q13 4 36 4q55 0 80.5 -21t25.5 -68q0 -39 -20 -55t-65 -14l7 -30q5 -14 -12 -14z" />
    <glyph glyph-name="acircumflexhookabove" unicode="&#x1ea9;" horiz-adv-x="490" 
d="M233 -11q-203 0 -203 154q0 78 50.5 114.5t153.5 36.5h110v49q0 42 -27.5 59t-90.5 17q-60 0 -105 -9q-22 -4 -29.5 2.5t-7.5 29.5v14q0 22 7.5 30.5t28.5 12.5q53 8 100 8q114 0 170 -39t56 -125v-194q0 -83 -51 -121.5t-162 -38.5zM231 76q61 0 87 17t26 61v62h-110
q-52 0 -76.5 -16.5t-24.5 -54.5q0 -37 24 -53t74 -16zM154 561h-10q-21 0 -24 6t8 23l38 60q17 26 33 35t44 9t44 -9t33 -35l39 -60q11 -17 8 -23t-24 -6h-11q-21 0 -32 6t-21 24l-15 24q-21 32 -42 0l-15 -24q-10 -18 -21 -24t-32 -6zM388 657h-25q-15 0 -20 14l-12 45
q-4 16 -0.5 20t20.5 4h10q22 0 31.5 6.5t9.5 24.5t-9 24.5t-33 6.5q-5 0 -14 -1t-14 -1t-10.5 1.5t-7.5 6t-1 13.5v6q0 14 5 19.5t18 8.5q13 4 36 4q55 0 80.5 -21t25.5 -68q0 -39 -20 -55t-65 -14l7 -30q5 -14 -12 -14z" />
    <glyph glyph-name="Acircumflextilde" unicode="&#x1eaa;" 
d="M87 0h-14q-28 0 -34.5 9t0.5 35l123 447q27 97 57 132q31 36 104 36t103 -36q30 -35 57 -132l123 -447q7 -26 0.5 -35t-34.5 -9h-14q-27 0 -38.5 8.5t-19.5 35.5l-37 136h-281l-37 -136q-8 -27 -19.5 -35.5t-38.5 -8.5zM266 493l-59 -218h231l-59 218q-12 46 -22 59
t-34 13t-34.5 -13.5t-22.5 -58.5zM234 704h-10q-21 0 -24 6t8 23l38 60q17 26 33 35t44 9t44 -9t33 -35l39 -60q11 -17 8 -23t-24 -6h-11q-21 0 -32 6t-21 24l-15 24q-21 32 -42 0l-15 -24q-10 -18 -21 -24t-32 -6zM393 849q-37 0 -81 29t-57 29q-29 0 -32 -33
q-2 -12 -7.5 -16t-21.5 -4h-8q-17 0 -22.5 4.5t-4.5 17.5q9 101 100 101q35 0 79 -29t58 -29q30 0 31 28q1 25 30 25h8q15 0 21.5 -5t5.5 -17q-8 -101 -99 -101z" />
    <glyph glyph-name="acircumflextilde" unicode="&#x1eab;" horiz-adv-x="490" 
d="M233 -11q-203 0 -203 154q0 78 50.5 114.5t153.5 36.5h110v49q0 42 -27.5 59t-90.5 17q-60 0 -105 -9q-22 -4 -29.5 2.5t-7.5 29.5v14q0 22 7.5 30.5t28.5 12.5q53 8 100 8q114 0 170 -39t56 -125v-194q0 -83 -51 -121.5t-162 -38.5zM231 76q61 0 87 17t26 61v62h-110
q-52 0 -76.5 -16.5t-24.5 -54.5q0 -37 24 -53t74 -16zM154 561h-10q-21 0 -24 6t8 23l38 60q17 26 33 35t44 9t44 -9t33 -35l39 -60q11 -17 8 -23t-24 -6h-11q-21 0 -32 6t-21 24l-15 24q-21 32 -42 0l-15 -24q-10 -18 -21 -24t-32 -6zM313 706q-37 0 -81 29t-57 29
q-29 0 -32 -33q-2 -12 -7.5 -16t-21.5 -4h-8q-17 0 -22.5 4.5t-4.5 17.5q9 101 100 101q35 0 79 -29t58 -29q30 0 31 28q1 25 30 25h8q15 0 21.5 -5t5.5 -17q-8 -101 -99 -101z" />
    <glyph glyph-name="Acircumflexdotbelow" unicode="&#x1eac;" 
d="M87 0h-14q-28 0 -34.5 9t0.5 35l123 447q27 97 57 132q31 36 104 36t103 -36q30 -35 57 -132l123 -447q7 -26 0.5 -35t-34.5 -9h-14q-27 0 -38.5 8.5t-19.5 35.5l-37 136h-281l-37 -136q-8 -27 -19.5 -35.5t-38.5 -8.5zM266 493l-59 -218h231l-59 218q-12 46 -22 59
t-34 13t-34.5 -13.5t-22.5 -58.5zM234 704h-10q-21 0 -24 6t8 23l38 60q17 26 33 35t44 9t44 -9t33 -35l39 -60q11 -17 8 -23t-24 -6h-11q-21 0 -32 6t-21 24l-15 24q-21 32 -42 0l-15 -24q-10 -18 -21 -24t-32 -6zM330 -186q-27 0 -46 19t-19 46t19 46t46 19t46 -19t19 -46
t-19 -46t-46 -19z" />
    <glyph glyph-name="acircumflexdotbelow" unicode="&#x1ead;" horiz-adv-x="490" 
d="M233 -11q-203 0 -203 154q0 78 50.5 114.5t153.5 36.5h110v49q0 42 -27.5 59t-90.5 17q-60 0 -105 -9q-22 -4 -29.5 2.5t-7.5 29.5v14q0 22 7.5 30.5t28.5 12.5q53 8 100 8q114 0 170 -39t56 -125v-194q0 -83 -51 -121.5t-162 -38.5zM231 76q61 0 87 17t26 61v62h-110
q-52 0 -76.5 -16.5t-24.5 -54.5q0 -37 24 -53t74 -16zM154 561h-10q-21 0 -24 6t8 23l38 60q17 26 33 35t44 9t44 -9t33 -35l39 -60q11 -17 8 -23t-24 -6h-11q-21 0 -32 6t-21 24l-15 24q-21 32 -42 0l-15 -24q-10 -18 -21 -24t-32 -6zM240 -186q-27 0 -46 19t-19 46t19 46
t46 19t46 -19t19 -46t-19 -46t-46 -19z" />
    <glyph glyph-name="Abreveacute" unicode="&#x1eae;" 
d="M87 0h-14q-28 0 -34.5 9t0.5 35l123 447q27 97 57 132q31 36 104 36t103 -36q30 -35 57 -132l123 -447q7 -26 0.5 -35t-34.5 -9h-14q-27 0 -38.5 8.5t-19.5 35.5l-37 136h-281l-37 -136q-8 -27 -19.5 -35.5t-38.5 -8.5zM266 493l-59 -218h231l-59 218q-12 46 -22 59
t-34 13t-34.5 -13.5t-22.5 -58.5zM188 809v4q0 13 6 17.5t25 4.5h11q19 0 25 -4.5t6 -17.5v-4q0 -22 14.5 -31.5t47.5 -9.5t47.5 9.5t14.5 31.5v4q0 13 6 17.5t25 4.5h11q19 0 25 -4.5t6 -17.5v-4q0 -105 -135 -105t-135 105zM316 796h-11q-22 0 -26.5 7t5.5 27l31 65
q10 22 22 29.5t37 7.5h25q25 0 28.5 -7t-9.5 -28l-44 -69q-12 -19 -23.5 -25.5t-34.5 -6.5z" />
    <glyph glyph-name="abreveacute" unicode="&#x1eaf;" horiz-adv-x="490" 
d="M233 -11q-203 0 -203 154q0 78 50.5 114.5t153.5 36.5h110v49q0 42 -27.5 59t-90.5 17q-60 0 -105 -9q-22 -4 -29.5 2.5t-7.5 29.5v14q0 22 7.5 30.5t28.5 12.5q53 8 100 8q114 0 170 -39t56 -125v-194q0 -83 -51 -121.5t-162 -38.5zM231 76q61 0 87 17t26 61v62h-110
q-52 0 -76.5 -16.5t-24.5 -54.5q0 -37 24 -53t74 -16zM110 665v4q0 13 6 17.5t25 4.5h11q19 0 25 -4.5t6 -17.5v-4q0 -22 14.5 -31.5t47.5 -9.5t47.5 9.5t14.5 31.5v4q0 13 6 17.5t25 4.5h11q19 0 25 -4.5t6 -17.5v-4q0 -105 -135 -105t-135 105zM238 652h-11q-22 0 -26.5 7
t5.5 27l31 65q10 22 22 29.5t37 7.5h25q25 0 28.5 -7t-9.5 -28l-44 -69q-12 -19 -23.5 -25.5t-34.5 -6.5z" />
    <glyph glyph-name="Abrevegrave" unicode="&#x1eb0;" 
d="M87 0h-14q-28 0 -34.5 9t0.5 35l123 447q27 97 57 132q31 36 104 36t103 -36q30 -35 57 -132l123 -447q7 -26 0.5 -35t-34.5 -9h-14q-27 0 -38.5 8.5t-19.5 35.5l-37 136h-281l-37 -136q-8 -27 -19.5 -35.5t-38.5 -8.5zM266 493l-59 -218h231l-59 218q-12 46 -22 59
t-34 13t-34.5 -13.5t-22.5 -58.5zM188 809v4q0 13 6 17.5t25 4.5h11q19 0 25 -4.5t6 -17.5v-4q0 -22 14.5 -31.5t47.5 -9.5t47.5 9.5t14.5 31.5v4q0 13 6 17.5t25 4.5h11q19 0 25 -4.5t6 -17.5v-4q0 -105 -135 -105t-135 105zM341 796h-11q-23 0 -34.5 6.5t-23.5 25.5
l-44 69q-13 21 -9.5 28t28.5 7h25q25 0 37 -7.5t22 -29.5l31 -65q10 -20 5.5 -27t-26.5 -7z" />
    <glyph glyph-name="abrevegrave" unicode="&#x1eb1;" horiz-adv-x="490" 
d="M233 -11q-203 0 -203 154q0 78 50.5 114.5t153.5 36.5h110v49q0 42 -27.5 59t-90.5 17q-60 0 -105 -9q-22 -4 -29.5 2.5t-7.5 29.5v14q0 22 7.5 30.5t28.5 12.5q53 8 100 8q114 0 170 -39t56 -125v-194q0 -83 -51 -121.5t-162 -38.5zM231 76q61 0 87 17t26 61v62h-110
q-52 0 -76.5 -16.5t-24.5 -54.5q0 -37 24 -53t74 -16zM110 665v4q0 13 6 17.5t25 4.5h11q19 0 25 -4.5t6 -17.5v-4q0 -22 14.5 -31.5t47.5 -9.5t47.5 9.5t14.5 31.5v4q0 13 6 17.5t25 4.5h11q19 0 25 -4.5t6 -17.5v-4q0 -105 -135 -105t-135 105zM263 652h-11
q-23 0 -34.5 6.5t-23.5 25.5l-44 69q-13 21 -9.5 28t28.5 7h25q25 0 37 -7.5t22 -29.5l31 -65q10 -20 5.5 -27t-26.5 -7z" />
    <glyph glyph-name="Abrevehookabove" unicode="&#x1eb2;" 
d="M87 0h-14q-28 0 -34.5 9t0.5 35l123 447q27 97 57 132q31 36 104 36t103 -36q30 -35 57 -132l123 -447q7 -26 0.5 -35t-34.5 -9h-14q-27 0 -38.5 8.5t-19.5 35.5l-37 136h-281l-37 -136q-8 -27 -19.5 -35.5t-38.5 -8.5zM266 493l-59 -218h231l-59 218q-12 46 -22 59
t-34 13t-34.5 -13.5t-22.5 -58.5zM188 809v4q0 13 6 17.5t25 4.5h11q19 0 25 -4.5t6 -17.5v-4q0 -22 14.5 -31.5t47.5 -9.5t47.5 9.5t14.5 31.5v4q0 13 6 17.5t25 4.5h11q19 0 25 -4.5t6 -17.5v-4q0 -105 -135 -105t-135 105zM338 800h-25q-15 0 -20 14l-12 45
q-4 16 -0.5 20t20.5 4h10q22 0 31.5 6.5t9.5 24.5t-9 24.5t-33 6.5q-5 0 -14 -1t-14 -1t-10.5 1.5t-7.5 6t-1 13.5v6q0 14 5 19.5t18 8.5q13 4 36 4q55 0 80.5 -21t25.5 -68q0 -39 -20 -55t-65 -14l7 -30q5 -14 -12 -14z" />
    <glyph glyph-name="abrevehookabove" unicode="&#x1eb3;" horiz-adv-x="490" 
d="M233 -11q-203 0 -203 154q0 78 50.5 114.5t153.5 36.5h110v49q0 42 -27.5 59t-90.5 17q-60 0 -105 -9q-22 -4 -29.5 2.5t-7.5 29.5v14q0 22 7.5 30.5t28.5 12.5q53 8 100 8q114 0 170 -39t56 -125v-194q0 -83 -51 -121.5t-162 -38.5zM231 76q61 0 87 17t26 61v62h-110
q-52 0 -76.5 -16.5t-24.5 -54.5q0 -37 24 -53t74 -16zM110 665v4q0 13 6 17.5t25 4.5h11q19 0 25 -4.5t6 -17.5v-4q0 -22 14.5 -31.5t47.5 -9.5t47.5 9.5t14.5 31.5v4q0 13 6 17.5t25 4.5h11q19 0 25 -4.5t6 -17.5v-4q0 -105 -135 -105t-135 105zM260 656h-25q-15 0 -20 14
l-12 45q-4 16 -0.5 20t20.5 4h10q22 0 31.5 6.5t9.5 24.5t-9 24.5t-33 6.5q-5 0 -14 -1t-14 -1t-10.5 1.5t-7.5 6t-1 13.5v6q0 14 5 19.5t18 8.5q13 4 36 4q55 0 80.5 -21t25.5 -68q0 -39 -20 -55t-65 -14l7 -30q5 -14 -12 -14z" />
    <glyph glyph-name="Abrevetilde" unicode="&#x1eb4;" 
d="M87 0h-14q-28 0 -34.5 9t0.5 35l123 447q27 97 57 132q31 36 104 36t103 -36q30 -35 57 -132l123 -447q7 -26 0.5 -35t-34.5 -9h-14q-27 0 -38.5 8.5t-19.5 35.5l-37 136h-281l-37 -136q-8 -27 -19.5 -35.5t-38.5 -8.5zM266 493l-59 -218h231l-59 218q-12 46 -22 59
t-34 13t-34.5 -13.5t-22.5 -58.5zM188 809v4q0 13 6 17.5t25 4.5h11q19 0 25 -4.5t6 -17.5v-4q0 -22 14.5 -31.5t47.5 -9.5t47.5 9.5t14.5 31.5v4q0 13 6 17.5t25 4.5h11q19 0 25 -4.5t6 -17.5v-4q0 -105 -135 -105t-135 105zM393 849q-37 0 -81 29t-57 29q-29 0 -32 -33
q-2 -12 -7.5 -16t-21.5 -4h-8q-17 0 -22.5 4.5t-4.5 17.5q9 101 100 101q35 0 79 -29t58 -29q30 0 31 28q1 25 30 25h8q15 0 21.5 -5t5.5 -17q-8 -101 -99 -101z" />
    <glyph glyph-name="abrevetilde" unicode="&#x1eb5;" horiz-adv-x="490" 
d="M233 -11q-203 0 -203 154q0 78 50.5 114.5t153.5 36.5h110v49q0 42 -27.5 59t-90.5 17q-60 0 -105 -9q-22 -4 -29.5 2.5t-7.5 29.5v14q0 22 7.5 30.5t28.5 12.5q53 8 100 8q114 0 170 -39t56 -125v-194q0 -83 -51 -121.5t-162 -38.5zM231 76q61 0 87 17t26 61v62h-110
q-52 0 -76.5 -16.5t-24.5 -54.5q0 -37 24 -53t74 -16zM110 665v4q0 13 6 17.5t25 4.5h11q19 0 25 -4.5t6 -17.5v-4q0 -22 14.5 -31.5t47.5 -9.5t47.5 9.5t14.5 31.5v4q0 13 6 17.5t25 4.5h11q19 0 25 -4.5t6 -17.5v-4q0 -105 -135 -105t-135 105zM315 705q-37 0 -81 29
t-57 29q-29 0 -32 -33q-2 -12 -7.5 -16t-21.5 -4h-8q-17 0 -22.5 4.5t-4.5 17.5q9 101 100 101q35 0 79 -29t58 -29q30 0 31 28q1 25 30 25h8q15 0 21.5 -5t5.5 -17q-8 -101 -99 -101z" />
    <glyph glyph-name="Abrevedotbelow" unicode="&#x1eb6;" 
d="M87 0h-14q-28 0 -34.5 9t0.5 35l123 447q27 97 57 132q31 36 104 36t103 -36q30 -35 57 -132l123 -447q7 -26 0.5 -35t-34.5 -9h-14q-27 0 -38.5 8.5t-19.5 35.5l-37 136h-281l-37 -136q-8 -27 -19.5 -35.5t-38.5 -8.5zM266 493l-59 -218h231l-59 218q-12 46 -22 59
t-34 13t-34.5 -13.5t-22.5 -58.5zM188 809v4q0 13 6 17.5t25 4.5h11q19 0 25 -4.5t6 -17.5v-4q0 -22 14.5 -31.5t47.5 -9.5t47.5 9.5t14.5 31.5v4q0 13 6 17.5t25 4.5h11q19 0 25 -4.5t6 -17.5v-4q0 -105 -135 -105t-135 105zM330 -186q-27 0 -46 19t-19 46t19 46t46 19
t46 -19t19 -46t-19 -46t-46 -19z" />
    <glyph glyph-name="abrevedotbelow" unicode="&#x1eb7;" horiz-adv-x="490" 
d="M233 -11q-203 0 -203 154q0 78 50.5 114.5t153.5 36.5h110v49q0 42 -27.5 59t-90.5 17q-60 0 -105 -9q-22 -4 -29.5 2.5t-7.5 29.5v14q0 22 7.5 30.5t28.5 12.5q53 8 100 8q114 0 170 -39t56 -125v-194q0 -83 -51 -121.5t-162 -38.5zM231 76q61 0 87 17t26 61v62h-110
q-52 0 -76.5 -16.5t-24.5 -54.5q0 -37 24 -53t74 -16zM110 665v4q0 13 6 17.5t25 4.5h11q19 0 25 -4.5t6 -17.5v-4q0 -22 14.5 -31.5t47.5 -9.5t47.5 9.5t14.5 31.5v4q0 13 6 17.5t25 4.5h11q19 0 25 -4.5t6 -17.5v-4q0 -105 -135 -105t-135 105zM240 -186q-27 0 -46 19
t-19 46t19 46t46 19t46 -19t19 -46t-19 -46t-46 -19z" />
    <glyph glyph-name="Edotbelow" unicode="&#x1eb8;" horiz-adv-x="562" 
d="M470 0h-283q-60 0 -87 27t-27 87v422q0 60 27 87t87 27h283q27 0 36 -9t9 -36v-9q0 -27 -9 -36t-36 -9h-253q-39 0 -39 -38v-128h252q27 0 36 -9t9 -36v-9q0 -27 -9 -36t-36 -9h-252v-149q0 -38 39 -38h253q27 0 36 -9t9 -36v-9q0 -27 -9 -36t-36 -9zM310 -186
q-27 0 -46 19t-19 46t19 46t46 19t46 -19t19 -46t-19 -46t-46 -19z" />
    <glyph glyph-name="edotbelow" unicode="&#x1eb9;" horiz-adv-x="522" 
d="M290 -11q-127 0 -186.5 51.5t-59.5 162.5v87q0 217 222 217q104 0 158 -52.5t54 -154.5q0 -4 -2 -44q-3 -28 -13 -37t-38 -9h-278v-22q0 -55 33.5 -78.5t109.5 -23.5q65 0 130 16q24 6 32.5 -1.5t8.5 -33.5v-13q0 -25 -7.5 -33.5t-33.5 -15.5q-57 -16 -130 -16zM147 319
v-25h234v25q0 99 -118 99q-116 0 -116 -99zM272 -186q-27 0 -46 19t-19 46t19 46t46 19t46 -19t19 -46t-19 -46t-46 -19z" />
    <glyph glyph-name="Ehookabove" unicode="&#x1eba;" horiz-adv-x="562" 
d="M470 0h-283q-60 0 -87 27t-27 87v422q0 60 27 87t87 27h283q27 0 36 -9t9 -36v-9q0 -27 -9 -36t-36 -9h-253q-39 0 -39 -38v-128h252q27 0 36 -9t9 -36v-9q0 -27 -9 -36t-36 -9h-252v-149q0 -38 39 -38h253q27 0 36 -9t9 -36v-9q0 -27 -9 -36t-36 -9zM308 683h-25
q-15 0 -20 14l-12 45q-4 16 -0.5 20t20.5 4h10q22 0 31.5 6.5t9.5 24.5t-9 24.5t-33 6.5q-5 0 -14 -1t-14 -1t-10.5 1.5t-7.5 6t-1 13.5v6q0 14 5 19.5t18 8.5q13 4 36 4q55 0 80.5 -21t25.5 -68q0 -39 -20 -55t-65 -14l7 -30q5 -14 -12 -14z" />
    <glyph glyph-name="ehookabove" unicode="&#x1ebb;" horiz-adv-x="522" 
d="M290 -11q-127 0 -186.5 51.5t-59.5 162.5v87q0 217 222 217q104 0 158 -52.5t54 -154.5q0 -4 -2 -44q-3 -28 -13 -37t-38 -9h-278v-22q0 -55 33.5 -78.5t109.5 -23.5q65 0 130 16q24 6 32.5 -1.5t8.5 -33.5v-13q0 -25 -7.5 -33.5t-33.5 -15.5q-57 -16 -130 -16zM147 319
v-25h234v25q0 99 -118 99q-116 0 -116 -99zM274 531h-25q-15 0 -20 14l-12 45q-4 16 -0.5 20t20.5 4h10q22 0 31.5 6.5t9.5 24.5t-9 24.5t-33 6.5q-5 0 -14 -1t-14 -1t-10.5 1.5t-7.5 6t-1 13.5v6q0 14 5 19.5t18 8.5q13 4 36 4q55 0 80.5 -21t25.5 -68q0 -39 -20 -55
t-65 -14l7 -30q5 -14 -12 -14z" />
    <glyph glyph-name="Etilde" unicode="&#x1ebc;" horiz-adv-x="562" 
d="M470 0h-283q-60 0 -87 27t-27 87v422q0 60 27 87t87 27h283q27 0 36 -9t9 -36v-9q0 -27 -9 -36t-36 -9h-253q-39 0 -39 -38v-128h252q27 0 36 -9t9 -36v-9q0 -27 -9 -36t-36 -9h-252v-149q0 -38 39 -38h253q27 0 36 -9t9 -36v-9q0 -27 -9 -36t-36 -9zM371 706
q-37 0 -81 29t-57 29q-29 0 -32 -33q-2 -12 -7.5 -16t-21.5 -4h-8q-17 0 -22.5 4.5t-4.5 17.5q9 101 100 101q35 0 79 -29t58 -29q30 0 31 28q1 25 30 25h8q15 0 21.5 -5t5.5 -17q-8 -101 -99 -101z" />
    <glyph glyph-name="etilde" unicode="&#x1ebd;" horiz-adv-x="522" 
d="M290 -11q-127 0 -186.5 51.5t-59.5 162.5v87q0 217 222 217q104 0 158 -52.5t54 -154.5q0 -4 -2 -44q-3 -28 -13 -37t-38 -9h-278v-22q0 -55 33.5 -78.5t109.5 -23.5q65 0 130 16q24 6 32.5 -1.5t8.5 -33.5v-13q0 -25 -7.5 -33.5t-33.5 -15.5q-57 -16 -130 -16zM147 319
v-25h234v25q0 99 -118 99q-116 0 -116 -99zM319 563q-37 0 -81 29t-57 29q-29 0 -32 -33q-2 -12 -7.5 -16t-21.5 -4h-8q-17 0 -22.5 4.5t-4.5 17.5q9 101 100 101q35 0 79 -29t58 -29q30 0 31 28q1 25 30 25h8q15 0 21.5 -5t5.5 -17q-8 -101 -99 -101z" />
    <glyph glyph-name="Ecircumflexacute" unicode="&#x1ebe;" horiz-adv-x="562" 
d="M470 0h-283q-60 0 -87 27t-27 87v422q0 60 27 87t87 27h283q27 0 36 -9t9 -36v-9q0 -27 -9 -36t-36 -9h-253q-39 0 -39 -38v-128h252q27 0 36 -9t9 -36v-9q0 -27 -9 -36t-36 -9h-252v-149q0 -38 39 -38h253q27 0 36 -9t9 -36v-9q0 -27 -9 -36t-36 -9zM210 704h-10
q-21 0 -24 6t8 23l38 60q17 26 33 35t44 9t44 -9t33 -35l39 -60q11 -17 8 -23t-24 -6h-11q-21 0 -32 6t-21 24l-15 24q-21 32 -42 0l-15 -24q-10 -18 -21 -24t-32 -6zM445 796h-11q-22 0 -26.5 7t5.5 27l31 65q10 22 22 29.5t37 7.5h25q25 0 28.5 -7t-9.5 -28l-44 -69
q-12 -19 -23.5 -25.5t-34.5 -6.5z" />
    <glyph glyph-name="ecircumflexacute" unicode="&#x1ebf;" horiz-adv-x="522" 
d="M290 -11q-127 0 -186.5 51.5t-59.5 162.5v87q0 217 222 217q104 0 158 -52.5t54 -154.5q0 -4 -2 -44q-3 -28 -13 -37t-38 -9h-278v-22q0 -55 33.5 -78.5t109.5 -23.5q65 0 130 16q24 6 32.5 -1.5t8.5 -33.5v-13q0 -25 -7.5 -33.5t-33.5 -15.5q-57 -16 -130 -16zM147 319
v-25h234v25q0 99 -118 99q-116 0 -116 -99zM170 561h-10q-21 0 -24 6t8 23l38 60q17 26 33 35t44 9t44 -9t33 -35l39 -60q11 -17 8 -23t-24 -6h-11q-21 0 -32 6t-21 24l-15 24q-21 32 -42 0l-15 -24q-10 -18 -21 -24t-32 -6zM405 653h-11q-22 0 -26.5 7t5.5 27l31 65
q10 22 22 29.5t37 7.5h25q25 0 28.5 -7t-9.5 -28l-44 -69q-12 -19 -23.5 -25.5t-34.5 -6.5z" />
    <glyph glyph-name="Ecircumflexgrave" unicode="&#x1ec0;" horiz-adv-x="562" 
d="M470 0h-283q-60 0 -87 27t-27 87v422q0 60 27 87t87 27h283q27 0 36 -9t9 -36v-9q0 -27 -9 -36t-36 -9h-253q-39 0 -39 -38v-128h252q27 0 36 -9t9 -36v-9q0 -27 -9 -36t-36 -9h-252v-149q0 -38 39 -38h253q27 0 36 -9t9 -36v-9q0 -27 -9 -36t-36 -9zM210 704h-10
q-21 0 -24 6t8 23l38 60q17 26 33 35t44 9t44 -9t33 -35l39 -60q11 -17 8 -23t-24 -6h-11q-21 0 -32 6t-21 24l-15 24q-21 32 -42 0l-15 -24q-10 -18 -21 -24t-32 -6zM164 796h-11q-23 0 -34.5 6.5t-23.5 25.5l-44 69q-13 21 -9.5 28t28.5 7h25q25 0 37 -7.5t22 -29.5
l31 -65q10 -20 5.5 -27t-26.5 -7z" />
    <glyph glyph-name="ecircumflexgrave" unicode="&#x1ec1;" horiz-adv-x="522" 
d="M290 -11q-127 0 -186.5 51.5t-59.5 162.5v87q0 217 222 217q104 0 158 -52.5t54 -154.5q0 -4 -2 -44q-3 -28 -13 -37t-38 -9h-278v-22q0 -55 33.5 -78.5t109.5 -23.5q65 0 130 16q24 6 32.5 -1.5t8.5 -33.5v-13q0 -25 -7.5 -33.5t-33.5 -15.5q-57 -16 -130 -16zM147 319
v-25h234v25q0 99 -118 99q-116 0 -116 -99zM170 561h-10q-21 0 -24 6t8 23l38 60q17 26 33 35t44 9t44 -9t33 -35l39 -60q11 -17 8 -23t-24 -6h-11q-21 0 -32 6t-21 24l-15 24q-21 32 -42 0l-15 -24q-10 -18 -21 -24t-32 -6zM124 653h-11q-23 0 -34.5 6.5t-23.5 25.5l-44 69
q-13 21 -9.5 28t28.5 7h25q25 0 37 -7.5t22 -29.5l31 -65q10 -20 5.5 -27t-26.5 -7z" />
    <glyph glyph-name="Ecircumflexhookabove" unicode="&#x1ec2;" horiz-adv-x="562" 
d="M470 0h-283q-60 0 -87 27t-27 87v422q0 60 27 87t87 27h283q27 0 36 -9t9 -36v-9q0 -27 -9 -36t-36 -9h-253q-39 0 -39 -38v-128h252q27 0 36 -9t9 -36v-9q0 -27 -9 -36t-36 -9h-252v-149q0 -38 39 -38h253q27 0 36 -9t9 -36v-9q0 -27 -9 -36t-36 -9zM210 704h-10
q-21 0 -24 6t8 23l38 60q17 26 33 35t44 9t44 -9t33 -35l39 -60q11 -17 8 -23t-24 -6h-11q-21 0 -32 6t-21 24l-15 24q-21 32 -42 0l-15 -24q-10 -18 -21 -24t-32 -6zM444 800h-25q-15 0 -20 14l-12 45q-4 16 -0.5 20t20.5 4h10q22 0 31.5 6.5t9.5 24.5t-9 24.5t-33 6.5
q-5 0 -14 -1t-14 -1t-10.5 1.5t-7.5 6t-1 13.5v6q0 14 5 19.5t18 8.5q13 4 36 4q55 0 80.5 -21t25.5 -68q0 -39 -20 -55t-65 -14l7 -30q5 -14 -12 -14z" />
    <glyph glyph-name="ecircumflexhookabove" unicode="&#x1ec3;" horiz-adv-x="522" 
d="M290 -11q-127 0 -186.5 51.5t-59.5 162.5v87q0 217 222 217q104 0 158 -52.5t54 -154.5q0 -4 -2 -44q-3 -28 -13 -37t-38 -9h-278v-22q0 -55 33.5 -78.5t109.5 -23.5q65 0 130 16q24 6 32.5 -1.5t8.5 -33.5v-13q0 -25 -7.5 -33.5t-33.5 -15.5q-57 -16 -130 -16zM147 319
v-25h234v25q0 99 -118 99q-116 0 -116 -99zM170 561h-10q-21 0 -24 6t8 23l38 60q17 26 33 35t44 9t44 -9t33 -35l39 -60q11 -17 8 -23t-24 -6h-11q-21 0 -32 6t-21 24l-15 24q-21 32 -42 0l-15 -24q-10 -18 -21 -24t-32 -6zM404 657h-25q-15 0 -20 14l-12 45q-4 16 -0.5 20
t20.5 4h10q22 0 31.5 6.5t9.5 24.5t-9 24.5t-33 6.5q-5 0 -14 -1t-14 -1t-10.5 1.5t-7.5 6t-1 13.5v6q0 14 5 19.5t18 8.5q13 4 36 4q55 0 80.5 -21t25.5 -68q0 -39 -20 -55t-65 -14l7 -30q5 -14 -12 -14z" />
    <glyph glyph-name="Ecircumflextilde" unicode="&#x1ec4;" horiz-adv-x="562" 
d="M470 0h-283q-60 0 -87 27t-27 87v422q0 60 27 87t87 27h283q27 0 36 -9t9 -36v-9q0 -27 -9 -36t-36 -9h-253q-39 0 -39 -38v-128h252q27 0 36 -9t9 -36v-9q0 -27 -9 -36t-36 -9h-252v-149q0 -38 39 -38h253q27 0 36 -9t9 -36v-9q0 -27 -9 -36t-36 -9zM210 704h-10
q-21 0 -24 6t8 23l38 60q17 26 33 35t44 9t44 -9t33 -35l39 -60q11 -17 8 -23t-24 -6h-11q-21 0 -32 6t-21 24l-15 24q-21 32 -42 0l-15 -24q-10 -18 -21 -24t-32 -6zM369 849q-37 0 -81 29t-57 29q-29 0 -32 -33q-2 -12 -7.5 -16t-21.5 -4h-8q-17 0 -22.5 4.5t-4.5 17.5
q9 101 100 101q35 0 79 -29t58 -29q30 0 31 28q1 25 30 25h8q15 0 21.5 -5t5.5 -17q-8 -101 -99 -101z" />
    <glyph glyph-name="ecircumflextilde" unicode="&#x1ec5;" horiz-adv-x="522" 
d="M290 -11q-127 0 -186.5 51.5t-59.5 162.5v87q0 217 222 217q104 0 158 -52.5t54 -154.5q0 -4 -2 -44q-3 -28 -13 -37t-38 -9h-278v-22q0 -55 33.5 -78.5t109.5 -23.5q65 0 130 16q24 6 32.5 -1.5t8.5 -33.5v-13q0 -25 -7.5 -33.5t-33.5 -15.5q-57 -16 -130 -16zM147 319
v-25h234v25q0 99 -118 99q-116 0 -116 -99zM170 561h-10q-21 0 -24 6t8 23l38 60q17 26 33 35t44 9t44 -9t33 -35l39 -60q11 -17 8 -23t-24 -6h-11q-21 0 -32 6t-21 24l-15 24q-21 32 -42 0l-15 -24q-10 -18 -21 -24t-32 -6zM329 706q-37 0 -81 29t-57 29q-29 0 -32 -33
q-2 -12 -7.5 -16t-21.5 -4h-8q-17 0 -22.5 4.5t-4.5 17.5q9 101 100 101q35 0 79 -29t58 -29q30 0 31 28q1 25 30 25h8q15 0 21.5 -5t5.5 -17q-8 -101 -99 -101z" />
    <glyph glyph-name="Ecircumflexdotbelow" unicode="&#x1ec6;" horiz-adv-x="562" 
d="M470 0h-283q-60 0 -87 27t-27 87v422q0 60 27 87t87 27h283q27 0 36 -9t9 -36v-9q0 -27 -9 -36t-36 -9h-253q-39 0 -39 -38v-128h252q27 0 36 -9t9 -36v-9q0 -27 -9 -36t-36 -9h-252v-149q0 -38 39 -38h253q27 0 36 -9t9 -36v-9q0 -27 -9 -36t-36 -9zM210 704h-10
q-21 0 -24 6t8 23l38 60q17 26 33 35t44 9t44 -9t33 -35l39 -60q11 -17 8 -23t-24 -6h-11q-21 0 -32 6t-21 24l-15 24q-21 32 -42 0l-15 -24q-10 -18 -21 -24t-32 -6zM310 -186q-27 0 -46 19t-19 46t19 46t46 19t46 -19t19 -46t-19 -46t-46 -19z" />
    <glyph glyph-name="ecircumflexdotbelow" unicode="&#x1ec7;" horiz-adv-x="522" 
d="M290 -11q-127 0 -186.5 51.5t-59.5 162.5v87q0 217 222 217q104 0 158 -52.5t54 -154.5q0 -4 -2 -44q-3 -28 -13 -37t-38 -9h-278v-22q0 -55 33.5 -78.5t109.5 -23.5q65 0 130 16q24 6 32.5 -1.5t8.5 -33.5v-13q0 -25 -7.5 -33.5t-33.5 -15.5q-57 -16 -130 -16zM147 319
v-25h234v25q0 99 -118 99q-116 0 -116 -99zM170 561h-10q-21 0 -24 6t8 23l38 60q17 26 33 35t44 9t44 -9t33 -35l39 -60q11 -17 8 -23t-24 -6h-11q-21 0 -32 6t-21 24l-15 24q-21 32 -42 0l-15 -24q-10 -18 -21 -24t-32 -6zM272 -186q-27 0 -46 19t-19 46t19 46t46 19
t46 -19t19 -46t-19 -46t-46 -19z" />
    <glyph glyph-name="Ihookabove" unicode="&#x1ec8;" horiz-adv-x="265" 
d="M139 0h-13q-28 0 -37 9t-9 37v558q0 28 9 37t37 9h13q28 0 37 -9t9 -37v-558q0 -28 -9 -37t-37 -9zM128 683h-25q-15 0 -20 14l-12 45q-4 16 -0.5 20t20.5 4h10q22 0 31.5 6.5t9.5 24.5t-9 24.5t-33 6.5q-5 0 -14 -1t-14 -1t-10.5 1.5t-7.5 6t-1 13.5v6q0 14 5 19.5
t18 8.5q13 4 36 4q55 0 80.5 -21t25.5 -68q0 -39 -20 -55t-65 -14l7 -30q5 -14 -12 -14z" />
    <glyph glyph-name="ihookabove" unicode="&#x1ec9;" horiz-adv-x="233" 
d="M123 0h-13q-27 0 -36 9t-9 36v406q0 27 9 36t36 9h13q27 0 36 -9t9 -36v-406q0 -27 -9 -36t-36 -9zM112 531h-25q-15 0 -20 14l-12 45q-4 16 -0.5 20t20.5 4h10q22 0 31.5 6.5t9.5 24.5t-9 24.5t-33 6.5q-5 0 -14 -1t-14 -1t-10.5 1.5t-7.5 6t-1 13.5v6q0 14 5 19.5
t18 8.5q13 4 36 4q55 0 80.5 -21t25.5 -68q0 -39 -20 -55t-65 -14l7 -30q5 -14 -12 -14z" />
    <glyph glyph-name="Idotbelow" unicode="&#x1eca;" horiz-adv-x="265" 
d="M139 0h-13q-28 0 -37 9t-9 37v558q0 28 9 37t37 9h13q28 0 37 -9t9 -37v-558q0 -28 -9 -37t-37 -9zM133 -186q-27 0 -46 19t-19 46t19 46t46 19t46 -19t19 -46t-19 -46t-46 -19z" />
    <glyph glyph-name="idotbelow" unicode="&#x1ecb;" horiz-adv-x="233" 
d="M123 0h-13q-27 0 -36 9t-9 36v406q0 27 9 36t36 9h13q27 0 36 -9t9 -36v-406q0 -27 -9 -36t-36 -9zM117 -186q-27 0 -46 19t-19 46t19 46t46 19t46 -19t19 -46t-19 -46t-46 -19z" />
    <glyph glyph-name="Odotbelow" unicode="&#x1ecc;" horiz-adv-x="636" 
d="M318 -12q-149 0 -207 67t-58 197v143q0 129 58 196q59 68 207 68t207 -68q58 -67 58 -196v-143q0 -129 -59 -197q-58 -67 -206 -67zM445 126q32 41 32 126v143q0 88 -32 126q-31 39 -127 39t-127 -39q-32 -38 -32 -126v-143q0 -85 32 -126q31 -39 127 -39t127 39z
M318 -186q-27 0 -46 19t-19 46t19 46t46 19t46 -19t19 -46t-19 -46t-46 -19z" />
    <glyph glyph-name="odotbelow" unicode="&#x1ecd;" horiz-adv-x="546" 
d="M274 -11q-118 0 -174 53t-56 163v86q0 216 230 216q117 0 172.5 -53.5t55.5 -162.5v-86q0 -106 -57.5 -161t-170.5 -55zM274 86q71 0 98 26.5t27 92.5v86q0 66 -27.5 93t-97.5 27q-71 0 -99 -27t-28 -93v-86q0 -65 28 -92t99 -27zM273 -186q-27 0 -46 19t-19 46t19 46
t46 19t46 -19t19 -46t-19 -46t-46 -19z" />
    <glyph glyph-name="Ohookabove" unicode="&#x1ece;" horiz-adv-x="636" 
d="M318 -12q-149 0 -207 67t-58 197v143q0 129 58 196q59 68 207 68t207 -68q58 -67 58 -196v-143q0 -129 -59 -197q-58 -67 -206 -67zM445 126q32 41 32 126v143q0 88 -32 126q-31 39 -127 39t-127 -39q-32 -38 -32 -126v-143q0 -85 32 -126q31 -39 127 -39t127 39z
M318 683h-25q-15 0 -20 14l-12 45q-4 16 -0.5 20t20.5 4h10q22 0 31.5 6.5t9.5 24.5t-9 24.5t-33 6.5q-5 0 -14 -1t-14 -1t-10.5 1.5t-7.5 6t-1 13.5v6q0 14 5 19.5t18 8.5q13 4 36 4q55 0 80.5 -21t25.5 -68q0 -39 -20 -55t-65 -14l7 -30q5 -14 -12 -14z" />
    <glyph glyph-name="ohookabove" unicode="&#x1ecf;" horiz-adv-x="546" 
d="M274 -11q-118 0 -174 53t-56 163v86q0 216 230 216q117 0 172.5 -53.5t55.5 -162.5v-86q0 -106 -57.5 -161t-170.5 -55zM274 86q71 0 98 26.5t27 92.5v86q0 66 -27.5 93t-97.5 27q-71 0 -99 -27t-28 -93v-86q0 -65 28 -92t99 -27zM278 531h-25q-15 0 -20 14l-12 45
q-4 16 -0.5 20t20.5 4h10q22 0 31.5 6.5t9.5 24.5t-9 24.5t-33 6.5q-5 0 -14 -1t-14 -1t-10.5 1.5t-7.5 6t-1 13.5v6q0 14 5 19.5t18 8.5q13 4 36 4q55 0 80.5 -21t25.5 -68q0 -39 -20 -55t-65 -14l7 -30q5 -14 -12 -14z" />
    <glyph glyph-name="Ocircumflexacute" unicode="&#x1ed0;" horiz-adv-x="636" 
d="M318 -12q-149 0 -207 67t-58 197v143q0 129 58 196q59 68 207 68t207 -68q58 -67 58 -196v-143q0 -129 -59 -197q-58 -67 -206 -67zM445 126q32 41 32 126v143q0 88 -32 126q-31 39 -127 39t-127 -39q-32 -38 -32 -126v-143q0 -85 32 -126q31 -39 127 -39t127 39z
M229 704h-10q-21 0 -24 6t8 23l38 60q17 26 33 35t44 9t44 -9t33 -35l39 -60q11 -17 8 -23t-24 -6h-11q-21 0 -32 6t-21 24l-15 24q-21 32 -42 0l-15 -24q-10 -18 -21 -24t-32 -6zM464 796h-11q-22 0 -26.5 7t5.5 27l31 65q10 22 22 29.5t37 7.5h25q25 0 28.5 -7t-9.5 -28
l-44 -69q-12 -19 -23.5 -25.5t-34.5 -6.5z" />
    <glyph glyph-name="ocircumflexacute" unicode="&#x1ed1;" horiz-adv-x="546" 
d="M274 -11q-118 0 -174 53t-56 163v86q0 216 230 216q117 0 172.5 -53.5t55.5 -162.5v-86q0 -106 -57.5 -161t-170.5 -55zM274 86q71 0 98 26.5t27 92.5v86q0 66 -27.5 93t-97.5 27q-71 0 -99 -27t-28 -93v-86q0 -65 28 -92t99 -27zM184 561h-10q-21 0 -24 6t8 23l38 60
q17 26 33 35t44 9t44 -9t33 -35l39 -60q11 -17 8 -23t-24 -6h-11q-21 0 -32 6t-21 24l-15 24q-21 32 -42 0l-15 -24q-10 -18 -21 -24t-32 -6zM419 653h-11q-22 0 -26.5 7t5.5 27l31 65q10 22 22 29.5t37 7.5h25q25 0 28.5 -7t-9.5 -28l-44 -69q-12 -19 -23.5 -25.5
t-34.5 -6.5z" />
    <glyph glyph-name="Ocircumflexgrave" unicode="&#x1ed2;" horiz-adv-x="636" 
d="M318 -12q-149 0 -207 67t-58 197v143q0 129 58 196q59 68 207 68t207 -68q58 -67 58 -196v-143q0 -129 -59 -197q-58 -67 -206 -67zM445 126q32 41 32 126v143q0 88 -32 126q-31 39 -127 39t-127 -39q-32 -38 -32 -126v-143q0 -85 32 -126q31 -39 127 -39t127 39z
M229 704h-10q-21 0 -24 6t8 23l38 60q17 26 33 35t44 9t44 -9t33 -35l39 -60q11 -17 8 -23t-24 -6h-11q-21 0 -32 6t-21 24l-15 24q-21 32 -42 0l-15 -24q-10 -18 -21 -24t-32 -6zM183 796h-11q-23 0 -34.5 6.5t-23.5 25.5l-44 69q-13 21 -9.5 28t28.5 7h25q25 0 37 -7.5
t22 -29.5l31 -65q10 -20 5.5 -27t-26.5 -7z" />
    <glyph glyph-name="ocircumflexgrave" unicode="&#x1ed3;" horiz-adv-x="546" 
d="M274 -11q-118 0 -174 53t-56 163v86q0 216 230 216q117 0 172.5 -53.5t55.5 -162.5v-86q0 -106 -57.5 -161t-170.5 -55zM274 86q71 0 98 26.5t27 92.5v86q0 66 -27.5 93t-97.5 27q-71 0 -99 -27t-28 -93v-86q0 -65 28 -92t99 -27zM184 561h-10q-21 0 -24 6t8 23l38 60
q17 26 33 35t44 9t44 -9t33 -35l39 -60q11 -17 8 -23t-24 -6h-11q-21 0 -32 6t-21 24l-15 24q-21 32 -42 0l-15 -24q-10 -18 -21 -24t-32 -6zM138 653h-11q-23 0 -34.5 6.5t-23.5 25.5l-44 69q-13 21 -9.5 28t28.5 7h25q25 0 37 -7.5t22 -29.5l31 -65q10 -20 5.5 -27
t-26.5 -7z" />
    <glyph glyph-name="Ocircumflexhookabove" unicode="&#x1ed4;" horiz-adv-x="636" 
d="M318 -12q-149 0 -207 67t-58 197v143q0 129 58 196q59 68 207 68t207 -68q58 -67 58 -196v-143q0 -129 -59 -197q-58 -67 -206 -67zM445 126q32 41 32 126v143q0 88 -32 126q-31 39 -127 39t-127 -39q-32 -38 -32 -126v-143q0 -85 32 -126q31 -39 127 -39t127 39z
M229 704h-10q-21 0 -24 6t8 23l38 60q17 26 33 35t44 9t44 -9t33 -35l39 -60q11 -17 8 -23t-24 -6h-11q-21 0 -32 6t-21 24l-15 24q-21 32 -42 0l-15 -24q-10 -18 -21 -24t-32 -6zM463 800h-25q-15 0 -20 14l-12 45q-4 16 -0.5 20t20.5 4h10q22 0 31.5 6.5t9.5 24.5t-9 24.5
t-33 6.5q-5 0 -14 -1t-14 -1t-10.5 1.5t-7.5 6t-1 13.5v6q0 14 5 19.5t18 8.5q13 4 36 4q55 0 80.5 -21t25.5 -68q0 -39 -20 -55t-65 -14l7 -30q5 -14 -12 -14z" />
    <glyph glyph-name="ocircumflexhookabove" unicode="&#x1ed5;" horiz-adv-x="546" 
d="M274 -11q-118 0 -174 53t-56 163v86q0 216 230 216q117 0 172.5 -53.5t55.5 -162.5v-86q0 -106 -57.5 -161t-170.5 -55zM274 86q71 0 98 26.5t27 92.5v86q0 66 -27.5 93t-97.5 27q-71 0 -99 -27t-28 -93v-86q0 -65 28 -92t99 -27zM184 561h-10q-21 0 -24 6t8 23l38 60
q17 26 33 35t44 9t44 -9t33 -35l39 -60q11 -17 8 -23t-24 -6h-11q-21 0 -32 6t-21 24l-15 24q-21 32 -42 0l-15 -24q-10 -18 -21 -24t-32 -6zM418 657h-25q-15 0 -20 14l-12 45q-4 16 -0.5 20t20.5 4h10q22 0 31.5 6.5t9.5 24.5t-9 24.5t-33 6.5q-5 0 -14 -1t-14 -1
t-10.5 1.5t-7.5 6t-1 13.5v6q0 14 5 19.5t18 8.5q13 4 36 4q55 0 80.5 -21t25.5 -68q0 -39 -20 -55t-65 -14l7 -30q5 -14 -12 -14z" />
    <glyph glyph-name="Ocircumflextilde" unicode="&#x1ed6;" horiz-adv-x="636" 
d="M318 -12q-149 0 -207 67t-58 197v143q0 129 58 196q59 68 207 68t207 -68q58 -67 58 -196v-143q0 -129 -59 -197q-58 -67 -206 -67zM445 126q32 41 32 126v143q0 88 -32 126q-31 39 -127 39t-127 -39q-32 -38 -32 -126v-143q0 -85 32 -126q31 -39 127 -39t127 39z
M229 704h-10q-21 0 -24 6t8 23l38 60q17 26 33 35t44 9t44 -9t33 -35l39 -60q11 -17 8 -23t-24 -6h-11q-21 0 -32 6t-21 24l-15 24q-21 32 -42 0l-15 -24q-10 -18 -21 -24t-32 -6zM388 849q-37 0 -81 29t-57 29q-29 0 -32 -33q-2 -12 -7.5 -16t-21.5 -4h-8q-17 0 -22.5 4.5
t-4.5 17.5q9 101 100 101q35 0 79 -29t58 -29q30 0 31 28q1 25 30 25h8q15 0 21.5 -5t5.5 -17q-8 -101 -99 -101z" />
    <glyph glyph-name="ocircumflextilde" unicode="&#x1ed7;" horiz-adv-x="546" 
d="M274 -11q-118 0 -174 53t-56 163v86q0 216 230 216q117 0 172.5 -53.5t55.5 -162.5v-86q0 -106 -57.5 -161t-170.5 -55zM274 86q71 0 98 26.5t27 92.5v86q0 66 -27.5 93t-97.5 27q-71 0 -99 -27t-28 -93v-86q0 -65 28 -92t99 -27zM184 561h-10q-21 0 -24 6t8 23l38 60
q17 26 33 35t44 9t44 -9t33 -35l39 -60q11 -17 8 -23t-24 -6h-11q-21 0 -32 6t-21 24l-15 24q-21 32 -42 0l-15 -24q-10 -18 -21 -24t-32 -6zM343 706q-37 0 -81 29t-57 29q-29 0 -32 -33q-2 -12 -7.5 -16t-21.5 -4h-8q-17 0 -22.5 4.5t-4.5 17.5q9 101 100 101q35 0 79 -29
t58 -29q30 0 31 28q1 25 30 25h8q15 0 21.5 -5t5.5 -17q-8 -101 -99 -101z" />
    <glyph glyph-name="Ocircumflexdotbelow" unicode="&#x1ed8;" horiz-adv-x="636" 
d="M318 -12q-149 0 -207 67t-58 197v143q0 129 58 196q59 68 207 68t207 -68q58 -67 58 -196v-143q0 -129 -59 -197q-58 -67 -206 -67zM445 126q32 41 32 126v143q0 88 -32 126q-31 39 -127 39t-127 -39q-32 -38 -32 -126v-143q0 -85 32 -126q31 -39 127 -39t127 39z
M318 -186q-27 0 -46 19t-19 46t19 46t46 19t46 -19t19 -46t-19 -46t-46 -19zM229 704h-10q-21 0 -24 6t8 23l38 60q17 26 33 35t44 9t44 -9t33 -35l39 -60q11 -17 8 -23t-24 -6h-11q-21 0 -32 6t-21 24l-15 24q-21 32 -42 0l-15 -24q-10 -18 -21 -24t-32 -6z" />
    <glyph glyph-name="ocircumflexdotbelow" unicode="&#x1ed9;" horiz-adv-x="546" 
d="M274 -11q-118 0 -174 53t-56 163v86q0 216 230 216q117 0 172.5 -53.5t55.5 -162.5v-86q0 -106 -57.5 -161t-170.5 -55zM274 86q71 0 98 26.5t27 92.5v86q0 66 -27.5 93t-97.5 27q-71 0 -99 -27t-28 -93v-86q0 -65 28 -92t99 -27zM273 -186q-27 0 -46 19t-19 46t19 46
t46 19t46 -19t19 -46t-19 -46t-46 -19zM184 561h-10q-21 0 -24 6t8 23l38 60q17 26 33 35t44 9t44 -9t33 -35l39 -60q11 -17 8 -23t-24 -6h-11q-21 0 -32 6t-21 24l-15 24q-21 32 -42 0l-15 -24q-10 -18 -21 -24t-32 -6z" />
    <glyph glyph-name="Ohornacute" unicode="&#x1eda;" horiz-adv-x="680" 
d="M318 -12q-149 0 -207 67t-58 197v143q0 129 58 196q59 68 207 68t207 -68l10 -14q7 -5 21 -5q18 0 24.5 9t6.5 33q0 4 -0.5 16.5t-0.5 14.5q2 14 22 14h42q14 0 19.5 -5t7.5 -18q3 -16 3 -36q0 -112 -104 -123q7 -41 7 -82v-143q0 -129 -59 -197q-58 -67 -206 -67z
M445 126q32 41 32 126v143q0 88 -32 126q-31 39 -127 39t-127 -39q-32 -38 -32 -126v-143q0 -85 32 -126q31 -39 127 -39t127 39zM305 702h-11q-22 0 -26.5 7t5.5 27l31 65q10 22 22 29.5t37 7.5h25q25 0 28.5 -7t-9.5 -28l-44 -69q-12 -19 -23.5 -25.5t-34.5 -6.5z" />
    <glyph glyph-name="ohornacute" unicode="&#x1edb;" horiz-adv-x="615" 
d="M274 -11q-118 0 -174 53t-56 163v86q0 216 230 216q141 0 194 -80q7 -7 23 -7q18 0 24.5 9t6.5 33q0 4 -0.5 16.5t-0.5 14.5q2 14 22 14h42q14 0 19.5 -5t7.5 -18q3 -16 3 -36q0 -120 -114 -124q1 -7 1 -33v-86q0 -106 -57.5 -161t-170.5 -55zM274 86q71 0 98 26.5
t27 92.5v86q0 66 -27.5 93t-97.5 27q-71 0 -99 -27t-28 -93v-86q0 -65 28 -92t99 -27zM276 559h-11q-22 0 -26.5 7t5.5 27l31 65q10 22 22 29.5t37 7.5h25q25 0 28.5 -7t-9.5 -28l-44 -69q-12 -19 -23.5 -25.5t-34.5 -6.5z" />
    <glyph glyph-name="Ohorngrave" unicode="&#x1edc;" horiz-adv-x="680" 
d="M318 -12q-149 0 -207 67t-58 197v143q0 129 58 196q59 68 207 68t207 -68l10 -14q7 -5 21 -5q18 0 24.5 9t6.5 33q0 4 -0.5 16.5t-0.5 14.5q2 14 22 14h42q14 0 19.5 -5t7.5 -18q3 -16 3 -36q0 -112 -104 -123q7 -41 7 -82v-143q0 -129 -59 -197q-58 -67 -206 -67z
M445 126q32 41 32 126v143q0 88 -32 126q-31 39 -127 39t-127 -39q-32 -38 -32 -126v-143q0 -85 32 -126q31 -39 127 -39t127 39zM327 702h-11q-23 0 -34.5 6.5t-23.5 25.5l-44 69q-13 21 -9.5 28t28.5 7h25q25 0 37 -7.5t22 -29.5l31 -65q10 -20 5.5 -27t-26.5 -7z" />
    <glyph glyph-name="ohorngrave" unicode="&#x1edd;" horiz-adv-x="615" 
d="M274 -11q-118 0 -174 53t-56 163v86q0 216 230 216q141 0 194 -80q7 -7 23 -7q18 0 24.5 9t6.5 33q0 4 -0.5 16.5t-0.5 14.5q2 14 22 14h42q14 0 19.5 -5t7.5 -18q3 -16 3 -36q0 -120 -114 -124q1 -7 1 -33v-86q0 -106 -57.5 -161t-170.5 -55zM274 86q71 0 98 26.5
t27 92.5v86q0 66 -27.5 93t-97.5 27q-71 0 -99 -27t-28 -93v-86q0 -65 28 -92t99 -27zM284 559h-11q-23 0 -34.5 6.5t-23.5 25.5l-44 69q-13 21 -9.5 28t28.5 7h25q25 0 37 -7.5t22 -29.5l31 -65q10 -20 5.5 -27t-26.5 -7z" />
    <glyph glyph-name="Ohornhookabove" unicode="&#x1ede;" horiz-adv-x="680" 
d="M318 -12q-149 0 -207 67t-58 197v143q0 129 58 196q59 68 207 68t207 -68l10 -14q7 -5 21 -5q18 0 24.5 9t6.5 33q0 4 -0.5 16.5t-0.5 14.5q2 14 22 14h42q14 0 19.5 -5t7.5 -18q3 -16 3 -36q0 -112 -104 -123q7 -41 7 -82v-143q0 -129 -59 -197q-58 -67 -206 -67z
M445 126q32 41 32 126v143q0 88 -32 126q-31 39 -127 39t-127 -39q-32 -38 -32 -126v-143q0 -85 32 -126q31 -39 127 -39t127 39zM318 683h-25q-15 0 -20 14l-12 45q-4 16 -0.5 20t20.5 4h10q22 0 31.5 6.5t9.5 24.5t-9 24.5t-33 6.5q-5 0 -14 -1t-14 -1t-10.5 1.5t-7.5 6
t-1 13.5v6q0 14 5 19.5t18 8.5q13 4 36 4q55 0 80.5 -21t25.5 -68q0 -39 -20 -55t-65 -14l7 -30q5 -14 -12 -14z" />
    <glyph glyph-name="ohornhookabove" unicode="&#x1edf;" horiz-adv-x="615" 
d="M274 -11q-118 0 -174 53t-56 163v86q0 216 230 216q141 0 194 -80q7 -7 23 -7q18 0 24.5 9t6.5 33q0 4 -0.5 16.5t-0.5 14.5q2 14 22 14h42q14 0 19.5 -5t7.5 -18q3 -16 3 -36q0 -120 -114 -124q1 -7 1 -33v-86q0 -106 -57.5 -161t-170.5 -55zM274 86q71 0 98 26.5
t27 92.5v86q0 66 -27.5 93t-97.5 27q-71 0 -99 -27t-28 -93v-86q0 -65 28 -92t99 -27zM278 531h-25q-15 0 -20 14l-12 45q-4 16 -0.5 20t20.5 4h10q22 0 31.5 6.5t9.5 24.5t-9 24.5t-33 6.5q-5 0 -14 -1t-14 -1t-10.5 1.5t-7.5 6t-1 13.5v6q0 14 5 19.5t18 8.5q13 4 36 4
q55 0 80.5 -21t25.5 -68q0 -39 -20 -55t-65 -14l7 -30q5 -14 -12 -14z" />
    <glyph glyph-name="Ohorntilde" unicode="&#x1ee0;" horiz-adv-x="680" 
d="M318 -12q-149 0 -207 67t-58 197v143q0 129 58 196q59 68 207 68t207 -68l10 -14q7 -5 21 -5q18 0 24.5 9t6.5 33q0 4 -0.5 16.5t-0.5 14.5q2 14 22 14h42q14 0 19.5 -5t7.5 -18q3 -16 3 -36q0 -112 -104 -123q7 -41 7 -82v-143q0 -129 -59 -197q-58 -67 -206 -67z
M445 126q32 41 32 126v143q0 88 -32 126q-31 39 -127 39t-127 -39q-32 -38 -32 -126v-143q0 -85 32 -126q31 -39 127 -39t127 39zM386 706q-37 0 -81 29t-57 29q-29 0 -32 -33q-2 -12 -7.5 -16t-21.5 -4h-8q-17 0 -22.5 4.5t-4.5 17.5q9 101 100 101q35 0 79 -29t58 -29
q30 0 31 28q1 25 30 25h8q15 0 21.5 -5t5.5 -17q-8 -101 -99 -101z" />
    </font>
</defs>
</svg>
