<?xml version="1.0" encoding="utf-8"?><svg version="1.1" id="Слой_1" xmlns="http://www.w3.org/2000/svg" xmlns:xlink="http://www.w3.org/1999/xlink" x="0px" y="0px" viewBox="0 0 33.2 33" style="enable-background:new 0 0 33.2 33;" xml:space="preserve"><style type="text/css">.st0{fill:#FFFFFF;}</style><path class="st0" d="M24.9,21.2c1.5-2.2,2.3-4.8,2.3-7.6C27.3,6.1,21.1,0,13.6,0C6.1,0,0,6.1,0,13.6s6.1,13.6,13.6,13.6c2.9,0,5.6-0.9,7.8-2.5l8.3,8.3c1.6-0.7,2.7-1.9,3.5-3.5L24.9,21.2z M4,13.6C4,8.3,8.3,4,13.6,4c5.3,0,9.6,4.3,9.6,9.6s-4.3,9.6-9.6,9.6C8.3,23.3,4,18.9,4,13.6z"/></svg>