<?xml version="1.0" encoding="utf-8"?><svg version="1.1" id="Слой_1" xmlns="http://www.w3.org/2000/svg" xmlns:xlink="http://www.w3.org/1999/xlink" x="0px" y="0px" viewBox="113.1 371.7 16.6 20.1" style="enable-background:new 113.1 371.7 16.6 20.1;" xml:space="preserve"><style type="text/css">.st0{fill:#FFFFFF;}</style><g><path class="st0" d="M121.4,382.3L121.4,382.3c1.2,0,2.3-0.4,3-1.3c1.5-1.6,1.3-4.2,1.3-4.9l0-0.1c-0.2-3.5-2.9-4.4-4.3-4.4c-1.1,0-2.2,0.3-2.9,1c-0.9,0.8-1.3,1.9-1.4,3.3c-0.1,1.2,0,3.5,1.3,4.9C119.1,381.8,120.2,382.3,121.4,382.3z M119,376.3c0-0.1,0-0.1,0-0.1c0-0.8,0.3-2.5,2.3-2.5h0.1c1,0,2.3,0.4,2.4,2.6c0,0.2,0.2,2.4-0.8,3.5c-0.4,0.4-0.9,0.6-1.6,0.6c-0.7,0-1.2-0.2-1.6-0.6C119.4,379.3,118.9,378.3,119,376.3z"/><path class="st0" d="M127.6,384.2c-0.6-0.2-1.7-0.5-2.9-1.3l-0.1,0c-0.2-0.1-0.5-0.2-0.7-0.2c-0.2,0-0.5,0.2-0.6,0.4c-0.2,0.2-0.2,0.5-0.2,0.7c0,0.3,0.2,0.5,0.4,0.6c0.4,0.3,1.8,1.1,3.6,1.6c0.5,0.1,0.7,0.7,0.6,1.6l0,0.1c0,0.3,0,0.6,0,0.8c-0.9,0.4-3.1,1.3-6.3,1.3c-3.2,0-5.4-0.9-6.3-1.4c0-0.2,0-0.5,0-0.9l0-0.1c0-0.4-0.1-1.4,0.6-1.6c1.8-0.4,3.2-1.3,3.6-1.6l0,0c0.4-0.3,0.5-0.8,0.2-1.3l0-0.1c-0.3-0.4-0.9-0.5-1.3-0.2l0,0c0,0-1.4,0.9-3,1.3c-1.4,0.4-2.2,1.7-2.1,3.5c0,0.4,0,1.3,0.2,1.8l0,0c0,0.1,0.2,0.3,0.4,0.4c0.5,0.3,3.2,1.8,7.6,1.8c4.4,0,7.1-1.5,7.6-1.8c0.2-0.1,0.3-0.3,0.4-0.4l0-0.1c0.1-0.4,0.2-0.9,0.2-1.4l0,0l0-0.4C129.8,385.9,129,384.6,127.6,384.2z"/></g></svg>