<svg width="11" height="9" viewBox="0 0 11 9" fill="none" xmlns="http://www.w3.org/2000/svg">
<path d="M4.91899 8.59986C4.96486 8.67203 5.02623 8.73104 5.09783 8.77181C5.16943 8.81257 5.2491 8.83387 5.32999 8.83387C5.41087 8.83387 5.49054 8.81257 5.56214 8.77181C5.63374 8.73104 5.69511 8.67203 5.74098 8.59986L10.241 1.55819C10.2931 1.47697 10.3236 1.38184 10.3293 1.28313C10.335 1.18443 10.3156 1.08592 10.2732 0.998318C10.2309 0.910715 10.1671 0.837364 10.089 0.786236C10.0109 0.735108 9.92127 0.708158 9.82998 0.708314H0.829985C0.738907 0.708721 0.649654 0.736018 0.571826 0.787269C0.493997 0.838519 0.430537 0.911784 0.38827 0.999185C0.346003 1.08659 0.326528 1.18482 0.33194 1.28331C0.337352 1.3818 0.367446 1.47684 0.418985 1.55819L4.91899 8.59986Z" fill="white"/>
</svg>
