<svg width="17" height="11" viewBox="0 0 17 11" fill="none" xmlns="http://www.w3.org/2000/svg">
<path fill-rule="evenodd" clip-rule="evenodd" d="M0.460938 2.53424C0.460938 2.00381 0.671651 1.4951 1.04672 1.12003C1.4218 0.744954 1.9305 0.534241 2.46094 0.534241H9.96094C10.446 0.534184 10.9146 0.710433 11.2794 1.03017C11.6442 1.3499 11.8804 1.79133 11.9439 2.27224L15.0539 0.890241C15.2062 0.822412 15.3729 0.793704 15.5391 0.806726C15.7052 0.819748 15.8655 0.874087 16.0053 0.964803C16.1451 1.05552 16.26 1.17974 16.3396 1.32616C16.4191 1.47259 16.4609 1.63659 16.4609 1.80324V9.26524C16.4608 9.43176 16.4191 9.59562 16.3395 9.74193C16.26 9.88823 16.1452 10.0124 16.0055 10.1031C15.8659 10.1937 15.7058 10.2481 15.5398 10.2613C15.3738 10.2744 15.2071 10.2458 15.0549 10.1782L11.9439 8.79624C11.8804 9.27715 11.6442 9.71858 11.2794 10.0383C10.9146 10.358 10.446 10.5343 9.96094 10.5342H2.46094C1.9305 10.5342 1.4218 10.3235 1.04672 9.94845C0.671651 9.57338 0.460938 9.06467 0.460938 8.53424V2.53424Z" fill="white"/>
</svg>
