<svg xmlns="http://www.w3.org/2000/svg" width="43" height="42" viewBox="0 0 43 42"><g><g><path fill="#3d58ae" d="M.622 21c0-11.578 9.507-21 21.19-21C33.492 0 43 9.42 43 21c0 11.578-9.507 21-21.189 21S.622 32.578.622 21zm24.86 8.143l5.649-6.593a2.384 2.384 0 0 0 0-3.102l-5.649-6.594a2.436 2.436 0 0 0-3.408-.274 2.382 2.382 0 0 0-.278 3.376l2.268 2.647h-9.732A2.406 2.406 0 0 0 11.916 21a2.405 2.405 0 0 0 2.416 2.394h9.732l-2.268 2.648a2.387 2.387 0 0 0 .278 3.379 2.436 2.436 0 0 0 3.408-.278z"/></g></g></svg>