<svg xmlns="http://www.w3.org/2000/svg" width="43" height="42" viewBox="0 0 43 42"><g><g><path fill="#fff" d="M.622 20.999c0-11.578 9.507-21 21.19-21C33.493 0 43 9.421 43 21c0 11.579-9.506 21-21.189 21C10.13 42 .622 32.578.622 21zm24.86 8.144l5.65-6.593a2.384 2.384 0 0 0 0-3.102l-5.65-6.593a2.436 2.436 0 0 0-3.408-.276 2.383 2.383 0 0 0-.278 3.377l2.269 2.648h-9.732a2.405 2.405 0 0 0-2.417 2.395 2.405 2.405 0 0 0 2.417 2.395h9.732l-2.269 2.648a2.386 2.386 0 0 0 .278 3.378 2.435 2.435 0 0 0 3.408-.277z"/></g></g></svg>