<svg xmlns="http://www.w3.org/2000/svg" width="15.818" height="15.908" viewBox="0 0 15.818 15.908"><g transform="translate(-388.137 -57.046)"><path d="M-2858.565-44.15l-5.657-5.657-5.657,5.657a1,1,0,0,1-1.414,0,1,1,0,0,1,0-1.415l5.656-5.657-5.656-5.656a1,1,0,0,1,0-1.415,1,1,0,0,1,1.414,0l5.657,5.657,5.657-5.657a1,1,0,0,1,1.414,0,1,1,0,0,1,0,1.414l-5.657,5.657,5.657,5.657a1,1,0,0,1,0,1.414,1,1,0,0,1-.707.293A1,1,0,0,1-2858.565-44.15Z" transform="translate(3260.222 116.222)" fill="#fff" stroke="rgba(0,0,0,0)" stroke-miterlimit="10" stroke-width="1"/></g></svg>