<svg width="20" height="20" viewBox="0 0 20 20" fill="none" xmlns="http://www.w3.org/2000/svg">
<path d="M6.66673 19.4334V14.8334L3.2334 17.3667C4.20007 18.2667 5.36673 18.9667 6.66673 19.4334" fill="#2A5F9E"/>
<path d="M13.3333 19.4334C14.6333 18.9667 15.7999 18.2667 16.7666 17.3667L13.3333 14.8V19.4334Z" fill="#2A5F9E"/>
<path d="M0.56665 13.3334C0.66665 13.6667 0.799984 13.9667 0.96665 14.3L2.26665 13.3334H0.56665Z" fill="#2A5F9E"/>
<path d="M17.7334 13.3334L19.0334 14.3C19.1667 14 19.3001 13.6667 19.4334 13.3334H17.7334Z" fill="#2A5F9E"/>
<path d="M7.16662 12H0.199951C0.299951 12.4667 0.433285 12.9 0.566618 13.3333H2.26662L0.966618 14.3C1.23328 14.8667 1.53328 15.3667 1.89995 15.8667L5.33328 13.3333H6.66662V14L2.76662 16.8667L3.23328 17.3333L6.66662 14.8333V19.4333C7.09995 19.6 7.53328 19.7 7.99995 19.8V12H7.16662Z" fill="white"/>
<path d="M19.8 12H12V19.8C12.4667 19.7 12.9 19.5667 13.3333 19.4333V14.8333L16.7667 17.3333C17.2333 16.9 17.6333 16.4333 18.0333 15.9333L14.4667 13.3333H16.7333L18.7667 14.8333C18.8667 14.6667 18.9667 14.4667 19.0333 14.3L17.7333 13.3333H19.4333C19.5667 12.9 19.7 12.4667 19.8 12" fill="white"/>
<path d="M1.8999 15.8667C2.16657 16.2334 2.43324 16.5667 2.73324 16.9L6.66657 14.0334V13.3667H5.33324L1.8999 15.8667Z" fill="#ED4C5C"/>
<path d="M14.5 13.3334L18.0667 15.9334C18.2 15.7667 18.3 15.6 18.4333 15.4334C18.4667 15.4 18.4667 15.3667 18.5 15.3667C18.6 15.2 18.7333 15 18.8333 14.8334L16.7333 13.3334H14.5Z" fill="#ED4C5C"/>
<path d="M13.3333 0.56665V5.16665L16.7666 2.63332C15.7999 1.73332 14.6333 1.03332 13.3333 0.56665Z" fill="#2A5F9E"/>
<path d="M6.66673 0.56665C5.36673 1.03332 4.20007 1.73332 3.2334 2.63332L6.66673 5.19998V0.56665Z" fill="#2A5F9E"/>
<path d="M19.4334 6.66662C19.3334 6.33328 19.2001 6.03328 19.0334 5.69995L17.7334 6.66662H19.4334" fill="#2A5F9E"/>
<path d="M2.26665 6.66662L0.96665 5.69995C0.833317 6.03328 0.699984 6.33328 0.56665 6.66662H2.26665Z" fill="#2A5F9E"/>
<path d="M12.8333 7.99995H19.7667C19.6667 7.53328 19.5333 7.09995 19.4 6.66662H17.7L19 5.69995C18.7333 5.13328 18.4333 4.63328 18.0667 4.13328L14.6667 6.66662H13.3333V5.99995L17.2333 3.13328L16.7667 2.66662L13.3333 5.16662V0.566618C12.9 0.399951 12.4667 0.299951 12 0.199951V7.99995H12.8333Z" fill="white"/>
<path d="M0.199951 7.99995H7.99995V0.199951C7.53328 0.299951 7.09995 0.433285 6.66662 0.566618V5.16662L3.23328 2.66662C2.76662 3.09995 2.36662 3.56662 1.96662 4.06662L5.53328 6.66662H3.26662L1.23328 5.16662C1.13328 5.33328 1.03328 5.53328 0.966618 5.69995L2.26662 6.66662H0.566618C0.433285 7.09995 0.299951 7.53328 0.199951 7.99995Z" fill="white"/>
<path d="M18.0999 4.13331C17.8333 3.76664 17.5666 3.43331 17.2666 3.09998L13.3333 5.96664V6.63331H14.6666L18.0999 4.13331" fill="#ED4C5C"/>
<path d="M5.49995 6.66665L1.96662 4.06665C1.83328 4.23332 1.73328 4.39998 1.59995 4.56665C1.56662 4.59998 1.56662 4.63332 1.53328 4.63332C1.43328 4.79998 1.29995 4.99998 1.19995 5.16665L3.23328 6.66665H5.49995Z" fill="#ED4C5C"/>
<path d="M19.8 8H12V0.2C11.3667 0.0666666 10.7 0 10 0C9.3 0 8.63333 0.0666666 8 0.2V8H0.2C0.0666666 8.63333 0 9.3 0 10C0 10.7 0.0666666 11.3667 0.2 12H8V19.8C8.63333 19.9333 9.3 20 10 20C10.7 20 11.3667 19.9333 12 19.8V12H19.8C19.9333 11.3667 20 10.7 20 10C20 9.3 19.9333 8.63333 19.8 8Z" fill="#ED4C5C"/>
</svg>
