<svg xmlns="http://www.w3.org/2000/svg" width="15" height="15" viewBox="0 0 15 15">
  <path id="Icon_Color" data-name="Icon Color" d="M8.057,15H7.009l-.086-.185-.159-.363-.273-.665L6.3,13.3l-.045-.1a.938.938,0,0,0-.356-.375l-.118-.059-.772-.318L4.9,12.414a.939.939,0,0,0-.529.008l-.127.05-.49.226-.681.3-.267.111-.22.087-.741-.739.111-.3.228-.564.364-.855.043-.119a.952.952,0,0,0,0-.493l-.041-.119-.314-.761-.049-.1a.939.939,0,0,0-.376-.369l-.124-.054L.849,8.407l-.629-.25L0,8.062V7l.183-.086L.693,6.7l1.02-.411.1-.045a.932.932,0,0,0,.367-.353l.058-.117.314-.763.041-.123a.94.94,0,0,0-.01-.505l-.046-.12-.379-.828-.269-.622L1.8,2.593l.74-.739.331.122.49.2.908.383.118.042a.939.939,0,0,0,.247.033A.949.949,0,0,0,4.878,2.6L5,2.556l.768-.32.1-.047a.942.942,0,0,0,.363-.367L6.281,1.7,6.607.829,6.8.345,6.945,0H7.991l.134.294.109.254.2.478.273.683.045.1a.952.952,0,0,0,.353.367l.117.057.772.317.123.041a.936.936,0,0,0,.5-.01l.12-.045.865-.393.458-.2.349-.141.741.738-.111.3-.228.566-.363.853-.043.119a.941.941,0,0,0,0,.491l.041.119.313.764.049.1a.928.928,0,0,0,.375.369l.123.055,1.006.374.4.159L15,6.938V8l-.414.187-.441.185-.864.348-.1.046a.925.925,0,0,0-.363.351l-.057.116-.314.759-.041.123a.932.932,0,0,0,.01.506l.046.121.379.827.215.489.143.352-.743.741-.19-.07-.29-.111-.528-.215-.725-.308L10.61,12.4a.937.937,0,0,0-.244-.032.947.947,0,0,0-.24.031l-.117.041-.77.317-.1.048a.93.93,0,0,0-.365.368l-.055.12-.318.852-.195.5L8.058,15ZM7.5,5A2.5,2.5,0,1,0,10,7.5,2.5,2.5,0,0,0,7.5,5Z" fill="#fff"/>
</svg>
