<svg width="20" height="20" viewBox="0 0 20 20" fill="none" xmlns="http://www.w3.org/2000/svg">
<path fill-rule="evenodd" clip-rule="evenodd" d="M10.3888 0H8.72213C8.57398 0 8.49991 0.0740741 8.49991 0.222222V8.94458H0.222222C0.0740741 8.94458 0 9.01865 0 9.1668V10.8335C0 10.9816 0.0740741 11.0557 0.222222 11.0557H8.49991V19.7778C8.49991 19.9259 8.57398 20 8.72213 20H10.3888C10.5369 20 10.611 19.9259 10.611 19.7778V11.0557H18.8889C19.037 11.0557 19.1111 10.9816 19.1111 10.8335V9.1668C19.1111 9.01865 19.037 8.94458 18.8889 8.94458H10.611V0.222222C10.611 0.0740741 10.5369 0 10.3888 0Z" fill="#FFA798"/>
</svg>
