<svg width="19" height="20" viewBox="0 0 19 20" fill="none" xmlns="http://www.w3.org/2000/svg">
<path d="M0 10C0 11.8438 0.53125 13.5625 1.4375 15H17.2813C18.1875 13.5625 18.7188 11.8438 18.7188 10C18.7188 8.15625 18.1875 6.4375 17.2813 5H1.4375C0.53125 6.4375 0 8.15625 0 10Z" fill="#FFCE31"/>
<path d="M17.3125 5C15.6563 2.375 12.7188 0.625 9.375 0.625C6.03125 0.625 3.09375 2.375 1.4375 5H17.3125Z" fill="#ED4C5C"/>
<path d="M1.4375 15C3.09375 17.625 6.03125 19.375 9.375 19.375C12.7188 19.375 15.6563 17.625 17.3125 15H1.4375Z" fill="#ED4C5C"/>
<path d="M2.25 8.96875H3.25V9.53125H2.25V8.96875Z" fill="#C8B100"/>
<path d="M2.25 13.0938H3.28125V13.625H2.25V13.0938Z" fill="#C8B100"/>
<path d="M2.15625 12.2188C2.0625 12.2812 2 12.3437 2 12.375C2 12.4062 2.03125 12.4375 2.09375 12.4688C2.15625 12.5 2.21875 12.5625 2.1875 12.625C2.25 12.5625 2.28125 12.5 2.28125 12.4375C2.28125 12.3437 2.21875 12.25 2.15625 12.2188" fill="#ED4C5C"/>
<path d="M2.40625 9.53125H3.125V13.0938H2.40625V9.53125Z" fill="white"/>
<path d="M3.87511 10.8438C3.71886 10.7813 3.43761 10.7187 3.12511 10.7187C3.03136 10.7187 2.90636 10.7188 2.78136 10.75C2.34386 10.8125 2.00011 11 2.03136 11.125L1.87511 10.7813C1.84386 10.625 2.21886 10.4375 2.68761 10.3437C2.84386 10.3125 3.00011 10.3125 3.12511 10.3125C3.43761 10.3125 3.71886 10.3437 3.87511 10.4062V10.8438" fill="#ED4C5C"/>
<path d="M2.40637 11.3125C2.21887 11.3125 2.06262 11.25 2.06262 11.1563C2.06262 11.0938 2.12512 11 2.25012 10.9375H2.43762L2.40637 11.3125Z" fill="#ED4C5C"/>
<path d="M3.12512 11.0312C3.25012 11.0625 3.34387 11.0937 3.40637 11.125C3.43762 11.1562 3.31262 11.2813 3.12512 11.375V11.0312" fill="#ED4C5C"/>
<path d="M1.93767 12C1.90642 11.9375 2.12517 11.8125 2.40642 11.7188C2.53142 11.6875 2.62517 11.625 2.78142 11.5625C3.15642 11.4063 3.46892 11.1875 3.40642 11.125L3.46892 11.5C3.50017 11.5625 3.25017 11.75 2.87517 11.9375C2.75017 12 2.53142 12.0937 2.40642 12.125C2.18767 12.1875 2.00017 12.3125 2.00017 12.3438L1.93767 12" fill="#ED4C5C"/>
<path d="M8.96875 8.96875H9.96875V9.53125H8.96875V8.96875Z" fill="#C8B100"/>
<path d="M8.9375 13.0938H9.96875V13.625H8.9375V13.0938Z" fill="#C8B100"/>
<path d="M10.0625 12.2188C10.1563 12.2812 10.2187 12.3437 10.2187 12.375C10.2187 12.4062 10.1875 12.4375 10.125 12.4688C10.0625 12.5313 10 12.625 10.0312 12.6563C9.96875 12.5938 9.9375 12.5313 9.9375 12.4688C9.9375 12.3438 10 12.25 10.0625 12.2188" fill="#ED4C5C"/>
<path d="M9.09375 9.53125H9.8125V13.0938H9.09375V9.53125Z" fill="white"/>
<path d="M8.34375 10.8438C8.5 10.7813 8.78125 10.7187 9.09375 10.7187C9.1875 10.7187 9.3125 10.7188 9.4375 10.75C9.875 10.8125 10.2187 11 10.1875 11.125L10.3437 10.75C10.375 10.5938 10 10.4063 9.53125 10.3125H9.09375C8.78125 10.3125 8.5 10.3437 8.34375 10.4062V10.8438" fill="#ED4C5C"/>
<path d="M9.8125 11.3125C10 11.3125 10.1562 11.25 10.1562 11.1563C10.1562 11.0938 10.0938 11 9.96875 10.9375H9.78125L9.8125 11.3125Z" fill="#ED4C5C"/>
<path d="M9.09378 11.0312C8.96878 11.0625 8.87503 11.0937 8.81253 11.125C8.78127 11.1562 8.90628 11.2813 9.09378 11.375V11.0312" fill="#ED4C5C"/>
<path d="M10.2812 12C10.3124 11.9375 10.0937 11.8125 9.81244 11.7188C9.68744 11.6875 9.59369 11.625 9.43745 11.5625C9.06245 11.4063 8.74995 11.1875 8.81245 11.125L8.74995 11.5C8.7187 11.5625 8.9687 11.75 9.34369 11.9375C9.46869 12 9.68744 12.0938 9.81244 12.125C10.0312 12.1875 10.2187 12.3437 10.1874 12.375L10.2812 12" fill="#ED4C5C"/>
<path d="M6.09375 6.96875C6.6875 6.96875 7.90625 7.09375 8.34375 7.53125C7.875 8.65625 7.125 8.1875 6.09375 8.1875C5.09375 8.1875 4.3125 8.65625 3.84375 7.53125C4.28125 7.09375 5.46875 6.96875 6.09375 6.96875Z" fill="#ED4C5C"/>
<path d="M7.625 8.21875C7.25 8 6.6875 7.96875 6.09375 7.96875C5.5 7.96875 4.9375 8.03125 4.5625 8.21875L4.6875 8.75C5.03125 8.84375 5.53125 8.90625 6.09375 8.90625C6.65625 8.90625 7.125 8.84375 7.5 8.75L7.625 8.21875Z" fill="#C8B100"/>
<path d="M8.15625 6.875C8.03125 6.78125 7.78125 6.6875 7.5625 6.6875C7.46875 6.6875 7.375 6.6875 7.28125 6.71875C7.28125 6.71875 7.09375 6.46875 6.65625 6.46875C6.5 6.46875 6.375 6.5 6.25 6.5625V6.53125C6.21875 6.46875 6.15625 6.40625 6.09375 6.40625C6.03125 6.40625 5.9375 6.5 5.9375 6.5625V6.59375C5.8125 6.53125 5.6875 6.5 5.53125 6.5C5.09375 6.5 4.90625 6.78125 4.90625 6.75C4.8125 6.71875 4.71875 6.71875 4.625 6.71875C3.1875 6.71875 3.90625 7.6875 3.90625 7.6875L4.0625 7.5C3.71875 7.0625 4.03125 6.8125 4.65625 6.8125C4.75 6.8125 4.8125 6.8125 4.875 6.84375C4.65625 7.15625 5.0625 7.4375 5.0625 7.4375L5.15625 7.28125C4.9375 7.125 4.90625 6.59375 5.53125 6.59375C5.6875 6.59375 5.8125 6.625 5.9375 6.71875C5.9375 6.75 5.90625 7.1875 5.875 7.25L6.125 7.46875L6.375 7.25C6.34375 7.15625 6.3125 6.75 6.3125 6.71875C6.40625 6.65625 6.5625 6.59375 6.71875 6.59375C7.375 6.59375 7.375 7.125 7.09375 7.28125L7.1875 7.4375C7.1875 7.4375 7.53125 7.15625 7.375 6.84375C7.4375 6.84375 7.53125 6.8125 7.59375 6.8125C8.34375 6.8125 8.375 7.375 8.1875 7.5L8.3125 7.6875C8.25 7.6875 8.59375 7.25 8.15625 6.875" fill="#C8B100"/>
<path d="M5.90625 6.28125C5.90625 6.1875 6 6.09375 6.09375 6.09375C6.21875 6.09375 6.28125 6.1875 6.28125 6.28125C6.28125 6.375 6.1875 6.46875 6.09375 6.46875C6 6.46875 5.90625 6.375 5.90625 6.28125Z" fill="#005BBF"/>
<path d="M6.03125 5.75V5.84375H5.9375V5.9375H6.03125V6.25H5.90625V6.34375H6.28125L6.3125 6.28125L6.28125 6.25H6.15625V5.9375H6.25V5.84375H6.15625V5.75H6.03125Z" fill="#C8B100"/>
<path d="M6.09375 8.84375C5.59375 8.84375 5.15625 8.78125 4.8125 8.6875C5.15625 8.59375 5.59375 8.53125 6.09375 8.53125C6.59375 8.53125 7.03125 8.59375 7.375 8.6875C7.0625 8.78125 6.59375 8.84375 6.09375 8.84375Z" fill="#ED4C5C"/>
<path d="M6.125 14.25C5.53125 14.25 4.96875 14.0938 4.46875 13.875C4.09375 13.6875 3.875 13.3438 3.875 12.9375V11.4375H8.375V12.9375C8.375 13.3438 8.125 13.7188 7.78125 13.875C7.28125 14.125 6.71875 14.25 6.125 14.25Z" fill="white"/>
<path d="M6.09375 8.9375H8.34375V11.4375H6.09375V8.9375Z" fill="white"/>
<path d="M6.125 12.9375C6.125 13.5313 5.625 14 5 14C4.375 14 3.875 13.5313 3.875 12.9375V11.4375H6.125V12.9375Z" fill="#ED4C5C"/>
<path d="M4.34375 13.8125C4.40625 13.8438 4.5 13.9063 4.625 13.9375V11.375H4.375L4.34375 13.8125Z" fill="#C8B100"/>
<path d="M3.84375 12.9062C3.84375 13.2187 3.96875 13.4687 4.09375 13.5937V11.375H3.84375V12.9062Z" fill="#C8B100"/>
<path d="M4.84375 14H5.09375V11.375H4.84375V14Z" fill="#C7B500"/>
<path d="M5.34375 13.9375C5.4375 13.9063 5.5625 13.8438 5.625 13.8125V11.375H5.375L5.34375 13.9375" fill="#C8B100"/>
<path d="M3.84375 8.9375H6.09375V11.4375H3.84375V8.9375Z" fill="#ED4C5C"/>
<path d="M5.875 13.5938C6 13.5 6.09375 13.2813 6.125 13.0313V11.4062H5.875V13.5938Z" fill="#C8B100"/>
<path d="M8.375 11.4375V12.9375C8.375 13.5313 7.875 14 7.25 14C6.625 14 6.125 13.5313 6.125 12.9375V11.4375H8.375" fill="#ED4C5C"/>
<path d="M7.56254 9.37503C7.65629 9.56253 7.65629 10.0313 7.37504 9.93753C7.43754 9.96878 7.46879 10.1875 7.56254 10.3125C7.71879 10.5 7.90629 10.3438 7.87504 10.125C7.81254 9.78128 7.84379 9.56253 7.90629 9.21878C7.90629 9.25003 8.06254 9.25003 8.12504 9.18753C8.09379 9.28128 8.06254 9.40628 8.12504 9.40628C8.06254 9.50003 7.90629 9.65628 7.87504 9.75003C7.84379 9.96878 8.18754 10.375 7.81254 10.4688C7.56254 10.5313 7.71879 10.7188 7.81254 10.8125C7.81254 10.8125 7.68754 11.2188 7.75004 11.1875C7.50004 11.2813 7.56254 11.0625 7.56254 11.0625C7.68754 10.6875 7.34379 10.6563 7.37504 10.5938C7.06254 10.5625 7.40629 10.875 7.12504 10.875C7.06254 10.875 6.93754 10.9375 6.93754 10.9375C6.59379 10.9063 6.78129 10.5938 6.90629 10.625C7.00004 10.6563 7.09379 10.8125 7.09379 10.5938C7.09379 10.5938 6.93754 10.3438 7.34379 10.3438C7.18754 10.3438 7.09379 10.2188 7.03129 10.0625C6.96879 10.0938 6.87504 10.25 6.53129 10.2813C6.53129 10.2813 6.43754 9.93753 6.53129 10C6.65629 10.0625 6.71879 10.0625 6.84379 9.93753C6.78129 9.84378 6.40629 9.71878 6.46879 9.50003C6.46879 9.43753 6.65629 9.34378 6.65629 9.34378C6.62504 9.50003 6.71879 9.65628 6.90629 9.65628C7.15629 9.68753 7.06254 9.59378 7.09379 9.53128C7.12504 9.46878 7.31254 9.56253 7.25004 9.40628C7.25004 9.37503 7.03129 9.34378 7.09379 9.25003C7.21879 9.09378 7.40629 9.21878 7.56254 9.37503" fill="#ED4C5C"/>
<path d="M6.125 13.9375L6.0625 13.7812L6.125 13.5938L6.1875 13.7812L6.125 13.9375Z" fill="#ED4C5C"/>
<path d="M4.53125 9.46875V9.625H4.59375V9.75H4.4375V10.0625H4.53125V10.75H4.34375V11.0938H5.625V10.75H5.46875V10.0625H5.53125V9.75H5.375V9.625H5.46875V9.46875H5.15625V9.625H5.21875V9.75H5.0625V9.375H5.15625V9.21875H4.8125V9.375H4.90625V9.75H4.75V9.625H4.8125V9.46875H4.53125Z" fill="#C8B100"/>
<path d="M8.0625 13.3125V11.75H6.4375V13.3125L7.1875 13.6562H7.28125L8.0625 13.3125ZM7.1875 11.875V12.4063L6.65625 11.875H7.1875ZM6.53125 11.9062L7.15625 12.5312L6.53125 13.1562V11.9062ZM6.59375 13.2812L7.1875 12.6875V13.5625L6.59375 13.2812ZM7.28125 13.5312V12.6563L7.875 13.25L7.28125 13.5312ZM7.9375 13.1562L7.3125 12.5312L7.9375 11.9062V13.1562ZM7.28125 11.875H7.8125L7.28125 12.4063V11.875Z" fill="#C8B100"/>
<path d="M5.375 11.4062C5.375 10.9375 5.6875 10.5938 6.09375 10.5938C6.5 10.5938 6.8125 10.9687 6.8125 11.4062C6.8125 11.8438 6.5 12.2187 6.09375 12.2187C5.6875 12.2187 5.375 11.875 5.375 11.4062Z" fill="#ED4C5C"/>
<path d="M5.59375 11.4063C5.59375 11.0625 5.8125 10.8125 6.09375 10.8125C6.375 10.8125 6.59375 11.0938 6.59375 11.4063C6.59375 11.75 6.375 12 6.09375 12C5.84375 12.0313 5.59375 11.75 5.59375 11.4063Z" fill="#005BBF"/>
<path d="M5.875 11L5.75 11.3437L5.84375 11.375L5.78125 11.5H5.96875L5.90625 11.375L6 11.3437L5.875 11" fill="#C8B100"/>
<path d="M6.34375 11L6.21875 11.3437L6.3125 11.375L6.25 11.5H6.4375L6.40625 11.375L6.5 11.3437L6.34375 11" fill="#C8B100"/>
<path d="M6.125 11.4062L5.96875 11.75L6.0625 11.7813L6.03125 11.9062H6.1875L6.15625 11.7813L6.25 11.75L6.125 11.4062Z" fill="#C8B100"/>
</svg>
