<?xml version="1.0" encoding="UTF-8" standalone="no"?>
<svg
   width="140.53209"
   height="37.847351"
   viewBox="0 0 140.53209 37.847354"
   version="1.1"
   id="svg36"
   sodipodi:docname="logo.svg"
   inkscape:version="1.2.2 (b0a84865, 2022-12-01)"
   xmlns:inkscape="http://www.inkscape.org/namespaces/inkscape"
   xmlns:sodipodi="http://sodipodi.sourceforge.net/DTD/sodipodi-0.dtd"
   xmlns="http://www.w3.org/2000/svg"
   xmlns:svg="http://www.w3.org/2000/svg">
  <defs
     id="defs40" />
  <sodipodi:namedview
     id="namedview38"
     pagecolor="#ffffff"
     bordercolor="#000000"
     borderopacity="0.25"
     inkscape:showpageshadow="2"
     inkscape:pageopacity="0.0"
     inkscape:pagecheckerboard="0"
     inkscape:deskcolor="#d1d1d1"
     showgrid="false"
     inkscape:zoom="3.4921477"
     inkscape:cx="65.575692"
     inkscape:cy="25.199393"
     inkscape:window-width="1440"
     inkscape:window-height="872"
     inkscape:window-x="0"
     inkscape:window-y="28"
     inkscape:window-maximized="0"
     inkscape:current-layer="svg36" />
  <g
     id="logo_mobile_header"
     transform="translate(-227.03508,-87.478847)">
    <g
       id="Group_1"
       data-name="Group 1"
       transform="translate(241.69703,117.23753)">
      <text
         xml:space="preserve"
         style="fill:#000000"
         x="0.95218813"
         y="2.6119421"
         id="text350"><tspan
           sodipodi:role="line"
           id="tspan348"
           x="0.95218813"
           y="2.6119421" /></text>
      <text
         xml:space="preserve"
         style="font-style:normal;font-variant:normal;font-weight:normal;font-stretch:normal;font-size:8px;font-family:Arial;-inkscape-font-specification:'Arial, Normal';font-variant-ligatures:normal;font-variant-caps:normal;font-variant-numeric:normal;font-variant-east-asian:normal;fill:#ffffff"
         x="-0.93801618"
         y="7.489243"
         id="text354"><tspan
           sodipodi:role="line"
           id="tspan352"
           x="-0.93801618"
           y="7.489243">HÍREK NON-STOP</tspan></text>
    </g>
    <g
       id="Group_2"
       data-name="Group 2"
       transform="translate(227.65603,89.841529)">
      <path
         id="Path_11"
         data-name="Path 11"
         d="m 242.068,130.844 -1.365,1.964 -1.884,-1.615 -0.844,2.423 -2.334,-0.951 -0.053,2.494 -2.513,-0.251 0.592,2.369 -2.459,0.5 1.167,2.1 -2.19,1.184 1.777,1.741 -1.777,1.687 2.19,1.149 -1.292,2.082 2.459,0.539 -0.61,2.334 2.495,-0.234 0.072,2.512 2.351,-0.9 0.772,2.405 2.028,-1.561 1.418,1.974 z"
         transform="translate(-230.185,-130.844)"
         fill="#ffa900"
         fill-rule="evenodd" />
    </g>
    <path
       id="Path_12"
       data-name="Path 12"
       d="m 255.95803,114.49453 v -11.42 h -10.073 v 11.42 h -4.5 V 89.140529 h 4.5 v 9.931 h 10.073 v -9.931 h 4.469 v 25.354001 z"
       fill="#ffffff"
       fill-rule="evenodd" />
    <path
       id="Path_13"
       data-name="Path 13"
       d="m 261.65203,105.18053 a 9.834,9.834 0 0 1 2.448,-6.916001 9.4,9.4 0 0 1 13.021,-0.1 11.686,11.686 0 0 1 -0.043,14.075001 9.448,9.448 0 0 1 -13.081,-0.025 10.2,10.2 0 0 1 -2.345,-7.034 z m 4.5,0 q 0,6.126 4.407,6.127 a 3.79,3.79 0 0 0 3.205,-1.592 7.5,7.5 0 0 0 1.184,-4.535 q 0,-6.038001 -4.389,-6.039001 a 3.81,3.81 0 0 0 -3.216,1.593001 7.284,7.284 0 0 0 -1.187,4.446 z"
       fill="#ffffff"
       fill-rule="evenodd" />
    <path
       id="Path_14"
       data-name="Path 14"
       d="m 280.76403,99.425529 h -2.163 v -3.476 h 2.163 v -3.766 l 4.327,-1.589 v 5.355 h 5.108 v 3.476 h -5.108 v 8.134001 a 4.779,4.779 0 0 0 0.627,2.818 2.592,2.592 0 0 0 2.194,0.823 5.407,5.407 0 0 0 2.925,-0.85 v 3.984 a 13.85,13.85 0 0 1 -4.307,0.52 5.619,5.619 0 0 1 -4.273,-1.57 6.218,6.218 0 0 1 -1.493,-4.464 z"
       fill="#ffffff"
       fill-rule="evenodd" />
    <path
       id="Path_15"
       data-name="Path 15"
       d="m 308.24603,114.85353 -12.308,-16.066001 v 15.707001 h -4.327 V 89.140529 h 2.164 l 11.988,15.322001 V 89.140529 h 4.327 v 25.714001 z"
       fill="#ffffff"
       fill-rule="evenodd" />
    <path
       id="Path_16"
       data-name="Path 16"
       d="m 328.72503,106.55453 h -13.256 a 4.71,4.71 0 0 0 1.525,3.451 5.525,5.525 0 0 0 3.779,1.231 6.151,6.151 0 0 0 4.506,-1.524 l 1.682,3.3 q -2.287,1.845 -6.822,1.844 a 9.02,9.02 0 0 1 -6.707,-2.487 9.43,9.43 0 0 1 -2.468,-6.943 9.638,9.638 0 0 1 2.709,-7.107001 9.489,9.489 0 0 1 12.975,-0.311 8.263,8.263 0 0 1 2.441,6.140001 12.148,12.148 0 0 1 -0.364,2.406 z m -13.079,-3.263 h 9.08 q -0.448,-4.079001 -4.489,-4.079001 -3.693,0 -4.591,4.079001 z"
       fill="#ffffff"
       fill-rule="evenodd" />
    <path
       id="Path_17"
       data-name="Path 17"
       d="m 347.91003,114.85353 h -1.556 l -5.108,-11.42 -5.072,11.42 h -1.6 l -7.023,-18.900001 h 4.539 l 3.778,11.066001 4.522,-11.066001 h 1.564 l 4.7,11.137001 4.025,-11.137001 h 4.256 z"
       fill="#ffffff"
       fill-rule="evenodd" />
    <path
       id="Path_18"
       data-name="Path 18"
       d="m 353.53403,113.30953 1.539,-3.456 a 6.794,6.794 0 0 0 4.376,1.561 q 2.526,0 2.525,-1.807 a 2.217,2.217 0 0 0 -0.761,-1.735 11.624,11.624 0 0 0 -2.959,-1.6 q -4.792,-1.994 -4.791,-5.583 a 4.386,4.386 0 0 1 1.833,-3.753001 7.724,7.724 0 0 1 4.688,-1.344 11.805,11.805 0 0 1 5.431,1.3 l -1.244,3.350001 a 5.892,5.892 0 0 0 -3.94,-1.206001 q -2.264,0 -2.264,1.806001 a 1.624,1.624 0 0 0 0.744,1.284 15.275,15.275 0 0 0 3.183,1.536 8.17,8.17 0 0 1 3.512,2.333 5.205,5.205 0 0 1 1.073,3.311 4.864,4.864 0 0 1 -1.912,4.066 8.281,8.281 0 0 1 -5.2,1.482 11.723,11.723 0 0 1 -2.968,-0.3 14.589,14.589 0 0 1 -2.865,-1.245 z"
       fill="#ffffff"
       fill-rule="evenodd" />
  </g>
</svg>
