<?xml version="1.0" encoding="UTF-8"?><svg id="Layer_1" xmlns="http://www.w3.org/2000/svg" xmlns:xlink="http://www.w3.org/1999/xlink" viewBox="0 0 100 100"><defs><clipPath id="clippath"><rect x="-30.07" y="-5.21" width="160.11" height="113.21" fill="none"/></clipPath></defs><rect x="0" width="100" height="100" fill="#e30613"/><g clip-path="url(#clippath)"><path d="M16.66,59.59c-.04-.69-.34-1.18-1.26-1.34-.89-.16-1.32,.12-1.4,.57-.1,.52,.25,.79,1.16,1.09,.39,.13,.77,.26,1.16,.39,2.3,.76,3.01,1.73,2.76,3.34-.28,1.8-1.96,2.99-4.94,2.47-2.96-.53-4.42-2.01-3.8-4.25,.93,.19,1.87,.36,2.8,.54-.21,.7,.07,1.33,1.44,1.57,1.06,.19,1.56-.06,1.65-.6,.08-.47-.18-.76-.98-1.02-.38-.13-.76-.26-1.15-.39-2.32-.79-3.22-1.91-2.89-3.57,.32-1.59,1.8-2.78,4.6-2.28,2.64,.47,3.86,1.85,3.58,3.93-.91-.14-1.83-.28-2.74-.43" fill="#fff"/><path d="M20.04,62.9c.29-1.92,.58-3.85,.88-5.77,.91,.14,1.83,.27,2.75,.4-.26,1.89-.52,3.77-.78,5.66-.16,1.13,.27,1.75,1.32,1.89,1.05,.14,1.63-.36,1.76-1.49,.23-1.89,.47-3.78,.7-5.67,.92,.11,1.84,.22,2.75,.32-.21,1.93-.42,3.87-.64,5.8-.28,2.61-1.99,3.93-4.91,3.55-2.92-.38-4.23-2.1-3.83-4.69" fill="#fff"/><path d="M29.68,68.07c.33-3.23,.67-6.47,1-9.7,1.45,.15,2.91,.28,4.36,.4,2.28,.19,3.76,1.58,3.63,3.71-.13,2.11-1.83,3.34-4.19,3.14-.55-.05-1.11-.09-1.66-.14-.09,.95-.17,1.91-.26,2.86-.96-.09-1.93-.18-2.89-.28m3.35-4.91c.44,.04,.88,.08,1.32,.11,.85,.07,1.33-.33,1.38-1,.05-.66-.36-1.14-1.24-1.21-.42-.04-.85-.07-1.27-.11-.07,.74-.13,1.47-.2,2.21" fill="#fff"/><path d="M39.17,68.84c.19-3.24,.38-6.49,.57-9.73,2.38,.14,4.77,.24,7.16,.29-.02,.79-.04,1.59-.06,2.38-1.48-.04-2.96-.09-4.44-.15-.02,.43-.04,.87-.06,1.3,1.26,.06,2.53,.1,3.79,.14-.02,.77-.04,1.54-.06,2.31-1.28-.03-2.56-.08-3.84-.14-.02,.45-.04,.91-.06,1.36,1.54,.07,3.07,.12,4.61,.16-.02,.79-.04,1.59-.06,2.38-2.52-.06-5.04-.16-7.56-.31" fill="#fff"/><path d="M56.78,66.68c.02,.81,.04,1.62,.06,2.43-.24,.08-.57,.13-.9,.13-1.81,.03-3.28-.4-4.28-2.88-.04-.09-.08-.19-.12-.28-.27,0-.54,0-.82,0,0,1.04-.01,2.09-.02,3.13-.97,0-1.93-.02-2.9-.03,.06-3.25,.12-6.5,.18-9.75,1.51,.03,3.02,.04,4.54,.03,2.3,0,3.91,1.1,3.96,3.32,.03,1.5-.73,2.46-2.12,2.83,.64,1.12,1.36,1.13,1.95,1.12,.18,0,.35-.02,.47-.04m-6.03-4.94c0,.71,0,1.41-.01,2.12,.51,0,1.03,0,1.54,0,.85,0,1.27-.44,1.26-1.07,0-.62-.42-1.05-1.31-1.05-.5,0-.99,0-1.49,0" fill="#fff"/><polygon points="58.03 69.05 57.42 59.36 60.16 59.19 60.61 66.35 64.4 66.11 64.56 68.64 58.03 69.05" fill="#fff"/><rect x="65.23" y="58.8" width="2.74" height="9.69" transform="translate(-4.62 5.22) rotate(-4.33)" fill="#fff"/><path d="M68.95,63.55c-.32-2.81,1.55-5.08,4.38-5.39,2.4-.27,4.13,.73,5.01,2.88l-2.72,.57c-.38-.7-1.04-1.18-2-1.08-1.33,.15-2.09,1.25-1.92,2.71,.18,1.63,1.19,2.41,2.59,2.26,1.13-.13,1.75-.67,1.91-1.26l-2.23,.25-.23-2.02,4.76-.53,.58,5.18-2.35,.26-.15-1.3c-.4,1.14-1.24,1.64-2.64,1.8-2.56,.29-4.68-1.39-5.01-4.33" fill="#fff"/><path d="M89.76,64.58l-2.77,.67-.96-1.59c-.51,.21-1.06,.39-1.66,.53-.51,.12-1.01,.2-1.49,.23l-.09,1.85-2.77,.67,.86-10.13,3.44-.84,5.44,8.6Zm-6.85-2.25c.31-.03,.64-.08,.96-.16,.41-.1,.78-.22,1.14-.35l-1.87-2.93-.23,3.44Z" fill="#fff"/><path d="M43.08,32.18c.01-.14-.12-.26-.26-.22l-3.72,.93c-.1,.02-.16,.11-.16,.21,.23,6.25,2.17,10.84,3.72,13.54,1.1,1.92,2.93,3.35,5.08,3.86,.04,0,.08,.02,.12,.03,.07,.02,.12-.06,.08-.12-5.48-7.74-5.01-16.52-4.86-18.22" fill="#fff"/><path d="M49.99,54.52c-2.1,0-4.19-.53-6.06-1.6l-.79-.45c-.18-.1-.24-.33-.14-.51l.9-1.58c.1-.18,.33-.24,.51-.14l.6,.34c3.08,1.76,6.87,1.76,9.95,0l.6-.34c.18-.1,.41-.04,.51,.14l.9,1.58c.1,.18,.04,.41-.14,.51l-.79,.45c-1.87,1.07-3.97,1.6-6.06,1.6" fill="#fff"/><path d="M50.02,25.26h-.05c-2.13,0-4.25,.19-6.1,.56-.08,.02-.14,.1-.12,.18l5.06,24.56c.02,.07,.08,.13,.15,.14,.34,.04,.77,.06,1.03,.06s.7-.02,1.03-.06c.07,0,.14-.06,.15-.14l5.06-24.56c.02-.08-.04-.17-.12-.18-1.85-.37-3.98-.56-6.1-.56" fill="#fff"/><path d="M56.88,32.18c-.01-.14,.12-.26,.26-.22l3.72,.93c.1,.02,.16,.11,.16,.21-.23,6.25-2.17,10.84-3.72,13.54-1.1,1.92-2.93,3.35-5.08,3.86-.04,0-.08,.02-.12,.03-.07,.02-.12-.06-.08-.12,5.48-7.74,5.01-16.52,4.86-18.22" fill="#fff"/><path d="M48.22,27.04l-.09-1.16c-1.37,.09-2.64,.27-3.44,.42-.06,.01-.1,.07-.09,.14l.17,.91c.01,.06,.07,.1,.13,.09,.78-.15,2-.31,3.31-.4" fill="#004994"/><path d="M48.22,27.04c.58-.04,1.18-.06,1.76-.06,.61,0,1.2,.02,1.76,.05l.09-1.16c-.58-.03-1.2-.05-1.85-.05s-1.24,.03-1.85,.07l.09,1.16Z" fill="#ffde00"/><path d="M51.74,27.03c1.4,.08,2.58,.24,3.29,.39,.06,.01,.12-.03,.14-.09l.19-.91c.01-.06-.03-.12-.09-.14-.75-.15-1.98-.32-3.44-.41l-.09,1.16Z" fill="#de322f"/></g></svg>