<?xml version="1.0" encoding="UTF-8" standalone="no"?>
<svg fill="#fff"
   xmlns:dc="http://purl.org/dc/elements/1.1/"
   xmlns:cc="http://creativecommons.org/ns#"
   xmlns:rdf="http://www.w3.org/1999/02/22-rdf-syntax-ns#"
   xmlns:svg="http://www.w3.org/2000/svg"
   xmlns="http://www.w3.org/2000/svg"
   viewBox="0 0 119.92773 109.88627"
   height="109.88627"
   width="119.92773"
   xml:space="preserve"
   id="svg2"
   version="1.1"><metadata
     id="metadata8"><rdf:RDF><cc:Work
         rdf:about=""><dc:format>image/svg+xml</dc:format><dc:type
           rdf:resource="http://purl.org/dc/dcmitype/StillImage" /></cc:Work></rdf:RDF></metadata><defs
     id="defs6"><clipPath
       id="clipPath18"
       clipPathUnits="userSpaceOnUse"><path
         id="path16"
         d="M 0,82.415 H 89.946 V 0 H 0 Z" /></clipPath></defs><g
     transform="matrix(1.3333333,0,0,-1.3333333,0,109.88627)"
     id="g10"><g
       id="g12"><g
         clip-path="url(#clipPath18)"
         id="g14"><g
           transform="translate(84.1461,10.4716)"
           id="g20"><path
             id="path22"
             style="fill-opacity:1;fill-rule:nonzero;stroke:none"
             d="m 0,0 c -2.26,-3.969 -6.486,-6.409 -11.054,-6.382 h -56.237 c -7.05,10e-4 -12.764,5.717 -12.763,12.767 0,2.24 0.591,4.441 1.711,6.381 l 28.117,48.702 c 3.524,6.105 11.329,8.197 17.434,4.674 1.941,-1.121 3.554,-2.733 4.675,-4.675 L 0.001,12.766 C 2.31,8.823 2.309,3.942 0,0 m -24.575,63.511 c -4.653,8.062 -14.959,10.825 -23.02,6.173 -2.564,-1.479 -4.693,-3.608 -6.173,-6.171 L -81.884,14.812 c -4.656,-8.061 -1.895,-18.37 6.166,-23.025 2.562,-1.479 5.468,-2.259 8.427,-2.259 h 56.237 c 9.309,10e-4 16.855,7.549 16.854,16.858 0,2.958 -0.779,5.863 -2.258,8.425 z" /></g><g
           transform="translate(49.0797,27.1923)"
           id="g24"><path
             id="path26"
             style="fill-opacity:1;fill-rule:nonzero;stroke:none"
             d="m 0,0 c -0.059,-1.301 -1.88,-2.337 -4.105,-2.337 -2.227,0 -4.047,1.036 -4.107,2.337 l -1.343,29.354 c -0.082,1.793 2.382,3.272 5.45,3.272 3.067,0 5.531,-1.479 5.449,-3.272 z m -4.105,-13.138 c -2.107,0 -3.815,1.708 -3.815,3.816 0,2.106 1.708,3.814 3.815,3.814 2.107,0 3.815,-1.708 3.815,-3.814 0,-2.108 -1.708,-3.816 -3.815,-3.816 m 7.511,55.841 c -2.394,4.149 -7.699,5.57 -11.848,3.175 -1.319,-0.761 -2.414,-1.857 -3.176,-3.175 L -39.736,-6 c -2.396,-4.149 -0.974,-9.455 3.175,-11.851 1.319,-0.76 2.814,-1.162 4.337,-1.162 h 56.237 c 4.791,0 8.675,3.885 8.675,8.676 0,1.523 -0.402,3.019 -1.163,4.337 z" /></g></g></g></g></svg>