<svg xmlns="http://www.w3.org/2000/svg" width="27" height="25" viewBox="0 0 27 25">
  <path data-name="Forma 1" d="M24 0H9a3 3 0 0 0-3 3v2H3a3 3 0 0 0-3 3v9a3 3 0 0 0 3 3h2v5h1l5-5h7a3 3 0 0 0 3-3l2 3h1v-5a3 3 0 0 0 3-3V3a3 3 0 0 0-3-3zm-4 17a2 2 0 0 1-2 2h-8l-4 4v-3-1H3a2 2 0 0 1-2-2V8a2 2 0 0 1 2-2h15a2 2 0 0 1 2 2v9zm6-5a2 2 0 0 1-2 2h-1v4l-2-2V8a3 3 0 0 0-3-3H7V3a2 2 0 0 1 2-2h15a2 2 0 0 1 2 2v9z" fill-rule="evenodd" fill="#5f79c0"/>
  <path data-name="Forma 1 copy" d="M4 10h6-6zm12 2H4v1h12v-1zm0 3H4v1h12v-1z" fill="#eaa23e" fill-rule="evenodd"/>
</svg>
