<svg xmlns="http://www.w3.org/2000/svg" width="19" height="23" viewBox="0 0 19 23">
  <path d="M9.42 12.394h.15a4.239 4.239 0 0 0 3.26-1.454c1.77-2.071 1.48-5.613 1.45-5.951A4.9 4.9 0 0 0 12.04.672a5.055 5.055 0 0 0-2.49-.674h-.08A5.07 5.07 0 0 0 6.98.65a4.906 4.906 0 0 0-2.27 4.339c-.03.338-.32 3.88 1.46 5.951a4.2 4.2 0 0 0 3.25 1.454zM5.95 5.109v-.038C6.11 1.658 8.46 1.29 9.47 1.29h.05c1.25.027 3.37.55 3.51 3.781a.054.054 0 0 0 .01.038c0 .033.33 3.273-1.14 4.976a2.994 2.994 0 0 1-2.38 1.021h-.05a2.98 2.98 0 0 1-2.38-1.021C5.63 8.39 5.94 5.137 5.95 5.109zm13.04 13.163v-.137c-.03-.943-.09-3.147-2.1-3.854-.01 0-.03-.008-.04-.013a13.277 13.277 0 0 1-3.84-1.8.613.613 0 0 0-.87.157.651.651 0 0 0 .15.892 14.243 14.243 0 0 0 4.22 1.987c1.08.4 1.2 1.583 1.23 2.671a.467.467 0 0 0 .01.118 9.927 9.927 0 0 1-.1 1.472 17.986 17.986 0 0 1-16.3-.007 8.734 8.734 0 0 1-.1-1.471c0-.037.01-.075.01-.119.03-1.084.15-2.27 1.23-2.666a14.284 14.284 0 0 0 4.22-1.991.647.647 0 0 0 .15-.889.611.611 0 0 0-.87-.159 13.079 13.079 0 0 1-3.84 1.8l-.04.013C.1 14.987.04 17.191.01 18.13v.135a7.19 7.19 0 0 0 .24 2.157.536.536 0 0 0 .24.3 19 19 0 0 0 18.04 0 .635.635 0 0 0 .24-.3 7.71 7.71 0 0 0 .22-2.15z" fill="#5f79c0" fill-rule="evenodd"/>
</svg>
