<svg xmlns="http://www.w3.org/2000/svg" width="20.75" height="23.812" viewBox="0 0 20.75 23.812">
  <path d="M17.76 15.011a2.349 2.349 0 0 0-1.59-.981 2.436 2.436 0 0 0-1.81.561l-1.77 1.377c-.12-.088-.25-.17-.36-.247-.17-.112-.33-.218-.47-.329a17.149 17.149 0 0 1-3.65-4.241 9.954 9.954 0 0 1-1.09-2.287c.45-.323.88-.665 1.3-1 .15-.12.31-.249.47-.37a2.3 2.3 0 0 0 .43-3.448l-1.2-1.529c-.14-.172-.28-.351-.41-.529-.26-.349-.54-.7-.83-1.043A2.347 2.347 0 0 0 5.2.006 2.506 2.506 0 0 0 3.4.53l-.01.009-1.91 1.5A3.649 3.649 0 0 0 .11 4.221a8.8 8.8 0 0 0 .18 3.78 21.757 21.757 0 0 0 3.05 6.826 23.591 23.591 0 0 0 7.09 7.076 12.274 12.274 0 0 0 4.24 1.835c.11.016.22.036.32.047a3.809 3.809 0 0 0 3.04-.882.05.05 0 0 1 .02-.024 11.076 11.076 0 0 1 .99-.793c.24-.179.48-.364.73-.564a2.508 2.508 0 0 0 .96-1.632 2.371 2.371 0 0 0-.56-1.806zm1.15 5.469c-.01 0-.01 0 0 0-.22.182-.44.35-.69.533a12.4 12.4 0 0 0-1.08.878 2.448 2.448 0 0 1-1.98.563c-.08-.01-.16-.019-.23-.032a10.884 10.884 0 0 1-3.76-1.646 22.256 22.256 0 0 1-6.68-6.663 20.569 20.569 0 0 1-2.87-6.418 7.139 7.139 0 0 1-.17-3.191 2.275 2.275 0 0 1 .87-1.4l1.92-1.489a1.144 1.144 0 0 1 .8-.261 1.07 1.07 0 0 1 .69.439.1.1 0 0 1 .01.018c.27.318.53.649.79 1 .14.178.28.356.42.542l1.2 1.526a.96.96 0 0 1-.19 1.543c-.17.13-.32.258-.49.379-.47.374-.92.726-1.4 1.062-.01.008-.02.012-.03.019a1.025 1.025 0 0 0-.4 1.1c0 .018.01.032.01.045a11 11 0 0 0 1.29 2.824h.01a18.309 18.309 0 0 0 3.94 4.576 6.646 6.646 0 0 0 .58.41 5.561 5.561 0 0 1 .46.324.711.711 0 0 0 .06.041 1.1 1.1 0 0 0 .48.188 1.08 1.08 0 0 0 .8-.253l1.92-1.5a1.168 1.168 0 0 1 .8-.284 1.061 1.061 0 0 1 .68.456l.01.007 2.42 3.087a.991.991 0 0 1-.19 1.577z" fill="#5f79c0" fill-rule="evenodd"/>
</svg>
