<svg xmlns="http://www.w3.org/2000/svg" width="18.5" height="19.937" viewBox="0 0 18.5 19.937">
  <path fill-rule="evenodd" fill="#364878" d="M9.752 19.962c-.081.026-.167.037-.252.037-.086 0-.171-.011-.253-.037C0 17.067.145 10.206.251 5.198.262 4.66.273 4.15.273 3.659c0-.384.346-.695.773-.695 3.303 0 5.819-.858 7.915-2.701.3-.263.777-.263 1.077 0 2.097 1.843 4.613 2.701 7.917 2.701.426 0 .772.311.772.695 0 .491.011 1 .022 1.539.106 5.007.251 11.869-8.997 14.764zm7.452-14.736c-.006-.303-.012-.596-.016-.883-3.095-.116-5.57-.964-7.688-2.63-2.118 1.666-4.593 2.514-7.687 2.63-.005.287-.011.58-.017.883-.107 5.034-.227 10.735 7.704 13.337 7.931-2.602 7.811-8.303 7.704-13.337zm-8.226 7.231c-.151.137-.349.203-.547.203-.197 0-.395-.066-.546-.203l-2.137-1.932c-.302-.272-.302-.712 0-.984.301-.275.79-.275 1.092 0l1.591 1.436 3.729-3.371c.302-.27.791-.27 1.093 0 .301.276.301.717 0 .99l-4.275 3.861z"/>
</svg>
