<?xml version="1.0" encoding="UTF-8"?>
<svg id="a" xmlns="http://www.w3.org/2000/svg" viewBox="0 0 372.85 110.5"><defs><style>.b{fill:#e7684f;}.c{fill:#9ec842;}.d{fill:#e60004;}.e{fill:#3b4456;}</style></defs><g><path class="e" d="M120.35,56.1c0-1.1,1-1.7,2.5-1.9h0c3.7,0,6.4,3.2,6.4,3.2l2.6-3.5s-2.8-3.6-8.3-3.9h-.5c-4.7,0-8.3,2.5-8.3,6.5-.1,7.2,11.4,6.6,11.4,10,0,1.1-1,1.7-2.5,1.9h0c-3.7,0-6.4-3.2-6.4-3.2l-2.6,3.5s2.8,3.6,8.3,3.9h.5c4.7,0,8.3-2.5,8.3-6.5,.1-7.3-11.4-6.7-11.4-10Z"/><path class="e" d="M133.25,69.2l10-12c1-1.2,1.8-2,1.8-2v-.1s-.6,.1-2,.1h-3.9c-.6,0-.9,.3-.9,.9v1.2h-4.8v-3.8c0-2,.9-2.9,2.9-2.8l15.8,.1v2.9l-10,12c-1,1.2-1.8,2-1.8,2v.1s.6-.1,2-.1h4.7c.6,0,.9-.3,.9-.9v-1.2h4.8v3.8c0,2-.9,2.9-2.8,2.8l-16.7-.1v-2.9Z"/><path class="e" d="M164.65,50.3c6.2,0,9.5,4.6,9.4,10.3,0,.6-.1,2-.1,2l-14.8-.1c.4,3.8,3.2,5.8,6.4,5.8,3.5,0,6-2.4,6-2.4l2.2,3.7s-3.3,3.2-8.7,3.2c-7.1-.1-11.5-5.2-11.5-11.3,.1-6.6,4.6-11.2,11.1-11.2Zm4,8.5c-.1-2.6-1.8-4.4-4-4.4-2.7,0-4.7,1.6-5.3,4.3l9.3,.1Z"/><path class="e" d="M178.25,56.4c0-.6-.3-.9-.9-.9h-1.7v-4.6h4.9c1.9,0,2.9,.8,2.8,2.6v1.3c0,.8-.1,1.4-.1,1.4h.1c1-3.1,3.6-5.5,6.9-5.5,.5,0,1,.1,1,.1v5.3s-.5-.1-1.3-.1c-2.3,0-4.9,1.3-5.9,4.5-.3,1-.5,2.2-.5,3.5l-.1,8.5h-5.3l.1-16.1Z"/><path class="e" d="M202.55,50.6c6.2,0,9.5,4.6,9.4,10.3,0,.6-.1,2-.1,2l-14.8-.1c.4,3.8,3.2,5.8,6.4,5.8,3.5,0,6-2.4,6-2.4l2.2,3.7s-3.3,3.2-8.7,3.2c-7.1-.1-11.5-5.2-11.5-11.3,.2-6.7,4.7-11.3,11.1-11.2Zm4,8.5c-.1-2.6-1.8-4.4-4-4.4-2.7,0-4.7,1.6-5.3,4.3l9.3,.1Z"/><path class="e" d="M216.25,55.5h-2.8v-4.3h2.9v-5.9h5.2v5.9h4.9v4.3h-4.9l-.1,8.7c0,3.5,2.8,4.1,4.2,4.1,.6,0,1-.1,1-.1v4.7s-.7,.1-1.6,.1c-3,0-8.9-.9-8.9-8.2l.1-9.3Z"/><path class="e" d="M230.45,48.3c0-.6-.3-.9-.9-.9h-1.7v-4.6h5.1c2,0,2.9,.9,2.8,2.9l-.2,21.6c0,.6,.3,.9,.9,.9h1.6v4.5h-5.1c-2,0-2.9-.9-2.8-2.9l.3-21.5Z"/><path class="e" d="M250.45,50.9c6.2,0,9.5,4.6,9.5,10.3,0,.6-.1,2-.1,2l-14.8-.1c.4,3.8,3.2,5.8,6.4,5.8,3.5,0,6-2.4,6-2.4l2.2,3.7s-3.3,3.2-8.7,3.2c-7.1-.1-11.5-5.2-11.5-11.3,.1-6.6,4.6-11.2,11-11.2Zm4,8.5c-.1-2.6-1.8-4.4-4-4.4-2.7,0-4.7,1.6-5.3,4.3l9.3,.1Z"/><path class="e" d="M264.05,48.6c0-.6-.3-.9-.9-.9h-1.7v-4.6h5.1c2,0,2.9,.5,2.8,2.5l-.1,13.6h1.6c.7,0,1.6-.1,2-.8l4.4-6.8h5.9l-5.5,8.1c-.9,1.3-1.6,1.7-1.6,1.7v.1s.8,.3,1.5,1.7l2.4,4.7c.3,.6,.7,.8,1.8,.8h1.4v4.5h-4c-1.8,0-2.5-.3-3.4-1.9l-3.5-6.8c-.4-.8-1.3-.8-2-.8h-1.2l-.1,9.4h-5.4l.5-24.5Z"/></g><g><path class="e" d="M292.95,85.2c0-1.1,1-1.7,2.5-1.9h0c3.7,0,6.4,3.2,6.4,3.2l2.6-3.5s-2.8-3.6-8.3-3.9h-.5c-4.7,0-8.3,2.5-8.3,6.5-.1,7.2,11.4,6.6,11.3,10,0,1.1-1,1.7-2.5,1.9h0c-3.7,0-6.4-3.2-6.4-3.2l-2.6,3.5s2.8,3.6,8.3,3.9h.5c4.7,0,8.3-2.5,8.3-6.5,.1-7.2-11.4-6.6-11.3-10Z"/><path class="e" d="M102.65,83.7c0-.6-.3-.9-.9-.9h-1.7v-4.6h4.9c1.9,0,2.8,.9,2.8,2.4v1.5h.1c1-2.1,3.6-4.4,7-4.4,3.2,0,5.3,1.6,6.3,4.5h.1c1.2-2.3,4-4.4,7.4-4.4,4.5,0,7,2.6,7,8.2l-.1,8.4c0,.6,.3,.9,.9,.9h1.6v4.5h-5.1c-2,0-2.9-.9-2.8-2.9l.1-9.9c0-2.4-.4-4.3-2.9-4.3-2.7,0-4.6,2.2-5.2,4.9-.3,.8-.4,1.7-.4,2.7l-.1,9.4h-5.3l.1-12.8c0-2.3-.3-4.3-2.9-4.3s-4.5,2.2-5.2,4.9c-.2,.8-.3,1.7-.4,2.7l-.1,9.4h-5.3l.1-15.9Z"/><path class="e" d="M152.05,86.6h.7v-.2c0-3.1-1.2-4.2-3.9-4.2-1,0-2.9,.2-2.9,1.4v1.1h-5v-2.3c0-4,5.7-4.4,7.9-4.4,7.2,.1,9.2,3.8,9.2,8.6l-.1,8c0,.6,.3,.9,.9,.9h1.7v4.5h-4.8c-2,0-2.7-1.1-2.7-2.4,0-.5,.1-.9,.1-.9h-.1s-1.7,3.8-6.5,3.8c-3.8,0-7.3-2.5-7.3-6.8,0-6.6,9.3-7.1,12.8-7.1Zm-4.3,9.8c2.9,0,4.9-3,4.9-5.6v-.5h-.9c-2.8,0-7.2,.3-7.2,3.3,0,1.4,1.1,2.8,3.2,2.8Z"/><path class="e" d="M171.35,78.2c5,0,6.6,3.1,6.6,3.1h.1v-.6c0-1,.7-2,2.4-2h5v4.6h-1.6c-.5,0-.9,.3-.9,.8l-.1,14.8c-.1,7.4-5.8,10.1-11.4,10.1-2.7,0-5.6-.8-7.6-1.9l1.7-4.2s2.6,1.5,5.9,1.5,6.1-1.4,6.1-5.2v-2.1h-.1c-1.3,1.8-3.1,2.8-6,2.7-6.2,0-9.6-5-9.6-10.9-.1-5.9,3.3-10.7,9.5-10.7Zm6.2,10.8c0-4.9-2.4-6.2-5.3-6.2-3.3,0-5,2.3-5.1,6,0,3.8,1.8,6.5,5.3,6.6,2.6-.1,5-1.5,5.1-6.4Z"/><path class="e" d="M189.65,104.7c1.5,0,2.8-.9,3.6-2.7l.7-1.6-7-16.2c-.3-.6-.5-.8-1.1-.8h-.6v-4.6h3.5c1.5,0,2.3,.6,2.8,2l4.1,10.8c.4,1.1,.7,2.9,.7,2.9h.1s.3-1.8,.7-2.9l3.7-10.7c.5-1.5,1.4-2,2.9-2h3.6v4.6h-.6c-.6,0-1,.1-1.2,.8l-7.9,19.4c-1.5,3.9-4.6,5.6-7.8,5.5-3.4,0-5.4-2.2-5.4-2.2l2.1-3.8s1.3,1.5,3.1,1.5Z"/><path class="e" d="M220.65,87.1h.7v-.2c0-3.1-1.2-4.2-3.9-4.2-1,0-2.9,.2-2.9,1.4v1.1h-5v-2.3c0-4,5.7-4.4,7.9-4.4,7.2,.1,9.2,3.8,9.2,8.6l-.1,8c0,.6,.3,.9,.9,.9h1.7v4.5h-4.8c-2,0-2.7-1.1-2.7-2.4,0-.6,.1-.9,.1-.9h-.1s-1.7,3.8-6.5,3.8c-3.8,0-7.3-2.5-7.3-6.8,0-6.6,9.3-7.1,12.8-7.1Zm-4.2,9.8c2.9,0,4.9-3,4.9-5.6v-.5h-.9c-2.8,0-7.2,.3-7.2,3.3,0,1.4,1,2.8,3.2,2.8Z"/><path class="e" d="M232.55,84.7c0-.6-.3-.9-.9-.9h-1.7v-4.6h4.9c1.9,0,2.9,.8,2.8,2.6v1.3c0,.8-.1,1.4-.1,1.4h.1c1-3.1,3.6-5.5,6.9-5.5,.5,0,1,.1,1,.1v5.3s-.5-.1-1.3-.1c-2.3,0-4.9,1.3-5.9,4.5-.3,1.1-.5,2.2-.5,3.5l-.1,8.5h-5.3l.1-16.1Z"/><path class="e" d="M257.75,78.9c6.6,0,11.8,4.8,11.7,11.3-.1,6.6-5.3,11.2-11.9,11.2s-11.7-4.7-11.7-11.3c.1-6.6,5.4-11.3,11.9-11.2Zm-.1,17.9c3.5,0,6.4-2.7,6.5-6.7,0-4-2.9-6.7-6.4-6.8-3.5,0-6.4,2.7-6.4,6.7-.1,4.1,2.8,6.8,6.3,6.8Z"/><path class="e" d="M273.35,85c0-.6-.3-.9-.9-.9h-1.7v-4.6h4.9c1.9,0,2.9,.8,2.8,2.6v1.3c0,.8-.1,1.3-.1,1.3h.1c1-3.1,3.6-5.5,6.9-5.5,.5,0,1,.1,1,.1v5.3s-.6-.1-1.3-.1c-2.3,0-4.9,1.3-5.9,4.5-.3,1.1-.5,2.2-.5,3.5l-.1,8.5h-5.3l.1-16Z"/><path class="e" d="M305.85,98.4l10-12c1-1.2,1.8-2,1.8-2v-.1s-.6,.1-2,.1h-3.9c-.6,0-.9,.3-.9,.9v1.2h-4.9v-3.8c0-2,.9-2.9,2.9-2.8l15.8,.1v2.9l-10,12c-1,1.2-1.8,2-1.8,2v.1s.6-.1,2-.1h4.7c.6,0,.9-.3,.9-.9v-1.2h4.8v3.8c0,2-.9,2.9-2.8,2.8l-16.7-.1,.1-2.9Z"/><path class="e" d="M339.45,88h.7v-.2c0-3.1-1.2-4.2-3.9-4.2-1,0-2.9,.2-2.9,1.4v1.1h-5v-2.3c0-4,5.7-4.4,7.9-4.4,7.2,.1,9.2,3.8,9.2,8.6l-.1,8c0,.6,.3,.9,.9,.9h1.7v4.5h-4.8c-2,0-2.7-1.1-2.7-2.4v-.9h-.1s-1.7,3.8-6.5,3.7c-3.8,0-7.3-2.5-7.3-6.8,.1-6.6,9.4-7,12.9-7Zm-4.2,9.8c2.9,0,4.9-3,4.9-5.6v-.5h-.9c-2.8,0-7.2,.3-7.2,3.3-.1,1.4,1,2.8,3.2,2.8Zm2.7-26.2h5.1l-4.5,5.7h-3.9l3.3-5.7Z"/><path class="e" d="M358.75,79.6c5,0,6.6,3.1,6.6,3.1h.1v-.5c0-1,.7-2,2.4-2h5v4.6h-1.6c-.5,0-.9,.3-.9,.8l-.1,14.8c-.1,7.4-5.8,10.1-11.4,10.1-2.7,0-5.6-.8-7.6-1.9l1.7-4.2s2.6,1.5,5.9,1.5,6.1-1.4,6.1-5.2v-2.1h-.1c-1.3,1.8-3.1,2.8-6,2.7-6.2,0-9.6-5-9.6-10.9-.1-6.1,3.3-10.8,9.5-10.8Zm6.2,10.8c0-4.9-2.4-6.2-5.3-6.2-3.2,0-5,2.3-5.1,6,0,3.8,1.8,6.5,5.3,6.6,2.6-.1,5.1-1.5,5.1-6.4Z"/></g><g><path class="d" d="M44.85,26.1l-.1,.2q.1,0,.1-.2h0Z"/><path class="b" d="M61.65,90c-17.2-8.1-39.1-20.8-46.2-36.7-6.9-15.7,.8-24.1,.8-24.1,8.8-10.7,21.3-8.1,28.6-2.8h0l.1-.2s0,.1-.1,.1l.1-.2h0v.1c3.8-8.1,13.6-16.6,26.3-11.6,0,0,10.9,3.5,12.5,20.6,.1,1.3,.2,2.6,.1,4,4.1-.3,8.8-2,12.4-5.1,0-1-.1-2-.2-3-.1-.6-.2-1.2-.3-1.7,0-.1,0-.2-.1-.3-.1-.4-.2-.9-.2-1.3,0-.2-.1-.3-.1-.5-.1-.4-.2-.7-.3-1.1,0-.2-.1-.4-.2-.6-.1-.3-.2-.7-.3-1-.1-.2-.1-.4-.2-.6-.1-.3-.2-.7-.3-1-.1-.2-.1-.4-.2-.6-.2-.4-.3-.9-.5-1.3l-.3-.6c-.1-.3-.2-.6-.4-.9h0c-.9-2-2-4-3.2-5.8h0c-.8-1.1-1.6-2.2-2.5-3.3-.1-.1-.1-.2-.2-.2-.4-.4-.8-.9-1.2-1.3l-.2-.2c-.9-.9-1.9-1.8-3-2.6-.1-.1-.2-.2-.3-.2-.4-.3-.9-.6-1.3-1-.1-.1-.2-.1-.3-.2-.5-.4-1.1-.7-1.6-1h0c-.5-.3-1.1-.6-1.6-.9-.1-.1-.3-.1-.4-.2-.4-.2-.9-.4-1.3-.6-.1-.1-.3-.1-.4-.2-.6-.2-1.2-.5-1.7-.6h-.1c-.5-.2-1.1-.3-1.6-.5-.2,0-.4-.1-.6-.1-.4-.1-.9-.2-1.3-.3-.2,0-.4-.1-.6-.1-.6-.1-1.2-.2-1.8-.2h-.2c-.6-.1-1.1-.1-1.7-.1h-2.5c-.6,0-1.2,.1-1.8,.2h-.1c-2.4,.3-4.7,1-6.9,1.9-3.6,1.5-6.5,3.7-9.2,6.6,0,0-1.8,2-3.5,4.8-2.8-1.5-5.2-2.3-5.2-2.3-3.7-1.1-7.4-1.7-11.2-1.2-2.3,.3-4.6,.8-6.9,1.7h-.1c-.6,.2-1.1,.5-1.6,.7-.2,.1-.4,.2-.5,.3l-1.2,.6c-.2,.1-.4,.2-.5,.3-.5,.3-.9,.6-1.4,.9l-.1,.1c-.5,.4-1,.7-1.5,1.1-.1,.1-.3,.2-.4,.4-.3,.3-.7,.6-1,.9l-.4,.4-1.2,1.2-.1,.1c-.4,.5-.8,.9-1.2,1.4-.1,.1-.2,.2-.3,.4l-.9,1.2c-.1,.1-.2,.3-.3,.4-.3,.5-.7,1-1,1.5h0c-.3,.6-.6,1.1-.9,1.7,0,.1-.1,.2-.1,.3-.2,.5-.5,1-.7,1.5-.1,.1-.1,.2-.2,.4-.5,1.2-.9,2.5-1.3,3.7q0,.1-.1,.2c-.2,.6-.3,1.2-.4,1.7,0,.1,0,.2-.1,.3-.3,1.3-.5,2.7-.6,4.1v.1H.15c-.2,2.2-.2,4.4,0,6.6H.15c0,.3,.1,.6,.1,.9,0,.2,0,.4,.1,.7,.1,.5,.1,.9,.2,1.4,0,.2,.1,.4,.1,.6,.1,.4,.1,.7,.2,1.1,0,.2,.1,.4,.1,.6,.1,.3,.2,.7,.3,1,0,.2,.1,.4,.2,.6,.1,.4,.2,.7,.3,1.1-.3-.1-.2,.1-.2,.3,.1,.4,.3,.8,.4,1.3,0,.1,.1,.2,.1,.3,.2,.5,.4,1.1,.6,1.6,11.3,27.4,56.1,43.3,63.6,47.1h0c1.1-1.4,3.7-4,6.9-7.6-2.3-1.1-9.2-4.2-11.5-5.2h0ZM44.75,26.4h0Z"/><path class="d" d="M86.55,59h0c.1,.2,.2,.3,.3,.5l-.3-.5Z"/><path class="c" d="M73.25,95.2h0s-.9-6.1-4.3-14.2c4.7,.9,10.4,1.5,16.7,1.3,3.1-2.7,6.6-7.9,7.8-10.3,0,0-2.2-6.4-6-11.8l.1,.2v-.1l-1-1.3c6-1.6,11.9-3.2,21.4-8.7l-3.6-2.7,5.6-8.6c-16.2,12.3-30.8,14-30.8,14-3,3.2-3.6,7.3-3.6,7.8v.1s5.8,5.2,8.8,11.8c-10.7,.2-18.5-1.8-18.5-1.8-4.6,1.9-9.3,6.6-9.3,6.6h0c2.3,4.7,4,9,5.1,12.4,2.3,1.1,9.2,4.2,11.6,5.3h0Zm13.3-36.2l.3,.5c-.1-.2-.2-.3-.3-.5h0Z"/><path class="d" d="M45.15,26.1l-.1,.2s.1-.1,.1-.2h0Z"/></g></svg>