<svg xmlns="http://www.w3.org/2000/svg" width="210.46" height="224.277" viewBox="0 0 210.46 224.277">
  <path id="Path_149" data-name="Path 149" d="M208.744,209v33H76.494V215.75l67.5-63.75q10.75-10.25,14.5-17.625a32.06,32.06,0,0,0,3.75-14.625q0-10.5-7.125-16.125T134.244,98a47.936,47.936,0,0,0-20.75,4.375,39.736,39.736,0,0,0-15.5,13.125l-29.5-19q10.25-15.25,28.25-23.875T137.994,64q19.5,0,34.125,6.375t22.75,18q8.125,11.625,8.125,27.375a61.022,61.022,0,0,1-6,26.75q-6,12.5-23.25,28.5l-40.25,38Z" transform="translate(61.683 -89.672) rotate(30)" fill="rgba(255, 255, 255, 0.4)"/>
</svg>
