<svg xmlns="http://www.w3.org/2000/svg" width="209.594" height="223.777" viewBox="0 0 209.594 223.777">
  <path id="Path_150" data-name="Path 150" d="M159.494,138.25q23,3.75,35.25,17.125t12.25,33.125a52.275,52.275,0,0,1-8,28.125q-8,12.875-24.375,20.625T134.494,245a137.639,137.639,0,0,1-36.375-4.875Q80.244,235.25,67.744,226.25l15.75-31a76.305,76.305,0,0,0,23.125,11.625A89.12,89.12,0,0,0,133.494,211q15.25,0,24-5.875a18.875,18.875,0,0,0,8.75-16.625q0-21.5-32.75-21.5h-18.5V140.25l36-40.75h-74.5V67h122.5V93.25Z" transform="translate(63.832 -91.896) rotate(30)" fill="rgba(255, 255, 255, 0.4)"/>
</svg>
