<svg id="Capa_1" enable-background="new 0 0 512 512" height="512" viewBox="0 0 512 512" width="512" xmlns="http://www.w3.org/2000/svg"><g><g><path d="m256 512-60.791-68.925-83.73 11.851-14.62-83.306-74.678-39.639 37.12-75.981-37.119-75.981 74.678-39.639 14.619-83.306 83.73 11.851 60.791-68.925 60.791 68.925 83.73-11.851 14.619 83.306 74.678 39.639-37.119 75.981 37.119 75.981-74.678 39.639-14.619 83.306-83.73-11.851z" fill="#ff5959"/></g><path d="m316.791 443.075 83.73 11.851 14.62-83.306 74.677-39.639-37.119-75.981 37.119-75.981-74.677-39.639-14.62-83.306-83.73 11.851-60.791-68.925v512z" fill="#e63a57"/><g id="Sale_14_"><g><path d="m156.149 241.002h199.702v29.997h-199.702z" fill="#ecf2ff" transform="matrix(.707 -.707 .707 .707 -106.039 256)"/></g><path d="m316 271c-24.814 0-45 20.186-45 45s20.186 45 45 45 45-20.186 45-45-20.186-45-45-45zm0 60c-8.271 0-15-6.729-15-15s6.729-15 15-15 15 6.729 15 15-6.729 15-15 15z" fill="#d9e5ff"/><path d="m196 151c-24.814 0-45 20.186-45 45s20.186 45 45 45 45-20.186 45-45-20.186-45-45-45zm0 60c-8.271 0-15-6.729-15-15s6.729-15 15-15 15 6.729 15 15-6.729 15-15 15z" fill="#ecf2ff"/></g><path d="m256 277.211 81.211-81.211-21.211-21.211-60 60z" fill="#d9e5ff"/></g></svg>