<?xml version="1.0" encoding="utf-8"?>
<!-- Generator: Adobe Illustrator 19.2.1, SVG Export Plug-In . SVG Version: 6.00 Build 0)  -->
<svg version="1.1" id="Layer_1" xmlns="http://www.w3.org/2000/svg" xmlns:xlink="http://www.w3.org/1999/xlink" x="0px" y="0px"
	 viewBox="0 0 120 31.1" style="enable-background:new 0 0 120 31.1;" xml:space="preserve">
<style type="text/css">
	.st0{fill:#FFFFFF;}
</style>
<g>
	<path class="st0" d="M0,1.3h8.7c8.7,0,15,5.8,15,14.2s-6.2,14.2-15,14.2H0V1.3z M8.5,24.6c6.3,0,9.2-3.8,9.2-9.1s-2.9-9.1-9.2-9.1
		H5.9v18.2H8.5z"/>
	<path class="st0" d="M27.5,11.8h5.7L33.1,15c1.3-2.9,3.4-3.6,5.3-3.6c1.2,0,2.1,0.3,2.8,0.7l-1.8,5.2c-0.7-0.3-1.4-0.5-2.2-0.5
		c-2.6,0-4,1.2-4,5v8h-5.7V11.8z"/>
	<path class="st0" d="M38,27.6c0-1.4,1.1-2.3,2.3-2.3s2.3,1,2.3,2.3c0,1.4-1.1,2.3-2.3,2.3S38,29,38,27.6"/>
	<path class="st0" d="M64.6,0.9h0.5l13.1,28.9H72l-1.3-3.2H59.1l-1.3,3.2H52L64.6,0.9z M68.6,21.6l-3.8-9l-3.7,9H68.6z"/>
	<polygon class="st0" points="86.3,20.4 80.2,11.8 86.9,11.8 89.8,16.1 92.5,11.8 98.5,11.8 92.6,19.9 99.5,29.8 92.8,29.8 
		89.1,24.3 85.4,29.8 79.4,29.8 	"/>
	<path class="st0" d="M110.8,25.4c2.1,0,3.6-0.8,4.5-1.4l3.2,3.5c-1.7,1.5-3.9,2.7-7.7,2.7c-6.4,0-10.5-3.9-10.5-9.4
		c0-5.4,4.3-9.3,9.9-9.3c6.4,0,9.9,4.8,9.5,11.1h-13.6C106.7,24.4,108.2,25.4,110.8,25.4 M114,19.3c-0.3-2-1.5-3.2-3.7-3.2
		s-3.7,1-4.2,3.2H114z"/>
</g>
</svg>
