<svg version="1.1" xmlns="http://www.w3.org/2000/svg" x="0px" y="0px"
	 width="48px" height="48px" viewBox="0 0 48 48" style="enable-background:new 0 0 48 48;" xml:space="preserve">
<style type="text/css">
	.st0{fill:#FFFFFF;}
</style>
<g>
	<path class="st0" d="M15.3,37.3c-0.5,0-1-0.2-1.3-0.7L3.9,23.8L14,11c0.6-0.7,1.7-0.9,2.4-0.3c0.7,0.6,0.9,1.7,0.3,2.4L8.2,23.8
		l8.4,10.7c0.6,0.7,0.5,1.8-0.3,2.4C16,37.2,15.7,37.3,15.3,37.3z"/>
	<path class="st0" d="M32.7,37.3c-0.4,0-0.7-0.1-1.1-0.4c-0.7-0.6-0.9-1.7-0.3-2.4l8.4-10.7l-8.4-10.7c-0.6-0.7-0.5-1.8,0.3-2.4
		c0.7-0.6,1.8-0.5,2.4,0.3l10.1,12.8L34,36.7C33.7,37.1,33.2,37.3,32.7,37.3z"/>
	<path class="st0" d="M21.4,37.6c-0.2,0-0.3,0-0.5,0c-0.9-0.2-1.5-1.1-1.3-2l5.2-23.6c0.2-0.9,1.1-1.5,2-1.3c0.9,0.2,1.5,1.1,1.3,2
		l-5.2,23.6C22.7,37.1,22.1,37.6,21.4,37.6z"/>
</g>
</svg>
