<svg id="Calque_1" data-name="Calque 1" xmlns="http://www.w3.org/2000/svg" viewBox="0 0 48 48"><defs><style>.cls-1{fill:#002e44;}</style></defs><title>euronews_icons_dark</title><path class="cls-1" d="M24,4A20,20,0,1,0,44,24,20,20,0,0,0,24,4ZM38.1,16.5H31.24a20.39,20.39,0,0,0-3.17-7.95A16,16,0,0,1,38.1,16.5ZM40,24a16,16,0,0,1-.66,4.5h-7.6A40.66,40.66,0,0,0,32,24a40.66,40.66,0,0,0-.26-4.5h7.6A16,16,0,0,1,40,24ZM24,39c-1.18,0-3.11-2.78-4.19-7.5h8.38C27.09,36.22,25.16,39,24,39ZM19.26,28.5a36.3,36.3,0,0,1,0-9H28.7A37,37,0,0,1,29,24a37,37,0,0,1-.28,4.5ZM8,24a16,16,0,0,1,.65-4.5h7.61a39.07,39.07,0,0,0,0,9H8.63A16,16,0,0,1,8,24ZM24,9c1.18,0,3.11,2.78,4.19,7.5H19.79C20.87,11.78,22.8,9,24,9Zm-4.09-.45a20.38,20.38,0,0,0-3.18,8H9.86A16,16,0,0,1,19.89,8.55Zm-10,23h6.85a20.38,20.38,0,0,0,3.18,8A16,16,0,0,1,9.86,31.5Zm18.21,8a20.39,20.39,0,0,0,3.17-8H38.1A16,16,0,0,1,28.07,39.45Z"/></svg>