<?xml version="1.0" encoding="utf-8"?>
<!-- Generator: Adobe Illustrator 23.0.4, SVG Export Plug-In . SVG Version: 6.00 Build 0)  -->
<svg version="1.1" id="Layer_1" xmlns="http://www.w3.org/2000/svg" xmlns:xlink="http://www.w3.org/1999/xlink" x="0px" y="0px"
	 viewBox="0 0 75 75" style="enable-background:new 0 0 75 75;" xml:space="preserve">
<style type="text/css">
	.st0{fill:#7D8C96;}
</style>
<g id="twitter_1_">
	<path class="st0" d="M37.5,4C56,4,71,19,71,37.5S56,71,37.5,71S4,56,4,37.5S19,4,37.5,4 M37.5,0C16.8,0,0,16.8,0,37.5
		S16.8,75,37.5,75S75,58.2,75,37.5S58.2,0,37.5,0L37.5,0z"/>
	<g>
		<path class="st0" d="M55.5,25.5h-8.1v-6H27.6v6h-8v20.6h8v9.4h19.9v-9.4h8.1L55.5,25.5L55.5,25.5z M43.4,51H31.7v-3.6h11.8
			L43.4,51L43.4,51z M31.7,43.9v-3.6h9.1v3.6H31.7z M51.6,42.1h-4.1v-5.2H27.6v5.2h-4V29.5h28L51.6,42.1L51.6,42.1z"/>
	</g>
</g>
</svg>
