<?xml version="1.0" encoding="utf-8"?>
<!-- Generator: Adobe Illustrator 22.1.0, SVG Export Plug-In . SVG Version: 6.00 Build 0)  -->
<svg version="1.1" id="Layer_1" xmlns="http://www.w3.org/2000/svg" xmlns:xlink="http://www.w3.org/1999/xlink" x="0px" y="0px"
	 viewBox="0 0 75 75" style="enable-background:new 0 0 75 75;" xml:space="preserve">
<style type="text/css">
	.st0{fill:#7D8C96;}
</style>
<g id="facebook">
	<path class="st0" d="M41.3,31.9v-4.2c0-1.9,0.5-2.8,3.4-2.8h3.6v-7.1h-6.1c-7.6,0-10,3.4-10,9.4v4.7H27v7.2h5.2v21.3h9.1V39.1h6.3
		l0.8-7.2H41.3z"/>
	<g>
		<path class="st0" d="M37.5,4C56,4,71,19,71,37.5S56,71,37.5,71S4,56,4,37.5S19,4,37.5,4 M37.5,0C16.8,0,0,16.8,0,37.5
			S16.8,75,37.5,75S75,58.2,75,37.5S58.2,0,37.5,0L37.5,0z"/>
	</g>
</g>
</svg>
