<?xml version="1.0" encoding="utf-8"?>
<!-- Generator: Adobe Illustrator 22.1.0, SVG Export Plug-In . SVG Version: 6.00 Build 0)  -->
<svg version="1.1" id="Layer_1" xmlns="http://www.w3.org/2000/svg" xmlns:xlink="http://www.w3.org/1999/xlink" x="0px" y="0px"
	 viewBox="0 0 75 75" style="enable-background:new 0 0 75 75;" xml:space="preserve">
<style type="text/css">
	.st0{fill:#ffffff;}
	.st1{fill:#ffffff;}
</style>
<g id="instagram">
	<linearGradient id="SVGID_1_" gradientUnits="userSpaceOnUse" x1="56.2531" y1="5.0186" x2="18.7469" y2="69.9814">
		<stop  offset="8.000000e-02" style="stop-color:#5056DD"/>
		<stop  offset="0.6" style="stop-color:#E90077"/>
		<stop  offset="1" style="stop-color:#FFDA61"/>
	</linearGradient>
	<path class="st0" d="M37.5,4C56,4,71,19,71,37.5S56,71,37.5,71S4,56,4,37.5S19,4,37.5,4 M37.5,0C16.8,0,0,16.8,0,37.5
		S16.8,75,37.5,75S75,58.2,75,37.5S58.2,0,37.5,0L37.5,0z"/>
	<g>
		<linearGradient id="SVGID_2_" gradientUnits="userSpaceOnUse" x1="48.9405" y1="17.9321" x2="26.3885" y2="56.9932">
			<stop  offset="8.000000e-02" style="stop-color:#5056DD"/>
			<stop  offset="0.6" style="stop-color:#E90077"/>
			<stop  offset="1" style="stop-color:#FFDA61"/>
		</linearGradient>
		<path class="st1" d="M24.5,19.8h26.4c2.5,0,4.5,2,4.5,4.5v26.4c0,2.5-2,4.6-4.5,4.6H24.5c-2.5,0-4.6-2.1-4.6-4.6V24.3
			C19.9,21.7,22,19.8,24.5,19.8L24.5,19.8z M45.8,23.7c-0.9,0-1.6,0.7-1.6,1.5v3.8c0,0.9,0.7,1.5,1.6,1.5h4c0.9,0,1.6-0.7,1.6-1.5
			v-3.8c0-0.9-0.8-1.5-1.6-1.5H45.8L45.8,23.7z M51.5,34.7h-3.1c0.3,0.9,0.5,2,0.5,3.1c0,5.9-4.9,10.7-11,10.7
			c-6.1,0-11-4.8-11-10.7c0-1.1,0.2-2.1,0.5-3.1h-3.3v15c0,0.8,0.7,1.5,1.5,1.5H50c0.8,0,1.4-0.7,1.4-1.5V34.7L51.5,34.7z
			 M37.7,30.5c-3.9,0-7.1,3.1-7.1,6.9s3.2,6.9,7.1,6.9c3.9,0,7.1-3.1,7.1-6.9S41.7,30.5,37.7,30.5z"/>
	</g>
</g>
</svg>
