<?xml version="1.0" encoding="utf-8"?>
<!-- Generator: Adobe Illustrator 22.1.0, SVG Export Plug-In . SVG Version: 6.00 Build 0)  -->
<svg version="1.1" id="Layer_1" xmlns="http://www.w3.org/2000/svg" xmlns:xlink="http://www.w3.org/1999/xlink" x="0px" y="0px"
	 viewBox="0 0 75 75" style="enable-background:new 0 0 75 75;" xml:space="preserve">
<style type="text/css">
	.st0{fill:#ffffff;}
</style>
<g id="facebook">
	<path class="st0" d="M38,20L38,20L38,20L38,20c-9.9,0-18,8.1-18,18c0,3.9,1.3,7.6,3.4,10.6l-2.2,6.7l6.9-2.2c2.8,1.9,6.2,3,9.9,3
		c9.9,0,18-8.1,18-18C56,28.1,47.9,20,38,20z M48.5,45.4c-0.4,1.2-2.2,2.2-3.5,2.5c-0.9,0.2-2.2,0.4-6.3-1.4c-5.3-2.2-8.7-7.6-9-7.9
		c-0.3-0.3-2.1-2.8-2.1-5.4c0-2.6,1.3-3.8,1.8-4.4c0.4-0.4,1.2-0.6,1.8-0.6c0.2,0,0.4,0,0.6,0c0.5,0,0.8,0.1,1.1,0.9
		c0.4,1,1.5,3.6,1.6,3.9c0.1,0.3,0.3,0.6,0.1,1c-0.2,0.4-0.3,0.5-0.6,0.8c-0.3,0.3-0.5,0.5-0.8,0.9c-0.2,0.3-0.5,0.6-0.2,1.1
		c0.3,0.5,1.4,2.2,2.9,3.6c2,1.8,3.6,2.4,4.2,2.6c0.4,0.2,1,0.1,1.3-0.2c0.4-0.4,0.9-1.2,1.4-1.9c0.4-0.5,0.8-0.6,1.3-0.4
		c0.5,0.2,3.1,1.4,3.6,1.7c0.5,0.3,0.9,0.4,1,0.6C48.9,43.1,48.9,44.2,48.5,45.4z"/>
	<path class="st0" d="M37.5,4C56,4,71,19,71,37.5S56,71,37.5,71S4,56,4,37.5S19,4,37.5,4 M37.5,0C16.8,0,0,16.8,0,37.5
		S16.8,75,37.5,75S75,58.2,75,37.5S58.2,0,37.5,0L37.5,0z"/>
</g>
</svg>
