<?xml version="1.0" encoding="utf-8"?>
<!-- Generator: Adobe Illustrator 23.0.4, SVG Export Plug-In . SVG Version: 6.00 Build 0)  -->
<svg version="1.1" id="Layer_1" xmlns="http://www.w3.org/2000/svg" xmlns:xlink="http://www.w3.org/1999/xlink" x="0px" y="0px"
	 viewBox="0 0 75 75" style="enable-background:new 0 0 75 75;" xml:space="preserve">
<style type="text/css">
	.st0{fill:#7D8C96;}
</style>
<g>
	<g>
		<path class="st0" d="M37.5,4C56,4,71,19,71,37.5S56,71,37.5,71S4,56,4,37.5S19,4,37.5,4 M37.5,0C16.8,0,0,16.8,0,37.5
			S16.8,75,37.5,75S75,58.2,75,37.5S58.2,0,37.5,0L37.5,0z"/>
	</g>
	<path class="st0" d="M20,25.8v25.4h36V25.8H20z M50,29l-11.7,9.1L26,29H50z M23.9,47V32.4l14.5,10.7l13.7-10.8V47L23.9,47L23.9,47z
		"/>
</g>
</svg>
