<?xml version="1.0" encoding="utf-8"?>
<!-- Generator: Adobe Illustrator 22.1.0, SVG Export Plug-In . SVG Version: 6.00 Build 0)  -->
<svg version="1.1" id="Layer_1" xmlns="http://www.w3.org/2000/svg" xmlns:xlink="http://www.w3.org/1999/xlink" x="0px" y="0px"
	 viewBox="0 0 75 75" style="enable-background:new 0 0 75 75;" xml:space="preserve">
<style type="text/css">
	.st0{fill:#ffffff;}
</style>
<g id="rss">
	<g>
		<path class="st0" d="M37.5,4C56,4,71,19,71,37.5S56,71,37.5,71S4,56,4,37.5S19,4,37.5,4 M37.5,0C16.8,0,0,16.8,0,37.5
			S16.8,75,37.5,75S75,58.2,75,37.5S58.2,0,37.5,0L37.5,0z"/>
	</g>
	<path class="st0" d="M22.8,20.1v6.3c14.4,0,26.3,11.9,26.3,26.5h6.3C55.3,34.8,40.6,20.1,22.8,20.1z"/>
	<path class="st0" d="M38,52.7h6.3c0-11.8-9.7-21.5-21.5-21.5v6.3c4.1,0,7.9,1.6,10.8,4.4C36.4,44.8,38,48.6,38,52.7z"/>
	<path class="st0" d="M22.7,48.4c0,2.4,1.9,4.3,4.3,4.3c2.4,0,4.3-1.9,4.3-4.3c0-2.4-1.9-4.3-4.3-4.3C24.7,44.1,22.7,46,22.7,48.4z"
		/>
</g>
</svg>
