<?xml version="1.0" encoding="utf-8"?>
<!-- Generator: Adobe Illustrator 22.1.0, SVG Export Plug-In . SVG Version: 6.00 Build 0)  -->
<svg version="1.1" id="Layer_1" xmlns="http://www.w3.org/2000/svg" xmlns:xlink="http://www.w3.org/1999/xlink" x="0px" y="0px"
	 viewBox="0 0 75 75" style="enable-background:new 0 0 75 75;" xml:space="preserve">
<style type="text/css">
	.st0{fill:#7D8C96;}
</style>
<g id="twitter">
	<path class="st0" d="M56.3,27.1c-1.3,0.6-2.7,1-4.2,1.2c1.5-0.9,2.7-2.4,3.2-4.1c-1.4,0.9-3,1.5-4.7,1.8c-1.3-1.5-3.3-2.4-5.4-2.4
		c-4.1,0-7.3,3.4-7.3,7.5c0,0.6,0.1,1.2,0.2,1.7C32,32.5,26.6,29.5,23,24.9c-0.6,1.1-1,2.4-1,3.8c0,2.6,1.3,4.9,3.3,6.2
		c-1.2,0-2.3-0.4-3.3-0.9c0,0,0,0.1,0,0.1c0,3.6,2.5,6.7,5.9,7.3c-0.6,0.2-1.3,0.3-1.9,0.3c-0.5,0-0.9,0-1.4-0.1
		c0.9,3,3.6,5.1,6.9,5.2c-2.5,2-5.7,3.2-9.1,3.2c-0.6,0-1.2,0-1.8-0.1c3.3,2.1,7.1,3.4,11.3,3.4c13.5,0,20.9-11.4,20.9-21.3
		c0-0.3,0-0.6,0-1C54.1,29.9,55.3,28.6,56.3,27.1z"/>
	<path class="st0" d="M37.5,4C56,4,71,19,71,37.5S56,71,37.5,71S4,56,4,37.5S19,4,37.5,4 M37.5,0C16.8,0,0,16.8,0,37.5
		S16.8,75,37.5,75S75,58.2,75,37.5S58.2,0,37.5,0L37.5,0z"/>
</g>
</svg>
