<svg version="1.1" id="Слой_1" xmlns="http://www.w3.org/2000/svg" xmlns:xlink="http://www.w3.org/1999/xlink" x="0" y="0" width="22.7" height="22.7" xml:space="preserve"><style>.st0{clip-path:url(#SVGID_2_);fill:#fff}</style><defs><path id="SVGID_1_" d="M0 0h22.7v22.7H0z"/></defs><clipPath id="SVGID_2_"><use xlink:href="#SVGID_1_" overflow="visible"/></clipPath><path class="st0" d="M11.3 0C5.1 0 0 5.1 0 11.3c0 6.2 5.1 11.3 11.3 11.3 6.2 0 11.3-5.1 11.3-11.3.1-6.2-5-11.3-11.3-11.3M9.2 4.1l.5.1v-.7l.2-.2.2.4.4.5-.2.2-.6.2v-.4l-.5.4-.2-.2.2-.3zm-8.2 7c0-2.2.8-4.2 2-5.9h.1c0 .2-.2.2 0 .6.3.5 0 .7 0 .7s-.7.5-.8.6c-.1.1-.4.5-.2.4.2-.1.4-.2.2.1-.2.3-.5.8-.6 1-.1.2-.5.6-.5.9 0 .2-.2.7-.1.9 0 .1 0 .5-.1.7m4 6.5l-.2.6.2.5s-.2.2-.4.2c-.1 0-.2.1-.4 0-1.5-1.4-2.6-3.2-3-5.3.1 0 .1 0 .2.1.2.2.3.3.5.3.2.1.3.2.5.3.2.1.2 0 .5.4s.3.4.4.5c.1.2.2.4.3.5.1.1.3.2.4.3.1.1.3.2.4.2.1 0 .5.4.7.4.2 0 .2.4.2.4l-.3.6zM6.6 2.5c-.5.6-.4.4-.5.6s-.1.2-.4.4c-.3.2-.4.4-.4.4l-.4.2-.3-.2s-.3.1-.3 0v-.1c1-.9 2.1-1.6 3.3-2.1-.1.1-.2.3-.2.3s-.3 0-.8.5m11.9 14c0 .2-.1.4-.2.6 0 .2-.2.5-.4.5l-.4.4c-.1 0-.2-.3-.2-.4 0-.2.2-.6.2-.6s0-.2.1-.4c0-.2.5-.3.5-.3l.3-.6v.3c.2.1.1.4.1.5m.1-3.6c-.1.1-.3.4-.4.6-.1.2-.3.4-.5.6-.2.2-.2.4-.4.5-.1.2-.3.5-.3.5s.1.8.1.9-.3.6-.3.6l-.3.4-.5.6v.6s-.4.3-.5.4c-.2.2-.2.3-.3.4-.2.2-.6.4-.7.5-.2 0-.8.2-.8.2v-.4l-.2-.4s-.2-.5-.3-.6c-.1-.2-.1-.4-.3-.6-.2-.2-.3-.4-.3-.5v-.5s.2-.4.2-.6c.1-.2 0-.4-.1-.5-.1-.2-.1-.5-.1-.7 0-.1-.3-.3-.4-.4-.2-.1-.2-.2-.2-.4s-.1-.5-.1-.8c0-.3-.3-.1-.6 0-.2.1-.3 0-.3-.3 0-.2-.4 0-.7.1-.3.2-.6.2-.9.3-.3.1-.5-.1-.5-.1s-.2-.2-.4-.3c-.2-.1-.4-.4-.5-.5-.2-.2-.5-.8-.6-1v-.7-.6c0-.2.2-.4.3-.6.1-.3.5-.6.6-.6.1-.1.4-.3.4-.5s.2-.2.2-.4c.1-.1.4-.5.7-.4 0 0 .3 0 .4-.1.1 0 .4-.2.6-.2.2-.1.5-.1.5-.1s.3.1.4.1c.1 0 .5-.1.5-.1s.2.6.2.7c0 .1.1.2.3.3.2.1 1.1.3 1.5 0 .1-.1.4.1.4.1s1 .2 1.1.3c.3.2.5.2.6.3.1.1.4.5.4.6 0 .1.2.5.3.7 0 .2.2.5.3.7.1.2.8 1.1 1 1.4l.7-.1c0 .1-.1.5-.2.6m2.8-1.5c0-.2-.3-.7-.3-.7s-.2-.3-.4-.4c-.2-.1-.3-.3-.5-.4-.3-.2-.4-.2-.6-.2s-.5-.3-.7-.5c-.3-.2-.3-.1-.3-.1s.3.5.3.6c0 .1.4.3.7.2 0 0 .2.4.4.5.1.1 0 .2-.3.4-.2.2-.2.1-.3.2-.1.1-.5.3-.6.4-.1.1-.6.3-.8.1-.1-.1-.1-.3-.2-.5s-.9-1.4-1.3-1.9c-.1-.1-.2-.4-.4-.5-.1-.1.3-.1.3-.1V8v-.5l-.5.5c-.1.1-.2-.2-.4-.4s-.3-.4-.3-.6c0-.2.2-.3.2-.3l.3-.2s.4-.1.7 0c.3 0 .7.1.7.1s.1-.3 0-.4-.5-.3-.7-.3c-.2 0 .1-.2.3-.4l-.4-.1s-.4.2-.5.2c-.1 0-.3.1-.5.3-.2.2.1.5-.1.5-.2.1-.3.1-.4.2h-.5c-.4 0-.1.4 0 .5l-.3-.4-.2-.5s-.3-.2-.5-.3c-.2-.1-.6-.4-.6-.4v.4l.3.5.3.3h-.5v-.2c-.8-.1-.4-.2-.5-.3 0-.1-.3-.3-.3-.3s-.4.1-.6.1c-.1 0-.2.2-.4.2-.2.1-.3.2-.4.3-.1.1-.3.5-.5.6-.1.3-.4.2-.5.2-.1 0-.7-.2-.7-.2v-.6s.1-.4 0-.5h.4l.6-.1.1-.2.2-.3s-.3-.2-.1-.5c.1-.1.4-.2.6-.3l.4-.2s.3-.2.5-.5l.4-.2s.7.6.8.6c.1 0 .5-.3.5-.3s.1-.4.1-.5-.2-.5-.2-.5l-.2.4-.2.4s-.5 0-.6-.2c0-.1-.1-.3-.2-.4 0-.1-.3-.1-.6 0-.2.1 0-.4 0-.4s.2-.3.4-.3.5-.2.7-.2c.2 0 .6-.3.8-.3h1.1l.8.1s.7.3.5.5c0 0 .3.2.4.3.1.1.4-.1.6-.2 2.9 1.8 4.9 5.1 4.9 8.8v.6c0-.4-.1-.6-.2-.7M9.4 4.2z"/></svg>