<?xml version="1.0" encoding="utf-8"?>
<!-- Generator: Adobe Illustrator 23.0.2, SVG Export Plug-In . SVG Version: 6.00 Build 0)  -->
<svg version="1.1" id="Layer_1" xmlns="http://www.w3.org/2000/svg" xmlns:xlink="http://www.w3.org/1999/xlink" x="0px" y="0px"
	 viewBox="0 0 577.02 184.6" style="enable-background:new 0 0 577.02 184.6;" xml:space="preserve">
<style type="text/css">
	.st0{fill-rule:evenodd;clip-rule:evenodd;fill:#DB1F26;}
	.st1{fill-rule:evenodd;clip-rule:evenodd;fill:#FECF0A;}
</style>
<g>
	<g>
		<path d="M156.93,1.23c6.41,0,11.45,3.13,11.45,11.55v15.63c0,8.43-5.03,11.55-11.45,11.55h-9.38c-1.22,0-2.01-0.74-2.01-1.54V2.76
			c0-0.79,0.79-1.54,2.01-1.54H156.93z M149.99,5.25v30.68h6.94c4.35,0,7-2.38,7-7.53V12.78c0-5.14-2.65-7.53-7-7.53H149.99z"/>
		<path d="M209.93,18.71h8.27c0.95,0,1.54,0.9,1.54,1.91c0,0.85-0.48,1.8-1.54,1.8h-8.27v13.51h16.43c0.95,0,1.54,0.95,1.54,2.07
			c0,0.95-0.48,1.96-1.54,1.96H207.5c-1.01,0-2.01-0.53-2.01-1.59V2.82c0-1.06,1.01-1.59,2.01-1.59h18.87
			c1.06,0,1.54,1.01,1.54,1.96c0,1.11-0.58,2.07-1.54,2.07h-16.43V18.71z"/>
		<path d="M281.22,2.76c0-1.06,1.06-1.54,2.23-1.54c1.06,0,2.23,0.48,2.23,1.54v25.97c0,8.43-5.09,11.55-11.61,11.55
			s-11.55-3.13-11.55-11.55V2.76c0-1.06,1.11-1.54,2.23-1.54c1.11,0,2.23,0.48,2.23,1.54v25.97c0,5.14,2.65,7.53,7.1,7.53
			s7.15-2.38,7.15-7.53V2.76z"/>
		<path d="M343.07,1.23c1.06,0,1.59,1.01,1.59,2.01c0,1.06-0.53,2.12-1.59,2.12h-8.53v33.01c0,1.06-1.11,1.59-2.23,1.59
			c-1.11,0-2.23-0.53-2.23-1.59V5.36h-8.58c-1.01,0-1.59-1.01-1.59-2.12c0-0.95,0.53-2.01,1.59-2.01H343.07z"/>
		<path d="M395.17,29.68c0-10.65-17.43-5.83-17.43-18.71c0-7.79,6.41-9.86,11.66-9.86c3.76,0,9.27,1.11,9.27,3.5
			c0,0.85-0.69,2.44-1.91,2.44s-2.76-2.01-7.37-2.01c-3.92,0-7.21,1.43-7.21,5.51c0,8.96,17.43,4.29,17.43,18.71
			c0,7.58-4.88,11.13-11.61,11.13c-6.84,0-11.23-3.71-11.23-5.99c0-1.06,0.95-2.44,1.96-2.44c1.59,0,2.81,4.29,9.06,4.29
			C392.25,36.26,395.17,34.08,395.17,29.68z"/>
		<path d="M446.47,5.25c-4.56,0-7.05,2.38-7.05,7.53v15.95c0,5.14,2.49,7.53,7.21,7.53c5.88,0,6.41-3.82,6.73-6.31
			c0.11-1.06,0.9-1.54,2.23-1.54c1.48,0,2.23,0.48,2.23,2.49c0,5.25-4.4,9.38-11.5,9.38c-6.2,0-11.34-3.13-11.34-11.55V12.78
			c0-8.43,5.19-11.55,11.39-11.55c7.1,0,11.45,4.03,11.45,9.22c0,2.01-0.74,2.44-2.23,2.44c-1.43,0-2.17-0.58-2.23-1.54
			C453.25,9.23,452.41,5.25,446.47,5.25z"/>
		<path d="M512.24,21.73h-14.36v16.64c0,1.06-1.11,1.59-2.23,1.59s-2.23-0.53-2.23-1.59V2.76c0-1.06,1.11-1.54,2.23-1.54
			s2.23,0.48,2.23,1.54v15.26h14.36V2.76c0-1.06,1.11-1.54,2.23-1.54c1.11,0,2.23,0.48,2.23,1.54v35.61c0,1.06-1.11,1.59-2.23,1.59
			c-1.11,0-2.23-0.53-2.23-1.59V21.73z"/>
		<path d="M558.62,18.71h8.27c0.95,0,1.54,0.9,1.54,1.91c0,0.85-0.48,1.8-1.54,1.8h-8.27v13.51h16.43c0.95,0,1.54,0.95,1.54,2.07
			c0,0.95-0.48,1.96-1.54,1.96h-18.87c-1.01,0-2.01-0.53-2.01-1.59V2.82c0-1.06,1.01-1.59,2.01-1.59h18.87
			c1.06,0,1.54,1.01,1.54,1.96c0,1.11-0.58,2.07-1.54,2.07h-16.43V18.71z"/>
	</g>
	<path class="st0" d="M122.54,30.24l0,31.81h31.81c8.32,0,15.88,3.4,21.36,8.88c4.5,4.5,7.59,10.4,8.56,16.97
		c-4.74-0.76-8.98,1.66-12.28,5.19c0.01-0.27,0.02-0.53,0.02-0.8c0-4.85-1.99-9.27-5.19-12.47c-3.2-3.2-7.62-5.19-12.47-5.19
		c-8.72,0-17.43-0.08-26.11-0.14c-17.83-0.14-18.29,2.39-18.29-14.2V30.24c0-4.85-1.99-9.27-5.19-12.47
		c-3.2-3.2-7.62-5.19-12.47-5.19c-4.85,0-9.27,1.99-12.47,5.19c-3.2,3.2-5.19,7.62-5.19,12.47l0,31.09
		c0,10.52-1.89,13.31-12.15,13.31H30.24c-4.85,0-9.27,1.99-12.47,5.19c-3.2,3.2-5.19,7.62-5.19,12.47c0,4.85,1.99,9.27,5.19,12.47
		c3.2,3.2,7.62,5.19,12.47,5.19h32.67c8.13,0,11.58,4.3,11.73,12.32l0,32.08c0,4.85,1.99,9.26,5.19,12.47
		c3.2,3.2,7.62,5.19,12.47,5.19c6.07,0,8.44-1.9,8.29-5.76c2.22,4.83,4.92,9.54,7.93,14.11c-4.97,2.67-10.43,4.23-16.22,4.23
		c-8.32,0-15.88-3.4-21.36-8.88c-5.48-5.48-8.88-13.04-8.88-21.36v-31.82H30.24c-8.32,0-15.89-3.4-21.37-8.88
		C3.4,108.18,0,100.62,0,92.3c0-8.32,3.4-15.89,8.88-21.36c5.48-5.48,13.04-8.88,21.36-8.88h31.82V30.24
		c0-8.32,3.4-15.89,8.88-21.36C76.42,3.4,83.98,0,92.3,0c8.32,0,15.88,3.4,21.36,8.88C119.14,14.35,122.54,21.92,122.54,30.24z"/>
	<path class="st1" d="M126.29,88.34c-13.56,18.83-45.14,41.65-13.13,89.74c1.89-19.16,15.78-31.29,30.85-41.49
		c13.3-9,39.04-16.63,40.57-43.33c-2.77-0.95-5.75-0.08-9.04,3.57c-3.25,13.64-19.94,26.49-46.21,26.49
		c-5.24-0.74-15.74-6.49-0.65-22.19C130.51,96.87,130.41,92.6,126.29,88.34z"/>
	<g>
		<path d="M244.47,108.82c-1.09,1.99-2.78,2.59-4.38,2.59c-1.59,0-3.18-0.6-4.28-2.59l-11.44-21.48v43.56
			c0,2.69-3.28,4.08-6.46,4.08c-3.28,0-6.46-1.39-6.46-4.08V68.74c0-4.77,3.18-6.46,6.46-6.46c4.67,0,6.76,0.99,10.04,6.86
			l12.23,22.28l12.23-22.28c3.28-5.87,5.47-6.86,10.14-6.86c3.28,0,6.46,1.69,6.46,6.46v62.16c0,2.69-3.28,4.08-6.46,4.08
			c-3.28,0-6.46-1.39-6.46-4.08V88.14L244.47,108.82z"/>
		<path d="M299.86,93.51h15.12c2.59,0,4.08,2.49,4.08,5.17c0,2.29-1.29,4.97-4.08,4.97h-15.12v19.99h28.14
			c2.59,0,4.08,2.68,4.08,5.77c0,2.68-1.29,5.57-4.08,5.57h-35.4c-2.88,0-5.67-1.39-5.67-4.08V66.36c0-2.69,2.78-4.08,5.67-4.08
			h35.4c2.78,0,4.08,2.88,4.08,5.57c0,3.08-1.49,5.77-4.08,5.77h-28.14V93.51z"/>
		<path d="M368.88,62.28c13.13,0,23.37,6.17,23.37,22.77v27.15c0,16.61-10.24,22.77-23.37,22.77h-17.6c-3.38,0-5.67-1.89-5.67-3.98
			V66.26c0-2.09,2.29-3.98,5.67-3.98H368.88z M358.54,73.62v50.02h10.34c6.56,0,10.44-3.68,10.44-11.44V85.05
			c0-7.76-3.88-11.44-10.44-11.44H358.54z"/>
		<path d="M409.25,66.26c0-2.78,3.18-3.98,6.46-3.98c3.18,0,6.46,1.19,6.46,3.98v64.64c0,2.69-3.28,4.08-6.46,4.08
			c-3.28,0-6.46-1.39-6.46-4.08V66.26z"/>
		<path d="M452.02,123.64h28.64c2.59,0,4.08,2.98,4.08,5.67c0,2.68-1.49,5.67-4.08,5.67h-41.27c-2.68,0-3.88-1.49-3.88-3.58
			c0-1.29,0.5-2.98,1.39-4.47l29.54-53.31h-25.16c-2.59,0-3.98-2.69-3.98-5.67c0-2.78,1.19-5.67,3.98-5.67h37.79
			c2.59,0,3.88,1.49,3.88,3.48c0,1.39-0.5,2.98-1.49,4.67L452.02,123.64z"/>
		<path d="M497.96,66.26c0-2.78,3.18-3.98,6.46-3.98c3.18,0,6.46,1.19,6.46,3.98v64.64c0,2.69-3.28,4.08-6.46,4.08
			c-3.28,0-6.46-1.39-6.46-4.08V66.26z"/>
		<path d="M563.1,130.9l-21.38-39.98v39.98c0,2.69-3.28,4.08-6.46,4.08c-3.28,0-6.46-1.39-6.46-4.08V66.36
			c0-2.78,3.18-4.08,6.46-4.08c4.67,0,6.56,0.99,9.65,6.86l19.19,37.1V66.26c0-2.78,3.18-3.98,6.46-3.98c3.18,0,6.46,1.19,6.46,3.98
			v64.64c0,2.69-3.28,4.08-6.46,4.08C567.48,134.98,564.79,133.98,563.1,130.9z"/>
	</g>
</g>
</svg>
