<svg xmlns="http://www.w3.org/2000/svg" viewBox="0 0 341.4 127.8"><style>.st0{fill:url(#SVGID_1_)}.st1{fill:url(#SVGID_2_)}.st2{fill:none;stroke:#008abf;stroke-width:.4;stroke-linecap:round;stroke-miterlimit:3.8637}.st3,.st4{fill-rule:evenodd;clip-rule:evenodd}.st4{fill:#fff}</style><g id="Ebene_1"><radialGradient id="SVGID_1_" cx="86.571" cy="79.346" r="56.42" gradientTransform="matrix(1.0234 0 0 1.0172 -3.95 -6.538)" gradientUnits="userSpaceOnUse"><stop offset="0" stop-color="#fff"/><stop offset=".084" stop-color="#ecf7fe"/><stop offset=".517" stop-color="#6fb2dd"/><stop offset=".786" stop-color="#007fb8"/><stop offset=".933" stop-color="#00538c"/><stop offset="1" stop-color="#6fb2dd"/></radialGradient><path class="st0" d="M58 88c0-21.8 17.8-39.4 39.7-39.4 21.9 0 39.7 17.7 39.7 39.4 0 21.8-17.8 39.4-39.7 39.4C75.8 127.5 58 109.8 58 88z"/><radialGradient id="SVGID_2_" cx="85.571" cy="72.455" r="68.206" gradientUnits="userSpaceOnUse"><stop offset=".006" stop-color="#2ea860"/><stop offset=".86" stop-color="#002f1b"/><stop offset="1" stop-color="#445947"/></radialGradient><path class="st1" d="M88.4 60.8l.4-.3.5-.1.2-.1.3.1h.2l.5.3-.2.1h-.7l-.8.5-.5.1-.1-.2.2-.4zm1.5-6.6l-.6.2-.1.3c.5 0 1 .6 1.2 1l.4-.1c.2-.3.6-.5.9-.7l.1-.3c0-.1 0-.1-.1-.2h-.2s-.1 0-.1.1l-.4-.1-1.1-.2zm.2 5.4l-.4.1-.6.2h.2l.4-.1.3.2.3.2.2-.3.2-.3-.3-.2-.3.2zm-.1-.4l.3.3.4-.3-.3-.4c-.2.1-.7.3-.9.1l.2-.3-.7.2c-.1.3-.6.5-.8.5.2.2.5.4.8.4.3-.1.7-.3 1-.5zm2.5 2.4c.1-.2.1-.5 0-.7l-.3-.3.2-.7.6-.2.2-.9c-.1 0-.2 0-.3.1v.1h-.1c-.1 0-.1.1-.2.1 0 .2-.2.5-.3.6l-.5.1c-.7.5-.1 1.5.2 2l.5-.2zm.4-2.9l.2-.1-.2-.1c-.1 0-.1-.1-.2-.1 0 0 0-.1-.1-.1s-.1.1-.2.1h-.1l-.1-.2-.3.2h-.1l-.2.1-.2.3.5.1h-.1c.2-.3.4-.4.7-.6H92.8l-.2.1-.1.3-.5.1c.3.1.6.1.9.1 0 0 .1 0 .1-.1l-.1-.1zm11.2 4.8c-.1-.1-.4 0-.5.1l-.3-1.3-.1-.2c-.4.2-1-.1-1.4-.1v.2l-.3.2-.1.1s-.1 0-.1-.1c-1-.6-1.1-.2-1.7 0-.2.1-.5.1-.8.2l-.1.3c-.8.7-1.1 0-1.7.3l-.2.3.1.2-.6.2.1.2-.3.5.3.1c.1.2.3.4.4.5.2.3.1.7 0 1.1-.4.9-1.3 1.8-1.3 2.4l.5.1-.4.2-.7.1-.2.9.5.3c-.6.9-1.1.8-1.6 1.4-.4.5-.7 1.3-1.2 3.1-.2.8-.2 1.3-.1 1.7.1.4.2.8.3 1.6l.5.3.4-.1c.1-.2.6-1 1.2-1.8.7-.9 1.4-1.9 1.6-2.1.5-.1.9 0 1.4.1.5-.2.9-1.1 1.6-1.4l.3.2c.6.1 1.7-.8 2.2-1.1-.2-.1-.4-.3-.4-.6 0-.1-.1-.2-.1-.2l.3-.5.1.4.3.2.3-.5c-.1-.6.1-1.3.3-1.9l.5-.4.3-1.2-.2-.6.6-.4c-.2-.2-.3-.4-.3-.7-.1-.8.6-1.6 1.1-2.2l-.5-.1zm-4.6 14.2l.5-.1.6-.4.4-.6.1-.1-.4-.8-.2.1h-.7l-.3-.2H99l.1.6-.1.3v.9l.5.3zm-1.3 11.2l1.1-.3.5-.8v-.7l.5-.6-.6-.7-.5-.1-.5.4-.7.6.1.5.1.4-.7.9.7.4zm-8.4-31.1v-.2c-.1-.1-.3-.1-.4-.1.2 0 .5-.1.7-.2-.1 0-.3-.1-.3-.2.1-.2.4-.5.7-.6-.3 0-.7-.3-.8-.5-.2-.1-.5-.1-.7 0l-.2.3.1-.3h-.5c-.2.1-.3.4-.3.6l-.4.3.2-.7h-.2c-.4.3-.8.6-1.4.6.3.5-.2.6.2 1.3-.1.1-.1.2-.2.3-.1.2-.2.3-.2.5.2.4.7.3 1 .2.1-.3.3-.5.5-.8.8 0 1.5-.3 2.2-.5zm11.5-9l-1 .1 1.2.3 1.6.6 1.7.4 1.4.1 1.5.5 1.1.6 1.7 1v.2l1.7 1.1 1.5.5.4.3.7.6-.3.6 1 1 .9 1.5-.8-.2-.6-.5-.5.1v.7l.1.1.8 1 .9 1.5 1.3 1.3.5 1 .6-.2.6.5-.4.1.1.9-.3-.1-.3-.1 1.5 1.3.3.2.5.1 1 1.2-.5-.6-.3-.2-.3-.1-.3-.3-.3.1-.5-.3-2.1-1 .1.2.3.4.3.2.6.4 1.7 1.2-.1.3-1.7.3-.2.3.9.9-.9 1.6-.2 1.1-.1.6-.3-.6-.1-.2h-.9l.1.2.4.8.3.3.1.6-.4.8.2.8-.8.4.7.7-1-.2h-.2l-.4-.6-1.1-.8h.9l.9-.1.4-.8-.9-.9-.5-.1-.8-.4h-.9l-.6.2h-.2l-.4-.4-.3-.3h-.9l-.3.3-.3.3-.7.6-.2.9-.6 1-.4 1.2-.2.9v.2l-.2 1-.5.8-.9.9-.2.3-.8 1.1v1.3l.1 1.1.8.5.8-.5.8-.4.5 1 .5 1 .4 1.4h.7l.2-.7.7-.6.1-.3-.1-.6.1-1.1.2-.3.3-.5-.4-.6-.5-1.9.4-1 .4-1 .1-.9v-.3h.9v.3l.1.8-.6 1-.1 1.1v.2l.7 1.4 1 .3.9-.1.6-.4.1.3-.4.1-.5.1-.2.2h.1-.1l-.2.1-.4.3.1.6.5.3v-.2l.1.6.2.6-.4.3-.6-.7-.3.5-.1.5.2.8.2.8-.5.4-.1.3-.4.3-.3-.4-1.1.8-.6.4-.9-.4h-.1l-.6.5-.4-.5-.1-.1v-1.6l-.1-1.1-.3-.1-.7.9.1 1.3.3.8.1.4-.8.4h-.9l-.7.9-.4 1-.7.6-.7.6-.8.5-.9.1-.3.3-.2.3-1-.2-.7.6.6.5.3.1.8 1.3-.1 1.2-.3 1.1v.1l-.9.1-.9-.2h-.1l-.3-.1-1.2-.1-1-.2-.5.4-.4-.7.1.9-.2 1-.6 1.1.2.8v.9l.8.2.5.5.3.4h.7l.5-.1h1.4l.4-.3.4-.2.7-.6.4-1 .7-.9 1-.7.7-.7.1-.5.8-.4 1.3-.1.8-.4.6-.4.2-.2.2.2.7.4.4.6.4.6 1.1.6.8.5.8.2.3.8-.2 1 .7-.9-.2-.8.8-.4.4-.3-1-.4-.5-.3.1-.3-.3-.3-.5.1-.8-.5-.6-.7-.1-.1-.4-.7-.1-.4.7-.6.3.2.2.4.6.5.8.5.1.1.5.3.8.5.6.5.1.9.6.5.7.9.1.4.3 1h.7l-.1-.6.2-.9.5-.6-.7-.2-.1-.4-.2-.8.6-.4.8-.4h1.9l.1-.3.1-.2-.6-.7.2-1-.1-1.3.5-1.3.1-.3.1-.2.4-.1.9-.1-.2.5-.1.3.5.3.4.3.5-.9.1-.2v-.2l-.4-.6.5-.8.5-.8.3.2v.6l-.2.9.4.5 1 .4h.7v.1l.3.6.1.4-.4.8-.7.6-.4.1h-.9l-.8.2-.8.5-.8 1.1-.8.5v.1l-.5.9-.8.2-.2.9.2.8.5.3.5.8h.7l.9-.7 1-.3.8-.2.7-.7h.2l.1.2.1.9-.1.5v1.6l-.2.6-.2.4c-.3.1-.5.4-.7.6l-.7-.2c-1 1.8-3 1.1-3.6 1.7-1.2-.6-4.1-.2-3.6 1.9l-.5.4-1.1-.6-.6.2c-.5 0-1.1-.3-1.2-.8-.7-.2-2 0-2.4-.2l-.3-.4-.5.1c0-.6.5-.9.5-1.5l-.2-.6.2-.7-.4.1-.5-.3c-.3.1-.7.2-1 .3-.4-.2-1.5 0-2 .1-1-.4-4.5.6-5.4 1.3l-.3-.1-.1-.2c-.7 0-1.3-.1-1.9-.3l-.3-.4c-.4.1-1 1.1-1.2 1.5-.9-.1-1.8.4-2.4 1.1 0 .4-.3.8-.5 1.3v.2c-.3.6-1.5.7-2.2.9l-.3-.1c-.5.1-4.1 2.8-4.7 3.7-.1.1-.1.2-.1.2.2.2.4.4.6.7-.2.3-.4.6-.4 1l.3.4c-.1.3-.8.9-.8 1.1-.2.2-.5.3-.8.4 0 .3.2.6.3.8-.4 1 .6 1.6 1.3 1.9l.1.4c.4.2.5.7.9.9-.2.2.2.4.1.6l.3.4c.8 0 2.3 2.3 4.5 2.3 1.4 0 2.6.3 4 .4 2.2.1 3.7-.8 5.9-.2l.3.4c.5.2 1.9 0 2.4-.2l.3.2.4-.1c.6.5-1.7 1.8-1.1 1.9l.3.1.1.2 1.2.3-.2.3.4-.1v.1c9.9-2.2 18.5-8 24.1-16 .1-.3.2-.5.3-.6.2-.3.3-.7.5-1 .2-.2.1-.4.3-.6.1-.1.1-.2.1-.3l.1-.2.1-.2-.1.1-.2.2-.3.5-.5.6c-.4.4-.6.8-1 1.2l-.7.9c-.2.3-.3 0-.4-.1.7-.8-1.1-.4-1.2-.5-.6-.5 0-.7-.9-.9l-.1-.2c.3-.7-.1-1.3-.7-1.4-.1-.2-.2-.4-.3-.5-.1-.1-.1-.3-.1-.5h-.2c-.3-.5-.6-1.2-1.1-1.5l-.2-.8c.3.2.4.5.7.7l.2-.1.3-1.2.3 1 .7.7.4.6.5.1.4.5-.1.5.3.2v.2l.5.1.4.5v.2l.4.5.1.6v.7-.2l.9-.7.5-.8.2-.3.7-1 .1-.1.6-1.1.6-.9.4-1.2.2-.3.6-1.1.3-.8.3-1.2.1-.3.3-1.2.3-1.2-.1-.2-.4.3-.3-.1-.2-.8-.3 1.2-.3 1.2-.5.8-.3-.1-.1-.2-.2.3-.3-.4h-.2l-.4-.5-.1-.2v-.3l.6-.7h.3l.5.3.6-.4.5-.8.4-.4.4-.1.3-.6.5-.6v-.2l.4-1.2.1-.5.4-1 .1.2v-.4l.1.2.1.2.2-.3-.1-.4v-.2l.1-.5.1.1c.1-1.1.2-2.2.2-3.3-.1-20.8-16.1-38-36.1-39.8zm-23.1 73.5v-.2c0-.2-.4-.7-.5-.8v-.2c-1.6-1 .2-1.7.5-2.9-.6-1-3.5-3.1-3.5-3.2-1.6-.7-3.1-1.6-4.5-2.8-.4-.3-.8-.7-1.2-1.1-.1.1-.4.2-.6.2l.1-.5-.3-.2c-.3-.2-.7-.4-.9-.6-.1-.1-.1-.4.1-.3l.1-.3c-.2-.3-.6-1-1.1-1.9-.8-1.5-1.9-3.4-2.7-3.3-.2-.2-.3-.5-.4-.8l-.3-.4v-.4c-.1-.2-.2-.3-.3-.5-.4-.7-1.8-3.5-2.7-5.2-.4-.7-.7-1.2-.7-1.3v.4c-.1-.7-.4-2.5-.6-3.8-.1-.6-.2-1.1-.2-1.3.7-1 .5-2.3.3-3.5-.1-.3-.1-.5-.1-.8.1-.2.6-1 .8-1.1 0-.4.4-.6.4-1l-.3-.4c.2-.6 0-1.2-.1-1.8-.2.2-.4.1-.5.1.1-.2.1-.4.2-.7.2-1 .2-2.3.6-3.2.2-.7.5-1.1.8-1.6.1-.2.3-.4.4-.7.1-.1.1-.4.1-.5l.5-.4c.2-.1.3.3.4.5-.1.3-.1.7-.1 1.2 0 .7 0 1.5.1 2l.2-.1c.1.1.2 1.8.2 2 .2.2.4.6.5.9-.1 1-.9 2.5-1.2 3.6l.3.4c1-1 .8-2.9 1.8-3.9l.4-.1c.6.5 1.5.3 2.1.9.3 0 .7-.3.8-.5 0-.1 0-.3.1-.4.1-.3.3-.6.4-1 .2-.2.4-.4.6-.5-.3.3-.4.8-.5 1.2-.1.1-.3.2-.4.2 0 0 .7-.3.8-.4 0-.3.2-.7.4-1l-.1.5.3.3c1.1-.7.6-.6 1.4.1l.1-.3.1.4c.2.2.6.5.8.2.2-.2 0-.1-.1-.1.8-1 .3-.5 1.4-.7.3.1 1.4.6 1.4.9.1 0 .2.1.2.2h1.2v-.6c.3-.3.7-.9.6-1.3l.7.2.2-.7-.4-.6-2.8-.8c.6-.3 1.4-.4 2.1-.4l.1.2 1.1.1c.7.7 1.2 1.6 2.2 2 .4-.1.8-.1 1.3-.1l.6.5c.4-.3.9-.7 1.2-1.2l-.2-.6.3-.6-.3-1.2s0-.1-.1-.1c0-1.2 1.3-2.5 1.4-3.8l.5-.4c-.7-.1-1.3.6-2.1.4-.1-.2-.1-.5 0-.8 0-.2.1-.4.2-.6l1.5-1.3c-.2-.4.1-1.1.3-1.4l-.5-.8v-.7c-1.2.1-2.2 1.5-3.5 1.9l-.2.7c-.7.9-1.9.8-2.8.8-.3.4-.8 1.1-1.3 1.4-.1.1-.3.1-.4.1V72l-.2-.4c.8-.7.8-1.5 1.9-2.1l.3-.6-.4-.9c.2-.7.4-1.3.5-2 .1-.5.1-.9.1-1.5.5-.2.9-.6 1.3-1l.1-.3c.6-.4 3-.7 3.7-.4l.2-.1.5.3v.2l.6.3c.6-.2 1.1-.4 1.7-.5v.7l.7.2c.5-.2.9-.4 1.4-.6l.3-.5-.1-.4c-.4.1-.9.2-1.3.2l-.5-.3c.2-.1.4-.1.5-.2.3-.1.5-.3.7-.6l-.3-.2c.7-.5 1.5-.9 2.1-1.5-.5-.1-1 0-1.5.2l-.5.6c-.3.2-1.2.1-1.6 0l.8-.4.3.1.6-.4c-.1-.2-.4-.3-.6-.3l-.6.2-.3-.3c0-.5.4-.9.5-1.3V58l-.5-.3.5-.4c.1-.2.1-.5 0-.7l.4-.3.5-.1c.2-.5.8-1 1.3-1.1l.1-.3.4-.3-.2-.2-.1-.1.8-.2v-.2l.4-.3c-.3-.7.3-.9.3-1.2 1.9-.5 3.4-1.4 5.3-1.5l.1-.3c.2-.1 1-.7.9-1-1 .1-1.2-.3-1.2-.3l.2-.3-.4.1-.6.3c-.1-.2-.3-.3-.5-.3v-.2C73.8 50.9 58 67.7 58 88c0 14.6 8.2 27.4 20.2 34.3zm10.7-60.2l-.5-.1c.1-.4-.5-.2-.5.1v.2c.1.3.2.5.3.8l.3.2c0 .2.1.4.2.6-.2.3-.5.5-.9.7l.3.4-.1.5c-.4 0-.7.4-1 .6h-.1l-.5.1-.3.5-1-.2.2-.3.1-.1-.5-.1h-.5l-.2.1c.8.4.7 1.6.2 2.2.1.7.2 1.4.2 2 .3-.3.4-.8.4-1.2l.3.1.1.4.6.3c.4-.3.4-1 .3-1.4.3-.1.7-.8.9-1l.3.2c-.1.5-.3 1.1-.2 1.6.4-.3 1-.4 1.4-.8-.1-.7.3-1.5.1-2.1.4 0 .7-.3.9-.6.1-.1.1-.2.1-.3-.1-.5.2-1 0-1.4.4-.7.8-1 1.2-1.5.1-.1 0-.4 0-.6v-.4c-.1-.6-1.6 0-2.1.5zm-6.3 2.6c0 .2-.1.5-.3.6l1 .2-.3.5.1.4c.2-.1.3-.3.4-.4.5-.6.6-1.3 1-2-.6.3-1.3.6-1.9.7zm11-7.2l-.4.1-.2.3c.4 0 1.2-.2 1.4-.6-.1-.6-.6-.1-.8.2zm7.4 33.1l1 .1 1.1-.1.5-.4.5-.6-.1-.9-.7-.9-.3-.6-.2-.4-.3-1.1-.4-.6.6-.9-1-.4.4-.8-.5-.1h-.2l-.5.8-.2 1 .1 1.1.3 1 .4.7.1.1-.5.4-.4 1v.7l-.1.3-.9.7.3.2 1-.3zm-7.7-35.5c-.2 0-.4.1-.6.2l.5.3v.2c.1.2.4.3.6.3l.1-.5c-.2 0-.6-.2-.6-.5zm14.9 9.5l-.3-.1-.5.1v.7h.9l-.1-.7zm-.9 1.4l.4.5.5.8.5.3v-.7l.1-.5-.2-.4-.2-.4-.7-.2-.6.2.2.4zm11.6 36.5h.1l.7-.2-.5-.3-.4.1-.8.2.9.2zm-7.2-43.6l-.1.3.6.3.7.2.3-.5-.6-.3h-.9zm-.9-5.2l-.2.3.4.5.3.1.3.1v-.1l.1-.3-.5-.1-.4-.5zM115 66l.2.4.1.2.1.4.5.8.3.2.8.4.6-.2-.5-.3-.7-.7-.7-.9-.1-.3-.2-.7-.2-.8-.1-.4-.4-.8-.4.3v.7l.3 1 .4.7zm-3.2 36.7l.2-.1.5-.4-.4-.6-.6.2-.3-.1-.3.6.6.3.3.1zm1.7-44.3l-.6.2h-.2l.3.2.8.2-.3-.6zM81 80.7l-.1-.2c-.2 0-1.1.5-1.9.9h1c.4-.1.8-.3 1-.7zM72.9 82l.4.5.5-.1c.4.4 1 .4 1.5.6 0-.4-.2-.9-.5-1.2v-.3h-1.2c.1.1.3.3.3.5-.1-.2-.7-.1-1 0zm21.2-22.4c.7.1 1.8-.5 2.2-1.1-.4.1-2.9-.3-2.2 1.1zm14.4 38.1l-.4.3-.1.3.4.5.1-1.1zm-12-38l-.5.2-.3-.3-.2.4c-.3.1-.7.1-1.1-.1l-.2.3-.5.1.4-.3c-.3.1-.7.1-1.1-.1-.1.2-.1.5 0 .7l.3.2-.1.3.3.2c.3-.1.7-.2 1-.3.8.4 3.4-.4 4.4.1l.2-.1c.4-.8-.6-1.2-.8-1.8-.6 0-1.9-.8-1.8.5zM79.8 82.2l.2-.8h-1c-.6.3-1.1.6-1.3.7-.1 1.1.8 1 1 1.7l-.2.7h.5c.1.3.1.6.1.9.3 0 .7-.3.8-.5 0-.2 0-.6-.2-.8l.5-.4-.1-.4.2-.3c.1-.3-.2-.7-.5-.8zm28.2 19.1l.6-.4.1-1.1-.4-.6-.2.3-.2.7.1 1.1zm-46.6-9.9l.3.1-.1-.2c0-.3-.3-2.5-.6-4.1-.2-.9-.3-1.6-.3-1.6.2-.3-.5-.7-.5-.8 0 .4.1.8.3 1.1-.1.2-.1.9 0 1.4 0 .2.1.4.2.4 0 .3.3.8.2 1.1l.2.6-.3.6c.1.1.6 1.3.6 1.4zm.5 3.2c.2 0 .4.2.5.3l.1.4c.3.1.5.6.5.8l.1-.3c-.4-.9-.5-2.6-1.2-3.4-.1.2-.2.6 0 .9h-.2c-.1-.3-.2-.6-.4-.8l-.1.5c.4.2.6 1.2.7 1.6z"/><path class="st2" d="M92 58.2c1-4.5 7.5-6.9 14.3-5.3 6.9 1.6 11.5 6.8 10.4 11-1.1 4.5-7.4 6.9-14.2 5.3-6.9-1.5-11.6-6.5-10.5-11zm-12 2.5c2-8.7 13.4-13.2 26.9-10.4 12.1 2.5 21.5 12.2 19.4 20.9-2 8.7-13.9 13.7-26.8 10.7-13-3-21.6-12.5-19.5-21.2zm55.2 40.7c-6.2 13.1-25.1 20.4-44.1 15.8-21.4-5.1-35-21.6-32-37.4m61.8 40.3c-8.2 4.6-19.5 6.2-31.1 3.6-15.6-3.5-26.5-14-30-24.9m77.4-15.7c-.1 2.1-.3 4.8-.5 5.6-3.6 15-22.6 23.5-42.9 18.9-20.4-4.6-34-21.3-30.6-35.9.5-2.3 1.3-4.9 2.6-6.9m64.5.8c2.6 4.5 3.9 10.1 2.8 14.6-2.9 12.1-19.3 18.7-36.8 14.8-17.4-3.9-28.8-16.9-26.2-29.5.7-3.5 3.5-7.3 6.3-9.9.8-.7 1.6-1.5 2.5-2.2m25.9 9.1c0 17.6-2.3 54.1-8.6 65m9.8-65c4.2 12 11.6 50.4 2.1 63.7m-.9-63.8c7.6 10.8 22.3 45 11.2 59.4M108.1 62c12.7 11.6 27.3 37 20.3 51.1m-18.9-53.3c9.5 1.8 20 5.9 26 16.3M109 61.5c14.2 8.1 29.5 27.3 25.5 41.6m-25.1-42.4c11.1 4.3 24.8 12 28 28.2M109 58.8c6.9-.3 15.7 1.5 22.1 7.9m-23-8.7c4.7-1.2 12-1.3 17.1 1.9m-18-2.6c3.4-2.2 8.3-3.3 11.9-2.3m-12.9 1.8c1.8-2.8 4.7-4.6 7.1-4.9m-8.1 4.6c.8-2.5.8-5.5.2-7.1m-1.3 6.9c-.6-3.2-2.7-6.5-5.3-7.7m4 7.6c-2.6-3.4-6-6.6-11.2-7.1m8.6 8c-6-2.8-16.2-5-26.1-.5m25.5 1.3c-8.6-1.9-24.5-3-34.4 7.8m34.3-6.8c-14.3-.3-34.4 4.1-40 19.3m40.4-18.4c-18.6 3.3-41.2 15-41.6 31.5m42.2-30.7c-14.6 5.6-39.9 21.6-39.8 41.2m40.7-40.6C86.6 71.3 63.2 96.7 67 112.7m35.4-50.9c-10.2 12.9-29 44.1-27.1 58.6m28.2-58.2c-4.5 12.7-16.7 48.9-18.1 63.1m16.1-68.9c-4.5-3.6-12-6.4-18.6-4.8"/><path class="st3" d="M0 126.5h39.5v-7.9H27.9V82h14.9v10.2h7.9V65.4h-7.9v9.4H27.9V45.6h29.7v9.7h7.9V36.1H0V44h9.7v74.6H0zM291.4 126.5h6l2-4.4c6.1 4.3 11.7 5.3 17.4 5.3 16.1 0 24.5-9.3 24.5-24.1 0-25.6-40-22.2-40-38.3 0-4.9 4.8-9.5 12.3-9.5 8 .1 16.8 6.1 16.8 15.5h6.6V51h-5.9l-.5 4.4c-3.6-3.4-11.8-5.3-18.2-5.3-10.8 0-21.9 6.1-21.9 21.6 0 27.6 38.2 20.8 38.2 39.3 0 7.6-6.8 11.1-12.8 11.1-10.6 0-18-8.4-18-16.1h-6.6v20.5zM209.3 51.1h-6l-1.8 6.7c-5.9-5.9-13.7-7.5-21.4-7.5-22.6 0-36.8 18.5-36.8 38.7 0 20.2 13 38.7 39.1 38.7 8 0 17.8-1.2 29.3-13.3v-.9l-4.1-4.3h-.9c-5.6 7.8-12.8 12.5-21.2 12.5-15.1 0-24.9-14-24.9-31.8 0-15.4 4.9-32.9 21.6-32.9 10.9 0 18.4 6.4 20.5 16.2h6.5V51.1zM215 57.8h8.1V101c0 19.7 15.8 26.9 30 26.8 19.7-.2 26.6-11.5 26.6-28.5V57.8h8.1v-6.7h-22.2v6.7h8.1v40c0 19.1-8.9 23.3-18.6 23.3-9.3 0-16.7-4.8-16.7-17.9V57.8h8.1v-6.7H215v6.7z"/><g><path class="st4" d="M276.6 36.1V18.9c0-1.4-.2-2.9-.5-4.5l-.3-1.3c1 2.2 1.2 2.8 1.7 3.5l1.1 2 1 1.9 9.7 15.7h8.9V.6h-8.9v10.5c0 2.9.3 6 .9 9.3-.9-1.9-2.2-4.4-3.7-6.8l-8.3-13h-10.3v35.5h8.7zM303.6 18.7c0 10.8 6.9 18 17.3 18 5.1 0 8.9-1.5 12-4.8 2-2.1 2.8-3.6 4.1-7.4l-9.4-.7c-.7 3.7-2.8 5.6-6.3 5.6-4.1 0-6.8-3-6.8-7.6 0-.5.1-1 .1-1.6h22.6c-.1-6.6-.6-8.9-2.9-12.6-1.9-3.4-5.3-5.8-9.3-6.8h-9c-7.5 1.8-12.4 8.6-12.4 17.9zm17.5-12c3.8 0 5.5 2.1 5.9 7.3h-12.4c.5-5 2.6-7.3 6.5-7.3zM243.6 36.1v-8.7h-10.7V.6h-11v35.5zM248.8.6h11v35.5h-11zM143.4 18.4c0 10.9 6.8 18.3 16.9 18.3 10.1 0 16.9-7.5 16.9-18.6 0-9.1-4.6-15.5-12-17.4h-9.5c-7.6 1.8-12.3 8.4-12.3 17.7zm17-10.3c3.4 0 5 3 5 9.3v1c-.1 2.9-.4 5.3-.8 6.8-.6 2.1-2.2 3.4-4.4 3.4-3.5 0-5.2-3.2-5.2-9.9 0-6.9 1.9-10.6 5.4-10.6zM192.4 36.1V18.9c0-1.4-.2-2.9-.5-4.5l-.3-1.3c1 2.2 1.2 2.8 1.6 3.5l1.1 2 1 1.9 9.7 15.7h8.9V.6H205v10.5c0 2.9.3 6 .9 9.3-.9-1.9-2.2-4.4-3.7-6.8l-8.3-13h-10.3v35.5h8.8z"/><path class="st4" d="M330.4 3.1c-2.7-2-6.1-3.1-9.9-3.1-3.8 0-7.2 1.1-9.8 3.1h19.7zM170.5 3.1c-2.8-2-6.2-3.1-10.2-3.1-3.9 0-7.4 1.1-10.1 3.1h20.3z"/></g></g></svg>