<svg id="Ebene_2" data-name="Ebene 2" xmlns="http://www.w3.org/2000/svg" viewBox="0 0 80.35 80.14"><defs><style>.cls-1{fill:url(#Unbenannter_Verlauf)}.cls-2{fill:url(#Unbenannter_Verlauf_2)}.cls-3{fill:none;stroke:#008abf;stroke-linecap:round;stroke-miterlimit:3.86;stroke-width:.4px}</style><radialGradient id="Unbenannter_Verlauf" cx="12.54" cy="101.72" r="56.42" gradientTransform="matrix(1.02 0 0 -1.02 14.43 129.69)" gradientUnits="userSpaceOnUse"><stop offset="0" stop-color="#fff"/><stop offset=".08" stop-color="#ecf7fe"/><stop offset=".52" stop-color="#6fb2dd"/><stop offset=".79" stop-color="#007fb8"/><stop offset=".93" stop-color="#00538c"/><stop offset="1" stop-color="#6fb2dd"/></radialGradient><radialGradient id="Unbenannter_Verlauf_2" cx="28.19" cy="103.39" r="68.21" gradientTransform="matrix(1 0 0 -1 0 127.89)" gradientUnits="userSpaceOnUse"><stop offset=".01" stop-color="#2ea860"/><stop offset=".86" stop-color="#002f1b"/><stop offset="1" stop-color="#445947"/></radialGradient></defs><title>Focus Online_weltkugel_neu</title><path class="cls-1" d="M.62 40a39.7 39.7 0 1 1 39.7 39.4A39.54 39.54 0 0 1 .62 40z"/><path class="cls-2" d="M31 12.85l.4-.3.5-.1.2-.1.3.1h.2l.5.3-.2.1h-.7l-.8.5-.5.1-.1-.2zm1.5-6.6l-.6.2-.1.3a1.72 1.72 0 0 1 1.2 1l.4-.1a3.11 3.11 0 0 1 .9-.7l.1-.3a.2.2 0 0 0-.1-.2h-.2a.1.1 0 0 0-.1.1l-.4-.1zm.2 5.4l-.4.1-.6.2h.2l.4-.1.3.2.3.2.2-.3.2-.3-.3-.2zm-.1-.4l.3.3.4-.3-.3-.4a1 1 0 0 1-.9.1l.2-.3-.7.2a1 1 0 0 1-.8.5 1.23 1.23 0 0 0 .8.4 4.67 4.67 0 0 0 1.02-.5zm2.5 2.4a.85.85 0 0 0 0-.7l-.3-.3.2-.7.6-.2.2-.9a.37.37 0 0 0-.3.1V11h-.1c-.1 0-.1.1-.2.1a1.14 1.14 0 0 1-.3.6l-.5.1c-.7.5-.1 1.5.2 2zm.4-2.9l.2-.1-.2-.1c-.1 0-.1-.1-.2-.1a.1.1 0 0 0-.1-.1c-.1 0-.1.1-.2.1h-.1l-.1-.2-.3.2h-.1l-.2.1-.2.3.5.1h-.1a2 2 0 0 1 .7-.6h.3l-.2.1-.1.3-.5.1a2.77 2.77 0 0 0 .9.1.1.1 0 0 0 .1-.1zm11.2 4.8a.48.48 0 0 0-.5.1l-.3-1.3-.1-.2a3.33 3.33 0 0 1-1.4-.1v.2l-.3.2-.1.1a.1.1 0 0 1-.1-.1c-1-.6-1.1-.2-1.7 0-.2.1-.5.1-.8.2l-.1.3c-.8.7-1.1 0-1.7.3l-.2.3.1.2-.6.2.1.2-.3.5.3.1a2.18 2.18 0 0 0 .4.5 1.39 1.39 0 0 1 0 1.1c-.4.9-1.3 1.8-1.3 2.4l.5.1-.4.2-.7.1-.2.9.5.3c-.6.9-1.1.8-1.6 1.4a9.1 9.1 0 0 0-1.2 3.1 3.44 3.44 0 0 0-.1 1.7 11.61 11.61 0 0 1 .3 1.6l.5.3.4-.1a17.41 17.41 0 0 1 1.2-1.8c.7-.9 1.4-1.9 1.6-2.1a3.33 3.33 0 0 1 1.4.1c.5-.2.9-1.1 1.6-1.4l.3.2c.6.1 1.7-.8 2.2-1.1a.68.68 0 0 1-.4-.6.35.35 0 0 0-.1-.2l.3-.5.1.4.3.2.3-.5a4.22 4.22 0 0 1 .3-1.9l.5-.4.3-1.2-.2-.6.6-.4a.91.91 0 0 1-.3-.7 3.34 3.34 0 0 1 1.1-2.2zm-4.6 14.2l.5-.1.6-.4.4-.6.1-.1-.4-.8-.2.1h-.7l-.3-.2h-.5l.1.6-.1.3v.9zm-1.3 11.2l1.1-.3.5-.8v-.7l.5-.6-.6-.7-.5-.1-.5.4-.7.6.1.5.1.4-.7.9zm-8.4-31.1v-.2a.6.6 0 0 0-.4-.1 1.85 1.85 0 0 0 .7-.2.34.34 0 0 1-.3-.2 1.41 1.41 0 0 1 .7-.6 1.13 1.13 0 0 1-.8-.5.85.85 0 0 0-.7 0l-.2.3.1-.3H31a.71.71 0 0 0-.3.6l-.4.3.2-.7h-.2a2.25 2.25 0 0 1-1.4.6c.3.5-.2.6.2 1.3-.1.1-.1.2-.2.3a1.06 1.06 0 0 0-.2.5.78.78 0 0 0 1 .2 3.51 3.51 0 0 1 .5-.8 7.85 7.85 0 0 0 2.22-.5zm11.5-9l-1 .1 1.2.3 1.6.6 1.7.4 1.4.1 1.5.5 1.1.6 1.7 1v.2l1.7 1.1 1.5.5.4.3.7.6-.3.6 1 1 .9 1.5-.8-.2-.6-.5-.5.1v.7l.1.1.8 1 .9 1.5 1.3 1.3.5 1 .6-.2.6.5-.4.1.1.9-.3-.1-.3-.1 1.5 1.3.3.2.5.1 1 1.2-.5-.6-.3-.2-.3-.1-.3-.3-.3.1-.5-.3-2.1-1 .1.2.3.4.3.2.6.4 1.7 1.2-.1.3-1.7.3-.2.25.9.9-.9 1.65-.2 1.1-.1.6-.3-.6-.1-.2h-.9l.1.2.4.8.3.3.1.6-.4.8.2.8-.8.4.7.65-1-.2h-.2l-.4-.6-1.1-.8h.9l.9-.1.4-.8-.9-.9-.5-.1-.8-.4h-.9l-.6.2h-.2l-.4-.4-.3-.3H54l-.3.3-.3.3-.7.6-.2.9-.6 1-.4 1.2-.2.9v.2l-.2 1-.5.8-.9.9-.2.3-.8 1.1v1.3l.1 1.1.8.5.8-.5.8-.4.5 1 .5 1 .4 1.4h.7l.2-.7.7-.6.1-.3-.1-.6.1-1.1.2-.3.3-.5-.4-.6-.5-1.9.4-1 .4-1 .1-.9v-.3h.9v.3l.1.8-.6 1-.1 1.1v.2l.7 1.4 1 .3.9-.1.6-.4.1.3-.4.1-.5.1-.2.2-.2.1-.4.3.1.6.5.3v-.2l.1.6.2.6-.4.3-.6-.7-.3.5-.1.5.2.8.2.8-.5.4-.1.3-.4.3-.3-.4-1.1.8-.6.4-.9-.4h-.1l-.6.5-.4-.5-.1-.1v-1.6l-.1-1.1-.3-.1-.7.9.1 1.3.3.8.1.4-.8.4h-.9l-.7.9-.4 1-.7.6-.7.6-.8.5-.9.1-.3.3-.2.3-1-.2-.7.6.6.5.3.1.8 1.3-.1 1.2-.3 1.1v.1l-.9.1-.9-.2h-.1l-.3-.1-1.2-.1-1-.2-.5.4-.4-.7.1.9-.2 1-.58 1.1.2.8v.9l.8.2.5.5.3.4h.7l.5-.1h1.4l.4-.3.4-.2.7-.6.4-1 .7-.9 1-.7.7-.7.1-.5.8-.4 1.3-.1.8-.4.6-.4.2-.2.2.2.7.4.4.6.4.6 1.1.6.8.5.8.2.3.8-.2 1 .7-.9-.2-.8.8-.4.4-.3-1-.4-.5-.3.1-.3-.3-.3-.5.1-.8-.5-.6-.7-.1-.1-.4-.7-.1-.4.7-.6.3.2.2.4.6.5.8.5.1.1.5.3.8.5.6.5.1.9.6.5.7.9.1.4.3 1h.7l-.1-.6.2-.9.5-.6-.7-.2-.1-.4-.2-.8.6-.4.8-.4h1.9l.1-.3.1-.2-.6-.7.2-1-.1-1.3.5-1.3.1-.3.1-.2.4-.1.9-.1-.2.5-.1.3.5.3.4.3.5-.9.1-.2v-.2l-.4-.6.5-.8.5-.8.3.2v.6l-.2.9.4.5 1 .4h.7v.1l.3.6.1.4-.4.8-.7.6-.4.1h-.9l-.8.2-.8.5-.8 1.1-.8.5v.1l-.5.9-.8.2-.2.9.2.8.5.3.5.8h.7l.9-.7 1-.3.8-.2.7-.7h.2l.1.2.1.9-.1.5v1.6l-.2.6-.2.4a2 2 0 0 0-.7.6l-.7-.2c-1 1.8-3 1.1-3.6 1.7-1.2-.6-4.1-.2-3.6 1.9l-.5.4-1.1-.6-.6.2a1.21 1.21 0 0 1-1.2-.8c-.7-.2-2 0-2.4-.2l-.3-.4-.5.1c0-.6.5-.9.5-1.5l-.2-.6.2-.7-.4.1-.5-.3c-.3.1-.7.2-1 .3a4.58 4.58 0 0 0-2 .1c-1-.4-4.5.6-5.4 1.3l-.3-.1-.1-.2a5.82 5.82 0 0 1-1.9-.3l-.3-.4a3.64 3.64 0 0 0-1.2 1.5 2.89 2.89 0 0 0-2.4 1.1 4.28 4.28 0 0 1-.5 1.3v.2c-.3.6-1.5.7-2.2.9l-.3-.1a21 21 0 0 0-4.7 3.7.31.31 0 0 0-.1.2 4.35 4.35 0 0 1 .6.7 1.78 1.78 0 0 0-.4 1l.3.4c-.1.3-.8.9-.8 1.1a2 2 0 0 1-.8.4 1.91 1.91 0 0 0 .3.8c-.4 1 .6 1.6 1.3 1.9l.1.4c.4.2.5.7.9.9-.2.2.2.4.1.6l.3.4c.8 0 2.3 2.3 4.5 2.3 1.4 0 2.6.3 4 .4 2.2.1 3.7-.8 5.9-.2l.3.4a4.92 4.92 0 0 0 2.4-.2l.3.2.4-.1c.6.5-1.7 1.8-1.1 1.9l.3.1.1.2 1.2.3-.2.3.4-.1v.1a40 40 0 0 0 24.1-16 1.63 1.63 0 0 1 .3-.6c.2-.3.3-.7.5-1s.1-.4.3-.6a.37.37 0 0 0 .1-.3l.1-.2.1-.2-.1.1-.2.2-.3.5-.5.6c-.4.4-.6.8-1 1.2l-.7.9c-.2.3-.3 0-.4-.1.7-.8-1.1-.4-1.2-.5-.6-.5 0-.7-.9-.9l-.1-.2a1 1 0 0 0-.7-1.4 2.19 2.19 0 0 0-.3-.5.75.75 0 0 1-.1-.5H68a4.18 4.18 0 0 0-1.1-1.5l-.2-.8c.3.2.4.5.7.7l.2-.1.3-1.2.3 1 .7.7.4.6.5.1.4.5-.1.5.3.2v.2l.5.1.4.5v.2l.4.5.1.6v.5l.9-.7.5-.8.2-.3.7-1 .1-.1.6-1.1.6-.9.4-1.2.2-.3.6-1.1.3-.8.3-1.2.1-.3.3-1.2.3-1.2-.1-.2-.4.3-.3-.1-.2-.8-.3 1.2-.3 1.2-.5.8-.3-.1-.1-.2-.2.3-.3-.4h-.2l-.4-.5-.1-.2v-.3l.6-.7h.3l.5.3.6-.4.5-.8.4-.4.4-.1.3-.6.5-.6v-.2l.4-1.2.1-.5.4-1 .1.2v-.4l.1.2.1.2.2-.3-.1-.4v-.2l.1-.5.1.1c.1-1.1.2-2.2.2-3.3C79.92 19.85 63.92 2.65 43.92.85zm-23.1 73.5v-.2a2.18 2.18 0 0 0-.5-.8v-.2c-1.6-1 .2-1.7.5-2.9-.6-1-3.5-3.1-3.5-3.2a17.76 17.76 0 0 1-4.5-2.8 12 12 0 0 1-1.2-1.1 1.07 1.07 0 0 1-.6.2l.1-.5-.3-.2a7 7 0 0 1-.9-.6c-.1-.1-.1-.4.1-.3l.1-.3c-.2-.3-.6-1-1.1-1.9-.8-1.5-1.9-3.4-2.7-3.3a2 2 0 0 1-.4-.8L5.62 55v-.4c-.1-.2-.2-.3-.3-.5-.4-.7-1.8-3.5-2.7-5.2a9.32 9.32 0 0 1-.7-1.3v.4c-.1-.7-.4-2.5-.6-3.8-.1-.6-.2-1.1-.2-1.3.7-1 .5-2.3.3-3.5a2.2 2.2 0 0 1-.1-.8 4.44 4.44 0 0 1 .8-1.1c0-.4.4-.6.4-1l-.3-.4a3.67 3.67 0 0 0-.1-1.8.51.51 0 0 1-.5.1 6.37 6.37 0 0 0 .2-.7 16.47 16.47 0 0 1 .6-3.2 6 6 0 0 1 .8-1.6 4.35 4.35 0 0 0 .4-.7.9.9 0 0 0 .1-.5l.5-.4c.2-.1.3.3.4.5a4.12 4.12 0 0 0-.1 1.2 12.12 12.12 0 0 0 .1 2l.2-.1a12.31 12.31 0 0 1 .2 2 2.62 2.62 0 0 1 .5.9 30.36 30.36 0 0 1-1.2 3.6l.3.4c1-1 .8-2.9 1.8-3.9l.4-.1c.6.5 1.5.3 2.1.9a1.13 1.13 0 0 0 .8-.5.6.6 0 0 1 .1-.4 10.37 10.37 0 0 0 .4-1 2.65 2.65 0 0 1 .6-.5 2.57 2.57 0 0 0-.5 1.2.76.76 0 0 1-.4.2 5.9 5.9 0 0 0 .8-.4 2.11 2.11 0 0 1 .4-1l-.1.5.3.3c1.1-.7.6-.6 1.4.1l.1-.3.1.4c.2.2.6.5.8.2s0-.1-.1-.1c.8-1 .3-.5 1.4-.7a2.84 2.84 0 0 1 1.4.9.22.22 0 0 1 .2.2h1.2v-.6a1.76 1.76 0 0 0 .6-1.3l.7.2.2-.7-.4-.6-2.8-.8a4.92 4.92 0 0 1 2.1-.4l.1.2 1.1.1a7 7 0 0 0 2.2 2 5.28 5.28 0 0 1 1.3-.1l.6.5a4.56 4.56 0 0 0 1.2-1.2l-.2-.6.3-.6-.3-1.2a.1.1 0 0 0-.1-.1c0-1.2 1.3-2.5 1.4-3.8l.5-.4c-.7-.1-1.3.6-2.1.4a1.1 1.1 0 0 1 0-.8 1.42 1.42 0 0 1 .2-.6l1.5-1.3a1.74 1.74 0 0 1 .3-1.4l-.5-.8v-.7c-1.2.1-2.2 1.5-3.5 1.9l-.2.7c-.7.9-1.9.8-2.8.8a5.71 5.71 0 0 1-1.3 1.4.6.6 0 0 1-.4.1V24l-.2-.4c.8-.7.8-1.5 1.9-2.1l.3-.6-.4-.9a14.62 14.62 0 0 0 .5-2 7.08 7.08 0 0 0 .1-1.5 4.12 4.12 0 0 0 1.3-1l.1-.3a6.67 6.67 0 0 1 3.7-.4l.2-.1.5.3v.2l.6.3a10.93 10.93 0 0 1 1.7-.5v.7l.7.2c.5-.2.9-.4 1.4-.6l.3-.5-.1-.4a5.85 5.85 0 0 1-1.3.2l-.5-.3a2.57 2.57 0 0 0 .5-.2 1.34 1.34 0 0 0 .7-.6l-.3-.2a15.94 15.94 0 0 0 2.1-1.5 2.62 2.62 0 0 0-1.5.2l-.5.6a2.89 2.89 0 0 1-1.6 0l.8-.4.3.1.6-.4a.71.71 0 0 0-.6-.3l-.6.2-.3-.3a5 5 0 0 1 .5-1.3V10l-.5-.3.5-.4a.85.85 0 0 0 0-.7l.4-.3.5-.1a2 2 0 0 1 1.3-1.1l.1-.3.4-.3-.2-.2-.1-.1.8-.2v-.15l.4-.3c-.3-.7.3-.9.3-1.2 1.9-.5 3.4-1.4 5.3-1.5l.1-.3a1.76 1.76 0 0 0 .9-1 1.13 1.13 0 0 1-1.2-.3l.2-.3-.4.1-.6.3a.55.55 0 0 0-.5-.3v-.2C16.42 2.95.62 19.75.62 40a39.74 39.74 0 0 0 20.2 34.35zm10.7-60.2L31 14c.1-.4-.5-.2-.5.1v.2c.1.3.2.5.3.8l.3.2a1.42 1.42 0 0 0 .2.6 2.18 2.18 0 0 1-.9.7l.3.4-.1.5a2.07 2.07 0 0 0-1 .6h-.1l-.5.1-.3.5-1-.2.2-.3.1-.1-.5-.1H27l-.2.1a1.48 1.48 0 0 1 .2 2.2 15 15 0 0 1 .2 2 1.75 1.75 0 0 0 .4-1.2l.3.1.1.4.6.3a1.44 1.44 0 0 0 .3-1.4 4.3 4.3 0 0 0 .9-1l.3.2a4.4 4.4 0 0 0-.2 1.6 10 10 0 0 0 1.4-.8c-.1-.7.3-1.5.1-2.1a1.15 1.15 0 0 0 .9-.6.37.37 0 0 0 .1-.3 6.53 6.53 0 0 0 0-1.4 9.83 9.83 0 0 1 1.2-1.5 1.2 1.2 0 0 0 0-.6v-.4c-.08-.6-1.6.05-2.08.55zm-6.3 2.6a.71.71 0 0 1-.3.6l1 .2-.3.5.1.4a1.51 1.51 0 0 0 .4-.4 12.45 12.45 0 0 0 1-2 7.31 7.31 0 0 1-1.88.7zm11-7.2l-.4.1-.2.3a1.82 1.82 0 0 0 1.4-.6c-.08-.6-.58-.1-.78.2zm7.4 33.1l1 .1 1.1-.1.5-.4.5-.6-.1-.9-.7-.9-.3-.6-.2-.4-.3-1.1-.4-.6.6-.9-1-.4.4-.8-.5-.1H44l-.5.8-.2 1 .1 1.1.3 1 .4.7.1.1-.5.4-.4 1v.7l-.1.3-.9.7.3.2zm-7.7-35.5a1.42 1.42 0 0 0-.6.2l.5.3v.2a.71.71 0 0 0 .6.3l.1-.5a.63.63 0 0 1-.58-.5zm14.9 9.5l-.3-.1-.5.1v.7h.9zM49.92 18l.4.5.5.8.5.3v-.7l.1-.5-.2-.4-.2-.4-.7-.2-.6.2zm11.6 36.5h.1l.7-.2-.5-.3-.4.1-.8.2.9.2zm-7.2-43.6l-.1.3.6.3.7.2.3-.5-.6-.3h-.9zm-.9-5.2l-.2.3.4.5.3.1.3.1v-.05l.1-.3-.5-.1zm4.2 12.3l.2.4.1.2.08.4.5.8.3.2.8.4.6-.2-.5-.3-.7-.7-.7-.9-.1-.3-.2-.7-.2-.8-.1-.4-.4-.8-.4.3v.7l.3 1zm-3.2 36.7l.2-.1.5-.4-.4-.6-.6.2-.3-.1-.3.6.6.3zm1.7-44.3l-.6.2h-.2l.3.2.8.2zm-32.5 22.3l-.1-.2a13.19 13.19 0 0 0-1.9.9h1a1.45 1.45 0 0 0 1-.65zm-8.1 1.3l.4.5.5-.1a4 4 0 0 0 1.5.6 1.84 1.84 0 0 0-.5-1.2v-.3h-1.2a.85.85 0 0 1 .3.5 1.14 1.14 0 0 0-1 0zm21.2-22.4a2.79 2.79 0 0 0 2.2-1.1c-.4.15-2.92-.25-2.2 1.15zm14.4 38.1l-.4.3-.1.3.4.5zm-12-38l-.5.2-.3-.3-.2.4a1.45 1.45 0 0 1-1.1-.1l-.2.3-.5.1.4-.3a1.45 1.45 0 0 1-1.1-.1.85.85 0 0 0 0 .7l.3.2-.1.3.3.2 1-.3c.8.4 3.4-.4 4.4.1l.2-.1c.4-.8-.6-1.2-.8-1.8-.6.05-1.92-.75-1.8.55zm-16.7 22.5l.2-.8h-1c-.6.3-1.1.6-1.3.7-.1 1.1.8 1 1 1.7l-.2.7h.5a2.77 2.77 0 0 1 .1.9 1.13 1.13 0 0 0 .8-.5 1.2 1.2 0 0 0-.2-.8l.5-.4-.1-.4.2-.3a.75.75 0 0 0-.5-.75zm28.2 19.1l.6-.4.1-1.1-.4-.6-.2.3-.2.7zM4 43.45l.3.1-.1-.2c0-.3-.3-2.5-.6-4.1-.2-.9-.3-1.6-.3-1.6.2-.3-.5-.7-.5-.8a2 2 0 0 0 .3 1.1 3.22 3.22 0 0 0 0 1.4.39.39 0 0 0 .2.4 4.25 4.25 0 0 1 .2 1.1l.2.6-.3.6a8.43 8.43 0 0 1 .6 1.4zm.5 3.2a.85.85 0 0 1 .5.3l.1.4a1 1 0 0 1 .5.8l.1-.3c-.4-.9-.5-2.6-1.2-3.4a1 1 0 0 0 0 .9h-.18a2 2 0 0 0-.4-.8l-.1.5a2.93 2.93 0 0 1 .7 1.6z"/><path class="cls-3" d="M34.62 10.25c1-4.5 7.5-6.9 14.3-5.3s11.5 6.8 10.4 11c-1.1 4.5-7.4 6.9-14.2 5.3s-11.6-6.5-10.5-11zm-12 2.5C24.62 4 36-.45 49.52 2.35c12.1 2.5 21.5 12.2 19.4 20.9S55 36.95 42.12 33.95s-21.6-12.5-19.5-21.2zm55.2 40.7c-6.2 13.1-25.1 20.4-44.1 15.8-21.4-5.1-35-21.6-32-37.4m61.8 40.3c-8.2 4.6-19.5 6.2-31.1 3.6-15.6-3.5-26.5-14-30-24.9m77.4-15.7a47.56 47.56 0 0 1-.5 5.6c-3.6 15-22.6 23.5-42.9 18.9s-34-21.3-30.6-35.9a21.37 21.37 0 0 1 2.6-6.9m64.5.8c2.6 4.5 3.9 10.1 2.8 14.6-2.9 12.1-19.3 18.7-36.8 14.8s-28.8-16.9-26.2-29.5c.7-3.5 3.5-7.3 6.3-9.9.8-.7 1.6-1.5 2.5-2.2m25.9 9.1c0 17.6-2.3 54.1-8.6 65m9.8-65c4.2 12 11.6 50.4 2.1 63.7m-.9-63.8c7.6 10.8 22.3 45 11.2 59.4M50.72 14C63.42 25.65 78 51 71 65.15m-18.9-53.3c9.5 1.8 20 5.9 26 16.3m-26.5-14.6c14.2 8.1 29.5 27.3 25.5 41.6M52 12.75c11.1 4.3 24.8 12 28 28.2m-28.4-30.1c6.9-.3 15.7 1.5 22.1 7.9m-23-8.7c4.7-1.2 12-1.3 17.1 1.9m-18-2.6c3.4-2.2 8.3-3.3 11.9-2.3m-12.9 1.8a10.73 10.73 0 0 1 7.1-4.9m-8.1 4.6a12.38 12.38 0 0 0 .2-7.1m-1.3 6.9c-.6-3.2-2.7-6.5-5.3-7.7m4 7.6c-2.6-3.4-6-6.6-11.2-7.1m8.6 8c-6-2.8-16.2-5-26.1-.5m25.5 1.3c-8.6-1.9-24.5-3-34.4 7.8m34.3-6.8c-14.3-.3-34.4 4.1-40 19.3m40.4-18.4c-18.6 3.3-41.2 15-41.6 31.5m42.2-30.7c-14.6 5.6-39.9 21.6-39.8 41.2M44 13.25c-14.8 10.1-38.2 35.5-34.4 51.5M45 13.85c-10.2 12.9-29 44.1-27.1 58.6m28.2-58.2c-4.5 12.7-16.7 48.9-18.1 63.1m16.1-68.9c-4.5-3.6-12-6.4-18.6-4.8"/></svg>