<svg width="470" height="148" viewBox="0 0 470 148" fill="none" xmlns="http://www.w3.org/2000/svg">
<path d="M134.912 146.081L130.406 125.742H108.579L104.214 146.081H93.5112L114.353 54.7526H124.773L145.896 146.081H134.912ZM119.14 73.3858L115.057 94.6434L110.41 116.032H128.435L123.647 94.381L119.704 73.3858H119.14Z" fill="black"/>
<path d="M193.85 146.081L179.909 106.06H169.347V146.081H158.222V54.7526H179.768C187.748 54.7526 193.615 56.8959 197.37 61.1824C201.126 65.4689 203.003 71.9862 203.003 80.7341C203.003 85.9829 202.158 90.6193 200.468 94.6434C198.779 98.6675 195.399 101.773 190.329 103.96L205.256 146.081H193.85ZM191.738 80.7341C191.738 78.2847 191.55 76.054 191.174 74.0419C190.799 72.0299 190.048 70.324 188.921 68.9244C187.888 67.4372 186.48 66.3 184.697 65.5127C182.913 64.7253 180.613 64.3317 177.796 64.3317H169.347V96.4805H178.782C181.317 96.4805 183.429 96.1306 185.119 95.4307C186.809 94.6434 188.123 93.5499 189.062 92.1502C190.095 90.7506 190.799 89.0884 191.174 87.1639C191.55 85.2393 191.738 83.0961 191.738 80.7341Z" fill="black"/>
<path d="M220.474 146.081V54.7526H231.739V146.081H220.474Z" fill="black"/>
<path d="M271.364 64.2005V146.081H260.098V64.2005H243.481V54.7526H287.98V64.2005H271.364Z" fill="black"/>
<path d="M343.507 121.543C343.507 129.679 341.771 135.978 338.297 140.439C334.917 144.813 329.097 147 320.835 147C312.762 147 306.988 144.944 303.514 140.833C300.135 136.721 298.445 131.297 298.445 124.561V79.5532C298.445 76.3164 298.727 73.1671 299.29 70.1053C299.947 67.0435 301.074 64.3317 302.67 61.9697C304.359 59.5203 306.659 57.5957 309.57 56.1961C312.48 54.7089 316.282 53.9653 320.976 53.9653C325.858 53.9653 329.754 54.6214 332.664 55.9336C335.668 57.1583 337.968 58.9079 339.564 61.1824C341.16 63.4569 342.193 66.125 342.662 69.1868C343.226 72.2486 343.507 75.6166 343.507 79.2907V121.543ZM332.383 77.5849C332.383 76.0102 332.242 74.3918 331.96 72.7297C331.772 71.0676 331.303 69.5805 330.552 68.2683C329.801 66.8686 328.627 65.7314 327.031 64.8566C325.529 63.8943 323.511 63.4131 320.976 63.4131C318.16 63.4131 316.001 64.0692 314.498 65.3814C312.996 66.6062 311.87 68.0933 311.119 69.8429C310.368 71.5925 309.898 73.4733 309.711 75.4853C309.617 77.4099 309.57 79.0283 309.57 80.3405V124.693C309.57 126.005 309.711 127.405 309.992 128.892C310.274 130.379 310.837 131.779 311.682 133.091C312.527 134.403 313.654 135.496 315.062 136.371C316.564 137.159 318.488 137.552 320.835 137.552C323.182 137.552 325.107 137.115 326.609 136.24C328.111 135.365 329.285 134.272 330.129 132.96C330.974 131.56 331.538 129.985 331.819 128.236C332.195 126.486 332.383 124.693 332.383 122.856V77.5849Z" fill="black"/>
<path d="M371.821 83.621V146.081H360.696V54.7526H371.258L391.536 101.073L398.295 117.738L398.858 117.607V54.7526H409.983V146.081H399.562L379.284 100.155L372.243 83.621H371.821Z" fill="black"/>
<path d="M428.036 146.081V54.7526H470V64.3317H439.16V94.9058H465.916V104.485H439.16V136.634H470V146.081H428.036Z" fill="black"/>
<path d="M81.8246 24.1223C76.122 32.6744 73.5876 42.1767 72.6371 47.2446C71.8842 51.2594 59.4712 94.3264 53.1792 115.978C52.801 116.189 51.9179 116.358 51.411 115.345C50.7774 114.078 50.7774 110.277 50.4606 103.625C50.1438 96.9735 47.6093 89.0549 46.3421 84.9372C45.0748 80.8195 34.937 64.9823 34.6202 64.6656C34.3034 64.3488 24.1655 42.4935 23.2151 41.2265C22.2647 39.9595 24.4823 37.7423 25.7496 35.2084C27.0168 32.6744 27.6504 31.0907 27.3336 26.973C27.0168 22.8553 22.2647 22.8553 19.7302 21.9051C17.1957 20.9549 15.6117 16.5205 13.0772 9.86884C10.5428 3.21721 3.88978 1 1.98893 1C0.0880852 1 1.03851 4.80093 3.88978 9.23535C6.74106 13.6698 8.00829 23.1721 8.6419 30.1405C9.27552 37.1088 14.0276 47.8781 15.6117 50.0953C17.1957 52.3126 19.4134 60.5479 22.5815 71.0005C25.7495 81.453 29.2344 92.8558 31.1353 98.8739C33.0361 104.892 35.5706 124.847 36.2042 130.865C36.8378 136.883 42.5404 143.852 47.6093 146.386C52.6782 148.92 60.9152 143.218 66.301 136.566C71.6867 129.915 72.6371 116.612 74.538 113.127C76.4388 109.643 77.7061 106.159 78.9733 101.408C80.2405 96.6567 81.8246 87.7879 81.8246 81.7698V57.3805C81.8246 54.5298 81.8246 52.3126 83.7254 50.0953C85.6263 47.8781 88.4776 49.4619 90.0616 47.2446C91.6456 45.0274 88.4776 36.1586 88.4776 33.3079C88.4776 30.4572 88.4776 26.973 91.9624 24.1223C95.4473 21.2716 91.9624 16.8372 91.9624 12.4028C90.3784 0.683237 88.7944 5.11765 88.4776 8.60184C88.1607 12.086 87.5271 15.5702 81.8246 24.1223Z" fill="black"/>
<path d="M52.995 116.612C53.0558 116.403 53.1172 116.191 53.1792 115.978M53.1792 115.978C59.4712 94.3264 71.8842 51.2594 72.6371 47.2446C73.5876 42.1767 76.122 32.6744 81.8246 24.1223C87.5271 15.5702 88.1607 12.086 88.4776 8.60184C88.7944 5.11765 90.3784 0.683237 91.9624 12.4028C91.9624 16.8372 95.4473 21.2716 91.9624 24.1223C88.4776 26.973 88.4776 30.4572 88.4776 33.3079C88.4776 36.1586 91.6456 45.0274 90.0616 47.2446C88.4776 49.4619 85.6263 47.8781 83.7254 50.0953C81.8246 52.3126 81.8246 54.5298 81.8246 57.3805C81.8246 60.2312 81.8246 75.7516 81.8246 81.7698C81.8246 87.7879 80.2405 96.6567 78.9733 101.408C77.7061 106.159 76.4388 109.643 74.538 113.127C72.6371 116.612 71.6867 129.915 66.301 136.566C60.9152 143.218 52.6782 148.92 47.6093 146.386C42.5404 143.852 36.8378 136.883 36.2042 130.865C35.5706 124.847 33.0361 104.892 31.1353 98.8739C29.2344 92.8558 25.7495 81.453 22.5815 71.0005C19.4134 60.5479 17.1957 52.3126 15.6117 50.0953C14.0276 47.8781 9.27552 37.1088 8.6419 30.1405C8.00829 23.1721 6.74106 13.6698 3.88978 9.23535C1.03851 4.80093 0.0880852 1 1.98893 1C3.88978 1 10.5428 3.21721 13.0772 9.86884C15.6117 16.5205 17.1957 20.9549 19.7302 21.9051C22.2647 22.8553 27.0168 22.8553 27.3336 26.973C27.6504 31.0907 27.0168 32.6744 25.7496 35.2084C24.4823 37.7423 22.2647 39.9595 23.2151 41.2265C24.1655 42.4935 34.3034 64.3488 34.6202 64.6656C34.937 64.9823 45.0748 80.8195 46.3421 84.9372C47.6093 89.0549 50.1438 96.9735 50.4606 103.625C50.7774 110.277 50.7774 114.078 51.411 115.345C51.9179 116.358 52.801 116.189 53.1792 115.978Z" stroke="black"/>
</svg>
